<?xml version="1.0" encoding="utf-8"?>
<!-- Generator: Adobe Illustrator 26.0.1, SVG Export Plug-In . SVG Version: 6.00 Build 0)  -->
<svg version="1.1" id="Слой_1" xmlns:xodm="http://www.corel.com/coreldraw/odm/2003"
	 xmlns="http://www.w3.org/2000/svg" xmlns:xlink="http://www.w3.org/1999/xlink" x="0px" y="0px" viewBox="0 0 238.1 150.2"
	 style="enable-background:new 0 0 238.1 150.2;" xml:space="preserve">
<style type="text/css">
	.st0{fill-rule:evenodd;clip-rule:evenodd;fill:#222221;}
</style>
<g id="Слой_x0020_1">
	<g id="_105553256495872">
		<g id="Layer_x0020_1">
			<path class="st0" d="M181.7,95.3c0.8-0.1,3.4-1.3,4.2-1.7c2.2-0.9,2.3-0.6,2.7-1.8c0.2-0.4,0.4-0.7,0.3-1.1l-6.3,2.4
				C182.3,93.4,181.7,95,181.7,95.3L181.7,95.3L181.7,95.3z M71.4,109.5c0.5,0.5,2.2,2.8,2.2,3.9c-0.8,0.6-3.4,0.7-4.5,0.4
				c-2-0.4-1.6-2.4-1.9-3.2c-1.1,0.1-0.7,1.9-1.7,2.9c-0.7,0.7-2.7-0.5-3.3-0.8c0-0.6,0.4-1.1,0.3-1.8c-0.5-0.1-0.6,0.3-0.9,0.6
				c-0.7,1.1-1.1,1.7-2.6,2.1c-0.9,0.3-2,0.4-2.8,0c-1-0.4-0.6-1.4-0.6-2.6c-0.4,0-2.6,0.7-3.3,0.9c-1.1,0.3-2.4,0.5-3.4,0.8
				l-0.6,3.4l1.1-0.1c-0.2,1.3-0.6,2.6-1.3,3.4c-1.4,1.9-3.1,3.2-5.6,3.7c-0.6,0.2-1.2,0.3-1.9,0.4c-0.7,0-1.6-0.1-2,0.4
				c-0.3,0.9,3.6,1.4,4.2,1.4c2,0.1,3.4,0.1,4.7-1.1c2.6-2.4,2.8-8,3.2-8.4l3.9-1.1c0.4,1.1,0.1,1.1,0.8,1.8
				c1.5,1.5,4.2,0.5,5.2-0.6c0.3-0.3,0.1-0.2,0.4-0.4c0.3,0.1,0.4,0.4,1.2,1c3.3,2,3.6-0.2,4.2-1c0.4,0.3,0.5,1,1.8,1.5
				c0.9,0.4,1.9,0.4,3,0.4c4.9-0.3,4-5.6,2.6-8.6c-0.4-1.1-2.1-3.6-2.8-3.9c-0.4,0.3-0.9,2-1,2.7c-0.2,0.9,0.4,1.4,1,1.8
				C71.1,109.8,70.9,109.6,71.4,109.5L71.4,109.5L71.4,109.5z M103.2,115.6c0.3,0.2,0.4,0.4,0.6,0.5c0.2,0.2,0.4,0.4,0.7,0.4
				c1.5,0.9,2.8,1.3,3.8-0.4c0.2-0.3,0.2-0.4,0.4-0.7c0.5,0.4,0.7,1.2,2,1.7c1,0.4,2.3,0.3,3.4,0.2c3-0.3,4.4-1.9,5.1-2.2
				c0.3,0.4,0.8,0.9,1.1,1.1c1.6,1.2,2.9,1.2,5,1.1c2.9-0.1,4.5-0.5,5.1-3.2c0.4-1.9-0.6-8.5-1-11.2c-0.4-3.2,0.3-2,0.5-3.4
				c-0.3-0.3-0.4-0.3-0.6-0.5c-1-1.1-0.9-1.8-1.3-2c-1.9,3-1.4,2.2-0.7,3.5c0.4,1,1.5,9.2,1.9,11.2c0.1,0.5,0.4,1.3,0,1.5
				c-0.9,0.5-4.2,0.4-5.2,0.4c-1.2,0-2.1-0.2-2.8-0.9c0.4-0.7,1.8-1.9,1.3-3.4c-0.4-1.1-1.5-1.6-2.9-1.8c-4.4-0.4-5.5,3.2-5,4.1
				c0.7,0.1,0.8-0.6,1.9-0.3c0.6,0.2,1.1,0.6,1.4,1.1l-0.6,0.3c-0.7,0.4-0.9,0.4-1.8,0.6c-1.1,0.3-1.9,0.2-3.1,0.2
				c-1.1,0-1.9-0.2-2.4-0.8c-0.7-1-0.3-1.6-0.7-2.4c-0.4,0-0.5,0.2-0.7,0.5c-0.1,0.3-0.2,0.5-0.3,0.9c-0.2,0.5-0.5,1.2-0.8,1.6
				c-0.7,0.6-2.6-0.4-3.3-1c0.1-0.5,0.4-1.1,0.3-1.7c0,0-0.1-0.1-0.4,0c-0.2,0.1-1,1.2-1.2,1.6c-1,1.2-3.5,1.8-4.8,1.2
				c-1-0.4-0.7-1.3-0.6-2.6c-0.5,0.1-1.1,0.4-1.7,0.5l-5.1,1.2l-0.5,3.4l1.1-0.1c-0.2,1.2-0.7,2.6-1.2,3.4c-4,5.1-8.6,3.5-9.4,4.4
				c0,0.5,0.3,0.5,0.7,0.7c2.4,0.8,6.4,1.4,8.1-0.4c1-0.9,1.6-2,2.1-3.7c0.3-0.8,0.4-1.4,0.6-2.3c0.1-0.6,0.3-1.9,0.4-2.4l4-1.1
				c0.4,1.1,0.1,1.1,0.9,1.9c1.1,1.1,2.8,0.8,4.1,0.2C102.6,116.3,102.7,115.9,103.2,115.6L103.2,115.6L103.2,115.6z M181.5,111.4
				c-0.4-0.1-0.4,0.4-0.6,0.6c-1.2,2.1-2.1,5.7-1,7.9c2.8,5.2,16.3,2.8,12-9.7c-0.3-0.7-1.1-3.5-1.9-3.9c-0.2,0.3-1.4,2.8-1.3,3.1
				c0,0.5,3,4.2,3,6.1c0,1.9-6.2,4.9-9.4,2.7c-0.9-0.6-1.4-1.6-1.5-3.1C180.8,112.6,181.9,112,181.5,111.4z M151.4,113.3
				c-2,1.1-4.4,3.9-5.2,6.7c-1.1,3.5-1,6.8,0.8,9.8c1.3,2.2,3.8,4.1,7.4,4.5c3.2,0.4,4.2-0.5,7-1.9c0.6-0.4,1.6-0.6,2-0.9
				c0.2-1-0.4-0.7-1.2-0.7c-0.5,0-1.1,0.1-1.7,0.1c-3.1,0.2-6.8,0.3-9.4-1.1c-1.5-0.8-3-2.1-3.6-3.7c-0.4-1-0.6-1.9-0.6-3
				c0-1.4,0.4-1.9,0.6-3c0.1-0.1,0.8-1.4,1-1.7c0.4-0.6,0.8-1,1.2-1.5c0.7-0.7,2.1-1.9,3.3-2.2c0.6,0.6,0.7,1.2,2.3,1.9
				c1.9,0.9,5.4,1.1,7.1,0c1.1-0.7,1.4-1.5,1.9-2.3c0.4,0.1,1,0.5,1.6,0.7c3.3,1.1,3.6,1.1,4.5-1.3c0.9-2.6-0.9-6.6-2.7-6.4
				c-2.1,0.2-3.5,4.8-4.1,5.6c-0.8,1-2.5,0.9-4,1c-1.1,0.1-3.9,0.2-4.3-0.5c0.3-0.4,0.6-0.3,1.2-1.2c2.6-3.6-3.5-5.6-6.4-3.4
				c-0.8,0.6-1.8,1.9-1.6,3.4c0.8,0,0.9-0.6,1.9-0.4c0.6,0.2,1.2,0.7,1.4,1.1C151.7,113.1,151.5,113.1,151.4,113.3
				C151.4,113.3,151.4,113.3,151.4,113.3z M197.6,117.4c1.1-0.2,1.1-3.4,1.1-4.2c-0.1-3-1.1-8.7-1.4-12.1c-0.1-0.7-0.1-1.9-0.3-2.5
				c-0.6,0.3-0.8,1.1-1.1,1.8c-0.4,1-0.4,1.2-0.3,2.4L197.6,117.4L197.6,117.4L197.6,117.4z M39.4,117.4c1-0.3,1.1-3.5,1.1-4.3
				c-0.1-3-1.1-8.7-1.4-12.1c-0.1-0.6-0.1-2-0.3-2.5c-0.4,0.1-0.4,0.1-0.6,0.7c-0.4,1-0.9,2.1-0.7,3.3c0.3,1.6,0.4,3.3,0.7,4.9
				L39.4,117.4L39.4,117.4z M135.9,117.4c1-0.4,1.1-3.5,1.1-4.3c0-2-0.8-7.3-1.1-9.6c-0.1-0.8-0.4-4.6-0.5-4.9
				c-0.3,0-0.3-0.1-0.6,0.7c-0.2,0.4-0.3,0.6-0.4,1.1c-0.3,0.9-0.4,1.2-0.4,2.3c0.5,3.6,1.2,8.7,1.6,12.4L135.9,117.4L135.9,117.4z
				 M72.2,94.5c0.4,0.2,0.3,0.6,0.3,1.1c-0.6-0.1-1.1-0.4-1.3-0.9C71.3,94.5,71.7,94.3,72.2,94.5C72.2,94.5,72.2,94.5,72.2,94.5z
				 M71.5,97c-0.1,0.3-0.6,0.6-0.9,0.8c-0.7,0.5-1.4,1-2.2,1.4c-0.4,0.2-1,0.4-0.9,0.8c0.9,0.4,2.2-0.4,2.9-0.8
				c1.1-0.6,1.4-1.1,2.2-1.7c0.5,0.2,0.4,0.4,0.9,0.5c1.1-0.8-0.1-1.6-0.1-1.9c0-0.2,0.1-0.6,0.1-0.9c0.3-3.6-2.8-2.2-3.4-0.4
				C69.5,96.2,70.9,96.4,71.5,97C71.5,97,71.5,97,71.5,97z M196.4,123.2c-1,0.4-1.5,0.8-1.7,2.1c0.6-0.2,2.9-1.2,5-1.9
				c0.6-0.2,0.8-0.7,0.9-1.3c-0.9,0.1-1.5,0.4-2.5,0.2c-0.6-0.2-1.3-0.7-1.5-1.3c0.2-0.2,0.7-0.6,1.1-0.5c0.5,0.1,0.4,0.6,0.9,0.9
				c0.8-0.3,0.7-1.4,0.3-2c-1-1.1-3.1,1.1-3.4,1.9C195.3,122.1,196.3,122.7,196.4,123.2L196.4,123.2L196.4,123.2z M104.7,100.1
				c-0.8,0.4-3.4,0.6-2.3-0.9C103.2,98.2,104.8,98.5,104.7,100.1z M105.7,100.1c0.3-1.4-0.4-3.1-1.5-3.4c-1.4-0.4-2.2,1.2-2.6,2.2
				C100.2,102.5,105,103.3,105.7,100.1z M161.3,102.1c0.4,0.1,5.6-2,6.4-2.5c0.4-0.2,0.4-0.4,0.6-0.9c0.1-0.4,0.4-0.7,0.4-1.1
				c-0.2,0-6.2,2.2-6.4,2.4c-0.3,0.2-0.4,0.6-0.5,1C161.6,101.3,161.3,101.8,161.3,102.1C161.3,102.1,161.3,102.1,161.3,102.1z
				 M149.1,102.1c0.4-0.1,5.3-2,6.3-2.5c0.5-0.2,0.4-0.3,0.6-0.8c0.2-0.4,0.4-0.8,0.4-1.2c-0.7,0.1-1.6,0.5-2.2,0.8l-4.2,1.7
				C149.7,100.2,149.1,101.6,149.1,102.1L149.1,102.1L149.1,102.1z M60.4,98.8c0.5-0.2,1.1-0.4,1.5,0c0.4,0.3,0.5,0.6,0.5,1.2
				c-0.7,0.3-1.1,0.4-1.9,0.3l-0.6-0.2C59.8,99.2,60.2,99.3,60.4,98.8C60.4,98.8,60.4,98.8,60.4,98.8z M62.3,101.6
				c1.5-0.5,1.3-3.8,0.1-4.7c-0.9-0.6-1.7-0.2-2.3,0.4c-0.6,0.6-0.8,1.2-1.1,2.2c-0.1,1.1,0.2,1.8,0.9,2.2
				C60.6,102.3,62,102.3,62.3,101.6L62.3,101.6z M186,97.9c-0.1-0.3-0.2-0.1-0.4-0.5c-0.1-0.4,0-0.5-0.1-0.9c-0.8-0.2-0.2,1.1-1.4,2
				c-0.4,0.3-1,0.4-1.3,0.1c-0.4-0.4,0-1.1,0-1.6c-0.8,0.2-1.4,2.1-0.5,2.9c0.9,0.8,2.3,0.3,2.7-1.1c0.5,0,0.4,0.7,1.3,0.8
				c0.7,0.1,1.2-0.4,1.5-0.7c0.5-0.7,0.9-2.6,0.3-3.4c-0.4,0.1-0.6,0.5-0.8,0.9c-0.3,0.4,0.1,0.7,0.1,1.3
				C186.8,98,186.8,98,186,97.9L186,97.9L186,97.9z M165.6,111.4c0.5-1.1,2.8-1.6,3.2,1.1c-0.8-0.1-1.9-0.4-2.6-0.6L165.6,111.4
				L165.6,111.4z M118.5,96.2c0.9-0.6,1.3-0.4,1.2,0.9C119.2,97.1,118.6,96.6,118.5,96.2z M120.9,99.4c0.4-0.4,0.6-0.9,0.3-1.4
				c-0.6-0.8-0.3-0.4-0.2-1.5c0.3-4.6-5-0.8-3,1.1c0.4,0.4,0.8,0.4,1.1,0.8c-0.2,0.4-1.5,1.2-1.9,1.5c-0.4,0.3-0.8,0.4-1.1,0.6
				c-1,0.5-0.9,0.4-0.9,0.8c1.9,0.6,5-2.4,5.2-2.5C120.6,99.1,120.4,99.3,120.9,99.4L120.9,99.4z M128.8,92.4
				c-0.9,0.4-3.4,0.4-2.3-0.9C127.3,90.5,128.8,90.9,128.8,92.4z M127.3,89.2c-1,0.4-1.8,1.7-1.9,3c-0.2,1.5,1,2.6,2.5,2.3
				C130.9,93.8,130,88.2,127.3,89.2C127.3,89.2,127.3,89.2,127.3,89.2z M72,121.1c-0.5-0.3-1.5-1.1-1.9-1.2
				c-0.3,0.3-1.2,1.8-1.3,2.1l2.1,1.4c0.4-0.4,0.9-1.5,1.2-1.9c0.6,0.2,1.3,1.1,2,1.2c0.4-0.5,1.1-1.6,1.2-2.1
				c-0.2-0.3-1.8-1.3-2.1-1.5C72.8,119.7,72.5,120.5,72,121.1z M85.2,131.5c0.4,0,5.2-1.7,6.2-2c0.5-0.2,0.9-1.6,1-1.9
				c-0.4,0.1-5.9,1.9-6.2,2C85.9,129.8,85.3,131,85.2,131.5z M194.3,129.3c1-0.2,3.1-1.1,4.1-1.4c0.5-0.2,1.6-0.4,2-0.7
				c0.4-0.2,0.9-1.4,0.9-1.8l-6.2,1.9C194.9,127.6,194.3,128.7,194.3,129.3L194.3,129.3z M43.4,105.4c1-0.2,3.1-1.2,4.1-1.7
				c0.6-0.3,1.4-0.5,2-0.8c0.5-0.3,0.9-1.1,1.1-1.9c-0.4,0.1-5.5,2-6.2,2.4C44,103.7,43.6,104.8,43.4,105.4
				C43.4,105.4,43.4,105.4,43.4,105.4z M43.6,102.1c0.4,0,5.2-2.1,6.1-2.5c0.4-0.3,0.9-1.2,1.1-1.9c-0.3,0-5.7,2.1-6.2,2.4
				C44.1,100.5,43.6,101.8,43.6,102.1C43.6,102.1,43.6,102.1,43.6,102.1z M183.6,104.4c0.2,0.4,0.7,0.7,1,1c0.4,0.3,0.7,0.7,1.1,0.9
				c0.3-0.2,0.3-0.3,0.4-0.4c0.2-0.2,0.3-0.3,0.4-0.4c0.2-0.2,0.2-0.3,0.4-0.4c0.3-0.3,0.3-0.2,0.4-0.5c-0.2-0.3-0.3-0.3-0.4-0.4
				c-0.3-0.2-0.4-0.3-0.5-0.4c-0.4-0.3-0.8-0.7-1.1-0.9L183.6,104.4L183.6,104.4L183.6,104.4z"/>
		</g>
	</g>
</g>
</svg>
