<?xml version="1.0" encoding="utf-8"?>
<!-- Generator: Adobe Illustrator 26.0.1, SVG Export Plug-In . SVG Version: 6.00 Build 0)  -->
<svg version="1.1" id="Слой_1" xmlns:xodm="http://www.corel.com/coreldraw/odm/2003"
	 xmlns="http://www.w3.org/2000/svg" xmlns:xlink="http://www.w3.org/1999/xlink" x="0px" y="0px" viewBox="0 0 238.1 150.2"
	 style="enable-background:new 0 0 238.1 150.2;" xml:space="preserve">
<style type="text/css">
	.st0{fill-rule:evenodd;clip-rule:evenodd;fill:#373435;}
</style>
<g id="Слой_x0020_1">
	<g id="_105553256302880">
		<g id="Слой_x0020_1_0">
			<g id="_2394566742512">
				<path class="st0" d="M99,147.3c1-1.7-1.6-3-2.5-1.6C95.3,147.6,98,149,99,147.3z"/>
				<path class="st0" d="M104.4,140.5c-1.5-1.1-3-0.1-2.3,1.2C102.7,143,104.9,142.6,104.4,140.5z"/>
				<path class="st0" d="M113,37.8l0.4,1.4l1.2,0.1l0.7-0.5C115.3,36.5,114.2,37,113,37.8z"/>
				<path class="st0" d="M129.8,33.7c0.4,0.1,1.1,0.2,1.7,0.2c0.2-0.6,0.4-0.9,0.2-1.7c-0.7-0.5-1.3-0.4-2.1,0.1
					C129.7,32.3,129.8,33.7,129.8,33.7z"/>
				<path class="st0" d="M119.3,120.6c1,0,0.9-0.1,1.4-0.5l-0.1-1.4C118.9,118,117.8,119.2,119.3,120.6z"/>
				<path class="st0" d="M97.4,60.9c1.4-0.1,1.5-0.5,1.2-1.8l-1.3-0.2C96.7,59.9,96.5,60,97.4,60.9z"/>
				<path class="st0" d="M147.9,66c0.3-0.8,0.3-0.6,0-1.4C145.7,64.1,145.7,66.6,147.9,66z"/>
				<path class="st0" d="M124.7,21.4c-0.1,0.2-0.3-0.4-0.2,0.6c0.1,1.1,1,0.8,1.3,0.5C126.4,21.9,126,20.9,124.7,21.4z"/>
				<path class="st0" d="M108.3,136.7l1.1-0.2l-0.1-1.3C107.7,134.7,107.9,135.9,108.3,136.7z"/>
				<path class="st0" d="M142.3,6.2l0.1-0.9c0,0-1.3-0.8-1.4,0.4C140.9,5.9,141.2,6.8,142.3,6.2z"/>
				<path class="st0" d="M141.2,64.7c-0.1,1-0.1,1.7,1.1,1.2c0.4-0.7,0.3-0.3,0-1L141.2,64.7z"/>
				<path class="st0" d="M109.5,108.1L109.5,108.1l-1.2-0.1c-0.1,0.8-0.2,1.2,0.5,1.3C109.6,109.5,109.4,108.8,109.5,108.1z"/>
				<path class="st0" d="M135.5,22.3c0.7,0.6,0.6,0.6,1.3,0l-0.1-1h-0.9L135.5,22.3L135.5,22.3z"/>
				<path class="st0" d="M125.7,114.6l0.1-1.1C123.8,113.3,124.3,114.9,125.7,114.6z"/>
				<path class="st0" d="M141.4,92.8c0,0,0.3,0.4,0.7,0c0.6-0.7-0.1-0.9-0.1-0.9C141.2,92.1,140.9,91.9,141.4,92.8z"/>
				<path class="st0" d="M119.3,65.6C121.4,66.9,119.7,63,119.3,65.6z"/>
				<path class="st0" d="M113.7,92.9c1.3,0.1,1.8-0.8,0.1-0.9L113.7,92.9z"/>
			</g>
			<g id="_2394566737040">
				<path class="st0" d="M100.6,70.9c0.4,0.6,0.1,0.3,0.8,0.7l3.2,1.4c0.5-0.6,1.3-1.2,1.1-2.6c-0.1-0.8-0.7-1.7-1.4-2.1
					C102.4,67.4,100.9,69.1,100.6,70.9z"/>
				<path class="st0" d="M122.5,76.4c0.5,0.7,0.6,1.5,1.3,1.9c0.8,0.5,1.9,0.5,2.8,0c2.1-1.1,0.9-3.3,0.3-4.5l-0.7,0.4l-0.4,0.3
					l-1,0.6c-0.1,0-0.1,0.1-0.2,0.1c-0.1,0-0.1,0.1-0.2,0.1c-0.1,0-0.1,0-0.2,0.1C123.2,76,123.2,75.7,122.5,76.4L122.5,76.4z"/>
				<path class="st0" d="M111.4,75.8c0.8,0.7,1.4,0.7,2.5,1c0.9,0.3,1.7,0.8,2.7,0.6c0.5-1,0.3-1,0.4-2.1c-0.3-1,0.1-0.1-0.5-0.9
					l-0.6-0.7c0-0.1-0.1-0.1-0.2-0.2c-0.4,1.1-0.8-0.6-2.7,0.4C111.9,74.5,111.9,75.5,111.4,75.8z"/>
				<path class="st0" d="M106.5,87c0.5,0.9,0.2,0.4,1,1.1c0.1,0.1,0.4,0.5,0.5,0.5c0.5,0.5,0,0.1,0.7,0.5
					C114.3,87.6,107.9,81.6,106.5,87z"/>
				<path class="st0" d="M152.8,73c0.7-0.6,0.4-0.6,0.5-0.8c0.3-0.5,0.2-0.4,0.4-0.8c0.3-0.5,0.6-1.1,0.7-1.9
					c-1.1-0.7-3.1-1.3-3.8,0.5C150,71.8,151.4,72.5,152.8,73L152.8,73z"/>
				<path class="st0" d="M128.7,72.1c0.9,0.7,2.3,1.5,3.5,0.4c1.2-1.1,0.6-2.2,0.2-3.7c-0.6,0.3,0-0.1-0.6,0.3l-0.8,0.7
					c-1.5,1,1.3-0.8-0.5,0.3C128.7,71.1,129,71.3,128.7,72.1C128.7,72.1,128.7,72.1,128.7,72.1z"/>
				<path class="st0" d="M104.2,84.2c0.7-1,1.2-0.3,1.6-2.5l-0.8-0.8c-0.7-0.4-1.3-0.4-2.2-0.4c-1.1,0-1.9-0.2-2.7,0.3
					c0.9,0.9,0.1-0.4,2.1,1.5C102.3,82.3,104.2,84.2,104.2,84.2z"/>
				<path class="st0" d="M135.3,98.3c0.8,0.7,1,0.7,1.8,0v-1.2C135.8,96.7,135.2,96.8,135.3,98.3z"/>
				<path class="st0" d="M97.2,136.5l1-0.1c0,0,0.1,0,0.2,0c0.1-1.3-0.1-1.5-1.3-1.2L97.2,136.5L97.2,136.5L97.2,136.5z"/>
				<path class="st0" d="M91.8,65.7c1,0.2,0.3,0.3,0.9-0.1C92.5,64.3,91.6,64.5,91.8,65.7z"/>
			</g>
			<g id="_2394566736624">
				<path class="st0" d="M87.4,107.1c-1.8,0.8-4.5-4.5,1.4-5c7.3-0.5,4.9,2.4,5.5,5l0.2,0.3c1.2-1.2,0.5-5-1.1-5.7
					c-1.4-0.6-5.4-0.5-7,0.1c-3.5,1.4-3.4,7.5,5.1,6.4l-4-0.7c0.7-1.3,0.5-2.8-0.5-4C87.3,104.9,87.8,105.9,87.4,107.1
					C87.4,107.1,87.4,107.1,87.4,107.1z"/>
				<path class="st0" d="M8.9,132.2c0.2-0.2,0.2-0.2,0.4-0.4c0.1-0.2,0.2-0.3,0.3-0.5c2.3-4.4,3.2-7.2,6.4-12l2.8-4.1
					C14.5,117.1,9.9,128.1,8.9,132.2L8.9,132.2L8.9,132.2z"/>
				<path class="st0" d="M10.1,103.8c0.3-0.2,0.2-0.1,0.4-0.4l3.9-5.9c2.4-3.6,3.2-3.7,5.2-5.4C14.9,92.6,11.3,100.4,10.1,103.8z"/>
				<path class="st0" d="M51.6,102.3c-0.3,0.9-0.8,1.5-1,2.8c-0.3,1.7,0.2,2.1,0.4,3.2c0.2-3.3,1.1-5.4,4-7.4c1-0.7,1.9-0.9,2.4-1.4
					c-1.9,0.4-3.8,1.2-5.1,2.6l-0.4,0.3C51.7,102.2,51.6,102.3,51.6,102.3z"/>
				<path class="st0" d="M22,99.4c0.6,1,0.7,2.7,0.2,3.8c-2.3,4.4,1.6,3.3,1.1-0.8C23.1,101.2,22.5,100.2,22,99.4z"/>
			</g>
			<g id="_2394568400000">
				<path class="st0" d="M123.5,95.7c-0.3,0.8-0.8,1.3-0.8,2.7c1.6,4.8,7.6,0.1,4.2-2.6C125.6,94.7,124.3,95.5,123.5,95.7z"/>
				<path class="st0" d="M106.3,71.4c0.7,3,5.9,2.1,4.9-1.4C110.4,67,105.4,68,106.3,71.4z"/>
				<path class="st0" d="M131.5,84.1c1.6-1,1.4-1,1.9-3.2c-0.7-0.7-0.8-1.5-1.9-1.8c-1.3-0.3-2.4,0.2-2.9,1
					C127.2,82.3,129,84.2,131.5,84.1z"/>
				<path class="st0" d="M130.2,73.8c-1.3,0.4-2.5,1.3-1.8,3.2c0.3,1.1,1.7,2.2,3.4,1.5C134.8,77.4,133.2,72.8,130.2,73.8z"/>
				<path class="st0" d="M106.3,60.7c0.7,2.8,5.7,2.1,4.9-1.5C110.6,56.3,105.3,57,106.3,60.7z"/>
				<path class="st0" d="M141.1,73.8c-1.2,0.4-2.4,1.2-1.8,3.2c0.4,1.2,1.7,2.2,3.4,1.6C145.6,77.6,144.3,72.7,141.1,73.8z"/>
				<path class="st0" d="M113.4,52.2c-3.3,1.3-1.2,5.7,1.8,4.7C118.2,55.9,116.7,50.7,113.4,52.2z"/>
				<path class="st0" d="M119.1,106.2c-3.4,1-1.9,5.6,1.4,4.8C123.7,110.3,122.4,105.3,119.1,106.2z"/>
				<path class="st0" d="M131.5,89.5c2.5-1.3,2.4-3.6,0-5c-1.9-0.1-3.3,0.5-3.4,2.4C128.1,88.9,129.6,89.6,131.5,89.5z"/>
				<path class="st0" d="M113.7,111.6c-3.4,0.9-2.2,5.7,1.3,4.8C118.1,115.7,116.9,110.7,113.7,111.6z"/>
				<path class="st0" d="M127.1,90.5c-1-0.6-1.1-0.6-2.6-0.6c-4.8,2.8,0.8,7.2,2.9,3.9C128.2,92.6,127.6,91.4,127.1,90.5z"/>
				<path class="st0" d="M122.8,88.1c0,0,0.4,0.6,0.6,0.7c0.5,0.5,0.4,0.3,0.9,0.7c3.2,0.3,4.7-2.3,2.9-4.1
					C125.4,83.3,122.4,84.6,122.8,88.1z"/>
				<path class="st0" d="M124.1,79.4c-0.7,0.4-0.9,0.2-1.2,1.2c-0.8,2.5,1.6,4.4,3.7,3.2C129.2,82.2,127.3,77.8,124.1,79.4z"/>
				<path class="st0" d="M133.8,80.7c-0.2,2.1,0.7,3.7,3,3.4c2.5-0.4,1.9-2.5,1.7-4.2C135.8,78.6,135.3,78.6,133.8,80.7z"/>
				<path class="st0" d="M117.3,44.3c0.7,3.1,5.7,2.3,5-1.2C121.7,40.1,116.4,40.8,117.3,44.3z"/>
				<path class="st0" d="M100.9,66.1c0.8,3,5.8,1.9,4.9-1.4C105,61.8,99.8,62.4,100.9,66.1z"/>
				<path class="st0" d="M135.2,84.8c-3.1,1.4-1,5.9,2.2,4.5C140,88.2,138.5,83.1,135.2,84.8z"/>
				<path class="st0" d="M106.3,66.1c0.7,2.8,5.8,2.1,4.9-1.4C110.5,61.7,105.4,62.5,106.3,66.1z"/>
				<path class="st0" d="M135.6,73.8c-3.7,1.2-1.5,5.8,1.5,4.7C140,77.6,138.8,72.8,135.6,73.8z"/>
				<path class="st0" d="M128.7,90.7c-1.3,2.7,0.5,5.1,3.2,3.9c2.1-0.9,1.9-3.8-0.6-4.8C130,89.9,129.5,90.2,128.7,90.7L128.7,90.7z
					"/>
				<path class="st0" d="M111.7,49.9c0.6,0.8,0.7,1.5,2.4,1.6c1.4,0.1,1.9-0.7,2.6-1.4C117.5,45.5,111.3,45.1,111.7,49.9z"/>
				<path class="st0" d="M117.3,104c0.5,0.7,0.7,1.3,1.7,1.6c1.1,0.3,2.3-0.2,2.8-0.7c0.8-0.9,1.3-4.5-3-4.1
					C118.3,101.8,117.2,101.1,117.3,104z"/>
				<path class="st0" d="M107.9,52.2c-3.4,1.4-1.2,5.8,1.9,4.6C112.6,55.6,111,50.9,107.9,52.2z"/>
				<path class="st0" d="M124.5,100.9c-3.3,1-1.9,5.6,1.3,4.8C129.2,104.9,127.8,99.8,124.5,100.9z"/>
				<path class="st0" d="M119,100.3c2.1,0.1,2.4-0.3,3.3-1.6c0.2-2.8-1.9-4.2-4-2.9c-0.7,0.5-1.1,1.3-1,2.6
					C117.6,99.8,118.5,99.9,119,100.3L119,100.3z"/>
				<path class="st0" d="M146.1,68.6c-3.1,1.6-0.5,5.8,2.4,4.4C151.2,71.5,149.2,66.9,146.1,68.6z"/>
				<path class="st0" d="M111.8,60.5c0.5,2.9,5.4,2.6,4.9-1C116.3,56.5,111.2,57,111.8,60.5z"/>
				<path class="st0" d="M127.4,34.3c0.7-2.5,0.2-2.5-1-3.8c-2.6-0.5-4.4,0.9-3.5,3.3C123.9,36.3,126.2,35.1,127.4,34.3L127.4,34.3z
					"/>
				<path class="st0" d="M139.3,80.5c0.1,1.3,0.1,4,2.9,3.6c0.7-0.1,0.2,0,0.8-0.3l0.7-0.4c0.6-1.4,0.7-3-0.5-3.8
					C141.5,78.4,140.2,79.7,139.3,80.5z"/>
				<path class="st0" d="M107,127c0.9,0.2,1.9,0.6,3.1,0.1c1.8-1.4,1.3-4.3-1-4.5c-1.2-0.1-2.3,0.5-2.6,1.2
					C105.9,125,106.6,126.1,107,127z"/>
				<path class="st0" d="M117.3,38.4c0.1,3,5,3.1,4.9-0.3C122.2,34.8,117.2,35.1,117.3,38.4z"/>
				<path class="st0" d="M113.4,117.3c-3.1,1.3-1.1,5.6,1.8,4.5C118.1,120.7,116.5,115.8,113.4,117.3z"/>
				<path class="st0" d="M140.7,68.6c-3.2,1.7-0.6,5.6,2.2,4.3C145.7,71.6,143.6,66.9,140.7,68.6z"/>
				<path class="st0" d="M117.3,82c0.7,2.5,3.6,2.9,4.8,0.8c0.6-1,0.4-2.1-0.3-2.9c-0.8-0.9-1.9-0.8-3.4-0.7
					c0.5,0.7,0.3,0.6-0.1,1.4c0,0-0.4,0.6-0.4,0.7C117.4,82,117.8,81.5,117.3,82z"/>
				<path class="st0" d="M105.6,60.7c1.2-3.1-3.7-4.4-4.6-1.6C99.9,62.3,104.4,63.6,105.6,60.7z"/>
				<path class="st0" d="M115.6,72.8c0.5-0.3,0.5-0.7,1-1.6l0.4-0.6c-0.5-0.4-0.2-0.2-0.6-0.7c-0.4-0.5-0.5-1.2-1.6-1.4
					C110.9,67.6,110.5,74.4,115.6,72.8L115.6,72.8z"/>
				<path class="st0" d="M130.3,95.5c-3.6,0.8-2.1,5.4,1.1,4.6C134.3,99.4,133.3,94.7,130.3,95.5z"/>
				<path class="st0" d="M117.2,86.4c0.2,0.7,0.1,1.1,0.5,1.7l1.2,1.2c2.8-0.5,1.6-0.1,3.2-1.4c0.4-3.7-2.5-3.7-3.6-3.1
					c-0.6,0.3-0.5,0.4-1,1.1C117.5,86.1,117.2,86.4,117.2,86.4z"/>
				<path class="st0" d="M112.1,107.3c-1.5,4.7,5.7,5.2,4.2-0.1l-0.1-0.1c0,0.1-0.1-0.1-0.2-0.2c-0.1-0.1-0.3-0.2-0.4-0.3
					c-0.5-0.3-0.5-0.3-1.2-0.4C113.2,106.2,112.6,106.9,112.1,107.3z"/>
				<path class="st0" d="M117.5,50.2c0.8,0.6,1.2,1.6,3,1.1c1.1-0.3,1.8-1.3,1.6-2.7C121.2,45.5,116.7,46,117.5,50.2z"/>
				<path class="st0" d="M135.4,68.6c-3,1-1.3,5.5,1.7,4.3C139.8,71.8,138.6,67.4,135.4,68.6z"/>
				<path class="st0" d="M146.5,74c-3.1,1.2-1.3,5.4,1.7,4.4C150.7,77.5,149.6,72.7,146.5,74z"/>
				<path class="st0" d="M119.2,111.9c-3.3,1.1-1.5,5.1,1.3,4.3C123.2,115.4,122.1,111,119.2,111.9z"/>
				<path class="st0" d="M112.6,41.8l-0.1,0.1c-0.4,1-0.9,2.4,0.1,3.4c0.7,0.7,2.2,0.9,3.2,0.2C117.5,44.2,116.9,40.7,112.6,41.8z"
					/>
				<path class="st0" d="M112,65.8c0.4,2.6,4.9,2.3,4.4-1C116,62.1,111.5,62.6,112,65.8z"/>
				<path class="st0" d="M118,90.7c-1.1,2.4-0.3,4.1,2.6,3.9c0.6-0.5,0.8-0.4,1.2-1.2c0.3-0.8,0.3-1.5-0.1-2.2
					C120.6,89.5,119.2,90.4,118,90.7L118,90.7z"/>
				<path class="st0" d="M135.5,90.4c-2.9,1.1-1.3,5,1.6,4C139.7,93.6,138.3,89.3,135.5,90.4z"/>
				<path class="st0" d="M107.8,117.6c-2.8,1.3-0.8,5.1,1.8,4C112.2,120.5,110.5,116.3,107.8,117.6z"/>
				<path class="st0" d="M96.2,63.4c-1,2.2-1,2.8,0.9,4c1.7,0,3.4-0.8,2.8-2.8C99.4,62.9,97.8,63.1,96.2,63.4z"/>
				<path class="st0" d="M130.2,20c-3.1,1.2-1.4,4.8,1.3,4.1C134.2,23.3,132.7,18.8,130.2,20z"/>
				<path class="st0" d="M123.1,38.6c0.4,2.6,4.7,2.3,4.4-0.7C127.1,35.1,122.6,35.7,123.1,38.6z"/>
				<path class="st0" d="M101.9,137.7c3.4,0.4,1.9-0.3,3.4-0.6c0.5-1.9-0.1-3.9-2.5-3.5C100.2,134.1,101.2,136.5,101.9,137.7z"/>
				<path class="st0" d="M123.5,26c-0.7,2.2,0,3.7,2.6,3.3c0.9-0.7,1.9-1.6,0.9-3.1C126,24.8,124.4,25.5,123.5,26z"/>
				<path class="st0" d="M110.2,132c1-2.4,0.8-1.8-0.5-3.8c-1.7,0.1-3.4,0.4-2.9,2.6C107.2,132.7,108.9,132.2,110.2,132L110.2,132z"
					/>
				<path class="st0" d="M113.4,85.3c-2.5,1.4-0.5,4.6,1.9,3.5C117.5,87.7,115.7,83.8,113.4,85.3z"/>
				<path class="st0" d="M124.2,107c-2.2,1.1-0.6,4.4,1.8,3.4C128.3,109.6,127,105.6,124.2,107z"/>
				<path class="st0" d="M107.5,50.8c1.8,0.1,2.6,0.4,3.2-1.4C111.3,46.1,105,46.1,107.5,50.8z"/>
				<path class="st0" d="M129.8,25.8c-2.1,1.2-0.5,4.4,1.9,3.3C133.8,28.2,132.3,24.4,129.8,25.8z"/>
				<path class="st0" d="M102.8,128.5c-2.4,0.5-1.6,4.4,1,3.7C106.2,131.5,105.4,127.8,102.8,128.5z"/>
				<path class="st0" d="M119.2,52.8c-0.5,0.2-0.7,0-1.1,0.8c-0.7,1.2,0.3,3.4,2.5,2.7C122.7,55.5,121.6,51.9,119.2,52.8L119.2,52.8
					z"/>
				<path class="st0" d="M115.8,104.5l0.3-0.4c0.2-1.4-0.1-1.6-0.9-2.6C110.3,100.8,112.3,107.2,115.8,104.5z"/>
				<path class="st0" d="M141.3,85.3c-2.7,0.9-1.2,4.1,1,3.5C144.6,88.1,143.6,84.5,141.3,85.3z"/>
				<path class="st0" d="M118.5,31.4c-0.1,0.7-0.7,0.9-0.4,1.9c0.2,0.6,0.7,1,1.4,1.1c2.3,0.2,1.6-1.9,1.4-3
					C120.1,31.2,119.4,31.1,118.5,31.4L118.5,31.4z"/>
				<path class="st0" d="M115.7,126l0.1-1.6c-1.3-2.2-3.1-0.7-3.2,0.2c-0.2,0.8,0.3,1.5,0.9,1.7c0.4,0.2,0.5,0.2,1,0.1L115.7,126
					C115.7,126,115.7,126,115.7,126z"/>
				<path class="st0" d="M126.7,44.3c1-2.1-2.1-3-2.8-1.4C122.9,45,125.8,46.1,126.7,44.3z"/>
				<path class="st0" d="M107.4,112.9c-0.1,0.5-0.4,1.4,0.1,2.2c0.4,0.5,1.4,0.7,2.2,0.3c1.1-0.8,0.8-3-1.4-2.7L107.4,112.9z"/>
				<path class="st0" d="M130.2,101.9c-1.9,0.8-0.7,3.6,1.2,2.8C133.2,103.9,132,101.1,130.2,101.9z"/>
				<path class="st0" d="M101.9,55.3c1.5,1.1,3.5,0.4,2.8-1.4C104.1,52.5,101.4,52.5,101.9,55.3z"/>
				<path class="st0" d="M96.3,142c1.7,1,3.5,0.4,2.8-1.4C98.6,139.2,96,139,96.3,142z"/>
				<path class="st0" d="M135.3,17.9l1.7,0.1C139.5,14.1,133.1,14.1,135.3,17.9z"/>
				<path class="st0" d="M137.1,12.5c1.4-1.5,0.2-3.3-1.4-2.7C134.4,10.4,134.2,12.9,137.1,12.5z"/>
				<path class="st0" d="M146.7,80.4c-1.8,0.9-0.3,3.4,1.3,2.4C149.4,82,148.3,79.5,146.7,80.4z"/>
				<path class="st0" d="M129.7,17.5c1.6,0.7,3.1-0.3,2.2-1.6C131.1,14.8,129.1,15.1,129.7,17.5z"/>
				<path class="st0" d="M103.2,126l1-0.2l0.2-1.2l-0.6-0.8c-1.1,0-0.8,0-1.5,0.5C102,125.7,102.2,125.6,103.2,126L103.2,126z"/>
				<path class="st0" d="M118.9,60.7c1.4,0.7,2.6-0.2,1.8-1.3C120.3,58.5,118.2,58.4,118.9,60.7z"/>
				<path class="st0" d="M153.5,66.3c0.6-0.9,0.6-0.9,0-1.9C150.9,64,150.9,66.7,153.5,66.3z"/>
				<path class="st0" d="M108,43.2c0.2,1.3,0.1,1.2,1.4,0.8l-0.2-0.9C108.5,42.9,108.8,42.8,108,43.2z"/>
				<path class="st0" d="M124.5,49.2c0,0.7,0.6,0.6,1.3,0.5l-0.1-1.2C124.3,48.3,125,48.3,124.5,49.2L124.5,49.2z"/>
			</g>
			<g id="_2394567805536">
				<path class="st0" d="M198.1,26.2c3.9,2.2,6.5,0.2,9.5-1.3c3.3-1.6,6.5-1.8,10.3-2.7c3.7-0.8,6.6-2.1,9.2-3.7l7.6-5.1
					c-6,2.5-5.8,5.4-17.5,7.6C202.4,23.7,207.5,26.9,198.1,26.2L198.1,26.2z"/>
				<path class="st0" d="M196.1,15.1c0.8-0.4,2.3-1.9,5.5-3.6c4.3-2.2,14-5.7,17.5-8.6c0.5-0.4,0.4-0.3,0.7-0.7
					c-1,0.4-1.7,1-2.9,1.6c-3.2,1.5-6.6,2.7-9.8,3.9C203.2,9.3,197.9,12.4,196.1,15.1L196.1,15.1z"/>
				<path class="st0" d="M189,52.8c2.7,0,4.4-1.7,5.8-3.1c1.2-1,2.7-3.3,2.8-5.6c-1.4,2.6-1.3,3.5-3.7,4.9
					C192.4,50,189.2,50.7,189,52.8z"/>
			</g>
			<g id="_2394567804416">
				<path class="st0" d="M90.2,109.3c0.8,4,0,1.2,1.3,4.9l0.1,1.2c0,0.1-0.1,0.1-0.1,0.2c-0.3,0.9-2.9-0.1-3.6-1.6
					c0.9,0.5,1.2,0.8,2.3,1.1c-0.8-1-1.9-2.1-3.1-2.6l1.6-0.1c-1.8-0.3-1.8-0.7-2.7-2.3l-0.5-0.4c0.5-0.7-0.1-0.3,0.8-0.5
					C86.5,109.3,90.2,109.3,90.2,109.3z M68.2,98.1c4.9,1.4,4.8-2.1,10,1.8c-1.5,0.9-4.1,0.5-5.9,0.5C69.8,100.3,69.1,100,68.2,98.1
					z M64.9,94.5c-0.5,0.7-0.4,0.7-1.5,1l0.9-1.7c-0.8,2.7-4.1,1.9-4.5,0.7c1-0.4,2.1-0.7,3.1-1l2.9-1
					C65.7,92.5,64.9,94.5,64.9,94.5z M72.7,91.7c1.4,0,7,1.2,8.3,1.8c2.8,1.1,4.3,2.3,5.3,5.2c-1.6,0-2.9-0.3-4,0
					c-0.5,0.2-1.1,0.5-1.7,0.4h-0.1c0,0-0.1,0-0.2-0.1l-1.5-0.5c1.7-0.7,2.4-0.1,3.9-1.5c-1.3,0.4-2.5,0.8-4,0.8
					c0.1,0,0.2-0.2,0.2-0.1c0,0.1,0.2-0.1,0.4-0.2L81,97c0.7-0.3,1.2-0.8,1.5-1.3c-0.7,1.2-3.6,1.4-5.4,1.4c0.8-0.9,1.6-1.2,2.2-2.9
					c-0.9,0.8-1.8,1.6-3.4,2.3c-0.2-0.3,0,0,0-0.3c0-1.4,0.4,0.5,0-0.3c-0.9,1.2-0.9,0.1-2.6,0.8v-0.4c0-1.4,0.6,0.5,0-0.4L71.4,96
					c-0.7,0.4-0.6,0.5-1.5,0.5c0.5-0.4,1.3-0.7,1.5-1.2l0.4-0.7c0.4-0.5,0,0.1,0.4-0.4l-2.6,1.4c-0.9,0.2-0.4,0.2-0.9-0.2l1.1-0.9
					c1.2-1.5,1.8-1.2,2.5-2.3C72.3,92.3,72.7,91.7,72.7,91.7L72.7,91.7z M64.9,94.5c0.7-1.1,0.7-2.2,1.9-2.5
					c0.8-0.3,1.1-0.7,1.7-1.3c0.4-0.4,0.2-0.3,0.6-0.5c-0.5,3.1-1.7,3.7-2.6,5c-0.3,0.5-0.4,1.1-0.7,1.7c-0.6-0.2-1.5-0.7-1.9-1.2
					C64.2,95.1,64.3,95.1,64.9,94.5z M80.2,91.6c0.6-0.8,1.5-1.3,1.7-3c-0.7,1.1-1.4,2.9-3.3,2.7c0.7-0.7,1.4-1.1,1.7-2.5
					c-0.7,0.8-1.5,2.3-2.8,2.3l1.3-1.4c-1.1,0.5-1,1.1-2.4,1.3c0-0.1,0.1-0.2,0.1-0.2l1.2-1.5c-0.9,0.4-0.9,0.6-1.7,1.2
					c-0.5-0.2-0.1-0.2-0.3-0.4l-0.6-0.3c0.6-1,0.5-1,1.6-1.7c3.5-2.1,2.9-1.7,7.6-0.6c7.4,1.7,6-1.9,10.4,2.4
					c1.4,1.4,1.8,1.7,3.9,2.8c5.2,2.6,4.6,3.2,8.4,5.3c1.3,0.7,4.6,3.4,1.8,4.3c-0.3,0.1-0.7,0.3-1.2,0.4c0.5-0.4,0.9-0.8,1.4-1.2
					c-0.9-0.5-1.7,0.7-2.5-0.5l-0.1-0.2c-0.8,0.6-2.4-0.1-3.4-0.6l-1.1-0.7c-0.1-0.1,0.5-0.4-0.6,0c-0.7,0.2-0.4,0.2-1,0.5
					c0,0,0-0.2,0-0.1v-0.1v-0.2l-0.5-0.5c0,0,0,0-0.1-0.1l-0.6-0.4l-0.2-0.1l-0.2-0.5v-0.1c0,0-0.3-0.3,0-0.6l-1.2,0.3
					c0.5-0.9-0.2-0.1,0.8-0.8c-1.2,0.2-1.2,0.3-2.2-0.3l1.2-1.4c-1.6,0.3-4.2,0.7-6-0.4l-0.2-0.2l-0.1-0.1l-0.7-0.4l-0.1-0.1
					c0,0-0.2-0.1-0.2-0.2l-0.1-0.1l-1.6-1c1-0.8,1.1-0.7,1.7-1.9C89.5,91,89,91.7,87.6,92c1-0.8,1.3-1.2,1.7-2.6
					c-0.7,0.6-0.7,0.8-1.5,1.3l0.3-1.8c-0.6,1.1-0.8,2.2-2.1,2.5l0.8-1.8c-0.9,0.9-0.8,1.5-2.3,2.1l1-1.7c-0.9,0.8-1.4,1.9-2.7,1.9
					l1.2-1.8c-0.9,0.7-1.2,1.6-2.5,1.8c0.6-0.9,1.6-1.7,1.6-3.3C83.3,89.3,81.9,91.6,80.2,91.6L80.2,91.6L80.2,91.6z M82.3,85.4
					c0.5-1.1,0.9-1.8,2.3-2.2c-0.3,0.7-0.4,0.7-0.8,1.4C83.1,85.5,83.5,85.4,82.3,85.4z M85.4,86.4c0.4-0.7,0.5-0.6,0.9-1.4
					c-1,0.8-0.5,1-1.8,1c0.4-0.9,1.4-3.1,2.4-3.5c7.1-2.9,6.9-4.3,12.7,0.6c1.1,0.9,1.9,1.8,3,3c1.1,1.1,2.1,1.8,3.1,2.9
					c1.2,1.1,5.5,4.3,7.2,5c-0.4-0.4-0.8-0.8-1.3-1.2c-0.2-0.1-0.4-0.3-0.7-0.5l-0.9-0.8c1.4,0.7,3.2,2.2,4.6,3.1
					c4.4,3.1,0.1,6.2-5.6,3c-2.7-1.4-1.6-1.1-3-2.2l-1-0.6l0.8-0.7c-0.8,0.3-0.4,0.4-1,0.1c0.8-0.5,0.9-0.7,1.2-1.7
					c-0.3,0.4-0.1,0.2-0.4,0.4c-0.6,0.5,0.1,0.1-0.7,0.5l0.7-1.7c-0.7,0.5-1.2,1.5-2.6,1.7c-2.2,0.3-5-2.3-6.2-3.8l-0.7-0.8
					c0,0-0.1-0.1-0.2-0.1c0.7-0.4,0.4,0,0.9-0.8c-0.8,0.7-1,0.5-1.1,0.4l-1.2-0.2c0.8-0.4,1.2-0.8,1.5-1.7c-0.4,0.8-1.1,1.3-2.3,1.4
					c0.6-0.6,1.2-1.1,1.5-2.1c-0.5,0.8-0.6,1-1.5,1.5c0.2-1.5,0.5-1.9,0.3-3.7c-0.8,0.8-0.8,2.4-2.6,2.9c0.6-1.1,1.4-1.7,1.3-3.5
					c-0.1,0.8-0.8,1.6-1.3,2.4c-0.6,0.8-0.9,1.4-2.3,1.6c0.7-1,1.4-1.5,1.5-3.3c-0.9,1.3-1.3,2.8-2.9,3.3c0.8-0.9,1.3-1.3,1.6-2.9
					c-1.1,1.3-1.5,2.8-3.1,2.7c0.8-0.7,1.9-1.9,1.9-3.7C87.9,84.3,86.5,86,85.4,86.4L85.4,86.4z M96.5,68.5
					c-0.9,0.8-1.7,0.9-3.5,0.6c-3.1-0.5-0.6,1.4-10.2,2.8c-2.7,0.4-4.9,0.9-7.5,1.3C72,73.7,71,73,67.9,72.8
					c-9-0.6-15.9,7.9-24.5,10.5c-2.7,0.8-4.3,0.3-7.3,1.5c-2.1,0.9-3.8,2.1-5.8,2.9c-5.6,2.5-8.6-0.8-13.9,3.4
					C10.2,95.7,5,110.3,2.8,111.8l-0.5,0.8v1.7c1.6-1.4,4-5.4,5.2-7.9c1.5-2.9,2.9-5.9,4.5-8.6c7.2-11.1,11.3-7.8,16.9-7.6l-1.4-0.9
					c2.1-0.7,3.3-1.7,4.9-2.3c-1.1,0.8-2.3,1.9-2.8,3.4l1.8-1.8c0.7-0.6,1.1-1,1.9-1.4c4.8-2.4,9.7-0.8,16-4.2
					c7.7-4.2,11-8,18.9-8.4c-9.7-2.3-13.2,8.7-28.6,10.4c-1.6,0.2-3.2,0.6-4.6,0.7c4.4-1.2,8-1.3,12.2-3.2c3.9-1.8,6.4-3.6,9.7-5.4
					c13.7-7.8,16.1,1,24.8-3.2c-2.6,0.3-3.7,0.5-6.5,0.3c1.9-0.5,5.2-1,7.4-1.4c2.4-0.4,5.1-1.5,7.1-1.6c-1.4,0.6-3.9,0.9-5.2,1.8
					c2.7-0.2,5.1-1.3,7.9-1.5c3.4-0.2,5.3,1,7.7,1.1c-0.5-0.3-2.3-1.3-2.8-1.6c1.5,0.3,3.4,1.5,4.9,2.3c1.6,0.7,3.5,1.4,5.2,2.1
					c1.8,0.7,3.3,1.5,5,2.3c1.6,0.6,3.9,1.1,4.8,2.4c-0.3,2.5-4.8,3.1-7.5,2.4c-1-0.3-3-0.8-3.3-1.6l-0.1-0.4
					c-0.1-0.2-1.3-0.1-0.8-1.1l-1.2,0.6c0.3-0.5,0.5-0.6,0.8-1.2c-2.1,1.3-2.1,1.8-5.7,1.4c-1.2-0.2-2.9-0.7-4.8-0.8l0.3-0.9
					c-0.6,0.6-0.1,0.2-0.8,0.6c0.4-1.4,0.2-1.2,0-1.5c-0.5,1.3-0.8,1-2.2,1.8c-0.9,0.6-1.1,1.1-2.2,1.6c-1.1,0.5-2.3,0.7-3.1,0.8
					c-1.7,0.2-0.3-0.3-1.4,0.2c-0.4-0.6-0.3-0.2-0.3-1.2c-0.3,1.4-0.5,1.1-0.8,1.3v-2.4c-1.4,4.2-5.6,7-9.7,8.3
					c0.3-3.7-0.2-3.3-0.9-6.2c-0.2,3.3,1,5.3-1.2,8.1c0.6-2.9,1.1-4.2,0.6-7.4c-0.4,4-0.6,7.3-3,9.7c0.8-2.3,1.7-4,1.7-6.8
					c-1.2,2.8-1.1,5.6-3.4,8c0.6-2.4,1.6-3.5,1.7-6.5c-1.3,3.2-1.8,4-5.3,5.2c-2.3,0.8-6.6,1-7,3.5c1.6,2.9,5.4,0,7.6,2.6
					c-1.7-0.5-3.3-1.3-4.9-0.3c1.2,0,2.3,0,2.9,0.4l1,0.3c-0.4,0.3-0.5,0.3-0.8,0.6l1,0.1l-0.4,0.5c0,0-0.1,0.1-0.2,0.1
					c0,0-0.1,0.1-0.2,0.1c0,0-0.1,0.1-0.2,0.1c1.1-0.4,1.2-0.4,1.7-0.1c-1.5,0.5-2.4,1.3-3.1,2.6c0.5-0.5,3.1-3.1,4.3-2.6
					c-0.6,0.6-4,1.7-3.6,4.4c-0.4-1.4,2.4-4,4.8-3.9c-1.6,0.8-1.7,0.6-2.9,2.1c-0.9,1.3-0.8,2.5-0.4,3.6c0.2-2.3,1.4-3.9,3.1-4.6
					c2.1-0.8,5.2-0.4,7.5-0.4c-0.4,0.6-0.6,0.7-1,1.5c3.6-2.8,6.7-2.4,9.4-2.7l-3.3-0.1c1.4-0.4,13.1-1.8,15.8,3.3
					c1,1.9,0.3,3.7-1,4.6c-2.4,1.8-8.3,0.8-11.8,1.2c-1.8,0.2-4.2,0.8-5.2-0.4c-1.1-1.3-1.4-3.6-0.9-5.4l1.6-0.6
					c-1.9-0.2-2.6,0.9-2.5,3c0.2,2.4,1.1,2.6,1.8,3.8c-5.8,0.4-8,1.7-9.2,1.7c-2.4,2.1-5.5,0-7.7-0.6c0.8,0.8,2.2,1.5,3.6,1.8
					c-2.5,0.1-4.2-1.2-6.3-1.9c0.9,0.8,2.8,2.2,4.3,2.2c-2.7,0.4-4.9-1.4-7-2.2c0.8,0.9,1.9,1.2,3,2.1c-2.4-0.2-4.1-1.5-5.2-1.6
					c0.7,0.3,1.6,1,2.7,1.5c1,0.5,2.3,0.6,3.1,1.2c-3.5,0.6-6,0.3-8.6-1.2c-0.1,0.1-0.1,0.2-0.1,0.2l-0.1,0.1
					c-0.4,0.2-0.2-0.1-0.6-0.5c-0.3-0.2,0-0.1-0.4-0.2l0.2,0.6c0.3,0.5-0.1,0,0.4,0.5c1.7,1.5,2.8,1.6,4.6,2.1
					c-2.9,0.3-4.5-1.4-6.8-2.2l2.8,1.9c-1.3-0.1-2.2-0.6-3.2-1c0.4,0.4,1.1,0.8,1.5,1.4c-1.6-0.2-2.1-0.9-3.3-1.4
					c0.3,0.3,0.6,0.6,1.1,0.9l1,0.8c-1.8-0.2-4.2-2.3-5.8-3.1c0.6,0.6,1.4,1.1,2.2,1.7l2.3,1.9c-1.8-0.3-2.9-1.3-4-2.3
					c-1-0.8-2.3-1.5-3.5-2.2l4.6,4c0,0,0.1,0.1,0.1,0.2c-2.5-1-5.1-4-7.5-4.8l1,1c0.3,0.2,0.5,0.4,0.9,0.6l5.8,3.9
					c-2.6,0.1-9.1-5.1-11.9-6c0.3,0.3,0,0,0.4,0.4l6.4,4.4c-4.6-1.2-8-5.3-13.1-6.2c-1.6-0.1-3.2,0-4.6,0.6c-4.9,1-3.3,3.8-9.5,3.7
					l2.4,0.5c-2.2,0.5-1.9,0.4-4.2,0.1c1.1,0.6,1.3,0.6,2.9,0.7c-1.6,0.7-2.9,0.3-4.5,0c1.5,1.2,2.4,1.1,4.6,0.8
					c-0.6,1.1-2.7,3.4-2.8,3.7L8.8,122c-0.2,0.5,0.4,1.3-2.4,1.8c0.8,0,1.3-0.2,1.9-0.4c-0.7,1.5-1.6,1.2-2.9,2.2l2.2-0.6
					c-0.7,1-1.6,1.1-2.9,1.7c1.1,0,1.7-0.4,2.7-0.7c-0.3,1.5-2.5,1.6-4.3,2.1c1.2,0.3,2.7-0.1,3.8-0.5c-0.7,1-3,1.6-4.8,1.6v0.2
					c1.8,0.1,2.8-0.2,4.4-0.7c-0.5,1.4-2.9,1.5-4.4,1.6l0.1,3.6c0.6-0.1,1.6-0.2,2.1-0.4c1.6-0.7,5.2-10.2,5.9-11.8
					c1.8-3.8,5.3-8.9,9.6-10.4c-4,2.4-7.3,6.3-9.5,11.3l-6,15.2c1.1-0.9,1.8-2.7,2.5-3.9c4.1-8.3,5.7-17.6,14.7-22.5
					c1.4-0.8,3.3-1.4,5-0.8c-2.4,1.2-4.3,2.4-5.2,5.6c0.8-0.9,1.4-2.4,2.4-3.4c0.9-0.9,2.3-1.8,4.3-1.7c-1.7,1.2-5.5,3.2-6.3,7.1
					c0.9-2.4,4.8-7.4,7.5-6.6c-1.9,1.6-3,1.1-5.4,4.9c-1.2,1.8-2.8,5-2.5,7.8c-0.3-2.3,1.8-5.7,3-7.4c1.1-1.6,3.3-4.6,6.2-4.5
					c-2.5,1.8-3.7,1.9-6.2,6.2c-1.4,2.5-2.6,6.7-2.4,9.9c0.8-2.7,0.7-5.6,2.7-9.3c1.2-2.3,3.6-5.5,6.4-6c-1.9,1.9-3.2,1.7-5.5,6.3
					c-1.4,2.7-2.6,6.2-2.5,9.6c0.6-1.3,0.8-3.4,1.3-4.9c1.1-3.3,5.2-11.3,8.6-10.4c-0.7,1.2-2.3,1-4.4,4c-4.5,6.3-4.9,12.3-5,20.2
					c1.2-2.6,0.5-8.4,3-14.4c1.2-2.9,5.2-9.5,8.1-8.8c-0.5,1.3-5.9,2.1-8.5,14.5c-0.7,3.3-1.1,6.8-1.4,10.2c-0.2,1.6-0.3,3.3-0.6,5
					c-0.3,1.7-0.8,3.3-1,4.6c3.3-9.4,2.4-23.7,9.6-31.3c0.9-1,1.8-2.7,3.2-2.2c-4.5,4.4-6.3,8-7.7,14.9c-0.7,3.2-1.1,6.5-1.5,9.7
					c-0.5,3.4-1.3,6.2-2.2,9.2l0.9,0c3.1-10.2,2.8-19.9,6.3-26.9c1.1-2.3,3.3-5.6,4.9-6.5c2.1,0.5,3.3,1.3,5.9,1.6
					c3.3,0.3,9.9-0.4,12.9-1.6c2.4-1,2.1-2.2,5.5-2.5c8.3-1.5,4.3-1,10.9-2.9c2.9-0.8,11.5-1.6,12.2-1.2c1.4,0.7,2.5,8.4,8.1,6.5
					c0.5-1.8-0.7-4.6-1-6.8c3.2-0.1,5.4-0.1,5.9-3c1.4-7.4-8.9-6.8-9.9-7.7c-1.1-1.1-0.3-2.7-2.6-4.1c-0.6-0.4-1-0.5-1.4-0.9
					c2.2,0,2.8-0.8,4.5,0c1,0.5,2.3,1.5,3.5,2.2c1.4,0.7,3.6,0.9,4.3,1.3c0.9,0.6,4.6,5.5,10.3,6.5c4.4,0.7,6.3-1.6,3.8-4.6
					c1.9,0.3,3.5,0.9,5.5,0.1c1.6-0.6,2.9-2.3,1.2-4l-7.5-5.7c-0.7-0.4-0.2-0.1-0.7-0.5c0,0-0.3-0.4-0.5-0.5c-0.8-0.8-0.5-0.3-1-1.1
					c-1-0.9-1.5-1.7-2.4-2.8l-1.9-1.8c-1.8-1.9-1-0.5-2.1-1.5c0.7-0.5,1.5-0.4,2.7-0.3c0.8,0,1.4,0,2.2,0.4l1.2,0.8
					c0.2,2.1,1.9,3,3.9,1.9c2.6-1.3,0.6,0.1,5.1,0.4c0-0.1,0.1-0.2,0.2-0.1c0.3,0.5,0.6-1.2,1.7-1.9c0.6-0.5,0.2-0.1,0.6-0.7
					c0,0,0.4-0.6,0.4-0.7c0.3-0.7,0.6-0.7,0.1-1.4c-0.5-0.9,0-0.4-0.9-1c-0.8-0.5-0.6-0.1-0.9-0.8c-0.9,0.3-1.7-0.3-2.7-0.6
					c-1-0.3-1.6-0.3-2.5-1c-0.5-1.3-1.2-2.4-2.9-2.2c-1,0.1-0.8,0.5-1.9,0.1c-0.6-0.2-1.3-0.5-1.8-0.7l-3.2-1.4
					c-0.8-0.4-0.4-0.1-0.8-0.7C99.9,70.1,100,67.5,96.5,68.5L96.5,68.5L96.5,68.5z"/>
				<path class="st0" d="M57.8,97.2c-2.6-1.6,0-3.5,0.8-4.1c-2.7,0.5-4.5,4.3-0.1,4.6C58.5,97.7,57.8,97.2,57.8,97.2z"/>
			</g>
			<g id="_2394567813728">
				<path class="st0" d="M184.1,72.3c0.7-0.4,1.3-0.8,2.5-1c1.1-0.2,2.4,0,3.2,0.5c-1.8,0-3.1,0.2-4.4,0.8c9.4-1.4,9.2,5.4,3.6,5
					c-6.4-0.4-8.4-7.7-1.3-7.4C185.9,71,185.2,70.5,184.1,72.3L184.1,72.3z M166.5,69.2c-0.6,0.9-0.9,1-1.4,1.8
					c0.9-0.6,0.7-0.7,1.6-1.2c-0.2,0.9-0.6,1.3-1.1,1.9l-1.6,1.6c1.6-0.6,2.2-1.4,3.2-2.4c-0.4,2.1-2.4,2.8-3.6,4.1l2.7-1.3
					c-0.4,0.7-0.1,0.3-0.7,1c-0.2,0.3-0.5,0.5-0.7,0.7c-0.4,0.4-1.3,1.1-1.8,1.2c1.9-0.1,3.5-2.3,4.5-3.3c-0.5,1.6-2.6,3.9-3.8,4.6
					c1.3-0.3,2.5-1.6,3.3-2.3c-0.8,1.8-2.2,2.9-3.4,4.1c1.4-0.4,3.6-2.4,4-3.7c0,1.5-2.8,4.2-3.7,4.9c1.8-0.6,2.4-1.8,3.4-2.4
					c-0.4,1.3-0.6,1.1-1.1,2.3c0.8-0.4,1.7-1.3,2.3-2.1c-0.1,1.7-1.5,3.3-2.4,4c1.8-0.4,2.2-1.6,3.3-3c0,1.6-1.1,3.2-1.9,3.7
					c1.7-0.7,1.5-1.1,2.4-2.2c0.3-0.3,0.2-0.3,0.4-0.5c-0.2,1.6-0.7,1.9-1,3.2c1.4-1.3,1-1.4,1.9-3.2c0.1,1.2-0.1,2.2-0.5,3.1
					c0.7-1.1,0.7-0.6,1.3-2.6c0.8,1.4,0.4,2.1,0.5,3.6l0.8-2.3l0.5,4.3l0.4-2.3c0.3,2.2,0.1,2.4-0.2,4.1c0.8-1.4,0.8-1.6,0.8-3.7
					c0.6,2.2,0.1,3.2-1,4.8c0.8-0.3,1.7-1.3,1.7-2.5c0.1,2.8-1.6,3-3.3,3.9c2.1,0.2,2.6-0.3,3.5-1.3c-1.7,6-8.4-3.5-11.8-5l2.3-0.9
					c-3-0.3-3.4-0.2-3.9-3.1c-0.6-3-1.3-3-2.1-5c1.3-1.7,2.9-0.8,4.8-5.8c0,0,0-0.1,0.1-0.2l0.1-0.3c0,0,0-0.1,0-0.2
					c0.1-0.6-0.1-0.3,0.4-1c1,0.1-0.2-0.2,0.3,0.2C166.4,69.6,166,68.9,166.5,69.2L166.5,69.2L166.5,69.2z M185.6,65.4l-2.4,0.8
					l3.3-0.1l-0.8,0.7c-0.2,0.4-1.3,0.4-2.5,1.3l2.4-0.6c-0.7,0.8-1.2,0.2-2.2,1.4c1.6-0.6,1.7-0.9,3.7-0.7
					c-1.6,0.5-2.9,0.4-3.7,1.8c1-0.5,1.6-0.9,3.1-0.8c-2.8,1.1-2.6,1.1-3.9,3.6c-1-3.2-4.4-6.9,0.7-7.8l-0.4,0.3
					C182,66.2,182.6,65.3,185.6,65.4L185.6,65.4z M175.5,64c-1.5,0.3-2.2,0.6-3.8,0c0.9,1.1,2.6,1.1,4.1,1c-0.9,1.1-2.6,0.8-3.9,0.6
					c1,0.8,1.9,0.7,3.5,0.8c-1.1,1.1-1.2,0.7-3.2,0.8l2.4,0.5c-0.4,0.2-0.8,0.2-1.1,0.2l0.8,0.5c-1.7,1.1,0.6,0-1.8,1.1
					c-1.3,0.6-1.4,0.5-4.2-0.2c1.3,1.8,5.3,1.9,7.2,0.6c-0.7,1.7-2.8,1.5-4.7,1.6c2.1,0.8,3.4,0.4,5.1-0.4c-0.7,1.6-2.6,1.2-4,1.9
					c2.3,0.1,2.5-0.1,4.3-0.8c-0.7,1.7-1.8,1-3.3,1.9c1.6,0.1,1.9,0,3.3-0.5c-0.7,0.9-1.7,1.1-3.3,1.1c1.8,0.3,2.1,0.1,3.6-0.4
					c-0.6,0.9-0.8,0.9-1.9,1.1h1.5c-0.6,0.4-1.1,0.7-1.9,0.8c0.6,0,0.9,0,1.4,0.3c-3.5,1.3-1.8,1.3-6,0.1c1,1.3,5.1,2.9,7.3,1.4
					c-0.9,1.4-1.2,0.9-2.8,1.5c1.7,0.2,2.2-0.3,3.4-0.9c-0.2,1-1.3,1.5-2.8,1.6c1.9,0.3,1.9-0.4,3.5-0.6c-0.4,0.8-1.2,1-2.2,1.5
					c1.4,0,1.6-0.2,2.6-0.7c-0.3,1.1-1,1.1-1.9,1.6c1.2-0.1,1.7-0.4,2.6-0.9c-0.2,1.2-0.5,1.2-1.6,1.6c1.1,0,1.2-0.3,2.1-0.7
					c-0.5,0.8-0.7,1-1.3,1.4c0.4-0.1,0.4-0.2,0.7-0.2c0.7-0.1,0.3-0.1,0.6,0.1c-0.6,0.7-0.9,0.8-1.3,1.3l1.5-0.7
					c-0.6,0.8-0.4,0.8-1.3,1.2c1.3,0.7-0.9-0.1,0.9,0.2h0.1c-0.4,0.2-1.4,0.9-1.8,1.2l1.9-0.6c-0.5,0.2-1.4,1.5-2.6,1.7
					c1,0.1,1.5-0.4,2.4-0.7c-0.5,0.9-1,1.4-2.6,1.3c-1.2-3.1-1-4.5-3.2-7.1c-1.8-2.2-4.3-3.3-4.7-5.8c-0.3-1.6-0.3-2.9-0.7-4.5
					c-1-3.9-2.5-3.9,0.4-7.5c1.3-1.7,1.5-2.9,2.1-3.4c4.3,2.1,0.4,0.7,5.3,1.9c-2.4,0.4-2.5,0.1-4.4-0.4
					C172.4,63.5,174,63.9,175.5,64L175.5,64z M181.8,62.7c0.8-0.3,2.2-0.4,3.2-0.8v0.5c0,0,0,0,0,0.1l2.7-1c-0.4,0.5-0.6,0.6-1.3,1
					c-0.6,0.3-1,0.5-1.7,0.7c1.1,0,2.2-0.5,3.1-0.8c-0.6,1-0.2,0.8-0.2,0.9c-1.7,1.2-4.4-0.1-6.8,2.6l-0.5-1l1.4-0.7
					c-0.6,0-0.9-0.2-0.1-0.5c-0.4,0-0.7,0-1.1-0.1l-1-0.5c-0.6-0.3-0.3,0-0.9-0.5c2.9-0.3,4.1-0.6,6.5-1.2L181.8,62.7L181.8,62.7z
					 M170.1,59.1c1.4-2.6,3.7-5.2,7.1-4.8c3.9,0.4,5.9,1.8,10.4,1.1c-0.4,1-2.1,3-3,3.6l-0.2-0.7c-0.8,0.8-1.6,1.4-2.8,1.9
					c0.7-1,1.6-1.6,2.4-2.9c-1.5,1-2.8,2.8-5,3.6c1.3-1.5,2.3-1.6,3.4-3.8c-1.1,1.1-3,3.4-5.4,3.8l3.3-3.2c-1.3,0.6-3.2,3-5.2,3
					c1.5-0.9,2.3-1.5,3.4-3c-1.5,0.6-2.4,2.4-4.8,2.7c1-1.2,3.5-1.9,4.6-4.3c-0.3,0.7-4.6,4-6.3,3.8c2.1-1.1,3.5-2.6,4.7-4.1
					c-0.7,0.8-4.3,3.6-5.8,3.9c1.3-1,3.2-2.3,3.8-3.7C173.8,57,171.5,58.6,170.1,59.1L170.1,59.1L170.1,59.1z M148.3,42.9
					c-0.4,2.3-5.7,6-7.7,6.8c-0.5,0.7-7.5,3.3-8.8,3.8c-0.3,0.4-1.6,1.2-2.2,1.7c-0.6,0.6-1.1,1.3-1.6,2.3c-1.1,2.4-1.5,3.3-3,5
					c-1.6,1.9-7.4,6.4-7.9,8l-0.4,0.6c-0.6,0.9-0.5,1.2-1,1.6v0.7c0.1,0.1,0.1,0.1,0.2,0.2l0.6,0.7c0.5,0.8,0.2,0,0.5,0.9
					c0.7,0.6,0,0.7,0.6,1.9c0.3,0.6,0.8,1.1,1.6,1.2c2.5,0.5,2.6-1,3.4-2.3c0.7-0.6,0.7-0.5,1.5-0.8c0.1,0,0.1,0,0.2-0.1
					c0.1,0,0.1-0.1,0.2-0.1c0.1,0,0.1-0.1,0.2-0.1l1-0.6l0.4-0.3l0.7-0.4c0.3-0.2,1.6-1.2,1.9-1.8c0.2-0.7,0-0.9,1.6-1.9
					c1.8-1.1-1,0.7,0.5-0.3l0.8-0.7c0.7-0.4,0-0.1,0.6-0.3c1.2-0.2,4.7-3,5.5-3.8c1.2-1.2,0.4-1.6,2.7-1.9c6-0.7,6.8-4,9.4-4.6
					c1.4-0.4,2.8,0.3,4.1,0.4c1.5,0.1,2.7-0.3,4-0.4c-1.4,4.1-1.9,6.3-3.5,10.3c-0.3,0.7-0.1,0.2-0.2,0.6c-0.1,0.7-0.5,1.4-0.7,1.9
					c-0.2,0.4-0.2,0.3-0.4,0.8c-0.1,0.2,0.2,0.2-0.5,0.8l0.3,2.2l-1,0.5c-0.4,0.5-0.4,0.7,0,1.1c0.4,0.4,0.6,0.3,1,0.1
					c0.4-0.2,0.1-0.1,0.4-0.4l0.5-0.7c1.3,1.8,3.9,0.2,5.3,0.8c1.2,0.8,1,4.9,3,8.1l3.6,2.9c0.9,0.7,2.1,2.4,3.1,3.4
					c3.2,3.4,6.6,2.9,7.5-1.2c3.4-0.8,3-0.6,4.6-3.4c0.6-5.8-3.6-6.8-3.7-11c-0.1-4.3-0.8-4.6-0.9-6.3c0-0.8,0.9-5.2,1.2-5.7
					c1.7,1.4,1.5,3.9,2.8,5.9c1,1.8,1.8,4.6,2.8,5.9c2.3,3.5,10.5,5.5,10.3-1.4c-0.3-0.6-0.6-1.6-1.2-2.2c-0.6-0.5-1.6-0.7-2.1-1.5
					c-0.4-0.7-0.3-2.1-0.7-2.9c-0.4-1.1-1.1-1.3-1.1-2.7c0-2.3,0.6-1.2,0.3-6.8c-0.2-2.7,0.9-3.8,3.4-4c0.6-0.7,2.8-1.5,5.6-4.6
					c0.4-0.4,0.9-1.4,1.3-1.7c0.7-2.3,1.5-4.2,2.3-6.7c0.6-2.2,1.3-4.3,1.9-6.5c1.5-5.1,2.9-7.7,8.3-9c4.8-1.1,9.6-1.5,13.8-3.6
					c4-1.9,8.1-5.7,10.5-6.9v-0.8c-1.4,0.6-3,1.7-4.2,2.6c-15.2,9.5-15.6,4.8-24.1,9c-3.8,1.8-5.7,2.7-10.3,1.7c0.4,0.5,0.5,0.2,1,1
					l-0.7,2.2c1.2-1.4,0.3-1.3,1.5-1.8c0,1.1-1.6,2.7-1.7,5.1c0.8-1.5,1.2-3.3,2.6-4.2c-1,2.3-2.2,3.6-2.1,6.8
					c1.1-2.4,1.1-6.3,3.9-7.5c-0.9,1.5-1.6,1.5-2.6,4.6c-0.5,1.8-0.9,4-0.7,6c0.2-3.6,2.5-10.7,5.8-11.4c-1.4,2.6-2.6,3.8-3.7,7.3
					c-2.3,7.1-0.6,16.7-14.6,18.3c-0.1-0.1,0.1-0.7-0.8-1c-0.2,0.6,0.1,0.5-0.2,1c-1.6,0.1-3.9,0-5-0.6l4.1-0.9c0-0.1,0.1-0.1,0.2,0
					h-6.8c1.2-1.1,2.1-0.5,4.1-0.5c3.9-0.1,7.9-1,11-3.2c-3,0.8-7.2,3.5-12.6,2.2c1.4-0.7-0.4-0.7,3.5-0.7c5.9,0.1,8.7-3.1,10.6-3.4
					c-3.1,1.4-7.3,3.1-11.8,2.7l7.1-1.5c-2.2,0.3-3.3,0.7-5.6,0.6c0.8-0.5,1-0.4,2.2-0.6c0.8-0.1,5.7-1.1,5.9-1.7
					c0-0.1,0.1-0.1,0.2-0.1c-2.5,0.5-4.2,1.4-7.2,1.4c0.1,0,0.1-0.1,0.2-0.1c1.5-0.8,1.7-0.2,5.2-1.3c1.7-0.6,3-1.5,4.2-2.1
					c-1.4,0.6-5.5,2.3-7.3,2.3c-1.3,0-0.6,0.1-1-0.3c1.1-0.6,3-0.8,4.2-1.2c1.2-0.4,2.6-1.2,3.5-1.4c-2.1,0.3-4.3,1.5-6.9,1.7
					c0.6-1.2,1.3-1,3-1.5c1-0.3,1.9-0.9,2.9-1l-4.8,1c0.4-1.2,1.1-2.5,1.6-3.8c2.5-7.6,0.7-11.2,1-13.8l1.2,1.1
					c0.3-0.5-0.1-0.4,0-0.8c0.7,0.4,1.3,0.9,2.4,0.9c-1-0.3-2.6-1.3-3.1-2.2c-0.8-1.3,0.2-2.9,0.8-4l-0.8,1.1
					c-0.3,0.5-0.4,0.8-0.7,1.3c-0.4,0,0,0.2-0.5-0.5c0.1,3.2-0.3-0.3-0.4,1.5c0,0.3,0.2,1.1,0.3,1.7c-0.2-0.7-0.7-1.1-1-1.6l0.8,3
					c-0.4-0.6-1.1-1.5-1.4-2.2c0.4,1.1,1.5,3,1.5,4.4c0-0.3-0.2-0.6-0.4-1l-0.8-0.9c0.4,1.6,1.1,2.4,1.3,4.4
					c-0.7-1.4-1.6-3.3-2.5-4.6c0.7,2.2,2.1,4.4,2.1,7c-0.8-1.3-0.4-2.3-2.6-5.4c0.8,2.3,1.9,4.5,2.2,7.3c-0.3-0.4-0.1,0.1-0.5-0.8
					l-1.8-4.9c0.3,2.5,2.1,5.4,1.6,8.5c-0.3-3-1.1-3.9-1.8-6.3c0.2,2.9,1.6,4.3,1.1,8.1c-0.9-1.4-0.3-5.4-1.7-7.5
					c0.3,2.9,1.4,6.5,0.3,9.2c-0.1-1.1-0.1-2.2-0.1-3.4l-0.2-2.1c0-0.1-0.1-0.3-0.1-0.4c0-0.1,0-0.1-0.1-0.2c0,2.1,0.1,4.4-0.2,6.6
					l-0.5,1.6c0.1-1.9,0.7-4.8,0-6.6c-0.6,1.6-0.4,5.3-1.2,7.4c0.2-2.1,0.6-3.1,0.6-5.5c-0.2,0.2-0.2,0.2-0.3,0.7
					c-0.8,2.3,0.2,2.5-2.3,7.3c0.6-2.4,1.3-4,1.4-7c-0.8,1.3-1.2,5.8-3.2,7.8c0.8-2.9,2.4-5.8,2.3-9.2c-0.5,3.1-2.9,9.5-4.8,10.8
					c0.8-3.2,2.4-3.5,3.7-9.4c1-4.7,1.8-6.6-1.8-9.3c0.6,1.2,1.6,2.1,1.9,4c-0.9-1.5-3.3-4.7-5.4-4.6c1.8,1.1,4.4,4.9,4.2,8.6
					c-0.1,2.8-2.1,7.3-3.4,9.3c-3.8,6.2-4.9,5.5-8.7,10.4c-0.6,0.8-1.9,3.5-2.3,3.8c-0.8-1-0.9-1.5-2.3-1.8c1,0.7,1.6,1.4,1.7,2.9
					c-0.8-1-1.2-1.6-2.3-2.3c1.4,2.8,2.9,3.9,1.5,8.2c-0.8,2.7-2.4,4.9-5.4,5.1c2.2-0.8,4-1.6,4.3-4.2c-0.2,0.8-1.7,2.1-2.7,2.5
					c-1.7,0.8-2.6,0.5-4.3,0.8l0.6,0.8c-1.1-0.1-1.3-0.2-1.8-1.2c0.4-2.8,3.6-1,5.4-1.8c-1.6-0.6-3.5-0.8-5.1,0
					c0.1-1.2,0-0.9,0.9-1.1c-0.8-0.3-0.8,0.6-0.4-1.2c0.4-1.6,1.8-4.7,4.2-3.9c0.6,0.2,0.9,0.7,1.2,1.1c0.4,0.5,0.1,0.2,0.4,0.5
					c-0.2-3.5-1.4-2.5-3.2-3.2c1.3-0.5,1.3-0.5,2.7,0c-0.9-1.4-2.3-1-3.6-0.3c0.2-1.3,0.4-1.1,0.8-1.9l0.1-0.4
					c0.6-2.6,1.8-5.8,4.7-2.8c-0.4-1.2-1.5-2.4-3.1-1.6c0.2-1.7,0.9-3.3,1.2-5.5c0.3-2.3,0.2-3.8,0.8-5.9c0.5-1.8,1.1-3.5,1.4-5.5
					c0.2-1.4,0.2-4.5-0.6-5.8c-0.5,2.1,0.3,3.4,0,5.4c-0.2,1.4-1,3.1-1.3,4.6c-0.7,3.4-0.2,7.6-1.2,10.7h-1.9l1.2,0.8
					c-1.4,0.1-1.8-0.2-2.9-0.7c0.9,1,1.1,0.8,2.5,1.4c-2.5,0.4-2.7-0.7-4.2-1.4c0.5,0.4,1.5,1.2,2.1,1.7c-1.7-0.3-2.4-0.9-3.8-1.3
					l0.7,0.7c0.3,0.3,0.5,0.4,0.7,0.6c-1.9-0.4-3-1.6-4.5-2.4c0.4,0.7,0.4,0.5,1,1.1c0.5,0.5,0.6,0.6,1,0.9c-1.4-0.5-2.9-1.4-4-2.2
					c0.6,0.6,0.9,0.7,1.3,1.5c-1.8-0.8-4.6-3-5.7-4.3c0.2,1.2,1.7,2.9,2.6,3.5c-0.1,0-0.1,0.1-0.2,0.1c0,0-0.1,0.1-0.2,0.1l-0.3,0.1
					c0,0-0.4-0.1-0.5-0.1c0.9,0.4,1.9,1.1,2.9,1.6l-3.4-0.9c0.1,0,4.1,1.6,4.1,1.6c-1.2,0.5-3.9-0.7-5.1-1c0.5,0.5,0.8,0.7,1.6,1
					l1.3,0.5c0,0,0.1,0.2,0.2,0.1c0-0.1,0.1,0.1,0.2,0.1c-1.6,0.1-3.9-0.4-4.9-1.2c0.8,1,3,1.3,3.9,1.9c-1.9,0.1-2.7-0.3-4.2-0.8
					c1.2,0.9,2.7,1,3.8,1.7c-2.1,0-2.4-0.3-4-0.7c0.9,0.7,1.8,0.8,3.1,1.2c-2.5,0.4-4.3-1-6.2-1.6c0.8,0.7,2.4,1.7,3.5,1.9
					c-1.6,0-4.2-1.4-5.4-2.1l3.5,2.5l-4.2-1.8c1.1,1.1,2.3,1.3,3.5,2.3c-1.4-0.2-2.5-0.9-3.7-1.3c1,1.1,1.4,0.9,2.3,1.6
					c-1.3-0.1-3.2-0.6-4.1-1.4c-0.1-0.1-0.4-0.5-0.5-0.5c-0.4-0.5-0.1-0.1-0.3-0.4l-0.5-0.1c0.5,0.9,1,1.6,1.4,2.4l-1.9-0.8
					c0.3,0.6,2.7,1.8,3.2,2.1c-1.5-0.2-2.7-0.9-3.9-1.4c1.8,2.1,3.2,1.4,5.5,2.6c-2.1,0.3-3-0.3-4.7-0.8c1.1,1.1,3.2,1,4.2,1.5
					c-2.3,0.6-3.6-0.5-5.5-1c0.5,0.4,1.1,0.8,1.9,1.1c1,0.4,1.7,0.4,2.6,0.9c-2.6,0.4-5.4-1-6.6-2.2c1.5,2.2,2.4,1.7,4.8,3
					c-2.1,0.3-3.6-0.8-5-1.5c0.5,0.8,1.9,1.5,2.9,1.9c-2.1,0-3.4-1.3-4.4-2.2c0.8,1.5,1.5,1.5,2.9,2.8c-1.4,0-2.8-0.6-3.3-1.3
					c0.4,0.9,0.7,1.4,1.7,1.9c-0.4,0.3-0.9,0.3-1.4,0.3l1.6,0.6c0.1,0,0.2,0.1,0.2,0.1l-2.2,0.2l1.8,0.5c-1.2,0.4-2.2,0.2-3.5,0
					l2.7,0.9c-2.2,0.4-2.5,0.1-4.4-0.1c1.1,0.1,1.8,0.6,4.1,0.6c-1.5,1-3.6,0.3-5.1,0.1c1,0.2,2.5,0.6,3.9,0.8l-0.4,0.2
					c-1.5,0.3-3.1-0.2-4.6-0.6c1.4,0.9,2.9,0.8,4.4,1.3c-2.3,0.1-3-0.4-4.8-0.6l4,1.1h-2.3c0.1,0.1-0.3,0.6,1,0.4
					c-1.5,0.3-2.7-0.2-4-0.5l1,0.6c-7.9-0.3,0.2-6.8,2.2-8.7c0.4-0.4,0.6-0.6,1-1l0.8-0.8c0.3-0.3,0.1-0.1,0.5-0.4l0.7,1.1
					c-0.5-2.6,0.9-3.3,2.1-4.5c1.1-1.3,1.6-2.6,3-4c0.8,1,0,2.1,0.8,0.7c-0.9-2.4,3.6-4.1,5.5-5c1.3-0.6,2.7-1.1,4-1.7l2.7-1.4
					c0.6-0.2-0.3,0.6,0.5-0.1l2.6-2.3c0.8,0.2,0.5,0,0.8,0.7c0-1.2,0.1-0.9,0.4-1.2l0.3,0.9c-0.1-0.9,0-1.2,0.4-1.9
					c0.6,0.8,0,0.9,0.7,1.9c-0.3-1.2-0.4-1.1-0.3-2.7l0.4,1c0.1,0.4,0.1,0.5,0.3,0.9c0.3,0.7,0.7,1.1,1.1,1.4
					c-1.1-1.7-1.9-3.1-0.5-5.1c5.1-7.2,5.1-13.2,15.2-19.7c3.1-1.9,6.6-5.2,8.2-5.6c-1.4,2.3-6.9,5.6-9.1,7.3
					c1.5-0.1,6.5-3.4,7.6-4.3l3.2-2.8c2.4-2.1,1.6-2.1,3.8-2.3l-1.4-0.4c1.5-0.4,1.6-0.6,3.5-0.9l-2.6,0.2c1.1-1.1,1.9-0.9,3.7-1.2
					l-2.9,0.2c1.4-2.5,3.4-1.8,4.5-2.3l-2.9,0.2c0.7-0.6,0.6-0.4,1.2-0.5l-0.4-0.2l-0.1-0.1c-0.7-0.4-0.1,0.2-0.2-0.1
					c1.5-0.7,2.7-0.4,4.4-0.3c-1.3-0.8-2.6-0.3-4-0.4c0.5-0.6,1.1-1.5,1.7-2.2l6.4-5.8h-1.4c-0.7,0.7-1.6,1.3-2.5,1.9
					c-2.6,2.1-5.7,6-6.6,6.4c5.6-7.6,5.4-5.6,7.4-7.7l0.5-0.6c-1.5,0-1.3-0.2-2.4,0.6c-2.9,2.3-3.9,3.4-6.2,6.3
					c-2.1,2.6-4.7,5.6-7,7.7l-10.7,9.2c-0.8,0.6-1.7,1.7-2.5,2.4C154.7,31.4,149.7,42.1,148.3,42.9L148.3,42.9L148.3,42.9z"/>
				<path class="st0" d="M235.7,6.3v-1h-0.2c-0.2,1-1.3,1.4-2.9,2.5c-10.6,6.4-21.5,7.8-25.8,11.5c1.1-0.4,2.4-1.1,3.6-1.6
					c9.6-4,14.6-2.6,23.8-9.9C234.9,7,234.9,6.7,235.7,6.3L235.7,6.3L235.7,6.3z"/>
				<path class="st0" d="M169,56.3c0.8-0.3,4.9-5.1,5.9-6.3c1.3-1.5,3.3-5.8,3.1-8.7C177.5,46.2,169.1,53.8,169,56.3
					C169,56.3,169,56.3,169,56.3z"/>
				<path class="st0" d="M168,53.9c1.1-1.7,3.5-9.6-0.2-9.5c-0.3,1.6,0.9,2.2,0.8,4.5C168.6,50.7,168,52.2,168,53.9z"/>
				<path class="st0" d="M164.1,36.3c0-0.1,0.1-0.2,0.1-0.2s0.1-0.1,0.1-0.2c0-0.1,0.1-0.3,0.2-0.4c0.9-1.9,2.7-3.3,5.1-3.4
					c3.2-0.1,4.5,1.9,5.7,3.8C174.3,30.1,164.3,29.8,164.1,36.3z"/>
				<path class="st0" d="M188,53c-0.2-1-0.3-1.1-1.1-0.5C187.2,53.3,187,53.6,188,53z"/>
				<path class="st0" d="M168.2,57.8c0.2-1,0.3-0.3-0.2-1C166.8,57.1,167.1,57.8,168.2,57.8z"/>
			</g>
			<path class="st0" d="M191.3,16.4c0-0.7,0.1-0.7,0.6-1.5c2.6-3.8,6.4-5.3,10.8-7.1c3.8-1.5,12.3-3.6,14.9-5.6h-1.2
				c-3.4,1.4-7.1,2.9-10.9,4c-2.1,0.6-4,1.8-5.6,0.7c-0.8-0.6-1.1-1.1-2.1-1.2l-0.5-0.1c-0.7-0.1-0.1-0.1-0.6-0.1
				c-0.1,0-1.1,0.3-1.3,0.4c1.2,0.5,1.9,1.5,3.1,2.2l-0.7,0.1c-1,0.3,0.4,0.5-1.6-0.4c0.5,0.7,0.1,0.3,0.9,0.7l-0.6,0.5
				c0,0-0.1,0,0,0.1c-1-0.5-2.5-1.4-3.5-1.7c0.1,0.1,0.1,0.1,0.2,0.2l2.9,2.1c-0.4,0.5-1.3,1-3,3c-0.7,0.8-1.5,1.8-1.7,2.9
				C191,16.3,191.2,16.3,191.3,16.4L191.3,16.4L191.3,16.4z"/>
			<path class="st0" d="M102.9,119.1c0,0.3,0,1.2,0.6,0.6C104.1,119.1,103.2,119.1,102.9,119.1z"/>
			<path class="st0" d="M114.5,129.9c-1.1,0.3-0.9,0.6,0.2,0.8L114.5,129.9z"/>
		</g>
	</g>
</g>
</svg>
