<?xml version="1.0" encoding="utf-8"?>
<!-- Generator: Adobe Illustrator 26.0.1, SVG Export Plug-In . SVG Version: 6.00 Build 0)  -->
<svg version="1.1" id="Слой_1" xmlns:xodm="http://www.corel.com/coreldraw/odm/2003"
	 xmlns="http://www.w3.org/2000/svg" xmlns:xlink="http://www.w3.org/1999/xlink" x="0px" y="0px" viewBox="0 0 237 89.2"
	 style="enable-background:new 0 0 237 89.2;" xml:space="preserve">
<g id="Слой_x0020_1">
	<g id="_105553826133408">
		<polygon points="132.6,69.4 135.8,74.8 136.2,74.6 133.2,69.4 		"/>
		<polygon points="150.5,50.7 150.5,50.6 144.7,49.4 144.9,49.7 		"/>
		<path d="M136.9,71.5l-1.2-1.7h0.5c0.2,0,0.3-0.2,0.3-0.3c0-0.2-0.2-0.3-0.3-0.3h-2.1c-0.2,0-0.3,0.2-0.3,0.3
			c0,0.2,0.2,0.3,0.3,0.3h1.3l1.3,1.8L136.9,71.5z"/>
		<polygon points="120.2,69.4 120.8,77.1 121,77.1 120.5,69.4 		"/>
		<polygon points="107.8,69.4 101.1,86.1 101.5,86.2 108.6,69.4 		"/>
		<path d="M104.5,69.5c0,0.2,0.2,0.3,0.3,0.3h1.4l-2,4.2l0.2,0.1l2.1-4.3h0.4c0.2,0,0.3-0.2,0.3-0.3c0-0.2-0.2-0.3-0.3-0.3h-2.1
			C104.7,69.1,104.5,69.3,104.5,69.5l-0.5-0.1l-3,5.3l0.3,0.2L104.5,69.5L104.5,69.5z"/>
		<polygon points="109.4,78.3 109.7,78.3 112.2,69.4 111.6,69.4 		"/>
		<polygon points="137.1,69.4 145.7,80.4 146,80.2 137.9,69.4 		"/>
		<path d="M149.3,57.3c-0.2,0.1-0.2,0.3-0.1,0.5l1,1.8c0.1,0.1,0.2,0.2,0.3,0.2c0.1,0,0.1,0,0.2,0c0.2-0.1,0.2-0.3,0.1-0.5l-0.7-1.3
			l9.9,4l0.1-0.3L149,57L149.3,57.3L149.3,57.3z"/>
		<polygon points="128.4,69.4 135.5,86.2 135.8,86.1 129.1,69.4 		"/>
		<polygon points="99,69.4 91,80.2 91.3,80.4 99.8,69.4 		"/>
		<polygon points="111.1,16.7 109.5,10.9 109.2,11 110.8,17.3 		"/>
		<polygon points="127.6,11 127.2,10.9 125.7,16.5 126,17.1 		"/>
		<path d="M124.4,12.6l-0.2,1.1c-0.1,0-0.1,0-0.2,0c-0.2,0.1-0.2,0.3-0.1,0.5l1,1.8c0.1,0.1,0.2,0.2,0.3,0.2c0.1,0,0.1,0,0.2,0
			c0.2-0.1,0.2-0.3,0.1-0.5l-1-1.8c0-0.1-0.1-0.1-0.1-0.1l0.2-1.1H124.4L124.4,12.6z"/>
		<path d="M86.3,69.4c0-0.2-0.2-0.3-0.3-0.3h-2.1c-0.2,0-0.3,0.2-0.3,0.3c0,0.2,0.2,0.3,0.3,0.3h1.5l-2.6,2.1l0.2,0.3l3.1-2.4
			c0.1,0,0.1-0.1,0.1-0.1l0.3-0.2L86.3,69.4L86.3,69.4L86.3,69.4z"/>
		<path d="M81.8,69.1h-0.4l0.2-0.4c0.1-0.2,0-0.4-0.1-0.5c-0.2-0.1-0.4,0-0.5,0.1l-0.8,1.4h1.7c0.2,0,0.3-0.2,0.3-0.3
			C82.1,69.2,82,69.1,81.8,69.1L81.8,69.1z"/>
		<path d="M109.2,19.3c-0.1,0.2,0,0.4,0.1,0.5c0.1,0,0.1,0,0.2,0c0.1,0,0.2-0.1,0.3-0.2l1-1.8c0.1-0.2,0-0.4-0.1-0.5
			c-0.2-0.1-0.4,0-0.5,0.1l-0.7,1.3l-1.8-4.9l-0.2,0.1l1.8,5.2C109.4,19.1,109.2,19.3,109.2,19.3z"/>
		<path d="M83.5,64.6c-0.2-0.1-0.4,0-0.5,0.1l-1,1.8c-0.1,0.2,0,0.4,0.1,0.5c0.1,0,0.1,0,0.2,0c0.1,0,0.2-0.1,0.3-0.2l1-1.8
			C83.7,64.9,83.7,64.7,83.5,64.6z"/>
		<path d="M113.4,12c-0.1,0.2,0,0.4,0.1,0.5c0.1,0,0.1,0,0.2,0c0.1,0,0.2-0.1,0.3-0.2l1-1.8c0.1-0.2,0-0.4-0.1-0.5
			c-0.2-0.1-0.4,0-0.5,0.1l-0.2,0.4L112.8,0l-0.4,0l1.4,11.3L113.4,12L113.4,12z"/>
		<path d="M84.2,63.4c0.1,0,0.1,0,0.2,0c0.1,0,0.2-0.1,0.3-0.2l1-1.8c0.1-0.2,0-0.4-0.1-0.5l0,0l0,0l0,0c-0.2-0.1-0.4,0-0.5,0.1
			L85,61.2l-4.2,2.1l0.1,0.2l3.9-1.9l-0.7,1.3C84,63.1,84.1,63.3,84.2,63.4L84.2,63.4z"/>
		<path d="M86.2,59.2c-0.1,0.2,0,0.4,0.1,0.5c0.1,0,0.1,0,0.2,0c0.1,0,0.2-0.1,0.3-0.2l1-1.8c0.1-0.2,0-0.4-0.1-0.5l0,0l0.2-0.3
			l-11,4.7L77,62l9.9-4L86.2,59.2L86.2,59.2z"/>
		<path d="M111.3,15.7c-0.1,0.2,0,0.4,0.1,0.5c0.1,0,0.1,0,0.2,0c0.1,0,0.2-0.1,0.3-0.2l1-1.8c0.1-0.2,0-0.4-0.1-0.5
			c-0.2-0.1-0.4,0-0.5,0.1l-0.1,0.1l-2.3-10.5l-0.2,0l2.2,10.9L111.3,15.7L111.3,15.7z"/>
		<path d="M115.7,8.9c0.1,0,0.1,0,0.2,0c0.1,0,0.2-0.1,0.3-0.2l1-1.8c0.1-0.2,0-0.4-0.1-0.5c-0.2-0.1-0.4,0-0.5,0.1l-1,1.8
			C115.4,8.6,115.5,8.8,115.7,8.9z"/>
		<path d="M117.8,5.2c0.2,0.1,0.4,0,0.5-0.1l0.2-0.4l0.2,0.4c0.1,0.1,0.2,0.2,0.3,0.2c0.1,0,0.1,0,0.2,0c0.2-0.1,0.2-0.3,0.1-0.5
			l-0.8-1.4l-0.8,1.4C117.5,4.9,117.6,5.1,117.8,5.2z"/>
		<path d="M126.6,17.5c-0.1-0.2-0.3-0.2-0.5-0.1c-0.2,0.1-0.2,0.3-0.1,0.5l1,1.8c0.1,0.1,0.2,0.2,0.3,0.2c0.1,0,0.1,0,0.2,0
			c0.2-0.1,0.2-0.3,0.1-0.5l-0.4-0.6l4.5-13.9l-0.2-0.1L127,18.1C127,18.1,126.6,17.5,126.6,17.5z"/>
		<path d="M120.8,8.7c0.1,0.1,0.2,0.2,0.3,0.2c0.1,0,0.1,0,0.2,0c0.2-0.1,0.2-0.3,0.1-0.5l-0.6-1l0.2-4.7h-0.2l-0.3,4.3l-0.2-0.4
			c-0.1-0.2-0.3-0.2-0.5-0.1c-0.2,0.1-0.2,0.3-0.1,0.5L120.8,8.7L120.8,8.7z"/>
		<path d="M140.7,43.3l1,1.8c0.1,0.1,0.2,0.2,0.3,0.2c0.1,0,0.1,0,0.2,0c0.1-0.1,0.2-0.2,0.2-0.4l10.9-0.1v-0.4l-11.2-0.1l-0.7-1.2
			l9.6-0.8v-0.2l-9.9,0.6c-0.1,0-0.1,0-0.2,0h-0.1l0,0C140.7,42.9,140.6,43.1,140.7,43.3L140.7,43.3z"/>
		<path d="M122.9,12.4c0.1,0.1,0.2,0.2,0.3,0.2c0.1,0,0.1,0,0.2,0c0.2-0.1,0.2-0.3,0.1-0.5l-0.4-0.6l1.4-11.3l-0.4,0l-1.5,10.6
			l-0.2-0.4c-0.1-0.2-0.3-0.2-0.5-0.1c-0.2,0.1-0.2,0.3-0.1,0.5L122.9,12.4L122.9,12.4z"/>
		<path d="M152.6,63.4c0.1,0,0.1,0,0.2,0c0.2-0.1,0.2-0.3,0.1-0.5l-1-1.8c-0.1-0.2-0.3-0.2-0.5-0.1c-0.2,0.1-0.2,0.3-0.1,0.5l1,1.8
			C152.3,63.3,152.4,63.4,152.6,63.4z"/>
		<path d="M155,66.5l-1-1.8c-0.1-0.2-0.3-0.2-0.5-0.1c-0.2,0.1-0.2,0.3-0.1,0.5l1,1.8c0.1,0.1,0.2,0.2,0.3,0.2c0.1,0,0.1,0,0.2,0
			C155,66.9,155,66.7,155,66.5z"/>
		<path d="M155.5,68.2c-0.2,0.1-0.2,0.3-0.1,0.5l0.2,0.4h-0.4c-0.2,0-0.3,0.2-0.3,0.3c0,0.2,0.2,0.3,0.3,0.3l1.7,0l-0.8-1.4
			C155.9,68.2,155.7,68.1,155.5,68.2L155.5,68.2z"/>
		<path d="M127.9,69.8c0.2,0,0.3-0.2,0.3-0.3c0-0.2-0.2-0.3-0.3-0.3h-2.1c-0.2,0-0.3,0.2-0.3,0.3h-0.5l2.5,8.9l0.4-0.1l-2.2-8.6
			c0.1,0.1,0.2,0.2,0.3,0.2h1.3l2,5.6l0.2-0.1l-1.9-5.6L127.9,69.8L127.9,69.8z"/>
		<path d="M111.1,69.8c0.2,0,0.3-0.2,0.3-0.3c0-0.2-0.2-0.3-0.3-0.3H109c-0.2,0-0.3,0.2-0.3,0.3c0,0.2,0.2,0.3,0.3,0.3h0.8
			l-4.7,14.7l0.2,0.1l5-14.8L111.1,69.8C111.1,69.8,111.1,69.8,111.1,69.8z"/>
		<path d="M92.2,69.1c-0.2,0-0.3,0.2-0.3,0.3c0,0.2,0.2,0.3,0.3,0.3l2.1,0c0.2,0,0.3-0.2,0.3-0.3c0-0.2-0.2-0.3-0.3-0.3H92.2z"/>
		<path d="M90.1,69.1H88c-0.2,0-0.3,0.2-0.3,0.3c0,0.2,0.2,0.3,0.3,0.3l1.9,0l-3,2.7l0.1,0.1l3.7-3.2h-0.2
			C90.5,69.2,90.3,69.1,90.1,69.1L90.1,69.1z"/>
		<path d="M140.9,69.4c0-0.2-0.2-0.3-0.3-0.3h-2.1c-0.2,0-0.3,0.2-0.3,0.3c0,0.2,0.2,0.3,0.3,0.3h2.1c0,0,0.1,0,0.1,0l5.7,6.4
			l0.1-0.1l-5.7-6.5C140.8,69.5,140.9,69.5,140.9,69.4L140.9,69.4z"/>
		<path d="M115.3,69.1h-2.1c-0.2,0-0.3,0.2-0.3,0.3c0,0.2,0.2,0.3,0.3,0.3l0.3,0l-1.3,6.8l0.2,0l1.4-6.9l0.9,0l-2.4,19.4l0.4,0
			l2.7-19.5c0.1-0.1,0.1-0.2,0.1-0.3C115.7,69.2,115.5,69.1,115.3,69.1L115.3,69.1z"/>
		<path d="M102.7,69.8c0.2,0,0.3-0.2,0.3-0.3c0-0.2-0.2-0.3-0.3-0.3h-2.1c-0.2,0-0.3,0.2-0.3,0.3c0,0.2,0.2,0.3,0.3,0.3h1l-6.4,9.9
			l0.1,0.1l6.7-10L102.7,69.8C102.7,69.8,102.7,69.8,102.7,69.8z"/>
		<path d="M148.9,69.1h-2.1c-0.2,0-0.3,0.2-0.3,0.3c0,0.2,0.2,0.3,0.3,0.3l2.1,0c0.2,0,0.3-0.2,0.3-0.3
			C149.3,69.2,149.1,69.1,148.9,69.1z"/>
		<path d="M96.4,69.1c-0.2,0-0.3,0.2-0.3,0.3c0,0.2,0.2,0.3,0.3,0.3l2.1,0c0.2,0,0.3-0.2,0.3-0.3c0-0.2-0.2-0.3-0.3-0.3H96.4z"/>
		<path d="M153.1,69.8c0.2,0,0.3-0.2,0.3-0.3c0-0.2-0.2-0.3-0.3-0.3H151c-0.2,0-0.3,0.2-0.3,0.3h-0.2l0.3,0.2c0,0,0.1,0.1,0.1,0.1
			l3.1,2.4l0.2-0.3l-2.6-2.1L153.1,69.8L153.1,69.8L153.1,69.8z"/>
		<path d="M124.1,69.4c0-0.2-0.2-0.3-0.3-0.3h-2.1c-0.2,0-0.3,0.2-0.3,0.3c0,0.1,0.1,0.2,0.1,0.3l2.7,19.5l0.4,0l-2.4-19.4h1.3
			l3.5,16l0.2,0l-3.1-16C124,69.7,124.1,69.6,124.1,69.4L124.1,69.4z"/>
		<path d="M132.1,69.8c0.2,0,0.3-0.2,0.3-0.3c0-0.2-0.2-0.3-0.3-0.3H130c-0.2,0-0.3,0.2-0.3,0.3c0,0.2,0.2,0.3,0.3,0.3h0.8l6.4,12.5
			l0.2-0.1l-6.1-12.4H132.1L132.1,69.8z"/>
		<path d="M119.5,69.1h-2.1c-0.2,0-0.3,0.2-0.3,0.3h-0.3l-0.9,17.2h0.2l1.2-16.9c0.1,0,0.1,0.1,0.2,0.1l0.8,0l0.1,9.7h0.4l0-9.7h0.7
			c0.2,0,0.3-0.2,0.3-0.3C119.9,69.2,119.7,69.1,119.5,69.1L119.5,69.1z"/>
		<path d="M142.6,69.1c-0.2,0-0.3,0.2-0.3,0.3c0,0.2,0.2,0.3,0.3,0.3l2.1,0c0.2,0,0.3-0.2,0.3-0.3c0-0.2-0.2-0.3-0.3-0.3H142.6z"/>
		<path d="M83.3,67.8h70.3L118.5,6.9L83.3,67.8z M84.3,67.2l34.2-59.1l34.2,59.1H84.3L84.3,67.2z"/>
		<path d="M108.6,44.2c0.1-0.1,0-0.2-0.1-0.1c-1.7,1.5-3.2,3.1-5,4.6l0,0C105.4,47.5,107,45.8,108.6,44.2L108.6,44.2z"/>
		<path d="M109.3,43.5c0,0-0.1,0-0.1,0c0,0-0.1,0.1-0.1,0.1c-0.1,0.1-0.1,0.1-0.2,0.2c0,0.1,0,0.1,0.1,0.1c0.2,0,0.3-0.1,0.4-0.3
			C109.5,43.6,109.4,43.4,109.3,43.5L109.3,43.5z"/>
		<path d="M109.7,43.4c1.2-0.6,2.4-1.2,3.6-1.7c0.1,0,0-0.2-0.1-0.2C112,41.8,110.6,42.3,109.7,43.4
			C109.6,43.4,109.7,43.4,109.7,43.4L109.7,43.4z"/>
		<path d="M106.4,45.7c0.1-0.1-0.1-0.3-0.2-0.2c-0.6,0.6-1.1,1.2-1.7,1.7c-0.7,0.6-1.3,1.4-2,2c0,0,0,0,0,0c0.7-0.5,1.4-1.2,2.1-1.7
			C105.2,47,105.9,46.4,106.4,45.7L106.4,45.7z"/>
		<path d="M110.9,41.7c-1.4,0.8-2.8,1.9-3.8,3.1c0,0,0,0,0,0c1.2-1.1,2.6-2,3.9-2.9C111.1,41.8,111,41.6,110.9,41.7z"/>
		<path d="M103.8,47.5c0.6-0.5,1.2-1.1,1.7-1.7c0.1-0.1,0-0.2-0.1-0.1c-1,1-2.1,2.1-3.2,3.1c0,0,0,0,0,0
			C102.8,48.5,103.2,48,103.8,47.5L103.8,47.5z"/>
		<path d="M110.4,41.1c-0.8,0.4-1.6,1-2.3,1.7c-0.7,0.7-1.3,1.5-2,2.3c0,0,0,0,0,0c0.7-0.5,1.3-1.3,1.9-1.8c0.7-0.7,1.6-1.3,2.4-1.9
			C110.6,41.3,110.5,41.1,110.4,41.1L110.4,41.1z"/>
		<path d="M102.7,47.9c0.8-0.7,1.6-1.5,2.4-2.2c0.8-0.8,1.5-1.7,2.3-2.5c0.1-0.1,0-0.2-0.1-0.1c-0.8,0.7-1.5,1.6-2.2,2.3
			C104.3,46.3,103.4,47,102.7,47.9C102.6,47.9,102.6,47.9,102.7,47.9L102.7,47.9z"/>
		<path d="M104.1,46.1c1-1,1.7-2.3,2.7-3.4c0,0,0-0.1,0,0c-1.1,0.9-1.9,2.2-2.8,3.3C103.8,46.1,104,46.3,104.1,46.1L104.1,46.1z"/>
		<path d="M103.7,46.2c-0.1,0.1-0.2,0.3-0.4,0.4c-0.1,0.1-0.3,0.2-0.4,0.4c0,0,0,0,0,0c0.1-0.1,0.3-0.2,0.5-0.3
			c0.1-0.1,0.3-0.2,0.4-0.4C103.9,46.3,103.8,46.2,103.7,46.2L103.7,46.2z"/>
		<path d="M116.8,40.9C116.8,40.9,116.8,41,116.8,40.9c1,0.1,2,0,3,0c1,0,2,0.2,3,0.5c0.8,0.2,1.7,0.4,2.4,0.8
			c0.4,0.2,0.9,0.6,1.5,0.5c0.4-0.1,0.2-0.7-0.2-0.6c0.1,0-0.1-0.1-0.2-0.1c-0.1,0-0.3-0.1-0.4-0.2c-0.2-0.1-0.4-0.2-0.7-0.3
			c-0.9-0.3-1.8-0.5-2.8-0.7c-0.9-0.2-1.8-0.2-2.7-0.2C118.8,40.6,117.8,40.8,116.8,40.9L116.8,40.9z"/>
		<path d="M127.7,43.4c0.5,0,0.5-0.8,0-0.8C127.1,42.6,127.1,43.4,127.7,43.4z"/>
		<path d="M130.4,44.1c-0.3-0.2-0.6-0.5-1-0.6c-0.3-0.1-0.6-0.5-1-0.4c-0.3,0-0.5,0.4-0.2,0.6c0.6,0.3,1.2,0.5,1.8,0.8
			c0.6,0.4,1.4,0.8,1.9,1.3c0,0,0.1,0,0.1-0.1C131.5,45,131,44.5,130.4,44.1L130.4,44.1z"/>
		<path d="M127.2,54.9c-1.4,0.5-2.7,1-4.1,1.1c-1.6,0.1-3.2,0.1-4.8-0.1c-1.6-0.1-3.2-0.3-4.7-0.7c-1.5-0.4-3-1-4.5-1.4
			c0,0-0.1,0.1,0,0.1c1.5,0.4,2.9,1.2,4.4,1.7c1.6,0.5,3.2,0.9,4.8,1.1c3.1,0.4,6.5,0.5,9.2-1C127.8,55.4,127.6,54.8,127.2,54.9
			L127.2,54.9z"/>
		<path d="M129.7,54.7c0.8-0.5,1.7-1.2,2.3-1.9c0.3-0.3,0.6-0.7,0.9-1.1c0.3-0.4,0.5-0.7,0.7-1.2c0.1-0.1-0.2-0.2-0.2-0.1
			c-0.2,0.4-0.5,0.7-0.8,1c-0.3,0.3-0.6,0.6-1,0.9c-0.7,0.6-1.5,1.1-2.3,1.7C128.9,54.4,129.2,55,129.7,54.7z"/>
		<path d="M128.7,54.5c-0.2-0.1-0.5,0-0.6,0.2c-0.1,0.1-0.1,0.2,0,0.4c0,0.2,0.2,0.3,0.3,0.3c0.1,0,0.2,0,0.3,0
			c0.1,0,0.2-0.1,0.2-0.1c0.1-0.1,0.1-0.2,0.1-0.3c0-0.1,0-0.2-0.1-0.2C128.9,54.6,128.8,54.5,128.7,54.5L128.7,54.5z"/>
		<path d="M129.8,50.6c-0.4,0.1-0.7,0.4-1,0.5c-0.4,0.2-0.7,0.4-1.1,0.6c-0.1,0.1,0,0.3,0.1,0.2c0.4-0.2,0.8-0.3,1.2-0.5
			c0.4-0.2,0.8-0.3,1-0.6C130.1,50.7,129.9,50.5,129.8,50.6L129.8,50.6z"/>
		<path d="M132.5,48.8c-0.1,0-0.2,0.1-0.4,0.2c-0.2,0.1-0.4,0.2-0.6,0.3c-0.3,0.1-0.5,0.3-0.7,0.5c-0.2,0.1-0.4,0.2-0.5,0.5
			c-0.1,0.1,0,0.2,0.2,0.2c0.5-0.1,0.9-0.7,1.4-0.9c0.2-0.1,0.8-0.4,0.8-0.7C132.6,48.8,132.6,48.8,132.5,48.8L132.5,48.8z"/>
		<path d="M110.4,47.8c0.1,0.4,0.2,0.7,0.5,0.9c0,0,0,0,0,0c-0.2-0.3-0.2-0.7-0.2-1C110.6,47.5,110.3,47.6,110.4,47.8z"/>
		<path d="M125.4,49.1c-0.2,0.3-0.4,0.7-0.5,1c0,0,0,0,0,0c0.3-0.2,0.6-0.6,0.7-1C125.6,49.1,125.5,49,125.4,49.1L125.4,49.1z"/>
		<path d="M125.7,48.3c-0.1,0-0.2,0.2-0.1,0.3c0,0,0.1,0.1,0.1,0.1l0,0l0,0c0,0,0.1,0,0.1,0h0l0,0c0.1,0,0.1-0.1,0.1-0.2
			C126,48.3,125.8,48.2,125.7,48.3L125.7,48.3z"/>
		<path d="M125.8,46.4c0,0.4,0,0.8,0,1.3c0,0.1,0.1,0.1,0.2,0.1c0.2-0.1,0.2-0.4,0.2-0.6c0-0.3,0.1-0.5,0-0.8
			C126.1,46.2,125.8,46.2,125.8,46.4L125.8,46.4z"/>
		<path d="M111.4,49.4c0-0.2-0.3-0.2-0.3,0c0,0.2,0.1,0.3,0.3,0.4c0,0,0,0,0,0C111.4,49.7,111.4,49.5,111.4,49.4z"/>
		<path d="M135,47.8c-0.4-0.1-0.7-0.1-1.2-0.2c-0.1-0.1-0.2-0.2-0.4-0.3c-0.4-0.3-0.8-0.6-1.2-0.8c-0.4-0.2-0.7-0.5-1.1-0.7
			c-1.1-0.7-2.2-1.4-3.3-2c-2.2-1.2-4.6-2.1-7.1-2.5c-2.5-0.4-4.9-0.1-7.3,0.6c-2.3,0.8-4.4,2.2-6.2,3.8c-0.9,0.8-1.9,1.7-2.8,2.5
			c-0.9,0.8-2,1.4-2.9,2.2c-0.6,0.5-1,1.2-0.3,1.7c0.3,0.2,0.7,0.3,1,0.3c0.3,0,1.7-0.1,1.8-0.1c0.1,0,0.2,0,0.3,0
			c0.2,0,0.5,0,0.7,0c1,0,2.1-0.1,3.1,0.1c1.3,0.2,2.5,0.6,3.8,1c1.2,0.4,2.3,0.5,3.5,0.6c1.4,0.1,2.7,0.2,4,0.2
			c2.4,0,4.9-0.3,7.2-1.2c0.6-0.2,1.3-0.5,1.9-0.9c0.3-0.2,0.6-0.4,0.9-0.5c0.3-0.2,0.5-0.3,0.7-0.5c0-0.1,0.1-0.2,0-0.2
			c-0.1,0-0.3,0.2-0.4,0.2c-0.3,0.2-0.7,0.4-1,0.6c-0.7,0.4-1.4,0.7-2.1,1c-2.3,0.8-4.9,1.2-7.4,1.2c-2.5,0-5.2-0.2-7.6-1
			c-2.4-0.7-4.8-1.1-7.3-0.8c0,0-1.7,0.3-2.4,0.1c-0.3-0.1-0.5-0.2-0.7-0.3c-0.5-0.4,0-1,0.3-1.3c1-0.7,2.1-1.5,3.1-2.3
			c2.1-1.7,4.1-3.6,6.5-4.9c0.3-0.2,0.7-0.3,1-0.5c-1.6,0.8-2.9,1.9-4.2,3c-0.1,0.1-0.2,0.1-0.3,0.2c-0.6,0.5-1.2,1.1-1.8,1.6
			c-0.1,0.1-0.2,0.2-0.3,0.3c-0.1,0-0.1,0.1-0.2,0.1c-0.3,0.2-0.7,0.5-1,0.7l0,0c-0.5,0.3-1.1,0.6-1.6,0.9c-0.5,0.2-1,0.5-1.3,1
			c-0.6,0.9,0.8,1.2,1.4,1.2c1.4,0,2.7-0.6,4.2-0.4c0,0,0.1,0,0.1,0c1.2,0.2,2.4,0.4,3.6,0.6c2.5,0.5,5,1,7.6,1.1
			c2.5,0.1,5-0.4,7.3-1.2c1.7-0.5,3.2-1.4,4.6-2.5c0.6-0.4,1.2-0.8,1.7-1.3c0.4,0.1,0.8,0.1,1.2,0.2c0.6,0,1.2,0.1,1.7-0.1
			C135.4,48.4,135.4,47.9,135,47.8L135,47.8z M130.5,48.7c-0.5,0.4-1,0.8-1.6,1.2c-0.4,0.3-0.8,0.6-1.3,0.8
			c-1.1,0.5-2.3,0.9-3.5,1.2c0,0,0,0-0.1,0c0.2-0.3,0.3-0.6,0.4-0.9c0-0.1-0.1-0.1-0.1,0c-0.2,0.4-0.6,0.8-0.9,1.2
			c-0.4,0.1-0.9,0.2-1.3,0.3c0.3-0.2,0.6-0.4,0.9-0.7c0.5-0.4,0.8-1,1.1-1.6c0.3-0.3,0.5-0.7,0.7-1.2c0.1-0.2,0.2-0.4,0.3-0.6
			c0.3-0.7,0.3-1.4,0.4-2.1c0-0.3,0.1-0.7,0.1-1c0-0.1,0-0.1,0-0.2c0,0,0,0.1,0,0.1c0.1,0.2,0.2,0.5,0.3,0.8c0,0,0.1,0,0.1,0
			c0.1-0.2,0.1-0.4,0.1-0.6c0.1,0.1,0.2,0.1,0.2,0.2c0,0.2,0.1,0.4,0.1,0.6c0.1,0.4,0.1,0.7,0.1,1.2c0,0,0.1,0,0.1,0
			c0.1-0.4,0.3-0.9,0.3-1.4c0.1,0.1,0.2,0.2,0.3,0.2c0,0.1,0,0.1,0,0.2c0,0.2,0,0.4,0,0.6c0,0.1,0.1,0.2,0.2,0.1
			c0.1-0.2,0.1-0.4,0.2-0.6c0,0,0,0,0-0.1c0.3,0.2,0.6,0.4,0.9,0.6c0.8,0.5,1.8,1,2.7,1.4C131,48.4,130.7,48.6,130.5,48.7
			L130.5,48.7z M114.5,51.5c0,0-0.1-0.1-0.1-0.1c0,0,0.1-0.1,0.1-0.1c0.2,0.2,0.5,0.3,0.8,0.5c0,0,0,0,0,0.1
			C115,51.8,114.8,51.6,114.5,51.5L114.5,51.5z M112.6,49.3c0,0,0.1,0,0.1-0.1c0.1,0.3,0.3,0.5,0.4,0.7c0,0-0.1,0.1-0.1,0.1
			C112.9,49.9,112.7,49.6,112.6,49.3L112.6,49.3z M112.9,48.4c0-0.1,0-0.1-0.1-0.2c0.1,0,0.1,0,0.2,0c0.1,0.2,0.1,0.3,0.2,0.4
			c-0.1,0-0.1,0.1-0.2,0.1C113,48.6,112.9,48.5,112.9,48.4L112.9,48.4z M122.8,46.2c0,0-0.1,0-0.1,0c0-0.1,0-0.3,0-0.4
			c0,0,0-0.1,0-0.1c0,0,0.1,0,0.1,0C122.8,45.9,122.8,46,122.8,46.2L122.8,46.2z M122,46.1c0-0.1,0-0.2,0-0.2c0,0,0.1,0,0.1,0
			c0,0,0.1,0,0.1,0c0,0.1,0,0.2,0.1,0.3C122.2,46.1,122.1,46.1,122,46.1L122,46.1z M116.8,50.2c0,0-0.1,0-0.1-0.1l0,0
			c0.1,0,0.1,0.1,0.2,0.1v0C116.9,50.2,116.8,50.2,116.8,50.2z M115.1,49.1c0.1,0.1,0.3,0.3,0.4,0.4c0,0,0,0.1-0.1,0.1
			c-0.2-0.1-0.4-0.2-0.5-0.3C115,49.2,115.1,49.1,115.1,49.1L115.1,49.1z M113.6,47.6c-0.1-0.3-0.1-0.7-0.2-1.1c0.1,0,0.1,0,0.2,0
			c0.1,0.3,0.2,0.6,0.3,0.9C113.8,47.5,113.7,47.5,113.6,47.6C113.7,47.6,113.6,47.6,113.6,47.6L113.6,47.6z M114.1,46
			c0-0.1,0-0.2,0.1-0.3c0,0,0.1,0,0.1,0c0,0.1,0,0.2-0.1,0.3C114.2,46,114.1,46,114.1,46z M116.5,48.7L116.5,48.7
			c-0.1,0-0.1,0-0.1,0c0,0,0,0,0,0c0,0,0,0-0.1,0l0,0c-0.1-0.1-0.2-0.1-0.2-0.2c0,0,0-0.1,0-0.1v0c0-0.1,0-0.1,0-0.2
			c0,0,0-0.1,0-0.1v0v0c0,0,0,0,0-0.1c0,0,0,0,0,0c0,0,0-0.1,0.1-0.1c0,0,0,0,0,0c0,0,0,0,0,0c0,0,0.1-0.1,0.1-0.1c0,0,0,0,0,0
			c0,0,0.1-0.1,0.2-0.1l0,0h0c0.1,0,0.1,0,0.2,0h0c0.4,0,0.7,0.3,0.7,0.7c0,0,0,0.1,0,0.1c0,0,0,0,0,0.1c0,0,0,0,0,0.1s0,0,0,0.1
			c0,0,0,0,0,0c0,0-0.1,0.1-0.1,0.1c0,0,0,0,0,0c0,0-0.1,0.1-0.1,0.1c0,0,0,0,0,0c0,0-0.1,0-0.1,0.1c0,0,0,0-0.1,0l0,0
			c-0.1,0-0.1,0-0.2,0C116.6,48.7,116.6,48.7,116.5,48.7L116.5,48.7z M113.5,45.8c0,0.1,0,0.1,0,0.2h0
			C113.5,45.9,113.5,45.8,113.5,45.8z M115.8,48.5c0.1,0.1,0.2,0.1,0.2,0.2c-0.1,0.1-0.2,0.2-0.3,0.4c-0.1-0.1-0.2-0.2-0.3-0.3
			C115.6,48.7,115.7,48.6,115.8,48.5L115.8,48.5z M116.5,49.2c0,0.1-0.1,0.2-0.1,0.3c0,0-0.1,0-0.1-0.1
			C116.3,49.3,116.4,49.3,116.5,49.2L116.5,49.2z M116.9,49.6c0-0.1,0.1-0.2,0.1-0.3h0c0,0.1-0.1,0.2-0.1,0.3
			C117,49.6,117,49.6,116.9,49.6L116.9,49.6z M117.6,49.4c0.1,0,0.1,0,0.2,0c0.1,0,0.2,0,0.3,0c-0.2,0-0.3,0-0.5,0
			C117.6,49.5,117.6,49.5,117.6,49.4z M114.1,46.6c0,0,0.1,0,0.1,0c0,0.3,0,0.5,0.1,0.8c-0.1,0-0.1,0-0.2,0
			C114.1,47.2,114.1,46.9,114.1,46.6L114.1,46.6z M114.7,46.7c0.1,0.2,0.1,0.3,0.2,0.4c0,0,0,0,0,0c-0.1,0-0.1,0-0.2,0
			C114.7,47.1,114.7,46.9,114.7,46.7z M115.2,48.1C115.1,48.2,115.1,48.2,115.2,48.1L115.2,48.1C115.1,48.2,115.2,48.1,115.2,48.1z
			 M115.9,49.8c0.1,0,0.1,0.1,0.2,0.1C116.1,49.9,116,49.8,115.9,49.8C115.9,49.8,115.9,49.8,115.9,49.8z M117.5,49.8
			c0.7,0,1.6-0.2,2.1-0.7c0,0,0,0,0-0.1c0.2-0.1,0.4-0.3,0.5-0.4c-0.1,0.1-0.2,0.2-0.3,0.3l0,0c0.5-0.3,0.9-0.5,1.2-1
			c0.2-0.3,0.3-0.7,0.3-1.2c-0.1,0-0.1,0.1-0.2,0.1c0,0-0.1,0-0.1,0.1c0,0-0.1,0-0.1,0c-0.1,0-0.1,0-0.2,0.1c0,0-0.1,0-0.1,0
			c0,0-0.1,0-0.1,0c-0.1,0-0.1,0-0.2,0c0,0-0.1,0-0.1,0c-0.2,0-0.3-0.1-0.5-0.1c-0.2,0-0.4-0.1-0.5-0.3c0,0,0,0,0,0
			c-0.1-0.1-0.2-0.2-0.3-0.3c-0.2-0.2-0.3-0.5-0.3-0.7c0-0.2,0.1-0.2,0.2-0.3c0-0.2,0.1-0.4,0.2-0.7c0,0,0,0,0-0.1
			c0-0.1,0.1-0.2,0.1-0.2c0,0,0,0,0.1-0.1c0.1-0.1,0.1-0.1,0.2-0.2c0,0,0-0.1,0.1-0.1c0.1,0,0.1-0.1,0.2-0.1h0c0.1,0,0.1,0,0.2-0.1
			c0.1,0,0.1,0,0.2,0c0.1,0,0.1,0,0.2,0c0,0,0.1,0,0.1,0c0.1,0,0.1,0,0.2,0s0.1,0,0.1,0h0c0.1,0,0.1,0.1,0.2,0.1c0,0,0.1,0,0.1,0
			c0.1,0,0.2,0.1,0.2,0.1c0.1,0.1,0.3,0.2,0.4,0.3c0,0,0.1,0.1,0.1,0.1l0,0c0,0.1,0.1,0.1,0.1,0.2c0,0.1,0,0.1,0.1,0.2
			c0,0.1,0.1,0.1,0.1,0.2c0,0,0,0-0.1,0c0,0.1,0,0.3,0,0.4c0,0,0,0,0,0c0,0.2,0,0.3-0.1,0.4c0,0.1-0.1,0.1-0.1,0.2
			c0,0,0,0.1-0.1,0.1c0,0.1-0.1,0.1-0.1,0.2h0c0,0.8-0.3,1.6-0.9,2.1C119.9,49.5,118.7,50.1,117.5,49.8
			C117.5,49.9,117.5,49.8,117.5,49.8L117.5,49.8z M122.5,45.1c0-0.1,0-0.3,0-0.4c0,0.1,0.1,0.2,0.1,0.4
			C122.6,45.1,122.6,45.1,122.5,45.1z M112.1,45.7C112.1,45.8,112.1,45.8,112.1,45.7L112.1,45.7C112.1,45.8,112.1,45.8,112.1,45.7z
			 M114.3,47.9c0,0,0.1,0,0.1,0c0,0,0,0.1,0,0.1c0,0-0.1,0-0.1,0c-0.1,0-0.1,0.1-0.2,0.1c0,0-0.1-0.1-0.1-0.1
			C114.2,48,114.2,47.9,114.3,47.9L114.3,47.9z M114.5,48.5c0.1,0,0.1-0.1,0.2-0.1c0,0.1,0.1,0.1,0.1,0.2c-0.1,0.1-0.1,0.1-0.2,0.2
			C114.5,48.6,114.5,48.6,114.5,48.5C114.4,48.5,114.4,48.5,114.5,48.5L114.5,48.5z M115.3,49.8C115.2,49.9,115.2,49.9,115.3,49.8
			c0,0.1,0,0.1-0.1,0.1c-0.2-0.1-0.3-0.3-0.4-0.4C114.9,49.7,115.1,49.8,115.3,49.8L115.3,49.8z M115.7,50c0.1,0.1,0.3,0.1,0.4,0.2
			c0,0.1-0.1,0.1-0.1,0.2c-0.1-0.1-0.3-0.2-0.4-0.3C115.6,50.1,115.6,50.1,115.7,50L115.7,50z M116.5,50.4c0.1,0,0.1,0,0.2,0.1
			c0.1,0,0.1,0,0.1,0.1c0,0.1,0,0.1,0,0.2c-0.1,0-0.3-0.1-0.4-0.1C116.4,50.6,116.5,50.5,116.5,50.4L116.5,50.4z M117.2,50.9
			c0-0.1,0-0.1,0.1-0.2c0.3,0,0.6,0,0.9,0.1c0.1,0,0.1-0.1,0-0.1c-0.3-0.1-0.6-0.2-0.9-0.2v0c1.3,0.3,2.7-0.4,3.7-1.3
			c0.7-0.6,1-1.6,1-2.4c0.1,0,0.2,0,0.3,0c0,0,0,0.1,0,0.1c0,0.2-0.1,0.5-0.1,0.7c0,0,0,0,0.1,0c0.3-0.1,0.4-0.5,0.4-0.9
			c0,0,0.1,0,0.1,0c-0.1,1-0.5,2.1-1.3,2.8C120.4,50.4,118.8,51.2,117.2,50.9C117.2,50.9,117.2,50.9,117.2,50.9z M112,47.2
			c0-0.2,0-0.4,0-0.5c0-0.1,0-0.2,0-0.3h0c0,0.5,0,1,0.1,1.6h0C112.2,47.6,112.1,47.4,112,47.2L112,47.2z M112.6,46.4
			C112.6,46.4,112.6,46.4,112.6,46.4c0.1,0.5,0.1,0.9,0.2,1.3c0,0-0.1,0-0.1,0C112.6,47.3,112.6,46.8,112.6,46.4L112.6,46.4z
			 M113.5,48.5c0,0,0-0.1,0-0.1C113.5,48.4,113.5,48.4,113.5,48.5C113.5,48.5,113.5,48.5,113.5,48.5
			C113.5,48.5,113.5,48.5,113.5,48.5z M113.8,48.1L113.8,48.1c0,0.1,0.1,0.1,0.1,0.2c0,0,0,0,0,0C113.8,48.2,113.8,48.1,113.8,48.1
			L113.8,48.1z M114.1,48.6c0.1,0.1,0.1,0.2,0.2,0.3c0,0,0,0,0,0C114.2,48.9,114.1,48.7,114.1,48.6
			C114.1,48.6,114.1,48.6,114.1,48.6z M114.3,49.7L114.3,49.7c0.2,0.2,0.4,0.3,0.6,0.5c0,0,0,0.1-0.1,0.1c-0.2-0.1-0.3-0.2-0.5-0.4
			C114.3,49.8,114.3,49.8,114.3,49.7C114.2,49.8,114.3,49.7,114.3,49.7L114.3,49.7z M115.3,50.5c0.2,0.1,0.4,0.2,0.5,0.3
			c0,0,0,0.1,0,0.1c-0.1-0.1-0.3-0.1-0.4-0.2C115.3,50.6,115.3,50.5,115.3,50.5C115.2,50.5,115.2,50.5,115.3,50.5L115.3,50.5z
			 M116.2,51c0.2,0.1,0.3,0.1,0.5,0.2c0,0,0,0.1,0,0.1C116.5,51.2,116.3,51.1,116.2,51C116.1,51,116.2,51,116.2,51L116.2,51z
			 M116.6,51.7c0,0,0,0.1,0,0.1c-0.2-0.1-0.5-0.2-0.7-0.3c0,0,0,0,0-0.1C116.1,51.6,116.3,51.7,116.6,51.7z M116.9,51.8
			c0.2,0,0.5,0,0.7,0c0,0,0-0.1,0-0.1c-0.2-0.1-0.4-0.1-0.6-0.2c0-0.1,0-0.1,0-0.2c1.7,0.4,3.6-0.5,4.8-1.7c0.8-0.8,1.3-1.9,1.4-3
			c0,0.8-0.2,1.8-0.6,2.5c0,0,0,0,0,0c0.6-0.7,0.9-1.5,1-2.4c-0.1,1.3-0.6,2.5-1.5,3.4c-1.4,1.3-3.4,2.2-5.3,1.8
			C116.9,51.9,116.9,51.8,116.9,51.8L116.9,51.8z M112.4,48.7c0-0.1-0.1-0.3-0.1-0.4c0,0,0,0,0.1,0
			C112.4,48.4,112.4,48.5,112.4,48.7c0.1,0.1,0.2,0.2,0.2,0.4c0,0-0.1,0-0.1,0.1C112.5,48.9,112.4,48.8,112.4,48.7L112.4,48.7z
			 M113.2,49.1c0.1,0,0.2-0.1,0.3-0.1c0,0.1,0.1,0.1,0.1,0.2c0,0,0.1,0,0,0c0-0.1-0.1-0.1-0.1-0.2c0,0,0.1,0,0.1-0.1
			c0.1,0.1,0.2,0.3,0.3,0.4c-0.1,0.1-0.1,0.1-0.2,0.2c0,0,0,0-0.1,0c-0.2-0.1-0.3,0.1-0.2,0.3l0,0C113.4,49.5,113.3,49.3,113.2,49.1
			L113.2,49.1z M113.9,50.1c0.2,0.2,0.4,0.4,0.7,0.6c0,0,0,0,0,0.1C114.3,50.5,114.1,50.3,113.9,50.1
			C113.9,50.1,113.9,50.1,113.9,50.1z M114.9,50.9c0.2,0.1,0.4,0.3,0.6,0.4c0,0,0,0,0,0.1C115.2,51.2,115,51.1,114.9,50.9
			C114.8,50.9,114.8,50.9,114.9,50.9z M115.6,52c0.3,0.1,0.6,0.2,0.8,0.3l0,0C116.1,52.2,115.8,52.1,115.6,52L115.6,52z M116.7,52.3
			c0,0,0.1,0,0.1,0C116.8,52.4,116.7,52.3,116.7,52.3L116.7,52.3z M117.8,52.5c-0.2,0-0.4,0-0.6-0.1c-0.1,0-0.1,0-0.2,0
			c2,0.3,4.1-0.6,5.5-2c0.3-0.3,0.6-0.7,0.8-1.1c-0.2,0.5-0.5,1-0.8,1.5C121.4,52.3,119.6,52.5,117.8,52.5z M113.3,50.5
			C113.3,50.5,113.3,50.5,113.3,50.5C113.3,50.5,113.3,50.5,113.3,50.5c0.1-0.1,0.1-0.1,0.2-0.1c0.2,0.3,0.5,0.5,0.7,0.7
			c0,0.1-0.1,0.1-0.1,0.2c-0.2-0.1-0.4-0.3-0.6-0.4C113.5,50.7,113.4,50.6,113.3,50.5z M130.2,45.8c0.7,0.4,1.4,0.9,2,1.4
			c-0.4-0.2-0.9-0.4-1.3-0.6c-1.2-0.7-2.3-1.5-3.6-2.2c-0.5-0.3-1.1-0.5-1.7-0.7c-0.4-0.2-0.7-0.4-1.2-0.6c-0.3-0.1-0.5-0.3-0.8-0.4
			c0.8,0.3,1.7,0.6,2.5,1C127.5,44.2,128.8,45,130.2,45.8L130.2,45.8z M105.7,51.6c-0.2,0-0.3,0-0.5,0c0,0,0-0.1-0.1-0.1
			c-0.3-0.1-0.5-0.1-0.8-0.2c-0.1,0-0.1,0.1,0,0.1c0.2,0.1,0.4,0.2,0.6,0.2c-0.3,0.1-0.7,0.2-1,0.2c-0.5,0.1-1.2,0.1-1.7-0.1
			c0,0-0.1,0-0.1-0.1c0,0-0.1-0.1-0.1-0.1c-0.1-0.2-0.1-0.4,0-0.5c0.1-0.1,0.3-0.2,0.4-0.2c0.2-0.1,0.5-0.2,0.7-0.3c0,0,0,0,0.1,0
			c0,0.2,0.1,0.4,0.3,0.6c0,0,0.1,0,0,0c-0.1-0.2-0.1-0.4-0.1-0.6c0,0,0.1,0,0.1-0.1c0.1,0.3,0.3,0.7,0.5,0.8c0.1,0.1,0.2,0,0.1-0.1
			c-0.1-0.2-0.2-0.3-0.2-0.5c0-0.1,0-0.2,0-0.3c0,0,0.1,0,0.1-0.1c0,0,0,0.1,0,0.1c0,0.1,0.1,0.4,0.2,0.5c0.5,0.6,1.2,0.8,1.9,0.9
			C106,51.6,105.9,51.6,105.7,51.6L105.7,51.6z M107.9,51.5c-0.6-0.1-1.3-0.2-1.9-0.3c-0.3-0.1-0.6-0.1-0.8-0.2
			c-0.1,0-0.2-0.1-0.3-0.1c-0.1-0.3-0.2-0.6-0.2-0.9c1.2-0.4,2.4-1.1,3.4-1.8c0.3-0.2,0.6-0.4,0.9-0.6l0,0c0,0,0,0,0,0
			c0.1,0.5,0.3,0.8,0.6,1.2c0,0.1,0.1,0,0.1-0.1c-0.1-0.4-0.2-0.8-0.2-1.2c0-0.1,0-0.2,0-0.3c0.1-0.1,0.2-0.1,0.2-0.2
			c0.1,0.3,0.1,0.6,0.3,0.9c0,0,0.1,0,0.1,0c0-0.3-0.1-0.7-0.1-1.1c0.1-0.1,0.2-0.2,0.3-0.2c0,0.1,0,0.3,0,0.4c0,0.2,0.2,0.2,0.2,0
			c0-0.2,0.1-0.4,0.1-0.6c0.1-0.1,0.2-0.2,0.4-0.2c0,0.2,0,0.4,0,0.6c0,0.6,0.1,1.5,0.5,2.2c0.1,0.3,0.2,0.5,0.3,0.8
			c0,0.1,0.1,0.1,0.1,0.2c0.2,0.5,0.5,0.9,0.9,1.4c0.4,0.5,0.9,1,1.6,1.4c-1-0.2-2.1-0.4-3.1-0.6C110.2,51.8,109,51.6,107.9,51.5
			L107.9,51.5z"/>
		<path d="M130.2,52.1c-0.8,0.5-1.6,1-2.5,1.5c-0.5,0.2-1,0.4-1.5,0.6c-0.4,0.2-0.9,0.2-1.4,0.4c0,0,0,0.1,0,0
			c0.5-0.1,1-0.1,1.5-0.2c0.5-0.1,1.1-0.2,1.6-0.4c0.9-0.3,1.9-0.8,2.6-1.5C130.7,52.2,130.4,51.9,130.2,52.1L130.2,52.1z"/>
		<path d="M131.1,51.8c-0.1,0.1,0,0.2,0.1,0.1c0.2-0.2,0.4-0.3,0.6-0.5c0.1-0.1,0-0.2-0.2-0.2C131.4,51.4,131.2,51.6,131.1,51.8
			L131.1,51.8z"/>
		<path d="M134.7,49.3c0.1-0.1,0-0.3-0.1-0.3c-0.5,0-1.1,0.5-1.5,0.8c-0.3,0.3-0.8,0.6-0.9,1c0,0.1,0.1,0.1,0.1,0.1
			c0.3-0.3,0.7-0.5,1.1-0.7c0.2-0.1,0.4-0.3,0.6-0.4C134.3,49.6,134.5,49.5,134.7,49.3L134.7,49.3z"/>
		<path d="M114,41.6c0.5-0.2,1.2-0.3,1.7-0.4c0.1,0,0.1-0.2,0-0.2C115.1,41.1,114.5,41.2,114,41.6C113.9,41.5,114,41.6,114,41.6
			L114,41.6z"/>
		<path d="M117.6,40.3c-0.8,0-1.6,0-2.3,0.4c-0.1,0,0,0.2,0.1,0.1c0.7-0.3,1.5-0.2,2.3-0.3C117.8,40.5,117.8,40.3,117.6,40.3
			L117.6,40.3z"/>
		<path d="M131.6,44C131.5,44,131.5,44.1,131.6,44c0.2,0.6,0.6,1,0.9,1.5c0.4,0.4,0.8,0.8,1.1,1.4c0.3,0.5,1.1,0,0.7-0.5
			c-0.3-0.4-0.8-0.7-1.2-1.1C132.6,44.8,132.1,44.4,131.6,44z"/>
		<path d="M121.8,48.5c0.2,0,0.4-0.3,0.5-0.5c0-0.1-0.1-0.2-0.2-0.1c-0.1,0.1-0.1,0.1-0.2,0.2c0,0-0.1,0.1-0.1,0.1
			c0,0,0,0.1-0.1,0.1C121.7,48.5,121.7,48.5,121.8,48.5z"/>
		<path d="M120.8,49.7c0.1,0,0.2-0.1,0.2-0.1c0.1-0.1,0.2-0.2,0.3-0.2c0.1-0.1,0.2-0.2,0.3-0.3c0.1-0.1,0.2-0.1,0.2-0.2
			c0-0.1,0-0.1-0.1-0.1c-0.2,0-0.4,0.2-0.5,0.3c-0.1,0.1-0.1,0.2-0.2,0.3C120.9,49.4,120.8,49.5,120.8,49.7
			C120.8,49.6,120.8,49.7,120.8,49.7L120.8,49.7z"/>
		<path d="M121.4,50.5c0.4-0.3,0.8-0.5,1.1-0.9c0.1-0.1-0.1-0.2-0.1-0.1c-0.3,0.3-0.7,0.6-1,0.9C121.3,50.5,121.3,50.6,121.4,50.5
			L121.4,50.5z"/>
		<path d="M118.3,51.8c0.9,0,1.6-0.4,2.4-0.9c0,0,0-0.1,0,0c-0.4,0.2-0.8,0.3-1.2,0.4s-0.8,0.1-1.3,0.3
			C118.2,51.6,118.2,51.8,118.3,51.8z"/>
		<path d="M118.8,50.6c0.4-0.1,0.8-0.3,1.2-0.6c0,0,0,0,0,0c-0.4,0.2-0.8,0.4-1.3,0.5C118.6,50.4,118.7,50.6,118.8,50.6z"/>
		<path d="M111.3,54.3c0.1,0,0.1-0.1,0-0.1c-0.7-0.2-1.4-0.6-2.1-0.9c-0.6-0.2-1.3-0.3-1.9-0.1c-0.1,0-0.1,0.3,0,0.3
			c0.7,0.1,1.3,0.1,2,0.3C109.9,54,110.6,54.1,111.3,54.3L111.3,54.3z"/>
		<path d="M102.9,46.4c0.4-0.3,0.8-0.7,1.2-1.1c0.4-0.6,0.9-1,1.4-1.6c0.1-0.1-0.1-0.3-0.2-0.2c-0.4,0.4-0.8,0.8-1.2,1.2
			C103.7,45.3,103.3,45.8,102.9,46.4C102.8,46.4,102.9,46.4,102.9,46.4L102.9,46.4z"/>
		<path d="M103.7,44.6c0.4-0.3,0.7-0.7,1-1c0.4-0.4,0.8-0.8,1.3-1.2c0.1-0.1-0.1-0.3-0.2-0.2c-0.4,0.3-0.8,0.7-1.2,1
			C104.3,43.7,104,44.2,103.7,44.6C103.6,44.6,103.7,44.6,103.7,44.6L103.7,44.6z"/>
		<path d="M130.9,54.5c-0.6,0.5-1.2,1.1-1.9,1.5c-0.7,0.4-1.4,0.7-2.1,1.2c0,0,0,0.1,0,0.1c0.8-0.3,1.6-0.4,2.3-0.8
			c0.7-0.4,1.5-0.9,2.1-1.5C131.5,54.6,131.1,54.3,130.9,54.5L130.9,54.5z"/>
		<path d="M134.1,51.2c-0.5,0.4-0.7,1.1-1.1,1.6c-0.4,0.4-1,0.8-1.2,1.3c-0.1,0.2,0.1,0.3,0.3,0.3c0.5-0.2,0.9-0.8,1.2-1.2
			C133.6,52.6,133.9,51.9,134.1,51.2C134.2,51.2,134.2,51.2,134.1,51.2L134.1,51.2z"/>
		<path d="M131.7,50.4c-0.2,0.1-0.4,0.2-0.6,0.4c-0.2,0.1-0.4,0.3-0.5,0.4c-0.1,0.1,0,0.2,0.1,0.2c0.2,0,0.4-0.2,0.5-0.4
			C131.3,50.8,131.5,50.6,131.7,50.4C131.7,50.4,131.7,50.4,131.7,50.4L131.7,50.4z"/>
		<path d="M133.1,49.1c-0.4,0.1-0.6,0.5-0.9,0.8c0,0,0,0.1,0.1,0.1c0.3-0.2,0.7-0.3,1-0.6C133.3,49.2,133.2,49.1,133.1,49.1
			L133.1,49.1z"/>
		<path d="M124.2,54.8L124.2,54.8z"/>
		<path d="M124.2,54.8C124.2,54.8,124.2,54.8,124.2,54.8C124.2,54.8,124.2,54.8,124.2,54.8L124.2,54.8L124.2,54.8
			c0.1,0,0.1-0.1,0.1-0.2c0,0,0-0.1-0.1-0.1c-0.1,0-0.1-0.1-0.2,0c-0.1,0-0.1,0.1-0.1,0.1c0,0.1,0,0.1,0.1,0.2
			C124,54.8,124.1,54.8,124.2,54.8L124.2,54.8z"/>
		<path d="M108.7,40.7c-0.8,0.6-1.6,1.3-2.3,2l0,0c2.1-1.3,4.1-2.7,6.4-3.7c2.2-0.9,4.6-1,7-1c1.2,0,2.5,0.1,3.7,0.3
			c1.3,0.3,2.3,0.6,3.5,1c1.5,0.6,2.5,1.5,3.1,1.9c0.8,0.7,1.5,1.5,2.2,2.3c0.1,0.1,0.2,0.3,0.3,0.5c0,0.1,0.1,0.1,0.1,0.2
			c0,0.1,0.1,0.1,0.1,0.2c0.1,0.1,0.1,0.2,0.2,0.2c0.1,0,0.1,0.1,0.2,0.1c0.1,0,0.1,0.1,0.2,0.1c0.2,0.1,0.4,0,0.5-0.2
			c0-0.1,0.1-0.1,0.1-0.2c0-0.2,0-0.3-0.1-0.4c-1.3-1.7-2.8-3.5-4.7-4.6c-1-0.6-2.1-1-3.2-1.4c-1.2-0.4-2.4-0.6-3.7-0.8
			c-1.2-0.1-2.4-0.1-3.5-0.1c-1.2,0-2.3,0.1-3.5,0.4C112.8,38.2,110.6,39.3,108.7,40.7L108.7,40.7z"/>
		<path d="M122.5,40.5c0.7,0.2,1.4,0.3,2.1,0.4c0.8,0.2,1.6,0.4,2.3,0.8c1.3,0.7,2.6,1.3,3.8,2.1c0.1,0,0.1,0,0.1-0.1
			c-1-1.1-2.4-1.8-3.7-2.4c-1.4-0.7-3-1.1-4.6-1.1C122.4,40.2,122.3,40.5,122.5,40.5z"/>
		<path d="M121.8,40.2c0.1,0,0.1-0.2,0-0.2c-0.3,0-0.6,0-0.9,0.1c-0.1,0-0.1,0.1,0,0.1C121.2,40.2,121.5,40.2,121.8,40.2z"/>
		<path d="M130.8,42.5c-0.3-0.2-0.6-0.5-1-0.7c-0.7-0.5-1.5-0.9-2.2-1.3c-1.5-0.7-3-1.1-4.6-1c0,0,0,0.1,0,0.1
			c1.6,0.1,3.1,0.6,4.5,1.4c0.7,0.4,1.3,0.8,1.9,1.2c0.3,0.2,0.7,0.5,1,0.8c0.2,0.2,0.5,0.4,0.8,0.5c0.1,0,0.2-0.1,0.2-0.3
			C131.4,42.9,131.1,42.7,130.8,42.5L130.8,42.5z"/>
		<path d="M126.6,52.1c-0.3,0.1-0.5,0.2-0.8,0.4c-0.3,0.1-0.5,0.2-0.7,0.4c0,0,0,0.1,0,0.1c0.5-0.1,1.2-0.2,1.7-0.5
			C126.9,52.3,126.9,52,126.6,52.1L126.6,52.1z"/>
		<path d="M133.8,43.6c0.1,0.1,0.2,0,0.2-0.1c-0.7-1.8-2.2-3.2-3.7-4.3c-0.2-0.1-0.4,0.1-0.2,0.2C131.4,40.8,132.8,42.1,133.8,43.6
			L133.8,43.6z"/>
		<path d="M128.8,38.8c0,0,0.1,0,0.1,0c0.1,0,0.2,0.1,0.2,0.1l0,0c0-0.1-0.1-0.2-0.1-0.3c0,0-0.1-0.1-0.1-0.1c-0.1,0-0.1,0-0.2,0
			c-0.1,0-0.1,0.2,0,0.2C128.8,38.8,128.8,38.8,128.8,38.8L128.8,38.8z"/>
		<path d="M125.5,37.4c0.5,0.1,0.9,0.2,1.4,0.4c0.4,0.2,0.7,0.5,1.2,0.6c0.2,0.1,0.4-0.1,0.4-0.3c-0.1-0.4-0.6-0.6-1-0.7
			c-0.5-0.2-1-0.3-1.6-0.4c-0.4-0.1-2.2-0.5-2.5,0.1c0.3,0.1,0.6,0.1,0.9,0.1C124.6,37.2,125,37.3,125.5,37.4L125.5,37.4z"/>
		<path d="M107.7,53.8c-0.1,0-0.1,0.1,0,0.2c0.3,0.1,0.6,0.2,0.8,0.3c0,0,0.1,0,0.1,0C108.4,53.9,108.1,53.8,107.7,53.8L107.7,53.8z
			"/>
		<path d="M105,53.3c-0.2,0-0.2,0.4,0,0.4c0.4,0,0.9-0.2,1.4-0.1c0,0,0.1-0.1,0-0.1C106,53.1,105.5,53.2,105,53.3L105,53.3z"/>
		<path d="M103.6,53.4c-0.3,0-0.6-0.1-1-0.1c-0.2,0-0.3,0.3-0.1,0.3c0.3,0.1,0.7,0.1,1,0C103.8,53.6,103.8,53.4,103.6,53.4
			L103.6,53.4z"/>
		<path d="M112.8,56.2c-0.2-0.1-0.3-0.2-0.5-0.2c-0.2-0.1-0.4-0.1-0.6-0.1c-0.1,0-0.2,0.2-0.1,0.3c0.2,0.1,0.3,0.1,0.5,0.2
			c0.2,0,0.4,0.1,0.6,0.1C112.9,56.5,112.9,56.3,112.8,56.2L112.8,56.2z"/>
		<path d="M109.9,54.8c-0.2-0.1-0.4-0.2-0.6-0.4c-0.1-0.1-0.2-0.1-0.3,0c-0.1,0.1-0.1,0.2,0,0.3c0.2,0.2,0.5,0.4,0.8,0.4
			C110.1,55.1,110.1,54.8,109.9,54.8L109.9,54.8z"/>
		<path d="M134.6,49.8c-0.2,0.1-0.2,0.3-0.3,0.4c0,0.1-0.1,0.3-0.2,0.4c-0.1,0.3,0.2,0.5,0.4,0.2c0.1-0.1,0.1-0.3,0.2-0.4
			c0.1-0.2,0.2-0.3,0.2-0.4C135,49.8,134.8,49.7,134.6,49.8z"/>
		<path d="M134.4,45.7L134.4,45.7L134.4,45.7c0.1,0,0.1,0,0.2-0.1v0c0-0.1,0-0.1,0-0.2c0-0.1-0.1-0.2-0.2-0.3
			c-0.2,0-0.4,0.1-0.4,0.2s0.1,0.4,0.2,0.4C134.2,45.8,134.3,45.8,134.4,45.7L134.4,45.7z"/>
		<path d="M134.6,44.1c0.6,0.7,0.7,1.8,1,2.6c0,0,0.1,0,0.1,0c0.2-0.6,0-1.2-0.1-1.8c-0.1-0.5-0.2-1.1-0.6-1.3
			C134.6,43.5,134.4,43.9,134.6,44.1L134.6,44.1z"/>
		<path d="M134,42.9c0,0.2,0.2,0.3,0.3,0.3c0.2,0,0.3-0.2,0.3-0.3c0-0.2-0.2-0.3-0.3-0.3C134.2,42.5,134,42.7,134,42.9z"/>
		<path d="M132.8,41c0.2,0.2,0.3,0.4,0.5,0.7c0.2,0.2,0.3,0.6,0.5,0.7c0.2,0.1,0.4,0,0.4-0.2c0-0.5-0.6-1-1-1.4
			c-0.5-0.5-1-0.9-1.6-1.3c0,0-0.1,0,0,0C132,40,132.5,40.4,132.8,41L132.8,41z"/>
		<path d="M135.5,48.7c-0.5,0-0.5,0.8,0,0.8C136,49.5,136,48.7,135.5,48.7z"/>
		<path d="M135.7,47.9c0.5,0,0.5-0.8,0-0.8C135.2,47.1,135.2,47.9,135.7,47.9z"/>
		<path d="M125.7,57.4c-0.3,0-0.6,0.1-0.9,0.1c-0.4,0.1-0.8,0.2-1.2,0.2c-0.1,0-0.1,0.1,0,0.1c0.4,0.1,0.7,0,1.1,0
			c0.4,0,0.7,0,1.1-0.1C126,57.8,125.9,57.4,125.7,57.4L125.7,57.4z"/>
		<path d="M54.6,24.3c1.5,0.6,2.4,2.4,3.4,4.2C57.9,26.6,55.9,24.1,54.6,24.3z"/>
		<path d="M48.5,67c1-0.7,1.6-2.4,3-2.7c0.4-0.1,0.8,0.2,1.3,0c0-1.1-1.6-0.6-2.5,0C49.5,64.9,48.3,66.6,48.5,67z"/>
		<path d="M82.5,55.8c0.2,0,0.5,0.1,0.7,0.1c1.6,0.4,4.1,0.6,5.1-0.6l0.2-0.1l-0.2,0.4c-0.1,0.2,0,0.4,0.1,0.5c0.1,0,0.1,0,0.2,0
			c0.1,0,0.2-0.1,0.3-0.2l1-1.8c0.1-0.2,0-0.4-0.1-0.5c-0.2-0.1-0.4,0-0.5,0.1L88.7,55L88.5,55c0.1-0.2,0.1-0.3,0.2-0.5
			c0.1-0.6,0-1.1-0.3-1.5l2.1-0.6l0,0c0.1,0,0.1,0,0.2,0c0.1,0,0.2-0.1,0.3-0.2l1-1.8c0.1-0.2,0-0.4-0.1-0.5l0,0l0.1-0.2l-6.5,1.4
			c-0.2-0.1-0.5-0.2-0.7-0.2c-0.3-0.2-0.8-0.3-1.1-0.6c-0.4-0.3-0.7-0.6-1.1-0.8l9.9-1.2c-0.1,0.2,0,0.3,0.1,0.4c0.1,0,0.1,0,0.2,0
			c0.1,0,0.2-0.1,0.3-0.2l1-1.8c0.1-0.2,0-0.4-0.1-0.5l0,0l0.1-0.1l-8.1,0.7v0.2l7.5-0.5l-0.6,1l-10.9,1.5c-0.2-0.1-0.5-0.3-0.8-0.4
			c-0.6-0.2-1.3-0.1-1.7-0.3c-0.2-2,0.7-3.9,0.6-5.7c0-0.1,0-0.3,0-0.4l15.2,1l-0.5,0.9l-11.1,0.1v0.4l10.9,0.1
			c0,0.1,0.1,0.2,0.2,0.2c0.1,0,0.1,0,0.2,0c0.1,0,0.2-0.1,0.3-0.2l1-1.8c0.1-0.2,0-0.4-0.1-0.5c-0.2-0.1-0.4,0-0.5,0.1l-0.1,0.1
			L80,42.1c-0.2-1-0.7-1.9-1.3-2.6L96.4,42l0.3-0.5c0.1,0,0.1,0,0.2,0c0.1,0,0.2-0.1,0.3-0.2l1-1.8c0.1-0.2,0-0.4-0.1-0.5v0l0.1-0.2
			l-13.5-3.5l-0.1,0.4l12.9,3.5l-0.6,1l-10.6-1.9l0,0.2l10.5,2.1L96.5,41c0,0.1-0.1,0.2,0,0.3L78.1,39c-0.7-0.7-1.6-1.3-2.2-1.8
			c-2.3-1.9-5.3-4.1-7.5-6c0.8-0.3,1.7-0.4,2.5-0.6c1.1-0.3,2.3-0.7,3.4-1.1c1-0.4,2-1.1,3-1.7l21.7,9.2l-0.3,0.5
			c-0.1,0.1-0.1,0.2,0,0.3l-20-6.4l-0.1,0.2l20.1,6.9l0.2-0.4l0,0c0.1,0,0.1,0,0.2,0c0.1,0,0.2-0.1,0.3-0.2l1-1.8
			c0.1-0.2,0-0.4-0.1-0.5c-0.1-0.1-0.2-0.1-0.3,0l-10.8-5.1L89,30.6l10.7,5.2l-0.3,0.5l-21.6-8.8c1-0.6,2-1,3.1-1
			c0.4,0.1,0.9,0.3,1.3,0.3c2.2,0.4,4.9-0.3,7.4-1l11.4,7.7l-0.2,0.4c-0.1,0.1-0.1,0.2,0,0.3l-12.5-7l-0.2,0.3l12.6,7.3l0.3-0.5l0,0
			c0.1,0,0.1,0,0.2,0c0.1,0,0.2-0.1,0.3-0.2l1-1.8c0.1-0.2,0-0.4-0.1-0.5l0,0l0-0.1l-8.6-6.5c0.7,0.1,1.5,0.2,2.3,0.2l6.6,5.8
			l0.2-0.3l-6.5-5.5c0.7,0,1.5,0,2.3-0.1l4.4,4.4l-0.2,0.3c-0.1,0.2,0,0.4,0.1,0.5c0.1,0,0.1,0,0.2,0c0.1,0,0.2-0.1,0.3-0.2l1-1.8
			c0.1-0.2,0-0.4-0.1-0.5c-0.1,0-0.2-0.1-0.2,0l-3-3.3c0.4-0.1,0.8-0.3,1.3-0.5l2.4,3.1l0.3-0.5c0.1,0,0.1,0,0.2,0
			c0.1,0,0.2-0.1,0.3-0.2l1-1.8c0.1-0.2,0-0.4-0.1-0.5l0.3-0.5l-1.2-2c0.3-0.3,0.6-0.7,0.7-1l0.8,1.7l-0.1,0.2
			c-0.1,0.2,0,0.4,0.1,0.5c0.1,0,0.1,0,0.2,0c0.1,0,0.2-0.1,0.3-0.2l1-1.8c0.1-0.2,0-0.4-0.1-0.5l0.2-0.4l-0.4-0.9
			c0.1-0.2,0.1-0.5,0.1-0.8c0-0.2-0.1-0.2-0.3-0.2c-0.1,0-0.1,0-0.2,0L101.5,3l-0.3,0.1l6.2,15.4c-0.6,0-1.2,0-1.7,0L99.8,7
			l-0.2,0.1l5.6,11.4c-0.5,0-1.1-0.1-1.7-0.1l-2.4-4l-0.3,0.2l2.2,3.8c-0.7,0-1.5,0-2.3,0l-0.5-0.7l-0.1,0.1l0.4,0.6
			c-0.6-0.1-1.3-0.2-1.9-0.2l-7.3-9.3L91,9.1l6.8,9.1c-1,0-1.9-0.2-2.9-0.3l-4.3-4.8l-0.1,0.1l4,4.6c-0.7-0.1-1.5-0.1-2.2-0.1
			c-1.4,0-2.4,0.2-3.7,0c-1.5-0.1-3.5-0.2-5.2-0.3L83,17.1l-0.2,0.3c-0.3,0-0.6-0.1-0.9-0.1c-1-0.1-2-0.5-2.8-0.4
			c-1.1,0.1-2.4,0.9-3.5,1.3c-4.9,1.8-12.3,2.6-16.5,3.4c-2.2-1.6-4.4-2.5-7.8-0.9c-0.4,0.2-0.8,0.6-1.4,0.7c-0.4,0.1-1,0-1.6,0
			c-2.4,0.1-5.4,1.8-8.3,2.8c-3,1-5.7,1.7-8.2,2.2c-0.8,0.1-1.6,0.3-2.4,0.4c-1.7,0.2-3.3,0.6-4.9,0.9c-3,0.6-5.9,1-8.7,1.3
			c-0.5,0.1-1,0.2-1.5,0.3c-0.1-0.1-0.2-0.1-0.4,0c-0.1,0-0.2,0.1-0.3,0.1c-2.8,0.4-5.8,0.4-8.7,0.3c-1.6,0-3.2,0-4.9,0.1v0.2v0.1
			v0.7c4.3,0.1,8.5,0.2,9.6,0.2c0.7-0.1,1.5,0,2.2-0.1c-4.7,1.8-8.7,5.6-9.5,10.5c-0.5,3.1,0.5,6.1,2.1,8.7c0.9,1.4,2,2.6,3.1,3.7
			c0.2,0.2,0.4,0.4,0.6,0.5c-0.5-0.1-1-0.2-1.5-0.2C5.6,53.4,4.1,53.2,3,53c-1-0.2-2-0.4-3-0.6v0.7c0.7,0.1,1.4,0.2,2.1,0.4
			c0.8,0.2,4.1,0.6,5.8,0.9c0.8,0.3,1.6,0.6,2.4,1c0.3,0.1,0.5,0.1,0.8,0.2c3.6,1,7.5,2.2,11.6,0.7c0.4-0.2,0.9-0.5,1.3-0.5
			c0.7-0.1,2,0.9,2.7,1.2c1,0.4,1.9,0.9,2.7,1.3c1.4,0.5,3,0.8,4.6,1.1c4.8,0.9,10.1,0.1,15.4-0.3c-1.1,1.8-2.9,4.2-2.9,6.7
			c0,0.8,0.4,1.9,1,2.6c-0.6,1.4-0.7,3.4,0.9,3.6c0.3,0,0.5-0.3,0.7-0.5c0.3-0.5,0.6-1.1,0.9-1.6c0.2-0.3,0.4-0.6,0.6-0.8
			c0.6-0.5,1.1-1.5,1.5-2.2c0.6-0.8,1.3-2.1,2-2.5c0.5-0.3,1.4-0.4,2.1-0.6c1.8-0.5,4.6-0.7,6.3-2c0.7-0.5,1.2-1.5,1.6-2.2
			c0.6-0.8,1.3-1.5,1.7-2.2c0.5,0,1.1-0.3,1.6-0.2c-0.7,2.6-4.5,4.8-5,7.7c-0.2,1.3,0.2,2.7,0.9,3.7c-0.4,0.7-0.6,1.6-0.1,2.4
			c0.3,0.5,1,1,1.4,0.5c0.3-0.4,0.6-0.9,1.1-1.4c0,0,0,0,0.1,0c1.8-2.3,4.5-4.1,7-6.2c0.8-0.7,1.9-1.3,2.6-2.1
			c1.4-1.5,0.7-3.5,1.8-5.2C78.6,57,80.8,56.9,82.5,55.8L82.5,55.8z M84.5,51.9c0.9,1.3,0.6,3-1.3,3.5
			C84.1,54.4,84.8,53.4,84.5,51.9z M84.6,55.4c1.2-0.7,1.7-2.2,0.9-3.7c1,0.3,2.1,0.7,2.6,1.9C88.6,55,86.5,55.3,84.6,55.4z
			 M91.3,50.4L90.3,52l0,0L88,52.6c-0.5-0.5-1.2-0.9-2-1.2L91.3,50.4L91.3,50.4z M79.5,49.2c2.3,0.1,5.2,2.3,3.9,4.9
			c-1,1.9-4.4,2-6.1,2C77.9,53.8,79.3,51.7,79.5,49.2L79.5,49.2z M67.9,30.6c0.2,0,0.5,0,0.7-0.1c-0.2,0.1-0.4,0.1-0.6,0.2
			C68,30.7,67.9,30.7,67.9,30.6L67.9,30.6z M75.6,28.4c-1.2,0.6-2.5,1-3.8,1.5c-0.3,0.1-0.6,0.2-0.9,0.2c1.7-0.5,3.4-1.2,4.9-1.9
			c0.2-0.1,0.7-0.3,1.2-0.6l0,0.1h0C76.4,27.9,76,28.1,75.6,28.4L75.6,28.4z M77.3,27.4c0.1-0.1,0.3-0.1,0.4-0.2
			C77.6,27.2,77.4,27.3,77.3,27.4L77.3,27.4z M79.3,26.4c0.1,0,0.2-0.1,0.2-0.1c0,0,0.1,0,0.1,0C79.6,26.3,79.4,26.4,79.3,26.4z
			 M101.8,32.3l-0.4,0.7L90,25.7c0.6-0.2,1.2-0.3,1.7-0.5c0.3,0,0.5,0,0.8,0h0L101.8,32.3L101.8,32.3z M103.9,28.6l-0.4,0.7l-4.1-4
			c0.4-0.1,0.9-0.2,1.4-0.3L103.9,28.6L103.9,28.6z M105.1,26.5l-1.9-2.4c0.2-0.1,0.4-0.2,0.5-0.3c0.1,0,0.2-0.1,0.3-0.2l1.5,2.2
			L105.1,26.5L105.1,26.5z M106.5,24.6c-0.1,0-0.3,0-0.4,0.2l-0.5,0.8l-1.4-2c0.3-0.3,0.7-0.6,1.1-0.9L106.5,24.6z M108.2,21.1
			l-0.7,1.2l-0.8-1.6c0.5-0.1,0.9-0.3,1.3-0.5l0.3,0.8C108.3,21,108.2,21.1,108.2,21.1z M107.9,19.1c-0.2,0.4-0.7,0.7-1.3,1
			c-0.1-0.5-0.3-0.8-0.5-1C106.7,19.1,107.3,19.1,107.9,19.1L107.9,19.1z M99.8,19.3c0.7,0,1.8,0,2.9,0.1c1.2,0.1,2.6,0,3.2,0.6
			c0,0.1-0.1,0.2-0.1,0.3c-0.7,0.2-1.4,0.3-2.1,0.3C99.2,20.6,99.3,19.9,99.8,19.3L99.8,19.3z M65.6,21.1c2.1-0.5,6.6-0.9,8.8-1.7
			c1.3-0.4,2.5-1.4,3.9-1.8c0.7-0.2,2,0,3,0.2c0.8,0.1,1.7,0.2,2.4,0.2l0.1,0c0,0,0.1,0,0.1,0c0.1,0,0.2,0,0.3,0
			c2,0.2,5.1,0.6,7,0.4c0.3,0,0.6-0.2,0.8-0.2c0.6,0,1.2,0.3,1.9,0.3c1.5,0.1,3.2,0.2,4.7,0.3c0,0,0,0,0,0.1c0,0.4-0.1,0.6,0.1,1
			c0.1,0.3,0.4,0.6,0.8,0.7c0.1,0,0.1-0.1,0-0.1c-0.3-0.2-0.4-0.4-0.5-0.7c-0.1-0.3,0-0.5,0-0.8c0,0,0-0.1,0-0.1c0.2,0,0.4,0,0.6,0
			c-0.8,0.5,0.1,1.3,0.6,1.7c0.7,0.4,2.9,0.3,4.1,0.2c0.4,0,0.9,0,1.4-0.1c-2.1,3.6-8.7,4.1-12.6,3.9c0,0-0.1-0.1-0.1-0.1
			c-1.3-0.2-2.8,0.1-4,0.6c-2.3,0.4-4.8,1.1-6.6,0.8c-0.9-0.1-1.8-0.6-2.6-0.4c-0.8,0.2-1.8,0.8-2.5,1.2c-4.6,2.5-6.9,2.5-9.8,3.4
			c-2.8-2.4-5.6-5-8-8.3C61.4,21.8,63.5,21.7,65.6,21.1L65.6,21.1z M48.9,70.4c-0.1,0.2-0.2,0.4-0.3,0.6c-0.4,0.8-0.8,0.3-0.9-0.4
			c0-0.3,0-0.6,0.1-0.8c0-0.2,0.1-0.5,0.2-0.7c0.5,0.4,1,0.6,1.6,0.6C49.4,69.8,49.2,70.1,48.9,70.4z M66.6,56.6
			c0.4-0.6,0.9-1.2,1.5-1.8c-0.2,0.5-0.3,1.2-0.5,1.7C67.2,56.6,66.9,56.5,66.6,56.6z M64.1,71.3c-0.2,0.1-0.6-0.5-0.6-0.5
			c-0.2-0.5-0.1-1,0.1-1.6c0.4,0.4,0.9,0.7,1.5,0.9C64.6,70.7,64.1,71.2,64.1,71.3z M74.8,61.2c-0.6,0.8-1.7,1.5-2.6,2.2
			c-2.6,2.1-4.9,3.6-6.6,6.1c-0.6-0.2-1.1-0.5-1.5-1c0.4-0.5,0.8-0.9,1.1-1.3c0,0,0-0.1,0-0.1c0.8-0.7,1.6-1.7,3.1-2.1
			c0.5,0,0.9,0.3,1.4,0.2c-0.4-1.7-2.6-0.8-3.7,0.2c-0.2,0.2-0.5,0.5-0.7,0.8c-0.4,0.4-0.7,0.9-1,1.5c-0.2,0.1-0.3,0.3-0.5,0.4
			c-0.5-0.8-0.8-1.8-0.7-2.7c0.3-2.2,3-4,4.4-5.9c0.8-1.1,0.9-2.4,1.3-3.8c0.1-0.5,0.4-0.9,0.6-1.4c0.2-0.5,0.1-1.1,0.3-1.5
			c0.2-0.5,0.6-0.8,0.8-1.3c0.4-1.1,0.4-2.2,0.3-3.5c0-0.9,0.8-2.3,0.4-3.2c-0.3-0.8-1.6-1.5-2.3-2c-0.9-0.6-1.8-1.3-2.5-1.5
			c-1.4-1.9-3.4-3.8-4.6-6.3c-0.6-1.3-1-3-2.2-3.7c0.2,3.6,2.3,6.4,4.2,8.6c0.9,1.1,1.9,2.3,2.9,3.4c0.9,1,2.4,2.4,2.8,3.7
			c0.7,2,0,4.3-0.9,5.7c-0.9,1.4-2.1,2.5-3.2,4.2c-0.4,0.6-1,1.4-1.5,2.1c-0.5,0.7-1,1.8-1.5,2.2c-2,1.4-4.8,1.3-7.2,2.3
			c1.1-1,1.9-1.9,2.4-3c0.6-1.5,0.9-3.5,1.6-5.3c0.2-0.7,0.6-1.6,1-2.6c0.4-0.8,1.1-2.1,1-2.6c-0.1-0.4-0.6-1.1-0.9-1.7
			c-1-1.8-2.3-2.9-3.2-4.3c-1.4-2.1-2.8-4.8-3.8-7.1c-0.4-0.9-0.4-2.5-1.5-2.9c-0.5,0.9,0.2,2.5,0.8,3.7c1.4,2.9,3.2,6.1,4.9,8.5
			c0.4,0.5,0.9,0.9,1.2,1.4c0.6,1.1,0.8,2.9,0.7,4c-0.2,1.5-0.9,3.1-1.4,4.8c-0.5,1.6-0.6,3.7-1.2,4.7C56,62,54.8,63,53.7,64
			c-0.1-0.2-0.2-0.4-0.4-0.6c-0.4-0.4-1-0.4-1.5-0.2c0,0,0,0.1,0,0.1c0.5,0.1,1,0.1,1.3,0.5c0.1,0.1,0.2,0.3,0.2,0.5c0,0,0,0,0,0.1
			c0,0-0.1,0.1-0.1,0.1c0-0.1-0.1-0.2-0.1-0.2c-0.1-0.2-0.3-0.1-0.3,0.1c0,0.2,0.1,0.3,0.1,0.5c0,0,0,0.1-0.1,0.1
			c-0.5,0.6-1,1.1-1.6,1.9c-0.4,0.5-1,1.8-1.7,1.9c-0.4,0.1-0.8-0.2-1.3-0.5c0.1-0.2,0.1-0.4,0.2-0.6c0-0.2-0.1-0.4-0.3-0.2
			c-0.1,0.1-0.2,0.3-0.3,0.4c-0.2-0.3-0.4-0.5-0.5-0.8c-0.4-1.3,0.2-3.2,0.7-4.3c0.7-1.4,1.8-2.4,2.4-3.9c0.7-1.7,0.7-4,1.1-5.9
			c0.4-1.7,0.6-2.6-1-3.8c-1.3-0.9-2.6-1.9-3.7-2.6c-2.5-1.7-4.5-4.4-6-7.8c-0.6,1.3,0.3,3.1,1.3,4.5c-0.7-0.3-1.5-0.6-2.1-1
			c-1.2-0.7-2-1.9-3.2-2.7c0,0-0.1,0-0.1,0.1c1,1,1.8,2.2,2.9,3.1c0.9,0.8,2,1.5,3.2,1.9c-3-0.2-5.4-2.2-7.6-4.1
			c-0.5-0.4-1-1.1-1.7-0.9c1.5,2.6,3.7,3.8,5.7,5c-0.9,0-1.9,0.1-2.7,0.3c-1.3,0.3-2.3,1-3.5,1.6c-0.1,0,0,0.1,0,0.1
			c1.2,0,2.3-0.8,3.5-1.1c0.4-0.1,0.8-0.1,1.2-0.2c-4.6,1.6-8.7,4.5-13,4.6c-2,0-3.7-0.8-5.6-0.3c3.5,2.3,8.6,1.4,13.5-0.9
			c-1.1,0.9-2.2,1.8-3.4,2.5c-0.1,0.1,0,0.2,0.1,0.2c1.4-0.6,2.5-1.3,3.7-2.2c0.4-0.3,0.8-0.5,1.2-0.8c-1.7,1.5-3.2,3-5.1,4.3
			c-0.4,0.2-1,0.4-1.1,0.9c1.3,0.1,2.3-0.9,3.2-1.6c2.7-2,5.1-4.8,8.2-6.3c1.5-0.7,2.2-0.5,3.2-0.4c0.4,0,0.8-0.1,1.3,0
			c0,0.6,0,1.2,0,1.8c-0.1,0.8-0.5,1.4-0.7,2.1c0,0.1,0.1,0.1,0.1,0.1c0.4-0.6,0.7-1.2,0.9-1.9c0.1-0.5,0.1-1.1,0.1-1.7
			c0.7,1.4-0.3,2.7,0,3.9c0.9-0.5,1-1.9,1.1-3c2,1.4,4,2.6,5.9,4.2c-0.7,2.5-0.8,5.3-1.4,7.9c-4.2-0.8-8.8,0.5-13.1,0.1
			c-4.3-0.4-8.1-1.6-11.5-3.5c0.4-0.2,1.3-0.3,1.2-0.8c-1.6,0-3.2,0.9-4.8,1.2c-1.9,0.3-3.5,0.4-5.1,0.2c-0.8-0.1-1.7-0.1-2.4-0.2
			c-1.3-0.2-2.5-0.8-3.7-1.2c-4.1-3-7.3-8.1-6.6-13.2c0.4-3,2.2-5.3,4.5-7.1c1.2-0.9,2.4-1.8,3.8-2.4c1.4-0.6,2.9-0.7,4.3-1.5l0,0
			c0.1,0,0.3,0,0.4,0c3.4-0.4,6.9-1.1,10.5-2c4.8-1.3,9.7-1.7,14.4-3.5c1.8-0.6,3.6-1.8,5.5-2.2c1.4-0.3,3.2-0.3,4.4-0.1
			c0.6,0.1,1.3,0.7,2,0.4c-0.5-0.8-1.6-0.9-2.2-1.3c1.2-0.3,2.5-0.8,3.6-0.8c2.7,0,4.6,2.5,6.3,4.7c1.5,1.9,3.5,3.6,5.2,5
			c0.4,0.3,0.9,0.6,1.4,0.9c0,0.1,0.1,0.2,0.3,0.2c0.4,0.2,0.8,0.5,1.2,0.8c0.9,0.6,1.8,1.5,2.7,2.3c0.8,0.7,1.8,1.4,2.7,2.2
			c1.7,1.4,4.4,3.2,5,5.4c0.4,1.3-0.1,2.5-0.4,3.6c-0.2,0.8-0.2,1.6-0.3,2.4c-0.1,1.5-0.4,2.9-1,4.5c-0.5,1.3-1.2,2.8-1.7,4.3
			C75.6,58.3,75.7,60.1,74.8,61.2L74.8,61.2z M70.2,47c-0.9-1.4-1.8-3.1-2.9-4.1c0.4,0.4,2.6,1.4,2.9,2.3
			C70.5,45.8,70.1,46.2,70.2,47z M60.2,49.7c0.3,0.4,0.1,0.6,0,0.9C60.1,50.4,60,49.8,60.2,49.7z"/>
		<path d="M17.4,55.3c-1.5-0.2-2.8-0.8-4.2-1.2c-1.5-0.5-2.6-1.2-3.9-2.1c-0.3-0.2-0.6,0.2-0.3,0.4c1.1,1,2.2,1.7,3.7,2.1
			c1.6,0.4,3.1,1,4.8,0.9C17.5,55.4,17.5,55.3,17.4,55.3L17.4,55.3z"/>
		<path d="M8.2,50.9C8,51,7.9,51.2,7.9,51.4c0.1,0.2,0.3,0.3,0.5,0.2c0.2-0.1,0.3-0.3,0.2-0.5C8.6,50.9,8.4,50.8,8.2,50.9z"/>
		<path d="M7.9,50.1c-0.8-1-1.5-2-2.1-3.1c-0.9-1.8-1.1-3.5-0.9-5.4c0-0.1-0.1-0.1-0.1,0c-0.4,1.9-0.3,3.4,0.3,5.2
			C5.5,48,6.2,50,7.6,50.5C7.8,50.6,8.1,50.3,7.9,50.1z"/>
		<path d="M17.9,55.2c1.1,0.5,3-0.2,4.2-0.5c1.7-0.4,3.6-0.9,5-1.9c0.3-0.2,0-0.7-0.3-0.5C24,53.6,21,54.5,17.9,55
			C17.8,55,17.8,55.1,17.9,55.2L17.9,55.2z"/>
		<path d="M52.3,51.6c-0.4,1.2-0.1,2.2-0.4,3.5c-0.1,0.6-0.3,1.3-0.4,2c-0.2,0.6-0.5,1.5-0.7,2.1c0,0.1,0.1,0.2,0.2,0.1
			c0.4-0.4,0.5-0.9,0.7-1.5c0.2-0.6,1.5-4.8,1-6.2C52.7,51.4,52.3,51.4,52.3,51.6L52.3,51.6z"/>
		<path d="M52.6,50.4c0.1-0.1,0.1-0.3,0-0.4c-0.1-0.1-0.2-0.1-0.3,0c-0.1,0.1-0.1,0.2,0,0.4C52.4,50.4,52.5,50.5,52.6,50.4z"/>
		<path d="M45.4,43.8c-0.2-0.2-0.4,0-0.3,0.2c0.7,1.2,1.8,2,3,2.7c1.3,0.8,2.3,1.9,3.7,2.6c0.1,0.1,0.3-0.2,0.1-0.2
			c-1.2-0.7-2.1-1.7-3.1-2.5C47.6,45.6,46.4,44.9,45.4,43.8z"/>
		<path d="M50.4,60.6c0.2-0.2-0.1-0.5-0.3-0.3c-0.8,0.6-1.4,1.6-1.8,2.5c-0.4,1-1,2.1-0.8,3.2c0,0.1,0.1,0.1,0.1,0
			c0.3-1,0.6-1.8,1.1-2.7C49.1,62.2,49.7,61.4,50.4,60.6L50.4,60.6z"/>
		<path d="M47.4,28c0.8,0.5,1.3,1.4,2,2c0.1,0.1,0.3,0,0.2-0.2c-0.5-1-1.4-1.9-2.4-2.4c-1.2-0.6-2.3-0.2-3.4,0.3c-0.1,0,0,0.1,0,0.1
			C45,27.4,46.2,27.3,47.4,28L47.4,28z"/>
		<path d="M46.5,26.7c0.9,0.2,1.7,0.9,2.3,1.6c0.1,0.1,0.3,0,0.2-0.2c-0.6-0.8-1.5-1.5-2.6-1.6C46.5,26.6,46.4,26.7,46.5,26.7z"/>
		<path d="M29.6,48.2c-2.2,0.4-4,0.9-6.3,0.7c0,0,0,0,0,0.1c2,0.5,4.6,0.7,6.4-0.4C29.8,48.4,29.7,48.1,29.6,48.2z"/>
		<path d="M31.1,47.1c-0.2,0-0.3,0.1-0.4,0.2c-0.2,0.2,0,0.6,0.3,0.4c0.1,0,0.1,0,0,0c0.1,0,0.2,0,0.3-0.1
			C31.5,47.4,31.3,47.1,31.1,47.1L31.1,47.1z"/>
		<path d="M77.6,41.1c-0.5,0-0.8,0.4-1.2,0.6c-0.1,0,0,0.1,0,0.1c0.4-0.1,0.8-0.2,1.3-0.4C77.9,41.3,77.8,41,77.6,41.1z"/>
		<path d="M77.4,42.1c0.4,0,0.8-0.2,1.1-0.5c0.1-0.1,0-0.2-0.1-0.2c-0.4,0.2-0.6,0.5-1,0.6C77.3,42,77.3,42.1,77.4,42.1z"/>
		<path d="M77.8,42.8C77.6,42.9,77.3,43,77,43c-0.1,0-0.1,0.2,0,0.2c0.3,0,0.6,0,0.9-0.2C78,43,78,42.8,77.8,42.8L77.8,42.8z"/>
		<path d="M51,22.9c0.2,0,0.3-0.3,0.1-0.3c-1.2-0.6-2.8-0.3-4,0.2l0,0C48.4,22.5,49.7,22.6,51,22.9L51,22.9z"/>
		<path d="M58.7,45.5c0.6,1.2,1.7,2,2.5,3c0,0.1,0.1,0,0.1-0.1c-0.7-1.1-1.5-2.1-2.3-3.1C58.8,45.2,58.6,45.3,58.7,45.5z"/>
		<path d="M61.9,49.6c-0.1-0.3-0.7-0.1-0.5,0.2C61.5,50.1,62.1,49.9,61.9,49.6z"/>
		<path d="M37.4,44.3c0.3,0,0.3-0.4,0.1-0.4c-0.6-0.1-1.2-0.2-1.7-0.3c-0.1,0-0.1,0.1,0,0.1C36.2,44.1,36.8,44.2,37.4,44.3z"/>
		<path d="M26.7,55.4c1.3,0.5,2.3,1.4,3.7,1.8c1.2,0.4,2.5,0.9,3.8,1c0.2,0,0.3-0.3,0.1-0.4c-1.3-0.3-2.5-0.7-3.8-1
			C29.1,56.5,28,55.7,26.7,55.4C26.6,55.3,26.6,55.4,26.7,55.4z"/>
		<path d="M34.7,58.2c0.2,0.4,0.8,0.1,0.6-0.3C35.1,57.5,34.5,57.8,34.7,58.2z"/>
		<path d="M39.2,58.1c-1,0-2.1-0.2-3.1-0.1c-0.1,0-0.2,0.2,0,0.3c1,0.3,2.1,0.3,3.1,0.2c0.9,0,2.2,0,3.1-0.4c0,0,0-0.1,0-0.1
			C41.4,58.2,40.1,58.2,39.2,58.1z"/>
		<path d="M67.4,64.1c-0.1,0,0,0.1,0,0.1c0.8-0.1,1.8-0.4,2.3,0.3c0.1,0.2,0.4,0,0.3-0.2C69.4,63.6,68.2,63.8,67.4,64.1L67.4,64.1z"
			/>
		<path d="M43.2,58.3c0.3,0,0.5-0.1,0.7-0.1c0.3,0,0.6,0,0.9,0c0.1,0,0.1-0.1,0-0.1c-0.5-0.1-1.2-0.2-1.7,0C43,58,43,58.3,43.2,58.3
			L43.2,58.3z"/>
		<path d="M31.2,53c1.4-0.8,2.7-1.6,3.7-2.9c0.1-0.1-0.1-0.3-0.2-0.2c-0.6,0.5-1.2,1-1.7,1.6C32.4,52,31.8,52.4,31.2,53
			C31.2,52.9,31.2,53,31.2,53L31.2,53z"/>
		<path d="M36.1,48.8c0.7-0.6,1.4-1.2,2.2-1.7c0.9-0.6,2-0.8,3-1.1c0.2-0.1,0.1-0.3-0.1-0.3c-2.1,0.1-4,1.4-5.2,3.1
			C36,48.8,36.1,48.9,36.1,48.8L36.1,48.8z"/>
		<path d="M35.5,49.5c0.2,0,0.3-0.1,0.3-0.3c0-0.3-0.3-0.5-0.5-0.2c0,0.1-0.1,0.1-0.1,0.2C35.2,49.4,35.3,49.5,35.5,49.5z"/>
		<path d="M52.5,51.1L52.5,51.1c0.1,0,0.1,0,0.2-0.1l0,0C53,50.5,51.9,50.9,52.5,51.1z"/>
		<path d="M61.7,50.6c-0.4,0.5-0.8,1.1-1.2,1.7c-0.4,0.8-0.6,1.7-0.8,2.5c0,0.2,0.2,0.2,0.2,0.1c0.3-0.7,0.6-1.5,0.9-2.2
			c0.3-0.7,1-1.2,1.2-1.9C62.1,50.6,61.8,50.3,61.7,50.6L61.7,50.6z"/>
		<path d="M58.2,44.4c0,0-0.1-0.1-0.1,0l0,0c-0.1-0.2-0.4,0-0.3,0.2c0.1,0.1,0.1,0.2,0.3,0.2c0.1,0,0.1,0,0.2,0c0,0,0.1-0.1,0.1-0.1
			C58.2,44.5,58.2,44.4,58.2,44.4L58.2,44.4z"/>
		<path d="M68.1,60c0.2-0.3-0.2-0.6-0.5-0.4c-1.6,1.6-4,3.6-4.1,6.1c0,0.1,0.1,0.1,0.1,0c0.4-1.1,1.2-2.3,1.9-3.2
			C66.4,61.6,67.4,61,68.1,60z"/>
		<path d="M68.5,59.2c0.1,0,0.1-0.1,0.2-0.1c0.1-0.1,0.1-0.3,0-0.4c0,0,0,0,0,0c-0.1-0.1-0.3,0-0.3,0.1v0c0,0.1,0,0.1,0,0.2
			C68.3,59.1,68.4,59.2,68.5,59.2L68.5,59.2z"/>
		<path d="M69.2,42c-1.1-0.7-2.1-1.6-3.1-2.4c-0.2-0.1-0.5,0.1-0.3,0.3c1.6,1.7,3.7,2.7,5.8,3.7c0,0,0,0,0,0
			C71,42.9,70,42.4,69.2,42z"/>
		<path d="M69,49.8c0.1-0.1,0-0.3-0.1-0.3c-0.5,0.2-1.6,0.7-2.1,0.2c0,0-0.1,0-0.1,0C66.9,50.6,68.4,50.1,69,49.8z"/>
		<path d="M67.7,48.5c0.4,0,0.8,0,1.2,0c0.1,0,0.1-0.2,0-0.2c-0.4,0-0.8,0-1.3,0C67.6,48.4,67.6,48.5,67.7,48.5z"/>
		<path d="M69.2,57.9c0.1-1.1,0.4-2.3,0.7-3.4c0,0-0.1-0.1-0.1,0c-0.3,0.6-0.5,1.3-0.7,2c-0.1,0.4-0.4,1-0.2,1.5
			C69,58.1,69.2,58,69.2,57.9z"/>
		<path d="M92.7,20.7c0-0.4,0.2-0.8,0.2-1.2c0-0.2-0.3-0.3-0.3,0c-0.1,0.4-0.1,0.8,0,1.2C92.5,20.8,92.7,20.8,92.7,20.7L92.7,20.7z"
			/>
		<path d="M94.7,24.4c0.5,0.2,1.1,0.2,1.6,0.2c0.6,0,1.3,0.1,1.9-0.2c0.2-0.1,0.1-0.4-0.1-0.3c-1.1,0.1-2.3,0.2-3.4,0.2
			C94.6,24.3,94.6,24.3,94.7,24.4z"/>
		<path d="M104.6,22c0.2-0.1,0-0.4-0.2-0.3c-1.7,0.8-3.5,1.9-5.4,2.3c0,0,0,0,0,0C100.8,24,103.1,23.1,104.6,22L104.6,22z"/>
		<path d="M81.2,25.6c2.4,0.6,5.1,0.2,7.4-0.7v0c-2.3,0.5-4.9,0.8-7.3,0.2C80.9,25,80.9,25.6,81.2,25.6z"/>
		<path d="M80.1,25.3c0.1,0,0.1,0,0.2-0.1c0.1-0.1,0-0.3-0.1-0.3c-0.1,0-0.2,0-0.2,0.1C79.8,25,79.9,25.3,80.1,25.3L80.1,25.3z"/>
		<path d="M78.9,20.4c-0.1-0.6,0-1.2,0-1.8c0-0.2-0.2-0.2-0.3-0.1c-0.3,0.6-0.3,1.3,0.1,1.9C78.8,20.5,78.9,20.5,78.9,20.4z"/>
		<path d="M55.9,50.6c0.8,0,1.6-0.1,2.3-0.6c0.1-0.1,0-0.3-0.1-0.2c-0.7,0.4-1.4,0.6-2.2,0.7C55.8,50.5,55.8,50.6,55.9,50.6
			L55.9,50.6z"/>
		<path d="M56.9,48.3c0.3-0.1,0.6-0.1,0.9-0.1c0.1,0,0.1-0.2,0-0.2c-0.3,0-0.7,0.1-1,0.2C56.7,48.2,56.8,48.3,56.9,48.3z"/>
		<path d="M57,49.5c0.1-0.1,0.2-0.1,0.2-0.2c0.1,0,0.1-0.2,0-0.2c-0.2,0-0.3,0-0.4,0.1C56.6,49.3,56.8,49.6,57,49.5L57,49.5z"/>
		<path d="M43.1,27.9c-0.5,0.1-0.9,0.3-1.3,0.5c-0.1,0,0,0.2,0.1,0.1c0.4-0.2,0.9-0.3,1.4-0.4C43.3,28,43.2,27.8,43.1,27.9z"/>
		<path d="M54.3,25.2C54.3,25.2,54.2,25.3,54.3,25.2c0.5,0.4,0.8,1,1.2,1.4c0.1,0.1,0.3,0,0.2-0.2C55.3,26,54.9,25.3,54.3,25.2z"/>
		<path d="M5.1,53.2c0.2,0,0.3-0.3,0.1-0.3c-0.9-0.3-1.8-0.5-2.6-0.8c-0.8-0.2-1.5-0.2-2.3-0.2c0,0,0,0,0,0c0.8,0.3,1.6,0.3,2.4,0.6
			C3.5,52.8,4.3,53,5.1,53.2z"/>
		<path d="M7,53.6c0.1,0,0.2-0.2,0.1-0.2c-0.1-0.1-0.2-0.2-0.3-0.2C6.6,53.1,6.5,53,6.4,53c-0.1,0-0.2,0.1-0.1,0.2
			c0.1,0.1,0.2,0.2,0.3,0.3C6.7,53.6,6.8,53.6,7,53.6L7,53.6z"/>
		<path d="M178.9,28.6c0.9-1.8,2-3.6,3.4-4.2C181,24.1,179,26.6,178.9,28.6z"/>
		<path d="M184.2,64.2c0.5,0.3,0.9-0.1,1.3,0c1.5,0.3,2,2.1,3,2.7c0.2-0.5-1-2.1-1.9-2.7C185.8,63.6,184.2,63.2,184.2,64.2z"/>
		<path d="M219.5,55.5c1.6,0.1,3.2-0.5,4.8-0.9c1.5-0.4,2.6-1.1,3.7-2.1c0.2-0.2,0-0.6-0.3-0.4c-1.3,0.9-2.4,1.6-3.9,2.1
			c-1.4,0.4-2.7,1-4.2,1.2C219.5,55.3,219.5,55.4,219.5,55.5L219.5,55.5z"/>
		<path d="M228.5,51.7c0.2,0.1,0.5,0,0.5-0.2c0.1-0.2,0-0.5-0.2-0.5c-0.2-0.1-0.5,0-0.5,0.2C228.1,51.3,228.2,51.6,228.5,51.7
			L228.5,51.7z"/>
		<path d="M229.4,50.5c1.3-0.5,2.1-2.5,2.5-3.8c0.6-1.8,0.7-3.4,0.3-5.2c0-0.1-0.1-0.1-0.1,0c0.2,2,0.1,3.7-0.9,5.4
			c-0.6,1.2-1.2,2.1-2.1,3.1C228.8,50.3,229.1,50.6,229.4,50.5z"/>
		<path d="M219,55c-3-0.5-6-1.5-8.8-2.7c-0.3-0.1-0.6,0.3-0.3,0.5c1.5,1,3.3,1.5,5,1.9c1.1,0.3,3.1,1,4.2,0.5
			C219.1,55.1,219.1,55,219,55L219,55z"/>
		<path d="M184.7,51.6c-0.1-0.2-0.4-0.2-0.5,0c-0.4,1.3,0.8,5.6,1,6.2c0.2,0.6,0.3,1,0.7,1.5c0.1,0.1,0.2,0,0.2-0.1
			c-0.2-0.6-0.5-1.5-0.7-2.1c-0.2-0.6-0.3-1.3-0.4-2C184.8,53.8,185,52.8,184.7,51.6L184.7,51.6z"/>
		<path d="M184.6,50.3c0.1-0.1,0.1-0.2,0-0.4c-0.1-0.1-0.2-0.1-0.3,0c-0.1,0.1-0.1,0.3,0,0.4C184.5,50.5,184.6,50.4,184.6,50.3z"/>
		<path d="M191.6,43.8c-1.1,1-2.2,1.8-3.4,2.7c-1,0.8-2,1.8-3.1,2.5c-0.1,0.1,0,0.3,0.1,0.2c1.4-0.6,2.4-1.8,3.7-2.6
			c1.2-0.7,2.2-1.5,3-2.7C192,43.8,191.7,43.7,191.6,43.8z"/>
		<path d="M188.3,63.2c0.4,0.9,0.8,1.8,1,2.7c0,0.1,0.1,0,0.1,0c0.2-1.1-0.4-2.2-0.8-3.2c-0.4-0.9-0.9-1.9-1.8-2.5
			c-0.2-0.2-0.5,0.1-0.3,0.3C187.2,61.4,187.8,62.2,188.3,63.2L188.3,63.2z"/>
		<path d="M189.8,27.4c-1,0.5-1.9,1.4-2.4,2.4c-0.1,0.1,0.1,0.2,0.2,0.2c0.7-0.6,1.2-1.5,2-2c1.2-0.7,2.4-0.6,3.6-0.2
			c0.1,0,0.1-0.1,0-0.1C192.1,27.2,191,26.8,189.8,27.4L189.8,27.4z"/>
		<path d="M187.8,28.2c-0.1,0.2,0.1,0.3,0.2,0.2c0.6-0.7,1.4-1.4,2.3-1.6c0.1,0,0.1-0.2,0-0.1C189.3,26.7,188.4,27.4,187.8,28.2
			L187.8,28.2z"/>
		<path d="M213.7,48.8c-2.2,0.2-4.1-0.3-6.3-0.7c-0.2,0-0.3,0.2-0.1,0.3C209.1,49.7,211.7,49.5,213.7,48.8
			C213.7,48.9,213.7,48.8,213.7,48.8L213.7,48.8z"/>
		<path d="M205.8,47.1c-0.3,0-0.4,0.3-0.2,0.5c0.1,0.1,0.2,0.1,0.3,0.1c0,0,0,0,0,0c0.3,0.2,0.5-0.2,0.3-0.4
			C206.1,47.2,206,47.1,205.8,47.1L205.8,47.1z"/>
		<path d="M159.3,41.1c-0.1,0-0.2,0.2-0.1,0.3c0.4,0.2,0.8,0.4,1.3,0.4c0.1,0,0.1-0.1,0-0.1C160.1,41.4,159.8,41.1,159.3,41.1z"/>
		<path d="M159.6,42c-0.4-0.1-0.6-0.4-1-0.6c-0.1,0-0.2,0.1-0.1,0.2c0.3,0.3,0.7,0.5,1.1,0.5C159.6,42.1,159.6,42,159.6,42z"/>
		<path d="M159.9,43c-0.3,0-0.5-0.1-0.8-0.2c-0.1-0.1-0.2,0.2-0.1,0.2c0.3,0.1,0.5,0.2,0.9,0.2C160,43.2,160,43.1,159.9,43L159.9,43
			z"/>
		<path d="M185.9,22.9c1.3-0.3,2.6-0.4,3.9-0.1l0,0c-1.2-0.5-2.8-0.8-4-0.2C185.7,22.6,185.7,23,185.9,22.9z"/>
		<path d="M178,45.3c-0.8,1-1.6,2-2.3,3.1c0,0.1,0,0.1,0.1,0.1c0.8-1,1.9-1.9,2.5-3C178.4,45.3,178.1,45.2,178,45.3L178,45.3z"/>
		<path d="M175.6,49.8c0.1-0.3-0.4-0.6-0.5-0.2C174.9,49.9,175.4,50.1,175.6,49.8z"/>
		<path d="M201.2,43.6c-0.6,0.1-1.1,0.2-1.7,0.3c-0.3,0-0.2,0.5,0.1,0.4C200.2,44.2,200.8,44.1,201.2,43.6
			C201.3,43.6,201.3,43.6,201.2,43.6z"/>
		<path d="M210.3,55.3c-1.3,0.3-2.4,1.1-3.7,1.5c-1.3,0.3-2.5,0.6-3.8,1c-0.2,0.1-0.1,0.4,0.1,0.4c1.3-0.1,2.6-0.6,3.8-1
			C207.9,56.7,209,55.9,210.3,55.3C210.3,55.4,210.3,55.3,210.3,55.3L210.3,55.3z"/>
		<path d="M201.6,58c-0.2,0.4,0.5,0.7,0.6,0.3C202.4,57.8,201.8,57.5,201.6,58z"/>
		<path d="M200.8,58c-1,0-2.1,0.1-3.1,0.1c-0.9,0-2.2,0.1-3-0.1c-0.1,0-0.1,0.1,0,0.1c0.8,0.4,2.1,0.4,3.1,0.4c1,0,2.1,0,3.1-0.2
			C201,58.2,200.9,58,200.8,58z"/>
		<path d="M167.2,64.6c0.5-0.7,1.5-0.4,2.3-0.3c0.1,0,0.1-0.1,0-0.1c-0.8-0.3-2-0.5-2.6,0.2C166.9,64.6,167.1,64.8,167.2,64.6
			L167.2,64.6z"/>
		<path d="M193.8,58c-0.5-0.2-1.2,0-1.7,0c-0.1,0-0.1,0.1,0,0.1c0.3,0,0.6,0,0.9,0c0.2,0,0.5,0.1,0.7,0.1
			C193.9,58.3,193.9,58,193.8,58L193.8,58z"/>
		<path d="M205.7,53C205.7,53,205.7,52.9,205.7,53c-0.5-0.6-1.2-1-1.8-1.6c-0.6-0.5-1.1-1.1-1.7-1.6c-0.1-0.1-0.3,0.1-0.2,0.2
			C202.9,51.4,204.3,52.1,205.7,53L205.7,53z"/>
		<path d="M195.7,45.6c-0.2,0-0.3,0.3-0.1,0.3c1,0.3,2.1,0.5,3,1.1c0.7,0.5,1.5,1.2,2.2,1.7c0.1,0.1,0.2,0,0.1-0.1
			C199.7,47,197.8,45.7,195.7,45.6L195.7,45.6z"/>
		<path d="M201.7,49.2c0-0.1,0-0.1-0.1-0.2c-0.2-0.2-0.5,0-0.5,0.2c0,0.2,0.1,0.3,0.3,0.3C201.6,49.5,201.7,49.4,201.7,49.2z"/>
		<path d="M184.3,51c0,0,0.1,0.1,0.1,0.1l0,0C185,50.9,183.9,50.5,184.3,51L184.3,51z"/>
		<path d="M174.9,50.8c0.2,0.7,0.9,1.2,1.2,1.9c0.3,0.7,0.6,1.5,0.9,2.2c0.1,0.2,0.3,0.1,0.2-0.1c-0.3-0.8-0.4-1.8-0.8-2.5
			c-0.3-0.6-0.7-1.2-1.2-1.7C175.1,50.3,174.8,50.6,174.9,50.8L174.9,50.8z"/>
		<path d="M178.9,44.4L178.9,44.4c0.1-0.1-0.1,0-0.1,0c-0.1,0-0.1,0.1-0.1,0.1c0,0,0,0.1,0.1,0.1c0,0,0.1,0.1,0.2,0
			c0.1,0,0.2-0.1,0.3-0.2C179.3,44.3,179,44.2,178.9,44.4L178.9,44.4z"/>
		<path d="M171.3,62.6c0.7,0.9,1.6,2.1,1.9,3.2c0,0.1,0.1,0,0.1,0c-0.1-2.4-2.5-4.5-4.1-6.1c-0.3-0.3-0.7,0-0.5,0.4
			C169.5,61,170.5,61.6,171.3,62.6z"/>
		<path d="M168.4,59.2c0.1,0,0.2-0.1,0.2-0.2c0-0.1,0-0.1,0-0.2v0c-0.1-0.1-0.2-0.2-0.3-0.1c0,0,0,0,0,0c-0.1,0.1-0.1,0.3,0,0.4
			C168.3,59.1,168.4,59.2,168.4,59.2L168.4,59.2z"/>
		<path d="M170.9,39.6c-1.1,0.7-2,1.7-3.1,2.4c-0.7,0.5-1.8,0.9-2.3,1.6v0c2.1-1,4.1-2,5.8-3.7C171.4,39.7,171.1,39.5,170.9,39.6
			L170.9,39.6z"/>
		<path d="M170.2,49.7c-0.5,0.4-1.5,0-2.1-0.2c-0.2-0.1-0.3,0.2-0.1,0.3C168.5,50.1,170,50.6,170.2,49.7
			C170.3,49.7,170.2,49.7,170.2,49.7z"/>
		<path d="M168,48.6c0.4,0,0.8-0.1,1.2,0c0.1,0,0.1-0.1,0-0.2c-0.4,0-0.8,0-1.3,0C167.9,48.4,167.9,48.6,168,48.6z"/>
		<path d="M168.1,57.9c0.2-0.5-0.1-1-0.2-1.5c-0.2-0.7-0.4-1.4-0.7-2c0,0-0.1,0-0.1,0c0.2,1.1,0.5,2.2,0.7,3.4
			C167.8,58,168,58.1,168.1,57.9z"/>
		<path d="M144.1,19.5c0,0.4,0.2,0.8,0.2,1.2c0,0.1,0.1,0.1,0.1,0c0.1-0.4,0.1-0.8,0-1.2C144.4,19.3,144.1,19.3,144.1,19.5
			L144.1,19.5z"/>
		<path d="M142.2,24.3c-1.1,0-2.3-0.1-3.4-0.2c-0.2,0-0.3,0.3-0.1,0.3c0.6,0.3,1.3,0.2,1.9,0.2c0.6,0,1.1,0,1.6-0.2
			C142.3,24.3,142.3,24.3,142.2,24.3z"/>
		<path d="M132.6,21.7c-0.2-0.1-0.4,0.2-0.2,0.3c1.5,1.1,3.8,2,5.6,2c0,0,0,0,0,0C136.1,23.6,134.3,22.5,132.6,21.7L132.6,21.7z"/>
		<path d="M155.7,25.2c-2.4,0.6-4.9,0.3-7.3-0.2c0,0,0,0,0,0c2.3,0.8,4.9,1.3,7.4,0.7C156.1,25.6,156,25.1,155.7,25.2z"/>
		<path d="M156.8,25.3c0.2,0,0.3-0.2,0.1-0.4c-0.1-0.1-0.1-0.1-0.2-0.1c-0.1,0-0.2,0.2-0.1,0.3C156.7,25.2,156.7,25.3,156.8,25.3
			L156.8,25.3z"/>
		<path d="M158,20.4c0,0.1,0.1,0.1,0.2,0c0.3-0.6,0.3-1.3,0.1-1.9c-0.1-0.2-0.3-0.1-0.3,0.1C158,19.2,158.2,19.8,158,20.4z"/>
		<path d="M181,50.5c-0.8-0.1-1.5-0.3-2.2-0.7c-0.1-0.1-0.2,0.1-0.1,0.2c0.7,0.5,1.5,0.6,2.3,0.6C181.1,50.6,181.1,50.5,181,50.5
			L181,50.5z"/>
		<path d="M179.1,48.2c0.3,0,0.6,0,0.9,0.1c0.1,0,0.2-0.1,0.1-0.1c-0.3-0.1-0.6-0.2-1-0.2C179,48,179,48.2,179.1,48.2L179.1,48.2z"
			/>
		<path d="M179.8,49.1c-0.1,0-0.1,0.2,0,0.2c0.1,0,0.2,0.1,0.2,0.2c0.2,0.1,0.4-0.1,0.2-0.2C180,49.1,179.9,49.1,179.8,49.1
			L179.8,49.1z"/>
		<path d="M193.9,27.9c-0.1,0-0.2,0.2-0.1,0.2c0.4,0.2,0.9,0.2,1.4,0.4c0.1,0,0.2-0.1,0.1-0.1C194.7,28.2,194.3,28,193.9,27.9z"/>
		<path d="M182.7,25.2c-0.6,0-1.1,0.8-1.5,1.3c-0.1,0.1,0.1,0.3,0.2,0.2C181.8,26.2,182.1,25.6,182.7,25.2
			C182.7,25.3,182.7,25.2,182.7,25.2z"/>
		<path d="M237,29.8L237,29.8v-0.2c-1.6,0-3.2-0.1-4.9-0.1c-2.9,0.1-5.8,0.1-8.7-0.3c-0.1,0-0.2-0.1-0.3-0.1c-0.1-0.1-0.3,0-0.4,0
			c-0.5-0.1-1-0.2-1.5-0.3c-2.8-0.2-5.7-0.6-8.7-1.3c-1.6-0.3-3.2-0.7-4.9-0.9c-0.8-0.1-1.6-0.3-2.4-0.4c-2.5-0.5-5.2-1.1-8.2-2.2
			c-2.9-1-5.9-2.6-8.3-2.8c-0.6,0-1.2,0.1-1.6,0c-0.5-0.1-0.9-0.5-1.4-0.7c-3.4-1.6-5.6-0.7-7.8,0.9c-4.1-0.8-11.6-1.6-16.5-3.4
			c-1.2-0.4-2.4-1.2-3.5-1.3c-0.8-0.1-1.8,0.3-2.8,0.4c-1.8,0.2-4.3,0.3-6.3,0.4l1.1-1l-0.1-0.1l-1.3,1.1c-0.1,0-0.2,0-0.2,0
			c-1.3,0.1-2.4,0-3.7,0c-1.7,0-3.6,0.3-5.5,0.4l6.8-9.1l-0.3-0.2l-7.3,9.3c-0.7,0-1.4,0.1-2,0.2h0c-0.1,0-0.2,0-0.3,0l5.7-8.8
			l-0.1-0.1l-6,8.9c-0.6,0-1.2,0-1.8,0l2.2-3.9l-0.3-0.2l-2.4,4.1c-0.7,0-1.4,0.1-2.1,0.1l1.5-3.2l-0.2-0.1l-1.6,3.3
			c-0.4,0-0.8,0-1.3,0l6.1-15.4L135.5,3l-6.6,15.5c-0.1,0-0.1,0-0.2,0c-0.2,0-0.3,0.1-0.3,0.2c-0.1,0.3-0.1,0.6,0.1,0.8l-0.4,0.9
			l0.2,0.4c-0.2,0.1-0.2,0.3-0.1,0.5l1,1.8c0.1,0.1,0.2,0.2,0.3,0.2c0.1,0,0.1,0,0.2,0c0.2-0.1,0.2-0.3,0.1-0.5l-0.4-0.7l0.7-1.6
			c0.1,0,0.1,0,0.2,0c0.1,0.4,0.4,0.8,0.8,1.3l-1.2,2l0.3,0.6l1.2-2.1c0.3,0.3,0.5,0.5,0.8,0.8l-1.3,1.9l-0.2-0.3
			c-0.1-0.2-0.3-0.2-0.5-0.1c-0.2,0.1-0.2,0.3-0.1,0.5l1,1.8c0.1,0.1,0.2,0.2,0.3,0.2c0.1,0,0.1,0,0.2,0l0.3,0.5l2.4-3.1
			c0.3,0.1,0.6,0.2,0.9,0.4l-2.9,3.4l0.1,0.1l0,0c-0.2,0.1-0.2,0.3-0.1,0.5l1,1.8c0.1,0.1,0.2,0.2,0.3,0.2c0.1,0,0.1,0,0.2,0
			l0.2,0.4l6.2-5.6c1,0,2-0.1,2.9-0.2l-8.6,6.5l0,0.1l0,0c-0.2,0.1-0.2,0.3-0.1,0.5l1,1.8c0.1,0.1,0.2,0.2,0.3,0.2
			c0.1,0,0.1,0,0.2,0l0.2,0.4l12.5-7.4l-0.2-0.3l-12.4,7c0-0.1,0-0.1,0-0.2l-0.4-0.7l9.8-6.8l-0.1-0.1l-9.9,6.6l-0.3-0.5l9.2-7.1h0
			c0.3,0,0.5,0,0.8,0c2.6,0.7,5.7,1.8,8.3,1.8l-17,8.3l0.1,0.2c-0.2,0.1-0.2,0.3-0.1,0.5l1,1.8c0.1,0.1,0.2,0.2,0.3,0.2
			c0.1,0,0.1,0,0.2,0l0,0v0l11.2-4l-0.1-0.2l-11,3.8c0,0,0,0,0-0.1l-0.3-0.5l21.7-9.2c1,0.6,2,1.3,3,1.7c1.1,0.4,2.2,0.7,3.4,1.1
			c0.8,0.2,1.7,0.3,2.5,0.6c-2.2,1.9-5.1,4.1-7.5,6c-0.7,0.5-1.5,1.1-2.2,1.8l-18.4,2.3c0-0.1,0-0.2,0-0.3l-0.4-0.6l19.7-4.2l0-0.2
			l-20,3.9l-0.4-0.7l12.9-3.6l-0.1-0.4l-13.5,3.5l0.2,0.3l0,0c-0.2,0.1-0.2,0.3-0.1,0.5l1,1.8c0.1,0.1,0.2,0.2,0.3,0.2
			c0.1,0,0.1,0,0.2,0l0,0l0.3,0.5l17.7-2.5c-0.8,0.9-1.4,1.9-1.4,3.2c0,1.3,0.4,2.6,0.6,4l-14.8-1l0.3,0.5l14.5,0.7
			c0.1,0.5,0.1,1,0,1.5c-0.4,0.2-1.1,0.1-1.7,0.3c-0.3,0.1-0.5,0.2-0.8,0.4l-10.9-1.5l-0.6-1.1c-0.1-0.2-0.3-0.2-0.5-0.1
			c-0.2,0.1-0.2,0.3-0.1,0.5l1,1.8c0.1,0.1,0.2,0.2,0.3,0.2c0.1,0,0.1,0,0.2,0c0.2-0.1,0.2-0.3,0.1-0.4l9.9,1.2
			c-0.3,0.3-0.7,0.5-1.1,0.8c-0.3,0.2-0.7,0.4-1.1,0.6c-1,0.3-2.3,0.7-3.1,1.5l-2.6-0.7l-0.9-1.6c-0.1-0.2-0.3-0.2-0.5-0.1
			c-0.2,0.1-0.2,0.3-0.1,0.5l1,1.8c0.1,0.1,0.2,0.2,0.3,0.2c0.1,0,0.1,0,0.2,0c0.1,0,0.1-0.1,0.1-0.2l2.1,0.5
			c-0.3,0.4-0.5,0.9-0.4,1.5l-0.4-0.1l-0.2-0.4c-0.1-0.2-0.3-0.2-0.5-0.1c-0.2,0.1-0.2,0.3-0.1,0.5l1,1.8c0.1,0.1,0.2,0.2,0.3,0.2
			c0.1,0,0.1,0,0.2,0c0.2-0.1,0.2-0.3,0.1-0.5l-0.5-1l0.2,0.1c0.5,1.5,2.5,1.6,4.2,1.4l5.8,1.9l0.1-0.2l-5.2-1.8
			c0.2,0,0.4-0.1,0.6-0.1c0.2,0,0.5,0,0.7-0.1c1.7,1,3.9,1.2,5.5,0.9c1,1.7,0.4,3.7,1.8,5.2c0.7,0.7,1.7,1.4,2.6,2.1
			c2.6,2.1,5.2,3.9,7,6.2c0,0,0,0,0.1,0c0.4,0.5,0.8,0.9,1.1,1.4c0.4,0.6,1,0.1,1.4-0.5c0.5-0.7,0.3-1.6-0.1-2.4
			c0.7-1,1.2-2.4,0.9-3.7c-0.5-2.9-4.4-5.1-5-7.7c0.5,0,1,0.2,1.6,0.2c0.4,0.7,1.1,1.3,1.7,2.2c0.5,0.7,0.9,1.7,1.6,2.2
			c1.7,1.2,4.5,1.4,6.3,2c0.7,0.2,1.6,0.3,2.1,0.6c0.7,0.4,1.4,1.7,2,2.5c0.5,0.6,1,1.6,1.5,2.2c0.2,0.3,0.4,0.6,0.6,0.8
			c0.4,0.5,0.6,1,0.9,1.6c0.1,0.2,0.3,0.5,0.7,0.5c1.7-0.2,1.6-2.2,0.9-3.6c0.6-0.8,1-1.8,1-2.6c0-2.5-1.8-4.9-2.9-6.7
			c5.3,0.4,10.6,1.2,15.4,0.3c1.6-0.3,3.2-0.5,4.6-1.1c0.8-0.3,1.7-0.9,2.7-1.3c0.8-0.3,2-1.3,2.7-1.2c0.3,0,0.8,0.4,1.3,0.5
			c4.1,1.5,8,0.3,11.6-0.7c0.3-0.1,0.5-0.1,0.8-0.2c0.8-0.3,1.6-0.7,2.4-1c1.8-0.3,5-0.8,5.8-0.9c0.7-0.1,1.4-0.3,2.1-0.4v-0.7
			c-1,0.2-2,0.4-3,0.6c-1.2,0.3-2.7,0.4-3.8,0.7c-0.5,0.1-1,0.1-1.5,0.2c0.2-0.2,0.4-0.3,0.6-0.5c1.2-1.1,2.3-2.3,3.1-3.7
			c1.6-2.6,2.6-5.6,2.1-8.7c-0.8-4.8-4.8-8.7-9.4-10.4c0.7,0.1,1.5,0.1,2.2,0.1c1.1,0.1,5.3,0,9.6-0.2L237,29.8L237,29.8L237,29.8z
			 M137.2,19.3c0.5,0.6,0.5,1.3-4,1.4c-0.7-0.1-1.4-0.2-2.1-0.3c0-0.1-0.1-0.2-0.1-0.3c0.6-0.6,2-0.4,3.2-0.6
			C135.3,19.3,136.5,19.3,137.2,19.3L137.2,19.3z M130.8,19.1c-0.3,0.2-0.5,0.5-0.5,1c-0.6-0.2-1-0.5-1.3-1
			C129.7,19.1,130.2,19.1,130.8,19.1L130.8,19.1z M129.2,21.9l-0.5-0.8c0,0-0.1-0.1-0.1-0.1l0.3-0.8c0.2,0.2,0.6,0.3,0.9,0.4
			L129.2,21.9L129.2,21.9z M131.9,26.5l-0.5-0.9l1.4-2.1c0.2,0.1,0.4,0.3,0.5,0.3c0.2,0.1,0.4,0.2,0.5,0.3L131.9,26.5z M132.8,28.2
			l2.8-3.4c0.6,0.2,1.1,0.3,1.7,0.4l-3.9,3.9l-0.5-0.8C132.9,28.3,132.8,28.3,132.8,28.2L132.8,28.2z M134,30.5c0-0.1,0-0.2,0-0.3
			l-0.3-0.5l4.2-4.3c0.6,0.1,1.2,0.1,1.7,0.1L134,30.5L134,30.5z M154.7,26.1c-1.8,0.3-4.3-0.4-6.6-0.8c-1.2-0.5-2.7-0.8-4-0.6
			c-0.1,0-0.1,0-0.1,0.1c-3.9,0.3-10.5-0.2-12.6-3.9c0.5,0,0.9,0.1,1.4,0.1c1.2,0.2,3.5,0.2,4.1-0.2c0.5-0.3,1.4-1.2,0.6-1.7
			c0.2,0,0.4,0,0.6,0c0,0,0,0.1,0,0.1c0,0.3,0.1,0.5,0,0.8c-0.1,0.3-0.2,0.6-0.5,0.7c-0.1,0,0,0.1,0,0.1c0.4-0.1,0.6-0.4,0.8-0.7
			c0.1-0.3,0.1-0.6,0.1-1c0,0,0-0.1,0-0.1c1.6-0.1,3.2-0.2,4.7-0.3c0.7,0,1.3-0.3,1.9-0.3c0.2,0,0.5,0.1,0.8,0.2
			c1.8,0.2,5-0.2,7-0.4c0.9-0.1,1.9-0.1,2.9-0.3c0.9-0.1,2.2-0.4,3-0.2c1.3,0.4,2.6,1.3,3.9,1.8c2.2,0.7,6.7,1.1,8.8,1.7
			c2.1,0.5,4.2,0.6,6.2,0.8c-2.4,3.4-5.2,5.9-8,8.3c-2.9-0.9-5.1-0.8-9.8-3.4c-0.7-0.4-1.7-1-2.5-1.2c-0.4-0.1-0.8,0-1.2,0.1l0-0.1
			l-0.3,0.2C155.3,26,155,26.1,154.7,26.1L154.7,26.1z M159.7,27.4L159.7,27.4c-0.2-0.1-0.3-0.1-0.4-0.2
			C159.4,27.2,159.5,27.3,159.7,27.4z M157.6,26.4c-0.1,0-0.2-0.1-0.4-0.1c0,0,0.1,0,0.1,0C157.5,26.3,157.5,26.4,157.6,26.4z
			 M137.5,36.3l-0.4-0.7c0,0,0,0,0-0.1l17-8.7c0.3,0,0.5,0,0.7-0.1c0.4-0.1,0.8-0.2,1.3-0.3c1.1,0,2.1,0.5,3.1,1L137.5,36.3
			L137.5,36.3z M165.2,29.8c-1.3-0.4-2.6-0.8-3.8-1.5c-0.4-0.2-0.9-0.5-1.3-0.8h0l0-0.1c0.5,0.2,0.9,0.5,1.2,0.6
			c1.5,0.7,3.2,1.5,4.9,1.9C165.8,30,165.5,29.9,165.2,29.8L165.2,29.8z M168.3,30.6c0.3,0,0.5,0.1,0.7,0.1c0,0-0.1,0.1-0.1,0.1
			C168.7,30.7,168.5,30.6,168.3,30.6L168.3,30.6z M153.8,55.4c-1.9-0.5-2.2-2.2-1.3-3.5C152.1,53.4,152.9,54.4,153.8,55.4z
			 M148.9,53.7c0.5-1.2,1.5-1.6,2.6-1.9c-0.8,1.4-0.3,2.9,0.9,3.7C150.5,55.3,148.3,55,148.9,53.7z M153.5,54.1
			c-1.3-2.6,1.6-4.9,3.9-4.9c0.2,2.5,1.6,4.6,2.2,7C157.9,56.1,154.5,56,153.5,54.1L153.5,54.1z M173.5,70.7c0,0.1-0.4,0.7-0.6,0.5
			c-0.1,0-0.5-0.6-1-1.2c0.5-0.2,1-0.5,1.5-0.9C173.6,69.7,173.7,70.2,173.5,70.7z M169.4,56.5c-0.2-0.5-0.3-1.2-0.5-1.7
			c0.5,0.6,1.1,1.2,1.5,1.8C170,56.5,169.8,56.6,169.4,56.5L169.4,56.5z M189.2,70.5c-0.1,0.8-0.5,1.3-0.9,0.4
			c-0.1-0.2-0.2-0.4-0.3-0.6c-0.2-0.3-0.4-0.5-0.6-0.8c0.6,0,1.1-0.2,1.6-0.6c0.1,0.2,0.1,0.4,0.2,0.7
			C189.2,69.9,189.2,70.2,189.2,70.5L189.2,70.5z M229,34.1c2.3,1.8,4.1,4.1,4.5,7.1c0.6,5.1-2.5,10.2-6.6,13.2
			c-1.2,0.4-2.4,0.9-3.7,1.2c-0.7,0.1-1.6,0.1-2.4,0.2c-1.7,0.2-3.2,0.1-5.1-0.2c-1.6-0.2-3.3-1.2-4.8-1.2c-0.1,0.5,0.7,0.6,1.2,0.8
			c-3.4,1.9-7.2,3-11.5,3.5c-4.3,0.4-8.8-0.8-13.1-0.1c-0.6-2.6-0.7-5.3-1.4-7.9c1.9-1.6,3.9-2.8,5.9-4.2c0,1.1,0.2,2.5,1.1,3
			c0.3-1.2-0.7-2.5,0-3.9c0,0.5,0,1.1,0.1,1.7c0.2,0.7,0.5,1.3,0.9,1.9c0,0.1,0.2,0,0.1-0.1c-0.3-0.7-0.6-1.3-0.7-2.1
			c-0.1-0.6,0-1.2,0-1.8c0.4-0.1,0.8,0,1.3,0c1,0,1.8-0.3,3.2,0.4c3.1,1.5,5.5,4.3,8.2,6.3c0.9,0.7,1.9,1.6,3.2,1.6
			c-0.1-0.5-0.8-0.6-1.1-0.9c-1.8-1.3-3.4-2.8-5.1-4.3c0.4,0.2,0.8,0.5,1.2,0.8c1.2,0.9,2.4,1.6,3.7,2.2c0.1,0.1,0.2-0.1,0.1-0.2
			c-1.2-0.7-2.3-1.7-3.4-2.5c4.9,2.2,10,3.1,13.5,0.9c-1.9-0.5-3.6,0.4-5.6,0.3c-4.3-0.1-8.4-3-13-4.6c0.4,0,0.8,0.1,1.2,0.2
			c1.2,0.3,2.3,1.1,3.5,1.1c0.1,0,0.1-0.1,0-0.1c-1.2-0.6-2.2-1.4-3.5-1.6c-0.8-0.2-1.8-0.3-2.7-0.3c1.9-1.2,4.2-2.4,5.7-5
			c-0.7-0.1-1.3,0.5-1.7,0.9c-2.2,2-4.6,3.9-7.6,4.1c1.2-0.4,2.3-1,3.2-1.9c1.1-1,1.9-2.1,2.9-3.1c0,0,0-0.1-0.1-0.1
			c-1.2,0.8-2,1.9-3.2,2.7c-0.7,0.4-1.4,0.7-2.1,1c1-1.4,1.9-3.1,1.3-4.5c-1.6,3.5-3.6,6.1-6,7.8c-1.1,0.7-2.4,1.7-3.7,2.6
			c-1.6,1.2-1.3,2.1-1,3.8c0.4,1.9,0.4,4.3,1.1,5.9c0.6,1.5,1.7,2.5,2.4,3.9c0.5,1.1,1.2,3,0.7,4.3c-0.1,0.3-0.2,0.5-0.5,0.8
			c-0.1-0.2-0.2-0.3-0.3-0.4c-0.1-0.1-0.3,0.1-0.3,0.2c0.1,0.2,0.1,0.4,0.2,0.6c-0.4,0.4-0.9,0.6-1.3,0.5c-0.7-0.1-1.3-1.4-1.7-1.9
			c-0.6-0.8-1.1-1.3-1.6-1.9c0,0,0-0.1-0.1-0.1c0-0.2,0-0.3,0.1-0.5c0-0.2-0.2-0.2-0.3-0.1c0,0.1-0.1,0.2-0.1,0.2
			c0,0-0.1-0.1-0.1-0.1c0,0,0,0,0-0.1c-0.1-0.2,0.1-0.4,0.2-0.5c0.3-0.4,0.8-0.5,1.3-0.5c0,0,0-0.1,0-0.1c-0.5-0.1-1.1-0.2-1.5,0.2
			c-0.2,0.1-0.3,0.3-0.4,0.6c-1.1-1-2.3-2-2.9-3.1c-0.5-1-0.7-3.1-1.2-4.7c-0.5-1.8-1.2-3.3-1.4-4.8c-0.1-1.1,0.1-2.9,0.7-4
			c0.3-0.5,0.8-0.8,1.2-1.4c1.7-2.4,3.5-5.6,4.9-8.5c0.6-1.2,1.2-2.7,0.8-3.7c-1,0.4-1.1,2.1-1.5,2.9c-0.9,2.2-2.4,5-3.8,7.1
			c-0.9,1.4-2.2,2.5-3.2,4.3c-0.3,0.6-0.9,1.3-0.9,1.7c-0.1,0.5,0.6,1.7,1,2.6c0.4,0.9,0.8,1.9,1,2.6c0.6,1.8,1,3.8,1.6,5.3
			c0.5,1.2,1.3,2.1,2.4,3c-2.4-1-5.1-0.9-7.2-2.3c-0.5-0.4-1-1.5-1.5-2.2c-0.5-0.8-1.1-1.5-1.5-2.1c-1.2-1.6-2.3-2.8-3.2-4.2
			c-0.9-1.4-1.6-3.7-0.9-5.7c0.4-1.2,1.9-2.7,2.8-3.7c1-1,2.1-2.3,2.9-3.4c1.9-2.3,4-5.1,4.2-8.6c-1.2,0.7-1.6,2.4-2.2,3.7
			c-1.2,2.5-3.2,4.4-4.6,6.3c-0.7,0.2-1.7,0.9-2.5,1.5c-0.8,0.6-2,1.3-2.3,2c-0.4,0.9,0.4,2.3,0.4,3.2c-0.1,1.3-0.1,2.3,0.3,3.5
			c0.2,0.5,0.6,0.8,0.8,1.3c0.2,0.4,0.1,1,0.3,1.5c0.2,0.5,0.4,0.9,0.6,1.4c0.4,1.3,0.4,2.6,1.3,3.8c1.4,1.9,4.1,3.7,4.4,5.9
			c0.1,0.9-0.2,1.9-0.7,2.7c-0.1-0.2-0.3-0.3-0.5-0.4c-0.3-0.5-0.6-1-1-1.5c-0.2-0.3-0.5-0.6-0.7-0.8c-1.1-1-3.4-1.9-3.7-0.2
			c0.5,0.1,0.9-0.3,1.4-0.2c1.5,0.5,2.2,1.4,3.1,2.1c0,0,0,0.1,0,0.1c0.3,0.4,0.7,0.8,1.1,1.3c-0.4,0.5-0.9,0.8-1.5,1
			c-1.7-2.4-4.1-4-6.6-6.1c-0.9-0.7-2-1.4-2.6-2.2c-0.8-1.1-0.7-2.9-1.3-4.4c-0.4-1.4-1.1-3-1.7-4.3c-0.7-1.6-0.9-3-1-4.5
			c-0.1-0.8-0.1-1.6-0.3-2.4c-0.2-1.1-0.7-2.3-0.4-3.6c0.7-2.2,3.4-4,5-5.4c0.9-0.8,1.9-1.5,2.7-2.2c0.9-0.8,1.8-1.6,2.7-2.3
			c0.4-0.3,0.8-0.5,1.2-0.8c0.1,0,0.2-0.1,0.3-0.2c0.5-0.3,1-0.6,1.4-0.9c1.8-1.4,3.8-3,5.2-5c1.7-2.2,3.6-4.7,6.3-4.7
			c1.2,0,2.5,0.6,3.6,0.8c-0.5,0.3-1.7,0.4-2.2,1.3c0.7,0.3,1.4-0.3,2-0.4c1.2-0.2,2.9-0.3,4.4,0.1c1.9,0.4,3.7,1.6,5.5,2.2
			c4.7,1.7,9.6,2.2,14.4,3.5c3.6,0.9,7.1,1.6,10.5,2c0.1,0,0.3,0,0.4,0l0,0c1.3,0.8,2.9,0.9,4.3,1.5C226.6,32.3,227.8,33.1,229,34.1
			L229,34.1z M176.7,50.5c-0.1-0.3-0.2-0.5,0-0.9C176.9,49.8,176.8,50.4,176.7,50.5z M166.6,45.2c0.4-0.9,2.5-1.9,2.9-2.3
			c-1.1,1-1.9,2.7-2.9,4.1C166.9,46.2,166.4,45.8,166.6,45.2L166.6,45.2z"/>
		<path d="M231.7,52.9c-0.2,0.1-0.1,0.3,0.1,0.3c0.8-0.1,1.6-0.4,2.4-0.7c0.8-0.3,1.6-0.3,2.4-0.6c0,0,0,0,0,0
			c-0.8,0.1-1.5,0-2.3,0.2C233.5,52.3,232.6,52.6,231.7,52.9z"/>
		<path d="M230.6,53c-0.1,0-0.3,0.1-0.4,0.2c-0.1,0.1-0.2,0.1-0.3,0.2c-0.1,0.1,0,0.3,0.1,0.2c0.1,0,0.3,0,0.4-0.1
			c0.1-0.1,0.2-0.2,0.3-0.3C230.8,53.1,230.7,52.9,230.6,53L230.6,53z"/>
	</g>
</g>
</svg>
