<?xml version="1.0" encoding="utf-8"?>
<!-- Generator: Adobe Illustrator 26.0.1, SVG Export Plug-In . SVG Version: 6.00 Build 0)  -->
<svg version="1.1" id="Слой_1" xmlns:xodm="http://www.corel.com/coreldraw/odm/2003"
	 xmlns="http://www.w3.org/2000/svg" xmlns:xlink="http://www.w3.org/1999/xlink" x="0px" y="0px" viewBox="0 0 238.1 150.2"
	 style="enable-background:new 0 0 238.1 150.2;" xml:space="preserve">
<style type="text/css">
	.st0{fill-rule:evenodd;clip-rule:evenodd;}
</style>
<g id="Слой_x0020_1">
	<path class="st0" d="M206,75.1c0,0.1-0.1,0.1-0.1,0.1h-2.6c-0.1,0-0.1-0.1-0.1-0.1c0-0.1,0.1-0.1,0.1-0.1h2.6
		C205.9,75,206,75,206,75.1z M146.8,115.7l0,1c0,0,0,0.1,0,0.1c0,0-0.1,0-0.1,0l-1.1,0c-0.2,0-0.3,0.1-0.3,0.3
		c0,0.1,0.1,0.3,0.3,0.3l1.1,0c0.1,0,0.1,0.1,0.1,0.1l0,1c0,0.1,0.1,0.3,0.3,0.3c0.2,0,0.3-0.1,0.3-0.3c0,0,0-0.7,0-1
		c0,0,0-0.1,0-0.1c0,0,0.1,0,0.1,0l1.1,0c0.2,0,0.3-0.1,0.3-0.3c0-0.1-0.1-0.3-0.3-0.3l-1.1,0c-0.1,0-0.1-0.1-0.1-0.1l0-1
		c0-0.1-0.1-0.3-0.3-0.3C146.9,115.4,146.8,115.6,146.8,115.7L146.8,115.7z M161.6,96.6c0,0,0,1,0,1c0,0,0,0.1,0,0.1
		c0,0-0.1,0-0.1,0l-1.1,0c-0.1,0-0.2,0-0.2,0.1c-0.1,0-0.1,0.1-0.1,0.2c0,0.1,0,0.1,0.1,0.2c0.1,0.1,0.1,0.1,0.2,0.1l1.1,0
		c0.1,0,0.1,0.1,0.1,0.1l0,1c0,0.1,0.1,0.3,0.3,0.3c0.2,0,0.3-0.1,0.3-0.3c0,0,0-0.7,0-1c0,0,0-0.1,0-0.1c0,0,0.1,0,0.1,0l1.1,0
		c0.2,0,0.3-0.1,0.3-0.3c0-0.1-0.1-0.3-0.3-0.3l-1.1,0c-0.1,0-0.1-0.1-0.1-0.1l0-1c0-0.1-0.1-0.3-0.3-0.3c-0.1,0-0.1,0-0.2,0.1
		C161.6,96.4,161.6,96.5,161.6,96.6z M146.8,34.7l0,1c0,0.1-0.1,0.1-0.1,0.1l-1.1,0c-0.2,0-0.3,0.1-0.3,0.3c0,0.1,0.1,0.3,0.3,0.3
		l1.1,0c0,0,0.1,0,0.1,0c0,0,0,0.1,0,0.1l0,1c0,0.1,0.1,0.2,0.3,0.2c0.2,0,0.3-0.1,0.3-0.3l0-1c0-0.1,0.1-0.1,0.1-0.1l1.1,0
		c0.2,0,0.3-0.1,0.3-0.3c0-0.1-0.1-0.3-0.3-0.3l-1.1,0c0,0-0.1,0-0.1,0c0,0-0.1-0.1,0-0.1l0-1c0-0.1-0.1-0.3-0.3-0.3
		C147,34.5,146.8,34.6,146.8,34.7L146.8,34.7z M161.6,53.9l0,1c0,0.1-0.1,0.1-0.1,0.1l-1.1,0c-0.1,0-0.2,0-0.2,0.1
		c-0.1,0.1-0.1,0.1-0.1,0.2c0,0.2,0.1,0.3,0.3,0.3l1.1,0c0,0,0.1,0,0.1,0c0,0,0,0.1,0,0.1l0,1c0,0.1,0.1,0.3,0.3,0.3
		c0.2,0,0.3-0.1,0.3-0.3l0-1c0-0.1,0.1-0.1,0.1-0.1l1.1,0c0.2,0,0.3-0.1,0.3-0.3c0-0.1-0.1-0.3-0.3-0.3l-1.1,0c0,0-0.1,0-0.1,0
		c0,0-0.1-0.1,0-0.1l0-1c0-0.1-0.1-0.3-0.3-0.3C161.8,53.6,161.6,53.7,161.6,53.9z M135.3,38.3l0.1,0.3c0.7,1.7,0.7,1.8,2.7,2.4
		l0.3,0.1c0.1,0,0.1,0.1,0.1,0.1c0,0.1,0,0.1-0.1,0.1l-0.4,0.1c-1.9,0.6-2,0.7-2.6,2.4l-0.1,0.3c0,0.1-0.1,0.1-0.1,0.1
		c-0.1,0-0.1,0-0.1-0.1l-0.1-0.3c-0.7-1.7-0.7-1.8-2.7-2.4l-0.4-0.1c-0.1,0-0.1-0.1-0.1-0.1c0-0.1,0-0.1,0.1-0.1l0.4-0.1
		c1.9-0.6,2-0.7,2.6-2.4l0.1-0.3c0-0.1,0.1-0.1,0.1-0.1C135.2,38.2,135.3,38.2,135.3,38.3z M130.4,41.2L130.4,41.2L130.4,41.2
		c0,0.1,0.1,0.2,0.2,0.3c0.6,0.2,1.1,0.4,1.5,0.5c1.7,0.5,1.7,0.6,2.3,2.1c0.1,0.4,0.3,0.8,0.5,1.4c0,0.1,0.1,0.2,0.3,0.2
		c0.1,0,0.2-0.1,0.3-0.2c0.2-0.5,0.4-1,0.5-1.4c0.6-1.5,0.6-1.6,2.3-2.1c0.4-0.1,0.9-0.3,1.5-0.5c0.1,0,0.2-0.1,0.2-0.2
		c0-0.1-0.1-0.2-0.2-0.2c-0.6-0.2-1.1-0.4-1.5-0.5c-1.7-0.5-1.7-0.6-2.3-2.1c-0.1-0.4-0.3-0.8-0.5-1.4c0-0.1-0.2-0.2-0.3-0.2
		c-0.1,0-0.2,0.1-0.3,0.2c-0.2,0.6-0.4,1-0.5,1.4c-0.6,1.5-0.6,1.6-2.3,2.1c-0.4,0.1-0.9,0.3-1.5,0.5
		C130.4,41,130.4,41.1,130.4,41.2z M135.3,114.9c0,0.1-0.1,0.1-0.1,0.1c-0.1,0-0.1,0-0.1-0.1l-0.1-0.3c-0.7-1.7-0.7-1.8-2.7-2.4
		l-0.4-0.1c-0.1,0-0.1-0.2,0-0.2l0.4-0.1c1.9-0.6,2-0.7,2.6-2.4l0.1-0.3c0-0.1,0.1-0.1,0.1-0.1c0.1,0,0.1,0,0.1,0.1l0.1,0.3
		c0.7,1.7,0.7,1.8,2.6,2.4l0.4,0.1c0.1,0,0.1,0.1,0.1,0.1c0,0.1,0,0.1-0.1,0.1l-0.4,0.1c-1.9,0.6-2,0.7-2.6,2.4
		C135.4,114.6,135.3,114.9,135.3,114.9z M138.2,112.7c0.4-0.1,0.9-0.3,1.5-0.5c0.1,0,0.2-0.1,0.2-0.2c0-0.1-0.1-0.2-0.2-0.2
		c-0.6-0.2-1.1-0.4-1.5-0.5c-1.7-0.5-1.7-0.6-2.3-2.1c-0.1-0.4-0.3-0.8-0.5-1.4c0-0.1-0.2-0.2-0.3-0.2c-0.1,0-0.2,0.1-0.3,0.2
		c-0.2,0.6-0.4,1-0.5,1.4c-0.6,1.5-0.6,1.6-2.3,2.1c-0.4,0.1-0.9,0.3-1.5,0.5c-0.2,0.1-0.2,0.4,0,0.5c0.6,0.2,1.1,0.4,1.5,0.5
		c1.7,0.5,1.7,0.6,2.3,2.1c0.1,0.4,0.3,0.8,0.5,1.4c0,0.1,0.1,0.2,0.3,0.2c0.1,0,0.2-0.1,0.3-0.2c0.2-0.5,0.4-1,0.5-1.4
		C136.5,113.3,136.6,113.2,138.2,112.7L138.2,112.7z M145.2,54.4L145.2,54.4L145.2,54.4L145.2,54.4h7.1c0.2,0,0.3-0.1,0.3-0.3
		c0-0.1-0.1-0.3-0.3-0.3h-6c-0.1,0-0.1,0-0.1-0.1c0,0,0-0.1,0-0.1l7.3-6.6c0.1-0.1,0.1-0.1,0.2,0l2.9,2.6c0.1,0.1,0.1,0.1,0.2,0.1
		s0.1,0,0.2-0.1c0.1-0.1,0.1-0.3,0-0.4l-2.9-2.6c0,0,0-0.1,0-0.1c0,0,0-0.1,0-0.1l6.8-6.2c0.1-0.1,0.1-0.3,0-0.4
		c-0.1-0.1-0.1-0.1-0.2-0.1c-0.1,0-0.1,0-0.2,0.1l-6.8,6.2c-0.1,0.1-0.1,0.1-0.2,0l-2.9-2.6c-0.1-0.1-0.1-0.1-0.2-0.1
		c-0.1,0-0.1,0-0.2,0.1c-0.1,0.1-0.1,0.3,0,0.4l2.9,2.6c0.1,0.1,0.1,0.1,0,0.2l-7.3,6.6c0,0-0.1,0.1-0.2,0c-0.1,0-0.1-0.1-0.1-0.1
		v-5.5c0-0.1-0.1-0.3-0.3-0.3c-0.2,0-0.3,0.1-0.3,0.3v6.4c0,0,0,0.1,0,0.1c0,0.1,0.1,0.1,0.2,0.1C145.2,54.3,145.2,54.4,145.2,54.4
		L145.2,54.4z M160.6,113.4L160.6,113.4L160.6,113.4c0.1,0,0.2,0,0.2-0.1c0.1-0.1,0.1-0.3,0-0.4l-6.8-6.2c-0.1-0.1-0.1-0.1,0-0.2
		l2.9-2.6c0.1-0.1,0.1-0.3,0-0.4c-0.1-0.1-0.1-0.1-0.2-0.1s-0.1,0-0.2,0.1l-2.9,2.6c-0.1,0.1-0.1,0.1-0.2,0l-7.3-6.6
		c0,0-0.1-0.1,0-0.1c0,0,0.1-0.1,0.1-0.1h6c0.2,0,0.3-0.1,0.3-0.3c0-0.1-0.1-0.3-0.3-0.3h-7.1c0,0-0.1,0-0.1,0
		c-0.1,0-0.1,0.1-0.2,0.1c0,0,0,0.1,0,0.1v6.4c0,0.1,0.1,0.3,0.3,0.3c0.2,0,0.3-0.1,0.3-0.3v-5.5c0-0.1,0-0.1,0.1-0.1
		c0.1,0,0.1,0,0.2,0l7.3,6.6c0.1,0.1,0.1,0.1,0,0.2l-2.9,2.6c-0.1,0-0.1,0.1-0.1,0.2c0,0.1,0,0.1,0.1,0.2c0.1,0.1,0.1,0.1,0.2,0.1
		c0.1,0,0.1,0,0.2-0.1l2.9-2.6c0.1-0.1,0.1-0.1,0.2,0l6.8,6.2C160.5,113.4,160.6,113.4,160.6,113.4L160.6,113.4z M45.9,105.2
		c0,0,0-0.7,0-1c0,0,0-0.1,0-0.1c0,0,0.1,0,0.1,0l1.1,0c0.2,0,0.3-0.1,0.3-0.3c0-0.1-0.1-0.3-0.3-0.3l-1.1,0c-0.1,0-0.1-0.1-0.1-0.1
		l0-1c0-0.1-0.1-0.3-0.3-0.3c-0.1,0-0.2,0-0.2,0.1c-0.1,0.1-0.1,0.1-0.1,0.2l0,1c0,0,0,0.1,0,0.1c0,0-0.1,0-0.1,0l-1.1,0
		c-0.2,0-0.3,0.1-0.3,0.3c0,0.1,0.1,0.3,0.3,0.3l1.1,0c0.1,0,0.1,0.1,0.1,0.1l0,1c0,0.1,0.1,0.3,0.3,0.3
		C45.7,105.5,45.9,105.3,45.9,105.2z M63.9,118.5c0,0,0-0.7,0-1c0,0,0-0.1,0-0.1c0,0,0.1,0,0.1,0l1.1,0c0.2,0,0.3-0.1,0.3-0.3
		c0-0.1-0.1-0.3-0.3-0.3l-1.1,0c-0.1,0-0.1-0.1-0.1-0.1l0-1c0-0.1-0.1-0.3-0.3-0.3c-0.2,0-0.3,0.1-0.3,0.3l0,1c0,0,0,0.1,0,0.1
		c0,0-0.1,0-0.1,0l-1.1,0c-0.2,0-0.3,0.1-0.3,0.3c0,0.1,0.1,0.3,0.3,0.3l1.1,0c0.1,0,0.1,0.1,0.1,0.1l0,1c0,0.1,0.1,0.3,0.3,0.3
		C63.8,118.7,63.9,118.6,63.9,118.5L63.9,118.5z M45.8,50.8l0-1c0-0.1,0.1-0.1,0.1-0.1l1.1,0c0.2,0,0.3-0.1,0.3-0.3
		c0-0.1-0.1-0.3-0.3-0.3l-1.1,0c0,0-0.1,0-0.1,0c0,0,0-0.1,0-0.1l0-1c0-0.1-0.1-0.3-0.3-0.3c-0.2,0-0.3,0.1-0.3,0.3l0,1
		c0,0.1-0.1,0.1-0.1,0.1l-1.1,0c-0.1,0-0.2,0-0.2,0.1c-0.1,0.1-0.1,0.1-0.1,0.2c0,0.2,0.1,0.3,0.3,0.3l1.1,0c0,0,0.1,0,0.1,0
		c0,0,0,0.1,0,0.1l0,1c0,0.1,0,0.1,0.1,0.2c0.1,0.1,0.1,0.1,0.2,0.1C45.7,51,45.8,50.9,45.8,50.8z M63.6,37.8c0.2,0,0.3-0.1,0.3-0.3
		l0-1c0-0.1,0.1-0.1,0.1-0.1l1.1,0c0.2,0,0.3-0.1,0.3-0.3c0-0.1-0.1-0.3-0.3-0.3l-1.1,0c0,0-0.1,0-0.1,0c0,0,0-0.1,0-0.1l0-1
		c0-0.1-0.1-0.3-0.3-0.3c-0.2,0-0.3,0.1-0.3,0.3l0,1c0,0.1-0.1,0.1-0.1,0.1l-1.1,0c-0.2,0-0.3,0.1-0.3,0.3c0,0.1,0.1,0.3,0.3,0.3
		l1.1,0c0,0,0.1,0,0.1,0c0,0,0,0.1,0,0.1l0,1C63.3,37.6,63.4,37.8,63.6,37.8z M53,44.2l-0.1-0.3c-0.7-1.7-0.7-1.8-2.7-2.4l-0.4-0.1
		c-0.1,0-0.1-0.1-0.1-0.1c0-0.1,0-0.1,0.1-0.1l0.4-0.1c1.9-0.6,2-0.7,2.7-2.4l0.1-0.3c0-0.1,0.1-0.1,0.1-0.1c0.1,0,0.1,0,0.1,0.1
		l0.1,0.3c0.7,1.7,0.7,1.8,2.7,2.4l0.3,0.1c0.1,0,0.1,0.1,0.1,0.1c0,0.1,0,0.1-0.1,0.1l-0.4,0.1c-1.9,0.6-2,0.7-2.6,2.4l-0.1,0.3
		c0,0.1-0.1,0.1-0.1,0.1C53.1,44.3,53.1,44.3,53,44.2z M53.4,45.4c0.2-0.5,0.4-1,0.5-1.4c0.6-1.5,0.6-1.6,2.3-2.1
		c0.4-0.1,0.9-0.3,1.5-0.5c0.1,0,0.2-0.1,0.2-0.2c0-0.1-0.1-0.2-0.2-0.2c-0.6-0.2-1.1-0.4-1.5-0.5c-1.7-0.5-1.7-0.6-2.3-2.1
		c-0.1-0.4-0.3-0.8-0.5-1.4c0-0.1-0.1-0.2-0.3-0.2c-0.1,0-0.2,0.1-0.3,0.2c-0.2,0.6-0.4,1-0.5,1.4c-0.6,1.5-0.6,1.6-2.3,2.1
		c-0.4,0.1-0.9,0.3-1.5,0.5c-0.1,0-0.2,0.1-0.2,0.2c0,0.1,0.1,0.2,0.2,0.2c0.6,0.2,1.1,0.4,1.5,0.5c1.7,0.5,1.7,0.6,2.3,2.1
		c0.1,0.4,0.3,0.8,0.5,1.4c0,0.1,0.2,0.2,0.3,0.2C53.3,45.6,53.4,45.5,53.4,45.4z M53,114.9l-0.1-0.3c-0.7-1.7-0.7-1.8-2.7-2.4
		l-0.4-0.1c-0.1,0-0.1-0.2,0-0.2l0.4-0.1c1.9-0.6,2-0.7,2.7-2.4L53,109c0-0.1,0.1-0.1,0.1-0.1c0.1,0,0.1,0,0.1,0.1l0.1,0.3
		c0.7,1.7,0.7,1.8,2.6,2.4l0.4,0.1c0.1,0,0.1,0.1,0.1,0.1c0,0.1,0,0.1-0.1,0.1l-0.4,0.1c-1.9,0.6-2,0.7-2.6,2.4l-0.1,0.3
		c0,0.1-0.1,0.1-0.1,0.1C53.1,115,53.1,115,53,114.9z M53.4,116.2c0.2-0.5,0.4-1,0.5-1.4c0.6-1.5,0.6-1.6,2.3-2.1
		c0.4-0.1,0.9-0.3,1.5-0.5c0.1,0,0.2-0.1,0.2-0.2c0-0.1-0.1-0.2-0.2-0.2c-0.6-0.2-1.1-0.4-1.5-0.5c-1.7-0.5-1.7-0.6-2.3-2.1
		c-0.1-0.4-0.3-0.8-0.5-1.4c0-0.1-0.1-0.2-0.3-0.2c-0.1,0-0.2,0.1-0.3,0.2c-0.2,0.6-0.4,1-0.5,1.4c-0.6,1.5-0.6,1.6-2.3,2.1
		c-0.4,0.1-0.9,0.3-1.5,0.5c-0.1,0-0.2,0.1-0.2,0.2c0,0.1,0.1,0.2,0.2,0.2c0.6,0.2,1.1,0.4,1.5,0.5c1.7,0.5,1.7,0.6,2.3,2.1
		c0.1,0.4,0.3,0.8,0.5,1.4c0,0.1,0.2,0.2,0.3,0.2C53.3,116.3,53.4,116.3,53.4,116.2z M100.3,32.5c-0.2,0-0.3,0.1-0.3,0.2
		c0,0.1,0,0.1,0.1,0.2c0.1,0.1,0.1,0.1,0.2,0.1c6.9,0.5,13.4,2.2,19.4,5.2c0,0,0,0,0.1,0l0,0c0,0,0,0,0.1,0l0,0c0,0,0,0,0.1,0l0,0
		c0,0,0,0,0,0l0,0c0-0.1,0-0.2,0-0.2l0-0.1l-4.2-4.2c-0.1-0.1-0.1-0.1-0.2-0.1c-0.1,0-0.2,0-0.2,0.1c-0.1,0-0.1,0.1-0.1,0.2
		c0,0.1,0,0.1,0.1,0.2l2.6,2.6c0,0,0.1,0.1,0,0.2c0,0.1-0.1,0.1-0.2,0C112.3,34.4,106.4,32.9,100.3,32.5z M73.8,38.2
		c6-3,12.6-4.7,19.4-5.2c0.1,0,0.3-0.1,0.3-0.3c0-0.1,0-0.1-0.1-0.2c-0.1,0-0.1-0.1-0.2-0.1c-6.1,0.4-12,1.8-17.5,4.2
		c-0.1,0-0.1,0-0.2,0c0-0.1,0-0.1,0-0.2l2.6-2.6c0-0.1,0.1-0.1,0.1-0.2c0-0.1,0-0.1-0.1-0.2c-0.1,0-0.1-0.1-0.2-0.1
		c-0.1,0-0.1,0-0.2,0.1c-1.4,1.4-4.2,4.2-4.2,4.2c0,0,0,0,0,0.1c0,0,0,0.1,0,0.1c0,0,0,0.1,0,0.1c0,0.1,0,0.1,0.1,0.1
		c0,0,0.1,0,0.1,0.1c0,0,0.1,0,0.1,0C73.7,38.3,73.7,38.3,73.8,38.2C73.8,38.2,73.8,38.2,73.8,38.2L73.8,38.2z M98.3,32.7
		c0,0.8-0.7,1.4-1.6,1.4c-0.9,0-1.6-0.6-1.6-1.4c0-0.8,0.7-1.4,1.6-1.4C97.6,31.2,98.3,31.9,98.3,32.7z M94.6,32.7c0,1.1,1,2,2.2,2
		c1.2,0,2.2-0.9,2.2-2c0-1.1-1-2-2.2-2C95.5,30.7,94.6,31.6,94.6,32.7z M93.2,120.7c0.1,0,0.1,0,0.2-0.1c0.1-0.1,0.1-0.1,0.1-0.2
		c0-0.1-0.1-0.2-0.3-0.3c-6.9-0.5-13.4-2.2-19.4-5.2c0,0,0,0,0,0c0,0,0,0-0.1,0c0,0-0.1,0-0.1,0c0,0-0.1,0-0.1,0.1c0,0,0,0-0.1,0.1
		c0,0,0,0.1,0,0.1c0,0,0,0.1,0,0.1c0,0,0,0,0,0.1c0,0,0.5,0.5,4,4l0.2,0.2c0.1,0.1,0.1,0.1,0.2,0.1c0.1,0,0.1,0,0.2-0.1
		c0.1,0,0.1-0.1,0.1-0.2c0-0.1,0-0.1-0.1-0.2l-2.6-2.6c0,0,0-0.1,0-0.2c0-0.1,0.1-0.1,0.2,0C81.1,118.8,87,120.3,93.2,120.7z
		 M119.7,115c-6,3-12.6,4.7-19.4,5.2c-0.1,0-0.1,0-0.2,0.1c-0.1,0.1-0.1,0.1-0.1,0.2c0,0.1,0.1,0.3,0.3,0.2c6.1-0.4,12-1.8,17.5-4.2
		c0.1,0,0.1,0,0.2,0c0,0.1,0,0.1,0,0.2l-2.6,2.6c-0.1,0.1-0.1,0.1-0.1,0.2c0,0.1,0,0.1,0.1,0.2c0.1,0,0.1,0.1,0.2,0.1
		c0.1,0,0.1,0,0.2-0.1l4.2-4.2c0,0,0,0,0,0c0.1-0.1,0.1-0.2,0-0.3c0,0,0,0,0,0c0,0,0,0,0-0.1c0,0,0,0,0,0c0,0,0,0-0.1,0c0,0,0,0,0,0
		c0,0,0,0-0.1,0L119.7,115C119.7,114.9,119.7,115,119.7,115z M96.7,122c-0.9,0-1.6-0.6-1.6-1.4c0-0.8,0.7-1.4,1.6-1.4
		c0.9,0,1.6,0.6,1.6,1.4C98.3,121.3,97.6,122,96.7,122z M96.7,118.5c-1.2,0-2.2,0.9-2.2,2c0,1.1,1,2,2.2,2c1.2,0,2.2-0.9,2.2-2
		C98.9,119.4,97.9,118.5,96.7,118.5z M51.6,84.6L51.6,84.6c0-0.1-0.1-0.3-0.3-0.3c-0.2,0-0.3,0.1-0.3,0.3c0,0-0.1,2.3-0.1,2.4
		c0,0.1,0.1,0.3,0.3,0.3c0.2,0,0.3-0.1,0.3-0.3C51.6,84.8,51.6,84.6,51.6,84.6z M51.6,68.6L51.6,68.6c0,0,0-0.4-0.3-7
		c0-0.1-0.1-0.3-0.3-0.3c-0.2,0-0.3,0.1-0.3,0.3l0.3,7c0,0.1,0.1,0.3,0.3,0.2C51.5,68.9,51.6,68.8,51.6,68.6z M50.8,89.3l-0.3,6.2
		c0,0.1,0.1,0.3,0.3,0.3c0.2,0,0.3-0.1,0.3-0.3c0.2-4.1,0.3-6.1,0.3-6.2c0-0.1-0.1-0.3-0.3-0.3C50.9,89,50.8,89.1,50.8,89.3z
		 M48.4,84l-3,7.5c0,0.1,0,0.1,0,0.2c0,0.1,0.1,0.1,0.2,0.1c0.1,0,0.2,0,0.2,0c0.1,0,0.1-0.1,0.1-0.1l3-7.5c0.1-0.1,0-0.3-0.2-0.3
		c-0.1,0-0.2,0-0.2,0C48.5,83.9,48.4,84,48.4,84z M44.9,94.4l0.3-0.8c0.1-0.1,0-0.3-0.2-0.3c-0.1,0-0.2,0-0.2,0
		c-0.1,0-0.1,0.1-0.1,0.1l-0.3,0.8c-0.1,0.1,0,0.3,0.2,0.3C44.6,94.6,44.8,94.6,44.9,94.4z M45.6,83.3c0,0.1-0.1,0.1-0.1,0.2
		c0,0.1,0,0.1,0.1,0.2c0.1,0,0.1,0.1,0.2,0.1c0.1,0,0.1,0,0.2-0.1l0.5-0.6c0.1-0.1,0.1-0.3-0.1-0.4c-0.1,0-0.1-0.1-0.2-0.1
		c-0.1,0-0.1,0-0.2,0.1C46.1,82.8,45.6,83.3,45.6,83.3z M45,85c0.1-0.1,0.1-0.3-0.1-0.4c-0.1,0-0.1-0.1-0.2-0.1
		c-0.1,0-0.1,0-0.2,0.1l-5.7,6.8c0,0-0.1,0.1-0.1,0.2c0,0,0,0,0,0c0,0.1,0,0.1,0.1,0.2c0.1,0,0.1,0.1,0.2,0.1c0.1,0,0.1,0,0.2-0.1
		C39.3,91.7,45,85,45,85z M37.1,85.6c-0.1,0-0.1,0.1-0.1,0.2c0,0,0,0,0,0c0,0.1,0,0.1,0.1,0.2c0,0.1,0.1,0.1,0.2,0.1
		c0.1,0,0.2,0,0.2,0l7.3-4.6c0.1-0.1,0.2-0.3,0.1-0.4c0-0.1-0.1-0.1-0.2-0.1c-0.1,0-0.2,0-0.2,0C44.3,81,37.1,85.6,37.1,85.6z
		 M35.6,87.2c0.1-0.1,0.2-0.2,0.1-0.4c-0.1-0.1-0.3-0.1-0.4-0.1l-0.7,0.5c-0.1,0.1-0.2,0.2-0.1,0.4c0.1,0.1,0.3,0.1,0.4,0.1
		C34.9,87.6,35.6,87.2,35.6,87.2z M42.2,79.1c-0.1,0-0.1,0.1-0.2,0.1c0,0,0,0.1,0,0.1c0,0,0,0.1,0,0.1c0,0.1,0.1,0.1,0.1,0.2
		c0.1,0,0.1,0,0.2,0l1.1-0.3c0.1,0,0.2-0.2,0.2-0.3c0-0.1-0.1-0.1-0.1-0.2c-0.1,0-0.1,0-0.2,0L42.2,79.1z M31.8,82
		c-0.2,0-0.2,0.2-0.2,0.3c0,0.1,0.1,0.1,0.1,0.2c0.1,0,0.1,0,0.2,0l8-2.3c0.1,0,0.2-0.2,0.2-0.3c0-0.1-0.1-0.1-0.1-0.2
		c-0.1,0-0.1,0-0.2,0C39.8,79.7,31.8,82,31.8,82z M50.5,57.8l0.1,2c0,0.1,0.1,0.3,0.3,0.2c0.2,0,0.3-0.1,0.3-0.3c0,0,0-0.2-0.1-2
		c0-0.1-0.1-0.3-0.3-0.2C50.6,57.5,50.5,57.6,50.5,57.8z M45.9,61.7c-0.1,0-0.1,0-0.2,0c-0.1,0-0.1,0.1-0.2,0.1c0,0,0,0.1,0,0.1
		c0,0,0,0.1,0,0.1l2.9,7.2c0,0.1,0.1,0.1,0.1,0.1c0.1,0,0.1,0,0.2,0c0.1,0,0.2-0.2,0.2-0.3l-2.9-7.2C46.1,61.8,46,61.7,45.9,61.7z
		 M45.2,59.6l-0.3-0.8c0-0.1-0.1-0.1-0.1-0.1c-0.1,0-0.1,0-0.2,0c-0.1,0-0.1,0.1-0.2,0.1c0,0,0,0.1,0,0.1c0,0,0,0.1,0,0.1l0.3,0.8
		c0,0.1,0.1,0.1,0.1,0.2c0.1,0,0.1,0,0.2,0C45.2,59.9,45.3,59.8,45.2,59.6z M45.5,69.6c0,0.1,0,0.1,0.1,0.2l0.5,0.6
		c0,0.1,0.1,0.1,0.2,0.1c0.1,0,0.2,0,0.2-0.1c0.1-0.1,0.1-0.3,0.1-0.4L46,69.5c0-0.1-0.1-0.1-0.2-0.1s-0.2,0-0.2,0.1
		C45.6,69.5,45.5,69.6,45.5,69.6z M44.4,68.2c0.1,0,0.2,0,0.2-0.1c0.1-0.1,0.1-0.3,0.1-0.4l-5.3-6.3c0-0.1-0.1-0.1-0.2-0.1
		c-0.1,0-0.2,0-0.2,0.1c-0.1,0-0.1,0.1-0.1,0.2c0,0.1,0,0.1,0.1,0.2l5.3,6.3C44.2,68.2,44.3,68.2,44.4,68.2z M37.2,67.1
		c-0.1,0-0.1,0.1-0.2,0.1c0,0-0.1,0.1-0.1,0.1c0,0,0,0,0,0c0,0.1,0.1,0.1,0.1,0.2l7.3,4.6c0.1,0,0.1,0.1,0.2,0
		c0.1,0,0.1-0.1,0.2-0.1c0.1-0.1,0.1-0.3-0.1-0.4l-7.3-4.6C37.3,67.1,37.3,67.1,37.2,67.1z M35.6,66.1l-0.8-0.5
		c-0.1-0.1-0.3-0.1-0.4,0.1c0,0-0.1,0.1-0.1,0.2c0,0,0,0,0,0c0,0.1,0.1,0.1,0.1,0.2l0.8,0.5c0.1,0.1,0.3,0.1,0.4-0.1
		C35.8,66.3,35.8,66.1,35.6,66.1z M41.7,73.7C41.6,73.7,41.6,73.8,41.7,73.7c0,0.2,0.1,0.3,0.2,0.3l1.4,0.4c0.1,0,0.2,0,0.2,0
		c0.1,0,0.1-0.1,0.1-0.2c0-0.1,0-0.3-0.2-0.3L42,73.6c-0.1,0-0.2,0-0.2,0C41.7,73.6,41.7,73.7,41.7,73.7z M31.6,70.9
		C31.6,70.9,31.6,70.9,31.6,70.9c0,0.2,0.1,0.3,0.2,0.3l7.2,2.1c0.1,0,0.2,0,0.2,0c0.1,0,0.1-0.1,0.1-0.2c0-0.1,0-0.3-0.2-0.3
		L32,70.7C31.8,70.6,31.7,70.7,31.6,70.9z M33.7,76.6c0,0.1,0.1,0.3,0.3,0.3h8.9c0.2,0,0.3-0.1,0.3-0.3c0-0.1-0.1-0.3-0.3-0.3H34
		C33.9,76.3,33.7,76.5,33.7,76.6z M30.7,76.6c0,0.1,0.1,0.3,0.3,0.3h1c0.2,0,0.3-0.1,0.3-0.3c0-0.1-0.1-0.3-0.3-0.3h-1
		C30.8,76.3,30.7,76.5,30.7,76.6z M145.5,72.2c0,0.1,0.1,0.3,0.3,0.3h1.4c0.2,0,0.3-0.1,0.3-0.3c0-0.1-0.1-0.3-0.3-0.3h-1.4
		C145.6,71.9,145.5,72,145.5,72.2z M141.8,90.2H152c0.2,0,0.3-0.1,0.3-0.3c0-0.1-0.1-0.3-0.3-0.3h-10.1c-0.2,0-0.3,0.1-0.3,0.3
		C141.6,90.1,141.7,90.2,141.8,90.2L141.8,90.2z M155.8,90.2h1.8c0.2,0,0.3-0.1,0.3-0.3c0-0.1-0.1-0.3-0.3-0.3h-1.8
		c-0.2,0-0.3,0.1-0.3,0.3C155.6,90.1,155.7,90.2,155.8,90.2z M161,90.2h5.2c0.2,0,0.3-0.1,0.3-0.3c0-0.1-0.1-0.3-0.3-0.3H161
		c-0.2,0-0.3,0.1-0.3,0.3C160.7,90.1,160.8,90.2,161,90.2z M150.3,72.2c0,0.1,0.1,0.3,0.3,0.3h18.1c0.2,0,0.3-0.1,0.3-0.3
		c0-0.1-0.1-0.3-0.3-0.3h-18.1C150.4,71.9,150.3,72,150.3,72.2z M144.3,67.7c0,0.1,0.1,0.3,0.3,0.3H163c0.2,0,0.3-0.1,0.3-0.3
		c0-0.1-0.1-0.3-0.3-0.3h-18.5C144.4,67.4,144.3,67.6,144.3,67.7z M166.2,67.7c0,0.1,0.1,0.3,0.3,0.3h1.3c0.2,0,0.3-0.1,0.3-0.3
		c0-0.1-0.1-0.3-0.3-0.3h-1.3C166.3,67.4,166.2,67.6,166.2,67.7z M141.6,63.3c0,0.1,0.1,0.3,0.3,0.3h11.1c0.2,0,0.3-0.1,0.3-0.3
		c0-0.1-0.1-0.3-0.3-0.3h-11.1C141.7,63,141.6,63.1,141.6,63.3z M156.5,63.3c0,0.1,0.1,0.3,0.3,0.3h1.2c0.2,0,0.3-0.1,0.3-0.3
		c0-0.1-0.1-0.3-0.3-0.3h-1.2C156.6,63,156.5,63.1,156.5,63.3z M160.7,63.3c0,0.1,0.1,0.3,0.3,0.3h5.2c0.2,0,0.3-0.1,0.3-0.3
		c0-0.1-0.1-0.3-0.3-0.3H161C160.8,63,160.7,63.1,160.7,63.3z M146,76.6c0,0.1,0.1,0.3,0.3,0.3h18.2c0.2,0,0.3-0.1,0.3-0.3
		c0-0.1-0.1-0.3-0.3-0.3h-18.2C146.1,76.3,146,76.5,146,76.6z M167.5,76.6c0,0.1,0.1,0.3,0.3,0.3h1.2c0.2,0,0.3-0.1,0.3-0.3
		c0-0.1-0.1-0.3-0.3-0.3h-1.2C167.6,76.3,167.5,76.5,167.5,76.6z M145.5,81c0,0.1,0.1,0.3,0.3,0.3h1.4c0.2,0,0.3-0.1,0.3-0.3
		c0-0.1-0.1-0.3-0.3-0.3h-1.4C145.6,80.8,145.5,80.9,145.5,81z M150.6,81c0,0.1,0.1,0.3,0.3,0.3h17.8c0.2,0,0.3-0.1,0.3-0.3
		c0-0.1-0.1-0.3-0.3-0.3h-17.8C150.7,80.8,150.6,80.9,150.6,81z M144.3,85.5c0,0.1,0.1,0.3,0.3,0.3h19c0.2,0,0.3-0.1,0.3-0.3
		c0-0.1-0.1-0.3-0.3-0.3h-19C144.4,85.2,144.3,85.4,144.3,85.5z M166.2,85.5c0,0.1,0.1,0.3,0.3,0.3h1.3c0.2,0,0.3-0.1,0.3-0.3
		c0-0.1-0.1-0.3-0.3-0.3h-1.3C166.3,85.2,166.2,85.4,166.2,85.5z M101,59.7L101,59.7L101,59.7L101,59.7L101,59.7L101,59.7L101,59.7
		L101,59.7L101,59.7L101,59.7L101,59.7L101,59.7L101,59.7L101,59.7C101,59.7,101,59.7,101,59.7l0.4,2.3c0,0.1,0.1,0.1,0.1,0.2
		c0.1,0,0.1,0.1,0.2,0c0.2,0,0.3-0.2,0.2-0.3l-0.4-2.2c0-0.1-0.1-0.1-0.1-0.2c-0.1,0-0.1-0.1-0.2,0c-0.1,0-0.1,0.1-0.2,0.1
		C101.1,59.6,101,59.7,101,59.7L101,59.7z M100.8,57.9c0.1,0,0.1,0.1,0.2,0c0.2,0,0.3-0.2,0.2-0.3l-1.6-8.4c0-0.1-0.1-0.1-0.1-0.2
		c-0.1,0-0.1-0.1-0.2,0c-0.1,0-0.1,0.1-0.2,0.1c0,0,0,0.1,0,0.1c0,0,0,0,0,0l1.6,8.4C100.7,57.8,100.7,57.9,100.8,57.9z M99.3,62.5
		l-3.5-8.8c0-0.1-0.1-0.1-0.1-0.1c-0.1,0-0.1,0-0.2,0c-0.1,0-0.1,0.1-0.2,0.1c0,0,0,0.1,0,0.1c0,0,0,0.1,0,0.1l3.5,8.8
		c0,0.1,0.1,0.1,0.1,0.1c0.1,0,0.1,0,0.2,0C99.2,62.8,99.3,62.6,99.3,62.5z M94.9,51.5l-0.4-1c0-0.1-0.1-0.1-0.1-0.1
		c-0.1,0-0.1,0-0.2,0c-0.1,0-0.1,0.1-0.2,0.1c0,0,0,0.1,0,0.1c0,0,0,0.1,0,0.1l0.4,1c0,0.1,0.1,0.1,0.2,0.1c0.1,0,0.1,0,0.2,0
		C94.8,51.8,94.9,51.6,94.9,51.5z M96.4,63.1l-6.8-10.7c0-0.1-0.1-0.1-0.2-0.1c-0.1,0-0.1,0-0.2,0c-0.1,0-0.1,0.1-0.1,0.2
		c0,0,0,0,0,0.1c0,0,0,0.1,0,0.1l6.8,10.7c0,0.1,0.1,0.1,0.2,0.1c0.1,0,0.2,0,0.2,0C96.4,63.4,96.5,63.3,96.4,63.1z M87.8,58.6
		L87.8,58.6c0,0.1,0,0.1,0.1,0.2l4.9,5.3c0.1,0.1,0.3,0.1,0.4,0c0.1-0.1,0.1-0.3,0-0.4l-4.9-5.3c0-0.1-0.1-0.1-0.2-0.1
		c-0.1,0-0.1,0-0.2,0.1C87.8,58.5,87.8,58.6,87.8,58.6z M84.8,55.4L84.8,55.4c0,0.1,0,0.1,0.1,0.2l0.8,0.9c0,0.1,0.1,0.1,0.2,0.1
		c0.1,0,0.2,0,0.2-0.1c0.1-0.1,0.1-0.3,0-0.4l-0.8-0.9c-0.1-0.1-0.1-0.1-0.2-0.1c-0.1,0-0.1,0-0.2,0.1
		C84.8,55.2,84.8,55.3,84.8,55.4z M88.2,64.3L88.2,64.3c0,0.1,0,0.2,0.1,0.2l0.8,0.6c0.1,0,0.1,0.1,0.2,0.1c0.1,0,0.1,0,0.2-0.1
		c0.1-0.1,0.1-0.3,0-0.4l-0.8-0.6c-0.1,0-0.1-0.1-0.2-0.1c-0.1,0-0.1,0-0.2,0.1C88.2,64.2,88.2,64.2,88.2,64.3z M81,58.8L81,58.8
		c0,0.1,0,0.2,0.1,0.2l5.9,4.5c0.1,0,0.1,0.1,0.2,0.1c0.1,0,0.1,0,0.2-0.1c0.1-0.1,0.1-0.3,0-0.4l-5.9-4.5c-0.1,0-0.1-0.1-0.2-0.1
		c-0.1,0-0.1,0-0.2,0.1C81,58.7,81,58.7,81,58.8z M81.1,64c-0.1,0-0.1,0.1-0.2,0.1c0,0,0,0.1,0,0.1c0,0,0,0,0,0.1
		c0,0.1,0.1,0.1,0.1,0.2l3.2,1.7c0.1,0,0.1,0,0.2,0c0.1,0,0.1-0.1,0.2-0.1c0.1-0.1,0-0.3-0.1-0.4l-3.2-1.7C81.3,64,81.2,64,81.1,64z
		 M79.5,63.4c0.1-0.1,0-0.3-0.1-0.4l-1-0.5c-0.1,0-0.1,0-0.2,0c-0.1,0-0.1,0.1-0.2,0.1c0,0,0,0.1,0,0.1c0,0,0,0,0,0.1
		c0,0.1,0.1,0.1,0.1,0.2l1,0.5c0.1,0,0.1,0,0.2,0C79.4,63.5,79.4,63.5,79.5,63.4z M75.7,67.1L75.7,67.1L75.7,67.1L75.7,67.1
		c0,0.1,0.1,0.2,0.2,0.3l1.5,0.5c0.1,0,0.2,0,0.2,0c0.1,0,0.1-0.1,0.1-0.1c0.1-0.1,0-0.3-0.2-0.3l-1.5-0.5c-0.1,0-0.2,0-0.2,0
		C75.8,66.9,75.8,67,75.7,67.1C75.7,67.1,75.7,67.1,75.7,67.1L75.7,67.1z M133.5,67c0-0.1-0.1-0.1-0.1-0.1c-0.1,0-0.1,0-0.2,0
		l-3.7,1.2c-0.1,0-0.1,0.1-0.2,0.1c0,0,0,0.1,0,0.1c0,0,0,0.1,0,0.1c0,0.1,0.1,0.1,0.1,0.1c0.1,0,0.1,0,0.2,0l3.7-1.2
		C133.5,67.3,133.5,67.2,133.5,67L133.5,67z M125.5,69.6L125.5,69.6L125.5,69.6L125.5,69.6L125.5,69.6L125.5,69.6L125.5,69.6
		L125.5,69.6C125.5,69.6,125.5,69.6,125.5,69.6c0,0.2,0.1,0.2,0.2,0.2c0.1,0,0.1,0,0.2,0l1.3-0.4c0.1,0,0.2-0.2,0.2-0.3
		c0-0.1-0.1-0.1-0.1-0.1c-0.1,0-0.1,0-0.2,0l-1.3,0.4c-0.1,0-0.1,0.1-0.2,0.1C125.5,69.5,125.5,69.5,125.5,69.6L125.5,69.6z
		 M131.2,62.6c0-0.1-0.1-0.1-0.2-0.1c-0.1,0-0.2,0-0.2,0l-1,0.5c-0.1,0-0.1,0.1-0.1,0.2c0,0,0,0,0,0.1c0,0,0,0.1,0,0.1
		c0,0.1,0.1,0.1,0.2,0.1c0.1,0,0.1,0,0.2,0l1-0.5C131.2,62.9,131.3,62.7,131.2,62.6L131.2,62.6z M122.5,67L122.5,67L122.5,67
		L122.5,67L122.5,67L122.5,67L122.5,67c0,0.1,0,0.1,0,0.1c0,0.1,0.1,0.1,0.2,0.1c0.1,0,0.2,0,0.2,0l4.9-2.6c0.1-0.1,0.2-0.2,0.1-0.4
		c0-0.1-0.1-0.1-0.2-0.1c-0.1,0-0.2,0-0.2,0l-4.9,2.6C122.6,66.9,122.5,66.9,122.5,67C122.5,67,122.5,67,122.5,67z M126,60
		c0,0.1,0,0.1,0.1,0.2c0,0.1,0.1,0.1,0.2,0.1c0.1,0,0.2,0,0.2-0.1l1.6-1.2c0.1-0.1,0.1-0.3,0-0.4c0-0.1-0.1-0.1-0.2-0.1
		c-0.1,0-0.1,0-0.2,0.1l-1.6,1.2C126.1,59.9,126,59.9,126,60z M122.3,57.1c0,0.1,0,0.2,0.1,0.2c0.1,0.1,0.3,0.1,0.4,0l1.6-1.7
		c0.1-0.1,0.1-0.3,0-0.4c-0.1-0.1-0.3-0.1-0.4,0l-1.6,1.7C122.3,57,122.3,57,122.3,57.1L122.3,57.1z M120,52.4c-0.1,0-0.1,0-0.2,0
		c-0.1,0-0.1,0.1-0.2,0.1l-2.3,3.6c0,0,0,0.1,0,0.1c0,0,0,0,0,0.1c0,0.1,0.1,0.1,0.1,0.2c0.1,0,0.1,0,0.2,0c0.1,0,0.1-0.1,0.2-0.1
		l2.3-3.6C120.2,52.6,120.1,52.5,120,52.4L120,52.4z M116.3,58.8l0.6-0.9c0.1-0.1,0-0.3-0.1-0.4c-0.1,0-0.1,0-0.2,0
		c-0.1,0-0.1,0.1-0.2,0.1l-0.6,0.9c0,0,0,0.1,0,0.1c0,0,0,0,0,0.1c0,0.1,0.1,0.1,0.1,0.2c0.1,0,0.1,0,0.2,0
		C116.2,58.9,116.2,58.8,116.3,58.8L116.3,58.8z M114.3,51.6L114.3,51.6L114.3,51.6L114.3,51.6L114.3,51.6c0,0.1,0.1,0.2,0.2,0.3
		c0.1,0,0.1,0,0.2,0c0.1,0,0.1-0.1,0.1-0.1l0.4-1c0.1-0.1,0-0.3-0.2-0.3c-0.1,0-0.1,0-0.2,0c-0.1,0-0.1,0.1-0.2,0.1L114.3,51.6
		C114.3,51.5,114.3,51.5,114.3,51.6z M111.6,59.8l2.6-6.5c0.1-0.1,0-0.3-0.2-0.3c-0.1,0-0.1,0-0.2,0c-0.1,0-0.1,0.1-0.1,0.1
		l-2.6,6.5c0,0.1,0,0.1,0,0.2c0,0.1,0.1,0.1,0.2,0.1c0.1,0,0.2,0,0.2,0C111.6,59.9,111.6,59.9,111.6,59.8z M108,60.6l2.2-11.2
		c0-0.2-0.1-0.3-0.2-0.3c-0.1,0-0.2,0-0.2,0c-0.1,0-0.1,0.1-0.1,0.2l-2.2,11.2c0,0,0,0,0,0.1c0,0.1,0,0.1,0.1,0.1
		c0,0.1,0.1,0.1,0.2,0.1c0.1,0,0.2,0,0.2,0C107.9,60.7,108,60.7,108,60.6z M104.9,49.7v-0.8c0-0.1-0.1-0.3-0.3-0.3
		c-0.2,0-0.3,0.1-0.3,0.3v0.8c0,0.1,0.1,0.3,0.3,0.3C104.8,50,104.9,49.9,104.9,49.7z M104.9,61.3v-9.7c0-0.1-0.1-0.3-0.3-0.3
		c-0.2,0-0.3,0.1-0.3,0.3v9.7c0,0.1,0.1,0.3,0.3,0.3C104.8,61.5,104.9,61.4,104.9,61.3z M101.8,91c-0.1,0-0.2,0-0.2,0
		c-0.1,0-0.1,0.1-0.1,0.2l-0.8,4.2c0,0,0,0,0,0.1c0,0.1,0,0.1,0,0.1c0,0.1,0.1,0.1,0.2,0.1c0.1,0,0.2,0,0.2,0c0.1,0,0.1-0.1,0.1-0.2
		l0.8-4.2C102.1,91.1,102,91,101.8,91z M99.1,104c0,0.1,0.1,0.1,0.2,0.1c0.1,0,0.2,0,0.2,0c0.1,0,0.1-0.1,0.1-0.2l1.3-6.5
		c0-0.2-0.1-0.3-0.2-0.3c-0.1,0-0.2,0-0.2,0c-0.1,0-0.1,0.1-0.1,0.2l-1.3,6.5C99,103.9,99,104,99.1,104z M95.1,99.8L95.1,99.8
		c0,0,0,0.1,0,0.1c0,0.1,0.1,0.1,0.2,0.1c0.1,0.1,0.3,0,0.4-0.2l3.7-9.2c0.1-0.1,0-0.3-0.2-0.3c-0.1-0.1-0.3,0-0.4,0.2L95.1,99.8
		C95.1,99.7,95.1,99.7,95.1,99.8z M94.5,102.7c0,0,0.3-0.7,0.3-0.7c0.1-0.1,0-0.3-0.2-0.3c-0.1,0-0.2,0-0.2,0
		c-0.1,0-0.1,0.1-0.1,0.1l-0.3,0.7c-0.1,0.1,0,0.3,0.2,0.3c0.1,0,0.1,0,0.2,0C94.4,102.8,94.4,102.8,94.5,102.7z M95.1,91.2
		L95.1,91.2L95.1,91.2L95.1,91.2L95.1,91.2L95.1,91.2L95.1,91.2C95.1,91.2,95.1,91.2,95.1,91.2c0,0.1,0.1,0.2,0.1,0.2
		c0.1,0,0.1,0,0.2,0c0.1,0,0.1-0.1,0.2-0.1l0.8-1.3c0.1-0.1,0-0.3-0.1-0.4c-0.1,0-0.1,0-0.2,0c-0.1,0-0.1,0.1-0.2,0.1l-0.8,1.3
		C95.1,91.1,95.1,91.2,95.1,91.2z M89.1,100.7c0,0.1,0.1,0.1,0.1,0.2c0.1,0,0.1,0,0.2,0c0.1,0,0.1-0.1,0.2-0.1l4.8-7.6
		c0.1-0.1,0-0.3-0.1-0.4c-0.1,0-0.1,0-0.2,0c-0.1,0-0.1,0.1-0.2,0.1l-4.8,7.6C89.1,100.5,89.1,100.6,89.1,100.7z M87.1,95.3
		c0,0.1,0,0.2,0.1,0.2c0.1,0,0.1,0.1,0.2,0.1c0.1,0,0.1,0,0.2-0.1l5.6-6.1c0.1-0.1,0.1-0.3,0-0.4c-0.1,0-0.1-0.1-0.2-0.1
		c-0.1,0-0.1,0-0.2,0.1l-5.6,6.1C87.1,95.2,87.1,95.2,87.1,95.3z M86.1,96.7c-0.1,0-0.1-0.1-0.2-0.1c-0.1,0-0.1,0-0.2,0.1l-0.8,0.9
		c0,0-0.1,0.1-0.1,0.2c0,0.1,0,0.2,0.1,0.2c0.1,0,0.1,0.1,0.2,0.1c0.1,0,0.1,0,0.2-0.1l0.8-0.9C86.2,97,86.2,96.8,86.1,96.7z
		 M81,94.4L81,94.4c0,0.1,0,0.1,0.1,0.2c0,0.1,0.1,0.1,0.2,0.1c0.1,0,0.1,0,0.2-0.1l8-6.1c0.1-0.1,0.1-0.3,0-0.4
		c0-0.1-0.1-0.1-0.2-0.1c-0.1,0-0.1,0-0.2,0.1l-8,6.1C81,94.2,81,94.3,81,94.4z M84.7,87.1c0-0.1-0.1-0.1-0.2-0.1
		c-0.1,0-0.2,0-0.2,0l-2.8,1.5c-0.1,0-0.1,0.1-0.1,0.2c0,0,0,0,0,0.1c0,0,0,0.1,0,0.1c0,0.1,0.1,0.1,0.2,0.1c0.1,0,0.1,0,0.2,0
		l2.8-1.5C84.7,87.4,84.8,87.2,84.7,87.1z M79.5,89.8c0-0.1-0.1-0.1-0.2-0.1c-0.1,0-0.1,0-0.2,0l-1,0.5c-0.1,0-0.1,0.1-0.1,0.2
		c0,0,0,0,0,0.1c0,0,0,0.1,0,0.1c0,0.1,0.1,0.1,0.2,0.1c0.1,0,0.2,0,0.2,0l1-0.5C79.5,90.1,79.5,89.9,79.5,89.8z M75.7,86.1
		L75.7,86.1L75.7,86.1L75.7,86.1L75.7,86.1L75.7,86.1C75.7,86.1,75.7,86.1,75.7,86.1c0,0.2,0.1,0.2,0.2,0.2c0.1,0,0.1,0,0.2,0
		l1.5-0.5c0.1,0,0.2-0.2,0.2-0.3c0-0.1-0.1-0.1-0.1-0.1c-0.1,0-0.1,0-0.2,0l-1.5,0.5c-0.1,0-0.1,0.1-0.2,0.1
		C75.7,86,75.7,86,75.7,86.1L75.7,86.1z M126,83.7C126,83.7,126,83.8,126,83.7c0,0.2,0.1,0.3,0.2,0.3l6.9,2.3c0.1,0,0.2,0,0.2,0
		c0.1,0,0.1-0.1,0.1-0.1c0.1-0.1,0-0.3-0.2-0.3l-6.9-2.3c-0.1,0-0.2,0-0.2,0C126.1,83.6,126.1,83.6,126,83.7L126,83.7z M129.5,89.8
		L129.5,89.8L129.5,89.8L129.5,89.8L129.5,89.8L129.5,89.8L129.5,89.8C129.5,89.8,129.5,89.9,129.5,89.8c0,0.1,0.1,0.2,0.1,0.2
		l1.2,0.6c0.1,0,0.1,0,0.2,0c0.1,0,0.1-0.1,0.2-0.1c0.1-0.1,0-0.3-0.1-0.4l-1.2-0.6c-0.1,0-0.1,0-0.2,0c-0.1,0-0.1,0.1-0.2,0.1
		C129.5,89.7,129.5,89.8,129.5,89.8L129.5,89.8z M122.7,85.9c-0.1,0-0.1,0.1-0.2,0.1c0,0,0,0.1,0,0.1c0,0,0,0,0,0.1
		c0,0.1,0.1,0.1,0.1,0.2l4.7,2.5c0.1,0,0.1,0,0.2,0c0.1,0,0.1-0.1,0.2-0.1c0.1-0.1,0-0.3-0.1-0.4l-4.7-2.5
		C122.9,85.9,122.8,85.9,122.7,85.9z M128.1,94.2l-1.6-1.2c-0.1,0-0.1-0.1-0.2-0.1c-0.1,0-0.1,0-0.2,0.1c0,0.1-0.1,0.1-0.1,0.2
		c0,0.1,0,0.1,0.1,0.2l1.6,1.2c0.1,0,0.1,0.1,0.2,0.1c0.1,0,0.1,0,0.2-0.1C128.2,94.5,128.2,94.3,128.1,94.2z M122.3,96.1
		c0,0.1,0,0.1,0.1,0.2l1.6,1.7c0.1,0.1,0.3,0.1,0.4,0c0.1-0.1,0.1-0.3,0-0.4l-1.6-1.7c-0.1-0.1-0.3-0.1-0.4,0
		C122.4,96,122.3,96,122.3,96.1C122.3,96.1,122.3,96.1,122.3,96.1z M116.1,94.3c-0.1,0-0.2,0-0.2,0c-0.1,0-0.1,0.1-0.1,0.2
		c0,0,0,0,0,0.1c0,0,0,0.1,0,0.1l3.8,6c0,0.1,0.1,0.1,0.2,0.1c0.1,0,0.1,0,0.2,0c0.1-0.1,0.2-0.2,0.1-0.4l-3.8-6
		C116.2,94.4,116.2,94.3,116.1,94.3z M114.3,101.5L114.3,101.5L114.3,101.5L114.3,101.5L114.3,101.5L114.3,101.5
		C114.3,101.5,114.3,101.5,114.3,101.5l0.5,1.2c0,0.1,0.1,0.1,0.1,0.1c0.1,0,0.1,0,0.2,0c0.1-0.1,0.2-0.2,0.2-0.3l-0.5-1.2
		c-0.1-0.1-0.2-0.2-0.4-0.2c-0.1,0-0.1,0.1-0.2,0.1C114.3,101.4,114.3,101.4,114.3,101.5L114.3,101.5z M111.1,93.4c0,0,0,0.1,0,0.1
		c0,0,0,0.1,0,0.1l2.3,5.7c0,0.1,0.1,0.1,0.1,0.1c0.1,0,0.1,0,0.2,0c0.1,0,0.2-0.2,0.2-0.3l-2.3-5.7c0-0.1-0.1-0.1-0.1-0.1
		c-0.1,0-0.1,0-0.2,0C111.2,93.3,111.1,93.3,111.1,93.4z M107.4,92.6L107.4,92.6L107.4,92.6L107.4,92.6L107.4,92.6L107.4,92.6
		C107.4,92.7,107.4,92.7,107.4,92.6l2.2,11.3c0,0.1,0.1,0.1,0.1,0.2c0.1,0,0.1,0.1,0.2,0c0.2,0,0.3-0.2,0.2-0.3L108,92.6
		c0-0.1-0.1-0.1-0.1-0.2c-0.1,0-0.1-0.1-0.2,0c-0.1,0-0.1,0.1-0.2,0.1C107.4,92.5,107.4,92.6,107.4,92.6z M104.9,104.3v-0.9
		c0-0.1-0.1-0.3-0.3-0.3c-0.2,0-0.3,0.1-0.3,0.3v0.9c0,0.1,0.1,0.3,0.3,0.3C104.8,104.6,104.9,104.4,104.9,104.3z M104.9,100.8v-8.9
		c0-0.1-0.1-0.3-0.3-0.3c-0.2,0-0.3,0.1-0.3,0.3v8.9c0,0.1,0.1,0.3,0.3,0.3C104.8,101.1,104.9,100.9,104.9,100.8z M54.9,67.9
		L54.9,67.9L54.9,67.9z M96.7,115.6L96.7,115.6L96.7,115.6L96.7,115.6L96.7,115.6c2.6,0,5.1-0.2,7.6-0.6c-2.6-1.2-5.9-4.1-7.3-5.8
		c-0.9-0.2-1.9-0.4-2.8-0.6c0.7,1.6,1.5,4.8,1.7,7l0.2,0l0,0l0,0l0,0c0,0,0,0,0,0l0.1,0v0C96.5,115.6,96.6,115.6,96.7,115.6z
		 M59.8,79.7c-0.7,2-2.5,4.6-4.9,5.6c-0.6-2.3-0.9-4.6-1-6.9L59.8,79.7z M53.9,74.9c0.1-2.3,0.4-4.7,1-6.9c2.4,1,4.2,3.6,4.9,5.6
		L53.9,74.9z M62.1,80.2c-0.1,3.2-2.2,8.6-5.5,10.1c-0.6-1.4-1-2.9-1.4-4.3c2.8-1,4.8-3.9,5.6-6.2C60.7,79.9,62.1,80.2,62.1,80.2z
		 M60.7,73.3c-0.7-2.2-2.7-5.1-5.6-6.2c0.4-1.4,0.9-2.9,1.5-4.3c3.3,1.5,5.4,6.9,5.5,10.1L60.7,73.3z M64.5,71.5c0,0.3,0,0.7,0,1
		L63,72.8c-0.1-3.4-2.4-9.1-6.1-10.7c0.6-1.3,1.3-2.7,2.1-4.1C62.3,60.7,64.5,67.1,64.5,71.5z M64.5,81.8c0,4.3-2.2,10.8-5.5,13.5
		c-0.8-1.4-1.5-2.8-2.1-4.1c3.7-1.6,5.9-7.3,6.1-10.7l1.5,0.4C64.5,81.1,64.5,81.4,64.5,81.8z M64.7,86.5L64.7,86.5L64.7,86.5
		C64.7,86.5,64.7,86.5,64.7,86.5z M69.4,67.2c-0.5,1.4-0.8,2.9-1.1,4.4l-3,0.7c0-0.3,0-0.5,0-0.7c0-1.4-0.2-3.1-0.7-4.8
		C66.1,66.6,68.4,67,69.4,67.2z M69.4,86.1c-0.9,0.2-3.3,0.5-4.7,0.5c0.4-1.7,0.7-3.4,0.7-4.8c0-0.2,0-0.5,0-0.7l3,0.7
		C68.6,83.1,68.9,84.6,69.4,86.1z M72.3,92.4c-3.2-0.1-7.3-2.2-8.5-2.8c0.3-0.7,0.6-1.5,0.8-2.2c1.5,0.1,4.1-0.3,5.2-0.5
		C70.4,88.7,71.2,90.6,72.3,92.4z M72.3,60.8c-1,1.8-1.9,3.6-2.6,5.5c-1-0.2-3.7-0.6-5.2-0.5c-0.2-0.8-0.5-1.5-0.8-2.3
		C64.9,63,69.1,60.9,72.3,60.8z M76.9,54.8c-1.5,1.6-2.9,3.4-4.1,5.3c-3.4-0.2-8,2.1-9.4,2.8c-0.2-0.5-0.4-0.9-0.6-1.4
		C65.3,57.7,72.1,55.1,76.9,54.8z M76.9,98.4c-4.8-0.3-11.6-3-14.1-6.8c0.2-0.4,0.4-0.8,0.6-1.3c1.4,0.7,5.9,3,9.4,2.8
		C74,95,75.4,96.8,76.9,98.4z M80.7,111.7c0,0.4-0.1,0.8-0.2,1.1c-8.9-3.3-16.4-9.2-21.1-16.8c0.3-0.2,0.6-0.5,0.9-0.8
		c5,5.5,9.5,7.4,14.3,9.4l0.4,0.2c3.5,1.4,4.8,3.8,5.3,5.1C80.6,110.5,80.7,111.1,80.7,111.7z M80.7,41.5c0,0.6-0.1,1.3-0.4,1.9
		c-0.5,1.3-1.8,3.6-5.3,5.1l-0.4,0.2c-4.8,2-9.4,3.9-14.3,9.4c-0.3-0.3-0.6-0.6-0.9-0.8c4.7-7.6,12.2-13.6,21.1-16.8
		C80.7,40.7,80.7,41.1,80.7,41.5z M87,114.1l-1-8.8L87,114.1z M87,114.1c0,0.2,0,0.3,0,0.5c-1.9-0.4-3.8-0.9-5.6-1.5
		c0.2-0.4,0.2-0.8,0.2-1.4c0-0.7-0.1-1.5-0.4-2.2c-0.5-1.4-2-4-5.8-5.6l-0.4-0.2c-4.8-2-9.3-3.8-14.1-9.3c0.5-0.6,1-1.3,1.4-2
		c3.1,4.1,10.5,6.8,15.4,6.8c2,2,4.2,3.7,6.6,5.1l0,0l0,0C86.3,106.7,87,111.5,87,114.1z M87,39.1c0,2.7-0.7,7.4-2.6,9.6l0,0l0,0
		c-2.4,1.4-4.6,3.2-6.7,5.1c-5,0-12.4,2.7-15.5,6.8c-0.4-0.7-0.9-1.4-1.4-2c4.9-5.4,9.4-7.3,14.1-9.3l0.4-0.2
		c3.8-1.6,5.2-4.2,5.8-5.6c0.3-0.7,0.4-1.5,0.4-2.2c0-0.5-0.1-1-0.2-1.4c1.8-0.6,3.7-1.1,5.6-1.5C87,38.7,87,38.9,87,39.1z
		 M95.1,37.6c-0.3,2.6-1.4,6.3-2,7.3c-2.4,0.7-4.8,1.7-7,2.9c1.3-2.4,1.8-6.1,1.8-8.7c0-0.2,0-0.5,0-0.7
		C90.2,38,92.6,37.7,95.1,37.6z M95.1,115.6c-2.4-0.1-4.9-0.4-7.2-0.8c0-0.2,0-0.4,0-0.7c0-2.6-0.6-6.3-1.8-8.7
		c2.2,1.2,4.6,2.2,7,2.9C93.7,109.3,94.8,113,95.1,115.6C95.1,115.6,95.1,115.6,95.1,115.6z M104.3,38.2l-6,38.2L104.3,38.2z
		 M104.3,38.2c-2.6,1.2-5.9,4.1-7.3,5.8c-0.9,0.2-1.8,0.4-2.8,0.6c0.7-1.6,1.5-4.8,1.8-7l0.2,0c0.2,0,0.4,0,0.5,0
		C99.3,37.6,101.8,37.8,104.3,38.2z M115.8,111.6l-7.5-1.8L115.8,111.6z M115.8,111.6c-3.1,1.4-6.4,2.5-9.8,3.1
		c-1.9-0.2-5.6-3.2-7.6-5.2c2,0.3,4.1,0.5,6.2,0.5c0.5,0,1.1,0,1.6,0C109,111.1,112.5,111.7,115.8,111.6z M115.8,41.7
		c-3.3-0.1-6.8,0.4-9.6,1.6c-0.6,0-1.1,0-1.6,0c-2.1,0-4.2,0.2-6.2,0.5c2-2,5.7-5,7.6-5.2C109.4,39.2,112.7,40.2,115.8,41.7z
		 M80.8,76.6c0,0.2,0.1,0.3,0.2,0.4l8,3.3c0.2,0.1,0.5,0,0.6-0.2c0-0.1,0-0.1,0-0.2c0-0.2-0.1-0.3-0.3-0.4l-7.1-2.9l2.3-1
		c0.2-0.1,0.3-0.2,0.3-0.4c0-0.1,0-0.1,0-0.2c-0.1-0.2-0.4-0.3-0.6-0.2L81,76.2C80.9,76.3,80.8,76.4,80.8,76.6z M91.7,81.1
		c0,0.2,0.1,0.3,0.3,0.4l1.3,0.5c0.2,0.1,0.5,0,0.6-0.2c0-0.1,0-0.1,0-0.2c0-0.2-0.1-0.3-0.3-0.4l-1.3-0.5c-0.2-0.1-0.5,0-0.6,0.2
		C91.7,81,91.7,81,91.7,81.1z M85.9,74.5c0,0.1,0,0.1,0,0.2c0.1,0.2,0.4,0.3,0.6,0.2c0.8-0.3,19.3-7.9,19.3-7.9
		c0.2-0.1,0.3-0.2,0.3-0.4c0-0.1,0-0.1,0-0.2c-0.1-0.2-0.4-0.3-0.6-0.2l-19.3,7.9C86,74.2,85.9,74.3,85.9,74.5z M106.8,65.9
		c0,0.1,0,0.1,0,0.2c0,0.1,0.1,0.2,0.3,0.2c0.1,0,0.2,0,0.3,0L108,66c0.2-0.1,0.3-0.2,0.3-0.4c0-0.1,0-0.1,0-0.2
		c-0.1-0.2-0.4-0.3-0.6-0.2l-0.6,0.2c-0.1,0-0.2,0.1-0.2,0.2C106.9,65.8,106.8,65.8,106.8,65.9z M98.9,83.4c-0.2-0.1-0.5,0-0.6,0.2
		c0,0.1,0,0.1,0,0.2c0,0.2,0.1,0.3,0.3,0.4l20.9,8.6L50.2,76.6l69.3-16.2l-9,3.7c-0.2,0.1-0.3,0.2-0.3,0.4c0,0.1,0,0.1,0,0.2
		c0.1,0.2,0.4,0.3,0.6,0.2l12.5-5.2l-5.6,11.2l-0.7,0c-6.8,0-14.4,2-20.3,5.4c-0.1,0.1-0.2,0.2-0.2,0.3c0,0.2,0.1,0.3,0.2,0.3
		c5.9,3.4,13.4,5.4,20.3,5.4h0.7l5.6,11.2L98.9,83.4L98.9,83.4z M132,98.8c-3.7,4.8-8.5,8.9-14.1,11.7c-2.1,0.3-5.9,0.4-9.6-0.7
		C117.5,109,125.9,105.1,132,98.8L132,98.8z M132.1,54.5c-6.1-6.3-14.5-10.3-23.8-11.1c3.7-1.1,7.5-1.1,9.6-0.7
		C123.5,45.6,128.4,49.7,132.1,54.5z M107.3,77.9c0,0.1,0,0.2,0.1,0.3c0.1,0.1,0.2,0.1,0.3,0.2c0.6,0,1.2,0.1,1.9,0.1
		c0.1,0,0.2,0,0.3-0.1c0.1-0.1,0.1-0.2,0.2-0.3c0-0.2-0.2-0.4-0.4-0.4c-0.6,0-1.2-0.1-1.8-0.1C107.5,77.5,107.3,77.6,107.3,77.9
		C107.3,77.9,107.3,77.9,107.3,77.9z M139.1,81.5l-21.9,0c-5.8,0-12.3-1.5-17.6-4.1c1.8,0.3,3.4,0.5,5,0.6c0.2,0,0.5-0.1,0.5-0.4
		l0,0c0-0.2-0.2-0.4-0.4-0.4c-2-0.2-4-0.5-6.3-0.8c5.6-3,12.6-4.7,18.8-4.7h21.9v6.1l-23.5,0c-0.2,0-0.5,0.2-0.5,0.4
		c0,0.2,0.2,0.4,0.5,0.4h23.5L139.1,81.5L139.1,81.5z M7.4,79.5v-1.4h0.4c0.1,0,0.1-0.1,0.1-0.1c0-0.1-0.1-0.1-0.1-0.1H7.4v-1.4
		c0-0.1-0.1-0.1-0.1-0.1c-0.1,0-0.1,0.1-0.1,0.1v1.4H6.7c-0.1,0-0.1,0.1-0.1,0.1c0,0.1,0.1,0.1,0.1,0.1h0.4v1.4
		c0,0.1,0.1,0.1,0.1,0.1C7.3,79.6,7.4,79.6,7.4,79.5z M5.9,136l-0.2-0.4c0-0.1-0.1-0.1-0.2-0.1c-0.1,0-0.1,0.1-0.1,0.2l0.2,0.4
		c0,0.1,0.1,0.1,0.2,0.1C5.9,136.2,6,136.1,5.9,136L5.9,136z M7.3,139l-0.8-1.8c0-0.1-0.1-0.1-0.2-0.1c-0.1,0-0.1,0.1-0.1,0.2
		l0.8,1.8c0,0.1,0.1,0.1,0.2,0.1C7.3,139.1,7.3,139.1,7.3,139z M16.3,145.8l0.5,0.2c0.1,0,0.2,0,0.2-0.1c0-0.1,0-0.1-0.1-0.2
		l-0.5-0.2c-0.1,0-0.2,0-0.2,0.1C16.2,145.7,16.2,145.8,16.3,145.8z M13,144.6l2,0.7c0.1,0,0.2,0,0.2-0.1c0-0.1,0-0.1-0.1-0.2
		l-2-0.7c-0.1,0-0.2,0-0.2,0.1C12.9,144.5,13,144.5,13,144.6z M12.1,136.1l0.3-0.6c0-0.1,0-0.1-0.1-0.2c-0.1,0-0.2,0-0.2,0.1
		l-0.3,0.6c0,0.1,0,0.1,0.1,0.2C12,136.2,12.1,136.2,12.1,136.1L12.1,136.1z M10.7,139.1l0.8-1.8c0-0.1,0-0.1-0.1-0.2
		c-0.1,0-0.2,0-0.2,0.1l-0.8,1.8c0,0.1,0,0.1,0.1,0.2C10.6,139.2,10.7,139.2,10.7,139.1z M16.4,140.2l0.6-0.2c0.1,0,0.1-0.1,0.1-0.2
		c0-0.1-0.1-0.1-0.2-0.1l-0.6,0.2c-0.1,0-0.1,0.1-0.1,0.2C16.2,140.2,16.3,140.2,16.4,140.2z M13.1,141.4l2-0.7
		c0.1,0,0.1-0.1,0.1-0.2c0-0.1-0.1-0.1-0.2-0.1l-2,0.7c-0.1,0-0.1,0.1-0.1,0.2C13,141.4,13.1,141.4,13.1,141.4z M9,137.4v-2.4
		c0-0.1-0.1-0.1-0.1-0.1c-0.1,0-0.1,0.1-0.1,0.1v2.4c0,0.1,0.1,0.1,0.1,0.1C9,137.5,9,137.4,9,137.4z M14.9,143h2.7
		c0.1,0,0.1-0.1,0.1-0.1c0-0.1-0.1-0.1-0.1-0.1h-2.7c-0.1,0-0.1,0.1-0.1,0.1C14.8,142.9,14.9,143,14.9,143z M13.3,139.1l1.9-1.7
		c0.1-0.1,0.1-0.1,0-0.2c-0.1-0.1-0.1-0.1-0.2,0l-1.9,1.7c-0.1,0.1-0.1,0.1,0,0.2C13.1,139.1,13.2,139.1,13.3,139.1z M9.7,142.1
		c-0.4-0.4-0.7-0.8-0.9-1.3c-0.2,0.5-0.5,0.9-0.9,1.3c-0.4,0.4-0.9,0.6-1.4,0.8c0.6,0.2,1,0.4,1.4,0.8c0.4,0.4,0.7,0.8,0.9,1.3
		c0.2-0.5,0.5-0.9,0.9-1.3c0.4-0.4,0.9-0.6,1.4-0.8C10.6,142.7,10.1,142.4,9.7,142.1L9.7,142.1z M9,140c0-0.2-0.3-0.2-0.3,0
		c0,0.7-0.4,1.4-0.9,1.9c-0.5,0.5-1.3,0.8-2.1,0.8c-0.2,0-0.2,0.3,0,0.3c0.8,0,1.5,0.3,2.1,0.8c0.5,0.5,0.9,1.2,0.9,1.9
		c0,0.2,0.3,0.2,0.3,0c0-0.7,0.4-1.4,0.9-1.9c0.5-0.5,1.3-0.8,2.1-0.8c0.2,0,0.2-0.3,0-0.3c-0.8,0-1.5-0.3-2.1-0.8
		C9.4,141.4,9.1,140.7,9,140z M26.3,141l-1.6-1.4l-1.6,1.4H26.3z M30.1,141l-1.6-1.4L27,141H30.1z M34,141l-1.6-1.4l-1.6,1.4H34z
		 M37.8,141l-1.6-1.4l-1.6,1.4H37.8z M41.6,141l-1.6-1.4l-1.6,1.4C38.5,141,41.6,141,41.6,141z M45.5,141l-1.6-1.4l-1.6,1.4H45.5z
		 M49.3,141l-1.6-1.4l-1.6,1.4H49.3z M53.2,141l-1.6-1.4L50,141H53.2z M57,141l-1.6-1.4l-1.6,1.4H57z M60.9,141l-1.6-1.4l-1.6,1.4
		H60.9z M64.7,141l-1.6-1.4l-1.6,1.4H64.7z M68.5,141l-1.6-1.4l-1.6,1.4H68.5z M72.4,141l-1.6-1.4l-1.6,1.4H72.4z M76.2,141
		l-1.6-1.4l-1.6,1.4H76.2z M80.1,141l-1.6-1.4l-1.6,1.4H80.1z M8.7,130v-5.2h-3v5.2H8.7z M7.1,125.8v1.4H6.7c-0.1,0-0.1,0.1-0.1,0.1
		c0,0.1,0.1,0.1,0.1,0.1h0.4v1.4c0,0.1,0.1,0.1,0.1,0.1c0.1,0,0.1-0.1,0.1-0.1v-1.4h0.4c0.1,0,0.1-0.1,0.1-0.1
		c0-0.1-0.1-0.1-0.1-0.1H7.4v-1.4c0-0.1-0.1-0.1-0.1-0.1C7.2,125.7,7.1,125.8,7.1,125.8z M8.7,124.5v-5.2h-3v5.2H8.7z M7.4,123.5
		v-1.4h0.4c0.1,0,0.1-0.1,0.1-0.1s-0.1-0.1-0.1-0.1H7.4v-1.4c0-0.1-0.1-0.1-0.1-0.1c-0.1,0-0.1,0.1-0.1,0.1v1.4H6.7
		c-0.1,0-0.1,0.1-0.1,0.1c0,0.1,0.1,0.1,0.1,0.1h0.4v1.4c0,0.1,0.1,0.1,0.1,0.1C7.3,123.6,7.4,123.6,7.4,123.5z M8.7,119.1v-5.2h-3
		v5.2H8.7z M8.7,113.6v-5.2h-3v5.2H8.7z M7.4,112.5v-1.4h0.4c0.1,0,0.1-0.1,0.1-0.1c0-0.1-0.1-0.1-0.1-0.1H7.4v-1.4
		c0-0.1-0.1-0.1-0.1-0.1c-0.1,0-0.1,0.1-0.1,0.1v1.4H6.7c-0.1,0-0.1,0.1-0.1,0.1c0,0.1,0.1,0.1,0.1,0.1h0.4v1.4
		c0,0.1,0.1,0.1,0.1,0.1C7.3,112.7,7.4,112.6,7.4,112.5z M7.1,114.9v1.4H6.7c-0.1,0-0.1,0.1-0.1,0.1c0,0.1,0.1,0.1,0.1,0.1h0.4v1.4
		c0,0.1,0.1,0.1,0.1,0.1c0.1,0,0.1-0.1,0.1-0.1v-1.4h0.4c0.1,0,0.1-0.1,0.1-0.1c0-0.1-0.1-0.1-0.1-0.1H7.4v-1.4
		c0-0.1-0.1-0.1-0.1-0.1C7.2,114.7,7.1,114.8,7.1,114.9z M8.7,91.6v-5.2h-3v5.2H8.7z M7.4,90.6v-1.4h0.4c0.1,0,0.1-0.1,0.1-0.1
		c0-0.1-0.1-0.1-0.1-0.1H7.4v-1.4c0-0.1-0.1-0.1-0.1-0.1c-0.1,0-0.1,0.1-0.1,0.1v1.4H6.7c-0.1,0-0.1,0.1-0.1,0.1
		c0,0.1,0.1,0.1,0.1,0.1h0.4v1.4c0,0.1,0.1,0.1,0.1,0.1C7.3,90.7,7.4,90.6,7.4,90.6z M8.7,97.1v-5.2h-3v5.2H8.7z M7.1,92.9v1.4H6.7
		c-0.1,0-0.1,0.1-0.1,0.1c0,0.1,0.1,0.1,0.1,0.1h0.4v1.4c0,0.1,0.1,0.1,0.1,0.1c0.1,0,0.1-0.1,0.1-0.1v-1.4h0.4
		c0.1,0,0.1-0.1,0.1-0.1c0-0.1-0.1-0.1-0.1-0.1H7.4v-1.4c0-0.1-0.1-0.1-0.1-0.1C7.2,92.8,7.1,92.8,7.1,92.9z M8.7,108.1v-5.2h-3v5.2
		H8.7z M8.7,102.6v-5.2h-3v5.2H8.7z M7.1,103.9v1.4H6.7c-0.1,0-0.1,0.1-0.1,0.1c0,0.1,0.1,0.1,0.1,0.1h0.4v1.4
		c0,0.1,0.1,0.1,0.1,0.1c0.1,0,0.1-0.1,0.1-0.1v-1.4h0.4c0.1,0,0.1-0.1,0.1-0.1c0-0.1-0.1-0.1-0.1-0.1H7.4v-1.4
		c0-0.1-0.1-0.1-0.1-0.1C7.2,103.8,7.1,103.8,7.1,103.9z M7.4,101.5v-1.4h0.4c0.1,0,0.1-0.1,0.1-0.1c0-0.1-0.1-0.1-0.1-0.1H7.4v-1.4
		c0-0.1-0.1-0.1-0.1-0.1c-0.1,0-0.1,0.1-0.1,0.1v1.4H6.7c-0.1,0-0.1,0.1-0.1,0.1c0,0.1,0.1,0.1,0.1,0.1h0.4v1.4
		c0,0.1,0.1,0.1,0.1,0.1C7.3,101.7,7.4,101.6,7.4,101.5z M17.9,130.9l4-5.4c0-0.1,0-0.1,0-0.2c-0.1,0-0.2,0-0.2,0l-4,5.4
		c0,0.1,0,0.1,0,0.2C17.7,130.9,17.8,130.9,17.9,130.9L17.9,130.9z M24.8,127.7c0,0.2,0.1,0.3,0.2,0.5c0.1,0.1,0.3,0.2,0.5,0.2
		c0.2,0,0.4-0.1,0.5-0.2c0.1-0.1,0.2-0.3,0.2-0.5c0-0.2-0.1-0.3-0.2-0.5c-0.1-0.1-0.3-0.2-0.5-0.2c-0.2,0-0.4,0.1-0.5,0.2
		C24.9,127.4,24.8,127.5,24.8,127.7z M20.3,132.7l4.6-4.2c0.2,0.1,0.4,0.2,0.6,0.2c0.3,0,0.5-0.1,0.7-0.3c0.2-0.2,0.3-0.4,0.3-0.6
		c0-0.3-0.1-0.5-0.3-0.7c-0.2-0.2-0.4-0.3-0.7-0.3c-0.3,0-0.5,0.1-0.7,0.3c-0.2,0.2-0.3,0.4-0.3,0.7c0,0.2,0.1,0.4,0.2,0.6l-4.7,4.2
		c-0.1,0.1-0.1,0.1,0,0.2C20.1,132.7,20.2,132.7,20.3,132.7L20.3,132.7z M15.8,126c0,0.2,0.1,0.3,0.2,0.5c0.1,0.1,0.3,0.2,0.5,0.2
		c0.2,0,0.4-0.1,0.5-0.2c0.1-0.1,0.2-0.3,0.2-0.5c0-0.2-0.1-0.3-0.2-0.5c-0.1-0.1-0.3-0.2-0.5-0.2c-0.2,0-0.4,0.1-0.5,0.2
		C15.9,125.6,15.8,125.8,15.8,126z M15.1,129.5l1.2-2.6c0.1,0,0.2,0,0.3,0c0.3,0,0.5-0.1,0.7-0.3c0.2-0.2,0.3-0.4,0.3-0.7
		c0-0.3-0.1-0.5-0.3-0.6c-0.2-0.2-0.4-0.3-0.7-0.3c-0.3,0-0.5,0.1-0.7,0.3c-0.2,0.2-0.3,0.4-0.3,0.6c0,0.3,0.1,0.5,0.3,0.7
		c0.1,0.1,0.1,0.1,0.2,0.1l-1.2,2.6c0,0.1,0,0.1,0.1,0.2C15,129.6,15.1,129.6,15.1,129.5z M22.2,134.9l5.9-3.6c0.1,0,0.1-0.1,0-0.2
		c0-0.1-0.1-0.1-0.2,0l-5.9,3.6c-0.1,0-0.1,0.1,0,0.2C22.1,134.9,22.2,134.9,22.2,134.9L22.2,134.9z M26.9,136.3
		c0.1,0.1,0.3,0.2,0.5,0.2c0.2,0,0.4-0.1,0.5-0.2c0.1-0.1,0.2-0.3,0.2-0.5c0-0.2-0.1-0.3-0.2-0.5c-0.1-0.1-0.3-0.2-0.5-0.2
		c-0.2,0-0.4,0.1-0.5,0.2c-0.1,0.1-0.2,0.3-0.2,0.5C26.7,136.1,26.8,136.2,26.9,136.3z M23.7,137.4l2.9-1.1c0,0.1,0.1,0.1,0.2,0.2
		c0.2,0.2,0.4,0.3,0.7,0.3c0.3,0,0.5-0.1,0.7-0.3c0.2-0.2,0.3-0.4,0.3-0.7c0-0.3-0.1-0.5-0.3-0.6c-0.2-0.2-0.4-0.3-0.7-0.3
		c-0.3,0-0.5,0.1-0.7,0.3c-0.2,0.2-0.3,0.4-0.3,0.6c0,0.1,0,0.2,0,0.2l-2.9,1.1c-0.1,0-0.1,0.1-0.1,0.2
		C23.5,137.4,23.6,137.5,23.7,137.4L23.7,137.4z M28.7,145.7V143H23v2.7C23,145.7,28.7,145.7,28.7,145.7z M27.6,144.2H26v-0.4
		c0-0.1-0.1-0.1-0.1-0.1c-0.1,0-0.1,0.1-0.1,0.1v0.4h-1.6c-0.1,0-0.1,0.1-0.1,0.1c0,0.1,0.1,0.1,0.1,0.1h1.6v0.4
		c0,0.1,0.1,0.1,0.1,0.1c0.1,0,0.1-0.1,0.1-0.1v-0.4h1.6c0.1,0,0.1-0.1,0.1-0.1C27.7,144.3,27.7,144.2,27.6,144.2z M34.8,145.7V143
		H29v2.7H34.8z M30.2,144.5h1.6v0.4c0,0.1,0.1,0.1,0.1,0.1c0.1,0,0.1-0.1,0.1-0.1v-0.4h1.6c0.1,0,0.1-0.1,0.1-0.1
		c0-0.1-0.1-0.1-0.1-0.1H32v-0.4c0-0.1-0.1-0.1-0.1-0.1c-0.1,0-0.1,0.1-0.1,0.1v0.4h-1.6c-0.1,0-0.1,0.1-0.1,0.1
		C30,144.4,30.1,144.5,30.2,144.5z M46.8,145.7V143h-5.7v2.7H46.8z M40.8,145.7V143H35v2.7H40.8z M42.2,144.5h1.6v0.4
		c0,0.1,0.1,0.1,0.1,0.1c0.1,0,0.1-0.1,0.1-0.1v-0.4h1.6c0.1,0,0.1-0.1,0.1-0.1c0-0.1-0.1-0.1-0.1-0.1h-1.6v-0.4
		c0-0.1-0.1-0.1-0.1-0.1c-0.1,0-0.1,0.1-0.1,0.1v0.4h-1.6c-0.1,0-0.1,0.1-0.1,0.1C42.1,144.4,42.1,144.5,42.2,144.5z M39.6,144.2
		h-1.6v-0.4c0-0.1-0.1-0.1-0.1-0.1s-0.1,0.1-0.1,0.1v0.4h-1.6c-0.1,0-0.1,0.1-0.1,0.1c0,0.1,0.1,0.1,0.1,0.1h1.6v0.4
		c0,0.1,0.1,0.1,0.1,0.1c0.1,0,0.1-0.1,0.1-0.1v-0.4h1.6c0.1,0,0.1-0.1,0.1-0.1C39.8,144.3,39.7,144.2,39.6,144.2z M70.9,145.7V143
		h-5.7v2.7H70.9z M66.3,144.5h1.6v0.4c0,0.1,0.1,0.1,0.1,0.1c0.1,0,0.1-0.1,0.1-0.1v-0.4h1.6c0.1,0,0.1-0.1,0.1-0.1
		c0-0.1-0.1-0.1-0.1-0.1h-1.6v-0.4c0-0.1-0.1-0.1-0.1-0.1c-0.1,0-0.1,0.1-0.1,0.1v0.4h-1.6c-0.1,0-0.1,0.1-0.1,0.1
		C66.2,144.4,66.3,144.5,66.3,144.5z M64.9,145.7V143h-5.7v2.7H64.9z M63.8,144.2h-1.6v-0.4c0-0.1-0.1-0.1-0.1-0.1
		c-0.1,0-0.1,0.1-0.1,0.1v0.4h-1.6c-0.1,0-0.1,0.1-0.1,0.1c0,0.1,0.1,0.1,0.1,0.1h1.6v0.4c0,0.1,0.1,0.1,0.1,0.1
		c0.1,0,0.1-0.1,0.1-0.1v-0.4h1.6c0.1,0,0.1-0.1,0.1-0.1C63.9,144.3,63.9,144.2,63.8,144.2z M58.9,145.7V143h-5.7v2.7H58.9z
		 M52.9,145.7V143h-5.7v2.7H52.9z M51.7,144.2h-1.6v-0.4c0-0.1-0.1-0.1-0.1-0.1c-0.1,0-0.1,0.1-0.1,0.1v0.4h-1.6
		c-0.1,0-0.1,0.1-0.1,0.1c0,0.1,0.1,0.1,0.1,0.1h1.6v0.4c0,0.1,0.1,0.1,0.1,0.1c0.1,0,0.1-0.1,0.1-0.1v-0.4h1.6
		c0.1,0,0.1-0.1,0.1-0.1C51.9,144.3,51.8,144.2,51.7,144.2z M54.3,144.5h1.6v0.4c0,0.1,0.1,0.1,0.1,0.1c0.1,0,0.1-0.1,0.1-0.1v-0.4
		h1.6c0.1,0,0.1-0.1,0.1-0.1c0-0.1-0.1-0.1-0.1-0.1h-1.6v-0.4c0-0.1-0.1-0.1-0.1-0.1c-0.1,0-0.1,0.1-0.1,0.1v0.4h-1.6
		c-0.1,0-0.1,0.1-0.1,0.1C54.1,144.4,54.2,144.5,54.3,144.5z M101.1,145.7V143h-5.7v2.7H101.1z M100,144.2h-1.6v-0.4
		c0-0.1-0.1-0.1-0.1-0.1c-0.1,0-0.1,0.1-0.1,0.1v0.4h-1.6c-0.1,0-0.1,0.1-0.1,0.1c0,0.1,0.1,0.1,0.1,0.1h1.6v0.4
		c0,0.1,0.1,0.1,0.1,0.1c0.1,0,0.1-0.1,0.1-0.1v-0.4h1.6c0.1,0,0.1-0.1,0.1-0.1C100.1,144.3,100,144.2,100,144.2z M77,145.7V143
		h-5.7v2.7H77z M75.8,144.2h-1.6v-0.4c0-0.1-0.1-0.1-0.1-0.1c-0.1,0-0.1,0.1-0.1,0.1v0.4h-1.6c-0.1,0-0.1,0.1-0.1,0.1
		c0,0.1,0.1,0.1,0.1,0.1H74v0.4c0,0.1,0.1,0.1,0.1,0.1c0.1,0,0.1-0.1,0.1-0.1v-0.4h1.6c0.1,0,0.1-0.1,0.1-0.1
		C76,144.3,75.9,144.2,75.8,144.2z M83,145.7V143h-5.7v2.7H83z M78.4,144.5H80v0.4c0,0.1,0.1,0.1,0.1,0.1c0.1,0,0.1-0.1,0.1-0.1
		v-0.4h1.6c0.1,0,0.1-0.1,0.1-0.1c0-0.1-0.1-0.1-0.1-0.1h-1.6v-0.4c0-0.1-0.1-0.1-0.1-0.1c-0.1,0-0.1,0.1-0.1,0.1v0.4h-1.6
		c-0.1,0-0.1,0.1-0.1,0.1C78.3,144.4,78.3,144.5,78.4,144.5z M95.1,145.7V143h-5.7v2.7H95.1z M89,145.7V143h-5.7v2.7H89z
		 M90.5,144.5h1.6v0.4c0,0.1,0.1,0.1,0.1,0.1c0.1,0,0.1-0.1,0.1-0.1v-0.4h1.6c0.1,0,0.1-0.1,0.1-0.1c0-0.1-0.1-0.1-0.1-0.1h-1.6
		v-0.4c0-0.1-0.1-0.1-0.1-0.1c-0.1,0-0.1,0.1-0.1,0.1v0.4h-1.6c-0.1,0-0.1,0.1-0.1,0.1C90.3,144.4,90.4,144.5,90.5,144.5z
		 M87.9,144.2h-1.6v-0.4c0-0.1-0.1-0.1-0.1-0.1c-0.1,0-0.1,0.1-0.1,0.1v0.4h-1.6c-0.1,0-0.1,0.1-0.1,0.1c0,0.1,0.1,0.1,0.1,0.1H86
		v0.4c0,0.1,0.1,0.1,0.1,0.1c0.1,0,0.1-0.1,0.1-0.1v-0.4h1.6c0.1,0,0.1-0.1,0.1-0.1C88,144.3,88,144.2,87.9,144.2z M5.7,145.9
		l0.6-0.6c0.1-0.1,0.1-0.1,0-0.2c-0.1-0.1-0.1-0.1-0.2,0l-0.6,0.6c-0.1,0.1-0.1,0.1,0,0.2C5.5,146,5.6,146,5.7,145.9z M10.9,129.9
		l1.6-1.4l-1.6-1.4V129.9z M10.9,126.5l1.6-1.4l-1.6-1.4V126.5z M10.9,123l1.6-1.4l-1.6-1.4V123z M10.9,119.6l1.6-1.4l-1.6-1.4
		V119.6z M10.9,116.1l1.6-1.4l-1.6-1.4V116.1z M10.9,112.7l1.6-1.4l-1.6-1.4V112.7z M10.9,98.9l1.6-1.4l-1.6-1.4V98.9z M10.9,102.3
		l1.6-1.4l-1.6-1.4V102.3z M10.9,105.8l1.6-1.4l-1.6-1.4V105.8z M10.9,109.2l1.6-1.4l-1.6-1.4V109.2z M10.9,95.5l1.6-1.4l-1.6-1.4
		V95.5z M10.9,92l1.6-1.4l-1.6-1.4V92z M8.7,86.1v-5.2h-3v5.2H8.7z M8.7,80.6v-5.4h-3v5.4H8.7z M7.1,81.9v1.4H6.7
		c-0.1,0-0.1,0.1-0.1,0.1c0,0.1,0.1,0.1,0.1,0.1h0.4v1.4c0,0.1,0.1,0.1,0.1,0.1c0.1,0,0.1-0.1,0.1-0.1v-1.4h0.4
		c0.1,0,0.1-0.1,0.1-0.1s-0.1-0.1-0.1-0.1H7.4v-1.4c0-0.1-0.1-0.1-0.1-0.1C7.2,81.8,7.1,81.9,7.1,81.9z M112.7,145.7V143H107v2.7
		H112.7z M106.7,145.7V143h-5.3v2.7H106.7z M108.1,144.5h1.6v0.4c0,0.1,0.1,0.1,0.1,0.1c0.1,0,0.1-0.1,0.1-0.1v-0.4h1.6
		c0.1,0,0.1-0.1,0.1-0.1c0-0.1-0.1-0.1-0.1-0.1H110v-0.4c0-0.1-0.1-0.1-0.1-0.1c-0.1,0-0.1,0.1-0.1,0.1v0.4h-1.6
		c-0.1,0-0.1,0.1-0.1,0.1C108,144.4,108,144.5,108.1,144.5z M105.5,144.2h-1.3v-0.4c0-0.1,0-0.1-0.1-0.1l0,0h0l0,0h0l0,0h0l0,0
		c-0.1,0-0.1,0.1-0.1,0.1v0.4h-1.3c-0.1,0-0.1,0.1-0.1,0.1c0,0.1,0.1,0.1,0.1,0.1h1.3v0.4c0,0.1,0,0.1,0.1,0.1h0l0,0h0.1l0,0h0
		c0.1,0,0.1-0.1,0.1-0.1v-0.4h1.3c0.1,0,0.1-0.1,0.1-0.1C105.7,144.3,105.6,144.2,105.5,144.2z M118.7,145.7V143H113v2.7H118.7z
		 M117.6,144.2H116v-0.4c0-0.1-0.1-0.1-0.1-0.1c-0.1,0-0.1,0.1-0.1,0.1v0.4h-1.6c-0.1,0-0.1,0.1-0.1,0.1c0,0.1,0.1,0.1,0.1,0.1h1.6
		v0.4c0,0.1,0.1,0.1,0.1,0.1c0.1,0,0.1-0.1,0.1-0.1v-0.4h1.6c0.1,0,0.1-0.1,0.1-0.1C117.7,144.3,117.7,144.2,117.6,144.2z
		 M10.9,88.6l1.6-1.4l-1.6-1.4V88.6z M10.9,85.1l1.6-1.4l-1.6-1.4V85.1z M10.9,81.7l1.6-1.4l-1.6-1.4V81.7z M10.9,78.2l1.6-1.4
		l-1.6-1.4V78.2z M87.7,141l-1.6-1.4l-1.6,1.4H87.7z M91.6,141l-1.6-1.4l-1.6,1.4H91.6z M95.4,141l-1.6-1.4l-1.6,1.4H95.4z
		 M99.3,141l-1.6-1.4l-1.6,1.4H99.3z M103.1,141l-1.6-1.4L100,141H103.1z M107,141l-1.6-1.4l-1.6,1.4H107z M118.5,141l-1.6-1.4
		l-1.6,1.4H118.5z M114.6,141l-1.6-1.4l-1.6,1.4H114.6z M110.8,141l-1.6-1.4l-1.6,1.4H110.8z M7.4,70.7c0-0.1-0.1-0.1-0.1-0.1
		c-0.1,0-0.1,0.1-0.1,0.1v1.4H6.7c-0.1,0-0.1,0.1-0.1,0.1c0,0.1,0.1,0.1,0.1,0.1h0.4v1.4c0,0.1,0.1,0.1,0.1,0.1
		c0.1,0,0.1-0.1,0.1-0.1v-1.4h0.4c0.1,0,0.1-0.1,0.1-0.1c0-0.1-0.1-0.1-0.1-0.1H7.4V70.7z M5.9,14.2c0-0.1,0-0.1-0.1-0.2
		c-0.1,0-0.2,0-0.2,0.1l-0.2,0.4c0,0.1,0,0.1,0.1,0.2c0.1,0,0.2,0,0.2-0.1L5.9,14.2z M7.3,11.3c0-0.1,0-0.1-0.1-0.2
		c-0.1,0-0.2,0-0.2,0.1L6.2,13c0,0.1,0,0.1,0.1,0.2c0.1,0,0.2,0,0.2-0.1C6.4,13.1,7.3,11.3,7.3,11.3z M16.3,4.4
		c-0.1,0-0.1,0.1-0.1,0.2c0,0.1,0.1,0.1,0.2,0.1l0.5-0.2c0.1,0,0.1-0.1,0.1-0.2c0-0.1-0.1-0.1-0.2-0.1C16.7,4.3,16.3,4.4,16.3,4.4z
		 M13,5.7c-0.1,0-0.1,0.1-0.1,0.2c0,0.1,0.1,0.1,0.2,0.1l2-0.7c0.1,0,0.1-0.1,0.1-0.2c0-0.1-0.1-0.1-0.2-0.1C15,4.9,13,5.7,13,5.7z
		 M12.1,14.1c0-0.1-0.1-0.1-0.2-0.1c-0.1,0-0.1,0.1-0.1,0.2l0.3,0.6c0,0.1,0.1,0.1,0.2,0.1c0.1,0,0.1-0.1,0.1-0.2
		C12.3,14.7,12.1,14.1,12.1,14.1z M10.7,11.2c0-0.1-0.1-0.1-0.2-0.1c-0.1,0-0.1,0.1-0.1,0.2l0.8,1.8c0,0.1,0.1,0.1,0.2,0.1
		c0.1,0,0.1-0.1,0.1-0.2C11.6,13,10.7,11.2,10.7,11.2z M16.4,10.1c-0.1,0-0.2,0-0.2,0.1c0,0.1,0,0.1,0.1,0.2l0.6,0.2
		c0.1,0,0.2,0,0.2-0.1c0-0.1,0-0.1-0.1-0.2C17,10.3,16.4,10.1,16.4,10.1z M13.1,8.8c-0.1,0-0.2,0-0.2,0.1c0,0.1,0,0.1,0.1,0.2l2,0.7
		c0.1,0,0.2,0,0.2-0.1c0-0.1,0-0.1-0.1-0.2C15.1,9.6,13.1,8.8,13.1,8.8z M9,12.9c0-0.1-0.1-0.1-0.1-0.1c-0.1,0-0.1,0.1-0.1,0.1v2.4
		c0,0.1,0.1,0.1,0.1,0.1C9,15.5,9,15.4,9,15.3V12.9z M14.9,7.2c-0.1,0-0.1,0.1-0.1,0.1c0,0.1,0.1,0.1,0.1,0.1h2.7
		c0.1,0,0.1-0.1,0.1-0.1c0-0.1-0.1-0.1-0.1-0.1H14.9z M13.3,11.2c-0.1-0.1-0.1-0.1-0.2,0c-0.1,0.1-0.1,0.1,0,0.2l1.9,1.7
		c0.1,0.1,0.1,0.1,0.2,0c0.1-0.1,0.1-0.1,0-0.2C15.1,12.9,13.3,11.2,13.3,11.2z M9.7,8.2c0.4-0.4,0.9-0.6,1.4-0.8
		c-0.6-0.2-1-0.4-1.4-0.8C9.3,6.2,9,5.8,8.9,5.3C8.7,5.8,8.4,6.2,8,6.6C7.6,7,7.1,7.2,6.6,7.4c0.6,0.2,1,0.4,1.4,0.8
		C8.4,8.5,8.7,9,8.9,9.5C9,9,9.3,8.5,9.7,8.2z M9,10.2c0-0.7,0.4-1.4,0.9-1.9c0.5-0.5,1.3-0.8,2.1-0.8c0.2,0,0.2-0.3,0-0.3
		c-0.8,0-1.5-0.3-2.1-0.8C9.4,5.9,9.1,5.2,9,4.5c0-0.2-0.3-0.2-0.3,0c0,0.7-0.4,1.4-0.9,1.9C7.3,6.9,6.5,7.2,5.7,7.2
		c-0.2,0-0.2,0.3,0,0.3c0.8,0,1.5,0.3,2.1,0.8c0.5,0.5,0.9,1.2,0.9,1.9C8.7,10.4,9,10.4,9,10.2z M26.3,9.3h-3.1l1.6,1.4L26.3,9.3z
		 M30.1,9.3H27l1.6,1.4L30.1,9.3z M34,9.3h-3.1l1.6,1.4L34,9.3z M37.8,9.3h-3.1l1.6,1.4L37.8,9.3z M41.6,9.3h-3.1l1.6,1.4
		C40.1,10.7,41.6,9.3,41.6,9.3z M45.5,9.3h-3.1l1.6,1.4L45.5,9.3z M49.3,9.3h-3.1l1.6,1.4L49.3,9.3z M53.2,9.3H50l1.6,1.4L53.2,9.3z
		 M57,9.3h-3.1l1.6,1.4L57,9.3z M60.9,9.3h-3.1l1.6,1.4L60.9,9.3z M64.7,9.3h-3.1l1.6,1.4L64.7,9.3z M68.5,9.3h-3.1l1.6,1.4
		L68.5,9.3z M72.4,9.3h-3.1l1.6,1.4L72.4,9.3z M76.2,9.3h-3.1l1.6,1.4L76.2,9.3z M80.1,9.3h-3.1l1.6,1.4L80.1,9.3z M8.7,25.4v-5.2
		h-3v5.2H8.7z M7.1,24.4c0,0.1,0.1,0.1,0.1,0.1c0.1,0,0.1-0.1,0.1-0.1V23h0.4c0.1,0,0.1-0.1,0.1-0.1c0-0.1-0.1-0.1-0.1-0.1H7.4v-1.4
		c0-0.1-0.1-0.1-0.1-0.1c-0.1,0-0.1,0.1-0.1,0.1v1.4H6.7c-0.1,0-0.1,0.1-0.1,0.1c0,0.1,0.1,0.1,0.1,0.1h0.4
		C7.1,23,7.1,24.4,7.1,24.4z M8.7,30.9v-5.2h-3v5.2H8.7z M7.4,26.7c0-0.1-0.1-0.1-0.1-0.1c-0.1,0-0.1,0.1-0.1,0.1v1.4H6.7
		c-0.1,0-0.1,0.1-0.1,0.1c0,0.1,0.1,0.1,0.1,0.1h0.4v1.4C7.1,30,7.2,30,7.2,30c0.1,0,0.1-0.1,0.1-0.1v-1.4h0.4
		c0.1,0,0.1-0.1,0.1-0.1c0-0.1-0.1-0.1-0.1-0.1H7.4V26.7z M8.7,36.4v-5.2h-3v5.2H8.7z M8.7,41.9v-5.2h-3v5.2H8.7z M7.4,37.7
		c0-0.1-0.1-0.1-0.1-0.1c-0.1,0-0.1,0.1-0.1,0.1v1.4H6.7c-0.1,0-0.1,0.1-0.1,0.1c0,0.1,0.1,0.1,0.1,0.1h0.4v1.4
		c0,0.1,0.1,0.1,0.1,0.1c0.1,0,0.1-0.1,0.1-0.1v-1.4h0.4c0.1,0,0.1-0.1,0.1-0.1c0-0.1-0.1-0.1-0.1-0.1H7.4V37.7z M7.1,35.4
		c0,0.1,0.1,0.1,0.1,0.1c0.1,0,0.1-0.1,0.1-0.1v-1.4h0.4c0.1,0,0.1-0.1,0.1-0.1c0-0.1-0.1-0.1-0.1-0.1H7.4v-1.4
		c0-0.1-0.1-0.1-0.1-0.1c-0.1,0-0.1,0.1-0.1,0.1v1.4H6.7c-0.1,0-0.1,0.1-0.1,0.1c0,0.1,0.1,0.1,0.1,0.1h0.4V35.4z M8.7,63.9v-5.2h-3
		v5.2H8.7z M7.4,59.7c0-0.1-0.1-0.1-0.1-0.1c-0.1,0-0.1,0.1-0.1,0.1v1.4H6.7c-0.1,0-0.1,0.1-0.1,0.1c0,0.1,0.1,0.1,0.1,0.1h0.4v1.4
		c0,0.1,0.1,0.1,0.1,0.1c0.1,0,0.1-0.1,0.1-0.1v-1.4h0.4c0.1,0,0.1-0.1,0.1-0.1c0-0.1-0.1-0.1-0.1-0.1H7.4V59.7z M8.7,58.4v-5.2h-3
		v5.2H8.7z M7.1,57.3c0,0.1,0.1,0.1,0.1,0.1c0.1,0,0.1-0.1,0.1-0.1v-1.4h0.4c0.1,0,0.1-0.1,0.1-0.1c0-0.1-0.1-0.1-0.1-0.1H7.4v-1.4
		c0-0.1-0.1-0.1-0.1-0.1c-0.1,0-0.1,0.1-0.1,0.1v1.4H6.7c-0.1,0-0.1,0.1-0.1,0.1c0,0.1,0.1,0.1,0.1,0.1h0.4
		C7.1,55.9,7.1,57.3,7.1,57.3z M8.7,47.4v-5.2h-3v5.2H8.7z M8.7,52.9v-5.2h-3v5.2H8.7z M7.1,46.3c0,0.1,0.1,0.1,0.1,0.1
		c0.1,0,0.1-0.1,0.1-0.1v-1.4h0.4c0.1,0,0.1-0.1,0.1-0.1c0-0.1-0.1-0.1-0.1-0.1H7.4v-1.4c0-0.1-0.1-0.1-0.1-0.1
		c-0.1,0-0.1,0.1-0.1,0.1v1.4H6.7c-0.1,0-0.1,0.1-0.1,0.1c0,0.1,0.1,0.1,0.1,0.1h0.4C7.1,44.9,7.1,46.3,7.1,46.3z M7.4,48.7
		c0-0.1-0.1-0.1-0.1-0.1c-0.1,0-0.1,0.1-0.1,0.1v1.4H6.7c-0.1,0-0.1,0.1-0.1,0.1c0,0.1,0.1,0.1,0.1,0.1h0.4v1.4
		c0,0.1,0.1,0.1,0.1,0.1c0.1,0,0.1-0.1,0.1-0.1v-1.4h0.4c0.1,0,0.1-0.1,0.1-0.1c0-0.1-0.1-0.1-0.1-0.1H7.4V48.7z M17.9,19.4
		c0-0.1-0.1-0.1-0.2,0s-0.1,0.1,0,0.2l4,5.4c0,0.1,0.1,0.1,0.2,0c0.1,0,0.1-0.1,0-0.2C21.8,24.8,17.9,19.4,17.9,19.4z M24.8,22.5
		c0,0.2,0.1,0.3,0.2,0.5c0.1,0.1,0.3,0.2,0.5,0.2c0.2,0,0.4-0.1,0.5-0.2c0.1-0.1,0.2-0.3,0.2-0.5s-0.1-0.3-0.2-0.5
		c-0.1-0.1-0.3-0.2-0.5-0.2c-0.2,0-0.4,0.1-0.5,0.2C24.9,22.2,24.8,22.3,24.8,22.5z M20.3,17.6c-0.1-0.1-0.1-0.1-0.2,0
		c-0.1,0.1-0.1,0.1,0,0.2l4.7,4.2c-0.1,0.2-0.2,0.3-0.2,0.6c0,0.3,0.1,0.5,0.3,0.6c0.2,0.2,0.4,0.3,0.7,0.3c0.3,0,0.5-0.1,0.7-0.3
		c0.2-0.2,0.3-0.4,0.3-0.7c0-0.3-0.1-0.5-0.3-0.7c-0.2-0.2-0.4-0.3-0.7-0.3c-0.2,0-0.4,0.1-0.6,0.2C24.9,21.8,20.3,17.6,20.3,17.6z
		 M15.8,24.3c0,0.2,0.1,0.3,0.2,0.5c0.1,0.1,0.3,0.2,0.5,0.2c0.2,0,0.4-0.1,0.5-0.2c0.1-0.1,0.2-0.3,0.2-0.5c0-0.2-0.1-0.3-0.2-0.5
		c-0.1-0.1-0.3-0.2-0.5-0.2c-0.2,0-0.4,0.1-0.5,0.2C15.9,23.9,15.8,24.1,15.8,24.3z M15.1,20.7c0-0.1-0.1-0.1-0.2-0.1
		c-0.1,0-0.1,0.1-0.1,0.2l1.2,2.6c-0.1,0-0.1,0.1-0.2,0.1c-0.2,0.2-0.3,0.4-0.3,0.6c0,0.3,0.1,0.5,0.3,0.7c0.2,0.2,0.4,0.3,0.7,0.3
		c0.3,0,0.5-0.1,0.7-0.3c0.2-0.2,0.3-0.4,0.3-0.7c0-0.3-0.1-0.5-0.3-0.6c-0.2-0.2-0.4-0.3-0.7-0.3c-0.1,0-0.2,0-0.3,0
		C16.3,23.4,15.1,20.7,15.1,20.7z M22.2,15.3c-0.1,0-0.2,0-0.2,0c0,0.1,0,0.1,0,0.2l5.9,3.6c0.1,0,0.2,0,0.2,0c0-0.1,0-0.1,0-0.2
		C28.1,18.9,22.2,15.3,22.2,15.3z M26.9,13.9c-0.1,0.1-0.2,0.3-0.2,0.5c0,0.2,0.1,0.3,0.2,0.5c0.1,0.1,0.3,0.2,0.5,0.2
		c0.2,0,0.4-0.1,0.5-0.2c0.1-0.1,0.2-0.3,0.2-0.5c0-0.2-0.1-0.3-0.2-0.5c-0.1-0.1-0.3-0.2-0.5-0.2C27.2,13.7,27.1,13.8,26.9,13.9z
		 M23.7,12.8c-0.1,0-0.2,0-0.2,0.1c0,0.1,0,0.1,0.1,0.2l2.9,1.1c0,0.1,0,0.1,0,0.2c0,0.3,0.1,0.5,0.3,0.7c0.2,0.2,0.4,0.3,0.7,0.3
		c0.3,0,0.5-0.1,0.7-0.3c0.2-0.2,0.3-0.4,0.3-0.7c0-0.3-0.1-0.5-0.3-0.6c-0.2-0.2-0.4-0.3-0.7-0.3c-0.3,0-0.5,0.1-0.7,0.3
		c-0.1,0.1-0.1,0.1-0.2,0.2C26.6,13.9,23.7,12.8,23.7,12.8z M28.7,7.2V4.5H23v2.7C23,7.2,28.7,7.2,28.7,7.2z M27.6,6
		c0.1,0,0.1-0.1,0.1-0.1c0-0.1-0.1-0.1-0.1-0.1H26V5.4c0-0.1-0.1-0.1-0.1-0.1c-0.1,0-0.1,0.1-0.1,0.1v0.4h-1.6C24,5.8,24,5.8,24,5.9
		C24,6,24,6,24.1,6h1.6v0.4c0,0.1,0.1,0.1,0.1,0.1c0.1,0,0.1-0.1,0.1-0.1V6H27.6z M34.8,7.2V4.5H29v2.7H34.8z M30.2,5.8
		c-0.1,0-0.1,0.1-0.1,0.1C30,6,30.1,6,30.2,6h1.6v0.4c0,0.1,0.1,0.1,0.1,0.1C32,6.5,32,6.4,32,6.4V6h1.6c0.1,0,0.1-0.1,0.1-0.1
		c0-0.1-0.1-0.1-0.1-0.1H32V5.4c0-0.1-0.1-0.1-0.1-0.1c-0.1,0-0.1,0.1-0.1,0.1v0.4H30.2z M46.8,7.2V4.5h-5.7v2.7H46.8z M40.8,7.2
		V4.5H35v2.7H40.8z M42.2,5.8c-0.1,0-0.1,0.1-0.1,0.1C42.1,6,42.1,6,42.2,6h1.6v0.4c0,0.1,0.1,0.1,0.1,0.1c0.1,0,0.1-0.1,0.1-0.1V6
		h1.6c0.1,0,0.1-0.1,0.1-0.1c0-0.1-0.1-0.1-0.1-0.1h-1.6V5.4c0-0.1-0.1-0.1-0.1-0.1c-0.1,0-0.1,0.1-0.1,0.1v0.4H42.2z M39.6,6
		c0.1,0,0.1-0.1,0.1-0.1c0-0.1-0.1-0.1-0.1-0.1h-1.6V5.4c0-0.1-0.1-0.1-0.1-0.1s-0.1,0.1-0.1,0.1v0.4h-1.6c-0.1,0-0.1,0.1-0.1,0.1
		C36,6,36.1,6,36.2,6h1.6v0.4c0,0.1,0.1,0.1,0.1,0.1c0.1,0,0.1-0.1,0.1-0.1V6H39.6z M70.9,7.2V4.5h-5.7v2.7H70.9z M66.3,5.8
		c-0.1,0-0.1,0.1-0.1,0.1C66.2,6,66.3,6,66.3,6h1.6v0.4c0,0.1,0.1,0.1,0.1,0.1c0.1,0,0.1-0.1,0.1-0.1V6h1.6C69.9,6,70,6,70,5.9
		c0-0.1-0.1-0.1-0.1-0.1h-1.6V5.4c0-0.1-0.1-0.1-0.1-0.1c-0.1,0-0.1,0.1-0.1,0.1v0.4H66.3z M64.9,7.2V4.5h-5.7v2.7H64.9z M63.8,6
		c0.1,0,0.1-0.1,0.1-0.1c0-0.1-0.1-0.1-0.1-0.1h-1.6V5.4c0-0.1-0.1-0.1-0.1-0.1c-0.1,0-0.1,0.1-0.1,0.1v0.4h-1.6
		c-0.1,0-0.1,0.1-0.1,0.1C60.2,6,60.2,6,60.3,6h1.6v0.4c0,0.1,0.1,0.1,0.1,0.1c0.1,0,0.1-0.1,0.1-0.1V6H63.8z M58.9,7.2V4.5h-5.7
		v2.7H58.9z M52.9,7.2V4.5h-5.7v2.7H52.9z M51.7,6c0.1,0,0.1-0.1,0.1-0.1c0-0.1-0.1-0.1-0.1-0.1h-1.6V5.4c0-0.1-0.1-0.1-0.1-0.1
		c-0.1,0-0.1,0.1-0.1,0.1v0.4h-1.6c-0.1,0-0.1,0.1-0.1,0.1C48.1,6,48.2,6,48.2,6h1.6v0.4c0,0.1,0.1,0.1,0.1,0.1
		c0.1,0,0.1-0.1,0.1-0.1V6H51.7z M54.3,5.8c-0.1,0-0.1,0.1-0.1,0.1C54.1,6,54.2,6,54.3,6h1.6v0.4c0,0.1,0.1,0.1,0.1,0.1
		c0.1,0,0.1-0.1,0.1-0.1V6h1.6c0.1,0,0.1-0.1,0.1-0.1c0-0.1-0.1-0.1-0.1-0.1h-1.6V5.4c0-0.1-0.1-0.1-0.1-0.1c-0.1,0-0.1,0.1-0.1,0.1
		v0.4H54.3z M101.1,7.2V4.5h-5.7v2.7H101.1z M100,6c0.1,0,0.1-0.1,0.1-0.1c0-0.1-0.1-0.1-0.1-0.1h-1.6V5.4c0-0.1-0.1-0.1-0.1-0.1
		c-0.1,0-0.1,0.1-0.1,0.1v0.4h-1.6c-0.1,0-0.1,0.1-0.1,0.1C96.4,6,96.4,6,96.5,6h1.6v0.4c0,0.1,0.1,0.1,0.1,0.1
		c0.1,0,0.1-0.1,0.1-0.1V6H100z M77,7.2V4.5h-5.7v2.7H77z M75.8,6C75.9,6,76,6,76,5.9c0-0.1-0.1-0.1-0.1-0.1h-1.6V5.4
		c0-0.1-0.1-0.1-0.1-0.1C74,5.3,74,5.3,74,5.4v0.4h-1.6c-0.1,0-0.1,0.1-0.1,0.1C72.2,6,72.3,6,72.4,6H74v0.4c0,0.1,0.1,0.1,0.1,0.1
		c0.1,0,0.1-0.1,0.1-0.1V6H75.8z M83,7.2V4.5h-5.7v2.7H83z M78.4,5.8c-0.1,0-0.1,0.1-0.1,0.1C78.3,6,78.3,6,78.4,6H80v0.4
		c0,0.1,0.1,0.1,0.1,0.1c0.1,0,0.1-0.1,0.1-0.1V6h1.6C81.9,6,82,6,82,5.9c0-0.1-0.1-0.1-0.1-0.1h-1.6V5.4c0-0.1-0.1-0.1-0.1-0.1
		c-0.1,0-0.1,0.1-0.1,0.1v0.4H78.4z M95.1,7.2V4.5h-5.7v2.7H95.1z M89,7.2V4.5h-5.7v2.7H89z M90.5,5.8c-0.1,0-0.1,0.1-0.1,0.1
		C90.3,6,90.4,6,90.5,6h1.6v0.4c0,0.1,0.1,0.1,0.1,0.1c0.1,0,0.1-0.1,0.1-0.1V6h1.6C94,6,94.1,6,94.1,5.9c0-0.1-0.1-0.1-0.1-0.1
		h-1.6V5.4c0-0.1-0.1-0.1-0.1-0.1c-0.1,0-0.1,0.1-0.1,0.1v0.4H90.5z M87.9,6C88,6,88,6,88,5.9c0-0.1-0.1-0.1-0.1-0.1h-1.6V5.4
		c0-0.1-0.1-0.1-0.1-0.1c-0.1,0-0.1,0.1-0.1,0.1v0.4h-1.6c-0.1,0-0.1,0.1-0.1,0.1C84.3,6,84.4,6,84.4,6H86v0.4
		c0,0.1,0.1,0.1,0.1,0.1c0.1,0,0.1-0.1,0.1-0.1V6H87.9z M5.7,4.3c-0.1-0.1-0.1-0.1-0.2,0c-0.1,0.1-0.1,0.1,0,0.2l0.6,0.6
		c0.1,0.1,0.1,0.1,0.2,0c0.1,0,0.1-0.1,0-0.2L5.7,4.3z M10.9,20.3v2.8l1.6-1.4C12.5,21.8,10.9,20.3,10.9,20.3z M10.9,23.8v2.8
		l1.6-1.4C12.5,25.2,10.9,23.8,10.9,23.8z M10.9,27.2V30l1.6-1.4L10.9,27.2z M10.9,30.7v2.8l1.6-1.4C12.5,32.1,10.9,30.7,10.9,30.7z
		 M10.9,34.1v2.8l1.6-1.4C12.5,35.5,10.9,34.1,10.9,34.1z M10.9,37.6v2.8l1.6-1.4C12.5,39,10.9,37.6,10.9,37.6z M10.9,51.3v2.8
		l1.6-1.4C12.5,52.7,10.9,51.3,10.9,51.3z M10.9,47.9v2.8l1.6-1.4C12.5,49.3,10.9,47.9,10.9,47.9z M10.9,44.4v2.8l1.6-1.4
		C12.5,45.9,10.9,44.4,10.9,44.4z M10.9,41v2.8l1.6-1.4C12.5,42.4,10.9,41,10.9,41z M10.9,54.8v2.8l1.6-1.4
		C12.5,56.2,10.9,54.8,10.9,54.8z M10.9,58.2V61l1.6-1.4L10.9,58.2z M8.7,69.3v-5.2h-3v5.2H8.7z M8.7,75v-5.4h-3V75H8.7z M7.1,68.3
		c0,0.1,0.1,0.1,0.1,0.1c0.1,0,0.1-0.1,0.1-0.1v-1.4h0.4c0.1,0,0.1-0.1,0.1-0.1c0-0.1-0.1-0.1-0.1-0.1H7.4v-1.4
		c0-0.1-0.1-0.1-0.1-0.1c-0.1,0-0.1,0.1-0.1,0.1v1.4H6.7c-0.1,0-0.1,0.1-0.1,0.1c0,0.1,0.1,0.1,0.1,0.1h0.4
		C7.1,66.9,7.1,68.3,7.1,68.3z M112.7,7.2V4.5H107v2.7H112.7z M106.7,7.2V4.5h-5.3v2.7H106.7z M108.1,5.8c-0.1,0-0.1,0.1-0.1,0.1
		C108,6,108,6,108.1,6h1.6v0.4c0,0.1,0.1,0.1,0.1,0.1c0.1,0,0.1-0.1,0.1-0.1V6h1.6c0.1,0,0.1-0.1,0.1-0.1c0-0.1-0.1-0.1-0.1-0.1H110
		V5.4c0-0.1-0.1-0.1-0.1-0.1c-0.1,0-0.1,0.1-0.1,0.1v0.4H108.1z M105.5,6c0.1,0,0.1-0.1,0.1-0.1c0-0.1-0.1-0.1-0.1-0.1h-1.3V5.4
		c0-0.1,0-0.1-0.1-0.1h0l0,0h0l0,0h0v0h0l0,0h0c-0.1,0-0.1,0.1-0.1,0.1v0.4h-1.3c-0.1,0-0.1,0.1-0.1,0.1c0,0.1,0.1,0.1,0.1,0.1h1.3
		v0.4c0,0.1,0,0.1,0.1,0.1l0,0h0v0h0l0,0h0l0,0c0.1,0,0.1-0.1,0.1-0.1V6C104.2,6,105.5,6,105.5,6z M118.7,7.2V4.5H113v2.7H118.7z
		 M117.6,6c0.1,0,0.1-0.1,0.1-0.1c0-0.1-0.1-0.1-0.1-0.1H116V5.4c0-0.1-0.1-0.1-0.1-0.1c-0.1,0-0.1,0.1-0.1,0.1v0.4h-1.6
		c-0.1,0-0.1,0.1-0.1,0.1c0,0.1,0.1,0.1,0.1,0.1h1.6v0.4c0,0.1,0.1,0.1,0.1,0.1c0.1,0,0.1-0.1,0.1-0.1V6H117.6z M10.9,61.7v2.8
		l1.6-1.4L10.9,61.7z M10.9,65.1v2.8l1.6-1.4L10.9,65.1z M10.9,68.5v2.8l1.6-1.4L10.9,68.5z M10.9,72v2.8l1.6-1.4L10.9,72z
		 M87.7,9.3h-3.1l1.6,1.4L87.7,9.3z M91.6,9.3h-3.1l1.6,1.4L91.6,9.3z M95.4,9.3h-3.1l1.6,1.4L95.4,9.3z M99.3,9.3h-3.1l1.6,1.4
		L99.3,9.3z M103.1,9.3H100l1.6,1.4L103.1,9.3z M107,9.3h-3.1l1.6,1.4L107,9.3z M118.5,9.3h-3.1l1.6,1.4L118.5,9.3z M114.6,9.3h-3.1
		l1.6,1.4L114.6,9.3z M110.8,9.3h-3.1l1.6,1.4L110.8,9.3z M83.9,9.3h-3.1l1.6,1.4L83.9,9.3z M230.3,79.5c0,0.1,0.1,0.1,0.1,0.1
		c0.1,0,0.1-0.1,0.1-0.1v-1.4h0.4c0.1,0,0.1-0.1,0.1-0.1c0-0.1-0.1-0.1-0.1-0.1h-0.4v-1.4c0-0.1-0.1-0.1-0.1-0.1
		c-0.1,0-0.1,0.1-0.1,0.1v1.4h-0.4c-0.1,0-0.1,0.1-0.1,0.1c0,0.1,0.1,0.1,0.1,0.1h0.4V79.5z M231.7,136c0,0.1,0,0.1,0.1,0.2
		c0.1,0,0.2,0,0.2-0.1l0.2-0.4c0-0.1,0-0.1-0.1-0.2c-0.1,0-0.2,0-0.2,0.1L231.7,136L231.7,136z M230.4,139c0,0.1,0,0.1,0.1,0.2
		c0.1,0,0.2,0,0.2-0.1l0.8-1.8c0-0.1,0-0.1-0.1-0.2c-0.1,0-0.2,0-0.2,0.1L230.4,139L230.4,139z M221.4,145.8c0.1,0,0.1-0.1,0.1-0.2
		c0-0.1-0.1-0.1-0.2-0.1l-0.5,0.2c-0.1,0-0.1,0.1-0.1,0.2c0,0.1,0.1,0.1,0.2,0.1L221.4,145.8z M224.6,144.6c0.1,0,0.1-0.1,0.1-0.2
		c0-0.1-0.1-0.1-0.2-0.1l-2,0.7c-0.1,0-0.1,0.1-0.1,0.2c0,0.1,0.1,0.1,0.2,0.1L224.6,144.6L224.6,144.6z M225.6,136.1
		c0,0.1,0.1,0.1,0.2,0.1c0.1,0,0.1-0.1,0.1-0.2l-0.3-0.6c0-0.1-0.1-0.1-0.2-0.1c-0.1,0-0.1,0.1-0.1,0.2L225.6,136.1L225.6,136.1z
		 M226.9,139.1c0,0.1,0.1,0.1,0.2,0.1c0.1,0,0.1-0.1,0.1-0.2l-0.8-1.8c0-0.1-0.1-0.1-0.2-0.1c-0.1,0-0.1,0.1-0.1,0.2L226.9,139.1z
		 M221.3,140.2c0.1,0,0.2,0,0.2-0.1c0-0.1,0-0.1-0.1-0.2l-0.6-0.2c-0.1,0-0.2,0-0.2,0.1c0,0.1,0,0.1,0.1,0.2L221.3,140.2z
		 M224.5,141.4c0.1,0,0.2,0,0.2-0.1c0-0.1,0-0.1-0.1-0.2l-2-0.7c-0.1,0-0.2,0-0.2,0.1c0,0.1,0,0.1,0.1,0.2L224.5,141.4L224.5,141.4z
		 M228.6,137.4c0,0.1,0.1,0.1,0.1,0.1c0.1,0,0.1-0.1,0.1-0.1v-2.4c0-0.1-0.1-0.1-0.1-0.1c-0.1,0-0.1,0.1-0.1,0.1V137.4z M222.7,143
		c0.1,0,0.1-0.1,0.1-0.1c0-0.1-0.1-0.1-0.1-0.1h-2.7c-0.1,0-0.1,0.1-0.1,0.1s0.1,0.1,0.1,0.1H222.7z M224.4,139.1
		c0.1,0.1,0.1,0.1,0.2,0c0.1-0.1,0.1-0.1,0-0.2l-1.9-1.7c-0.1-0.1-0.1-0.1-0.2,0c-0.1,0.1-0.1,0.1,0,0.2L224.4,139.1z M227.9,142.1
		c-0.4,0.4-0.9,0.6-1.4,0.8c0.6,0.2,1,0.4,1.4,0.8c0.4,0.4,0.7,0.8,0.9,1.3c0.2-0.5,0.5-0.9,0.9-1.3c0.4-0.4,0.9-0.6,1.4-0.8
		c-0.6-0.2-1-0.4-1.4-0.8c-0.4-0.4-0.7-0.8-0.9-1.3C228.6,141.3,228.3,141.7,227.9,142.1L227.9,142.1z M228.6,140
		c0,0.7-0.4,1.4-0.9,1.9c-0.5,0.5-1.3,0.8-2.1,0.8c-0.2,0-0.2,0.3,0,0.3c0.8,0,1.5,0.3,2.1,0.8c0.5,0.5,0.9,1.2,0.9,1.9
		c0,0.2,0.3,0.2,0.3,0c0-0.7,0.4-1.4,0.9-1.9c0.5-0.5,1.3-0.8,2.1-0.8c0.2,0,0.2-0.3,0-0.3c-0.8,0-1.5-0.3-2.1-0.8
		c-0.5-0.5-0.9-1.2-0.9-1.9C228.9,139.8,228.6,139.8,228.6,140z M211.4,141h3.1l-1.6-1.4L211.4,141z M207.5,141h3.1l-1.6-1.4
		L207.5,141z M203.7,141h3.1l-1.6-1.4L203.7,141z M199.9,141h3.1l-1.6-1.4L199.9,141z M196,141h3.1l-1.6-1.4L196,141z M192.2,141
		h3.1l-1.6-1.4L192.2,141z M188.3,141h3.1l-1.6-1.4L188.3,141z M184.5,141h3.1l-1.6-1.4L184.5,141z M180.6,141h3.1l-1.6-1.4
		L180.6,141z M176.8,141h3.1l-1.6-1.4L176.8,141z M173,141h3.1l-1.6-1.4L173,141z M169.1,141h3.1l-1.6-1.4L169.1,141z M165.3,141
		h3.1l-1.6-1.4L165.3,141z M161.4,141h3.1l-1.6-1.4L161.4,141z M157.6,141h3.1l-1.6-1.4L157.6,141z M231.9,130v-5.2h-3v5.2H231.9z
		 M230.6,125.8c0-0.1-0.1-0.1-0.1-0.1c-0.1,0-0.1,0.1-0.1,0.1v1.4h-0.4c-0.1,0-0.1,0.1-0.1,0.1c0,0.1,0.1,0.1,0.1,0.1h0.4v1.4
		c0,0.1,0.1,0.1,0.1,0.1c0.1,0,0.1-0.1,0.1-0.1v-1.4h0.4c0.1,0,0.1-0.1,0.1-0.1c0-0.1-0.1-0.1-0.1-0.1h-0.4V125.8z M231.9,124.5
		v-5.2h-3v5.2H231.9z M230.3,123.5c0,0.1,0.1,0.1,0.1,0.1c0.1,0,0.1-0.1,0.1-0.1v-1.4h0.4c0.1,0,0.1-0.1,0.1-0.1
		c0-0.1-0.1-0.1-0.1-0.1h-0.4v-1.4c0-0.1-0.1-0.1-0.1-0.1c-0.1,0-0.1,0.1-0.1,0.1v1.4h-0.4c-0.1,0-0.1,0.1-0.1,0.1
		c0,0.1,0.1,0.1,0.1,0.1h0.4V123.5z M231.9,119.1v-5.2h-3v5.2H231.9z M231.9,113.6v-5.2h-3v5.2H231.9z M230.3,112.5
		c0,0.1,0.1,0.1,0.1,0.1c0.1,0,0.1-0.1,0.1-0.1v-1.4h0.4c0.1,0,0.1-0.1,0.1-0.1c0-0.1-0.1-0.1-0.1-0.1h-0.4v-1.4
		c0-0.1-0.1-0.1-0.1-0.1c-0.1,0-0.1,0.1-0.1,0.1v1.4h-0.4c-0.1,0-0.1,0.1-0.1,0.1c0,0.1,0.1,0.1,0.1,0.1h0.4V112.5z M230.6,114.9
		c0-0.1-0.1-0.1-0.1-0.1c-0.1,0-0.1,0.1-0.1,0.1v1.4h-0.4c-0.1,0-0.1,0.1-0.1,0.1c0,0.1,0.1,0.1,0.1,0.1h0.4v1.4
		c0,0.1,0.1,0.1,0.1,0.1c0.1,0,0.1-0.1,0.1-0.1v-1.4h0.4c0.1,0,0.1-0.1,0.1-0.1c0-0.1-0.1-0.1-0.1-0.1h-0.4
		C230.6,116.3,230.6,114.9,230.6,114.9z M231.9,91.6v-5.2h-3v5.2H231.9z M230.3,90.6c0,0.1,0.1,0.1,0.1,0.1c0.1,0,0.1-0.1,0.1-0.1
		v-1.4h0.4c0.1,0,0.1-0.1,0.1-0.1c0-0.1-0.1-0.1-0.1-0.1h-0.4v-1.4c0-0.1-0.1-0.1-0.1-0.1c-0.1,0-0.1,0.1-0.1,0.1v1.4h-0.4
		c-0.1,0-0.1,0.1-0.1,0.1c0,0.1,0.1,0.1,0.1,0.1h0.4V90.6z M231.9,97.1v-5.2h-3v5.2H231.9z M230.6,92.9c0-0.1-0.1-0.1-0.1-0.1
		c-0.1,0-0.1,0.1-0.1,0.1v1.4h-0.4c-0.1,0-0.1,0.1-0.1,0.1c0,0.1,0.1,0.1,0.1,0.1h0.4v1.4c0,0.1,0.1,0.1,0.1,0.1
		c0.1,0,0.1-0.1,0.1-0.1v-1.4h0.4c0.1,0,0.1-0.1,0.1-0.1c0-0.1-0.1-0.1-0.1-0.1h-0.4V92.9z M231.9,108.1v-5.2h-3v5.2H231.9z
		 M231.9,102.6v-5.2h-3v5.2H231.9z M230.6,103.9c0-0.1-0.1-0.1-0.1-0.1c-0.1,0-0.1,0.1-0.1,0.1v1.4h-0.4c-0.1,0-0.1,0.1-0.1,0.1
		s0.1,0.1,0.1,0.1h0.4v1.4c0,0.1,0.1,0.1,0.1,0.1c0.1,0,0.1-0.1,0.1-0.1v-1.4h0.4c0.1,0,0.1-0.1,0.1-0.1c0-0.1-0.1-0.1-0.1-0.1h-0.4
		V103.9z M230.3,101.5c0,0.1,0.1,0.1,0.1,0.1c0.1,0,0.1-0.1,0.1-0.1v-1.4h0.4c0.1,0,0.1-0.1,0.1-0.1c0-0.1-0.1-0.1-0.1-0.1h-0.4
		v-1.4c0-0.1-0.1-0.1-0.1-0.1c-0.1,0-0.1,0.1-0.1,0.1v1.4h-0.4c-0.1,0-0.1,0.1-0.1,0.1c0,0.1,0.1,0.1,0.1,0.1h0.4V101.5z
		 M219.8,130.9c0,0.1,0.1,0.1,0.2,0c0.1,0,0.1-0.1,0-0.2l-4-5.4c0-0.1-0.1-0.1-0.2,0c-0.1,0-0.1,0.1,0,0.2L219.8,130.9L219.8,130.9z
		 M212.9,127.7c0-0.2-0.1-0.3-0.2-0.5c-0.1-0.1-0.3-0.2-0.5-0.2c-0.2,0-0.4,0.1-0.5,0.2c-0.1,0.1-0.2,0.3-0.2,0.5
		c0,0.2,0.1,0.3,0.2,0.5c0.1,0.1,0.3,0.2,0.5,0.2c0.2,0,0.4-0.1,0.5-0.2C212.8,128.1,212.9,127.9,212.9,127.7z M217.4,132.7
		c0.1,0.1,0.1,0.1,0.2,0c0.1-0.1,0.1-0.1,0-0.2l-4.7-4.2c0.1-0.2,0.2-0.3,0.2-0.6c0-0.3-0.1-0.5-0.3-0.7c-0.2-0.2-0.4-0.3-0.7-0.3
		c-0.3,0-0.5,0.1-0.7,0.3c-0.2,0.2-0.3,0.4-0.3,0.7c0,0.3,0.1,0.5,0.3,0.6c0.2,0.2,0.4,0.3,0.7,0.3c0.2,0,0.4-0.1,0.6-0.2
		L217.4,132.7L217.4,132.7z M221.8,126c0-0.2-0.1-0.3-0.2-0.5c-0.1-0.1-0.3-0.2-0.5-0.2c-0.2,0-0.4,0.1-0.5,0.2
		c-0.1,0.1-0.2,0.3-0.2,0.5c0,0.2,0.1,0.3,0.2,0.5c0.1,0.1,0.3,0.2,0.5,0.2c0.2,0,0.4-0.1,0.5-0.2
		C221.7,126.3,221.8,126.2,221.8,126z M222.5,129.5c0,0.1,0.1,0.1,0.2,0.1c0.1,0,0.1-0.1,0.1-0.2l-1.2-2.6c0.1,0,0.1-0.1,0.2-0.1
		c0.2-0.2,0.3-0.4,0.3-0.7c0-0.3-0.1-0.5-0.3-0.6c-0.2-0.2-0.4-0.3-0.7-0.3c-0.3,0-0.5,0.1-0.7,0.3c-0.2,0.2-0.3,0.4-0.3,0.6
		c0,0.3,0.1,0.5,0.3,0.7c0.2,0.2,0.4,0.3,0.7,0.3c0.1,0,0.2,0,0.2,0L222.5,129.5z M215.4,134.9c0.1,0,0.2,0,0.2,0c0-0.1,0-0.1,0-0.2
		l-5.9-3.6c-0.1,0-0.2,0-0.2,0c0,0.1,0,0.1,0,0.2L215.4,134.9L215.4,134.9z M210.7,136.3c0.1-0.1,0.2-0.3,0.2-0.5
		c0-0.2-0.1-0.3-0.2-0.5c-0.1-0.1-0.3-0.2-0.5-0.2c-0.2,0-0.4,0.1-0.5,0.2c-0.1,0.1-0.2,0.3-0.2,0.5c0,0.2,0.1,0.3,0.2,0.5
		c0.1,0.1,0.3,0.2,0.5,0.2C210.4,136.5,210.6,136.5,210.7,136.3z M214,137.4c0.1,0,0.2,0,0.2-0.1c0-0.1,0-0.1-0.1-0.2l-2.9-1.1
		c0-0.1,0-0.2,0-0.2c0-0.3-0.1-0.5-0.3-0.6c-0.2-0.2-0.4-0.3-0.7-0.3c-0.3,0-0.5,0.1-0.7,0.3c-0.2,0.2-0.3,0.4-0.3,0.6
		c0,0.3,0.1,0.5,0.3,0.7c0.2,0.2,0.4,0.3,0.7,0.3c0.3,0,0.5-0.1,0.7-0.3c0.1-0.1,0.1-0.1,0.2-0.2L214,137.4L214,137.4z M214.7,145.7
		V143h-5.7v2.7H214.7z M210.1,144.2c-0.1,0-0.1,0.1-0.1,0.1c0,0.1,0.1,0.1,0.1,0.1h1.6v0.4c0,0.1,0.1,0.1,0.1,0.1
		c0.1,0,0.1-0.1,0.1-0.1v-0.4h1.6c0.1,0,0.1-0.1,0.1-0.1c0-0.1-0.1-0.1-0.1-0.1H212v-0.4c0-0.1-0.1-0.1-0.1-0.1
		c-0.1,0-0.1,0.1-0.1,0.1v0.4H210.1z M208.7,145.7V143h-5.7v2.7H208.7z M207.5,144.5c0.1,0,0.1-0.1,0.1-0.1c0-0.1-0.1-0.1-0.1-0.1
		h-1.6v-0.4c0-0.1-0.1-0.1-0.1-0.1c-0.1,0-0.1,0.1-0.1,0.1v0.4H204c-0.1,0-0.1,0.1-0.1,0.1c0,0.1,0.1,0.1,0.1,0.1h1.6v0.4
		c0,0.1,0.1,0.1,0.1,0.1c0.1,0,0.1-0.1,0.1-0.1v-0.4H207.5z M196.6,145.7V143h-5.7v2.7H196.6z M202.6,145.7V143h-5.7v2.7H202.6z
		 M195.4,144.5c0.1,0,0.1-0.1,0.1-0.1c0-0.1-0.1-0.1-0.1-0.1h-1.6v-0.4c0-0.1-0.1-0.1-0.1-0.1c-0.1,0-0.1,0.1-0.1,0.1v0.4H192
		c-0.1,0-0.1,0.1-0.1,0.1c0,0.1,0.1,0.1,0.1,0.1h1.6v0.4c0,0.1,0.1,0.1,0.1,0.1c0.1,0,0.1-0.1,0.1-0.1v-0.4H195.4z M198,144.2
		c-0.1,0-0.1,0.1-0.1,0.1c0,0.1,0.1,0.1,0.1,0.1h1.6v0.4c0,0.1,0.1,0.1,0.1,0.1c0.1,0,0.1-0.1,0.1-0.1v-0.4h1.6
		c0.1,0,0.1-0.1,0.1-0.1c0-0.1-0.1-0.1-0.1-0.1h-1.6v-0.4c0-0.1-0.1-0.1-0.1-0.1c-0.1,0-0.1,0.1-0.1,0.1v0.4H198z M172.5,145.7V143
		h-5.7v2.7H172.5z M171.3,144.5c0.1,0,0.1-0.1,0.1-0.1c0-0.1-0.1-0.1-0.1-0.1h-1.6v-0.4c0-0.1-0.1-0.1-0.1-0.1
		c-0.1,0-0.1,0.1-0.1,0.1v0.4h-1.6c-0.1,0-0.1,0.1-0.1,0.1c0,0.1,0.1,0.1,0.1,0.1h1.6v0.4c0,0.1,0.1,0.1,0.1,0.1
		c0.1,0,0.1-0.1,0.1-0.1v-0.4H171.3z M178.5,145.7V143h-5.7v2.7H178.5z M173.9,144.2c-0.1,0-0.1,0.1-0.1,0.1c0,0.1,0.1,0.1,0.1,0.1
		h1.6v0.4c0,0.1,0.1,0.1,0.1,0.1c0.1,0,0.1-0.1,0.1-0.1v-0.4h1.6c0.1,0,0.1-0.1,0.1-0.1c0-0.1-0.1-0.1-0.1-0.1h-1.6v-0.4
		c0-0.1-0.1-0.1-0.1-0.1c-0.1,0-0.1,0.1-0.1,0.1v0.4H173.9z M184.5,145.7V143h-5.7v2.7H184.5z M190.6,145.7V143h-5.7v2.7H190.6z
		 M185.9,144.2c-0.1,0-0.1,0.1-0.1,0.1c0,0.1,0.1,0.1,0.1,0.1h1.6v0.4c0,0.1,0.1,0.1,0.1,0.1c0.1,0,0.1-0.1,0.1-0.1v-0.4h1.6
		c0.1,0,0.1-0.1,0.1-0.1c0-0.1-0.1-0.1-0.1-0.1h-1.6v-0.4c0-0.1-0.1-0.1-0.1-0.1c-0.1,0-0.1,0.1-0.1,0.1v0.4H185.9z M183.4,144.5
		c0.1,0,0.1-0.1,0.1-0.1c0-0.1-0.1-0.1-0.1-0.1h-1.6v-0.4c0-0.1-0.1-0.1-0.1-0.1c-0.1,0-0.1,0.1-0.1,0.1v0.4h-1.6
		c-0.1,0-0.1,0.1-0.1,0.1c0,0.1,0.1,0.1,0.1,0.1h1.6v0.4c0,0.1,0.1,0.1,0.1,0.1c0.1,0,0.1-0.1,0.1-0.1v-0.4H183.4z M142.3,145.7V143
		h-5.7v2.7H142.3z M137.7,144.2c-0.1,0-0.1,0.1-0.1,0.1c0,0.1,0.1,0.1,0.1,0.1h1.6v0.4c0,0.1,0.1,0.1,0.1,0.1c0.1,0,0.1-0.1,0.1-0.1
		v-0.4h1.6c0.1,0,0.1-0.1,0.1-0.1c0-0.1-0.1-0.1-0.1-0.1h-1.6v-0.4c0-0.1-0.1-0.1-0.1-0.1c-0.1,0-0.1,0.1-0.1,0.1v0.4H137.7z
		 M166.4,145.7V143h-5.7v2.7H166.4z M161.8,144.2c-0.1,0-0.1,0.1-0.1,0.1c0,0.1,0.1,0.1,0.1,0.1h1.6v0.4c0,0.1,0.1,0.1,0.1,0.1
		c0.1,0,0.1-0.1,0.1-0.1v-0.4h1.6c0.1,0,0.1-0.1,0.1-0.1c0-0.1-0.1-0.1-0.1-0.1h-1.6v-0.4c0-0.1-0.1-0.1-0.1-0.1
		c-0.1,0-0.1,0.1-0.1,0.1v0.4H161.8z M160.4,145.7V143h-5.7v2.7H160.4z M159.2,144.5c0.1,0,0.1-0.1,0.1-0.1c0-0.1-0.1-0.1-0.1-0.1
		h-1.6v-0.4c0-0.1-0.1-0.1-0.1-0.1c-0.1,0-0.1,0.1-0.1,0.1v0.4h-1.6c-0.1,0-0.1,0.1-0.1,0.1c0,0.1,0.1,0.1,0.1,0.1h1.6v0.4
		c0,0.1,0.1,0.1,0.1,0.1c0.1,0,0.1-0.1,0.1-0.1v-0.4H159.2z M148.3,145.7V143h-5.7v2.7H148.3z M154.4,145.7V143h-5.7v2.7H154.4z
		 M147.2,144.5c0.1,0,0.1-0.1,0.1-0.1c0-0.1-0.1-0.1-0.1-0.1h-1.6v-0.4c0-0.1-0.1-0.1-0.1-0.1c-0.1,0-0.1,0.1-0.1,0.1v0.4h-1.6
		c-0.1,0-0.1,0.1-0.1,0.1c0,0.1,0.1,0.1,0.1,0.1h1.6v0.4c0,0.1,0.1,0.1,0.1,0.1c0.1,0,0.1-0.1,0.1-0.1v-0.4H147.2z M149.8,144.2
		c-0.1,0-0.1,0.1-0.1,0.1c0,0.1,0.1,0.1,0.1,0.1h1.6v0.4c0,0.1,0.1,0.1,0.1,0.1c0.1,0,0.1-0.1,0.1-0.1v-0.4h1.6
		c0.1,0,0.1-0.1,0.1-0.1c0-0.1-0.1-0.1-0.1-0.1h-1.6v-0.4c0-0.1-0.1-0.1-0.1-0.1c-0.1,0-0.1,0.1-0.1,0.1v0.4H149.8z M232,145.9
		c0.1,0.1,0.1,0.1,0.2,0c0.1-0.1,0.1-0.1,0-0.2l-0.6-0.6c-0.1-0.1-0.1-0.1-0.2,0c-0.1,0.1-0.1,0.1,0,0.2L232,145.9z M226.7,129.9
		v-2.8l-1.6,1.4L226.7,129.9z M226.7,126.5v-2.8l-1.6,1.4L226.7,126.5z M226.7,123v-2.8l-1.6,1.4L226.7,123z M226.7,119.6v-2.8
		l-1.6,1.4L226.7,119.6z M226.7,116.1v-2.8l-1.6,1.4L226.7,116.1z M226.7,112.7v-2.8l-1.6,1.4L226.7,112.7z M226.7,98.9v-2.8
		l-1.6,1.4L226.7,98.9z M226.7,102.3v-2.8l-1.6,1.4L226.7,102.3z M226.7,105.8V103l-1.6,1.4L226.7,105.8z M226.7,109.2v-2.8
		l-1.6,1.4L226.7,109.2z M226.7,95.5v-2.8l-1.6,1.4L226.7,95.5z M226.7,92v-2.8l-1.6,1.4L226.7,92z M231.9,86.1v-5.2h-3v5.2H231.9z
		 M231.9,80.6v-5.4h-3v5.4H231.9z M230.6,81.9c0-0.1-0.1-0.1-0.1-0.1c-0.1,0-0.1,0.1-0.1,0.1v1.4h-0.4c-0.1,0-0.1,0.1-0.1,0.1
		c0,0.1,0.1,0.1,0.1,0.1h0.4v1.4c0,0.1,0.1,0.1,0.1,0.1c0.1,0,0.1-0.1,0.1-0.1v-1.4h0.4c0.1,0,0.1-0.1,0.1-0.1s-0.1-0.1-0.1-0.1
		h-0.4V81.9z M130.7,145.7V143H125v2.7H130.7z M136.3,145.7V143H131v2.7H136.3z M129.6,144.5c0.1,0,0.1-0.1,0.1-0.1
		c0-0.1-0.1-0.1-0.1-0.1H128v-0.4c0-0.1-0.1-0.1-0.1-0.1c-0.1,0-0.1,0.1-0.1,0.1v0.4h-1.6c-0.1,0-0.1,0.1-0.1,0.1
		c0,0.1,0.1,0.1,0.1,0.1h1.6v0.4c0,0.1,0.1,0.1,0.1,0.1c0.1,0,0.1-0.1,0.1-0.1v-0.4H129.6z M132.1,144.2c-0.1,0-0.1,0.1-0.1,0.1
		c0,0.1,0.1,0.1,0.1,0.1h1.3v0.4c0,0.1,0,0.1,0.1,0.1h0l0,0h0.1l0,0h0c0.1,0,0.1-0.1,0.1-0.1v-0.4h1.3c0.1,0,0.1-0.1,0.1-0.1
		c0-0.1-0.1-0.1-0.1-0.1h-1.3v-0.4c0-0.1,0-0.1-0.1-0.1l0,0h0l0,0h0l0,0h0l0,0c-0.1,0-0.1,0.1-0.1,0.1v0.4H132.1L132.1,144.2z
		 M124.7,145.7V143H119v2.7H124.7z M120.1,144.2c-0.1,0-0.1,0.1-0.1,0.1c0,0.1,0.1,0.1,0.1,0.1h1.6v0.4c0,0.1,0.1,0.1,0.1,0.1
		c0.1,0,0.1-0.1,0.1-0.1v-0.4h1.6c0.1,0,0.1-0.1,0.1-0.1c0-0.1-0.1-0.1-0.1-0.1h-1.6v-0.4c0-0.1-0.1-0.1-0.1-0.1
		c-0.1,0-0.1,0.1-0.1,0.1v0.4H120.1z M226.7,88.6v-2.8l-1.6,1.4L226.7,88.6z M226.7,85.1v-2.8l-1.6,1.4L226.7,85.1z M226.7,81.7
		v-2.8l-1.6,1.4L226.7,81.7z M226.7,78.2v-2.8l-1.6,1.4L226.7,78.2z M149.9,141h3.1l-1.6-1.4L149.9,141z M146.1,141h3.1l-1.6-1.4
		L146.1,141z M142.2,141h3.1l-1.6-1.4L142.2,141z M138.4,141h3.1l-1.6-1.4L138.4,141z M134.5,141h3.1l-1.6-1.4L134.5,141z
		 M130.7,141h3.1l-1.6-1.4L130.7,141z M119.2,141h3.1l-1.6-1.4L119.2,141z M123,141h3.1l-1.6-1.4L123,141z M126.9,141h3.1l-1.6-1.4
		L126.9,141z M230.3,70.7v1.4h-0.4c-0.1,0-0.1,0.1-0.1,0.1c0,0.1,0.1,0.1,0.1,0.1h0.4v1.4c0,0.1,0.1,0.1,0.1,0.1
		c0.1,0,0.1-0.1,0.1-0.1v-1.4h0.4c0.1,0,0.1-0.1,0.1-0.1c0-0.1-0.1-0.1-0.1-0.1h-0.4v-1.4c0-0.1-0.1-0.1-0.1-0.1
		C230.3,70.6,230.3,70.7,230.3,70.7z M231.7,14.2l0.2,0.4c0,0.1,0.1,0.1,0.2,0.1c0.1,0,0.1-0.1,0.1-0.2l-0.2-0.4
		c0-0.1-0.1-0.1-0.2-0.1C231.7,14.1,231.7,14.1,231.7,14.2L231.7,14.2z M230.4,11.3l0.8,1.8c0,0.1,0.1,0.1,0.2,0.1
		c0.1,0,0.1-0.1,0.1-0.2l-0.8-1.8c0-0.1-0.1-0.1-0.2-0.1C230.4,11.1,230.4,11.2,230.4,11.3L230.4,11.3z M221.4,4.4l-0.5-0.2
		c-0.1,0-0.2,0-0.2,0.1c0,0.1,0,0.1,0.1,0.2l0.5,0.2c0.1,0,0.2,0,0.2-0.1C221.5,4.6,221.5,4.5,221.4,4.4z M224.6,5.7l-2-0.7
		c-0.1,0-0.2,0-0.2,0.1c0,0.1,0,0.1,0.1,0.2l2,0.7c0.1,0,0.2,0,0.2-0.1C224.7,5.8,224.7,5.7,224.6,5.7L224.6,5.7z M225.6,14.1
		l-0.3,0.6c0,0.1,0,0.1,0.1,0.2c0.1,0,0.2,0,0.2-0.1l0.3-0.6c0-0.1,0-0.1-0.1-0.2C225.7,14,225.6,14,225.6,14.1z M226.9,11.2
		l-0.8,1.8c0,0.1,0,0.1,0.1,0.2c0.1,0,0.2,0,0.2-0.1l0.8-1.8c0-0.1,0-0.1-0.1-0.2C227,11.1,226.9,11.1,226.9,11.2z M221.3,10.1
		l-0.6,0.2c-0.1,0-0.1,0.1-0.1,0.2c0,0.1,0.1,0.1,0.2,0.1l0.6-0.2c0.1,0,0.1-0.1,0.1-0.2C221.4,10.1,221.4,10,221.3,10.1z
		 M224.5,8.8l-2,0.7c-0.1,0-0.1,0.1-0.1,0.2c0,0.1,0.1,0.1,0.2,0.1l2-0.7c0.1,0,0.1-0.1,0.1-0.2C224.7,8.8,224.6,8.8,224.5,8.8
		L224.5,8.8z M228.6,12.9v2.4c0,0.1,0.1,0.1,0.1,0.1c0.1,0,0.1-0.1,0.1-0.1v-2.4c0-0.1-0.1-0.1-0.1-0.1
		C228.7,12.8,228.6,12.8,228.6,12.9z M222.7,7.2h-2.7c-0.1,0-0.1,0.1-0.1,0.1c0,0.1,0.1,0.1,0.1,0.1h2.7c0.1,0,0.1-0.1,0.1-0.1
		C222.9,7.3,222.8,7.2,222.7,7.2z M224.4,11.2l-1.9,1.7c-0.1,0.1-0.1,0.1,0,0.2c0.1,0.1,0.1,0.1,0.2,0l1.9-1.7
		c0.1-0.1,0.1-0.1,0-0.2C224.5,11.1,224.5,11.1,224.4,11.2z M227.9,8.2c0.4,0.4,0.7,0.8,0.9,1.3c0.2-0.5,0.5-0.9,0.9-1.3
		c0.4-0.4,0.9-0.6,1.4-0.8c-0.6-0.2-1-0.4-1.4-0.8c-0.4-0.4-0.7-0.8-0.9-1.3c-0.2,0.5-0.5,0.9-0.9,1.3c-0.4,0.4-0.9,0.6-1.4,0.8
		C227,7.5,227.5,7.8,227.9,8.2z M228.6,10.2c0,0.2,0.3,0.2,0.3,0c0-0.7,0.4-1.4,0.9-1.9c0.5-0.5,1.3-0.8,2.1-0.8
		c0.2,0,0.2-0.3,0-0.3c-0.8,0-1.5-0.3-2.1-0.8s-0.9-1.2-0.9-1.9c0-0.2-0.3-0.2-0.3,0c0,0.7-0.4,1.4-0.9,1.9
		c-0.5,0.5-1.3,0.8-2.1,0.8c-0.2,0-0.2,0.3,0,0.3c0.8,0,1.5,0.3,2.1,0.8C228.3,8.8,228.6,9.5,228.6,10.2z M211.4,9.3l1.6,1.4
		l1.6-1.4H211.4z M207.5,9.3l1.6,1.4l1.6-1.4H207.5z M203.7,9.3l1.6,1.4l1.6-1.4H203.7z M199.9,9.3l1.6,1.4l1.6-1.4H199.9z M196,9.3
		l1.6,1.4l1.6-1.4H196z M192.2,9.3l1.6,1.4l1.6-1.4H192.2z M188.3,9.3l1.6,1.4l1.6-1.4H188.3z M184.5,9.3l1.6,1.4l1.6-1.4H184.5z
		 M180.6,9.3l1.6,1.4l1.6-1.4H180.6z M176.8,9.3l1.6,1.4l1.6-1.4H176.8z M173,9.3l1.6,1.4l1.6-1.4H173z M169.1,9.3l1.6,1.4l1.6-1.4
		H169.1z M165.3,9.3l1.6,1.4l1.6-1.4H165.3z M161.4,9.3l1.6,1.4l1.6-1.4H161.4z M157.6,9.3l1.6,1.4l1.6-1.4H157.6z M231.9,25.4v-5.2
		h-3v5.2H231.9z M230.6,24.4V23h0.4c0.1,0,0.1-0.1,0.1-0.1c0-0.1-0.1-0.1-0.1-0.1h-0.4v-1.4c0-0.1-0.1-0.1-0.1-0.1
		c-0.1,0-0.1,0.1-0.1,0.1v1.4h-0.4c-0.1,0-0.1,0.1-0.1,0.1c0,0.1,0.1,0.1,0.1,0.1h0.4v1.4c0,0.1,0.1,0.1,0.1,0.1
		C230.5,24.5,230.6,24.5,230.6,24.4z M231.9,30.9v-5.2h-3v5.2H231.9z M230.3,26.7v1.4h-0.4c-0.1,0-0.1,0.1-0.1,0.1
		c0,0.1,0.1,0.1,0.1,0.1h0.4v1.4c0,0.1,0.1,0.1,0.1,0.1c0.1,0,0.1-0.1,0.1-0.1v-1.4h0.4c0.1,0,0.1-0.1,0.1-0.1
		c0-0.1-0.1-0.1-0.1-0.1h-0.4v-1.4c0-0.1-0.1-0.1-0.1-0.1C230.3,26.6,230.3,26.7,230.3,26.7z M231.9,36.4v-5.2h-3v5.2H231.9z
		 M231.9,41.9v-5.2h-3v5.2H231.9z M230.3,37.7v1.4h-0.4c-0.1,0-0.1,0.1-0.1,0.1c0,0.1,0.1,0.1,0.1,0.1h0.4v1.4
		c0,0.1,0.1,0.1,0.1,0.1c0.1,0,0.1-0.1,0.1-0.1v-1.4h0.4c0.1,0,0.1-0.1,0.1-0.1c0-0.1-0.1-0.1-0.1-0.1h-0.4v-1.4
		c0-0.1-0.1-0.1-0.1-0.1C230.3,37.6,230.3,37.6,230.3,37.7z M230.6,35.4v-1.4h0.4c0.1,0,0.1-0.1,0.1-0.1c0-0.1-0.1-0.1-0.1-0.1h-0.4
		v-1.4c0-0.1-0.1-0.1-0.1-0.1c-0.1,0-0.1,0.1-0.1,0.1v1.4h-0.4c-0.1,0-0.1,0.1-0.1,0.1c0,0.1,0.1,0.1,0.1,0.1h0.4v1.4
		c0,0.1,0.1,0.1,0.1,0.1C230.5,35.5,230.6,35.4,230.6,35.4z M231.9,63.9v-5.2h-3v5.2H231.9z M230.3,59.7v1.4h-0.4
		c-0.1,0-0.1,0.1-0.1,0.1c0,0.1,0.1,0.1,0.1,0.1h0.4v1.4c0,0.1,0.1,0.1,0.1,0.1c0.1,0,0.1-0.1,0.1-0.1v-1.4h0.4
		c0.1,0,0.1-0.1,0.1-0.1c0-0.1-0.1-0.1-0.1-0.1h-0.4v-1.4c0-0.1-0.1-0.1-0.1-0.1C230.3,59.5,230.3,59.6,230.3,59.7z M231.9,58.4
		v-5.2h-3v5.2H231.9z M230.6,57.3v-1.4h0.4c0.1,0,0.1-0.1,0.1-0.1c0-0.1-0.1-0.1-0.1-0.1h-0.4v-1.4c0-0.1-0.1-0.1-0.1-0.1
		c-0.1,0-0.1,0.1-0.1,0.1v1.4h-0.4c-0.1,0-0.1,0.1-0.1,0.1c0,0.1,0.1,0.1,0.1,0.1h0.4v1.4c0,0.1,0.1,0.1,0.1,0.1
		C230.5,57.5,230.6,57.4,230.6,57.3z M231.9,47.4v-5.2h-3v5.2H231.9z M231.9,52.9v-5.2h-3v5.2H231.9z M230.6,46.3v-1.4h0.4
		c0.1,0,0.1-0.1,0.1-0.1c0-0.1-0.1-0.1-0.1-0.1h-0.4v-1.4c0-0.1-0.1-0.1-0.1-0.1c-0.1,0-0.1,0.1-0.1,0.1v1.4h-0.4
		c-0.1,0-0.1,0.1-0.1,0.1c0,0.1,0.1,0.1,0.1,0.1h0.4v1.4c0,0.1,0.1,0.1,0.1,0.1C230.5,46.5,230.6,46.4,230.6,46.3z M230.3,48.7v1.4
		h-0.4c-0.1,0-0.1,0.1-0.1,0.1c0,0.1,0.1,0.1,0.1,0.1h0.4v1.4c0,0.1,0.1,0.1,0.1,0.1c0.1,0,0.1-0.1,0.1-0.1v-1.4h0.4
		c0.1,0,0.1-0.1,0.1-0.1c0-0.1-0.1-0.1-0.1-0.1h-0.4v-1.4c0-0.1-0.1-0.1-0.1-0.1C230.3,48.6,230.3,48.6,230.3,48.7z M219.8,19.4
		l-4,5.4c0,0.1,0,0.1,0,0.2c0.1,0,0.2,0,0.2,0l4-5.4c0-0.1,0-0.1,0-0.2C219.9,19.3,219.8,19.3,219.8,19.4z M212.9,22.5
		c0-0.2-0.1-0.3-0.2-0.5c-0.1-0.1-0.3-0.2-0.5-0.2c-0.2,0-0.4,0.1-0.5,0.2c-0.1,0.1-0.2,0.3-0.2,0.5s0.1,0.3,0.2,0.5
		c0.1,0.1,0.3,0.2,0.5,0.2c0.2,0,0.4-0.1,0.5-0.2C212.8,22.9,212.9,22.7,212.9,22.5z M217.4,17.6l-4.7,4.2c-0.2-0.1-0.4-0.2-0.6-0.2
		c-0.3,0-0.5,0.1-0.7,0.3c-0.2,0.2-0.3,0.4-0.3,0.7c0,0.3,0.1,0.5,0.3,0.7c0.2,0.2,0.4,0.3,0.7,0.3c0.3,0,0.5-0.1,0.7-0.3
		c0.2-0.2,0.3-0.4,0.3-0.6c0-0.2-0.1-0.4-0.2-0.6l4.7-4.2c0.1-0.1,0.1-0.1,0-0.2C217.5,17.5,217.5,17.5,217.4,17.6z M221.8,24.3
		c0-0.2-0.1-0.3-0.2-0.5c-0.1-0.1-0.3-0.2-0.5-0.2c-0.2,0-0.4,0.1-0.5,0.2c-0.1,0.1-0.2,0.3-0.2,0.5c0,0.2,0.1,0.3,0.2,0.5
		c0.1,0.1,0.3,0.2,0.5,0.2c0.2,0,0.4-0.1,0.5-0.2C221.7,24.6,221.8,24.4,221.8,24.3z M222.5,20.7l-1.2,2.6c-0.1,0-0.2,0-0.2,0
		c-0.3,0-0.5,0.1-0.7,0.3c-0.2,0.2-0.3,0.4-0.3,0.6c0,0.3,0.1,0.5,0.3,0.7c0.2,0.2,0.4,0.3,0.7,0.3c0.3,0,0.5-0.1,0.7-0.3
		c0.2-0.2,0.3-0.4,0.3-0.7c0-0.3-0.1-0.5-0.3-0.6c-0.1-0.1-0.1-0.1-0.2-0.1l1.2-2.6c0-0.1,0-0.1-0.1-0.2
		C222.7,20.6,222.6,20.7,222.5,20.7z M215.4,15.3l-5.9,3.6c-0.1,0-0.1,0.1,0,0.2c0,0.1,0.1,0.1,0.2,0l5.9-3.6c0.1,0,0.1-0.1,0-0.2
		C215.6,15.3,215.5,15.3,215.4,15.3L215.4,15.3z M210.7,13.9c-0.1-0.1-0.3-0.2-0.5-0.2c-0.2,0-0.4,0.1-0.5,0.2
		c-0.1,0.1-0.2,0.3-0.2,0.5c0,0.2,0.1,0.3,0.2,0.5c0.1,0.1,0.3,0.2,0.5,0.2c0.2,0,0.4-0.1,0.5-0.2c0.1-0.1,0.2-0.3,0.2-0.5
		C211,14.2,210.9,14,210.7,13.9z M214,12.8l-2.9,1.1c0-0.1-0.1-0.1-0.2-0.2c-0.2-0.2-0.4-0.3-0.7-0.3c-0.3,0-0.5,0.1-0.7,0.3
		c-0.2,0.2-0.3,0.4-0.3,0.6c0,0.3,0.1,0.5,0.3,0.7c0.2,0.2,0.4,0.3,0.7,0.3c0.3,0,0.5-0.1,0.7-0.3c0.2-0.2,0.3-0.4,0.3-0.7
		c0-0.1,0-0.2,0-0.2l2.9-1.1c0.1,0,0.1-0.1,0.1-0.2C214.1,12.8,214.1,12.8,214,12.8z M214.7,7.2V4.5h-5.7v2.7H214.7z M210.1,6h1.6
		v0.4c0,0.1,0.1,0.1,0.1,0.1c0.1,0,0.1-0.1,0.1-0.1V6h1.6c0.1,0,0.1-0.1,0.1-0.1c0-0.1-0.1-0.1-0.1-0.1H212V5.4
		c0-0.1-0.1-0.1-0.1-0.1c-0.1,0-0.1,0.1-0.1,0.1v0.4h-1.6c-0.1,0-0.1,0.1-0.1,0.1C209.9,6,210,6,210.1,6z M208.7,7.2V4.5h-5.7v2.7
		H208.7z M207.5,5.8h-1.6V5.4c0-0.1-0.1-0.1-0.1-0.1c-0.1,0-0.1,0.1-0.1,0.1v0.4H204c-0.1,0-0.1,0.1-0.1,0.1C203.9,6,204,6,204,6
		h1.6v0.4c0,0.1,0.1,0.1,0.1,0.1c0.1,0,0.1-0.1,0.1-0.1V6h1.6c0.1,0,0.1-0.1,0.1-0.1C207.7,5.8,207.6,5.8,207.5,5.8z M196.6,7.2V4.5
		h-5.7v2.7H196.6z M202.6,7.2V4.5h-5.7v2.7H202.6z M195.4,5.8h-1.6V5.4c0-0.1-0.1-0.1-0.1-0.1c-0.1,0-0.1,0.1-0.1,0.1v0.4H192
		c-0.1,0-0.1,0.1-0.1,0.1c0,0.1,0.1,0.1,0.1,0.1h1.6v0.4c0,0.1,0.1,0.1,0.1,0.1c0.1,0,0.1-0.1,0.1-0.1V6h1.6c0.1,0,0.1-0.1,0.1-0.1
		C195.6,5.8,195.5,5.8,195.4,5.8z M198,6h1.6v0.4c0,0.1,0.1,0.1,0.1,0.1c0.1,0,0.1-0.1,0.1-0.1V6h1.6c0.1,0,0.1-0.1,0.1-0.1
		c0-0.1-0.1-0.1-0.1-0.1h-1.6V5.4c0-0.1-0.1-0.1-0.1-0.1c-0.1,0-0.1,0.1-0.1,0.1v0.4H198c-0.1,0-0.1,0.1-0.1,0.1
		C197.9,6,197.9,6,198,6z M172.5,7.2V4.5h-5.7v2.7H172.5z M171.3,5.8h-1.6V5.4c0-0.1-0.1-0.1-0.1-0.1c-0.1,0-0.1,0.1-0.1,0.1v0.4
		h-1.6c-0.1,0-0.1,0.1-0.1,0.1c0,0.1,0.1,0.1,0.1,0.1h1.6v0.4c0,0.1,0.1,0.1,0.1,0.1c0.1,0,0.1-0.1,0.1-0.1V6h1.6
		c0.1,0,0.1-0.1,0.1-0.1C171.5,5.8,171.4,5.8,171.3,5.8z M178.5,7.2V4.5h-5.7v2.7H178.5z M173.9,6h1.6v0.4c0,0.1,0.1,0.1,0.1,0.1
		c0.1,0,0.1-0.1,0.1-0.1V6h1.6c0.1,0,0.1-0.1,0.1-0.1c0-0.1-0.1-0.1-0.1-0.1h-1.6V5.4c0-0.1-0.1-0.1-0.1-0.1c-0.1,0-0.1,0.1-0.1,0.1
		v0.4h-1.6c-0.1,0-0.1,0.1-0.1,0.1C173.7,6,173.8,6,173.9,6z M184.5,7.2V4.5h-5.7v2.7H184.5z M190.6,7.2V4.5h-5.7v2.7H190.6z
		 M185.9,6h1.6v0.4c0,0.1,0.1,0.1,0.1,0.1c0.1,0,0.1-0.1,0.1-0.1V6h1.6c0.1,0,0.1-0.1,0.1-0.1c0-0.1-0.1-0.1-0.1-0.1h-1.6V5.4
		c0-0.1-0.1-0.1-0.1-0.1c-0.1,0-0.1,0.1-0.1,0.1v0.4h-1.6c-0.1,0-0.1,0.1-0.1,0.1C185.8,6,185.9,6,185.9,6z M183.4,5.8h-1.6V5.4
		c0-0.1-0.1-0.1-0.1-0.1c-0.1,0-0.1,0.1-0.1,0.1v0.4h-1.6c-0.1,0-0.1,0.1-0.1,0.1c0,0.1,0.1,0.1,0.1,0.1h1.6v0.4
		c0,0.1,0.1,0.1,0.1,0.1c0.1,0,0.1-0.1,0.1-0.1V6h1.6c0.1,0,0.1-0.1,0.1-0.1C183.5,5.8,183.5,5.8,183.4,5.8z M142.3,7.2V4.5h-5.7
		v2.7H142.3z M137.7,6h1.6v0.4c0,0.1,0.1,0.1,0.1,0.1c0.1,0,0.1-0.1,0.1-0.1V6h1.6c0.1,0,0.1-0.1,0.1-0.1c0-0.1-0.1-0.1-0.1-0.1
		h-1.6V5.4c0-0.1-0.1-0.1-0.1-0.1c-0.1,0-0.1,0.1-0.1,0.1v0.4h-1.6c-0.1,0-0.1,0.1-0.1,0.1C137.5,6,137.6,6,137.7,6z M166.4,7.2V4.5
		h-5.7v2.7H166.4z M161.8,6h1.6v0.4c0,0.1,0.1,0.1,0.1,0.1c0.1,0,0.1-0.1,0.1-0.1V6h1.6c0.1,0,0.1-0.1,0.1-0.1
		c0-0.1-0.1-0.1-0.1-0.1h-1.6V5.4c0-0.1-0.1-0.1-0.1-0.1c-0.1,0-0.1,0.1-0.1,0.1v0.4h-1.6c-0.1,0-0.1,0.1-0.1,0.1
		C161.7,6,161.7,6,161.8,6z M160.4,7.2V4.5h-5.7v2.7H160.4z M159.2,5.8h-1.6V5.4c0-0.1-0.1-0.1-0.1-0.1c-0.1,0-0.1,0.1-0.1,0.1v0.4
		h-1.6c-0.1,0-0.1,0.1-0.1,0.1c0,0.1,0.1,0.1,0.1,0.1h1.6v0.4c0,0.1,0.1,0.1,0.1,0.1c0.1,0,0.1-0.1,0.1-0.1V6h1.6
		c0.1,0,0.1-0.1,0.1-0.1C159.4,5.8,159.3,5.8,159.2,5.8z M148.3,7.2V4.5h-5.7v2.7H148.3z M154.4,7.2V4.5h-5.7v2.7H154.4z M147.2,5.8
		h-1.6V5.4c0-0.1-0.1-0.1-0.1-0.1c-0.1,0-0.1,0.1-0.1,0.1v0.4h-1.6c-0.1,0-0.1,0.1-0.1,0.1c0,0.1,0.1,0.1,0.1,0.1h1.6v0.4
		c0,0.1,0.1,0.1,0.1,0.1c0.1,0,0.1-0.1,0.1-0.1V6h1.6c0.1,0,0.1-0.1,0.1-0.1C147.3,5.8,147.3,5.8,147.2,5.8z M149.8,6h1.6v0.4
		c0,0.1,0.1,0.1,0.1,0.1c0.1,0,0.1-0.1,0.1-0.1V6h1.6c0.1,0,0.1-0.1,0.1-0.1c0-0.1-0.1-0.1-0.1-0.1h-1.6V5.4c0-0.1-0.1-0.1-0.1-0.1
		c-0.1,0-0.1,0.1-0.1,0.1v0.4h-1.6c-0.1,0-0.1,0.1-0.1,0.1C149.6,6,149.7,6,149.8,6z M232,4.3l-0.6,0.6c-0.1,0.1-0.1,0.1,0,0.2
		c0.1,0.1,0.1,0.1,0.2,0l0.6-0.6c0.1-0.1,0.1-0.1,0-0.2C232.1,4.2,232,4.2,232,4.3z M226.7,20.3l-1.6,1.4l1.6,1.4
		C226.7,23.2,226.7,20.3,226.7,20.3z M226.7,23.8l-1.6,1.4l1.6,1.4C226.7,26.6,226.7,23.8,226.7,23.8z M226.7,27.2l-1.6,1.4l1.6,1.4
		V27.2z M226.7,30.7l-1.6,1.4l1.6,1.4C226.7,33.5,226.7,30.7,226.7,30.7z M226.7,34.1l-1.6,1.4l1.6,1.4
		C226.7,36.9,226.7,34.1,226.7,34.1z M226.7,37.6l-1.6,1.4l1.6,1.4C226.7,40.4,226.7,37.6,226.7,37.6z M226.7,51.3l-1.6,1.4l1.6,1.4
		C226.7,54.1,226.7,51.3,226.7,51.3z M226.7,47.9l-1.6,1.4l1.6,1.4C226.7,50.7,226.7,47.9,226.7,47.9z M226.7,44.4l-1.6,1.4l1.6,1.4
		C226.7,47.3,226.7,44.4,226.7,44.4z M226.7,41l-1.6,1.4l1.6,1.4C226.7,43.8,226.7,41,226.7,41z M226.7,54.8l-1.6,1.4l1.6,1.4
		C226.7,57.6,226.7,54.8,226.7,54.8z M226.7,58.2l-1.6,1.4l1.6,1.4V58.2z M231.9,69.3v-5.2h-3v5.2H231.9z M231.9,75v-5.4h-3V75
		H231.9z M230.6,68.3v-1.4h0.4c0.1,0,0.1-0.1,0.1-0.1c0-0.1-0.1-0.1-0.1-0.1h-0.4v-1.4c0-0.1-0.1-0.1-0.1-0.1
		c-0.1,0-0.1,0.1-0.1,0.1v1.4h-0.4c-0.1,0-0.1,0.1-0.1,0.1c0,0.1,0.1,0.1,0.1,0.1h0.4v1.4c0,0.1,0.1,0.1,0.1,0.1
		C230.5,68.4,230.6,68.4,230.6,68.3z M130.7,7.2V4.5H125v2.7H130.7z M136.3,7.2V4.5H131v2.7H136.3z M129.6,5.8H128V5.4
		c0-0.1-0.1-0.1-0.1-0.1c-0.1,0-0.1,0.1-0.1,0.1v0.4h-1.6c-0.1,0-0.1,0.1-0.1,0.1C126,6,126,6,126.1,6h1.6v0.4
		c0,0.1,0.1,0.1,0.1,0.1c0.1,0,0.1-0.1,0.1-0.1V6h1.6c0.1,0,0.1-0.1,0.1-0.1C129.7,5.8,129.6,5.8,129.6,5.8z M132.1,6h1.3v0.4
		c0,0.1,0,0.1,0.1,0.1l0,0h0l0,0h0l0,0h0l0,0c0.1,0,0.1-0.1,0.1-0.1V6h1.3c0.1,0,0.1-0.1,0.1-0.1c0-0.1-0.1-0.1-0.1-0.1h-1.3V5.4
		c0-0.1,0-0.1-0.1-0.1h0l0,0h0l0,0h0l0,0h0l0,0h0c-0.1,0-0.1,0.1-0.1,0.1v0.4h-1.3c-0.1,0-0.1,0.1-0.1,0.1C132,6,132.1,6,132.1,6z
		 M118.8,142.7H21.1c0-3-1.4-5.8-3.6-7.8c-2.2-2-5.2-3.2-8.5-3.3V18.5c3.3,0,6.3-1.3,8.5-3.3c2.2-2,3.6-4.7,3.6-7.8h195.4
		c0,3,1.4,5.8,3.6,7.8c2.2,2,5.2,3.2,8.5,3.3v113.2c-3.3,0-6.3,1.3-8.5,3.3c-2.2,2-3.5,4.7-3.6,7.8H118.8z M118.8,4.3h97.8
		c0.1,0,0.1,0.1,0.1,0.1s-0.1,0.1-0.1,0.1H215v2.7h1.7c0.1,0,0.1,0.1,0.1,0.1c0,3,1.3,5.7,3.5,7.7c2.2,2,5.2,3.2,8.5,3.2
		c0.1,0,0.1,0.1,0.1,0.1v1.5h3v-1.5c0-0.1,0.1-0.1,0.1-0.1c0.1,0,0.1,0.1,0.1,0.1v113.4c0,0.1-0.1,0.1-0.1,0.1
		c-0.1,0-0.1-0.1-0.1-0.1v-1.5h-3v1.5c0,0.1-0.1,0.1-0.1,0.1c-3.3,0-6.3,1.2-8.5,3.2c-2.2,2-3.5,4.7-3.5,7.7c0,0.1-0.1,0.1-0.1,0.1
		H215v2.7h1.7c0.1,0,0.1,0.1,0.1,0.1c0,0.1-0.1,0.1-0.1,0.1H21c-0.1,0-0.1-0.1-0.1-0.1c0-0.1,0.1-0.1,0.1-0.1h1.7V143H21
		c-0.1,0-0.1-0.1-0.1-0.1c0-3-1.3-5.7-3.5-7.7c-2.2-2-5.2-3.2-8.5-3.2c-0.1,0-0.1-0.1-0.1-0.1v-1.5h-3v1.5c0,0.1-0.1,0.1-0.1,0.1
		c-0.1,0-0.1-0.1-0.1-0.1V18.4c0-0.1,0.1-0.1,0.1-0.1c0.1,0,0.1,0.1,0.1,0.1v1.5h3v-1.5c0-0.1,0.1-0.1,0.1-0.1
		c3.3,0,6.3-1.2,8.5-3.2c2.2-2,3.5-4.7,3.5-7.7c0-0.1,0.1-0.1,0.1-0.1h1.7V4.5H21c-0.1,0-0.1-0.1-0.1-0.1c0-0.1,0.1-0.1,0.1-0.1
		C21,4.3,118.8,4.3,118.8,4.3z M124.7,7.2V4.5H119v2.7H124.7z M120.1,6c-0.1,0-0.1-0.1-0.1-0.1c0-0.1,0.1-0.1,0.1-0.1h1.6V5.4
		c0-0.1,0.1-0.1,0.1-0.1c0.1,0,0.1,0.1,0.1,0.1v0.4h1.6c0.1,0,0.1,0.1,0.1,0.1c0,0.1-0.1,0.1-0.1,0.1h-1.6v0.4
		c0,0.1-0.1,0.1-0.1,0.1c-0.1,0-0.1-0.1-0.1-0.1V6H120.1z M226.7,61.7l-1.6,1.4l1.6,1.4V61.7z M226.7,65.1l-1.6,1.4l1.6,1.4V65.1z
		 M226.7,68.5l-1.6,1.4l1.6,1.4V68.5z M226.7,72l-1.6,1.4l1.6,1.4V72z M149.9,9.3l1.6,1.4l1.6-1.4H149.9z M146.1,9.3l1.6,1.4
		l1.6-1.4H146.1z M142.2,9.3l1.6,1.4l1.6-1.4H142.2z M138.4,9.3l1.6,1.4l1.6-1.4H138.4z M134.5,9.3l1.6,1.4l1.6-1.4H134.5z
		 M130.7,9.3l1.6,1.4l1.6-1.4H130.7z M119.2,9.3l1.6,1.4l1.6-1.4H119.2z M123,9.3l1.6,1.4l1.6-1.4H123z M126.9,9.3l1.6,1.4l1.6-1.4
		H126.9z M118.8,9h96c0.1,0,0.1,0,0.1,0.1c0.4,2.8,1.8,5.3,3.9,7.2c2.1,1.9,4.8,3.2,7.9,3.6c0.1,0,0.1,0.1,0.1,0.1v110.2
		c0,0.1-0.1,0.1-0.1,0.1c-3.1,0.4-5.8,1.7-7.9,3.6c-2.1,1.9-3.5,4.4-3.9,7.2c0,0.1-0.1,0.1-0.1,0.1H22.8c-0.1,0-0.1,0-0.1-0.1
		c-0.4-2.8-1.8-5.3-3.9-7.2c-2.1-1.9-4.8-3.2-7.9-3.6c-0.1,0-0.1-0.1-0.1-0.1V20c0-0.1,0.1-0.1,0.1-0.1c3.1-0.4,5.8-1.7,7.9-3.6
		c2.1-1.9,3.5-4.4,3.9-7.2C22.6,9,22.7,9,22.8,9L118.8,9L118.8,9z M130.4,9.3l1.8,1.6c0.1,0.1,0.1,0.1,0.2,0l1.8-1.6L136,11
		c0.1,0.1,0.1,0.1,0.2,0l1.8-1.6l1.8,1.6c0.1,0.1,0.1,0.1,0.2,0l1.8-1.6l1.8,1.6c0.1,0.1,0.1,0.1,0.2,0l1.8-1.6l1.8,1.6
		c0.1,0.1,0.1,0.1,0.2,0l1.8-1.6l1.8,1.6c0.1,0.1,0.1,0.1,0.2,0l1.8-1.6l1.8,1.6c0.1,0.1,0.1,0.1,0.2,0l1.8-1.6l1.8,1.6
		c0.1,0.1,0.1,0.1,0.2,0l1.8-1.6l1.8,1.6c0.1,0.1,0.1,0.1,0.2,0l1.8-1.6l1.8,1.6c0.1,0.1,0.1,0.1,0.2,0l1.8-1.6l1.8,1.6
		c0.1,0.1,0.1,0.1,0.2,0l1.8-1.6l1.8,1.6c0.1,0.1,0.1,0.1,0.2,0l1.8-1.6l1.8,1.6c0.1,0.1,0.1,0.1,0.2,0l1.8-1.6l1.8,1.6
		c0.1,0.1,0.1,0.1,0.2,0l1.8-1.6L186,11c0.1,0.1,0.1,0.1,0.2,0l1.8-1.6l1.8,1.6c0.1,0.1,0.1,0.1,0.2,0l1.8-1.6l1.8,1.6
		c0.1,0.1,0.1,0.1,0.2,0l1.8-1.6l1.8,1.6c0.1,0.1,0.1,0.1,0.2,0l1.8-1.6l1.8,1.6c0.1,0.1,0.1,0.1,0.2,0l1.8-1.6l1.8,1.6
		c0.1,0.1,0.1,0.1,0.2,0l1.8-1.6L209,11c0.1,0.1,0.1,0.1,0.2,0l1.8-1.6l1.8,1.6c0.1,0.1,0.1,0.1,0.2,0l1.7-1.6
		c0.5,2.8,1.9,5.2,4,7.1c2.1,1.9,4.8,3.2,7.8,3.6l-1.7,1.5c-0.1,0.1-0.1,0.1,0,0.2l1.8,1.6l-1.8,1.6c-0.1,0.1-0.1,0.1,0,0.2l1.8,1.6
		l-1.8,1.6c-0.1,0.1-0.1,0.1,0,0.2l1.8,1.6l-1.8,1.6c-0.1,0.1-0.1,0.1,0,0.2l1.8,1.6l-1.8,1.6c-0.1,0.1-0.1,0.1,0,0.2l1.8,1.6
		l-1.8,1.6c-0.1,0.1-0.1,0.1,0,0.2l1.8,1.6l-1.8,1.6c-0.1,0.1-0.1,0.1,0,0.2l1.8,1.6l-1.8,1.6c-0.1,0.1-0.1,0.1,0,0.2l1.8,1.6
		l-1.8,1.6c-0.1,0.1-0.1,0.1,0,0.2l1.8,1.6l-1.8,1.6c-0.1,0.1-0.1,0.1,0,0.2l1.8,1.6l-1.8,1.6c-0.1,0.1-0.1,0.1,0,0.2l1.8,1.6
		l-1.8,1.6c-0.1,0.1-0.1,0.1,0,0.2l1.8,1.6l-1.8,1.6c-0.1,0.1-0.1,0.1,0,0.2l1.8,1.6l-1.8,1.6c-0.1,0.1-0.1,0.1,0,0.2l1.8,1.6
		l-1.8,1.6c-0.1,0.1-0.1,0.1,0,0.2l1.8,1.6l-1.8,1.6c-0.1,0.1-0.1,0.1,0,0.2l1.8,1.6l-1.8,1.6c-0.1,0.1-0.1,0.1,0,0.2l1.8,1.6
		l-1.8,1.6c-0.1,0.1-0.1,0.1,0,0.2l1.8,1.6l-1.8,1.6c-0.1,0.1-0.1,0.1,0,0.2l1.8,1.6l-1.8,1.6c-0.1,0.1-0.1,0.1,0,0.2l1.8,1.6
		l-1.8,1.6c-0.1,0.1-0.1,0.1,0,0.2l1.8,1.6l-1.8,1.6c-0.1,0.1-0.1,0.1,0,0.2l1.8,1.6l-1.8,1.6c-0.1,0.1-0.1,0.1,0,0.2l1.8,1.6
		l-1.8,1.6c-0.1,0.1-0.1,0.1,0,0.2l1.8,1.6l-1.8,1.6c-0.1,0.1-0.1,0.1,0,0.2l1.8,1.6l-1.8,1.6c-0.1,0.1-0.1,0.1,0,0.2l1.8,1.6
		l-1.8,1.6c-0.1,0.1-0.1,0.1,0,0.2l1.8,1.6l-1.8,1.6c-0.1,0.1-0.1,0.1,0,0.2l1.8,1.6l-1.8,1.6c-0.1,0.1-0.1,0.1,0,0.2l1.8,1.6
		l-1.8,1.6c-0.1,0.1-0.1,0.1,0,0.2l1.8,1.6l-1.8,1.6c-0.1,0.1-0.1,0.1,0,0.2l1.8,1.6l-1.8,1.6c-0.1,0.1-0.1,0.1,0,0.2l1.7,1.5
		c-3,0.4-5.7,1.7-7.8,3.6c-2.1,1.9-3.5,4.3-4,7.1l-1.7-1.6c-0.1-0.1-0.1-0.1-0.2,0l-1.8,1.6l-1.8-1.6c-0.1-0.1-0.1-0.1-0.2,0
		l-1.8,1.6l-1.8-1.6c-0.1-0.1-0.1-0.1-0.2,0l-1.8,1.6l-1.8-1.6c-0.1-0.1-0.1-0.1-0.2,0l-1.8,1.6l-1.8-1.6c-0.1-0.1-0.1-0.1-0.2,0
		l-1.8,1.6l-1.8-1.6c-0.1-0.1-0.1-0.1-0.2,0l-1.8,1.6l-1.8-1.6c-0.1-0.1-0.1-0.1-0.2,0l-1.8,1.6l-1.8-1.6c-0.1-0.1-0.1-0.1-0.2,0
		l-1.8,1.6l-1.8-1.6c-0.1-0.1-0.1-0.1-0.2,0l-1.8,1.6l-1.8-1.6c-0.1-0.1-0.1-0.1-0.2,0l-1.8,1.6l-1.8-1.6c-0.1-0.1-0.1-0.1-0.2,0
		l-1.8,1.6l-1.8-1.6c-0.1-0.1-0.1-0.1-0.2,0l-1.8,1.6l-1.8-1.6c-0.1-0.1-0.1-0.1-0.2,0l-1.8,1.6l-1.8-1.6c-0.1-0.1-0.1-0.1-0.2,0
		l-1.8,1.6l-1.8-1.6c-0.1-0.1-0.1-0.1-0.2,0l-1.8,1.6l-1.8-1.6c-0.1-0.1-0.1-0.1-0.2,0l-1.8,1.6l-1.8-1.6c-0.1-0.1-0.1-0.1-0.2,0
		l-1.8,1.6l-1.8-1.6c-0.1-0.1-0.1-0.1-0.2,0l-1.8,1.6l-1.8-1.6c-0.1-0.1-0.1-0.1-0.2,0l-1.8,1.6l-1.8-1.6c-0.1-0.1-0.1-0.1-0.2,0
		l-1.8,1.6l-1.8-1.6c-0.1-0.1-0.1-0.1-0.2,0l-1.8,1.6l-1.8-1.6c-0.1-0.1-0.1-0.1-0.2,0l-1.8,1.6l-1.8-1.6c-0.1-0.1-0.1-0.1-0.2,0
		l-1.8,1.6l-1.8-1.6c-0.1-0.1-0.1-0.1-0.2,0l-1.8,1.6l-1.8-1.6c-0.1-0.1-0.1-0.1-0.2,0l-1.8,1.6l-1.8-1.6c-0.1-0.1-0.1-0.1-0.2,0
		l-1.8,1.6l-1.8-1.6c-0.1-0.1-0.1-0.1-0.2,0l-1.8,1.6l-1.8-1.6c-0.1-0.1-0.1-0.1-0.2,0l-1.8,1.6l-1.8-1.6c-0.1-0.1-0.1-0.1-0.2,0
		l-1.8,1.6l-1.8-1.6c-0.1-0.1-0.1-0.1-0.2,0l-1.8,1.6l-1.8-1.6c-0.1-0.1-0.1-0.1-0.2,0l-1.8,1.6l-1.8-1.6c-0.1-0.1-0.1-0.1-0.2,0
		l-1.8,1.6l-1.8-1.6c-0.1-0.1-0.1-0.1-0.2,0l-1.8,1.6l-1.8-1.6c-0.1-0.1-0.1-0.1-0.2,0l-1.8,1.6l-1.8-1.6c-0.1-0.1-0.1-0.1-0.2,0
		l-1.8,1.6l-1.8-1.6c-0.1-0.1-0.1-0.1-0.2,0l-1.8,1.6l-1.8-1.6c-0.1-0.1-0.1-0.1-0.2,0l-1.8,1.6l-1.8-1.6c-0.1-0.1-0.1-0.1-0.2,0
		l-1.8,1.6l-1.8-1.6c-0.1-0.1-0.1-0.1-0.2,0l-1.8,1.6l-1.8-1.6c-0.1-0.1-0.1-0.1-0.2,0l-1.8,1.6l-1.8-1.6c-0.1-0.1-0.1-0.1-0.2,0
		l-1.8,1.6l-1.8-1.6c-0.1-0.1-0.1-0.1-0.2,0l-1.8,1.6l-1.8-1.6c-0.1-0.1-0.1-0.1-0.2,0l-1.8,1.6l-1.8-1.6c-0.1-0.1-0.1-0.1-0.2,0
		l-1.8,1.6l-1.8-1.6c-0.1-0.1-0.1-0.1-0.2,0l-1.8,1.6l-1.8-1.6c-0.1-0.1-0.1-0.1-0.2,0l-1.8,1.6l-1.8-1.6c-0.1-0.1-0.1-0.1-0.2,0
		l-1.8,1.6l-1.8-1.6c-0.1-0.1-0.1-0.1-0.2,0l-1.8,1.6l-1.8-1.6c-0.1-0.1-0.1-0.1-0.2,0l-1.8,1.6l-1.8-1.6c-0.1-0.1-0.1-0.1-0.2,0
		l-1.7,1.6c-0.5-2.8-1.9-5.2-4-7.1c-2.1-1.9-4.8-3.2-7.8-3.6l1.7-1.5c0.1-0.1,0.1-0.1,0-0.2l-1.8-1.6l1.8-1.6c0.1-0.1,0.1-0.1,0-0.2
		l-1.8-1.6l1.8-1.6c0.1-0.1,0.1-0.1,0-0.2l-1.8-1.6l1.8-1.6c0.1-0.1,0.1-0.1,0-0.2l-1.8-1.6l1.8-1.6c0.1-0.1,0.1-0.1,0-0.2L11,113
		l1.8-1.6c0.1-0.1,0.1-0.1,0-0.2l-1.8-1.6l1.8-1.6c0.1-0.1,0.1-0.1,0-0.2l-1.8-1.6l1.8-1.6c0.1-0.1,0.1-0.1,0-0.2l-1.8-1.6l1.8-1.6
		c0.1-0.1,0.1-0.1,0-0.2L11,99.2l1.8-1.6c0.1-0.1,0.1-0.1,0-0.2L11,95.8l1.8-1.6c0.1-0.1,0.1-0.1,0-0.2L11,92.3l1.8-1.6
		c0.1-0.1,0.1-0.1,0-0.2L11,88.9l1.8-1.6c0.1-0.1,0.1-0.1,0-0.2L11,85.4l1.8-1.6c0.1-0.1,0.1-0.1,0-0.2L11,82l1.8-1.6
		c0.1-0.1,0.1-0.1,0-0.2L11,78.6l1.8-1.6c0.1-0.1,0.1-0.1,0-0.2L11,75.1l1.8-1.6c0.1-0.1,0.1-0.1,0-0.2L11,71.7l1.8-1.6
		c0.1-0.1,0.1-0.1,0-0.2L11,68.2l1.8-1.6c0.1-0.1,0.1-0.1,0-0.2L11,64.8l1.8-1.6c0.1-0.1,0.1-0.1,0-0.2L11,61.3l1.8-1.6
		c0.1-0.1,0.1-0.1,0-0.2L11,57.9l1.8-1.6c0.1-0.1,0.1-0.1,0-0.2L11,54.5l1.8-1.6c0.1-0.1,0.1-0.1,0-0.2L11,51l1.8-1.6
		c0.1-0.1,0.1-0.1,0-0.2L11,47.6l1.8-1.6c0.1-0.1,0.1-0.1,0-0.2L11,44.1l1.8-1.6c0.1-0.1,0.1-0.1,0-0.2L11,40.7l1.8-1.6
		c0.1-0.1,0.1-0.1,0-0.2L11,37.2l1.8-1.6c0.1-0.1,0.1-0.1,0-0.2L11,33.8l1.8-1.6c0.1-0.1,0.1-0.1,0-0.2L11,30.4l1.8-1.6
		c0.1-0.1,0.1-0.1,0-0.2L11,26.9l1.8-1.6c0.1-0.1,0.1-0.1,0-0.2L11,23.5l1.8-1.6c0.1-0.1,0.1-0.1,0-0.2l-1.7-1.5
		c3-0.4,5.7-1.7,7.8-3.6c2.1-1.9,3.5-4.3,4-7.1l1.7,1.6c0.1,0.1,0.1,0.1,0.2,0l1.8-1.6l1.8,1.6c0.1,0.1,0.1,0.1,0.2,0l1.8-1.6
		l1.8,1.6c0.1,0.1,0.1,0.1,0.2,0l1.8-1.6l1.8,1.6c0.1,0.1,0.1,0.1,0.2,0l1.8-1.6L40,11c0.1,0.1,0.1,0.1,0.2,0L42,9.3l1.8,1.6
		C43.9,11,44,11,44,11l1.8-1.6l1.8,1.6c0.1,0.1,0.1,0.1,0.2,0l1.8-1.6l1.8,1.6c0.1,0.1,0.1,0.1,0.2,0l1.8-1.6l1.8,1.6
		c0.1,0.1,0.1,0.1,0.2,0l1.8-1.6l1.8,1.6c0.1,0.1,0.1,0.1,0.2,0l1.8-1.6L63,11c0.1,0.1,0.1,0.1,0.2,0L65,9.3l1.8,1.6
		c0.1,0.1,0.1,0.1,0.2,0l1.8-1.6l1.8,1.6c0.1,0.1,0.1,0.1,0.2,0l1.8-1.6l1.8,1.6c0.1,0.1,0.1,0.1,0.2,0l1.8-1.6l1.8,1.6
		c0.1,0.1,0.1,0.1,0.2,0l1.8-1.6l1.8,1.6c0.1,0.1,0.1,0.1,0.2,0l1.8-1.6l1.8,1.6c0.1,0.1,0.1,0.1,0.2,0l1.8-1.6l1.8,1.6
		c0.1,0.1,0.1,0.1,0.2,0l1.8-1.6l1.8,1.6c0.1,0.1,0.1,0.1,0.2,0l1.8-1.6l1.8,1.6c0.1,0.1,0.1,0.1,0.2,0l1.8-1.6l1.8,1.6
		c0.1,0.1,0.1,0.1,0.2,0l1.8-1.6l1.8,1.6c0.1,0.1,0.1,0.1,0.2,0l1.8-1.6l1.8,1.6c0.1,0.1,0.1,0.1,0.2,0l1.8-1.6L113,11
		c0.1,0.1,0.1,0.1,0.2,0l1.8-1.6l1.8,1.6c0.1,0.1,0.1,0.1,0.2,0l1.8-1.6l1.8,1.6c0.1,0.1,0.1,0.1,0.2,0l1.8-1.6l1.8,1.6
		c0.1,0.1,0.1,0.1,0.2,0l1.8-1.6l1.8,1.6c0.1,0.1,0.1,0.1,0.2,0C128.5,11,130.4,9.3,130.4,9.3z M153.8,9.3l1.6,1.4l1.6-1.4H153.8z
		 M153.8,141l1.6-1.4l1.6,1.4H153.8z M83.9,141l-1.6-1.4l-1.6,1.4H83.9z M185.2,44.5l-1.1-0.8l1.1-0.8l1.1,0.8L185.2,44.5z
		 M182.4,39.4L182.4,39.4L182.4,39.4c0,0.1,0.1,0.1,0.1,0.1h2.5v1.7l-2,1.4c-0.1,0-0.1,0.1,0,0.2c0,0.1,0.1,0.1,0.2,0l1.8-1.2v1.1
		l-1.3,0.9c-0.1,0.1-0.1,0.2,0,0.2l1.4,1c0,0,0.1,0,0.2,0l1.4-1c0,0,0.1-0.1,0.1-0.1c0,0,0-0.1-0.1-0.1l-1.3-0.9v-1.1l1.8,1.2
		c0.1,0,0.2,0,0.2,0c0,0,0-0.1,0-0.1c0,0,0-0.1-0.1-0.1l-2-1.4v-1.7h2.5c0.1,0,0.1-0.1,0.1-0.1c0-0.1-0.1-0.1-0.1-0.1h-5.4
		C182.4,39.3,182.4,39.3,182.4,39.4L182.4,39.4z M185.2,33.3c-0.1,0-0.1,0.1-0.1,0.1v1.2l-1.1-1.3l1.2-3.7l1.2,3.7l-1.1,1.3v-1.2
		C185.3,33.3,185.3,33.3,185.2,33.3z M183.7,38.4h2.9c0.1,0,0.1-0.1,0.1-0.1c0-0.1-0.1-0.1-0.1-0.1h-1.3V35l1.4-1.6c0,0,0-0.1,0-0.1
		c0,0,0,0,0,0l-1.4-4.2c0-0.1-0.1-0.1-0.1-0.1c-0.1,0-0.1,0-0.1,0.1l-1.4,4.2c0,0,0,0.1,0,0.1L185,35v3.1h-1.3
		c-0.1,0-0.1,0.1-0.1,0.1C183.6,38.4,183.6,38.4,183.7,38.4z M185.2,32.6c0.1,0,0.1-0.1,0.1-0.1v-0.1c0-0.1-0.1-0.1-0.1-0.1
		c-0.1,0-0.1,0.1-0.1,0.1v0.1C185,32.5,185.1,32.6,185.2,32.6z M186.3,106.6l-1.1,0.8l-1.1-0.8l1.1-0.8L186.3,106.6z M182.4,110.8
		L182.4,110.8L182.4,110.8c0,0.1,0.1,0.1,0.1,0.1h5.4c0.1,0,0.1-0.1,0.1-0.1c0-0.1-0.1-0.1-0.1-0.1h-2.5V109l2-1.4
		c0,0,0.1-0.1,0.1-0.1c0,0,0-0.1,0-0.1c0-0.1-0.1-0.1-0.2,0l-1.8,1.2v-1.1l1.3-0.9c0,0,0.1-0.1,0.1-0.1c0,0,0-0.1-0.1-0.1l-1.4-1
		c-0.1,0-0.1,0-0.2,0l-1.4,1c-0.1,0.1-0.1,0.2,0,0.2l1.3,0.9v1.1l-1.8-1.2c-0.1,0-0.2,0-0.2,0c0,0.1,0,0.1,0,0.2l2,1.4v1.7h-2.5
		C182.4,110.7,182.4,110.8,182.4,110.8L182.4,110.8z M185.2,121.2L185.2,121.2c0.1,0,0.1,0,0.1-0.1l1.4-4.2c0,0,0,0,0,0
		c0,0,0-0.1,0-0.1l-1.4-1.6v-3.1h1.3c0.1,0,0.1-0.1,0.1-0.1c0-0.1-0.1-0.1-0.1-0.1h-2.9c-0.1,0-0.1,0.1-0.1,0.1s0.1,0.1,0.1,0.1h1.3
		v3.1l-1.4,1.6c0,0,0,0.1,0,0.1l1.4,4.2C185.1,121.2,185.1,121.2,185.2,121.2z M185.3,116.8v-1.2l1.1,1.3l-1.2,3.7l-1.2-3.7l1.1-1.3
		v1.2c0,0.1,0.1,0.1,0.1,0.1C185.3,117,185.3,116.9,185.3,116.8z M185,117.8v0.1c0,0.1,0.1,0.1,0.1,0.1c0.1,0,0.1-0.1,0.1-0.1v-0.1
		c0-0.1-0.1-0.1-0.1-0.1C185.1,117.7,185,117.7,185,117.8z M184.4,47.5v0.6l-0.6,0.1c0,0.1-0.1,0.2-0.1,0.3c0,0.1-0.1,0.3-0.1,0.4
		c0,0.2,0.1,0.4,0.2,0.5c0.1,0.1,0.2,0.2,0.4,0.2c0.2,0,0.3-0.1,0.4-0.2c0.1-0.1,0.2-0.3,0.3-0.7c0.1-0.5,0.3-0.8,0.6-1
		c0.2-0.2,0.5-0.3,0.9-0.3c0.4,0,0.7,0.1,0.9,0.4c0.2,0.3,0.3,0.6,0.3,1.1c0,0.3-0.1,0.6-0.2,0.9c-0.1,0.3-0.3,0.5-0.5,0.7h-0.9
		v-0.6l0.6-0.1c0.1-0.1,0.1-0.2,0.2-0.3c0-0.1,0.1-0.3,0.1-0.5c0-0.2,0-0.4-0.2-0.5c-0.1-0.1-0.2-0.2-0.4-0.2
		c-0.2,0-0.3,0.1-0.4,0.2c-0.1,0.1-0.2,0.3-0.3,0.6c-0.2,0.5-0.3,0.9-0.6,1.1c-0.2,0.2-0.5,0.4-0.9,0.4c-0.4,0-0.7-0.1-0.9-0.4
		c-0.2-0.3-0.4-0.6-0.4-1.1c0-0.3,0.1-0.6,0.2-0.9c0.1-0.3,0.2-0.5,0.4-0.7L184.4,47.5L184.4,47.5z M182.9,55h0.5l0.1,0.4h2.4
		c0.3,0,0.5-0.1,0.7-0.2c0.1-0.1,0.2-0.3,0.2-0.6c0-0.3-0.1-0.5-0.2-0.6c-0.1-0.1-0.4-0.2-0.7-0.2h-2.4l-0.1,0.4h-0.5v-1.7h0.5
		l0.1,0.4h2.4c0.5,0,0.9,0.2,1.2,0.5c0.3,0.3,0.4,0.7,0.4,1.2c0,0.5-0.1,0.9-0.4,1.2c-0.3,0.3-0.7,0.5-1.2,0.5h-2.4l-0.1,0.4h-0.5
		C182.9,56.7,182.9,55,182.9,55z M183.5,60.4h-0.5v-1.7h0.5l0.1,0.4h3.2l0.1-0.4h0.5v1.7h-0.5l-0.1-0.4h-3.2L183.5,60.4z
		 M184.9,64.9v-0.6c0-0.2-0.1-0.4-0.2-0.5c-0.1-0.1-0.3-0.2-0.5-0.2c-0.2,0-0.4,0.1-0.5,0.2c-0.1,0.1-0.2,0.3-0.2,0.5v0.6H184.9
		L184.9,64.9z M182.9,64.3c0-0.5,0.1-0.8,0.4-1.1c0.2-0.3,0.6-0.4,1-0.4c0.2,0,0.4,0.1,0.6,0.2c0.2,0.1,0.3,0.3,0.4,0.5
		c0.1-0.2,0.2-0.4,0.4-0.5c0.2-0.1,0.4-0.2,0.7-0.2h0.2c0.1,0,0.2,0,0.2-0.1c0.1,0,0.1-0.1,0.1-0.2l0-0.1h0.5v0.4
		c0,0.3-0.1,0.5-0.2,0.6c-0.2,0.1-0.4,0.2-0.6,0.2h-0.3c-0.2,0-0.4,0.1-0.5,0.2c-0.1,0.1-0.2,0.3-0.2,0.4v0.7h1.2l0.1-0.4h0.5v1.7
		h-0.5l-0.1-0.4h-3.2l-0.1,0.4h-0.5L182.9,64.3L182.9,64.3z M185.6,70.5v-0.9l-1.6,0.5v0L185.6,70.5z M186.9,72l0-0.3l-3.9-1.2v-0.8
		l3.9-1.2l0-0.3h0.5v1.4h-0.5l-0.1-0.3l-0.6,0.2v1.3l0.6,0.2l0.1-0.3h0.5V72H186.9z M182.9,73.5h1.2v0.6l-0.5,0v0.8h3.2l0.1-0.4h0.5
		v1.7h-0.5l-0.1-0.4h-3.2v0.8l0.5,0v0.6h-1.2C182.9,77.1,182.9,73.5,182.9,73.5z M182.9,79.1h1.2v0.6l-0.5,0v0.8h3.2l0.1-0.4h0.5
		v1.7h-0.5l-0.1-0.4h-3.2v0.8l0.5,0v0.6h-1.2V79.1z M183.5,86.5h-0.5v-1.7h0.5l0.1,0.4h3.2l0.1-0.4h0.5v1.7h-0.5l-0.1-0.4h-3.2
		L183.5,86.5z M186.9,88.6c0.1,0.1,0.3,0.3,0.4,0.6c0.1,0.3,0.2,0.6,0.2,1c0,0.6-0.2,1-0.6,1.3c-0.4,0.3-0.9,0.5-1.6,0.5h-0.2
		c-0.7,0-1.2-0.2-1.6-0.5c-0.4-0.3-0.6-0.8-0.6-1.3c0-0.3,0.1-0.6,0.2-0.9c0.1-0.3,0.3-0.5,0.5-0.7h0.9v0.6l-0.6,0.1
		c-0.1,0.1-0.1,0.2-0.2,0.3c0,0.1-0.1,0.3-0.1,0.4c0,0.4,0.1,0.6,0.4,0.8c0.3,0.2,0.7,0.3,1.1,0.3h0.2c0.5,0,0.8-0.1,1.1-0.3
		c0.3-0.2,0.4-0.5,0.4-0.8c0-0.2,0-0.3,0-0.4c0-0.1-0.1-0.2-0.1-0.2h-0.8l0,0.6h-0.6v-1.4H186.9L186.9,88.6z M185.6,96.3v-0.9
		l-1.6,0.5v0L185.6,96.3z M186.9,97.7l0-0.3l-3.9-1.2v-0.8l3.9-1.2l0-0.3h0.5v1.4h-0.5l-0.1-0.3l-0.6,0.2v1.3l0.6,0.2l0.1-0.3h0.5
		v1.4H186.9z M184.4,99.8v0.6l-0.6,0.1c0,0.1-0.1,0.2-0.1,0.3c0,0.1-0.1,0.3-0.1,0.4c0,0.2,0.1,0.4,0.2,0.5c0.1,0.1,0.2,0.2,0.4,0.2
		c0.2,0,0.3-0.1,0.4-0.2c0.1-0.1,0.2-0.4,0.3-0.7c0.1-0.5,0.3-0.8,0.6-1c0.2-0.2,0.5-0.3,0.9-0.3c0.4,0,0.7,0.1,0.9,0.4
		c0.2,0.3,0.3,0.6,0.3,1.1c0,0.3-0.1,0.6-0.2,0.9c-0.1,0.3-0.3,0.5-0.5,0.7h-0.9v-0.6l0.6-0.1c0.1-0.1,0.1-0.2,0.2-0.3
		c0-0.1,0.1-0.3,0.1-0.5c0-0.2,0-0.4-0.2-0.5c-0.1-0.1-0.2-0.2-0.4-0.2c-0.2,0-0.3,0.1-0.4,0.2c-0.1,0.1-0.2,0.3-0.3,0.6
		c-0.2,0.5-0.3,0.9-0.6,1.1c-0.2,0.2-0.5,0.4-0.9,0.4c-0.4,0-0.7-0.1-0.9-0.4c-0.2-0.3-0.4-0.6-0.4-1.1c0-0.3,0.1-0.6,0.2-0.9
		c0.1-0.3,0.2-0.5,0.4-0.7L184.4,99.8L184.4,99.8z M203.5,69.6C203.5,69.7,203.4,69.7,203.5,69.6l-1.9,1.8c-0.1,0.1-0.1,0.1-0.2,0
		c-0.1-0.1-0.1-0.1,0-0.2l1.8-1.7C203.3,69.5,203.4,69.5,203.5,69.6C203.4,69.6,203.5,69.6,203.5,69.6z M203.5,80.6
		C203.5,80.6,203.4,80.7,203.5,80.6c-0.1,0.1-0.2,0.1-0.2,0.1l-1.8-1.7c-0.1-0.1-0.1-0.1,0-0.2c0.1-0.1,0.1-0.1,0.2,0L203.5,80.6
		C203.4,80.5,203.5,80.6,203.5,80.6z M205.3,72.1c0,0.1,0,0.1-0.1,0.1l-0.6,0.2c-0.1,0-0.2,0-0.2-0.1c0-0.1,0-0.1,0.1-0.2l0.6-0.2
		C205.2,72,205.3,72,205.3,72.1C205.3,72.1,205.3,72.1,205.3,72.1z M203.5,72.8c0,0.1,0,0.1-0.1,0.1l-1.9,0.7c-0.1,0-0.2,0-0.2-0.1
		c0-0.1,0-0.1,0.1-0.2l1.9-0.7C203.3,72.7,203.4,72.7,203.5,72.8C203.5,72.8,203.5,72.8,203.5,72.8L203.5,72.8z M200.7,67.9
		c0-0.1,0-0.1-0.1-0.1c-0.1,0-0.2,0-0.2,0.1l-0.2,0.6c0,0.1,0,0.1,0.1,0.2c0.1,0,0.2,0,0.2-0.1L200.7,67.9
		C200.7,68,200.7,68,200.7,67.9z M199.9,69.6c0-0.1,0-0.1-0.1-0.1c-0.1,0-0.2,0-0.2,0.1l-0.8,1.8c0,0.1,0,0.1,0.1,0.2
		c0.1,0,0.2,0,0.2-0.1L199.9,69.6C199.9,69.6,199.9,69.6,199.9,69.6z M205.3,78.1C205.3,78.1,205.3,78.1,205.3,78.1
		c0,0.1-0.1,0.1-0.2,0.1l-0.6-0.2c-0.1,0-0.1-0.1-0.1-0.2c0-0.1,0.1-0.1,0.2-0.1l0.6,0.2C205.3,78,205.3,78,205.3,78.1z M203.5,77.4
		C203.5,77.4,203.5,77.4,203.5,77.4c0,0.1-0.1,0.1-0.2,0.1l-1.9-0.7c-0.1,0-0.1-0.1-0.1-0.2c0-0.1,0.1-0.1,0.2-0.1l1.9,0.7
		C203.4,77.3,203.5,77.4,203.5,77.4L203.5,77.4z M200.7,82.3C200.7,82.3,200.7,82.3,200.7,82.3l-0.3-0.6c0-0.1-0.1-0.1-0.2-0.1
		c-0.1,0-0.1,0.1-0.1,0.2l0.2,0.6c0,0.1,0.1,0.1,0.2,0.1C200.7,82.4,200.7,82.4,200.7,82.3z M199.9,80.6
		C199.9,80.6,199.9,80.6,199.9,80.6l-0.8-1.8c0-0.1-0.1-0.1-0.2-0.1c-0.1,0-0.1,0.1-0.1,0.2l0.8,1.8c0,0.1,0.1,0.1,0.2,0.1
		C199.9,80.7,199.9,80.7,199.9,80.6z M200.3,75.3c-1.6,0-2.9,1.2-2.9,2.6v11.9c0,0.1-0.1,0.1-0.1,0.1c-0.1,0-0.1-0.1-0.1-0.1V77.9
		c0-1.3,0.9-2.4,2.2-2.8c-1.3-0.4-2.2-1.5-2.2-2.8V60.5c0-0.1,0.1-0.1,0.1-0.1c0.1,0,0.1,0.1,0.1,0.1v11.9c0,1.5,1.3,2.6,2.9,2.6
		C200.5,75,200.5,75.3,200.3,75.3z"/>
</g>
</svg>
