<?xml version="1.0" encoding="utf-8"?>
<!-- Generator: Adobe Illustrator 26.0.1, SVG Export Plug-In . SVG Version: 6.00 Build 0)  -->
<svg version="1.1"
	 id="Слой_1" shape-rendering="geometricPrecision" image-rendering="optimizeQuality" text-rendering="geometricPrecision" xmlns:xodm="http://www.corel.com/coreldraw/odm/2003"
	 xmlns="http://www.w3.org/2000/svg" xmlns:xlink="http://www.w3.org/1999/xlink" x="0px" y="0px" viewBox="0 0 238.1 150.2"
	 style="enable-background:new 0 0 238.1 150.2;" xml:space="preserve">
<style type="text/css">
	.st0{fill-rule:evenodd;clip-rule:evenodd;}
</style>
<g id="Layer_x0020_1">
	<path class="st0" d="M212.7,18.4c-1.8,0-2.8-0.8-4.2-1.3c-1.3-0.4-3.1-0.8-4.7-0.8c-2.1,0-3.4,0.7-4.8,2.1c-1.1,1.1-1.8,3-1.7,5.1
		c0.3-0.1,0.4-0.4,0.5-0.6c0.3-0.5,0.7-0.9,1.1-1.2c0.2-0.2,0.4-0.3,0.7-0.5c3.5-2.4,7.8,0,11.3,0c2,0,3.5-0.8,4.2-0.8
		c0,0.2-1.9,3-2.1,3.2c-2.1,3.4-4,7-5.4,10.7c-0.5,1.3-0.9,2.7-1.4,4c-0.5,1.4-0.9,2.6-1.4,3.9c-1.2,3.3-3.1,8.2-5,11.2
		c-1,1.6-3.3,5.4-5.1,5.6s-1.5-2.4-1.1-3.7s0.7-2.9,1.2-4.2c1.7-4.5,3-8.7,3-13.7c0-6.8-3.6-10.3-10.3-10.3c-1.5,0-3.1,0.2-4.4,0.6
		c-0.6,0.2-1.2,0.4-1.8,0.7c-1.2,0.5-0.8,0.2-2.1,0.3c-2.4,0.2-3.5,1.4-4.9,2.6c-0.4,0.4-0.8,1-1.1,1.4c-1.6,1.9-2.7,4.1-3.7,6.4
		c-1.2,3-1.8,5.9-1.8,9.2c0,4.7,2,8.9,6.1,10.5c3.4,1.3,7.3,1.3,10.4-0.7l1-0.7c1-0.8,1.9-1.7,2.7-2.7c0.7-0.8,1.4-1.8,1.9-2.9
		c2.3-4.1,3.8-10.2,2.8-15.7c-0.5-2.8-1.7-4.9-3.4-6.2c-2.8-2.1-8.1-2.3-9.7,1.7c-1,2.6,0.7,5.2,3.6,5.4c1.3,0.1,3.2-0.7,3.5-1.3
		c-1,0.4-1.5,1-2.9,0.5c-2.2-0.7-2.5-3.3-1.4-5c0.5-0.8,1.1-1.3,2.1-1.7c2.3-1,4.5,0.3,5.5,1.5c5,5.8,2.2,17.7-2.1,23.1
		c-0.6,0.8-1,1.2-1.8,2c-0.7,0.6-1.3,1.3-2.1,1.7c-1.8,1-3.9,1.5-6.3,1c-1.3-0.3-2.9-1-3.7-1.9c-0.2-0.2-0.3-0.3-0.5-0.5
		c-1.5-1.4-2.2-3.7-2.6-6c-0.7-4.4,0.6-8.7,2.4-12.6c0.9-2,2-3.6,3.3-5.3c0.3-0.4,1-1.1,1.4-1.4c2.3-1.8,4.8-3.4,8.2-3.4
		c1.9,0,3.7,0.6,5.1,1.6c1.3,0.9,2.4,2.3,2.9,3.8c1.2,3.3,0.5,7.4-0.4,10.6c-1,3.3-3.1,9.2-3.5,12.3c-0.4,2.6,0.8,4.5,3.5,4.1
		c3.1-0.5,4.7-3.3,6.1-5.6c0.5-0.8,1-1.7,1.4-2.6c1.3-2.6,2.6-5.3,3.7-8.1l1-2.5c0-0.1,0.1-0.2,0.1-0.2l0.1-0.1l0,0
		c0,0.6-0.2,1.2-0.3,1.8s-0.2,1.2-0.3,1.8c-0.8,5.9-1.4,12.9,2.1,18c1.7,2.4,4.7,4.2,7.8,2.7c0.3-0.2,0.6-0.3,0.9-0.5
		c0.3-0.2,0.6-0.4,0.7-0.7c-1.4,0.3-2.3,0.5-3.6,0c-1-0.3-2-1.1-2.5-1.7c-1.3-1.7-2-3.3-2.3-6.1c-0.8-7.2,2-22,4.8-28.5
		c0.8-1.9,1.9-3.8,2.9-5.5c0.9-1.5,1.8-3.1,2.9-4.5c0.2-0.2,0.3-0.4,0.4-0.7c-0.3-0.4-0.8-0.7-1.1-1c-0.3,0-1,0.6-1.2,0.7
		c-0.4,0.3-0.8,0.5-1.3,0.7C215,18.1,213.8,18.4,212.7,18.4L212.7,18.4z"/>
</g>
</svg>
