<?xml version="1.0" encoding="utf-8"?>
<!-- Generator: Adobe Illustrator 26.0.1, SVG Export Plug-In . SVG Version: 6.00 Build 0)  -->
<svg version="1.1" id="Слой_1" xmlns="http://www.w3.org/2000/svg" xmlns:xlink="http://www.w3.org/1999/xlink" x="0px" y="0px"
	 viewBox="0 0 238.1 150.2" style="enable-background:new 0 0 238.1 150.2;" xml:space="preserve">
<g>
	<path d="M231.5,142.8c-74.4,0-148.7,0-223.1,0c0-0.5,0-1.1,0-1.6c0-18.4,0-36.9,0-55.3c0-26.2,0-52.3,0-78.5c0-1.1,0-1.1,1.1-1.1
		c73.7,0,147.3,0,221,0c1.1,0,1.1,0,1.1,1.1c0,26.4,0,52.9,0,79.3c0,10.4,0,20.8,0,31.3c0,8,0,16,0,23.9
		C231.5,142.2,231.5,142.5,231.5,142.8z M229.6,8.1c-73.1,0-146.2,0-219.4,0c0,44.4,0,88.8,0,133.1c73.2,0,146.2,0,219.4,0
		C229.6,96.8,229.6,52.5,229.6,8.1z"/>
	<path d="M14.7,21.3c3,0.3,5.6-0.4,7.9-2.2c1.8-1.4,3.4-3.2,3.5-7.1c62.6,0,125.2,0,187.9,0c0,2.9,1.2,5.3,3.5,7.1
		c2.2,1.7,4.8,2.4,7.6,2.3c0,21.7,0,43.3,0,65c0.3,0,0.5,0,0.6,0.1c0.1,0,0.1,0.2,0.2,0.2c0,0.1-0.1,0.1-0.1,0.2
		c-0.1-0.1-0.1-0.2-0.2-0.2s-0.2-0.1-0.3-0.1c-0.1,0-0.2,0.1-0.2,0.2c0,0.2,0,0.4,0,0.6c0,7.3,0,14.5,0,21.8c0,1.6,0,3.3,0,4.9
		c0,4.3,0,8.7,0,13c0,0.2,0,0.3,0,0.6c-2.9-0.1-5.4,0.7-7.7,2.5c-2.3,1.9-3.4,4.2-3.4,7.2c-62.7,0-125.3,0-188,0
		c0.1-3.1-1.1-5.5-3.4-7.4c-2.3-1.8-5-2.5-7.9-2.3C14.7,92.2,14.7,56.8,14.7,21.3z M182.7,70c-0.6-0.2-1.1-0.3-1.6-0.5
		c-0.4-0.1-0.7-0.4-1.1-0.6c0.1,0.4,0.1,0.7,0.1,0.9c0.1,0.2,0.2,0.5,0.2,0.8c-0.4,0.1-0.7,0.1-0.6,0.6s0.1,1.2,0.1,1.7
		c0,0.4,0,0.9,0.1,1.3c0.1,0.4,0.5,0.7,0.6,0.9c-0.1,0.5-0.2,1-0.4,1.5c0.3,0,0.6,0,1-0.1c0,0.6,0.1,1.3,0,1.9
		c-0.2,1.1-0.2,1.1,0.8,1.7c0.6,0.4,1-0.1,1.4-0.2c0-0.3-0.1-0.5-0.1-0.7c0.1-0.6-0.1-1-0.4-1.5c-0.3-0.6-0.6-1.3-0.6-2
		c0.1-0.8,0.5-1.6,0.8-2.4c0-0.1,0-0.1,0-0.2C183,72.1,182.9,71.1,182.7,70c0.4,0.3,0.7,0.5,1.2,0.9c-0.1-1.1-0.4-2.1-0.9-3
		c-0.8-1.2-1.4-2.4-2.1-3.7c-0.1-0.2-0.3-0.2-0.5-0.5c0,0.6-0.1,0.9,0,1.2c0.6,1.1,1.1,2.3,1.8,3.3C182.5,68.8,182.6,69.4,182.7,70z
		 M146.3,111c0.3,0,0.6,0,0.8,0.1c1.3,0.7,2.7,1.1,4.1,1.3c0.5,0.1,0.6,0.4,0.4,0.9c-0.3,0.6-0.6,1.2-0.9,1.8c1,0.1,1.7-0.5,1.8-1.3
		c0-0.1,0.1-0.2,0.2-0.4c0.1-0.3,0.2-0.5,0.3-0.8c0.1-0.7,0.2-1.5,0.4-2.2c0.5-1.8,1.8-3,3.2-4.1c0.3-0.2,0.5-0.2,0.7,0.2
		c0.3,0.5,0.8,1,1.2,1.4c0.2,0.3,0.5,0.5,0.6,0.8c0.4,1.1,0.8,2.1,1.2,3.2c0.2,0.6,0.6,1.3,0.6,1.9c0,1.3,0.7,2.2,1.7,2.9
		c0.2,0.1,0.5,0.1,0.7,0.2c0-0.3,0.1-0.6,0-0.8c-0.3-0.8-0.6-1.6-0.9-2.4c-0.1-0.2,0-0.5,0.1-0.6c0.6-0.2,1.1-0.4,1.7-0.6
		c0.6-0.2,1.3-0.3,2-0.4c0,0.5-0.1,0.6-1.1,0.9c0.3,0.7,0.6,1.3,0.9,2c0,0.1,0.2,0.2,0.2,0.2c-0.4,0.4-0.1,0.8,0,1.2
		c0.1,0.4,0.2,0.8,0.2,1.2c-0.1,1.5,0.1,2.9,1.6,3.6c0.6,0.2,1.1,0.7,1.9,0.2c0.6-0.4,1,0.8,1.8,0.6c0,0,0.2,0.3,0.2,0.5
		c0.3,1,0.1,1.9,0,2.9c-0.1,0.7,0.2,1.4,0.8,1.5c0.3,0.1,1.3-0.8,1.3-1.2c-0.1-0.6-0.2-1.1-0.4-1.7c0-0.2-0.2-0.3-0.1-0.4
		c0.4-0.8,0-1.8,0.7-2.6c0.1-0.1,0.1-0.5,0.1-0.7c-0.2-0.6-1.1-0.8-0.8-1.7c-0.6-0.4-0.4-0.9-0.3-1.4c0.1,0,0.1-0.1,0.2-0.1
		c0.2,0.2,0.3,0.4,0.5,0.6c0.3,0,0.6,0,1,0c-0.2-1,0.2-1.8,0.9-2.5c0.1-0.1,0.1-0.4,0.1-0.6c0-0.3-0.1-0.5-0.2-0.8
		c-0.1-0.4,0-0.6,0.4-0.6c0.2,0,0.3,0,0.6,0c-0.1-0.4-0.2-0.8-0.4-1c-0.3-0.5-0.6-0.9,0.2-1.2c0.1,0,0.1-0.3,0.2-0.7
		c-1.7,0.2-3.3,0.5-4.8,0.7c-0.4,0.1-0.9,0-1.4,0c0.8-0.3,1.6-0.6,2.4-0.8c0.6-0.1,1.2-0.2,1.9-0.3c0.9-0.2,1.9-0.4,2.9-0.5
		c1.2-0.1,1.4-0.3,1.2-1.4c-0.5-1.9-1-3.8-1.5-5.8c-0.2-0.9-0.5-1.8-0.6-2.7c-0.2-0.8-0.2-1.6-0.4-2.4c-0.2-0.8-0.6-1.5-0.7-2.3
		c0-1.2-0.5-2.2-0.8-3.3c-0.1-0.3,0.3-1.9,0.6-2.1c0.1-0.1,0.2,0,0.3,0c-0.1,0.8-0.3,1.6-0.2,2.3c0.3,1.4,0.8,2.7,1.2,4.1
		c0.4,1.2,0.8,2.3,1,3.5c0.2,0.8,0.2,1.6,0.3,2.4c0,0.2,0.2,0.3,0.4,0.6c0.1-1.7,0.3-3.2,0.4-4.7c0.1-1.9,0-3.7,0-5.6
		c0-0.2,0-0.5-0.1-0.8c-0.2-0.8-0.5-1.7-0.8-2.5c-0.5-1.5-1.2-2.8-3-3.2c-1.2-0.3-1.8-1-2-2.1c-0.1-0.5-0.2-1-0.4-1.4
		c-0.3,0-0.5-0.1-0.6,0c-0.9,0.4-1.8,0.8-2.8,0.9c-1.1,0.1-2.1,0.4-3.2,0.5c-1.7,0.1-3.3,0-5,0c-0.5,0-0.6-0.2-0.6-0.7
		c0-1.3-0.1-2.5-0.2-3.8c0-0.6-0.2-0.9-0.9-0.8c-1.9,0.1-3.9,0.2-5.8,0.3c-0.9,0-1.8,0-2.7,0c-0.6,0-0.8,0.3-0.8,0.8
		c0,1.3-0.1,2.7-0.1,4c0,0.6-0.2,0.8-0.8,0.8c-1.7-0.1-3.4-0.2-5.1-0.3c-0.5,0-1-0.2-1.5-0.5c-1.1-0.5-1.4-0.5-1.9,0.4
		c-0.4-0.2-0.7-0.4-0.9,0.2c-0.3,0.6-0.6,1.2-0.8,1.8c-0.4,1.4-1.2,2.6-2.1,3.7c-0.1,0.1-0.3,0.2-0.4,0.2c-0.4-0.3-1.1-0.3-1.1-0.8
		c0.9-0.6,1.9-1,2.5-1.7c0.5-0.6,0.8-1.4,1-2.2c0.2-0.6,0.2-1.3,0.4-1.9c0.6-1.7,1.3-3.3,1.8-5c0.2-0.7,0.2-1.6,0.1-2.3
		c-0.2-1.6-0.7-3.2-0.5-4.9c0.1-0.5-0.3-1.1-0.6-1.6c-0.3-0.5-0.7-0.9-1.2-1.2c-0.9-0.7-1.2-1.6-1.2-2.7c0-0.8-0.2-1.5-0.9-2.3
		c-0.3,1.6-0.8,3-0.9,4.4c-0.2,2.5-0.2,5.1-0.3,7.7c0,0.1,0,0.1,0,0.1c0.2,1.2,0.5,2.4,0.5,3.6c0,1.6-0.4,3.2-0.6,4.7
		c0,0.1-0.1,0.1-0.3,0.2c-0.1-0.5-0.2-0.8-0.3-1.3c-0.2,0.1-0.4,0.2-0.6,0.3c-0.3-0.7-0.6-1.3-1.3-0.3c0,0-0.5-0.1-0.5-0.2
		c-0.2-0.4-0.2-0.9-0.3-1.3c-0.3-1.4-0.6-2.8-1.1-4.2c-0.5-1.3-1.3-2.4-1.9-3.7c-0.1-0.3-0.3-0.6-0.6-0.7c-1.6-1.3-0.6-3.6,0.6-4.5
		c0.5-0.3,0.8-0.9,1.5-0.9c0.1,0,0.2-0.2,0.3-0.3c0.2-0.8,0.6-1.5,1.4-1.8c0.8-0.4,0.8-0.9,0.5-1.6c-0.1-0.2-0.1-0.3-0.1-0.5
		c-0.2,0-0.4,0-0.7-0.1c0-0.8-0.6-0.9-1.2-0.8c-0.4,0-0.8,0-1.2,0c-0.3,0-0.6,0-0.8-0.2c-0.5-0.5-0.8-1-1.4-1.7c0.9,0,1.6,0,2.4,0
		c-0.4-0.7-0.9-0.6-1.4-0.5c-0.4,0.1-0.8,0-1.2-0.2c-0.2-0.1-0.2-0.6-0.3-0.9c0.1,0,0.1-0.1,0.2-0.1c0.2,0.2,0.3,0.4,0.5,0.6
		c0.3-0.4,0.6-0.8,0.8-1.2c0.4,0.3,0.7,0.7,1.1,1c0.1,0,0.1-0.1,0.2-0.1c-0.5-0.5-0.3-0.8,0.1-1.2c0.2-0.2,0.3-0.5,0.4-0.7
		c0.2-0.6,0.3-1.2,0.4-1.6c1.3-0.2,2.6-0.3,3.8-0.5c0.3,0,0.5-0.2,0.8,0c0.1,0.1,0.4,0,0.5-0.2c0.6-0.5,1.1-1.2,1.9-1.4
		c0.4-0.1,0.7-0.5,1.1-0.6c0.5-0.1,0.6-0.3,0.8-0.8c0.1-0.6,0.6-0.9,1-0.8c0.1,0.7,0,1.3-0.4,1.9c-0.6,0.9-1.1,1.8-1.6,2.8
		c-0.5,0.9-0.3,1.8,0.5,2.5c0.2-0.1,0.4-0.2,0.5-0.3c0.6-0.4,1.5-0.1,2.1-0.8c0.1-0.1,0.5,0,0.6,0.1c0.1,0.2,0,0.5-0.1,0.6
		c-0.3,0.3-0.8,0.5-1.1,0.8c-0.3,0.3-0.9,0.3-0.9,1c0,0.8,0,1.7,0,2.5c0,0.6,0.6,1.4,1.1,1.5c0.7,0.1,1.5-0.3,2.1,0.5
		c0.2,0.3,1,0.2,1.6,0.3c0.3,0.1,0.6,0.2,0.9,0.2c0.5,0.1,1.1,0.4,1.4,0.2c0.6-0.4,1,0.1,1.4,0.2c0.7,0.2,1.4,0.8,2.1,0
		c0.1-0.1,0.4-0.1,0.6-0.1c0.3,0.7,0.3,1.2-0.5,1.6c-0.7,0.3-1.3,0.8-2,1.2c-0.1,0-0.2,0-0.3,0c-0.6,0.4-1.3,0.3-2,0.3
		c-0.5,0-1.2,0.7-1.2,1.1c0,0.5,0.6,1.3,1.1,1.4c0.5,0.1,1,0.2,1.5,0.3c0.2,0.1,0.5,0.3,0.6,0.5c0.2,0.4,0.8,0.7,1.2,0.5
		c0.2-0.1,0.4-0.2,0.6-0.2c1.3,0.1,2.3-0.4,3.3-1.1c0.9-0.6,2-0.9,2.9-0.5c0.9,0.4,1.8,0.4,2.9,0.5c0.1-1.2,0.2-2.4,0.3-3.6
		c0.3,0,0.6,0,0.9-0.1c0.1-0.7-0.4-1-0.9-1c-0.8,0-1.6,0.2-2.5,0.2c-1.6,0.1-1.7-0.3-1.3-1.6c0,0,0,0,0.1-0.1c0.2,0,0.4,0,0.7,0
		c0.2-0.1,0.6-0.2,0.6-0.3c0.4-0.8,0.9-1.2,1.8-1.1c0.2,0,0.4-0.1,0.5-0.2c0.4-0.3,0.7-0.8,1.1-0.8c0.6-0.1,0.7-0.5,0.8-0.8
		c0.1-0.2,0.2-0.4,0.4-0.5c0.7-0.4,1.4-0.8,2.1-1.3c0.2-0.7-0.1-1.6,0.9-1.9c0.1-0.4,0.1-0.7,0.2-1.1c0.1-0.6,0.2-1.2,0.2-1.8
		c0-0.7,0.5-1.7,1.1-2.1c0.2-0.1,0.3-0.4,0.4-0.6c0.1-0.3,0-0.6,0-1c1.4,0.5,1.3-0.6,1.5-1.6c0.2,0.6,0.3,1,0.8,0.5
		c0.2-0.2,0.5-0.3,0.8-0.3c0.7-0.1,1.4-0.3,1.9-0.7c0.1-0.1,0.4-0.1,0.5-0.1c1.3,0.5,2.3,1.4,2.9,2.7c0.8,1.8,1.6,3.6,2.4,5.4
		c0.1,0,0.1,0,0.2,0c0.1-0.2,0.3-0.4,0.2-0.5c-0.4-1-0.8-2-1.3-2.9c-0.7-1.2-1.3-2.5-1.7-3.9c-0.4-1.1-0.9-2.2-1.4-3.3
		c-0.2-0.4-0.5-0.7-0.8-1.1c0.1,0,0.1-0.1,0.2-0.1c1.1,0.9,1.8,2,2.3,3.2c0.7,1.5,1.5,3,2.2,4.5c0.6,1.2,1.2,2.4,1.7,3.7
		c0.7,2.1,1.2,4.2,2,6.2c0.6,1.5,1.3,2.9,2.1,4.3c0.3,0.7,0.9,1.2,1.2,1.9c0.8,2.4,1.5,4.9,2.2,7.4c0.5,1.8,1,3.5,1.4,5.3
		c0.3,1.7,0.4,3.4,0.6,5c0.1,0.8,0.5,1.6,0.7,2.3c0.4,1.1,0.9,2.2,1.1,3.4c0.2,0.9,0.5,1.8,0.9,2.7c0.6,1,1.2,2.1,1.5,3.2
		c0.6,2,0.8,4,0.6,6.1c-0.1,1.2-0.4,2.5-0.8,3.7c-0.2,0.6-0.8,1.1-1.3,1.7c-0.6,0.8-1.4,1.2-2.4,1.2c-0.9-0.1-1.8-0.2-2.7-0.3
		c-1-0.1-1.9-0.5-2.7-1.2c-0.6-0.6-1.2-1.2-1.8-1.8c-0.4-0.4-1-0.5-1.4-0.3c-0.3,0.2-0.6,0.7-0.6,1.1c-0.1,1.7-0.1,3.3,0,5
		c0,2.5,0.1,5-0.4,7.5c-0.4,1.9-0.3,3.8,0.1,5.7c0.4,2,0.9,4.1,0.8,6.2c0,0.2,0.1,0.5,0.1,0.7c0.4,1.1,0.9,2.1,1.3,3.1
		c10.3,0,20.6,0,30.9,0c0.3-2.8,1.5-5.1,3.7-6.9c2.1-1.7,4.6-2.6,7.3-2.8c0-34.7,0-69.3,0-103.9c-1.1-0.2-2.1-0.5-3.1-0.7
		c-1.6-0.4-2.9-1.2-4.2-2.2c-2-1.5-3.2-3.5-3.6-6c-0.1-0.6-0.4-0.8-0.9-0.8c-61.3,0-122.6,0-183.8,0c-0.2,0-0.4,0-0.6,0
		c-1.3,6.2-5.5,8.8-11.4,9.5c0,0.2,0,0.5,0,0.7c0,5.7,0,11.4,0,17.2c0,28.4,0,56.8,0,85.3c0,0.6,0.1,0.8,0.8,0.8
		c1,0.1,2.1,0.2,3,0.6c1.8,0.7,3.4,1.6,4.8,3c1.5,1.6,2.5,3.3,2.7,5.5c0.1,0.5,0.2,0.6,0.7,0.6c2.3,0,4.5,0,6.8,0
		c30.9,0,61.8,0,92.8,0c0.2,0,0.3,0,0.5,0c0.1,0,0.3-0.1,0.4-0.1c1.1-1.1,1.8-2.4,1.9-3.9c0.2-2.7,0.9-5.2,1.3-7.8
		c0.2-1.2,0.5-2.4,0.6-3.6c0.2-1.5,0.3-3.1,0.4-4.6c0.2-1.6,0.5-3.1,0.6-4.7c0.1-0.6,0.2-1.3-0.5-1.6c-0.6-0.3-1.3-0.4-1.9-0.6
		c-0.4-0.1-0.9-0.2-1.2-0.5c-0.7-0.5-1.4-1.1-2-1.8c-2.3-2.4-3.6-5.1-3.5-8.5c0-1,0.1-2.1,0.3-3.1c0.1-0.7,0.4-1.4,0.6-2.1
		c0.1,0,0.2,0,0.3,0.1c0,0.2,0,0.4-0.1,0.6c-0.5,1.3-0.6,2.6-0.7,3.9c-0.1,0.5-0.1,1.1,0.7,1.2c0.3,0,0.6,0.2,0.8,0.5
		c0.6,0.6,1.1,1.1,2,0.6c0,0,0.1,0,0.2,0.1c-0.1,0.2-0.2,0.3-0.2,0.5c0,0.2,0.1,0.5,0.2,0.5c0.8,0.3,1.6,0.6,2.4,0.8
		c0.8,0.3,1.6-0.1,1.8-0.8c0.1-0.4,0.1-0.8,0.2-1.3c0,0-0.1-0.1-0.1-0.1c-2.4-0.2-3.4-1.5-2.6-3.2c1-0.1,2-0.3,2.9-0.4
		c1.1-0.2,2-0.7,2.7-1.7c0.1-0.1,0.2-0.2,0.3-0.2c0.1,0,0.2,0.2,0.3,0.3c0.1,0.4,0.2,0.8,0.2,1.3c0.1,1.2-0.1,2.4-0.4,3.6
		c-0.1,0.3-0.2,0.7-0.3,1.2c-0.2-0.3-0.4-0.5-0.6-0.7c-0.3,0.9-0.6,1.7-0.9,2.5c1,0.5,0.9-0.7,1.5-0.9c0.1,0.5,0,0.9,0.2,1.3
		c0.5,0.9,0.6,1.9,0.4,2.9c-0.1,0.7,0.1,1.5-0.7,2c-0.2,0.2-0.1,0.6,0.3,0.6c0.4,0,0.8,0.1,1.2,0c1.1-0.2,2.2,0,3.2,0.5
		c0.9,0.4,1.8,0.7,2.7,0.9c0.6,0.2,1.2,0.1,1.8,0.3C145.3,110.3,145.8,110.6,146.3,111c-0.7-0.2-1.4-0.3-2-0.4
		c-0.5-0.1-1-0.3-1.6-0.5c-0.5-0.2-1-0.4-1.5-0.6c-0.5-0.2-1-0.2-1.4-0.4c-1.2-0.6-2.5-0.5-3.9,0c0.3,0.2,0.6,0.4,0.7,0.5
		c-0.2,0.2-0.4,0.4-0.7,0.7c-0.4-0.6-0.7-0.2-0.8,0.3c-0.9-0.2-0.9,0.4-1.1,1c-0.1,0.8-0.3,1.6-0.5,2.3c-0.2,1.1-0.5,2.1-0.6,3.1
		c-0.3,1.6-0.5,3.2-0.7,4.8c-0.2,1.4-0.3,2.9-0.4,4.4c-0.2,2.1-0.5,4.2-0.8,6.2c-0.1,0.9-0.6,1.7-0.9,2.6c-0.1,0.3-0.3,0.6-0.5,0.9
		c0.7,0,1.3,0,1.9,0c0.2,0,0.5-0.2,0.5-0.4c0.1-0.8,0.4-1.7,0-2.5c-0.4-0.9,0-1.8,0.8-1.8c0.6,0,0.9-0.2,1.1-0.8
		c0.1-0.3,0.2-0.5,0.4-0.8c0.4-0.7,1.2-1,1.8-0.7c0.3-0.3,0.6-0.6,0.9-1c0.1-0.1,0.1-0.3,0.1-0.4c0-0.4,0-0.8,0-1.3
		c-0.2,0-0.4-0.1-0.5-0.1c0.3-0.7,0.6-1.4,0.9-2.1c0.4-0.8,0.8-1.7,1.6-2.1c0.3-0.2,0.8-0.1,1-0.4c1.1-1.2,2.3-2.3,3.2-3.6
		c0.6-0.8,0.8-1.8,1.2-2.8c0.4-1,0.8-2,1.3-2.9C146.6,112.1,147,111.6,146.3,111z M168.8,136.2c-0.1-0.4-0.1-0.7-0.2-1
		c-0.4-0.9-0.9-1.7-1.2-2.6c-0.6-1.9-1.2-3.8-1.7-5.8c-0.3-1-0.5-2.1-0.6-3.2c-0.3-1.8-0.9-3.6-2-5.1c-0.3-0.5-0.8-0.9-1.3-1.2
		c-0.8-0.7-1.5-1.4-1.7-2.4c-0.5-2.2-1.1-4.4-2-6.5c-0.6-1.3-1.5-1.4-2.3-0.3c-0.4,0.6-0.6,1.3-1,1.9c-0.6,0.9-1.1,1.8-0.9,2.9
		c0.3,1.2-0.5,1.9-1.4,2.4c-1.4,0.8-2.5,2-3.1,3.5c-0.3,0.8-0.8,1.5-1.3,2.2c-0.4,0.6-0.9,1.1-1.2,1.8c-0.4,0.8-0.5,1.8-0.9,2.5
		c-1.2,1.8-1.8,3.9-2.5,6c-0.4,1.2-0.5,2.5-1.3,3.6c-0.3,0.4-0.4,0.8-0.6,1.3C150.8,136.2,159.8,136.2,168.8,136.2z M179.4,98.5
		c0.1,0,0.1,0.1,0.2,0.1c0.5-0.7,0.9-1.3,1.4-2c0.6-0.8,0.7-1.6,0.4-2.5c-0.5-1.7-0.8-3.4-0.6-5.1c0-0.3,0-0.8-0.1-1.1
		c-1-2.6-1.9-5.1-3.1-7.6c-0.7-1.3-1-2.6-0.9-4.1c0-0.2,0-0.4,0-0.6c-0.1-0.3-0.1-0.8-0.3-1c-0.4-0.5-0.9-0.9-1.2-1.5
		c-0.5-0.8-1-1.6-1.2-2.4c-0.4-1.3-0.9-2.6-1.8-3.7c-0.7-0.7-1.6-0.7-2,0c-0.2,0.4-0.3,0.9-0.3,1.4c0,0.9,0.1,1.9,0.2,2.8
		c0.1,0.7,0.2,1.4,0.9,1.7c0.7,0.3,0.8,0.9,1,1.4c0.1,0.3,0.2,0.6,0.3,0.9c0.4,0.9,0.9,1.7,1,2.6c0.1,0.8,0.4,1.5,0.9,2.1
		c0.5,0.8,1.2,1.5,1.6,2.3c0.9,2,1.6,4,2.4,6c0.6,1.5,0.9,3,1,4.6C179.2,94.8,179.4,96.6,179.4,98.5z M181.7,90.2
		c-0.1,0-0.2,0-0.3,0c-0.1,0.2-0.2,0.4-0.1,0.5c0.3,1.2,0.5,2.3,0.9,3.4c0.2,0.7,0.6,1.3,0,2.1c-0.3,0.4-0.4,1-0.7,1.4
		c-1,1.3-1.5,2.8-1.5,4.5c0,0.5,0.1,0.8,0.7,0.4c0.1-0.1,0.3-0.1,0.4,0c0.5,0.5,0.6,0.1,0.7-0.3c0.2,0,0.3,0,0.4,0
		c1.3,0.1,1.6,0.1,2.3-1.6c0.1-0.4,0.4-0.8,0.7-1.1c0.6-0.5,1.3-0.9,1.9-1.4c0.4-0.4,0.6-0.2,0.7,0.2c0.1,0.6,0.1,1.1,0.2,1.7
		c0,0.2,0.1,0.4,0.1,0.8c0.9-0.9,0.4-1.8,0.6-2.6c0.6-0.2,0.5,0.3,0.6,0.6c0.1,0.3,0,0.7-0.1,1c0.1,0,0.1,0,0.2,0
		c0-0.1,0-0.2,0.1-0.4c0.1-0.9-0.2-2,0.9-2.6c0.1,0,0.1-0.2,0.2-0.3c0.4-0.7,0.1-1.2-0.2-1.9c-0.4-0.9-0.8-1.9-1-2.9
		c-0.2-1.1-0.1-1.2-1.3-1c-0.5,0.1-0.8-0.1-0.9-0.6c-0.1-0.8,0.1-1,1.1-1.2c-0.1-0.5-0.2-1-0.8-1c-1.2,0-2.5,0-3.7,0
		c-1.4,0.1-2,0.9-1.7,2.2c0.8,0,0.5-0.7,0.6-0.9c1-0.2,1.9-0.4,2.8-0.5c0-0.1,0-0.1,0-0.2c0.3,0.2,0.6,0.4,1,0.7
		c-0.4,0.1-0.8-0.1-0.9,0.1c-0.2,0.2-0.2,0.6-0.4,1.1c-0.3-0.9-0.9-0.7-1.5-0.7c-0.4,0-0.6,0.2-0.6,0.6c0.2,0.7,0.4,1.5,0.6,2.2
		c0.1,0.2,0.1,0.4,0,0.5c-0.3,0.4-0.6,0.7-1,1.1C182.4,92.6,182,91.4,181.7,90.2z M170.8,74.4c-0.3-0.2-0.4-0.3-0.5-0.3
		c-1.2,0.2-2.3,0.4-3.5,0.7c-0.4,0.1-0.8,0.2-1.2,0.3c-0.6,0.2-1.2,0.3-1.8,0.5c-0.6,0.1-1.3,0.2-1.9,0.3c-0.9,0.2-1.7,0.4-2.6,0.5
		c-1,0.1-2,0.2-3,0.3c-1.5,0.2-3.1,0.4-4.6,0.5c-1.8,0.2-3.7,0.2-5.5,0.3c-0.5,0-1,0-1.5,0c-0.2,0-0.5,0.2-0.7,0.3
		c0.2,0.2,0.5,0.4,0.7,0.4c0.8,0,1.5-0.2,2.3-0.2c2.7-0.2,5.5,0.3,8.2-0.5c1.2-0.4,2.6-0.2,4-0.3c0.5,0,1,0,1.4-0.1
		c0.7-0.1,1.4-0.3,2-0.5c0.1,0,0.3,0,0.4-0.1c0.5-0.3,1.1-0.4,1.7-0.5c0.7-0.1,1.3-0.3,2-0.5c0.7-0.2,1.4-0.4,2.1-0.6
		C169.4,74.8,170,74.6,170.8,74.4z M185.4,105.2c0,0.1-0.1,0.1-0.1,0.2c0.3,0.2,0.7,0.6,1,0.6c0.3,0,0.7-0.4,0.9-0.7
		c0.3-0.3,0.4-0.8,0.6-1.2c0.5,0.4,0.8,0.5,1.1,0c0.4-0.8,0.6-1.6,0.8-2.4c0.1-0.3,0-0.7-0.4-0.7c-0.2,0-0.4,0.1-0.6,0.1
		c0.1,0.3,0.2,0.5,0.3,0.8c-0.4,0.1-0.9,0.1-1.2-0.5c-0.1-0.2-0.4-0.2-0.6-0.3c0,0.2-0.1,0.4-0.1,0.7c0,0.7,0.2,1.4,0.1,2.1
		c-0.1,1.1-0.5,1.4-1.6,1.3C185.5,105.2,185.4,105.2,185.4,105.2z M184.2,87.5c0,0.1,0.1,0.1,0.1,0.2c0.4-0.2,1-0.3,1.1-0.7
		c0.2-0.4,0.1-0.9,0-1.4c0-0.2-0.4-0.2-0.6-0.4c-0.1-0.1-0.2-0.2-0.2-0.3c-0.2-0.2-0.3-0.5-0.5-0.8c-0.1-0.1-0.4-0.2-0.6-0.2
		c-0.1,0.2-0.2,0.4-0.2,0.7c-0.1,0.5,0,1.1-0.1,1.6C182.9,87.4,183,87.5,184.2,87.5z M175.2,83.9c0.1-0.9-0.5-2.2-1.2-2.5
		c-0.3-0.1-0.7-0.1-0.6,0.3c0.1,0.4,0.3,0.9,0.6,1.3C174.3,83.4,174.7,83.6,175.2,83.9z M133.8,100.6c-0.4,0.4-0.9,0.9-1.3,1.3
		c-0.1,0.1-0.2,0.3-0.2,0.4c0.1,0.2,0.3,0.3,0.4,0.4c0.6,0.2,1-0.2,1.1-0.7C134.1,101.6,134.7,101.1,133.8,100.6z M143.6,70.1
		c0,0.7,0.8,1.6,1.4,1.6c0.4,0,0.5-0.3,0.4-0.6C145.1,70.4,144.5,70,143.6,70.1z M134.3,75.7c0.1,0.5-0.3,1.1,0.4,1.3
		c0.5,0.1,0.5-0.3,0.6-0.7C135.3,75.6,134.9,75.5,134.3,75.7z M185.8,106.2c0,0.1-0.1,0.2-0.1,0.2c0.2,0.2,0.4,0.5,0.6,0.7
		c0.1,0.1,0.4,0,0.5-0.1c0.3-0.2,0.5-0.4,0.7-0.7c-0.2-0.1-0.4-0.2-0.6-0.4C186.6,106.2,186.4,107.1,185.8,106.2z M178.3,74.7
		c-0.3-0.5-0.5-0.8-0.8-1.2c0,0-0.4,0.1-0.4,0.2C177,74.1,177.6,74.7,178.3,74.7z M172.9,57.7c-0.4,0.2-0.6,0.2-0.7,0.3
		c-0.3,0.5-0.2,1,0.2,1.5C172.6,59,172.7,58.5,172.9,57.7z M132.8,76.2c-0.5,0-0.8,0-1.1,0c-0.1,0.1-0.1,0.1-0.1,0.2
		c0.3,0.3,0.5,0.5,0.8,0.8C132.5,76.9,132.6,76.6,132.8,76.2z M184.1,83.3c0-0.1-0.1-0.2-0.1-0.2c-0.3,0-0.6,0-0.9,0
		c0,0.1-0.1,0.1-0.1,0.2c0.1,0.1,0.3,0.3,0.4,0.3C183.6,83.6,183.8,83.4,184.1,83.3z"/>
	<path d="M223.7,129.6c0,2.1,0,4.2,0,6.4c-2.6,0-5.1,0-7.6,0C215.6,132.9,219.6,129.1,223.7,129.6z"/>
	<path d="M16.3,129.6c3.7-0.4,7.8,2.9,7.6,6.5c-0.4,0-0.8,0-1.2,0c-1.9,0-3.9,0-5.8,0c-0.4,0-0.6-0.1-0.6-0.6c0-1.9,0-3.8,0-5.7
		C16.2,129.7,16.3,129.7,16.3,129.6z"/>
	<path d="M216,13.3c2.6,0,5.1,0,7.7,0c0,2,0,4,0,6c0,0.5-0.1,0.7-0.6,0.6c-0.7-0.2-1.4-0.3-2-0.5c-2.6-0.8-4.3-2.5-5.1-5.2
		C215.9,14,216,13.7,216,13.3z"/>
	<path d="M16.3,13.3c2.5,0,5,0,7.4,0c0.5,2.7-3.1,6.6-7.4,6.3C16.3,17.6,16.3,15.5,16.3,13.3z"/>
	<path d="M133.5,44c1.4-1.3,3-2.4,4.8-3c0.7-0.2,1.4-0.5,2.1-0.8c0.6-0.2,0.8-0.8,0.8-1.4c0-0.1,0-0.2,0-0.3c0-0.6,0.2-1.2-0.7-1.6
		c-1-0.4-1.4-1.3-1.1-2.5c0.2-1-0.1-2-0.1-2.9c0-0.5,0.1-1,0.4-1.3c0.7-0.7,0.8-1.5,0.9-2.3c0.3-1.9,0.9-3.7,2.2-5.2
		c0.9-1,1.8-1.8,3.2-2.2c1.1-0.3,2.1-0.6,3.3-0.5c0.7,0.1,1.4,0.3,2,0.5c0.6,0.1,1.1,0.2,1.7,0.4c1.4,0.3,2.7,0.9,3.8,1.8
		c0.3,0.3,0.7,0.5,1.1,0.7c1,0.7,1.4,1.7,1.6,2.8c0.1,0.8,0.2,1.7,0.3,2.5c0.1,1.4-0.6,2.7-1,4c-0.6,1.7-1,3.4-1.2,5.2
		c-0.1,1.1,0.6,1.7,1.6,1.8c1.4,0.2,2.8,0.3,4.1,1c0.9,0.5,1.9,0.6,2.8,0.9c1.4,0.4,2.9,0.7,4.2,1.2c0.8,0.3,1.4,0.9,2,1.4
		c0,0-0.1,0.1-0.1,0.2c-0.1,0-0.3,0-0.3,0c-1.3-1.1-2.7-1.8-4.4-1.6c-0.8,0.1-1.5-0.2-2.3-0.5c-0.9-0.4-1.9-0.6-2.8-0.9
		c-0.7-0.2-1.4-0.5-2.1-0.7c-0.1,0-0.2-0.1-0.3-0.1c-0.9-0.1-1.9-0.2-2.8-0.3c-0.1,0-0.2,0-0.3,0c-1.1-0.3-1.2-0.3-1.6,0.8
		c-0.2,0.5-0.4,1-0.6,1.5c-0.1,0.3,0,0.7,0,1.2c0.5-0.1,0.9-0.2,1.3-0.2c0.1,0,0.3,0.2,0.4,0.3c0.3,0.4,0.5,0.9,0.7,1.3
		c-0.2,0.3-0.6,0.6-0.7,1c-0.3,0.8-0.4,1.6-0.6,2.4c-0.1,0.2-0.2,0.5-0.4,0.5c-1,0.3-1.2,1-0.6,1.9c-0.3,0.1-0.6,0.2-0.9,0.3
		c-0.2,0.1-0.4,0.1-0.5,0.3c-0.5,0.7-1,1.3-2.1,1.5c-0.7,0.1-1.4,0.7-2,1.1c-0.6,0.4-1.2,0.6-1.8,0.5c-0.4-0.1-0.8-0.5-1-0.8
		c-0.1-0.1,0.2-0.5,0.3-0.8c0.2-0.4,0.4-0.8,0.6-1.2c-0.1-0.1-0.1-0.2-0.1-0.2c-0.4,0-0.8,0-1.2,0c-0.3,0-0.6-0.1-0.9-0.2
		c0.1-0.2,0.1-0.5,0.2-0.7c0.1-0.4,0.2-0.7,0.4-1.2c-0.6,0.2-1,0.2-1.4,0.3c-0.1,0-0.1-0.1-0.2-0.1c0.7-0.4,0.4-0.8,0.1-1.2
		c-0.4-0.4-0.7-0.8-1.1-1.2c-0.5-0.5-1.2-0.3-1.4,0.4c-0.2,0.7-0.5,0.7-1,0.4c-0.6-0.4-1.1-0.8-1.7-1.2c-0.5-0.4-0.1-0.7,0.2-1
		c0.2-0.2,0.5-0.3,0.7-0.6c0.6-0.6,1.1-1.2,1.7-1.8c0.1-0.1,0.2-0.1,0.3-0.1c0.2-0.1,0.5-0.2,0.6-0.3c0.2-0.2,0.1-0.7,0.5-0.5
		c0.3,0.2,0.7,0.5,0.7,1c0,0.3,0.2,0.6,0.4,1c0.3-1,0.2-1.8-0.5-2.6c0.8-0.2,1.1-0.7,1.3-1.5c0.1-0.5,0.8-0.9,1.2-1.3
		c0.3-0.2,0.7-0.3,1.1-0.4c0,0.3,0.1,0.6,0.1,0.8c0.5,0.2,1,0.4,1.5,0.7c0.5,0.4,0.9,0.3,1.4,0c0.3-0.2,0.6-0.2,1-0.3
		c0.3-0.1,0.5-0.3,0.7-0.5c-0.2-0.1-0.4-0.2-0.6-0.4c-0.2-0.2-0.4-0.4-0.6-0.6c-0.2-0.3-0.2-0.6-0.4-0.9c-0.3-0.6-0.8-0.7-1.5-0.6
		c-0.9,0.2-1.8,0.2-2.7,0.2c-0.1,0-0.2-0.1-0.2-0.1c-0.3-0.8-1.2-1-1.8-1.5c-0.3-0.3-0.5-0.6-0.7-1c0.4-0.1,0.8-0.4,1.1-0.4
		c0.5,0,1.1,0.2,1.6,0.2c0.1,0,0.2,0,0.2,0c0.9-0.7,1.5,0.3,2.2,0.5c0.5,0.2,1,0.5,1.5,0.6c0.4,0.1,0.8-0.1,1.2-0.2
		c0.6-0.2,1.1-0.5,1.7-0.8c0.2-0.1,0.3-0.6,0.2-0.7c-0.3-0.2-0.6-0.6-1.1-0.3c-0.1,0.1-0.4,0.1-0.5,0.2c-0.1,0-0.2,0.1-0.4,0.1
		c-0.2,0.2-0.4,0.3-0.6,0.5c-0.2-0.6-0.2-1.2-0.5-1.4c-0.6-0.3-0.5-0.6-0.2-1c0.1-0.1,0.1-0.2,0.1-0.2c-0.3-0.3-0.6-0.5-0.7-0.8
		c-0.2-0.6-0.6-0.7-1.2-1c-1.1-0.5-2.1-1.2-3.2-1.9c-0.6-0.4-1.2-0.1-1.2,0.7c0,0.4,0.1,0.8,0,1.1c-0.1,0.5-0.3,1.1-0.6,1.2
		c-0.9,0.3-1,1-1.1,1.7c-0.1,0.3-0.1,0.6-0.2,0.9c-0.1,0.4-0.4,0.7-0.9,0.5c-0.4-0.2-0.4-0.6-0.1-0.7c0.6-0.4,0.5-0.8,0.4-1.4
		c-0.1-0.4-0.1-0.8-0.2-1.2c-0.6-0.2-0.8,0-0.8,0.6c0,0.7-0.2,1.4-0.2,2c0.1,0.9,0.2,1.7,0.5,2.6c0.1,0.2,0.4,0.5,0.6,0.5
		c0.7,0.1,0.8,0.5,0.8,1c0,0.7-0.1,1.4-0.2,2.1c-0.1,0.7-1.1,1.4-1.8,1.6c-0.9,0.3-1.8,0.8-2.7,1.2c-0.6,0.2-1.2,0.4-1.7,0.7
		c-0.6,0.3-1.2,0.7-1.9,1C133.7,44.2,133.6,44.1,133.5,44C133.5,44,133.5,44,133.5,44z M149.2,41.4c-0.4-0.4-0.8-0.8-1.2-1.1
		c-0.3-0.2-0.8-0.5-1-0.3c-0.5,0.4-0.8,1-0.8,1.9C147.2,41.6,148.2,42.2,149.2,41.4z M151.1,43.3c0-0.1,0.1-0.2,0.1-0.2
		c-0.1-0.1-0.2-0.3-0.4-0.4c-1.1-0.2-2.1-0.4-3.1-0.6c-0.7-0.1-0.8,0.2-0.6,1C148.4,43.1,149.8,43.2,151.1,43.3z M147.9,44.3
		c0.6,0,1.1,0,1.8,0c-1.5-1-2.1-1.1-3.4,0.2c0.3,0.9,1,0.8,1.8,0.6C148,44.8,147.9,44.6,147.9,44.3z M156.6,36.8
		c0.4-0.3,0.6-0.9,0.4-2c-0.1-0.4-0.2-0.9-0.9-1C156.2,34.9,156.4,35.8,156.6,36.8z M148.6,21.2c0.8,0.1,1.6,0.2,2.4,0.4
		c0.2,0,0.4,0.2,0.6,0.3c0.4,0.4,0.6,0.3,0.8-0.3C151.1,21.1,149.9,20.9,148.6,21.2z M146.8,21.5c0-0.1-0.1-0.2-0.1-0.2
		c-0.6,0.2-1.4,0.3-1.7,1.1C145.6,22.1,146.1,21.8,146.8,21.5z"/>
	<path d="M133.5,44c0.3,0.7-0.5,0.8-0.8,1.2c-0.6,0.7-1.3,1.3-2,1.9c-0.3,0.2-0.6,0.5-0.9,0.6c-1.2,0.4-2.4,0.9-3.3,1.9
		c-0.7,0.7-0.8,1.7-1,2.6c-0.2,1.6,0.1,3.1,0.6,4.6c0,0.1,0.1,0.2,0.1,0.3c0.1,1.5,0.1,3.1,0.3,4.6c0.1,1,0.4,2.1,0.7,3.1
		c0.2,0.9,0.1,1.9-0.2,2.8c-0.4,1.2-1,2.3-1.3,3.5c-0.2,1.1-0.2,2.3-0.2,3.5c0,0.9,0.2,1.8,0.4,2.7c0.3,1.3,0.7,2.6,1,3.9
		c0.2,0.9,0.4,1.8,0.7,2.7c0.2,0.7,0.4,1.4,0.6,2c0.3,0.8,0.6,1.5,0.3,2.4c-0.2,0.5-0.1,1.1-0.1,1.7c0.4,0,0.7,0.1,1.1,0.1
		c-0.4,0.4-0.8,0.8-1.2,1c-0.4,0.2-1,0.2-1.4,0.3c0.6-0.6,0.5-1.4,0.2-2.2c-0.1-0.2,0-0.4,0.1-0.7c0.3-1.3,0.2-2.6-0.2-3.9
		c-0.4-1.3-0.7-2.7-1-4c-0.3-1.4-0.6-2.9-0.7-4.4c-0.1-1.6-0.1-3.2,0.1-4.7c0.1-1.3,0.7-2.5,0.9-3.8c0.1-1,0-2,0-3
		c-0.1-1.3-0.4-2.6-0.4-3.9c0-1.6-0.4-3.1-0.7-4.7c-0.2-1.2-0.1-2.5-0.1-3.7c0-0.3,0.2-0.6,0.1-0.9c-0.1-1.2,0.6-2,1.4-2.6
		C128.9,47.3,131.2,45.7,133.5,44C133.5,44,133.5,44,133.5,44z"/>
	<path d="M156.8,82.3c0-1,0-1.7,0-2.5c0.1,0,0.1,0,0.2,0c0.6,0.8,0.2,1.9,0.7,2.7c0.6-0.3,0.6-0.7,0.4-1.2c-0.1-0.2-0.1-0.4-0.2-0.6
		c-0.3-0.7-0.2-1.1,0.6-1.4c0.4-0.1,0.8-0.3,1.4-0.4c-0.9,1.4,0,3-0.3,4.4c-0.1,0-0.1,0.1-0.2,0.1c-0.1-0.2-0.2-0.4-0.2-0.6
		c0-1,0-2,0-3c-0.4,0.1-0.6,0.2-0.9,0.3c0.2,0.9,0.3,1.9,0.5,3c-0.9-0.1-1.6-0.2-2.3-0.3c-0.9,0-1.8,0-2.7,0.1
		c-0.5,0-0.4-0.3-0.4-0.5c0-0.8-0.1-1.5-0.1-2.3c-0.1,0-0.1,0-0.2,0c-0.1,1-0.2,2-0.4,3c-0.1,0-0.2,0-0.2,0
		c-0.1-0.8-0.2-1.5-0.3-2.3c-0.1-0.7-0.1-0.7-0.9-0.7c0.1,0.3,0.3,0.6,0.4,0.9c0.1,0.1,0.1,0.4,0.1,0.4c-0.6,0.6-0.2,1.2-0.2,1.9
		c0.1-0.2,0.2-0.3,0.4-0.6c0,0.4,0,0.6,0.1,0.8c-0.3,0.1-0.5,0.2-0.8,0.4c-0.1-1.5-0.2-3.1-0.4-4.6c1.7,0.3,3.4,0.6,5.3,0.9
		C156.2,80.7,155.3,81.9,156.8,82.3z M154.2,80.3c-0.1,0-0.1-0.1-0.2-0.1c-0.1,0.2-0.4,0.3-0.4,0.5c0.1,0.4,0.1,0.8-0.1,1.1
		c-0.1,0.1,0.1,0.3,0.2,0.4c0.2-0.1,0.5-0.2,0.5-0.3C154.2,81.4,154.2,80.9,154.2,80.3z M155.1,80.3c0,0.6,0,1.3,0,1.9
		C155.7,81.9,155.7,81.5,155.1,80.3z"/>
	<path d="M129.2,93.9c0.1,0.4,0,0.8,0.7,0.9c0.3,0,0.6,0.6,0.9,1c-0.7,0.1-1.3,0.3-1.6,0.2c-0.4-0.2-0.6-0.8-0.7-1.3
		C128.4,94.1,128.6,93.8,129.2,93.9z"/>
	<path d="M131.6,101.1c-0.4-0.1-0.8-0.2-1.2-0.3c0-0.1,0.1-0.2,0.1-0.3c0.4,0.1,0.8,0.2,1.2,0.3C131.6,100.9,131.6,101,131.6,101.1z
		"/>
	<path d="M147.4,69.1c-0.2,0.1-0.4,0.2-0.5,0.1c-0.1-0.1-0.3-0.2-0.3-0.4c0-0.1,0.2-0.4,0.2-0.4c0.2,0,0.4,0.2,0.6,0.2
		C147.4,68.8,147.4,69,147.4,69.1z"/>
	<path d="M134.2,120.3c0.9,0.7,0.8,1.6-0.2,2.4C134,121.9,134.1,121.2,134.2,120.3z"/>
</g>
</svg>
