<?xml version="1.0" encoding="utf-8"?>
<!-- Generator: Adobe Illustrator 24.0.2, SVG Export Plug-In . SVG Version: 6.00 Build 0)  -->
<svg version="1.1"
	 id="Слой_1" shape-rendering="geometricPrecision" image-rendering="optimizeQuality" text-rendering="geometricPrecision" xmlns:xodm="http://www.corel.com/coreldraw/odm/2003"
	 xmlns="http://www.w3.org/2000/svg" xmlns:xlink="http://www.w3.org/1999/xlink" x="0px" y="0px" viewBox="0 0 238.1 150.2"
	 style="enable-background:new 0 0 238.1 150.2;" xml:space="preserve">
<style type="text/css">
	.st0{fill-rule:evenodd;clip-rule:evenodd;fill:#373535;}
</style>
<g id="Layer_x0020_1">
	<path class="st0 fillable" d="M119.8,84.1c0.5-1.4,2.6-1.9,2.7-2.9c0.1-0.7-0.5-1.4-0.9-1.7c-0.8-0.7-0.9-0.5-2.3-0.6
		c-1-1.6-2.8-4.4-4.9-4.1c-1.6,0.2-0.5,1.1-2.3,1.2c-0.9-1.9-0.5-1-2.3-1.9l-2.6-1.9l-0.1-0.1l-0.3-0.3c-1.2-1-2.1-2.3-2.8-3.7
		l-0.5-1.1c-2.3,0.2-1-0.5-2.6,0.7l-0.4-0.9c0.9-0.5,2.1-0.3,3.4-0.4c0.5,1.6,0.7,1.8,1.4,3c0.6,0.9,1.3,1.4,2,2.3
		c0.6,0.9,0.2,0.5,1.2,1.1c0.6,0.4,0.8,0.5,1.3,0.9c0.6,0.4,0.9,0.3,1.6,0.6c0.8,0.4,0.6,0.7,1.1,1.2c0.7-0.2,2.9-3,5.7,1.2
		c1,1.5,1.1,1.6,3,1.9c0.5,0.1,0.2,0.2,1.1-0.4c-0.3-3.3-5.8-6.9-6.5-10.7c3.4-2.6,1.3-1.3,0.9-6.2c-0.2-2.3,0.2-2.6,1.2-4.2
		c0.8-1.2,1.5-2.6,2.2-3.6c0.7-0.9,2.1-2.4,2.5-3.6c-2.9-0.8-3-2.5-5.1-3.9c-1.1-0.7-8.7-8.7-9.2-9.6c-0.5-1.2-0.3-1.2-1.3-1.9
		c-2.6-1.8-9-6.8-11.1-7.7c-2.8-1.2-5.5-2.9-8.1-4.4c-4.7-2.6-4-2-9-0.3c-5.1,1.7-13.6,4.7-18.5,6.6c-0.4,2.1,0,36.6,0,42.6v4.5
		c0,1.5-0.2,0.7,0.2,1.6c1.3,0.2,3.4,0.2,4.8,0.2c2,0.1,3,0.5,4.7,0.7c0.3-0.3,0.1-0.1,0.3-0.4c0.5-0.9,0.5-0.6,0.2-1.6
		c-0.4-1-0.2-1.8-0.5-2.8c-0.2-0.9-0.7-1.6-0.7-2.6c0-1.2,0.7-1.3,1.2-2.4s1-4,1.8-4.6c1.6-1.2,3.7,0.2,4.1,2c0.8-0.1,1,0,1.5-0.4
		c0.3-0.2,0-0.1,0.4-0.5c1.3-1.2,0.9-1.6,0.4-2.9c1.6-0.5,0.3-0.6,1.3-1.2c0.9-0.5,1,0.4,1.3,0.9l1.5-0.1c-0.2-1.9-1.4-1.2-1.7-2.6
		c1.6-1.3,1.9-0.2,3.9-0.1l0.4-1.6c0.2-0.5,0.1-0.2,0.2-0.5l2.5,2.1c1.8,1.7,0.6,1,3.4,1.4c0.6,0.9,0.9,1.9,1.9,2.6
		c1.5,0.9,1.9-0.5,4.1,0.4c0.5-0.5,0.2-0.5,0.9-0.7c0.4,0.4,0.5,0.5,0.9,1c0.5,0.6,0.5,0.5,0.6,1.3c0.5,2.6,0.3,1.2-0.5,2.7l1.2-0.3
		c0.2,0.9,0.7,1.4,1.2,1.7c0.2,0.1,0.4,0.2,0.4,0.2c0.6,0.5,0.4-0.1,0.5,0.8c-1.2,0.7-0.5-0.2-2-0.3c-0.2,1.9,0.8,0.9,0.8,2.1
		c0.1,1.8-2.3,2.6,1.5,3.7c1.5,0.4,0.9,0.7,1.9,1.2c0.9-0.2,1.7-0.8,2.8-0.9c0.9-0.1,0.9,0.2,1.6,0.2c1.7,0.2-0.1-0.2,1.4-0.4
		c1.2,1.5,0.7,2.1,3,1.2l0.4-1.9c1.3,0.2,3.7,2,4,3.3C118.3,80.4,118.4,83.3,119.8,84.1c0.5,1.2,0.5,0.9,1.1,1.6l1.6,4.1
		c0.2,0.8,0.2,1.3,0.6,2.1c4.1,0.5,0.7-0.8,3.7,1.5l15.7,9.8c4,2.5,2.8,0.2,4.5-0.9c0.6-0.4,1.1-0.3,1.7-0.7
		c0.5-1.5-0.2-1.9,1.2-2.8c0.9-0.5,1.6-1.1,1.9-2.2l-1.6-0.1c-0.1-1.5,0.4-0.5,0.4-1.9c-1.7-0.1-2.4,0.9-3.5-0.4
		c-0.6-0.8-1.3-1.9-1.2-3.3c2.4-1.1,1.6-1.2,2.1-4c0.2-1.1-0.3-1.9,0.7-1.9c0.6,0,0.6,0.3,1.3,0.5c0.7-1,1.1-0.8,1.7-1.9
		c0.6-1.2,1.1-1.3,1.5-2.2c-0.5-0.2-1-0.3-1.6-0.4c-1.2-0.2-0.6-0.2-1.4,0.4c-1.9,1.4-4-0.9-4.4-2.1c-0.3-1.1,0-2.3-0.9-2.8
		c-1.1,0.6-0.1,1.3-2.8,1.5l0.2,2.3c-0.7,0.4-1.9,0.5-3,0.5c-1.9-0.2-0.4-1.3-1.1-1.9c-0.9-0.9-2.5,1.3-1.8,2.6
		c0.3,0.7,0.4,0.2,0.9,1.1c-1.1,0.2-1.2,0.5-2.3,0.2c-1-2.3-0.2-2.1-5.8-4.4c-0.1,0-0.1,0.1-0.2,0.2c-0.9,1.1-0.5,1.1-1.8,1
		c-0.7-2.3,0.1-1.4-1.4-3.1c-1-1.2-0.5-2.3-1.3-3.3c-0.9-0.1-2.9,1-3.5,1.4c0.5,1.3,1.4,2.1,1.8,3.5l-1,0.8c0.5,0.7,1.9,1.6,0.9,3
		c-0.3,0.4-1,0.7-1.4,1C120.4,83.6,120.6,84,119.8,84.1L119.8,84.1z M189.8,83.9c1-0.6,1.2,0.1,1.3-1.2c-1.4,0.2-2.6,2.2-4.8,1.2
		c0.4,1.2,0.5,0.2,0.8,1.2c0.2,0.8-0.2,0.6-0.3,1.4c0.6,0.4,1.2,0.6,2.1,0.2l1.7-0.9C190.6,84.7,190.2,84.7,189.8,83.9L189.8,83.9z
		 M185.1,106.8c0.1-1.4-0.8-3.5-0.8-3.7c-0.1-0.6,0.2-0.4,0.1-1c0-0.1-0.1,0-0.2-0.6c0.5-0.4,0.7-0.3,1.2-0.9
		c-0.5-1.1-1.2-1.6-2.6-1.5c-0.2,0-2.9,0.8-3,0.9c-0.1,0.9,0.5,0.7,0.3,2c-0.7,0.5-0.9,0.3-1.9,0.5c-0.5,2.4,0.2,2.1-2.2,3
		c-0.2,1.2,0.2,2.1-0.6,2.9c-1.1,1.2-0.8,0.2-1.3,2.1c-1.1,3.7-3.4,0.2-3.7,3.5c0.9,0.3,1.4,0.8,1.6,1.6c-0.8,0.7-1.2,0.1-1.2,2.8
		c0,3.1,0.1,2.3,0.8,3c-0.1,1.1-0.1,0.2-0.2,0.6c-0.2,0.3-0.1-0.2-0.4,0.8c2.5-0.2,4.4-0.9,4.9-0.9c1.2,0.2,1,0.5,1.6,1.1
		c1.9,1.6,2.3,0.6,3.8-0.5c1.2,0.6,0,0.6,1.5,0.5c0.9-0.1,0.6,0,1.6,0c0.5-2.4-0.9-3.4,0.5-5.5c1.3-1.9,1-2.3,1.6-4.7l1.3-0.3
		c0.2-1,0.9-2.4,0.9-3.1c-0.1-0.1-0.2-0.1-0.2-0.1c-1.2-0.8-0.6-0.5-1.2-1.1l-0.9-0.6c-0.2-0.1-0.3-0.2-0.4-0.3
		C185.5,107,185.6,107.1,185.1,106.8L185.1,106.8z M172.1,88.3c-0.6-0.5-0.5-0.2-0.8-1.1c-0.5-1.9,0.2-0.1-1.2-1.6
		c-1.1-1.3-0.9-0.2-1.6-1c-0.4-0.4-0.3-1.1-0.2-1.6l0.1-1.1c0-0.1,0-0.1-0.1-0.2c0-0.1-0.1-0.1-0.1-0.2c-0.1-0.1-0.8-0.8-0.9-0.9
		c-0.5-0.5-0.3-0.5-1.2-0.6c-0.6,1.2,0.2,2.3-1.8,2.2l-0.3-1.2c-1.5,0.3-0.2,0.9-1.8,1.2c-1.1-0.8,0.3-0.8-1.4-0.9
		c-0.3,2.3,0.2,3.3-0.9,5.3c0.2,0.5,1,1.1,0.6,1.8c-0.7,1.4-3.3,0.4-3.6,0.3c-0.3,0.4-0.5,0.6-0.9,0.9c-0.9-0.4-1.1-1.2-1.9-1.2
		l-0.2,2.9h-1.4c-0.5,0.7-0.1,0.6-0.7,1.1l-0.9,0.4c0-0.1-0.1,0.1-0.2,0.1c0.5,0.5,1.2,0.7,1.4,1.2c0.3,0.7-0.1,1.2-0.1,2
		c1.4,0,2.7-0.1,4.1-0.1c3.5-0.2,1.9-0.5,3.3-0.9c0.7,0.7,1,1.8,1.9,1.9c1.7,0.3,1.3-0.7,2.3-1.2c0.5,0.5,0.1,0.5,0.4,1.2
		c1.6,0.1,0.6-0.5,1.6-1c1,0.5-0.2,0.6,1.3,0.9c0.9-0.7,0.9-2.4,2.3-2.4c1.3,0,2.2,1.2,3,1.6c1.4-1.5,0.8-1.9,3.4-0.9
		c0.3-0.9,0.6-2.3,0.4-3.2c-0.7-2.5-0.1-1-0.2-3C173.8,86.8,174.5,88.9,172.1,88.3L172.1,88.3z M179.3,75.2c0.3-1.4,1-0.1,1-1.7
		l0.1-1.8c-0.5,0.2-0.2,0.5-0.9,0.7c-0.5-0.6-0.2-0.4-0.4-1.3c-1.4,0.2-1.8-0.2-2.8,0c-0.8,0.2-1.6,0.7-2.3,0.9
		c-1.3,0.5-4.3,0.4-5.9,0.6c-0.9,1.1-0.8,1.9-2.3,2.6c0.4,1.5,1.2,1.9,1.5,3.3c0.5,2.1-0.2,1.9,1.6,2.9l-0.1,2.7
		c1,0.7,0.6-0.2,1.8,1c1.2,1.3,0.7-0.1,1.1,1.5c0.2,0.6,0.2,0.9,0.5,1.2c1.9,0.4,1.3-0.8,2.9-0.2c0.8,0.2,1.2,0.8,1.9,1.2
		c-0.1,2.2-0.8,0.6,0.2,3.2c2.1-0.1,1.1-0.9,2.3-1.3c1.2-0.4,1.4,0.3,2.6,0.5c1.4,0.2,1.6-0.2,2.7-0.2c0.7-0.1,1.5,0.2,2.6,0.2
		c0.5-1.4,0.8-2.3,0.6-3.9c-2.6-1.2-1.3-0.9-1.2-2.1c0-0.6-0.5-0.7-0.7-1.4c-0.2-0.8,0-0.9-0.3-1.6c-1.3-0.5-2.8,1.6-4.4,0.3
		c-0.5-2.6,1.9-2.1,1.6-4.7c-0.2-1.1-0.6-1.2-1.5-1.8C180.4,75.5,180.3,75.7,179.3,75.2L179.3,75.2z M179.8,101.7
		c0.2-1.1-0.3-0.4-0.3-1.6c0-1.1,0.5-0.5,0.3-1.5c-0.2-1.3-1.8-0.9-2.9-1.2c-1.7-0.5,0-1.8-1.9-2.3c-1.5-0.3-1.3,0.9-2.3,1.6
		c-1.1-0.3-0.7-0.6-1.7-1.2c-2.6-1.6-2.3,0.9-3.2,1.6c-0.7,0.6-1.2-0.1-1.8-0.3c-0.8,0.4-0.2,0.8-1.2,0.6c-0.8-0.1-0.3-0.2-1.1-0.8
		c-1.9,1.6-2.6,0.5-3.9-1c-1.7,0.5,0.2,0.6-3.4,0.8c-6.7,0.2-2.6-0.1-5.9,2.4c-2.2,1.6-0.5,2.4-1.8,3.2c-1.5,0.9-1.2-0.3-2.3,1.6
		c0.5,0.9,1,1,1.7,1.6c0.7,0.5,1.2,0.7,2,1.2c1.6,1.1,2.8,1.1,4.3,1.9c1.3,0.8,4.9,3.4,6.3,3.5c1.4,0.1,1.6-0.4,2.6-0.5
		c0.9,0.5,0.7,0.5,1.9,0.8c0.5,0.2,1.5,0.2,1.9,0.5c0.7,0.5,0,0.6,1.3,1.1c2.4,0.9,1.1-1.6,3.6-2c1.2-0.2,1.6-0.6,2-1.7
		c0.8-2.5,0.5-1.2,1.4-2.3c0.8-0.9,0.2-2,0.5-2.9c0.8-0.5,1.4-0.1,1.8-1c0.2-0.5,0.2-1.5,0.4-2.2L179.8,101.7L179.8,101.7z
		 M118.4,46.2c0.1,0.2,1.5,1.9,1.9,2.2c0.7,0.7,1.7,1.1,2.8,1.5c-0.4,0.9-1.8,2.7-2.4,3.5c-1.3,1.6-4.1,5.5-3.8,7.8
		c0.1,0.9,0.2,1.9,0.5,2.6c0.3,0.9,0.7,1.2,0.7,2.3c-0.7,0.6-1.1,0.9-1.8,1.7c0.4,1.6,2.5,4.1,3.7,5.5c0.6,0.9-0.1,0.4,0.9,0.8
		c0.9,0.2,2.7-1.3,4.1-1.3c0.4,0.9,0.7,2.7,1.2,3.4s0.8,0.5,1.2,1.2c0.4,0.8,0.1,1.1,0.5,1.8c1.2-0.2,0.4-0.3,1.1-1.2l5.6,2.6
		c0.8,0.6,0.3,1,0.9,1.9h0.9c0-1.1-0.5-0.5-0.4-1.9c0.1-1.4,1.6-2.9,2.6-2.2c0.6,0.4,0.2,1.2,0.2,1.9l3-0.1l0.2-1.2
		c-0.1-0.5-0.2-0.8-0.2-1.4c3.4-0.3,1.7-0.5,3.1-1.7c2.2,0.4,0.2,3.3,2.9,4.9c1.2,0.8,1.4,0.7,2.5,0c0.7-0.5,2.5-0.4,3.4,0.1
		c0.5,1.2-0.9,1.6-1.3,2.6c-0.6,1.2,0.2,0.4-0.9,1.2c-0.9,0.6-0.3,0.4-1,1.1c-0.8-0.1-0.3,0-0.8-0.2c-0.9-0.5,0.2-0.2-1-0.5
		c0,0.9,0.2,1.2,0,1.9c-0.6,1.9,0.5,2.9-2.2,3.9c0,1.2,0.6,2.6,1.2,3.1c0.9,0.7,2.1-0.2,3.5,0.2c0.1,1.3-0.3,0.8-0.3,1.6
		c1.1,0.3,1.9-0.2,1.6-1.6c-0.3-1.2-1.2-0.4-1.5-2c0.7-0.5,0.6-0.2,1.4-0.4l0.2-1.2L154,91c0-0.6-0.2-2.6,0.5-3
		c1.1-0.2,1.2,0.4,1.6,1.1c1.1-0.4,0.2-1.1,2-0.5c0.7,0.2,1.7,0.2,2.4-0.3c0.2-1.2-0.1-0.4-0.7-1.4c0.5-1.3,0.8-1,0.8-2.8
		c0-1.3-0.2-2,0.4-3c0.8-0.1,0.8-0.2,1.4,0.4c1.2,1.1-0.8-0.4,0.3,0.4c0.9-0.6,1.2-1.9,2-0.7c0.5,0.7-0.5,0.3,0.5,0.8
		c0.6-0.5,0.3-0.2,0.5-1.9l1.3-0.5c-0.3-2.1-1.6-2.9-1.6-4.3c0.7-0.7,1.5-1,1.9-2.2c-0.8-0.7-0.9-0.6-1.3-1.9l-2.3-7.8
		c-5.4-0.5-5.2,1.7-5.7-3.4c-0.4-3.7-0.2-1.9,0.2-3c0.3-1-0.4-5.7-0.5-7.1c-1.3,0.2-1.5,0.8-2.6,0.8c-0.4-0.4-1-1.3-1.3-1.9l-1.2-2
		c-1.9-3.2-3.4-1.9-5.3-4.4c-0.5-0.5-0.9-1.6-1.5-1.8c-1-0.2-2.7,2.1-4.3,2.3c-3.4,0.5-9.6-0.5-12.5,0.4c-1.6,0.5-3.3,1.1-4.9,1.6
		C121.9,45.6,120.4,45.7,118.4,46.2L118.4,46.2z M214.5,70.2c1.7,0.1,3.5-0.1,5.2,0.3c2.6,0.5,1.7,1.6,4,2.3
		c-0.4-1.3-1.1-1.8-1.4-2.6c1.7-0.8,0.5,0.1,1.9,0.4c1.3,0.2,0.9-0.4,2.2-0.8l-0.3-1.2c1.6-0.4,0.4-0.5,1.6-1.2
		c1-0.7,1.2-0.2,1.6-1.4c-1.9,0.4-0.9,0.9-2.2,0.7c-1.2-0.2,0.9-0.4-2.1-0.1c-1.5,0.2-0.9-0.3-1.6-1c-0.5-0.5-1.6-0.7-2.3-0.3
		c-1.3,0.7-0.3,2.3-3,2.8C215.7,68.5,215.3,67.8,214.5,70.2L214.5,70.2z M184.8,71.8c0.1,1.2-0.2,0.2,0.5,1c0.9,1,0.2,0.9,0.8,2.2
		c0.2,0.6,0.5,0.5,0.6,0.9c1.2,2.6-2.3,1.2-3.6,1.3c0.5,1.6,0.3,2.1-0.5,2.8c-0.9,0.9-1.9,2.6-0.1,2.5l1.9-0.7
		c1.8-0.7,1.6,0.4,2.1,1.2c1-0.6,1.9-1,3-1.5c1.6-0.6,0.9-0.7,1.8-1.4l0.5-0.3c-1.2-1.1-0.2-1.7-0.9-3c-0.4-0.6-1.5-1.4-2.1-1.8
		C186.2,73,186.1,72,184.8,71.8L184.8,71.8z M203.8,76.5c2.2,1.6,2.1-0.9,2.7,2.4c1.2,0.1,2.8-0.5,3.4-1.3l0.2-0.4
		c2.3-2.6,4-0.9,5.5-0.6c1.2,0.2,0-0.2,1.5-0.3c0.5,1.2-0.1,0.8,0.8,1c1.4-1.7-0.6-0.8,1.9-1.6c0-0.1-0.1-0.2-0.1-0.2l-0.2-0.8
		c0-0.3,0.3-0.7,0.5-1.1c0.5-0.9-0.1-0.2,0.7-0.9c0.5-0.4,0.5-0.3,0.9-0.9c-2-1.2-4.6-1.2-7.4-1c-0.7,0.9-0.7,1.9-2.6,1.2
		c-4.4-1.4-4.4,0.7-5.6,2.2L203.8,76.5L203.8,76.5z M212.3,63.5c0.2,0.8,0.4,0.8,0.4,1.5c-0.1,0.5-0.1,0.4-0.2,0.5
		c-0.8,0.2-0.2-0.2-0.9-0.2l-0.5,0.2c0,0-0.1,0-0.2,0c0,0-0.1-0.1-0.2-0.1l-0.5-0.3c-0.5,0.6-0.1,0.5-0.9,0.6c-0.4,0.1-0.2,0-0.6,0
		c-2.4,0.1-0.9,0-1.9-0.3c-0.9-0.2,0.1,0.1-1.1,0.2c-0.1-1.9,0.1-1.9-1-3.3c-1.2,0.2-0.7,0.2-1.3,0.8c-0.7,0.9-0.2,0.2-1.2,0.7
		c-0.6,2.3,1,1.8,1.8,4c0.7,1.9,1.3,1.6,2,2.5c1.6,2,0.9,0.5,3.7,0.6c1.3,0.1,1.8,0.7,3.1,0.6c1.9-2.6,1-3.6,3.6-3.9
		c1.1-0.2,2-0.1,2.8-0.9c0.5-0.5,0.7-1,0.5-2l-0.2-0.5c-0.5-1-0.9-0.2-1.4-0.2s-1.2,0-1.7-0.1c-0.2-2.7-0.2-1.9-1.6-3.2
		c-0.9,0.9-0.5,0.2-1.1,1.5C213.5,63.9,213.4,62.8,212.3,63.5L212.3,63.5z M195.1,63.2c0.4-0.4,1.7-0.4,1.8,0.8
		C197,65.6,194.7,65.3,195.1,63.2z M201.3,54.3c-0.9,0.2-0.9,0.4-1,1.2c-0.2,1.4-0.2,0.6-0.8,1.4c-0.9,1.2-0.1,1.2-1.9,2.4
		c-2,1.2,1.6-0.2-2.6,1.8c-0.9,0.5-0.9,0.2-1.2,1c-0.5,1,0,0.9-1.2,1.2c0.3,0.8,0.8,0.8-0.2,1.2c-0.9,0.4-1.2,0.3-2.1,0.5
		c-0.3,1.2-0.6,0.9-0.9,1.9c-0.5,1.6,0,0.9-1.2,1.9c-0.5,0.4-1.2,1-1.3,1.5c-0.4,1.2,0,0.5,0.1,1.2c0.1,0.9,0,0.4-0.2,1.2
		c0.7,0.5,0.9,0.9,1.7,1.5c5.1,3.5,2.4,3.4,3.4,5.1c0.1,0.1,0.4,0.5,0.5,0.5c0.5,0.3-0.2,0.1,0.9,0.2c0.2-2.6-0.6-1.8-0.9-3.7
		l1.1-0.6c-1-5.5,3.6-1.1,3.6-1.1c0.9-0.7,0.2-0.8,1.2-1.3c0.7-0.4,1.4-0.3,1.8-0.8c0.9-1.1-0.5-0.4,1.3-1.2l1.5-1.1v-1.9l1.1-0.2
		c-0.4-1.2-0.8-1.4-1.5-2c-1.1-0.9-0.3-1.4-0.4-2.8l-0.9-0.6c-0.7-0.1-1.7,0.6-1.5-0.8c0.1-0.7,1.7-1.4,2.3-2.2
		c0.5-0.6,0.2-0.9,0.6-1.5c0.3-0.5,0.5-0.6,0.9-1.3c0.9-1.6,1.7,0.1,1.6-2.6c1.9,0,1.2-0.5,2.6-1.5c0.9-0.6,0.4,0.2,0.9-0.9
		c-1.6-0.3-1.9-1.2-3.4,0.4c-0.7,0.8-0.5,0.4-1,0.7c-1.1,0.6-0.4,3.6-1.8,2.6C201.5,54.8,202.4,55,201.3,54.3L201.3,54.3z"/>
</g>
</svg>
