<?xml version="1.0" encoding="utf-8"?>
<!-- Generator: Adobe Illustrator 24.0.2, SVG Export Plug-In . SVG Version: 6.00 Build 0)  -->
<svg version="1.1" id="Слой_1" xmlns="http://www.w3.org/2000/svg" xmlns:xlink="http://www.w3.org/1999/xlink" x="0px" y="0px"
	 viewBox="0 0 238.1 150.2" style="enable-background:new 0 0 238.1 150.2;" xml:space="preserve">
<style type="text/css">
	.st0{fill-rule:evenodd;clip-rule:evenodd;fill:#2B2A29;}
</style>
<g id="Слой_x0020_1">
	<path class="st0" d="M49.7,111.2c0,0,4.7-8.3,7-13.6s4.1-8.6,6-14.4c1.8-5.7,6.7-22.7,7.1-25.3c0.4-2.6,0.2-4.6,0.4-7.9
		c0.1-3.3,0.7-7.6,1.4-12.1s1.4-7.3,1.7-7.5c0.3-0.1,0.6-0.3,0.7,0.6c0.1,0.9-0.4,10.6-0.8,13.9S71,56.9,70.9,58
		c-0.1,1.1,0.3,25.1,0.3,25.1s0,1.5,0.4,1.1c0.4-0.4,1.7-4.1,2.5-6.5c0.8-2.4,1.5-4.2,2.1-4.2s0.6,2.3,0.6,5.4s0.3,9,0.4,10
		s0.5,1.5,1.1,1.2c0.7-0.3,1.6-2.2,2.1-4.2s1.6-6.6,2-7c0.4-0.4,0.9-0.7,0.8,1.6c0,2.3,0,8.8,0.3,9.6c0.4,0.9,1.1,0.5,1.7-1.1
		c0.6-1.6,2.4-5.8,2.8-7.6c0.4-1.8,1.2-12.4,1.8-17.6s1-9.4,1.6-9.4c0.6,0,0.4,2.5,0.3,5.6c-0.1,3.1-0.6,8.2-1,11.8
		c-0.4,3.6-0.7,9.2-0.2,11.4c0.4,2.2,1.1,4.7,2.7,4.9c1.6,0.2,3.1-1.6,4.2-3.9c1-2.2,1.4-5,1.6-7.8c0.2-2.7,0.6-11.8,0.6-13.5
		s0.6-2.3,1-2.2s0.5,2.6,0.4,4.4c0,1.8-0.4,7.9-0.4,10.1c0,2.2-0.3,7.5,0.1,9.4s0.9,3,1.9,2c1-1,2-3.2,3-5.2c1.1-2,1.6-3.3,2-2.4
		c0.4,1,0,3.4,0.8,5s1.5,1.9,2.3,1.9c0.8,0,1.2-0.3,1.2-0.3s0.5-2.4,1.1-3.6c0.6-1.2,0.9-1.4,1.2-1.4c0.3,0,0.9,0.2,0.9,0.2
		s0.6-1.9,2-1.8c1.4,0.1,2.2,1.7,2.2,1.7s0.4,0,0.7-0.5c0.2-0.5,0.4-1.4,0.7-1.3c0.3,0.1,0.2,1.5,0.2,2.5s0.2,2,1.1,2.2
		c0.9,0.2,2-1.5,2.7-2.7c0.7-1.2,1.1-2.4,1.6-2.3c0.5,0.1-0.2,2.2-0.4,3.4c-0.2,1.3-0.3,3.4-0.1,4.1c0.1,0.8,0.7,1.6,1.6,1.2
		c0.9-0.4,2.6-2.3,3.6-3.4c1-1.2,2.5-2,3.7-1.4c1.3,0.6,1,1.5,0.9,2.4c-0.1,0.9-0.5,2.8,0.3,2.6s2.4-2.2,3.1-3.5
		c0.7-1.3,1.6-3,2.1-2.7c0.5,0.4-0.3,2-0.5,3s-0.5,2.2,0.6,2.6c1.1,0.5,4.5-4.3,4.5-4.3s-0.9-0.4-0.8-1.4c0.1-1,1.4-1.6,2.1-1.3
		s0.6,2.2,0.6,2.2s0.9-0.1,1.4-0.1c0.5,0,1.3-0.5,1.4,0c0.1,0.4-1,1.6-1.4,2.4c-0.4,0.8-1.2,1.7-0.5,2.1c0.7,0.4,2.9-0.7,2.9-0.7
		s0.1-1.6,0.8-3c0.7-1.4,1.8-2.3,2.6-1.7s0.9,2,0,3.1s-2.4,1.8-2.4,1.8s-0.5,0.8,0.1,0.9c0.5,0.1,2.4-1.1,3.7-2.5
		c1.3-1.3,1.6-2.4,1.9-3.1c0.3-0.7,0.8-1.1,1-0.5c0.2,0.6,0.2,3.7-0.1,4.4c-0.3,0.7-1.8,1.5-1.7,2c0.1,0.5,1,1.1,2.6,0.7
		c1.6-0.4,5.5-3.7,5.6-3.6s-2,2.9-3.3,3.7c-1.3,0.8-2.6,1.1-4,0.9c-1.4-0.3-2-1.1-2-1.7c0.1-0.6,0.8-1,1.2-1.4
		c0.4-0.3,0.7-1.3,0.5-1.5c-0.2-0.2-0.7,0.5-1.4,1c-0.7,0.6-3.1,2.6-4.2,2.8c-1,0.2-1.4-0.8-1.4-0.8s-2.2,0.8-3.3,0.3
		c-1.1-0.5-0.9-1-0.5-1.8c0.3-0.9,1.3-2.3,1.3-2.3h-1.7c0,0-2,2.7-3.5,3.8c-1.5,1.2-2.5,1.3-3.1,0.6c-0.7-0.7-0.7-2-0.7-2
		s-2.4,3.3-3.8,3.2s-1.6-2-1.6-2s-0.8,1.3-1.9,1.4c-1.1,0.1-1.5-0.4-1.7-0.9c-0.2-0.5-0.1-1-0.1-1s-2.2,2.4-3.6,2.4
		s-2.2-0.4-2.3-1.8c-0.2-1.5,0-3.5,0-3.5s-1.5,2.2-3,1.7s-1.7-2.8-1.7-2.8s-0.8,3.2-1.9,4.4c-1.2,1.2-1.5,1.8-3.3,1.8
		c-1.8,0-2.7-1.8-2.7-1.8s-1.3,0.8-2.8-0.2c-1.5-1-2.4-4.3-2.4-4.3s-1.5,3.4-2.7,4.6c-1.2,1.3-2.2,1.8-3.2,0.5
		c-1-1.2-1.3-4.4-1.3-4.4s-1.7,3.9-3.3,5s-2.6,1.4-4.2,0.5c-1.6-0.9-2.7-6.8-2.7-6.8s-1.4,5-2.3,7.1c-0.9,2.1-1.7,3.8-3.3,3
		c-1.6-0.8-1.4-7-1.4-7s-1.9,5.2-3,6.2c-1.1,1.1-2.5,0.1-2.8-1.3c-0.4-1.4-0.9-11.3-0.9-11.3s-2.7,6.5-3.1,7.7
		c-0.4,1.1-1.1,1.9-1.6,1c-0.6-0.8-1.1-23-1.1-23S65.3,80,62.2,87.8s-7.3,16.8-9,19.8c-1.7,3-2.7,4.1-2.7,4.1l-1-0.5L49.7,111.2z
		 M188.1,71.7c0,0,7.4-13.3,10.9-20.7c3.5-7.4,6.2-14.4,6.5-15.7c0.3-1.3,0.2-2-0.9-1.3s-7.7,7.7-11.3,11.8
		c-3.5,4.1-13.4,18.8-15.7,22.7c-2.3,3.9-9.3,17.3-11.1,21.9c-0.4,0.9-0.7,1.9-1.1,2.9c1.8-0.1,3.4-0.3,4.8-0.4
		c2-0.1,5.1-0.4,8.7-0.8c3.2-3.5,6.3-7.5,8.1-9.8c2.2-2.9,4.9-7.8,5.6-8.5s1.5,0.1,1.1,1.2c-0.3,0.6-3.3,5.1-6.6,9.6
		c0.1,0.4,0.2,1,0.5,1.3c0.6,0.6,1.5,0.4,3-1.1c1.5-1.5,3.9-4.7,4.3-5.2c0.5-0.5,1-0.4,0.9,0.1c-0.2,0.5-1.2,2.2-1.4,2.8
		c-0.2,0.7-0.3,1.3,0.4,1c0.7-0.3,2.6-2.8,2.9-3.4c0.4-0.5,0.7-0.5,0.7,0.2c0,0.6-0.9,3.4-0.1,3.6c0.7,0.1,4-3.8,6.1-6.8
		c2.1-3,5.4-8.4,6.7-10.3c1.2-2,1.6-3.2,2.1-2.6s-1,3.7-3,6.6c-2,2.9-4.9,7.2-4.9,7.2s1.6-0.1,2.1,0.9c0.5,1-1.3,3.9-1.3,3.9
		s7.3-0.6,10.8,0.1s6.6,1.5,4.7,3s-8,3.3-18.6,4.7c-6.4,0.9-15.5,1.8-22.9,2.6c-3.8,3.9-7.8,7.9-10.9,9.9c-3.2,2.2-3.8,3-5.8,2.8
		c-2-0.2-2.5-2.2-2.2-3.6c0.2-1,0.9-4.3,1.8-7.4c-9.8,1.1-27.8,3.3-37.6,4.6c-12.4,1.7-32.4,4.7-44,7.3c-11.7,2.6-19.8,4.5-23.8,6.1
		s-5.5,2.2-5.3,3.2c0.1,1,3.8,1.8,10.3,2.8s26.9,2.9,36.6,3.6s37.2,2.4,43,2.9c5.8,0.5,16,1.7,16,1.7s-16.7-0.6-22.7-1.1
		c-6.1-0.5-32.6-2-45.5-2.9c-12.8-1-27.8-2.7-31.4-3.6s-7.4-1.5-7.7-3.7c-0.4-2.2,6.2-4.3,10.3-5.5c4.1-1.2,13.8-4.1,28.4-6.6
		c14.6-2.5,31.5-5.6,48.6-7.7c11.8-1.4,19.6-2.2,25.4-2.8c0.2-0.6,0.4-1.2,0.6-1.7c1.5-3.8,6.9-15.5,9.8-20.4
		c2.8-5,6.2-11.8,14.8-22.5c8.6-10.7,12-13.6,13.9-15.3c2-1.7,3.5-1.6,4.1-0.6c0.6,1-0.3,4.5-1.6,7.9c-1.3,3.4-3.5,8.3-7.2,15.4
		S189,72.3,189,72.3L188.1,71.7L188.1,71.7z M164.9,94.8c-1.1,3.4-1.9,6.6-1.8,7.9c0.2,1.9,0.7,2.5,2.9,1.1
		c2.3-1.4,6.5-5.2,10.5-9.2c0.4-0.4,0.7-0.8,1.1-1.2c-3.9,0.4-7.1,0.7-8.9,0.9C167.9,94.5,166.6,94.6,164.9,94.8L164.9,94.8z
		 M186.5,85.4c-1.8,2.5-3.7,4.8-5.1,6.5c7.4-0.7,15.7-1.6,19.1-2c5.4-0.7,14.6-2.7,16.7-3.1c2-0.4,3.7-1.2,3.6-1.6s-4.5-1.1-7.1-1.2
		c-2.7-0.1-6.7,0.3-7.8,0.5c-1.1,0.3-2.3,0.5-2.7,0s-0.3-1.5,0.2-2.3c0.4-0.8,1.2-1.4,1.5-1.2c0.2,0.2-0.5,1.2-0.6,1.6
		c-0.1,0.3-0.3,0.8,0.4,0.6s1.6-1.4,1.9-2.3c0.3-0.9-0.7-1.4-1.4-1.3c-0.8,0.2-2.3,2-3.4,3.1c-1.1,1.2-1.9,2.3-2.8,2.4
		c-1,0.1-1.5-0.4-1.4-1c0-0.6,0.1-1.8,0.1-1.8s-2.2,2.6-3.1,2.9s-1.2-0.9-1.2-0.9s-2,2.2-3.3,2.8c-1.4,0.6-2.5,0.5-2.9-0.1
		c-0.2-0.3-0.3-0.9-0.4-1.4L186.5,85.4z M143,78.8c0.2-1-0.3-1.8-1-2c-0.7-0.1-1.5,0.5-1.6,1.5c-0.2,1,0.3,1.8,1,2
		C142.1,80.4,142.8,79.8,143,78.8z M108.7,75.3c0.1-1-0.4-1.9-1.1-2c-0.7-0.1-1.3,0.7-1.4,1.7c-0.1,1,0.4,1.9,1.1,2
		C108,77.1,108.6,76.3,108.7,75.3z M84.2,73.8c-0.1-1-0.6-1.7-1.3-1.7c-0.6,0-1.1,0.9-1,1.8c0.1,1,0.6,1.7,1.3,1.7
		C83.8,75.6,84.3,74.8,84.2,73.8z M118.1,82.2c0.3-1-0.3-1.7-0.9-1.9c-0.6-0.2-1.3,0.5-1.6,1.4c-0.3,1-0.1,1.9,0.5,2.1
		C116.8,84,117.8,83.2,118.1,82.2z M114.5,82.2c0,0-0.3,1.9,0.7,2.5c1,0.6,2.4,0.2,2.4,0.2s-1,1.9-2,2.6c-1,0.7-2.3,0.4-2.7-0.5
		C112.3,85.6,113.5,83.3,114.5,82.2L114.5,82.2z M133.9,86.3c0.7-1,0.9-2.2,0.3-2.6s-1.6,0.1-2.3,1.1c-0.7,1-0.9,2.2-0.3,2.6
		C132.2,87.9,133.2,87.4,133.9,86.3z M152.4,85.6c0,0,0.2-1.4,0.7-2.3c0.5-0.9,1.4-0.4,1.2,0.3C154.2,84.3,152.4,85.6,152.4,85.6
		L152.4,85.6z"/>
	<g id="_403664696">
		<path class="st0" d="M17.6,130.8c0,0,1.2-0.2,1.5,0.4c0.3,0.5-0.1,1.6-0.1,1.6s0.3-0.1,0.8-0.1c0-0.6,0-1.6,0.1-2.3
			c0.2-0.9,0.7-1.6,1.7-2.3s2.8-1.2,3-1.2c0.3,0.1,0.3-0.8-0.3-1.4s-1.4-0.1-1.4-0.1c0,0,0.5-0.8-0.1-1.4c-0.6-0.6-1.5-0.6-1.4-0.3
			c0.1,0.3-0.5,2.1-1.2,3s-1.3,1.4-2.3,1.7c-0.6,0.2-1.7,0.1-2.3,0.1c0,0.5-0.1,0.8-0.1,0.8s1.1-0.4,1.6-0.1
			C17.8,129.6,17.6,130.8,17.6,130.8z M74.6,144c0.9-0.1,2.4-0.2,3-0.6c1-0.6,1.9-1.4,1.9-1.4s1.2-0.1,1.4,0.9
			c0.1,1-0.1,1.3-0.3,1.4s-0.5,0-0.5,0s0.2-1-0.7-1c-0.9-0.1-1.1,0.8-0.4,1.4c0.7,0.6,2,1.2,2.7,0c0.8-1.2,0.2-2.7,0.3-3.1
			c0-0.4-0.5,0.3-1.1-0.1c-0.6-0.4-0.5-1.1-0.2-1.5s1.4,0.2,1.4,0.2s-0.6-1,0.5-2.1s1.8-0.5,2.6-0.2c0.8,0.4,1.1,1.1,0.9,2.1
			c-0.2,1-1.4,0.6-1.4,0.6s0.5-0.7,0.2-1.4c-0.3-0.7-1.2-0.6-1.8,0.2c-0.6,0.8,0,1.7,0.6,2.1c0.6,0.3,1.6,0.4,2.3-0.1
			c0.7-0.5,1.4-1.3,1.1-2.9c-0.3-1.6-1.1-2.1-2.4-2.3c-1.3-0.2-2.3,0.3-3,1s-1.3,1.5-1.3,1.5s0.3-1.6-1-3s-4.3-1-4.3-1
			s0.1-0.8-0.5-0.9c-0.6-0.1-1,0.9-1.4,1.4c-0.4,0.4-0.9,0.8-1.5,0.6s-0.8-0.5-0.8-0.5s1.6-0.3,1.4-1.3c-0.2-0.9-1-1.6-1.8-1.2
			c-0.8,0.5-1,2.4-0.1,3.5c0.8,1.1,1.5,1,2.1,0.9c0.6,0,1-0.2,1-0.2s-0.7,2,0.6,2.9c1.4,0.8,2.5,0.7,3.1-0.2c0.6-1-0.4-2.1-0.4-2.1
			s0.5,1.5-0.5,1.9c-1,0.4-2.2,0.1-2.1-1.5c0.1-1.5,1.4-2.4,3-2.1c1.6,0.3,2.6,1.3,2.4,3.3c-0.3,2-1.5,3.1-2.8,3.8
			c-0.7,0.4-1.6,0.6-2.3,0.7c0-1-0.3-1.9-1.3-2.6c-1.3-0.8-2.2-0.5-3.3,0.3c-1.2,0.8-1.8,2.1-2.5,2.2c-0.5,0.1-1.1-0.1-1.5-0.3
			c1.2-0.4,2.1-0.9,2.9-2.6c1-2.1,1.4-4,0.5-5.8c-0.9-1.7-2.8-2.7-3.9-2.7c-1.2,0-2,0.1-2,0.1s1-1.3-0.2-1.4s-2,1.2-3.2,1.8
			c-1.2,0.5-2.7,0.5-3.1-0.9c-0.5-1.4,0.2-2.2,0.9-2.4c0.7-0.2,1.2,0,1.2,0.3c0,0.4-0.3,0.4-0.3,0.4s-0.8-0.5-1-0.2
			c-0.2,0.4-0.3,1.6,0.7,1.7c1,0.1,1.4-0.5,1.5-1.6c0.1-1.2-0.9-1.4-1.7-1.4c-0.7-0.1-2.2,0.5-2,2.3c0.1,1.8,0.8,2.3,2.1,2.7
			c1.3,0.4,2.7,0.1,2.7,0.1s-1,2-0.3,3.4c0.7,1.4,2,2.6,3.5,2.4c1.4-0.2,2.1-1.4,1.9-2.6c-0.1-1.2-0.8-1.7-1.6-1.8
			c-0.6-0.1-0.8,0.6-0.9,0.9c-0.3,0-0.6,0-0.6,0s0-1.1,1-1.3c1.1-0.2,1.9,0.3,2.3,1.4c0.4,1.1,0.4,1.9-0.1,2.9s-1.4,1.7-3,1.6
			c-1.6-0.1-3-0.6-4.8-1.9c-1-0.7-1.7-1.3-2.2-1.7c-0.2-1.4-0.9-1.8-1.4-2.1c-0.5-0.4-1-0.1-1-0.1s-0.4-0.5-0.9-1.1
			c-0.5-0.5-1.4-1-1.4-1s1.4,0.1,2.6,0.3c1.2,0.2,2.6,0.5,2.6,0.5s-2.4-1.2-4.9-1.5c-1.8-0.2-4.9-0.2-6.5-0.2c0.1-0.3,0-0.6,0.2-0.8
			c0.2-0.3,3.5,0.2,4.6-0.7s0.4-1.9-0.6-2.1c-1-0.1-1.1,0.5-1.1,0.9c-0.1,0.3,0.6,0.2,0.8,0.3c0.2,0.1-0.1,0.6-0.9,0.6
			s-1.7-0.1-3.2-0.5s-3,0.6-3.3,1.7c-0.3,1,1,1.7,1,1.7s-0.5,0.5-0.9,1.1c-0.4,0.7-0.6,1.8-0.6,1.8s-1.9-1.2-2.2,0
			c-0.3,1.2,2,1.2,2,1.2s-0.1,0.6-0.1,1.6c0.1,1,0.5,2.2,1.5,3.3c1,1.2,2,1.4,3.1,1.3s1.9-1.4,1.5-2.5c-0.4-1-1.4-1.8-2.1-1.6
			c-0.6,0.1-0.8,1.1-0.3,1.9c0.5,0.7,1.4,0.4,1.4,0.4s0,0.9-1.2,1s-2-0.9-2.6-2.3c-0.6-1.4-0.6-3,0-4.3s1.5-1.8,2.1-1.9
			c0.6-0.1,1.9-0.2,2.5-0.1c0.6,0.1,0.9,0.3,1,0.6s0.1,1.1-0.3,1.4c-0.4,0.3-0.9,0.1-0.9,0.1s0.2-0.4,0.2-0.9c0-0.5,0-0.7-0.7-0.6
			c-0.7,0.1-1.2,0.7-0.9,1.6c0.3,0.9,1.2,0.8,1.7,0.4c0.5-0.4,1.2-0.1,2,0.2c0.7,0.4,1.6,0.5,2.4-0.1c0.8-0.6,0.5-2-0.3-2.7
			c-0.8-0.7-1.4,0.1-1.2,0.9c0.2,0.8,1.2,0.7,1.2,0.7s-0.5,0.6-1.3,0.6c-0.8-0.1-1.1-0.9-1.1-0.9s0.2-0.3,0.4-0.6s0.2-1.3-0.4-1.6
			s-1,0.5-1,0.5s-0.6-0.3-1.5-0.4c-0.9-0.1-2.1,0.1-2.1,0.1s0.9-0.6,1.1-1.2c0,0,0-0.1,0-0.1c1.3,0,3.4-0.1,4.8,0.3
			c2.1,0.5,3.5,2.7,3.5,2.7s-0.9,0.4-0.5,1.8c0.4,1.3,1.6,1.6,1.4,3.4c-0.2,1.4-0.9,2-1.6,2.1c-0.1-0.1-0.2-0.3-0.3-0.3
			c-0.8-0.7-1.8-0.5-2.2-0.3l0,0c-0.1-0.3-0.3-1-0.3-1.6c-0.1-0.9,0-1.5,1.1-1.9c1-0.5,2,0,2.1,0.9c0.1,0.8-0.3,1.6-0.9,1.7
			c-0.6,0-0.5-0.5-0.5-0.5s0.8-0.6,0.6-1.1c-0.2-0.5-0.7-0.5-1.2-0.1c-0.5,0.4-0.2,1.7,0.5,2.1c0.7,0.4,1.5,0.2,2-1
			c0.5-1.2-0.3-2.6-1.6-2.6c-1.4,0-2.2,0.9-2.3,2c0,0.8,0.4,1.8,0.6,2.2c-0.3,0.1-0.6,0.3-0.6,0.3s0.1-0.7-0.1-1.5
			c-0.2-0.8-1.4-1.3-1.4-1.3s0.8,0.8,0.8,1.8c-0.1,1,0,1.6-1.3,2.4c-1.3,0.7-2.8,0.7-3.9,0.1c-1.1-0.6-3.3-3.8-4.6-5
			s-3.1-2.5-4.5-2.7c-0.2,0-0.3,0-0.5-0.1l0.1-0.3c0.3-1.5,0.2-2.7,0.2-2.7s0.9,2.1,2.8,1.7c1.8-0.4,2.2-1.5,1.9-2.9s-2-1.6-2.9-1.1
			c-0.8,0.5-0.6,1.7-0.1,2.1c0.5,0.4,1.4,0.3,1.6,0c0.2-0.3,0-1-0.4-1c-0.4,0.1-0.8,0.5-0.8,0.5s-0.6-0.6,0-1.1
			c0.6-0.5,1.4-0.5,1.8,0.1c0.4,0.6,0.7,1.8-0.4,2.3c-1.1,0.5-1.8,0.2-2.4-0.4c-0.5-0.7-0.6-0.7-0.7-1.8c0-1.1-0.2-2.3-1.2-2.4
			s-1.7,1-1.7,1s-1.6-1.7-2.6-2.2c-1.1-0.5-3.3-0.5-3.3-0.5s0.3-1.1-0.2-1.6c-0.5-0.5-1-0.7-1-0.7s0.7-0.8,1.2-1.2s1.1-0.4,1.1-0.4
			s-0.1,1.3-0.1,1.8c0.1,0.5,0.5,0.7,1.4,0.3c0.9-0.4,1.6-1,2.5-0.5c0.9,0.5,0.6,2.3,0.6,2.3s0.9-1.8,0.2-2.6s-1.7-1-2.4-1.1
			c-0.6-0.1-1.1,0-1.2-0.4c-0.1-0.4,0.8-1.1,1-2c0.1-0.9-0.1-1.4-0.1-1.4s-0.5-0.2-1.4-0.1c-0.9,0.1-1.6,1-2,1
			c-0.4-0.1-0.4-0.5-0.4-1.2c-0.1-0.6-0.2-1.7-1.1-2.4c-0.9-0.7-2.6,0.2-2.6,0.2s1.8-0.3,2.3,0.6c0.5,0.9-0.1,1.6-0.5,2.5
			c-0.4,0.9-0.2,1.3,0.3,1.4s1.8-0.1,1.8-0.1s0,0.5-0.4,1.1c-0.4,0.6-1.2,1.2-1.2,1.2s-0.1-0.5-0.7-1c-0.5-0.5-1.6-0.2-1.6-0.2
			s0-2.3-0.5-3.3c-0.5-1.1-2.2-2.6-2.2-2.6s1-0.7,1-1.7c-0.1-1-1.3-1.2-2.4-1.2c-1.1,0-1.2-0.1-1.8-0.7c-0.7-0.5-0.9-1.3-0.4-2.4
			c0.5-1.1,1.8-0.8,2.3-0.4c0.6,0.4,0.6,1.2,0.1,1.8c-0.5,0.6-1.1,0-1.1,0s0.3-0.3,0.5-0.8c0.1-0.4-0.7-0.6-1-0.4
			c-0.3,0.2-0.4,1.1,0,1.6c0.4,0.5,1.6,0.7,2.1-0.1c0.5-0.8,0.3-2.5-1.1-2.9c-1.4-0.3-2.5,0.1-2.9,1.9c-0.4,1.8,1.7,2.8,1.7,2.8
			s-1.3-0.1-2.7,0.2l-0.3,0.1c0-0.1,0-0.3-0.1-0.5c-0.2-1.4-1.4-3.1-2.7-4.5c-1.3-1.4-4.4-3.5-5-4.6c-0.6-1.1-0.7-2.6,0.1-3.9
			c0.7-1.3,1.4-1.3,2.4-1.3s1.8,0.8,1.8,0.8S8.6,99,7.7,98.8c-0.8-0.2-1.5-0.1-1.5-0.1s0.2-0.3,0.4-0.8c0.1-0.5,0.3-1.5-0.3-2.2
			c-0.7-0.8-2.7-0.9-3.5-0.6c-0.8,0.3-1.2,1.4-0.7,2s1,0.8,1.6,0.5c0.6-0.3,0.6-1.3,0.6-1.3s0.4-0.2,0.8-0.1c0.5,0.1,1.2,0,1.1,1.2
			c-0.1,1.2-0.7,1.3-0.7,1.3s0.1-0.4,0.1-0.8c-0.1-0.5-0.7-0.6-1.4,0c-0.7,0.6-1,1.4-0.9,2c0.1,0.5,0.9,0.3,0.9,0.3
			s-0.7,0.9-0.9,2.6s0.6,3.1,0.6,3.1s-1.3,0.1-1.7,1s0.1,1.9,0.1,1.9s0.1-1,0.5-1.6s0.9-0.7,1.5-0.4c0.6,0.2,0.4,0.6,1,1.3
			c0.6,0.8,1.6,0.8,1.6,0.8s-1.5,0.5-1.9,1.6c-0.4,1.1-0.6,1.8,0.4,3c1,1.2,2.5,0.3,2.5,0.3s-1.5,0-1.8-1.5
			c-0.3-1.5,0.6-2.5,2.4-2.2s2.5,1.8,3.2,3.5c0.1,0.3,0.2,0.5,0.2,0.9c-1,0.2-1.8,0.5-3.2,1.4c-0.8-0.5-1.7-0.4-3-0.1
			c-1.8,0.4-3,2.9-2.9,3.2c0.1,0.3,0.5,0.1,0.9,0.3s0.5,0.3,0.5,1c-0.1,0.7-0.8,0.3-1.5,0.9s-0.8,1.8-0.4,2.7c0.4,1,1.5,1.1,2.2,0.9
			c0.6-0.2,1.1-1.4,0.6-1.8s-1.2-0.4-1.4,0.2s0.5,0.9,0.5,0.9s-0.6,0.1-1-0.4c-0.4-0.5-0.3-1.5,0.5-1.8s1.6-0.2,2.2,0.8
			c0.6,1,0.6,2,0.6,2s0.2-0.4,0.2-1.1s0-1.3-0.4-2.4c-0.1-0.3-0.2-0.5-0.4-0.7c0.3-0.5,0.8-1.4,1.4-2.3c0.4-0.6,0.9-1.1,1.3-1.5
			c0.1,0.1,0.3,0.2,0.4,0.4c0.8,0.8,0.4,2.1,0.4,2.1s-0.5-0.6-1-0.6c-0.5,0-0.7,0.7-0.5,1.1c0.2,0.5,1.2,1,1.9,0.3s0.7-2.5-0.3-3.6
			c-0.1-0.1-0.1-0.2-0.2-0.2c0.6-0.4,1.2-0.7,1.9-1c0.3-0.1,0.6-0.2,0.9-0.2c0.1,1.4-0.4,2.7-0.4,2.7s0.5-0.7,0.6-1.3
			c0.1-0.4,0.2-0.8,0.2-1.5c1.1-0.1,2.4,0,3.6,0.5c1.7,0.7,2.9,2,3.9,3.8c1,1.9,0.4,3.6,0.4,3.6s-0.6-2-1.2-2.8
			c-0.5-0.9-1.5-0.6-1.5-0.6s0.5-0.3,0.7-0.6c0.2-0.3,0.1-0.8-0.5-0.9c-0.6-0.1-1,0.5-0.8,1.4c0.3,0.8,1.1,1.2,1.9,2
			c0.8,0.8,1,2,0.9,3.3c-0.2,1.4-0.9,2.2-2,2.9c-0.8,0.5-1.9,0.8-2.6,0.9c0-0.1,0-0.1,0-0.2c0-0.6-0.1-1.3-0.1-1.3l1.5,0.1
			c0,0,0-0.5-0.5-1.2c-0.5-0.7-1.5-1.3-2.5-1.9s-1.8-1.6-1.6-2.7c0.2-1.2,1-1.8,2.2-1.9c1.2-0.1,1.9,0.6,2.1,1.4
			c0.2,0.7,0,1.4-0.9,1.8c-0.8,0.3-1.2-0.1-1.2-0.1s1.2-0.6,1-1.4c-0.3-0.8-1.4-0.6-1.8,0.2c-0.4,0.8,0.3,1.8,1.3,1.9
			c1.1,0.1,2.2-0.8,2.2-1.9c0-1.1-0.6-1.8-2-2.2c-1.4-0.4-2.6,0.3-3.1,1s-0.7,1.9-0.3,2.9c0.3,1,2.1,2.5,2.1,2.5s-0.7,0.3-1.2,0.2
			c-0.6-0.1-1-0.5-1-0.5s0.4,1.2,1.2,1.6c0.8,0.3,2-0.2,2-0.2s-0.4,0.7-0.7,1.1c-0.4,0.3-0.9,0.6-1.1,0.4s-1.4-1.3-2.7-2.2
			c-1.3-0.9-2.4-1-2.8-0.7c-0.4,0.3-0.1,1-0.7,1.1c-0.5,0-0.5-0.6-0.9-0.9s-1-0.1-1.6,0.3s-1.4,1.2-1.7,2.2c-0.2,1,0,2.1,0.3,2.7
			c0.2,0.7,0.1,1,0.1,1s-0.6,0.9-0.3,1.2c0.3,0.4,1,0.8,1.3,1.1s0.2,0.7-0.3,1s-0.6,0-0.6,0s0.3-0.6,0-0.7c-0.3-0.1-0.7-0.2-0.8,0.3
			c-0.1,0.5,0.1,0.9,0.5,1.1c0.4,0.1,1.1,0.1,1.6-0.4s0.3-1.2,0.3-1.2s0.7,0,1.2,0.3c0.5,0.3,0.9,0.6,0.9,0.6v-0.7
			c0,0,0.7,0.5,1.2,0.5c0.5,0.1,1.7-0.1,2.2-0.4s0.4-0.9,0.4-1.1c0-0.2,0.1,0,0.4-0.1c0.3,0,0.6-0.3,0.8-1.2
			c0.2-0.9,0.1-1.7-0.7-2.2c-0.8-0.5-1.6-0.3-2,0.3s-0.2,1.4-0.2,1.4s0.1-0.5,0.3-0.7s0.3-0.5,1-0.6c0.7,0,1.1,0.3,1.3,1.1
			c0.1,0.7,0,1-0.4,1.3c-0.3,0.4-0.6,0.2-0.8,0.4c-0.2,0.3-0.1,0.3-0.4,0.7s-2,0.6-2.8-0.2s-0.8-2.1-0.5-3.3
			c0.3-1.2,1.1-1.3,1.5-1.7c0.4-0.4,0.5-1,0.2-1.2c-0.3-0.2-0.5-0.1-1.2,0.5c-0.7,0.5-1.4,1.2-1.5,2.8c-0.1,1.6,0.7,3.1,0.7,3.1
			s-0.5-0.1-1-0.3c-0.5-0.3-0.6-0.5-0.8-1c-0.2-0.5-0.2-1-0.3-1.3c-0.2-0.3-0.5,0.1-0.5,0.1s-0.2-0.8-0.2-2.1c0-1.3,0.9-2.6,1.7-2.9
			c0.7-0.3,0.7,0.3,1,0.7c0.3,0.3,0.8,0.5,1.4,0.3s1-0.8,1.2-1c0.2-0.2,0.8,0.1,1.6,0.6s1.6,1.4,1.6,1.4s-0.3-0.1-1-0.1
			c-0.7,0-1.4,0-2,0.3c-0.6,0.3-1.2,1.2-1.3,1.9c-0.1,0.7,0,1.4,0.3,2c0.3,0.6,0.6,0.9,1.2,0.9c0.7,0,1-0.2,1.4-0.7
			c0.3-0.5,0.2-1.2-0.1-1.4c-0.3-0.3-0.8,0.2-0.8,0.6c0,0.4,0.3,0.5,0.3,0.5s0.1,0.2-0.1,0.3c-0.2,0.1-0.4,0.1-0.7-0.2
			c-0.3-0.2-0.6-0.7-0.5-1.4c0.1-0.7,0.4-1.2,0.8-1.5c0.4-0.3,1.3-0.4,2.6-0.4s2.3,0.2,2.6,0.8c0.3,0.6,0.4,1.3,0.4,1.3
			s-1,0.1-1.6,0.7c-0.5,0.6-0.7,1.4-0.7,1.4s0.3,0.1,0.6,0.2c0.3,0,0.9,0,0.9,0s-0.4,0.8-0.9,1.3c-0.4,0.5-1.2,1.1-1.2,1.1
			s0-0.5-0.1-1.1c-0.2-0.6-0.8-0.8-0.8-0.8s0.3,0.7,0.3,1.4c0,0.7-0.2,1.3-0.9,2.4c-0.7,1.1-2.2,1.9-2.2,1.9s0.1-1.2,0-2.2
			c-0.1-1-0.8-1.9-0.8-1.9s0.2,1.6,0.3,2.6c0,1-0.1,1.9-0.9,2.3s-1.5,0.3-1.9-0.1c-0.4-0.3-0.6-0.9-0.5-1.4c0.1-0.5,0.8-0.5,0.8-0.5
			s0.1,0.3,0.2,0.5c0.2,0.2,0.4,0.3,0.7,0.1c0.4-0.1,0.4-0.7,0.2-1s-1-1-2-0.4c-1,0.6-1,1.7-0.8,2.5c0.2,0.8,0.9,1.3,1,2
			c0.2,0.7,0.1,1-0.2,1.5c-0.3,0.4-0.7,0.6-1,0.7c-0.3,0-0.8-0.3-0.8-0.7c0-0.4,0.5-0.5,0.5-0.5s-0.1,0.5,0.1,0.7
			c0.2,0.1,0.5,0.1,0.6-0.2s0-1-0.5-1.2c-0.5-0.3-1.2-0.1-1.5,0.6c-0.3,0.8,0.1,1.6,0.8,1.9c0.7,0.3,1.3-0.2,1.3-0.1
			c0.1,0.1-0.4,0.6-0.1,1.3s1.1,1.1,1.9,0.8s0.9-1.1,0.6-1.5c-0.3-0.5-1-0.6-1.2-0.5c-0.3,0.1-0.3,0.4-0.2,0.6s0.7,0.1,0.7,0.1
			s-0.2,0.5-0.5,0.5c-0.4,0-0.7-0.5-0.7-0.8c0-0.3,0.2-0.7,0.7-1c0.4-0.3,0.7-0.4,1.5-0.2s1.2,0.8,2,1c0.8,0.2,1.8,0.2,2.5-0.8
			c0.6-1-0.1-1.9-0.4-2s-0.9-0.1-1,0.2c-0.1,0.4-0.1,0.6,0.1,0.7c0.2,0.2,0.5,0.2,0.5,0.2s0,0.6-0.5,0.8c-0.5,0.1-1.1-0.1-1.4-0.5
			c-0.3-0.4-0.5-1-0.1-1.9c0.4-0.8,1.3-0.9,2.3-0.9c1,0,2.6,0.3,2.6,0.3s-0.9-0.7-1.9-0.8c-1-0.1-2.2,0-2.2,0s0.8-1.5,1.9-2.2
			s1.7-0.9,2.4-0.9c0.7,0,1.4,0.3,1.4,0.3s-0.2-0.7-0.8-0.8c-0.6-0.2-1.1-0.1-1.1-0.1s0.6-0.8,1.1-1.2c0.5-0.4,1.3-0.9,1.3-0.9
			s0,0.5,0,0.9c0,0.3,0.2,0.6,0.2,0.6s0.8-0.1,1.4-0.7c0.6-0.5,0.7-1.6,0.7-1.6s0.8,0,1.3,0.4c0.6,0.3,0.8,1.3,0.8,2.6
			c0,1.3,0,2.2-0.4,2.6c-0.3,0.4-0.8,0.7-1.5,0.8c-0.7,0.1-1.2-0.2-1.4-0.5c-0.2-0.3-0.3-0.6-0.2-0.7c0.1-0.2,0.3-0.1,0.3-0.1
			s0.1,0.3,0.5,0.3c0.4,0,0.8-0.5,0.6-0.8c-0.3-0.3-1-0.5-1.4-0.1c-0.5,0.3-0.7,0.7-0.7,1.4c0,0.7,0.3,0.9,0.9,1.2
			c0.6,0.3,1.4,0.4,2,0.3c0.7-0.1,1.6-0.7,1.9-1.3c0.3-0.6,0.3-1.4,0.3-2c0-0.7-0.1-1-0.1-1s0.9,0.9,1.4,1.6
			c0.5,0.8,0.8,1.4,0.6,1.6c-0.2,0.2-0.8,0.6-1,1.2c-0.1,0.6,0,1.1,0.3,1.4c0.3,0.3,1,0.2,0.7,1c-0.3,0.7-1.6,1.6-2.9,1.7
			c-1.3,0-2.1-0.2-2.1-0.2s0.3-0.3,0.1-0.5c-0.3-0.2-0.7-0.1-1.3-0.3c-0.5-0.2-0.8-0.4-1-0.8c-0.3-0.5-0.3-1-0.3-1s1.4,0.8,3.1,0.7
			c1.6-0.1,2.3-0.8,2.8-1.5c0.5-0.7,0.7-0.9,0.5-1.2s-0.8-0.2-1.2,0.2c-0.4,0.4-0.5,1.2-1.7,1.5c-1.2,0.3-2.5,0.3-3.3-0.5
			s-0.6-2.5-0.2-2.8c0.4-0.3,0.5-0.2,0.7-0.4c0.3-0.2,0.1-0.5,0.4-0.8c0.4-0.3,0.6-0.5,1.3-0.4c0.7,0.1,1.1,0.6,1.1,1.3
			c0,0.7-0.3,0.8-0.6,1s-0.7,0.3-0.7,0.3s0.9,0.3,1.4-0.2c0.6-0.5,0.7-1.2,0.3-2c-0.5-0.8-1.3-0.9-2.2-0.7c-0.9,0.2-1.2,0.5-1.2,0.8
			c0,0.3,0.1,0.4-0.1,0.4s-0.8-0.1-1.1,0.4c-0.3,0.5-0.5,1.6-0.4,2.2c0.1,0.5,0.5,1.2,0.5,1.2h-0.7c0,0,0.3,0.4,0.6,0.9
			c0.3,0.5,0.3,1.2,0.3,1.2s-0.7-0.2-1.2,0.3c-0.5,0.5-0.5,1.2-0.4,1.6s0.6,0.6,1.1,0.5c0.5-0.1,0.5-0.5,0.3-0.8
			c-0.1-0.3-0.7,0-0.7,0s-0.3-0.2,0-0.6c0.3-0.5,0.7-0.5,1-0.3c0.3,0.3,0.7,1,1.1,1.3c0.4,0.3,1.2-0.3,1.2-0.3s0.4-0.1,1,0.1
			c0.7,0.2,1.8,0.5,2.7,0.3c1-0.2,1.8-1,2.2-1.7c0.4-0.7,0.5-1.3,0.3-1.6c-0.2-0.3-0.9-0.4-0.9-0.9s0.8-0.3,1.1-0.7
			c0.3-0.4,0.2-1.5-0.7-2.8c-0.9-1.3-2-2.6-2.2-2.7s0.1-0.7,0.4-1.1c0.3-0.4,1.1-0.7,1.1-0.7s-0.5,1.1-0.2,2
			c0.3,0.8,1.6,1.2,1.6,1.2s-0.3-0.5-0.5-1s0.2-1.2,0.2-1.2s1.5,1.8,2.5,2.1c1,0.3,2.1,0.2,2.9-0.3c0.7-0.5,1.4-1.6,1-3.1
			c-0.4-1.4-1.1-2-2.2-2c-1.1,0-2,1.2-1.9,2.2c0.1,1.1,1.1,1.7,1.9,1.3c0.8-0.4,1-1.5,0.2-1.8c-0.8-0.3-1.4,1-1.4,1
			s-0.5-0.4-0.1-1.2c0.3-0.8,1-1,1.8-0.9c0.7,0.2,1.4,1,1.4,2.1c-0.1,1.2-0.7,2-1.9,2.2s-2.1-0.6-2.7-1.6s-1.2-1.9-1.9-2.5
			c-0.7-0.5-1.2-0.5-1.2-0.5l0.1,1.5c0,0-0.6,0-1.3-0.1c-0.1,0-0.1,0-0.2,0c0.1-0.7,0.4-1.8,0.9-2.6c0.7-1.1,1.6-1.8,2.9-2
			c1.4-0.2,2.5,0.1,3.3,0.9c0.8,0.8,1.2,1.7,2,1.9c0.8,0.3,1.5-0.2,1.4-0.8s-0.6-0.7-0.9-0.5c-0.3,0.2-0.6,0.7-0.6,0.7
			s0.3-1-0.6-1.5c-0.9-0.5-2.8-1.2-2.8-1.2s1.8-0.6,3.6,0.4c1.9,1,3.1,2.2,3.8,3.9c0.5,1.2,0.7,2.4,0.5,3.6c-0.7,0-1,0.1-1.5,0.2
			c-0.6,0.1-1.3,0.6-1.3,0.6s1.3-0.4,2.7-0.4c-0.1,0.3-0.1,0.6-0.2,0.9c-0.2,0.7-0.5,1.3-1,1.9c-0.1-0.1-0.1-0.1-0.2-0.2
			c-1.1-1-2.9-1-3.6-0.3c-0.7,0.7-0.2,1.7,0.3,1.9c0.5,0.2,1.1,0,1.1-0.5c0-0.5-0.6-1-0.6-1s1.3-0.4,2.1,0.4
			c0.1,0.1,0.3,0.3,0.4,0.4c-0.4,0.4-0.9,0.9-1.5,1.3c-0.9,0.7-1.8,1.1-2.3,1.4c-0.2-0.1-0.4-0.3-0.7-0.4c-1.1-0.4-1.6-0.4-2.4-0.4
			c-0.7,0-1.1,0.2-1.1,0.2s1,0,2,0.6c1,0.6,1.1,1.4,0.8,2.2c-0.3,0.8-1.3,0.9-1.8,0.5c-0.5-0.4-0.4-1-0.4-1s0.3,0.7,0.9,0.5
			c0.6-0.2,0.6-0.9,0.2-1.4s-1.6,0-1.8,0.6c-0.2,0.6-0.1,1.8,0.9,2.2c1,0.4,2.1,0.3,2.7-0.4c0.6-0.7,0.2-1.4,0.9-1.5s0.9,0.1,1,0.5
			c0.2,0.4,0,0.8,0.3,0.9c0.3,0.1,2.7-1.2,3.2-2.9c0.3-1.3,0.4-2.2-0.1-3c1-1.4,1.2-2.2,1.4-3.2c0.3,0.1,0.6,0.1,0.9,0.2
			c1.7,0.7,3.2,1.4,3.5,3.2c0.3,1.9-0.7,2.7-2.2,2.4c-1.5-0.3-1.5-1.8-1.5-1.8s-0.9,1.5,0.3,2.5c1.2,1,1.9,0.8,3,0.4
			c1.1-0.4,1.6-1.9,1.6-1.9s0,1,0.8,1.6c0.8,0.6,1.1,0.4,1.3,1c0.2,0.6,0.2,1.2-0.4,1.5c-0.6,0.3-1.6,0.5-1.6,0.5s0.9,0.5,1.9,0.1
			c1-0.4,1-1.7,1-1.7s1.4,0.8,3.1,0.6c1.7-0.2,2.6-0.9,2.6-0.9s-0.2,0.7,0.3,0.9c0.5,0.1,1.4-0.3,2-0.9s0.5-1.3,0-1.4
			c-0.5-0.1-0.8,0.1-0.8,0.1s0.1-0.6,1.3-0.7s1.1,0.6,1.2,1.1c0.1,0.5-0.1,0.8-0.1,0.8s-1,0.1-1.3,0.6c-0.3,0.6-0.1,1.2,0.5,1.6
			c0.6,0.4,1.7,0,2-0.7c0.2-0.6,0.2-1.8-0.1-2.7c0.5-0.1,1.3-0.3,2.1-0.9c0.8-0.7,1.1-1.6,1.2-2.7c1,1.2,3.2,3.7,4.4,4.1
			c0.9,0.3,1.6,0.5,2.4,0.6c-0.1,0.4-0.3,1,0,1.7c0.5,1,2.1,1.4,3.7,0.1s2.8-3.4,4-3.7s2,0.3,2.3,0.8c0.3,0.6,0.2,1.8,0,2.3
			s-0.7,0.7-0.7,0.7s0.3-1.4-0.3-2c-0.5-0.6-2-0.5-2.2,0.7c-0.3,1.3,0.6,2.3,2,2.3c1.4,0,2.3-0.9,2.5-2.2c0-0.2,0.1-0.3,0.1-0.5
			L74.6,144z M56.4,137.4c0.9,0.9,2.7,2.6,4.2,3.3c2.1,1,3.9,1.7,5.5,0.1s1.6-4,1.2-5.4s-2.3-1.6-3.6-1.2c-1.3,0.4-1.3,2-0.8,3
			c0.5,0.9,1.7,0.9,1.8,0.1s-0.1-1.1-0.5-1.2c-0.1,0-0.1,0-0.2,0c0.1-0.3,0.2-0.6,0.5-0.6c0.6-0.1,1.4,0.6,1.4,1.5
			c0,1-0.6,1.7-1.7,1.8c-1.1,0.1-2.6-1-2.7-2.6c0-1.5,0.1-2.8,1.6-3.1c1.4-0.3,2.9-0.5,4.4,0.6c1.5,1.1,1.9,2.2,1.7,4.2
			c-0.3,2-1,3.3-2,4.2c-1.1,0.9-2.5,1.1-4.1,1c-1.6-0.2-3.2-1.5-4.6-2.9c-0.7-0.7-1.4-1.4-2-2c0-0.2,0-0.4,0-0.6
			C56.4,137.6,56.4,137.5,56.4,137.4L56.4,137.4z M8.4,116.5c-0.5-0.1-1.1-0.1-1.8,0.3c-1.2,0.7-1.4,1.4-1.3,2.2
			c0.1,0.5,0.4,0.8,0.8,1.2C6.4,119.4,7.1,117.6,8.4,116.5L8.4,116.5z M32,140.1c0.1,0.5,0.1,1.1-0.3,1.8c-0.7,1.2-1.4,1.4-2.2,1.3
			c-0.5-0.1-0.8-0.4-1.2-0.8C29.1,142.1,30.8,141.3,32,140.1L32,140.1z"/>
		<path class="st0" d="M4.8,93c0,0-0.9-0.1-1.1-1.1s0.5-2.2,1.3-2c0.8,0.2,0.8,0.9,0.7,1.2c-0.1,0.4-0.4,0.5-0.8,0.5
			c-0.3,0-0.6-0.3-0.6-0.3S4.1,92.1,5,92.2c0.9,0.1,1.8-0.7,1.6-2c-0.2-1.4-1.4-1.3-2-1.4c-0.6-0.1-0.9,0-0.9,0s0.1,0.9-0.7,0.9
			c-0.9,0-0.8-0.6-0.7-1C2.2,88.2,3,87.8,3,87.8s-0.7-0.6-0.7-2c0.1-1.3,0.6-2.5,1.4-3.4s2.2-1.9,2.2-1.9s-2.1,0.6-2.6,1
			c-0.5,0.4-0.5,1.3-0.5,1.3s-0.2-0.4-0.2-0.8c0-0.4,0.2-0.6,0.2-0.6s-0.3,0.2-0.6-0.2C2,80.9,2,80.7,2,80.7s0.2-0.3,0.6-0.2
			c0.4,0,0.5,0.4,0.5,0.4s0-0.4,0.2-0.7C3.5,79.9,4,79.8,4,79.8s-0.3,0.4-0.4,0.7S3.5,81,3.5,81s0.7-0.4,1.4-0.7s1.5-0.5,2-1.3
			S7.7,77,7.7,77s0,1.5-0.3,2.4c-0.3,0.8-0.6,0.9-0.3,1.4c0.3,0.5,1,0.6,1,0.6s-0.3,0.4-0.8,0.2c-0.5-0.1-0.7-0.7-0.7-0.7
			s-1.1,0.6-2.1,1.6s-1.6,2.3-1.5,3.5c0.1,1.2,1.2,1.8,2.3,1.8s2.3-0.8,2.1-2c-0.2-1.1-0.6-1.3-1.1-1.3S4.7,85,4.6,85.6
			c-0.1,0.6,0.4,1.1,0.9,1c0.5-0.1,0.4-0.7,0.2-0.8c-0.1-0.2-0.4-0.3-0.4-0.3s0.4-0.3,0.7,0.1c0.3,0.3,0.4,1.1-0.3,1.4
			C4.9,87.4,4.1,87,4,86.5c-0.1-0.5-0.1-1.4,0.5-2C5.2,83.9,6,83.8,6,83.8s0.2-0.5-0.1-0.7S5,83.3,5,83.3s0.1-0.5,0.5-0.6
			c0.4-0.1,0.7,0,0.7,0s-0.1-0.2,0-0.5c0.1-0.3,0.4-0.5,0.4-0.5S6.9,82,7,82.3c0.1,0.3,0,0.6,0,0.6s0.2-0.2,0.5-0.1
			C7.8,82.9,8,83.3,8,83.3s-0.5,0-0.8,0.2s-0.3,0.6-0.3,0.6s1.1,0.4,1,1.8c-0.1,1.4-1.3,2.2-1.3,2.2s1.4,0.8,1.2,2.4
			c-0.2,1.7-0.6,1.9-1.2,2.2c-0.6,0.3-1,0.3-1,0.3s-0.2,0.5,0.1,0.7C6,94,6.5,94,6.5,94s-0.6,0.4-1.2,0.2S4.8,93.1,4.8,93L4.8,93z
			 M6.2,92.2c0,0,0.7-0.8,0.7-1.5c0.1-0.7-0.2-1.5-0.8-1.9c-0.6-0.4-2-0.8-2-0.8s2.3,0,2.9,1.1C7.7,90.1,7.6,91.6,6.2,92.2z"/>
		<path class="st0" d="M17.6,19.4c0,0,1.2,0.2,1.5-0.4c0.3-0.5-0.1-1.6-0.1-1.6s0.3,0.1,0.8,0.1c0,0.6,0,1.6,0.1,2.3
			c0.2,0.9,0.7,1.6,1.7,2.3c0.9,0.7,2.8,1.2,3,1.2c0.3-0.1,0.3,0.8-0.3,1.4S23,24.7,23,24.8c0,0,0.5,0.8-0.1,1.4
			c-0.6,0.6-1.5,0.6-1.4,0.3c0.1-0.3-0.5-2.1-1.2-3S19,22,18,21.8c-0.6-0.2-1.7-0.1-2.3-0.1c0-0.5-0.1-0.8-0.1-0.8s1.1,0.4,1.6,0.1
			C17.8,20.7,17.6,19.5,17.6,19.4z M74.6,6.3c0.9,0.1,2.4,0.2,3,0.6c1,0.6,1.9,1.4,1.9,1.4s1.2,0.1,1.4-0.9C81,6.3,80.8,6,80.6,6
			s-0.5,0-0.5,0s0.2,1-0.7,1c-0.9,0.1-1.1-0.8-0.4-1.4c0.7-0.6,2-1.2,2.7,0C82.5,6.7,82,8.3,82,8.6c0,0.4-0.5-0.3-1.1,0.1
			c-0.6,0.4-0.5,1.1-0.2,1.5c0.3,0.4,1.4-0.2,1.4-0.2s-0.6,1,0.5,2.1s1.8,0.5,2.6,0.2c0.8-0.4,1.1-1.1,0.9-2.1
			c-0.2-1-1.4-0.6-1.4-0.6s0.5,0.7,0.2,1.4c-0.3,0.7-1.2,0.6-1.8-0.2c-0.6-0.8,0-1.7,0.6-2.1c0.6-0.3,1.6-0.4,2.3,0.1
			c0.7,0.5,1.4,1.3,1.1,2.9c-0.3,1.6-1.1,2.1-2.4,2.3c-1.3,0.2-2.3-0.3-3-1s-1.3-1.5-1.3-1.5s0.3,1.6-1,3s-4.3,1-4.3,1
			s0.1,0.8-0.5,0.9c-0.6,0.1-1-0.9-1.4-1.4c-0.4-0.4-0.9-0.8-1.5-0.6s-0.8,0.5-0.8,0.5s1.6,0.3,1.4,1.3c-0.2,0.9-1,1.6-1.8,1.2
			c-0.8-0.5-1-2.4-0.1-3.5c0.8-1.1,1.5-1,2.1-0.9c0.6,0,1,0.2,1,0.2s-0.7-2,0.6-2.9c1.4-0.8,2.5-0.7,3.1,0.2c0.6,1-0.4,2.1-0.4,2.1
			s0.5-1.5-0.5-1.9c-1-0.4-2.2-0.1-2.1,1.5c0.1,1.5,1.4,2.4,3,2.1c1.6-0.3,2.6-1.3,2.4-3.3s-1.5-3.1-2.8-3.8
			c-0.7-0.4-1.6-0.6-2.3-0.7c0,1-0.3,1.9-1.3,2.6C72,10.1,71.1,9.8,69.9,9c-1.2-0.8-1.8-2.1-2.5-2.2c-0.5-0.1-1.1,0.1-1.5,0.3
			C67.1,7.5,68,8,68.8,9.7c1,2.1,1.4,4,0.5,5.8c-0.9,1.7-2.8,2.7-3.9,2.7c-1.2,0-2-0.1-2-0.1s1,1.3-0.2,1.4s-2-1.2-3.2-1.8
			c-1.2-0.5-2.7-0.5-3.1,0.9c-0.5,1.4,0.2,2.2,0.9,2.4c0.7,0.2,1.2,0,1.2-0.3s-0.3-0.4-0.3-0.4s-0.8,0.5-1,0.2
			c-0.2-0.4-0.3-1.6,0.7-1.7c1-0.1,1.4,0.5,1.5,1.6c0.1,1.2-0.9,1.4-1.7,1.4c-0.7,0.1-2.2-0.5-2-2.3c0.1-1.8,0.8-2.3,2.1-2.7
			c1.3-0.4,2.7-0.1,2.7-0.1s-1-2-0.3-3.4c0.7-1.4,2-2.6,3.5-2.4c1.4,0.2,2.1,1.4,1.9,2.6c-0.1,1.2-0.8,1.7-1.6,1.8
			c-0.6,0.1-0.8-0.6-0.9-0.9c-0.3,0-0.6,0-0.6,0s0,1.1,1,1.3c1.1,0.2,1.9-0.3,2.3-1.4c0.4-1.1,0.4-1.9-0.1-2.9s-1.4-1.7-3-1.6
			c-1.6,0.1-3,0.6-4.8,1.9c-1,0.7-1.7,1.3-2.2,1.7c-0.2,1.4-0.9,1.8-1.4,2.1c-0.5,0.4-1,0.1-1,0.1s-0.4,0.5-0.9,1.1
			c-0.5,0.5-1.4,1-1.4,1s1.4-0.1,2.6-0.3c1.2-0.2,2.6-0.5,2.6-0.5s-2.4,1.2-4.9,1.5c-1.8,0.2-4.9,0.2-6.5,0.2c0.1,0.3,0,0.6,0.2,0.8
			c0.2,0.3,3.5-0.2,4.6,0.7c1.2,0.8,0.4,1.9-0.6,2.1c-1,0.1-1.1-0.5-1.1-0.9c-0.1-0.3,0.6-0.2,0.8-0.3c0.2-0.1-0.1-0.6-0.9-0.6
			s-1.7,0.1-3.2,0.5c-1.6,0.4-3-0.6-3.3-1.7c-0.3-1,1-1.7,1-1.7s-0.5-0.5-0.9-1.1c-0.4-0.7-0.6-1.8-0.6-1.8s-1.9,1.2-2.2,0
			c-0.3-1.2,2-1.2,2-1.2S41,12.7,41,11.7c0.1-1,0.5-2.2,1.5-3.3c1-1.2,2-1.4,3.1-1.3c1.1,0.1,1.9,1.4,1.5,2.5
			c-0.4,1-1.4,1.8-2.1,1.6s-0.8-1.1-0.3-1.9c0.5-0.7,1.4-0.4,1.4-0.4s0-0.9-1.2-1c-1.2-0.1-2,0.9-2.6,2.3c-0.6,1.4-0.6,3,0,4.3
			s1.5,1.8,2.1,1.9c0.6,0.1,1.9,0.2,2.5,0.1c0.6-0.1,0.9-0.3,1-0.6c0.1-0.3,0.1-1.1-0.3-1.4s-0.9-0.1-0.9-0.1s0.2,0.4,0.2,0.9
			c0,0.5,0,0.7-0.7,0.6S45,15,45.3,14.1c0.3-0.9,1.2-0.8,1.7-0.4c0.5,0.4,1.2,0.1,2-0.2c0.7-0.4,1.6-0.5,2.4,0.1
			c0.8,0.6,0.5,2-0.3,2.7c-0.8,0.7-1.4-0.1-1.2-0.9c0.2-0.8,1.2-0.7,1.2-0.7s-0.5-0.6-1.3-0.6C49,14.1,48.6,15,48.6,15
			s0.2,0.3,0.4,0.6s0.2,1.3-0.4,1.6c-0.6,0.3-1-0.5-1-0.5S47.1,17,46.1,17C45.2,17.1,44,17,44,17s0.9,0.6,1.1,1.2c0,0,0,0.1,0,0.1
			c1.3,0,3.4,0.1,4.8-0.3c2.1-0.5,3.5-2.7,3.5-2.7s-0.9-0.4-0.5-1.8c0.4-1.3,1.6-1.6,1.4-3.4c-0.2-1.4-0.9-2-1.6-2.1
			c-0.1,0.1-0.2,0.3-0.3,0.3c-0.8,0.7-1.8,0.5-2.2,0.3l0,0c-0.1,0.3-0.3,1-0.3,1.6c-0.1,0.9,0,1.5,1.1,1.9c1,0.5,2,0,2.1-0.9
			c0.1-0.8-0.3-1.6-0.9-1.7c-0.6,0-0.5,0.5-0.5,0.5s0.8,0.6,0.6,1.1c-0.2,0.5-0.7,0.5-1.2,0.1c-0.5-0.4-0.2-1.7,0.5-2.1
			c0.7-0.4,1.5-0.2,2,1c0.5,1.2-0.3,2.6-1.6,2.6c-1.4,0-2.2-0.9-2.3-2c0-0.8,0.4-1.8,0.6-2.2c-0.3-0.1-0.6-0.3-0.6-0.3
			s0.1,0.7-0.1,1.5c-0.2,0.8-1.4,1.3-1.4,1.3s0.8-0.8,0.8-1.8c-0.1-1,0-1.6-1.3-2.4c-1.3-0.7-2.8-0.7-3.9-0.1
			c-1.1,0.6-3.3,3.8-4.6,5s-3.1,2.5-4.5,2.7c-0.2,0-0.3,0-0.5,0.1l0.1,0.3c0.3,1.5,0.2,2.7,0.2,2.7s0.9-2.1,2.8-1.7
			c1.8,0.4,2.2,1.5,1.9,2.9s-2,1.6-2.9,1.1c-0.8-0.5-0.6-1.7-0.1-2.1c0.5-0.4,1.4-0.3,1.6,0c0.2,0.3,0,1-0.4,1
			c-0.4-0.1-0.8-0.5-0.8-0.5s-0.6,0.6,0,1.1c0.6,0.5,1.4,0.5,1.8-0.1c0.4-0.6,0.7-1.8-0.4-2.3c-1.1-0.5-1.8-0.2-2.4,0.4
			c-0.5,0.7-0.6,0.7-0.7,1.8s-0.2,2.3-1.2,2.4s-1.7-1-1.7-1s-1.6,1.7-2.6,2.2c-1.1,0.5-3.3,0.5-3.3,0.5s0.3,1.1-0.2,1.6
			c-0.5,0.5-1,0.7-1,0.7s0.7,0.8,1.2,1.2s1.1,0.4,1.1,0.4s-0.1-1.3-0.1-1.8c0.1-0.5,0.5-0.7,1.4-0.3c0.9,0.4,1.6,1,2.5,0.5
			c0.9-0.5,0.6-2.3,0.6-2.3s0.9,1.8,0.2,2.6s-1.7,1-2.4,1.1c-0.6,0.1-1.1,0-1.2,0.4c-0.1,0.4,0.8,1.1,1,2c0.1,0.9-0.1,1.4-0.1,1.4
			s-0.5,0.2-1.4,0.1c-0.9-0.1-1.6-1-2-1c-0.4,0.1-0.4,0.5-0.4,1.2c-0.1,0.6-0.2,1.7-1.1,2.4c-0.9,0.7-2.6-0.2-2.6-0.2
			s1.8,0.3,2.3-0.6c0.5-0.9-0.1-1.6-0.5-2.5S23,29,23.5,28.9c0.5-0.1,1.8,0.1,1.8,0.1s0-0.5-0.4-1.1c-0.4-0.6-1.2-1.2-1.2-1.2
			s-0.1,0.5-0.7,1c-0.5,0.5-1.6,0.2-1.6,0.2s0,2.3-0.5,3.3c-0.5,1.1-2.2,2.6-2.2,2.6s1,0.7,1,1.7c-0.1,1-1.3,1.2-2.4,1.2
			c-1.1,0-1.2,0.1-1.8,0.7c-0.7,0.5-0.9,1.3-0.4,2.4c0.5,1.1,1.8,0.8,2.3,0.4c0.6-0.4,0.6-1.2,0.1-1.8c-0.5-0.6-1.1,0-1.1,0
			s0.3,0.3,0.5,0.8c0.1,0.4-0.7,0.6-1,0.4c-0.3-0.2-0.4-1.1,0-1.6c0.4-0.5,1.6-0.7,2.1,0.1c0.5,0.8,0.3,2.5-1.1,2.9
			c-1.4,0.3-2.5-0.1-2.9-1.9c-0.4-1.8,1.7-2.8,1.7-2.8s-1.3,0.1-2.7-0.2L12.6,36c0,0.1,0,0.3-0.1,0.5c-0.2,1.4-1.4,3.1-2.7,4.5
			c-1.3,1.4-4.4,3.5-5,4.6c-0.6,1.1-0.7,2.6,0.1,3.9s1.4,1.3,2.4,1.3S9,50.1,9,50.1s-0.5,1.1-1.3,1.4s-1.5,0.1-1.5,0.1
			s0.2,0.3,0.4,0.8c0.1,0.5,0.3,1.5-0.3,2.2s-2.7,0.9-3.5,0.6c-0.8-0.3-1.2-1.4-0.7-2s1-0.8,1.6-0.5S4.3,54,4.3,54s0.4,0.2,0.8,0.1
			c0.5-0.1,1.2,0,1.1-1.2c-0.1-1.2-0.7-1.3-0.7-1.3s0.1,0.4,0.1,0.8c-0.1,0.5-0.7,0.6-1.4,0s-1-1.4-0.9-2c0.1-0.5,0.9-0.3,0.9-0.3
			s-0.7-0.9-0.9-2.6s0.6-3.1,0.6-3.1s-1.3-0.1-1.7-1s0.1-1.9,0.1-1.9s0.1,1,0.5,1.6c0.3,0.6,0.9,0.7,1.5,0.4s0.4-0.6,1-1.3
			s1.6-0.8,1.6-0.8S5.4,40.9,5,39.9c-0.4-1.1-0.6-1.8,0.4-3c1-1.2,2.5-0.3,2.5-0.3s-1.5,0-1.8,1.5c-0.3,1.5,0.6,2.5,2.4,2.2
			c1.9-0.3,2.5-1.8,3.2-3.5c0.1-0.3,0.2-0.5,0.2-0.9c-1-0.2-1.8-0.5-3.2-1.4c-0.8,0.5-1.7,0.4-3,0.1c-1.8-0.4-3-2.9-2.9-3.2
			s0.5-0.1,0.9-0.3s0.5-0.3,0.5-1c-0.1-0.7-0.8-0.3-1.5-0.9S2,27.4,2.4,26.4s1.5-1.1,2.2-0.9c0.6,0.2,1.1,1.4,0.6,1.8
			c-0.5,0.5-1.2,0.4-1.4-0.2c-0.2-0.6,0.5-0.9,0.5-0.9s-0.6-0.1-1,0.4c-0.4,0.5-0.3,1.5,0.5,1.8c0.8,0.3,1.6,0.2,2.2-0.8
			s0.6-2,0.6-2s0.2,0.4,0.2,1.1s0,1.3-0.4,2.4c-0.1,0.3-0.2,0.5-0.4,0.7c0.3,0.5,0.8,1.4,1.4,2.3c0.4,0.6,0.9,1.1,1.3,1.5
			c0.1-0.1,0.3-0.2,0.4-0.4c0.8-0.8,0.4-2.1,0.4-2.1s-0.5,0.6-1,0.6c-0.5,0-0.7-0.7-0.5-1.1c0.2-0.5,1.2-1,1.9-0.3
			c0.7,0.7,0.7,2.5-0.3,3.6c-0.1,0.1-0.1,0.2-0.2,0.2c0.6,0.4,1.2,0.7,1.9,1c0.3,0.1,0.6,0.2,0.9,0.2c0.1-1.4-0.4-2.7-0.4-2.7
			s0.5,0.7,0.6,1.3c0.1,0.4,0.2,0.8,0.2,1.5c1.1,0.1,2.4,0,3.6-0.5c1.7-0.7,2.9-2,3.9-3.8c1-1.9,0.4-3.6,0.4-3.6s-0.6,2-1.2,2.8
			c-0.5,0.9-1.5,0.6-1.5,0.6s0.5,0.3,0.7,0.6c0.2,0.3,0.1,0.8-0.5,0.9c-0.6,0.1-1-0.5-0.8-1.4c0.3-0.8,1.1-1.2,1.9-2
			c0.8-0.8,1-2,0.9-3.3c-0.2-1.4-0.9-2.2-2-2.9c-0.8-0.5-1.9-0.8-2.6-0.9c0,0.1,0,0.1,0,0.2c0,0.6-0.1,1.3-0.1,1.3l1.5-0.1
			c0,0,0,0.5-0.5,1.2c-0.5,0.7-1.5,1.3-2.5,1.9s-1.8,1.6-1.6,2.7c0.2,1.2,1,1.8,2.2,1.9c1.2,0.1,1.9-0.6,2.1-1.4
			c0.2-0.7,0-1.4-0.9-1.8c-0.8-0.3-1.2,0.1-1.2,0.1s1.2,0.6,1,1.4c-0.3,0.8-1.4,0.6-1.8-0.2c-0.4-0.8,0.3-1.8,1.3-1.9
			c1.1-0.1,2.2,0.8,2.2,1.9c0,1.1-0.6,1.8-2,2.2c-1.4,0.4-2.6-0.3-3.1-1c-0.5-0.7-0.7-1.9-0.3-2.9s2.1-2.5,2.1-2.5s-0.7-0.3-1.2-0.2
			c-0.6,0.1-1,0.5-1,0.5s0.4-1.2,1.2-1.6c0.8-0.3,2,0.2,2,0.2S14.3,23.4,14,23c-0.4-0.3-0.9-0.6-1.1-0.4s-1.4,1.3-2.7,2.2
			s-2.4,1-2.8,0.7c-0.4-0.3-0.1-1-0.7-1.1c-0.5,0-0.5,0.6-0.9,0.9c-0.3,0.2-1,0.1-1.6-0.3s-1.4-1.2-1.7-2.2c-0.2-1,0-2.1,0.3-2.7
			c0.2-0.7,0.1-1,0.1-1s-0.6-0.9-0.3-1.2s1-0.8,1.3-1.1c0.3-0.3,0.2-0.7-0.3-1s-0.6,0-0.6,0s0.3,0.6,0,0.7c-0.3,0.1-0.7,0.2-0.8-0.3
			c-0.1-0.5,0.1-0.9,0.5-1.1c0.4-0.1,1.1-0.1,1.6,0.4c0.5,0.5,0.3,1.2,0.3,1.2s0.7,0,1.2-0.3c0.5-0.3,0.9-0.6,0.9-0.6v0.7
			c0,0,0.7-0.5,1.2-0.5c0.5-0.1,1.7,0.1,2.2,0.4c0.5,0.3,0.4,0.9,0.4,1.1c0,0.2,0.1,0,0.4,0.1c0.3,0,0.6,0.3,0.8,1.2
			c0.2,0.9,0.1,1.7-0.7,2.2c-0.8,0.5-1.6,0.3-2-0.3s-0.2-1.4-0.2-1.4s0.1,0.5,0.3,0.7s0.3,0.5,1,0.6c0.7,0,1.1-0.3,1.3-1.1
			c0.1-0.7,0-1-0.4-1.3s-0.6-0.2-0.8-0.4c-0.2-0.3-0.1-0.3-0.4-0.7s-2-0.6-2.8,0.2C6,17.9,6,19.2,6.3,20.4c0.3,1.2,1.1,1.3,1.5,1.7
			c0.4,0.4,0.5,1,0.2,1.2c-0.3,0.2-0.5,0.1-1.2-0.5c-0.7-0.5-1.4-1.2-1.5-2.8c-0.1-1.6,0.7-3.1,0.7-3.1s-0.5,0.1-1,0.3
			c-0.5,0.3-0.6,0.5-0.8,1c-0.2,0.5-0.2,1-0.3,1.3c-0.2,0.3-0.5-0.1-0.5-0.1s-0.2,0.8-0.2,2.1c0,1.3,0.9,2.6,1.7,2.9
			c0.7,0.3,0.7-0.3,1-0.7c0.3-0.3,0.8-0.5,1.4-0.3c0.6,0.1,1,0.8,1.2,1c0.2,0.2,0.8-0.1,1.6-0.6c0.8-0.5,1.6-1.4,1.6-1.4
			s-0.3,0.1-1,0.1c-0.7,0-1.4,0-2-0.3c-0.6-0.3-1.2-1.2-1.3-1.9c-0.1-0.7,0-1.4,0.3-2c0.3-0.6,0.6-0.9,1.2-0.9c0.7,0,1,0.2,1.4,0.7
			c0.3,0.5,0.2,1.2-0.1,1.4C10,19.9,9.5,19.4,9.5,19c0-0.4,0.3-0.5,0.3-0.5s0.1-0.2-0.1-0.3c-0.2-0.1-0.4-0.1-0.7,0.2
			c-0.3,0.2-0.6,0.7-0.5,1.4c0.1,0.7,0.4,1.2,0.8,1.5c0.4,0.3,1.3,0.4,2.6,0.4c1.3,0,2.3-0.2,2.6-0.8s0.4-1.3,0.4-1.3
			s-1-0.1-1.6-0.7c-0.5-0.6-0.7-1.4-0.7-1.4s0.3-0.1,0.6-0.2c0.3,0,0.9,0,0.9,0s-0.4-0.8-0.9-1.3c-0.4-0.5-1.2-1.1-1.2-1.1
			s0,0.5-0.1,1.1c-0.2,0.6-0.8,0.8-0.8,0.8s0.3-0.7,0.3-1.4c0-0.7-0.2-1.3-0.9-2.4c-0.7-1.1-2.2-1.9-2.2-1.9s0.1,1.2,0,2.2
			s-0.8,1.9-0.8,1.9s0.2-1.6,0.3-2.6s-0.1-1.9-0.9-2.3s-1.5-0.3-1.9,0.1c-0.4,0.3-0.6,0.9-0.5,1.4c0.1,0.5,0.8,0.5,0.8,0.5
			s0.1-0.3,0.2-0.5c0.2-0.2,0.4-0.3,0.7-0.1c0.4,0.1,0.4,0.7,0.2,1s-1,1-2,0.4c-1-0.6-1-1.7-0.8-2.5c0.2-0.8,0.9-1.3,1-2
			c0.2-0.7,0.1-1-0.2-1.5c-0.3-0.4-0.7-0.6-1-0.7C3,6.5,2.6,6.8,2.5,7.2C2.5,7.6,3,7.7,3,7.7S2.9,7.2,3.2,7.1C3.4,7,3.7,7,3.8,7.3
			c0.1,0.3,0,1-0.5,1.2C2.9,8.8,2.1,8.7,1.8,7.9S1.9,6.3,2.6,6c0.7-0.3,1.3,0.2,1.3,0.1C4,6.1,3.5,5.5,3.8,4.8S4.9,3.7,5.7,4
			s0.9,1.1,0.6,1.5S5.3,6.2,5.1,6C4.8,5.9,4.8,5.6,4.9,5.4s0.7-0.1,0.7-0.1S5.4,4.7,5,4.7c-0.4,0-0.7,0.5-0.7,0.8
			c0,0.3,0.2,0.7,0.7,1c0.4,0.3,0.7,0.4,1.5,0.2s1.2-0.8,2-1c0.8-0.2,1.8-0.2,2.5,0.8s-0.1,1.9-0.4,2c-0.3,0.2-0.9,0.1-1-0.2
			C9.4,7.9,9.5,7.7,9.7,7.5c0.2-0.2,0.5-0.2,0.5-0.2s0-0.6-0.5-0.8C9.2,6.4,8.6,6.6,8.3,7C8,7.4,7.9,8.1,8.2,8.9
			c0.4,0.8,1.3,0.9,2.3,0.9c1,0,2.6-0.3,2.6-0.3s-0.9,0.7-1.9,0.8c-1,0.1-2.2,0-2.2,0s0.8,1.5,1.9,2.2s1.7,0.9,2.4,0.9
			c0.7,0,1.4-0.3,1.4-0.3s-0.2,0.7-0.8,0.8c-0.6,0.2-1.1,0.1-1.1,0.1s0.6,0.8,1.1,1.2c0.5,0.4,1.3,0.9,1.3,0.9s0-0.5,0-0.9
			c0-0.3,0.2-0.6,0.2-0.6s0.8,0.1,1.4,0.7c0.6,0.5,0.7,1.6,0.7,1.6s0.8,0,1.3-0.4c0.6-0.3,0.8-1.3,0.8-2.6c0-1.3,0-2.2-0.4-2.6
			c-0.3-0.4-0.8-0.7-1.5-0.8c-0.7-0.1-1.2,0.2-1.4,0.5c-0.2,0.3-0.3,0.6-0.2,0.7c0.1,0.2,0.3,0.1,0.3,0.1s0.1-0.3,0.5-0.3
			c0.4,0,0.8,0.5,0.6,0.8c-0.3,0.3-1,0.5-1.4,0.1c-0.5-0.3-0.7-0.7-0.7-1.4c0-0.7,0.3-0.9,0.9-1.2s1.4-0.4,2-0.3
			c0.7,0.1,1.6,0.7,1.9,1.3c0.3,0.6,0.3,1.4,0.3,2c0,0.7-0.1,1-0.1,1s0.9-0.9,1.4-1.6c0.5-0.8,0.8-1.4,0.6-1.6
			c-0.2-0.2-0.8-0.6-1-1.2c-0.1-0.6,0-1.1,0.3-1.4c0.3-0.3,1-0.2,0.7-1c-0.3-0.7-1.6-1.6-2.9-1.7s-2.1,0.2-2.1,0.2s0.3,0.3,0.1,0.5
			c-0.3,0.2-0.7,0.1-1.3,0.3c-0.5,0.2-0.8,0.4-1,0.8c-0.3,0.5-0.3,1-0.3,1s1.4-0.8,3.1-0.7c1.6,0.1,2.3,0.8,2.8,1.5
			c0.5,0.7,0.7,0.9,0.5,1.2s-0.8,0.2-1.2-0.2c-0.4-0.4-0.5-1.2-1.7-1.5C17,8.2,15.7,8.2,14.9,9s-0.6,2.5-0.2,2.8
			c0.4,0.3,0.5,0.2,0.7,0.4c0.3,0.2,0.1,0.5,0.4,0.8c0.4,0.3,0.6,0.5,1.3,0.4c0.7-0.1,1.1-0.6,1.1-1.3c0-0.7-0.3-0.8-0.6-1
			s-0.7-0.3-0.7-0.3s0.9-0.3,1.4,0.2c0.6,0.5,0.7,1.2,0.3,2c-0.5,0.8-1.3,0.9-2.2,0.7c-0.9-0.2-1.2-0.5-1.2-0.8
			c0-0.3,0.1-0.4-0.1-0.4c-0.2,0-0.8,0.1-1.1-0.4c-0.3-0.5-0.5-1.6-0.4-2.2c0.1-0.5,0.5-1.2,0.5-1.2h-0.7c0,0,0.3-0.4,0.6-0.9
			c0.3-0.5,0.3-1.2,0.3-1.2s-0.7,0.2-1.2-0.3c-0.5-0.5-0.5-1.2-0.4-1.6c0.1-0.4,0.6-0.6,1.1-0.5c0.5,0.1,0.5,0.5,0.3,0.8
			c-0.1,0.3-0.7,0-0.7,0s-0.3,0.2,0,0.6c0.3,0.5,0.7,0.5,1,0.3c0.3-0.3,0.7-1,1.1-1.3S16.8,5,16.8,5s0.4,0.1,1-0.1
			c0.7-0.2,1.8-0.5,2.7-0.3c1,0.2,1.8,1,2.2,1.7s0.5,1.3,0.3,1.6c-0.2,0.3-0.9,0.4-0.9,0.9c0,0.5,0.8,0.3,1.1,0.7
			c0.3,0.4,0.2,1.5-0.7,2.8s-2,2.6-2.2,2.7c-0.2,0.2,0.1,0.7,0.4,1.1c0.3,0.4,1.1,0.7,1.1,0.7s-0.5-1.1-0.2-2
			c0.3-0.8,1.6-1.2,1.6-1.2s-0.3,0.5-0.5,1s0.2,1.2,0.2,1.2s1.5-1.8,2.5-2.1c1-0.3,2.1-0.2,2.9,0.3c0.7,0.5,1.4,1.6,1,3.1
			c-0.4,1.4-1.1,2-2.2,2c-1.1,0-2-1.2-1.9-2.2c0.1-1.1,1.1-1.7,1.9-1.3c0.8,0.4,1,1.5,0.2,1.8c-0.8,0.3-1.4-1-1.4-1
			s-0.5,0.4-0.1,1.2c0.3,0.8,1,1,1.8,0.9c0.7-0.2,1.4-1,1.4-2.1c-0.1-1.2-0.7-2-1.9-2.2c-1.2-0.2-2.1,0.6-2.7,1.6S23,18,22.4,18.5
			c-0.7,0.5-1.2,0.5-1.2,0.5l0.1-1.5c0,0-0.6,0-1.3,0.1c-0.1,0-0.1,0-0.2,0c0.1,0.7,0.4,1.8,0.9,2.6c0.7,1.1,1.6,1.8,2.9,2
			c1.4,0.2,2.5-0.1,3.3-0.9c0.8-0.8,1.2-1.7,2-1.9c0.8-0.3,1.5,0.2,1.4,0.8c-0.1,0.6-0.6,0.7-0.9,0.5c-0.3-0.2-0.6-0.7-0.6-0.7
			s0.3,1-0.6,1.5c-0.9,0.5-2.8,1.2-2.8,1.2s1.8,0.6,3.6-0.4c1.9-1,3.1-2.2,3.8-3.9c0.5-1.2,0.7-2.4,0.5-3.6c-0.7,0-1-0.1-1.5-0.2
			c-0.6-0.1-1.3-0.6-1.3-0.6s1.3,0.4,2.7,0.4c-0.1-0.3-0.1-0.6-0.2-0.9c-0.2-0.7-0.5-1.3-1-1.9c-0.1,0.1-0.1,0.1-0.2,0.2
			c-1.1,1-2.9,1-3.6,0.3s-0.2-1.7,0.3-1.9s1.1,0,1.1,0.5c0,0.5-0.6,1-0.6,1s1.3,0.4,2.1-0.4c0.1-0.1,0.3-0.3,0.4-0.4
			c-0.4-0.4-0.9-0.9-1.5-1.3c-0.9-0.7-1.8-1.1-2.3-1.4c-0.2,0.1-0.4,0.3-0.7,0.4C25.9,9,25.3,9,24.6,9c-0.7,0-1.1-0.2-1.1-0.2
			s1,0,2-0.6c1-0.6,1.1-1.4,0.8-2.2C25.9,5.1,25,5,24.4,5.4c-0.5,0.4-0.4,1-0.4,1s0.3-0.7,0.9-0.5c0.6,0.2,0.6,0.9,0.2,1.4
			s-1.6,0-1.8-0.6c-0.2-0.6-0.1-1.8,0.9-2.2c1-0.4,2.1-0.3,2.7,0.4c0.6,0.7,0.2,1.4,0.9,1.5c0.7,0.1,0.9-0.1,1-0.5
			c0.2-0.4,0-0.8,0.3-0.9C29.4,5,31.9,6.2,32.3,8c0.3,1.3,0.4,2.2-0.1,3c1,1.4,1.2,2.2,1.4,3.2c0.3-0.1,0.6-0.1,0.9-0.2
			c1.7-0.7,3.2-1.4,3.5-3.2c0.3-1.9-0.7-2.7-2.2-2.4c-1.5,0.3-1.5,1.8-1.5,1.8s-0.9-1.5,0.3-2.5c1.2-1,1.9-0.8,3-0.4
			c1.1,0.4,1.6,1.9,1.6,1.9s0-1,0.8-1.6c0.8-0.6,1.1-0.4,1.3-1c0.2-0.6,0.2-1.2-0.4-1.5c-0.6-0.3-1.6-0.5-1.6-0.5s0.9-0.5,1.9-0.1
			s1,1.7,1,1.7s1.4-0.8,3.1-0.6c1.7,0.2,2.6,0.9,2.6,0.9s-0.2-0.7,0.3-0.9c0.5-0.1,1.4,0.3,2,0.9s0.5,1.3,0,1.4
			c-0.5,0.1-0.8-0.1-0.8-0.1s0.1,0.6,1.3,0.7s1.1-0.6,1.2-1.1c0.1-0.5-0.1-0.8-0.1-0.8s-1-0.1-1.3-0.6c-0.3-0.6-0.1-1.2,0.5-1.6
			c0.6-0.4,1.7,0,2,0.7c0.2,0.6,0.2,1.8-0.1,2.7c0.5,0.1,1.3,0.3,2.1,0.9c0.8,0.7,1.1,1.6,1.2,2.7c1-1.2,3.2-3.7,4.4-4.1
			c0.9-0.3,1.6-0.5,2.4-0.6c-0.1-0.4-0.3-1,0-1.7c0.5-1,2.1-1.4,3.7-0.1s2.8,3.4,4,3.7c1.2,0.4,2-0.3,2.3-0.8c0.3-0.6,0.2-1.8,0-2.3
			s-0.7-0.7-0.7-0.7s0.3,1.4-0.3,2c-0.5,0.6-2,0.5-2.2-0.7c-0.3-1.3,0.6-2.3,2-2.3c1.4,0,2.3,0.9,2.5,2.2c0,0.2,0.1,0.3,0.1,0.5
			L74.6,6.3z M56.4,12.9c0.9-0.9,2.7-2.6,4.2-3.3c2.1-1,3.9-1.7,5.5-0.1s1.6,4,1.2,5.4s-2.3,1.6-3.6,1.2c-1.3-0.4-1.3-2-0.8-3
			c0.5-0.9,1.7-0.9,1.8-0.1s-0.1,1.1-0.5,1.2c-0.1,0-0.1,0-0.2,0c0.1,0.3,0.2,0.6,0.5,0.6c0.6,0.1,1.4-0.6,1.4-1.5
			c0-1-0.6-1.7-1.7-1.8c-1.1-0.1-2.6,1-2.7,2.6c0,1.5,0.1,2.8,1.6,3.1c1.4,0.3,2.9,0.5,4.4-0.6c1.5-1.1,1.9-2.2,1.7-4.2
			s-1-3.3-2-4.2c-1.1-0.9-2.5-1.1-4.1-1c-1.6,0.2-3.2,1.5-4.6,2.9c-0.7,0.7-1.4,1.4-2,2c0,0.2,0,0.4,0,0.6
			C56.4,12.7,56.4,12.8,56.4,12.9L56.4,12.9z M8.4,33.8c-0.5,0.1-1.1,0.1-1.8-0.3c-1.2-0.7-1.4-1.4-1.3-2.2c0.1-0.5,0.4-0.8,0.8-1.2
			C6.4,30.9,7.1,32.7,8.4,33.8L8.4,33.8z M32,10.2c0.1-0.5,0.1-1.1-0.3-1.8C31,7.2,30.2,7,29.4,7.1c-0.5,0.1-0.8,0.4-1.2,0.8
			C29.1,8.2,30.8,9,32,10.2L32,10.2z"/>
		<path class="st0" d="M4.8,57.3c0,0-0.9,0.1-1.1,1.1c-0.2,1.1,0.5,2.2,1.3,2c0.8-0.2,0.8-0.9,0.7-1.2c-0.1-0.4-0.4-0.5-0.8-0.5
			c-0.3,0-0.6,0.3-0.6,0.3S4.1,58.2,5,58.1c0.9-0.1,1.8,0.7,1.6,2c-0.2,1.4-1.4,1.3-2,1.4c-0.6,0.1-0.9,0-0.9,0s0.1-0.9-0.7-0.9
			c-0.9,0-0.8,0.6-0.7,1C2.2,62.1,3,62.4,3,62.4s-0.7,0.6-0.7,2c0.1,1.3,0.6,2.5,1.4,3.4c0.8,0.9,2.2,1.9,2.2,1.9s-2.1-0.6-2.6-1
			c-0.5-0.4-0.5-1.3-0.5-1.3s-0.2,0.4-0.2,0.8c0,0.4,0.2,0.6,0.2,0.6S2.5,68.7,2.2,69C2,69.4,2,69.6,2,69.6s0.2,0.3,0.6,0.2
			c0.4,0,0.5-0.4,0.5-0.4s0,0.4,0.2,0.7C3.5,70.4,4,70.5,4,70.5S3.6,70,3.5,69.8s-0.1-0.5-0.1-0.5s0.7,0.4,1.4,0.7
			c0.7,0.3,1.5,0.5,2,1.3s0.8,2.1,0.8,2.1s0-1.5-0.3-2.4c-0.3-0.8-0.6-0.9-0.3-1.4c0.3-0.5,1-0.6,1-0.6s-0.3-0.4-0.8-0.2
			s-0.7,0.7-0.7,0.7s-1.1-0.6-2.1-1.6c-1-1-1.6-2.3-1.5-3.5c0.1-1.2,1.2-1.8,2.3-1.8c1.1,0.1,2.3,0.8,2.1,2
			c-0.2,1.1-0.6,1.3-1.1,1.3s-1.4-0.6-1.6-1.2c-0.1-0.6,0.4-1.1,0.9-1s0.4,0.7,0.2,0.8c-0.1,0.2-0.4,0.3-0.4,0.3S5.6,65,6,64.7
			c0.3-0.3,0.4-1.1-0.3-1.4c-0.7-0.3-1.5,0.1-1.6,0.6c-0.1,0.5-0.1,1.4,0.5,2C5.2,66.4,6,66.5,6,66.5s0.2,0.5-0.1,0.7
			C5.6,67.2,5,67,5,67s0.1,0.5,0.5,0.6c0.4,0.1,0.7,0,0.7,0s-0.1,0.2,0,0.5c0.1,0.3,0.4,0.5,0.4,0.5S6.9,68.3,7,68
			c0.1-0.3,0-0.6,0-0.6s0.2,0.2,0.5,0.1S8,67,8,67s-0.5,0-0.8-0.2s-0.3-0.6-0.3-0.6s1.1-0.4,1-1.8c-0.1-1.4-1.3-2.2-1.3-2.2
			s1.4-0.8,1.2-2.4c-0.2-1.7-0.6-1.9-1.2-2.2c-0.6-0.3-1-0.3-1-0.3s-0.2-0.5,0.1-0.7c0.3-0.2,0.8-0.2,0.8-0.2s-0.6-0.4-1.2-0.2
			S4.8,57.2,4.8,57.3L4.8,57.3z M6.2,58.1c0,0,0.7,0.8,0.7,1.5c0.1,0.7-0.2,1.5-0.8,1.9c-0.6,0.4-2,0.8-2,0.8s2.3,0,2.9-1.1
			C7.7,60.2,7.6,58.7,6.2,58.1z"/>
		<path class="st0" d="M219.5,130.8c0,0-1.2-0.2-1.5,0.4c-0.3,0.5,0.1,1.6,0.1,1.6s-0.3-0.1-0.8-0.1c0-0.6,0-1.6-0.1-2.3
			c-0.2-0.9-0.7-1.6-1.7-2.3c-0.9-0.7-2.8-1.2-3-1.2c-0.3,0.1-0.3-0.8,0.3-1.4c0.6-0.6,1.4-0.1,1.4-0.1c0,0-0.5-0.8,0.1-1.4
			c0.6-0.6,1.5-0.6,1.4-0.3c-0.1,0.3,0.5,2.1,1.2,3c0.7,0.9,1.3,1.4,2.3,1.7c0.6,0.2,1.7,0.1,2.3,0.1c0,0.5,0.1,0.8,0.1,0.8
			s-1.1-0.4-1.6-0.1C219.3,129.6,219.5,130.8,219.5,130.8z M162.5,144c-0.9-0.1-2.4-0.2-3-0.6c-1-0.6-1.9-1.4-1.9-1.4
			s-1.2-0.1-1.4,0.9c-0.1,1,0.1,1.3,0.3,1.4s0.5,0,0.5,0s-0.2-1,0.7-1c0.9-0.1,1.1,0.8,0.4,1.4c-0.7,0.6-2,1.2-2.7,0
			c-0.8-1.2-0.2-2.7-0.3-3.1c0-0.4,0.5,0.3,1.1-0.1c0.6-0.4,0.5-1.1,0.2-1.5s-1.4,0.2-1.4,0.2s0.6-1-0.5-2.1
			c-1.1-1.1-1.8-0.5-2.6-0.2c-0.8,0.4-1.1,1.1-0.9,2.1c0.2,1,1.4,0.6,1.4,0.6s-0.5-0.7-0.2-1.4c0.3-0.7,1.2-0.6,1.8,0.2
			c0.6,0.8,0,1.7-0.6,2.1c-0.6,0.3-1.6,0.4-2.3-0.1c-0.7-0.5-1.4-1.3-1.1-2.9c0.3-1.6,1.1-2.1,2.4-2.3c1.3-0.2,2.3,0.3,3,1
			c0.7,0.7,1.3,1.5,1.3,1.5s-0.3-1.6,1-3c1.3-1.4,4.3-1,4.3-1s-0.1-0.8,0.5-0.9c0.6-0.1,1,0.9,1.4,1.4c0.4,0.4,0.9,0.8,1.5,0.6
			s0.8-0.5,0.8-0.5s-1.6-0.3-1.4-1.3c0.2-0.9,1-1.6,1.8-1.2c0.8,0.5,1,2.4,0.1,3.5c-0.8,1.1-1.5,1-2.1,0.9c-0.6,0-1-0.2-1-0.2
			s0.7,2-0.6,2.9c-1.4,0.8-2.5,0.7-3.1-0.2c-0.6-1,0.4-2.1,0.4-2.1s-0.5,1.5,0.5,1.9c1,0.4,2.2,0.1,2.1-1.5c-0.1-1.5-1.4-2.4-3-2.1
			c-1.6,0.3-2.6,1.3-2.4,3.3c0.3,2,1.5,3.1,2.8,3.8c0.7,0.4,1.6,0.6,2.3,0.7c0-1,0.3-1.9,1.3-2.6c1.3-0.8,2.2-0.5,3.3,0.3
			c1.2,0.8,1.8,2.1,2.5,2.2c0.5,0.1,1.1-0.1,1.5-0.3c-1.2-0.4-2.1-0.9-2.9-2.6c-1-2.1-1.4-4-0.5-5.8c0.9-1.7,2.8-2.7,3.9-2.7
			s2,0.1,2,0.1s-1-1.3,0.2-1.4s2,1.2,3.2,1.8c1.2,0.5,2.7,0.5,3.1-0.9c0.5-1.4-0.2-2.2-0.9-2.4s-1.2,0-1.2,0.3
			c0,0.4,0.3,0.4,0.3,0.4s0.8-0.5,1-0.2c0.2,0.4,0.3,1.6-0.7,1.7c-1,0.1-1.4-0.5-1.5-1.6c-0.1-1.2,0.9-1.4,1.7-1.4
			c0.7-0.1,2.2,0.5,2,2.3c-0.1,1.8-0.8,2.3-2.1,2.7c-1.3,0.4-2.7,0.1-2.7,0.1s1,2,0.3,3.4c-0.7,1.4-2,2.6-3.5,2.4
			c-1.4-0.2-2.1-1.4-1.9-2.6c0.1-1.2,0.8-1.7,1.6-1.8c0.6-0.1,0.8,0.6,0.9,0.9c0.3,0,0.6,0,0.6,0s0-1.1-1-1.3
			c-1.1-0.2-1.9,0.3-2.3,1.4c-0.4,1.1-0.4,1.9,0.1,2.9c0.5,1,1.4,1.7,3,1.6c1.6-0.1,3-0.6,4.8-1.9c1-0.7,1.7-1.3,2.2-1.7
			c0.2-1.4,0.9-1.8,1.4-2.1c0.5-0.4,1-0.1,1-0.1s0.4-0.5,0.9-1.1s1.4-1,1.4-1s-1.4,0.1-2.6,0.3c-1.2,0.2-2.6,0.5-2.6,0.5
			s2.4-1.2,4.9-1.5c1.8-0.2,4.9-0.2,6.5-0.2c-0.1-0.3,0-0.6-0.2-0.8c-0.2-0.3-3.5,0.2-4.6-0.7c-1.2-0.8-0.4-1.9,0.6-2.1
			c1-0.1,1.1,0.5,1.1,0.9c0.1,0.3-0.6,0.2-0.8,0.3c-0.2,0.1,0.1,0.6,0.9,0.6c0.8,0.1,1.7-0.1,3.2-0.5s3,0.6,3.3,1.7
			c0.3,1-1,1.7-1,1.7s0.5,0.5,0.9,1.1c0.4,0.7,0.6,1.8,0.6,1.8s1.9-1.2,2.2,0s-2,1.2-2,1.2s0.1,0.6,0.1,1.6c-0.1,1-0.5,2.2-1.5,3.3
			c-1,1.2-2,1.4-3.1,1.3c-1.1-0.1-1.9-1.4-1.5-2.5s1.4-1.8,2.1-1.6c0.6,0.1,0.8,1.1,0.3,1.9c-0.5,0.7-1.4,0.4-1.4,0.4s0,0.9,1.2,1
			c1.2,0.1,2-0.9,2.6-2.3c0.6-1.4,0.6-3,0-4.3s-1.5-1.8-2.1-1.9c-0.6-0.1-1.9-0.2-2.5-0.1c-0.6,0.1-0.9,0.3-1,0.6
			c-0.1,0.3-0.1,1.1,0.3,1.4c0.4,0.3,0.9,0.1,0.9,0.1s-0.2-0.4-0.2-0.9c0-0.5,0-0.7,0.7-0.6c0.7,0.1,1.2,0.7,0.9,1.6
			c-0.3,0.9-1.2,0.8-1.7,0.4c-0.5-0.4-1.2-0.1-2,0.2c-0.7,0.4-1.6,0.5-2.4-0.1c-0.8-0.6-0.5-2,0.3-2.7c0.8-0.7,1.4,0.1,1.2,0.9
			s-1.2,0.7-1.2,0.7s0.5,0.6,1.3,0.6c0.8-0.1,1.1-0.9,1.1-0.9s-0.2-0.3-0.4-0.6c-0.2-0.3-0.2-1.3,0.4-1.6c0.6-0.3,1,0.5,1,0.5
			s0.6-0.3,1.5-0.4c0.9-0.1,2.1,0.1,2.1,0.1s-0.9-0.6-1.1-1.2c0,0,0-0.1,0-0.1c-1.3,0-3.4-0.1-4.8,0.3c-2.1,0.5-3.5,2.7-3.5,2.7
			s0.9,0.4,0.5,1.8c-0.4,1.3-1.6,1.6-1.4,3.4c0.2,1.4,0.9,2,1.6,2.1c0.1-0.1,0.2-0.3,0.3-0.3c0.8-0.7,1.8-0.5,2.2-0.3l0,0
			c0.1-0.3,0.3-1,0.3-1.6c0.1-0.9,0-1.5-1.1-1.9c-1-0.5-2,0-2.1,0.9c-0.1,0.8,0.3,1.6,0.9,1.7c0.6,0,0.5-0.5,0.5-0.5
			s-0.8-0.6-0.6-1.1c0.2-0.5,0.7-0.5,1.2-0.1c0.5,0.4,0.2,1.7-0.5,2.1s-1.5,0.2-2-1c-0.5-1.2,0.3-2.6,1.6-2.6s2.2,0.9,2.3,2
			c0,0.8-0.4,1.8-0.6,2.2c0.3,0.1,0.6,0.3,0.6,0.3s-0.1-0.7,0.1-1.5c0.2-0.8,1.4-1.3,1.4-1.3s-0.8,0.8-0.8,1.8c0.1,1,0,1.6,1.3,2.4
			c1.3,0.7,2.8,0.7,3.9,0.1c1.1-0.6,3.3-3.8,4.6-5s3.1-2.5,4.5-2.7c0.2,0,0.3,0,0.5-0.1l-0.1-0.3c-0.3-1.5-0.2-2.7-0.2-2.7
			s-0.9,2.1-2.8,1.7c-1.8-0.4-2.2-1.5-1.9-2.9c0.3-1.4,2-1.6,2.9-1.1c0.8,0.5,0.6,1.7,0.1,2.1s-1.4,0.3-1.6,0c-0.2-0.3,0-1,0.4-1
			c0.4,0.1,0.8,0.5,0.8,0.5s0.6-0.6,0-1.1c-0.6-0.5-1.4-0.5-1.8,0.1c-0.4,0.6-0.7,1.8,0.4,2.3s1.8,0.2,2.4-0.4
			c0.5-0.7,0.6-0.7,0.7-1.8c0-1.1,0.2-2.3,1.2-2.4s1.7,1,1.7,1s1.6-1.7,2.6-2.2c1.1-0.5,3.3-0.5,3.3-0.5s-0.3-1.1,0.2-1.6
			c0.5-0.5,1-0.7,1-0.7s-0.7-0.8-1.2-1.2s-1.1-0.4-1.1-0.4s0.1,1.3,0.1,1.8c-0.1,0.5-0.5,0.7-1.4,0.3c-0.9-0.4-1.6-1-2.5-0.5
			c-0.9,0.5-0.6,2.3-0.6,2.3s-0.9-1.8-0.2-2.6s1.7-1,2.4-1.1c0.6-0.1,1.1,0,1.2-0.4c0.1-0.4-0.8-1.1-1-2c-0.1-0.9,0.1-1.4,0.1-1.4
			s0.5-0.2,1.4-0.1c0.9,0.1,1.6,1,2,1c0.4-0.1,0.4-0.5,0.4-1.2c0.1-0.6,0.2-1.7,1.1-2.4c0.9-0.7,2.6,0.2,2.6,0.2s-1.8-0.3-2.3,0.6
			c-0.5,0.9,0.1,1.6,0.5,2.5c0.4,0.9,0.2,1.3-0.3,1.4s-1.8-0.1-1.8-0.1s0,0.5,0.4,1.1c0.4,0.6,1.2,1.2,1.2,1.2s0.1-0.5,0.7-1
			c0.5-0.5,1.6-0.2,1.6-0.2s0-2.3,0.5-3.3c0.5-1.1,2.2-2.6,2.2-2.6s-1-0.7-1-1.7c0.1-1,1.3-1.2,2.4-1.2c1.1,0,1.2-0.1,1.8-0.7
			c0.7-0.5,0.9-1.3,0.4-2.4c-0.5-1.1-1.8-0.8-2.3-0.4c-0.6,0.4-0.6,1.2-0.1,1.8c0.5,0.6,1.1,0,1.1,0s-0.3-0.3-0.5-0.8
			c-0.1-0.4,0.7-0.6,1-0.4c0.3,0.2,0.4,1.1,0,1.6c-0.4,0.5-1.6,0.7-2.1-0.1c-0.5-0.8-0.3-2.5,1.1-2.9c1.4-0.3,2.5,0.1,2.9,1.9
			s-1.7,2.8-1.7,2.8s1.3-0.1,2.7,0.2l0.3,0.1c0-0.1,0-0.3,0.1-0.5c0.2-1.4,1.4-3.1,2.7-4.5c1.3-1.4,4.4-3.5,5-4.6
			c0.6-1.1,0.7-2.6-0.1-3.9c-0.7-1.3-1.4-1.3-2.4-1.3s-1.8,0.8-1.8,0.8s0.5-1.1,1.3-1.4c0.8-0.2,1.5-0.1,1.5-0.1s-0.2-0.3-0.4-0.8
			c-0.1-0.5-0.3-1.5,0.3-2.2c0.7-0.8,2.7-0.9,3.5-0.6c0.8,0.3,1.2,1.4,0.7,2c-0.4,0.6-1,0.8-1.6,0.5c-0.6-0.3-0.6-1.3-0.6-1.3
			s-0.4-0.2-0.8-0.1c-0.5,0.1-1.2,0-1.1,1.2c0.1,1.2,0.7,1.3,0.7,1.3s-0.1-0.4-0.1-0.8c0.1-0.5,0.7-0.6,1.4,0c0.7,0.6,1,1.4,0.9,2
			c-0.1,0.5-0.9,0.3-0.9,0.3s0.7,0.9,0.9,2.6c0.2,1.7-0.6,3.1-0.6,3.1s1.3,0.1,1.7,1c0.4,1-0.1,1.9-0.1,1.9s-0.1-1-0.5-1.6
			s-0.9-0.7-1.5-0.4c-0.6,0.2-0.4,0.6-1,1.3c-0.6,0.8-1.6,0.8-1.6,0.8s1.5,0.5,1.9,1.6c0.4,1.1,0.6,1.8-0.4,3
			c-1,1.2-2.5,0.3-2.5,0.3s1.5,0,1.8-1.5c0.3-1.5-0.6-2.5-2.4-2.2c-1.9,0.3-2.5,1.8-3.2,3.5c-0.1,0.3-0.2,0.5-0.2,0.9
			c1,0.2,1.8,0.5,3.2,1.4c0.8-0.5,1.7-0.4,3-0.1c1.8,0.4,3,2.9,2.9,3.2c-0.1,0.3-0.5,0.1-0.9,0.3s-0.5,0.3-0.5,1
			c0.1,0.7,0.8,0.3,1.5,0.9c0.7,0.6,0.8,1.8,0.4,2.7c-0.4,1-1.5,1.1-2.2,0.9c-0.6-0.2-1.1-1.4-0.6-1.8c0.5-0.5,1.2-0.4,1.4,0.2
			c0.2,0.6-0.5,0.9-0.5,0.9s0.6,0.1,1-0.4c0.4-0.5,0.3-1.5-0.5-1.8c-0.8-0.3-1.6-0.2-2.2,0.8c-0.6,1-0.6,2-0.6,2s-0.2-0.4-0.2-1.1
			s0-1.3,0.4-2.4c0.1-0.3,0.2-0.5,0.4-0.7c-0.3-0.5-0.8-1.4-1.4-2.3c-0.4-0.6-0.9-1.1-1.3-1.5c-0.1,0.1-0.3,0.2-0.4,0.4
			c-0.8,0.8-0.4,2.1-0.4,2.1s0.5-0.6,1-0.6c0.5,0,0.7,0.7,0.5,1.1c-0.2,0.5-1.2,1-1.9,0.3s-0.7-2.5,0.3-3.6c0.1-0.1,0.1-0.2,0.2-0.2
			c-0.6-0.4-1.2-0.7-1.9-1c-0.3-0.1-0.6-0.2-0.9-0.2c-0.1,1.4,0.4,2.7,0.4,2.7s-0.5-0.7-0.6-1.3c-0.1-0.4-0.2-0.8-0.2-1.5
			c-1.1-0.1-2.4,0-3.6,0.5c-1.7,0.7-2.9,2-3.9,3.8c-1,1.9-0.4,3.6-0.4,3.6s0.6-2,1.2-2.8c0.5-0.9,1.5-0.6,1.5-0.6s-0.5-0.3-0.7-0.6
			s-0.1-0.8,0.5-0.9c0.6-0.1,1,0.5,0.8,1.4c-0.3,0.8-1.1,1.2-1.9,2c-0.8,0.8-1,2-0.9,3.3c0.2,1.4,0.9,2.2,2,2.9
			c0.8,0.5,1.9,0.8,2.6,0.9c0-0.1,0-0.1,0-0.2c0-0.6,0.1-1.3,0.1-1.3l-1.5,0.1c0,0,0-0.5,0.5-1.2c0.5-0.7,1.5-1.3,2.5-1.9
			s1.8-1.6,1.6-2.7c-0.2-1.2-1-1.8-2.2-1.9c-1.2-0.1-1.9,0.6-2.1,1.4s0,1.4,0.9,1.8c0.8,0.3,1.2-0.1,1.2-0.1s-1.2-0.6-1-1.4
			c0.3-0.8,1.4-0.6,1.8,0.2c0.4,0.8-0.3,1.8-1.3,1.9c-1.1,0.1-2.2-0.8-2.2-1.9c0-1.1,0.6-1.8,2-2.2c1.4-0.4,2.6,0.3,3.1,1
			c0.5,0.7,0.7,1.9,0.3,2.9c-0.3,1-2.1,2.5-2.1,2.5s0.7,0.3,1.2,0.2c0.6-0.1,1-0.5,1-0.5s-0.4,1.2-1.2,1.6c-0.8,0.3-2-0.2-2-0.2
			s0.4,0.7,0.7,1.1c0.4,0.3,0.9,0.6,1.1,0.4s1.4-1.3,2.7-2.2c1.3-0.9,2.4-1,2.8-0.7c0.4,0.3,0.1,1,0.7,1.1c0.5,0,0.5-0.6,0.9-0.9
			c0.3-0.2,1-0.1,1.6,0.3s1.4,1.2,1.7,2.2s0,2.1-0.3,2.7c-0.2,0.7-0.1,1-0.1,1s0.6,0.9,0.3,1.2c-0.3,0.4-1,0.8-1.3,1.1
			c-0.3,0.3-0.2,0.7,0.3,1c0.5,0.3,0.6,0,0.6,0s-0.3-0.6,0-0.7c0.3-0.1,0.7-0.2,0.8,0.3c0.1,0.5-0.1,0.9-0.5,1.1
			c-0.4,0.1-1.1,0.1-1.6-0.4s-0.3-1.2-0.3-1.2s-0.7,0-1.2,0.3c-0.5,0.3-0.9,0.6-0.9,0.6v-0.7c0,0-0.7,0.5-1.2,0.5
			c-0.5,0.1-1.7-0.1-2.2-0.4c-0.5-0.3-0.4-0.9-0.4-1.1c0-0.2-0.1,0-0.4-0.1c-0.3,0-0.6-0.3-0.8-1.2s-0.1-1.7,0.7-2.2
			c0.8-0.5,1.6-0.3,2,0.3c0.5,0.6,0.2,1.4,0.2,1.4s-0.1-0.5-0.3-0.7c-0.1-0.3-0.3-0.5-1-0.6c-0.7,0-1.1,0.3-1.3,1.1
			c-0.1,0.7,0,1,0.4,1.3c0.3,0.4,0.6,0.2,0.8,0.4c0.2,0.3,0.1,0.3,0.4,0.7s2,0.6,2.8-0.2c0.8-0.8,0.8-2.1,0.5-3.3
			c-0.3-1.2-1.1-1.3-1.5-1.7c-0.4-0.4-0.5-1-0.2-1.2s0.5-0.1,1.2,0.5c0.7,0.5,1.4,1.2,1.5,2.8c0.1,1.6-0.7,3.1-0.7,3.1
			s0.5-0.1,1-0.3c0.5-0.3,0.6-0.5,0.8-1s0.2-1,0.3-1.3c0.2-0.3,0.5,0.1,0.5,0.1s0.2-0.8,0.2-2.1c0-1.3-0.9-2.6-1.7-2.9
			c-0.7-0.3-0.7,0.3-1,0.7c-0.3,0.3-0.8,0.5-1.4,0.3c-0.6-0.1-1-0.8-1.2-1c-0.2-0.2-0.8,0.1-1.6,0.6s-1.6,1.4-1.6,1.4s0.3-0.1,1-0.1
			c0.7,0,1.4,0,2,0.3c0.6,0.3,1.2,1.2,1.3,1.9c0.1,0.7,0,1.4-0.3,2c-0.3,0.6-0.6,0.9-1.2,0.9c-0.7,0-1-0.2-1.4-0.7
			c-0.3-0.5-0.2-1.2,0.1-1.4c0.3-0.3,0.8,0.2,0.8,0.6c0,0.4-0.3,0.5-0.3,0.5s-0.1,0.2,0.1,0.3c0.2,0.1,0.4,0.1,0.7-0.2
			c0.3-0.2,0.6-0.7,0.5-1.4c-0.1-0.7-0.3-1.2-0.8-1.5c-0.4-0.3-1.3-0.4-2.6-0.4c-1.3,0-2.3,0.2-2.6,0.8c-0.3,0.6-0.4,1.3-0.4,1.3
			s1,0.1,1.6,0.7c0.5,0.6,0.7,1.4,0.7,1.4s-0.3,0.1-0.6,0.2c-0.3,0-0.9,0-0.9,0s0.4,0.8,0.9,1.3c0.4,0.5,1.2,1.1,1.2,1.1
			s0-0.5,0.1-1.1c0.2-0.6,0.8-0.8,0.8-0.8s-0.3,0.7-0.3,1.4c0,0.7,0.2,1.3,0.9,2.4c0.7,1.1,2.2,1.9,2.2,1.9s-0.1-1.2,0-2.2
			c0.1-1,0.8-1.9,0.8-1.9s-0.2,1.6-0.3,2.6c0,1,0.1,1.9,0.9,2.3s1.5,0.3,1.9-0.1s0.6-0.9,0.5-1.4c-0.1-0.5-0.8-0.5-0.8-0.5
			s-0.1,0.3-0.2,0.5c-0.2,0.2-0.4,0.3-0.7,0.1c-0.4-0.1-0.4-0.7-0.2-1c0.2-0.3,1-1,2-0.4c1,0.6,1,1.7,0.8,2.5s-0.9,1.3-1,2
			c-0.2,0.7-0.1,1,0.2,1.5c0.3,0.4,0.7,0.6,1,0.7c0.3,0,0.8-0.3,0.8-0.7s-0.5-0.5-0.5-0.5s0.1,0.5-0.1,0.7c-0.2,0.1-0.5,0.1-0.6-0.2
			c-0.1-0.3,0-1,0.5-1.2c0.5-0.3,1.2-0.1,1.5,0.6c0.3,0.8-0.1,1.6-0.8,1.9c-0.7,0.3-1.3-0.2-1.3-0.1c-0.1,0.1,0.4,0.6,0.1,1.3
			s-1.1,1.1-1.9,0.8s-0.9-1.1-0.6-1.5c0.3-0.5,1-0.6,1.2-0.5c0.3,0.1,0.3,0.4,0.2,0.6s-0.7,0.1-0.7,0.1s0.2,0.5,0.5,0.5
			c0.4,0,0.7-0.5,0.7-0.8c0-0.3-0.2-0.7-0.7-1c-0.4-0.3-0.7-0.4-1.5-0.2c-0.7,0.2-1.2,0.8-2,1c-0.8,0.2-1.8,0.2-2.5-0.8
			c-0.6-1,0.1-1.9,0.4-2c0.3-0.2,0.9-0.1,1,0.2c0.1,0.4,0.1,0.6-0.1,0.7c-0.2,0.2-0.5,0.2-0.5,0.2s0,0.6,0.5,0.8
			c0.5,0.1,1.1-0.1,1.4-0.5c0.3-0.4,0.5-1,0.1-1.9c-0.4-0.8-1.3-0.9-2.3-0.9c-1,0-2.6,0.3-2.6,0.3s0.9-0.7,1.9-0.8
			c1-0.1,2.2,0,2.2,0s-0.8-1.5-1.9-2.2s-1.7-0.9-2.4-0.9s-1.4,0.3-1.4,0.3s0.2-0.7,0.8-0.8c0.6-0.2,1.1-0.1,1.1-0.1
			s-0.6-0.8-1.1-1.2c-0.5-0.4-1.3-0.9-1.3-0.9s0,0.5,0,0.9c0,0.3-0.2,0.6-0.2,0.6s-0.8-0.1-1.4-0.7c-0.6-0.5-0.7-1.6-0.7-1.6
			s-0.8,0-1.3,0.4c-0.6,0.3-0.8,1.3-0.8,2.6c0,1.3,0,2.2,0.4,2.6c0.3,0.4,0.8,0.7,1.5,0.8c0.7,0.1,1.2-0.2,1.4-0.5
			c0.2-0.3,0.3-0.6,0.2-0.7c-0.1-0.2-0.3-0.1-0.3-0.1s-0.1,0.3-0.5,0.3c-0.4,0-0.8-0.5-0.6-0.8c0.3-0.3,1-0.5,1.4-0.1
			c0.5,0.3,0.7,0.7,0.7,1.4c0,0.7-0.3,0.9-0.9,1.2c-0.6,0.3-1.4,0.4-2,0.3c-0.7-0.1-1.6-0.7-1.9-1.3s-0.3-1.4-0.3-2s0.1-1,0.1-1
			s-0.9,0.9-1.4,1.6c-0.5,0.8-0.8,1.4-0.6,1.6c0.2,0.2,0.8,0.6,1,1.2c0.1,0.6,0,1.1-0.3,1.4c-0.3,0.3-1,0.2-0.7,1
			c0.3,0.7,1.6,1.6,2.9,1.7c1.3,0,2.1-0.2,2.1-0.2s-0.3-0.3-0.1-0.5c0.3-0.2,0.7-0.1,1.3-0.3c0.5-0.2,0.8-0.4,1-0.8
			c0.3-0.5,0.3-1,0.3-1s-1.4,0.8-3.1,0.7c-1.6-0.1-2.3-0.8-2.8-1.5c-0.5-0.7-0.7-0.9-0.5-1.2s0.8-0.2,1.2,0.2
			c0.4,0.4,0.5,1.2,1.7,1.5c1.2,0.3,2.5,0.3,3.3-0.5s0.6-2.5,0.2-2.8s-0.5-0.2-0.7-0.4c-0.3-0.2-0.1-0.5-0.4-0.8
			c-0.4-0.3-0.6-0.5-1.3-0.4c-0.7,0.1-1.1,0.6-1.1,1.3c0,0.7,0.3,0.8,0.6,1s0.7,0.3,0.7,0.3s-0.9,0.3-1.4-0.2
			c-0.6-0.5-0.7-1.2-0.3-2c0.5-0.8,1.3-0.9,2.2-0.7c0.9,0.2,1.2,0.5,1.2,0.8c0,0.3-0.1,0.4,0.1,0.4c0.2,0,0.8-0.1,1.1,0.4
			s0.5,1.6,0.4,2.2c-0.1,0.5-0.5,1.2-0.5,1.2h0.7c0,0-0.3,0.4-0.6,0.9c-0.3,0.5-0.3,1.2-0.3,1.2s0.7-0.2,1.2,0.3s0.5,1.2,0.4,1.6
			c-0.1,0.4-0.6,0.6-1.1,0.5c-0.5-0.1-0.5-0.5-0.3-0.8c0.1-0.3,0.7,0,0.7,0s0.3-0.2,0-0.6c-0.3-0.5-0.7-0.5-1-0.3
			c-0.3,0.3-0.7,1-1.1,1.3c-0.4,0.3-1.2-0.3-1.2-0.3s-0.4-0.1-1,0.1c-0.7,0.2-1.8,0.5-2.7,0.3c-1-0.2-1.8-1-2.2-1.7
			c-0.4-0.7-0.5-1.3-0.3-1.6c0.2-0.3,0.9-0.4,0.9-0.9s-0.8-0.3-1.1-0.7c-0.3-0.4-0.2-1.5,0.7-2.8c0.9-1.3,2-2.6,2.2-2.7
			s-0.1-0.7-0.4-1.1c-0.3-0.4-1.1-0.7-1.1-0.7s0.5,1.1,0.2,2c-0.3,0.8-1.6,1.2-1.6,1.2s0.3-0.5,0.5-1s-0.2-1.2-0.2-1.2
			s-1.5,1.8-2.5,2.1c-1,0.3-2.1,0.2-2.9-0.3c-0.7-0.5-1.4-1.6-1-3.1c0.4-1.4,1.1-2,2.2-2c1.1,0,2,1.2,1.9,2.2
			c-0.1,1.1-1.1,1.7-1.9,1.3c-0.8-0.4-1-1.5-0.2-1.8c0.8-0.3,1.4,1,1.4,1s0.5-0.4,0.1-1.2c-0.3-0.8-1-1-1.8-0.9
			c-0.7,0.2-1.4,1-1.4,2.1c0.1,1.2,0.7,2,1.9,2.2s2.1-0.6,2.7-1.6s1.2-1.9,1.9-2.5c0.7-0.5,1.2-0.5,1.2-0.5l-0.1,1.5
			c0,0,0.6,0,1.3-0.1c0.1,0,0.1,0,0.2,0c-0.1-0.7-0.4-1.8-0.9-2.6c-0.7-1.1-1.6-1.8-2.9-2c-1.4-0.2-2.5,0.1-3.3,0.9
			c-0.8,0.8-1.2,1.7-2,1.9c-0.8,0.3-1.5-0.2-1.4-0.8c0.1-0.6,0.6-0.7,0.9-0.5s0.6,0.7,0.6,0.7s-0.3-1,0.6-1.5
			c0.9-0.5,2.8-1.2,2.8-1.2s-1.8-0.6-3.6,0.4c-1.9,1-3.1,2.2-3.8,3.9c-0.5,1.2-0.7,2.4-0.5,3.6c0.7,0,1,0.1,1.5,0.2
			c0.6,0.1,1.3,0.6,1.3,0.6s-1.3-0.4-2.7-0.4c0.1,0.3,0.1,0.6,0.2,0.9c0.2,0.7,0.5,1.3,1,1.9c0.1-0.1,0.1-0.1,0.2-0.2
			c1.1-1,2.9-1,3.6-0.3c0.7,0.7,0.2,1.7-0.3,1.9c-0.5,0.2-1.1,0-1.1-0.5c0-0.5,0.6-1,0.6-1s-1.3-0.4-2.1,0.4
			c-0.1,0.1-0.3,0.3-0.4,0.4c0.4,0.4,0.9,0.9,1.5,1.3c0.9,0.7,1.8,1.1,2.3,1.4c0.2-0.1,0.4-0.3,0.7-0.4c1.1-0.4,1.6-0.4,2.4-0.4
			c0.7,0,1.1,0.2,1.1,0.2s-1,0-2,0.6c-1,0.6-1.1,1.4-0.8,2.2c0.3,0.8,1.3,0.9,1.8,0.5c0.5-0.4,0.4-1,0.4-1s-0.3,0.7-0.9,0.5
			c-0.6-0.2-0.6-0.9-0.2-1.4c0.5-0.5,1.6,0,1.8,0.6s0.1,1.8-0.9,2.2c-1,0.4-2.1,0.3-2.7-0.4c-0.6-0.7-0.2-1.4-0.9-1.5
			s-0.9,0.1-1,0.5c-0.2,0.4,0,0.8-0.3,0.9s-2.7-1.2-3.2-2.9c-0.3-1.3-0.4-2.2,0.1-3c-1-1.4-1.2-2.2-1.4-3.2
			c-0.3,0.1-0.6,0.1-0.9,0.2c-1.7,0.7-3.2,1.4-3.5,3.2c-0.3,1.9,0.7,2.7,2.2,2.4c1.5-0.3,1.5-1.8,1.5-1.8s0.9,1.5-0.3,2.5
			c-1.2,1-1.9,0.8-3,0.4s-1.6-1.9-1.6-1.9s0,1-0.8,1.6c-0.8,0.6-1.1,0.4-1.3,1c-0.2,0.6-0.2,1.2,0.4,1.5c0.6,0.3,1.6,0.5,1.6,0.5
			s-0.9,0.5-1.9,0.1c-1-0.4-1-1.7-1-1.7s-1.4,0.8-3.1,0.6c-1.7-0.2-2.6-0.9-2.6-0.9s0.2,0.7-0.3,0.9s-1.4-0.3-2-0.9s-0.5-1.3,0-1.4
			c0.5-0.1,0.8,0.1,0.8,0.1s-0.1-0.6-1.3-0.7s-1.1,0.6-1.2,1.1c-0.1,0.5,0.1,0.8,0.1,0.8s1,0.1,1.3,0.6c0.3,0.6,0.1,1.2-0.5,1.6
			s-1.7,0-2-0.7c-0.2-0.6-0.2-1.8,0.1-2.7c-0.5-0.1-1.3-0.3-2.1-0.9c-0.8-0.7-1.1-1.6-1.2-2.7c-1,1.2-3.2,3.7-4.4,4.1
			c-0.9,0.3-1.6,0.5-2.4,0.6c0.1,0.4,0.3,1,0,1.7c-0.5,1-2.1,1.4-3.7,0.1s-2.8-3.4-4-3.7c-1.2-0.4-2,0.3-2.3,0.8
			c-0.3,0.6-0.2,1.8,0,2.3c0.2,0.5,0.7,0.7,0.7,0.7s-0.3-1.4,0.3-2c0.5-0.6,2-0.5,2.2,0.7c0.3,1.3-0.6,2.3-2,2.3
			c-1.4,0-2.3-0.9-2.5-2.2c0-0.2-0.1-0.3-0.1-0.5L162.5,144z M180.7,137.4c-0.9,0.9-2.7,2.6-4.2,3.3c-2.1,1-3.9,1.7-5.5,0.1
			s-1.6-4-1.2-5.4s2.3-1.6,3.6-1.2s1.3,2,0.8,3c-0.5,0.9-1.7,0.9-1.8,0.1c-0.1-0.8,0.1-1.1,0.5-1.2c0.1,0,0.1,0,0.2,0
			c-0.1-0.3-0.2-0.6-0.5-0.6c-0.6-0.1-1.4,0.6-1.4,1.5c0,1,0.6,1.7,1.7,1.8c1.1,0.1,2.6-1,2.7-2.6c0-1.5-0.1-2.8-1.6-3.1
			c-1.4-0.3-2.9-0.5-4.4,0.6s-1.9,2.2-1.7,4.2c0.3,2,1,3.3,2,4.2c1.1,0.9,2.5,1.1,4.1,1c1.6-0.2,3.2-1.5,4.6-2.9
			c0.7-0.7,1.4-1.4,2-2c0-0.2,0-0.4,0-0.6C180.7,137.6,180.7,137.5,180.7,137.4L180.7,137.4z M228.7,116.5c0.5-0.1,1.1-0.1,1.8,0.3
			c1.2,0.7,1.4,1.4,1.3,2.2c-0.1,0.5-0.4,0.8-0.8,1.2C230.7,119.4,229.9,117.6,228.7,116.5L228.7,116.5z M205.1,140.1
			c-0.1,0.5-0.1,1.1,0.3,1.8c0.7,1.2,1.4,1.4,2.2,1.3c0.5-0.1,0.8-0.4,1.2-0.8C208,142.1,206.2,141.3,205.1,140.1L205.1,140.1z"/>
		<path class="st0" d="M232.3,93c0,0,0.9-0.1,1.1-1.1s-0.5-2.2-1.3-2c-0.8,0.2-0.8,0.9-0.7,1.2c0.1,0.4,0.4,0.5,0.8,0.5
			c0.3,0,0.6-0.3,0.6-0.3s0.3,0.7-0.7,0.9c-0.9,0.1-1.8-0.7-1.6-2c0.2-1.4,1.4-1.3,2-1.4c0.6-0.1,0.9,0,0.9,0s-0.1,0.9,0.7,0.9
			c0.9,0,0.8-0.6,0.7-1c-0.1-0.4-0.8-0.7-0.8-0.7s0.7-0.6,0.7-2c-0.1-1.3-0.6-2.5-1.4-3.4c-0.8-0.9-2.2-1.9-2.2-1.9s2.1,0.6,2.6,1
			c0.5,0.4,0.5,1.3,0.5,1.3s0.2-0.4,0.2-0.8c0-0.4-0.2-0.6-0.2-0.6s0.3,0.2,0.6-0.2c0.2-0.4,0.2-0.6,0.2-0.6s-0.2-0.3-0.6-0.2
			c-0.4,0-0.5,0.4-0.5,0.4s0-0.4-0.2-0.7c-0.2-0.3-0.7-0.3-0.7-0.3s0.3,0.4,0.4,0.7s0.1,0.5,0.1,0.5s-0.7-0.4-1.4-0.7
			c-0.7-0.3-1.5-0.5-2-1.3c-0.5-0.7-0.8-2.1-0.8-2.1s0,1.5,0.3,2.4c0.3,0.8,0.6,0.9,0.3,1.4c-0.3,0.5-1,0.6-1,0.6s0.3,0.4,0.8,0.2
			c0.5-0.1,0.7-0.7,0.7-0.7s1.1,0.6,2.1,1.6s1.6,2.3,1.5,3.5c-0.1,1.2-1.2,1.8-2.3,1.8s-2.3-0.8-2.1-2c0.2-1.1,0.6-1.3,1.1-1.3
			c0.6,0,1.4,0.6,1.6,1.2c0.1,0.6-0.4,1.1-0.9,1c-0.5-0.1-0.4-0.7-0.2-0.8c0.1-0.2,0.4-0.3,0.4-0.3s-0.4-0.3-0.7,0.1
			c-0.3,0.3-0.4,1.1,0.3,1.4c0.7,0.3,1.5-0.1,1.6-0.6c0.1-0.5,0.1-1.4-0.5-2c-0.7-0.6-1.4-0.7-1.4-0.7s-0.2-0.5,0.1-0.7
			s0.9,0.1,0.9,0.1s-0.1-0.5-0.5-0.6s-0.7,0-0.7,0s0.1-0.2,0-0.5c-0.1-0.3-0.4-0.5-0.4-0.5s-0.4,0.4-0.5,0.7c-0.1,0.3,0,0.6,0,0.6
			s-0.2-0.2-0.5-0.1c-0.3,0.1-0.5,0.5-0.5,0.5s0.5,0,0.8,0.2s0.3,0.6,0.3,0.6s-1.1,0.4-1,1.8s1.3,2.2,1.3,2.2s-1.4,0.8-1.2,2.4
			s0.6,1.9,1.2,2.2c0.6,0.3,1,0.3,1,0.3s0.2,0.5-0.1,0.7c-0.3,0.2-0.8,0.2-0.8,0.2s0.6,0.4,1.2,0.2C232.5,93.9,232.3,93.1,232.3,93
			L232.3,93z M230.9,92.2c0,0-0.7-0.8-0.7-1.5c-0.1-0.7,0.2-1.5,0.8-1.9c0.6-0.4,2-0.8,2-0.8s-2.3,0-2.9,1.1
			C229.4,90.1,229.5,91.6,230.9,92.2z"/>
		<path class="st0" d="M219.5,19.4c0,0-1.2,0.2-1.5-0.4c-0.3-0.5,0.1-1.6,0.1-1.6s-0.3,0.1-0.8,0.1c0,0.6,0,1.6-0.1,2.3
			c-0.2,0.9-0.7,1.6-1.7,2.3c-0.9,0.7-2.8,1.2-3,1.2c-0.3-0.1-0.3,0.8,0.3,1.4c0.6,0.6,1.4,0.1,1.4,0.1c0,0-0.5,0.8,0.1,1.4
			s1.5,0.6,1.4,0.3c-0.1-0.3,0.5-2.1,1.2-3c0.7-0.9,1.3-1.4,2.3-1.7c0.6-0.2,1.7-0.1,2.3-0.1c0-0.5,0.1-0.8,0.1-0.8
			s-1.1,0.4-1.6,0.1C219.3,20.7,219.5,19.5,219.5,19.4z M162.5,6.3c-0.9,0.1-2.4,0.2-3,0.6c-1,0.6-1.9,1.4-1.9,1.4s-1.2,0.1-1.4-0.9
			c-0.1-1,0.1-1.3,0.3-1.4s0.5,0,0.5,0s-0.2,1,0.7,1s1.1-0.8,0.4-1.4c-0.7-0.6-2-1.2-2.7,0c-0.8,1.2-0.2,2.7-0.3,3.1
			c0,0.4,0.5-0.3,1.1,0.1c0.6,0.4,0.5,1.1,0.2,1.5c-0.3,0.4-1.4-0.2-1.4-0.2s0.6,1-0.5,2.1c-1.1,1.1-1.8,0.5-2.6,0.2
			c-0.8-0.4-1.1-1.1-0.9-2.1c0.2-1,1.4-0.6,1.4-0.6s-0.5,0.7-0.2,1.4c0.3,0.7,1.2,0.6,1.8-0.2c0.6-0.8,0-1.7-0.6-2.1
			c-0.6-0.3-1.6-0.4-2.3,0.1c-0.7,0.5-1.4,1.3-1.1,2.9c0.3,1.6,1.1,2.1,2.4,2.3c1.3,0.2,2.3-0.3,3-1c0.7-0.7,1.3-1.5,1.3-1.5
			s-0.3,1.6,1,3c1.3,1.4,4.3,1,4.3,1s-0.1,0.8,0.5,0.9c0.6,0.1,1-0.9,1.4-1.4c0.4-0.4,0.9-0.8,1.5-0.6s0.8,0.5,0.8,0.5
			s-1.6,0.3-1.4,1.3c0.2,0.9,1,1.6,1.8,1.2c0.8-0.5,1-2.4,0.1-3.5c-0.8-1.1-1.5-1-2.1-0.9c-0.6,0-1,0.2-1,0.2s0.7-2-0.6-2.9
			c-1.4-0.8-2.5-0.7-3.1,0.2c-0.6,1,0.4,2.1,0.4,2.1s-0.5-1.5,0.5-1.9c1-0.4,2.2-0.1,2.1,1.5c-0.1,1.5-1.4,2.4-3,2.1
			c-1.6-0.3-2.6-1.3-2.4-3.3c0.3-2,1.5-3.1,2.8-3.8c0.7-0.4,1.6-0.6,2.3-0.7c0,1,0.3,1.9,1.3,2.6c1.3,0.8,2.2,0.5,3.3-0.3
			c1.2-0.8,1.8-2.1,2.5-2.2c0.5-0.1,1.1,0.1,1.5,0.3c-1.2,0.4-2.1,0.9-2.9,2.6c-1,2.1-1.4,4-0.5,5.8s2.8,2.7,3.9,2.7
			c1.2,0,2-0.1,2-0.1s-1,1.3,0.2,1.4s2-1.2,3.2-1.8c1.2-0.5,2.7-0.5,3.1,0.9c0.5,1.4-0.2,2.2-0.9,2.4s-1.2,0-1.2-0.3
			c0-0.4,0.3-0.4,0.3-0.4s0.8,0.5,1,0.2c0.2-0.4,0.3-1.6-0.7-1.7c-1-0.1-1.4,0.5-1.5,1.6c-0.1,1.2,0.9,1.4,1.7,1.4
			c0.7,0.1,2.2-0.5,2-2.3c-0.1-1.8-0.8-2.3-2.1-2.7c-1.3-0.4-2.7-0.1-2.7-0.1s1-2,0.3-3.4c-0.7-1.4-2-2.6-3.5-2.4
			c-1.4,0.2-2.1,1.4-1.9,2.6c0.1,1.2,0.8,1.7,1.6,1.8c0.6,0.1,0.8-0.6,0.9-0.9c0.3,0,0.6,0,0.6,0s0,1.1-1,1.3
			c-1.1,0.2-1.9-0.3-2.3-1.4c-0.4-1.1-0.4-1.9,0.1-2.9c0.5-1,1.4-1.7,3-1.6s3,0.6,4.8,1.9c1,0.7,1.7,1.3,2.2,1.7
			c0.2,1.4,0.9,1.8,1.4,2.1c0.5,0.4,1,0.1,1,0.1s0.4,0.5,0.9,1.1c0.5,0.5,1.4,1,1.4,1s-1.4-0.1-2.6-0.3c-1.2-0.2-2.6-0.5-2.6-0.5
			s2.4,1.2,4.9,1.5c1.8,0.2,4.9,0.2,6.5,0.2c-0.1,0.3,0,0.6-0.2,0.8c-0.2,0.3-3.5-0.2-4.6,0.7c-1.2,0.8-0.4,1.9,0.6,2.1
			c1,0.1,1.1-0.5,1.1-0.9c0.1-0.3-0.6-0.2-0.8-0.3c-0.2-0.1,0.1-0.6,0.9-0.6c0.8-0.1,1.7,0.1,3.2,0.5c1.6,0.4,3-0.6,3.3-1.7
			c0.3-1-1-1.7-1-1.7s0.5-0.5,0.9-1.1c0.4-0.7,0.6-1.8,0.6-1.8s1.9,1.2,2.2,0s-2-1.2-2-1.2s0.1-0.6,0.1-1.6c-0.1-1-0.5-2.2-1.5-3.3
			c-1-1.2-2-1.4-3.1-1.3c-1.1,0.1-1.9,1.4-1.5,2.5s1.4,1.8,2.1,1.6c0.6-0.1,0.8-1.1,0.3-1.9c-0.5-0.7-1.4-0.4-1.4-0.4s0-0.9,1.2-1
			c1.2-0.1,2,0.9,2.6,2.3c0.6,1.4,0.6,3,0,4.3s-1.5,1.8-2.1,1.9c-0.6,0.1-1.9,0.2-2.5,0.1c-0.6-0.1-0.9-0.3-1-0.6
			c-0.1-0.3-0.1-1.1,0.3-1.4s0.9-0.1,0.9-0.1s-0.2,0.4-0.2,0.9c0,0.5,0,0.7,0.7,0.6c0.7-0.1,1.2-0.7,0.9-1.6
			c-0.3-0.9-1.2-0.8-1.7-0.4c-0.5,0.4-1.2,0.1-2-0.2c-0.7-0.4-1.6-0.5-2.4,0.1c-0.8,0.6-0.5,2,0.3,2.7c0.8,0.7,1.4-0.1,1.2-0.9
			c-0.2-0.8-1.2-0.7-1.2-0.7s0.5-0.6,1.3-0.6c0.8,0.1,1.1,0.9,1.1,0.9s-0.2,0.3-0.4,0.6c-0.2,0.3-0.2,1.3,0.4,1.6
			c0.6,0.3,1-0.5,1-0.5s0.6,0.3,1.5,0.4s2.1-0.1,2.1-0.1s-0.9,0.6-1.1,1.2c0,0,0,0.1,0,0.1c-1.3,0-3.4,0.1-4.8-0.3
			c-2.1-0.5-3.5-2.7-3.5-2.7s0.9-0.4,0.5-1.8c-0.4-1.3-1.6-1.6-1.4-3.4c0.2-1.4,0.9-2,1.6-2.1c0.1,0.1,0.2,0.3,0.3,0.3
			c0.8,0.7,1.8,0.5,2.2,0.3l0,0c0.1,0.3,0.3,1,0.3,1.6c0.1,0.9,0,1.5-1.1,1.9c-1,0.5-2,0-2.1-0.9c-0.1-0.8,0.3-1.6,0.9-1.7
			c0.6,0,0.5,0.5,0.5,0.5s-0.8,0.6-0.6,1.1c0.2,0.5,0.7,0.5,1.2,0.1c0.5-0.4,0.2-1.7-0.5-2.1c-0.7-0.4-1.5-0.2-2,1
			c-0.5,1.2,0.3,2.6,1.6,2.6c1.4,0,2.2-0.9,2.3-2c0-0.8-0.4-1.8-0.6-2.2c0.3-0.1,0.6-0.3,0.6-0.3s-0.1,0.7,0.1,1.5s1.4,1.3,1.4,1.3
			s-0.8-0.8-0.8-1.8s0-1.6,1.3-2.4c1.3-0.7,2.8-0.7,3.9-0.1c1.1,0.6,3.3,3.8,4.6,5s3.1,2.5,4.5,2.7c0.2,0,0.3,0,0.5,0.1l-0.1,0.3
			c-0.3,1.5-0.2,2.7-0.2,2.7s-0.9-2.1-2.8-1.7c-1.8,0.4-2.2,1.5-1.9,2.9c0.3,1.4,2,1.6,2.9,1.1c0.8-0.5,0.6-1.7,0.1-2.1
			s-1.4-0.3-1.6,0c-0.2,0.3,0,1,0.4,1c0.4-0.1,0.8-0.5,0.8-0.5s0.6,0.6,0,1.1c-0.6,0.5-1.4,0.5-1.8-0.1c-0.4-0.6-0.7-1.8,0.4-2.3
			s1.8-0.2,2.4,0.4s0.6,0.7,0.7,1.8c0,1.1,0.2,2.3,1.2,2.4s1.7-1,1.7-1s1.6,1.7,2.6,2.2c1.1,0.5,3.3,0.5,3.3,0.5s-0.3,1.1,0.2,1.6
			c0.5,0.5,1,0.7,1,0.7s-0.7,0.8-1.2,1.2s-1.1,0.4-1.1,0.4s0.1-1.3,0.1-1.8c-0.1-0.5-0.5-0.7-1.4-0.3c-0.9,0.4-1.6,1-2.5,0.5
			c-0.9-0.5-0.6-2.3-0.6-2.3s-0.9,1.8-0.2,2.6s1.7,1,2.4,1.1c0.6,0.1,1.1,0,1.2,0.4c0.1,0.4-0.8,1.1-1,2c-0.1,0.9,0.1,1.4,0.1,1.4
			s0.5,0.2,1.4,0.1c0.9-0.1,1.6-1,2-1c0.4,0.1,0.4,0.5,0.4,1.2c0.1,0.6,0.2,1.7,1.1,2.4c0.9,0.7,2.6-0.2,2.6-0.2s-1.8,0.3-2.3-0.6
			c-0.5-0.9,0.1-1.6,0.5-2.5s0.2-1.3-0.3-1.4c-0.5-0.1-1.8,0.1-1.8,0.1s0-0.5,0.4-1.1c0.4-0.6,1.2-1.2,1.2-1.2s0.1,0.5,0.7,1
			c0.5,0.5,1.6,0.2,1.6,0.2s0,2.3,0.5,3.3c0.5,1.1,2.2,2.6,2.2,2.6s-1,0.7-1,1.7c0.1,1,1.3,1.2,2.4,1.2c1.1,0,1.2,0.1,1.8,0.7
			c0.7,0.5,0.9,1.3,0.4,2.4c-0.5,1.1-1.8,0.8-2.3,0.4c-0.6-0.4-0.6-1.2-0.1-1.8c0.5-0.6,1.1,0,1.1,0s-0.3,0.3-0.5,0.8s0.7,0.6,1,0.4
			s0.4-1.1,0-1.6c-0.4-0.5-1.6-0.7-2.1,0.1c-0.5,0.8-0.3,2.5,1.1,2.9c1.4,0.3,2.5-0.1,2.9-1.9c0.4-1.8-1.7-2.8-1.7-2.8
			s1.3,0.1,2.7-0.2l0.3-0.1c0,0.1,0,0.3,0.1,0.5c0.2,1.4,1.4,3.1,2.7,4.5c1.3,1.4,4.4,3.5,5,4.6c0.6,1.1,0.7,2.6-0.1,3.9
			c-0.7,1.3-1.4,1.3-2.4,1.3s-1.8-0.8-1.8-0.8s0.5,1.1,1.3,1.4c0.8,0.2,1.5,0.1,1.5,0.1s-0.2,0.3-0.4,0.8c-0.1,0.5-0.3,1.5,0.3,2.2
			c0.7,0.8,2.7,0.9,3.5,0.6c0.8-0.3,1.2-1.4,0.7-2c-0.4-0.6-1-0.8-1.6-0.5s-0.6,1.3-0.6,1.3s-0.4,0.2-0.8,0.1
			c-0.5-0.1-1.2,0-1.1-1.2c0.1-1.2,0.7-1.3,0.7-1.3s-0.1,0.4-0.1,0.8c0.1,0.5,0.7,0.6,1.4,0s1-1.4,0.9-2c-0.1-0.5-0.9-0.3-0.9-0.3
			s0.7-0.9,0.9-2.6c0.2-1.7-0.6-3.1-0.6-3.1s1.3-0.1,1.7-1c0.4-1-0.1-1.9-0.1-1.9s-0.1,1-0.5,1.6c-0.3,0.6-0.9,0.7-1.5,0.4
			c-0.6-0.2-0.4-0.6-1-1.3s-1.6-0.8-1.6-0.8s1.5-0.5,1.9-1.6c0.4-1.1,0.6-1.8-0.4-3c-1-1.2-2.5-0.3-2.5-0.3s1.5,0,1.8,1.5
			c0.3,1.5-0.6,2.5-2.4,2.2c-1.9-0.3-2.5-1.8-3.2-3.5c-0.1-0.3-0.2-0.5-0.2-0.9c1-0.2,1.8-0.5,3.2-1.4c0.8,0.5,1.7,0.4,3,0.1
			c1.8-0.4,3-2.9,2.9-3.2c-0.1-0.3-0.5-0.1-0.9-0.3s-0.5-0.3-0.5-1c0.1-0.7,0.8-0.3,1.5-0.9c0.7-0.6,0.8-1.8,0.4-2.7
			c-0.4-1-1.5-1.1-2.2-0.9c-0.6,0.2-1.1,1.4-0.6,1.8c0.5,0.5,1.2,0.4,1.4-0.2c0.2-0.6-0.5-0.9-0.5-0.9s0.6-0.1,1,0.4
			c0.4,0.5,0.3,1.5-0.5,1.8c-0.8,0.3-1.6,0.2-2.2-0.8c-0.6-1-0.6-2-0.6-2s-0.2,0.4-0.2,1.1s0,1.3,0.4,2.4c0.1,0.3,0.2,0.5,0.4,0.7
			c-0.3,0.5-0.8,1.4-1.4,2.3c-0.4,0.6-0.9,1.1-1.3,1.5c-0.1-0.1-0.3-0.2-0.4-0.4c-0.8-0.8-0.4-2.1-0.4-2.1s0.5,0.6,1,0.6
			c0.5,0,0.7-0.7,0.5-1.1c-0.2-0.5-1.2-1-1.9-0.3c-0.7,0.7-0.7,2.5,0.3,3.6c0.1,0.1,0.1,0.2,0.2,0.2c-0.6,0.4-1.2,0.7-1.9,1
			c-0.3,0.1-0.6,0.2-0.9,0.2c-0.1-1.4,0.4-2.7,0.4-2.7s-0.5,0.7-0.6,1.3c-0.1,0.4-0.2,0.8-0.2,1.5c-1.1,0.1-2.4,0-3.6-0.5
			c-1.7-0.7-2.9-2-3.9-3.8c-1-1.9-0.4-3.6-0.4-3.6s0.6,2,1.2,2.8c0.5,0.9,1.5,0.6,1.5,0.6s-0.5,0.3-0.7,0.6s-0.1,0.8,0.5,0.9
			c0.6,0.1,1-0.5,0.8-1.4c-0.3-0.8-1.1-1.2-1.9-2c-0.8-0.8-1-2-0.9-3.3c0.2-1.4,0.9-2.2,2-2.9c0.8-0.5,1.9-0.8,2.6-0.9
			c0,0.1,0,0.1,0,0.2c0,0.6,0.1,1.3,0.1,1.3l-1.5-0.1c0,0,0,0.5,0.5,1.2c0.5,0.7,1.5,1.3,2.5,1.9s1.8,1.6,1.6,2.7
			c-0.2,1.2-1,1.8-2.2,1.9c-1.2,0.1-1.9-0.6-2.1-1.4c-0.2-0.7,0-1.4,0.9-1.8c0.8-0.3,1.2,0.1,1.2,0.1s-1.2,0.6-1,1.4
			c0.3,0.8,1.4,0.6,1.8-0.2c0.4-0.8-0.3-1.8-1.3-1.9c-1.1-0.1-2.2,0.8-2.2,1.9c0,1.1,0.6,1.8,2,2.2c1.4,0.4,2.6-0.3,3.1-1
			c0.5-0.7,0.7-1.9,0.3-2.9c-0.3-1-2.1-2.5-2.1-2.5s0.7-0.3,1.2-0.2c0.6,0.1,1,0.5,1,0.5s-0.4-1.2-1.2-1.6c-0.8-0.3-2,0.2-2,0.2
			s0.4-0.7,0.7-1.1c0.4-0.3,0.9-0.6,1.1-0.4s1.4,1.3,2.7,2.2s2.4,1,2.8,0.7c0.4-0.3,0.1-1,0.7-1.1c0.5,0,0.5,0.6,0.9,0.9
			c0.3,0.2,1,0.1,1.6-0.3s1.4-1.2,1.7-2.2c0.2-1,0-2.1-0.3-2.7c-0.2-0.7-0.1-1-0.1-1s0.6-0.9,0.3-1.2s-1-0.8-1.3-1.1
			c-0.3-0.3-0.2-0.7,0.3-1c0.5-0.3,0.6,0,0.6,0s-0.3,0.6,0,0.7c0.3,0.1,0.7,0.2,0.8-0.3c0.1-0.5-0.1-0.9-0.5-1.1
			c-0.4-0.1-1.1-0.1-1.6,0.4c-0.5,0.5-0.3,1.2-0.3,1.2s-0.7,0-1.2-0.3c-0.5-0.3-0.9-0.6-0.9-0.6v0.7c0,0-0.7-0.5-1.2-0.5
			c-0.5-0.1-1.7,0.1-2.2,0.4c-0.5,0.3-0.4,0.9-0.4,1.1c0,0.2-0.1,0-0.4,0.1c-0.3,0-0.6,0.3-0.8,1.2s-0.1,1.7,0.7,2.2s1.6,0.3,2-0.3
			c0.5-0.6,0.2-1.4,0.2-1.4s-0.1,0.5-0.3,0.7c-0.1,0.3-0.3,0.5-1,0.6c-0.7,0-1.1-0.3-1.3-1.1c-0.1-0.7,0-1,0.4-1.3
			c0.3-0.4,0.6-0.2,0.8-0.4c0.2-0.3,0.1-0.3,0.4-0.7s2-0.6,2.8,0.2c0.8,0.8,0.8,2.1,0.5,3.3c-0.3,1.2-1.1,1.3-1.5,1.7
			c-0.4,0.4-0.5,1-0.2,1.2s0.5,0.1,1.2-0.5c0.7-0.5,1.4-1.2,1.5-2.8c0.1-1.6-0.7-3.1-0.7-3.1s0.5,0.1,1,0.3c0.5,0.3,0.6,0.5,0.8,1
			s0.2,1,0.3,1.3c0.2,0.3,0.5-0.1,0.5-0.1s0.2,0.8,0.2,2.1c0,1.3-0.9,2.6-1.7,2.9c-0.7,0.3-0.7-0.3-1-0.7c-0.3-0.3-0.8-0.5-1.4-0.3
			c-0.6,0.1-1,0.8-1.2,1c-0.2,0.2-0.8-0.1-1.6-0.6c-0.8-0.5-1.6-1.4-1.6-1.4s0.3,0.1,1,0.1c0.7,0,1.4,0,2-0.3s1.2-1.2,1.3-1.9
			c0.1-0.7,0-1.4-0.3-2c-0.3-0.6-0.6-0.9-1.2-0.9c-0.7,0-1,0.2-1.4,0.7c-0.3,0.5-0.2,1.2,0.1,1.4c0.3,0.3,0.8-0.2,0.8-0.6
			c0-0.4-0.3-0.5-0.3-0.5s-0.1-0.2,0.1-0.3c0.2-0.1,0.4-0.1,0.7,0.2c0.3,0.2,0.6,0.7,0.5,1.4c-0.1,0.7-0.3,1.2-0.8,1.5
			c-0.4,0.3-1.3,0.4-2.6,0.4c-1.3,0-2.3-0.2-2.6-0.8c-0.3-0.6-0.4-1.3-0.4-1.3s1-0.1,1.6-0.7c0.5-0.6,0.7-1.4,0.7-1.4
			s-0.3-0.1-0.6-0.2c-0.3,0-0.9,0-0.9,0s0.4-0.8,0.9-1.3c0.4-0.5,1.2-1.1,1.2-1.1s0,0.5,0.1,1.1c0.2,0.6,0.8,0.8,0.8,0.8
			s-0.3-0.7-0.3-1.4c0-0.7,0.2-1.3,0.9-2.4c0.7-1.1,2.2-1.9,2.2-1.9s-0.1,1.2,0,2.2c0.1,1,0.8,1.9,0.8,1.9s-0.2-1.6-0.3-2.6
			s0.1-1.9,0.9-2.3s1.5-0.3,1.9,0.1c0.4,0.3,0.6,0.9,0.5,1.4c-0.1,0.5-0.8,0.5-0.8,0.5s-0.1-0.3-0.2-0.5c-0.2-0.2-0.4-0.3-0.7-0.1
			c-0.4,0.1-0.4,0.7-0.2,1c0.2,0.3,1,1,2,0.4c1-0.6,1-1.7,0.8-2.5s-0.9-1.3-1-2c-0.2-0.7-0.1-1,0.2-1.5c0.3-0.4,0.7-0.6,1-0.7
			c0.3,0,0.8,0.3,0.8,0.7s-0.5,0.5-0.5,0.5s0.1-0.5-0.1-0.7c-0.2-0.1-0.5-0.1-0.6,0.2c-0.1,0.3,0,1,0.5,1.2c0.5,0.3,1.2,0.1,1.5-0.6
			s-0.1-1.6-0.8-1.9c-0.7-0.3-1.3,0.2-1.3,0.1c-0.1-0.1,0.4-0.6,0.1-1.3s-1.1-1.1-1.9-0.8s-0.9,1.1-0.6,1.5s1,0.6,1.2,0.5
			c0.3-0.1,0.3-0.4,0.2-0.6s-0.7-0.1-0.7-0.1s0.2-0.5,0.5-0.5s0.7,0.5,0.7,0.8c0,0.3-0.2,0.7-0.7,1c-0.4,0.3-0.7,0.4-1.5,0.2
			c-0.7-0.2-1.2-0.8-2-1c-0.8-0.2-1.8-0.2-2.5,0.8c-0.6,1,0.1,1.9,0.4,2c0.3,0.2,0.9,0.1,1-0.2c0.1-0.4,0.1-0.6-0.1-0.7
			c-0.2-0.2-0.5-0.2-0.5-0.2s0-0.6,0.5-0.8s1.1,0.1,1.4,0.5c0.3,0.4,0.5,1,0.1,1.9c-0.4,0.8-1.3,0.9-2.3,0.9c-1,0-2.6-0.3-2.6-0.3
			s0.9,0.7,1.9,0.8c1,0.1,2.2,0,2.2,0s-0.8,1.5-1.9,2.2s-1.7,0.9-2.4,0.9c-0.7,0-1.4-0.3-1.4-0.3s0.2,0.7,0.8,0.8
			c0.6,0.2,1.1,0.1,1.1,0.1s-0.6,0.8-1.1,1.2c-0.5,0.4-1.3,0.9-1.3,0.9s0-0.5,0-0.9c0-0.3-0.2-0.6-0.2-0.6s-0.8,0.1-1.4,0.7
			c-0.6,0.5-0.7,1.6-0.7,1.6s-0.8,0-1.3-0.4c-0.6-0.3-0.8-1.3-0.8-2.6s0-2.2,0.4-2.6c0.3-0.4,0.8-0.7,1.5-0.8
			c0.7-0.1,1.2,0.2,1.4,0.5c0.2,0.3,0.3,0.6,0.2,0.7c-0.1,0.2-0.3,0.1-0.3,0.1s-0.1-0.3-0.5-0.3c-0.4,0-0.8,0.5-0.6,0.8
			c0.3,0.3,1,0.5,1.4,0.1c0.5-0.3,0.7-0.7,0.7-1.4c0-0.7-0.3-0.9-0.9-1.2c-0.6-0.3-1.4-0.4-2-0.3c-0.7,0.1-1.6,0.7-1.9,1.3
			c-0.3,0.6-0.3,1.4-0.3,2c0,0.7,0.1,1,0.1,1s-0.9-0.9-1.4-1.6c-0.5-0.8-0.8-1.4-0.6-1.6c0.2-0.2,0.8-0.6,1-1.2
			c0.1-0.6,0-1.1-0.3-1.4c-0.3-0.3-1-0.2-0.7-1c0.3-0.7,1.6-1.6,2.9-1.7c1.3,0,2.1,0.2,2.1,0.2s-0.3,0.3-0.1,0.5
			c0.3,0.2,0.7,0.1,1.3,0.3c0.5,0.2,0.8,0.4,1,0.8c0.3,0.5,0.3,1,0.3,1s-1.4-0.8-3.1-0.7c-1.6,0.1-2.3,0.8-2.8,1.5
			c-0.5,0.7-0.7,0.9-0.5,1.2s0.8,0.2,1.2-0.2c0.4-0.4,0.5-1.2,1.7-1.5c1.2-0.3,2.5-0.3,3.3,0.5s0.6,2.5,0.2,2.8s-0.5,0.2-0.7,0.4
			c-0.3,0.2-0.1,0.5-0.4,0.8c-0.4,0.3-0.6,0.5-1.3,0.4c-0.7-0.1-1.1-0.6-1.1-1.3c0-0.7,0.3-0.8,0.6-1s0.7-0.3,0.7-0.3
			s-0.9-0.3-1.4,0.2c-0.6,0.5-0.7,1.2-0.3,2c0.5,0.8,1.3,0.9,2.2,0.7c0.9-0.2,1.2-0.5,1.2-0.8c0-0.3-0.1-0.4,0.1-0.4
			c0.2,0,0.8,0.1,1.1-0.4s0.5-1.6,0.4-2.2c-0.1-0.5-0.5-1.2-0.5-1.2h0.7c0,0-0.3-0.4-0.6-0.9c-0.3-0.5-0.3-1.2-0.3-1.2
			s0.7,0.2,1.2-0.3s0.5-1.2,0.4-1.6c-0.1-0.4-0.6-0.6-1.1-0.5c-0.5,0.1-0.5,0.5-0.3,0.8c0.1,0.3,0.7,0,0.7,0s0.3,0.2,0,0.6
			s-0.7,0.5-1,0.3c-0.3-0.3-0.7-1-1.1-1.3S220.3,5,220.3,5s-0.4,0.1-1-0.1c-0.7-0.2-1.8-0.5-2.7-0.3c-1,0.2-1.8,1-2.2,1.7
			s-0.5,1.3-0.3,1.6c0.2,0.3,0.9,0.4,0.9,0.9c0,0.5-0.8,0.3-1.1,0.7c-0.3,0.4-0.2,1.5,0.7,2.8s2,2.6,2.2,2.7
			c0.2,0.2-0.1,0.7-0.4,1.1c-0.3,0.4-1.1,0.7-1.1,0.7s0.5-1.1,0.2-2c-0.3-0.8-1.6-1.2-1.6-1.2s0.3,0.5,0.5,1s-0.2,1.2-0.2,1.2
			s-1.5-1.8-2.5-2.1s-2.1-0.2-2.9,0.3c-0.7,0.5-1.4,1.6-1,3.1s1.1,2,2.2,2c1.1,0,2-1.2,1.9-2.2c-0.1-1.1-1.1-1.7-1.9-1.3
			c-0.8,0.4-1,1.5-0.2,1.8c0.8,0.3,1.4-1,1.4-1s0.5,0.4,0.1,1.2c-0.3,0.8-1,1-1.8,0.9c-0.7-0.2-1.4-1-1.4-2.1c0.1-1.2,0.7-2,1.9-2.2
			c1.2-0.2,2.1,0.6,2.7,1.6s1.2,1.9,1.9,2.5c0.7,0.5,1.2,0.5,1.2,0.5l-0.1-1.5c0,0,0.6,0,1.3,0.1c0.1,0,0.1,0,0.2,0
			c-0.1,0.7-0.4,1.8-0.9,2.6c-0.7,1.1-1.6,1.8-2.9,2c-1.4,0.2-2.5-0.1-3.3-0.9c-0.8-0.8-1.2-1.7-2-1.9c-0.8-0.3-1.5,0.2-1.4,0.8
			c0.1,0.6,0.6,0.7,0.9,0.5c0.3-0.2,0.6-0.7,0.6-0.7s-0.3,1,0.6,1.5c0.9,0.5,2.8,1.2,2.8,1.2s-1.8,0.6-3.6-0.4s-3.1-2.2-3.8-3.9
			c-0.5-1.2-0.7-2.4-0.5-3.6c0.7,0,1-0.1,1.5-0.2c0.6-0.1,1.3-0.6,1.3-0.6s-1.3,0.4-2.7,0.4c0.1-0.3,0.1-0.6,0.2-0.9
			c0.2-0.7,0.5-1.3,1-1.9c0.1,0.1,0.1,0.1,0.2,0.2c1.1,1,2.9,1,3.6,0.3s0.2-1.7-0.3-1.9s-1.1,0-1.1,0.5c0,0.5,0.6,1,0.6,1
			s-1.3,0.4-2.1-0.4c-0.1-0.1-0.3-0.3-0.4-0.4c0.4-0.4,0.9-0.9,1.5-1.3c0.9-0.7,1.8-1.1,2.3-1.4c0.2,0.1,0.4,0.3,0.7,0.4
			c1.1,0.4,1.6,0.4,2.4,0.4c0.7,0,1.1-0.2,1.1-0.2s-1,0-2-0.6c-1-0.6-1.1-1.4-0.8-2.2c0.3-0.8,1.3-0.9,1.8-0.5c0.5,0.4,0.4,1,0.4,1
			s-0.3-0.7-0.9-0.5c-0.6,0.2-0.6,0.9-0.2,1.4c0.5,0.5,1.6,0,1.8-0.6s0.1-1.8-0.9-2.2c-1-0.4-2.1-0.3-2.7,0.4
			c-0.6,0.7-0.2,1.4-0.9,1.5c-0.7,0.1-0.9-0.1-1-0.5c-0.2-0.4,0-0.8-0.3-0.9s-2.7,1.2-3.2,2.9c-0.3,1.3-0.4,2.2,0.1,3
			c-1,1.4-1.2,2.2-1.4,3.2c-0.3-0.1-0.6-0.1-0.9-0.2c-1.7-0.7-3.2-1.4-3.5-3.2c-0.3-1.9,0.7-2.7,2.2-2.4c1.5,0.3,1.5,1.8,1.5,1.8
			s0.9-1.5-0.3-2.5c-1.2-1-1.9-0.8-3-0.4s-1.6,1.9-1.6,1.9s0-1-0.8-1.6c-0.8-0.6-1.1-0.4-1.3-1s-0.2-1.2,0.4-1.5
			c0.6-0.3,1.6-0.5,1.6-0.5s-0.9-0.5-1.9-0.1s-1,1.7-1,1.7s-1.4-0.8-3.1-0.6c-1.7,0.2-2.6,0.9-2.6,0.9s0.2-0.7-0.3-0.9
			c-0.5-0.1-1.4,0.3-2,0.9s-0.5,1.3,0,1.4c0.5,0.1,0.8-0.1,0.8-0.1s-0.1,0.6-1.3,0.7s-1.1-0.6-1.2-1.1s0.1-0.8,0.1-0.8
			s1-0.1,1.3-0.6c0.3-0.6,0.1-1.2-0.5-1.6s-1.7,0-2,0.7c-0.2,0.6-0.2,1.8,0.1,2.7c-0.5,0.1-1.3,0.3-2.1,0.9
			c-0.8,0.7-1.1,1.6-1.2,2.7c-1-1.2-3.2-3.7-4.4-4.1c-0.9-0.3-1.6-0.5-2.4-0.6c0.1-0.4,0.3-1,0-1.7c-0.5-1-2.1-1.4-3.7-0.1
			s-2.8,3.4-4,3.7c-1.2,0.4-2-0.3-2.3-0.8s-0.2-1.8,0-2.3c0.2-0.5,0.7-0.7,0.7-0.7s-0.3,1.4,0.3,2c0.5,0.6,2,0.5,2.2-0.7
			c0.3-1.3-0.6-2.3-2-2.3c-1.4,0-2.3,0.9-2.5,2.2c0,0.2-0.1,0.3-0.1,0.5L162.5,6.3z M180.7,12.9c-0.9-0.9-2.7-2.6-4.2-3.3
			c-2.1-1-3.9-1.7-5.5-0.1s-1.6,4-1.2,5.4s2.3,1.6,3.6,1.2s1.3-2,0.8-3c-0.5-0.9-1.7-0.9-1.8-0.1c-0.1,0.8,0.1,1.1,0.5,1.2
			c0.1,0,0.1,0,0.2,0c-0.1,0.3-0.2,0.6-0.5,0.6c-0.6,0.1-1.4-0.6-1.4-1.5c0-1,0.6-1.7,1.7-1.8c1.1-0.1,2.6,1,2.7,2.6
			c0,1.5-0.1,2.8-1.6,3.1c-1.4,0.3-2.9,0.5-4.4-0.6s-1.9-2.2-1.7-4.2c0.3-2,1-3.3,2-4.2c1.1-0.9,2.5-1.1,4.1-1
			c1.6,0.2,3.2,1.5,4.6,2.9c0.7,0.7,1.4,1.4,2,2c0,0.2,0,0.4,0,0.6C180.7,12.7,180.7,12.8,180.7,12.9L180.7,12.9z M228.7,33.8
			c0.5,0.1,1.1,0.1,1.8-0.3c1.2-0.7,1.4-1.4,1.3-2.2c-0.1-0.5-0.4-0.8-0.8-1.2C230.7,30.9,229.9,32.7,228.7,33.8L228.7,33.8z
			 M205.1,10.2c-0.1-0.5-0.1-1.1,0.3-1.8c0.7-1.2,1.4-1.4,2.2-1.3c0.5,0.1,0.8,0.4,1.2,0.8C208,8.2,206.2,9,205.1,10.2L205.1,10.2z"
			/>
		<path class="st0" d="M232.3,57.3c0,0,0.9,0.1,1.1,1.1c0.2,1.1-0.5,2.2-1.3,2c-0.8-0.2-0.8-0.9-0.7-1.2c0.1-0.4,0.4-0.5,0.8-0.5
			c0.3,0,0.6,0.3,0.6,0.3s0.3-0.7-0.7-0.9c-0.9-0.1-1.8,0.7-1.6,2c0.2,1.4,1.4,1.3,2,1.4c0.6,0.1,0.9,0,0.9,0s-0.1-0.9,0.7-0.9
			c0.9,0,0.8,0.6,0.7,1c-0.1,0.4-0.8,0.7-0.8,0.7s0.7,0.6,0.7,2c-0.1,1.3-0.6,2.5-1.4,3.4c-0.8,0.9-2.2,1.9-2.2,1.9s2.1-0.6,2.6-1
			c0.5-0.4,0.5-1.3,0.5-1.3s0.2,0.4,0.2,0.8c0,0.4-0.2,0.6-0.2,0.6s0.3-0.2,0.6,0.2c0.2,0.4,0.2,0.6,0.2,0.6s-0.2,0.3-0.6,0.2
			c-0.4,0-0.5-0.4-0.5-0.4s0,0.4-0.2,0.7c-0.2,0.3-0.7,0.3-0.7,0.3s0.3-0.4,0.4-0.7s0.1-0.5,0.1-0.5s-0.7,0.4-1.4,0.7
			c-0.7,0.3-1.5,0.5-2,1.3c-0.5,0.7-0.8,2.1-0.8,2.1s0-1.5,0.3-2.4c0.3-0.8,0.6-0.9,0.3-1.4c-0.3-0.5-1-0.6-1-0.6s0.3-0.4,0.8-0.2
			s0.7,0.7,0.7,0.7s1.1-0.6,2.1-1.6c1-1,1.6-2.3,1.5-3.5c-0.1-1.2-1.2-1.8-2.3-1.8c-1.1,0.1-2.3,0.8-2.1,2c0.2,1.1,0.6,1.3,1.1,1.3
			c0.6,0,1.4-0.6,1.6-1.2c0.1-0.6-0.4-1.1-0.9-1s-0.4,0.7-0.2,0.8c0.1,0.2,0.4,0.3,0.4,0.3s-0.4,0.3-0.7-0.1
			c-0.3-0.3-0.4-1.1,0.3-1.4c0.7-0.3,1.5,0.1,1.6,0.6c0.1,0.5,0.1,1.4-0.5,2c-0.7,0.6-1.4,0.7-1.4,0.7s-0.2,0.5,0.1,0.7
			c0.3,0.1,0.9-0.1,0.9-0.1s-0.1,0.5-0.5,0.6c-0.4,0.1-0.7,0-0.7,0s0.1,0.2,0,0.5c-0.1,0.3-0.4,0.5-0.4,0.5s-0.4-0.4-0.5-0.7
			c-0.1-0.3,0-0.6,0-0.6s-0.2,0.2-0.5,0.1s-0.5-0.5-0.5-0.5s0.5,0,0.8-0.2s0.3-0.6,0.3-0.6s-1.1-0.4-1-1.8s1.3-2.2,1.3-2.2
			s-1.4-0.8-1.2-2.4c0.2-1.7,0.6-1.9,1.2-2.2c0.6-0.3,1-0.3,1-0.3s0.2-0.5-0.1-0.7c-0.3-0.2-0.8-0.2-0.8-0.2s0.6-0.4,1.2-0.2
			C232.5,56.4,232.3,57.2,232.3,57.3L232.3,57.3z M230.9,58.1c0,0-0.7,0.8-0.7,1.5c-0.1,0.7,0.2,1.5,0.8,1.9c0.6,0.4,2,0.8,2,0.8
			s-2.3,0-2.9-1.1C229.4,60.2,229.5,58.7,230.9,58.1z"/>
	</g>
</g>
</svg>
