<?xml version="1.0" encoding="utf-8"?>
<!-- Generator: Adobe Illustrator 24.0.2, SVG Export Plug-In . SVG Version: 6.00 Build 0)  -->
<svg version="1.1"
	 id="Слой_1" image-rendering="optimizeQuality" shape-rendering="geometricPrecision" text-rendering="geometricPrecision" xmlns:xodm="http://www.corel.com/coreldraw/odm/2003"
	 xmlns="http://www.w3.org/2000/svg" xmlns:xlink="http://www.w3.org/1999/xlink" x="0px" y="0px" viewBox="0 0 238.1 150.2"
	 style="enable-background:new 0 0 238.1 150.2;" xml:space="preserve">
<g id="Layer_x0020_1">
	<g id="_105553218950496">
		<path class="fillable" d="M10.6,17.1c0,12.5,0,14.2,0.4,14.2c0.3,0,0.4-1.7,0.4-14.2s0-14.2-0.4-14.2C10.6,2.8,10.6,4.6,10.6,17.1z"/>
		<path class="fillable" d="M18.3,16.9v14.1l-7.4,7.3c-4.7,4.7-7.3,7.4-7.3,7.8c0,0.3,2.3-1.8,7.6-7.1l7.6-7.6V17.1c0-9.4-0.1-14.2-0.2-14.2
			S18.3,7.7,18.3,16.9L18.3,16.9z"/>
		<path class="fillable" d="M25.7,24.3v21.6L22,49.6l-3.7,3.7v22.6v22.6l-0.7,0.4c-2,1.1-1.4,4.2,1,4.2s3-3.1,1-4.2l-0.7-0.4V76.2V53.8l3.9-3.9
			l3.9-3.9V24.4c0-19.1,0-21.6-0.4-21.6C25.8,2.8,25.7,5.3,25.7,24.3L25.7,24.3z M19.7,99.7c0.7,0.8,0.6,1.7-0.1,2.3
			c-0.4,0.3-0.8,0.5-1.1,0.5c-0.7,0-1.6-1-1.6-1.6C16.8,99.4,18.7,98.7,19.7,99.7z"/>
		<path class="fillable" d="M33.3,17.1c0,9.3,0.1,14.2,0.2,14.2c0.2,0,0.2-4.8,0.2-14.2c0-9.3-0.1-14.2-0.2-14.2S33.3,7.8,33.3,17.1z"/>
		<path class="fillable" d="M40.8,9.4v6.5l-0.6,0.2c-0.6,0.2-1.4,1.4-1.4,2c0,0.8,0.7,1.7,1.5,2c1.3,0.5,2.7-0.2,3-1.6c0.2-0.9-0.5-2.2-1.3-2.5
			l-0.6-0.2V9.4c0-5.7,0-6.6-0.4-6.6S40.8,3.7,40.8,9.4L40.8,9.4z M41.8,16.7c0.7,0.4,0.9,0.7,0.9,1.6c0,1-0.6,1.6-1.6,1.6
			s-1.6-0.6-1.6-1.6c0-0.9,0.2-1.2,0.9-1.6C41,16.4,41.2,16.4,41.8,16.7L41.8,16.7z"/>
		<path class="fillable" d="M48.4,13v10.2l-7.6,7.6l-7.6,7.6v11.3c0,6.8-0.1,11.4-0.2,11.4s-0.6,0.3-1,0.6c-0.6,0.5-0.8,0.8-0.8,1.6
			c0,1.4,0.9,2.2,2.1,2.2c1.4,0,2.1-0.9,2.1-2.2c0-0.7-0.1-1.1-0.8-1.6c-0.4-0.3-0.8-0.6-0.9-0.6c-0.1,0-0.2-5-0.1-11.2V38.6
			l7.5-7.5l7.5-7.5V13.3c0-6.8-0.1-10.5-0.2-10.5C48.5,2.8,48.4,6.4,48.4,13L48.4,13z M34.9,62.3c0.9,1.1,0.1,2.6-1.3,2.6
			c-0.9,0-1.6-0.8-1.6-1.5C31.9,61.7,33.7,61.1,34.9,62.3z"/>
		<path class="fillable" d="M55.8,35.7v32.9l-3.7,3.8L48.4,76v7.6c0,4.5-0.1,7.6-0.2,7.6s-0.6,0.3-1,0.6c-0.6,0.5-0.8,0.8-0.8,1.6
			c0,1.4,0.9,2.2,2.1,2.2c1.4,0,2.1-0.9,2.1-2.2c0-0.8-0.1-1.1-0.9-1.6L49,90.9v-7.4v-7.4l3.7-3.7l3.7-3.7v-33
			c0-29.2,0-33.1-0.4-33.1C55.9,2.8,55.8,6.6,55.8,35.7z M49.9,92.4c0.9,1.1,0.1,2.6-1.3,2.6c-0.9,0-1.6-0.8-1.6-1.5
			C47,91.9,48.8,91.1,49.9,92.4z"/>
		<path class="fillable" d="M63.6,17.1c0,11.2,0.1,14.2,0.3,14.2c0.2-0.1,0.3-1.6,0.3-6.4C64,8.1,64,2.8,63.8,2.8C63.6,2.8,63.6,7.8,63.6,17.1z"/>
		<path class="fillable" d="M70.9,9.3v6.5l-0.8,0.5c-1,0.6-1.4,1.7-0.9,2.7c0.3,0.8,1.3,1.5,2,1.5c0.8,0,1.7-0.7,2-1.5c0.4-1.1,0.1-2.1-0.9-2.7
			l-0.8-0.5V9.3c0-5.6,0-6.5-0.4-6.5C71,2.8,70.9,3.7,70.9,9.3z M72.2,17c1.2,1,0.6,2.8-0.9,2.8c-1.6,0-2.2-1.8-1-2.8
			c0.4-0.3,0.8-0.5,1-0.5C71.5,16.5,71.9,16.7,72.2,17z"/>
		<path class="fillable" d="M76.6,3.4c0,0.3,0.3,0.9,0.6,1.3c0.5,0.5,0.8,0.7,1.6,0.7s1.2-0.1,1.6-0.7c0.3-0.4,0.6-1,0.6-1.3c0-0.8-0.3-0.7-0.6,0.2
			c-0.2,0.5-0.5,0.9-0.9,1c-1,0.4-1.9-0.1-2.2-1C77,2.7,76.6,2.6,76.6,3.4L76.6,3.4z"/>
		<path class="fillable" d="M86.1,17.1c0,9.3,0.1,14.2,0.3,14.2c0.2,0,0.3-4.9,0.3-14.2c0-12.6,0-14.2-0.3-14.2C86.1,2.8,86.1,4.5,86.1,17.1z"/>
		<path class="fillable" d="M93.7,11.4v8.6l-0.6,0.2c-1.4,0.5-1.8,2.5-0.9,3.5c1.4,1.5,3.9,0.6,3.9-1.5c0-1-0.8-2.1-1.4-2.1c-0.3,0-0.3-1.4-0.3-8.7
			c0-7.6,0-8.7-0.4-8.7S93.7,4,93.7,11.4z M95.2,21.2c0.3,0.3,0.5,0.8,0.5,1.1c0,0.8-1,1.7-1.6,1.7c-0.7,0-1.6-1.1-1.6-1.7
			c0-0.8,0.8-1.6,1.6-1.6C94.3,20.7,94.9,20.9,95.2,21.2z"/>
		<path class="fillable" d="M101.1,13.3v10.5l3.9,3.8l3.9,3.8v4.3c0,2.3,0.1,4.3,0.2,4.3c0.3,0,0.5-2.1,0.5-5.7v-3.2l-3.9-3.9l-3.9-3.9V13
			c0-8.9,0-10.2-0.4-10.2C101.2,2.8,101.1,4.2,101.1,13.3L101.1,13.3z"/>
		<path class="fillable" d="M108.7,9.5c0,5.2,0.1,6.7,0.3,6.6s0.3-1.6,0.4-6.7c0-5.8,0-6.6-0.3-6.6C108.8,2.8,108.7,3.7,108.7,9.5z"/>
		<path class="fillable" d="M116.2,9.3v6.5l-3.8,3.7c-2.4,2.4-3.7,3.9-3.6,4.1c0.1,0.2,1.5-1,4.1-3.6l4-3.9V9.4c0-5.7,0-6.6-0.4-6.6
			C116.2,2.8,116.2,3.7,116.2,9.3L116.2,9.3z"/>
		<path class="fillable" d="M121.9,3.4c0,0.3,0.3,0.9,0.6,1.3c0.5,0.5,0.8,0.7,1.6,0.7c0.8,0,1.2-0.1,1.6-0.7c0.3-0.4,0.6-1,0.6-1.3
			c0-0.8-0.3-0.7-0.6,0.2c-0.2,0.5-0.5,0.9-0.9,1c-1,0.4-1.9-0.1-2.2-1C122.3,2.7,121.9,2.6,121.9,3.4L121.9,3.4z"/>
		<path class="fillable" d="M131.3,13.3c0,8,0.1,10.5,0.4,10.6c0.2,0.1,0.3-2.1,0.3-10.5c0-9.2,0-10.6-0.4-10.6C131.3,2.8,131.3,4.1,131.3,13.3
			L131.3,13.3z"/>
		<path class="fillable" d="M139,23.5c0,11.4,0.1,20.6,0.2,20.6c0.4,0,0.5-2.9,0.5-21.7c0-17.3,0-19.6-0.4-19.6C139,2.8,139,5.2,139,23.5L139,23.5z"
			/>
		<path class="fillable" d="M144.4,3.2c0,1.1,1.3,2.2,2.2,2.2c0.2,0,0.7-0.1,1.1-0.3c1-0.5,1.6-2.3,0.9-2.3c-0.2,0-0.4,0.2-0.4,0.6
			c0,0.8-0.7,1.4-1.6,1.4c-0.8,0-1.6-0.6-1.6-1.4c0-0.3-0.1-0.5-0.4-0.5C144.6,2.8,144.4,3,144.4,3.2L144.4,3.2z"/>
		<path class="fillable" d="M154,5.5v2.6l-3.9,3.8l-3.9,3.8V27c0,9.7,0,11.4-0.3,11.4c-0.6,0-1.6,1.5-1.6,2.2c0,1.1,1.2,2.1,2.2,2.1
			c1.2,0,2.2-1.1,2.2-2.1c0-0.8-1-2.2-1.6-2.2c-0.3,0-0.3-1.7-0.3-11.2V16.1l3.9-3.8l3.9-3.8V5.6c0-2.3-0.1-2.8-0.4-2.8
			S154,3.3,154,5.5L154,5.5z M147.7,39.5c0.7,0.5,0.7,1.8,0,2.5c-1.1,1.1-2.6,0.2-2.6-1.3c0-0.9,0.7-1.6,1.6-1.6
			C147,39.1,147.4,39.3,147.7,39.5L147.7,39.5z"/>
		<path class="fillable" d="M161.5,20.7v17.9l3.9,3.8l3.9,3.8v11v11l-0.7,0.4c-0.9,0.5-1.2,1.1-1.2,2.1c0,1.3,0.9,2,2.1,2c1.4,0,2.1-0.8,2.1-2.1
			c0-0.7-0.1-1.2-0.6-1.6c-0.3-0.3-0.7-0.6-0.9-0.6c-0.2,0-0.2-3.6-0.2-11.3V45.9l-3.9-3.9l-3.9-3.9V20.6c0-15.6,0-17.7-0.4-17.7
			S161.5,4.9,161.5,20.7L161.5,20.7z M170.5,69.7c0.3,0.3,0.6,0.8,0.6,1.1c0,0.7-1,1.7-1.6,1.7c-0.7,0-1.6-1.1-1.6-1.6
			c0-0.8,0.9-1.6,1.6-1.6C169.6,69.2,170.2,69.4,170.5,69.7L170.5,69.7z"/>
		<path class="fillable" d="M197.3,3.4c0,0.3,0.3,0.9,0.6,1.3c0.5,0.5,0.8,0.7,1.6,0.7c0.8,0,1.2-0.1,1.6-0.7c0.3-0.4,0.6-1,0.6-1.3
			c0-0.8-0.3-0.7-0.6,0.2c-0.2,0.5-0.5,0.9-0.9,1c-1,0.4-1.9-0.1-2.2-1C197.7,2.7,197.3,2.6,197.3,3.4L197.3,3.4z"/>
		<path class="fillable" d="M214.4,6.8c0,2.4,0.1,4,0.2,4c0.1,0,0.2-1.5,0.2-4c0-2.4-0.1-4-0.2-4C214.5,2.8,214.4,4.3,214.4,6.8z"/>
		<path class="fillable" d="M221.7,6.2c0,3.5,0.1,4.6,0.5,4.4c0.1-0.1,0.2-1.8,0.2-4c0-3.2,0-3.8-0.4-3.8C221.8,2.8,221.7,3.3,221.7,6.2L221.7,6.2z"
			/>
		<path class="fillable" d="M229.4,20.7c0,16,0,17.9-0.4,17.9c-0.2,0-0.7,0.3-1,0.6c-1.4,1.4-0.4,3.7,1.6,3.7c2.3,0,3-3.1,1-4.2l-0.7-0.4V20.7
			c0-11.7-0.1-17.7-0.2-17.7C229.5,2.8,229.4,8.9,229.4,20.7L229.4,20.7z M230.9,39.6c0.7,0.7,0.6,1.7-0.1,2.3
			c-0.4,0.3-0.8,0.5-1.1,0.5c-0.2,0-0.7-0.2-1.1-0.5c-1.2-1-0.5-2.8,1.1-2.8C230.1,39.1,230.6,39.4,230.9,39.6z"/>
		<path class="fillable" d="M78.6,15.7v7.6L74.7,27l-3.9,3.8v7.6v7.6l-0.8,0.5c-1,0.6-1.4,1.7-0.9,2.7c0.3,0.8,1.3,1.5,2,1.5c0.8,0,1.7-0.7,2-1.5
			c0.4-1.1,0.1-2.1-0.9-2.7l-0.7-0.5v-7.4v-7.4l3.9-3.8l3.9-3.8l-0.2-4.2c-0.1-2.1-0.1-5.6-0.1-7.8C79.2,9.4,79.1,8,79,8
			C78.7,8,78.6,10.8,78.6,15.7L78.6,15.7z M72.5,47.2c0.5,0.5,0.5,1.6,0,2.2c-0.5,0.5-1.6,0.6-2.2,0c-0.6-0.5-0.6-1.7,0-2.2
			C70.9,46.4,71.6,46.4,72.5,47.2z"/>
		<path class="fillable" d="M123.9,23.4c0,14,0.1,17.7,0.6,14.2c0.2-1.6,0.2-28.7,0-29.2c-0.1-0.2-0.2-0.4-0.4-0.4C123.9,8.1,123.9,14.5,123.9,23.4z"
			/>
		<path class="fillable" d="M154,30.8c0,9.1-0.1,15.2-0.2,15.2c-0.1,0-0.6,0.3-1,0.6c-0.6,0.5-0.8,0.8-0.8,1.6c0,1.4,0.9,2.2,2.1,2.2
			c2,0,3-2.5,1.4-3.9l-0.7-0.6l-0.1-15c-0.1-11.7-0.2-15-0.4-15.1C154.1,15.7,154,18.8,154,30.8L154,30.8z M155.5,47.3
			c0.9,1.1,0.1,2.6-1.3,2.6c-0.9,0-1.6-0.8-1.6-1.5C152.5,46.7,154.4,46,155.5,47.3z"/>
		<path class="fillable" d="M115.4,26.9c-1.5,0.8-1.5,2.9,0,3.8l0.8,0.5l0.1,3.7c0,2.2,0.2,3.7,0.3,3.7c0.1,0,0.3-1.5,0.3-3.7l0.1-3.7l0.8-0.5
			c1.5-0.9,1.4-3.1-0.1-3.8C116.8,26.4,116.3,26.4,115.4,26.9L115.4,26.9z M117.6,27.5c0.7,0.6,0.6,1.8-0.2,2.4
			c-0.4,0.3-0.8,0.5-1,0.5c-0.2,0-0.6-0.2-1-0.5c-0.8-0.6-0.9-1.7-0.2-2.4C115.9,27,117.1,27,117.6,27.5z"/>
		<path class="fillable" d="M191.7,28.5c-0.1,0.2-0.1,4.3-0.1,8.9v8.5l-0.6,0.2c-0.8,0.3-1.5,1.6-1.3,2.5c0.3,1.4,1.7,2.1,3,1.6
			c0.7-0.3,1.5-1.3,1.5-2c0-0.7-0.7-1.8-1.4-2l-0.6-0.2V37C192.3,28.9,192.2,27.2,191.7,28.5L191.7,28.5z M192.7,46.7
			c0.7,0.4,0.9,0.7,0.9,1.6c0,1-0.6,1.6-1.6,1.6c-1,0-1.6-0.6-1.6-1.6c0-0.9,0.2-1.2,0.9-1.6C191.8,46.4,192,46.4,192.7,46.7
			L192.7,46.7z"/>
		<path class="fillable" d="M206.8,28.7c-0.1,0.3-0.1,7.7-0.1,16.5v15.9l-0.6,0.2c-0.6,0.2-1.4,1.4-1.4,2c0,0.8,0.7,1.7,1.5,2c1.3,0.5,2.7-0.2,3-1.6
			c0.2-0.9-0.5-2.2-1.3-2.5l-0.6-0.2V44.8c0-9.2-0.1-16.4-0.2-16.5C207.1,28.2,206.9,28.4,206.8,28.7L206.8,28.7z M207.7,61.8
			c0.7,0.4,0.9,0.7,0.9,1.6c0,1-0.6,1.6-1.6,1.6s-1.6-0.6-1.6-1.6c0-0.9,0.2-1.2,0.9-1.6C206.9,61.5,207.1,61.5,207.7,61.8
			L207.7,61.8z"/>
		<path class="fillable" d="M214.4,55.7v27.6l-7.6,7.6l-7.6,7.6v11.3c0,11.1,0,11.3-0.5,11.5c-1.4,0.4-1.8,2.4-0.9,3.6c1.3,1.5,3.8,0.5,3.8-1.5
			c0-0.9-0.7-1.9-1.5-2.1c-0.5-0.1-0.5-0.4-0.5-11.2V99l7.6-7.6l7.6-7.6V56c0-18.4-0.1-27.8-0.2-27.8
			C214.6,28.2,214.4,37.5,214.4,55.7L214.4,55.7z M200.8,122.4c0.9,1.1,0.1,2.6-1.3,2.6c-0.9,0-1.6-0.8-1.6-1.5
			C197.8,121.9,199.6,121.3,200.8,122.4z"/>
		<path class="fillable" d="M221.9,28.7c-0.1,0.3-0.1,4.4-0.1,9v8.4l3.9,3.8l3.9,3.8v15v15l2.5,2.5c1.8,1.8,2.5,2.3,2.5,2c0-0.3-0.9-1.4-2.2-2.7
			l-2.2-2.2v-15v-15l-3.7-3.7l-3.7-3.7v-8.7C222.5,29.3,222.3,27,221.9,28.7L221.9,28.7z"/>
		<path class="fillable" d="M48.4,45.9c0,9.1-0.1,15.1-0.2,15.1s-0.6,0.3-1,0.6c-0.6,0.5-0.8,0.8-0.8,1.6c0,1.4,0.9,2.2,2.1,2.2
			c1.4,0,2.1-0.9,2.1-2.2c0-0.8-0.1-1.1-0.9-1.6l-0.7-0.7L49.1,49c-0.1-14.9-0.2-18.4-0.5-18.4C48.5,30.7,48.4,36.5,48.4,45.9
			L48.4,45.9z M49.9,62.3c0.9,1.1,0.1,2.6-1.3,2.6c-0.9,0-1.6-0.8-1.6-1.5C47,61.7,48.8,61.1,49.9,62.3z"/>
		<path class="fillable" d="M78.6,38.5c0,6.1,0.1,7.8,0.3,7.7c0.2-0.1,0.3-1.8,0.3-7.7c0-5.9-0.1-7.7-0.3-7.8C78.7,30.7,78.6,32.4,78.6,38.5z"/>
		<path class="fillable" d="M93.7,31c0,0.2,1.6,1.9,3.7,4l3.7,3.7l0.1,2c0.1,2.8,0.5,2.6,0.6-0.2l0.1-2.2l-3.8-3.8C94.6,31,93.7,30.3,93.7,31z"/>
		<path class="fillable" d="M131.3,35.6c0,3.6,0.1,4.8,0.4,4.9c0.2,0.1,0.3-1,0.3-4.8c0-4.3,0-4.9-0.4-4.9C131.3,30.7,131.3,31.4,131.3,35.6
			L131.3,35.6z"/>
		<path class="fillable" d="M62.2,34.7c-0.4,0.4-0.6,0.9-0.6,1.5c0,1.2,0.3,1.6,1.2,2.1l0.7,0.4v7.6v7.6l3.7,3.7l3.7,3.7v11.2c0,9.6,0,11.2-0.3,11.2
			c-0.6,0-1.6,1.5-1.6,2.2c0,1.1,1.2,2.1,2.2,2.1c1.2,0,2.2-1.1,2.2-2.1c0-0.8-1-2.2-1.6-2.2c-0.3,0-0.3-1.7-0.3-11.4V61l-3.7-3.7
			l-3.7-3.7v-7.7c0-5.1,0.1-7.6,0.2-7.6s0.5-0.3,0.9-0.6c0.5-0.4,0.6-0.9,0.6-1.6c0-1.4-0.8-2.1-2.1-2.1
			C63.1,34.1,62.6,34.2,62.2,34.7L62.2,34.7z M64.8,35.2c0.3,0.3,0.6,0.8,0.6,1.1c0,0.8-0.9,1.6-1.6,1.6C63,37.9,62,37,62,36.3
			c0-0.7,1-1.7,1.6-1.7C64,34.6,64.5,34.8,64.8,35.2L64.8,35.2z M72.3,84.6c0.7,0.5,0.7,1.8,0,2.5c-1.1,1.1-2.6,0.2-2.6-1.3
			c0-0.9,0.7-1.6,1.6-1.6C71.6,84.2,72,84.4,72.3,84.6z"/>
		<path class="fillable" d="M11,45.5c-4.7,4.7-7.4,7.6-7.4,7.9c0,0.3,2.4-1.9,7.6-7.1c6.7-6.7,8-8.1,7.4-8.1C18.5,38.2,15.1,41.5,11,45.5z"/>
		<path class="fillable" d="M40.9,38.3c-0.1,0.1-0.1,10.3-0.1,22.7v22.6l-3.7,3.7l-3.7,3.7v11.2v11.2l-0.7,0.4c-2,1.1-1.4,4.2,1,4.2
			c2.3,0,3-3.1,1-4.2l-0.7-0.4v-11V91.5l3.9-3.8l3.9-3.8V61.2c0-12.5-0.1-22.8-0.2-22.9C41.2,38.2,41,38.2,40.9,38.3L40.9,38.3z
			 M34.7,114.9c0.3,0.3,0.6,0.8,0.6,1.1c0,0.7-1,1.7-1.6,1.7S32,116.6,32,116c0-0.8,0.9-1.6,1.6-1.6
			C33.9,114.3,34.4,114.6,34.7,114.9L34.7,114.9z"/>
		<path class="fillable" d="M86.1,38.4c-0.1,0.2,1.5,1.8,3.7,4.2c3.6,3.6,3.9,3.9,3.9,4.7c0,0.6,0.1,0.9,0.2,0.8c0.1-0.1,0.2-0.7,0.2-1.3v-1.2
			l-3.8-3.8c-2-2-3.9-3.8-4-3.8C86.3,38.2,86.2,38.3,86.1,38.4L86.1,38.4z"/>
		<path class="fillable" d="M183.6,41.7c-0.8,0.3-1.3,1.2-1.3,2.1c0,0.7,0.2,1.1,0.8,1.6c0.4,0.3,0.9,0.6,1,0.6c0.1,0,0.2,3.1,0.2,7.5v7.5l-3.9,3.9
			l-3.9,3.9v18.8v18.9l3.9,3.8l3.9,3.8v7.6c0,4.8,0.1,7.6,0.2,7.6c0.1,0,0.2-2.8,0.2-7.9v-7.9l-3.7-3.7l-3.7-3.7V87.4V68.8L181,65
			l3.8-3.8l-0.1-7.7c0-5,0-7.7,0.2-7.7c0.1,0,0.6-0.3,1-0.6C187.6,43.8,185.8,40.8,183.6,41.7L183.6,41.7z M185.6,42.7
			c1,1,0.3,2.7-1.2,2.7s-2.2-1.6-1.2-2.7c0.3-0.3,0.8-0.5,1.2-0.5S185.4,42.5,185.6,42.7z"/>
		<path class="fillable" d="M14.5,49.6l-3.9,3.9v11.2V76L10,76.4c-1.7,1-1.4,3.6,0.6,4.1c1.3,0.3,2.7-0.9,2.7-2.1c0-0.7-0.7-1.8-1.4-2l-0.6-0.2V64.9
			V53.8l3.7-3.7c3.3-3.3,4.2-4.3,3.5-4.3C18.5,45.8,16.7,47.5,14.5,49.6L14.5,49.6z M11.6,76.9c0.7,0.4,0.9,0.7,0.9,1.6
			c0,1-0.6,1.6-1.6,1.6s-1.6-0.6-1.6-1.6c0-0.9,0.2-1.2,0.9-1.6C10.8,76.6,11,76.5,11.6,76.9L11.6,76.9z"/>
		<path class="fillable" d="M82.4,49.5l-3.8,3.8v30.3V114l3.7,3.7l3.7,3.7v7.6v7.6l6,6c3.9,3.8,6.2,6,6.5,6c0.3,0-1.5-1.9-5.7-6.2l-6.1-6.1v-7.6v-7.6
			l-3.7-3.7l-3.7-3.7v-30v-30l3.7-3.7c2-2,3.7-3.8,3.7-3.9C86.7,45.4,85.8,46.2,82.4,49.5L82.4,49.5z"/>
		<path class="fillable" d="M161.5,53.6c0,5,0.2,7.9,0.3,7.9c0.1,0,0.3-2.8,0.3-7.9c0-6.9,0-7.9-0.3-7.9C161.5,45.8,161.5,46.7,161.5,53.6z"/>
		<path class="fillable" d="M199.3,64.7c0,6.9-0.1,11.4-0.2,11.4c-0.1,0-0.6,0.3-1,0.6c-0.6,0.5-0.8,0.8-0.8,1.6c0,1.4,0.9,2.2,2.1,2.2
			c1.4,0,2.1-0.9,2.1-2.2c0-0.7-0.1-1.1-0.8-1.6c-0.4-0.3-0.9-0.6-1-0.6s-0.2-4.7-0.2-11.4c0-7.5-0.1-11.4-0.2-11.4
			C199.4,53.2,199.3,57.2,199.3,64.7z M200.8,77.4c0.9,1.1,0.1,2.6-1.3,2.6c-0.9,0-1.6-0.8-1.6-1.5
			C197.8,76.9,199.6,76.1,200.8,77.4z"/>
		<path class="fillable" d="M25,56.9c-1.5,0.8-1.5,2.9,0,3.8l0.8,0.5v7.6c0,6.6,0,7.6,0.4,7.6c0.3,0,0.4-1,0.4-7.6v-7.6l0.8-0.5
			c1.5-0.9,1.4-3.1-0.1-3.8C26.2,56.4,25.8,56.4,25,56.9L25,56.9z M27.2,57.7c0.7,0.6,0.6,1.8-0.2,2.4c-0.4,0.3-0.8,0.5-1,0.5
			s-0.6-0.2-1-0.5c-0.8-0.6-0.9-1.7-0.2-2.4C25.4,57.2,26.5,57.1,27.2,57.7z"/>
		<path class="fillable" d="M85.4,56.9c-1.3,0.5-1.6,2-0.8,3l0.5,0.6l-0.2-0.6c-0.4-1.4,0-2.2,1.2-2.7c0.5-0.2,0.6-0.3,0.3-0.4
			C86.2,56.6,85.8,56.7,85.4,56.9L85.4,56.9z"/>
		<path class="fillable" d="M190.8,56.9c-1.5,0.8-1.5,2.9,0,3.8l0.8,0.5v11.2c0,9.6,0,11.2-0.3,11.2c-0.6,0-1.6,1.5-1.6,2.2c0,1.1,1.2,2.1,2.2,2.1
			c1.2,0,2.2-1.1,2.2-2.1c0-0.8-1-2.2-1.6-2.2c-0.3,0-0.3-1.7-0.3-11.3V61.1l0.6-0.2c0.6-0.2,1.4-1.4,1.4-2c0-0.7-0.6-1.6-1.3-1.9
			C192.2,56.4,191.6,56.4,190.8,56.9L190.8,56.9z M193.1,57.7c0.7,0.6,0.6,1.8-0.2,2.4c-0.4,0.3-0.8,0.5-1,0.5s-0.6-0.2-1-0.5
			c-0.8-0.6-0.9-1.7-0.2-2.4C191.3,57.2,192.5,57.1,193.1,57.7z M193,84.6c0.7,0.5,0.7,1.8,0,2.5c-1.1,1.1-2.6,0.2-2.6-1.3
			c0-0.9,0.7-1.6,1.6-1.6C192.2,84.2,192.7,84.4,193,84.6L193,84.6z"/>
		<path class="fillable" d="M221.2,56.9c-0.7,0.3-1.4,1.3-1.4,1.9s0.7,1.6,1.3,1.9l0.6,0.3v15.1v15.1l3.9,3.8l3.9,3.8v14.8v14.8l-3.9,3.8l-3.9,3.8
			v6.1c0,5.3,0,6.2,0.4,6.2c0.3,0,0.4-0.9,0.4-6v-6l3.7-3.7l3.7-3.7v-15.3V98.4l-3.7-3.7l-3.7-3.7V76V61.1l0.6-0.3
			c0.6-0.3,1.3-1.4,1.3-1.9c0-0.8-0.6-1.6-1.4-1.9C222.1,56.4,222.1,56.4,221.2,56.9L221.2,56.9z M223.3,57.7
			c0.4,0.4,0.6,1.6,0.2,2.1c-0.3,0.5-1.3,0.9-1.7,0.7c-1.2-0.4-1.6-1.8-0.8-2.8C221.5,57.2,222.6,57.1,223.3,57.7z"/>
		<path class="fillable" d="M153.4,60.2c0.2,0.4,2.1,2.5,4.2,4.7l3.9,4v14.9c0,9.7,0.2,14.9,0.3,15c0.2,0,0.3-5.1,0.3-15.2V68.4l-2.2-2.2
			C156.3,62.4,152.9,59.4,153.4,60.2L153.4,60.2z"/>
		<path class="fillable" d="M63.6,87.3v26.5l-0.7,0.4c-2,1.1-1.4,4.2,1,4.2c1.3,0,2.1-0.9,2.1-2.1c0-1-0.6-1.9-1.4-2.1c-0.2-0.1-0.3-6.1-0.4-26.6
			c0-20.9-0.1-26.5-0.3-26.6C63.6,60.8,63.6,66.2,63.6,87.3L63.6,87.3z M64.9,115.1c0.3,0.3,0.6,0.8,0.6,1.1c0,0.7-1,1.7-1.6,1.7
			c-0.7,0-1.6-1.1-1.6-1.6c0-0.8,0.9-1.6,1.6-1.6C64,114.6,64.5,114.8,64.9,115.1L64.9,115.1z"/>
		<path class="fillable" d="M33.3,72.2V76l-3.9,3.8l-3.9,3.8v18.9v18.9l7.6,7.6l7.6,7.6v6c0,5.2,0,6,0.4,6s0.4-0.9,0.4-6.2v-6.1l-7.6-7.6l-7.6-7.6
			v-18.6V83.8l3.7-3.7l3.7-3.7v-4c0-2.5-0.1-4-0.2-4C33.4,68.4,33.3,69.9,33.3,72.2L33.3,72.2z"/>
		<path class="fillable" d="M205.9,71.9c-0.6,0.4-1.2,1.3-1.3,1.8c0,0.7,0.7,1.8,1.4,2l0.6,0.2v3.9v3.8l-7.6,7.6l-7.6,7.6v15v15l3.9,3.8l3.9,3.8v6
			c0,3.9,0.1,6,0.2,6c0.1,0,0.2-2.2,0.2-6.2v-6.1l-3.7-3.7l-3.7-3.7v-14.9V98.9l7.6-7.6l7.6-7.6v-3.9V76l0.6-0.2
			c0.6-0.2,1.4-1.4,1.4-2c0-0.7-0.7-1.6-1.4-1.9C207.2,71.5,206.7,71.5,205.9,71.9L205.9,71.9z M208.2,72.7c0.4,0.4,0.6,1.6,0.2,2.1
			c-0.3,0.5-1.3,0.9-1.7,0.7c-1.2-0.4-1.6-1.8-0.8-2.8C206.3,72.2,207.6,72.1,208.2,72.7z"/>
		<path class="fillable" d="M182.9,72.6c-0.4,0.4-0.6,0.9-0.6,1.5c0,1.2,0.3,1.6,1.2,2.1l0.7,0.4v11v11l-0.7,0.4c-0.9,0.5-1.2,1.1-1.2,2.1
			c0,1.3,0.9,2,2.1,2c1.4,0,2.1-0.8,2.1-2.1c0-0.7-0.1-1.2-0.6-1.6c-0.3-0.3-0.7-0.6-0.9-0.6s-0.2-3.6-0.2-11.2s0.1-11.2,0.2-11.2
			s0.5-0.3,0.9-0.6c0.5-0.4,0.6-0.9,0.6-1.6c0-0.7-0.1-1.2-0.6-1.6C185.2,71.8,183.7,71.8,182.9,72.6L182.9,72.6z M185.5,73.1
			c0.8,0.7,0.8,1.5,0.1,2.2c-0.7,0.8-1.7,0.7-2.3-0.1c-0.7-0.9-0.6-1.5,0.1-2.1C184,72.3,184.7,72.3,185.5,73.1z M185.5,99.7
			c0.3,0.3,0.6,0.8,0.6,1.1c0,0.7-1,1.7-1.6,1.7s-1.6-1.1-1.6-1.6c0-0.8,0.9-1.6,1.6-1.6C184.7,99.3,185.2,99.4,185.5,99.7
			L185.5,99.7z"/>
		<path class="fillable" d="M167.8,79.8c-0.4,0.4-0.6,0.9-0.6,1.5c0,1.2,0.3,1.6,1.2,2.1l0.7,0.4v11.1V106l-3.9,3.9l-3.9,3.9v17.3
			c0,15.3,0,17.3,0.4,17.3c0.3,0,0.4-2,0.4-17.3V114l3.9-3.9l3.9-3.9V94.9c0-7.8,0.1-11.3,0.2-11.3s0.5-0.3,0.9-0.6
			c0.5-0.4,0.6-0.9,0.6-1.6c0-0.7-0.1-1.2-0.6-1.6C170.1,79,168.6,79,167.8,79.8L167.8,79.8z M170.4,80.3c0.8,0.7,0.8,1.5,0.1,2.2
			c-0.7,0.7-1.6,0.7-2.2,0c-0.7-0.7-0.7-1.6,0-2.2C169,79.5,169.7,79.5,170.4,80.3L170.4,80.3z"/>
		<path class="fillable" d="M56,83.5c-0.1,0.1-0.1,5.3-0.1,11.5c0,10,0,11.4,0.4,11.4c0.3,0,0.4-1.5,0.4-11.4c0-6.3-0.1-11.5-0.2-11.5
			C56.3,83.4,56.1,83.4,56,83.5L56,83.5z"/>
		<path class="fillable" d="M10.6,94.9v11.3l3.9,3.8l3.9,3.8v11.1c0,6.7-0.1,11.1-0.2,11.1s-0.6,0.3-1,0.6c-1,0.8-1.1,2.1-0.2,3.1c0.8,1,2.3,1,3.2,0
			c0.9-1,0.8-2.3-0.2-3.1c-0.4-0.3-0.9-0.6-1-0.6s-0.2-4.6-0.2-11.4v-11.3l-3.7-3.7l-3.9-3.6V94.8c0-9.9,0-11.2-0.4-11.2
			C10.5,83.6,10.6,84.9,10.6,94.9L10.6,94.9z M19.8,137.5c0.9,1.1,0.1,2.6-1.3,2.6c-0.9,0-1.6-0.8-1.6-1.5
			C16.8,137,18.7,136.3,19.8,137.5z"/>
		<path class="fillable" d="M155.8,85.6c0.1,0.7,0,1.1-0.4,1.5c-0.3,0.3-0.5,0.6-0.5,0.6c0,0.3,0.5,0.1,1-0.4c0.4-0.4,0.5-0.8,0.4-1.5
			c0-0.5-0.2-1-0.3-1.1C155.8,84.7,155.8,85,155.8,85.6z"/>
		<path class="fillable" d="M40.8,105.9v15.1l-0.8,0.5c-1.5,0.9-1.4,3.1,0.1,3.8c0.9,0.5,1.3,0.5,2.1,0c1.5-0.8,1.6-2.9,0.1-3.8l-0.8-0.5v-15.1
			c0-13.3,0-15.1-0.4-15.1C40.8,90.8,40.8,92.8,40.8,105.9L40.8,105.9z M42,122.2c1.2,1,0.6,2.8-0.9,2.8c-1.6,0-2.2-1.8-1-2.8
			c0.4-0.3,0.8-0.5,1-0.5C41.3,121.7,41.7,121.9,42,122.2z"/>
		<path class="fillable" d="M70.9,106v15.1l-3.7,3.7l-3.7,3.7v10c0,8.7,0,10,0.4,10c0.3,0,0.4-1.3,0.4-9.9v-9.8l3.7-3.7l3.7-3.7v-15.2
			c0-13.4,0-15.2-0.4-15.2S70.9,92.8,70.9,106L70.9,106z"/>
		<path class="fillable" d="M214.4,119.7c0,19,0.1,28.8,0.2,28.8c0.1,0,0.2-9.7,0.2-28.8s-0.1-28.8-0.2-28.8C214.5,90.9,214.4,100.6,214.4,119.7z"/>
		<path class="fillable" d="M86.1,104c0,7.7,0.1,9.9,0.4,10c0.2,0.1,0.3-1.9,0.3-9.4c0-8,0-9.6-0.4-10C86.1,94.2,86.1,95.3,86.1,104z"/>
		<path class="fillable" d="M151.3,95.7c-0.1,0.2,0.3,0.8,1.3,1.7l1.5,1.5v14.9v14.8l-0.7,0.4c-0.9,0.5-1.2,1.1-1.2,2.1c0,1.8,2.3,2.8,3.7,1.5
			c0.9-0.8,0.9-2.3,0-3.1c-0.3-0.3-0.7-0.6-0.9-0.6s-0.2-4.7-0.2-15V98.8l-1.6-1.6C152,95.9,151.4,95.5,151.3,95.7L151.3,95.7z
			 M155.4,129.9c0.3,0.3,0.6,0.8,0.6,1.1c0,0.7-1,1.7-1.6,1.7c-0.7,0-1.6-1.1-1.6-1.6c0-0.8,0.9-1.6,1.6-1.6
			C154.6,129.3,155.1,129.6,155.4,129.9L155.4,129.9z"/>
		<path class="fillable" d="M48.4,102.5v4.1l3.7,3.7l3.7,3.7v7.4v7.4l-3.7,3.7l-3.7,3.7v6.1c0,4,0.1,6.2,0.2,6.2c0.1,0,0.2-2.1,0.2-5.9v-5.9l3.9-3.8
			l3.9-3.8v-7.8v-7.8l-3.9-3.9l-3.9-3.9v-3.8c0-2.3-0.1-3.8-0.2-3.8C48.5,98.1,48.4,99.8,48.4,102.5L48.4,102.5z"/>
		<path class="fillable" d="M205.9,102c-0.6,0.4-1.2,1.3-1.3,1.8c0,0.7,0.7,1.8,1.4,2l0.6,0.2v21.1c0,18.6,0,21.1,0.4,21.1c0.3,0,0.4-2.5,0.4-21.1
			V106l0.6-0.2c0.6-0.2,1.4-1.4,1.4-2c0-0.7-0.6-1.6-1.3-1.9C207.3,101.6,206.7,101.6,205.9,102L205.9,102z M208.2,102.7
			c0.4,0.4,0.6,1.6,0.2,2.1c-0.3,0.5-1.3,0.9-1.7,0.7c-1.2-0.4-1.6-1.8-0.8-2.8C206.3,102.3,207.6,102.3,208.2,102.7z"/>
		<path class="fillable" d="M221.2,102c-0.7,0.3-1.4,1.3-1.4,1.9c0,0.7,0.7,1.6,1.3,1.9l0.6,0.3v11.4c0,7.5,0.1,11.3,0.3,11.3c0.1,0,0.3-4.1,0.3-11.4
			v-11.3l0.6-0.3c0.6-0.3,1.3-1.4,1.3-1.9c0-0.8-0.7-1.7-1.5-2C222,101.6,222,101.6,221.2,102L221.2,102z M223.3,102.7
			c0.4,0.4,0.6,1.6,0.2,2.1c-0.3,0.5-1.3,0.9-1.7,0.7c-1.2-0.4-1.6-1.8-0.8-2.8C221.5,102.3,222.6,102.3,223.3,102.7z"/>
		<path class="fillable" d="M146.2,102.1c-0.1,0.1,0.1,0.2,0.5,0.2c2,0.1,1.9,3.2-0.1,3.2c-0.7,0-1.7-1-1.7-1.6c0-0.4,0-0.4-0.2,0
			c-0.4,0.6,0.1,1.6,1,2l0.7,0.4v18.7v18.7L144,146c-1.7,1.7-2.2,2.3-1.8,2.3c0.3,0,1.4-0.9,2.7-2.2l2.2-2.2v-18.9V106l0.8-0.5
			c1.3-0.8,1.5-2.4,0.4-3.5C147.8,101.9,146.5,101.7,146.2,102.1L146.2,102.1z"/>
		<path class="fillable" d="M93.7,105.2v1.4l3.7,3.7l3.7,3.7v15c0,9.8,0.1,15,0.3,15c0.2,0,0.3-5.2,0.3-15.2v-15.2l-3.9-3.9c-3.6-3.6-3.9-3.9-3.9-4.7
			c0-0.5-0.1-1-0.2-1.1C93.8,103.8,93.7,104.3,93.7,105.2L93.7,105.2z"/>
		<path class="fillable" d="M140.5,107.3c0.4,1,0.4,1.6-0.1,2.2c-0.7,0.7-1.8,0.7-2.5-0.1c-0.5-0.5-0.6-0.5-0.6-0.1c0,0.7,0.9,1.4,1.9,1.4
			c0.8,0,1.1-0.1,1.6-0.7c0.6-0.7,0.8-1.7,0.3-2.6C140.8,106.8,140.2,106.7,140.5,107.3L140.5,107.3z"/>
		<path class="fillable" d="M47.2,109.9c-1.1,1-0.8,2.9,0.6,3.6l0.7,0.4v7.7c0,6.9,0.1,8.4,0.6,7.3c0.1-0.2,0.1-3.7,0.1-7.8c0-4.9,0.1-7.4,0.2-7.4
			c0.1,0,0.5-0.3,0.9-0.6c1.4-1.4,0.4-3.7-1.6-3.7C48.1,109.2,47.6,109.4,47.2,109.9L47.2,109.9z M49.7,110.4
			c0.8,0.7,0.8,1.5,0.1,2.2c-0.7,0.7-1.6,0.7-2.2,0c-0.7-0.7-0.7-1.6,0-2.2C48.3,109.6,49,109.6,49.7,110.4L49.7,110.4z"/>
		<path class="fillable" d="M131.4,111.6c-0.1,0.1-0.2,4.1-0.2,8.7v8.6l3.9,3.8l3.9,3.8v3.7c0,2.8,0.1,3.7,0.3,3.6s0.3-1.2,0.4-3.9l0.1-3.8l-3.9-3.9
			l-3.9-3.9v-8.5c0-4.7-0.1-8.5-0.2-8.5C131.7,111.5,131.5,111.5,131.4,111.6L131.4,111.6z"/>
		<path class="fillable" d="M108.7,120.4v8.2l-0.7,0.4c-0.9,0.5-1.2,1.1-1.2,2.1c0,1.3,0.9,2,2.1,2c1.4,0,2.1-0.8,2.1-2.1c0-0.7-0.1-1.2-0.6-1.6
			c-0.3-0.3-0.7-0.6-0.9-0.6s-0.2-2.3-0.2-7.1c0-7.2-0.1-9.6-0.5-9.6C108.8,112.1,108.7,115.8,108.7,120.4L108.7,120.4z
			 M110.1,129.9c0.3,0.3,0.6,0.8,0.6,1.1c0,0.7-1,1.7-1.6,1.7c-0.7,0-1.6-1.1-1.6-1.6c0-0.8,0.9-1.6,1.6-1.6
			C109.3,129.3,109.8,129.6,110.1,129.9L110.1,129.9z"/>
		<path class="fillable" d="M124,113.2c-0.1,0.1-0.2,3.6-0.2,7.8v7.6l-3.9,3.8l-3.9,3.8v6.1c0,5.3,0,6.2,0.4,6.2c0.3,0,0.4-0.9,0.4-6v-6l3.9-3.9
			l3.9-3.9v-6.8C124.5,115.2,124.4,112.9,124,113.2L124,113.2z"/>
		<path class="fillable" d="M10.7,113.5c-0.1,0.1-0.1,5.2-0.1,11.4v11.2l-0.6,0.2c-0.8,0.3-1.5,1.6-1.3,2.5c0.3,1.4,1.7,2.1,3,1.6
			c0.7-0.3,1.5-1.3,1.5-2c0-0.7-0.7-1.8-1.4-2l-0.6-0.2v-11.3c0-6.2-0.1-11.3-0.2-11.4C11,113.4,10.8,113.4,10.7,113.5L10.7,113.5z
			 M11.6,137c0.7,0.4,0.9,0.7,0.9,1.6c0,1-0.6,1.6-1.6,1.6s-1.6-0.6-1.6-1.6c0-0.9,0.2-1.2,0.9-1.6C10.8,136.7,11,136.7,11.6,137
			L11.6,137z"/>
		<path class="fillable" d="M93.7,124.9c0,9.2,0.1,11.6,0.3,11.5c0.4-0.1,0.4-22.9,0-23.1C93.7,113.3,93.7,115.7,93.7,124.9z"/>
		<path class="fillable" d="M116.3,113.6c-0.1,0.2-0.1,3.7-0.1,7.9c0,5.7,0.1,7.6,0.4,7.7c0.4,0.1,0.4-15.3,0-15.6
			C116.5,113.4,116.4,113.5,116.3,113.6z"/>
		<path class="fillable" d="M138.3,116.9c-0.8,0.3-1.3,1.2-1.3,2.1c0,0.7,0.2,1.1,0.8,1.6c0.4,0.3,0.9,0.6,1,0.6s0.2,1.6,0.2,4c0,3.1,0.1,4,0.3,3.9
			c0.2-0.1,0.3-1.2,0.4-4l0.1-3.8l0.8-0.7c0.6-0.6,0.8-0.9,0.8-1.6C141.3,117.5,139.7,116.3,138.3,116.9L138.3,116.9z M140.3,117.9
			c1,1,0.3,2.7-1.2,2.7c-1.5,0-2.2-1.6-1.2-2.7c0.3-0.3,0.8-0.5,1.2-0.5C139.6,117.4,140.1,117.6,140.3,117.9z"/>
		<path class="fillable" d="M168.4,116.9c-0.8,0.3-1.3,1.2-1.3,2.1c0,0.7,0.2,1.1,0.8,1.6c0.4,0.3,0.9,0.6,1,0.6c0.1,0,0.2,5.4,0.2,13.6
			c0,8.9,0.1,13.6,0.2,13.6c0.1,0,0.2-1.6,0.2-4.2c0-2.2,0.1-8.3,0.1-13.6l0.2-9.4l0.8-0.7c0.7-0.6,0.8-0.9,0.8-1.6
			C171.4,117.5,169.9,116.3,168.4,116.9z M170.6,117.9c1,1,0.3,2.7-1.2,2.7c-1.5,0-2.2-1.6-1.2-2.7c0.3-0.3,0.8-0.5,1.2-0.5
			C169.8,117.4,170.3,117.6,170.6,117.9z"/>
		<path class="fillable" d="M175.8,117.1c-1.5,0.8-1.5,2.9,0,3.8l0.8,0.5v7.5c0,6.9,0,7.5-0.4,7.7c-1.8,0.7-1.9,3.4-0.1,4.2c1.3,0.5,2.7-0.2,3-1.6
			c0.2-0.9-0.5-2.2-1.3-2.5l-0.6-0.2v-7.5v-7.5l0.8-0.5c1.5-0.9,1.4-3.1-0.1-3.8C177.1,116.6,176.6,116.6,175.8,117.1L175.8,117.1z
			 M178,117.8c0.7,0.6,0.6,1.8-0.2,2.4c-0.4,0.3-0.8,0.5-1,0.5c-0.2,0-0.6-0.2-1-0.5c-0.8-0.6-0.9-1.7-0.2-2.4
			C176.2,117.3,177.4,117.3,178,117.8L178,117.8z M177.5,137c0.7,0.4,0.9,0.7,0.9,1.6c0,1-0.6,1.6-1.6,1.6c-1.6,0-2.2-1.8-1-2.8
			C176.7,136.7,176.9,136.7,177.5,137L177.5,137z"/>
		<path class="fillable" d="M77.3,124.9c-0.4,0.4-0.6,0.9-0.6,1.5c0,1.2,0.3,1.6,1.2,2.1l0.7,0.4v7.6v7.6l2.2,2.2c1.3,1.3,2.4,2.2,2.7,2.2
			s-0.2-0.7-1.8-2.3l-2.3-2.3v-7.6c0-5.1,0.1-7.6,0.2-7.6s0.5-0.3,0.9-0.6c0.5-0.4,0.6-0.9,0.6-1.6c0-1.4-0.8-2.1-2.1-2.1
			C78.1,124.4,77.7,124.5,77.3,124.9z M79.9,125.4c0.3,0.3,0.6,0.8,0.6,1.1c0,0.8-0.9,1.6-1.6,1.6c-0.8,0-1.7-0.9-1.7-1.6
			s1-1.7,1.6-1.7C79.2,124.8,79.6,125,79.9,125.4L79.9,125.4z"/>
		<path class="fillable" d="M70.2,132.1c-1.5,0.8-1.5,2.9,0,3.8l0.8,0.5v6c0,5.2,0,6,0.4,6c0.3,0,0.4-0.9,0.4-6v-6l0.8-0.5c1.5-0.9,1.4-3.1-0.1-3.8
			C71.5,131.6,71,131.6,70.2,132.1L70.2,132.1z M72.4,132.9c0.7,0.6,0.6,1.8-0.2,2.4c-0.4,0.3-0.8,0.5-1,0.5c-0.2,0-0.6-0.2-1-0.5
			c-0.8-0.6-0.9-1.7-0.2-2.4C70.6,132.3,71.8,132.3,72.4,132.9L72.4,132.9z"/>
		<path class="fillable" d="M19.6,142.2c-4.3,4.3-6.1,6.2-5.7,6.2c0.3,0,2.6-2.1,6.5-6c5.2-5.2,6.2-6.4,5.6-6.4C25.9,136,23.1,138.8,19.6,142.2
			L19.6,142.2z"/>
		<path class="fillable" d="M33.3,142.2c0,4,0.1,6.2,0.2,6.2s0.2-2.2,0.2-6.2s-0.1-6.2-0.2-6.2C33.4,136,33.3,138.2,33.3,142.2z"/>
		<path class="fillable" d="M55.8,142.2c0,5.3,0,6.2,0.4,6.2c0.3,0,0.4-0.9,0.4-6.2c0-5.3,0-6.2-0.4-6.2C55.9,136,55.8,136.9,55.8,142.2z"/>
		<path class="fillable" d="M183,136.9c-0.6,0.5-0.8,0.8-0.8,1.6c0,1.1,0.5,1.8,1.4,2.1c0.6,0.2,0.6,0.2,0.6,4.1c0,2.4,0.1,3.8,0.2,3.8
			s0.2-1.5,0.2-3.8c0-3.8,0-3.9,0.6-4.1c0.8-0.3,1.4-1.2,1.4-2.1c0-0.7-0.2-1.1-0.8-1.6c-0.4-0.4-1.1-0.6-1.5-0.6
			C184,136.3,183.4,136.5,183,136.9L183,136.9z M185.7,137.5c0.9,1.1,0.1,2.6-1.3,2.6c-0.9,0-1.6-0.8-1.6-1.5
			C182.8,137,184.6,136.3,185.7,137.5z"/>
		<path class="fillable" d="M107.5,140c-0.4,0.4-0.6,0.9-0.6,1.5c0,1.2,0.3,1.6,1.2,2.1l0.7,0.4v2.2c0,1.8,0.1,2.2,0.4,2.2c0.3,0,0.4-0.4,0.4-2.4
			c0-1.6,0.1-2.4,0.2-2.4s0.5-0.3,0.9-0.6c0.5-0.4,0.6-0.9,0.6-1.6c0-1.4-0.8-2.1-2.1-2.1C108.2,139.4,107.9,139.5,107.5,140z
			 M110.1,140.4c0.3,0.3,0.6,0.8,0.6,1.1c0,0.8-0.9,1.6-1.6,1.6s-1.7-0.9-1.7-1.6c0-0.7,1-1.7,1.6-1.7
			C109.3,139.9,109.8,140.1,110.1,140.4L110.1,140.4z"/>
		<path class="fillable" d="M122.5,140c-0.4,0.4-0.6,0.9-0.6,1.5c0,1.2,0.3,1.6,1.2,2.1l0.7,0.4v2.2c0,1.8,0.1,2.2,0.4,2.2c0.3,0,0.4-0.4,0.4-2.4
			c0-1.6,0.1-2.4,0.2-2.4s0.5-0.3,0.9-0.6c0.5-0.4,0.6-0.9,0.6-1.6c0-1.4-0.8-2.1-2.1-2.1C123.4,139.4,123,139.5,122.5,140z
			 M125.2,140.4c0.3,0.3,0.6,0.8,0.6,1.1c0,0.8-0.9,1.6-1.6,1.6c-0.8,0-1.7-0.9-1.7-1.6c0-0.7,1-1.7,1.6-1.7
			C124.3,139.9,124.8,140.1,125.2,140.4L125.2,140.4z"/>
		<path class="fillable" d="M130.1,140.1c-0.9,0.9-0.9,1.8-0.1,2.9c0.3,0.4,0.8,0.8,1,0.8c0.3,0,0.3,0.5,0.3,2.4s0.1,2.4,0.4,2.4
			c0.3,0,0.4-0.4,0.4-2.4c0-1.8,0.1-2.4,0.3-2.4c0.6,0,1.6-1.5,1.6-2.2c0-1.1-1.2-2.1-2.2-2.1C131,139.4,130.5,139.6,130.1,140.1z
			 M132.7,140.4c0.7,0.7,0.7,2,0,2.5c-1.2,0.9-2.6,0.2-2.6-1.2c0-1,0.7-1.7,1.6-1.7C132,139.9,132.5,140.1,132.7,140.4L132.7,140.4z
			"/>
		<path class="fillable" d="M152.7,140c-0.4,0.4-0.6,0.9-0.6,1.5c0,1.2,0.3,1.6,1.2,2.1l0.7,0.4v2.2c0,1.7,0.1,2.2,0.3,2.2c0.2-0.1,0.3-0.9,0.4-2.4
			c0-1.4,0.2-2.3,0.3-2.3c0.1,0,0.5-0.3,0.8-0.6c0.5-0.4,0.6-0.9,0.6-1.6c0-1.4-0.8-2.1-2.1-2.1C153.5,139.4,153.1,139.5,152.7,140
			L152.7,140z M155.4,140.4c0.3,0.3,0.6,0.8,0.6,1.1c0,0.8-0.9,1.6-1.6,1.6c-0.8,0-1.7-0.9-1.7-1.6c0-0.7,1-1.7,1.6-1.7
			C154.6,139.9,155.1,140.1,155.4,140.4L155.4,140.4z"/>
		<path class="fillable" d="M190.5,139.9c-0.4,0.3-0.7,0.9-0.8,1.5c-0.1,0.7,0,1,0.5,1.6c0.4,0.4,0.8,0.8,1,0.8c0.3,0,0.3,0.5,0.3,2.4
			s0.1,2.4,0.4,2.4c0.3,0,0.4-0.4,0.4-2.4c0-1.8,0.1-2.4,0.3-2.4s0.6-0.3,1-0.8c0.5-0.6,0.6-1,0.5-1.6c-0.2-1.1-1.1-1.9-2.1-1.9
			C191.4,139.4,190.9,139.6,190.5,139.9L190.5,139.9z M193,140.3c0.4,0.3,0.5,0.6,0.5,1.3s-0.1,1.1-0.5,1.3
			c-1.3,0.9-2.6,0.2-2.6-1.3c0-1,0.6-1.6,1.6-1.6C192.2,139.9,192.7,140,193,140.3L193,140.3z"/>
		<path class="fillable" d="M228.2,140c-0.6,0.5-0.8,0.8-0.8,1.6c0,1,0.9,2.1,1.6,2.1c0.3,0,0.4,0.4,0.4,2.4c0,1.5,0.1,2.4,0.2,2.4s0.2-1,0.2-2.4
			c0-1.8,0.1-2.4,0.3-2.4s0.6-0.3,1-0.6c0.9-0.9,0.9-2-0.1-3C230.3,139.2,229.2,139.2,228.2,140z M230.8,140.4
			c1.1,1.1,0.4,2.8-1.2,2.8c-1.5,0-2.2-1.6-1.2-2.8C229.2,139.7,230.1,139.7,230.8,140.4z"/>
		<path class="fillable" d="M25.9,143.5c-0.1,0.1-0.1,1.3-0.1,2.5c0,1.9,0.1,2.3,0.4,2.3s0.4-0.4,0.4-2.3C26.4,143.9,26.2,143.2,25.9,143.5
			L25.9,143.5z"/>
		<path class="fillable" d="M78,147c-0.6,0.2-1.5,1.3-1.1,1.4c0.1,0,0.5-0.1,0.7-0.4c0.3-0.3,0.8-0.5,1.3-0.5c0.4,0,1,0.2,1.3,0.5
			c0.7,0.7,1.1,0.4,0.4-0.3C79.8,146.9,78.8,146.7,78,147L78,147z"/>
		<path class="fillable" d="M175.8,147.1c-0.6,0.3-1.1,1.1-0.8,1.3c0.1,0.1,0.4-0.1,0.7-0.4c0.7-0.7,1.7-0.7,2.5,0c0.6,0.6,0.9,0.5,0.7-0.1
			c-0.2-0.5-1.4-1.1-1.9-1.1C176.6,146.7,176.1,146.9,175.8,147.1L175.8,147.1z"/>
		<g>
			<path class="fillable" d="M115.5,40.8c-0.3,0.1-1.6,0.3-2.7,0.5c-5,0.9-10.7,3.3-15,6.5C90.8,53,86,60.6,84.1,69.1c-0.7,3.3-0.8,10.7-0.1,13.8
				c0.7,3.3,1.8,6.4,3.2,9.2c5.1,10.3,14.9,17.5,26.3,19.3c2.8,0.5,8.4,0.5,11.2,0c7.6-1.3,14.2-4.7,19.8-10.2
				c4.8-4.8,8.2-11.1,9.8-18.3c0.7-3.1,0.6-10.5-0.1-13.8c-1.8-8.6-6.7-16.1-13.7-21.3c-4.3-3.2-9.7-5.6-15-6.6
				C123.4,40.8,116.7,40.5,115.5,40.8L115.5,40.8z M124.8,42.3c7.9,1.4,15.4,5.6,20.5,11.6c5.5,6.5,8.2,14,8.2,22.5
				c0,9.4-3.4,17.5-10.1,24.2c-5.1,5.1-11.3,8.4-18.2,9.7c-3.1,0.6-9.3,0.6-12.4,0c-6.9-1.3-13.2-4.6-18.2-9.7
				c-6.8-6.8-10.1-14.8-10.1-24.2c0-11.4,5.2-21.5,14.7-28.3c3.7-2.6,9.3-4.9,13.9-5.7C115.9,41.8,122,41.8,124.8,42.3L124.8,42.3z"
				/>
			<path class="fillable" d="M113.7,43.1c-4,0.6-8.4,2.2-11.9,4.4c-8.7,5.2-14.4,13.8-16,23.8c-0.4,2.4-0.3,7.8,0.1,10.4c0.5,3.1,1.7,6.9,3.4,9.9
				c3.9,7.6,11,13.8,19.1,16.4c3.7,1.3,6.5,1.6,10.8,1.6c4.3,0,7.1-0.5,10.8-1.6c8-2.7,15.2-8.8,19.1-16.4c1.6-3.1,2.8-6.8,3.4-9.9
				c0.4-2.7,0.5-8,0.1-10.4c-2-13-11.1-23.4-23.7-27.2C124.3,42.8,118.3,42.5,113.7,43.1L113.7,43.1z M125.6,43.8
				c11.7,2.6,21.1,10.9,24.8,21.8c0.7,2.1,1.7,7,1.6,7.2c0,0.1-0.3,0-0.6-0.1c-0.3-0.1-1.8-0.3-3.5-0.3h-3l-1.1-1.3
				c-0.6-0.7-1.2-1.6-1.3-1.9c-0.7-2.9-3.4-7.5-6.3-10.4c-2-2-2.8-3.2-1.3-2c3.2,2.5,6.5,7.3,7.8,11.1c0.4,1.1,0.5,1.3,1,1.3
				c0.7,0,0.7-0.1,0-1.9c-2.3-6.2-7.2-11.6-13-14.5c-1.7-0.9-4.9-1.9-7-2.3c-1-0.2-3.1-0.3-4.9-0.3c-5.7,0-10.2,1.4-14.7,4.5
				c-5.2,3.5-9.2,9-10.9,15.1c-0.6,2.1-0.7,2.8-0.7,6.6c0,3.6,0.1,4.5,0.5,6.1c1.5,5.5,3.7,9.2,7.9,13.2c10.3,9.7,26.5,9.3,36.5-0.9
				c2.3-2.3,4.8-6,5.2-7.8c0.1-0.3-0.2,0.1-0.8,1.1c-2.1,3.9-4.5,6.6-7.6,8.9c-3.3,2.5-7.8,4.4-11.7,5c-3.8,0.6-9,0.1-12.5-1.1
				C93.8,95.1,87.5,76.1,97,61.6c0.5-0.8,1.7-2.2,2.9-3.4c8.8-9.2,22.8-10.7,33.3-3.5c2.1,1.5,5.2,4.6,6.7,6.6
				c1.3,1.7,3.2,5.6,3.5,6.9c0.3,1.4-0.4,0.5-1.1-1.3c-1.4-3.6-4.2-7.5-7.2-10c-1.7-1.5-2.6-1.9-1.9-1.2c0.3,0.4,0.3,0.4-0.1,0.1
				c-0.2-0.2-0.4-0.4-0.3-0.5c0.2-0.3-2.3-1.7-4.5-2.6c-2.8-1.2-5.2-1.6-8.7-1.8c-5.8-0.2-10.5,1.1-15.4,4.3c-1.7,1.2-6,5.2-6,5.7
				c0,0.1,1.1-0.9,2.3-2.1c2.4-2.5,4.7-4.1,7.7-5.4c5.4-2.5,12.4-2.9,18-1c2,0.7,4.8,1.9,5.8,2.6c0.9,0.7-0.6,0.3-2.4-0.6
				c-3-1.6-5.4-2.2-9.5-2.6l-1.2-0.1v1.6c0,0.9-0.1,1.6-0.2,1.6c-0.1,0.1-0.2,0.4-0.2,0.8c0,0.6-0.1,0.6-1.4,0.6s-1.4,0-1.4-0.6
				c0-0.7,0.7-0.9,0.8-0.2c0,0.4,0,0.4,0.1,0c0-0.2,0.2-0.4,0.3-0.4s0.3,0.2,0.5,0.4c0.3,0.5,0.3,0.5,0.4-1.6c0-0.8,0-1.5-0.1-1.5
				c-0.1-0.1-0.8,0-1.6,0l-1.4,0.2v1.2c0,0.7-0.1,1.2-0.2,1.2c-0.1,0-0.2-0.6-0.2-1.4c0-0.9-0.1-1.4-0.3-1.4c-0.8,0-4.1,1.1-6.1,2
				c-2.8,1.4-4.8,2.8-7.1,5c-1.6,1.6-2.2,2-2.9,2.1c-0.1,0-0.3,0.2-0.3,0.4c-0.1,0.2,0,0.3,0.2,0.1c0.2-0.1,0.3-0.1,0.1,0
				c-0.1,0.1-0.3,0.2-0.5,0.2c-0.1,0-0.3,0.1-0.4,0.3c-0.1,0.2,0,0.3,0.2,0.1c0.2-0.1,0.3-0.1,0.1,0c-0.1,0.1-0.3,0.2-0.5,0.2
				c-0.4,0-2.4,4.3-3.2,6.7c-0.6,2-0.7,2.4-0.7,6.7c0,4.1,0,4.7,0.5,6.6c1.3,4.6,3.8,8.7,7.3,12c1.9,1.8,2.9,2.5,2.4,1.7
				c-0.1-0.2-0.1-0.2,0-0.1s0.2,0.3,0.2,0.5c0,0.4,2.7,2,4.7,2.9c9.9,4.2,21.1,1.7,28.7-6.3c1.6-1.8,2.3-2.7,1.6-2.2
				c-0.2,0.1-0.2,0.1-0.1,0c0.1-0.1,0.3-0.2,0.5-0.2c0.1,0,0.3-0.1,0.4-0.3c0.1-0.2,0-0.3-0.2-0.1c-0.2,0.1-0.3,0.1-0.1-0.1
				c0.1-0.1,0.3-0.2,0.4-0.1c0.1,0.1,0.4-0.1,0.6-0.5c0.4-0.6,0.3-0.8-0.2-0.3c-0.1,0.2-0.2,0.2-0.2,0.2c0.1-0.1-0.9-0.8-1-0.7
				c0,0-0.3,0.5-0.7,1s-0.6,1.1-0.6,1.3c0.2,0.5-3.7,4.2-5.8,5.5c-3.2,2-7,3.4-10.8,3.8l-1.6,0.2v-1.6c0-1,0.1-1.4,0.4-1.4
				c0.3,0,0.4,0.3,0.4,1v1l1.5-0.2c3.2-0.4,7.4-1.9,10.3-4c1.6-1.1,4.8-4,4.8-4.4c0-0.1-1,0.7-2.1,1.7c-3.3,3.1-6.9,4.9-11.2,5.9
				c-2.9,0.7-2.9,0.7-2.9-0.4c0-0.9,0.3-1.2,0.6-0.3c0.1,0.4,0.2,0.5,1.3,0.3c1.6-0.2,4.7-1.3,6.4-2c1.6-0.8,4-2.3,4.4-2.9
				c0.2-0.2,0.5-0.4,0.7-0.4c0.5,0,1.9-1.5,1.9-1.8s2.1-3.3,3.6-4.7l1.1-1.2h4.5c3.2,0,4.6,0.1,4.8,0.3c0.4,0.3,0.4,0.4-0.4,2.4
				c-4.1,10.5-13.9,18.3-25,20.3c-3,0.6-8.5,0.6-11.5,0c-12.5-2.2-22.8-11.4-26.2-23.7c-1.6-6-1.5-13.3,0.6-19.4
				c3.9-11.4,14.1-20.1,26.2-22.1C116.4,43.2,123.4,43.3,125.6,43.8L125.6,43.8z M124,52.5c3.6,0.8,7.6,2.5,7.8,3.4
				c0.1,0.3-0.2,0.2-1.6-0.5c-2.2-1.2-5.6-2.3-7.9-2.5c-1-0.1-1.8-0.2-1.9-0.1c-0.1,0-0.2,0.5-0.2,1.1c0,0.5-0.1,1-0.2,1
				c-0.1,0-0.2-0.6-0.2-1.4v-1.4h1.2C121.5,52.2,123,52.3,124,52.5L124,52.5z M114.7,53.5c0,0.9-0.1,1.2-0.3,1.2
				c-0.2,0-0.4-0.3-0.4-0.8L114,53l-2,0.7c-3.8,1.3-6.3,2.7-9.4,5.7c-1.2,1.1-2.1,2.1-2.1,2.2s0.3-0.1,0.7-0.5
				c1.2-1.4,1.1-0.3-0.1,1.3c-2.5,3.2-4.2,7.5-4.7,11.7c-0.6,5.1,1.2,11.3,4.4,15.5c0.7,0.9,1.2,1.7,1.2,1.8s0.1,0.4,0.3,0.6
				c0.2,0.3,0.2,0.3-0.2,0c-1-0.7-2.8-3.5-4-5.8c-3.2-6.6-3.1-14.7,0.4-21.1c0.5-0.9,0.8-1.6,0.7-1.6c-0.2-0.2-2.5,4.8-3.1,6.8
				c-0.8,2.7-0.8,8.9,0,11.6c1.3,4.6,3.3,7.9,6.5,11.2c1.2,1.2,1.9,2,1.7,2c-0.5,0-3.7-3.1-4.9-4.8c-4.2-5.7-5.6-13.7-3.7-20.6
				c0.7-2.3,2.4-6.2,2.9-6.3c0.9-0.1,1-0.1,1-0.5c0-0.2,0-0.4,0.1-0.3c0.2,0.2,0.8-0.3,0.8-0.6c0-0.1-0.1-0.2-0.2-0.1
				c-0.1,0-0.2-0.1-0.2-0.4c0-1.3,4.8-5.4,8.3-7.1c1.6-0.8,5.4-2,6.2-2.1C114.6,52.3,114.7,52.8,114.7,53.5L114.7,53.5z M116.8,52.8
				c0.1,0.1-0.1,0.2-0.5,0.2s-0.6-0.1-0.6-0.2c0-0.1,0.2-0.2,0.5-0.2C116.4,52.6,116.7,52.7,116.8,52.8z M124.4,53.5
				c2.4,0.6,4.9,1.6,6.7,2.7c1.6,1,1.8,1.1,1.4,0.4c-0.3-0.4-0.3-0.4,0-0.1c0.2,0.2,0.4,0.4,0.4,0.6s0.1,0.3,0.3,0.4
				c0.2,0.1,0.3,0,0.1-0.2c-0.1-0.3-0.1-0.3,0.1,0c0.2,0.1,0.5,0.2,0.6,0.1c0.5-0.2,3.8,3.2,5,5s2.3,4,3,6.1c0.4,1.3,0.9,2,1.7,2.9
				l1.2,1.2h2.9c2.1,0,3.1,0.1,3.6,0.4c0.8,0.4,1.1,1.1,0.3,0.7c-0.2-0.1-2-0.2-4.1-0.3l-3.7-0.1l-0.8-1.2c-0.5-0.6-1.1-1.8-1.4-2.8
				c-0.6-1.8-2-4.9-3.2-6.6c-0.9-1.3-4.2-4.7-4.8-5c-0.3-0.1,0.3,0.5,1.4,1.6c3.1,3.1,4.8,5.8,6.2,9.7c0.5,1.4,1.1,2.7,1.6,3.4
				l0.9,1.2h3.5c2.6,0,3.6,0.1,4.1,0.4c0.8,0.4,1.1,1.3,0.3,1c-0.2-0.1-2.1-0.2-4.3-0.3l-3.9-0.1l-0.8-1c-1.1-1.4-1.1-1.3-1.7-3.7
				c-0.7-2.4-2.2-5.4-3.8-7.5c-0.6-0.8-1-1.5-1-1.6c0.2-0.2-1.5-1.8-1.7-1.7c-0.1,0-1-0.5-1.8-1.1c-2.7-2-7.1-3.9-10.5-4.4
				c-1-0.1-1.1-0.1-1.1,0.5c0,0.4-0.1,0.6-0.4,0.6c-0.2,0-0.4-0.3-0.4-0.9c0-0.9,0-0.9,1.1-0.9C122.1,53,123.4,53.3,124.4,53.5
				L124.4,53.5z M117.2,53.7c0,0.2-0.2,0.4-0.7,0.4c-0.5,0-0.7-0.1-0.7-0.4s0.2-0.4,0.7-0.4C116.9,53.3,117.2,53.4,117.2,53.7z
				 M117.9,53.5c0.1,0.1,0,0.2-0.2,0.2c-0.2,0-0.4-0.1-0.4-0.2s0.1-0.2,0.2-0.2C117.7,53.3,117.9,53.4,117.9,53.5z M113.8,54.2
				c0,0.6-0.6,0.9-0.8,0.3c0-0.2-0.7,0-1.6,0.3c-2.2,0.9-3.7,1.6-5.8,3.1c-1,0.7-1.9,1.3-1.9,1.2c-0.1-0.1-0.5,0.2-1,0.6
				c-0.4,0.4-0.2,0.1,0.5-0.6c2.2-2.1,5.6-4.1,8.6-5C113.6,53.4,113.8,53.4,113.8,54.2L113.8,54.2z M126.1,54.9c2.8,1,7.8,4,7.8,4.7
				c0,0.4,1.2,1.6,1.9,1.9c1.4,0.7,4.2,5.8,5,9.3c0.2,0.9,0.7,1.8,1.4,2.7l1.1,1.4h3.8c3.8,0,4.9,0.2,4.9,0.9c0,0.3-0.2,0.2-0.8-0.1
				c-0.7-0.4-1.4-0.4-4.9-0.4l-4.1,0.1l-0.7-1.1c-0.4-0.6-0.9-1.9-1.3-3.1c-0.3-1.2-0.9-2.8-1.3-3.7c-0.8-1.7-2.1-4-2.3-3.8
				c-0.1,0.1,0.1,0.4,0.4,0.8c1.3,1.8,3.2,6.5,3.2,7.9c0,0.3,0.4,1.1,0.9,1.8l0.9,1.4h2.3c1.7,0,2.4,0.1,2.6,0.4
				c0.3,0.3,0,0.4-2.5,0.4h-2.9l-0.8-1.1c-0.5-0.7-0.9-1.6-1.2-2.9c-0.4-2-1.2-4.3-2-5.9c-0.3-0.6-0.6-1.3-0.6-1.5
				c0-0.2-0.3-0.8-0.6-1.2c-0.4-0.5-0.4-0.7-0.1-0.5c0.3,0.2,0.4,0.2,0.4,0c0-0.6-4.2-4.5-6-5.5c-2.8-1.7-6.3-3-8.4-3.1
				c-0.7,0-0.9-0.1-0.9-0.4c0-0.4,0.1-0.4,1.7-0.1C124.1,54.4,125.4,54.7,126.1,54.9L126.1,54.9z M116.9,54.5c0,0.1-0.3,0.2-0.6,0.2
				c-0.3,0-0.6-0.1-0.6-0.2s0.3-0.2,0.6-0.2C116.7,54.3,116.9,54.4,116.9,54.5z M111.8,55.3c0,0.1-0.6,0.5-1.4,0.8
				c-1.5,0.6-4.2,2.2-4,2.4c0.1,0.1,0.4-0.1,0.8-0.4c0.8-0.6,3.3-1.8,4.1-2c0.3-0.1,0.5-0.1,0.5,0.1c0,0.3-3.5,2-4.1,2
				c-0.6,0-1.9,1.1-1.9,1.4c0,0.1-0.4,0.6-1,1.1c-1.4,1.1-3.7,4.2-4.7,6.4c-1.1,2.1-1.8,4.7-2,6.9l-0.2,1.5l1.3,1.3l1.3,1.3h4.2
				c2.2,0,4.2,0.1,4.2,0.2c0,0.1-2.1,0.2-4.7,0.2h-4.7l-1.1-1l-1.1-1l0.3-2.3c0.1-1.3,0.5-3.1,0.8-4c0.7-2.2,2.3-5.4,3.9-7.3
				c0.7-0.9,1.2-1.6,1.1-1.6c-0.3-0.3-2.6,3.1-3.8,5.3c-1.4,2.7-2,5.2-2.3,8l-0.1,1.9l1.2,1l1.2,1h2.6c2.1,0,2.6,0.1,2.6,0.4
				s-0.4,0.4-2.4,0.4c-2.3,0-2.5,0-3.5,0.8c-0.6,0.4-1,0.8-1,0.8c0,0.3,0.9,2.9,1.4,4.1c0.8,1.9,2.7,4.8,4,6c1,0.9,0.9,0.9-0.3-0.7
				c-2.1-2.7-3.6-5.2-4.4-8.1L98,80.7l0.9-0.7c0.8-0.7,0.9-0.7,3.4-0.7c1.6,0,2.6,0.1,2.6,0.2s-0.8,0.2-1.9,0.2c-1.8,0-1.9,0-3,1
				c-1.3,1.2-1.3,1.1,0.1,4.1c0.5,1.2,1,2.2,1,2.4c0,0.5,1,1.9,1.2,1.9c0.1,0,0.6,0.3,1,0.7c0.6,0.6,0.7,0.6,0.4,0.1
				c-0.1-0.3-0.4-0.6-0.5-0.7s-0.2-0.4-0.2-0.6c0-0.2-0.4-0.9-1-1.5c-1.1-1.2-1.5-1.7-2.2-4L99,81.7l1-0.8c0.9-0.7,1.1-0.8,2.7-0.8
				c1.1,0,1.8,0.1,1.8,0.2s-0.6,0.2-1.4,0.2c-1.3,0-1.5,0.1-2.3,0.9c-0.7,0.7-0.9,1-0.8,1.4c0.2,0.8,1.6,3.6,2.1,4.1
				c0.5,0.7,0.4,0.4-0.9-2.2l-1.3-1.8L101,82l0.9-0.8h3.5c1.8,0,3.4,0.1,3.4,0.2s-1.2,0.2-2.6,0.2h-2.7l-0.9,0.8
				c-0.5,0.4-1.1,0.9-1.3,1.1c-0.4,0.2-0.4,0.3,0,1.2c0.2,0.5,0.5,0.9,0.6,0.9c0.1,0,0.6,0.6,1,1.3c0.5,0.7,1,1.4,1.2,1.5
				c0.3,0.2,0.3,0.2-0.9-1.6c-0.5-0.7-0.8-1.4-0.7-1.5c0.1-0.1,0-0.6-0.2-1c-0.4-0.7-0.4-0.8,0.3-1.5c0.4-0.5,0.9-0.7,1.4-0.7
				c0.8,0,0.9,0.2,0.2,0.9c-0.3,0.2-0.7,0.8-1,1.1c-0.6,0.7-0.6,0.7,0.4,2.1c0.9,1.3,1,1.6,0.8,2.3l-0.2,0.9l-0.8-1
				c-1-1.2-1.1-0.9-0.1,0.4c0.6,0.8,0.7,1.1,0.6,1.7s-0.1,0.9,0.3,1c0.6,0.2,0.7,0.2,2.5,1.6c0.9,0.6,2.3,1.6,3.4,2
				c1.1,0.5,1.8,1.1,1.8,1.2c0,0.7-4.1-1.6-6.6-3.5c-1.4-1.1-1.6-1.2-0.9-0.4c1.1,1.2,4,3,5.9,3.9c1.5,0.6,1.9,1.1,1.3,1.1
				c-1.1,0-7.9-4.1-7.5-4.5c0.2-0.2-1.6-1.9-1.8-1.8c-0.3,0.2-2-2.3-3.2-4.6c-2.6-5-3.3-11.7-1.5-17.2c1-3,3.6-7.4,4.7-7.9
				c0.8-0.4,1.9-1.6,1.9-1.9c0-0.6,3.3-2.8,6.1-4.1C111.7,54.9,111.8,54.9,111.8,55.3L111.8,55.3z M125.9,55.8
				c2.1,0.7,4,1.6,5.7,2.9c1.8,1.4,4.6,4.1,4.4,4.4c-0.1,0.1-0.9-0.5-1.9-1.6c-2.5-2.6-5.7-4.6-9.1-5.5c-0.8-0.2-1.4-0.5-1.4-0.6
				C123.6,55.1,124,55.2,125.9,55.8L125.9,55.8z M115.5,58.8l0.1,3.2h2.1h2.1l0.1-3.2l0.1-3.2h1.3h1.3l0.1,3.2l0.1,3.2l1.6,0.1
				c4.7,0.4,7.8,3.3,7.8,7c0,1.7-0.6,3.1-1.9,4.4c-0.6,0.6-1,1.1-1,1.2s0.4,0.5,0.9,0.8c1.5,1,2.9,2.4,3.6,3.7
				c0.5,1,0.7,1.6,0.7,3.1c0,2.3-0.7,3.8-2.5,5.4c-2,1.8-4.2,2.7-7.3,3l-1.9,0.2l-0.1,3l-0.1,3.1h-1.3H120l-0.1-3.1l-0.1-3h-2.1
				h-2.1l-0.1,3l-0.1,3.1h-1.2h-1.3l-0.1-3.1l-0.1-3l-4-0.1h-4L105,90c0.1-0.4,0.3-1.3,0.5-1.7l0.3-1h1.6c0.9,0,1.8-0.1,2-0.1
				c0.3-0.1,0.4-1.4,0.4-10.9s0-10.8-0.4-10.9c-0.2-0.1-1.4-0.1-2.5-0.1h-2.1v-1.6v-1.6h4l4-0.1l0.1-3.2l0.1-3.2h1.3h1.3L115.5,58.8
				L115.5,58.8z M127.8,57.5c1,0.4,2.4,1.3,3.2,1.8c1.6,1.2,4.3,3.8,4.2,4.1c-0.1,0.3,1,2,1.4,2c0.3,0,1.8,3,2.4,4.8
				c0.2,0.7,0.5,1.7,0.6,2.5c0.1,1,0.5,1.6,1.1,2.4l0.8,1.1h4.5c4.7,0,6.2,0.3,6.2,1.1c0,0.3-0.1,0.3-0.8,0
				c-0.7-0.4-1.4-0.4-5.6-0.4l-4.8,0.1l-0.9-1.1c-0.6-0.8-0.9-1.3-0.9-1.8c0-1.2-0.6-3.7-1.4-5.4c-0.7-1.6-2.2-4.4-2.4-4.2
				c-0.1,0.1,0.1,0.5,0.4,0.9c1.4,1.9,3.1,7,3.1,9c0,0.5,0.3,1.2,1,1.9l1,1.3h3.1c1.9,0,3.1,0.1,3.1,0.2s-1.4,0.2-3.6,0.2h-3.6
				l-0.7-0.9c-0.5-0.7-0.8-1.4-1-3.1c-0.2-1.2-0.5-2.8-0.7-3.5c-0.2-0.7-0.4-1.6-0.5-1.7c-0.1-0.6-0.6-1.7-0.8-1.7
				c-0.1,0-0.6-0.7-1.2-1.6c-2.3-3.5-6.1-6.4-10.2-7.7c-0.8-0.2-1.4-0.6-1.4-0.8c0-0.4,0.1-0.3,2.5,0.6c2.4,0.9,4.8,2.4,7.1,4.7
				c1.2,1.2,2,2,2,1.9c0-0.1-0.5-0.7-1.1-1.5c-2.1-2.5-6.1-5-9.2-5.9c-0.9-0.2-1.4-0.5-1.4-0.7C123.6,55.8,125.4,56.3,127.8,57.5
				L127.8,57.5z M119.1,56.6c0,0.2-2.3,0.6-2.5,0.4c-0.1-0.1,0-0.2,0-0.4C116.8,56.3,119.1,56.3,119.1,56.6z M111.8,57.5
				c0,0.4-0.2,0.7-1,1c-0.5,0.2-1,0.5-1,0.6c0,0.1-0.6,0.5-1.3,1c-0.7,0.4-1.2,0.8-1.1,0.9c0.1,0.1,0.6-0.1,1.1-0.5
				c0.5-0.3,1.1-0.6,1.4-0.6c0.2,0,0.8-0.2,1.2-0.4c1-0.4,0.5-0.1-1.3,1c-1.2,0.7-1.6,0.8-3.2,0.8h-1.8l0.6-0.6
				c0.3-0.3,0.7-0.6,0.8-0.6c0.4,0.1,2-1,1.9-1.3c-0.1-0.2,3-1.9,3.5-1.9C111.7,56.9,111.8,57.2,111.8,57.5L111.8,57.5z M119.1,57.6
				c0,0.1-0.3,0.2-0.6,0.2s-0.9,0.1-1.4,0.1c-0.6,0.1-0.8,0.1-0.8-0.2s0.3-0.4,1.4-0.4C118.4,57.4,119.1,57.5,119.1,57.6z
				 M126.4,58.7c2.1,0.9,4.6,2.5,6.2,4.3c1.6,1.6,3.3,4.1,3.1,4.5c-0.2,0.3,0.5,1.6,1,2c0.4,0.3,1.1,2.6,1.3,4.8
				c0.2,1.6,0.4,2.1,1.1,3.1l0.8,1.2l5.9,0.1c3.2,0.1,6,0.2,6.1,0.3c0.1,0.1,0.3,0.4,0.3,0.6c0,0.3-0.1,0.3-0.9,0
				c-0.7-0.3-2.1-0.4-6.8-0.5l-5.9-0.1l-0.5-0.8c-0.4-0.6-0.5-1.3-0.7-3.1c-0.4-6.8-4.7-12.9-11.1-15.7c-1-0.4-2-0.8-2.2-0.8
				s-0.4-0.2-0.4-0.4C123.6,57.8,124.3,57.9,126.4,58.7L126.4,58.7z M119.1,58.5c0,0.3-0.3,0.4-1.4,0.4c-1.4,0-1.8-0.4-0.7-0.6
				C118.5,58.1,119.1,58.1,119.1,58.5z M126.9,60c6,2.9,10,8.6,10.4,15.3c0.1,1.9,0.2,2.4,0.8,3.2c0.5,0.8,0.9,1.1,1.6,1.2l0.9,0.2
				l-0.7,0.2c-1.2,0.3-1.6,0.1-3.4-1.7c-1.3-1.4-1.6-1.7-1.3-1.8c0.2,0,0.4-0.3,0.4-0.7c0-0.5-0.1-0.6-0.6-0.6
				c-0.3,0-0.6-0.1-0.6-0.2c0-0.1,0.3-0.2,0.6-0.2c0.5,0,0.6-0.1,0.6-0.6s-0.1-0.6-0.7-0.6h-0.7l0.7-0.1c0.5-0.1,0.7-0.2,0.7-0.7
				s-0.1-0.6-0.7-0.6c-0.5,0-0.6,0-0.2-0.1c0.3-0.1,0.6-0.2,0.8-0.3c0.4-0.3,0.8,2.1,0.9,4.6c0,1.5,0,1.6,0.2,1.2
				c0.3-0.8-0.1-4.6-0.8-6.5c-1.6-5-5.4-9-10.4-11c-0.9-0.4-1.7-0.8-1.7-1C123.5,58.5,124.6,58.9,126.9,60L126.9,60z M119,59.3
				c-0.1,0.4-2.6,0.6-2.6,0.2c0-0.3,0.6-0.4,1.7-0.5C118.8,59,119.1,59.1,119,59.3L119,59.3z M111.8,60c0,0.3-1.8,1.3-2.3,1.2
				c-0.3-0.1,0-0.3,0.8-0.8C111.6,59.7,111.8,59.6,111.8,60L111.8,60z M124.2,59.9c-0.1,0.1-0.3,0.1-0.5,0c-0.2-0.1-0.1-0.1,0.1-0.1
				C124.2,59.7,124.3,59.8,124.2,59.9z M119.1,60.6c0,0.6-0.1,0.6-1.4,0.6s-1.4,0-1.4-0.6s0.1-0.6,1.4-0.6S119.1,60,119.1,60.6z
				 M130,62.9c1.6,1.4,2.7,2.6,3.8,4.3c0.8,1.3,0.9,1.4,0.4,1.5c-0.7,0.2-0.6,1.1,0.1,1.3l0.5,0.2l-0.5,0.1
				c-0.4,0.1-0.6,0.3-0.6,0.9c0,0.4,0.1,0.9,0.3,0.9c0.1,0.1,0,0.1-0.2,0.1c-0.4,0-0.6,0.2-0.6,0.6c0,0.5,0.1,0.6,0.6,0.6h0.5
				l-0.5,0.2c-0.7,0.3-0.8,1.2-0.1,1.2c0.3,0,0.5,0.1,0.5,0.2s-0.2,0.2-0.5,0.2c-0.4,0-0.5,0.2-0.5,0.6c0,0.5,0.1,0.6,0.6,0.6
				c0.4,0,1.2,0.7,2.5,2l2,2l-1.2,0.1c-1,0.1-1.2,0.1-1.2,0.6c0,0.4,0.2,0.5,1.6,0.6l1.6,0.1l-0.1-0.6c-0.1-0.6,0.1-0.7,0.9-0.4
				c0.5,0.2,0.5,0.2,0,0.2c-0.3,0-0.6,0.1-0.6,0.2s0.2,0.3,0.6,0.5c0.5,0.2,0.4,0.3-0.4,0.3c-0.9,0-1.1,0.2-2.1,1.4
				c-0.7,0.8-1.6,2-2,2.8c-1.5,2.6-5.7,6.5-7.3,6.7c-0.7,0.1-2,0.8-2,1.1c0,0.1-0.5,0.4-1.2,0.6c-1,0.3-1.2,0.3-1.2,0.1
				s0.6-0.5,1.3-0.8c0.7-0.2,1.8-0.7,2.4-1.1l1.2-0.6l-1.8-0.1c-1.9-0.1-1.8-0.3,0.3-0.7c3.2-0.7,6.4-3,7.8-5.7
				c0.6-1.2,0.7-1.6,0.7-3.2c0-2.5-0.7-4.1-2.9-6.1c-0.9-0.8-1.6-1.5-1.8-1.5c-0.1,0,0.1-0.4,0.5-0.9c1.7-2,2.3-4.7,1.6-7
				c-0.8-2.3-4-5-6.6-5.4c-0.8-0.1-0.9-0.2-0.8-0.7l0.1-0.6l1.6,0.9C128.1,61.6,129.4,62.4,130,62.9L130,62.9z M111.8,61
				c0,0.1-0.2,0.2-0.5,0.2c-0.5,0-0.5,0-0.2-0.2C111.6,60.7,111.8,60.7,111.8,61z M103.1,64c-1.8,2.2-3.1,4.9-3.8,7.9
				c-0.6,2.4-0.5,2.7,0.6,4l1,1.1h1.7c1.1,0,1.7,0.1,1.7,0.2s-0.9,0.2-2.1,0.2h-2.1L99,76.2l-1-1.1l0.2-1.7c0.5-3.6,1.8-6.9,4-9.8
				c0.9-1.2,1.2-1.5,1.3-1.2C103.7,62.9,103.5,63.5,103.1,64L103.1,64z M98,63.4c0,0.1-0.3,0.7-0.6,1.3c-0.8,1.3-1.9,4.4-2.4,6.6
				c-0.7,2.8-0.6,8,0.2,11c1.2,4.6,3.3,8,6.6,11.3c1.1,1.1,2,2.1,1.9,2.3c-0.1,0.6-4-3.5-5.5-5.7c-1.6-2.4-2.8-4.9-3.6-7.9
				c-0.5-1.7-0.6-2.5-0.5-6.3c0-4,0.1-4.5,0.7-6.4C95.7,66.2,98,61.9,98,63.4L98,63.4z M103.2,65.3c-1,1.4-2.5,4.7-2.9,6.7l-0.4,1.8
				l1.2,1.2c1.2,1.2,1.3,1.2,2.4,1.2c0.8,0,1.3,0.1,1.2,0.2c-0.1,0.1-0.9,0.2-1.7,0.2c-1.6,0-1.6,0-2.6-1c-0.6-0.6-1.1-1.3-1.1-1.6
				c0-1.2,1.1-4.7,1.9-6.4c1.2-2.3,2.5-4.3,2.6-3.7C103.7,64.4,103.5,64.8,103.2,65.3L103.2,65.3z M102.7,67.9
				c-0.6,1.2-1.3,2.7-1.5,3.6l-0.4,1.6l1,1.1c0.8,0.9,1.1,1.1,1.8,1.1c0.6,0,0.9,0.1,0.9,0.4s-0.3,0.4-1.2,0.4
				c-1.1,0-1.3-0.1-2.2-1.1l-1.1-1.1l0.5-2c0.6-2.2,1.3-4,2.3-5.6C104,64.5,103.9,65.6,102.7,67.9z M104.4,66.4
				c0,0.1-0.6,1.2-1.2,2.3c-1.4,2.8-1.5,3.6-0.5,4.7l0.8,0.9h2.6c2.1,0,2.6,0.1,2.6,0.4c0,0.4-1.1,0.5-1.4,0.1
				c-0.1-0.1-0.7-0.2-1.5-0.2c-0.7,0-1.4,0.1-1.5,0.2c-0.1,0.1-0.5,0.2-1,0.2c-0.7,0-1-0.2-1.6-1.1l-0.9-1.1l0.4-1.3
				c0.8-2.6,2.2-5.4,2.7-5.4C104.4,66.2,104.5,66.3,104.4,66.4L104.4,66.4z M105.2,66.9c-0.8,1.3-1.6,2.6-1.9,3.6l-0.4,1.1l0.9,1.1
				l0.9,1.1h2c1.2,0,2,0.1,2,0.2s-1,0.2-2.5,0.2h-2.5l-0.8-0.9c-0.4-0.5-0.8-1.1-0.8-1.3c0-0.6,1.2-3.4,2-4.7
				c0.4-0.6,0.9-1.2,1.1-1.2C105.6,66.2,105.6,66.3,105.2,66.9L105.2,66.9z M108.7,66.6c0,0.2-0.2,0.4-0.7,0.4
				c-0.6,0-0.9,0.2-1.5,1.2c-0.4,0.6-0.7,1.3-0.7,1.5c0,0.6,1.7,2.1,2.3,2.1c0.3,0,0.6,0.1,0.6,0.4s-0.3,0.4-1.3,0.4
				c-1.1,0-1.4-0.1-2-0.8c-0.4-0.4-0.8-0.9-0.8-1.1c0-0.5,0.9-2.1,1.6-3.1c0.3-0.4,0.6-0.9,0.5-0.9c-0.2-0.2-1.6,1.8-2.1,3.2
				l-0.5,1.2l1.1,1.1c1,1,1.1,1.1,2.2,1.1c0.7,0,1.3,0.1,1.3,0.2s-0.8,0.2-1.8,0.2c-1.7,0-1.9,0-2.6-0.8c-0.4-0.4-0.8-1-0.8-1.3
				c0-0.6,1.3-3.4,2-4.4c0.5-0.7,0.7-0.8,1.9-0.8C108.4,66.2,108.7,66.3,108.7,66.6L108.7,66.6z M107.5,69.1v1.7l-0.7-0.6
				c-0.4-0.4-0.7-0.7-0.7-0.9c0-0.2,1.2-2.1,1.4-2.1C107.5,67.4,107.5,68.2,107.5,69.1z M108.2,67.8c0,0.2-0.1,0.4-0.2,0.4
				c-0.1,0-0.2-0.2-0.2-0.4s0.1-0.4,0.2-0.4C108.1,67.4,108.2,67.6,108.2,67.8z M108.7,67.9C108.6,68.1,108.6,68,108.7,67.9
				c-0.1-0.4-0.1-0.5,0-0.4C108.7,67.6,108.7,67.8,108.7,67.9z M108.7,69.6C108.6,69.8,108.6,69.7,108.7,69.6
				c-0.1-0.4-0.1-0.5,0-0.4C108.7,69.2,108.7,69.4,108.7,69.6z M108.2,69.4c0,0.1-0.1,0.2-0.2,0.3c-0.1,0.1-0.2,0-0.2-0.1
				c0-0.1,0.1-0.3,0.2-0.3C108.1,69.3,108.2,69.3,108.2,69.4z M135.4,70.8l0.2,0.6l-0.4-0.6c-0.2-0.3-0.4-0.8-0.4-1
				c0-0.3,0-0.3,0.2,0C135.2,70,135.4,70.4,135.4,70.8z M108.2,71c0,0.1-0.1,0.3-0.2,0.4c-0.1,0.1-0.2,0-0.2-0.2s0.1-0.4,0.2-0.4
				C108.1,70.8,108.2,70.9,108.2,71z M108.7,71.2C108.6,71.4,108.6,71.3,108.7,71.2c-0.1-0.4-0.1-0.5,0-0.4
				C108.7,70.9,108.7,71.1,108.7,71.2z M108.7,75.6c0,0.2-0.2,0.4-0.7,0.4c-0.5,0-0.7-0.1-0.7-0.4s0.2-0.4,0.7-0.4
				C108.5,75.3,108.7,75.4,108.7,75.6z M151.3,75.9c0.5,0.2,0.9,0.6,0.9,0.7c0,0.3-0.1,0.3-0.7,0c-0.4-0.2-1-0.4-1.3-0.4
				c-0.4,0-0.5,0-0.2-0.4C150.3,75.4,150.2,75.4,151.3,75.9L151.3,75.9z M108.7,76.5c0,0.1-0.3,0.2-0.7,0.2c-0.4,0-0.7-0.1-0.7-0.2
				s0.3-0.2,0.7-0.2C108.4,76.2,108.7,76.3,108.7,76.5z M108.7,77.2c0,0.1-0.3,0.2-0.8,0.2c-0.4,0-0.7-0.1-0.6-0.2
				c0.1-0.1,0.4-0.2,0.8-0.2S108.7,77.1,108.7,77.2z M151.5,77.9c0.3,0.1,0.6,0.4,0.6,0.6c0,0.3-0.2,0.3-1.1-0.1
				c-0.6-0.2-1.1-0.5-1.1-0.6C149.9,77.5,150.8,77.6,151.5,77.9z M108.7,79c0,0.4-1.1,0.5-1.3,0.1c-0.2-0.3,0.1-0.5,0.8-0.5
				C108.5,78.6,108.7,78.7,108.7,79z M108.7,79.8c0,0.1-0.3,0.2-0.7,0.2c-0.4,0-0.7-0.1-0.7-0.2c0-0.1,0.3-0.2,0.7-0.2
				C108.4,79.6,108.7,79.7,108.7,79.8z M147.1,79.8c0,0.1,0.7,0.2,1.5,0.2c0.8,0,1.5-0.1,1.5-0.2c0-0.1,0.2-0.2,0.6-0.2
				c0.6,0,1.7,0.6,1.5,0.8c-0.1,0.1-1.7,0-3.6,0c-2.3-0.1-3.4-0.2-3.5-0.4c0-0.2,0.2-0.3,1-0.3C146.5,79.6,147.1,79.7,147.1,79.8z
				 M108.7,80.7c0,0.1-0.3,0.2-0.6,0.2s-0.7-0.1-0.8-0.2c-0.1-0.1,0.2-0.2,0.6-0.2C108.4,80.5,108.7,80.6,108.7,80.7z M151.7,80.9
				c0.2,0.2,0.3,0.3,0.2,0.4c0,0-1.6,0-3.4,0c-2.4-0.1-3.4-0.2-3.5-0.5C144.8,80.4,151.2,80.5,151.7,80.9z M151.3,81.8
				c0.7,0.5,0.3,0.7-0.7,0.4c-0.4-0.1-1.9-0.3-3.2-0.3c-1.6,0-2.5-0.1-2.5-0.2C144.9,81.3,150.7,81.4,151.3,81.8L151.3,81.8z
				 M108.7,82.4c0,0.1-0.3,0.2-0.7,0.2c-0.4,0-0.7-0.1-0.7-0.2c0-0.1,0.3-0.2,0.7-0.2C108.4,82.2,108.7,82.3,108.7,82.4z
				 M139.8,82.4l0.6,0.2l-0.7,0.2c-0.8,0.2-3.2,2.7-4.3,4.6c-1.8,2.9-5.5,6-8.9,7.4c-1.9,0.8-3.2,1.1-3,0.7c0.1-0.3,2.5-1.2,2.7-1
				c0.1,0.2,1.6-0.4,1.7-0.8c0.1-0.1,0.8-0.7,1.6-1.2c2-1.3,4.7-4.1,5.8-6c1.2-1.8,3.1-4.2,3.5-4.2
				C139.2,82.2,139.6,82.3,139.8,82.4L139.8,82.4z M151,82.6c1,0.4,0.5,1-0.6,0.6c-0.4-0.1-1.8-0.3-3.1-0.3c-2.2,0-2.6-0.1-2.2-0.6
				C145.4,82,150.2,82.3,151,82.6L151,82.6z M108.7,83.4c0,0.1-0.6,0.2-1.4,0.2c-1.3,0-1.6,0.1-2.4,0.9l-1,0.9l0.5,0.7
				c0.3,0.4,0.4,0.8,0.3,1c-0.1,0.2-0.4-0.1-1-0.9c-0.4-0.7-0.8-1.3-0.8-1.4c0-0.1,0.2-0.5,0.6-0.9c0.5-0.7,0.6-0.7,2.9-0.7
				C107.9,83.2,108.7,83.3,108.7,83.4L108.7,83.4z M140.5,83.7c0.1,0.1-0.1,0.2-0.4,0.2c-0.6,0-2.5,2-3.9,4.1
				c-1.2,1.7-3.9,4.6-4.5,4.6c-0.2,0-0.9,0.4-1.5,1c-1.2,1.1-2.3,1.7-4.7,2.5c-1.9,0.7-2,0.7-2,0.2c0-0.2,0.3-0.4,0.7-0.5
				c1.4-0.3,4-1.5,5.8-2.5c2.1-1.4,4.6-3.8,6-6.1c0.6-1,1.6-2.1,2-2.8c0.8-0.9,1.1-1.1,1.6-1C140.1,83.4,140.4,83.6,140.5,83.7
				L140.5,83.7z M150.5,83.6c1.1,0.4,0.9,1-0.2,0.6c-0.4-0.1-1.8-0.2-3.2-0.2c-2.2,0-2.5,0-2.2-0.4C145.4,83,149.3,83,150.5,83.6
				L150.5,83.6z M107.5,84.4c-0.1,0.3-0.1,0.8-0.1,1c0,0.3-0.2,0.4-0.8,0.4c-0.5,0-0.9,0.1-1,0.3c-0.1,0.4-1,0-1.1-0.6
				c-0.1-0.5,1.6-1.6,2.4-1.6C107.6,83.8,107.6,83.9,107.5,84.4z M108.7,84.4C108.6,84.6,108.6,84.5,108.7,84.4
				c-0.1-0.4-0.1-0.5,0-0.4C108.7,84,108.7,84.2,108.7,84.4z M108.2,84.3c0,0.1,0,0.2-0.1,0.2c-0.1,0-0.2-0.1-0.3-0.2
				c-0.1-0.1,0-0.2,0.1-0.2C108.1,84.1,108.2,84.2,108.2,84.3z M150.3,84.4c0.4,0.2,0.8,0.4,0.8,0.5s-0.2,0.1-0.5,0
				s-2.8-0.2-5.5-0.3l-4.9-0.1l-1.2,1.3c-0.6,0.7-1.6,1.8-2,2.6c-2.7,4.1-6.9,7.1-11.5,8.5c-1.9,0.6-1.8,0.6-1.8,0.2
				c0-0.1,0.7-0.5,1.6-0.7c0.8-0.2,2.3-0.9,3.3-1.4c1-0.5,1.9-0.9,2-0.9c0.4,0,1.8-1,1.8-1.3c0-0.1,0.7-0.9,1.5-1.6s2.1-2.3,2.9-3.5
				c0.8-1.2,1.8-2.4,2.3-2.9l0.9-0.9h4.9C147.9,84.1,149.8,84.2,150.3,84.4L150.3,84.4z M150.1,85.1c0.4,0.2,0.8,0.3,0.8,0.4
				c0,0.1-2.3,0.1-5.1,0l-5-0.1l-1.4,1.5c-0.7,0.8-1.8,2-2.3,2.9c-0.6,0.8-1.2,1.5-1.3,1.4c-0.2-0.1-2,1.6-1.8,1.8
				c0.2,0.3-2.9,2.4-5,3.5c-1.8,0.9-4.3,1.6-6.3,2c-0.6,0.1-0.8,0-0.8-0.2c0-0.2,0.2-0.4,0.5-0.4c0.9,0,4-1,5.6-1.6
				c3.4-1.6,7-4.6,9-7.5c0.5-0.8,1.6-2,2.1-2.7l1.3-1.3h4.5C147.7,84.8,149.5,84.9,150.1,85.1L150.1,85.1z M138.8,91.7
				c0.2,0.4-3.5,4-5.5,5.2c-6.3,4.3-13.9,5.5-21,3.5c-2.6-0.8-6.7-2.7-6.4-3c0.1-0.1,0.9,0.1,2.1,0.7c1.8,0.9,4.8,1.9,6.5,2.2
				l0.8,0.1v-1.4v-1.4l0.1,1.3l0.1,1.3l1.1,0.2c2.3,0.3,2.2,0.4,2.1-1.6c0-1,0-1.6,0-1.6c0.4,0,0.8,1.1,0.8,2.1
				c0,0.9,0.1,1.3,0.4,1.4c0.2,0.1,1.3,0,2.4-0.1c5.5-0.7,11-3.6,14.6-7.5C138.4,91.5,138.6,91.4,138.8,91.7L138.8,91.7z
				 M108.8,91.9c-1.1,0-2,0.2-2,0.3c0,0.2,2.2,1.6,3.9,2.4c1.3,0.6,1.7,1.4,0.6,1c-1.6-0.6-4.9-2.6-5.6-3.4
				c-0.3-0.4-0.1-0.4,2.4-0.3C110.5,91.8,110.6,91.8,108.8,91.9L108.8,91.9z M119.1,92.2c0,0.5-0.3,0.6-1.7,0.3
				c-1.5-0.2-1.2-0.8,0.4-0.8C118.9,91.7,119.1,91.8,119.1,92.2z M123.8,93.3c0,0.4-0.1,0.1-0.1-0.5c0-0.7,0-1,0.1-0.7
				S123.9,93,123.8,93.3z M110.6,92.8c0.1,0.6,0,1.4-0.3,1.4c-0.3,0-2.7-1.6-2.7-1.7c0-0.1,0.7-0.2,1.5-0.2
				C110.3,92.2,110.4,92.3,110.6,92.8L110.6,92.8z M126.9,92.6c-0.4,0.2-1.1,0.5-1.6,0.7c-0.8,0.3-1,0.3-1,0c0-0.2,0.2-0.4,0.4-0.4
				s0.4-0.2,0.4-0.4c0-0.3,0.3-0.4,1.3-0.4h1.3L126.9,92.6L126.9,92.6z M119.1,93.3c0,0.3-0.1,0.3-0.5,0.2c-0.3-0.1-0.9-0.1-1.4-0.1
				s-0.8-0.1-0.8-0.3c0-0.2,0.4-0.3,1.4-0.2C118.7,93,119.1,93.1,119.1,93.3z M111.4,93.2c0,0.2-0.1,0.4-0.2,0.4
				c-0.1,0-0.2-0.2-0.2-0.4c0-0.2,0.1-0.4,0.2-0.4C111.3,93,111.4,93.1,111.4,93.2z M111.8,93.4C111.7,93.6,111.7,93.5,111.8,93.4
				c-0.1-0.4-0.1-0.5,0-0.4C111.8,93.1,111.8,93.2,111.8,93.4z M104.7,94c0.9,0.8,2.6,1.8,4.1,2.6c1.8,1,4.5,1.8,4.7,1.6
				c0.3-0.4,0.6-0.2,0.6,0.4s-0.1,0.6-0.7,0.5c-1.6-0.4-4.6-1.6-5.9-2.3c-1.6-0.9-1.7-1-1.5-0.6c0.1,0.2,0.1,0.2,0,0.1
				c-0.1-0.1-0.2-0.3-0.2-0.5c0-0.2-0.2-0.3-0.4-0.3s-0.4,0-0.4-0.2c0-0.1-0.4-0.6-1.1-1.2c-0.9-0.8-1-1-0.5-0.8
				C103.8,93.4,104.4,93.7,104.7,94L104.7,94z M118.1,93.8c0.5,0.1,0.9,0.3,0.9,0.4c0,0.3-2.4,0.1-2.6-0.2
				C116.4,93.6,116.8,93.5,118.1,93.8z M119.1,95c0,0.4-1.1,0.5-2,0.2c-1-0.3-0.6-0.6,0.8-0.6C118.7,94.6,119.1,94.7,119.1,95z
				 M118.1,95.6c0.7,0,1,0.1,1,0.4s-0.2,0.4-0.9,0.2c-0.5-0.1-1.1-0.1-1.4-0.1c-0.2,0-0.4-0.2-0.4-0.4c0-0.3,0.1-0.3,0.4-0.2
				C117.1,95.5,117.6,95.6,118.1,95.6L118.1,95.6z M111.6,98.8c2.4,0.9,2.8,0.8,2.8-0.1c0-0.4,0.1-0.7,0.2-0.7
				c0.1,0,0.2,0.5,0.2,1.1v1.2l-1-0.2c-2.6-0.4-7.5-2.5-7.6-3.3c0-0.3,0.4-0.1,1.6,0.5C109,97.7,110.7,98.4,111.6,98.8L111.6,98.8z
				 M118.5,96.5c0.3,0,0.6,0.1,0.6,0.2s-0.6,0.2-1.4,0.2c-1.1,0-1.4-0.1-1.4-0.4c0-0.3,0.2-0.4,0.8-0.2
				C117.6,96.4,118.1,96.5,118.5,96.5L118.5,96.5z M118.2,97.5c0.1,0.2,0,0.2-0.5,0.2c-0.3-0.1-0.7,0-0.8,0.1
				c-0.2,0.4-0.8,0.2-0.7-0.1C116.5,97.1,117.9,97.1,118.2,97.5z M116.8,98.4c-0.2,0-0.5,0-0.6,0c-0.2-0.1,0-0.1,0.3-0.1
				C116.8,98.2,116.9,98.3,116.8,98.4z M117.1,99.2c0,0.2-0.2,0.4-0.5,0.4c-0.4,0.1-0.6,0-0.6-0.4s0.1-0.5,0.6-0.4
				C116.8,98.8,117.1,99,117.1,99.2z M118.3,99.2c0,0.1-0.2,0.2-0.5,0.2c-0.3,0-0.4-0.1-0.3-0.2s0.3-0.2,0.5-0.2
				S118.3,99,118.3,99.2z M116.8,100c-0.2,0-0.5,0-0.6,0c-0.2-0.1,0-0.1,0.3-0.1C116.8,99.9,116.9,99.9,116.8,100z"/>
			<path class="fillable" d="M115.7,44.2c-0.8,0.1-0.8,0.1-0.7,0.8c0.1,0.4,0.1,1,0.1,1.2c0,0.3,0.1,0.5,0.3,0.5c0.2,0,0.2-0.4,0.1-1.1
				c-0.1-1.1-0.1-1.1,0.4-1c0.5,0,0.6,0.2,0.6,1c0,0.5,0.2,0.9,0.3,0.9c0.2,0,0-1.9-0.2-2.1C116.6,44.2,116.2,44.1,115.7,44.2
				L115.7,44.2z"/>
			<path class="fillable" d="M117.4,44.2c0,0.1,0.1,0.2,0.3,0.2c0.2,0,0.4,0.3,0.4,0.9c0,0.5,0.2,1,0.4,1c0.3,0.1,0.3-0.5-0.1-1.5
				c-0.1-0.3-0.1-0.4,0.2-0.4c0.2,0,0.4-0.1,0.4-0.2S118.5,44,118,44C117.7,44,117.4,44.1,117.4,44.2L117.4,44.2z"/>
			<path class="fillable" d="M119.6,44.8c-0.2,0.9,0,1.6,0.4,1.6c0.1,0,0.2-0.2,0.2-0.5c0-0.3,0.2-0.5,0.5-0.5s0.5,0.2,0.5,0.5c0,0.3,0.1,0.5,0.1,0.4
				c0.1-0.1,0-0.7,0-1.3c-0.2-1-0.2-1.1-0.9-1.1C119.9,44,119.8,44.1,119.6,44.8L119.6,44.8z M120.9,44.7c0,0.3-0.3,0.5-0.6,0.4
				c-0.5-0.2-0.4-0.6,0.1-0.6C120.7,44.5,120.9,44.6,120.9,44.7L120.9,44.7z"/>
			<path class="fillable" d="M122.2,44.8c-0.4,0.8-0.4,1.5,0,1.6c0.1,0.1,0.2-0.1,0.2-0.3c0-0.3,0.1-0.5,0.5-0.5c0.3,0,0.5,0.2,0.5,0.5
				c0,0.4,0,0.5,0.2,0.2c0.1-0.2,0.1-0.8,0.1-1.3c-0.1-0.7-0.2-0.9-0.7-0.9C122.7,44.2,122.4,44.5,122.2,44.8L122.2,44.8z M123.4,45
				c0,0.1-0.2,0.2-0.4,0.2c-0.2,0-0.4-0.2-0.4-0.4s0.1-0.3,0.4-0.2C123.2,44.7,123.4,44.9,123.4,45z"/>
			<path class="fillable" d="M113.2,44.7c-0.1,0.2,0.2,1.9,0.4,2.1c0.1,0.1,0.4,0,0.7-0.1c0.5-0.2,0.5-0.3,0.1-0.3c-0.3,0-0.4-0.1-0.3-0.5
				c0.1-0.3,0-0.5-0.2-0.5c-0.6,0-0.4-0.7,0.2-0.8c0.5-0.1,0.5-0.1-0.1-0.1C113.6,44.5,113.3,44.6,113.2,44.7L113.2,44.7z"/>
			<path class="fillable" d="M124.4,44.7c-0.1,0.1-0.2,0.7-0.3,1.2c-0.1,0.9-0.1,1,0.5,1.1c0.3,0.1,0.6,0,0.6-0.1c0-0.1-0.1-0.2-0.3-0.2
				c-0.3,0-0.3-0.3-0.3-1.1C124.7,44.5,124.7,44.3,124.4,44.7L124.4,44.7z"/>
			<path class="fillable" d="M111.5,44.9c-0.4,0.1-0.4,0.3-0.3,1c0.1,0.5,0.2,1,0.4,1.1c0.3,0.3,1.3,0.1,1.4-0.3c0.1-0.3,0-0.3-0.2-0.1
				c-0.5,0.4-0.6,0.4-0.9-0.3c-0.4-0.9-0.4-1.1,0.3-1.1c0.3,0,0.6-0.1,0.5-0.2C112.6,44.7,112.3,44.7,111.5,44.9z"/>
			<path class="fillable" d="M126.2,45.3c-0.4,1.2-0.4,1.7-0.2,1.7c0.4,0,0.5-0.6,0.4-1.5C126.4,45,126.3,44.9,126.2,45.3z"/>
			<path class="fillable" d="M109.7,45.5c-0.4,0.2-0.4,0.3,0,1.3c0.3,0.9,0.4,1,1,0.9c0.3,0,0.6-0.2,0.6-0.3c0-0.1-0.2-0.2-0.4-0.1
				c-0.5,0.2-0.8-0.3-0.3-0.6c0.2-0.1,0.2-0.2-0.2-0.2c-0.3,0-0.6-0.1-0.6-0.4c0-0.2,0.1-0.4,0.3-0.4c0.2,0,0.4-0.1,0.5-0.2
				C110.8,45.1,110.2,45.2,109.7,45.5L109.7,45.5z"/>
			<path class="fillable" d="M127.6,45.6l0.6,0.3l-0.5,0.1c-0.6,0.2-1.1,1-0.9,1.4c0.1,0.1,0.4,0.2,0.7,0.2c0.3,0,0.4-0.1,0.2-0.1
				c-0.5-0.2-0.3-1,0.3-1.3c0.3-0.1,0.6-0.4,0.6-0.5c0-0.2-0.6-0.5-1.2-0.5C127.2,45.2,127.2,45.3,127.6,45.6L127.6,45.6z"/>
			<path class="fillable" d="M108.1,45.9c-0.8,0.3-0.8,0.2-0.3,1.4c0.4,0.9,0.5,1,1.1,0.9c0.9-0.2,0.9-0.2,0.5-1.3C108.8,45.8,108.7,45.7,108.1,45.9z
				 M108.8,46.6c0.2,0.8,0.2,1.2-0.1,1.2c-0.3,0-1.1-1.2-0.9-1.5C108.1,45.9,108.7,46.1,108.8,46.6z"/>
			<path class="fillable" d="M128.8,46.6c-0.2,0.6-0.3,1.1-0.3,1.2c0.2,0.3,1.1,0.5,1.1,0.2c0-0.1-0.1-0.2-0.2-0.2s-0.2-0.2-0.2-0.4
				c0-0.2,0.2-0.4,0.4-0.4c0.4,0,0.3,0-0.1-0.3c-0.4-0.3-0.4-0.4,0-0.5c0.2-0.1,0.5-0.1,0.7,0c0.1,0.1,0.2,0,0.2-0.1
				c0-0.1-0.1-0.3-0.2-0.3s-0.4,0-0.6-0.1C129.3,45.7,129.1,45.9,128.8,46.6L128.8,46.6z"/>
			<path class="fillable" d="M130.4,47.4c-0.2,0.6-0.4,1.1-0.3,1.1c0.4,0.3,1.3,0.6,1.4,0.4c0.1-0.1,0.3-0.6,0.5-1c0.3-0.7,0.3-0.9-0.1-1.2
				C131.1,46.2,130.8,46.3,130.4,47.4L130.4,47.4z M131.7,47.8c-0.1,0.4-0.4,0.7-0.6,0.7c-0.3,0-0.3-0.4-0.1-1.7
				c0-0.1,0.2-0.1,0.5,0.1C131.9,47,131.9,47.2,131.7,47.8L131.7,47.8z"/>
			<path class="fillable" d="M115.8,47.3c-0.5,0.1-0.9,0.3-1.1,0.6c-0.3,0.5-1.5,0.7-1.5,0.2c0-0.3-0.7-0.3-2.1,0.1c-0.8,0.2-1.3,0.5-1.3,0.8
				c0,0.5-1.2,0.9-1.6,0.6c-0.4-0.4-3.1,0.9-3,1.5c0.1,0.5-0.7,1-1.4,0.9c-0.8-0.2-3,1.3-2.8,1.8c0.1,0.6-1,1.6-1.4,1.2
				c-0.5-0.4-2.6,1.8-2.4,2.4c0.2,0.5-0.5,1.4-1.1,1.2c-0.5-0.1-2.2,2.3-1.9,2.7c0.4,0.4-0.3,1.6-0.8,1.6c-0.3,0-0.7,0.4-1.1,1.2
				c-0.7,1.3-0.8,1.8-0.3,1.9c0.4,0.1-0.2,1.4-0.7,1.5c-0.3,0-0.6,0.6-0.9,1.6c-0.4,1.4-0.4,1.6,0,1.6c0.5,0.3,0.2,1.7-0.3,1.7
				c-0.3,0-0.6,1.2-0.6,2.5c0,0.6,0.1,0.8,0.4,0.8c0.5,0,0.5,1.4,0,1.6c-0.3,0.2-0.4,0.5-0.2,1.8c0.1,1.1,0.3,1.6,0.5,1.6
				c0.4,0,0.7,1.2,0.3,1.6c-0.4,0.5,0.2,3,0.8,3.1c0.6,0.1,1,1.3,0.7,1.7c-0.3,0.5,0.9,3.2,1.4,3s1.3,1,0.9,1.4
				c-0.4,0.5,1.4,2.9,2,2.8c0.5-0.1,1.4,1,1.1,1.3c-0.3,0.3,2,2.6,2.4,2.4c0.4-0.3,1.5,0.6,1.3,1.1c-0.2,0.6,2.2,2.3,2.7,1.9
				c0.4-0.4,1.5,0.3,1.5,0.9s3,1.8,3.1,1.5c0.2-0.5,1.6,0,1.6,0.6c0,0.6,2.9,1.4,3.2,0.9c0.3-0.4,1.6-0.2,1.6,0.2
				c0,0.2,0.2,0.4,0.4,0.5c0.6,0.2,3.2,0.2,3.2-0.1c0-0.1,0.3-0.2,0.7-0.2s0.7,0.1,0.7,0.2c0,0.3,2.6,0.3,3.2,0.1
				c0.2-0.1,0.4-0.3,0.4-0.5c0-0.4,1.3-0.6,1.6-0.2c0.4,0.5,3.2-0.3,3.2-0.9c0-0.6,1.4-1.1,1.6-0.6s3.1-0.9,3.1-1.5s1-1.3,1.5-0.9
				c0.4,0.4,2.8-1.3,2.7-1.8c-0.1-0.5,0.9-1.4,1.3-1.1c0.4,0.2,2.6-2,2.3-2.4c-0.3-0.3,0.7-1.4,1.2-1.3c0.2,0,0.7-0.5,1.3-1.3
				c0.7-1,0.9-1.4,0.7-1.6c-0.4-0.4,0.3-1.5,0.9-1.5c0.3,0,0.6-0.4,1-1.4c0.6-1.4,0.6-1.5,0.2-1.7c-0.2-0.2-0.6-0.3-0.8-0.3
				c-0.4,0-1.6,2.5-1.4,3.1c0.2,0.6-0.3,1.5-0.7,1.3c-0.5-0.2-2.1,2.1-1.9,2.7c0.2,0.5-0.6,1.4-1,1.2c-0.3-0.2-2.5,2.1-2.3,2.4
				c0.2,0.3-0.7,1.1-1.2,0.9c-0.5-0.2-2.8,1.5-2.8,2c0,0.5-1.2,1.1-1.3,0.7c-0.1-0.4-3,1-3,1.5c0,0.2-0.3,0.5-0.6,0.6
				c-0.5,0.2-0.7,0.2-0.8,0c-0.1-0.3-0.5-0.3-1.7,0.1c-0.9,0.2-1.6,0.6-1.6,0.7c0,0.4-1,0.7-1.4,0.3c-0.5-0.4-3-0.2-3.3,0.2
				c-0.3,0.4-1.3,0.4-1.6,0c-0.3-0.4-2.8-0.6-3.3-0.2c-0.4,0.3-1.4,0.1-1.4-0.3c0-0.1-0.7-0.5-1.6-0.7c-1.3-0.4-1.6-0.4-1.7-0.1
				c-0.2,0.2-0.3,0.2-0.8,0c-0.3-0.1-0.6-0.4-0.6-0.6c0-0.4-2.9-1.8-3-1.5s-1.3-0.1-1.3-0.7c0-0.5-2.3-2.2-2.8-2
				c-0.4,0.1-1.4-0.6-1.2-0.9c0.2-0.3-2-2.6-2.3-2.4c-0.4,0.2-1.2-0.7-1-1.2c0.2-0.6-1.6-2.9-1.9-2.7c-0.4,0.2-0.9-0.7-0.7-1.3
				c0.2-0.6-1-3.1-1.5-3.1c-0.5,0-0.9-1-0.6-1.4c0.2-0.2,0.1-0.7,0-1.6c-0.3-1.4-0.7-1.9-1-1.7c-0.4,0.2-0.4-1.2-0.1-1.5
				c0.5-0.3,0.2-3.2-0.3-3.4s-0.4-1.6,0-1.6c0.2,0,0.4-0.2,0.4-0.6c0-0.3,0.1-1.1,0.1-1.6c0.1-1,0.1-1.1-0.3-1.1
				c-0.3,0-0.4-0.1-0.3-0.4c0.1-0.2,0.1-0.5,0.1-0.7c0-0.2,0.2-0.3,0.4-0.3c0.2,0,0.5-0.5,0.7-1.3c0.4-1.5,0.5-2,0.1-2.1
				c-0.2,0-0.2-0.3,0-0.7c0.2-0.4,0.4-0.6,0.6-0.5c0.4,0.1,1.6-2.4,1.5-3c-0.2-0.6,0.3-1.5,0.7-1.4c0.4,0.1,2.1-2.2,2-2.7
				c-0.1-0.6,0.5-1.4,0.9-1.3c0.5,0.2,2.5-1.7,2.3-2.3c-0.1-0.5,1-1.4,1.2-1c0.2,0.4,2.7-1.5,2.7-1.9s0.8-1,1.3-0.8
				c0.6,0.2,3-0.9,3-1.4c0-0.5,1.1-0.9,1.5-0.5c0.4,0.4,3.2-0.5,3.3-1s1.4-0.6,1.6-0.1c0.1,0.4,3.3,0,3.3-0.4c0-0.2,0.3-0.3,0.7-0.3
				c0.5,0,0.7,0.1,0.7,0.3c0,0.4,3.2,0.8,3.3,0.4c0.1-0.4,1.5-0.3,1.6,0.1c0.1,0.5,2.9,1.4,3.3,1c0.4-0.4,1.5,0,1.5,0.5
				c0,0.5,2.4,1.6,3,1.4c0.5-0.2,1.3,0.3,1.3,0.8s2.4,2.2,2.8,1.9c0.4-0.4,1.4,0.4,1.2,1c-0.2,0.6,1.8,2.5,2.3,2.3
				c0.4-0.2,1.2,0.7,1,1.2c-0.2,0.5,1.6,3,1.9,2.8c0.4-0.2,1.2,1,0.8,1.4c-0.3,0.3,1,3.2,1.5,3c0.1,0,0.4,0.2,0.6,0.5
				c0.2,0.5,0.2,0.7,0,0.7c-0.4,0.1-0.3,0.7,0.1,2.1c0.2,0.8,0.5,1.3,0.7,1.3s0.4,0.2,0.4,0.4c0,0.2-0.2,0.4-0.4,0.4
				c-0.3,0-0.6-0.5-1.1-2.3c-1.4-4.7-4.1-9.2-7.7-12.6c-4.4-4.2-9.7-6.5-16.1-7.3c-6.2-0.8-13.6,1.4-18.8,5.2
				c-13.3,9.9-14.7,29.2-3,40.9c4,4,9.4,6.8,14.8,7.7c10.3,1.6,20.6-2.6,26.6-11c1.3-1.7,3.1-5.1,2.8-5.1c-0.1,0-0.6,0.9-1.2,1.8
				c-5.9,11.4-19.8,17.1-32.2,13c-13.5-4.4-21.3-18.7-17.7-32.3c2.2-8.7,8.9-15.8,17.5-18.7c5-1.7,12-1.7,17.1,0
				c8.8,3,15.6,10.3,17.7,19.2c0.4,1.5,0.5,1.7,1,1.8c0.8,0.2,1,0,0.9-0.6c-0.1-0.3,0-0.6,0.2-0.7c0.3-0.2,0.3-0.4,0-1.7
				c-0.3-1-0.6-1.6-0.9-1.6c-0.5-0.1-1.1-1.4-0.7-1.5s0.3-0.7-0.3-1.9c-0.4-0.8-0.8-1.2-1.1-1.2c-0.5,0-1.2-1.2-0.8-1.6
				c0.4-0.4-1.4-2.9-1.9-2.7c-0.6,0.1-1.3-0.7-1.1-1.2c0.2-0.6-1.9-2.8-2.4-2.4c-0.4,0.3-1.6-0.6-1.4-1.2s-2-2-2.8-1.8
				c-0.7,0.2-1.5-0.4-1.4-0.9c0.1-0.5-2.6-1.7-3-1.5c-0.4,0.4-1.6,0-1.6-0.6c0-0.2-0.5-0.5-1.3-0.8c-1.5-0.4-2.1-0.5-2.1-0.1
				s-1.2,0.3-1.5-0.2c-0.4-0.7-3.1-1-3.5-0.4c-0.4,0.5-1.5,0.5-1.6,0C118.1,47.1,117.5,47,115.8,47.3L115.8,47.3z"/>
			<path class="fillable" d="M105.1,48.3c0,0.1,0.1,0.3,0.2,0.4c0.1,0.1,0.2,0,0.2-0.2s-0.1-0.4-0.2-0.4C105.3,48.1,105.1,48.2,105.1,48.3z"/>
			<path class="fillable" d="M133.6,48.9c0,0.2,0.1,0.4,0.2,0.4c0.1,0,0.2-0.2,0.2-0.4s-0.1-0.4-0.2-0.4C133.7,48.6,133.6,48.7,133.6,48.9z"/>
			<path class="fillable" d="M102,48.9c0,0.3,1,1.8,1.2,1.8c0.4,0,1-0.3,1-0.5c0-0.1-0.1-0.1-0.3,0c-0.1,0.1-0.6-0.2-1.1-0.7
				C102.4,49,102,48.8,102,48.9L102,48.9z"/>
			<path class="fillable" d="M135.7,50.1c-0.4,0.6-0.5,0.9-0.3,1c0.1,0.1,0.4,0,0.5-0.2c0.2-0.3,0.3-0.4,0.6-0.1c0.3,0.2,0.4,0.2,0.7,0
				c0.5-0.4,0.5-0.9-0.1-1.2C136.4,49.1,136.3,49.1,135.7,50.1L135.7,50.1z M137,49.8c0.2,0.2,0.2,0.4,0,0.5c-0.4,0.2-1-0.1-0.8-0.5
				C136.4,49.4,136.6,49.4,137,49.8z"/>
			<path class="fillable" d="M100.7,49.8c-0.2,0.2-0.2,0.5,0,0.8c0.1,0.2,0.3,0.6,0.4,0.9c0.1,0.2,0.3,0.4,0.5,0.4c0.3,0,0.3-0.1,0.1-0.4
				c-0.4-0.7,0.2-1.2,0.8-0.6c0.7,0.7,0.5,0-0.2-0.7C101.4,49.4,101.1,49.3,100.7,49.8L100.7,49.8z M101.5,50.4
				c-0.1,0.2-0.3,0.2-0.4,0c-0.1-0.1-0.2-0.4-0.1-0.5c0.1-0.2,0.3-0.2,0.4,0C101.6,50,101.6,50.3,101.5,50.4z"/>
			<path class="fillable" d="M137.4,51.2c-0.6,0.7-0.6,0.8-0.2,1.2c0.5,0.5,1,0.6,0.6,0.1c-0.3-0.4-0.1-1,0.3-0.7c0.1,0.1,0.2-0.1,0.1-0.5
				c-0.1-0.6,0.2-0.9,0.5-0.4c0.1,0.1,0.3,0.2,0.4,0.2c0.3,0-0.5-0.7-0.8-0.7C138.1,50.4,137.7,50.8,137.4,51.2L137.4,51.2z"/>
			<path class="fillable" d="M98.7,51.2c-0.7,0.6-0.7,0.8-0.1,0.6c0.3-0.1,0.6,0.1,1,0.5c0.3,0.3,0.6,0.6,0.8,0.6c0.5,0,0.3-0.5-0.5-1
				c-0.6-0.4-0.7-0.6-0.5-0.9C99.8,50.5,99.4,50.6,98.7,51.2L98.7,51.2z"/>
			<path class="fillable" d="M138.7,52.3l-0.6,0.8l0.5,0.5l0.5,0.5l-0.2-0.7c-0.1-0.6-0.1-0.7,0.2-0.6c0.4,0.2,0.5-0.1,0.1-0.5
				c-0.2-0.2-0.2-0.3,0-0.4c0.1-0.1,0.4,0,0.6,0.1c0.4,0.4,0.8,0.3,0.4-0.1C139.9,51.5,139.4,51.6,138.7,52.3L138.7,52.3z"/>
			<path class="fillable" d="M97.5,52.2c0,0.4,1.6,1.7,1.7,1.6c0.1-0.1-0.3-0.6-0.8-1C98,52.4,97.5,52.2,97.5,52.2z"/>
			<path class="fillable" d="M96.4,53.3c-0.4,0.5-0.4,0.5,0.3,1.3l0.8,0.8l0.5-0.5c0.4-0.4,0.5-0.6,0.2-0.9c-0.2-0.2-0.4-0.4-0.6-0.4
				c-0.1,0,0,0.2,0.2,0.5c0.6,0.6,0.1,0.9-0.7,0.4c-0.7-0.5-0.7-0.5-0.2-1.1c0.2-0.2,0.3-0.4,0.1-0.4C97,52.8,96.7,53,96.4,53.3
				L96.4,53.3z"/>
			<path class="fillable" d="M140.2,53.5c-0.7,0.7-0.7,1.3,0,0.8c0.5-0.4,1.1,0.3,0.7,0.8c-0.2,0.2-0.2,0.4-0.2,0.4c0.1,0,0.4-0.4,0.8-0.9
				c0.6-0.8,0.6-0.9,0.2-1.4C141.1,52.7,141.1,52.7,140.2,53.5L140.2,53.5z M141.4,54c-0.3,0.3-1-0.3-0.7-0.8
				c0.1-0.2,0.3-0.1,0.6,0.1C141.5,53.7,141.6,53.9,141.4,54z"/>
			<path class="fillable" d="M95.9,55.3c0.7,0.7,1.4,1,1.4,0.5c0-0.2-1.6-1.3-1.8-1.3C95.4,54.5,95.5,54.8,95.9,55.3z"/>
			<path class="fillable" d="M94.3,55.5c-0.4,0.5-0.3,0.6,0.3,1.2c0.8,0.8,1.1,0.9,1.6,0.2c0.4-0.5,0.4-0.5-0.4-1.2C94.9,54.9,94.8,54.9,94.3,55.5z
				 M95.5,55.9c0.8,0.7,0.4,1.1-0.5,0.6c-0.7-0.3-0.9-0.6-0.6-0.9C94.8,55.3,95.1,55.4,95.5,55.9L95.5,55.9z"/>
			<path class="fillable" d="M144,56.2c0.1,0.3-0.1,0.6-0.6,1c-0.4,0.3-0.7,0.6-0.7,0.7c0,0.4,0.5,0.2,1.1-0.5c0.5-0.5,0.7-0.6,0.8-0.3
				c0.1,0.2,0.3,0.3,0.4,0.2c0.1-0.1-0.1-0.5-0.5-0.8C144.1,56,143.9,56,144,56.2L144,56.2z"/>
			<path class="fillable" d="M144.4,58.4c-0.8,0.6-0.8,0.9-0.3,1.5c0.4,0.4,0.4,0.4,1.2-0.1c0.9-0.6,1-1.1,0.5-1.6C145.4,57.7,145.2,57.8,144.4,58.4
				L144.4,58.4z M145.5,58.8c-0.2,0.7-0.9,1.1-1.3,0.6c-0.2-0.3-0.1-0.4,0.4-0.8C145.4,58.1,145.7,58.1,145.5,58.8L145.5,58.8z"/>
			<path class="fillable" d="M93.3,58.5c-0.1,0.3,0.2,0.6,0.5,0.3c0.2-0.2,0.2-0.6-0.1-0.6C93.5,58.4,93.4,58.5,93.3,58.5L93.3,58.5z"/>
			<path class="fillable" d="M90.7,60.7l-0.4,0.7l0.8,0.5c0.9,0.6,1.5,0.7,1.3,0.2c-0.1-0.2-0.5-0.4-0.9-0.5c-0.9-0.2-0.9-0.3-0.5-1
				c0.2-0.5,0.3-0.5,1.1,0c1.1,0.7,1.4,0.5,0.2-0.2C91.4,59.8,91.3,59.8,90.7,60.7L90.7,60.7z"/>
			<path class="fillable" d="M146.5,61.6c-1,0.5-1.3,1.1-0.3,0.8c0.4-0.1,0.6,0,0.7,0.2c0.1,0.3,0.3,0.3,0.8,0.1c0.7-0.3,0.8-0.5,0.2-1.1l-0.4-0.5
				L146.5,61.6L146.5,61.6z M147.7,62.2c0,0.2-0.1,0.4-0.3,0.4c-0.4,0-0.7-0.6-0.5-0.8C147.3,61.6,147.7,61.7,147.7,62.2L147.7,62.2
				z"/>
			<path class="fillable" d="M89.8,62.2c0,0.3,1.9,1.2,2.2,1c0.3-0.2-0.2-0.6-1-0.7c-0.2,0-0.6-0.1-0.8-0.2C90,62.1,89.8,62.1,89.8,62.2z"/>
			<path class="fillable" d="M89.4,63.5c-0.4,0.8-0.4,0.8,0.5,1.2c1,0.5,1.5,0.5,1.6-0.2c0.3-0.6,0.2-0.8-1-1.3C89.7,62.9,89.6,62.9,89.4,63.5z
				 M90.9,63.7c0.4,0.2,0.5,0.7,0.2,1c-0.3,0.1-1.5-0.4-1.5-0.6s0.4-0.4,0.8-0.4C90.4,63.6,90.7,63.7,90.9,63.7z"/>
			<path class="fillable" d="M147.4,63.5c-0.8,0.4-1.1,1.1-0.5,1.5c0.2,0.1,0.2,0,0.1-0.2c-0.2-0.5,0.4-0.7,0.8-0.3c0.2,0.2,0.3,0.2,0.1-0.3
				c-0.2-0.6,0.5-0.8,0.7-0.1c0.1,0.2,0.2,0.3,0.3,0.3c0.2-0.2-0.3-1.2-0.6-1.1C148.2,63.1,147.8,63.3,147.4,63.5L147.4,63.5z"/>
			<path class="fillable" d="M88.7,65.3c-0.1,0.4-0.2,0.7-0.1,0.9c0.2,0.3,1.8,0.8,2,0.6c0.3-0.4,0.5-1.3,0.3-1.3c-0.1,0-0.3,0.2-0.3,0.4
				c0,0.2-0.3,0.4-0.9,0.4c-0.7,0-0.9-0.1-0.9-0.5c0-0.3,0.1-0.5,0.3-0.6c0.2-0.1,0.2-0.1,0-0.3C89,64.8,88.8,64.9,88.7,65.3
				L88.7,65.3z"/>
			<path class="fillable" d="M148.1,65.1c-0.8,0.3-1,0.5-0.9,0.7c0.1,0.2,0.1,0.5,0.1,0.6s0.1,0.2,0.3,0.2c0.1,0,0.2-0.2,0.1-0.4
				c-0.2-0.5,0.3-0.8,0.6-0.3c0.1,0.2,0.2,0.2,0.2-0.2c0-0.3,0.1-0.5,0.4-0.5c0.2,0,0.4,0.2,0.4,0.4c0,0.2,0.1,0.4,0.2,0.4
				c0.2,0,0.1-0.9-0.2-1.1C149.1,64.8,148.7,64.9,148.1,65.1L148.1,65.1z"/>
			<path class="fillable" d="M88,67.4c-0.4,1.1-0.4,1.5,0,0.9c0.3-0.3,0.4-0.4,1-0.2c0.8,0.3,1.6,0.1,1.1-0.2c-0.2-0.1-0.7-0.2-1-0.2
				c-0.5,0-0.7-0.1-0.7-0.6C88.3,66.6,88.3,66.7,88,67.4L88,67.4z"/>
			<path class="fillable" d="M148.5,67c-0.8,0.3-0.9,0.8-0.1,0.6c0.8-0.1,0.9,0.7,0.1,1c-0.4,0.2-0.4,0.2-0.1,0.2c0.6,0,1.8-0.8,1.8-1.1
				C150.2,66.7,149.6,66.5,148.5,67L148.5,67z M149.8,67.3c0.1,0.2,0,0.5-0.1,0.6c-0.3,0.2-0.7-0.4-0.5-0.8
				C149.3,66.8,149.6,66.9,149.8,67.3z"/>
			<path class="fillable" d="M88.4,69.7c1.1,0.3,1.6,0.3,1.4-0.2c-0.1-0.1-0.7-0.2-1.3-0.2h-1.2L88.4,69.7L88.4,69.7z"/>
			<path class="fillable" d="M87.3,70.9c0,0.6,0.2,0.7,1,0.9c1.1,0.2,1.1,0.2,1.2-0.7c0-0.7,0-0.7-1.1-0.8C87.2,70.3,87.2,70.3,87.3,70.9z M88.2,71.1
				c0,0.4-0.4,0.5-0.6,0.1c-0.2-0.3,0.1-0.8,0.4-0.6C88.1,70.7,88.2,71,88.2,71.1L88.2,71.1z M89.2,70.9c0,0.2-0.2,0.4-0.4,0.4
				c-0.4,0-0.5-0.3-0.2-0.6C88.9,70.4,89.2,70.5,89.2,70.9z"/>
			<path class="fillable" d="M86.7,74.8c0,0.6,0.1,0.7,0.6,0.7c0.4,0,0.7-0.1,0.8-0.5c0.2-0.7,0.7-0.5,0.6,0.2c0,0.3,0,0.5,0.2,0.4
				c0.1-0.1,0.3-0.5,0.3-0.9c0-0.7-0.1-0.7-0.7-0.7c-0.5,0-0.7,0.2-0.8,0.6c0,0.3-0.2,0.6-0.5,0.6c-0.3,0-0.3-0.2-0.3-0.6
				c0.1-0.3,0-0.6-0.1-0.6C86.8,74.1,86.7,74.3,86.7,74.8L86.7,74.8z"/>
			<path class="fillable" d="M88.7,76.6c0,0.2-0.5,0.4-1,0.6l-1.1,0.2h1.2c1.1,0,1.2-0.1,1.3-0.6c0-0.3,0-0.5-0.2-0.5C88.8,76.2,88.7,76.4,88.7,76.6z
				"/>
			<path class="fillable" d="M87.5,78.1c-0.6,0.2-0.9,0.7-0.5,1.2c0.2,0.4,2,0.5,2.1,0.1c0.1-0.2-0.1-0.3-0.4-0.3c-0.7,0-0.7-0.9,0-1.1
				c0.5-0.1,0.5-0.1-0.1-0.1C88.3,77.9,87.8,78,87.5,78.1L87.5,78.1z M87.8,78.8c0.1,0.1,0,0.2-0.2,0.2c-0.2,0-0.4-0.1-0.4-0.2
				s0.1-0.2,0.2-0.2C87.6,78.6,87.7,78.7,87.8,78.8z"/>
			<path class="fillable" d="M87,80.6c0,0.2,0.1,0.7,0.2,1.1c0.2,0.6,0.2,0.6,0.3,0.1c0.1-0.4,0.4-0.5,1-0.6c0.8-0.1,1.4-0.7,0.6-0.7
				c-0.2,0-0.6,0.1-0.9,0.3c-0.4,0.3-0.5,0.2-0.9-0.1C87,80.2,87,80.2,87,80.6L87,80.6z"/>
			<path class="fillable" d="M89.3,82.6c0,0.6-0.2,0.7-0.7,0.2c-0.2-0.2-0.3-0.2-0.3,0.1c0,0.7-0.5,0.8-0.7,0.1l-0.2-0.6V83c0,0.7,0.4,0.9,1.5,0.6
				c0.9-0.2,1.2-0.9,0.7-1.4C89.4,82.2,89.3,82.2,89.3,82.6L89.3,82.6z"/>
			<path class="fillable" d="M89,84.2c-0.5,0.2-0.9,0.4-1,0.6c-0.1,0.3,0.4,1.9,0.6,1.9c0.6,0,2-0.6,2-0.9c0-0.4-0.5-0.2-1.4,0.3
				c-0.5,0.3-0.5,0.3-0.7,0c-0.2-0.4-0.1-0.5,1-0.8c0.4-0.1,0.8-0.2,0.8-0.4c0-0.1-0.4-0.1-0.9,0c-1.1,0.3-1.7-0.1-0.7-0.5
				c0.4-0.1,0.8-0.2,0.9-0.2s0.3-0.1,0.4-0.2C90.1,83.7,89.9,83.8,89,84.2L89,84.2z"/>
			<path class="fillable" d="M91.1,88.6c-0.2,0.1-0.6,0.2-0.9,0.2s-0.6,0.1-0.7,0.3c-0.1,0.2,0,0.2,0.4,0.1c0.6-0.2,0.7,0.3,0.2,0.8
				c-0.3,0.3-0.2,0.3,0.1,0.2c0.2-0.1,0.5-0.1,0.6-0.1c0,0,0.1-0.2,0.1-0.4c0-0.2,0.2-0.5,0.5-0.6c0.3-0.1,0.5-0.4,0.5-0.5
				C91.8,88.3,91.5,88.3,91.1,88.6L91.1,88.6z"/>
			<path class="fillable" d="M146.4,88.9c0.1,0.4,2,1.2,2.2,0.9c0.1-0.1,0-0.2-0.1-0.2c-0.2,0-0.6-0.2-0.9-0.5C147,88.6,146.2,88.5,146.4,88.9
				L146.4,88.9z"/>
			<path class="fillable" d="M91.1,90.4c-0.6,0.6-0.7,0.8-0.5,1.2c0.3,0.7,0.6,0.7,1.6,0.1c0.8-0.5,1.1-1.2,0.3-0.8c-0.6,0.3-0.7,0.3-0.9-0.1
				c-0.1-0.2,0-0.5,0.3-0.7c0.2-0.2,0.3-0.3,0.2-0.3C92,89.9,91.6,90.1,91.1,90.4z M91.6,91.4c0.2,0.5-0.3,0.8-0.6,0.3
				c-0.3-0.5-0.3-0.7,0.1-0.7C91.4,91,91.6,91.2,91.6,91.4z"/>
			<path class="fillable" d="M145.5,90.6c0.1,0.2,0.4,0.4,0.9,0.5c0.5,0.1,0.8,0.4,0.8,0.7c0,0.4,0.2,0.3,0.5-0.4c0.4-0.9,0.4-0.9,0-0.6
				c-0.3,0.2-0.6,0.2-1-0.1C145.9,90.2,145.4,90.1,145.5,90.6L145.5,90.6z"/>
			<path class="fillable" d="M144.8,91.7c-0.1,0.1,0,0.3,0.2,0.5c0.5,0.5,0.2,1-0.6,0.8c-0.6-0.1-0.6-0.1-0.1,0.2c0.9,0.7,1.7,0.7,2.1,0.1
				c0.2-0.3,0.3-0.6,0.1-0.8C146.2,92.1,145,91.5,144.8,91.7z M146.2,93.1c-0.2,0.3-0.9,0.4-0.9,0.1c0-0.1,0.1-0.3,0.3-0.5
				C146,92.4,146.5,92.8,146.2,93.1z"/>
			<path class="fillable" d="M92.3,92.5c-0.6,0.6-0.7,0.8-0.5,1.3c0.2,0.3,0.4,0.4,0.7,0.3c0.2-0.1,0.7-0.3,1.1-0.4c0.8-0.3,0.9-0.8,0.1-0.6
				c-0.8,0.2-1.1-0.5-0.5-1c0.2-0.2,0.3-0.3,0.1-0.3C93.1,91.7,92.6,92.1,92.3,92.5L92.3,92.5z M92.7,93.2c0,0.2-0.2,0.4-0.4,0.4
				c-0.4,0-0.5-0.3-0.2-0.6C92.4,92.9,92.7,93,92.7,93.2z"/>
			<path class="fillable" d="M94,94.6c-0.6,0.6-0.8,0.7-1.1,0.4c-0.3-0.2-0.3-0.2-0.1,0.2c0.1,0.3,0.4,0.7,0.7,0.8c0.3,0.3,0.3,0.2,0.2-0.1
				c-0.1-0.3,0.1-0.6,0.6-1.1c0.5-0.4,0.7-0.7,0.6-0.8C94.8,93.9,94.4,94.2,94,94.6L94,94.6z"/>
			<path class="fillable" d="M143.2,94c0,0.1,0.4,0.6,0.9,1.1s0.9,0.7,0.9,0.6c0-0.1-0.1-0.3-0.2-0.4c-0.4-0.3,0-0.6,0.6-0.5c0.4,0.1,0.5,0.1,0.3-0.1
				c-0.1-0.1-0.5-0.3-0.9-0.4c-0.3,0-0.8-0.1-1-0.2C143.4,93.9,143.2,93.9,143.2,94L143.2,94z"/>
			<path class="fillable" d="M142.2,95.4c-0.5,0.5-0.5,0.5,0.4,1.2c1,0.9,1,0.9,1.6,0.2c0.5-0.5,0.5-0.5-0.4-1.2C142.8,94.7,142.8,94.7,142.2,95.4
				L142.2,95.4z M143.5,95.8c0.6,0.5,0.6,0.7-0.2,0.7c-0.7,0-1.2-0.5-1-0.8C142.7,95.2,143,95.3,143.5,95.8L143.5,95.8z"/>
			<path class="fillable" d="M95.8,95.7c0.3,0.4,0,0.8-0.5,0.5c-0.2-0.1-0.2,0-0.1,0.2c0.3,0.7-0.1,1-0.6,0.5c-0.2-0.2-0.5-0.3-0.5-0.2
				s0.2,0.4,0.4,0.6c0.4,0.3,0.5,0.3,1.2-0.3c0.7-0.6,0.8-0.8,0.6-1.2c-0.2-0.3-0.4-0.5-0.6-0.5C95.6,95.3,95.6,95.4,95.8,95.7z"/>
			<path class="fillable" d="M140.9,96.8c-0.4,0.5-0.4,0.5,0,0.4c0.6-0.2,1.1,0.2,1.1,1c0,0.7,0.3,0.7,0.9,0.1c0.5-0.5,0.2-0.7-0.3-0.2
				c-0.2,0.2-0.3,0.1-0.3-0.4c0-0.7-0.4-1.3-0.7-1.3C141.5,96.3,141.2,96.5,140.9,96.8L140.9,96.8z"/>
			<path class="fillable" d="M96,97.3l-0.8,0.9l0.7,0.7l0.7,0.7l0.8-0.8c0.5-0.5,0.8-1,0.7-1.1c-0.1-0.1-0.5,0.1-0.9,0.6c-0.6,0.8-0.7,0.8-1.1,0.4
				c-0.4-0.4-0.4-0.4,0.3-1.2c0.4-0.4,0.6-0.8,0.6-0.9C96.9,96.5,96.5,96.9,96,97.3z"/>
			<path class="fillable" d="M97.7,99.1L97,99.9l0.6,0.4c0.6,0.5,0.6,0.5,1.3-0.2c0.8-0.8,0.8-1.1,0.2-1.6C98.5,98.1,98.5,98.1,97.7,99.1L97.7,99.1z
				 M99,99c0.2,0.2-0.8,1.5-1.1,1.5c-0.2,0-0.1-1.1,0.1-1.5C98.3,98.6,98.8,98.6,99,99z"/>
			<path class="fillable" d="M99.3,100.3l-0.7,1l0.7,0.6c0.4,0.3,0.8,0.6,1,0.6c0.4,0,1.6-1.5,1.4-1.7c-0.1-0.2-0.8,0.3-0.8,0.7
				c0,0.5-0.7,0.9-0.9,0.6c-0.1-0.1,0.1-0.7,0.5-1.1c0.3-0.5,0.5-0.9,0.4-0.9s-0.5,0.3-0.8,0.7c-0.6,0.7-1,1-1,0.5
				c0-0.1,0.2-0.6,0.5-1c0.3-0.4,0.5-0.8,0.4-0.9C100,99.4,99.7,99.8,99.3,100.3L99.3,100.3z"/>
			<path class="fillable" d="M137.9,99.5c-0.1,0.1,0.2,0.7,0.7,1.2l0.8,0.9l0.7-0.4l0.7-0.4l-0.5-0.5c-0.4-0.4-0.6-0.5-0.8-0.2
				c-0.2,0.2-0.4,0.2-0.8-0.2C138.3,99.5,138,99.4,137.9,99.5L137.9,99.5z M139.8,101c-0.2,0.2-0.3,0.3-0.6,0
				c-0.3-0.2-0.3-0.3,0.1-0.6C139.8,100,140.2,100.5,139.8,101L139.8,101z"/>
			<path class="fillable" d="M136.5,100.8c-0.2,0.3,1,1.9,1.5,1.9c0.1,0,0.5-0.2,0.7-0.4c0.3-0.3,0.3-0.5,0-0.9c-0.3-0.4-0.4-0.4-0.8-0.2
				c-0.4,0.2-0.6,0.2-0.8-0.3C136.7,100.6,136.5,100.6,136.5,100.8L136.5,100.8z M138.3,101.8c0.1,0.1,0,0.3-0.2,0.5
				c-0.4,0.3-0.8,0-0.5-0.5C137.8,101.5,138.1,101.5,138.3,101.8L138.3,101.8z"/>
			<path class="fillable" d="M134.6,101.9c0,0.1,0.3,0.6,0.6,1.1c0.7,1.1,1.1,1.2,1.6,0.5c0.5-0.5,0-1.3-0.7-1.1c-0.3,0.1-0.6,0-0.8-0.2
				C135.1,101.8,134.6,101.6,134.6,101.9L134.6,101.9z M136.7,102.9c0,0.1-0.1,0.3-0.3,0.5c-0.4,0.3-0.8,0-0.5-0.5
				C136.2,102.6,136.7,102.6,136.7,102.9L136.7,102.9z"/>
			<path class="fillable" d="M103.5,102.6c-0.1,0.4-0.4,0.9-0.5,1.1c-0.1,0.3-0.1,0.5,0.2,0.7c0.7,0.4,0.9,0.3,1.3-0.6c0.5-0.9,0.4-1.2-0.3-1.6
				C103.8,102.1,103.7,102.1,103.5,102.6L103.5,102.6z M104.3,102.6c0.2,0.3-0.1,0.8-0.4,0.7c-0.2-0.1-0.3-0.3-0.2-0.5
				C103.8,102.5,104.1,102.4,104.3,102.6z M104.1,104c-0.1,0.2-0.3,0.3-0.5,0.2c-0.4-0.1-0.4-0.4-0.2-0.6
				C103.7,103.3,104.2,103.7,104.1,104z"/>
			<path class="fillable" d="M105.2,103.6c-0.1,0.2-0.2,0.7-0.4,1c-0.1,0.3-0.1,0.6,0,0.6s0.3-0.3,0.5-0.7c0.2-0.6,0.4-0.7,0.8-0.6
				c0.3,0.1,0.4,0,0.4-0.2C106.4,103.1,105.4,103.1,105.2,103.6L105.2,103.6z"/>
			<path class="fillable" d="M132.3,103.9c0,0.5,0.1,0.7,0.3,0.6c0.5-0.2,0.7,0.4,0.2,0.8c-0.4,0.4-0.4,0.4,0,0.2c0.2-0.1,0.5-0.1,0.6-0.1
				c0.2,0,0.1-0.8-0.3-1.5C132.6,103,132.3,103,132.3,103.9L132.3,103.9z"/>
			<path class="fillable" d="M106.9,104.2c-0.6,1.6-0.6,1.7,0.5,2c0.6,0.2,1.1,0.2,1.1,0.2c0.3-0.3,0.8-1.8,0.6-2c-0.2-0.1-0.8,0.8-0.6,1.1
				c0.2,0.3-0.3,0.9-0.6,0.7c-0.2-0.1-0.1-0.4,0.1-1.1c0.2-0.5,0.3-0.9,0.2-1c0-0.1-0.3,0.3-0.5,0.8c-0.2,0.5-0.5,0.9-0.7,0.9
				c-0.3,0-0.3-0.1,0-1C107.4,103.7,107.3,103.2,106.9,104.2L106.9,104.2z"/>
			<path class="fillable" d="M130.7,103.8c-0.2,0.3,0.2,1.3,0.6,1.3c0.1,0,0.2,0.2,0.2,0.4s0.1,0.4,0.2,0.4s0.1-0.4-0.1-0.9
				C131.2,103.9,130.9,103.5,130.7,103.8z"/>
			<path class="fillable" d="M129.9,104.6c0,0.2,0.2,0.6,0.4,0.8c0.5,0.4,0.5,0.7-0.2,1c-0.5,0.2-0.6,0.1-1-0.8c-0.5-1.1-0.6-0.7-0.2,0.6
				c0.2,0.7,0.4,0.8,0.9,0.6c1-0.2,1.1-0.5,0.8-1.6C130.2,104.1,129.9,103.8,129.9,104.6L129.9,104.6z"/>
			<path class="fillable" d="M127.2,105.1c-0.3,0.2-0.3,0.2,0.1,0.2c0.3,0,0.4,0.1,0.3,0.5c-0.1,0.3,0,0.5,0.2,0.5c0.2,0,0.3,0.2,0.3,0.4
				c0,0.2-0.2,0.4-0.4,0.4s-0.4,0.1-0.4,0.2c0,0.3,0.9,0,1.1-0.2c0.2-0.3-0.4-2.1-0.7-2.1C127.6,104.9,127.4,105,127.2,105.1
				L127.2,105.1z"/>
			<path class="fillable" d="M113.3,105.7c-0.3,0.4-0.1,2.1,0.1,2.3c0.1,0.1,0.5,0.2,0.8,0.2c0.4,0,0.6-0.2,0.7-1c0.2-1.1-0.2-1.7-0.5-1
				c-0.2,0.7-0.8,0.6-0.9-0.2C113.5,105.7,113.4,105.6,113.3,105.7z M114.4,107.3c0.1,0.1,0.1,0.3,0,0.5c-0.2,0.3-0.9,0-0.9-0.4
				C113.6,107,114.2,106.9,114.4,107.3z"/>
			<path class="fillable" d="M123.2,106.2c0,0.3,0.1,0.3,0.4,0.1c0.2-0.2,0.4-0.3,0.4-0.2c0,0,0.2,0.4,0.4,0.8c0.3,0.6,0.3,0.7,0,0.9
				c-0.2,0.1-0.5,0.2-0.7,0.1c-0.2,0-0.3,0-0.3,0.1c0,0.3,0.5,0.3,1.1,0.1c0.4-0.1,0.5-0.8,0.2-1.7
				C124.4,105.7,123.2,105.6,123.2,106.2L123.2,106.2z"/>
			<path class="fillable" d="M115.8,106.2c0.5,0.1,0.6,0.7,0.1,0.9c-0.2,0.1-0.2,0.1,0,0.1c0.1,0,0.3,0.2,0.3,0.5c0,0.4-0.1,0.4-0.5,0.3
				s-0.5-0.1-0.3,0.2c0.2,0.1,0.5,0.2,0.7,0.2c0.4,0,0.5-0.3,0.5-1.3c0.1-1.1,0-1.2-0.6-1.1C115.6,106.1,115.5,106.1,115.8,106.2
				L115.8,106.2z"/>
			<path class="fillable" d="M121.2,107.2c0.1,1,0.1,1.2,0.7,1.3c0.8,0.1,1.1-0.2,0.9-1.4c-0.1-0.9-0.2-1-0.9-1C121.2,106,121.2,106,121.2,107.2
				L121.2,107.2z M122.4,107.1c0,0.8,0,0.9-0.5,0.6c-0.7-0.4-0.6-1.5,0.2-1.5C122.3,106.3,122.4,106.6,122.4,107.1z"/>
			<path class="fillable" d="M118.1,106.8c0,0.3-0.2,0.5-0.5,0.5c-0.4,0-0.5,0.2-0.5,0.6c0,0.6,0.1,0.6,0.8,0.5s0.8-0.1,0.9-1.1c0-0.8,0-1-0.3-1
				S118.1,106.5,118.1,106.8L118.1,106.8z M118.3,107.9c0,0.2-0.2,0.4-0.5,0.4c-0.3,0-0.5-0.2-0.5-0.4s0.2-0.4,0.5-0.4
				S118.3,107.7,118.3,107.9z"/>
			<path class="fillable" d="M120.3,106.8c0,0.3-0.2,0.5-0.5,0.5c-0.4,0-0.5,0.2-0.5,0.6c0,0.5,0.1,0.6,0.7,0.6c0.7,0,0.7,0,0.7-1.1
				c0-0.6-0.1-1.1-0.2-1.1C120.4,106.3,120.3,106.5,120.3,106.8L120.3,106.8z M120.5,107.9c0,0.2-0.2,0.4-0.5,0.4
				c-0.3,0-0.5-0.2-0.5-0.4s0.2-0.4,0.5-0.4C120.3,107.5,120.5,107.7,120.5,107.9z"/>
			<path class="fillable" d="M104.6,59.9c-1,0.9-1.1,1.1-0.5,0.6c1.6-1.3,2.4-1.9,2.1-1.9C106.1,58.5,105.3,59.1,104.6,59.9z"/>
			<path class="fillable" d="M115.8,65.4c-0.2,0.1-0.3,1.3-0.3,4.6v4.4l3.7-0.1c3.6-0.1,3.7-0.1,4.7-0.8c2.8-1.8,2.5-6.1-0.6-7.7
				c-0.8-0.4-1.5-0.5-4.1-0.5C117.5,65.3,115.9,65.3,115.8,65.4L115.8,65.4z M122.8,66.7c1.4,0.6,2,1.6,2,3.3c0,1.2-0.1,1.4-1.1,2.3
				l-1.1,1.1h-2c-1.4,0-2-0.1-1.9-0.2c0.1-0.1,0.7-0.2,1.5-0.2c1.5,0,2.3-0.5,2.8-1.6c0.2-0.4,0.5-0.7,0.6-0.7
				c0.8,0,0.3-1.3-0.9-2.4c-1.1-1.2-1.3-1.3-2.7-1.4c-1.6-0.1-3.3,0-3.3,0.4c0,0.1,1.1,0.1,2.4,0.1c2.2-0.1,2.4-0.1,3,0.5
				c0.7,0.7,0.8,1.1,0.2,1.1c-0.2,0-0.4,0.2-0.4,0.6c0,0.6,0,0.6-2.3,0.7h-2.3l2.6,0.2c1.5,0.1,2.6,0.2,2.7,0.2
				c0.3,0.1-0.1,1.1-0.7,1.6c-1.1,1-3.6,0.8-3.6-0.1c0-0.1,0.8-0.2,1.8-0.2c1.6,0,1.8,0,1.8-0.5c0-0.4-0.3-0.5-2.2-0.6
				c-1.3-0.1-2.4-0.2-2.6-0.3s-0.4,0-0.4,0.1c0,0.1,0.5,0.3,1.1,0.3c0.6,0,1.1,0.1,1.1,0.2c0,0.2-0.8,0.4-1.7,0.3
				c-0.3,0-0.4,0.1-0.3,0.2c0,0.2,0.2,0.3,0.4,0.2c0.1,0,0.3,0,0.3,0.2c0,0.1-0.2,0.2-0.4,0.2c-0.4,0-0.5,0.4-0.1,0.5
				c0.1,0,0.1,0.2-0.1,0.4c-0.3,0.3-0.3-0.2-0.3-3.3v-3.6h2.7C121.2,66.2,122,66.3,122.8,66.7L122.8,66.7z M119.4,71.1
				c-0.1,0.2-0.2,0.4-0.2,0.4s-0.1-0.2-0.1-0.4c0-0.2,0.1-0.4,0.2-0.4C119.4,70.8,119.5,70.9,119.4,71.1z M118.1,71.9
				c0,0.1-0.1,0.2-0.2,0.2s-0.2-0.1-0.2-0.2c0-0.1,0.1-0.2,0.2-0.2C118,71.7,118.1,71.8,118.1,71.9z"/>
			<path class="fillable" d="M117.5,67.6c-0.4,0.1-0.5,0.3-0.6,1.3c-0.1,0.6-0.1,1.2-0.1,1.2s1,0,2-0.1l2-0.2l-1.9-0.1c-1.6-0.1-1.7-0.1-0.7-0.2
				l1.3-0.1v-1c0-0.9,0-1-0.8-0.9C118.3,67.5,117.7,67.5,117.5,67.6L117.5,67.6z"/>
			<path class="fillable" d="M119.8,68.3c0,1,0,1,0.9,1c0.8,0,0.9,0,0.9-1c0-1,0-1-0.9-1S119.8,67.4,119.8,68.3z"/>
			<path class="fillable" d="M115.6,77.4c-0.1,0.1-0.2,2.2-0.2,4.8v4.7L116,87c0.3,0.1,2.3,0.1,4.5,0c3.8-0.1,4-0.1,5-0.8c3.7-2.1,3.1-7.7-1-9
				C123.8,77.2,115.9,77.1,115.6,77.4L115.6,77.4z M124.9,78.6c2.3,1.1,2.9,4.2,1.3,6.1c-1.2,1.4-1.9,1.6-6.1,1.6h-3.7v-4.1v-4.1
				h3.8C123.4,78.1,124.1,78.2,124.9,78.6L124.9,78.6z"/>
			<path class="fillable" d="M116.7,78.8c0,0.1,0.1,0.2,0.2,0.2c0.1,0,0.3-0.1,0.4-0.2s0-0.2-0.2-0.2C116.9,78.6,116.7,78.7,116.7,78.8z"/>
			<path class="fillable" d="M120.5,78.8c2.5,0,3.1,0.1,3.6,0.5c0.5,0.4,0.5,0.5,0.2,0.5c-0.4,0-0.4,0.2-0.4,1.1c0,0.8,0.1,1.1,0.4,1.1
				s0.4,0.3,0.4,1.2c0,1.4-0.5,1.8-2,2l-1,0.1l0.7-0.6c0.5-0.5,0.7-0.8,0.7-1.6c0-0.8,0.1-1.1,0.4-1.1s0.4-0.3,0.4-1
				c0-0.7-0.1-1-0.4-1c-0.2,0-0.4-0.2-0.4-0.4c0-0.3-0.5-0.4-2.6-0.4c-1.6,0-2.6,0.1-2.6,0.2c0,0.1,1.1,0.2,2.6,0.3
				c1.5,0,2.3,0.1,2.1,0.1c-0.6,0.1-0.6,1.9-0.1,1.9c0.3,0,0.4,0.3,0.4,1.1c0,0.9-0.1,1.2-0.9,1.6c-0.7,0.5-1.1,0.7-2,0.6
				s-1.2-0.1-1.2-0.6c-0.1-0.6-0.1-0.6,1.9-0.5c1.4,0,1.9-0.3,1.6-0.7c-0.1-0.1-1.2-0.2-2.3-0.3c-1.2,0-1.8-0.1-1.5,0
				c0.8,0.1,0.9,0.8,0.1,0.8c-0.3,0-0.6,0.2-0.7,0.4c-0.1,0.2-0.3,0.4-0.5,0.4c-0.2,0-0.4,0.1-0.4,0.2c0,0.1,0.2,0.2,0.4,0.2
				c0.2,0,0.4,0.1,0.4,0.2c0,0.1-0.1,0.2-0.3,0.2c-0.1,0-0.3,0.1-0.4,0.2c0,0.1,0.3,0.3,0.9,0.3c0.5,0,1-0.1,1-0.2
				c0-0.1,0.9-0.2,2.1-0.2c1.2,0,2.4-0.1,2.7-0.2c1.1-0.4,1.6-1.3,1.6-2.3c0-0.8,0.1-1.1,0.4-1.1c0.3,0,0.4-0.3,0.4-1.1
				c0-0.9-0.1-1.1-0.4-1.1c-0.2,0-0.7-0.3-1.1-0.6c-0.7-0.6-0.8-0.6-3.8-0.6h-3L120.5,78.8L120.5,78.8z M118.2,84.4
				c-0.1,0.2-0.2,0.4-0.2,0.4s-0.1-0.2-0.1-0.4c0-0.2,0.1-0.4,0.2-0.4C118.2,84.1,118.2,84.2,118.2,84.4z"/>
			<path class="fillable" d="M116.7,79.6c0.1,0.3,0.4,0.4,0.5,0.1c0-0.1-0.1-0.2-0.3-0.3C116.8,79.3,116.7,79.4,116.7,79.6z"/>
			<path class="fillable" d="M117.6,81c0.1,0.9,0,1-0.5,1c-0.3,0-0.6,0.1-0.6,0.2c0,0.3,4.4,0,4.7-0.3c0.2-0.1,0.3-0.6,0.2-1c-0.1-0.7-0.2-0.8-1-0.8
				l-0.9-0.1l0.1,1c0,0.6,0,1-0.2,1c-0.1,0-0.2-0.4-0.2-1l0.1-1h-1h-1L117.6,81L117.6,81z"/>
			<path class="fillable" d="M116.8,83c-0.2,0.4,0.1,0.6,0.4,0.3c0.2-0.2,0.2-0.3,0-0.4C117.1,82.8,116.9,82.8,116.8,83z"/>
			<path class="fillable" d="M116.7,83.8c0.1,0.3,0.4,0.4,0.5,0.1c0-0.1-0.1-0.2-0.3-0.3C116.8,83.6,116.7,83.7,116.7,83.8z"/>
		</g>
		<path class="fillable" d="M176.8,18.3c0,9.1-0.1,15.1-0.2,15.1s-0.6,0.3-1,0.6c-0.6,0.5-0.8,0.8-0.8,1.6c0,1.4,0.9,2.2,2.1,2.2
			c1.4,0,2.1-0.9,2.1-2.2c0-0.8-0.1-1.1-0.9-1.6l-0.8-0.7l-0.1-11.8C177.3,6.5,177.2,3,176.9,3C176.9,3.2,176.8,9,176.8,18.3
			L176.8,18.3z M178.2,34.8c0.9,1.1,0.1,2.6-1.3,2.6c-0.9,0-1.6-0.8-1.6-1.5C175.3,34.2,177.2,33.5,178.2,34.8z"/>
		<path class="fillable" d="M191.7,16.1c0,12.5,0,14.2,0.4,14.2c0.3,0,0.4-1.7,0.4-14.2s0-14.2-0.4-14.2C191.7,1.8,191.7,3.6,191.7,16.1z"/>
		<path class="fillable" d="M168.4,17.4c0,9.3,0.1,14.2,0.3,14.2c0.2,0,0.3-4.9,0.3-14.2c0-12.6,0-14.2-0.3-14.2C168.4,3.1,168.3,4.8,168.4,17.4z"/>
		<path class="fillable" d="M184.9,17.4c0,9.3,0.1,14.2,0.3,14.2s0.3-4.9,0.3-14.2c0-12.6,0-14.2-0.3-14.2C184.9,3.1,184.9,4.8,184.9,17.4z"/>
		<path class="fillable" d="M206.6,9.8v7.6l-3.9,3.8l-3.9,3.8v7.6V40l-0.8,0.5c-1,0.6-1.4,1.7-0.9,2.7c0.3,0.8,1.3,1.5,2,1.5s1.7-0.7,2-1.5
			c0.4-1.1,0.1-2.1-0.9-2.7l-0.8-0.5v-7.4v-7.4l3.9-3.8l3.9-3.8l-0.1-4c-0.1-2.1-0.1-5.6-0.1-7.8c0-2.3-0.1-3.8-0.2-3.8
			S206.6,4.9,206.6,9.8L206.6,9.8z M200.4,41.3c0.5,0.5,0.5,1.6,0,2.2c-0.5,0.5-1.6,0.6-2.2,0c-0.6-0.5-0.6-1.7,0-2.2
			C199,40.6,199.6,40.6,200.4,41.3z"/>
	</g>
</g>
</svg>
