<?xml version="1.0" encoding="utf-8"?>
<!-- Generator: Adobe Illustrator 24.0.2, SVG Export Plug-In . SVG Version: 6.00 Build 0)  -->
<svg version="1.1" id="Слой_1" xmlns:xodm="http://www.corel.com/coreldraw/odm/2003"
	 xmlns="http://www.w3.org/2000/svg" xmlns:xlink="http://www.w3.org/1999/xlink" x="0px" y="0px" viewBox="0 0 238.1 150.2"
	 style="enable-background:new 0 0 238.1 150.2;" xml:space="preserve">
<style type="text/css">
	.st0{fill-rule:evenodd;clip-rule:evenodd;}
	.st1{clip-path:url(#SVGID_2_);}
</style>
<g id="Слой_x0020_1">
	<path class="st0 fillable" d="M177.1,34c-0.3,0.1,0,0-0.2,0.2c-0.1,0.1-0.4,0.4-0.5,0.6c-0.7,0.9-1.3,1.8-2,2.6c-0.5,0.7-0.9,1.3-1.4,2
		c-0.7,1.1-1.3,2.1-2,3.2l-0.1,0.1c-0.7,1.2-1.4,2.7-2,3.7c-0.1,0.3-0.3,0.7-0.5,1l-0.6,1.2c-0.1,0.3-0.2,0.7-0.4,1
		c0,0.1-0.1,0.2-0.1,0.2c-0.5,1.3-1,2.5-1.5,3.9l-0.1,0.2c-0.3,1-0.6,2-0.9,3l-0.9,3.8c-0.1,0.5-0.2,0.7-0.3,1.4l-0.6,3.2
		c0,0.1,0-0.1-0.1,0.2l0,0.8c-0.1,0.4-0.2,0.2-0.1,1c0,0.4-0.1,0.6-0.2,1c0,0.5,0.1,1.3-0.1,1.6c0,0.1,0-0.1-0.1,0.2
		c0,0.1,0,0.2,0,0.3c0,1.5-0.1,7.3,0,7.9c0.1,0.6,0,0,0.1,0.4c0.1,0.5-0.1,1.1,0,1.7l0.1,0.4c0,0.2,0,0.4,0,0.6l0.1,0.5
		c0.1,0.3,0,0.7,0.1,1.1c0.1,0.4,0.1-0.1,0.1,0.4c0,0.2,0,0.4,0,0.5c0.1,0.5,0.1-0.1,0.1,0.4c0,0.2,0,0.4,0,0.6
		c0.1,0.5,0.1-0.2,0.1,0.4c0,0.2,0,0.4,0,0.5c0.1,0.5,0.1-0.1,0.1,0.4l0.5,2.6c0.1,0.3,0.3,0.8,0.3,1.1c0,0.5,0,0.2,0.1,0.4
		c0.1,0.5,0.3,0.9,0.4,1.4c0.1,0.3,0.1,0.5,0.2,0.8c0.6,1.7,1.2,3.3,1.8,5c0.1,0.2,0.1,0.4,0.2,0.5c0.2,0.4,0.4,0.9,0.6,1.4
		c0.1,0.3,0.2,0.6,0.4,0.9l0.2,0.4c0.7,1.5,1.1,2.1,1.7,3.3c0,0,0,0.1,0.1,0.1l1.6,2.7c0.2,0.4,0.5,0.8,0.8,1.3l3.4,4.7l0.1,0.1
		c0.2,0.4,0.4,0.4,0.7,0.9c0.2,0.3,0.6,0.6,0.8,0.9c0.3,0.6,1,1,1.4,1.6c0.1,0.1,0.1,0.2,0.2,0.2c0.7,0.7,3.4,3.6,4,3.9l3.2,2.8
		l0.1,0.1l2.9,2.2l0.3,0.2c0.1,0.1,0.2,0.1,0.3,0.2c0.6,0.4,1.2,0.8,1.8,1.2c0.3,0.2,0.7,0.5,1.1,0.6l1.5,0.8
		c0.2,0.1,0.4,0.3,0.5,0.4c0.5,0.2,1,0.5,1.5,0.7l1.2,0.7c0.1,0,0.1,0,0.2,0.1l2.5,1.2c0.4,0.2,0.7,0.3,1.1,0.5
		c0.7,0.3,1.4,0.6,2.2,0.8c1.2,0.4,2.3,0.8,3.5,1.2c1,0.3,2,0.6,3,0.8c0.5,0.1,0.9,0.2,1.5,0.3l2.9,0.6c0.7,0.1,0,0.1,0.7,0.2
		l0.8,0.1c0.3,0.1,0.5,0,0.8,0c0.5,0.1-0.1,0.1,0.7,0.2c0.4,0,0.8,0,1.1,0.1c0.4,0.1,0.9,0,1.3,0.1c0.7,0.1,0,0.1,0.6,0.2
		c0.8,0.1,1.6-0.2,2.3,0.1c0.6,0.2,1.9,0.1,2.6,0.1v-21.6H224c-0.4,0-0.7-0.2-1.1-0.2c-0.6,0-1.5,0.1-2-0.1c-0.2-0.1,0,0-0.3-0.1
		l-1.1-0.1c-0.1,0,0.1,0-0.2-0.1c-0.4-0.1-0.5,0-1.1-0.1l-0.6,0c-0.5-0.1,0-0.1-0.4-0.1l-0.6-0.1c-0.2-0.1,0.1,0-0.2-0.1
		c-0.3-0.1-0.3,0-0.6-0.1c-1.3-0.3-2.6-0.7-3.8-1.1c-0.4-0.1-0.8-0.3-1.2-0.5c-0.5-0.2-0.9-0.3-1.4-0.5c-0.4-0.1-0.8-0.4-1.2-0.5
		c-0.3-0.1-0.6-0.2-0.9-0.4c-0.9-0.5-1.8-1-2.8-1.5l-1.7-1c-0.2-0.1-0.3-0.2-0.4-0.3c-0.6-0.4-1.1-0.8-1.7-1.2
		c-0.3-0.2-0.6-0.5-0.9-0.7c-0.2-0.1-0.4-0.3-0.5-0.4l-0.8-0.7c-0.2-0.2,0,0-0.2-0.2c-0.1-0.1-0.2-0.1-0.3-0.2
		c-0.2-0.2-3.6-3.4-3.8-3.8l-0.8-1c-0.2-0.4-0.5-0.6-0.7-1l-0.6-0.8c-0.1-0.1,0,0-0.2-0.2l-2.5-3.9c-0.3-0.6-0.7-1.3-1-1.9l0-0.1
		c-0.1-0.4-0.3-0.8-0.5-1.1c-0.3-0.6-0.7-1.3-0.9-2c-0.1-0.4-0.3-0.7-0.4-1.1c-0.2-0.6-0.4-1.2-0.6-1.8c-0.1-0.3-0.1-0.6-0.2-0.8
		l-0.7-3c-0.1-0.6,0,0-0.1-0.4l-0.1-0.9c-0.1-0.2,0,0-0.1-0.3l-0.1-0.8c-0.1-0.3,0-0.6-0.1-0.9c0-0.1-0.1-0.1-0.1-0.2
		c-0.2-0.5,0-1.1-0.1-1.6c0-0.1-0.1-0.3-0.1-0.4c0-0.4,0-0.9,0-1.3v-3.7c0-0.4,0-0.7,0.1-1c0.2-0.5,0-1,0.1-1.5
		c0.1-0.4,0.2-0.2,0.2-0.8c0-0.5,0.1-0.6,0.2-1.1l0.1-0.5c0.1-0.3,0-0.6,0.1-0.9c0.1-0.2,0.1-0.4,0.1-0.5l0.4-1.8l0-0.1
		c0.3-1.1,0.7-2.3,1-3.4l0.4-1c0.2-0.5,0.4-1,0.6-1.6c0.4-0.8,0.9-1.7,1.3-2.5c0.1-0.3,0.3-0.6,0.5-0.9c0.6-0.9,1.2-1.9,1.7-2.8
		l3.3-4.2c0,0,0.1-0.1,0.1-0.2l3.6-3.5c0.4-0.3,0.6-0.7,1.1-1c0.3-0.2,0.4-0.4,0.7-0.6c0.5-0.3,1-0.8,1.5-1.1c0.5-0.3,1.1-0.7,1.6-1
		l0.1-0.1l1.7-1c0.6-0.3,1.2-0.6,1.7-1c0.6-0.3,1.5-0.6,1.8-0.8l0.3-0.2l5.1-1.8c0.1,0,0.1,0,0.3,0c0.4-0.1,0.9-0.3,1.3-0.4l2.5-0.5
		c0.3-0.1,0.5,0,1-0.2c0.3-0.1,0.6,0,0.8-0.1c0.6-0.1,0.1-0.1,1.2-0.1c0,0,0.3,0,0.3,0c0.2-0.1,0.1,0.1,0.2-0.1l3.6-0.2
		c0.2-0.2,0.1,0,0.2-0.2l0-21.2c-0.4-0.1,0.1,0-0.3-0.1c-0.1,0-0.2,0-0.4,0l-105,0c-0.3,0-0.5,0-0.8,0c-0.1,0-0.4,0-0.4,0
		c-0.5,0.1-0.2-0.1-0.3,0.2c-0.2,0.1-0.1,0-0.1,0.2l0,21c0.1,0.2,0,0.2,0.2,0.2c0.1,0.2,0,0.2,0.7,0.2c4.5-0.1,9.6,0,14.1,0h45
		c-0.1,0.2-0.1,0.3-0.3,0.3L177.1,34L177.1,34z"/>
</g>
<g>
	<defs>
		<rect id="SVGID_1_" x="179.2" y="33" width="50.4" height="106.6"/>
	</defs>
	<clipPath id="SVGID_2_">
		<use xlink:href="#SVGID_1_"  style="overflow:visible;"/>
	</clipPath>
	<g class="st1">
		<path class="fillable" d="M229.2,33.2c0.2,0.2,0.4,0.4,0.7,0.7c0.3,0.3,0.6,0.6,0.9,0.9c0.2,0.2,0.3,0.2,0.5,0.2c0.7,0,1.3,0,2,0c0.1,0,0.2,0,0.2,0
			c0,0.2,0,0.2,0,0.3c0,0.7,0,1.2,0,1.8c0,0.2,0.1,0.4,0.2,0.6c0.4,0.4,0.9,0.9,1.3,1.3c0.1,0.1,0.2,0.2,0.2,0.2
			c-0.3,0.3-0.7,0.7-1,1c-0.2,0.2-0.4,0.4-0.6,0.6c-0.2,0.2-0.2,0.2-0.2,0.4c0,0.6,0,1.1,0,1.7c0,0.2,0,0.3,0,0.5
			c-0.2,0-0.2,0-0.3,0c-0.7,0-1.3,0-2,0c-0.2,0-0.3,0.1-0.4,0.2c-0.4,0.4-0.9,0.9-1.4,1.4c-0.1,0.1-0.2,0.2-0.2,0.2
			c-0.2-0.2-0.4-0.4-0.7-0.7c-0.3-0.3-0.7-0.7-0.9-0.9c-0.2-0.2-0.2-0.2-0.4-0.2c-0.7,0-1.2,0-1.9,0c-0.2,0-0.2,0-0.4,0
			c0-0.2,0-0.2,0-0.3c0-0.7,0-1.2,0-2c0-0.2-0.1-0.4-0.2-0.5c-0.4-0.4-0.9-0.9-1.3-1.3c-0.1-0.1-0.2-0.2-0.2-0.2
			c0.3-0.3,0.7-0.7,0.9-0.9s0.4-0.4,0.7-0.7c0.2-0.2,0.2-0.2,0.2-0.4c0-0.7,0-1.2,0-2c0-0.2,0-0.2,0-0.3c0.2,0,0.2,0,0.2,0
			c0.7,0,1.3,0,2,0c0.2,0,0.3-0.1,0.4-0.2c0.5-0.6,1.1-1.1,1.6-1.6C229.1,33.2,229.2,33.2,229.2,33.2z M233.1,35.3
			c-0.2,0-0.2,0-0.2,0c-0.7,0-1.2,0-1.8,0c-0.2,0-0.3-0.1-0.5-0.2c-0.2-0.2-0.5-0.5-0.7-0.7c-0.2-0.2-0.4-0.4-0.7-0.7
			c-0.2,0.1-0.2,0.2-0.2,0.2c-0.4,0.4-0.8,0.8-1.2,1.2c-0.2,0.2-0.2,0.2-0.4,0.2c-0.7,0-1.2,0-1.8,0c-0.2,0-0.2,0-0.3,0
			c0,0.2,0,0.2,0,0.2c0,0.6,0,1.1,0,1.7c0,0.2-0.1,0.4-0.2,0.7c-0.2,0.2-0.4,0.4-0.7,0.7c-0.2,0.2-0.5,0.5-0.7,0.8
			c0.1,0.2,0.2,0.2,0.2,0.2c0.4,0.4,0.8,0.8,1.2,1.2c0.2,0.2,0.2,0.2,0.2,0.4c0,0.7,0,1.2,0,1.8c0,0.2,0,0.2,0,0.3
			c0.2,0,0.2,0,0.3,0c0.7,0,1.2,0,1.8,0c0.2,0,0.2,0.1,0.4,0.2c0.3,0.3,0.7,0.7,1,1c0.2,0.2,0.3,0.3,0.6,0.5
			c0.2-0.2,0.2-0.2,0.2-0.3c0.4-0.4,0.8-0.7,1.2-1.2c0.2-0.2,0.2-0.2,0.4-0.2c0.7,0,1.2,0,1.8,0c0.1,0,0.2,0,0.3,0
			c0-0.2,0-0.2,0-0.4c0-0.6,0-1.1,0-1.7c0-0.2,0.1-0.3,0.2-0.4c0.3-0.3,0.7-0.6,0.9-0.9c0.2-0.2,0.4-0.4,0.7-0.7
			c-0.2-0.1-0.2-0.2-0.2-0.2c-0.4-0.4-0.8-0.8-1.2-1.2c-0.2-0.2-0.2-0.2-0.2-0.4c0-0.7,0-1.2,0-1.8
			C233.2,35.5,233.1,35.4,233.1,35.3z"/>
		<path class="fillable" d="M237.5,70.6c-0.4-0.2-0.9-0.3-1.3-0.5c-0.4-0.2-0.7-0.2-1.1-0.4c-0.2-0.1-0.4-0.1-0.7,0c-1.7,0.5-3.5,1-5.2,1.5
			c-0.2,0-0.2,0.1-0.3,0.1c0-0.2,0-0.6,0-0.8c0.1-0.3,0.2-0.5,0.5-0.7c0.3-0.2,0.7-0.4,1.1-0.6c0.8-0.3,1.6-0.3,2.5-0.2
			c0.2,0.1,0.4,0.2,0.7,0.1c-0.2-1-0.9-1.4-1.7-1.8c0-0.2,0.1-0.6,0.1-0.9c-0.4-0.2-0.8-0.3-1.2-0.4c-0.1,0.2-0.2,0.4-0.2,0.7
			c-0.4-0.4-0.9-0.7-1.5-0.7c-0.4-0.1-0.8-0.2-1.2-0.1c-0.7,0.1-1.3,0.2-2,0.2c-0.3,0-0.7-0.1-0.9-0.1c-0.6-0.2-1-0.4-1.4-0.9
			c-0.2-0.2-0.2-0.3-0.4-0.5c-0.3,0.4-0.4,0.9-0.4,1.4c0,0.7,0.3,1.3,0.7,1.9c0.6,0.7,1.2,1.1,2,1.3c0.1,0,0.2,0.1,0.2,0.1
			c-0.2,0.5-0.2,1-0.4,1.5c-0.4-0.2-0.9-0.3-1.3-0.5c-0.4-0.2-0.9-0.3-1.3-0.5c-0.2-0.1-0.4-0.1-0.6,0c-0.7,0.2-1.2,0.4-1.8,0.7
			c-0.2,0.1-0.2,0.1-0.4,0.2c-0.2-0.3-0.2-0.7-0.2-1c0-4.4,3.1-7.9,7-8.7c4.1-0.9,8,1.1,9.8,4.7c0.7,1.5,1.1,3.1,0.9,4.7
			c0,0.1,0,0.2,0,0.2C237.6,70.6,237.6,70.6,237.5,70.6z"/>
		<path class="fillable" d="M232.3,46.9c-0.7,4.4-1.4,8.8-2,13.3c-1.1-0.2-2.1-0.2-3.3,0c-0.4-2.2-0.7-4.4-1.1-6.6s-0.7-4.4-1-6.6
			c0.5-0.1,0.9-0.3,1.5-0.4c1.1-0.2,2.1-0.2,3.2-0.2c0.7,0.1,1.5,0.2,2.2,0.2C231.9,46.7,232.2,46.8,232.3,46.9z"/>
		<path class="fillable" d="M234.2,47.5c2.3,0.9,4.3,2.3,6,4.2c-2,3.4-4,6.8-6.1,10.1c-0.9-0.7-1.9-1.1-2.9-1.4C232.2,56.1,233.2,51.8,234.2,47.5z"/>
		<path class="fillable" d="M223.1,47.5c1,4.3,2,8.6,3,12.8c-0.5,0.2-1,0.4-1.5,0.7c-0.5,0.2-0.9,0.5-1.5,0.7c-2-3.4-4-6.7-6-10.1
			C218.8,49.9,220.7,48.5,223.1,47.5z"/>
		<path class="fillable" d="M217.5,102.6c-0.2-0.7-0.2-1.5-0.4-2.3c0.8-0.2,1.6-0.4,2.3-0.6c0.1-0.2,0.2-0.5,0.2-0.7c0.2-0.5,0.7-0.7,1.2-0.7
			c0.2,0.1,0.4,0,0.7-0.2c0.7-0.5,1.1-1.2,1.5-2c0.2-0.4,0.4-0.9,0.6-1.5c0-0.1,0.1-0.2,0.2-0.2c0.1,0.4,0.2,0.8,0.2,1.2
			c0,0.1,0,0.2-0.1,0.3c-0.2,0.3-0.4,0.7-0.6,0.9c-0.3,0.6-0.8,0.9-1.3,1.3c-0.2,0.2-0.2,0.2-0.4,0.3c0.2,0.2,0.3,0.4,0.5,0.7
			c0.2,0,0.5-0.1,0.8-0.1c0.3,0,0.7-0.1,0.9-0.2c0.3,0,0.6,0,0.9,0.1c0.8,0.2,1.6,0.2,2.4,0.2c0.9,0,1.9,0.1,2.8,0.1
			c0.7,0,1.5-0.2,2.2-0.2c0.4,0,0.8,0,1.2,0.1c0.2,0,0.4,0.1,0.7,0.1c0-0.3,0.2-0.5,0.5-0.7c-0.2-0.1-0.2-0.2-0.3-0.2
			c-0.7-0.5-1.3-1.2-1.7-2c-0.2-0.4-0.3-0.7-0.2-1.2c0.1-0.2,0.2-0.4,0.2-0.7c0.1,0.2,0.1,0.2,0.2,0.2c0.2,0.7,0.4,1.3,0.8,2
			c0.3,0.7,0.7,1.1,1.3,1.6c0.2,0.2,0.2,0.2,0.4,0.2c0.1,0,0.2,0,0.2-0.1c0.7-0.1,1.2,0.4,1.2,1.2c0,0.1,0,0.2,0,0.2
			c0.9,0.2,1.7,0.3,2.6,0.5c0,0.2,0,0.2,0,0.3c-0.2,0.6-0.2,1.1-0.3,1.7c-0.1,0.2-0.1,0.2-0.2,0.2c-1.2-0.2-2.5-0.4-3.6-0.7
			c-0.7-0.2-1.5-0.2-2.2-0.2c-0.9-0.1-1.7-0.2-2.5-0.2c-0.2,0-0.4,0-0.7,0c-1.1,0-2.3,0-3.4,0s-2.3,0.2-3.4,0.2
			c-1.2,0.2-2.5,0.3-3.7,0.6c-0.4,0.1-0.8,0.2-1.2,0.3C217.7,102.6,217.6,102.6,217.5,102.6z M234.2,99.4L234.2,99.4
			c0.7,0.2,1.3,0.2,2,0.4c-0.2-0.4-0.2-0.6-0.4-0.7c-0.3-0.2-0.7-0.2-1-0.2C234.6,99.1,234.4,99.3,234.2,99.4z M221.7,99.4
			c-0.4-0.4-0.8-0.6-1.2-0.4c-0.4,0.2-0.7,0.3-0.7,0.7C220.5,99.6,221,99.5,221.7,99.4z"/>
		<path class="fillable" d="M218.4,109.9c-0.2-0.9-0.2-1.7-0.4-2.6c0.3-0.2,0.6-0.2,0.9-0.2c1.2-0.4,2.5-0.7,3.8-0.8c1.3-0.2,2.5-0.3,3.8-0.3
			c0.6,0,1.1-0.1,1.7-0.1c1.1,0,2.3,0.2,3.4,0.2c2,0.2,4.2,0.7,6.1,1.1c0.1,0,0.2,0.1,0.2,0.1c0,0,0.1,0,0.2,0.1
			c-0.2,0.9-0.2,1.7-0.4,2.6c-0.4-0.1-0.7-0.2-1.1-0.2c-1.1-0.2-2-0.4-3.1-0.6c-1-0.2-2-0.3-2.9-0.4c-1.1-0.1-2.3-0.1-3.4-0.1
			c-0.7,0-1.6,0-2.3,0.1c-2.2,0.2-4.3,0.4-6.4,1.1C218.6,109.9,218.5,109.9,218.4,109.9z"/>
		<path class="fillable" d="M217.9,106.2c-0.2-0.9-0.2-1.7-0.3-2.6c0.1-0.1,0.2-0.1,0.2-0.2c1.1-0.3,2.1-0.6,3.3-0.7c0.9-0.2,1.7-0.2,2.6-0.4
			c0.6-0.1,1.1-0.2,1.7-0.2c1.2-0.1,2.4-0.1,3.6-0.1c1,0,2,0.2,2.9,0.2c1.2,0.2,2.5,0.3,3.6,0.5c1,0.2,2,0.4,2.9,0.6
			c0.1,0,0.1,0.1,0.2,0.1c-0.2,0.9-0.2,1.7-0.4,2.7c-0.3-0.1-0.6-0.2-0.8-0.2c-1.5-0.2-2.9-0.5-4.4-0.7c-1-0.2-2-0.2-3-0.2
			c-1.2-0.1-2.4-0.1-3.6-0.1c-1.1,0-2.3,0.2-3.4,0.2c-1.7,0.2-3.4,0.4-5.1,0.9C218.1,106.2,218,106.2,217.9,106.2z M235.9,104.6
			L235.9,104.6c-0.2-0.2-0.2-0.4-0.2-0.7c-0.1-0.2-0.2-0.4-0.4-0.4h-0.1c-0.2,0.5-0.2,1-0.3,1.5c0.2,0,0.2,0,0.4,0.1
			c0.1-0.3,0.2-0.6,0.2-0.8c0.2,0.2,0.2,0.4,0.2,0.7c0.1,0.2,0.2,0.4,0.4,0.4h0.1c0.2-0.5,0.2-0.9,0.3-1.5c-0.2,0-0.2,0-0.4-0.1
			C236,104,235.9,104.3,235.9,104.6z M225.5,103.5c0.1-0.2,0.1-0.2,0.2-0.2c0.1-0.2-0.1-0.4-0.3-0.4c-0.3,0-0.7,0-0.9,0
			c0.1,0.6,0.1,1.1,0.2,1.6c0.3,0,0.5-0.1,0.7-0.1c0.1,0,0.1,0,0.2,0c0.3-0.1,0.4-0.4,0.2-0.7C225.6,103.6,225.6,103.5,225.5,103.5z
			 M220.7,103.4c-0.5,0-0.9,0.2-0.9,0.7s0.3,0.9,0.7,0.9c0.5,0,0.9-0.3,0.9-0.7C221.5,103.6,221.2,103.3,220.7,103.4z M234.6,104
			c0-0.4-0.3-0.7-0.8-0.7c-0.4,0-0.7,0.4-0.7,0.9s0.3,0.7,0.9,0.7C234.4,104.8,234.6,104.6,234.6,104z M228.3,103.5
			c0.2-0.2,0.2-0.2,0.4-0.4c0.2-0.2,0.2-0.2,0.3-0.4c-0.2-0.1-0.4,0-0.7,0.2c-0.1,0.2-0.2,0.2-0.3,0.3c0-0.2,0-0.4,0-0.5
			c-0.2,0-0.2,0-0.4,0c0,0.5,0,1,0,1.5c0.2,0,0.2,0,0.4,0c0-0.2,0-0.4,0.1-0.6c0.2,0.2,0.2,0.2,0.4,0.4c0.2,0.2,0.4,0.2,0.7,0.2
			C228.8,104,228.6,103.8,228.3,103.5z M222.8,103c0,0.2,0.1,0.2,0.1,0.2c0.2,0,0.4,0,0.7-0.1c-0.1,0.2-0.2,0.2-0.2,0.2
			c-0.2,0.2-0.3,0.4-0.4,0.7c-0.1,0.2-0.2,0.2,0,0.4c0.4,0,0.9-0.1,1.3-0.2c0-0.2-0.1-0.2-0.1-0.2c-0.2,0-0.5,0-0.8,0.1
			c0.2-0.3,0.4-0.7,0.6-0.9c0.1-0.2,0.2-0.2,0.1-0.4c-0.3,0-0.7,0.1-0.9,0.1C223,103,222.8,103,222.8,103z M231.2,103
			c-0.2-0.1-0.5-0.2-0.8-0.2c-0.2,0.1-0.3,0.2-0.4,0.4c0,0.2,0.1,0.4,0.2,0.4c0.2,0.1,0.2,0.1,0.4,0.2c0.1,0.1,0.2,0.1,0.2,0.2
			c0,0.1-0.2,0.2-0.2,0.2c-0.2,0-0.2-0.1-0.3-0.1c-0.1,0-0.2-0.1-0.2-0.1c0,0.2,0,0.2,0,0.3c0.2,0.2,0.4,0.2,0.7,0.2
			c0.3,0,0.4-0.2,0.5-0.4c0.1-0.3-0.1-0.4-0.3-0.6c-0.2-0.1-0.2-0.1-0.3-0.2c-0.1,0-0.2-0.1-0.2-0.2s0.1-0.2,0.2-0.2s0.2,0,0.2,0
			c0.2,0,0.2,0.1,0.3,0.1C231,103,231.1,103,231.2,103C231.2,103.2,231.2,103.1,231.2,103z M226.1,104.3c0.4,0,0.7,0,1.1,0
			c0-0.2,0-0.2,0-0.3c-0.2,0-0.4,0-0.7,0c0-0.2,0-0.2,0-0.4c0.2,0,0.4,0,0.6,0c0-0.2,0-0.2,0-0.3c-0.2,0-0.4,0-0.7,0
			c0-0.2,0-0.2,0-0.2c0.2,0,0.4-0.1,0.7-0.1c0-0.2,0-0.2,0-0.2c-0.4,0-0.7,0-1,0C226.1,103.3,226.1,103.8,226.1,104.3z M233,103.1
			c-0.5-0.1-0.9-0.2-1.5-0.2c0,0.2,0,0.2,0,0.3c0.2,0.1,0.3,0.1,0.5,0.2c0,0.4-0.2,0.8-0.2,1.2c0.2,0,0.2,0,0.4,0
			c0.1-0.4,0.2-0.7,0.2-1.2c0.2,0,0.3,0,0.5,0C233,103.4,233,103.2,233,103.1z M229.3,102.9c-0.1,0.5-0.1,1-0.1,1.5
			c0.2,0,0.2,0,0.4,0c0-0.5,0.2-1,0.1-1.5C229.5,102.9,229.5,102.9,229.3,102.9z M222.3,103.3c-0.2-0.2-0.3-0.4-0.6-0.2
			C222,103.4,222,103.4,222.3,103.3z"/>
		<path class="fillable" d="M213.8,74.7c0.2,0.2,0.4,0.5,0.7,0.7c0.2,0.3,0.5,0.6,0.8,0.8c-0.9-1.1-1.7-2.4-2.4-3.7c0.2-0.1,0.2-0.1,0.3-0.2
			c0.1,0.2,0.2,0.3,0.2,0.5c0.1,0,0.2,0,0.2-0.1c0.5-0.2,1.1-0.3,1.6-0.5c0.2-0.1,0.2-0.1,0.4,0c2,0.4,4.2,0.8,6.1,1.2
			c0.8,0.2,1.6,0.3,2.5,0.5c0.1,0,0.2,0.1,0.2,0.1c0,0.2-0.1,0.4-0.1,0.6c-0.1,0-0.2,0-0.2,0c-0.4,0-0.8,0-1.2,0
			c-0.7,0-1.3,0.2-2,0.3c-0.3,0.2-0.7,0.2-0.9,0.5c-0.2,0.3-0.3,0.5-0.2,0.9c0.1,0.2,0.2,0.3,0.3,0.4c0.1,0.2,0.2,0.2,0.2,0.4
			c0.1,0.2,0.1,0.4-0.2,0.6c-0.2,0.2-0.4,0.3-0.7,0.4c-0.4,0.2-0.9,0.2-1.4,0.4c-0.2,0.1-0.2,0.1-0.4,0.2c0.2,0.2,0.2,0.2,0.4,0.3
			c0.2,0.2,0.5,0.4,0.7,0.7c0.2,0.1,0.2,0.2,0.2,0.3c0,0.3,0.1,0.7,0.1,1l0,0c0.2,1.6,0.9,2.8,2,3.8c0,0.5,0,0.9,0,1.4h-0.1
			c-0.9-0.8-1.6-1.9-2-3c0.2,0.6,0.2,1.1,0.5,1.5c0.4,0.8,0.8,1.5,1.5,2.1c0.2,0.2,0.2,0.4,0.2,0.7c0,0.2,0,0.2,0,0.3h-0.1
			c-0.2-0.2-0.2-0.2-0.3-0.3c-1.1-1.3-1.9-2.8-2.3-4.5c-0.2-0.9-0.4-1.7-0.4-2.7c0.2,0.2,0.2,0.4,0.4,0.7c0.2-0.4,0.1-0.7-0.2-0.9
			C216.8,78.3,215.2,76.6,213.8,74.7C213.8,74.9,213.8,74.7,213.8,74.7L213.8,74.7z"/>
		<path class="fillable" d="M215.1,107.4c-0.2,0.2-0.4,0.2-0.7,0.4c-0.4,0.3-0.9,0.4-1.4,0.3c-0.6-0.1-1.1-0.2-1.7-0.2c-0.4-0.1-0.9-0.2-1.3-0.4
			c0.4-0.4,0.7-0.8,1.1-1.2c-2-0.3-3.7-0.9-5.5-1.7c0.2-0.2,0.4-0.2,0.7-0.2c0.4,0,0.7-0.2,1.1-0.4c-1.5-0.2-2.8-0.4-3.8-1.4
			c0.4-0.3,0.7-0.7,1.2-1c0.7-0.3,1.2-0.7,1.7-1.2c0.2-0.2,0.2-0.2,0.4-0.4c0.2,0.2,0.3,0.4,0.4,0.6c-0.4,0.2-0.8,0.3-1.1,0.7
			c0.2,0.2,0.4,0.2,0.6,0.3c0.9,0.5,1.9,0.9,2.9,1.1c0.2,0.1,0.2,0.2,0.3,0.2c0.2,0.5,0.6,0.9,1,1.2c0.3,0.2,0.7,0.4,0.9,0.6
			c0.2,0.2,0.4,0.2,0.6,0.5c0.2,0.2,0.2,0.3,0.3,0.4c0.2,0.2,0.3,0.2,0.5,0.2c0.4,0,0.7-0.1,1.1-0.2c0.7-0.2,1.2-0.6,1.8-0.8
			c0.2-0.1,0.4-0.2,0.7-0.2c0.1,0.2,0.1,0.5,0.2,0.7c0.2,1.1,0.3,2.2,0.5,3.3c0,0.2,0,0.3-0.2,0.4c-0.2,0.2-0.5,0.4-0.8,0.6
			c-0.1-0.2-0.2-0.4-0.2-0.6c-0.1,0-0.2,0-0.2,0.1c-0.7,0.2-1.3,0.3-2,0.4c-0.1,0-0.2,0-0.3,0.1c0-0.2-0.1-0.2-0.1-0.3
			c0.1-0.4,0.2-0.8,0.7-1.1c0.2-0.2,0.4-0.3,0.7-0.5C215.1,107.5,215.1,107.5,215.1,107.4L215.1,107.4z"/>
		<path class="fillable" d="M206.4,45.6c0.2-0.2,0.3-0.5,0.6-0.7c0.2,0.5,0.3,1,0.4,1.5c0.1,0.1,0.2,0.1,0.2,0.2c-0.2,0.7-0.4,1.2-0.7,1.8
			c0.2,0,0.5,0,0.7,0.2c-0.9,0.9-1.7,1.9-2.1,3.1c-0.4-0.4-0.9-0.7-1.5-1c0.3-0.6,0.7-0.9,1.2-1.3c-0.7,0.2-1,0.7-1.5,1.2
			c-0.2-0.1-0.3-0.2-0.5-0.2c-0.1-0.4-0.2-0.8-0.2-1.2c0,0,0,0-0.1,0c0,0.4,0,0.9,0,1.3c-0.3-0.1-0.6,0.1-0.9,0.3
			c-0.1-0.4-0.1-0.7-0.2-1.1l0,0c0,0.4-0.1,0.8-0.1,1.2c-0.2,0.1-0.2,0.2-0.4,0.2c-0.1-0.2-0.2-0.2-0.2-0.3
			c-0.4-0.7-0.9-1.2-1.5-1.6c-0.2-0.2-0.3-0.4-0.4-0.7c0.3-0.2,0.6,0,0.9-0.1c0.2-1.2,0.8-2.3,1.7-3.2c0.2,0.2,0.2,0.3,0.2,0.4
			c0.1,0.2,0.2,0.3,0.2,0.5c0.4-0.7,0.9-1.5,1.5-2c0.7-0.5,1.5-0.9,2.3-1.1C206.6,44.1,206.5,44.9,206.4,45.6z"/>
		<path class="fillable" d="M221,63.9c-2.5-2.2-4.9-4.4-7.4-6.5c0.2-0.7,1.6-3.4,2.3-4.2c2.3,3,4.5,6,6.8,8.9C222.1,62.6,221.5,63.2,221,63.9z"/>
		<path class="fillable" d="M207.1,54.1c0.2-0.2,0.2-0.2,0.2-0.3c0,0,0,0,0-0.1c-0.2,0.1-0.3,0.2-0.4,0.2c-0.2-0.2-0.2-0.4-0.1-0.7
			c0.3-0.7,0.7-1.3,1.4-1.8c-0.2,0.1-0.4,0.2-0.5,0.3c-0.4,0.4-0.7,0.9-0.9,1.5c-0.1,0.2-0.1,0.2-0.2,0.3c-0.2-0.2-0.3-0.4-0.4-0.7
			c-0.2-0.7-0.2-1.4,0.2-2c0.4-0.7,0.9-1.4,1.6-1.9c0.1,0,0.1-0.1,0.2-0.1c0.3,0.4,0.7,0.7,0.7,1.4c1.1-0.9,2.5-1.2,3.8-1.5
			c0.1,0.7-0.1,1.2-0.3,1.8c0.6,0.2,1.2,0.2,1.8,0.2c-0.2,0.3-0.2,0.7-0.5,0.9c-2.8,2.1-4.9,4.7-6.7,7.8c-0.1,0.1-0.2,0.2-0.2,0.2
			c0,0,0,0-0.1,0.1c-0.9-0.1-2,0-2.9,0.5c0-0.2-0.1-0.5-0.1-0.8c0.2,0,0.2,0,0.4,0c0.5,0,1.1-0.2,1.5-0.2c0.2-0.1,0.4-0.2,0.4-0.4
			c0-0.1,0.1-0.2,0.1-0.2c0.1-0.2,0.2-0.4,0.4-0.4c0.7-0.2,1.1-0.7,1.5-1.1c0.2-0.3,0.3-0.7,0.2-1.1c0-0.2-0.1-0.4-0.2-0.5
			c-0.1-0.2-0.2-0.5-0.4-0.7c-0.2-0.1-0.2-0.2-0.4-0.3c0.2-0.2,0.4-0.1,0.7-0.1s0.4,0,0.7-0.1C208.1,54,207.6,54.1,207.1,54.1z"/>
		<path class="fillable" d="M193.5,89c0.2,0.2,0.2,0.2,0.4,0.3c0.9,0.7,2,1.1,3.3,1.3c0.8,0.2,1.6,0.2,2.5,0.2c0.8,0,1.6,0.1,2.5,0.1
			c0.9,0,1.7,0,2.7,0.1c1.1,0.1,2.3,0.2,3.4,0.4c0.9,0.2,1.7,0.4,2.6,0.6c0.2,0,0.2,0.1,0.2,0.2c0.7,0.7,1.5,1.2,2.1,1.9
			c0,0,0.1,0.1,0.1,0.2c-0.4-0.1-0.8-0.2-1.2-0.2c-0.8-0.2-1.6-0.2-2.5-0.4c-0.9-0.2-1.9-0.2-2.8-0.2c-0.4,0-0.8,0-1.2,0
			c-1.3,0-2.6,0-4-0.1c-0.9-0.1-2-0.2-2.9-0.4c-0.8-0.2-1.6-0.3-2.4-0.7c-1.2-0.5-2-1.3-2.5-2.5C193.7,89.4,193.5,89.2,193.5,89
			C193.5,89,193.5,89,193.5,89z"/>
		<path class="fillable" d="M199.4,63c-0.2-0.2-0.4-0.2-0.6-0.4c0-0.2,0-0.3-0.1-0.4c-0.1-0.3-0.2-0.6-0.3-0.9c-0.2-0.4-0.5-0.7-1-0.7
			c-0.2,0-0.3-0.1-0.4-0.1c-0.3,0-0.6-0.2-0.7-0.4c-0.2-0.1-0.2-0.2-0.3-0.2c-0.6-0.7-1.3-0.5-1.9-0.2c-0.1,0.1-0.2,0.1-0.2,0.2
			c-0.2-0.2-0.3-0.6-0.4-0.9c0.2-0.2,0.5,0,0.7-0.1c-0.1-0.9-0.2-1.7,0-2.5c0.3-0.2,0.6,0.2,0.8,0.3c0.1-0.2,0.1-0.2,0.2-0.4
			c0.2-0.6,0.4-1.1,0.7-1.6c0.2-0.3,0.4-0.7,0.8-0.8c0.1-0.1,0.2-0.1,0.2-0.2c0.1,0.2,0.1,0.3,0.2,0.5c0.2,0.4,0.2,0.7,0.4,1.1
			c0.2,0.6,0.7,1,1.3,1.2c0.4-0.7,0.7-0.7,1.1-0.6c0.2,0.4,0.2,0.7,0.1,1.2c0,0.2,0,0.4,0.1,0.6c0.2,0.2,0.2,0.5,0.2,0.7
			c0.2,0,0.4,0,0.7,0c0.2,0,0.4,0,0.6,0.1c0.2,0,0.2,0.2,0.2,0.3c0,0.2,0,0.5,0,0.7c0.4,0.3,0.4,0.4,0.1,0.9
			C200.8,61.3,200.1,62.1,199.4,63z"/>
		<path class="fillable" d="M199.1,55.4c-0.4-0.8-0.2-1.7,0.6-2.3c0.4-0.3,0.9-0.3,1.4-0.2c0.1,0,0.1,0,0.2,0.1c0.1-0.2,0.2-0.3,0.2-0.5
			c0.1-0.2,0.2-0.3,0.2-0.5c0.2-0.4,0.5-0.7,0.9-0.7c0.7-0.2,1.3-0.1,2,0.2c0.7,0.4,1.2,1.1,1.6,2c0.2,0.2,0.2,0.5,0.2,0.7
			c0,0.1,0.1,0.2,0.2,0.2c0.6,0.2,0.9,0.7,1.1,1.2c0.2,0.6,0.1,1.1-0.3,1.5c-0.2,0.2-0.5,0.4-0.8,0.6c-0.2,0.1-0.2,0.2-0.3,0.2
			c-0.2,0.1-0.4,0.2-0.4,0.5c-0.2,0.6-0.4,0.7-1,0.7c-0.3,0-0.7,0-1-0.2c-0.1-0.1-0.2-0.2-0.2-0.2c1-0.2,1.8-0.6,2.4-1.4
			c-0.6-0.6-1.2-0.7-2-0.7c-0.2-0.4-0.2-0.7-0.4-1.1c-0.2-0.2-0.2-0.4-0.4-0.6c-0.2-0.2-0.2-0.2-0.4,0c-0.2,0.2-0.4,0.4-0.6,0.7
			s-0.2,0.6-0.3,0.8c-0.1,0.2-0.1,0.2-0.1,0.3c-0.2-0.1-0.5-0.2-0.7-0.2c-0.2-0.1-0.5,0-0.7,0c0-0.2,0-0.3,0-0.5
			c0-0.4-0.2-0.4-0.4-0.4c-0.2,0-0.2,0-0.4,0.1C199.4,55.4,199.2,55.4,199.1,55.4z"/>
		<path class="fillable" d="M222.4,40.9c-0.4,1.2-1.2,2-2.3,2.7c0.2,0.1,0.2,0.1,0.3,0.1c0.2,0.1,0.2,0.1,0.2,0.3c-0.1,0.2-0.2,0.4-0.2,0.7
			c-0.2,0.5-0.6,0.7-1.2,0.7c0.2,0.2,0.4,0.3,0.4,0.6c-1,1.1-2.5,1.5-3.6,0.5c0.2-0.2,0.2-0.4,0.3-0.6c0.1-0.1,0.2-0.2,0.2-0.2
			c0.2-0.1,0.6-0.2,0.8-0.2c-0.3,0-0.7,0-0.9,0c0.2-0.5,0.1-1-0.1-1.6c0.5-0.3,1.1-0.7,1.6-0.9v-0.1c-0.6,0.2-1.1,0.4-1.6,0.7
			c-0.2-0.2-0.5-0.4-0.7-0.7c0.2-0.2,0.6-0.4,0.8-0.5c0,0,0,0,0-0.1c-0.2,0.2-0.6,0.2-0.8,0.3c-0.2,0.1-0.2,0.1-0.4,0
			c-0.4-0.2-0.7-0.2-1.1-0.2c-0.2,0-0.4,0-0.6,0c0.8-1.4,2-2.3,3.4-2.9c0.2,0.2,0.2,0.6,0.2,0.9c0.6-0.2,1.1-0.4,1.7-0.3
			c0.1,0.4-0.1,0.7-0.2,1.2c0.2,0,0.2-0.1,0.2-0.1c0.9-0.3,1.8-0.6,2.8-0.5C221.9,40.7,222.2,40.8,222.4,40.9z"/>
		<path class="fillable" d="M190.8,82.7c0.2,0.2,0.5,0.6,0.7,0.8l0,0c0.6,0.7,1.3,1.1,2.2,1.3c1,0.2,2,0.4,3,0.4c0.9,0.1,1.9,0.2,2.8,0.2
			c1,0.2,2,0.2,2.9,0.4c1.4,0.2,2.7,0.5,4,0.9c0.1,0,0.2,0.1,0.2,0.1c0.2,0.1,0.2,0.2,0.3,0.2c0.3,0.5,0.7,1,1,1.6
			c0.1,0.1,0.1,0.2,0.2,0.2c-0.2,0-0.2,0-0.2-0.1c-1.3-0.3-2.6-0.7-3.9-0.9c-0.8-0.2-1.6-0.2-2.5-0.3c-1.1-0.2-2.2-0.2-3.4-0.3
			c-1-0.2-2-0.2-2.9-0.4c-0.5-0.1-1-0.2-1.5-0.2c-0.7-0.2-1.1-0.4-1.6-0.8c-0.7-0.7-1.1-1.6-1.5-2.5C190.9,83.2,190.8,83,190.8,82.7
			L190.8,82.7z"/>
		<path class="fillable" d="M219.6,66.5c-0.4,1.1-0.6,2.3-0.5,3.5c-2,0-4,0-6,0c-0.6-1.4-1-4.7-0.8-5.8C214.7,64.9,217.2,65.7,219.6,66.5z"/>
		<path class="fillable" d="M190,68.4c0.1,0.1,0.1,0.1,0.1,0.2c0.2,0.5,0.5,0.8,0.9,1.1c1,0.7,2.1,1.2,3.4,1.6c1.2,0.4,2.5,0.7,3.6,1.1
			c1.2,0.4,2.5,0.9,3.6,1.6c0.4,0.2,0.9,0.5,1.4,0.7c0.2,0.1,0.2,0.2,0.2,0.2c0.1,0.7,0.2,1.3,0.2,2c0,0.1,0,0.2,0,0.2h-0.1
			c-0.9-0.6-1.9-1-2.9-1.4c-0.9-0.4-1.9-0.8-2.8-1.1c-1-0.4-2-0.7-3.1-0.9c-1.1-0.3-2.1-0.7-3.1-1.2c-0.2-0.1-0.3-0.2-0.4-0.2
			c-0.7-0.4-1-0.9-1.2-1.7C189.6,69.7,189.9,69.1,190,68.4z"/>
		<path class="fillable" d="M190.8,61.8c0.1,0.4,0.2,0.7,0.2,1.2c0.2,0.6,0.4,0.9,0.9,1.2c1,0.7,2.1,1,3.2,1.4c1,0.3,2,0.7,2.9,1
			c1.3,0.5,2.5,1.2,3.7,1.9c0.5,0.3,1,0.6,1.5,0.9c-0.1,0.7-0.2,1.4-0.2,2.1c-0.2-0.2-0.4-0.2-0.7-0.4c-1.6-1-3.3-1.8-5-2.5
			c-1.4-0.5-2.8-0.9-4.2-1.5c-0.7-0.2-1.4-0.6-2-1c-0.4-0.2-0.7-0.6-0.9-0.9c-0.3-0.4-0.4-0.9-0.4-1.4c0-0.7,0.2-1.2,0.6-1.9
			C190.6,62.1,190.8,61.9,190.8,61.8L190.8,61.8z"/>
		<path class="fillable" d="M215.2,46.2c0.2,0.2,0.4,0.4,0.6,0.7c0.2,0.3,0.3,0.7,0.4,1c0,0.4-0.2,0.9-0.7,1.1c-0.2,0.2-0.6,0.2-0.9,0.2
			c0,0.1,0,0.2-0.1,0.3c0,0.2-0.1,0.3-0.1,0.5c-0.2,0.5-0.5,0.7-1,0.7c-0.3,0-0.6-0.1-0.9-0.2c0.2-0.4,0.5-0.9,0.5-1.4
			s-0.3-0.9-0.7-1.3c0.2-0.2,0.2-0.2,0.3-0.3c0.4-0.4,0.7-0.9,0.6-1.5c0-0.2-0.1-0.2-0.2-0.4c-0.5-0.2-0.9-0.1-1.4,0.2
			c-0.1,0.1-0.2,0.1-0.2,0.2c-0.2-0.3-0.3-0.6-0.5-0.8c-0.2-0.2-0.4-0.4-0.7-0.7c-0.9,0.8-1.1,1.8-0.7,2.9c-0.8-0.2-1.4-0.9-1.5-1.6
			c-0.2-0.6,0-1.1,0.2-1.6c0.2-0.2,0.2-0.4,0.4-0.5c0.3-0.2,0.7-0.3,1.1-0.2c0,0,0.1,0,0.1,0.1c0.4,0.2,0.4,0.2,0.7-0.2
			c0.4-0.5,0.9-0.5,1.4-0.5c0.3,0,0.6,0.2,0.7,0.4c0.4-0.4,0.9-0.7,1.6-0.5c0.5,0.1,0.9,0.2,1.2,0.7c0.3,0.4,0.5,0.9,0.5,1.5
			C216,45.4,215.6,45.9,215.2,46.2z"/>
		<path class="fillable" d="M218.8,110.7c0.8-0.4,1.6-0.6,2.5-0.7c1.1-0.2,2.3-0.4,3.5-0.5c0.8-0.1,1.6-0.1,2.5-0.2c0.8-0.1,1.7,0,2.5,0.1
			c1.3,0.1,2.6,0.2,3.9,0.5c1.2,0.2,2.5,0.5,3.8,0.7c-0.2,0.2-0.2,0.2-0.2,0.2c-0.6,0.3-1.2,0.5-1.8,0.7c-0.9,0.2-1.8,0.4-2.8,0.4
			c-0.4,0.1-0.8,0.1-1.2,0.2c-0.2,0-0.2,0-0.4,0c-0.4-1.4-1.3-2.1-2.5-2.1c-1.5-0.1-2.4,0.7-2.8,2.2c-0.4,0-0.7,0-1.1-0.1
			c-0.7-0.1-1.3-0.2-2-0.2c-1.2-0.2-2.3-0.4-3.4-0.9C219.2,110.8,219,110.7,218.8,110.7z"/>
		<path class="fillable" d="M217.7,99.6c-0.5,0.1-0.9,0.2-1.5,0.2c0,0.3-0.1,0.6-0.1,0.9c-0.9-0.5-1.8-0.6-2.8-0.1c0.2,0.7,0.7,1.4,1.2,1.9
			c-0.4,0.6-0.7,1.1-0.7,2c0.3,0.2,0.6,0.2,0.9,0.4c-0.2,0.2-0.5,0.4-0.8,0.5c-0.3,0.2-0.5,0-0.7-0.2c-0.2-0.2-0.2-0.3-0.3-0.4
			c-0.2-0.4-0.5-0.6-0.9-0.7c-0.2-0.1-0.5-0.2-0.7-0.2c-0.4-0.2-0.6-0.5-0.7-0.9c0-0.4,0.1-0.9,0.2-1.3c0-0.2,0.1-0.4,0.1-0.6
			c0.1-0.3,0-0.6-0.2-0.8c-0.1-0.2-0.2-0.2-0.2-0.3c-0.3-0.6-0.1-1.2,0.5-1.6c0.2-0.2,0.5-0.2,0.7-0.2c0.2,0,0.2,0,0.4,0
			c0.3,0,0.7-0.1,0.9-0.3c0.2-0.2,0.2-0.2,0.3-0.2c0.4-0.2,0.7-0.2,1,0.1c0.3,0.3,0.6,0.3,0.9,0.2c0.2-0.1,0.3-0.1,0.4-0.2
			c0.4-0.2,0.7,0,0.9,0.2C217.4,98.3,217.5,99,217.7,99.6z"/>
		<path class="fillable" d="M202.5,85c0.4-0.6,0.5-1.1,0.4-1.8c-0.6-0.1-1.1-0.2-1.6,0.2c-0.4-0.7-0.8-1.4-1.7-1.6c-0.5,0.7-0.6,1.3-0.3,2
			c-0.4-0.2-0.8-0.2-1.2-0.2c-0.3,0-0.6,0.2-0.8,0.3c-0.2,0.2-0.2,0.2-0.1,0.4c0.2,0.2,0.2,0.4,0.4,0.5c-0.5,0.2-1.1-0.2-1.4-0.7
			c-0.2-0.2-0.2-0.6-0.1-0.9c0.1-0.2,0-0.2-0.1-0.4c-0.2-0.2-0.2-0.4-0.4-0.7c-0.2-0.7,0-1.2,0.7-1.5c0.2-0.1,0.2-0.1,0.4-0.2
			c0.1-0.2,0.1-0.4,0.2-0.7c0.2-0.7,0.5-1,1.1-1.2c0.4-0.2,0.8-0.2,1.2-0.2c0.7,0,1.1,0.3,1.3,0.9c0,0.1,0,0.1,0.1,0.2
			c0.2,0,0.5-0.1,0.7-0.1c0.1,0,0.2,0,0.2,0c0.7,0,1,0.4,1.1,0.9c0.1,0.2,0,0.5,0,0.7c0.2,0.2,0.5,0.4,0.7,0.6
			c0.4,0.3,0.7,0.7,0.7,1.2c0.2,0.7,0.1,0.9-0.4,1.2c-0.2,0.2-0.3,0.2-0.5,0.3C202.9,84.9,202.8,85,202.5,85z"/>
		<path class="fillable" d="M219.3,81c0-0.2,0-0.3,0-0.4c0.7-0.3,1.2-0.7,1.8-0.9c0.4-0.2,0.7-0.4,1-0.7c0.2-0.2,0.2-0.3,0.4-0.5
			c0.2-0.2,0.2-0.5-0.1-0.7c-0.2-0.2-0.4-0.4-0.6-0.6s-0.4-0.4-0.7-0.6c-0.3-0.3-0.3-0.6,0-0.9c0.3-0.3,0.7-0.5,1.1-0.6
			c0.7-0.2,1.3-0.2,2-0.2c0,0,0.1,0,0.2,0c-0.1,0.3-0.1,0.7-0.2,1c-0.1,1.1-0.2,2.1-0.2,3.2c-0.1,1.2-0.4,2.3-1,3.4
			c-0.2,0.2-0.3,0.5-0.7,0.7c-0.2,0.2-0.3,0.2-0.4,0.4c-0.2,0.2-0.2,0.3-0.4,0.4c-0.1-0.1-0.2-0.1-0.2-0.2c-0.7-0.6-1.5-1.2-1.8-2
			C219.4,81.7,219.4,81.4,219.3,81C219.2,81,219.3,81,219.3,81z"/>
		<path class="fillable" d="M207.5,95.3c1.1-0.2,2,0.2,2.8,0.8c0.2-0.2,0.2-0.3,0.3-0.5c0.2-0.2,0.2-0.2,0.4-0.4c0.4,0.2,0.7,0.4,0.9,0.7
			c0.3-0.2,0.7-0.3,1-0.4c0.2-0.2,0.2-0.1,0.4,0.2c0.2,0.2,0.2,0.5,0.2,0.8c-0.1,0.2-0.2,0.4-0.2,0.5c-0.2,0.3-0.4,0.4-0.7,0.4
			c-0.2-0.1-0.6,0-0.8,0.1c-0.6,0.1-1,0.4-1.2,0.9c-0.2,0.6-0.2,1.1-0.2,1.7c0,0.2,0,0.2,0.1,0.3c0.2,0.4,0.1,0.7-0.1,1.1
			c-0.1,0.2-0.2,0.4-0.2,0.7c-1.1-0.2-2-0.7-3-1.2c0.4-0.3,0.8-0.4,1.2-0.7c-0.2-0.2-0.4-0.3-0.6-0.5c-0.4-0.3-0.7-0.7-0.9-1.1
			c-0.2-0.2-0.2-0.6-0.3-0.9c0-0.2,0.1-0.2,0.2-0.4c0.2-0.2,0.6-0.2,0.9-0.2c0.1,0,0.2,0,0.2,0.1c-0.1-0.4-0.2-0.7-0.2-1.1
			C207.5,96,207.5,95.7,207.5,95.3z"/>
		<path class="fillable" d="M203.4,62.1c0.2,0.4,0.2,0.9,0.2,1.3c0.4-0.1,0.9-0.2,1.3-0.2c-0.7,1.9-1.2,3.8-1.5,5.7c-0.2-0.1-3.4-1.8-4.3-2.4
			c0.1-0.1,0.2-0.2,0.2-0.2c0.3-0.2,0.7-0.6,0.8-0.9c0.2-0.3,0.2-0.6,0.1-0.9c-0.1-0.2-0.2-0.2-0.3-0.3c-0.3-0.1-0.4-0.2-0.4-0.5
			c0-0.8,0.9-1.4,1.5-1.5c0.2,0,0.2,0,0.2,0.2c0.1,0.2,0.2,0.4,0.2,0.6C202.1,62.4,202.7,62.1,203.4,62.1z"/>
		<path class="fillable" d="M194.7,64.8c-0.8-0.4-1.6-0.7-2.3-1.3c-0.2-0.1-0.2-0.2-0.2-0.2c-0.2-0.4-0.2-0.7,0.3-0.8c0.2-0.1,0.4-0.1,0.6-0.1
			c0-0.2,0-0.2,0-0.4c0.1-1.1,0.7-1.7,1.9-1.8c0.5-0.1,0.9,0.2,1.2,0.7c0.1,0.1,0.1,0.2,0.2,0.3c0.2,0,0.3,0,0.4,0
			c0.2,0,0.4,0,0.7,0.1c0.5,0.2,0.9,0.7,0.9,1.2c0,0.3,0,0.6,0,0.9c0.2,0,0.2,0,0.3,0.1c0.2,0,0.2,0.1,0.4,0.1
			c0.2,0.2,0.3,0.2,0.2,0.5c0,0.1-0.1,0.2-0.1,0.3c0.2,0.1,0.2,0.1,0.3,0.2c0.2,0.1,0.3,0.2,0.4,0.2c0.2,0.2,0.2,0.6,0.1,0.8
			c-0.2,0.2-0.2,0.3-0.4,0.5c0-0.2,0-0.3,0-0.4c0-0.1,0-0.2,0-0.4c-0.9-0.2-1.8-0.1-2.8,0.2c-0.2-0.7-0.6-1.1-1.1-1.5
			c-0.2-0.2-0.2-0.2-0.4,0.1c-0.2,0.2-0.2,0.4-0.3,0.7C194.8,64.5,194.8,64.7,194.7,64.8z"/>
		<path class="fillable" d="M190.1,66.1C190.2,66.1,190.2,66.1,190.1,66.1c0.3,0.6,0.7,0.9,1.2,1.1c1.6,0.9,3.4,1.6,5.2,2.1c1.2,0.4,2.5,0.7,3.6,1.3
			c1,0.5,2,1.1,2.9,1.6c0,0.5,0,1,0,1.6c-0.1,0-0.2,0-0.2-0.1c-2-1.3-4.3-2.2-6.6-2.8c-1.1-0.3-2.3-0.6-3.4-1
			c-0.8-0.3-1.6-0.8-2.3-1.5c-0.4-0.4-0.7-0.9-0.8-1.5C190,67,190,66.4,190.1,66.1z"/>
		<path class="fillable" d="M210.1,91.2c-0.4-0.1-0.7-0.2-1.1-0.2c-1.3-0.3-2.6-0.5-3.9-0.7c-1.6-0.2-3.1-0.4-4.7-0.4c-1.1-0.1-2-0.2-3.1-0.2
			c-1.6-0.2-3-0.7-4.2-1.8c-0.3-0.2-0.5-0.6-0.7-0.9h0.1c0.7,0.5,1.5,0.7,2.2,0.9c1,0.2,2,0.3,2.9,0.5c0.7,0.2,1.5,0.2,2.1,0.2
			c0.9,0.1,1.8,0.2,2.7,0.2c0.7,0.1,1.2,0.2,1.9,0.2c1.2,0.2,2.5,0.4,3.8,0.7c0.2,0.1,0.4,0.2,0.7,0.2c0.2,0.1,0.2,0.2,0.4,0.2
			C209.5,90.4,209.7,90.8,210.1,91.2L210.1,91.2z"/>
		<path class="fillable" d="M207.1,95.8c-0.5-0.4-1-0.7-1.6-0.7c-0.2,0.5-0.2,1-0.1,1.5c-0.2,0-0.2,0.1-0.4,0.1c-0.5,0.1-1,0.1-1.5,0.3
			c-0.2,0.1-0.2,0.2-0.4,0.2c0.5,0.7,1.1,1.1,1.8,1.6c-0.1,0.2-0.1,0.5-0.2,0.7c-0.1,0.2,0,0.5,0.1,0.7c0.1,0.2,0.2,0.2,0.3,0.2
			c0.2,0,0.4,0.1,0.6,0.2c-0.2,0.1-0.5,0.2-0.7,0.2c-0.4,0.2-0.7,0.1-1-0.2c-0.3-0.2-0.6-0.5-0.9-0.7c-0.2-0.2-0.2-0.2-0.4-0.3
			c-0.2-0.1-0.5-0.2-0.7-0.3c-0.3-0.2-0.3-0.4-0.2-0.7c0.1-0.2,0.2-0.2,0.2-0.4c-0.2-0.1-0.2-0.1-0.2-0.2c-0.5-0.2-0.7-0.7-0.9-1.2
			c-0.1-0.4,0.2-0.8,0.5-1.1c0.3-0.2,0.7-0.3,0.9-0.4c0.1,0,0.2,0,0.2,0c0-0.1,0.1-0.1,0.1-0.1c0.2-0.8,0.8-1.3,1.7-1.5
			c0.5-0.1,0.9,0,1.5,0.1c0.4,0.1,0.7,0.2,0.9,0.4s0.4,0.4,0.4,0.7C207.1,95.4,207.1,95.5,207.1,95.8z"/>
		<path class="fillable" d="M193.2,76c0.2-0.4,0.4-0.6,0.8-0.7c0.2-0.1,0.2,0,0.4,0.1c0.7,0.6,1.1,1.1,1.5,1.9c0,0,0,0.1,0.1,0.1
			c0.4-0.2,0.8-0.2,1.2-0.2c0.2,0,0.2,0.1,0.3,0.2c0.2,0.3,0.2,0.7,0.2,1c0,0.2,0,0.2-0.2,0.2c-0.8,0.3-1.1,0.9-1.2,1.7
			c0,0,0,0.1-0.1,0.2c-0.1-0.2-0.1-0.2-0.2-0.2c-0.2-0.3-0.3-0.7-0.7-0.9c-0.2-0.1-0.2-0.2-0.4-0.1c-0.2,0.1-0.5,0.2-0.7,0.4
			c-0.1-0.2-0.2-0.2-0.2-0.2c-0.2-0.2-0.4-0.3-0.7-0.4c-0.3-0.2-0.5-0.1-0.7,0.2c-0.1,0.1-0.1,0.2-0.2,0.2c-0.6-0.2-1.2-0.2-1.7,0
			c-0.3-0.6-0.4-0.7-0.4-1c0.6-0.1,1.1-0.2,1.7-0.2c-0.2-0.3-0.4-0.7-0.7-0.9c-0.2-0.3-0.2-0.7-0.2-1.1c0-0.4,0-0.7,0-1.2
			C192.3,74.8,192.7,75.4,193.2,76z"/>
		<path class="fillable" d="M211.1,71.2c-0.3,0.4-0.1,0.8-0.2,1.3c-0.1-0.1-0.2-0.2-0.2-0.2c-0.7-1.4-1.2-2.7-1.8-4.1c-0.7-1.5-0.9-2.9-1.2-4.4
			c-0.2-0.8-0.2-1.6-0.2-2.5c0-0.7,0.2-1.5,0.4-2.3c0.1-0.2,0.2-0.4,0.3-0.6c0.2-0.2,0.4-0.2,0.7,0c0.2,0.2,0.2,0.4,0.4,0.7
			c0.2,0.7,0.2,1.3,0.2,2c0,0.8,0,1.6,0,2.5c0,1.4,0.2,2.7,0.4,4C210.3,68.8,210.6,70,211.1,71.2z"/>
		<path class="fillable" d="M219.9,65.8c-2.5-1.2-4.9-2.4-7.4-3.6c0.1-0.9,0.2-1.9,0.5-2.8c2.5,1.7,5.2,3.4,7.6,5C220.3,64.9,220.1,65.3,219.9,65.8z"
			/>
		<path class="fillable" d="M191.5,79.6c0.4-0.1,0.7-0.1,1.1,0.1c0.2,0.2,0.5,0.1,0.7-0.2c0,0,0.1-0.1,0.2-0.1c0.4,0.2,0.8,0.6,0.9,1.1
			c0.2-0.2,0.2-0.3,0.3-0.4c0.2-0.2,0.3-0.2,0.4-0.3c0.3,0.2,0.6,0.6,0.7,0.9c0.1,0.2,0,0.2-0.2,0.3c-0.1,0.1-0.2,0.2-0.2,0.2
			c-0.4,0.4-0.6,0.9-0.4,1.5c0.2,0.2,0.3,0.5,0.4,0.7c0.1,0.2,0.1,0.6,0.2,0.9c0.1,0.2,0.2,0.4,0.2,0.7c-0.4,0.1-0.7,0-1.1-0.1
			c-1.1-0.2-2-0.8-2.8-1.6c-0.2-0.2-0.5-0.5-0.7-0.7c-0.2-0.2-0.2-0.2,0-0.4s0.2-0.2,0.4-0.3c0.2-0.2,0.3-0.2,0.5-0.2
			C191.7,80.8,191.3,80.3,191.5,79.6z"/>
		<path class="fillable" d="M217,49.9c-0.4,0.4-0.8,0.9-1.1,1.2c-1.8,2-3.3,4.4-4.2,7c-0.5,1.5-0.9,2.9-0.9,4.4c-0.1,0.8-0.1,1.7-0.1,2.5
			c0.1,1.8,0.4,3.6,1,5.4c0.1,0.2,0.1,0.2,0.2,0.4c-0.1,0.1-0.2,0.1-0.2,0.1c-0.1,0-0.2,0.1-0.2,0.1c-0.2-0.4-0.3-0.9-0.4-1.2
			c-0.4-1.5-0.7-3-0.9-4.6c-0.1-0.9-0.1-2,0-2.9c0.2-2.8,0.9-5.4,2.2-7.9c0.8-1.5,1.8-2.8,3.3-3.8C216.1,50.4,216.5,50.2,217,49.9
			C216.9,50,216.9,50,217,49.9z"/>
		<path class="fillable" d="M207.5,45.1c-0.6-1.3,0.4-3.4,2-4.3c0.1,0.3,0.2,0.7,0.2,1c0.7-0.9,1.5-1.7,2.5-2.3c0.1,0.2,0.2,0.5,0.2,0.7
			c0.9-0.7,1.9-1.3,3.1-1.2c0,0.2,0.1,0.5,0.1,0.7c-0.2,0.2-0.3,0.2-0.4,0.3c-0.4,0.3-0.9,0.7-1.4,1.1c-0.5,0.4-0.9,1-1.1,1.7
			c-0.4-0.2-0.9-0.4-1.4-0.4c-0.5,0-0.9,0.4-1.2,0.8c-0.2-0.1-0.5-0.1-0.7-0.2c-0.5,0-0.9,0.2-1.2,0.6c-0.2,0.3-0.4,0.7-0.5,1.1
			C207.6,44.9,207.5,45,207.5,45.1z"/>
		<path class="fillable" d="M206.8,86.6c-1.2-0.4-2.4-0.8-3.6-1.2c0.1-0.1,0.2-0.2,0.2-0.2c0.3-0.2,0.7-0.6,0.8-0.9c0.2-0.5,0.3-1,0.1-1.5
			c-0.2-0.3-0.4-0.7-0.6-0.9c-0.2-0.2-0.4-0.4-0.7-0.7c-0.2-0.2-0.2-0.2-0.2-0.4c0-0.2,0-0.5-0.2-0.7c-0.2-0.5-0.5-0.7-1-0.8
			c-0.2,0-0.6,0-0.9,0c-0.2,0-0.2,0-0.3-0.2c-0.1-0.4-0.4-0.7-0.7-0.7c-0.1-0.1-0.2-0.1-0.2-0.2c0.2-0.1,0.5-0.1,0.7-0.2
			c0.5-0.1,0.9-0.2,1.4-0.3c0.3-0.1,0.6-0.1,0.9,0c0.2,0.1,0.4,0.2,0.7,0.2c0.2,0.1,0.3,0.2,0.4,0.4c0.2,1.1,0.5,2.2,0.9,3.3
			c0.6,1.6,1.2,3.2,2,4.7C206.7,86.4,206.7,86.5,206.8,86.6z"/>
		<path class="fillable" d="M217.5,72.3c0.4-0.2,0.7-0.2,1.1-0.4c1.1-0.4,2.3-0.7,3.4-1.1c0.2-0.1,0.3-0.1,0.5,0c0.8,0.2,1.7,0.5,2.5,0.7
			c-0.2,0.9-0.3,1.7-0.4,2.5C222.2,73.6,219.8,72.9,217.5,72.3L217.5,72.3z"/>
		<path class="fillable" d="M206.3,62.7c0.4,0.4,0.7,0.7,0.9,1.2c0.2,0.7,0.4,1.3,0.6,2c0.2,1.1,0.5,2,0.9,3.1c0.3,0.7,0.7,1.3,0.9,2
			c0.2,0.5,0.4,1,0.7,1.6c0.1,0.2,0.2,0.3,0.2,0.5c0,0.2-0.2,0.3-0.3,0.2c-0.2-0.2-0.4-0.2-0.5-0.4c-0.4-0.4-0.7-0.9-1.1-1.5
			c-0.9-1.9-1.8-3.8-2.5-5.7c-0.2-0.4-0.2-0.9-0.3-1.4C205.8,63.8,206.1,63.2,206.3,62.7z"/>
		<path class="fillable" d="M199.2,98c0.2-0.2,0.5-0.3,0.7-0.5c-0.7-0.5-1.2-0.9-1.7-1.5c0.3-0.2,0.6-0.4,0.9-0.6c-0.7-0.7-1.3-1.2-1.5-2.2
			c1.9,0.4,3.7,0.5,5.6,0.6c0,0.1,0,0.1,0,0.2c-0.3,0.3-0.6,0.7-0.7,1.1c-0.1,0.2-0.2,0.2-0.4,0.3c-0.2,0.1-0.4,0.2-0.5,0.2
			c-0.2,0.1-0.2,0.2-0.4,0.2c-0.7,0.3-0.7,0.8-0.5,1.5c0.2,0.3,0.3,0.7,0.5,0.9c0.1,0.2,0.2,0.2,0.2,0.4
			C200.6,98.5,199.9,98.5,199.2,98z"/>
		<path class="fillable" d="M204.9,66.2c0.4,0.2,0.7,0.4,0.9,0.7c0.2,0.4,0.5,0.9,0.7,1.3c0.5,1,0.9,2,1.5,3c0.4,0.7,0.9,1.3,1.4,2
			c0.2,0.4,0.5,0.7,0.7,1.1c0.1,0.2,0.2,0.3,0.2,0.4c0,0.2-0.1,0.2-0.2,0.2c-0.1-0.1-0.2-0.2-0.3-0.2c-0.7-0.4-1.1-0.9-1.6-1.5
			c-1-1.4-2-2.8-2.8-4.3c-0.2-0.4-0.4-0.7-0.5-1.1C204.6,67.4,204.7,66.8,204.9,66.2z"/>
		<path class="fillable" d="M197.2,51.4c0.7-0.1,1.1,0.1,1.6,0.6c0-0.9,0.2-1.6,0.8-2.3c0.7,0.4,1.2,1,1.6,1.7c-0.2,0.3-0.2,0.7-0.3,0.9
			c-0.2-0.1-0.3-0.1-0.5-0.2c-0.2-0.1-0.4,0.1-0.5,0.2c-0.2,0.2-0.4,0.4-0.7,0.5c-0.2,0.1-0.5,0.4-0.6,0.7c-0.1,0.6-0.2,1.1-0.2,1.6
			c0,0.2-0.1,0.2-0.1,0.4c-0.3-0.2-0.4-0.4-0.7-0.7c-0.3-0.4-0.5-1-0.6-1.5C197.1,52.9,197.1,52.2,197.2,51.4z"/>
		<path class="fillable" d="M228.3,71c-0.1,0.2-0.2,0.3-0.2,0.5c-0.1-0.2-0.2-0.2-0.2-0.2c-0.1,0.1-0.2,0.2-0.2,0.2c-0.1-0.2-0.2-0.2-0.2-0.4
			c-0.1,0.2-0.2,0.2-0.2,0.4c-0.1-0.2-0.2-0.3-0.2-0.4c-0.1,0.2-0.2,0.4-0.2,0.6c-0.1-0.2-0.2-0.3-0.2-0.4c-0.1,0.2-0.2,0.2-0.2,0.3
			c-0.1-0.2-0.2-0.2-0.2-0.3c-0.1,0.2-0.2,0.2-0.2,0.4c-0.1-0.2-0.2-0.2-0.2-0.4c-0.1,0.1-0.2,0.2-0.2,0.2c-0.1-0.1-0.1-0.2-0.2-0.2
			c-0.1,0.1-0.2,0.1-0.2,0.2c0.1-0.2,0.1-0.4,0.2-0.6c0.2-0.4,0.2-0.9,0.3-1.3c0.1-0.2,0.2-0.2,0.3-0.3c0.7-0.2,1.4-0.2,2-0.2
			c0.1,0,0.2,0,0.2,0c0.2-0.2,0.2-0.4,0.4-0.7c0,0,0,0,0-0.1c-0.2,0.1-0.2,0.2-0.4,0.2c0-0.1-0.1-0.2-0.1-0.2
			c-0.2,0.1-0.2,0.2-0.4,0.2c0-0.1-0.1-0.2-0.1-0.2c-0.1,0.1-0.2,0.2-0.2,0.2c0-0.1,0-0.2-0.1-0.2c-0.2,0.2-0.2,0.2-0.4,0.3
			c0-0.2,0-0.2,0-0.2c-0.2,0.2-0.3,0.2-0.4,0.2c0.2-0.2,0.2-0.4,0.6-0.6c0.7-0.2,1.5-0.5,2.3-0.6c0.1,0,0.2,0,0.3,0
			c-0.1,0.1-0.1,0.2-0.2,0.2c-0.1,0.1-0.2,0.2-0.3,0.2c-0.2,0.2-0.3,0.3-0.2,0.6c0.1,0.1,0.1,0.2,0.2,0.2c0.1,0.1,0.2,0.2,0.2,0.2
			c0.5,0,0.9,0,1.5,0c-0.2,0.1-0.2,0.2-0.2,0.2c-0.3,0.1-0.7,0.2-1,0.2c-0.2,0-0.2,0.1-0.4,0.2c-0.5,0.2-0.7,0.5-0.9,0.9
			c-0.1,0.3-0.2,0.7-0.2,1.1C228.5,71.2,228.5,71.1,228.3,71z"/>
		<path class="fillable" d="M217.8,97.6c-0.9-0.5-1.7-0.7-2.7-0.3c-0.2-0.4-0.7-0.4-1.1-0.5c-0.2-0.4-0.2-0.7-0.3-1c-0.2-0.4-0.4-0.6-0.9-0.6
			c-0.3,0-0.7,0-0.9,0.2c-0.5-0.7-1.4-0.8-1.7-0.2h-0.1c-0.6-0.4-1.2-0.7-2-0.7c-0.1,0-0.2,0-0.2,0c-0.2,0.1-0.4,0-0.5-0.2
			c-0.2-0.2-0.3-0.3-0.6-0.5c0.3-0.1,0.7,0,0.9,0c0.4,0,0.7,0.1,1.1,0.2c1.6,0.2,3.1,0.4,4.7,0.7c0.2,0,0.2,0.1,0.3,0.2
			c1,0.7,2,1.1,3.1,1.6C217.4,96.7,217.6,97.1,217.8,97.6z"/>
		<path class="fillable" d="M203.9,63c0.2-0.4,0.1-0.7-0.1-1.1c-0.1-0.2-0.2-0.2-0.3-0.2c-0.7,0.1-1.1,0.2-1.6,0.7l-0.1,0.1c-0.1-0.2-0.1-0.4-0.2-0.5
			c-0.2-0.2-0.3-0.2-0.5-0.2c0.4-0.5,0.9-1.1,1.1-1.7c0.4,0,0.7-0.2,1.1-0.4c0.2,0.4,0.2,0.7,0.2,1.1c0.9-0.3,1.9-0.5,2.9-0.4
			c-0.2,0.4-0.4,0.7-0.5,1c-0.2,0.4-0.4,0.9-0.6,1.4c-0.1,0.2-0.2,0.2-0.2,0.2C204.7,62.7,204.3,62.8,203.9,63z"/>
		<path class="fillable" d="M193.8,74.2c0.4,0.1,0.7,0.2,1.1,0.2c1.7,0.4,3.4,1,5.1,1.8c0.7,0.4,1.5,0.7,2.3,1c0.1,0,0.1,0.1,0.2,0.2
			c-0.7,0.2-1.2,0.2-1.9,0.3c-0.3-0.5-0.8-0.7-1.3-0.9c-0.2-0.1-0.2-0.2-0.3-0.2c-0.2-0.1-0.2-0.2-0.3-0.2c-0.4-0.2-0.7-0.2-1,0.2
			c0,0-0.1,0.1-0.1,0.2c-0.4-0.1-0.9-0.2-1.3,0.2c-0.1-0.1-0.2-0.2-0.2-0.2c-0.3-0.7-0.8-1.2-1.5-1.5C194.3,75,194,74.7,193.8,74.2z
			"/>
		<path class="fillable" d="M225.9,77c-0.2-0.2,0.2-0.6-0.1-0.8c-0.1,0.1-0.2,0.1-0.2,0.2c-0.1,0.2-0.1,0.2-0.1,0.3c0,0.2-0.1,0.2-0.2,0.3
			c0-0.2,0.1-0.4,0.1-0.7h-0.1c-0.1,0.2-0.1,0.4-0.2,0.7c-0.3-0.2-0.1-0.6-0.2-0.8c-0.3,0.2-0.2,0.6-0.4,0.7
			c-0.2-0.3-0.2-1.8,0.1-2.3c1.4,0.2,2.7,0.1,4.1-0.2c0.2,0.7,0.6,1.2,0.6,2c-0.2-0.2-0.2-0.6-0.5-0.7c-0.2,0.1-0.2,0.2-0.2,0.3
			c0,0.2,0,0.2,0,0.3c0,0.1,0,0.2-0.2,0.2c-0.1,0-0.2-0.2-0.2-0.2c0-0.2-0.1-0.3-0.1-0.5h0.2c0,0.1-0.1,0.2-0.1,0.2
			c0,0.2,0,0.3,0,0.4c0,0.2-0.1,0.2-0.2,0.2c0-0.2,0-0.5-0.1-0.7H228c0,0.1-0.1,0.1-0.1,0.2c0,0.2,0,0.3,0,0.4s0,0.2-0.2,0.2
			s-0.2-0.2-0.2-0.2c0-0.1,0-0.2,0-0.2c0-0.2,0-0.2-0.2-0.4c0,0.1-0.1,0.2-0.1,0.2v0.2c0,0.2,0.1,0.4-0.2,0.4
			c-0.2,0-0.2-0.2-0.2-0.3s0-0.2,0-0.3c-0.2,0-0.2,0.1-0.2,0.2c0,0.2,0,0.3,0,0.5c0,0.1-0.1,0.2-0.2,0.2c-0.1-0.1-0.2-0.2-0.2-0.2
			c0-0.1,0-0.2,0-0.2c0-0.2,0.1-0.2-0.1-0.4c-0.2,0.2,0.1,0.6-0.2,0.7c-0.2-0.1-0.2-0.2-0.2-0.4s0.1-0.2-0.1-0.4
			c-0.2,0.2-0.1,0.2-0.1,0.4s0.1,0.3-0.2,0.4c-0.2-0.2,0.1-0.5-0.1-0.7C226,76.4,226.3,76.8,225.9,77z"/>
		<path class="fillable" d="M204.3,69.4c0.3,0.1,0.6,0.2,0.7,0.4s0.4,0.4,0.6,0.7c0.3,0.4,0.7,0.9,0.9,1.4c0.7,1.1,1.6,2,2.5,2.9
			c0.2,0.2,0.3,0.3,0.5,0.5c0.1,0.1,0.2,0.2,0.2,0.3c0.1,0.2,0.2,0.2,0.1,0.4c-0.2,0.2-0.2,0-0.4,0c-0.6-0.2-1.1-0.7-1.6-1.1
			c-0.9-0.9-1.8-1.8-2.6-2.8c-0.3-0.4-0.6-0.8-0.8-1.2C204.2,70.3,204.2,69.8,204.3,69.4z"/>
		<path class="fillable" d="M197.6,84.4c0.2-0.2,0.4-0.3,0.7-0.4c0.5-0.1,0.9,0.1,1.3,0.3c0.1,0.1,0.2,0.1,0.2,0.2c-0.2-0.4-0.3-0.9-0.2-1.3
			c0.1-0.3,0.2-0.6,0.2-0.9c0.7,0.4,1.2,0.9,1.4,1.8c0.4-0.4,0.9-0.4,1.5-0.4c0.1,0.3,0,0.6-0.2,0.8c-0.2,0.2-0.4,0.4-0.7,0.7
			c-0.1,0.1-0.2,0.1-0.2,0.1c-1,0-2,0-3-0.1C198.2,85,197.9,84.8,197.6,84.4z"/>
		<path class="fillable" d="M205.3,100.4c-0.2-0.7-0.2-1.2,0.2-1.7c-0.7-0.3-1.3-0.7-1.7-1.4c0.7-0.4,1.3-0.3,2-0.3c-0.1-0.3-0.1-0.6-0.2-0.8
			c0-0.2,0-0.6,0.2-0.9c0.4,0,0.7,0.2,1,0.5c0.4,0.4,0.6,0.7,0.5,1.2c-0.2,0.1-0.4,0.1-0.7,0.2c-0.7,0.2-0.7,0.3-0.5,0.9
			c0.1,0.3,0.2,0.7,0.5,0.9c0.2,0.2,0.2,0.3,0.1,0.5C206.3,99.9,205.9,100.3,205.3,100.4z"/>
		<path class="fillable" d="M214.3,104.4c-0.1-0.8,0.5-1.3,0.9-1.9c-0.7-0.4-1.1-0.9-1.3-1.7c0.3-0.2,0.7-0.2,0.9-0.2c0.3,0.1,0.7,0.2,0.9,0.2
			c0.2,0.1,0.2,0.2,0.2,0.2c0.2,0.8,0.5,1.7,0.7,2.5c0.1,0.2,0,0.2-0.2,0.3c-0.4,0.3-0.9,0.4-1.4,0.4
			C214.9,104.4,214.6,104.4,214.3,104.4z"/>
		<path class="fillable" d="M228.8,74c-0.1-0.2-0.2-0.2-0.2-0.3c0,0-0.1,0-0.1,0.1c0,0.1,0,0.2-0.1,0.2c-0.2-0.1-0.2-0.2-0.3-0.2
			c0,0.2-0.1,0.2-0.1,0.4c-0.1-0.2-0.2-0.2-0.2-0.4c-0.1,0.2-0.1,0.2-0.2,0.3c-0.1-0.2-0.2-0.2-0.2-0.3c-0.1,0.2-0.1,0.2-0.2,0.4
			c-0.1-0.2-0.2-0.2-0.2-0.4c-0.1,0.2-0.2,0.2-0.2,0.3c-0.1-0.2-0.2-0.2-0.2-0.3c-0.1,0.1-0.2,0.2-0.2,0.3c-0.1-0.2-0.2-0.2-0.2-0.4
			c-0.1,0.2-0.1,0.2-0.2,0.3c-0.1-0.2-0.2-0.2-0.2-0.4c-0.1,0.2-0.2,0.2-0.2,0.3c-0.1-0.2-0.2-0.2-0.2-0.3c-0.1,0.2-0.2,0.2-0.2,0.3
			c-0.1-0.2-0.2-0.2-0.2-0.4c-0.1,0.1-0.2,0.2-0.2,0.2c0-0.1-0.1-0.1-0.1-0.2c-0.1,0-0.1,0.1-0.2,0.1c0.2-0.7,0.2-1.3,0.4-2
			c0.6,0.1,1.1,0.2,1.6,0.2c0.5,0,1.1,0,1.6,0c0.2,0.7,0.2,1.3,0.3,2C228.9,73.9,228.8,73.9,228.8,74z"/>
		<path class="fillable" d="M212.4,48.7c-0.7-0.1-1.2,0.2-1.8,0.3c-0.1-0.2-0.2-0.4-0.2-0.6c0.1-0.1,0.2-0.2,0.2-0.3c0.1-0.1,0.2-0.2,0.2-0.2
			c0.2-0.2,0.1-0.4-0.2-0.5c-0.2-0.1-0.4-0.1-0.7-0.2c-0.4-0.5-0.2-2.1,0.4-2.5c0.2,0.2,0.4,0.5,0.4,0.7c0.2,0.2,0.2,0.6,0.2,0.9
			c0.7-0.2,1.2-0.5,1.9-0.4c-0.2,0.7-0.6,1.2-1.1,1.6C212,48,212.4,48.2,212.4,48.7z"/>
		<path class="fillable" d="M209.7,77.1c-0.1,0.2-0.2,0.2-0.3,0.1c-0.3-0.2-0.7-0.2-1-0.4c-0.7-0.4-1.2-0.8-1.7-1.2c-0.5-0.4-1.1-0.9-1.6-1.4
			c-0.3-0.2-0.6-0.6-0.8-0.9c-0.2-0.3-0.4-0.9-0.3-1.2c0.3,0.1,0.7,0.2,0.9,0.4c0.3,0.2,0.6,0.6,0.8,0.9c1.1,1.2,2.3,2.3,3.6,3.3
			C209.5,76.7,209.7,76.8,209.7,77.1z"/>
		<path class="fillable" d="M205.3,57.3c-0.7,0.6-1.3,0.9-2,0.9c-0.2-0.2-0.3-0.5-0.5-0.7c-0.2-0.2-0.2-0.3-0.7-0.2c-0.2,0.1-0.4,0.2-0.5,0.3
			c-0.1,0.1-0.2,0.2-0.2,0.1c-0.5-0.1-1.1-0.4-1.2-1c0,0,0-0.1,0-0.2c0.7,0,1.2,0.2,1.8,0.2c0.2-0.6,0.2-1.2,0.8-1.6
			c0.4,0.5,0.7,1.1,0.7,1.7C204.1,57.1,204.7,57.1,205.3,57.3z"/>
		<path class="fillable" d="M204.2,74.2c0.2,0.1,0.3,0.1,0.5,0.2c0.3,0.2,0.7,0.4,0.9,0.7c0.7,0.6,1.4,1.2,2,1.7c0.6,0.4,1.2,0.7,1.8,1.2
			c0.2,0.1,0.2,0.2,0.3,0.2c0.1,0.1,0.1,0.2,0.1,0.2c0,0.1-0.2,0.1-0.2,0.1c-0.2,0-0.3-0.1-0.5-0.2c-0.7-0.2-1.3-0.6-1.9-0.9
			c-0.7-0.4-1.3-0.9-2-1.4c-0.2-0.2-0.2-0.2-0.4-0.4C204.3,75.2,204.2,74.8,204.2,74.2z"/>
		<path class="fillable" d="M223.2,65.3c0,0.1,0,0.1,0.1,0.2c0.4,0.7,1.1,0.9,1.9,0.9c0.7,0,1.2,0,1.8-0.1c0.4,0,0.8-0.1,1.2-0.1s0.9,0.1,1.2,0.2
			c0.2,0.2,0.6,0.2,0.7,0.6c-0.3,0-0.7-0.1-0.9-0.1c-0.6,0-1.1,0-1.7,0c-0.7,0-1.3,0.1-2,0.2c-0.3,0-0.7-0.1-0.9-0.1
			c-0.3-0.1-0.6-0.2-0.8-0.4C223.4,66.2,223.2,65.9,223.2,65.3C223.2,65.3,223.2,65.3,223.2,65.3z"/>
		<path class="fillable" d="M208.9,49.8c-0.2-0.7-0.8-1.1-1.5-1.5c0.2-0.5,0.3-1,0.5-1.5c0.2,0.3,0.4,0.7,0.7,1.1c0.6-0.2,1.2-0.2,1.7,0
			c-0.1,0.4-0.3,0.5-0.6,0.7c0.5,0.2,0.5,0.2,0.4,0.7C209.7,49.4,209.3,49.5,208.9,49.8z"/>
		<path class="fillable" d="M210,79.2c-0.2,0.2-0.4,0.2-0.7,0.1c-0.7-0.2-1.4-0.3-2-0.6c-0.7-0.2-1.5-0.6-2-0.9c-0.2-0.2-0.4-0.2-0.6-0.4
			c-0.2-0.2-0.3-0.4-0.3-0.7c0.2-0.2,0.4,0,0.7,0.1c0.2,0.1,0.4,0.2,0.7,0.3c1.2,0.8,2.5,1.5,3.9,1.9
			C209.7,78.9,209.9,78.9,210,79.2z"/>
		<path class="fillable" d="M213,75.6c0,0.4-0.2,0.6-0.7,0.4c-0.4-0.2-0.7-0.4-0.9-0.7c-0.2-0.3-0.4-0.6-0.7-0.9c-0.2-0.2-0.2-0.4-0.2-0.7
			c0-0.3,0.4-0.6,0.7-0.5c0.2,0.1,0.2,0.1,0.3,0.2c0.6,0.5,1,1.1,1.3,1.7C212.9,75.2,213,75.4,213,75.6z"/>
		<path class="fillable" d="M216.3,48.7c0.1-0.2,0.2-0.4,0.2-0.7c0.1-0.2,0.1-0.4,0.1-0.7c0.3,0,0.7,0,1,0c0.5-0.1,1-0.1,1.5-0.2
			c0.2-0.1,0.4,0,0.7,0.2c0.2,0.2,0.2,0.2,0,0.3c-0.2,0.2-0.3,0.2-0.5,0.3c-0.4,0.2-0.7,0.2-1.1,0.4c-0.2,0.2-0.5,0.3-0.7,0.5
			c-0.2,0.2-0.3,0.2-0.6,0.2C216.7,48.8,216.5,48.7,216.3,48.7z"/>
		<path class="fillable" d="M199.2,65.3c-0.1,0.2-0.1,0.4-0.2,0.5c-0.1,0.2-0.2,0.4-0.2,0.7c-1.3-0.5-2.6-1-3.9-1.5c0-0.4,0.1-0.7,0.4-0.9
			c0.7,0.3,0.9,0.9,1.2,1.5c0.7-0.2,1.5-0.3,2.3-0.2c0.1,0,0.2,0,0.2,0C199.1,65.2,199.1,65.2,199.2,65.3z"/>
		<path class="fillable" d="M204.3,78.2c0.2-0.2,0.5,0,0.7,0.1c0.4,0.2,0.8,0.3,1.2,0.5c1.1,0.5,2.2,0.8,3.4,1.1c0.2,0.1,0.3,0.1,0.4,0.2
			c-0.2,0-0.2,0.1-0.3,0.1c-0.6,0-1.1-0.2-1.7-0.2c-0.9-0.2-1.9-0.5-2.8-0.9c-0.2-0.1-0.4-0.2-0.7-0.3
			C204.5,78.5,204.4,78.3,204.3,78.2z"/>
		<path class="fillable" d="M210.3,76.1c0-0.2,0.1-0.4,0.2-0.6c0.2-0.2,0.4-0.2,0.7-0.2c0.2,0.2,0.3,0.2,0.5,0.4c0.4,0.4,0.7,0.8,0.8,1.3
			c0.1,0.2,0.2,0.3,0,0.4c-0.2,0.2-0.2,0.2-0.4,0.1c-0.6-0.2-1.1-0.4-1.5-0.9C210.4,76.5,210.3,76.4,210.3,76.1z"/>
		<path class="fillable" d="M210.1,81c-0.2,0-0.3,0.1-0.4,0.1c-0.7,0-1.3-0.2-2-0.2c-0.7-0.2-1.5-0.3-2.2-0.6c-0.3-0.2-0.6-0.2-0.7-0.7
			c0.2-0.2,0.4-0.1,0.6-0.1c0.4,0.2,0.9,0.2,1.3,0.4c0.9,0.3,1.8,0.5,2.7,0.7c0.2,0,0.2,0.1,0.4,0.1C209.9,80.9,210.1,81,210.1,81z"
			/>
		<path class="fillable" d="M213.3,73.8c0,0.3-0.2,0.4-0.4,0.3c-0.2-0.1-0.3-0.2-0.4-0.3c-0.4-0.4-0.7-0.8-0.9-1.3c-0.2-0.2-0.2-0.4-0.1-0.7
			c0.1-0.3,0.4-0.4,0.6-0.2c0.6,0.6,1.1,1.2,1.2,2C213.3,73.7,213.3,73.8,213.3,73.8z"/>
		<path class="fillable" d="M210.9,77.8c0.2,0,0.5,0.2,0.7,0.2c0.4,0.4,0.7,0.8,0.9,1.2c0,0.1,0.1,0.2,0.1,0.2c0.1,0.2-0.1,0.2-0.2,0.2
			c-0.1,0-0.2,0-0.2,0c-0.6-0.2-1.1-0.4-1.5-0.8c-0.3-0.2-0.3-0.6-0.2-0.9C210.6,77.8,210.7,77.7,210.9,77.8z"/>
		<path class="fillable" d="M205.2,81.9c0.4-0.2,0.9-0.1,1.2,0.1c1.1,0.2,2.1,0.4,3.2,0.5c0.2,0,0.4,0,0.6,0.1c0.2,0,0.2,0.1,0.3,0.2
			c-0.2,0.2-0.4,0.2-0.6,0.2c-0.7,0.1-1.5,0-2.1-0.1c-0.4-0.1-0.9-0.1-1.2-0.2c-0.3-0.1-0.6-0.2-0.9-0.2
			C205.6,82.2,205.3,82.2,205.2,81.9z"/>
		<path class="fillable" d="M210.3,81.8c-0.2,0-0.3,0.1-0.4,0.1c-0.8,0.1-1.7-0.1-2.5-0.2c-0.6-0.1-1.2-0.2-1.7-0.3c-0.2-0.1-0.5-0.2-0.7-0.5
			c0.2-0.2,0.5-0.2,0.7-0.1c0.5,0.2,1,0.2,1.5,0.4c0.7,0.2,1.2,0.2,1.9,0.3c0.3,0.1,0.7,0.1,0.9,0.2c0.1,0,0.2,0.1,0.2,0.1
			C210.3,81.7,210.3,81.8,210.3,81.8z"/>
		<path class="fillable" d="M230,88.9c-0.1,0.2-0.1,0.5-0.2,0.8c0,0.2-0.1,0.2-0.2,0.2c-0.2,0.2-0.4,0.2-0.5,0c-0.2-0.2-0.2-0.6-0.3-0.9
			c-0.1-0.4-0.1-0.7,0.1-1.1c0.1-0.2,0.2-0.2,0.2-0.4c0.2-0.2,0.3-0.2,0.4,0c0.1,0.1,0.2,0.2,0.2,0.3C230,88.2,230,88.6,230,88.9z"
			/>
		<path class="fillable" d="M227.4,88.8c0.1-0.3,0.2-0.7,0.2-0.9c0.1-0.2,0.2-0.3,0.3-0.3s0.3,0.2,0.4,0.3c0.2,0.7,0.3,1.3,0.1,2
			c-0.1,0.2-0.2,0.4-0.4,0.4c-0.2,0-0.3-0.2-0.4-0.4C227.5,89.6,227.5,89.3,227.4,88.8z"/>
		<path class="fillable" d="M229,86c-0.1,0.2-0.2,0.5-0.2,0.7c-0.1,0.2-0.2,0.4-0.4,0.4c-0.2,0-0.3-0.2-0.4-0.4c-0.2-0.6-0.2-1.1-0.1-1.7
			c0-0.1,0.1-0.1,0.1-0.2c0.2-0.3,0.5-0.4,0.7,0C228.8,85.4,228.9,85.6,229,86z"/>
		<path class="fillable" d="M226.5,86.1c0-0.3,0-0.7,0.2-0.9c0.1-0.2,0.2-0.3,0.4-0.3c0.2,0,0.3,0.2,0.4,0.3c0.2,0.7,0.2,1.2-0.1,1.7
			c-0.2,0.4-0.6,0.4-0.7,0C226.5,86.7,226.4,86.4,226.5,86.1z"/>
		<path class="fillable" d="M211.1,83.5c-0.2,0.1-0.4,0.1-0.7,0.2c-0.2,0-0.4,0-0.7,0c-0.4,0-0.8,0-1.2-0.1c-0.7-0.1-1.5-0.1-2.3-0.2
			c-0.2-0.1-0.4-0.2-0.5-0.3c0.2-0.2,0.2-0.2,0.4-0.2c0.5,0.1,1.1,0.2,1.6,0.2c0.4,0.1,0.9,0.2,1.4,0.2c0.6,0.1,1.2,0.2,1.7,0.2
			C210.9,83.3,211,83.4,211.1,83.5C211.1,83.5,211.1,83.5,211.1,83.5z"/>
		<path class="fillable" d="M223.2,66.5c0.2,0.2,0.5,0.4,0.7,0.6c0.4,0.3,0.9,0.4,1.5,0.4s1.1-0.2,1.7-0.2c0.4-0.1,0.9-0.1,1.4-0.2v0.1
			c-0.1,0-0.2,0.1-0.2,0.1c-0.7,0.2-1.2,0.4-1.8,0.5c-0.5,0.2-1,0.2-1.5,0.1c-0.7-0.2-1.1-0.6-1.5-1
			C223.4,66.8,223.3,66.6,223.2,66.5C223.2,66.6,223.2,66.5,223.2,66.5z"/>
		<path class="fillable" d="M193.8,75c-0.2,0.1-0.5,0.1-0.7,0.4c-0.4-0.3-0.9-0.6-1.2-0.9c-0.2-0.2-0.2-0.7-0.2-0.9c0-0.1,0-0.2,0.1-0.3
			c0.2,0.2,0.3,0.2,0.4,0.3c0.3,0.2,0.7,0.6,1.1,0.7c0.1,0,0.2,0.1,0.2,0.2C193.5,74.5,193.6,74.7,193.8,75z"/>
		<path class="fillable" d="M211.1,84.3c-0.2,0.1-0.4,0.2-0.6,0.2c-0.2,0.1-0.5,0.1-0.7,0.1c-0.7,0-1.5,0.1-2.1,0.1c-0.4,0-0.7-0.1-1.1-0.2
			c-0.2,0-0.3-0.2-0.4-0.3c0.2-0.1,0.2-0.1,0.4-0.2c0.1,0,0.2,0,0.2,0c0.6,0.1,1.1,0.1,1.7,0.2c0.4,0,0.9,0,1.4,0c0.4,0,0.7,0,1.1,0
			c0.2,0,0.2,0,0.4,0.1C211.1,84.1,211.1,84.2,211.1,84.3z"/>
		<path class="fillable" d="M211.7,84.8c-0.1,0.2-0.2,0.2-0.3,0.2c-0.4,0.1-0.8,0.2-1.2,0.2c-0.7,0.2-1.3,0.2-2,0.2c-0.3,0.1-0.7,0-1,0
			c-0.2,0-0.4-0.1-0.6-0.3C206.8,85,207,85,207,85c0.3-0.1,0.7-0.1,0.9-0.1c1-0.1,2-0.2,3-0.2c0.2,0,0.3-0.1,0.4-0.1
			C211.6,84.8,211.6,84.8,211.7,84.8z"/>
		<path class="fillable" d="M207,86.2c0.2-0.2,0.5-0.2,0.7-0.2c0.7-0.1,1.2-0.2,1.9-0.2c0.7-0.1,1.4-0.2,2-0.2c0.1,0,0.2,0,0.2,0v0.1
			c-0.1,0.1-0.2,0.2-0.2,0.2c-0.4,0.2-0.8,0.2-1.2,0.4c-0.7,0.2-1.4,0.2-2,0.4c-0.3,0.1-0.7,0.1-1,0.1
			C207.4,86.4,207.2,86.4,207,86.2z"/>
		<path class="fillable" d="M214.5,81.6c-0.2,0-0.2,0-0.3,0c-0.5-0.2-1-0.4-1.4-0.7c-0.1-0.1-0.2-0.2-0.2-0.4c0-0.4,0.4-0.7,0.7-0.5
			c0.2,0.1,0.3,0.2,0.4,0.2c0.2,0.2,0.4,0.6,0.7,0.9C214.5,81.2,214.6,81.4,214.5,81.6z"/>
		<path class="fillable" d="M212.4,81.2c-0.6-0.1-1.1-0.2-1.5-0.5c-0.2-0.2-0.3-0.5-0.2-0.7c0.2-0.2,0.3-0.3,0.7-0.2c0.2,0.1,0.4,0.2,0.7,0.4
			c0.2,0.2,0.4,0.4,0.5,0.6c0.1,0.1,0.2,0.2,0.2,0.3C212.6,81.1,212.4,81.1,212.4,81.2z"/>
		<path class="fillable" d="M227.1,88.8c-0.1,0.2-0.1,0.5-0.2,0.7c0,0.2-0.1,0.2-0.2,0.3c-0.2,0.2-0.3,0.2-0.5,0c-0.1-0.1-0.2-0.2-0.2-0.2
			c-0.2-0.5-0.2-1-0.1-1.6c0.1-0.2,0.2-0.2,0.2-0.4c0.2-0.2,0.2-0.2,0.4,0c0.1,0.2,0.2,0.2,0.2,0.4C227,88.3,227.1,88.6,227.1,88.8z
			"/>
		<path class="fillable" d="M230.3,88.5c0-0.3,0.1-0.6,0.2-0.9c0.1-0.2,0.2-0.2,0.3-0.2s0.2,0.2,0.3,0.2c0.2,0.4,0.2,0.8,0.2,1.2
			c0,0.2-0.1,0.4-0.2,0.6c0,0.2-0.1,0.2-0.2,0.2c-0.2,0.2-0.2,0.2-0.4,0c-0.2-0.2-0.2-0.2-0.2-0.4C230.4,89,230.4,88.7,230.3,88.5z"
			/>
		<path class="fillable" d="M228.5,92c0,0.2-0.1,0.4-0.2,0.7c-0.2,0.2-0.4,0.2-0.7,0.1c-0.3-0.4-0.4-1.2-0.2-1.7c0.2-0.3,0.4-0.3,0.7,0
			C228.5,91.3,228.5,91.7,228.5,92z"/>
		<path class="fillable" d="M227.3,94.5c0.1-0.2,0.2-0.5,0.2-0.7c0.2-0.3,0.4-0.3,0.7-0.1c0.2,0.3,0.3,0.7,0.2,1.2c0,0.2-0.1,0.3-0.2,0.4
			c-0.1,0.2-0.2,0.3-0.4,0.3s-0.3-0.2-0.4-0.2C227.3,95.1,227.3,94.9,227.3,94.5z"/>
		<path class="fillable" d="M230,86.1c-0.1,0.2-0.1,0.4-0.2,0.6c-0.1,0.2-0.2,0.2-0.2,0.2c-0.2,0-0.2-0.1-0.3-0.2l-0.1-0.1c-0.3-0.5-0.4-1.1-0.4-1.6
			c0-0.1,0.1-0.2,0.1-0.2c0.2-0.2,0.3-0.3,0.4-0.1c0.2,0.2,0.2,0.3,0.3,0.5C229.9,85.5,230,85.9,230,86.1z"/>
		<path class="fillable" d="M227.1,91.8c-0.1,0.2-0.2,0.5-0.2,0.7c-0.2,0.3-0.4,0.3-0.7,0c-0.3-0.5-0.4-1.1-0.2-1.6c0.2-0.4,0.4-0.4,0.7-0.1
			C226.9,91.2,227,91.5,227.1,91.8z"/>
		<path class="fillable" d="M226.4,85.4c0,0.5-0.2,0.9-0.3,1.2c-0.1,0.1-0.2,0.2-0.2,0.2c-0.2,0.2-0.4,0.2-0.5-0.2c-0.2-0.3-0.1-0.6-0.1-0.9
			c0.1-0.4,0.2-0.7,0.3-1c0.1-0.2,0.2-0.2,0.4-0.2c0.2,0,0.2,0.2,0.2,0.4C226.4,85.1,226.4,85.3,226.4,85.4z"/>
		<path class="fillable" d="M228.8,91.8c0.1-0.2,0.1-0.4,0.2-0.7c0.1-0.2,0.2-0.2,0.3-0.3c0.2,0,0.3,0.1,0.4,0.2c0.2,0.5,0.3,1,0.2,1.6
			c-0.1,0.2-0.2,0.3-0.4,0.3s-0.2-0.2-0.4-0.2C228.9,92.4,228.8,92.1,228.8,91.8z"/>
		<path class="fillable" d="M214.3,79.7c-0.3,0.2-0.7,0.1-0.9-0.1c-0.3-0.2-0.7-0.4-0.9-0.7c-0.1-0.1-0.1-0.1-0.1-0.2c-0.2-0.2-0.2-0.4,0-0.5
			c0.2-0.2,0.3-0.1,0.4,0c0.5,0.2,0.9,0.7,1.2,1.2C214.2,79.5,214.2,79.6,214.3,79.7z"/>
		<path class="fillable" d="M215.5,81.4c-0.2-0.1-0.4-0.1-0.5-0.1c-0.3-0.1-0.4-0.4-0.4-0.8c0.1-0.2,0.3-0.4,0.7-0.3c0.4,0.2,0.7,0.3,1.1,0.6
			c0.2,0.2,0.2,0.4-0.1,0.4C216,81.4,215.6,81.4,215.5,81.4z"/>
		<path class="fillable" d="M214.8,78.7c0.1,0,0.2,0,0.2,0.1c0.5,0.2,0.9,0.6,1.2,1c0.1,0.1,0.2,0.2,0.2,0.2s0.1,0.2,0,0.3c-0.1,0.1-0.2,0.2-0.2,0.1
			c-0.2-0.1-0.4-0.2-0.5-0.2c-0.3-0.2-0.6-0.4-0.8-0.7c-0.2-0.2-0.2-0.2-0.2-0.4C214.4,78.9,214.6,78.7,214.8,78.7z"/>
		<path class="fillable" d="M212.4,86.2c-0.2,0.2-0.3,0.2-0.4,0.2c-0.7,0.2-1.5,0.4-2.2,0.6c-0.4,0.2-0.9,0.2-1.5,0.2c-0.2,0-0.3,0-0.4-0.2
			c0.2-0.2,0.2-0.2,0.4-0.2c0.7-0.2,1.2-0.2,2-0.3c0.7-0.2,1.2-0.2,1.8-0.4C212.2,86.1,212.4,86.1,212.4,86.2
			C212.4,86.1,212.4,86.2,212.4,86.2z"/>
		<path class="fillable" d="M214.3,78.2c0,0.2-0.2,0.3-0.2,0.3c-0.1,0-0.2-0.1-0.2-0.1c-0.4-0.2-0.9-0.7-1.1-1.1c-0.2-0.2-0.2-0.3-0.1-0.5
			c0.1-0.2,0.2-0.2,0.4-0.2c0.1,0,0.1,0.1,0.2,0.1c0.5,0.3,0.9,0.7,1.1,1.2C214.3,77.9,214.3,78.1,214.3,78.2z"/>
		<path class="fillable" d="M204,101.2c-1.1-0.2-2.3-0.7-2.8-1.4c0.1-0.2,0.2-0.3,0.2-0.6c0.4,0.4,0.8,0.6,1.3,0.7c0.1,0,0.2,0.1,0.2,0.2
			c0.2,0.4,0.5,0.6,0.8,0.8C203.9,101.1,203.9,101.2,204,101.2z"/>
		<path class="fillable" d="M224.4,85.9c0-0.5,0.2-0.9,0.3-1.2c0.1-0.2,0.2-0.4,0.4-0.3c0.2,0.1,0.2,0.2,0.2,0.4c0.1,0.6-0.1,1.1-0.3,1.6l-0.1,0.1
			c-0.2,0.1-0.2,0.2-0.3,0.2c-0.2,0-0.2-0.2-0.2-0.2C224.4,86.1,224.4,85.9,224.4,85.9z"/>
		<path class="fillable" d="M230.9,85.8c0,0.2,0,0.3-0.1,0.4c-0.1,0.2-0.2,0.2-0.2,0.2c-0.1,0-0.2-0.1-0.3-0.2c-0.2-0.2-0.2-0.5-0.3-0.7
			c-0.1-0.3-0.2-0.7-0.1-0.9c0-0.1,0-0.2,0.1-0.2c0.2-0.2,0.2-0.2,0.4-0.1c0.1,0.1,0.2,0.2,0.2,0.3C230.9,85,230.9,85.4,230.9,85.8z
			"/>
		<path class="fillable" d="M214.8,76.9c-0.2,0.1-0.3,0-0.5-0.1c-0.4-0.2-0.7-0.6-1.1-1c-0.1-0.2-0.2-0.3-0.2-0.4c0-0.2,0.2-0.4,0.4-0.2
			c0.2,0.1,0.3,0.2,0.4,0.3c0.3,0.2,0.6,0.6,0.7,0.9C214.8,76.5,214.8,76.8,214.8,76.9z"/>
		<path class="fillable" d="M208.4,88c0.2-0.2,0.2-0.2,0.4-0.2c0.6-0.2,1.1-0.2,1.6-0.4c0.7-0.2,1.3-0.3,2-0.4c0.2,0,0.2-0.1,0.3-0.1
			c-0.1,0.2-0.2,0.2-0.3,0.3c-0.4,0.2-0.8,0.3-1.2,0.4c-0.7,0.2-1.3,0.4-2,0.5C208.8,88.2,208.7,88.1,208.4,88z"/>
		<path class="fillable" d="M202.8,58.7c0.2,0.1,0.3,0.1,0.5,0.2c0,0.2-0.2,0.3-0.3,0.4c-0.3,0.2-0.7,0.2-1.1,0.2c0.1-0.5,0-0.9-0.2-1.2v-0.1
			c0.2-0.2,0.4-0.4,0.7-0.3c0.2,0.2,0.4,0.4,0.4,0.7C202.8,58.6,202.8,58.6,202.8,58.7z"/>
		<path class="fillable" d="M227.3,78.4c0.1-0.2,0.2-0.5,0.2-0.7c0.2-0.3,0.5-0.3,0.7,0c0.2,0.5,0.2,0.9,0,1.5c-0.2,0.3-0.5,0.3-0.7,0
			C227.4,78.9,227.3,78.7,227.3,78.4z"/>
		<path class="fillable" d="M227.3,78.4c0,0.2-0.1,0.5-0.2,0.7c-0.1,0.2-0.2,0.2-0.3,0.2c-0.2,0-0.2-0.2-0.3-0.2c-0.2-0.5-0.2-0.9,0-1.5
			c0.1-0.2,0.2-0.2,0.3-0.2c0.2,0,0.2,0.2,0.3,0.2C227.1,77.9,227.2,78.2,227.3,78.4z"/>
		<path class="fillable" d="M216,82.9c-0.2-0.1-0.5-0.1-0.8-0.2c-0.2-0.1-0.3-0.2-0.3-0.4c-0.1-0.3,0.2-0.5,0.4-0.6c0.1,0,0.2,0,0.2,0
			c0.4,0.2,0.8,0.3,1.2,0.7c0.2,0.2,0.2,0.2-0.1,0.3C216.5,82.8,216.2,82.8,216,82.9z"/>
		<path class="fillable" d="M198,78.4c-0.1-0.4-0.2-0.7-0.2-1c-0.1-0.4,0.1-0.7,0.4-0.8c0.4,0.4,0.7,1,0.7,1.6C198.7,78.2,198.4,78.2,198,78.4z"/>
		<path class="fillable" d="M215.5,85.7c-0.2,0.2-0.2,0.2-0.4,0.3c-0.3,0.2-0.7,0.2-1.1,0.3c-0.2,0-0.2,0-0.3-0.1s-0.3-0.3-0.3-0.5s0.2-0.3,0.3-0.4
			s0.4-0.1,0.7-0.1c0.2,0,0.4,0.1,0.7,0.2C215.1,85.6,215.3,85.6,215.5,85.7z"/>
		<path class="fillable" d="M192.7,60.8c-0.2,0.4-0.3,0.7-0.2,1.1c-0.2,0.1-0.4,0.1-0.6,0.2c-0.2,0.2-0.2,0.3-0.4,0.5c-0.2-0.4-0.3-0.9-0.1-1.3
			S192.2,60.8,192.7,60.8z"/>
		<path class="fillable" d="M209,88.8c0.2-0.2,0.2-0.2,0.4-0.2c0.6-0.2,1.1-0.3,1.7-0.5c0.6-0.2,1.1-0.3,1.7-0.5c0.1,0,0.2,0,0.2,0
			c-0.1,0.1-0.1,0.2-0.2,0.2c-0.2,0.2-0.4,0.2-0.6,0.3c-0.9,0.3-1.7,0.7-2.7,0.9C209.4,88.9,209.3,88.9,209,88.8z"/>
		<path class="fillable" d="M213.4,81.9c-0.2,0.2-0.3,0.3-0.5,0.3c-0.3,0.1-0.7,0.1-0.9,0.1s-0.4-0.2-0.4-0.4s0.1-0.4,0.4-0.4c0.1,0,0.1-0.1,0.2,0
			C212.5,81.5,213,81.6,213.4,81.9z"/>
		<path class="fillable" d="M213.3,88.2c-0.2,0.2-0.3,0.2-0.4,0.3c-0.9,0.4-1.8,0.8-2.7,1.1c-0.2,0.1-0.4,0.2-0.7-0.1c0.1-0.2,0.2-0.2,0.4-0.3
			c0.4-0.2,0.7-0.2,1.1-0.4c0.7-0.2,1.3-0.4,2-0.7c0.1-0.1,0.2-0.1,0.2-0.2C213.3,88.2,213.3,88.2,213.3,88.2z"/>
		<path class="fillable" d="M214.6,86.6c0.3,0.1,0.7,0.2,0.9,0.2c0.1,0,0.2,0.2,0.2,0.2c0,0.1-0.1,0.2-0.2,0.2c-0.4,0.2-0.7,0.3-1.2,0.4
			c-0.1,0-0.2-0.1-0.3-0.1c-0.2-0.1-0.2-0.2-0.2-0.4c0-0.2,0.2-0.2,0.2-0.3C214.2,86.7,214.3,86.7,214.6,86.6z"/>
		<path class="fillable" d="M210.1,90.2c0.1-0.2,0.2-0.2,0.4-0.3c0.4-0.2,0.8-0.3,1.2-0.5c0.6-0.2,1.1-0.5,1.7-0.7c0.1-0.1,0.2-0.1,0.2-0.2
			c0,0,0,0.1,0.1,0.1c-0.2,0.1-0.2,0.2-0.3,0.2c-0.4,0.2-0.7,0.4-1.1,0.6c-0.5,0.2-1.1,0.4-1.6,0.7
			C210.6,90.4,210.3,90.4,210.1,90.2z"/>
		<path class="fillable" d="M217.8,80.4c-0.1,0-0.2-0.1-0.2-0.2c-0.4-0.2-0.7-0.4-0.9-0.7c-0.1-0.1-0.2-0.2-0.2-0.3c-0.1-0.2,0.2-0.4,0.4-0.3
			c0.3,0.2,0.7,0.4,0.9,0.7c0.2,0.2,0.3,0.3,0.4,0.5C218.1,80.3,218.1,80.4,217.8,80.4z"/>
		<path class="fillable" d="M231.8,85.5c0,0.2-0.1,0.3-0.1,0.5c-0.1,0.2-0.2,0.2-0.4,0.1l-0.1-0.1c-0.2-0.4-0.4-0.9-0.2-1.5c0-0.1,0-0.2,0.1-0.2
			c0.1-0.2,0.2-0.2,0.3-0.1c0.2,0.2,0.2,0.3,0.3,0.5C231.7,85,231.8,85.3,231.8,85.5z"/>
		<path class="fillable" d="M223.6,85.6c0-0.4,0.1-0.7,0.2-1.1c0.1-0.1,0.1-0.2,0.2-0.2c0.1-0.1,0.2-0.2,0.2-0.2c0.1,0,0.2,0.2,0.2,0.2
			c0.2,0.6,0,1.1-0.2,1.6c0,0.1-0.1,0.1-0.1,0.1c-0.2,0.2-0.3,0.2-0.4-0.1C223.6,85.9,223.6,85.7,223.6,85.6z"/>
		<path class="fillable" d="M231,91.6c-0.1,0.2-0.1,0.4-0.2,0.6c-0.1,0.2-0.2,0.2-0.3,0.2s-0.2-0.2-0.3-0.2c-0.2-0.5-0.2-0.9-0.1-1.5
			c0.2-0.2,0.3-0.2,0.5,0C230.9,90.9,231,91.3,231,91.6z"/>
		<path class="fillable" d="M216.2,78.4c0,0.2-0.1,0.3-0.2,0.2c-0.4-0.1-1.2-0.8-1.2-1.2c0-0.2-0.1-0.2,0.2-0.4c0.2-0.1,0.2,0,0.4,0.1
			c0.4,0.2,0.7,0.7,0.9,1C216.2,78.3,216.2,78.4,216.2,78.4z"/>
		<path class="fillable" d="M214.2,89.2c-0.2,0.2-0.2,0.2-0.3,0.2c-0.9,0.5-1.7,1-2.7,1.4c-0.2,0.1-0.4,0.1-0.6,0c0.1-0.2,0.2-0.2,0.4-0.3
			c0.8-0.4,1.7-0.7,2.5-1.1c0.2-0.1,0.2-0.2,0.4-0.2C214.1,89.1,214.2,89.1,214.2,89.2L214.2,89.2z"/>
		<path class="fillable" d="M229.3,78.4c-0.1,0.2-0.1,0.4-0.2,0.6c-0.2,0.2-0.3,0.2-0.5,0.1c-0.3-0.3-0.4-1.1-0.2-1.5c0.2-0.2,0.3-0.2,0.5-0.1
			C229.2,77.8,229.3,78.1,229.3,78.4z"/>
		<path class="fillable" d="M214.3,84.6c-0.1,0.1-0.2,0.2-0.2,0.2c-0.4,0.2-0.7,0.3-1.1,0.3c-0.2,0-0.4-0.2-0.4-0.4c0-0.2,0.2-0.4,0.3-0.4
			c0.4-0.2,0.7,0,1.1,0.1C214.1,84.3,214.2,84.4,214.3,84.6z"/>
		<path class="fillable" d="M215.4,83.7c0,0.2-0.2,0.2-0.2,0.2c-0.3,0.2-0.7,0.2-1,0.2c-0.2,0-0.4-0.2-0.5-0.4c-0.1-0.3,0.2-0.6,0.5-0.6
			C214.6,83.3,215,83.5,215.4,83.7L215.4,83.7z"/>
		<path class="fillable" d="M228.2,96.7c-0.1,0.2-0.2,0.4-0.2,0.7c-0.2,0.2-0.3,0.2-0.5,0c-0.2-0.3-0.3-1.1-0.1-1.4c0.2-0.2,0.4-0.2,0.6,0
			C228.1,96.2,228.1,96.4,228.2,96.7z"/>
		<path class="fillable" d="M211.1,91.5c0.2-0.2,0.3-0.2,0.4-0.3c0.8-0.4,1.7-0.9,2.5-1.3c0.2-0.1,0.3-0.2,0.5-0.2l0.1,0.1c-0.1,0.1-0.2,0.2-0.2,0.2
			c-0.8,0.7-1.7,1.1-2.6,1.6C211.5,91.7,211.5,91.6,211.1,91.5z"/>
		<path class="fillable" d="M224.5,91.1c0,0.2-0.1,0.4-0.1,0.7c0,0.1-0.1,0.2-0.2,0.2c-0.1,0.2-0.2,0.2-0.3,0c-0.1-0.1-0.1-0.2-0.2-0.2
			c-0.2-0.4-0.2-0.9-0.1-1.5c0-0.1,0-0.2,0.1-0.2c0.1-0.1,0.2-0.2,0.2-0.2c0.1,0,0.2,0.1,0.2,0.2C224.5,90.4,224.5,90.8,224.5,91.1z
			"/>
		<path class="fillable" d="M214.9,83.2c-0.4-0.1-0.8-0.2-1.1-0.4c-0.2-0.2-0.3-0.3-0.2-0.6c0.2-0.2,0.3-0.3,0.6-0.2c0.2,0.1,0.3,0.2,0.4,0.2
			c0.2,0.2,0.3,0.3,0.5,0.5c0.1,0.1,0.2,0.2,0.2,0.3C215.1,83.2,215,83.2,214.9,83.2z"/>
		<path class="fillable" d="M225.2,90.3c0.1,0.2,0.2,0.2,0.2,0.3c0.2,0.5,0.2,1,0.1,1.5c0,0.1,0,0.1-0.1,0.2c-0.1,0.1-0.2,0.2-0.2,0.2
			c-0.1,0-0.2-0.2-0.2-0.2c-0.1-0.1-0.1-0.1-0.1-0.2c-0.2-0.4-0.2-0.9-0.1-1.5C224.9,90.4,225,90.4,225.2,90.3z"/>
		<path class="fillable" d="M212.7,82.7c0.3,0.1,0.6,0.2,0.9,0.2c0.1,0,0.2,0.2,0.2,0.2c0,0.1-0.1,0.2-0.2,0.2c-0.3,0.2-0.7,0.3-1.1,0.3
			c-0.1,0-0.1,0-0.2,0c-0.2-0.1-0.4-0.2-0.4-0.5c0-0.2,0.2-0.4,0.4-0.4C212.4,82.8,212.5,82.8,212.7,82.7
			C212.7,82.8,212.7,82.7,212.7,82.7z"/>
		<path class="fillable" d="M225.4,89.7c-0.2-0.1-0.2-0.2-0.2-0.3c-0.2-0.5-0.2-1-0.1-1.6c0-0.2,0.1-0.3,0.2-0.3c0.2,0,0.2,0.2,0.2,0.3
			c0.2,0.5,0.2,1,0.1,1.6C225.5,89.5,225.5,89.6,225.4,89.7z"/>
		<path class="fillable" d="M231.8,89.3c-0.2-0.1-0.2-0.2-0.2-0.2c-0.2-0.5-0.2-1.1-0.1-1.6c0.1-0.2,0.1-0.3,0.2-0.3s0.2,0.2,0.2,0.3
			c0.2,0.5,0.2,1,0.1,1.5C232,89.1,231.9,89.2,231.8,89.3z"/>
		<path class="fillable" d="M215.1,90c-0.1,0.1-0.2,0.2-0.2,0.2c-0.7,0.7-1.5,1.1-2.4,1.6c-0.2,0.2-0.4,0.2-0.7,0.2c0.1-0.2,0.2-0.2,0.4-0.4
			c0.7-0.4,1.5-0.9,2.2-1.3c0.2-0.2,0.4-0.2,0.6-0.4C215,90,215,90,215.1,90z"/>
		<path class="fillable" d="M215.4,90.5c-0.2,0.2-0.2,0.3-0.4,0.4c-0.7,0.5-1.4,1.1-2,1.6c-0.2,0.2-0.4,0.2-0.7,0.2c0-0.2,0.2-0.2,0.2-0.3
			c0.2-0.2,0.4-0.3,0.7-0.4c0.7-0.4,1.2-0.9,1.9-1.2C215.1,90.6,215.2,90.5,215.4,90.5C215.3,90.4,215.4,90.4,215.4,90.5z"/>
		<path class="fillable" d="M226,94.2c0.1-0.2,0.1-0.4,0.2-0.7c0-0.2,0.2-0.2,0.2-0.2c0.1,0,0.2,0.1,0.2,0.2c0.2,0.5,0.2,0.9,0.1,1.5
			c-0.1,0.1-0.2,0.2-0.2,0.2c-0.2,0.1-0.2-0.1-0.2-0.2C226.2,94.9,226.1,94.5,226,94.2z"/>
		<path class="fillable" d="M225.1,78.7c0.1-0.2,0.1-0.4,0.2-0.6c0-0.1,0.1-0.2,0.2-0.2c0.1-0.2,0.2-0.2,0.4-0.2c0.2,0,0.2,0.2,0.2,0.3
			c0.2,0.4,0,0.7-0.2,1.1l-0.1,0.1c-0.2,0.2-0.4,0.2-0.6-0.1C225.2,78.9,225.2,78.8,225.1,78.7z"/>
		<path class="fillable" d="M227.6,84.6c-0.2-0.2-0.2-0.2-0.2-0.3c-0.2-0.4-0.2-0.9,0-1.4c0,0,0-0.1,0.1-0.1c0.1-0.1,0.2-0.2,0.2-0.2
			c0.1,0,0.2,0.2,0.2,0.2c0.2,0.5,0.2,1,0,1.6C227.7,84.3,227.7,84.3,227.6,84.6z"/>
		<path class="fillable" d="M218.3,81.9c-0.2,0.2-0.3,0.3-0.5,0.3c-0.3,0-0.7,0-0.9-0.1c-0.2,0-0.3-0.2-0.4-0.3c-0.1-0.2,0-0.2,0.2-0.3
			c0.3-0.2,1.3-0.1,1.6,0.2C218.3,81.8,218.3,81.9,218.3,81.9z"/>
		<path class="fillable" d="M229,95.2c-0.1-0.2-0.2-0.2-0.2-0.2c-0.2-0.4-0.2-0.9-0.1-1.4c0.1-0.2,0.2-0.2,0.2-0.2c0.2-0.1,0.2,0.2,0.2,0.2
			c0.2,0.3,0.2,0.7,0.2,0.9c0,0.2-0.1,0.2-0.1,0.3C229.3,94.9,229.3,95,229,95.2z"/>
		<path class="fillable" d="M222.8,85.2c0.1-0.4,0.2-0.8,0.2-1.1c0.1-0.2,0.2-0.2,0.3-0.2s0.2,0.2,0.2,0.3c0.1,0.4-0.1,0.9-0.2,1.3
			c-0.1,0.2-0.2,0.3-0.3,0.2S222.8,85.5,222.8,85.2C222.8,85.4,222.8,85.3,222.8,85.2z"/>
		<path class="fillable" d="M227.6,82c-0.2-0.2-0.2-0.2-0.2-0.4c-0.2-0.4-0.2-0.9,0-1.4c0,0,0-0.1,0.1-0.1c0.1-0.1,0.2-0.2,0.2-0.2
			c0.1,0,0.2,0.2,0.2,0.2c0.1,0.2,0.2,0.5,0.2,0.8c0,0.2-0.1,0.4-0.2,0.7C227.7,81.7,227.7,81.9,227.6,82z"/>
		<path class="fillable" d="M231.9,83.7c0.1,0.2,0.2,0.2,0.2,0.3c0.2,0.4,0.3,0.9,0.2,1.3c0,0.2,0,0.3-0.2,0.4s-0.2-0.2-0.3-0.2
			c-0.2-0.4-0.3-0.9-0.2-1.5C231.7,83.9,231.8,83.9,231.9,83.7C231.9,83.7,231.9,83.7,231.9,83.7z"/>
		<path class="fillable" d="M217.8,81.3c-0.2-0.1-0.5-0.2-0.7-0.2c-0.1,0-0.2-0.1-0.2-0.1c-0.2-0.2-0.2-0.2-0.2-0.4c0.1-0.2,0.2-0.2,0.4-0.2
			c0.4,0,0.7,0.1,1.1,0.2c0.2,0.1,0.3,0.2,0.3,0.4c0,0.2-0.2,0.2-0.4,0.2C217.8,81.3,217.8,81.3,217.8,81.3L217.8,81.3z"/>
		<path class="fillable" d="M228.6,81.9c-0.1-0.2-0.2-0.2-0.2-0.3c-0.2-0.4-0.2-0.9-0.2-1.3c0-0.1,0-0.1,0.1-0.2c0.1-0.1,0.2-0.2,0.2-0.2
			c0.2-0.1,0.2,0.1,0.2,0.2c0.1,0.2,0.2,0.3,0.2,0.5c0.1,0.2,0.1,0.6,0,0.8C228.9,81.6,228.8,81.8,228.6,81.9z"/>
		<path class="fillable" d="M215.1,88.6c-0.2,0-0.4-0.2-0.4-0.2c-0.1-0.2,0-0.3,0.2-0.4c0.1,0,0.1-0.1,0.2-0.1c0.4-0.2,0.7-0.2,1.2-0.2
			c0.2,0,0.2,0.2,0.2,0.2C215.9,88.3,215.5,88.5,215.1,88.6z"/>
		<path class="fillable" d="M215.6,90.9c-0.1,0.2-0.2,0.2-0.2,0.3c-0.7,0.7-1.3,1.2-2,1.7c-0.2,0.2-0.3,0.2-0.6,0.2c0.1-0.2,0.2-0.2,0.2-0.2
			C213.9,92.1,214.8,91.5,215.6,90.9C215.6,90.8,215.6,90.8,215.6,90.9L215.6,90.9z"/>
		<path class="fillable" d="M230.3,78.3c-0.1,0.2-0.1,0.3-0.2,0.4c-0.1,0.2-0.2,0.2-0.4,0.1c-0.2-0.2-0.4-1-0.2-1.3c0.2-0.2,0.3-0.2,0.4-0.1
			C230.1,77.8,230.2,78,230.3,78.3z"/>
		<path class="fillable" d="M216.1,91.1c-0.1,0.2-0.2,0.2-0.2,0.3c-0.7,0.7-1.2,1.4-2,2c-0.2,0.2-0.2,0.2-0.5,0.2c0.1-0.2,0.2-0.2,0.2-0.3
			c0.7-0.6,1.2-1.1,1.8-1.6c0.2-0.2,0.2-0.2,0.4-0.4C215.9,91.2,216,91.1,216.1,91.1C216.1,91,216.1,91.1,216.1,91.1z"/>
		<path class="fillable" d="M217.1,91.9c-0.1,0.2-0.2,0.2-0.2,0.4c-0.6,0.7-1.1,1.5-1.8,2c-0.2,0.2-0.2,0.2-0.4,0.2c-0.1-0.2,0.1-0.2,0.2-0.4
			c0.2-0.2,0.2-0.2,0.4-0.4C216,93.1,216.5,92.6,217.1,91.9C217,91.9,217,91.9,217.1,91.9C217,91.9,217,91.9,217.1,91.9z"/>
		<path class="fillable" d="M224.2,89.6c-0.1-0.2-0.2-0.2-0.2-0.3c-0.2-0.5-0.2-1.1,0-1.6c0-0.2,0.2-0.2,0.2-0.2c0.2,0,0.2,0.2,0.2,0.2
			c0.2,0.6,0.2,1.1,0.1,1.6c0,0.2-0.2,0.2-0.2,0.3C224.3,89.6,224.2,89.6,224.2,89.6z"/>
		<path class="fillable" d="M233.5,86.2c0.1,0.1,0.2,0.2,0.2,0.2c0.2,0.6,0.2,1.1,0.1,1.6c0,0.2-0.2,0.2-0.2,0.2c-0.2,0.1-0.2-0.2-0.2-0.2
			c-0.2-0.6-0.2-1.1,0-1.7C233.3,86.4,233.4,86.2,233.5,86.2C233.4,86.2,233.4,86.2,233.5,86.2z"/>
		<path class="fillable" d="M216.6,91.5c-0.1,0.2-0.2,0.2-0.2,0.4c-0.6,0.7-1.2,1.3-1.9,1.9c-0.2,0.2-0.2,0.2-0.5,0.2c0-0.2,0.2-0.2,0.2-0.4
			c0.7-0.7,1.2-1.2,2-1.8C216.3,91.7,216.5,91.5,216.6,91.5C216.5,91.5,216.5,91.5,216.6,91.5z"/>
		<path class="fillable" d="M223.2,89.1c-0.3-0.3-0.3-0.7-0.3-1.1c0-0.4-0.1-0.8,0.2-1.2c0.3,0.2,0.2,0.4,0.3,0.7C223.5,88.2,223.4,88.8,223.2,89.1z"
			/>
		<path class="fillable" d="M228.8,83.4c-0.1,0.2-0.1,0.4-0.2,0.5c0,0.1-0.2,0.2-0.2,0.2c-0.1,0-0.2-0.1-0.2-0.2c-0.2-0.4-0.2-0.7-0.2-1.2
			c0-0.2,0.1-0.2,0.1-0.3c0.1-0.2,0.2-0.2,0.4-0.1c0.1,0.1,0.2,0.2,0.2,0.2C228.7,82.9,228.8,83.2,228.8,83.4z"/>
		<path class="fillable" d="M216,83.2c0.3,0.1,0.6,0.2,0.9,0.3c0.2,0.1,0.2,0.2,0,0.3c-0.3,0.2-0.7,0.3-1,0.3c-0.2,0-0.4-0.2-0.4-0.4
			c0-0.2,0.1-0.4,0.3-0.4C215.9,83.2,215.9,83.2,216,83.2C216,83.2,216,83.2,216,83.2z"/>
		<path class="fillable" d="M232.6,86.6c0.1,0.2,0.2,0.2,0.2,0.2c0.2,0.6,0.2,1.1,0.1,1.7c0,0.1-0.1,0.2-0.1,0.2c-0.1,0.2-0.2,0.2-0.2,0
			c-0.1-0.2-0.2-0.3-0.2-0.4c0-0.4,0-0.7,0-1.1C232.2,86.9,232.3,86.8,232.6,86.6z"/>
		<path class="fillable" d="M226.3,83.3c0.1-0.2,0.1-0.4,0.2-0.7c0-0.2,0.1-0.2,0.2-0.2c0.2-0.2,0.2-0.2,0.4,0.1c0.1,0.2,0.2,0.3,0.2,0.5
			c0,0.4-0.1,0.7-0.2,1c-0.1,0.2-0.2,0.2-0.2,0.2c-0.1,0-0.2-0.2-0.2-0.2C226.4,83.7,226.4,83.5,226.3,83.3z"/>
		<path class="fillable" d="M217.9,82.4c0.2,0.1,0.4,0.1,0.6,0.2c0.2,0.2,0.2,0.3,0,0.4c-0.4,0.2-0.7,0.2-1.1,0.2c-0.1,0-0.2-0.1-0.2-0.2
			c-0.2-0.2-0.2-0.4,0.2-0.4C217.5,82.5,217.7,82.5,217.9,82.4z"/>
		<path class="fillable" d="M215.9,84.6c-0.1,0.2-0.1,0.2-0.2,0.2c-0.2,0.2-0.4,0.4-0.7,0.4c-0.2,0.1-0.4-0.1-0.6-0.3c-0.1-0.2,0-0.4,0.2-0.5
			C215.1,84.3,215.5,84.4,215.9,84.6z"/>
		<path class="fillable" d="M216.2,85.7c0.2,0,0.2,0,0.2,0c0.2,0.1,0.2,0.2,0.2,0.2c-0.1,0.2-0.2,0.2-0.3,0.4c-0.1,0.1-0.2,0.2-0.3,0.2
			c-0.3,0.2-0.7,0.1-0.7-0.3c-0.1-0.2,0.1-0.4,0.3-0.5C215.8,85.8,216,85.8,216.2,85.7z"/>
		<path class="fillable" d="M216.7,90.3c-0.3,0-0.5-0.2-0.4-0.6c0.2-0.4,0.6-0.5,0.9-0.7c0.2,0,0.2,0.1,0.2,0.2C217.5,89.6,217,90.1,216.7,90.3
			C216.8,90.3,216.7,90.3,216.7,90.3z"/>
		<path class="fillable" d="M216.7,88.6c0,0.1-0.1,0.2-0.1,0.2c-0.2,0.2-0.3,0.4-0.6,0.6c-0.2,0.2-0.4,0.1-0.6-0.2c-0.2-0.2-0.2-0.3,0.1-0.5
			c0.2-0.2,0.6-0.3,0.9-0.4C216.6,88.3,216.7,88.5,216.7,88.6z"/>
		<path class="fillable" d="M218.4,90.2c-0.1,0.3-0.2,0.7-0.4,0.8c-0.2,0.2-0.4,0.2-0.5,0c-0.2-0.2-0.2-0.2-0.1-0.5c0.2-0.3,0.4-0.5,0.7-0.7
			C218.3,89.9,218.4,90,218.4,90.2z"/>
		<path class="fillable" d="M219.2,90.4c0.2,0.4,0.1,0.7-0.2,1c-0.1,0.1-0.2,0.2-0.2,0.2c-0.2,0.2-0.3,0.1-0.4,0c-0.2-0.1-0.2-0.2-0.2-0.4
			S218.8,90.4,219.2,90.4L219.2,90.4z"/>
		<path class="fillable" d="M215.4,94.9c0.2-0.4,0.4-0.6,0.7-0.8c0.4-0.6,0.9-1.1,1.5-1.6c0.1-0.1,0.2-0.2,0.2-0.2s0.1,0,0.1,0.1
			c-0.1,0.2-0.1,0.2-0.2,0.3c-0.5,0.7-1,1.5-1.6,2C215.7,94.8,215.6,94.9,215.4,94.9z"/>
		<path class="fillable" d="M229.7,81c-0.1,0.2-0.1,0.4-0.2,0.6c-0.1,0.2-0.2,0.2-0.2,0.1c-0.1-0.1-0.1-0.2-0.2-0.2c-0.2-0.4-0.2-0.8-0.2-1.3l0,0
			c0.1-0.1,0.2-0.2,0.2-0.2c0.2-0.1,0.2,0.1,0.2,0.2C229.5,80.3,229.6,80.7,229.7,81z"/>
		<path class="fillable" d="M231.3,90.9c0.1-0.2,0.1-0.4,0.2-0.7c0-0.1,0.2-0.2,0.2-0.2c0.1,0,0.2,0.1,0.2,0.2c0.1,0.2,0.2,0.4,0.2,0.7s0,0.4-0.1,0.7
			c0,0.2-0.1,0.3-0.2,0.3s-0.2-0.2-0.2-0.3C231.3,91.4,231.3,91.2,231.3,90.9z"/>
		<path class="fillable" d="M233.1,68.8c-0.3-0.2-0.6-0.2-0.9-0.3c-0.2-0.1-0.6-0.2-0.8-0.2c0-0.2,0-0.4,0-0.7C232.2,67.9,233,68.4,233.1,68.8z"/>
		<path class="fillable" d="M220.4,90c0.1-0.2,0.2-0.4,0.4-0.7c0.1-0.1,0.2-0.1,0.2-0.1c0.1,0.1,0.1,0.2,0.1,0.2C221,89.9,220.7,90.1,220.4,90
			c0,0.2,0,0.5-0.1,0.7c0,0.1-0.1,0.2-0.2,0.2c-0.2,0.2-0.3,0.1-0.4,0c-0.2-0.2-0.2-0.2-0.1-0.4C219.9,90.4,220.1,90.1,220.4,90z"/>
		<path class="fillable" d="M218.1,92.7c0,0.1-0.1,0.2-0.1,0.2c-0.4,0.7-0.9,1.5-1.5,2.1c-0.1,0.2-0.2,0.2-0.4,0.2c-0.1-0.2,0-0.2,0.1-0.2
			c0.2-0.2,0.2-0.3,0.3-0.4c0.4-0.6,0.9-1.2,1.4-1.7C217.8,92.8,217.9,92.7,218.1,92.7C218,92.7,218,92.7,218.1,92.7z"/>
		<path class="fillable" d="M226,82.9c-0.1,0.2-0.1,0.4-0.2,0.7c0,0.2-0.1,0.2-0.2,0.3c-0.2,0.2-0.2,0.2-0.4,0c0-0.1-0.1-0.2-0.1-0.2
			c-0.1-0.4,0-0.7,0.2-1.1c0-0.1,0.1-0.2,0.2-0.2c0.2-0.2,0.2-0.2,0.3,0.1C226,82.7,226,82.8,226,82.9z"/>
		<path class="fillable" d="M225.2,82.2c0.2,0.1,0.2,0.2,0.2,0.4c0,0.4-0.1,0.7-0.2,1l0,0c-0.1,0.2-0.2,0.2-0.3,0.2s-0.2-0.2-0.2-0.4
			c0-0.3,0-0.7,0.2-0.9C224.9,82.4,225,82.2,225.2,82.2z"/>
		<path class="fillable" d="M216.6,95.6c0.1-0.2,0.2-0.3,0.2-0.4c0.6-0.7,1.1-1.6,1.6-2.3c0,0,0.1,0,0.2-0.1c0,0.2-0.1,0.2-0.1,0.3
			c-0.2,0.2-0.2,0.4-0.3,0.7c-0.3,0.4-0.6,0.9-0.9,1.4C217,95.4,216.9,95.6,216.6,95.6z"/>
		<path class="fillable" d="M229.8,83.1c0,0.2-0.1,0.4-0.2,0.5c0,0.1-0.2,0.2-0.2,0.2c-0.1,0-0.2-0.1-0.2-0.2c-0.2-0.3-0.2-0.7-0.2-1
			c0-0.2,0.1-0.2,0.1-0.4c0.1-0.2,0.2-0.2,0.4,0c0.2,0.2,0.2,0.4,0.2,0.7C229.7,82.9,229.7,83,229.8,83.1
			C229.7,83.1,229.8,83.1,229.8,83.1z"/>
		<path class="fillable" d="M234.3,85.4c0.3,0.4,0.2,0.9,0.2,1.3c0,0.3,0.1,0.7-0.2,0.9C234,87.3,233.9,85.9,234.3,85.4z"/>
		<path class="fillable" d="M222.2,86.4c0.1,0.2,0.1,0.2,0.2,0.3c0.2,0.5,0.2,1,0.1,1.5c0,0.1,0,0.2-0.1,0.2c-0.1,0.1-0.1,0.2-0.2,0.2
			c-0.1-0.1-0.2-0.1-0.2-0.2c-0.1-0.1-0.1-0.2-0.1-0.2c-0.1-0.4-0.1-0.9,0-1.4C221.9,86.7,221.9,86.5,222.2,86.4z"/>
		<path class="fillable" d="M218.8,93.1c0.1,0.4-0.2,0.9-0.9,2c-0.2,0.3-0.3,0.7-0.7,0.7c0-0.1,0-0.2,0-0.2c0.2-0.2,0.2-0.4,0.4-0.7
			c0.4-0.6,0.7-1.1,1.1-1.7C218.7,93.4,218.8,93.3,218.8,93.1z"/>
		<path class="fillable" d="M230.5,83.1c-0.1,0.2-0.1,0.3-0.1,0.4c-0.1,0.2-0.2,0.2-0.4,0.1c-0.1-0.1-0.1-0.2-0.2-0.2c-0.2-0.4-0.2-0.7-0.2-1.1
			c0-0.1,0.1-0.2,0.1-0.2c0.1-0.2,0.2-0.2,0.2-0.1c0.1,0.1,0.2,0.2,0.2,0.2C230.4,82.5,230.4,82.8,230.5,83.1z"/>
		<path class="fillable" d="M219.5,92.3c-0.4,0-0.5-0.2-0.4-0.4c0.1-0.3,0.3-0.6,0.7-0.7c0.2-0.1,0.4,0.2,0.4,0.3c-0.1,0.2-0.2,0.5-0.4,0.7
			C219.6,92.3,219.6,92.3,219.5,92.3z"/>
		<path class="fillable" d="M233,85.3c-0.1-0.1-0.2-0.2-0.2-0.2c-0.2-0.4-0.4-0.7-0.3-1.2c0-0.1,0-0.1,0-0.2c0.1-0.2,0.2-0.2,0.2-0.1
			c0.1,0.1,0.2,0.2,0.2,0.2c0.2,0.3,0.2,0.7,0.3,1C233.3,85,233.2,85,233,85.3z"/>
		<path class="fillable" d="M234.4,94c0,0.1,0,0.2-0.1,0.2c-0.1,0.2-0.2,0.2-0.2,0.2c-0.2,0-0.2-0.1-0.3-0.2c-0.2-0.3-0.2-0.7-0.1-1
			c0.2-0.2,0.3-0.2,0.4-0.1C234.3,93.4,234.4,93.6,234.4,94z"/>
		<path class="fillable" d="M222.1,84.9c0-0.4,0.2-0.7,0.3-1c0.1-0.1,0.2-0.2,0.2-0.2c0.2-0.1,0.2-0.1,0.2,0.1c0,0.1,0.1,0.2,0.1,0.2
			c0,0.4-0.2,0.7-0.3,1.1c0,0,0,0.1-0.1,0.1c-0.1,0.1-0.2,0.1-0.2,0.2c-0.1-0.1-0.1-0.2-0.2-0.2C222,85,222.1,84.9,222.1,84.9z"/>
		<path class="fillable" d="M216,87.2c0-0.2,0.1-0.3,0.2-0.3c0.2-0.2,0.5-0.2,0.7-0.2c0.2-0.1,0.2,0.1,0.2,0.2c-0.2,0.2-0.3,0.5-0.6,0.7
			C216.4,87.7,216,87.5,216,87.2z"/>
		<path class="fillable" d="M218.6,84.4c0.1,0,0.2,0,0.2,0c0.2,0.1,0.2,0.1,0.2,0.2c0.1,0.2-0.1,0.2-0.2,0.3c-0.2,0.2-0.6,0.3-0.9,0.3
			c-0.2,0-0.2-0.2-0.3-0.2c-0.1-0.2,0.1-0.2,0.2-0.3C218.1,84.5,218.3,84.4,218.6,84.4z"/>
		<path class="fillable" d="M226.8,79.8c0.1,0.2,0.2,0.2,0.2,0.3c0.2,0.4,0.2,0.9-0.1,1.2c0,0.1-0.2,0.2-0.2,0.2c-0.2,0-0.2-0.2-0.2-0.2
			c-0.2-0.4-0.2-0.9,0.1-1.3C226.6,80.1,226.7,80,226.8,79.8z"/>
		<path class="fillable" d="M226.9,96.4c-0.1,0.2-0.1,0.4-0.2,0.6c0,0.1-0.2,0.2-0.2,0.2c-0.1,0-0.2-0.1-0.2-0.2c-0.2-0.2-0.2-0.6-0.2-0.9
			c0-0.2,0.1-0.3,0.2-0.4c0.1-0.2,0.2-0.2,0.4,0C226.8,95.9,226.9,96.2,226.9,96.4z"/>
		<path class="fillable" d="M225.1,78.2c0,0.2-0.1,0.5-0.2,0.7c-0.1,0.1-0.2,0.2-0.3,0.2c-0.1-0.1-0.2-0.2-0.2-0.2c-0.2-0.4,0-0.7,0.2-1
			c0.2-0.2,0.3-0.2,0.4,0.2C225.1,78,225.1,78.2,225.1,78.2z"/>
		<path class="fillable" d="M221.5,93.3c0-0.2,0.2-0.4,0.3-0.7c0.2-0.2,0.4-0.2,0.5,0.2c0.1,0.2,0,0.6-0.2,0.7c-0.1,0.2-0.3,0.2-0.4,0.2
			C221.5,93.6,221.5,93.6,221.5,93.3z"/>
		<path class="fillable" d="M219.2,93.6c-0.2,0.8-0.7,1.6-1.1,2.4c-0.1,0.2-0.2,0.2-0.4,0.3c0-0.1,0-0.2,0.1-0.2c0.1-0.2,0.2-0.4,0.3-0.6
			c0.3-0.6,0.7-1.1,0.9-1.7C219.2,93.7,219.2,93.6,219.2,93.6C219.2,93.6,219.2,93.6,219.2,93.6z"/>
		<path class="fillable" d="M223.2,93.4c-0.1,0.2-0.1,0.3-0.2,0.4c-0.1,0.2-0.2,0.2-0.3,0.2c-0.3,0.1-0.5-0.2-0.4-0.4c0-0.2,0.2-0.4,0.3-0.6
			c0.1-0.1,0.2-0.2,0.3-0.2c0.2,0.1,0.2,0.2,0.2,0.3C223.2,93.3,223.2,93.4,223.2,93.4L223.2,93.4z"/>
		<path class="fillable" d="M221.9,95c0,0.2,0,0.2-0.1,0.3c-0.2,0.7-0.4,1.5-0.8,2.1c-0.2,0.2-0.2,0.2-0.4,0.3c0-0.2,0-0.2,0.1-0.4
			c0.3-0.8,0.7-1.6,1-2.4c0-0.1,0-0.1,0.1-0.2C221.9,94.9,221.9,94.9,221.9,95z"/>
		<path class="fillable" d="M235.2,93.1c0-0.2,0-0.2,0-0.2c0.1-0.2,0.2-0.4,0.5-0.2c0.2,0.2,0.4,0.4,0.4,0.7c0,0.2-0.2,0.3-0.2,0.4
			c-0.2,0.1-0.4,0-0.5-0.2C235.3,93.4,235.2,93.1,235.2,93.1z"/>
		<path class="fillable" d="M219.7,93.8c0,0.2-0.1,0.3-0.1,0.4c-0.2,0.7-0.6,1.3-0.9,2c-0.1,0.2-0.2,0.3-0.4,0.4c-0.1-0.2,0-0.2,0.1-0.4
			c0.3-0.7,0.7-1.2,0.9-1.8c0.1-0.2,0.2-0.4,0.2-0.6C219.6,93.7,219.6,93.8,219.7,93.8z"/>
		<path class="fillable" d="M220.1,97.5c-0.1-0.2,0-0.4,0.2-0.6c0.2-0.5,0.4-1,0.7-1.6c0.2-0.2,0.2-0.5,0.3-0.7c0.2,0.4,0.1,0.7-0.5,2
			C220.5,96.9,220.5,97.2,220.1,97.5z"/>
		<path class="fillable" d="M218.9,96.9c0.1-0.2,0.1-0.2,0.1-0.4c0.3-0.8,0.7-1.6,1-2.4c0-0.1,0.1-0.1,0.2-0.2c0,0.2,0,0.2,0,0.2
			c-0.2,0.8-0.5,1.6-0.8,2.3C219.2,96.7,219.2,96.8,218.9,96.9z"/>
		<path class="fillable" d="M234.4,93.4c0-0.2,0-0.2,0-0.2c0.1-0.2,0.3-0.3,0.4-0.2c0.2,0.2,0.3,0.4,0.3,0.7c0,0.2-0.2,0.3-0.2,0.4
			c-0.2,0.1-0.4-0.1-0.5-0.2C234.5,93.6,234.5,93.6,234.4,93.4z"/>
		<path class="fillable" d="M229.1,96.7c-0.1,0.2-0.1,0.4-0.2,0.6c0,0.1-0.2,0.2-0.2,0.2c-0.1,0-0.2-0.1-0.2-0.2c-0.2-0.4-0.2-0.8-0.1-1.2
			c0-0.1,0.2-0.2,0.2-0.2c0.1,0,0.2,0.1,0.2,0.2C229.1,96.3,229.1,96.4,229.1,96.7z"/>
		<path class="fillable" d="M235.9,94.9c0.2,0.9,0.4,1.8,0.7,2.7c0,0.1,0,0.2,0,0.2c-0.2-0.1-0.2-0.2-0.3-0.3c-0.2-0.4-0.2-0.9-0.3-1.3
			c-0.1-0.3-0.2-0.6-0.2-0.9C235.9,95.3,235.9,95.1,235.9,94.9L235.9,94.9z"/>
		<path class="fillable" d="M235.4,95.2c0.2,0.9,0.4,1.8,0.6,2.8c0,0.1,0,0.2,0,0.2c-0.2-0.2-0.2-0.2-0.3-0.4c-0.1-0.5-0.2-0.9-0.2-1.5
			c-0.1-0.2-0.1-0.5-0.1-0.7C235.4,95.5,235.4,95.4,235.4,95.2C235.4,95.2,235.4,95.2,235.4,95.2z"/>
		<path class="fillable" d="M219.6,97.2c0-0.2,0-0.2,0.1-0.4c0.3-0.8,0.7-1.6,0.9-2.5c0,0,0,0,0.1-0.1c0.1,0.2,0.1,0.4,0,0.5
			c-0.2,0.7-0.4,1.2-0.7,1.9C219.9,96.9,219.8,97.1,219.6,97.2z"/>
		<path class="fillable" d="M219.4,89.1c-0.1,0.2-0.2,0.5-0.4,0.7c-0.2,0.2-0.4,0.2-0.6-0.1c-0.2-0.2-0.2-0.3,0-0.5c0.2-0.2,0.5-0.3,0.7-0.4
			C219.3,88.8,219.4,88.8,219.4,89.1z"/>
		<path class="fillable" d="M222.9,90.4c0.1-0.2,0.1-0.4,0.2-0.6s0.2-0.2,0.3,0c0.2,0.4,0.2,0.9,0.1,1.3c0,0.1-0.2,0.2-0.2,0.2
			c-0.1,0-0.2-0.1-0.2-0.2C223,90.9,223,90.7,222.9,90.4z"/>
		<path class="fillable" d="M217.8,84.2c-0.2-0.1-0.3-0.1-0.4-0.2c-0.2-0.2-0.2-0.4,0.1-0.4c0.3-0.2,0.7-0.2,0.9,0c0.2,0.1,0.2,0.2,0.2,0.2
			s-0.2,0.2-0.2,0.2C218.3,84.1,218.1,84.1,217.8,84.2z"/>
		<path class="fillable" d="M234,89.8c-0.1,0.2-0.1,0.4-0.2,0.6c-0.1,0.2-0.2,0.2-0.3,0c-0.2-0.4-0.2-0.9-0.1-1.3c0-0.1,0.2-0.2,0.2-0.2
			s0.2,0.1,0.2,0.2C234,89.3,234,89.5,234,89.8z"/>
		<path class="fillable" d="M217.1,88.5c-0.2,0-0.4-0.2-0.4-0.2c-0.1-0.2,0-0.3,0.2-0.4c0.2-0.2,0.4-0.2,0.7-0.4c0.2-0.1,0.2,0,0.2,0.2
			C217.7,87.8,217.4,88.3,217.1,88.5C217.2,88.5,217.1,88.5,217.1,88.5z"/>
		<path class="fillable" d="M224.6,82.6c0,0.3-0.1,0.7-0.2,0.9c-0.1,0.1-0.2,0.2-0.2,0.2c-0.1,0-0.2-0.2-0.2-0.2c-0.1-0.4,0-0.8,0.2-1.1
			c0.1-0.1,0.2-0.2,0.2-0.2c0.1,0.1,0.2,0.2,0.2,0.2C224.6,82.4,224.6,82.5,224.6,82.6z"/>
		<path class="fillable" d="M231.3,82.9c0,0.1,0,0.2,0,0.2c0,0.2-0.1,0.2-0.2,0.2s-0.2-0.1-0.2-0.2c-0.2-0.2-0.2-0.6-0.2-0.8c0-0.2,0-0.2,0.1-0.3
			c0.1-0.2,0.2-0.2,0.3-0.1C231.2,82.3,231.2,82.6,231.3,82.9z"/>
		<path class="fillable" d="M232.4,91.5c-0.4-0.3-0.4-1.4-0.1-1.8c0.2,0.2,0.2,0.4,0.2,0.7C232.7,91.1,232.6,91.3,232.4,91.5z"/>
		<path class="fillable" d="M233.1,91.2c-0.4-0.4-0.4-1.5-0.1-1.8c0.2,0.2,0.2,0.3,0.2,0.5C233.4,90.4,233.4,90.8,233.1,91.2z"/>
		<path class="fillable" d="M218,89.2c-0.2,0-0.4-0.2-0.4-0.2c-0.1-0.2,0-0.3,0.2-0.4c0.2-0.2,0.4-0.2,0.7-0.3c0.2-0.1,0.3,0,0.2,0.2
			c-0.1,0.2-0.2,0.5-0.4,0.7C218.1,89.2,218,89.2,218,89.2z"/>
		<path class="fillable" d="M214.6,50.6c0.1-0.4,0.2-0.8,0.2-1.2c0.5-0.1,0.9-0.2,1.5-0.2C215.6,49.5,215.1,49.9,214.6,50.6z"/>
		<path class="fillable" d="M218.3,86.2c0.2,0,0.2,0.2,0.2,0.3c-0.2,0.3-0.4,0.5-0.7,0.7c-0.2,0.1-0.2,0-0.4-0.2c-0.2-0.2-0.1-0.2,0.1-0.3
			C217.6,86.5,217.8,86.3,218.3,86.2z"/>
		<path class="fillable" d="M230,81.4c-0.1-0.1-0.2-0.2-0.2-0.2c-0.2-0.4-0.2-0.7-0.2-1.1c0-0.2,0.1-0.2,0.2-0.2c0.2-0.1,0.2,0.2,0.2,0.2
			c0.2,0.4,0.2,0.7,0.2,1.1C230.2,81.3,230.1,81.4,230,81.4C230.1,81.4,230,81.4,230,81.4z"/>
		<path class="fillable" d="M221.5,92.6c-0.1,0.2-0.1,0.3-0.2,0.4c-0.1,0.2-0.2,0.2-0.4,0.2c-0.2-0.1-0.2-0.2-0.2-0.4c0-0.2,0.1-0.4,0.2-0.6
			c0.1-0.1,0.2-0.2,0.3-0.2c0.2,0.1,0.2,0.2,0.2,0.3C221.5,92.5,221.5,92.6,221.5,92.6L221.5,92.6z"/>
		<path class="fillable" d="M225.8,93.9c-0.1,0.2-0.1,0.4-0.2,0.5c-0.1,0.2-0.2,0.2-0.4,0c-0.2-0.4-0.2-0.7-0.1-1.1c0-0.1,0.2-0.2,0.2-0.2
			c0.1,0,0.2,0.1,0.2,0.2C225.6,93.6,225.7,93.7,225.8,93.9z"/>
		<path class="fillable" d="M229.7,97.1c-0.1-0.1-0.2-0.1-0.2-0.2c-0.2-0.4-0.2-0.7-0.1-1.2c0.1-0.2,0.2-0.2,0.3-0.1C230,96,230,96.8,229.7,97.1z"/>
		<path class="fillable" d="M219.9,92.4c0-0.2,0.2-0.4,0.4-0.7c0.2-0.2,0.4,0,0.4,0.2c0.1,0.2-0.1,0.5-0.2,0.7c-0.2,0.2-0.2,0.2-0.4,0.1
			C219.9,92.7,219.9,92.6,219.9,92.4z"/>
		<path class="fillable" d="M225.4,96c0.1-0.2,0.1-0.4,0.2-0.6c0.1-0.2,0.2-0.2,0.4,0c0.2,0.4,0.2,0.8,0.1,1.2c-0.1,0.2-0.2,0.2-0.3,0
			C225.5,96.4,225.5,96.3,225.4,96z"/>
		<path class="fillable" d="M219.2,85.3c0.1,0,0.2,0.1,0.2,0.2c0.1,0.2,0,0.2-0.1,0.3c-0.2,0.2-0.4,0.2-0.7,0.4c-0.1,0.1-0.2,0-0.2,0
			c-0.2-0.1-0.2-0.2-0.2-0.4C218.4,85.5,218.7,85.3,219.2,85.3z"/>
		<path class="fillable" d="M216.9,84.3c0.2,0,0.3,0,0.4,0.2c0.1,0.2-0.1,0.2-0.2,0.4c-0.2,0.1-0.4,0.2-0.5,0.2c-0.2,0-0.2,0-0.3-0.1
			c-0.2-0.2-0.2-0.3,0-0.4C216.5,84.4,216.7,84.3,216.9,84.3z"/>
		<path class="fillable" d="M230.1,93.4c0.1,0.2,0.2,0.2,0.2,0.2c0.2,0.3,0.2,0.7,0.1,1c0,0.1-0.2,0.2-0.2,0.2c-0.2,0.1-0.2-0.1-0.2-0.2
			C229.8,94.2,229.8,93.6,230.1,93.4z"/>
		<path class="fillable" d="M217.8,85.4C217.8,85.5,217.8,85.5,217.8,85.4c-0.1,0.3-0.5,0.7-0.7,0.7c-0.2,0-0.2-0.1-0.3-0.2c-0.1-0.1-0.1-0.2,0-0.2
			c0.2-0.2,0.4-0.5,0.7-0.6C217.8,85.2,217.8,85.3,217.8,85.4z"/>
		<path class="fillable" d="M222.5,95.3c0,0.2,0,0.2-0.1,0.4c-0.2,0.6-0.4,1.1-0.7,1.7c-0.1,0.2-0.2,0.3-0.4,0.3c0-0.2,0-0.2,0.1-0.2
			c0.3-0.7,0.7-1.4,1-2C222.4,95.3,222.4,95.3,222.5,95.3z"/>
		<path class="fillable" d="M231.5,66.8c0,0.2,0,0.5,0,0.7c-0.2-0.1-0.5-0.2-0.7-0.2c0-0.2,0.1-0.6,0.1-0.9C231.1,66.6,231.3,66.6,231.5,66.8z"/>
		<path class="fillable" d="M223.4,83.2c-0.2-0.2-0.2-0.4-0.1-0.6c0.1-0.3,0.2-0.7,0.5-0.8C224.1,82.2,223.9,83,223.4,83.2z"/>
		<path class="fillable" d="M218.3,87.9c-0.1-0.1-0.2-0.1-0.2-0.2c-0.1-0.1,0-0.2,0.1-0.2c0.2-0.2,0.4-0.4,0.7-0.4c0.2-0.1,0.2-0.1,0.3,0.1
			s0,0.2-0.1,0.3C218.8,87.7,218.6,87.8,218.3,87.9z"/>
		<path class="fillable" d="M231.8,83c-0.4-0.2-0.7-1-0.4-1.4c0.3,0.2,0.4,0.4,0.4,0.7C231.9,82.5,232.1,82.8,231.8,83z"/>
		<path class="fillable" d="M199.2,77c0.5,0.2,0.8,0.4,0.9,0.9c-0.2,0.1-0.4,0.2-0.6,0.2C199.4,77.7,199.3,77.4,199.2,77z"/>
		<path class="fillable" d="M234.9,95.8c0.2,0.8,0.2,1.6,0.4,2.5c0,0.1-0.1,0.1-0.1,0.2c-0.2-0.1-0.2-0.2-0.2-0.4c-0.1-0.4-0.2-0.8-0.2-1.2
			c0-0.2-0.1-0.4-0.1-0.7C234.7,96,234.8,95.8,234.9,95.8C234.8,95.8,234.8,95.8,234.9,95.8z"/>
		<path class="fillable" d="M232.8,94.4c0-0.2,0.1-0.3,0.2-0.4c0.1-0.1,0.2-0.2,0.2-0.2c0.1,0,0.2,0.1,0.2,0.2c0.2,0.2,0.2,0.5,0.1,0.7
			c-0.1,0.2-0.2,0.2-0.3,0.2s-0.2-0.2-0.2-0.3C232.8,94.5,232.8,94.5,232.8,94.4L232.8,94.4z"/>
		<path class="fillable" d="M224.7,92.8c0.3,0.4,0.3,1.1,0.1,1.5C224.4,94,224.3,93.1,224.7,92.8z"/>
		<path class="fillable" d="M234.5,91.7c0.2,0.2,0.3,0.4,0.3,0.7c0,0.2-0.1,0.3-0.2,0.4c-0.2,0-0.4-0.1-0.4-0.2c0-0.2,0-0.4,0.1-0.5
			C234.3,91.8,234.4,91.8,234.5,91.7z"/>
		<path class="fillable" d="M222.6,92c0,0.2-0.1,0.3-0.2,0.4c-0.2,0.1-0.2,0.1-0.4,0c-0.2-0.2-0.2-0.2-0.2-0.4c0.1-0.2,0.2-0.3,0.2-0.5
			c0.2-0.2,0.2-0.2,0.3,0C222.6,91.7,222.6,91.8,222.6,92z"/>
		<path class="fillable" d="M219.2,90.4c-0.2-0.2-0.2-0.4,0-0.7c0.2-0.2,0.3-0.2,0.4-0.3c0.2-0.1,0.2,0,0.2,0.2c0,0.2-0.1,0.6-0.2,0.7
			C219.4,90.4,219.3,90.4,219.2,90.4L219.2,90.4z"/>
		<path class="fillable" d="M231.1,93c0.4,0.3,0.4,1.1,0.1,1.5c-0.2-0.2-0.2-0.4-0.2-0.6C230.8,93.5,230.9,93.1,231.1,93z"/>
		<path class="fillable" d="M235.9,90.9c0.2,0.2,0.4,0.4,0.5,0.7c0.1,0.2,0,0.3-0.2,0.4c-0.2,0.1-0.3,0.1-0.4-0.1C235.7,91.8,235.7,91.2,235.9,90.9z"
			/>
		<path class="fillable" d="M221.6,90.9c0.2,0.2,0.2,0.7,0.1,0.9c-0.1,0.2-0.2,0.2-0.4,0.2c-0.2-0.1-0.2-0.2-0.2-0.4
			C221.2,91.3,221.4,91.2,221.6,90.9z"/>
		<path class="fillable" d="M221,90.5c0.2,0.3,0,0.6-0.1,0.8c-0.1,0.2-0.3,0.2-0.5,0.2s-0.2-0.2-0.2-0.4c0.2-0.2,0.2-0.3,0.4-0.4
			C220.9,90.5,221,90.6,221,90.5L221,90.5z"/>
		<path class="fillable" d="M234,92.5c0,0.3-0.2,0.4-0.3,0.4c-0.2,0-0.4-0.2-0.4-0.3c0-0.2,0-0.4,0.2-0.7c0.1-0.2,0.2-0.2,0.3,0
			C234,92.2,234,92.3,234,92.5z"/>
		<path class="fillable" d="M234.9,92c0.1-0.2,0.1-0.4,0.2-0.5c0.1-0.2,0.2-0.2,0.3,0s0.2,0.4,0.2,0.6c0.1,0.2-0.1,0.4-0.2,0.4S235,92.3,234.9,92
			C234.9,92,234.9,92,234.9,92L234.9,92z"/>
		<path class="fillable" d="M225.1,80.8c0-0.2,0.1-0.5,0.2-0.7c0.1-0.1,0.2-0.2,0.2-0.2c0.1,0,0.2,0.2,0.2,0.2c0.1,0.3,0,0.7-0.2,0.9
			c-0.1,0.1-0.2,0.1-0.2,0.2c-0.1-0.1-0.2-0.2-0.2-0.2C225,81,225.1,80.9,225.1,80.8z"/>
		<path class="fillable" d="M226.2,80c0.2,0.4,0.2,1.2-0.2,1.5C225.7,81,225.8,80.2,226.2,80z"/>
		<path class="fillable" d="M230.4,79.8c0.4,0.2,0.7,0.8,0.4,1.4c-0.2,0.1-0.2,0-0.2-0.1C230.4,80.7,230.4,80.3,230.4,79.8z"/>
		<path class="fillable" d="M219.6,88c0,0.2-0.4,0.7-0.7,0.7s-0.4-0.2-0.2-0.3c0.2-0.2,0.3-0.4,0.7-0.5C219.5,87.7,219.6,87.7,219.6,88z"/>
		<path class="fillable" d="M218.7,86.6c0.2-0.2,0.3-0.4,0.7-0.6c0.2-0.1,0.2-0.1,0.3,0.1c0.1,0.1,0,0.2-0.1,0.3c-0.2,0.2-0.2,0.2-0.4,0.3
			C219.1,86.8,219,86.8,218.7,86.6z"/>
		<path class="fillable" d="M220.4,87.3c0.2,0,0.2,0.2,0.2,0.2c-0.2,0.2-0.3,0.4-0.7,0.5c-0.1,0-0.2-0.1-0.2-0.2c-0.1-0.1,0-0.2,0.1-0.2
			C219.9,87.4,220.1,87.3,220.4,87.3z"/>
		<path class="fillable" d="M219.5,87.5c-0.2,0-0.3-0.2-0.2-0.2c0.1-0.2,0.5-0.5,0.7-0.5s0.2,0.1,0.2,0.2C220.1,87.2,219.6,87.5,219.5,87.5z"/>
		<path class="fillable" d="M221.3,88.2c0.2,0,0.2,0.1,0.2,0.2c-0.1,0.2-0.2,0.5-0.5,0.7c-0.2,0.1-0.2,0-0.3-0.1s-0.1-0.2,0-0.2
			c0.2-0.2,0.2-0.3,0.4-0.4C221.2,88.2,221.3,88.2,221.3,88.2z"/>
		<path class="fillable" d="M221.5,89.6c-0.2,0-0.2-0.1-0.2-0.2c0.1-0.2,0.2-0.5,0.4-0.7c0.2-0.1,0.2,0,0.3,0.2C222,89.1,221.8,89.5,221.5,89.6
			C221.5,89.6,221.5,89.6,221.5,89.6z"/>
		<path class="fillable" d="M236,89.6c0,0-0.1,0-0.2,0c-0.2-0.1-0.4-0.5-0.4-0.7c0-0.2,0.2-0.2,0.2-0.2c0.2,0.1,0.5,0.5,0.5,0.7
			C236.3,89.5,236.2,89.6,236,89.6z"/>
		<path class="fillable" d="M220.8,87.7c0.2,0,0.2,0.1,0.2,0.2c-0.1,0.2-0.4,0.5-0.7,0.5c-0.1,0-0.2-0.1-0.2-0.2c-0.1-0.1,0-0.2,0.1-0.2
			C220.3,88,220.6,87.7,220.8,87.7z"/>
		<path class="fillable" d="M225,94.9c0.3,0.3,0.3,1.1,0.1,1.5C224.8,96.1,224.8,95.4,225,94.9z"/>
		<path class="fillable" d="M234.4,95.8c0,0.6,0.2,1.1,0.2,1.6c-0.2,0-0.2-0.1-0.3-0.2c-0.2-0.4-0.2-0.9-0.2-1.3c0,0,0-0.1,0.1-0.1
			C234.3,95.8,234.3,95.8,234.4,95.8z"/>
		<path class="fillable" d="M234,97.4c-0.2,0-0.2-0.1-0.3-0.2c-0.2-0.4-0.2-0.8-0.2-1.2c0-0.1,0.1-0.1,0.1-0.2h0.1C233.8,96,234,97.2,234,97.4z"/>
		<path class="fillable" d="M230.4,95.5c0.3,0.3,0.3,1.1,0,1.5C230.2,96.6,230.2,95.8,230.4,95.5z"/>
		<path class="fillable" d="M235,89.6c0-0.3,0.2-0.4,0.2-0.2c0.2,0.2,0.3,0.4,0.4,0.7c0,0.2-0.1,0.2-0.2,0.2s-0.2-0.1-0.2-0.2
			C235.1,89.9,235,89.6,235,89.6z"/>
		<path class="fillable" d="M224.6,81c-0.2-0.2-0.2-0.8,0.1-1c0.1-0.1,0.2-0.1,0.2,0.1C225,80.4,224.8,81,224.6,81z"/>
		<path class="fillable" d="M219.6,89.2c0,0-0.2-0.1-0.2-0.2c0-0.1,0-0.2,0.1-0.2c0.2-0.2,0.3-0.2,0.4-0.3c0.1,0,0.2,0,0.2,0.1c0.1,0.1,0.1,0.2,0,0.2
			C220.1,89,219.7,89.2,219.6,89.2z"/>
		<path class="fillable" d="M234.9,90.4c-0.2,0.1-0.3,0-0.4-0.2c-0.1-0.2-0.1-0.3-0.2-0.4c0-0.1,0.1-0.2,0.2-0.2s0.2,0,0.2,0.1
			C234.9,89.9,235,90.1,234.9,90.4z"/>
		<path class="fillable" d="M234.9,90.7c0-0.1,0-0.2,0-0.2c0.1-0.2,0.2-0.2,0.2-0.1c0.2,0.2,0.3,0.5,0.2,0.7c-0.1,0.2-0.2,0.2-0.2,0.1
			C235,91,235,90.9,234.9,90.7z"/>
		<path class="fillable" d="M222.6,90.7c-0.1,0.2-0.2,0.3-0.2,0.5c-0.1,0.1-0.2,0.2-0.2,0.1c-0.1,0-0.2-0.2-0.1-0.2c0-0.2,0.1-0.3,0.2-0.4
			c0.1-0.1,0.2-0.2,0.2-0.2C222.5,90.4,222.6,90.5,222.6,90.7z"/>
		<path class="fillable" d="M221.1,90.5c-0.1-0.3,0-0.5,0.2-0.7c0.1-0.1,0.2-0.1,0.2-0.1c0.1,0.1,0.2,0.2,0.2,0.2C221.6,90.4,221.4,90.5,221.1,90.5
			C221,90.5,221.1,90.5,221.1,90.5z"/>
		<path class="fillable" d="M231.3,96.5c-0.2-0.4-0.2-0.9,0-1.4C231.4,95.5,231.4,96,231.3,96.5z"/>
		<path class="fillable" d="M220.1,89.6c-0.2,0-0.2-0.2-0.2-0.2c0.2-0.2,0.3-0.2,0.4-0.4c0.2-0.1,0.2,0,0.2,0.2C220.6,89.4,220.2,89.6,220.1,89.6z"/>
		<path class="fillable" d="M224.4,94.5c0.2,0.3,0.2,1.1,0,1.5C224.2,95.5,224.2,95,224.4,94.5z"/>
		<path class="fillable" d="M231.8,92.6c0.2,0.5,0.2,0.9,0.1,1.5C231.7,93.6,231.7,92.9,231.8,92.6z"/>
		<path class="fillable" d="M234.4,91.1c0,0.2,0,0.2-0.1,0.3c-0.1,0.2-0.2,0.2-0.3,0.1c-0.1-0.1-0.1-0.2-0.1-0.2c0-0.2,0.1-0.3,0.1-0.5
			c0-0.1,0.2-0.2,0.2-0.2c0.1,0,0.2,0.1,0.2,0.2C234.4,90.9,234.4,91,234.4,91.1z"/>
		<path class="fillable" d="M234.9,90.9c0,0.2,0,0.2-0.1,0.2c0,0.1-0.1,0.2-0.2,0.2s-0.2-0.1-0.2-0.2c-0.2-0.2-0.1-0.6,0.1-0.7c0.1-0.1,0.2-0.1,0.2,0
			C234.9,90.7,234.9,90.9,234.9,90.9z"/>
		<path class="fillable" d="M224,93.9c-0.2-0.3-0.2-1.1,0-1.5C224.1,92.8,224.2,93.5,224,93.9z"/>
		<path class="fillable" d="M221.5,90.7c0.1-0.2,0.2-0.3,0.2-0.4c0.1-0.1,0.2-0.1,0.2-0.1c0.1,0,0.2,0.2,0.1,0.2c0,0.2-0.1,0.3-0.2,0.4
			c0,0.1-0.2,0.1-0.2,0.1S221.6,90.8,221.5,90.7z"/>
		<path class="fillable" d="M235.7,90.1c0.1,0,0.1,0.1,0.2,0.1c0.2,0.2,0.2,0.3,0.2,0.5c0,0.2-0.2,0.2-0.2,0.2C235.6,90.8,235.5,90.4,235.7,90.1
			C235.6,90.2,235.6,90.1,235.7,90.1z"/>
		<path class="fillable" d="M224,81c-0.2-0.4,0-0.7,0.2-0.9C224.4,80.5,224.3,80.8,224,81z"/>
		<path class="fillable" d="M228.2,97.9c0.2,0.4,0.2,0.8,0,1.2C228,98.7,228,98.2,228.2,97.9z"/>
		<path class="fillable" d="M231.3,98.5c-0.2-0.4-0.2-0.8-0.1-1.2C231.4,97.4,231.4,98.1,231.3,98.5z"/>
		<path class="fillable" d="M225.5,98.5c-0.2-0.4-0.2-0.9,0-1.3C225.6,97.5,225.6,98.1,225.5,98.5z"/>
		<path class="fillable" d="M225.9,97.4c0.2,0.3,0.2,1,0,1.2C225.8,98.1,225.8,97.8,225.9,97.4z"/>
		<path class="fillable" d="M229.5,99c-0.2-0.4-0.2-0.8-0.1-1.2C229.7,97.9,229.7,98.5,229.5,99z"/>
		<path class="fillable" d="M229.1,99c-0.2-0.4-0.2-0.8-0.1-1.2C229.3,98,229.3,98.6,229.1,99z"/>
		<path class="fillable" d="M227.7,99.1c-0.2-0.4-0.2-0.9-0.1-1.3C227.8,98.1,227.8,98.8,227.7,99.1z"/>
		<path class="fillable" d="M225,98.1c-0.2-0.3-0.2-0.9,0-1.2C225,97.1,225.1,97.7,225,98.1z"/>
		<path class="fillable" d="M224.5,96.6c0.2,0.4,0.2,1,0,1.2C224.4,97.6,224.4,97,224.5,96.6z"/>
		<path class="fillable" d="M226.8,98.9c-0.2-0.3-0.2-0.9-0.1-1.2C226.8,97.9,226.9,98.5,226.8,98.9z"/>
		<path class="fillable" d="M230.5,97.5c0.2,0.2,0.2,0.9,0.1,1.2C230.4,98.5,230.4,97.9,230.5,97.5z"/>
		<path class="fillable" d="M224.2,97.6c-0.2-0.3-0.2-1,0-1.2C224.3,96.7,224.4,97.2,224.2,97.6z"/>
		<path class="fillable" d="M230.9,98.5c-0.2-0.3-0.2-0.8-0.1-1.2C231.1,97.5,231.1,98.2,230.9,98.5z"/>
		<path class="fillable" d="M230,67.9c0.2,0,0.3,0.1,0.3,0.2c0,0.1-0.2,0.2-0.3,0.2s-0.3-0.1-0.3-0.2C229.6,68,229.8,67.9,230,67.9z"/>
		<path class="fillable" d="M226.4,98.7c-0.2-0.4-0.2-0.8-0.1-1.2C226.4,97.6,226.4,98.2,226.4,98.7z"/>
		<path class="fillable" d="M228.7,97.8c0.2,0.3,0.2,0.9,0.1,1.2C228.6,98.9,228.5,98.1,228.7,97.8z"/>
		<path class="fillable" d="M230,98.8c-0.2-0.2-0.2-0.9-0.1-1.2C230.2,97.8,230.2,98.4,230,98.8z"/>
		<path class="fillable" d="M227.2,99c-0.2-0.3-0.2-1,0-1.3C227.3,98.1,227.4,98.5,227.2,99z"/>
		<path class="fillable" d="M231.7,96.8c0.2,0.4,0.1,0.8,0.1,1.2C231.6,97.9,231.5,97.3,231.7,96.8z"/>
		<path class="fillable" d="M232.5,92.4c0.2,0.3,0.2,0.7,0,1C232.3,93.1,232.3,92.7,232.5,92.4z"/>
		<path class="fillable" d="M223.5,92.3c0.2,0.4,0.2,0.7,0,1C223.4,93.1,223.4,92.6,223.5,92.3z"/>
		<path class="fillable" d="M230.7,67.8c0.2,0.2,0.2,0.3,0.3,0.4c-0.2,0-0.4,0-0.6,0C230.6,68.1,230.6,68,230.7,67.8z"/>
		<path class="fillable" d="M213.8,74.7c-0.1-0.1-0.2-0.2-0.2-0.2C213.8,74.6,213.8,74.7,213.8,74.7L213.8,74.7z"/>
		<path class="fillable" d="M233,35.5c0,0.2,0,0.4,0,0.6c0,0.4,0,0.9,0,1.4c0,0.2,0.1,0.3,0.2,0.4c0.4,0.4,0.7,0.7,1.1,1.2c0.1,0.1,0.2,0.2,0.2,0.2
			c-0.1,0.1-0.2,0.2-0.2,0.2c-0.4,0.4-0.7,0.7-1.1,1.1c-0.2,0.2-0.2,0.2-0.2,0.4c0,0.6,0,1.1,0,1.6c0,0.2,0,0.2,0,0.3
			c-0.2,0-0.2,0-0.3,0c-0.6,0-1.1,0-1.7,0c-0.2,0-0.3,0.1-0.4,0.2c-0.4,0.5-0.9,0.9-1.4,1.5c-0.2-0.2-0.5-0.5-0.7-0.7
			c-0.2-0.2-0.5-0.4-0.7-0.7c-0.2-0.2-0.2-0.2-0.4-0.2c-0.6,0-1.1,0-1.6,0c-0.2,0-0.2,0-0.3,0c0-0.2,0-0.2,0-0.3c0-0.6,0-1.1,0-1.6
			c0-0.2-0.1-0.4-0.2-0.6c-0.4-0.4-0.7-0.7-1.1-1.1c-0.1-0.1-0.2-0.2-0.2-0.2c0.2-0.2,0.4-0.4,0.6-0.7c0.2-0.2,0.6-0.6,0.8-0.8
			c0.2-0.2,0.2-0.2,0.2-0.4c0-0.6,0-1.1,0-1.6c0-0.2,0-0.2,0-0.3c0.2,0,0.4-0.1,0.7-0.1c0.4,0,0.9,0,1.3,0c0.2,0,0.4-0.1,0.5-0.2
			c0.4-0.4,0.7-0.7,1.1-1.1c0.1-0.1,0.2-0.2,0.2-0.2c0.3,0.3,0.7,0.7,0.9,0.9c0.2,0.2,0.2,0.2,0.3,0.3c0.2,0.2,0.5,0.4,0.8,0.4
			c0.5,0,1,0,1.6,0C232.7,35.5,232.8,35.5,233,35.5z M231.9,41.6c-0.5,0.4-1.1,0.6-1.7,0.5c-0.7-0.1-1.2-0.3-1.6-0.8
			c-0.7-0.9-0.8-2-0.2-3c0.4-0.6,0.9-0.9,1.7-1.1c0.7-0.2,1.3,0.2,2,0.5c-0.7-1.1-2.1-1.7-3.6-1.4c-1.5,0.4-2.5,1.7-2.5,3.2
			c0,1.6,0.9,2.9,2.5,3.4C229.6,43.4,231.2,42.8,231.9,41.6z M230.1,40.9c0.2-0.2,0.4-0.2,0.7-0.4c0.2-0.1,0.2-0.1,0.3,0
			c0.2,0.2,0.4,0.2,0.7,0.4c-0.1-0.4-0.2-0.7-0.2-0.9c0.2-0.2,0.4-0.4,0.7-0.7c-0.4-0.1-0.7-0.1-0.9-0.2c-0.2-0.2-0.2-0.6-0.4-0.8
			c-0.2,0.3-0.2,0.6-0.4,0.8c-0.3,0.1-0.6,0.1-0.9,0.2c0.2,0.2,0.4,0.4,0.6,0.5s0.2,0.2,0.2,0.3C230.3,40.5,230.2,40.7,230.1,40.9z"
			/>
		<path class="fillable" d="M225,104.1c0-0.2,0-0.2,0-0.3c0.2-0.1,0.3-0.1,0.4,0.1c0.1,0.1,0.1,0.2,0,0.2C225.3,104.1,225,104.1,225,104.1z"/>
		<path class="fillable" d="M224.9,103.5c0-0.2,0-0.2,0-0.3c0.2,0,0.2-0.1,0.4,0.1c0,0.1,0.1,0.2,0,0.2C225.2,103.5,225,103.5,224.9,103.5z"/>
		<path class="fillable" d="M221.1,104.3c0,0.2-0.2,0.4-0.3,0.4c-0.2,0.1-0.3-0.1-0.4-0.2c-0.1-0.2-0.1-0.2-0.1-0.4c0-0.2,0.2-0.2,0.2-0.3
			c0.2-0.1,0.3,0,0.4,0.2C221,103.9,221,104.1,221.1,104.3z"/>
		<path class="fillable" d="M234.2,104c0,0.1-0.1,0.2-0.2,0.3s-0.2,0.2-0.3,0.2c-0.2,0-0.2-0.1-0.3-0.2c-0.1-0.2,0-0.5,0.2-0.7
			c0.2-0.2,0.2-0.2,0.4-0.1C234.1,103.7,234.2,103.8,234.2,104z"/>
	</g>
</g>
</svg>
