<?xml version="1.0" encoding="utf-8"?>
<!-- Generator: Adobe Illustrator 24.0.2, SVG Export Plug-In . SVG Version: 6.00 Build 0)  -->
<svg version="1.1" id="Слой_1" xmlns:xodm="http://www.corel.com/coreldraw/odm/2003"
	 xmlns="http://www.w3.org/2000/svg" xmlns:xlink="http://www.w3.org/1999/xlink" x="0px" y="0px" viewBox="0 0 238.1 150.2"
	 style="enable-background:new 0 0 238.1 150.2;" xml:space="preserve">
<style type="text/css">
	.st0{fill-rule:evenodd;clip-rule:evenodd;}
</style>
<g id="Слой_x0020_1">
	<path class="st0 fillable" d="M125.3,69.9l-0.7,0.7c-0.3,0.2-0.6,0.4-0.8,0.7c-0.6,0.4-1.1,0.9-1.6,1.3c-1.1,0.9-2.1,1.8-3.2,2.6l-5.7,4.6
		c-0.3,0.3-0.3,0.7-0.4,1.2c0.6-0.3,1.1-0.7,1.5-1.2c0.5-0.3,1-0.7,1.4-1.1c0.7-0.4,1.6-1.2,2.3-1.7c0.9-0.7,6.3-4.9,6.7-5.1
		c-0.2,0.2-0.2,0.2-0.3,0.4l-2,1.7c-0.3,0.3-0.5,0.4-0.8,0.7c-0.2,0.2-0.5,0.4-0.7,0.7l-7.2,6.2c-0.9,0.8-1.3,0.9-1.2,1.6
		c0.4-0.2,1.2-0.9,1.6-1.2l8.1-6.7c0.5-0.4,3-2.6,3.3-2.6l-6.3,5.5c-0.2,0.2-0.2,0.2-0.4,0.4c-0.2,0.2-6.3,5.4-6.7,5.6
		c-0.4,0.2-0.2,0.1-0.2,0c-0.6-0.7,1.8-12.3,1.3-13.4c-1.1-0.2-2.1,0.6-2.8,1c-2,1.2-4,2.6-5.8,4c-0.4,0.3-0.7,0.7-1.2,0.9
		c0.2-0.2,0,0,0.2-0.2l0.4-0.4c0.2-0.2,0.3-0.3,0.6-0.6c0.8-0.9,2.7-2.6,3.7-3.2c-0.7-0.3-1.2,0.1-2.1,0.6l-2.1,1.1
		c0.2-0.3,1.2-1.1,1.5-1.4c0.5-0.3,1.2-0.9,1.8-1.2l-0.3-0.8c-0.7-0.3-0.5-0.9-2.7,0.7c-0.4,0.3-0.7,0.6-1.2,0.9
		c-1.6,1.2-4.3,3.8-5.4,5.3C94.2,82,92.3,88.2,91.8,89l-0.2,0.5l-0.1,0.3c0.3-0.9,4.7-6,5.8-7.2c0.5-0.6,0.9-0.8,1.4-1.3
		c0.6-0.6,1.2-2.5,2-3.3c-0.2,0.5-0.5,1-0.7,1.6c-0.8,1.9-1.2,2.9-1.7,5c-0.5,1.9-1.3,5.7-1.3,7.7c1.1-3.3,3.9-8.1,5.8-10.9
		c2.2-3.2,3.4-4.4,6.1-6.4c0.6-0.4,1.9-1.3,2.7-1.6c0.4,0,0.2,0.3,0.2,1.1l-0.4,3.6c-0.1,0.7-0.2,1.6-0.3,2.4l-0.4,2.3
		c-0.6-1.1,0-2-1.8-1.7l-0.1,1.4l-0.2,2.1l0.7,0.2c0.2,0.2,2,0.8,2.4,0.9s1.3-0.8,1.7-1.2c0.2-0.2,0.1,0,0.2-0.2l4-3.5
		c0.5-0.4,0.8-0.8,1.3-1.2l4-3.5c0.4-0.3,0.9-1,1.3-1.2l1.5-1.4c0.2-0.2,0.4-0.5,0.7-0.7c0.5-0.4,0.5-0.5,0.8-0.7
		c0.1-0.2,0.4-0.4,0.6-0.6c0.3-0.3,0.4-0.4,0.7-0.7c0.4-0.3,1.1-1.1,1.4-1.2c0.2-0.2,0.1-0.2,0.3-0.4l2.2-2c0.7-0.6,1.9-1.9,2.6-2.3
		l0.2-0.3c0.5-0.2,2.8-2.7,3.5-3.4c-0.4,0.1-3,2.6-3.6,3l-2.7,2.3c-0.3,0.3-0.6,0.5-0.9,0.7c0.2-0.4,1.6-1.6,2.2-2.6
		c0.5-0.7,1.6-1.8,2.3-2.5c0.4-0.4,1.3-1.2,1.6-1.6c-0.7,0.3-7.9,5.9-8.3,6.3l0.6,1.4c-0.8-0.2-1.2-0.4-1.9-0.7
		C127.4,68.1,125.8,69.7,125.3,69.9L125.3,69.9z M130.5,70.4c0,0.4,0.2,0.3,0.4,0.7c0.2-0.2,0.2,0.1,0.2-0.2l-0.2-0.7L130.5,70.4
		L130.5,70.4z M128.8,66.4c0.3-0.2,0.4-0.3-0.4-1.2C128.4,65.5,128.6,66.2,128.8,66.4z M121.9,141.3l-1.7,0.2c0,0.2,0.2,0.6,0.2,0.7
		c0.1,0.4,0.1,0.5,0.4,0.5l2.9-0.2c-0.2-0.2-0.5-0.6-0.7-0.8C122.6,141.4,122.5,141.2,121.9,141.3L121.9,141.3z M159.6,60.2
		L159.6,60.2c-0.5,0.2-1.3,1.4-1.8,1.8c-0.7,0.7-1.2,0.9-2.6,1v-1.1v-1.2c-0.2,0.8-0.4,1.6-0.5,2.6c-0.1,0.8-0.2,1.9-0.2,2.8
		c0.7,0.2,1.6,0.7,2.3,1c0.4,0.2,1.9,0.9,2.3,0.9c0.2,0.2,1.6,0.7,2,0.8c0.4,0.2,0.7,0.3,1.1,0c0.2-0.2,0.4-0.5,0.6-0.8
		c0.4-0.8,1.2-3.5,1.2-4.4c-1.2,2.9-0.8,5.6-5.4,3.5c-0.6-0.2-2-0.9-2.3-1.2c0.7,0.1,1.5,0.3,2.2,0.4c1.2,0.2,1.4-0.3,2.2-0.2
		c1.1,0.1,1.3-0.2,1.6-1.1c0.2-0.7,0.3-1.5,0.4-2.3V62c0-1.2,0-1.2-0.9-1.5c-0.6-0.2-1-0.4-1.6-0.5c-0.1,0.1,0,0-0.2,0.1
		C159.7,60.2,159.8,60.1,159.6,60.2z M142.1,69c-0.2,0.7-0.9,0.1-1.4,1c-0.6,1.2-1,1.5-2.9,0.1c-0.6-0.4-0.7-0.5-1.1-1
		c-0.2-0.2-0.1-0.1-0.2-0.2c0.3,1.9,1.9,4.4,3.5,4.8c-0.9-0.7-1.9-1.5-2.3-2.6c0.5,0.3,1.6,1.7,2.5,1.6c0.2-0.3,0-0.4,0.3-0.6
		s0.5,0.1,0.8-0.2c0.2-0.4,0-0.9,0-1.3c1.2,1.4,0.6,2,0.1,3.4c0.5-0.2,1.3-0.7,1.5-1.1c0.2-0.4,0.5-1.7,0.5-2.2
		c-0.1,0.2-0.7,1.3-0.9,1.5c0.1-0.9,0.3-0.9,0.1-1.9c-0.1-0.3,0.1-1.4,0-2.1C142.4,68.5,142.4,68.9,142.1,69L142.1,69z M149.3,33.1
		l-0.6,0.2c-0.4,0.2-1,0.5-1.3,0.7l0.5,1.2c0.9-0.2,2-0.4,2.8-0.7c1.5-0.3,1.7-0.3,2.7,0.3c0.9-0.2,1.8-0.7,2.8-1
		c2.1-0.7,7.9-2.1,9.6-2.1c-2.3,0.3-5.5,1.3-7.7,2.1c-1.2,0.5-6,2.5-6.7,3.2c0.5,0.1,2.6-1,3.2-1.2c3.1-1.3,7.1-2.6,10.5-3.2
		c5.6-1.1,10.9-1.2,16,0.7c6.7,2.3,11.2,8,13,14.3c0.3,1.2,0.6,2.5,0.7,3.8c0.2,1.6,0.2,2.8,0.2,4.4c0.6-1.2,0.2-5.7,0.1-7.2
		c-0.2-1.2-0.3-2.2-0.6-3.4c-0.2-1.1-0.6-2.2-0.7-3.2l0.1,0.1c0.1,0.1,0,0,0.1,0.2c0.7,1.1,1.9,4.6,2.2,5.8c4.9,17.3-9,28.2-22,35.9
		c-7.2,4.3-14.5,8.1-21.9,12.3c-6.7,3.7-9.8,4.9-14.4,11.1c-0.8,1.2-2.8,4-3.2,5.4l0.1-0.1c0,0,0,0,0.1-0.1c0.1-0.1,0.1-0.1,0.2-0.2
		s0.1-0.2,0.2-0.2c0.2-0.2,0.2-0.3,0.3-0.6c0.2-0.4,0.5-0.7,0.7-1.1c0.4-0.5,1.3-1.8,1.7-2.1c-0.2,0.4-0.5,1.1-0.7,1.5
		c-0.7,1.6-1.4,3.2-1.9,4.9c-0.8,2.7-1,4.9-0.4,7.9c1,4.9,3.1,9.1,5.5,12.5c0.5,0.7,1.4,1.9,2,2.5c0.4,0.3,0.7,0.7,1.1,1.2
		c1.5,1.5,4.7,4.2,6.4,4.9c2,0.8,4.7,1.9,6.7,2.2c2,0.3,6.5,0.2,8.1-0.6c-1.2,0-2.9,0.5-4.4,0.2c-0.6-0.1-0.7-0.3-1.2-0.4
		c-6.3-0.8-10.8-3.7-15.1-8.2c-3-3.3-6.5-7.8-7.8-12l-0.7-2.7c-1.2-5.3,1.2-11.3,4.5-14.8c3.5-3.7,7.1-5.6,11.7-8.2
		c2.6-1.5,5-2.7,7.6-4.1l0.8-0.4c0,0,0,0,0.1,0l0.2-0.2c0.5-0.1,4.5-2.3,5.3-2.7c5.1-2.6,9.3-5.3,14.2-8.2c0.3-0.2,0.9-0.7,1.2-0.7
		l1.4-1c0.5-0.3,1-0.7,1.5-1c0.1-0.2,0.9-0.8,1.2-0.8c0.2-0.2,0.1-0.2,0.2-0.3s0.2-0.2,0.4-0.2c0.2-0.2,0.2-0.3,0.6-0.4
		c0.1-0.2,0-0.1,0.2-0.2l0.1-0.1c0,0,0.2-0.1,0.2-0.2l0.2-0.2c0,0,0.1-0.1,0.2-0.1c0.2-0.1-0.1,0,0.2-0.1c0,0,0-0.1,0.1-0.1l0.6-0.6
		c0.3-0.2,0.3-0.3,0.7-0.5c0-0.1,0,0,0.2-0.2c0.2-0.2,0.1-0.1,0.2-0.2c0.2-0.2,1.1-1.1,1.3-1.2l0.2-0.2l1.2-1.3
		c0.1-0.1,0.2-0.2,0.2-0.2l0.2-0.2c0,0,0,0,0.1-0.1c0-0.2,0-0.1,0.1-0.2c0.1-0.3,0-0.2,0.3-0.3c0-0.2,0-0.1,0.1-0.2
		c0.1-0.2,0.1-0.1,0.1-0.1l0.8-1.1c0.2-0.4,1.1-1.4,1.4-2c3.2-5.1,6.3-11.6,6-17.9c-0.2-8.6-4.8-14.6-9.3-17.9
		c-2.6-1.9-5.4-3.5-9-4.7c-10.5-3.5-21.5-1.9-31.4,2.3C150.9,32.4,150.1,32.8,149.3,33.1L149.3,33.1z M162.4,111
		c0.7-0.5,3.7-1.3,4.8-1.6c1.6-0.5,3.4-0.8,5.2-1.1c2.2-0.3,10-0.9,11.6-0.1c-4.9,0.1-6.4,0.1-11.3,0.8c-1.7,0.2-3.5,0.6-5.2,0.9
		L162.4,111z M154.7,112.9c-0.2,0.2-1.6,0.9-1.9,1c-1.1,0.7-3.1,1.7-4.9,2.9c-1,0.7-4,2.7-4.4,3.5c0,0.6,0,1.2,0.2,1.7
		c0.2-0.2,0.7-0.6,0.9-0.8l2-1.6c0.3-0.2,0.7-0.6,1.1-0.7c-0.3,0.5-1.7,1.6-2.1,2.2c-1.7,2.1-1.7,1.6-1.3,2.6
		c0.2,0.5,0.7,1.2,1.1,1.6l3.6-2.6c0.4-0.2,0.9-0.6,1.4-0.8c-0.3,0.4-0.7,0.7-1.2,1c-0.3,0.3-0.7,0.7-1.2,1c-0.4,0.4-1.9,1.8-2,2.2
		c0.3,0,0.6-0.6,1.2-1.2c2.1-1.9,5-3.5,7.6-4.9c0.7-0.3,2.7-1.4,3.5-1.6c-0.3,0.3-2.2,1.4-2.8,1.9c-0.8,0.6-2,1.4-2.6,2.1
		c0.5-0.1,1.3-0.4,1.8-0.6c0.6-0.2,1.2-0.3,1.8-0.6c1.2-0.4,2.6-0.7,3.8-1.2c1.8-0.6,5.8-1.8,6.7-3l-6.5,2.1c1.2-0.7,2.6-1,4.4-2.2
		c2.4-1.7,3.5-1.7,4.4-2.3c-0.2-0.1,0-0.2-0.7,0.1l-2.3,0.7c0.3-0.3,0.7-0.5,1.2-0.7c1.6-0.9,1.8-1.3,3.8-1.9
		c8.1-2.5,8.1,1.1,11.4,2c1,0.2,2.1,0.6,3,0.9c2,0.7,1.8,1.1,2.6,1.3c-0.2-1.2-0.7-2.1-1-3c0.5,0.4,1.1,1.2,1.4,2
		c0.6,1.2,0.5,1.4,0.7,2.9c0.1,1.2,0,1.8-0.5,2.8c-0.2,0.6-1,1.9-1.4,2c0.2,0.2,0,0.2,0.2,0.1c0.2-0.1,2.6-2.4,2.7-2.8
		c1.5-2.1,1.9-2.1,1.9-4.9c0-3-0.6-3.4-1.4-5.4c0.7,0.7,1.2,1,1.6,2.2c0.5,1.1,0.6,2.1,0.6,3.4c0.6-0.8,1-3.2,0.9-4.4
		c-0.2-2.2-1.6-2.7-2-3.3c-0.2,0-0.1,0-0.2-0.1c-0.1,0-0.2-0.1-0.2-0.2c-2.5-1.5-5.8-2-8.7-2.1c-3.6-0.2-7.3,0.2-10.7,0.8
		c-3.1,0.6-6.2,1.5-9.1,2.5c-1.4,0.5-2.8,1.1-4.2,1.6C158.1,111.4,155,112.9,154.7,112.9L154.7,112.9z M121.7,54.2
		c0.7-0.1,0.7,0,0.8,0.8c0.1,0.5,0.1,1.2-0.1,1.6c-0.1-0.5,0-1.1-0.4-1.3c0,0,0,0,0,0.1l-0.2,0.6c-0.8,0.2-0.6,0-0.9,0.7v-1.1
		c-0.2,0.7-0.2,1.1-0.3,1.8c-0.2-0.7-0.2-1.5,0-2.1c0.2-0.8,0.6-1,1.2-1.3C121.9,54.1,121.9,53.8,121.7,54.2
		C121.8,54.1,121.7,54.2,121.7,54.2L121.7,54.2z M134.1,48.6l-0.2,0.3c-1.3,1.2-0.8,0.7-1.9,1.5c-0.3,0.2-0.5,0.3-0.7,0.6l0.7-0.2
		c-0.2,0.5-2.5,2.6-3,3c-1.1,0.7-4-0.1-5.7,0.4c0,0.1,0,0.2,0,0.2c-0.1,0.3,0.1-0.2,0,0.2v0.1v0.1v0.1c-0.2-1-0.4-1.7-0.9-2.3
		c-0.5,0-0.9,0.6-1.2,0.9c0.2-0.5,0.6-1.3,1.1-1.6c0.7,0.1,0.7,0.7,1,1.2l0.2-0.8c0.8,0.5,1.2,0.8,2.6,0.7c1-0.2,1.9-0.6,2.4-1.1
		c-1.3,0.4-2.5,1.3-4,0.4c-1.5-0.9-1.2-2.2-0.8-4c-0.4,0.2-0.6,0.6-1.2,0.8c-0.5,0.2-1.3,0.3-2,0.2c-0.7-0.2-0.7-0.5-1.6-0.2
		c-0.5,0.2-1.1,0.5-1.5,0.6c0.2-0.3,2-2.6,2.4-3.5c-0.5,0.4-3.2,4-3.7,4.8c-2.1,3-2.5,4.6-3,5.5l0.2-1c-0.6,0.4-2.1,3.5-1.6,4.6
		c0.7,1.8,4.1-0.8,4.3-0.9c0.1-0.2,0-0.1,0.2-0.2c-1.2,0-4.9,2.9-2.8-1.3c1.1-2.2,1.6-0.8,3.4-2.8c0.5-0.6,0.9-1.2,1.4-1.6
		c-0.3,1-1.4,3.1-1.4,4.3c0.1-0.6,0.4-1.4,0.8-1.8c0.7-0.1,1,0.3,1.6,0.3c0.6-0.1,1-0.5,1.3-0.7c-0.1,0.6-0.3,1.2-0.5,1.7
		c-0.3,1.2-0.1,1.1,0.6,1.6c0.1,0,0.2,0,0.3,0.1c0,0,0.1,0,0.2,0.1c0.2,0.1,0.1,0.1,0.2,0.1c0.7-0.2,0.9,0.2,1.7-0.2
		c0.4-0.2,0.9-0.4,1.3-0.7c2.1-0.8,2.4,0.3,5.7-2.1c0.6-0.4,1.7-1.4,2.1-1.8c-1.6,2.6-3.4,3.5-5.5,5c2.4-0.5,5.1-3,6.7-4.9
		c0.3-0.4,0.6-0.7,0.9-1.1c0.2-0.3,0.7-0.9,0.9-1.1c-0.1,0.4-0.4,0.8-0.4,1.1c0.3-0.2,1.7-1.1,2.1-1.2c1.7-0.9,3.5-1.8,5.3-2.5
		c1.7-0.7,2.4-1,3.6-2.2c0.3-0.3,0.6-0.7,1-1.1c-0.3,1.1-3.3,4.2-4.3,5c-0.4,0.3-1.4,1.1-1.6,1.5c1.6-0.5,6.5-5.3,8.1-7.2
		c0.2-0.2,0.3-0.4,0.6-0.6c-0.3,0.7-0.8,1.2-1.1,1.7c0.2-0.2,0.7-0.7,1-1c0.6-0.7,0.2-0.6,1.3-0.5c1.2,0.1,2.5-0.1,3.6-0.4
		c0.4-0.4,0.6-0.3,0.8-1c0.4-1.3-0.4-3-1.5-3.9c1.2,0.2,2.1,0.6,2.5,1.5c0.7,1.3,0.2,3,0.3,3.4l0.1-0.4c0.2-1.2,0.4-2.9-0.2-4
		l-0.3-0.4c-0.5-0.7-1.9-1.2-3-1.6c-1.3-0.4-2.2-0.6-3.7-0.7c-2.9-0.1-4,1.6-5.8,3.3l-4.4,4.5c-0.5,0.5-1,1-1.5,1.5
		c-0.2,0.2-1.2,1.3-1.6,1.5c0.3-0.6,1.9-2.2,2.2-2.7c-1,0.6-2.1,1.4-3,2.3c-0.2,0.2-0.2,0.2-0.4,0.5
		C134.4,48.4,134.4,48.5,134.1,48.6L134.1,48.6z M166.5,82.7c-1.4-0.3-6.3-1.3-7.3-1.2c-0.7,0-1.2,0.2-1.6,0.6
		c-0.6,0.7,0.1,0.9-1,1.2c-0.7,0.2-2.3,1.3-2.6,1.7c-0.7,0.3-1.1,1.2-1.5,1.8l-3,3.5c-0.7,0.8-1.2,1.2-2,1.3
		c-1.1,2.1-2.7,4.4-4.2,6.3c-0.2,0.2-1.5,1.7-1.6,2c-0.7,0.6-1.6,1.9-2.7,2c-0.7,1.5-3,5.5-3.4,6.7c0.3-0.2,0.9-1.1,1.2-1.5
		c1.6-1.9,2.4-2.6,4-4.3l1.4-1.2c2.3-1.7,1.9-1.6,4.9-3.4c2.2-1.3,4.6-2.7,6.9-4c2.4-1.2,4.6-2.6,7-3.9c3-1.6,10.8-5.9,13.7-8
		c2.3-1.6,4.1-2.6,6.3-4.5l2.1-1.9c0.5-0.4,3.2-3.2,3.4-3.6l-5.4,4.4c-3.2,2.7-8.1,5.9-12,8c-1.5,0.8-5.2,2.9-6.5,3.4
		c-0.2-0.1,0.2-0.2,0.7-0.5l2.8-1.8c0.6-0.4,1.2-0.8,1.8-1.2c0.3-0.2,0.6-0.4,0.9-0.6c0.2-0.1,0.2-0.2,0.4-0.3l0.4-0.4
		C168.9,83.2,167.3,82.7,166.5,82.7L166.5,82.7z M192.7,107.3c0.9,0.4,2,1.6,2.5,2.6c0.6,1.2,0.7,2.7,0.5,4.3
		c-0.7,5-4.4,8.9-8.3,11.6c-0.9,0.7-5.3,3.5-6.3,3.6c-0.2,0.3-0.9,0.5-1.3,0.7c-0.2,0.2-0.3,0.2-0.6,0.2c-0.1,0.1-0.1,0.1-0.2,0.2
		c-0.1,0.1-0.1,0.1-0.2,0.1c-0.2,0.1-0.2,0.1-0.5,0.2c-0.2,0.2-0.4,0.2-0.6,0.2c0,0-0.1,0-0.1,0.1l-1,0.4c-0.4,0.3-6.3,2.2-7.2,2.5
		c-3,0.6-6,0.6-9,0.2c-5.7-0.9-9.9-3-14-5.6l-0.2-0.2c-0.1-0.1-0.2-0.2-0.3-0.2c-0.2-0.2-0.4-0.2-0.7-0.4c0.5,0.9,2.6,3,3.3,3.7
		c1.5,1.3,1.9,1.8,3.7,3.2c1.2,0.9,2.8,2,4.2,2.7c1,0.5,4,1.6,5.5,1.5c-0.2-0.2-3-1.1-4.2-1.6l-1-0.6c-0.2-0.2-0.2-0.2-0.3-0.2
		c0.5,0.1,2.5,0.7,4.5,1c1.8,0.2,3.5,0.2,5.3,0.2c4.1,0,6-0.7,9.5-1.7c6.2-2.1,14-5.3,18.4-9.7c1.3-1.3,2.5-3.2,3.4-4.9
		c0.3-0.7,0.5-1.3,1.2-1.6c1.3-0.6,2.6,3.1,1.2,5.8c-0.3,0.6-0.7,1.2-1.1,1.7c-0.8,1.1-1.7,2.1-2.6,3c-1.2,1.3-3,2.8-4.4,4
		c-0.5,0.3-1.2,0.9-1.6,1.3c0.6-0.2,1.8-1.2,2.4-1.6c2.6-1.8,6.4-5,7.9-7.9c0.9-1.8,1.5-4.2,1.5-6.3c0-1,0-2.2-0.2-3.2
		c-0.1-0.3,0-0.2-0.2-0.4c0.1-1.2-1.5-4.1-2.6-5.3c-0.3-0.3-1.1-1.1-1.5-1.2c0.5,2.3,1,5-0.2,7.5c0.1-2.2,0.7-4.7-0.6-7.2
		c-0.7-1.4-1-1.6-2-2.1c-0.7-0.3-2.3-1-3-1.1l0.9,0.6C192.7,107.4,192.7,107.2,192.7,107.3L192.7,107.3z M132.4,47l1.1-2.1
		c0.8-1.4,1.7-2.6,2.7-3.9l1.2-1.3c0.1-0.1,0.2-0.2,0.2-0.2l0.1-0.1c0.2-0.1,0-0.1,0.2-0.1c0.2-0.4,0.7-0.7,1-1
		c0.2-0.3,0.7-0.7,1.2-0.9c0.1-0.2,0.2-0.2,0.4-0.3c0.5-0.2,1.5-0.9,1.9-0.4c0.5,0.7-0.2,2.3-0.2,3.1c0,0,0.8-2.6,1.2-2.9
		c0.7-0.8,1.2,0,0.7-2.1c0.9,0.4,1.6,1.4,1.9,2.6c0.2-0.1,0.6-0.2,0.9-0.2c0.2,0,0.3-0.1,0.5-0.1c0.5-0.1,0.3,0.1,0.4-0.2
		c-0.1-0.2-0.9-2.6-0.9-2.6c-0.2-0.2-0.3-0.5-0.5-0.8c-0.2-0.3-0.3-0.5-0.4-0.8c-0.2-0.1-0.4-0.4-0.6-0.6c-0.8-0.8-1.6-1-2.8-0.7
		c-2.9,0.8-5.9,2.6-8.1,4.5c-0.2,0.2-0.5,0.5-0.7,0.6c-0.2,0.2-0.3,0.1-0.7,0.4c-0.2,0.2-0.4,0.4-0.7,0.6l-1.3,1.2
		c-1.2,1-2.1,2.1-3,3.4c-0.8,1.2-3.4,4.9-3.5,6.7c0.2-0.5,0.9-1.8,1.2-2.1c0.5-0.7,1.2-0.9,2.3-1.1c2.1-0.2,2.6,0,4.4-2.4
		c0.2-0.3,0.5-0.6,0.8-0.9l0.8-0.9c1-1.2,4.4-4,5.8-4.4c-0.7,0.7-2.1,1.6-3.4,3c-0.3,0.4-0.7,0.7-1,1.2
		C134.4,42.2,132.7,45.3,132.4,47L132.4,47z M123.5,107.1c-0.9-0.7-3-0.6-4.3-0.4c-0.7,0.1-0.6,0.3-0.8,0.8
		c-0.7,1.5-1.6,3.1-2.3,4.6c-1.2,3-2.2,8-2,11.8c0.7-0.5,0.4-3,1.5-4.5c0.3-0.5,0.6-0.6,1.2-0.8c1.2-0.4,1.6-0.9,2.1-1.9
		c1-1.6,0.7-2,1.2-2.8c-0.1,1.6-0.4,3-0.2,4.6c0.1-0.1,0.7-3.6,0.7-3.9c0.5-0.2,0.4-0.3,1.2-0.3c0.5,0,0.8,0.1,1.3,0.1
		c1.1,0,1.7,0,2.1-0.7c0.7-1.2,0.5-3.5,0.4-5.1C125.2,108.1,124.3,107.4,123.5,107.1L123.5,107.1z M123.1,100.2
		c-0.2,0.4-0.6,0.8-0.8,1.2l-0.7,1l-0.1,0.1c0,0,0,0-0.1,0.1c-0.1,0.2-0.7,0.9-0.8,1.2c-0.2,0.3-0.7,0.9-0.8,1.4
		c0.7,0,1.2-0.1,1.8-0.1c0.7,0,1.1,0.2,1.7,0.3l4.8-5.4c-0.2,0.5-0.5,0.9-0.8,1.4c-0.4,0.7-2.4,4-2.5,4.3c-0.2,0.2-0.2,0.2-0.3,0.4
		c0.4,0.3,0.2,0.2,1.1-0.8c0.3-0.4,0.7-1,1.1-1.2c0.7,0.2,1.3,0.7,2.1,0.7c0.7,0.1,0.7-0.2,1.3-0.1c0.6,0.2,0.3,0.3,1.2,0.3
		c0.7-0.8,1.6-2.8,1.6-4.4c0-0.9-1-2.3-1.5-3c-0.1-0.2-0.2-0.3-0.3-0.5c-0.1-0.1-0.1-0.1-0.2-0.2l-0.1-0.1c-0.1-0.1-0.1-0.1-0.2-0.2
		c-0.3-0.5-0.2,0-0.7-1.1c-0.3-0.7-0.7-0.8-2-0.7c-0.6,0.1-0.7,0.5-1.5,1.4l-3,3.9C123.1,100.2,123.3,100.1,123.1,100.2z
		 M127.2,79.3c0.1,1.7,2.6,3.7-0.6,12.8l-1.4,3.7l1.1-1.2c0.2-0.3,0.6-1.2,0.8-1.6c1.5-2.5,2.2-2.3,3.2-4c0.9-1.5,2.1-3.4,2.1-5.1
		l-3.2,0.2l3-1c-0.3-1-1.5-1-1.9-2.6c-0.2-2.6-0.2-3.5-1.4-6c-0.9,0.1-1.4,0.2-2.2,0.4l1.8-1.2c-0.1-0.4-0.3-0.7-0.5-1.1
		c-0.4,0.2-0.3,0.4-0.7,0.5c-0.2,0.2-0.1,0.2-0.3,0.4c-0.1,0.1-0.2,0.2-0.3,0.2c-0.4,0.3-1.5,1.3-1.7,1.6c0.3,0.6,0.7,1,0.9,1.6
		c0.2,0.2,0.7,1.2,0.8,1.6C127.2,79.3,127.1,79.2,127.2,79.3L127.2,79.3z M121,125.2c-1.1,0.1-1.9,0.7-2.7,1.2
		c-1.5,0.8-2.1-0.2-2.6-0.6c-0.4,0.2-0.5,0.2-0.3,0.8c0.8,3.3,2.1,8.6,3.1,11.5c0.5,1.2,1.1,1.6,2.6,1.4c1.2-0.2,0.9-0.2,0.9-0.4
		h-0.1l-0.2-0.1c0,0-0.2,0-0.2,0c-0.2,0-0.4,0-0.6,0.1c-0.3,0-0.8,0-1.2,0c-0.6-0.1-0.7-0.8-0.9-1.5c-0.2-0.8-0.9-3-1-3.8
		c0.7,0.3,1.1,0.4,1.9-0.1c0.5-0.3,1-0.7,1-1.6l1.3,2.8l-0.2-2c-0.1-1.5,2.3-1.5,2.8-1.6c1.2-0.2,1.6-1.5,1.6-2.7
		c0.1-1.7-0.5-2.1-1.7-2.6C123.5,125.7,122.1,125.2,121,125.2L121,125.2z M159.1,77.7c-0.2,0.2-1.4,2.1-1.5,2.3
		c1.5,0.5,7.8,1.7,9.4,1.5c0.2,0.2,2.1,0.3,2.7,0.5c1.6,0.4,1.1,0.7,2.3-0.2c1.6-1.2,4.1-3.3,4.4-5.4c0.3-2.3-1.8-2.3-0.2-5
		c0.2-0.5,1.2-1.6,1.2-2.1c-2.2-0.1-4.3,0-6.3,0.2c-1.2,0.2-4.8,0.6-5.6,1.1c-0.4,0.2-0.5,0.5-0.9,0.7c-0.4,0.2-0.8,0.2-1.2,0.4
		c-2.1,0.8-1.6,1-3,3.7L159.1,77.7L159.1,77.7z M147.2,71.5l-0.3,3.5c0.7,0.1,0.8-0.1,1.2-0.5c0.5-0.6,1.9-1.9,2.2-2.6
		c-0.1,0.4-0.6,1.3-0.7,1.7l-0.9,1.7c0.4,0.2,1.2,0.6,1.6,0.8c3.4,1.7,3.3,2.3,4.4,3c-0.2-0.7-1.4-1.8-2.1-2.3
		c-0.3-0.2-0.6-0.3-0.8-0.6c1.2,0,2.5,0.7,3.5,0.6c1.1,0.7,2.7-1.7,3.1-2.5l0.8-1.2c-0.2,0.9-2.4,4.7-3.1,5.7
		c-0.2,0.2-0.5,0.5-0.5,0.8c1,0.1,1.5-1.2,2-1.8c1-1.6,3.7-6.3,4-7.7l-4.6-1.6c-0.5-0.2-2.2,0-3,0c-1,0-1.6,0.7-1.9,0.8
		c-0.2,0.1-0.1,0.2-0.2,0l0.2-0.9l-0.9,1.8v-0.4l-2.6,0.2c0.3-0.6,0.7-1.2,1-1.6c-0.5-0.1-0.6,0.2-0.7,0.5
		C147.6,70,147.3,70.1,147.2,71.5L147.2,71.5z M163.7,69.2c1.2,0.7,6.2-0.1,7.5-0.4c1.2-0.2,2.3-0.6,3.5-0.7
		c1.2-0.2,2.6-0.2,3.8-0.5c0.2-0.9,0.5-1.6-0.1-2.5c-1.2-2-5.7-1.6-7.8-1.5c-2.6,0.2-4.3,1.9-5.8,3.5c-0.2,0.2-0.6,0.6-0.7,0.8
		C163.9,68.3,163.8,69,163.7,69.2L163.7,69.2z M134.1,93.1c0.3,0.1,0.5,0.3,0.8,0.6c0.2,0.2,0.6,0.4,0.8,0.6
		c0.7,0.4,1.3,0.7,2.1,0.2c0.9-0.6,0.6-0.8,2-0.9c1.2-0.1,2.7-1.6,3.3-2.5c0.7-1-0.2-1.2-0.6-1.8c-0.5-0.6-0.3-1.4-0.7-2.1
		c-0.2-0.4-1.5-0.9-2-1.1l-1.5-0.5l-0.5-0.1c-1.4-0.5-1.7-0.2-2.2,0.3l-1.3,1.2c-0.1,0-0.2,0.2-0.2,0.2c-0.2,0.2-0.1,0.1-0.2,0.2
		c-0.1,0.2-0.1,0.2-0.2,0.2c-0.2,0.2-0.1,0.1-0.2,0.2l-1.5,1.2c-0.2,0.3-0.7,0.7-0.9,1c-0.2,0.2-0.7,0.8-1,1
		c-0.1,0.4-0.1,0.1-0.5,0.7c-0.3,0.4-1.4,1.6-1.6,2c0.2,0,2.9,0,2.9,0l5.2-4.1c0.3-0.2,0-0.1,0.3-0.2c-0.3,0.7-3.3,4.3-3.6,5
		L134.1,93.1L134.1,93.1z M143,83.5c0.8,0,2.1,1.2,3.5,0.5c0.5-0.2,0.9-0.7,1.2-1c0.6-0.4,1.1-0.3,1.7-0.6c0.8-0.3,2.4-1.3,2.1-2.4
		c-0.3-0.9-1.8-1.8-2.2-2.3l2.7,1.2c-1-0.6-0.9-0.8-2.5-1.5c-0.7-0.3-2.2-0.9-3.1-1c-0.4,1.3-2.5,2.5-4,2.6c-1.9,0.1-0.7-1-3.7,2.7
		c-0.5,0.6-1.6,1.8-1.9,2.6l2.6,0.2l0.7,0.1c0.1-0.2,3.2-3,3.6-3.3c-0.2,0.6-0.8,1.2-1.2,1.8c-0.3,0.5-0.9,1.3-1.1,1.7
		C141.7,84.6,142.6,83.8,143,83.5L143,83.5z M127.2,138.7h-0.8c-0.7,0-2.2-0.2-2.6,0c0.2,0.5,0.2,0.5,1.5,0.7
		c0.6,0.1,1.4,0.1,2.1,0.1c1.4,0,2.9-0.1,4.3-0.1c2.1,0,6.2,0.1,7.8-0.7c0.1-1.2-2.4-4.8-3-5.7c-0.4-0.6-3-4.7-3.5-5.2l2.6,4.8
		c0.5,0.8,2.4,4.2,2.2,5.2C136.5,138.7,129.4,138.7,127.2,138.7L127.2,138.7z M110.3,65.3c0.4,0.2,2.1,1.2,2.9,1.6
		c3.5,1.8,5.3,2.7,8.4,5c0.7-0.4,2.7-2.3,3.3-2.5c0-0.1,0-0.2,0-0.2c-0.7-0.4-1.4-0.8-2.5-0.6c-1,0.2-1.3,0.7-1.3,1.8
		c-0.7-0.2-8.1-4-8.3-4.3c-0.2-0.1-0.5-0.2-0.7-0.3l-0.6-0.4c-0.4,0-1.1-0.4-1.5-0.6c0.1,0.1,0.1,0.1,0.2,0.2
		C110.3,65.3,110.2,65.2,110.3,65.3L110.3,65.3z M143.3,86.2c0.4,0.4,1.2,0.9,1.6,1.3c3.4,3,2.4,4,7.3-2.9c0.4-0.7,2.2-3,2.4-3.6
		l-0.6-0.4c-0.3,0.4-0.8,1.2-1.1,1.6l-3.3,4.8c-1.2,1.7-1.6,2.3-3.1,1.4C145.3,87.7,144.8,86.8,143.3,86.2z M165,58.3
		c0,0.6,0,0.7-0.4,0.9c-0.5,0.3-3.2-0.9-3.9-1.2c-1.4-0.5-3-0.7-4.5-0.8c-0.3-0.5-0.5-1.8-0.8-2.5c-0.1,0.2-0.1,0.5-0.1,0.7l0.4,2
		c0.5,0.6,2,0.4,2.8,0.6c1,0.2,1.7,0.6,2.6,0.9l2,0.9c0.7,0.2,1.2,0.7,2.1,0.6c0.5-0.7,0.3-1.4,0.3-2.3l-0.1-0.9l-0.4-4
		C164.8,55,165,56.6,165,58.3L165,58.3z M108.5,80l-0.9,0.2l-0.1-0.3l0.1-1.8c-0.1,0.1-0.1,0-0.1,0.2l-0.4,1.6
		c-0.3,1.4-1.2,5.2-1.2,6.1c0.7,0.1,1.6-0.9,1.7-1.1c0.2-0.2,1.4-6.6,1.4-7.2L108.5,80L108.5,80z M121.1,60.2l-0.8-0.1
		c-1-0.1-1.9-0.6-2.8-0.8c-0.3-0.1-0.7-0.2-0.8-0.1c0.3,0.2,0.6,0.7,2.3,1.2c0.9,0.2,2.3,0.3,3.1-0.1L121.1,60.2L121.1,60.2z
		 M110,66.9l5.3,3c0.9,0.5,1.7,1,2.6,1.5l2.6,1.6l0.3-0.3c-1-1.2-6.3-3.9-8.1-4.9l-2.7-1.6c-1-0.2-4.2-3.2-5-4.3
		c-1.1-1.4-3-4.9-2.8-6.5l-0.2-1.1c-0.7-4.2,1.3-10,4.5-12.7c1.7-1.4,3.1-2.3,5.9-2.8c1.9-0.3,3.9-0.4,5.8,0.2
		c0.7,0.2,1.1,0.6,1.6,0.7c0.1-0.2,0.2-0.2,0.2-0.5c-1.3-1.2-5.3-1.2-6.7-1.3c0.7-0.4,3.3-0.4,4.3-0.4c0.8,0,1.2-0.2,1.9-0.3
		c0.6-0.1,1.2,0.4,1.7,0.5c0.2-0.3,0.3-0.4,0.5-0.7c-0.2-0.3-0.9-0.5-1.3-0.7C117,35,112,35.3,109,37c-1.3,0.7-2.4,1.6-3.5,2.6
		c-0.3,0.3-0.6,0.7-1,1.1c-1.1,1.2-2.4,3.2-3,5c-1.7,4.4-1.6,9.1,0.5,13.1c1,2,2.1,3.4,3.4,4.6c0.7,0.7,1.3,1.2,2.1,1.8L110,66.9
		L110,66.9z M144.2,70.8c-0.3,1.8-1.1,4.4-2.9,4.5c0-0.2-0.1,0.2,0.1-0.1c0.1-0.2,0.2,0.1,0-0.2c-1.3,0.1-3.2-0.4-4.8-0.3
		c-2.6,0-2.1,1.2-3.1,2c-0.1,0.4-0.6,1-1.5,0.9c0.1,1.5,1.6,1.9,2.6,1.1c0.2-0.2,0.2-0.3,0.5-0.6c0.5-0.5,1.5-0.9,2.1-1.2
		c-0.6-0.4-1.6,0-2.3,0.1c0.8-1,2.4-1,3.7-0.5c1.7,0.7,3.4,2.1,5.4,0.6c0.3-0.2,0.4-0.2,0.7-0.7c0.7-0.9,1-3.8,1.2-5
		c0.5-3,0.9-5.5,1.7-8.2c0.8-2.6,1.6-5.1,2.4-7.5v2c0.6-0.5,2.3-5,2.7-6.1c0.2-0.7,0.4-0.8,0.4-1.7c0-1.2-0.2-2.9-1.9-2.5
		c-0.5,0.2-1.2,0.4-1.6,0.7c2.3,0,2.1,2.1,1.7,3.7l-0.4,1.3c-0.1,0.2-0.1,0.1-0.2,0.2c0-0.9,0.3-3-0.3-3.5c-0.6-0.4-2.6,0.3-3,0.7
		c2,0.7,2.4,0.7,1.2,4.4c-0.6,1.7-1.1,3.6-1.6,5.4l-2.2,8.1C144.7,68.9,144.4,70,144.2,70.8L144.2,70.8z M118.3,42.8l0.5-1.2
		l-3.2,5.2c-0.5,1-0.6,1-0.2,2.1c0.2-0.6-0.5-1.5,1.1-1.7c0.3-0.1,0.4,0,0.6,0.2c0.7,0.6-0.6-0.2,0.2,0.2c0.3-0.2,1.7-2.4,2.1-2.9
		l2-2.8l-0.9,2c0.1-0.1,0.2-0.2,0.2-0.3c2.4-3.5,2.4-4.8,6.3-7.7c0.4-0.3,1-0.6,1.3-0.9c-1.5-0.2-2.7-0.2-3.8,0.6
		c-0.4,0.2-0.9,0.7-1.2,1c-0.4,0.4-0.7,0.7-1.1,1.2C121.5,38.2,118.6,42,118.3,42.8L118.3,42.8z M136.7,67.1l-0.2,1
		c0.3,0.4,3.1,3.3,3.9,1.9c0.2-0.4-0.1-0.4,0.4-0.7c0.3-0.2,0.2-0.1,0.5-0.3l0.2-0.2c0-0.2,0.2-0.6,0.2-0.9c0.2-0.8-0.2-0.7,0.7-3.1
		c0.2-0.6,0.4-1.2,0.7-1.9c0.1-0.3,0.2-0.7,0.3-0.9c0.1-0.2,0.2-0.3,0.2-0.5c0.2-1-0.8-1-1.8,0.9c-0.4,0.8-0.8,1.5-1.2,2.2l-2.3,4.5
		l1.7-5.3c-0.7,0.4-1.2,1-1.6,1.6c-0.6,0.7-0.7,0.5-1,0.6C136.9,66.2,136.9,66.7,136.7,67.1L136.7,67.1z M130.8,71.4
		c-0.1-0.1,0,0-0.2-0.1l-0.1-0.1l-0.2-0.1c0.2,0.9,0.7,2,1.2,2.7c0.1,0.2,0.2,0.2,0.2,0.3l0.3,0.3c0.4,0.2,0.5,0.3,1,0.4
		c-0.4-0.4-1.5-1-1.8-2.1c0.5,0.2,1.2,1.3,2,1.2l0.2-0.4l0.7-0.1v-1.1c0.2,0.2,0.3,0.4,0.4,0.7c0.1,0.3,0.1,0.6,0.1,0.9
		c2-0.5,2.5-0.1,4.4,0.1c-0.6-0.7-1.7-1.3-2.6-3.1c-0.2-0.5-0.3-1.1-0.5-1.4l-0.6,2c0-0.8,0.2-1.8,0.2-2.7c0-1,0-2-0.1-3l-0.1-0.2
		c-0.1,0.2,0,0.1-0.2,0.2l-0.1,0.1c-0.7,0.7,0.5,5.1-0.7,5.5c-0.7,0.2-0.6,0-0.9,0.7c-0.2,0.4-0.3,0.7-0.9,0.5
		C132.2,72.6,131,71.9,130.8,71.4L130.8,71.4z M133.2,47.6c-0.1,0.6-0.6,1-0.7,1.5l0.9-0.7l0.2-0.1c0.2-0.1-0.1,0,0.2-0.1
		c0.2-0.3,0.5-0.4,0.8-0.7c0.3-0.2,0.5-0.4,0.8-0.7c1.8-1.3,3.7-4.9,3.2-5.9c-0.2-0.3-0.7-0.4-1.1-0.2c-0.4,0.2-1.8,2.1-2.1,2.7
		C135.2,44.1,133.5,47.3,133.2,47.6L133.2,47.6z M124.9,142.3c0.2,0.1,0.2,0.2,0.4,0.4c0.2,0.2,0.3,0.2,0.5,0.4c1,1,1.6,1.5,2.8,2.4
		c-0.3-0.4-2.1-2.3-1.7-3.3c2.5-0.2,5.7,0.2,8.1,0.2c4.1,0.2,3.6-0.2,6.5,1.8c1.7,1.2,3.3,2.6,5.4,2.9c2.2,0.4,5.3,0.7,7.7,0.7
		l-0.5-0.2c-2.1-0.4-4.9-1.2-6.9-1.9c-3.1-1.1-3.2-1.2-6-3.4c-0.5-0.3-0.9-0.7-1.4-1c-0.6-0.5-1-0.2-1.8-0.1
		c-4.1,0.2-9.2-0.7-13.5-0.5C124.4,141.5,124.8,142,124.9,142.3L124.9,142.3z M146.2,130.5c-0.2-0.2-1.5-1.6-1.7-1.9
		c-4.4-5.6-3.4-11.2-0.9-17.5c0.8-2.1,1.5-3.5,2.6-5.5c0.2-0.4,0.9-1.3,1.1-1.7c-0.5,0.4-1.9,2.1-2.3,2.7c-2.1,3-4.1,6.4-4.7,10.3
		c-0.7,4.8,0.7,8,3.3,11.3C144,128.7,145.6,130.3,146.2,130.5L146.2,130.5z M142.5,52.7c0.1,0.2,0.7,0.8,1.2,1.5
		c0.3,0.6,0.7,1,1,1.6c0.7,1.1,1.2,2.3,1.7,3.5c0.3-0.5,2.1-6.3,2.1-7.2c0.1-0.7-0.6-1-1.2-1.2c-0.8-0.2-1.1-0.3-1.7,0
		c-0.5,0.2-1,0.5-1.5,0.8C143.5,52.2,143,52.5,142.5,52.7L142.5,52.7z M162.9,57.2c0.1-0.2,0.3-0.6,0.5-0.7c0.1-0.5,0.4-0.9,0.5-1.5
		c0.2-0.7,0.1-1.2,0-1.8c-5.1-0.1-3.9,1.2-4.3,2.6c-0.2,0.7-0.7,0.7-1.2,1.1c0.7,0.2,1.5,0.3,2.2,0.5
		C162.5,57.6,161.8,57.4,162.9,57.2L162.9,57.2z M162.6,49.4c-3.5-1-2.8,1.1-4.9,2.2c-0.9,0.6-2.8,1.4-3.9,2
		c-0.5,0.2-0.9,0.3-1.1,0.8c0.8-0.3,1.6-0.8,2.5-1.2c0.9-0.4,1.7-0.7,2.6-1.1c3.6-1.4,3.9-0.7,6.4-0.9l-2.4-4L162.6,49.4L162.6,49.4
		z M120.1,121.8c2.2,0.2,4.5,1,6.4,1.7c1.1,0.4,5.1,2,6.2,1.8c1.1-0.4,0.1-8.1-0.1-8.6c-0.1,1.6,0.3,5.5,0.1,6.7
		c-0.1,0.5-0.4,0.5-0.9,0.4c-0.8-0.1-1.6-0.2-2.4-0.5C127.7,123.1,121.3,121.1,120.1,121.8L120.1,121.8z M132.8,94.5
		c0.2,0.2,1.2,1.3,1.6,1.6c1.2,1.1,2.2,2.2,3.7,3c1.2,0.6,1.5,0.3,2.3-0.4c1.1-1,2-2.4,3-3.7c0.5-0.7,2.2-3.5,2.6-4.3l-0.1,0.1
		c0,0,0,0-0.1,0.1l-4.5,5.9c-1.7,1.8-1.8,2.5-4.9,0.3C135.5,96.6,133.2,94.5,132.8,94.5L132.8,94.5z M131.6,110.4
		c0.6,0,0.8-0.1,1.3-0.2c0.1-0.2,4.4-7.5,4.6-8.3l-4.5,6.8c-1.4,2-2.1,0.4-5.4-1.2c-0.4-0.2-1.6-0.8-2-0.8c0.9,0.5,2.2,1.5,2.9,2.1
		C129.1,109.4,130.1,110,131.6,110.4L131.6,110.4z M128.8,59.3h-0.9c0.8,0.6,2.7,0.3,3.7,0.2c2.4-0.5,3.9-1.6,5.4-3.3
		c0.5-0.6,1.6-1.7,2-2.5l-4.3,3.6C133.1,58.5,131.5,59.3,128.8,59.3z M149.6,67c0.5,0.1,1.9-0.4,2.5-0.6c1.1-0.3,1.5-0.3,1.9-1.3
		c-2.2,1.1-1.7,0.5-3.6,1.1c0-0.4,0.8-3.4,1-4.3c0.1-0.2,0.1-0.5,0.2-0.7c0-0.1,0.1-0.3,0.1-0.3l-0.1-0.3
		C151.1,61.3,149.5,66,149.6,67z M131.3,61c0.6,0.6,1.4,1.2,1.7,1.9c0.3-0.1,1.6-1.2,2-1.6c-0.2-0.4-1.1-1.1-1.6-1.1
		C133.1,60.2,131.4,60.9,131.3,61z M121.2,43.2l0.7-0.9c1.8-2.6,3-3.8,5.5-5.7c4.4-3.2,7.9-2.6,8.3-2.7l0.9-0.8c-4-0.1-7,1.2-9.6,3
		c-1.6,1.2-3.7,3-4.6,4.8C122.1,41.6,121.4,42.7,121.2,43.2L121.2,43.2z M128.9,67.9c-0.8-1.9-2.2-3.5-1-4.8
		c0.7-0.8,0.8-0.7,0.3-1.4c0.2,1.2-0.7,1.4-1.2,2c-0.4,0.6,0.4,2,0.7,2.5c-1-1-2.1-3.5-2.6-4.4c0.2,0.8,0.8,1.9,1.2,2.6l-1.2-1.8
		c-0.2-0.3-0.4-0.6-0.8-0.7c-0.4-0.1-0.3,0-0.6-0.2c-0.3-0.3,0-0.2-0.4-0.4C123.5,62.8,126.8,67.4,128.9,67.9L128.9,67.9z
		 M125.3,77.2c-0.1-0.1-0.1-0.1-0.2-0.2c-0.4-0.5-0.2-0.7-0.7-0.9c0,0.2-0.2,0.2-0.3,0.4c3.5,4.4,3.3,10.2,1.6,15.6
		c-0.2,0.6-0.6,1.6-0.7,2.1c2.2-5.6,3.7-9.4,1.2-15.2C126.1,78.6,125.4,77.4,125.3,77.2L125.3,77.2z M115.4,63.3
		c0.2,0.2,0.3,0.4,0.5,0.7c0.2,0.2,0.4,0.5,0.5,0.8l1.6,1.2c0.6,0.4,1.2,0.7,1.7,1c-0.2-1.2-2.1-2.5-1.5-4.1
		c0.2-0.4,0.2-0.5,0.2-0.9c0,0-0.1-0.1-0.2-0.1c-0.1,0.3-0.1,0.3-0.4,0.6c-0.2,0.5-0.4,0.3-0.5,1.1c0,0.5,0.2,0.9,0.2,1.3
		c-0.2-0.2-0.8-0.9-0.9-1.4c-0.1-0.1-0.1-0.1-0.2-0.2l-0.2-0.4c-0.2-0.3-0.2-0.3-0.3-0.7c-0.2-0.2-0.3-0.5-0.7-0.7
		c-0.2-0.2-0.2-0.2-0.4-0.2C113.5,60.3,115.3,62.6,115.4,63.3L115.4,63.3z M133.7,71.4c0.6-0.2,0.6-0.7,0.7-1.4
		c0.1-0.7,0.1-1.4,0.1-2.1l-0.1,0.1c0,0,0,0-0.1,0.1c-0.3,0.4-0.2,1-0.3,1.6C133.9,70.2,133.7,70.9,133.7,71.4L133.7,71.4z
		 M132.4,76c0.2,0.1,0.3,0.2,0.7,0.2c0.1-0.2,0.2-0.3,0.2-0.6c-0.6,0-0.6-0.1-0.7-0.1c-0.2,0,0-0.1-0.2,0.1V76L132.4,76z
		 M159.1,44.8c-0.2,0.3-0.2,0.2-0.4,0.4c-0.2,0.2,0.1,0.7-1.1,1.3l2.8-1.2c-0.2-0.5-2.6-2-3.2-2.1L159.1,44.8L159.1,44.8z"/>
</g>
</svg>
