<?xml version="1.0" encoding="utf-8"?>
<!-- Generator: Adobe Illustrator 24.0.2, SVG Export Plug-In . SVG Version: 6.00 Build 0)  -->
<svg version="1.1"
	 id="Слой_1" image-rendering="optimizeQuality" shape-rendering="geometricPrecision" text-rendering="geometricPrecision" xmlns:xodm="http://www.corel.com/coreldraw/odm/2003"
	 xmlns="http://www.w3.org/2000/svg" xmlns:xlink="http://www.w3.org/1999/xlink" x="0px" y="0px" viewBox="0 0 238.1 150.2"
	 style="enable-background:new 0 0 238.1 150.2;" xml:space="preserve">
<style type="text/css">
	.st0{fill-rule:evenodd;clip-rule:evenodd;fill:#373535;}
</style>
<g id="Layer_x0020_1">
	<path class="st0 fillable" d="M208.5,141.8c-0.8-0.5-1-1.7-1.4-2.5c-1-2-0.3-1,0-2.6c-0.8-0.1-1.5,0-2.3,0c-0.3,0-0.8,0-1.1,0l-0.9,0.3
		c-0.3,0.9,0.6,0.6,1.2,1.2c0.4,0.3,0.7,1.1,1,1.7c1.1,2.6,3.1,4.2,1.3,8c-1.2,2.6-2.8,0.8-3,2.3c0.9,0.4,10.2,0.3,11.8,0.1
		c0.5-0.7,1.5-2.5,1.7-3.6c-1.7,0.2-1.1,2.1-3.2,2.7c-0.8,0.2-4.7,0.1-5.8,0.1l0.7-1.8c1,0.7-0.1,1.2,2.4,1.1
		c1.1-2.1,2.8-6.8,4.1-9.6c1.1-2.5,1.8-1,1.9-2.5c-0.9-0.2-2.8-0.3-3.6,0c0,0.8,0.3,0.7,1,0.9c-0.2,2.1-2.9,6.6-3.6,9
		c-0.7-0.4-1.1-1.3-1-2.2l1.6-4.5c0.7-1.1,1.5-0.3,1.7-1.5c-0.8-0.3-3.6-0.3-4.3,0c-0.1,0.8,0,0.5,0.6,1.1L208.5,141.8L208.5,141.8z
		 M169.6,136.4c-1.4,0-1.3-0.1-1.8,0.3c0.3,1.1,0,0.3,1.1,0.9c-0.1,0.9-2.1,5.4-2.7,6.9c-0.3,0.6-0.5,1.7-1,2.1
		c-1.4-2.1-0.6-2.5,0.1-4.6c0.2-0.6,0.5-1.8,0.8-2.3c0.7-1.1,1.4,0,1.6-1.3c-0.9-0.3-3.4-0.3-4.4,0c0,1.3,1,0.4,0,2.8
		c-0.1,0.1-0.1,0.3-0.2,0.4c-0.2,0.3-0.1,0.2-0.2,0.3c-0.5-0.6-0.9-1.8-1.3-2.6c-0.9-2-0.2-0.7,0-2.5c-1.2,0-3.3-0.3-4.3,0.2
		c0,1.5,0.6,0.3,1.4,1.4c0.3,0.4,0.6,1.4,0.8,1.9c1.1,2.6,3,4.2,1.1,7.9c-1.3,2.5-2.9,0.5-2.8,2.2c0.7,0.3,10.6,0.2,11.8,0
		c0.5-0.6,1.6-2.6,1.8-3.6c-1.7,0.4-1.3,2.1-3.2,2.7c-0.9,0.3-4.5,0.1-5.8,0.1c0.1-0.7,0.4-1.3,0.7-1.8c0.9,0.8,0.2,1.3,2.3,1
		l4.1-9.5c1-2.4,1.5-1.1,2-2.5C171,136.2,170.3,136.4,169.6,136.4L169.6,136.4z M167.8,0.4c0.1,0.9,0.2,0.6,1,1c0,0.4-3.2,8.5-3.8,9
		c-1.3-2-0.6-2.5,0.1-4.4c0.2-0.6,0.5-1.8,0.8-2.3c0.6-1.3,1.4-0.2,1.8-1.4c-0.2-0.1-0.1-0.1-0.4-0.2c-0.8-0.2-3.4-0.1-4,0.2
		c0.1,1.1,0.7,0.5,0.4,1.7c-0.2,0.6-0.4,1.4-0.8,1.7c-0.3-0.4-1.1-2.2-1.4-2.9c-0.9-2,1.9-2.2-1.5-2.2c-0.7,0-2-0.2-2.4,0.2
		c-0.6,0.6,0.4,0.7,0.9,1.1c0.5,0.3,0.7,1,1.1,1.7c1.4,2.9,3,4.7,1.4,8c-1.2,2.6-2.6,1.1-3,2.3c0.6,0.5,7.9,0.3,9.9,0.3h2.1
		c0.4-0.6,1.5-2.8,1.5-3.6c-1.6,0.1-0.6,0.9-2.4,2.3c-1,0.8-2.9,0.5-4.3,0.5h-2.2l0.5-1.8c0.6,0.3,0.2,0.2,0.6,0.8
		c0.3,0.3,0.4,0.4,0.9,0.4c1.1,0,1.1-0.5,1.4-1.3l4.1-9.5c0.8-1.1,1.4-0.1,1.4-1.4C170.9,0.3,168.3,0.2,167.8,0.4L167.8,0.4z
		 M157.2,46.4c0.6,0.6,0.9,0.3,1.3,1l1.7,3c0.5,1,1.2,2,1.4,3.3c0.1,1.3-0.6,4.3-2.2,4.8c-0.8,0.2-1.5,0-1.4,0.9
		c0.8,0.2,10.8,0.2,11.7,0c0.6-0.5,1.7-2.7,1.8-3.6c-1.8,0.1-1.2,2.4-3.2,2.7c-1.5,0.2-4.2,0.1-5.8,0.1l0.6-1.8
		c0.9,0.7,0.2,1.3,2.4,1.1l4-9.5c1.3-2.9,2.1-1.2,2-2.5c-0.8-0.4-3-0.4-3.7,0.1c0.2,0.9,0.2,0.4,1.1,0.9c-0.1,1-2.1,5.2-2.7,6.8
		l-0.7,1.7l-0.1,0.2c-0.2,0.3,0,0.1-0.3,0.3c-1.4-1.8-0.5-2.8,0.1-4.5c0.2-0.7,0.5-1.7,0.8-2.3c0.7-1.3,1.5-0.1,1.7-1.4
		c-1-0.4-3.5-0.1-4.4,0.1c0.1,0.4,1.1,1-0.1,3l-0.1,0.1l-0.2,0.2c-0.5-0.6-0.8-1.6-1.2-2.4c-1-2.2-0.1-1,0-2.6h-4.2L157.2,46.4
		L157.2,46.4z M72.6,148.5c2.3,0.5,2-0.5,2.7-2.2l3-7c1.1-2.7,2-1.3,2-2.9l-3.5,0.1c-0.1,1,0.1,0.5,0.9,1.1c0,0.7-3.2,8.3-3.6,8.9
		c-1.6-1.4-0.6-2.9,0-4.5c0.2-0.6,0.5-1.8,0.8-2.3c0.7-1.2,1.4-0.1,1.7-1.5c-0.9-0.1-3.5-0.2-4.4,0c-0.2,0.6,1,1.2-0.4,3.5
		c-0.4-0.3-0.9-1.5-1-1.9c-0.3-0.7-0.6-1.3-0.9-1.9c0.4-0.6,0.7-0.2,0.6-1.1c-0.5-0.2-3.6-0.4-4.3,0c0.1,1.9,0.6-0.8,2.3,3.2
		c1,2.3,3.1,4.3,1.2,7.9c-1.3,2.4-2.8,0.6-2.9,2.4l11.9-0.1c0.4-0.5,1.6-2.8,1.7-3.5c-1.5,0.1-1.4,2.2-3.3,2.7
		c-0.8,0.2-4.7,0.1-5.7,0.1l0.5-1.3c0.2-0.3,0.1-0.2,0.2-0.4L72.6,148.5L72.6,148.5z M214.3,46.8c-0.1,0.9-3.2,8.1-3.7,9.1
		c-1.3-1.3-0.7-2.9-0.1-4.4c0.3-0.7,0.5-1.7,0.8-2.3c0.8-1.5,1.6-0.3,1.7-1.6c-1-0.4-3.8-0.3-4.6,0.4c0.3,0.5-0.1,0,0.6,0.5l0.2,0.2
		c-0.1,0.6-0.2,0.8-0.4,1.3c-0.3,0.7-0.2,0.8-0.6,1.1c-0.6-0.8-1.4-2.9-1.8-3.8c0.3-0.3,0.6-0.4,0.6-1.1c-0.7-0.3-3.5-0.3-4.2,0
		c-0.1,1.6,0.7-0.5,2.2,3.1c0.5,1.2,1.4,2.5,1.7,3.5c0.7,2-0.4,5-1.6,5.7c-1,0.5-1.6-0.2-1.8,0.9c0.6,0.3,11,0.3,11.8,0.1
		c0.3-0.2,0.8-1.3,1-1.6c0.2-0.5,0.7-1.4,0.8-1.8c-1.4-0.4-1.1,1.8-3.1,2.5c-0.9,0.3-4.7,0.1-5.9,0.2l0.6-1.8l0.7,1l1.7,0.1l4-9.6
		c0.2-0.6,0.5-1.1,0.9-1.5c0.7-0.6,1.1-0.1,1.1-1.1c-0.8-0.2-2.8-0.2-3.6,0C213.3,46.5,213.7,46.5,214.3,46.8L214.3,46.8z
		 M117.3,141.7c-0.4-0.3-0.5-0.9-0.7-1.3c-0.2-0.4-0.4-0.8-0.6-1.2c-1-2-0.1-1,0-2.5l-4.4,0.1c0.1,1.4,0.6,0.4,1.4,1.3l2.6,5.4
		c0.5,1.6,0.1,3.1-0.6,4.5c-1.3,2.7-2.7,0.3-2.9,2.3c1.8,0,11.1,0.1,11.7-0.1c0.6-0.2,1.8-2.7,1.8-3.5c-0.8-0.1-0.9,0.2-1.2,0.8
		c-1.3,2.6-3.7,1.9-7.8,1.8l0.7-1.7c0.7,0.5,0.1,1.2,1.6,1.1c1-0.1,1-0.7,1.3-1.5c0.5-1.2,3.7-9,4.2-9.5c0.9-0.9,1.5,0.1,1.2-1.4
		l-3.5,0.1c-0.1,1.2,0.2,0.5,0.9,1.1c-0.1,0.9-3.3,8.4-3.7,8.9c-1.5-1.4-0.5-3.1,0.1-4.6c0.2-0.6,0.5-1.8,0.8-2.3
		c0.7-1,1.4,0,1.6-1.3c-0.8-0.4-3.5-0.2-4.4,0c0,1.4,0.7,0.5,0.3,1.9C117.9,140.7,117.6,141.4,117.3,141.7L117.3,141.7z M114.7,12.4
		c-0.2,0.5-0.3,0.7-1.1,0.9c-0.9,0.2-1-0.1-1.3,0.7c0.6,0.5,10.6,0.3,12,0.2l0.5-0.7c0.3-1,1.1-2,1-2.8c-1.5,0-1.2,2.3-3.1,2.7
		c-0.8,0.1-5.8,0.6-5.7-0.3l0.7-1.1c0.2,0.3,0.9,1.4,2,0.7c0.5-0.4,0.5-0.7,0.8-1.4l3.2-7.6c0.6-1.4,0.7-2,2.2-2.3V0.7
		c-0.9,0-2.6-0.1-3.8,0c0.2,1.1,0.1,0.4,1,1.1c0,0.7-3.2,8.4-3.7,8.9c-1.4-1.2-0.4-3.2,0.1-4.5c0.2-0.7,0.5-1.7,0.8-2.2
		c0.6-1,1-0.3,1.7-1.3l-0.3-0.1c-0.1,0-2.5-0.4-3.7,0c-0.5,0.2-0.1-0.1-0.4,0.2c-0.3,0.4,1.2,1.4-0.4,3.3c-0.4-0.4-1-1.9-1.3-2.5
		c-0.9-2-0.4-0.8,0.1-2.6l-4.3,0.1c0,0.9,0.3,0.7,1,1.1c0.9,0.6,1.4,2.5,2.3,4.1C116.5,8.5,116,11.5,114.7,12.4z M213.3,0.5
		c0.1,0.8,0.3,0.7,1,0.8c-0.2,1.9-3,6.9-3.6,9.1c-1.8-1.4-0.4-3.8-0.1-4.6c0.2-0.6,0.5-1.7,0.8-2.3c0.7-1.2,1.4-0.1,1.7-1.4
		c-0.8-0.1-2.9-0.3-3.7-0.1c-1.5,0.3-0.1,0.7-0.3,1.9c-0.1,0.6-0.4,1.4-0.8,1.7c-0.3-0.5-0.8-1.7-1.2-2.4c-0.8-1.8-0.5-1.1,0-2.6
		h-3.8c-1.2,0.2,0.9-0.3-0.3,0.1l-0.3,0.1c0.4,1.6,0.7-0.5,2.2,2.9c1.4,3,3,4.3,1.3,7.8c-1.4,2.9-2.5,0.8-3,2.3l0.3,0.2
		c0.9,0.3,10.9,0.1,11.7,0c0.4-0.7,1.5-2.9,1.5-3.6c-1.7,0.1-1,2-3.1,2.7c-0.7,0.2-4.7,0.1-5.8,0.1c-0.1-0.5,0-0.4,0.2-0.9l0.2-0.4
		c0.2-0.4,0-0.2,0.4-0.4c0.3,1.1,0.7,1.2,2,1.1c1.4-2.1,4-10,5-11c0.7-0.7,1-0.1,1.2-1.1C216.5,0.3,213.6,0.2,213.3,0.5L213.3,0.5z
		 M80.1,11.4l0.1-0.8c-1.4-0.3-1.2,2.3-3.1,2.6c-1.4,0.2-4.2,0.1-5.8,0.1c0-0.5,0.3-1.3,0.6-1.7c0.9,0.9,0.2,1.1,2.2,1
		c0.5-0.7,3.4-7.8,4.2-9.6c1.2-2.9,1.7-0.9,2-2.6l-3.6,0.1l-0.1,0.6l1.1,0.5c-0.1,0.8-3.3,8.5-3.7,8.9c-1.4-1.2-0.5-3,0-4.5
		c0.2-0.6,0.5-1.8,0.8-2.3c0.7-1.2,1.5-0.1,1.7-1.5l-4.3-0.1c-0.3,1.4,0.6,0.5,0.3,1.9c-0.1,0.3-0.5,1.4-0.7,1.7
		c-0.6-0.4-0.9-1.6-1.2-2.4c-1-2.1-0.4-1,0-2.8c-1,0-3.7-0.3-4.4,0.3c0.1,1.7,0.6-0.9,2.2,2.9c1.1,2.7,3.1,4.3,1.4,7.9
		c-1.1,2.4-2.2,1.1-3.1,2.3c0.7,0.5,5.1,0.3,5.9,0.3c1.8,0,4.5,0.1,6.2-0.1C78.9,13.6,79.8,11.6,80.1,11.4z M31,136.4
		c0.5,1.1,0,0.5,1.2,1.1c-0.1,0.9-3.1,8.1-3.7,9c-0.4-0.2-0.1,0.2-0.5-0.5c-1-1.5-0.1-2.6,0.5-4.1c0.3-0.7,0.4-1.8,0.9-2.4
		c0.7-0.9,1.5-0.1,1.6-1.3c-0.9-0.1-3.5-0.2-4.3,0.1c-0.4,1,0.5,0.4,0.3,1.7c-0.1,0.5-0.4,1.2-0.6,1.8c-0.7-0.4-1-1.6-1.4-2.4
		c-1.1-2.3-0.2-1.2-0.1-2.7c-1.1,0-3.3-0.2-4.2,0.1c0.1,1.1,0.7,0.6,1.4,1.4l2.6,5.3c0.5,1.6,0.1,3-0.6,4.3
		c-1.3,2.5-2.7,0.6-2.9,2.4l11.8-0.1c0.6-0.6,1.6-2.5,1.7-3.7c-1.7,0.4-1,2.1-3.2,2.7c-0.9,0.3-4.5,0.1-5.8,0.1l0.5-1.8
		c1.2,0.6,0,1.3,2.5,1l4.1-9.5c1.3-3.1,1.8-1,2-2.5C34.2,136.2,31.9,136.4,31,136.4L31,136.4z M24,102.7c-1.5,2.4-2.4,0.4-2.8,1.9
		c0.8,0.5,11.4,0.2,12,0.2c0.2-0.8,1.5-2.6,1.5-3.5c-1.6-0.2-1,2.2-3,2.6c-1.1,0.2-4.8,0.2-5.9,0.1c0.1-0.5,0.3-1.3,0.7-1.7
		c0.7,1,0.3,1.2,2.1,1c0.6-0.8,3.4-7.6,4.1-9.4c1.3-3.2,1.8-1,2-2.7c-0.7-0.3-2.9-0.4-3.6,0c0,1.1,0.1,0.3,1,1.1
		c-0.1,1.3-3,7.2-3.6,8.9l-0.1-0.1l-0.1-0.1l-0.4-0.7c-0.7-1.4-0.2-1.7,0.5-3.7c0.2-0.6,0.6-1.8,0.8-2.3c0.6-1.2,1.5-0.2,1.7-1.5
		c-0.9-0.2-3.6-0.2-4.3,0c-0.1,0.4,0,0.4,0.2,0.8c0.3,0.6,0.3,0.2,0.1,1c-0.2,0.6-0.5,1.4-0.8,1.7c-2.3-5.1-1.6-2.9-1.2-5.1
		c-0.8,0-1.5,0-2.2,0l-1.6,0.2c-0.4,0.1-0.2,0.1-0.5,0.2c0.3,1,1.2,0.6,1.9,2.2C24.6,98.1,25.9,98.9,24,102.7L24,102.7z M76.6,45.9
		c0.2,0.8,0.2,0.4,1,0.9c0,0.8-3.1,8.3-3.6,8.9l-0.1-0.1l-0.2-0.3c-1.1-1.7-0.1-2.9,0.3-4c0.3-0.7,0.5-1.7,0.8-2.3
		c0.8-1.4,1.5-0.2,1.7-1.6c-0.8-0.2-3.7-0.3-4.5,0.1c0,0.9,1.2,0.7-0.2,3.4l-1.9-3.8c0.4-0.6,0.8-0.4,0.5-1.1
		c-0.6-0.2-3.5-0.3-4.2,0c-0.1,1.3,0.5,0.3,1.3,1.2c0.2,0.3,0.7,1.3,0.9,1.8c0.3,0.6,0.5,1.2,0.8,1.7c1,2,1.9,3.2,0.5,6.2
		c-1.2,2.5-2.5,0.9-3,2.3c0.6,0.3,11,0.3,11.8,0.1c0.5-0.2,0.6-0.8,1-1.6c0.3-0.6,0.7-1.2,0.8-1.9c-1.8-0.2-0.9,1.9-3.1,2.6
		c-0.8,0.2-4.9,0.2-5.9,0.1c0.1-0.4,0.1-0.4,0.2-0.8l0.5-0.9l0.6,0.8c0.3,0.2,0.6,0.3,1.1,0.3c1-0.1,0.9-0.7,1.3-1.5
		c0.6-1.4,3.4-8.5,4.2-9.3c0.7-0.7,1.2-0.5,1.2-1.4h-3.2C76.5,45.9,76.9,45.7,76.6,45.9z M69.2,96.5c1.1,0.5,1.9,4.6-0.2,6.9
		c-0.8,0.8-1.3,0.5-2.4,0.9c0,0.7-0.1,0.3,0.2,0.6c2.8,0,5.7,0,8.5,0c1.2,0,3,0.4,3.6-0.6c0.3-0.5,1.2-2.5,1.2-3
		c-1.6-0.1-1,1.9-3.2,2.6c-0.6,0.2-4.9,0.1-5.7,0c0-0.5,0.2-1.3,0.6-1.7c0.7,0.7,0.1,1,1.5,1.1c1.2,0,1-0.3,1.4-1.3l4.1-9.5
		c0.8-1,1.2,0,1.4-1.4c-0.8-0.1-2.9-0.2-3.6,0.1c0.1,1,0.3,0.5,1,1.1c-0.1,0.8-3.3,8.4-3.7,8.8c-1.4-1.2-0.6-3,0-4.3
		c0.3-0.7,0.5-1.7,0.8-2.3c0.6-1.3,1.3-0.4,1.8-1.5c-0.5-0.3-2.5-0.3-3.3-0.2c-2.5,0.1,0.3,0.7-1.4,3.7c-0.6-0.4-0.9-1.6-1.2-2.4
		c-1.1-2.2-0.4-1-0.1-2.7h-4.4c0.1,1.4,1.1,0.7,1.8,2.2C68.4,94.5,68.9,95.6,69.2,96.5L69.2,96.5z M112.2,104.3l0.2,0.5l11.8-0.1
		c0.4-0.7,1.6-2.6,1.6-3.5c-1.6,0-1.1,2.2-3.1,2.7c-1.4,0.3-4.3,0.1-5.9,0.1l0.7-1.7c0.2,0.1,0.1,0.1,0.2,0.3
		c0.2,0.3,0.3,0.5,0.6,0.7c1,0.5,1.5,0,1.9-0.9l1.2-2.8l2.8-6.6c0.9-1.3,1.5-0.5,1.6-1.7c-0.7-0.3-3-0.3-3.6,0c0,1,0.2,0.4,1,1
		c0,0.7-3.2,8.4-3.7,8.9c-1.4-1.6-0.5-2.8,0-4.4c0.3-0.7,0.4-1.6,0.8-2.3c0.7-1.2,1.3-0.4,1.7-1.4c-0.2-0.2,0-0.1-0.4-0.2
		s-3.6-0.2-4,0.2c-0.4,0.8,0.5,0.4,0.4,1.6c0,0.4-0.5,1.5-0.7,1.8c-0.5-0.5-0.9-1.7-1.2-2.4c-0.9-2.1-0.5-1,0-2.7h-4.4
		c0,1.7,0.8-0.1,2.1,2.9c0.5,1.2,1.3,2.4,1.8,3.5c0.5,1.3,0.4,3-0.3,4.3C114.3,104.5,114,103.5,112.2,104.3z M160,95.7
		c0.5,0.5,1,1.4,1.3,2.2c0.7,1.7,0.1,4.3-1.1,5.5c-1,1.1-2.2,0.2-2.3,1.3c0.8,0.3,11.3,0.3,11.9,0c0.4-0.3,0.2-0.2,0.5-0.8
		c0.3-0.7,1.1-2.1,1.1-2.7c-1.5,0.1-1.2,2.1-3.1,2.7c-0.7,0.2-4.7,0.1-5.7,0.1c-0.1-0.6,0.2-1.2,0.4-1.7c0.8,0.4,0.2,1,1.4,1.1
		c2.2,0.3,1.3-2.5,2.9-4c0.2-0.7,2.3-6.5,3.2-7.1c0.4-0.3,1.3-0.3,1-0.9c-0.3-0.6-3.1-0.3-3.7-0.2c0.1,0.9,0.3,0.6,1,1
		c0,0.8-2.1,5.5-2.7,6.8c-0.3,0.7-0.7,1.8-1.1,2.2c-1.1-2.4-0.8-2.1,0.1-4.5c0.3-0.7,0.5-1.7,0.8-2.3c0.7-1.3,1.4-0.2,1.7-1.4
		c-0.3-0.2,0.2,0-0.5-0.2l-3.9,0.1c0,0.1-0.4-0.1,0.2,0.9c0.2,0.5,0.4-0.1,0.1,0.8c-0.1,0.6-0.4,1.4-0.8,1.7l-1.7-3.6
		c-0.1-0.8,0.3-0.5,0.4-1.5c-1.1,0-3.3-0.2-4.3,0.2c0,1.2,0.9,0.5,1.6,1.7C159.3,93.9,159.8,94.9,160,95.7L160,95.7z M21.1,14.1h12
		c0.5-0.5,1.7-2.7,1.6-3.6c-1.9,0.3-0.8,2.4-3.3,2.7c-1.5,0.2-4,0.1-5.5,0c-0.1-0.6,0.2-1.4,0.7-1.7c0.5,1.1,0.6,1.2,2.1,1
		c0.5-0.8,3.4-7.6,4.1-9.4c0.9-2.2,0.9-1.1,2-2.2c-0.2-0.6,0.2-0.2-0.3-0.6c-1,0-2.7-0.2-3.4,0.2c0.1,1,0.3,0.3,1,1
		c-0.2,1.4-2.9,7.2-3.6,8.9c-1.8-1.3-0.4-3.7-0.1-4.6c0.2-0.6,0.5-1.7,0.8-2.3c0.6-1.3,1.5-0.1,1.7-1.4c-0.6-0.2-3.8-0.4-4.3,0.1
		c-0.4,0.7,0.5,0.4,0.2,1.7c-0.1,0.6-0.4,1.4-0.8,1.7c-0.3-0.8-0.7-1.6-1.1-2.5c-0.2-0.5-0.5-0.9-0.5-1.3c0-0.6,0.5-0.7,0.3-1.3
		c-0.6-0.2-3.4-0.2-4.1,0c-0.3,2,0.5-0.9,2.2,3.1c1.1,2.7,3.1,4.1,1.3,7.8C22.7,14.8,21.7,12.1,21.1,14.1z M124.8,58.5l1.2-2.7
		c-1.7,0.3-1.4,2.1-3.3,2.7c-0.7,0.2-5,0.2-5.8,0l0.6-1.7c0.4,0.3,0.1,0.1,0.3,0.4c0.3,0.5-0.1,0.1,0.3,0.4c0.3,0.2,0.6,0.3,1.1,0.3
		c0.9-0.1,1-0.7,1.3-1.4c0.5-1.2,1-2.4,1.6-3.7c0.5-1.2,1-2.4,1.5-3.6c0.7-1.6,0.6-2.4,2.3-2.9l0.2-0.8c-1.3,0.1-3.2-0.1-3.8,0.3
		c0.2,1,0.2,0.4,1.1,0.9c-0.1,1-1.3,3.5-1.8,4.5c-0.3,0.7-0.6,1.4-0.9,2.2L120,55c-0.2,0.4,0,0.2-0.4,0.6c-1.5-1.6-0.6-2.8,0.1-4.5
		c0.3-0.7,0.5-1.7,0.8-2.3c0.7-1.1,1.4-0.3,1.7-1.4l-4.4,0.1c0,0.9,0.7,0.2,0.4,1.6c-0.1,0.6-0.4,1.3-0.7,1.7l-1.2-2.4
		c-1.1-2.2-0.2-1,0-2.7c-0.5,0-3.9-0.2-4.2,0.2c-0.3,0.7,0.5,0.8,1,1.2s0.7,1,1,1.7c0.3,0.6,0.5,1.2,0.9,1.8
		c1.2,2.1,1.8,3.7,0.5,6.3c-1.4,2.8-2.9,0.6-2.9,2.4c1.6,0.2,7.5,0,9.9,0C123.8,59.5,124,59.8,124.8,58.5L124.8,58.5z M213.3,91.2
		c0.1,1.1,0.2,0.4,1,1.2c-0.1,1.4-2.9,7.1-3.6,8.9c-1.8-1.3-0.4-3.7-0.1-4.5c0.2-0.7,0.5-1.7,0.8-2.3c0.6-1.3,1.3-0.2,1.7-1.4
		c-0.2-0.1-0.1-0.1-0.5-0.2c-0.9-0.2-3.2-0.1-3.9,0.2c0.1,1.2,0.8,0.2,0.4,1.6c-0.2,0.6-0.4,1.4-0.8,1.7c-0.4-0.7-0.8-1.7-1.2-2.6
		c-0.9-2.1-0.4-0.9,0.1-2.5c-1,0-3.5-0.2-4.4,0.1c0,1.4,0.8-0.3,2.2,2.9c0.6,1.3,1.4,2.5,1.8,3.6c0.8,2.2-0.4,5.2-1.7,5.8
		c-0.9,0.4-1.5,0-1.8,0.8c0.7,0.5,11.8,0.2,12,0.1c0.4-0.5,1.6-2.8,1.5-3.5c-1.9,0.1-0.9,2.3-3.1,2.7c-1.4,0.3-4.3,0.1-5.9,0.1
		l0.6-1.7c0.4,0.2,0.3,0,0.7,0.9c2.5,0.3,1.8-0.1,4.2-5.7c0.5-1.2,1-2.4,1.5-3.6c0.3-0.6,0.5-1.3,0.9-1.7c0.6-0.5,1.3-0.2,1.2-1.1
		C215.3,91,214.8,91.1,213.3,91.2L213.3,91.2z M233.5,75.5c-2,1.4-2.9-1.6-0.5-1.5C233.4,74.5,233.6,74.7,233.5,75.5z M230.9,73.3
		c-1.1-0.2-2.9-0.2-2.9,1.8c0.1,1.5,1.2,2,2.9,1.6c-0.1,0.9-0.4,1.3,0.2,2.1c0.3,0.4,0.8,0.8,1.5,0.8c1.8,0,1.7-1.2,1.8-2.9
		c1.5,0.2,2.9-0.1,2.8-1.8c-0.1-1.6-1.3-1.9-2.8-1.6c0.1-1.6,0-2.9-1.8-2.9C230.5,70.3,230.8,72.6,230.9,73.3L230.9,73.3z
		 M140.6,120c1.3-1.1,2.5-0.3,1.5,1.3C141,121.4,140.5,121.1,140.6,120z M139.8,118.6c-4.1-0.2-2.9,2.7-2.1,3.3
		c0.7,0.5,1.2,0.2,2,0.3c-0.1,1.4,0.1,2.7,1.7,2.8c1.7,0.1,1.9-1.3,1.8-2.8c0.5,0,2.8,0.4,2.8-1.8c0-1.7-1.3-2-2.9-1.7
		c0.1-0.8,0.5-2.8-1.6-2.9c-0.7,0-1.3,0.4-1.6,0.8C139.5,117.3,139.7,117.8,139.8,118.6L139.8,118.6z M233.5,30.1
		c-2.5,1.8-2.5-2.9,0.1-1.1L233.5,30.1z M234.4,31.3c0.9,0.1,1.4,0.4,2.1-0.2c1.1-0.9,0.9-2.3-0.1-3.1c-0.7-0.5-1.2-0.3-2-0.2
		c0.4-3.9-2.6-3.1-3.3-2.1c-0.4,0.7-0.3,1.2-0.2,2.1c-1.6-0.3-2.9,0-2.9,1.7c0,1.7,1.3,1.9,2.9,1.7c-0.6,3.6,2.4,3.4,3.3,2
		C234.6,32.7,234.4,32.1,234.4,31.3L234.4,31.3z M5.4,28.7c1.1,1.4-0.3,2.2-1.1,1.7C3.8,30.1,3.4,28.3,5.4,28.7z M3.2,27.9
		c-1.6-0.3-2.9,0-2.9,1.7c0,1.7,1.3,1.9,2.9,1.8c-0.2,1.6,0,2.8,1.6,2.9c0.8,0.1,1.3-0.4,1.6-0.8c0.6-0.7,0.3-1.2,0.2-2.1
		c0.8,0.1,1.3,0.3,2-0.2c1.4-1,1.3-3.8-2-3.3c0.2-1.6,0-2.9-1.7-2.9C3.3,24.9,2.9,26.3,3.2,27.9z M95.4,30.4l-0.3-0.3
		c-0.1-0.7,0-1,0.3-1.4l1.1-0.1C97.3,29.8,97,30.8,95.4,30.4z M94.2,27.9c-3.2-0.6-3.4,2.1-2.1,3.2c0.7,0.6,1.2,0.4,2.1,0.3
		c-0.2,0.9-0.4,1.4,0.2,2.1c0.9,1.2,3.8,1.4,3.2-2.1c1.6,0.2,2.9,0,2.9-1.7c0-1.7-1.2-1.9-2.9-1.7c0.4-3.8-2.4-3.2-3.2-2.1
		C93.9,26.5,94.1,27,94.2,27.9z M95.1,74.3c1.5-0.7,2.6,0.6,1.4,1.6c-0.7,0.2-0.9,0.1-1.4-0.3V74.3z M94.2,73.2
		c-1.5-0.2-2.9,0.1-2.9,1.8c0.1,1.6,1.3,1.9,2.8,1.6c-0.4,3.8,2.4,3.2,3.3,2.1c0.6-0.8,0.3-1.2,0.2-2.1c1.6,0.4,2.9-0.1,2.9-1.6
		c0-0.7-0.5-1.3-0.9-1.6c-0.6-0.5-1.2-0.3-2-0.2c0.1-1.5-0.1-2.7-1.7-2.8C94.3,70.3,94,71.6,94.2,73.2z M49.7,121.2
		c-0.6-1.7,0.8-2.3,1.5-1.5C51.9,120.4,51.3,121.8,49.7,121.2z M48.8,118.7c-0.8-0.1-1.6-0.2-2.2,0.2c-1.2,0.9-1.4,3.8,2.2,3.3
		c-0.3,1.4-0.1,2.8,1.5,2.9c0.8,0.1,1.4-0.4,1.7-0.8c0.6-0.7,0.4-1.3,0.2-2.1c1.6,0.2,2.9,0,2.9-1.7s-1.3-2-2.9-1.7
		c0.2-1.6,0-2.9-1.7-2.9C48.8,115.8,48.5,117.1,48.8,118.7L48.8,118.7z M4.3,121.3c-1.6-2.7,2.7-2.5,1.1,0H4.3z M3.2,118.7
		c-1.5-0.2-2.9,0-2.9,1.8s1.6,1.9,2.9,1.7c-0.2,1.5-0.1,2.8,1.6,2.9c1.7,0.1,2.1-1.3,1.9-2.9c0.9,0.1,1.4,0.3,2.1-0.3
		c1.3-1.1,1.1-3.7-2.1-3.2c0.2-1.5-0.1-2.8-1.7-2.9C3.2,115.8,3,117.1,3.2,118.7L3.2,118.7z M140.7,75.7l-0.1-1.4
		c0.8-0.3,0.8-0.3,1.6-0.1C142.9,75.6,142.1,76.2,140.7,75.7z M139.8,73.3c-0.8-0.1-2.8-0.4-2.9,1.7c-0.1,2.2,2.1,1.9,2.9,1.8
		c-0.2,4.2,2.7,2.9,3.3,2c0.5-0.7,0.2-1.1,0.2-2c0.7,0.1,1.2,0.3,1.9-0.1c1.3-0.8,1.2-2.5,0.1-3.2c-0.7-0.5-1.3-0.3-2-0.2
		c0.1-0.7,0.5-2.8-1.6-2.9C139.3,70.3,139.8,72.7,139.8,73.3L139.8,73.3z M142.4,30.1c-0.7,1-2.4,0.1-1.7-1.1
		C141.3,28,143.1,29.1,142.4,30.1z M139.8,27.8c-3.1-0.6-3.5,2-2.1,3.2c0.7,0.6,1.2,0.4,2.2,0.3c-0.1,0.8-0.2,1.5,0.2,2.1
		c0.3,0.4,0.9,0.8,1.6,0.8c1.6-0.1,1.8-1.4,1.6-2.9c0.8,0.1,2.9,0.4,2.9-1.7c0-1.8-1.4-1.9-2.9-1.7c0.1-0.7,0.5-2.8-1.6-2.9
		C139.9,24.9,139.7,26.3,139.8,27.8L139.8,27.8z M186.1,119.8c1.2-0.7,2.3-0.1,1.7,1.1C187.5,121.7,185.8,121.9,186.1,119.8z
		 M185.3,118.6c-1.5-0.1-2.9,0-2.9,1.8c0,1.7,1.2,1.8,2.8,1.8c-0.1,1.4,0,2.7,1.6,2.8c1.7,0.1,2-1.3,1.9-2.8c0.2,0,2.9,0.5,2.9-1.8
		c0-0.7-0.5-1.3-0.9-1.5c-0.7-0.6-1.2-0.3-2-0.3c0.1-0.8,0.3-1.3-0.1-1.9C187.9,115.6,184.9,114.8,185.3,118.6L185.3,118.6z
		 M187.9,75.7c-1.2,0.4-2.4-0.2-1.7-1.3C186.7,73.6,188.3,73.7,187.9,75.7z M185.2,73.2c-1.5-0.1-2.8,0.1-2.8,1.7
		c0,0.8,0.4,1.3,0.9,1.6c0.7,0.5,1.2,0.3,2,0.2c0,1.5,0,2.6,1.5,2.8c1.9,0.2,2.1-1.2,2-2.9c1.5,0.2,2.9,0,2.9-1.6
		c0-1.8-1.3-1.9-2.9-1.8c0.2-1.6,0.1-2.7-1.5-2.8C185.4,70.2,185.2,71.6,185.2,73.2z M186.5,30.5c-0.6-0.8-0.5-0.9,0-1.8
		c0.9-0.1,1.5-0.1,1.5,0.9C188,30.6,187.4,30.6,186.5,30.5z M185.3,27.8c-0.9,0-1.4-0.3-2.1,0.2c-0.5,0.4-2.4,3.3,2.1,3.3
		c-0.4,3.6,2.6,3.4,3.4,1.8c0.4-0.7,0.2-1.2,0-1.9c1.5,0.2,2.9-0.1,2.9-1.7c0-1.7-1.4-1.9-2.9-1.8c0.1-0.8,0.3-1.4-0.2-2
		C187.6,24.5,184.8,24.4,185.3,27.8z M95.7,119.5c1.2-0.6,1.7,1.3,0.9,1.7c-0.6,0.3-1.3,0-1.5-0.4C94.6,119.8,95.7,119.5,95.7,119.5
		z M94.1,118.6c-1.5-0.1-2.7,0.2-2.7,1.8c0,1.6,1.3,1.9,2.8,1.7c-0.1,1.1-0.2,3,1.9,2.9c1.6-0.1,1.8-1.4,1.6-2.9
		c1.6,0.3,2.9-0.1,2.9-1.7c0-2-1.9-1.9-2.9-1.8c0.1-0.7,0.2-1.5-0.1-2.1C97.3,116.2,94.4,114.1,94.1,118.6L94.1,118.6z M232.4,119.5
		c1.3-0.4,1.7,1.5,0.6,1.8c-0.7,0.2-1.2-0.1-1.3-0.6C231.4,119.8,231.9,119.7,232.4,119.5L232.4,119.5z M230.8,118.6
		c-1.6,0-2.8,0.2-2.8,1.9c0,1.6,1.3,2,2.9,1.7c-0.5,3.6,2.3,3.3,3.2,2.1c0.5-0.6,0.3-1.3,0.2-2.1c4,0.6,3.9-4.1,0-3.5
		c0.1-0.8,0.4-2.9-1.7-2.9C231.2,115.8,230.8,117.1,230.8,118.6L230.8,118.6z M49.7,30.4c-0.6-1.7,0.8-2.2,1.5-1.5
		C52,29.8,51.3,30.8,49.7,30.4z M48.8,27.9c-1.6-0.2-2.9,0-2.9,1.7c0,1.7,1.3,1.8,2.9,1.8c-0.2,1.4,0,2.7,1.6,2.8
		c0.8,0.1,1.4-0.4,1.7-0.7c0.6-0.7,0.3-1.3,0.2-2.2c4,0.7,3.9-4.1,0-3.4C52.8,23.8,48.1,24,48.8,27.9z M84.5,108.1
		c0.4,0.3,0.5,0.4,0.7,0.9c-0.3,0.4-0.3,0.5-0.8,0.7c-0.4-0.3-0.3-0.2-0.5-0.4C83.9,108.6,84.1,108.4,84.5,108.1z M79.4,109.4
		c0.9,0.1,0.5,0.3,1.6,0.7c0.8,0.3,1.4,0.2,2.2,0.3c-0.1,0.8-0.2,1.6,0.3,2.2c0.2,0.8,0.5,1,0.8,1.6c1.2-0.5,1.6-2.3,1.5-3.8
		c1.6,0,2.8-0.3,3.8-1.2c-0.2-0.6-0.5-0.7-1.5-1.1c-0.9-0.4-1.3-0.4-2.4-0.3c0-1.8-0.3-2.9-1.3-3.9c-1.1,0.7-1.2,2.4-1.4,3.9
		c-1,0-1.6,0-2.4,0.4c-0.2,0.1-0.7,0.3-0.9,0.5C79.2,108.9,79.2,108.6,79.4,109.4z M221.1,131.1c0.6,0.1,0.7,0.1,1,0.7
		c-0.3,0.4-0.4,0.5-1,0.6l-0.7-0.7L221.1,131.1L221.1,131.1z M216,131.8c0.8,1,2.2,1.4,3.9,1.3c0,1.8,0.3,2.9,1.3,3.9
		c1.1-0.6,1.4-2.4,1.4-3.9c1.5,0.1,3.4-0.3,3.9-1.5c-1.4-0.8-1.8-1.3-3.9-1.1c0.1-1.6-0.3-3.2-1.3-3.9c-1,0.7-1.4,2.3-1.3,3.8
		c-0.9,0-1.6,0-2.3,0.3c-0.3,0.1-0.7,0.3-0.8,0.4L216,131.8L216,131.8z M129.4,63.7c0.2-0.6,0.1-0.4,0.7-0.7c0.5,0.2,0.6,0.2,1,0.7
		l-0.9,0.7C129.4,63.9,129.6,64.2,129.4,63.7L129.4,63.7z M128.4,65c0.4,0.4,0.2-0.2,0.3,1.1c0.1,1,0.5,2.3,1.3,2.8
		c1-0.7,1.4-2.4,1.3-3.9c0.9,0,1.4,0.1,2.3-0.3c1-0.4,1.3-0.6,1.6-1c-0.6-1.1-2.4-1.3-3.8-1.4c0-1.5-0.2-2-0.7-3.2l-0.7-0.7
		c-1.1,0.8-1.3,2.3-1.4,3.9c-1.6,0-3,0.2-3.8,1.3c0.4,0.6-0.1,0.1,0.6,0.5C126.4,64.8,127.3,65,128.4,65L128.4,65z M16.2,130.9
		c0.6,0.3,0.9,0.7,0.7,1.4c-0.7,0.3-0.9,0.1-1.4-0.5L16.2,130.9z M15.3,127.9c-0.4,1.1-0.5,1.3-0.4,2.6h-1.1c-1,0.1-2.2,0.6-2.8,1.4
		c0.9,1,2.2,1.3,3.8,1.3c0,1.4-0.1,1.9,0.7,3.1l0.6,0.8c1.2-0.9,1.3-2.3,1.4-3.9c1.3,0.1,1.9-0.2,2.9-0.6c0.5-0.3,0.6-0.3,0.9-0.7
		c-0.5-1-2.5-1.3-3.8-1.5c-0.1-1.6-0.4-3.2-1.4-3.8C15.8,127,15.6,127.3,15.3,127.9L15.3,127.9z M221,63c0.6,0.2,0.5,0.2,0.9,0.7
		l-0.6,0.9c-0.6-0.2-0.6-0.3-0.8-0.9L221,63z M219.8,62.4c-2.3-0.3-2.4,0.5-3.9,1c0.4,1.3,2.6,1.6,3.8,1.6c0.2,1.6,0.3,2.9,1.3,3.8
		c1.2-0.7,1.4-2.3,1.4-3.8c1.7,0.1,3-0.3,3.8-1.3c-0.6-1-2.3-1.4-3.8-1.3c-0.2-1.6-0.3-3.4-1.6-3.9C219.9,60.3,220,59.7,219.8,62.4
		L219.8,62.4z M221.2,40.1c0.5,0.3,0.5,0.4,0.7,1c-0.3,0.4-0.1,0.3-0.7,0.6c-0.6-0.3-0.3-0.1-0.7-0.7
		C220.5,41,221.2,40.1,221.2,40.1z M219.9,39.7c-1.7-0.1-3.1,0.3-3.8,1.3c0.8,1,2.1,1.4,3.8,1.3c0,1.6,0.3,3.1,1.3,3.8
		c1.1-0.6,1.3-2.4,1.4-3.9c1.6,0.1,3-0.3,3.8-1.3c-0.3-0.5-0.8-0.8-1.5-1c-0.8-0.3-1.5-0.4-2.4-0.3c0.1-1.8-0.3-2.8-1.2-3.9
		C220.1,36.4,220,38.1,219.9,39.7z M175.8,108.1c0.2,0.4,0.4,0.6,0.5,1.1l-0.7,0.5c-0.4-0.3-0.4-0.2-0.7-0.7
		C175.1,108.4,175.2,108.3,175.8,108.1L175.8,108.1z M176.9,110.4c1.9,0.2,2.7-0.4,3.9-1.1c-0.4-1.1-2.5-1.6-3.9-1.5
		c-0.1-1.6-0.3-3.3-1.4-3.8c-1,0.9-1.3,2-1.3,3.8c-1.8-0.1-2.8,0.3-3.9,1.3c0.7,1.1,2.4,1.4,3.9,1.4c-0.1,1.3,0.2,3,1.2,3.8
		C176.7,113.8,177,111.5,176.9,110.4L176.9,110.4z M198.3,108.4c1,0.5,0.9,1,0,1.6C197.6,109.5,197.4,108.9,198.3,108.4z
		 M196.3,107.7c-1.3,0-2.5,0.6-3.1,1.3c0.5,1.2,2.4,1.4,3.9,1.4c-0.2,2.7,0.8,2.7,1,3.8c0.8,0.1,1-0.8,1.3-1.4
		c0.3-0.8,0.3-1.5,0.3-2.4c1.2,0.1,3.2-0.1,3.8-1.4c-1.1-1.1-1.9-1.2-3.8-1.3c0-0.8,0-1.5-0.3-2.3l-0.9-1.4l-0.1-0.1
		c-1,0.8-1.4,2.1-1.3,3.9L196.3,107.7L196.3,107.7z M17.2,41c-0.4,0.4-0.5,0.5-1,0.7C14.5,40.4,16.2,39.6,17.2,41z M15.4,36.7
		c-0.1,0.6-0.3,0.7-0.4,1.3c-0.2,0.6-0.1,1-0.2,1.6c-1.2,0-3.1,0.2-3.8,1.4c0.9,1,2,1.3,3.8,1.3c0,1.6,0.3,3,1.3,3.9
		c1.1-0.9,1.3-2.2,1.4-3.9c1.8,0.1,2.9-0.3,3.8-1.3c-0.8-1-2.2-1.4-3.9-1.3c0.2-2-0.3-1.9-0.5-3.2c-0.6-0.4-0.3-0.4-0.8-0.7
		C16.2,35.8,15.4,36.7,15.4,36.7z M61.1,18.3c0.1-0.8,0.2-0.9,0.8-1.1l0.6,0.9c-0.4,0.5-0.3,0.5-0.8,0.7
		C61.1,18.5,61.5,18.9,61.1,18.3z M60.4,19.9l0.1,1.7c0.3,0.5,0.7,1.4,1.1,1.8c1.2-0.6,1.5-2.4,1.4-3.9c2,0.1,2.6-0.3,3.9-1.1
		c-0.5-1.2-2.4-1.7-3.9-1.5c0-1.7-0.2-2.8-1.2-3.9c-1.2,0.4-1.5,2.4-1.4,3.9c-1.6-0.1-2.9,0.3-3.9,1.2c0.7,1.4,3.4,1.4,3.4,1.5
		C60.4,19.8,60.2,19.4,60.4,19.9z M39.8,131.6c-0.1,0.6-0.3,0.8-0.5,1.2c-0.6-0.2-0.6-0.3-0.8-0.9c0.3-0.5,0.2-0.3,0.6-0.6
		C39.5,131.3,39.5,131.4,39.8,131.6L39.8,131.6z M34,131.5c0.1,0.6-0.1,0.8,1.5,1.4c0.7,0.3,1.5,0.3,2.3,0.3c0.1,0.9,0,1.5,0.3,2.4
		c0.4,1.2,0.6,1.3,1.2,1.5c1-1.7,0.8-1.6,1.2-3.8c1.6,0,3.3-0.3,3.8-1.6c-1.5-0.7-1.7-1.3-3.9-1.1c0.1-1.3,0-1.5-0.3-2.6
		c-0.5-0.5-0.5-0.9-1.1-1.3c-0.8,0.8-1.3,2.3-1.2,3.9c-0.9,0-1.3-0.1-2.2,0.3C35.1,130.9,34.4,131.5,34,131.5L34,131.5z M152.3,18.3
		c0.2-0.4,0.3-0.6,0.8-0.8c0.5,0.3,0.5,0.2,0.7,0.8c-0.4,0.4-0.5,0.5-1.2,0.6C152.5,18.7,152.4,18.6,152.3,18.3z M151.6,17
		c-1.6-0.2-3.3,0.3-3.9,1.4c1.8,1.2,1.5,1,3.9,1.3c-0.1,1.7,0.3,3,1.3,3.8c1-1,1.4-2.1,1.3-3.9c1.4,0.1,3.2-0.3,3.8-1.4
		c-1-1-2-1.3-3.9-1.3c0-0.8,0-1.5-0.3-2.3c-0.1-0.3-0.3-0.6-0.4-0.8c-0.3-0.5-0.3-0.5-0.8-0.7C152,14.8,151.4,14.5,151.6,17z
		 M152.2,63.7c0.2-0.8,0.3-0.7,0.7-1c0.4,0.3,0.1-0.2,0.4,0.4c0.1,0.1,0.2,0.4,0.3,0.6c-0.4,0.4-0.2,0.3-0.7,0.6
		C152.3,64,152.5,64.1,152.2,63.7z M158,63.3c-0.6-0.1-1-0.5-1.6-0.8c-0.8-0.3-1.3-0.2-2.2-0.3c0.1-2.4-0.6-2.3-0.8-3.6l-0.6-0.3
		c-0.9,1.5-1.3,1.7-1.2,3.9c-1.7,0-3.1,0.4-3.8,1.3c0.8,1.2,2.3,1.1,3.8,1.4c0.2,1.7,0.3,3,1.4,3.7c1.1-0.8,1.3-2.1,1.3-3.8
		c0.8-0.1,1.4,0,2.2-0.3c0.3-0.1,0.6-0.3,0.8-0.4C158.1,63.8,157.9,64.1,158,63.3L158,63.3z M16.2,110c-1.4-1.2,0-2.4,0.8-0.8
		C16.6,109.7,16.8,109.6,16.2,110z M14.9,107.7c-1.3,0-1.9,0-3.1,0.7c-0.5,0.3-0.5,0.3-0.7,0.8c1.2,1.1,2,1.1,3.8,1.3
		c0,1.5,0.3,3.3,1.5,3.8c0.7-1.1,1.3-2.1,1.1-3.9c1.5,0.1,3.4-0.3,3.9-1.4c-0.8-0.8-2.2-1.3-3.9-1.2c0-1.1-0.3-3.2-1.4-3.9
		C15.2,104.8,14.8,106,14.9,107.7z M106.6,18.3c0.2-0.5,0.2-0.5,0.7-0.8l0.7,0.6c-0.2,0.6-0.1,0.6-0.7,1
		C106.8,18.8,106.8,18.8,106.6,18.3z M106,17c-1.5-0.2-3.4,0.3-3.9,1.5c1.2,0.6,2.1,1.3,3.9,1.1c-0.1,1.5-0.1,1.9,0.7,3.1
		c0.4,0.7,0.2,0.5,0.7,0.7c1-0.9,1.4-2.3,1.2-3.9c1.8,0.1,2.7-0.3,3.9-1.2c-0.1-0.4,0.1-0.3-0.6-0.7c-0.3-0.2-0.5-0.3-0.8-0.4
		c-0.9-0.4-1.4-0.4-2.4-0.3c0-1.5-0.2-3.4-1.4-3.8C106.3,14.2,105.9,15.4,106,17z M108.3,40.8c-0.3,0.5-0.4,0.6-0.8,0.9
		c-0.7-0.2-0.7-0.2-0.9-0.9l0.5-0.5C107.8,40.4,107.8,40.6,108.3,40.8z M103.6,42.1c1,0.2,1.2,0.3,2.4,0.2c0,1.4,0.2,3.4,1.4,3.8
		c0.9-0.8,1.3-2.2,1.2-3.8h1.8c0.6-0.4,1.4-0.4,2.1-1.2c-0.8-1.2-2.6-1.4-3.9-1.4c0.1-1.5-0.3-3-1.2-3.8c-1.1,0.6-1.4,2.3-1.4,3.9
		c-1.3-0.1-3.1,0.2-3.9,1.3C102.6,41.7,103.1,41.6,103.6,42.1z M197.7,18.2c0.4-0.5,0.1-0.4,0.9-0.6l0.6,0.7
		c-0.3,0.5-0.2,0.5-0.7,0.9C197.6,18.6,197.9,18.6,197.7,18.2z M197.1,16.9c-1.9-0.1-2.8,0.2-3.9,1.2c0.7,1.2,2.3,1.4,3.9,1.4
		c-0.1,1.6,0.3,3.3,1.5,3.8c0.7-1.4,1.2-1.7,1.1-3.9c1.6,0,3.2-0.2,3.9-1.4c-0.8-1-2.3-1.3-3.9-1.3c0.1-1.2-0.2-3.2-1.3-3.8
		C197.3,13.9,196.9,15.4,197.1,16.9L197.1,16.9z M108.2,131.8c-0.2,0.4-0.4,0.5-1,0.7c-0.5-0.4-0.3-0.1-0.6-0.7
		C107.1,130.8,107.7,131.1,108.2,131.8z M102.1,131.7c0.3,0.3,0.1,0.6,1.5,1.2c0.8,0.4,1.4,0.3,2.3,0.3c0,1.7,0.2,2.8,1.2,3.9
		c1.3-0.6,1.4-2.7,1.4-3.8c1.3,0.1,3.4-0.2,3.9-1.6c-1.7-0.6-1.3-1.2-3.9-1.1c0.1-1.6-0.4-3.1-1.2-3.9c-1.1,0.6-1.4,2.4-1.4,3.9
		C104.1,130.4,103.2,130.8,102.1,131.7L102.1,131.7z M15.7,64.1c-0.3-0.8,0.1-1,0.5-1.5c0.4,0.3,0.5,0.4,0.7,1
		C16.5,64.2,16.5,64.4,15.7,64.1z M11.1,63.4c0,0.6-0.1,0.6,1.4,1.3c0.9,0.4,1.4,0.3,2.4,0.3c0,1.6,0.3,2.9,1.3,3.9
		c1.1-0.7,1.4-2.3,1.4-3.9c1.5,0.1,2.4-0.2,3.4-0.9c0.1-0.5,0.1-0.5-0.2-0.9c-1.1-0.6-1.8-0.9-3.3-0.8c0.1-1.6-0.3-3.2-1.3-3.9
		c-1.1,0.9-1.3,2.3-1.3,3.9C12,62.2,12.5,63,11.1,63.4z M175.6,17.5l1,0.6c-0.5,0.8-0.8,0.9-1.6,0.5C175,17.7,175.1,17.8,175.6,17.5
		z M174.3,16.9c-0.9-0.1-1.5-0.1-2.3,0.2c-0.6,0.2-1.3,0.6-1.6,1.2c1,0.9,2.2,1.2,3.8,1.2c-0.1,1.6,0.3,3.3,1.5,3.9
		c0.6-1.6,1.3-1.3,1.1-3.9c1.9,0.1,2.8-0.4,3.9-1.2c-0.5-1.1-2.5-1.6-3.9-1.4c0-1.5-0.2-3.2-1.4-3.9C174.7,14,174.2,15.4,174.3,16.9
		L174.3,16.9z M220.6,18.8c-0.1-0.3-0.1,0.3-0.2-0.4c0-0.4,0.2-0.7,0.6-1.1C222.2,17.8,221.9,19.3,220.6,18.8z M219.8,16.9
		c-1.5-0.1-3.4,0.2-3.9,1.5c1.6,0.8,1.5,1.1,3.9,1.1c-0.1,1.5,0.3,3.4,1.5,3.9c0.7-1.3,1.3-1.9,1.2-3.9c2,0.1,2.6-0.5,3.9-1.1
		c-0.5-1.2-2.4-1.7-3.9-1.5c0.1-1.4-0.2-3.4-1.4-3.9C220,14.2,219.7,15.4,219.8,16.9L219.8,16.9z M61,86.1c0.5-0.9,1.3-0.2,1.7,0.1
		C62.3,87.2,61.3,87.5,61,86.1z M60.4,85.1c-1.4-0.1-3.4,0.3-3.9,1.5c1.6,0.7,1.5,1.2,3.9,1.1c-0.1,2,0.5,2.7,1.1,4
		c0.6-0.2,0.4,0,1.1-1.6c0.3-0.8,0.3-1.5,0.4-2.3c2.3-0.1,2.3-0.3,3.9-1.2c-0.5-1.2-2.4-1.6-3.9-1.5c0-1.9-0.1-2.7-1.2-3.8
		C60.6,81.7,60.3,83.7,60.4,85.1L60.4,85.1z M16.2,18.9l-0.6-0.5c0.2-0.5,0.2-0.5,0.4-0.8c0.7,0,0.8,0.1,1.2,0.6
		C16.9,18.7,16.9,18.8,16.2,18.9z M16,23.5c0.8-0.3,0.5-0.4,1.1-1.1c0.3-1.2,0.5-1.4,0.4-2.8c1.5,0.1,3.4-0.3,3.9-1.4
		c-0.9-0.9-2.3-1.4-3.9-1.2c0.1-1.3-0.2-1.8-0.5-3c-0.3-0.1,0,0-0.3-0.4l-0.5-0.6c-0.9,0.9-1.4,2.1-1.3,3.9
		c-1.7,0.1-2.8,0.2-3.8,1.3c0.6,1.2,2.3,1.4,3.9,1.4C14.8,21.9,15.4,21.9,16,23.5z M175.8,63c0.6,0.3,0.6,0.2,0.8,1l-1,0.4l-0.7-0.7
		L175.8,63z M170.4,63.9c1.6,0.6,1.5,1.2,3.9,1.1c0,1.7,0.3,3,1.3,3.8c1.2-0.8,1.1-2.3,1.5-3.8c1.9,0,2.8-0.5,3.9-1.3
		c-0.8-1-2.4-1.3-3.9-1.4c-0.1-1.6-0.2-3-1.4-3.7l-1,1.6c-0.3,0.8-0.2,1.4-0.3,2.3C172.9,62.2,170.9,62.6,170.4,63.9L170.4,63.9z
		 M61.6,131.1c0.7,0.1,0.8,0.2,1.1,0.7c-0.4,0.5-0.4,0.4-0.9,0.6l-0.7-0.4C61.2,131.5,61.3,131.5,61.6,131.1z M60.6,128.6
		c-0.4,0.7-0.2,1.1-0.3,1.9c-1.3-0.1-3,0.2-3.8,1.3c0.8,0.9,2.2,1.4,3.8,1.3c0,1.3,0.1,3.2,1.4,3.9c0.9-0.9,1.2-2.2,1.3-3.9
		c1.6,0.1,3.1-0.3,3.8-1.3c-0.8-1.5-2.6-1-3.8-1.5v-1.1c-0.2-1.1-0.6-2.3-1.4-2.7C61.2,127.2,60.9,127.7,60.6,128.6L60.6,128.6z
		 M107.3,62.7c0.5,0.4,0.7,0.7,0.5,1.4c-0.7,0.2-0.8,0-1.2-0.5C106.7,63.1,106.7,63,107.3,62.7z M106,62.4c-1.6-0.1-3.3,0.3-3.9,1.3
		c0.8,0.9,2.2,1.4,3.8,1.3c0.1,0.8,0,1.5,0.3,2.2c0.2,0.6,0.6,1.3,1.1,1.7c1.1-1,1.3-2.5,1.3-3.9c1.6,0.1,3.1-0.3,3.8-1.3
		c-0.6-1-2.1-1.4-3.7-1.4c-0.4-1.8-0.1-2.7-1.4-3.8C106.2,59.2,105.9,60.7,106,62.4z M221.2,108.1c0.4,0.4,0.5,0.6,0.6,1.1
		c-0.4,0.5-0.3,0.5-1.2,0.6C220.3,109.1,220.4,108.4,221.2,108.1z M219.8,107.7c-1.5-0.1-3.4,0.2-3.8,1.4c1.1,0.8,2.2,1.3,3.9,1.2
		c-0.1,1.5,0.3,3.4,1.5,3.9c0.7-1.2,1.3-2,1.1-3.9c0.9,0.1,1.4,0.1,2.3-0.2c0.6-0.2,1.4-0.6,1.6-1.1c-0.9-0.9-2.2-1.3-3.8-1.3
		c-0.1-1.6-0.3-3.4-1.5-3.8C220.1,104.8,219.8,106.1,219.8,107.7L219.8,107.7z M152.7,108.1c0.5,0.3,0.6,0.4,0.9,0.7
		c-0.2,0.6-0.3,0.7-0.9,0.9l-0.4-0.3C152.2,108.7,152.4,108.6,152.7,108.1z M151.5,107.8c-1.7-0.1-3.2,0.3-3.8,1.4
		c1.3,1.3,1.9,1,3.9,1.3c-0.1,1.7,0.3,3,1.3,3.8c1-1,1.4-2.1,1.3-3.9c1.4,0.1,3.3-0.3,3.9-1.3c-0.9-1-2.1-1.3-3.9-1.3
		c0.1-1.3-0.2-3.4-1.5-3.9C151.9,105.5,151.5,105.4,151.5,107.8L151.5,107.8z M129.3,109c0.4-0.4,0.2-0.3,0.7-0.6l0.7,0.6
		c0,0.1-0.1,0.4-0.2,0.5c-0.3,0.4-0.2,0.3-0.5,0.5c-0.4-0.2-0.1,0.2-0.4-0.4C129.5,109.5,129.4,109,129.3,109L129.3,109z M128.8,106
		l-0.1,1.7c-1.7,0.1-3,0.3-3.9,1.3c0.6,1,2.4,1.4,3.9,1.3c-0.1,1.2,0,1.4,0.2,2.5c0.4,0.4,0.5,0.9,1.1,1.5c1-0.8,1.4-2.3,1.3-3.9
		c1.5,0.1,3.2-0.2,3.8-1.3c-0.9-1.1-2.1-1.1-3.8-1.3c0-1.6-0.4-3-1.3-3.7C129.5,104.3,129.1,105.1,128.8,106L128.8,106z M83.8,63.7
		c0.2-0.5,0.2-0.4,0.7-0.7c0.5,0.2,0.7,0.3,0.9,0.7c-0.3,0.5-0.3,0.4-0.9,0.6C84,64,84.1,64.1,83.8,63.7z M83.1,62.3
		c-1.8,0-2.8,0.4-3.8,1.2c0.6,1.3,2.4,1.4,3.9,1.5c0,1.5,0.2,3.1,1.3,3.8c1.1-0.9,1.3-2.5,1.3-3.8c1.3,0,2.1,0,3.1-0.7l0.6-0.5
		l0.1-0.1c-0.8-1-2.3-1.4-3.8-1.4c-0.3-1.8,0-2.7-1.4-3.8C83.3,59.3,83.2,60.8,83.1,62.3z M198.3,64.3l-0.7-0.6
		c0.3-0.5,0.3-0.5,0.8-0.8l0.8,0.7C199,64.1,199,64.1,198.3,64.3z M193.5,64c1.6,0.8,1.3,1,3.5,1c0.1,1.9,0.2,2.8,1.3,3.8
		c1-0.6,1.4-2.4,1.3-3.8c1.7-0.2,1.5-0.1,2.9-0.6c0.6-0.4,0.6-0.3,0.9-0.8c-0.7-1.1-2.3-1.2-3.9-1.4c0-1.7-0.3-2.9-1.3-3.7
		c-1.2,1.2-1.2,1.9-1.3,3.9c-1.9-0.2-2.5,0.3-3.8,1.1C193.3,64,193.2,63.7,193.5,64L193.5,64z M107.3,108.1c0.4,0.3,0.4,0.4,0.6,0.9
		c-0.2,0.5-0.2,0.4-0.6,0.7c-0.5-0.2-0.4-0.1-0.7-0.5C106.7,108.5,106.9,108.4,107.3,108.1z M106,107.8c-1.4-0.1-3.4,0.3-3.9,1.5
		c1.6,0.7,1.6,1.3,3.9,1.1c-0.1,2.1,0.3,2.5,1.1,3.9c1.2-0.5,1.6-2.3,1.5-3.9c1.2,0.1,3.2-0.2,3.9-1.4c-1.1-1-2-1.3-3.9-1.3
		c0-1.6-0.3-3.3-1.5-3.8C106.3,105.5,106,105.3,106,107.8z M61.4,40.3c0.6,0.1,0.7,0.2,1,0.7c-0.2,0.6-0.2,0.5-0.6,0.9
		C61,41.6,60.6,40.8,61.4,40.3z M63,38.3l-0.1-0.8c-0.7-0.7-0.6-1.3-1.3-1.6c-0.9,0.7-1.3,2.3-1.2,3.9c-1.2-0.1-3.2,0.2-3.9,1.3
		c1,0.9,2.1,1.4,3.9,1.3c0,1.7,0.3,2.9,1.3,3.8c1.2-0.5,1.3-2.4,1.4-3.8c1.7,0.2,3-0.4,3.8-1.3c-1-1.5-2.5-1-3.8-1.5
		C63,39.6,63,38.3,63,38.3z M16.2,87.3c-0.6-0.4-0.8-1.1-0.2-1.6c0.7,0.1,0.7,0.2,1,0.8L16.2,87.3z M13.5,85.1
		c-1.1,0.4-1.6,0.5-2.4,1.3c0.6,1,2.3,1.4,3.8,1.4c0.4,2.2-0.1,2.2,1.4,3.9c1.1-0.8,1.4-2.5,1.3-3.9c1.8,0.1,2.8-0.4,3.9-1.1
		c-0.2-0.6-0.4-0.4-0.5-0.7c-1.2-0.5-1.8-0.9-3.4-0.7c0.1-2.2-0.3-2.4-1.1-3.9c-1.6,0.7-1.3,2.9-1.7,3.9L13.5,85.1L13.5,85.1z
		 M107.3,87.3c-1.5-0.7-0.7-2.7,0.7-0.9L107.3,87.3z M106,85.1c-1.5-0.2-3.4,0.3-3.9,1.5c1.4,0.7,1.8,1.3,3.9,1.1
		c-0.1,1.8,0.2,2.8,1.1,3.9c1.1-0.4,1.5-2.3,1.5-3.8c1.7,0,2.7-0.3,3.8-1.2c-0.1-0.4,0-0.3-0.6-0.7c-1-0.7-2-0.8-3.2-0.7
		c0.1-1.8-0.3-2.8-1.3-3.8C106.2,81.9,106,83.6,106,85.1z M38.4,86.1c0.8-1,1.5-0.1,1.7,0.4c-0.5,0.3-0.5,0.5-1.3,0.5
		C38.3,86.5,38.6,86.8,38.4,86.1z M37.8,88.9c0.1,1.6,0.8,1.7,1,2.6c1.3-0.1,1.6-2.3,1.6-3.8c1.2,0,3.3-0.2,3.9-1.4
		c-0.9-0.9-2.3-1.5-3.9-1.2c0.1-2.2-0.3-2.4-1.1-3.9c-0.7,0.3-0.8,0.4-1.2,1.5c-0.4,0.9-0.4,1.4-0.3,2.4c-1.7-0.1-2.9,0.2-3.8,1.2
		c0.6,1.1,2.4,1.5,3.9,1.4L37.8,88.9z M84.7,85.4c0.3,0.4,0.5,0.6,0.5,1.3c-0.4,0.2-0.5,0.4-1.2,0.4C83.7,86.4,84,85.7,84.7,85.4z
		 M83.3,85.1c-1.6-0.2-3,0.3-3.9,1.2c0.5,1.2,2.7,1.4,3.9,1.4c-0.1,1.2,0.2,3.3,1.4,3.9c0.8-1,1.4-2.3,1.2-3.9
		c2.3,0.2,2.4-0.4,3.9-1.1c-0.5-1.3-2.6-1.6-3.9-1.5c0-1.8-0.2-2.6-1.3-3.8C83.5,81.8,83.2,83.6,83.3,85.1z M84.5,17.3
		c0.6,0.5,1.1,1,0.2,1.7c-0.6-0.2-0.7-0.3-1-0.9L84.5,17.3z M83.2,16.9c-2.2,0.1-2.5,0.3-3.9,1.2c0.5,1.2,2.4,1.5,3.9,1.4
		c-0.1,1.6,0.3,3.3,1.3,3.9c0.9-1.1,1.4-2,1.3-3.8c1.6,0,3.2-0.3,3.9-1.4c-0.9-0.9-2.1-1.4-3.9-1.3c0.1-1.7-0.3-3.1-1.3-3.9
		c-0.5,0.2-0.6,0.4-1,1.5C83.1,15.5,83.1,15.9,83.2,16.9z M129.5,86.3l0.7-0.6c0.6,0.2,0.7,0.2,0.9,0.8
		C130.4,87.3,129.8,87.3,129.5,86.3L129.5,86.3z M128.9,85.1c-1.4-0.1-3.4,0.3-3.9,1.4c1.2,0.8,2,1.3,3.9,1.2
		c-0.1,1.7,0.2,3.1,1.3,3.8c0.9-0.8,1.4-2.2,1.2-3.8c1.5,0,3.2-0.3,3.9-1.4c-0.9-0.9-2.1-1.4-3.9-1.3c0-1.7-0.3-2.9-1.3-3.8
		C129.1,81.9,128.8,83.6,128.9,85.1z M153.4,131.2c0.5,0.8-0.1,1.2-0.7,1.6c-0.2-0.6-0.4-0.5-0.5-1.2
		C152.8,131.1,152.5,131,153.4,131.2L153.4,131.2z M151.3,133.1c0.4,0.4,0.1,0,0.2,0.5c0,0,0,0.6,0.1,0.7c0,0.4,0.1,0.8,0.3,1.1
		l0.7,1.3c0.3,0.3-0.1,0,0.3,0.3c0.2-0.1,0.1-0.1,0.3-0.3l0.2-0.3c0.5-0.7,0.7-1.3,0.8-2.1v-1.1c1.6,0,3.1-0.2,3.8-1.3
		c-0.6-1-2.4-1.3-3.8-1.4c-0.2-1.6-0.3-3.1-1.4-3.8c-1.1,0.8-1.3,2.2-1.4,3.8c-1.6,0-3.2,0.4-3.9,1.4
		C148.4,132.7,149.9,133.2,151.3,133.1L151.3,133.1z M130.2,130.9c0.5,0.4,0.8,0.8,0.6,1.5c-0.8,0.2-0.8,0.1-1.3-0.3
		C129.5,131.4,129.6,131.2,130.2,130.9z M131.5,133.3c0.2-0.3,1.7-0.2,2.2-0.4c0.7-0.3,1.3-0.6,1.7-1.1c-0.7-1.1-2.4-1.4-3.9-1.4
		l0.1-1.7c-0.5-0.6-0.8-1.7-1.3-2.1c-1.1,0.5-1.5,2.4-1.4,3.9c-1.7-0.1-2.9,0.4-3.9,1.2c0.6,1.3,2.3,1.4,3.9,1.5
		c0,0.8,0,1.6,0.3,2.3c0.2,0.5,0.6,1.2,1.1,1.5c0.3-0.3,0.3-0.3,0.6-0.7C131.5,135.1,131.5,134.5,131.5,133.3L131.5,133.3z
		 M197.8,87c-0.3-0.7-0.1-0.9,0.5-1.3l1,0.6C198.9,87,198.6,87.2,197.8,87z M197.1,85.1c-1.3-0.1-2.3,0-3.5,0.9
		c-0.4,0.3-0.2,0.1-0.4,0.4c0.8,1.2,2.3,1.3,3.9,1.4c-0.1,1.6,0.3,3.3,1.5,3.8c0.7-1.3,1.3-1.9,1.1-3.8c1.6-0.1,3.4-0.2,4-1.5
		c-1.5-1.2-1.8-0.9-3.8-1.3c-0.1-1.6-0.3-3.1-1.4-3.7C197.3,82,197,83.5,197.1,85.1z M220.5,86.5c0.8-2,2.4-0.1,0.7,0.8
		C220.8,87,220.7,86.9,220.5,86.5z M219.9,85.1c-1.1-0.1-3.4,0.2-3.8,1.4c1,0.9,2.2,1.2,3.9,1.2c-0.1,1.6,0.2,3.3,1.5,3.9
		c0.5-1.6,1.3-1.4,1.1-3.9c1.6,0.1,3.3-0.3,3.9-1.4c-1.2-1.3-2.1-1-3.8-1.4c-0.1-1.6-0.3-3.1-1.4-3.7
		C220.2,81.9,219.8,83.5,219.9,85.1L219.9,85.1z M83.9,41c0.2-0.6,0.2-0.7,0.8-0.9C86,41.4,84.8,42.4,83.9,41z M83.3,38.1v1.5
		c-1.8,0.6-2.5-0.2-3.8,1.4c0.8,0.9,2.2,1.4,3.8,1.3c0.1,1.6,0.2,2.8,1.2,3.8c1.3-0.4,1.4-2.7,1.4-3.8l1.6-0.1
		c1-0.3,1.7-0.7,2.2-1.2c-0.3-0.5-0.9-0.8-1.6-1.1c-0.9-0.3-1.2-0.3-2.2-0.3c0-1.2-0.2-3.2-1.4-3.7C83.8,36.4,83.6,37.2,83.3,38.1z
		 M198.3,130.9c1,0.5,0.9,1.5,0,1.6C196.9,132.6,197.9,131.3,198.3,130.9z M193.2,131.8c0.8,1,2.2,1.3,3.9,1.3
		c0,1.8,0.2,2.9,1.3,3.8c1.1-0.6,1.3-2.6,1.3-3.8c1.9,0,2.9-0.2,3.8-1.3c-0.7-1.2-2.4-1.2-3.8-1.4c0-1.5-0.2-3-1.3-3.7l-0.1,0.1
		l-0.1,0.1c-0.9,1-1.1,2.2-1.1,3.6C195.9,130.5,193.9,130.6,193.2,131.8L193.2,131.8z M176.2,131.2c0.4,0.8,0,1.1-0.5,1.6
		c-0.4-0.3-0.6-0.5-0.7-1.1C175.4,131.2,175.5,131,176.2,131.2z M170.6,131.5c0.1,0.8-0.2,0.5,0.7,1c1.2,0.7,1.8,0.6,3.1,0.7
		c0,1.4,0,2.3,1,3.5c0.2,0.2,0.1,0.1,0.3,0.3c0.5-0.3,0.6-0.5,1-1.6c0.3-0.8,0.3-1.3,0.3-2.2c1.5-0.2,3.2-0.3,3.8-1.4
		c-0.7-1-2.3-1.3-3.8-1.4c-0.2-1.7-0.3-1.7-0.6-3.1c-0.5-0.3-0.1-0.3-0.7-0.7c-1.1,0.6-1.3,2.3-1.4,3.8
		C171.8,130.5,171.8,131.3,170.6,131.5L170.6,131.5z M152.2,86.3c0.5-0.6,0.7-0.9,1.4-0.4c0,0.8-0.1,1-0.7,1.4
		C152.2,86.9,152.5,87,152.2,86.3z M151.5,85c-2,0.3-2.5,0.2-3.9,1.3c0.7,1.1,2.3,1.5,3.9,1.4c-0.1,1.4,0.1,2.6,1,3.6l0.1,0.1
		l0.2,0.2c0.9-0.8,1.4-2.2,1.3-3.8c1.6-0.1,3-0.1,3.8-1.4c-1.3-1.2-1.9-1-3.8-1.3c-0.1-1.6-0.3-3.2-1.6-3.7
		C151.9,82.7,151.5,82.7,151.5,85L151.5,85z M38.2,109c0.4-1.1,1.2-0.5,1.7,0C39.6,109.6,38.8,110.2,38.2,109z M37.7,107.8
		c-1.8-0.2-2.8,0.3-3.8,1.2c0.6,1.1,2.2,1.4,3.8,1.3c-0.1,2.2,0.3,2.5,1.1,3.9c1.2-0.5,1.6-2.4,1.5-3.9c1.9,0,2.8-0.3,3.8-1.2
		c-0.5-1.2-2.3-1.5-3.8-1.5c0.1-0.9,0.1-1.5-0.2-2.3c-0.3-0.7-0.6-1.3-1.2-1.5C37.8,105.1,37.7,106,37.7,107.8z M175.8,87.1
		c-1.6-0.9-0.5-2.1,0.9-0.8C176.5,86.8,176.3,86.9,175.8,87.1z M174.4,85c-2.1,0.4-2.1-0.1-3.7,1.3c0.6,1.2,2.1,1.3,3.7,1.4
		c0.4,2,0,2.4,1.4,3.9c1-0.8,1.4-2.2,1.3-3.9c1.6,0.1,3.2-0.3,3.9-1.4c-1-1-2.2-1.2-3.8-1.3c0.1-1.7-0.4-3-1.3-3.8
		c-0.4,0.3-0.3,0.2-0.6,0.7C174.4,83.1,174.4,83.7,174.4,85L174.4,85z M84.1,131.1c0.8,0,0.7,0,1.1,0.5c-0.1,0.7-0.1,0.8-0.8,1.1
		C83.9,132.2,83.8,131.7,84.1,131.1z M79.4,131.8c0.9,0.9,2.2,1.4,3.9,1.3c0.1,1.6,0.3,3.2,1.4,3.9c1-1.3,1.3-2,1.3-3.9
		c1.6,0.1,3.1-0.3,3.8-1.3c-0.7-1.1-2.4-1.4-3.9-1.3c0.1-1.6-0.3-3.4-1.4-3.9c-0.8,1.2-1.3,1.9-1.2,3.9c-1.3-0.1-2.2,0-3.2,0.7
		L79.4,131.8L79.4,131.8z M131,18.3c-0.5,0.5-0.5,0.5-1.2,0.6c-0.2-0.2-0.3-0.4-0.4-0.7c0.4-0.7,0.1-0.3,0.7-0.6
		C130.6,17.7,130.7,17.8,131,18.3L131,18.3z M131.3,21.4l0.1-1.8c2-0.1,2.6-0.2,3.9-1.3c-0.6-1.2-2.3-1.3-3.9-1.5
		c0-2.5-0.5-2.3-1.2-3.8c-1.3,0.8-1.2,2.2-1.6,3.9c-1.5,0-3,0.1-3.7,1.4c1.5,1.2,1.7,1,3.8,1.3c-0.1,1.8,0.3,2.9,1.3,3.8
		C130.9,22.7,130.8,22,131.3,21.4L131.3,21.4z M61.2,109.6c-0.3-0.7-0.1-1.2,0.7-1.6c0.3,0.4,0.5,0.5,0.5,1.3
		C61.8,109.8,61.7,109.8,61.2,109.6z M60.4,107.7c-1.6-0.1-2.9,0.3-3.8,1.2c0.3,0.5,1,0.9,1.5,1.1c0.8,0.3,1.5,0.4,2.4,0.3
		c-0.1,1.2,0.1,3.5,1.5,3.9c0.7-1.2,1.3-1.9,1.1-3.9c1.7,0.1,2.8-0.3,3.9-1.2c-0.4-1.2-2.4-1.6-3.9-1.4c0-1.7-0.3-2.8-1.2-3.8
		C60.6,104.4,60.3,106.2,60.4,107.7z M152.3,41.6c-0.2-0.8-0.1-1.2,0.6-1.6c0.6,0.6,0.6,0.6,0.7,1C153.2,41.6,153.1,41.8,152.3,41.6
		z M151.3,42.3c0.6,0.6,0-0.4,0.2,0.4c0.1,0.2,0.1,0.4,0.1,0.7l0.6,2c0,0.1,0.2,0.4,0.3,0.5c0.3,0.4,0,0.1,0.4,0.4
		c0.1-0.1,0.1-0.1,0.3-0.3c0.9-1.2,1-2,1-3.5l1.8-0.1c0.4-0.3,1.1-0.3,1.8-0.9c0.2-0.2,0.1-0.1,0.3-0.3c-0.8-1.1-2.3-1.3-3.8-1.4
		c-0.1-0.8-0.1-2.9-1.4-3.8c-1.1,0.8-1.4,2.3-1.3,3.8c-1.6-0.1-3.2,0.3-3.9,1.3C148.5,41.9,149.8,42.4,151.3,42.3L151.3,42.3z
		 M130,41.9c-0.2-0.5-0.9-1-0.3-1.5c0.5-0.5,1.1,0.2,1.2,0.4C130.8,41.6,130.6,41.7,130,41.9L130,41.9z M129.2,45.1l0.2,0.2
		c0.6,0.6,0.2,0.5,0.8,0.8c0.6-0.4,0.4-0.6,1-1.1c0-0.9,0.3-1.4,0.3-2.7c0.8,0,1.6,0,2.3-0.3l1.2-0.6c0.4-0.3,0.2-0.1,0.4-0.4
		c-0.9-1.2-2.3-1.4-3.9-1.4c0.1-1.2-0.2-3.2-1.3-3.8c-1,0.9-1.4,2.1-1.2,3.9c-1.7-0.1-3.1,0.3-3.9,1.3c0.8,1.1,2.3,1.3,3.9,1.3
		C128.8,43.9,129.2,44.2,129.2,45.1z M175.4,40.3c0.8,0,0.8,0.1,1.1,0.7l-0.8,0.9c-0.3-0.2,0,0.1-0.4-0.3c-0.1-0.1-0.3-0.4-0.3-0.5
		C175,40.6,175.2,40.6,175.4,40.3z M174.4,39.7c-1.7,0-3,0.3-3.8,1.4c0.9,1.1,2.3,1.2,3.8,1.3c0,1.3,0.1,2.9,1.3,3.8
		c1.1-0.7,1.4-2.6,1.3-3.8c1.6-0.1,3-0.3,3.8-1.3c-0.7-1.1-2.3-1.3-3.9-1.4c0.2-1.4-0.4-3.2-1.3-3.8
		C174.7,36.7,174.5,37.9,174.4,39.7z M197.7,40.4c0.9-0.3,0.7-0.2,1.3,0.4c-0.1,0.7-0.3,0.9-0.7,1.2C197.6,41.3,197.6,41,197.7,40.4
		z M197.1,39.6c-1.6,0-3,0.2-3.9,1.4c0.2,0.2,0.1,0.1,0.3,0.3l0.4,0.3c1.1,0.7,1.7,0.7,3.1,0.7c0,1.5,0.3,3.2,1.3,3.8
		c1.1-0.6,1.4-2.4,1.3-3.8c1.3,0.1,3.1-0.2,3.9-1.3c-0.8-1-2.2-1.3-3.8-1.4c-0.1-1.6-0.3-3.2-1.4-3.8
		C197.3,36.5,197,38.2,197.1,39.6z M39.3,41.9c-0.4-0.1-0.5-0.1-0.8-0.6c-0.5-0.9,0.3-1.9,1.3-0.3L39.3,41.9z M37.7,39.7
		c-1.3-0.1-2,0-3.1,0.7L33.9,41c0.9,0.9,2.1,1.4,3.9,1.3c0,1.8,0.2,2.7,1.3,3.8c1.2-0.8,1.4-2.3,1.4-3.9c1.6,0.1,3-0.3,3.8-1.3
		c-0.8-1.1-2.1-1.4-3.8-1.3c0.1-1.7-0.2-3-1.3-3.8c-0.3,0.2-0.1,0-0.3,0.3C37.8,37.3,37.8,38.5,37.7,39.7z M39.9,18.2
		c-1,1.5-2.6,0.2-1.1-0.6C39.5,17.7,39.5,17.8,39.9,18.2z M34.9,17.3c-0.4,0.4-0.7,0.4-1.1,0.9c0.6,1.1,2.2,1.4,3.8,1.4
		c0,2.2,0.3,2.5,1.1,3.9c0.8-0.3,0.9-1.2,1.4-1.8l0.1-2.1c1.4,0.1,3.3-0.3,3.9-1.4c-0.9-1-2.2-1.3-3.8-1.3c-0.1-1.6-0.3-3.4-1.5-3.8
		c-0.7,1-1.1,2.2-1.1,3.9C36.3,16.8,36.1,17,34.9,17.3z M61.8,62.9c0.4,0.2,0.6,0.4,0.8,0.7c-0.8,0.8-0.9,0.8-1.6,0.2
		C61.2,63.3,61.3,63.2,61.8,62.9z M57.5,63l-0.4,0.7l0.4,0.8c1.1,0.3,1.4,0.6,3,0.5c0.2,1.7,0.2,2.9,1.5,3.8
		c1.1-1.4,1.2-1.7,1.2-3.8c1.8,0.1,2.8-0.3,3.8-1.3c-0.5-1.1-2.4-1.4-3.9-1.3c0.1-1.6-0.3-3.3-1.4-3.9c-1,1.3-1.2,1.9-1.2,3.9
		C59.1,62.2,58.5,62.4,57.5,63z M3.9,98.2c0.6-2,3-0.6,1.1,0.6C4.2,98.6,4.4,98.6,3.9,98.2z M3.7,96.7c-1.7,0-3.2,0.2-3.9,1.3
		c2.8,1.9,3.6,0.5,3.8,1.7l0.1,0.7c0,0.4,0.1,0.7,0.3,1.1c0.4,1,0.6,1.2,1.1,1.5c0.8-1.4,1.2-1.6,1.1-3.8c1.8-0.1,2.8,0,3.7-1.3
		c-0.7-1-2.3-1.2-3.7-1.1c-0.1-2.4,0-2.2-1.1-3.9C3.9,93.5,3.4,95.3,3.7,96.7z M187.1,98.7c-1.9-0.6-0.5-2.7,0.8-0.8
		C187.7,98.4,187.6,98.5,187.1,98.7z M185.8,96.8c-1.5-0.1-3.3,0.1-3.8,1.4c1.3,0.9,1.8,1,3.8,1.1c-0.1,1.4,0.2,3.2,1.4,3.8
		c0.8-1.6,1.2-1.5,1.1-3.9c1.3,0.2,1.9,0.1,3.1-0.6l0.5-0.6l0.1-0.1c-1.2-1-1.9-1.3-3.8-1.1c0-0.6,0.1-3-1.3-3.9
		C186,94,185.6,94.9,185.8,96.8L185.8,96.8z M3.9,7.4C4.1,6.3,5.5,6.1,5.6,7C5.7,7.8,4.7,8.5,3.9,7.4z M3.7,6C2.6,6,1.6,5.9,0.4,6.7
		C-0.3,7.2,0,6.9-0.2,7.5c1.6,0.6,1.6,1.2,3.9,0.9c-0.3,1.8,0.1,2.6,1,3.8C5.9,11.7,6.1,9.8,6,8.4c1.3,0,3.1-0.1,3.8-1.3
		c-1-1-2-1.3-3.8-1.2C5.9,4.1,6,2.9,4.7,2C3.9,3.4,3.4,4.1,3.7,6z M140.5,7c0.4-0.3,0.4-0.4,1.2-0.5C143.4,8.3,140.8,8.7,140.5,7z
		 M140.3,6c-1.4-0.1-1.8-0.1-3.1,0.6l-0.8,0.6c0.8,1.2,2.3,1.2,3.8,1.3c-0.2,1.5,0.2,2.9,1.2,3.8c1-0.7,1.4-2.2,1.2-3.9
		c1.6,0.1,3.2-0.3,3.8-1.2c-1.1-1-2-1.3-3.8-1.1c-0.1-1.5,0-3-1.3-3.8C140.4,3.2,140.2,4.6,140.3,6z M72.3,75
		c0.4-0.3,0.5-0.4,1.1-0.4C75.2,76.3,72.6,76.8,72.3,75z M72.1,74.1c-0.9-0.1-1.4-0.1-2.2,0.2l-1.6,1c0.7,1.2,2.4,1.3,3.8,1.3
		c-0.2,1.8,0.2,2.7,1.1,3.8c1.1-0.9,1.4-2.5,1.2-3.9c1.5,0.2,3.3-0.2,3.8-1.2c-0.8-1-2.3-1.3-3.7-1.2c-0.3-1.8,0.1-2.6-1.3-3.8
		C72.3,71.1,71.9,72.6,72.1,74.1z M208.9,29.9c0.4-0.7,1.6-1.4,1.8-0.2c0.1,0.6-0.2,0.9-0.8,0.9C209.4,30.7,209.1,30.2,208.9,29.9z
		 M208.7,28.7c-1.6-0.2-3.1,0.2-3.8,1.2c1.1,1,2,1.3,3.8,1.2c0.2,1.7,0.1,3,1.3,3.9c0.9-0.8,1.2-2.3,1.2-3.8
		c1.7,0.1,2.8-0.2,3.8-1.2c-0.3-0.5-1-0.8-1.6-1.1c-0.9-0.4-1.3-0.2-2.3-0.2c0.1-1.5-0.2-2.9-1.1-3.8c-0.3,0.2-0.1,0-0.3,0.3
		C208.7,26.1,208.6,27.4,208.7,28.7z M232.6,8.2c-1.1-0.4-1.2-1.8-0.2-1.8C233.4,6.5,233.7,7.6,232.6,8.2z M231.4,6
		c-1.6,0-3,0.2-3.9,1.2c0.6,1.1,2.7,1.4,3.8,1.3c-0.2,1.5,0.2,3.3,1.3,3.8c0.7-1.2,1.2-1.8,1.1-3.8c0.9,0,1.4,0.1,2.3-0.3
		c0.5-0.2,1.2-0.6,1.6-1.1c-1.2-1.2-2-1.1-3.9-1.2c0.2-1.6-0.2-3.1-1.3-3.8C231.7,3.3,231.1,4.2,231.4,6z M3.9,143.1
		c0.5-0.5,0.7-0.7,1.7-0.5c0.2,0.7,0.2,1.2-0.5,1.4C4.2,144.2,4,143.5,3.9,143.1z M3.7,142.1c-2.8-0.2-2.2,0.4-3.9,1
		c0.3,0.6,0.4,0.7,1.5,1.2c1.1,0.4,1.3,0.3,2.4,0.3c-0.2,2.2,0.3,2.4,1,3.7c1.4-0.7,1.3-2.2,1.4-3.8c2,0.1,2.7-0.2,3.8-1.2
		c-1.1-0.9-2-1.3-3.9-1.2c0.1-1.5-0.2-3.2-1.3-3.8C3.8,139.3,3.5,140.5,3.7,142.1z M51.4,97.9c-0.4,0.8-1.1,1.2-1.8,0.4
		C49.7,96.9,50.9,97,51.4,97.9z M49.2,96.8c-1.4-0.2-2.9,0.1-3.7,1.1c0.7,1.1,2.1,1.2,3.7,1.3c0.1,1.9,0.1,2.7,1.3,3.7
		c1-0.8,1.3-2.3,1.2-3.8c0.9,0.1,1.4,0.2,2.2-0.1c0.5-0.2,1.3-0.6,1.6-1.1c-1.1-1.1-2-1.2-3.8-1.2c0-1.8-0.1-2.7-1.2-3.8
		C49.4,93.6,49.2,95.2,49.2,96.8z M27.2,30.7c-0.2-0.6-0.3-1,0.1-1.5c0.9,0,1,0.1,1.4,0.8C28.4,30.6,28,30.7,27.2,30.7z M26.6,28.7
		c-1.7-0.2-3.1,0.2-3.9,1.2c0.8,1,2.3,1.3,3.9,1.2c-0.2,1.6,0.2,3.1,1.2,3.9c0.9-0.7,1.2-2.4,1.2-3.8c2-0.1,2.6-0.2,3.8-1.2
		c-1-1.2-2.1-1.1-3.9-1.3c0.1-1.5-0.2-2.9-1.2-3.7C26.6,25.6,26.4,27.5,26.6,28.7z M188,143.1c-0.2,0.7-0.4,0.9-1.2,0.9
		c-0.4-0.4-0.8-0.7-0.4-1.4C187.2,142.3,187.6,142.7,188,143.1z M185.8,142.1c-2.8-0.1-2.1,0.4-3.9,1c0.6,1.4,2.6,1.5,3.9,1.4
		c0.1,1.9,0.1,2.7,1.2,3.8c1-0.8,1.4-2.2,1.3-3.8c1.5,0.1,3.3-0.2,3.8-1.4c-1.6-0.7-1.4-1.2-3.9-1c0.1-1.4-0.2-3.3-1.3-3.8
		C186,139.2,185.6,140.6,185.8,142.1z M165.4,75.5c-0.4,0.5-0.3,0.5-1,0.6c-0.7-0.5-0.8-0.6-0.6-1.4
		C164.5,74.1,165.2,74.8,165.4,75.5L165.4,75.5z M164.3,70.2c-0.8,1.3-1.4,1.9-1.1,3.8c-1.3,0-3.3,0.1-3.9,1.5
		c1.6,0.7,1.5,1.2,3.9,1c-0.1,1.6,0.2,3.3,1.2,3.8c0.9-0.9,1.3-2.3,1.1-3.8c1.2,0.1,3.1,0,3.9-1.2c-1.1-1-2-1.3-3.8-1.2
		C165.5,72.4,165.5,71.1,164.3,70.2z M95.4,97.2c0.9-0.1,1.2,0.1,1.5,0.7c-0.3,0.6-0.6,0.9-1.4,0.8C95,98.2,95.1,97.8,95.4,97.2z
		 M94.6,96.7c-1.7,0.2-2.6,0.1-3.7,1.3l0.6,0.6c1.4,0.8,1.8,0.8,3.2,0.6c-0.2,1.9,0.2,2.8,1.2,3.9l0.6-0.7c0.1-0.2,0.3-0.6,0.4-0.9
		c0.3-0.8,0.2-1.4,0.4-2.2c2-0.2,2.5-0.2,3.7-1.3c-1-0.9-2.2-1.2-3.9-1.2c0-1.7-0.3-3.1-1.4-3.8C94.9,94,94.8,95,94.6,96.7z
		 M50.7,6.3c0.2,0.3,0.4,0.5,0.5,1.1C49.7,9.3,48.8,6.6,50.7,6.3z M51.6,6c0.2-1.6-0.2-2.9-1.2-3.8c-1.3,1-1.1,2.1-1.3,3.8
		c-1.9-0.2-2.5,0.1-3.8,1.2l0.8,0.6c1.1,0.7,1.8,0.8,3.2,0.6c-0.1,1.4-0.1,2.1,0.6,3.2l0.6,0.7c0.9-1.1,1.3-2,1.2-3.9
		c1.6,0.1,3.1-0.2,3.7-1.2C54.5,6,53.3,6.1,51.6,6z M118.8,121.7c-1.5-1-0.4-2.5,0.8-1.4C119.7,121.1,119.4,121.4,118.8,121.7z
		 M115.4,121.8c0.8,0.3,1.3,0.2,2.2,0.2c-0.2,1.9,0.2,2.5,1.1,3.9c1.1-0.6,1.4-2.3,1.3-3.9c1.5,0.2,3.3-0.1,3.9-1.4
		c-1.6-0.6-1.5-1.3-3.9-1c0.1-1.2-0.1-3.3-1.2-3.9c-1,0.9-1.2,2.3-1.1,3.9c-1.3-0.2-2.1-0.1-3.2,0.6c-0.1,0.1-0.2,0.2-0.3,0.2
		c-0.3,0.3,0-0.1-0.3,0.3L115.4,121.8L115.4,121.8z M140.5,143.6c0.2-0.9,0.8-1.2,1.6-1c0.1,0.6,0.1,1.1-0.5,1.4
		C141.2,144.2,140.8,143.8,140.5,143.6L140.5,143.6z M140.3,142c-1.6,0.1-3.1,0.2-3.9,1.3c1,1,2.3,1.1,3.8,1.2
		c0,1.8,0.2,2.7,1.2,3.8c1.2-0.8,1.2-2.3,1.3-3.8c1.7,0,2.8-0.3,3.7-1.2c-0.6-1.1-2.2-1.4-3.8-1.3c0.1-1.3,0.1-2-0.7-3.1l-0.6-0.7
		C140.6,139.2,140.1,140.3,140.3,142z M96.7,7.2c-0.2,0.7-0.3,0.7-0.8,1C94.3,7.4,95.5,5.2,96.7,7.2z M94.8,6.1
		c-1.6-0.1-2.9,0.2-3.9,1.1c0.6,1,2.3,1.4,3.9,1.2c-0.2,1.8,0.2,2.8,1.2,3.9c0.2-0.2,0.1-0.1,0.3-0.3l0.7-1.3
		c0.3-0.7,0.2-1.4,0.3-2.2c1.7-0.1,2.8-0.3,3.7-1.3c-0.8-0.9-2.3-1.4-3.8-1.1c-0.2-1.7,0-2.9-1.2-3.9C94.9,3,94.5,4.4,94.8,6.1z
		 M73.8,30.6c-1.8,0.3-1.7-1-0.6-1.7c0.4,0.2,0.6,0.4,0.8,0.8C74.2,30.3,73.8,30.5,73.8,30.6z M74.5,31.2c2-0.3,2.4-0.1,3.7-1.3
		c-0.6-1-2.2-1.4-3.8-1.2c0.1-1.5-0.1-2.7-1.2-3.9L73,25c-0.9,1.1-1,2.4-1.1,3.7c-1.5,0-2.9,0.2-3.7,1.3l0.1,0.1l1.5,0.9
		c0.8,0.3,1.4,0.2,2.2,0.2c-0.1,1.6,0.1,3.2,1.3,3.8C74.4,33.7,74.5,32.9,74.5,31.2z M209.8,76.3c-1.2-1-0.7-2.3,0.9-1.5
		C210.8,75.7,210.5,76.1,209.8,76.3z M204.9,75.3c0.7,1.1,2.6,1.4,3.8,1.3c0,1.8,0.1,2.9,1.3,3.8c0.9-0.9,1.4-2.1,1.1-3.8
		c1.5-0.1,3-0.1,3.8-1.3c-0.9-1-2.2-1.3-3.8-1.2c0.1-1.7-0.2-2.9-1.1-3.8c-1.1,0.7-1.4,2.3-1.2,3.8
		C207.1,74.1,205.8,74.3,204.9,75.3z M118.2,76.1c-0.5-2.2,1.4-1.8,1.6-0.6C119.3,76.1,119,76.2,118.2,76.1z M117.6,74.1
		c-1.9-0.2-2.8,0.2-3.9,1.2c1.1,1,2,1.3,3.9,1.3c-0.1,1.6,0.3,2.8,1.1,3.8c1.2-0.6,1.4-2.6,1.3-3.8c1.3,0.1,2.4,0,3.5-0.9l0.4-0.4
		c-1.1-1-2-1.4-3.9-1.2c0.1-1.3,0-3.1-1.2-3.8C117.8,71.2,117.5,72.4,117.6,74.1L117.6,74.1z M187.9,52.4c-0.3,1.1-1.8,1.3-1.8,0.2
		C186.1,51.3,187.5,51.8,187.9,52.4z M182,52.6c1.1,1,2,1.3,3.8,1.2c0,1.5,0.1,3.2,1.3,3.7c1.1-1,1.1-2.2,1.1-3.8
		c1.8,0.1,2.7-0.2,3.8-1.1c-0.3-0.5-0.9-0.8-1.5-1.1c-0.9-0.4-1.3-0.3-2.3-0.2c0.1-1.4-0.1-3.3-1.3-3.8c-0.9,1-1.2,2.2-1.1,3.9
		C184.3,51.2,182.7,51.6,182,52.6L182,52.6z M95.3,142.7c1.7-0.9,2.1,1.3,0.5,1.6C95.2,143.8,95,143.6,95.3,142.7z M94.7,142.1
		c-1.2-0.1-3.2,0.1-3.9,1.2c1,0.9,2.3,1.3,3.9,1.2c-0.1,0.9-0.1,1.4,0.2,2.2l0.8,1.4l0.1,0.1l0.1,0.1c0.2-0.2,0.1-0.1,0.3-0.3
		c1.2-1.5,0.9-2.3,1-3.5c1.8,0.2,2.8-0.4,3.8-1.1c-0.7-1.1-2.2-1.4-3.9-1.3c0.1-1.9-0.1-2.7-1.2-3.8C94.8,139,94.6,140.9,94.7,142.1
		z M50.3,142.3c1.3,0.4,1,1.6,0.1,1.8c-0.6,0.1-0.9-0.3-0.8-0.9C49.7,142.8,50,142.5,50.3,142.3z M51.6,142c0.1-1.5-0.2-2.9-1.1-3.8
		c-1.2,0.7-1.4,2.7-1.2,3.9c-0.9-0.1-1.6-0.1-2.4,0.2c-0.3,0.1-0.5,0.2-0.8,0.4l-0.7,0.6c0.9,0.9,2.3,1.3,3.9,1.2
		c0,1-0.1,1.5,0.2,2.4c0.3,0.8,0.5,1.1,1,1.4c1-0.8,1.3-2.1,1.2-3.8c1.7-0.2,3,0,3.8-1.5C53.6,142,54.2,142.2,51.6,142L51.6,142z
		 M118.3,30.7c-0.2-0.6-0.2-0.8-0.1-1.5c0.9-0.1,1.4,0.1,1.6,0.8C119.5,30.5,119.2,30.8,118.3,30.7z M117.6,28.7
		c-1.4-0.2-2.7,0.1-3.7,1.1l-0.1,0.1c0.1,0.1,0.1,0.1,0.3,0.3c1.2,0.9,2.1,1,3.5,0.9c0.2,2.4,0,2.2,1.2,3.8c1-0.7,1.4-2.3,1.2-3.8
		c1.3,0,3.2-0.1,3.9-1.4c-1.6-0.6-1.4-1.3-3.9-1c0.2-1.5-0.1-3.3-1.2-3.8C117.9,25.8,117.6,27,117.6,28.7z M163.4,29.7
		c0.5-0.4,0.7-0.6,1.7-0.5l-0.1,1.2C164.3,30.8,163.7,30.7,163.4,29.7L163.4,29.7z M163.2,28.7c-2.8,0-2,0.5-3.9,1
		c0.2,0.5,0.1,0.4,0.7,0.8c1.2,0.8,2,0.7,3.2,0.7c-0.2,1.7,0.4,2.8,1.1,3.9c1.1-0.6,1.4-2.3,1.3-3.9c1.9,0.2,2.9-0.2,3.9-1.2
		c-1.3-1-1.8-1.3-3.9-1.2c0.1-1.3-0.1-3.3-1.4-3.8C163.6,26.2,163,26.8,163.2,28.7z M4.1,53.2c-0.1-0.8,0-1.3,0.8-1.6
		C6.1,52.3,6,53.7,4.1,53.2z M0.1,52.9c0.9,0.9,2.4,1,3.6,0.9c-0.3,1.7,0.4,2.9,1.1,3.9c1.1-0.7,1.4-2.3,1.3-3.9
		c1.5,0,3.4-0.1,3.9-1.4c-1.6-0.8-1.6-1.1-3.9-1c0.3-2.7-0.4-2.2-1-3.9c-1.2,0.6-1.6,2.4-1.4,3.9c-3.2-0.1-2.2,0.4-3.9,1
		C-0.2,52.3,0.1,52.9,0.1,52.9z M140.5,97.9c0.5-0.8,1.9-1.3,1.8,0C142.2,98.9,141,99,140.5,97.9z M140.3,96.8
		c-1.6-0.2-3.1,0.2-3.9,1.1c0.8,0.9,2.2,1.4,3.8,1.2c-0.1,1.6,0.2,2.9,1.2,3.9c1-0.6,1.4-2.3,1.2-3.9c1.9,0.2,2.6-0.4,3.8-1
		c-0.6-1.2-2.3-1.5-3.8-1.4c-0.2-1.7,0-2.9-1.3-3.9C140.5,93.8,140.1,95.2,140.3,96.8z M231.9,97.3c1.8-0.6,2,0.9,0.8,1.6
		C231.8,98.6,231.7,98.1,231.9,97.3z M227.6,97.9c0.6,1.1,2.7,1.3,3.8,1.3c0,0.9-0.1,1.5,0.2,2.3c0.4,1.1,0.6,1.3,1.1,1.5
		c0.7-1.2,1.2-2,1.1-3.9c1.2,0.1,3.1,0,3.8-1.2c-1-1.1-2.1-1.2-3.8-1.2c-0.2-1.7-0.2-3.1-1.4-3.8c-0.9,1.1-1.1,2-1.2,3.6
		C230,97.1,229,96.4,227.6,97.9L227.6,97.9z M95.4,53.3C95,52.5,95.2,52,96,51.6c0.6,0.3,0.6,0.3,0.8,1
		C96.3,53.3,96.2,53.4,95.4,53.3z M94.7,51.4c-1.5-0.2-3.3,0.3-3.9,1.2c0.9,1,2.3,1.3,3.9,1.1c-0.1,0.9-0.2,1.4,0.1,2.2
		c0.1,0.3,0.2,0.5,0.4,0.8l0.6,0.8c1.2-1,1.2-2.7,1.3-3.9c1.9,0.2,2.7-0.4,3.8-1.1c-0.7-1-2.2-1.5-3.9-1.2c0.1-1.7-0.2-3-1.2-3.9
		c-0.2,0.2-0.1,0-0.3,0.3L94.8,49C94.5,50,94.6,50.4,94.7,51.4z M187.1,8.2c-1.3-0.5-1.3-2.3,0.6-1.6C187.9,7.5,187.7,7.8,187.1,8.2
		z M188.2,8.5c1.3,0,2.5,0,3.6-1c0.2-0.2,0.1,0,0.3-0.3c-1-1.1-2.1-1.3-3.9-1.2c0.2-1.7-0.1-2.7-1-3.7c-1.2,0.5-1.4,2.2-1.3,3.7
		c-1.5-0.1-3.2,0.2-3.7,1.4c1.1,0.9,2,1.1,3.7,1.1c-0.1,1.5,0.2,3.2,1.4,3.8C187.9,10.8,188.4,10.7,188.2,8.5z M140.6,52.4
		c0.5-0.9,1.8-0.8,1.7,0.4C142.2,53.8,140.8,53.4,140.6,52.4z M136.5,52.6c1,0.9,2.1,1.3,3.8,1.1c-0.1,1.5,0.1,2.7,1.2,3.8
		c1.2-0.9,1.3-2.2,1.3-3.9c1.6,0.1,2.8-0.3,3.7-1.1c-0.5-1.2-2.7-1.4-3.8-1.2c0.1-1.7-0.2-3.1-1.2-3.8c-1,1-1.3,2.1-1.2,3.8
		C138.8,51.2,137.2,51.5,136.5,52.6L136.5,52.6z M27.2,120c0.7-0.4,1.3,0.3,1.6,0.8C27.9,122.1,26.5,121.7,27.2,120z M26.6,119.6
		c-1.6-0.2-3.2,0.2-3.8,1.2c0.8,1,2.3,1.2,3.8,1.2c-0.1,1.7,0.2,3,1.2,3.8c0.4-0.3,0.2-0.1,0.6-0.7c0.8-1.3,0.6-1.8,0.6-3.1
		c1.6,0.2,2.8-0.2,3.8-1.1c-0.8-1-2.1-1.5-3.9-1.2c0.1-1.6-0.1-3.3-1.4-3.9C26.9,117.3,26.3,117.2,26.6,119.6L26.6,119.6z
		 M210.9,121c-1.8,1.2-2.4-0.2-1.3-1.1C210.4,120,210.7,120.3,210.9,121z M204.9,120.8c0.7,1,2.3,1.3,3.8,1.2
		c-0.2,1.5,0.2,3.2,1.2,3.8c1-1,1.2-2.2,1.2-3.8c1.6-0.1,3-0.1,3.7-1.4c-1-0.8-2.1-1.3-3.7-1c0-2.2-0.2-2.4-1.1-3.9
		c-1.4,0.7-1.1,2.5-1.5,3.7C208.3,119.6,206.1,119.2,204.9,120.8L204.9,120.8z M233.6,143.1c-0.2,0.7,0.1,0.2-0.4,0.7
		C231.5,145.5,230.9,140.9,233.6,143.1z M232.6,138.3c-1.3,0.7-1.4,2.6-1.2,3.8c-1.2-0.1-3.2,0-3.9,1.2c0.9,0.9,2.3,1.3,3.8,1.1
		c0.1,1.7,0.1,2.9,1.3,3.9c1-1,1.3-2,1.2-3.9c1.9,0.2,2.7-0.2,3.9-1.2c-1-1-2.1-1.3-3.9-1.2C233.8,140.5,233.5,139.3,232.6,138.3
		L232.6,138.3z M233.5,52.6c-0.6,0.9-2,1.2-1.8-0.2C231.9,51.4,233.1,51.7,233.5,52.6z M227.5,52.6c0.9,1,2.3,1.2,3.8,1.2
		c-0.2,1.7,0.4,2.8,1.1,3.9c1-0.7,1.4-2.3,1.3-3.9c1.1,0.1,3.3-0.1,3.8-1.3c-1-0.9-2.2-1.2-3.8-1.1c0.2-1.6-0.1-3.2-1.4-3.9
		c-0.5,1.7-1.2,1.4-1,3.9C230.2,51.3,228.1,51.5,227.5,52.6L227.5,52.6z M72.3,121c0.2-1.2,1.5-1.4,1.7-0.5
		C74.5,122.1,72.7,121.3,72.3,121z M72,119.6c-1.5-0.2-3,0.2-3.8,1.2c0.9,1,2.1,1.3,3.8,1.1c-0.2,1.6,0.2,2.9,1.2,3.9
		c1.1-1,1.2-2.1,1.3-3.9c1.6,0.1,2.9-0.2,3.8-1.1c-0.6-1.1-2.4-1.4-3.9-1.2c0.1-1.6-0.2-3.1-1.2-3.8C72.2,116.5,72,118,72,119.6
		L72,119.6z M163.7,121.4l-0.1-1.1c0.8-0.5,1.2-0.4,1.8,0.3C165.2,121.4,164.7,121.7,163.7,121.4z M163.2,119.5
		c-1,0-1.3-0.2-2.3,0.2l-1.5,1.1c1.1,1,2,1.3,3.9,1.2c-0.3,1.8,0.4,2.8,1,3.9c1.1-0.7,1.5-2.4,1.3-3.9c1.1,0,3.3,0,3.8-1.3
		c-1.1-0.9-2.2-1.2-3.8-1c0.2-2-0.1-2.7-1.1-3.8C163.4,116.4,163.1,117.9,163.2,119.5L163.2,119.5z M5.4,74.3
		c1.1,1.4-0.3,2.2-1.1,1.7C3.8,75.6,3.4,73.8,5.4,74.3z M3.2,73.4c-1.6-0.3-2.9,0-2.9,1.7s1.3,1.9,2.9,1.8c-0.2,1.6,0,2.8,1.6,2.9
		c0.8,0,1.3-0.4,1.6-0.8c0.6-0.7,0.3-1.2,0.2-2.1c0.8,0.1,1.3,0.3,2-0.2c1.4-1,1.3-3.8-2-3.3c0.2-1.5-0.1-2.8-1.7-2.9
		C3.3,70.5,2.9,71.8,3.2,73.4z"/>
</g>
</svg>
