<?xml version="1.0" encoding="utf-8"?>
<!-- Generator: Adobe Illustrator 26.0.1, SVG Export Plug-In . SVG Version: 6.00 Build 0)  -->
<svg version="1.1" id="Слой_1" xmlns:xodm="http://www.corel.com/coreldraw/odm/2003"
	 xmlns="http://www.w3.org/2000/svg" xmlns:xlink="http://www.w3.org/1999/xlink" x="0px" y="0px" viewBox="0 0 238.1 150.2"
	 style="enable-background:new 0 0 238.1 150.2;" xml:space="preserve">
<style type="text/css">
	.st0{fill:#2B2A29;}
	.st1{font-family:'MyriadPro-Regular';}
	.st2{font-size:7.924px;}
	.st3{fill-rule:evenodd;clip-rule:evenodd;fill:#2B2A29;}
</style>
<g id="Слой_x0020_1">
	<g id="_2385389553088">
		<path class="st0" d="M119.1,44.1c-19.1,0-34.6,15.5-34.6,34.6s15.5,34.6,34.6,34.6c19.1,0,34.6-15.5,34.6-34.6
			S138.2,44.1,119.1,44.1z M119.1,41.3c-20.7,0-37.4,16.8-37.4,37.4c0,20.7,16.8,37.4,37.4,37.4c20.7,0,37.4-16.8,37.4-37.4
			C156.5,58,139.7,41.3,119.1,41.3z M119.1,115.8C98.6,115.8,82,99.2,82,78.7c0-20.5,16.6-37.1,37.1-37.1
			c20.5,0,37.1,16.6,37.1,37.1C156.1,99.2,139.5,115.8,119.1,115.8z M119.1,42.9c-19.8,0-35.8,16-35.8,35.8c0,5.9,1.4,11.5,3.9,16.4
			c5.9,11.7,18,19.8,32.1,19.8c19.8,0,35.8-16,35.8-35.8c0-5.6-1.3-10.9-3.6-15.6C145.8,51.3,133.4,42.9,119.1,42.9z M119.1,113.9
			c-13.7,0-25.5-7.8-31.3-19.1C85.4,90,84,84.7,84,79c0-19.4,15.8-35.2,35.2-35.2c13.7,0,25.5,7.8,31.3,19.1
			c2.4,4.7,3.7,10.1,3.7,15.7C154.2,98.1,138.5,113.9,119.1,113.9z M123.6,112c16.3-2.2,28.9-16.2,28.9-33.1c0-5.7-1.4-11.1-4-15.8
			c2.6,4.7,4.1,10.2,4.1,16C152.6,96,139.9,110,123.6,112L123.6,112z M150.9,78.1C150.9,78.1,150.8,78.1,150.9,78.1l-8.5,0l-2.1-2.2
			c-0.5-3.4-1.8-6.5-3.6-9.1l0,0l0.2-0.2l-1.1-1.5l-0.2,0.2l0,0c-3.1-3.6-7.4-6.2-12.2-7.1c-0.1,0-0.2,0-0.2,0v-0.2
			c0-0.2-0.1-0.4-0.2-0.5c0.1,0,0.2,0,0.2,0c8.9,1.5,15.8,8.3,17.6,17.2c0,0,0,0.1,0,0.1l2.4,2.5c0,0,0.1,0,0.1,0h7.5l1.1,0.7
			c0,0.2,0,0.3,0,0.5C151.9,78.4,150.9,78.1,150.9,78.1z M151.8,77.5l-0.9-0.6c0,0-0.1,0-0.1,0h-7.4l-2.4-2.4
			c-0.9-4.6-3.2-8.7-6.6-11.8c-3.4-3.2-7.7-5.2-12.4-5.8c0,0-0.1,0-0.2,0c0,0-0.1,0.1-0.1,0.1v0.1h-0.4v-1
			c5.4,0.4,10.2,2.8,13.9,6.4l0,0l-0.1,0.1l1.2,1.4l0.2-0.1c2.2,2.6,3.9,5.7,4.8,9.2c0,0,0,0.1,0,0.1l2.8,2.9c0,0,0.1,0,0.1,0h6.5
			l1,0.6C151.8,77,151.8,77.2,151.8,77.5L151.8,77.5z M151.8,76.3l-0.8-0.5c0,0-0.1,0-0.1,0h-6.4l-2.7-2.8c-0.9-3.5-2.6-6.7-4.9-9.3
			l0.2-0.2l-1.2-1.4l-0.2,0.2l0,0c-3.8-3.7-8.8-6.1-14.3-6.5c0,0-0.1,0-0.2,0c0,0,0,0.1,0,0.1v1.2h-0.6v-2
			c10.1,0.4,18.8,7.2,21.7,16.9c0,0,0,0.1,0.1,0.1L145,75c0,0,0.1,0,0.1,0h5.7l0.9,0.6C151.7,75.8,151.8,76.1,151.8,76.3L151.8,76.3
			z M151.7,75.1l-0.7-0.4c0,0-0.1,0-0.1,0h-5.7l-2.7-2.8c-3-9.9-11.9-16.8-22.2-17.2c0,0-0.1,0-0.1,0c0,0,0,0.1,0,0.1V57h-0.9
			c-0.1,0-0.2,0-0.4,0.1v-0.5h-1.4h-1.2V56l1.3,0c0,0,0,0,0.1,0h1.2v-1.4h-1.4v0h-1.4c-0.1,0-0.2,0.1-0.2,0.2V57l0,0h-0.5v-1.6
			c0,0,0-0.1-0.1-0.2c0,0-0.1,0-0.2,0c-11.4,2.1-19.6,12.1-19.6,23.6c0,5.7,2,11.2,5.7,15.6c3.6,4.3,8.7,7.2,14.2,8.1h0
			c0,0,0.1,0,0.1,0c0,0,0.1-0.1,0.1-0.2v-2.2h0.4c0,0,0.1,0,0.1,0v2.5c0,0.1,0.1,0.2,0.2,0.2h1.6c0,0,0,0,0,0h0.9v-1.4h-1.4h-0.9
			v-0.6h1.3h0h1v-0.7c0.1,0.1,0.2,0.1,0.4,0.1h1.6l0,2.4c0,0,0,0.1,0,0.1c0,0,0.1,0,0.1,0l0,0c7.2-0.4,13.8-4,18.1-9.9
			c0.1-0.1,0-0.2,0-0.3c-0.1-0.1-0.2,0-0.3,0c-4.2,5.7-10.5,9.3-17.6,9.8l0-2.2h0.5v1.3c0,0,0,0.1,0.1,0.1c0,0,0.1,0,0.1,0l0,0
			c4.2-0.4,8.2-2,11.5-4.5l0.1,0.1l1.5-1.2l-0.1-0.1c2.4-2.2,4.4-4.9,5.8-7.9h5.5c-0.3,0.9-0.7,1.8-1.1,2.6l-0.5-0.2
			c-0.4,1-1,1.9-1.5,2.8l0.4,0.3c-0.2,0.4-0.5,0.8-0.8,1.2l-0.4-0.3c-0.6,0.9-1.3,1.7-2,2.5l0.4,0.4c-0.3,0.4-0.6,0.7-1,1l-0.4-0.4
			c-0.7,0.8-1.5,1.5-2.4,2.2l0.3,0.4c-0.4,0.3-0.7,0.6-1.1,0.8l-0.3-0.4c-0.8,0.6-1.8,1.2-2.7,1.8l0.2,0.4c-0.4,0.2-0.8,0.4-1.2,0.7
			l-0.2-0.4c-1,0.5-1.9,0.9-2.9,1.3l0.2,0.5c-0.4,0.2-0.9,0.3-1.3,0.4l-0.2-0.5c-1,0.3-2,0.6-3.1,0.8l0.1,0.5
			c-0.4,0.1-0.9,0.2-1.4,0.2l-0.1-0.5c-1,0.2-2.1,0.2-3.2,0.3v0.5c-0.2,0-0.5,0-0.7,0c-0.2,0-0.4,0-0.7,0v-0.5c-1,0-2.1-0.1-3.2-0.3
			l-0.1,0.5c-0.4-0.1-0.9-0.1-1.4-0.2l0.1-0.5c-1-0.2-2.1-0.5-3.1-0.8l-0.2,0.5c-0.4-0.2-0.9-0.3-1.3-0.4l0.2-0.5
			c-1-0.4-2-0.8-2.9-1.3l-0.2,0.4c-0.4-0.2-0.8-0.4-1.2-0.7l0.2-0.4c-0.9-0.5-1.8-1.1-2.7-1.8l-0.3,0.4c-0.4-0.3-0.7-0.6-1.1-0.8
			l0.3-0.4c-0.8-0.7-1.6-1.4-2.4-2.2l-0.4,0.4c-0.3-0.3-0.6-0.7-1-1l0.4-0.3c-0.7-0.8-1.4-1.6-2-2.5l-0.4,0.3
			c-0.3-0.4-0.5-0.8-0.8-1.2l0.4-0.3c-0.6-0.9-1.1-1.8-1.5-2.8l-0.5,0.2c-0.2-0.4-0.4-0.8-0.6-1.3l0.5-0.2c-0.4-1-0.8-2-1-3
			l-0.5,0.1c-0.1-0.4-0.2-0.9-0.4-1.4l0.5-0.1c-0.2-1-0.4-2.1-0.5-3.2l-0.5,0c0-0.4-0.1-0.9-0.1-1.4l0.5,0c0-0.6,0-1.1,0-1.7
			c0-0.5,0-1,0-1.5l-0.5,0c0-0.5,0.1-0.9,0.1-1.4l0.5,0c0.1-1,0.3-2.1,0.5-3.2l-0.5-0.1c0.1-0.4,0.2-0.9,0.3-1.4l0.5,0.1
			c0.3-1,0.6-2,1-3L93.2,68c0.2-0.4,0.4-0.8,0.6-1.3l0.5,0.2c0.4-1,1-1.9,1.5-2.8l-0.4-0.3c0.2-0.4,0.5-0.8,0.8-1.2l0.4,0.3
			c0.6-0.9,1.2-1.7,2-2.5L98,60.1c0.3-0.4,0.6-0.7,0.9-1l0.4,0.4c0.7-0.8,1.5-1.5,2.3-2.2l-0.3-0.4c0.4-0.3,0.7-0.6,1.1-0.8l0.3,0.4
			c0.8-0.6,1.8-1.2,2.7-1.8l-0.2-0.4c0.4-0.2,0.8-0.4,1.2-0.7l0.2,0.4c0.9-0.5,1.9-0.9,2.9-1.3l-0.2-0.5c0.4-0.2,0.9-0.3,1.3-0.4
			l0.2,0.5c1-0.3,2-0.6,3.1-0.8l-0.1-0.5c0.4-0.1,0.9-0.2,1.4-0.2l0.1,0.5c1-0.2,2.1-0.2,3.2-0.3v-0.5c0.3,0,0.5,0,0.8,0
			c0.2,0,0.4,0,0.6,0V51c1.1,0,2.1,0.1,3.2,0.2l0.1-0.5c0.5,0.1,0.9,0.1,1.4,0.2l-0.1,0.5c1,0.2,2.1,0.4,3.1,0.8l0.2-0.5
			c0.4,0.1,0.9,0.3,1.3,0.4l-0.2,0.5c1,0.4,2,0.8,2.9,1.3l0.2-0.5c0.4,0.2,0.8,0.4,1.2,0.6l-0.3,0.5c0.9,0.5,1.8,1.1,2.7,1.7
			l0.3-0.4c0.4,0.3,0.8,0.6,1.1,0.8l-0.4,0.4c0.8,0.7,1.6,1.4,2.4,2.2l0.4-0.4c0.3,0.3,0.6,0.7,1,1l-0.4,0.4c0.7,0.8,1.4,1.6,2,2.5
			l0.4-0.3c0.3,0.4,0.5,0.8,0.8,1.2l-0.4,0.3c0.6,0.9,1.1,1.8,1.5,2.8l0.5-0.2c0.2,0.4,0.4,0.8,0.6,1.3l-0.5,0.2c0.4,1,0.8,2,1,3
			l0.5-0.2c0.2,0.9,0.5,1.8,0.6,2.7h-1.1c-2.4-12.8-13.5-22-26.6-22c-14.9,0-27,12.1-27,27c0,14.9,12.1,27,27,27
			c10.9,0,20.7-6.5,24.9-16.6c0-0.1,0-0.2-0.1-0.2c-0.1,0-0.2,0-0.2,0.1c-4.1,10.3-13.8,16.7-24.5,16.7c-14.7,0-26.7-11.9-26.7-26.7
			s11.9-26.7,26.7-26.7c12.9,0,23.9,9.2,26.2,21.9c0,0.1,0.1,0.2,0.2,0.2h1.5h0c0.1,0,0.2-0.1,0.2-0.2c0,0,0,0,0-0.1
			c-0.2-1-0.4-2-0.7-2.9l0.5-0.2c-0.3-1.1-0.7-2.1-1.1-3.2l-0.5,0.2c-0.2-0.4-0.4-0.9-0.6-1.3l0.5-0.2c-0.5-1-1-2-1.6-2.9l-0.4,0.3
			c-0.2-0.4-0.5-0.8-0.8-1.2l0.4-0.3c-0.6-0.9-1.3-1.8-2.1-2.6l-0.4,0.4c-0.3-0.4-0.6-0.7-1-1l0.4-0.4c-0.8-0.8-1.6-1.6-2.5-2.2
			l-0.3,0.4c-0.4-0.3-0.7-0.6-1.1-0.9l0.3-0.4c-0.9-0.6-1.8-1.3-2.8-1.8l-0.2,0.4c-0.4-0.2-0.8-0.4-1.2-0.7l0.2-0.5
			c-1-0.5-2-1-3.1-1.3l-0.2,0.5c-0.4-0.2-0.9-0.3-1.3-0.4l0.2-0.5c-1.1-0.3-2.2-0.6-3.2-0.8l-0.1,0.5c-0.5-0.1-0.9-0.2-1.4-0.2
			l0.1-0.5c-1.1-0.2-2.2-0.2-3.3-0.3v0.5c-0.2,0-0.4,0-0.6,0c-0.3,0-0.6,0-0.8,0v-0.5c-1.1,0-2.2,0.1-3.3,0.3l0.1,0.5
			c-0.5,0.1-0.9,0.2-1.4,0.2l-0.1-0.5c-1.1,0.2-2.2,0.5-3.2,0.8l0.2,0.5c-0.4,0.2-0.9,0.3-1.3,0.5l-0.2-0.5c-1,0.4-2.1,0.8-3.1,1.4
			l0.2,0.4c-0.4,0.2-0.8,0.4-1.2,0.7l-0.3-0.4c-1,0.6-1.9,1.2-2.8,1.8l0.3,0.4c-0.4,0.3-0.8,0.6-1.1,0.9l-0.3-0.4
			c-0.8,0.7-1.7,1.5-2.4,2.3l0.4,0.4c-0.3,0.3-0.6,0.7-1,1l-0.4-0.3c-0.7,0.8-1.4,1.7-2,2.6l0.4,0.3c-0.3,0.4-0.5,0.8-0.8,1.2
			l-0.4-0.3c-0.6,1-1.1,1.9-1.6,3l0.5,0.2c-0.2,0.4-0.4,0.8-0.6,1.3l-0.5-0.2c-0.4,1-0.8,2.1-1.1,3.2l0.5,0.1
			c-0.1,0.4-0.2,0.9-0.4,1.4l-0.5-0.1c-0.2,1.1-0.4,2.2-0.5,3.3l0.5,0c0,0.5-0.1,0.9-0.1,1.4l-0.5,0c0,0.5,0,1.1,0,1.6
			c0,0.6,0,1.2,0,1.8l0.5,0c0,0.5,0.1,0.9,0.1,1.4l-0.5,0c0.1,1.1,0.3,2.2,0.6,3.3l0.5-0.1c0.1,0.5,0.2,0.9,0.4,1.4l-0.5,0.1
			c0.3,1.1,0.7,2.1,1.1,3.2l0.5-0.2c0.2,0.4,0.4,0.9,0.6,1.3l-0.5,0.2c0.5,1,1,2,1.6,3l0.4-0.3c0.2,0.4,0.5,0.8,0.8,1.2l-0.4,0.3
			c0.6,0.9,1.3,1.8,2.1,2.6l0.4-0.4c0.3,0.4,0.6,0.7,1,1l-0.4,0.4c0.8,0.8,1.6,1.6,2.5,2.3l0.3-0.4c0.4,0.3,0.7,0.6,1.1,0.9
			l-0.3,0.4c0.9,0.7,1.8,1.3,2.8,1.8l0.2-0.4c0.4,0.2,0.8,0.4,1.2,0.7l-0.2,0.4c1,0.5,2,1,3.1,1.4l0.2-0.5c0.4,0.2,0.9,0.3,1.3,0.4
			l-0.2,0.5c1,0.3,2.2,0.6,3.2,0.8l0.1-0.5c0.4,0.1,0.9,0.2,1.4,0.2l-0.1,0.5c1.1,0.2,2.2,0.2,3.3,0.3v-0.5c0.2,0,0.4,0,0.7,0
			c0.2,0,0.5,0,0.7,0v0.5c1.1,0,2.2-0.1,3.3-0.3l-0.1-0.5c0.5-0.1,0.9-0.2,1.4-0.2l0.1,0.5c1.1-0.2,2.2-0.5,3.2-0.8l-0.2-0.5
			c0.4-0.2,0.9-0.3,1.3-0.4l0.2,0.5c1-0.4,2.1-0.8,3.1-1.4l-0.2-0.4c0.4-0.2,0.8-0.4,1.2-0.7l0.2,0.4c1-0.6,1.9-1.2,2.8-1.8
			l-0.3-0.4c0.4-0.3,0.8-0.6,1.1-0.9l0.3,0.4c0.9-0.7,1.7-1.5,2.5-2.3l-0.4-0.4c0.3-0.3,0.6-0.7,1-1l0.4,0.3
			c0.7-0.8,1.4-1.7,2.1-2.6l-0.4-0.3c0.3-0.4,0.5-0.8,0.8-1.2l0.4,0.3c0.6-1,1.1-1.9,1.6-3l-0.5-0.2c0.4-0.9,0.8-1.8,1.1-2.8h3.2
			l0.9,0.6c-4.1,13.4-16.6,23.1-31.3,23.1c-18.1,0-32.7-14.7-32.7-32.7s14.7-32.7,32.7-32.7C135.9,46.2,149.7,58.8,151.7,75.1
			L151.7,75.1z M150.5,88.2l-0.9-0.5c0,0-0.1,0-0.1,0h-9.2c-0.1,0-0.1,0-0.2,0.1c-1.3,3-3.3,5.7-5.7,7.9l0,0l-0.2-0.2l-1.5,1.2
			l0.2,0.2l0,0c-3.2,2.4-7,3.9-11.1,4.4V100h0.4l0,0v0.2c0,0,0,0.1,0.1,0.1c0,0,0.1,0,0.1,0c0,0,0,0,0,0c7.7-1.1,14.3-6.3,17.3-13.5
			h10l0.9,0.6C150.7,87.7,150.6,87.9,150.5,88.2L150.5,88.2z M150.9,87.1l-0.8-0.5c0,0-0.1,0-0.1,0h-10.2c-0.1,0-0.2,0-0.2,0.1
			c-2.8,7.1-9.2,12.2-16.7,13.4c0,0-0.1,0-0.2,0v-0.1c0.2-0.1,0.3-0.3,0.3-0.5c0.1,0,0.2,0,0.2,0c2.3-0.4,4.6-1.3,6.6-2.4l0.1,0.2
			l1.6-1l-0.1-0.2c3.5-2.4,6.3-5.9,7.7-10.1h1.6c0,0,0,0,0,0h4.2h0h5.5l0.5,0.3C151,86.5,150.9,86.8,150.9,87.1L150.9,87.1z
			 M151.2,85.8l-0.4-0.3c0,0-0.1,0-0.1,0h-5.4v-0.7h5.5l0.5,0.3C151.2,85.4,151.2,85.6,151.2,85.8L151.2,85.8z M151.4,84.7l-0.4-0.3
			c0,0-0.1,0-0.1,0h-5.6v-0.7h5.7l0.5,0.3C151.5,84.3,151.4,84.5,151.4,84.7L151.4,84.7z M151.5,83.6l-0.4-0.3c0,0-0.1,0-0.1,0h-5.7
			v-0.7h5.7l0.6,0.4C151.6,83.2,151.6,83.4,151.5,83.6z M151.7,82.6l-0.6-0.3c0,0-0.1,0-0.1,0h-5.7v-0.7h5.7l0.7,0.4
			C151.7,82.1,151.7,82.3,151.7,82.6z M151.8,81.5l-0.6-0.4c0,0-0.1,0-0.1,0h-5.9l0,0H141c0,0,0,0,0,0H140l-2.5-2.5
			c0-8-5.2-14.8-12.4-17.2l0,0l0,0c-0.4-0.1-0.7-0.2-1.1-0.3l0,0l0,0l0,0c-0.2-0.1-0.4-0.1-0.7-0.2c-0.1,0-0.2,0-0.2,0v-0.6
			c0.1,0,0.2,0,0.2,0c4.9,1,9.2,4,11.8,8.2l-0.2,0.1l0.9,1.6l0.2-0.1c1.2,2.3,1.9,4.8,2,7.5c0,0,0,0.1,0,0.1l2.5,2.6
			c0,0,0.1,0,0.1,0h10l1,0.6C151.8,81.2,151.8,81.3,151.8,81.5z M151.8,80.6l-0.9-0.5c0,0-0.1,0-0.1,0h-10l-2.4-2.5
			c-0.2-2.8-0.9-5.3-2-7.7l0.2-0.1l-0.9-1.6l-0.2,0.1c-2.7-4.2-7.1-7.3-12.1-8.4c-0.1,0-0.2,0-0.2,0v-0.6c0.1,0,0.2,0,0.2,0
			c8.4,1.6,14.9,8.6,15.7,17.4c0,0,0,0.1,0,0.1l2.3,2.4c0,0,0.1,0,0.1,0h9.3l1.1,0.7C151.9,80.2,151.9,80.4,151.8,80.6L151.8,80.6z
			 M151.9,79.5l-1-0.6c0,0-0.1,0-0.1,0h-9.2l-2.2-2.3c-0.5-4.9-2.8-9.5-6.5-12.8c-2.7-2.5-6.1-4.2-9.6-4.9c-0.1,0-0.2,0-0.2,0v-0.6
			c0.1,0,0.2,0,0.2,0c4.7,0.9,8.9,3.4,11.9,6.9l0,0l-0.1,0.1l1.1,1.5l0.2-0.1c1.8,2.6,3.1,5.7,3.6,9.1c0,0,0,0.1,0,0.1l2.2,2.3
			c0,0,0.1,0,0.1,0h8.5l1.1,0.7c0,0,0,0.1,0,0.1C151.9,79.1,151.9,79.3,151.9,79.5z M127.8,49.6c0.2,0,0.3-0.2,0.3-0.3
			c0-0.2-0.2-0.3-0.3-0.3s-0.3,0.2-0.3,0.3C127.5,49.4,127.6,49.6,127.8,49.6z M142.3,58.1c0-0.2-0.1-0.3-0.3-0.3
			c-0.2,0-0.3,0.1-0.3,0.3c0,0.2,0.1,0.3,0.3,0.3C142.2,58.4,142.3,58.3,142.3,58.1z M136.9,104.3c-0.2,0-0.3,0.2-0.3,0.3
			c0,0.2,0.2,0.3,0.3,0.3s0.3-0.2,0.3-0.3C137.2,104.4,137.1,104.3,136.9,104.3z M119.4,109.7c-0.2,0-0.3,0.2-0.3,0.3
			c0,0.2,0.2,0.3,0.3,0.3c0.2,0,0.3-0.2,0.3-0.3C119.7,109.9,119.5,109.7,119.4,109.7z M88.6,83.3c0,0.2,0.2,0.3,0.3,0.3
			c0.2,0,0.3-0.2,0.3-0.3c0-0.2-0.2-0.3-0.3-0.3C88.7,83,88.6,83.2,88.6,83.3z M88.5,75.2c0,0.2,0.2,0.3,0.3,0.3
			c0.2,0,0.3-0.2,0.3-0.3s-0.2-0.3-0.3-0.3C88.6,74.8,88.5,75,88.5,75.2z M92.9,63.6c0.2,0,0.3-0.2,0.3-0.3c0-0.2-0.2-0.3-0.3-0.3
			c-0.2,0-0.3,0.2-0.3,0.3C92.6,63.4,92.8,63.6,92.9,63.6z M147.3,91.6c-0.2-0.1-0.6-0.1-0.7,0.3l-0.3,0.6l1.5,0.7l0.1-0.2l-1.3-0.6
			l0.2-0.3c0.1-0.2,0.3-0.2,0.4-0.2c0.1,0.1,0.2,0.2,0.1,0.4l-0.1,0.2l0.1,0l0.9-0.2l0.1-0.3l-0.8,0.2
			C147.6,92,147.5,91.8,147.3,91.6L147.3,91.6z M147.2,94l-0.4-0.2l0.4-0.7l-0.2-0.1l-0.4,0.7l-0.4-0.2l0.4-0.7l-0.2-0.1l-0.5,0.9
			l1.5,0.8l0.5-0.9l-0.2-0.1L147.2,94L147.2,94z M146.6,95l-0.4-0.2l0.4-0.7l-0.2-0.1l-0.4,0.6l-0.4-0.2l0.4-0.7l-0.2-0.1l-0.5,0.9
			l1.4,0.8l0.5-0.9l-0.2-0.1L146.6,95L146.6,95z M145.8,95.7c0.2-0.3,0-0.6-0.2-0.8c-0.2-0.2-0.6-0.2-0.8,0.2l-0.3,0.5l1.4,0.9
			l0.1-0.2l-0.5-0.3L145.8,95.7L145.8,95.7z M145.4,95.9l-0.6-0.4l0.2-0.3c0.1-0.2,0.3-0.2,0.4-0.1c0.1,0.1,0.2,0.2,0.1,0.4
			L145.4,95.9L145.4,95.9z M144.6,97c-0.2-0.2-0.4-0.2-0.6-0.2c-0.2,0-0.4,0.2-0.6,0.3c-0.2,0.2-0.2,0.4-0.2,0.6s0.2,0.4,0.3,0.6
			c0.2,0.2,0.4,0.2,0.6,0.2c0.2,0,0.4-0.2,0.6-0.3c0.2-0.2,0.2-0.4,0.2-0.6C144.9,97.3,144.8,97.1,144.6,97z M144.5,98.1
			c-0.1,0.1-0.2,0.2-0.4,0.2c-0.2,0-0.3,0-0.4-0.1c-0.1-0.1-0.2-0.2-0.2-0.4c0-0.2,0-0.3,0.1-0.4c0.1-0.1,0.2-0.2,0.4-0.2
			c0.2,0,0.3,0,0.4,0.1c0.1,0.1,0.2,0.2,0.2,0.4C144.7,97.8,144.7,97.9,144.5,98.1L144.5,98.1z M143.1,98l-0.2-0.2l-0.8,1l0.2,0.2
			l0.4-0.4l1.1,1l0.2-0.2l-1.1-0.9L143.1,98L143.1,98z M141.8,99.9c-0.2-0.2-0.5-0.2-0.8,0l-0.4,0.4l1.2,1.2l0.2-0.2l-1-1l0.3-0.3
			c0.2-0.2,0.3-0.1,0.4,0c0.1,0.1,0.2,0.3,0,0.4l-0.2,0.2l0.1,0.1l1,0.1l0.2-0.2l-0.8,0C142.1,100.3,142,100.1,141.8,99.9
			L141.8,99.9z M140.9,102.1l-0.3-0.4l0.6-0.5L141,101l-0.6,0.5l-0.3-0.4l0.6-0.5l-0.2-0.2l-0.8,0.7l1.2,1.2l0.7-0.7l-0.2-0.2
			L140.9,102.1L140.9,102.1z M140,102.9l-0.3-0.4l0.6-0.5l-0.2-0.2l-0.6,0.5l-0.3-0.4l0.6-0.5l-0.2-0.2l-0.8,0.7l1.1,1.2l0.8-0.7
			l-0.2-0.2L140,102.9z M138.4,102.4l-0.5,0.4l1.1,1.3l0.2-0.2l-0.4-0.4l0.3-0.2c0.3-0.2,0.2-0.6,0.1-0.8
			C139,102.3,138.7,102.1,138.4,102.4L138.4,102.4z M138.9,103.1l-0.3,0.2l-0.4-0.5l0.3-0.2c0.2-0.1,0.3-0.1,0.4,0
			C139.1,102.7,139.1,102.9,138.9,103.1L138.9,103.1z M134.6,105l0.6,1l-1.3-0.6l-0.2,0.1l0.8,1.5l0.2-0.1l-0.6-1l1.3,0.6l0.2-0.1
			l-0.8-1.5L134.6,105L134.6,105z M134,107l-0.6-1l0.3-0.2l-0.1-0.2l-0.8,0.4l0.1,0.2l0.3-0.2l0.6,1.1l-0.3,0.2l0.1,0.2l0.8-0.4
			l-0.1-0.2L134,107L134,107z M131.9,106.3l0.1,1.8l0.2-0.1c0-0.2,0-0.4,0-0.5l0.6-0.2l0.4,0.4l0.2-0.1l-1.3-1.3L131.9,106.3
			L131.9,106.3z M132.6,107.2l-0.4,0.2l0-0.6L132.6,107.2z M131,106.7l0.3,0.7l-0.7,0.3l-0.3-0.7l-0.2,0.1l0.6,1.6l0.2-0.1l-0.3-0.7
			l0.7-0.2l0.3,0.7l0.2-0.1l-0.6-1.6L131,106.7L131,106.7z M129.7,108.8c-0.2,0-0.3,0-0.4,0c-0.1-0.1-0.2-0.2-0.3-0.4
			c0-0.2,0-0.3,0-0.5c0.1-0.2,0.2-0.2,0.3-0.3c0.2-0.1,0.5,0,0.6,0.2l0.2-0.1c-0.2-0.3-0.6-0.4-1-0.3c-0.2,0.1-0.4,0.2-0.5,0.4
			c-0.1,0.2-0.1,0.4,0,0.6c0.1,0.2,0.2,0.4,0.4,0.5c0.2,0.1,0.4,0.1,0.6,0c0.4-0.1,0.6-0.5,0.6-0.9l-0.2,0.1
			C130.1,108.6,130,108.8,129.7,108.8z M128.5,107.7l-0.3,0.1l-0.4,0.9l0,0.1l0.8,0.6l0.3-0.1l-0.9-0.6L128.5,107.7L128.5,107.7z
			 M127.4,108l0.5,1.6l0.2-0.1l-0.5-1.6L127.4,108z M126.8,109.7c-0.2,0-0.3,0-0.4-0.1c-0.1-0.1-0.2-0.2-0.3-0.4
			c0-0.2,0-0.3,0.1-0.5c0.1-0.1,0.2-0.2,0.4-0.3c0.2,0,0.5,0,0.6,0.2l0.2,0c-0.2-0.4-0.5-0.5-0.9-0.4c-0.2,0-0.4,0.2-0.5,0.4
			c-0.1,0.2-0.2,0.4-0.1,0.6c0,0.2,0.2,0.4,0.4,0.5c0.2,0.1,0.4,0.2,0.6,0.1c0.4-0.1,0.6-0.4,0.6-0.8l-0.2,0
			C127.2,109.4,127,109.6,126.8,109.7L126.8,109.7z M125.3,108.8c-0.2-0.1-0.4-0.2-0.6-0.2c-0.2,0-0.4,0.2-0.6,0.4
			c-0.1,0.2-0.2,0.4-0.2,0.6c0,0.2,0.2,0.4,0.4,0.6c0.2,0.1,0.4,0.2,0.6,0.2c0.2,0,0.4-0.2,0.6-0.4c0.1-0.2,0.2-0.4,0.2-0.6
			C125.6,109.1,125.5,108.9,125.3,108.8L125.3,108.8z M125.3,109.8c-0.1,0.1-0.2,0.2-0.4,0.2c-0.2,0-0.3,0-0.4-0.1
			c-0.1-0.1-0.2-0.2-0.2-0.4c0-0.2,0-0.3,0.1-0.5c0.1-0.1,0.2-0.2,0.4-0.2c0.2,0,0.3,0,0.5,0.1c0.1,0.1,0.2,0.2,0.2,0.4
			C125.4,109.6,125.4,109.7,125.3,109.8L125.3,109.8z M123.3,110.3l-0.2-1.4l-0.2,0l0.2,1.7l1-0.2v-0.2L123.3,110.3L123.3,110.3z
			 M122.5,109.7c0.2-0.1,0.2-0.3,0.1-0.5s-0.2-0.3-0.4-0.2l-0.7,0.1l0.2,1.7l0.8-0.1c0.3,0,0.5-0.3,0.4-0.6
			C122.8,110,122.7,109.8,122.5,109.7L122.5,109.7z M121.7,109.2l0.5,0c0.3,0,0.3,0.4,0,0.4l-0.4,0L121.7,109.2z M122.3,110.4
			l-0.5,0l0-0.5l0.5,0c0.2,0,0.2,0.1,0.3,0.2C122.5,110.3,122.5,110.4,122.3,110.4z M117,109.8l-0.4-0.8h-0.3l0.6,1l0,0.7l0.2,0
			l0-0.7l0.7-1l-0.3,0L117,109.8L117,109.8z M115.1,109.2c0.1-0.1,0.3-0.2,0.4-0.1c0.2,0,0.4,0.2,0.5,0.4l0.2,0
			c0-0.4-0.3-0.7-0.7-0.7c-0.2,0-0.4,0-0.6,0.2c-0.2,0.1-0.3,0.3-0.3,0.6c0,0.2,0,0.4,0.2,0.6c0.1,0.2,0.3,0.3,0.6,0.3
			c0.4,0,0.7-0.2,0.9-0.5l-0.2,0c-0.1,0.2-0.4,0.4-0.6,0.3c-0.2,0-0.3-0.1-0.4-0.2c-0.1-0.1-0.1-0.3-0.1-0.4
			C114.9,109.4,115,109.3,115.1,109.2L115.1,109.2z M114.2,109.8l-0.6-1.3l-0.2,0l-0.3,1.7l0.2,0l0.2-1.2l0.6,1.3l0.2,0l0.3-1.7
			l-0.2,0C114.4,108.7,114.2,109.8,114.2,109.8z M112.4,108.5l0.8,0.2l0-0.2l-1-0.2l-0.4,1.6l1,0.2l0-0.2l-0.8-0.2l0.1-0.5l0.8,0.2
			l0-0.2l-0.8-0.2C112.3,109,112.4,108.5,112.4,108.5z M112,108.7c0.1-0.2,0-0.6-0.4-0.7l-0.6-0.2l-0.4,1.6l0.2,0.1l0.4-1.4l0.4,0.1
			c0.2,0,0.2,0.2,0.2,0.4c0,0.2-0.2,0.2-0.4,0.2l-0.3-0.1l0,0.1l0.4,0.9l0.3,0.1l-0.4-0.8C111.7,109.1,111.9,109,112,108.7z
			 M110.7,108.4c0.1-0.2,0-0.6-0.4-0.7l-0.6-0.2l-0.5,1.6l0.2,0.1l0.4-1.4l0.4,0.1c0.2,0.1,0.2,0.2,0.2,0.4c0,0.2-0.2,0.2-0.4,0.2
			l-0.3-0.1l0,0.1l0.4,0.9l0.3,0.1l-0.3-0.8C110.4,108.8,110.6,108.6,110.7,108.4L110.7,108.4z M109.3,107.4l-0.4,1.1
			c-0.1,0.2-0.3,0.2-0.4,0.1c-0.2-0.1-0.3-0.2-0.2-0.4l0.4-1.1l-0.2-0.1l-0.4,1.1c-0.1,0.3,0.1,0.6,0.4,0.7c0.3,0.1,0.6,0,0.8-0.3
			l0.4-1.1L109.3,107.4z M106.9,108c-0.2-0.1-0.2-0.2-0.3-0.3c0-0.2,0-0.3,0-0.5c0.1-0.2,0.2-0.3,0.3-0.3c0.2,0,0.3-0.1,0.4,0
			c0.2,0.1,0.4,0.3,0.4,0.6l0.2,0.1c0.1-0.4-0.1-0.7-0.5-0.9c-0.2-0.1-0.4-0.1-0.6,0s-0.4,0.2-0.5,0.5c-0.1,0.2-0.1,0.4,0,0.6
			c0.1,0.2,0.2,0.4,0.4,0.5c0.4,0.2,0.8,0,1-0.3l-0.2-0.1C107.4,108,107.2,108.1,106.9,108L106.9,108z M105.1,105.5l-0.2-0.1
			l-0.8,1.5l0.9,0.5l0.1-0.2l-0.7-0.4L105.1,105.5z M104.2,104.9l-1.4,1.1l0.2,0.1c0.1-0.1,0.3-0.2,0.4-0.3l0.5,0.3l-0.1,0.5
			l0.2,0.1l0.3-1.8C104.4,104.9,104.2,104.9,104.2,104.9z M103.9,105.9l-0.4-0.2l0.5-0.4L103.9,105.9z M103.6,104.9l0.1-0.2
			l-1.1-0.7l-0.1,0.2l0.4,0.3l-0.8,1.2l0.2,0.2l0.8-1.2L103.6,104.9L103.6,104.9z M102.2,103.9l0.3,0.2l0.1-0.2l-0.7-0.5l-0.1,0.2
			l0.2,0.2l-0.7,1l-0.2-0.2l-0.2,0.2l0.7,0.5l0.2-0.2l-0.3-0.2C101.5,104.9,102.2,103.9,102.2,103.9z M101.1,104.3
			c0,0,0.1-0.1,0.2-0.2l-0.7-0.6l-0.2,0.2l0.5,0.4c-0.2,0.1-0.5,0.1-0.6,0c-0.3-0.2-0.3-0.6-0.1-0.8c0.2-0.3,0.6-0.3,0.8-0.1
			c0.2,0.1,0.3,0.4,0.2,0.6l0.2,0.2c0.2-0.4,0-0.8-0.3-1c-0.4-0.3-0.9-0.2-1.2,0.2c-0.3,0.4-0.2,0.9,0.2,1.2
			C100.4,104.4,100.8,104.5,101.1,104.3L101.1,104.3z M100.1,102.3l0.2,0.2l0.2-0.2l-0.7-0.6l-0.2,0.2l0.2,0.2l-0.8,0.9l-0.2-0.2
			l-0.2,0.2l0.6,0.6l0.2-0.2l-0.2-0.2C99.3,103.3,100.1,102.3,100.1,102.3z M99.2,101.2l-0.4-0.4l-1.1,1.2l0.4,0.4
			c0.4,0.4,0.9,0.2,1.2-0.1C99.5,102.1,99.6,101.6,99.2,101.2z M99.1,102.3c-0.2,0.2-0.6,0.3-0.8,0l-0.3-0.2l0.8-0.9l0.3,0.2
			C99.3,101.7,99.3,102,99.1,102.3z M97.4,99.5L97,99l-1.2,1.2l0.4,0.4c0.4,0.4,0.9,0.3,1.2,0C97.7,100.4,97.8,99.9,97.4,99.5z
			 M97.2,100.5c-0.2,0.2-0.6,0.3-0.8,0l-0.2-0.3l0.9-0.8l0.2,0.3C97.5,99.9,97.4,100.3,97.2,100.5z M95.3,99.3l0.4-0.3l0.5,0.6
			l0.2-0.2l-0.5-0.6l0.4-0.3l0.5,0.6l0.2-0.2l-0.6-0.8L95,99.2l0.6,0.8l0.2-0.2L95.3,99.3L95.3,99.3z M94.4,98.2l1.6,0l0.1-0.2
			L95.4,97l-0.2,0.2l0.6,0.7l-1.7,0l0,0.2l0.8,0.9l0.2-0.1L94.4,98.2L94.4,98.2z M94,97.5l1-0.7l0.2,0.3l0.2-0.2l-0.5-0.7l-0.2,0.2
			l0.2,0.2l-1,0.7L93.6,97l-0.2,0.2l0.5,0.7l0.2-0.2C94.1,97.8,94,97.5,94,97.5z M93.1,96.3l1.2-0.8l-0.1-0.2l-1.4,0.9l0.6,0.9
			l0.2-0.1L93.1,96.3z M93.7,94.5l-1.8,0.3l0.3-0.8c0.2,0.2,0.4,0.2,0.7,0.1c0.2-0.1,0.4-0.4,0.2-0.8l-0.3-0.6l-1.5,0.8l0.1,0.2
			l1.3-0.7l0.2,0.3c0.1,0.2,0,0.4-0.1,0.4c-0.1,0.1-0.3,0-0.4-0.1l-0.1-0.2l-0.1,0l-0.4,0.9l0.1,0.2l0.1,0.2c0.2,0,0.4-0.1,0.5-0.1
			l0.3,0.5l-0.3,0.4l0.1,0.2L93.7,94.5L93.7,94.5L93.7,94.5z M93,95.2l-0.2-0.4l0.6-0.1L93,95.2z M92.5,92.9l0.2-0.1l-0.6-1.1
			L92,91.7l0.2,0.5l-1.3,0.6L91,93l1.3-0.6L92.5,92.9z M92,91.3L91,91.8l0.8-1.2l-0.1-0.2L90.1,91l0.1,0.2l1.1-0.5L90.5,92l0.1,0.2
			l1.6-0.7C92.2,91.5,92,91.3,92,91.3z M90,90l0.5-0.2l0.2,0.7l0.2-0.1l-0.3-0.7l0.4-0.2l0.3,0.8l0.2-0.1l-0.4-1l-1.6,0.6l0.4,1
			l0.2-0.1L90,90L90,90z M90.1,89.3c-0.3,0-0.5-0.2-0.6-0.4c0-0.2,0-0.3,0-0.4c0.1-0.1,0.2-0.2,0.4-0.3c0.2,0,0.3,0,0.5,0
			c0.1,0.1,0.2,0.2,0.3,0.3c0.1,0.2,0,0.5-0.2,0.6l0.1,0.2c0.3-0.2,0.5-0.6,0.4-1c-0.1-0.2-0.2-0.4-0.4-0.5c-0.2-0.1-0.4-0.1-0.6,0
			c-0.2,0.1-0.4,0.2-0.5,0.4c-0.1,0.2-0.1,0.4,0,0.6c0.1,0.4,0.5,0.6,0.9,0.6L90.1,89.3z M89.5,87l0.2,0.8l0.2-0.1l-0.2-0.7l0.4-0.1
			l0.2,0.8l0.2-0.1l-0.3-1l-1.6,0.4l0.3,1l0.2,0L89,87.1C89,87.1,89.5,87,89.5,87z M89.5,86.5c0.4-0.1,0.8-0.4,0.6-1L90,84.9
			l-1.6,0.4l0.1,0.6C88.6,86.5,89.1,86.6,89.5,86.5z M88.7,85.5l1.2-0.3l0.1,0.4c0.1,0.4-0.2,0.6-0.4,0.7c-0.3,0.1-0.6-0.1-0.7-0.4
			L88.7,85.5z M88.5,81.1c-0.3-0.1-0.4-0.3-0.4-0.6c0-0.2,0-0.3,0.2-0.4c0.1-0.1,0.2-0.2,0.4-0.2c0.2,0,0.3,0,0.4,0.2
			c0.1,0.1,0.2,0.2,0.2,0.4c0,0.2-0.1,0.5-0.4,0.6v0.2c0.4-0.1,0.6-0.4,0.6-0.8c0-0.2-0.1-0.4-0.3-0.6c-0.2-0.1-0.4-0.2-0.6-0.2
			c-0.2,0-0.4,0.1-0.6,0.3c-0.2,0.2-0.2,0.4-0.2,0.6c0,0.4,0.3,0.7,0.7,0.8L88.5,81.1L88.5,81.1z M89.2,79.7h0.3v-1.3h-0.3v0.5h-1.4
			v0.2h1.4C89.2,79.2,89.2,79.7,89.2,79.7z M88.3,78.3c0.2,0,0.4,0,0.4-0.2c0.1,0.2,0.3,0.2,0.5,0.2c0.2,0,0.3-0.2,0.3-0.4l0-0.7
			L87.8,77l0,0.8C87.8,78.1,88,78.3,88.3,78.3z M88.8,77.3h0.4l0,0.5c0,0.3-0.4,0.2-0.4,0L88.8,77.3z M88,77.3l0.5,0l0,0.5
			c0,0.2-0.2,0.2-0.3,0.2S88,78,88,77.8C88,77.8,88,77.3,88,77.3z M148.2,70.9l1.3-0.4l0.1,0.4c0,0.2-0.1,0.3-0.2,0.4
			c-0.1,0-0.3,0-0.4-0.2l-0.1-0.3l-0.1,0l-0.5,0.8l0.1,0.3l0.4-0.6c0.1,0.2,0.4,0.3,0.6,0.3c0.2-0.1,0.4-0.3,0.4-0.6l-0.2-0.6
			l-1.6,0.4L148.2,70.9L148.2,70.9z M148.1,70.6l0.2,0l-0.2-0.7l0.4-0.1l0.2,0.7l0.2-0.1l-0.2-0.7l0.4-0.1l0.2,0.7l0.2,0l-0.3-1
			l-1.6,0.5L148.1,70.6L148.1,70.6z M147.8,69.6l0.2-0.1l-0.2-0.7l0.4-0.2l0.2,0.7l0.2-0.1l-0.2-0.7l0.4-0.2l0.2,0.7l0.2-0.1
			l-0.3-0.9l-1.5,0.5L147.8,69.6L147.8,69.6z M147.1,67.8l0.5-0.2l0.1,0.3c0.1,0.3,0.4,0.4,0.7,0.3c0.2-0.1,0.4-0.4,0.3-0.7
			l-0.2-0.6l-1.5,0.6L147.1,67.8L147.1,67.8z M148.4,67.3l0.1,0.3c0.1,0.2,0,0.3-0.2,0.4c-0.2,0-0.3,0-0.4-0.2l-0.1-0.3L148.4,67.3z
			 M146.7,64.9c-0.2,0.1-0.4,0.3-0.4,0.5c-0.1,0.2-0.1,0.4,0,0.6c0.1,0.2,0.3,0.4,0.5,0.4c0.2,0.1,0.4,0.1,0.6,0
			c0.2-0.1,0.4-0.3,0.4-0.5c0.1-0.2,0.1-0.4,0-0.6c-0.1-0.2-0.3-0.4-0.5-0.4C147.2,64.8,146.9,64.8,146.7,64.9L146.7,64.9z
			 M147.6,65.4c0.1,0.2,0.1,0.3,0,0.4c0,0.1-0.2,0.3-0.3,0.3c-0.2,0.1-0.3,0.1-0.4,0c-0.2,0-0.3-0.2-0.3-0.3c-0.1-0.2-0.1-0.3,0-0.4
			c0-0.2,0.2-0.3,0.3-0.3c0.2-0.1,0.3-0.1,0.4,0C147.4,65.1,147.5,65.2,147.6,65.4z M145.7,64.6l0.1,0.2l1.2-0.6l0.2,0.4l0.2-0.1
			l-0.6-1l-0.2,0.1l0.2,0.4L145.7,64.6L145.7,64.6z M144.6,62.8l1.2-0.7l0.2,0.3c0.1,0.2,0,0.3-0.1,0.4c-0.1,0.1-0.3,0.1-0.4-0.1
			l-0.2-0.2l-0.1,0l-0.3,0.9l0.2,0.2l0.2-0.8c0.2,0.2,0.4,0.2,0.6,0.1c0.2-0.1,0.4-0.4,0.2-0.7l-0.3-0.5l-1.4,0.8L144.6,62.8
			L144.6,62.8z M144.4,62.5l0.2-0.1l-0.4-0.6l0.4-0.2l0.4,0.6l0.2-0.1l-0.4-0.6l0.4-0.3l0.4,0.6l0.2-0.2l-0.6-0.8l-1.3,0.9
			L144.4,62.5L144.4,62.5z M143.8,61.6l0.2-0.1l-0.4-0.6l0.4-0.3l0.4,0.6l0.2-0.2l-0.4-0.6l0.4-0.3l0.4,0.6l0.2-0.1l-0.6-0.8
			l-1.3,0.9L143.8,61.6L143.8,61.6z M143.1,59.7l0.2,0.3c0.2,0.3,0.5,0.2,0.8,0.1c0.2-0.2,0.3-0.5,0.1-0.7l-0.4-0.5l-1.3,1l0.2,0.2
			C142.6,60.1,143.1,59.7,143.1,59.7z M143.7,59.2l0.2,0.3c0.1,0.2,0.1,0.3,0,0.4c-0.1,0.1-0.3,0.1-0.4,0l-0.2-0.3L143.7,59.2z
			 M139.5,56.8l0.8-0.8l-0.2,1.3l0.2,0.2l1.1-1.2l-0.2-0.2l-0.8,0.8l0.2-1.4l-0.2-0.1l-1.1,1.2L139.5,56.8L139.5,56.8z M139.1,56
			l-0.2-0.2l-0.2,0.2l0.6,0.6l0.2-0.2l-0.2-0.2l0.8-0.8l0.2,0.2l0.1-0.2l-0.6-0.6l-0.2,0.2l0.2,0.2C139.8,55.2,139.1,56,139.1,56z
			 M136.8,54.5l0.4-0.6l0.6,0.4l-0.4,0.6l0.2,0.1l0.2,0.2c0.1-0.1,0.3-0.2,0.4-0.2l0.4,0.4l-0.2,0.5l0.2,0.2l0.5-1.7l-0.1-0.1
			l-1.5,0.8l0.9-1.3l-0.2-0.1l-0.4,0.6l-0.6-0.4l0.4-0.6l-0.2-0.1l-1,1.3L136.8,54.5L136.8,54.5z M138.9,54.5l-0.2,0.6l-0.3-0.2
			L138.9,54.5z M135.6,52.8c-0.1,0.2-0.2,0.4-0.1,0.6c0,0.2,0.2,0.4,0.3,0.5c0.3,0.2,0.7,0.2,1-0.1l-0.2-0.1c-0.2,0.2-0.4,0.2-0.6,0
			c-0.1-0.1-0.2-0.2-0.2-0.4c0-0.2,0-0.3,0.1-0.4c0.1-0.1,0.2-0.2,0.4-0.2c0.2,0,0.3,0,0.4,0.1c0.2,0.1,0.3,0.4,0.2,0.6l0.2,0.1
			c0.1-0.4,0-0.7-0.3-0.9c-0.2-0.1-0.4-0.2-0.6-0.1C136,52.5,135.8,52.6,135.6,52.8L135.6,52.8z M134.9,52.4l0.1,0.9l0.2,0.2l-0.2-1
			l1-0.4l-0.2-0.1l-0.9,0.3C135,52.3,134.9,52.4,134.9,52.4z M134.5,53l0.8-1.4l-0.2-0.1l-0.8,1.4L134.5,53z M133.2,52
			c0,0.2,0.2,0.4,0.4,0.5c0.3,0.2,0.7,0.1,1-0.2l-0.2-0.1c-0.2,0.2-0.4,0.2-0.6,0.1c-0.1-0.1-0.2-0.2-0.3-0.3c0-0.2,0-0.3,0-0.4
			c0.1-0.2,0.2-0.2,0.4-0.3c0.1,0,0.3,0,0.4,0c0.2,0.1,0.3,0.3,0.3,0.6l0.2,0.1c0.1-0.4,0-0.7-0.4-0.9c-0.2-0.1-0.4-0.1-0.6,0
			c-0.2,0.1-0.4,0.2-0.5,0.4C133.1,51.6,133.1,51.8,133.2,52z M132,51.8c0.2,0.1,0.4,0.1,0.6,0c0.2-0.1,0.4-0.2,0.5-0.4
			c0.1-0.2,0.1-0.4,0-0.6c-0.1-0.2-0.2-0.4-0.4-0.5c-0.2-0.1-0.4-0.1-0.6,0c-0.2,0.1-0.4,0.2-0.5,0.4c-0.1,0.2-0.1,0.4,0,0.6
			C131.7,51.5,131.8,51.7,132,51.8z M131.8,50.8c0.1-0.2,0.2-0.2,0.3-0.3c0.2,0,0.3,0,0.4,0c0.2,0.1,0.2,0.2,0.3,0.3
			c0,0.1,0,0.3,0,0.4c-0.1,0.2-0.2,0.2-0.3,0.3c-0.2,0-0.3,0-0.4,0c-0.2-0.1-0.2-0.2-0.3-0.3C131.8,51.1,131.8,50.9,131.8,50.8z
			 M131.4,51.4l0.1-0.2l-0.7-0.3l0.5-1.3l-0.2-0.1l-0.6,1.5L131.4,51.4z M130.6,50.6c0-0.2,0-0.3-0.1-0.5c0.2,0,0.3-0.2,0.3-0.4
			c0-0.2-0.1-0.3-0.3-0.4l-0.6-0.2l-0.6,1.5l0.7,0.2C130.2,51,130.5,50.8,130.6,50.6z M130,49.4l0.4,0.2c0.2,0.1,0.1,0.5-0.2,0.4
			l-0.4-0.2L130,49.4z M129.8,50l0.5,0.2c0.2,0,0.2,0.2,0.1,0.3c0,0.1-0.2,0.2-0.3,0.2l-0.5-0.2L129.8,50L129.8,50z M125.4,49.5
			l0.2,0.1l0.2-0.6l0.8-0.8l-0.3-0.1l-0.6,0.6l-0.3-0.8l-0.3-0.1l0.4,1L125.4,49.5L125.4,49.5z M124.2,49.3c0.4,0.1,0.7-0.1,0.8-0.5
			l-0.2,0c-0.1,0.2-0.4,0.3-0.6,0.3c-0.2,0-0.3-0.1-0.4-0.2c-0.1-0.1-0.1-0.3-0.1-0.4c0-0.2,0.1-0.3,0.2-0.4
			c0.1-0.1,0.3-0.1,0.4-0.1c0.2,0,0.4,0.2,0.4,0.4l0.2,0c0-0.4-0.3-0.6-0.6-0.7c-0.2,0-0.4,0-0.6,0.2c-0.2,0.1-0.3,0.3-0.3,0.5
			c0,0.2,0,0.4,0.1,0.6C123.8,49.2,123.9,49.3,124.2,49.3L124.2,49.3z M122.3,49.1l0.1-1.1l0.6,1.2h0.2l0.2-1.6h-0.2l-0.2,1.1
			l-0.6-1.2l-0.2,0l-0.2,1.6L122.3,49.1L122.3,49.1z M122,48.8l-0.7,0l0-0.5l0.7,0.1v-0.2l-0.7-0.1l0-0.4l0.7,0.1l0-0.2l-1-0.1
			l-0.1,1.6l1,0.1V48.8z M118.9,48.9v-1.4h0.4c0.2,0,0.3,0.1,0.3,0.3c0,0.1-0.1,0.3-0.3,0.3h-0.3v0.1l0.6,0.7h0.3h0.2l0-1.4h0.4
			c0.2,0,0.3,0.2,0.3,0.3s-0.1,0.3-0.3,0.3h-0.3v0.1l0.6,0.7h0.3l-0.5-0.6c0.3,0,0.4-0.2,0.4-0.5c0-0.2-0.2-0.5-0.5-0.5l-0.6,0
			l0,1.6l-0.5-0.6c0.3,0,0.4-0.3,0.4-0.5c0-0.2-0.2-0.5-0.5-0.5h-0.6v1.6L118.9,48.9L118.9,48.9z M117.9,49c0.3,0,0.6-0.2,0.6-0.5
			l0-1.1h-0.2l0,1.1c0,0.2-0.2,0.3-0.4,0.3c-0.2,0-0.4-0.1-0.4-0.2l0-1.1h-0.2l0,1.1C117.3,48.8,117.6,49,117.9,49L117.9,49z
			 M116.5,49.1c0.4,0,0.6-0.3,0.7-0.7l-0.2,0c0,0.2-0.2,0.4-0.5,0.4c-0.2,0-0.3,0-0.4-0.1c-0.1-0.1-0.2-0.2-0.2-0.4
			c0-0.2,0-0.3,0.1-0.4c0.1-0.1,0.2-0.2,0.4-0.2c0.2,0,0.4,0.1,0.6,0.3l0.2,0c-0.1-0.4-0.4-0.6-0.8-0.5c-0.2,0-0.4,0.1-0.5,0.3
			c-0.1,0.2-0.2,0.4-0.2,0.6c0,0.2,0.1,0.4,0.3,0.6C116,49,116.2,49.1,116.5,49.1L116.5,49.1z M112.8,49.2l0.6-0.1l0.3,0.4l0.2,0
			l1-0.2l0-0.2l-0.8,0.1l-0.2-1.4l-0.2,0l0.3,1.6l-1-1.4l-0.2,0l-0.3,1.7l0.2,0C112.7,49.5,112.7,49.3,112.8,49.2z M112.9,48.3
			l0.3,0.5l-0.4,0.1C112.8,48.9,112.9,48.3,112.9,48.3z M111.6,48.5l0.4,1.4l0.2,0l-0.3-1.4l0.5-0.1l-0.1-0.2l-1.2,0.3l0.1,0.2
			L111.6,48.5z M110.5,48.8l0.3,1.1l-0.3,0.1l0.1,0.2l0.8-0.2l0-0.2l-0.3,0.1l-0.3-1.1l0.3-0.1l-0.1-0.2l-0.8,0.2l0,0.2
			C110.2,48.9,110.5,48.8,110.5,48.8z M109.9,50.4c0.3-0.1,0.5-0.4,0.5-0.7c0,0,0-0.2,0-0.3l-0.8,0.3l0.1,0.2l0.6-0.2
			c0,0.2-0.2,0.4-0.4,0.5c-0.3,0.1-0.6-0.1-0.7-0.4c-0.1-0.3,0-0.6,0.4-0.7c0.2-0.1,0.4,0,0.6,0.2l0.2-0.1c-0.2-0.4-0.6-0.4-0.9-0.3
			c-0.4,0.1-0.6,0.6-0.5,1C109,50.4,109.4,50.6,109.9,50.4z M108.2,49.6l0.4,1l-0.3,0.1l0.1,0.2l0.8-0.3l-0.1-0.2l-0.3,0.1l-0.4-1
			l0.3-0.1l-0.1-0.2l-0.8,0.3l0.1,0.2L108.2,49.6z M107.6,51.3c0.5-0.2,0.6-0.7,0.4-1c-0.2-0.4-0.6-0.6-1-0.4l-0.5,0.2l0.6,1.5
			C107.1,51.5,107.6,51.3,107.6,51.3z M107.1,50c0.4-0.2,0.6,0,0.7,0.3c0.1,0.3,0,0.6-0.3,0.7l-0.3,0.1l-0.4-1L107.1,50z
			 M105.6,52.2c0.5-0.2,0.5-0.7,0.4-1.1c-0.2-0.4-0.6-0.6-1.1-0.4l-0.5,0.3l0.7,1.4L105.6,52.2z M105,51c0.3-0.2,0.6,0,0.8,0.2
			c0.1,0.2,0.1,0.6-0.2,0.8l-0.3,0.2l-0.5-1C104.7,51.2,105,51,105,51z M105,52.5l-0.1-0.2l-0.6,0.4l-0.2-0.4l0.6-0.4l-0.1-0.2
			l-0.6,0.4l-0.2-0.4l0.6-0.4l-0.1-0.2l-0.9,0.5l0.8,1.4C104.1,53,105,52.5,105,52.5z M103.1,52l-0.2,1.6l0.2,0l1-0.6l-0.1-0.2
			l-0.8,0.5l0.1-1.6l-0.1-0.1l-0.9,0.6l0.1,0.2L103.1,52z M101.8,52.9l0.6,1l-0.2,0.2l0.1,0.2l0.7-0.5l-0.1-0.2l-0.2,0.2l-0.6-1
			l0.2-0.2l-0.1-0.2l-0.7,0.4l0.1,0.2L101.8,52.9z M102.3,54.2l-0.1-0.2l-0.6,0.4l-0.8-1.1l-0.2,0.1l0.8,1.1l-1.3-0.8L99.9,54
			l0.4,1.6l-0.6-0.1c0.2-0.2,0.2-0.5,0-0.6c-0.2-0.2-0.5-0.3-0.7,0l-0.4,0.4l1,1.2l0.1-0.1l-0.9-1l0.3-0.2c0.2-0.1,0.3-0.1,0.4,0
			c0.1,0.1,0.1,0.3,0,0.4l-0.2,0.2l0.1,0.1l0.9,0.2l0.2-0.2l0.1-0.1c0-0.1-0.1-0.3-0.1-0.5l0.4-0.4l0.4,0.2l0.2-0.2l0,0
			C101.5,54.7,102.3,54.2,102.3,54.2z M100.6,54.6l-0.3,0.2l-0.2-0.6C100.1,54.2,100.6,54.6,100.6,54.6z M98,55.9l0.9,1l0.2-0.2
			l-1-1l0.4-0.4l-0.2-0.2L97.5,56l0.2,0.2L98,55.9z M97.9,58L97,57.2l1.3,0.2l0.2-0.1l-1.2-1.1l-0.2,0.2l0.8,0.8l-1.4-0.3L96.5,57
			l1.2,1.1C97.7,58.1,97.9,58,97.9,58z M97.6,58.2L97.5,58l-0.5,0.5l-0.3-0.3l0.5-0.6l-0.2-0.1l-0.5,0.5l-0.3-0.3l0.5-0.5l-0.2-0.2
			l-0.6,0.7l1.2,1.1C96.9,58.9,97.6,58.2,97.6,58.2z M95.3,59.7c0.2,0.2,0.4,0.2,0.6,0.2s0.4-0.1,0.5-0.3c0.2-0.3,0.2-0.7,0-1
			l-0.2,0.2c0.1,0.2,0.1,0.5,0,0.6c-0.1,0.1-0.2,0.2-0.4,0.2s-0.3,0-0.4-0.1c-0.1-0.1-0.2-0.2-0.2-0.4s0-0.3,0.1-0.4
			c0.2-0.2,0.4-0.2,0.6-0.2l0.2-0.2c-0.3-0.2-0.7-0.1-0.9,0.2c-0.1,0.2-0.2,0.4-0.2,0.6C95,59.3,95.1,59.5,95.3,59.7L95.3,59.7z
			 M95.8,60.2l-0.2-0.2l-0.5,0.6l-0.4-0.3l0.5-0.6l-0.2-0.2l-0.4,0.6L94.3,60l0.4-0.6l-0.2-0.2L94,60l1.3,1
			C95.3,61,95.8,60.2,95.8,60.2z M94.8,61.7c0.3-0.4,0.1-0.9-0.2-1.1c-0.3-0.2-0.8-0.2-1.1,0.2l-0.3,0.5l1.3,0.9
			C94.4,62.2,94.8,61.7,94.8,61.7z M93.4,61.2l0.2-0.3c0.2-0.3,0.6-0.3,0.8-0.1c0.2,0.2,0.4,0.5,0.2,0.8l-0.2,0.3L93.4,61.2z
			 M92.3,65.9l-1-0.5l1.4-0.2l0.1-0.2l-1.4-0.7l-0.1,0.2l1,0.5l-1.4,0.2l-0.1,0.2l1.4,0.7C92.2,66.1,92.3,65.9,92.3,65.9z
			 M90.7,66.1l1,0.4l-0.1,0.3l0.2,0.1l0.4-0.8l-0.2-0.1l-0.1,0.3l-1-0.5l0.1-0.2l-0.2-0.1l-0.3,0.8l0.2,0.1L90.7,66.1z M90.4,68.2
			c0.2,0.1,0.4,0.1,0.6,0c0.2-0.1,0.4-0.2,0.4-0.4s0.1-0.4,0-0.6c-0.1-0.2-0.2-0.4-0.4-0.4c-0.2-0.1-0.4-0.1-0.6,0
			c-0.2,0.1-0.4,0.2-0.4,0.4c-0.1,0.2-0.1,0.4,0,0.6S90.2,68.1,90.4,68.2z M90.2,67.2c0-0.2,0.2-0.2,0.3-0.3c0.1,0,0.3-0.1,0.4,0
			c0.2,0.1,0.3,0.2,0.3,0.3c0,0.1,0.1,0.3,0,0.4c0,0.2-0.2,0.2-0.3,0.3c-0.1,0-0.3,0.1-0.4,0c-0.2-0.1-0.3-0.2-0.3-0.3
			C90.2,67.5,90.2,67.3,90.2,67.2z M89.9,69.8c0.2,0.1,0.4,0,0.6,0c0.2-0.1,0.3-0.2,0.4-0.4c0.1-0.4,0-0.7-0.3-0.9l-0.1,0.2
			c0.2,0.2,0.3,0.4,0.2,0.6c0,0.2-0.2,0.2-0.3,0.3c-0.1,0.1-0.3,0.1-0.4,0c-0.2,0-0.3-0.2-0.3-0.3c-0.1-0.1-0.1-0.3,0-0.4
			c0.1-0.2,0.2-0.4,0.5-0.4l0.1-0.2c-0.4,0-0.7,0.2-0.8,0.5c-0.1,0.2,0,0.4,0,0.6C89.6,69.5,89.7,69.7,89.9,69.8z M89.2,70.3
			l1.3,0.4l0-0.2L89.2,70l0.2-0.5l-0.2,0l-0.3,1.2l0.2,0C89,70.7,89.2,70.3,89.2,70.3z M88.9,71.4l1.1,0.3l-0.1,0.3l0.2,0.1l0.2-0.8
			l-0.2,0L90,71.4L89,71.1l0.1-0.3l-0.2,0l-0.2,0.8l0.2,0C88.8,71.6,88.9,71.4,88.9,71.4z M90,72.5c0.1-0.3-0.2-0.5-0.4-0.6
			c-0.2,0-0.3,0-0.4,0.2c-0.1-0.2-0.2-0.2-0.4-0.2c-0.2,0-0.3,0.1-0.3,0.3l-0.1,0.6l1.6,0.3C89.9,73.2,90,72.5,90,72.5z M89,72.8
			l-0.4-0.1l0.1-0.4c0-0.2,0.4-0.2,0.4,0.1L89,72.8z M89.7,72.9l-0.5-0.1l0.1-0.5c0-0.2,0.2-0.2,0.3-0.2c0.1,0,0.2,0.1,0.2,0.3
			L89.7,72.9z M121.7,82.7h-1.4v1.7h1.4V82.7z M119.7,82.7h-1.4l0,1.7h1.4V82.7z M122.4,72.3h-0.8l0,0c0-0.1-0.1-0.2-0.2-0.2h-3.5
			c0,0-0.1-0.1-0.2-0.1c-0.1,0-0.2,0.1-0.2,0.2c0,0.1,0.1,0.2,0.2,0.2c0.1,0,0.1,0,0.2-0.1h0.7c0,0.1-0.1,0.2-0.1,0.2
			c0,0.1,0,0.2,0.1,0.2h-0.7c0,0-0.1-0.1-0.2-0.1c-0.1,0-0.2,0.1-0.2,0.2c0,0.1,0.1,0.2,0.2,0.2c0.1,0,0.1,0,0.2-0.1h3.5
			c0.1,0,0.2-0.1,0.2-0.2h0.8c0.2,0,0.4-0.2,0.4-0.4C122.8,72.5,122.6,72.3,122.4,72.3L122.4,72.3z M120.2,73.8H120v-0.3h-0.8v0.3
			h-1.3c0,0-0.1-0.1-0.2-0.1c-0.1,0-0.2,0.1-0.2,0.2c0,0.1,0.1,0.2,0.2,0.2c0.1,0,0.1,0,0.2-0.1h1.3v0.3h0.8v-0.3h0.2v0.3h2.1v-1
			h-2.1C120.2,73.4,120.2,73.8,120.2,73.8z M118.2,70.1h-0.6v1.6h0.6V70.1z M120,70.1h-1.4v1.7h1.4L120,70.1z M121.6,70.2l-1.4,0
			v1.7h1.4L121.6,70.2z M136.5,61.4l0.2-0.2c3,2.9,5.2,6.5,6.4,10.6c0,0.1,0.1,0.1,0.2,0.1h1c0,0,0.1,0,0.2-0.1c0,0,0-0.1,0-0.2
			c-1.5-5.3-4.8-10.1-9.2-13.5c-4.6-3.5-10.1-5.4-15.8-5.4c-14.3,0-26.1,11.7-26.1,26.1c0,14.3,11.7,26.1,26.1,26.1
			c10.3,0,19.7-6.1,23.8-15.6c0-0.1,0-0.2-0.1-0.2c-0.1,0-0.2,0-0.2,0.1c-4.1,9.3-13.3,15.4-23.5,15.4c-14.1,0-25.7-11.5-25.7-25.7
			c0-14.1,11.5-25.7,25.7-25.7c11.3,0,21.4,7.5,24.6,18.4h-0.6c-1.2-4-3.5-7.7-6.5-10.6l0.1-0.1l-1.3-1.3l-0.2,0.2
			c-0.3-0.3-0.6-0.6-1-0.8c-4.4-3.3-9.6-5.1-15.1-5.1c-6.8,0-12.9,2.7-17.4,7.1l-0.2-0.2l-1.3,1.3l0.2,0.2
			c-3.9,4.4-6.3,10.2-6.3,16.6c0,13.8,11.2,25.1,25.1,25.1c6.2,0,12.2-2.4,16.7-6.5l0.2,0.2l1.3-1.3l-0.2-0.2
			c0.8-0.8,1.5-1.7,2.2-2.6c0.1-0.1,0-0.2,0-0.3c-0.1-0.1-0.2,0-0.3,0c-0.6,0.9-1.4,1.8-2.2,2.6l-0.2-0.2l-1.3,1.3l0.1,0.1
			c-4.5,4-10.3,6.3-16.5,6.3c-13.6,0-24.7-11.1-24.7-24.7c0-6.3,2.4-12,6.2-16.3l0.1,0.1l1.3-1.3l-0.1-0.1c4.4-4.3,10.5-7,17.2-7
			c5.9,0,11.5,2.2,15.8,5.8l-0.1,0.1L136.5,61.4L136.5,61.4z M124.2,96v-0.7h0.7v0.5C124.7,95.8,124.4,95.9,124.2,96z M123,96.3v-1
			h0.8v0.8C123.5,96.2,123.3,96.2,123,96.3z M126.4,96.8l1.7-0.7l-0.1-0.2c4.6-2.4,8.2-6.5,9.7-11.7h1.6v-0.3c0,0,0,0,0,0h1.2v0.7
			h-2.2c-0.1,0-0.2,0-0.2,0.2c-2.2,6.9-8.1,12.1-15.2,13.5v-0.6c1.1-0.2,2.2-0.5,3.2-0.9C126.3,96.6,126.4,96.8,126.4,96.8z
			 M141,83.6l2,2h-2V83.6z M144.8,83.7l-1.9-2h1.9V83.7z M144.8,84.3v1.2l-3.5-3.7h1.2C142.4,81.8,144.8,84.3,144.8,84.3z
			 M144.5,85.7h-1l-2.5-2.6v-1L144.5,85.7L144.5,85.7z M123.5,94.8H123V94h0.5V94.8z M125.3,95.2h0.8c-0.3,0.1-0.6,0.2-0.8,0.3V95.2
			z M122.9,88.4h-1.6h1.8c0.1,0,0.2-0.1,0.2-0.2c0-0.1-0.1-0.2-0.2-0.2h-5.5c0,0-0.1-0.1-0.2-0.1c-0.1,0-0.2,0.1-0.2,0.2
			c0,0.1,0,0.1,0.1,0.2h-0.2l-0.1,0V81h0.2h0.2c0,0-0.1,0.1-0.1,0.2c0,0.1,0.1,0.2,0.2,0.2c0.1,0,0.1,0,0.2-0.1h4.6
			c1,0,1.9,0.5,2.4,1.3h-0.2v1.7h0.7c0,1.2-0.8,2.2-1.8,2.6v-2.6h0.5v-1.7h-0.6v-0.4c0-0.1-0.1-0.2-0.2-0.2h-5.5
			c0,0-0.1-0.1-0.2-0.1c-0.1,0-0.2,0.1-0.2,0.2c0,0.1,0.1,0.2,0.2,0.2c0.1,0,0.1,0,0.2-0.1h5.3v0.2h-0.5v1.7h0.5v0.3h-5.3
			c0,0-0.1-0.1-0.2-0.1c-0.1,0-0.2,0.1-0.2,0.2c0,0.1,0.1,0.2,0.2,0.2c0.1,0,0.1,0,0.2-0.1h5.3v0.6h-5.3c0,0-0.1-0.1-0.2-0.1
			c-0.1,0-0.2,0.1-0.2,0.2c0,0.1,0.1,0.2,0.2,0.2c0.1,0,0.1,0,0.2-0.1l5.3,0v0.4h-5.3c0,0-0.1-0.1-0.2-0.1c-0.1,0-0.2,0.1-0.2,0.2
			c0,0.1,0.1,0.2,0.2,0.2c0.1,0,0.1,0,0.2-0.1h5.3v0.2c0,0,0,0,0,0.1c-0.2,0-0.4,0.1-0.6,0.1h-4.6c0,0-0.1-0.1-0.2-0.1
			c-0.1,0-0.2,0.1-0.2,0.2c0,0.1,0.1,0.2,0.2,0.2c0.1,0,0.1,0,0.2-0.1h4.6c1.8,0,3.2-1.4,3.2-3.2h0.4v-1.7H125
			c-0.4-0.8-1.2-1.4-2.2-1.6h0c2,0,3.6,1.6,3.6,3.6C126.6,86.7,124.9,88.4,122.9,88.4L122.9,88.4z M103.5,62.6l0.2,0.2l1.4-1.2
			l-0.2-0.2c2-1.7,4.4-3,7-3.9c-0.1,0.1-0.2,0.2-0.2,0.4V58c-8.3,3-14,10.7-14.5,19.6c0,0,0,0.1,0.1,0.2l2.1,1.9c0,0,0.1,0,0.1,0
			h5.4v0.7h-5.4c0,0-0.1,0-0.1,0l-1.8,1.7c0,0-0.1,0.1,0,0.2c1.3,7.8,6.8,14.3,14.2,17.1v0c0,0.2,0.1,0.3,0.2,0.4
			c0.1,0.1,0.3,0.2,0.5,0.2h1.5h0.2v0.8c-10.2-2.4-17.6-11.6-17.6-22.1C96.7,72.5,99.3,66.7,103.5,62.6L103.5,62.6z M123.4,73.3
			c-0.4,1.2-1.4,2-2.7,2h-1.3v-0.4h2c0.1,0,0.2-0.1,0.2-0.2c0-0.1-0.1-0.2-0.2-0.2h-3.5c0,0-0.1-0.1-0.2-0.1c-0.1,0-0.2,0.1-0.2,0.2
			c0,0.1,0.1,0.2,0.2,0.2c0.1,0,0.1,0,0.2-0.1h0.2v0.4h-1.1v-5.7h3.7c1.2,0,2.2,0.8,2.6,1.8l0,0h-0.2v1.9
			C123.1,73.2,123.4,73.3,123.4,73.3z M98,82.5l1.7-1.6h8.8v0.6h-7.9c0,0-0.1,0-0.1,0l-1.7,1.5c0,0-0.1,0.1,0,0.2
			c0.8,3.8,2.7,7.3,5.4,10.1c1.9,2,4.1,3.5,6.5,4.6c0,0,0.1,0,0.1,0c0.3,0.2,0.7,0.3,1,0.4v0.7C104.6,96.5,99.3,90.1,98,82.5z
			 M103.1,73.9l1,1c0,0,0.1,0,0.1,0h1.9v0.6l-2.8,0l-1.2-1c0.5-2.1,1.4-4,2.6-5.7l0,0h0.8c-1.1,1.5-2,3.2-2.6,5
			C103.1,73.8,103.1,73.9,103.1,73.9z M111.7,94v0.4H111V94h0.1H111.7z M111.7,95.5v1H111v-1H111.7z M110.6,95.5v1
			c-0.8-0.4-1.6-0.8-2.3-1.4h1.7v0.4H110.6z M111,97.5h0.8v0.6c-0.3-0.1-0.6-0.2-0.8-0.4V97.5z M110.6,94.4H110v0.3h-2.3
			c-0.1,0-0.2,0-0.2,0.1c0,0.1,0,0.2,0.1,0.2c1,0.7,2,1.3,3,1.8v0.7c-2-0.9-3.7-2.1-5.3-3.6c0.1,0,0.2,0,0.3,0h5L110.6,94.4
			C110.6,94.4,110.6,94.4,110.6,94.4z M106.7,62.5l0.1,0.2l1.6-1l-0.2-0.2c1.1-0.7,2.3-1.3,3.6-1.8v0.7c-2.2,0.9-4.2,2.2-5.9,3.7h-1
			C105.5,63.5,106.1,62.9,106.7,62.5C106.7,62.5,106.7,62.5,106.7,62.5z M111.8,64h-0.1C111.7,64,111.8,63.9,111.8,64L111.8,64z
			 M116.5,62.4c0.6-0.1,1.3-0.2,2-0.2v0.6c-0.7,0-1.3,0.1-2,0.2C116.5,63,116.5,62.4,116.5,62.4z M101.9,74.7l1.3,1.2
			c0,0,0.1,0,0.1,0h5.2v0.6h-6.1l-1.4-1.2c0.5-2.6,1.5-4.9,2.9-7c0.1,0.1,0.2,0.2,0.3,0.3c0.1,0,0.2,0.1,0.2,0.1
			c-1.2,1.8-2.1,3.7-2.6,5.8C101.8,74.6,101.8,74.6,101.9,74.7z M104.9,92.2c-2.1-2.3-3.7-5.1-4.5-8.1l1.2-1.1h3.5v0.6h-2.8
			c0,0-0.1,0-0.1,0l-0.9,0.8c0,0-0.1,0.1,0,0.2c0.8,2.4,2,4.6,3.7,6.6L104.9,92.2C104.9,92.2,104.9,92.2,104.9,92.2z M101.4,77.5
			l-1.5-1.4c0.5-3.5,1.9-6.7,4-9.4v1c-1.6,2.2-2.7,4.8-3.2,7.6c0,0.1,0,0.1,0,0.2l1.5,1.4c0,0,0.1,0,0.1,0h6.2v0.6
			C108.5,77.5,101.4,77.5,101.4,77.5z M111.8,61.3c-0.3,0.1-0.5,0.2-0.8,0.4l-0.1-0.2l-1.7,0.9l0.1,0.2l0,0c-0.7,0.4-1.3,0.9-2,1.4
			l-0.9,0c1.6-1.4,3.4-2.5,5.3-3.3L111.8,61.3L111.8,61.3z M108.5,83.6h-0.9V83h0.9V83.6z M105.7,87.4
			C105.7,87.4,105.7,87.4,105.7,87.4c0.4,0.8,0.9,1.4,1.4,2l-0.8,0c-0.8-0.9-1.4-1.9-2-3L105,86h0.7C105.7,86,105.7,87.4,105.7,87.4
			z M106.1,84.5v-0.6h0.3v0.6H106.1z M104.9,90c0,0,0,0.1,0,0.1v0.6c-1.4-1.8-2.6-3.8-3.3-6l0.8-0.7h3.4v0.6h-2.4c0,0-0.1,0-0.1,0
			l-0.6,0.6c0,0-0.1,0.1,0,0.2c0.6,1.6,1.4,3,2.4,4.4C104.9,89.8,104.9,89.9,104.9,90z M105.6,89.4c-0.1,0-0.2,0-0.4,0.1
			c-1-1.3-1.7-2.6-2.3-4.1l0.4-0.4l1.7,0v0.6h-0.1c0,0-0.1,0-0.1,0l-0.7,0.6c-0.1,0-0.1,0.2,0,0.2c0.5,1,1.2,2,1.8,2.9
			C105.9,89.4,105.6,89.4,105.6,89.4z M108.5,89.4h-0.8l0,0v-0.8h0.8V89.4z M107.7,87.6v-0.6h0.8v0.6H107.7z M107.3,88.9
			c-0.4-0.5-0.8-1-1.1-1.5l0.5-0.4h0.6L107.3,88.9C107.4,88.9,107.3,88.9,107.3,88.9z M106.4,86.7l-0.3,0.3v-1h0.3
			C106.4,85.9,106.4,86.7,106.4,86.7z M106.8,84.5v-0.6h1.7v0.6H106.8z M111,64h-1.2c0.6-0.4,1.4-0.8,2.1-1.2v0.7
			C111.5,63.7,111.2,63.8,111,64z M109.1,64h-1c0.5-0.4,1-0.7,1.5-1l0.1,0.1l1.7-0.9l-0.1-0.2c0.2-0.1,0.4-0.2,0.6-0.3v0.7
			C110.9,62.9,110,63.4,109.1,64z M103.9,66.1c-2.3,2.8-3.9,6.3-4.4,10.1c0,0,0,0.1,0,0.2l1.6,1.5c0,0,0.1,0,0.1,0h3.7v0.6h-4.3
			l-1.9-1.8c0.4-4.5,2.3-8.5,5.1-11.6L103.9,66.1C103.8,66.1,103.9,66.1,103.9,66.1z M107.6,77.9h0.9v0.6h-0.9V77.9z M108.5,82.6
			h-7.1c0,0-0.1,0-0.1,0l-1.3,1.2c0,0-0.1,0.1,0,0.2c0.9,3.2,2.6,6.3,4.9,8.7v0.6c0,0.1,0,0.2,0.1,0.3c-2.8-2.8-4.9-6.3-5.8-10.3
			l1.5-1.4h7.8L108.5,82.6L108.5,82.6z M106.8,86.5v-0.6h1.7v0.6H106.8z M107.6,85.5v-0.6l0.9,0v0.6H107.6z M108.2,68.7
			c-0.9,1-1.6,2-2.2,3.2c0,0.1,0,0.2,0,0.2l0.8,0.7c0,0,0.1,0,0.1,0h1.6v0.6h-2.8l-0.8-0.8c0.6-1.5,1.5-2.9,2.5-4.1L108.2,68.7
			C108.2,68.7,108.2,68.7,108.2,68.7z M108.5,72.6h-0.8v-0.8h0.8V72.6z M107.3,72.6H107l-0.6-0.6c0.3-0.5,0.6-1,1-1.5
			C107.3,70.4,107.3,72.6,107.3,72.6z M107.7,70.7v-0.8c0.3-0.4,0.5-0.7,0.8-1v1.8C108.5,70.7,107.7,70.7,107.7,70.7z M116.5,64
			v-0.6c0.6-0.1,1.3-0.2,2-0.2v0.6C117.7,63.8,117.1,63.9,116.5,64z M116.5,62v-0.6c0.1,0,0.2,0,0.2,0c0.6-0.1,1.2-0.2,1.7-0.2v0.6
			C117.7,61.8,117.1,61.9,116.5,62z M111.8,59.2c-1.3,0.5-2.6,1.1-3.7,1.9l0,0l-0.1-0.2l-1.6,1l0.2,0.2l0,0
			c-0.5,0.4-0.9,0.7-1.4,1.1c-0.2,0.2-0.5,0.4-0.7,0.7c-0.3,0-0.6,0.3-0.6,0.6c-3.1,3.4-5,7.6-5.5,12.2c0,0,0,0.1,0.1,0.2l2,1.8
			c0,0,0.1,0,0.1,0h7.9v0.6h-8.8l-2-1.8c0.5-8.7,6.1-16.2,14.1-19.2L111.8,59.2C111.8,59.2,111.8,59.2,111.8,59.2z M108.5,79.9v0.7
			h-0.9v-0.7H108.5z M108.5,74.5h-4.2l-0.9-0.8c0.6-1.8,1.5-3.5,2.6-5h0.8c-1,1.2-1.8,2.6-2.4,4.1c0,0.1,0,0.2,0,0.2l1,0.9
			c0,0,0.1,0,0.1,0h2.9L108.5,74.5L108.5,74.5L108.5,74.5z M118.4,94.1v0.6h-1.9v-0.6H118.4z M116.5,96.1h1.9v0.4h-1.9V96.1z
			 M116.5,95.8v-0.6h1.9v0.6H116.5z M116.5,97h1.9v0.6h-1.9V97z M119,75v0.4h-0.6V75H119z M116.7,61c-0.1,0-0.2,0-0.2,0v-0.6
			c0.1,0,0.2,0,0.2,0c0.6-0.1,1.2-0.1,1.7-0.2v0.6C117.8,60.8,117.3,60.9,116.7,61z M116.7,60c-0.1,0-0.2,0-0.2,0v-0.6
			c0.1,0,0.2,0,0.2,0c0.6-0.1,1.2-0.1,1.7-0.2v0.6C117.8,59.8,117.3,59.9,116.7,60z M118.4,58.5v0.3c-0.6,0-1.2,0.1-1.7,0.2
			c-0.1,0-0.2,0-0.2,0v-0.6c0.1,0,0.2,0,0.2,0c0.2,0,0.4,0,0.6-0.1l0,0v0.3L118.4,58.5L118.4,58.5z M113.9,57.1h-1.1
			c0.4-0.1,0.7-0.2,1.1-0.3V57.1z M116.5,97.9h1.9v0.6h-1.9V97.9z M124.1,64.1v-0.1h0.7v0.1H124.1z M124.7,72.3
			c0,1.7-1.4,3.1-3.1,3.2c1-0.3,1.8-1.2,2.1-2.2h0.4v-1.9h-0.4c-0.4-1.2-1.4-2-2.6-2.2c-0.1,0-0.3,0-0.4,0h-3.7h5.3
			C123.6,69.5,124.7,70.8,124.7,72.3L124.7,72.3z M117.3,57.2v0.6c-0.2,0-0.4,0-0.6,0.1c-0.1,0-0.2,0-0.2,0v-0.2
			c0-0.2-0.1-0.4-0.3-0.6v0C116.1,57.2,117.3,57.2,117.3,57.2z M117.3,55.2v0.7h-1.2v-0.7H117.3z M115.1,102.1
			c-11.2-2.1-19.4-11.8-19.4-23.3c0-11.3,8-21.1,19.1-23.2v1.5l-0.6,0v-0.5v0c0-0.1-0.1-0.2-0.2-0.1c-3.4,0.8-6.6,2.4-9.3,4.6
			l-0.1-0.2l-1.4,1.2l0.2,0.2c-0.7,0.7-1.3,1.4-1.9,2.1c-3.2,4.1-5.1,9.2-5.1,14.4c0,5.3,1.8,10.4,5.2,14.5c3.3,4,7.9,6.9,12.9,8h0
			c0,0,0.1,0,0.1,0c0,0,0.1-0.1,0.1-0.2v-1h0.4C115.1,100.2,115.1,102.1,115.1,102.1z M117.3,101.8v0.7h-0.9v-0.7H117.3z M116.3,100
			c0.1-0.1,0.2-0.3,0.2-0.5v-0.6h1.9v0.2h-1.2v1.3h-0.9V100z M139.1,85.7c-0.1,0-0.2,0-0.2,0.1c-1.5,4.1-4.2,7.6-7.7,10l-0.1-0.1
			l-1.6,1l0.1,0.2l0,0c-2,1.1-4.1,1.9-6.4,2.4c-0.1,0-0.2,0-0.2,0v-0.6c7.2-1.3,13.2-6.6,15.5-13.6h2.1v0.7L139.1,85.7L139.1,85.7z
			 M137.1,78.9L137.1,78.9c0,0.1,0,0.2,0,0.2l2.6,2.6c0,0,0.1,0,0.1,0h0.7v0.7h-2.3L135,79h0.7v-1.2h-1v-0.5h1v-1.2h-1v-0.5h1v-1.2
			h-1v-0.5h1v-1.2h-1v-0.5h0.8c-0.2-0.4-0.3-0.8-0.5-1.2h-1.6v1.2h0.9v0.5h-0.9v1.2h0.9v0.5h-0.9v1.2h1v0.5h-1v1.2h1v0.5h-1V79h1
			l3.6,3.7c0,0,0.1,0,0.1,0h2.4v0.7l-1.2,0c0,0,0,0,0,0v-0.2h-3.2v0.9h1.2c-1.5,5-5,9-9.5,11.3l-0.1-0.2L126,96l0.1,0.2
			c-1,0.4-2,0.7-3.1,0.9v-0.4c0.3-0.1,0.6-0.2,1-0.3l0,0c0,0,0.1,0,0.1,0c0.3-0.1,0.7-0.2,1-0.4l0,0c0,0,0.1,0,0.1,0
			c0.6-0.2,1.2-0.5,1.8-0.8c0.1,0,0.1-0.1,0.1-0.2c0-0.1-0.1-0.2-0.2-0.2h-1.6V94h0.9c4.9,0,8.9-3.7,9.1-8.5c0.2-3.7-2-7.2-5.3-8.7
			c1.9-1.4,3-3.6,2.9-6c-0.1-3.8-3.4-6.8-7.3-6.8h-0.6v-0.1h0.4v-1.2h-0.4v-0.6C132.1,64.5,137.1,71.1,137.1,78.9L137.1,78.9z
			 M124.8,62v0.8h-0.7v-1l0,0C124.3,61.9,124.6,61.9,124.8,62z M123.3,61.6c0.2,0,0.3,0.1,0.4,0.1l0,0v1.1h-0.6v1.2h0.6v0.1h-0.7
			v-2.6C123.1,61.5,123.2,61.5,123.3,61.6z"/>
		<g>
			<g transform="matrix(1.60666 0 0 1 -4396.5 -1586.02)">
				<text transform="matrix(1 0 0 1 2777.9094 1616.1801)" class="st0 st1 st2">SATOSHI EXPRESS</text>
			</g>
		</g>
		<path class="st0" d="M233.9,10.6h-2.2V9.9h2.1V4.2h-5.6v2.2h-0.7V4.2h-19.9l1,1h-9.4V6h10.2l0.4,0.4h-10.7v0.8h21.5
			c0.2,5.5,4.7,10,10.2,10.2v21.2h0.8V28.3l0.3,0.3v9.9h0.8v-9.1l1.1,1.1L233.9,10.6L233.9,10.6z M229,5h4.1v4.1h-1.4V6.4H229L229,5
			L229,5z M229,7.2h2v1.9h-2C229,9.1,229,7.2,229,7.2z M228.2,7.2v2.7h2.7v0.7h-3.4V7.2H228.2z M226.8,8.5L222,10
			c-0.1-0.4-0.2-0.8-0.3-1.1l5.1-0.8V8.5z M226.8,9.3v0.3l-3.9,2.2c-0.2-0.3-0.4-0.7-0.5-1.1L226.8,9.3L226.8,9.3z M227.3,11.3h0.4
			l-2,3.5c-0.4-0.3-0.7-0.5-1.1-0.8L227.3,11.3L227.3,11.3z M228.6,11.3h0.3l-1.5,4.5c-0.4-0.2-0.7-0.3-1.1-0.5L228.6,11.3
			L228.6,11.3z M229.7,11.3h0.3l-0.8,5.1c-0.4-0.1-0.8-0.2-1.1-0.3L229.7,11.3L229.7,11.3z M209.5,5h17.3v0.3h-17L209.5,5z M210.5,6
			h16.3v0.4h-15.8L210.5,6z M226.8,7.2v0.2l-5.2,0.8c0-0.3-0.1-0.6-0.1-0.9C221.5,7.2,226.8,7.2,226.8,7.2z M223.2,12.4l3.5-2v0.3
			l-2.7,2.7C223.8,13.1,223.5,12.8,223.2,12.4L223.2,12.4z M230,16.5l0.8-5.2h0.2v5.3C230.6,16.6,230.3,16.6,230,16.5z M231.7,27.2
			V11.3h0.3v16.2L231.7,27.2z M233.1,28.6l-0.3-0.3v-17h0.3C233.1,11.3,233.1,28.6,233.1,28.6z"/>
		<path class="st0" d="M233.9,139.7h-2.2v0.7h2.1v5.6h-5.6v-2.2h-0.7v2.2h-19.9l1-1h-9.4v-0.8h10.2l0.4-0.4h-10.7V143h21.5
			c0.2-5.5,4.7-10,10.2-10.2v-21.2h0.8v10.3l0.3-0.3v-9.9h0.8v9.1l1.1-1.1L233.9,139.7L233.9,139.7z M229,145.3h4.1v-4.1h-1.4v2.7
			H229L229,145.3L229,145.3z M229,143h2v-1.9h-2V143z M228.2,143v-2.7h2.7v-0.7l-3.4,0v3.4L228.2,143L228.2,143z M226.8,141.8
			l-4.8-1.6c-0.1,0.4-0.2,0.8-0.3,1.1l5.1,0.8V141.8z M226.8,141v-0.3l-3.9-2.2c-0.2,0.3-0.4,0.7-0.5,1.1L226.8,141L226.8,141z
			 M227.3,138.9h0.4l-2-3.5c-0.4,0.3-0.7,0.5-1.1,0.8L227.3,138.9L227.3,138.9z M228.6,138.9h0.3l-1.5-4.5c-0.4,0.2-0.7,0.3-1.1,0.5
			L228.6,138.9L228.6,138.9z M229.7,138.9h0.3l-0.8-5.1c-0.4,0.1-0.8,0.2-1.1,0.3L229.7,138.9L229.7,138.9z M209.5,145.3h17.3V145
			h-17L209.5,145.3z M210.5,144.2h16.3v-0.4h-15.8L210.5,144.2z M226.8,143v-0.2l-5.2-0.8c0,0.3-0.1,0.6-0.1,0.9H226.8z
			 M223.2,137.8l3.5,2v-0.3l-2.7-2.7C223.8,137.1,223.5,137.4,223.2,137.8L223.2,137.8z M230,133.7l0.8,5.2h0.2v-5.3
			C230.6,133.7,230.3,133.7,230,133.7z M231.7,123v15.9h0.3v-16.2L231.7,123z M233.1,121.6l-0.3,0.3v17h0.3V121.6z"/>
		<path class="st0" d="M4.2,139.7h2.2v0.7H4.3v5.6h5.6v-2.2h0.7v2.2h19.9l-1-1h9.4v-0.8H28.7l-0.4-0.4H39V143H17.4
			c-0.2-5.5-4.7-10-10.2-10.2v-21.2H6.4v10.3l-0.3-0.3v-9.9H5.3v9.1l-1.1-1.1V139.7L4.2,139.7z M9.2,145.3H5v-4.1h1.4v2.7h2.7V145.3
			z M9.2,143h-2v-1.9h2V143z M9.9,143v-2.7H7.2v-0.7l3.4,0v3.4L9.9,143L9.9,143z M11.3,141.8l4.8-1.6c0.1,0.4,0.2,0.8,0.3,1.1
			l-5.1,0.8C11.3,142.1,11.3,141.8,11.3,141.8z M11.3,141v-0.3l3.9-2.2c0.2,0.3,0.4,0.7,0.5,1.1L11.3,141L11.3,141z M10.8,138.9
			h-0.4l2-3.5c0.4,0.3,0.7,0.5,1.1,0.8L10.8,138.9L10.8,138.9z M9.6,138.9H9.3l1.5-4.5c0.4,0.2,0.7,0.3,1.1,0.5L9.6,138.9L9.6,138.9
			z M8.5,138.9H8.1l0.8-5.1c0.4,0.1,0.8,0.2,1.1,0.3C10,134.2,8.5,138.9,8.5,138.9z M28.6,145.3H11.3V145h17
			C28.4,145,28.6,145.3,28.6,145.3z M27.6,144.2H11.3v-0.4h15.8L27.6,144.2z M11.3,143v-0.2l5.2-0.8c0,0.3,0.1,0.6,0.1,0.9H11.3z
			 M14.9,137.8l-3.5,2v-0.3l2.7-2.7C14.3,137.1,14.6,137.4,14.9,137.8z M8.1,133.7l-0.8,5.2H7.2v-5.3C7.5,133.7,7.8,133.7,8.1,133.7
			z M6.4,123v15.9H6.1v-16.2L6.4,123z M5,121.6l0.3,0.3v17H5V121.6z"/>
		<path class="st3" d="M38,5.2h0.9h162.6V6H38.9H38h-9.3l-0.4,0.4h8.8H39h165.5v0.8H39h-1.9H17.4c-0.2,5.5-4.7,10-10.2,10.2v21.2
			H6.4V28.3l-0.3,0.3v9.9H5.3v-9.1l-1.1,1.1V10.6h2.2V9.9H4.3V4.2h5.6v2.2h0.7V4.2h19.9l-1,1C29.5,5.2,38,5.2,38,5.2z M9.2,5H5v4.1
			h1.4V6.4h2.7V5z M9.2,7.2h-2v1.9h2C9.2,9.1,9.2,7.2,9.2,7.2z M9.9,7.2v2.7H7.2v0.7h3.4V7.2H9.9z M11.3,8.5l4.8,1.6
			c0.1-0.4,0.2-0.8,0.3-1.1l-5.1-0.8C11.3,8.1,11.3,8.5,11.3,8.5z M11.3,9.3v0.3l3.9,2.2c0.2-0.3,0.4-0.7,0.5-1.1L11.3,9.3z
			 M10.8,11.3h-0.4l2,3.5c0.4-0.3,0.7-0.5,1.1-0.8C13.5,14,10.8,11.3,10.8,11.3z M9.6,11.3H9.3l1.5,4.5c0.4-0.2,0.7-0.3,1.1-0.5
			C11.8,15.3,9.6,11.3,9.6,11.3z M8.5,11.3H8.1l0.8,5.1c0.4-0.1,0.8-0.2,1.1-0.3C10,16.1,8.5,11.3,8.5,11.3z M28.6,5H11.3v0.3h17
			C28.4,5.2,28.6,5,28.6,5z M27.6,6H11.3v0.4h15.8L27.6,6z M11.3,7.2v0.2l5.2,0.8c0-0.3,0.1-0.6,0.1-0.9C16.7,7.2,11.3,7.2,11.3,7.2
			z M14.9,12.4l-3.5-2v0.3l2.7,2.7C14.3,13.1,14.6,12.8,14.9,12.4z M8.1,16.5l-0.8-5.2H7.2v5.3C7.5,16.6,7.8,16.6,8.1,16.5z
			 M6.4,27.2V11.3H6.1v16.2L6.4,27.2z M5,28.6l0.3-0.3v-17H5C5,11.3,5,28.6,5,28.6z"/>
		<rect x="38" y="143" class="st3" width="163.6" height="0.8"/>
		<rect x="37.1" y="144.2" class="st3" width="167.4" height="0.8"/>
		<rect x="232" y="32.2" class="st3" width="0.8" height="85.8"/>
		<rect x="6.4" y="32.2" class="st3" width="0.8" height="85.8"/>
		<rect x="230.9" y="32.2" class="st3" width="0.8" height="85.8"/>
		<rect x="5.3" y="32.2" class="st3" width="0.8" height="85.8"/>
	</g>
</g>
</svg>
