<?xml version="1.0" encoding="utf-8"?>
<!-- Generator: Adobe Illustrator 26.0.1, SVG Export Plug-In . SVG Version: 6.00 Build 0)  -->
<svg version="1.1" id="Слой_1" xmlns:xodm="http://www.corel.com/coreldraw/odm/2003"
	 xmlns="http://www.w3.org/2000/svg" xmlns:xlink="http://www.w3.org/1999/xlink" x="0px" y="0px" viewBox="0 0 238.1 150.2"
	 style="enable-background:new 0 0 238.1 150.2;" xml:space="preserve">
<style type="text/css">
	.st0{fill-rule:evenodd;clip-rule:evenodd;}
</style>
<g id="Слой_x0020_1">
	<g id="_105553188062112">
		<path class="st0" d="M161.4,48.5h-1.1c-0.1,0-0.2-0.1-0.2-0.2v-6.6c0-0.3-0.1-0.6-0.3-0.8c-0.2-0.2-0.5-0.3-0.8-0.3h-5.8
			c-0.3,0-0.6,0.1-0.8,0.3c-0.2,0.2-0.3,0.5-0.3,0.8v6.6c0,0.1-0.1,0.2-0.2,0.2h-9.7c-0.3,0-0.6,0.1-0.8,0.3
			c-0.2,0.2-0.3,0.5-0.3,0.8v5.8c0,0.3,0.1,0.6,0.3,0.8c0.2,0.2,0.5,0.3,0.8,0.3h6.6c0.1,0,0.2,0.1,0.2,0.2v30
			c0,0.1-0.1,0.2-0.2,0.2h-5.7c-0.3,0-0.5,0.1-0.7,0.3c-0.2,0.2-0.3,0.4-0.4,0.7l-0.8,5.8c0,0.2,0,0.3,0,0.5c0,0.1,0.1,0.3,0.2,0.4
			v0c0.1,0.1,0.2,0.2,0.4,0.3c0.1,0.1,0.3,0.1,0.4,0.1h9.6c0.1,0,0.2,0.1,0.2,0.2v6.6c0,0.3,0.1,0.6,0.3,0.8
			c0.2,0.2,0.5,0.3,0.8,0.3h5.8c0.3,0,0.6-0.1,0.8-0.3c0.2-0.2,0.3-0.5,0.3-0.8V95c0-0.1,0.1-0.2,0.2-0.2h2.9c0.1,0,0.2,0.1,0.2,0.2
			v6.6c0,0.3,0.1,0.6,0.3,0.8c0.2,0.2,0.5,0.3,0.8,0.3h5.8c0.3,0,0.6-0.1,0.8-0.3c0.2-0.2,0.3-0.5,0.3-0.8v-7.1
			c0-0.1,0.1-0.2,0.2-0.2c2.6-0.4,5.2-1,7.4-2.2c2.2-1.2,4-2.9,5.1-5.5c0.9-2,1.2-4.4,1-6.8c-0.2-2.2-0.9-4.3-2.2-6
			c-0.7-0.9-1.4-1.6-2.2-2.3c-0.8-0.7-1.6-1.2-2.5-1.8c0,0,0,0,0,0c-0.1-0.1-0.1-0.2,0-0.3c0.4-0.5,0.9-0.9,1.3-1.4
			c0.4-0.5,0.8-1,1.1-1.5c0.9-1.4,1.4-3.1,1.4-4.8c0.1-1.8-0.3-3.7-1-5.3c-0.9-2-2.2-3.4-3.8-4.5c-1.6-1.1-3.5-1.8-5.5-2.4
			c-0.1,0-0.2-0.1-0.2-0.2v-7.6c0-0.3-0.1-0.6-0.3-0.8c-0.2-0.2-0.5-0.3-0.8-0.3h-5.8c-0.3,0-0.6,0.1-0.8,0.3
			c-0.2,0.2-0.3,0.5-0.3,0.8v6.7h0v0c0,0.1-0.1,0.2-0.2,0.2c-0.3,0-0.6,0-0.9,0C162,48.5,161.7,48.5,161.4,48.5L161.4,48.5z
			 M169.6,42.1h-4.5c-0.1,0-0.2,0.1-0.2,0.2v7.6c0,0.1-0.1,0.2-0.2,0.2c-2,0-3.9-0.1-5.9-0.1c-0.1,0-0.2-0.1-0.2-0.2v-7.5
			c0-0.1-0.1-0.2-0.2-0.2h-4.5c-0.1,0-0.2,0.1-0.2,0.2v7.5c0,0.1-0.1,0.2-0.2,0.2h-10.6c-0.1,0-0.2,0.1-0.2,0.2v4.5
			c0,0.1,0.1,0.2,0.2,0.2h7.5c0.1,0,0.2,0.1,0.2,0.2v33c0,0.1-0.1,0.2-0.2,0.2h-6.7c-0.1,0-0.2,0.1-0.2,0.2l-0.6,4.5
			c0,0.1,0,0.1,0.1,0.2c0,0,0.1,0.1,0.2,0.1h10.4c0.1,0,0.2,0.1,0.2,0.2v7.5c0,0.1,0.1,0.2,0.2,0.2h4.5c0.1,0,0.2-0.1,0.2-0.2v-7.5
			c0-0.1,0.1-0.2,0.2-0.2h5.9c0.1,0,0.2,0.1,0.2,0.2v7.5c0,0.1,0.1,0.2,0.2,0.2h4.5c0.1,0,0.2-0.1,0.2-0.2v-7.7
			c0-0.1,0.1-0.2,0.2-0.2l1.3-0.2c4.6-0.7,9.3-2.2,11.3-6.8c1.4-3.4,1.2-8.3-1.1-11.3c-1.6-2.1-3.7-3.3-5.9-4.7
			c-0.1-0.1-0.1-0.2,0-0.3c1.2-1.3,2.6-2.6,3.6-4.1c1.6-2.5,1.5-6,0.4-8.7c-1.5-3.5-4.9-5.1-8.4-6.1l-1.1-0.3
			c-0.1,0-0.2-0.1-0.2-0.2v-8.2C169.8,42.2,169.7,42.1,169.6,42.1L169.6,42.1z M158.6,88.2V73.3c0-0.1,0.1-0.2,0.2-0.2
			c2.7,0,5.4-0.1,8.1,0.1c2.4,0.2,5.1,0.7,6.9,2.4c2.8,2.6,2.8,7.8,0,10.4c-1.5,1.3-3.5,1.9-5.4,2.2c-3.1,0.5-6.4,0.3-9.6,0.3
			C158.7,88.4,158.6,88.3,158.6,88.2L158.6,88.2z M158.6,68.4V55.2c0-0.1,0.1-0.2,0.2-0.2c3.8,0,9.3-0.4,12.1,2.3
			c2.4,2.3,2.4,6.9,0,9.1c-2.8,2.7-8.4,2.3-12.1,2.3C158.7,68.7,158.6,68.6,158.6,68.4z M162.9,46l-0.7-0.7c0,0-0.1-0.1-0.1-0.2
			V33.5c0-0.1,0-0.1,0.1-0.2l2-2c-0.4,0-0.8,0-1.2,0c-1.4,0-2.8,0.1-4.2,0.2l1.1,1.1c0,0,0.1,0.1,0.1,0.2v7.7
			c-0.1-0.1-0.3-0.2-0.4-0.3V33l-1.3-1.3c-0.4,0-0.8,0.1-1.2,0.2l1.6,1.6c0,0,0.1,0.1,0.1,0.2v6.6h-0.4v-6.5l-1.7-1.7
			c-0.3,0-0.6,0.1-0.9,0.2l1.8,1.8c0.1,0.1,0.1,0.2,0.1,0.3v6h-0.9v-5.8l-2.1-2.1c-0.3,0.1-0.6,0.1-0.8,0.2l2.2,2.2
			c0,0,0.1,0.1,0.1,0.2v5.3h-0.4v-5.2l-2.4-2.4c-0.4,0.1-0.7,0.2-1.1,0.3v2.9c0.1,0.1,0.2,0.2,0.2,0.4c0,0.2-0.2,0.4-0.4,0.4
			s-0.4-0.2-0.4-0.4c0-0.2,0.1-0.3,0.2-0.4v-2.8c-0.3,0.1-0.6,0.2-0.9,0.3v2.5c0.1,0.1,0.2,0.2,0.2,0.4c0,0.2-0.2,0.4-0.4,0.4
			c-0.2,0-0.4-0.2-0.4-0.4c0-0.2,0.1-0.3,0.2-0.4v-2.4c-0.7,0.2-1.4,0.5-2.2,0.8v1.6c0.1,0.1,0.2,0.2,0.2,0.4c0,0.2-0.2,0.4-0.4,0.4
			c-0.2,0-0.4-0.2-0.4-0.4c0-0.2,0.1-0.3,0.2-0.4v-1.4c-0.9,0.4-1.8,0.8-2.7,1.2l0.4,0.4h0.8c0.1-0.1,0.2-0.2,0.4-0.2
			c0.2,0,0.4,0.2,0.4,0.4c0,0.2-0.2,0.4-0.4,0.4c-0.2,0-0.3-0.1-0.4-0.2h-0.9c-0.1,0-0.1,0-0.2-0.1l-0.6-0.6
			c-0.4,0.2-0.7,0.4-1.1,0.6l2.1,2.1c0.1,0.1,0.1,0.2,0.1,0.3v2.6v0l0,0l0,0l0,0l0,0l0,0l0,0l0,0l0,0l0,0l0,0l0,0l0,0l0,0l0,0l0,0h0
			l0,0l0,0l0,0l0,0l0,0l0,0l0,0v0l0,0l0,0l0,0l0,0l0,0l0,0l0,0l0,0l0,0l0,0l0,0l0,0l0,0l0,0l0,0l0,0l0,0l0,0l0,0l0,0l0,0l0,0l0,0
			l0,0l0,0l0,0h0l0,0l0,0l0,0l0,0h0l0,0l0,0l0,0l0,0l0,0l0,0l0,0l0,0l0,0l0,0l0,0l0,0l0,0l0,0l0,0l0,0h0h0l0,0l0,0l0,0l0,0l0,0l0,0
			l0,0l0,0l0,0l0,0l0,0l0,0l0,0l0,0l0,0l0,0l0,0l0,0l0,0l0,0l0,0l0,0l0,0l0,0l0,0l0,0l0,0l0,0l0,0l0,0l0,0l0,0l0,0l0,0l0,0l0,0l0,0
			l0,0l0,0l0,0l0,0l0,0h0l0,0l0,0l0,0l0,0l0,0l0,0l0,0l0,0l0,0l0,0v0l0,0l0,0l0,0l0,0l0,0l0,0l0,0l0,0l0,0l0,0l0,0l0,0l0,0l0,0l0,0
			l0,0l0,0l0,0l0,0l0,0l0,0l0,0v0v-2.4l-2.2-2.2c-0.4,0.2-0.7,0.4-1,0.6l2.5,2.5c0,0,0.1,0.1,0.1,0.2v0.9c0.1,0.1,0.2,0.2,0.2,0.4
			c0,0.2-0.2,0.4-0.4,0.4c-0.2,0-0.4-0.2-0.4-0.4c0-0.2,0.1-0.3,0.2-0.4v-0.8l-2.5-2.5c-0.4,0.3-0.8,0.5-1.2,0.8l1.5,1.5
			c0,0,0.1,0.1,0.1,0.2v1.3c0,0.1-0.1,0.2-0.2,0.2h-0.9c-0.1,0.1-0.2,0.2-0.4,0.2c-0.2,0-0.4-0.2-0.4-0.4c0-0.2,0.2-0.4,0.4-0.4
			c0.2,0,0.3,0.1,0.4,0.2h0.7v-1l-1.5-1.5c-0.6,0.4-1.3,0.9-1.9,1.4l0.9,0.9c0,0,0.1,0,0.1,0c0.2,0,0.4,0.2,0.4,0.4
			c0,0.2-0.2,0.4-0.4,0.4s-0.4-0.2-0.4-0.4c0,0,0-0.1,0-0.1l-0.9-0.9c-0.6,0.5-1.2,1-1.8,1.5l0.6,0.6h6c0.1-0.1,0.2-0.2,0.4-0.2
			c0.2,0,0.4,0.2,0.4,0.4S143.2,43,143,43c-0.2,0-0.3-0.1-0.4-0.2h-6.1c-0.1,0-0.1,0-0.2-0.1l-0.7-0.7c-0.1,0.1-0.2,0.2-0.4,0.3
			l1.3,1.3h6c0.1-0.1,0.2-0.2,0.4-0.2c0.2,0,0.4,0.2,0.4,0.4c0,0.2-0.2,0.4-0.4,0.4c-0.2,0-0.3-0.1-0.4-0.2h-6.1
			c-0.1,0-0.1,0-0.2-0.1l-1.3-1.3c-0.2,0.2-0.3,0.3-0.5,0.5c-0.2,0.2-0.3,0.3-0.5,0.5l2.6,2.6c0,0,0.1,0.1,0.1,0.2V49l2.5,2.5h1.5
			v0.4h-1.6c-0.1,0-0.1,0-0.2-0.1l-2.6-2.6c0,0-0.1-0.1-0.1-0.2v-2.5l-2.6-2.6c-0.2,0.2-0.4,0.5-0.6,0.7l2.3,2.3
			c0,0,0.1,0.1,0.1,0.2v2.5l3.1,3.1h2.1v0.4h-2.2c-0.1,0-0.1,0-0.2-0.1l-3.2-3.2c0,0-0.1-0.1-0.1-0.2v-2.5l-2.2-2.2
			c-0.2,0.2-0.4,0.5-0.6,0.7l1.9,1.9c0,0,0.1,0.1,0.1,0.2v2.5l3.8,3.8h2.8v0.4h-2.9c-0.1,0-0.1,0-0.2-0.1l-3.9-3.9
			c0,0-0.1-0.1-0.1-0.2v-2.5l-1.8-1.8c-1.4,1.7-2.6,3.5-3.7,5.4h1.5c0.1-0.1,0.2-0.2,0.4-0.2c0.2,0,0.4,0.2,0.4,0.4
			s-0.2,0.4-0.4,0.4c-0.2,0-0.3-0.1-0.4-0.2H128c-0.4,0.6-0.7,1.3-1,1.9h5.7c0.1,0,0.2,0,0.3,0.1l3.8,3.8h5h0l0,0l0,0l0,0l0,0l0,0
			l0,0l0,0l0,0l0,0l0,0l0,0l0,0l0,0v0l0,0l0,0l0,0l0,0l0,0l0,0l0,0l0,0l0,0h0l0,0l0,0l0,0l0,0v0l0,0l0,0l0,0l0,0l0,0l0,0l0,0v0l0,0
			l0,0l0,0l0,0l0,0l0,0l0,0l0,0l0,0l0,0l0,0l0,0l0,0l0,0l0,0l0,0l0,0l0,0l0,0l0,0v0l0,0l0,0l0,0l0,0l0,0l0,0l0,0l0,0l0,0h0l0,0l0,0
			l0,0l0,0l0,0l0,0l0,0l0,0l0,0l0,0l0,0l0,0l0,0l0,0v0v0l0,0l0,0l0,0l0,0l0,0l0,0l0,0l0,0l0,0l0,0l0,0l0,0l0,0h0l0,0l0,0l0,0v0l0,0
			l0,0l0,0l0,0l0,0l0,0l0,0v0l0,0l0,0l0,0l0,0l0,0l0,0l0,0l0,0l0,0l0,0l0,0l0,0l0,0l0,0l0,0l0,0l0,0l0,0l0,0l0,0l0,0l0,0l0,0l0,0
			l0,0l0,0l0,0l0,0l0,0l0,0h0l0,0l0,0l0,0l0,0l0,0l0,0l0,0l0,0l0,0v0l0,0l0,0l0,0l0,0l0,0l0,0l0,0l0,0l0,0l0,0l0,0l0,0l0,0h0h-5.2
			c-0.1,0-0.2,0-0.3-0.1l-3.8-3.8h-6c-0.1,0.2-0.2,0.4-0.3,0.6h3.5c0.1-0.1,0.2-0.2,0.4-0.2c0.2,0,0.4,0.2,0.4,0.4s-0.2,0.4-0.4,0.4
			c-0.2,0-0.3-0.1-0.4-0.2H126c-0.1,0.3-0.2,0.6-0.4,0.9h4c0.1-0.1,0.2-0.2,0.4-0.2c0.2,0,0.4,0.2,0.4,0.4c0,0.2-0.2,0.4-0.4,0.4
			c-0.2,0-0.3-0.1-0.4-0.2h-4.2c-0.1,0.3-0.2,0.6-0.3,0.9h1.7c0.1,0,0.1,0,0.2,0.1l1.3,1.3c0,0,0.1,0.1,0.1,0.2v0.9
			c0.1,0.1,0.2,0.2,0.2,0.4c0,0.2-0.2,0.4-0.4,0.4c-0.2,0-0.4-0.2-0.4-0.4c0-0.2,0.1-0.3,0.2-0.4v-0.8l-1.2-1.2H125
			c-0.5,1.5-1,3.1-1.3,4.7h0.5l1.2-1.2v-0.8c-0.1-0.1-0.2-0.2-0.2-0.4c0-0.2,0.2-0.4,0.4-0.4s0.4,0.2,0.4,0.4c0,0.2-0.1,0.3-0.2,0.4
			V62c0,0.1,0,0.1-0.1,0.2l-1.3,1.3c0,0-0.1,0.1-0.2,0.1h-0.7c-0.1,0.3-0.1,0.6-0.2,0.9h0.8l2.5-2.5v-0.8c-0.1-0.1-0.2-0.2-0.2-0.4
			c0-0.2,0.2-0.4,0.4-0.4c0.2,0,0.4,0.2,0.4,0.4c0,0.2-0.1,0.3-0.2,0.4V62c0,0.1,0,0.1-0.1,0.2l-2.6,2.6c0,0-0.1,0.1-0.2,0.1h-0.9
			c-0.4,2.2-0.6,4.5-0.6,6.9c0,0.3,0,0.6,0,0.9l1.7-1.7v-1.1v0l0,0l0,0l0,0l0,0l0,0l0,0l0,0l0,0l0,0l0,0l0,0l0,0l0,0l0,0l0,0l0,0
			l0,0l0,0l0,0l0,0l0,0l0,0l0,0l0,0l0,0l0,0l0,0l0,0l0,0l0,0l0,0l0,0l0,0l0,0l0,0l0,0l0,0l0,0l0,0l0,0l0,0l0,0l0,0l0,0l0,0l0,0l0,0
			l0,0l0,0l0,0l0,0l0,0l0,0l0,0h0l0,0h0l0,0l0,0l0,0l0,0l0,0l0,0l0,0l0,0l0,0l0,0h0l0,0l0,0l0,0l0,0l0,0l0,0l0,0l0,0l0,0l0,0l0,0
			l0,0l0,0l0,0l0,0l0,0l0,0l0,0l0,0l0,0l0,0h0l0,0l0,0l0,0l0,0l0,0l0,0l0,0l0,0l0,0l0,0l0,0l0,0l0,0l0,0l0,0l0,0h0l0,0l0,0l0,0l0,0
			l0,0l0,0l0,0l0,0l0,0l0,0l0,0l0,0l0,0l0,0l0,0l0,0l0,0l0,0l0,0l0,0l0,0l0,0l0,0l0,0l0,0l0,0l0,0l0,0v0V71c0,0.1,0,0.2-0.1,0.3
			l-2.4,2.4c0,0.5,0.1,1,0.1,1.6l3.1-3.1v-2.1c-0.1-0.1-0.2-0.2-0.2-0.4c0-0.2,0.2-0.4,0.4-0.4s0.4,0.2,0.4,0.4
			c0,0.2-0.1,0.3-0.2,0.4v2.2c0,0.1,0,0.1-0.1,0.2l-3.4,3.4c0,0.2,0,0.4,0.1,0.6l4.2-4.2v-2.1c-0.1-0.1-0.2-0.2-0.2-0.4
			c0-0.2,0.2-0.4,0.4-0.4s0.4,0.2,0.4,0.4c0,0.2-0.1,0.3-0.2,0.4v2.2c0,0.1,0,0.1-0.1,0.2l-4.5,4.5c0,0.2,0.1,0.4,0.1,0.6l5.4-5.4
			v-2.1c-0.1-0.1-0.2-0.2-0.2-0.4c0-0.2,0.2-0.4,0.4-0.4c0.2,0,0.4,0.2,0.4,0.4c0,0.2-0.1,0.3-0.2,0.4v2.2c0,0.1,0,0.1-0.1,0.2
			l-5.7,5.7c0.1,0.6,0.2,1.1,0.3,1.7l2.5-2.5c0,0,0.1-0.1,0.2-0.1h2.2c0.1-0.1,0.2-0.2,0.4-0.2c0.2,0,0.4,0.2,0.4,0.4
			c0,0.2-0.2,0.4-0.4,0.4c-0.2,0-0.3-0.1-0.4-0.2h-2.1l-2.6,2.6c0,0.2,0.1,0.3,0.1,0.5l2.2-2.2c0,0,0.1-0.1,0.2-0.1h2.2
			c0.1-0.1,0.2-0.2,0.4-0.2c0.2,0,0.4,0.2,0.4,0.4c0,0.2-0.2,0.4-0.4,0.4c-0.2,0-0.3-0.1-0.4-0.2h-2.1l-2.4,2.3
			c0,0.2,0.1,0.4,0.2,0.6l2-2c0,0,0.1-0.1,0.2-0.1h2.2c0.1-0.1,0.2-0.2,0.4-0.2c0.2,0,0.4,0.2,0.4,0.4s-0.2,0.4-0.4,0.4
			c-0.2,0-0.3-0.1-0.4-0.2h-2.1l-2.1,2.1c0,0.2,0.1,0.4,0.2,0.5l1.7-1.7c0,0,0.1-0.1,0.2-0.1h2.2c0.1-0.1,0.2-0.2,0.4-0.2
			c0.2,0,0.4,0.2,0.4,0.4c0,0.2-0.2,0.4-0.4,0.4c-0.2,0-0.3-0.1-0.4-0.2h-2.1l-1.8,1.8c0.1,0.3,0.2,0.7,0.3,1h4.5l0.5-0.5V83
			c-0.1-0.1-0.2-0.2-0.2-0.4c0-0.2,0.2-0.4,0.4-0.4c0.2,0,0.4,0.2,0.4,0.4c0,0.2-0.1,0.3-0.2,0.4V84c0,0.1,0,0.1-0.1,0.2l-0.6,0.6
			c0,0-0.1,0.1-0.2,0.1h-4.5c0,0.1,0,0.1,0.1,0.2h5l1.2-1.2V83c-0.1-0.1-0.2-0.2-0.2-0.4c0-0.2,0.2-0.4,0.4-0.4
			c0.2,0,0.4,0.2,0.4,0.4c0,0.2-0.1,0.3-0.2,0.4V84c0,0.1,0,0.1-0.1,0.2l-1.3,1.3c0,0-0.1,0.1-0.2,0.1h-4.9c0,0.1,0.1,0.1,0.1,0.2
			h5.4l1.8-1.8V83c-0.1-0.1-0.2-0.2-0.2-0.4c0-0.2,0.2-0.4,0.4-0.4c0.2,0,0.4,0.2,0.4,0.4c0,0.2-0.1,0.3-0.2,0.4V84
			c0,0.1,0,0.1-0.1,0.2l-1.9,1.9c0,0-0.1,0.1-0.2,0.1h-5.3c0,0.1,0.1,0.1,0.1,0.2h5.8l2.5-2.5V83c-0.1-0.1-0.2-0.2-0.2-0.4
			c0-0.2,0.2-0.4,0.4-0.4s0.4,0.2,0.4,0.4c0,0.2-0.1,0.3-0.2,0.4V84c0,0.1,0,0.1-0.1,0.2l-2.2,2.2h2l1-1c0,0,0-0.1,0-0.1
			c0-0.2,0.2-0.4,0.4-0.4s0.4,0.2,0.4,0.4s-0.2,0.4-0.4,0.4c0,0-0.1,0-0.1,0l-1.1,1c0,0-0.1,0.1-0.2,0.1h-8.3
			c0.1,0.3,0.2,0.6,0.4,0.9h9.1l2.5-2.5c0,0,0.1-0.1,0.2-0.1h10.8v0.4h-10.7l-2.5,2.5c0,0-0.1,0.1-0.2,0.1h-9c0,0.1,0.1,0.1,0.1,0.2
			h9.5l1.9-1.9c0,0,0.1-0.1,0.2-0.1h2.2c0.1-0.1,0.2-0.2,0.4-0.2c0.2,0,0.4,0.2,0.4,0.4c0,0.2-0.2,0.4-0.4,0.4
			c-0.2,0-0.3-0.1-0.4-0.2h-2.1l-1.9,1.9c0,0-0.1,0.1-0.2,0.1h-9.4c0,0.1,0.1,0.1,0.1,0.2h9.8l1.2-1.2c0,0,0.1-0.1,0.2-0.1h2.2
			c0.1-0.1,0.2-0.2,0.4-0.2c0.2,0,0.4,0.2,0.4,0.4c0,0.2-0.2,0.4-0.4,0.4c-0.2,0-0.3-0.1-0.4-0.2h-2.1l-1.2,1.2c0,0-0.1,0.1-0.2,0.1
			h-9.7c0.1,0.3,0.3,0.6,0.4,0.9h14l-0.1,0.4h-13.7c0.2,0.3,0.3,0.6,0.5,0.9h13.1l-0.1,0.4h-12.8c0.1,0.2,0.3,0.4,0.4,0.6h9.2
			c0.1,0,0.2,0.1,0.3,0.1l2.6,2.6c0.1,0.1,0.1,0.2,0.1,0.3v1.3v0l0,0l0,0l0,0l0,0l0,0l0,0l0,0l0,0l0,0l0,0l0,0l0,0l0,0l0,0l0,0l0,0
			l0,0l0,0l0,0l0,0l0,0l0,0l0,0l0,0l0,0l0,0l0,0l0,0l0,0l0,0l0,0l0,0v0l0,0l0,0l0,0l0,0l0,0l0,0l0,0l0,0l0,0l0,0l0,0l0,0l0,0l0,0
			l0,0l0,0l0,0l0,0l0,0l0,0l0,0l0,0l0,0l0,0l0,0l0,0l0,0h0l0,0l0,0l0,0l0,0l0,0l0,0l0,0l0,0l0,0l0,0h0l0,0l0,0l0,0l0,0l0,0l0,0l0,0
			l0,0l0,0l0,0l0,0l0,0l0,0l0,0l0,0l0,0l0,0l0,0l0,0l0,0h0l0,0h0l0,0l0,0l0,0l0,0l0,0l0,0l0,0l0,0l0,0l0,0l0,0l0,0l0,0l0,0l0,0v0
			l0,0h0l0,0l0,0l0,0l0,0l0,0l0,0l0,0l0,0l0,0l0,0l0,0l0,0l0,0l0,0l0,0l0,0h0l0,0l0,0l0,0l0,0l0,0l0,0l0,0l0,0l0,0l0,0l0,0l0,0v0
			v-1.1l-2.3-2.3h-8.5c0.4,0.7,0.9,1.3,1.3,1.9h1.5l0.5-0.5v-0.2c-0.1-0.1-0.2-0.2-0.2-0.4c0-0.2,0.2-0.4,0.4-0.4
			c0.2,0,0.4,0.2,0.4,0.4c0,0.2-0.1,0.3-0.2,0.4V95c0,0.1,0,0.1-0.1,0.2l-0.6,0.6c0,0-0.1,0.1-0.2,0.1h-1.2c0.2,0.3,0.4,0.6,0.7,0.9
			h3.7l1.2-1.2v-0.8c-0.1-0.1-0.2-0.2-0.2-0.4c0-0.2,0.2-0.4,0.4-0.4c0.2,0,0.4,0.2,0.4,0.4c0,0.2-0.1,0.3-0.2,0.4v0.9
			c0,0.1,0,0.1-0.1,0.2l-1.3,1.3c0,0-0.1,0.1-0.2,0.1h-3.5c0.2,0.3,0.5,0.6,0.7,0.9h5.3c0.1,0,0.1,0,0.2,0.1l2.3,2.3
			c0,0,0.1,0,0.1,0c0.2,0,0.4,0.2,0.4,0.4c0,0.2-0.2,0.4-0.4,0.4c-0.2,0-0.4-0.2-0.4-0.4c0,0,0-0.1,0-0.1l-2.3-2.3h-4.9
			c0.5,0.6,1.1,1.2,1.7,1.8c1.5,1.5,3,2.8,4.7,4l2.2-2.2v-0.8c-0.1-0.1-0.2-0.2-0.2-0.4c0-0.2,0.2-0.4,0.4-0.4
			c0.2,0,0.4,0.2,0.4,0.4c0,0.2-0.1,0.3-0.2,0.4v0.9c0,0.1,0,0.1-0.1,0.2l-2.2,2.2c0.1,0.1,0.3,0.2,0.4,0.3l2.8-2.8v-0.8
			c-0.1-0.1-0.2-0.2-0.2-0.4c0-0.2,0.2-0.4,0.4-0.4c0.2,0,0.4,0.2,0.4,0.4c0,0.2-0.1,0.3-0.2,0.4v0.9c0,0.1,0,0.1-0.1,0.2l-2.8,2.8
			c0.1,0.1,0.3,0.2,0.4,0.3l3.3-3.3v-0.8c-0.1-0.1-0.2-0.2-0.2-0.4c0-0.2,0.2-0.4,0.4-0.4c0.2,0,0.4,0.2,0.4,0.4
			c0,0.2-0.1,0.3-0.2,0.4v0.9c0,0.1,0,0.1-0.1,0.2l-3.3,3.3c0.1,0.1,0.3,0.2,0.4,0.3l3.8-3.8v-0.8c-0.1-0.1-0.2-0.2-0.2-0.4
			c0-0.2,0.2-0.4,0.4-0.4c0.2,0,0.4,0.2,0.4,0.4c0,0.2-0.1,0.3-0.2,0.4v0.9c0,0.1,0,0.1-0.1,0.2l-3.8,3.8c0.9,0.5,1.8,1.1,2.7,1.5
			l4.4-4.4v-4.8l-1-1h-2.4l0,0l0,0l0,0l0,0l0,0l0,0l0,0l0,0l0,0l0,0l0,0l0,0l0,0l0,0l0,0l0,0l0,0l0,0l0,0l0,0l0,0l0,0l0,0l0,0l0,0
			l0,0l0,0l0,0l0,0l0,0l0,0l0,0l0,0l0,0l0,0l0,0l0,0l0,0l0,0l0,0v0l0,0h0l0,0l0,0l0,0l0,0l0,0l0,0l0,0l0,0l0,0l0,0l0,0l0,0l0,0l0,0
			l0,0l0,0l0,0l0,0l0,0l0,0l0,0l0,0l0,0l0,0l0,0l0,0l0,0l0,0l0,0v0v0l0,0l0,0l0,0l0,0l0,0l0,0l0,0l0,0l0,0l0,0l0,0l0,0l0,0l0,0l0,0
			l0,0l0,0l0,0l0,0l0,0v0l0,0l0,0l0,0l0,0l0,0l0,0l0,0l0,0l0,0h0l0,0v0l0,0l0,0l0,0l0,0l0,0l0,0l0,0l0,0l0,0l0,0l0,0l0,0v0l0,0l0,0
			l0,0l0,0l0,0l0,0l0,0l0,0l0,0l0,0l0,0l0,0l0,0l0,0l0,0l0,0l0,0l0,0l0,0l0,0l0,0l0,0l0,0l0,0l0,0l0,0l0,0l0,0h2.6
			c0.1,0,0.2,0,0.3,0.1l1.3,1.3c0.1,0.1,0.1,0.2,0.1,0.3v5.2c0,0.1,0,0.2-0.1,0.3l-0.8,0.8h3l1.2-1.2v-0.1c0,0,0.1,0,0.1,0h0.3v0.2
			c0,0.1,0,0.1-0.1,0.2l-1.3,1.3c0,0-0.1,0.1-0.2,0.1h-3.5l-3.1,3.1c1.3,0.6,2.6,1.2,3.9,1.7h3.6c0.1-0.1,0.2-0.2,0.4-0.2
			c0.2,0,0.4,0.2,0.4,0.4c0,0.2-0.2,0.4-0.4,0.4c-0.2,0-0.3-0.1-0.4-0.2h-2.3c1.2,0.4,2.5,0.7,3.8,1v-1.2c0-0.1,0-0.1,0.1-0.2
			l2.5-2.5v-4h0.4v4c0,0.1,0,0.1-0.1,0.2l-2.5,2.5v1.2c0.3,0.1,0.6,0.1,0.9,0.2v-1.5c0-0.1,0-0.1,0.1-0.2l2.5-2.5v-4h0.4v4
			c0,0.1,0,0.1-0.1,0.2l-2.5,2.5v1.5c0.3,0,0.6,0.1,0.9,0.1v-1.7c0-0.1,0-0.1,0.1-0.2l2.5-2.5v-4.1c0.2-0.1,0.3-0.2,0.4-0.3v4.4
			c0,0.1,0,0.1-0.1,0.2l-2.5,2.5v1.7c0.3,0,0.6,0.1,0.9,0.1v-1.9c0-0.1,0-0.1,0.1-0.2l2.5-2.5v-8.9l-0.4-0.4v-0.6l0.7,0.7
			c0,0,0.1,0.1,0.1,0.2l0,9.1c0,0.1,0,0.1-0.1,0.2l-2.5,2.5v1.8c0.7,0.1,1.4,0.1,2.2,0.2v-1.7c-0.1-0.1-0.2-0.2-0.2-0.4
			c0-0.2,0.2-0.4,0.4-0.4c0.2,0,0.4,0.2,0.4,0.4c0,0.2-0.1,0.3-0.2,0.4v1.7c0.6,0,1.1,0,1.7,0c0.1,0,0.3,0,0.4,0v-9.1
			c0.1,0.1,0.3,0.2,0.4,0.3v8.9c0.3,0,0.6,0,0.9,0v-2.8c0-0.1,0-0.1,0.1-0.2l1-1c0,0,0-0.1,0-0.1c0-0.2,0.2-0.4,0.4-0.4
			c0.2,0,0.4,0.2,0.4,0.4c0,0.2-0.2,0.4-0.4,0.4c0,0-0.1,0-0.1,0l-1,1v2.7c0.3,0,0.6,0,0.9-0.1v-0.8c0-0.1,0-0.1,0.1-0.2l2.6-2.6
			c0,0,0.1-0.1,0.2-0.1h0.9c0.1-0.1,0.2-0.2,0.4-0.2c0.2,0,0.4,0.2,0.4,0.4c0,0.2-0.2,0.4-0.4,0.4c-0.2,0-0.3-0.1-0.4-0.2H169
			l-2.5,2.5v0.6c0.3,0,0.6-0.1,0.9-0.1v-0.6c0-0.1,0-0.1,0.1-0.2l1.3-1.3c0,0,0.1-0.1,0.2-0.1h0.9c0.1-0.1,0.2-0.2,0.4-0.2
			c0.2,0,0.4,0.2,0.4,0.4c0,0.2-0.2,0.4-0.4,0.4c-0.2,0-0.3-0.1-0.4-0.2H169l-1.2,1.2v0.5c1.6-0.2,3.2-0.5,4.7-0.8v-2.2l-1.2-1.2
			h-0.8c-0.1,0.1-0.2,0.2-0.4,0.2c-0.2,0-0.4-0.2-0.4-0.4c0-0.2,0.2-0.4,0.4-0.4c0.2,0,0.3,0.1,0.4,0.2h0.9c0.1,0,0.1,0,0.2,0.1
			l1.3,1.3c0,0,0.1,0.1,0.1,0.2v2.2c0.3-0.1,0.6-0.1,0.9-0.2v-4.2c-0.1-0.1-0.2-0.2-0.2-0.4c0-0.2,0.2-0.4,0.4-0.4
			c0.2,0,0.4,0.2,0.4,0.4c0,0.2-0.1,0.3-0.2,0.4v4.1c0.3-0.1,0.6-0.2,0.9-0.3v-3.8c-0.1-0.1-0.2-0.2-0.2-0.4c0-0.2,0.2-0.4,0.4-0.4
			c0.2,0,0.4,0.2,0.4,0.4c0,0.2-0.1,0.3-0.2,0.4v3.7c0.7-0.2,1.3-0.4,1.9-0.7v-4.5l-5.7-5.7v-1.2l6.5,6.5c0.1,0.1,0.1,0.2,0.1,0.3
			v4.3c0.7-0.3,1.3-0.6,1.9-0.9v-1.8c-0.1-0.1-0.2-0.2-0.2-0.4c0-0.2,0.2-0.4,0.4-0.4c0.2,0,0.4,0.2,0.4,0.4c0,0.2-0.1,0.3-0.2,0.4
			v1.6c0.3-0.1,0.6-0.3,0.9-0.4v-1.2c-0.1-0.1-0.2-0.2-0.2-0.4c0-0.2,0.2-0.4,0.4-0.4c0.2,0,0.4,0.2,0.4,0.4c0,0.2-0.1,0.3-0.2,0.4
			v0.9c1-0.5,2-1.1,2.9-1.7l-0.6-0.6h-2.1c-0.1,0.1-0.2,0.2-0.4,0.2c-0.2,0-0.4-0.2-0.4-0.4s0.2-0.4,0.4-0.4c0.2,0,0.3,0.1,0.4,0.2
			h2.2c0.1,0,0.1,0,0.2,0.1l0.8,0.8c0.4-0.3,0.8-0.5,1.2-0.8L183,101h-1.9c-0.1,0-0.1,0-0.2-0.1l-6.6-6.6c0.2,0,0.3-0.1,0.5-0.1
			l6.4,6.4h1.9c0.1,0,0.1,0,0.2,0.1l3.6,3.6c0.3-0.2,0.5-0.4,0.8-0.6l-3.9-3.9h-1.9c-0.1,0-0.1,0-0.2-0.1l-5.8-5.8
			c0.2,0,0.3-0.1,0.5-0.1l5.5,5.5h1.9c0.1,0,0.1,0,0.2,0.1l4,4c0.2-0.2,0.5-0.4,0.7-0.6l-4.4-4.4h-1.9c-0.1,0-0.1,0-0.2-0.1l-5-5
			c0.1-0.1,0.3-0.1,0.4-0.2l4.8,4.8h1.9c0.1,0,0.1,0,0.2,0.1l4.5,4.5c0.4-0.3,0.7-0.6,1.1-0.9l-2-2c0,0-0.1-0.1-0.1-0.2v-6.1
			c-0.1-0.1-0.2-0.2-0.2-0.4c0-0.2,0.2-0.4,0.4-0.4c0.2,0,0.4,0.2,0.4,0.4c0,0.2-0.1,0.3-0.2,0.4v6l1.9,1.9c0.1-0.1,0.2-0.2,0.4-0.3
			l-1.3-1.3c0,0-0.1-0.1-0.1-0.2v-6.1c-0.1-0.1-0.2-0.2-0.2-0.4c0-0.2,0.2-0.4,0.4-0.4c0.2,0,0.4,0.2,0.4,0.4c0,0.2-0.1,0.3-0.2,0.4
			v6l1.3,1.3c0.2-0.2,0.3-0.3,0.5-0.5c0.4-0.4,0.8-0.8,1.1-1.2l-1.7-1.7c0,0-0.1,0-0.1,0c-0.2,0-0.4-0.2-0.4-0.4
			c0-0.2,0.2-0.4,0.4-0.4c0.2,0,0.4,0.2,0.4,0.4c0,0,0,0.1,0,0.1l1.7,1.7c0.5-0.6,1-1.2,1.5-1.8l-2.4-2.4h-1v0.7
			c0.1,0.1,0.2,0.2,0.2,0.4c0,0.2-0.2,0.4-0.4,0.4c-0.2,0-0.4-0.2-0.4-0.4c0-0.2,0.1-0.3,0.2-0.4v-0.9c0-0.1,0.1-0.2,0.2-0.2h1.3
			c0.1,0,0.1,0,0.2,0.1l2.4,2.4c0.3-0.4,0.6-0.7,0.9-1.1l-3.5-3.5h-0.8c-0.1,0.1-0.2,0.2-0.4,0.2c-0.2,0-0.4-0.2-0.4-0.4
			c0-0.2,0.2-0.4,0.4-0.4c0.2,0,0.3,0.1,0.4,0.2h0.9c0.1,0,0.1,0,0.2,0.1l3.5,3.5c0.2-0.3,0.5-0.7,0.7-1l-3.3-3.3h-2.4
			c-0.2,0-0.4-0.2-0.4-0.4c0-0.2,0.2-0.4,0.4-0.4h2.6c0.1,0,0.2,0,0.3,0.1l3.3,3.3c0.4-0.6,0.8-1.2,1.1-1.8l-1-1
			c0,0-0.1-0.1-0.1-0.2v-0.9c-0.1-0.1-0.2-0.2-0.2-0.4c0-0.2,0.2-0.4,0.4-0.4c0.2,0,0.4,0.2,0.4,0.4c0,0.2-0.1,0.3-0.2,0.4v0.8
			l0.8,0.8c0.6-1,1.1-2,1.5-3.1h-2.2c-0.1,0.1-0.2,0.2-0.4,0.2c-0.2,0-0.4-0.2-0.4-0.4c0-0.2,0.2-0.4,0.4-0.4c0.2,0,0.3,0.1,0.4,0.2
			h2.4c0.3-0.7,0.6-1.4,0.9-2.2h-4.5c-0.1,0.1-0.2,0.2-0.4,0.2c-0.2,0-0.4-0.2-0.4-0.4s0.2-0.4,0.4-0.4c0.2,0,0.3,0.1,0.4,0.2h4.7
			c0.1-0.3,0.2-0.6,0.3-0.9h-5c-0.1,0.1-0.2,0.2-0.4,0.2c-0.2,0-0.4-0.2-0.4-0.4c0-0.2,0.2-0.4,0.4-0.4c0.2,0,0.3,0.1,0.4,0.2h5.1
			c1.2-3.8,1.8-7.9,1.8-12.1c0-0.3,0-0.6,0-0.9l-1.7,1.7v1.1l0,0l0,0l0,0l0,0l0,0l0,0l0,0l0,0l0,0l0,0l0,0l0,0l0,0l0,0v0l0,0l0,0
			l0,0l0,0l0,0l0,0l0,0l0,0l0,0l0,0l0,0l0,0l0,0l0,0l0,0l0,0l0,0l0,0l0,0v0l0,0v0l0,0l0,0l0,0l0,0l0,0l0,0l0,0l0,0l0,0l0,0l0,0l0,0
			l0,0l0,0l0,0l0,0l0,0l0,0l0,0l0,0l0,0l0,0l0,0l0,0l0,0l0,0h0l0,0l0,0l0,0l0,0l0,0l0,0l0,0l0,0l0,0l0,0l0,0l0,0l0,0l0,0l0,0l0,0
			l0,0l0,0l0,0l0,0l0,0l0,0l0,0l0,0l0,0l0,0l0,0v0l0,0v0l0,0l0,0l0,0l0,0l0,0l0,0l0,0l0,0l0,0l0,0l0,0l0,0l0,0l0,0l0,0l0,0l0,0l0,0
			v0l0,0l0,0l0,0l0,0l0,0l0,0l0,0l0,0l0,0l0,0l0,0l0,0l0,0v-1.3c0-0.1,0-0.2,0.1-0.3l2.4-2.4c0-0.5-0.1-1-0.1-1.6l-3.1,3.1v2.1
			c0.1,0.1,0.2,0.2,0.2,0.4c0,0.2-0.2,0.4-0.4,0.4c-0.2,0-0.4-0.2-0.4-0.4c0-0.2,0.1-0.3,0.2-0.4V71c0-0.1,0-0.1,0.1-0.2l3.4-3.4
			c0-0.2,0-0.4-0.1-0.6l-4.2,4.2v2.1c0.1,0.1,0.2,0.2,0.2,0.4c0,0.2-0.2,0.4-0.4,0.4c-0.2,0-0.4-0.2-0.4-0.4c0-0.2,0.1-0.3,0.2-0.4
			V71c0-0.1,0-0.1,0.1-0.2l4.5-4.5c0-0.2-0.1-0.4-0.1-0.6l-5.4,5.4v2.1c0.1,0.1,0.2,0.2,0.2,0.4c0,0.2-0.2,0.4-0.4,0.4
			c-0.2,0-0.4-0.2-0.4-0.4c0-0.2,0.1-0.3,0.2-0.4V71c0-0.1,0-0.1,0.1-0.2l5.7-5.7c-0.1-0.6-0.2-1.1-0.3-1.7l-2.5,2.5
			c0,0-0.1,0.1-0.2,0.1h-2.2c-0.1,0.1-0.2,0.2-0.4,0.2c-0.2,0-0.4-0.2-0.4-0.4s0.2-0.4,0.4-0.4c0.2,0,0.3,0.1,0.4,0.2h2.1l2.6-2.6
			c0-0.2-0.1-0.3-0.1-0.5l-2.3,2.1c0,0-0.1,0.1-0.2,0.1h-2.2c-0.1,0.1-0.2,0.2-0.4,0.2c-0.2,0-0.4-0.2-0.4-0.4s0.2-0.4,0.4-0.4
			c0.2,0,0.3,0.1,0.4,0.2h2.1l2.4-2.3c-0.1-0.2-0.1-0.4-0.2-0.6l-2,2c0,0-0.1,0.1-0.2,0.1h-2.2c-0.1,0.1-0.2,0.2-0.4,0.2
			c-0.2,0-0.4-0.2-0.4-0.4s0.2-0.4,0.4-0.4c0.2,0,0.3,0.1,0.4,0.2h2.1l2.1-2.1c0-0.2-0.1-0.4-0.2-0.5l-1.7,1.7c0,0-0.1,0.1-0.2,0.1
			h-2.2c-0.1,0.1-0.2,0.2-0.4,0.2c-0.2,0-0.4-0.2-0.4-0.4c0-0.2,0.2-0.4,0.4-0.4c0.2,0,0.3,0.1,0.4,0.2h2.1l1.8-1.8
			c-0.1-0.3-0.2-0.7-0.3-1h-4.5l-0.5,0.5v0.8c0.1,0.1,0.2,0.2,0.2,0.4c0,0.2-0.2,0.4-0.4,0.4c-0.2,0-0.4-0.2-0.4-0.4
			c0-0.2,0.1-0.3,0.2-0.4v-0.9c0-0.1,0-0.1,0.1-0.2l0.6-0.6c0,0,0.1-0.1,0.2-0.1h4.5c0-0.1,0-0.1-0.1-0.2h-5l-1.2,1.2v0.8
			c0.1,0.1,0.2,0.2,0.2,0.4c0,0.2-0.2,0.4-0.4,0.4c-0.2,0-0.4-0.2-0.4-0.4c0-0.2,0.1-0.3,0.2-0.4v-0.9c0-0.1,0-0.1,0.1-0.2l1.3-1.3
			c0,0,0.1-0.1,0.2-0.1h4.9c0-0.1-0.1-0.1-0.1-0.2h-6l-1.2,1.2v1.5c0.1,0.1,0.2,0.2,0.2,0.4c0,0.2-0.2,0.4-0.4,0.4
			c-0.2,0-0.4-0.2-0.4-0.4c0-0.2,0.1-0.3,0.2-0.4v-1.6c0-0.1,0-0.1,0.1-0.2l1.3-1.3c0,0,0.1-0.1,0.2-0.1h6c0-0.1-0.1-0.1-0.1-0.2
			h-7.1l-1.2,1.2v2.1c0.1,0.1,0.2,0.2,0.2,0.4c0,0.2-0.2,0.4-0.4,0.4c-0.2,0-0.4-0.2-0.4-0.4c0-0.2,0.1-0.3,0.2-0.4v-2.2
			c0-0.1,0-0.1,0.1-0.2l0.9-0.9h-3.3l-1,1c0,0,0,0.1,0,0.1c0,0.2-0.2,0.4-0.4,0.4c-0.2,0-0.4-0.2-0.4-0.4c0-0.2,0.2-0.4,0.4-0.4
			c0,0,0.1,0,0.1,0l1.1-1c0,0,0.1-0.1,0.2-0.1h5.2h0h5.7c-0.3-0.7-0.6-1.4-0.9-2.2h-11.1l-2.5,2.5c0,0-0.1,0.1-0.2,0.1h-4.2
			c-0.1-0.1-0.1-0.3-0.2-0.4h4.2l2.5-2.5c0,0,0.1-0.1,0.2-0.1h11c-0.1-0.3-0.3-0.6-0.4-0.9h-11.1l-2.5,2.5c0,0-0.1,0.1-0.2,0.1h-1.9
			c-0.1,0-0.1,0-0.2-0.1l-1.7-1.7c0,0-0.1,0-0.1,0c-0.2,0-0.4-0.2-0.4-0.4c0-0.2,0.2-0.4,0.4-0.4c0.2,0,0.4,0.2,0.4,0.4
			c0,0,0,0.1,0,0.1l1.6,1.6h1.8l2.5-2.5c0,0,0.1-0.1,0.2-0.1h11c-0.2-0.3-0.3-0.6-0.5-0.9h-15.1c-0.1,0-0.1,0-0.2-0.1l-2.6-2.6
			c0,0-0.1-0.1-0.1-0.2v-2.2c-0.1-0.1-0.2-0.2-0.2-0.4c0-0.2,0.2-0.4,0.4-0.4c0.2,0,0.4,0.2,0.4,0.4c0,0.2-0.1,0.3-0.2,0.4V49
			l2.5,2.5h14.7c-0.2-0.3-0.3-0.6-0.5-0.9h-14.3c-0.1,0-0.1,0-0.2-0.1l-1.3-1.3c0,0-0.1-0.1-0.1-0.2v-2.2c-0.1-0.1-0.2-0.2-0.2-0.4
			c0-0.2,0.2-0.4,0.4-0.4c0.2,0,0.4,0.2,0.4,0.4c0,0.2-0.1,0.3-0.2,0.4V49l1.2,1.2h13.9c-0.4-0.6-0.7-1.1-1.1-1.7l-0.9,0.9
			c-0.1,0.1-0.2,0.1-0.3,0.1H187c-0.1,0-0.2,0-0.3-0.1l-2.6-2.6c-0.1-0.1-0.1-0.2-0.1-0.3c0,0,0,0,0,0c0-0.2,0.2-0.4,0.4-0.4
			c0.2,0,0.3,0.1,0.4,0.3l2.4,2.4h7.4l0.9-0.9c-0.3-0.3-0.5-0.7-0.8-1H187c-0.1,0-0.1,0-0.2-0.1l-2.3-2.3c0,0-0.1,0-0.1,0
			c-0.2,0-0.4-0.2-0.4-0.4s0.2-0.4,0.4-0.4c0.2,0,0.4,0.2,0.4,0.4c0,0,0,0.1,0,0.1l2.3,2.3h7.3c-0.2-0.3-0.5-0.6-0.7-0.9H187
			c-0.1,0-0.1,0-0.2-0.1l-2.3-2.3c0,0-0.1,0-0.1,0c-0.2,0-0.4-0.2-0.4-0.4c0-0.2,0.2-0.4,0.4-0.4c0.2,0,0.4,0.2,0.4,0.4
			c0,0,0,0.1,0,0.1l2.3,2.3h6.2c-0.5-0.6-1.1-1.2-1.7-1.8c-1.6-1.6-3.2-3-5-4.3h-3.3l-2.5,2.5v0.8c0.1,0.1,0.2,0.2,0.2,0.4
			c0,0.2-0.2,0.4-0.4,0.4c-0.2,0-0.4-0.2-0.4-0.4c0-0.2,0.1-0.3,0.2-0.4v-0.9c0-0.1,0-0.1,0.1-0.2l2.6-2.6c0,0,0.1-0.1,0.2-0.1h2.8
			c-0.1-0.1-0.2-0.1-0.3-0.2h-3.1l-3.1,3.1v0.8c0.1,0.1,0.2,0.2,0.2,0.4c0,0.2-0.2,0.4-0.4,0.4c-0.2,0-0.4-0.2-0.4-0.4
			c0-0.2,0.1-0.3,0.2-0.4v-0.9c0-0.1,0-0.1,0.1-0.2l3.2-3.2c0,0,0.1-0.1,0.2-0.1l2.5,0c-0.1-0.1-0.2-0.1-0.3-0.2h-2.7l-3.8,3.8v0.8
			c0.1,0.1,0.2,0.2,0.2,0.4c0,0.2-0.2,0.4-0.4,0.4c-0.2,0-0.4-0.2-0.4-0.4c0-0.2,0.1-0.3,0.2-0.4v-0.9c0-0.1,0-0.1,0.1-0.2l3.9-3.9
			c0,0,0.1-0.1,0.2-0.1h2.1c-0.4-0.2-0.7-0.4-1.1-0.6h-4.7l-2.5,2.5l0,0l-1.2,1.2V45l1,1h2.4h0l0,0l0,0l0,0l0,0l0,0l0,0l0,0l0,0l0,0
			l0,0l0,0l0,0l0,0l0,0l0,0l0,0l0,0l0,0l0,0l0,0l0,0l0,0v0l0,0l0,0l0,0l0,0l0,0l0,0l0,0l0,0l0,0l0,0l0,0l0,0l0,0l0,0l0,0l0,0l0,0
			l0,0l0,0l0,0l0,0l0,0l0,0l0,0l0,0l0,0l0,0l0,0l0,0l0,0l0,0l0,0h0l0,0v0l0,0v0l0,0l0,0l0,0l0,0l0,0l0,0l0,0l0,0l0,0v0l0,0l0,0v0
			l0,0l0,0l0,0v0l0,0l0,0l0,0l0,0l0,0l0,0l0,0l0,0l0,0l0,0h0l0,0l0,0l0,0l0,0l0,0l0,0l0,0l0,0l0,0v0l0,0l0,0l0,0l0,0l0,0l0,0l0,0
			l0,0l0,0l0,0l0,0l0,0l0,0l0,0l0,0l0,0l0,0v0l0,0l0,0l0,0l0,0l0,0l0,0l0,0l0,0l0,0l0,0l0,0l0,0l0,0l0,0l0,0l0,0l0,0l0,0v0l0,0l0,0
			l0,0l0,0l0,0l0,0l0,0l0,0l0,0l0,0l0,0l0,0l0,0h-2.6c-0.1,0-0.2,0-0.3-0.1l-1.3-1.3c-0.1-0.1-0.1-0.2-0.1-0.3V40
			c0-0.1,0-0.2,0.1-0.3l0.6-0.6h-2.7l-1,1v0c-0.1,0-0.2,0-0.4,0h-0.5V40c0-0.1,0-0.2,0.1-0.3l1.3-1.3c0.1-0.1,0.2-0.1,0.3-0.1h3.7
			l2.5-2.5c0.1-0.1,0.2-0.1,0.3-0.1h3.3c-1.5-0.7-3-1.4-4.5-1.9h-6.2c-0.1,0.1-0.2,0.2-0.4,0.2c-0.2,0-0.4-0.2-0.4-0.4
			c0-0.2,0.2-0.4,0.4-0.4c0.2,0,0.3,0.1,0.4,0.2h4.9c-1-0.3-2-0.6-3.1-0.9H169l-2.5,2.5v5.2h-0.4v-5.3c0-0.1,0-0.1,0.1-0.2l2.6-2.6
			c0,0,0.1-0.1,0.2-0.1h1.4c-1-0.2-2-0.3-3-0.4l-2,2v6.5h-0.4v-6.6c0-0.1,0-0.1,0.1-0.2l1.8-1.8c-0.2,0-0.4,0-0.6-0.1l-2.1,2.1v6.6
			c-0.2,0.1-0.3,0.1-0.4,0.3v-7c0-0.1,0-0.1,0.1-0.2l1.9-1.9c-0.2,0-0.4,0-0.7,0l-2.2,2.2v11.5l0.3,0.3L162.9,46L162.9,46z
			 M166.1,107.9c0,0.1,0.1,0.2,0.2,0.2c0.1,0,0.2-0.1,0.2-0.2c0-0.1-0.1-0.2-0.2-0.2C166.2,107.7,166.1,107.8,166.1,107.9z
			 M161.1,43.7c-0.1,0-0.2,0.1-0.2,0.2c0,0.1,0.1,0.2,0.2,0.2c0.1,0,0.2-0.1,0.2-0.2C161.3,43.8,161.2,43.7,161.1,43.7z M161.1,32
			c-0.1,0-0.2,0.1-0.2,0.2c0,0.1,0.1,0.2,0.2,0.2c0.1,0,0.2-0.1,0.2-0.2C161.3,32.1,161.2,32,161.1,32z M167.6,37.2
			c-0.1,0-0.2,0.1-0.2,0.2c0,0.1,0.1,0.2,0.2,0.2c0.1,0,0.2-0.1,0.2-0.2C167.8,37.3,167.7,37.2,167.6,37.2z M170.2,35.9
			c-0.1,0-0.2,0.1-0.2,0.2c0,0.1,0.1,0.2,0.2,0.2c0.1,0,0.2-0.1,0.2-0.2C170.4,36,170.3,35.9,170.2,35.9z M170.2,33.3
			c-0.1,0-0.2,0.1-0.2,0.2c0,0.1,0.1,0.2,0.2,0.2c0.1,0,0.2-0.1,0.2-0.2C170.4,33.4,170.3,33.3,170.2,33.3z M175.3,34.6
			c-0.1,0-0.2,0.1-0.2,0.2s0.1,0.2,0.2,0.2c0.1,0,0.2-0.1,0.2-0.2S175.5,34.6,175.3,34.6z M168.9,34.6c-0.1,0-0.2,0.1-0.2,0.2
			s0.1,0.2,0.2,0.2c0.1,0,0.2-0.1,0.2-0.2S169,34.6,168.9,34.6z M174,34.6c-0.1,0-0.2,0.1-0.2,0.2s0.1,0.2,0.2,0.2
			c0.1,0,0.2-0.1,0.2-0.2S174.2,34.6,174,34.6z M177.9,46.2c-0.1,0-0.2,0.1-0.2,0.2c0,0.1,0.1,0.2,0.2,0.2c0.1,0,0.2-0.1,0.2-0.2
			C178.1,46.3,178,46.2,177.9,46.2z M177.9,42.4c-0.1,0-0.2,0.1-0.2,0.2s0.1,0.2,0.2,0.2c0.1,0,0.2-0.1,0.2-0.2S178,42.4,177.9,42.4
			z M179.2,42.4c-0.1,0-0.2,0.1-0.2,0.2s0.1,0.2,0.2,0.2c0.1,0,0.2-0.1,0.2-0.2S179.3,42.4,179.2,42.4z M180.5,42.4
			c-0.1,0-0.2,0.1-0.2,0.2s0.1,0.2,0.2,0.2c0.1,0,0.2-0.1,0.2-0.2S180.6,42.4,180.5,42.4z M181.8,42.4c-0.1,0-0.2,0.1-0.2,0.2
			s0.1,0.2,0.2,0.2c0.1,0,0.2-0.1,0.2-0.2S181.9,42.4,181.8,42.4z M185.7,39.8c-0.1,0-0.2,0.1-0.2,0.2c0,0.1,0.1,0.2,0.2,0.2
			s0.2-0.1,0.2-0.2C185.9,39.9,185.8,39.8,185.7,39.8z M179.2,46.2c-0.1,0-0.2,0.1-0.2,0.2c0,0.1,0.1,0.2,0.2,0.2
			c0.1,0,0.2-0.1,0.2-0.2C179.4,46.3,179.3,46.2,179.2,46.2z M180.5,46.2c-0.1,0-0.2,0.1-0.2,0.2c0,0.1,0.1,0.2,0.2,0.2
			c0.1,0,0.2-0.1,0.2-0.2C180.7,46.3,180.6,46.2,180.5,46.2z M181.8,46.2c-0.1,0-0.2,0.1-0.2,0.2c0,0.1,0.1,0.2,0.2,0.2
			c0.1,0,0.2-0.1,0.2-0.2C182,46.3,181.9,46.2,181.8,46.2z M174,48.8c-0.1,0-0.2,0.1-0.2,0.2c0,0.1,0.1,0.2,0.2,0.2
			c0.1,0,0.2-0.1,0.2-0.2C174.3,48.9,174.2,48.8,174,48.8z M179.2,37.2c-0.1,0-0.2,0.1-0.2,0.2c0,0.1,0.1,0.2,0.2,0.2
			c0.1,0,0.2-0.1,0.2-0.2C179.4,37.3,179.3,37.2,179.2,37.2z M176.6,39.8c-0.1,0-0.2,0.1-0.2,0.2c0,0.1,0.1,0.2,0.2,0.2
			c0.1,0,0.2-0.1,0.2-0.2C176.8,39.9,176.7,39.8,176.6,39.8z M184.4,41.1c-0.1,0-0.2,0.1-0.2,0.2c0,0.1,0.1,0.2,0.2,0.2
			c0.1,0,0.2-0.1,0.2-0.2C184.6,41.2,184.5,41.1,184.4,41.1z M190.9,43.7c-0.1,0-0.2,0.1-0.2,0.2c0,0.1,0.1,0.2,0.2,0.2
			c0.1,0,0.2-0.1,0.2-0.2C191.1,43.8,191,43.7,190.9,43.7z M184.4,42.4c-0.1,0-0.2,0.1-0.2,0.2s0.1,0.2,0.2,0.2
			c0.1,0,0.2-0.1,0.2-0.2S184.5,42.4,184.4,42.4z M184.4,43.7c-0.1,0-0.2,0.1-0.2,0.2c0,0.1,0.1,0.2,0.2,0.2c0.1,0,0.2-0.1,0.2-0.2
			C184.6,43.8,184.5,43.7,184.4,43.7z M184.4,46.2c-0.1,0-0.2,0.1-0.2,0.2c0,0.1,0.1,0.2,0.2,0.2c0.1,0,0.2-0.1,0.2-0.2
			C184.6,46.3,184.5,46.2,184.4,46.2z M174,47.5c-0.1,0-0.2,0.1-0.2,0.2s0.1,0.2,0.2,0.2c0.1,0,0.2-0.1,0.2-0.2S174.2,47.5,174,47.5
			z M172.7,43.7c-0.1,0-0.2,0.1-0.2,0.2c0,0.1,0.1,0.2,0.2,0.2c0.1,0,0.2-0.1,0.2-0.2C173,43.8,172.9,43.7,172.7,43.7z M181.2,53.4
			c-0.1,0-0.2,0.1-0.2,0.2c0,0.1,0.1,0.2,0.2,0.2c0.1,0,0.2-0.1,0.2-0.2C181.4,53.5,181.3,53.4,181.2,53.4z M188.3,65.6
			c-0.1,0-0.2,0.1-0.2,0.2c0,0.1,0.1,0.2,0.2,0.2c0.1,0,0.2-0.1,0.2-0.2C188.5,65.7,188.4,65.6,188.3,65.6z M187,65.6
			c-0.1,0-0.2,0.1-0.2,0.2c0,0.1,0.1,0.2,0.2,0.2c0.1,0,0.2-0.1,0.2-0.2C187.2,65.7,187.1,65.6,187,65.6z M188.2,57.9
			c-0.1,0-0.2,0.1-0.2,0.2c0,0.1,0.1,0.2,0.2,0.2c0.1,0,0.2-0.1,0.2-0.2C188.4,58,188.3,57.9,188.2,57.9z M190.9,61.8
			c-0.1,0-0.2,0.1-0.2,0.2c0,0.1,0.1,0.2,0.2,0.2c0.1,0,0.2-0.1,0.2-0.2C191.1,61.9,191,61.8,190.9,61.8z M192.1,60.5
			c-0.1,0-0.2,0.1-0.2,0.2c0,0.1,0.1,0.2,0.2,0.2c0.1,0,0.2-0.1,0.2-0.2C192.4,60.6,192.3,60.5,192.1,60.5z M193.4,60.5
			c-0.1,0-0.2,0.1-0.2,0.2c0,0.1,0.1,0.2,0.2,0.2c0.1,0,0.2-0.1,0.2-0.2C193.7,60.6,193.6,60.5,193.4,60.5z M190.9,63.1
			c-0.1,0-0.2,0.1-0.2,0.2c0,0.1,0.1,0.2,0.2,0.2c0.1,0,0.2-0.1,0.2-0.2C191.1,63.2,191,63.1,190.9,63.1z M190.9,64.3
			c-0.1,0-0.2,0.1-0.2,0.2c0,0.1,0.1,0.2,0.2,0.2c0.1,0,0.2-0.1,0.2-0.2S191,64.3,190.9,64.3z M190.9,65.6c-0.1,0-0.2,0.1-0.2,0.2
			c0,0.1,0.1,0.2,0.2,0.2c0.1,0,0.2-0.1,0.2-0.2C191.1,65.7,191,65.6,190.9,65.6z M194.7,60.5c-0.1,0-0.2,0.1-0.2,0.2
			c0,0.1,0.1,0.2,0.2,0.2c0.1,0,0.2-0.1,0.2-0.2C194.9,60.6,194.9,60.5,194.7,60.5z M192.1,66.9c-0.1,0-0.2,0.1-0.2,0.2
			s0.1,0.2,0.2,0.2c0.1,0,0.2-0.1,0.2-0.2C192.4,67,192.3,66.9,192.1,66.9z M197.3,64.3c-0.1,0-0.2,0.1-0.2,0.2s0.1,0.2,0.2,0.2
			c0.1,0,0.2-0.1,0.2-0.2C197.5,64.4,197.4,64.3,197.3,64.3z M197.3,63.1c-0.1,0-0.2,0.1-0.2,0.2c0,0.1,0.1,0.2,0.2,0.2
			c0.1,0,0.2-0.1,0.2-0.2C197.5,63.2,197.4,63.1,197.3,63.1z M197.3,61.8c-0.1,0-0.2,0.1-0.2,0.2c0,0.1,0.1,0.2,0.2,0.2
			c0.1,0,0.2-0.1,0.2-0.2C197.5,61.9,197.4,61.8,197.3,61.8z M197.3,65.6c-0.1,0-0.2,0.1-0.2,0.2c0,0.1,0.1,0.2,0.2,0.2
			c0.1,0,0.2-0.1,0.2-0.2C197.5,65.7,197.4,65.6,197.3,65.6z M196,60.5c-0.1,0-0.2,0.1-0.2,0.2c0,0.1,0.1,0.2,0.2,0.2
			s0.2-0.1,0.2-0.2C196.2,60.6,196.1,60.5,196,60.5z M161.1,44.9c-0.1,0-0.2,0.1-0.2,0.2c0,0.1,0.1,0.2,0.2,0.2
			c0.1,0,0.2-0.1,0.2-0.2C161.3,45,161.2,44.9,161.1,44.9z M167.6,38.5c-0.1,0-0.2,0.1-0.2,0.2c0,0.1,0.1,0.2,0.2,0.2
			c0.1,0,0.2-0.1,0.2-0.2C167.8,38.6,167.7,38.5,167.6,38.5z M162.8,59.2c-0.1,0-0.2,0.1-0.2,0.2c0,0.1,0.1,0.2,0.2,0.2
			c0.1,0,0.2-0.1,0.2-0.2C163,59.3,163,59.2,162.8,59.2z M164.1,57.9c-0.1,0-0.2,0.1-0.2,0.2c0,0.1,0.1,0.2,0.2,0.2
			c0.1,0,0.2-0.1,0.2-0.2C164.3,58,164.2,57.9,164.1,57.9z M165.4,57.9c-0.1,0-0.2,0.1-0.2,0.2c0,0.1,0.1,0.2,0.2,0.2
			c0.1,0,0.2-0.1,0.2-0.2C165.6,58,165.5,57.9,165.4,57.9z M166.7,59.2c-0.1,0-0.2,0.1-0.2,0.2c0,0.1,0.1,0.2,0.2,0.2
			c0.1,0,0.2-0.1,0.2-0.2C166.9,59.3,166.8,59.2,166.7,59.2z M166.7,60.5c-0.1,0-0.2,0.1-0.2,0.2c0,0.1,0.1,0.2,0.2,0.2
			c0.1,0,0.2-0.1,0.2-0.2C166.9,60.6,166.8,60.5,166.7,60.5z M165.4,61.8c-0.1,0-0.2,0.1-0.2,0.2c0,0.1,0.1,0.2,0.2,0.2
			c0.1,0,0.2-0.1,0.2-0.2C165.6,61.9,165.5,61.8,165.4,61.8z M164.1,61.8c-0.1,0-0.2,0.1-0.2,0.2c0,0.1,0.1,0.2,0.2,0.2
			c0.1,0,0.2-0.1,0.2-0.2C164.3,61.9,164.2,61.8,164.1,61.8z M162.8,60.5c-0.1,0-0.2,0.1-0.2,0.2c0,0.1,0.1,0.2,0.2,0.2
			c0.1,0,0.2-0.1,0.2-0.2C163,60.6,163,60.5,162.8,60.5z M165.4,64.3c-0.1,0-0.2,0.1-0.2,0.2s0.1,0.2,0.2,0.2c0.1,0,0.2-0.1,0.2-0.2
			C165.6,64.4,165.5,64.3,165.4,64.3z M166.7,64.3c-0.1,0-0.2,0.1-0.2,0.2s0.1,0.2,0.2,0.2c0.1,0,0.2-0.1,0.2-0.2
			C166.9,64.4,166.8,64.3,166.7,64.3z M161.5,63.1c-0.1,0-0.2,0.1-0.2,0.2c0,0.1,0.1,0.2,0.2,0.2c0.1,0,0.2-0.1,0.2-0.2
			C161.8,63.2,161.7,63.1,161.5,63.1z M161.5,61.8c-0.1,0-0.2,0.1-0.2,0.2c0,0.1,0.1,0.2,0.2,0.2c0.1,0,0.2-0.1,0.2-0.2
			C161.8,61.9,161.7,61.8,161.5,61.8z M183.1,64.3c-0.1,0-0.2,0.1-0.2,0.2s0.1,0.2,0.2,0.2c0.1,0,0.2-0.1,0.2-0.2
			C183.3,64.4,183.2,64.3,183.1,64.3z M172.7,42.4c-0.1,0-0.2,0.1-0.2,0.2c0,0.1,0.1,0.2,0.2,0.2c0.1,0,0.2-0.1,0.2-0.2
			C173,42.5,172.9,42.4,172.7,42.4z M172.7,41.1c-0.1,0-0.2,0.1-0.2,0.2c0,0.1,0.1,0.2,0.2,0.2c0.1,0,0.2-0.1,0.2-0.2
			C173,41.2,172.9,41.1,172.7,41.1z M179.9,52.1c-0.1,0-0.2,0.1-0.2,0.2c0,0.1,0.1,0.2,0.2,0.2c0.1,0,0.2-0.1,0.2-0.2
			C180.1,52.2,180,52.1,179.9,52.1z M184.4,69.5c-0.1,0-0.2,0.1-0.2,0.2c0,0.1,0.1,0.2,0.2,0.2c0.1,0,0.2-0.1,0.2-0.2
			C184.6,69.6,184.5,69.5,184.4,69.5z M193.4,66.9c-0.1,0-0.2,0.1-0.2,0.2s0.1,0.2,0.2,0.2c0.1,0,0.2-0.1,0.2-0.2
			C193.7,67,193.6,66.9,193.4,66.9z M194.7,66.9c-0.1,0-0.2,0.1-0.2,0.2s0.1,0.2,0.2,0.2c0.1,0,0.2-0.1,0.2-0.2
			C194.9,67,194.9,66.9,194.7,66.9z M196,66.9c-0.1,0-0.2,0.1-0.2,0.2s0.1,0.2,0.2,0.2s0.2-0.1,0.2-0.2
			C196.2,67,196.1,66.9,196,66.9z M197.3,73.4c-0.1,0-0.2,0.1-0.2,0.2c0,0.1,0.1,0.2,0.2,0.2c0.1,0,0.2-0.1,0.2-0.2
			C197.5,73.5,197.4,73.4,197.3,73.4z M198.6,73.4c-0.1,0-0.2,0.1-0.2,0.2c0,0.1,0.1,0.2,0.2,0.2c0.1,0,0.2-0.1,0.2-0.2
			C198.8,73.5,198.7,73.4,198.6,73.4z M199.9,73.4c-0.1,0-0.2,0.1-0.2,0.2c0,0.1,0.1,0.2,0.2,0.2c0.1,0,0.2-0.1,0.2-0.2
			C200.1,73.5,200,73.4,199.9,73.4z M201.2,73.4c-0.1,0-0.2,0.1-0.2,0.2c0,0.1,0.1,0.2,0.2,0.2c0.1,0,0.2-0.1,0.2-0.2
			C201.4,73.5,201.3,73.4,201.2,73.4z M201.2,74.7c-0.1,0-0.2,0.1-0.2,0.2c0,0.1,0.1,0.2,0.2,0.2c0.1,0,0.2-0.1,0.2-0.2
			C201.4,74.8,201.3,74.7,201.2,74.7z M199.9,74.7c-0.1,0-0.2,0.1-0.2,0.2c0,0.1,0.1,0.2,0.2,0.2c0.1,0,0.2-0.1,0.2-0.2
			C200.1,74.8,200,74.7,199.9,74.7z M198.6,74.7c-0.1,0-0.2,0.1-0.2,0.2c0,0.1,0.1,0.2,0.2,0.2c0.1,0,0.2-0.1,0.2-0.2
			C198.8,74.8,198.7,74.7,198.6,74.7z M197.3,74.7c-0.1,0-0.2,0.1-0.2,0.2c0,0.1,0.1,0.2,0.2,0.2c0.1,0,0.2-0.1,0.2-0.2
			C197.5,74.8,197.4,74.7,197.3,74.7z M188.3,77.3c-0.1,0-0.2,0.1-0.2,0.2c0,0.1,0.1,0.2,0.2,0.2c0.1,0,0.2-0.1,0.2-0.2
			C188.5,77.4,188.4,77.3,188.3,77.3z M187,77.3c-0.1,0-0.2,0.1-0.2,0.2c0,0.1,0.1,0.2,0.2,0.2c0.1,0,0.2-0.1,0.2-0.2
			C187.2,77.4,187.1,77.3,187,77.3z M187,78.6c-0.1,0-0.2,0.1-0.2,0.2c0,0.1,0.1,0.2,0.2,0.2c0.1,0,0.2-0.1,0.2-0.2
			C187.2,78.7,187.1,78.6,187,78.6z M188.3,78.6c-0.1,0-0.2,0.1-0.2,0.2c0,0.1,0.1,0.2,0.2,0.2c0.1,0,0.2-0.1,0.2-0.2
			C188.5,78.7,188.4,78.6,188.3,78.6z M163.7,76c-0.1,0-0.2,0.1-0.2,0.2c0,0.1,0.1,0.2,0.2,0.2c0.1,0,0.2-0.1,0.2-0.2
			C163.9,76.1,163.8,76,163.7,76z M165,76c-0.1,0-0.2,0.1-0.2,0.2c0,0.1,0.1,0.2,0.2,0.2c0.1,0,0.2-0.1,0.2-0.2
			C165.2,76.1,165.1,76,165,76z M166.3,76c-0.1,0-0.2,0.1-0.2,0.2c0,0.1,0.1,0.2,0.2,0.2c0.1,0,0.2-0.1,0.2-0.2
			C166.5,76.1,166.4,76,166.3,76z M162.4,77.3c-0.1,0-0.2,0.1-0.2,0.2c0,0.1,0.1,0.2,0.2,0.2c0.1,0,0.2-0.1,0.2-0.2
			C162.6,77.4,162.5,77.3,162.4,77.3z M162.4,78.6c-0.1,0-0.2,0.1-0.2,0.2c0,0.1,0.1,0.2,0.2,0.2c0.1,0,0.2-0.1,0.2-0.2
			C162.6,78.7,162.5,78.6,162.4,78.6z M162.4,79.9c-0.1,0-0.2,0.1-0.2,0.2c0,0.1,0.1,0.2,0.2,0.2c0.1,0,0.2-0.1,0.2-0.2
			S162.5,79.9,162.4,79.9z M163.7,81.2c-0.1,0-0.2,0.1-0.2,0.2c0,0.1,0.1,0.2,0.2,0.2c0.1,0,0.2-0.1,0.2-0.2
			C163.9,81.3,163.8,81.2,163.7,81.2z M165,81.2c-0.1,0-0.2,0.1-0.2,0.2c0,0.1,0.1,0.2,0.2,0.2c0.1,0,0.2-0.1,0.2-0.2
			C165.2,81.3,165.1,81.2,165,81.2z M166.3,81.2c-0.1,0-0.2,0.1-0.2,0.2c0,0.1,0.1,0.2,0.2,0.2c0.1,0,0.2-0.1,0.2-0.2
			C166.5,81.3,166.4,81.2,166.3,81.2z M167.6,79.9c-0.1,0-0.2,0.1-0.2,0.2c0,0.1,0.1,0.2,0.2,0.2c0.1,0,0.2-0.1,0.2-0.2
			S167.7,79.9,167.6,79.9z M167.6,78.6c-0.1,0-0.2,0.1-0.2,0.2c0,0.1,0.1,0.2,0.2,0.2c0.1,0,0.2-0.1,0.2-0.2
			C167.8,78.7,167.7,78.6,167.6,78.6z M167.6,77.3c-0.1,0-0.2,0.1-0.2,0.2c0,0.1,0.1,0.2,0.2,0.2c0.1,0,0.2-0.1,0.2-0.2
			C167.8,77.4,167.7,77.3,167.6,77.3z M162.4,85c-0.1,0-0.2,0.1-0.2,0.2c0,0.1,0.1,0.2,0.2,0.2c0.1,0,0.2-0.1,0.2-0.2
			S162.5,85,162.4,85z M161.1,85c-0.1,0-0.2,0.1-0.2,0.2c0,0.1,0.1,0.2,0.2,0.2c0.1,0,0.2-0.1,0.2-0.2S161.2,85,161.1,85z M166.3,85
			c-0.1,0-0.2,0.1-0.2,0.2c0,0.1,0.1,0.2,0.2,0.2c0.1,0,0.2-0.1,0.2-0.2S166.4,85,166.3,85z M167.6,85c-0.1,0-0.2,0.1-0.2,0.2
			c0,0.1,0.1,0.2,0.2,0.2c0.1,0,0.2-0.1,0.2-0.2S167.7,85,167.6,85z M168.9,85c-0.1,0-0.2,0.1-0.2,0.2c0,0.1,0.1,0.2,0.2,0.2
			c0.1,0,0.2-0.1,0.2-0.2S169,85,168.9,85z M170.2,85c-0.1,0-0.2,0.1-0.2,0.2c0,0.1,0.1,0.2,0.2,0.2c0.1,0,0.2-0.1,0.2-0.2
			S170.3,85,170.2,85z M162.4,99.7c0.1,0,0.2-0.1,0.2-0.2c0-0.1-0.1-0.2-0.2-0.2c-0.1,0-0.2,0.1-0.2,0.2
			C162.2,99.6,162.3,99.7,162.4,99.7z M162.4,110c0.1,0,0.2-0.1,0.2-0.2c0-0.1-0.1-0.2-0.2-0.2c-0.1,0-0.2,0.1-0.2,0.2
			C162.2,109.9,162.3,110,162.4,110z M155.9,106.2c0.1,0,0.2-0.1,0.2-0.2c0-0.1-0.1-0.2-0.2-0.2c-0.1,0-0.2,0.1-0.2,0.2
			C155.7,106.1,155.8,106.2,155.9,106.2z M153.3,107.5c0.1,0,0.2-0.1,0.2-0.2c0-0.1-0.1-0.2-0.2-0.2c-0.1,0-0.2,0.1-0.2,0.2
			C153.1,107.4,153.2,107.5,153.3,107.5z M153.3,110c0.1,0,0.2-0.1,0.2-0.2c0-0.1-0.1-0.2-0.2-0.2c-0.1,0-0.2,0.1-0.2,0.2
			C153.1,109.9,153.2,110,153.3,110z M148.2,108.7c0.1,0,0.2-0.1,0.2-0.2c0-0.1-0.1-0.2-0.2-0.2s-0.2,0.1-0.2,0.2
			C148,108.7,148.1,108.7,148.2,108.7z M153.3,108.7c0.1,0,0.2-0.1,0.2-0.2c0-0.1-0.1-0.2-0.2-0.2c-0.1,0-0.2,0.1-0.2,0.2
			C153.1,108.7,153.2,108.7,153.3,108.7z M149.5,108.7c0.1,0,0.2-0.1,0.2-0.2c0-0.1-0.1-0.2-0.2-0.2c-0.1,0-0.2,0.1-0.2,0.2
			C149.3,108.7,149.4,108.7,149.5,108.7z M145.6,97.1c0.1,0,0.2-0.1,0.2-0.2c0-0.1-0.1-0.2-0.2-0.2c-0.1,0-0.2,0.1-0.2,0.2
			C145.4,97,145.5,97.1,145.6,97.1z M145.6,101c0.1,0,0.2-0.1,0.2-0.2c0-0.1-0.1-0.2-0.2-0.2c-0.1,0-0.2,0.1-0.2,0.2
			C145.4,100.9,145.5,101,145.6,101z M144.3,101c0.1,0,0.2-0.1,0.2-0.2c0-0.1-0.1-0.2-0.2-0.2c-0.1,0-0.2,0.1-0.2,0.2
			C144.1,100.9,144.2,101,144.3,101z M143,101c0.1,0,0.2-0.1,0.2-0.2c0-0.1-0.1-0.2-0.2-0.2s-0.2,0.1-0.2,0.2
			C142.8,100.9,142.9,101,143,101z M141.7,101c0.1,0,0.2-0.1,0.2-0.2c0-0.1-0.1-0.2-0.2-0.2c-0.1,0-0.2,0.1-0.2,0.2
			C141.5,100.9,141.6,101,141.7,101z M144.3,97.1c0.1,0,0.2-0.1,0.2-0.2c0-0.1-0.1-0.2-0.2-0.2c-0.1,0-0.2,0.1-0.2,0.2
			C144.1,97,144.2,97.1,144.3,97.1z M143,97.1c0.1,0,0.2-0.1,0.2-0.2c0-0.1-0.1-0.2-0.2-0.2s-0.2,0.1-0.2,0.2
			C142.8,97,142.9,97.1,143,97.1z M141.7,97.1c0.1,0,0.2-0.1,0.2-0.2c0-0.1-0.1-0.2-0.2-0.2c-0.1,0-0.2,0.1-0.2,0.2
			C141.5,97,141.6,97.1,141.7,97.1z M144.3,106.2c0.1,0,0.2-0.1,0.2-0.2c0-0.1-0.1-0.2-0.2-0.2c-0.1,0-0.2,0.1-0.2,0.2
			C144.1,106.1,144.2,106.2,144.3,106.2z M146.9,103.6c0.1,0,0.2-0.1,0.2-0.2c0-0.1-0.1-0.2-0.2-0.2s-0.2,0.1-0.2,0.2
			C146.7,103.5,146.8,103.6,146.9,103.6z M139.1,102.3c0.1,0,0.2-0.1,0.2-0.2c0-0.1-0.1-0.2-0.2-0.2c-0.1,0-0.2,0.1-0.2,0.2
			C138.9,102.2,139,102.3,139.1,102.3z M135.2,99.7c0.1,0,0.2-0.1,0.2-0.2c0-0.1-0.1-0.2-0.2-0.2s-0.2,0.1-0.2,0.2
			C135,99.6,135.1,99.7,135.2,99.7z M140.4,101c0.1,0,0.2-0.1,0.2-0.2c0-0.1-0.1-0.2-0.2-0.2c-0.1,0-0.2,0.1-0.2,0.2
			C140.2,100.9,140.3,101,140.4,101z M140.4,97.1c0.1,0,0.2-0.1,0.2-0.2c0-0.1-0.1-0.2-0.2-0.2c-0.1,0-0.2,0.1-0.2,0.2
			C140.2,97,140.3,97.1,140.4,97.1z M149.9,96.2c0.1,0,0.2-0.1,0.2-0.2c0-0.1-0.1-0.2-0.2-0.2c-0.1,0-0.2,0.1-0.2,0.2
			C149.7,96.2,149.8,96.2,149.9,96.2z M150.8,99.7c0.1,0,0.2-0.1,0.2-0.2c0-0.1-0.1-0.2-0.2-0.2s-0.2,0.1-0.2,0.2
			C150.5,99.6,150.6,99.7,150.8,99.7z M140.4,88.1c0.1,0,0.2-0.1,0.2-0.2c0-0.1-0.1-0.2-0.2-0.2c-0.1,0-0.2,0.1-0.2,0.2
			C140.2,88,140.3,88.1,140.4,88.1z M137.8,77.7c0.1,0,0.2-0.1,0.2-0.2c0-0.1-0.1-0.2-0.2-0.2s-0.2,0.1-0.2,0.2
			C137.6,77.6,137.7,77.7,137.8,77.7z M139.1,77.7c0.1,0,0.2-0.1,0.2-0.2c0-0.1-0.1-0.2-0.2-0.2c-0.1,0-0.2,0.1-0.2,0.2
			C138.9,77.6,139,77.7,139.1,77.7z M135.3,85.5c0.1,0,0.2-0.1,0.2-0.2c0-0.1-0.1-0.2-0.2-0.2c-0.1,0-0.2,0.1-0.2,0.2
			C135.1,85.4,135.2,85.5,135.3,85.5z M135.2,81.6c0.1,0,0.2-0.1,0.2-0.2c0-0.1-0.1-0.2-0.2-0.2s-0.2,0.1-0.2,0.2
			C135,81.5,135.1,81.6,135.2,81.6z M134,82.9c0.1,0,0.2-0.1,0.2-0.2c0-0.1-0.1-0.2-0.2-0.2c-0.1,0-0.2,0.1-0.2,0.2
			C133.7,82.8,133.8,82.9,134,82.9z M132.7,82.9c0.1,0,0.2-0.1,0.2-0.2c0-0.1-0.1-0.2-0.2-0.2c-0.1,0-0.2,0.1-0.2,0.2
			C132.4,82.8,132.5,82.9,132.7,82.9z M135.2,80.3c0.1,0,0.2-0.1,0.2-0.2s-0.1-0.2-0.2-0.2S135,80,135,80.1
			C135,80.2,135.1,80.3,135.2,80.3z M135.2,79c0.1,0,0.2-0.1,0.2-0.2c0-0.1-0.1-0.2-0.2-0.2s-0.2,0.1-0.2,0.2
			C135,78.9,135.1,79,135.2,79z M135.2,77.7c0.1,0,0.2-0.1,0.2-0.2c0-0.1-0.1-0.2-0.2-0.2s-0.2,0.1-0.2,0.2
			C135,77.6,135.1,77.7,135.2,77.7z M131.4,82.9c0.1,0,0.2-0.1,0.2-0.2c0-0.1-0.1-0.2-0.2-0.2s-0.2,0.1-0.2,0.2
			C131.1,82.8,131.2,82.9,131.4,82.9z M134,76.4c0.1,0,0.2-0.1,0.2-0.2c0-0.1-0.1-0.2-0.2-0.2c-0.1,0-0.2,0.1-0.2,0.2
			C133.7,76.3,133.8,76.4,134,76.4z M128.8,79c0.1,0,0.2-0.1,0.2-0.2c0-0.1-0.1-0.2-0.2-0.2c-0.1,0-0.2,0.1-0.2,0.2
			C128.6,78.9,128.7,79,128.8,79z M128.8,80.3c0.1,0,0.2-0.1,0.2-0.2s-0.1-0.2-0.2-0.2c-0.1,0-0.2,0.1-0.2,0.2
			C128.6,80.2,128.7,80.3,128.8,80.3z M128.8,81.6c0.1,0,0.2-0.1,0.2-0.2c0-0.1-0.1-0.2-0.2-0.2c-0.1,0-0.2,0.1-0.2,0.2
			C128.6,81.5,128.7,81.6,128.8,81.6z M128.8,77.7c0.1,0,0.2-0.1,0.2-0.2c0-0.1-0.1-0.2-0.2-0.2c-0.1,0-0.2,0.1-0.2,0.2
			C128.6,77.6,128.7,77.7,128.8,77.7z M130.1,82.9c0.1,0,0.2-0.1,0.2-0.2c0-0.1-0.1-0.2-0.2-0.2s-0.2,0.1-0.2,0.2
			C129.9,82.8,130,82.9,130.1,82.9z M162.4,98.4c0.1,0,0.2-0.1,0.2-0.2c0-0.1-0.1-0.2-0.2-0.2c-0.1,0-0.2,0.1-0.2,0.2
			C162.2,98.3,162.3,98.4,162.4,98.4z M155.9,104.9c0.1,0,0.2-0.1,0.2-0.2c0-0.1-0.1-0.2-0.2-0.2c-0.1,0-0.2,0.1-0.2,0.2
			S155.8,104.9,155.9,104.9z M143,79c0.1,0,0.2-0.1,0.2-0.2c0-0.1-0.1-0.2-0.2-0.2s-0.2,0.1-0.2,0.2C142.8,78.9,142.9,79,143,79z
			 M150.8,101c0.1,0,0.2-0.1,0.2-0.2c0-0.1-0.1-0.2-0.2-0.2c-0.1,0-0.2,0.1-0.2,0.2C150.5,100.9,150.6,101,150.8,101z M150.8,102.3
			c0.1,0,0.2-0.1,0.2-0.2c0-0.1-0.1-0.2-0.2-0.2c-0.1,0-0.2,0.1-0.2,0.2C150.5,102.2,150.6,102.3,150.8,102.3z M141.7,73.8
			c0.1,0,0.2-0.1,0.2-0.2c0-0.1-0.1-0.2-0.2-0.2c-0.1,0-0.2,0.1-0.2,0.2C141.5,73.7,141.6,73.8,141.7,73.8z M132.7,76.4
			c0.1,0,0.2-0.1,0.2-0.2c0-0.1-0.1-0.2-0.2-0.2c-0.1,0-0.2,0.1-0.2,0.2C132.4,76.3,132.5,76.4,132.7,76.4z M131.4,76.4
			c0.1,0,0.2-0.1,0.2-0.2c0-0.1-0.1-0.2-0.2-0.2c-0.1,0-0.2,0.1-0.2,0.2C131.1,76.3,131.2,76.4,131.4,76.4z M130.1,76.4
			c0.1,0,0.2-0.1,0.2-0.2c0-0.1-0.1-0.2-0.2-0.2s-0.2,0.1-0.2,0.2C129.9,76.3,130,76.4,130.1,76.4z M128.8,70c0.1,0,0.2-0.1,0.2-0.2
			c0-0.1-0.1-0.2-0.2-0.2c-0.1,0-0.2,0.1-0.2,0.2C128.6,69.9,128.7,70,128.8,70z M127.5,70c0.1,0,0.2-0.1,0.2-0.2
			c0-0.1-0.1-0.2-0.2-0.2c-0.1,0-0.2,0.1-0.2,0.2C127.3,69.9,127.4,70,127.5,70z M126.2,70c0.1,0,0.2-0.1,0.2-0.2
			c0-0.1-0.1-0.2-0.2-0.2c-0.1,0-0.2,0.1-0.2,0.2C126,69.9,126.1,70,126.2,70z M124.9,70c0.1,0,0.2-0.1,0.2-0.2
			c0-0.1-0.1-0.2-0.2-0.2c-0.1,0-0.2,0.1-0.2,0.2C124.7,69.9,124.8,70,124.9,70z M124.9,68.7c0.1,0,0.2-0.1,0.2-0.2
			c0-0.1-0.1-0.2-0.2-0.2c-0.1,0-0.2,0.1-0.2,0.2C124.7,68.6,124.8,68.7,124.9,68.7z M126.2,68.7c0.1,0,0.2-0.1,0.2-0.2
			c0-0.1-0.1-0.2-0.2-0.2c-0.1,0-0.2,0.1-0.2,0.2C126,68.6,126.1,68.7,126.2,68.7z M127.5,68.7c0.1,0,0.2-0.1,0.2-0.2
			c0-0.1-0.1-0.2-0.2-0.2c-0.1,0-0.2,0.1-0.2,0.2C127.3,68.6,127.4,68.7,127.5,68.7z M128.8,68.7c0.1,0,0.2-0.1,0.2-0.2
			c0-0.1-0.1-0.2-0.2-0.2c-0.1,0-0.2,0.1-0.2,0.2C128.6,68.6,128.7,68.7,128.8,68.7z M137.8,66.1c0.1,0,0.2-0.1,0.2-0.2
			c0-0.1-0.1-0.2-0.2-0.2s-0.2,0.1-0.2,0.2C137.6,66,137.7,66.1,137.8,66.1z M139.1,66.1c0.1,0,0.2-0.1,0.2-0.2
			c0-0.1-0.1-0.2-0.2-0.2c-0.1,0-0.2,0.1-0.2,0.2C138.9,66,139,66.1,139.1,66.1z M139.1,64.8c0.1,0,0.2-0.1,0.2-0.2
			s-0.1-0.2-0.2-0.2c-0.1,0-0.2,0.1-0.2,0.2C138.9,64.7,139,64.8,139.1,64.8z M137.8,64.8c0.1,0,0.2-0.1,0.2-0.2s-0.1-0.2-0.2-0.2
			s-0.2,0.1-0.2,0.2C137.6,64.7,137.7,64.8,137.8,64.8z M140.4,86.8c0.1,0,0.2-0.1,0.2-0.2c0-0.1-0.1-0.2-0.2-0.2
			c-0.1,0-0.2,0.1-0.2,0.2C140.2,86.7,140.3,86.8,140.4,86.8z M160.9,109.8c0,0.1,0.1,0.2,0.2,0.2c0.1,0,0.2-0.1,0.2-0.2
			c0-0.1-0.1-0.2-0.2-0.2C161,109.6,160.9,109.7,160.9,109.8z M141.7,60.9c0.1,0,0.2-0.1,0.2-0.2c0-0.1-0.1-0.2-0.2-0.2
			c-0.1,0-0.2,0.1-0.2,0.2C141.5,60.8,141.6,60.9,141.7,60.9z M141.7,59.6c0.1,0,0.2-0.1,0.2-0.2c0-0.1-0.1-0.2-0.2-0.2
			c-0.1,0-0.2,0.1-0.2,0.2C141.5,59.5,141.6,59.6,141.7,59.6z M137.8,63.5c0.1,0,0.2-0.1,0.2-0.2c0-0.1-0.1-0.2-0.2-0.2
			s-0.2,0.1-0.2,0.2C137.6,63.4,137.7,63.5,137.8,63.5z M139.1,63.5c0.1,0,0.2-0.1,0.2-0.2c0-0.1-0.1-0.2-0.2-0.2
			c-0.1,0-0.2,0.1-0.2,0.2C138.9,63.4,139,63.5,139.1,63.5z M143,62.2c0.1,0,0.2-0.1,0.2-0.2c0-0.1-0.1-0.2-0.2-0.2
			s-0.2,0.1-0.2,0.2C142.8,62.1,142.9,62.2,143,62.2z M141.7,62.2c0.1,0,0.2-0.1,0.2-0.2c0-0.1-0.1-0.2-0.2-0.2
			c-0.1,0-0.2,0.1-0.2,0.2C141.5,62.1,141.6,62.2,141.7,62.2z M143,60.9c0.1,0,0.2-0.1,0.2-0.2c0-0.1-0.1-0.2-0.2-0.2
			s-0.2,0.1-0.2,0.2C142.8,60.8,142.9,60.9,143,60.9z M143,59.6c0.1,0,0.2-0.1,0.2-0.2c0-0.1-0.1-0.2-0.2-0.2s-0.2,0.1-0.2,0.2
			C142.8,59.5,142.9,59.6,143,59.6z M143,58.3c0.1,0,0.2-0.1,0.2-0.2c0-0.1-0.1-0.2-0.2-0.2s-0.2,0.1-0.2,0.2
			C142.8,58.2,142.9,58.3,143,58.3z M141.7,58.3c0.1,0,0.2-0.1,0.2-0.2c0-0.1-0.1-0.2-0.2-0.2c-0.1,0-0.2,0.1-0.2,0.2
			C141.5,58.2,141.6,58.3,141.7,58.3z M130.1,55.7c0.1,0,0.2-0.1,0.2-0.2s-0.1-0.2-0.2-0.2s-0.2,0.1-0.2,0.2S130,55.7,130.1,55.7z
			 M130.1,57c0.1,0,0.2-0.1,0.2-0.2c0-0.1-0.1-0.2-0.2-0.2s-0.2,0.1-0.2,0.2C129.9,56.9,130,57,130.1,57z M130.1,58.3
			c0.1,0,0.2-0.1,0.2-0.2c0-0.1-0.1-0.2-0.2-0.2s-0.2,0.1-0.2,0.2C129.9,58.2,130,58.3,130.1,58.3z M128.1,60.9
			c0.1,0,0.2-0.1,0.2-0.2c0-0.1-0.1-0.2-0.2-0.2s-0.2,0.1-0.2,0.2C127.9,60.8,128,60.9,128.1,60.9z M126.8,60.9
			c0.1,0,0.2-0.1,0.2-0.2c0-0.1-0.1-0.2-0.2-0.2c-0.1,0-0.2,0.1-0.2,0.2C126.6,60.8,126.7,60.9,126.8,60.9z M125.5,60.9
			c0.1,0,0.2-0.1,0.2-0.2c0-0.1-0.1-0.2-0.2-0.2c-0.1,0-0.2,0.1-0.2,0.2C125.3,60.8,125.4,60.9,125.5,60.9z M136.5,94.5
			c0.1,0,0.2-0.1,0.2-0.2s-0.1-0.2-0.2-0.2c-0.1,0-0.2,0.1-0.2,0.2C136.3,94.4,136.4,94.5,136.5,94.5z M135.2,94.5
			c0.1,0,0.2-0.1,0.2-0.2s-0.1-0.2-0.2-0.2s-0.2,0.1-0.2,0.2C135,94.4,135.1,94.5,135.2,94.5z M134,94.5c0.1,0,0.2-0.1,0.2-0.2
			s-0.1-0.2-0.2-0.2s-0.2,0.1-0.2,0.2C133.7,94.4,133.8,94.5,134,94.5z M132.7,94.5c0.1,0,0.2-0.1,0.2-0.2s-0.1-0.2-0.2-0.2
			c-0.1,0-0.2,0.1-0.2,0.2C132.4,94.4,132.5,94.5,132.7,94.5z M154.6,35.9c-0.1,0-0.2,0.1-0.2,0.2c0,0.1,0.1,0.2,0.2,0.2
			c0.1,0,0.2-0.1,0.2-0.2C154.9,36,154.8,35.9,154.6,35.9z M153.3,35.9c-0.1,0-0.2,0.1-0.2,0.2c0,0.1,0.1,0.2,0.2,0.2
			c0.1,0,0.2-0.1,0.2-0.2C153.6,36,153.5,35.9,153.3,35.9z M152.1,35.9c-0.1,0-0.2,0.1-0.2,0.2c0,0.1,0.1,0.2,0.2,0.2
			s0.2-0.1,0.2-0.2C152.3,36,152.2,35.9,152.1,35.9z M150.8,35.9c-0.1,0-0.2,0.1-0.2,0.2c0,0.1,0.1,0.2,0.2,0.2
			c0.1,0,0.2-0.1,0.2-0.2C151,36,150.9,35.9,150.8,35.9z M149.5,42.4c-0.1,0-0.2,0.1-0.2,0.2s0.1,0.2,0.2,0.2c0.1,0,0.2-0.1,0.2-0.2
			S149.6,42.4,149.5,42.4z M149.5,43.7c-0.1,0-0.2,0.1-0.2,0.2c0,0.1,0.1,0.2,0.2,0.2c0.1,0,0.2-0.1,0.2-0.2
			C149.7,43.8,149.6,43.7,149.5,43.7z M149.5,44.9c-0.1,0-0.2,0.1-0.2,0.2c0,0.1,0.1,0.2,0.2,0.2c0.1,0,0.2-0.1,0.2-0.2
			C149.7,45,149.6,44.9,149.5,44.9z M148.2,46.2c-0.1,0-0.2,0.1-0.2,0.2c0,0.1,0.1,0.2,0.2,0.2c0.1,0,0.2-0.1,0.2-0.2
			C148.4,46.3,148.3,46.2,148.2,46.2z M146.9,46.2c-0.1,0-0.2,0.1-0.2,0.2c0,0.1,0.1,0.2,0.2,0.2c0.1,0,0.2-0.1,0.2-0.2
			C147.1,46.3,147,46.2,146.9,46.2z M145.6,46.2c-0.1,0-0.2,0.1-0.2,0.2c0,0.1,0.1,0.2,0.2,0.2c0.1,0,0.2-0.1,0.2-0.2
			C145.8,46.3,145.7,46.2,145.6,46.2z M143,44.9c-0.1,0-0.2,0.1-0.2,0.2c0,0.1,0.1,0.2,0.2,0.2s0.2-0.1,0.2-0.2
			C143.2,45,143.1,44.9,143,44.9z M143,43.7c-0.1,0-0.2,0.1-0.2,0.2c0,0.1,0.1,0.2,0.2,0.2s0.2-0.1,0.2-0.2
			C143.2,43.8,143.1,43.7,143,43.7z M143,42.4c-0.1,0-0.2,0.1-0.2,0.2s0.1,0.2,0.2,0.2s0.2-0.1,0.2-0.2S143.1,42.4,143,42.4z
			 M144.3,41.1c-0.1,0-0.2,0.1-0.2,0.2c0,0.1,0.1,0.2,0.2,0.2s0.2-0.1,0.2-0.2C144.5,41.2,144.4,41.1,144.3,41.1z M145.6,41.1
			c-0.1,0-0.2,0.1-0.2,0.2c0,0.1,0.1,0.2,0.2,0.2c0.1,0,0.2-0.1,0.2-0.2C145.8,41.2,145.7,41.1,145.6,41.1z M146.9,41.1
			c-0.1,0-0.2,0.1-0.2,0.2c0,0.1,0.1,0.2,0.2,0.2c0.1,0,0.2-0.1,0.2-0.2C147.1,41.2,147,41.1,146.9,41.1z M148.2,41.1
			c-0.1,0-0.2,0.1-0.2,0.2c0,0.1,0.1,0.2,0.2,0.2c0.1,0,0.2-0.1,0.2-0.2C148.4,41.2,148.3,41.1,148.2,41.1z M139.1,41.1
			c-0.1,0-0.2,0.1-0.2,0.2c0,0.1,0.1,0.2,0.2,0.2c0.1,0,0.2-0.1,0.2-0.2C139.3,41.2,139.2,41.1,139.1,41.1z M140.4,47.5
			c-0.1,0-0.2,0.1-0.2,0.2s0.1,0.2,0.2,0.2c0.1,0,0.2-0.1,0.2-0.2S140.5,47.5,140.4,47.5z M144.3,46.2c-0.1,0-0.2,0.1-0.2,0.2
			c0,0.1,0.1,0.2,0.2,0.2s0.2-0.1,0.2-0.2C144.5,46.3,144.4,46.2,144.3,46.2z M140.4,41.1c-0.1,0-0.2,0.1-0.2,0.2
			c0,0.1,0.1,0.2,0.2,0.2c0.1,0,0.2-0.1,0.2-0.2C140.6,41.2,140.5,41.1,140.4,41.1z M152.1,37.2c-0.1,0-0.2,0.1-0.2,0.2
			c0,0.1,0.1,0.2,0.2,0.2s0.2-0.1,0.2-0.2C152.3,37.3,152.2,37.2,152.1,37.2z M150.8,37.2c-0.1,0-0.2,0.1-0.2,0.2
			c0,0.1,0.1,0.2,0.2,0.2c0.1,0,0.2-0.1,0.2-0.2C151,37.3,150.9,37.2,150.8,37.2z M148.2,35.9c-0.1,0-0.2,0.1-0.2,0.2
			c0,0.1,0.1,0.2,0.2,0.2c0.1,0,0.2-0.1,0.2-0.2C148.4,36,148.3,35.9,148.2,35.9z M146.9,35.9c-0.1,0-0.2,0.1-0.2,0.2
			c0,0.1,0.1,0.2,0.2,0.2c0.1,0,0.2-0.1,0.2-0.2C147.1,36,147,35.9,146.9,35.9z M130.1,51.8c0.1,0,0.2-0.1,0.2-0.2s-0.1-0.2-0.2-0.2
			c-0.1,0-0.2,0.1-0.2,0.2S130,51.8,130.1,51.8z M131.4,51.8c0.1,0,0.2-0.1,0.2-0.2s-0.1-0.2-0.2-0.2c-0.1,0-0.2,0.1-0.2,0.2
			S131.2,51.8,131.4,51.8z M175.1,105.9c0-0.1,0.1-0.2,0.2-0.2c0.1,0,0.2,0.1,0.2,0.2c0,0.1-0.1,0.2-0.2,0.2
			C175.2,106.2,175.1,106.1,175.1,105.9z M173.8,105.9c0-0.1,0.1-0.2,0.2-0.2c0.1,0,0.2,0.1,0.2,0.2c0,0.1-0.1,0.2-0.2,0.2
			C173.9,106.2,173.8,106.1,173.8,105.9z M172.5,105.9c0-0.1,0.1-0.2,0.2-0.2c0.1,0,0.2,0.1,0.2,0.2c0,0.1-0.1,0.2-0.2,0.2
			C172.6,106.2,172.5,106.1,172.5,105.9z M169.9,107.2c0,0.1,0.1,0.2,0.2,0.2c0.1,0,0.2-0.1,0.2-0.2c0-0.1-0.1-0.2-0.2-0.2
			C170,107,169.9,107.1,169.9,107.2z M169.9,108.5c0,0.1,0.1,0.2,0.2,0.2c0.1,0,0.2-0.1,0.2-0.2c0-0.1-0.1-0.2-0.2-0.2
			C170,108.3,169.9,108.4,169.9,108.5z M169.9,109.8c0,0.1,0.1,0.2,0.2,0.2c0.1,0,0.2-0.1,0.2-0.2c0-0.1-0.1-0.2-0.2-0.2
			C170,109.6,169.9,109.7,169.9,109.8z M196.2,84c0-0.1-0.1-0.2-0.2-0.2s-0.2,0.1-0.2,0.2c0,0.1,0.1,0.2,0.2,0.2
			S196.2,84.1,196.2,84z M196.2,85.3c0-0.1-0.1-0.2-0.2-0.2s-0.2,0.1-0.2,0.2c0,0.1,0.1,0.2,0.2,0.2S196.2,85.4,196.2,85.3z
			 M189.8,87.8c0,0.1-0.1,0.2-0.2,0.2c-0.1,0-0.2-0.1-0.2-0.2c0-0.1,0.1-0.2,0.2-0.2C189.7,87.6,189.8,87.7,189.8,87.8z M185.9,89.1
			c0,0.1-0.1,0.2-0.2,0.2s-0.2-0.1-0.2-0.2c0-0.1,0.1-0.2,0.2-0.2S185.9,89,185.9,89.1z M185.9,90.4c0,0.1-0.1,0.2-0.2,0.2
			s-0.2-0.1-0.2-0.2c0-0.1,0.1-0.2,0.2-0.2S185.9,90.3,185.9,90.4z M187.2,93c0,0.1-0.1,0.2-0.2,0.2c-0.1,0-0.2-0.1-0.2-0.2
			c0-0.1,0.1-0.2,0.2-0.2C187.1,92.8,187.2,92.9,187.2,93z M188.5,93c0-0.1-0.1-0.2-0.2-0.2c-0.1,0-0.2,0.1-0.2,0.2
			c0,0.1,0.1,0.2,0.2,0.2C188.4,93.2,188.5,93.1,188.5,93z M189.8,93c0-0.1-0.1-0.2-0.2-0.2c-0.1,0-0.2,0.1-0.2,0.2
			c0,0.1,0.1,0.2,0.2,0.2C189.7,93.2,189.8,93.1,189.8,93z M191.1,91.7c0-0.1-0.1-0.2-0.2-0.2c-0.1,0-0.2,0.1-0.2,0.2
			c0,0.1,0.1,0.2,0.2,0.2C191,91.9,191.1,91.8,191.1,91.7z M191.1,90.4c0-0.1-0.1-0.2-0.2-0.2c-0.1,0-0.2,0.1-0.2,0.2
			c0,0.1,0.1,0.2,0.2,0.2C191,90.6,191.1,90.5,191.1,90.4z M191.1,89.1c0,0.1-0.1,0.2-0.2,0.2c-0.1,0-0.2-0.1-0.2-0.2
			c0-0.1,0.1-0.2,0.2-0.2C191,88.9,191.1,89,191.1,89.1z M191.1,96.9c0,0.1-0.1,0.2-0.2,0.2c-0.1,0-0.2-0.1-0.2-0.2
			c0-0.1,0.1-0.2,0.2-0.2C191,96.7,191.1,96.8,191.1,96.9z M184.6,95.6c0,0.1-0.1,0.2-0.2,0.2c-0.1,0-0.2-0.1-0.2-0.2
			c0-0.1,0.1-0.2,0.2-0.2C184.5,95.4,184.6,95.5,184.6,95.6z M185.9,91.7c0,0.1-0.1,0.2-0.2,0.2s-0.2-0.1-0.2-0.2
			c0-0.1,0.1-0.2,0.2-0.2S185.9,91.6,185.9,91.7z M191.1,95.6c0,0.1-0.1,0.2-0.2,0.2c-0.1,0-0.2-0.1-0.2-0.2c0-0.1,0.1-0.2,0.2-0.2
			C191,95.4,191.1,95.5,191.1,95.6z M194.9,84c0,0.1-0.1,0.2-0.2,0.2c-0.1,0-0.2-0.1-0.2-0.2c0-0.1,0.1-0.2,0.2-0.2
			C194.9,83.7,194.9,83.8,194.9,84z M194.9,85.3c0,0.1-0.1,0.2-0.2,0.2c-0.1,0-0.2-0.1-0.2-0.2s0.1-0.2,0.2-0.2
			C194.9,85,194.9,85.1,194.9,85.3z M197.5,87.8c0-0.1-0.1-0.2-0.2-0.2c-0.1,0-0.2,0.1-0.2,0.2c0,0.1,0.1,0.2,0.2,0.2
			C197.4,88.1,197.5,88,197.5,87.8z M197.5,89.1c0-0.1-0.1-0.2-0.2-0.2c-0.1,0-0.2,0.1-0.2,0.2c0,0.1,0.1,0.2,0.2,0.2
			C197.4,89.4,197.5,89.3,197.5,89.1z M180.3,105.9c0-0.1,0.1-0.2,0.2-0.2c0.1,0,0.2,0.1,0.2,0.2c0,0.1-0.1,0.2-0.2,0.2
			C180.4,106.2,180.3,106.1,180.3,105.9z M180.3,104.7c0-0.1,0.1-0.2,0.2-0.2c0.1,0,0.2,0.1,0.2,0.2s-0.1,0.2-0.2,0.2
			C180.4,104.9,180.3,104.8,180.3,104.7z M188.5,87.8c0,0.1-0.1,0.2-0.2,0.2c-0.1,0-0.2-0.1-0.2-0.2c0-0.1,0.1-0.2,0.2-0.2
			C188.4,87.6,188.5,87.7,188.5,87.8z M187.2,87.8c0,0.1-0.1,0.2-0.2,0.2c-0.1,0-0.2-0.1-0.2-0.2c0-0.1,0.1-0.2,0.2-0.2
			C187.1,87.6,187.2,87.7,187.2,87.8z M181.6,105.9c0-0.1,0.1-0.2,0.2-0.2c0.1,0,0.2,0.1,0.2,0.2c0,0.1-0.1,0.2-0.2,0.2
			C181.7,106.2,181.6,106.1,181.6,105.9z M181.6,104.7c0-0.1,0.1-0.2,0.2-0.2c0.1,0,0.2,0.1,0.2,0.2s-0.1,0.2-0.2,0.2
			C181.7,104.9,181.6,104.8,181.6,104.7z M169.9,104.7c0-0.1,0.1-0.2,0.2-0.2c0.1,0,0.2,0.1,0.2,0.2s-0.1,0.2-0.2,0.2
			C170,104.9,169.9,104.8,169.9,104.7z M169.9,105.9c0-0.1,0.1-0.2,0.2-0.2c0.1,0,0.2,0.1,0.2,0.2c0,0.1-0.1,0.2-0.2,0.2
			C170,106.2,169.9,106.1,169.9,105.9z M166.1,106.6c0-0.1,0.1-0.2,0.2-0.2c0.1,0,0.2,0.1,0.2,0.2c0,0.1-0.1,0.2-0.2,0.2
			C166.2,106.8,166.1,106.7,166.1,106.6z M141.9,95.2v1.3c0.1,0.1,0.2,0.2,0.2,0.4c0,0.2-0.2,0.4-0.4,0.4s-0.4-0.2-0.4-0.4
			c0-0.2,0.1-0.3,0.2-0.4V95c0.1,0,0.1,0.1,0.2,0.1C141.8,95.2,141.8,95.2,141.9,95.2z M143.2,95.3v1.3c0.1,0.1,0.2,0.2,0.2,0.4
			c0,0.2-0.2,0.4-0.4,0.4s-0.4-0.2-0.4-0.4c0-0.2,0.1-0.3,0.2-0.4v-1.3H143.2z M161.3,43.5c0.1,0.1,0.2,0.2,0.2,0.4
			c0,0.2-0.2,0.4-0.4,0.4c-0.2,0-0.4-0.2-0.4-0.4c0-0.2,0.1-0.3,0.2-0.4V32.6c-0.1-0.1-0.2-0.2-0.2-0.4c0-0.2,0.2-0.4,0.4-0.4
			c0.2,0,0.4,0.2,0.4,0.4c0,0.2-0.1,0.3-0.2,0.4V43.5z M165.9,106.6c0,0.2,0.2,0.4,0.4,0.4c0.2,0,0.4-0.2,0.4-0.4s-0.2-0.4-0.4-0.4
			c0,0-0.1,0-0.1,0l-1-1v-2h-0.4v2.1c0,0.1,0,0.1,0.1,0.2l1,1C165.9,106.5,165.9,106.6,165.9,106.6L165.9,106.6z M169.8,106.2
			c0.1,0.1,0.2,0.2,0.4,0.2c0.2,0,0.4-0.2,0.4-0.4c0-0.2-0.2-0.4-0.4-0.4c-0.2,0-0.3,0.1-0.4,0.2H169l-2.5-2.5v-0.1h-0.4v0.2
			c0,0.1,0,0.1,0.1,0.2l2.6,2.6c0,0,0.1,0.1,0.2,0.1C168.9,106.2,169.8,106.2,169.8,106.2z M169.8,104.9c0.1,0.1,0.2,0.2,0.4,0.2
			c0.2,0,0.4-0.2,0.4-0.4s-0.2-0.4-0.4-0.4c-0.2,0-0.3,0.1-0.4,0.2H169l-1.2-1.2v-0.1h-0.4v0.2c0,0.1,0,0.1,0.1,0.2l1.3,1.3
			c0,0,0.1,0.1,0.2,0.1L169.8,104.9L169.8,104.9z M187.4,87.8c0-0.2-0.1-0.3-0.2-0.4v-0.9c0-0.1,0-0.1-0.1-0.2l-1.3-1.3
			c0,0-0.1-0.1-0.2-0.1h-0.7c0,0.1-0.1,0.3-0.1,0.4h0.8l1.2,1.2v0.8c-0.1,0.1-0.2,0.2-0.2,0.4c0,0.2,0.2,0.4,0.4,0.4
			C187.2,88.3,187.4,88.1,187.4,87.8L187.4,87.8z M188.7,87.8c0-0.2-0.1-0.3-0.2-0.4v-0.9c0-0.1,0-0.1-0.1-0.2l-2.6-2.6
			c0,0-0.1-0.1-0.2-0.1h-0.5c0,0.1,0,0.3-0.1,0.4h0.5l2.5,2.5v0.8c-0.1,0.1-0.2,0.2-0.2,0.4c0,0.2,0.2,0.4,0.4,0.4
			C188.5,88.3,188.7,88.1,188.7,87.8L188.7,87.8z M180.1,104.7c0,0.2,0.2,0.4,0.4,0.4c0.2,0,0.4-0.2,0.4-0.4c0-0.2-0.1-0.3-0.2-0.4
			l0-2.2c0-0.1,0-0.1-0.1-0.2l-2.6-2.6c0,0-0.1-0.1-0.2-0.1h-2.5l-3.7-3.7v0.6l3.4,3.4c0,0,0.1,0.1,0.2,0.1h2.5l2.5,2.5v2.1
			C180.2,104.4,180.1,104.5,180.1,104.7z M195.2,85.3c0-0.2-0.2-0.4-0.4-0.4c-0.2,0-0.4,0.2-0.4,0.4c0,0.2,0.1,0.3,0.2,0.4v1.5
			l-1.8,1.8h-1.5c-0.1-0.1-0.2-0.2-0.4-0.2c-0.2,0-0.4,0.2-0.4,0.4c0,0.2,0.2,0.4,0.4,0.4c0.2,0,0.3-0.1,0.4-0.2h1.6
			c0.1,0,0.1,0,0.2-0.1l1.9-1.9c0,0,0.1-0.1,0.1-0.2v-1.6C195.1,85.6,195.2,85.4,195.2,85.3z M195.2,84c0-0.2-0.2-0.4-0.4-0.4
			c-0.2,0-0.3,0.1-0.4,0.2h-2.9c-0.1,0-0.1,0-0.2,0.1l-1.9,1.9c0,0-0.1,0.1-0.1,0.2v1.6c-0.1,0.1-0.2,0.2-0.2,0.4
			c0,0.2,0.2,0.4,0.4,0.4c0.2,0,0.4-0.2,0.4-0.4c0-0.2-0.1-0.3-0.2-0.4V86l1.8-1.8h2.8c0.1,0.1,0.2,0.2,0.4,0.2
			C195,84.4,195.2,84.2,195.2,84L195.2,84z M186.1,91.7c0-0.2-0.2-0.4-0.4-0.4c-0.2,0-0.3,0.1-0.4,0.2H185c-0.1,0-0.1,0-0.2,0.1
			l-0.6,0.6c0,0-0.1,0.1-0.1,0.2v2.9c-0.1,0.1-0.2,0.2-0.2,0.4c0,0.2,0.2,0.4,0.4,0.4c0.2,0,0.4-0.2,0.4-0.4c0-0.2-0.1-0.3-0.2-0.4
			v-2.8l0.5-0.5h0.2c0.1,0.1,0.2,0.2,0.4,0.2C185.9,92.2,186.1,92,186.1,91.7L186.1,91.7z M187.4,93c0-0.2-0.2-0.4-0.4-0.4
			c-0.2,0-0.4,0.2-0.4,0.4c0,0.2,0.1,0.3,0.2,0.4v2.1l-1.2,1.2h-2.4l-4.1-4.1l0,0c-0.1,0.1-0.3,0.1-0.4,0.2l4.3,4.3
			c0,0,0.1,0.1,0.2,0.1h2.6c0.1,0,0.1,0,0.2-0.1l1.3-1.3c0,0,0.1-0.1,0.1-0.2v-2.2C187.3,93.3,187.4,93.2,187.4,93z M186.1,90.4
			c0-0.2-0.2-0.4-0.4-0.4c-0.2,0-0.3,0.1-0.4,0.2h-3.2c-0.1,0.1-0.3,0.3-0.4,0.4h3.6c0.1,0.1,0.2,0.2,0.4,0.2
			C185.9,90.9,186.1,90.7,186.1,90.4z M186.1,89.1c0-0.2-0.2-0.4-0.4-0.4c-0.2,0-0.3,0.1-0.4,0.2h-2.1c-0.1,0.1-0.2,0.3-0.3,0.4h2.4
			c0.1,0.1,0.2,0.2,0.4,0.2C185.9,89.6,186.1,89.4,186.1,89.1z M172.3,105.9c0,0.2,0.2,0.4,0.4,0.4c0.2,0,0.4-0.2,0.4-0.4
			c0-0.2-0.1-0.3-0.2-0.4v-3.5c0-0.1,0-0.1-0.1-0.2l-1.2-1.2v0.6l0.8,0.8v3.4C172.4,105.6,172.3,105.8,172.3,105.9z M131.4,52.1
			c-0.2,0-0.4-0.2-0.4-0.4c0-0.2,0.2-0.4,0.4-0.4c0.2,0,0.3,0.1,0.4,0.2h1.6c0.1,0,0.1,0,0.2,0.1l3.8,3.8h3.4v0.1c0,0.1,0,0.2,0,0.4
			h-3.5c-0.1,0-0.1,0-0.2-0.1l-3.8-3.8h-1.5C131.7,52,131.5,52.1,131.4,52.1z M150.8,37c0.2,0,0.4,0.2,0.4,0.4
			c0,0.2-0.2,0.4-0.4,0.4c-0.2,0-0.3-0.1-0.4-0.2h-0.8l-2.5,2.5v0.8c0.1,0.1,0.2,0.2,0.2,0.4c0,0.2-0.2,0.4-0.4,0.4
			c-0.2,0-0.4-0.2-0.4-0.4c0-0.2,0.1-0.3,0.2-0.4V40c0-0.1,0-0.1,0.1-0.2l2.6-2.6c0,0,0.1-0.1,0.2-0.1h0.9
			C150.5,37.1,150.6,37,150.8,37L150.8,37z M152.1,37c0.2,0,0.4,0.2,0.4,0.4c0,0.2-0.1,0.3-0.2,0.4v0.9c0,0.1,0,0.1-0.1,0.2
			l-0.6,0.6c0,0-0.1,0.1-0.2,0.1h-2.5l-0.5,0.5v0.8c0.1,0.1,0.2,0.2,0.2,0.4c0,0.2-0.2,0.4-0.4,0.4c-0.2,0-0.4-0.2-0.4-0.4
			c0-0.2,0.1-0.3,0.2-0.4V40c0-0.1,0-0.1,0.1-0.2l0.6-0.6c0,0,0.1-0.1,0.2-0.1h2.5l0.5-0.5v-0.8c-0.1-0.1-0.2-0.2-0.2-0.4
			C151.6,37.2,151.8,37,152.1,37L152.1,37z M144.3,46c0.2,0,0.4,0.2,0.4,0.4c0,0.2-0.1,0.3-0.2,0.4v0.3c0,0.1,0,0.1-0.1,0.2
			l-0.6,0.6c0,0-0.1,0.1-0.2,0.1h-2.9c-0.1,0.1-0.2,0.2-0.4,0.2c-0.2,0-0.4-0.2-0.4-0.4c0-0.2,0.2-0.4,0.4-0.4
			c0.2,0,0.3,0.1,0.4,0.2h2.8l0.5-0.5v-0.2c-0.1-0.1-0.2-0.2-0.2-0.4C143.9,46.2,144.1,46,144.3,46z M143,44.7
			c0.2,0,0.4,0.2,0.4,0.4c0,0.2-0.2,0.4-0.4,0.4c-0.2,0-0.3-0.1-0.4-0.2h-2.1l-1.2,1.2V49l1.2,1.2h0.2v0.4h-0.3
			c-0.1,0-0.1,0-0.2-0.1l-1.3-1.3c0,0-0.1-0.1-0.1-0.2v-2.6c0-0.1,0-0.1,0.1-0.2l1.3-1.3c0,0,0.1-0.1,0.2-0.1h2.2
			C142.7,44.8,142.8,44.7,143,44.7L143,44.7z M145.6,46c0.2,0,0.4,0.2,0.4,0.4c0,0.2-0.1,0.3-0.2,0.4v1.3h-0.4v-1.3
			c-0.1-0.1-0.2-0.2-0.2-0.4C145.2,46.2,145.4,46,145.6,46z M146.9,46c0.2,0,0.4,0.2,0.4,0.4c0,0.2-0.1,0.3-0.2,0.4v1.3h-0.4v-1.3
			c-0.1-0.1-0.2-0.2-0.2-0.4C146.5,46.2,146.6,46,146.9,46z M148.2,46c0.2,0,0.4,0.2,0.4,0.4c0,0.2-0.1,0.3-0.2,0.4v1.3H148v-1.3
			c-0.1-0.1-0.2-0.2-0.2-0.4C147.7,46.2,147.9,46,148.2,46z M149.5,44.7c0.2,0,0.3,0.1,0.4,0.2h1.9v0.4h-1.9
			c-0.1,0.1-0.2,0.2-0.4,0.2c-0.2,0-0.4-0.2-0.4-0.4S149.2,44.7,149.5,44.7z M149.5,43.4c0.2,0,0.3,0.1,0.4,0.2h1.9v0.4h-1.9
			c-0.1,0.1-0.2,0.2-0.4,0.2c-0.2,0-0.4-0.2-0.4-0.4C149,43.6,149.2,43.4,149.5,43.4z M149.5,42.1c0.2,0,0.3,0.1,0.4,0.2h1.9v0.4
			h-1.9c-0.1,0.1-0.2,0.2-0.4,0.2c-0.2,0-0.4-0.2-0.4-0.4S149.2,42.1,149.5,42.1z M153.3,35.7c0.2,0,0.4,0.2,0.4,0.4
			c0,0.2-0.1,0.3-0.2,0.4v3.7h-0.3c0,0-0.1,0-0.1,0v-3.7c-0.1-0.1-0.2-0.2-0.2-0.4C152.9,35.9,153.1,35.7,153.3,35.7z M154.6,35.7
			c0.2,0,0.4,0.2,0.4,0.4c0,0.2-0.1,0.3-0.2,0.4v3.7h-0.4v-3.7c-0.1-0.1-0.2-0.2-0.2-0.4C154.2,35.9,154.4,35.7,154.6,35.7z
			 M134,94.7c-0.2,0-0.4-0.2-0.4-0.4c0-0.2,0.2-0.4,0.4-0.4c0.2,0,0.3,0.1,0.4,0.2h0.5c0.1-0.1,0.2-0.2,0.4-0.2
			c0.2,0,0.4,0.2,0.4,0.4c0,0.2-0.2,0.4-0.4,0.4c-0.2,0-0.3-0.1-0.4-0.2h-0.5C134.2,94.7,134.1,94.7,134,94.7z M130.1,58.5
			c-0.2,0-0.4-0.2-0.4-0.4c0-0.2,0.2-0.4,0.4-0.4c0.2,0,0.3,0.1,0.4,0.2h2.2c0.1,0,0.1,0,0.2,0.1l1.2,1.2l7.3,0
			c0.1-0.1,0.2-0.2,0.4-0.2c0.2,0,0.4,0.2,0.4,0.4c0,0.2-0.2,0.4-0.4,0.4c-0.2,0-0.3-0.1-0.4-0.2H134c0,0,0,0,0,0h-2.5l-6.3,6.3v2.1
			c0.1,0.1,0.2,0.2,0.2,0.4c0,0.2-0.2,0.4-0.4,0.4c-0.2,0-0.4-0.2-0.4-0.4c0-0.2,0.1-0.3,0.2-0.4v-2.2c0-0.1,0-0.1,0.1-0.2l6.5-6.5
			c0,0,0.1-0.1,0.2-0.1h2l-0.9-0.9h-2.1C130.4,58.4,130.2,58.5,130.1,58.5L130.1,58.5z M143,58.5c-0.2,0-0.4-0.2-0.4-0.4
			c0-0.2,0.2-0.4,0.4-0.4c0.2,0,0.3,0.1,0.4,0.2h2.7l0.5-1h0.5c0,0,0,0,0,0l-0.6,1.3c0,0.1-0.1,0.1-0.2,0.1h-2.9
			C143.3,58.4,143.2,58.5,143,58.5L143,58.5z M143,59.8c-0.2,0-0.4-0.2-0.4-0.4c0-0.2,0.2-0.4,0.4-0.4c0.2,0,0.3,0.1,0.4,0.2h5.2
			v0.4h-5.2C143.3,59.7,143.2,59.8,143,59.8z M143,61.1c-0.2,0-0.4-0.2-0.4-0.4s0.2-0.4,0.4-0.4c0.2,0,0.3,0.1,0.4,0.2h5.2v0.4h-5.2
			C143.3,61,143.2,61.1,143,61.1z M141.7,62.4c-0.2,0-0.3-0.1-0.4-0.2h-2.8l-0.5,0.5v0.2c0.1,0.1,0.2,0.2,0.2,0.4
			c0,0.2-0.2,0.4-0.4,0.4c-0.2,0-0.4-0.2-0.4-0.4c0-0.2,0.1-0.3,0.2-0.4v-0.3c0-0.1,0-0.1,0.1-0.2l0.6-0.6c0,0,0.1-0.1,0.2-0.1h2.9
			c0.1-0.1,0.2-0.2,0.4-0.2c0.2,0,0.4,0.2,0.4,0.4C142.1,62.2,141.9,62.4,141.7,62.4z M143,62.4c-0.2,0-0.4-0.2-0.4-0.4
			c0-0.2,0.2-0.4,0.4-0.4c0.2,0,0.3,0.1,0.4,0.2h5.2v0.4h-5.2C143.3,62.3,143.2,62.4,143,62.4z M139.1,63.7c-0.2,0-0.4-0.2-0.4-0.4
			c0-0.2,0.2-0.4,0.4-0.4c0.2,0,0.3,0.1,0.4,0.2h9.1v0.4h-9.1C139.4,63.6,139.3,63.7,139.1,63.7z M141.7,61.1
			c-0.2,0-0.3-0.1-0.4-0.2h-9.9l-5,5V68c0.2,0.1,0.3,0.2,0.3,0.4c0,0.2-0.2,0.4-0.4,0.4c-0.2,0-0.4-0.2-0.4-0.4
			c0-0.1,0.1-0.3,0.2-0.3v-2.2c0-0.1,0-0.1,0.1-0.2l5.2-5.2c0,0,0.1-0.1,0.2-0.1h10c0.1-0.1,0.2-0.2,0.4-0.2c0.2,0,0.4,0.2,0.4,0.4
			C142.1,60.9,141.9,61.1,141.7,61.1z M137.8,65c-0.2,0-0.3-0.1-0.4-0.2h-0.9c-0.1,0-0.1,0-0.2-0.1l-1.2-1.2h-5l-2.5,2.5v2.1
			c0.1,0.1,0.2,0.2,0.2,0.4c0,0.2-0.2,0.4-0.4,0.4c-0.2,0-0.4-0.2-0.4-0.4c0-0.2,0.1-0.3,0.2-0.4v-2.2c0-0.1,0-0.1,0.1-0.2l2.6-2.6
			c0,0,0.1-0.1,0.2-0.1h5.2c0.1,0,0.1,0,0.2,0.1l1.2,1.2h0.8c0.1-0.1,0.2-0.2,0.4-0.2c0.2,0,0.4,0.2,0.4,0.4
			C138.3,64.8,138.1,65,137.8,65L137.8,65z M139.1,65c-0.2,0-0.4-0.2-0.4-0.4c0-0.2,0.2-0.4,0.4-0.4c0.2,0,0.3,0.1,0.4,0.2h9.1v0.4
			h-9.1C139.4,64.9,139.3,65,139.1,65z M139.1,66.3c-0.2,0-0.4-0.2-0.4-0.4c0-0.2,0.2-0.4,0.4-0.4c0.2,0,0.3,0.1,0.4,0.2h9.1v0.4
			h-9.1C139.4,66.2,139.3,66.3,139.1,66.3z M137.8,66.3c-0.2,0-0.3-0.1-0.4-0.2h-2.7l0.6,0.6h13.2v0.9h-13.4c-0.1,0-0.2,0-0.3-0.1
			l-1.2-1.2h-3.5l-1,1v1.1v0l0,0l0,0l0,0l0,0l0,0l0,0l0,0l0,0l0,0l0,0v0l0,0l0,0h0l0,0l0,0l0,0l0,0l0,0l0,0l0,0l0,0l0,0l0,0l0,0l0,0
			l0,0l0,0l0,0l0,0l0,0l0,0h0l0,0l0,0l0,0l0,0l0,0l0,0l0,0l0,0l0,0l0,0l0,0l0,0l0,0l0,0l0,0l0,0l0,0h0l0,0l0,0l0,0l0,0l0,0l0,0l0,0
			l0,0l0,0l0,0l0,0l0,0l0,0l0,0l0,0l0,0l0,0l0,0l0,0l0,0l0,0l0,0l0,0h0l0,0l0,0l0,0l0,0l0,0l0,0l0,0l0,0l0,0l0,0l0,0l0,0l0,0l0,0
			l0,0l0,0l0,0l0,0l0,0l0,0l0,0l0,0l0,0l0,0l0,0l0,0l0,0l0,0l0,0l0,0l0,0l0,0l0,0l0,0l0,0l0,0l0,0l0,0l0,0l0,0l0,0l0,0l0,0l0,0l0,0
			l0,0l0,0l0,0l0,0l0,0l0,0l0,0l0,0l0,0l0,0l0,0l0,0l0,0l0,0l0,0l0,0l0,0v0l0,0l0,0l0,0l0,0l0,0l0,0l0,0l0,0l0,0l0,0v0v-1.3
			c0-0.1,0-0.2,0.1-0.3l1.3-1.3c0.1-0.1,0.2-0.1,0.3-0.1h3.9c0.1,0,0.2,0,0.3,0.1l0.1,0.1h3.1c0.1-0.1,0.2-0.2,0.4-0.2
			c0.2,0,0.4,0.2,0.4,0.4C138.3,66.1,138.1,66.3,137.8,66.3L137.8,66.3z M130.1,76.6c-0.2,0-0.4-0.2-0.4-0.4c0-0.2,0.1-0.3,0.2-0.4
			v-2.2c0-0.1,0-0.1,0.1-0.2l3.9-3.9c0,0,0.1-0.1,0.2-0.1h14.7V70H134l-3.8,3.8v2.1c0.1,0.1,0.2,0.2,0.2,0.4
			C130.5,76.4,130.3,76.6,130.1,76.6L130.1,76.6z M131.4,76.6c-0.2,0-0.4-0.2-0.4-0.4c0-0.2,0.1-0.3,0.2-0.4v-2.2
			c0-0.1,0-0.1,0.1-0.2l2.6-2.6c0,0,0.1-0.1,0.2-0.1h14.7v0.4H134l-2.5,2.5v2.1c0.1,0.1,0.2,0.2,0.2,0.4
			C131.8,76.4,131.6,76.6,131.4,76.6L131.4,76.6z M132.7,76.6c-0.2,0-0.4-0.2-0.4-0.4c0-0.2,0.1-0.3,0.2-0.4v-2.2
			c0-0.1,0-0.1,0.1-0.2l1.3-1.3c0,0,0.1-0.1,0.2-0.1h14.7v0.4H134l-1.2,1.2v2.1c0.1,0.1,0.2,0.2,0.2,0.4
			C133.1,76.4,132.9,76.6,132.7,76.6L132.7,76.6z M141.7,74c-0.2,0-0.4-0.2-0.4-0.4c0-0.2,0.2-0.4,0.4-0.4c0.2,0,0.3,0.1,0.4,0.2
			h6.5v0.4h-6.5C142,74,141.9,74,141.7,74z M150.8,102.5c-0.2,0-0.4-0.2-0.4-0.4c0-0.2,0.2-0.4,0.4-0.4c0.2,0,0.3,0.1,0.4,0.2h0.6
			c0,0.2,0.1,0.3,0.1,0.4h-0.7C151.1,102.4,150.9,102.5,150.8,102.5z M150.8,101.2c-0.2,0-0.4-0.2-0.4-0.4c0-0.2,0.2-0.4,0.4-0.4
			c0.2,0,0.3,0.1,0.4,0.2h0.6v0.4h-0.6C151.1,101.1,150.9,101.2,150.8,101.2z M143,79.2c-0.2,0-0.4-0.2-0.4-0.4
			c0-0.2,0.2-0.4,0.4-0.4c0.2,0,0.3,0.1,0.4,0.2h5.2V79h-5.2C143.3,79.1,143.2,79.2,143,79.2z M155.9,105.1c-0.2,0-0.4-0.2-0.4-0.4
			c0-0.2,0.1-0.3,0.2-0.4v-1.1h0.4v1.1c0.1,0.1,0.2,0.2,0.2,0.4C156.4,104.9,156.2,105.1,155.9,105.1z M162.4,98.6
			c-0.2,0-0.4-0.2-0.4-0.4c0-0.2,0.1-0.3,0.2-0.4v-2.6h0.4v2.6c0.1,0.1,0.2,0.2,0.2,0.4C162.8,98.4,162.6,98.6,162.4,98.6z
			 M135.2,77.9c-0.2,0-0.4-0.2-0.4-0.4c0-0.2,0.2-0.4,0.4-0.4c0.2,0,0.3,0.1,0.4,0.2h1.8c0.1-0.1,0.2-0.2,0.4-0.2
			c0.2,0,0.4,0.2,0.4,0.4c0,0.2-0.2,0.4-0.4,0.4c-0.2,0-0.3-0.1-0.4-0.2h-1.8C135.5,77.8,135.4,77.9,135.2,77.9z M135.2,79.2
			c-0.2,0-0.4-0.2-0.4-0.4c0-0.2,0.2-0.4,0.4-0.4c0.2,0,0.3,0.1,0.4,0.2h0.9c0.1,0,0.1,0,0.2,0.1l2.5,2.5h9.4v0.4h-9.5
			c-0.1,0-0.1,0-0.2-0.1l-2.5-2.5h-0.8C135.5,79.1,135.4,79.2,135.2,79.2L135.2,79.2z M135.2,80.5c-0.2,0-0.4-0.2-0.4-0.4
			s0.2-0.4,0.4-0.4c0.2,0,0.3,0.1,0.4,0.2h0.9c0.1,0,0.1,0,0.2,0.1l2.5,2.5h9.4v0.4h-9.5c-0.1,0-0.1,0-0.2-0.1l-2.5-2.5h-0.8
			C135.5,80.4,135.4,80.5,135.2,80.5L135.2,80.5z M135.2,81.8c-0.2,0-0.4-0.2-0.4-0.4c0-0.2,0.2-0.4,0.4-0.4c0.2,0,0.3,0.1,0.4,0.2
			h0.9c0.1,0,0.1,0,0.2,0.1l2.5,2.5h9.4v0.4h-9.5c-0.1,0-0.1,0-0.2-0.1l-2.5-2.5h-0.8C135.5,81.7,135.4,81.8,135.2,81.8z
			 M139.1,77.9c-0.2,0-0.4-0.2-0.4-0.4c0-0.2,0.2-0.4,0.4-0.4c0.2,0,0.4,0.2,0.4,0.4c0,0,0,0.1,0,0.1l2.3,2.3h6.8v0.4h-6.9
			c-0.1,0-0.1,0-0.2-0.1l-2.3-2.3C139.2,77.9,139.2,77.9,139.1,77.9L139.1,77.9z M150.8,99.9c-0.2,0-0.4-0.2-0.4-0.4
			c0-0.2,0.1-0.3,0.2-0.4V97l-0.5-0.5c0,0-0.1,0-0.1,0c-0.2,0-0.4-0.2-0.4-0.4c0-0.2,0.2-0.4,0.4-0.4c0.2,0,0.4,0.2,0.4,0.4
			c0,0,0,0.1,0,0.1l0.6,0.6c0,0,0.1,0.1,0.1,0.2v2.2c0.1,0.1,0.2,0.2,0.2,0.4C151.2,99.7,151,99.9,150.8,99.9z M135.2,99.9
			c-0.2,0-0.4-0.2-0.4-0.4c0-0.2,0.2-0.4,0.4-0.4c0.2,0,0.3,0.1,0.4,0.2h0.9c0.1,0,0.1,0,0.2,0.1l2.3,2.3c0,0,0.1,0,0.1,0
			c0.2,0,0.4,0.2,0.4,0.4c0,0.2-0.2,0.4-0.4,0.4c-0.2,0-0.4-0.2-0.4-0.4c0,0,0-0.1,0-0.1l-2.3-2.3h-0.8
			C135.5,99.8,135.4,99.9,135.2,99.9z M146.9,103.8c0,0-0.1,0-0.1,0l-2.1,2.1c0,0,0,0.1,0,0.1c0,0.2-0.2,0.4-0.4,0.4
			c-0.2,0-0.4-0.2-0.4-0.4c0-0.2,0.2-0.4,0.4-0.4c0,0,0.1,0,0.1,0l2.1-2.1c0,0,0-0.1,0-0.1c0-0.2,0.2-0.4,0.4-0.4
			c0.2,0,0.4,0.2,0.4,0.4S147.1,103.8,146.9,103.8z M144.3,97.3c-0.2,0-0.4-0.2-0.4-0.4c0-0.2,0.1-0.3,0.2-0.4v-1.3h0.4v1.3
			c0.1,0.1,0.2,0.2,0.2,0.4C144.7,97.1,144.5,97.3,144.3,97.3z M149.5,109c-0.2,0-0.4-0.2-0.4-0.4c0-0.2,0.2-0.4,0.4-0.4
			c0.2,0,0.3,0.1,0.4,0.2h3.1c0.1-0.1,0.2-0.2,0.4-0.2c0.2,0,0.4,0.2,0.4,0.4c0,0.2-0.2,0.4-0.4,0.4c-0.2,0-0.3-0.1-0.4-0.2h-3.1
			C149.8,108.9,149.6,109,149.5,109z M148.2,109c-0.2,0-0.4-0.2-0.4-0.4c0-0.2,0.1-0.3,0.2-0.4v-0.9c0-0.1,0-0.1,0.1-0.2l1.3-1.3
			c0,0,0.1-0.1,0.2-0.1h3.1l1.8-1.8v-0.7h0.4v0.8c0,0.1,0,0.1-0.1,0.2l-1.9,1.9c0,0-0.1,0.1-0.2,0.1h-3.1l-1.2,1.2v0.8
			c0.1,0.1,0.2,0.2,0.2,0.4C148.6,108.8,148.4,109,148.2,109z M153.3,107.7c-0.2,0-0.4-0.2-0.4-0.4c0-0.2,0.2-0.4,0.4-0.4
			c0,0,0.1,0,0.1,0l1-1c0,0,0.1-0.1,0.2-0.1h0.9c0.1-0.1,0.2-0.2,0.4-0.2c0.2,0,0.4,0.2,0.4,0.4c0,0.2-0.2,0.4-0.4,0.4
			c-0.2,0-0.3-0.1-0.4-0.2h-0.8l-1,1c0,0,0,0.1,0,0.1C153.8,107.5,153.6,107.7,153.3,107.7z M162.4,110.3c-0.2,0-0.4-0.2-0.4-0.4
			c0-0.2,0.1-0.3,0.2-0.4v-9.6c-0.1-0.1-0.2-0.2-0.2-0.4c0-0.2,0.2-0.4,0.4-0.4c0.2,0,0.4,0.2,0.4,0.4c0,0.2-0.1,0.3-0.2,0.4v9.6
			c0.1,0.1,0.2,0.2,0.2,0.4C162.8,110.1,162.6,110.3,162.4,110.3z M170.2,84.8c0,0,0.1,0,0.1,0l1-1c0,0,0.1-0.1,0.2-0.1h1.6
			c-0.1,0.2-0.2,0.3-0.3,0.4h-1.2l-1,1c0,0,0,0.1,0,0.1c0,0.2-0.2,0.4-0.4,0.4c-0.2,0-0.4-0.2-0.4-0.4S169.9,84.8,170.2,84.8z
			 M168.9,84.8c0,0,0.1,0,0.1,0l2.3-2.3c0,0,0.1-0.1,0.2-0.1h2.2c0,0.1-0.1,0.3-0.1,0.4h-1.9l-2.3,2.3c0,0,0,0.1,0,0.1
			c0,0.2-0.2,0.4-0.4,0.4c-0.2,0-0.4-0.2-0.4-0.4S168.6,84.8,168.9,84.8L168.9,84.8z M167.8,84.9c0.1,0.1,0.2,0.2,0.2,0.4
			c0,0.2-0.2,0.4-0.4,0.4c-0.2,0-0.4-0.2-0.4-0.4c0-0.2,0.1-0.3,0.2-0.4V84c0-0.1,0-0.1,0.1-0.2l2.3-2.3l-1-1h-1.1l0,0l0,0l0,0l0,0
			l0,0l0,0l0,0l0,0l0,0l0,0l0,0l0,0l0,0l0,0h0l0,0l0,0l0,0l0,0l0,0l0,0l0,0l0,0l0,0l0,0l0,0l0,0l0,0l0,0l0,0l0,0l0,0h0l0,0l0,0l0,0
			l0,0l0,0l0,0l0,0l0,0l0,0l0,0l0,0l0,0l0,0l0,0l0,0l0,0l0,0l0,0l0,0l0,0l0,0l0,0l0,0l0,0l0,0l0,0l0,0l0,0l0,0v0l0,0l0,0l0,0l0,0
			l0,0l0,0l0,0l0,0l0,0l0,0l0,0l0,0l0,0l0,0l0,0l0,0v0l0,0l0,0l0,0l0,0l0,0l0,0l0,0l0,0l0,0l0,0l0,0l0,0h0l0,0l0,0l0,0l0,0l0,0l0,0
			l0,0l0,0l0,0l0,0l0,0l0,0l0,0l0,0l0,0l0,0l0,0l0,0h0l0,0l0,0l0,0l0,0l0,0l0,0l0,0l0,0l0,0l0,0l0,0l0,0l0,0l0,0h1.3
			c0.1,0,0.2,0,0.3,0.1l1.2,1.2h3.5c0,0.3,0,0.6-0.1,0.9h-3.6c0,0-0.1,0-0.1,0l-2.3,2.3V84.9L167.8,84.9z M166.5,84.9
			c0.1,0.1,0.2,0.2,0.2,0.4c0,0.2-0.2,0.4-0.4,0.4c-0.2,0-0.4-0.2-0.4-0.4c0-0.2,0.1-0.3,0.2-0.4v-3.1c-0.1-0.1-0.2-0.2-0.2-0.4
			c0-0.2,0.2-0.4,0.4-0.4c0.2,0,0.4,0.2,0.4,0.4c0,0.2-0.1,0.3-0.2,0.4V84.9z M161.1,84.8c0.2,0,0.4,0.2,0.4,0.4
			c0,0.2-0.1,0.3-0.2,0.4v0.9l-0.3,0l-0.1,0v-0.9c-0.1-0.1-0.2-0.2-0.2-0.4C160.7,85,160.9,84.8,161.1,84.8z M162.6,84.9
			c0.1,0.1,0.2,0.2,0.2,0.4c0,0.2-0.2,0.4-0.4,0.4c-0.2,0-0.4-0.2-0.4-0.4c0-0.2,0.1-0.3,0.2-0.4v-2.1l-1.2-1.2h-0.5v-0.4h0.6
			c0.1,0,0.1,0,0.2,0.1l1.3,1.3c0,0,0.1,0.1,0.1,0.2L162.6,84.9L162.6,84.9z M167.6,77.1c0.2,0,0.3,0.1,0.4,0.2h3.4l0.6-0.6
			c0.1,0.1,0.2,0.2,0.3,0.3l-0.7,0.7c0,0-0.1,0.1-0.2,0.1h-3.5c-0.1,0.1-0.2,0.2-0.4,0.2c-0.2,0-0.4-0.2-0.4-0.4
			C167.1,77.3,167.3,77.1,167.6,77.1L167.6,77.1z M167.6,78.4c0.2,0,0.3,0.1,0.4,0.2h5.5c0.1,0.1,0.1,0.3,0.1,0.4h-5.7
			c-0.1,0.1-0.2,0.2-0.4,0.2c-0.2,0-0.4-0.2-0.4-0.4C167.1,78.6,167.3,78.4,167.6,78.4z M165,80.9c0.2,0,0.4,0.2,0.4,0.4
			c0,0.2-0.1,0.3-0.2,0.4v4.7c-0.1,0-0.3,0-0.4,0v-4.7c-0.1-0.1-0.2-0.2-0.2-0.4C164.6,81.1,164.8,80.9,165,80.9z M163.7,80.9
			c0.2,0,0.4,0.2,0.4,0.4c0,0.2-0.1,0.3-0.2,0.4v4.8c-0.1,0-0.3,0-0.4,0v-4.8c-0.1-0.1-0.2-0.2-0.2-0.4
			C163.3,81.1,163.5,80.9,163.7,80.9z M162.4,79.7c0.2,0,0.4,0.2,0.4,0.4s-0.2,0.4-0.4,0.4c-0.2,0-0.3-0.1-0.4-0.2h-1.5v-0.4h1.5
			C162.1,79.7,162.2,79.7,162.4,79.7z M162.4,78.4c0.2,0,0.4,0.2,0.4,0.4c0,0.2-0.2,0.4-0.4,0.4c-0.2,0-0.3-0.1-0.4-0.2h-1.5v-0.4
			h1.5C162.1,78.4,162.2,78.4,162.4,78.4z M166.5,75.8c0.1,0.1,0.2,0.2,0.2,0.4c0,0.2-0.2,0.4-0.4,0.4c-0.2,0-0.4-0.2-0.4-0.4
			c0-0.2,0.1-0.3,0.2-0.4v-0.8c0.1,0,0.3,0,0.4,0L166.5,75.8L166.5,75.8z M165.2,75.8c0.1,0.1,0.2,0.2,0.2,0.4
			c0,0.2-0.2,0.4-0.4,0.4c-0.2,0-0.4-0.2-0.4-0.4c0-0.2,0.1-0.3,0.2-0.4V75c0.1,0,0.3,0,0.4,0V75.8z M163.9,75.8
			c0.1,0.1,0.2,0.2,0.2,0.4c0,0.2-0.2,0.4-0.4,0.4c-0.2,0-0.4-0.2-0.4-0.4c0-0.2,0.1-0.3,0.2-0.4V75c0.1,0,0.3,0,0.4,0
			C163.9,75,163.9,75.8,163.9,75.8z M188.3,78.4c0.2,0,0.3,0.1,0.4,0.2h0.9c0.1,0,0.1,0,0.2,0.1l1.2,1.2h5l2.5-2.5v-2.1
			c-0.1-0.1-0.2-0.2-0.2-0.4c0-0.2,0.2-0.4,0.4-0.4c0.2,0,0.4,0.2,0.4,0.4c0,0.2-0.1,0.3-0.2,0.4v2.2c0,0.1,0,0.1-0.1,0.2l-2.6,2.6
			c0,0-0.1,0.1-0.2,0.1l-5.2,0c-0.1,0-0.1,0-0.2-0.1l-1.2-1.2h-0.8c-0.1,0.1-0.2,0.2-0.4,0.2c-0.2,0-0.4-0.2-0.4-0.4
			C187.8,78.6,188,78.4,188.3,78.4L188.3,78.4z M187,78.4c0.2,0,0.4,0.2,0.4,0.4c0,0.2-0.2,0.4-0.4,0.4c-0.2,0-0.3-0.1-0.4-0.2h-1.4
			c0-0.1,0-0.3-0.1-0.4h1.5C186.7,78.4,186.8,78.4,187,78.4z M187,77.1c0.2,0,0.4,0.2,0.4,0.4c0,0.2-0.2,0.4-0.4,0.4
			c-0.2,0-0.3-0.1-0.4-0.2H185c0-0.1-0.1-0.3-0.1-0.4h1.8C186.7,77.2,186.8,77.1,187,77.1z M188.3,77.1c0.2,0,0.3,0.1,0.4,0.2h2.7
			l-0.6-0.6h-6.1c-0.1-0.3-0.2-0.6-0.3-0.9h6.6c0.1,0,0.2,0,0.3,0.1l1.2,1.2h3.5l1-1v-1.1l0,0l0,0l0,0l0,0l0,0l0,0l0,0l0,0l0,0l0,0
			l0,0l0,0l0,0l0,0l0,0l0,0l0,0l0,0l0,0l0,0l0,0l0,0l0,0l0,0l0,0l0,0l0,0l0,0l0,0l0,0l0,0l0,0l0,0l0,0l0,0l0,0l0,0l0,0l0,0l0,0l0,0
			l0,0l0,0h0l0,0l0,0l0,0l0,0l0,0l0,0l0,0l0,0l0,0l0,0l0,0l0,0l0,0h0l0,0l0,0l0,0l0,0l0,0l0,0l0,0l0,0l0,0l0,0l0,0l0,0l0,0l0,0l0,0
			l0,0l0,0l0,0l0,0l0,0l0,0l0,0l0,0l0,0l0,0l0,0l0,0l0,0l0,0l0,0l0,0l0,0l0,0l0,0l0,0l0,0l0,0l0,0l0,0l0,0l0,0l0,0l0,0l0,0l0,0l0,0
			l0,0l0,0l0,0l0,0l0,0l0,0l0,0l0,0v1.3c0,0.1,0,0.2-0.1,0.3l-1.3,1.3c-0.1,0.1-0.2,0.1-0.3,0.1h-3.9c-0.1,0-0.2,0-0.3-0.1l-0.1-0.1
			h-3.1c-0.1,0.1-0.2,0.2-0.4,0.2c-0.2,0-0.4-0.2-0.4-0.4C187.8,77.3,188,77.1,188.3,77.1z M199.9,74.5c0.2,0,0.4,0.2,0.4,0.4
			c0,0.1-0.1,0.3-0.2,0.3v2.9c0,0.1,0,0.1-0.1,0.2l-3.2,3.2c0,0-0.1,0.1-0.2,0.1h-11.3c0-0.1,0-0.3,0-0.4h11.2l3.1-3.1v-2.7
			c-0.2-0.1-0.3-0.2-0.3-0.4C199.4,74.7,199.6,74.5,199.9,74.5z M201.2,74.5c0.2,0,0.4,0.2,0.4,0.4c0,0.2-0.1,0.3-0.2,0.4v3.5
			c0,0.1,0,0.1-0.1,0.2l-3.9,3.9c0,0-0.1,0.1-0.2,0.1h-12c0-0.1,0-0.3,0-0.4h11.9l3.8-3.8v-3.4c-0.1-0.1-0.2-0.2-0.2-0.4
			C200.8,74.7,201,74.5,201.2,74.5z M196,66.7c0.2,0,0.4,0.2,0.4,0.4c0,0.2-0.1,0.3-0.2,0.4v2.2c0,0.1,0,0.1-0.1,0.2l-3.9,3.9
			c0,0-0.1,0.1-0.2,0.1h-9c0-0.1-0.1-0.1-0.1-0.2c-0.1-0.1-0.1-0.2-0.2-0.2h9.2l3.8-3.8v-2.1c-0.1-0.1-0.2-0.2-0.2-0.4
			C195.6,66.9,195.8,66.7,196,66.7z M194.7,66.7c0.2,0,0.4,0.2,0.4,0.4c0,0.2-0.1,0.3-0.2,0.4v2.2c0,0.1,0,0.1-0.1,0.2l-2.6,2.6
			c0,0-0.1,0.1-0.2,0.1h-10.1c-0.1-0.1-0.3-0.3-0.4-0.4h10.4l2.5-2.5v-2.1c-0.1-0.1-0.2-0.2-0.2-0.4
			C194.3,66.9,194.5,66.7,194.7,66.7L194.7,66.7z M193.4,66.7c0.2,0,0.4,0.2,0.4,0.4c0,0.2-0.1,0.3-0.2,0.4v2.2c0,0.1,0,0.1-0.1,0.2
			l-1.3,1.3c0,0-0.1,0.1-0.2,0.1h-11.5c-0.2-0.1-0.4-0.3-0.5-0.4h11.9l1.2-1.2v-2.1c-0.1-0.1-0.2-0.2-0.2-0.4
			C193,66.9,193.2,66.7,193.4,66.7L193.4,66.7z M184.4,69.3c0.2,0,0.4,0.2,0.4,0.4s-0.2,0.4-0.4,0.4c-0.2,0-0.3-0.1-0.4-0.2h-5.1
			c-0.2-0.1-0.3-0.2-0.5-0.3l0.1-0.1h5.5C184.1,69.4,184.2,69.3,184.4,69.3z M179.9,51.8c0.2,0,0.4,0.2,0.4,0.4
			c0,0.2-0.2,0.4-0.4,0.4c-0.2,0-0.4-0.2-0.4-0.4c0,0,0-0.1,0-0.1l-1.6-1.6h-2.3c-0.3-0.2-0.6-0.3-0.9-0.4h3.4c0.1,0,0.1,0,0.2,0.1
			l1.7,1.7C179.8,51.9,179.8,51.8,179.9,51.8z M172.7,40.9c0.2,0,0.4,0.2,0.4,0.4c0,0.2-0.2,0.4-0.4,0.4c-0.2,0-0.3-0.1-0.4-0.2
			h-0.6c0-0.2-0.1-0.3-0.1-0.4h0.8C172.4,40.9,172.6,40.9,172.7,40.9z M172.7,42.1c0.2,0,0.4,0.2,0.4,0.4S173,43,172.7,43
			c-0.2,0-0.3-0.1-0.4-0.2h-0.6v-0.4h0.6C172.4,42.2,172.6,42.1,172.7,42.1z M183.1,64.1c0.2,0,0.4,0.2,0.4,0.4s-0.2,0.4-0.4,0.4
			c-0.2,0-0.3-0.1-0.4-0.2h-1.1c0-0.1,0.1-0.3,0.1-0.4h0.9C182.8,64.2,182.9,64.1,183.1,64.1z M161.5,61.5c0.2,0,0.4,0.2,0.4,0.4
			c0,0.2-0.2,0.4-0.4,0.4c-0.2,0-0.3-0.1-0.4-0.2h-0.7v-0.4h0.7C161.2,61.6,161.3,61.5,161.5,61.5z M161.5,62.8
			c0.2,0,0.4,0.2,0.4,0.4c0,0.2-0.1,0.3-0.2,0.4v3.1c-0.1,0-0.3,0-0.4,0v-3.1c-0.1-0.1-0.2-0.2-0.2-0.4
			C161.1,63.1,161.3,62.8,161.5,62.8L161.5,62.8z M166.7,64.1c0.2,0,0.3,0.1,0.4,0.2h2.9c-0.1,0.2-0.2,0.3-0.3,0.4h-2.6
			c-0.1,0.1-0.2,0.2-0.4,0.2c-0.2,0-0.4-0.2-0.4-0.4S166.5,64.1,166.7,64.1z M165.4,64.1c0.2,0,0.4,0.2,0.4,0.4s-0.3,0.4-0.4,0.4
			c-0.1,0-0.1,0-0.1,0l-1,1v0.7c-0.1,0-0.3,0-0.4,0v-0.8c0-0.1,0-0.1,0.1-0.2l1-1c0,0,0,0,0-0.1S165.2,64.1,165.4,64.1L165.4,64.1z
			 M162.8,60.3c0.2,0,0.4,0.2,0.4,0.4s-0.2,0.4-0.4,0.4c-0.2,0-0.3-0.1-0.4-0.2h-1.9v-0.4h1.9C162.5,60.3,162.6,60.3,162.8,60.3z
			 M164.1,61.5c0.2,0,0.4,0.2,0.4,0.4c0,0.2-0.1,0.3-0.2,0.4v0.9c0,0.1,0,0.1-0.1,0.2l-1.2,1.2v2.1c-0.1,0-0.3,0-0.4,0v-2.2
			c0-0.1,0-0.1,0.1-0.2l1.2-1.2v-0.8c-0.1-0.1-0.2-0.2-0.2-0.4C163.7,61.8,163.9,61.5,164.1,61.5L164.1,61.5z M165.4,61.5
			c0.2,0,0.4,0.3,0.4,0.4c0,0.1,0,0.1,0,0.1l1,1h3.8c0,0.1-0.1,0.3-0.1,0.4h-3.7c-0.1,0-0.1,0-0.2-0.1l-1-1c0,0,0,0-0.1,0
			c-0.1,0-0.4-0.2-0.4-0.4C165,61.7,165.2,61.5,165.4,61.5L165.4,61.5z M166.7,59c0.2,0,0.3,0.1,0.4,0.2h0.8l1-1
			c0.1,0.1,0.2,0.2,0.4,0.3l-1.1,1.1c0,0-0.1,0.1-0.2,0.1h-0.9c-0.1,0.1-0.2,0.2-0.4,0.2c-0.2,0-0.4-0.2-0.4-0.4
			C166.3,59.2,166.5,59,166.7,59z M165.6,57.7c0.1,0.1,0.2,0.2,0.2,0.4c0,0.2-0.2,0.4-0.4,0.4c-0.2,0-0.4-0.2-0.4-0.4
			c0-0.2,0.1-0.3,0.2-0.4V57c0.1,0,0.3,0,0.4,0.1C165.6,57.1,165.6,57.7,165.6,57.7z M164.3,57.7c0.1,0.1,0.2,0.2,0.2,0.4
			c0,0.2-0.2,0.4-0.4,0.4c-0.2,0-0.4-0.2-0.4-0.4c0-0.2,0.1-0.3,0.2-0.4v-0.8c0.1,0,0.3,0,0.4,0V57.7z M162.8,59
			c0.2,0,0.4,0.2,0.4,0.4c0,0.2-0.2,0.4-0.4,0.4c-0.2,0-0.3-0.1-0.4-0.2h-1.9v-0.4h1.9C162.5,59,162.6,59,162.8,59z M167.6,38.3
			c0.2,0,0.4,0.2,0.4,0.4c0,0.2-0.1,0.3-0.2,0.4v1.1h-0.4v-1.1c-0.1-0.1-0.2-0.2-0.2-0.4C167.1,38.5,167.3,38.3,167.6,38.3z
			 M161.1,44.7c0.2,0,0.4,0.2,0.4,0.4c0,0.2-0.1,0.3-0.2,0.4v2.6h-0.4v-2.6c-0.1-0.1-0.2-0.2-0.2-0.4
			C160.7,44.9,160.9,44.7,161.1,44.7z M190.9,65.4c0.2,0,0.4,0.2,0.4,0.4s-0.2,0.4-0.4,0.4c-0.2,0-0.3-0.1-0.4-0.2h-1.8
			c-0.1,0.1-0.2,0.2-0.4,0.2c-0.2,0-0.4-0.2-0.4-0.4s0.2-0.4,0.4-0.4c0.2,0,0.3,0.1,0.4,0.2h1.8C190.6,65.5,190.7,65.4,190.9,65.4z
			 M190.9,64.1c0.2,0,0.4,0.2,0.4,0.4s-0.2,0.4-0.4,0.4c-0.2,0-0.3-0.1-0.4-0.2h-0.9c-0.1,0-0.1,0-0.2-0.1l-2.5-2.5h-4.7
			c0-0.1,0-0.3,0-0.4l0,0h4.8c0.1,0,0.1,0,0.2,0.1l2.5,2.5h0.8C190.6,64.2,190.7,64.1,190.9,64.1L190.9,64.1z M190.9,62.8
			c0.2,0,0.4,0.2,0.4,0.4c0,0.2-0.2,0.4-0.4,0.4c-0.2,0-0.3-0.1-0.4-0.2h-0.9c-0.1,0-0.1,0-0.2-0.1l-2.5-2.5h-4.7c0-0.1,0-0.3,0-0.4
			h4.8c0.1,0,0.1,0,0.2,0.1l2.5,2.5h0.8C190.6,62.9,190.7,62.8,190.9,62.8L190.9,62.8z M190.9,61.5c0.2,0,0.4,0.2,0.4,0.4
			c0,0.2-0.2,0.4-0.4,0.4c-0.2,0-0.3-0.1-0.4-0.2h-0.9c-0.1,0-0.1,0-0.2-0.1l-2.5-2.5h-4.8c0-0.1,0-0.3-0.1-0.4h4.9
			c0.1,0,0.1,0,0.2,0.1l2.5,2.5h0.8C190.6,61.6,190.7,61.5,190.9,61.5L190.9,61.5z M187,65.4c0.2,0,0.4,0.2,0.4,0.4
			s-0.2,0.4-0.4,0.4c-0.2,0-0.4-0.2-0.4-0.4c0,0,0-0.1,0-0.1l-2.3-2.3H182c0-0.1,0.1-0.3,0.1-0.4h2.3c0.1,0,0.1,0,0.2,0.1l2.3,2.3
			C186.9,65.4,186.9,65.4,187,65.4z M172.7,43.4c0.2,0,0.4,0.2,0.4,0.4c0,0.2-0.1,0.3-0.2,0.4v2.1l1,1c0,0,0.1,0,0.1,0
			c0.2,0,0.4,0.2,0.4,0.4s-0.2,0.4-0.4,0.4c-0.2,0-0.4-0.2-0.4-0.4c0,0,0-0.1,0-0.1l-1-1c0,0-0.1-0.1-0.1-0.2v-2.2
			c-0.1-0.1-0.2-0.2-0.2-0.4C172.3,43.6,172.5,43.4,172.7,43.4z M190.9,43.4c0.2,0,0.4,0.2,0.4,0.4c0,0.2-0.2,0.4-0.4,0.4
			c-0.2,0-0.3-0.1-0.4-0.2H187c-0.1,0-0.1,0-0.2-0.1l-2.3-2.3c0,0-0.1,0-0.1,0c-0.2,0-0.4-0.2-0.4-0.4c0-0.2,0.2-0.4,0.4-0.4
			c0.2,0,0.4,0.2,0.4,0.4c0,0,0,0.1,0,0.1l2.3,2.3h3.4C190.6,43.5,190.7,43.4,190.9,43.4L190.9,43.4z M176.6,39.6c0,0,0.1,0,0.1,0
			l2.1-2.1c0,0,0-0.1,0-0.1c0-0.2,0.2-0.4,0.4-0.4c0.2,0,0.4,0.2,0.4,0.4c0,0.2-0.2,0.4-0.4,0.4c0,0-0.1,0-0.1,0l-2.1,2.1
			c0,0,0,0.1,0,0.1c0,0.2-0.2,0.4-0.4,0.4c-0.2,0-0.4-0.2-0.4-0.4S176.4,39.6,176.6,39.6z M174,48.6c0.2,0,0.3,0.1,0.4,0.2h3.4
			l1.2-1.2v-0.8c-0.1-0.1-0.2-0.2-0.2-0.4c0-0.2,0.2-0.4,0.4-0.4c0.2,0,0.4,0.2,0.4,0.4c0,0.2-0.1,0.3-0.2,0.4v0.9
			c0,0.1,0,0.1-0.1,0.2l-1.3,1.3c0,0-0.1,0.1-0.2,0.1h-3.5c-0.1,0.1-0.2,0.2-0.4,0.2c-0.2,0-0.4-0.2-0.4-0.4S173.8,48.6,174,48.6z
			 M185.7,39.6c0.2,0,0.4,0.2,0.4,0.4c0,0.2-0.2,0.4-0.4,0.4c-0.2,0-0.3-0.1-0.4-0.2h-2.1l-1.2,1.2v0.8c0.1,0.1,0.2,0.2,0.2,0.4
			c0,0.2-0.2,0.4-0.4,0.4c-0.2,0-0.4-0.2-0.4-0.4c0-0.2,0.1-0.3,0.2-0.4v-0.9c0-0.1,0-0.1,0.1-0.2l1.3-1.3c0,0,0.1-0.1,0.2-0.1h2.2
			C185.4,39.6,185.5,39.6,185.7,39.6L185.7,39.6z M174,34.4c0.2,0,0.4,0.2,0.4,0.4s-0.2,0.4-0.4,0.4c-0.2,0-0.3-0.1-0.4-0.2h-4.4
			c-0.1,0.1-0.2,0.2-0.4,0.2c-0.2,0-0.4-0.2-0.4-0.4c0-0.2,0.2-0.4,0.4-0.4c0.2,0,0.3,0.1,0.4,0.2h4.4
			C173.7,34.5,173.9,34.4,174,34.4z M175.3,34.4c0.2,0,0.4,0.2,0.4,0.4c0,0.2-0.1,0.3-0.2,0.4v0.9c0,0.1,0,0.1-0.1,0.2l-1.3,1.3
			c0,0-0.1,0.1-0.2,0.1h-3.1l-1.8,1.8v0.7h-0.4v-0.8c0-0.1,0-0.1,0.1-0.2l1.9-1.9c0,0,0.1-0.1,0.2-0.1h3.1l1.2-1.2v-0.8
			c-0.1-0.1-0.2-0.2-0.2-0.4C174.9,34.6,175.1,34.4,175.3,34.4L175.3,34.4z M170.2,35.7c0.2,0,0.4,0.2,0.4,0.4
			c0,0.2-0.2,0.4-0.4,0.4c0,0-0.1,0-0.1,0l-1,1c0,0-0.1,0.1-0.2,0.1h-0.9c-0.1,0.1-0.2,0.2-0.4,0.2c-0.2,0-0.4-0.2-0.4-0.4
			s0.2-0.4,0.4-0.4c0.2,0,0.3,0.1,0.4,0.2h0.8l1-1c0,0,0-0.1,0-0.1C169.7,35.9,169.9,35.7,170.2,35.7L170.2,35.7z M134.4,76.2
			L134.4,76.2L134.4,76.2L134.4,76.2L134.4,76.2L134.4,76.2L134.4,76.2L134.4,76.2L134.4,76.2L134.4,76.2l0,0.1l0,0l0,0l0,0l0,0l0,0
			l0,0l0,0l0,0l0,0l0,0l0,0l0,0l0,0l0,0l0,0l0,0l0,0l0,0l0,0l0,0l0,0l0,0l0,0l0,0l0,0l0,0l0,0l0,0l0,0l0,0l0,0l0,0l0,0l0,0l0,0l0,0
			l0,0l0,0l0,0l0,0l0,0l0,0l0,0l0,0h0l0,0l0,0l0,0l0,0l0,0l0,0l0,0l0,0l0,0l0,0l0,0l0,0l0,0l0,0l0,0h0l0,0l0,0h0l0,0l0,0l0,0l0,0
			l0,0l0,0l0,0l0,0l0,0l0,0h0l0,0h0l0,0l0,0l0,0l0,0l0,0l0,0l0,0l0,0l0,0l0,0l0,0l0,0l0,0l0,0l0,0l0,0l0,0l0,0l0,0l0,0l0,0l0,0l0,0
			l0,0l0,0l0,0l0,0l0,0l0,0l0,0l0,0l0,0l0,0l0,0l0,0l0,0l0,0l0,0l0,0l0,0l0,0l0,0l0,0l0,0l0,0l0,0l0,0l0,0l0,0l0,0l0,0l0,0l0,0l0,0
			l0,0l0,0v0v-1.3c0-0.1,0-0.2,0.1-0.3l1.3-1.3c0.1-0.1,0.2-0.1,0.3-0.1l2.6,0c0.1,0,0.2,0,0.3,0.1l2.5,2.5h8v0.9h-8.2
			c-0.1,0-0.2,0-0.3-0.1l-2.5-2.5h-2.2l-1,1L134.4,76.2L134.4,76.2z M162.4,77.1L162.4,77.1L162.4,77.1L162.4,77.1L162.4,77.1
			L162.4,77.1L162.4,77.1L162.4,77.1L162.4,77.1l0.1,0l0,0l0,0l0,0l0,0l0,0l0,0l0,0l0,0l0,0l0,0l0,0l0,0l0,0l0,0l0,0l0,0l0,0l0,0
			l0,0l0,0l0,0l0,0l0,0l0,0l0,0l0,0l0,0l0,0l0,0l0,0l0,0l0,0l0,0l0,0l0,0l0,0l0,0l0,0l0,0l0,0l0,0l0,0l0,0l0,0l0,0l0,0l0,0l0,0l0,0
			l0,0l0,0l0,0v0l0,0l0,0l0,0l0,0l0,0l0,0l0,0l0,0l0,0l0,0l0,0l0,0l0,0l0,0l0,0l0,0l0,0l0,0l0,0v0l0,0l0,0l0,0l0,0l0,0l0,0l0,0l0,0
			l0,0l0,0l0,0l0,0l0,0l0,0l0,0l0,0l0,0l0,0l0,0v0l0,0l0,0l0,0l0,0l0,0l0,0l0,0l0,0l0,0l0,0v0l0,0l0,0l0,0l0,0l0,0l0,0l0,0l0,0l0,0
			l0,0l0,0h-1.9v-0.9L162.4,77.1L162.4,77.1z M166.7,61.1L166.7,61.1L166.7,61.1L166.7,61.1L166.7,61.1L166.7,61.1L166.7,61.1
			L166.7,61.1L166.7,61.1L166.7,61.1l-0.1,0l0,0l0,0l0,0l0,0l0,0l0,0l0,0l0,0l0,0h0l0,0l0,0l0,0l0,0l0,0l0,0l0,0l0,0l0,0l0,0v0l0,0
			l0,0l0,0l0,0l0,0l0,0l0,0l0,0l0,0l0,0l0,0l0,0l0,0l0,0l0,0l0,0l0,0l0,0l0,0l0,0l0,0l0,0l0,0l0,0l0,0l0,0l0,0l0,0l0,0l0,0l0,0l0,0
			l0,0l0,0l0,0l0,0l0,0l0,0l0,0l0,0v0l0,0l0,0l0,0l0,0l0,0l0,0l0,0l0,0l0,0l0,0l0,0l0,0l0,0l0,0l0,0l0,0l0,0l0,0l0,0l0,0l0,0l0,0
			l0,0l0,0l0,0l0,0l0,0l0,0l0,0l0,0l0,0l0,0l0,0l0,0l0,0l0,0l0,0l0,0l0,0v0l0,0l0,0l0,0l0,0l0,0l0,0l0,0l0,0l0,0l0,0l0,0l0,0l0,0
			l0,0l0,0h0l0,0l0,0l0,0l0,0l0,0l0,0l0,0l0,0l0,0l0,0l0,0l0,0l0,0l0,0l0,0l0,0l0,0l0,0l0,0l0,0h2.4l0.9-0.9
			c0.2,0.3,0.3,0.5,0.4,0.8l-0.8,0.8c-0.1,0.1-0.2,0.1-0.3,0.1L166.7,61.1L166.7,61.1z M191.7,67.2L191.7,67.2L191.7,67.2
			L191.7,67.2L191.7,67.2L191.7,67.2L191.7,67.2L191.7,67.2L191.7,67.2L191.7,67.2l0-0.1l0,0v0l0,0l0,0l0,0l0,0l0,0l0,0l0,0l0,0l0,0
			l0,0l0,0v0l0,0l0,0l0,0l0,0l0,0l0,0l0,0l0,0l0,0l0,0l0,0l0,0l0,0l0,0l0,0l0,0l0,0l0,0l0,0l0,0l0,0l0,0l0,0l0,0v0l0,0l0,0l0,0l0,0
			l0,0l0,0l0,0l0,0l0,0l0,0l0,0l0,0l0,0l0,0l0,0l0,0l0,0l0,0l0,0l0,0l0,0l0,0l0,0l0,0l0,0l0,0l0,0l0,0l0,0l0,0l0,0l0,0l0,0l0,0l0,0
			l0,0l0,0l0,0l0,0l0,0l0,0h0l0,0l0,0l0,0l0,0l0,0l0,0l0,0v0l0,0l0,0l0,0l0,0l0,0l0,0l0,0l0,0l0,0l0,0l0,0l0,0l0,0l0,0l0,0l0,0l0,0
			l0,0l0,0l0,0l0,0l0,0l0,0l0,0v0l0,0l0,0l0,0l0,0l0,0l0,0l0,0l0,0l0,0l0,0l0,0v0l0,0l0,0l0,0l0,0l0,0l0,0l0,0l0,0l0,0l0,0v0l0,0
			v1.3c0,0.1,0,0.2-0.1,0.3l-1.3,1.3c-0.1,0.1-0.2,0.1-0.3,0.1h-2.6c-0.1,0-0.2,0-0.3-0.1l-2.5-2.5h-5.3c0.2-0.3,0.4-0.5,0.5-0.8
			l0-0.1h4.9c0.1,0,0.2,0,0.3,0.1l2.5,2.5h2.2l1-1L191.7,67.2L191.7,67.2z M150.3,26.4l1.6-0.4c0.3-0.1,0.6-0.1,0.7-0.1
			c0.2,0,0.3,0,0.5,0.1c0.1,0.1,0.3,0.1,0.4,0.3c0.1,0.1,0.2,0.3,0.2,0.4c0,0.2,0,0.4,0,0.6c-0.1,0.2-0.2,0.3-0.3,0.4
			c0.3,0,0.5,0.1,0.6,0.2c0.2,0.1,0.3,0.3,0.3,0.6c0,0.2,0,0.4,0,0.6c0,0.2-0.1,0.4-0.3,0.5c-0.1,0.1-0.3,0.2-0.5,0.3
			c-0.1,0-0.5,0.1-1,0.3l-1.4,0.3L150.3,26.4L150.3,26.4z M163,30.5c11.4,0,21.7,4.6,29.1,12.1s12.1,17.7,12.1,29.1
			c0,11.4-4.6,21.7-12.1,29.1s-17.7,12.1-29.1,12.1c-11.4,0-21.7-4.6-29.1-12.1c-7.5-7.5-12.1-17.7-12.1-29.1
			c0-11.4,4.6-21.7,12.1-29.1C141.4,35.1,151.7,30.5,163,30.5z M163,22.1c13.7,0,26.1,5.5,35.1,14.5s14.5,21.4,14.5,35.1
			c0,13.7-5.5,26.1-14.5,35.1s-21.4,14.5-35.1,14.5c-13.7,0-26.1-5.5-35.1-14.5s-14.5-21.4-14.5-35.1c0-13.7,5.5-26.1,14.5-35.1
			S149.4,22.1,163,22.1L163,22.1z M197.8,36.9c-8.9-8.9-21.2-14.4-34.8-14.4c-13.6,0-25.9,5.5-34.7,14.4
			c-8.9,8.9-14.4,21.2-14.4,34.7c0,13.6,5.5,25.9,14.4,34.8c8.9,8.9,21.2,14.4,34.7,14.4c13.6,0,25.9-5.5,34.8-14.4
			c8.9-8.9,14.4-21.2,14.4-34.8C212.2,58.1,206.7,45.8,197.8,36.9z M163,19.7c14.3,0,27.3,5.8,36.7,15.2
			c9.4,9.4,15.2,22.4,15.2,36.7c0,14.3-5.8,27.3-15.2,36.7c-9.4,9.4-22.4,15.2-36.7,15.2c-14.3,0-27.3-5.8-36.7-15.2
			c-9.4-9.4-15.2-22.4-15.2-36.7c0-14.3,5.8-27.3,15.2-36.7C135.7,25.5,148.7,19.7,163,19.7z M198.6,36.2
			c-9.1-9.1-21.6-14.7-35.5-14.7c-13.9,0-26.4,5.6-35.5,14.7s-14.7,21.6-14.7,35.5c0,13.9,5.6,26.4,14.7,35.5
			c9.1,9.1,21.6,14.7,35.5,14.7c13.9,0,26.4-5.6,35.5-14.7c9.1-9.1,14.7-21.6,14.7-35.5C213.3,57.8,207.6,45.3,198.6,36.2
			L198.6,36.2z M151.2,26.9l0.2,0.9l0.5-0.1c0.3-0.1,0.5-0.1,0.6-0.1c0.1,0,0.2-0.1,0.3-0.2c0.1-0.1,0.1-0.2,0-0.3
			c0-0.1-0.1-0.2-0.2-0.3c-0.1-0.1-0.2-0.1-0.3-0.1c-0.1,0-0.3,0.1-0.7,0.1C151.7,26.8,151.2,26.9,151.2,26.9z M151.6,28.5l0.2,1.1
			l0.8-0.2c0.3-0.1,0.5-0.1,0.5-0.2c0.1-0.1,0.2-0.1,0.3-0.2c0.1-0.1,0.1-0.2,0-0.4c0-0.1-0.1-0.2-0.2-0.3c-0.1-0.1-0.2-0.1-0.3-0.1
			c-0.1,0-0.4,0-0.7,0.1L151.6,28.5L151.6,28.5z M155.4,29.5l-0.7-4.1l0.8-0.1l0.7,4.1L155.4,29.5L155.4,29.5z M158.1,29.1l-0.4-3.4
			l-1.2,0.2l-0.1-0.7l3.2-0.4l0.1,0.7l-1.2,0.2l0.4,3.4L158.1,29.1L158.1,29.1z M163.4,27.3l0.8,0.2c-0.1,0.5-0.3,0.8-0.6,1
			c-0.3,0.2-0.6,0.3-1.1,0.4c-0.5,0-1-0.2-1.4-0.5c-0.4-0.4-0.5-0.9-0.6-1.5c0-0.7,0.1-1.2,0.5-1.6c0.3-0.4,0.8-0.6,1.4-0.6
			c0.5,0,0.9,0.1,1.2,0.4c0.2,0.2,0.3,0.4,0.4,0.7l-0.8,0.2c-0.1-0.2-0.2-0.4-0.3-0.5c-0.2-0.1-0.3-0.2-0.6-0.2
			c-0.3,0-0.6,0.1-0.7,0.3c-0.2,0.2-0.3,0.6-0.3,1.1c0,0.5,0.1,0.9,0.3,1.1c0.2,0.2,0.4,0.3,0.7,0.3c0.2,0,0.4-0.1,0.6-0.2
			C163.2,27.8,163.3,27.6,163.4,27.3z M165.1,26.8c0-0.4,0.1-0.8,0.3-1c0.1-0.2,0.3-0.4,0.4-0.5c0.2-0.2,0.4-0.3,0.6-0.3
			c0.3-0.1,0.6-0.1,0.9-0.1c0.6,0,1.1,0.3,1.4,0.7c0.3,0.4,0.5,0.9,0.4,1.6c-0.1,0.7-0.3,1.2-0.7,1.5c-0.4,0.3-0.9,0.5-1.5,0.5
			c-0.6,0-1.1-0.3-1.4-0.7C165.2,28,165,27.4,165.1,26.8z M165.9,26.8c0,0.5,0,0.8,0.2,1.1c0.2,0.3,0.5,0.4,0.8,0.4
			c0.3,0,0.6-0.1,0.8-0.3c0.2-0.2,0.4-0.6,0.4-1c0-0.5,0-0.8-0.2-1.1c-0.2-0.2-0.5-0.4-0.8-0.4c-0.3,0-0.6,0.1-0.9,0.3
			C166.1,26,166,26.4,165.9,26.8L165.9,26.8z M169.7,29.3l0.7-4.1l0.8,0.1l-0.7,4.1L169.7,29.3z M171.4,29.6l0.9-4l0.8,0.2l1,3.1
			l0.6-2.7l0.8,0.2l-0.9,4l-0.8-0.2l-1-3l-0.6,2.6L171.4,29.6L171.4,29.6z M178.4,30.7c0.3,0.1,0.7,0,0.8-0.3c0.1-0.3,0-0.7-0.3-0.8
			c-0.3-0.1-0.7,0-0.8,0.3C178,30.2,178.1,30.6,178.4,30.7L178.4,30.7z M180.9,32.7c0.2,0.1,0.5,0.3,0.8,0.5
			c0.7,0.3,1.3,0.4,1.8,0.3c0.5-0.2,0.9-0.5,1.2-1.1c0.3-0.6,0.3-1,0.1-1.5c-0.2-0.4-0.5-0.8-1.2-1.1c-0.4-0.2-0.7-0.3-1-0.4
			L180.9,32.7L180.9,32.7z M183,29.8c0.1,0,0.3,0.1,0.5,0.2c0.9,0.5,1.1,1.2,0.7,2c-0.5,0.9-1.3,1.2-2.2,0.7
			c-0.2-0.1-0.3-0.2-0.4-0.3C181.6,32.5,183,29.8,183,29.8z M186.4,31.2l-1.9,3.4l0.4,0.3l1.9-3.4L186.4,31.2z M189.3,35.2l-1.1-0.7
			l-0.2,0.3l0.7,0.4l-0.6,1c-0.1,0-0.3-0.1-0.6-0.3c-0.8-0.5-0.9-1.3-0.4-2.1c0.5-0.8,1.4-1,2.2-0.5c0.3,0.2,0.5,0.4,0.6,0.6
			l0.3-0.3c-0.1-0.2-0.3-0.4-0.7-0.7c-1.1-0.7-2.2-0.4-2.8,0.6c-0.3,0.5-0.4,1.1-0.3,1.5c0.1,0.5,0.4,0.9,0.9,1.2
			c0.4,0.3,0.9,0.4,1.1,0.5C188.3,36.7,189.3,35.2,189.3,35.2z M191.3,34.4l-2.4,3l0.4,0.3l2.4-3L191.3,34.4z M190.6,38.8l0.4,0.3
			l2.3-2.6l0.9,0.8l0.3-0.3l-2.2-1.9l-0.3,0.3l0.9,0.8L190.6,38.8z M194.3,40.5l-0.5,1.2l0.4,0.4l1.7-3.7l-0.4-0.4l-3.6,1.9l0.4,0.4
			l1.1-0.6L194.3,40.5z M193.6,39.4l1-0.5c0.2-0.1,0.4-0.3,0.6-0.4l0,0c-0.1,0.2-0.2,0.4-0.3,0.6l-0.5,1.1
			C194.5,40.2,193.6,39.4,193.6,39.4z M194.6,42.6l1.4,1.6l0.3-0.3l-1.1-1.3l2.6-2.3l-0.3-0.4L194.6,42.6z M198.4,45.9
			c0.2,0.3,0.6,0.3,0.8,0.1c0.3-0.2,0.3-0.6,0.1-0.8c-0.2-0.3-0.6-0.3-0.8-0.1C198.3,45.2,198.2,45.6,198.4,45.9L198.4,45.9
			L198.4,45.9z M199.4,48.9c0.1,0.2,0.2,0.5,0.4,0.8c0.4,0.7,0.8,1.1,1.3,1.2c0.5,0.1,1,0,1.6-0.3c0.5-0.3,0.8-0.7,0.9-1.2
			c0.1-0.5,0-1-0.4-1.6c-0.2-0.3-0.4-0.6-0.6-0.9L199.4,48.9z M202.7,47.6c0.1,0.1,0.2,0.3,0.3,0.5c0.5,0.9,0.3,1.7-0.5,2.1
			c-0.9,0.5-1.7,0.3-2.2-0.6c-0.1-0.2-0.2-0.3-0.2-0.5L202.7,47.6z M204.2,53.3l-0.6-1.4l1.1-0.5l0.7,1.5l0.4-0.2l-0.9-1.9l-3.5,1.6
			l0.9,2l0.4-0.2l-0.7-1.5l1.3-0.6l0.6,1.4L204.2,53.3z M204,57.3c-0.2-0.2-0.3-0.4-0.5-0.7c-0.3-0.9,0-1.6,0.9-1.9
			c0.9-0.4,1.7,0,2,0.8c0.1,0.3,0.2,0.6,0.1,0.8l0.4,0c0-0.1,0-0.5-0.2-0.9c-0.4-1.1-1.5-1.6-2.6-1.1c-1.2,0.5-1.5,1.5-1.1,2.5
			c0.2,0.4,0.4,0.8,0.5,0.9L204,57.3L204,57.3z M206.5,59.6l-0.4-1.4l1.2-0.3l0.4,1.5l0.4-0.1l-0.6-2l-3.7,1.1l0.6,2.1l0.4-0.1
			l-0.5-1.6l1.3-0.4l0.4,1.4L206.5,59.6z M204.7,61.6l1.6-0.4c0.6-0.1,1.1-0.3,1.5-0.4l0,0c-0.4,0.3-0.7,0.6-1.1,1l-1.6,1.6l0.1,0.5
			l3.8-0.9l-0.1-0.5l-1.6,0.4c-0.6,0.1-1,0.3-1.5,0.4l0,0c0.3-0.3,0.7-0.6,1.1-1l1.6-1.6l-0.1-0.5l-3.8,0.9
			C204.6,61.1,204.7,61.6,204.7,61.6z M205.5,65.7l0.1,0.5l3.4-0.4l0.1,1.2l0.4-0.1l-0.4-2.8l-0.4,0.1l0.1,1.2L205.5,65.7z
			 M205.8,67.9l0,0.5l1.7-0.1l0,0.5c0,0.5-0.2,0.7-0.7,0.8c-0.5,0.1-0.8,0.3-0.9,0.3l0,0.5c0.1-0.1,0.5-0.2,1-0.4
			c0.4-0.1,0.7-0.3,0.7-0.6l0,0c0.2,0.4,0.5,0.7,1,0.7c0.3,0,0.6-0.2,0.7-0.4c0.2-0.3,0.3-0.6,0.2-1.1c0-0.3-0.1-0.7-0.2-1
			L205.8,67.9z M209.3,68.1c0,0.1,0.1,0.2,0.1,0.5c0,0.5-0.1,0.9-0.6,0.9c-0.4,0-0.8-0.3-0.8-0.8l0-0.5L209.3,68.1z M207.1,73.2
			l-1.2,0.4l0,0.5l3.9-1.2l0-0.6l-3.8-1.4l0,0.5l1.2,0.4L207.1,73.2L207.1,73.2z M207.5,71.9l1.1,0.4c0.2,0.1,0.5,0.1,0.7,0.2v0
			c-0.2,0.1-0.5,0.1-0.7,0.2l-1.1,0.4L207.5,71.9L207.5,71.9z M205.8,74.8l-0.2,2.2l0.4,0l0.1-1.7l3.4,0.3l0-0.5
			C209.7,75.1,205.8,74.8,205.8,74.8z M209.4,78.1l-3.8-0.5l-0.1,0.5l3.8,0.5L209.4,78.1z M205.3,78.8l-0.5,2.8l0.4,0.1l0.4-2.1l0,0
			l2.7,2.7l0.3,0.1l0.5-2.6l-0.4-0.1l-0.3,1.9l0,0l-2.7-2.7L205.3,78.8L205.3,78.8z M206.2,84.8l0.4-1.4l1.2,0.3l-0.4,1.5l0.4,0.1
			l0.6-2l-3.7-1.1l-0.6,2.1l0.4,0.1l0.5-1.6l1.3,0.4l-0.4,1.4L206.2,84.8L206.2,84.8z M203.8,85.2c-0.1,0.2-0.2,0.5-0.4,0.8
			c-0.3,0.7-0.3,1.3-0.1,1.8c0.2,0.5,0.6,0.8,1.2,1.1c0.6,0.2,1.1,0.2,1.5,0c0.4-0.2,0.8-0.6,1-1.3c0.1-0.4,0.2-0.7,0.3-1
			C207.4,86.6,203.8,85.2,203.8,85.2z M206.9,86.9c0,0.1-0.1,0.3-0.2,0.6c-0.4,1-1.1,1.3-2,0.9c-1-0.4-1.3-1.1-0.9-2.1
			c0.1-0.2,0.1-0.4,0.2-0.5C204,85.8,206.9,86.9,206.9,86.9z M202.3,91.1c-0.2,0.3,0,0.7,0.3,0.8c0.3,0.2,0.7,0,0.8-0.3
			c0.2-0.3,0-0.7-0.3-0.8C202.8,90.7,202.4,90.8,202.3,91.1L202.3,91.1L202.3,91.1z M200,93.4l-0.3,0.4l1.3,0.8
			c-0.1,0.1-0.2,0.2-0.2,0.3c-0.3,0.4-0.4,0.9-0.3,1.2c0.1,0.3,0.2,0.5,0.5,0.7c0.3,0.2,0.6,0.2,0.9,0.1c0.3-0.1,0.6-0.3,0.9-0.7
			c0.2-0.3,0.4-0.6,0.5-0.9C203.3,95.5,200,93.4,200,93.4z M202.7,95.7c0,0.1-0.1,0.2-0.2,0.4c-0.3,0.5-0.7,0.6-1.1,0.4
			c-0.4-0.3-0.5-0.8-0.2-1.3c0.1-0.1,0.2-0.3,0.3-0.3L202.7,95.7z M199,99l0.9-1.2l1,0.7l-0.9,1.3l0.3,0.2l1.2-1.7l-3.2-2.2
			l-1.3,1.8l0.3,0.2l1-1.4l1.1,0.8l-0.9,1.2C198.6,98.8,199,99,199,99z M196.9,101.4l1-1.1l0.9,0.8l-1,1.2l0.3,0.3l1.4-1.6l-2.9-2.5
			l-1.4,1.7l0.3,0.3l1.1-1.3l1.1,0.9l-1,1.1L196.9,101.4z M194.6,100.7l-0.3,0.4l1.2,1.2l-0.3,0.3c-0.3,0.3-0.6,0.3-1.1,0
			c-0.4-0.3-0.7-0.4-0.8-0.5l-0.4,0.4c0.2,0,0.5,0.2,1,0.5c0.4,0.2,0.7,0.3,1,0.1l0,0c-0.2,0.4-0.2,0.9,0.2,1.2
			c0.2,0.2,0.5,0.3,0.7,0.3c0.3,0,0.6-0.2,1-0.6c0.2-0.2,0.5-0.5,0.6-0.8L194.6,100.7L194.6,100.7z M196.8,103.4
			c0,0.1-0.1,0.2-0.3,0.4c-0.4,0.4-0.8,0.5-1.1,0.1c-0.3-0.3-0.3-0.8,0.1-1.1l0.4-0.4L196.8,103.4L196.8,103.4z M190.7,104.4
			l-0.4,0.3l2.3,2.6l-0.9,0.8l0.3,0.3l2.2-1.9l-0.3-0.3L193,107L190.7,104.4L190.7,104.4z M187.8,106.6c-0.8,0.6-1,1.6-0.3,2.7
			c0.7,0.9,1.7,1.2,2.6,0.6c0.8-0.6,1-1.7,0.3-2.7C189.7,106.2,188.7,106,187.8,106.6L187.8,106.6L187.8,106.6z M188,106.9
			c0.6-0.5,1.4-0.1,1.9,0.6c0.5,0.7,0.6,1.6-0.1,2c-0.7,0.5-1.5,0.1-1.9-0.6C187.4,108.3,187.4,107.4,188,106.9L188,106.9z
			 M184.3,109l-0.4,0.2l0.7,1.4c-0.1,0-0.2,0.1-0.4,0.2c-0.4,0.2-0.8,0.5-0.9,0.9c-0.1,0.3-0.1,0.6,0.1,0.9c0.2,0.3,0.4,0.5,0.7,0.6
			c0.3,0.1,0.7,0,1.1-0.2c0.4-0.2,0.6-0.4,0.8-0.5L184.3,109L184.3,109z M185.4,112.3c-0.1,0.1-0.2,0.2-0.4,0.3
			c-0.5,0.3-0.9,0.2-1.2-0.3c-0.2-0.5,0-0.9,0.5-1.2c0.1-0.1,0.3-0.1,0.4-0.2L185.4,112.3z M180.5,113.3l1.4-0.6l0.5,1.1l-1.5,0.7
			l0.2,0.4l1.9-0.9l-1.6-3.5l-2,0.9l0.2,0.4l1.5-0.7l0.6,1.3l-1.4,0.6L180.5,113.3L180.5,113.3z M177.7,114.4l1.4-0.6l0.4,1.1
			l-1.5,0.6l0.2,0.4l2-0.8l-1.4-3.6l-2,0.8l0.2,0.4l1.6-0.6l0.5,1.3l-1.4,0.6L177.7,114.4L177.7,114.4z M176,112.6l-0.5,0.1l0.5,1.6
			l-0.5,0.1c-0.4,0.1-0.7,0-1-0.5c-0.2-0.4-0.4-0.7-0.5-0.8l-0.5,0.1c0.1,0.1,0.3,0.5,0.6,0.9c0.2,0.4,0.5,0.6,0.8,0.6l0,0
			c-0.3,0.2-0.6,0.7-0.4,1.1c0.1,0.3,0.3,0.5,0.5,0.6c0.3,0.1,0.7,0.1,1.2,0c0.3-0.1,0.7-0.2,0.9-0.3L176,112.6L176,112.6z
			 M176.4,116.1c-0.1,0-0.2,0.1-0.5,0.2c-0.5,0.1-0.9,0-1.1-0.4c-0.1-0.4,0.1-0.8,0.6-0.9l0.5-0.1L176.4,116.1z M171,114.7
			c-0.3,0.1-0.5,0.4-0.5,0.7c0.1,0.3,0.4,0.5,0.7,0.5c0.3-0.1,0.6-0.4,0.5-0.7C171.6,114.9,171.3,114.7,171,114.7L171,114.7z
			 M167.8,114.3c-0.2,0-0.5,0-1,0c-0.8,0.1-1.2,0.2-1.5,0.5c-0.2,0.2-0.4,0.5-0.3,0.9c0,0.5,0.4,0.8,0.8,0.9l0,0
			c-0.4,0.2-0.6,0.5-0.6,0.9c0,0.4,0.2,0.6,0.5,0.7c0.3,0.1,0.6,0.2,1.2,0.1c0.4,0,0.9-0.1,1.1-0.2L167.8,114.3L167.8,114.3z
			 M167.2,117.6c-0.1,0-0.2,0-0.4,0.1c-0.4,0-0.6-0.1-0.7-0.4c0-0.3,0.2-0.5,0.7-0.5l0.3,0L167.2,117.6z M167.1,116.1l-0.3,0
			c-0.4,0-0.8-0.1-0.8-0.5c0-0.4,0.3-0.6,0.7-0.6c0.1,0,0.3,0,0.3,0L167.1,116.1L167.1,116.1z M163.6,114.5l-0.9,0l0.1,3.1l-1.1,0
			l0,0.7l3-0.1l0-0.7l-1,0C163.7,117.7,163.6,114.5,163.6,114.5z M158.5,115.1c0.2-0.1,0.5-0.1,0.7-0.1c0.8,0.1,1.2,0.6,1.1,1.3
			c-0.1,0.9-0.6,1.2-1.3,1.2c-0.3,0-0.6-0.1-0.7-0.2l-0.2,0.7c0.1,0.1,0.5,0.2,0.9,0.2c1.2,0.1,2.2-0.6,2.3-1.9
			c0.1-1.1-0.5-2-1.9-2.1c-0.5,0-0.8,0-1,0.1L158.5,115.1L158.5,115.1z M154.9,114.7c-0.3-0.1-0.6,0.2-0.7,0.5
			c-0.1,0.3,0.2,0.6,0.5,0.7c0.3,0.1,0.6-0.2,0.7-0.5C155.5,115.1,155.2,114.8,154.9,114.7L154.9,114.7z M152.1,113.1
			c-0.2-0.1-0.5-0.2-0.9-0.3c-0.7-0.2-1.4-0.2-1.8,0.1c-0.4,0.2-0.8,0.7-0.9,1.3c-0.2,0.6-0.1,1.1,0.2,1.5c0.2,0.4,0.7,0.7,1.4,0.9
			c0.4,0.1,0.7,0.2,1.1,0.2L152.1,113.1L152.1,113.1z M150.6,116.3c-0.1,0-0.3,0-0.6-0.1c-1-0.3-1.4-1-1.1-1.9c0.3-1,1-1.4,2-1.1
			c0.2,0.1,0.4,0.1,0.5,0.2L150.6,116.3L150.6,116.3z M146.9,115.6l1.4-3.6l-0.5-0.2l-1.4,3.6L146.9,115.6L146.9,115.6z
			 M143.4,112.1l1.2,0.5l0.2-0.4l-0.7-0.3l0.5-1.1c0.1,0,0.4,0,0.7,0.2c0.8,0.4,1.1,1.1,0.7,2c-0.4,0.9-1.2,1.2-2.1,0.8
			c-0.4-0.2-0.6-0.3-0.7-0.5l-0.3,0.3c0.1,0.1,0.4,0.4,0.8,0.6c1.2,0.5,2.3,0.1,2.7-1c0.2-0.5,0.3-1.1,0.1-1.5
			c-0.2-0.5-0.6-0.8-1.1-1.1c-0.5-0.2-0.9-0.3-1.2-0.3L143.4,112.1z M141.7,113.3l1.8-3.4l-0.5-0.2l-1.8,3.4L141.7,113.3z
			 M141.5,108.7l-0.4-0.3l-1.7,3l-1-0.6l-0.2,0.4l2.5,1.4l0.2-0.4l-1-0.6L141.5,108.7L141.5,108.7z M137.6,107.7l0.4-1.2l-0.4-0.3
			l-1.2,3.9l0.5,0.3l3.3-2.4l-0.4-0.3l-1,0.8L137.6,107.7L137.6,107.7z M138.4,108.7l-1,0.7c-0.2,0.1-0.4,0.3-0.6,0.5l0,0
			c0.1-0.2,0.2-0.4,0.3-0.7l0.3-1.1L138.4,108.7z M136.9,105.7l-1.7-1.3l-0.3,0.3l1.3,1l-2.1,2.7l0.4,0.3L136.9,105.7z M132.6,103.1
			c-0.2-0.2-0.6-0.2-0.9,0c-0.2,0.2-0.2,0.6,0,0.9s0.6,0.2,0.9,0C132.9,103.7,132.8,103.4,132.6,103.1L132.6,103.1L132.6,103.1z
			 M131.1,100.3c-0.1-0.2-0.3-0.4-0.6-0.7c-0.5-0.6-1-0.9-1.5-0.9c-0.5,0-1,0.2-1.5,0.6c-0.5,0.4-0.7,0.9-0.7,1.3
			c0,0.5,0.2,1,0.7,1.5c0.3,0.3,0.5,0.6,0.8,0.8L131.1,100.3L131.1,100.3z M128.2,102.2c-0.1-0.1-0.3-0.2-0.4-0.4
			c-0.7-0.8-0.6-1.6,0.1-2.2c0.8-0.7,1.6-0.6,2.3,0.2c0.1,0.1,0.2,0.3,0.3,0.4C130.5,100.1,128.2,102.2,128.2,102.2z M125.6,96.9
			l0.9,1.2l-1,0.7l-0.9-1.3l-0.3,0.2l1.2,1.7l3.2-2.2l-1.3-1.8l-0.3,0.2l1,1.4l-1.1,0.8l-0.9-1.2C126,96.6,125.6,96.9,125.6,96.9z
			 M125.1,92.8c0.2,0.1,0.4,0.4,0.5,0.6c0.5,0.8,0.2,1.6-0.6,2.1c-0.9,0.5-1.7,0.3-2.1-0.5c-0.2-0.3-0.2-0.5-0.2-0.8l-0.4,0.1
			c0,0.1,0.1,0.5,0.3,0.9c0.6,1,1.7,1.3,2.8,0.7c1.1-0.6,1.3-1.7,0.7-2.6c-0.2-0.4-0.5-0.7-0.7-0.8L125.1,92.8L125.1,92.8z
			 M122.3,91l0.7,1.3l-1.1,0.6l-0.7-1.4l-0.4,0.2l1,1.9l3.4-1.8l-1-1.9l-0.4,0.2l0.8,1.5l-1.2,0.6l-0.7-1.3L122.3,91L122.3,91z
			 M123.7,88.7l-1.5,0.6c-0.6,0.2-1,0.4-1.5,0.6l0,0c0.3-0.3,0.6-0.7,0.9-1.1l1.4-1.9l-0.2-0.5l-3.6,1.4l0.2,0.4l1.5-0.6
			c0.6-0.2,1-0.4,1.5-0.6l0,0c-0.3,0.3-0.6,0.7-0.9,1.1l-1.4,1.9l0.2,0.5l3.6-1.4L123.7,88.7L123.7,88.7z M122.2,84.8l-0.2-0.5
			l-3.3,1.1l-0.4-1.1l-0.4,0.1l0.9,2.7l0.4-0.1l-0.4-1.1L122.2,84.8L122.2,84.8z M121.6,82.7l-0.1-0.5l-1.6,0.4l-0.1-0.5
			c-0.1-0.4,0.1-0.7,0.6-0.9c0.4-0.2,0.7-0.4,0.8-0.5l-0.1-0.5c-0.1,0.1-0.5,0.3-1,0.5c-0.4,0.2-0.6,0.4-0.6,0.7l0,0
			c-0.2-0.4-0.6-0.6-1.1-0.5c-0.3,0.1-0.5,0.2-0.6,0.5c-0.2,0.3-0.2,0.6-0.1,1.2c0.1,0.3,0.2,0.7,0.3,0.9
			C117.9,83.5,121.6,82.7,121.6,82.7z M118.1,83c0-0.1-0.1-0.2-0.2-0.5c-0.1-0.5,0-0.9,0.5-1c0.4-0.1,0.8,0.2,0.9,0.7l0.1,0.5
			L118.1,83z M119.4,77.7l1.2-0.6l-0.1-0.5l-3.7,1.8l0.1,0.6l4,0.8l-0.1-0.5l-1.3-0.2L119.4,77.7L119.4,77.7z M119.1,79l-1.2-0.2
			c-0.2,0-0.5-0.1-0.7-0.1l0,0c0.2-0.1,0.4-0.2,0.7-0.3l1.1-0.5L119.1,79L119.1,79z M120.4,75.9l-0.2-2.2l-0.4,0l0.1,1.7l-3.4,0.3
			l0,0.5L120.4,75.9L120.4,75.9z M116.3,73.2l3.9-0.1l0-0.5l-3.9,0.1L116.3,73.2z M120.2,71.8l0.1-2.8l-0.4,0l-0.1,2.2l0,0l-3.1-2.2
			l-0.3,0l-0.1,2.6l0.4,0l0-2l0,0l3.1,2.2L120.2,71.8L120.2,71.8z M118.2,66.1l-0.1,1.5l-1.2-0.1l0.1-1.6l-0.4,0l-0.2,2.1l3.9,0.3
			l0.2-2.2l-0.4,0l-0.1,1.7l-1.4-0.1l0.1-1.5C118.7,66.1,118.2,66.1,118.2,66.1z M120.6,65.4c0.1-0.2,0.1-0.5,0.2-0.9
			c0.1-0.7,0-1.4-0.2-1.8c-0.3-0.4-0.8-0.7-1.4-0.8c-0.6-0.1-1.1,0-1.5,0.3c-0.4,0.3-0.6,0.8-0.8,1.5c-0.1,0.4-0.1,0.8-0.1,1.1
			L120.6,65.4L120.6,65.4z M117.3,64.2c0-0.1,0-0.3,0.1-0.6c0.2-1,0.8-1.4,1.7-1.3c1,0.2,1.5,0.9,1.3,1.9c0,0.2-0.1,0.4-0.1,0.5
			L117.3,64.2L117.3,64.2z M121.1,59.2c0.1-0.3-0.1-0.7-0.4-0.7c-0.3-0.1-0.7,0.1-0.7,0.4c-0.1,0.3,0.1,0.7,0.4,0.7
			C120.7,59.7,121,59.5,121.1,59.2L121.1,59.2L121.1,59.2z M122.9,56.6l0.2-0.5l-1.5-0.6c0.1-0.1,0.1-0.2,0.2-0.4
			c0.2-0.5,0.2-0.9,0-1.3c-0.1-0.3-0.3-0.5-0.7-0.6c-0.3-0.1-0.6-0.1-0.9,0c-0.3,0.1-0.5,0.4-0.7,0.9c-0.1,0.4-0.2,0.7-0.3,0.9
			L122.9,56.6L122.9,56.6z M119.9,54.8c0-0.1,0.1-0.3,0.1-0.5c0.2-0.5,0.6-0.8,1-0.6c0.5,0.2,0.6,0.6,0.4,1.2
			c-0.1,0.2-0.1,0.3-0.2,0.4L119.9,54.8L119.9,54.8z M123.1,50.8l-0.7,1.3l-1.1-0.6l0.7-1.4l-0.4-0.2l-1,1.9l3.4,1.8l1-1.9l-0.4-0.2
			L124,53l-1.2-0.6l0.7-1.3C123.4,51,123.1,50.8,123.1,50.8z M124.5,48.1l-0.7,1.3l-1.1-0.6l0.8-1.4l-0.4-0.2l-1,1.8l3.4,1.9
			l1.1-1.9l-0.4-0.2l-0.8,1.5l-1.2-0.7l0.7-1.3C124.9,48.4,124.5,48.1,124.5,48.1z M127,48.4l0.3-0.4l-1.4-1l0.3-0.4
			c0.3-0.4,0.6-0.4,1.1-0.2c0.5,0.2,0.8,0.3,0.9,0.3l0.3-0.4c-0.2,0-0.5-0.2-1-0.4c-0.4-0.2-0.7-0.2-1,0l0,0c0.1-0.4,0-0.9-0.4-1.2
			c-0.2-0.2-0.5-0.2-0.8-0.2c-0.3,0.1-0.6,0.3-0.9,0.7c-0.2,0.3-0.4,0.6-0.5,0.8L127,48.4L127,48.4z M124.4,46
			c0-0.1,0.1-0.2,0.2-0.4c0.3-0.4,0.7-0.6,1.1-0.3c0.4,0.3,0.4,0.7,0.1,1.1l-0.3,0.4L124.4,46L124.4,46z M130.2,44.1l0.3-0.4
			l-2.6-2.3l0.8-0.9l-0.3-0.3l-1.9,2.2l0.3,0.3l0.8-0.9L130.2,44.1z M132.7,41.5c0.7-0.7,0.7-1.8-0.2-2.7c-0.8-0.8-1.9-0.9-2.6-0.1
			c-0.7,0.7-0.7,1.9,0.2,2.7C130.9,42.2,132,42.2,132.7,41.5L132.7,41.5z M132.4,41.2c-0.5,0.6-1.4,0.4-2-0.2
			c-0.6-0.6-0.9-1.4-0.3-2c0.6-0.6,1.4-0.3,2,0.2C132.7,39.8,133,40.6,132.4,41.2L132.4,41.2L132.4,41.2z M135.8,38.6l0.4-0.3
			l-1-1.2c0.1,0,0.2-0.1,0.3-0.2c0.4-0.3,0.6-0.7,0.7-1.1c0-0.3-0.1-0.6-0.3-0.8c-0.2-0.3-0.5-0.4-0.8-0.4c-0.3,0-0.7,0.1-1.1,0.4
			c-0.3,0.2-0.5,0.5-0.7,0.7L135.8,38.6L135.8,38.6z M134,35.5c0.1-0.1,0.2-0.2,0.3-0.3c0.4-0.3,0.9-0.4,1.2,0
			c0.3,0.4,0.2,0.9-0.3,1.2c-0.1,0.1-0.2,0.2-0.3,0.2L134,35.5L134,35.5z M138.8,33.6l-1.3,0.8l-0.7-1l1.3-0.9l-0.2-0.4l-1.8,1.1
			l2.1,3.3l1.8-1.2l-0.2-0.4l-1.4,0.9l-0.8-1.2L139,34L138.8,33.6L138.8,33.6z M141.4,32.1l-1.3,0.7l-0.6-1.1l1.4-0.8l-0.2-0.4
			l-1.8,1l1.9,3.4l1.9-1.1l-0.2-0.4l-1.5,0.8l-0.7-1.2l1.3-0.7L141.4,32.1L141.4,32.1z M143.4,33.6l0.4-0.2l-0.8-1.5l0.4-0.2
			c0.4-0.2,0.7-0.1,1,0.3c0.3,0.4,0.5,0.6,0.6,0.7l0.5-0.2c-0.1-0.1-0.4-0.4-0.7-0.8c-0.3-0.3-0.6-0.5-0.9-0.4l0,0
			c0.3-0.3,0.4-0.8,0.2-1.2c-0.1-0.3-0.4-0.5-0.6-0.5c-0.3-0.1-0.7,0-1.1,0.2c-0.3,0.2-0.6,0.4-0.8,0.5L143.4,33.6L143.4,33.6z
			 M142.2,30.3c0.1-0.1,0.2-0.2,0.4-0.3c0.5-0.2,0.9-0.2,1.1,0.2c0.2,0.4,0,0.8-0.4,1.1l-0.5,0.2L142.2,30.3z M147.9,30.6
			c0.3-0.1,0.5-0.5,0.3-0.8c-0.1-0.3-0.5-0.5-0.8-0.3c-0.3,0.1-0.5,0.5-0.3,0.8C147.2,30.6,147.6,30.7,147.9,30.6L147.9,30.6z
			 M161,86.9l-0.7,0l0,0c-0.1,0-0.2-0.1-0.2-0.2V74.8h0c0-0.1,0.1-0.2,0.2-0.2l0.6,0c1.9,0,3.9,0,5.8,0.1c1,0.1,2.1,0.2,3.1,0.5
			c1.1,0.3,2.1,0.8,2.8,1.5c0.1,0.1,0.2,0.2,0.2,0.2c0.9,1,1.4,2.4,1.4,3.8c0,1.4-0.5,2.9-1.4,3.8c-0.1,0.1-0.2,0.2-0.2,0.2
			c-0.6,0.6-1.4,1-2.2,1.3c-0.8,0.3-1.6,0.5-2.4,0.6C165.8,87,163.4,87,161,86.9z M165.4,67c-1.7,0.2-3.6,0.2-5.1,0.2l0,0
			c-0.1,0-0.2-0.1-0.2-0.2V56.7h0c0-0.1,0.1-0.2,0.2-0.2c0.5,0,1.1,0,1.6,0c0.5,0,1.1,0,1.6,0c1,0,2.2,0.1,3.3,0.4
			c1.1,0.3,2.2,0.7,3,1.5c0,0,0.1,0.1,0.1,0.1c0.8,0.8,1.2,2.1,1.2,3.4c0,1.3-0.4,2.5-1.2,3.4c0,0-0.1,0.1-0.1,0.1l0,0
			C168.8,66.3,167.2,66.8,165.4,67z"/>
	</g>
</g>
</svg>
