<?xml version="1.0" encoding="utf-8"?>
<!-- Generator: Adobe Illustrator 26.0.1, SVG Export Plug-In . SVG Version: 6.00 Build 0)  -->
<svg version="1.1" id="Слой_1" xmlns:xodm="http://www.corel.com/coreldraw/odm/2003"
	 xmlns="http://www.w3.org/2000/svg" xmlns:xlink="http://www.w3.org/1999/xlink" x="0px" y="0px" viewBox="0 0 238.1 150.2"
	 style="enable-background:new 0 0 238.1 150.2;" xml:space="preserve">
<style type="text/css">
	.st0{fill:none;stroke:#000000;stroke-width:0.75;stroke-miterlimit:10;}
</style>
<g id="Слой_x0020_1">
	<g id="_105553265908416">
		<g>
			<path class="st0" d="M4,35.1c1.1,0,2.1,0,3.3,0c0,0.9,0,1.7,0,2.7c0.5,0,0.8,0,1.2,0c0-1.3,0-2.5,0-4c-1.5,0-3-0.1-4.5-0.1
				c0-2.3,0-4.5,0-6.7c1,0,2,0,3.2,0c0,0.8,0,1.7,0,2.7c0.5,0,0.8,0.1,1.3,0.1c0.1-1.4,0-2.8,0.1-4.1c-1.5,0-3.1,0-4.6,0
				c0-2.3,0-4.5,0-6.8c1,0,2,0,3.2,0c0,0.8,0,1.6,0,2.7c0.5,0,0.8,0,1.3,0c0-1.3,0-2.5,0-4c-1.5,0-3,0-4.5,0c0-2.3,0-4.5,0-6.8
				c1,0,2,0,3.2,0c0,0.8,0,1.6,0,2.7c0.5,0,0.8,0.1,1.3,0.1c0-0.9,0.1-1.7,0.1-2.8c1.1,0,2.2-0.1,3.5-0.1c0-1.5,0-3.1,0-4.6
				c2.3,0,4.5,0,6.8,0c0,1,0,2,0,3.2c-0.8,0-1.7,0-2.7,0c0,0.5-0.1,0.8-0.1,1.4c1.4,0.1,2.7,0,4.1,0c0-1.5,0-3.1,0-4.6
				c2.3,0,4.5,0,6.7,0c0.2,1,0.1,2,0.1,3.3c-0.9,0-1.7,0-2.7,0c0,0.5,0,0.9,0,1.3c1.3,0,2.7,0,4,0c0-1.5,0-3,0-4.4
				c1-0.3,5.4-0.3,6.8-0.1c0,1,0,1.9,0,3.2c-0.9,0-1.7,0-2.7,0c0,0.5,0,0.9,0,1.3c0.4,0,0.7,0.1,1,0.1c1,0,1.9,0,3.1,0
				c0-1.6,0-3.1,0-4.6c2.3,0,4.5,0,6.7,0c0,1,0,2.1,0,3.3c-0.9,0-1.7,0-2.7,0c0,0.5,0,0.8,0,1.3c1.3,0.1,2.5,0.1,4,0
				c0-1.5,0-3,0-4.4c0.9-0.3,4.9-0.4,6.8-0.2c0.3,1,0.1,2,0.1,3.2c-0.9,0-1.8,0-2.8,0c0,0.5-0.1,0.8-0.1,1.3c1.4,0,2.8,0,4.2,0
				c0-1.5,0-3,0-4.5c2.3,0,4.5,0,6.8,0c0,1.1,0,2,0,3.2c-0.9,0-1.7,0-2.7,0c0,0.5-0.1,0.8-0.1,1.3c1.4,0.1,2.7,0.1,4.1,0
				c0-1.5,0-3.1,0-4.6c2.3,0,4.5,0,6.7,0c0.2,1,0.1,2,0,3.3c-0.9,0-1.7,0-2.7,0c0,0.5,0,0.8-0.1,1.3c1.3,0.1,2.7,0.1,4.1,0
				c0-1.5,0-3,0-4.4c1-0.3,5.5-0.3,6.8-0.1c0,1,0,1.9,0,3.2c-0.9,0-1.7,0-2.8,0c0,0.5-0.1,0.8-0.1,1.3c1.4,0.2,2.7,0.1,4.2,0.1
				c0-1.5,0-3.1,0-4.6c2.3,0,4.5,0,6.7,0c0,1,0,2,0,3.2c-0.8,0-1.6,0-2.5,0c0,0.5-0.1,0.9-0.1,1.3c1.3,0,2.7,0,4,0
				c0.3-1.4-0.1-3,0.2-4.5c2.2,0,4.4,0,6.6,0c0,1,0,2,0,3.3c-0.9,0-1.7,0-2.7,0c0,0.5,0,0.8-0.1,1.3c1.4,0,2.8,0,4.2,0
				c0-1.5,0-3,0-4.5c2.2,0,4.5,0,6.7,0c0,1,0,2,0,3.3c-0.8,0-1.6,0-2.5,0c0,0.5,0,0.9,0,1.3c1.3,0,2.5,0,3.9,0c0.3-1.5,0-3,0.2-4.6
				c2.2,0,4.4,0,6.5,0c0.3,0.9,0.3,1.9,0.1,3.3c-0.8,0-1.6,0-2.5,0c0,0.5,0,0.9,0,1.3c1.3,0,2.7,0,4.1,0c0-1.5,0-3.1,0-4.6
				c2.3,0,4.5,0,6.7,0c0,1,0,2,0,3.2c-0.8,0-1.7,0-2.7,0c0,0.5,0,0.9,0,1.3c1.3,0,2.5,0,4,0c0-1.5,0-3,0-4.6c2.3,0,4.5,0,6.7,0
				c0.2,1,0.1,2,0,3.3c-0.9,0-1.7,0-2.7,0c0,0.5,0,0.9,0,1.3c1.3,0,2.5,0,4,0c0.2-1.5,0-3,0.2-4.5c1-0.3,5.6-0.3,6.7,0
				c0,1,0,1.9,0,3.2c-0.9,0-1.8,0-2.8,0c0,0.5,0,0.8,0,1.3c1.3,0.1,2.7,0.1,4.1,0c0-1.5,0-3,0-4.5c2.3,0,4.5,0,6.8,0c0,1,0,2,0,3.2
				c-0.8,0-1.6,0-2.7,0c0,0.5-0.1,0.9-0.1,1.3c1.4,0,2.7,0,4.1,0c0-1.5,0-3,0-4.4c1-0.3,5.6-0.3,6.8-0.1c0,1,0,2,0,3.2
				c-0.9,0-1.7,0-2.7,0c0,0.5,0,0.9-0.1,1.3c0.4,0,0.7,0.1,1,0.1c1,0,1.9,0,3.1,0c0-1.6,0-3.1,0-4.6c2.3,0,4.5,0,6.8,0
				c0,1,0,2,0,3.2c-0.8,0-1.7,0-2.7,0c0,0.5-0.1,0.8-0.1,1.3c0.7,0,1.4,0.1,2,0.1c0.6,0,1.3,0,2,0c0-1.6,0-3.1,0-4.6
				c2.3,0,4.5,0,6.7,0c0.2,1,0.1,2,0,3.3c-0.9,0-1.7,0-2.7,0c0,0.5,0,0.9,0,1.3c1.3,0,2.7,0,4.1,0c0-1.5,0-3,0-4.4
				c1-0.3,5.6-0.3,6.8-0.1c0,0.2,0.1,0.4,0.1,0.7c0,0.8,0,1.5,0,2.4c-0.9,0-1.8,0-2.8,0c0,0.5,0,0.8-0.1,1.3c1.4,0.2,2.7,0.1,4.1,0
				c0-1.5,0-3,0-4.4c0.9-0.3,5.3-0.3,6.8-0.1c0,1,0,2,0,3.2c-0.8,0-1.6,0-2.7,0c0,0.5-0.1,0.9-0.1,1.3c1.4,0,2.7,0,4.1,0
				c0-1.5,0-3,0-4.4c0.9-0.3,5.3-0.3,6.8-0.1c0,1,0,2,0,3.2c-0.9,0-1.7,0-2.7,0c0,0.5,0,0.8,0,1.3c1.3,0,2.5,0,4.1,0
				c0-1.5,0-3,0-4.6c2.3,0,4.5,0,6.8,0c0,1,0,2,0,3.3c-0.8,0-1.7,0-2.7,0c0,0.5,0,0.8-0.1,1.3c1.4,0,2.7,0,4.1,0c0-1.5,0-3,0-4.4
				c0.9-0.3,5.2-0.4,6.8-0.1c0,1,0,1.9,0,3.2c-0.8,0-1.6,0-2.5,0c0,0.5-0.1,0.9-0.1,1.3c1.4,0,2.8,0,4.2,0c0-1.5,0-3,0-4.5
				c2.3,0,4.6,0,6.8,0c0,1.1,0,2,0,3.3c-0.9,0-1.8,0-2.8,0c0,0.5,0,0.8-0.1,1.3c1.4,0.2,2.8,0.1,4.1,0c0-1.5,0-3.1,0-4.5
				c0.9-0.2,5.4-0.3,6.8-0.1c0,1,0,2,0,3.2c-0.8,0-1.6,0-2.7,0c0,0.5-0.1,0.9-0.1,1.3c1.4,0,2.7,0,4.1,0c0-1.5,0-3,0-4.4
				c0.9-0.3,5.4-0.3,6.8-0.1c0,1,0,1.9,0,3.2c-0.8,0-1.7,0-2.7,0c0,0.4-0.1,0.7-0.1,1.2c1.7,0,3.4,0,5.1,0c0,2.3,0,4.5,0,6.7
				c-1,0-2,0-3.2,0c0-0.8,0-1.7,0-2.7c-0.5,0-0.9,0-1.3,0c0,1.3,0,2.7,0,4.1c1.5,0,3,0,4.4,0c0.3,1,0.3,5.5,0.1,6.8
				c-0.9,0-1.9,0-3.1,0c0-0.8-0.1-1.7-0.1-2.7c-0.5,0-0.8,0-1.3,0c0,1.3,0,2.5,0,4c1.5,0,3,0,4.4,0c0.3,1,0.3,5.3,0.1,6.8
				c-1,0-1.9,0-3.1,0c0-0.8,0-1.7,0-2.7c-0.5,0-0.8-0.1-1.3-0.1c0,1.4,0,2.8,0,4.2c1.5,0,3,0,4.5,0c0,2.3,0,4.5,0,6.7
				c-1,0-1.9,0-3.1,0c0-0.8-0.1-1.7-0.1-2.7c-0.4,0-0.8,0-1.2,0c0,1.3,0,2.7,0,4c1.5,0,3,0,4.5,0c0,2.3,0,4.5,0,6.7c-1,0-2,0-3.2,0
				c0-0.8,0-1.6,0-2.5c-0.5,0-0.9-0.1-1.3-0.1c0,1.3,0,2.7,0,4c1.4,0.3,3,0,4.4,0.2c0.3,0.8,0.3,5.2,0.1,6.8c-0.5,0-1,0-1.5,0
				c-0.5,0-0.9,0-1.5,0c0-0.9,0-1.8,0-2.8c-0.5,0-0.8-0.1-1.3-0.1c-0.1,1.4-0.1,2.7-0.1,4.1c1.5,0,3.1,0,4.6,0c0,2.3,0,4.5,0,6.8
				c-1,0-2,0-3.2,0c0-0.8,0-1.6,0-2.5c-0.5,0-0.9-0.1-1.3-0.1c0,1.4,0,2.7,0,4.1c1.5,0,3,0,4.5,0c0,2.3,0,4.6,0,6.8c-1,0-2,0-3.2,0
				c0-0.9,0-1.7,0-2.7c-0.5,0-0.8,0-1.3-0.1c0,1.4,0,2.7,0,4.1c1.4,0.3,3,0,4.5,0.2c0,2.2,0,4.4,0,6.6c-1,0-2,0-3.2,0
				c0-0.8,0-1.6,0-2.7c-0.5,0-0.9,0-1.3-0.1c0,1.3,0,2.5,0,4c1.4,0.2,3,0,4.5,0.2c0,2.2,0,4.4,0,6.6c-1,0.2-2,0.1-3.2,0.1
				c0-0.9,0-1.7,0-2.7c-0.5,0-0.9-0.1-1.3-0.1c0,1.3,0,2.7,0,4.1c1.4,0.2,3,0,4.4,0.1c0.3,0.8,0.3,5.2,0.1,6.7c-1,0-1.9,0-3.1,0
				c0-0.9,0-1.7,0-2.7c-0.5,0-0.8-0.1-1.3-0.1c0,0.7-0.1,1.4-0.1,2s0,1.3,0,2.1c1.5,0,3.1,0,4.6,0c0,2.3,0,4.5,0,6.8c-1,0-2,0-3.2,0
				c0-0.8,0-1.6,0-2.7c-0.5,0-0.9,0-1.3-0.1c0,1.4,0,2.7,0,4.1c1.5,0,3,0,4.6,0c0,2.3,0,4.6,0,6.8c-1.1,0-2,0-3.2,0
				c0-0.9-0.1-1.7-0.1-2.8c-0.4,0-0.8,0-1.2,0c0,1.3,0,2.5,0,4c1.4,0,3,0,4.3,0c0.3,0.9,0.4,5.2,0.1,6.8c-1,0-1.9,0-3.2,0
				c0-0.8,0-1.7,0-2.7c-0.5,0-0.9,0-1.3,0c0,0.3-0.1,0.5-0.1,0.7c0,1,0,2,0,3.1c1.5,0.3,3.1,0,4.6,0.2c0,2.2,0,4.4,0,6.6
				c-1,0-2,0-3.2,0c0-0.9-0.1-1.7-0.1-2.7c-0.4,0-0.8,0-1.3,0c0,1.3,0,2.7,0,4c1.5,0,3,0,4.4,0c0.3,1,0.3,5.5,0.1,6.8
				c-1,0-1.9,0-3.1,0c0-0.9,0-1.7,0-2.7c-0.5,0-0.8-0.1-1.3-0.1c0,1-0.1,1.8-0.1,2.8c-1.1,0-2.1,0-3.4,0c0,1.5,0,3.1,0,4.6
				c-2.3,0-4.6,0-6.8,0c0-1,0-2,0-3.2c0.8,0,1.6,0,2.7,0c0-0.5,0-0.9,0.1-1.3c-1.3,0-2.7,0-4,0c-0.2,1.4,0,3-0.1,4.5
				c-2.2,0-4.5,0-6.7,0c0-1,0-2,0-3.3c0.9,0,1.7,0,2.7,0c0-0.4,0.1-0.8,0.1-1.3c-1.4-0.1-2.8,0-4.2,0c0,1.5,0,3.1,0,4.6
				c-2.3,0-4.5,0-6.8,0c0-1,0-2,0-3.3c0.9,0,1.7,0,2.7,0c0-0.5,0-0.8,0-1.3c-1.3,0-2.5,0-4,0c0,1.5,0,3,0,4.5c-2.3,0-4.6,0-6.8,0
				c0-1,0-2,0-3.2c0.8,0,1.7,0,2.7,0c0-0.5,0-0.9,0-1.3c-1.3,0-2.7,0-4,0c0,1.5,0,3,0,4.5c-2.3,0-4.6,0-6.8,0c0-1,0-2,0-3.2
				c0.9,0,1.7,0,2.7,0c0-0.5,0-0.8,0-1.3c-1.3,0-2.7,0-4,0c0,1.5,0,3,0,4.4c-0.9,0.3-4.9,0.3-6.8,0.1c0-1,0-2,0-3.2
				c0.8,0,1.7-0.1,2.7-0.1c0-0.4,0-0.7,0.1-1.2c-1.3,0-2.7,0-4.1,0c0,1.5,0,3,0,4.5c-2.3,0-4.5,0-6.8,0c0-1,0-2,0-3.3
				c0.9,0,1.7,0,2.7,0c0-0.5,0-0.8,0-1.2c-1.3,0-2.7,0-4.1,0c0,1.5,0,3,0,4.5c-2.3,0-4.5,0-6.8,0c0-1,0-2,0-3.3c0.8,0,1.6,0,2.5,0
				c0-0.5,0.1-0.8,0.1-1.3c-1.3-0.1-2.7,0-4.1,0c0,1.5,0,3.1,0,4.6c-2.3,0-4.5,0-6.7,0c-0.2-1-0.1-2-0.1-3.3c0.9,0,1.7,0,2.7,0
				c0-0.5,0.1-0.8,0.1-1.3c-1.4,0-2.8,0-4.1,0c0,1.5,0,3,0,4.5c-2.3,0-4.5,0-6.8,0c0-1,0-2.1,0-3.3c0.9,0,1.7,0,2.7,0
				c0-0.4,0.1-0.8,0.1-1.3c-1.4-0.1-2.8,0-4.1,0c0,1.5,0,3.1,0,4.6c-2.3,0-4.5,0-6.8,0c0-1,0-2,0-3.2c0.9,0,1.6,0,2.7,0
				c0-0.4,0-0.8,0.1-1.3c-1.4,0-2.7,0-4.1,0c0,1.4,0,3,0,4.4c-0.9,0.3-5,0.3-6.8,0.1c0-1,0-2,0-3.2c0.9,0,1.7,0,2.7,0
				c0-0.4,0.1-0.8,0.1-1.3c-1.4-0.1-2.8-0.1-4.1,0c0,1.5,0,3,0,4.5c-2.3,0-4.5,0-6.8,0c0-1,0-2,0-3.3c0.9,0,1.7,0,2.7,0
				c0-0.5,0-0.8,0.1-1.2c-1.3,0-2.7,0-4,0c0,1.4,0,3,0,4.4c-0.9,0.3-5.2,0.3-6.8,0.1c0-1,0-2,0-3.2c0.9,0,1.7,0,2.7,0
				c0-0.5,0-0.8,0-1.2c-1.3,0-2.5,0-4.1,0c0,1.4,0,3,0,4.5c-2.3,0-4.5,0-6.8,0c0-1,0-2,0-3.3c0.8,0,1.7,0,2.7,0c0-0.5,0-0.8,0.1-1.2
				c-1.3,0-2.7,0-4.1,0c0,1.4,0,3,0,4.5c-2.3,0-4.5,0-6.8,0c0-0.5,0-1,0-1.5s0-1,0-1.7c0.9,0,1.7,0,2.7,0c0-0.5,0.1-0.8,0.1-1.3
				c-1.4-0.1-2.7,0-4.1,0c0,1.5,0,3.1,0,4.6c-2.3,0-4.6,0-6.8,0c0-1,0-2,0-3.2c0.9,0,1.7-0.1,2.8-0.1c0-0.4,0.1-0.7,0.1-1.2
				c-1.4,0-2.8,0-4.1,0c0,1.5,0,3,0,4.5c-2.3,0-4.5,0-6.8,0c0-1,0-2.1,0-3.3c0.9,0,1.6,0,2.7,0c0-0.4,0-0.8,0.1-1.2
				c-1.4,0-2.7,0-4.1,0c0,1.5,0,3,0,4.5c-2.3,0-4.6,0-6.8,0c0-1,0-2,0-3.3c0.9,0,1.7,0,2.7,0c0-0.4,0.1-0.8,0.1-1.3
				c-1.4-0.1-2.8,0-4.2,0c0,1.5,0,3,0,4.5c-2.3,0-4.5,0-6.8,0c0-1,0-2,0-3.3c0.9,0,1.7,0,2.7,0c0-0.5,0-0.8,0-1.3c-1.3,0-2.7,0-4,0
				c0,1.5,0,3,0,4.5c-2.3,0-4.5,0-6.8,0c0-1,0-2.1,0-3.2c0.9,0,1.7,0,2.7,0c0-0.5,0-0.8,0.1-1.3c-1.4,0-2.7,0-4.1,0c0,1.5,0,3,0,4.5
				c-2.3,0-4.5,0-6.8,0c0-1,0-2.1,0-3.3c0.9,0,1.7,0,2.8,0c0-0.5,0-0.8,0-1.2c-1.3,0-2.7,0-4.1,0c0,1.5,0,3,0,4.5
				c-2.3,0-4.5,0-6.7,0c0-1,0-2,0-3.3c0.8,0,1.7,0,2.5,0c0-0.5,0.1-0.8,0.1-1.2c-1.3,0-2.7,0-4.1,0c0,1.5,0,3,0,4.5
				c-2.3,0-4.5,0-6.8,0c0-1,0-2,0-3.3c0.9,0,1.7,0,2.7,0c0-0.5,0-0.8,0-1.2c-1.3,0-2.7,0-4.1,0c0,1.4,0,3,0,4.5c-2.3,0-4.5,0-6.8,0
				c0-1,0-2,0-3.3c0.8,0,1.7,0,2.7,0c0-0.5,0-0.8,0-1.2c-1.3,0-2.7,0-4,0c0,1.4,0,3,0,4.3c-0.9,0.3-4.9,0.4-6.8,0.1c0-1,0-2,0-3.2
				c0.9,0,1.7,0,2.7,0c0-0.5,0-0.8,0.1-1.3c-0.7,0-1.3,0-1.9,0c-0.6,0-1.3,0-2.1,0c0,1.5,0,3.1,0,4.6c-2.3,0-4.5,0-6.8,0
				c0-1,0-2,0-3.3c0.8,0,1.7,0,2.7,0c0-0.4,0.1-0.7,0.1-1.1c-1.7,0-3.5,0-5.2,0c0-2.3,0-4.5,0-6.8c1.1,0,2.1,0,3.3,0
				c0,0.9,0,1.7,0,2.7c0.5,0,0.8,0,1.2,0c0-1.3,0-2.5,0-4c-1.5,0-3-0.1-4.5-0.1c0-2.2,0-4.5,0-6.7c1,0,2,0,3.2,0c0,0.8,0,1.7,0,2.7
				c0.5,0,0.9,0,1.3,0c0-1.3,0-2.7,0-4c-1.5,0-3,0-4.5,0c0-2.3,0-4.5,0-6.8c1,0,2,0,3.2,0c0,0.8,0,1.6,0,2.5c0.5,0,0.9,0,1.3,0
				c0-1.2,0-2.5,0-4c-1.5,0-3,0-4.5-0.1c0-2.2,0-4.5,0-6.8c1-0.1,2-0.1,3.3,0c0,0.9,0,1.8,0,2.8c0.5,0,0.8,0,1.2,0
				c0-1.3,0-2.7,0-4.1c-1.5,0-3,0-4.5,0c0-2.3,0-4.5,0-6.8c1,0,2.1,0,3.3,0c0,0.8,0,1.7,0,2.7c0.5,0,0.8,0,1.3,0c0-1.3,0-2.5,0-4
				c-1.4,0-3,0-4.5,0c0-2.3,0-4.5,0-6.7c1-0.2,2-0.1,3.3-0.1c0,0.9,0,1.7,0,2.7c0.5,0,0.8,0,1.3,0.1c0.1-1.4,0-2.7,0-4.1
				c-1.6,0-3.1,0-4.6,0c0-2.3,0-4.5,0-6.7c1-0.2,2-0.1,3.3-0.1c0,0.9,0,1.8,0,2.8c0.5,0,0.8,0,1.3,0c0.1-1.3,0.1-2.7,0.1-4
				c-1.5,0-3.1,0-4.6,0c0-2.3,0-4.5,0-6.7c1-0.2,2-0.1,3.3,0c0,0.9,0,1.7,0,2.7c0.5,0,0.8,0,1.2,0.1c0-1.3,0-2.7,0-4.1
				c-1.4,0-3,0-4.3,0c-0.3-1-0.3-5.4-0.1-6.8c1,0,1.9,0,3.2,0c0,0.8,0,1.7,0,2.7c0.5,0,0.9,0,1.4,0c0-0.5,0-1,0-1.5
				c0-0.8,0-1.6,0-2.5c-1.6,0-3.1,0-4.6,0c0-2.3,0-4.5,0-6.8c1,0,2,0,3.2,0c0,0.8,0,1.6,0,2.7c0.5,0,0.8,0,1.3,0.1c0-1.3,0-2.7,0-4
				c-1.4,0-3,0-4.5,0c0-2.3,0-4.5,0-6.7c1-0.2,2-0.1,3.3,0c0,0.9,0,1.7,0,2.7c0.5,0,0.8,0,1.2,0c0-1.3,0-2.7,0-4.1c-1.5,0-3,0-4.5,0
				c0-2.3,0-4.5,0-6.7c1,0,2,0,3.3,0c0,0.9,0,1.7,0,2.7c0.5,0,0.8,0,1.2,0c0-1.3,0-2.7,0-4.1c-1.5,0-3,0-4.5,0C4,39.6,4,37.3,4,35.1
				L4,35.1z M202.9,8.1c0.9,0,1.8-0.1,2.8-0.1c0-0.4-0.1-0.7-0.1-1c-1.5,0-3,0-4.6,0c0,1.5,0,3.1,0,4.5c-2.1,0-4.2,0-6.2,0
				c0-1.1,0-2.2,0-3.5c0.9,0,1.7,0,2.7,0c0-0.4,0-0.7-0.1-1.1c-0.8,0-1.5,0-2.2,0c-0.7,0-1.5,0-2.3,0.1c0,1.6,0,3.1,0,4.5
				c-2.1,0-4.1,0-6.1,0c0-1.1,0-2.2,0-3.4c0.9,0,1.7-0.1,2.7-0.1c0-0.4,0-0.7,0-1c-1.5,0-3.1,0-4.7,0c0,1.5,0,3.1,0,4.5
				c-2.1,0-4.2,0-6.2,0c0-1.1,0-2.2,0-3.4c0.7,0,1.3,0,1.9,0c0.8,0,0.8,0,0.7-1c-1.5,0-3,0-4.6,0c0,1.5,0,3,0,4.5
				c-2.1,0-4.2,0-6.2,0c0-1.1,0-2.2,0-3.5c0.9,0,1.7,0,2.7,0c0-0.4,0-0.7,0-1.1c-1.5,0-3.1-0.1-4.6,0c0,1.5,0,3.1,0,4.5
				c-2.1,0-4.2,0-6.2,0c0-1.1,0-2.2,0-3.4c0.9,0,1.8-0.1,2.8-0.1c0-0.4-0.1-0.7-0.1-1c-1.5,0-3,0-4.6,0c0,1.5,0,3.1,0,4.5
				c-2.1,0-4.2,0-6.2,0c0-1.1,0-2.2,0-3.4c0.9,0,1.7-0.1,2.7-0.1c0-0.4-0.1-0.7-0.1-1c-1.5,0-3,0-4.6,0c0,1.5,0,3.1,0,4.6
				c-1.1,0-2.1,0-3.2,0c-1,0-2,0-3.1,0c0.1-1.2-0.1-2.3,0.2-3.5c0.9,0,1.7-0.1,2.5-0.1c0-0.4,0-0.7,0-1c-1.5,0-3.1,0-4.6,0
				c0,0.8,0,1.5,0,2.2c0,0.7,0,1.4,0,2.2c-2.1,0-4.2,0-6.2,0c0-1.2,0-2.2,0-3.4c0.7,0,1.3,0,1.9,0c0.8,0,0.8-0.1,0.6-1
				c-1.5,0-3,0-4.6,0c0,1.5,0,3,0,4.5c-2.1,0-4.2,0-6.2,0c0-1.1-0.1-2.2,0.1-3.4c0.9,0,1.7-0.1,2.7-0.1c0-0.4-0.1-0.7-0.1-1
				c-1.5,0-3,0-4.6,0c0,1.5,0,3.1,0,4.5c-2.1,0-4.2,0-6.2,0c0-1.1,0-2.2,0-3.4c0.9-0.1,1.8-0.1,2.7-0.1c0-0.4,0-0.7,0-1
				c-1.5,0-3.1,0-4.7,0c0,1.5,0,3.1,0,4.6c-1.1,0-2.1,0-3.2,0c-1,0-2,0-3,0c0-1.2,0-2.3,0-3.5c0.9,0,1.7,0,2.5,0c0-0.4,0-0.7,0-1
				c-1.5,0-3.1,0-4.7,0c0,1.5,0,3.1,0,4.5c-2.1,0-4.1,0-6.2,0c0-1.1,0-2.2,0-3.5c0.9,0,1.8,0,2.8,0c0-0.5-0.1-0.8-0.1-1.1
				c-1.5,0-3.1,0-4.6,0c0,1.6,0,3.1,0,4.6c-2.1,0-4.2,0-6.2,0c0-1.1,0-2.2,0-3.4c0.9,0,1.8-0.1,2.8-0.1c-0.1-0.4-0.1-0.7-0.1-1
				c-1.5,0-3.1,0-4.6,0c0,1.5,0,3.1,0,4.5c-2.1,0-4.1,0-6.1,0c0-1.1,0-2.2,0-3.5c0.9,0,1.7,0,2.7,0c0-0.4,0-0.7,0-1
				c-1.5,0-3.1,0-4.7,0c0,1.5,0,3.1,0,4.6c-2.1,0-4.2,0-6.1,0c0-1.2,0-2.3,0-3.5c0.9,0,1.7-0.1,2.7-0.1c0-0.4,0-0.7,0-1
				c-1.5,0-3.1,0-4.6,0c0,1.6,0,3.1,0,4.5c-2.1,0-4.2,0-6.2,0c0-1.1,0-2.2,0-3.5c0.9,0,1.7,0,2.7,0c0-0.4,0-0.7-0.1-1.1
				c-1.5,0-3.1,0-4.7,0c0,1.6,0,3.1,0,4.6c-2.1,0-4.2,0-6.2,0c0-1.1,0-2.2,0-3.4c0.9-0.1,1.8-0.1,2.8-0.2c-0.1-0.4-0.1-0.7-0.1-1
				c-1.5,0-3,0-4.6,0c0,1.5,0,3.1,0,4.5c-2.1,0-4.2,0-6.2,0c0-1.1,0-2.2,0-3.4c0.9,0,1.7-0.1,2.7-0.1c0-0.4-0.1-0.7-0.1-1
				c-1.5,0-3,0-4.6,0c0,1.5,0,3.1,0,4.5c-2.1,0-4.1,0-6.1,0c0-1.1,0-2.2,0-3.5c0.9,0,1.7,0,2.7,0c0-0.4,0-0.7,0-1
				c-1.5,0-3.1,0-4.7,0c0,1.5,0,3.1,0,4.6c-2.1,0-4.2,0-6.1,0c0-1.2,0-2.3,0-3.5c0.7,0,1.3,0,1.9,0c0.8,0,0.8-0.1,0.7-1
				c-1.5,0-3,0-4.6,0c0,1.5,0,3,0,4.5c-2.1,0-4.2,0-6.2,0c0-1.1,0-2.2,0-3.5c0.9,0,1.7,0,2.7,0c0-0.4,0-0.7-0.1-1.1
				c-1.5,0-3.1,0-4.6,0c0,1.6,0,3.1,0,4.6c-2.1,0-4.2,0-6.2,0c0-1.1,0-2.2,0-3.4c0.9,0,1.8-0.1,2.8-0.1c-0.1-0.4-0.1-0.7-0.1-1
				c-1.5,0-3,0-4.6,0c0,1.5,0,3.1,0,4.5c-2.1,0-4.2,0-6.2,0c0-1.1,0-2.2,0-3.4c0.9,0,1.7-0.1,2.7-0.1c0-0.4-0.1-0.7-0.1-1
				c-1.5,0-3,0-4.6,0c0,1.5,0,3.1,0,4.6c-1.2,0-2.3,0-3.5,0c0,1,0,1.8,0,2.8c-1.2,0-2.3,0.1-3.6-0.1c0-0.9,0-1.7,0-2.8
				c-0.4,0-0.7,0-1,0.1c0,1.5,0,3.1,0,4.6c1.6,0,3.1,0,4.6,0c0,2.1,0,4.1,0,6.2c-1.2,0-2.2,0-3.5,0c0-0.9,0-1.7,0-2.7
				c-0.4,0-0.7,0-1.1,0c0,1.5-0.1,3.1,0.1,4.7c1.5,0,3.1,0,4.5,0c0,2.1,0,4.2,0,6.1c-1.2,0-2.2,0-3.5,0c0-0.9,0-1.7,0-2.7
				c-0.4,0-0.7,0-1.1,0.1c0,1.5,0,3.1,0,4.6c1.6,0,3.1,0,4.6,0c0,2.1,0,4.1,0,6.2c-1.1,0-2.2,0-3.5,0c0-0.9,0-1.8,0-2.8
				c-0.4,0-0.7,0-1,0.1c0,1.5,0,3,0,4.6c1.5,0,3.1,0,4.5,0c0,2.1,0,4.2,0,6.2c-1.1,0-2.2,0-3.5,0c0-0.9,0-1.7,0-2.7
				c-0.4,0-0.7,0-1.1,0c0.1,1.5-0.1,3.1,0.1,4.6c1.5,0,3.1,0,4.5,0c0,2.1,0,4.2,0,6.1c-1.1,0-2.2,0-3.4,0c0-0.9-0.1-1.8-0.1-2.7
				c-0.4,0-0.6,0-0.9,0c0,1.5,0,3.1,0,4.7c1.5,0,3.1,0,4.5,0c0,2.1,0,4.2,0,6.2c-1.1,0-2.2,0-3.5,0c0-0.9,0-1.8,0-2.7
				c-0.4,0-0.7,0-1,0c0,1.5,0,3.1,0,4.7c1.5,0,3.1,0,4.5,0c0,2.1,0,4.1,0,6.1c-1.1,0-2.2,0-3.5,0c0-0.9-0.1-1.7-0.1-2.7
				c-0.4,0-0.7,0-1,0c0,1.5,0,3.1,0,4.7c1.5,0,3.1,0,4.6,0c0,2.1,0,4.2,0,6.2c-1.2,0-2.3,0-3.5,0c0-0.9-0.1-1.8-0.1-2.7
				c-0.4,0-0.6,0-0.9,0c0,1.5,0,3.1,0,4.6c1.5,0,3,0,4.5,0c0,2.1,0,4.2,0,6.2c-1.1,0.1-2.2,0.1-3.6-0.1c0-0.9,0-1.7,0-2.5
				c-0.4,0-0.7,0-1,0c0,1.5,0,3.1,0,4.7c1.5,0,3.1,0,4.6,0c0,1.1,0,2.1,0,3.2c0,1,0.1,2-0.1,3c-1.1,0-2.2,0-3.4,0
				c-0.1-0.9-0.1-1.8-0.1-2.8c-0.4,0-0.7,0.1-1,0.1c0,1.5-0.1,3.1,0,4.6c1.5,0,3.1,0,4.6,0c0,2.1,0,4.1,0,6.2c-1.1,0-2.2,0-3.6,0
				c0-0.9,0-1.7,0-2.7c-0.4,0-0.7,0-1,0c0,1.5,0,3.1,0,4.7c1.5,0,3.1,0,4.5,0c0,2.1,0,4.1,0,6.1c-1.1,0-2.2,0-3.5,0
				c0-0.9,0-1.7,0-2.7c-0.4,0-0.7,0-1,0c0,1.5,0,3.1,0,4.7c1.5,0,3.1,0,4.6,0c0,1.1,0,2.1,0,3.2s0,2,0,3c-1.2,0-2.3,0-3.5,0
				c0-0.9,0-1.7,0-2.7c-0.4,0-0.7,0-1,0c0,1.5,0,3.1,0,4.6c1.5,0,3,0,4.5,0c0,2.1,0,4.2,0,6.2c-1.2,0.1-2.2,0.2-3.6-0.1
				c0-0.9,0-1.7,0-2.5c-0.4,0-0.7,0-0.9,0c0,1.5,0,3.1,0,4.7c1.5,0,3.1,0,4.5,0c0,2.1,0,4.1,0,6.2C8.2,137,7,137.2,5.8,137
				c0-0.9,0-1.7,0-2.7c-0.4,0-0.7,0-1,0c0,1.5,0,2.9,0,4.4c1.7,0,3.4,0,5,0c0,1.2,0,2.3,0,3.6c-0.9,0-1.7,0-2.7,0
				c0,0.4,0.1,0.7,0.1,1c1.5,0,3,0,4.6,0c0-1.5,0-3.1,0-4.5c2-0.2,5.4-0.2,6.2,0.1c0,1.1,0,2.1,0,3.4c-0.9,0-1.8,0-2.8,0
				c0,0.4,0,0.6,0,1c1.5,0,3.1,0,4.7,0c0-1.5,0-3.1,0-4.6c1.1,0,2.1,0,3.2,0c1,0,2,0,3,0c0,1.2,0,2.3,0,3.6c-0.9,0-1.7,0-2.7,0
				c0,0.4,0,0.7,0,1c1.5,0,3,0,4.6,0c0-1.5,0-3.1,0-4.5c2.1,0,4.1,0,6.2,0c0,1.2,0.1,2.3-0.1,3.6c-0.9,0-1.7,0-2.5,0
				c0,0.4,0,0.6,0,0.9c1.5,0,3.1,0,4.7,0c0-1.5,0-3.1,0-4.5c2.1,0,4.2,0,6.1,0c0,1.2,0,2.3,0,3.6c-0.9,0-1.8,0-2.8,0
				c0,0.4,0.1,0.7,0.1,0.9c1.5,0,3,0,4.5,0c0.2-1.5-0.1-3.1,0.1-4.5c2.1,0,4.1,0,6.1,0c0,1.2,0,2.3,0,3.6c-0.9,0-1.7,0-2.7,0
				c0.1,0.4,0.1,0.7,0.1,1c1.5,0,3,0,4.5,0c0.2-1.5-0.1-3.1,0.2-4.6c1.1,0,2.1,0,3.2,0s2-0.1,3,0.1c0,1.2,0,2.3,0,3.6
				c-0.9,0-1.8,0-2.8,0c0,0.4,0,0.7,0.1,0.9c1.5,0,3.1,0,4.6,0c0-1.5,0-3,0-4.5c2.1,0,4.2,0,6.2,0c0,1.2,0,2.2,0,3.6
				c-0.9,0-1.7,0-2.7,0c0,0.4,0.1,0.7,0.1,1c1.5,0,3,0,4.5,0c0.3-1.5-0.1-3.1,0.2-4.6c1,0,2,0,3,0c1,0,2,0,3.1,0c0,1.2,0,2.3,0,3.6
				c-0.9,0-1.8,0-2.8,0c0,0.4,0.1,0.7,0.1,1c1.5,0,3.1,0,4.6,0c0-1.6,0-3.1,0-4.5c1.4-0.2,5.4-0.2,6.2,0c0,1.1,0,2.1,0,3.4
				c-0.9,0-1.8,0-2.8,0c0,0.4,0,0.6,0,1c1.5,0,3.1,0,4.6,0c0.3-1.5-0.1-3.1,0.2-4.5c2,0,4.1,0,6.1,0c0,1.2,0.1,2.3-0.1,3.6
				c-0.9,0-1.7,0-2.7,0c0,0.4,0,0.6,0.1,1c1.5,0,3.1,0.1,4.6-0.1c0-1.5,0-3,0-4.5c2.1,0,4.2,0,6.2,0c0,1.2,0,2.3,0,3.6
				c-0.9,0-1.8,0-2.8,0c0,0.4,0.1,0.7,0.1,0.9c1.5,0,3.1,0,4.6,0c0-1.5,0-3,0-4.5c2.1,0,4.2,0,6.1,0c0,1.2,0,2.3,0,3.6
				c-0.9,0-1.7,0-2.7,0c0,0.4,0,0.6,0,1c1.5,0,3.1,0.1,4.7-0.1c0-1.5,0-3,0-4.4c1.4-0.2,5.3-0.2,6.2,0.1c0,1,0,2.1,0,3.4
				c-0.9,0-1.8,0-2.8,0c0,0.4,0.1,0.7,0.1,1.1c1.3,0,2.7,0,3.9,0c0.2,0,0.4,0,0.7-0.1c0-1.5,0-3,0-4.5c2.1,0,4.2,0,6.2,0
				c0,1.2,0,2.3,0,3.5c-0.9,0-1.7,0-2.8,0c0,0.4,0,0.7,0.1,1c1.5,0,3,0,4.6,0c0-1.5,0.1-3.1,0.1-4.5c2.1,0,4.1,0,6.1,0
				c0,1.2,0,2.3,0,3.6c-0.9,0-1.7,0-2.7,0c0.1,0.4,0.1,0.7,0.1,1c1.5,0,3,0,4.6,0c0-1.5,0-3.1,0-4.6c1.1,0,2.1,0,3.2,0c1,0,2,0,3,0
				c0,1.2,0,2.3,0,3.6c-0.9,0-1.8,0-2.8,0c0,0.4,0,0.6,0,1c1.5,0,3.1,0,4.6,0c0.2-1.5-0.1-3.1,0.2-4.5c2.1,0,4.1,0,6.1,0
				c0,1.2,0,2.2,0,3.6c-0.9,0-1.7,0-2.7,0c0,0.4,0.1,0.7,0.1,1c1.5,0,3,0,4.5,0c0.3-1.5-0.1-3.1,0.2-4.5c2,0,4.1,0,6.1,0
				c0,1.2,0,2.3,0,3.6c-0.9,0-1.8,0-2.8,0c0,0.4,0.1,0.7,0.1,0.9c1.5,0,3.1,0,4.6,0c0-1.5,0-3,0-4.5c2.1,0,4.2,0,6.2,0
				c0,1.2,0,2.2,0,3.6c-0.9,0-1.8,0-2.8,0c0,0.4,0.1,0.7,0.1,1c1.5,0,3.1,0.1,4.6,0c0-1.5,0-3.1,0-4.6c2.1,0,4.1,0,6.1,0
				c0,1.1,0,2.2,0,3.5c-0.9,0-1.7,0-2.7,0c0,0.4,0,0.7,0.1,1.1c1.5,0,3.1,0.1,4.6-0.1c0-1.5,0-3.1,0-4.5c2.1,0,4.2,0,6.2,0
				c0,1.2,0,2.3,0,3.6c-0.9,0-1.8,0-2.8,0c0,0.4,0.1,0.7,0.1,1c1.5,0,3.1,0.1,4.6,0c0-1.6,0-3.1,0-4.5c2.1,0,4.2,0,6.2,0
				c0,1.2,0,2.2,0,3.5c-0.9,0-1.7,0-2.7,0c0,0.4,0,0.7,0,1.1c1.5-0.1,3.1,0.1,4.6-0.1c0-1.5,0-3,0-4.4c1.7-0.2,5.3-0.2,6.2,0.1
				c0,1.1,0,2.1,0,3.4c-0.9,0-1.8,0-2.8,0c0,0.4,0.1,0.7,0.1,1c1.5,0,3,0,4.6,0c0-1.5,0-3.1,0-4.5c2.1,0,4.2,0,6.2,0
				c0,1.2,0,2.3,0,3.6c-0.9,0-1.7,0-2.7,0c0,0.4,0,0.6,0.1,1c1.5,0,3.1,0.1,4.7,0c0-1.6,0-3.1,0-4.5c2.1,0,4.1,0,6.1,0
				c0,1.2,0.1,2.3,0,3.6c-0.9,0-1.7,0-2.7,0c0,0.4,0.1,0.7,0.1,1c1.4,0,2.7,0,4,0c0.1,0,0.3-0.1,0.6-0.1c0-1.5,0-3,0-4.5
				c2.1,0,4.2,0,6.2,0c0,1.2,0,2.3,0,3.5c-0.9,0-1.7,0-2.8,0c0,0.4,0,0.7,0.1,1c1.5,0,3,0,4.6,0c0-1.5,0-3.1,0-4.6
				c1.2,0,2.3,0,3.6,0c0-0.9,0-1.8,0-2.7c1.2,0,2.2,0,3.4,0c0,0.9,0.1,1.7,0.1,2.7c0.4,0,0.7-0.1,1-0.1c0.2-1.7,0.2-3.7-0.2-4.7
				c-1.4,0-2.9,0-4.3,0c-0.2-1.7-0.2-5.3,0.1-6.1c1,0,2,0,3.3,0c0,0.9,0,1.8,0,2.8c0.5,0,0.7,0,1.1-0.1c0-1.5,0-3.1,0-4.6
				c-1.6,0-3.1,0-4.6,0c0-2.1,0-4.2,0-6.2c1.1,0,2.2,0,3.4,0c0,0.9,0.1,1.8,0.1,2.8c0.4,0,0.7-0.1,1-0.1c0-1.5,0-3,0-4.6
				c-1.5,0-3.1-0.1-4.5-0.1c0-2.1,0-4.1,0-6.1c1.1,0,2.2,0,3.4,0c0,0.9,0.1,1.7,0.1,2.7c0.4,0,0.7,0,1.1-0.1c0-1.5,0.1-3.1-0.1-4.6
				c-1.5,0-3.1,0-4.5,0c0-2.1,0-4.2,0-6.2c1.1,0,2.2,0,3.4,0c0,0.9,0.1,1.8,0.1,2.8c0.4-0.1,0.7-0.1,1-0.1c0-1.5,0-3,0-4.6
				c-1.5,0-3.1,0-4.6,0c0-1.2,0-2.1,0-3.2c0-1-0.1-2,0.1-3c1.1,0,2.1,0,3.4,0c0,0.9,0,1.7,0,2.7c0.4,0,0.7,0,1.1,0
				c0-1.5,0-3.1,0-4.7c-1.5,0-3.1,0-4.5,0c0-2.1,0-4.1,0-6.1c1.1,0,2.2,0,3.5,0c0,0.9,0,1.8,0,2.8c0.5-0.1,0.7-0.1,1-0.1
				c0-1.5,0-3,0-4.6c-1.5,0-3.1,0-4.5,0c0-2.1,0-4.2,0-6.2c1.1,0,2.2,0,3.5,0c0,0.9,0,1.7,0,2.7c0.4,0,0.7,0,1,0c0-1.5,0-3.1,0-4.7
				c-1.5,0-3,0-4.4,0c-0.2-1.4-0.2-5.3,0-6.2c1,0,2.1-0.1,3.3,0.1c0,0.9,0,1.7,0,2.7c0.4,0,0.7,0,1-0.1c0-1.5,0-3.1,0-4.6
				c-1.5,0-3.1,0-4.6,0c0-2.1,0-4.2,0-6.2c1.2,0,2.3,0,3.5,0c0,0.9,0,1.7,0,2.7c0.4,0,0.7,0,1,0c0-1.5,0-3.1,0-4.6c-1.5,0-3,0-4.5,0
				c0-2.1,0-4.2,0-6.2c1.1,0,2.2,0,3.4,0c0,0.9,0.1,1.7,0.1,2.7c0.4,0,0.7-0.1,1.1-0.1c0-1.5,0.1-3.1-0.1-4.6c-1.6,0-3.1,0-4.6,0
				c0-1.1,0-2.1,0-3.2s0-2,0-3c1.2,0,2.3,0,3.5,0c0,0.9,0,1.7,0,2.7c0.4,0,0.7,0,1,0c0-1.5,0-3.1,0-4.6c-0.8,0-1.5,0-2.2,0
				s-1.4,0-2.1,0c-0.3-1.4-0.2-5.4,0.1-6.2c1,0,2.1,0,3.3,0c0,0.9,0,1.7,0,2.7c0.4,0,0.7,0,1.1,0c0-1.5,0-3.1,0-4.6
				c-1.6,0-3.1,0-4.5,0c-0.2-1.5-0.2-5.3,0.1-6.1c1,0,2,0,3.3,0c0,0.9,0,1.7,0,2.7c0.5,0,0.8-0.1,1.1-0.1c0-1.5,0-3.1,0-4.6
				c-1.5,0-3.1,0-4.5,0c0-2.1,0-4.2,0-6.2c1.1,0,2.2,0,3.5,0c0,0.9,0,1.7,0,2.7c0.4,0,0.7,0,1,0c0-1.5,0-3.1,0-4.6c-1.5,0-3,0-4.5,0
				c0-2.1,0-4.2,0-6.1c1.1,0,2.2,0,3.4,0c0,0.9,0.1,1.7,0.1,2.7c0.4,0,0.7-0.1,1.1-0.1c0-1.5,0.1-2.9,0-4.4c-1.7,0-3.4,0-5.1,0
				c0-1.2,0-2.2,0-3.5c0.9,0,1.7,0,2.7,0c0-0.4,0-0.7,0-1.1c-1.5,0-3.1,0-4.7,0c0,1.5,0,3.1,0,4.5c-2.1,0-4.2,0-6.2,0
				c0-1.1,0-2.2,0-3.5c0.7,0,1.3,0,1.9,0c0.8,0,0.8,0,0.7-1c-1.5,0-3,0-4.6,0c0,1.5,0,3,0,4.5c-2.1,0-4.2,0-6.2,0c0-1.1,0-2.2,0-3.5
				c0.9,0,1.7,0,2.7,0c0-0.4,0-0.7,0-1.1c-1.5,0-3.1-0.1-4.6,0c0,1.5,0,3.1,0,4.5c-2.1,0-4.2,0-6.2,0
				C202.9,10.3,202.9,9.3,202.9,8.1L202.9,8.1z"/>
			<path class="st0" d="M167.3,57.4c1.7-2.1,3.5-3.7,6-4.3c2.9-0.7,5.3,0,7.2,2.1c1.9,2,2.5,4.5,1.7,7.2c-0.1,0.2-0.1,0.5-0.2,0.7
				c0,0,0,0.1,0,0.2c1.6,0.1,3.3,0.2,4.8,0c1.5-0.2,3.1-0.6,4.5-1.1c1.6-0.5,2.8-1.5,2.7-3.5c2.7,1.1,2.9,3.5,0.5,5.9
				c0.3,0,0.6,0.1,0.8,0.1c3.4-0.2,6.4-1.4,9.1-3.6c0.6-0.5,1.2-1.1,1.6-1.8c1-1.5,0.8-3-0.6-4.3c-0.1-0.1-0.3-0.3-0.5-0.4
				c1.2-0.1,2.9,0.7,3.8,1.8c1.1,1.4,1.3,3.1,0.8,4.7c-0.8,2.5-2.5,4.2-5.2,4.8c-0.3,0.1-0.7,0.2-1.3,0.3c1.7,1.1,3.7,0.6,5.2,1.4
				c-2,0.9-4.1,1.7-6.1,2.7c0.2,0.1,0.6,0.2,1.2,0.5c-1.3,0.4-2.4,0.8-3.6,1.2c1.6,0.6,3.5,0.8,5.5,0.8c-2,1-4,1.5-6.1,1.4
				c0.3,0.3,0.4,0.5,0.6,0.6c0.1,0.1,0.3,0.2,0.5,0.3c-1.1,0.8-1.4,0.8-4.3,0c-0.6,2-1.4,3.9-3.9,4.5c-0.1-1.9-1-3.4-2-5
				c-0.6,1.7-1.5,3.2-2.7,4.5c0.3,0.9,0.9,1.7,2.2,1.9c-0.7,0.7-1,0.8-1.8,0.4c-1.1-0.6-1.8-1.5-2.5-2.5c-0.7-0.9-1.3-1.8-2-2.8
				c-2.8-3.3-6.2-5.2-10.4-5.9c-8.8-1.5-15.7,1.7-21,8.7c-1.3,1.7-2,3.9-2.8,5.9c-0.1,0.3-0.2,0.7-0.5,1c0.1-0.9,0.2-1.8,0.4-2.7
				c0.6-3,1.5-5.7,3-8.4c1.7-3.3,3.8-6.2,6.1-9.1c0.9-1.1,1.7-2.3,2.5-3.6c0.8-1.3,1.3-2.9,1.5-4.5c0.2-1.7-0.3-3.2-1.6-4.2
				c-0.6-0.5-1.4-0.9-2.1-1.4c-0.3-0.2-0.5-0.3-0.9-0.5c2.2-0.6,4.5-0.1,6.1,1.1c2.1,1.7,2.5,4.9,1.1,6.6c-0.1,0.1-0.1,0.2-0.2,0.3
				c1.1,0.2,1.6-0.1,3.6-1.6c0.3,1.3,0,2.8-1.1,3.7c-0.6,0.6-1.4,1-2.1,1.5c-1.8,1.1-3.7,2.2-5.5,3.4c-1.6,1.1-3.1,2.4-4.2,4.1
				c-0.1,0.2-0.2,0.4-0.2,0.7c0.2-0.2,0.5-0.4,0.7-0.7c1.9-2.2,4.3-3.9,6.8-5.3c1.8-0.9,3.6-1.9,5.3-3c0.9-0.5,1.7-1.2,2.5-1.9
				c0.7-0.6,0.9-1.5,0.5-2.4c-0.4-0.9-1.2-1.3-2.1-1.2C168.3,57.2,167.9,57.3,167.3,57.4L167.3,57.4z M179.4,64.8
				c-0.1-0.1-0.1-0.1-0.2-0.2c-1.3,1.4-3.1,1.8-4.9,1.9c-1,0.1-2.1,0-3.2,0c-4,0.1-7.8,1.1-11.2,3.3c-0.2,0.1-0.4,0.3-0.6,0.5
				c0.1,0.1,0.2,0.1,0.2,0.1c0.3-0.1,0.7-0.3,1-0.4c2.4-1.1,5-1.9,7.7-2.2c4.5-0.5,8.8,0.5,12.6,2.8c0.3,0.1,0.5,0.3,0.8,0.4
				c-0.7-0.7-1.5-1.3-2.3-1.8c-0.8-0.5-1.7-1-2.9-1.5c0.4-0.1,0.6-0.2,0.7-0.2c0.3,0,0.6,0,0.8,0c2.1,0,4.3,0.5,6.3,1.4
				c3.6,1.5,7.2,1.8,11,0.8c1.4-0.4,2.8-0.8,4-1.6c-0.3,0-0.6,0-0.9,0.1c-3.7,0.9-7.3,1.1-11.1,0.1c-2.9-0.8-5.7-1.7-8.8-1.5
				C178.9,65.9,179.1,65.4,179.4,64.8L179.4,64.8z"/>
			<path class="st0" d="M41.6,75.4c-1.4,0.5-2.9,1.1-4.3,0.1c0.3-0.3,0.6-0.6,1.2-1c-2.2,0-4.2-0.4-5.9-1.4c1.8-0.1,3.6-0.3,5.2-0.9
				c-1.1-0.4-2.2-0.7-3.6-1.2c0.6-0.2,1-0.4,1.3-0.5c-2-0.8-4.1-1.7-6.1-2.5c1.5-0.8,3.5-0.3,5.2-1.4c-0.7-0.1-1.1-0.2-1.6-0.3
				c-2.9-0.7-5-3.4-5.1-6.3c0-2,0.9-3.6,2.8-4.6c0.7-0.3,1.4-0.5,2.2-0.6c-0.2,0.2-0.5,0.4-0.7,0.6c-1.2,1.1-1.5,2.4-0.7,4
				c0.3,0.6,0.8,1.2,1.3,1.7c2.8,2.4,6,3.8,9.8,4c0.1,0,0.3,0,0.6-0.1c-1.1-1-2-2.1-1.7-3.7c0.3-1.1,1-1.8,1.9-2.3
				c0.1,0.1,0.2,0.1,0.2,0.1c-0.1,1.7,0.8,2.8,2.2,3.3c1.4,0.5,2.9,0.9,4.4,1.2c1.7,0.3,3.6,0.1,5.4,0.1c-0.4-1.4-0.8-2.8-0.5-4.2
				c0.8-4.5,5.1-7.2,9.5-6c2.4,0.7,4.2,2.2,5.8,4.3c-0.6,0-1.1-0.1-1.5-0.1c-0.9,0-1.5,0.4-1.9,1.3c-0.4,0.8-0.3,1.6,0.4,2.2
				c0.6,0.6,1.2,1.2,1.9,1.6c1.5,0.9,3.2,1.9,4.8,2.8c3.2,1.6,6,3.5,8.4,6.2c0.1,0.1,0.2,0.2,0.5,0.2c-0.1-0.2-0.2-0.5-0.4-0.7
				c-1.1-1.5-2.4-2.9-4.1-3.9c-1.7-1.1-3.5-2.1-5.2-3.2c-0.5-0.3-1-0.5-1.4-0.8c-1.6-1-2.4-2.5-2.3-4.7c1.1,0.9,2.2,1.9,3.8,1.9
				c-0.1-0.2-0.2-0.4-0.3-0.5c-1.6-2.2-0.6-5.2,1.1-6.6c1.1-0.9,2.4-1.3,3.9-1.4c0.7,0,1.4,0,2.2,0.2c-0.3,0.2-0.5,0.3-0.8,0.5
				c-0.8,0.5-1.7,1-2.5,1.7c-1.2,1-1.6,2.4-1.3,4c0.4,2.5,1.5,4.8,3.1,6.8c2,2.5,4.1,5.1,5.8,7.9c1.8,3.1,3.4,6.1,4.1,9.6
				c0.3,1.3,0.6,2.7,0.5,4.1c-0.2-0.5-0.4-1.1-0.5-1.6c-1.3-4.4-3.9-7.8-7.4-10.4c-4.1-3.1-8.6-4.3-13.6-4.1
				c-4.2,0.2-7.8,1.6-11,4.2c-1.5,1.2-2.7,2.9-3.8,4.5c-0.7,1.1-1.5,2.1-2.7,2.9c-0.8,0.5-1.2,0.4-2-0.3c1.3-0.1,1.9-1,2.3-2
				c-1.2-1.2-1.9-2.7-2.7-4.2c-1.1,1.2-1.6,2.4-2.1,4.8C43.1,79.3,42.2,77.5,41.6,75.4z M37.8,67.6c4.9,2.7,10.1,3.3,15.4,1.1
				c1.4-0.6,3-1.1,4.6-1.3c1-0.1,2.1-0.3,3.2,0.1c-0.3,0.3-0.7,0.4-1,0.6c-1.4,0.8-2.9,1.5-4.3,2.3c-0.5,0.3-1,0.7-1.2,1.4
				c0.2,0,0.2,0,0.2,0c0.2-0.1,0.5-0.3,0.7-0.4c4.8-3.1,10-4,15.5-3c2.4,0.5,4.9,1.2,7.2,2.2c0.3,0.1,0.6,0.4,1,0.1
				c-1.6-1.3-3.4-2.3-5.3-3.1c-2.9-1-5.9-1.3-8.9-1.2c-2.3,0.1-4.7-0.1-6.7-1.7c0.3,0.5,0.5,1,0.8,1.5c-1.2,0.1-2.3,0.1-3.5,0.3
				c-1.6,0.3-3.2,0.7-4.7,1.1c-2.8,0.7-5.5,1.1-8.4,0.6C40.9,68.2,39.4,67.9,37.8,67.6L37.8,67.6z"/>
			<path class="st0" d="M62.3,86c1.8-1.2,5.1-0.7,6.4,2.1c1.3,2.8,0.8,7.3-3.4,9.2c-3,1.3-5.9,1.1-8.7-0.6c-4-2.5-5.8-6.3-5.4-11
				c0.5-5.6,3.5-9.6,8.4-12.1c6-3.1,12.2-3.3,18.2,0.1c4.7,2.7,8.3,6.5,9.9,11.8c1.8,5.9-0.7,12.1-4.7,15.4
				c-0.5,0.5-1.2,0.8-1.8,1.1c-0.4,0.2-1,0.2-1.5,0.3c-0.1-0.1-0.1-0.2-0.2-0.3c0.2-0.3,0.5-0.6,0.7-0.8c0.8-0.8,1.7-1.7,2.7-2.5
				c2.5-2.7,3.3-5.7,2.2-9.3c-0.9-3.2-2.5-6-5-8.3c-2.3-2.1-5.1-3.2-8.2-3.4c-1.4-0.1-2.7,0.3-3.3,1.8c0,0.1-0.1,0.2-0.1,0.2
				c-0.2,0.3-0.5,0.5-0.8,0.2c-0.2-0.1-0.3-0.5-0.2-0.7c0.3-1.1,1.1-1.8,2.2-2.2c1.5-0.5,3.1-0.4,4.6-0.2c3.4,0.5,5.8,2.4,7.9,5
				c1.1,1.4,1.9,3,2.9,4.5c0.2,0.3,0.3,0.6,0.5,1.1c0-0.4,0-0.5,0-0.7c-1.8-6.1-5.9-10-12.2-11.2c-2.4-0.5-5-0.3-7.1,1.3
				c-1.2,0.9-2.2,2-2.5,3.6c0,0.3-0.1,0.5-0.2,0.8c-0.2,0.7-0.5,1.2-1.2,1.3c-0.8,0.1-1.5,0-1.9-0.7c-0.7-1-0.9-2-0.3-3.2
				c0.7-1.5,1.7-2.8,3.2-3.7c0.3-0.2,0.6-0.4,1-0.7c-3.6,0.4-5.2,2.4-5.9,7c-0.7,0.4-1.5,0.8-2.1,1.3c-2.1,1.9-3,4.4-2.4,7.1
				c0.9,5.2,6.1,8.2,11,6.3c3.4-1.2,4.8-4.9,3.1-8.1c-1.1-1.9-3.2-2.9-4.9-2.2C62.7,86.1,62.5,86,62.3,86L62.3,86z"/>
			<path class="st0" d="M158.2,102.1c-0.8,0.3-1.5,0.2-2-0.2c-1-0.6-1.9-1.3-2.8-2.1c-4.6-5-5.4-12-1.8-17.8c2.9-4.7,6.6-8.3,12-9.8
				c6.6-1.7,12.8-0.6,18,4.1c3.8,3.4,5.3,7.7,4.6,12.6c-0.6,4.5-4.1,8.3-8.2,9.1c-2,0.4-4,0.3-5.8-0.6c-3.5-1.6-4.9-5.7-3.3-9.1
				c1.1-2.5,4.2-3.5,6.6-2.1c-0.4,0-0.6,0-0.8-0.1c-1.8-0.4-3.3,0.2-4.3,1.6c-2.1,2.9-1.5,7.8,3.4,9c6.1,1.5,10-3.3,10.4-7.2
				c0.3-3.4-1.4-6.3-4.7-7.8c-0.2-3.7-1.7-6.4-5.8-7c0.3,0.2,0.6,0.4,0.9,0.6c1.3,0.9,2.4,2.1,3.2,3.7c0.4,1,0.4,1.9-0.1,3
				c-0.4,0.8-1.2,1.1-2,1c-0.9-0.1-1.2-0.7-1.4-1.4c-0.2-1-0.4-2.1-1.2-3.1c-1.4-1.5-3.2-2.5-5.3-2.8c-6.3-0.6-13.1,3.5-15.3,10.6
				c-0.1,0.3-0.2,0.6-0.1,1c0.1-0.3,0.3-0.5,0.4-0.8c1.2-2.4,2.8-4.7,4.9-6.5c2.7-2.3,5.6-3.4,9.1-3c1.3,0.1,2.5,0.5,3.3,1.7
				c0.4,0.7,0.5,1.1,0.1,1.4c-0.4,0.3-0.6,0.1-1.1-0.7c-0.6-1.1-1.6-1.5-2.8-1.5c-3,0-5.7,0.9-8,2.9c-3.5,3-5.6,6.7-6,11.3
				c-0.2,1.8,0.3,3.6,1.4,5c1.1,1.4,2.4,2.7,3.7,4C157.5,101.3,157.8,101.7,158.2,102.1L158.2,102.1z"/>
			<path class="st0" d="M118.8,38.8c2.3,4.2,4.7,8.3,7,12.4c2.3-0.7,4,0.5,5.4,2.1c1.2,1.4,2,3,2.8,4.7c0.9,2.2,1.7,4.6,2.7,6.8
				c0.9,2.1,1.9,4.1,3.7,5.7c0.1,0.1,0.1,0.2,0.2,0.4c-0.5,0.1-0.8-0.3-1.1-0.5c-0.9-0.6-1.7-1.3-2.7-1.9c-0.4-0.3-0.9-0.6-1.3-1
				c-0.6-0.7-0.9-1.5-0.6-2.7c0.5,0.2,0.9,0.4,1.3,0.6c0-0.1,0.1-0.3,0-0.3c-0.8-1.8-1.7-3.6-3.4-4.9c-0.3-0.2-0.6-0.5-0.8-0.8
				c-0.1-0.1-0.1-0.5,0-0.6c0-0.1,0.4-0.1,0.5,0c0.2,0.1,0.5,0.2,0.9,0.4c-0.7-2.3-1.7-4.2-4.1-5.2c0.4-0.3,0.6-0.4,0.8-0.5
				c-0.7-1.1-2.8-1.9-4.3-1.4c3.6,6.3,7.1,12.5,10.6,18.8c3.6,6.2,7.1,12.5,10.7,19c-5.2,0-10.3,0-15.3,0c-0.2,0.2-0.3,0.3-0.3,0.5
				c-1.1,2.2-3.1,3.1-5.5,3.3c-2.5,0.2-5-0.3-7.4-0.9c-2.1-0.5-4.3-0.9-6.4-1.2c-1.4-0.2-2.9,0-4.3,0.1c-0.3,0-0.6,0-0.9,0.1
				c0-0.1,0-0.2-0.1-0.2c1.2-0.4,2.4-0.8,3.7-1.2c0-0.1,0-0.2-0.1-0.3c-6.9,0-13.8,0-20.9,0c7.2-12.6,14.3-25.2,21.3-37.6
				c-1.2-0.6-2.9-0.1-4.3,1.3c0.3,0.2,0.5,0.3,0.7,0.5c-0.8,0.7-1.7,1.4-2.3,2.2c-0.7,0.8-1.2,1.8-1.4,3.1c0.5-0.2,0.9-0.3,1.3-0.4
				c0.4,0.8-0.1,1.2-0.5,1.5c-1.7,1.1-2.5,2.9-3.4,4.5c-0.1,0.2-0.2,0.5-0.3,0.9c0.6-0.3,0.9-0.4,1.4-0.7c0.3,0.9,0,1.5-0.3,2
				c-0.2,0.3-0.5,0.6-0.8,0.9c-1.2,1-2.4,1.9-3.7,3c-0.2,0.1-0.4,0.2-0.7,0.1c0.1-0.1,0.2-0.3,0.3-0.4c1.3-1.2,2.3-2.9,3.1-4.5
				c0.9-2,1.7-4.2,2.5-6.2c0.8-2.1,1.7-4.3,3.3-6.1c0.3-0.4,0.7-0.8,1.1-1.1c1.2-1,2.7-1.8,4.5-1.1C114,47,116.4,42.9,118.8,38.8z
				 M118.8,40.7c-1.3,1.8-26.7,46.7-26.9,47.6c17.9,0,35.9,0,53.9,0C136.9,72.4,127.9,56.6,118.8,40.7z M114.2,90.7l0.1,0.1
				c1.9,0.4,3.9,0.6,5.9,0c0.4-0.1,0.9-0.2,1.4-0.3c0.1,0,0.4,0.2,0.4,0.3s-0.1,0.4-0.2,0.5c-0.2,0.2-0.5,0.3-0.8,0.5
				c1.1,0.6,2.1,0.5,3.3,0.6c1.2,0.1,2.1-0.6,3.3-0.9c0,0.4,0,0.7,0.1,1c2.2-0.6,3.4-1.7,3.5-3.2c-5.2,0-10.4,0-15.3,0
				C115.1,90,114.6,90.4,114.2,90.7z"/>
			<path class="st0" d="M214.5,92.6c-1.6-1-2.8-0.7-3.8,0.7c-0.9,1.3-1,2.8-0.4,4.3c0.1,0.3,0.3,0.6,0.5,0.8c2.1,2.8,5,4,8.4,3.5
				c3.3-0.5,5.5-2.5,6.4-5.8c0.7-2.8-0.2-5.2-2.1-7.2c-0.5-0.6-1.2-0.9-2-0.8c-0.2,0-0.5,0-0.7,0c0.4-1.1,0.6-1.2,3.5-1.2
				c-1.2-1.8-2.5-3.7-2.1-6c0.4-2.2,1.1-4.3,3.3-5.7c-2-1.4-2.9-3.5-3.3-5.7c-0.4-2.3,0.9-4.2,2.2-6.1c-1.4,0-2.8,0.3-3.7-1.1
				c0.4,0,0.6-0.1,0.8-0.1c1,0.1,1.8-0.3,2.4-1.1c4.2-5.1,1.4-11.1-3.6-12.5c-3.4-1-6.4,0.1-8.8,2.5c-1.6,1.6-1.8,4.1-0.6,5.8
				c1,1.5,2.1,1.7,3.9,0.7c-0.8-1.2-1-2.5-0.9-4.1c0.1-0.9,0.3-1.7,1.2-2c1-0.4,1.7,0.2,2.4,0.8c0.6,0.6,1,1.4,1.1,2.3
				c0.2,2-1.5,4.5-3.6,5c-0.9,0.2-1.8,0.1-2.8-0.4c-3-1.6-4-5.4-1.9-8.2c1.6-2.3,4-3.6,6.8-3.9c6-0.7,9.1,3.7,9.7,8.3
				c0.4,2.7-0.2,5.3-0.6,7.9c-0.4,2.2-0.7,4.5-0.9,6.7c-0.1,1.5,0,3.1,0.7,4.6c0.1,0.3,0.1,0.8,0,1.1c-0.9,2.3-0.8,4.7-0.5,7.1
				c0.3,2.3,0.8,4.7,1.2,7.1c0.4,2.4,0.4,4.9-0.4,7.2c-1,2.9-2.8,5-5.8,5.8c-3.5,0.9-8-0.5-10.1-3.5c-2-2.8-1.3-6.6,1.6-8.4
				c1.4-0.8,2.9-0.8,4.1,0.2c1.5,1.1,2.5,2.5,2.2,4.7c-0.2,1.1-0.7,1.9-1.7,2.5c-1.3,0.8-2.5,0.3-2.9-1.1c-0.3-1.3-0.2-2.7,0.4-4
				C214.2,93.1,214.3,92.8,214.5,92.6L214.5,92.6z"/>
			<path class="st0" d="M22.7,57.4c1.5,1,2.8,0.8,3.7-0.5c1.2-1.6,1.2-3.9-0.1-5.6c-1.3-1.8-3.3-2.8-5.5-3.2
				c-2.9-0.5-5.3,0.2-7.3,2.3c-2.2,2.3-2.7,7.6,0.2,10.6c0.6,0.6,1.3,1,2.1,0.9c0.3,0,0.5,0,1,0c-0.9,1.5-2.2,1.3-3.7,1.2
				c1.3,1.9,2.7,3.9,2.2,6.2c-0.4,2.2-1.2,4.2-3.3,5.6c2,1.4,2.9,3.5,3.3,5.6c0.4,2.3-0.8,4.2-2.2,6.2c0.8,0,1.5-0.1,2.1,0
				c0.6,0.1,1.2,0.4,1.5,1.1c-0.3,0-0.4,0.1-0.6,0.1c-1.4-0.2-2.2,0.5-3.1,1.5c-2.8,3.5-1.9,9.8,2.9,11.8c3.3,1.4,8,0.3,10.1-2.4
				c1.4-1.7,1.5-4,0.3-5.7c-1-1.4-2.1-1.6-3.8-0.7c0.1,0.3,0.2,0.5,0.4,0.8c0.5,1.1,0.6,2.2,0.4,3.5c-0.2,1-0.9,1.7-1.7,1.8
				c-0.8,0.1-1.9-0.4-2.3-1.2c-0.1-0.2-0.2-0.5-0.3-0.8c-0.5-1.8,0.4-4.3,1.9-5.5c1.3-1,3-1,4.4-0.2c3.1,1.9,3.7,5.7,1.4,8.5
				c-2.5,3-5.8,4-9.6,3.4c-3.3-0.6-6.2-4.2-6.6-7.6c-0.3-2.8,0.2-5.5,0.6-8.3c0.3-2.1,0.7-4.4,0.9-6.5c0.2-1.6,0-3.3-0.6-4.8
				c-0.1-0.3-0.2-0.8,0-1.1c1-2.4,0.8-4.9,0.5-7.3c-0.3-2.3-0.8-4.7-1.2-6.9c-0.3-2.2-0.5-4.5,0.1-6.6c0.9-3.2,3-5.4,6.2-6.3
				c3.5-1,8.2,0.8,10.1,3.9c1.8,2.8,0.8,6.6-2.2,8.2c-1.2,0.6-2.4,0.6-3.6-0.2c-1.7-1.1-2.9-2.5-2.4-4.8c0.2-1.1,0.7-1.9,1.6-2.5
				c1.3-0.8,2.5-0.4,2.9,1.1c0.3,1.3,0.3,2.7-0.4,4C23.1,56.9,22.9,57.1,22.7,57.4z"/>
			<path class="st0" d="M84.4,128.8c0-0.3-0.1-0.6-0.1-0.8c1.1-0.6,2.2-0.7,3.4-0.3c2.3,0.7,4.6,1.7,6.7,2.9
				c1.2,0.6,2.4,1.4,3.7,1.9c1.3,0.5,2.8,0.8,4.2,1.2c0.2,0.1,0.4,0,0.6,0c0.1,0,0.1-0.1,0.3-0.3c-0.4-0.2-0.7-0.5-1.1-0.6
				c-0.8-0.3-1.7-0.4-2.5-0.6c-2.1-0.5-3.9-1.6-5.4-3.2c-0.7-0.8-1.1-1.7-0.9-2.8c0.1-0.5,0.1-1,0.1-1.7c0.7,0.4,1.3,0.8,2.2,1.3
				c-0.2-0.5-0.2-0.9-0.4-1.2c-1-1.3-0.7-2.7,0.1-4c0.2-0.4,0.5-0.8,0.8-1.2c0.3,0.4,0.6,0.7,0.9,1.1c0.4-0.5,0.7-0.9,1-1.4
				c0.5-0.9,1.3-1.4,2.3-1.5c0.8-0.1,1.5,0.2,1.9,0.9c-0.1,0.1-0.2,0.2-0.3,0.2c-2.2,0.2-3.7,1.4-4.1,3.6
				c-1.1,6.7,5.2,11.1,10.5,9.7c2-0.5,3.5-1.8,4.4-3.7c0.2-0.5,0.4-1.2,1-1.3c0.7-0.1,1.5,0,2.3,0c0.5,0.1,0.7,0.5,0.5,0.9
				c-0.2,0.7-0.4,1.4-0.7,2c-1.3,2.5-3.5,4.3-6.2,5.1c-1.7,0.5-3.5,0.7-5.3,0.7c-1.1,0-2.2,0.1-3.4,0.2c-0.2,0-0.4-0.1-0.8-0.1
				c0.2-0.4,0.4-0.8,0.6-1.3c-0.3-0.1-0.7-0.3-1-0.4c-1.5-0.3-3.2-0.5-4.7-0.7c-0.9-0.1-1.8,0.3-2.7,0.7c-0.5,0.2-1,0.5-1.7,0.2
				c-0.1-0.3-0.1-0.7-0.2-1.2c-0.6,0.5-1,1-1.5,1.4c-1.1,0.9-1.9,0.8-3-0.3c0.8-0.7,1.6-1.4,2.7-2.3c-0.5-0.2-0.8-0.4-1.2-0.6
				c1.1-1.2,2.3-1.1,3.8-1.3c-0.4-0.1-0.5-0.2-0.7-0.2c-1.7-0.2-3.4,0-5.1,0.4c-0.5,0.1-0.9,0.4-1.4,0.7c-0.2,0.1-0.4,0.3-0.7,0.5
				c-0.7,0.3-0.9,0.2-1.1-0.5c0-0.1,0-0.3-0.1-0.5c-1.3,0.3-2.5,1.8-2.7,3.3c0.2,0,0.5,0,0.7,0.1c0.7,0.1,1,0.5,0.8,1.2
				c-0.1,0.7-0.6,1.2-1.2,1.3c-0.7,0.1-1.3-0.1-1.7-0.7c-0.7-1-0.6-2-0.2-3.2c0.4-1,1.1-1.8,2-2.3c1-0.5,2-0.8,3.1-1.2
				C83.4,129,83.9,128.9,84.4,128.8L84.4,128.8z"/>
			<path class="st0" d="M134.7,118.7c1.2-1.1,3-0.8,4,0.4c0.4,0.5,0.8,1.1,1.2,1.7c0.4-0.4,0.6-0.8,0.9-1.1c0.5,0.5,1.5,2.2,1.7,2.8
				c0.4,1.1-0.6,2-0.7,3.3c0.5-0.3,1-0.6,1.4-0.9c0.6,0.5,0.7,1.1,0.6,1.7c-0.2,1.3-0.7,2.5-1.8,3.4c-1.9,1.5-4.1,2.5-6.5,3
				c-0.6,0.1-1.3,0.1-1.9,0.6c0.3,0.5,0.7,0.5,1.2,0.4c1.3-0.1,2.5-0.4,3.8-1c2.1-1,4.2-2.1,6.3-3.1c1.2-0.6,2.5-1.1,3.8-1.6
				c1.3-0.6,2.5-0.5,3.8,0.2c0,0.3-0.1,0.6-0.1,0.9c0.8,0.1,1.6,0.2,2.3,0.3c2.1,0.3,4.2,2.3,4.6,4.4c0.1,0.6,0,1.3-0.1,1.9
				c-0.2,0.7-0.7,1-1.5,1c-0.7,0-1.2-0.3-1.6-0.9c-0.4-0.8-0.1-1.4,0.8-1.5c0.2,0,0.4,0,0.6-0.1c0.3-1.3-0.6-2.4-2.5-3.4
				c-0.1,0.3-0.2,0.6-0.3,0.9c-0.6,0.3-1.1,0-1.6-0.4c-1.9-1.6-4.3-1.3-6.5-1.1c-0.2,0-0.4,0.1-0.8,0.3c1.3,0.5,2.8-0.4,3.8,1
				c-0.3,0.2-0.6,0.4-1,0.7c0.8,0.7,1.5,1.4,2.3,2c-0.4,0.7-1,0.7-1.5,0.7c-0.6,0-1-0.2-1.4-0.5c-0.4-0.4-0.8-0.7-1.3-1.2
				c-0.1,0.5-0.2,0.9-0.3,1.3c-0.7,0.1-1.4-0.2-1.9-0.4c-1.4-0.7-2.9-0.6-4.4-0.3c-0.9,0.2-1.8,0.3-2.8,0.4c-0.3,0-0.6,0.1-0.9,0.2
				c0.3,0.6,0.5,1,0.7,1.5c-0.5,0.4-0.9,0.1-1.2,0c-0.8-0.2-1.6-0.4-2.4-0.5c-1.7-0.2-3.5-0.2-5.1-0.5c-3.6-0.7-6-3-7.4-6.2
				c-0.7-1.6-0.3-2.2,1.5-2.2c0.9,0,1.5,0.3,1.9,1.2c1.3,3.1,3.8,4.3,6.9,4.3c2.7,0,4.9-1,6.6-3.2c1.6-2,2-4.3,1.3-6.8
				c-0.5-1.7-1.5-3.1-3.5-3.5C135.1,119,135,118.9,134.7,118.7L134.7,118.7z"/>
			<path class="st0" d="M103,114.7c0.4-1.5,1.5-2.1,2.8-2.3c1.3-0.3,2.4,0.3,3.9,0.6c-0.4-0.5-0.8-1-1.2-1.5
				c1.3-0.4,2.4-0.1,3.6,0.5c0.1-0.3,0.3-0.6,0.4-0.9c1.1,0.1,2,0.6,2.7,1.6c0.5,0.8,0.9,1.6,1.3,2.4c0.2,0.4,0.3,1,1,1.2
				c0.4-0.6,0.3-1.2,0-1.8c-0.6-1.4-1.2-2.8-1.7-4.2c-0.2-0.5-0.2-1.2-0.2-1.7c0-0.3,0.2-0.5,0.4-0.9c0.4,0.3,0.7,0.5,1.1,0.8
				c1.2-0.4,2.5-1.8,3.6,0.3c0.4-0.4,0.8-0.6,1.2-1c0.6,0.4,0.7,0.9,0.5,1.5c-0.2,0.7-0.4,1.5-0.7,2.1c-0.4,0.9-1,1.8-1.4,2.9
				c-0.2,0.4-0.4,0.9-0.5,1.3c-0.1,0.2,0.1,0.6,0.2,0.8c0.3-0.1,0.6-0.2,0.8-0.4c0.2-0.2,0.3-0.6,0.4-0.8c0.4-0.7,0.7-1.5,1.2-2.2
				c0.6-0.9,1.5-1.5,2.8-1.7c0.2,0.2,0.3,0.5,0.5,0.8c1.2-0.2,2.3-0.5,3.8-0.3c-0.4,0.5-0.7,0.8-1.1,1.2c0.9,0,1.6,0,2.3,0
				c0.9,0,1.7,0,2.4,0.5c0.8,0.5,1.3,1.1,1.5,2.2c-0.5-0.2-0.7-0.3-0.9-0.4c-1.5-1.2-3.3-1.2-5-0.9c-2.8,0.5-4.9,2-6.7,4
				c-0.4,0.4-0.7,0.8-1,1.2c-1.1,1.2-2.4,1.3-3.8,0.2c-0.7-0.7-1.4-1.4-2.1-2.1c-1.5-1.7-3.5-3-5.7-3.5c-1.6-0.3-3.3-0.4-4.9,0.3
				C103.8,114.6,103.4,114.6,103,114.7L103,114.7z"/>
			<path class="st0" d="M131.3,51.4c0.2-0.2,0.4-0.4,0.5-0.6c-0.1-0.1-0.1-0.2-0.2-0.3c-1.7-1-3.6-1.9-5.6-2.4
				c-1-0.3-1.6-0.8-1.8-1.8c15.4,2.7,25.1,19.9,19.5,34.4c-0.7-0.7-0.9-1.5-0.6-2.7c0.6-1.8,0.8-3.8,0.7-5.8c-3.3-1.7-5-4.7-6.4-8
				c-0.8-2-1.5-4.1-2.4-6.1c-0.6-1.3-1.2-2.8-2-4c-1.2-1.8-3-3.2-5.2-3.5c-0.2,0-0.4-0.2-0.5-0.2c-0.1-0.4,0.2-0.6,0.5-0.5
				c0.6,0.2,1.3,0.4,1.9,0.7C130,50.7,130.5,51.1,131.3,51.4L131.3,51.4z M143.6,71.5c0.7-6.1-4.4-16.2-9.3-19
				c0.2,1.4,0.5,3,0.8,4.5c0.1,0.4,0.1,0.7,0.6,0.7c0.6-0.9-0.7-2,0.3-2.8c0.5,0.4,0.9,0.8,1.4,1.1c0.8,0.6,1,1.4,0.8,2.4
				c-0.1,0.5-0.2,1-0.3,1.5c-0.2,1.5-0.3,3,0.3,4.4c0.1,0.2,0.3,0.4,0.5,0.7c0.1,0,0.2-0.1,0.2-0.1c0-0.4,0-0.8,0-1.1
				c0-0.5,0-1,0.1-1.4c0.1-0.6,0.5-0.7,1-0.4c1,0.6,1.9,1.4,1.4,2.9c0.2,0.1,0.3,0.1,0.5,0.2c0.1,0.1,0.2,0.2,0.4,0.3
				C141.6,67.6,141.6,69.7,143.6,71.5z"/>
			<path class="st0" d="M113.4,46.2c-0.3,1.2-1,1.7-2.1,2c-1.9,0.5-3.7,1.3-5.5,2.5c0.2,0.3,0.4,0.4,0.6,0.7c0.7-0.3,1.4-0.7,2.1-1
				c0.7-0.3,1.3-0.6,2.3-0.3c-0.3,0.2-0.5,0.4-0.7,0.5c-2.9,0.5-4.7,2.3-6,4.7c-0.6,1.1-1,2.2-1.5,3.5c-0.9,2.1-1.7,4.4-2.7,6.5
				c-0.6,1.3-1.4,2.5-2.2,3.8c-0.9,1.3-2,2.4-3.8,3.1c0.1,1,0.1,1.9,0.2,3c0.1,1,0.3,2,0.6,3c0.4,1,0,1.7-0.6,2.5
				C88.7,67.4,96.7,49.6,113.4,46.2z M94,71.4c0.3-0.2,0.6-0.4,0.7-0.6c1-1.2,1.2-2.7,0.8-4.3c-0.1-0.4-0.2-0.7-0.3-1.1
				c0.3-0.2,0.6-0.3,0.9-0.5c-0.4-1.3,0.3-2.1,1.3-2.8c0.7-0.4,1-0.3,1.2,0.5c0.1,0.5,0,0.9,0,1.4c0,0.3-0.2,0.7,0.3,1
				c0.7-0.9,1-1.9,0.9-3.1c-0.1-1-0.3-2-0.4-3c-0.1-0.9-0.4-1.7,0.3-2.5c0.5-0.5,1-1.1,1.6-1.6c0.9,0.8,0,2,0.7,3.2
				c0.8-1.8,0.5-3.7,1.3-5.4C98.6,54.8,93.3,65.6,94,71.4z"/>
			<path class="st0" d="M220.3,27.4c0.9-1.4,2.1-1.3,3.6-1.1c-0.2-0.3-0.3-0.5-0.4-0.7c-0.2-0.3-0.4-0.5-0.5-0.8
				c-1.8-3-1.5-6.5,0.7-9.2c0.5-0.6,0.7-0.7,1.7-1.1c0.1,0.3,0.2,0.6,0.1,0.9c-1,3.3-0.4,6.4,0.1,9.7c0.3,2,0.7,4.2,0.9,6.2
				c0.3,2.1-0.1,4.2-1,6.2c-1.6,3.8-5.3,5.7-9.4,4.9c-2.4-0.5-4.6-1.5-6.1-3.6c-2.1-2.8-1.4-6.4,1.5-8.3c1.5-0.9,3-0.9,4.3,0.2
				c1.5,1.1,2.4,2.4,2.1,4.5c-0.1,1-0.6,1.9-1.5,2.5c-1.4,1.1-2.9,0.5-3.2-1.2c-0.2-1.5-0.1-3,0.8-4.3c-1-1-2.3-1-3.4,0
				c-1.2,1.3-1.5,2.9-1,4.6c0.4,1.1,1.1,2,2,2.7c2.8,1.9,5.7,2.8,8.9,1.3c4.5-2,6.4-7.4,2.7-12.1c-0.7-0.9-1.6-1.4-2.8-1.1
				C220.7,27.6,220.6,27.5,220.3,27.4L220.3,27.4z"/>
			<path class="st0" d="M97.6,15.5c0.1-0.3,0.1-0.6,0.2-1c0.4,0.1,0.8,0.1,1.2,0.3c1.1,0.5,2.1,0.6,3.4,0.4c0.9-0.2,1.9-0.3,3-0.5
				c-0.1-0.4-0.2-0.7-0.3-0.9c0.1-0.1,0.1-0.2,0.2-0.2c1.8,0.1,3.7,0.1,5.4,0.4c2.5,0.3,4.5,1.6,5.8,3.8c0.4,0.7,0.8,1.4,0.6,2.3
				c-0.5,0.4-1.1,0.4-1.7,0.3c-0.3,0-0.5-0.3-0.8-0.5c-0.1-0.1-0.1-0.2-0.2-0.3c-1.3-3-4.4-3.8-7.2-2.8c-3,1.1-4.6,4.1-4,6.9
				c0.3,1.7,1.3,2.8,3.2,2.8c-0.7,0.8-1.3,1-2.2,0.4c-0.6-0.4-1.1-1.1-1.8-1.9c-0.1,0.3-0.2,0.6-0.4,1c-0.8-0.8-1.3-1.5-1.2-2.4
				c0-0.7,0.4-1.5,0.7-2.4c-0.6,0.3-1,0.5-1.5,0.8c0-0.3,0.1-0.5,0-0.7c-0.5-1.4,0.2-2.3,1.2-3.2c1.2-1,2.7-1.6,4.2-1.9
				c0.7-0.1,1.3-0.2,2-0.9c-0.5,0-0.8,0-1.1,0c-1.6,0.3-3,1-4.4,1.7c-1.8,0.9-3.7,1.7-5.5,2.5c-1.2,0.5-1.7,0.4-3.1,0
				c0-0.2,0-0.5-0.1-0.6c-0.2-0.2-0.5-0.3-0.7-0.3c-1.2-0.1-2.2-0.6-3.2-1.4c-0.6-0.5-1-1.1-1.1-1.9c-0.1-0.7,0-1.3,0.5-1.8
				c0.4-0.5,1.1-0.6,1.5-0.1c0.3,0.3,0.4,0.7,0.5,1.2c0,0.3-0.2,0.4-1.2,0.6c0.3,1.1,1,1.8,1.9,2.5c0.1-0.3,0.3-0.6,0.4-1
				c0.4,0.2,0.8,0.3,1.1,0.5c1.4,0.8,3,1,4.6,1c0.3,0,0.6-0.2,0.8-0.4c-0.9-0.2-1.9,0-2.8-0.8c0.2-0.2,0.3-0.4,0.5-0.7
				c-0.6-0.5-1.1-1-1.7-1.5c0.7-0.8,1.3-0.9,2-0.3C96.8,14.7,97.2,15.1,97.6,15.5z"/>
			<path class="st0" d="M214.5,117.9c-0.8-1.2-1-2.7-0.9-4c0-0.1,0-0.2,0-0.4c0.3-1.8,1.7-2.3,3.3-1.2c1.3,1,1.8,3,1.2,4.6
				c-0.6,1.3-1.5,2.2-2.9,2.9c-1.2,0.5-2.3,0.3-3.4-0.3c-3-1.8-3.7-5.6-1.5-8.4c2.2-2.9,6.6-4.3,10.1-3.4c3.4,0.9,5.1,3.4,5.9,6.5
				c0.6,2.1,0.5,4.3,0.1,6.4c-0.4,2.2-0.8,4.6-1.2,6.8c-0.3,2.2-0.4,4.5,0.2,6.7c0.1,0.3,0,0.7,0.1,1c-1.7-0.3-3.2-2.3-3.8-5.3
				c-0.3-1.7-0.1-2.4,2-6.4c-1.2,0.1-2.5,0.3-3.5-1c0.3-0.1,0.5-0.1,0.7-0.1c1,0.1,1.7-0.3,2.3-1c2.2-2.7,3-6,1.2-9.1
				s-5.3-4.6-8.7-3.8c-1.8,0.4-3.6,1.2-4.8,2.8c-1.5,1.7-1.7,4.1-0.5,5.8C211.6,118.6,212.7,118.8,214.5,117.9z"/>
			<path class="st0" d="M55.7,24.8c-1.1,0.7-2.2,1-3.6,0.9c-0.5,0-1-0.1-1.4-0.3C49.6,25,49.2,24,49.8,23c0.6-1.2,1.6-1.8,2.9-2
				c2.4-0.4,5.3,2,5.2,4.6c0,0.6-0.2,1.2-0.5,1.7c-1.6,3.1-5.4,3.9-8.2,1.9c-2.2-1.6-3.3-3.9-3.8-6.4c-1-5.6,3.9-9.9,8.6-10.1
				c2.8-0.1,5.4,0.4,8.2,0.8c1.6,0.3,3.2,0.6,4.8,0.8c1.8,0.2,3.7,0.1,5.4-0.4c0.2-0.1,0.5,0,0.8,0c0,0.3-0.1,0.6-0.1,0.9
				c0,0.1-0.1,0.2-0.2,0.3c-1.9,2.3-6.1,3.3-8.8,1.8c-0.8-0.4-1.5-0.9-2.4-1.4c-0.1,1.3,0.3,2.8-1.2,3.5c0-0.3-0.1-0.5-0.1-0.7
				c0.2-1.1-0.3-1.8-1.1-2.5c-3.4-3.1-11.2-2.9-12.7,3.9c-0.7,3.4,0.3,6.4,3,8.7c1.7,1.5,4,1.5,5.7,0.3
				C56.5,27.4,56.7,26.3,55.7,24.8z"/>
			<path class="st0" d="M100,90.3c1.1-0.3,1.9-0.1,2.8,0.7c0.6,0.6,1.4,1.1,2.2,1.7c2.4-1.1,5.1-1.2,7.6-0.9
				c2.2,0.3,4.6,0.8,6.8,1.2c1.9,0.4,3.9,0.9,5.9,0.8c2.2-0.1,4.3-0.7,5.8-2.3c0.2-0.2,0.4-0.3,0.8-0.3c-0.1,0.2-0.1,0.5-0.3,0.6
				c-0.8,0.6-1.7,1.2-2.5,1.8c-0.3,0.2-0.7,0.3-0.3,0.9c0.3-0.2,0.7-0.3,1-0.5c1.8-0.9,3.6-2,5.1-3.4c0.8-0.7,1.6-0.7,2.5-0.6
				C128.1,100.7,110.1,101.2,100,90.3L100,90.3z M119.5,96.9c-2.9-3.4-4.8-4.4-6.4-4c0.1,0.5,0.5,0.5,0.8,0.7
				c0.4,0.3,0.9,0.6,1.2,0.9c0.4,0.5,0.2,0.9-0.4,1c-0.8,0.1-1.7,0.1-2.5-0.3c-0.3-0.2-0.7-0.3-0.9,0.3
				C114,96.6,116.7,97,119.5,96.9z M125.2,96.1c0-0.1,0-0.2,0-0.3c-0.7-0.3-1.4-0.6-2.1-0.9c-0.7-0.2-1.3-1-2.3-0.5
				c1,0.7,1.8,1.3,2.9,2C124,96.3,124.6,96.2,125.2,96.1z M110.1,95.4c-0.9-1.7-2.4-2.4-4.1-1.9c0.6,0.3,1.2,0.7,1.8,1
				C108.6,94.7,109.4,95.1,110.1,95.4z"/>
			<path class="st0" d="M22.7,32.1c0.8,1.2,1.1,2.5,0.9,3.9c-0.2,1.3-0.9,2.1-1.9,2.1c-1.2,0.1-2.1-0.7-2.5-1.9
				c-0.5-1.9,0.3-4.4,1.9-5.6c1.3-1,2.8-1,4.2-0.2c3,1.7,3.7,5.5,1.7,8.3c-2.1,2.9-6.5,4.5-10,3.6c-2.7-0.7-6-3.8-6.4-7.9
				c-0.3-2.8,0.2-5.3,0.7-8c0.3-2,0.6-4,0.9-6c0.2-1.6,0.1-3.2-0.4-4.7c-0.1-0.4-0.3-0.8,0.3-1.2c2.2,1.1,3,3.3,3.4,5.5
				c0.5,2.4-0.8,4.4-2.1,6.3c2.3-0.1,3,0.1,3.5,1.2c-0.2,0-0.3,0.1-0.4,0.1c-1.2-0.3-2,0.3-2.8,1.1c-1.9,2.4-2.7,5.2-1.3,8.1
				c1.3,3.1,3.9,4.7,7.1,4.7c2.7,0,4.9-1,6.7-3c1.6-1.7,1.7-4.3,0.4-5.9C25.4,31.3,24.3,31.2,22.7,32.1z"/>
			<path class="st0" d="M206.7,125.2c1-1.5,0.8-2.7-0.5-3.7c-1.5-1.2-3.7-1.2-5.4-0.1c-2.5,1.6-4.1,5.6-3.5,8.8
				c0.6,3.2,3.3,5.7,6.5,6.2c2.7,0.4,4.9-0.6,6.7-2.4c0.5-0.5,0.7-1.1,0.7-1.9c0-0.3,0-0.5,0-0.9c1.5,0.9,1.3,2.2,1.1,3.7
				c0.8-0.5,1.4-1,2.1-1.3c2.9-1.5,7-0.7,9.2,1.7c0.1,0.1,0.2,0.2,0.3,0.4c0.1,0.2,0.1,0.5,0,0.7c0,0.1-0.4,0.2-0.6,0.1
				c-0.6-0.1-1.2-0.3-1.7-0.4c-2.3-0.4-4.6,0-6.9,0.3c-2.7,0.4-5.2,0.8-7.9,1.1c-1.1,0.1-2.3,0-3.5-0.2c-2.9-0.5-4.8-2.2-6.2-4.7
				c-1-1.7-1.1-3.6-0.7-5.4c0.5-2.4,1.5-4.6,3.7-6.1c2.8-2,6.6-1.2,8.3,1.8c0.8,1.3,0.7,2.8-0.2,4c-1,1.4-2.3,2.4-4.3,2.3
				c-1.3-0.1-2.3-0.7-3-1.8c-0.7-1.2-0.3-2.3,1-2.8c1.3-0.4,2.7-0.2,4,0.3C206.2,124.9,206.5,125.1,206.7,125.2L206.7,125.2z"/>
			<path class="st0" d="M181.4,125.1c0.8-0.3,1.6-0.6,2.4-0.7c0.8-0.1,1.7,0,2.5,0.2c1.2,0.3,1.6,1.4,1,2.7c-0.5,1-1.4,1.6-2.4,1.8
				c-2.5,0.7-5.7-1.8-5.6-4.5c0-0.4,0.1-0.9,0.3-1.3c0.9-2.2,4.6-4.7,7.9-2.7c2,1.2,3.3,3.1,4,5.2c2.2,6.8-3.5,11.4-8,11.6
				c-2.9,0.1-5.7-0.3-8.5-0.8c-1.7-0.3-3.5-0.6-5.2-0.8c-1.5-0.2-3,0-4.5,0.4c-0.3,0.1-0.5,0.2-0.8,0.2c-0.4,0.1-0.7-0.3-0.5-0.7
				c0.2-0.3,0.4-0.6,0.6-0.9c2.3-2.4,6.3-3,9.2-1.3c0.6,0.3,1.1,0.7,1.7,1.1c0.1-2.9,0.2-2.9,1.2-3.5c0,0.1,0.1,0.2,0.1,0.3
				c-0.3,1.5,0.6,2.5,1.7,3.4c3.8,2.7,10.7,1.7,12-4.4c0.7-3.4-0.3-6.4-3-8.7c-1.7-1.5-4-1.5-5.7-0.3
				C180.7,122.5,180.5,123.7,181.4,125.1L181.4,125.1z"/>
			<path class="st0" d="M30.4,125.1c0.8-0.2,1.5-0.6,2.3-0.7c0.8-0.1,1.7-0.1,2.5,0.1c1.3,0.3,1.7,1.4,1.1,2.7
				c-0.8,1.5-2.9,2.3-4.6,1.7c-1.5-0.5-2.5-1.5-3.2-3.1c-0.5-1.2-0.3-2.3,0.4-3.4c1.4-2.2,5-4.1,8.4-1.4c2.8,2.2,4.3,6.5,3.4,9.9
				c-0.9,3.3-4.4,6.1-8,6.4c-2.5,0.2-5.1-0.2-7.6-0.6c-1.8-0.3-3.8-0.6-5.6-0.9c-1.8-0.3-3.7-0.1-5.4,0.4c-0.2,0-0.3,0.1-0.5,0.1
				c-0.4,0-0.7-0.3-0.5-0.7c0.1-0.3,0.4-0.5,0.6-0.8c2.2-2.4,6.4-3.1,9.3-1.3c0.6,0.3,1.1,0.7,1.8,1.2c-0.1-1.4-0.3-2.8,1.1-3.7
				c0,0.3,0.1,0.6,0.1,0.8c-0.2,0.9,0.2,1.7,0.8,2.3c1.9,1.7,4.2,2.7,6.8,2.3c1.1-0.2,2.1-0.7,3.1-1.5c2.9-2.8,3.9-6.1,2.9-9.9
				c-0.7-2.5-2.8-4.2-5.4-4.4c-1.4-0.1-2.7,0.4-3.6,1.4C29.5,123.1,29.6,123.9,30.4,125.1z"/>
			<path class="st0" d="M55.7,125.2c0.9-1.7,0.7-2.8-0.6-3.8c-1.3-0.9-2.7-1.1-4.2-0.5c-0.4,0.2-0.8,0.4-1.2,0.6
				c-4.6,3.2-4.6,10.4,0,13.6c3.5,2.4,7.2,1.3,9.7-0.9c0.6-0.6,1-1.3,0.9-2.1c0-0.2,0-0.5,0-0.7c1.1,0.5,1.2,0.8,1.2,3.5
				c0.5-0.3,1-0.6,1.4-0.9c2.9-1.8,6.2-1.6,8.9,0.4c0.5,0.4,0.9,0.8,1.2,1.3c0.1,0.1,0.1,0.5,0,0.6c-0.1,0.1-0.4,0.2-0.6,0.2
				c-0.5-0.1-1.1-0.3-1.6-0.4c-2.4-0.5-4.8,0-7.1,0.3c-2.7,0.4-5.2,0.8-7.9,1.1c-1,0.1-2,0-3.1-0.1c-2.5-0.4-4.6-1.8-6.1-3.9
				c-1.3-1.7-1.6-3.8-1.3-5.9c0.4-2.7,1.5-4.9,3.7-6.5c2.7-2,6.5-1.3,8.2,1.5c1,1.6,0.8,3.4-0.5,4.8c-1.4,1.6-3.3,2.2-5,1.5
				c-0.8-0.3-1.4-0.9-1.9-1.6c-0.7-1.2-0.2-2.2,1-2.7c1.3-0.4,2.7-0.3,4,0.3C55.1,124.9,55.4,125,55.7,125.2L55.7,125.2z"/>
			<path class="st0" d="M22.7,117.9c1.6,1,2.8,0.7,3.8-0.6c0.9-1.3,1.1-2.8,0.5-4.3c-0.1-0.3-0.3-0.6-0.4-0.8
				c-2.2-3.6-9.9-5.9-13.8-0.2c-1.5,2.2-1.7,6.9,1,9.7c0.6,0.6,1.3,0.9,2.1,0.8c0.2,0,0.5,0,0.8,0c-0.9,1.5-2.2,1.2-3.7,1.2
				c1.3,1.9,2.5,3.8,2.2,6.1c-0.3,1.7-0.8,3.4-2,4.7c-0.4,0.4-0.8,0.9-1.6,0.9c0-0.3-0.1-0.6,0-0.9c0.9-2.8,0.5-5.5,0.1-8.4
				c-0.4-2.7-0.9-5.2-1.2-7.9c-0.4-3.8,0.7-7,4-9.4c1.7-1.3,3.8-1.7,5.9-1.4c2.4,0.4,4.5,1.3,6.2,3.2c3,3.3,1.5,6.5-0.6,8.4
				c-1.8,1.6-4.3,1.3-5.7-0.7c-0.9-1.3-1.4-2.9-1-4.5c0.1-0.3,0.2-0.5,0.3-0.8c0.4-0.8,1.4-1.3,2.3-1.2c0.8,0.1,1.5,0.8,1.7,1.8
				c0.2,1.1,0.1,2.2-0.3,3.4C23.2,117.3,23,117.5,22.7,117.9L22.7,117.9z"/>
			<path class="st0" d="M181.4,24.8c-0.9,1.6-0.8,2.7,0.5,3.7c1.5,1.2,3.3,1.3,5,0.3c1.8-1.2,3.1-3,3.7-5c1.4-4.8-1.7-9.6-6.6-10.1
				c-2.5-0.3-4.6,0.7-6.3,2.5c-0.5,0.5-0.7,1.1-0.6,1.7c0,0.3,0,0.5,0,0.8c-1-0.4-1-0.4-1.3-3.4c-0.5,0.3-0.9,0.5-1.3,0.8
				c-3.3,2.3-7,1-9.2-0.7c-0.4-0.3-0.7-0.7-1-1.2c-0.3-0.4,0-0.8,0.5-0.7c0.1,0,0.2,0.1,0.3,0.1c2.4,0.8,5,0.6,7.5,0.2
				c2.4-0.4,4.8-0.8,7.2-1.2c2-0.3,4-0.2,5.9,0.4c5.1,1.5,7.5,6,5.9,11.1c-0.6,1.9-1.6,3.7-3.4,4.9c-2.4,1.7-5.8,1.3-7.6-1
				c-1.7-2-1.3-4.7,1-6.1c1.2-0.7,2.4-1,3.9-0.8c0.3,0,0.7,0.2,1,0.3c0.9,0.5,1.4,1.2,1.3,2.2c0,0.9-0.7,1.4-1.5,1.7
				c-1.2,0.5-2.4,0.3-3.6-0.2C182.1,25.2,181.8,25,181.4,24.8L181.4,24.8z"/>
			<path class="st0" d="M212.6,15.4c-0.1,1.3,0.2,2.7-1.2,3.5c0-0.3-0.1-0.4-0.1-0.6c0.2-1.1-0.3-2-1.1-2.7c-2.8-2.1-5.9-2.8-9-1
				c-3,1.7-4.5,5.3-3.7,8.6c0.4,1.7,1.1,3.3,2.3,4.5c1.8,1.8,4.2,2.2,6.2,0.9c1.4-1,1.7-2.1,0.7-3.8c-0.7,0.3-1.4,0.6-2.1,0.8
				c-0.8,0.2-1.7,0.2-2.5-0.1c-0.8-0.3-1.5-0.8-1.5-1.7c0-1,0.4-1.8,1.4-2.2c0.6-0.3,1.3-0.4,2-0.3c1.5,0,3,0.6,4,1.8
				c1.1,1.2,1.2,2.9,0.4,4.3c-1.7,3-5.4,3.9-8.3,1.8c-2.1-1.5-3.3-3.7-3.7-6.1c-0.9-4.7,1.6-9,7.2-10.2c2.2-0.5,4.5-0.3,6.6,0.1
				c2.3,0.4,4.7,0.8,7.1,1.2c1.9,0.3,3.8,0.2,5.7-0.3c0.2-0.1,0.4-0.1,0.6-0.2c0.4,0,0.7,0.3,0.5,0.7c-0.2,0.3-0.5,0.7-0.7,0.9
				c-2.4,2.4-6.3,2.9-9.2,1.1C213.8,16.1,213.2,15.7,212.6,15.4L212.6,15.4z"/>
			<path class="st0" d="M30.5,24.8c-1,1.4-0.8,2.7,0.4,3.7c1.7,1.3,4,1.3,5.7-0.1c2.1-1.7,3.2-4.1,3.2-6.7c0.1-4.1-3-7.6-7-8
				c-2.4-0.2-4.5,0.8-6.2,2.4c-0.5,0.5-0.8,1.2-0.7,2c0,0.2,0,0.5,0,0.8c-1.4-0.8-1.3-2.1-1.2-3.6c-0.6,0.4-1,0.6-1.4,0.9
				C20.4,18.1,17,18,14.4,16c-0.4-0.3-0.8-0.7-1.1-1.1c-0.2-0.2-0.4-0.7-0.3-0.9c0.2-0.4,0.6-0.2,0.9-0.1c1.7,0.5,3.6,0.7,5.3,0.4
				c2-0.3,4-0.6,6-1c2.1-0.4,4.4-0.7,6.5-0.6c3.2,0.1,5.6,1.4,7.5,4c1.5,1.9,1.8,4.2,1.3,6.6c-0.5,2.4-1.6,4.6-3.8,6.1
				c-2.8,1.9-6.5,1-8.2-1.9C28,26,28,24.7,29,23.5c1.4-1.7,3.3-2.3,5.4-2c0.4,0.1,0.9,0.3,1.3,0.6c1.3,1.2,1,3.1-0.7,3.7
				c-1.2,0.4-2.4,0.2-3.7-0.3C31,25.1,30.7,24.9,30.5,24.8z"/>
			<path class="st0" d="M132.4,13.1c-0.2,0.5-0.4,0.8-0.6,1.2c0.9,0.1,1.7,0.3,2.5,0.4c0.8,0.1,1.7,0.2,2.5,0.1
				c0.8-0.1,1.6-0.5,2.4-0.7c0.1,0.4,0.2,0.6,0.3,0.9c0.1,0,0.2,0,0.3-0.1c0.2-0.2,0.4-0.4,0.6-0.5c0.7-0.6,1-0.6,2.2,0
				c-0.5,0.5-1,1-1.5,1.6c0.2,0.2,0.3,0.4,0.5,0.7c-0.6,0.9-1.6,0.3-2.5,0.6c1.6,0.6,3.8,0.4,5-0.4c0.1-0.1,0.3-0.2,0.4-0.3
				c0.8-0.4,0.8-0.4,1.4,0.5c0.9-0.5,1.7-1.1,1.8-2.3c-0.2-0.1-0.4-0.1-0.5-0.1c-0.8-0.3-1-0.9-0.4-1.5c0.6-0.6,1.7-0.4,2,0.4
				c0.1,0.3,0.2,0.7,0.2,1c-0.2,1.8-1.9,3.6-3.8,3.8c-0.4,0-0.9,0.1-1.4,0.2c0,0.3,0,0.5,0.1,0.7c-0.9,0.6-1.8,0.6-2.9,0.2
				c-1.9-0.9-3.9-1.8-5.8-2.8c-1-0.5-2-0.9-3.2-1.3c-0.7-0.3-1.4-0.3-2.2-0.1c0.3,0.7,1,0.6,1.5,0.7c1.7,0.3,3.4,1,4.7,2.1
				c0.8,0.6,1.3,1.4,1.3,2.4c0,0.4-0.1,0.8-0.1,1.4c-0.5-0.2-0.9-0.4-1.3-0.6c0.1,0.8,0.4,1.6,0.3,2.3c-0.1,0.7-0.6,1.3-1.1,2.3
				c-0.2-0.4-0.4-0.7-0.6-1.1c-0.4,0.5-0.7,1-1,1.3c-0.8,1-1.7,1.1-3,0.4c0.3-0.1,0.4-0.2,0.6-0.3c1.3-0.3,2-1.2,2.4-2.4
				c0.6-2.3,0.1-4.4-1.7-5.9c-2.1-1.8-5.5-2-7.6-0.3c-0.6,0.5-1.1,1.1-1.4,1.7c-0.6,1.1-1,1.3-2.2,1.1c-0.2,0-0.4-0.1-0.5-0.2
				c-0.3-0.6-0.1-1.1,0.1-1.5c1.1-2.7,3.3-4.1,6-4.6c0.7-0.1,1.4-0.2,2.1-0.2c1.1,0,2.2,0,3.3-0.5C131.8,13.1,132,13.1,132.4,13.1z"
				/>
			<path class="st0" d="M199.9,95.8c-2,1.5-4,1.2-6,0.6c0.2,1.9,0,2.3-1.8,2.9c-0.4,0.1-0.8,0.3-1.3,0.4c-0.9,0.2-1.7,0.8-2.2,1.5
				c-0.5-0.4-0.9-0.8-1.4-1.1c-1.2-0.8-1.3-1.3-1-2.7c0-0.2,0.1-0.3,0.1-0.5c0-0.1-0.1-0.1-0.1-0.3c-1.5,0.8-3.1,1.8-5,1.9
				c1.1-1,2.1-1.9,3.2-2.9c1.7-1.5,2.5-3.6,2.9-5.8c0.1-1.1,0.3-2.1,0.5-3.3c0.1-0.3,0.1-0.7,0.2-1c0.6,0,0.7,0.4,0.9,0.7
				c0.2,0.5,0.4,1,0.6,1.6c1.6,4.6,5,7,9.8,7.6C199.4,95.7,199.5,95.7,199.9,95.8L199.9,95.8z"/>
			<path class="st0" d="M49.8,85.7c0.2,0.9,0.3,1.8,0.5,2.8c0.1,0.7,0.2,1.4,0.3,2.1c0.4,3.3,2.5,5.3,5,7.2c0.3,0.2,0.6,0.5,1.1,0.8
				c-2.1-0.1-3.6-1.1-5.3-2c0.1,0.4,0.1,0.7,0.2,0.9c0.3,1.1,0.1,1.7-0.8,2.4c-0.3,0.2-0.6,0.4-0.9,0.6c-0.2,0.2-0.5,0.4-0.7,0.7
				c-0.7-1-1.7-1.4-2.9-1.7c-0.5-0.1-0.9-0.3-1.4-0.4c-1.1-0.4-1.3-0.8-1.2-2c0-0.2,0-0.3,0.1-0.6c-2,0.6-4.1,0.9-5.9-0.6
				c1-0.2,1.9-0.4,2.9-0.6c3.2-0.8,5.5-2.8,6.9-5.7c0.4-0.8,0.7-1.7,1.1-2.5C48.9,86.4,49,85.9,49.8,85.7z"/>
			<path class="st0" d="M106.6,123.6c0.6-0.4,1-0.6,1.3-0.9c0.9-0.6,1.8-0.4,2.7,0.4c0.8,1,0.8,2.4,0,3.5c-1.3,1.6-3.7,1.8-5.4,0.5
				c-1.4-1.1-2-2.8-1.9-4.5c0-0.9,0.3-1.7,0.6-2.5c0.9-2.1,2.4-3.1,4.8-3.1c3.4,0,5.8,1.6,7.4,4.5c0.3,0.5,0.4,1,0.6,1.6
				c0.2,0.6,0,0.9-0.7,1c-0.7,0-1.4,0.1-2-0.2c-0.4-0.1-0.7-0.7-1-1.1c-0.9-1.7-2.7-2.7-4.6-2.2c-1.1,0.2-1.9,1-2,2
				C106.3,122.8,106.5,123.1,106.6,123.6L106.6,123.6z"/>
			<path class="st0" d="M197.1,113.7c1.3-0.5,2.5-0.6,3.8-0.1c1.6,0.8,2.1,2.5,1.2,4c-0.5,0.7-1.2,1.1-2,1c-0.4,0-0.8-0.1-1-0.5
				c-0.2-0.5-0.1-0.9,0.4-1.2c0.2,0.1,0.3,0.3,0.5,0.4c0.1,0,0.2,0,0.2-0.1c0.9-1,0.6-1.9-0.6-2.2c-0.7-0.2-1.4-0.1-2,0.3
				c-1.5,0.8-2.4,2.2-2.7,4c-0.1,0.9,0.4,1.7,1.2,2.5c-0.9-0.2-1.3-0.9-1.7-1.4c-0.5,0.5-0.9,1-1.4,1.4c-0.1,0-0.2-0.1-0.2-0.1
				c0.9-0.9,1.1-1.9,0.8-3.1c-0.4-1.4-1.2-2.4-2.5-3.2c-0.7-0.4-1.4-0.4-2.1-0.3c-0.5,0.1-1,0.4-1.1,1c-0.1,0.6,0.2,1.1,0.7,1.3
				c0.3-0.2,0.5-0.6,0.8-0.2c0.3,0.3,0.3,0.6,0.1,1c-0.3,0.5-1,0.6-1.7,0.4c-1.8-0.6-2.3-3.1-1-4.4c1.1-1,2.4-1.1,3.9-0.8
				c0.3,0.1,0.6,0.2,1,0.4c0-0.5,0-0.9,0-1.3c0-1.4,0-2.9,0.5-4.2c0.2-0.6,0.5-1.2,0.9-1.7c0.8-1.1,1.9-1,2.8,0
				c0.7,0.9,1,2.1,1.2,3.3c0.1,0.6,0.2,1.2,0.2,1.8S197.1,113,197.1,113.7L197.1,113.7z M194.2,109.7c-0.7,1-1.1,2-1.1,3.2
				c0,0.8,0.5,1.3,1.1,1.3c0.6,0,1-0.6,1-1.4c0-0.1,0-0.2,0-0.2C195.1,111.6,194.8,110.7,194.2,109.7z"/>
			<path class="st0" d="M206.6,50.6c-0.2-0.2-0.3-0.3-0.5-0.5c0.2-0.4,0.4-0.7,0.9-0.6c0.5,0.1,0.7,0.4,0.8,0.8
				c0.2,0.7,0,1.3-0.4,1.8c-0.9,1.2-2.9,1.4-4,0.2c-0.8-0.9-1.1-1.9-0.9-3.2c0.1-0.4,0.2-0.8,0.3-1.4c-0.6,0-1.2,0.1-1.7,0
				c-1.3-0.2-2.7-0.4-4-0.7c-0.5-0.1-1-0.5-1.4-0.8c-0.8-0.7-0.8-1.6,0-2.4c0.8-0.8,1.9-1.2,3.1-1.3c1.4-0.2,2.9-0.2,4.3-0.3
				c-0.1-0.3-0.2-0.7-0.3-1.1c-0.4-1.4-0.2-2.8,0.9-3.9c0.7-0.7,1.6-0.9,2.7-0.6c0.9,0.3,1.5,1,1.7,2c0.1,0.5,0.1,0.9-0.3,1.2
				c-0.4,0.3-0.9,0.4-1.5-0.1c0.1-0.2,0.3-0.4,0.5-0.7c0-0.4-0.8-0.9-1.3-0.7c-0.3,0.1-0.6,0.3-0.7,0.6c-0.2,0.4-0.3,0.8-0.3,1.2
				c0.1,1.6,1.1,2.8,2.5,3.5c1.2,0.7,2.5,0.8,3.8-0.1c0.1,0,0.1-0.1,0.3-0.2c-0.1,0.8-0.9,1-1.2,1.3c0.5,0.5,0.9,0.9,1.3,1.4
				c-0.1,0.1-0.1,0.2-0.2,0.2s-0.2,0-0.2-0.1c-1.1-1.1-2.4-1-3.8-0.4c-0.9,0.4-1.7,1.1-2.2,2c-0.4,0.7-0.6,1.4-0.4,2.2
				C204.6,51.5,205.5,51.7,206.6,50.6z M198.9,44.8c1,0.7,2,1,3.2,1c0.8,0,1.4-0.4,1.5-1c0-0.6-0.6-1.1-1.5-1.1
				C200.9,43.7,199.9,44.1,198.9,44.8z"/>
			<path class="st0" d="M199.9,32.6c-0.2,0.2-0.4,0.3-0.7,0.6c-0.1-0.5-0.3-0.9-0.2-1.2c0.1-0.3,0.6-0.5,0.9-0.6
				c0.9-0.2,1.9,0.4,2.3,1.3c0.5,1,0.3,2.1-0.4,3c-1,1-2.2,1.2-3.6,1c-0.3-0.1-0.6-0.2-1-0.3c-0.1,1-0.1,2-0.3,3
				c-0.1,0.8-0.3,1.6-0.5,2.3c-0.2,0.5-0.4,1-0.7,1.4c-0.9,1.2-2.1,1.2-3,0c-0.7-1-1-2.3-1.1-3.6c0-1.1,0-2.1,0-3.4
				c-0.4,0.1-0.7,0.3-1,0.3c-1.5,0.4-3,0.3-4.1-0.9c-0.7-0.7-0.8-1.6-0.5-2.7c0.3-0.9,1-1.4,1.9-1.7c0.6-0.1,1.2,0.1,1.5,0.5
				c0.2,0.4,0.2,0.7-0.2,0.9c-0.2,0.1-0.5,0-1-0.1c-0.3,0.1-0.6,0.6-0.6,1.2c0.1,0.6,0.6,0.8,1.1,1c0.6,0.2,1.2,0.2,1.8-0.1
				c1.6-0.7,2.7-1.9,3-3.6c0.2-1.1,0-1.6-0.8-2.8c0.7,0.2,0.7,0.2,1.5,1.2c0.5-0.5,1-0.9,1.5-1.4c0,0.1,0.1,0.1,0.1,0.2
				c-0.1,0.2-0.3,0.3-0.4,0.5c-0.7,0.9-0.9,2-0.3,3.1c0.4,0.8,0.9,1.5,1.5,2.1c0.7,0.8,1.7,1.1,2.8,0.9c0.5-0.1,1-0.3,1.2-0.9
				C200.8,33.5,200.6,32.9,199.9,32.6z M194.2,35.5c-1.4,1.1-1.4,3,0,4.7C195.4,38.3,195.4,36.7,194.2,35.5z"/>
			<path class="st0" d="M209.6,105.1c0.4,0.4,0.8,0.8,1.3,1.2l-0.1,0.1c-0.5-0.2-0.9-0.5-1.4-0.6c-2-0.4-4.7,1.3-5,3.4
				c-0.1,0.4,0,1,0.1,1.4c0.1,0.5,0.4,1,1,1.1c0.6,0.1,1-0.3,1.2-0.8c-0.2-0.2-0.3-0.3-0.4-0.5c0.2-0.5,0.5-0.7,0.9-0.6
				c0.5,0.1,0.7,0.5,0.7,1c0.1,0.9-0.3,1.8-1.2,2.3c-1,0.5-1.9,0.5-2.9-0.2c-1.1-0.8-1.5-2.4-1.1-4c0.1-0.3,0.2-0.7,0.4-1.1
				c-0.4,0-0.7,0-1.1-0.1c-1.3-0.2-2.8-0.2-4.1-0.5c-0.8-0.2-1.5-0.7-2.1-1.2c-0.8-0.7-0.7-1.6,0.1-2.3c0.5-0.4,1.1-0.8,1.7-0.9
				c1.1-0.3,2.3-0.4,3.5-0.5c0.5-0.1,1.1,0,1.8,0c-0.3-1.1-0.5-2.1-0.2-3.3c0.6-1.8,2.5-2.7,4.1-1.7c0.7,0.5,1.2,1.1,1.1,2
				c0,0.4-0.3,0.9-0.6,1.1c-0.4,0.3-0.8,0.1-1.1-0.4c0.1-0.2,0.3-0.4,0.4-0.6c-1-1.1-1.7-0.9-2.2,0.3c-0.3,0.8-0.2,1.6,0.3,2.3
				c0.8,1.2,1.9,1.9,3.3,2.4c1.1,0.4,2.1-0.1,3-0.9c0,0.1,0.1,0.1,0.1,0.2C210.5,104.2,210.1,104.6,209.6,105.1z M198.8,105.3
				c0.9,0.6,1.7,1,2.7,1c0.4,0,1-0.1,1.4-0.2c0.3-0.1,0.5-0.5,0.5-0.8c0-0.3-0.3-0.6-0.6-0.8c-0.2-0.1-0.4-0.2-0.7-0.2
				C201,104.1,199.9,104.5,198.8,105.3z"/>
			<path class="st0" d="M130.2,124c0.5-1.9-1.1-3.6-3.2-3.2c-1,0.2-2,0.7-2.7,1.6c-0.2,0.3-0.4,0.5-0.6,0.7c-0.6,0.6-1.2,0.9-2,0.8
				c-0.9-0.1-1.3-0.6-1-1.5c0.7-1.9,1.9-3.5,3.8-4.4c1.7-0.8,3.6-0.9,5.4-0.4c2.5,0.7,4.4,3.8,4,6.5c-0.2,1.7-1.1,3.1-2.8,3.7
				c-1.4,0.6-2.8,0.4-4.1-0.4c-1.2-0.9-1.5-2.4-0.8-3.7c0.7-1.2,1.9-1.3,3-0.4c0.2,0.2,0.5,0.4,0.7,0.6
				C130.1,124,130.2,124,130.2,124L130.2,124z"/>
			<path class="st0" d="M48.8,117.5c0.5-0.3,0.8-0.7,0.7-1.3c-0.1-0.6-0.6-0.9-1.2-1c-0.5-0.1-1-0.1-1.4,0c-1.8,0.5-3.4,2.8-3.2,4.6
				c0.1,0.7,0.5,1.3,0.7,1.9c-0.6-0.2-0.9-0.8-1.3-1.3c-0.5,0.5-1,0.9-1.5,1.4c0.8-1.1,1.2-2.2,0.7-3.6c-0.6-1.5-1.6-2.8-3.3-3.3
				c-1.3-0.4-3,0.7-2.2,2.1c0.2,0,0.4,0,0.6-0.1c0.5-0.3,0.8-0.1,0.9,0.4c0.2,0.4,0,0.9-0.5,1.1c-0.8,0.3-1.6,0.1-2.2-0.5
				c-1.2-1.1-1.1-3.1,0.2-4.1c0.9-0.7,2-0.9,3.2-0.6c0.3,0.1,0.7,0.2,1.1,0.3c0.1-1.1,0.1-2.2,0.3-3.3c0.2-0.9,0.4-1.8,0.8-2.7
				c0.8-1.7,2.3-1.7,3.4-0.1c0.8,1.2,1,2.5,1.1,4c0,0.8,0,1.6,0,2.2c1.1-0.1,2-0.3,3.1-0.3c1.4,0.1,2.4,1,2.7,2.2
				c0.3,1.5-0.9,3.2-2.4,3.1c-0.5,0-0.9-0.2-1.1-0.7c-0.1-0.4,0.1-0.7,0.4-0.9C48.2,117.2,48.4,117.4,48.8,117.5L48.8,117.5z
				 M43,109.7c-0.7,1-1,2-1,3.2c0,0.8,0.4,1.4,1,1.4c0.6,0,1-0.5,1.1-1.3c0-0.1,0-0.2,0-0.2C44.1,111.6,43.8,110.7,43,109.7z"/>
			<path class="st0" d="M30.6,99.3c0.1,0.2,0.3,0.4,0.4,0.5c-0.2,0.5-0.6,0.7-1.2,0.5c-0.5-0.3-0.6-0.8-0.5-1.3c0.2-1,0.8-1.7,1.8-2
				c1-0.3,1.9-0.1,2.7,0.7c0.8,0.8,1,1.9,0.9,3.1c-0.1,0.4-0.2,0.8-0.3,1.4c0.5,0,0.9,0,1.3,0c1.3,0.2,2.7,0.3,4,0.6
				c1,0.2,1.9,0.8,2,2c0,1.1-0.9,1.6-1.8,2.1c-1.2,0.5-2.4,0.8-3.8,0.8c-0.6,0-1.2,0-1.9,0c0.1,0.4,0.3,0.8,0.4,1.2
				c0.3,1.3,0.2,2.5-0.7,3.7c-0.7,0.8-1.8,1.1-2.9,0.7c-0.9-0.3-1.5-1.2-1.6-2.1c0-0.1,0-0.2,0-0.4c0-0.5,0.2-0.9,0.7-1
				c0.3,0,0.7,0.2,1.1,0.4c-0.3,0.3-0.4,0.5-0.7,0.7c0.3,0.2,0.6,0.6,0.9,0.7c0.3,0.1,0.8-0.1,1.1-0.4c0.6-0.6,0.6-1.4,0.4-2.2
				c-0.4-1.6-2.3-3.1-4-3.3c-0.9-0.1-1.7,0.2-2.4,0.8c-0.1-0.1-0.1-0.2-0.2-0.3c0.4-0.4,0.9-0.8,1.3-1.2c-0.4-0.5-0.9-0.9-1.3-1.4
				c2.7,1.5,5.9,0.3,6.7-2.4c0.1-0.4,0.1-1,0-1.4C32.5,98.5,31.7,98.3,30.6,99.3z M38.4,105.3c-1-0.7-2.1-1-3.4-1
				c-0.2,0-0.5,0.1-0.7,0.2c-0.2,0.2-0.6,0.5-0.6,0.8c0,0.3,0.3,0.7,0.5,0.8c0.4,0.2,0.9,0.3,1.4,0.2
				C36.6,106.2,37.5,105.9,38.4,105.3z"/>
			<path class="st0" d="M26.2,46.2c0.4-0.4,0.8-0.9,1.3-1.3c-0.4-0.4-0.9-0.8-1.3-1.3c2.5,1.1,5.1,0.4,6.3-2c0.3-0.6,0.4-1.3,0.3-2
				c-0.1-0.6-0.4-1.1-1-1.3c-0.6-0.2-1,0.2-1.4,0.7c0.2,0.2,0.3,0.3,0.4,0.5c-0.2,0.5-0.6,0.8-1,0.5c-0.3-0.2-0.6-0.6-0.6-0.9
				c-0.2-1,0.4-1.9,1.4-2.4s2.2-0.2,3.1,0.6c0.9,1,1.1,2.3,0.8,3.7c-0.1,0.4-0.2,0.7-0.4,1.1c1.2,0.1,2.3,0.1,3.4,0.3
				c0.8,0.1,1.7,0.4,2.5,0.8c0.8,0.4,1.4,1,1.4,1.9c0,1-0.8,1.5-1.6,1.8c-1.1,0.3-2.2,0.5-3.5,0.7c-0.6,0.1-1.3,0-2,0
				c0.3,1.2,0.6,2.2,0.2,3.4c-0.5,1.4-1.7,2.3-3.2,2c-1.1-0.2-2.1-1.2-2.1-2.3c0-0.5,0.2-1,0.7-1.2c0.5-0.2,0.8,0,1.1,0.7
				c-0.1,0.1-0.3,0.3-0.5,0.4c0.3,0.5,0.7,0.8,1.4,0.7c0.6-0.2,0.9-0.7,1-1.2c0.1-0.5,0.1-1-0.1-1.4c-0.5-1.5-2.4-3-4-3.2
				c-1-0.1-1.7,0.2-2.4,1C26.3,46.4,26.3,46.3,26.2,46.2z M38.4,44.7c-1.2-0.7-2.3-1.2-3.7-0.9c-0.6,0.1-1,0.6-1,1
				c0,0.5,0.5,0.9,1.1,0.9C36.1,45.9,37.2,45.5,38.4,44.7z"/>
			<path class="st0" d="M38,33.3c-0.8-0.7-1.1-0.7-1.4-0.2c-0.4,0.9,0.2,1.9,1.2,2.2c0.7,0.2,1.3,0,1.8-0.3c1.4-0.9,2.3-2.2,2.5-4
				c0.2-1-0.3-1.9-1.2-2.8c0.9,0.2,1.2,0.8,1.7,1.4c0.2-0.3,0.4-0.6,0.7-0.8c0.2-0.2,0.5-0.4,0.8-0.6c-1.5,2.4-0.6,5.4,2.1,6.5
				c0.6,0.2,1.2,0.3,1.9,0.1c0.5-0.2,1-0.4,1-1c0.1-0.6-0.3-1-0.8-1.3c-0.1,0.2-0.3,0.3-0.4,0.5c-0.2-0.2-0.3-0.3-0.4-0.4
				c-0.2-0.3-0.2-0.7,0.1-1c0.4-0.4,0.9-0.5,1.4-0.4c1.8,0.4,2.7,2.7,1.4,4.2c-0.8,1-2,1.4-3.3,1.2c-0.6-0.1-1.1-0.3-1.9-0.5
				c0,0.5,0,0.9,0,1.4c0,1.3-0.1,2.5-0.6,3.7c-0.2,0.5-0.6,1.1-1,1.5c-0.8,0.8-1.9,0.7-2.7-0.2c-0.6-0.8-0.9-1.8-1-2.9
				c-0.1-0.5-0.1-1-0.2-1.5c0-0.5,0-1,0-1.5c-0.9,0.1-1.6,0.2-2.3,0.2c-1,0-1.9-0.4-2.5-1.3c-0.7-0.9-0.7-1.9-0.1-2.9
				c0.5-0.8,1.2-1.3,2.2-1.2c0.3,0.1,0.8,0.3,0.9,0.6C38.4,32.2,38.1,32.6,38,33.3z M43,40.3c0.7-0.9,1-1.8,1.1-3
				c0-1-0.5-1.7-1.2-1.6c-0.6,0-1,0.8-0.9,1.7C42.1,38.5,42.4,39.5,43,40.3z"/>
			<path class="st0" d="M134.7,107.2c-1.2-2.1-1.7-4.2-0.5-6.3c1.4-2.4,3.6-3.3,6.4-3c-0.9-0.7-1.8-1.5-2.9-2.3
				c1.6-0.7,3.1-0.9,4.5-0.2c0.7,0.3,1.3,0.8,1.9,1.2c0.6,0.4,1.2,0.9,1.8,1.4c4.4,3.9,9.8,5.6,15.4,6.6c-0.5,0-0.9,0-1.4-0.1
				c-0.5-0.1-1-0.1-1.5-0.2c-3.2-0.6-6.2-1.2-9.2-2.2c-2.5-0.9-5.2-1.5-7.9-1.3c-0.6,0-1.1,0.1-1.7,0.2c-2.3,0.3-3.7,1.7-4.3,3.9
				C135,105.6,134.9,106.3,134.7,107.2z"/>
			<path class="st0" d="M102.9,107.2c-0.1-0.6-0.2-1-0.3-1.4c-0.9-3.9-2.8-4.7-5.7-4.9c-2.7-0.3-5.2,0.2-7.6,1.1
				c-3.7,1.3-7.4,2.1-11.2,2.8c-0.3,0-0.6,0.1-1,0.1c-0.2,0-0.5,0-1,0c1.9-0.4,3.7-0.8,5.4-1.2c4.1-1,7.6-3.1,10.8-5.7
				c0.6-0.5,1.2-1,1.9-1.5c1.7-1.3,3.7-1.6,5.9-0.6c-1,0.8-1.9,1.6-3.1,2.5c3.2-0.5,5.5,0.4,6.8,3.2
				C104.5,103.2,104.1,105.3,102.9,107.2z"/>
			<path class="st0" d="M91.9,128.4c-0.2-0.1-0.5-0.2-0.7-0.4c-0.9-0.7-1.7-1.4-2.7-2.2c-0.8-0.7-1.7-1.4-2.5-2
				c-1.4-1.1-3.1-1.8-4.9-1.9c-0.7,0-1.3-0.2-1.9-0.7c0.6-1.1,1.6-0.7,2.4-0.8c0-0.2-0.1-0.3-0.1-0.3c-2.4-1.1-5.1-1.8-7.8-1.3
				c-1.3,0.2-2.3,0.9-2.9,2.2c-0.1,0.3-0.2,0.5-0.2,0.8c0,0.5,0.3,0.7,0.8,0.5c0.1-0.1,0.2-0.1,0.3-0.2c1.1-0.7,2.1-0.3,2.5,0.9
				c0.3,1.2-0.2,2.3-1.3,2.8c-1.7,0.7-4.1-0.4-4.7-2.2c-0.8-2.3,0.2-4.9,2.4-6c1.9-1,4-1,6.1-0.6c3.9,0.6,7,2.5,9.7,5.4
				c1.2,1.3,2.3,2.7,3.5,3.9c0.5,0.5,1,1,1.5,1.5c0.1,0.1,0.3,0.3,0.4,0.5C92,128.3,92,128.3,91.9,128.4L91.9,128.4z"/>
			<path class="st0" d="M107.1,29.4c0.3,0.1,0.5,0.1,0.8,0.2c2.8,1,5.2,0.2,7.3-1.6c0.7-0.6,1.3-1.3,1.9-2c0.3-0.3,0.7-0.5,1.1-0.7
				c0.7-0.3,1.3-0.2,1.8,0.4c0.3,0.3,0.6,0.7,0.9,1c1.5,1.5,3.2,2.8,5.4,3.1c1.2,0.1,2.3,0.1,3.4-0.7c0.1-0.1,0.3-0.2,0.5-0.3
				c-0.3,1.3-0.9,1.9-2.2,1.9c-0.7,0-1.4,0-2.2,0c0.2,0.3,0.4,0.5,0.7,0.9c-0.6,0-1-0.1-1.4-0.1c-0.6,0-1.2-0.5-1.7,0.2
				c-0.1,0.1-0.5,0-0.7-0.1c-0.5-0.4-1-0.8-1.4-1.3c-0.4-0.5-0.5-1.1-0.8-1.6c-0.2-0.3-0.4-0.6-0.6-0.9c-0.1,0-0.2,0-0.3,0.1
				c0,0.2-0.2,0.5-0.1,0.7c0.2,0.6,0.5,1.1,0.8,1.7c0.4,0.8,0.8,1.7,1.1,2.5c0.2,0.5,0.3,1-0.2,1.5c-0.3-0.2-0.6-0.4-0.8-0.5
				c-0.5,0.3-1,0.7-1.5,0.7c-0.4,0-0.9-0.3-1.5-0.5c-0.1,0.1-0.3,0.2-0.6,0.4c-0.6-0.5-0.6-1.1-0.3-1.7c0.4-1,0.9-2,1.3-3.2
				c0.2-0.4,0.5-0.9-0.1-1.5c-0.2,0.4-0.4,0.7-0.6,1.1c-0.3,0.5-0.5,1.1-0.8,1.6c-0.5,0.8-1.1,1.2-2,1.3c-0.1-0.2-0.2-0.4-0.3-0.6
				c-0.8,0.3-1.5,0.7-2.5,0.3c0.1-0.3,0.3-0.6,0.5-0.9c-1.8,0.4-3.6,0.7-4.7-1.1C107,29.6,107,29.5,107.1,29.4L107.1,29.4z"/>
			<path class="st0" d="M155.7,120.6c0.7,0.2,1.3,0.4,1.8,0.6c0.2,0.1,0.3,0.4,0.4,0.6c-0.2,0.1-0.4,0.2-0.6,0.3c-0.1,0-0.2,0-0.2,0
				c-2.4-0.3-4.5,0.9-6.4,2.2c-1,0.7-1.9,1.7-3,2.5c-0.5,0.4-1,0.7-1.6,1.1c-0.1-0.2-0.1-0.3-0.1-0.3c2-2.1,4-4.5,6.2-6.4
				c3.3-3,7.2-4.3,11.7-3.7c1.8,0.2,3.4,1,4.5,2.4c0.8,1,1,2.1,0.8,3.5c-0.5,2.9-3.8,3.6-5.5,2.8c-1.3-0.6-1.6-2.7-0.4-3.6
				c0.7-0.5,1.5-0.4,2.1,0.3c0.2,0.2,0.3,0.4,0.5,0.7c0.7-1.1,0.7-2.2-0.4-3.1c-0.5-0.4-1.2-0.8-1.9-1
				C162,119,157.7,119.6,155.7,120.6L155.7,120.6z"/>
			<path class="st0" d="M202.3,91.9c1.9,1.1,2.3,2.4,1.3,4.2c-0.3-1-1.1-1.3-1.9-1.5c-0.7-0.2-1.4-0.2-2.1-0.3
				c-1-0.2-2.2-0.3-3.2-0.8c-2.9-1.3-5.1-3.3-6.5-6.1c-0.7-1.3-1.2-2.7-1.5-4.2c0.3,0.3,0.6,0.6,1,1c2.2,2.3,4.8,4.2,7.9,5.2
				c1.6,0.5,3.3,0.6,4.9,0.2c2.2-0.6,3.7-1.9,4.2-4.3c0-0.1,0.1-0.2,0.1-0.3C207.2,87.1,205.6,89.8,202.3,91.9L202.3,91.9z"/>
			<path class="st0" d="M49.4,83c-1.1,4.2-3.2,7.5-6.8,9.7c-1.4,0.8-3,1.3-4.6,1.4c-0.6,0-1.3,0.1-1.9,0.3c-0.8,0.2-1.6,0.5-2,1.5
				c-0.9-1.6-0.5-2.9,1.3-4.2c-2.8-1.5-4.4-3.7-4.4-7.2c0.2,0.4,0.3,0.5,0.4,0.6c0.6,2.5,2.3,3.9,4.8,4.3c1.4,0.3,3,0.1,4.3-0.3
				c2.9-0.9,5.2-2.5,7.3-4.7C48.3,84,48.9,83.5,49.4,83L49.4,83z"/>
			<path class="st0" d="M145.1,106.8c1.4,2.3,1.7,4.9,2.3,7.4c0.7-1.5,1.1-3.4,3.1-4.2c0.1,0.5,0.1,0.9,0.2,1.2
				c0.9-0.3,1.7-0.7,2.7-1c0.7-0.2,1.4-0.1,2,0.4c0.2,0.2,0.3,0.5,0.3,0.8c-0.1,0.4-0.4,0.4-0.8,0.3c-1.4-0.6-2.5,0.1-3.6,0.9
				c-1.1,0.8-1.8,2-2.2,3.3c-0.7,1.9-1.3,4-1.9,5.9c-0.4,1.3-0.9,2.5-1.4,3.9c-0.2,0.4-0.5,0.8-0.8,1.3c-0.3-0.9-0.1-1.5,0.1-2
				c1.6-3.7,1.4-7.3,0.7-11.1c-0.2-1.2-0.8-2.3-1.3-3.4c-0.5-1.1-0.4-2.2,0.3-3.2C144.7,107.1,144.8,107,145.1,106.8L145.1,106.8z"
				/>
			<path class="st0" d="M92.2,126.5c-0.7-0.4-0.9-1-1.1-1.6c-0.6-1.9-1.1-4-1.7-5.9c-0.3-1.1-0.6-2.3-1-3.5
				c-0.5-1.5-1.4-2.9-2.8-3.8c-0.9-0.6-1.8-1.1-3-0.9c-0.2,0-0.5,0-0.9-0.1c0.5-0.9,1.3-1.3,2.1-1.1c0.8,0.2,1.5,0.6,2.4,0.9
				c0.1-0.2,0.3-0.5,0.4-0.9c0.1,0,0.2,0,0.3,0.1c0.8,0.4,1.3,1.1,1.5,1.9c0.2,0.9,0.5,1.7,0.8,2.7c0.1,0,0.2,0,0.3,0
				c0.3-1,0.5-2,0.8-3.1c0.3-1.1,0.5-2.2,0.8-3.3c0.1-0.5,0.2-1.1,0.9-1.4c0.7,0.6,1.1,1.4,0.8,2.4c-0.1,0.2-0.2,0.5-0.2,0.7
				c-1.9,4.3-2.4,8.7-1.2,13.2c0.2,1,0.4,1.9,0.6,3C92.3,125.7,92.2,126.1,92.2,126.5L92.2,126.5z"/>
			<path class="st0" d="M109.7,22.8c-0.4,1.2,0.1,2,1.2,2.2c1.4,0.3,2.7-0.3,3.4-1.6c0.6-1,1.1-1.3,2.2-1.1c0.4,0.1,0.6,0.3,0.5,0.8
				c-0.1,0.3-0.1,0.5-0.3,0.8c-0.7,1.4-1.7,2.5-3.2,3.4c-1.5,0.8-3.2,0.7-4.6-0.3c-1.4-0.9-2.2-2.3-2.1-4.1c0.1-2.3,2.7-4.1,4.6-3.2
				c1.3,0.5,1.9,1.9,1.2,3.1c-0.5,0.9-1.3,1.1-2.1,0.6C110.3,23.2,110.1,23.1,109.7,22.8z"/>
			<path class="st0" d="M120.1,22.7c1.4-0.5,1.9-0.4,2.8,0.7c0.5,0.8,1.2,1.2,2.2,1.4c1.5,0.2,2.5-0.7,2.3-2.4
				c-0.3,0.2-0.5,0.3-0.7,0.5c-0.5,0.5-1,0.6-1.6,0.3c-0.6-0.3-0.9-0.9-0.9-1.6c0-0.9,0.5-1.6,1.3-2c2.1-1,4.7,0.6,4.7,3.2
				c0,1.8-1.2,4.3-3.9,4.6C123.4,27.7,120.4,25.7,120.1,22.7z"/>
			<path class="st0" d="M83,23.7c-0.3,1,0.1,1.6,0.7,2c0.4,0.3,1,0.6,1.5,0.7c1.6,0.3,4.2-0.2,5.8-1.1c-0.6-0.2-1.5,0.2-1.8-0.8
				c0.5-0.1,1.1-0.4,1.6-0.4c1.2-0.1,2.3-0.6,3.4-1.3c1.1-0.8,2.1-1.7,3.3-2.7c0.4-0.3,0.8-0.6,1.3-0.8c-0.1,0.2-0.3,0.3-0.4,0.5
				c-1.1,1.2-2.3,2.5-3.5,3.8c-1.9,2.1-4.3,3.7-7.2,4.3c-1.3,0.2-2.8,0.3-4.1-0.2c-1.9-0.7-2.9-2.2-2.5-4.3c0.2-1.5,1.8-2.7,3.4-2.2
				c0.9,0.2,1.4,1.1,1.2,2c-0.2,0.9-1,1.2-1.8,0.8C83.6,23.9,83.3,23.8,83,23.7z"/>
			<path class="st0" d="M139.5,19.5c0.6,0.5,1.3,1,1.9,1.5c1,0.9,2.1,1.7,3.5,2.2c0.8,0.3,1.6,0.6,2.5,0.5c0.2,0,0.4,0.1,0.8,0.1
				c-0.4,0.8-1.3,0.4-1.8,1c2,0.8,4.2,1.3,6.3,0.7c1.5-0.4,2-1.5,1.5-2.9c-0.1,0.1-0.3,0.2-0.3,0.3c-0.4,0.4-0.8,0.7-1.4,0.5
				c-0.6-0.2-0.8-0.8-0.9-1.3c-0.1-0.6,0.2-1,0.7-1.3c1.3-0.8,3.5-0.2,4.1,1.2c0.6,1.3,0.3,2.4-0.6,3.5c-0.9,0.9-2,1.5-3.4,1.6
				c-3.2,0.3-6-0.6-8.5-2.8c-1.3-1.1-2.4-2.4-3.7-3.8c-0.3-0.3-0.6-0.7-1-1C139.3,19.6,139.4,19.6,139.5,19.5L139.5,19.5z"/>
			<path class="st0" d="M215.5,44.8c0.6-0.9,1.3-1.2,2.3-1.3c1.4-0.2,2.8-0.6,4.2-0.9c0.3-0.1,0.7-0.1,0.9,0c1.3,0.7,2.5,1.4,4,2.2
				c-1.5,0.8-2.9,1.6-4.2,2.3c-0.2,0.1-0.5,0-0.7,0c-1.4-0.3-3-0.7-4.4-1C216.7,46,216.1,45.6,215.5,44.8z"/>
			<path class="st0" d="M194.2,12.2c0.8,1.4,1.5,2.8,2.2,4c0.1,0.2,0.1,0.6,0,0.9c-0.3,1.5-0.7,3.1-0.9,4.7
				c-0.1,0.8-0.7,1.3-1.3,1.8c-0.8-0.5-1.2-1.2-1.3-2.1c-0.2-1.3-0.5-2.8-0.8-4.1c-0.1-0.5-0.2-0.9,0.1-1.4
				C192.7,14.9,193.4,13.7,194.2,12.2z"/>
			<path class="st0" d="M43,12.2c0.8,1.4,1.5,2.7,2.2,4c0.1,0.2,0.1,0.6,0.1,0.9c-0.3,1.6-0.7,3.2-1,4.8c-0.2,0.8-0.6,1.3-1.3,1.7
				c-0.8-0.6-1.2-1.2-1.3-2.2c-0.1-1.3-0.5-2.8-0.9-4.1c-0.1-0.5-0.1-0.9,0.1-1.3C41.6,14.8,42.2,13.6,43,12.2z"/>
			<path class="st0" d="M21.6,44.8c-0.5,0.7-1.1,1.2-2.1,1.3c-1.5,0.2-3,0.6-4.4,0.9c-0.3,0.1-0.6,0.1-0.8,0
				c-1.3-0.7-2.7-1.4-4.1-2.2c1.5-0.8,2.9-1.6,4.2-2.3c0.2-0.1,0.5,0,0.8,0.1c1.4,0.3,2.9,0.7,4.3,0.9
				C20.5,43.7,21.1,44.1,21.6,44.8z"/>
			<path class="st0" d="M21.6,105.3c-0.6,0.9-1.3,1.2-2.2,1.3c-1.3,0.2-2.7,0.5-4.1,0.9c-0.4,0.1-0.7,0.2-1.1,0
				c-1.2-0.7-2.4-1.4-3.9-2.2c1.5-0.8,2.9-1.6,4.2-2.3c0.2-0.1,0.4,0,0.7,0c1.6,0.3,3.2,0.7,4.8,1C20.6,104.1,20.7,104.1,21.6,105.3
				z"/>
			<path class="st0" d="M40.7,133.6c0.4-1.9,0.7-3.7,1-5.5c0.1-0.8,0.6-1.2,1.2-1.7c0.8,0.5,1.2,1.1,1.4,2c0.2,1.4,0.6,2.9,0.9,4.3
				c0.1,0.4,0.1,0.8,0,1.1c-0.6,1.3-1.4,2.5-2.1,4C42.1,136.2,41.3,134.8,40.7,133.6L40.7,133.6z"/>
			<path class="st0" d="M215.6,105.1c0.6-0.8,1.3-1.2,2.2-1.3c1.4-0.2,2.8-0.6,4.2-0.9c0.3-0.1,0.6-0.1,0.8,0
				c1.3,0.7,2.7,1.4,4.2,2.2c-1.4,0.8-2.8,1.5-4.1,2.2c-0.2,0.1-0.6,0-0.9,0c-1.4-0.3-2.8-0.7-4.2-0.9
				C216.8,106.4,216.1,106.1,215.6,105.1L215.6,105.1z"/>
			<path class="st0" d="M137.5,45.5c-0.1-1.5-0.1-1.5-0.8-2.1c-0.4,0.7-0.9,1.4-1.3,2.1c1.2,1.3,1.7,1.3,4,0.3
				c-0.3,0.8-0.8,1.4-1.3,2c-1-0.6-2-1.3-3.2-1.9c-0.7-0.4-1.5-0.8-2.2-1.1c-1.4-0.7-2.3-2.2-2-3.7c0.4-1.7,1.8-3,3.5-2.9
				c0.5,0,1,0.1,1.4,0.4c1.9,1.1,3.9,2.4,5.9,3.7c-0.4,0.7-0.7,1.2-1.2,2c-0.1-0.8-0.1-1.5-0.3-2.1c-0.2-0.6-0.8-1-1.6-1.2
				c-0.4,0.6-0.8,1.2-1.2,1.8c0.7,0.9,1.3,0.2,2.1,0.1C138.6,43.7,138.1,44.5,137.5,45.5L137.5,45.5z M136.1,40.2
				c-0.2-0.3-0.5-0.8-0.8-1.1c-0.4-0.3-1-0.3-1.4,0.1c-1.1,1-1.7,2.2-1.9,3.8c-0.1,0.6,0.2,1,0.7,1.3c0.5,0.2,1,0.2,1.5-0.1
				C135.2,43.1,135.7,41.8,136.1,40.2L136.1,40.2z"/>
			<path class="st0" d="M194.2,137.8c-0.8-1.4-1.4-2.7-2.1-3.8c-0.2-0.4-0.2-0.8-0.1-1.3c0.3-1.4,0.7-2.8,0.9-4.2
				c0.1-0.9,0.5-1.5,1.3-2.1c0.7,0.5,1.2,1.1,1.3,2c0.2,1.4,0.6,2.9,0.9,4.3c0.1,0.3,0.1,0.7,0,1C195.7,135,195,136.3,194.2,137.8z"
				/>
			<path class="st0" d="M142.5,31.8c0,0.4,0,0.6,0,1c-1.4-0.5-1.6-1.8-2.2-3.2c-0.5,2-0.7,3.9-1.7,5.5c-0.8-0.6-1.1-1.2-0.8-2
				c0.1-0.3,0.2-0.5,0.3-0.8c1.4-2.8,1.3-5.7,0.9-8.7c-0.1-0.6-0.4-1.2-0.6-1.8c-0.1-0.4-0.2-0.9-0.3-1.3c0.1,0,0.2-0.1,0.3-0.1
				c0.2,0.4,0.5,0.8,0.6,1.2c0.6,1.6,1.1,3.3,1.7,5c0.3,0.9,0.6,1.8,1,2.5c0.4,0.7,1,1.4,1.6,1.9c0.6,0.5,1.4,0.9,2.3,0.6
				c0.6-0.2,0.8,0.2,0.9,0.6C145.5,32.9,144.6,32.8,142.5,31.8L142.5,31.8z"/>
			<path class="st0" d="M99,20.9c-0.2,1.1-0.3,2.2-0.6,3.4c-0.8,3.1-0.3,6,0.9,8.9c0.5,1.2,0.5,1.6-0.3,2.5
				c-0.6-0.2-0.6-0.7-0.7-1.1c-0.2-0.7-0.4-1.5-0.6-2.2c-0.2-0.7-0.4-1.5-0.6-2.3c-0.8,1.1-0.6,2.8-2.1,3.4
				c-0.1-0.2-0.3-0.4-0.4-0.6c-0.6,0.2-1.1,0.6-1.7,0.7c-0.6,0.1-1.2-0.1-1.6-0.8c0.2-0.1,0.4-0.2,0.5-0.2c1.2,0.2,2-0.4,2.9-1.1
				c1-0.9,1.5-2.1,1.9-3.5c0.4-1.6,0.8-3.3,1.3-4.8c0.2-0.7,0.6-1.5,0.9-2.2C98.7,20.8,98.8,20.8,99,20.9z"/>
			<path class="st0" d="M48.3,82.9c-0.4,0.4-0.8,0.8-1.3,1.2c-2.1,1.5-4.5,2.7-6.9,3.6c-1.1,0.4-2.3,0.5-3.5,0.1
				c-1.4-0.5-2.1-1.6-2-3.1c0.1-1.6,1-2.4,2.9-2.1c-0.2,0.1-0.3,0.2-0.4,0.3c-1,0.7-1,1.7-0.1,2.5c0.7,0.6,1.5,0.8,2.4,0.6
				c1.5-0.3,3-0.7,4.5-1.2C45.4,84.1,46.8,83.4,48.3,82.9L48.3,82.9z"/>
			<path class="st0" d="M86.2,105.1c2.4-0.9,4.6-1.8,6.8-2.2c1.3-0.2,2.7-0.2,4,0.2c0.6,0.2,1.2,0.5,1.7,0.8c1.3,1,1.4,2.8,0.4,4.2
				c-0.6,0.8-2,1.4-3.1,0.4c0.3-0.1,0.5-0.1,0.8-0.2c0.8-0.3,1.1-1,0.8-1.8c-0.3-0.8-0.9-1.3-1.6-1.5c-1-0.2-2.1-0.4-3.3-0.3
				c-1.9,0.1-3.9,0.3-5.8,0.5C86.8,105.1,86.6,105.1,86.2,105.1z"/>
			<path class="st0" d="M141.6,108.4c-1.3,0.8-2.3,0.6-3.2-0.5c-1.1-1.5-0.7-3.6,1-4.5c1.6-0.9,3.4-0.9,5.1-0.6
				c2.3,0.4,4.5,1.3,6.6,2.3c-0.9-0.1-1.8-0.3-2.8-0.3c-1.9-0.1-3.8-0.1-5.7-0.1c-0.5,0-1,0.2-1.5,0.4c-0.9,0.4-1.5,1.3-1.4,2
				C139.9,108.1,140.6,108.3,141.6,108.4L141.6,108.4z"/>
			<path class="st0" d="M200.1,82.5c1.7-0.2,2.3,0.1,2.8,1.3c0.5,1.2,0.1,2.7-1,3.5c-1,0.7-2.1,0.9-3.3,0.7
				c-3.3-0.8-6.3-2.3-8.9-4.6c-0.1-0.1-0.1-0.2-0.2-0.3c0,0,0-0.1,0-0.2c0.3,0.1,0.7,0.3,1,0.4c2.1,1,4.2,1.9,6.5,2.3
				c0.8,0.2,1.6,0.2,2.5,0.2c0.4,0,0.8-0.2,1.1-0.4c1.1-0.8,1-1.9-0.1-2.7C200.4,82.7,200.3,82.7,200.1,82.5z"/>
			<path class="st0" d="M146.3,125.7c0.1-0.2,0.1-0.4,0.2-0.6c1-2.3,1.9-4.7,3-6.9c0.4-0.8,1-1.5,1.6-2.2c0.3-0.4,0.8-0.7,1.4-0.5
				c-0.1,0.4-0.1,0.8-0.2,1.4c0.9-0.4,1.7-0.7,2.4-1.1c0.9-0.4,1.7-0.3,2.5,0.2c0,0,0.1,0.1,0.1,0.3c-0.2,0-0.4,0.1-0.6,0.1
				c-1.2-0.2-2.3,0.2-3.3,1c-0.9,0.7-1.7,1.5-2.4,2.3c-1.6,2-3.2,4.2-4.7,6.2C146.4,125.7,146.4,125.7,146.3,125.7z"/>
			<path class="st0" d="M84.6,116c0-0.5,0-0.8,0.1-1.2c1,0.1,1.5,0.8,2.1,1.4c0.3,0.3,0.5,0.7,0.6,1c0.9,2.3,1.9,4.8,2.9,7.1
				c0.1,0.1,0.1,0.3-0.1,0.6c-0.2-0.3-0.5-0.6-0.7-1c-0.8-1.2-1.5-2.4-2.2-3.6c-1.3-2-3.2-3.5-5.3-4.6c-0.6-0.3-1.2-0.4-1.8-0.1
				c-0.3,0.1-0.6,0.1-0.7-0.2c0-0.2,0.3-0.5,0.5-0.5c1.2-0.2,2.4,0.1,3.6,0.5C83.8,115.4,84.1,115.7,84.6,116z"/>
			<path class="st0" d="M96.5,50.2c-1.2,0.4-2.3,0.2-3.4,0.2c-1.1,0-2.1,0-3.4,0.2c0.8,0.7,1.6,1.5,2.5,2.1c0.3,0.2,0.9,0.1,1.4,0.1
				c-0.3,0.7-0.9,1.1-1.5,1.7c0.2-1.1-0.5-1.6-1.1-2.1c-0.5-0.4-0.9-0.8-1.4-1.2c-1-0.8-1-0.8-2.2-0.6c0.7-1,1.3-1.9,2.8-1.7
				c1.2,0.1,2.4,0,3.8,0c-0.6-0.8-1.3-1.4-2-1.8c-0.3-0.2-0.8,0-1.2,0.1c0.1-0.6,0.4-1,1.6-2c-0.5,1.1,0.3,1.6,0.9,2.2
				c0.8,0.7,1.6,1.4,2.4,2C95.9,49.5,96.1,49.8,96.5,50.2L96.5,50.2z"/>
			<path class="st0" d="M88.4,61.4c0.1-1-0.5-1.6-1.4-1.9c-0.7-0.3-1.3-0.6-1.9-1c-0.6-0.4-1.3-0.8-2,0.3c0.3-1.8,0.7-2.2,2.1-2.5
				c1.2-0.2,2.3-0.5,3.7-0.8c-0.7-0.7-1.5-1-2.3-1.3c-0.3-0.1-0.8,0.2-1.4,0.3c0.4-0.7,0.7-1.4,1.1-2.1c0.1,1.3,1.2,1.5,2.1,2
				c1,0.6,2.1,1.1,3.3,1.7c-0.2,0.6-0.7,0.6-1.1,0.7c-1.7,0.4-3.4,0.7-5.3,1.1c0.3,0.2,0.4,0.4,0.6,0.5c0.6,0.3,1.1,0.6,1.7,0.9
				c1.1,0.6,1.1,0.5,2.2,0C89.3,60,89,60.8,88.4,61.4C88.4,61.4,88.4,61.4,88.4,61.4z"/>
			<path class="st0" d="M124.4,126.2c-0.6,0.1-1.2,0.2-1.8,0.2c-1.8,0-3.8-0.1-5.6-0.1c-0.9,0-1.8,0-2.9-0.1c-0.3,0-0.6,0-1,0
				c-0.5,0-0.7-0.4-0.7-0.8c0-0.5,0.3-0.7,0.7-0.7c0.6,0,1.1,0.1,1.7,0.1c2.5,0,5.1,0,7.6,0.1c0.3,0,0.6,0,1,0
				C124.3,124.8,124.5,125,124.4,126.2L124.4,126.2z"/>
			<path class="st0" d="M142.5,48.2c-0.5,0.5-0.9,1-1.4,1.5c0.2,0.3,0.3,0.6,0.4,0.9c-0.1,0-0.1,0.1-0.2,0.1
				c-0.8-0.8-1.6-1.5-2.4-2.3c0-0.1,0.1-0.1,0.1-0.2c0.3,0.1,0.5,0.2,0.9,0.4c1.1-1.2,2.3-2.5,3.6-3.8c-0.2-0.3-0.3-0.6-0.4-0.9
				c0.2,0,0.3-0.1,0.4,0c1,0.9,1.9,1.8,3,2.8c0.2,0.2,0.4,0.4,0.5,0.7c0.4,0.7,0.3,1.4-0.2,2s-1.2,0.7-1.9,0.4
				c-0.4-0.2-0.8-0.5-1.2-0.8C143.2,48.9,142.9,48.6,142.5,48.2L142.5,48.2z M142.8,47.8c0.6,0.6,1,1.2,1.8,1
				c0.6-0.1,1.1-0.6,1.2-1.2c0.1-0.8-0.4-1.2-1.2-1.6C144.1,46.5,143.5,47.1,142.8,47.8z"/>
			<path class="st0" d="M148.5,62.9c1.1-0.3,1.8-0.6,2.5-0.8c0.1,0.1,0.1,0.2,0.2,0.2c-0.2,0.3-0.5,0.5-0.7,0.8
				c-0.6,0.7-0.9,1.4-0.6,2.3c0.2,0.6,0.6,0.9,1.1,0.9c0.5-0.1,0.8-0.4,0.9-1.1c0-0.6,0-1.3,0-1.9c0.1-1.2,0.5-1.7,1.5-1.9
				c1-0.2,1.8,0.3,2.2,1.3c0.2,0.4,0.2,0.9,0.2,1.3c0.1,0.4,0.2,0.9,0.3,1.5c-0.5,0.2-1.2,0.4-1.9,0.7c0-0.1-0.1-0.1-0.1-0.2
				c0.3-0.3,0.5-0.6,0.8-1c0.5-0.6,0.6-1.3,0.3-2c-0.2-0.4-0.5-0.7-1-0.7s-0.7,0.4-0.7,0.8c0,0.6,0,1.1,0,1.7c0,1.2-0.4,1.8-1.3,2.2
				c-1,0.4-2,0.1-2.4-0.8c-0.3-0.6-0.5-1.3-0.4-1.9C149.4,63.7,149.2,63.3,148.5,62.9L148.5,62.9z"/>
			<path class="st0" d="M93.5,43.9c1-0.7,1.9-1.3,3-2c-0.4,1.1-0.4,1.1,0.2,1.9c0.5,0.7,1,1.5,1.5,2.1c0.7,0.8,1.3,0.9,2.1,0.4
				c0.9-0.6,1-1.3,0.5-2.1c-0.4-0.7-0.9-1.3-1.3-2c-0.4-0.6-0.8-1.4-1.9-0.7c0-0.1,0-0.3,0-0.4c0.6-0.4,1.2-0.9,1.9-1.4
				c-0.2,1.3-0.2,1.3,0.5,2.3c0.4,0.6,0.8,1.2,1.2,1.8c0.7,1.1,0.5,1.9-0.4,2.9c-0.3,0.3-0.7,0.6-1.2,0.8c-1.1,0.6-2,0.4-2.8-0.6
				c-0.5-0.7-1-1.4-1.5-2.1C94.7,43.8,94.7,43.8,93.5,43.9z"/>
			<path class="st0" d="M88.3,61.4c-0.2,1-0.4,1.9-0.6,3c-0.1,0-0.2,0-0.2,0c-0.1-0.2-0.2-0.4-0.3-0.6c-1.3-0.1-1.3-0.1-1.7,1
				c-0.1,0.3-0.2,0.7-0.3,1c0.8,0.9,0.9,1,1.7,0.1c0.1,0.7,0,1.1-0.6,2.3c-0.8-1.7-2.4-2.4-3.7-3.7c-0.4-0.3-0.8-0.6-1.1-0.9
				c-0.2-0.1-0.3-0.5-0.3-0.6c0.1-0.2,0.4-0.4,0.6-0.4c1.4-0.2,2.9-0.4,4.3-0.5C86.9,62,87.7,62,88.3,61.4
				C88.3,61.4,88.3,61.4,88.3,61.4z M85.3,63.7c-0.9,0.1-1.5,0.2-2.4,0.3c0.7,0.6,1.2,1,1.8,1.5C84.9,65,85.1,64.5,85.3,63.7z"/>
			<path class="st0" d="M37.5,130.1c-0.5,2.3-1.8,3.7-4,4.2c-1.2,0.3-2.3-0.2-3-1.1c-0.2-0.3-0.3-0.7-0.3-1.1c0-0.8,0.4-1.2,1.2-0.8
				c0.3,0.1,0.5,0.2,0.7,0.4c1,0.7,2.1,0.6,3.2,0C36.1,131.3,36.7,130.7,37.5,130.1L37.5,130.1z"/>
			<path class="st0" d="M107.9,36.8c-1.4,0.3-1.3,1.4-1.5,2.4c-0.5-0.7-0.5-1.4-0.6-2.2c1.8-0.5,3.7-1,5.6-1.5
				c0.3,0.7,0.5,1.4,0.8,2.3c-1-0.6-1.3-2.1-2.8-1.3c0.4,1.6,0.8,3.3,1.3,4.8c0.1,0.3,0.6,0.4,1,0.6c-1,0.5-2,0.7-3.4,0.9
				c0.4-0.4,0.7-0.6,0.7-0.9c0.1-0.3-0.1-0.6-0.2-0.9C108.6,39.7,108.3,38.3,107.9,36.8z"/>
			<path class="st0" d="M144.5,54.4c0.9,0.4,0.9,0.4,1.7-0.1c0.9-0.6,1.8-1.2,2.8-1.8c0.3-0.2,0.6-0.4,0.8-0.6
				c-0.2-0.7-0.6-0.9-1.2-0.9c-0.5,0-0.9,0.1-1.5,0c0.6-0.4,1.3-0.7,2-1.1c1.1,1.6,2.1,3.3,3.2,4.9c-0.6,0.5-1.2,0.9-2,1.5
				c0.3-1.1,1.6-1.8,0.6-3c-0.3,0.1-0.6,0.2-0.8,0.4c-1,0.6-1.9,1.3-3,1.9c-0.7,0.5-0.7,0.5-0.7,1.5C145.4,56.3,145,55.3,144.5,54.4
				z"/>
			<path class="st0" d="M17.7,99.5c-2.5-0.1-4.7-2.9-4-5.2c0.3-1.2,1.3-1.9,2.3-1.9c0.7,0,1.2,0.6,0.7,1.2c-0.1,0.2-0.2,0.3-0.3,0.5
				c-0.7,1.3-0.7,2.7,0.2,3.9C16.9,98.5,17.3,99,17.7,99.5z"/>
			<path class="st0" d="M219.4,99.6c0.4-0.5,0.8-0.9,1.1-1.3c0.9-1.3,1.2-2.7,0.2-4.1c0-0.1-0.1-0.1-0.1-0.2
				c-0.2-0.4-0.6-0.7-0.2-1.2c0.3-0.5,0.9-0.4,1.3-0.3c0.7,0.1,1.2,0.6,1.5,1.3c0.6,1.3,0.4,2.5-0.4,3.7
				C222.1,98.6,221,99.4,219.4,99.6z"/>
			<path class="st0" d="M219.4,110.9c2.5,0.4,4.4,2.4,4.2,4.7c-0.1,1-0.5,1.8-1.5,2.3c-0.3,0.1-0.7,0.2-1,0.2
				c-0.7-0.1-0.9-0.5-0.6-1.1c0.1-0.3,0.2-0.5,0.4-0.7c0.8-1.3,0.6-2.5-0.1-3.8C220.3,112,219.9,111.5,219.4,110.9L219.4,110.9z"/>
			<path class="st0" d="M199.8,130.2c0.7,0.5,1.2,1,1.8,1.4c1,0.7,2,0.8,3.2,0.1c0.3-0.2,0.5-0.3,0.8-0.5c0.9-0.4,1.4,0,1.3,1
				c-0.1,0.7-0.5,1.3-1,1.7c-0.8,0.5-1.6,0.7-2.5,0.4C201.5,133.9,200.1,132.3,199.8,130.2L199.8,130.2z"/>
			<path class="st0" d="M17.9,39.2c-2.7-0.4-4.4-2.4-4.3-4.7c0.1-1.1,0.9-2.2,1.8-2.4c0.5-0.1,1-0.1,1.3,0.3c0.1,0.3,0,0.7-0.1,1.1
				c0,0.1-0.1,0.1-0.1,0.2c-1.2,1.6-0.7,3.2,0.5,4.5C17.2,38.5,17.4,38.7,17.9,39.2z"/>
			<path class="st0" d="M48.9,130.3c0.6,0.4,1,0.8,1.4,1.1c1.2,0.8,2.4,0.9,3.8,0.1c0.2-0.1,0.3-0.2,0.5-0.3
				c0.9-0.4,1.3-0.1,1.3,0.8c0,0.9-0.6,1.7-1.5,2.1c-0.8,0.3-1.6,0.2-2.3,0C50.3,133.7,49,132.2,48.9,130.3z"/>
			<path class="st0" d="M16.9,117.5c-0.6,0.7-1.2,0.7-1.8,0.4c-1-0.4-1.4-1.2-1.5-2.3c-0.2-2.2,1.6-4.3,4.2-4.7
				c-0.7,1-1.6,1.8-1.8,3.2C15.7,115.3,16.6,116.4,16.9,117.5z"/>
			<path class="st0" d="M188.5,130.2c-0.5,2-1.5,3.5-3.5,4.2c-1.2,0.4-2.2,0-3.1-0.9c-0.3-0.3-0.5-0.8-0.5-1.2c0-0.3,0.1-0.8,0.4-1
				c0.1-0.1,0.7,0,0.9,0.2c1.9,1.2,3.6,0.8,5-0.5C188,130.6,188.2,130.4,188.5,130.2L188.5,130.2z"/>
			<path class="st0" d="M219.5,50.4c2.5,0.3,4.4,2.4,4.2,4.7c-0.1,1.2-0.9,2.2-2,2.3c-0.4,0-0.8-0.1-1.1-0.3
				c-0.4-0.4-0.1-0.8,0.2-1.2c1-1.5,0.9-3.1-0.2-4.5c-0.2-0.2-0.4-0.4-0.5-0.6C219.7,50.8,219.7,50.7,219.5,50.4L219.5,50.4z"/>
			<path class="st0" d="M17.7,50.5c-0.3,0.4-0.6,0.7-0.8,1c-1.1,1.4-1.3,3-0.3,4.5c0.2,0.4,0.6,0.7,0.3,1.2
				c-0.3,0.4-0.9,0.5-1.5,0.2c-0.9-0.3-1.3-1-1.5-1.8C13.1,53.3,15.2,50.6,17.7,50.5z"/>
			<path class="st0" d="M199.8,19.8c0.4-2.9,3-4.7,5.3-4.1c1.1,0.3,1.9,1.3,1.8,2.2c0,0.8-0.5,1.1-1.2,0.8c-0.2-0.1-0.4-0.2-0.6-0.4
				c-1.3-0.8-2.7-0.6-3.9,0.2C200.7,19,200.3,19.4,199.8,19.8z"/>
			<path class="st0" d="M37.4,19.8c-0.6-0.5-1.1-0.9-1.6-1.3c-1.2-0.8-2.4-0.9-3.7-0.1c-0.1,0.1-0.3,0.2-0.4,0.2
				c-0.4,0.2-0.9,0.5-1.2,0.1c-0.2-0.3-0.3-0.8-0.2-1.2c0.2-1.2,1.6-2,3.1-1.8C35.5,15.8,37,17.3,37.4,19.8z"/>
			<path class="st0" d="M219.5,39c0.4-0.5,0.8-1.1,1.2-1.6c0.8-1.1,0.9-2.3,0.1-3.6c-0.1-0.2-0.3-0.4-0.4-0.6
				c-0.1-0.3-0.2-0.7-0.1-0.9c0.3-0.2,0.7-0.4,1-0.4c1,0,2,1.1,2.1,2.3c0.2,1.7-0.9,3.6-2.7,4.5c-0.4,0.2-0.9,0.3-1.3,0.5
				C219.6,39.2,219.6,39.1,219.5,39z"/>
			<path class="st0" d="M188.3,19.7c-0.5-0.4-0.9-0.7-1.3-1c-1.2-1-2.5-1-3.9-0.4c-0.1,0.1-0.2,0.1-0.3,0.2
				c-0.4,0.2-0.8,0.6-1.2,0.2c-0.5-0.4-0.4-0.9-0.2-1.4c0.3-0.9,1.2-1.6,2.4-1.7c2-0.1,4.2,1.6,4.6,3.7
				C188.5,19.4,188.4,19.5,188.3,19.7z"/>
			<path class="st0" d="M48.5,20c0.6-2.5,2.1-4.1,4.2-4.3c1-0.1,1.9,0.1,2.7,0.9c0.3,0.3,0.4,0.8,0.5,1.2c0,0.3-0.1,0.8-0.3,0.9
				c-0.2,0.1-0.7,0.1-1-0.1c-2.2-1.1-3.3-1-5.2,0.6C49.2,19.5,49,19.6,48.5,20z"/>
			<path class="st0" d="M129,40.7c0,0.9-0.4,1.3-1.1,1.6c-1.5,0.7-3.7-0.2-4.2-1.8c-0.5-1.3,0-3.1,1-3.9c1-0.9,2.4-1,3.9-0.3
				c0.4,0.2,0.8,0.2,1.4,0.4c-0.1,0.7-0.2,1.4-0.4,2.1c-0.1,0-0.2,0-0.2,0c-0.1-0.3-0.2-0.6-0.3-0.8c-0.1-0.3-0.2-0.7-0.4-1
				c-0.7-1.1-2.2-1-2.8,0.1c-0.4,0.9-0.6,2-0.7,3.1c-0.1,0.7,0.2,1.3,0.9,1.6c0.7,0.3,1.4,0.2,2-0.3C128.5,41.3,128.7,41,129,40.7
				L129,40.7z"/>
			<path class="st0" d="M194.6,80.6c0.5-0.8,1.3-0.7,2-0.5c0.9,0.2,1.5,1,1.5,1.8c0,0.8-0.3,1.5-1.1,1.9c-0.3,0.2-0.7,0.3-1,0.3
				c-1.4,0.1-2.8-0.3-4.2-1.1c0.5-0.3,1-0.2,1.4-0.2c0.5,0,1,0,1.6-0.1c0.7-0.1,1-0.5,1-1c0-0.7-0.4-0.9-1-0.9
				C194.7,80.7,194.7,80.6,194.6,80.6L194.6,80.6z"/>
			<path class="st0" d="M43,80.6c-0.9,0.2-1.2,0.5-1.2,1c0,0.6,0.5,1,1.5,1.1c0.8,0,1.5,0,2.5,0c-0.3,0.3-0.4,0.5-0.6,0.6
				c-1,0.3-2,0.6-3.1,0.8c-0.5,0.1-1-0.1-1.5-0.3c-0.8-0.3-1.2-1.1-1.1-1.9c0.1-0.9,0.6-1.4,1.4-1.8C41.8,79.7,42.3,79.9,43,80.6z"
				/>
			<path class="st0" d="M139.5,21.1c1,1.4,2,2.7,3,4c0.4,0.5,0.8,1.1,1.3,1.6c1,1,2.2,1.8,3.8,1.5c-0.5,0.6-1.1,0.8-1.8,0.5
				c-0.6-0.3-1.1-0.5-1.8-0.9c0,0.4,0.1,0.7,0.1,0.9c-0.5,0.2-0.8,0-1.1-0.3c-0.4-0.5-0.8-1-1.1-1.5c-0.8-1.7-1.5-3.5-2.2-5.2
				C139.5,21.6,139.5,21.4,139.5,21.1L139.5,21.1z"/>
			<path class="st0" d="M148.7,60.8c0,0.4,0,0.7,0.1,1c-0.1,0-0.1,0.1-0.2,0.1c-0.5-1-0.9-1.9-1.5-3.2c0.3,0.1,0.5,0.1,0.5,0.2
				c0.3,0.4,0.6,0.4,1,0.2c1.3-0.6,2.8-1.2,4.1-1.9c0-0.3,0-0.7,0-1c0.1,0,0.1,0,0.2,0c0.5,1,0.9,2,1.4,3.2c-1-0.6-1-0.6-2.1-0.1
				C151,59.7,149.9,60.3,148.7,60.8L148.7,60.8z"/>
			<path class="st0" d="M104.3,37.7c-0.7,0.4-0.6,0.9-0.3,1.6c0.6,1.3,1.2,2.7,1.8,4c0.4,0,0.7-0.1,0.9-0.1c0,0.1,0.1,0.2,0.1,0.2
				c-1,0.4-2,0.9-3.1,1.3c0-0.1-0.1-0.1-0.1-0.2c0.2-0.3,0.5-0.5,0.5-0.8c0-0.3-0.2-0.7-0.4-1c-0.5-1.2-1.1-2.4-1.6-3.7
				c-0.3,0-0.7,0-1.2,0C102.2,38.5,103.2,38,104.3,37.7z"/>
			<path class="st0" d="M89.3,28.8c0.2,0,0.4-0.1,0.5,0c0.5,0.3,1,0.1,1.5-0.1c1.5-0.8,3-1.8,3.9-3.5c0.5-0.7,0.9-1.5,1.4-2.2
				c0.2-0.3,0.4-0.5,0.8-1c0,0.4,0,0.6,0,0.7c-0.6,1.6-1.3,3.4-1.9,5c-0.3,0.8-1,1.4-1.9,1.8c-0.1-0.3-0.1-0.6-0.2-0.8
				C90.5,29.7,90.3,29.7,89.3,28.8z"/>
			<path class="st0" d="M123,20.8c0.1,0.7-0.3,0.8-0.8,0.9c-0.6,0.1-1.2,0.3-1.8,0.3c-1.8,0-3.8,0-5.6,0c-0.4,0-0.7-0.1-0.7-0.6
				c0-0.5,0.3-0.6,0.7-0.6c2.5-0.1,5.1-0.2,7.6-0.2C122.7,20.6,122.9,20.7,123,20.8z"/>
			<path class="st0" d="M93.3,123.4c-1.4-2.1-0.6-7.6,1.2-9.7c0.3,0.2,0.4,0.4,0.3,0.8c-0.1,0.4-0.3,0.8-0.4,1.1
				c-1.1,2.2-1.5,4.7-1.1,7.2C93.4,123.1,93.3,123.3,93.3,123.4L93.3,123.4z"/>
			<path class="st0" d="M142,114.7c0.6-0.4,1-0.1,1.2,0.3c0.3,0.6,0.5,1.2,0.7,1.8c0.5,1.9,0.7,4,0.6,6c0,0.4,0,0.9-0.6,1.3
				c0-0.3-0.1-0.5-0.1-0.7c0.7-2.7-0.4-5-1.2-7.4C142.3,115.6,142.1,115.1,142,114.7z"/>
			<path class="st0" d="M41.5,25.6c0.5-0.5,0.9-0.9,1.4-1.5c0.5,0.5,0.9,0.9,1.5,1.4C44,26.3,43.6,27,42.9,28
				C42.4,27.1,42,26.4,41.5,25.6z"/>
			<path class="st0" d="M215.1,105.3c-0.5,0.5-0.9,0.9-1.4,1.4c-0.7-0.5-1.5-0.9-2.3-1.4c0.7-0.7,1.5-1,2.2-1.5
				C214.1,104.2,214.6,104.7,215.1,105.3z"/>
			<path class="st0" d="M26,44.9c-0.9,0.5-1.6,1-2.4,1.4c-0.5-0.5-0.9-0.9-1.4-1.4c0.4-0.5,0.9-0.9,1.4-1.5
				C24.3,43.8,25.1,44.3,26,44.9z"/>
			<path class="st0" d="M23.7,106.6c-0.6-0.5-1-0.9-1.5-1.4c0.5-0.5,1-0.9,1.6-1.4c0.6,0.3,1.3,0.8,2.2,1.3
				C25.1,105.8,24.4,106.2,23.7,106.6z"/>
			<path class="st0" d="M213.4,43.5c0.6,0.5,1,0.9,1.5,1.3c-0.5,0.5-1,0.9-1.5,1.4c-0.6-0.4-1.4-0.8-2.3-1.4
				C212,44.3,212.7,43.9,213.4,43.5z"/>
			<path class="st0" d="M194.2,28.1c-0.5-0.9-1-1.6-1.5-2.4c0.5-0.5,0.9-0.9,1.5-1.4c0.5,0.6,0.9,1,1.4,1.5
				C195.2,26.3,194.7,27.1,194.2,28.1z"/>
			<path class="st0" d="M192.6,124.4c0.5-0.8,1-1.6,1.5-2.4c0.5,0.9,0.9,1.6,1.4,2.4c-0.5,0.4-1,0.8-1.6,1.3
				C193.7,125.4,193.3,124.9,192.6,124.4L192.6,124.4z"/>
			<path class="st0" d="M41.6,124.3c0.4-0.7,0.8-1.4,1.3-2.2c0.5,0.9,1,1.6,1.5,2.4c-0.5,0.4-1,0.9-1.6,1.4
				C42.5,125.4,42.1,124.9,41.6,124.3z"/>
			<path class="st0" d="M15.4,64.7c0.7,0.1,1.3,0.4,1.8,0.3c0.6-0.1,1.1-0.6,1.6-0.9c0.5,0.8,0.5,1.3-0.2,1.7
				c-0.6,0.4-1.3,0.4-1.9,0.1C16.1,65.7,15.6,65.3,15.4,64.7z"/>
			<path class="st0" d="M15.5,24.8c0.5-1.1,1.6-1.7,2.7-1.4c0.4,0.1,0.8,0.5,1.1,0.8c0.3,0.3,0.2,0.7-0.2,1
				c-0.5-0.3-1.1-0.7-1.7-0.8C16.7,24.4,16,24.7,15.5,24.8z"/>
			<path class="st0" d="M218.2,25.3c-0.5-0.7-0.4-1.3,0.4-1.7c0.8-0.4,1.6-0.3,2.2,0.2c0.4,0.3,0.6,0.6,1,1.1
				c-0.8-0.2-1.4-0.4-2-0.4C219.4,24.6,218.7,25,218.2,25.3z"/>
			<path class="st0" d="M23.3,132.7c-1.3-0.7-1.8-1.7-1.6-2.9c0.2-1,1.1-1.4,1.9-0.8C22.5,130.9,22.5,130.9,23.3,132.7z"/>
			<path class="st0" d="M213.5,129c1-0.5,1.7-0.1,1.9,0.9c0.2,1.1-0.3,2-1.5,2.7C214.6,130.8,214.6,130.8,213.5,129L213.5,129z"/>
			<path class="st0" d="M23.7,21.1c-1.1,0.3-1.6,0.1-1.9-0.6c-0.4-1.1,0.1-2.3,1.3-3c-0.1,0.6-0.4,1.2-0.3,1.8
				C22.9,19.9,23.4,20.4,23.7,21.1z"/>
			<path class="st0" d="M15.5,125.2c1.7,0.4,1.7,0.4,3.5-0.5c0.4,0.3,0.4,0.6,0.2,1c-0.2,0.5-0.6,0.8-1.1,0.9
				C17.1,126.9,16.2,126.5,15.5,125.2z"/>
			<path class="st0" d="M213.5,21.1c0.3-0.6,0.8-1.2,0.9-1.7c0.1-0.5-0.2-1.1-0.3-1.7c1,0.3,1.7,1.4,1.4,2.7
				C215.3,21.1,214.7,21.4,213.5,21.1z"/>
			<path class="st0" d="M221.8,64.6c-0.4,1-1.2,1.5-2.2,1.6c-0.6,0.1-1.1-0.1-1.5-0.6c-0.3-0.4-0.4-0.9,0.1-1.3
				c0.6,0.3,1.1,0.7,1.8,0.8C220.5,65.1,221.1,64.8,221.8,64.6L221.8,64.6z"/>
			<path class="st0" d="M221.9,85.6c-1.3-0.9-2.5-0.8-3.6,0.3c-0.4-0.3-0.6-0.6-0.4-1.1c0.2-0.5,0.5-0.8,1-0.9
				C220.1,83.6,221.1,84.1,221.9,85.6z"/>
			<path class="st0" d="M18.9,85.9c-1-1-2.1-1.4-3.5-0.3c0.5-1.3,1.6-2,2.9-1.6c0.4,0.1,0.7,0.5,0.9,0.8
				C19.5,85.2,19.4,85.6,18.9,85.9z"/>
			<path class="st0" d="M218.1,124.7c1.7,1,1.7,1,3.4,0.6c-0.5,1.2-1.8,1.7-2.9,1.2C217.9,126.2,217.7,125.5,218.1,124.7z"/>
			<path class="st0" d="M62.5,21c0.9-1.9,0.9-1.9,0.4-3.5c1.2,0.5,1.8,1.8,1.4,3C64,21.3,63.4,21.5,62.5,21z"/>
			<path class="st0" d="M63,132.5c0.7-1.3,0.5-2.3-0.6-3.3c0.8-0.8,1.7-0.4,1.9,0.6C64.7,130.8,64.3,131.8,63,132.5L63,132.5z"/>
			<path class="st0" d="M174.2,132.6c-1.4-0.9-1.8-2.2-1.2-3.3c0.4-0.7,0.9-0.8,1.7-0.3C173.7,130.8,173.7,130.8,174.2,132.6
				L174.2,132.6z"/>
			<path class="st0" d="M174.7,21c-0.9,0.5-1.7,0.1-1.9-0.9c-0.2-1.1,0.2-1.9,1.4-2.7c-0.1,0.6-0.4,1.3-0.3,1.9
				C173.9,20,174.4,20.5,174.7,21z"/>
			<path class="st0" d="M100.9,30c-1.4-1.2-2.1-5.3-1.1-7.1c0,0.8-0.1,1.6,0,2.3c0.1,0.8,0.3,1.6,0.5,2.4
				C100.4,28.5,101.1,29.1,100.9,30z"/>
			<path class="st0" d="M137.8,22.4c0.1,0.3,0.2,0.7,0.2,1c0.1,1.7-0.2,3.4-0.7,5c-0.1,0.5-0.3,1-1.2,1c0.9-2.3,1.9-4.6,1.4-7.1
				C137.6,22.4,137.7,22.4,137.8,22.4z"/>
			<path class="st0" d="M119.9,107c-0.8,0.3-1.6,0.4-2.3,0c0.2-0.8,0.6-1.2,1.4-1.2C119.5,105.8,119.8,106.2,119.9,107z"/>
			<path class="st0" d="M142.1,112.1c0.5,0,0.9,0.4,1,0.8c0.1,0.4-0.4,0.9-0.9,0.9s-0.9-0.3-1-0.8
				C141.1,112.5,141.6,112.1,142.1,112.1z"/>
			<path class="st0" d="M119.4,122.6c0,0.5-0.2,0.8-0.7,0.9c-0.6,0.1-1-0.3-1-0.9c0-0.5,0.3-0.8,0.8-0.8
				C119.1,121.7,119.4,122.1,119.4,122.6z"/>
			<path class="st0" d="M118.8,104.9c-0.5,0-0.9-0.4-0.8-0.9c0-0.5,0.4-0.8,0.9-0.8s0.9,0.4,0.8,0.9
				C119.6,104.6,119.3,104.9,118.8,104.9L118.8,104.9z"/>
			<path class="st0" d="M96,112.2c0,0.5-0.3,0.8-0.8,0.8c-0.5,0-0.9-0.3-0.9-0.8c0-0.5,0.3-0.8,0.8-0.8
				C95.6,111.4,96,111.8,96,112.2z"/>
			<path class="st0" d="M137,30.9c-0.1,0.4-0.4,0.5-0.8,0.5s-0.7-0.3-0.6-0.7c0.1-0.2,0.4-0.5,0.6-0.6
				C136.7,29.9,137.1,30.4,137,30.9z"/>
			<path class="st0" d="M118.9,22.9c0.1,0.2,0.3,0.4,0.3,0.7c0,0.4-0.3,0.7-0.7,0.6c-0.2-0.1-0.5-0.4-0.5-0.6
				C118,23.1,118.3,22.9,118.9,22.9L118.9,22.9z"/>
			<path class="st0" d="M117.8,35.3c0.8-0.4,0.9-0.4,1.8,0.1C119,36.3,118.5,36.3,117.8,35.3z"/>
			<path class="st0" d="M144.7,87.6c-17.3,0-34.5,0-51.6,0c0.2-1,24.1-43.2,25.7-45.6C127.5,57.2,136,72.3,144.7,87.6z M143.1,86.6
				C134.9,72.3,127,58.1,118.8,44c-0.2,0.2-0.3,0.3-0.4,0.5c-8,14-15.8,27.8-23.7,41.8l0,0.1c0,0,0,0.1,0.1,0.2
				C110.9,86.6,126.9,86.6,143.1,86.6z"/>
			<path class="st0" d="M107.9,75c0.6-0.3,1.2,0,1.6,0.3c0.9,0.4,1.7,0.9,2.5,1.4c1.7,1,3.6,1.8,5.6,1.9c0.7,0,1.3,0,2,0
				c0-0.1,0-0.2,0-0.3c-0.5-0.1-0.9-0.1-1.4-0.2c-1.8-0.2-3.6-0.8-5.2-1.6c-0.8-0.4-1.6-0.8-2.5-1.2c-1.5-0.8-3.1-1.2-4.8-1.3
				c-0.9-0.1-1.7-0.2-2.1-1.1c-0.3-0.8,0.2-1.5,0.7-2.2c0.2-0.2,0.4-0.4,0.6-0.6c2.5-2.1,5-4.4,8-6c2.3-1.3,5-2,7.7-1.7
				c0.9,0.1,1.9,0.3,2.8,0.8c1.6,0.8,3.1,1.8,4.6,2.8c1.2,0.8,2.3,1.6,3.5,2.4c0.9,0.7,1.2,1.3,0.9,2.7c-0.6,0.3-1.1,0-1.5-0.4
				c-0.9-0.7-1.8-1.4-2.7-2.2c-1.3-1.2-2.7-2.2-4.3-3c-3.1-1.2-6.1-1.3-9.1,0c-0.8,0.4-1.7,0.8-2.5,1.2c-1.7,0.9-3.4,1.8-5.1,2.7
				c-0.8,0.4-1.4,0.9-1.9,1.6c-0.8,1.2-0.3,2.3,1.2,2.3c1.6,0.1,3,0.6,4.4,1.2c2.8,1.3,5.7,2.1,8.8,2.2c3.5,0.1,6.5-0.9,9.4-3
				c0.3-0.2,0.7-0.4,1-0.6c0,0,0.1,0,0.3,0.1c-0.2,0.3-0.4,0.6-0.7,1.1c0.5-0.3,0.9-0.5,1.3-0.7c0,0.1,0.1,0.1,0.1,0.2
				c-0.5,0.4-1.1,0.9-1.6,1.3c-2.5,1.9-5.4,3.4-8.6,3.9c-3,0.5-5.7,0-8.3-1.4c-0.8-0.4-1.5-1-2.2-1.4
				C109.6,75.7,108.7,75.4,107.9,75L107.9,75z"/>
			<path class="st0" d="M109.6,68.8c0.4,1,0,2.1,0.9,3.1c-0.1-1.2-0.4-2.4,0.3-3.8c0.1,1.6-0.1,3.2,1.3,4.4c-0.6-2-1.4-3.9,0.6-5.4
				c-0.4,2.5-0.1,4.8,1.8,6.5c1.5,1.3,3.3,1.7,5.2,1.6c3.7-0.2,6.6-3.7,5.6-8.1c0.8,0.6,0.9,0.8,0.4,4.6c0.8-0.6,0.8-0.6,1.1-3.8
				c1,1.5,0.2,2.9-0.1,4.5c1.2-0.9,1.2-2.1,1.3-3.4c0.6,0.9,0.6,0.9,0.2,2.9c0.6-0.6,0.6-0.6,1-1.8c0.6,0.5-0.1,1.1,0.2,1.8
				c0.3-0.4,0.5-0.8,0.7-1.1c0.3,0.1,0.6,0.2,0.3,0.6c-0.4,0.5-0.9,1.1-1.4,1.5c-1.7,1.5-3.9,2.3-6.2,2.7c-3.6,0.6-7.1,0.2-10.5-1.1
				c-1-0.4-1.9-0.8-3-1.2c-0.4-0.2-0.8-0.5-1.2-0.7c0.1-0.8,0.2-1.5,0.3-2.3c0.2,0.3,0.3,0.5,0.5,0.7
				C109.3,70.2,109.4,69.6,109.6,68.8z"/>
			<path class="st0" d="M113.6,67.6c0.9-0.4,1.6-0.3,2.4,0.3c-0.1,1.1,0,2.2,0.9,3.2c0.6,0.5,1.2,0.8,1.9,0.8
				c1.7,0.1,2.9-0.8,3.3-2.7c-0.3-0.1-0.7-0.1-1-0.3c-0.6-0.3-1-1-0.9-1.7c0.1-0.7,0.7-1.3,1.4-1.5c0.7-0.1,1.4,0.2,1.7,0.8
				c0.2,0.5,0.4,0.9,1,1c0.2,0,0.3,0.4,0.3,0.7c0.3,3.2-2.1,5.8-5.1,6c-3,0.3-5.8-1.8-6.1-4.7C113.5,69,113.6,68.3,113.6,67.6z"/>
			<path class="st0" d="M107.5,66.6c0.1-0.1,0.1-0.3,0.2-0.4c1.7-1.5,3.4-3.3,5.2-4.6c3.7-2.7,7.8-2.3,11.7-0.5
				c1.9,0.9,3.5,2.2,4.9,3.8c0.1,0.1,0.1,0.1,0.2,0.2c0.2,0.3,0.6,0.6,0.2,0.9c-0.3,0.3-0.6-0.1-0.8-0.3c-1.3-0.9-2.5-2-4-2.8
				c-2-1.2-4.4-1.7-6.8-1.4c-1.9,0.2-3.8,0.8-5.4,1.8c-1.4,0.9-2.9,1.8-4.3,2.9c-0.3,0.2-0.6,0.5-0.9,0.7
				C107.6,66.8,107.6,66.7,107.5,66.6L107.5,66.6z"/>
			<path class="st0" d="M96.7,85.3c4.3-3.1,8.5-6.1,12.7-9.2c0.3,0.1,0.5,0.3,0.8,0.5c-0.2,0.2-0.4,0.3-0.5,0.5
				c-3.8,2.8-7.5,5.6-11.3,8.4c-0.2,0.1-0.4,0.3-0.6,0.4C97.3,86.1,97,85.9,96.7,85.3z"/>
			<path class="st0" d="M128.6,76.5c0.4-0.6,0.7-0.4,1.1-0.1c1.1,0.9,2.3,1.8,3.5,2.8c2.4,1.9,4.9,3.8,7.2,5.7
				c0.3,0.2,0.6,0.5,1,0.8c-0.6,0.5-1.1,0.2-1.5-0.1c-1.2-1-2.4-1.9-3.7-3C133.7,80.6,131.2,78.5,128.6,76.5L128.6,76.5z"/>
			<path class="st0" d="M119.6,59.1c-0.7,0.1-0.6-0.3-0.6-0.6c-0.1-1-0.1-2-0.2-3.1c-0.2-3-0.3-5.9-0.5-8.9c0-0.6,0.1-1.1,0.6-1.6
				c0.2,0.5,0.4,1,0.4,1.5c0.1,4.1,0.2,8.1,0.3,12.1C119.7,58.6,119.6,58.9,119.6,59.1z"/>
			<path class="st0" d="M127.6,77c0.2,0,0.5-0.1,0.7,0c0.1,0,0.2,0.2,0.4,0.3c2.8,2.8,5.5,5.4,8.3,8.2c0.1,0.1,0.1,0.2,0.3,0.4
				c-0.6,0.2-1.1,0.2-1.5-0.2c-2.8-2.8-5.4-5.5-8.2-8.3C127.6,77.2,127.6,77.1,127.6,77z"/>
			<path class="st0" d="M111.2,77.3c-0.8,0.8-1.5,1.6-2.2,2.4c-1.9,1.9-3.9,3.8-5.7,5.6c-0.5,0.5-1,0.8-1.7,0.4
				c0.2-0.2,0.4-0.4,0.6-0.6c2.8-2.5,5.4-5.1,8.2-7.6c0.1-0.1,0.2-0.2,0.3-0.3C110.9,76.8,111.1,77,111.2,77.3L111.2,77.3z"/>
			<path class="st0" d="M97.9,82.3c0.4-1.1,0.9-1.6,1.6-2c2.4-1.4,4.9-2.9,7.3-4.3c0.6-0.3,1.1-0.5,1.8,0
				C105.1,78,101.6,80.1,97.9,82.3z"/>
			<path class="st0" d="M139.6,82c-3.4-2.2-6.5-4.3-9.7-6.3c0.3-0.8,0.6-0.5,1-0.3c1.5,0.9,3.1,1.9,4.6,2.9c0.7,0.5,1.5,0.9,2.2,1.4
				C138.9,80.4,138.9,80.4,139.6,82L139.6,82z"/>
			<path class="st0" d="M120.7,48.3c0.5,0.7,1,1.3,0.9,2.1c-0.2,2.5-0.4,5.2-0.6,7.7c0,0.2,0,0.5-0.1,0.7c-0.1,0.1-0.3,0.2-0.6,0.3
				c0-0.3-0.1-0.4-0.1-0.6C120.3,55.3,120.5,51.9,120.7,48.3z"/>
			<path class="st0" d="M112.5,78.1c-2,2.4-4.1,4.9-6.1,7.3c-0.4,0.5-0.8,0.5-1.5,0.3c0.5-0.5,0.8-1,1.2-1.4c1.7-2,3.5-4.1,5.3-6
				C111.7,78,111.9,77.5,112.5,78.1z"/>
			<path class="st0" d="M117,48.3c0.5,3.7,1.1,7.2,1.5,10.7c-0.6,0.2-0.7-0.1-0.7-0.4c-0.4-2.2-0.8-4.5-1.2-6.7
				c-0.1-0.4-0.1-0.9-0.2-1.3C116.1,49.8,116.3,49.1,117,48.3z"/>
			<path class="st0" d="M133.5,85.8c-0.5,0.2-0.9,0.2-1.2-0.2c-2-2.5-4-5.1-6.1-7.7c0.4-0.1,0.6-0.2,0.8-0.1c0.1,0,0.2,0.2,0.3,0.3
				c2,2.5,4.1,5,6,7.5C133.5,85.6,133.5,85.7,133.5,85.8z"/>
			<path class="st0" d="M125.2,78.4c0.4-0.4,0.6-0.4,0.8-0.1c0.2,0.3,0.4,0.7,0.7,1c1.1,1.7,2.2,3.6,3.4,5.3c0.2,0.3,0.4,0.7,0.6,1
				c-0.5,0.3-0.9,0.2-1.2-0.2C128.1,83.1,126.7,80.8,125.2,78.4z"/>
			<path class="st0" d="M108.1,85.8c0.1-0.2,0.2-0.4,0.3-0.5c1.4-2.1,2.9-4.3,4.3-6.3c0.2-0.3,0.4-0.8,0.9-0.2
				c-0.1,0.2-0.2,0.4-0.3,0.6c-1.2,1.9-2.5,4-3.8,5.9C109.2,85.8,108.8,86.2,108.1,85.8z"/>
			<path class="st0" d="M115.2,51.3c0.7,2.7,1.5,5.2,1.9,7.9c0,0-0.2,0.1-0.3,0.2c-0.1-0.2-0.3-0.3-0.3-0.5c-0.6-2-1.2-4.1-1.8-6
				C114.5,52.1,114.8,51.8,115.2,51.3z"/>
			<path class="st0" d="M114.2,78.8c0.3,0.1,0.5,0.2,0.6,0.3c0,0.1,0,0.2,0,0.3c-0.9,1.9-1.9,4-2.9,5.9c-0.2,0.5-0.5,0.8-1.2,0.6
				C111.9,83.5,113,81.2,114.2,78.8z"/>
			<path class="st0" d="M121.9,59.5c-0.6,0-0.5-0.4-0.4-0.8c0.2-1.3,0.4-2.5,0.6-3.9c0.2-1,0.3-2,0.5-3.3c0.5,0.6,0.9,1.1,0.7,1.7
				c-0.4,1.9-0.8,3.9-1.2,5.8C122.1,59.3,122,59.3,121.9,59.5L121.9,59.5z"/>
			<path class="st0" d="M124,78.8c0.6-0.4,0.7,0,0.9,0.2c0.6,1.2,1.2,2.4,1.7,3.6c0.5,1,1,2,1.5,3.1c-0.4,0.2-0.8,0.2-1-0.2
				C126.1,83.3,125,81.1,124,78.8z"/>
			<path class="st0" d="M113,85.8c0.8-2,1.5-4.1,2.3-6.1c0.1-0.4,0.4-0.5,0.9-0.2c-0.2,0.6-0.4,1.2-0.6,1.7
				c-0.5,1.3-0.9,2.7-1.4,4.1C114,85.8,113.8,86.1,113,85.8z"/>
			<path class="st0" d="M122.9,79.1c0.3-0.1,0.4-0.1,0.7-0.2c0.8,2.2,1.6,4.6,2.3,6.8c-0.6,0.4-0.9,0.1-1-0.4
				C124.2,83.3,123.5,81.3,122.9,79.1L122.9,79.1z"/>
			<path class="st0" d="M122.4,79.3c0.5,2.1,1,4.3,1.5,6.4c-0.5,0.2-0.8,0.2-0.9-0.3c-0.4-1.9-0.9-3.8-1.3-5.7
				C121.6,79.3,121.9,79.2,122.4,79.3L122.4,79.3z"/>
			<path class="st0" d="M106.1,75.4c-1.9,0.9-3.8,1.7-5.8,2.7c0.2-0.9,0.7-1.3,1.4-1.6c0.6-0.3,1.2-0.5,1.8-0.9
				C104.3,75.1,105.1,75,106.1,75.4z"/>
			<path class="st0" d="M114,53.5c0.7,1.9,1.5,3.9,2.2,5.9c-0.2,0.1-0.4,0.2-0.6,0.3c-0.3-0.7-0.6-1.4-0.9-2.1
				c-0.3-0.7-0.6-1.5-1-2.2C113.3,54.7,113.3,54.1,114,53.5z"/>
			<path class="st0" d="M118,85.9c-0.4,0-0.6,0-0.9-0.1c0.3-2.1,0.6-4.2,1-6.2c0.6-0.1,0.7,0.1,0.6,0.5c-0.1,0.7-0.2,1.4-0.2,2.1
				C118.3,83.4,118.1,84.7,118,85.9z"/>
			<path class="st0" d="M119.2,79.7c0.6-0.2,0.7,0.1,0.7,0.4c0,1.8,0,3.8,0,5.7c-0.3,0-0.6,0-0.9,0
				C119.1,83.7,119.1,81.7,119.2,79.7z"/>
			<path class="st0" d="M117.5,79.5c-0.5,2.1-0.9,4-1.3,5.9c-0.1,0.5-0.3,0.7-1,0.4c0.4-2,1-4.1,1.6-6.1
				C116.9,79.6,117.2,79.6,117.5,79.5z"/>
			<path class="st0" d="M121.9,85.9c-0.3,0-0.5,0-0.9,0c-0.2-2-0.4-4.2-0.6-6.2c0.1,0,0.2-0.1,0.2-0.1c0.2,0.1,0.4,0.2,0.4,0.4
				C121.4,81.8,121.6,83.8,121.9,85.9z"/>
			<path class="st0" d="M131,74.5c0.2,0,0.5-0.2,0.6-0.1c1.5,0.7,3.2,1.3,4.6,2.1c0.4,0.2,0.6,0.7,0.9,1.1c0,0.1-0.1,0.1-0.1,0.2
				c-2-1-4.1-2-6-3.1C131,74.7,131,74.6,131,74.5z"/>
			<path class="st0" d="M123.9,54c0.6,0.5,0.7,1,0.5,1.7c-0.5,1.3-0.9,2.7-1.3,4c-0.6,0.1-0.7-0.2-0.5-0.6
				C123,57.4,123.4,55.7,123.9,54L123.9,54z"/>
			<path class="st0" d="M108.2,69.6c-0.1,0.7-0.2,1.4-0.3,2c-0.1,0.6-0.5,0.9-1.1,0.9c-0.7,0-1.1-0.5-0.8-1.2
				C106.3,70.6,107.1,69.9,108.2,69.6z"/>
			<path class="st0" d="M112.9,55.5c0.8,1.5,1.5,2.9,2.2,4.3c-0.1,0.1-0.1,0.1-0.2,0.2c-0.2-0.1-0.4-0.1-0.5-0.3
				c-0.6-0.9-1.2-1.8-1.8-2.8C112.2,56.4,112.4,56,112.9,55.5z"/>
			<path class="st0" d="M124,60.2c-0.5-0.1-0.6-0.3-0.5-0.6c0.5-1.1,0.9-2.3,1.4-3.5c0.6,0.4,0.7,0.9,0.3,1.5
				C124.9,58.3,124.5,59.3,124,60.2L124,60.2z"/>
			<path class="st0" d="M111.3,57.9c0.2-0.3,0.4-0.6,0.6-0.9c0.7,1.1,1.4,2.1,2.1,3.3c-0.2,0.1-0.5,0.2-0.5,0.2
				C112.8,59.7,112.1,58.9,111.3,57.9z"/>
			<path class="st0" d="M135.6,75c-1.3-0.5-2.4-0.9-3.6-1.3c0-0.1,0-0.2,0-0.3c0.3-0.1,0.6-0.3,0.9-0.2
				C134.5,73.3,135.1,73.7,135.6,75L135.6,75z"/>
			<path class="st0" d="M113,60.9c-0.8,0.3-1,0.2-2.4-1.5c0.1-0.2,0.2-0.4,0.4-0.8C111.7,59.4,112.3,60.1,113,60.9z"/>
			<path class="st0" d="M124.9,60.7c-0.2-0.7,0.2-1.6,1.2-3.1c0.3,0.3,0.5,0.7,0.1,1.1c-0.3,0.4-0.6,0.8-0.8,1.2
				C125.3,60.2,125.1,60.4,124.9,60.7L124.9,60.7z"/>
			<path class="st0" d="M111.7,61.8c-0.8,0.1-1.2-0.7-1.9-1c0.1-0.3,0.3-0.5,0.4-0.8c0.6,0.6,1.1,1,1.6,1.5
				C111.8,61.6,111.8,61.7,111.7,61.8z"/>
			<path class="st0" d="M126.9,59c0.8,1-0.1,1.3-0.4,1.8c-0.2,0.3-0.5,0.6-0.9,0C126,60.2,126.4,59.6,126.9,59z"/>
			<path class="st0" d="M111,62.3c-0.6,0.6-0.6,0.6-1.8-0.3c0-0.1,0-0.2,0.1-0.3c0.1-0.1,0.2-0.3,0.3-0.4
				C110,61.6,110.4,61.9,111,62.3z"/>
		</g>
	</g>
</g>
</svg>
