<?xml version="1.0" encoding="utf-8"?>
<!-- Generator: Adobe Illustrator 26.0.1, SVG Export Plug-In . SVG Version: 6.00 Build 0)  -->
<svg version="1.1" id="Слой_1" xmlns:xodm="http://www.corel.com/coreldraw/odm/2003"
	 xmlns="http://www.w3.org/2000/svg" xmlns:xlink="http://www.w3.org/1999/xlink" x="0px" y="0px" viewBox="0 0 238.1 150.2"
	 style="enable-background:new 0 0 238.1 150.2;" xml:space="preserve">
<style type="text/css">
	.st0{fill-rule:evenodd;clip-rule:evenodd;fill:#373535;}
</style>
<g id="Слой_x0020_1">
	<path class="st0" d="M126.5,89.6c0-0.3,1-5.1,1.2-6.7c0.1-1.2,0.2-2.4,0.3-3.7c0.1-1.3,0-2.7,0.1-4
		C129.5,77.2,128.7,88.3,126.5,89.6z M158.5,108.9l7.8,0l0-4.4l-7.8,0L158.5,108.9z M99,132.7l-0.9,0l-4,0l0,5.8l7.7,0l0-5.8
		L99,132.7z M126.5,125.6l7.8,0l0-6.8l-7.7,0L126.5,125.6z M72.2,147.6l7.7,0l0-6.9l-7.8,0L72.2,147.6z M90.7,144.9l0-7.7l-7.6,0
		l-0.1,7.7L90.7,144.9z M115.8,133.9l7.7,0l-0.1-7.7l-7.6,0L115.8,133.9z M112.5,127.8c-2.5,0-4.9,0-7.4,0c0,3.5-0.1,7.1-0.1,10.6
		c2.5,0,5,0,7.5,0L112.5,127.8z M147.8,117.2l7.7,0l0-12.6h-7.7L147.8,117.2z M180.2,89.1l0,1.4c0,2.1,0,4.2,0,6.2
		c0,1.6,0.2,5-0.1,6.4l7.8,0l0-16.2l-0.8,0.1l-0.6,0l-1,0l-0.9,0l-3.5,0l-0.9,0L180.2,89.1z M139.4,125.6l1.3,0l1.2,0l0.9,0l1.3,0
		l0.5,0v-0.4l0-1.2l0-1.2l0-0.9l0-1.3l0-14.7l0-1.2l-7.7,0l0,20.9L139.4,125.6z M169,100L169,100l0,9l7.8,0l0-21.9l-7.7,0L169,100z
		 M190.4,99.8l7.7,0.1l0-24.2l-4.7,0l-2.1,0l-1,0L190.4,99.8z M200.5,49.3L200.5,49.3l0,19.3c0.1,3.7,0,7.5,0,11.2
		c0,1.8,0,3.7,0,5.5c0,1.3,0.1,4.4-0.1,5.4l7.8,0l0-46.4l-7.7,0L200.5,49.3z M210.8,39l0,43.6l7.7,0l0-30.8l0-1.4l0-16.8l-7.8,0
		L210.8,39z M221.6,43.4l0,2.4l0,1.1l0,1.2l0,4l-0.1,9.5l8.6,0l0-4.8l0-54.7l-8.5,0L221.6,43.4z M107.9,88.8
		c-0.1-0.7-0.1-2.8,0.1-3.4l0.1-0.9l0.3-1.2c0.2-1.7,2.2-5.2,3.6-6.3c0.2-0.2,0.1,0,0.2-0.2c0.1-0.1,0.1-0.1,0.2-0.2
		c0.3-0.3,0.7-0.5,1.1-0.7c-0.5,1.2-1.2,2.2-1.7,3.4c-0.2,0.5-0.3,1-0.5,1.5c-1,3.9-1.1,8.3-0.7,12.4l0.9,5.9
		C109.8,97.2,108,92.2,107.9,88.8z M161.3,72.5c7-0.5-0.9,2.1-3.3-0.1C159.9,72.7,158.8,72.8,161.3,72.5z M159.2,63.1
		c2.1,0.2,7.9,2.8,9.9,4.2c-5.1-1.1-7.4-4.8-13.1-2.8C154.2,65.3,157,63.3,159.2,63.1z M138.4,58.8c0.3,0.4,0.3,1,0.5,1.5
		c0.4,1.4,1.1,2.8,1.8,4c1.6,2.7,1.9,2.4,3.4,4.1c1,1,4.1,3.1,5.6,3.8l4.1,1.7c-4.2,1.1-9-0.3-11.5-3.4
		C139.9,67.7,138.2,62.4,138.4,58.8z M179.3,55.4c1.7-0.2,0.4,4.7-0.4,1.1C178.8,56,178.9,55.7,179.3,55.4z M162.9,58.5
		c0.8,2.2,2,8.4-0.1,2.1c-1.6-5.1-3.7-3.7-4.4-4.9C160.5,55.9,162,56.5,162.9,58.5z M176.1,44c0.1,0.3,2.1,4.6,0.4,2.5
		c-0.5-0.6-1.1-1.9-0.5-2.7L176.1,44z M168.5,56.7c-0.7-3.9-0.6-8.3,1.7-11.7c1.3-1.9-0.3,2.3-0.5,3.2c-1,4.6-0.4,6.2-0.7,10.4
		C168.7,58.2,168.5,57.2,168.5,56.7z M130.3,61.2c0.2-1.8,1.2-5.6,1.7-7.5c0.7-2.5,2-8.2,3.6-10c1.1-1.3,4.3-2.6,6-3.3
		c1-0.4,2.4-1.1,3.5-1.3c-0.3,0.5-2,1.4-2.8,1.9l-3.9,3c-1.5,1.5-1.9,1.9-3,4c-2.2,4.2-3.3,8-4.8,12.4c0,0.1-0.1,0.3-0.1,0.4
		L130.3,61.2z M153,36.1c-0.2,0.2-0.3,0.1-0.7,0.2c-5.4,0.4-13.5,3.5-17.6,6.6c-0.8,0.6-1.3,2.2-1.6,3.3c-0.3,1.3-0.6,2.5-0.9,3.8
		c-0.5,2-1.1,4.1-1.8,6.1c-0.7,2.2-1.5,4.6-2.4,6.7c-0.9,2.1-1.1,2.2-3,3.6c-1,0.8-2,1.5-3,2.3c-0.7,0.5-1.4,1.2-2.1,1.7
		c-0.8,0.6-1.8,1.1-2.7,1.5c-1,0.5-1.8,1-2.7,1.6c-0.5,0.3-1,0.6-1.6,0.8c-0.1,0-0.2,0.2-0.3,0.3c-0.6,0.5-1.4,0.9-2,1.4
		c-0.5,0.4-0.7,0.6-1.1,1.1c-0.1,0.2-0.2,0.3-0.4,0.4c-1.6,1.4-3.7,3.3-5.3,4.5c-0.4,0.3-0.5,0.3-0.9,0.6l-6,3.7
		c-1.6,1.1-1.3,1-2.3,1.9c-0.2,0.2-0.5,0.4-0.7,0.7c-1.9,2.2-1.3,6.4-0.8,9.5c0.4,0.9,1.1,2.9,2.7,3c0.8,0.1,1.6-0.4,2.1-0.7
		c0.5-0.4,1.1-0.8,1.5-1.2c0.3-0.4,2.2-2.2,2.6-2.4c0.2-0.4,0.4-0.9,1-0.5c-0.1,0.4-0.3,0.4-0.6,0.8c-0.6,1.4,0.4,2.3,1.3,3.7
		c0.7,1.1,1.6,2.3,2.2,3.5c0.2-0.5,0.5-4.6,0.6-5.5c0.4-5-3.6-5.7-6.3-2.9l-1.5,1.6c-0.4,0.5-1.3,1.4-2,1.2c-0.6-0.3-1.2-1.2-1.3-2
		l-0.2-0.3c-0.7-1.8-0.2-4.7,0.9-5.9c0.6-0.7,1.4-0.8,2.4-1.2c0.6-0.3,2-0.9,2.6-1c0.3-0.3,0.7-0.4,1.2-0.5l1-0.3l0.8-0.4l1.5-0.4
		c0.1-0.1-0.2,0,0.2-0.2c0.3-0.1,0.1,0,0.4-0.1c-0.1,1.1-0.3,3.2-0.1,4.2c0.1,1.8,1.4,3.9,2.1,5.1c0.9,1.6,1.8,2.8,2.6,4.6l0.1,0.1
		c0.6,2,1.3,2.7,0,4.7c-0.4,0.6-0.7,1.1-1.2,1.6c-0.5,0.6-0.8,0.9-1.6,1.3c0,0.2,0,0.1-0.2,0.3c-1,1.2-0.9,2.9-1,4.4
		c0,1-0.1,1.9-0.3,2.8c-0.4,2.2-1.5,4.3-1.6,5c-0.1,0.9,0.3,0.9,0.8,1.4l-0.8,2.5c-0.2,0.4,0,0.3-0.3,0.5l0.1,0.4l-0.1,0.2
		c-0.1,0.5-0.1,0.3,0,0.8c2.1-0.3,6.2-0.1,8.5-0.1c-1.4-3.3-2.6-3.5-3.2-4.9c-0.3-0.2-0.4-0.4-0.5-0.9l0-0.7l0.1-1
		c-0.1-3.9,2.1-5.5,3.1-7.3c1.6-2.8,1.4-1.7,3.6-3.5c3.6-2.9,7.9-11.3,9.2-15.3c0.5-1.5,0.5-1.2,2.2-1.3c1.2,0,2.3-0.1,3.5-0.2
		c2.1-0.1,4.4-0.4,6.6-0.1c0.5,0,0.3,0,0.3,0.2c1.3,0,2,1.5,2,2.9c0.4-0.7,0.7-0.4,0.7-1.6c0-0.8-0.1-1.6-0.2-2.3
		c-0.2-0.3-0.2-0.8,0-1.1l0-0.4l0.2-0.4c0.1-0.2,0.2-0.3,0.3-0.5c0-0.1,0.1-0.2,0.2-0.2c0.2-0.3,0-0.1,0.3-0.3
		c0.2-0.4,0.1-0.3,0.5-0.4c0.2-0.3,1.7-1.9,2.4-2.1l0.5-0.2c0.3-0.3,0.3-0.3,0.7-0.4c0,0,0.1-0.1,0.1-0.1c0,0,0.1,0,0.1-0.1
		c0.1-0.1,0.1-0.1,0.2-0.2l0.8-0.2l0.2-0.2l0.5-0.2l0.4-0.3c0.3-0.2,0.2-0.2,0.5-0.2c0,0,0.1-0.1,0.1-0.1c0,0,0.1-0.1,0.1-0.1
		c0.2-0.2,0.1-0.1,0.2-0.2c1.5-0.3,2.9-0.6,4.4-0.9c3.1-0.6,6.6-2.4,8.9-4.6c0.3-0.3,0.4-0.4,0.6-0.6c2.4-2.1,2.4-3.9,6.1-3.7
		c0.9,0,1.5,4.1-3,4.6c0.7,1.7,2.6,1.6-1.5,1l-0.5,0c-1.7,2.3-1.8,2-2.6,5.4c1-0.2,2.5-0.4,3.5-0.7c1.5-0.5,2.5-1.1,2.9-1.2
		c1.9-0.4,2.2,0.7,3.8-1.5c0.1-0.1,0.3-2.8,0.9-4.4c1-2.7,3.4-6-0.8-7c-1.2-0.3-0.8-0.2-0.3-1c-0.4-0.8-3.6-9.5-1.4-4.7
		c0.9,2,4.8,6.1,6.6,6.7c0.1,0,5.6-0.4,4.3-3.6c-0.5-1.3,3.1-12,2.9-13.2c-0.9-4-8.2-7.2,1.6-9.9c6.1-1.7,11.4-7.1,11.1-13.7
		c-1.6,4.4-1.5,4.7-5.8,8c-5.1,3.8-12.1,1-14.5,4.9c-0.4,0.7-3.5-1.9-4.1-2.3c-6.5-3.6-11.1-3.6-18.2-3.5
		C153.5,36.2,153.3,36.2,153,36.1z"/>
</g>
</svg>
