<svg width="13" height="11" viewBox="0 0 13 11" fill="none" xmlns="http://www.w3.org/2000/svg">
<path fill-rule="evenodd" clip-rule="evenodd" d="M12.9899 9.01487C12.9899 10.1111 12.1578 10.9945 11.1363 10.9945H1.85847C0.83202 10.9945 0.00488281 10.1058 0.00488281 9.01487V1.98487C0.00488281 0.888594 0.837003 0.00518799 1.85847 0.00518799H11.1363C12.1628 0.00518799 12.9899 0.893916 12.9899 1.98487V9.01487Z" fill="url(#paint0_linear_60_78)"/>
<path d="M12.99 3.46444V3.209H10.6083V0H10.3691V3.209H8.44078C8.18666 2.34688 7.47413 1.7136 6.60713 1.62845V0H6.36796V1.61248C5.4312 1.62845 4.64392 2.29898 4.37486 3.21432H2.63588V0.00532286H2.3967V3.21432H0V3.46976H2.3967V7.06725H0V7.32269H2.3967V11H2.63588V7.32269H4.335C4.54925 8.32317 5.38137 9.07354 6.37792 9.09482V11H6.61709V9.07353C7.54388 8.97774 8.29628 8.26463 8.50057 7.32269H10.3791V11H10.6182V7.32269H13V7.06725H11.5799V3.46976H12.99V3.46444ZM4.30011 7.06192H2.63588V3.46444H4.32004C4.29513 3.60281 4.28019 3.74649 4.28019 3.89018C4.28019 4.42235 4.45956 4.93856 4.78344 5.34833C4.45956 5.76343 4.28019 6.27431 4.28019 6.80648C4.2752 6.89695 4.29015 6.97677 4.30011 7.06192ZM6.4128 8.83938C5.36642 8.83938 4.51437 7.92936 4.51437 6.8118C4.51437 6.30624 4.69375 5.81664 5.02261 5.4388L5.09736 5.35365L5.02261 5.2685C4.69375 4.89066 4.51437 4.40106 4.51437 3.8955C4.51437 2.77794 5.36642 1.86793 6.4128 1.86793C7.45918 1.86793 8.31123 2.77794 8.31123 3.8955C8.31123 4.40106 8.13185 4.89066 7.80299 5.2685L7.72825 5.35365L7.80299 5.4388C8.13185 5.81664 8.31123 6.30624 8.31123 6.8118C8.31621 7.92936 7.46416 8.83938 6.4128 8.83938ZM11.3358 7.06192H8.53047C8.54044 6.97677 8.55538 6.89695 8.55538 6.80648C8.55538 6.27431 8.37601 5.76343 8.05213 5.34833C8.37601 4.93324 8.55538 4.42235 8.55538 3.89018C8.55538 3.74649 8.54044 3.60281 8.51552 3.46444H11.3358V7.06192Z" fill="url(#paint1_linear_60_78)"/>
<defs>
<linearGradient id="paint0_linear_60_78" x1="6.49596" y1="-2.95773" x2="6.49596" y2="24.7798" gradientUnits="userSpaceOnUse">
<stop stop-color="#FFCA3F"/>
<stop offset="0.0969" stop-color="#CA7C22"/>
<stop offset="0.1888" stop-color="#FDDB7A"/>
<stop offset="0.4201" stop-color="#FFAD45"/>
<stop offset="0.5538" stop-color="#A95F0D"/>
<stop offset="0.6562" stop-color="#FFAD45"/>
<stop offset="0.7903" stop-color="#FFFF9B"/>
<stop offset="0.868" stop-color="#FFED7C"/>
<stop offset="1" stop-color="#FFCA3F"/>
</linearGradient>
<linearGradient id="paint1_linear_60_78" x1="6.49606" y1="-9.68059" x2="6.49606" y2="25.0488" gradientUnits="userSpaceOnUse">
<stop stop-color="#FFCA3F"/>
<stop offset="0.0969" stop-color="#CA7C22"/>
<stop offset="0.1888" stop-color="#FDDB7A"/>
<stop offset="0.4201" stop-color="#FFAD45"/>
<stop offset="0.5538" stop-color="#A95F0D"/>
<stop offset="0.6562" stop-color="#FFAD45"/>
<stop offset="0.7903" stop-color="#FFFF9B"/>
<stop offset="0.868" stop-color="#FFED7C"/>
<stop offset="1" stop-color="#FFCA3F"/>
</linearGradient>
</defs>
</svg>
