<svg width="119" height="36" viewBox="0 0 119 36" fill="none" xmlns="http://www.w3.org/2000/svg">
<rect x="59" y="8" width="57" height="22" fill="#202020"/>
<path d="M59.0687 35.4757L115.277 35.4754C117.006 35.4753 118.407 34.1195 118.407 32.4473L118.407 3.55153C118.407 1.87912 117.005 0.523601 115.277 0.523438H59.0687C57.3406 0.523764 55.9386 1.87928 55.9386 3.55161L55.9385 32.4474C55.9388 34.1198 57.3407 35.4755 59.0693 35.4756L59.0687 35.4757ZM104.496 25.0399H104.496V26.0443H101.212V24.6778C100.359 25.7063 99.1251 26.2206 97.5088 26.2206C96.3921 26.2206 95.3819 25.9708 94.4782 25.4713C93.5746 24.9716 92.8656 24.259 92.3514 23.3333C91.8371 22.4077 91.58 21.335 91.58 20.1154C91.58 19.0065 91.7926 18.0191 92.2178 17.1532L92.2178 17.1531C92.0712 17.1444 91.9618 17.1399 91.8896 17.1399C90.9051 17.1399 90.1337 17.4155 89.5753 17.9665C89.017 18.5175 88.7378 19.344 88.7378 20.4461V26.0443H85.2995V14.1865H88.5836V15.7514C88.995 15.1783 89.5497 14.7449 90.2476 14.451C90.9455 14.1572 91.75 14.0102 92.661 14.0102V16.3996C93.1382 15.7122 93.744 15.1656 94.4782 14.7596C95.3819 14.26 96.3921 14.0102 97.5088 14.0102C99.0222 14.0102 100.205 14.4878 101.057 15.4429V9.69032H104.496V24.6076L105.486 22.4738C106.015 22.8117 106.654 23.0872 107.404 23.3003C108.153 23.5133 108.888 23.6199 109.608 23.6199C111.063 23.6199 111.79 23.2598 111.79 22.5399C111.79 22.2019 111.592 21.9595 111.195 21.8126C110.798 21.6656 110.188 21.5407 109.365 21.4379C108.396 21.2909 107.595 21.1219 106.963 20.9309C106.331 20.7399 105.784 20.4019 105.321 19.9171C104.858 19.4322 104.627 18.7416 104.627 17.8453C104.627 17.0959 104.844 16.431 105.277 15.8506C105.71 15.2702 106.342 14.8184 107.172 14.4951C108.003 14.1719 108.983 14.0102 110.115 14.0102C110.952 14.0102 111.786 14.102 112.616 14.2858C113.447 14.4694 114.134 14.7229 114.677 15.0462L113.531 17.4926C112.488 16.9049 111.349 16.611 110.115 16.611C109.38 16.611 108.829 16.7139 108.462 16.9196C108.094 17.1253 107.911 17.3898 107.911 17.713C107.911 18.0804 108.109 18.3375 108.506 18.4845C108.903 18.6314 109.534 18.771 110.401 18.9032C111.371 19.0648 112.165 19.2374 112.782 19.4211C113.399 19.6048 113.935 19.9391 114.391 20.424C114.846 20.9089 115.074 21.5848 115.074 22.4517C115.074 23.1863 114.854 23.8403 114.413 24.4133C113.972 24.9864 113.329 25.4309 112.484 25.7467C111.639 26.0627 110.637 26.2206 109.476 26.2206C108.491 26.2206 107.529 26.0994 106.588 25.8569C105.733 25.6363 105.035 25.364 104.496 25.0399V25.0399ZM73.1139 22.7404H73.1139C73.1128 22.7032 73.1123 22.6657 73.1123 22.628C73.1123 21.526 73.5274 20.6591 74.3575 20.0272C75.1877 19.3954 76.4698 19.0795 78.2036 19.0795H80.9366C80.9366 18.3301 80.7088 17.7534 80.2533 17.3494C79.7978 16.9453 79.1145 16.7432 78.2036 16.7432C77.5718 16.7432 76.9509 16.8424 76.3412 17.0408C75.7314 17.2392 75.2134 17.5073 74.7874 17.8453L73.553 15.4429C74.1995 14.9873 74.9746 14.6347 75.8783 14.3849C76.782 14.1352 77.7113 14.0102 78.6664 14.0102C80.5031 14.0102 81.9137 14.4474 82.8982 15.3216C83.8826 16.1959 84.3749 17.5146 84.3749 19.2779V26.0443H81.157V24.5676C80.5105 25.6696 79.3056 26.2206 77.5424 26.2206C76.6314 26.2206 75.8416 26.0663 75.173 25.7578C74.5044 25.4492 73.9938 25.0231 73.6412 24.4794C73.5711 24.3713 73.508 24.2603 73.4518 24.1464H73.4518C72.8254 24.7573 72.0955 25.243 71.2619 25.6035C70.1746 26.0736 68.9624 26.3088 67.6252 26.3088C66.053 26.3088 64.6315 25.9671 63.3605 25.2839C62.0894 24.6006 61.0902 23.6529 60.3629 22.4407C59.6356 21.2284 59.272 19.8583 59.272 18.3301C59.272 16.802 59.6356 15.4318 60.3629 14.2196C61.0902 13.0074 62.0894 12.0597 63.3605 11.3764C64.6315 10.6932 66.0604 10.3515 67.6473 10.3515C68.9845 10.3515 70.193 10.5867 71.273 11.0568C72.3529 11.527 73.2603 12.2029 73.9949 13.0845L71.7027 15.2004C70.6595 13.9955 69.3665 13.3931 67.8236 13.3931C66.8685 13.3931 66.0163 13.6025 65.2669 14.0213C64.5176 14.44 63.9335 15.0241 63.5147 15.7735C63.096 16.5229 62.8866 17.3751 62.8866 18.3301C62.8866 19.2852 63.096 20.1375 63.5147 20.8869C63.9335 21.6362 64.5176 22.2203 65.2669 22.6391C66.0163 23.0578 66.8685 23.2672 67.8236 23.2672C69.3665 23.2672 70.6595 22.6574 71.7027 21.4379L73.1139 22.7404V22.7404ZM78.402 23.9064C78.9897 23.9064 79.5113 23.7705 79.9668 23.4986C80.4223 23.2268 80.7456 22.8264 80.9366 22.2974V21.0852H78.5783C77.1677 21.0852 76.4624 21.5481 76.4624 22.4738C76.4624 22.9146 76.635 23.2635 76.9804 23.5206C77.3257 23.7778 77.7995 23.9064 78.402 23.9064V23.9064ZM98.1039 23.3995C98.9709 23.3995 99.6908 23.1019 100.264 22.5068C100.837 21.9117 101.123 21.1146 101.123 20.1154C101.123 19.1163 100.837 18.3191 100.264 17.724C99.6908 17.1289 98.9709 16.8314 98.1039 16.8314C97.2223 16.8314 96.495 17.1289 95.9219 17.724C95.3489 18.3191 95.0623 19.1163 95.0623 20.1154C95.0623 21.1146 95.3489 21.9117 95.9219 22.5068C96.495 23.1019 97.2223 23.3995 98.1039 23.3995Z" fill="url(#paint0_linear_456_318)"/>
<path d="M14.0398 26.0437L14.0178 16.7867L9.47745 24.4127H7.86844L3.3502 16.985V26.0437H0V10.6154H2.95344L8.72805 20.203L14.4145 10.6154H17.3458L17.3899 26.0437H14.0398V26.0437ZM29.5369 17.0952L29.5369 17.0953C30.0045 17.9852 30.2384 19.0064 30.2384 20.1589C30.2384 20.203 30.2163 20.5115 30.1723 21.0846H21.2018C21.3635 21.8192 21.7455 22.3997 22.3479 22.8257C22.9504 23.2519 23.6997 23.4649 24.5961 23.4649C25.2132 23.4649 25.7605 23.3731 26.2381 23.1894C26.7156 23.0058 27.1601 22.7156 27.5715 22.3189L29.4009 24.3025C28.2841 25.5809 26.6532 26.22 24.5079 26.22C23.1708 26.22 21.988 25.9592 20.9594 25.4375C19.9309 24.9159 19.1374 24.1923 18.579 23.2666C18.0206 22.3409 17.7415 21.2903 17.7415 20.1148C17.7415 18.954 18.017 17.9071 18.568 16.9741C19.119 16.041 19.8757 15.3137 20.8382 14.792C21.8006 14.2704 22.8769 14.0096 24.0671 14.0096C25.2279 14.0096 26.2785 14.2594 27.2188 14.759C27.8964 15.119 28.4691 15.5914 28.9369 16.1764V14.4504H30.7663V11.5631H34.2046V14.4504H37.158V17.0952H34.2046V21.9221C34.2046 22.4217 34.3331 22.8074 34.5903 23.0792C34.8474 23.3511 35.2111 23.487 35.6813 23.487C36.1962 23.487 36.6385 23.3551 37.0084 23.0916L37.0085 23.0915C36.9899 22.9407 36.9805 22.786 36.9805 22.6274C36.9805 21.5254 37.3957 20.6585 38.2258 20.0266C39.056 19.3948 40.338 19.0789 42.0719 19.0789H44.8049C44.8049 18.3295 44.5771 17.7528 44.1216 17.3488C43.6662 16.9446 42.9829 16.7426 42.0719 16.7426C41.4401 16.7426 40.8193 16.8418 40.2094 17.0402C39.5997 17.2386 39.0817 17.5067 38.6556 17.8446L37.4214 15.4422C38.0679 14.9867 38.8429 14.6341 39.7466 14.3843C40.6503 14.1346 41.5796 14.0096 42.5347 14.0096C44.3715 14.0096 45.7821 14.4467 46.7665 15.321C47.751 16.1953 48.2432 17.514 48.2432 19.2773V26.0437H45.0253V24.567C44.3788 25.669 43.1739 26.22 41.4107 26.22C40.4997 26.22 39.7099 26.0657 39.0413 25.7572C38.5024 25.5084 38.0662 25.1833 37.7326 24.7818H37.7325L37.9955 25.4707C37.6576 25.7204 37.2425 25.9078 36.7503 26.0326C36.258 26.1575 35.74 26.22 35.1964 26.22C33.7858 26.22 32.6948 25.86 31.9234 25.14C31.1519 24.42 30.7663 23.3621 30.7663 21.9662V17.0952H29.5369V17.0952ZM24.0891 16.6104C23.3104 16.6104 22.6565 16.8308 22.1275 17.2716C21.5985 17.7124 21.2753 18.3148 21.1577 19.0789H26.9985C26.8809 18.3295 26.5576 17.7308 26.0286 17.2826C25.4997 16.8344 24.8532 16.6104 24.0891 16.6104ZM42.2703 23.9058C42.858 23.9058 43.3796 23.7699 43.8351 23.498C44.2906 23.2262 44.6139 22.8257 44.8049 22.2968V21.0846H42.4466C41.036 21.0846 40.3307 21.5474 40.3307 22.4731C40.3307 22.9139 40.5033 23.2629 40.8486 23.52C41.194 23.7772 41.6678 23.9058 42.2703 23.9058V23.9058ZM49.1678 9.6897H52.6061V26.0437H49.1678V9.6897V9.6897Z" fill="#202020"/>
<defs>
<linearGradient id="paint0_linear_456_318" x1="36.3188" y1="21.8834" x2="93.7977" y2="64.3339" gradientUnits="userSpaceOnUse">
<stop stop-color="#D5AC52"/>
<stop offset="1" stop-color="#EAD373"/>
</linearGradient>
</defs>
</svg>
