<svg width="58" height="21" viewBox="0 0 58 21" fill="none" xmlns="http://www.w3.org/2000/svg">
<g clip-path="url(#clip0_93_8152)">
<path d="M9.00423 10.9192L9.62186 12.3742H10.7834L7.96249 5.9281H6.84706L3.99854 12.3742H5.13241L5.75005 10.9192H9.00423ZM8.58937 9.95231H6.15567L7.37252 7.0884L8.58937 9.95231ZM15.7614 7.47516H14.7105V8.26711C14.3694 7.73301 13.807 7.42912 13.0511 7.43833C11.7513 7.44754 10.8755 8.38683 10.8755 9.7681C10.8755 11.1771 11.7606 12.1347 13.088 12.1347C13.8255 12.1347 14.3786 11.8401 14.7105 11.306V11.9229C14.7105 12.7702 14.102 13.3135 13.171 13.3135C12.5718 13.3135 12.0924 13.1201 11.6315 12.7794L11.1797 13.5437C11.779 13.9489 12.4519 14.1882 13.2171 14.1882C14.7565 14.1882 15.7614 13.3043 15.7614 11.8954V7.47516ZM13.3 11.306C12.4519 11.306 11.8803 10.6798 11.8712 9.79576C11.8803 8.92093 12.4612 8.29474 13.3 8.29474C14.1297 8.29474 14.7105 8.91176 14.7105 9.79576C14.7105 10.6798 14.1297 11.306 13.3 11.306Z" fill="#202020"/>
<path d="M13.9403 4.74751L14.3797 4.27349V4.11108H13.4438V4.34152H14.059L13.6591 4.77166V4.92308H13.8722C14.0766 4.92308 14.1973 5.00866 14.1973 5.17545C14.1973 5.33347 14.0787 5.43881 13.8744 5.43881C13.7338 5.43881 13.591 5.38175 13.4812 5.2786L13.3735 5.48929C13.5054 5.59022 13.7031 5.65606 13.892 5.65606C14.2347 5.65606 14.4522 5.45636 14.4522 5.16888C14.4522 4.92747 14.2764 4.77823 14.0194 4.75629L13.9403 4.74751ZM15.1244 4.74751L15.5638 4.27349V4.11108H14.6279V4.34152H15.2431L14.8432 4.77166V4.92308H15.0563C15.2606 4.92308 15.3815 5.00866 15.3815 5.17545C15.3815 5.33347 15.2629 5.43881 15.0586 5.43881C14.9179 5.43881 14.7752 5.38175 14.6653 5.2786L14.5576 5.48929C14.6894 5.59022 14.8871 5.65606 15.0761 5.65606C15.4188 5.65606 15.6363 5.45636 15.6363 5.16888C15.6363 4.92747 15.4606 4.77823 15.2035 4.75629L15.1244 4.74751Z" fill="#202020"/>
<path d="M4.87175 14.1992H4.70755V14.63C4.65186 14.5415 4.56048 14.4917 4.43768 14.4917C4.2235 14.4917 4.07642 14.6471 4.07642 14.8753C4.07642 15.1065 4.22207 15.2647 4.44054 15.2647C4.5619 15.2647 4.65329 15.2162 4.70755 15.1278V15.2576H4.87175V14.1992ZM4.4748 15.1278C4.3363 15.1278 4.24205 15.0251 4.24063 14.8811C4.24205 14.7355 4.33773 14.6314 4.4748 14.6314C4.61188 14.6314 4.70755 14.7341 4.70755 14.8811C4.70755 15.0251 4.61188 15.1278 4.4748 15.1278ZM5.43434 14.4931C5.20874 14.4945 5.05024 14.65 5.05024 14.8796C5.05024 15.1079 5.20446 15.2633 5.43864 15.2633C5.57 15.2633 5.67852 15.2162 5.75278 15.135L5.66567 15.0422C5.60999 15.0993 5.5343 15.1307 5.45149 15.1307C5.33154 15.1307 5.24158 15.0579 5.21588 14.941H5.7899C5.80989 14.6671 5.70136 14.4931 5.43434 14.4931ZM5.21302 14.8212C5.23159 14.6999 5.31583 14.6243 5.43578 14.6243C5.56 14.6243 5.64139 14.6985 5.64711 14.8212H5.21302ZM6.18828 14.4917C6.04264 14.4917 5.90842 14.5572 5.90842 14.7113C5.90699 14.9852 6.30681 14.8982 6.30681 15.0536C6.30681 15.1107 6.25254 15.135 6.18256 15.135C6.09976 15.135 5.99409 15.0993 5.92841 15.0408L5.86986 15.1577C5.94554 15.2263 6.06406 15.2633 6.17543 15.2633C6.32822 15.2633 6.46672 15.1934 6.46672 15.0379C6.46815 14.7627 6.06406 14.8383 6.06406 14.6985C6.06406 14.6443 6.11118 14.6229 6.17543 14.6229C6.24255 14.6229 6.32679 14.6485 6.3939 14.6899L6.45387 14.5687C6.38534 14.5202 6.28395 14.4917 6.18828 14.4917ZM6.71375 14.1821C6.65948 14.1821 6.61808 14.2235 6.61808 14.282C6.61808 14.339 6.65948 14.3804 6.71375 14.3804C6.76801 14.3804 6.80942 14.339 6.80942 14.282C6.80942 14.2235 6.76801 14.1821 6.71375 14.1821ZM6.79514 15.2576V14.4988H6.63237V15.2576H6.79514ZM7.72327 14.4988H7.56049V14.6215C7.50766 14.5387 7.42056 14.4917 7.30347 14.4931C7.10214 14.4945 6.96649 14.64 6.96649 14.8539C6.96649 15.0722 7.10356 15.2205 7.30918 15.2205C7.42342 15.2205 7.50909 15.1749 7.56049 15.0922V15.1877C7.56049 15.3189 7.46625 15.4031 7.32203 15.4031C7.22922 15.4031 7.15496 15.3732 7.08357 15.3203L7.0136 15.4387C7.10641 15.5015 7.21066 15.5386 7.32917 15.5386C7.56763 15.5386 7.72327 15.4017 7.72327 15.1834V14.4988ZM7.34202 15.0922C7.21066 15.0922 7.12212 14.9951 7.1207 14.8582C7.12212 14.7227 7.21209 14.6258 7.34202 14.6258C7.47053 14.6258 7.56049 14.7213 7.56049 14.8582C7.56049 14.9951 7.47053 15.0922 7.34202 15.0922ZM8.39585 14.4931C8.26729 14.4931 8.17022 14.5387 8.11593 14.6443V14.4988H7.95175V15.2576H8.11593V14.8539C8.12737 14.7355 8.20592 14.6485 8.33153 14.6471C8.44578 14.6471 8.51431 14.717 8.51431 14.8311V15.2576H8.67857V14.7855C8.67857 14.6043 8.57287 14.4931 8.39585 14.4931ZM9.21111 14.4931C8.98556 14.4945 8.82705 14.65 8.82705 14.8796C8.82705 15.1079 8.98128 15.2633 9.21546 15.2633C9.34683 15.2633 9.45533 15.2162 9.5296 15.135L9.44249 15.0422C9.38681 15.0993 9.31105 15.1307 9.2283 15.1307C9.10836 15.1307 9.01838 15.0579 8.99263 14.941H9.5667C9.58669 14.6671 9.47812 14.4931 9.21111 14.4931ZM8.98983 14.8212C9.00834 14.6999 9.09265 14.6243 9.21259 14.6243C9.33679 14.6243 9.41815 14.6985 9.4239 14.8212H8.98983ZM9.90223 14.4988H9.73804V15.2576H9.90223V14.8611C9.91506 14.7313 10.0122 14.6414 10.165 14.65V14.4931C10.045 14.4931 9.95364 14.5473 9.90223 14.65V14.4988Z" fill="#202020"/>
<path d="M4.43932 15.7207C4.3108 15.7207 4.18373 15.7749 4.0752 15.8633L4.14231 15.9931C4.22656 15.9161 4.32795 15.8676 4.41504 15.8676C4.51929 15.8676 4.58211 15.9161 4.58211 15.996C4.58211 16.053 4.53357 16.1343 4.46073 16.2085L4.09234 16.6036V16.7263H4.80343V16.5751H4.31509L4.57497 16.2998C4.68063 16.1857 4.75773 16.073 4.75773 15.9717C4.75773 15.8191 4.6278 15.7207 4.43932 15.7207ZM5.44599 15.7235C5.14756 15.7235 4.91623 15.9403 4.91623 16.227C4.91623 16.5123 5.14756 16.7334 5.44599 16.7334C5.74443 16.7334 5.97574 16.5123 5.97574 16.227C5.97574 15.9417 5.74443 15.7235 5.44599 15.7235ZM5.44742 15.8747C5.64304 15.8747 5.80296 16.0288 5.80296 16.227C5.80296 16.4253 5.64304 16.5822 5.44742 16.5822C5.2518 16.5822 5.08758 16.4253 5.08758 16.227C5.08758 16.0288 5.25036 15.8747 5.44742 15.8747ZM6.43553 15.7207C6.30702 15.7207 6.17993 15.7749 6.07141 15.8633L6.13852 15.9931C6.22277 15.9161 6.32415 15.8676 6.41125 15.8676C6.51549 15.8676 6.57832 15.9161 6.57832 15.996C6.57832 16.053 6.52977 16.1343 6.45694 16.2085L6.08854 16.6036V16.7263H6.79964V16.5751H6.3113L6.57117 16.2998C6.67684 16.1857 6.75394 16.073 6.75394 15.9717C6.75394 15.8191 6.624 15.7207 6.43553 15.7207ZM7.24657 16.7263V15.7279H6.88246V15.8776H7.07808V16.7263H7.24657Z" fill="#202020"/>
<path fill-rule="evenodd" clip-rule="evenodd" d="M0.363281 0.899475H19.4186V19.9344H0.363281V0.899475Z" stroke="#202020" stroke-width="0.385371" stroke-miterlimit="22.9256"/>
<path d="M25.6654 5.87221L26.0612 6.80449H26.8054L24.998 2.6741H24.2832L22.458 6.80449H23.1845L23.5803 5.87221H25.6654ZM25.3996 5.25265H23.8402L24.6199 3.41757L25.3996 5.25265ZM28.0239 6.80449V2.42628H27.3446V6.80449H28.0239ZM30.3508 3.64179C29.4175 3.64769 28.7618 4.29085 28.7618 5.24084C28.7618 6.18493 29.3997 6.8281 30.3685 6.8281C30.912 6.8281 31.3609 6.63338 31.668 6.29704L31.3077 5.91351C31.0773 6.14953 30.7643 6.27934 30.4217 6.27934C29.9255 6.27934 29.5534 5.97841 29.447 5.49457H31.8216C31.9043 4.36166 31.4554 3.64179 30.3508 3.64179ZM29.4352 4.99892C29.512 4.49738 29.8605 4.18464 30.3567 4.18464C30.8706 4.18464 31.2073 4.49147 31.2309 4.99892H29.4352ZM33.491 4.7393L32.7881 3.66539H32.0084L33.042 5.19364L31.9315 6.80449H32.6876L33.491 5.65389L34.2411 6.80449H35.0208L33.9399 5.19364L34.95 3.66539H34.2057L33.491 4.7393ZM40.0153 4.7747V5.92531C39.7199 6.10233 39.3714 6.20853 39.0642 6.20853C38.2196 6.20853 37.5521 5.56538 37.5521 4.7393C37.5521 3.91912 38.2136 3.27596 39.0583 3.27596C39.4896 3.27596 39.9325 3.45297 40.2516 3.748L40.6473 3.23465C40.2397 2.88062 39.649 2.6564 39.0583 2.6564C37.8061 2.6564 36.8433 3.55919 36.8433 4.7393C36.8433 5.9194 37.7943 6.83399 39.017 6.83399C39.5841 6.83399 40.2043 6.61567 40.6236 6.29704V4.7747H40.0153ZM42.2482 3.66539H41.5689V6.80449H42.2482V5.16414C42.3014 4.62719 42.703 4.25545 43.335 4.29085V3.64179C42.8389 3.64179 42.4608 3.86601 42.2482 4.29085V3.66539ZM44.2302 2.35547C44.0058 2.35547 43.8345 2.52659 43.8345 2.76851C43.8345 3.00453 44.0058 3.17565 44.2302 3.17565C44.4547 3.17565 44.626 3.00453 44.626 2.76851C44.626 2.52659 44.4547 2.35547 44.2302 2.35547ZM44.5669 6.80449V3.66539H43.8935V6.80449H44.5669ZM49.6716 3.64179C49.0986 3.64179 48.6792 3.87191 48.4784 4.39707C48.3307 3.91912 47.9467 3.64179 47.3855 3.64179C46.8658 3.64179 46.4641 3.83061 46.2456 4.27315V3.66539H45.5722V6.80449H46.2456V5.25265C46.2456 4.70389 46.5764 4.29085 47.1198 4.27315C47.5805 4.27315 47.8581 4.56228 47.8581 5.04022V6.80449H48.5374V5.25265C48.5374 4.70389 48.8623 4.29085 49.3998 4.27315C49.8606 4.27315 50.1441 4.56228 50.1441 5.04022V6.80449H50.8234V4.8514C50.8234 4.10203 50.3922 3.64179 49.6716 3.64179ZM55.8322 3.64179C55.2593 3.64179 54.8398 3.87191 54.639 4.39707C54.4914 3.91912 54.1074 3.64179 53.5462 3.64179C53.0265 3.64179 52.6248 3.83061 52.4063 4.27315V3.66539H51.7329V6.80449H52.4063V5.25265C52.4063 4.70389 52.7371 4.29085 53.2805 4.27315C53.7412 4.27315 54.0188 4.56228 54.0188 5.04022V6.80449H54.6981V5.25265C54.6981 4.70389 55.023 4.29085 55.5605 4.27315C56.0213 4.27315 56.3048 4.56228 56.3048 5.04022V6.80449H56.9841V4.8514C56.9841 4.10203 56.5529 3.64179 55.8322 3.64179Z" fill="#202020"/>
<path d="M24.4674 10.6158L25.0228 9.09405H24.6879L24.2984 10.2897L23.9118 9.09405H23.5711L23.1874 10.2897L22.7922 9.09405H22.4543L23.0156 10.6158H23.3534L23.74 9.48874L24.1266 10.6158H24.4674ZM25.8219 9.08255C25.3695 9.08543 25.0516 9.39721 25.0516 9.85778C25.0516 10.3154 25.3609 10.6272 25.8305 10.6272C26.094 10.6272 26.3116 10.5328 26.4605 10.3698L26.2858 10.1839C26.1741 10.2982 26.0224 10.3612 25.8563 10.3612C25.6157 10.3612 25.4354 10.2153 25.3838 9.98077H26.5349C26.575 9.43155 26.3574 9.08255 25.8219 9.08255ZM25.3781 9.74046C25.4153 9.49736 25.5842 9.34578 25.8248 9.34578C26.0739 9.34578 26.2371 9.49449 26.2486 9.74046H25.3781ZM27.7544 9.08255C27.5168 9.08255 27.3335 9.17983 27.2218 9.3572V8.49333H26.8925V10.6158H27.2218V10.3526C27.3335 10.53 27.5168 10.6272 27.7602 10.6272C28.1954 10.6272 28.4818 10.3154 28.4818 9.86066C28.4818 9.39721 28.1868 9.08255 27.7544 9.08255ZM27.6858 10.3469C27.4137 10.3469 27.2218 10.1438 27.2218 9.84916C27.2218 9.56317 27.4137 9.3572 27.6858 9.3572C27.9578 9.3572 28.1496 9.56596 28.1496 9.84916C28.1496 10.141 27.9578 10.3469 27.6858 10.3469ZM31.0145 8.49333H30.6852V9.3572C30.5735 9.17983 30.3903 9.07976 30.1441 9.07976C29.7145 9.07976 29.4196 9.39154 29.4196 9.84916C29.4196 10.3126 29.7116 10.6301 30.1497 10.6301C30.3932 10.6301 30.5764 10.5328 30.6852 10.3555V10.6158H31.0145V8.49333ZM30.2185 10.3555C29.9408 10.3555 29.7518 10.1495 29.7489 9.86066C29.7518 9.56884 29.9436 9.36008 30.2185 9.36008C30.4934 9.36008 30.6852 9.56596 30.6852 9.86066C30.6852 10.1495 30.4934 10.3555 30.2185 10.3555ZM32.1417 9.08255C31.6892 9.08543 31.3715 9.39721 31.3715 9.85778C31.3715 10.3154 31.6807 10.6272 32.1503 10.6272C32.4137 10.6272 32.6314 10.5328 32.7803 10.3698L32.6056 10.1839C32.4939 10.2982 32.3422 10.3612 32.1761 10.3612C31.9356 10.3612 31.7551 10.2153 31.7036 9.98077H32.8547C32.8948 9.43155 32.6772 9.08255 32.1417 9.08255ZM31.6979 9.74046C31.7351 9.49736 31.9041 9.34578 32.1446 9.34578C32.3937 9.34578 32.5569 9.49449 32.5684 9.74046H31.6979ZM33.6533 9.07976C33.3612 9.07976 33.0921 9.21129 33.0921 9.5202C33.0892 10.0694 33.891 9.89492 33.891 10.2067C33.891 10.3211 33.7821 10.3698 33.6418 10.3698C33.4758 10.3698 33.2639 10.2982 33.1322 10.181L33.0147 10.4155C33.1665 10.5528 33.4042 10.6272 33.6275 10.6272C33.934 10.6272 34.2117 10.487 34.2117 10.1752C34.2146 9.62322 33.4042 9.77481 33.4042 9.49449C33.4042 9.38579 33.4987 9.34291 33.6275 9.34291C33.7622 9.34291 33.9311 9.39434 34.0656 9.47732L34.186 9.23421C34.0485 9.13694 33.8451 9.07976 33.6533 9.07976ZM34.7063 8.45898C34.5975 8.45898 34.5144 8.54196 34.5144 8.65928C34.5144 8.77364 34.5975 8.85662 34.7063 8.85662C34.8151 8.85662 34.8982 8.77364 34.8982 8.65928C34.8982 8.54196 34.8151 8.45898 34.7063 8.45898ZM34.8695 10.6158V9.09405H34.5431V10.6158H34.8695ZM36.7313 9.09405H36.4049V9.34003C36.2989 9.17416 36.1242 9.07976 35.8894 9.08255C35.4857 9.08543 35.2136 9.37725 35.2136 9.80627C35.2136 10.2439 35.4886 10.5414 35.9009 10.5414C36.13 10.5414 36.3018 10.4499 36.4049 10.2839V10.4756C36.4049 10.7388 36.2159 10.9075 35.9267 10.9075C35.7405 10.9075 35.5916 10.8474 35.4484 10.7416L35.3081 10.9791C35.4942 11.1049 35.7033 11.1793 35.941 11.1793C36.4192 11.1793 36.7313 10.9047 36.7313 10.4671V9.09405ZM35.9667 10.2839C35.7033 10.2839 35.5257 10.0895 35.5229 9.81482C35.5257 9.54312 35.7062 9.34858 35.9667 9.34858C36.2245 9.34858 36.4049 9.54025 36.4049 9.81482C36.4049 10.0895 36.2245 10.2839 35.9667 10.2839ZM38.079 9.08255C37.8212 9.08255 37.6266 9.17416 37.5178 9.38579V9.09405H37.1885V10.6158H37.5178V9.80627C37.5406 9.56884 37.6981 9.39434 37.9501 9.39154C38.1792 9.39154 38.3167 9.5317 38.3167 9.76051V10.6158H38.6459V9.66899C38.6459 9.30569 38.4341 9.08255 38.079 9.08255ZM39.7143 9.08255C39.2618 9.08543 38.944 9.39721 38.944 9.85778C38.944 10.3154 39.2533 10.6272 39.7229 10.6272C39.9863 10.6272 40.2039 10.5328 40.3528 10.3698L40.1782 10.1839C40.0665 10.2982 39.9147 10.3612 39.7486 10.3612C39.5081 10.3612 39.3277 10.2153 39.2761 9.98077H40.4273C40.4674 9.43155 40.2497 9.08255 39.7143 9.08255ZM39.2705 9.74046C39.3076 9.49736 39.4766 9.34578 39.7171 9.34578C39.9663 9.34578 40.1295 9.49449 40.1409 9.74046H39.2705ZM41.0998 9.09405H40.7706V10.6158H41.0998V9.82057C41.1257 9.56029 41.3203 9.38004 41.6268 9.39721V9.08255C41.3862 9.08255 41.203 9.19125 41.0998 9.39721V9.09405Z" fill="#202020"/>
</g>
<defs>
<clipPath id="clip0_93_8152">
<rect width="57.3215" height="19.5011" fill="white" transform="translate(0.129883 0.666504)"/>
</clipPath>
</defs>
</svg>
