<svg width="20" height="20" viewBox="0 0 20 20" fill="none" xmlns="http://www.w3.org/2000/svg">
<path d="M13.3342 10.2498H14.5161V5.52222H9.78857V6.7041H13.3342V10.2498Z" fill="black"/>
<path d="M5.06104 14.9773H9.78858V13.7954H6.24292V10.2498H5.06104V14.9773Z" fill="black"/>
<path d="M15.698 17.3411H3.87915C3.56579 17.3408 3.26536 17.2162 3.04378 16.9946C2.8222 16.773 2.69758 16.4726 2.69727 16.1592V4.34033C2.69758 4.02697 2.8222 3.72654 3.04378 3.50496C3.26536 3.28338 3.56579 3.15876 3.87915 3.15845H15.698C16.0114 3.15876 16.3118 3.28338 16.5334 3.50496C16.755 3.72654 16.8796 4.02697 16.8799 4.34033V16.1592C16.8796 16.4726 16.755 16.773 16.5334 16.9946C16.3118 17.2162 16.0114 17.3408 15.698 17.3411ZM3.87915 4.34033V16.1592H15.6986L15.698 4.34033H3.87915Z" fill="black"/>
</svg>
