<svg width="99" height="30" viewBox="0 0 99 30" fill="none" xmlns="http://www.w3.org/2000/svg">
<path d="M49.3877 29.2233L96.3827 29.2231C97.8283 29.2229 99.0001 28.0894 99.0003 26.6913L99.0001 2.53176C99.0001 1.13348 97.8281 0.000136358 96.3829 0H49.3876C47.9428 0.000272716 46.7706 1.13361 46.7706 2.53183L46.7705 26.6914C46.7708 28.0896 47.9429 29.2231 49.3882 29.2232L49.3877 29.2233ZM87.3688 20.498H87.3687V21.3378H84.623V20.1953C83.9105 21.0552 82.8785 21.4852 81.5271 21.4852C80.5934 21.4852 79.7488 21.2763 78.9933 20.8587C78.2378 20.4409 77.645 19.8451 77.215 19.0711C76.7851 18.2972 76.5701 17.4004 76.5701 16.3807C76.5701 15.4536 76.7479 14.628 77.1033 13.904L77.1033 13.9039C76.9808 13.8966 76.8893 13.8929 76.829 13.8929C76.0058 13.8929 75.3609 14.1233 74.894 14.584C74.4272 15.0447 74.1938 15.7357 74.1938 16.6571V21.3378H71.319V11.4236H74.0648V12.732C74.4088 12.2528 74.8725 11.8905 75.4561 11.6447C76.0396 11.3991 76.7122 11.2762 77.4739 11.2762V13.2739C77.8729 12.6992 78.3794 12.2422 78.9933 11.9028C79.7488 11.485 80.5934 11.2762 81.5271 11.2762C82.7925 11.2762 83.7815 11.6755 84.494 12.474V7.66435H87.3687V20.1366L88.1971 18.3525C88.6394 18.635 89.1737 18.8654 89.8003 19.0435C90.4268 19.2217 91.0411 19.3107 91.6431 19.3107C92.8593 19.3107 93.4674 19.0097 93.4674 18.4077C93.4674 18.1252 93.3016 17.9225 92.9699 17.7997C92.6382 17.6768 92.1284 17.5723 91.4404 17.4864C90.6295 17.3635 89.96 17.2222 89.4317 17.0625C88.9035 16.9028 88.4459 16.6203 88.0588 16.2149C87.6719 15.8094 87.4784 15.232 87.4784 14.4826C87.4784 13.8561 87.6596 13.3002 88.022 12.8149C88.3844 12.3297 88.9127 11.9519 89.6068 11.6816C90.3009 11.4113 91.1209 11.2762 92.0669 11.2762C92.7672 11.2762 93.4643 11.3529 94.1585 11.5066C94.8526 11.6601 95.4269 11.8721 95.8815 12.1423L94.9232 14.1878C94.051 13.6964 93.0989 13.4507 92.0669 13.4507C91.4527 13.4507 90.9919 13.5367 90.6848 13.7087C90.3777 13.8807 90.2241 14.1018 90.2241 14.3721C90.2241 14.6792 90.39 14.8942 90.7217 15.0171C91.0534 15.1399 91.5816 15.2566 92.3065 15.3672C93.1173 15.5023 93.7807 15.6466 94.2966 15.8002C94.8127 15.9538 95.2611 16.2333 95.6419 16.6387C96.0227 17.0441 96.2132 17.6092 96.2132 18.334C96.2132 18.9483 96.0289 19.495 95.6603 19.9741C95.2918 20.4533 94.7543 20.8249 94.0479 21.089C93.3415 21.3531 92.5031 21.4852 91.5325 21.4852C90.7094 21.4852 89.9047 21.3839 89.1184 21.1811C88.403 20.9967 87.8197 20.769 87.3688 20.498ZM61.1307 18.5754H61.1307C61.1298 18.5443 61.1294 18.513 61.1294 18.4815C61.1294 17.5601 61.4764 16.8353 62.1705 16.307C62.8647 15.7787 63.9365 15.5146 65.3862 15.5146H67.6712C67.6712 14.888 67.4808 14.4059 67.0999 14.068C66.7191 13.7301 66.1478 13.5612 65.3862 13.5612C64.8579 13.5612 64.3389 13.6442 63.829 13.81C63.3192 13.9759 62.8861 14.2001 62.5299 14.4826L61.4979 12.474C62.0384 12.0931 62.6865 11.7983 63.442 11.5895C64.1976 11.3807 64.9746 11.2762 65.7731 11.2762C67.3088 11.2762 68.4882 11.6417 69.3113 12.3726C70.1344 13.1036 70.546 14.2062 70.546 15.6804V21.3378H67.8555V20.1031C67.315 21.0245 66.3076 21.4852 64.8333 21.4852C64.0717 21.4852 63.4113 21.3562 62.8524 21.0982C62.2934 20.8402 61.8664 20.484 61.5716 20.0294C61.513 19.939 61.4602 19.8462 61.4133 19.751H61.4132C60.8895 20.2618 60.2792 20.6678 59.5823 20.9692C58.6732 21.3623 57.6597 21.5589 56.5417 21.5589C55.2272 21.5589 54.0386 21.2733 52.976 20.702C51.9133 20.1307 51.0779 19.3384 50.4698 18.3248C49.8617 17.3113 49.5576 16.1657 49.5576 14.888C49.5576 13.6104 49.8617 12.4648 50.4698 11.4513C51.0779 10.4377 51.9133 9.64536 52.976 9.07406C54.0386 8.50282 55.2334 8.21718 56.5602 8.21718C57.6781 8.21718 58.6886 8.41377 59.5916 8.80686C60.4945 9.19998 61.2531 9.76512 61.8674 10.5022L59.9509 12.2713C59.0786 11.2639 57.9975 10.7602 56.7076 10.7602C55.909 10.7602 55.1965 10.9353 54.57 11.2854C53.9434 11.6355 53.4551 12.1239 53.105 12.7504C52.7548 13.377 52.5798 14.0895 52.5798 14.888C52.5798 15.6866 52.7548 16.3991 53.105 17.0257C53.4551 17.6522 53.9434 18.1406 54.57 18.4907C55.1965 18.8408 55.909 19.0159 56.7076 19.0159C57.9975 19.0159 59.0786 18.5061 59.9509 17.4864L61.1307 18.5754ZM65.552 19.5503C66.0434 19.5503 66.4796 19.4367 66.8604 19.2094C67.2412 18.9821 67.5115 18.6473 67.6712 18.205V17.1915H65.6994C64.52 17.1915 63.9304 17.5785 63.9304 18.3525C63.9304 18.721 64.0747 19.0128 64.3634 19.2278C64.6521 19.4428 65.0483 19.5503 65.552 19.5503ZM82.0247 19.1265C82.7495 19.1265 83.3515 18.8777 83.8306 18.3801C84.3097 17.8826 84.5493 17.2161 84.5493 16.3807C84.5493 15.5453 84.3097 14.8788 83.8306 14.3813C83.3515 13.8837 82.7495 13.635 82.0247 13.635C81.2876 13.635 80.6794 13.8837 80.2003 14.3813C79.7212 14.8788 79.4816 15.5453 79.4816 16.3807C79.4816 17.2161 79.7212 17.8826 80.2003 18.3801C80.6794 18.8777 81.2876 19.1265 82.0247 19.1265Z" fill="#F8F8F8"/>
<path d="M11.7385 21.3372L11.7201 13.5976L7.92402 19.9736H6.57874L2.80107 13.7634V21.3372H0V8.43779H2.46934L7.29745 16.4539L12.0518 8.43779H14.5027L14.5395 21.3372H11.7385ZM24.6956 13.8555L24.6956 13.8556C25.0865 14.5996 25.282 15.4534 25.282 16.417C25.282 16.4539 25.2636 16.7119 25.2268 17.191H17.7267C17.8618 17.8052 18.1812 18.2905 18.6849 18.6468C19.1886 19.0031 19.8152 19.1812 20.5646 19.1812C21.0806 19.1812 21.5382 19.1044 21.9374 18.9508C22.3367 18.7973 22.7083 18.5546 23.0523 18.223L24.5818 19.8814C23.6481 20.9503 22.2845 21.4846 20.4909 21.4846C19.3729 21.4846 18.3839 21.2666 17.524 20.8305C16.664 20.3944 16.0006 19.7893 15.5338 19.0153C15.0669 18.2414 14.8335 17.363 14.8335 16.3802C14.8335 15.4096 15.0638 14.5343 15.5246 13.7542C15.9853 12.9741 16.6179 12.366 17.4226 11.9299C18.2273 11.4937 19.1272 11.2757 20.1223 11.2757C21.0928 11.2757 21.9712 11.4845 22.7574 11.9022C23.324 12.2032 23.8028 12.5982 24.1939 13.0873V11.6442H25.7234V9.23016H28.5982V11.6442H31.0675V13.8555H28.5982V17.8913C28.5982 18.3089 28.7057 18.6314 28.9206 18.8587C29.1356 19.086 29.4397 19.1996 29.8328 19.1996C30.2633 19.1996 30.6331 19.0894 30.9424 18.869L30.9425 18.869C30.9269 18.7429 30.9191 18.6135 30.9191 18.4809C30.9191 17.5595 31.2662 16.8347 31.9603 16.3064C32.6544 15.7782 33.7263 15.5141 35.1759 15.5141H37.461C37.461 14.8875 37.2706 14.4053 36.8897 14.0675C36.5089 13.7296 35.9376 13.5607 35.1759 13.5607C34.6477 13.5607 34.1287 13.6436 33.6188 13.8095C33.109 13.9754 32.6759 14.1995 32.3197 14.4821L31.2877 12.4735C31.8282 12.0926 32.4763 11.7978 33.2318 11.589C33.9874 11.3801 34.7644 11.2757 35.5629 11.2757C37.0986 11.2757 38.278 11.6411 39.1011 12.3721C39.9242 13.1031 40.3357 14.2057 40.3357 15.6799V21.3372H37.6453V20.1026C37.1047 21.024 36.0973 21.4846 34.6231 21.4846C33.8615 21.4846 33.2011 21.3557 32.6421 21.0977C32.1915 20.8897 31.8268 20.6179 31.5479 20.2822H31.5479L31.7677 20.8581C31.4852 21.067 31.1381 21.2236 30.7266 21.328C30.315 21.4324 29.8819 21.4846 29.4274 21.4846C28.248 21.4846 27.3358 21.1837 26.6909 20.5817C26.0459 19.9797 25.7234 19.0952 25.7234 17.9281V13.8555H24.6956ZM20.1407 13.4502C19.4896 13.4502 18.9429 13.6344 18.5006 14.003C18.0584 14.3716 17.7881 14.8752 17.6898 15.5141H22.5732C22.4749 14.8875 22.2046 14.3869 21.7623 14.0122C21.3201 13.6375 20.7795 13.4502 20.1407 13.4502ZM35.3418 19.5498C35.8332 19.5498 36.2693 19.4361 36.6502 19.2088C37.031 18.9815 37.3013 18.6468 37.461 18.2045V17.191H35.4892C34.3098 17.191 33.7202 17.578 33.7202 18.3519C33.7202 18.7205 33.8645 19.0123 34.1532 19.2272C34.4419 19.4422 34.8381 19.5498 35.3418 19.5498ZM41.1088 7.66382H43.9836V21.3372H41.1088V7.66382Z" fill="#F8F8F8"/>
</svg>
