<?xml version="1.0" encoding="utf-8"?>
<!-- Generator: Adobe Illustrator 26.0.1, SVG Export Plug-In . SVG Version: 6.00 Build 0)  -->
<svg version="1.1" id="Слой_1" xmlns:xodm="http://www.corel.com/coreldraw/odm/2003"
	 xmlns="http://www.w3.org/2000/svg" xmlns:xlink="http://www.w3.org/1999/xlink" x="0px" y="0px" viewBox="0 0 238.1 150.2"
	 style="enable-background:new 0 0 238.1 150.2;" xml:space="preserve">
<style type="text/css">
	.st0{fill-rule:evenodd;clip-rule:evenodd;}
</style>
<g id="Слой_x0020_1">
	<path class="st0" d="M170.6,61.3c2.6-0.8,4.5-0.9,7.3-0.7c0.5,0.1,1.8,0.3,2.3,0.4c-0.1,0.3-1.5,1.6-1.8,1.9l-1.2,1.2
		c-0.3,0.3-1.6,1.6-1.9,1.8c-0.1-0.1-0.8-0.7-0.9-0.8c-0.1-0.1-0.2-0.2-0.3-0.3C173.3,64.2,170.7,61.8,170.6,61.3L170.6,61.3z
		 M213.5,119.4h2.9v-2.7h-2.9V119.4z M163.8,131.5h1.8v-14.7h-1.8V131.5z M213.5,131.5h2.9v-10.7h-2.9V131.5z M209.1,122.1v-1.3
		h-2.7v10.7h2.9c0-1.5-0.1-5.5,0.2-6.7c0.6-2.7,2.7-1.3,3-1.2c0.2-0.4,0.7-2,0.9-2.4c-1-0.5-2.6-1-3.5,0.1
		C209.7,121.5,209.3,122,209.1,122.1L209.1,122.1L209.1,122.1z M147.5,122c0.7,0,1.6,0.4,2.1,0.9c0.4,0.5,0.8,1.2,0.8,2.2h-5.9
		c0-0.9,0.4-1.7,0.9-2.1C145.9,122.4,146.6,122,147.5,122L147.5,122L147.5,122z M142.5,125.7c0,1.9,0.1,3.3,1.4,4.6
		c1.8,1.8,5.2,1.8,6.8,0.4c0.7-0.6,1.5-1.7,1.6-2.6c-0.6,0-1.3-0.2-1.9-0.2c-0.7,2.9-5.2,3.2-5.9-0.6c0-0.2,0-0.6-0.1-0.8h8v-0.7
		C152.3,118.6,142.5,118.9,142.5,125.7L142.5,125.7L142.5,125.7z M157,130.3c-0.9,0-1.7-0.3-2.1-1c-0.3-0.8,0-1.7,0.7-2
		c0.8-0.4,2.4-0.5,3.6-0.8c0.4-0.1,0.8-0.3,1.2-0.3c0,1.3,0.1,2-0.7,3C159,130,158,130.3,157,130.3L157,130.3L157,130.3z
		 M153.2,123.9c0.6,0,1.2,0.2,1.8,0.2c0-0.5,0.5-1.3,0.8-1.6c1-0.7,3.1-0.6,3.9,0.1c0.6,0.6,0.6,1,0.6,2.1c-0.8,0.2-1.4,0.3-2.3,0.5
		c-1.5,0.2-3.2,0.2-4.3,1.3c-1.8,1.8-1,5.3,2.7,5.3c1.2,0,2.3-0.4,3.2-1c0.3-0.2,0.5-0.4,0.8-0.6c0,0.4,0.2,1,0.4,1.3h1.8
		c-0.1-0.4-0.3-0.7-0.4-1.1c-0.2-1.1-0.2-3.2-0.2-4.3c0-2.3,0.2-3.8-1.2-4.8c-1.3-0.9-4.4-0.9-6,0
		C154,121.7,153.2,122.8,153.2,123.9L153.2,123.9L153.2,123.9z M188.5,129.7h-0.4c-0.7,0-1.3-0.6-1.3-1.5c0-0.9,0.8-1.1,1.5-1.3
		c0.8-0.2,1.5-0.4,2.3-0.5c0,1,0.1,1.7-0.3,2.4C190,129.2,189.3,129.7,188.5,129.7L188.5,129.7L188.5,129.7z M184.2,123.7
		c0.3,0,2.4,0.4,2.6,0.4c0.1-0.4,0.3-0.8,0.6-1c0.7-0.6,2.3-0.4,2.7-0.1c0.4,0.4,0.4,0.8,0.4,1.5l-4.3,1c-0.7,0.2-1.2,0.5-1.6,1
		c-1.4,1.6-1,5.2,3,5.2c0.9,0,1.8-0.4,2.5-0.9c0.2-0.2,0.5-0.4,0.7-0.5c0,0.4,0.2,0.7,0.3,1.1h2.8c-0.1-0.3-0.1-0.4-0.2-0.7
		c-0.1-0.2-0.2-0.5-0.2-0.7c-0.4-1.6,0.1-5.2-0.2-7c-0.1-0.3-0.1-0.7-0.3-0.9c-0.1-0.2-0.1-0.2-0.2-0.3c-0.5-0.6-1.2-1-2.1-1.1
		c-1.9-0.3-4.5-0.3-5.7,1.3C184.8,122.3,184.3,123.2,184.2,123.7L184.2,123.7L184.2,123.7L184.2,123.7z M135.7,123.2h-4.2v-4.9h4.5
		c1.3,0,2.4,0.2,3,1.2c0.7,1.1,0.2,2.5-0.7,3.1C137.7,123.1,136.7,123.2,135.7,123.2L135.7,123.2z M129.5,131.5h2V125h3.1
		c1,0,2,1.2,2.5,1.9c1,1.5,2,3.1,2.9,4.6h2.4c-0.1-0.3-1.4-2.3-1.7-2.7c-0.7-1.1-1-1.5-1.8-2.6c-0.7-0.9-1-0.9-1.5-1.3
		c-0.2-0.1,0,0-0.1-0.1c1.5-0.1,3.2-1,3.7-2.5c0.5-1.1,0.4-2.4-0.1-3.4c-0.8-1.6-2.4-2.1-4.1-2.1h-7.3L129.5,131.5L129.5,131.5
		L129.5,131.5z M197.4,126c0-1.2,0.3-2.4,1.3-2.9c1.1-0.6,2.2-0.3,2.9,0.6c0.8,1.1,0.8,3.7,0,4.9C200.5,130.1,197.4,130.2,197.4,126
		L197.4,126L197.4,126z M202.1,122c-0.4-0.3-1-1.1-2.3-1.4c-1.1-0.2-2.2,0-3,0.5c-2.9,1.7-2.9,6.7-1.2,8.9c1.6,2.1,4.4,2.4,6.1,0.7
		c0.2-0.2,0.4-0.4,0.6-0.6v1.4h2.7v-14.7h-2.8L202.1,122L202.1,122z M222.9,129.5c-2.4,0-2.4-2.3-2.4-4c0-3.5,4.7-4.3,4.7,0.7
		c0,0.9-0.2,1.7-0.5,2.3C224.3,128.9,223.7,129.5,222.9,129.5L222.9,129.5z M225.1,122c-0.3-0.2-0.8-1-2.2-1.3c-1-0.2-2.1,0-2.9,0.4
		c-0.5,0.2-0.8,0.5-1.1,0.9c-2.1,2.3-1.9,7.8,1.1,9.4c3.2,1.7,5.2-1.1,5.4-1.2v1.5h2.7v-14.7h-2.9L225.1,122L225.1,122L225.1,122z
		 M169.9,122.2v-1.4h-2.7v10.7h2.9V126c0-1.5,0.3-3.2,2.1-3.2c1.6,0,1.5,1.7,1.5,3.2v5.6h2.8c0-1.3-0.1-6.2,0.2-7.2
		c0.1-0.5,0.3-0.7,0.6-1.1c0.8-0.7,2.1-0.7,2.5,0.3c0.4,0.9,0.2,6.7,0.2,8h2.9c0-1.5,0.1-7.7-0.3-8.9c-0.3-0.8-0.9-1.5-1.7-1.8
		c-1.4-0.5-2.8-0.3-4,0.5c-0.4,0.3-0.6,0.6-0.9,0.8C175.8,121,172.5,119.1,169.9,122.2L169.9,122.2L169.9,122.2z M161.7,31.3
		c-1,0-1.4-0.1-1.9-0.7c-0.3-0.5-0.7-1.3-0.5-2.1c0.2-0.9,1-1.3,0.9-1.7c0-0.2-0.5-0.6-0.6-0.8c-0.4-0.5-0.3-0.6-0.5-0.8
		c-0.5,0-2.4,0.8-2.9,1.1c-0.3,0.1-1.1,0.5-1.3,0.7c-0.4,0.6-0.8,3.2-0.7,4.1c0,0.3,0.2,0.4,0.3,0.6c1,1.7,0.2,2.2,0,3
		c0.6,0,1-0.4,1.2-0.8c0.4-0.7,0.1-0.4-0.2-1.3c-0.6-1.8,1.7-3,3-1.9c0.4,0.4,0.5,0.6,0.9,1.1C160.6,33.3,161.7,31.7,161.7,31.3
		L161.7,31.3L161.7,31.3z M191.7,25.1c-0.2,0.2-0.4,0.6-0.5,0.9c-0.6,0.8-1.1,0.7-0.3,1.6c0.8,1,0.8,2,0.1,3
		c-0.6,0.9-1.4,0.8-1.9,0.8c0,0.4,0.6,0.9,0.9,1c1.4,0.5,1.4-2.4,3.6-2.1c1,0.1,1.9,1.1,1.5,2.3c-0.3,0.9-0.6,0.6-0.2,1.3
		c0.2,0.3,0.6,0.9,1.1,0.8c0-0.5-0.5-0.7-0.4-1.5c0-0.6,0.3-1,0.5-1.4c0.1-0.2,0.3-0.4,0.4-0.7c0.1-0.7-0.1-2-0.2-2.7
		c-0.3-1.3-0.5-1.9-1.6-2.3C194.2,25.8,192.2,25.1,191.7,25.1L191.7,25.1z M164.6,26.1c0.2,0.1,0.2,0.1,0.3,0.2
		c0.1,0.1,0.3,0.1,0.4,0.1c0.6,0.2,1.2,0.8,1.3,1.6c0.1,0.9-0.1,1.6-0.8,2.1c-0.1,0.1-0.5,0.3-0.5,0.5c0.1,0.3,0.8,0.8,1.4,0.3
		c0.3-0.3,0.9-0.8,0.8-1.2c-0.3-1.4,0-2.5,1.5-2.6c1.5-0.1,2.1,0.7,2.2,2.1c0,0.4,0,0.5,0.3,0.8c0.9,0.6,1.8,0.4,2.1-0.5
		c-0.4-0.3-1.3-0.1-1.8-1.1c-0.2-0.3-0.3-0.8-0.2-1.2c0-0.3,0.2-0.9,0.4-1c0-0.1,0,0,0.1-0.2c0.3-0.4,0.8-0.5,1-0.8
		c0.3-0.6,0.1-0.7,0.9-1.2c-0.1-0.4-0.4-0.5-0.4-1.1c-0.1-0.6,0.1-0.9,0.1-1.4c-2.5-0.3-4.8-0.2-6.9,0.7c-0.7,0.3-2.2,0.9-2.6,1.4
		c-0.2,0.3-0.4,1.1-0.5,1.5c-0.1,0.4,0.2,0.4,0.7,1C164.5,26,164.6,26.1,164.6,26.1L164.6,26.1L164.6,26.1z M177.1,21.6
		c-0.1,0.5,0.1,0.9,0.1,1.3c-0.1,0.4-0.4,0.6-0.4,1c0.2,0.2,0.4,0.2,0.6,0.6c0.2,0.3,0.2,0.6,0.4,0.8c0.4,0.3,0.9,0.4,1.2,1.3
		c0.4,1,0.2,2.1-0.9,2.5c-0.5,0.2-1.4,0.2-0.5,1c0.2,0.2,0.5,0.2,0.9,0.1c0.7-0.1,1-0.4,1-1.1c0.2-1.4,0.7-2.2,2.2-2.1
		c1.4,0.1,1.9,1.1,1.6,2.5c-0.1,0.4,0,0.5,0.3,0.7c0.2,0.2,0.3,0.4,0.5,0.5c0.2,0.2,0.4,0.3,0.8,0.2c0.3-0.1,0.6-0.2,0.7-0.4
		c-0.1-0.2-0.2-0.2-0.4-0.3c-1.2-0.7-1.3-2.6-0.2-3.5c0.3-0.3,0.6-0.3,1-0.5c0.3-0.2,1.1-0.8,1.1-1.1c0-0.3-0.4-1.5-0.5-1.8
		c-0.2-0.6-0.1-0.6-0.6-0.9c-1.9-0.9-4-1.4-6.1-1.3C179,21.3,177.6,21.4,177.1,21.6C177.1,21.6,177.1,21.6,177.1,21.6z M154.9,71.8
		c0.1-0.2,0.4-1.5,0.6-1.8c0.7-2,2.1-4.6,3.4-6.2c0.8-1,1.4-1.6,2.3-2.5l1.3-1.1c0-0.1-1.5-1.6-1.7-1.8c-0.2-0.2-1.6-1.7-1.8-1.7
		l-2.1,2.1c-0.1,0.2-0.3,0.3-0.4,0.4c-0.3,0.3-0.5,0.6-0.8,0.9c-0.9,1.1-1.9,2.6-2.7,4c-0.6,1-1.2,2.3-1.7,3.4
		c-0.3,0.8-0.4,0.5,0.1,1.1C151.8,68.8,154.7,71.8,154.9,71.8z M193.1,40.6c-0.4-0.2-0.2-0.5,0.1-0.5
		C193.5,40.1,193.4,40.5,193.1,40.6z M157.6,40.6c-0.4-0.1-0.3-0.3-0.2-0.5C157.8,40,158,40.4,157.6,40.6L157.6,40.6z M190.2,38.1
		c1.1-0.5,1.9,1.3,0.7,1.8c-0.6,0.3-1.1-0.1-1.3-0.6C189.4,38.8,189.9,38.2,190.2,38.1C190.2,38.1,190.2,38.1,190.2,38.1z M159.8,38
		c1.2-0.3,1.6,1.7,0.3,1.9C158.9,40.2,158.3,38.4,159.8,38z M183.3,36.6c0.2-0.2,1.3-0.2,1.6-0.3c0.9-0.1,1.1-0.2,1.5,0.1
		c0.4,0.3,1.8,1.2,2,1.6c-0.3,0.2-1.1,0.2-1.6,0.2c-0.6,0.1-1.1,0.2-1.6-0.1C184.9,37.9,183.4,36.9,183.3,36.6
		C183.3,36.6,183.3,36.6,183.3,36.6z M162.3,38c0.1-0.3,1.7-1.3,2.1-1.6c0.3-0.2,0.3-0.2,0.7-0.1c0.8,0.1,1.6,0.1,2.5,0.3
		c-0.1,0.2-0.3,0.3-0.5,0.5c-1.7,1.2-1.5,1.4-3.2,1.2C163.5,38.2,162.6,38.1,162.3,38z M180.2,35.2c0.5-0.1,1.1,0.3,1.2,0.7
		c0.2,0.6-0.3,1.1-0.7,1.3c-0.6,0.2-1.2-0.2-1.2-0.7C179.4,35.8,179.7,35.4,180.2,35.2L180.2,35.2z M169.8,35.2
		c0.8-0.2,1.6,0.9,0.9,1.6c-0.4,0.5-0.8,0.5-1.3,0.1C168.6,36.4,168.9,35.4,169.8,35.2L169.8,35.2L169.8,35.2z M172.6,35.9
		c0.1-0.1,2.7-1.1,2.8-1.1c0.1,0,2.5,0.8,2.7,1.1c-0.2,0.2-2.4,1.1-2.8,1.1c-0.1,0-1.2-0.4-1.4-0.5L172.6,35.9
		C172.6,35.9,172.6,35.9,172.6,35.9z M157.9,41.8c0.3-0.1,1.4-0.8,2-1.1c3.6-1.5,8.5-2.8,12.4-3c5.4-0.3,10,0.2,15.1,1.8
		c1.4,0.4,3.8,1.2,5.1,1.9c0.4,0.2,0.4,0.2,0.6,0.1c0.3-0.3,0.6-0.4,0.8-0.7c0.7-0.7,0-0.5,0.3-1c0.2-0.4,0.3-0.7,0-1.2
		c-0.2-0.3-0.6-0.5-0.9-0.7c-6.5-3.3-13.5-4-20.9-3.6c-3.6,0.2-7.3,0.9-10.4,1.9c-1.4,0.5-3.2,1.1-4.3,1.8c-0.3,0.2-0.7,0.3-0.8,0.7
		c-0.3,0.8,0.2,1,0.1,1.3c-0.1,0.4-0.4,0.2,0.4,0.9C157.3,41.1,157.9,41.7,157.9,41.8C157.9,41.8,157.9,41.8,157.9,41.8z
		 M193.9,35.3c-0.6-0.1-3.1-1-3.7-1.3c0.1-0.3,0.5-0.2,1.1-0.5c0.5-0.2,0.7-0.4,1.3-0.2c0.7,0.2,0.4,0.3,0.7,0.8
		C193.5,34.6,193.8,35,193.9,35.3L193.9,35.3z M160.6,34c-0.2,0.2-2.6,1-3.1,1.2c-1.4,0.5-0.3-0.4,0.1-1.2c0.1-0.3,0.1-0.4,0.8-0.6
		c0.5-0.1,0.7,0.1,1.1,0.3C159.9,33.8,160.3,33.9,160.6,34L160.6,34L160.6,34z M197.4,33.8c-0.2-0.9,0.4-1.6,1.1-1.7
		c0.9-0.2,1.6,0.4,1.7,1.1C200.6,35.1,197.7,35.5,197.4,33.8L197.4,33.8L197.4,33.8z M150.5,33.7c-0.2-0.8,0.5-1.6,1.1-1.7
		c0.9-0.1,1.6,0.4,1.7,1.1C153.7,35.1,150.9,35.6,150.5,33.7L150.5,33.7z M184.8,32.6C184.8,32.6,184.8,32.6,184.8,32.6
		c0.1-0.1,0.2-0.2,0.3-0.2c0.8-0.4,1.7-1,2.1-1.8c0.2,0.1,0.3,0.9,0.6,1.6c0.1,0.3,0.2,0.5,0.4,0.8c0.1,0.2,0.3,0.5,0.4,0.7
		c-0.2,0-2.3-0.6-2.7-0.7C185.6,32.8,184.9,32.7,184.8,32.6L184.8,32.6L184.8,32.6z M162.3,33.5c0-0.2,0.5-1,0.6-1.4
		c0.1-0.3,0.4-1.3,0.5-1.6c0.2,0,0.4,0.4,0.5,0.6c0.3,0.3,0.8,0.8,1.2,1c0.2,0.1,0.6,0.2,0.7,0.4C165.3,32.8,162.7,33.6,162.3,33.5
		L162.3,33.5z M181.2,30.5c0.9,0,0.3,0.2,1.4,1c0.2,0.1,0.3,0.2,0.4,0.5c-0.5,0.1-3.6-0.2-4-0.4c0.1-0.1,0.8-0.5,1-0.6
		C180.5,30.7,180.4,30.5,181.2,30.5L181.2,30.5L181.2,30.5z M175.4,28.9c0.3,0.6,0.4,1,0.8,1.5c0.3,0.3,1.1,1,1.1,1.2l-3.8,0
		c0-0.1,0.4-0.5,0.5-0.6C174.8,30.1,175.2,29.1,175.4,28.9L175.4,28.9z M167.6,32c0-0.2,0.2-0.3,0.4-0.4c1-0.8,0.5-1.1,1.4-1.1
		c0.9,0,0.7,0.1,1.2,0.4c0.3,0.2,0.7,0.4,1,0.7C171.4,31.8,168.1,32.1,167.6,32C167.6,32,167.6,32,167.6,32z M199.7,29.8
		c-0.4,1-1.7,0.6-1.5-0.4C198.4,28.5,200.1,28.8,199.7,29.8z M152.5,29.8c-0.1,0.3-0.5,0.8-0.9,0.6c-0.2-0.1-0.7-0.4-0.6-0.9
		C151.2,28.5,152.7,28.8,152.5,29.8C152.5,29.8,152.5,29.8,152.5,29.8z M186.5,28.4c-0.1-1.1,1.1-2.1,2.3-1.3
		c0.3,0.2,0.5,0.5,0.5,0.9c0.1,0.9-0.4,1.6-1.2,1.6C187.3,29.7,186.6,29.1,186.5,28.4L186.5,28.4z M162.3,26.9
		c0.9-0.3,1.8,0.3,1.9,1.2c0,0.3,0,0.8-0.2,0.9c-0.2,0.4-0.7,0.6-1.1,0.7C161.2,29.8,160.8,27.5,162.3,26.9
		C162.3,26.9,162.3,26.9,162.3,26.9z M176.8,27.1c-0.2,0.6-0.9,1.2-1.7,1.1c-0.7-0.1-1.3-0.9-1.1-1.8c0.2-0.6,0.9-1.2,1.7-1
		C176.4,25.5,177,26.2,176.8,27.1L176.8,27.1L176.8,27.1z M197.7,26.9c-0.1-0.4,0.2-0.9,0.5-1c0.4-0.1,0.8,0.2,0.9,0.5
		C199.5,27.6,197.8,27.8,197.7,26.9L197.7,26.9L197.7,26.9z M151.7,26.8c-0.1-0.4,0.3-0.8,0.7-0.8c0.5-0.1,0.8,0.3,0.8,0.7
		C153.3,27.6,151.8,27.9,151.7,26.8L151.7,26.8z M160.4,25c-0.1-0.4,0.3-0.8,0.5-0.9c0.4-0.2,0.8,0.2,0.9,0.6
		C162.2,25.7,160.6,25.9,160.4,25z M188.8,25c-0.1-0.4,0.4-0.8,0.6-0.9c0.9-0.2,1.4,1.4,0.3,1.5C189.3,25.6,188.9,25.3,188.8,25
		L188.8,25L188.8,25z M154.4,24.3c-0.4,0.9-1.8,0.6-1.5-0.5c0.1-0.3,0.5-0.7,1-0.5C154.2,23.5,154.6,24,154.4,24.3L154.4,24.3z
		 M197.9,24.2c-0.3,1-1.8,0.8-1.5-0.3c0.1-0.3,0.5-0.7,0.9-0.6C197.6,23.4,198,23.8,197.9,24.2z M189.9,23.2
		c0.1-0.3,0.3-0.4,0.4-0.7c0.1-0.3,0.2-0.6,0.2-0.9c0.3,0,1.4,0.8,1.7,1c2.3,1.5,4,3.4,4.5,6.2c0.1,0.5,0.2,2,0.1,2.5
		c-0.1,0.4-1.5,1.4-0.6,2.9c0.4,0.6,0.6,0.4,0.6,0.8c-1.8,0.7-2.6-1.2-2.5-1.7c0-0.2,0.3-0.5,0.4-0.7c0.1-0.3,0.2-0.7,0.1-1
		c-0.3-0.7-1.5-1.7-2.8-0.1c-0.4,0.5-0.5,0.9-1.1,1.3c-1.3,0.7-2.4-0.8-2.4-1.9c0.3-0.1,1.8,0.5,2.4-0.9c0.3-0.7,0.3-1.4-0.1-2
		c-0.2-0.2-0.3-0.2-0.5-0.4c-0.3-0.2-0.3-1.1,0-1.3c0.4-0.3,0.6-0.4,0.8-0.9c0.3-0.8-0.2-1.2-0.7-1.7
		C190.2,23.5,190,23.3,189.9,23.2L189.9,23.2z M162.3,30.7c-0.1,0.6-0.4,1.3-0.7,1.6c-0.4,0.4-1.1,0.7-1.7,0.3
		c-0.9-0.4-1.1-2.2-2.6-2.1c-0.6,0.1-1.2,0.5-1.3,1c-0.3,0.8,0.4,1.3,0.4,1.8c0,0.4-0.5,1.1-0.8,1.5c-0.3,0.3-1.5,0.4-1.8,0
		c0.1-0.1,0.2-0.2,0.3-0.3c1.5-1.4-0.1-2.9-0.2-3.3c-0.1-0.3,0.1-2.1,0.2-2.5c0.2-1.4,0.8-2.7,1.6-3.7c0.7-0.9,1.8-1.9,2.8-2.5
		c0.3-0.2,1.4-1,1.7-1c0.1,0.2,0.1,0.6,0.2,0.9c0.2,0.4,0.3,0.4,0.5,0.6c-0.1,0.1-0.6,0.5-1,0.8c-0.2,0.2-0.6,0.7-0.4,1.2
		c0.4,1.2,1,0.8,1.1,1.6c0.1,1.2-0.6,0.7-0.9,1.7c-0.3,0.8,0.1,2.1,1,2.4C161.4,31,161.7,30.8,162.3,30.7
		C162.3,30.7,162.3,30.7,162.3,30.7z M174.6,22.6c-0.2-1.1,1.4-1.2,1.4-0.3C176.2,23.4,174.8,23.6,174.6,22.6z M154.8,22.2
		c-0.3-1,1.3-1.5,1.5-0.5C156.5,22.9,155,23.1,154.8,22.2z M194.4,22.2c-0.1-0.4,0.3-0.9,0.6-0.9c1.1-0.3,1.3,1.4,0.4,1.5
		C194.9,22.8,194.5,22.5,194.4,22.2L194.4,22.2L194.4,22.2z M162.6,22.2c-0.3,0.8-1.7,0.6-1.4-0.5c0.1-0.5,0.6-0.6,1-0.5
		C162.4,21.3,162.7,21.7,162.6,22.2L162.6,22.2z M189.6,22c-0.1,0.4-0.4,0.7-0.9,0.6c-0.4,0-0.7-0.4-0.6-0.9
		C188.2,20.9,189.8,21.1,189.6,22z M192,20.3c-0.2-1,1.4-1.3,1.5-0.3C193.7,21.1,192.2,21.2,192,20.3z M158.8,20.4
		c-0.3,1-1.8,0.5-1.5-0.4C157.5,19.1,159,19.3,158.8,20.4z M176.1,19.9c-0.4,0.8-1.9,0.4-1.4-0.7C175.2,18.3,176.5,19,176.1,19.9z
		 M186.9,19.7c-0.2-0.5,0-0.9,0.5-1c0.5-0.1,0.8,0.1,0.9,0.5C188.5,20.2,187.1,20.5,186.9,19.7L186.9,19.7z M162.4,19.5
		c-0.1-1.1,1.4-1.1,1.5-0.2C164,20.3,162.5,20.5,162.4,19.5z M191,19.4c-0.3,0.9-1.9,0.5-1.5-0.5C189.9,17.9,191.3,18.4,191,19.4z
		 M161.3,19.3c-0.3,1-1.8,0.7-1.5-0.4c0.1-0.3,0.5-0.7,1-0.5C161,18.5,161.4,18.9,161.3,19.3C161.2,19.3,161.3,19.3,161.3,19.3z
		 M172.3,26.3c-0.3,1-0.6,1.9,0.7,2.4c0.4,0.1,0.7,0.1,1.1,0.2c0.2,0.7-0.9,2.6-2.8,1.3c-0.7-0.5-0.3-1.1-0.6-1.9
		c-0.3-0.6-0.7-1-1.6-0.9c-0.8,0.1-1.2,0.5-1.2,1.3c0,1.4,0.6,0.8-0.3,1.9c-0.2,0.3-1,1.1-1.6,0.9c-0.5-0.1-1.3-0.8-1.5-1
		c0.6-0.4,1.8-0.7,1.8-1.9c0-0.9-0.6-1.7-1.5-1.8c-0.2,0-0.2,0-0.4-0.1c-0.2-0.1-0.3-0.4-0.5-0.5c-0.1-0.1-0.5-0.3-0.5-0.4
		c-0.3-0.7,1-3.7,1.4-4.4c1-1.7,2.1-2.8,4-3.7c1.2-0.6,3.2-1.2,4.7-1.1c0.4,0,0.5,0.1,0.5,0.4c0.1,0.5,0.1,1.4,0.1,1.9
		c-0.1,0.9-0.4,0.4-0.1,1.6c0.2,0.8-0.2,2.1,0,2.7c0.1,0.5,0.8,0.8,1,1c-0.7,0.2-1.4,0.2-1.5,1.1c-0.1,0.7-0.3,0.2-1.2,1.1
		C172.3,26.3,172.4,26.3,172.3,26.3L172.3,26.3C172.3,26.3,172.3,26.3,172.3,26.3z M186.3,30.3c-0.2,0.4-0.9,0.9-1.4,1
		c-1,0.2-1.5-0.7-1.9-1.2c-0.1-0.1-0.2-0.2-0.2-0.4c0.1-0.6,0.7-2.2-1-2.4c-1.3-0.2-1.8,0.8-1.8,1.8c0,0.5-0.1,0.6-0.3,0.9
		c-0.4,0.4-1.2,0.7-1.9,0.4c-0.4-0.2-0.5-0.3-0.7-0.6c-0.2-0.2-0.4-0.6-0.3-1c0.4-0.1,1.3,0,1.8-0.7c0.5-0.6,0.3-2-0.8-2.5
		c-0.4-0.2-0.5-0.1-0.6-0.7c-0.1-0.8-0.8-0.8-1.4-1.1c0.1-0.1,0.5-0.4,0.6-0.5c0.8-0.7,0-1.9,0.3-3.1c0.1-0.4,0.2-0.6,0.1-1
		c-0.3-1-0.2-1.1-0.1-2.2c0-0.5-0.1-0.7,0.5-0.8c1.2-0.1,3,0.4,4,0.8c2.4,0.9,3.9,2.3,5.1,4.5c0.4,0.7,1.2,2.7,1.2,3.6
		c0,0.4-0.2,0.4-0.5,0.7c-0.2,0.2-0.4,0.5-0.6,0.6c-0.2,0.1-0.6,0.1-0.9,0.3c-0.2,0.1-0.5,0.3-0.6,0.6c-0.5,0.9-0.2,1.9,0.7,2.5
		C185.7,30.1,186,30.2,186.3,30.3L186.3,30.3C186.3,30.3,186.3,30.3,186.3,30.3z M184.9,17.4c-0.3-0.9,1.3-1.4,1.5-0.4
		C186.6,18.1,185.2,18.2,184.9,17.4z M164.3,17.4c-0.4-1,1.2-1.3,1.5-0.4C166.1,17.9,164.7,18.3,164.3,17.4z M174.6,16.8
		c-0.1-1,1.2-1.4,1.5-0.4C176.4,17.5,174.7,17.7,174.6,16.8z M183.9,15.8c-0.1,0.3-0.5,0.6-1,0.5c-0.4-0.1-0.7-0.5-0.5-1
		C182.8,14.3,184.3,14.8,183.9,15.8L183.9,15.8z M168.2,15.8c-0.1,0.3-0.5,0.7-0.9,0.5c-0.3-0.1-0.6-0.5-0.5-1
		C167,14.3,168.6,14.9,168.2,15.8L168.2,15.8L168.2,15.8z M169.4,14.8c-0.3-1.2,1.2-1.3,1.5-0.4C171.2,15.3,169.7,15.8,169.4,14.8z
		 M181.3,14.8c-0.3,0.9-1.8,0.6-1.5-0.4C180.1,13.4,181.6,13.8,181.3,14.8z M172,14.4c-0.2-1.1,1.3-1.4,1.5-0.3
		C173.7,15.1,172.2,15.3,172,14.4z M177.2,14.3c-0.1-0.4,0.3-0.8,0.7-0.9c0.4-0.1,0.8,0.4,0.9,0.7c0.1,0.4-0.3,0.8-0.7,0.9
		C177.6,15,177.2,14.6,177.2,14.3L177.2,14.3L177.2,14.3z M174.9,11.8L174.9,11.8c-0.4,0-0.7,0-1,0.2c-0.3,0.3-0.1,0.5-0.7,0.5
		c-1.4-0.1-1.2,0.2-1.6,0.8c-0.5,0.1-1-0.6-1.8-0.3c-0.4,0.1-1.1,1.1-1.1,1.2c-0.4,0.1-0.9-0.6-1.7,0.1c-0.5,0.4-0.5,0.8-0.8,1.5
		c-0.6,0.1-1.7-0.2-2.1,0.2c-0.4,0.3-0.3,1.4-0.4,2c-0.7,0-1.2-0.2-1.6,0.4c-0.6,0-0.6-0.7-1.6-0.7c-0.6,0-1.1,0.5-1.4,0.9
		c-0.1,0.2-0.1,0.2-0.3,0.2c-0.4,0-1.2-0.1-1.6,0.1c-0.3,0.1-0.4,0.3-0.5,0.6c-0.2,0.4-0.1,0.5-0.2,0.9c-0.3,0.1-0.8,0-1.1,0
		c-0.5,0-0.6,0-0.9,0.3c-0.7,0.7-0.2,1-0.3,2c-1.8,0-1.9,0-1.9,2c0,0.2,0.1,0.5-0.1,0.6c-0.4,0.3-0.7,0.1-1,0.6
		c-0.6,0.9,0.4,2,0.2,2.3c-0.1,0.2-0.7,0.5-0.9,0.7c-0.4,0.4-0.3,0.6-0.1,1.2c0.5,1.9-1.1,3.6,0.2,5.2c0.9,1.1,1.8,0.3,2.4,0.4
		c0.3,0.1,0.5,0.4,1.2,0.4c0.5,0,1.1,0,1.6,0l0,1.1c0.2,0.2,0.7,0.3,0.9,0.5c0.5,0.2,0.6,0,1-0.2c7.9-3.9,18.9-4.5,27.6-2.7
		c2.7,0.6,5.2,1.4,7.7,2.6c0.3,0.1,0.8,0.4,1,0.5c0.2-0.2,0.1-0.2,0.5-0.3c1.2-0.3,0.7-1,0.8-1.5c0.6,0,1.4,0.1,1.9-0.1
		c0.8-0.2,0.4-0.5,1.5-0.2c1.2,0.3,2-0.7,2.2-1.6c0.2-1-0.4-2.4-0.4-3.5c0-0.7,0.5-1,0.1-1.6c-0.3-0.4-0.6-0.6-1.2-0.9
		c0.1-0.5,0.6-1,0.5-1.9c-0.1-0.7-0.7-0.9-1.3-1.1c0-0.6,0.1-1.5-0.1-2.1c-0.2-0.5-1.2-0.5-1.8-0.5c-0.1-0.7,0.1-1.5-0.3-1.9
		c-0.6-0.5-1.2-0.2-1.9-0.3c-0.2-0.6,0.2-1.9-1.8-1.6c-0.5,0.1-0.6,0.2-0.9-0.2c-0.4-0.4-0.5-0.9-1.3-0.9c-0.9,0-1.1,0.6-1.6,0.7
		c-0.2-0.2-0.1-0.3-0.6-0.4c-0.4-0.1-0.7,0-1,0c-0.1-0.6-0.1-1.6-0.4-1.9c-0.3-0.3-1.6-0.2-2.1-0.2c-0.1-0.3-0.1-0.6-0.2-0.9
		c-0.1-0.3-0.3-0.5-0.5-0.6c-0.8-0.7-1.1,0-1.8-0.1c0,0-0.7-1-1.1-1.1c-0.8-0.3-1.3,0.4-1.8,0.3c-0.2-0.6-0.4-0.5-0.6-0.8
		c-0.8-0.2-1.3,0.2-1.5-0.2c-0.3-0.5-0.4-0.4-1.1-0.5v0L174.9,11.8L174.9,11.8z M169.6,87c0.2,0.1,0.1,0.1,0.3,0.2
		c0.1-2.5,0-5.2,0-7.7c0-0.6,0-1.2,0-1.9c0.1-0.7,0.2-0.7,1.2-0.7c2.4-0.1,5.3,0,7.7,0c2.1,0,1.9-0.1,1.9,1.9c0,1.7,0.1,1.4-2.3,1.5
		c-1.2,0-2.6,0-3.9,0c-0.1,0.2-0.1,3-0.1,3.4c1.3,0.1,2.9,0,4.2,0c2.2,0,2.1-0.2,2.1,2c0,2.2,0.1,2-2.1,2.1c-1.4,0-2.8,0-4.2,0l0,4
		c1.6,0.1,4-0.1,5.4-0.5c2.3-0.6,4.1-1.5,5.9-2.9l0.8-0.7c0.4-0.3,0.9-0.9,1.5-1.4c0.3-0.3,0.5-0.6,0.9-0.2c0.3,0.3,0.5,0.5,0.7,0.7
		c0.2,0.2,0.2,0.2,0.3,0.4c0.5,0.6,1.3,1.4,1.8,1.9c0.3,0.4,0.4,0.5,0.1,0.9c-0.6,0.8-0.6,0.7-1,1.2c-0.1,0.1-0.2,0.2-0.4,0.3
		c-0.9,0.8-1.4,1.2-2.5,2c-2.2,1.5-4.6,2.5-7.2,3.1c-0.3,0.1-0.6,0.1-0.9,0.2l-0.3,0.1c0.1,0.2,0.2,0.1,0.3,0.4l7.4,7.5
		c0.5,0,2.8-1.3,3.3-1.6c2.1-1.3,5.1-3.6,6.8-5.4c0.2-0.2,1.1-1.1,1.1-1.3c-0.3-0.4-0.8-0.8-1-1.1c-0.2-0.1-0.5-0.5-0.7-0.7
		c-0.4-0.4-0.7-0.6-1.1-1.1c-0.2-0.3-1-0.8-0.7-1.2c0.3-0.6,0.9-1.1,1.3-1.6c0.5-0.5,0.8-1.2,1.2-1.6c-0.1-0.2-2.2-2.2-2.4-2.4
		l-14.4-14.5c-0.1-0.1-0.5-0.4-0.6-0.6c-0.3-0.3-1.7-1.7-1.8-1.8c-0.5,0.5-2.7,2.9-3,2.9c-0.3,0.1-0.7-0.4-0.9-0.6l-5.9-6.1
		c-0.1-0.1-0.3-0.2-0.4-0.4c-0.6-0.6-1.2-1.3-1.8-1.9l-1.3,1.1c-0.8,0.8-1.1,1-1.8,1.9c-1.3,1.7-2.2,3.7-2.7,5.8
		c-0.1,0.5-0.7,3.9-0.5,4.3L169.6,87C169.7,87,169.6,86.9,169.6,87L169.6,87L169.6,87L169.6,87z M173.1,43.5c2.1-0.2,5.8,0,7.9,0.4
		c2.4,0.4,4.5,1,6.6,1.8c3.5,1.3,7.7,3.8,10.3,6.4l1.1,1c5.9,5.8,9.3,13.2,9.8,21.5c0.5,8.4-2,16.6-7.2,23c-0.9,1.1-2.6,2.9-3.6,3.8
		c-0.2,0.2-0.3,0.3-0.5,0.5c-1.6,1.6-4.8,3.6-6.8,4.7c-8.5,4.5-18.6,4.8-27.5,1.4c-3.5-1.3-7.8-3.9-10.3-6.4
		c-1.1-1.1-1.8-1.8-2.9-2.9c-1.8-1.9-3.2-4.2-4.4-6.5c-4.3-8.3-5-18.7-1.5-27.5c0.8-2,1.7-3.9,2.8-5.6c0.7-1.1,1.8-2.7,2.6-3.6
		c0.5-0.5,1-1.1,1.5-1.6c0.6-0.6,1.5-1.5,2.1-2.1c0.6-0.6,0.9-0.9,1.7-1.4c4.2-3.2,9.3-5.5,14.5-6.4
		C171.1,43.7,171.4,43.7,173.1,43.5L173.1,43.5L173.1,43.5z M213.8,78c0.2-5.8-1.1-11.4-3.1-16.1c-1.4-3.3-3.3-6.4-5.4-9
		c-0.9-1.1-3.8-4-5-5.2l-1-0.8c-2.5-2-4.3-3-7.4-4.6c-4.7-2.3-10.1-3.6-15.4-3.7c-5.9-0.2-11.3,0.9-16.1,3c-3.1,1.3-6.6,3.3-9,5.4
		c-0.6,0.5-2,1.7-2.5,2.2c-0.5,0.5-0.6,0.7-1.2,1.2c-0.4,0.3-0.7,0.9-1.1,1.3c-0.2,0.2-0.4,0.4-0.6,0.7c-0.5,0.5-1.2,1.4-1.6,2
		c-4.4,6.2-7.1,13.2-7.3,21.4c-0.3,9.5,2.8,18.1,8.5,25.2l1.7,1.9c0.2,0.2,0.4,0.4,0.6,0.6c4.6,5,11.6,9,18.2,10.6
		c2.5,0.6,5.7,1.2,8.4,1.2c3.2,0,5.8-0.1,8.8-0.8c4.8-1,9.6-3,13.5-5.6c2.3-1.5,3.5-2.5,5.3-4.2c0.4-0.4,1.9-1.9,2.3-2.5
		c0.2-0.2,0.4-0.4,0.6-0.6C210.3,94.8,213.4,87.1,213.8,78L213.8,78L213.8,78L213.8,78z M159.5,50.3c-0.6,0.1-3.5,2.4-4.3,3.1
		c-0.5,0.4-2.3,2.1-2.7,2.6c-3.4,3.9-6.1,8.2-7.4,13.9c-1.7,7.3-0.7,14.8,2.7,21.3c0.5,0.9,2.7,4.7,3.4,5.1c0.4-0.1,2.6-2.4,3.1-3
		c0.1-0.1,0.3-0.3,0.4-0.5c0-0.2-1.3-1.6-1.5-1.8c-1.5-1.8-2.7-4.3-3.5-6.5c-1.2-3.6-1.3-8-0.6-11.8c0.6-3.6,2.1-7,3.7-9.7
		c0.6-1.1,1.9-3,2.8-3.9c0.3-0.3,0.5-0.6,0.8-0.9c0.1-0.2,0.3-0.3,0.4-0.4c0.4-0.4,1.8-1.8,2.2-2c0.4,0.1,1.8,1.7,2.1,2.1
		c0.3,0.4,1.9,1.9,2,2.2c0,0.2-1.6,1.5-1.9,1.8c-1.9,1.8-3.4,4-4.6,6.6c-0.7,1.5-1.5,4-1.6,5.9c-0.1,2.5-0.1,4.5,0.5,6.9
		c1.7,6.8,7.1,12.3,13.5,14.5c0.3,0.1,1.2,0.4,1.4,0.5c0.1,1.1-0.1,4.8,0.1,5.5c0.3,0.1,3.1,0.2,3.5,0.1c0.1-0.9-0.1-4.4,0-4.9
		c2.9-0.1,3.9,0.1,6.9-0.7c3.9-1,7-2.8,9.8-5.4c0.2-0.2,0.3-0.3,0.5-0.5c0.1-0.1,0.3-0.4,0.2-0.6c0,0-2.6-2.9-2.7-3
		c-0.3,0.2-0.7,0.6-0.9,0.9c-2.4,2.5-5.4,4-8.9,4.7c-1.3,0.2-3.5,0.4-4.8,0.1l0-5.1l6.1,0l0-3l-6.2,0l0-4.7l6.2,0l0-2.3l-9.6,0
		c-0.1,0.4,0,1.3,0,1.8c0,1.3,0,11.8-0.1,12.3c-0.7,0.2-4-1.9-4.8-2.5c-0.5-0.4-0.9-0.7-1.3-1.1c-0.8-0.8-1.5-1.6-2.2-2.6
		c-0.4-0.6-1.4-2.4-1.7-3.3c-0.7-1.5-1-3.8-1-5.7c0-3.6,1.3-7.2,3.5-9.8c1.1-1.3,1.4-1.5,2.5-2.5c0.2-0.1,0.7-0.6,1-0.7l8.7,9
		c0.2-0.1,3.9-4,4.7-4.8c0.8-0.8,1.8-1.9,2.6-2.7c0.3-0.3,1.8-2,2.1-2c0.3,0.1,1.3,0.8,1.5,1c0.5,0.4,0.9,0.8,1.4,1.2
		c1.1,1.1,2.1,2.5,2.3,2.7c0.4-0.1,3.3-2.7,3.3-2.8c-0.2-0.4-0.9-1.3-1.2-1.6l-1.3-1.4c-0.5-0.4-1-0.9-1.5-1.3
		c-0.3-0.3-1.3-1-1.5-1.2l2.7-2.9c0.2-0.2,0.7-0.8,0.9-0.9c1.2,0.6,4,4,4.9,5.1c2.3,3.2,4.3,7.3,5,11.6c0.2,1,0.3,1.9,0.4,3
		c0.3,5.2-0.5,9.1-3,13.5c-0.8,1.4-1.9,2.5-2.9,3.7c0.2,0.5,3.1,3.1,3.7,3.7c0.4,0,0.7-0.5,1-0.9c1.8-2.4,3.5-5.6,4.5-8.6
		c1.3-4,2-8.5,1.5-13.1c-0.8-6.8-3.2-12-7.3-16.9l-1.8-1.9c-0.3-0.3-0.7-0.6-1-0.9c-0.2-0.2-0.9-0.8-1.2-1.1c-0.7-0.6-3.3-2.5-4-2.7
		l-7.4,7.4c-0.5-0.1-1.1-0.4-1.7-0.6c-8.3-2.5-14.3,0.8-14.9,0.9c-0.2,0-1-0.9-1.1-1C165.7,56.5,159.5,50.5,159.5,50.3L159.5,50.3
		L159.5,50.3z"/>
</g>
</svg>
