<?xml version="1.0" encoding="utf-8"?>
<!-- Generator: Adobe Illustrator 26.0.1, SVG Export Plug-In . SVG Version: 6.00 Build 0)  -->
<svg version="1.1" id="Слой_1" xmlns="http://www.w3.org/2000/svg" xmlns:xlink="http://www.w3.org/1999/xlink" x="0px" y="0px"
	 viewBox="0 0 238.1 150.2" style="enable-background:new 0 0 238.1 150.2;" xml:space="preserve">
<g>
	<path d="M7.8,143.5c0-45.5,0-90.9,0-136.3c74.2,0,148.3,0,222.5,0c0,45.4,0,90.8,0,136.3C156.1,143.5,82,143.5,7.8,143.5z
		 M9.7,141.8c72.9,0,145.8,0,218.7,0c0-44.3,0-88.6,0-133c-72.9,0-145.8,0-218.7,0C9.7,53.2,9.7,97.5,9.7,141.8z"/>
	<path d="M212.6,12.6c-0.1,5.3,4.6,9.7,11.4,9.5c0,35.5,0,70.9,0,106.4c-0.9,0.1-1.7,0.1-2.5,0.2c-3.9,0.5-7.6,3-8.7,7.2
		c-0.2,0.7-0.2,1.4-0.3,2.2c-62.3,0-124.7,0-187,0c0-5.3-4.7-9.8-11.4-9.6c0-35.4,0-70.9,0-106.3c1.1-0.1,2.2-0.2,3.2-0.4
		c3.9-0.8,6.7-3,7.9-6.9c0.2-0.7,0.2-1.5,0.3-2.3C87.9,12.6,150.2,12.6,212.6,12.6z M132.8,136.8c0-2.4,0-4.6,0-6.8
		c0-4.1,0.1-8.1,0.1-12.2c0-2,0.3-3.8,0.8-5.7c0.2-0.8,0.5-1.7,0.3-2.6c-0.1-0.7-0.1-1.5,0.1-2.2c0.5-1.8,1.2-3.6,1.8-5.4
		c0.5-1.4,0.3-1.7-0.9-2.4c-0.8-0.4-1.2-1.1-1.5-2c-0.5-2.1,0-4,0.7-5.9c1-2.8,1.3-5.6,0.5-8.5c-0.4-1.3-0.8-2.5-1.1-3.8
		c-0.8-2.7-1.3-5.5-2.7-7.9c-0.7-1.2-1.4-2.4-2.5-3.4c-1.2-1.1-2.4-2.2-3.4-3.5c-1.9-2.6-3.7-5.3-5.6-8c-1.8-2.6-3.7-5.2-5.6-7.7
		c-1-1.3-1.9-2.7-2.9-4.1c-1-1.5-1.9-3-3-4.3c-0.9-1.2-2.1-2.3-3-3.6s-1.9-2.5-2.3-4.1c-0.2-0.8-0.4-1.6-0.7-2.4
		c-0.5-1.4-1.2-2.9-1.7-4.3c-0.2-0.5-0.1-1,0.3-1.5c0.1-0.1,0.1-0.4,0-0.6c-0.3-0.8,0-1.6,0.6-1.9c0.7-0.3,1.7,0,2.1,0.6
		c0.7,1.1,1.4,2.1,2,3.2c0.6,1.1,1.4,1.8,2.7,2c1.1,0.1,1.3,0.3,1.6,1.4c0.4,1.4,0.7,2.8,1.3,4.1c0.4,0.8,1.1,1.6,1.7,2.3
		c1,1.1,1.9,2.3,3,3.3c2,1.8,4.1,3.4,6.1,5.1c1,0.8,1.6,1.9,2.2,3.1c0.5,1.1,1.2,2.1,2,3c1.6,1.8,3.3,3.4,4.9,5.1
		c1.1,1.1,1.9,2.5,3.5,2.9c0.3,0.1,0.5,0.2,0.8,0.3c1.5,1,3,1.9,4.4,2.9c0.9,0.6,1.8,0.8,2.8,0.2c0.9-0.5,0.9-1.4,0.8-2.2
		c0-0.4-0.1-0.8-0.1-1.2c0-0.6-0.2-1-0.8-1.2c-1.6-0.5-1.9-1.8-2-3.2c-0.1-1-0.2-1.9-0.4-2.8c-0.3-1.9-0.4-3.8,0.7-5.5
		c1.1-1.7,2.3-3.2,4.4-3.6c1.1-0.2,2.3-0.1,3.4,0c0.8,0.1,1.7,0.3,2.5,0.7c2.9,1.5,4,4.1,4.3,7.2c0.1,1,0.1,1.9,0.2,2.9
		c0.1,0.9-0.1,1.7-0.8,2.4c-0.3,0.3-0.5,0.8-0.5,1.2c-0.1,1.2,0,2.3,0,3.5c0,0.3,0.1,0.6,0.3,0.8c1.1,0.9,2.9,0.9,4-0.1
		c0.2-0.2,0.5-0.4,0.7-0.7c1.6-1.9,3.7-3,6.1-3.7c1-0.3,2.1-0.6,2.6-1.6c0.8-1.6,2-2.6,3.5-3.5c1.6-1,3.2-2.1,4-3.9
		c1.2-2.7,3-4.9,5-6.9c1.1-1.2,2.4-2.2,3.4-3.5c1.3-1.7,2.6-3.4,3.2-5.5c0.4-1.5,0.7-3,1-4.5c0.2-1,0.4-1.1,1.5-1.3
		c1.2-0.2,1.6-0.5,1.9-1.6c0.6-2.1,2.1-3.3,4.1-3.9c0.4-0.1,0.8,0,1.2,0.5c0.5,0.7,0.3,1.4-0.1,2.1c0.3,0.1,0.6,0.3,0.9,0.4
		c1,0.3,1.2,1,0.7,1.8c-1.1,1.5-1.8,3.1-2.3,4.9c-0.4,1.3-0.8,2.5-1.8,3.5c-0.7,0.7-1.4,1.5-1.9,2.3c-0.2,0.4-0.5,0.7-0.7,1.1
		c-1.1,1.9-2.1,3.8-3.2,5.6c-0.7,1.3-1.3,2.7-2.2,3.9c-0.9,1.4-2.1,2.7-3.1,4c-0.9,1.2-1.5,2.5-2.4,3.6c-1.4,1.7-2.5,3.4-3.6,5.3
		c-1.5,2.5-3.3,4.8-5.7,6.5c-1.6,1.2-3,2.6-3.6,4.6c-0.6,1.8-1,3.6-1.6,5.3c-0.3,0.8-0.4,1.6-0.2,2.4c0.1,0.4,0.1,0.8,0,1.1
		c-0.4,1.7-0.7,3.4-1.2,5.1c-0.3,1.3-0.4,2.6,0.3,3.8c0.2,0.3,0.3,0.8,0.3,1.2c0,1.7,0,3.4,0,5.1c0,1.5-0.3,3-0.9,4.4
		c-0.6,1.7-0.8,3.4,0,5c1.1,2.5,1.4,5.1,1.6,7.8c0.1,1.3,0.3,2.6,0.5,3.8c0.3,1.4,0.7,2.8,0.5,4.3c-0.1,0.7,0,1.4,0.1,2.1
		c0.3,1.2,0.5,2.4,0.6,3.6c0.1,1.2-0.1,2.4-0.1,3.6c0.1,2.6,0.3,5.1,0.4,7.7c0,0.2,0,0.4,0.1,0.6c14.5,0,29,0,43.4,0
		c1.2-6.2,5.5-8.9,11.4-9.6c0-34.6,0-69.2,0-103.8c-2.8-0.2-5.3-1-7.4-2.7c-2.2-1.7-3.6-3.9-3.8-6.7c-61.5,0-122.9,0-184.3,0
		c-0.6,4.9-4.9,9-11.3,9.5c0,34.6,0,69.2,0,103.7c5.9,0.8,10.2,3.4,11.4,9.6C62.2,136.8,97.5,136.8,132.8,136.8z M159.9,60.5
		c-0.5,0.3-0.8,0.6-1.2,0.8c-0.4,0.2-0.4,0.4-0.3,0.8c0.5,1.7,0.9,3.4,1.3,5.1c0.8,3,1.4,5.9,2.3,8.9c0.4,1.4,1.2,2.6,2.5,3.7
		c0.1-0.9,0.1-1.7,0.2-2.4c0-0.4,0-0.8,0-1.2c0.1-0.8,0.3-1.6,0.4-2.3c0.4-3.8,2.4-6.7,5.1-9.3c1.3-1.3,2.9-2.1,3.9-3.8
		c0.8-1.3,1.7-2.6,2.5-3.8c0.9-1.2,1.1-2.8,2.2-3.9c-0.1-0.7,0.2-1.5-0.2-2.1c-0.6,0.2-1.2,0.4-1.8,0.5c-0.7,0.2-1.2-0.3-1-1
		c0.2-0.7,0.7-1.2,1.4-1.4c0.9-0.2,1.3-0.8,1.7-1.5c0.5-0.8,1.1-1.5,1.7-2.2c0.4-0.4,1-0.6,1.5-0.9c0,0,0.1,0.1,0.1,0.2
		c-0.4,0.5-0.4,1,0.1,1.5c0.1,0,0.1,0.2,0.1,0.2c0.4,0.9-0.2,1.6-0.5,2.4c-0.1,0.2-0.2,0.5-0.4,0.7c0.1,0,0.1,0.1,0.1,0.1
		c0.6-0.7,1.2-1.4,1.7-2.1c2.2-2.9,4-6.1,5.5-9.4c1-2.2,2.1-4.4,4-5.9c0.9-0.7,1.3-1.6,1.6-2.6c0.2-0.8,0.4-1.6,0.8-2.4
		c0.5-1.4,1.1-2.7,1.7-4c-0.1,0-0.1-0.1-0.1-0.1c-1.3,0.8-1.9,2.4-3.1,3.3c0-0.5,0.1-0.9,0.2-1.3c0.4-1,1-1.9,1.4-2.9
		c0.1-0.3,0.3-0.7,0.3-1c0-0.2-0.3-0.5-0.5-0.5c-0.7-0.1-1.2,0.3-1.6,0.8c-0.8,1.1-1.5,2.2-2.3,3.2c-0.4,0.6-0.9,1.2-1.9,1.2
		c-0.6,0-1.1,0.5-1.3,1.1c-0.1,0.4-0.2,0.8-0.3,1.2c-0.2,2.5-0.9,4.8-2.5,6.8c-1.2,1.5-2.3,3.1-3.6,4.5c-0.8,0.9-1.8,1.6-2.7,2.5
		c-1.7,1.7-2.8,3.8-3.9,6c-0.5,0.9-0.9,2-2,2.4c-2,0.8-3.2,2.4-4.6,3.9c-0.6,0.6-1,1.4-1.5,2c-0.2,0.2-0.5,0.5-0.8,0.5
		c-1.5,0.3-2.9,0.7-4.2,1.6c-0.3,0.2-0.5,0.5-0.9,0.9c0.4,0,0.6,0,0.9,0c0.8,0.1,0.9,0.4,0.4,1c-0.1,0.2-0.3,0.4-0.4,0.6
		c0.5,0.8,0.3,1.8-0.6,2.4c-0.1-0.2-0.4-0.4-0.4-0.6c-0.2-0.7-0.4-1.3-1.4-0.9C159.9,61.3,159.9,61,159.9,60.5z M120.5,53.7
		c1,0.7,2.2,2.6,2.3,3.7c0,0.1-0.1,0.4-0.2,0.5c-0.4,0.2-0.3,0.6-0.2,0.9c0.7,1.3,1.3,2.6,2.2,3.7c1.4,1.7,2.9,3.2,4.4,4.9
		c1,1.2,2.1,2.3,2.9,3.6c1.3,2,1.4,4.4,2.2,6.7c0.1,0.4,0.2,0.8,0.3,1.2c0.1,0.7,0.2,1.4,0.3,2.2c0.1,0,0.1,0,0.2,0.1
		c0.1-0.2,0.2-0.3,0.3-0.5c0.3-0.9,0.6-1.9,0.9-2.8c1.2-3.3,1.9-6.7,2.2-10.2c0.1-1.2,0.2-2.3,0.4-3.5c0.1-0.5,0.2-1.2,1-1.3
		c-0.5-0.4-1-0.8-1.4-1.2c-2-1.7-4.3-2.8-6.8-3.5c-0.1,0-0.1,0-0.1-0.1c-0.8-1-1.7-2.1-2.5-3.1c-1-1.1-1.9-2.3-3-3.3
		c-1-0.9-1.9-1.8-2.3-3.1c-0.1-0.4-0.4-0.8-0.6-1.1c-1.1-1.8-2.7-3.2-4.3-4.6c-2.3-2.1-4.5-4.3-6.7-6.4c-0.9-0.8-1.9-1.2-3.1-1.2
		c-0.6,0-0.9,0.4-0.8,0.9c0.1,1,0.2,2.2,0.7,3.1c0.7,1.5,1.6,2.8,2.5,4.2c1.4,2.1,2.9,4.2,4.5,6.3c0.7,0.9,1.6,1.7,2.3,2.5
		c0.2-0.8,0.3-1.4,0.5-2c0.3-0.7,0.2-1.4-0.1-2c-0.2-0.4-0.5-0.8-0.7-1.3c-0.2-0.4-0.3-0.8-0.5-1.2c0.1,0,0.1-0.1,0.2-0.1
		c0.2,0.1,0.4,0.2,0.5,0.4c0.8,1,1.5,1.9,2.3,2.8c0.4,0.4,0.9,0.8,1.4,1.2c0.4,0.3,0.8,0.6,1.1,1.1c0.4,0.7,0,1.2-0.7,1.1
		c-0.4,0-0.8-0.2-1.2-0.4c-0.5-0.3-0.8-0.3-1.1,0.2c-0.3,0.6-0.5,1.2-0.2,1.8c0.3,0.6,0.6,1.3,0.9,1.9c0.1,0,0.1,0,0.1,0
		C120.5,54.9,120.5,54.3,120.5,53.7z M152.8,55.8c-0.1,0.2-0.2,0.3-0.2,0.4c-0.1,1.5-1.5,2.3-2.2,3.4c-0.1,0.2-0.3,0.3-0.5,0.3
		c-1.2,0-2.5,0.1-3.7,0c-0.9-0.1-1.4-0.1-1.9,0.7c-0.5,0.9-0.9,1.9-2.1,2c0,0-0.1,0.1-0.1,0.1c0.4,0.9,1.1,1.6,1.9,2.2
		c1.2,0.9,2.5,1.9,4.2,1.7c1.6-0.2,3.1-0.8,4.4-1.9c1-0.8,1.9-1.7,2.5-3c-1.1,0-1.8-0.5-2-1.5c-0.1-0.5-0.2-0.9-0.2-1.4
		C152.8,57.9,152.8,56.9,152.8,55.8z M155.1,80.3c-1,0-2.2,0.5-2.8,1.3c-1.2,1.6-1.8,3.5-1.9,5.3c-0.1,2.2,0.8,4.1,2.5,5.6
		c1.2,1,3.1,1,4.1-0.3c0.3-0.4,0.6-0.9,0.8-1.3c0.7-1.4,1.2-2.9,1.2-4.4c0-1.2-0.3-2.5-0.7-3.7C158,81.3,156.5,80.3,155.1,80.3z
		 M166.4,136.7c-0.1-0.6-0.2-1.2-0.3-1.7c-0.1-1.8-0.2-3.7-0.3-5.5c-0.1-3.3-0.1-6.5-0.2-9.8c-0.1-1.6-0.2-3.1-0.4-4.7
		c-0.2-1.9-0.6-3.9-0.8-5.8c-0.2-2-0.6-4-1.5-5.8c-0.5-1-0.6-2-0.3-3.1c0.4-1.5,0.8-3.1,1.1-4.6c0.5-2.3-0.4-4.2-1.6-6.2
		c-0.5,0.9-0.9,1.7-0.5,2.7c0.2,0.6,0.5,1.2,0.8,1.8c0.5,1,0.9,2.1,0.7,3.2c-0.2,1.1-0.7,2.1-1,3.2c-0.2,0.6-0.4,1.2-0.3,1.7
		c0.6,3.2,1.4,6.4,2,9.6c0.4,2.1,0.7,4.2,0.9,6.3c0.1,1.1-0.1,2.2-0.1,3.2c0.1,3-0.4,5.9-1.3,8.7c-0.2,0.6-0.3,1.3,0.2,2
		c0.8,1.3,0.8,2.7,0.2,4.1c-0.1-0.1-0.3-0.1-0.4-0.2c-0.1,0.3-0.3,0.6-0.4,0.9C164.1,136.7,165.2,136.7,166.4,136.7z M141.9,89.1
		c-0.1,0-0.1,0.1-0.2,0.1c-0.2,0.8-0.3,1.5-0.5,2.3c-0.1,0.4,0.1,0.6,0.4,0.8c0.6,0.3,1.1,0.6,1.7,0.8c2.4,1,4.3,0.6,5.8-1.5
		c0.8-1.2,0.8-2.3-0.2-3.9c-0.4-0.7-0.7-1.3-0.3-2.1c1.2-2.3-0.3-4.7-3-4.8c-1.9-0.1-3.3,1.1-4.7,2.2c0.5,0.8,1,1.6,1.5,2.4
		c0.1-0.1,0.1-0.1,0.1-0.1c0-0.1,0.1-0.1,0.1-0.2c0.7-1.3,1.8-1.9,3.2-1.8c0.7,0.1,1.1,0.5,1.1,1.4c0,0.6-0.3,0.8-1.1,0.8
		c-0.5,0-1-0.1-1.5-0.1c0,0.9,0,1.8,0,2.8c0.5-0.1,0.9-0.2,1.4-0.3c0.9-0.2,1.6,0.4,1.8,1.2c0.1,0.7-0.5,1.7-1.1,1.8
		c-1.4,0.2-2.9,0.1-3.9-1.2C142.2,89.5,142.1,89.3,141.9,89.1z M109.8,34.2c-0.4-1.8-0.8-3.5-1.3-5.1c-0.1-0.4-0.7-1-1.1-1
		c-1.2,0-1.7-0.7-2.3-1.5c-0.9-1.3-1.8-2.6-2.8-3.9c-0.2-0.2-0.6-0.5-0.7-0.4c-0.2,0.2-0.5,0.5-0.5,0.8c0,0.3,0.2,0.6,0.3,0.9
		c0.6,1,1.3,2,1.9,3.1c0.4,0.6,0.3,1-0.3,1.5c-0.2,0.2-0.5,0.6-0.5,0.8c0,2.4,0.9,4.6,2.6,6.3c0.2,0.3,0.8,0.5,1.1,0.4
		c0.6-0.3,1-0.9,1.6-1.3c0.3-0.2,0.7-0.4,1-0.5C109.2,34.2,109.5,34.2,109.8,34.2z M133.5,136.7c1.3,0,2.5,0,4,0
		c-0.4-0.5-0.8-1-1.1-1.4c-0.3-0.3-0.8-0.6-0.9-0.9c-0.3-1-0.6-2-0.7-3c-0.1-0.6-0.2-1-0.9-1C133.8,132.4,133.7,134.6,133.5,136.7z
		 M136.5,92.1c-0.3,0.4-0.4,0.7-0.7,0.9c-1,1-1.5,2.2-1.8,3.7c-0.1,0.6,0.1,1,0.5,1.3c0.7-0.9,1.4-1.8,2.1-2.6
		c0.6-0.6,0.7-1.3,0.3-2C136.9,93,136.7,92.6,136.5,92.1z M134.5,93.2c2.2-2.8,2.9-5.2,1.5-6.8C135.5,88.6,135,90.8,134.5,93.2z
		 M151,76.1c0.3,0,0.5,0,0.6,0c0.1-0.6,0.2-1.1,0.3-1.6c0.1,0,0.1,0,0.2,0c0.2,0.6,0.5,1.1,0.7,1.7c0.1,0,0.1,0,0.2,0
		c0.2-1.2,0.4-2.3,0.6-3.5c0.1-0.7-0.3-1-1-1c-0.2,0-0.4,0-0.6,0.1c0.3,0.2,0.8,0.2,1,0.4c0.5,0.5,0,1-0.1,1.5
		c0,0.1-0.6,0.2-0.9,0.2c0-0.5-0.1-0.9-0.1-1.2c-0.1,0-0.1,0-0.1,0C151.5,73.8,151.3,74.9,151,76.1z M148.7,74.5c0.1,0,0.1,0,0.2,0
		c0.4,0.4,0.7,0.9,1.1,1.4c-0.1-0.9-0.2-1.8-0.2-2.6c0-1.5-0.2-1.7-1.7-1.4c0,0,0,0-0.2,0.1c0.1,1.3,0.2,2.8,0.3,4.2
		c0.1,0,0.2,0,0.3,0C148.6,75.7,148.7,75.1,148.7,74.5z M146.2,72.1c-0.1,0-0.2,0-0.3,0c0,0.2-0.1,0.5,0,0.7
		c0.3,0.9,0.6,1.8,0.9,2.7c0.1,0.2-0.1,0.6-0.1,0.6c-0.3,0-0.6,0-0.8-0.1c-0.2-0.2-0.3-0.6-0.4-0.9c-0.2-0.8-0.5-1.5-0.7-2.3
		c-0.1-0.1-0.2-0.3-0.3-0.4c-0.1,0-0.1,0.1-0.2,0.1c0.4,1.4,0.7,2.7,1.4,4c0.3,0.5,0.8,0.2,1.1,0c0.2-0.1,0.3-0.5,0.3-0.8
		c0-0.2-0.1-0.5-0.1-0.8C146.7,74.1,146.4,73.1,146.2,72.1z M154.3,76.4c0.1,0,0.2,0,0.2,0.1c0.7-1.1,1.4-2.3,2-3.4
		c0.1-0.1-0.1-0.4-0.1-0.7c-0.4,0.6-0.7,1.1-1,1.6c-0.1-0.4-0.1-0.7-0.1-1c0-0.3,0.2-0.7-0.4-0.7C154.7,73.6,154.5,75,154.3,76.4z
		 M164.1,90.7c-0.3-1.5-0.6-3-0.9-4.6C162.2,87.8,162.8,89.9,164.1,90.7z M143.2,73.8c-0.2-0.4-0.3-0.8-0.9-0.6
		c-0.5,0.2-1,0.4-0.7,1c0.5,1.1,1.1,2.1,1.7,3.1c0.1,0.2,0.7,0.2,1,0.1c0.4-0.1,0.6-0.4,0.3-1c-0.3,0.4-0.6,0.7-0.8,1
		c-1-1.4-1.6-2.8-1.6-3.8C142.6,73.7,142.9,73.7,143.2,73.8z M102.7,27.6c-0.6-1-1.1-1.9-1.7-2.8c-0.5,0.6-0.3,1,1,3.2
		C102.2,27.9,102.4,27.8,102.7,27.6z M149.3,67.3c-0.8,0.3-0.9,0.8-0.6,1.5c0.2,0.7,0.8,0.6,1.3,0.5C149.8,68.7,149.5,68,149.3,67.3
		z M166.5,129.7c0,1.7,0,3.4,0,5.1C167.2,133.1,166.9,131.4,166.5,129.7z M135.2,106.2c0.1,0,0.1,0.1,0.2,0.1c0.7-2,1.4-4.1,2.2-6.1
		c-0.1,0-0.2-0.1-0.3-0.1C136.6,102.1,135.9,104.1,135.2,106.2z"/>
	<path d="M23.4,14c0.2,3.8-3.8,6.8-7.7,6.7c0-2.2,0-4.4,0-6.7C18.2,14,20.8,14,23.4,14z"/>
	<path d="M214.7,13.9c2.6,0,5.1,0,7.7,0c0,2.2,0,4.4,0,6.7C219,20.9,214.5,18,214.7,13.9z"/>
	<path d="M23.4,136.7c-2.6,0-5.1,0-7.7,0c0-2.2,0-4.4,0-6.6C18.9,129.6,23.7,132.6,23.4,136.7z"/>
	<path d="M214.8,136.7c-0.3-3.8,4-6.9,7.7-6.7c0,2.2,0,4.4,0,6.7C219.9,136.7,217.3,136.7,214.8,136.7z"/>
	<path d="M176.4,55.8c-0.1-0.9-0.1-1.7,0.6-2.2c0.1-0.1,0.3-0.2,0.5-0.2c0.1,0.2,0.3,0.4,0.2,0.6c-0.1,0.4-0.4,0.8-0.6,1.2
		C177,55.4,176.7,55.6,176.4,55.8z"/>
	<path d="M135,64.2c-0.5-0.9-1.1-1.6-0.9-2.5c0.3-1.2,0.9-1.5,2-1.1c1,0.3,1.5,0.7,1.2,2.6C136.5,63.1,135.6,63.2,135,64.2z"/>
	<path d="M114.6,45.3c1.1,0.2,1.8,1.3,1.5,2.1C115.2,47.6,114.4,46.6,114.6,45.3z"/>
	<path d="M154.8,90.6c-0.4-0.3-0.9-0.5-1.2-0.8c-1.3-1.7-1.1-4.2,0.1-5.8c0.8-1.2,2-0.9,2.8,0.3c0.7,1.1,0.6,2.3,0.3,3.4
		c-0.1,0.7-0.4,1.4-0.7,2.1C155.9,90.2,155.5,90.4,154.8,90.6z"/>
	<path d="M149.4,72c0,0.5,0,1,0,1.4c0,0.2-0.3,0.5-0.4,0.5c-0.2,0-0.4-0.2-0.5-0.4C148.2,72.8,148.4,72.4,149.4,72z"/>
</g>
</svg>
