<?xml version="1.0" encoding="utf-8"?>
<!-- Generator: Adobe Illustrator 26.0.1, SVG Export Plug-In . SVG Version: 6.00 Build 0)  -->
<svg version="1.1" id="Слой_1" xmlns:xodm="http://www.corel.com/coreldraw/odm/2003"
	 xmlns="http://www.w3.org/2000/svg" xmlns:xlink="http://www.w3.org/1999/xlink" x="0px" y="0px" viewBox="0 0 238.1 150.2"
	 style="enable-background:new 0 0 238.1 150.2;" xml:space="preserve">
<style type="text/css">
	.st0{fill-rule:evenodd;clip-rule:evenodd;}
</style>
<g id="Слой_x0020_1">
	<path class="st0" d="M163.7,72.3v9.2c0,0.1,0.1,0.3,0.3,0.3c0.2,0,0.3-0.1,0.3-0.3v-9.2c0-0.1-0.1-0.3-0.3-0.3
		C163.8,72,163.7,72.1,163.7,72.3z M206,75.4c0,0.1-0.1,0.1-0.1,0.1h-2.6c-0.1,0-0.1-0.1-0.1-0.1c0-0.1,0.1-0.1,0.1-0.1h2.6
		C205.9,75.3,206,75.3,206,75.4z M203.5,69.9C203.5,69.9,203.4,70,203.5,69.9l-1.9,1.8c-0.1,0.1-0.1,0.1-0.2,0
		c-0.1-0.1-0.1-0.1,0-0.2l1.8-1.7C203.3,69.7,203.4,69.7,203.5,69.9C203.4,69.8,203.5,69.9,203.5,69.9z M203.5,80.9
		C203.5,80.9,203.4,80.9,203.5,80.9c-0.1,0.1-0.2,0.1-0.2,0.1l-1.8-1.7c-0.1-0.1-0.1-0.1,0-0.2c0.1-0.1,0.1-0.1,0.2,0L203.5,80.9
		C203.4,80.8,203.5,80.8,203.5,80.9z M205.3,72.4c0,0.1,0,0.1-0.1,0.1l-0.6,0.2c-0.1,0-0.2,0-0.2-0.1c0-0.1,0-0.1,0.1-0.2l0.6-0.2
		C205.2,72.3,205.3,72.3,205.3,72.4C205.3,72.4,205.3,72.4,205.3,72.4z M203.5,73.1c0,0.1,0,0.1-0.1,0.1l-1.9,0.7
		c-0.1,0-0.2,0-0.2-0.1c0-0.1,0-0.1,0.1-0.2l1.9-0.7C203.3,73,203.4,73,203.5,73.1C203.5,73.1,203.5,73.1,203.5,73.1z M200.7,68.2
		c0-0.1,0-0.1-0.1-0.1c-0.1,0-0.2,0-0.2,0.1l-0.2,0.6c0,0.1,0,0.1,0.1,0.2c0.1,0,0.2,0,0.2-0.1L200.7,68.2
		C200.7,68.2,200.7,68.2,200.7,68.2L200.7,68.2z M199.9,69.9c0-0.1,0-0.1-0.1-0.1c-0.1,0-0.2,0-0.2,0.1l-0.8,1.8
		c0,0.1,0,0.1,0.1,0.2c0.1,0,0.2,0,0.2-0.1L199.9,69.9C199.9,69.9,199.9,69.9,199.9,69.9z M205.3,78.4
		C205.3,78.4,205.3,78.4,205.3,78.4c0,0.1-0.1,0.1-0.2,0.1l-0.6-0.2c-0.1,0-0.1-0.1-0.1-0.2c0-0.1,0.1-0.1,0.2-0.1l0.6,0.2
		C205.3,78.3,205.3,78.3,205.3,78.4z M203.5,77.7C203.5,77.7,203.5,77.7,203.5,77.7c0,0.1-0.1,0.1-0.2,0.1l-1.9-0.7
		c-0.1,0-0.1-0.1-0.1-0.2c0-0.1,0.1-0.1,0.2-0.1l1.9,0.7C203.4,77.6,203.5,77.6,203.5,77.7z M200.7,82.6
		C200.7,82.5,200.7,82.5,200.7,82.6l-0.3-0.6c0-0.1-0.1-0.1-0.2-0.1c-0.1,0-0.1,0.1-0.1,0.2l0.2,0.6c0,0.1,0.1,0.1,0.2,0.1
		C200.7,82.7,200.7,82.6,200.7,82.6L200.7,82.6z M199.9,80.9C199.9,80.9,199.9,80.9,199.9,80.9l-0.8-1.8c0-0.1-0.1-0.1-0.2-0.1
		c-0.1,0-0.1,0.1-0.1,0.2l0.8,1.8c0,0.1,0.1,0.1,0.2,0.1C199.9,81,199.9,80.9,199.9,80.9z M200.3,75.5c-1.6,0-2.9,1.2-2.9,2.6V90
		c0,0.1-0.1,0.1-0.1,0.1s-0.1-0.1-0.1-0.1V78.2c0-1.3,0.9-2.4,2.2-2.8c-1.3-0.4-2.2-1.5-2.2-2.8V60.7c0-0.1,0.1-0.1,0.1-0.1
		s0.1,0.1,0.1,0.1v11.9c0,1.5,1.3,2.6,2.9,2.6C200.5,75.3,200.5,75.5,200.3,75.5z M187.4,87.4h-0.5l-0.1-0.4h-3.2l-0.1,0.4h-0.5
		v-1.7h0.5l0.1,0.4h3.2V85l-0.6,0v-0.6h1.3V87.4z M183.5,82.3h-0.5v-1.7h0.5l0.1,0.4h3.2l0.1-0.4h0.5v1.7h-0.5l-0.1-0.4h-3.2
		L183.5,82.3z M185.4,77.3h1.3v-0.8c0-0.2-0.1-0.4-0.2-0.5c-0.1-0.1-0.3-0.2-0.5-0.2c-0.2,0-0.4,0-0.5,0.1c-0.1,0.1-0.2,0.3-0.2,0.5
		C185.4,76.5,185.4,77.3,185.4,77.3z M184.8,77.3v-0.6c0-0.2,0-0.4-0.1-0.5c-0.1-0.1-0.2-0.2-0.4-0.2c-0.2,0-0.4,0.1-0.5,0.2
		c-0.1,0.1-0.1,0.3-0.1,0.5v0.6C183.6,77.3,184.8,77.3,184.8,77.3z M182.9,76.7c0-0.5,0.1-0.9,0.3-1.1c0.2-0.3,0.5-0.4,0.9-0.4
		c0.2,0,0.4,0.1,0.6,0.2c0.2,0.1,0.3,0.2,0.4,0.4c0.1-0.2,0.2-0.4,0.4-0.6c0.2-0.1,0.4-0.2,0.7-0.2c0.4,0,0.8,0.1,1,0.4
		c0.2,0.3,0.3,0.6,0.3,1.1v2h-0.5l-0.1-0.4h-3.2l-0.1,0.4h-0.5V76.7z M184.9,71.7v-0.6c0-0.2-0.1-0.4-0.2-0.5
		c-0.1-0.1-0.3-0.2-0.5-0.2c-0.2,0-0.4,0.1-0.5,0.2c-0.1,0.1-0.2,0.3-0.2,0.5v0.6H184.9L184.9,71.7z M182.9,71.2
		c0-0.5,0.1-0.8,0.4-1.1c0.2-0.3,0.6-0.4,1-0.4c0.2,0,0.4,0.1,0.6,0.2c0.2,0.1,0.3,0.3,0.4,0.5c0.1-0.2,0.2-0.4,0.4-0.5
		c0.2-0.1,0.4-0.2,0.7-0.2h0.2c0.1,0,0.2,0,0.2-0.1c0.1,0,0.1-0.1,0.1-0.2l0-0.1h0.5v0.4c0,0.3-0.1,0.5-0.2,0.6
		c-0.2,0.1-0.4,0.2-0.6,0.2h-0.3c-0.2,0-0.4,0.1-0.5,0.2c-0.1,0.1-0.2,0.3-0.2,0.4v0.7h1.2l0.1-0.4h0.5V73h-0.5l-0.1-0.4h-3.2
		l-0.1,0.4h-0.5V71.2L182.9,71.2z M185.6,65.9v-0.9l-1.6,0.5v0C184,65.4,185.6,65.9,185.6,65.9z M186.9,67.4l0-0.3l-3.9-1.2V65
		l3.9-1.2l0-0.3h0.5v1.4h-0.5l-0.1-0.3l-0.6,0.2v1.3l0.6,0.2l0.1-0.3h0.5v1.4C187.4,67.4,186.9,67.4,186.9,67.4z M186.3,93.3
		l-1.1,0.8l-1.1-0.8l1.1-0.8L186.3,93.3z M182.4,111.1L182.4,111.1c0,0.1,0.1,0.1,0.1,0.1h5.4c0.1,0,0.1-0.1,0.1-0.1
		c0-0.1-0.1-0.1-0.1-0.1h-2.5v-1.7l2-1.4c0,0,0.1-0.1,0.1-0.1c0,0,0-0.1,0-0.1c0-0.1-0.1-0.1-0.2,0l-1.8,1.2v-1.1l1.3-0.9
		c0,0,0.1-0.1,0.1-0.1c0,0,0-0.1-0.1-0.1l-1.4-1c-0.1,0-0.1,0-0.2,0l-1.4,1c-0.1,0-0.1,0.2,0,0.2l1.3,0.9v1.1l-1.8-1.2
		c-0.1,0-0.2,0-0.2,0c0,0.1,0,0.1,0,0.2l2,1.4v1.7h-2.5C182.4,111,182.4,111,182.4,111.1L182.4,111.1z M185.1,92.3l-1.4,1
		c0,0-0.1,0.1-0.1,0.1c0,0,0,0.1,0.1,0.1l1.4,1c0.1,0,0.1,0,0.2,0l1.4-1c0,0,0.1-0.1,0.1-0.1c0,0,0-0.1-0.1-0.1l-1.4-1
		C185.2,92.2,185.1,92.2,185.1,92.3z M186.3,106.8l-1.1,0.8l-1.1-0.8l1.1-0.8L186.3,106.8z M186.3,102.3l-1.1,0.8l-1.1-0.8l1.1-0.8
		L186.3,102.3z M183.7,102.2c-0.1,0-0.1,0.2,0,0.2l1.4,1c0,0,0.1,0,0.2,0l1.4-1c0,0,0.1-0.1,0.1-0.1c0,0,0-0.1-0.1-0.1l-1.4-1
		c-0.1,0-0.1,0-0.2,0L183.7,102.2z M186.3,97.8l-1.1,0.8l-1.1-0.8l1.1-0.8L186.3,97.8z M183.7,97.7c0,0-0.1,0.1-0.1,0.1
		c0,0,0,0.1,0.1,0.1l1.4,1c0,0,0.1,0,0.2,0l1.4-1c0,0,0.1-0.1,0.1-0.1c0,0,0-0.1-0.1-0.1l-1.4-1c-0.1,0-0.1,0-0.2,0L183.7,97.7z
		 M185.3,117.1v-1.2l1.1,1.3l-1.2,3.7l-1.2-3.7l1.1-1.3v1.2c0,0.1,0.1,0.1,0.1,0.1C185.3,117.2,185.3,117.2,185.3,117.1L185.3,117.1
		z M183.6,112.2c0,0.1,0.1,0.1,0.1,0.1h1.3v3.1l-1.4,1.6c0,0,0,0.1,0,0.1l1.4,4.2c0,0.1,0.1,0.1,0.1,0.1c0.1,0,0.1,0,0.1-0.1
		l1.4-4.2c0,0,0,0,0,0c0,0,0-0.1,0-0.1l-1.4-1.6v-3.1h1.3c0.1,0,0.1-0.1,0.1-0.1c0-0.1-0.1-0.1-0.1-0.1h-2.9
		C183.6,112.1,183.6,112.1,183.6,112.2z M185,118v0.1c0,0.1,0.1,0.1,0.1,0.1c0.1,0,0.1-0.1,0.1-0.1V118c0-0.1-0.1-0.1-0.1-0.1
		S185,118,185,118z M185.2,58.2l-1.1-0.8l1.1-0.8l1.1,0.8L185.2,58.2z M185.2,29.3L185.2,29.3c-0.1,0-0.1,0-0.1,0.1l-1.4,4.2
		c0,0,0,0.1,0,0.1l1.4,1.6v3.1h-1.3c-0.1,0-0.1,0.1-0.1,0.1s0.1,0.1,0.1,0.1h2.9c0.1,0,0.1-0.1,0.1-0.1s-0.1-0.1-0.1-0.1h-1.3v-3.1
		l1.4-1.6c0,0,0-0.1,0-0.1c0,0,0,0,0,0l-1.4-4.2C185.3,29.3,185.2,29.3,185.2,29.3z M182.4,39.7L182.4,39.7c0,0.1,0.1,0.1,0.1,0.1
		h2.5v1.7l-2,1.4c-0.1,0-0.1,0.1,0,0.2c0,0.1,0.1,0.1,0.2,0l1.8-1.2v1.1l-1.3,0.9c-0.1,0-0.1,0.2,0,0.2l1.4,1c0,0,0.1,0,0.2,0l1.4-1
		c0,0,0.1-0.1,0.1-0.1c0,0,0-0.1-0.1-0.1l-1.3-0.9v-1.1l1.8,1.2c0.1,0,0.2,0,0.2,0c0,0,0-0.1,0-0.1c0,0,0-0.1-0.1-0.1l-2-1.4v-1.7
		h2.5c0.1,0,0.1-0.1,0.1-0.1c0-0.1-0.1-0.1-0.1-0.1h-5.4C182.4,39.5,182.4,39.6,182.4,39.7L182.4,39.7z M185.3,58.5l1.4-1
		c0,0,0.1-0.1,0.1-0.1c0,0,0-0.1-0.1-0.1l-1.4-1c-0.1,0-0.1,0-0.2,0l-1.4,1c0,0-0.1,0.1-0.1,0.1c0,0,0,0.1,0.1,0.1l1.4,1
		C185.1,58.5,185.2,58.5,185.3,58.5z M185.2,44.7l-1.1-0.8l1.1-0.8l1.1,0.8L185.2,44.7z M185.2,49.2l-1.1-0.8l1.1-0.8l1.1,0.8
		L185.2,49.2z M185.1,49.5c0,0,0.1,0,0.2,0l1.4-1c0,0,0.1-0.1,0.1-0.1c0,0,0-0.1-0.1-0.1l-1.4-1c-0.1,0-0.1,0-0.2,0l-1.4,1
		c-0.1,0-0.1,0.2,0,0.2L185.1,49.5z M185.2,53.7l-1.1-0.8l1.1-0.8l1.1,0.8L185.2,53.7z M185.1,54c0,0,0.1,0,0.2,0l1.4-1
		c0,0,0.1-0.1,0.1-0.1c0,0,0-0.1-0.1-0.1l-1.4-1c-0.1,0-0.1,0-0.2,0l-1.4,1c0,0-0.1,0.1-0.1,0.1c0,0,0,0.1,0.1,0.1L185.1,54z
		 M185.2,33.5c-0.1,0-0.1,0.1-0.1,0.1v1.2l-1.1-1.3l1.2-3.7l1.2,3.7l-1.1,1.3v-1.2C185.3,33.6,185.3,33.5,185.2,33.5z M185.2,32.8
		c0.1,0,0.1-0.1,0.1-0.1v-0.1c0-0.1-0.1-0.1-0.1-0.1s-0.1,0.1-0.1,0.1v0.1C185,32.8,185.1,32.8,185.2,32.8z M7.4,79.5v-1.4h0.4
		c0.1,0,0.1-0.1,0.1-0.1c0-0.1-0.1-0.1-0.1-0.1H7.4v-1.4c0-0.1-0.1-0.1-0.1-0.1c-0.1,0-0.1,0.1-0.1,0.1v1.4H6.7
		c-0.1,0-0.1,0.1-0.1,0.1c0,0.1,0.1,0.1,0.1,0.1h0.4v1.4c0,0.1,0.1,0.1,0.1,0.1C7.3,79.6,7.4,79.6,7.4,79.5z M5.9,136l-0.2-0.4
		c0-0.1-0.1-0.1-0.2-0.1c-0.1,0-0.1,0.1-0.1,0.2l0.2,0.4c0,0.1,0.1,0.1,0.2,0.1C5.9,136.2,6,136.1,5.9,136L5.9,136z M7.3,139
		l-0.8-1.8c0-0.1-0.1-0.1-0.2-0.1c-0.1,0-0.1,0.1-0.1,0.2l0.8,1.8c0,0.1,0.1,0.1,0.2,0.1C7.3,139.1,7.3,139.1,7.3,139z M16.3,145.8
		l0.5,0.2c0.1,0,0.2,0,0.2-0.1c0-0.1,0-0.1-0.1-0.2l-0.5-0.2c-0.1,0-0.2,0-0.2,0.1C16.2,145.7,16.2,145.8,16.3,145.8z M13,144.6
		l2,0.7c0.1,0,0.2,0,0.2-0.1c0-0.1,0-0.1-0.1-0.2l-2-0.7c-0.1,0-0.2,0-0.2,0.1C12.9,144.5,12.9,144.5,13,144.6L13,144.6z
		 M12.1,136.1l0.3-0.6c0-0.1,0-0.1-0.1-0.2c-0.1,0-0.2,0-0.2,0.1l-0.3,0.6c0,0.1,0,0.1,0.1,0.2C12,136.2,12.1,136.2,12.1,136.1z
		 M10.7,139.1l0.8-1.8c0-0.1,0-0.1-0.1-0.2c-0.1,0-0.2,0-0.2,0.1l-0.8,1.8c0,0.1,0,0.1,0.1,0.2C10.6,139.2,10.7,139.2,10.7,139.1z
		 M16.4,140.2l0.6-0.2c0.1,0,0.1-0.1,0.1-0.2c0-0.1-0.1-0.1-0.2-0.1l-0.6,0.2c-0.1,0-0.1,0.1-0.1,0.2
		C16.2,140.2,16.3,140.2,16.4,140.2L16.4,140.2z M13.1,141.4l2-0.7c0.1,0,0.1-0.1,0.1-0.2c0-0.1-0.1-0.1-0.2-0.1l-2,0.7
		c-0.1,0-0.1,0.1-0.1,0.2C13,141.4,13.1,141.4,13.1,141.4z M9,137.4v-2.4c0-0.1-0.1-0.1-0.1-0.1c-0.1,0-0.1,0.1-0.1,0.1v2.4
		c0,0.1,0.1,0.1,0.1,0.1C9,137.5,9,137.4,9,137.4z M14.9,143h2.7c0.1,0,0.1-0.1,0.1-0.1c0-0.1-0.1-0.1-0.1-0.1h-2.7
		c-0.1,0-0.1,0.1-0.1,0.1S14.9,143,14.9,143z M13.3,139.1l1.9-1.7c0.1-0.1,0.1-0.1,0-0.2c-0.1-0.1-0.1-0.1-0.2,0l-1.9,1.7
		c-0.1,0.1-0.1,0.1,0,0.2C13.1,139.1,13.2,139.1,13.3,139.1z M9.7,142.1c-0.4-0.4-0.7-0.8-0.9-1.3c-0.2,0.5-0.5,0.9-0.9,1.3
		c-0.4,0.4-0.9,0.6-1.4,0.8c0.6,0.2,1,0.4,1.4,0.8c0.4,0.4,0.7,0.8,0.9,1.3c0.2-0.5,0.5-0.9,0.9-1.3c0.4-0.4,0.9-0.6,1.4-0.8
		C10.6,142.7,10.1,142.4,9.7,142.1z M9,140c0-0.2-0.3-0.2-0.3,0c0,0.7-0.4,1.4-0.9,1.9c-0.5,0.5-1.3,0.8-2.1,0.8
		c-0.2,0-0.2,0.3,0,0.3c0.8,0,1.5,0.3,2.1,0.8c0.5,0.5,0.9,1.2,0.9,1.9c0,0.2,0.3,0.2,0.3,0c0-0.7,0.4-1.4,0.9-1.9
		c0.5-0.5,1.3-0.8,2.1-0.8c0.2,0,0.2-0.3,0-0.3c-0.8,0-1.5-0.3-2.1-0.8C9.4,141.4,9.1,140.7,9,140z M26.3,141l-1.6-1.4l-1.6,1.4
		C23.1,141,26.3,141,26.3,141z M30.1,141l-1.6-1.4L27,141H30.1z M34,141l-1.6-1.4l-1.6,1.4C30.8,141,34,141,34,141z M37.8,141
		l-1.6-1.4l-1.6,1.4H37.8z M41.6,141l-1.6-1.4l-1.6,1.4C38.5,141,41.6,141,41.6,141z M45.5,141l-1.6-1.4l-1.6,1.4
		C42.3,141,45.5,141,45.5,141z M49.3,141l-1.6-1.4l-1.6,1.4H49.3z M53.2,141l-1.6-1.4L50,141C50,141,53.2,141,53.2,141z M57,141
		l-1.6-1.4l-1.6,1.4H57z M60.9,141l-1.6-1.4l-1.6,1.4H60.9z M64.7,141l-1.6-1.4l-1.6,1.4H64.7z M68.5,141l-1.6-1.4l-1.6,1.4H68.5z
		 M72.4,141l-1.6-1.4l-1.6,1.4H72.4z M76.2,141l-1.6-1.4l-1.6,1.4H76.2z M80.1,141l-1.6-1.4l-1.6,1.4H80.1z M8.7,130v-5.2h-3v5.2
		H8.7z M7.1,125.8v1.4H6.7c-0.1,0-0.1,0.1-0.1,0.1c0,0.1,0.1,0.1,0.1,0.1h0.4v1.4c0,0.1,0.1,0.1,0.1,0.1c0.1,0,0.1-0.1,0.1-0.1v-1.4
		h0.4c0.1,0,0.1-0.1,0.1-0.1c0-0.1-0.1-0.1-0.1-0.1H7.4v-1.4c0-0.1-0.1-0.1-0.1-0.1C7.2,125.7,7.1,125.8,7.1,125.8z M8.7,124.5v-5.2
		h-3v5.2H8.7z M7.4,123.5v-1.4h0.4c0.1,0,0.1-0.1,0.1-0.1c0-0.1-0.1-0.1-0.1-0.1H7.4v-1.4c0-0.1-0.1-0.1-0.1-0.1
		c-0.1,0-0.1,0.1-0.1,0.1v1.4H6.7c-0.1,0-0.1,0.1-0.1,0.1c0,0.1,0.1,0.1,0.1,0.1h0.4v1.4c0,0.1,0.1,0.1,0.1,0.1
		C7.3,123.6,7.4,123.6,7.4,123.5z M8.7,119.1v-5.2h-3v5.2H8.7z M8.7,113.6v-5.2h-3v5.2H8.7z M7.4,112.5v-1.4h0.4
		c0.1,0,0.1-0.1,0.1-0.1c0-0.1-0.1-0.1-0.1-0.1H7.4v-1.4c0-0.1-0.1-0.1-0.1-0.1c-0.1,0-0.1,0.1-0.1,0.1v1.4H6.7
		c-0.1,0-0.1,0.1-0.1,0.1c0,0.1,0.1,0.1,0.1,0.1h0.4v1.4c0,0.1,0.1,0.1,0.1,0.1C7.3,112.7,7.4,112.6,7.4,112.5z M7.1,114.9v1.4H6.7
		c-0.1,0-0.1,0.1-0.1,0.1c0,0.1,0.1,0.1,0.1,0.1h0.4v1.4c0,0.1,0.1,0.1,0.1,0.1c0.1,0,0.1-0.1,0.1-0.1v-1.4h0.4
		c0.1,0,0.1-0.1,0.1-0.1c0-0.1-0.1-0.1-0.1-0.1H7.4v-1.4c0-0.1-0.1-0.1-0.1-0.1C7.2,114.7,7.1,114.8,7.1,114.9z M8.7,91.6v-5.2h-3
		v5.2C5.7,91.6,8.7,91.6,8.7,91.6z M7.4,90.6v-1.4h0.4c0.1,0,0.1-0.1,0.1-0.1c0-0.1-0.1-0.1-0.1-0.1H7.4v-1.4c0-0.1-0.1-0.1-0.1-0.1
		c-0.1,0-0.1,0.1-0.1,0.1v1.4H6.7c-0.1,0-0.1,0.1-0.1,0.1c0,0.1,0.1,0.1,0.1,0.1h0.4v1.4c0,0.1,0.1,0.1,0.1,0.1
		C7.3,90.7,7.4,90.6,7.4,90.6z M8.7,97.1v-5.2h-3v5.2H8.7z M7.1,92.9v1.4H6.7c-0.1,0-0.1,0.1-0.1,0.1c0,0.1,0.1,0.1,0.1,0.1h0.4v1.4
		c0,0.1,0.1,0.1,0.1,0.1c0.1,0,0.1-0.1,0.1-0.1v-1.4h0.4c0.1,0,0.1-0.1,0.1-0.1c0-0.1-0.1-0.1-0.1-0.1H7.4v-1.4
		c0-0.1-0.1-0.1-0.1-0.1C7.2,92.8,7.1,92.8,7.1,92.9z M8.7,108.1v-5.2h-3v5.2H8.7z M8.7,102.6v-5.2h-3v5.2H8.7z M7.1,103.9v1.4H6.7
		c-0.1,0-0.1,0.1-0.1,0.1c0,0.1,0.1,0.1,0.1,0.1h0.4v1.4c0,0.1,0.1,0.1,0.1,0.1c0.1,0,0.1-0.1,0.1-0.1v-1.4h0.4
		c0.1,0,0.1-0.1,0.1-0.1c0-0.1-0.1-0.1-0.1-0.1H7.4v-1.4c0-0.1-0.1-0.1-0.1-0.1C7.2,103.8,7.1,103.8,7.1,103.9z M7.4,101.5v-1.4h0.4
		c0.1,0,0.1-0.1,0.1-0.1c0-0.1-0.1-0.1-0.1-0.1H7.4v-1.4c0-0.1-0.1-0.1-0.1-0.1c-0.1,0-0.1,0.1-0.1,0.1v1.4H6.7
		c-0.1,0-0.1,0.1-0.1,0.1c0,0.1,0.1,0.1,0.1,0.1h0.4v1.4c0,0.1,0.1,0.1,0.1,0.1C7.3,101.7,7.4,101.6,7.4,101.5z M17.9,130.9l4-5.4
		c0-0.1,0-0.1,0-0.2c-0.1,0-0.2,0-0.2,0l-4,5.4c0,0.1,0,0.1,0,0.2C17.7,130.9,17.8,130.9,17.9,130.9z M24.8,127.7
		c0,0.2,0.1,0.3,0.2,0.5c0.1,0.1,0.3,0.2,0.5,0.2c0.2,0,0.4-0.1,0.5-0.2c0.1-0.1,0.2-0.3,0.2-0.5c0-0.2-0.1-0.3-0.2-0.5
		c-0.1-0.1-0.3-0.2-0.5-0.2c-0.2,0-0.4,0.1-0.5,0.2C24.9,127.4,24.8,127.5,24.8,127.7L24.8,127.7z M20.3,132.7l4.6-4.2
		c0.2,0.1,0.4,0.2,0.6,0.2c0.3,0,0.5-0.1,0.7-0.3c0.2-0.2,0.3-0.4,0.3-0.7c0-0.3-0.1-0.5-0.3-0.7c-0.2-0.2-0.4-0.3-0.7-0.3
		c-0.3,0-0.5,0.1-0.7,0.3c-0.2,0.2-0.3,0.4-0.3,0.7c0,0.2,0.1,0.4,0.2,0.6l-4.7,4.2c-0.1,0.1-0.1,0.1,0,0.2
		C20.1,132.7,20.2,132.7,20.3,132.7L20.3,132.7z M15.8,126c0,0.2,0.1,0.3,0.2,0.5c0.1,0.1,0.3,0.2,0.5,0.2c0.2,0,0.4-0.1,0.5-0.2
		c0.1-0.1,0.2-0.3,0.2-0.5c0-0.2-0.1-0.3-0.2-0.5s-0.3-0.2-0.5-0.2c-0.2,0-0.4,0.1-0.5,0.2C15.9,125.6,15.8,125.8,15.8,126z
		 M15.1,129.5l1.2-2.6c0.1,0,0.2,0,0.3,0c0.3,0,0.5-0.1,0.7-0.3c0.2-0.2,0.3-0.4,0.3-0.7c0-0.3-0.1-0.5-0.3-0.7
		c-0.2-0.2-0.4-0.3-0.7-0.3c-0.3,0-0.5,0.1-0.7,0.3c-0.2,0.2-0.3,0.4-0.3,0.7c0,0.3,0.1,0.5,0.3,0.7c0.1,0.1,0.1,0.1,0.2,0.1
		l-1.2,2.6c0,0.1,0,0.1,0.1,0.2C15,129.6,15.1,129.6,15.1,129.5z M22.2,134.9l5.9-3.6c0.1,0,0.1-0.1,0-0.2c0-0.1-0.1-0.1-0.2,0
		l-5.9,3.6c-0.1,0-0.1,0.1,0,0.2C22.1,134.9,22.2,134.9,22.2,134.9L22.2,134.9z M26.9,136.3c0.1,0.1,0.3,0.2,0.5,0.2
		c0.2,0,0.4-0.1,0.5-0.2c0.1-0.1,0.2-0.3,0.2-0.5s-0.1-0.3-0.2-0.5c-0.1-0.1-0.3-0.2-0.5-0.2c-0.2,0-0.4,0.1-0.5,0.2
		c-0.1,0.1-0.2,0.3-0.2,0.5C26.7,136.1,26.8,136.2,26.9,136.3L26.9,136.3z M23.7,137.4l2.9-1.1c0,0.1,0.1,0.1,0.2,0.2
		c0.2,0.2,0.4,0.3,0.7,0.3c0.3,0,0.5-0.1,0.7-0.3s0.3-0.4,0.3-0.7c0-0.3-0.1-0.5-0.3-0.7c-0.2-0.2-0.4-0.3-0.7-0.3
		c-0.3,0-0.5,0.1-0.7,0.3c-0.2,0.2-0.3,0.4-0.3,0.7c0,0.1,0,0.2,0,0.2l-2.9,1.1c-0.1,0-0.1,0.1-0.1,0.2
		C23.5,137.4,23.6,137.5,23.7,137.4L23.7,137.4z M28.7,145.7V143H23v2.7C23,145.7,28.7,145.7,28.7,145.7z M27.6,144.2H26v-0.4
		c0-0.1-0.1-0.1-0.1-0.1c-0.1,0-0.1,0.1-0.1,0.1v0.4h-1.6c-0.1,0-0.1,0.1-0.1,0.1c0,0.1,0.1,0.1,0.1,0.1h1.6v0.4
		c0,0.1,0.1,0.1,0.1,0.1c0.1,0,0.1-0.1,0.1-0.1v-0.4h1.6c0.1,0,0.1-0.1,0.1-0.1C27.7,144.3,27.7,144.2,27.6,144.2z M34.8,145.7V143
		H29v2.7H34.8z M30.2,144.5h1.6v0.4c0,0.1,0.1,0.1,0.1,0.1c0.1,0,0.1-0.1,0.1-0.1v-0.4h1.6c0.1,0,0.1-0.1,0.1-0.1
		c0-0.1-0.1-0.1-0.1-0.1H32v-0.4c0-0.1-0.1-0.1-0.1-0.1c-0.1,0-0.1,0.1-0.1,0.1v0.4h-1.6c-0.1,0-0.1,0.1-0.1,0.1
		C30,144.4,30.1,144.5,30.2,144.5z M46.8,145.7V143h-5.7v2.7H46.8z M40.8,145.7V143H35v2.7C35,145.7,40.8,145.7,40.8,145.7z
		 M42.2,144.5h1.6v0.4c0,0.1,0.1,0.1,0.1,0.1c0.1,0,0.1-0.1,0.1-0.1v-0.4h1.6c0.1,0,0.1-0.1,0.1-0.1c0-0.1-0.1-0.1-0.1-0.1h-1.6
		v-0.4c0-0.1-0.1-0.1-0.1-0.1c-0.1,0-0.1,0.1-0.1,0.1v0.4h-1.6c-0.1,0-0.1,0.1-0.1,0.1C42.1,144.4,42.1,144.5,42.2,144.5z
		 M39.6,144.2h-1.6v-0.4c0-0.1-0.1-0.1-0.1-0.1s-0.1,0.1-0.1,0.1v0.4h-1.6c-0.1,0-0.1,0.1-0.1,0.1c0,0.1,0.1,0.1,0.1,0.1h1.6v0.4
		c0,0.1,0.1,0.1,0.1,0.1c0.1,0,0.1-0.1,0.1-0.1v-0.4h1.6c0.1,0,0.1-0.1,0.1-0.1C39.8,144.3,39.7,144.2,39.6,144.2z M70.9,145.7V143
		h-5.7v2.7H70.9z M66.3,144.5h1.6v0.4c0,0.1,0.1,0.1,0.1,0.1c0.1,0,0.1-0.1,0.1-0.1v-0.4h1.6c0.1,0,0.1-0.1,0.1-0.1
		c0-0.1-0.1-0.1-0.1-0.1h-1.6v-0.4c0-0.1-0.1-0.1-0.1-0.1c-0.1,0-0.1,0.1-0.1,0.1v0.4h-1.6c-0.1,0-0.1,0.1-0.1,0.1
		C66.2,144.4,66.3,144.5,66.3,144.5z M64.9,145.7V143h-5.7v2.7H64.9z M63.8,144.2h-1.6v-0.4c0-0.1-0.1-0.1-0.1-0.1
		c-0.1,0-0.1,0.1-0.1,0.1v0.4h-1.6c-0.1,0-0.1,0.1-0.1,0.1c0,0.1,0.1,0.1,0.1,0.1h1.6v0.4c0,0.1,0.1,0.1,0.1,0.1
		c0.1,0,0.1-0.1,0.1-0.1v-0.4h1.6c0.1,0,0.1-0.1,0.1-0.1C63.9,144.3,63.9,144.2,63.8,144.2z M58.9,145.7V143h-5.7v2.7H58.9z
		 M52.9,145.7V143h-5.7v2.7H52.9z M51.7,144.2h-1.6v-0.4c0-0.1-0.1-0.1-0.1-0.1c-0.1,0-0.1,0.1-0.1,0.1v0.4h-1.6
		c-0.1,0-0.1,0.1-0.1,0.1c0,0.1,0.1,0.1,0.1,0.1h1.6v0.4c0,0.1,0.1,0.1,0.1,0.1c0.1,0,0.1-0.1,0.1-0.1v-0.4h1.6
		c0.1,0,0.1-0.1,0.1-0.1C51.9,144.3,51.8,144.2,51.7,144.2z M54.3,144.5h1.6v0.4c0,0.1,0.1,0.1,0.1,0.1c0.1,0,0.1-0.1,0.1-0.1v-0.4
		h1.6c0.1,0,0.1-0.1,0.1-0.1c0-0.1-0.1-0.1-0.1-0.1h-1.6v-0.4c0-0.1-0.1-0.1-0.1-0.1c-0.1,0-0.1,0.1-0.1,0.1v0.4h-1.6
		c-0.1,0-0.1,0.1-0.1,0.1C54.1,144.4,54.2,144.5,54.3,144.5z M101.1,145.7V143h-5.7v2.7H101.1z M100,144.2h-1.6v-0.4
		c0-0.1-0.1-0.1-0.1-0.1c-0.1,0-0.1,0.1-0.1,0.1v0.4h-1.6c-0.1,0-0.1,0.1-0.1,0.1c0,0.1,0.1,0.1,0.1,0.1h1.6v0.4
		c0,0.1,0.1,0.1,0.1,0.1s0.1-0.1,0.1-0.1v-0.4h1.6c0.1,0,0.1-0.1,0.1-0.1C100.1,144.3,100,144.2,100,144.2z M77,145.7V143h-5.7v2.7
		H77z M75.8,144.2h-1.6v-0.4c0-0.1-0.1-0.1-0.1-0.1c-0.1,0-0.1,0.1-0.1,0.1v0.4h-1.6c-0.1,0-0.1,0.1-0.1,0.1c0,0.1,0.1,0.1,0.1,0.1
		H74v0.4c0,0.1,0.1,0.1,0.1,0.1c0.1,0,0.1-0.1,0.1-0.1v-0.4h1.6c0.1,0,0.1-0.1,0.1-0.1C76,144.3,75.9,144.2,75.8,144.2z M83,145.7
		V143h-5.7v2.7H83z M78.4,144.5H80v0.4c0,0.1,0.1,0.1,0.1,0.1s0.1-0.1,0.1-0.1v-0.4h1.6c0.1,0,0.1-0.1,0.1-0.1
		c0-0.1-0.1-0.1-0.1-0.1h-1.6v-0.4c0-0.1-0.1-0.1-0.1-0.1c-0.1,0-0.1,0.1-0.1,0.1v0.4h-1.6c-0.1,0-0.1,0.1-0.1,0.1
		C78.3,144.4,78.3,144.5,78.4,144.5z M95.1,145.7V143h-5.7v2.7H95.1z M89,145.7V143h-5.7v2.7H89z M90.5,144.5h1.6v0.4
		c0,0.1,0.1,0.1,0.1,0.1c0.1,0,0.1-0.1,0.1-0.1v-0.4h1.6c0.1,0,0.1-0.1,0.1-0.1c0-0.1-0.1-0.1-0.1-0.1h-1.6v-0.4
		c0-0.1-0.1-0.1-0.1-0.1c-0.1,0-0.1,0.1-0.1,0.1v0.4h-1.6c-0.1,0-0.1,0.1-0.1,0.1C90.3,144.4,90.4,144.5,90.5,144.5z M87.9,144.2
		h-1.6v-0.4c0-0.1-0.1-0.1-0.1-0.1c-0.1,0-0.1,0.1-0.1,0.1v0.4h-1.6c-0.1,0-0.1,0.1-0.1,0.1c0,0.1,0.1,0.1,0.1,0.1H86v0.4
		c0,0.1,0.1,0.1,0.1,0.1c0.1,0,0.1-0.1,0.1-0.1v-0.4h1.6c0.1,0,0.1-0.1,0.1-0.1C88,144.3,88,144.2,87.9,144.2z M5.7,145.9l0.6-0.6
		c0.1-0.1,0.1-0.1,0-0.2c-0.1-0.1-0.1-0.1-0.2,0l-0.6,0.6c-0.1,0.1-0.1,0.1,0,0.2C5.5,146,5.6,146,5.7,145.9L5.7,145.9z M10.9,129.9
		l1.6-1.4l-1.6-1.4V129.9z M10.9,126.5l1.6-1.4l-1.6-1.4V126.5L10.9,126.5z M10.9,123l1.6-1.4l-1.6-1.4V123z M10.9,119.6l1.6-1.4
		l-1.6-1.4V119.6z M10.9,116.1l1.6-1.4l-1.6-1.4V116.1z M10.9,112.7l1.6-1.4l-1.6-1.4C10.9,109.9,10.9,112.7,10.9,112.7z M10.9,98.9
		l1.6-1.4l-1.6-1.4C10.9,96.1,10.9,98.9,10.9,98.9z M10.9,102.4l1.6-1.4l-1.6-1.4C10.9,99.5,10.9,102.4,10.9,102.4z M10.9,105.8
		l1.6-1.4l-1.6-1.4C10.9,103,10.9,105.8,10.9,105.8z M10.9,109.2l1.6-1.4l-1.6-1.4C10.9,106.4,10.9,109.2,10.9,109.2z M10.9,95.5
		l1.6-1.4l-1.6-1.4C10.9,92.6,10.9,95.5,10.9,95.5z M10.9,92l1.6-1.4l-1.6-1.4C10.9,89.2,10.9,92,10.9,92z M8.7,86.1v-5.2h-3v5.2
		H8.7z M8.7,80.6v-5.4h-3v5.4H8.7z M7.1,81.9v1.4H6.7c-0.1,0-0.1,0.1-0.1,0.1s0.1,0.1,0.1,0.1h0.4v1.4c0,0.1,0.1,0.1,0.1,0.1
		c0.1,0,0.1-0.1,0.1-0.1v-1.4h0.4c0.1,0,0.1-0.1,0.1-0.1c0-0.1-0.1-0.1-0.1-0.1H7.4v-1.4c0-0.1-0.1-0.1-0.1-0.1
		C7.2,81.8,7.1,81.9,7.1,81.9z M112.7,145.7V143H107v2.7H112.7z M106.7,145.7V143h-5.3v2.7H106.7z M108.1,144.5h1.6v0.4
		c0,0.1,0.1,0.1,0.1,0.1s0.1-0.1,0.1-0.1v-0.4h1.6c0.1,0,0.1-0.1,0.1-0.1c0-0.1-0.1-0.1-0.1-0.1H110v-0.4c0-0.1-0.1-0.1-0.1-0.1
		c-0.1,0-0.1,0.1-0.1,0.1v0.4h-1.6c-0.1,0-0.1,0.1-0.1,0.1C108,144.4,108,144.5,108.1,144.5z M105.5,144.2h-1.3v-0.4
		c0-0.1,0-0.1-0.1-0.1l0,0l0,0l0,0l0,0l0,0h0l0,0l0,0h0h0h0l0,0l0,0h0l0,0l0,0l0,0l0,0l0,0c-0.1,0-0.1,0.1-0.1,0.1v0.4h-1.3
		c-0.1,0-0.1,0.1-0.1,0.1c0,0.1,0.1,0.1,0.1,0.1h1.3v0.4c0,0.1,0,0.1,0.1,0.1l0,0l0,0l0,0l0,0l0,0l0,0h0h0v0h0l0,0h0l0,0l0,0l0,0
		l0,0l0,0l0,0c0.1,0,0.1-0.1,0.1-0.1v-0.4h1.3c0.1,0,0.1-0.1,0.1-0.1C105.7,144.3,105.6,144.2,105.5,144.2z M118.7,145.7V143H113
		v2.7H118.7z M117.6,144.2H116v-0.4c0-0.1-0.1-0.1-0.1-0.1c-0.1,0-0.1,0.1-0.1,0.1v0.4h-1.6c-0.1,0-0.1,0.1-0.1,0.1
		c0,0.1,0.1,0.1,0.1,0.1h1.6v0.4c0,0.1,0.1,0.1,0.1,0.1c0.1,0,0.1-0.1,0.1-0.1v-0.4h1.6c0.1,0,0.1-0.1,0.1-0.1
		C117.7,144.3,117.7,144.2,117.6,144.2z M10.9,88.6l1.6-1.4l-1.6-1.4C10.9,85.8,10.9,88.6,10.9,88.6z M10.9,85.1l1.6-1.4l-1.6-1.4
		C10.9,82.3,10.9,85.1,10.9,85.1z M10.9,81.7l1.6-1.4l-1.6-1.4C10.9,78.9,10.9,81.7,10.9,81.7z M10.9,78.2l1.6-1.4l-1.6-1.4
		C10.9,75.4,10.9,78.2,10.9,78.2z M87.7,141l-1.6-1.4l-1.6,1.4H87.7z M91.6,141l-1.6-1.4l-1.6,1.4H91.6z M95.4,141l-1.6-1.4
		l-1.6,1.4H95.4z M99.3,141l-1.6-1.4l-1.6,1.4H99.3z M103.1,141l-1.6-1.4L100,141H103.1z M107,141l-1.6-1.4l-1.6,1.4H107z
		 M118.5,141l-1.6-1.4l-1.6,1.4H118.5z M114.6,141l-1.6-1.4l-1.6,1.4H114.6z M110.8,141l-1.6-1.4l-1.6,1.4H110.8z M7.4,70.7
		c0-0.1-0.1-0.1-0.1-0.1c-0.1,0-0.1,0.1-0.1,0.1v1.4H6.7c-0.1,0-0.1,0.1-0.1,0.1c0,0.1,0.1,0.1,0.1,0.1h0.4v1.4
		c0,0.1,0.1,0.1,0.1,0.1c0.1,0,0.1-0.1,0.1-0.1v-1.4h0.4c0.1,0,0.1-0.1,0.1-0.1s-0.1-0.1-0.1-0.1H7.4V70.7z M5.9,14.2
		c0-0.1,0-0.1-0.1-0.2c-0.1,0-0.2,0-0.2,0.1l-0.2,0.4c0,0.1,0,0.1,0.1,0.2c0.1,0,0.2,0,0.2-0.1L5.9,14.2z M7.3,11.3
		c0-0.1,0-0.1-0.1-0.2c-0.1,0-0.2,0-0.2,0.1L6.2,13c0,0.1,0,0.1,0.1,0.2c0.1,0,0.2,0,0.2-0.1L7.3,11.3z M16.3,4.4
		c-0.1,0-0.1,0.1-0.1,0.2c0,0.1,0.1,0.1,0.2,0.1l0.5-0.2c0.1,0,0.1-0.1,0.1-0.2c0-0.1-0.1-0.1-0.2-0.1L16.3,4.4z M13,5.7
		c-0.1,0-0.1,0.1-0.1,0.2c0,0.1,0.1,0.1,0.2,0.1l2-0.7c0.1,0,0.1-0.1,0.1-0.2c0-0.1-0.1-0.1-0.2-0.1C15,4.9,13,5.7,13,5.7z
		 M12.1,14.1c0-0.1-0.1-0.1-0.2-0.1c-0.1,0-0.1,0.1-0.1,0.2l0.3,0.6c0,0.1,0.1,0.1,0.2,0.1c0.1,0,0.1-0.1,0.1-0.2
		C12.3,14.7,12.1,14.1,12.1,14.1z M10.7,11.2c0-0.1-0.1-0.1-0.2-0.1c-0.1,0-0.1,0.1-0.1,0.2l0.8,1.8c0,0.1,0.1,0.1,0.2,0.1
		c0.1,0,0.1-0.1,0.1-0.2L10.7,11.2z M16.4,10.1c-0.1,0-0.2,0-0.2,0.1c0,0.1,0,0.1,0.1,0.2l0.6,0.2c0.1,0,0.2,0,0.2-0.1
		c0-0.1,0-0.1-0.1-0.2C17,10.3,16.4,10.1,16.4,10.1z M13.1,8.8c-0.1,0-0.2,0-0.2,0.1c0,0.1,0,0.1,0.1,0.2l2,0.7c0.1,0,0.2,0,0.2-0.1
		c0-0.1,0-0.1-0.1-0.2C15.1,9.6,13.1,8.8,13.1,8.8z M9,12.9c0-0.1-0.1-0.1-0.1-0.1c-0.1,0-0.1,0.1-0.1,0.1v2.4
		c0,0.1,0.1,0.1,0.1,0.1C9,15.4,9,15.4,9,15.3C9,15.3,9,12.9,9,12.9z M14.9,7.2c-0.1,0-0.1,0.1-0.1,0.1c0,0.1,0.1,0.1,0.1,0.1h2.7
		c0.1,0,0.1-0.1,0.1-0.1c0-0.1-0.1-0.1-0.1-0.1C17.6,7.2,14.9,7.2,14.9,7.2z M13.3,11.2c-0.1-0.1-0.1-0.1-0.2,0
		c-0.1,0.1-0.1,0.1,0,0.2l1.9,1.7c0.1,0.1,0.1,0.1,0.2,0c0.1-0.1,0.1-0.1,0-0.2C15.1,12.9,13.3,11.2,13.3,11.2z M9.7,8.2
		c0.4-0.4,0.9-0.6,1.4-0.8c-0.6-0.2-1-0.4-1.4-0.8C9.3,6.2,9,5.8,8.9,5.3C8.7,5.8,8.4,6.2,8,6.6C7.6,7,7.1,7.2,6.6,7.4
		c0.6,0.2,1,0.4,1.4,0.8C8.4,8.5,8.7,9,8.9,9.5C9,9,9.3,8.5,9.7,8.2z M9,10.2c0-0.7,0.4-1.4,0.9-1.9c0.5-0.5,1.3-0.8,2.1-0.8
		c0.2,0,0.2-0.3,0-0.3c-0.8,0-1.5-0.3-2.1-0.8C9.4,5.9,9.1,5.2,9,4.5c0-0.2-0.3-0.2-0.3,0c0,0.7-0.4,1.4-0.9,1.9
		C7.3,6.9,6.5,7.2,5.7,7.2c-0.2,0-0.2,0.3,0,0.3c0.8,0,1.5,0.3,2.1,0.8c0.5,0.5,0.9,1.2,0.9,1.9C8.7,10.4,9,10.4,9,10.2z M26.3,9.3
		h-3.1l1.6,1.4C24.7,10.7,26.3,9.3,26.3,9.3z M30.1,9.3H27l1.6,1.4L30.1,9.3z M34,9.3h-3.1l1.6,1.4C32.4,10.7,34,9.3,34,9.3z
		 M37.8,9.3h-3.1l1.6,1.4L37.8,9.3z M41.6,9.3h-3.1l1.6,1.4C40.1,10.7,41.6,9.3,41.6,9.3z M45.5,9.3h-3.1l1.6,1.4
		C43.9,10.7,45.5,9.3,45.5,9.3z M49.3,9.3h-3.1l1.6,1.4L49.3,9.3z M53.2,9.3H50l1.6,1.4C51.6,10.7,53.2,9.3,53.2,9.3z M57,9.3h-3.1
		l1.6,1.4L57,9.3z M60.9,9.3h-3.1l1.6,1.4L60.9,9.3z M64.7,9.3h-3.1l1.6,1.4L64.7,9.3z M68.5,9.3h-3.1l1.6,1.4L68.5,9.3z M72.4,9.3
		h-3.1l1.6,1.4L72.4,9.3z M76.2,9.3h-3.1l1.6,1.4L76.2,9.3z M80.1,9.3h-3.1l1.6,1.4L80.1,9.3z M8.7,25.4v-5.2h-3v5.2H8.7z M7.1,24.4
		c0,0.1,0.1,0.1,0.1,0.1c0.1,0,0.1-0.1,0.1-0.1V23h0.4c0.1,0,0.1-0.1,0.1-0.1c0-0.1-0.1-0.1-0.1-0.1H7.4v-1.4c0-0.1-0.1-0.1-0.1-0.1
		c-0.1,0-0.1,0.1-0.1,0.1v1.4H6.7c-0.1,0-0.1,0.1-0.1,0.1c0,0.1,0.1,0.1,0.1,0.1h0.4V24.4z M8.7,30.9v-5.2h-3v5.2H8.7z M7.4,26.7
		c0-0.1-0.1-0.1-0.1-0.1c-0.1,0-0.1,0.1-0.1,0.1v1.4H6.7c-0.1,0-0.1,0.1-0.1,0.1s0.1,0.1,0.1,0.1h0.4v1.4C7.1,30,7.2,30,7.2,30
		c0.1,0,0.1-0.1,0.1-0.1v-1.4h0.4c0.1,0,0.1-0.1,0.1-0.1s-0.1-0.1-0.1-0.1H7.4C7.4,28.2,7.4,26.7,7.4,26.7z M8.7,36.4v-5.2h-3v5.2
		C5.7,36.4,8.7,36.4,8.7,36.4z M8.7,41.9v-5.2h-3v5.2H8.7z M7.4,37.7c0-0.1-0.1-0.1-0.1-0.1c-0.1,0-0.1,0.1-0.1,0.1v1.4H6.7
		c-0.1,0-0.1,0.1-0.1,0.1s0.1,0.1,0.1,0.1h0.4v1.4c0,0.1,0.1,0.1,0.1,0.1c0.1,0,0.1-0.1,0.1-0.1v-1.4h0.4c0.1,0,0.1-0.1,0.1-0.1
		s-0.1-0.1-0.1-0.1H7.4V37.7z M7.1,35.4c0,0.1,0.1,0.1,0.1,0.1c0.1,0,0.1-0.1,0.1-0.1v-1.4h0.4c0.1,0,0.1-0.1,0.1-0.1
		c0-0.1-0.1-0.1-0.1-0.1H7.4v-1.4c0-0.1-0.1-0.1-0.1-0.1c-0.1,0-0.1,0.1-0.1,0.1v1.4H6.7c-0.1,0-0.1,0.1-0.1,0.1
		c0,0.1,0.1,0.1,0.1,0.1h0.4V35.4z M8.7,63.9v-5.2h-3v5.2H8.7z M7.4,59.7c0-0.1-0.1-0.1-0.1-0.1c-0.1,0-0.1,0.1-0.1,0.1v1.4H6.7
		c-0.1,0-0.1,0.1-0.1,0.1c0,0.1,0.1,0.1,0.1,0.1h0.4v1.4c0,0.1,0.1,0.1,0.1,0.1c0.1,0,0.1-0.1,0.1-0.1v-1.4h0.4
		c0.1,0,0.1-0.1,0.1-0.1c0-0.1-0.1-0.1-0.1-0.1H7.4V59.7z M8.7,58.4v-5.2h-3v5.2H8.7z M7.1,57.3c0,0.1,0.1,0.1,0.1,0.1
		c0.1,0,0.1-0.1,0.1-0.1v-1.4h0.4c0.1,0,0.1-0.1,0.1-0.1s-0.1-0.1-0.1-0.1H7.4v-1.4c0-0.1-0.1-0.1-0.1-0.1c-0.1,0-0.1,0.1-0.1,0.1
		v1.4H6.7c-0.1,0-0.1,0.1-0.1,0.1c0,0.1,0.1,0.1,0.1,0.1h0.4V57.3z M8.7,47.4v-5.2h-3v5.2H8.7z M8.7,52.9v-5.2h-3v5.2H8.7z
		 M7.1,46.4c0,0.1,0.1,0.1,0.1,0.1c0.1,0,0.1-0.1,0.1-0.1v-1.4h0.4c0.1,0,0.1-0.1,0.1-0.1c0-0.1-0.1-0.1-0.1-0.1H7.4v-1.4
		c0-0.1-0.1-0.1-0.1-0.1c-0.1,0-0.1,0.1-0.1,0.1v1.4H6.7c-0.1,0-0.1,0.1-0.1,0.1c0,0.1,0.1,0.1,0.1,0.1h0.4V46.4z M7.4,48.7
		c0-0.1-0.1-0.1-0.1-0.1c-0.1,0-0.1,0.1-0.1,0.1v1.4H6.7c-0.1,0-0.1,0.1-0.1,0.1s0.1,0.1,0.1,0.1h0.4v1.4c0,0.1,0.1,0.1,0.1,0.1
		c0.1,0,0.1-0.1,0.1-0.1v-1.4h0.4c0.1,0,0.1-0.1,0.1-0.1s-0.1-0.1-0.1-0.1H7.4V48.7z M17.9,19.4c0-0.1-0.1-0.1-0.2,0
		c-0.1,0-0.1,0.1,0,0.2l4,5.4c0,0.1,0.1,0.1,0.2,0c0.1,0,0.1-0.1,0-0.2L17.9,19.4z M24.8,22.5c0,0.2,0.1,0.3,0.2,0.5
		c0.1,0.1,0.3,0.2,0.5,0.2c0.2,0,0.4-0.1,0.5-0.2c0.1-0.1,0.2-0.3,0.2-0.5c0-0.2-0.1-0.3-0.2-0.5c-0.1-0.1-0.3-0.2-0.5-0.2
		c-0.2,0-0.4,0.1-0.5,0.2C24.9,22.2,24.8,22.3,24.8,22.5z M20.3,17.6c-0.1-0.1-0.1-0.1-0.2,0c-0.1,0.1-0.1,0.1,0,0.2l4.7,4.2
		c-0.1,0.2-0.2,0.3-0.2,0.6c0,0.3,0.1,0.5,0.3,0.7c0.2,0.2,0.4,0.3,0.7,0.3c0.3,0,0.5-0.1,0.7-0.3c0.2-0.2,0.3-0.4,0.3-0.7
		s-0.1-0.5-0.3-0.7c-0.2-0.2-0.4-0.3-0.7-0.3c-0.2,0-0.4,0.1-0.6,0.2C24.9,21.8,20.3,17.6,20.3,17.6z M15.8,24.3
		c0,0.2,0.1,0.3,0.2,0.5c0.1,0.1,0.3,0.2,0.5,0.2s0.4-0.1,0.5-0.2c0.1-0.1,0.2-0.3,0.2-0.5c0-0.2-0.1-0.3-0.2-0.5
		c-0.1-0.1-0.3-0.2-0.5-0.2c-0.2,0-0.4,0.1-0.5,0.2C15.9,23.9,15.8,24.1,15.8,24.3z M15.1,20.7c0-0.1-0.1-0.1-0.2-0.1
		c-0.1,0-0.1,0.1-0.1,0.2l1.2,2.6c-0.1,0-0.1,0.1-0.2,0.1c-0.2,0.2-0.3,0.4-0.3,0.7c0,0.3,0.1,0.5,0.3,0.7c0.2,0.2,0.4,0.3,0.7,0.3
		c0.3,0,0.5-0.1,0.7-0.3c0.2-0.2,0.3-0.4,0.3-0.7c0-0.3-0.1-0.5-0.3-0.7c-0.2-0.2-0.4-0.3-0.7-0.3c-0.1,0-0.2,0-0.3,0
		C16.3,23.4,15.1,20.7,15.1,20.7z M22.2,15.3c-0.1,0-0.2,0-0.2,0c0,0.1,0,0.1,0,0.2l5.9,3.6c0.1,0,0.2,0,0.2,0c0-0.1,0-0.1,0-0.2
		L22.2,15.3z M26.9,13.9c-0.1,0.1-0.2,0.3-0.2,0.5c0,0.2,0.1,0.3,0.2,0.5c0.1,0.1,0.3,0.2,0.5,0.2c0.2,0,0.4-0.1,0.5-0.2
		c0.1-0.1,0.2-0.3,0.2-0.5c0-0.2-0.1-0.3-0.2-0.5c-0.1-0.1-0.3-0.2-0.5-0.2C27.2,13.7,27.1,13.8,26.9,13.9z M23.7,12.8
		c-0.1,0-0.2,0-0.2,0.1c0,0.1,0,0.1,0.1,0.2l2.9,1.1c0,0.1,0,0.1,0,0.2c0,0.3,0.1,0.5,0.3,0.7c0.2,0.2,0.4,0.3,0.7,0.3
		c0.3,0,0.5-0.1,0.7-0.3c0.2-0.2,0.3-0.4,0.3-0.7c0-0.3-0.1-0.5-0.3-0.7c-0.2-0.2-0.4-0.3-0.7-0.3c-0.3,0-0.5,0.1-0.7,0.3
		c-0.1,0.1-0.1,0.1-0.2,0.2C26.6,13.9,23.7,12.8,23.7,12.8z M28.7,7.2V4.5H23v2.7C23,7.2,28.7,7.2,28.7,7.2z M27.6,6
		c0.1,0,0.1-0.1,0.1-0.1c0-0.1-0.1-0.1-0.1-0.1H26V5.4c0-0.1-0.1-0.1-0.1-0.1c-0.1,0-0.1,0.1-0.1,0.1v0.4h-1.6C24,5.7,24,5.8,24,5.9
		C24,6,24,6,24.1,6h1.6v0.4c0,0.1,0.1,0.1,0.1,0.1c0.1,0,0.1-0.1,0.1-0.1V6H27.6z M34.8,7.2V4.5H29v2.7H34.8z M30.2,5.7
		c-0.1,0-0.1,0.1-0.1,0.1C30,6,30.1,6,30.2,6h1.6v0.4c0,0.1,0.1,0.1,0.1,0.1C32,6.5,32,6.4,32,6.4V6h1.6c0.1,0,0.1-0.1,0.1-0.1
		c0-0.1-0.1-0.1-0.1-0.1H32V5.4c0-0.1-0.1-0.1-0.1-0.1c-0.1,0-0.1,0.1-0.1,0.1v0.4H30.2z M46.8,7.2V4.5h-5.7v2.7H46.8z M40.8,7.2
		V4.5H35v2.7C35,7.2,40.8,7.2,40.8,7.2z M42.2,5.7c-0.1,0-0.1,0.1-0.1,0.1C42.1,6,42.1,6,42.2,6h1.6v0.4c0,0.1,0.1,0.1,0.1,0.1
		c0.1,0,0.1-0.1,0.1-0.1V6h1.6c0.1,0,0.1-0.1,0.1-0.1c0-0.1-0.1-0.1-0.1-0.1h-1.6V5.4c0-0.1-0.1-0.1-0.1-0.1c-0.1,0-0.1,0.1-0.1,0.1
		v0.4H42.2z M39.6,6c0.1,0,0.1-0.1,0.1-0.1c0-0.1-0.1-0.1-0.1-0.1h-1.6V5.4c0-0.1-0.1-0.1-0.1-0.1c-0.1,0-0.1,0.1-0.1,0.1v0.4h-1.6
		c-0.1,0-0.1,0.1-0.1,0.1C36,6,36.1,6,36.2,6h1.6v0.4c0,0.1,0.1,0.1,0.1,0.1s0.1-0.1,0.1-0.1V6H39.6z M70.9,7.2V4.5h-5.7v2.7H70.9z
		 M66.3,5.7c-0.1,0-0.1,0.1-0.1,0.1C66.2,6,66.3,6,66.3,6h1.6v0.4c0,0.1,0.1,0.1,0.1,0.1c0.1,0,0.1-0.1,0.1-0.1V6h1.6
		C69.9,6,70,6,70,5.9c0-0.1-0.1-0.1-0.1-0.1h-1.6V5.4c0-0.1-0.1-0.1-0.1-0.1c-0.1,0-0.1,0.1-0.1,0.1v0.4H66.3z M64.9,7.2V4.5h-5.7
		v2.7H64.9z M63.8,6c0.1,0,0.1-0.1,0.1-0.1c0-0.1-0.1-0.1-0.1-0.1h-1.6V5.4c0-0.1-0.1-0.1-0.1-0.1c-0.1,0-0.1,0.1-0.1,0.1v0.4h-1.6
		c-0.1,0-0.1,0.1-0.1,0.1C60.2,6,60.2,6,60.3,6h1.6v0.4c0,0.1,0.1,0.1,0.1,0.1c0.1,0,0.1-0.1,0.1-0.1V6H63.8z M58.9,7.2V4.5h-5.7
		v2.7H58.9z M52.9,7.2V4.5h-5.7v2.7H52.9z M51.7,6c0.1,0,0.1-0.1,0.1-0.1c0-0.1-0.1-0.1-0.1-0.1h-1.6V5.4c0-0.1-0.1-0.1-0.1-0.1
		c-0.1,0-0.1,0.1-0.1,0.1v0.4h-1.6c-0.1,0-0.1,0.1-0.1,0.1C48.1,6,48.2,6,48.2,6h1.6v0.4c0,0.1,0.1,0.1,0.1,0.1
		c0.1,0,0.1-0.1,0.1-0.1V6H51.7z M54.3,5.7c-0.1,0-0.1,0.1-0.1,0.1C54.1,6,54.2,6,54.3,6h1.6v0.4c0,0.1,0.1,0.1,0.1,0.1
		c0.1,0,0.1-0.1,0.1-0.1V6h1.6c0.1,0,0.1-0.1,0.1-0.1c0-0.1-0.1-0.1-0.1-0.1h-1.6V5.4c0-0.1-0.1-0.1-0.1-0.1c-0.1,0-0.1,0.1-0.1,0.1
		v0.4H54.3z M101.1,7.2V4.5h-5.7v2.7H101.1z M100,6c0.1,0,0.1-0.1,0.1-0.1c0-0.1-0.1-0.1-0.1-0.1h-1.6V5.4c0-0.1-0.1-0.1-0.1-0.1
		c-0.1,0-0.1,0.1-0.1,0.1v0.4h-1.6c-0.1,0-0.1,0.1-0.1,0.1C96.4,6,96.4,6,96.5,6h1.6v0.4c0,0.1,0.1,0.1,0.1,0.1s0.1-0.1,0.1-0.1V6
		H100z M77,7.2V4.5h-5.7v2.7H77z M75.8,6C75.9,6,76,6,76,5.9c0-0.1-0.1-0.1-0.1-0.1h-1.6V5.4c0-0.1-0.1-0.1-0.1-0.1
		C74,5.3,74,5.3,74,5.4v0.4h-1.6c-0.1,0-0.1,0.1-0.1,0.1C72.2,6,72.3,6,72.4,6H74v0.4c0,0.1,0.1,0.1,0.1,0.1c0.1,0,0.1-0.1,0.1-0.1
		V6H75.8z M83,7.2V4.5h-5.7v2.7H83z M78.4,5.7c-0.1,0-0.1,0.1-0.1,0.1C78.3,6,78.3,6,78.4,6H80v0.4c0,0.1,0.1,0.1,0.1,0.1
		s0.1-0.1,0.1-0.1V6h1.6C81.9,6,82,6,82,5.9c0-0.1-0.1-0.1-0.1-0.1h-1.6V5.4c0-0.1-0.1-0.1-0.1-0.1c-0.1,0-0.1,0.1-0.1,0.1v0.4H78.4
		z M95.1,7.2V4.5h-5.7v2.7H95.1z M89,7.2V4.5h-5.7v2.7H89z M90.5,5.7c-0.1,0-0.1,0.1-0.1,0.1C90.3,6,90.4,6,90.5,6h1.6v0.4
		c0,0.1,0.1,0.1,0.1,0.1c0.1,0,0.1-0.1,0.1-0.1V6h1.6C94,6,94.1,6,94.1,5.9c0-0.1-0.1-0.1-0.1-0.1h-1.6V5.4c0-0.1-0.1-0.1-0.1-0.1
		c-0.1,0-0.1,0.1-0.1,0.1v0.4H90.5z M87.9,6C88,6,88,6,88,5.9c0-0.1-0.1-0.1-0.1-0.1h-1.6V5.4c0-0.1-0.1-0.1-0.1-0.1
		c-0.1,0-0.1,0.1-0.1,0.1v0.4h-1.6c-0.1,0-0.1,0.1-0.1,0.1C84.3,6,84.4,6,84.4,6H86v0.4c0,0.1,0.1,0.1,0.1,0.1
		c0.1,0,0.1-0.1,0.1-0.1V6H87.9z M5.7,4.3c-0.1-0.1-0.1-0.1-0.2,0c-0.1,0.1-0.1,0.1,0,0.2l0.6,0.6c0.1,0.1,0.1,0.1,0.2,0
		c0.1-0.1,0.1-0.1,0-0.2L5.7,4.3z M10.9,20.3v2.8l1.6-1.4C12.5,21.8,10.9,20.3,10.9,20.3z M10.9,23.8v2.8l1.6-1.4
		C12.5,25.2,10.9,23.8,10.9,23.8z M10.9,27.2V30l1.6-1.4C12.5,28.6,10.9,27.2,10.9,27.2z M10.9,30.7v2.8l1.6-1.4
		C12.5,32.1,10.9,30.7,10.9,30.7z M10.9,34.1v2.8l1.6-1.4C12.5,35.5,10.9,34.1,10.9,34.1z M10.9,37.6v2.8l1.6-1.4
		C12.5,39,10.9,37.6,10.9,37.6z M10.9,51.3v2.8l1.6-1.4C12.5,52.7,10.9,51.3,10.9,51.3z M10.9,47.9v2.8l1.6-1.4
		C12.5,49.3,10.9,47.9,10.9,47.9z M10.9,44.4v2.8l1.6-1.4C12.5,45.9,10.9,44.4,10.9,44.4z M10.9,41v2.8l1.6-1.4
		C12.5,42.4,10.9,41,10.9,41z M10.9,54.8v2.8l1.6-1.4C12.5,56.2,10.9,54.8,10.9,54.8z M10.9,58.2V61l1.6-1.4
		C12.5,59.6,10.9,58.2,10.9,58.2z M8.7,69.3v-5.2h-3v5.2H8.7z M8.7,75v-5.4h-3V75H8.7z M7.1,68.3c0,0.1,0.1,0.1,0.1,0.1
		c0.1,0,0.1-0.1,0.1-0.1v-1.4h0.4c0.1,0,0.1-0.1,0.1-0.1c0-0.1-0.1-0.1-0.1-0.1H7.4v-1.4c0-0.1-0.1-0.1-0.1-0.1
		c-0.1,0-0.1,0.1-0.1,0.1v1.4H6.7c-0.1,0-0.1,0.1-0.1,0.1c0,0.1,0.1,0.1,0.1,0.1h0.4V68.3z M112.7,7.2V4.5H107v2.7H112.7z
		 M106.7,7.2V4.5h-5.3v2.7H106.7z M108.1,5.7c-0.1,0-0.1,0.1-0.1,0.1C108,6,108,6,108.1,6h1.6v0.4c0,0.1,0.1,0.1,0.1,0.1
		s0.1-0.1,0.1-0.1V6h1.6c0.1,0,0.1-0.1,0.1-0.1c0-0.1-0.1-0.1-0.1-0.1H110V5.4c0-0.1-0.1-0.1-0.1-0.1c-0.1,0-0.1,0.1-0.1,0.1v0.4
		H108.1z M105.5,6c0.1,0,0.1-0.1,0.1-0.1c0-0.1-0.1-0.1-0.1-0.1h-1.3V5.4c0-0.1,0-0.1-0.1-0.1l0,0l0,0l0,0l0,0l0,0l0,0l0,0l0,0h0v0
		h0l0,0l0,0l0,0l0,0l0,0l0,0l0,0c-0.1,0-0.1,0.1-0.1,0.1v0.4h-1.3c-0.1,0-0.1,0.1-0.1,0.1c0,0.1,0.1,0.1,0.1,0.1h1.3v0.4
		c0,0.1,0,0.1,0.1,0.1l0,0l0,0l0,0l0,0l0,0l0,0l0,0h0l0,0h0l0,0h0l0,0l0,0l0,0l0,0l0,0l0,0l0,0c0.1,0,0.1-0.1,0.1-0.1V6
		C104.2,6,105.5,6,105.5,6z M118.7,7.2V4.5H113v2.7H118.7z M117.6,6c0.1,0,0.1-0.1,0.1-0.1c0-0.1-0.1-0.1-0.1-0.1H116V5.4
		c0-0.1-0.1-0.1-0.1-0.1c-0.1,0-0.1,0.1-0.1,0.1v0.4h-1.6c-0.1,0-0.1,0.1-0.1,0.1c0,0.1,0.1,0.1,0.1,0.1h1.6v0.4
		c0,0.1,0.1,0.1,0.1,0.1c0.1,0,0.1-0.1,0.1-0.1V6H117.6z M10.9,61.7v2.8l1.6-1.4C12.5,63.1,10.9,61.7,10.9,61.7z M10.9,65.1v2.8
		l1.6-1.4C12.5,66.5,10.9,65.1,10.9,65.1z M10.9,68.5v2.8l1.6-1.4C12.5,70,10.9,68.5,10.9,68.5z M10.9,72v2.8l1.6-1.4
		C12.5,73.4,10.9,72,10.9,72z M87.7,9.3h-3.1l1.6,1.4L87.7,9.3z M91.6,9.3h-3.1l1.6,1.4L91.6,9.3z M95.4,9.3h-3.1l1.6,1.4L95.4,9.3z
		 M99.3,9.3h-3.1l1.6,1.4L99.3,9.3z M103.1,9.3H100l1.6,1.4L103.1,9.3z M107,9.3h-3.1l1.6,1.4L107,9.3z M118.5,9.3h-3.1l1.6,1.4
		L118.5,9.3L118.5,9.3z M114.6,9.3h-3.1l1.6,1.4L114.6,9.3z M110.8,9.3h-3.1l1.6,1.4L110.8,9.3z M83.9,9.3h-3.1l1.6,1.4L83.9,9.3z
		 M230.3,79.5c0,0.1,0.1,0.1,0.1,0.1c0.1,0,0.1-0.1,0.1-0.1v-1.4h0.4c0.1,0,0.1-0.1,0.1-0.1c0-0.1-0.1-0.1-0.1-0.1h-0.4v-1.4
		c0-0.1-0.1-0.1-0.1-0.1c-0.1,0-0.1,0.1-0.1,0.1v1.4h-0.4c-0.1,0-0.1,0.1-0.1,0.1c0,0.1,0.1,0.1,0.1,0.1h0.4V79.5z M231.7,136
		c0,0.1,0,0.1,0.1,0.2c0.1,0,0.2,0,0.2-0.1l0.2-0.4c0-0.1,0-0.1-0.1-0.2c-0.1,0-0.2,0-0.2,0.1L231.7,136L231.7,136z M230.4,139
		c0,0.1,0,0.1,0.1,0.2c0.1,0,0.2,0,0.2-0.1l0.8-1.8c0-0.1,0-0.1-0.1-0.2c-0.1,0-0.2,0-0.2,0.1L230.4,139z M221.4,145.8
		c0.1,0,0.1-0.1,0.1-0.2c0-0.1-0.1-0.1-0.2-0.1l-0.5,0.2c-0.1,0-0.1,0.1-0.1,0.2c0,0.1,0.1,0.1,0.2,0.1L221.4,145.8z M224.6,144.6
		c0.1,0,0.1-0.1,0.1-0.2c0-0.1-0.1-0.1-0.2-0.1l-2,0.7c-0.1,0-0.1,0.1-0.1,0.2c0,0.1,0.1,0.1,0.2,0.1L224.6,144.6L224.6,144.6z
		 M225.6,136.1c0,0.1,0.1,0.1,0.2,0.1c0.1,0,0.1-0.1,0.1-0.2l-0.3-0.6c0-0.1-0.1-0.1-0.2-0.1c-0.1,0-0.1,0.1-0.1,0.2L225.6,136.1z
		 M226.9,139.1c0,0.1,0.1,0.1,0.2,0.1c0.1,0,0.1-0.1,0.1-0.2l-0.8-1.8c0-0.1-0.1-0.1-0.2-0.1c-0.1,0-0.1,0.1-0.1,0.2L226.9,139.1
		L226.9,139.1z M221.3,140.2c0.1,0,0.2,0,0.2-0.1c0-0.1,0-0.1-0.1-0.2l-0.6-0.2c-0.1,0-0.2,0-0.2,0.1c0,0.1,0,0.1,0.1,0.2
		L221.3,140.2L221.3,140.2z M224.5,141.4c0.1,0,0.2,0,0.2-0.1c0-0.1,0-0.1-0.1-0.2l-2-0.7c-0.1,0-0.2,0-0.2,0.1c0,0.1,0,0.1,0.1,0.2
		L224.5,141.4z M228.6,137.4c0,0.1,0.1,0.1,0.1,0.1c0.1,0,0.1-0.1,0.1-0.1v-2.4c0-0.1-0.1-0.1-0.1-0.1c-0.1,0-0.1,0.1-0.1,0.1V137.4
		z M222.7,143c0.1,0,0.1-0.1,0.1-0.1c0-0.1-0.1-0.1-0.1-0.1h-2.7c-0.1,0-0.1,0.1-0.1,0.1s0.1,0.1,0.1,0.1H222.7z M224.4,139.1
		c0.1,0.1,0.1,0.1,0.2,0c0.1-0.1,0.1-0.1,0-0.2l-1.9-1.7c-0.1-0.1-0.1-0.1-0.2,0c-0.1,0.1-0.1,0.1,0,0.2L224.4,139.1z M227.9,142.1
		c-0.4,0.4-0.9,0.6-1.4,0.8c0.6,0.2,1,0.4,1.4,0.8c0.4,0.4,0.7,0.8,0.9,1.3c0.2-0.5,0.5-0.9,0.9-1.3c0.4-0.4,0.9-0.6,1.4-0.8
		c-0.6-0.2-1-0.4-1.4-0.8c-0.4-0.4-0.7-0.8-0.9-1.3C228.6,141.3,228.3,141.7,227.9,142.1z M228.6,140c0,0.7-0.4,1.4-0.9,1.9
		c-0.5,0.5-1.3,0.8-2.1,0.8c-0.2,0-0.2,0.3,0,0.3c0.8,0,1.5,0.3,2.1,0.8s0.9,1.2,0.9,1.9c0,0.2,0.3,0.2,0.3,0c0-0.7,0.4-1.4,0.9-1.9
		c0.5-0.5,1.3-0.8,2.1-0.8c0.2,0,0.2-0.3,0-0.3c-0.8,0-1.5-0.3-2.1-0.8c-0.5-0.5-0.9-1.2-0.9-1.9C228.9,139.8,228.6,139.8,228.6,140
		z M211.4,141h3.1l-1.6-1.4L211.4,141z M207.5,141h3.1l-1.6-1.4L207.5,141L207.5,141z M203.7,141h3.1l-1.6-1.4L203.7,141z
		 M199.9,141h3.1l-1.6-1.4L199.9,141L199.9,141z M196,141h3.1l-1.6-1.4L196,141L196,141z M192.2,141h3.1l-1.6-1.4L192.2,141
		L192.2,141z M188.3,141h3.1l-1.6-1.4L188.3,141L188.3,141z M184.5,141h3.1l-1.6-1.4L184.5,141L184.5,141z M180.6,141h3.1l-1.6-1.4
		L180.6,141z M176.8,141h3.1l-1.6-1.4L176.8,141L176.8,141z M173,141h3.1l-1.6-1.4L173,141z M169.1,141h3.1l-1.6-1.4L169.1,141
		L169.1,141z M165.3,141h3.1l-1.6-1.4L165.3,141L165.3,141z M161.4,141h3.1l-1.6-1.4L161.4,141L161.4,141z M157.6,141h3.1l-1.6-1.4
		L157.6,141L157.6,141z M231.9,130v-5.2h-3v5.2H231.9z M230.6,125.8c0-0.1-0.1-0.1-0.1-0.1c-0.1,0-0.1,0.1-0.1,0.1v1.4h-0.4
		c-0.1,0-0.1,0.1-0.1,0.1c0,0.1,0.1,0.1,0.1,0.1h0.4v1.4c0,0.1,0.1,0.1,0.1,0.1c0.1,0,0.1-0.1,0.1-0.1v-1.4h0.4
		c0.1,0,0.1-0.1,0.1-0.1c0-0.1-0.1-0.1-0.1-0.1h-0.4V125.8z M231.9,124.5v-5.2h-3v5.2H231.9z M230.3,123.5c0,0.1,0.1,0.1,0.1,0.1
		c0.1,0,0.1-0.1,0.1-0.1v-1.4h0.4c0.1,0,0.1-0.1,0.1-0.1c0-0.1-0.1-0.1-0.1-0.1h-0.4v-1.4c0-0.1-0.1-0.1-0.1-0.1
		c-0.1,0-0.1,0.1-0.1,0.1v1.4h-0.4c-0.1,0-0.1,0.1-0.1,0.1c0,0.1,0.1,0.1,0.1,0.1h0.4V123.5z M231.9,119.1v-5.2h-3v5.2H231.9z
		 M231.9,113.6v-5.2h-3v5.2H231.9z M230.3,112.5c0,0.1,0.1,0.1,0.1,0.1c0.1,0,0.1-0.1,0.1-0.1v-1.4h0.4c0.1,0,0.1-0.1,0.1-0.1
		c0-0.1-0.1-0.1-0.1-0.1h-0.4v-1.4c0-0.1-0.1-0.1-0.1-0.1c-0.1,0-0.1,0.1-0.1,0.1v1.4h-0.4c-0.1,0-0.1,0.1-0.1,0.1
		c0,0.1,0.1,0.1,0.1,0.1h0.4V112.5z M230.6,114.9c0-0.1-0.1-0.1-0.1-0.1c-0.1,0-0.1,0.1-0.1,0.1v1.4h-0.4c-0.1,0-0.1,0.1-0.1,0.1
		c0,0.1,0.1,0.1,0.1,0.1h0.4v1.4c0,0.1,0.1,0.1,0.1,0.1c0.1,0,0.1-0.1,0.1-0.1v-1.4h0.4c0.1,0,0.1-0.1,0.1-0.1
		c0-0.1-0.1-0.1-0.1-0.1h-0.4C230.6,116.3,230.6,114.9,230.6,114.9z M231.9,91.6v-5.2h-3v5.2C228.9,91.6,231.9,91.6,231.9,91.6z
		 M230.3,90.6c0,0.1,0.1,0.1,0.1,0.1c0.1,0,0.1-0.1,0.1-0.1v-1.4h0.4c0.1,0,0.1-0.1,0.1-0.1c0-0.1-0.1-0.1-0.1-0.1h-0.4v-1.4
		c0-0.1-0.1-0.1-0.1-0.1c-0.1,0-0.1,0.1-0.1,0.1v1.4h-0.4c-0.1,0-0.1,0.1-0.1,0.1c0,0.1,0.1,0.1,0.1,0.1h0.4V90.6z M231.9,97.1v-5.2
		h-3v5.2H231.9z M230.6,92.9c0-0.1-0.1-0.1-0.1-0.1c-0.1,0-0.1,0.1-0.1,0.1v1.4h-0.4c-0.1,0-0.1,0.1-0.1,0.1c0,0.1,0.1,0.1,0.1,0.1
		h0.4v1.4c0,0.1,0.1,0.1,0.1,0.1c0.1,0,0.1-0.1,0.1-0.1v-1.4h0.4c0.1,0,0.1-0.1,0.1-0.1c0-0.1-0.1-0.1-0.1-0.1h-0.4V92.9z
		 M231.9,108.1v-5.2h-3v5.2H231.9z M231.9,102.6v-5.2h-3v5.2H231.9z M230.6,103.9c0-0.1-0.1-0.1-0.1-0.1c-0.1,0-0.1,0.1-0.1,0.1v1.4
		h-0.4c-0.1,0-0.1,0.1-0.1,0.1c0,0.1,0.1,0.1,0.1,0.1h0.4v1.4c0,0.1,0.1,0.1,0.1,0.1c0.1,0,0.1-0.1,0.1-0.1v-1.4h0.4
		c0.1,0,0.1-0.1,0.1-0.1c0-0.1-0.1-0.1-0.1-0.1h-0.4V103.9z M230.3,101.5c0,0.1,0.1,0.1,0.1,0.1c0.1,0,0.1-0.1,0.1-0.1v-1.4h0.4
		c0.1,0,0.1-0.1,0.1-0.1c0-0.1-0.1-0.1-0.1-0.1h-0.4v-1.4c0-0.1-0.1-0.1-0.1-0.1c-0.1,0-0.1,0.1-0.1,0.1v1.4h-0.4
		c-0.1,0-0.1,0.1-0.1,0.1c0,0.1,0.1,0.1,0.1,0.1h0.4V101.5z M219.8,130.9c0,0.1,0.1,0.1,0.2,0c0.1,0,0.1-0.1,0-0.2l-4-5.4
		c0-0.1-0.1-0.1-0.2,0c-0.1,0-0.1,0.1,0,0.2L219.8,130.9z M212.9,127.7c0-0.2-0.1-0.3-0.2-0.5c-0.1-0.1-0.3-0.2-0.5-0.2
		c-0.2,0-0.4,0.1-0.5,0.2c-0.1,0.1-0.2,0.3-0.2,0.5c0,0.2,0.1,0.3,0.2,0.5c0.1,0.1,0.3,0.2,0.5,0.2c0.2,0,0.4-0.1,0.5-0.2
		C212.8,128.1,212.9,127.9,212.9,127.7L212.9,127.7z M217.4,132.7c0.1,0.1,0.1,0.1,0.2,0c0.1-0.1,0.1-0.1,0-0.2l-4.7-4.2
		c0.1-0.2,0.2-0.3,0.2-0.6c0-0.3-0.1-0.5-0.3-0.7c-0.2-0.2-0.4-0.3-0.7-0.3c-0.3,0-0.5,0.1-0.7,0.3c-0.2,0.2-0.3,0.4-0.3,0.7
		s0.1,0.5,0.3,0.7c0.2,0.2,0.4,0.3,0.7,0.3c0.2,0,0.4-0.1,0.6-0.2L217.4,132.7L217.4,132.7z M221.8,126c0-0.2-0.1-0.3-0.2-0.5
		c-0.1-0.1-0.3-0.2-0.5-0.2s-0.4,0.1-0.5,0.2c-0.1,0.1-0.2,0.3-0.2,0.5c0,0.2,0.1,0.3,0.2,0.5c0.1,0.1,0.3,0.2,0.5,0.2
		s0.4-0.1,0.5-0.2C221.7,126.3,221.8,126.2,221.8,126z M222.5,129.5c0,0.1,0.1,0.1,0.2,0.1c0.1,0,0.1-0.1,0.1-0.2l-1.2-2.6
		c0.1,0,0.1-0.1,0.2-0.1c0.2-0.2,0.3-0.4,0.3-0.7c0-0.3-0.1-0.5-0.3-0.7c-0.2-0.2-0.4-0.3-0.7-0.3c-0.3,0-0.5,0.1-0.7,0.3
		c-0.2,0.2-0.3,0.4-0.3,0.7c0,0.3,0.1,0.5,0.3,0.7c0.2,0.2,0.4,0.3,0.7,0.3c0.1,0,0.2,0,0.2,0L222.5,129.5z M215.4,134.9
		c0.1,0,0.2,0,0.2,0c0-0.1,0-0.1,0-0.2l-5.9-3.6c-0.1,0-0.2,0-0.2,0c0,0.1,0,0.1,0,0.2L215.4,134.9L215.4,134.9z M210.7,136.3
		c0.1-0.1,0.2-0.3,0.2-0.5c0-0.2-0.1-0.3-0.2-0.5c-0.1-0.1-0.3-0.2-0.5-0.2c-0.2,0-0.4,0.1-0.5,0.2c-0.1,0.1-0.2,0.3-0.2,0.5
		s0.1,0.3,0.2,0.5c0.1,0.1,0.3,0.2,0.5,0.2S210.6,136.5,210.7,136.3L210.7,136.3z M214,137.4c0.1,0,0.2,0,0.2-0.1
		c0-0.1,0-0.1-0.1-0.2l-2.9-1.1c0-0.1,0-0.1,0-0.2c0-0.3-0.1-0.5-0.3-0.7c-0.2-0.2-0.4-0.3-0.7-0.3c-0.3,0-0.5,0.1-0.7,0.3
		c-0.2,0.2-0.3,0.4-0.3,0.7c0,0.3,0.1,0.5,0.3,0.7c0.2,0.2,0.4,0.3,0.7,0.3c0.3,0,0.5-0.1,0.7-0.3c0.1-0.1,0.1-0.1,0.2-0.2
		L214,137.4L214,137.4z M214.7,145.7V143h-5.7v2.7H214.7z M210.1,144.2c-0.1,0-0.1,0.1-0.1,0.1c0,0.1,0.1,0.1,0.1,0.1h1.6v0.4
		c0,0.1,0.1,0.1,0.1,0.1c0.1,0,0.1-0.1,0.1-0.1v-0.4h1.6c0.1,0,0.1-0.1,0.1-0.1c0-0.1-0.1-0.1-0.1-0.1H212v-0.4
		c0-0.1-0.1-0.1-0.1-0.1c-0.1,0-0.1,0.1-0.1,0.1v0.4H210.1z M208.7,145.7V143h-5.7v2.7H208.7z M207.5,144.5c0.1,0,0.1-0.1,0.1-0.1
		c0-0.1-0.1-0.1-0.1-0.1h-1.6v-0.4c0-0.1-0.1-0.1-0.1-0.1s-0.1,0.1-0.1,0.1v0.4H204c-0.1,0-0.1,0.1-0.1,0.1c0,0.1,0.1,0.1,0.1,0.1
		h1.6v0.4c0,0.1,0.1,0.1,0.1,0.1c0.1,0,0.1-0.1,0.1-0.1v-0.4H207.5z M196.6,145.7V143h-5.7v2.7H196.6z M202.6,145.7V143h-5.7v2.7
		H202.6z M195.4,144.5c0.1,0,0.1-0.1,0.1-0.1c0-0.1-0.1-0.1-0.1-0.1h-1.6v-0.4c0-0.1-0.1-0.1-0.1-0.1s-0.1,0.1-0.1,0.1v0.4H192
		c-0.1,0-0.1,0.1-0.1,0.1c0,0.1,0.1,0.1,0.1,0.1h1.6v0.4c0,0.1,0.1,0.1,0.1,0.1c0.1,0,0.1-0.1,0.1-0.1v-0.4H195.4z M198,144.2
		c-0.1,0-0.1,0.1-0.1,0.1c0,0.1,0.1,0.1,0.1,0.1h1.6v0.4c0,0.1,0.1,0.1,0.1,0.1s0.1-0.1,0.1-0.1v-0.4h1.6c0.1,0,0.1-0.1,0.1-0.1
		c0-0.1-0.1-0.1-0.1-0.1h-1.6v-0.4c0-0.1-0.1-0.1-0.1-0.1c-0.1,0-0.1,0.1-0.1,0.1v0.4H198z M172.5,145.7V143h-5.7v2.7H172.5z
		 M171.3,144.5c0.1,0,0.1-0.1,0.1-0.1c0-0.1-0.1-0.1-0.1-0.1h-1.6v-0.4c0-0.1-0.1-0.1-0.1-0.1s-0.1,0.1-0.1,0.1v0.4h-1.6
		c-0.1,0-0.1,0.1-0.1,0.1c0,0.1,0.1,0.1,0.1,0.1h1.6v0.4c0,0.1,0.1,0.1,0.1,0.1c0.1,0,0.1-0.1,0.1-0.1v-0.4H171.3z M178.5,145.7V143
		h-5.7v2.7H178.5z M173.9,144.2c-0.1,0-0.1,0.1-0.1,0.1c0,0.1,0.1,0.1,0.1,0.1h1.6v0.4c0,0.1,0.1,0.1,0.1,0.1c0.1,0,0.1-0.1,0.1-0.1
		v-0.4h1.6c0.1,0,0.1-0.1,0.1-0.1c0-0.1-0.1-0.1-0.1-0.1h-1.6v-0.4c0-0.1-0.1-0.1-0.1-0.1c-0.1,0-0.1,0.1-0.1,0.1v0.4H173.9z
		 M184.5,145.7V143h-5.7v2.7H184.5z M190.6,145.7V143h-5.7v2.7H190.6z M185.9,144.2c-0.1,0-0.1,0.1-0.1,0.1c0,0.1,0.1,0.1,0.1,0.1
		h1.6v0.4c0,0.1,0.1,0.1,0.1,0.1c0.1,0,0.1-0.1,0.1-0.1v-0.4h1.6c0.1,0,0.1-0.1,0.1-0.1c0-0.1-0.1-0.1-0.1-0.1h-1.6v-0.4
		c0-0.1-0.1-0.1-0.1-0.1s-0.1,0.1-0.1,0.1v0.4H185.9z M183.4,144.5c0.1,0,0.1-0.1,0.1-0.1c0-0.1-0.1-0.1-0.1-0.1h-1.6v-0.4
		c0-0.1-0.1-0.1-0.1-0.1c-0.1,0-0.1,0.1-0.1,0.1v0.4h-1.6c-0.1,0-0.1,0.1-0.1,0.1c0,0.1,0.1,0.1,0.1,0.1h1.6v0.4
		c0,0.1,0.1,0.1,0.1,0.1s0.1-0.1,0.1-0.1v-0.4H183.4z M142.3,145.7V143h-5.7v2.7H142.3z M137.7,144.2c-0.1,0-0.1,0.1-0.1,0.1
		c0,0.1,0.1,0.1,0.1,0.1h1.6v0.4c0,0.1,0.1,0.1,0.1,0.1s0.1-0.1,0.1-0.1v-0.4h1.6c0.1,0,0.1-0.1,0.1-0.1c0-0.1-0.1-0.1-0.1-0.1h-1.6
		v-0.4c0-0.1-0.1-0.1-0.1-0.1c-0.1,0-0.1,0.1-0.1,0.1v0.4H137.7z M166.4,145.7V143h-5.7v2.7H166.4z M161.8,144.2
		c-0.1,0-0.1,0.1-0.1,0.1c0,0.1,0.1,0.1,0.1,0.1h1.6v0.4c0,0.1,0.1,0.1,0.1,0.1c0.1,0,0.1-0.1,0.1-0.1v-0.4h1.6
		c0.1,0,0.1-0.1,0.1-0.1c0-0.1-0.1-0.1-0.1-0.1h-1.6v-0.4c0-0.1-0.1-0.1-0.1-0.1s-0.1,0.1-0.1,0.1v0.4H161.8z M160.4,145.7V143h-5.7
		v2.7H160.4z M159.2,144.5c0.1,0,0.1-0.1,0.1-0.1c0-0.1-0.1-0.1-0.1-0.1h-1.6v-0.4c0-0.1-0.1-0.1-0.1-0.1c-0.1,0-0.1,0.1-0.1,0.1
		v0.4h-1.6c-0.1,0-0.1,0.1-0.1,0.1c0,0.1,0.1,0.1,0.1,0.1h1.6v0.4c0,0.1,0.1,0.1,0.1,0.1s0.1-0.1,0.1-0.1v-0.4H159.2z M148.3,145.7
		V143h-5.7v2.7H148.3z M154.4,145.7V143h-5.7v2.7H154.4z M147.2,144.5c0.1,0,0.1-0.1,0.1-0.1c0-0.1-0.1-0.1-0.1-0.1h-1.6v-0.4
		c0-0.1-0.1-0.1-0.1-0.1c-0.1,0-0.1,0.1-0.1,0.1v0.4h-1.6c-0.1,0-0.1,0.1-0.1,0.1c0,0.1,0.1,0.1,0.1,0.1h1.6v0.4
		c0,0.1,0.1,0.1,0.1,0.1s0.1-0.1,0.1-0.1v-0.4H147.2z M149.8,144.2c-0.1,0-0.1,0.1-0.1,0.1c0,0.1,0.1,0.1,0.1,0.1h1.6v0.4
		c0,0.1,0.1,0.1,0.1,0.1c0.1,0,0.1-0.1,0.1-0.1v-0.4h1.6c0.1,0,0.1-0.1,0.1-0.1c0-0.1-0.1-0.1-0.1-0.1h-1.6v-0.4
		c0-0.1-0.1-0.1-0.1-0.1c-0.1,0-0.1,0.1-0.1,0.1v0.4H149.8z M232,145.9c0.1,0.1,0.1,0.1,0.2,0c0.1-0.1,0.1-0.1,0-0.2l-0.6-0.6
		c-0.1-0.1-0.1-0.1-0.2,0c-0.1,0.1-0.1,0.1,0,0.2L232,145.9L232,145.9z M226.7,129.9v-2.8l-1.6,1.4L226.7,129.9z M226.7,126.5v-2.8
		l-1.6,1.4L226.7,126.5L226.7,126.5z M226.7,123v-2.8l-1.6,1.4L226.7,123z M226.7,119.6v-2.8l-1.6,1.4L226.7,119.6z M226.7,116.1
		v-2.8l-1.6,1.4L226.7,116.1z M226.7,112.7v-2.8l-1.6,1.4C225.2,111.3,226.7,112.7,226.7,112.7z M226.7,98.9v-2.8l-1.6,1.4
		C225.2,97.5,226.7,98.9,226.7,98.9z M226.7,102.4v-2.8l-1.6,1.4C225.2,100.9,226.7,102.4,226.7,102.4z M226.7,105.8V103l-1.6,1.4
		C225.2,104.4,226.7,105.8,226.7,105.8z M226.7,109.2v-2.8l-1.6,1.4C225.2,107.8,226.7,109.2,226.7,109.2z M226.7,95.5v-2.8
		l-1.6,1.4C225.2,94.1,226.7,95.5,226.7,95.5z M226.7,92v-2.8l-1.6,1.4C225.2,90.6,226.7,92,226.7,92z M231.9,86.1v-5.2h-3v5.2
		H231.9z M231.9,80.6v-5.4h-3v5.4H231.9z M230.6,81.9c0-0.1-0.1-0.1-0.1-0.1c-0.1,0-0.1,0.1-0.1,0.1v1.4h-0.4
		c-0.1,0-0.1,0.1-0.1,0.1c0,0.1,0.1,0.1,0.1,0.1h0.4v1.4c0,0.1,0.1,0.1,0.1,0.1c0.1,0,0.1-0.1,0.1-0.1v-1.4h0.4
		c0.1,0,0.1-0.1,0.1-0.1c0-0.1-0.1-0.1-0.1-0.1h-0.4V81.9z M130.7,145.7V143H125v2.7H130.7z M136.3,145.7V143H131v2.7H136.3z
		 M129.6,144.5c0.1,0,0.1-0.1,0.1-0.1c0-0.1-0.1-0.1-0.1-0.1H128v-0.4c0-0.1-0.1-0.1-0.1-0.1c-0.1,0-0.1,0.1-0.1,0.1v0.4h-1.6
		c-0.1,0-0.1,0.1-0.1,0.1c0,0.1,0.1,0.1,0.1,0.1h1.6v0.4c0,0.1,0.1,0.1,0.1,0.1c0.1,0,0.1-0.1,0.1-0.1v-0.4H129.6z M132.1,144.2
		c-0.1,0-0.1,0.1-0.1,0.1c0,0.1,0.1,0.1,0.1,0.1h1.3v0.4c0,0.1,0,0.1,0.1,0.1l0,0l0,0l0,0l0,0l0,0l0,0h0h0l0,0h0l0,0h0l0,0l0,0l0,0
		l0,0l0,0l0,0c0.1,0,0.1-0.1,0.1-0.1v-0.4h1.3c0.1,0,0.1-0.1,0.1-0.1c0-0.1-0.1-0.1-0.1-0.1h-1.3v-0.4c0-0.1,0-0.1-0.1-0.1l0,0l0,0
		l0,0l0,0l0,0h0l0,0l0,0h0h0h0l0,0v0h0h0l0,0l0,0l0,0l0,0l0,0c-0.1,0-0.1,0.1-0.1,0.1v0.4H132.1z M124.7,145.7V143H119v2.7H124.7z
		 M120.1,144.2c-0.1,0-0.1,0.1-0.1,0.1c0,0.1,0.1,0.1,0.1,0.1h1.6v0.4c0,0.1,0.1,0.1,0.1,0.1s0.1-0.1,0.1-0.1v-0.4h1.6
		c0.1,0,0.1-0.1,0.1-0.1c0-0.1-0.1-0.1-0.1-0.1h-1.6v-0.4c0-0.1-0.1-0.1-0.1-0.1c-0.1,0-0.1,0.1-0.1,0.1v0.4H120.1z M226.7,88.6
		v-2.8l-1.6,1.4C225.2,87.2,226.7,88.6,226.7,88.6z M226.7,85.1v-2.8l-1.6,1.4C225.2,83.7,226.7,85.1,226.7,85.1z M226.7,81.7v-2.8
		l-1.6,1.4C225.2,80.3,226.7,81.7,226.7,81.7z M226.7,78.2v-2.8l-1.6,1.4C225.2,76.8,226.7,78.2,226.7,78.2z M149.9,141h3.1
		l-1.6-1.4L149.9,141z M146.1,141h3.1l-1.6-1.4L146.1,141L146.1,141z M142.2,141h3.1l-1.6-1.4L142.2,141z M138.4,141h3.1l-1.6-1.4
		L138.4,141L138.4,141z M134.5,141h3.1l-1.6-1.4L134.5,141z M130.7,141h3.1l-1.6-1.4L130.7,141z M119.2,141h3.1l-1.6-1.4L119.2,141
		L119.2,141z M123,141h3.1l-1.6-1.4L123,141z M126.9,141h3.1l-1.6-1.4L126.9,141L126.9,141z M230.3,70.7v1.4h-0.4
		c-0.1,0-0.1,0.1-0.1,0.1c0,0.1,0.1,0.1,0.1,0.1h0.4v1.4c0,0.1,0.1,0.1,0.1,0.1c0.1,0,0.1-0.1,0.1-0.1v-1.4h0.4
		c0.1,0,0.1-0.1,0.1-0.1s-0.1-0.1-0.1-0.1h-0.4v-1.4c0-0.1-0.1-0.1-0.1-0.1C230.3,70.6,230.3,70.7,230.3,70.7z M231.7,14.2l0.2,0.4
		c0,0.1,0.1,0.1,0.2,0.1c0.1,0,0.1-0.1,0.1-0.2l-0.2-0.4c0-0.1-0.1-0.1-0.2-0.1C231.7,14.1,231.7,14.1,231.7,14.2L231.7,14.2z
		 M230.4,11.3l0.8,1.8c0,0.1,0.1,0.1,0.2,0.1c0.1,0,0.1-0.1,0.1-0.2l-0.8-1.8c0-0.1-0.1-0.1-0.2-0.1
		C230.4,11.1,230.4,11.2,230.4,11.3z M221.4,4.4l-0.5-0.2c-0.1,0-0.2,0-0.2,0.1c0,0.1,0,0.1,0.1,0.2l0.5,0.2c0.1,0,0.2,0,0.2-0.1
		C221.5,4.6,221.5,4.5,221.4,4.4z M224.6,5.7l-2-0.7c-0.1,0-0.2,0-0.2,0.1c0,0.1,0,0.1,0.1,0.2l2,0.7c0.1,0,0.2,0,0.2-0.1
		C224.7,5.8,224.7,5.7,224.6,5.7z M225.6,14.1l-0.3,0.6c0,0.1,0,0.1,0.1,0.2c0.1,0,0.2,0,0.2-0.1l0.3-0.6c0-0.1,0-0.1-0.1-0.2
		C225.7,14,225.6,14,225.6,14.1z M226.9,11.2l-0.8,1.8c0,0.1,0,0.1,0.1,0.2c0.1,0,0.2,0,0.2-0.1l0.8-1.8c0-0.1,0-0.1-0.1-0.2
		C227,11.1,226.9,11.1,226.9,11.2L226.9,11.2z M221.3,10.1l-0.6,0.2c-0.1,0-0.1,0.1-0.1,0.2c0,0.1,0.1,0.1,0.2,0.1l0.6-0.2
		c0.1,0,0.1-0.1,0.1-0.2C221.4,10.1,221.4,10,221.3,10.1z M224.5,8.8l-2,0.7c-0.1,0-0.1,0.1-0.1,0.2c0,0.1,0.1,0.1,0.2,0.1l2-0.7
		c0.1,0,0.1-0.1,0.1-0.2C224.7,8.8,224.6,8.8,224.5,8.8z M228.6,12.9v2.4c0,0.1,0.1,0.1,0.1,0.1c0.1,0,0.1-0.1,0.1-0.1v-2.4
		c0-0.1-0.1-0.1-0.1-0.1C228.7,12.8,228.6,12.8,228.6,12.9z M222.7,7.2h-2.7c-0.1,0-0.1,0.1-0.1,0.1c0,0.1,0.1,0.1,0.1,0.1h2.7
		c0.1,0,0.1-0.1,0.1-0.1C222.9,7.3,222.8,7.2,222.7,7.2z M224.4,11.2l-1.9,1.7c-0.1,0.1-0.1,0.1,0,0.2c0.1,0.1,0.1,0.1,0.2,0
		l1.9-1.7c0.1-0.1,0.1-0.1,0-0.2C224.5,11.1,224.5,11.1,224.4,11.2z M227.9,8.2c0.4,0.4,0.7,0.8,0.9,1.3c0.2-0.5,0.5-0.9,0.9-1.3
		c0.4-0.4,0.9-0.6,1.4-0.8c-0.6-0.2-1-0.4-1.4-0.8c-0.4-0.4-0.7-0.8-0.9-1.3c-0.2,0.5-0.5,0.9-0.9,1.3c-0.4,0.4-0.9,0.6-1.4,0.8
		C227,7.5,227.5,7.8,227.9,8.2z M228.6,10.2c0,0.2,0.3,0.2,0.3,0c0-0.7,0.4-1.4,0.9-1.9s1.3-0.8,2.1-0.8c0.2,0,0.2-0.3,0-0.3
		c-0.8,0-1.5-0.3-2.1-0.8c-0.5-0.5-0.9-1.2-0.9-1.9c0-0.2-0.3-0.2-0.3,0c0,0.7-0.4,1.4-0.9,1.9c-0.5,0.5-1.3,0.8-2.1,0.8
		c-0.2,0-0.2,0.3,0,0.3c0.8,0,1.5,0.3,2.1,0.8C228.3,8.8,228.6,9.5,228.6,10.2z M211.4,9.3l1.6,1.4l1.6-1.4H211.4z M207.5,9.3
		l1.6,1.4l1.6-1.4H207.5L207.5,9.3z M203.7,9.3l1.6,1.4l1.6-1.4H203.7z M199.9,9.3l1.6,1.4l1.6-1.4H199.9L199.9,9.3z M196,9.3
		l1.6,1.4l1.6-1.4H196L196,9.3z M192.2,9.3l1.6,1.4l1.6-1.4H192.2L192.2,9.3z M188.3,9.3l1.6,1.4l1.6-1.4H188.3L188.3,9.3z
		 M184.5,9.3l1.6,1.4l1.6-1.4H184.5L184.5,9.3z M180.6,9.3l1.6,1.4l1.6-1.4H180.6z M176.8,9.3l1.6,1.4l1.6-1.4H176.8L176.8,9.3z
		 M173,9.3l1.6,1.4l1.6-1.4H173z M169.1,9.3l1.6,1.4l1.6-1.4H169.1L169.1,9.3z M165.3,9.3l1.6,1.4l1.6-1.4H165.3L165.3,9.3z
		 M161.4,9.3l1.6,1.4l1.6-1.4H161.4L161.4,9.3z M157.6,9.3l1.6,1.4l1.6-1.4H157.6L157.6,9.3z M231.9,25.4v-5.2h-3v5.2H231.9z
		 M230.6,24.4V23h0.4c0.1,0,0.1-0.1,0.1-0.1c0-0.1-0.1-0.1-0.1-0.1h-0.4v-1.4c0-0.1-0.1-0.1-0.1-0.1c-0.1,0-0.1,0.1-0.1,0.1v1.4
		h-0.4c-0.1,0-0.1,0.1-0.1,0.1c0,0.1,0.1,0.1,0.1,0.1h0.4v1.4c0,0.1,0.1,0.1,0.1,0.1C230.5,24.5,230.6,24.5,230.6,24.4z M231.9,30.9
		v-5.2h-3v5.2H231.9z M230.3,26.7v1.4h-0.4c-0.1,0-0.1,0.1-0.1,0.1s0.1,0.1,0.1,0.1h0.4v1.4c0,0.1,0.1,0.1,0.1,0.1
		c0.1,0,0.1-0.1,0.1-0.1v-1.4h0.4c0.1,0,0.1-0.1,0.1-0.1c0-0.1-0.1-0.1-0.1-0.1h-0.4v-1.4c0-0.1-0.1-0.1-0.1-0.1
		C230.3,26.6,230.3,26.7,230.3,26.7z M231.9,36.4v-5.2h-3v5.2C228.9,36.4,231.9,36.4,231.9,36.4z M231.9,41.9v-5.2h-3v5.2H231.9z
		 M230.3,37.7v1.4h-0.4c-0.1,0-0.1,0.1-0.1,0.1s0.1,0.1,0.1,0.1h0.4v1.4c0,0.1,0.1,0.1,0.1,0.1c0.1,0,0.1-0.1,0.1-0.1v-1.4h0.4
		c0.1,0,0.1-0.1,0.1-0.1s-0.1-0.1-0.1-0.1h-0.4v-1.4c0-0.1-0.1-0.1-0.1-0.1C230.3,37.6,230.3,37.6,230.3,37.7z M230.6,35.4v-1.4h0.4
		c0.1,0,0.1-0.1,0.1-0.1c0-0.1-0.1-0.1-0.1-0.1h-0.4v-1.4c0-0.1-0.1-0.1-0.1-0.1c-0.1,0-0.1,0.1-0.1,0.1v1.4h-0.4
		c-0.1,0-0.1,0.1-0.1,0.1c0,0.1,0.1,0.1,0.1,0.1h0.4v1.4c0,0.1,0.1,0.1,0.1,0.1C230.5,35.5,230.6,35.4,230.6,35.4z M231.9,63.9v-5.2
		h-3v5.2H231.9z M230.3,59.7v1.4h-0.4c-0.1,0-0.1,0.1-0.1,0.1c0,0.1,0.1,0.1,0.1,0.1h0.4v1.4c0,0.1,0.1,0.1,0.1,0.1
		c0.1,0,0.1-0.1,0.1-0.1v-1.4h0.4c0.1,0,0.1-0.1,0.1-0.1c0-0.1-0.1-0.1-0.1-0.1h-0.4v-1.4c0-0.1-0.1-0.1-0.1-0.1
		C230.3,59.5,230.3,59.6,230.3,59.7z M231.9,58.4v-5.2h-3v5.2H231.9z M230.6,57.3v-1.4h0.4c0.1,0,0.1-0.1,0.1-0.1s-0.1-0.1-0.1-0.1
		h-0.4v-1.4c0-0.1-0.1-0.1-0.1-0.1c-0.1,0-0.1,0.1-0.1,0.1v1.4h-0.4c-0.1,0-0.1,0.1-0.1,0.1c0,0.1,0.1,0.1,0.1,0.1h0.4v1.4
		c0,0.1,0.1,0.1,0.1,0.1C230.5,57.5,230.6,57.4,230.6,57.3z M231.9,47.4v-5.2h-3v5.2H231.9z M231.9,52.9v-5.2h-3v5.2H231.9z
		 M230.6,46.4v-1.4h0.4c0.1,0,0.1-0.1,0.1-0.1c0-0.1-0.1-0.1-0.1-0.1h-0.4v-1.4c0-0.1-0.1-0.1-0.1-0.1c-0.1,0-0.1,0.1-0.1,0.1v1.4
		h-0.4c-0.1,0-0.1,0.1-0.1,0.1c0,0.1,0.1,0.1,0.1,0.1h0.4v1.4c0,0.1,0.1,0.1,0.1,0.1C230.5,46.5,230.6,46.4,230.6,46.4z M230.3,48.7
		v1.4h-0.4c-0.1,0-0.1,0.1-0.1,0.1s0.1,0.1,0.1,0.1h0.4v1.4c0,0.1,0.1,0.1,0.1,0.1c0.1,0,0.1-0.1,0.1-0.1v-1.4h0.4
		c0.1,0,0.1-0.1,0.1-0.1s-0.1-0.1-0.1-0.1h-0.4v-1.4c0-0.1-0.1-0.1-0.1-0.1C230.3,48.6,230.3,48.6,230.3,48.7z M219.8,19.4l-4,5.4
		c0,0.1,0,0.1,0,0.2c0.1,0,0.2,0,0.2,0l4-5.4c0-0.1,0-0.1,0-0.2C219.9,19.3,219.8,19.3,219.8,19.4z M212.9,22.5
		c0-0.2-0.1-0.3-0.2-0.5s-0.3-0.2-0.5-0.2c-0.2,0-0.4,0.1-0.5,0.2c-0.1,0.1-0.2,0.3-0.2,0.5c0,0.2,0.1,0.3,0.2,0.5
		c0.1,0.1,0.3,0.2,0.5,0.2c0.2,0,0.4-0.1,0.5-0.2C212.8,22.9,212.9,22.7,212.9,22.5z M217.4,17.6l-4.7,4.2c-0.2-0.1-0.4-0.2-0.6-0.2
		c-0.3,0-0.5,0.1-0.7,0.3c-0.2,0.2-0.3,0.4-0.3,0.7c0,0.3,0.1,0.5,0.3,0.7c0.2,0.2,0.4,0.3,0.7,0.3c0.3,0,0.5-0.1,0.7-0.3
		c0.2-0.2,0.3-0.4,0.3-0.7c0-0.2-0.1-0.4-0.2-0.6l4.7-4.2c0.1-0.1,0.1-0.1,0-0.2C217.5,17.5,217.5,17.5,217.4,17.6L217.4,17.6z
		 M221.8,24.3c0-0.2-0.1-0.3-0.2-0.5c-0.1-0.1-0.3-0.2-0.5-0.2c-0.2,0-0.4,0.1-0.5,0.2c-0.1,0.1-0.2,0.3-0.2,0.5
		c0,0.2,0.1,0.3,0.2,0.5c0.1,0.1,0.3,0.2,0.5,0.2c0.2,0,0.4-0.1,0.5-0.2C221.7,24.6,221.8,24.4,221.8,24.3z M222.5,20.7l-1.2,2.6
		c-0.1,0-0.2,0-0.2,0c-0.3,0-0.5,0.1-0.7,0.3c-0.2,0.2-0.3,0.4-0.3,0.7c0,0.3,0.1,0.5,0.3,0.7c0.2,0.2,0.4,0.3,0.7,0.3
		c0.3,0,0.5-0.1,0.7-0.3c0.2-0.2,0.3-0.4,0.3-0.7s-0.1-0.5-0.3-0.7c-0.1-0.1-0.1-0.1-0.2-0.1l1.2-2.6c0-0.1,0-0.1-0.1-0.2
		C222.7,20.6,222.6,20.7,222.5,20.7z M215.4,15.3l-5.9,3.6c-0.1,0-0.1,0.1,0,0.2c0,0.1,0.1,0.1,0.2,0l5.9-3.6c0.1,0,0.1-0.1,0-0.2
		C215.6,15.3,215.5,15.3,215.4,15.3z M210.7,13.9c-0.1-0.1-0.3-0.2-0.5-0.2s-0.4,0.1-0.5,0.2c-0.1,0.1-0.2,0.3-0.2,0.5
		c0,0.2,0.1,0.3,0.2,0.5c0.1,0.1,0.3,0.2,0.5,0.2c0.2,0,0.4-0.1,0.5-0.2c0.1-0.1,0.2-0.3,0.2-0.5C211,14.2,210.9,14,210.7,13.9z
		 M214,12.8l-2.9,1.1c0-0.1-0.1-0.1-0.2-0.2c-0.2-0.2-0.4-0.3-0.7-0.3c-0.3,0-0.5,0.1-0.7,0.3c-0.2,0.2-0.3,0.4-0.3,0.7
		c0,0.3,0.1,0.5,0.3,0.7c0.2,0.2,0.4,0.3,0.7,0.3c0.3,0,0.5-0.1,0.7-0.3c0.2-0.2,0.3-0.4,0.3-0.7c0-0.1,0-0.2,0-0.2l2.9-1.1
		c0.1,0,0.1-0.1,0.1-0.2C214.1,12.8,214.1,12.8,214,12.8L214,12.8z M214.7,7.2V4.5h-5.7v2.7H214.7z M210.1,6h1.6v0.4
		c0,0.1,0.1,0.1,0.1,0.1c0.1,0,0.1-0.1,0.1-0.1V6h1.6c0.1,0,0.1-0.1,0.1-0.1c0-0.1-0.1-0.1-0.1-0.1H212V5.4c0-0.1-0.1-0.1-0.1-0.1
		c-0.1,0-0.1,0.1-0.1,0.1v0.4h-1.6c-0.1,0-0.1,0.1-0.1,0.1C209.9,6,210,6,210.1,6z M208.7,7.2V4.5h-5.7v2.7H208.7z M207.5,5.7h-1.6
		V5.4c0-0.1-0.1-0.1-0.1-0.1s-0.1,0.1-0.1,0.1v0.4H204c-0.1,0-0.1,0.1-0.1,0.1C203.9,6,204,6,204,6h1.6v0.4c0,0.1,0.1,0.1,0.1,0.1
		c0.1,0,0.1-0.1,0.1-0.1V6h1.6c0.1,0,0.1-0.1,0.1-0.1C207.7,5.8,207.6,5.7,207.5,5.7z M196.6,7.2V4.5h-5.7v2.7H196.6z M202.6,7.2
		V4.5h-5.7v2.7H202.6z M195.4,5.7h-1.6V5.4c0-0.1-0.1-0.1-0.1-0.1c-0.1,0-0.1,0.1-0.1,0.1v0.4H192c-0.1,0-0.1,0.1-0.1,0.1
		c0,0.1,0.1,0.1,0.1,0.1h1.6v0.4c0,0.1,0.1,0.1,0.1,0.1c0.1,0,0.1-0.1,0.1-0.1V6h1.6c0.1,0,0.1-0.1,0.1-0.1
		C195.6,5.8,195.5,5.7,195.4,5.7z M198,6h1.6v0.4c0,0.1,0.1,0.1,0.1,0.1s0.1-0.1,0.1-0.1V6h1.6c0.1,0,0.1-0.1,0.1-0.1
		c0-0.1-0.1-0.1-0.1-0.1h-1.6V5.4c0-0.1-0.1-0.1-0.1-0.1c-0.1,0-0.1,0.1-0.1,0.1v0.4H198c-0.1,0-0.1,0.1-0.1,0.1
		C197.9,6,197.9,6,198,6z M172.5,7.2V4.5h-5.7v2.7H172.5z M171.3,5.7h-1.6V5.4c0-0.1-0.1-0.1-0.1-0.1c-0.1,0-0.1,0.1-0.1,0.1v0.4
		h-1.6c-0.1,0-0.1,0.1-0.1,0.1c0,0.1,0.1,0.1,0.1,0.1h1.6v0.4c0,0.1,0.1,0.1,0.1,0.1c0.1,0,0.1-0.1,0.1-0.1V6h1.6
		c0.1,0,0.1-0.1,0.1-0.1C171.5,5.8,171.4,5.7,171.3,5.7z M178.5,7.2V4.5h-5.7v2.7H178.5z M173.9,6h1.6v0.4c0,0.1,0.1,0.1,0.1,0.1
		s0.1-0.1,0.1-0.1V6h1.6c0.1,0,0.1-0.1,0.1-0.1c0-0.1-0.1-0.1-0.1-0.1h-1.6V5.4c0-0.1-0.1-0.1-0.1-0.1c-0.1,0-0.1,0.1-0.1,0.1v0.4
		h-1.6c-0.1,0-0.1,0.1-0.1,0.1C173.7,6,173.8,6,173.9,6z M184.5,7.2V4.5h-5.7v2.7H184.5z M190.6,7.2V4.5h-5.7v2.7H190.6z M185.9,6
		h1.6v0.4c0,0.1,0.1,0.1,0.1,0.1c0.1,0,0.1-0.1,0.1-0.1V6h1.6c0.1,0,0.1-0.1,0.1-0.1c0-0.1-0.1-0.1-0.1-0.1h-1.6V5.4
		c0-0.1-0.1-0.1-0.1-0.1s-0.1,0.1-0.1,0.1v0.4h-1.6c-0.1,0-0.1,0.1-0.1,0.1C185.8,6,185.9,6,185.9,6z M183.4,5.7h-1.6V5.4
		c0-0.1-0.1-0.1-0.1-0.1c-0.1,0-0.1,0.1-0.1,0.1v0.4h-1.6c-0.1,0-0.1,0.1-0.1,0.1c0,0.1,0.1,0.1,0.1,0.1h1.6v0.4
		c0,0.1,0.1,0.1,0.1,0.1s0.1-0.1,0.1-0.1V6h1.6c0.1,0,0.1-0.1,0.1-0.1C183.5,5.8,183.5,5.7,183.4,5.7z M142.3,7.2V4.5h-5.7v2.7
		H142.3z M137.7,6h1.6v0.4c0,0.1,0.1,0.1,0.1,0.1s0.1-0.1,0.1-0.1V6h1.6c0.1,0,0.1-0.1,0.1-0.1c0-0.1-0.1-0.1-0.1-0.1h-1.6V5.4
		c0-0.1-0.1-0.1-0.1-0.1c-0.1,0-0.1,0.1-0.1,0.1v0.4h-1.6c-0.1,0-0.1,0.1-0.1,0.1C137.5,6,137.6,6,137.7,6z M166.4,7.2V4.5h-5.7v2.7
		H166.4z M161.8,6h1.6v0.4c0,0.1,0.1,0.1,0.1,0.1c0.1,0,0.1-0.1,0.1-0.1V6h1.6c0.1,0,0.1-0.1,0.1-0.1c0-0.1-0.1-0.1-0.1-0.1h-1.6
		V5.4c0-0.1-0.1-0.1-0.1-0.1s-0.1,0.1-0.1,0.1v0.4h-1.6c-0.1,0-0.1,0.1-0.1,0.1C161.7,6,161.7,6,161.8,6z M160.4,7.2V4.5h-5.7v2.7
		H160.4z M159.2,5.7h-1.6V5.4c0-0.1-0.1-0.1-0.1-0.1c-0.1,0-0.1,0.1-0.1,0.1v0.4h-1.6c-0.1,0-0.1,0.1-0.1,0.1c0,0.1,0.1,0.1,0.1,0.1
		h1.6v0.4c0,0.1,0.1,0.1,0.1,0.1s0.1-0.1,0.1-0.1V6h1.6c0.1,0,0.1-0.1,0.1-0.1C159.4,5.8,159.3,5.7,159.2,5.7z M148.3,7.2V4.5h-5.7
		v2.7H148.3z M154.4,7.2V4.5h-5.7v2.7H154.4z M147.2,5.7h-1.6V5.4c0-0.1-0.1-0.1-0.1-0.1s-0.1,0.1-0.1,0.1v0.4h-1.6
		c-0.1,0-0.1,0.1-0.1,0.1c0,0.1,0.1,0.1,0.1,0.1h1.6v0.4c0,0.1,0.1,0.1,0.1,0.1s0.1-0.1,0.1-0.1V6h1.6c0.1,0,0.1-0.1,0.1-0.1
		C147.3,5.8,147.3,5.7,147.2,5.7z M149.8,6h1.6v0.4c0,0.1,0.1,0.1,0.1,0.1c0.1,0,0.1-0.1,0.1-0.1V6h1.6c0.1,0,0.1-0.1,0.1-0.1
		c0-0.1-0.1-0.1-0.1-0.1h-1.6V5.4c0-0.1-0.1-0.1-0.1-0.1c-0.1,0-0.1,0.1-0.1,0.1v0.4h-1.6c-0.1,0-0.1,0.1-0.1,0.1
		C149.6,6,149.7,6,149.8,6z M232,4.3l-0.6,0.6c-0.1,0.1-0.1,0.1,0,0.2c0.1,0.1,0.1,0.1,0.2,0l0.6-0.6c0.1-0.1,0.1-0.1,0-0.2
		C232.1,4.2,232,4.2,232,4.3z M226.7,20.3l-1.6,1.4l1.6,1.4C226.7,23.2,226.7,20.3,226.7,20.3z M226.7,23.8l-1.6,1.4l1.6,1.4
		C226.7,26.6,226.7,23.8,226.7,23.8z M226.7,27.2l-1.6,1.4l1.6,1.4V27.2z M226.7,30.7l-1.6,1.4l1.6,1.4
		C226.7,33.5,226.7,30.7,226.7,30.7z M226.7,34.1l-1.6,1.4l1.6,1.4C226.7,36.9,226.7,34.1,226.7,34.1z M226.7,37.6l-1.6,1.4l1.6,1.4
		C226.7,40.4,226.7,37.6,226.7,37.6z M226.7,51.3l-1.6,1.4l1.6,1.4C226.7,54.1,226.7,51.3,226.7,51.3z M226.7,47.9l-1.6,1.4l1.6,1.4
		C226.7,50.7,226.7,47.9,226.7,47.9z M226.7,44.4l-1.6,1.4l1.6,1.4C226.7,47.3,226.7,44.4,226.7,44.4z M226.7,41l-1.6,1.4l1.6,1.4
		C226.7,43.8,226.7,41,226.7,41z M226.7,54.8l-1.6,1.4l1.6,1.4C226.7,57.6,226.7,54.8,226.7,54.8z M226.7,58.2l-1.6,1.4l1.6,1.4
		C226.7,61,226.7,58.2,226.7,58.2z M231.9,69.3v-5.2h-3v5.2H231.9z M231.9,75v-5.4h-3V75H231.9z M230.6,68.3v-1.4h0.4
		c0.1,0,0.1-0.1,0.1-0.1c0-0.1-0.1-0.1-0.1-0.1h-0.4v-1.4c0-0.1-0.1-0.1-0.1-0.1c-0.1,0-0.1,0.1-0.1,0.1v1.4h-0.4
		c-0.1,0-0.1,0.1-0.1,0.1s0.1,0.1,0.1,0.1h0.4v1.4c0,0.1,0.1,0.1,0.1,0.1C230.5,68.4,230.6,68.4,230.6,68.3z M130.7,7.2V4.5H125v2.7
		H130.7z M136.3,7.2V4.5H131v2.7H136.3z M129.6,5.7H128V5.4c0-0.1-0.1-0.1-0.1-0.1c-0.1,0-0.1,0.1-0.1,0.1v0.4h-1.6
		c-0.1,0-0.1,0.1-0.1,0.1C126,6,126,6,126.1,6h1.6v0.4c0,0.1,0.1,0.1,0.1,0.1s0.1-0.1,0.1-0.1V6h1.6c0.1,0,0.1-0.1,0.1-0.1
		C129.7,5.8,129.6,5.7,129.6,5.7z M132.1,6h1.3v0.4c0,0.1,0,0.1,0.1,0.1l0,0l0,0l0,0l0,0l0,0l0,0h0v0h0l0,0h0l0,0h0l0,0l0,0l0,0l0,0
		l0,0l0,0l0,0c0.1,0,0.1-0.1,0.1-0.1V6h1.3c0.1,0,0.1-0.1,0.1-0.1c0-0.1-0.1-0.1-0.1-0.1h-1.3V5.4c0-0.1,0-0.1-0.1-0.1l0,0l0,0l0,0
		l0,0l0,0l0,0l0,0l0,0h0l0,0h0v0h0l0,0l0,0l0,0l0,0l0,0l0,0c-0.1,0-0.1,0.1-0.1,0.1v0.4h-1.3c-0.1,0-0.1,0.1-0.1,0.1
		C132,6,132.1,6,132.1,6z M118.8,142.7H21.1c0-3-1.4-5.8-3.6-7.8c-2.2-2-5.2-3.2-8.5-3.3V18.5c3.3,0,6.3-1.3,8.5-3.3
		c2.2-2,3.6-4.7,3.6-7.8h195.4c0,3,1.4,5.8,3.6,7.8c2.2,2,5.2,3.2,8.5,3.3v113.2c-3.3,0-6.3,1.3-8.5,3.3c-2.2,2-3.5,4.7-3.6,7.8
		H118.8z M118.8,4.3h97.8c0.1,0,0.1,0.1,0.1,0.1c0,0.1-0.1,0.1-0.1,0.1H215v2.7h1.7c0.1,0,0.1,0.1,0.1,0.1c0,3,1.3,5.7,3.5,7.7
		c2.2,2,5.2,3.2,8.5,3.2c0.1,0,0.1,0.1,0.1,0.1v1.5h3v-1.5c0-0.1,0.1-0.1,0.1-0.1c0.1,0,0.1,0.1,0.1,0.1v113.4
		c0,0.1-0.1,0.1-0.1,0.1c-0.1,0-0.1-0.1-0.1-0.1v-1.5h-3v1.5c0,0.1-0.1,0.1-0.1,0.1c-3.3,0-6.3,1.2-8.5,3.2c-2.2,2-3.5,4.7-3.5,7.7
		c0,0.1-0.1,0.1-0.1,0.1H215v2.7h1.7c0.1,0,0.1,0.1,0.1,0.1c0,0.1-0.1,0.1-0.1,0.1H21c-0.1,0-0.1-0.1-0.1-0.1c0-0.1,0.1-0.1,0.1-0.1
		h1.7V143H21c-0.1,0-0.1-0.1-0.1-0.1c0-3-1.3-5.7-3.5-7.7c-2.2-2-5.2-3.2-8.5-3.2c-0.1,0-0.1-0.1-0.1-0.1v-1.5h-3v1.5
		c0,0.1-0.1,0.1-0.1,0.1c-0.1,0-0.1-0.1-0.1-0.1V18.4c0-0.1,0.1-0.1,0.1-0.1c0.1,0,0.1,0.1,0.1,0.1v1.5h3v-1.5
		c0-0.1,0.1-0.1,0.1-0.1c3.3,0,6.3-1.2,8.5-3.2c2.2-2,3.5-4.7,3.5-7.7c0-0.1,0.1-0.1,0.1-0.1h1.7V4.5H21c-0.1,0-0.1-0.1-0.1-0.1
		c0-0.1,0.1-0.1,0.1-0.1L118.8,4.3L118.8,4.3z M124.7,7.2V4.5H119v2.7H124.7z M120.1,6c-0.1,0-0.1-0.1-0.1-0.1
		c0-0.1,0.1-0.1,0.1-0.1h1.6V5.4c0-0.1,0.1-0.1,0.1-0.1c0.1,0,0.1,0.1,0.1,0.1v0.4h1.6c0.1,0,0.1,0.1,0.1,0.1c0,0.1-0.1,0.1-0.1,0.1
		h-1.6v0.4c0,0.1-0.1,0.1-0.1,0.1c-0.1,0-0.1-0.1-0.1-0.1V6H120.1z M226.7,61.7l-1.6,1.4l1.6,1.4C226.7,64.5,226.7,61.7,226.7,61.7z
		 M226.7,65.1l-1.6,1.4l1.6,1.4C226.7,67.9,226.7,65.1,226.7,65.1z M226.7,68.5l-1.6,1.4l1.6,1.4C226.7,71.4,226.7,68.5,226.7,68.5z
		 M226.7,72l-1.6,1.4l1.6,1.4C226.7,74.8,226.7,72,226.7,72z M149.9,9.3l1.6,1.4l1.6-1.4H149.9z M146.1,9.3l1.6,1.4l1.6-1.4H146.1
		L146.1,9.3z M142.2,9.3l1.6,1.4l1.6-1.4H142.2z M138.4,9.3l1.6,1.4l1.6-1.4H138.4L138.4,9.3z M134.5,9.3l1.6,1.4l1.6-1.4H134.5z
		 M130.7,9.3l1.6,1.4l1.6-1.4H130.7z M119.2,9.3l1.6,1.4l1.6-1.4H119.2L119.2,9.3z M123,9.3l1.6,1.4l1.6-1.4H123z M126.9,9.3
		l1.6,1.4l1.6-1.4H126.9L126.9,9.3z M118.8,9h96c0.1,0,0.1,0,0.1,0.1c0.4,2.8,1.8,5.3,3.9,7.2c2.1,1.9,4.8,3.2,7.9,3.6
		c0.1,0,0.1,0.1,0.1,0.1v110.2c0,0.1-0.1,0.1-0.1,0.1c-3.1,0.4-5.8,1.7-7.9,3.6c-2.1,1.9-3.5,4.4-3.9,7.2c0,0.1-0.1,0.1-0.1,0.1
		H22.8c-0.1,0-0.1,0-0.1-0.1c-0.4-2.8-1.8-5.3-3.9-7.2c-2.1-1.9-4.8-3.2-7.9-3.6c-0.1,0-0.1-0.1-0.1-0.1V20c0-0.1,0.1-0.1,0.1-0.1
		c3.1-0.4,5.8-1.7,7.9-3.6c2.1-1.9,3.5-4.4,3.9-7.2C22.6,9,22.7,9,22.8,9L118.8,9L118.8,9z M130.4,9.3l1.8,1.6
		c0.1,0.1,0.1,0.1,0.2,0l1.8-1.6L136,11c0.1,0.1,0.1,0.1,0.2,0l1.8-1.6l1.8,1.6c0.1,0.1,0.1,0.1,0.2,0l1.8-1.6l1.8,1.6
		c0.1,0.1,0.1,0.1,0.2,0l1.8-1.6l1.8,1.6c0.1,0.1,0.1,0.1,0.2,0l1.8-1.6l1.8,1.6c0.1,0.1,0.1,0.1,0.2,0l1.8-1.6l1.8,1.6
		c0.1,0.1,0.1,0.1,0.2,0l1.8-1.6l1.8,1.6c0.1,0.1,0.1,0.1,0.2,0l1.8-1.6l1.8,1.6c0.1,0.1,0.1,0.1,0.2,0l1.8-1.6l1.8,1.6
		c0.1,0.1,0.1,0.1,0.2,0l1.8-1.6l1.8,1.6c0.1,0.1,0.1,0.1,0.2,0l1.8-1.6l1.8,1.6c0.1,0.1,0.1,0.1,0.2,0l1.8-1.6l1.8,1.6
		c0.1,0.1,0.1,0.1,0.2,0l1.8-1.6l1.8,1.6c0.1,0.1,0.1,0.1,0.2,0l1.8-1.6L186,11c0.1,0.1,0.1,0.1,0.2,0l1.8-1.6l1.8,1.6
		c0.1,0.1,0.1,0.1,0.2,0l1.8-1.6l1.8,1.6c0.1,0.1,0.1,0.1,0.2,0l1.8-1.6l1.8,1.6c0.1,0.1,0.1,0.1,0.2,0l1.8-1.6l1.8,1.6
		c0.1,0.1,0.1,0.1,0.2,0l1.8-1.6l1.8,1.6c0.1,0.1,0.1,0.1,0.2,0l1.8-1.6L209,11c0.1,0.1,0.1,0.1,0.2,0l1.8-1.6l1.8,1.6
		c0.1,0.1,0.1,0.1,0.2,0l1.7-1.6c0.5,2.8,1.9,5.2,4,7.1c2.1,1.9,4.8,3.2,7.8,3.6l-1.7,1.5c-0.1,0.1-0.1,0.1,0,0.2l1.8,1.6l-1.8,1.6
		c-0.1,0.1-0.1,0.1,0,0.2l1.8,1.6l-1.8,1.6c-0.1,0.1-0.1,0.1,0,0.2l1.8,1.6l-1.8,1.6c-0.1,0.1-0.1,0.1,0,0.2l1.8,1.6l-1.8,1.6
		c-0.1,0.1-0.1,0.1,0,0.2l1.8,1.6l-1.8,1.6c-0.1,0.1-0.1,0.1,0,0.2l1.8,1.6l-1.8,1.6c-0.1,0.1-0.1,0.1,0,0.2l1.8,1.6l-1.8,1.6
		c-0.1,0.1-0.1,0.1,0,0.2l1.8,1.6l-1.8,1.6c-0.1,0.1-0.1,0.1,0,0.2l1.8,1.6l-1.8,1.6c-0.1,0.1-0.1,0.1,0,0.2l1.8,1.6l-1.8,1.6
		c-0.1,0.1-0.1,0.1,0,0.2l1.8,1.6l-1.8,1.6c-0.1,0.1-0.1,0.1,0,0.2l1.8,1.6l-1.8,1.6c-0.1,0.1-0.1,0.1,0,0.2l1.8,1.6l-1.8,1.6
		c-0.1,0.1-0.1,0.1,0,0.2l1.8,1.6l-1.8,1.6c-0.1,0.1-0.1,0.1,0,0.2l1.8,1.6l-1.8,1.6c-0.1,0.1-0.1,0.1,0,0.2l1.8,1.6l-1.8,1.6
		c-0.1,0.1-0.1,0.1,0,0.2l1.8,1.6l-1.8,1.6c-0.1,0.1-0.1,0.1,0,0.2l1.8,1.6l-1.8,1.6c-0.1,0.1-0.1,0.1,0,0.2l1.8,1.6l-1.8,1.6
		c-0.1,0.1-0.1,0.1,0,0.2l1.8,1.6l-1.8,1.6c-0.1,0.1-0.1,0.1,0,0.2l1.8,1.6l-1.8,1.6c-0.1,0.1-0.1,0.1,0,0.2l1.8,1.6l-1.8,1.6
		c-0.1,0.1-0.1,0.1,0,0.2l1.8,1.6l-1.8,1.6c-0.1,0.1-0.1,0.1,0,0.2l1.8,1.6l-1.8,1.6c-0.1,0.1-0.1,0.1,0,0.2l1.8,1.6l-1.8,1.6
		c-0.1,0.1-0.1,0.1,0,0.2l1.8,1.6l-1.8,1.6c-0.1,0.1-0.1,0.1,0,0.2l1.8,1.6l-1.8,1.6c-0.1,0.1-0.1,0.1,0,0.2l1.8,1.6l-1.8,1.6
		c-0.1,0.1-0.1,0.1,0,0.2l1.8,1.6l-1.8,1.6c-0.1,0.1-0.1,0.1,0,0.2l1.8,1.6l-1.8,1.6c-0.1,0.1-0.1,0.1,0,0.2l1.8,1.6l-1.8,1.6
		c-0.1,0.1-0.1,0.1,0,0.2l1.7,1.5c-3,0.4-5.7,1.7-7.8,3.6c-2.1,1.9-3.5,4.3-4,7.1l-1.7-1.6c-0.1-0.1-0.1-0.1-0.2,0l-1.8,1.6
		l-1.8-1.6c-0.1-0.1-0.1-0.1-0.2,0l-1.8,1.6l-1.8-1.6c-0.1-0.1-0.1-0.1-0.2,0l-1.8,1.6l-1.8-1.6c-0.1-0.1-0.1-0.1-0.2,0l-1.8,1.6
		l-1.8-1.6c-0.1-0.1-0.1-0.1-0.2,0l-1.8,1.6l-1.8-1.6c-0.1-0.1-0.1-0.1-0.2,0l-1.8,1.6l-1.8-1.6c-0.1-0.1-0.1-0.1-0.2,0l-1.8,1.6
		l-1.8-1.6c-0.1-0.1-0.1-0.1-0.2,0l-1.8,1.6l-1.8-1.6c-0.1-0.1-0.1-0.1-0.2,0l-1.8,1.6l-1.8-1.6c-0.1-0.1-0.1-0.1-0.2,0l-1.8,1.6
		l-1.8-1.6c-0.1-0.1-0.1-0.1-0.2,0l-1.8,1.6l-1.8-1.6c-0.1-0.1-0.1-0.1-0.2,0l-1.8,1.6l-1.8-1.6c-0.1-0.1-0.1-0.1-0.2,0l-1.8,1.6
		l-1.8-1.6c-0.1-0.1-0.1-0.1-0.2,0l-1.8,1.6l-1.8-1.6c-0.1-0.1-0.1-0.1-0.2,0l-1.8,1.6l-1.8-1.6c-0.1-0.1-0.1-0.1-0.2,0l-1.8,1.6
		l-1.8-1.6c-0.1-0.1-0.1-0.1-0.2,0l-1.8,1.6l-1.8-1.6c-0.1-0.1-0.1-0.1-0.2,0l-1.8,1.6l-1.8-1.6c-0.1-0.1-0.1-0.1-0.2,0l-1.8,1.6
		l-1.8-1.6c-0.1-0.1-0.1-0.1-0.2,0l-1.8,1.6l-1.8-1.6c-0.1-0.1-0.1-0.1-0.2,0l-1.8,1.6l-1.8-1.6c-0.1-0.1-0.1-0.1-0.2,0l-1.8,1.6
		l-1.8-1.6c-0.1-0.1-0.1-0.1-0.2,0l-1.8,1.6l-1.8-1.6c-0.1-0.1-0.1-0.1-0.2,0l-1.8,1.6l-1.8-1.6c-0.1-0.1-0.1-0.1-0.2,0l-1.8,1.6
		l-1.8-1.6c-0.1-0.1-0.1-0.1-0.2,0l-1.8,1.6l-1.8-1.6c-0.1-0.1-0.1-0.1-0.2,0l-1.8,1.6l-1.8-1.6c-0.1-0.1-0.1-0.1-0.2,0l-1.8,1.6
		l-1.8-1.6c-0.1-0.1-0.1-0.1-0.2,0l-1.8,1.6l-1.8-1.6c-0.1-0.1-0.1-0.1-0.2,0l-1.8,1.6l-1.8-1.6c-0.1-0.1-0.1-0.1-0.2,0l-1.8,1.6
		l-1.8-1.6c-0.1-0.1-0.1-0.1-0.2,0l-1.8,1.6l-1.8-1.6c-0.1-0.1-0.1-0.1-0.2,0l-1.8,1.6l-1.8-1.6c-0.1-0.1-0.1-0.1-0.2,0l-1.8,1.6
		l-1.8-1.6c-0.1-0.1-0.1-0.1-0.2,0l-1.8,1.6l-1.8-1.6c-0.1-0.1-0.1-0.1-0.2,0l-1.8,1.6l-1.8-1.6c-0.1-0.1-0.1-0.1-0.2,0l-1.8,1.6
		l-1.8-1.6c-0.1-0.1-0.1-0.1-0.2,0l-1.8,1.6l-1.8-1.6c-0.1-0.1-0.1-0.1-0.2,0l-1.8,1.6l-1.8-1.6c-0.1-0.1-0.1-0.1-0.2,0l-1.8,1.6
		l-1.8-1.6c-0.1-0.1-0.1-0.1-0.2,0l-1.8,1.6l-1.8-1.6c-0.1-0.1-0.1-0.1-0.2,0l-1.8,1.6l-1.8-1.6c-0.1-0.1-0.1-0.1-0.2,0l-1.8,1.6
		l-1.8-1.6c-0.1-0.1-0.1-0.1-0.2,0l-1.8,1.6l-1.8-1.6c-0.1-0.1-0.1-0.1-0.2,0l-1.8,1.6l-1.8-1.6c-0.1-0.1-0.1-0.1-0.2,0l-1.8,1.6
		l-1.8-1.6c-0.1-0.1-0.1-0.1-0.2,0l-1.8,1.6l-1.8-1.6c-0.1-0.1-0.1-0.1-0.2,0l-1.8,1.6l-1.8-1.6c-0.1-0.1-0.1-0.1-0.2,0l-1.8,1.6
		l-1.8-1.6c-0.1-0.1-0.1-0.1-0.2,0l-1.7,1.6c-0.5-2.8-1.9-5.2-4-7.1c-2.1-1.9-4.8-3.2-7.8-3.6l1.7-1.5c0.1-0.1,0.1-0.1,0-0.2
		l-1.8-1.6l1.8-1.6c0.1-0.1,0.1-0.1,0-0.2l-1.8-1.6l1.8-1.6c0.1-0.1,0.1-0.1,0-0.2l-1.8-1.6l1.8-1.6c0.1-0.1,0.1-0.1,0-0.2l-1.8-1.6
		l1.8-1.6c0.1-0.1,0.1-0.1,0-0.2L11,113l1.8-1.6c0.1-0.1,0.1-0.1,0-0.2l-1.8-1.6l1.8-1.6c0.1-0.1,0.1-0.1,0-0.2l-1.8-1.6l1.8-1.6
		c0.1-0.1,0.1-0.1,0-0.2l-1.8-1.6l1.8-1.6c0.1-0.1,0.1-0.1,0-0.2L11,99.2l1.8-1.6c0.1-0.1,0.1-0.1,0-0.2L11,95.8l1.8-1.6
		c0.1-0.1,0.1-0.1,0-0.2L11,92.3l1.8-1.6c0.1-0.1,0.1-0.1,0-0.2L11,88.9l1.8-1.6c0.1-0.1,0.1-0.1,0-0.2L11,85.4l1.8-1.6
		c0.1-0.1,0.1-0.1,0-0.2L11,82l1.8-1.6c0.1-0.1,0.1-0.1,0-0.2L11,78.6l1.8-1.6c0.1-0.1,0.1-0.1,0-0.2L11,75.1l1.8-1.6
		c0.1-0.1,0.1-0.1,0-0.2L11,71.7l1.8-1.6c0.1-0.1,0.1-0.1,0-0.2L11,68.2l1.8-1.6c0.1-0.1,0.1-0.1,0-0.2L11,64.8l1.8-1.6
		c0.1-0.1,0.1-0.1,0-0.2L11,61.3l1.8-1.6c0.1-0.1,0.1-0.1,0-0.2L11,57.9l1.8-1.6c0.1-0.1,0.1-0.1,0-0.2L11,54.5l1.8-1.6
		c0.1-0.1,0.1-0.1,0-0.2L11,51l1.8-1.6c0.1-0.1,0.1-0.1,0-0.2L11,47.6l1.8-1.6c0.1-0.1,0.1-0.1,0-0.2L11,44.1l1.8-1.6
		c0.1-0.1,0.1-0.1,0-0.2L11,40.7l1.8-1.6c0.1-0.1,0.1-0.1,0-0.2L11,37.2l1.8-1.6c0.1-0.1,0.1-0.1,0-0.2L11,33.8l1.8-1.6
		c0.1-0.1,0.1-0.1,0-0.2L11,30.4l1.8-1.6c0.1-0.1,0.1-0.1,0-0.2L11,26.9l1.8-1.6c0.1-0.1,0.1-0.1,0-0.2L11,23.5l1.8-1.6
		c0.1-0.1,0.1-0.1,0-0.2l-1.7-1.5c3-0.4,5.7-1.7,7.8-3.6c2.1-1.9,3.5-4.3,4-7.1l1.7,1.6c0.1,0.1,0.1,0.1,0.2,0l1.8-1.6l1.8,1.6
		c0.1,0.1,0.1,0.1,0.2,0l1.8-1.6l1.8,1.6c0.1,0.1,0.1,0.1,0.2,0l1.8-1.6l1.8,1.6c0.1,0.1,0.1,0.1,0.2,0l1.8-1.6L40,11
		c0.1,0.1,0.1,0.1,0.2,0L42,9.3l1.8,1.6C43.9,11,44,11,44,11l1.8-1.6l1.8,1.6c0.1,0.1,0.1,0.1,0.2,0l1.8-1.6l1.8,1.6
		c0.1,0.1,0.1,0.1,0.2,0l1.8-1.6l1.8,1.6c0.1,0.1,0.1,0.1,0.2,0l1.8-1.6l1.8,1.6c0.1,0.1,0.1,0.1,0.2,0l1.8-1.6L63,11
		c0.1,0.1,0.1,0.1,0.2,0L65,9.3l1.8,1.6c0.1,0.1,0.1,0.1,0.2,0l1.8-1.6l1.8,1.6c0.1,0.1,0.1,0.1,0.2,0l1.8-1.6l1.8,1.6
		c0.1,0.1,0.1,0.1,0.2,0l1.8-1.6l1.8,1.6c0.1,0.1,0.1,0.1,0.2,0l1.8-1.6l1.8,1.6c0.1,0.1,0.1,0.1,0.2,0l1.8-1.6l1.8,1.6
		c0.1,0.1,0.1,0.1,0.2,0l1.8-1.6l1.8,1.6c0.1,0.1,0.1,0.1,0.2,0l1.8-1.6l1.8,1.6c0.1,0.1,0.1,0.1,0.2,0l1.8-1.6l1.8,1.6
		c0.1,0.1,0.1,0.1,0.2,0l1.8-1.6l1.8,1.6c0.1,0.1,0.1,0.1,0.2,0l1.8-1.6l1.8,1.6c0.1,0.1,0.1,0.1,0.2,0l1.8-1.6l1.8,1.6
		c0.1,0.1,0.1,0.1,0.2,0l1.8-1.6L113,11c0.1,0.1,0.1,0.1,0.2,0l1.8-1.6l1.8,1.6c0.1,0.1,0.1,0.1,0.2,0l1.8-1.6l1.8,1.6
		c0.1,0.1,0.1,0.1,0.2,0l1.8-1.6l1.8,1.6c0.1,0.1,0.1,0.1,0.2,0l1.8-1.6l1.8,1.6c0.1,0.1,0.1,0.1,0.2,0L130.4,9.3L130.4,9.3z
		 M153.8,9.3l1.6,1.4l1.6-1.4H153.8L153.8,9.3z M153.8,141l1.6-1.4l1.6,1.4H153.8L153.8,141z M83.9,141l-1.6-1.4l-1.6,1.4H83.9z
		 M144.2,106.7c-0.1,0-0.1,0-0.1-0.1c-0.6-0.8-1.6-1.6-3-2c-0.1,0-0.1-0.2,0-0.2c1.4-0.4,2.4-1.2,3-2c0,0,0.1-0.1,0.1-0.1
		c0,0,0.1,0,0.1,0.1c0.6,0.8,1.6,1.6,3,2c0.1,0,0.1,0.1,0.1,0.1c0,0.1,0,0.1-0.1,0.1c-1.4,0.4-2.4,1.2-3,2
		C144.3,106.6,144.3,106.7,144.2,106.7z M149.7,104.7c0.2,0,0.3-0.1,0.3-0.3c0-0.1-0.1-0.3-0.3-0.3c-2.3,0-5.2-1.5-5.2-3.2
		c0-0.1-0.1-0.3-0.3-0.3s-0.3,0.1-0.3,0.3c0,1.7-2.9,3.2-5.2,3.2c-0.2,0-0.3,0.1-0.3,0.3c0,0.1,0.1,0.3,0.3,0.3
		c2.3,0,5.2,1.5,5.2,3.2c0,0.1,0.1,0.3,0.3,0.3s0.3-0.1,0.3-0.3C144.5,106.2,147.4,104.7,149.7,104.7z M144.4,47.1
		c0.6,0.8,1.6,1.6,3,2c0.1,0,0.1,0.1,0.1,0.1c0,0.1,0,0.1-0.1,0.1c-1.4,0.4-2.4,1.2-3,2c0,0-0.1,0.1-0.1,0.1c-0.1,0-0.1,0-0.1-0.1
		c-0.6-0.8-1.6-1.6-3-2c-0.1,0-0.1-0.2,0-0.2c1.4-0.4,2.4-1.2,3-2c0,0,0.1-0.1,0.1-0.1C144.3,47.1,144.3,47.1,144.4,47.1z M144,45.8
		c0,1.7-2.9,3.2-5.2,3.2c-0.2,0-0.3,0.1-0.3,0.3c0,0.1,0.1,0.3,0.3,0.3c2.3,0,5.2,1.5,5.2,3.2c0,0.1,0.1,0.3,0.3,0.3
		s0.3-0.1,0.3-0.3c0-1.7,2.9-3.2,5.2-3.2c0.2,0,0.3-0.1,0.3-0.3c0-0.1-0.1-0.3-0.3-0.3c-2.3,0-5.2-1.5-5.2-3.2
		c0-0.1-0.1-0.3-0.3-0.3S144,45.7,144,45.8z M138.5,114.3c0.2,0.3,0.6,0.5,1,0.7c0,0,0.1,0.1,0.1,0.1s0,0.1-0.1,0.1
		c-0.4,0.2-0.7,0.4-1,0.7c0,0-0.1,0-0.1,0c0,0-0.1,0-0.1,0c-0.2-0.3-0.6-0.5-1-0.7c-0.1,0-0.1-0.2,0-0.2c0.4-0.2,0.7-0.4,1-0.7
		c0,0,0.1,0,0.1,0C138.4,114.3,138.4,114.3,138.5,114.3z M138.1,113.4c0,0.8-1.4,1.5-2.5,1.5c-0.2,0-0.3,0.1-0.3,0.3
		c0,0.1,0.1,0.3,0.3,0.3c1.1,0,2.5,0.7,2.5,1.5c0,0.1,0.1,0.3,0.3,0.3c0.2,0,0.3-0.1,0.3-0.3c0-0.8,1.4-1.5,2.5-1.5
		c0.2,0,0.3-0.1,0.3-0.3c0-0.1-0.1-0.3-0.3-0.3c-1.1,0-2.5-0.7-2.5-1.5c0-0.1-0.1-0.3-0.3-0.3C138.2,113.1,138.1,113.2,138.1,113.4z
		 M138.5,37.8c0.2,0.3,0.6,0.5,1,0.7c0,0,0.1,0.1,0.1,0.1c0,0,0,0.1-0.1,0.1c-0.4,0.2-0.7,0.4-1,0.7c0,0-0.1,0-0.1,0
		c0,0-0.1,0-0.1,0c-0.2-0.3-0.6-0.5-1-0.7c-0.1,0-0.1-0.2,0-0.2c0.4-0.2,0.7-0.4,1-0.7c0,0,0.1,0,0.1,0
		C138.4,37.7,138.4,37.8,138.5,37.8z M138.1,36.8c0,0.8-1.4,1.5-2.5,1.5c-0.2,0-0.3,0.1-0.3,0.3s0.1,0.3,0.3,0.3
		c1.1,0,2.5,0.7,2.5,1.5c0,0.1,0.1,0.3,0.3,0.3c0.2,0,0.3-0.1,0.3-0.3c0-0.8,1.4-1.5,2.5-1.5c0.2,0,0.3-0.1,0.3-0.3
		s-0.1-0.3-0.3-0.3c-1.1,0-2.5-0.7-2.5-1.5c0-0.1-0.1-0.3-0.3-0.3C138.2,36.6,138.1,36.7,138.1,36.8z M79.7,105.9
		c-0.3-0.3-0.5-0.7-0.5-1.2c0-0.5,0.2-0.9,0.5-1.2h0c0.3-0.3,0.8-0.5,1.3-0.5c0.5,0,1,0.2,1.3,0.5c0.3,0.3,0.5,0.7,0.5,1.2
		c0,0.5-0.2,0.9-0.5,1.2v0c-0.3,0.3-0.8,0.5-1.3,0.5C80.5,106.4,80,106.2,79.7,105.9L79.7,105.9z M86.8,105.6
		c-0.3-0.1-0.2-0.6,0.1-0.5l34.2,7.5c0.3,0.1,0.2,0.6-0.1,0.5L86.8,105.6z M87,103c-0.3,0.1-0.5-0.4-0.2-0.5l34.2-15
		c0.3-0.2,0.5,0.4,0.2,0.5L87,103L87,103z M86.9,104.3l34.2-7.5c0.3-0.1,0.2-0.6-0.1-0.5l-34.2,7.5
		C86.5,103.9,86.6,104.4,86.9,104.3z M86.8,107l34.2,15c0.3,0.2,0.5-0.4,0.2-0.5l-34.2-15C86.6,106.3,86.5,106.9,86.8,107L86.8,107z
		 M79.7,104.7c0,0.3,0.1,0.6,0.4,0.8c0.2,0.2,0.6,0.3,0.9,0.3c0.4,0,0.7-0.1,0.9-0.3c0.2-0.2,0.4-0.5,0.4-0.8c0-0.3-0.1-0.6-0.4-0.8
		c-0.2-0.2-0.6-0.3-0.9-0.3c-0.4,0-0.7,0.1-0.9,0.3C79.9,104.1,79.7,104.4,79.7,104.7L79.7,104.7z M79.7,50.2
		c-0.3-0.3-0.5-0.7-0.5-1.2c0-0.5,0.2-0.9,0.5-1.2h0c0.3-0.3,0.8-0.5,1.3-0.5c0.5,0,1,0.2,1.3,0.5c0.3,0.3,0.5,0.7,0.5,1.2
		c0,0.5-0.2,0.9-0.5,1.2v0c-0.3,0.3-0.8,0.5-1.3,0.5C80.5,50.7,80,50.5,79.7,50.2L79.7,50.2z M86.8,49.9c-0.3-0.1-0.2-0.6,0.1-0.5
		l34.2,7.5c0.3,0.1,0.2,0.6-0.1,0.5C121.1,57.4,86.8,49.9,86.8,49.9z M87,47.2c-0.3,0.1-0.5-0.4-0.2-0.5l34.2-15
		c0.3-0.2,0.5,0.4,0.2,0.5C121.2,32.2,87,47.2,87,47.2z M86.9,48.6l34.2-7.5c0.3-0.1,0.2-0.6-0.1-0.5l-34.2,7.5
		C86.5,48.2,86.6,48.7,86.9,48.6z M86.8,51.3l34.2,15c0.3,0.2,0.5-0.4,0.2-0.5L87,50.8C86.6,50.6,86.5,51.1,86.8,51.3z M79.7,49
		c0,0.3,0.1,0.6,0.4,0.8c0.2,0.2,0.6,0.3,0.9,0.3c0.4,0,0.7-0.1,0.9-0.3c0.2-0.2,0.4-0.5,0.4-0.8c0-0.3-0.1-0.6-0.4-0.8
		c-0.2-0.2-0.6-0.3-0.9-0.3c-0.4,0-0.7,0.1-0.9,0.3C79.9,48.4,79.7,48.7,79.7,49z M85.1,115.9c-0.2-0.3-0.6-0.5-1-0.7
		c-0.1,0-0.1-0.2,0-0.2c0.4-0.2,0.7-0.4,1-0.7c0,0,0.1,0,0.1,0c0,0,0.1,0,0.1,0c0.2,0.3,0.6,0.5,1,0.7c0,0,0.1,0.1,0.1,0.1
		s0,0.1-0.1,0.1c-0.4,0.2-0.7,0.4-1,0.7c0,0-0.1,0-0.1,0C85.2,116,85.1,116,85.1,115.9z M88,115.4c0.2,0,0.3-0.1,0.3-0.3
		c0-0.1-0.1-0.3-0.3-0.3c-1.1,0-2.5-0.7-2.5-1.5c0-0.1-0.1-0.3-0.3-0.3s-0.3,0.1-0.3,0.3c0,0.8-1.4,1.5-2.5,1.5
		c-0.2,0-0.3,0.1-0.3,0.3c0,0.1,0.1,0.3,0.3,0.3c1.1,0,2.5,0.7,2.5,1.5c0,0.1,0.1,0.3,0.3,0.3c0.2,0,0.3-0.1,0.3-0.3
		C85.5,116.1,86.9,115.4,88,115.4z M85.3,37.8c0.2,0.3,0.6,0.5,1,0.7c0,0,0.1,0.1,0.1,0.1c0,0,0,0.1-0.1,0.1c-0.4,0.2-0.7,0.4-1,0.7
		c0,0-0.1,0-0.1,0c0,0-0.1,0-0.1,0c-0.2-0.3-0.6-0.5-1-0.7c-0.1,0-0.1-0.2,0-0.2c0.4-0.2,0.7-0.4,1-0.7c0,0,0.1,0,0.1,0
		C85.3,37.7,85.3,37.8,85.3,37.8z M82.4,38.3c-0.2,0-0.3,0.1-0.3,0.3s0.1,0.3,0.3,0.3c1.1,0,2.5,0.7,2.5,1.5c0,0.1,0.1,0.3,0.3,0.3
		c0.2,0,0.3-0.1,0.3-0.3c0-0.8,1.4-1.5,2.5-1.5c0.2,0,0.3-0.1,0.3-0.3s-0.1-0.3-0.3-0.3c-1.1,0-2.5-0.7-2.5-1.5
		c0-0.1-0.1-0.3-0.3-0.3s-0.3,0.1-0.3,0.3C84.9,37.6,83.6,38.3,82.4,38.3z M103,85.3c0.2,0.3,0.6,0.5,1,0.7c0,0,0.1,0.1,0.1,0.1
		s0,0.1-0.1,0.1c-0.4,0.2-0.7,0.4-1,0.7c0,0-0.1,0-0.1,0c0,0-0.1,0-0.1,0c-0.2-0.3-0.6-0.5-1-0.7c-0.1,0-0.1-0.2,0-0.2
		c0.4-0.2,0.7-0.4,1-0.7c0,0,0.1,0,0.1,0C103,85.2,103,85.2,103,85.3z M102.9,84.1c-0.2,0-0.3,0.1-0.3,0.3c0,0.8-1.4,1.5-2.5,1.5
		c-0.2,0-0.3,0.1-0.3,0.3c0,0.1,0.1,0.3,0.3,0.3c1.1,0,2.5,0.7,2.5,1.5c0,0.1,0.1,0.3,0.3,0.3c0.2,0,0.3-0.1,0.3-0.3
		c0-0.8,1.4-1.5,2.5-1.5c0.2,0,0.3-0.1,0.3-0.3c0-0.1-0.1-0.3-0.3-0.3c-1.1,0-2.5-0.7-2.5-1.5C103.2,84.2,103.1,84.1,102.9,84.1z
		 M103,68.5c0,0-0.1,0-0.1,0c0,0-0.1,0-0.1,0c-0.2-0.3-0.6-0.5-1-0.7c-0.1,0-0.1-0.2,0-0.2c0.4-0.2,0.7-0.4,1-0.7c0,0,0.1,0,0.1,0
		c0,0,0.1,0,0.1,0c0.2,0.3,0.6,0.5,1,0.7c0,0,0.1,0.1,0.1,0.1c0,0,0,0.1-0.1,0.1C103.6,68,103.3,68.2,103,68.5z M106,67.7
		c0-0.1-0.1-0.3-0.3-0.3c-1.1,0-2.5-0.7-2.5-1.5c0-0.1-0.1-0.3-0.3-0.3c-0.2,0-0.3,0.1-0.3,0.3c0,0.8-1.4,1.5-2.5,1.5
		c-0.2,0-0.3,0.1-0.3,0.3s0.1,0.3,0.3,0.3c1.1,0,2.5,0.7,2.5,1.5c0,0.1,0.1,0.3,0.3,0.3c0.2,0,0.3-0.1,0.3-0.3
		c0-0.8,1.4-1.5,2.5-1.5C105.9,67.9,106,67.8,106,67.7z M52.2,95.3c0.4,0.5,1,0.9,1.8,1.2c0.1,0,0.1,0.1,0.1,0.1
		c0,0.1,0,0.1-0.1,0.1c-0.8,0.3-1.4,0.7-1.8,1.2c0,0-0.1,0.1-0.1,0.1c0,0-0.1,0-0.1-0.1c-0.4-0.5-1-0.9-1.8-1.2
		c-0.1,0-0.1-0.1-0.1-0.1c0-0.1,0-0.1,0.1-0.1c0.8-0.3,1.4-0.7,1.8-1.2c0,0,0.1-0.1,0.1-0.1C52.1,95.2,52.2,95.2,52.2,95.3z
		 M48.2,96.3c-0.2,0-0.3,0.1-0.3,0.3c0,0.1,0.1,0.3,0.3,0.3c1.6,0,3.6,1,3.6,2.2c0,0.1,0.1,0.3,0.3,0.3c0.2,0,0.3-0.1,0.3-0.3
		c0-1.2,2-2.2,3.6-2.2c0.2,0,0.3-0.1,0.3-0.3c0-0.1-0.1-0.3-0.3-0.3c-1.6,0-3.6-1-3.6-2.2c0-0.1-0.1-0.3-0.3-0.3
		c-0.2,0-0.3,0.1-0.3,0.3C51.8,95.3,49.8,96.3,48.2,96.3z M52.2,55.8c0.4,0.5,1,0.9,1.8,1.2c0.1,0,0.1,0.1,0.1,0.1s0,0.1-0.1,0.1
		c-0.8,0.3-1.4,0.7-1.8,1.2c0,0-0.1,0.1-0.1,0.1c0,0-0.1,0-0.1-0.1c-0.4-0.5-1-0.9-1.8-1.2c-0.1,0-0.1-0.2,0-0.2
		c0.8-0.3,1.4-0.7,1.8-1.2c0,0,0.1-0.1,0.1-0.1C52.1,55.7,52.2,55.7,52.2,55.8z M48.2,56.9c-0.2,0-0.3,0.1-0.3,0.3s0.1,0.3,0.3,0.3
		c1.6,0,3.6,1,3.6,2.2c0,0.1,0.1,0.3,0.3,0.3c0.2,0,0.3-0.1,0.3-0.3c0-1.2,2-2.2,3.6-2.2c0.2,0,0.3-0.1,0.3-0.3s-0.1-0.3-0.3-0.3
		c-1.6,0-3.6-1-3.6-2.2c0-0.1-0.1-0.3-0.3-0.3c-0.2,0-0.3,0.1-0.3,0.3C51.8,55.8,49.8,56.9,48.2,56.9z M66.6,78
		c-1.3-0.1-2.5-0.7-3.1-1.1c0.6-0.4,1.8-1,3.1-1.1c-0.1,0.4-0.1,0.8-0.1,1.1C66.5,77.2,66.5,77.6,66.6,78z M73.4,44.2
		c-0.1,1.8-1.6,3.3-3.4,4.8c-3.8,3-8.3,3.1-11.1,1.8c-2.2-1-3.4-2.8-3.4-4.9c0-0.2,0-0.4,0-0.6c0.3-3.1,2.8-4.3,5.1-4.2
		c1.1,0,2.5,0.4,2.9,1.4c-1.1-0.3-2.1-0.2-3.1,0.3c-1.2,0.7-2,1.9-2,3.2c0,1.9,1.3,4,4.8,4C66.9,50,71.9,47.6,73.4,44.2z
		 M73.4,109.6c-1.4-3.4-6.4-5.9-10.1-5.9c-3.6,0-4.8,2.1-4.8,4c0,1.2,0.8,2.5,2,3.2c0.9,0.5,2,0.6,3.1,0.3c-0.4,1-1.8,1.4-2.9,1.4
		c-2.3,0.1-4.8-1.2-5.1-4.2c0-0.2,0-0.4,0-0.6c0-2.1,1.2-3.9,3.4-4.9c2.8-1.3,7.3-1.3,11.1,1.8C71.7,106.3,73.3,107.8,73.4,109.6z
		 M56.7,76.9c0-3.4,1.3-6.6,3.7-9.2c0.1-0.1,0.1-0.2,0.1-0.3c0-0.1-0.1-0.2-0.2-0.3C60.2,67,60.1,67,59.9,67c-0.1,0-0.2,0.1-0.3,0.1
		c-2.5,2.7-3.9,6.2-3.9,9.7c0,3,1,5.9,2.8,8.4c0.1,0.1,0.2,0.2,0.3,0.2c0.1,0,0.2,0,0.3-0.1c0.1-0.1,0.2-0.2,0.2-0.3
		c0,0,0-0.1,0-0.1c0-0.1,0-0.2-0.1-0.2C57.6,82.5,56.7,79.7,56.7,76.9z M59.9,86.8c0,0.1,0,0.2,0.1,0.3c0.2,0.2,0.4,0.4,0.6,0.6
		c0.2,0.2,0.5,0.2,0.6,0c0.1-0.1,0.1-0.2,0.1-0.3c0-0.1,0-0.2-0.1-0.3c-0.2-0.2-0.4-0.4-0.6-0.6c-0.1-0.1-0.2-0.1-0.3-0.1
		c-0.1,0-0.2,0-0.3,0.1C60,86.5,60,86.6,59.9,86.8C59.9,86.8,59.9,86.8,59.9,86.8z M60.9,66.1c0,0.1,0,0.2,0.1,0.3
		c0.1,0.1,0.2,0.1,0.3,0.1c0.1,0,0.2,0,0.3-0.1c2.7-2.3,6.1-3.7,9.8-3.9c0.2,0,0.4-0.2,0.4-0.4c0-0.1-0.1-0.2-0.2-0.3
		c-0.1-0.1-0.2-0.1-0.3-0.1c-3.8,0.2-7.5,1.7-10.3,4.1C60.9,65.9,60.9,66,60.9,66.1z M62.5,88.9C62.5,88.9,62.5,88.9,62.5,88.9
		c0,0.2,0.1,0.3,0.2,0.3c2.5,1.7,5.5,2.6,8.6,2.8c0.1,0,0.2,0,0.3-0.1c0.1-0.1,0.1-0.2,0.2-0.3c0-0.2-0.2-0.4-0.4-0.4
		c-2.9-0.2-5.8-1.1-8.2-2.7c-0.1-0.1-0.2-0.1-0.3-0.1c-0.1,0-0.2,0.1-0.3,0.2C62.6,88.7,62.5,88.8,62.5,88.9z M73.7,93.9
		c-1,0.1-2.1,0.2-3.1,0.2c-10.4,0-18.9-7.7-18.9-17.2s8.5-17.2,18.9-17.2c1,0,2,0.1,3.1,0.2c-0.2,0.9-0.6,1.9-1.2,3.1
		c-7.7,0.7-13.8,6.7-13.8,13.8c0,7.1,6.1,13.2,13.8,13.8C73.1,91.9,73.5,92.9,73.7,93.9L73.7,93.9z M74.2,92.5
		c-0.7-2-1.9-4.2-3.1-6.3c-1.7-3.1-3.7-6.5-3.7-9.4c0-2.9,1.9-6.2,3.7-9.4c1.3-2.2,2.4-4.3,3.1-6.3c-0.2,1.9-0.7,3.9-1.1,5.4
		c-0.4,1.8-0.8,3.3-0.8,4.3c0,0.3,0,0.6,0.1,0.8c-2.5,0.6-4.2,2.7-4.2,5c0,2.3,1.7,4.4,4.2,5.1c-0.1,0.2-0.1,0.5-0.1,0.8
		c0,1.1,0.4,2.6,0.8,4.3C73.5,88.7,74,90.7,74.2,92.5z M74.2,92.7L74.2,92.7L74.2,92.7z M76.1,116.8c0,1.3-0.8,2.2-1.5,2.7
		c-0.5,0.3-0.9,0.6-1.2,0.7c0.3-0.6,0.5-1.4,0.5-2.4c0-1.7-0.6-3.6-1.5-4.6c1.5-0.9,1.9-2.7,1.9-3.5c0-2.2-1.8-3.9-3.7-5.5l-0.4-0.4
		c-1.7-1.4-3.1-2.6-3.1-4c0-0.3,0.1-0.6,0.2-0.9c0.6,1.1,2,1.9,3.5,1.9c1.1,0,2.2-0.6,2.9-1.7c1.1-1.1,1.6-2.6,1.6-4.8
		c0-2.4-0.7-5.2-1.3-7.6c-0.4-1.7-0.8-3.3-0.8-4.2c0-0.3,0-0.5,0.1-0.6c0.3,0,0.5,0.1,0.7,0.1c0.7,0,1.4-0.1,2.1-0.4L76.1,116.8
		L76.1,116.8z M76.1,76.9c0,1.1-1,1.9-2.1,1.9c-1.2,0-2.1-0.9-2.1-1.9s1-1.9,2.1-1.9C75.1,74.9,76.1,75.8,76.1,76.9z M76.1,72
		c-0.7-0.2-1.4-0.4-2.1-0.4c-0.2,0-0.5,0-0.7,0c0-0.1-0.1-0.3-0.1-0.6c0-1,0.4-2.5,0.8-4.2c0.6-2.4,1.3-5.2,1.3-7.6
		c0-2.1-0.5-3.7-1.6-4.8c-0.8-1.1-1.9-1.7-2.9-1.7c-1.5,0-3,0.8-3.5,1.9c-0.1-0.3-0.2-0.6-0.2-0.9c0-1.3,1.4-2.6,3.1-4l0.4-0.4
		c1.9-1.6,3.7-3.3,3.7-5.5c0-0.5-0.1-1.2-0.5-1.9c0,0,0-0.1,0-0.1c-0.3-0.6-0.8-1.1-1.3-1.5c0.9-1,1.5-3,1.5-4.6c0,0,0-0.1,0-0.1
		c0-0.8-0.2-1.6-0.5-2.2c0.3,0.1,0.8,0.3,1.2,0.7c0.7,0.5,1.5,1.4,1.5,2.7C76.1,37,76.1,72,76.1,72z M79,77.6v-1.6l1.4,0.8
		C80.4,76.9,79,77.6,79,77.6z M89.3,79.2C88.4,85.5,83.5,90.9,77,93v-2.6c6.1-1.1,11-5.7,12-11.3C89,79.2,89.3,79.2,89.3,79.2z
		 M89,74.5c-1-5.6-5.9-10.2-12-11.3l0-2.5c6.5,2.1,11.4,7.6,12.3,13.9C89.3,74.5,89,74.5,89,74.5z M92.9,74.6l-2.7,0
		c-0.1-1-0.4-2-0.7-3c1.4-0.4,2.6-2.4,3.4-5.9C92.9,65.6,92.9,74.6,92.9,74.6z M92.9,88.1c-0.8-3.5-2-5.6-3.4-6c0.3-1,0.6-2,0.7-3
		l2.7,0C92.9,80.7,92.9,85.6,92.9,88.1z M70.9,76.9c0,1.5,1.4,2.8,3,2.8c1.7,0,3-1.2,3-2.8c0-1.5-1.4-2.8-3-2.8S70.9,75.3,70.9,76.9
		z M78.1,78.4c0,0.1,0.1,0.3,0.2,0.4c0.1,0.1,0.3,0.1,0.5,0l2.7-1.5c0.1-0.1,0.2-0.2,0.2-0.3c0-0.1-0.1-0.3-0.2-0.3L78.8,75
		c-0.1-0.1-0.3-0.1-0.5,0c-0.1,0.1-0.2,0.2-0.2,0.4C78.1,75.3,78.1,78.4,78.1,78.4z M125.2,78.4c-4.2,0-36.2,0-36.5,0
		c-5.1,0-9.6,1.2-10.5,2.9l-0.9-0.7c-0.2-0.1-0.4-0.1-0.5,0c-0.8,0.5-1.7,0.7-2.7,0.7c-2.7,0-4.9-2-4.9-4.4c0-2.4,2.2-4.4,4.9-4.4
		c1,0,1.9,0.3,2.7,0.7c0.2,0.1,0.4,0.1,0.5,0l0.9-0.7c1,1.7,5.4,2.9,10.5,2.9h36.5V78.4L125.2,78.4z M124.7,115.2
		c0,0.2,0.2,0.4,0.5,0.4c0.2,0,0.5-0.2,0.5-0.4v-0.9c0-0.2-0.2-0.4-0.5-0.4c-0.2,0-0.5,0.2-0.5,0.4V115.2z M131,104.7
		c0,7.8-3.7,14-5.4,16.3v-2.7c0-0.2-0.2-0.4-0.5-0.4c-0.2,0-0.5,0.2-0.5,0.4v4.8l-1,0l0-36.8l1,0l0,25.9c0,0.2,0.2,0.4,0.5,0.4
		c0.2,0,0.5-0.2,0.5-0.4V88.4C127.3,90.8,131,96.9,131,104.7L131,104.7z M131,78.6c-0.6,0.7-1.5,1.1-2.5,1.1c-0.9,0-1.9-0.4-2.5-1.1
		l0-3.6c0.6-0.7,1.5-1.1,2.5-1.1c1,0,1.9,0.4,2.5,1.1V78.6z M124.7,56.5c0,0.2,0.2,0.4,0.5,0.4c0.2,0,0.5-0.2,0.5-0.4v-0.9
		c0-0.2-0.2-0.4-0.5-0.4c-0.2,0-0.5,0.2-0.5,0.4V56.5z M131,49c0,7.8-3.7,14-5.4,16.3V61c0-0.2-0.2-0.4-0.5-0.4
		c-0.2,0-0.5,0.2-0.5,0.4v6.4l-1,0l0-36.8l1,0l0,22.7c0,0.2,0.2,0.4,0.5,0.4c0.2,0,0.5-0.2,0.5-0.4V32.7C127.3,35,131,41.2,131,49
		L131,49z M140.2,86.9c-1.8-4.9-5.6-8.2-8.3-8.5l0-3.1c2.7-0.3,6.5-3.6,8.3-8.5C140.2,66.8,140.2,86.9,140.2,86.9z M143.8,93.1
		l-2.7,0l0-32.4l2.6,0V93.1z M38.7,67c-1.3,0.1-2.8,0.7-4.1,1.6c-0.4-0.6-0.7-1.3-0.7-2c0-0.7,0.2-1.3,0.6-1.9
		c0.6-0.9,1.9-1.9,3.7-1.7c0,0.5,0.1,1.1,0.2,1.5C38.5,65.4,38.7,66.3,38.7,67z M38.7,86.7c0,0.7-0.2,1.6-0.3,2.5
		c-0.1,0.6-0.2,1.1-0.2,1.6c-1.8,0.2-3.1-0.7-3.7-1.7c-0.4-0.6-0.6-1.2-0.6-1.9c0-0.7,0.2-1.4,0.7-2C35.9,86.1,37.3,86.6,38.7,86.7z
		 M42.1,103.4c-0.1-0.4-0.3-0.8-0.4-1.1l0-0.1c-0.6-1.6-1.3-3.4-1.3-4.7c0-0.7,0.2-1.3,0.6-1.7c0.1-0.1,0.1-0.2,0.1-0.3
		c0-0.1,0-0.1,0-0.2c-0.1-0.1-0.2-0.2-0.4-0.2c-0.4,0-0.8-0.1-1-0.4c-0.4-0.4-0.5-1.1-0.5-2.1c0-1,0.2-2.2,0.3-3.3
		c0.2-1.1,0.3-2.1,0.3-3c0-0.2-0.2-0.4-0.5-0.4c-3.7,0-8-4-8-9.1s4.3-9.1,8-9.1c0.2,0,0.5-0.2,0.5-0.4c0-0.9-0.1-1.9-0.3-3
		c-0.2-1.1-0.3-2.3-0.3-3.3c0-1,0.2-1.7,0.5-2.1c0.2-0.2,0.6-0.4,1-0.4c0.2,0,0.3-0.1,0.4-0.2c0-0.1,0-0.1,0-0.2
		c0-0.1,0-0.2-0.1-0.3c-0.4-0.4-0.6-1-0.6-1.7c0-1.3,0.6-3,1.3-4.7l0,0c0.1-0.4,0.3-0.8,0.4-1.2C42.1,50.4,42.1,103.4,42.1,103.4z
		 M147.3,62.3c0-0.1-0.1-0.3-0.3-0.3c-0.2,0-0.3,0.1-0.3,0.3v29.2c0,0.1,0.1,0.3,0.3,0.3c0.2,0,0.3-0.1,0.3-0.3V62.3z M162.4,55.9
		c0-1.3-1.1-2.3-2.5-2.3c-1.4,0-2.5,1-2.5,2.3c0,1.3,1.1,2.3,2.5,2.3C161.3,58.1,162.4,57.1,162.4,55.9z M163.1,56.7
		c0,0-0.1,0-0.1,0c-0.1,0-0.1,0-0.1,0.1c-0.4,1.1-1.6,1.9-2.9,1.9c-1.3,0-2.5-0.8-2.9-1.9c0,0-0.1-0.1-0.1-0.1c0,0-0.1,0-0.1,0
		c-0.7,0.7-1.1,1.6-1.1,2.6c0,2.1,1.9,3.8,4.2,3.8c2.3,0,4.2-1.7,4.2-3.8C164.1,58.4,163.8,57.4,163.1,56.7L163.1,56.7z M168.3,76.9
		c0,4.2-3.8,7.7-8.4,7.7c-4.7,0-8.4-3.4-8.4-7.7c0-4.2,3.8-7.7,8.4-7.7C164.6,69.2,168.3,72.6,168.3,76.9L168.3,76.9z M164.1,94.4
		c0-2.1-1.9-3.8-4.2-3.8c-2.3,0-4.2,1.7-4.2,3.8c0,1,0.4,1.9,1.1,2.6c0,0,0.1,0,0.1,0c0,0,0.1,0,0.1-0.1c0.4-1.1,1.6-1.9,2.9-1.9
		c1.3,0,2.5,0.8,2.9,1.9c0,0,0.1,0.1,0.1,0.1c0,0,0.1,0,0.1,0C163.8,96.3,164.1,95.4,164.1,94.4L164.1,94.4z M162.4,97.9
		c0-1.3-1.1-2.3-2.5-2.3c-1.4,0-2.5,1-2.5,2.3c0,1.3,1.1,2.3,2.5,2.3C161.3,100.1,162.4,99.1,162.4,97.9z M159.6,47.3
		c0-0.1,0.1-0.3,0.3-0.3c0.2,0,0.3,0.1,0.3,0.3V53c0,0.1,0.1,0.1,0.1,0.1c1.5,0.2,2.7,1.3,2.7,2.8c0,0,0,0.1,0.1,0.1
		c1.1,0.8,1.7,2,1.7,3.3c0,2.2-1.9,4.2-4.4,4.4c-0.1,0-0.1,0.1-0.1,0.1v4.7c0,0.1,0.1,0.1,0.1,0.1c4.8,0.2,8.6,3.8,8.6,8.2
		c0,4.4-3.8,8-8.6,8.2c-0.1,0-0.1,0.1-0.1,0.1v4.7c0,0.1,0.1,0.1,0.1,0.1c2.5,0.2,4.4,2.1,4.4,4.4c0,1.3-0.6,2.5-1.7,3.3
		c0,0-0.1,0.1,0,0.1c0,1.4-1.1,2.6-2.7,2.8c-0.1,0-0.1,0.1-0.1,0.1v5.6c0,0.1-0.1,0.3-0.3,0.3c-0.2,0-0.3-0.1-0.3-0.3v-5.6
		c0-0.1-0.1-0.1-0.1-0.1c-1.5-0.2-2.7-1.3-2.7-2.8c0,0,0-0.1,0-0.1c-1.1-0.8-1.7-2-1.7-3.3c0-2.2,1.9-4.2,4.4-4.4
		c0.1,0,0.1-0.1,0.1-0.1v-4.7c0-0.1-0.1-0.1-0.1-0.1c-4.8-0.2-8.6-3.8-8.6-8.2c0-4.4,3.8-8,8.6-8.2c0.1,0,0.1-0.1,0.1-0.1v-4.7
		c0-0.1-0.1-0.1-0.1-0.1c-2.5-0.2-4.4-2.1-4.4-4.4c0-1.3,0.6-2.5,1.7-3.3c0,0,0.1-0.1,0-0.1c0-1.4,1.1-2.6,2.7-2.8
		c0.1,0,0.1-0.1,0.1-0.1L159.6,47.3L159.6,47.3z M161.2,73.8c0,0-0.1,0-0.1,0c-0.6-0.3-1.3-0.5-2-0.5c-2.2,0-3.9,1.6-3.9,3.6
		c0,2,1.8,3.6,3.9,3.6c0.7,0,1.4-0.2,2-0.5c0,0,0.1,0,0.1,0c0,0,0.1,0.1,0.1,0.1v2.8c0,0.1,0.1,0.3,0.3,0.3c0.2,0,0.3-0.1,0.3-0.3
		v-3.6c0-0.1-0.1-0.2-0.2-0.2c-0.1,0-0.2,0-0.3,0c-0.6,0.5-1.4,0.8-2.3,0.8c-1.8,0-3.3-1.4-3.3-3c0-1.7,1.5-3,3.3-3
		c0.8,0,1.6,0.3,2.3,0.8c0.1,0.1,0.2,0.1,0.3,0c0.1,0,0.2-0.1,0.2-0.2v-3.6c0-0.1-0.1-0.3-0.3-0.3c-0.2,0-0.3,0.1-0.3,0.3v2.8
		C161.3,73.7,161.3,73.8,161.2,73.8z"/>
</g>
</svg>
