<?xml version="1.0" encoding="utf-8"?>
<!-- Generator: Adobe Illustrator 26.0.1, SVG Export Plug-In . SVG Version: 6.00 Build 0)  -->
<svg version="1.1" id="Слой_1" xmlns:xodm="http://www.corel.com/coreldraw/odm/2003"
	 xmlns="http://www.w3.org/2000/svg" xmlns:xlink="http://www.w3.org/1999/xlink" x="0px" y="0px" viewBox="0 0 238.1 150.2"
	 style="enable-background:new 0 0 238.1 150.2;" xml:space="preserve">
<style type="text/css">
	.st0{fill-rule:evenodd;clip-rule:evenodd;}
</style>
<g id="Слой_x0020_1">
	<path class="st0" d="M177.3,109.4l2.6-4c0.2-0.4,0.4-0.7,0.6-1l1.7-3.3c0.6-1.1,4-8.1,4.1-9.2c-0.6,0.3-6.3,5.1-7.7,6.1l-7.7,6.2
		c-0.4,0.3-0.7,0.6-1.1,0.8c0.3-1.2,1.1-3.2,1.5-4.5l4.1-12.4c0.1-0.3,0.3-0.9,0.4-1.2l-4.7,5.8c-0.2,0.2-0.3,0.4-0.5,0.6l-1.8,2.1
		c-0.6,0.8-1.6,1.8-2.3,2.5l-1.4,1.6c-0.4,0.4-3.3,3.5-4,3.7c0.9-1.4,1.7-2.9,2.5-4.3c0.9-1.5,1.6-3,2.5-4.5
		c0.4-0.8,1.3-2.5,1.3-3.4c-1.3,0.9-3.1,3.2-4.4,4.2l-3.3,3.1c-0.3,0.3-0.9,0.8-1.1,1.1c-0.1-0.1,0-0.1,0-0.2c0.3-0.9,1-6.6,1-7.4
		l-7.2,8.6c-0.7,0.9-2.3,2.4-3.2,3.2c-0.5,0.5-1.2,1.1-1.7,1.5l0.7-1.7c0.7-1.8,1.2-3.7,1.8-5.6c0.4-1.3,0.7-2.5,1.1-3.9
		c0.2-0.7,0.3-1.3,0.5-1.9c0.1-0.3,0.2-0.6,0.3-1c0.1-0.3,0.2-0.6,0.2-1l-2.2,2.4c-0.2,0.2-0.2,0.3-0.3,0.4c-0.9,0.9-4.2,4.5-5,5.1
		l-1.2,1.1c-0.2,0.1-0.2,0.2-0.4,0.4c-0.9,0.9-2,1.7-3.1,2.4l-0.4,0.1l0.3-0.6c0.1-0.3,0.2-0.6,0.3-0.9l1.2-3.8c0.8-3,1.6-5.9,2.3-9
		c0.1-0.4,0.2-0.6,0.2-1l-5.5,6.7c-0.6,0.8-1.3,1.5-2,2.2c-0.7,0.7-1.3,1.4-2.1,2c-0.3,0.2-0.5,0.4-0.8,0.6c0.1-0.4,0.4-0.8,0.6-1.1
		c2.6-4.3,6-9.2,8.2-13.6c0.4-0.8,0.7-1.5,1-2.4c-0.2,0.1-1,1.4-1.3,1.7l-10.4,10.5c-0.5-1,0.3-1.7,0.8-2.4l5-6.4
		c0.1-0.2,0.2-0.3,0.4-0.5c0.1-0.2,0.3-0.3,0.4-0.5c0.3-0.3,0.5-0.6,0.8-1c1.5-1.8,2.8-3.8,3.6-6c0.1-0.2,0.1-0.2,0.1-0.3l0.1-0.3
		c0,1,0.2,2-0.2,2.9c-0.1,0.3-0.4,0.8-0.5,1c0.3-0.1,0.1,0,0.3-0.2c1.9-1.5,2.3-3.6,2.3-6.1c0.8,0.9,1.1,3.7,0.8,4.9
		c-0.1,0.4-0.3,0.8-0.3,1.1c0.6-0.7,1-1.5,1.3-2.5c0.4-1.6,0.1-3.6-0.8-5c-0.1-0.1,0-0.1-0.1-0.1c0.1-0.2,0.1,0,0.3,0.1
		c0.5,0.5,0.9,1,1.3,1.6c1.3,2.1,0.9,4.4,0.3,6.6c-0.3,0.9-0.5,1.9-1,2.8c0.4-0.1,0.7-0.8,0.9-1.1c0.9-1.4,1.4-2.8,1.7-4.6
		c0.2-1.3,0.1-2.6-0.2-3.7c-0.3-0.9-0.9-2.1-1.6-2.5l0.1-0.1c0,0,0,0,0.1,0l0.3,0.2c0.9,0.6,1.7,1.2,2.5,1.9c1.5,1.5,1.6,3,1.9,3.2
		l0.1-1.2c0-1.6-1-3.4-1.9-4.4l-2-1.6c-0.2-0.1,0,0-0.1-0.1c0.9,0.1,1.8,0.3,2.6,0.5c0.6,0.2,1.9,0.7,2.3,0.7
		c-0.9-1.6-5.3-2.7-7.2-3.3c-2-0.7-4-1.2-5.8-2.2l-1.6-0.8c0,0,0,0,0,0c-0.1-0.1-0.1,0-0.1-0.1c0.5,0.1,0.9,0.3,1.4,0.4
		c1.5,0.4,3.2,1,4.8,1c-0.1-0.1,0,0-0.1-0.1l-2.4-1.1c-1.6-0.6-3.4-1.7-4.9-2.6c-0.9-0.6-2-1.6-2.1-1.7l0.5,0.2
		c1,0.6,2.4,1.1,3.5,1.5c0.9,0.4,3.4,1.4,4.4,1.4l-0.6-0.4c-0.5-0.4-1.3-0.9-1.6-1.5c1.5,0.1,2.7,0.8,5,0.1c0.5-0.1,0.8-0.3,1.2-0.6
		c0.1-0.1,0.2-0.2,0.4-0.2h3.8c0.9,0,1.2,0.2,1.8,0.5c-0.1-0.4-0.4-0.6-0.7-0.9c-0.8-0.7-2.5-0.1-4-0.8c0.1-0.7,0.2-0.7-0.4-1.3
		c-1-1-1.5-0.7-2.8-1.2c-1.3-0.4-2.5-1.1-3.3-2.1c-0.2-0.3-0.4-0.4-0.6-0.7c-0.6-0.8-1.1-1.6-1.5-2.5c-0.5-0.8-1-1.9-1-2.9
		c0-0.5,0.3-0.6,0.7-0.7c0.5,0.4,0.7,1.2,1.1,1.7c0.8,1.1,1.7,2.1,2.6,3c0.3,0.3,0.8,0.8,1.2,0.9c0.1,0,0.2,0.1,0.3,0
		c0.9-0.3-1.5-2.2-2-2.7c-0.4-0.5-0.7-0.8-1-1.4c-0.3-0.5-0.5-1.6-0.4-2.3l1.3,1.2c0.6,0.6,0.5,1,0.9,1.8c0.3,0.5,0.8,1,1.2,1.4
		c1.6,1.3,4.4,1.3,6,0.3c1.1-0.8,2-1.8,2-3.3c0-0.7-0.3-1.8-0.7-2c0.1-0.1,0.1-0.1,0.2,0c0.8,0.7,1.7,2.1,1.7,3.2
		c0,1.1-1.2,1.9-1.6,2.8c-0.2,0.4-0.2,0.7-0.6,0.9c-0.4-0.3-0.8-0.7-1.4-0.7c0,0.5,0.2,0.4,0.2,0.9c0,0.5-1.1,0.6-1.6,0.6
		c-0.6,0-1-0.1-1.5-0.2c-0.4-0.1-1-0.3-1.4-0.3c0,0.7,0.5,1.5,1.2,1.5c0.3,0,0,0,0.2-0.1c-0.1-0.5-0.1,0.1-0.2-0.5
		c2.4,0,4.1,0.8,6.5,0.8V55c-0.5,0-1.6-0.7-0.9-1.2c1.3-0.8,2.5,1.8,3.4,2c-0.3-1.3-2.3-2.8-3.1-3.7l0.4-0.6
		c0.4-0.5,1.2-1.3,1.7-1.6c0.9-0.6,2.7,0,3.6,0.3c2,0.7,3.1,1.6,5,1.6l2.2-0.1c2.2,0,4,1.2,5.9,0.8l0.5-0.2
		c-0.3-0.1-0.7-0.1-1.1-0.2c-0.4-0.1-0.7-0.2-1.1-0.3c-1.3-0.4-2.6-1-4-1.2c-2.9-0.5-2.1,0.2-5.4-1.1c-0.4-0.2-0.5-0.3-0.9-0.5
		c-0.8-0.4-1.7-0.9-2.4-1.6c-0.8-0.8-0.9-1.2-2.1-1.8c-1.7-0.8-3.7-1.9-5.6-2.4c-0.4-0.1-0.6-0.1-1.1-0.1c-1.6-0.2-3.2-0.5-4.9-0.4
		c-2.7,0-3.6-0.3-6.6,0c-0.8,0.1-1.1,0.1-1.9,0.3c-1.1,0.3-2.2,0.9-3.3,1c1-1.5,4.3-2.9,6.1-3.2c0.8-0.2,1.9-0.4,2.8-0.4
		c-0.4-0.6-2.4-0.8-3.4-0.8c-1.9,0-4.6,0.6-5.7,1.3c0.3-1.2,3.4-3.1,4.5-3.6c0.5-0.2,0.9-0.4,1.4-0.6c2-0.8,3.9-1,6.1-1
		c0.6,0,1,0.2,1.6,0.2c-0.5-0.5-1.3-0.7-2-0.9c-2-0.6-4.7-0.5-6.6-0.1c-0.7,0.1-2.1,0.4-2.6,0.6c0.1-0.5,0.7-1.4,1-1.7
		c0.5-0.6,0.8-1,1.3-1.5c0.5-0.5,1-0.9,1.6-1.2l1.7-1.1c0.1,0.1,0,0.1-0.1,0.3c-0.1,0.1-0.1,0.2-0.2,0.3c-0.9,1.1-2.1,2.5-2.9,3.6
		c2.3,0,4.3-0.7,6.4-1.4c1.9-0.6,3.8-1.5,5.7-2.1c1.3-0.4,2.8-1,4.2-1c-0.1,0.2-0.3,0.2-0.5,0.4l-2.6,2.1c-0.3,0.2-0.8,0.6-1,0.9
		l1.7-0.5c0.6-0.2,1.1-0.3,1.7-0.5c5.1-1.3,12.7-2.6,18.1-0.8l1.6,0.7c-1.8,0-3.5,0.2-5.2,0.7c-0.2,0.1-0.2,0-0.3,0.2
		c2.3,0.5,4.6,1.3,6.9,1.9l4,1.3c0.8,0.3,1.7,0.6,2.6,1c1.3,0.5,2.5,1,3.8,1.6c0.8,0.4,2.9,1.5,3.3,2.1c-2-0.5-4.6,0-6.5,0.5
		c0.2,0.3,3.6,2.3,3.9,2.5c1.6,1.1,3.1,2.2,4.7,3.4l1.3,1.1c1,0.9,2,1.8,2.9,2.8l0.7,0.9c0.3,0.3,0.5,0.6,0.7,1
		c-0.7-0.2-1.6-0.6-2.5-0.9c-0.3-0.1-4.2-1.1-4.4,0.1c-0.1,0.6,2.1,1.7,2.5,1.9c1.8,1.1,3.9,2.2,5.4,3.7c0.4,0.4,0.7,0.7,1.1,1.2
		l0.6,1c0,0.1,0.1,0.1,0.1,0.2c0,0,0,0.1,0.1,0.1l-0.3-0.1c-1.9-1.3-6.2-1.9-6.9-2.2c0,1.1,2.1,3.5,2.7,4.3l2.3,3
		c1.7,2.1,5.3,6.7,6,9.5c0,0,0,0.2,0,0.2l0.1,0.2c-0.1,0.2-0.2-0.1-0.4-0.3c-0.1-0.1-0.2-0.2-0.4-0.3c-0.3-0.2-0.5-0.4-0.8-0.6
		c-1.9-1.4-4-2.1-6.7-2.1c-0.4,0-0.5,0.1-0.9,0.1l2.8,4.3c0.2,0.3,0.3,0.5,0.4,0.8c1.4,2.5,3.4,6.3,2.8,9.2
		c-0.1,0.3-0.2,0.5-0.2,0.7H198c-0.1-1-1.8-3-2.5-3.7c-0.6-0.6-2.4-2.1-3.4-2.1c-0.4,0-0.1,0.1-0.1,0.4c0,4.7-0.1,9.7-2.7,13.6
		c-0.2,0.3-0.6,0.9-0.9,1.1c1-4.4,0.3-10.4-0.4-14.8c-0.1-0.4-0.2-0.9-0.2-1.3c-0.3,0.2-0.9,1.9-1,2.2c-0.3,0.7-0.7,1.5-1.1,2.2
		c-0.2,0.4-0.4,0.7-0.6,1.1c-1.4,2.3-2.3,3.8-4,5.9c-0.7,0.8-1.7,1.8-2.6,2.4c-0.7,0.5-1.3,0.9-2.1,1.3c0.1-0.4,1-2.8,1.4-4.3
		c0.4-1.5,0.8-3.1,1-4.8l1.1-7.5c0.1-0.8,0.3-1.8,0.3-2.6c-0.4,0.1-2,1.7-2.4,2.1l-4,3.4c-1.1,1-2.4,2-3.5,3
		c-1.7,1.5-4.5,3.8-6.2,4.9l1.1-2.7c0.6-1.9,1.2-4,1.5-6c0.2-1,0.3-2.2,0.5-3.2c-0.2,0.1-0.1,0-0.2,0.2c-0.1,0.1-0.1,0.1-0.2,0.2
		l-1,1.4c-1.5,2.1-4.5,6.1-6.2,8c-1,1.1-1.9,2.3-3,3.4c-0.3,0.3-0.6,0.5-0.8,0.8l-0.1-0.1c0,0,0-0.1,0.1,0l0.8-1.2
		c0.7-1.4,1.3-2.7,1.8-4.4c1-3.6,1.2-7.4,0.9-11.3l-0.1,0.1c-0.7,0.9-1.8,3-2.6,4.1c-1.6,2.4-3.1,4.8-5,7l-3.2,3.6
		c-0.1,0.1-0.8,0.8-0.9,0.8l0.2-0.4c1.1-1.8,1.8-4.6,1.8-6.7c0-0.8,0.1-1.7-0.2-2.5c-0.1-0.3,0-0.2-0.2-0.3c0,0.7-0.2,1.6-0.3,2.2
		c-0.1,0.7-0.3,1.4-0.4,2.1c-0.3,1.3-0.8,2.7-1.2,3.8c-0.2,0.6-0.5,1.2-0.8,1.7c-0.6,1.1-1.1,2.2-1.8,3.2c-0.2,0.4-1,1.2-1,1.5
		c0.8-0.5,1.5-1.1,2.3-1.6c0.4-0.3,0.7-0.6,1.1-0.9l2.1-1.9c0.6-0.7,1.4-1.3,2-2l2.8-3.3c0.6-0.8,1.1-1.5,1.7-2.3
		c0.6-0.8,1-1.6,1.5-2.5c0.2-0.4,0.5-0.8,0.7-1.3l0.6-1.1c0.1-0.2,0-0.1,0.1-0.2c0,2.1-0.1,3.6-0.6,5.6c-0.8,3.1-2.2,5.9-3.6,8.8
		c-0.4,0.7-0.7,1.3-1.1,2l-1.1,2c0.2-0.1,0.3-0.2,0.5-0.3c0.2-0.2,0.3-0.2,0.5-0.4c0.3-0.3,0.6-0.5,0.9-0.8l5.4-5
		c0.3-0.3,0.5-0.6,0.8-0.9l1.6-1.8c0.3-0.3,0.5-0.6,0.8-0.9c0.8-0.9,1.5-1.9,2.2-2.9c0.2-0.3,0.4-0.8,0.7-1.1
		c-0.2,1-0.6,2.1-0.9,3.1c-0.2,0.5-0.4,1-0.6,1.5c-0.2,0.5-0.4,0.9-0.6,1.4c-0.4,1-0.8,1.8-1.2,2.8c-0.2,0.5-0.4,0.9-0.7,1.4
		c-0.2,0.4-0.6,1-0.7,1.4c0.3-0.1,2-1.5,2.3-1.7l12.8-10.4c0.1-0.1,0.1-0.1,0.3-0.2c0.1-0.1,0.2-0.2,0.3-0.3
		c0.6-0.5,1.6-1.5,2.2-1.9c0,1.8-0.3,3.6-0.6,5.1c-0.9,4.2-2.1,8.3-3.5,12.4c-0.1,0.3-0.3,0.9-0.4,1.1c1.1-0.3,2.3-1,3.3-1.6
		l3.7-2.8c2-2,3.6-4,4.9-6.6c0.2-0.3,0.3-0.8,0.5-1.1c0.2-0.4,0.3-0.8,0.4-1.2l0.4,1.9c0.3,2,0,4.2,0,6.2c0,1.2-0.3,4.6-0.4,5.7
		c-0.1,0.9-0.2,1.9-0.3,2.8c0.8-0.2,3.4-4.1,3.7-4.7c0.2-0.3,0.3-0.6,0.5-0.9c0.5-0.9,0.9-2,1.3-2.9c0.3-0.7,0.5-1.4,0.7-2.1
		c0.5-1.8,0.7-4,0.7-6c0-0.5-0.1-0.6-0.1-1c0.4,0.2,0.5,0.2,0.8,0.5c0.9,0.7,1.8,2.2,2.3,3.2l1.2,2.3c0.1,0.2,0.2,0.3,0.2,0.5
		c0.3-0.1,0.4-0.5,0.6-0.8c1.8-3.3,0.6-7.5-0.9-10.6c-0.5-0.9-0.9-1.7-1.4-2.5c-0.3-0.5-1.5-2.1-1.6-2.5c0.9,0,2,0.3,2.7,0.6
		c1.7,0.7,3.2,1.9,4.4,3.2c0.4,0.4,0.8,1.1,1.2,1.4c0-2.2-0.7-4-1.6-5.9c-1.2-2.4-2.8-4.7-4.4-6.9l-5-6.2c1.7,0,4.5,1.2,5.8,2.4
		c0.2,0.2,0.4,0.4,0.6,0.5l0-1.1c0-0.3-0.1-0.7-0.2-1c-0.2-0.6-0.5-1.1-0.9-1.6c-0.8-1.1-1.4-1.7-2.5-2.5c-0.5-0.4-0.9-0.7-1.4-1.1
		c-0.8-0.5-1.6-0.9-2.4-1.4c-0.3-0.2-0.5-0.3-0.8-0.4c-0.4-0.2-1.4-0.5-1.5-1c1.1,0,1.6,0,2.4,0.2c0.7,0.2,1.4,0.5,2,0.7
		c0.5,0.2,1.3,0.6,1.8,0.9c0.3,0.2,0.5,0.3,0.8,0.5l0.8,0.6c-0.1-0.6-0.7-1.9-1-2.3c-0.1-0.2-0.2-0.3-0.3-0.5l-4-4.5
		c-0.7-0.7-1.5-1.3-2.3-1.9c-1.3-1-2.7-1.9-4-2.8c-0.3-0.2-0.7-0.4-1.1-0.7c-0.3-0.2-0.9-0.4-1-0.7c0.3,0,0.5,0,0.8-0.1l1.6-0.1
		c0.9,0,3.2,0.3,3.7,0.6c0-0.3-0.1-0.3-0.3-0.6c-2.9-3.5-11.6-6.7-16.4-7.9c-0.3-0.1-2.7-0.6-2.8-0.8c1.5,0,2.8,0,4.2,0.2
		c0.4,0.1,0.9,0.2,1.3,0.2c-0.5-0.8-3.4-2.2-4.5-2.6c-4-1.1-8.6-1-12.6-0.3c-1,0.2-1.9,0.3-2.9,0.5c-1,0.2-1.9,0.4-2.8,0.7
		c0.5-0.6,2.5-1.9,3.4-2v-0.2c-0.5,0-1.1-0.2-2.6-0.2c-1.8,0-3.9,0.9-5.6,1.5c-0.6,0.2-1.2,0.4-1.8,0.7c-1.7,0.6-3.5,1.3-5.3,1.8
		c-0.7,0.2-1.3,0.3-2,0.4c0.1-0.3,0.3-0.4,0.5-0.6l2-2.5c0.3-0.4,0.8-0.9,1.2-1.1l0.8-0.3c0.2,0.1-0.1,0.1-0.3,0.5l-1.8,2.3
		c-0.3,0.3-0.5,0.6-0.7,1c0.6-0.1,1.6-0.6,2.2-0.8c4.5-1.6,9-3.3,13.8-4.1c0.9-0.1,1.8-0.1,2.9-0.1l-0.4,0.2
		c-0.5,0.2-2.5,1.2-2.8,1.5l2.8-0.3c0.3,0,2.9-0.1,3.1-0.1c0.5,0.1,1,0,1.5,0c1.5,0,3,0.1,4.4,0.3c3.1,0.4,5.9,1.1,8.6,2.5l0.7,0.4
		c0.1,0,0.1,0.1,0.1,0.1c0.2,0.1,0,0,0.1,0.1c-0.7,0-1.4,0.2-2.1,0.2v0.2c1.3,0.3,6.7,3.1,8,3.7c1.1,0.5,2.2,1.2,3.2,1.8
		c0.7,0.4,1.4,0.8,2,1.3l2.8,2.2c0.3,0.3,0.6,0.7,0.8,0.9l-0.3,0c0,0,0,0-0.1,0l-1.1-0.1c-1,0-1.8-0.1-2.8-0.2
		c-0.5,0-0.8-0.1-1.4-0.1c0.4,0.5,1.6,1.3,2.2,1.7c2,1.3,6.6,4.8,8.2,6.4c0.2,0.2,0.3,0.3,0.5,0.5c0.4,0.3,0.6,0.6,1,0.9l1.4,1.5
		c0.9,1.1,1.8,2.2,2.4,3.4c0.1,0.1,0.1,0.2,0.2,0.3l0,0.3l-0.4-0.3c-0.9-0.8-1.9-1.5-2.9-2.1c-0.3-0.2-0.9-0.7-1.3-0.7
		c0,0.8,1.2,2.9,1.7,3.7l1.1,2.1c0.5,1,1,1.9,1.5,2.9c0.5,1,1,2,1.5,2.9c-1.2-0.1-4.3-2.9-5.5-3.7c0.1,0.3,0.4,1,0.5,1.2
		c0.8,1.5,2.3,4.6,3.1,6c0.7,1.2,1.8,3.4,2.5,4.8c1.5,3,2.2,4.8,3,8l-1.3-1.2c-1.1-1-2.3-1.9-3.5-2.7c-0.3-0.2-0.4-0.3-0.7-0.5
		c0,0.4,0.3,1.1,0.4,1.4c0.1,0.5,0.3,1,0.4,1.5c1.3,5.1,2.6,10,3.3,15.2c0.4,3,1,7,0.3,10.2c-0.1,0.3-0.1,0.7-0.4,0.9
		c0-5.3-2.3-12.3-4.1-17.4c-0.1-0.3-0.2-0.8-0.5-1c0,0.4-0.2,1-0.2,1.4l-0.9,4c-0.9,3.7-3.1,10.8-6.7,13.2l1.4-3.7
		c0.4-1.3,0.8-2.6,1.2-3.9c0.3-1.2,1.9-7.1,1.9-8.4c-0.1,0.1,0,0-0.1,0.1l-0.3,0.7c-0.4,0.8-0.9,1.5-1.4,2.2
		c-1.4,2.1-3.3,3.8-5.1,5.6c-1.6,1.6-5.6,4.6-7.3,5.8c-1.6,1.2-3.3,2.3-5,3.3C178,109.1,177.5,109.3,177.3,109.4L177.3,109.4
		L177.3,109.4z M121.5,46.5c-0.6-0.9-3-3.4-4.1-3.4c0.1,0.8,1.1,1.6,1.7,2c0.4,0.2,0.8,0.4,1.2,0.6L121.5,46.5L121.5,46.5z
		 M117.7,41.2c0,0.5,0.5,0.8,0.9,1c0.1,0.1,0.3,0.2,0.4,0.3c1.1,0.8,2.6,2.3,3.9,2.5c0.5,0.1,0.7,0.1,1.1,0c-0.1-0.7-1.5-2-2-2.3
		c-0.5-0.3-1.6-1-2.2-1.1c-0.5-0.1-0.6,0-0.9-0.3c0.3-0.4,1-0.4,1.4-0.4C119.9,40.5,117.7,40.4,117.7,41.2L117.7,41.2z M145.4,47.5
		v0.5c0,1,0.8,1.7,2,1.7c1,0,1.7-0.8,1.7-2c0-1.5-2.1-2.3-3.2-1.2C145.8,46.6,145.4,47.1,145.4,47.5z M153.1,62.9
		c-0.8,0.6-5,0.2-5.8,0.1l-2.2-0.4c-0.3-0.1-0.4-0.2-0.8-0.2c0.4,0.6,2.7,1.3,3.5,1.5c0.9,0.2,3.5,0.7,4.3,0.7l-2.2,0.3
		c-0.4,0.1-0.8,0-1.2,0.1c-0.8,0.1-2.2,0-3.1-0.1c0.1,0.1-0.1,0,0.1,0.1c0.1,0.1,0.1,0.1,0.2,0.1c0.1,0.1,0.3,0.1,0.4,0.2
		c1,0.4,1.9,0.5,2.9,0.7l2.1,0.2c2.8,0.4,6.4,0.3,8.8,2c0.2,0.2,0.5,0.4,0.7,0.5c-0.1-1.2-2.3-2.5-3.3-3c-0.3-0.2-0.7-0.3-1.1-0.5
		l-2.8-1.1c-0.3-0.1-0.4-0.1-0.6-0.3c1.9,0,3.2,0.3,4.9,0.8c0.3,0.1,0.4,0.1,0.7,0.2c0.3,0.1,0.5,0.2,0.8,0.3
		c-0.2-0.7-0.9-1.1-1.5-1.4l-2-1.1c2.3,0,5.9,1.3,8,2.4c0.3,0.1,0.8,0.5,1,0.5c-0.4-0.6-2.4-1.9-3.2-2.3c-2.2-1.1-5.2-1.8-7.8-1.8
		c-0.6,0-0.8-0.1-1.3-0.1c-1.6,0-2.4,0-4-0.2c-0.4,0-0.8-0.2-1.2-0.2C148.1,61.8,152,62.9,153.1,62.9L153.1,62.9z M144.3,62.3
		L144.3,62.3C144.3,62.3,144.3,62.3,144.3,62.3z M169.2,55.6c0.9,0.2,3.9,2,4.8,2.6c2,1.3,2.1,1.4,3.8,2.7c0.2,0.2,0.3,0.3,0.5,0.4
		c-0.2-2.2-6.1-5.1-6.6-5.9c0.3-0.2,2.4,0.2,3.5,0.2c-0.1-0.1-0.2-0.2-0.4-0.3c-4.8-2.3-9.5-0.5-15.3-3.4l-1.8-1
		c0.3,0.6,0.9,1,1.4,1.4l1.5,1c0,0,0,0,0,0c0.2,0.1,0,0,0.1,0.1c-0.5,0.1-1,0.3-1.6,0.3l0.1,0.1c0.4,0.2-0.3-0.1,0.1,0
		c0.8,0.3,0.9,0.1,2,0.7c0.4,0.2,0.6,0.3,1,0.5l5,2.8c2,1.2,5.4,2.7,7.7,3.1c0.5,0.1,1,0.1,1.4,0.2c-0.1-0.2-0.2-0.2-0.5-0.3
		l-1.9-0.8c-0.4-0.2-0.8-0.4-1.2-0.6l-2.4-1.2c-0.7-0.4-2.9-1.7-3.2-2.2c0.8,0,2.9,1.1,3.6,1.5l3.2,1.9c-0.5-0.8-2.5-2.4-3.4-3
		L169.2,55.6L169.2,55.6z M164.9,72.5L164.9,72.5C164.9,72.5,164.8,72.5,164.9,72.5z M173.9,56.2c0.1,0.2,0.5,0.4,0.8,0.6
		c1.1,0.7,2,1.7,2.9,2.6c0.3,0.3,0.4,0.5,0.7,0.7c1.7,1.7,3.1,4.6,4.1,6.9c0.2,0.5,0.6,1.4,0.7,2c-0.8-0.6-1.6-1.2-2.5-1.8
		c-1.3-0.9-2.7-1.7-4-2.5c-3.9-2.3-9.8-4.9-14.1-5.6c-1.3-0.2-2.7-0.3-4.1-0.3l0.4,0.2c2.4,0.9,4.3,1.7,6.2,3.5
		c1.3,1.3,2.4,2.8,3.3,4.4c0.2,0.3,0.8,1.4,0.8,1.7c-1.2-0.6-1.6-1-3.1-1.5c-2-0.7-3.9-1.2-6.1-1.7c0.1,0.1,1.7,1.4,2.3,2.1l0.7,0.8
		c0.7,0.8,1.9,2.8,2,4c-0.3-0.2-1-1-1.6-1.4c-1.3-1-2.8-1.4-4.4-1.7c-0.8-0.2-1.9-0.3-2.8-0.3c0.2,0.2,1.4,0.4,1.7,0.5
		c3.2,1.1,6.1,3.1,8,5.9l0.7,1.3c0.1,0.1,0,0.1,0.2,0.1l-0.5-2.7c-0.3-1.7-0.9-3.4-1.7-4.8c-0.2-0.4-1.2-1.8-1.3-2
		c1.3,0.1,4.3,2.2,5.4,3c0.9,0.7,2.4,2,3.2,2.9c0.1,0.2,0.1,0.2,0.3,0.2c-0.3-0.7-0.9-2.5-1.5-3.8c-0.3-0.6-0.5-1.1-0.8-1.7
		c-0.3-0.6-0.6-1.1-0.9-1.7c-0.2-0.3-0.3-0.5-0.5-0.8c-0.2-0.3-0.3-0.5-0.5-0.8c-0.4-0.5-0.7-1-1.1-1.5c-0.6-0.7-1.3-1.3-2-2
		c-0.3-0.2-0.5-0.4-0.8-0.5c0.1-0.2,0.6,0.1,0.8,0.2c4.8,1.3,11.5,5.7,15.4,8.4c0.4,0.3,4.6,3.3,5,3.4c-0.1-0.2-0.1-0.8-0.2-1.1
		c-0.3-1.4-0.6-2.8-1.1-4.1c-1.2-3-2.2-5.1-4.3-7.6c-0.4-0.5-1-0.9-1.3-1.4c1.9,0.2,5.4,2.3,6.9,3.5l1.7,1.3
		c1.2,1.1,2.8,2.3,3.8,3.6l1.2,1.3c0.2,0.2-0.1,0.1,0.2,0.2c-0.1-0.3-0.2-1.1-0.3-1.5c-0.5-1.7-1-3.2-1.6-4.8l-0.9-1.9
		c-0.2-0.4-0.4-0.8-0.7-1.2c-0.7-1.3-2-3.2-3.1-4.2c-1.3-1.3-2.5-2.4-4-3.4c-0.3-0.2-1-0.6-1.2-0.7l3.1,3.4c1.4,1.8,2.1,2.7,3.4,4.6
		c0.2,0.3,0.3,0.5,0.5,0.8c1.1,2,0.9,1.9,1.6,3.6c0,0,0,0,0,0.1c-0.1,0.2-0.2-0.1-0.4-0.3l-1.1-1c-1.8-1.5-3.8-2.8-6-3.7
		C179.6,57.5,176,56.3,173.9,56.2L173.9,56.2z M156.5,41.3c0.6,0,3.1-0.2,3.4-0.3c-0.3-0.4-1.7-1.3-2.2-1.7
		c-0.6-0.4-1.9-1.2-2.6-1.3l2.6-1.1c-0.1-0.3-0.3-0.4-0.7-0.7l-1.9-1.1c-0.2-0.1-0.3-0.2-0.5-0.2c-0.1-0.1-0.1,0-0.3-0.1l-0.3-0.1
		c0.5,0,1.3,0.1,1.7,0.1c0.6,0.1,1.1,0.1,1.7,0.2l3.3,0.5c-0.2,0.2-1.9,0.8-2.3,0.9V37c1.2,0.3,2.8,1,3.4,1.1v0.2
		c-0.4,0-0.9,0.2-1.2,0.3c-0.4,0.1-0.7,0.3-0.8,0.6c0.5,0.1,1.8,0.9,2.3,1.2l0.8,0.5c-0.5,0-1.5-0.1-2,0.2l2.6,2.5l-0.8-0.3
		c-0.3-0.1-0.5-0.2-0.9-0.3L156.5,41.3C156.5,41.3,156.5,41.3,156.5,41.3L156.5,41.3z M162.7,39.5L162.7,39.5
		C162.7,39.5,162.7,39.5,162.7,39.5z M145,34.7c2,0,6.1,0.4,7.9,1c0.5,0.2,1.8,0.6,2,0.9c-4,0-7.6,0.6-11.4,1.4
		c-0.1,0-0.2,0-0.3,0.1l-0.3,0.1c2.7,0,5.2,0,7.6,0.3c2.1,0.3,4,0.8,5.9,1.5l0.4,0.2c-0.7,0-3.2-0.3-3.9-0.4c-1.4-0.2-5.6-0.3-7-0.1
		l-1.9,0.4c0.3,0.2,2.6,0.4,3.1,0.4c1.1,0.2,2.1,0.3,3,0.5c2.9,0.6,5.7,1.2,8.4,2.1c2.1,0.7,4.3,1.5,6.4,2.5l1.2,0.6
		c4.7,2.3,8.9,5,12.7,8.5l2.3,2.1c0.2,0.2,0.3,0.3,0.5,0.5c0.3,0.3,0.6,0.7,0.9,0.9c-0.2-0.9-1-2-1.5-2.7c-0.6-0.8-1.3-1.5-2-2.2
		c-0.4-0.4-0.7-0.7-1.1-1c-0.8-0.6-1.5-1.3-2.3-1.9c-0.2-0.2-0.4-0.3-0.6-0.5l-5.5-4c-0.6-0.4-4.9-3.1-5.1-3.4
		c2.8,0.7,11.5,5.7,13.8,7.3c0-0.4-0.3-0.7-0.6-1c-2.5-3-7-5.3-10.5-7l-4.3-2.1c2.5,0,9,3,11.6,4.3c0.5,0.3,1.1,0.6,1.6,0.7
		c-0.5-0.8-2.5-2.1-3.3-2.6c-1.2-0.8-2.5-1.4-3.8-2.1c-1.3-0.7-2.7-1.3-4.1-1.8c-1.3-0.5-2.5-0.9-3.9-1.3l-0.6-0.2
		c0.5,0,0.7,0,1-0.1c0.7-0.1,2.6,0.2,3.2,0.3c0.7,0.1,1.2,0.3,1.8,0.4c0.6,0.2,1.3,0.2,2,0.4c-0.1-0.3-0.4-0.3-0.7-0.5
		c-1.9-0.9-3.9-1.8-6-2.3c-5-1.4-11.1-1.6-16.2-0.3L145,34.7L145,34.7z M152.9,60.7L152.9,60.7C152.9,60.6,152.9,60.6,152.9,60.7z
		 M143,62.7L143,62.7C143,62.7,143,62.7,143,62.7z M141.7,79.3L141.7,79.3C141.8,79.3,141.7,79.3,141.7,79.3z M143.7,86.3
		L143.7,86.3C143.7,86.2,143.7,86.3,143.7,86.3z M152.2,89.9L152.2,89.9C152.2,89.8,152.2,89.9,152.2,89.9z M121.3,104.8l1-2.1
		c0.1-0.2,0.1-0.2,0.2-0.4c0.7-1.3,1-1.9,1.8-3.2l4.4-5.6c0.4-0.4,0.4-0.6,0.7-0.6c0,0.5,0.1,1.1,0.2,1.6c0,0.6,0,1.3,0,1.9
		c0.4-0.2,5.5-5.4,5.7-5.6l-2.3,4.4c-0.1,0.3-0.2,0.4-0.4,0.6l-1.3,2.5c-0.3,0.5-1.3,2.2-1.4,2.5c0.5-0.1,4.7-2.5,4.9-2.9l-0.6,1.2
		c-1.5,2.2-3,4.3-4.9,6.2c-0.3,0.3-0.6,0.7-1,0.9c0.3-1.1,0.7-1.4,0.7-3.7c0-1.3-0.2-2.3-0.9-3.2c-2.3,0.2-4.2,2.4-5.5,3.8
		c-0.2,0.2-0.2,0.2-0.4,0.4L121.3,104.8L121.3,104.8z M162.1,98.5l-0.8,1.5l-3.8,5.5c-0.3,0.5-0.7,0.9-1,1.4l-1.5,2
		c-0.2,0.2-0.4,0.4-0.4,0.7c2.4-1.3,4.7-2.6,6.8-4.3c1.2-0.9,3-2.3,4.1-3.3c0.3-0.3,0.6-0.6,1-0.9c0.4-0.3,0.5-0.6,0.9-1
		c1.1-1.1,2.1-2.3,3-3.5c0.2-0.2,0.2-0.4,0.4-0.5c0,0.5-1.7,5-2,5.7c-0.7,1.9-1.3,3.8-2.1,5.7c-0.3,0.9-1.2,2.9-1.4,3.8
		c0.4-0.2,0.7-0.5,1.1-0.8l2.7-2.2c0.2-0.2,0.4-0.3,0.6-0.5l6.4-5.3c0.8-0.6,6.2-5,6.4-5.3l-6.4,11.3c-0.8,1.5-2.5,4.4-3.5,6.2
		c-0.1,0.2-0.3,0.4-0.3,0.6c0.2-0.1,0.4-0.3,0.6-0.5c2-1.4,4.1-2.7,6.2-4l9.4-6.4c1.3-1,2.5-2,3.6-3.2c0.2-0.2,0.3-0.3,0.5-0.5
		c0.2-0.2,0.3-0.4,0.6-0.6c0,0.5-0.4,1.3-0.5,1.7c-0.8,2.5-2.8,7.1-4.1,9.6c-0.2,0.5-0.6,1.1-0.7,1.6c1.3,0,3.9-1.8,4.9-2.6
		c0.7-0.6,1.3-1.2,1.9-1.8c0.5-0.5,0.9-1,1.3-1.5c1.7-2.1,3.3-5.5,4.1-8.2c0.2-0.9,0.8-2.2,0.8-3h0.2c0,0.4,0.2,0.7,0.3,1.1
		c1.2,5.5,1.7,11,2.4,16.6c0.1,0.8,0.3,1.9,0.3,2.7l1.6-3.5c2.5-7.5,2.7-14.7,1.2-22.5c-0.4-1.9-1.3-5.6-2.1-7.5l-0.1-0.2
		c0.2-0.2,0.3,0.3,0.6,0.5c0.2,0.2,0.4,0.3,0.5,0.5c0.6,0.7,2.8,3.2,3.2,3.5c0-3.4-0.8-7.6-1.8-10.7c-0.5-1.5-1.3-2.9-2.1-4.3
		c-0.2-0.3-2.2-3.7-2.4-3.9c0.1-0.1,0.1,0,0.2,0.1c0.1,0.1,0.1,0.1,0.1,0.1l3,2.6c0.2,0.2,0.8,0.8,1.1,0.9c0-3.5-2.7-8.1-4.5-11
		c-0.2-0.4-1.7-3-2-3.2c0.1-0.2,0.2,0.1,0.6,0.5c0.6,0.5,1.3,1.1,1.8,1.8l2.4,2.5c0-0.4-0.2-1.2-0.3-1.6c-0.2-1-0.6-2-1-3l-1-2
		c-0.1-0.2-0.2-0.4-0.4-0.7l-2.5-3.6l-1.9-2.1c-2.2-2.2-4-3.5-6.5-5.3c-0.1-0.1-0.1-0.1-0.2-0.1c0.7,0.1,1.7,0.4,2.4,0.6
		c0.4,0.1,0.8,0.2,1.2,0.3c0.4,0.1,0.8,0.2,1.2,0.3c-0.1-0.5-1.2-1.5-1.6-2c-0.7-0.9-2.7-2.7-3.7-3.5c-0.4-0.3-0.6-0.5-1-0.8
		c-0.4-0.3-0.7-0.5-1.1-0.8c-0.7-0.5-1.4-1-2.1-1.5l-1.7-1c-1.6-0.8-3.3-1.7-5-2.3c-0.3-0.1-0.5-0.1-0.6-0.3c1,0,1.8-0.2,2.8-0.2
		c-0.3-0.4-2.6-1.4-3.1-1.6c-5.4-2.4-10.4-4.1-16.8-4.1l0.3-0.2c0.2-0.1,0.2-0.1,0.4-0.1l2.6-0.7l-0.4-0.1c-0.2,0-0.4-0.1-0.6-0.1
		c-4.3-0.5-8.5-0.2-12.6,0.7c-2.1,0.4-3.9,1.1-5.9,1.8c-0.2,0.1-0.3,0.1-0.4,0.1c-0.1,0-0.1,0-0.2,0.1l-0.2,0.1
		c-0.1-0.1-0.1-0.1,0-0.1c0.6-0.5,1.2-1.1,1.6-1.7c-1.1,0-3.6,0.4-4.5,0.6c-2,0.4-3.9,1.2-5.8,2c-0.3,0.1-0.6,0.2-0.9,0.4l-4.4,2.1
		c0,0,0,0,0,0l-0.1-0.1c0,0,0-0.1,0-0.1c0,0,0.2-0.3,1.2-1l0.3-0.2c0.1-0.1,0.1,0,0.1-0.1l-1-0.1c-1,0-2.2,0.3-2.9,0.7
		c-1,0.5-2.4,1.4-3.2,2.3c-0.2,0.2-0.2,0.3-0.4,0.5c-0.7,0.7-1.3,1.9-2.4,2.2l-3,0.7c-2.8,0.7-5.5,1.8-8,3.1c-1.6,0.8-3,1.8-4.4,2.8
		c-1.3,1-2.7,2.4-3.6,3.7l-0.7,1.1c-1.7,2.6-3,6.7-3,9.8c0,2.1,1.3,6.2,2.8,7.6c0.3,0.3,0.4,0.6,0.9,0.6c0.3-1.3-0.2-2.8-0.2-4.2
		c0-1.5,0.1-2.7,0.8-4c0.2-0.3,0.3-0.5,0.5-0.8c0.7,0.5,1.1,0.6,1.9,0.9c2.9,0.9,10.5,1.1,13.8,0.7l1.8-0.2c0.3,0,0.6,0.3,0.8,0.4
		l8.5,5.8c0.5,0.4,1,0.7,1.5,1.1c0.2,0.2,0.5,0.4,0.7,0.6c0.2,0.1,0.2,0.2,0.3,0.3c1.4,1.1,3.1,3,4.1,4.4c0.4,0.5,0.7,1,1,1.6
		c0.6,1.2,1.3,2.6,1.3,4c0,0.6-1.3,2.8-1.8,3.5c-0.8,1.2-1.8,2.4-2.7,3.5c-1.5,1.8-4.3,4.2-5.8,5.9l-3.4,3.7c-3.9,4.4-9,12.1-9,17.9
		c0,0.8,0,3.1,0.6,3.5c0-2.1,2-5.6,3.2-7.2c1.2-1.6,2.8-3.5,4.4-4.7c0.3-0.2,0.4-0.5,0.8-0.5c0.2,0.6,0.3,0.7,0.3,1.4
		c0,2-0.9,4.2-1.7,6c-0.2,0.5-0.7,1.2-0.8,1.8c0.5-0.1,1.9-1.4,2.3-1.7l2.1-2c0.2-0.2,0.3-0.3,0.5-0.5c2.5-2.7,4.6-5.6,6.6-8.6
		c0.8-1.2,2.3-3.7,3.5-4.6c-0.6,2.4-1.5,4.8-2.4,7.1l-1.9,4.1c-0.3,0.5-1.1,1.9-1.3,2.3c0.9-0.1,2.3-1,3.1-1.5
		c0.3-0.2,0.6-0.4,0.9-0.6l4.8-3.8c0.9-0.8,4.8-4.3,5.2-4.9l0,0.2c-0.4,0.8-4.2,12.5-4.2,12.9c0.2-0.1,0.3-0.1,0.5-0.2l1.4-0.9
		c1.5-1,3.2-2.4,4.6-3.7l0.8-0.7c0.2-0.1,0.3-0.2,0.4-0.4l2.3-2.2c0.3-0.3,0.4-0.5,0.7-0.8l2.2-2.4c-0.5,1.9-1.7,4.9-2.7,6.7
		c0.9,0,1.6-0.7,2.2-1.2C157.3,102.9,161.8,98.9,162.1,98.5L162.1,98.5z M134.7,107C134.7,107,134.7,107,134.7,107L134.7,107z
		 M170.8,96L170.8,96C170.8,96,170.8,96,170.8,96z M137.8,63.4L137.8,63.4C137.9,63.4,137.8,63.4,137.8,63.4z M135,61.4L135,61.4
		C135,61.5,135,61.4,135,61.4z M130.5,58.1c0.3,0.5,4.3,3.2,4.5,3.4l-2.2-0.5c0.1,0.5,2.4,2.4,3.1,2.8c1.8,1.2,3.9,2.3,6,3l0.7,0.3
		c0,0,0,0,0,0c-0.7,0-1.4-0.1-2-0.2c-0.7-0.1-1.2-0.3-1.8-0.4c0.4,0.6,2.3,2,3.6,4.7c0.2,0.5,0.7,1.4,0.8,2c-1-1.1-2.3-3.1-3.5-4.4
		c-1-1.1-3.4-3.6-4.4-4.6c-0.2-0.2-0.3-0.2-0.5-0.5c-1.2-1.2-4.1-3.4-5.6-4.5l-2.3-1.5c-0.1-0.1-0.1-0.1-0.2-0.1
		c2.1-0.5,6-0.2,8,0.5c0.5,0.2,0.9,0.3,1.4,0.5c0,0,0,0,0,0c0,0,0,0,0,0c-0.4,0-0.8-0.2-1.3-0.3C133.6,58.3,131.8,58.1,130.5,58.1
		L130.5,58.1z M122.1,56.8l-5.2-0.5c-1.6,0-4.3,0-5.6-0.1c-0.3,0-0.6,0-0.9-0.1c-0.3,0-0.6-0.1-0.8-0.1l-1.7-0.2
		c0.5-0.7,2.7-1.8,3.7-1.6c1.5,0.2,3.1,0.7,4.9,0.4c1-0.2,0.6-0.4,2.4-0.4c0.5,0,0.9,0,1.4,0c0.5,0,0.8-0.1,1.3-0.1l4.2,0
		c0.5,0,0.8-0.1,1.3-0.1c1.1,0,1.6-0.1,2.6,0.2c3.5,1,4.6,0.2,9.2,2c0.7,0.3,1.3,0.6,1.9,0.9c1.5,0.7,2.7,1.5,4.5,1.5
		c0.8,0,1.1-0.2,1.7-0.3c0,0,0.8,1.2-0.3,1.7c-1.5,0.6-3.8,0.1-5.2-0.1c-3.2-0.5-5.4-2.8-7.3-3.4c-0.5-0.2-1.1-0.1-1.7-0.1
		c-0.8,0-2.5-0.2-3.2-0.4c-0.5-0.1-0.9-0.3-1.3-0.5c-0.3-0.1-0.3,0-0.6,0l-3.6,0.9C123.3,56.6,122.5,56.8,122.1,56.8L122.1,56.8z
		 M105.1,55.3c0-0.4,0.3-1,0.5-1.2c0.3-0.3,0.7-0.6,1.1-0.7c1.7-0.6,4.6-0.7,6.2-0.1c0.7,0.2,1.9,0.8,2.8,0.8l-0.6,0.1
		c-3.4-0.2-6.1-1.2-9,0.5C105.7,54.8,105.4,55.1,105.1,55.3z M147.5,52c-2.2,0-4.1-1.8-4.1-3.7c0-1.2,0.2-2,1.2-2.8
		c0.4-0.3,0.6-0.5,1.2-0.4c1,0.2,3.1,0.1,4.7,0.5c0.3,0.1,0.3,0.2,0.5,0.4c0.1,0.2,0.2,0.3,0.3,0.5c0.5,1,0.4,2.2-0.1,3.1
		c-0.2,0.4-0.5,0.9-0.9,1.2c-0.4,0.3-0.7,0.6-1.2,0.8C148.8,51.8,148,52,147.5,52L147.5,52z M110,45.7c0,1.1,2.7,1.9,3.7,2.2
		c0.9,0.3,4.1,1.2,4.1,1.9c0,0.4-0.7,0.4-1.2,1.1c0.3,0.6,0.9,0.5,1.8,0.7c1.5,0.2,3.8,0.4,5.1,1.1c0.4,0.2,0.5,0.3,0.7,0.7
		c-0.5,0-1.1-0.1-1.5-0.2c-1.3-0.2-2.3-0.2-3.7,0.1c-0.3,0.1-0.6,0.1-0.9,0.2c-0.2,0-0.8,0.2-0.9,0.2c-1.1,0-2.6-0.5-3.5-0.8
		c-1.8-0.6-2.1-0.9-4.1-0.9c-1.7,0-4.5,0.7-5.3,2.2c-0.5,0.9-0.4,1.8-0.5,2.4c-0.1,0.4-0.6,1-0.8,2c-0.1,0.3-0.1,0.6-0.1,0.8
		c0,0.2,0,0.3-0.1,0.4c-0.1,0.4,0.1,0.2-0.2,0.4c-0.2-1.1-0.4-1.7-0.5-2.8c-0.1-1.1-0.1-2,0.1-3c0.1-1.1,0.5-2.5,1-3.5
		c0.1-0.3,0.2-0.5,0.3-0.8c0.5-1.1,1.8-3,2.6-4c0.2-0.2,0.3-0.3,0.5-0.6c0.4-0.5,1.2-1.1,1.7-1.6l1.9-1.4c0.8-0.5,2.6-1.5,3.6-2
		c0.3-0.1,0.6-0.3,0.7-0.3c0.1,0,1.1,0.6,1.1,1.1c0,0.8-2.3,1.7-2.9,2.1C112.4,43.8,110,44.8,110,45.7L110,45.7z M134,41.1L134,41.1
		c-0.6,0.4-1,0.5-2,1.1c-0.4,0.3-1.5,1.1-1.6,1.6c-0.4-0.1-1.3-1-1.6-1.2c-0.7-0.6-2.2-2.2-2.7-3.1c-0.3-0.6-0.7-1.4-0.7-2.2
		c0-0.4,1-1.8,1.3-2.2c0.5-0.7,0.8-1,1.1-1.3c0.5-0.7,1.9-1.5,2-1.6l-0.1,0.3c-0.3,0.4-0.9,1.7-0.9,2.1c0,0.3,0.1,0.1,0.1,0.5
		c1.1-0.6,2-1.1,3.3-1.8l3.4-1.7c0.2,0.1,0,0.1-0.3,0.3l-1.6,1.8c-0.9,1.1-2.1,2.8-2.2,4.5c0.8-0.5,0.6-0.7,2.2-1.3
		c0.7-0.2,2-0.7,2.8-0.7l-1.1,0.5c-2.1,0.9-4.5,2.8-5.1,5.2c-0.1,0.3-0.2,1.1-0.2,1.5c0.2-0.1,0.9-0.7,1.8-1.2
		c0.4-0.2,0.7-0.3,1.1-0.5C133.3,41.3,133.6,41.2,134,41.1z M134.1,41C134.2,40.9,134.4,41.1,134.1,41C134.2,41,133.9,41.1,134.1,41
		z M115.2,40c0.3,0,0.7-0.2,1-0.4c2.1-0.8,4.3-1.4,6.5-1.9c0.4-0.1,0.7-0.2,1.2-0.2c0.1,0.6,1.6,2.9,1.9,3.4l1.2,1.5
		c0.3,0.3,0.4,0.4,0.6,0.7c0.3,0.3,0.4,0.4,0.7,0.6c1.4,1.3,2.6,1.4,3.8,2.1c1,0.6,1.2,0.2,3.1,1.7c0.8,0.6,1.8,1.9,2.5,2.8
		c1.4,2,0.6,1.7,1.2,2.8l0.9,1.2c1.3,1.7,3.7,2.6,5.6,3.1c0.6,0.1,0.9,0.1,1.1,0.3c-0.7,0.1-0.4,0.2-1.7,0.2c-1.2,0-3.1-0.9-4-1.4
		c-2-1-4.8-2-7.1-2.4c-0.4-0.1-0.9,0-1.2-0.2c-0.4-0.3-0.4-0.6-1.5-1.2c-0.4-0.3-1.4-0.8-1.9-0.8c0.4,0.5,1.5,0.9,1.6,1.6
		c-1.1-0.5-3.4-0.9-5-0.9c-0.2,0-0.1,0-0.2,0.2c0.4,0,1.5,0.3,1.8,0.5c0.1,0.1,0.1,0,0.1,0.1l-1.2,0.1c-0.5,0-0.7-0.1-1.2-0.1
		c-0.2-0.4-0.1-0.4-0.5-0.8c-1-0.9-3.6-1.2-4.9-1.4c-0.8-0.1-1.4-0.2-2.1-0.4c0.3-0.5,2.7-1.3-0.5-2.4c-1.2-0.4-6.1-1.8-6.1-2.7
		c0-0.6,1.2-1.2,1.7-1.5c2-1.2,5.7-2.2,3.3-3.9C115.4,40.2,115.3,40.2,115.2,40L115.2,40z M128.8,51.8L128.8,51.8
		C128.8,51.9,128.9,51.8,128.8,51.8z"/>
</g>
</svg>
