<?xml version="1.0" encoding="UTF-8"?>
<!DOCTYPE svg PUBLIC "-//W3C//DTD SVG 1.1//EN" "http://www.w3.org/Graphics/SVG/1.1/DTD/svg11.dtd">
<!-- Creator: CorelDRAW 2021 (64-Bit) -->
<svg xmlns="http://www.w3.org/2000/svg" xml:space="preserve" width="84mm" height="53mm" version="1.1" style="shape-rendering:geometricPrecision; text-rendering:geometricPrecision; image-rendering:optimizeQuality; fill-rule:evenodd; clip-rule:evenodd"
viewBox="0 0 8400 5300"
 xmlns:xlink="http://www.w3.org/1999/xlink"
 xmlns:xodm="http://www.corel.com/coreldraw/odm/2003">
 <defs>
  <style type="text/css">
   <![CDATA[
    .fil0 {fill:black;fill-rule:nonzero}
   ]]>
  </style>
 </defs>
 <g id="Слой_x0020_1">
  <metadata id="CorelCorpID_0Corel-Layer"/>
  <g id="_2839919256672">
   <g>
    <g>
     <path class="fil0" d="M7260 2446l192 0 0 -38 144 0 67 -120 -206 0 0 -38 -192 0 0 38 -144 0 -67 120 206 0 0 38zm-144 -58l38 -67 129 0 0 -43 144 0 0 43 173 0 -38 67 -134 0 0 38 -144 0 0 -38 -168 0z"/>
     <polygon class="fil0" points="7292,2421 7420,2421 7420,2384 7548,2384 7580,2325 7420,2325 7420,2288 7292,2288 7292,2325 7168,2325 7136,2384 7292,2384 "/>
    </g>
    <g>
     <path class="fil0" d="M7359 2561c-25,0 -45,20 -45,45 0,25 20,45 45,45 25,0 45,-20 45,-45 0,-25 -20,-45 -45,-45zm0 76c-18,0 -32,-14 -32,-31 0,-17 14,-32 32,-32 17,0 31,14 31,32 0,17 -14,31 -31,31z"/>
     <path class="fil0" d="M7359 2582c-13,0 -23,11 -23,23 0,13 10,23 23,23 13,0 23,-11 23,-23 0,-13 -11,-23 -23,-23zm3 34l-6 0 0 -20 6 0 0 20z"/>
    </g>
    <g>
     <path class="fil0" d="M4827 3316c5,4 10,9 16,12 1,0 1,1 1,1 10,7 21,13 32,18 2,1 5,2 7,4 0,0 1,0 1,0 89,40 202,35 202,35l0 0 555 0c0,0 -416,-23 -555,-23 -65,0 -184,-2 -259,-48z"/>
     <path class="fil0" d="M5069 3926l24 0 547 11c-28,-2 -432,-33 -570,-35 -17,0 -37,-1 -59,-2 -66,-4 -149,-16 -207,-52 89,83 265,78 265,78z"/>
     <path class="fil0" d="M7939 4187l-1161 0c-483,0 -581,-97 -694,-244 -79,-101 -173,-315 -224,-439 -4,-10 -8,-19 -11,-27 -17,-41 -26,-66 -26,-66l1375 37 162 5 161 -5 872 -24 0 -24 -1034 28 -1570 -42c0,0 14,36 37,92 4,8 7,17 11,26 56,133 151,345 229,444 117,151 218,252 717,252l415 0c217,0 323,0 323,0l415 0c216,0 357,-19 457,-52l0 -15c-98,35 -237,54 -453,54z"/>
     <path class="fil0" d="M8392 3535l0 -91 -1034 28 0 0 0 0 -1508 -41c0,0 10,25 26,65 3,8 7,17 11,26l1310 36 162 4 161 -4 872 -24z"/>
     <path class="fil0" d="M6488 4027l1740 0c30,0 55,-25 55,-55l0 -288c0,-30 -24,-55 -55,-55l-1740 0c-30,0 -55,25 -55,55l0 289c0,30 24,55 55,55zm340 -371c0,-7 5,-12 12,-12l1383 0c25,0 46,21 46,46l0 275c0,26 -22,48 -48,48l-1381 0c-7,0 -12,-6 -12,-12l0 -345zm-381 25c0,-21 17,-37 37,-37l317 0c7,0 12,6 12,12l0 345c0,7 -5,12 -12,12l-312 0c-23,0 -42,-19 -42,-42l0 -290z"/>
     <rect class="fil0" x="8106" y="3717" width="126" height="25"/>
     <rect class="fil0" x="8106" y="3747" width="126" height="25"/>
     <path class="fil0" d="M8232 3688l-126 0 0 25 126 0 0 -25zm-107 22c0,0 -1,0 -2,0 -6,0 -10,-5 -10,-10 0,-5 4,-10 10,-10 1,0 2,0 2,0 -5,1 -8,5 -8,10 0,5 3,9 8,10zm11 0l-2 -1 -2 1 0 -2 -1 -1 2 0 1 -2 1 2 2 0 -2 1 0 2zm7 0l-2 -1 -2 1 0 -2 -2 -1 2 0 1 -2 1 2 2 0 -2 1 0 2zm0 -9l0 2 -2 -1 -2 1 0 -2 -2 -1 2 0 1 -2 1 2 2 0 -2 1zm8 9l-2 -1 -2 1 1 -2 -2 -1 2 0 1 -2 1 2 2 0 -1 1 0 2zm0 -9l0 2 -2 -1 -2 1 1 -2 -2 -1 2 0 1 -2 1 2 2 0 -1 1zm0 -6l0 2 -2 -1 -2 1 1 -2 -2 -2 2 0 1 -2 1 2 2 0 -1 2zm7 15l-2 -1 -2 1 0 -2 -1 -1 2 0 1 -2 1 2 2 0 -2 1 0 2zm0 -9l0 2 -2 -1 -2 1 0 -2 -1 -1 2 0 1 -2 1 2 2 0 -2 1zm0 -6l0 2 -2 -1 -2 1 0 -2 -1 -2 2 0 1 -2 1 2 2 0 -2 2zm8 15l-2 -1 -2 1 0 -2 -2 -1 2 0 1 -2 1 2 2 0 -2 1 0 2zm0 -9l0 2 -2 -1 -2 1 0 -2 -2 -1 2 0 1 -2 1 2 2 0 -2 1zm0 -6l0 2 -2 -1 -2 1 0 -2 -2 -2 2 0 1 -2 1 2 2 0 -2 2z"/>
     <path class="fil0" d="M8152 3937c0,16 -6,23 -16,23 -9,0 -16,-7 -16,-23l0 -48 -13 0 0 47c0,26 11,36 29,36 18,0 30,-11 30,-36l0 -47 -14 0 0 48z"/>
     <polygon class="fil0" points="8194,3959 8232,3898 8232,3889 8179,3889 8179,3902 8214,3902 8214,3902 8176,3963 8176,3972 8232,3972 8232,3959 8194,3959 "/>
     <path class="fil0" d="M6468 3833c5,0 10,-4 10,-10 0,-5 -4,-10 -10,-10 -5,0 -10,4 -10,10 0,5 4,10 10,10z"/>
     <path class="fil0" d="M8249 3833c5,0 10,-4 10,-10 0,-5 -4,-10 -10,-10 -5,0 -10,4 -10,10 0,5 4,10 10,10z"/>
    </g>
    <g>
     <path class="fil0" d="M5742 760c-48,86 -101,190 -147,307l471 -210 518 -231c-287,14 -510,32 -650,45 -18,2 -35,3 -51,5l-142 85z"/>
     <path class="fil0" d="M6417 1044l428 -428c-6,0 -12,0 -19,1 -28,1 -56,2 -83,3l-1211 628c-13,43 -25,87 -35,132l587 -4 332 -332z"/>
     <path class="fil0" d="M7187 708l116 -102c-87,1 -170,2 -251,4 -21,0 -43,1 -63,1l-733 763 173 -1 758 -665z"/>
     <path class="fil0" d="M7501 607c-43,-1 -88,-1 -133,-1l-9 0c-1,0 -2,0 -3,0l-747 767 116 -1 0 0 0 0c0,0 1,0 2,0 17,0 152,-1 216,-59 0,0 37,-40 129,-40l0 0 83 0 197 -378 150 -288z"/>
     <path class="fil0" d="M7994 620c-111,-5 -229,-8 -355,-11l-219 384 -160 280 118 0 548 -580 69 -73z"/>
     <path class="fil0" d="M8203 630c-32,-2 -65,-3 -98,-5l-516 648 57 0 0 0c92,0 129,40 129,40 0,0 0,0 1,0 24,21 57,35 90,44l389 -724c-17,-1 -34,-2 -51,-3z"/>
     <path class="fil0" d="M8392 1094l0 -374 -417 652c10,0 16,0 16,0l0 0 0 0 0 0 117 1 283 -278z"/>
     <polygon class="fil0" points="8392,1299 8324,1374 8392,1374 "/>
    </g>
    <path class="fil0" d="M5861 468c494,-83 1066,-95 1380,-95l252 0c219,0 554,6 899,37l0 -8c-428,-38 -839,-39 -1034,-37 -265,-3 -932,0 -1499,95l-32 0c0,0 0,-1 0,-2 1,-5 0,-18 -18,-18 -24,0 -143,47 -265,265 -83,149 -187,357 -292,622l-145 358c0,0 -25,60 -115,133 0,0 0,1 -1,2 -10,16 -86,134 -96,162 0,0 -14,36 -32,126 -6,28 -12,62 -18,101l0 1c-3,17 -6,35 -8,54 -2,16 -5,32 -7,49 0,0 -30,259 -77,464 -47,204 -38,318 -38,413 0,96 13,494 36,662 0,0 23,136 75,257l-1 14 -5 151c0,99 1,200 6,292 2,43 0,83 4,121 0,0 2,29 8,63 2,13 6,26 11,40 3,8 7,16 12,24 -153,11 -237,22 -237,34 0,46 1223,84 2733,84 366,0 715,-2 1034,-6l0 -155c-319,-4 -668,-6 -1034,-6 -716,0 -1368,8 -1855,22 4,-8 7,-17 11,-26 4,-8 6,-18 8,-27 1,-1 1,-2 1,-4 8,-40 19,-302 25,-466l0 -2c20,-20 51,-37 98,-37l199 0c6,0 8,0 8,0 0,0 4,1 11,2 6,1 13,4 22,7 3,1 6,2 8,4 3,2 7,4 10,5 2,1 5,2 7,4 2,1 4,2 6,4 26,18 52,50 53,103 0,0 521,35 1271,41 39,0 78,1 117,1 40,0 79,0 117,-1 300,-2 637,-12 917,-20l0 -9c-342,10 -755,21 -1034,23 -809,-4 -1383,-42 -1383,-42 -1,-53 -27,-85 -55,-103 -5,-3 -9,-6 -13,-8 -3,-1 -6,-3 -9,-4l22 0 1475 10c0,0 511,0 996,-1l0 -13c-487,0 -998,1 -998,1l-1531 -11 -215 0c-47,0 -78,17 -99,37 -34,32 -41,75 -41,75 0,0 -2,0 -7,0 -7,0 -19,0 -36,1 -24,0 -55,0 -92,0l-11 0c-55,-1 -119,-4 -182,-11 -4,0 -7,-1 -11,-1 -68,-7 -134,-19 -182,-37 -4,-1 -7,-3 -11,-5 -8,-4 -16,-7 -23,-11 -20,-12 -38,-29 -54,-49 -4,-5 -8,-9 -11,-14 -17,-23 -32,-50 -45,-79l0 0c0,0 0,0 0,0 0,0 -1,0 -1,0l0 -2c0,0 0,0 -1,-1 -57,-124 -83,-273 -83,-273 -24,-167 -36,-563 -36,-659 0,-96 -9,-208 38,-412 47,-204 77,-462 77,-462 1,-6 2,-13 2,-19 3,-20 6,-40 9,-58 6,-36 11,-67 16,-95l0 22 -16 706c0,0 0,4 0,10 0,47 13,248 227,304 -233,-67 -217,-314 -217,-314l10 -533c2,116 3,226 4,243 2,40 -6,277 152,308 132,26 478,35 594,37 0,-1 0,-1 0,-2 -1,-4 -2,-8 -3,-12 -1,-4 -2,-8 -2,-11 0,0 0,-1 0,-1l0 0c0,0 0,-1 0,-2 0,-1 -1,-2 -1,-4 0,-3 -1,-5 -2,-8 0,-1 -1,-3 -1,-5 -1,-3 -1,-6 -2,-10 0,-1 -1,-2 -1,-4 0,-1 -1,-2 -1,-4 0,-1 0,-2 -1,-2 0,0 0,0 0,-1 0,0 0,-1 0,-1l0 0c0,-1 0,-2 -1,-3 -1,-6 -3,-11 -5,-17l0 0c-1,-5 -2,-10 -3,-14 -1,-4 -2,-8 -3,-12 -1,-3 -2,-6 -2,-9 -2,-10 -5,-20 -7,-30 -1,-5 -2,-10 -4,-16 -1,-2 -1,-4 -1,-6 -2,-8 -4,-15 -6,-23 -1,-5 -2,-9 -4,-14 -5,-22 -11,-44 -17,-67 -1,-6 -3,-12 -5,-18 -2,-9 -4,-17 -6,-26l-6 -26c0,-1 -1,-2 -1,-4 -6,-24 -12,-48 -18,-73 -5,-21 -10,-41 -15,-62l0 0c-1,-4 -2,-8 -3,-12 -3,-11 -6,-23 -8,-34 -4,-14 -7,-28 -10,-41 -39,-155 -74,-292 -85,-338 0,0 0,0 0,-1l7 0c108,1 435,3 802,5 367,2 774,5 1042,6l4 0c56,0 618,-3 1145,-6l0 -12c-504,3 -1020,6 -1020,6 -234,-1 -671,-3 -1078,-6 -407,-3 -785,-6 -899,-6l-7 0c-11,-50 -22,-117 -31,-181 -11,-81 -20,-157 -22,-181l2 0c1,0 3,0 5,0 184,-6 1038,-34 2015,-36 186,0 368,2 542,4 174,2 339,4 492,7l0 -9c-278,-5 -596,-9 -931,-11l-205 0c-936,4 -1737,30 -1913,36 -2,0 -4,0 -5,0l-1 0c0,-1 1,-2 1,-3 0,0 0,0 0,0 1,-5 3,-9 4,-13 28,-86 61,-136 70,-145 8,-1 17,-1 27,-2l2 0c161,-8 1040,-12 1919,-12 361,0 722,1 1034,2l0 -41 -386 -3c0,0 -154,3 -223,-66 0,0 -38,-44 -132,-44l-589 0c-95,0 -132,44 -132,44 -69,69 -223,66 -223,66l-1258 9c66,-320 197,-597 295,-774 114,-14 730,-84 1615,-90l10 0c406,3 755,19 1024,37l0 -15c-245,-17 -556,-32 -917,-36 -17,0 -66,0 -116,0 -49,0 -99,0 -119,0 -800,11 -1360,72 -1488,87 45,-79 82,-137 102,-166l6 0zm-488 3873c54,1 98,0 121,0l7 0c0,1 0,2 0,3 -25,2 -59,22 -59,72 0,85 -15,194 -25,244 -7,34 -15,53 -22,77 -2,-9 -4,-18 -5,-26 0,-1 0,-2 0,-2 -1,-4 -1,-7 -2,-11 0,-2 -1,-3 -1,-5 0,1 0,1 1,2 -2,-11 -3,-22 -5,-34l-1 -15c-2,-21 -4,-43 -5,-68 0,-5 0,-11 -1,-16 -3,-61 -4,-134 -2,-220zm-193 -11c62,6 127,9 182,10 -1,50 -1,102 0,155 0,15 1,30 1,46 -15,2 -32,5 -46,8 -23,5 -46,14 -59,31 -10,14 -12,31 -12,48 -1,56 6,114 22,168 -2,0 -4,0 -5,0 -17,0 -34,1 -50,1 -2,-8 -4,-16 -6,-25 -20,-85 -35,-222 -28,-443zm-195 64c0,-6 0,-12 0,-18 0,-21 1,-43 1,-66 0,-6 0,-12 0,-18l0 0c49,18 114,29 183,36 -1,53 -2,109 0,165 0,0 0,0 0,1 0,18 1,36 2,54 -18,2 -40,7 -58,12 -23,6 -46,16 -58,34 -10,14 -10,32 -10,48 1,54 9,109 26,161l-1 0c-16,1 -32,2 -48,2 -2,-7 -5,-15 -7,-24l0 0c0,-2 -1,-4 -1,-6l0 0 0 0c-8,-36 -16,-81 -22,-140 0,-4 -1,-8 -1,-12 -1,-20 -3,-41 -4,-64 0,-6 0,-12 0,-18 -1,-20 -2,-42 -2,-65l0 -18c-1,-21 -1,-42 0,-65zm-147 -23c9,4 23,7 38,10 25,5 55,8 78,11 7,1 14,1 20,2 0,22 0,44 0,67 0,0 0,0 -1,0 -5,0 -10,1 -15,1 -6,0 -12,0 -17,-1 -1,0 -3,0 -4,0 -1,0 -2,0 -3,0 -4,0 -7,0 -11,-1 -4,-1 -9,-1 -13,-2 -4,0 -8,-1 -13,-2 -6,-1 -12,-2 -18,-3 -3,-1 -6,-1 -8,-2 -11,-2 -19,-4 -26,-6 -2,-1 -4,-1 -6,-2 -1,-23 -1,-48 -1,-72zm9 306c-2,-17 -2,-35 -2,-53l0 0c5,1 10,3 16,4 0,25 1,50 5,75 -6,-1 -12,-2 -17,-2 -1,-14 -1,-24 -1,-24zm29 115c0,0 -1,-1 -1,-1 -8,-13 -14,-27 -17,-41 -4,-13 -6,-25 -7,-36l0 0c5,1 12,2 18,2 4,26 11,51 19,76 -4,0 -8,0 -12,-1zm-4 -225c-9,12 -11,28 -11,43l0 5c-6,-1 -12,-2 -16,-4 0,-18 0,-36 -1,-54 0,-6 -1,-11 -1,-17l0 0c12,4 31,7 50,10 -8,4 -16,10 -21,17zm53 -28c-2,1 -5,1 -7,2 -31,-4 -60,-10 -76,-14 -1,-24 -2,-47 -2,-72 6,2 14,4 23,6 35,7 87,12 113,14l0 0c0,19 0,37 1,55 -16,1 -36,5 -51,8zm-85 -332c0,0 0,0 0,0 5,2 12,4 20,6 8,2 18,3 28,5 16,21 34,40 53,52 3,2 6,4 8,6 1,0 2,1 3,1 7,4 16,8 24,12 0,2 0,4 0,6l0 1c-25,1 -53,-2 -79,-7 -26,-5 -48,-10 -60,-13l2 -68zm7 84c13,4 32,7 53,11 1,0 3,0 4,1 18,2 35,5 50,6 8,1 16,2 22,2 0,11 0,22 0,32 -1,11 -1,23 -1,35l0 0c-10,1 -20,0 -31,-1 -43,-3 -87,-13 -106,-18 0,-24 0,-48 0,-72 2,1 6,3 10,4zm2148 -2929c0,0 32,-20 114,-20l504 0c81,0 113,20 113,20 21,11 80,49 80,49 -292,0 -604,0 -896,0 0,0 63,-38 85,-49zm-1619 649c1,4 2,7 2,11 0,0 0,0 0,1 26,111 191,757 222,877 2,7 -4,14 -11,14 -125,-2 -437,-11 -560,-36 -155,-31 -147,-262 -149,-301 -1,-28 -4,-291 -6,-437 20,-105 36,-146 36,-146 11,-29 95,-159 95,-159 0,0 0,0 1,-1l332 0c5,0 9,4 10,8 9,59 19,121 29,168zm40 -587c-1,6 -2,12 -4,18 -1,2 -1,4 -1,6 0,0 0,0 0,0 -1,7 -3,14 -4,22 0,0 -22,24 -48,86 -1,1 -1,2 -2,4 -7,16 -14,35 -21,56l0 0c-2,5 -4,9 -5,14 0,1 0,1 -1,2 0,0 0,2 1,7 3,23 11,99 23,181l-355 0c44,-37 73,-70 90,-94 17,-24 24,-39 24,-39l144 -357c105,-265 208,-471 291,-620 121,-217 240,-264 264,-264 12,0 16,5 17,10 -52,76 -310,470 -412,965z"/>
    <path class="fil0" d="M5580 2776c2,7 4,14 5,21 3,13 6,27 10,39 1,6 3,12 4,18 1,6 3,12 4,17 0,0 0,0 0,1 0,1 0,1 1,2 0,0 0,0 0,0 1,4 2,7 2,10 1,5 3,10 4,15 0,1 0,2 1,2 0,0 0,0 0,0 0,0 0,0 0,0l0 0c0,1 0,1 0,2 0,0 0,1 0,1 0,1 0,2 1,3 0,1 1,2 1,4l0 0c0,1 0,2 1,3 1,6 3,11 3,14l0 0 0 0c0,0 0,0 0,0 5,19 16,46 38,85 4,5 7,12 11,17 47,75 131,174 248,180 156,8 760,32 1290,40 52,1 104,1 154,2 50,0 101,-1 153,-2 302,-4 627,-14 880,-23l0 -13c0,0 0,0 0,0 -8,0 -16,1 -24,1 0,0 0,0 0,0l0 0c-13,0 -26,1 -39,1 0,0 0,0 -1,0 -1,0 -2,0 -4,0l0 0c-5,0 -10,0 -15,0 -1,0 -2,0 -4,0l-4 0c-10,0 -20,1 -30,1 0,0 0,0 -1,0l-3 0c-2,0 -5,0 -7,0 0,0 -1,0 -1,0 -1,0 -2,0 -2,0l-1 0c-2,0 -4,0 -6,0 -1,0 -2,0 -3,0l-3 0c-2,0 -4,0 -6,0 0,0 0,0 0,0 0,0 0,0 -1,0 0,0 0,0 -1,0l-3 0c-3,0 -6,0 -10,0 -2,0 -4,0 -6,0 -130,4 -271,8 -413,11 -2,0 -3,0 -5,0l-1 0c-64,1 -129,3 -193,4 -4,0 -8,0 -12,0 0,0 0,0 0,0 -14,0 -28,0 -42,1 -7,0 -14,0 -20,0 -7,0 -14,0 -21,0 -4,0 -8,0 -12,0 -13,0 -25,0 -37,0 -35,0 -69,1 -102,1 -13,0 -27,0 -41,0 -14,0 -27,0 -41,0 -4,0 -9,0 -14,0 -12,0 -24,0 -37,0l-10 0c-1,0 -2,0 -3,0 -5,0 -9,0 -14,0l-6 0c-1,0 -2,0 -3,0 -2,0 -4,0 -6,0 -23,0 -45,-1 -68,-1 0,0 0,0 0,0 -2,0 -4,0 -6,0 -98,-2 -197,-4 -294,-6 -2,0 -5,0 -7,0l-1 0c-14,-1 -29,-1 -43,-1 -14,0 -29,-1 -43,-1 -5,0 -10,0 -15,0 0,0 0,0 0,0 -34,-1 -68,-2 -102,-3 -1,0 -2,0 -3,0 -3,0 -5,0 -7,0 -2,0 -4,0 -6,0 -9,0 -17,-1 -26,-1 0,0 0,0 0,0 -152,-4 -292,-9 -405,-13l-2 0c-2,0 -4,0 -7,0 -4,0 -7,0 -11,0l-2 0c-1,0 -1,0 -2,0 -14,-1 -28,-1 -42,-2l0 0c-2,0 -3,0 -5,0 -35,-1 -66,-3 -93,-4 -2,0 -3,0 -5,0 -6,0 -12,-1 -17,-1 -6,0 -11,-1 -16,-1 -2,0 -4,0 -6,0 -1,0 -1,0 -2,0 -1,0 -3,0 -4,0l-3 0c-4,0 -8,0 -11,-1 -5,0 -10,0 -14,-1 -114,-6 -197,-94 -244,-167 -4,-6 -8,-12 -11,-18 -1,-2 -2,-4 -4,-6 -1,-1 -1,-3 -2,-5 -1,-2 -2,-4 -4,-6 0,-1 -1,-2 -1,-3 -1,-1 -1,-2 -1,-3 -3,-6 -7,-12 -10,-18 0,0 0,0 0,0 0,0 0,-1 -1,-1 0,0 0,0 0,0 0,0 0,0 0,0 0,0 0,0 0,-1 0,0 0,0 0,0 0,0 0,0 0,-1 0,0 0,0 0,-1l0 0c-2,-3 -3,-7 -5,-9 0,0 1,1 1,1 0,0 -1,-1 -1,-1 1,2 4,7 7,13 0,0 0,0 0,0 0,0 0,0 0,0 0,1 1,2 1,2 0,0 0,1 0,1 0,0 0,1 1,1 0,0 0,0 0,1l0 0c1,2 2,5 4,7l0 0c0,0 0,0 0,0 0,1 1,1 1,2 1,3 3,5 4,7 0,0 0,0 0,0 4,5 7,11 11,17 47,72 132,168 249,174 3,0 6,0 8,0 3,0 7,0 10,1 1,0 3,0 4,0l1 0c0,0 0,0 1,0 2,0 4,0 6,0l0 0c0,0 0,0 0,0 9,0 19,1 29,1 1,0 2,0 3,0 0,0 1,0 1,0 21,1 45,2 72,3 6,0 12,1 19,1 5,0 11,0 17,1 13,0 25,1 38,1 1,0 1,0 2,0 4,0 8,0 12,0 0,0 1,0 1,0 4,0 8,0 12,0l2 0c0,0 0,0 0,0 5,0 11,0 17,1l0 0c0,0 1,0 1,0 16,1 31,1 48,2 1,0 2,0 3,0 8,0 17,1 25,1 3,0 7,0 10,0 3,0 6,0 9,0 18,1 37,1 57,2 7,0 14,0 21,1 6,0 12,1 18,1 2,0 4,0 6,0 2,0 3,0 5,0 4,0 8,0 11,0 1,0 1,0 1,0 11,0 22,1 34,1 27,1 54,2 83,3l4 0c16,0 32,1 48,1 16,0 32,1 48,1 2,0 5,0 8,0l5 0c8,0 16,0 24,1 14,0 29,1 43,1 13,0 26,1 40,1 2,0 3,0 5,0 2,0 3,0 5,0 13,0 26,1 39,1 5,0 10,0 14,0 11,0 21,1 32,1 16,1 33,1 50,1 11,0 21,0 32,1 1,0 2,0 3,0 2,0 3,0 5,0 12,0 24,1 35,1 11,0 22,0 33,1 72,1 144,3 214,4 5,0 9,0 13,0 53,1 106,1 157,2 51,0 104,-1 157,-2l0 0c8,0 17,0 26,0 13,0 27,0 40,-1 4,0 8,0 11,0 20,0 40,-1 61,-1 7,0 14,0 22,0 43,-1 87,-2 130,-3 0,0 1,0 1,0 0,0 1,0 1,0 8,0 16,0 24,0 17,0 34,-1 51,-1 1,0 3,0 4,0 20,0 40,-1 59,-1 3,0 7,0 10,0 18,0 37,-1 55,-1 49,-1 97,-3 143,-4 1,0 2,0 3,0 19,0 38,-1 56,-2l3 0c7,0 14,0 21,-1 0,0 0,0 1,0l2 0c45,-1 88,-3 129,-4 9,0 18,-1 26,-1l0 -12c-297,10 -693,20 -1034,22l0 0 0 0c-561,-4 -1274,-29 -1444,-38 -115,-6 -198,-91 -245,-162 0,0 0,0 0,0l0 0c273,12 1160,25 1578,31 42,0 80,1 111,1 31,0 69,-1 111,-1 227,-3 592,-9 923,-15l0 -17c-392,7 -832,14 -1034,16l0 0 0 0c-349,-5 -1416,-20 -1700,-33 -9,-14 -17,-28 -22,-38 -8,-15 -14,-31 -18,-47 -1,-6 -3,-11 -3,-13 -1,-3 -2,-7 -3,-11 -1,-6 -3,-12 -5,-18 0,-1 0,-1 0,-2 0,0 0,-1 0,-2 -2,-8 -4,-16 -6,-25 -1,-3 -1,-6 -2,-9 0,-2 -1,-3 -1,-5 0,0 0,0 0,0 -1,-3 -2,-7 -3,-11 -13,-49 -28,-109 -45,-176 -1,-3 -1,-5 -2,-8 0,0 0,0 0,-1l0 0c0,0 0,0 0,0 -1,-6 -3,-11 -4,-17 -1,-6 -3,-11 -4,-17 0,0 0,0 0,0 0,-1 0,-2 -1,-2 0,0 0,0 0,0 -1,-3 -1,-6 -2,-9 0,-1 0,-2 -1,-3 0,-1 0,-2 -1,-3 0,-1 -1,-3 -1,-4 -1,-4 -2,-8 -3,-12 0,0 0,0 0,0 0,0 0,-1 0,-1 0,-2 -1,-3 -1,-5 -3,-14 -7,-27 -10,-41 -3,-12 -6,-24 -9,-36 -1,-5 -3,-11 -4,-16 0,0 0,0 0,0 -2,-7 -4,-15 -6,-22 5,21 10,41 15,62 6,25 12,49 18,73 0,1 0,2 1,4l6 26c0,0 0,0 0,0 0,0 0,0 0,0 1,3 2,6 2,9 3,12 6,23 8,35 0,0 0,0 0,0 0,0 0,0 0,0 6,23 11,45 17,67 1,5 2,10 4,14 2,8 4,15 6,23 0,2 1,4 1,6 1,5 2,10 4,16 0,0 0,0 0,0 0,0 0,0 0,0z"/>
    <g>
     <path class="fil0" d="M4950 2385c-13,0 -24,11 -23,24 1,85 2,127 2,141 2,33 -5,232 128,259 106,21 348,29 453,31 7,0 12,-6 10,-12 -14,-56 -60,-229 -105,-409 -5,-20 -23,-34 -43,-34l-423 0zm458 43c43,171 86,336 101,390 1,6 -4,13 -10,12 -101,-2 -332,-10 -434,-30 -128,-25 -121,-216 -123,-248 0,-13 -1,-54 -2,-134 0,-13 10,-24 23,-24l403 0c20,0 38,14 43,34z"/>
     <path class="fil0" d="M4981 2410c-12,0 -22,10 -22,22 1,75 2,113 2,125 0,7 0,21 2,40l76 0c1,-7 7,-12 15,-12l289 0c7,0 14,5 14,12l76 0c-12,-48 -26,-102 -40,-155 -5,-18 -21,-31 -40,-31l-374 0zm407 37c13,49 27,99 39,144l-64 0c-1,-6 -7,-11 -14,-11l-300 0c-7,0 -14,4 -15,11l-64 0c-1,-17 -1,-30 -1,-36 0,-12 -1,-46 -2,-116 0,-11 9,-22 21,-22l364 0c19,0 32,14 36,31z"/>
     <path class="fil0" d="M5190 2459c-20,0 -37,16 -37,37 0,20 16,37 37,37 20,0 37,-17 37,-37 0,-20 -17,-37 -37,-37zm29 37c0,16 -13,29 -29,29l0 0 0 0c-16,0 -29,-13 -29,-29l0 0 12 0 0 0c0,10 7,17 17,17 10,0 17,-7 17,-17l0 0 12 0 0 0z"/>
     <path class="fil0" d="M4999 2423c-11,0 -20,8 -20,19 1,65 2,97 2,107 0,6 0,15 1,31l44 0c1,-6 7,-10 14,-10l314 0c7,0 12,4 13,10l50 0c-12,-42 -24,-84 -36,-130 -4,-16 -19,-27 -37,-27l-346 0zm191 124c-29,0 -52,-23 -52,-52 0,-29 23,-52 52,-52 29,0 52,23 52,52 0,29 -23,52 -52,52z"/>
     <path class="fil0" d="M5358 2602c-1,5 -6,10 -12,10l-293 0c-7,-1 -12,-5 -13,-10 0,0 0,0 0,-1l-76 0c4,63 23,169 112,187 94,19 309,25 403,28 6,0 11,-6 9,-12 -8,-33 -29,-109 -53,-202l-77 0c0,0 0,0 0,1zm6 4l67 0c20,77 37,141 47,177 1,5 2,10 4,14 2,6 -3,12 -9,11 -35,-1 -85,-2 -140,-5 -92,-4 -195,-10 -253,-21 -87,-17 -105,-116 -110,-176l65 0c1,5 7,10 14,10l303 0c7,-1 12,-5 12,-10z"/>
     <path class="fil0" d="M5227 2749c22,0 40,-18 40,-41 0,-22 -18,-40 -40,-40 -22,0 -40,18 -40,40 0,22 18,41 40,41zm-32 -41l14 0 0 0c0,11 8,19 18,19 10,0 18,-8 18,-19l0 0 13 0 0 0c0,18 -14,32 -32,32l0 0 0 0c-18,0 -32,-14 -32,-32l0 0z"/>
     <path class="fil0" d="M5029 2613l-53 0c4,56 22,145 106,160 56,10 156,17 245,20 53,2 102,4 136,5 6,0 11,-5 9,-11 -1,-4 -2,-8 -4,-13 -10,-34 -26,-90 -46,-161l-43 0c0,4 -5,8 -10,8l-327 1c-7,-1 -12,-5 -13,-10zm198 38c31,0 56,25 56,56 0,31 -25,56 -56,56 -31,0 -56,-25 -56,-56 0,-31 25,-56 56,-56z"/>
    </g>
    <g>
     <path class="fil0" d="M4995 2338l377 0c13,0 22,-12 19,-24 -29,-112 -53,-207 -61,-241 0,0 0,0 0,-1 -1,-3 -1,-6 -2,-10 -8,-35 -16,-80 -22,-126 -2,-15 -15,-26 -30,-26l-239 0c0,0 0,0 0,1 0,0 -71,114 -80,139 0,0 -13,31 -23,78 -6,31 -9,62 -8,93 0,16 0,32 1,48 0,38 31,68 69,68zm-49 -219c0,-2 1,-3 1,-3 10,-44 28,-86 51,-124 21,-35 45,-71 45,-71 0,0 0,0 0,-1l226 0c15,0 28,11 30,26 6,43 14,86 21,119 1,4 1,6 2,9 0,0 0,0 0,1 8,33 31,123 58,229 3,12 -6,24 -19,24l-356 0c-38,0 -69,-31 -69,-68 0,-15 0,-30 -1,-43 0,-33 3,-65 10,-97z"/>
     <path class="fil0" d="M5030 2117l222 0c6,0 11,5 11,12l58 0c-6,-22 -10,-39 -12,-50 0,0 0,0 0,-1 0,-3 -1,-5 -2,-8 -7,-30 -13,-70 -19,-109 -2,-13 -14,-23 -28,-23l-207 0c0,0 0,0 0,1 0,0 -22,33 -41,65 -22,35 -37,73 -47,114 0,0 0,1 -1,3 -1,3 -1,6 -2,10l56 0c1,-7 6,-12 12,-12zm-62 9c0,-2 0,-3 1,-5 0,-2 1,-3 1,-5 0,-2 1,-3 1,-3 9,-39 24,-76 45,-110 19,-31 40,-63 40,-63 0,0 0,0 0,-1l201 0c13,0 25,10 26,23 6,38 12,77 19,106 1,3 1,5 2,8 0,0 0,0 0,1 2,11 6,27 12,49l-49 0c-2,-9 -9,-11 -18,-11l-215 0c-6,0 -14,0 -18,11l-48 0z"/>
     <path class="fil0" d="M5255 2106c9,0 14,2 17,10l26 0c-5,-19 -8,-34 -11,-44 0,0 0,0 0,-1 0,-2 -1,-4 -1,-7 -6,-26 -12,-61 -17,-95 -1,-12 -12,-20 -24,-20l-180 0c0,0 0,0 0,1 0,0 -19,29 -36,57 -19,30 -32,64 -41,98 0,0 0,1 0,2 0,1 -1,3 -1,4 0,1 -1,2 -1,4l25 0c4,-10 11,-10 16,-10l229 0zm-106 -130c29,0 52,23 52,52 0,29 -23,52 -52,52 -29,0 -52,-23 -52,-52 0,-29 23,-52 52,-52z"/>
     <path class="fil0" d="M5149 2065c20,0 37,-17 37,-37 0,-20 -17,-37 -37,-37 -20,0 -37,16 -37,37 0,20 16,37 37,37zm-29 -37l12 0 0 0c0,10 7,17 17,17 10,0 17,-7 17,-17l0 0 12 0 0 0c0,16 -13,29 -29,29l0 0 0 0c-16,0 -29,-13 -29,-29l0 0z"/>
     <path class="fil0" d="M5019 2311l325 0c12,0 20,-11 17,-22 -15,-60 -29,-115 -38,-155l-60 0c-1,6 -5,10 -10,11l-225 0c-5,-1 -10,-5 -10,-11l-56 0c-5,24 -7,50 -7,75 0,13 0,26 0,40 0,35 29,63 64,63zm-52 -175l49 0c2,7 5,11 16,11l224 0c5,-1 9,-5 10,-11l53 0c10,39 23,92 37,151 3,11 -5,22 -16,22l-317 0c-34,0 -62,-27 -62,-61 0,-13 0,-26 0,-38 0,-24 1,-49 6,-73z"/>
     <path class="fil0" d="M5030 2299l298 0c11,0 18,-10 16,-19 -14,-53 -26,-101 -35,-135l-39 0c0,5 -4,9 -9,10l-235 0c-10,0 -13,-3 -15,-10l-33 0c-5,22 -6,43 -6,65l0 35c0,30 26,55 58,55zm119 -125c29,0 52,23 52,52 0,29 -23,52 -52,52 -29,0 -52,-23 -52,-52 0,-29 23,-52 52,-52z"/>
     <path class="fil0" d="M5149 2263c20,0 37,-17 37,-37 0,-20 -17,-37 -37,-37 -20,0 -37,16 -37,37 0,20 16,37 37,37zm-29 -37l12 0 0 0c0,10 7,17 17,17 10,0 17,-7 17,-17l0 0 12 0 0 0c0,16 -13,29 -29,29l0 0 0 0c-16,0 -29,-13 -29,-29l0 0z"/>
    </g>
    <g>
     <path class="fil0" d="M7062 1381c0,-5 -2,-9 -5,-13 -3,-3 -8,-5 -13,-5 -7,0 -14,5 -17,11 -1,2 -1,5 -1,7 0,4 1,7 4,10 3,5 8,8 14,8 4,0 7,-1 10,-4 5,-3 8,-8 8,-14z"/>
     <path class="fil0" d="M7128 1370c-3,-4 -8,-8 -14,-8 -5,0 -10,2 -13,5 -3,3 -5,8 -5,13 0,5 2,10 5,13 3,3 8,5 13,5 2,0 5,-1 7,-1 1,0 2,-1 2,-2 1,-1 2,-1 3,-2 3,-3 5,-8 5,-13 0,-4 -2,-7 -4,-10z"/>
     <path class="fil0" d="M7184 1363c-10,0 -18,8 -18,18 0,10 8,18 18,18 10,0 18,-8 18,-18 0,-10 -8,-18 -18,-18z"/>
     <path class="fil0" d="M7253 1363c-10,0 -18,8 -18,18 0,10 8,18 18,18 10,0 18,-8 18,-18 0,-10 -8,-18 -18,-18z"/>
     <path class="fil0" d="M7341 1381c0,-5 -2,-9 -5,-13 -3,-3 -8,-5 -13,-5 -7,0 -14,5 -17,11 -1,2 -1,5 -1,7 0,5 2,9 5,13 3,3 8,5 13,5 5,0 9,-2 12,-5 4,-3 6,-8 6,-13z"/>
     <path class="fil0" d="M7382 1395c3,3 7,4 11,4 5,0 9,-2 13,-5 3,-3 5,-8 5,-13 0,-2 -1,-5 -1,-7 -3,-6 -9,-11 -17,-11 -5,0 -10,2 -13,5 -3,3 -5,8 -5,13 0,6 3,10 7,14z"/>
     <path class="fil0" d="M7463 1399c10,0 18,-8 18,-18 0,-10 -8,-18 -18,-18 -10,0 -18,8 -18,18 0,10 8,18 18,18z"/>
     <path class="fil0" d="M7533 1399c10,0 18,-8 18,-18 0,-10 -8,-18 -18,-18 -10,0 -18,8 -18,18 0,10 8,18 18,18z"/>
     <path class="fil0" d="M7596 1397c2,1 4,1 7,1 5,0 10,-2 13,-5 3,-3 5,-8 5,-13 0,-5 -2,-9 -5,-12 -3,-4 -8,-6 -13,-6 -5,0 -9,2 -13,5 -3,3 -5,8 -5,13 0,7 5,14 11,17z"/>
     <path class="fil0" d="M7664 1396c3,2 6,3 10,3 7,0 14,-5 17,-11 1,-2 1,-5 1,-7 0,-2 -1,-4 -1,-6 -2,-7 -9,-12 -17,-12 -5,0 -10,2 -13,5 -3,3 -5,8 -5,13 0,6 4,12 9,15z"/>
    </g>
   </g>
   <g>
    <path class="fil0" d="M5869 4334c-3,-17 -12,-33 -26,-46 -24,-21 -60,-34 -100,-34 -54,0 -100,23 -119,57 -1,2 -2,4 -3,7 0,0 0,0 0,0 -1,1 -1,3 -1,3 0,0 0,1 0,1 -3,7 -4,15 -4,23 0,50 57,91 128,91 46,0 86,-17 109,-43 0,0 0,0 1,0 1,-1 2,-3 3,-4 1,0 1,-1 1,-1 2,-2 3,-4 4,-6 2,-3 3,-6 4,-8 4,-9 6,-18 6,-27 0,-4 0,-7 -1,-10zm-22 35c-14,31 -56,54 -105,54 -61,0 -110,-35 -110,-79 0,-7 1,-15 4,-21 13,-33 55,-57 106,-57 46,0 85,20 102,48 5,8 8,17 8,26 0,1 0,3 0,5 0,9 -2,17 -6,25z"/>
    <path class="fil0" d="M5864 4371c6,-11 10,-22 10,-34 0,-3 0,-7 -1,-10 -2,-17 -12,-32 -26,-44 -24,-20 -61,-33 -102,-33 -54,0 -101,22 -120,54 9,-17 30,-38 52,-72l169 0c6,0 8,0 8,0 0,0 4,1 11,2 6,1 13,3 22,6 3,1 6,2 8,3 3,2 7,3 10,5 2,1 5,2 7,4 -23,69 -39,104 -48,119z"/>
   </g>
   <g>
   </g>
   <g>
   </g>
   <g>
   </g>
   <g>
   </g>
   <g>
   </g>
   <g>
   </g>
   <g>
   </g>
   <g>
   </g>
   <g>
   </g>
   <g>
   </g>
   <g>
   </g>
  </g>
 </g>
</svg>
