<?xml version="1.0" encoding="UTF-8"?>
<!DOCTYPE svg PUBLIC "-//W3C//DTD SVG 1.1//EN" "http://www.w3.org/Graphics/SVG/1.1/DTD/svg11.dtd">
<!-- Creator: CorelDRAW 2021 (64-Bit) -->
<svg xmlns="http://www.w3.org/2000/svg" xml:space="preserve" width="84mm" height="53mm" version="1.1" style="shape-rendering:geometricPrecision; text-rendering:geometricPrecision; image-rendering:optimizeQuality; fill-rule:evenodd; clip-rule:evenodd"
viewBox="0 0 8400 5300"
 xmlns:xlink="http://www.w3.org/1999/xlink"
 xmlns:xodm="http://www.corel.com/coreldraw/odm/2003">
 <defs>
  <style type="text/css">
   <![CDATA[
    .fil0 {fill:black;fill-rule:nonzero}
   ]]>
  </style>
 </defs>
 <g id="Слой_x0020_1">
  <metadata id="CorelCorpID_0Corel-Layer"/>
  <g id="_2839926882064">
   <g>
    <g>
     <path class="fil0" d="M5230 2129l0 -39 -200 0 0 39 -149 0 -69 127 218 0 0 39 200 0 0 -39 149 0 69 -127 -218 0zm114 103l-141 0 0 39 -151 0 0 -39 -176 0 40 -73 136 0 0 -44 151 0 0 44 179 0 -39 73z"/>
     <polygon class="fil0" points="5372,2164 5338,2228 5198,2228 5198,2265 5057,2265 5057,2228 4887,2228 4921,2164 5057,2164 5057,2120 5198,2120 5198,2164 "/>
    </g>
    <g>
     <path class="fil0" d="M5959 2512l-1658 0c-29,0 -52,23 -52,52l0 275c0,29 23,52 52,52l1658 0c29,0 52,-23 52,-52l0 -275c0,-29 -23,-52 -52,-52zm-1697 325l0 -276c0,-20 16,-35 35,-35l302 0c6,0 12,5 12,12l0 329c0,6 -5,12 -12,12l-297 0c-22,0 -40,-18 -40,-40zm1736 -5c0,25 -21,46 -46,46l-1316 0c-6,0 -12,-5 -12,-12l0 -329c0,-6 5,-12 12,-12l1318 0c24,0 44,20 44,44l0 262z"/>
     <g>
      <rect class="fil0" x="5842" y="2596" width="120" height="24"/>
      <rect class="fil0" x="5842" y="2624" width="120" height="24"/>
      <path class="fil0" d="M5842 2568l0 24 120 0 0 -24 -120 0zm18 21c0,0 -1,0 -2,0 -6,0 -9,-4 -9,-9 0,-5 4,-9 9,-9 1,0 2,0 2,0 -4,1 -8,4 -8,9 0,4 3,8 8,9zm11 0l-2 -1 -2 1 0 -2 -2 -1 2 0 1 -2 1 2 2 0 -2 1 0 2zm7 0l-2 -1 -2 1 0 -2 -2 -1 2 0 1 -2 1 2 2 0 -2 1 0 2zm0 -8l0 2 -2 -1 -2 1 0 -2 -2 -1 2 0 1 -2 1 2 2 0 -2 1zm7 8l-2 -1 -2 1 0 -2 -2 -1 2 0 1 -2 1 2 2 0 -2 1 0 2zm0 -8l0 2 -2 -1 -2 1 0 -2 -2 -1 2 0 1 -2 1 2 2 0 -2 1zm0 -6l0 2 -2 -1 -2 1 0 -2 -2 -1 2 0 1 -2 1 2 2 0 -2 1zm7 14l-2 -1 -2 1 0 -2 -2 -1 2 0 1 -2 1 2 2 0 -2 1 0 2zm0 -8l0 2 -2 -1 -2 1 0 -2 -2 -1 2 0 1 -2 1 2 2 0 -2 1zm0 -6l0 2 -2 -1 -2 1 0 -2 -2 -1 2 0 1 -2 1 2 2 0 -2 1zm7 14l-2 -1 -2 1 0 -2 -2 -1 2 0 1 -2 1 2 2 0 -2 1 0 2zm0 -8l0 2 -2 -1 -2 1 0 -2 -2 -1 2 0 1 -2 1 2 2 0 -2 1zm0 -6l0 2 -2 -1 -2 1 0 -2 -2 -1 2 0 1 -2 1 2 2 0 -2 1z"/>
     </g>
     <g>
      <path class="fil0" d="M5856 2760l0 46c0,15 6,22 15,22 9,0 15,-7 15,-22l0 -46 13 0 0 45c0,24 -11,35 -29,35 -17,0 -27,-10 -27,-35l0 -45 13 0z"/>
      <polygon class="fil0" points="5908,2831 5945,2772 5945,2772 5911,2772 5911,2760 5962,2760 5962,2769 5926,2826 5926,2827 5962,2827 5962,2839 5908,2839 "/>
     </g>
     <circle class="fil0" cx="4281" cy="2698" r="9"/>
     <circle class="fil0" cx="5978" cy="2698" r="9"/>
    </g>
    <g>
     <g>
      <path class="fil0" d="M7720 3479c-20,-73 -36,-286 -36,-545 0,-259 -59,-535 -59,-535 0,0 0,-1 0,-2 38,-195 14,-348 -6,-429 -12,-51 -41,-97 -85,-128 -31,-22 -52,-24 -56,-24 0,0 0,0 0,0 -80,-72 -147,-166 -171,-201 -1,-2 -3,-4 -4,-6 -4,-5 -6,-8 -6,-8 -2,-4 -3,-8 -5,-13 -5,-12 -10,-26 -16,-39 -4,-9 -8,-18 -12,-28 -15,-34 -32,-72 -51,-112 -1,-4 -3,-7 -5,-10 -21,-44 -44,-91 -68,-139 -10,-20 -20,-39 -30,-59 -11,-22 -22,-44 -34,-66 -4,-8 -8,-16 -12,-24 -74,-140 -149,-276 -210,-370 0,-1 -1,-1 -1,-2 -29,-45 -55,-81 -74,-102 -106,-114 -225,-129 -244,-130 -11,-36 -33,-97 -72,-129 -46,-39 -108,-52 -178,-40 -70,12 -159,40 -223,123 -374,-22 -813,-30 -933,-32 0,0 0,0 -1,0 -120,2 -559,10 -933,32 -64,-83 -154,-112 -223,-123 -70,-12 -132,1 -178,40 -39,33 -61,93 -72,129 -19,2 -138,16 -244,130 -20,21 -45,57 -74,102 0,1 -1,1 -1,2 -61,94 -136,230 -210,370 -4,8 -8,16 -12,24 -12,22 -23,44 -34,66 -10,20 -20,39 -30,59 -24,48 -47,95 -68,139 -2,4 -4,7 -5,10 -19,40 -36,78 -51,112 -4,10 -8,19 -12,28 -6,14 -12,27 -16,39 -2,4 -3,9 -5,13 0,0 -2,3 -6,8 -1,2 -3,4 -4,6 -24,35 -91,129 -171,201 0,0 0,0 0,0 -4,0 -25,2 -56,24 -43,31 -72,77 -85,128 -20,80 -43,234 -6,429 0,0 0,1 0,2 0,0 -59,276 -59,535 0,259 -16,472 -36,545 -20,73 -10,174 3,250 0,0 0,1 1,4 5,21 27,125 27,204 0,88 43,162 50,234 5,57 4,127 76,184 20,16 47,31 80,44l29 0c0,0 8,-144 94,-150 23,-2 56,-2 93,-2l0 0c100,1 230,9 289,33 77,31 115,100 141,148 1,3 3,5 4,8 0,0 2,26 163,35 157,9 1106,62 1540,64 0,0 0,0 1,0 435,-3 1383,-55 1540,-64 161,-9 163,-35 163,-35 1,-3 3,-5 4,-8 27,-47 64,-117 141,-148 59,-23 189,-32 289,-33l0 0c37,0 70,0 93,2 86,6 94,150 94,150l29 0c34,-13 60,-28 80,-44 73,-57 71,-127 76,-184 7,-72 50,-146 50,-234 0,-79 22,-183 27,-204 0,-3 1,-4 1,-4 13,-76 22,-177 3,-250zm-206 -1609c40,28 68,70 79,116 18,71 34,206 2,376 -2,8 -9,15 -17,15 -50,4 -224,16 -382,26 -2,0 -4,0 -5,0 3,-55 8,-129 13,-200 2,-22 3,-44 4,-66 1,-9 1,-17 2,-26 2,-23 3,-45 4,-65 2,-31 2,-55 4,-71 2,-26 6,-42 12,-56 3,0 4,0 6,-1 4,0 6,-1 9,-2 88,-19 154,-33 172,-38 29,-8 48,-18 58,-28 8,1 16,3 39,19zm-447 1429c-8,7 -15,12 -23,18 -2,1 -4,3 -6,4 -33,20 -209,115 -209,115 0,0 -73,31 -182,38 -39,2 -202,12 -411,23 -11,1 -21,1 -32,2l-24 1c-11,1 -22,1 -33,2 -8,0 -16,1 -24,1 -257,14 -557,29 -784,36 -4,0 -9,0 -13,0 -65,2 -124,4 -173,4 -8,0 -14,0 -21,0 0,0 0,0 -1,0 -7,0 -14,0 -21,0 -49,0 -108,-2 -173,-4 -4,0 -9,0 -13,0 -227,-7 -528,-22 -784,-36 -8,0 -16,-1 -24,-1 -11,0 -22,-1 -33,-2 -8,0 -16,-1 -24,-1 -11,0 -21,-1 -32,-2 -210,-12 -372,-21 -411,-23 -109,-7 -182,-38 -182,-38 0,0 -176,-95 -209,-115 -2,-1 -4,-3 -6,-4 -8,-5 -16,-11 -23,-18 -18,-14 -34,-31 -48,-52 0,-1 -1,-2 -2,-3 0,0 0,0 0,-1 -2,-4 -4,-11 -6,-19 0,0 0,0 0,-1 -5,-17 -9,-40 -14,-67 -4,-24 -8,-50 -11,-76 -10,-76 -18,-148 -18,-148 0,-117 -12,-378 -12,-458 0,-11 0,-26 -1,-44 117,8 221,13 257,13 96,0 140,8 242,-16 64,-15 189,-24 273,-28 50,-3 101,-4 151,-3 125,2 401,5 596,5 274,0 426,7 530,8 0,0 0,0 1,0 103,-1 255,-8 530,-8 195,0 471,-4 596,-5 51,0 101,0 151,3 85,4 209,13 273,28 103,23 146,16 242,16 35,0 140,-6 257,-13 -1,19 -1,34 -1,44 0,81 -12,341 -12,458 0,0 -8,72 -18,148 -3,26 -7,52 -11,76 -4,27 -9,50 -14,67 0,0 0,1 0,1 -2,8 -4,15 -6,19 0,0 0,1 0,1 -1,1 -1,2 -2,3 -15,21 -30,38 -48,52zm29 -12c-14,24 -34,51 -61,82 -125,140 -167,169 -167,169 0,0 -41,56 -234,78 -185,21 -1005,90 -1505,94 0,0 0,0 -1,0 -499,-5 -1319,-74 -1504,-94 -192,-21 -234,-78 -234,-78 0,0 -42,-29 -167,-169 -27,-31 -47,-58 -61,-82 3,3 6,6 9,9 6,6 13,12 21,18 6,4 13,9 20,13 33,20 211,116 211,116 0,0 74,31 184,38 108,7 1127,68 1521,71 0,0 0,0 1,0 394,-4 1413,-65 1521,-71 110,-7 184,-38 184,-38 0,0 178,-96 211,-116 7,-4 14,-9 20,-13 8,-6 15,-12 21,-18 3,-3 6,-6 9,-9zm-4016 -883c-3,-55 -8,-129 -14,-201 -1,-22 -3,-44 -4,-65 0,-9 -1,-17 -2,-26 -2,-23 -3,-45 -4,-64 -2,-28 -3,-51 -3,-65 0,-24 -5,-45 -12,-61 188,40 460,100 614,147 0,0 78,25 112,90 43,81 84,165 109,203 3,4 5,7 8,10l-2 0c-22,1 -245,9 -337,30 -97,21 -138,14 -229,14 -33,0 -128,-5 -236,-12zm3865 12c-91,0 -132,7 -229,-14 -92,-21 -315,-29 -337,-30l-2 0c2,-3 5,-6 8,-10 26,-38 66,-122 109,-203 35,-65 112,-90 112,-90 153,-47 426,-106 614,-147 -7,16 -12,37 -12,61 0,14 -1,37 -3,65 -1,19 -3,41 -4,64 0,8 -1,17 -2,26 -1,21 -3,43 -4,65 -5,71 -11,145 -14,201 -108,7 -203,12 -236,12zm-596 -2051c47,13 62,93 66,122l-2 0c-12,-39 -21,-66 -36,-81 -18,-19 -36,-26 -62,-27 -97,-2 -220,75 -220,75 47,-54 196,-106 254,-90zm47 120c-55,-6 -116,-12 -181,-16 -5,-4 -9,-9 -7,-16 4,-13 58,-31 122,-31 0,0 42,1 54,24 6,11 8,25 12,39zm-2484 -120c58,-17 207,36 254,90 0,0 -122,-78 -220,-75 -27,1 -45,8 -62,27 -15,16 -24,42 -36,81l-2 0c4,-29 19,-109 66,-122zm134 104c-66,5 -127,10 -181,16 4,-13 6,-28 12,-39 12,-23 54,-24 54,-24 65,0 118,18 122,31 3,6 -2,12 -7,16zm-1104 1177l3 -4 1 -2c-1,2 -1,4 -1,5 -2,10 -1,20 3,30 9,19 47,39 108,53 0,0 105,-425 380,-964 0,0 -20,4 -34,8 -2,0 -4,1 -6,2 0,0 -1,0 -2,0 9,-14 17,-27 25,-38 0,0 1,-1 1,-2 0,0 0,0 0,0 0,-1 1,-1 1,-2 23,-36 45,-64 62,-82 91,-98 192,-122 230,-128 -39,19 -125,67 -170,145 0,0 588,-70 1587,-71l0 -1c-997,1 -1582,70 -1582,70 47,-78 135,-125 172,-142 -3,10 -4,16 -4,16 28,13 125,-17 125,-17 9,-3 14,-11 18,-20 382,-43 1105,-57 1271,-59 0,0 0,0 1,0 165,3 889,16 1271,59 4,9 9,16 18,20 0,0 97,30 125,17 0,0 -1,-6 -4,-16 38,17 125,64 172,142 0,0 -586,-68 -1582,-70l0 1c1000,1 1587,71 1587,71 -46,-78 -131,-126 -170,-145 38,6 139,30 230,128 17,18 38,47 62,82 0,1 1,1 1,2 0,0 0,0 0,0 0,0 1,1 1,2 8,12 16,24 25,38 -1,0 -1,0 -2,0 -2,0 -4,-1 -6,-2 -15,-4 -34,-8 -34,-8 275,539 380,964 380,964 60,-14 99,-34 108,-53 4,-9 5,-20 3,-30 0,-2 0,-4 -1,-5l1 2 3 4c32,44 88,117 153,175 -6,11 -17,26 -47,34 -20,6 -89,21 -183,42 -3,0 -6,1 -10,2 -199,44 -501,112 -669,164 0,0 -82,28 -119,99 -46,88 -89,180 -116,222 0,0 -380,6 -672,6 -272,0 -423,7 -526,8 0,0 0,0 -1,0 -102,-1 -253,-8 -526,-8 -292,0 -672,-6 -672,-6 -27,-42 -70,-134 -116,-222 -37,-71 -119,-99 -119,-99 -168,-53 -469,-120 -669,-164 -4,0 -7,-1 -10,-2 -94,-21 -164,-36 -183,-42 -30,-8 -41,-23 -47,-34 65,-59 121,-132 153,-175zm-275 340c12,-46 39,-88 79,-116 23,-16 31,-18 39,-19 10,10 28,20 58,28 19,5 84,19 172,38 3,0 6,1 9,2 2,0 3,0 6,1 6,15 9,31 12,56 1,16 1,40 4,71 1,19 3,42 4,65 0,8 1,17 2,26 1,21 3,43 4,66 5,72 10,146 13,200 -2,0 -4,0 -5,0 -157,-9 -331,-22 -382,-26 -8,0 -16,-7 -17,-15 -32,-171 -16,-305 2,-376zm5042 1734c0,0 -2,9 -5,23 -8,39 -22,120 -22,183 0,88 -43,161 -50,233 -5,57 3,129 -70,185 -19,15 -43,28 -74,41l-23 1c0,0 -12,-142 -97,-148 -28,-2 -71,-3 -120,-2l0 0c-98,1 -218,8 -271,30 -78,31 -121,106 -148,153 0,1 -1,3 -2,4 0,2 -3,22 -156,30 -155,9 -1104,61 -1538,64 0,0 0,0 -1,0 -435,-3 -1383,-55 -1538,-64 -153,-8 -156,-28 -156,-30 -1,-1 -2,-3 -2,-4 -27,-47 -70,-122 -148,-153 -54,-22 -173,-29 -271,-30l0 0c-48,-1 -92,0 -120,2 -85,6 -97,148 -97,148l-23 -1c-31,-12 -55,-26 -74,-41 -74,-57 -65,-128 -70,-185 -7,-72 -50,-145 -50,-233 0,-63 -15,-144 -22,-183 -3,-15 -5,-23 -5,-23 -13,-76 -22,-175 -3,-248 20,-73 35,-285 35,-541 0,-238 50,-490 58,-526 0,-3 1,-5 1,-5 0,0 229,17 427,29 1,18 1,32 1,43 0,82 12,345 12,464 0,0 18,179 37,269 1,5 2,12 4,18 4,15 7,25 10,30l0 0c13,32 37,72 78,118 124,142 166,172 166,172 0,0 42,58 233,79 153,17 744,68 1225,88 -342,-5 -858,-14 -1084,-24 -245,-11 -746,-53 -979,-69 -146,-10 -200,-31 -221,-45 17,15 68,39 225,49 233,16 733,57 978,68 265,12 928,22 1243,27 8,0 16,0 24,0 37,1 73,1 107,2 0,0 0,0 1,0 34,0 70,-1 107,-2 8,0 16,0 24,0 315,-4 978,-15 1243,-27 245,-11 745,-53 978,-68 156,-11 208,-35 225,-49 -20,14 -75,35 -221,45 -233,16 -734,58 -979,69 -226,10 -743,19 -1084,24 481,-20 1072,-70 1225,-88 191,-22 233,-79 233,-79 0,0 42,-29 166,-172 41,-47 65,-86 78,-118l0 0c4,-5 7,-15 10,-30 2,-7 3,-13 4,-18 19,-90 37,-269 37,-269 0,-119 12,-382 12,-464 0,-11 0,-25 1,-43 198,-12 427,-29 427,-29 0,0 0,2 1,5 8,37 58,289 58,526 0,257 16,468 35,541 20,73 10,172 -3,248z"/>
      <path id="bumper_reflection" class="fil0" d="M7614 3773c-134,21 -421,44 -534,44 -113,0 -248,-34 -248,-34 0,0 -39,-21 -189,-14 -146,6 -974,48 -1513,51 0,0 0,0 -1,0 -539,-2 -1367,-44 -1513,-51 -150,-7 -189,14 -189,14 0,0 -134,34 -248,34 -113,0 -400,-23 -534,-44 -31,-5 -55,-15 -72,-26 8,39 22,118 22,181 0,87 43,159 50,230 5,56 -3,127 70,183 1,-143 16,-176 45,-229 29,-53 234,-38 234,-38 884,49 1916,62 2135,65 0,0 0,0 1,0 218,-2 1251,-16 2135,-65 0,0 206,-15 234,38 29,52 44,86 45,229 74,-56 65,-127 70,-183 7,-71 50,-143 50,-230 0,-62 15,-142 22,-181 -17,12 -41,21 -72,26zm-125 64c-5,1 -12,2 -17,3 -40,6 -93,12 -159,20 -8,1 -15,2 -23,3 -34,4 -71,8 -113,12 -15,1 -31,3 -47,5 -20,2 -41,4 -63,6 -478,47 -1631,79 -1937,87 0,0 0,0 -1,0 -305,-8 -1459,-40 -1937,-87 -22,-2 -43,-4 -63,-6 -16,-2 -32,-4 -47,-5 -42,-4 -79,-9 -113,-12 -8,-1 -15,-2 -23,-3 -66,-8 -119,-15 -159,-20 -6,-1 -12,-2 -17,-3 -41,-6 -69,-11 -88,-16 30,5 82,13 174,23 5,0 11,1 17,2 55,7 124,14 208,23 7,0 13,1 20,2 28,3 58,6 90,9 482,46 1647,74 1937,80 0,0 0,0 1,0 289,-6 1454,-34 1937,-80 32,-3 62,-6 90,-9 7,-1 14,-1 20,-2 85,-9 153,-16 208,-23 6,0 12,-1 17,-2 92,-11 144,-18 174,-23 -19,4 -47,9 -88,16z"/>
      <path id="rear_light" class="fil0" d="M5650 4350c0,4 -3,7 -7,7l-1028 0c-4,0 -7,-3 -7,-7 0,-15 43,-62 62,-62l918 0c18,0 62,47 62,62z"/>
      <g id="bumper_reflections">
       <path class="fil0" d="M6719 2649c-49,82 -102,168 -124,194 -45,53 -121,200 -395,248 -257,44 -807,111 -1071,119 0,0 0,0 -1,0 -263,-8 -814,-74 -1071,-119 -274,-47 -350,-195 -395,-248 -21,-25 -74,-111 -124,-194 47,75 93,145 113,168 50,57 136,217 436,265 257,41 668,94 1040,112 0,0 0,0 1,0 372,-18 783,-71 1040,-112 300,-48 386,-208 436,-265 20,-23 66,-93 113,-168z"/>
       <path class="fil0" d="M6477 2564c-51,100 -132,252 -179,304 -102,114 -472,193 -1168,243 0,0 0,0 -1,0 -697,-51 -1066,-129 -1168,-243 -47,-53 -129,-204 -179,-304 48,91 123,223 190,295 113,121 522,198 1158,240 0,0 0,0 1,0 635,-42 1045,-119 1158,-240 67,-71 142,-204 190,-295z"/>
       <path class="fil0" d="M6788 3308c-7,7 -785,91 -1657,94 0,0 0,0 -1,0 -872,-2 -1651,-87 -1658,-94 485,65 1470,77 1658,78 0,0 0,0 1,0 188,-1 1173,-13 1657,-78z"/>
       <path class="fil0" d="M6735 4406c-63,-13 -167,-33 -203,-33 -51,0 -989,10 -1402,14 0,0 0,0 -1,0 -413,-4 -1352,-14 -1402,-14 -36,0 -140,20 -203,33 63,-16 174,-44 211,-44 51,0 982,10 1395,11 0,0 0,0 1,0 413,0 1344,-11 1395,-11 37,0 148,27 210,44z"/>
       <path class="fil0" d="M6914 4229c-207,3 -444,30 -539,38 -90,7 -1040,10 -1245,10 0,0 0,0 -1,0 -204,0 -1154,-4 -1245,-10 -96,-8 -332,-35 -539,-38 209,-2 443,25 539,32 92,7 1047,9 1245,10 0,0 0,0 1,0 198,0 1153,-3 1245,-10 96,-8 331,-34 539,-32z"/>
      </g>
      <g>
       <path class="fil0" d="M7435 3644c-222,17 -368,26 -368,26 0,0 -26,3 -9,21 14,14 109,54 145,55 37,1 277,-8 339,-16 45,-7 97,-14 131,-33 15,-9 24,-24 27,-41 3,-14 5,-35 5,-63 0,0 -33,35 -270,52zm260 12c-4,15 -12,29 -27,37 -33,17 -85,24 -129,30 -61,8 -296,16 -332,15 -36,-1 -128,-36 -142,-48 -17,-16 10,-17 10,-17 0,0 122,-7 341,-22 233,-16 286,-51 286,-51 0,25 -3,43 -6,56z"/>
       <path class="fil0" d="M7107 3682c0,0 130,-4 335,-22 216,-19 251,-44 251,-44 -1,17 -4,31 -7,41 -4,11 -12,22 -23,27 -35,18 -85,24 -133,29 -57,7 -275,16 -309,16 -34,-1 -121,-27 -133,-38 -10,-10 20,-10 20,-10z"/>
      </g>
      <g>
       <path class="fil0" d="M3192 3670c0,0 -146,-9 -368,-26 -237,-18 -270,-52 -270,-52 0,28 3,49 5,63 4,17 12,32 27,41 33,19 86,27 131,33 62,9 302,18 339,16 36,-1 131,-41 145,-55 17,-18 -9,-21 -9,-21zm2 20c-14,12 -106,47 -142,48 -36,1 -271,-7 -332,-15 -44,-6 -96,-13 -129,-30 -15,-8 -24,-22 -27,-37 -3,-13 -6,-31 -6,-56 0,0 53,35 286,51 218,15 341,22 341,22 0,0 27,1 10,17z"/>
       <path class="fil0" d="M3153 3682c0,0 -130,-4 -335,-22 -216,-19 -251,-44 -251,-44 1,17 4,31 7,41 4,11 12,22 23,27 35,18 85,24 133,29 57,7 275,16 309,16 34,-1 121,-27 133,-38 10,-10 -20,-10 -20,-10z"/>
      </g>
      <path id="right_output" class="fil0" d="M7331 4286l-66 -33 0 0c-97,1 -225,9 -282,32 -75,30 -112,97 -138,144l108 70c6,4 12,7 19,9 2,1 5,2 7,2 7,2 14,4 21,4 1,0 2,0 4,0 6,0 12,0 18,0 46,-4 86,-33 105,-73 6,-12 8,-26 8,-40 0,-24 -10,-53 -34,-74 17,17 27,41 27,68 -1,57 -49,107 -107,111 -58,5 -105,-37 -104,-94 1,-57 49,-107 107,-112 24,-2 47,4 64,16 38,21 52,57 52,87 0,13 -2,27 -7,39l63 36 9 5c5,3 10,5 16,7 14,4 29,6 45,5 64,-5 116,-60 117,-122 0,-40 -20,-73 -52,-90zm-64 204c-59,5 -105,-37 -105,-94 1,-57 49,-107 107,-112 59,-5 105,37 105,94 -1,57 -49,107 -107,111z"/>
      <path id="left_output" class="fil0" d="M3277 4285c-57,-23 -185,-31 -282,-32l0 0 -66 33c-31,17 -52,51 -52,90 1,62 53,117 117,122 16,1 31,0 45,-5 6,-2 11,-4 16,-7l9 -5 63 -36c-5,-12 -7,-26 -7,-39 0,-30 14,-66 52,-87 18,-12 40,-19 64,-16 59,5 106,55 107,112 1,57 -46,99 -104,94 -59,-4 -106,-55 -107,-111 0,-27 10,-51 27,-68 -24,21 -35,50 -34,74 0,14 3,27 8,40 19,39 59,69 105,73 6,0 12,0 18,0 1,0 3,0 4,0 8,0 15,-2 21,-4 2,0 5,-1 7,-2 7,-2 13,-6 19,-9l108 -70c-26,-47 -63,-114 -138,-144zm-285 205c-58,-4 -106,-55 -107,-111 0,-57 47,-99 105,-94 58,5 106,55 107,112 1,57 -46,99 -105,94z"/>
      <g id="tail_lights">
       <g id="right_taillight">
        <path class="fil0" d="M7510 1946c-12,34 -16,91 -74,129 -12,8 -58,17 -121,27l-97 10c2,-23 3,-45 4,-65 97,-14 168,-27 178,-33 25,-19 27,-33 38,-57 3,-9 76,-20 73,-10z"/>
        <path class="fil0" d="M7577 2295l-23 11c-9,4 -20,1 -25,-7 -16,-24 -50,-71 -97,-93 -12,-6 -103,-6 -221,-3 2,-22 3,-44 4,-66l101 -8c70,-3 121,-2 136,4 69,28 115,98 134,133 6,11 2,23 -9,29z"/>
        <path class="fil0" d="M6674 2179l3 0 10 -1 506 -40c-1,21 -3,43 -4,65 -248,6 -606,23 -619,24l23 -42c23,-40 62,-67 108,-73 113,-14 337,-41 499,-65 -1,19 -3,41 -4,64 0,0 -510,44 -524,53 -7,4 -19,13 4,13z"/>
        <path class="fil0" d="M7368 2237l-127 0c-2,0 -3,1 -4,3l-8 105c0,2 1,4 3,4 29,-1 231,-8 260,-21 1,0 1,-2 1,-3 -8,-12 -54,-82 -126,-88zm118 88c-28,12 -218,19 -246,20 -2,0 -4,-2 -3,-4l7 -96c0,-2 2,-3 4,-3l120 0c68,7 112,69 119,81 1,1 1,2 0,3z"/>
        <path class="fil0" d="M7480 2321c-20,11 -211,17 -236,18 -2,0 -3,-1 -3,-3l7 -86c0,-1 1,-3 3,-3l117 -1c71,6 113,75 113,75z"/>
        <path class="fil0" d="M7161 2237l-565 23c-1,0 -3,0 -4,2l-55 47c0,0 187,12 266,33 0,0 136,20 349,6 1,0 3,-1 3,-3l8 -105c0,-2 -1,-4 -3,-4zm-12 103c0,1 -1,2 -3,2 -208,12 -341,-5 -341,-5 -77,-20 -261,-29 -261,-29l49 -43c1,-1 3,-1 4,-1l557 -20c2,0 4,1 3,3 -1,15 -7,79 -8,93z"/>
        <path class="fil0" d="M7153 2251c-1,15 -7,72 -8,86 0,2 -2,3 -4,3 -204,11 -336,-5 -336,-5 -76,-18 -255,-29 -255,-29l46 -37c1,-1 4,-2 5,-2l547 -19c2,0 4,1 4,4z"/>
        <path class="fil0" d="M7594 2228c0,3 -4,4 -6,1l-81 -110c-11,-14 -14,-33 -8,-50l35 -102c18,-43 40,13 40,13 33,115 23,218 20,249z"/>
       </g>
       <g id="left_taillight">
        <path class="fil0" d="M3042 2112l-97 -10c-64,-10 -109,-19 -122,-27 -57,-38 -62,-95 -74,-129 -4,-10 70,1 72,10 11,24 13,39 38,57 9,7 81,20 178,33 1,19 3,42 4,65z"/>
        <path class="fil0" d="M3048 2203c-117,-3 -208,-3 -221,3 -47,22 -81,68 -97,93 -5,8 -16,12 -25,7l-23 -11c-11,-5 -15,-18 -9,-29 19,-34 65,-104 134,-133 14,-6 65,-7 136,-4l101 8c1,21 3,43 4,66z"/>
        <path class="fil0" d="M3691 2228c-13,-1 -371,-18 -619,-24 -1,-22 -3,-44 -4,-65l506 40 10 1 3 0c23,0 12,-9 4,-13 -14,-9 -524,-53 -524,-53 -2,-23 -3,-45 -4,-64 162,23 386,51 499,65 46,6 86,32 108,73l23 42z"/>
        <path class="fil0" d="M3021 2240c0,-2 -2,-3 -4,-3l-127 0c-72,7 -119,76 -126,88 0,1 0,2 1,3 29,13 231,20 260,21 2,0 4,-2 3,-4l-8 -105zm-3 104c-28,-1 -218,-8 -246,-20 -1,0 -1,-2 0,-3 7,-12 51,-74 119,-81l120 0c2,0 3,1 4,3l7 96c0,2 -1,4 -3,4z"/>
        <path class="fil0" d="M3017 2336c0,2 -1,3 -2,3 -25,-1 -216,-7 -236,-18 0,0 42,-69 113,-75l117 1c1,0 3,1 3,3l6 86z"/>
        <path class="fil0" d="M3668 2262c-1,-1 -3,-2 -4,-2l-565 -23c-2,0 -4,2 -3,4l8 105c0,1 1,3 3,3 213,14 349,-6 349,-6 79,-22 266,-33 266,-33l-55 -47zm-213 75c0,0 -133,17 -341,5 -1,0 -3,-1 -3,-2 -1,-14 -7,-78 -8,-93 0,-2 1,-3 3,-3l557 20c1,0 3,0 4,1l49 43c0,0 -183,10 -261,29z"/>
        <path class="fil0" d="M3709 2305c0,0 -179,11 -255,29 0,0 -131,16 -335,5 -2,0 -3,-1 -4,-3 -1,-13 -7,-70 -8,-86 0,-2 2,-4 4,-4l547 19c2,0 4,1 6,2l46 37z"/>
        <path class="fil0" d="M2752 2119l-81 110c-2,2 -6,2 -6,-1 -4,-30 -13,-134 20,-249 0,0 22,-56 40,-13l35 102c6,17 3,36 -8,50z"/>
       </g>
      </g>
      <g id="uprear_stop">
       <path class="fil0" d="M5489 614l-359 0c0,0 0,0 -1,0l-359 0c-73,0 -171,67 -191,90 167,-3 351,-5 550,-5 0,0 0,0 1,0 199,0 383,2 550,5 -20,-23 -118,-90 -191,-90zm-359 75c-178,0 -371,2 -518,4 40,-27 104,-68 170,-68l696 0c66,0 130,40 170,68 -147,-2 -339,-4 -518,-4 0,0 0,0 -1,0z"/>
       <path class="fil0" d="M5593 680c-130,-1 -304,-2 -463,-2 0,0 0,0 -1,0 -159,0 -333,1 -463,2 6,-4 13,-8 21,-13 23,-14 51,-21 78,-22 23,0 57,-1 89,-1l276 0c0,0 0,0 1,0l276 0c31,0 65,1 89,1 27,1 54,8 78,22 8,5 15,9 21,13z"/>
      </g>
      <g id="back_window">
       <path class="fil0" d="M6812 762c0,0 -411,-33 -1132,-46 -167,-4 -351,-5 -550,-5 0,0 0,0 -1,0 -199,0 -383,2 -550,5 -721,13 -1132,46 -1132,46 -242,453 -383,968 -383,968 913,183 1879,187 2065,185 0,0 0,0 1,0 186,1 1152,-2 2065,-185 0,0 -141,-515 -383,-968zm-1682 1135c0,0 0,0 -1,0 -197,1 -1155,-4 -2034,-179 0,0 137,-500 372,-939 0,0 409,-31 1097,-44 171,-4 361,-5 565,-6 0,0 0,0 1,0 204,0 394,2 565,6 688,13 1097,44 1097,44 235,439 372,939 372,939 -878,176 -1836,180 -2034,179z"/>
       <g id="back_window_reflection">
        <path class="fil0" d="M3683 801l-226 101c-84,175 -153,351 -205,493l982 -618c-239,7 -426,17 -552,24z"/>
        <path class="fil0" d="M4580 769c-48,1 -95,2 -141,3l-1215 705c-45,131 -70,217 -70,217 52,10 105,20 158,29l1429 -956c-55,1 -109,2 -160,3z"/>
        <path class="fil0" d="M5130 763c0,0 0,0 -1,0 -98,0 -192,1 -283,2l-1324 990c64,9 127,18 190,25l1694 -1015c-89,-1 -181,-1 -276,-2z"/>
        <path class="fil0" d="M5428 765l-1331 1054c234,20 449,30 623,36l898 -1088c-61,-1 -124,-2 -190,-3z"/>
        <path class="fil0" d="M5811 772l-904 1089c103,2 180,2 222,2 0,0 0,0 1,0 37,0 101,0 186,-1l669 -1085c-56,-2 -113,-3 -174,-5z"/>
        <path class="fil0" d="M6172 782l-681 1075c106,-3 228,-8 362,-16l842 -1034c-87,-6 -267,-16 -523,-25z"/>
        <path class="fil0" d="M6773 846l-751 984c110,-8 226,-18 345,-30l544 -651c-41,-99 -87,-202 -139,-302z"/>
        <path class="fil0" d="M6999 1372c-19,-52 -40,-107 -63,-165l-327 565c102,-13 204,-28 307,-45l84 -355z"/>
       </g>
      </g>
     </g>
     <g>
      <g>
       <path class="fil0" d="M7662 4072l0 -16c-5,29 -10,54 -15,75l0 1c-1,5 -2,9 -3,14 1,0 2,-1 3,-1l0 8 5 76c-9,1 -21,3 -35,5 -2,6 -5,12 -7,18 16,-2 31,-5 43,-8l0 79c-20,2 -51,8 -82,12 -1,2 -2,5 -3,7 -1,1 -1,2 -2,2 -2,3 -3,6 -5,9 31,-4 68,-8 92,-14l0 79c-32,7 -94,22 -140,16l1 -56c-2,2 -3,4 -5,5 0,0 -4,80 -7,149 -3,71 -10,142 -21,213 -3,16 -6,32 -9,47l0 6c-1,2 -1,4 -2,5 -4,10 -5,16 -9,26 -7,18 -12,32 -16,44l-201 0c5,-13 11,-26 14,-42 1,2 2,5 6,5l140 0c5,-12 5,-19 10,-31 26,-75 37,-156 31,-238 0,-19 -5,-38 -16,-57 -15,-18 -39,-24 -64,-30 0,0 0,0 -1,0 0,0 -1,0 -1,0 -19,3 -40,7 -64,10 -1,0 -3,0 -4,0 -2,0 -4,0 -6,1 -4,140 -15,239 -31,307 -8,29 -16,54 -23,75l-111 0c0,0 -33,0 -70,-23 1,0 2,-2 2,-2 0,0 0,0 0,-6 0,-2 0,-5 0,-7l129 0c5,-12 5,-19 10,-31 26,-75 36,-156 31,-238 0,-21 -7,-42 -19,-63 -2,-1 -4,-2 -6,-3 -37,4 -77,7 -121,10 -2,0 -4,0 -6,0 -6,1 -11,1 -17,1 -1,12 -1,24 -2,36l0 19c0,31 -5,56 -5,81l0 19c0,13 -5,25 -5,38l0 35c-6,-20 -14,-41 -21,-73 -6,-32 -14,-90 -20,-151 -22,1 -46,3 -70,4 -8,0 -16,1 -25,1 -5,0 -14,-75 -20,-75 -3,0 -6,0 -10,0 5,110 13,279 19,301 0,6 0,6 0,6 5,13 5,19 11,32 26,75 67,107 109,125 5,0 16,6 21,6 10,7 16,7 21,7 31,6 57,0 57,0l332 0c36,6 67,0 93,-7 36,-12 62,-31 78,-50 10,-13 21,-25 26,-44 5,-12 10,-31 10,-44 10,-44 10,-75 10,-75 5,-50 0,-94 5,-144 5,-107 5,-225 5,-338l-16 -151zm-205 803c3,-6 5,-13 7,-20l89 0c-23,12 -56,23 -96,20zm174 -120c-5,19 -10,38 -21,50 -3,0 -5,3 -6,7 9,-27 16,-53 20,-79 5,0 9,0 12,-1 -2,8 -3,16 -5,23zm10 -81c0,0 0,7 0,25 0,0 0,7 0,13 -1,2 -2,5 -2,8 -4,0 -9,1 -13,2 5,-30 7,-60 6,-90 4,-1 8,-2 12,-3 -2,17 -2,32 -2,46zm5 -63c0,1 0,2 0,2 -5,1 -9,2 -15,3 0,-4 0,-7 0,-12 0,-19 0,-37 -10,-50 -4,-7 -11,-13 -19,-17 16,-3 32,-6 44,-9l0 83zm5 -175c-5,24 -5,54 -5,79 -18,5 -43,10 -70,13 -5,-2 -9,-3 -14,-4 -14,0 -36,-5 -52,-6 0,0 0,0 0,0l0 -63c32,-5 106,-11 140,-21l0 3z"/>
       <path class="fil0" d="M2598 4072l0 -16c5,29 10,54 15,75l0 1c1,5 2,9 3,14 -1,0 -2,-1 -3,-1l0 8 -5 76c9,1 21,3 35,5 2,6 5,12 7,18 -16,-2 -31,-5 -43,-8l0 79c20,2 51,8 82,12 1,2 2,5 3,7 1,1 1,2 2,2 2,3 3,6 5,9 -31,-4 -68,-8 -92,-14l0 79c32,7 94,22 140,16l2 -55c2,2 3,4 5,5 0,0 3,78 5,146 3,72 9,144 20,214 3,17 6,32 9,47l0 6c1,2 1,4 2,5 4,10 5,16 9,26 7,18 12,32 16,44l201 0c-5,-13 -11,-26 -14,-42 -1,2 -2,5 -6,5l-140 0c-5,-12 -5,-19 -10,-31 -26,-75 -37,-156 -31,-238 0,-19 5,-38 16,-57 15,-18 39,-24 64,-30 0,0 0,0 1,0 0,0 1,0 1,0 19,3 40,7 64,10 1,0 3,0 4,0 2,0 4,0 6,1 4,140 15,239 31,307 8,29 16,54 23,75l111 0c0,0 33,0 70,-23 -1,0 -2,-2 -2,-2 0,0 0,0 0,-6 0,-2 0,-5 0,-7l-129 0c-5,-12 -5,-19 -10,-31 -26,-75 -36,-156 -31,-238 0,-21 7,-42 19,-63 2,-1 4,-2 6,-3 37,4 77,7 121,10 2,0 4,0 6,0 6,1 11,1 17,1 1,12 1,24 2,36l0 19c0,31 5,56 5,81l0 19c0,13 5,25 5,38l0 35c6,-20 14,-41 21,-73 6,-32 14,-90 20,-151 22,1 46,3 70,4 8,0 16,1 25,1 5,0 14,-84 19,-83 4,0 7,0 11,1 -5,110 -14,287 -19,310 0,6 0,6 0,6 -5,13 -5,19 -11,32 -26,75 -67,107 -109,125 -5,0 -16,6 -21,6 -10,7 -16,7 -21,7 -31,6 -57,0 -57,0l-332 0c-36,6 -67,0 -93,-7 -36,-12 -62,-31 -78,-50 -10,-13 -21,-25 -26,-44 -5,-12 -10,-31 -10,-44 -10,-44 -10,-75 -10,-75 -5,-50 0,-94 -5,-144 -5,-107 -5,-225 -5,-338l16 -151zm205 803c-3,-6 -5,-13 -7,-20l-89 0c23,12 56,23 96,20zm-174 -120c5,19 10,38 21,50 3,0 5,3 6,7 -9,-27 -16,-53 -20,-79 -5,0 -9,0 -12,-1 2,8 3,16 5,23zm-10 -81c0,0 0,7 0,25 0,0 0,7 0,13 1,2 2,5 2,8 4,0 9,1 13,2 -5,-30 -7,-60 -6,-90 -4,-1 -8,-2 -12,-3 2,17 2,32 2,46zm-5 -63c0,1 0,2 0,2 5,1 9,2 15,3 0,-4 0,-7 0,-12 0,-19 0,-37 10,-50 4,-7 11,-13 19,-17 -16,-3 -32,-6 -44,-9l0 83zm-5 -175c5,24 5,54 5,79 18,5 43,10 70,13 5,-2 9,-3 14,-4 14,0 36,-5 52,-6 0,0 0,0 0,0l0 -63c-32,-5 -106,-11 -140,-21l0 3z"/>
      </g>
      <ellipse id="shadow" class="fil0" cx="5130" cy="4885" rx="2773" ry="84"/>
     </g>
    </g>
   </g>
   <g>
   </g>
   <g>
   </g>
   <g>
   </g>
   <g>
   </g>
   <g>
   </g>
   <g>
   </g>
   <g>
   </g>
   <g>
   </g>
   <g>
   </g>
   <g>
   </g>
   <g>
   </g>
  </g>
 </g>
</svg>
