<?xml version="1.0" encoding="UTF-8"?>
<!DOCTYPE svg PUBLIC "-//W3C//DTD SVG 1.1//EN" "http://www.w3.org/Graphics/SVG/1.1/DTD/svg11.dtd">
<!-- Creator: CorelDRAW 2021 (64-Bit) -->
<svg xmlns="http://www.w3.org/2000/svg" xml:space="preserve" width="84mm" height="53mm" version="1.1" style="shape-rendering:geometricPrecision; text-rendering:geometricPrecision; image-rendering:optimizeQuality; fill-rule:evenodd; clip-rule:evenodd"
viewBox="0 0 8400 5300"
 xmlns:xlink="http://www.w3.org/1999/xlink"
 xmlns:xodm="http://www.corel.com/coreldraw/odm/2003">
 <defs>
  <style type="text/css">
   <![CDATA[
    .fil0 {fill:black;fill-rule:nonzero}
   ]]>
  </style>
 </defs>
 <g id="Слой_x0020_1">
  <metadata id="CorelCorpID_0Corel-Layer"/>
  <g id="_2839549761120">
   <g>
    <g>
     <polygon class="fil0" points="6910,2141 6950,2141 6950,2205 6981,2205 6981,2141 7021,2141 7021,2118 6910,2118 "/>
     <path class="fil0" d="M7198 2120l-1 -1 -41 0 -51 87 33 0 9 -16 58 0 9 16 34 0 -50 -85zm-39 48l17 -31 17 31 -35 0z"/>
     <polygon class="fil0" points="7434,2148 7381,2148 7381,2118 7350,2118 7350,2205 7381,2205 7381,2170 7434,2170 7434,2205 7465,2205 7465,2118 7434,2118 "/>
     <path class="fil0" d="M7640 2116c-39,0 -65,18 -65,45 0,27 26,45 65,45 39,0 66,-18 66,-45 0,-28 -26,-45 -66,-45zm0 68c-20,0 -34,-9 -34,-23 0,-13 13,-23 34,-23 20,0 34,9 34,23 0,13 -14,23 -34,23z"/>
     <polygon class="fil0" points="7847,2170 7904,2170 7904,2149 7847,2149 7847,2140 7906,2140 7906,2118 7816,2118 7816,2205 7907,2205 7907,2183 7847,2183 "/>
    </g>
    <g>
     <path class="fil0" d="M7108 1921l-22 41 -976 0c-13,0 -18,-4 -19,-5l22 -25c8,-4 20,-7 34,-7 105,-4 620,-4 961,-4z"/>
     <path class="fil0" d="M8392 1922l0 41 -683 0 22 -41c203,0 463,0 660,1z"/>
     <path class="fil0" d="M7050 2031l33 -60 -973 0c-13,0 -26,-4 -29,-12 0,-10 27,-35 27,-35 9,-5 23,-8 39,-9 116,-4 622,-4 968,-4l32 -61 123 0 0 -7c-355,-2 -1205,-5 -1415,13 -23,2 -43,14 -56,33l-60 87c-8,12 -9,28 -2,41 7,13 20,21 35,21l1499 0 0 -9 -221 0zm620 1l-124 0 0 8 846 0 0 -69 -688 0 -34 60zm-124 -187l0 8 222 0 -32 59c206,0 460,0 655,0l0 -69c-306,-2 -651,0 -846,1z"/>
    </g>
    <path class="fil0" d="M8206 430l-165 -8c-5,-4 -24,-17 -40,-17 -5,0 -24,0 -50,-1 -71,-2 -202,-7 -287,-7 -1,0 -36,-2 -54,14l-401 0c-18,-17 -53,-15 -54,-14 -85,0 -217,4 -287,7 -26,1 -46,1 -50,1 -16,0 -35,13 -40,17l-165 8c-7,-8 -34,-11 -57,-12 -2,0 -235,8 -281,11 -42,2 -63,34 -69,43l-108 0c-129,-101 -167,-101 -191,-101 -29,0 -44,23 -56,41 -6,10 -18,41 -22,66l-23 1c-92,0 -155,84 -191,152 -24,46 -36,85 -37,89 -3,7 -6,14 -10,21 -96,211 -188,459 -255,651 -45,-1 -135,3 -161,42l-9 13c-28,41 -54,79 -54,160l0 75c0,14 4,27 12,38 9,13 23,27 42,34 -53,68 -110,183 -114,189l-12 101 -32 262c-15,140 -40,339 -58,488l0 1c-1,14 -3,28 -5,40 0,0 0,0 0,0 -11,91 -19,155 -19,156 0,368 22,582 51,738 -6,409 26,970 60,1082 40,134 149,117 150,117 31,2 101,3 164,3 48,0 93,-1 116,-2 16,0 32,-1 46,-1l12 0 53 -1c31,-1 60,-12 84,-32l0 0 4 -3c0,0 0,0 0,0 0,0 0,0 0,0l11 -10 -1 0c1,-1 2,-2 3,-3 32,-41 68,-114 91,-223 16,-79 26,-191 31,-306 0,-3 0,-6 0,-9 -5,1 -10,0 -15,0 -20,-2 -40,-7 -57,-16 0,3 0,6 0,10 -1,19 -2,37 -2,55 -1,13 -1,27 -2,40 0,5 -1,11 -1,16 0,5 -1,11 -1,16 -1,11 -2,20 -2,30 -1,7 -1,14 -2,22 -2,19 -4,36 -6,52 -2,14 -4,26 -7,37 -20,91 -49,152 -76,186 0,0 0,0 -1,1 -17,-100 -22,-258 -24,-325 -1,-17 -1,-30 -1,-40 -1,-25 -1,-78 -1,-145 0,-80 1,-179 2,-272l132 0c0,21 0,43 -1,67 14,-4 30,-6 47,-5 9,1 17,2 26,5l0 -66c77,9 138,70 145,150 4,41 4,84 4,119 -1,48 -4,83 -4,84l0 4 5 0c302,29 993,32 1312,32 75,0 129,0 154,0l18 0c24,0 79,0 154,0 193,0 523,-1 820,-9l0 -8c-412,10 -887,8 -974,8l-9 0c0,0 0,0 -1,0l-9 0c-127,1 -1085,4 -1461,-31 2,-21 8,-113 0,-200 -8,-91 -83,-159 -173,-159l-346 0c-83,0 -154,56 -173,137l-22 91c-22,-1 -139,-17 -189,-204 -5,-20 -11,-40 -16,-59 -12,-44 -25,-89 -36,-139 44,32 108,78 127,80l3 0c28,0 42,-60 50,-107l0 -2c10,-52 51,-78 123,-78 35,0 216,2 465,4 518,5 1288,12 1648,13l9 0c0,0 0,0 1,0l9 0c221,0 597,-3 974,-6l0 -9c-377,3 -753,6 -974,6l-9 0c0,0 0,0 -1,0l-9 0c-360,0 -1130,-8 -1648,-13 -250,-2 -430,-4 -465,-4 -77,0 -122,29 -132,85l0 2c-15,85 -31,101 -43,99 -18,-3 -84,-50 -132,-85 -38,-163 -68,-382 -68,-816 0,-1 6,-47 15,-116 12,107 29,250 46,306 23,80 319,90 424,91 4,67 29,159 171,167 148,9 1579,26 1833,30l9 0c0,0 0,0 1,0l9 0c128,-2 561,-7 974,-13l0 -9c-413,6 -846,11 -974,13l-9 0c0,0 0,0 -1,0l-9 0c-253,-3 -1684,-21 -1832,-30 -134,-8 -158,-93 -163,-158 0,-3 0,-6 0,-10 -1,-11 -1,-21 -1,-29 0,-49 9,-223 15,-322 5,64 11,157 17,220 6,65 28,120 28,120 1,3 28,77 169,87 150,10 1328,26 1768,27l9 0c0,0 0,0 1,0l9 0c216,0 611,-5 974,-10l0 -9c-363,5 -758,9 -974,10l-9 0c0,0 0,0 -1,0l-9 0c-440,-1 -1618,-17 -1767,-27 -136,-10 -161,-80 -162,-81 0,-1 -22,-55 -27,-118 -5,-64 -12,-159 -16,-223 77,23 229,54 513,68 401,21 1216,30 1459,33l9 0c0,0 0,0 1,0l9 0c165,-2 591,-7 974,-16l0 -9c-383,10 -809,14 -974,16l-9 0c0,0 0,0 -1,0l-9 0c-244,-2 -1058,-12 -1459,-33 -286,-15 -438,-47 -514,-70 -2,-25 -3,-43 -4,-52 0,0 0,0 0,0l0 -577c0,0 0,-1 0,-3l558 10 -116 455c0,2 -15,64 20,113 24,33 65,52 122,56 153,11 1149,27 1392,31l9 0c0,0 0,0 1,0l9 0c156,-2 620,-10 974,-18l0 -9c-354,8 -818,16 -974,18l-9 0c0,0 0,0 -1,0l-9 0c-244,-4 -1239,-20 -1392,-31 -55,-4 -93,-22 -116,-53 -33,-45 -19,-105 -18,-105l116 -457 355 7c-76,109 -268,386 -278,417 -8,23 -7,62 14,91 14,20 44,45 103,47 101,3 993,20 1216,24 3,0 6,0 9,0 0,0 0,0 1,0l9 0c161,-3 665,-13 974,-19l0 -9c-310,6 -814,16 -974,19l-9 0c0,0 0,0 -1,0 -3,0 -6,0 -9,0 -223,-4 -1115,-21 -1216,-24 -45,-1 -77,-16 -96,-43 -19,-27 -20,-62 -13,-84 10,-30 207,-315 280,-419l1045 19 18 0 974 -18 0 -9 -974 18 -18 0 -1039 -19 -11 0 -358 -7 -9 0 -560 -11c1,-38 2,-157 7,-255 6,-111 38,-270 42,-286l0 0c71,2 1059,33 1928,34l9 0c0,0 0,0 1,0l9 0c326,0 669,-5 974,-10l0 -9c-305,6 -648,10 -974,10l-9 0c0,0 0,0 -1,0l-9 0c-865,-1 -1848,-31 -1927,-34 50,-334 266,-986 283,-1038 1,-2 1,-3 1,-3 10,-28 41,-41 41,-41 44,-8 353,-18 1576,-11l31 0 5 0 34 0c411,-2 719,-2 948,-2l0 -9c-229,-1 -537,0 -948,2l-70 0c-1224,-6 -1534,3 -1579,12 -1,1 -33,14 -45,44 -11,0 -47,1 -80,21 -2,1 -4,2 -6,4 -11,7 -22,17 -31,29 -5,7 -10,15 -14,24l-34 0 1 -2c1,-3 3,-6 5,-10 2,-7 15,-45 38,-89 35,-65 94,-143 177,-143l30 -1 9 0 126 -3 2 0 94 -2 147 0 2 -5c5,-8 23,-36 59,-38 49,-2 279,-10 280,-10 24,1 42,4 46,6l0 7 182 -9 2 -2c5,-4 21,-15 32,-15 4,0 23,0 50,-1 87,-3 208,-7 288,-7 3,0 32,-1 46,12l2 2 413 0 2 -2c13,-13 42,-12 46,-12 80,0 200,4 288,7 28,1 46,1 50,1 11,0 27,11 32,15l2 2 182 9 0 -7c4,-2 22,-5 46,-6 0,0 62,2 128,5l0 -13c-66,-2 -127,-5 -129,-5 -23,1 -50,4 -57,12zm-3225 3865c13,0 25,1 38,1 36,0 72,-1 108,-3l0 70c-47,2 -95,1 -143,-2 -1,-22 -2,-44 -3,-66zm50 510c-5,-16 -9,-40 -14,-71 43,5 86,8 129,9 2,27 5,52 8,75 -41,-2 -81,-5 -122,-9 0,-1 -1,-2 -1,-4zm132 104c-5,1 -85,12 -124,-82 39,4 78,7 117,8 4,30 9,55 14,74 -3,0 -6,0 -8,0zm226 -113c-21,-12 -42,-23 -63,-35 19,-17 37,-33 55,-50 2,30 5,59 8,85zm-10 -110c-24,-14 -47,-29 -71,-44 22,-17 43,-35 64,-52 1,7 1,14 2,22 2,25 4,50 5,74zm-9 -127c-23,-14 -46,-28 -69,-43 22,-17 43,-35 65,-53 0,31 1,56 3,72 0,7 1,16 2,24zm-5 -117l0 11c-24,20 -48,40 -72,59 -24,-16 -47,-31 -71,-47 0,-7 0,-15 0,-23 24,-16 48,-32 71,-49 24,17 48,33 72,49zm-64 -55c22,-16 42,-31 64,-47 0,33 0,64 0,91 -21,-14 -43,-29 -64,-44zm-15 130c-19,15 -39,30 -58,44 -1,-10 -1,-19 -2,-27 -1,-13 -2,-34 -2,-59 21,14 42,29 63,42zm8 5c26,17 52,32 77,48 0,3 1,6 1,9 -23,19 -47,39 -71,58 -24,-16 -48,-32 -71,-48 0,-6 -1,-12 -1,-17 22,-16 44,-33 65,-50zm0 121c-19,15 -38,29 -57,43 -2,-27 -4,-53 -6,-75 0,-4 0,-7 -1,-11 21,14 42,29 63,42zm8 5c26,17 52,33 78,49 0,1 0,2 0,4 -20,19 -41,38 -62,56 -27,-16 -54,-32 -80,-48 0,-4 -1,-8 -1,-12 22,-16 43,-32 64,-49zm10 115c-20,18 -41,35 -62,52 -4,-30 -7,-63 -10,-96 24,15 48,29 72,43zm-61 62c23,-19 46,-38 69,-58 24,14 47,26 71,40 0,4 1,8 1,12 -16,14 -31,28 -48,41 -31,-10 -62,-20 -93,-30 0,-1 0,-2 0,-4zm143 4c2,17 5,34 7,48 -16,-5 -31,-9 -47,-14 13,-11 26,-22 40,-34zm-126 83c0,0 0,0 0,-1 -6,-18 -11,-43 -15,-72 28,9 55,18 83,27 -5,4 -10,7 -15,11 -1,1 -2,1 -4,2 -16,11 -34,22 -49,32 0,0 0,0 0,1zm16 0c21,-14 46,-29 62,-43 19,6 38,12 57,17 2,9 4,17 6,25 -34,1 -81,1 -125,1zm324 -53c3,7 6,13 10,18 0,0 0,0 0,1 2,2 3,5 5,6 -19,15 -43,23 -68,24l-41 1c-3,-9 -6,-20 -8,-34 34,-4 68,-10 102,-16zm-23 -96c4,27 8,51 14,71 -36,6 -71,12 -107,16 -4,-22 -7,-47 -9,-73 17,-1 35,-4 52,-6 17,-2 33,-5 50,-8l0 0zm-2 -18c-17,3 -33,6 -50,8 -17,2 -35,4 -52,6 -2,-27 -5,-54 -7,-81 34,-2 67,-4 101,-8 2,26 5,52 8,75zm-123 -419c34,0 68,-2 102,-4 0,27 0,50 0,68 0,0 0,0 0,0 -17,1 -34,3 -50,4 -17,1 -35,2 -52,2l0 -71zm52 86c17,-1 34,-2 50,-4 0,0 0,0 0,0 0,4 0,9 0,12 0,10 1,23 1,40 0,6 0,12 0,19 -35,3 -69,6 -104,8 -1,-20 -1,-45 -1,-73 17,0 35,-1 52,-2zm54 84c1,22 2,44 3,66 -17,1 -34,3 -50,4 -17,1 -35,1 -52,2 -1,-12 -2,-23 -3,-34 -1,-8 -1,-18 -1,-30 35,-2 69,-5 104,-8zm-47 87c17,-1 33,-2 50,-4l0 0c1,25 3,49 4,72 -34,4 -67,6 -101,8 -1,-17 -2,-34 -4,-49 0,-9 -1,-17 -2,-25 17,0 35,-1 52,-2zm-56 -581l101 0c0,13 0,26 0,39 -17,1 -34,2 -50,2 -17,0 -34,1 -52,0 0,-14 0,-28 1,-42zm-95 8c0,8 -1,17 -1,25l0 6c-2,-1 -4,-2 -5,-4 -8,-5 -16,-11 -23,-16 9,-5 19,-9 29,-12zm-113 121c2,-8 4,-16 7,-23 8,6 16,12 24,18 -12,8 -24,16 -36,24l5 -19zm-8 32c13,-9 27,-18 41,-28 2,-1 4,-2 6,-4 2,1 4,3 6,5 1,-3 1,-6 2,-10 0,0 -1,0 -1,-1 1,0 1,-1 2,-1 1,-5 4,-10 6,-15 -5,4 -10,7 -16,11 -1,0 -1,-1 -2,-1 -8,-6 -17,-13 -26,-19 14,-31 37,-56 65,-74 7,6 15,11 22,16 5,4 9,6 14,10 8,-4 17,-7 27,-10 0,-7 0,-14 0,-20 0,-6 0,-12 0,-18 8,-1 17,-2 26,-2l17 0 0 38c23,2 45,10 65,21 10,0 21,-1 31,-1 10,0 21,-1 31,-1 0,24 0,47 -1,70l0 0c9,18 14,38 14,59 0,23 -5,44 -15,61l0 55c-13,1 -25,1 -38,2 -11,1 -21,1 -31,1 -1,0 -2,0 -3,0l-2 0c-15,4 -31,6 -49,5 -2,0 -4,0 -6,-1l0 103c0,28 1,53 1,73l1 18c0,12 1,23 2,31 1,10 1,21 2,32l3 44c1,17 2,32 3,49l1 18c2,29 5,56 7,81l2 18c3,29 6,53 9,74 1,6 2,12 3,18 2,15 7,28 10,39 -10,0 -21,0 -31,1l0 0c-1,0 -2,0 -3,0l-7 0c-2,-6 -4,-12 -5,-19l-2 -10c-4,-18 -7,-39 -11,-64l0 -2 -1 -8c-3,-29 -7,-62 -10,-98l-2 -23c-2,-26 -4,-52 -5,-74l-4 -46c-1,-11 -1,-22 -2,-31 -1,-16 -2,-42 -3,-79l0 -16c-1,-33 -1,-71 -1,-112l0 -26c-10,-4 -18,-9 -26,-15l0 16c-21,-14 -43,-29 -64,-44 4,-3 8,-6 12,-9 3,-2 6,-4 8,-6 -1,-2 -3,-5 -5,-7 -3,2 -6,4 -8,6 -5,4 -10,8 -15,11 -19,-13 -38,-28 -57,-42l11 -45zm-25 66c4,0 6,0 6,0l4 0 3 -12c17,13 34,26 51,38 -21,15 -42,30 -64,44 0,-23 0,-47 0,-71zm0 81c24,-16 48,-32 71,-49 24,17 47,33 71,49l0 17c-24,18 -47,36 -71,53 -24,-17 -48,-35 -71,-53l0 -17zm64 75c-21,15 -42,29 -64,43 0,-27 0,-58 0,-91 21,16 42,32 64,48zm-141 -114c0,-23 0,-47 0,-71 23,14 45,22 60,25 0,29 0,58 -1,85l0 13c0,43 0,83 1,116 0,4 0,7 0,10l0 11c1,32 2,57 3,73 1,12 2,25 3,39l0 2c0,2 0,5 1,8l0 4c1,8 1,16 2,24 2,29 4,58 6,85l0 1c0,3 1,6 1,9 0,1 0,1 0,1 3,42 7,80 11,114 0,2 0,4 1,6 0,1 0,2 1,4 0,2 0,4 1,6 4,29 9,53 14,72 -22,0 -42,-1 -59,-1 -6,-19 -11,-44 -16,-74 -1,-6 -1,-12 -2,-18 -3,-24 -6,-49 -8,-75 0,-6 -1,-12 -1,-18 -2,-28 -5,-56 -6,-81 0,-6 -1,-12 -1,-18 0,-5 -1,-11 -1,-16 -1,-22 -3,-42 -4,-60 0,-6 -1,-12 -1,-17 0,0 0,-1 0,-1 -1,-14 -2,-36 -2,-63 0,-6 0,-12 0,-18 0,-22 -1,-46 -1,-73l0 -106zm0 452c-44,-1 -87,-4 -131,-10 -3,-22 -6,-47 -9,-74 33,2 66,4 98,4 12,0 23,0 35,-1 2,28 4,55 6,81zm-9 -113c0,5 1,10 1,14 -44,1 -89,0 -133,-3 -2,-23 -4,-47 -6,-72 24,1 47,2 71,2 21,0 42,0 63,-1 1,18 3,38 4,60zm-6 -78c-45,2 -90,1 -134,-1 -2,-21 -4,-43 -5,-66 38,2 77,4 116,4 7,0 14,0 21,0 0,28 1,49 2,64zm-141 -85c-1,-23 -3,-46 -4,-70 27,1 54,2 81,2 20,0 41,-1 61,-1 0,26 0,50 1,72 -46,0 -92,-1 -138,-4zm137 -175c-49,3 -98,4 -146,2 -1,-23 -2,-46 -3,-69 6,0 12,0 18,0 44,0 88,-3 132,-6 0,25 0,49 0,73zm-6 -90c-18,1 -37,2 -55,4l-3 0c-19,1 -38,1 -58,1 -10,0 -19,0 -28,0 -1,-23 -1,-46 -2,-69 15,1 30,1 45,1 16,0 32,0 48,-1 17,28 35,49 53,65zm-63 -83c-28,1 -56,1 -83,0 -1,-23 -1,-47 -2,-70 8,0 15,1 23,1 12,0 23,-1 35,-1 8,27 17,50 27,70zm-47 -141c5,18 10,35 14,53 -18,1 -35,1 -53,1 0,-23 -1,-46 -1,-69 12,0 23,0 35,0 1,5 3,10 4,15zm-39 -149c2,10 5,18 7,27l-7 0c0,-10 0,-18 0,-27zm0 46c4,0 8,0 12,0 6,24 12,47 18,69l-30 0 0 -70zm144 -2149c-6,-8 -8,-17 -8,-28l0 -75c0,-75 24,-110 51,-150l9 -13c19,-29 92,-35 140,-35 -40,115 -71,209 -87,259 -6,19 -10,32 -12,38 -2,0 -4,0 -6,0 -6,0 -12,1 -15,3 -10,6 -21,17 -32,30 -19,-6 -32,-19 -40,-30zm296 1184c0,3 0,6 0,9 -6,97 -16,280 -16,331 0,8 0,18 0,29 -103,-1 -393,-11 -415,-84 -18,-61 -38,-237 -50,-344l0 -1c18,-148 45,-369 62,-521l1 15c7,112 20,345 24,395 5,67 71,79 71,79l325 44c0,7 -1,25 -3,49zm11 -893c-5,99 -7,218 -7,256l0 9c0,2 0,3 0,3l0 567 -324 -43c-2,-1 -60,-11 -64,-72 -4,-49 -17,-283 -24,-394l-2 -41 41 -338c6,-12 64,-126 115,-190 5,-6 9,-11 13,-16 8,-9 16,-16 23,-21 2,-1 10,-2 18,-2l6 0 1 -4 244 0c-5,26 -36,177 -42,286zm203 -1256l1 -2c16,-34 41,-53 65,-62 2,-1 5,-2 7,-3 2,-1 4,-1 5,-2 3,-1 6,-2 9,-2 9,-2 17,-4 23,-4 2,0 4,0 6,0 2,0 5,0 7,0 -23,68 -234,709 -283,1038l-243 0c8,-26 45,-143 99,-297 2,-6 4,-12 6,-18 67,-192 158,-437 254,-647l43 0zm349 -270c0,-1 0,-2 0,-2 1,-5 4,-10 10,-11 6,-1 13,-2 42,12l-53 1zm94 -2l-37 1c-32,-17 -41,-15 -47,-14 -7,1 -11,7 -12,13 0,1 0,2 0,3l-134 3c4,-24 16,-53 22,-62 10,-16 23,-35 47,-35 23,0 58,0 177,92l-17 0z"/>
    <g>
     <path class="fil0" d="M8392 1472l0 102 -178 134c-22,0 -44,1 -67,1l245 -237z"/>
     <path class="fil0" d="M8392 856l0 378 -452 479c-155,2 -313,3 -468,3l920 -860z"/>
     <path class="fil0" d="M8397 632l-5 5 -1068 1078c-90,0 -182,-1 -273,-1l859 -1082c190,0 349,0 481,0l5 0z"/>
     <path class="fil0" d="M7543 633l-1235 1070c144,3 300,5 460,8l940 -1078c-53,0 -108,0 -165,1z"/>
     <path class="fil0" d="M7410 634l-5 0 -31 0c-135,-1 -257,-1 -370,-1l-1209 1059c50,1 105,3 165,4l1466 -1062 -15 0z"/>
     <path class="fil0" d="M6670 632l-1078 649c-36,128 -68,255 -87,358l1356 -1007c-68,0 -132,0 -191,0z"/>
     <path class="fil0" d="M5949 638l-208 156c-30,90 -74,227 -117,373l828 -535c-249,1 -407,3 -503,5z"/>
    </g>
    <path class="fil0" d="M8173 3876l-47 -47c-27,-27 -63,-42 -101,-42l-1233 0c-38,0 -74,15 -101,42l-47 47c-32,32 -50,75 -50,120l0 141c0,32 26,58 57,58l1514 0c32,0 58,-26 58,-58l0 -141c0,-46 -18,-88 -50,-120zm32 261c0,22 -18,40 -40,40l-1514 0c-22,0 -40,-18 -40,-40l0 -141c0,-41 16,-79 45,-108l47 -47c24,-24 55,-37 89,-37l1233 0c33,0 65,13 89,37l47 47c29,29 45,67 45,108l0 141z"/>
    <g>
     <path class="fil0" d="M7578 3095l-337 0c-16,0 -28,12 -28,28l0 25c0,16 13,28 28,28l337 0c16,0 28,-13 28,-28l0 -25c0,-16 -13,-28 -28,-28zm11 53c0,6 -5,11 -11,11l-337 0c-6,0 -11,-5 -11,-11l0 -25c0,-6 5,-10 11,-10l337 0c6,0 11,5 11,10l0 25z"/>
     <path class="fil0" d="M7930 3064c-7,-13 -21,-21 -36,-21l-970 0c-15,0 -29,8 -36,21 -8,13 -7,29 0,42l47 77c20,34 58,55 97,55l754 0c40,0 77,-21 97,-55l47 -77c8,-13 8,-29 0,-42zm-31 24l-47 77c-14,23 -40,38 -67,38l-754 0c-28,0 -53,-14 -67,-38l-47 -77c-2,-3 -1,-5 0,-6 1,-1 2,-3 5,-3l970 0c3,0 5,2 5,3 1,1 2,4 0,6z"/>
    </g>
    <g>
     <path class="fil0" d="M5988 3838l-601 -2c-11,0 -21,4 -23,11l-8 28c-2,4 3,9 11,9l574 0c7,0 15,-1 21,-3l36 -21c17,-6 10,-22 -10,-22z"/>
     <path class="fil0" d="M6067 3833c-4,-13 -15,-22 -29,-22l-675 -3c-16,0 -30,11 -34,26l-14 52c-2,6 0,13 4,18 4,5 10,8 17,8l625 0c10,0 19,-2 27,-7l65 -38c12,-7 18,-20 14,-34zm-23 19l-65 38c-6,3 -12,5 -18,5l-625 0c-1,0 -2,-1 -3,-1 0,-1 -1,-2 -1,-3l14 -52c2,-7 9,-13 17,-13l675 3c7,0 11,5 12,9 1,5 0,11 -6,14z"/>
    </g>
    <g>
     <path class="fil0" d="M5214 1724l-1 4 -3 0c-6,0 -15,1 -19,3 -7,5 -15,12 -23,21 -4,4 -8,9 -12,14l-1 1c-42,54 -89,147 -107,184l-1 2 -38 323 -1 8 0 7 2 33c2,35 5,81 7,131 1,11 1,23 2,35 0,3 0,6 1,9 5,91 10,182 12,210 4,55 49,70 64,74l193 27 9 1 101 14 5 1 0 -558 0 -23c0,-29 1,-83 3,-140 1,-14 1,-28 2,-42 0,-18 1,-37 2,-54 6,-107 36,-260 39,-278l1 -5 -237 0zm75 1076l-192 -27c-12,-3 -53,-16 -56,-66 -2,-28 -7,-119 -12,-209l260 0 0 302zm0 -310c0,0 -246,0 -260,0 -2,-53 -8,-129 -10,-166l-2 -39 1 -5 62 -77c13,-17 33,-26 54,-26l114 0c23,0 42,19 42,42l0 271zm101 -483c-1,16 -2,32 -2,49 0,3 -2,5 -5,5l-315 0 -5 42 318 0c3,0 6,2 6,6 -1,56 -2,107 -3,134l0 569 -85 -11 0 -582c0,-28 -23,-51 -51,-51l-114 0c-24,0 -46,11 -61,29l-53 66 36 -307 0 -1c18,-37 65,-129 107,-182l1 -1c4,-5 7,-10 12,-14 7,-8 14,-15 20,-19 1,0 8,-1 16,-2l8 -1 1 -4 209 0c-8,38 -33,174 -38,274z"/>
     <path class="fil0" d="M5234 1809l-6 0c-34,3 -63,32 -67,67 -4,38 22,69 58,70l3 0c35,-1 66,-31 70,-68 4,-38 -22,-69 -58,-69zm48 69c-3,32 -31,58 -62,58 -31,0 -54,-27 -50,-59 4,-32 31,-58 63,-58 31,0 53,27 49,59z"/>
     <path class="fil0" d="M5220 1927c26,0 49,-21 52,-48l-23 0c-2,13 -14,24 -27,24 -13,0 -22,-11 -21,-24l-23 0c-2,27 16,49 42,49z"/>
     <path class="fil0" d="M5227 1869c5,0 9,5 9,10l9 0c1,-11 -7,-20 -17,-20 -11,0 -20,9 -21,20l9 0c1,-5 5,-10 11,-10z"/>
     <path class="fil0" d="M5239 2191l-104 0c-19,0 -37,9 -48,24l-56 70 0 5 2 35c2,31 5,74 7,118 1,11 1,22 2,32l236 0 0 -245c0,-21 -17,-38 -38,-38zm-78 195l-1 0c-24,-1 -41,-20 -40,-45 1,-23 19,-42 41,-44l4 0c23,0 41,20 40,45 -1,24 -20,43 -43,44z"/>
     <path class="fil0" d="M5164 2304c-20,0 -37,17 -38,37 -1,21 14,38 34,38 20,0 37,-17 38,-37 1,-21 -14,-38 -34,-38zm-1 26c7,0 12,6 12,13l-6 0c0,-4 -2,-6 -6,-7 -4,0 -6,3 -7,6l-6 0c1,-7 6,-13 13,-13zm-3 44c-17,0 -29,-14 -28,-31l15 0c0,8 6,16 14,16 8,0 16,-7 16,-16l15 0c-1,17 -16,31 -32,31z"/>
     <path class="fil0" d="M5165 2599c-20,0 -37,17 -38,37 -1,21 14,38 34,38 20,0 37,-17 38,-37 1,-21 -14,-38 -34,-38zm-2 26c7,0 12,6 12,13l-6 0c0,-4 -2,-7 -6,-7 -4,0 -6,3 -7,6l-6 0c0,-7 6,-13 13,-13zm-2 44c-17,0 -29,-14 -29,-31l15 0c0,8 6,16 14,16 8,0 16,-7 17,-16l15 0c-1,17 -16,31 -32,31z"/>
     <path class="fil0" d="M5045 2516c5,80 9,160 11,185 3,44 39,55 50,58l169 24 0 -266 -229 0zm117 165l-2 0c-23,-1 -41,-20 -40,-45 1,-23 19,-42 41,-44l4 0c23,0 41,20 40,45 -1,24 -21,43 -43,44z"/>
    </g>
    <path class="fil0" d="M6074 3894l-27 17 238 0 28 -17 -238 0zm41 -42l-27 17 238 0 28 -17 -238 0zm43 -42l-28 17 238 0 27 -17 -238 0z"/>
    <g>
     <path class="fil0" d="M5220 1743l-1 3 -5 1c-6,0 -13,1 -16,2 -6,4 -12,10 -19,18 -4,4 -7,7 -10,12l-1 2c-37,49 -80,132 -97,166l-4 45 244 0 0 -4c0,-12 1,-8 1,-20 6,-104 34,-218 35,-220l1 -5 -128 0zm84 225c0,10 -1,5 -1,16l-226 0 2 -33c17,-34 59,-116 96,-164l1 -2c3,-4 6,-7 10,-11 6,-7 12,-13 17,-16 2,0 6,-1 13,-1l11 -1 1 -3 111 0c-5,27 -29,122 -34,216z"/>
    </g>
    <g>
     <path id="right_output_1_" class="fil0" d="M5852 4020c-11,-8 -35,-13 -66,-17 -20,-2 -44,-4 -70,-5l-2 0c-74,-3 -161,-1 -218,0 -13,0 -24,0 -34,1 -9,0 -16,0 -21,0l0 0 -5 2 -2 1 -41 20 -27 13 -5 3 -7 4c0,0 -1,1 -1,1 -30,17 -52,44 -61,77 -1,5 -3,11 -4,16 -1,8 -2,17 -2,25 0,28 8,55 23,78 1,3 3,5 5,8 13,20 31,37 52,50 8,5 17,10 26,14 13,6 28,10 42,11 2,1 5,1 7,1 21,2 41,0 59,-6 8,-2 14,-5 21,-9l4 -2 8 -5 30 -17 18 -10 36 -20c-7,-16 -10,-35 -10,-52 -1,-40 18,-87 68,-115 12,-8 24,-14 38,-17 14,-4 30,-6 47,-5 9,1 17,2 26,5 65,17 115,77 116,143 1,70 -53,123 -122,124 -5,1 -10,0 -15,0 -20,-2 -40,-7 -57,-16 -49,-25 -84,-75 -85,-131 0,-36 13,-67 36,-90 -32,28 -46,66 -45,97 0,19 4,36 11,53 17,35 46,64 82,81 18,8 37,14 58,16 5,0 10,1 15,0 3,0 6,0 8,0 2,0 4,-1 5,-1 10,0 19,-3 28,-6 3,-1 7,-2 10,-3 9,-3 18,-7 25,-12l79 -52 5 -3c0,-126 1,-188 -87,-249zm-290 229c-16,29 -40,49 -72,58l-2 0c-15,4 -31,6 -49,5 -2,0 -4,0 -6,-1 -15,-1 -29,-5 -42,-11 -10,-4 -18,-9 -26,-15 -17,-11 -32,-26 -43,-43 -1,-2 -3,-5 -5,-7 -12,-21 -19,-45 -20,-70 0,-10 1,-19 2,-28 1,-3 1,-6 2,-10 0,-1 0,-1 1,-2 1,-5 4,-10 6,-15 12,-25 32,-46 58,-58 8,-4 17,-7 27,-10 14,-3 28,-4 43,-3 23,2 45,10 65,21 27,16 49,39 62,67l0 0c9,18 14,38 14,59 0,23 -5,44 -15,61z"/>
    </g>
    <g>
     <path class="fil0" d="M8216 2358l-1614 0c-28,0 -51,23 -51,51l0 268c0,28 23,51 51,51l1614 0c28,0 51,-23 51,-51l0 -268c0,-28 -23,-51 -51,-51zm-1312 345c0,6 -5,11 -11,11l-289 0c-22,0 -39,-18 -39,-39l0 -269c0,-19 15,-35 34,-35l294 0c6,0 11,5 11,11l0 320zm1350 -33c0,25 -20,44 -44,44l-1281 0c-6,0 -11,-5 -11,-11l0 -320c0,-6 5,-11 11,-11l1283 0c24,0 43,19 43,43l0 255z"/>
     <g>
      <rect class="fil0" x="8102" y="2441" width="117" height="23"/>
      <rect class="fil0" x="8102" y="2468" width="117" height="23"/>
      <path class="fil0" d="M8102 2414l0 23 117 0 0 -23 -117 0zm17 20c0,0 -1,0 -2,0 -5,0 -9,-4 -9,-9 0,-5 4,-9 9,-9 1,0 2,0 2,0 -4,1 -7,4 -7,9 0,4 3,8 7,9zm10 0l-2 -1 -2 1 0 -2 -2 -1 2 0 1 -2 1 2 2 0 -1 1 0 2zm7 0l-2 -1 -2 1 0 -2 -1 -1 2 0 1 -2 1 2 2 0 -1 1 0 2zm0 -8l0 2 -2 -1 -2 1 0 -2 -1 -1 2 0 1 -2 1 2 2 0 -1 1zm7 8l-2 -1 -2 1 0 -2 -1 -1 2 0 1 -2 1 2 2 0 -2 1 0 2zm0 -8l0 2 -2 -1 -2 1 0 -2 -1 -1 2 0 1 -2 1 2 2 0 -2 1zm0 -6l0 2 -2 -1 -2 1 0 -2 -1 -1 2 0 1 -2 1 2 2 0 -2 1zm7 14l-2 -1 -2 1 0 -2 -1 -1 2 0 1 -2 1 2 2 0 -1 1 0 2zm0 -8l0 2 -2 -1 -2 1 0 -2 -1 -1 2 0 1 -2 1 2 2 0 -1 1zm0 -6l0 2 -2 -1 -2 1 0 -2 -1 -1 2 0 1 -2 1 2 2 0 -1 1zm7 14l-2 -1 -2 1 0 -2 -1 -1 2 0 1 -2 1 2 2 0 -1 1 0 2zm0 -8l0 2 -2 -1 -2 1 0 -2 -1 -1 2 0 1 -2 1 2 2 0 -1 1zm0 -6l0 2 -2 -1 -2 1 0 -2 -1 -1 2 0 1 -2 1 2 2 0 -1 1z"/>
     </g>
     <g>
      <path class="fil0" d="M8144 2600l0 44c0,15 -5,22 -14,22 -9,0 -14,-7 -14,-22l0 -44 -13 0 0 44c0,24 11,34 26,34 17,0 28,-11 28,-34l0 -44 -13 0z"/>
      <polygon class="fil0" points="8184,2665 8184,2665 8219,2609 8219,2600 8170,2600 8170,2612 8202,2612 8202,2612 8167,2669 8167,2677 8220,2677 8220,2665 "/>
     </g>
     <circle class="fil0" cx="6583" cy="2539" r="9"/>
     <circle class="fil0" cx="8235" cy="2539" r="9"/>
    </g>
    <g>
     <path class="fil0" d="M7506 1881l0 -38 -195 0 0 38 -146 0 -19 36 -4 7 -19 35 -4 7 -21 39 213 0 0 38 195 0 0 -38 146 0 21 -39 4 -7 19 -35 4 -7 20 -36 -213 0zm145 36l-4 7 -18 35 -4 7 -8 15 -138 0 0 38 -147 0 0 -38 -172 0 8 -15 4 -7 19 -35 4 -7 4 -6 133 0 0 -44 147 0 0 44 175 0 -4 6z"/>
     <polygon class="fil0" points="7646,1915 7645,1917 7641,1925 7622,1959 7618,1967 7612,1977 7475,1977 7475,2014 7338,2014 7338,1977 7171,1977 7177,1967 7181,1959 7199,1925 7204,1917 7205,1915 7338,1915 7338,1872 7475,1872 7475,1915 "/>
    </g>
   </g>
   <g>
   </g>
   <g>
   </g>
   <g>
   </g>
   <g>
   </g>
   <g>
   </g>
   <g>
   </g>
   <g>
   </g>
   <g>
   </g>
   <g>
   </g>
   <g>
   </g>
   <g>
   </g>
  </g>
 </g>
</svg>
