<?xml version="1.0" encoding="utf-8"?>
<!-- Generator: Adobe Illustrator 26.0.1, SVG Export Plug-In . SVG Version: 6.00 Build 0)  -->
<svg version="1.1" id="Слой_1" xmlns:xodm="http://www.corel.com/coreldraw/odm/2003"
	 xmlns="http://www.w3.org/2000/svg" xmlns:xlink="http://www.w3.org/1999/xlink" x="0px" y="0px" viewBox="0 0 238.1 150.2"
	 style="enable-background:new 0 0 238.1 150.2;" xml:space="preserve">
<style type="text/css">
	.st0{fill-rule:evenodd;clip-rule:evenodd;}
</style>
<g id="Слой_x0020_1">
	<g>
		<path class="st0" d="M63.8,82.1c0.1-0.7,0.9-1.2,1.9-0.9c0.6,0.2,0.8,1.3,0.6,2C65.4,82.2,64.9,82.6,63.8,82.1z M73.7,67.8
			l0.1-0.1c0.1-0.2,0-0.1,0.2-0.1c0.3-0.4,1.7-1.3,2.3-1.5l3.1-1.5c1.2-0.5,2.2-0.8,3.5-1.2c0.4-0.1,3.6-0.8,3.7-0.9
			c0.1-0.1,1.4-2.6,1.6-3l0.1,0c0-0.6,0-0.2-0.1-0.3l-0.4,0.2c-2.5,0.1-6.8,1.3-8.8,2.2c-0.7,0.3-3.4,1.4-3.6,1.9
			c-0.2,0.3-1.5,3.7-1.6,4.1c-0.1,0-0.1,0,0,0.1C73.6,67.7,73.6,67.8,73.7,67.8C73.7,67.8,73.7,67.8,73.7,67.8z M129.2,105l0.2,0
			c0.1,1,0.5,2,0.6,3.2l-0.1,0.2c-0.2-0.3-0.4-0.5-0.7-0.8C129.2,107.6,129.2,105,129.2,105z M151.8,93.8L151.8,93.8
			c-0.4,1-1,1.4-1,2.9c0,1.2,0.5,1.9,1.2,2.6c0,0.2,0,0.1-0.1,0.1c-0.4-0.2-0.9-0.8-1.2-1.2c-0.4-0.6-0.4-1.3-0.4-2.2
			C150.6,95,151.1,94.2,151.8,93.8z M109.8,89.8l0.1-0.1c0.5,0.1,1.2,0.5,1.5,0.7c0.4,0.3,0.8,0.8,0.8,1.4c0,0.1,0,0.4,0,0.5
			c-0.1,0.4,0,0.2-0.2,0.3c-0.2-0.6-0.7-1.2-1.1-1.6C110.7,90.5,110.4,90.3,109.8,89.8z M228,97.2c-0.1-0.2,0.2-0.1-0.3-0.2l0.1,0.2
			c0.3,0.7,0.7,1.4,0.6,2.3c-0.2,0.8-2.1,1.7-2.8,2l-0.1,1.6l-0.4,1.5c-0.1,0.2-0.1-0.2-0.1,0.2c0.4-0.1,0.2,0,0.3-0.1l0.4,0
			c0.2-0.2,2.5-1.1,3.3-1.6c0.3-0.2,0.6-0.4,0.9-0.6l-0.2,3.6c-0.7,0.8-1.8,1.4-3,1.8c-1.2,0.5-2.4,0.8-3.4,1.6
			c-1.8,1.5-1,2.1-2.2,2.8c-1.7,0.9-1.8,2-2.2,2.6c-0.2-0.3-0.4-0.5-0.8-0.7c-0.4-0.3-2.3-1.3-2.7-1.5c-0.9-0.2-15,0.2-16.7,0.2
			c-1.9,0-3.8,0.1-5.6,0.1c-0.8,0-1.6-0.3-2.5-0.3c-3.6-0.3-6.6,1.3-8.7,4.1c-0.2,0.3-0.4,0.6-0.6,0.8l-1.5-2.8
			c-0.2-0.1-1.3-1.6-1.4-1.8c-0.9-0.4-1.8-2.2-6.7-2.9c-3.4-0.4-9.5-0.8-13.4-1c-1.5-0.1-3-0.5-4.2,0.2c-1.9,1-3.3,3.4-3.1,6.4
			l0.2-0.1c0.2-1.4,1.3-2.6,2.5-3l0.3,0.1l0.3,1.8c0.3,0.9,0.6,2.6,0.8,3.7c0.3,1.2,0.6,2.4,0.9,3.6c0.6,2.1,0.7,2,1.2,3.4
			c1.1,3.3,3.5,3,6,3l8.7-0.1c1.7,0,2.2-0.2,3.6-0.9c2.1-0.9,2.7-2.7,3.1-3c0.3,0.2,0.3,0.6,0.5,1c0.3,0.3,0.7,0.4,0.9,0.7
			c0.4,0,1.4,0.2,2,0.2c4.3,0.4,10.1,0.7,14.3,0.8c5.6,0.1,11.1,0,16.5-0.9c1.1-0.2,2.3-0.6,3.4-0.9c1.1-0.3,2.3-0.6,3.4-0.9
			c2.1-0.7,0.8-5,0.2-6.6c-0.2-0.7-0.4-1-0.2-1.8c0.5-1.8,1.4-2.6,3-3.4c1.1-0.6,5.1-2,6.5-2l0.4-0.1c0,0.4,0,0.3,0.1,0.6
			c0,1.5,0.5,9.8,0.6,11.9c0.1,0.9,0.2,1.3-1.2,1.9c-0.8,0.3-1.7,0.5-2.7,0.4c-2-0.1-2.8-1.4-4.2-1.9c-0.2-0.3-0.3-0.3-0.7-0.4
			c0.2,0.3,0.3,0.4,0.7,0.5l2.1,1.5c0.8,0.6,1.6,0.8,2.9,0.8c3-0.2,2.7-1.9,5.8-1.4c1.9,0.3,1.8,1.3,1.1,1.6
			c-1.5,0.7-8.7,0.4-10.6,0.4c-4.7,0-9.3,0.4-14,0.6c-9.2,0.5-18.1,1.3-27.2,2.3c-9.6,1-18.6,1.3-28.2,1.1c-2.4-0.1-4.7-0.1-7-0.3
			c-2.3-0.1-4.7-0.4-7-0.2c1,0.2,3.1,0.3,4.3,0.4c4.6,0.2,8.9,0.5,13.6,0.5c4.8,0,13.4-0.1,18-0.6l9-0.8c1.6-0.3,4.8-0.5,6.7-0.7
			c2.3-0.2,4.5-0.4,6.8-0.6c9.7-0.7,18.6-1.4,28.4-1.4c1.9,0,5.5,0.2,7.1-0.3c1.2-0.4,1.4-1.5,0.3-2c-1.1-0.6-1.9-0.3-3.2-0.4
			c0-2.2-0.4-4.8-0.3-6.9c0-0.9,0.4-2.1,0.5-3.1c0.2-2.9-0.2-3.8-0.4-6.5c-0.1-1.1-0.1-2.2-0.2-3.3c-0.3-4.1-0.7-2.8-1.3-4
			c-0.1-0.2-0.4-1.1-0.4-1.3c-0.3-0.2-0.3-0.4-0.5-0.7C228.3,97.5,228.1,97.3,228,97.2L228,97.2z M74.1,64.3l0.2-0.2
			c-0.5,0-0.1,0-0.3,0.1c-2.2,1.5-2.7,1.9-4.8,3.5l-1.3,1.1c-0.1,0.2-0.1,0.1-0.1,0.2c-0.3,0.2-0.3,0.2-0.5,0.5
			c-1,1.4-1.8,2.1-2.2,4.2l0.5,0.2c1.2-0.1,2.3,1.6,4.2,0.9c-0.4,0-1.9-0.3-2-0.8c-0.4-0.2-0.5-0.4-0.9-0.6c-0.4-0.2-0.7-0.2-1-0.3
			c0.1-0.2,1-2.2,1.5-2.5c0-0.2-0.1-0.1,0.1-0.1l0.3-0.3c0.4-0.4,0.6-0.3,0.9-0.6l1.7-0.5c0.5-0.3,1.2-0.2,1.7-0.4
			c0.4-0.2,0.6-1.1,0.8-1.4L74.1,64.3L74.1,64.3z M105.6,96c-0.1-0.1,0,0-0.2-0.1l-0.1-0.4l-0.1,0.4c0,0.1,0,0.3,0.1,0.5
			c0.1,0.3,0.2,0.5,0.2,0.7c0.1,0.4-0.3,4.6-0.4,5.2c-0.1,1.2-0.2,2.3-0.3,3.5c-0.1,0.6-0.1,1.2-0.1,1.8c0,0.6,0.1,1.2,0.1,1.7
			c0.2,0.3,0.3,1.2,0.3,1.6l0.1,0.4c0.2-0.3,0.2-0.4,0-0.7c0-1,0-4.3,0.3-4.9c-0.3-1.1,0.5-5.8,0.5-7.4c0,0,0-0.1,0-0.1l0.1-0.1
			c0,0,0,0,0-0.1c0,0,0,0,0-0.1l0.8,0.6l2.5,1.7c-0.1,0.6-0.6,1.7-0.8,2.4c-0.2,0.5-0.5,2.4-0.7,2.6l-0.1,1.4
			c-0.3,1.3-0.3,3.8-0.2,5.2c0.1,0.9,0,1.3,0.4,2c0.2,0.5,0.7,1.3,0.7,1.9l0.3,0.7c0.2,0.6,0.5,1.7,1,2c0.1,0.1-0.1,0.1,0.3,0.2
			c0.3-0.3,0,0,0.2-0.3c0-0.2-0.1-0.4-0.1-0.6c0-0.1,0-0.3,0-0.4c0-0.2,0-0.1-0.1-0.2c0.1-1,0-2.6,0.1-3.8c0.1-1.1,0.2-2.3,0.3-3.4
			c0.1-0.9,0.5-4.2,0.9-4.7c0-0.5,0.5-3,0.8-3.5c0.1-0.6,0.3-1.1,0.5-1.7c0.2-0.4,0.4-1.2,0.7-1.6l-0.1,0.1c0.3-1.2,1.9-3.4,2.5-4.1
			c0.8-0.8,2.3-2.4,3.8-2.7c0.4-0.4,2-0.6,2.7-0.6c1.3,0,1.7,0.4,2.7,0.6l0.2,0.2l0.3,0c0.2,0.2-0.2,0.1,0.3,0.2l-0.2-0.2l-0.1-0.2
			l-0.3-0.1c-0.3-0.4-1.5-0.9-2.1-1.1c-1.1-0.3-1.8-0.1-2.8-0.3c-0.4,0-0.6,0-0.9,0.2c-0.6,0.1-1.6,0.5-2.1,0.8
			c-0.3,0.2-0.5,0.3-0.8,0.6c-0.2,0.2-0.5,0.5-0.7,0.6l0,0c0.1-0.6,1-1.4,1.4-1.8c1.8-1.8,5-2.4,7.4-1.5c2.6,1,3,2.7,3.7,2.6
			c1.8-0.1,4.2-0.5,5.9-0.4c0.4,0,1.3,0,1.8-0.2c0.8,0,1.2-0.1,2.1,0c0.7,0.1,1.3,0.2,2-0.1c3.2-1.4,8.8-0.7,12.2-0.5
			c-0.1-0.5-0.2-0.4-0.9-0.9c-0.3-0.2-0.7-0.5-1.1-0.6c-5.2-3-12.2-4.7-18.2-5.8c-4-0.7-8-1.2-12.1-1.6c-4.6-0.4-4.7-1.6-6-4.2
			c-0.5-1,0.3-1.9,1.1-2c0.2,0,0,0.1,0.2,0c0.2-0.1,0.1-0.1,0.2-0.1l-0.4-0.1l-4-0.6l-1.7-4.1c-0.5-1.3-1.1-2.8-1.7-4.2l-2.5-6.2
			c-0.7-1.6-0.5-1.2-0.1-2.1c-0.3-0.4-0.6-0.8-0.9-1.1c-0.2-0.2-0.9-0.6-1.1-0.8c-0.5,0-1-0.3-1.5-0.4c-4-0.9-14.4,0.1-18.1,1.3
			c-1,0.3-4.5,1.6-5,2.1c-0.9,0.3-2.1,1.1-2.9,1.5c-1,0.6-1.8,1.2-2.7,1.8c-0.9,0.6-1.7,1.2-2.5,1.9l-1.2,1c-0.6,0.4-0.7,0.7-1,0.9
			c-0.2,0.1,0,0-0.2,0.1c-0.2,0.4-0.3,0.4-0.7,0.7l-2.1,2.1c-0.1,0.6-1.1,0.7-1.5,1.5c-0.4,0.1-1.8,1.7-2,1.9
			c-1.3,1.3-2.7,2.7-4.4,3.6c-1.2,0.7-1.5,0.8-3.1,0.9c-0.1,0.4-1.9,3.5-2.3,4.2c-0.4,0.7-0.8,1.4-1.1,2.2c-0.3,0.8-0.9,1.3-1,2.2
			l-0.1,0l0.1,0.3l0.2-0.2c0.2-0.5,1-1.6,1.4-1.7c0.4-1.7,0.9-1.2,4.8-0.7c1.9,0.2,3.9,0.5,5.8,0.7l0,0.8c0.5,0.6,0.3,1,1.2,1.3
			c0,0.1-0.1,0.2,0.2,0.1l0.1-0.1l-0.2,0c-0.4-0.8-0.6-0.5-0.5-1.9l13.5,1.6l2.2,0.2c0.2,0.2-0.2,0,0.3,0.1c0.1,0,0.3,0,0.4,0
			l-0.1,0.4c0,0.9-0.1,2.1-0.1,3.2c0.1,2.5,0.2,5,0.3,7.5c0,1.6,0.3,5.7,0.9,7.1c0.1-4.6-1-14.5-0.4-18.1l0.2,0l0.2,0
			c0.1,0.1,0.1,0.2,0.2,0.2c0,1.1,1,2.1,2,2.1l0.2,0.2c0,0,0.1,0,0.1-0.1c0,0,0,0,0-0.1c0.1-0.1,0-0.1-0.1-0.1
			c-0.7-0.7-1.1-0.9-1.4-2.1c0.6,0,2.3,0.1,2.7,0.4c0.7-0.1,9.3,1,10.7,1.2c1.8,0.2,9.6,1.2,10.6,1.2c0.1,0.1,0,0.1,0.3,0.2
			c0.2,0,0.2,0,0.3,0L105.6,96L105.6,96z M177.2,124.8L177.2,124.8c-0.1,0.5-0.8,1-1.4,1.3c-2.4,1.5-4.3,1.1-7.3,1.1
			c-1.8,0-3.6,0.1-5.4,0.1c-1.9,0-3.7,0.2-4.5-1.2l0,0c0.8,0.2,0.8,0.5,2,0.5l7.9,0.1c2.2,0,2.9,0.1,4.8-0.4
			C175.2,125.9,176.9,124.9,177.2,124.8L177.2,124.8z M168.1,95.7l0.3-0.1c1,0.2,1.9,0.3,3,0.5c0.7,0.1,2.5,0.2,3.2,0.4
			c0.1,0.3,0.1,0.1,0.1,0.5c0.1,0.1,0.1,0.1,0.2,0.2l0.2,0.4c0.4,1.1,0.2,0.5,1,1.5c0.2,0.1-0.2,0.2,0.2,0.1c0.1-0.6,0-0.2-0.1-0.4
			l-0.9-3.3c-0.3-0.1,0.2,0-0.2,0.1c-0.1,0,0,0-0.2,0l-1.7-0.3c-1.5-0.2-5.4-1-6.5-1c-0.2-0.1,0-0.1-0.3-0.1c-0.1,0-0.2,0-0.3,0
			c-0.2,0-0.4,0-0.6-0.1c-0.9,0-2.1-0.3-2.9-0.5c-0.8-0.2-2-0.6-2.7-0.7c-0.1-0.1,0.1,0-0.3-0.2c-0.1,0-0.3,0-0.4,0
			c-4.2-0.9-7.6-1.6-12.3-1.5c-1.2,0-2.3,0.1-3.4,0.1c-0.5,0-1.1,0.1-1.6,0.1c-0.5,0-1.2-0.2-1.5,0.1c-0.5,0.5-0.2,0.9,0.4,1.1
			c0.9,0.2,4.2,0.2,4.6,0.5c1-0.1,4.6,0.4,5.9,0.5c-0.1,0.3-0.6,0.7-0.8,1c-0.2,0.4-0.5,0.9-0.4,1.4c0,0,0,0.1,0,0.1l-0.1,0.3
			c-0.1,0.4,0.1,0.5,0,1l0.3,0.6c0.1,0.2,0.1,0.3,0.3,0.5c0.2,0.4,0.4,0.6,0.7,0.9c0.6,0.5,1.3,0.9,2.3,0.9c1.7,0.2,2.6,0.2,4-0.9
			c0.3-0.2,0.2-0.2,0.4-0.4c0.3-0.4,0.2-0.3,0.4-0.4l0-0.3c0.4-0.2,0.5-1.3,0.5-1.9c0-0.9-0.4-1.3-0.5-1.9c0-0.3-0.1,0,0-0.2l0.5,0
			l2.4,0.2c0,0,0.1,0,0.1,0c0.7,0.2,0.6-0.1,0.6,0.3c-0.9,0.8-1.3,2.6-0.8,4c0.5,1.6,1.5,2,2.9,2.4c0.8,0.2,1.1,0.5,2.2,0.3
			c1.2-0.3,2.5-0.1,4.1-1.1l1.6-0.9c-1.4-0.5-2.1,0.9-3,0.8l-0.5,0.1c-0.6,0-0.1,0-0.3-0.2l0-0.1c0.7-0.4,0.8-2.1,0.7-3.2
			L168.1,95.7L168.1,95.7z M50.4,88.9c-0.2,0.2-0.2-0.3-0.1,0.3c0.4-0.1,0.2-0.1,0.3-0.1c1.3,0.1,2.1,0.2,3,1.2
			c0.2,0.3,0.2,0.5,0.2,1c-0.5-0.5-1.2-1-2.1-1.2c-1.3-0.3-1.9,0-2.9,0.3c-0.3,0.3-0.6,0.2-0.9,0.5c0,0-0.4,0.6-0.6,0.7
			c-0.3,0.5-0.7,1.1-1,1.7c-1.3,2.7-2,5.2-2.4,8.2c-0.3,1.9-0.3,4-0.4,5c0.2,0.1,0.3,0.2,0.6,0.2c0.4,0,0.4-0.1,0.5-0.3
			c0,0,0.3-4.2,0.4-4.8c0.3-1.5,0.5-2.8,1-4.2c0.7-2.1,2.2-5.9,3.9-6.4l0.3-0.1c0.4-0.3,0.9-0.3,1.4-0.2c1.4,0.2,2.1,1,2.6,2.1
			c1.3,2.9,2.1,6.9,2.3,10.2l0.3,5.9c0.5,0,1.2,0,1.7,0.1l1.4,0.1c0,0,0.1,0,0.1,0c0,0,0.1,0,0.1,0c0,0,0.1,0,0.1,0c0,0,0.1,0,0.1,0
			c0.3-0.1,3.4,0,3.7,0.1c0.8,0,1.7,0.1,2.5,0.1c1.2,0.1,1-0.4,2.1-0.5L71,109c1.7-0.2,2.6,0,4.2,0.2c0.9,0.1,3.1,0.6,3.8,0.6
			c0.2,0.2-0.2,0,0.3,0.2c0.2,0.1,0.2,0,0.4,0l0-0.9c0.3-0.4,0.2-0.3,0.2-0.9c-0.7-0.3-3-0.3-3.5-0.7c-0.5,0-0.9-0.1-1.4-0.1
			c-0.5,0-0.6-0.1-0.9-0.5c-0.6-0.6-0.9-0.8-1.2-1.9c-1.1-3.2-3-7.8-4.3-11.2c-1-2.4-0.6-1.1-1.1-1.8c-0.4-0.2-2.1-1.1-2.2-1.6
			c-0.4-0.1-1.4-0.8-1.6-1.3c-0.2-0.4-0.4-1.7-0.7-2c-0.4-0.4-3.5-1-4.3-1.1C53,85.5,50.9,88.6,50.4,88.9z M200.6,90.8l0,0.1l-0.2,0
			l0,0l0-0.2L200.6,90.8L200.6,90.8z M200.8,91c0-0.1,0-0.1,0-0.2c0,0,0-0.1,0-0.1c0,0,0,0,0-0.1l-0.4-0.2c0,0-0.1,0-0.1,0l-0.2-0.1
			c0,0-0.1,0-0.1,0c0.1,0.2,0,0.1,0.1,0.3l0.1,0.2c0,0,0,0.1,0,0.1c-0.7-0.1-0.6,0-0.7,0.1c-0.3,0.1-0.2,0.1-0.2,0.6l-0.1,0l-0.3,0
			c-0.3,0,0.1-0.2-0.1,0c-0.3-0.5-0.1-0.1,0.1-0.2l-0.3-0.1l-0.1,0.1c-0.3-0.5-0.2-0.9,0.2-1.1l0.1,0.2c-0.3,0-0.1,0-0.2,0.1
			c0.4,0.3,0.4,0.5,0.8,0.2l-0.4-0.5c-0.1-0.2,0-0.1-0.1-0.2c1.6-0.2,3.8,1.5,4,2.7c0.2,1.3-1.4,0.9-2.1,0.6
			c-0.8-0.4-1.4-0.9-1.9-1.4l0-0.2l0.2,0l0.1,0.1c0.4,0.1,0.2,0,0.7,0.5c0.1,0.1,0.2,0.2,0.4,0.3c0.2,0,2.4,1.5,2.1,0
			c-0.1-0.3-0.2-0.5-0.5-0.7c0.2,0.3,0.2,0.5,0.5,0.7l0,0.5c-0.4-0.1-1.1-0.7-1.4-1c0.2-0.2,0.2-0.2,0.5-0.4c0.4,0,0.1,0,0.2-0.1
			l-0.2-0.1c-0.2-0.1-0.4-0.2-0.7-0.4C200.8,91.1,200.8,91,200.8,91z M118.8,119.2c0-0.4,0-0.4-0.2-0.7l-0.2-1.1l-0.1-0.4
			c0.4-0.2,0.8-0.6,1.2-1l1-1c0.6-0.3,1.9-1.9,2.6-2c0.2,0,0.4,0,0.6-0.1c0.2-0.1,0.3-0.2,0.5-0.2c0.1,1.4,0.5,2.5,1.3,3.4
			c-0.2,0.5-0.4,0.3-0.7,1.4c-0.1,0.5-0.2,0.4-0.4,0.7c-0.3,0.2-0.4,0.3-0.7,0.5c0,0,0,0-0.1,0.1l-1.2,0.8c-0.1,0.2,0,0.1-0.2,0.2
			c0,0-0.2,0.2-0.2,0.2c-0.3,0.2-0.2,0.1-0.4,0.4c-0.6,0.1-1.4,1.1-2,1.3L118.8,119.2L118.8,119.2z M107.4,121.1l0-0.2
			c-0.2,0.1-0.1,0.1-0.2,0.2c0,0.2,0,0.1,0.2,0.1c0.6,1,0.8,2,1,3.4l-41.1-6.8c-2.8-0.4-6.4-1.3-9.2-1.3c0,0,0.1-0.1-0.2-0.1
			c-0.6,0-0.1,0-0.3,0.1l0.4,0.1c0.4,0,1.8,0.4,2,0.6l7.8,1.3c1.6,0.3,6.5,1.2,7.7,1.3c0.3,0.2,0.5,0.1,0.9,0.2l30.9,5.1
			c0.3,0,0.8,0.1,1,0.2c0.2,0.1,0.4,0.3,0.6,0.5c0.7,0.5,1.1,0.4,1.9,0.3l-0.3-6.9c-0.3-1-0.3,0.5-2.4-1.7c-0.3-0.3-0.5-0.4-0.7-0.7
			l-1.2-0.6c-3.2-0.6-6.6-1.2-9.8-1.7c-2.3-0.4-28-5.1-29.1-5.1c-0.3,0.7-0.2,0.7-0.9,1.1c-0.4,0.2-0.9,0.6-1.4,0.7
			c-0.3,0.4-3.7,2-3.8,2.3l0.9,0.1c0.4,0.2,1.1,0.2,1.7,0.2c1.5-0.1,3.8,0.4,5.3,0.7l35.4,5.4l0.1-0.8l0.4-2.3
			c1.4-0.3,3.7,2.3,3.7,2.3l0,3.6l-0.3-0.5C108.1,121.6,108,121.6,107.4,121.1L107.4,121.1z M202.2,102.4l0-0.3c0-0.3,0,0-0.2-0.1
			l0,0.2c-0.1,0.9-0.6,1.9-1.1,2.3c-2.2,1.9-12.5,0.5-15.4-0.1c-1.5-0.3-3-1-4.3-1.7l-0.4-0.2c-0.1-0.1-0.1-0.1-0.1-0.1
			c-0.7-0.2-2.4-1.7-2.9-2.2c-0.7-0.7-0.6-0.6-1.9-0.5c-0.8,0.1-1.5,0.1-2.3,0.2c-1.2,0.1-1.2-0.1-1.9,0.5c-1.2,1-1.6,1.3-3.1,2
			c-1,0.5-1,0.2-2,0.2c-0.3-0.2-1.7-0.2-2.1-0.2l-3.9-0.4l-1.2-0.2c-2.7-0.2-5.7-0.9-8.3-1.3c-2.6-0.5-4.8-1.5-6.7-2.7
			c-0.5-0.3-0.9-0.7-1.4-1c-0.7-0.5-1.9-1.7-2.4-2.3c-1.6-1.8-1.2-2.1-2.4-2.3c-0.8-0.2-1.3-0.1-2.1,0c-1.2,0.1-3.3,0.4-4.4,0.3
			c-0.4,0-0.9,0-1.2,0c-0.2,0-0.4,0-0.6,0.1l-0.5,0.1c-1.2-0.1-1.5,0.2-2.1,0.9c0.2,0.4,0.5,0.7,0.7,1.1c0.3,0.4,0.5,0.8,0.7,1.2
			c0.4,0.7,1.1,1.7,1.3,2.5c0.1,0.1,0.2,0.2,0.2,0.6c0.5,0.4,1.6,3.6,1.8,4.4l0,0.3c0.5,0.6,1.2,5,1.3,6.1c0.1,0.4,0.1,0.9,0.1,1.3
			c0.1,0.2,0.1,0.6,0.2,1c0.4-0.8,0.3-4.2,0.3-5.3c-0.1-1.8-0.4-3.3-0.8-4.9c0.1-0.3-0.1-0.1,0.2-0.1c0,0,0.3,0,0.4,0
			c0.9,0,8.7,1,9,1.2c0.7-0.1,6.6,0.8,7.9,1c1.3,0.2,2.6,0.3,3.9,0.5c1.2,0.2,2.7,0.4,3.9,0.5c0,0,0,0,0.3,0.1c0.2,0,0,0,0.3,0
			c0.2,0,0.4,0,0.6,0c2.1,0.1,4.8,0.6,7,0.9c2.3,0.3,4.9,0.3,7.1,0.6c1.9,0.1,3.7,0.3,5.5,0.4c1.3,0.1,1.4,0.3,2.4-0.3
			c1-0.7,1.3-0.9,2.2-0.5c0,0,0.1,0,0.1,0c0.4-0.1,0.6,0,1-0.1c0.1,0.1,0,0,0.2,0.1c0,0,0.1,0,0.2,0c0.1,0,0.3,0,0.4,0
			c0.2,0,0.4,0,0.7,0c0.6,0,1.2,0.1,1.7,0.1c0.2-0.1,5.8,0,6.6-0.1c1,0,5.8-0.4,6.2-0.3c0.4-0.6,0.7-0.4,1.1-1.4
			C202.2,103.8,202.3,103.1,202.2,102.4L202.2,102.4z M145.9,97.7l0.3,0.2c0.1,0.1-0.2,0.1,0.3,0.1l0-0.3l-0.1,0l0-0.1l-0.3-0.1
			l-1.1-0.9c-0.3-0.2-0.8-0.8-0.9-1.1c-0.3-0.1,0,0.1-0.2-0.1l-1-1c-0.4-0.3-0.9-0.7-1.4-0.9c-0.2-0.2,0.2-0.2-0.3-0.1
			c0.1,0.4,0,0.1,0.2,0.2C142.5,94.8,144.8,97.5,145.9,97.7L145.9,97.7z M125.3,126.5c0.1,0.1-0.1,0.1,0.2,0.1l0.1-0.6
			c0-1.1,0.6-3.7,0.7-4.9c0.2-1.2,0.4-3.2,2.1-3.7c-0.1,1.6-0.2,3.2-0.2,4.8c0,1.1,0,1.2-0.5,2.1c-0.6,1-2.7,4-3.9,3.3
			c-1.5-0.8-2.3-2.3-2.7-2.5l-1.2-2.5c0.4-0.5,1.8-1.5,1.9-1.8c0.7-0.4,2.5-2.2,3.1-2.4l0,1.9c0,0.7,0.1,1.7,0,2.4
			c0,0.6-0.2,0.5-0.3,1.1c0,0.3,0,0.8-0.1,1.1c0,0.7-0.1,1,0.3,1.5c0.3-0.4,0.4-4.1,0.4-4.9c0.1-0.9,0.1-1.7,0.2-2.6
			c0.1-1.2,0.1-1.2,0.7-2c0.5,0,0.3,0.1,0.7,0.2c0.2,0.2,0.2,0.1,0.2,0.3c-0.4,0.5-0.9,0.9-1,1.7c-0.2,0.7-0.2,1.8-0.3,2.5
			C125.6,122.3,125,126,125.3,126.5L125.3,126.5z M115.1,108.5c0-0.1,0,0,0.1-0.2c0-0.1,0-0.2,0-0.3c0-0.2,0-0.4,0.1-0.6
			c0.3-2.4,1.1-4.6,2.1-6.4c0.7-1.4,2.7-4,4.6-4c0.4,0,0.7-0.2,1,0.1c-2.1,0.4-3.8,3-4.7,4.9c-2.9,6.2-2.8,17.8,1.4,23.4l0.3,0.3
			l0.7,0.8c1.5,1.4,1.9,1.1,2.5,1.5c-3.1,0.3-4.6-2.6-5.1-2.9c-0.1-0.3-0.6-1.2-0.8-1.6c-0.3-0.5-0.5-1.2-0.8-1.8
			c-0.9-2.5-1.5-5.9-1.5-8.6C114.9,111.2,115.1,109.4,115.1,108.5z M86,85.1l-0.1,0.3c-0.2-1.6-3.2-1.2-4.4-1.5
			c0.2-0.2,0.4-0.3,0.7-0.3c0.5,0,0.4,0.1,0.8-0.2c0.4-0.4,0.6-0.7,1.4-0.5c0.7,0.1,0.7,0.4,1,1C85.7,84.3,86,84.5,86,85.1z
			 M43.4,122.7l-1-0.2c-0.3-0.2-0.2-0.1-0.6-0.1c-0.1-0.2,0.3-0.2-0.5-0.2c-0.3,0-0.1,0-0.3,0.1l0.8,0.2l0.6,0.1l1,0.2
			c1.2,0.1,2.8,0.6,4,0.8c9.6,2.1,17.9,3.9,27.8,5.7l24.2,4.5c1.3,0.2,2.7,0.5,4.1,0.7c1.2,0.2,2.8,0.4,3.9,0.7
			c0.7,0.1,3.2,0.4,3.6,0.7c0.4,0,4.7,0.7,5.2,0.9l2.7,0.5c0.6-0.1,4.7,0.7,5.7,0.9c2.1,0.3,3.9,0.5,6.1,0.5
			c7.6,0.1,18.1-0.3,25.7-0.8c1.6-0.1,11.8-0.8,12.5-0.6c0.4-0.2,1.4-0.2,2-0.2c0.7,0,1.5-0.1,2.2-0.1c1.4-0.1,2.9-0.2,4.3-0.3
			c1.3-0.2,3-0.2,4.3-0.3c1.5-0.1,2.9-0.2,4.4-0.3c1.4-0.1,8.1-0.8,8.8-0.6c0,0,0.1-0.1,0.1,0c0,0,0.1,0,0.1,0c0,0,0.1,0,0.1,0
			c0,0,0.1,0,0.1,0l3.4-0.3c2.3-0.3,5.3-0.4,7.6-0.6c2.5-0.2,5.1-0.5,7.6-0.8c4.9-0.5,10-1,14.9-1.6c0.4,0,0.6,0,1-0.1
			c0.1,0,0.3,0,0.4,0l0.3-0.1c-0.5,0-0.8-0.1-1.2,0.1c-2.9,0-6.2,0.3-9.2,0.5c-3,0.2-6,0.3-9,0.5c-11.9,0.8-24,1.7-35.9,2.5
			c-6,0.4-12,0.7-18,1.1c-6.2,0.4-21.7,1.1-28,0.8c-5.2-0.3-19.3-3-24.7-4c-2.7-0.5-5.4-1-8.1-1.5c-1.7-0.3-6.7-1.2-8-1.5
			c-0.8-0.1-5.3-0.8-5.7-1.1c-0.8,0.1-8.3-1.5-9.8-1.8c-3.2-0.6-6.5-1.3-9.8-1.8C56.7,124.8,50,123.6,43.4,122.7L43.4,122.7z
			 M106.3,89.2c-0.2-0.5,0-1.1-0.1-1.7c-0.2-1,0.6-3.7,1-4.5c0.6-1.3,2.2-2.9,2-3.4c-0.4-0.1-11.2-0.5-11.7-0.4l-13.2-0.4
			c-0.4,3.2-0.9,2-2.4,3.5C81,83.1,80.3,84.4,80,86l-0.6,0l0-0.3c0.3-1.8,1.4-3.5,2.6-4.4c0.3-0.2,0.5-0.3,0.8-0.6
			c0.5-0.3,0.7-1.5,0.7-2l-8.8-0.2l-4.2-0.2l-5.5-0.1c-0.6-0.2-1.6-0.1-2.2,0l0.1-1.3c0-0.6,0.1-1.2,0.2-1.8l0.4-1.2
			c0.2-1,1-2.1,1.1-2.9c0.2-0.2,0.5-0.6,0.8-0.8c1.1-1,0.4,0.4,1.7-1.5c0.7-0.9,1.4-1.7,2.3-2.4l0.9-0.8c0.3-0.3,0.6-0.4,0.9-0.7
			c2.2-1.7,3.5-2.5,5.8-3.8c0.5-0.3,1.9-0.9,2.1-1.1l4.7-1.6c1.6-0.5,3.4-0.9,5.1-1.1c2-0.2,3.9-0.4,6-0.3c1.2,0.1,4.4,0.5,5,1.2
			c0.3,0,0.1,0,0.3,0.1c0.4,0.2,0.1,0.1,0.2,0.1c0.7,0.2,1.4,1,1.7,1.4c0.8,0.9,2.1,5,2.5,6.2c0.6,1.6,2.8,7.5,3.1,8.7
			c0.4,0.5,0.2,0.9,0.7,1.5c0.9,1.1,1,2,1.3,3.2c0.2,0.8,0,0.8-0.4,1.4c-0.3,0.5-0.6,0.9-0.9,1.4c-1,1.3-1.7,3.5-1.6,5.1
			c-0.1,0.2-0.1,0.1-0.1,0.5c0,0.2,0,0.4,0,0.6c0,0.3,0,0.8-0.2,1L106.3,89.2L106.3,89.2z M146.3,91.9c0.1-0.2,0-0.2,0.8-0.2l2.6,0
			c1.4,0,3.2,0.3,4.6,0.5c1.4,0.2,2.9,0.6,4.2,0.8l-0.1,0.1c-1.4,0.1-4.4-0.5-5.9-0.7C150.8,92.2,147.6,91.8,146.3,91.9L146.3,91.9z
			 M200.4,92.4l-1-1c0,0,0,0-0.1-0.1l0.1-0.3c0.3,0.1,1.1,0.8,1.3,1.1L200.4,92.4L200.4,92.4z M176.1,75.8c0.3,0.1,0.4,0.2,0.6,0.5
			l-15-0.1c-0.2-0.1-17-0.4-17.7-0.2l-9.2,0c-5.2,0-10.3-0.1-15.5-0.1c-1.9,0-5.9-0.8-4.1,3c0.9,1.9,2.7,2.2,5.2,2.5
			c9,0.8,17.8,2.4,25.6,5.3c1.7,0.6,3.8,1.6,5.2,2.5c1.2,0.8,1.5,1.2,2.5,1.4c1.1,0.2,2.2,0.4,3.2,0.6c4.1,0.8,2.7,0.7,6.8,0.2
			c7.2-0.9,13.9-1.4,21.2-1.9c2.5-0.2,5-0.2,7.5-0.3c1.2,0,2.5-0.1,3.8-0.1c1,0,3,0.1,3.8,0c0.3,0.1,4.6,0.3,4.6,0.3
			c2.1-0.2,11.7,0.9,14.2,1.4l4.1,1.1c0.2-0.5,0.6-0.9,0.8-1.4c-0.2-0.3-0.7-0.5-1-0.6c-0.4-0.2-0.6-0.3-1-0.5
			c-0.5-0.3-1.6-0.8-1.9-1.2c-0.5,0-1.2-0.6-1.6-0.8c-0.5-0.3-1-0.6-1.5-0.9c-1-0.6-2-1.1-3-1.7c-0.7-0.4-1.3-0.7-1.9-1.1
			c-0.4-0.2-1.7-0.7-1.9-1c-0.5-0.1-1.4-0.5-1.9-0.7c-0.6-0.2-1.2-0.4-1.9-0.7c-4.2-1.4-8.7-1.7-13.1-2.2c-2.2-0.3-7.2-0.8-9.1-1.1
			c-0.6-0.1-1.4-0.4-2-0.6c-0.7-0.2-1.4-0.3-2.1-0.4c-2.8-0.4-1.1-0.1-3.7-1.2l-0.2-0.2c-0.2,0.1-0.2-0.1-0.1,0.2l0.2,0.1
			L176.1,75.8L176.1,75.8z M130.2,117.7l0.1-0.4c0-0.2,0-0.3,0-0.5c0-0.6,0.2-1.8,0.2-2.5c0.1-0.9,0.1-1.9,0-2.8
			c0-1.3-0.1-2.4-0.3-3.6c-0.1-0.8-0.6-2.6-0.5-3.2c-0.3-0.4-0.7-2-0.9-2.6c-0.3-0.9-0.8-1.6-1.1-2.4l-0.1-0.3
			c-0.4-0.3-0.7-0.9-1-1.3c-0.4-0.5-0.6-0.9-1.1-1.1c-0.1-0.3-0.9-0.8-1.1-0.9c-0.4-0.2-1.2-0.4-1.4-0.6c-1.1,0.1-1.4-0.1-2.5,0.3
			c-2.5,0.9-3.7,3.6-4.1,4c-0.2,0.5-0.4,0.8-0.6,1.3c-0.2,0.4-0.4,0.9-0.5,1.3c-0.3,0.9-0.7,1.8-0.8,2.8l-0.4,1.6
			c-0.3,2.4-0.5,4.2-0.5,6.8c0.1,1.1,0.1,2.1,0.3,3.1c0.1,0.7,0.5,2.5,0.5,3c0.2,0.3,0.5,1.7,0.7,2.2c0.2,0.7,0.7,1.5,0.9,2.2l0,0.2
			c0.3,0.3,0.5,0.7,0.7,1.1l0.2,0.3c0.3,0.8,1,1.3,1.3,1.9c0.3,0.1,0.3,0.2,0.6,0.5c2.5,2.1,4.3,1,5.4,0.9c0.3-0.3,0.7-0.4,1-0.7
			c0.4-0.3,0.6-0.6,1-0.8c0-0.2-0.1-0.1,0.1-0.1c0.2-0.4,0.5-0.7,0.8-1.1c0.3-0.4,0.4-0.8,0.8-1.1c0-0.3,1-2.2,1.3-2.9
			c0.2-0.7,0.7-2.6,0.9-3.1L130.2,117.7L130.2,117.7z M80.9,108.3c-0.2-0.2-0.1-0.1-0.5-0.2l0,0.9c-0.3,0.4-0.2,0.4-0.2,1l24.8,4
			l0.2,0.1c0.1-0.2,0.1,0,0-0.3c0-0.5,0,0-0.1-0.2c0-0.6-0.1-1.2-0.5-1.6c-0.4-0.4-1.1-0.3-1.6-0.4
			C103.1,111.6,80.9,108.3,80.9,108.3z M90.6,60c0,0.5-0.7,1.6-0.8,2.2c1.5,0,3.4-0.2,5.1-0.2c1.5,0,3.5,0,5,0.2
			c0.9,0.7,1.2,1.1,1.8,2.3l1.2,3l1,1.5c0.1,0.3,0,0.1,0.2,0.3c0.1-0.4-0.1-0.3-0.2-0.4c-0.1-0.4-0.3-0.9-0.5-1.3
			c-0.9-2.7-1-3.8-3-6l-1.5-1.2c-0.3-0.2-0.3-0.1-0.5-0.4l-0.3-0.1c-2-0.5-5-1.1-7-0.7C90.8,59.5,90.8,59.7,90.6,60z M100.9,70.5
			c-0.7,1-1,0.6-0.2,3.5c-0.6,0-2.1,0.2-2.5,0c-0.5-0.6,0.2-1.2,0.5-1.6c0.3-0.3,0.7-0.6,0.9-1c0.2-0.4,0.1-0.2,0-0.3
			c-0.8-0.4-4.2-0.1-5.2,0c-1.3,0.4-2.4,0.4-3.6,1c-0.6,0.2-2.3,2-2.4,2.3l0.4,0l8,0.2l0.9,0.6c0.9,0.2,3.1,0,4-0.1
			c-0.1-0.3-1.3-3-0.6-3.6c0.1-0.7,0.9-0.5,1.5-1c0.2-0.2,0.1,0.2,0.2-0.2c-0.4,0.1-0.1,0-0.3,0.2C102,70.4,101.3,70.5,100.9,70.5
			L100.9,70.5z M131.7,75.5l-1.2-1.3c-0.1-0.2-0.1,0-0.1-0.2c-0.2-0.1,0,0-0.3-0.2l-2.8-3.2l-0.4-0.4l-4.6-5.2c-0.2,0,0,0.1-0.3-0.2
			c-0.2-0.2-0.2-0.2-0.2-0.4c-0.6-0.4-0.8-0.9-1.3-1.4c-0.3-0.3-0.5-0.6-0.8-0.9c-0.3-0.3-0.6-0.6-0.8-1c-0.4-0.2-0.8-0.8-1.3-1.3
			c-1.7-1.8-0.3-1.4-4.4-1.2c0.1,0.4,0.6,0.8,0.9,1.2l2.1,2.3c0.2,0.2,0.3,0.3,0.5,0.6c0.2,0.2,0.3,0.3,0.5,0.6
			c1.4,1.6,2.7,3.1,4.2,4.7l2.1,2.4c0.4,0.4,0.7,0.8,1.1,1.2l3.1,3.5c0.5,0.6,0.7,0.5,1.7,0.5C130.2,75.5,130.9,75.5,131.7,75.5
			L131.7,75.5z M170.7,75.9l4.8,0c-0.3-0.5-1.2-1.3-1.6-1.6l-1.7-1.5c-0.2-0.1-1.3-1-1.7-1.3c-0.3-0.3-1.5-1.1-1.6-1.3
			c-0.4-0.1-1.3-0.9-1.7-1.2c-0.4-0.3-1.3-0.8-1.6-1.2c-0.2,0-0.1,0-0.3-0.1c-0.1,0-0.2-0.1-0.2-0.2c-0.2-0.1-0.3-0.2-0.5-0.3
			l-2.8-1.8c-0.5-0.3-0.6-0.3-0.8-0.6c-0.3,0-0.3-0.1-0.4-0.2c-0.2-0.1-3.2-1.7-3.5-2.1c-0.8-0.1-1.9-1.4-2.7-1.8
			c-0.4-0.3-0.2-0.1-0.8-0.1c-0.6,0-1.1-0.2-1.7-0.1c1.6,1.6,2.8,2.7,4.3,4.2c0.8,0.8,1.4,1.4,2.2,2.2l8.7,8.5
			c0.6,0.6,0.5,0.5,1.6,0.5C169.3,75.8,170.1,75.8,170.7,75.9z M120.3,114.6c-0.3,0.1-0.8,0.6-1,0.8c-0.2,0.2-0.3,0.3-0.5,0.4
			c-0.6,0.5-0.7,0.9-0.7-2.4l0-2.9l0.4-3.7l0.3,0.1c0.2,0.4,0.6,0.8,0.9,1.1c0.3,0.4,0.5,0.6,0.8,1c0.5,0.6,1.3,1.4,1.6,2.1
			c0,0,0,0,0,0c0.3,0.2,0.5,0.5,0.5,0.8c0,0.5-0.3,0.6-0.6,0.9c-0.3,0.3-1.2,1.3-1.6,1.4c0,0-0.1,0.2-0.1,0.2
			C120.4,114.4,120.4,114.5,120.3,114.6C120.4,114.5,120.4,114.6,120.3,114.6L120.3,114.6z M118.9,106.2
			C118.9,106.2,118.9,106.1,118.9,106.2c0-0.1,0-0.2,0-0.2c0-0.1,0-0.1,0-0.3c0,0,0.1-0.1,0.1-0.1c0,0,0.1,0,0.1,0c0,0,0,0,0.1,0
			l1.3,1.4c0.4,0.5,0.8,0.9,1.2,1.4l1.8,2.1c0.4,0.3,0.7,0,1,0.3c-0.2,0.3,0,0.2-0.5,0.2c0,0-0.6,0-0.6,0c-0.4-0.1-0.5-0.3-0.7-0.6
			l-2.4-2.8c-0.3-0.3-0.4-0.4-0.6-0.7L118.9,106.2L118.9,106.2z M119,105.2c0.2-1.1,0.9-2.8,1.3-3.8c0,0,0.1-0.1,0.1-0.1
			c0.4-0.1-0.4,0,0.2,0c0.1,0.1,0.1,0.1,0.2,0.2c0.2,0.2,0.1,0.1,0.2,0.1l0.4,0.6c0.1,0,0-0.1,0.2,0.1l1.2,1.4
			c0.2,0.2,1.3,1.3,1.3,1.5l1,1.1c0.8,1.4,0.4,0.6,0.9,1.2c-0.6,0.7-1.1,1.1-1.4,2.3c-1.1,0-1,0.1-1.6-0.6c-0.2-0.2-0.3-0.3-0.5-0.5
			c-0.3-0.2-0.3-0.2-0.4-0.5c-0.2,0,0,0-0.2-0.1l-0.4-0.3c-0.2-0.2-0.3-0.3-0.4-0.5c-0.2-0.2-0.3-0.3-0.5-0.5l-0.4-0.5
			C119.8,106,119.6,105.4,119,105.2L119,105.2z M121.2,101.4l-0.5-0.6c0.5-1,1.7-2.4,2.7-3.1c0.9-0.6,0.6-0.3,1.3-0.2
			c0.4,0.4,1,0.6,1.2,1.1l-0.3,0.4l-0.1,7c-0.4-0.1-2.5-2.6-2.6-2.9c-0.3-0.1-1-1-1.3-1.3c-0.1-0.1-0.1-0.2-0.2-0.2
			C121.3,101.4,121.5,101.5,121.2,101.4L121.2,101.4z M103.3,56c0.3,0.1,1.9,0.9,2.2,1.1c0.7,0.5,1.1,0.8,1.5,1.7
			c1.2,0.1,3.8-0.4,5.2-0.5c1.9-0.1,3.7-0.2,5.6-0.3c12-0.4,23.8,0.9,35.5,2.1l0-0.2c-0.3-0.1-0.9-0.4-1.3-0.5
			c-0.4-0.2-0.9-0.3-1.4-0.4c-0.6-0.2-2.7-0.5-3-0.7l-0.2-0.4l-5.3-1.1c-1.9-0.3-3.7-0.6-5.6-0.8c-3.9-0.4-7.8-0.9-11.8-1.1
			c-8.3-0.5-16.4-0.9-24.6,0.1C101.1,55.5,102.7,55.4,103.3,56z M106.4,59.4c0.4,1.2,2.6,6.1,3.3,7.6c0.4,1,3,7.2,3.4,7.5
			c0.7,0.4,2,0.2,2.7,0.6c0.5,0.3-0.1,0.3,1.3,0.3l8.5,0.1c-0.2-0.5-3.6-4.2-4.2-4.9c-1.6-1.8-4.5-4.9-5.8-6.5l-3.8-4.2
			c-0.3-0.4-0.6-1-1.3-1C109.8,58.9,106.8,59.3,106.4,59.4L106.4,59.4z M188.5,89.8l-7,0.3c-0.4,0-1,0-1.3,0c-0.3,0-1,0.1-1.3,0.2
			c-1.2-0.1-3.6,0.2-4.8,0.3c-1.4,0.1-3.6,0.5-4.8,0.4c-0.3,0-0.6,0.1-1,0.1c-0.3,0-0.5,0-0.9,0.2l-5.6,0.6l-0.6,0.1
			c0,0.4,0,0.2,0.2,0.3l5,0.9c0.1,0.1,0,0,0.2,0.1c0.1,0,0.2,0,0.3,0.1c0.2,0,0.4,0.1,0.5,0.1l1.3,0.2l0.8,0.2
			c1.1,0.1,2.4,0.4,3.5,0.6c1.8,0.3,2.4-0.1,3.2,1l3.8-0.3c0.2-0.1,0.4-0.4,0.9-0.7c0.4-0.2,0.8-0.3,1.2-0.4
			c3.8-0.8,11.7-0.4,15.5,0c0.9,0.1,2,0.2,2.8,0.5c0.6,0.3,1.5,1,1.5,1.7l1,1.6c0.5,0.8,0.5,0.8,0.5,2c0,0.6,0,3.7,0.2,4.2l0.3,0.5
			c0.1,0,0,0,0.1,0.1c0.1,0.1,0,0,0.1,0.2c0.4,0.1,0.6,0.3,1,0.5c0.3,0.1,0.9,0.2,1.1,0.4c0.7,0,1.3,0.1,2,0.2c0.7,0,1.4,0,2.1,0
			c1.1,0,3.3-0.2,4.2-0.1c0.6-0.3,2.7,0.2,4.1-0.6c0.5-0.3,1-0.8,1.2-1.2c0.2-0.3,0.7-1.3,0.9-1.5l0.1-0.6c0.1-1.1,0-1.5,0-2.5
			c-0.1-0.1,0.2-0.1-0.3-0.2c-0.2,0-0.3,0-0.5,0l-1-0.1c0.1,1.4-1,3.5-2,4.1c-2.4,1.4-7.5,2.2-10.4,1.8c-2.4-0.3-2.8-0.9-2.7-3.4
			c0.2-6.9-0.8-7.7,4.4-7.8c1.3,0,8.1-0.2,9.1,0c1.2,0.3,1.3,0.8,2,1c0,0,0.1,0,0.1,0l0.5-0.2c1.1-0.4,2.4-1.3,2.5-2.6l-2.6-0.6
			c-0.2-0.1,0.2,0-0.2-0.1c0,0-0.1,0-0.2,0c-0.2,0-0.3,0-0.5-0.1c-1,0-2.1-0.3-3.1-0.4c-1.1-0.1-2.1-0.3-3.2-0.4
			c-1.9-0.2-4.6-0.5-6.5-0.5c-0.5-0.2-2.4-0.2-3.1-0.2l-3.4-0.1c-0.2-0.1-0.3-0.1-0.7-0.1C197.9,89.6,189.1,89.6,188.5,89.8
			L188.5,89.8z M67.6,93.7c0.2,0.2,0.4,0.7,0.5,0.9c0.1,0.3,0.3,0.6,0.4,0.9c0.2,0.7,0.5,1.3,0.8,2c0.4,1.1,1.3,2.9,1.5,3.9
			c0.1,0.1,0.2,0.4,0.3,0.7l0.4,0.7c0.1,0.2,0.2,0.5,0.3,0.7c0.5,1.2,0.8,2.5,1.7,3.5c0.2,0.3,0.4,0.3,0.6,0.6
			c-0.9,0.1-1.6,0.1-2.4-0.1c-0.6-0.2-1.5-0.5-1.7-1c-0.4-0.1-0.8-0.7-0.8-1.2c-0.3-0.3-1.5-4.1-1.6-4.8l-0.1-0.3
			c-0.3-0.3-1.9-5.4-2.1-6.2C65,93.8,65,93.6,65,93.4l-0.9-2.7c0.3,0.1,0.7,0.5,1,0.7C66.5,92.4,67.6,92.6,67.6,93.7z M188.9,125.8
			c-1.4,0-2.9-0.2-4.3-0.3c-1.1-0.1-3.1-0.1-4.1-0.4c0.1-0.5,2.2-4.2,2.5-4.5c0.1-0.6,2-3.3,2.6-3.8c2.9-2.7,3.4-2.4,8-2.5
			c1.9,0,16-0.5,16.6-0.3c0.3-0.1,0.4-0.1,0.8-0.1c1.2,0,1.7-0.2,2.3,0.2c2,1.5,3.1,4.2,3.7,6.8c0.2,0,0.2,0.1,0.5,0.5l1.5,1.9
			c0,0,0,0,0,0.1c-0.6,0.4-5.6,1.7-6.6,1.8C204.9,126.4,196.8,126,188.9,125.8L188.9,125.8z M180.3,118.7c-0.3-0.1-2.2-1.6-2.5-2
			c0.2-0.2,0.7-0.4,1-0.5c0.1,0.1,0.1,0.1,0.2,0.2l0.7,1C179.9,117.8,180.3,118.4,180.3,118.7L180.3,118.7L180.3,118.7z
			 M159.3,125.7c-1.4-0.5-2.2-2.5-2.6-4.3c-0.2-0.5-2.1-8.6-2.1-9.3c0.9-0.3,5.3-0.1,6.5,0c3.4,0.2,13.8,1.2,15.7,4.1
			c-0.2,0.4-0.9,0.9-1.3,1.3c-1,1-2.5,3.5-2.9,4.9l4.9,1.3c-0.5,0.7-2.5,1.5-3.6,1.8c-1.9,0.6-2.5,0.7-4.6,0.6c-1.7,0-3.5,0-5.2-0.1
			C163.1,126.1,159.8,126.3,159.3,125.7L159.3,125.7z M107.3,89.4c0.9-0.2,2.3,1.2,2.7,1.6c0.7,0.7,1.5,1.5,1.8,2.8
			c0.3,0.3-0.7,2.2-0.9,2.6c-0.3,0.8-0.7,2.1-1.1,2.8c-0.3-0.1-1.3-0.6-1.4-0.9c-0.5-0.2-1.8-1-2.3-1.3l0.5-7l0.1-0.7
			C106.7,89.3,107.3,89.4,107.3,89.4z M115.6,92.8c-0.1,0.2,0,0.2-0.3,0.4l0.3-0.6C115.5,92.6,115.6,92.8,115.6,92.8z M51.9,95.2
			l0.4,0.7c-1.2,0.1-1.5,0.4-2.1,1c-0.5,0.5-1,1.2-1.2,2c-0.5,0.3-1.3,4.1-1.4,5c-0.2,2-0.4,4-0.2,6c0.2,2.4,0.8,5.6,2.1,7.6
			c1,1.4,1.5,1.2,1.5,1.6c-1,0.4-2.2-1.1-2.5-1.6c-0.5-0.9-0.9-1.9-1.2-3c-0.6-2.1-0.8-5.3-0.6-7.7C46.8,103.6,47.7,95.3,51.9,95.2
			L51.9,95.2z M50.2,99c0.5-0.5,1-2.3,2.4-2.9c0.2,0.7,0.6,1.4,0.9,2.3c0.6,2.1,0.8,3.7,0.9,6c0.1,1.1,0.1,5.7-0.4,6.4
			c0.1,0.7-0.7,4.3-1.1,4.8c-0.1,0.6-0.3,1-0.6,1.5l-0.5,1c-0.2,0.3-0.1,0.1-0.3,0.3c-0.4-0.8-1.2-1.4-1.7-3.1
			c-0.8-1.6-1.1-5.4-1.1-7.5c0-1.9,0.4-6.1,1.1-7.5C49.9,99.8,50.2,99.4,50.2,99L50.2,99z M54,98.5c-0.2-1.2-1.1-3.3-2-3.7
			c0-0.2-0.1-0.2-0.6-0.5c-0.3-0.1-0.6-0.2-1-0.2c-1.5,0.1-2.5,2.1-3.1,3.4c-1.8,4.2-2.2,10.9-1.5,15.4c0.2,1.3,0.4,2.5,0.8,3.6
			c0.7,2.1,1.1,2,1.5,2.9l0.3,0.2c0.8,0.6,1.2,0.7,2.3,0.3c0.2-0.1,0.1-0.1,0.3-0.1c0.2-0.3,0.4-0.5,0.7-0.7
			c0.3-0.3,0.4-0.5,0.6-0.8c0.4-0.6,0.6-1.1,0.9-1.8c0.7-1.6,1-3.9,1.3-4.3c-0.1-0.4,0-0.6,0.1-1c0.1-0.6,0.2-1.1,0.2-1.7
			c0-0.4,0-1.2,0.2-1.5l-0.1-4C54.8,102.8,54.5,99.3,54,98.5z M156.9,99l-0.4,0.3c-0.2,0-0.1,0-0.1-0.1c1.1-1.1,1.5-3.5,0.3-4.9
			c-0.1-0.2,0-0.1,0.3-0.1C158.4,95.6,158.4,97.7,156.9,99L156.9,99z M156.3,94.5c0.3,0.8,0.7,1.1,0.7,2.3c0,0.7-0.4,1.7-0.9,2
			c-0.1,0.4-1.2,1.5-2.7,0.9l-0.6-0.4c-0.1-0.1-0.1-0.1-0.1-0.2c-0.7-0.3-1.3-1.5-1.2-2.6c0-0.6,0.2-1.1,0.4-1.5
			c0.3-0.5,0.6-0.6,0.8-1c0.8-0.2,1-0.1,1.9,0c0.3,0,0.7,0,1,0.1C156.1,94.2,155.9,94.3,156.3,94.5z M163.1,100.8
			c-1-0.2-1.9-1.4-2.1-2.6c-0.3-1.7,0.5-2.6,1.1-3.4l0.8,0.1c-0.1,0.3-0.4,0.5-0.7,1.3C161.3,98.3,162.4,99.7,163.1,100.8z
			 M167.6,99.7c-0.4,0.3-0.3,0.5-0.7,0.8c-0.3,0.2-0.6,0.4-1,0.5c-0.2,0-0.4,0.1-0.4-0.1c0.4-0.2,0.3-0.1,0.5-0.4
			c0.6-0.2,1.1-1.5,1.2-2c0.2-1,0-2.1-0.4-2.8c0-0.3,0.1-0.2,0.4-0.1c0.4,0.3,0.7,1.2,0.8,1.9C168.1,98.6,167.6,98.9,167.6,99.7
			L167.6,99.7z M165.9,100.3c-0.7,0.3-1.1,1-1.9,0.3c-1.5-1-1.8-3.3-0.8-4.9c0.3-0.4,0.4-0.4,0.7-0.8l0.5,0c1.3,0.3,2.1-0.3,2.6,1.9
			C167.2,98.8,166.2,99.6,165.9,100.3z M223.3,98.5c-0.7-0.5-1.1-2.7-0.6-3.6C223.4,95.5,224,97.6,223.3,98.5z M223.4,94.7
			c0.7-0.1,1.7-0.5,2.2-0.8c1.5,1.5,0.8,5.8-1.6,5.1c-0.1-0.7,0.7-2.1-0.3-3.9L223.4,94.7L223.4,94.7z M224.4,92.1
			c0.3,0,0.4,0,0.8,0.1c0.1,0,0.2,0.1,0.3,0.1c0,0,0.1,0.1,0.1,0.1l0.1,0.1c-1.5,1.3-3.4,1.8-4.3,2.4c-0.4,0.3-0.9,0.5-1.6,0.7
			l-0.4,0.2c0,0.8,0.1,2.3-0.1,3c0.2-0.1,0.2,0,0.4-0.3l0.3-0.6c-0.1-0.3,0-0.5,0.2-0.7c0.2-0.4,0.6-1.4,1-1.6c0,0,0.3-0.1,0.3-0.1
			c0.4-0.1-0.5,0,0.2,0l0.2,1.5c0.1,0.5,0.4,1.1,0.2,1.6c-0.1,0.6-0.6,1.1-0.5,1.4c0.3,0,0.3-0.2,0.5-0.6l0.4-0.7
			c0.3,0.3,0.4,0.3,0.5,0.7l-1.1,1c0.1,0.2,0.1,0.2,0.2,0.4c0.6-0.1,0.8-0.4,1.2-0.6l0.3-0.5c0.4,0,0.5,0.1,0.9,0.1
			c0.4,0,0.6-0.1,0.9-0.1c0.6-0.7,2.3-1.3,1.4-5.1c0,0-0.5-0.9-0.6-1c0.5-0.7,0.5-1.3-0.5-1.6c-0.7-0.1-1.2-0.4-1.9-0.1
			c-0.2,0.1-0.1,0-0.2,0.3L224.4,92.1z M130,116.8c0.1,1.1-0.9,4.8-1.5,5.6c-0.1-1.1,0.1-2.8,0.1-4c0-0.7-0.1-1.4,0.3-1.7
			c0.4-0.3,0.9-0.6,1-1.1c0.2,0.2,0.1-0.1,0.1,0.2c0,0,0,0.3,0,0.3C130,116.4,130,116.6,130,116.8L130,116.8z M128.9,109.2
			c0.3,0.5,0.7,0.3,1.3,0.4c0.1,0.5,0.3,4.3,0,4.8c0,0.2,0,0.1-0.2,0.3l-0.7,0.5c-0.5,0.2-1,0.1-1.4-0.2c-0.5-0.3-1.1-1.2-1.1-2.1
			c-0.4-0.6-0.1-1.9,0.2-2.5c0.3-0.6,0.7-1.4,1.5-1.5l0.3,0C128.7,109.4,128.8,109.1,128.9,109.2z M129.9,109.3
			c-1,0-0.7-0.1-0.8-0.3C129.4,108.8,129.7,109,129.9,109.3z M126.2,107.1l-0.1-8.3c0.4,0.1,0.1-0.1,0.4,0.2c0.3,0.3,0.2,1,0.2,1.5
			l0.1,4.5c0,1,0.2,1.2,0.3,2l-0.5,0.2C126.2,107.2,126.4,107.2,126.2,107.1L126.2,107.1z M128.9,107.2c-1.9-0.4-1.6-2-1.7-3
			c-0.1-1.5-0.2-3-0.2-4.4c0.5,0.4,1.4,2.2,1.7,3.1C129.2,104.2,128.9,105.6,128.9,107.2z M153.4,60l0,0.2L153.4,60z"/>
	</g>
</g>
</svg>
