<?xml version="1.0" encoding="UTF-8"?>
<!DOCTYPE svg PUBLIC "-//W3C//DTD SVG 1.1//EN" "http://www.w3.org/Graphics/SVG/1.1/DTD/svg11.dtd">
<!-- Creator: CorelDRAW 2021 (64-Bit) -->
<svg xmlns="http://www.w3.org/2000/svg" xml:space="preserve" width="84mm" height="53mm" version="1.1" style="shape-rendering:geometricPrecision; text-rendering:geometricPrecision; image-rendering:optimizeQuality; fill-rule:evenodd; clip-rule:evenodd"
viewBox="0 0 8400 5300"
 xmlns:xlink="http://www.w3.org/1999/xlink"
 xmlns:xodm="http://www.corel.com/coreldraw/odm/2003">
 <defs>
  <style type="text/css">
   <![CDATA[
    .fil0 {fill:black;fill-rule:nonzero}
    .fil3 {fill:white;fill-rule:nonzero}
    .fil1 {fill:black;fill-rule:nonzero;fill-opacity:0.200000}
    .fil2 {fill:black;fill-rule:nonzero;fill-opacity:0.501961}
   ]]>
  </style>
 </defs>
 <g id="Слой_x0020_1">
  <metadata id="CorelCorpID_0Corel-Layer"/>
  <g id="_2839925133712">
   <g>
    <g>
     <g>
      <path class="fil0" d="M6597 701l-18 -4 -56 -11c0,0 4,0 4,-4 4,0 4,-4 4,-4 7,-4 11,-7 14,-11 14,-18 14,-21 11,-25 32,14 42,39 42,53 0,0 0,4 0,4z"/>
      <path class="fil0" d="M6742 726l-18 -7 -64 -11 -56 -11c0,0 0,-4 0,-4 -4,-14 -11,-42 -49,-60 0,0 0,0 0,0 0,0 0,0 -4,0 0,0 0,0 0,0 0,0 0,0 -4,0 -4,0 0,0 -4,0 -39,-4 -64,11 -78,25 -7,7 -11,14 -14,14 0,0 0,0 0,0l-46 -7c-4,0 -4,0 -7,0l-21 -4c7,-11 18,-18 25,-28 53,-49 102,-64 138,-67l0 0c14,0 25,-4 35,-4 92,0 159,148 159,148l7 14z"/>
      <path class="fil0" d="M5363 673l0 0c-141,0 -452,11 -452,11 0,0 4,39 11,67 7,28 32,25 32,25 46,0 240,-4 409,-4l4 0c169,0 363,7 409,4 0,0 21,4 28,-25 7,-28 11,-67 11,-67 0,0 -310,-11 -452,-11zm-279 81c-18,0 -32,-14 -32,-32 0,-18 14,-32 32,-32 18,0 32,14 32,32 0,18 -14,32 -32,32zm134 0c-18,0 -32,-14 -32,-32 0,-18 14,-32 32,-32 18,0 32,14 32,32 0,18 -14,32 -32,32zm289 0c-18,0 -32,-14 -32,-32 0,-18 14,-32 32,-32 18,0 32,14 32,32 0,18 -14,32 -32,32zm134 0c-18,0 -32,-14 -32,-32 0,-18 14,-32 32,-32 18,0 32,14 32,32 0,18 -14,32 -32,32z"/>
      <path class="fil0" d="M5539 722c0,18 -14,32 -32,32 -18,0 -32,-14 -32,-32 0,-18 14,-32 32,-32 18,0 32,14 32,32z"/>
      <path class="fil0" d="M5673 722c0,18 -14,32 -32,32 -18,0 -32,-14 -32,-32 0,-18 14,-32 32,-32 18,0 32,14 32,32z"/>
      <path class="fil0" d="M6890 913c-14,-4 -28,-11 -46,-14 -18,-4 -35,-7 -53,-14 -7,-4 -18,-4 -25,-4 -11,-4 -18,-4 -28,-7 -39,-7 -85,-14 -127,-21 -11,0 -21,-4 -35,-4 -14,-4 -28,-4 -42,-4 -21,-4 -42,-4 -67,-7 -11,0 -25,-4 -39,-4 -14,0 -25,-4 -39,-4 0,0 -4,0 -4,0 -11,0 -18,0 -28,-4l0 0c-4,0 -4,0 -7,0 0,0 0,0 -4,0 -4,0 -7,0 -11,0 0,0 0,0 0,0 0,0 0,0 0,0 0,4 0,7 0,11l4 0c0,0 0,0 4,0 4,0 4,0 7,0l0 0c11,0 18,0 28,4 0,0 4,0 4,0 14,0 25,4 39,4 14,0 25,4 39,4 21,4 42,4 64,7 14,0 28,4 42,4 11,0 25,4 35,4 46,7 88,14 127,18 11,4 21,4 28,7 11,0 18,4 25,4 18,4 35,7 53,14 18,4 32,7 46,14 14,39 215,529 215,896 0,0 -783,25 -1732,25l-4 0c-949,0 -1732,-25 -1732,-25 0,-367 198,-857 215,-896 14,-4 28,-7 46,-14 18,-4 35,-7 53,-14 7,-4 18,-4 25,-4 11,-4 18,-4 28,-7 39,-7 81,-14 127,-18 11,0 21,-4 35,-4 14,-4 28,-4 42,-4 21,-4 42,-4 64,-7 11,0 25,-4 39,-4 11,0 25,0 39,-4 0,0 4,0 4,0 11,0 18,0 28,-4l0 0c4,0 4,0 7,0 0,0 0,0 4,0l4 0c0,-4 0,-7 0,-11 0,0 0,0 0,0 0,0 0,0 0,0 -4,0 -7,0 -11,0 0,0 0,0 -4,0 -4,0 -4,0 -7,0l0 0c-11,0 -18,0 -28,4 0,0 -4,0 -4,0 -14,0 -25,4 -39,4 -14,0 -25,4 -39,4 -21,4 -46,4 -67,7 -14,0 -28,4 -42,4 -11,0 -25,4 -35,4 -46,7 -88,14 -127,21 -11,4 -21,4 -28,7 -11,0 -18,4 -25,4 -18,4 -35,7 -53,14 -18,4 -32,7 -46,14 -18,39 -215,540 -215,914 0,0 787,25 1746,25l4 0c956,0 1746,-25 1746,-25 -4,-377 -205,-875 -222,-914zm-2357 -81c0,0 0,0 0,0 377,-21 766,-18 829,-18l4 0c64,0 452,0 826,18 0,0 0,0 4,0 4,0 4,0 7,0l4 0 -4 -11c0,0 0,0 -4,0 -381,-21 -769,-21 -836,-21l-4 0c-67,0 -455,0 -833,18 0,0 0,0 -4,0l-4 11c0,0 0,0 4,0 4,4 7,4 11,4z"/>
      <path class="fil0" d="M6897 902c-14,-4 -28,-11 -46,-14 -18,-4 -35,-7 -53,-14 -7,-4 -18,-4 -28,-7 -11,-4 -18,-4 -28,-7 -39,-7 -85,-14 -131,-21 -11,0 -21,-4 -35,-4 -14,-4 -28,-4 -42,-4 -21,-4 -42,-4 -67,-7 -11,0 -25,-4 -39,-4 46,4 88,7 131,11 14,0 28,4 42,4 7,0 18,4 25,4 14,4 28,4 39,7 11,0 21,4 35,4 81,18 148,32 198,53 -4,-4 -4,0 0,0z"/>
      <path class="fil1" d="M7613 2380c-4,-71 -18,-145 -25,-208 -11,-113 -39,-194 -74,-261 -35,-64 -109,-88 -123,-88l-7 0c0,0 0,4 0,4 11,0 85,25 120,88 35,64 64,148 74,258 7,64 18,138 25,208 4,11 4,25 7,35 4,-14 4,-28 4,-35z"/>
      <path class="fil0" d="M7561 2246c0,4 0,4 -4,7 -64,18 -325,14 -367,14 -4,0 -7,-4 -7,-7 0,0 0,-49 0,-67 0,-4 4,-7 7,-7 42,0 286,4 356,-11 4,0 7,0 7,11l7 60z"/>
      <path class="fil0" d="M6199 807l0 0c-367,-18 -737,-18 -836,-18l-4 0c-99,0 -469,0 -836,21l0 -4c318,-18 632,-21 737,-21l198 0c109,0 423,4 741,21z"/>
      <path class="fil2" d="M5804 630c-4,0 -7,0 -7,0 4,0 4,0 7,0 -4,0 -4,0 0,0z"/>
      <path class="fil0" d="M7317 2659c-18,0 -32,18 -32,35 0,18 14,32 32,32 18,0 32,-18 32,-35 0,-18 -14,-32 -32,-32zm0 60c-14,0 -28,-11 -28,-25l56 -4c-4,18 -14,28 -28,28zm0 -60c-18,0 -32,18 -32,35 0,18 14,32 32,32 18,0 32,-18 32,-35 0,-18 -14,-32 -32,-32zm0 60c-14,0 -28,-11 -28,-25l56 -4c-4,18 -14,28 -28,28zm0 -60c-18,0 -32,18 -32,35 0,18 14,32 32,32 18,0 32,-18 32,-35 0,-18 -14,-32 -32,-32zm0 60c-14,0 -28,-11 -28,-25l56 -4c-4,18 -14,28 -28,28zm0 -60c-18,0 -32,18 -32,35 0,18 14,32 32,32 18,0 32,-18 32,-35 0,-18 -14,-32 -32,-32zm0 60c-14,0 -28,-11 -28,-25l56 -4c-4,18 -14,28 -28,28zm-183 -99c-11,99 -18,162 -18,162 265,0 353,-39 420,-92 21,-18 35,-64 46,-113 -116,42 -374,46 -448,42zm183 116c-25,0 -46,-18 -46,-42 0,-25 21,-46 46,-49 25,0 46,18 46,42 0,28 -21,49 -46,49zm0 -78c-18,0 -32,18 -32,35 0,18 14,32 32,32 18,0 32,-18 32,-35 0,-18 -14,-32 -32,-32zm0 60c-14,0 -28,-11 -28,-25l56 -4c-4,18 -14,28 -28,28zm0 -60c-18,0 -32,18 -32,35 0,18 14,32 32,32 18,0 32,-18 32,-35 0,-18 -14,-32 -32,-32zm0 60c-14,0 -28,-11 -28,-25l56 -4c-4,18 -14,28 -28,28zm0 -60c-18,0 -32,18 -32,35 0,18 14,32 32,32 18,0 32,-18 32,-35 0,-18 -14,-32 -32,-32zm0 60c-14,0 -28,-11 -28,-25l56 -4c-4,18 -14,28 -28,28zm0 -60c-18,0 -32,18 -32,35 0,18 14,32 32,32 18,0 32,-18 32,-35 0,-18 -14,-32 -32,-32zm0 60c-14,0 -28,-11 -28,-25l56 -4c-4,18 -14,28 -28,28zm0 -60c-18,0 -32,18 -32,35 0,18 14,32 32,32 18,0 32,-18 32,-35 0,-18 -14,-32 -32,-32zm0 60c-14,0 -28,-11 -28,-25l56 -4c-4,18 -14,28 -28,28z"/>
      <path class="fil0" d="M7501 1946c-32,-56 -92,-78 -102,-78l-229 0c0,0 0,53 0,307l0 4c56,0 356,4 392,-18 0,0 0,0 0,0 -7,-95 -32,-162 -60,-215zm53 208c-35,21 -325,18 -377,18l0 -4c0,-243 0,-293 0,-293l219 0c11,0 71,18 99,74 32,49 53,116 60,205 0,0 0,0 0,0z"/>
      <path class="fil0" d="M7596 2380c-4,-39 -7,-78 -11,-113 0,-4 -4,-7 -11,-7 -71,18 -339,14 -406,11 -4,0 -7,4 -7,7 -4,116 -14,236 -21,332 0,4 0,4 4,4 78,0 325,-4 437,-39 4,0 7,-4 7,-7 7,-71 7,-155 7,-187zm-18 183c0,4 -4,7 -7,7 -109,35 -349,39 -423,39 -4,0 -4,-4 -4,-4 11,-92 18,-208 21,-325 0,-4 4,-4 4,-4 64,0 339,4 402,-11 4,0 4,0 4,4 4,39 7,74 11,113 4,28 4,109 -7,180z"/>
      <path class="fil0" d="M7335 1809l-212 0c-18,-399 -215,-893 -215,-893 0,0 7,0 25,7 166,116 395,857 402,886z"/>
      <path class="fil0" d="M7741 3153l0 18c0,-127 -21,-215 -39,-286 0,0 0,4 0,4 0,0 0,0 0,4 0,4 0,4 0,7l0 0c0,0 0,0 0,0 -4,14 -4,35 -7,56 0,7 0,14 -4,21 -4,21 -4,88 -4,99 -7,152 0,310 0,349 0,60 -14,71 -14,71l-18 21c-35,49 -56,11 -56,11 0,0 -25,-81 -49,-173 -25,-92 -141,-81 -141,-81l-370 0 0 -14 363 0c0,0 127,-7 152,85 25,92 49,176 49,176 0,0 14,39 46,-11l18 -21c0,0 11,-4 11,-64 0,-39 -7,-222 0,-374 0,-7 0,-18 0,-25 0,-25 4,-46 4,-67 0,-7 0,-14 4,-21 4,-21 4,-39 7,-53 0,0 0,0 0,0l0 0c0,-4 0,-4 0,-7 0,-4 0,-4 0,-7 28,64 49,155 49,282z"/>
      <path class="fil0" d="M6358 2186c-7,-35 -39,-60 -78,-60l-1838 0c-39,0 -67,25 -78,60 -4,7 -4,14 -4,21 0,4 0,7 0,14l32 155c0,0 0,0 0,4 0,4 4,7 11,11l0 0c0,0 4,0 4,0l1905 0c0,0 4,0 4,0l0 0c4,0 7,-4 11,-11 0,0 0,0 0,-4l32 -155c0,-4 0,-7 0,-14 4,-7 4,-14 0,-21zm-18 74l-25 109c0,0 0,0 0,4 0,7 -7,11 -14,11l-1877 0c-7,0 -14,-4 -14,-11 0,0 0,0 0,-4l-25 -109c0,0 0,0 0,0 0,-4 0,-11 0,-14 7,-25 28,-42 56,-42l1838 0c28,0 49,18 56,42 4,4 4,7 4,14 0,-4 0,-4 0,0zm7 -35l-4 7c-7,-21 -28,-35 -53,-35l-1856 0c-25,0 -46,14 -53,35l-4 -7c0,-4 0,-7 0,-11 0,-7 0,-14 4,-21 7,-32 39,-56 78,-56l1813 0c39,0 67,25 78,56 4,7 4,14 4,21 -7,0 -7,7 -7,11z"/>
      <path class="fil0" d="M6308 2465l-102 533c-4,28 -32,49 -60,49l-776 14 -11 0 -776 -14c-28,0 -56,-21 -60,-49l-102 -533c7,35 64,279 92,409 4,11 18,7 18,-4l4 -413 14 547c11,18 28,28 49,28l766 14 11 0 766 -14c21,0 39,-11 49,-28l14 -547 4 413c0,11 14,14 18,4 21,-131 74,-374 85,-409z"/>
      <path class="fil0" d="M7441 1950c-14,-7 -28,-14 -46,-14l-145 0c-25,0 -46,21 -46,46l0 81c0,25 21,46 46,46l95 0c0,0 4,0 4,0l81 0c28,0 49,-21 49,-46l0 -39c0,-32 -14,-60 -39,-74zm0 92c0,14 -11,28 -25,28l-145 0c-14,0 -25,-11 -25,-25l0 -46c0,-14 11,-25 25,-25l120 0c28,0 49,21 49,49l0 18z"/>
      <path class="fil0" d="M7451 2338l-95 0c-4,0 -4,0 -7,0l-113 0c-32,0 -53,25 -53,53l-7 92c0,32 25,56 53,56l173 0c18,0 39,-7 53,-18 28,-18 49,-49 49,-85l0 -46c4,-32 -21,-53 -53,-53zm-4 99c0,28 -21,49 -49,49l-131 0c-14,0 -28,-11 -28,-28l4 -42c0,-14 11,-28 28,-28l152 0c14,0 25,14 25,28l0 21z"/>
      <path class="fil0" d="M6315 722l-67 -7c-11,0 -21,7 -25,18l-25 74 0 4 0 4 0 0 4 11 25 95c0,0 0,25 28,25 28,0 71,0 71,0 0,0 14,0 14,-14 0,-7 4,-56 4,-99 0,-4 0,-7 0,-11l0 -4c0,0 0,0 0,0 0,0 0,0 0,-4 0,-35 4,-64 4,-64 0,0 -4,-28 -32,-28zm25 92l0 4c0,4 0,7 0,11 -4,42 -4,92 -4,95 0,11 -11,11 -11,11 0,0 -39,0 -67,0 -28,0 -28,-25 -28,-25l-25 -92 -4 -11 0 0 25 -74c4,-11 14,-18 25,-18l64 7c28,0 28,32 28,32 0,0 -4,28 -4,60z"/>
      <path class="fil0" d="M6252 736c0,14 0,187 0,187 0,0 -11,7 -18,-7 4,14 14,7 14,7 0,0 4,-173 4,-187 0,-11 -7,-7 -7,-7 -7,0 -11,4 -14,11 4,-7 7,-14 14,-14 0,0 7,-4 7,11z"/>
      <path class="fil3" d="M5663 722c0,11 -11,18 -21,18 -11,0 -18,-7 -21,-18l42 0z"/>
      <path class="fil3" d="M5641 690c-18,0 -32,14 -32,32 0,18 14,32 32,32 18,0 32,-14 32,-32 0,-18 -14,-32 -32,-32zm0 56c-14,0 -25,-11 -25,-25 0,-11 11,-25 25,-25 14,0 25,11 25,25 0,14 -11,25 -25,25z"/>
      <path class="fil3" d="M5521 722c0,11 -11,18 -21,18 -11,0 -18,-7 -21,-18l42 0z"/>
      <path class="fil3" d="M5500 690c-18,0 -32,14 -32,32 0,18 14,32 32,32 18,0 32,-14 32,-32 4,-18 -14,-32 -32,-32zm0 56c-14,0 -25,-11 -25,-25 0,-11 11,-25 25,-25 14,0 25,11 25,25 0,14 -11,25 -25,25z"/>
      <path class="fil3" d="M5380 722c0,11 -11,18 -21,18 -11,0 -18,-7 -21,-18l42 0z"/>
      <path class="fil3" d="M5363 690c-18,0 -32,14 -32,32 0,18 14,32 32,32 18,0 32,-14 32,-32 0,-18 -14,-32 -32,-32zm0 56c-14,0 -25,-11 -25,-25 0,-11 11,-25 25,-25 14,0 25,11 25,25 -4,14 -11,25 -25,25z"/>
      <path class="fil0" d="M5352 652l0 0 14 0c-11,0 -14,0 -14,0zm1058 18l46 7c0,0 0,0 0,0 -14,-4 -28,-4 -46,-7zm187 28c-7,0 -14,-4 -14,-4 -18,-4 -39,-7 -56,-11 0,0 -4,0 -4,4l56 11 18 4c0,0 0,-4 0,-4zm145 25c-46,-14 -106,-21 -138,-28 0,0 0,4 0,4l56 11 64 11 18 4 0 0zm152 176c-53,-18 -120,-32 -194,-42 -11,0 -21,-4 -35,-4 -14,-4 -28,-4 -39,-7 -7,0 -18,-4 -25,-4 -14,0 -28,-4 -42,-4 -71,-7 -145,-14 -219,-21 0,0 0,0 0,0 0,0 0,0 0,4l0 0c4,0 7,0 11,0 0,0 0,0 4,0 4,0 4,0 7,0l0 0c11,0 18,0 28,4 0,0 4,0 4,0 14,0 25,4 39,4 14,0 25,4 39,4 21,4 46,4 67,7 14,0 28,4 42,4 11,0 25,4 35,4 46,7 88,14 131,21 11,4 21,4 28,7 11,0 18,4 28,7 18,4 39,7 53,14 11,0 28,4 39,4 0,4 0,0 0,0zm720 1482c-4,-71 -18,-145 -25,-208 -11,-113 -39,-194 -74,-261 -35,-64 -109,-88 -123,-88l-7 0c0,0 0,4 0,4 11,0 85,25 120,88 35,64 64,148 74,258 7,64 18,138 25,208 4,11 4,25 7,35 4,-14 4,-28 4,-35zm127 790l0 -18c0,-127 -21,-219 -39,-289 0,4 0,4 0,7 0,4 0,4 0,7l0 0c0,0 0,0 0,0 0,4 4,7 4,11 18,67 32,148 32,261 0,180 18,314 -21,572 -11,74 -21,134 -28,180 0,11 -4,18 -4,25 -4,18 -7,32 -11,42 0,4 -4,11 -4,14 -7,32 -18,56 -25,81 -4,7 -4,11 -7,18 0,0 0,0 0,0 -7,14 -11,28 -18,42 -7,11 -11,21 -18,32 0,0 0,4 -4,4 0,0 0,0 0,4 -4,4 -7,11 -7,14 -11,14 -18,28 -32,39 0,0 -4,4 -4,4 -4,4 -7,7 -11,11 -4,4 -7,7 -11,11 -7,4 -11,7 -18,11 -11,7 -32,14 -60,18 -21,4 -46,7 -74,14l0 0c-7,0 -11,4 -18,4l0 0c-4,0 -4,0 -7,0 0,0 -4,0 -4,0 -7,0 -14,0 -18,4 -7,0 -18,4 -25,4 -14,0 -28,4 -42,4 -4,0 -7,0 -11,0l0 0c-14,0 -28,4 -42,4 -14,0 -28,4 -46,4l-14 0c0,0 -4,0 -4,0 -7,0 -11,0 -18,0 -14,0 -28,4 -46,4 -4,0 -4,0 -7,0 -21,0 -42,4 -64,4 -7,0 -14,0 -21,0 -7,0 -14,0 -25,0 -56,4 -113,7 -176,7 -18,0 -35,0 -53,4 0,4 0,7 0,11 18,0 35,0 53,0 64,-4 120,-4 176,-7 7,0 18,0 25,0 7,0 14,0 21,0 21,0 42,-4 64,-4 11,0 21,0 28,-4 0,0 0,0 0,0 7,0 14,0 18,0 7,0 11,0 14,0 4,0 4,0 7,0 39,-4 78,-7 109,-11 28,-4 56,-7 81,-7 4,0 4,0 7,0 0,0 4,0 4,0 21,-4 42,-7 60,-11 0,0 0,0 0,0 0,0 0,0 0,0 46,-7 78,-18 95,-28 14,-7 25,-18 35,-28 4,0 4,-4 4,-4 18,-18 32,-35 42,-56 4,-4 4,-7 4,-7 0,0 0,0 0,-4 0,-4 4,-4 4,-7 11,-18 18,-32 25,-49 4,-11 7,-18 11,-28 4,-7 4,-11 7,-18 11,-21 18,-46 25,-81 0,-4 4,-7 4,-14l0 0c4,-21 11,-42 14,-71 7,-42 18,-99 28,-169 46,-250 32,-381 32,-554zm-1556 1168c0,0 0,7 0,11 18,0 35,0 53,0 0,-4 0,-11 0,-11 -18,0 -35,0 -53,0z"/>
      <path class="fil0" d="M7681 2782c-14,-78 -49,-314 -49,-314 0,0 -7,-39 -18,-92 0,7 0,21 0,35 -4,-11 -4,-21 -7,-35 -4,-71 -18,-145 -25,-208 -11,-113 -39,-194 -74,-258 -35,-64 -109,-88 -120,-88 0,0 0,-4 0,-4l7 0c-191,-575 -363,-840 -406,-910 0,0 0,0 0,-4 -42,-71 -155,-145 -201,-169 -11,-7 -25,-11 -39,-14l0 4 -18 -7 -64 -11 -56 -11c0,0 0,-4 0,-4 -4,0 -4,0 -7,0 0,4 0,4 0,4l-18 -4 -56 -11c0,0 4,0 4,-4 -25,-4 -46,-7 -71,-11 0,0 0,0 0,0l-46 -7c-4,0 -4,0 -7,0 -14,0 -25,-4 -35,-4 -4,0 -7,0 -11,0 -7,0 -14,0 -18,0 0,0 0,0 0,0 -4,0 -7,0 -7,0 -4,0 -4,0 -7,0 -4,0 -7,0 -7,0 0,0 0,0 0,-4 0,0 0,-4 0,-4 0,0 0,-4 -4,-4 0,0 0,0 0,0 0,0 0,0 0,0 -32,-7 -145,-14 -159,-14 -11,0 -11,7 -11,11 -7,0 -14,0 -25,0 -7,0 -18,0 -28,-4 -7,0 -18,0 -28,0 -7,0 -11,0 -18,0 -7,0 -11,0 -18,0 -11,0 -25,0 -35,-4 -32,0 -67,-4 -95,-4 -14,0 -28,0 -42,-4 -11,0 -21,0 -32,0 -11,0 -18,0 -25,0l-4 0c0,0 0,0 0,0 -4,0 -7,0 -7,0 -28,0 -46,-4 -46,-4 0,-11 -11,-11 -11,-11 0,0 -81,0 -109,0 -28,0 -28,7 -28,7l-233 -4 -11 0 -233 4c0,0 0,-7 -28,-7 -28,0 -109,0 -109,0 0,0 -11,0 -11,11 0,0 -18,0 -46,4 -4,0 -4,0 -7,0 0,0 0,0 0,0l-4 0c-7,0 -18,0 -25,0 -11,0 -21,0 -32,0 -14,0 -28,0 -42,4 -32,0 -64,4 -95,4 -11,0 -25,0 -35,4 -7,0 -11,0 -18,0 -7,0 -11,0 -18,0 -11,0 -18,0 -28,0 -11,0 -18,0 -28,4 -7,0 -18,0 -25,0 0,0 0,-11 -11,-11 -14,0 -127,7 -159,14 0,0 0,0 0,0 0,0 0,0 0,0 0,0 0,0 -4,4 0,0 0,4 0,4 0,0 0,0 0,4 0,0 -4,0 -7,0 0,0 -4,0 -7,0 -4,0 -4,0 -7,0 0,0 0,0 0,0 -7,0 -11,0 -18,0 -4,0 -7,0 -11,0 -11,0 -21,0 -35,4 -4,0 -4,0 -7,0l-46 14c0,0 0,0 0,0 -21,4 -46,7 -71,11 0,0 4,0 4,4l-56 11 -18 0c0,0 0,-4 0,-4 -4,0 -4,0 -7,0 0,0 0,4 0,4l-56 11 -64 11 -14 4 0 -4c-18,4 -32,11 -39,14 -46,25 -159,102 -201,169 0,0 0,0 0,4 -46,71 -215,335 -406,910l7 0c0,0 0,4 0,4 -11,0 -85,25 -120,88 -35,64 -64,148 -74,258 -7,64 -18,138 -25,208 -4,11 -4,25 -7,35 0,-14 0,-28 0,-35 -11,53 -18,92 -18,92 0,0 -39,236 -49,314 -4,25 -11,49 -18,81 0,4 0,4 0,7 0,4 0,4 0,7 0,-7 4,-11 4,-14 7,-28 14,-56 18,-78 14,-78 49,-310 49,-310 0,0 4,-21 11,-56 0,21 0,49 4,78 0,7 0,18 4,25 0,11 4,21 4,32 0,0 0,0 0,0 0,7 0,11 4,18 0,4 0,4 0,7 0,0 0,4 0,4 4,21 7,39 11,60 0,4 4,7 4,11 4,14 7,25 11,35 0,4 4,4 4,7 4,7 7,18 14,21 4,4 4,7 7,7 0,0 0,0 4,4 0,4 4,4 7,4 74,60 176,102 480,102 0,0 -46,-335 -49,-624l0 -25c0,-296 0,-356 0,-356l-240 0c11,-32 258,-833 430,-910 7,-4 18,-4 25,-7 4,0 4,0 7,-4 0,-4 0,-4 0,-4 -4,0 -7,4 -7,4 -7,0 -14,4 -21,7 0,0 -53,14 -138,162 18,-35 49,-85 67,-123 166,-205 402,-212 783,-250 247,-25 716,-35 854,-39l4 0c148,4 603,14 843,39 381,39 617,46 783,250 21,35 49,88 67,123 -85,-148 -138,-162 -138,-162 -7,-4 -14,-4 -21,-7 -4,0 -7,-4 -7,-4 0,0 0,0 0,4 4,0 4,0 7,4 7,0 18,4 25,7 176,78 423,878 430,910l-240 0c0,0 0,60 0,356l0 25c-4,289 -49,624 -49,624 300,0 402,-42 480,-102 4,0 4,-4 7,-4 0,0 0,0 4,-4 4,-4 4,-7 7,-7 4,-7 7,-14 14,-21 0,-4 4,-4 4,-7 4,-11 7,-21 11,-35 0,-4 4,-7 4,-11 4,-18 7,-39 11,-60 0,0 0,-4 0,-4 0,-4 0,-4 0,-7 0,-7 0,-11 4,-18 0,0 0,0 0,0 0,-11 4,-21 4,-32 0,-11 0,-18 4,-25 4,-28 4,-56 4,-78 7,32 11,56 11,56 0,0 39,236 49,310 4,25 11,49 18,78 0,4 4,11 4,14 0,-4 0,-4 0,-7 0,-4 0,-4 0,-7 -28,-32 -32,-56 -39,-81zm-4110 -928c0,0 0,56 0,332 0,148 14,310 25,430 0,4 0,4 0,7 11,102 21,173 21,173 -272,0 -367,-39 -434,-95 -25,-21 -39,-67 -49,-123l0 -7c-11,-78 -11,-162 -11,-194 4,-42 7,-85 14,-127l0 0c4,-25 7,-46 7,-67l0 0c0,-4 0,-7 0,-7 11,-99 35,-176 67,-233 32,-60 102,-81 113,-81l247 0 0 -7zm2642 -1164c-261,-25 -730,-35 -840,-39l-21 0c-106,4 -579,14 -840,39 -367,39 -610,46 -773,233 4,-7 7,-11 7,-14 0,0 0,-4 4,-4 46,-67 148,-134 191,-159 46,-25 198,-42 198,-42 127,-25 261,-28 261,-28 0,-7 7,-11 7,-11 21,-4 85,-11 123,-14 18,0 28,0 32,0 7,0 11,4 11,7l0 0c0,0 0,0 0,4 116,-7 395,-21 395,-21 0,-4 4,-7 7,-11 4,0 7,-4 7,-4 0,0 78,0 109,0 28,0 28,7 28,7l229 -4 25 0 229 4c0,0 0,-7 28,-7 28,0 109,0 109,0 0,0 4,0 7,4 4,0 7,4 7,11 0,0 279,11 395,21 0,0 0,0 0,-4l0 0c0,-4 4,-7 11,-7 4,0 18,0 32,0 39,4 102,7 123,14 0,0 7,4 7,11 0,0 134,7 261,28 0,0 152,18 198,42 42,25 145,92 191,159 0,0 0,4 4,4 4,4 4,7 7,14 -159,-183 -402,-194 -769,-233zm1379 1880l0 7c-7,53 -25,102 -49,123 -67,56 -162,95 -434,95 0,0 11,-71 21,-173 0,-4 0,-4 0,-7 11,-120 25,-282 25,-430 0,-275 0,-332 0,-332l247 0c11,0 78,21 113,81 32,60 56,134 67,233 0,4 0,7 0,7l0 0c4,21 4,46 7,67l0 0c7,42 11,85 14,127 0,39 0,123 -11,201z"/>
      <path class="fil0" d="M6185 4338c0,0 0,7 0,11 -250,4 -1394,4 -1644,0 0,-4 0,-11 0,-11 250,4 1394,4 1644,0z"/>
      <path class="fil0" d="M6975 3241c-4,14 -14,39 -14,42 -14,32 -35,53 -56,71 -7,7 -14,11 -25,18 -4,4 -7,4 -11,7 -4,4 -7,4 -11,7 -4,4 -11,4 -14,7 -14,7 -32,11 -46,14 -4,0 -7,4 -14,4 -7,4 -14,4 -21,4 -21,4 -35,4 -35,4 -370,18 -1196,18 -1365,18l-4 0c-169,0 -998,-4 -1365,-18 0,0 -14,0 -35,-4 -7,0 -14,-4 -21,-4 -4,0 -7,-4 -14,-4 -14,-4 -32,-7 -46,-14 -4,-4 -11,-4 -14,-7 -4,-4 -7,-4 -11,-7 -4,0 -7,-4 -11,-7 -7,-7 -18,-11 -25,-18 -21,-18 -46,-42 -56,-71 0,-4 -11,-28 -14,-42 4,0 7,0 11,0 0,0 0,4 0,4 14,35 32,64 53,85 7,7 14,14 25,21 4,4 7,4 11,7 4,4 7,4 11,7 4,4 11,7 14,7 14,7 28,14 42,18 4,0 7,4 14,4 7,4 14,4 21,7 21,4 35,4 35,4 388,21 1284,21 1379,21l4 0c95,0 991,0 1379,-21 0,0 14,0 35,-4 7,0 14,-4 21,-7 4,0 7,-4 14,-4 14,-4 28,-11 42,-18 4,-4 11,-7 14,-7 4,-4 7,-4 11,-7 4,-4 7,-4 11,-7 7,-7 18,-14 25,-21 21,-21 39,-49 53,-85 0,0 0,-4 0,-4 -4,0 0,0 4,0z"/>
      <path class="fil0" d="M6978 3227c0,4 -4,11 -4,14 -4,0 -7,0 -11,0 0,-4 0,-4 4,-7 0,-4 0,-4 4,-7 0,0 4,0 7,0z"/>
      <path class="fil0" d="M6978 3227c0,4 -4,11 -4,14 -4,0 -7,0 -11,0 0,-4 0,-4 4,-7 0,-4 0,-4 4,-7 0,0 4,0 7,0z"/>
      <path class="fil0" d="M7116 2179l0 21 -755 11c0,-7 0,-14 -4,-21l759 -11z"/>
      <path class="fil0" d="M7412 3604c-131,0 -462,0 -462,0 0,0 -71,11 -32,46 39,35 67,67 67,67 0,0 18,32 106,32l173 0c64,0 127,-7 187,-21 39,-11 74,-21 88,-39 0,4 4,-85 -127,-85zm67 109c0,0 0,0 0,0 -14,4 -28,7 -39,11 -14,4 -28,7 -39,7 -4,0 -7,0 -11,0 -11,4 -21,4 -32,4 -4,0 -7,0 -11,0 -14,0 -28,4 -42,4 -14,0 -32,0 -46,0l-169 0c-14,0 -28,0 -39,-4 -11,0 -18,-4 -25,-4 -7,-4 -14,-4 -18,-7 -4,0 -4,-4 -7,-4 -11,-7 -14,-11 -14,-11 0,0 -18,-14 -39,-39 11,-7 32,-11 32,-11 0,0 293,0 406,0 64,0 92,21 102,42 -4,11 -7,11 -11,11zm14 -4c-11,-21 -39,-49 -106,-49 -113,0 -406,0 -406,0 0,0 -25,4 -32,14 -7,-7 -14,-14 -21,-21 -35,-35 32,-42 32,-42 0,0 321,0 445,0 123,0 123,74 123,78 -4,4 -11,7 -14,11 -7,7 -14,7 -21,11z"/>
      <path class="fil0" d="M7472 3710c-4,0 -7,4 -11,4 0,0 0,0 0,0 -11,4 -21,4 -35,7 -11,4 -25,4 -35,7 -4,0 -7,0 -11,0 -11,0 -18,4 -28,4 -4,0 -7,0 -11,0 -14,0 -25,0 -39,4 -14,0 -28,0 -42,0l-155 0c-14,0 -28,0 -39,-4 -7,0 -18,-4 -21,-4 -7,0 -14,-4 -18,-4 -4,0 -4,0 -7,-4 -11,-4 -14,-7 -14,-7 0,0 -14,-11 -35,-28 11,-4 21,-4 21,-4 0,0 268,0 370,0 67,-4 95,14 109,28z"/>
      <path class="fil0" d="M7434 3774c-56,18 -116,25 -176,25l-205 0c-28,0 -67,-11 -85,-32l-109 -109c-7,-7 -21,-14 -32,-11 -335,32 -1178,28 -1446,25 -215,4 -1125,7 -1478,-25 -11,0 -25,4 -32,11l-109 109c-21,21 -56,32 -85,32l-205 0c-60,0 -120,-7 -176,-25 -42,-14 -46,-39 -4,-25 53,14 106,25 162,25l222 0c28,0 56,-11 74,-32l109 -109c7,-7 21,-14 32,-11 318,32 1101,28 1408,25 32,0 60,0 81,0 14,0 28,0 46,0 307,4 1090,4 1408,-25 11,0 25,4 32,11l109 109c21,21 46,32 74,32l222 0c56,0 109,-11 162,-25 46,-11 42,14 0,25z"/>
      <path class="fil0" d="M5380 3957c-53,0 -81,0 -81,0l0 0c32,0 60,0 81,0z"/>
      <path class="fil0" d="M7613 4119c-25,53 -60,102 -106,127 -11,7 -32,14 -60,18 -71,18 -194,28 -360,39 -88,-49 -215,-233 -342,-233 -392,0 -2381,0 -2780,0 -127,0 -250,183 -342,233 -166,-11 -286,-25 -360,-39 -28,-7 -46,-14 -60,-18 -46,-28 -81,-78 -106,-127 49,53 116,106 325,106l145 0c99,0 194,-219 367,-219 430,0 2445,0 2836,0 173,0 268,219 367,219l145 0c219,0 286,-53 332,-106z"/>
      <path class="fil0" d="M7635 4105c-7,18 -14,35 -25,49 0,4 -4,4 -4,7 0,0 0,0 0,4 -4,4 -4,7 -7,7 -11,18 -28,32 -42,49 0,0 -4,4 -4,4 -7,7 -11,11 -18,18 -4,4 -35,18 -39,21 -4,4 -60,18 -74,21 0,0 0,0 0,0 0,0 0,0 0,0 -18,4 -39,7 -60,11 0,0 -4,0 -4,0 -4,0 -4,0 -7,0 -25,4 -53,7 -81,7 -35,4 -71,7 -109,11 -4,0 -4,0 -7,0 -7,0 -11,0 -14,0 -7,0 -14,0 -18,0 0,0 0,0 0,0 -7,-4 -18,-7 -25,-11 14,0 32,-4 46,-4 7,0 11,0 18,0 0,0 4,0 4,0l4 0c14,0 32,-4 46,-4 14,0 28,-4 42,-4l0 0c4,0 7,0 11,0 14,0 28,-4 42,-4 7,0 18,0 25,-4 7,0 14,0 18,-4 0,0 4,0 4,0 4,0 7,0 7,0l0 0c7,0 11,-4 18,-4l0 0c28,-4 53,-7 74,-14 28,-7 46,-14 60,-18 7,-4 11,-7 18,-11 4,-4 7,-7 11,-11 4,-4 7,-7 11,-11 4,0 4,-4 4,-4 11,-11 21,-25 32,-39 4,-4 7,-11 7,-14 0,0 0,0 0,-4 0,0 4,-4 4,-4 7,-11 11,-21 18,-32 0,0 4,-4 4,-4 7,-7 11,-11 14,-11z"/>
      <path class="fil0" d="M6802 4335c-18,0 -35,0 -53,0 0,-4 0,-7 0,-11 -4,-25 -14,-46 -32,-60 -7,-7 -14,-11 -21,-18 -4,-4 -11,-7 -14,-7 -7,-4 -11,-4 -18,-7 -4,0 -7,0 -11,-4 -4,0 -11,0 -14,0l-293 0c-11,0 -21,0 -28,4 -11,4 -21,7 -32,14 -28,18 -49,49 -49,88 0,4 0,7 0,11l0 0c-18,0 -35,0 -53,0 0,-4 0,-11 0,-11 0,-42 18,-81 46,-109 28,-28 71,-46 113,-46l293 0c7,0 11,0 14,0l0 0c74,7 134,67 145,141 7,7 7,11 7,14z"/>
      <path class="fil0" d="M6005 4289l-318 0 0 0c0,-39 32,-71 71,-71l176 0c39,0 71,28 71,71l0 0z"/>
      <path class="fil0" d="M5504 4289l-286 0c0,-39 32,-71 71,-71l145 0c39,-4 71,32 71,71z"/>
      <path class="fil0" d="M6721 4310c0,0 0,-4 0,-4 0,-4 0,-7 -4,-7l-7 -14c0,0 0,0 0,0l-18 -35c-4,-4 -11,-7 -14,-7 -7,-4 -11,-4 -18,-7l7 14c0,0 0,0 0,0 -4,0 -7,-4 -11,-4 -4,0 -7,0 -11,0l-310 0c-4,0 -7,0 -11,0 -4,0 -7,0 -11,4 0,0 0,0 0,0l7 -14c-11,4 -21,7 -32,14l-14 32 0 0 -7 14c0,4 0,7 -4,7 0,0 0,4 0,4 0,4 0,7 0,11 0,4 0,4 0,7 0,0 0,0 0,0 0,4 0,7 4,11 0,0 0,4 0,4 0,4 4,7 4,11 4,7 7,11 11,18 0,4 4,4 4,7 14,14 32,21 53,21l310 0c25,0 46,-11 60,-28 0,0 4,-4 4,-4 0,-4 4,-4 4,-7 0,-4 4,-4 4,-7 0,-4 4,-7 4,-11 0,-4 0,-7 4,-11 0,-4 0,-4 0,-7 -7,-4 -7,-7 -7,-11zm-21 11c0,32 -28,60 -64,60l-289 0c-35,0 -64,-28 -64,-60l0 -4c0,-32 28,-60 64,-60l289 0c35,4 64,28 64,64l0 0z"/>
      <path class="fil0" d="M6647 4370l-303 0 28 -18c7,0 14,-4 25,-4l201 0c11,0 18,0 25,4l25 18z"/>
      <path class="fil0" d="M4198 687l-56 11 -18 4c0,0 0,-4 0,-4 4,-14 11,-39 42,-53 -4,4 -7,11 11,25 4,4 7,7 14,11 0,4 4,4 7,7 -4,0 0,0 0,0z"/>
      <path class="fil0" d="M4340 669l-21 4c-4,0 -4,0 -7,0l-46 4c0,0 0,0 0,0 0,-4 -7,-7 -14,-14 -14,-14 -39,-28 -78,-25 0,0 0,0 -4,0 0,0 0,0 -4,0 0,0 0,0 0,0 0,0 -4,0 -4,0 0,0 0,0 0,0 -39,18 -46,46 -49,60 0,0 0,4 0,4l-56 11 -64 11 -11 4 0 -7c0,0 64,-148 159,-148 11,0 21,0 35,4l0 0c39,4 88,18 138,67 7,7 14,18 25,28z"/>
      <path class="fil0" d="M5116 722c0,18 -14,32 -32,32 -18,0 -32,-14 -32,-32 0,-18 14,-32 32,-32 18,0 32,14 32,32z"/>
      <path class="fil0" d="M5250 722c0,18 -14,32 -32,32 -18,0 -32,-14 -32,-32 0,-18 14,-32 32,-32 18,0 32,14 32,32z"/>
      <path class="fil0" d="M4294 824c-14,0 -25,4 -39,4 -21,4 -46,4 -67,7 -14,0 -28,4 -42,4 -11,0 -25,4 -35,4 -46,7 -88,14 -131,21 -11,4 -21,4 -28,7 -11,0 -18,4 -28,7 -18,4 -39,7 -53,14 -18,4 -32,11 -46,14 0,-4 0,-4 0,-4 49,-18 116,-32 194,-42 11,0 21,-4 35,-4 14,-4 28,-4 39,-7 7,0 18,-4 25,-4 14,0 28,-4 42,-4 46,-7 88,-14 134,-18z"/>
      <path class="fil1" d="M3334 1823c-11,0 -85,25 -123,88 -35,64 -64,148 -74,261 -7,64 -18,138 -25,208 0,7 0,21 0,35 4,-11 4,-21 7,-35 4,-71 18,-145 25,-208 11,-113 39,-194 74,-258 35,-64 109,-88 120,-88 0,0 0,-4 0,-4l-4 0z"/>
      <path class="fil0" d="M3165 2246c0,4 0,4 4,7 64,18 325,14 367,14 4,0 7,-4 7,-7 0,0 0,-49 0,-67 0,-4 -4,-7 -7,-7 -42,0 -286,4 -356,-11 -4,0 -7,0 -7,11l-7 60z"/>
      <path class="fil2" d="M4929 630c-4,0 -4,0 -7,0 0,0 0,0 0,0 0,0 4,0 7,0z"/>
      <path class="fil0" d="M3408 2659c-18,0 -32,14 -32,32 0,18 14,35 32,35 18,0 32,-14 32,-32 4,-18 -14,-35 -32,-35zm0 60c-14,0 -28,-14 -28,-28l56 4c0,14 -14,28 -28,25zm0 -60c-18,0 -32,14 -32,32 0,18 14,35 32,35 18,0 32,-14 32,-32 4,-18 -14,-35 -32,-35zm0 60c-14,0 -28,-14 -28,-28l56 4c0,14 -14,28 -28,25zm0 -60c-18,0 -32,14 -32,32 0,18 14,35 32,35 18,0 32,-14 32,-32 4,-18 -14,-35 -32,-35zm0 60c-14,0 -28,-14 -28,-28l56 4c0,14 -14,28 -28,25zm0 -60c-18,0 -32,14 -32,32 0,18 14,35 32,35 18,0 32,-14 32,-32 4,-18 -14,-35 -32,-35zm0 60c-14,0 -28,-14 -28,-28l56 4c0,14 -14,28 -28,25zm180 -99c-71,0 -332,-4 -448,-42 7,49 21,95 46,113 67,56 155,92 420,92 4,4 -7,-64 -18,-162zm-180 116c-25,0 -46,-25 -46,-49 0,-25 21,-46 46,-42 25,0 46,25 46,49 0,25 -21,46 -46,42zm0 -78c-18,0 -32,14 -32,32 0,18 14,35 32,35 18,0 32,-14 32,-32 4,-18 -14,-35 -32,-35zm0 60c-14,0 -28,-14 -28,-28l56 4c0,14 -14,28 -28,25zm0 -60c-18,0 -32,14 -32,32 0,18 14,35 32,35 18,0 32,-14 32,-32 4,-18 -14,-35 -32,-35zm0 60c-14,0 -28,-14 -28,-28l56 4c0,14 -14,28 -28,25zm0 -60c-18,0 -32,14 -32,32 0,18 14,35 32,35 18,0 32,-14 32,-32 4,-18 -14,-35 -32,-35zm0 60c-14,0 -28,-14 -28,-28l56 4c0,14 -14,28 -28,25zm0 -60c-18,0 -32,14 -32,32 0,18 14,35 32,35 18,0 32,-14 32,-32 4,-18 -14,-35 -32,-35zm0 60c-14,0 -28,-14 -28,-28l56 4c0,14 -14,28 -28,25zm0 -60c-18,0 -32,14 -32,32 0,18 14,35 32,35 18,0 32,-14 32,-32 4,-18 -14,-35 -32,-35zm0 60c-14,0 -28,-14 -28,-28l56 4c0,14 -14,28 -28,25z"/>
      <path class="fil0" d="M3553 1869l-229 0c-11,0 -71,21 -102,78 -28,53 -49,123 -60,215 0,0 0,0 0,0 35,21 335,18 392,18l0 -4c4,-254 0,-307 0,-307zm-7 303c-56,0 -346,4 -377,-18 0,0 0,0 0,0 11,-88 32,-152 60,-205 28,-53 88,-74 99,-74l219 0c0,0 0,49 0,296l0 0z"/>
      <path class="fil0" d="M3567 2281c0,-4 -4,-7 -7,-7 -71,0 -335,4 -409,-11 -4,0 -11,4 -11,7 -4,39 -11,74 -11,113 0,32 0,113 11,187 0,4 4,7 7,7 116,39 360,39 437,39 4,0 4,-4 4,-4 -11,-95 -18,-215 -21,-332zm11 328c-74,0 -314,-4 -423,-39 -4,0 -7,-4 -7,-7 -11,-71 -11,-152 -11,-180 4,-39 7,-74 11,-113 0,-4 4,-4 4,-4 64,14 339,11 402,11 4,0 4,4 4,4 4,116 11,233 21,325 4,4 0,4 0,4z"/>
      <path class="fil0" d="M3387 1809l212 0c18,-399 215,-893 215,-893 0,0 -7,0 -25,7 -162,116 -392,857 -402,886z"/>
      <path class="fil0" d="M3687 3269l-370 0c0,0 -116,-7 -141,81 -25,92 -49,173 -49,173 0,0 -21,39 -56,-11l-18 -21c0,0 -14,-11 -14,-71 0,-39 7,-198 0,-349 0,-7 -4,-78 -4,-99 0,-7 0,-14 -4,-21 -4,-21 -4,-42 -7,-56 0,0 0,0 0,0l0 0c0,-4 0,-4 0,-7 0,0 0,0 0,-4 0,0 0,-4 0,-4 -18,71 -39,159 -39,286l0 -18c0,-127 21,-219 39,-289 0,4 0,4 0,7 0,4 0,4 0,7l0 0c0,0 0,0 0,0 4,14 7,32 7,53 0,7 0,14 4,21 4,21 4,42 4,67 0,7 0,18 0,25 7,152 0,335 0,374 0,60 11,64 11,64l18 21c35,49 46,11 46,11 0,0 25,-85 49,-176 25,-92 152,-85 152,-85l363 0 11 21z"/>
      <path class="fil0" d="M3475 1936l-145 0c-18,0 -32,4 -46,14 -25,14 -42,42 -42,71l0 39c0,25 21,46 49,46l81 0c0,0 4,0 4,0l95 0c25,0 46,-21 46,-46l0 -81c4,-21 -18,-42 -42,-42zm4 106c0,14 -11,25 -25,25l-145 0c-14,0 -25,-11 -25,-28l0 -18c0,-28 21,-49 49,-49l120 0c14,0 25,11 25,25l0 46z"/>
      <path class="fil0" d="M3539 2391c0,-32 -25,-53 -53,-53l-113 0c-4,0 -4,0 -7,0l-95 0c-32,0 -56,25 -56,53l0 46c0,35 18,67 49,85 14,11 35,18 53,18l173 0c28,0 53,-25 53,-56l-4 -92zm-81 95l-131 0c-28,0 -49,-25 -49,-49l0 -18c0,-14 11,-28 25,-28l152 0c14,0 28,11 28,28l4 42c0,14 -14,25 -28,25z"/>
      <path class="fil0" d="M4527 807l0 0 -25 -74c-4,-11 -14,-18 -25,-18l-67 7c-28,0 -32,32 -32,32 0,0 0,28 4,64 0,0 0,0 0,4 0,0 0,0 0,0l0 4c0,4 0,7 0,11 4,46 4,92 4,99 0,14 14,14 14,14 0,0 42,0 71,0 28,0 28,-25 28,-25l25 -95 4 -21 0 0 0 0zm-7 14l-25 92c0,0 0,25 -28,25 -28,0 -67,0 -67,0 0,0 -11,0 -11,-11 0,-7 -4,-53 -4,-95 0,-4 0,-7 0,-11l0 -4c0,-32 -4,-60 -4,-60 0,0 0,-32 28,-32l64 -7c11,0 21,7 25,18l25 74 0 0 -4 11z"/>
      <path class="fil0" d="M4474 736c0,14 0,187 0,187 0,0 11,7 18,-7 -4,14 -14,7 -14,7 0,0 -4,-173 -4,-187 0,-11 7,-7 7,-7 7,0 11,4 14,11 -4,-7 -7,-14 -14,-14 -4,0 -7,-4 -7,11z"/>
      <path class="fil3" d="M5063 722c0,11 11,18 21,18 11,0 18,-7 21,-18l-42 0z"/>
      <path class="fil3" d="M5084 690c-18,0 -32,14 -32,32 0,18 14,32 32,32 18,0 32,-14 32,-32 0,-18 -14,-32 -32,-32zm0 56c-14,0 -25,-11 -25,-25 0,-11 11,-25 25,-25 14,0 25,11 25,25 -4,14 -14,25 -25,25z"/>
      <path class="fil3" d="M5204 722c0,11 11,18 21,18 11,0 18,-7 21,-18l-42 0z"/>
      <path class="fil3" d="M5222 690c-18,0 -32,14 -32,32 0,18 14,32 32,32 18,0 32,-14 32,-32 0,-18 -14,-32 -32,-32zm0 56c-14,0 -25,-11 -25,-25 0,-11 11,-25 25,-25 14,0 25,11 25,25 0,14 -11,25 -25,25z"/>
      <path class="fil0" d="M4537 4338c-18,0 -35,0 -53,0 0,0 0,7 0,11 18,0 35,0 53,0 4,-4 0,-11 0,-11zm836 -3687c0,0 -4,0 -7,0l7 0 0 0zm-991 166c-74,7 -148,14 -219,21 -14,0 -28,4 -42,4 -7,0 -18,4 -25,4 -14,4 -28,4 -39,7 -11,0 -21,4 -35,4 -78,14 -145,28 -194,42 0,0 0,0 0,4 14,-4 28,-11 46,-14 18,-4 35,-7 53,-14 7,-4 18,-4 28,-7 11,-4 18,-4 28,-7 39,-7 85,-14 131,-21 11,0 21,-4 35,-4 14,-4 28,-4 42,-4 21,-4 42,-4 67,-7 11,0 25,-4 39,-4 14,0 25,-4 39,-4 0,0 4,0 4,0 11,0 18,0 28,-4l0 0c4,0 4,0 7,0 0,0 0,0 4,0 -4,7 0,7 4,4l0 0c4,0 0,0 0,0 0,0 0,0 0,0zm-116 -141c0,0 0,0 0,0l46 -4c-14,0 -28,0 -46,4zm-71 7c-18,4 -39,7 -56,11 0,0 -7,0 -14,4 0,4 0,4 0,4l18 -4 53 -14c4,4 0,4 0,0zm-212 39l0 0 18 -4 64 -11 56 -11c0,0 0,-4 0,-4 -35,7 -95,18 -138,28zm-60 3602c-109,-4 -205,-7 -293,-14 -166,-11 -286,-25 -360,-39 -28,-7 -46,-14 -60,-18 -46,-28 -81,-78 -106,-127 -39,-81 -64,-145 -99,-402 -35,-258 -21,-388 -21,-572 0,-109 18,-194 32,-261 0,-4 0,-7 4,-11 0,0 0,0 0,0l0 0c0,-4 0,-4 0,-7 0,-4 0,-4 0,-7 -18,71 -39,162 -39,289l0 18c0,173 -14,307 21,557 35,258 53,303 88,377 7,18 18,39 28,56 0,0 0,0 0,4 25,39 53,74 88,95 18,11 49,18 99,28 71,14 173,21 300,32 0,0 0,0 0,0 92,7 198,11 314,18 18,0 35,0 53,0 0,-4 0,-7 0,-11 -14,-7 -32,-7 -49,-7zm-589 -2501c-11,0 -85,25 -123,88 -35,64 -64,148 -74,261 -7,64 -18,138 -25,208 0,7 0,21 0,35 4,-11 4,-21 7,-35 4,-71 18,-145 25,-208 11,-113 39,-194 74,-258 35,-64 109,-88 120,-88 0,0 0,-4 0,-4l-4 0z"/>
      <path class="fil0" d="M7067 2828c0,4 -28,423 -28,423l0 14c0,0 -7,60 -11,71 -35,134 -85,180 -381,191 -247,11 -713,14 -1281,14l-4 0c-572,0 -1037,-4 -1281,-14 -296,-11 -346,-56 -381,-191 -4,-11 -11,-71 -11,-71l0 -14c0,0 -28,-423 -28,-423 4,14 11,53 18,74 0,0 0,0 0,0 11,42 25,99 35,155 0,4 0,7 4,7 4,14 7,25 11,35 4,14 7,28 11,42 0,4 0,4 0,7 4,11 7,25 7,35l7 21c4,7 4,14 7,21 0,0 0,0 0,0 -4,0 -7,0 -7,0 -21,-88 -74,-296 -74,-303 0,4 7,342 42,448 39,113 120,145 374,148 243,7 699,11 1259,14l25 0c561,0 1020,-7 1259,-14 258,-7 339,-39 374,-148 35,-106 42,-445 42,-448 -4,7 -53,215 -74,303 -4,0 -7,0 -7,0 0,0 0,0 0,0 4,-7 4,-14 7,-21l7 -21c4,-11 7,-21 7,-35 0,-4 0,-4 0,-7 4,-14 7,-28 11,-42 4,-11 7,-25 11,-35 0,-4 0,-7 4,-7 14,-56 28,-109 35,-155 0,0 0,0 0,0 0,-21 7,-60 11,-74z"/>
      <path class="fil0" d="M3761 3241c-4,0 -7,0 -11,0 0,-4 -4,-7 -4,-14 4,0 7,0 7,0 0,4 0,4 4,7 0,4 0,7 4,7z"/>
      <path class="fil0" d="M6968 3230c0,4 0,4 -4,7 0,4 0,4 -4,7 -243,28 -1376,28 -1584,28 0,0 -11,0 -32,0 -212,0 -1344,0 -1584,-28 0,-4 0,-4 -4,-7 0,-4 0,-4 -4,-7 236,28 1390,28 1595,28l28 0c201,0 1358,0 1591,-28z"/>
      <path class="fil0" d="M3761 3241c-4,0 -7,0 -11,0 0,-4 -4,-7 -4,-14 4,0 7,0 7,0 0,4 0,4 4,7 0,4 0,7 4,7z"/>
      <path class="fil0" d="M4368 2186c-4,7 -4,14 -4,21l-755 -7 0 -21 759 7z"/>
      <path class="fil0" d="M3775 3604c0,0 -332,0 -462,0 -131,0 -127,88 -127,88 18,18 53,28 88,39 60,14 123,21 187,21l173 0c85,0 106,-32 106,-32 0,0 28,-28 67,-67 39,-39 -32,-49 -32,-49zm-42 113c0,0 -4,4 -14,11 -4,0 -4,4 -7,4 -4,4 -11,4 -18,7 -7,4 -14,4 -25,4 -11,0 -25,4 -39,4l-169 0c-14,0 -32,0 -46,0 -14,0 -28,0 -42,-4 -4,0 -7,0 -11,0 -11,0 -21,-4 -32,-4 -4,0 -7,0 -11,0 -14,-4 -28,-4 -39,-7 -14,-4 -28,-7 -39,-11 0,0 0,0 0,0 -4,0 -7,-4 -11,-4 11,-21 39,-42 102,-42 113,0 406,0 406,0 0,0 18,4 32,11 -25,14 -39,32 -39,32zm64 -60c-7,7 -14,14 -21,21 -11,-11 -32,-14 -32,-14 0,0 -293,0 -406,0 -67,0 -95,28 -106,49 -7,-4 -14,-7 -21,-7 -7,-4 -11,-7 -14,-11 0,-4 0,-78 123,-78 123,0 445,0 445,0 0,0 67,4 32,39z"/>
      <path class="fil0" d="M3253 3710c4,0 7,4 11,4 0,0 0,0 0,0 11,4 21,4 35,7 11,4 25,4 35,7 4,0 7,0 11,0 11,0 18,4 28,4 4,0 7,0 11,0 14,0 25,0 39,4 14,0 28,0 42,0l155 0c14,0 28,0 39,-4 7,0 18,-4 21,-4 7,0 14,-4 18,-4 4,0 4,0 7,-4 11,-4 14,-7 14,-7 0,0 14,-11 35,-28 -11,-4 -21,-4 -21,-4 0,0 -268,0 -370,0 -71,-4 -95,14 -109,28z"/>
      <path class="fil0" d="M7444 4144c-56,18 -99,18 -159,18l-138 0c-88,0 -191,-208 -335,-208 -363,0 -1090,4 -1383,4l-35 0c-4,0 -7,0 -14,0 -21,0 -49,0 -81,0 -293,0 -1020,-4 -1383,-4 -148,0 -247,208 -339,208l-134 0c-60,0 -102,-4 -159,-18 -42,-14 -46,-39 -4,-25 53,14 99,21 155,21l145 0c81,0 187,-208 328,-208 420,0 1270,4 1478,4 4,0 7,0 11,0 265,0 1037,-4 1432,-4 141,0 247,208 328,208l145 0c56,0 99,-7 152,-21 32,-14 32,11 -11,25z"/>
      <path class="fil0" d="M5426 3957l0 0c0,0 -11,0 -32,0l32 0z"/>
      <path class="fil0" d="M3630 4310c-7,4 -18,7 -25,11 0,0 0,0 0,0 -127,-7 -229,-18 -300,-32 -7,-4 -71,-21 -74,-25 -7,-4 -35,-18 -39,-21 -28,-25 -53,-53 -71,-78 0,0 0,0 0,-4 -11,-18 -21,-39 -28,-56 4,0 7,4 14,11 0,0 4,4 4,4 25,53 60,102 106,127 11,7 32,14 60,18 67,21 191,35 353,46z"/>
      <path class="fil0" d="M4541 4349c-18,0 -35,0 -53,0l0 0c0,-4 0,-7 0,-11 -4,-35 -21,-67 -49,-88 -11,-7 -21,-11 -32,-14 -11,-4 -18,-4 -28,-4l-289 0c-4,0 -11,0 -14,0 -4,0 -7,0 -11,4 -7,0 -11,4 -18,7 -4,4 -11,4 -14,7 -7,4 -14,11 -21,18 -18,18 -28,39 -32,60 0,4 0,7 0,11 -18,0 -35,0 -53,0 0,-4 0,-7 0,-11 11,-74 71,-134 145,-141l0 0c4,0 11,0 14,0l293 0c46,0 85,18 113,46 28,28 46,67 46,109 0,-4 4,4 4,7z"/>
      <path class="fil0" d="M4717 4289l318 0 0 0c0,-39 -32,-71 -71,-71l-176 0c-39,0 -71,28 -71,71l0 0z"/>
      <path class="fil0" d="M5504 4289l-286 0c0,-39 32,-71 71,-71l145 0c39,-4 71,32 71,71z"/>
      <path class="fil0" d="M4460 4310c0,0 0,-4 0,-4 0,-4 0,-7 -4,-7l-7 -14 0 0 -14 -32c-11,-7 -21,-11 -32,-14l7 14c0,0 0,0 0,0 -4,0 -7,-4 -11,-4 -4,0 -7,0 -11,0l-310 0c-4,0 -7,0 -11,0 -4,0 -7,0 -11,4 0,0 0,0 0,0l7 -14c-7,0 -11,4 -18,7 -4,4 -11,4 -14,7l-18 35c0,0 0,0 0,0l-7 14c0,4 0,7 -4,7 0,0 0,4 0,4 0,4 0,7 0,11 0,4 0,7 0,7 0,4 0,7 4,11 0,4 4,7 4,11 0,4 0,4 4,7 0,4 4,4 4,7 0,0 4,4 4,4 14,18 35,28 60,28l310 0c21,0 39,-7 53,-21 0,0 4,-4 4,-7 4,-4 7,-11 11,-18 0,-4 4,-7 4,-11 0,0 0,-4 0,-4 0,-4 0,-7 4,-11 0,0 0,0 0,0 0,-4 0,-4 0,-7 -7,-4 -7,-7 -7,-11zm-21 11c0,32 -28,60 -64,60l-286 0c-35,0 -64,-28 -64,-60l0 -4c0,-32 28,-60 64,-60l289 0c32,4 60,28 60,64l0 0z"/>
      <path class="fil0" d="M4079 4370l303 0 -28 -18c-7,0 -14,-4 -25,-4l-201 0c-11,0 -18,0 -25,4l-25 18z"/>
      <path class="fil0" d="M4135 877l-448 632c28,-141 71,-279 106,-385l236 -233c35,-4 71,-7 106,-14z"/>
      <path class="fil0" d="M4763 835l-889 960 0 0c-60,0 -109,-4 -148,-4l600 -931c11,0 25,-4 28,-4 4,42 4,109 4,113 0,11 11,11 11,11 0,0 88,-4 116,-4 21,0 28,-32 28,-32l25 -102c81,0 155,-4 226,-7z"/>
      <path class="fil0" d="M5059 828l-526 977c-169,-4 -321,-4 -448,-7l804 -967 0 0c60,0 116,-4 169,-4z"/>
      <path class="fil0" d="M5655 828l-716 981c-113,0 -222,0 -325,-4l653 -981c46,0 78,0 95,0l4 0c28,4 141,4 289,4z"/>
      <path class="fil0" d="M6079 838l-790 970c-64,0 -127,0 -191,0l621 -981c106,4 233,7 360,11z"/>
      <path class="fil0" d="M6234 969l81 0 -363 843c-138,0 -286,4 -441,4l639 -967c11,0 21,0 32,0l25 99c0,-4 0,21 28,21z"/>
      <path class="fil0" d="M6749 902l-469 903c-64,0 -127,0 -194,4l363 -945c21,0 39,4 56,7 14,0 28,4 42,4 11,0 21,4 35,4 46,7 88,11 127,18 11,0 18,4 28,4 0,4 4,4 11,4z"/>
      <path class="fil0" d="M6961 1212l-483 593 0 0c-32,0 -67,0 -102,0l473 -875c4,0 7,4 11,4 7,14 56,127 102,279z"/>
      <path class="fil0" d="M7067 1703l-56 88c-56,0 -155,4 -286,7l275 -452c32,116 60,240 67,356z"/>
     </g>
     <g>
      <path class="fil0" d="M7695 3911l0 -14c-4,28 -11,49 -14,71l0 0c0,4 -4,7 -4,14 0,0 4,0 4,0l0 7 4 71c-7,0 -21,4 -32,4 -4,7 -4,11 -7,18 14,-4 28,-4 39,-7l0 74c-18,4 -46,7 -74,11 0,4 -4,4 -4,7 0,0 0,0 0,4 0,4 -4,7 -4,7 28,-4 64,-7 85,-14l0 74c-28,7 -85,21 -127,14l0 -18c0,4 -4,4 -4,4l0 25c-4,25 -4,46 -4,71l0 18c0,25 -4,46 -4,71 0,7 0,7 0,11 -11,64 -14,109 -25,148l0 7c0,0 0,4 0,4 -4,11 -4,14 -7,25 -7,18 -11,28 -14,39l-183 0c4,-11 11,-25 14,-39 0,4 4,4 7,4l127 0c4,-11 4,-18 11,-28 25,-71 35,-145 28,-219 0,-18 -4,-35 -14,-53 -14,-18 -35,-21 -60,-28 0,0 0,0 0,0 0,0 0,0 0,0 -18,4 -39,7 -60,11 0,0 -4,0 -4,0 -4,0 -4,0 -7,0 -4,131 -14,219 -28,282 -7,28 -14,49 -21,71l-102 0c0,0 -32,0 -64,-21 0,0 0,0 4,-4 0,0 0,0 0,-7 0,-4 0,-4 0,-7l120 0c4,-11 4,-18 11,-28 25,-71 32,-145 28,-219 0,-18 -4,-35 -14,-53 -4,-4 -7,-7 -11,-7 -35,4 -71,7 -109,11 -4,0 -4,0 -7,0 -7,0 -11,0 -14,0 0,11 0,21 -4,32l0 18c0,28 -4,53 -4,74l0 18c0,11 -4,25 -4,35l0 32c-7,-18 -14,-39 -18,-67 -7,-28 -14,-81 -18,-138 -21,0 -42,4 -64,4 -7,0 -14,0 -21,0 -7,0 -14,0 -25,0 4,102 11,187 14,208 0,7 0,7 0,7 4,11 4,18 11,28 25,71 64,99 99,116 4,0 14,7 18,7 11,7 14,7 18,7 28,7 53,0 53,0l307 0c32,7 64,0 85,-7 32,-11 56,-28 71,-46 11,-11 18,-25 25,-39 4,-11 11,-28 11,-39 11,-39 11,-71 11,-71 4,-46 0,-88 4,-134 4,-99 4,-208 4,-310l-32 -141zm-191 741c4,-7 4,-11 7,-18l81 0c-21,7 -49,18 -88,18zm159 -113c-4,18 -11,35 -18,46 -4,0 -4,4 -7,7 7,-25 14,-49 18,-74 4,0 7,0 11,0 0,7 0,18 -4,21zm11 -74c0,0 0,7 0,25 0,0 0,7 0,11 0,4 -4,4 -4,7 -4,0 -7,0 -11,0 4,-28 7,-56 7,-85 4,0 7,-4 11,-4 -4,21 -4,32 -4,46zm7 -56c0,0 -4,0 0,0 -4,4 -11,4 -14,4 0,-4 0,-7 0,-11 0,-18 0,-35 -11,-46 -4,-7 -11,-11 -18,-18 14,-4 28,-7 42,-7l0 78zm4 -162c-4,21 -4,49 -4,71 -18,4 -39,11 -64,11 -4,0 -7,-4 -14,-4 -14,0 -32,-4 -49,-7 0,0 0,0 0,0l0 -56c32,-4 99,-7 131,-14l0 0z"/>
      <path class="fil0" d="M3031 3911l0 -14c4,28 11,49 14,71l0 0c0,4 4,7 4,14 0,0 -4,0 -4,0l0 7 -4 71c7,0 21,4 32,4 4,7 4,11 7,18 -14,-4 -28,-4 -39,-7l0 74c18,4 46,7 74,11 0,4 4,4 4,7 0,0 0,0 0,4 0,4 4,7 4,7 -28,-4 -64,-7 -85,-14l0 74c28,7 85,21 127,14l0 -18c0,4 4,4 4,4l0 25c4,25 4,46 4,71l0 18c0,25 4,46 4,71 0,7 0,7 0,11 11,64 14,109 25,148l0 7c0,0 0,4 0,4 4,11 4,14 7,25 7,18 11,28 14,39l183 0c-4,-11 -11,-25 -14,-39 0,4 -4,4 -7,4l-127 0c-4,-11 -4,-18 -11,-28 -25,-71 -35,-145 -28,-219 0,-18 4,-35 14,-53 14,-18 35,-21 60,-28 0,0 0,0 0,0 0,0 0,0 0,0 18,4 39,7 60,11 0,0 4,0 4,0 4,0 4,0 7,0 4,131 14,219 28,282 7,28 14,49 21,71l102 0c0,0 32,0 64,-21 0,0 0,0 -4,-4 0,0 0,0 0,-7 0,-4 0,-4 0,-7l-120 0c-4,-11 -4,-18 -11,-28 -25,-71 -32,-145 -28,-219 0,-18 4,-35 14,-53 4,-4 7,-7 11,-7 35,4 71,7 109,11 4,0 4,0 7,0 7,0 11,0 14,0 0,11 0,21 4,32l0 18c0,28 4,53 4,74l0 18c0,11 4,25 4,35l0 32c7,-18 14,-39 18,-67 7,-28 14,-81 18,-138 21,0 42,4 64,4 7,0 14,0 21,0 7,0 14,0 25,0 -4,102 -11,187 -14,208 0,7 0,7 0,7 -4,11 -4,18 -11,28 -25,71 -64,99 -99,116 -4,0 -14,7 -18,7 -11,7 -14,7 -18,7 -28,7 -53,0 -53,0l-307 0c-32,7 -64,0 -85,-7 -32,-11 -56,-28 -71,-46 -11,-11 -18,-25 -25,-39 -4,-11 -11,-28 -11,-39 -11,-39 -11,-71 -11,-71 -4,-46 0,-88 -4,-134 -4,-99 -4,-208 -4,-310l32 -141zm191 741c-4,-7 -4,-11 -7,-18l-81 0c21,7 49,18 88,18zm-162 -113c4,18 11,35 18,46 4,0 4,4 7,7 -7,-25 -14,-49 -18,-74 -4,0 -7,0 -11,0 0,7 4,18 4,21zm-7 -74c0,0 0,7 0,25 0,0 0,7 0,11 0,4 4,4 4,7 4,0 7,0 11,0 -4,-28 -7,-56 -7,-85 -4,0 -7,-4 -11,-4 4,21 4,32 4,46zm-7 -56c0,0 0,0 0,0 4,4 11,4 14,4 0,-4 0,-7 0,-11 0,-18 0,-35 11,-46 4,-7 11,-11 18,-18 -14,-4 -28,-7 -42,-7l0 78zm-4 -162c4,21 4,49 4,71 18,4 39,11 64,11 4,0 7,-4 14,-4 14,0 32,-4 49,-7 0,0 0,0 0,0l0 -56c-32,-4 -99,-7 -131,-14l0 0z"/>
     </g>
     <ellipse id="shadow" class="fil0" cx="5349" cy="4659" rx="2554" ry="78"/>
    </g>
    <g id="plate">
     <path class="fil0" d="M6104 2521l-1482 0c-25,0 -46,21 -46,46l0 247c0,25 21,46 46,46l1482 0c25,0 46,-21 46,-46l0 -247c0,-25 -21,-46 -46,-46zm-1517 289l0 -247c0,-18 14,-32 32,-32l268 0c7,0 11,4 11,11l0 293c0,7 -4,11 -11,11l-265 0c-18,4 -35,-14 -35,-35zm1552 -4c0,21 -18,42 -42,42l-1175 0c-7,0 -11,-4 -11,-11l0 -293c0,-7 4,-11 11,-11l1178 0c21,0 39,18 39,39l0 233z"/>
     <g>
      <rect class="fil0" x="5998" y="2599" width="106" height="21"/>
      <rect class="fil0" x="5998" y="2624" width="106" height="21"/>
      <path class="fil0" d="M5998 2571l0 21 106 0 0 -21 -106 0zm18 21c0,0 -4,0 0,0 -7,0 -11,-4 -11,-7 0,-4 4,-7 7,-7l0 0c-4,0 -7,4 -7,7 4,0 7,4 11,7zm7 0l0 0 0 0 0 0 -4 -4 4 4 0 0 0 0 0 0 0 0 0 0zm7 0l0 0 0 0 0 0 -4 -4 4 4 0 0 0 0 0 0 0 0 0 0zm0 -7l0 0 0 0 0 0 0 0 -4 0 4 0 0 0 0 0 0 0 0 0zm7 7l0 0 0 0 0 0 -4 -4 4 4 0 0 0 0 0 0 0 0 0 0zm0 -7l0 0 0 0 0 0 0 0 -4 0 4 0 0 0 0 0 0 0 0 0zm0 -7l0 0 0 0 0 0 0 0 -4 0 4 0 0 0 0 0 0 0 0 0zm7 14l0 0 0 0 0 0 -4 -4 4 4 0 0 0 0 0 0 0 0 0 0zm0 -7l0 0 0 0 0 0 0 0 -4 0 4 0 0 0 0 0 0 0 0 0zm0 -7l0 0 0 0 0 0 0 0 -4 0 4 0 0 0 0 0 0 0 0 0zm4 14l0 0 0 0 0 0 -4 -4 4 4 0 0 0 0 0 0 0 0 0 0zm0 -7l0 0 0 0 0 0 0 0 -4 0 4 0 0 0 0 0 0 0 0 0zm0 -7l0 0 0 0 0 0 0 0 -4 0 4 0 0 0 0 0 0 0 0 0z"/>
     </g>
     <g>
      <path class="fil0" d="M6012 2744l0 42c0,14 4,21 14,21 7,0 14,-7 14,-21l0 -42 11 0 0 39c0,21 -11,32 -25,32 -14,0 -25,-11 -25,-32l0 -39 11 0z"/>
      <polygon class="fil0" points="6058,2807 6089,2754 6089,2754 6061,2754 6061,2744 6107,2744 6107,2751 6075,2804 6075,2804 6107,2804 6107,2814 6058,2814 "/>
     </g>
     <circle class="fil0" cx="4604" cy="2687" r="7"/>
     <circle class="fil0" cx="6121" cy="2687" r="7"/>
    </g>
    <g id="logo">
     <path class="fil0" d="M5433 2243l0 -28 -141 0 0 28 -106 0 -49 88 152 0 0 28 141 0 0 -28 106 0 49 -88 -152 0zm78 74l-99 0 0 28 -106 0 0 -28 -123 0 28 -49 95 0 0 -32 106 0 0 32 127 0 -28 49z"/>
     <polygon class="fil0" points="5525,2271 5500,2313 5405,2313 5405,2341 5313,2341 5313,2313 5197,2313 5222,2271 5313,2271 5313,2243 5405,2243 5405,2271 "/>
    </g>
   </g>
  </g>
 </g>
</svg>
