<?xml version="1.0" encoding="UTF-8"?>
<!DOCTYPE svg PUBLIC "-//W3C//DTD SVG 1.1//EN" "http://www.w3.org/Graphics/SVG/1.1/DTD/svg11.dtd">
<!-- Creator: CorelDRAW 2021 (64-Bit) -->
<svg xmlns="http://www.w3.org/2000/svg" xml:space="preserve" width="84mm" height="53mm" version="1.1" style="shape-rendering:geometricPrecision; text-rendering:geometricPrecision; image-rendering:optimizeQuality; fill-rule:evenodd; clip-rule:evenodd"
viewBox="0 0 8400 5300"
 xmlns:xlink="http://www.w3.org/1999/xlink"
 xmlns:xodm="http://www.corel.com/coreldraw/odm/2003">
 <defs>
  <style type="text/css">
   <![CDATA[
    .fil0 {fill:black;fill-rule:nonzero}
   ]]>
  </style>
 </defs>
 <g id="Слой_x0020_1">
  <metadata id="CorelCorpID_0Corel-Layer"/>
  <g id="_2839921799104">
   <g>
    <g>
     <path class="fil0" d="M8289 830c-34,-4 -74,-6 -119,-8 -2,0 -3,0 -5,0 -256,-14 -656,-13 -813,-12 0,0 0,0 -1,0 -158,-1 -557,-1 -813,12 -2,0 -3,0 -5,0 -44,2 -85,5 -119,8 -2,0 -13,1 -16,1 -47,4 -99,9 -140,13 -7,1 -12,-5 -11,-12 8,-36 18,-66 23,-85l1 -5 0 -1c-2,0 -5,0 -7,1l0 0 -2 11c-6,19 -16,49 -23,85 -1,7 4,13 11,12 40,-4 93,-9 139,-13 3,0 13,-1 16,-1 34,-4 74,-6 119,-8 2,0 3,0 5,0 261,-14 670,-13 822,-12 0,0 0,0 1,0 152,-1 561,-1 822,12 2,0 3,0 5,0 44,2 85,5 119,8 2,0 13,1 16,1 26,2 53,5 79,7l0 -6c-29,-3 -59,-5 -88,-8 -3,0 -13,-1 -16,-1z"/>
     <path class="fil0" d="M6030 949c-5,1 -27,4 -40,6l-152 93c-32,74 -52,148 -66,216l451 -337c-78,8 -142,15 -193,23z"/>
     <path class="fil0" d="M6451 911c0,0 0,0 -1,0 0,0 -1,0 -1,0 -5,-1 -9,-2 -12,-3 -4,0 -43,4 -77,6l-3 0 -597 418c-17,120 -13,212 -12,235 12,0 49,1 111,2l610 -655c-7,-1 -12,-3 -18,-3z"/>
     <path class="fil0" d="M6742 942c-49,0 -97,-3 -141,-8l-652 636c41,1 89,1 142,2l784 -631 -134 0z"/>
     <path class="fil0" d="M7006 942l-673 633c104,1 221,1 353,2l469 -635 -149 0z"/>
     <path class="fil0" d="M7352 942c0,0 0,0 -1,0l-19 0 -477 636c127,1 265,1 414,1l292 -637 -210 0z"/>
     <path class="fil0" d="M7709 942l-378 637 20 0c0,0 0,0 1,0l110 0 458 -637 -210 0z"/>
     <path class="fil0" d="M7558 1578c74,0 146,0 214,0l423 -657c-38,6 -86,13 -139,17l-498 640z"/>
     <path class="fil0" d="M7899 1578c54,0 105,-1 155,-1l339 -330 0 -328c0,0 -1,0 -1,0l-492 659z"/>
     <path class="fil0" d="M8392 1574l0 -142 -169 144c60,0 116,-1 169,-2z"/>
     <path class="fil0" d="M7261 2030l0 38 -145 0 -67 120 207 0 0 38 192 0 0 -38 145 0 67 -120 -207 0 0 -38 -192 0zm337 72l-38 67 -135 0 0 38 -144 0 0 -38 -168 0 38 -67 130 0 0 -43 144 0 0 43 173 0z"/>
     <polygon class="fil0" points="7414,2068 7289,2068 7289,2106 7164,2106 7130,2164 7289,2164 7289,2203 7414,2203 7414,2164 7544,2164 7578,2106 7414,2106 "/>
     <path class="fil0" d="M5121 4468l0 -11c-11,-39 -14,-85 -25,-148 0,-4 0,-4 0,-11 0,-25 -4,-46 -4,-71l0 -18c0,-5 0,-9 0,-14 -18,4 -35,7 -49,7 -7,0 -11,4 -14,4 -25,0 -46,-7 -64,-11 0,-21 0,-49 -4,-71 10,2 24,4 38,6 -5,-3 -9,-6 -13,-10 -11,-2 -21,-5 -29,-7l0 -19 0 0c0,0 0,0 0,0l0 0c-16,-18 -28,-39 -39,-61 0,0 0,0 0,0 0,0 0,0 0,0 0,0 0,0 0,0 0,71 1,142 4,208 4,46 0,88 4,134 0,0 0,32 11,71 0,11 7,28 11,39 3,5 5,11 8,16 49,-4 106,-7 171,-10 -3,-9 -3,-13 -7,-23zm-152 -169c4,0 7,4 11,4 0,28 4,56 7,85l-11 0c0,-4 -4,-4 -4,-7 0,-4 0,-11 0,-11 0,-18 0,-25 0,-25 0,-14 0,-25 -4,-46zm28 166c-7,-11 -14,-28 -18,-46 0,-4 -4,-14 -4,-21l11 0c4,25 11,49 18,74 -4,-4 -4,-7 -7,-7zm-7 -229c-11,11 -11,28 -11,46l0 11c-4,0 -11,0 -14,-4l0 -78c14,0 28,4 42,7 -7,7 -14,11 -18,18z"/>
     <path class="fil0" d="M5306 4435c-1,-8 -3,-17 -4,-25 0,-2 -1,-3 -1,-5 -1,-4 -1,-8 -2,-12 -1,-5 -1,-10 -2,-16 -1,-5 -2,-11 -2,-16 -7,-50 -11,-110 -13,-183 0,0 0,0 0,-1l0 -2c-2,0 -26,-2 -47,-3 2,1 5,1 8,1 -9,-1 -17,-2 -25,-3 -2,0 -3,0 -5,0 -2,0 -4,0 -6,-1 -22,6 -41,11 -54,26 -11,18 -14,35 -14,53 -7,74 4,148 28,219 5,8 7,14 8,21 44,-2 92,-4 142,-6 -2,-7 -4,-14 -6,-22 -2,-8 -4,-16 -5,-25z"/>
     <path class="fil0" d="M5633 4418c0,0 0,0 0,-7 3,-20 10,-101 14,-200 -37,-3 -73,-6 -109,-9 -4,55 -11,107 -17,135 -4,28 -11,49 -18,67l0 -32c0,-11 -4,-25 -4,-35l0 -18c0,-21 -4,-46 -4,-74l0 -18c-4,-10 -4,-20 -4,-30 -45,-4 -89,-8 -131,-12 -3,0 -7,4 -10,7 -11,18 -14,35 -14,53 -4,74 4,148 28,219 4,6 6,11 7,17 74,-3 154,-5 239,-7 4,-8 8,-17 11,-27 7,-11 7,-18 11,-28z"/>
     <polygon class="fil0" points="5674,2142 5656,2116 5639,2116 5639,2166 5655,2166 5655,2136 5669,2157 5678,2157 5693,2136 5693,2166 5708,2166 5708,2116 5691,2116 "/>
     <path class="fil0" d="M5747 2116l-23 50 16 0 5 -11 22 0 5 11 16 0 -23 -50 -17 0zm1 31l8 -19 8 19 -16 0z"/>
     <polygon class="fil0" points="5819,2116 5804,2116 5804,2166 5852,2166 5852,2155 5819,2155 "/>
     <rect class="fil0" x="5868" y="2116" width="16" height="50"/>
     <path class="fil0" d="M5950 2140c3,-1 6,-3 7,-5 2,-2 2,-4 2,-7 0,-2 -1,-4 -2,-6 -1,-2 -3,-4 -5,-5 -2,-1 -5,-2 -8,-2l-37 0 0 50 33 0c4,0 8,0 12,-1 3,-1 6,-2 8,-4 2,-2 3,-4 3,-7 0,-3 -1,-6 -3,-8 -2,-2 -5,-4 -9,-5zm-28 -15l16 0c1,0 2,0 3,1 1,0 2,1 2,2 1,1 1,2 1,3 0,1 0,2 -1,3 -1,1 -1,1 -2,2 -1,0 -2,1 -3,1l-15 0 0 -10zm23 28c-1,1 -1,1 -3,2 -1,0 -2,1 -4,1l-17 0 0 -11 18 0c1,0 2,0 3,1 1,0 2,1 2,2 1,1 1,2 1,3 0,1 0,2 -1,3z"/>
     <path class="fil0" d="M6024 2141c0,2 0,4 -1,5 -1,2 -1,3 -2,5 -1,1 -3,3 -4,3 -2,1 -4,1 -7,1 -3,0 -5,0 -7,-1 -2,-1 -3,-2 -4,-3 -1,-1 -2,-3 -2,-5 -1,-2 -1,-4 -1,-5l0 -26 -16 0 0 26c0,3 1,6 2,9 1,3 3,6 5,8 2,2 5,4 9,6 4,1 8,2 14,2 5,0 10,-1 14,-2 4,-1 7,-3 9,-5 2,-2 4,-5 5,-8 1,-3 2,-6 2,-10l0 -26 -15 0 0 26z"/>
     <path class="fil0" d="M7311 4453c-653,0 -1248,7 -1700,20 -85,2 -165,5 -239,7 -18,1 -37,1 -54,2 -50,2 -98,4 -142,6 -16,1 -32,2 -48,2 -65,3 -122,7 -171,10 -129,9 -200,19 -200,30 0,13 101,25 278,35 63,4 134,7 215,11 465,19 1214,32 2061,32 387,0 753,-3 1081,-7l0 -141c-328,-5 -695,-7 -1081,-7z"/>
     <g>
      <path class="fil0" d="M5368 2251l-180 -28c-29,-4 -58,-9 -87,-12 -24,-3 -73,-8 -88,-32 0,0 -1,-1 -1,-1 -20,2 -72,146 -82,310 0,0 -1,13 0,33 2,25 17,42 45,42l395 0c11,0 22,-6 27,-16l33 -58c16,-28 22,-42 13,-76l-1 -2 -50 -146c-6,-8 -15,-14 -25,-15zm64 162c8,32 2,46 -12,72l-31 55c-5,10 -15,15 -26,15l-377 0c-26,0 -40,-16 -42,-40 -1,-19 -1,-32 -1,-32 9,-157 53,-291 72,-293 0,0 1,0 1,0 20,20 67,25 89,28 28,3 56,7 83,11l171 27c10,1 18,7 24,14l48 139 0 2z"/>
      <path class="fil0" d="M5186 3893c83,-7 273,17 404,37 1,0 1,0 2,0l0 0c3,0 5,-2 5,-6 0,-2 -1,-4 -3,-5 -1,0 -2,-1 -2,-1 -109,-28 -382,-95 -489,-95 -111,0 -127,62 -130,83 0,2 1,4 9,5l109 10c3,0 6,-1 9,-2 18,-13 45,-24 85,-28zm-95 24l-104 -9c-7,-1 -9,-2 -9,-5 2,-19 18,-75 125,-75 102,0 362,63 467,88 1,0 2,0 2,1 2,0 3,2 3,4 0,3 -2,5 -5,5l0 0c-1,0 -2,0 -2,0 -126,-18 -306,-42 -385,-35 -39,3 -65,13 -82,25 -2,1 -6,2 -8,2z"/>
      <path class="fil0" d="M5553 3921l2 0c2,0 4,-2 4,-5 0,-1 -1,-3 -3,-3 0,0 -1,-1 -2,-1 -94,-22 -364,-79 -455,-79 -96,0 -110,49 -112,66 0,2 1,4 8,4l94 8c2,0 6,0 8,-2 16,-11 43,-22 78,-24 94,-7 192,8 378,36zm-538 -23l-1 -1c-1,-1 -1,-4 1,-7l24 -39c2,-3 5,-5 6,-4l1 1c1,1 1,4 -1,7l-24 39c-2,3 -4,5 -6,4zm17 0l-1 -1c-1,-1 -1,-4 1,-7l24 -39c2,-3 4,-5 6,-4l1 1c1,1 1,4 -1,7l-24 39c-2,3 -5,5 -6,4zm17 0l-1 -1c-1,-1 -1,-4 1,-7l24 -39c2,-3 4,-5 6,-4l1 1c1,1 1,4 -1,7l-24 39c-2,3 -5,5 -6,4zm76 -41c-32,0 -53,36 -53,36 -2,3 -5,5 -6,4l-1 -1c-1,-1 -1,-4 1,-7 0,0 0,-1 1,-2 1,-2 4,-7 8,-12 9,-12 25,-26 51,-26l214 24c17,2 30,5 30,6l0 2c0,1 -14,1 -31,-1l-214 -24z"/>
      <path class="fil0" d="M5279 3972c-46,0 -91,14 -109,54 -20,44 11,98 59,104 349,46 604,57 810,60 0,0 0,0 1,0 23,0 43,-17 43,-40 1,-20 -14,-38 -34,-41l-715 -131c-17,-4 -36,-6 -55,-6zm755 139c18,3 31,17 32,33 0,-1 0,-1 0,-2l0 5c0,-1 0,-2 0,-3 -1,20 -20,39 -43,39 -199,-2 -445,-18 -782,-58 -46,-6 -75,-54 -57,-93 17,-36 61,-48 105,-48 18,0 36,2 53,5l690 121z"/>
      <path class="fil0" d="M5740 4163c45,2 117,10 171,4 42,-5 74,-18 74,-48 0,-4 -1,-8 -5,-8l-397 -70c-1,0 -2,0 -2,1 -1,0 -2,0 -3,1 -1,1 -2,3 -2,5 2,21 12,40 26,56 29,34 80,57 138,59z"/>
      <path class="fil0" d="M5359 2351l-233 -26c-13,-2 -24,-11 -28,-24l-14 -60c-2,-9 -9,-16 -18,-18 -13,-3 -26,-7 -37,-14l-18 1c-4,6 -8,15 -13,27l32 94c7,21 26,36 48,38l98 10 63 6 -161 0c-15,0 -29,9 -35,23l-8 17 -46 101c-4,8 2,17 11,17 13,0 31,0 43,1 3,0 5,-1 8,-2 4,-2 7,-5 9,-9l44 -87c4,-8 13,-14 22,-14l230 -10c6,0 12,-2 17,-6 10,-6 16,-16 17,-28 0,-1 0,-2 0,-3 0,-2 0,-5 -1,-7 -3,-14 -16,-26 -31,-28z"/>
      <path class="fil0" d="M5614 2542l28 0 11 0c4,-1 7,-4 10,-6l34 -48c5,-6 13,-10 23,-10l300 1c19,-1 44,-23 44,-37 0,-12 -16,-32 -34,-34l-303 -26c-13,-1 -24,-8 -27,-17l-13 -32c-1,-4 -5,-7 -10,-10l-58 -8c-10,-1 -16,7 -16,16 0,2 0,4 1,6 0,0 0,0 0,1l29 59c7,14 26,25 48,26l231 19 -231 -8c-16,0 -29,6 -35,16l-34 52 -18 28c0,0 0,0 0,1 4,10 12,13 21,13z"/>
      <path class="fil0" d="M5210 2442c-12,0 -23,1 -32,1 -23,1 -38,1 -38,1 -9,1 -17,5 -21,13 0,0 -31,60 -41,79 -1,2 0,6 4,6l219 0c7,0 14,-4 18,-9l55 -89c2,-3 0,-7 -4,-7 -25,1 -101,4 -158,6zm64 49c0,23 -20,42 -43,42 -23,0 -43,-19 -43,-42 0,0 0,0 0,-1 0,-24 19,-43 43,-43 24,0 43,19 43,43 0,0 0,0 0,1z"/>
      <path class="fil0" d="M5231 2510c-10,0 -19,-8 -19,-18l-16 0c0,10 4,18 11,25 6,6 15,10 25,10 10,0 18,-4 25,-10 6,-6 10,-15 11,-25l-16 0c0,10 -9,18 -19,18z"/>
      <path class="fil0" d="M5250 2491c0,-5 -2,-10 -6,-14 -3,-3 -8,-5 -13,-5 -5,0 -9,2 -13,5 -4,3 -6,8 -6,14 0,0 0,0 0,1l38 0c0,0 0,0 0,-1z"/>
      <path class="fil0" d="M5854 2521c-5,0 -9,-4 -9,-8l0 0 0 0 -7 0c0,9 7,16 16,16 2,0 4,0 6,-1 1,-1 2,-1 3,-2 1,0 1,-1 2,-1 3,-3 5,-7 5,-11l-8 0c0,5 -4,8 -9,8z"/>
      <path class="fil0" d="M5862 2512c0,-2 -1,-4 -3,-6 -2,-2 -4,-3 -6,-3 -5,0 -9,4 -9,9 0,0 0,0 0,0l17 0c0,0 0,0 0,0z"/>
      <path class="fil0" d="M7351 3946l-1660 -12c-4,0 -5,6 -1,6l288 54c48,9 96,14 144,16 200,6 798,22 1228,24 0,0 0,0 1,0 333,-1 769,-11 1040,-19l0 -77 -1040 7 -1 0z"/>
      <path class="fil0" d="M6276 831c40,-4 91,-8 136,-12 3,0 13,-1 16,-1 33,-3 72,-6 116,-8 2,0 3,0 5,0 255,-13 655,-12 803,-12 0,0 0,0 1,0 148,-1 548,-1 803,12 2,0 3,0 5,0 43,2 83,5 116,8 2,0 13,1 16,1 33,3 69,6 101,8l0 -99c-405,-31 -993,-37 -993,-37l-95 0c0,0 -610,6 -1015,39 -126,10 -295,39 -295,39 0,0 -1,-1 -2,-3 -5,-5 -46,6 -91,41 -33,26 -162,112 -399,543 -248,451 -157,390 -279,539 0,0 -130,93 -162,148 -1,2 -3,5 -4,7 0,0 0,0 0,1 -23,52 -25,60 -25,60 0,0 -7,14 -19,23 -5,3 -10,5 -16,6 -23,2 -90,180 -101,380 0,0 -2,13 -6,37 -11,78 -36,274 -36,553 0,367 23,697 23,697 0,0 -4,131 43,234 0,0 0,0 0,0 0,0 0,0 0,0 0,-8 0,-17 0,-25 -39,-99 -35,-216 -35,-216 0,0 -23,-328 -23,-693 0,-262 22,-451 34,-536 10,23 26,41 53,41l604 0c2,0 5,2 6,4 24,75 46,139 56,168 33,89 13,445 1736,453 0,0 0,0 1,0 459,-2 795,-29 1040,-69l0 -7c-245,40 -580,67 -1040,69 0,0 0,0 -1,0 -1717,-8 -1697,-363 -1730,-452 -10,-28 -31,-90 -55,-162 0,-2 1,-4 3,-4l491 0c14,0 28,-6 37,-17l175 -201c10,-11 4,-29 -11,-31l-813 -127 0 -4c-2,-145 -26,-201 -38,-219 15,-4 30,-8 45,-11 448,-97 1632,-97 1897,-96 0,0 0,0 1,0 151,-1 599,-1 1040,17l0 -13c-441,-18 -889,-18 -1040,-17 0,0 0,0 -1,0 -242,-1 -1253,0 -1767,74 -61,9 -121,22 -181,37 1,-108 117,-320 166,-369 44,-44 144,-42 163,-41l6 0c0,0 538,11 1613,11 0,0 0,0 1,0 434,0 781,-2 1040,-4l0 -5c-260,2 -607,4 -1040,4 0,0 0,0 -1,0 -1018,0 -1559,-11 -1613,-12 -3,-44 -15,-345 125,-619 0,0 0,0 0,-1 0,0 1,0 1,0l0 0c11,-2 35,-7 70,-13 11,-2 24,-4 38,-6 10,-1 43,-6 49,-7 70,-10 162,-21 280,-32 4,0 26,-2 50,-5l1 0c35,-3 74,-6 78,-7 4,1 7,2 12,3 0,0 1,0 1,0 0,0 0,0 1,0 7,1 16,3 25,5 0,0 0,0 0,0 61,12 162,28 268,28l613 0c0,0 0,0 1,0l613 0c106,0 207,-16 268,-28 0,0 0,0 0,0 10,-2 18,-3 25,-5 0,0 0,0 1,0 0,0 1,0 1,0 5,-1 8,-2 12,-3 4,0 43,4 78,7l1 0c17,2 32,3 41,4l0 -7c-32,-3 -65,-6 -101,-8 -3,0 -13,-1 -16,-1 -33,-3 -72,-6 -116,-8 -2,0 -3,0 -5,0 -259,-13 -661,-12 -803,-12 0,0 0,0 -1,0 -142,-1 -545,-1 -803,12 -2,0 -3,0 -5,0 -43,2 -83,5 -116,8 -2,0 -13,1 -16,1 -50,4 -97,8 -140,12 -241,23 -369,47 -405,55 33,-64 76,-119 128,-176 0,0 1,0 1,0 58,-14 154,-26 269,-37l0 0c2,0 5,0 7,-1l0 1c5,0 10,-1 15,-1 -6,18 -15,46 -23,79 -1,6 4,12 11,11zm454 65c1,-7 7,-13 15,-13l1215 0c8,0 14,6 15,13l0 4c-1,7 -7,13 -15,13l-1215 0c-8,0 -14,-6 -15,-13l0 -4zm-1279 1344l787 117c14,2 20,18 11,28l-170 186c-9,10 -22,16 -36,16l-480 0c-2,0 -3,-1 -4,-3 -45,-138 -97,-303 -110,-342 0,-1 1,-2 2,-2zm99 342c1,2 -1,4 -3,4l-586 0c-31,0 -48,-24 -57,-50 4,-23 6,-35 6,-35 11,-185 75,-349 98,-351 0,0 0,0 1,1 17,27 66,36 93,38 33,4 65,8 98,13 0,0 214,32 238,35 1,1 2,1 3,2 7,22 62,195 109,341zm310 -1626c0,1 0,1 0,1 -143,276 -131,580 -128,625 -17,-1 -119,-5 -165,41 -50,50 -170,268 -170,376 -19,5 -38,11 -57,17 -68,21 -182,50 -234,36 66,23 206,-15 264,-33 11,-4 23,-7 34,-10 12,20 37,77 38,220l-329 -52c0,0 -70,-8 -96,-46 1,0 3,-1 4,-2 13,-8 19,-23 19,-23 0,0 2,-8 25,-60 0,0 0,0 0,-1 1,-2 2,-5 4,-7 31,-54 161,-147 161,-147 121,-148 27,-89 277,-536 235,-419 370,-515 397,-538 40,-34 82,-47 89,-43 -54,59 -98,115 -132,181z"/>
      <path class="fil0" d="M6031 2485c0,0 0,0 0,0l-4 0c0,0 0,0 0,0l-296 -1c-9,0 -17,4 -22,9 0,0 -26,35 -38,50l301 0c10,0 19,-4 26,-11l35 -37c0,0 1,-1 1,-2 0,-1 0,-1 0,-2 0,-2 -1,-5 -4,-6zm-177 49c-12,0 -22,-10 -22,-22 0,-12 10,-22 22,-22 12,0 22,10 22,22 0,12 -10,22 -22,22z"/>
      <path class="fil0" d="M8343 2368l-1983 0 -5 8 -94 149c-41,65 -41,146 0,211l91 144c69,109 188,175 317,175l683 0 1 0 683 0c129,0 248,-66 317,-175l40 -64 0 -26 -48 76c-68,109 -188,175 -317,175l-675 1 -1 0 -675 -1c-129,0 -248,-66 -317,-175l-85 -134c-38,-61 -38,-140 0,-201l97 -153 187 0 -149 171c-31,36 -38,86 -17,129l80 161c48,98 147,160 256,161l623 6 1 0 623 -6c109,-1 208,-63 256,-161l80 -161c21,-43 14,-93 -17,-129l-149 -171 187 0 60 95 0 -26 -44 -69 -5 -8zm-61 187c29,33 34,79 15,118l-78 157c-47,94 -142,154 -247,155l-621 6 -1 0 -621 -6c-105,-1 -200,-61 -247,-155l-78 -157c-19,-38 -13,-85 15,-118l155 -179 0 0 1549 0 0 0 155 179z"/>
      <path class="fil0" d="M7351 3786c-648,-5 -1998,-94 -2187,-107 -193,-12 -187,59 -187,59l-4 23c12,-20 50,-51 183,-42 188,12 1544,95 2194,99 0,0 0,0 1,0 270,-2 661,-17 1040,-35l0 -35c-379,20 -770,36 -1040,38 0,0 0,0 -1,0z"/>
      <path class="fil0" d="M7760 4110c-119,0 -119,0 -119,0l-908 0c-198,0 -338,51 -459,93 -41,3 -77,6 -107,10 -216,26 -855,-42 -1073,-67l0 11c31,4 69,8 114,13 2,-1 4,-1 6,-2 7,1 14,3 22,4 0,0 0,0 1,0 21,1 44,3 47,3l0 2c25,3 51,5 78,8 0,0 0,0 1,0 35,4 71,7 109,11 4,0 4,0 7,0l14 0 0 2c15,1 30,3 46,4 0,-1 0,-2 0,-3 21,0 42,4 64,4l46 0c0,3 0,5 0,8 210,16 416,25 521,11 18,-2 41,-5 67,-7 164,-13 469,-18 714,-20 209,-2 375,-1 375,-1l56 0c0,0 169,0 380,1 210,2 462,6 632,15l0 -23c-112,-38 -241,-78 -416,-78l-216 0z"/>
      <path class="fil0" d="M6614 2453c-26,0 -47,21 -47,47l0 246c0,26 21,47 47,47l1481 0c26,0 47,-21 47,-47l0 -245c0,-26 -21,-47 -47,-47l-1481 0zm277 316c0,6 -5,10 -10,10l-265 0c-20,0 -36,-16 -36,-36l0 -247c0,-18 14,-32 32,-32l270 0c6,0 10,5 10,10l0 294zm1239 -265l0 234c0,23 -18,41 -41,41l-1176 0c-6,0 -10,-5 -10,-10l0 -294c0,-6 5,-10 10,-10l1177 0c22,0 40,18 40,40z"/>
      <rect class="fil0" x="7991" y="2529" width="107" height="21"/>
      <rect class="fil0" x="7991" y="2554" width="107" height="21"/>
      <path class="fil0" d="M7991 2524l107 0 0 -21 -107 0 0 21zm48 -17l1 -2 1 2 2 0 -1 1 0 2 -2 -1 -2 1 0 -2 -1 -1 2 0zm0 6l1 -2 1 2 2 0 -1 1 0 2 -2 -1 -2 1 0 -2 -1 -1 2 0zm0 5l1 -2 1 2 2 0 -1 1 0 2 -2 -1 -2 1 0 -2 -1 -1 2 0zm-6 -11l1 -2 1 2 2 0 -1 1 0 2 -2 -1 -1 1 0 -2 -1 -1 2 0zm0 6l1 -2 1 2 2 0 -1 1 0 2 -2 -1 -1 1 0 -2 -1 -1 2 0zm0 5l1 -2 1 2 2 0 -1 1 0 2 -2 -1 -1 1 0 -2 -1 -1 2 0zm-6 -11l1 -2 1 2 2 0 -1 1 0 2 -2 -1 -2 1 0 -2 -1 -1 2 0zm0 6l1 -2 1 2 2 0 -1 1 0 2 -2 -1 -2 1 0 -2 -1 -1 2 0zm0 5l1 -2 1 2 2 0 -1 1 0 2 -2 -1 -2 1 0 -2 -1 -1 2 0zm-6 -5l1 -2 1 2 2 0 -1 1 0 2 -2 -1 -2 1 0 -2 -1 -1 2 0zm0 5l1 -2 1 2 2 0 -1 1 0 2 -2 -1 -2 1 0 -2 -1 -1 2 0zm-6 0l1 -2 1 2 2 0 -1 1 0 2 -1 -1 -2 1 0 -2 -1 -1 2 0zm-8 -13c1,0 1,0 2,0 -4,1 -7,4 -7,8 0,4 3,7 7,8 0,0 -1,0 -2,0 -5,0 -8,-4 -8,-8 0,-5 4,-8 8,-8z"/>
      <path class="fil0" d="M8029 2716c0,14 -5,20 -13,20 -8,0 -13,-6 -13,-20l0 -41 -12 0 0 40c0,22 10,31 24,31 15,0 25,-10 25,-31l0 -40 -12 0 0 41z"/>
      <polygon class="fil0" points="8065,2734 8098,2683 8098,2675 8053,2675 8053,2685 8083,2685 8083,2686 8050,2738 8050,2745 8098,2745 8098,2734 8065,2734 "/>
      <path class="fil0" d="M6596 2611c-5,0 -8,4 -8,8 0,5 4,8 8,8 5,0 8,-4 8,-8 0,-5 -4,-8 -8,-8z"/>
      <path class="fil0" d="M8112 2627c5,0 8,-4 8,-8 0,-5 -4,-8 -8,-8 -5,0 -8,4 -8,8 0,5 4,8 8,8z"/>
     </g>
     <path class="fil0" d="M5604 2564l430 0c12,0 24,-5 32,-14l133 -149c8,-9 3,-23 -10,-25l-687 -105c-9,-1 -16,7 -13,16l83 253c5,14 18,24 33,24zm-89 -283l661 98c13,1 18,15 10,23l-128 139c-8,8 -19,13 -31,13l-414 0c-14,0 -27,-9 -31,-22l-80 -237c-2,-8 4,-16 13,-14z"/>
     <path class="fil0" d="M7351 3344c-1675,-5 -2154,-216 -2244,-261 90,47 569,269 2244,275 0,0 0,0 1,0 417,-1 759,-16 1040,-38l0 -12c-281,21 -624,35 -1040,36 0,0 0,0 -1,0z"/>
     <path class="fil0" d="M6750 904l1203 0c5,0 10,-1 10,-6 0,-4 -5,-6 -10,-6l-1203 0c-5,0 -10,2 -10,6 0,5 5,6 10,6z"/>
    </g>
   </g>
  </g>
 </g>
</svg>
