<?xml version="1.0" encoding="UTF-8"?>
<!DOCTYPE svg PUBLIC "-//W3C//DTD SVG 1.1//EN" "http://www.w3.org/Graphics/SVG/1.1/DTD/svg11.dtd">
<!-- Creator: CorelDRAW 2021 (64-Bit) -->
<svg xmlns="http://www.w3.org/2000/svg" xml:space="preserve" width="84mm" height="53mm" version="1.1" style="shape-rendering:geometricPrecision; text-rendering:geometricPrecision; image-rendering:optimizeQuality; fill-rule:evenodd; clip-rule:evenodd"
viewBox="0 0 8400 5300"
 xmlns:xlink="http://www.w3.org/1999/xlink"
 xmlns:xodm="http://www.corel.com/coreldraw/odm/2003">
 <defs>
  <style type="text/css">
   <![CDATA[
    .fil0 {fill:black;fill-rule:nonzero}
   ]]>
  </style>
 </defs>
 <g id="Слой_x0020_1">
  <metadata id="CorelCorpID_0Corel-Layer"/>
  <g id="_2839975579184">
   <g>
    <path class="fil0" d="M7904 3652l-449 16c-135,4 -271,9 -407,10 -136,-1 -271,-6 -407,-10l-449 -16c-149,-6 -299,-12 -448,-20 -37,-3 -75,-3 -111,-12 -36,-8 -71,-28 -91,-60 -10,-16 -16,-34 -20,-52 -3,-18 -4,-37 -5,-56 -2,-37 -4,-74 -5,-112 1,37 2,75 4,112 1,19 2,37 5,56 4,18 9,37 19,53 20,32 55,52 91,61 37,9 74,9 111,12 150,9 299,16 448,23l448 18c135,5 271,10 406,12l0 0c0,0 1,0 1,0 0,0 1,0 1,0l0 0c136,-2 271,-7 406,-12l448 -18c150,-7 299,-14 448,-23 13,-1 27,-2 40,-3l0 -2c-13,1 -27,2 -40,3 -149,8 -299,14 -448,20z"/>
    <path class="fil0" d="M7048 3745c-386,-3 -772,-10 -1157,-22 -201,-7 -403,-15 -604,-26 -201,-12 -403,-25 -602,-55 -44,-4 -88,-11 -132,-19 43,9 87,16 132,21 199,30 400,44 601,56 201,12 403,20 604,28 386,13 771,22 1157,26l0 0c0,0 1,0 1,0 0,0 1,0 1,0l0 0c386,-4 771,-13 1157,-26 62,-2 124,-5 186,-7l0 -4c-62,2 -124,5 -187,7 -386,12 -771,19 -1157,22z"/>
    <path class="fil0" d="M8354 2567c-11,-28 -35,-49 -70,-63 -63,-25 -968,-19 -1236,-17 -268,-2 -1174,-8 -1236,17 -35,14 -59,36 -70,63 -11,29 -7,64 11,100l0 0 1 2 294 557c1,1 25,35 56,35 5,0 447,10 944,11l1 0c0,0 0,0 1,0 248,0 483,-3 656,-5 173,-3 285,-5 288,-5 31,0 55,-34 56,-35l294 -557 1 -2 0 0c18,-36 22,-71 11,-100zm-313 654c0,0 -5,8 -14,16 -8,8 -21,16 -34,16 -5,0 -447,10 -944,11 -497,-1 -939,-10 -944,-11 -13,0 -26,-8 -34,-16 -9,-8 -14,-16 -14,-16l-291 -552c94,3 2473,3 2567,0l-291 552zm296 -561c-68,2 -2502,2 -2577,0 -16,-33 -19,-65 -9,-90 10,-25 32,-46 65,-58 60,-24 965,-18 1232,-16l1 0c0,0 0,0 1,0 100,-1 291,-2 492,-2 335,0 702,3 739,18 33,13 55,33 65,58 10,26 7,57 -9,90z"/>
    <path class="fil0" d="M5657 497c338,-49 1282,-79 1292,-79l199 0c9,0 873,28 1244,73l0 -9c-370,-46 -1228,-72 -1244,-73l-200 0c-17,1 -943,30 -1286,78 -1,0 -3,0 -5,1 0,-1 -1,-2 -1,-2 -2,-4 -19,-10 -35,-10 -36,0 -43,4 -50,6 -8,3 -15,13 -19,19 -2,1 -8,4 -13,5 -26,12 -86,41 -115,81 -52,72 -449,683 -587,1107 -1,2 -97,214 -144,262 -50,50 -192,389 -219,473 0,1 0,1 -1,2 -1,5 -3,11 -5,17 -6,21 -13,51 -22,89 -29,133 -52,273 -67,418 0,4 -1,7 -1,11 -4,33 -7,66 -9,100 -11,142 -29,245 -50,299 -24,61 -8,284 42,528 5,27 11,55 18,82 1,6 3,12 4,18 6,23 11,47 18,70 2,6 3,12 5,18 6,23 13,46 20,68 2,6 4,13 6,19 7,24 15,47 23,69 2,6 4,12 7,18 8,24 17,47 26,68 2,6 5,12 7,18 9,21 18,42 28,61 0,0 1,4 4,10 5,10 13,26 27,45 15,21 36,47 65,71 6,5 12,10 19,16 22,17 48,33 79,47 3,1 6,3 9,4 18,8 38,16 60,22 9,3 18,5 27,7 13,3 28,6 43,8 2,1 5,1 8,1 6,1 12,2 19,3 31,5 68,10 103,14 6,1 12,1 18,2 20,2 39,5 57,6 2,0 4,1 6,1 3,0 6,1 9,1 15,1 29,1 40,1 10,0 20,-1 30,-3 5,-1 10,-2 14,-4 4,-1 7,-3 11,-5l0 0c3,-2 6,-4 9,-6 59,-42 122,-63 183,-61 315,8 1347,33 1685,34l2 0c254,-1 904,-16 1343,-26l0 -9c-440,11 -1088,25 -1343,26l-2 0c-338,-1 -1369,-26 -1685,-34 -62,-1 -127,20 -186,61 31,-71 97,-180 186,-265 95,-90 194,-133 294,-128 238,13 1075,30 1391,37l2 0c297,-6 1056,-22 1343,-35l0 -9c-286,13 -1045,29 -1343,35l-2 0c-317,-6 -1152,-24 -1391,-37 -103,-5 -204,38 -301,130 -93,89 -162,206 -192,278 -6,3 -12,5 -17,6 -6,1 -10,1 -10,1 -3,1 -15,3 -61,0 7,-37 44,-117 102,-201 33,-48 72,-97 118,-140 102,-96 207,-142 315,-137 253,13 1105,32 1437,39l2 0c299,-7 1017,-23 1343,-35l0 -9c-326,13 -1044,29 -1343,35l-2 0c-332,-7 -1184,-26 -1437,-39 -109,-6 -218,41 -321,139 -42,40 -79,84 -110,129 -64,90 -104,178 -112,218 -1,0 -2,0 -4,0 -17,-1 -37,-4 -61,-6 -6,-1 -12,-2 -18,-2 -18,-2 -39,-5 -62,-8 -17,-2 -36,-5 -57,-8 -4,0 -7,-1 -10,-2 -15,-2 -29,-5 -43,-9 -10,-2 -18,-5 -27,-7 -19,-6 -36,-12 -52,-19 -3,-1 -6,-2 -9,-4 -35,-16 -64,-34 -87,-53 -7,-5 -13,-11 -19,-16 -30,-26 -50,-53 -64,-74 -9,-14 -15,-26 -18,-33 -2,-6 -4,-9 -4,-10 -9,-19 -18,-38 -26,-58 -2,-6 -5,-12 -8,-18 -9,-22 -18,-45 -26,-68 -2,-6 -4,-12 -6,-18 -8,-23 -16,-46 -23,-70 -2,-6 -4,-12 -6,-18 -7,-23 -14,-46 -20,-68 -2,-6 -4,-12 -5,-18 -6,-23 -12,-47 -18,-70 -1,-6 -3,-12 -4,-18 -3,-14 -6,-27 -9,-41 -7,-29 -13,-58 -18,-87 -43,-224 -56,-422 -33,-479 28,-70 43,-202 51,-302 2,-30 5,-60 8,-90 14,18 29,37 48,46 12,6 34,9 64,13 33,5 74,11 118,23 41,11 84,28 123,53 31,20 56,41 80,62 52,44 105,90 215,119 38,11 84,19 138,25 0,0 4,0 11,1 3,0 7,1 11,1l1 0c11,1 25,2 42,3 5,0 11,1 16,1 6,0 12,1 18,1 2,0 5,0 7,1 6,0 11,1 17,1 71,5 156,10 214,10l0 0c2,0 3,-1 5,-2l22 -17 76 -60 4 -4c8,18 13,37 18,54 20,61 62,108 115,129 40,16 88,24 143,24l2308 0c55,0 103,-8 143,-24 17,-7 32,-17 47,-28l0 -11c-15,13 -32,24 -50,31 -39,16 -86,24 -140,24l-2308 0c-54,0 -101,-8 -140,-24 -51,-20 -91,-65 -110,-124 -6,-17 -22,-63 -22,-63 -88,-200 -290,-507 -397,-652 -68,-93 -208,-142 -406,-142 -10,0 -29,0 -39,1l-1 -23c-1,-23 -2,-50 -4,-80 -5,-107 -12,-241 -2,-274 12,-41 131,-335 143,-364 43,-3 613,-46 2131,-48l2 0c577,1 1017,7 1343,15l0 -9c-326,-8 -766,-15 -1343,-15l-2 0c-1470,1 -2051,42 -2126,47 -1,0 -1,0 -2,0 3,-11 7,-23 12,-36 95,-277 454,-915 493,-968 13,-18 38,-31 65,-42 3,-1 6,-2 9,-3 36,-12 73,-19 86,-21 3,0 5,-1 5,-1 1,0 2,0 4,0 264,-29 867,-34 1236,-34 89,0 164,0 218,0l2 0c54,0 129,0 218,0 324,0 828,4 1125,24l0 -9c-379,-26 -1093,-25 -1343,-24l-2 0c-278,-1 -1124,-3 -1453,33 1,-10 3,-20 6,-29 2,-6 26,-47 57,-96zm-389 2184c109,157 262,397 337,566l-71 58 -17 13c0,0 0,0 -1,0 -1,1 -2,1 -3,1 -8,-30 -43,-158 -97,-306 -43,-117 -97,-246 -159,-347 4,5 7,9 10,14zm-447 -213c141,0 253,26 327,75 101,86 193,291 258,470 55,149 91,279 98,308 -8,0 -17,0 -26,0 -6,0 -12,-1 -19,-1 -58,-2 -127,-6 -182,-10 -5,0 -10,-1 -14,-1 -3,0 -6,0 -9,-1 -22,-2 -41,-3 -55,-4l-2 0c-4,0 -7,-1 -10,-1 -7,0 -10,-1 -11,-1 -57,-6 -103,-15 -141,-26 -102,-29 -151,-71 -202,-114 -25,-22 -50,-43 -83,-64 -42,-27 -88,-44 -131,-55 -43,-12 -84,-18 -117,-23 -28,-4 -49,-7 -59,-12 -17,-8 -31,-25 -43,-42l-6 -8c17,-159 37,-290 64,-409 10,-44 14,-63 20,-80l182 1 113 1c0,0 32,-1 47,-1zm669 -1825l0 2c-29,11 -57,25 -72,46 -41,57 -440,764 -508,1013 0,0 0,1 -1,2 -12,30 -132,323 -144,365 -10,35 -4,170 2,278 1,30 3,57 4,80l1 22 -111 0 -180 -1 -3 0c2,-7 4,-12 5,-17l0 0c31,-96 170,-423 217,-470 48,-48 142,-256 146,-265 137,-424 534,-1033 586,-1105 24,-33 71,-59 99,-73 3,-1 6,-3 8,-4 1,-1 2,-1 4,-2 -6,10 -14,21 -22,32 -21,28 -32,62 -33,97zm103 -53c-3,10 -5,22 -7,32 -11,1 -49,7 -87,20 1,-34 13,-67 33,-95 9,-12 32,-47 42,-56 2,-1 4,-2 6,-3 6,-1 21,-4 46,-4 20,0 24,4 24,5 3,3 -22,37 -30,51 -15,24 -26,44 -28,50z"/>
    <g>
     <path class="fil0" d="M7049 2037l0 0c0,0 -1,0 -1,0 0,0 -1,0 -1,0l0 0c-302,-1 -603,6 -904,17 -323,12 -646,30 -968,54 322,-22 645,-39 968,-50 301,-9 603,-15 904,-13l0 0c0,0 1,0 1,0 0,0 1,0 1,0l0 0c301,-3 603,3 904,13 146,5 293,11 439,19l0 -2c-146,-8 -292,-15 -439,-20 -301,-11 -603,-18 -904,-17z"/>
     <path class="fil0" d="M7049 2185l0 0c0,0 -1,0 -1,0 0,0 -1,0 -1,0l0 0c-309,4 -618,10 -926,21 -165,5 -330,12 -495,21 -144,8 -289,17 -433,31 144,-13 288,-21 433,-29 165,-8 330,-14 495,-19 309,-9 618,-14 927,-16 309,2 618,8 927,16 139,4 278,9 417,16l0 -3c-139,-7 -278,-13 -417,-17 -309,-10 -618,-17 -926,-21z"/>
    </g>
    <g>
     <path class="fil0" d="M5127 2772c-28,-2 -49,18 -49,46 0,27 22,51 49,53 28,2 49,-19 49,-46 0,-27 -22,-51 -49,-53zm0 34c9,1 17,9 17,18l-8 0c0,-5 -4,-9 -8,-9 -5,0 -8,3 -9,8l-8 0c0,-10 7,-16 17,-16zm0 58c-23,-1 -41,-21 -41,-44l20 2c0,11 10,21 21,22 12,1 21,-8 21,-19l20 1c0,23 -19,40 -42,38z"/>
     <path class="fil0" d="M5189 2692l-6 -4 -184 0 0 261c141,16 271,18 307,19 5,0 8,-5 6,-10 -65,-185 -123,-266 -123,-266zm-59 185l-2 0c-31,-2 -55,-29 -55,-60 0,-29 22,-51 50,-52l5 0c31,3 56,29 56,60 0,30 -24,53 -53,52z"/>
     <path class="fil0" d="M4849 2750c-27,-2 -48,18 -48,44 0,26 21,49 48,51 26,2 47,-18 47,-44 0,-26 -21,-49 -47,-51zm0 32c9,1 16,8 16,17l-8 0c0,-5 -4,-8 -8,-9 -5,0 -8,3 -8,7l-8 -1c0,-9 7,-15 16,-15zm0 55c-22,-1 -40,-20 -40,-42l20 1c0,11 9,20 20,21 11,1 20,-7 20,-18l19 1c0,22 -18,38 -40,36z"/>
     <path class="fil0" d="M4701 2688c-6,0 -11,5 -11,12l-9 151c0,12 15,28 26,33 76,32 176,51 278,63l0 -259 -284 0zm150 165l-2 0c-31,-3 -56,-29 -56,-60 0,-29 22,-51 50,-52l5 0c30,2 55,29 55,60 0,30 -24,53 -53,52z"/>
     <path class="fil0" d="M5342 2973c-68,-207 -138,-300 -139,-301l-8 -7 -506 0c-9,0 -17,8 -17,18l-10 169c0,15 17,37 31,44 181,84 563,92 638,93 0,0 0,0 0,0 3,0 7,-2 9,-5 2,-3 3,-7 2,-12zm-9 7c-1,1 -1,1 -2,1 0,0 0,0 0,0 -74,-1 -455,-9 -635,-92 -11,-5 -26,-24 -26,-35l10 -169c0,-5 4,-9 8,-9l503 0 5 4c5,7 72,99 137,297 0,2 0,3 0,4z"/>
    </g>
    <g>
     <path class="fil0" d="M4661 2491c-2,-2 -5,-4 -9,-4l-152 -1c-7,0 -12,5 -14,11 -4,14 -8,31 -16,67 -24,109 -43,229 -59,378l0 2 7 9c12,16 25,33 42,41 9,4 28,7 55,11l5 1c27,4 61,10 96,19 1,0 1,0 2,0 2,0 4,-1 6,-2 2,-2 4,-5 4,-8l37 -515c0,-3 -1,-6 -3,-9zm-42 523c0,1 0,1 -1,1 0,0 -1,0 -1,0 -36,-9 -70,-14 -97,-19l-5 -1c-21,-3 -44,-6 -53,-11 -14,-7 -27,-22 -38,-38l-5 -6c16,-148 35,-267 59,-375 8,-35 12,-52 16,-66 1,-2 3,-4 6,-4l152 1c1,0 2,0 2,1 1,1 1,1 1,2l-37 514z"/>
     <g>
      <path class="fil0" d="M4537 2684l-5 0c-28,1 -49,22 -49,51 0,30 24,56 55,59l2 0c29,1 53,-21 53,-51 0,-30 -25,-56 -55,-59zm0 102c-26,-2 -47,-24 -47,-50 0,-26 21,-45 47,-43 26,2 47,24 47,50 0,26 -21,45 -47,43z"/>
      <path class="fil0" d="M4537 2779c22,2 39,-14 39,-36l-19 -1c0,11 -9,19 -20,18 -11,-1 -19,-10 -20,-21l-19 -2c0,22 18,40 39,41z"/>
      <path class="fil0" d="M4537 2732c4,0 8,4 8,9l8 1c0,-9 -7,-16 -16,-17 -9,-1 -16,6 -16,15l8 1c0,-4 4,-8 8,-7z"/>
     </g>
    </g>
    <g>
     <path class="fil0" d="M7977 2735l-1857 0c-32,0 -59,26 -59,59l0 308c0,32 26,58 58,58l1857 0c32,0 59,-26 59,-59l0 -308c0,-32 -26,-59 -59,-59zm-1510 397c0,7 -6,13 -13,13l-333 0c-25,0 -45,-20 -45,-45l0 -309c0,-22 18,-40 40,-40l338 0c7,0 13,6 13,13l0 368zm1554 -38c0,28 -23,51 -51,51l-1474 0c-7,0 -13,-6 -13,-13l0 -368c0,-7 6,-13 13,-13l1476 0c28,0 49,22 49,49l0 294z"/>
     <rect class="fil0" x="7846" y="2829" width="134" height="26"/>
     <rect class="fil0" x="7846" y="2861" width="134" height="26"/>
     <path class="fil0" d="M7846 2798l0 27 134 0 0 -27 -134 0zm20 24c-1,0 -1,0 -2,0 -6,0 -11,-5 -11,-11 0,-6 5,-11 11,-11 1,0 2,0 2,0 -5,1 -8,5 -8,10 0,5 4,9 8,10zm12 0l-2 -1 -2 1 0 -2 -2 -2 2 0 1 -2 1 2 2 0 -2 2 0 2zm8 0l-2 -1 -2 1 0 -2 -1 -2 2 0 1 -2 1 2 2 0 -2 2 0 2zm0 -9l0 2 -2 -1 -2 1 0 -2 -1 -1 2 0 1 -2 1 2 2 0 -2 1zm8 9l-2 -1 -2 1 0 -2 -1 -2 2 0 1 -2 1 2 2 0 -2 2 0 2zm0 -9l0 2 -2 -1 -2 1 0 -2 -1 -1 2 0 1 -2 1 2 2 0 -2 1zm0 -7l0 2 -2 -1 -2 1 0 -2 -1 -2 2 0 1 -2 1 2 2 0 -2 2zm8 16l-2 -1 -2 1 1 -2 -2 -2 2 0 1 -2 1 2 2 0 -2 2 0 2zm0 -9l0 2 -2 -1 -2 1 1 -2 -2 -1 2 0 1 -2 1 2 2 0 -2 1zm0 -7l0 2 -2 -1 -2 1 1 -2 -2 -2 2 0 1 -2 1 2 2 0 -2 2zm8 16l-2 -1 -2 1 1 -2 -2 -2 2 0 1 -2 1 2 2 0 -2 2 1 2zm-1 -9l1 2 -2 -1 -2 1 1 -2 -2 -1 2 0 1 -2 1 2 2 0 -2 1zm0 -7l1 2 -2 -1 -2 1 1 -2 -2 -2 2 0 1 -2 1 2 2 0 -2 2z"/>
     <path class="fil0" d="M7895 3064c0,17 -6,25 -17,25 -10,0 -16,-8 -16,-25l0 -51 -15 0 0 50c0,28 12,39 31,39 19,0 32,-12 32,-39l0 -50 -15 0 0 51z"/>
     <polygon class="fil0" points="7940,3087 7980,3022 7980,3013 7924,3013 7924,3026 7961,3026 7961,3027 7920,3092 7920,3101 7981,3101 7981,3087 7940,3087 "/>
     <path class="fil0" d="M6098 2932c-6,0 -10,5 -10,10 0,6 5,10 10,10 6,0 10,-5 10,-10 0,-6 -5,-10 -10,-10z"/>
     <path class="fil0" d="M7999 2953c6,0 10,-5 10,-10 0,-6 -5,-10 -10,-10 -6,0 -10,5 -10,10 0,6 5,10 10,10z"/>
    </g>
    <g>
     <path class="fil0" d="M7048 2311c-37,0 -67,30 -67,67 0,37 30,67 67,67 37,0 67,-30 67,-67 0,-37 -30,-67 -67,-67zm0 126c-33,0 -59,-26 -59,-59 0,-32 26,-59 59,-59 32,0 59,26 59,59 0,32 -26,59 -59,59z"/>
     <rect class="fil0" x="7039" y="2338" width="19" height="79"/>
    </g>
    <g>
     <path class="fil0" d="M5681 641l-312 205c-18,32 -37,66 -56,102l575 -318c-77,3 -147,7 -207,12z"/>
     <path class="fil0" d="M6015 624l-783 468c-42,77 -84,159 -124,237l1075 -710c-57,1 -114,3 -168,4z"/>
     <path class="fil0" d="M6372 617l-1296 778c-47,97 -87,187 -111,254 -5,13 -8,24 -11,35 1,0 1,0 2,0 13,-1 43,-3 92,-6l1440 -1063c-38,0 -77,1 -116,1z"/>
     <path class="fil0" d="M6833 614c-71,0 -152,0 -236,1l-1327 1053c52,-2 111,-4 177,-7l1510 -1047c-37,0 -78,0 -123,0z"/>
     <path class="fil0" d="M7162 614l-1461 1039c76,-2 159,-4 248,-5l1614 -1033c-108,-1 -211,-1 -300,-1 -37,0 -70,0 -102,0z"/>
     <path class="fil0" d="M6746 1639l1505 -1009c-141,-7 -308,-11 -475,-13l-1596 1027c168,-2 357,-4 566,-5z"/>
     <path class="fil0" d="M7047 1638l2 0c91,0 179,0 263,1l1080 -643 0 -290 -1377 932c11,0 21,0 33,0z"/>
     <path class="fil0" d="M8090 1647l302 -289 0 -265 -794 547c182,2 346,4 492,6z"/>
    </g>
   </g>
   <path class="fil0" d="M5114 4665c-11,0 -24,-1 -40,-1 -3,0 -6,-1 -9,-1 -2,0 -4,0 -6,-1 -14,37 -30,65 -45,84 0,0 0,0 -1,1 -5,-27 -8,-58 -11,-90 -6,-1 -12,-1 -18,-2 1,18 4,36 6,52 -17,3 -33,6 -50,8 -17,2 -35,4 -52,6 -2,-27 -5,-54 -7,-80 -6,-1 -13,-2 -19,-3 -3,0 -6,-1 -8,-1l0 6c2,29 5,56 7,81l2 18c3,29 6,53 9,74 1,6 2,12 3,18 2,15 7,28 10,39 -10,0 -21,0 -31,1l0 0c-1,0 -2,0 -3,0l-7 0c-2,-6 -4,-12 -5,-19l-2 -10c-4,-18 -7,-39 -11,-64l0 -2 -1 -8c-3,-29 -7,-62 -10,-98l-2 -23c-1,-7 -1,-13 -1,-20 -10,-2 -18,-5 -27,-7 1,10 1,19 2,28 -24,-14 -47,-29 -71,-44 3,-2 5,-4 8,-6 -3,-1 -6,-3 -9,-4 -2,2 -5,4 -7,6 -24,-16 -48,-32 -71,-48 0,-1 0,-3 0,-5 -7,-5 -13,-10 -19,-16 0,2 0,4 0,5l0 2c0,2 0,5 1,8l0 4c1,8 1,16 2,24 2,29 4,58 6,85l0 1c0,3 1,6 1,9 0,1 0,1 0,1 3,42 7,80 11,114 0,2 0,4 1,6 0,1 0,2 1,4 0,2 0,4 1,6 4,29 9,53 14,72 -22,0 -42,-1 -59,-1 -6,-19 -11,-44 -16,-74 -1,-6 -1,-12 -2,-18 -3,-24 -6,-49 -8,-75 0,-6 -1,-12 -1,-18 -2,-28 -5,-56 -6,-81 0,-6 -1,-12 -1,-18 0,-5 -1,-11 -1,-16 -1,-22 -3,-42 -4,-60 0,-6 -1,-12 -1,-17 0,0 0,-1 0,-1 -1,-9 -1,-21 -2,-36 -14,-19 -22,-36 -27,-45 -43,0 -87,-1 -130,-4 -1,-23 -3,-46 -4,-70 27,1 54,2 81,2 7,0 14,0 22,0 -3,-6 -5,-12 -7,-18 -32,0 -64,-1 -96,-2 -1,-22 -2,-44 -3,-66 13,0 25,1 38,1 12,0 23,0 35,-1 -2,-6 -5,-12 -7,-18 -22,1 -44,0 -67,0 -1,-23 -2,-46 -3,-69 6,0 12,0 18,0 10,0 19,0 29,0 -2,-6 -4,-12 -6,-19 -5,0 -10,0 -14,0 -10,0 -19,0 -28,0 -1,-23 -1,-46 -2,-69 8,0 16,1 24,1 -2,-6 -3,-12 -5,-18 -7,0 -13,0 -20,0 -1,-23 -1,-47 -2,-70l4 0c-1,-6 -3,-12 -4,-18 -7,-28 -13,-55 -18,-82 4,372 32,784 60,878 40,134 149,117 150,117 31,2 101,3 164,3 48,0 93,-1 116,-2 16,0 32,-1 46,-1l12 0 53 -1c31,-1 60,-12 84,-32 0,0 17,-16 17,-17 27,-35 57,-92 80,-174 -10,2 -20,3 -30,3zm-715 -236c38,2 77,4 116,4 7,0 14,0 21,0 0,28 1,49 2,64 -45,2 -90,1 -134,-1 -2,-21 -4,-43 -5,-66zm6 84c24,1 47,2 71,2 21,0 42,0 63,-1 1,18 3,38 4,60 0,5 1,10 1,14 -44,1 -89,0 -133,-3 -2,-23 -4,-47 -6,-72zm8 90c33,2 66,4 98,4 12,0 23,0 35,-1 2,28 4,55 6,81 -44,-1 -87,-4 -131,-10 -3,-22 -6,-47 -9,-74zm25 163c-5,-16 -9,-40 -14,-71 43,5 86,8 129,9 2,27 5,52 8,75 -41,-2 -81,-5 -122,-9 0,-1 -1,-2 -1,-4zm132 104c-5,1 -85,12 -124,-82 39,4 78,7 117,8 4,30 9,55 14,74 -3,0 -6,0 -8,0zm238 -32c-16,-5 -31,-9 -47,-14 13,-11 26,-22 40,-34 2,17 5,34 7,48zm-12 -80c-21,-12 -42,-23 -63,-35 19,-17 37,-33 55,-50 2,30 5,59 8,85zm-158 -185c0,-4 0,-7 -1,-11 21,14 42,29 63,42 -19,15 -38,29 -57,43 -2,-27 -4,-53 -6,-75zm6 86c22,-16 43,-32 64,-49 26,17 52,33 78,49 0,1 0,2 0,4 -20,19 -41,38 -62,56 -27,-16 -54,-32 -80,-48 0,-4 -1,-8 -1,-12zm2 23c24,15 48,29 72,43 -20,18 -41,35 -62,52 -4,-30 -7,-63 -10,-96zm11 106c23,-19 46,-38 69,-58 24,14 47,26 71,40 0,4 1,8 1,12 -16,14 -31,28 -48,41 -31,-10 -62,-20 -93,-30 0,-1 0,-2 0,-4zm17 87c0,0 0,0 0,-1 -6,-18 -11,-43 -15,-72 28,9 55,18 83,27 -5,4 -10,7 -15,11 -1,1 -2,1 -4,2 -16,11 -34,22 -49,32 0,0 0,0 0,1zm16 0c21,-14 46,-29 62,-43 19,6 38,12 57,17 2,9 4,17 6,25 -34,1 -81,1 -125,1zm208 -63c-4,-22 -7,-47 -9,-73 17,-1 35,-4 52,-6 17,-2 33,-5 50,-8l0 0c4,27 8,51 14,71 -36,6 -71,12 -107,16zm63 58l-41 1c-3,-9 -6,-20 -8,-34 34,-4 68,-10 102,-16 3,7 6,13 10,18 0,0 0,0 0,1 2,2 3,5 5,6 -19,15 -43,23 -68,24z"/>
   <g>
   </g>
   <g>
   </g>
   <g>
   </g>
   <g>
   </g>
   <g>
   </g>
   <g>
   </g>
   <g>
   </g>
   <g>
   </g>
   <g>
   </g>
   <g>
   </g>
   <g>
   </g>
  </g>
 </g>
</svg>
