<?xml version="1.0" encoding="UTF-8"?>
<!DOCTYPE svg PUBLIC "-//W3C//DTD SVG 1.1//EN" "http://www.w3.org/Graphics/SVG/1.1/DTD/svg11.dtd">
<!-- Creator: CorelDRAW 2021 (64-Bit) -->
<svg xmlns="http://www.w3.org/2000/svg" xml:space="preserve" width="84mm" height="53mm" version="1.1" style="shape-rendering:geometricPrecision; text-rendering:geometricPrecision; image-rendering:optimizeQuality; fill-rule:evenodd; clip-rule:evenodd"
viewBox="0 0 8400 5300"
 xmlns:xlink="http://www.w3.org/1999/xlink"
 xmlns:xodm="http://www.corel.com/coreldraw/odm/2003">
 <defs>
  <style type="text/css">
   <![CDATA[
    .fil0 {fill:none}
    .fil1 {fill:black;fill-rule:nonzero}
   ]]>
  </style>
 </defs>
 <g id="Слой_x0020_1">
  <metadata id="CorelCorpID_0Corel-Layer"/>
  <g id="_2839918807120">
   <g>
    <path class="fil0" d="M5774 1708c7,11 21,18 42,21 18,-42 46,-109 78,-180 -18,0 -71,7 -88,25 -18,18 -60,78 -32,134zm53 -7l-21 21c-11,-4 -18,-4 -21,-11l67 -67c-7,21 -18,39 -25,56zm39 -88l-88 88c-4,-7 -7,-18 -7,-25l120 -120c-7,18 -18,39 -25,56zm-32 -49c14,-4 28,-7 42,-7l-106 106c0,-18 7,-32 14,-46l49 -53 0 0z"/>
    <polygon class="fil0" points="8106,2555 8106,2555 8106,2555 8106,2558 8106,2558 8106,2558 8110,2558 8110,2558 8110,2555 8110,2555 "/>
    <path class="fil0" d="M6981 2826l1175 0c21,0 42,-18 42,-42l0 -233c0,-21 -18,-39 -39,-39l-1178 0c-7,0 -11,4 -11,11l0 293c0,7 4,11 11,11zm1129 -64c0,21 -11,32 -25,32 -14,0 -25,-11 -25,-32l0 -39 11 0 0 42c0,14 4,21 14,21 7,0 14,-7 14,-21l0 -42 11 0 0 39zm71 -102c4,0 7,4 7,7 0,4 -4,7 -7,7 -4,0 -7,-4 -7,-7 0,-4 4,-7 7,-7zm-14 134l-49 0 0 -7 32 -53 0 0 -28 0 0 -11 46 0 0 7 -32 53 0 0 32 0 0 11zm-106 -243l106 0 0 21 -106 0 0 -21zm0 25l106 0 0 21 -106 0 0 -21zm0 25l106 0 0 21 -106 0 0 -21z"/>
    <path class="fil0" d="M5482 2290c0,-7 4,-14 4,-21 0,4 -4,7 -4,11 0,4 0,7 0,11z"/>
    <polygon class="fil0" points="8106,2558 8106,2562 8106,2562 8106,2562 8106,2565 8106,2565 8110,2565 8110,2562 8110,2562 8110,2562 "/>
    <polygon class="fil0" points="8103,2555 8099,2555 8099,2555 8099,2558 8099,2558 8103,2558 8103,2558 8103,2558 8103,2555 "/>
    <polygon class="fil0" points="8103,2558 8099,2562 8099,2562 8099,2562 8099,2565 8103,2565 8103,2565 8103,2562 8103,2562 8103,2562 "/>
    <polygon class="fil0" points="8110,2565 8106,2565 8106,2565 8106,2569 8106,2569 8106,2569 8106,2569 8110,2569 8110,2569 8110,2569 "/>
    <path class="fil0" d="M5686 3962c-4,0 -4,0 -7,0 -7,0 -18,-4 -25,-4 -4,0 -4,0 -7,0 0,4 0,4 0,7 0,4 0,7 0,11 0,14 0,28 -4,42 0,4 0,7 0,11 0,14 0,28 0,42 0,4 0,7 0,11 0,14 0,28 0,42l0 11c0,14 0,28 4,42 0,4 0,7 0,11 0,14 4,28 4,42 0,4 0,7 0,7 4,39 11,67 18,92l0 0 0 0c0,0 0,4 0,4l0 0c4,7 4,11 7,18 0,0 0,0 0,0 11,0 25,0 35,0 -4,-4 -4,-11 -7,-14 -18,-42 -25,-88 -21,-134 0,-11 4,-21 11,-32 11,-11 28,-18 46,-18 14,-4 32,-4 42,-4 0,0 0,0 0,0 0,0 0,0 0,0 -4,-60 0,-123 4,-173l0 0c-39,-4 -71,-7 -99,-14z"/>
    <path class="fil0" d="M5827 4206c0,-11 4,-21 11,-32 11,-11 28,-18 46,-18 14,-4 28,-4 42,-4 0,0 0,0 0,0 -4,-56 0,-113 0,-159 0,0 0,0 0,0 -11,0 -21,0 -32,-4 -11,0 -18,0 -28,-4 -25,-4 -49,-4 -71,-7 0,0 0,0 0,0 -4,0 -4,0 -7,0 -11,183 0,293 18,356 4,7 4,14 7,18 11,0 25,0 39,0 0,-4 -4,-7 -4,-11 -18,-46 -25,-92 -21,-138z"/>
    <polygon class="fil0" points="5806,4351 5806,4351 "/>
    <path class="fil0" d="M5422 3179c0,4 0,7 0,11 0,-7 0,-11 0,-11z"/>
    <polygon class="fil0" points="8103,2565 8103,2565 8099,2565 8099,2569 8099,2569 8099,2569 8103,2569 8103,2569 8103,2569 8103,2569 "/>
    <path class="fil0" d="M7944 1013c-229,-11 -445,-14 -522,-14l0 0c-74,0 -293,4 -522,14l-4 0c-296,7 -610,32 -660,92 -131,159 -275,554 -289,582 -14,39 -32,102 7,102l2434 0 0 -14 -335 0 335 -377 0 -138 -561 515 -176 0 632 -730c39,4 74,7 106,11l0 -14c-120,-14 -282,-21 -445,-28l0 0zm-1771 233l222 -180c106,-18 265,-28 423,-35l-762 452c35,-78 74,-162 116,-236zm-194 430c4,-11 32,-81 71,-169l847 -480c4,0 7,0 11,0l4 0c46,-4 88,-4 131,-7l-1080 734c-4,-21 7,-53 18,-78zm166 102l967 -759c106,-4 198,-4 258,-7l-1125 762 -99 0 0 4zm176 0l1207 -762c35,0 78,0 123,4l-981 758 -349 0zm1894 -737l-730 737 -353 0 928 -744c53,0 106,4 155,7zm-1302 737l-106 0 935 -759c60,4 127,4 191,7l4 0c11,0 21,0 28,0l-1051 751z"/>
    <path class="fil0" d="M7369 2188l106 0 0 -28 99 0 28 -49 -127 0 0 -32 -106 0 0 32 -95 0 -28 49 123 0 0 28zm-116 -32l25 -46 95 0 0 -32 99 0 0 32 123 0 -25 46 -99 0 0 25 -99 0 0 -25 -120 0z"/>
    <path class="fil0" d="M6685 2826l265 0c7,0 11,-4 11,-11l0 -293c0,-7 -4,-11 -11,-11l-268 0c-18,0 -32,14 -32,32l0 247c-4,21 14,35 35,35zm-21 -166c4,0 7,4 7,7 0,4 -4,7 -7,7 -4,0 -7,-4 -7,-7 0,-4 4,-7 7,-7z"/>
    <path class="fil0" d="M5968 1803c0,0 -53,60 -64,71 -18,18 -18,67 -18,92 0,39 131,452 300,836 0,0 0,4 4,4 85,194 99,279 236,314 14,4 32,7 46,7 120,4 741,11 953,14l0 0c215,0 836,-11 953,-14 7,0 11,0 18,0l0 -614 -88 370c0,0 -21,138 -229,138l-1309 0c-212,0 -229,-138 -229,-138l-95 -420c11,39 95,349 138,437 46,92 183,88 183,88l1319 0c0,0 138,7 183,-88 0,-4 4,-7 4,-11 4,-7 7,-14 7,-21 0,-4 4,-7 4,-11 0,0 0,0 0,-4 4,-7 7,-18 11,-25 21,-60 46,-138 64,-205 4,-11 7,-18 7,-28 0,-4 0,-4 4,-7 4,-7 4,-11 4,-18 7,-25 14,-49 18,-67l0 -71c-356,4 -840,7 -970,7l0 0c-212,-4 -1337,-11 -1376,-11 -18,-49 -35,-95 -49,-138l1425 14 0 0 970 -11 0 -314 -967 -11 0 0 -1503 7c0,0 501,-21 1503,-21l0 0c406,0 730,4 970,7l0 -166 -2420 0 -4 4zm667 744c0,-25 21,-46 46,-46l1482 0c25,0 46,21 46,46l0 247c0,25 -21,46 -46,46l-1482 0c-25,0 -46,-21 -46,-46l0 -247zm610 -462l106 0 0 -28 141 0 0 28 152 0 -49 88 -106 0 0 28 -141 0 0 -28 -152 0 49 -88z"/>
    <path class="fil0" d="M5633 2347c4,0 7,4 7,7l7 0c0,-7 -4,-11 -11,-11 -7,0 -11,4 -11,11l7 0c-7,-7 -4,-7 0,-7z"/>
    <path class="fil0" d="M5852 2685c49,4 92,-35 92,-85 0,-49 -42,-95 -92,-99 -49,-4 -92,35 -92,85 4,49 42,95 92,99zm0 -120c18,0 32,18 32,32l-14 0c0,-7 -7,-18 -18,-18 -7,0 -14,7 -18,14l-14 0c4,-18 18,-28 32,-28zm-39 28c0,21 18,39 39,39 21,0 39,-14 39,-35l39 4c0,42 -35,74 -78,71 -42,-4 -74,-39 -78,-81l39 4z"/>
    <path class="fil0" d="M5873 2347c4,0 7,4 7,7l4 0c0,-7 -4,-11 -11,-11 -7,0 -11,4 -11,11l7 0c-4,-4 0,-7 4,-7z"/>
    <polygon class="fil0" points="8096,2555 8096,2555 8092,2555 8092,2558 8092,2558 8096,2558 8096,2558 8096,2558 8099,2555 "/>
    <path class="fil0" d="M5612 2484c-49,-4 -92,35 -92,85 0,49 39,95 92,99 53,4 92,-35 92,-85 0,-49 -39,-95 -92,-99zm0 64c18,0 32,14 32,32l-14 0c0,-7 -7,-18 -18,-18 -7,0 -14,7 -14,14l-14 0c0,-18 14,-28 28,-28zm0 106c-42,-4 -74,-39 -78,-81l39 4c0,21 18,39 39,39 21,0 39,-14 39,-35l39 4c0,42 -35,74 -78,71z"/>
    <path class="fil0" d="M5873 2315c-21,0 -35,14 -35,32 0,21 18,39 35,39 21,0 35,-14 35,-35 0,-14 -18,-32 -35,-35zm0 71c-18,0 -32,-18 -32,-32 0,-18 14,-32 32,-28 18,0 32,18 32,32 -4,14 -18,28 -32,28z"/>
    <path class="fil0" d="M5633 2389c21,0 35,-14 35,-35 0,-21 -18,-39 -35,-39 -21,0 -35,14 -35,35 -4,18 14,35 35,39zm0 -71c18,0 32,18 32,32 0,14 -14,32 -32,28 -18,0 -32,-18 -32,-35 0,-18 14,-25 32,-25z"/>
    <path class="fil0" d="M5831 2022c-7,0 -14,0 -25,0 -21,0 -39,0 -49,0l-4 0c0,0 -4,0 -4,0 -21,0 -35,4 -53,14 -4,4 -11,7 -14,14 -64,64 -109,120 -134,159 -11,14 -18,28 -25,42 7,0 11,0 18,4 11,0 25,4 42,4 18,0 39,4 60,4 7,0 14,0 25,0 7,0 11,0 18,0 18,0 39,4 60,4 7,0 11,0 18,0 4,0 7,0 11,0l0 0 0 0c18,0 39,0 56,0 28,0 56,0 88,0 -39,-120 -67,-212 -74,-240 -7,0 -11,-4 -14,-4zm-81 191l0 0c-28,-4 -53,-25 -53,-56 0,-28 21,-46 46,-46 0,0 0,0 0,0l4 0c28,4 49,28 49,53 7,28 -18,49 -46,49z"/>
    <path class="fil0" d="M5841 1990c-7,0 -18,0 -25,0 -25,0 -46,0 -60,0 -25,0 -42,4 -60,14 -7,4 -11,7 -18,14 -67,67 -116,131 -145,169 -18,25 -32,53 -39,85 -42,169 -46,374 -46,413 0,4 0,7 4,11 39,35 102,42 102,42 152,35 515,42 572,46 4,0 7,-4 4,-7 -131,-286 -261,-713 -279,-776 0,-7 -7,-11 -11,-11zm-342 296c4,-7 4,-14 7,-21 4,0 4,0 7,0l0 0c4,0 11,0 14,4 7,0 14,0 21,4 11,0 25,4 39,4 18,0 35,4 56,4 7,0 14,0 21,0 7,0 11,0 18,0 18,0 35,4 56,4 7,0 11,0 18,0 18,49 32,99 49,152 -11,0 -21,0 -32,0 -7,0 -18,0 -25,0 -7,0 -18,0 -25,0 -7,0 -14,0 -21,0 -35,-4 -64,-4 -88,-7 -7,0 -11,0 -14,0 -11,0 -18,-4 -28,-4 -7,0 -18,-4 -25,-4 -21,-4 -35,-7 -46,-7 -4,0 -4,0 -7,-4l0 0c-4,0 -4,0 -7,-4l0 0c-4,0 -4,0 -7,-4 4,-39 11,-78 18,-116zm494 176c32,85 64,169 99,247 4,11 11,21 14,32 4,7 7,18 11,25 0,4 0,4 -4,7 -4,0 -4,0 -7,0l-7 0c-4,0 -7,0 -11,0 -4,0 -7,0 -11,0 -4,0 -7,0 -7,0 0,0 -4,0 -4,0 -11,0 -21,0 -32,0 -4,0 -7,0 -11,0 -7,0 -18,0 -25,0 -4,0 -7,0 -7,0 -7,0 -11,0 -18,0 -7,0 -11,0 -18,0 0,0 0,0 -4,0 -14,0 -32,0 -49,-4 -32,0 -60,-4 -92,-7 0,0 -4,0 -4,0 -21,0 -42,-4 -64,-4 -11,0 -18,0 -28,-4 -7,0 -14,0 -21,-4 -53,-7 -99,-11 -134,-21 0,0 -60,-7 -99,-42 -4,-4 -4,-7 -4,-11 0,-28 4,-134 18,-254 0,-4 0,-4 0,-7 0,0 4,0 4,0l0 0c0,0 4,0 4,0 0,0 4,0 7,0 11,4 28,7 49,7 7,0 18,4 25,4 11,0 18,4 28,4 4,0 11,0 18,0 25,4 56,4 92,7 7,0 14,0 21,0 7,0 18,0 28,0 7,0 18,0 25,0 14,0 25,0 39,0l7 0c46,0 95,4 152,4l11 0c4,11 7,14 7,21zm-7 -28l-11 0c-60,0 -109,0 -155,-4 -18,-53 -35,-102 -49,-152l0 0c18,0 35,0 53,0 32,0 64,0 102,0l11 0c11,56 28,106 49,155zm-56 -159c-4,0 -7,0 -11,0 -35,0 -64,0 -92,0 -18,0 -39,0 -56,0l0 0 0 0c-4,0 -7,0 -11,0 -7,0 -14,0 -18,0 -21,0 -39,-4 -60,-4 -7,0 -11,0 -18,0 -7,0 -14,0 -25,0 -21,0 -42,-4 -60,-4 -18,0 -28,-4 -42,-4 -7,0 -14,0 -21,-4l0 0c-4,0 -7,0 -7,0 0,-4 4,-7 4,-11 7,-18 18,-32 28,-46 28,-35 74,-95 141,-162 4,-7 11,-11 18,-14 18,-11 35,-14 56,-14 14,0 32,0 56,0 7,0 14,0 25,0 4,0 11,4 11,7 7,28 39,123 81,247 -4,4 0,7 0,7z"/>
    <path class="fil0" d="M5873 2368c-7,0 -14,-7 -14,-14l-14 0c0,14 11,28 25,28 14,0 25,-11 25,-25l-14 0c4,4 0,11 -7,11z"/>
    <path class="fil0" d="M5817 2453c-14,0 -28,0 -39,0 -7,0 -18,0 -25,0 -11,0 -18,0 -28,0 -7,0 -14,0 -21,0 -35,-4 -67,-4 -92,-7 -7,0 -11,0 -18,0 -11,0 -21,-4 -28,-4 -7,0 -18,-4 -25,-4 -21,-4 -39,-7 -49,-7 -4,0 -4,0 -7,0 0,0 0,4 0,4 0,4 0,7 0,7 0,11 -4,21 -4,28 -4,21 -4,39 -7,56 -4,25 -4,46 -4,67 0,11 0,18 0,25 0,4 0,4 0,7 0,11 0,18 0,25 0,11 0,18 0,25 0,4 0,7 4,11 7,7 14,11 21,18 11,7 21,11 32,14 11,4 25,7 32,7 4,0 7,0 7,0 0,0 0,0 0,0 0,0 0,0 0,0 78,18 212,28 328,35 18,0 32,0 49,4 7,0 11,0 18,0 18,0 35,0 49,4 11,0 21,0 28,0 28,0 49,0 60,4 0,0 0,0 0,0l0 0c4,0 4,-4 4,-7 -42,-92 -85,-198 -120,-303 -60,0 -109,0 -155,-4l-11 0 0 -4zm-187 229c-4,0 -11,0 -14,0 -60,-4 -106,-56 -106,-113 0,-53 39,-95 88,-99 7,0 11,0 18,0l4 0c60,4 106,56 106,113 -4,56 -42,95 -95,99zm222 -194c60,4 106,56 106,113 0,56 -46,102 -102,99 0,0 -4,0 -4,0 -60,-4 -106,-56 -106,-116 0,-56 42,-99 95,-99 4,4 7,4 11,4z"/>
    <polygon class="fil0" points="8089,2558 8089,2562 8085,2562 8089,2562 8089,2565 8089,2565 8092,2565 8089,2562 8092,2562 8089,2562 "/>
    <polygon class="fil0" points="8089,2565 8089,2565 8089,2565 8085,2569 8089,2569 8089,2569 8089,2569 8092,2569 8089,2569 8092,2569 "/>
    <path class="fil0" d="M5750 2117c-25,-4 -42,18 -42,39 0,25 18,46 42,46 25,0 42,-18 42,-42 0,-21 -18,-42 -42,-42zm0 28c7,0 14,7 14,18l-7 0c0,-4 -4,-7 -7,-7 -4,0 -7,4 -7,7l-7 0c0,-11 7,-18 14,-18zm0 53c-21,0 -35,-18 -35,-39l18 0c0,11 7,18 18,18 11,0 18,-7 18,-18l18 0c0,25 -14,39 -35,39z"/>
    <polygon class="fil0" points="8096,2558 8096,2562 8092,2562 8092,2562 8092,2565 8096,2565 8096,2565 8096,2562 8099,2562 8096,2562 "/>
    <polygon class="fil0" points="8096,2565 8096,2565 8096,2565 8092,2569 8092,2569 8092,2569 8096,2569 8096,2569 8096,2569 8099,2569 "/>
    <path class="fil0" d="M5637 3966c0,0 0,0 0,0 0,-4 0,-7 0,-7 0,0 0,0 0,0 -25,-4 -46,-11 -64,-14 -4,0 -4,0 -7,-4 -11,-4 -18,-7 -25,-11 0,0 -4,0 -4,-4 -4,0 -4,-4 -7,-4l0 32c21,4 71,11 106,11z"/>
    <path class="fil0" d="M8075 2555c0,0 0,0 0,0 -7,0 -11,4 -11,7 0,4 4,7 7,7 0,0 0,0 0,0 -4,0 -7,-4 -7,-7 4,-4 7,-7 11,-7z"/>
    <polygon class="fil0" points="8082,2565 8082,2565 8082,2565 8078,2569 8082,2569 8082,2569 8082,2569 8085,2569 8085,2569 8085,2569 "/>
    <path class="fil0" d="M5633 2378c14,0 25,-11 25,-25l-14 0c0,7 -7,14 -14,11 -7,0 -14,-7 -14,-14l-14 0c4,14 14,25 32,28z"/>
    <path class="fil0" d="M5598 4181c11,-4 25,-4 39,-4 0,-11 0,-25 0,-35l0 0c0,0 0,0 0,0 -25,-4 -81,-7 -102,-14 0,0 0,0 0,0 0,18 0,32 4,46 0,0 0,0 0,0 14,4 35,7 56,11 0,-4 0,-4 4,-4z"/>
    <path class="fil0" d="M5552 4287c-4,-18 -4,-32 -4,-49 -4,0 -7,0 -11,-4l0 0c0,11 0,25 4,35 0,0 0,7 0,14l0 0 0 0c0,0 0,0 0,0 0,4 7,4 11,4z"/>
    <path class="fil0" d="M5633 4128c0,-14 0,-28 0,-42 -25,-4 -81,-7 -102,-14 0,14 0,32 0,46 18,4 67,11 102,11z"/>
    <path class="fil0" d="M5552 4294c-4,0 -11,0 -14,0l0 0c0,7 4,14 7,25 4,7 7,18 14,28 0,0 0,0 0,0 4,0 7,0 11,0 -7,-18 -14,-35 -18,-53z"/>
    <path class="fil0" d="M5566 4354c0,0 0,0 0,0 4,4 4,4 7,7 0,0 0,0 0,0 0,-4 -4,-4 -4,-7 0,0 -4,0 -4,0z"/>
    <path class="fil0" d="M7422 3331c-1224,0 -1767,-56 -1894,-74 -67,-7 -92,-32 -102,-53 -4,-7 -4,-11 -4,-18 0,0 0,0 0,0 0,4 0,11 4,18 4,88 14,187 28,300 0,0 14,53 32,152l0 0c0,4 0,4 0,7 0,0 0,0 0,0 4,14 4,25 7,39 7,46 11,81 14,106 0,4 0,7 0,7 4,28 7,49 11,64 0,4 4,4 4,7 0,0 0,0 0,0l0 0c0,0 0,4 4,4 0,4 4,4 4,4 0,0 4,4 4,4l0 0c0,0 0,0 0,0 0,0 0,0 0,0 0,0 0,0 0,0 0,0 4,4 4,4 4,4 7,4 7,7 4,4 11,7 21,11 4,0 4,0 7,4 18,7 39,11 64,14 0,0 0,0 0,0 0,0 0,0 0,0 4,0 4,0 7,0 0,0 0,0 0,0 0,0 0,0 0,0 4,0 4,0 7,0 35,7 78,14 127,18 0,0 0,0 0,0 0,0 0,0 0,0 4,0 7,0 7,0 0,0 0,0 0,0 42,4 85,11 134,14 0,0 0,0 0,0 0,0 0,0 0,0 4,0 7,0 11,0 0,0 0,0 0,0 32,4 64,4 95,7 0,0 0,0 0,0 0,0 0,0 0,0 11,0 21,0 35,4 0,0 0,0 0,0 370,25 882,35 1358,35l0 0c325,0 667,-7 970,-18l0 -56c-332,11 -706,18 -970,18l0 0c-413,0 -1090,-18 -1461,-39 -141,-7 -300,-28 -360,-39 -32,-7 -39,-28 -42,-60 0,0 0,-4 0,-4 4,0 4,0 7,4 60,14 208,35 395,46 367,21 1048,39 1461,39l0 0c265,0 639,-7 970,-18l0 -155c-388,0 -815,0 -970,0 0,0 0,0 0,0 -296,0 -1577,4 -1686,4 -113,0 -176,35 -176,35 0,0 60,-42 162,-42l1697 -11 0 0 970 7 0 -406c-250,11 -568,14 -960,14l0 0z"/>
    <path class="fil0" d="M7422 4037c-473,0 -981,-11 -1351,-35 -4,0 -4,0 -7,0 -4,106 -14,279 -18,303 0,0 0,0 0,4 0,7 -4,11 -7,18 -4,7 -7,14 -11,18 370,-11 857,-18 1394,-18 349,0 681,4 970,7l0 -314c-303,14 -646,18 -970,18l0 0z"/>
    <path class="fil0" d="M5940 3991c-4,0 -4,0 -7,0 0,14 0,25 -4,39 0,4 0,7 0,11 0,60 0,109 0,152 0,4 0,7 0,11 0,18 4,32 4,46l0 11c0,7 4,14 4,21 0,0 0,0 0,0 0,4 0,4 0,7 0,0 0,0 0,0 0,7 4,11 4,18 4,-14 11,-28 18,-49 7,-32 18,-106 18,-159 0,-32 25,-46 46,-46 0,-7 0,-14 0,-21l0 -11c0,-7 0,-14 0,-21 0,0 0,0 0,0 -21,0 -53,-4 -81,-7z"/>
    <path class="fil0" d="M5549 4227c0,-11 0,-21 7,-28 4,-4 11,-7 18,-11 -14,-4 -28,-4 -39,-7l0 0c0,4 0,7 0,11 0,11 0,25 0,35l0 0c4,0 11,0 14,0 0,0 0,0 0,0z"/>
    <path class="fil0" d="M5633 4075l0 0c0,-7 0,-14 0,-25 0,-7 0,-14 0,-21 0,0 0,0 0,0 -25,-4 -85,-7 -102,-14 0,14 0,32 0,46 18,4 67,14 102,14z"/>
    <path class="fil0" d="M5633 4019l0 0c0,-4 0,-4 0,-4 0,-14 0,-28 4,-39 0,0 0,0 0,0 -25,0 -81,-7 -106,-14l-4 46 0 0c21,4 71,14 106,11z"/>
    <path class="fil1" d="M5806 4351c0,0 0,0 0,0 0,4 0,7 -4,7 -32,0 -64,0 -95,0 0,0 0,-4 0,-4 -11,0 -25,0 -35,0 4,11 7,21 14,28l138 0c-7,-4 -14,-18 -18,-32 0,0 0,0 0,0z"/>
    <path class="fil1" d="M7422 4329c-536,0 -1023,7 -1394,18 -18,28 -39,42 -64,53 -4,0 -11,4 -14,4 -4,0 -11,4 -14,4 -21,4 -39,0 -39,0l-226 0c-25,0 -46,0 -64,-4 -25,-7 -42,-14 -53,-28 -4,-4 -4,-4 -7,-7 -141,7 -219,18 -219,28 0,35 935,64 2089,64 349,0 681,-4 970,-7l0 -116c-286,-7 -617,-7 -967,-7z"/>
    <path class="fil1" d="M5954 4365c-4,0 -7,0 -7,-4 0,0 0,0 0,-4 -28,0 -60,0 -88,0 0,-4 -4,-7 -4,-7 -14,0 -25,0 -39,0 4,14 11,28 14,35l67 0c0,0 25,0 56,-18 4,0 4,-4 7,-4l0 0c-4,0 -4,0 -7,0 0,0 0,0 0,0z"/>
    <path class="fil1" d="M5665 4361c0,4 0,4 -4,4 -28,0 -56,0 -85,0 0,0 0,0 0,0 7,7 14,11 25,14 18,7 42,11 74,11 -4,-11 -7,-18 -11,-28 0,0 0,0 0,0z"/>
    <path class="fil1" d="M8392 1800l0 -7 -2434 0c-42,0 -21,-64 -7,-102 11,-32 155,-423 289,-582 49,-60 363,-85 660,-92l4 0c229,-11 445,-14 522,-14l0 0c74,0 293,4 522,14l4 0c159,4 321,14 445,28l0 -11c-303,-42 -818,-42 -970,-42l0 0c-208,0 -1104,0 -1196,109 -134,162 -282,564 -293,596 -14,39 -32,106 7,106l25 0 7 0 2417 0 0 -4z"/>
    <path class="fil1" d="M5524 3892c0,0 0,0 0,0 0,-4 -4,-4 -4,-7 -7,-18 -11,-35 -11,-64 0,-4 0,-7 0,-7 -4,-28 -7,-64 -14,-106 -4,-14 -4,-28 -7,-39 0,0 0,0 0,0 0,-4 0,-4 0,-7l0 0c-18,-102 -32,-152 -32,-152 -14,-113 -25,-212 -28,-300 -4,-7 -4,-11 -4,-18 0,-4 0,-7 0,-11 0,0 0,4 0,11 0,0 0,0 0,0 0,0 0,0 0,0 0,4 4,4 4,7 0,-18 0,-35 0,-53 0,-42 4,-81 11,-120 4,-18 4,-32 7,-49 11,-102 -4,-159 -4,-236 0,-7 0,-14 0,-21l0 0c0,0 0,-4 0,-4 4,-71 7,-131 11,-187 -7,85 -14,169 -14,212 0,78 14,134 4,233 0,18 -4,35 -7,53 -4,21 -7,42 -7,64 -11,120 4,254 25,423 0,0 14,60 39,176l0 0c0,7 4,14 4,21 0,7 4,14 4,18 4,32 7,56 11,78 0,4 0,7 0,7 4,28 4,49 11,64 0,4 4,7 4,11 4,4 4,11 7,14 0,0 0,0 0,0l0 0 -7 -11z"/>
    <path class="fil1" d="M7422 4029c-476,0 -988,-11 -1358,-35 0,4 0,7 0,11l0 0c4,0 4,0 7,0 370,25 878,35 1351,35l0 0c325,0 667,-7 970,-18l0 -11c-303,11 -646,14 -970,18l0 0z"/>
    <path class="fil1" d="M5542 3927c7,4 14,7 25,11 4,0 4,0 7,4 18,7 39,11 64,14 0,0 0,0 0,0 0,0 0,0 0,0 0,-4 0,-7 0,-11 0,0 0,0 0,0 -25,-4 -46,-11 -64,-14 -4,0 -4,0 -7,-4 -7,-4 -14,-7 -21,-11 -4,-4 -7,-4 -7,-7 0,0 -4,-4 -4,-4 0,0 0,0 0,0 0,0 0,0 0,0l0 11 0 0c0,0 4,4 7,4 0,4 0,7 0,7z"/>
    <path class="fil1" d="M5647 3959c4,0 4,0 7,0 7,0 18,4 25,4 4,0 4,0 7,0 28,4 60,7 95,14l0 0c0,0 0,0 0,0 0,-4 0,-7 0,-11 0,0 0,0 0,0 -49,-7 -92,-11 -127,-18 -4,0 -4,0 -7,0 0,4 0,7 0,11 0,0 0,0 0,0z"/>
    <path class="fil1" d="M5482 2280c0,-4 4,-7 4,-11 0,0 0,-4 0,-4 7,-28 18,-49 25,-67 0,0 0,0 0,0 0,0 0,0 0,0 25,-53 56,-102 95,-138 60,-60 81,-109 116,-155 39,-46 78,-120 78,-120 0,0 7,-18 21,-49 0,0 0,-4 4,-4 18,-46 46,-109 78,-183 0,0 0,0 0,-4 0,0 0,-4 0,-4 56,-127 169,-321 169,-321 0,0 102,-159 180,-236 78,-78 155,-81 166,-81 11,0 -25,18 -67,102 7,-11 53,-85 85,-102 4,-4 4,-11 -14,-11 -14,4 -92,7 -169,81 -78,78 -180,236 -180,236 0,0 -116,198 -173,325 0,0 0,0 0,4 0,0 0,4 -4,4 -32,71 -60,138 -78,180 0,0 0,4 -4,4 -11,28 -18,46 -18,46 0,0 -39,71 -78,120 -39,46 -56,99 -120,159 -60,60 -109,159 -127,233 -4,18 -7,46 -14,81 0,-11 4,-21 4,-28 4,-14 7,-28 11,-42 0,-4 0,-7 4,-11 7,4 7,0 7,-4z"/>
    <path class="fil1" d="M5792 3977c4,0 4,0 7,0 0,0 0,0 0,0 21,4 46,4 71,7 7,0 18,4 28,4 11,0 21,4 32,4 0,0 0,0 0,0 0,0 0,0 0,0 0,-4 0,-7 0,-11 0,0 0,0 0,0 -49,-4 -95,-7 -134,-14 -4,7 -4,7 -4,11 0,0 0,0 0,0z"/>
    <path class="fil1" d="M5937 3984c0,0 0,4 0,4 0,4 0,4 0,7 0,0 0,0 0,0 4,0 4,0 7,0 28,4 56,4 88,7 0,0 0,0 0,0 0,0 0,0 0,0 0,-4 0,-7 0,-11 0,0 0,0 0,0 -35,-4 -67,-7 -95,-7z"/>
    <path class="fil1" d="M8357 897c-4,-7 -11,-11 -18,-11 -7,-4 -18,-4 -18,-4 -247,-42 -759,-42 -900,-42l0 0c-141,0 -653,0 -900,42 0,0 -11,4 -18,4 -7,0 -14,7 -18,11 -32,35 -49,74 -56,92 28,-49 60,-92 74,-95 250,-46 780,-46 917,-42l0 0c134,0 663,-4 917,42 11,4 32,28 53,64l0 -7c-7,-18 -21,-39 -35,-53z"/>
    <path class="fil1" d="M6173 2812c0,0 0,0 0,0 -21,-49 -222,-519 -293,-826 0,-4 -4,-11 -4,-14l0 0c0,-4 -4,-4 -4,-4 -21,0 -120,-4 -155,11 -49,18 -162,162 -198,208 -4,4 -4,7 -7,11 0,0 0,0 0,0 0,0 0,0 0,0 -11,14 -18,35 -25,67 0,0 0,4 0,4 0,7 -4,14 -4,21 0,4 0,7 -4,11 -7,25 -11,56 -18,92l0 7c-4,32 -7,71 -11,109 0,0 0,4 0,4 0,7 0,11 0,18 -4,53 -7,116 -11,187 0,0 0,0 0,4l0 0c7,11 35,46 138,60 120,14 497,39 589,39l4 -7c0,0 0,0 0,0zm-46 -28c-56,0 -420,-11 -572,-46 0,0 -64,-7 -102,-42 -4,-4 -4,-7 -4,-11 0,-39 4,-243 46,-413 7,-32 21,-60 39,-85 28,-39 78,-102 145,-169 7,-7 11,-11 18,-14 18,-11 35,-14 60,-14 14,0 35,0 60,0 7,0 18,0 25,0 4,0 11,4 11,7 18,64 148,490 279,776 4,7 0,11 -4,11z"/>
    <path class="fil1" d="M5838 2012c-7,0 -18,0 -25,0 -25,0 -42,0 -56,0 -21,0 -42,4 -56,14 -7,4 -11,7 -18,14 -67,63 -113,123 -141,162 -11,14 -21,32 -28,46 0,4 -4,7 -4,11 4,0 4,0 7,0l0 0c7,0 14,0 21,4 11,0 25,4 42,4 18,0 39,4 60,4 7,0 14,0 25,0 7,0 11,0 18,0 18,0 39,4 60,4 7,0 11,0 18,0 4,0 7,0 11,0l0 0 0 0c18,0 39,0 56,0 28,0 56,0 92,0 4,0 7,0 11,0 0,-4 -4,-7 -4,-11 -42,-123 -71,-222 -81,-247 0,0 -4,-4 -7,-4zm-11 254c-18,0 -39,0 -56,0l0 0 0 0c-4,0 -7,0 -11,0 -7,0 -14,0 -18,0 -21,0 -39,-4 -60,-4 -7,0 -11,0 -18,0 -7,0 -14,0 -25,0 -21,0 -42,-4 -60,-4 -18,0 -28,-4 -42,-4 -7,0 -11,0 -18,-4 7,-14 14,-28 25,-42 25,-35 74,-95 134,-159 4,-4 11,-11 14,-14 14,-11 32,-14 53,-14 0,0 4,0 4,0l4 0c14,0 32,0 49,0 7,0 14,0 25,0 4,0 7,4 11,7 7,25 35,120 74,240 -28,0 -56,-4 -85,-4z"/>
    <path class="fil1" d="M5485 2403c4,0 4,0 7,4l0 0c4,0 4,0 7,4 11,4 28,7 46,7 7,0 14,4 25,4 7,0 18,4 28,4 4,0 11,0 14,0 25,4 53,4 88,7 7,0 14,0 21,0 7,0 18,0 25,0 7,0 18,0 25,0 11,0 21,0 32,0 -18,-53 -35,-102 -49,-152 -7,0 -11,0 -18,0 -21,0 -39,-4 -56,-4 -7,0 -11,0 -18,0 -7,0 -14,0 -21,0 -21,0 -39,-4 -56,-4 -14,0 -28,-4 -39,-4 -7,0 -14,0 -21,-4 -7,0 -11,0 -14,-4l0 0c-4,0 -4,0 -7,0 -4,7 -4,14 -7,21 -11,39 -18,78 -21,116 7,4 7,4 11,4l0 0zm148 -88c21,0 35,18 35,39 0,21 -18,35 -35,35 -21,0 -35,-18 -35,-39 -4,-21 14,-39 35,-35z"/>
    <path class="fil1" d="M5633 2382c18,0 32,-11 32,-28 0,-18 -14,-32 -32,-32 -18,0 -32,11 -32,28 0,18 14,32 32,32zm0 -42c7,0 11,7 11,11l-7 0c0,-4 -4,-7 -7,-7 -4,0 -7,4 -7,4l-7 0c7,-4 11,-7 18,-7zm-14 11c0,7 7,14 14,14 7,0 14,-4 14,-11l14 0c0,14 -11,25 -25,25 -14,0 -25,-14 -25,-28l7 0z"/>
    <path class="fil1" d="M5873 2322c-18,0 -32,11 -32,28 0,18 14,32 32,32 18,0 32,-11 32,-28 -4,-14 -18,-32 -32,-32zm0 21c7,0 11,7 11,11l-4 0c0,-4 -4,-7 -7,-7 -4,0 -7,4 -7,4l-7 0c4,-4 7,-7 14,-7zm0 35c-14,0 -25,-14 -25,-28l14 0c0,7 7,14 14,14 7,0 14,-4 14,-11l14 0c-7,18 -18,28 -32,25z"/>
    <path class="fil1" d="M5820 2287c-18,0 -35,0 -53,0l0 0c14,49 32,99 49,152 49,0 95,4 155,4l11 0c-18,-53 -35,-102 -53,-148l-11 0c-35,-7 -67,-7 -99,-7zm53 102c-21,0 -35,-18 -35,-39 0,-21 18,-35 35,-32 21,0 35,18 35,39 0,18 -18,35 -35,32z"/>
    <path class="fil1" d="M5824 2445l-7 0c-14,0 -28,0 -39,0 -7,0 -18,0 -25,0 -11,0 -18,0 -28,0 -7,0 -14,0 -21,0 -35,-4 -67,-4 -92,-7 -7,0 -11,0 -18,0 -11,0 -21,-4 -28,-4 -7,0 -18,-4 -25,-4 -21,-4 -39,-7 -49,-7 -4,0 -4,0 -7,0 0,0 -4,0 -4,0l0 0c0,0 -4,0 -4,0 0,4 0,4 0,7 -18,120 -18,229 -18,254 0,4 0,7 4,11 39,35 99,42 99,42 35,7 81,14 134,21 7,0 14,0 21,4 7,0 18,0 28,4 21,0 42,4 64,4 0,0 4,0 4,0 32,4 64,4 92,7 18,0 32,0 49,4 0,0 0,0 4,0 7,0 11,0 18,0 7,0 11,0 18,0 4,0 7,0 7,0 7,0 18,0 25,0 4,0 7,0 11,0 11,0 21,0 32,0 0,0 4,0 4,0 4,0 7,0 7,0 4,0 7,0 11,0 4,0 7,0 11,0l7 0c4,0 7,0 7,0 4,0 4,-4 4,-7 -4,-7 -7,-18 -11,-25 -4,-11 -11,-21 -14,-32 -35,-78 -67,-162 -99,-247 -4,-7 -4,-11 -7,-18l-11 0c-60,-7 -106,-7 -152,-7zm275 310c0,4 0,4 -4,7l0 0c0,0 0,0 0,0 -11,0 -32,0 -60,-4 -11,0 -18,0 -28,0 -14,0 -32,0 -49,-4 -7,0 -11,0 -18,0 -14,0 -32,0 -49,-4 -116,-7 -250,-18 -328,-35 0,0 0,0 0,0 0,0 0,0 0,0 0,0 -4,0 -7,0 -7,0 -18,-4 -32,-7 -11,-4 -21,-7 -32,-14 -7,-4 -14,-11 -21,-18 -4,-4 -4,-7 -4,-11 0,-4 0,-14 0,-25 0,-7 0,-14 0,-25 0,-4 0,-4 0,-7 0,-7 0,-18 0,-25 0,-21 4,-42 4,-67 0,-18 4,-35 7,-56 0,-11 4,-21 4,-28 0,-4 0,-7 0,-7 0,0 0,-4 0,-4 4,0 4,0 7,0 11,4 28,7 49,7 7,0 18,4 25,4 11,0 18,4 28,4 4,0 11,0 18,0 25,4 56,4 92,7 7,0 14,0 21,0 7,0 18,0 28,0 7,0 18,0 25,0 14,0 25,0 39,0l7 0c49,0 95,4 155,4 39,109 81,215 123,307z"/>
    <path class="fil1" d="M5612 2615c-21,0 -39,-21 -39,-39l-35 -4c0,42 35,78 78,81 42,4 78,-28 78,-71l-39 -4c-4,21 -21,39 -42,35z"/>
    <path class="fil1" d="M5612 2562c7,0 18,7 18,18l14 0c0,-18 -14,-32 -32,-32 -18,0 -32,11 -32,28l14 0c4,-7 11,-14 18,-14z"/>
    <path class="fil1" d="M5612 2470l0 0c-7,0 -14,0 -18,0 -49,4 -88,46 -88,99 0,60 46,109 106,113 7,0 11,0 14,0 53,-4 92,-46 92,-99 4,-60 -46,-109 -106,-113zm0 198c-49,-4 -92,-46 -92,-99 0,-49 39,-88 92,-85 49,4 92,46 92,99 0,49 -39,88 -92,85z"/>
    <path class="fil1" d="M5746 2587c0,60 46,109 106,116 0,0 4,0 4,0 56,4 102,-42 102,-99 0,-60 -49,-109 -106,-113 -4,0 -7,0 -11,0 -53,-4 -95,39 -95,95zm106 -85c49,4 92,49 92,99 0,49 -42,88 -92,85 -49,-4 -92,-49 -92,-99 4,-49 42,-88 92,-85z"/>
    <path class="fil1" d="M5852 2671c42,4 78,-28 78,-71l-39 -4c0,21 -18,35 -39,35 -21,0 -39,-21 -39,-39l-39 -4c4,42 35,78 78,81z"/>
    <path class="fil1" d="M5852 2580c7,0 14,7 18,18l14 0c0,-18 -14,-32 -32,-32 -18,0 -32,11 -32,28l14 0c4,-7 11,-14 18,-14z"/>
    <path class="fil1" d="M5750 2153c4,0 7,4 7,7l7 0c0,-7 -7,-14 -14,-18 -7,0 -14,7 -14,14l7 0c0,0 4,-4 7,-4z"/>
    <path class="fil1" d="M5750 2181c-11,0 -18,-11 -18,-18l-18 0c0,21 18,35 35,39 21,0 35,-14 35,-32l-18 0c0,4 -7,11 -18,11z"/>
    <path class="fil1" d="M5750 2110l0 0c-4,0 -4,0 -4,0 -25,0 -46,21 -46,46 0,28 21,53 49,56l0 0c28,0 49,-18 49,-46 4,-32 -21,-56 -49,-56zm0 95c-25,-4 -42,-21 -42,-46 0,-25 18,-42 42,-39 25,4 42,21 42,46 0,21 -18,39 -42,39z"/>
    <path class="fil1" d="M6215 3042c-180,-4 -639,-21 -744,-67 0,14 -4,32 -7,49 -7,39 -7,78 -11,120 85,67 840,78 840,78 -35,-39 -74,-162 -78,-180z"/>
    <path class="fil1" d="M8378 3130c-120,4 -741,11 -953,14l0 0c-215,0 -836,-11 -953,-14 -18,0 -32,-4 -46,-7 -138,-35 -152,-120 -236,-314 0,0 0,-4 -4,-4 -166,-388 -300,-797 -300,-836 0,-25 0,-74 18,-92 11,-11 64,-71 64,-71l7 -4 -7 0 -4 4c0,0 -53,60 -64,71 -21,21 -18,67 -18,92 0,39 131,452 300,840 0,4 4,4 4,7 85,201 99,282 243,318 14,4 25,4 39,4 116,4 741,14 956,14l0 0c219,0 840,-11 956,-14 4,0 7,0 14,0l0 -4c-7,-4 -14,-4 -18,-4z"/>
    <path class="fil1" d="M8367 3148c-152,4 -737,11 -945,14l0 0c-208,0 -794,-11 -945,-14 -32,0 -60,-4 -92,-14 -113,-39 -131,-123 -208,-300 0,0 0,-4 -4,-4 -4,-4 -4,-7 -7,-11 0,0 0,0 0,0l-4 0c127,300 123,430 261,441 0,0 741,11 991,11l0 0c226,0 843,-11 970,-11l0 -109c0,-7 -11,-7 -18,-4z"/>
    <path class="fil1" d="M5422 3190c0,4 0,11 4,18 11,21 35,46 102,53 131,18 670,71 1894,74l0 0c388,0 709,-7 970,-14l0 -18c-427,11 -840,11 -970,11l0 0c-233,0 -1379,-4 -1894,-78 0,0 -81,-14 -102,-39 0,0 0,0 0,0 0,0 -4,-4 -4,-7 0,0 0,0 0,0z"/>
    <path class="fil1" d="M7422 3726l-1697 11c-106,0 -162,42 -162,42 0,0 64,-35 176,-35 109,0 1390,-4 1686,-4 0,0 0,0 0,0 155,0 582,0 970,0l0 -11 -974 -4 0 0z"/>
    <path class="fil1" d="M7422 3917c-413,0 -1090,-18 -1461,-39 -187,-11 -335,-32 -395,-46 -4,0 -4,0 -7,-4 0,0 0,4 0,4 4,32 11,53 42,60 60,11 219,32 360,39 367,21 1048,39 1461,39l0 0c265,0 639,-7 970,-18l0 -53c-332,11 -706,18 -970,18l0 0z"/>
    <path class="fil1" d="M7422 1959c-1002,0 -1503,21 -1503,21l1503 -7 0 0 970 4 0 -11c-240,-4 -564,-7 -970,-7l0 0z"/>
    <path class="fil1" d="M8367 2590c0,4 0,4 -4,7 -4,11 -7,18 -7,28 -21,71 -46,148 -63,205 -4,7 -7,18 -11,25 0,0 0,0 0,4 0,4 -4,7 -4,11 -4,7 -7,14 -7,21 0,4 -4,7 -4,11 -46,92 -183,88 -183,88l-1319 0c0,0 -138,7 -183,-88 -42,-88 -127,-399 -138,-437l95 420c0,0 21,138 229,138l1309 0c212,0 229,-138 229,-138l85 -374 0 -7c-4,18 -11,42 -18,67 -4,7 -4,14 -7,21z"/>
    <path class="fil1" d="M7422 2301l-1425 -14c14,46 32,92 49,138 39,0 1164,11 1376,11l0 0c131,0 614,-4 970,-7l0 -138 -970 11 0 0z"/>
    <path class="fil1" d="M5612 4400c18,4 39,7 64,4l226 0c0,0 18,4 39,0 4,0 7,0 14,-4 4,0 11,-4 14,-4 25,-7 46,-25 64,-53 4,-7 7,-11 11,-18 4,-7 4,-11 7,-18 0,0 0,0 0,-4 7,-25 14,-198 18,-303l0 0c0,-4 0,-7 0,-11 0,0 0,0 0,0 -11,0 -21,0 -35,-4 0,0 0,0 0,0 0,4 0,7 0,11 0,0 0,0 0,0 0,7 0,14 0,21l0 7c0,7 0,14 0,21 11,0 21,4 21,11 -4,155 -14,222 -21,250 -4,14 -18,42 -35,49 -7,4 -21,4 -32,4 4,11 7,18 11,25 0,0 -4,0 -7,4 -4,-7 -11,-18 -14,-28l0 0c-4,0 -4,4 -7,4 -28,18 -56,18 -56,18l-67 0c4,4 4,7 7,11l-7 0c-4,-4 -7,-7 -7,-11l-138 0c4,4 4,7 7,11l-7 0c-4,-4 -7,-7 -7,-11 -32,4 -56,-4 -74,-11 -11,-4 -18,-7 -25,-14 0,0 0,0 0,0 0,0 0,0 0,0 0,0 0,0 0,0 0,0 0,0 0,0 -4,-4 -7,-4 -7,-7 0,0 0,0 0,0 -4,0 -4,0 -7,0 -4,-4 -4,-7 -4,-7 0,0 4,0 7,0 0,0 0,0 0,0 -7,-7 -11,-18 -14,-28 -4,-7 -4,-18 -7,-25l0 0c0,0 0,0 0,0 0,-4 0,-7 0,-7l0 0 0 0c0,-11 0,-14 0,-14 0,-11 0,-21 -4,-35l0 0c0,0 0,0 0,0l0 0c0,-4 0,-7 0,-7 0,0 0,0 4,0l0 0c0,-11 0,-25 0,-35 0,-4 0,-7 0,-11l0 0c0,0 0,0 -4,0 0,-4 0,-7 0,-7 0,0 0,0 4,0 0,0 0,0 0,0 0,-14 0,-32 -4,-46 0,0 0,0 0,0 0,0 0,0 0,0l0 -7c0,0 0,0 0,0 0,-14 0,-32 0,-46 0,0 0,0 0,0 0,0 0,-4 0,-4 0,0 0,-4 0,-4 0,0 0,0 0,0 0,-14 0,-32 0,-46 0,0 0,0 0,0l0 -7c0,0 0,0 0,0l0 0 4 -46c0,0 0,0 0,0l0 -7c0,0 0,0 0,0l0 -32 0 0 0 -11c0,0 0,0 0,0l0 0c0,0 -4,-4 -4,-4 0,0 -4,-4 -4,-4 0,0 0,-4 -4,-4l0 0 0 14 0 0 -4 99c0,64 0,131 4,191 4,28 0,53 4,81 0,0 0,18 7,42 0,7 4,18 7,25 4,7 7,14 11,18 4,4 4,4 7,7 7,-4 21,7 46,14z"/>
    <path class="fil1" d="M5672 4358c-4,-7 -4,-11 -7,-18l0 0c0,0 0,-4 0,-4l0 0 0 0c-7,-25 -11,-53 -18,-92 0,-4 0,-4 0,-7 0,-14 -4,-28 -4,-42 0,-4 0,-7 0,-11 0,-14 0,-28 -4,-42l0 -11c0,-14 0,-28 0,-42 0,-4 0,-7 0,-11 0,-14 0,-28 0,-42 0,-4 0,-7 0,-11 0,-14 0,-28 4,-42 0,-4 0,-7 0,-11 0,-4 0,-4 0,-7 0,0 0,0 0,0 0,-4 0,-7 0,-11 0,0 0,0 0,0 0,0 0,0 0,0 -4,0 -4,0 -7,0 0,0 0,0 0,0 0,4 0,7 0,11 0,0 0,0 0,0 0,4 0,7 0,7 0,0 0,0 0,0 0,0 0,0 4,0 0,4 0,7 0,11 0,0 0,0 -4,0 0,0 0,0 0,0 0,14 0,25 -4,39 0,0 0,4 0,4l0 0c0,0 0,0 0,0l0 11c0,0 0,0 0,0 0,0 0,0 0,0 0,0 0,0 0,0 0,7 0,14 0,21 0,7 0,14 0,21l0 0c0,0 0,0 0,0 0,4 0,7 0,11 0,0 0,0 0,0 0,14 0,28 0,42 0,0 0,0 0,0 0,4 0,7 0,11 0,0 0,0 0,0 0,0 0,0 0,0l0 0c0,11 0,25 0,35 0,0 0,0 0,0 7,18 0,85 28,180 0,0 0,4 0,7 0,0 0,0 0,0 4,11 7,21 14,28 4,4 4,7 7,11l7 0c-4,-4 -4,-7 -7,-11 -4,-14 -7,-25 -11,-35 0,0 0,0 0,0z"/>
    <path class="fil1" d="M5810 4333c-18,-64 -28,-173 -18,-356 0,0 0,0 0,0 0,-4 0,-7 0,-11 0,0 0,0 0,0 -4,0 -7,0 -7,0 0,0 0,0 0,0 0,4 0,7 0,11 0,0 0,0 0,0 -4,53 -4,113 -4,173 0,0 0,0 0,0 7,21 0,95 25,198 0,0 0,4 0,4 0,0 0,0 0,0 0,0 0,0 0,0 4,14 11,25 14,35 4,4 4,7 7,11l7 0c-4,-4 -4,-7 -7,-11 -4,-11 -11,-21 -14,-35 0,-4 -4,-11 -4,-18z"/>
    <path class="fil1" d="M5926 3991c-4,49 -4,106 0,159 0,0 0,0 0,0 0,0 0,0 4,0 7,18 0,60 18,141 0,0 0,0 0,0 0,-4 0,-4 0,-7 0,0 0,0 0,0 0,-7 -4,-14 -4,-21l0 -11c0,-14 -4,-28 -4,-46 0,-4 0,-7 0,-11 -4,-42 -4,-92 0,-152 0,-4 0,-7 0,-11 0,-14 0,-25 4,-39 0,0 0,0 0,0 0,0 0,-4 0,-7 0,0 0,-4 0,-4 0,0 0,0 0,0 -4,0 -7,0 -11,0 0,0 0,0 0,0 -7,0 -7,4 -7,7 0,0 0,0 0,0z"/>
    <path class="fil1" d="M5958 4365c0,0 0,0 0,0 4,11 11,21 14,28 4,0 4,0 7,-4 -4,-7 -7,-14 -11,-25 -7,0 -11,0 -11,0z"/>
    <path class="fil1" d="M5534 3910c0,0 0,-4 0,0l0 0 0 0c0,-4 0,-4 0,0 0,0 0,0 0,0 0,0 0,0 0,0z"/>
    <path class="fil1" d="M5640 3977c0,-4 0,-7 0,-11 0,0 0,0 -4,0 -35,4 -85,-7 -106,-11 0,0 0,0 0,0l0 7c0,0 0,0 0,0 25,7 81,11 109,14 -4,0 -4,0 0,0z"/>
    <path class="fil1" d="M5637 4029c0,0 0,0 0,0l0 -11c0,0 0,0 0,0 -39,0 -88,-11 -106,-14 0,0 0,0 0,0l0 7c0,0 0,0 0,0 18,11 78,14 106,18 -4,0 0,0 0,0z"/>
    <path class="fil1" d="M5633 4086c0,-4 0,-7 0,-11 0,0 0,0 0,0 -39,0 -85,-7 -102,-14 0,0 0,0 0,0 0,0 0,4 0,4 0,0 0,4 0,4 0,0 0,0 0,0 21,7 78,14 102,18 0,-4 0,-4 0,0z"/>
    <path class="fil1" d="M5633 4139c0,-4 0,-7 0,-11 0,0 0,0 0,0 -35,4 -85,-7 -102,-11 0,0 0,0 0,0l0 7c0,0 0,0 0,0 21,7 78,11 102,14 0,0 0,0 0,0z"/>
    <path class="fil1" d="M5591 4181c-21,-4 -46,-7 -56,-11 0,0 -4,0 -4,0 0,4 0,7 0,7 0,0 0,0 4,0 11,4 25,4 39,7 4,0 11,-4 18,-4z"/>
    <path class="fil1" d="M5549 4227c-4,0 -7,0 -11,-4 0,0 0,0 -4,0 0,4 0,7 0,7l0 0c0,0 0,0 0,0 4,0 7,0 11,4 4,0 4,-4 4,-7z"/>
    <path class="fil1" d="M5552 4287c-4,0 -11,0 -14,0 0,0 0,0 0,0 0,4 0,4 0,7 0,0 0,0 0,0 4,0 7,0 14,0 0,0 0,-4 0,-7z"/>
    <path class="fil1" d="M5570 4347c0,0 0,0 0,0 -4,-4 -7,-4 -11,-4 -4,0 -4,0 -7,0 0,4 4,7 4,7 4,0 4,0 7,0 0,0 4,0 4,0 4,0 4,0 4,-4z"/>
    <path class="fil1" d="M5926 4149c-14,0 -28,4 -42,4 -18,4 -35,7 -46,18 -7,11 -11,21 -11,32 -4,46 4,92 21,134 0,4 4,7 4,11 0,4 4,7 4,7 28,0 60,0 88,0 0,0 0,-4 0,-4 0,-25 4,-39 7,-49 0,-7 -4,-11 -4,-18 -18,-74 -14,-113 -21,-134 0,0 0,0 0,0z"/>
    <path class="fil1" d="M5736 4156c-18,4 -35,7 -46,18 -7,11 -11,21 -11,32 -4,46 4,92 21,134 4,4 4,11 7,14 0,0 0,4 0,4 32,0 64,0 95,0 4,0 4,-4 4,-7 0,0 0,0 0,0 0,0 0,-4 0,-4 -28,-102 -18,-176 -25,-198 0,0 0,0 0,0 -14,0 -32,4 -46,7z"/>
    <path class="fil1" d="M5665 4361c0,-4 0,-7 0,-7 -25,-92 -18,-159 -28,-180 0,0 0,0 0,0 -11,0 -28,4 -39,4 -4,0 -4,0 -7,0 -7,0 -14,4 -18,7 -7,4 -11,7 -18,11 -7,7 -7,18 -7,28 0,0 0,4 0,4 0,4 0,7 0,7 0,18 0,32 4,49 0,4 0,7 4,7 4,18 7,35 14,49 0,0 0,0 0,4 0,4 4,4 4,7 0,4 4,4 4,7 0,0 0,0 0,0 0,0 0,0 0,0 28,0 56,0 85,0 0,7 0,4 4,4z"/>
    <path class="fil1" d="M5983 4097c0,56 -11,127 -18,159 -4,21 -11,35 -18,49 -4,14 -7,28 -7,49 0,0 0,4 0,4 0,0 0,0 0,4 4,4 4,4 7,4 0,0 4,0 4,0 4,0 7,0 7,0 11,0 21,0 32,-4 14,-7 32,-35 35,-49 4,-28 14,-95 21,-250 0,-7 -11,-11 -21,-11 -14,0 -42,14 -42,46z"/>
    <path class="fil1" d="M7351 2202l141 0 0 -28 106 0 49 -88 -152 0 0 -28 -141 0 0 28 -106 0 -49 88 152 0 0 28zm-106 -42l28 -49 95 0 0 -32 106 0 0 32 127 0 -28 49 -99 0 0 28 -106 0 0 -28 -123 0z"/>
    <polygon class="fil1" points="7373,2181 7471,2181 7471,2156 7570,2156 7595,2110 7471,2110 7471,2079 7373,2079 7373,2110 7277,2110 7253,2156 7373,2156 "/>
    <path class="fil1" d="M5774 1708c-32,-56 11,-120 32,-138 18,-18 67,-21 88,-25 0,0 0,-4 4,-4 -21,4 -74,7 -92,25 -25,21 -67,85 -35,145 7,11 21,18 46,21 0,0 0,-4 4,-4 -21,-4 -39,-11 -46,-21z"/>
    <path class="fil1" d="M5771 1659l106 -106c-14,0 -28,4 -42,7l0 0 -49 49c-11,18 -14,32 -14,49z"/>
    <path class="fil1" d="M5778 1701l88 -88c7,-18 18,-39 25,-56l-120 120c0,7 4,18 7,25z"/>
    <path class="fil1" d="M5810 1722l21 -21c7,-18 14,-35 25,-56l-67 67c4,4 11,7 21,11z"/>
    <path class="fil1" d="M6395 1066l-222 180c-42,74 -81,162 -116,236l759 -452c-155,7 -314,18 -420,35z"/>
    <path class="fil1" d="M6910 1027l0 0c-7,0 -11,0 -14,0l-850 480c-39,88 -64,159 -71,169 -11,25 -18,56 -18,78l1080 -734c-39,4 -81,7 -127,7z"/>
    <path class="fil1" d="M7111 1020l-967 759 95 0 1125 -762c-60,0 -152,0 -254,4z"/>
    <path class="fil1" d="M7528 1017l-1207 762 349 0 981 -758c-46,-4 -88,-4 -123,-4z"/>
    <path class="fil1" d="M7933 1027c-67,-4 -131,-7 -191,-7l-931 759 106 0 1051 -748c-14,-4 -21,-4 -35,-4l0 0z"/>
    <path class="fil1" d="M7485 1779l730 -737c-49,-4 -102,-7 -159,-7l-928 744 356 0z"/>
    <path class="fil1" d="M7655 1779l176 0 561 -515 0 -201c-32,-4 -67,-7 -106,-11l-632 727z"/>
    <polygon class="fil1" points="8392,1779 8392,1401 8057,1779 "/>
    <path class="fil1" d="M6681 2841l1482 0c25,0 46,-21 46,-46l0 -247c0,-25 -21,-46 -46,-46l-1482 0c-25,0 -46,21 -46,46l0 247c0,25 21,46 46,46zm289 -318c0,-7 4,-11 11,-11l1178 0c21,0 39,18 39,39l0 233c0,21 -18,42 -42,42l-1175 0c-7,0 -11,-4 -11,-11l0 -293zm-325 21c0,-18 14,-32 32,-32l268 0c7,0 11,4 11,11l0 293c0,7 -4,11 -11,11l-261 0c-21,0 -35,-18 -35,-35l0 -247 -4 0z"/>
    <rect class="fil1" x="8060" y="2576" width="106" height="21"/>
    <rect class="fil1" x="8060" y="2601" width="106" height="21"/>
    <path class="fil1" d="M8166 2551l-106 0 0 21 106 0 0 -21zm-92 18c0,0 0,0 0,0 -7,0 -11,-4 -11,-7 0,-4 4,-7 7,-7 0,0 0,0 0,0 -4,0 -7,4 -7,7 4,4 7,7 11,7zm11 0l0 0 0 0 0 0 -4 -4 4 4 0 -4 0 4 0 0 0 0 0 0zm7 0l0 0 0 0 0 0 -4 -4 4 4 0 -4 0 4 0 0 0 0 0 0zm-4 -7l0 0 0 0 0 0 0 0 -4 0 4 0 0 0 0 0 0 0 0 0zm7 7l0 0 0 0 0 0 -4 -4 4 4 0 -4 0 4 0 0 0 0 0 0zm0 -7l0 0 0 0 0 0 0 0 -4 0 4 0 0 0 0 0 0 0 0 0zm0 -4l0 0 0 0 0 0 0 0 -4 0 4 0 0 0 0 0 0 0 0 0zm7 11l0 0 0 0 0 0 -4 -4 4 4 0 -4 0 4 0 0 0 0 0 0zm0 -7l0 0 0 0 0 0 0 0 -4 0 4 0 0 0 0 0 0 0 0 0zm0 -4l0 0 0 0 0 0 0 0 -4 0 4 0 0 0 0 0 0 0 0 0zm7 11l0 0 0 0 0 0 -4 -4 4 4 0 -4 0 4 0 0 0 0 0 0zm0 -7l0 0 0 0 0 0 0 0 -4 0 4 0 0 0 0 0 0 0 0 0zm0 -4l0 0 0 0 0 0 0 0 -4 0 4 0 0 0 0 0 0 0 0 0z"/>
    <path class="fil1" d="M8099 2763c0,14 -4,21 -14,21 -7,0 -14,-7 -14,-21l0 -42 -11 0 0 39c0,21 11,32 25,32 14,0 25,-11 25,-32l0 -39 -11 0 0 42z"/>
    <polygon class="fil1" points="8135,2781 8166,2731 8166,2724 8120,2724 8120,2735 8152,2735 8152,2735 8117,2788 8117,2795 8166,2795 8166,2784 8135,2784 "/>
    <path class="fil1" d="M6663 2675c4,0 7,-4 7,-7 0,-4 -4,-7 -7,-7 -4,0 -7,4 -7,7 0,4 4,7 7,7z"/>
    <path class="fil1" d="M8180 2675c4,0 7,-4 7,-7 0,-4 -4,-7 -7,-7 -4,0 -7,4 -7,7 0,4 4,7 7,7z"/>
   </g>
  </g>
 </g>
</svg>
