<?xml version="1.0" encoding="utf-8"?>
<!-- Generator: Adobe Illustrator 26.0.1, SVG Export Plug-In . SVG Version: 6.00 Build 0)  -->
<svg version="1.1" id="Слой_1" xmlns:xodm="http://www.corel.com/coreldraw/odm/2003"
	 xmlns="http://www.w3.org/2000/svg" xmlns:xlink="http://www.w3.org/1999/xlink" x="0px" y="0px" viewBox="0 0 238.1 150.2"
	 style="enable-background:new 0 0 238.1 150.2;" xml:space="preserve">
<style type="text/css">
	.st0{fill-rule:evenodd;clip-rule:evenodd;}
</style>
<g id="Слой_x0020_1">
	<g>
		<path class="st0" d="M119.5,74.4l6.5-3.6l-6-36.7L119.5,74.4z M17.1,12.5l1.9-1.1L17.1,0C17.1,0,17.1,12.5,17.1,12.5z M237.9,33.9
			v1l-1.5-1.1l0.8-0.4C237.3,33.3,237.9,33.9,237.9,33.9z M237.9,35.4v0.5l-2.3-1.3l0.4-0.4L237.9,35.4z M237.9,36.1v1.8l-2.5-0.9
			v-2.3C235.4,34.6,237.9,36.1,237.9,36.1z M237.9,77.1v1l-1.3-0.9l0.8-0.4L237.9,77.1z M237.9,78.7v0.5l-2.1-1.2l0.4-0.4
			L237.9,78.7L237.9,78.7z M237.9,79.3v1.8l-2.3-0.9V78L237.9,79.3z M237.9,120.4v1l-1.3-0.9l0.8-0.4L237.9,120.4L237.9,120.4z
			 M237.9,122v0.5l-2.1-1.2l0.4-0.4L237.9,122L237.9,122z M237.9,122.7v1.8l-2.3-0.9v-2.3L237.9,122.7z M231.3,150.2l-10-3.6v-2.3
			L231.3,150.2L231.3,150.2z M205.7,150.2l-10-3.6v-2.3L205.7,150.2L205.7,150.2z M180.2,150.2l-10-3.6v-2.3L180.2,150.2
			L180.2,150.2z M154.7,150.2l-10-3.6v-2.3L154.7,150.2L154.7,150.2z M129.2,150.2l-10-3.6v-2.3L129.2,150.2L129.2,150.2z
			 M103.7,150.2l-10-3.6v-2.3L103.7,150.2L103.7,150.2z M78.2,150.2l-10-3.6v-2.3L78.2,150.2L78.2,150.2z M52.6,150.2l-10-3.6v-2.3
			L52.6,150.2L52.6,150.2z M27.1,150.2l-10-3.6v-2.3L27.1,150.2L27.1,150.2z M-0.2,125.1v-1.4l4.2-2.3v2.3L-0.2,125.1z M-0.2,122.7
			v-0.7l2.3-1.8l0.8,0.4L-0.2,122.7L-0.2,122.7z M-0.2,81.7v-1.4L3.9,78v2.3L-0.2,81.7z M-0.2,79.3v-0.7L2,76.7l0.8,0.4L-0.2,79.3z
			 M-0.2,38.3v-1.4l4.2-2.3v2.3C3.9,36.9-0.2,38.3-0.2,38.3z M-0.2,35.9v-0.7L2,33.3l0.8,0.4L-0.2,35.9z M235.4,34.2l1.9-1.1
			l-1.9-11.4C235.4,21.7,235.4,34.2,235.4,34.2z M234.9,34.2l0.2-8.9l-0.6,8.6L234.9,34.2L234.9,34.2z M233.9,33.5l-0.6-0.4
			l1.9-11.4L233.9,33.5z M234.9,36.9v-2.3l-10.5,5.9C224.4,40.5,234.9,36.9,234.9,36.9z M234.3,34l0.4,0.4l-2.5,1.5L234.3,34z
			 M233.9,33.7l-0.8-0.4l-8.6,7L233.9,33.7z M235.6,120.9l1.9-1.1l-1.9-11.4V120.9z M235.1,120.9l0.2-8.9l-0.6,8.6L235.1,120.9
			L235.1,120.9z M234.1,120.3l-0.6-0.4l1.9-11.4L234.1,120.3z M235.1,123.7v-2.3l-10.5,5.9L235.1,123.7L235.1,123.7z M234.5,120.7
			l0.4,0.4l-2.5,1.5L234.5,120.7L234.5,120.7z M234.1,120.5l-0.8-0.4l-8.6,7L234.1,120.5L234.1,120.5z M235.6,77.5l1.9-1.1
			l-1.9-11.4V77.5z M235.1,77.5l0.2-8.9l-0.6,8.6L235.1,77.5L235.1,77.5z M234.1,76.9l-0.6-0.4l1.9-11.4
			C235.4,65.1,234.1,76.9,234.1,76.9z M235.1,80.3V78l-10.5,5.9L235.1,80.3z M234.5,77.3l0.4,0.4l-2.5,1.5L234.5,77.3L234.5,77.3z
			 M234.1,77.1l-0.8-0.4l-8.6,7C224.6,83.7,234.1,77.1,234.1,77.1z M3.3,34l0.4,0.4h0l0,0l-2.5,1.5L3.3,34z M221.3,143.9l1.9-1.1
			l-1.9-11.4V143.9L221.3,143.9z M220.8,143.9l0.2-8.9l-0.6,8.6L220.8,143.9z M219.8,143.3l-0.6-0.4l1.9-11.4L219.8,143.3
			L219.8,143.3z M222.3,143.5l0.8-0.4l8.4,7.2L222.3,143.5z M221.9,143.9l-0.4,0.4l7.8,4.4L221.9,143.9L221.9,143.9z M220.8,146.6
			v-2.3l-10.5,5.9L220.8,146.6L220.8,146.6z M220.2,143.7l0.4,0.4l-2.5,1.5L220.2,143.7z M219.8,143.5l-0.8-0.4l-8.6,7L219.8,143.5
			L219.8,143.5z M195.7,143.9l1.9-1.1l-1.9-11.4V143.9L195.7,143.9z M195.3,143.9l0.2-8.9l-0.6,8.6L195.3,143.9z M194.3,143.3
			l-0.6-0.4l1.9-11.4L194.3,143.3L194.3,143.3z M196.8,143.5l0.8-0.4l8.4,7.2L196.8,143.5L196.8,143.5z M196.4,143.9l-0.4,0.4
			l7.8,4.4L196.4,143.9z M195.3,146.6v-2.3l-10.5,5.9L195.3,146.6L195.3,146.6z M194.7,143.7l0.4,0.4l-2.5,1.5L194.7,143.7
			L194.7,143.7z M194.3,143.5l-0.8-0.4l-8.6,7L194.3,143.5L194.3,143.5z M170.2,143.9l1.9-1.1l-1.9-11.4V143.9L170.2,143.9z
			 M169.8,143.9l0.2-8.9l-0.6,8.6L169.8,143.9z M168.8,143.3l-0.6-0.4l1.9-11.4L168.8,143.3L168.8,143.3z M171.3,143.5l0.8-0.4
			l8.4,7.2L171.3,143.5L171.3,143.5z M170.9,143.9l-0.4,0.4l7.8,4.4L170.9,143.9z M169.8,146.6v-2.3l-10.5,5.9L169.8,146.6
			L169.8,146.6z M169.2,143.7l0.4,0.4l-2.5,1.5L169.2,143.7z M168.8,143.5l-0.8-0.4l-8.6,7L168.8,143.5L168.8,143.5z M144.7,143.9
			l1.9-1.1l-1.9-11.4V143.9L144.7,143.9z M144.3,143.9l0.2-8.9l-0.6,8.6L144.3,143.9z M143.2,143.3l-0.6-0.4l1.9-11.4L143.2,143.3
			L143.2,143.3z M145.8,143.5l0.8-0.4l8.4,7.2L145.8,143.5z M145.3,143.9l-0.4,0.4l7.8,4.4L145.3,143.9L145.3,143.9z M144.3,146.6
			v-2.3l-10.5,5.9L144.3,146.6L144.3,146.6z M143.7,143.7l0.4,0.4l-2.5,1.5L143.7,143.7z M143.2,143.5l-0.8-0.4l-8.6,7L143.2,143.5
			L143.2,143.5z M119.2,143.9l1.9-1.1l-1.9-11.4V143.9L119.2,143.9z M118.8,143.9l0.2-8.9l-0.6,8.6L118.8,143.9z M117.7,143.3
			l-0.6-0.4l1.9-11.4L117.7,143.3L117.7,143.3z M120.2,143.5l0.8-0.4l8.4,7.2L120.2,143.5L120.2,143.5z M119.8,143.9l-0.4,0.4
			l7.8,4.4L119.8,143.9z M118.8,146.6v-2.3l-10.5,5.9L118.8,146.6L118.8,146.6z M118.1,143.7l0.4,0.4l-2.5,1.5L118.1,143.7z
			 M117.7,143.5l-0.8-0.4l-8.6,7L117.7,143.5L117.7,143.5z M93.7,143.9l1.9-1.1l-1.9-11.4V143.9L93.7,143.9z M93.3,143.9l0.2-8.9
			l-0.6,8.6L93.3,143.9z M92.2,143.3l-0.6-0.4l1.9-11.4L92.2,143.3L92.2,143.3z M94.7,143.5l0.8-0.4l8.4,7.2
			C104,150.2,94.7,143.5,94.7,143.5z M94.3,143.9l-0.4,0.4l7.8,4.4C101.7,148.7,94.3,143.9,94.3,143.9z M93.3,146.6v-2.3l-10.5,5.9
			L93.3,146.6L93.3,146.6z M92.6,143.7l0.4,0.4l-2.5,1.5L92.6,143.7z M92.2,143.5l-0.8-0.4l-8.6,7L92.2,143.5L92.2,143.5z
			 M68.2,143.9l1.9-1.1l-1.9-11.4V143.9L68.2,143.9z M67.7,143.9l0.2-8.9l-0.6,8.6L67.7,143.9z M66.7,143.3l-0.6-0.4l1.9-11.4
			L66.7,143.3L66.7,143.3z M69.2,143.5l0.8-0.4l8.4,7.2C78.5,150.2,69.2,143.5,69.2,143.5z M68.8,143.9l-0.4,0.4l7.8,4.4L68.8,143.9
			z M67.7,146.6v-2.3l-10.5,5.9L67.7,146.6L67.7,146.6z M67.1,143.7l0.4,0.4l-2.5,1.5L67.1,143.7z M66.7,143.5l-0.8-0.4l-8.6,7
			L66.7,143.5L66.7,143.5z M42.6,143.9l1.9-1.1l-1.9-11.4V143.9L42.6,143.9z M42.2,143.9l0.2-8.9l-0.6,8.6L42.2,143.9z M41.2,143.3
			l-0.6-0.4l1.9-11.4L41.2,143.3L41.2,143.3z M43.7,143.5l0.8-0.4l8.4,7.2L43.7,143.5z M43.3,143.9l-0.4,0.4l7.8,4.4L43.3,143.9z
			 M42.2,146.6v-2.3l-10.5,5.9L42.2,146.6L42.2,146.6z M41.6,143.7l0.4,0.4l-2.5,1.5L41.6,143.7z M41.2,143.5l-0.8-0.4l-8.6,7
			L41.2,143.5L41.2,143.5z M17.1,143.9l1.9-1.1l-1.9-11.4V143.9L17.1,143.9z M16.7,143.9l0.2-8.9l-0.6,8.6L16.7,143.9z M15.6,143.3
			l-0.6-0.4l1.9-11.4L15.6,143.3L15.6,143.3z M18.2,143.5l0.8-0.4l8.4,7.2L18.2,143.5z M17.8,143.9l-0.4,0.4l7.8,4.4L17.8,143.9z
			 M16.7,146.6v-2.3l-10.5,5.9L16.7,146.6L16.7,146.6z M16.1,143.7l0.4,0.4l-2.5,1.5L16.1,143.7z M15.6,143.5l-0.8-0.4l-8.6,7
			L15.6,143.5L15.6,143.5z M208.5,120.9l1.9-1.1l-1.9-11.4V120.9z M208.1,120.9l0.2-8.9l-0.6,8.6L208.1,120.9z M207,120.3l-0.6-0.4
			l1.9-11.4L207,120.3z M209.6,120.5l0.8-0.4l8.4,7.2L209.6,120.5L209.6,120.5z M209.1,120.9l-0.4,0.4l7.8,4.4L209.1,120.9z
			 M208.5,123.7v-2.3l10.3,6.1L208.5,123.7z M208.1,123.7v-2.3l-10.5,5.9L208.1,123.7z M207.5,120.7l0.4,0.4l-2.5,1.5L207.5,120.7
			L207.5,120.7z M207,120.5l-0.8-0.4l-8.6,7L207,120.5z M183,120.9l1.9-1.1l-1.9-11.4V120.9z M182.6,120.9l0.2-8.9l-0.6,8.6
			L182.6,120.9z M181.5,120.3l-0.6-0.4l1.9-11.4L181.5,120.3z M184,120.5l0.8-0.4l8.4,7.2L184,120.5L184,120.5z M183.6,120.9
			l-0.4,0.4l7.8,4.4L183.6,120.9z M183,123.7v-2.3l10.3,6.1L183,123.7z M182.6,123.7v-2.3l-10.5,5.9L182.6,123.7z M181.9,120.7
			l0.4,0.4l-2.5,1.5L181.9,120.7z M181.5,120.5l-0.8-0.4l-8.6,7L181.5,120.5z M157.5,120.9l1.9-1.1l-1.9-11.4V120.9z M157,120.9
			l0.2-8.9l-0.6,8.6L157,120.9L157,120.9z M156,120.3l-0.6-0.4l1.9-11.4L156,120.3z M158.5,120.5l0.8-0.4l8.4,7.2L158.5,120.5
			L158.5,120.5z M158.1,120.9l-0.4,0.4l7.8,4.4L158.1,120.9z M157.5,123.7v-2.3l10.3,6.1L157.5,123.7z M157,123.7v-2.3l-10.5,5.9
			L157,123.7z M156.4,120.7l0.4,0.4l-2.5,1.5L156.4,120.7L156.4,120.7z M156,120.5l-0.8-0.4l-8.6,7L156,120.5z M131.9,120.9l1.9-1.1
			l-0.2-0.9c-0.6,0.2-1.2,0.4-1.7,0.6V120.9z M131.5,120.9l0-1.3l-0.4,0.1l-0.1,1L131.5,120.9z M130.5,120.3l-0.4-0.3l0.4-0.1
			L130.5,120.3z M133,120.5l0.8-0.4l8.4,7.2L133,120.5L133,120.5z M132.6,120.9l-0.4,0.4l7.8,4.4L132.6,120.9z M131.9,123.7v-2.3
			l10.3,6.1L131.9,123.7z M131.5,123.7v-2.3l-10.5,5.9L131.5,123.7z M130.9,120.7l0.4,0.4l-2.5,1.5L130.9,120.7L130.9,120.7z
			 M130.5,120.5l-1-0.3L121,127L130.5,120.5z M106.4,120.9l1.3-0.7c-0.4-0.1-0.8-0.2-1.3-0.3V120.9z M106,120.9l0-1.1l-0.4-0.1
			l-0.1,1L106,120.9z M105,120.3l-0.6-0.4l0.1-0.6l0.6,0.2C105,119.5,105,120.3,105,120.3z M107.5,120.5l0.5-0.2
			c0.3,0.1,0.6,0.1,0.8,0.2l8,6.8C116.8,127.3,107.5,120.5,107.5,120.5z M107.1,120.9l-0.4,0.4l7.8,4.4
			C114.4,125.8,107.1,120.9,107.1,120.9z M106.4,123.7v-2.3l10.3,6.1L106.4,123.7z M106,123.7v-2.3l-10.5,5.9L106,123.7z
			 M105.4,120.7l0.4,0.4l-2.5,1.5L105.4,120.7z M105,120.5l-0.8-0.4l-8.6,7L105,120.5z M80.9,120.9l1.9-1.1l-1.9-11.4V120.9z
			 M80.5,120.9l0.2-8.9l-0.6,8.6C80.1,120.7,80.5,120.9,80.5,120.9z M79.4,120.3l-0.6-0.4l1.9-11.4
			C80.7,108.5,79.4,120.3,79.4,120.3z M82,120.5l0.8-0.4l8.4,7.2L82,120.5L82,120.5z M81.5,120.9l-0.4,0.4l7.8,4.4
			C88.9,125.8,81.5,120.9,81.5,120.9z M80.9,123.7v-2.3l10.3,6.1L80.9,123.7z M80.5,123.7v-2.3L70,127.3L80.5,123.7z M79.9,120.7
			l0.4,0.4l-2.5,1.5L79.9,120.7z M79.4,120.5l-0.8-0.4l-8.6,7L79.4,120.5z M55.4,120.9l1.9-1.1l-1.9-11.4V120.9z M55,120.9l0.2-8.9
			l-0.6,8.6L55,120.9z M53.9,120.3l-0.6-0.4l1.9-11.4L53.9,120.3z M56.4,120.5l0.8-0.4l8.4,7.2L56.4,120.5L56.4,120.5z M56,120.9
			l-0.4,0.4l7.8,4.4C63.4,125.8,56,120.9,56,120.9z M55.4,123.7v-2.3l10.3,6.1L55.4,123.7z M55,123.7v-2.3l-10.5,5.9L55,123.7z
			 M54.3,120.7l0.4,0.4l-2.5,1.5L54.3,120.7z M53.9,120.5l-0.8-0.4l-8.6,7L53.9,120.5z M29.9,120.9l1.9-1.1l-1.9-11.4V120.9z
			 M29.5,120.9l0.2-8.9l-0.6,8.6C29,120.7,29.5,120.9,29.5,120.9z M28.4,120.3l-0.6-0.4l1.9-11.4C29.7,108.5,28.4,120.3,28.4,120.3z
			 M30.9,120.5l0.8-0.4l8.4,7.2L30.9,120.5L30.9,120.5z M30.5,120.9l-0.4,0.4l7.8,4.4L30.5,120.9z M29.9,123.7v-2.3l10.3,6.1
			L29.9,123.7z M29.5,123.7v-2.3l-10.5,5.9L29.5,123.7z M28.8,120.7l0.4,0.4l-2.5,1.5C26.7,122.6,28.8,120.7,28.8,120.7z
			 M28.4,120.5l-0.8-0.4l-8.6,7C18.9,127,28.4,120.5,28.4,120.5z M4.4,120.9l1.9-1.1l-1.9-11.4V120.9z M3.9,120.9l0.2-8.9l-0.6,8.6
			C3.5,120.7,3.9,120.9,3.9,120.9z M2.9,120.3l-0.6-0.4l1.9-11.4C4.1,108.5,2.9,120.3,2.9,120.3z M5.4,120.5l0.8-0.4l8.4,7.2
			L5.4,120.5L5.4,120.5z M5,120.9l-0.4,0.4l7.8,4.4C12.4,125.8,5,120.9,5,120.9z M4.4,123.7v-2.3l10.3,6.1
			C14.7,127.5,4.4,123.7,4.4,123.7z M3.3,120.7l0.4,0.4l-2.5,1.5L3.3,120.7z M221.3,99.2l1.9-1.1l-1.9-11.4V99.2z M220.8,99.2
			l0.2-8.9l-0.6,8.6L220.8,99.2z M219.8,98.6l-0.6-0.4l1.9-11.4C221.1,86.8,219.8,98.6,219.8,98.6z M222.3,98.8l0.8-0.4l8.4,7.2
			C231.6,105.6,222.3,98.8,222.3,98.8z M221.9,99.2l-0.4,0.4l7.8,4.4L221.9,99.2L221.9,99.2z M221.3,102v-2.3l10.3,6.1
			C231.6,105.8,221.3,102,221.3,102z M220.8,102v-2.3l-10.5,5.9L220.8,102z M220.2,99l0.4,0.4l-2.5,1.5
			C218.1,100.9,220.2,99,220.2,99z M219.8,98.8l-0.8-0.4l-8.6,7L219.8,98.8L219.8,98.8z M195.7,99.2l1.9-1.1l-1.9-11.4V99.2z
			 M195.3,99.2l0.2-8.9l-0.6,8.6L195.3,99.2z M194.3,98.6l-0.6-0.4l1.9-11.4C195.5,86.8,194.3,98.6,194.3,98.6z M196.8,98.8l0.8-0.4
			l8.4,7.2L196.8,98.8L196.8,98.8z M196.4,99.2l-0.4,0.4l7.8,4.4L196.4,99.2z M195.7,102v-2.3l10.3,6.1
			C206.1,105.8,195.7,102,195.7,102z M195.3,102v-2.3l-10.5,5.9L195.3,102z M194.7,99l0.4,0.4l-2.5,1.5L194.7,99L194.7,99z
			 M194.3,98.8l-0.8-0.4l-8.6,7C184.8,105.4,194.3,98.8,194.3,98.8z M170.2,99.2l1.9-1.1l-1.9-11.4V99.2z M169.8,99.2l0.2-8.9
			l-0.6,8.6L169.8,99.2z M168.8,98.6l-0.6-0.4l1.9-11.4L168.8,98.6L168.8,98.6z M171.3,98.8l0.8-0.4l8.4,7.2L171.3,98.8L171.3,98.8z
			 M170.9,99.2l-0.4,0.4l7.8,4.4L170.9,99.2z M170.2,102v-2.3l10.3,6.1C180.6,105.8,170.2,102,170.2,102z M169.8,102v-2.3l-10.5,5.9
			L169.8,102z M169.2,99l0.4,0.4l-2.5,1.5C167.1,100.9,169.2,99,169.2,99z M168.8,98.8l-0.8-0.4l-8.6,7L168.8,98.8L168.8,98.8z
			 M154,104.6l1.1,0.9L154,104.6z M153.7,105l1.3,0.8l-1.5-0.6C153.5,105.2,153.7,105,153.7,105z M83.6,105.1l-0.9,0.5l1-0.4
			L83.6,105.1z M83.4,104.8l-0.7,0.6L83.4,104.8z M68.2,99.2l1.9-1.1l-1.9-11.4V99.2z M67.7,99.2l0.2-8.9L67.3,99L67.7,99.2z
			 M66.7,98.6L66,98.2l1.9-11.4C67.9,86.8,66.7,98.6,66.7,98.6z M69.2,98.8l0.8-0.4l8.4,7.2C78.5,105.6,69.2,98.8,69.2,98.8z
			 M68.8,99.2l-0.4,0.4l7.8,4.4C76.2,104.1,68.8,99.2,68.8,99.2z M68.2,102v-2.3l10.3,6.1C78.5,105.8,68.2,102,68.2,102z M67.7,102
			v-2.3l-10.5,5.9L67.7,102z M67.1,99l0.4,0.4l-2.5,1.5C65,100.9,67.1,99,67.1,99z M66.7,98.8l-0.8-0.4l-8.6,7
			C57.2,105.4,66.7,98.8,66.7,98.8z M42.6,99.2l1.9-1.1l-1.9-11.4V99.2z M42.2,99.2l0.2-8.9L41.8,99L42.2,99.2z M41.2,98.6l-0.6-0.4
			l1.9-11.4C42.4,86.8,41.2,98.6,41.2,98.6z M43.7,98.8l0.8-0.4l8.4,7.2C53,105.6,43.7,98.8,43.7,98.8z M43.3,99.2l-0.4,0.4l7.8,4.4
			L43.3,99.2z M42.6,102v-2.3l10.3,6.1C53,105.8,42.6,102,42.6,102z M42.2,102v-2.3l-10.5,5.9L42.2,102z M41.6,99l0.4,0.4l-2.5,1.5
			C39.5,100.9,41.6,99,41.6,99z M41.2,98.8l-0.8-0.4l-8.6,7C31.7,105.4,41.2,98.8,41.2,98.8z M17.1,99.2l1.9-1.1l-1.9-11.4V99.2z
			 M16.7,99.2l0.2-8.9L16.3,99L16.7,99.2z M15.6,98.6L15,98.2l1.9-11.4C16.9,86.8,15.6,98.6,15.6,98.6z M18.2,98.8l0.8-0.4l8.4,7.2
			C27.4,105.6,18.2,98.8,18.2,98.8z M17.8,99.2l-0.4,0.4l7.8,4.4L17.8,99.2z M17.1,102v-2.3l10.3,6.1C27.4,105.8,17.1,102,17.1,102z
			 M16.7,102v-2.3l-10.5,5.9L16.7,102z M16.1,99l0.4,0.4l-2.5,1.5C14,100.9,16.1,99,16.1,99z M15.6,98.8l-0.8-0.4l-8.6,7
			C6.2,105.4,15.6,98.8,15.6,98.8z M208.5,77.5l1.9-1.1l-1.9-11.4V77.5z M208.1,77.5l0.2-8.9l-0.6,8.6L208.1,77.5z M207,76.9
			l-0.6-0.4l1.9-11.4L207,76.9z M209.6,77.1l0.8-0.4l8.4,7.2L209.6,77.1L209.6,77.1z M209.1,77.5l-0.4,0.4l7.8,4.4
			C216.5,82.4,209.1,77.5,209.1,77.5z M208.5,80.3V78l10.3,6.1L208.5,80.3z M208.1,80.3V78l-10.5,5.9L208.1,80.3L208.1,80.3z
			 M207.5,77.3l0.4,0.4l-2.5,1.5L207.5,77.3L207.5,77.3z M207,77.1l-0.8-0.4l-8.6,7L207,77.1z M183,77.5l1.9-1.1L183,65.1V77.5z
			 M182.6,77.5l0.2-8.9l-0.6,8.6L182.6,77.5z M181.5,76.9l-0.6-0.4l1.9-11.4L181.5,76.9z M184,77.1l0.8-0.4l8.4,7.2L184,77.1
			L184,77.1z M183.6,77.5l-0.4,0.4l7.8,4.4L183.6,77.5L183.6,77.5z M183,80.3V78l10.3,6.1L183,80.3z M182.6,80.3V78L172,83.9
			L182.6,80.3L182.6,80.3z M181.9,77.3l0.4,0.4l-2.5,1.5C179.8,79.2,181.9,77.3,181.9,77.3z M181.5,77.1l-0.8-0.4l-8.6,7L181.5,77.1
			z M163.9,80.5l3.9,3.3l-4-2.9C163.8,81,163.9,80.5,163.9,80.5z M163.8,81.4l1.7,1l-1.7-1.1C163.8,81.3,163.8,81.4,163.8,81.4z
			 M163.7,81.7l4.1,2.4l-4.2-1.5L163.7,81.7L163.7,81.7z M73.7,81.8L70,83.9l3.8-1.3C73.8,82.6,73.7,81.8,73.7,81.8z M73.5,80.8
			L70,83.7l3.6-2.5C73.6,81.2,73.5,80.8,73.5,80.8z M55.4,77.5l1.9-1.1l-1.9-11.4V77.5z M55,77.5l0.2-8.9l-0.6,8.6L55,77.5z
			 M53.9,76.9l-0.6-0.4l1.9-11.4L53.9,76.9z M56.4,77.1l0.8-0.4l8.4,7.2L56.4,77.1z M56,77.5L55.6,78l7.8,4.4
			C63.4,82.4,56,77.5,56,77.5z M55.4,80.3V78l10.3,6.1C65.7,84.1,55.4,80.3,55.4,80.3z M55,80.3V78l-10.5,5.9L55,80.3z M54.3,77.3
			l0.4,0.4l-2.5,1.5C52.2,79.2,54.3,77.3,54.3,77.3z M53.9,77.1l-0.8-0.4l-8.6,7L53.9,77.1z M29.9,77.5l1.9-1.1l-1.9-11.4V77.5z
			 M29.5,77.5l0.2-8.9L29,77.3C29,77.3,29.5,77.5,29.5,77.5z M28.4,76.9l-0.6-0.4l1.9-11.4C29.7,65.1,28.4,76.9,28.4,76.9z
			 M30.9,77.1l0.8-0.4l8.4,7.2L30.9,77.1z M30.5,77.5L30.1,78l7.8,4.4C37.9,82.4,30.5,77.5,30.5,77.5z M29.9,80.3V78l10.3,6.1
			L29.9,80.3z M29.5,80.3V78l-10.5,5.9L29.5,80.3z M28.8,77.3l0.4,0.4l-2.5,1.5C26.7,79.2,28.8,77.3,28.8,77.3z M28.4,77.1l-0.8-0.4
			l-8.6,7C18.9,83.7,28.4,77.1,28.4,77.1z M4.4,77.5l1.9-1.1L4.4,65.1V77.5z M3.9,77.5l0.2-8.9l-0.6,8.6C3.5,77.3,3.9,77.5,3.9,77.5
			z M2.9,76.9l-0.6-0.4l1.9-11.4C4.1,65.1,2.9,76.9,2.9,76.9z M5.4,77.1l0.8-0.4l8.4,7.2C14.7,83.9,5.4,77.1,5.4,77.1z M5,77.5
			L4.6,78l7.8,4.4C12.4,82.4,5,77.5,5,77.5z M4.4,80.3V78l10.3,6.1C14.7,84.1,4.4,80.3,4.4,80.3z M3.3,77.3l0.4,0.4l-2.5,1.5
			C1.2,79.2,3.3,77.3,3.3,77.3z M221.3,55.9l1.9-1.1l-1.9-11.4V55.9z M220.8,55.9l0.2-8.9l-0.6,8.6L220.8,55.9z M219.8,55.2
			l-0.6-0.4l1.9-11.4L219.8,55.2z M222.3,55.4l0.8-0.4l8.4,7.2L222.3,55.4z M221.9,55.9l-0.4,0.4l7.8,4.4L221.9,55.9L221.9,55.9z
			 M221.3,58.6v-2.3l10.3,6.1C231.6,62.4,221.3,58.6,221.3,58.6z M220.8,58.6v-2.3l-10.5,5.9L220.8,58.6z M220.2,55.6l0.4,0.4
			l-2.5,1.5L220.2,55.6z M219.8,55.4l-0.8-0.4l-8.6,7L219.8,55.4L219.8,55.4z M195.7,55.9l1.9-1.1l-1.9-11.4V55.9z M195.3,55.9
			l0.2-8.9l-0.6,8.6L195.3,55.9z M194.3,55.2l-0.6-0.4l1.9-11.4L194.3,55.2z M196.8,55.4l0.8-0.4l8.4,7.2L196.8,55.4L196.8,55.4z
			 M196.4,55.9l-0.4,0.4l7.8,4.4L196.4,55.9z M195.7,58.6v-2.3l10.3,6.1C206.1,62.4,195.7,58.6,195.7,58.6z M195.3,58.6v-2.3
			l-10.5,5.9L195.3,58.6z M194.7,55.6l0.4,0.4l-2.5,1.5L194.7,55.6L194.7,55.6z M194.3,55.4l-0.8-0.4l-8.6,7
			C184.8,62,194.3,55.4,194.3,55.4z M170.2,55.9l1.9-1.1l-1.9-11.4V55.9z M169.8,55.9L170,47l-0.6,8.6L169.8,55.9z M168.8,55.2
			l-0.6-0.4l1.9-11.4L168.8,55.2L168.8,55.2z M171.3,55.4l0.8-0.4l8.4,7.2L171.3,55.4L171.3,55.4z M170.9,55.9l-0.4,0.4l7.8,4.4
			L170.9,55.9z M170.2,58.6v-2.3l10.3,6.1C180.6,62.4,170.2,58.6,170.2,58.6z M169.8,58.6v-2.3l-7.9,4.4l0.2,0.5
			C162.1,61.2,169.8,58.6,169.8,58.6z M169.2,55.6l0.4,0.4l-2.5,1.5L169.2,55.6z M168.8,55.4l-0.8-0.4l-6.2,5l0.1,0.2
			C161.7,60.3,168.8,55.4,168.8,55.4z M68.2,55.9l1.9-1.1l-1.9-11.4V55.9z M67.7,55.9l0.2-8.9l-0.6,8.6L67.7,55.9z M66.7,55.2
			L66,54.8l1.9-11.4C67.9,43.4,66.7,55.2,66.7,55.2z M69.2,55.4l0.8-0.4l5.9,5.1l-0.1,0.2C75.9,60.3,69.2,55.4,69.2,55.4z
			 M68.8,55.9l-0.4,0.4l7.5,4.2l0,0C75.9,60.5,68.8,55.9,68.8,55.9z M68.2,58.6v-2.3l7.6,4.5l-0.2,0.5L68.2,58.6z M67.7,58.6v-2.3
			l-10.5,5.9L67.7,58.6z M67.1,55.6l0.4,0.4L65,57.5L67.1,55.6z M66.7,55.4L65.8,55l-8.6,7C57.2,62,66.7,55.4,66.7,55.4z M42.6,55.9
			l1.9-1.1l-1.9-11.4V55.9z M42.2,55.9l0.2-8.9l-0.6,8.6L42.2,55.9z M41.2,55.2l-0.6-0.4l1.9-11.4L41.2,55.2z M43.7,55.4l0.8-0.4
			l8.4,7.2L43.7,55.4z M43.3,55.9l-0.4,0.4l7.8,4.4L43.3,55.9z M42.6,58.6v-2.3L53,62.4C53,62.4,42.6,58.6,42.6,58.6z M42.2,58.6
			v-2.3l-10.5,5.9L42.2,58.6z M41.6,55.6l0.4,0.4l-2.5,1.5L41.6,55.6z M41.2,55.4L40.3,55l-8.6,7C31.7,62,41.2,55.4,41.2,55.4z
			 M17.1,55.9l1.9-1.1l-1.9-11.4V55.9z M16.7,55.9l0.2-8.9l-0.6,8.6L16.7,55.9z M15.6,55.2L15,54.8l1.9-11.4L15.6,55.2z M18.2,55.4
			L19,55l8.4,7.2L18.2,55.4z M17.8,55.9l-0.4,0.4l7.8,4.4L17.8,55.9z M17.1,58.6v-2.3l10.3,6.1C27.4,62.4,17.1,58.6,17.1,58.6z
			 M16.7,58.6v-2.3L6.2,62.2L16.7,58.6z M16.1,55.6l0.4,0.4L14,57.5L16.1,55.6z M15.6,55.4L14.8,55l-8.6,7
			C6.2,62,15.6,55.4,15.6,55.4z M208.5,34.2l1.9-1.1l-1.9-11.4C208.5,21.7,208.5,34.2,208.5,34.2z M208.1,34.2l0.2-8.9l-0.6,8.6
			C207.7,34,208.1,34.2,208.1,34.2z M207,33.5l-0.6-0.4l1.9-11.4L207,33.5z M209.6,33.7l0.8-0.4l8.4,7.2L209.6,33.7L209.6,33.7z
			 M209.1,34.2l-0.4,0.4l7.8,4.4L209.1,34.2z M208.5,36.9v-2.3l10.3,6.1L208.5,36.9z M208.1,36.9v-2.3l-10.5,5.9
			C197.5,40.5,208.1,36.9,208.1,36.9z M207.5,34l0.4,0.4l-2.5,1.5L207.5,34L207.5,34z M207,33.7l-0.8-0.4l-8.6,7L207,33.7z
			 M183,34.2l1.9-1.1L183,21.7C183,21.7,183,34.2,183,34.2z M182.6,34.2l0.2-8.9l-0.6,8.6L182.6,34.2z M181.5,33.5l-0.6-0.4
			l1.9-11.4L181.5,33.5z M184,33.7l0.8-0.4l8.4,7.2L184,33.7L184,33.7z M183.6,34.2l-0.4,0.4L191,39L183.6,34.2z M183,36.9v-2.3
			l10.3,6.1L183,36.9z M182.6,36.9v-2.3L172,40.5C172,40.5,182.6,36.9,182.6,36.9z M181.9,34l0.4,0.4l-2.5,1.5L181.9,34z
			 M181.5,33.7l-0.8-0.4l-8.6,7L181.5,33.7z M157.5,34.2l1.9-1.1l-1.9-11.4C157.5,21.7,157.5,34.2,157.5,34.2z M157,34.2l0.2-8.9
			l-0.6,8.6L157,34.2L157,34.2z M156,33.5l-0.6-0.4l1.9-11.4L156,33.5z M158.5,33.7l0.8-0.4l8.4,7.2
			C167.8,40.5,158.5,33.7,158.5,33.7z M158.1,34.2l-0.4,0.4l7.8,4.4L158.1,34.2z M157.5,36.9v-2.3l10.3,6.1L157.5,36.9z M157,36.9
			v-2.3l-9.4,5.3l0.2,0.2L157,36.9z M156.4,34l0.4,0.4l-2.5,1.5L156.4,34L156.4,34z M156,33.7l-0.8-0.4l-7.8,6.3l0.1,0.1
			C147.4,39.6,156,33.7,156,33.7z M133.7,32L132,21.7v9.8C132.5,31.7,133.1,31.9,133.7,32z M131.6,31.4l0.1-6.1l-0.4,6L131.6,31.4
			L131.6,31.4z M130.2,31l1.5-9.3l-1,9.4L130.2,31z M108,30.9l-1.5-9.2v9.6C106.9,31.2,107.5,31.1,108,30.9z M106.1,31.4l0.1-6.1
			l-0.5,6.2L106.1,31.4z M104.5,31.9l1.7-10.2l-1.1,10L104.5,31.9z M80.9,34.2l1.9-1.1l-1.9-11.4C80.9,21.7,80.9,34.2,80.9,34.2z
			 M80.5,34.2l0.2-8.9L80.1,34C80.1,34,80.5,34.2,80.5,34.2z M79.4,33.5l-0.6-0.4l1.9-11.4C80.7,21.7,79.4,33.5,79.4,33.5z M82,33.7
			l0.8-0.4l7.5,6.3l-0.1,0.1L82,33.7z M81.5,34.2l-0.4,0.4l7.8,4.4C88.9,39,81.5,34.2,81.5,34.2z M80.9,36.9v-2.3l9,5.3l-0.2,0.2
			L80.9,36.9z M80.5,36.9v-2.3L70,40.5C70,40.5,80.5,36.9,80.5,36.9z M79.9,34l0.4,0.4l-2.5,1.5L79.9,34z M79.4,33.7l-0.8-0.4
			l-8.6,7L79.4,33.7z M55.4,34.2l1.9-1.1l-1.9-11.4C55.4,21.7,55.4,34.2,55.4,34.2z M55,34.2l0.2-8.9L54.6,34L55,34.2z M53.9,33.5
			l-0.6-0.4l1.9-11.4L53.9,33.5z M56.4,33.7l0.8-0.4l8.4,7.2C65.7,40.5,56.4,33.7,56.4,33.7z M56,34.2l-0.4,0.4l7.8,4.4
			C63.4,39,56,34.2,56,34.2z M55.4,36.9v-2.3l10.3,6.1L55.4,36.9z M55,36.9v-2.3l-10.5,5.9C44.4,40.5,55,36.9,55,36.9z M54.3,34
			l0.4,0.4l-2.5,1.5L54.3,34z M53.9,33.7l-0.8-0.4l-8.6,7L53.9,33.7z M29.9,34.2l1.9-1.1l-1.9-11.4C29.9,21.7,29.9,34.2,29.9,34.2z
			 M29.5,34.2l0.2-8.9L29,34C29,34,29.5,34.2,29.5,34.2z M28.4,33.5l-0.6-0.4l1.9-11.4C29.7,21.7,28.4,33.5,28.4,33.5z M30.9,33.7
			l0.8-0.4l8.4,7.2C40.2,40.5,30.9,33.7,30.9,33.7z M30.5,34.2l-0.4,0.4l7.8,4.4L30.5,34.2z M29.9,36.9v-2.3l10.3,6.1L29.9,36.9z
			 M29.5,36.9v-2.3l-10.5,5.9C18.9,40.5,29.5,36.9,29.5,36.9z M28.8,34l0.4,0.4l-2.5,1.5C26.7,35.9,28.8,34,28.8,34z M28.4,33.7
			l-0.8-0.4l-8.6,7C18.9,40.3,28.4,33.7,28.4,33.7z M4.4,34.2l1.9-1.1L4.4,21.7C4.4,21.7,4.4,34.2,4.4,34.2z M3.9,34.2l0.2-8.9
			L3.5,34C3.5,34,3.9,34.2,3.9,34.2z M2.9,33.5l-0.6-0.4l1.9-11.4C4.1,21.7,2.9,33.5,2.9,33.5z M5.4,33.7l0.8-0.4l8.4,7.2
			C14.7,40.5,5.4,33.7,5.4,33.7z M5,34.2l-0.4,0.4l7.8,4.4C12.4,39,5,34.2,5,34.2z M4.4,36.9v-2.3l10.3,6.1
			C14.7,40.7,4.4,36.9,4.4,36.9z M221.3,12.5l1.9-1.1L221.3,0C221.3,0,221.3,12.5,221.3,12.5z M220.8,12.5l0.2-8.9l-0.6,8.6
			L220.8,12.5z M219.8,11.8l-0.6-0.4L221.1,0L219.8,11.8z M222.3,12.1l0.8-0.4l8.4,7.2C231.6,18.8,222.3,12.1,222.3,12.1z
			 M221.9,12.5l-0.4,0.4l7.8,4.4C229.3,17.3,221.9,12.5,221.9,12.5z M221.3,15.2v-2.3l10.3,6.1C231.6,19,221.3,15.2,221.3,15.2z
			 M220.8,15.2v-2.3l-10.5,5.9C210.3,18.8,220.8,15.2,220.8,15.2z M220.2,12.3l0.4,0.4l-2.5,1.5L220.2,12.3z M219.8,12.1l-0.8-0.4
			l-8.6,7L219.8,12.1L219.8,12.1z M195.7,12.5l1.9-1.1L195.7,0V12.5z M195.3,12.5l0.2-8.9l-0.6,8.6L195.3,12.5z M194.3,11.8
			l-0.6-0.4L195.5,0L194.3,11.8z M196.8,12.1l0.8-0.4l8.4,7.2L196.8,12.1L196.8,12.1z M196.4,12.5l-0.4,0.4l7.8,4.4
			C203.8,17.3,196.4,12.5,196.4,12.5z M195.7,15.2v-2.3l10.3,6.1C206.1,19,195.7,15.2,195.7,15.2z M195.3,15.2v-2.3l-10.5,5.9
			L195.3,15.2L195.3,15.2z M194.7,12.3l0.4,0.4l-2.5,1.5L194.7,12.3L194.7,12.3z M194.3,12.1l-0.8-0.4l-8.6,7L194.3,12.1z
			 M170.2,12.5l1.9-1.1L170.2,0V12.5z M169.8,12.5l0.2-8.9l-0.6,8.6L169.8,12.5z M168.8,11.8l-0.6-0.4L170,0L168.8,11.8L168.8,11.8z
			 M171.3,12.1l0.8-0.4l8.4,7.2L171.3,12.1L171.3,12.1z M170.9,12.5l-0.4,0.4l7.8,4.4C178.2,17.3,170.9,12.5,170.9,12.5z
			 M170.2,15.2v-2.3l10.3,6.1C180.6,19,170.2,15.2,170.2,15.2z M169.8,15.2v-2.3l-10.5,5.9C159.3,18.8,169.8,15.2,169.8,15.2z
			 M169.2,12.3l0.4,0.4l-2.5,1.5L169.2,12.3z M168.8,12.1l-0.8-0.4l-8.6,7L168.8,12.1L168.8,12.1z M144.7,12.5l1.9-1.1L144.7,0V12.5
			z M144.3,12.5l0.2-8.9l-0.6,8.6L144.3,12.5z M143.2,11.8l-0.6-0.4L144.5,0L143.2,11.8z M145.8,12.1l0.8-0.4l8.4,7.2L145.8,12.1z
			 M145.3,12.5l-0.4,0.4l7.8,4.4C152.7,17.3,145.3,12.5,145.3,12.5z M144.7,15.2v-2.3L155,19C155,19,144.7,15.2,144.7,15.2z
			 M144.3,15.2v-2.3l-10.5,5.9C133.7,18.8,144.3,15.2,144.3,15.2z M143.7,12.3l0.4,0.4l-2.5,1.5L143.7,12.3z M143.2,12.1l-0.8-0.4
			l-8.6,7L143.2,12.1L143.2,12.1z M119.2,12.5l1.9-1.1L119.2,0V12.5z M118.8,12.5l0.2-8.9l-0.6,8.6L118.8,12.5z M117.7,11.8
			l-0.6-0.4L119,0L117.7,11.8z M120.2,12.1l0.8-0.4l8.4,7.2L120.2,12.1L120.2,12.1z M119.8,12.5l-0.4,0.4l7.8,4.4
			C127.2,17.3,119.8,12.5,119.8,12.5z M119.2,15.2v-2.3l10.3,6.1C129.5,19,119.2,15.2,119.2,15.2z M118.8,15.2v-2.3l-10.5,5.9
			C108.2,18.8,118.8,15.2,118.8,15.2z M118.1,12.3l0.4,0.4l-2.5,1.5L118.1,12.3z M117.7,12.1l-0.8-0.4l-8.6,7L117.7,12.1L117.7,12.1
			z M93.7,12.5l1.9-1.1L93.7,0V12.5z M93.3,12.5l0.2-8.9l-0.6,8.6L93.3,12.5z M92.2,11.8l-0.6-0.4L93.5,0
			C93.5,0,92.2,11.8,92.2,11.8z M94.7,12.1l0.8-0.4l8.4,7.2C104,18.8,94.7,12.1,94.7,12.1z M94.3,12.5l-0.4,0.4l7.8,4.4
			C101.7,17.3,94.3,12.5,94.3,12.5z M93.7,15.2v-2.3L104,19C104,19,93.7,15.2,93.7,15.2z M93.3,15.2v-2.3l-10.5,5.9
			C82.7,18.8,93.3,15.2,93.3,15.2z M92.6,12.3l0.4,0.4l-2.5,1.5L92.6,12.3z M92.2,12.1l-0.8-0.4l-8.6,7L92.2,12.1z M68.2,12.5
			l1.9-1.1L68.2,0V12.5z M67.7,12.5l0.2-8.9l-0.6,8.6L67.7,12.5z M66.7,11.8L66,11.4L67.9,0C67.9,0,66.7,11.8,66.7,11.8z M69.2,12.1
			l0.8-0.4l8.4,7.2L69.2,12.1z M68.8,12.5l-0.4,0.4l7.8,4.4C76.2,17.3,68.8,12.5,68.8,12.5z M68.2,15.2v-2.3L78.5,19
			C78.5,19,68.2,15.2,68.2,15.2z M67.7,15.2v-2.3l-10.5,5.9C57.2,18.8,67.7,15.2,67.7,15.2z M67.1,12.3l0.4,0.4L65,14.2L67.1,12.3z
			 M66.7,12.1l-0.8-0.4l-8.6,7L66.7,12.1z M42.6,12.5l1.9-1.1L42.6,0V12.5z M42.2,12.5l0.2-8.9l-0.6,8.6L42.2,12.5z M41.2,11.8
			l-0.6-0.4L42.4,0L41.2,11.8z M43.7,12.1l0.8-0.4l8.4,7.2L43.7,12.1z M43.3,12.5l-0.4,0.4l7.8,4.4C50.6,17.3,43.3,12.5,43.3,12.5z
			 M42.6,15.2v-2.3L53,19C53,19,42.6,15.2,42.6,15.2z M42.2,15.2v-2.3l-10.5,5.9C31.7,18.8,42.2,15.2,42.2,15.2z M41.6,12.3l0.4,0.4
			l-2.5,1.5L41.6,12.3z M41.2,12.1l-0.8-0.4l-8.6,7L41.2,12.1z M16.7,12.5l0.2-8.9l-0.6,8.6L16.7,12.5z M15.6,11.8L15,11.4L16.9,0
			L15.6,11.8z M18.2,12.1l0.8-0.4l8.4,7.2L18.2,12.1z M17.8,12.5l-0.4,0.4l7.8,4.4C25.1,17.3,17.8,12.5,17.8,12.5z M17.1,15.2v-2.3
			L27.4,19C27.4,19,17.1,15.2,17.1,15.2z M16.7,15.2v-2.3L6.2,18.8C6.2,18.8,16.7,15.2,16.7,15.2z M16.1,12.3l0.4,0.4L14,14.2
			L16.1,12.3z M15.6,12.1l-0.8-0.4l-8.6,7L15.6,12.1z M77.1,75.6c0-23.3,19-42.2,42.2-42.2c23.3,0,42.2,18.7,42.2,42l0.2-0.2
			c0-23.8-19.2-43-43-43s-43,19.2-43,43s19.2,43,43,43h0.2C95.8,117.8,77.1,98.9,77.1,75.6L77.1,75.6z M161.8,75.4
			c-0.2,23.5-19.2,42.5-42.7,42.7c0.2,0,0.2,0,0.2,0c23.5,0,42.5-19,42.5-42.5C161.8,75.6,161.8,75.6,161.8,75.4L161.8,75.4z
			 M150.3,49.7c5.8,7,9.1,16.1,9.1,25.7c0,22.6-18,40.6-40.3,40.6S78.7,98.2,78.5,76.1c0,0.2,0,0.5,0,0.5
			c0,22.8,18.2,40.6,40.8,40.6c22.8,0,40.6-17.8,40.6-40.6C159.9,66.2,156.5,56.9,150.3,49.7L150.3,49.7z M118.6,74.2l0.5-29
			l-2.2,28.6L118.6,74.2z M115.2,72.2l-2.6-1.4l6.7-37.2L115.2,72.2z M123.6,73.4l2.4-1.7L153.6,95L123.6,73.4z M121.9,74.4
			l-1.7,1.2l25.7,14.9L121.9,74.4z M119.8,83.3v-7.4L153.4,96L119.8,83.3z M118.3,83.5v-7.9L84,95.5L118.3,83.5z M116.4,74.2
			l1.4,1.2l-8.6,4.6C109.2,79.9,116.4,74.2,116.4,74.2z M114.7,73.2l-2.6-1.4l-28.6,23L114.7,73.2z"/>
	</g>
</g>
</svg>
