<?xml version="1.0" encoding="utf-8"?>
<!-- Generator: Adobe Illustrator 26.0.1, SVG Export Plug-In . SVG Version: 6.00 Build 0)  -->
<svg version="1.1" id="Слой_1" xmlns:xodm="http://www.corel.com/coreldraw/odm/2003"
	 xmlns="http://www.w3.org/2000/svg" xmlns:xlink="http://www.w3.org/1999/xlink" x="0px" y="0px" viewBox="0 0 238.1 150.2"
	 style="enable-background:new 0 0 238.1 150.2;" xml:space="preserve">
<g id="Слой_x0020_1">
	<path d="M143.8,61.7c-4.1,0.2-8.3,0.4-11.1,0.7c-1.2,0.1-4.1,0.4-6.5,0.6c-2.3,0.2-6.3,0.7-8.8,1c-2.5,0.3-4.7,0.7-4.9,0.7
		c-0.5,0-2.9,2.2-5,4.4c-2.4,2.5-5.9,6.8-7.1,8.7c-1,1.6-1.1,1.7-2.3,2c-0.6,0.2-0.8,0.3-1.3,1.2c-0.5,0.8-0.8,1.1-1.4,1.4
		c-0.7,0.3-0.7,0.4-0.7,0.9c0,0.3-0.2,0.8-0.3,1c-0.2,0.2-0.2,0.4-0.1,0.4c0.1,0,1.4-0.1,3-0.2c5-0.4,9.1-0.6,17.7-1
		c2-0.1,4.9-0.2,6.3-0.3c1.5-0.1,4.6-0.2,6.9-0.2c3.7,0,4.3,0,5.6,0.3c1.8,0.4,1.9,0.4,2-0.1c0-0.2,0.2-0.8,0.4-1.2l0.3-0.8l0.5,0.3
		c1.1,0.6,1.7,1.6,1,1.9c-0.4,0.1-0.9,0.7-1.3,1.5c-0.2,0.4-0.3,0.5-0.4,0.4c0-0.1-0.2-0.5-0.3-0.9l-0.2-0.6l-0.3,0.5
		c-0.3,0.4-0.3,0.6-0.1,1.2c0.2,0.9,0.2,5,0,10.2l-0.2,3.9l-0.6,1.1c-0.8,1.7-1.6,2.4-2.9,2.9c-0.9,0.3-1.5,0.3-4.8,0.4
		c-2,0-3.6,0-3.6-0.1c0.1-0.1,1.8-0.2,3.7-0.2c4.2-0.1,4.8-0.2,6.1-1.4c0.8-0.7,1.7-2.3,1.7-2.9c0-0.3-1-0.6-2.9-1
		c-1.7-0.3-2.7-0.3-3.6-0.1c-0.8,0.2-0.9,0.4-1.1,1.5l-0.1,0.8l-1.3-0.1c-0.7-0.1-1.7-0.3-2.2-0.4c-1.7-0.7-2.4-0.8-5.2-0.8
		c-1.5,0-2.7-0.1-2.7-0.1c0-0.1,0.9-0.2,2-0.2c2.2-0.1,3.7,0,5.3,0.5c0.5,0.2,1.5,0.4,2.2,0.6l1.3,0.3l0.1-0.8
		c0.2-1.6,0.8-1.9,3.4-1.9c1.2,0,2,0.1,3.2,0.4l1.5,0.4l0.1-0.4c0.1-0.2,0.2-2.9,0.3-5.9c0.1-4.6,0.1-5.6-0.1-6.4
		c-0.2-0.8-0.2-1.1-0.1-1.3c0.1-0.2,0.2-0.4,0.1-0.4c-1-0.6-3.3-0.8-9.4-0.7c-3,0.1-5.9,0.1-6.6,0.2c-0.7,0-3.1,0.2-5.5,0.3
		c-8.7,0.5-16,0.9-18.8,1.1l-1,0.1l0.1,0.8l0.1,0.8h-0.6c-1,0-1.6,0.3-1.8,0.9c-0.4,0.8-0.4,9.1,0,9.4c0.2,0.2,0.2,0.3,0,0.6
		c-0.2,0.4-0.2,2.1,0.1,4c0.1,0.8,0.2,0.9,0.9,1.4c0.7,0.5,0.7,0.6,0.5,0.8c-0.3,0.3-0.2,0.1-0.4,1.6c-0.1,0.7-0.2,2.4-0.2,3.6
		c0,2.2,0,2.3-0.4,2.9l-0.4,0.6v5.1v5.1l0.6,0.5c1.1,0.9,1.9,1.8,1.9,2.2c0,0.2,0,0.2-1.6,0.6c-1.1,0.2-1.3,0.3-1.6,0.8l-0.4,0.6
		v5.1c0,3.1,0.1,5.4,0.2,5.7c0.3,0.9,1,1.3,3.5,1.7c5.2,0.8,10.9,1.4,13,1.4c0.4,0,0.6,0.1,0.9,0.7c0.5,0.9,1.3,1.5,2.8,2
		c2.3,0.8,6.9,1,8.4,0.3c0.9-0.4,2-1.2,2.1-1.7c0.1-0.3,0.2-0.3,4.1-0.2c5.6,0.2,14.6,0.2,15.3,0.1l0.6-0.1l0.5,0.9
		c0.9,1.9,2.3,3,4.2,3.3c1.7,0.3,3.4,0.5,4.9,0.5h1.5l-0.9-0.3c-1.6-0.6-3.9-3-4.2-4.6c-0.1-0.4-0.2-0.5-0.6-0.5
		c-0.3,0-0.6-0.1-0.7-0.2c-0.1-0.1-0.1-1-0.1-1.9c0-1.4,0-1.8-0.3-2c-0.3-0.3-0.2-1.5,0.4-5.3c0.6-3.2,0.6-3.5,0.1-3.8
		c-0.5-0.4-0.4-1.1,0.2-1.2c0.5-0.1,0.6-0.3,0.1-0.3c-0.3,0-0.3-0.1-0.3-0.4c0-0.4,0.1-0.4,0.6-0.4c0.3,0,0.6-0.1,0.7-0.2
		c0.2-0.3-0.2-0.7-0.9-0.7c-0.6,0-0.6,0-0.6-0.4c0-0.2,0.2-1,0.3-1.6c0.2-1.1,0.3-1.3,0.9-2c0.3-0.4,0.9-1.1,1.1-1.4
		c0.7-1.1,0.8-1.1,6.3-1.3c2.8-0.1,5.1-0.1,5.3,0c0.1,0.1,0.3,0.3,0.4,0.5c0.2,0.4,0.2,0.4,1.8,0.3c1.5,0,1.6-0.1,1.9-0.5l0.4-0.4
		l0-4.3l0-4.3l0.5-0.1c0.3,0,1-0.1,1.8-0.1h1.3l0,6.4c0,3.5-0.1,6.4-0.1,6.5c-0.1,0.1-6-0.6-6.8-0.7c-0.1,0-0.2,0.1-0.2,0.2
		c0,0.2,0.2,0.3,0.6,0.3c1.4,0.1,2,0.2,2.3,0.6c0.9,1,2.3,4.4,2.7,6.7c0.1,0.6,0.2,2.4,0.3,4l0.1,3h1.3h1.3v0.5c0,0.3,0,0.6-0.1,0.6
		c0,0-0.6-0.1-1.3-0.3c-0.7-0.2-1.2-0.3-1.3-0.2c0,0.1-0.3,0.2-0.7,0.2c-0.5,0-0.6-0.1-0.7-0.3c0-0.3-0.3-0.4-1.5-0.8
		c-0.8-0.2-1.7-0.5-1.9-0.6c-0.3-0.1-0.5-0.2-0.5-0.2c0,0-0.1,0.5-0.1,1.1v1.1l1.7,0.7c1.6,0.6,1.8,0.7,3.8,0.8l2.1,0.1l0.3-0.4
		c0.2-0.3,0.3-0.7,0.3-1c0-0.6,0-0.6,0.6-0.6c0.3,0,0.6,0.1,0.7,0.3c0.1,0.2,0.2,0.2,0.5,0.1c0.2-0.1,0.6-0.2,0.9-0.2
		c0.3,0,6.1-0.8,12.9-1.8c12-1.8,12.3-1.9,12.3-2.2c0-0.5,0.2-0.9,0.3-0.9c0.1,0,0.1,0.3,0.1,0.7c0,1.1,0.6,2.4,1.6,3.6
		c0.7,0.8,0.9,1,1.4,1.1c0.3,0.1,2.6,0.1,5,0.1c3.8,0,4.4,0,4-0.2c-1-0.6-2-2.5-2.7-5.2c-0.3-1.1-0.3-1.6-0.2-3.8
		c0.1-2.7,0.3-3.7,1.2-5.7c1.3-2.8,3.6-3.3,5.5-1c0.7,0.9,1.2,1.9,1.6,4c0.4,1.8,0.4,3.2,0,5.9c-0.2,1.2-0.3,2.2-0.2,2.4
		c0.1,0.2,0.4,0.2,1.2,0.2h1.2l0.1-2.5l0.1-2.5l-0.5-0.6c-0.5-0.6-0.6-0.6-0.6-1.9c0-1.7-0.3-3.6-0.9-5.1c-0.6-1.5-1.2-2.3-1.9-2.9
		c-0.5-0.3-0.7-0.4-1.3-0.3c-0.5,0.1-1,0.3-1.3,0.6c-0.6,0.5-0.7,0.5-0.4-0.1c0.5-1.1,2.4-1.4,3.5-0.6c0.8,0.5,1.2,1.1,1.8,2.7
		c0.6,1.5,0.9,2.9,1.1,5.2c0.1,1,0.2,1.9,0.3,1.9c0.2,0.1,0-3.4-0.3-4.8c-0.3-1.5-0.6-2.3-1.2-3.3c-0.3-0.6-0.4-0.9-0.3-0.9
		c0.5-0.2,2.9-0.3,3-0.3c0.1,0.1-0.3,0.6-0.8,1.2l-1,1.1l0.2,0.7c0.4,1.2,0.7,3.4,0.7,4.9v1.4l0.7,0.1c0.4,0,1.3,0.1,2.2,0.1l1.5,0
		l0-0.7l0-0.7h3.6h3.5v-0.9v-0.9h-3.6h-3.6v0.7c0,0.7,0,0.7-0.5,0.7c-0.5,0-0.5,0-0.7,0.7l-0.2,0.7l0-0.6c0-0.3-0.1-0.8-0.1-1.1
		c-0.1-0.5-0.1-0.5,0.6-0.5c0.5,0,0.6,0,0.6-0.3c0-0.3-0.1-0.3-0.6-0.3c-0.3,0-0.6,0-0.6-0.1c0,0,0.2-0.4,0.4-0.8
		c0.3-0.6,0.4-0.9,0.3-1.4c-0.1-0.6,0-0.8,0.8-2c0.7-1.1,0.9-1.4,0.8-1.7c-0.1-0.6,0.2-0.8,1-0.8c0.5,0,0.5,0,0.4,0.6l-0.1,0.6h1.9
		c1,0,2.3,0,2.7,0.1c1.6,0.2,0.6,0.4-2,0.4h-2.7v1.7v1.7h2.8h2.8v-1.6c0-0.9,0.1-1.7,0.2-1.8c0.1,0,0.2-0.6,0.2-1.2v-1.1l0.5,0
		l0.5,0l0.1-5l0.1-5l0.4,0c0.8-0.1,0.8-0.4,0.7-7.7c-0.3-18.1-0.4-25.5-0.6-25.6c-0.1,0-1.3-0.3-2.7-0.5c-1.4-0.2-6.5-1.1-11.3-1.8
		c-4.8-0.8-10.3-1.7-12.2-2c-1.9-0.3-5.4-0.9-7.7-1.3c-7.4-1.2-14.9-2.4-18.5-3c-1.9-0.3-5-0.8-6.8-1.1c-1.9-0.3-3.6-0.5-3.8-0.5
		c-0.2,0-2.8,0.2-5.6,0.3c-2.9,0.1-6.7,0.2-8.5,0.3l-3.3,0.1l-0.1-1.2c-0.1-1.3-0.2-1.6-0.9-2C149.8,61.6,148,61.5,143.8,61.7
		L143.8,61.7L143.8,61.7z M147.3,127.6c-0.2,0.4-0.7,6.8-0.8,10.6l-0.1,3.3h0.5c0.6,0,0.6,0.3,1-4.3c0.1-1.7,0.4-3.4,0.6-4.3
		c0.6-2.5,1.1-3.9,1.5-4.6c0.2-0.4,0.3-0.7,0.3-0.7C150.4,127.4,147.3,127.5,147.3,127.6L147.3,127.6z M153.2,126.5
		c-0.4,0.2-1.2,0.6-1.8,0.9c-0.8,0.6-1.1,0.8-1.5,1.7c-0.9,1.8-1.6,5.9-2,10.4l-0.2,2.8l0.4,0.9c0.7,1.5,2.7,3.3,4.1,3.7
		c0.2,0.1,0.4,0.2,0.5,0.3c0.2,0.3,2.4-0.2,3.3-0.6c1.1-0.5,1.9-1.3,2.8-2.4c0.9-1.2,1.6-2.7,2-4.9c0.3-1.5,0.3-1.9,0.2-3.9
		c-0.2-3.4-0.8-5.1-2.5-7.1c-1-1.2-2.1-1.8-3.4-1.9C154.2,126.2,153.9,126.2,153.2,126.5z M156.8,131.6c0.3,0.5,0.2,0.6-0.3,0.4
		c-1-0.4-1.9-0.1-3.1,1c-1,1-1.4,2-1.5,3.9c0,0.9,0,1.7,0,2c0.1,0.6,1.5,2.3,2,2.6c0.5,0.3,1.8,0.3,2.4,0.1c0.7-0.3,0.6-0.1-0.2,0.5
		c-0.8,0.6-1.2,0.7-1.2,0.3c0-0.3-0.6-0.6-1.1-0.3c-0.2,0.1-0.4,0.2-0.4,0.3c0,0.2-0.3,0.1-0.8-0.3c-0.4-0.3-0.5-0.5-0.4-0.9
		c0.1-0.5-0.2-1.2-0.6-1.2c-0.3,0-0.4-0.3-0.6-1.4c-0.1-0.6-0.1-0.9,0.1-1c0.2-0.2,0.3-1.3,0-1.5c-0.1-0.1-0.1-0.4,0-1
		c0.2-1.1,0.5-1.6,0.9-1.5c0.4,0.1,0.9-0.6,0.7-1.1c-0.3-0.4-0.1-0.8,0.4-1.1c0.3-0.2,0.5-0.2,0.9,0.1c0.4,0.2,0.6,0.3,0.9,0.1
		c0.2-0.1,0.4-0.3,0.4-0.4C155.6,130.8,156.5,131.1,156.8,131.6L156.8,131.6z M156.8,132.7c0,0,0,0.2-0.1,0.3
		c-0.1,0.1-0.2,0.5-0.2,0.9c0,0.6,0,0.7-0.5,0.7c-0.3,0-0.6,0.1-0.9,0.4c-0.4,0.4-0.4,0.4-0.6,0.2c-0.1-0.1-0.3-0.3-0.4-0.3
		c-0.5,0-0.3-0.6,0.4-1.5l0.4-0.4l0,0.7c0,0.9,0.4,1,0.7,0.3c0.2-0.3,0.2-0.5,0.1-0.9c-0.1-0.3-0.1-0.5-0.1-0.6
		C155.8,132.4,156.7,132.5,156.8,132.7L156.8,132.7L156.8,132.7z M158,134c0.3,0.6,0.3,0.8,0,0.8c-0.1,0-0.3,0.2-0.4,0.3
		c-0.1,0.3-0.1,0.3-0.1,0.1c0-0.1-0.2-0.4-0.3-0.5c-0.3-0.2-0.3-0.2,0-0.3c0.2-0.1,0.4-0.3,0.4-0.5C157.7,133.4,157.7,133.5,158,134
		L158,134z M156.8,135.2c0,0.1-0.2,0.2-0.3,0.2c-0.1,0-0.2-0.1-0.3-0.2c0-0.1,0.1-0.2,0.3-0.2C156.7,135,156.8,135.1,156.8,135.2z
		 M154.1,136.3c0.2,0,0.3,0.2,0.4,0.6c0,0.4,0,0.5-0.3,0.6c-0.2,0-0.4,0.2-0.4,0.4c0,0.2-0.1,0.4-0.2,0.4c-0.2,0-0.3-0.8-0.2-1.6
		c0.1-0.6,0.1-0.8,0.3-0.6C153.7,136.1,153.9,136.2,154.1,136.3L154.1,136.3z M157,136.3c0,0.2-0.5,0.5-0.6,0.3
		c-0.1-0.1,0.3-0.6,0.5-0.6C156.9,136.1,157,136.2,157,136.3z M155.7,136.8c0.1,0.5,0,0.7-0.3,0.7c-0.1,0-0.2-0.2-0.2-0.6
		C155.1,136.3,155.5,136.2,155.7,136.8L155.7,136.8z M158.4,137c0,0.4-0.1,0.6-0.3,0.6c-0.2,0-0.3-0.1-0.3-0.2c0-0.1,0-0.3-0.1-0.6
		c-0.1-0.3,0-0.3,0.3-0.3C158.4,136.4,158.4,136.5,158.4,137L158.4,137z M156.8,137.8c0,0.1-0.1,0.2-0.3,0.2c-0.2,0-0.3-0.1-0.3-0.2
		c0-0.1,0.1-0.2,0.3-0.2C156.7,137.7,156.8,137.7,156.8,137.8z M154.9,139.4c-0.2,0.1-0.3,0.3-0.3,0.5c0,0.6-0.5,0.3-0.9-0.5
		c-0.3-0.7-0.3-0.7,0-0.6c0.2,0,0.4,0,0.6-0.2c0.3-0.3,0.3-0.3,0.6,0.1C155.2,139.2,155.2,139.2,154.9,139.4L154.9,139.4z
		 M157.9,139c0,0-0.1,0.3-0.3,0.6c-0.3,0.5-0.4,0.6-0.4,0.3c0-0.2-0.2-0.4-0.3-0.5c-0.2-0.2-0.2-0.2,0-0.6c0.3-0.3,0.3-0.3,0.6-0.1
		C157.7,138.9,157.9,139,157.9,139z M156,138.9c0,0.1,0,0.2-0.2,0.2s-0.3-0.1-0.3-0.3C155.6,138.6,155.9,138.6,156,138.9L156,138.9z
		 M156.1,140.1c0,0.9,0,0.9-0.4,0.9c-0.4,0-0.5-0.1-0.4-0.3c0-0.1,0.1-0.5,0.1-0.8c0-0.4,0.1-0.5,0.4-0.6c0.2,0,0.3-0.1,0.3-0.1
		C156.1,139.3,156.1,139.6,156.1,140.1L156.1,140.1z M148.2,126.1c0,0.3-0.1,0.6-0.2,0.8c-0.1,0.3-0.1,0.4,1.1,0.4
		c0.7,0,1.2-0.1,1.2-0.2c0-0.1,0.1-0.5,0.3-0.8l0.3-0.6h-1.3C148.4,125.7,148.3,125.7,148.2,126.1L148.2,126.1z M161.8,122.6
		c0.1,0,0.1,0.2,0.1,0.3c0,0.1,0.2,0.3,0.4,0.5c1.2,0.9,3,5.6,3.4,8.4c0.2,1.3,0.2,4.6,0,5c-0.1,0.2,0,0.3,0.3,0.3h0.4l-0.1-3.1
		c-0.1-4-0.6-6.5-1.9-9.3c-0.7-1.5-0.9-1.7-1.8-1.9C162.3,122.7,161.9,122.6,161.8,122.6C161.7,122.6,161.7,122.6,161.8,122.6
		L161.8,122.6z M156.4,122.5c-1.9,0.5-2.6,0.9-3.7,2.1c-0.6,0.6-1.1,1.1-1.2,1.1c-0.1,0-0.6,0.8-0.7,1.3c-0.1,0.4,0.1,0.3,0.8-0.1
		c1-0.7,2.5-1.1,3.6-1c2.7,0.3,5.3,3.1,6,6.4c0.1,0.6,0.3,1.5,0.3,2v0.8l1.6,0.5c0.9,0.3,1.8,0.5,2,0.5l0.4,0l0-1.7
		c0.1-2.7-0.6-5.4-1.8-7.9c-1.3-2.6-1.9-3.4-2.5-3.5c-0.3,0-0.8-0.3-1-0.5C159.5,122.2,157.8,122.1,156.4,122.5L156.4,122.5
		L156.4,122.5z M210.1,121.2c-1.2,0.9-2,2.6-2.6,6c-0.3,1.6-0.3,2.6,0,4.2c0.6,3.2,1.4,4.8,2.8,5.8c0.9,0.6,1.2,0.6,2.3,0
		c0.8-0.4,1-0.6,1.5-1.7c0.3-0.7,0.7-1.5,0.8-1.9c0.3-1.3,0.5-4,0.4-5.2c-0.3-3.5-0.9-5.4-2.2-6.7c-0.7-0.7-0.7-0.7-1.7-0.7
		C210.8,120.9,210.3,121,210.1,121.2z M212.2,124.2c0.7,0.2,1.3,1.3,1.6,2.7c0.2,1,0.2,1.4,0.1,2.6c-0.2,1.3-0.9,3.3-1.4,3.8
		c-0.3,0.3-1.1,0.7-1.3,0.5c-0.1,0,0-0.2,0.2-0.4c0.8-0.7,1.3-1.7,1.7-3.8c0.2-0.9,0.2-1.2,0-2.1c-0.3-1.4-0.7-2.4-1.3-2.9
		c-0.4-0.3-0.4-0.5-0.3-0.6C211.8,124,211.7,124,212.2,124.2z M211.8,125.2c0.5,0.5,1,2.4,1,3.5c0,1.9-1.1,4.9-1.9,4.9
		c-0.4,0-0.5-0.2-0.1-0.4c0.5-0.3,1.2-1.7,1.4-2.9c0.3-2-0.1-4.4-1.1-5.1l-0.4-0.3h0.4C211.3,124.9,211.6,125,211.8,125.2
		L211.8,125.2z M210.2,126.8c0,0.1,0,0.2-0.1,0.1c-0.1,0-0.2-0.2-0.3-0.3c0-0.1,0-0.2,0.1-0.1C210,126.5,210.2,126.6,210.2,126.8
		L210.2,126.8z M209.9,127.7c0,0.2-0.4,0.2-0.6,0c-0.2-0.3,0.1-0.5,0.3-0.3C209.8,127.5,209.9,127.7,209.9,127.7L209.9,127.7z
		 M211.1,128.4C211.1,128.5,211,128.5,211.1,128.4c-0.1-0.3-0.1-0.4,0-0.3C211.2,128.1,211.2,128.3,211.1,128.4L211.1,128.4z
		 M210.4,129c0,0.1-0.1,0.2-0.2,0.2s-0.2-0.1-0.2-0.2c0-0.1,0.1-0.2,0.2-0.2S210.4,128.9,210.4,129z M209.5,129.9
		c0,0.1-0.2,0.1-0.2,0c-0.1,0-0.1-0.2,0-0.2c0-0.1,0.2-0.1,0.2,0C209.5,129.8,209.6,129.9,209.5,129.9z M210,130.4
		c-0.2,0.2-0.3-0.1-0.1-0.4c0.1-0.3,0.1-0.3,0.2,0C210.1,130.1,210.1,130.3,210,130.4z M159.8,120.4c-0.1,0-1.8,0.2-3.7,0.3
		c-3.7,0.3-4.8,0.4-5.3,0.8c-0.4,0.3-1.2,2.4-1.2,3.2v0.7h0.9h0.9l0.8-0.9c1.4-1.6,3-2.3,5.7-2.5c1.5-0.1,1.5-0.1,2.2,0.3
		c0.8,0.5,1,0.5,0.5,0c-0.4-0.4-0.3-0.6,0.2-1c0.3-0.3,0.4-0.8,0-0.9C160.6,120.3,160,120.3,159.8,120.4L159.8,120.4z M154.8,119.3
		c-2.3,0.1-4.4,0.3-4.7,0.3c-0.4,0.1-0.6,0.3-0.9,0.8c-0.3,0.6-1.3,4.6-1.2,4.8c0,0.1,0.3,0.1,0.5,0.1c0.4,0,0.5,0,0.6-1.1
		c0.2-1.2,0.7-2.4,1.1-3c0.5-0.6,1.1-0.7,5.6-1c4.5-0.3,4.7-0.3,4.5-0.8c-0.1-0.3-0.2-0.3-0.7-0.3
		C159.2,119.1,157.1,119.2,154.8,119.3L154.8,119.3z M133.3,133.5c-0.2,0.1-0.3,0.2-0.2,0.2c0.2,0.1,0.7,0,0.7-0.2
		c0-0.1,0-0.1,0-0.1C133.7,133.4,133.5,133.5,133.3,133.5L133.3,133.5z M134.1,133.6c0,0.3,0.1,0.4,0.4,0.4c0.2,0,0.3-0.2,0.3-0.4
		c0-0.2-0.1-0.3-0.3-0.4C134.1,133.2,134.1,133.3,134.1,133.6z M123.6,132c0,0.4-0.1,1.4-0.1,2c0,1.1,0,1.2,0.3,1.4
		c0.3,0.2,10.1,0.5,11.7,0.3l1-0.1l0-1.9l0-1.9l-0.5-0.2c-0.4-0.2-2-0.2-6.5-0.3l-6-0.1L123.6,132L123.6,132z M124.5,132
		c0.2,0.3,0.3,0.5,0.5,0.4c0.2-0.1,0.2,0,0.1,0.3c-0.3,1.2,1.5,3.1,2.2,2.3c0.1-0.1,0.2-0.1,0.4,0c0.2,0.2,0.3,0.2,0.6-0.2l0.4-0.5
		l0.4,0.4c0.6,0.6,1.5,0.6,2.1-0.1c0.5-0.6,0.6-0.3,0.1,0.4l-0.4,0.5l-2.6-0.1c-2,0-2.7-0.1-2.8-0.3c-0.1-0.2-0.2-0.2-0.6,0
		c-0.7,0.2-1.1,0.2-1.1-0.1c0-0.1,0.1-0.2,0.4-0.2c0.7,0,0.9-1.1,0.3-1.3c-0.5-0.1-0.9-0.7-0.7-0.9c0.1-0.1,0.2,0,0.4,0.2
		c0.3,0.5,0.6,0.5,0.6,0.1c0-0.2-0.2-0.4-0.5-0.5c-0.5-0.2-0.7-0.6-0.5-0.8C124.1,131.4,124.3,131.5,124.5,132L124.5,132z
		 M125.9,131.6c0,0.1-0.1,0.2-0.3,0.3c-0.3,0.2-0.3,0.2-0.3,0c0-0.1,0.1-0.3,0.2-0.3C125.7,131.5,125.9,131.5,125.9,131.6
		L125.9,131.6z M127.9,131.8c0,0.1,0,0.2-0.1,0.2c0,0-0.1-0.1-0.2-0.2c0-0.1,0-0.2,0.1-0.2C127.8,131.7,127.9,131.7,127.9,131.8z
		 M129.3,132.3c-0.3,0.6-0.3,0.6-0.4,0.3c-0.1-0.4,0.2-1,0.5-1C129.6,131.7,129.5,131.8,129.3,132.3L129.3,132.3z M130.9,131.9
		c0.6,0.3,0.8,0.7,0.3,0.7c-0.2,0-0.4,0.1-0.4,0.2c0,0.1-0.3,0.2-0.7,0.2c-0.4,0-0.7-0.1-0.7-0.1c0-0.2,0.4-0.5,0.6-0.4
		c0.1,0.1,0.1,0,0-0.1c-0.2-0.3,0-0.7,0.3-0.7C130.4,131.7,130.7,131.8,130.9,131.9L130.9,131.9z M131.9,131.8c0,0.1,0,0.3,0,0.4
		c-0.1,0.3-0.1,0.3-0.3-0.1c-0.1-0.3-0.1-0.4,0-0.4C131.7,131.7,131.9,131.7,131.9,131.8z M134.5,132.3c0.2,0.6,0.3,0.6,0.8,0.6
		c0.5-0.1,0.6,0.1,0.4,0.6c0,0.1-0.2,0.3-0.3,0.3c-0.3,0-0.3,0.3,0.1,0.4c0.4,0.1,0.4,0.3-0.2,0.7c-0.3,0.2-0.6,0.5-0.6,0.6
		c0,0.4-0.3,0.2-0.3-0.2v-0.4l-0.5,0.5c-0.5,0.5-0.5,0.4-0.5-0.4c0-0.2,0-0.4-0.1-0.4c-0.1,0-0.2,0.2-0.2,0.5c0,0.3-0.1,0.5-0.2,0.5
		c-0.1,0-0.2-0.4-0.2-1v-1h0.5c0.6,0,0.7-0.4,0.3-0.8c-0.5-0.4-0.5-0.6,0-0.7c0.2,0,0.5-0.1,0.6-0.1
		C134.2,131.7,134.4,131.9,134.5,132.3L134.5,132.3L134.5,132.3z M127.4,132.1c0.4,0.4,0,0.6-0.7,0.3c-0.3-0.2-0.6-0.3-0.6-0.4
		C126.2,131.7,127.2,131.8,127.4,132.1L127.4,132.1z M126.8,132.6c0,0.2-0.7,0.3-1,0.2c-0.1-0.1-0.1-0.2-0.1-0.3
		C125.9,132.3,126.8,132.4,126.8,132.6L126.8,132.6z M131.6,133.5c-0.2,0.9-0.6,1.5-1.2,1.5c-0.4,0-0.4,0-0.3-0.2
		c0.1-0.1,0.4-0.3,0.6-0.3c0.5-0.1,0.5-0.4,0-0.4c-0.3,0-0.4-0.1-0.4-0.3c0-0.4,0.2-0.5,0.5-0.3c0.3,0.3,0.7,0.1,0.5-0.3
		c-0.1-0.2,0-0.3,0.2-0.3C131.7,132.9,131.7,133,131.6,133.5z M126.2,133.6c0.1,0.3,0,0.4-0.3,0.3c-0.1,0-0.2-0.2-0.1-0.3
		C125.9,133.3,126.1,133.3,126.2,133.6z M127.6,133.6c0.4,0,0.3,0.4-0.1,0.9c-0.3,0.3-1.1,0.5-1.1,0.2c0-0.1,0.1-0.2,0.2-0.2
		c0.1,0,0.3-0.1,0.5-0.3c0.3-0.3,0.3-0.3-0.1-0.4c-0.2-0.1-0.4-0.2-0.4-0.3c0-0.1,0.1-0.1,0.4-0.1
		C127.1,133.5,127.4,133.6,127.6,133.6L127.6,133.6z M129.9,133.9c-0.2,0.2-0.4,0.1-0.3-0.3c0.1-0.2,0.1-0.2,0.3-0.1
		C130,133.7,130,133.8,129.9,133.9L129.9,133.9z M104.7,130.4c0,0-0.1,0.7,0,1.4c0,1.3,0.1,1.4,0.4,1.5c0.2,0,1.9,0.1,3.7,0.1l3.4,0
		l0-1.2c0.1-1.8,0.3-1.7-3.9-1.8C106.4,130.4,104.7,130.4,104.7,130.4L104.7,130.4z M111.9,131.1c0.2,0.9,0.2,2,0.1,2.1
		c-0.2,0.2-6.6,0.1-6.9-0.1c-0.2-0.2-0.3-2-0.1-2.2c0-0.1,1.6-0.1,3.5-0.1C111.8,130.7,111.8,130.7,111.9,131.1L111.9,131.1z
		 M140.5,82.8c-0.1,0.1,0,0.4,0.2,0.4c0.1,0,0.1-0.1,0.1-0.2C140.9,82.7,140.7,82.6,140.5,82.8z M172.2,99.4l-1.6,0.1l1.3,0.1
		c1.4,0.1,1.3,0.1,3.2,0c0.7,0,1.4-0.1,1.4-0.2C176.6,99.3,174.5,99.3,172.2,99.4z M144.8,66.4c-6.4,5.2-8.3,6.8-8.2,6.9
		c0.2,0.2,9.9-7.8,9.9-8.2C146.6,64.9,146.7,64.9,144.8,66.4z M149.8,62.3c0.9,0.4,0.9,0.7,1,6.1l0,4.9l-0.8,0.5
		c-0.5,0.3-2.5,1.1-4.5,1.8c-4.7,1.8-5.3,2-5.6,2.3c-0.3,0.3-0.2,0.4,0.4,0.4c1.2,0,1.6,0.5,1.9,2.1l0.1,0.6h-0.6
		c-0.5,0-0.6-0.1-0.8-0.4c-0.2-0.4-0.5-0.5-1.9-0.9c-0.9-0.3-1.7-0.5-1.8-0.5c-0.1,0-0.2,0.3-0.2,0.7l0,0.8l0.8,0.3
		c0.7,0.2,0.8,0.3,0.9,0.9c0.1,0.3,0.1,0.8,0.1,1c0,0.3-0.1,0.3-0.2-0.1c-0.2-0.6-0.5-1-1.3-1.4c-0.6-0.3-0.6-0.4-0.6-0.9
		c0.2-1.2-0.3-1.6-3-2c-3.5-0.5-5.6-0.6-10.8-0.3c-7,0.3-16.9,0.9-21.1,1.2c-1,0.1-1.8,0.1-1.9,0.1c-0.2-0.2,1.9-3.3,3.5-5.2
		c3-3.6,7.9-8.5,8.9-8.9c0.7-0.3,8.8-1.4,14.6-1.9c0.6-0.1,1.7-0.2,2.4-0.3c0.8-0.1,4.3-0.4,7.9-0.6C144.5,62,149,61.9,149.8,62.3z
		 M168.9,77.6c0,6.9-0.1,16.7-0.1,22l0,9.6h-2.1h-2.1l-0.3-5.5c-0.3-5-0.7-11.9-1.1-16c-0.2-2.1-0.6-4-0.9-4.5
		c-0.1-0.2-0.7-0.5-1.5-0.8c-0.9-0.3-1.4-0.6-1.6-0.9c-0.5-0.7-2.2-1.9-3.3-2.2c-1.2-0.4-1.4-0.6-1.4-1.4c0-0.3-0.1-0.7-0.2-0.8
		c-0.2-0.2-2.5-0.4-6.9-0.6c-1.1,0-2-0.2-1.9-0.2c0.1-0.1,1-0.5,2.1-0.9c1.1-0.4,2.3-0.9,2.7-1.1c1.2-0.5,1.2-0.7,1.2-5v-3.7
		l0.7-0.1c0.4,0,1.6-0.1,2.8-0.1c1.2,0,3.7-0.1,5.5-0.2c1.9,0,4.5-0.1,5.9-0.1l2.5,0L168.9,77.6L168.9,77.6L168.9,77.6z M175,65.8
		c2.4,0.4,9.4,1.5,15.7,2.5c6.3,1,17.9,2.9,26,4.2c8,1.3,14.6,2.4,14.7,2.4c0.1,0,0.2,4.4,0.2,9.6c0.1,5.2,0.1,10.1,0.2,10.8
		c0,0.7,0.1,3.6,0.2,6.5l0.1,5.3h-1.8h-1.8v-0.6c0-1.2-0.5-1.3-0.7,0l-0.1,0.8l-1.9,0.1c-1,0.1-1.9,0.1-2,0c0,0-0.1-0.5-0.2-0.9
		c-0.1-1.1-0.4-1-0.4,0.1l0.1,0.8l-2.3,0.1c-1.2,0-2.3,0-2.3,0c0,0-0.1-0.5-0.1-1c-0.1-1.3-0.4-1.2-0.5,0.1l0,1h-2.3h-2.3v-0.8
		c0-0.9-0.2-1.5-0.4-1.1c0,0.1-0.1,0.6-0.1,1.1l0,0.9l-2.4,0l-2.4,0l-0.1-0.5c0-0.3-0.1-0.7-0.1-1c0-0.6-0.2-0.8-0.4-0.5
		c-0.1,0.1-0.1,0.6-0.1,1c0,0.5,0,0.9-0.1,0.9c-0.1,0-1.3,0.1-2.7,0.2l-2.6,0.1v-0.5c0-0.9-0.2-1.7-0.4-1.7c-0.1,0-0.2,0.4-0.1,1.1
		l0.1,1.1h-2.8H196l-0.1-0.7c0-0.4-0.1-0.8-0.1-1.1c-0.1-0.8-0.4-0.4-0.5,0.7l-0.1,1.2h-2.8c-3.1,0-3,0-3-1.1c0-0.7-0.2-1.1-0.4-0.9
		c-0.1,0-0.2,0.6-0.3,1.1l-0.1,1h-3h-3l-0.1-1.1c-0.1-1.4-0.5-1.4-0.5,0l0,1.1l-1.7,0c-0.9,0-2.4,0-3.3,0l-1.7,0l0-0.9
		c0-0.7-0.1-0.9-0.3-0.9c-0.2,0-0.2,0.2-0.2,0.9v0.9h-2.6h-2.6V86.9c0-11.8,0-21.6,0.1-21.6C169.6,65,170.8,65.2,175,65.8L175,65.8z
		 M147.3,77.1c0.4,0,0.7,0.2,0.7,0.2c0,0.1-0.6,0.1-1.5,0.1c-1.4,0-1.5-0.1-1.6-0.3C144.8,76.8,144.9,76.8,147.3,77.1L147.3,77.1z
		 M143.6,77.8c0.1,0.1,0.1,0.3,0.1,0.3c0,0-0.6,0-1.2,0c-1.2-0.1-1.3-0.3-0.3-0.5C142.9,77.4,143.4,77.5,143.6,77.8z M151.5,78.1
		c1.4,0.2,1.9,0.4,1.9,0.7c0,0.1-0.6,0.1-2.6-0.1c-1.5-0.1-2.8-0.3-3.1-0.3c-0.3,0-0.4-0.1-0.4-0.2
		C147.2,77.8,148.9,77.8,151.5,78.1z M152.2,79.4c2.2,0.2,4.6,0.8,5.4,1.3c0.8,0.5,1.5,1.3,1.5,1.5c0,0.2-0.3,0.2-1.8,0.1
		c-3.5-0.2-7.3-0.5-7.4-0.6c-0.1,0-0.2-0.4-0.3-0.7c-0.1-0.3-0.2-0.8-0.4-1.1c-0.4-0.7-0.4-0.9,0.4-0.8
		C149.8,79.2,151.1,79.3,152.2,79.4z M140.9,81.5c0.2,0.5,0.3,1.2,0.3,1.5c0,0.6,0,0.6-0.4,0.6c-0.4,0-0.5,0-0.7-1.2
		c-0.4-1.7-0.4-2,0.1-1.9C140.5,80.6,140.6,80.7,140.9,81.5z M128.9,80.9c0,0.1-0.2,0.2-0.4,0.2c-0.3,0-0.4,0-0.3-0.2
		C128.3,80.6,129,80.6,128.9,80.9z M130.1,80.9c0.2,0.1,0.2,0.2,0.1,0.2c-0.3,0-0.7-0.2-0.7-0.3C129.5,80.6,129.7,80.6,130.1,80.9z
		 M139.5,81.3c0.3,0.5,0.4,2.3,0.2,2.3c-0.1,0-0.1-0.1-0.1-0.3c0-0.1,0-0.3-0.1-0.3c-0.1,0-0.2-0.2-0.2-0.5c0-0.3-0.1-0.7-0.2-1
		c-0.3-0.7-0.3-0.7,0-0.7C139.2,80.8,139.4,81,139.5,81.3L139.5,81.3z M146.2,81.9c1.6,0.1,3.3,0.2,3.9,0.2c0.6,0,1.7,0.1,2.5,0.2
		c5.1,0.3,7.6,0.6,8.4,0.8c0.7,0.2,0.9,0.4,0.9,0.7c0.1,0.2,0.1,0.5,0,0.5c-0.1,0-1.1,0-2.4-0.1c-1.3-0.1-5.6-0.3-9.7-0.6
		c-4.1-0.2-7.6-0.4-7.8-0.5c-0.3-0.1-0.4-0.2-0.6-1.2l-0.1-0.5l1,0.1C142.9,81.7,144.6,81.8,146.2,81.9L146.2,81.9L146.2,81.9z
		 M96.2,82.8c0,0.1-0.1,0.2-0.1,0.2c-0.2,0-0.3-0.3-0.2-0.4C96,82.4,96.2,82.5,96.2,82.8z M95.5,83c0,0.1-0.1,0.2-0.2,0.2
		c-0.1,0-0.2-0.1-0.2-0.2c0-0.1,0.1-0.2,0.2-0.2C95.5,82.8,95.5,82.9,95.5,83z M96.8,83.1c0,0.1-0.1,0.2-0.2,0.2
		c-0.3,0-0.3-0.2-0.1-0.4C96.6,82.8,96.8,82.8,96.8,83.1z M95.9,83.4c-0.1,0-0.3,0-0.5,0c-0.2,0-0.1-0.1,0.2-0.1
		C95.9,83.3,96,83.4,95.9,83.4z M138.5,83.9c0,0.1-0.2,0.3-0.4,0.5c-0.8,0.5-0.8,0.2-1.1,11.5c-0.2,6.7-0.4,10.6-0.5,10.7
		c-0.1,0.1-1.3,0.1-2.7,0l-2.6-0.1l0-0.8c0.1-0.7,0.1-0.8,0.4-0.9c0.6-0.1,2-0.8,2.7-1.3c0.6-0.5,1.2-1.5,1.7-2.7
		c0.4-1,0.5-3.2,0.6-8.2c0-6.7,0.2-7.8,1.2-8.6C138.4,83.6,138.5,83.6,138.5,83.9L138.5,83.9z M145.1,83.8c1.2,0.1,3.1,0.2,4.2,0.3
		c1.1,0,2.4,0.1,2.8,0.2c0.7,0.1,2.1,0.1,6.3,0.3c1.2,0,2.5,0.1,3,0.2l0.8,0.1l0.3,1.1c0.4,1.9,0.3,2.8-0.3,1.6
		c-0.5-1-0.8-1.1-3.8-1.2c-1.8,0-2.8,0-3,0.1c-0.4,0.2-0.7,0.8-0.9,1.7l-0.1,0.6l-0.2-1.2c-0.3-1.3-0.7-2-1.6-2.6
		c-0.5-0.3-0.9-0.4-3.3-0.6c-6.2-0.4-7.4-0.5-7.4-0.6C141.7,83.6,142.5,83.6,145.1,83.8L145.1,83.8z M134.9,84.8v0.4l-5.2-0.1
		c-4.3-0.1-6.1,0-10.2,0.3c-2.7,0.2-8.3,0.5-12.5,0.7c-4.2,0.2-8.1,0.4-8.8,0.5L97,86.7l-0.8,5.2c-0.5,2.9-1,6.4-1.3,7.9
		c-0.3,1.5-0.4,2.9-0.4,3.3c0.1,0.8-0.1,0.7,2.7,0.7c1.2,0,1.9,0,1.9,0.1c0,0.1-0.8,0.2-2.3,0.2c-2.1,0-2.3,0-2.6-0.3
		c-0.4-0.4-0.3-1,0.2-4.4c0.2-1.2,0.7-4.3,1.2-6.8c0.4-2.5,0.8-4.9,0.9-5.3l0.2-0.7l-0.8,0c-0.6,0-0.7,0-0.4-0.1
		c0.5-0.2,4.8-0.6,9.7-0.9c2.4-0.1,6.8-0.4,9.7-0.6c5.4-0.3,12.1-0.5,17.3-0.6l2.7,0L134.9,84.8L134.9,84.8z M140.5,84.6
		c-0.6,0.1-1,0.2-1.2,0.5c-0.2,0.2-0.4,0.3-0.5,0.3c-0.1,0-0.3,0-0.5,0.1c-0.4,0.2-0.3-0.3,0.2-0.7c0.4-0.3,0.6-0.3,1.7-0.3l1.3,0
		L140.5,84.6L140.5,84.6z M151.7,85.2c0.8,0.3,1.4,0.8,1.7,1.5c0.2,0.5,0.3,1.4,0.5,4.4c0.1,3.3,0.4,9,0.7,13.8l0.1,1.5h-2.9
		c-1.6,0-4.3,0-6.1,0.1c-1.8,0-3.2,0-3.2,0c0-0.1,0.4-0.8,1-1.7l1-1.5l4.2-0.1c2.3,0,4.4-0.1,4.6-0.2c0.6-0.2,0.7-1,0.6-3.7
		c-0.1-1.3-0.2-4.2-0.3-6.4c-0.2-4.5-0.4-5.8-1-6.4c-0.4-0.4-0.5-0.4-2.8-0.6c-1.3-0.1-2.5-0.2-2.6-0.2c-0.3-0.2-2.1-0.3-2.2-0.2
		c-0.2,0.3-0.3,0.2-0.4-0.1c0-0.2,0-0.3,0-0.4C144.6,84.7,151.3,85,151.7,85.2L151.7,85.2z M143.5,86c-0.8,0.3-1,0.7-1,1.7l0,0.8
		l-0.1-0.8c-0.1-0.5-0.2-0.9-0.2-1c-0.2-0.4-1.2-0.6-2.2-0.6c-1,0-1,0-1.3,0.5c-0.1,0.4-0.3,1.9-0.4,5c-0.1,2.5-0.2,5.2-0.3,6
		c-0.1,0.9,0,1.5,0,1.5c0.2,0,0.8-1.9,1.3-4.5c0.6-2.7,1.6-6.7,1.8-6.7c0.2,0,0.3,1.4,0.3,3.1c0,1.5,0,1.7-0.6,3.3
		c-0.3,0.9-1,2.8-1.5,4.3c-0.5,1.5-0.9,2.7-0.9,2.7c-0.1,0.2-0.3-0.3-0.4-1.1c-0.1-0.6-0.1-0.1-0.1,1.2c0,2,0.1,2.2,0.5,3.1l0.4,0.9
		l1.4-0.1c1-0.1,1.5-0.2,1.6-0.4c0.1-0.1,0.3-0.2,0.4-0.2c0.2,0,0.1,0.2-0.1,0.9l-0.4,0.8h-2.3h-2.3l0.1-2.1c0.1-1.2,0.2-5.7,0.2-10
		l0.1-7.9l0.5-0.4c0.5-0.4,0.5-0.4,3.3-0.4h2.8L143.5,86L143.5,86z M152.1,86.5c0.3,0.2,0.5,0.5,0.6,0.9c0.3,1,0.5,4.2,0.6,9.6
		l0.1,5.2l-0.4,0.3c-0.3,0.2-0.9,0.3-4.4,0.3c-3.4,0-4,0-4-0.2c0.1-0.2,2.5-0.4,6-0.4c1.6,0,1.6,0,1.9-0.5c0.3-0.4,0.3-0.7,0.3-2.6
		c0-2.5-0.3-9.8-0.4-11c-0.2-1.3-0.2-1.3-2.4-1.5c-1.1-0.1-1.9-0.2-1.9-0.3c0-0.1,0.7-0.1,1.8-0.1C151.3,86.2,151.8,86.3,152.1,86.5
		L152.1,86.5z M96.2,87.1c0.1,0.1-1.5,9.9-1.7,10.3c-0.1,0.3-2.1,0.2-2.1-0.1c0-0.2,0.2-0.2,0.7-0.2c1.3,0.1,1.2,0.2,1.3-4.5
		c0-4.8,0.1-4.6-1.4-4.6c-0.9,0-1-0.2-0.6-0.7c0.2-0.2,0.5-0.3,2-0.3C95.4,87,96.2,87,96.2,87.1C96.2,87.1,96.2,87.1,96.2,87.1z
		 M160,87.3c0.6,0.1,1.1,0.2,1.2,0.3c0.2,0.2,0.3,1.9,1,11.5c0.1,1.5,0.2,1.5-3.3,1.5l-3,0l-0.2-0.6c-0.2-0.7-0.4-2.4-0.7-8.5
		c-0.1-2.6-0.2-4-0.1-4.2C155,87.1,158.4,87,160,87.3L160,87.3z M161.9,87.7c0.3,0.4,0.5,1.7,0.7,5.3c0.5,7.4,0.5,8.8-0.1,9.4
		c-0.2,0.2-6.7,0.3-6.9,0.1c-0.1-0.1-0.2-0.4-0.3-0.7c-0.1-0.5-0.1-0.5,0.2-0.4c0.2,0.1,1.7,0.2,3.3,0.2l3,0l0.4-0.6l0.4-0.6
		l-0.2-3.7c-0.3-5.7-0.5-7.8-0.8-8.6C161.4,87.4,161.5,87.2,161.9,87.7L161.9,87.7L161.9,87.7z M101.6,88.6l0.5,0.1l0.1,5.8
		c0.1,4.6,0.1,5.8-0.1,5.9c-0.1,0.1-1,0.1-2.1,0.1c-2.1,0-2,0.3-1.7-2.2c0.2-2.1,0.4-3.3,1-6.2C100,88.8,100.3,88.3,101.6,88.6
		L101.6,88.6z M113,89c0.1,0.2,0.1,2.5,0.1,5.2l0,4.9l-1.3,0.2c-0.8,0.1-1.6,0.3-2.1,0.6c-0.7,0.3-1,0.4-3.4,0.5l-2.6,0.1l-0.1-5.2
		c-0.1-5.2-0.1-5.7,0.4-6.3c0.1-0.2,1.2-0.2,4.6-0.2C112.5,88.7,112.9,88.7,113,89z M154.8,95c0.4,7.7,0.4,7.5,0.9,7.9
		c0.3,0.2,0.8,0.2,3.5,0.1c1.7,0,3.3-0.1,3.4-0.2c0.4-0.1,0.7-0.7,0.7-1.2c0-0.2,0.1-0.4,0.1-0.4c0.2,0,0.3,4.6,0.2,4.8
		c0,0.1-2,0.2-4.4,0.2l-4.3,0.1l-0.1-2.7c0-1.5-0.2-3.8-0.3-5.1c-0.3-4.4-0.5-9.4-0.4-9.5C154.4,88.7,154.4,88.7,154.8,95L154.8,95z
		 M140.3,97.4c-0.7,2-1.3,3.7-1.3,3.8c-0.4,0.4-0.2-0.2,0.5-2.4c0.4-1.3,0.8-2.5,0.8-2.6c0-0.1,0.3-0.9,0.6-1.7
		C141.9,91.9,141.6,93.6,140.3,97.4C140.3,97.4,140.3,97.4,140.3,97.4z M151.4,95.3c0,0.5,0.1,2.1,0.1,3.4v2.4l-0.8-0.1
		c-0.5-0.1-0.9-0.1-0.9-0.2c0,0,0.9-5.1,1.2-6.2C151.1,94.1,151.3,94.3,151.4,95.3z M134.5,100.1c-0.1,0.2-0.9,0.2-3.5,0.3
		c-1.9,0-3.4,0.1-3.4,0c-0.2-0.2,0.4-0.3,2.5-0.4C134,99.9,134.6,99.9,134.5,100.1L134.5,100.1z M93.8,102c0,0.5-0.1,0.9-0.2,1
		c-0.1,0.1-0.4-0.1-0.7-0.4c-0.4-0.3-0.6-0.6-0.6-0.9c0-0.6,0.1-0.7,0.9-0.6l0.6,0C93.9,101.1,93.8,102,93.8,102z M142.9,101.6
		c0,0.2,0.9,0.8,0.9,0.6c0-0.1,0.1,0,0.1,0.1c0.2,0.3,0.1,0.5-0.5,0.5c-0.4,0-0.5,0.1-0.7,0.6c-0.3,0.7-0.5,0.7-0.3,0.1
		c0-0.3,0-0.5-0.1-0.5c-0.1,0-0.2-0.1-0.2-0.2c0-0.1,0.1-0.1,0.2-0.1c0.1,0.1,0.2-0.2,0.2-0.6c0-0.4,0.1-0.7,0.2-0.7
		C142.9,101.3,142.9,101.4,142.9,101.6L142.9,101.6z M140.8,103.1c0.2,0.3-0.4,0.6-1.2,0.6c-0.7,0-1.3-0.2-1.1-0.4
		c0,0,0.5-0.1,1-0.2c0.5-0.1,1-0.2,1.1-0.2C140.7,102.9,140.7,103,140.8,103.1L140.8,103.1z M142.3,103.3c0,0.1-0.2,0.5-0.5,0.7
		c-0.4,0.4-0.5,0.5-1.6,0.4c-1.5-0.1-1.4-0.3,0.1-0.4c1.1,0,1.2-0.1,1.5-0.5C142.3,103,142.3,103,142.3,103.3z M108.8,104
		c0,0.2-0.2,0.2-2.2,0.2c-1.2-0.1-2.9-0.1-3.7-0.1c-0.9,0-1.5-0.1-1.5-0.2s1.3-0.2,3.7-0.2C108.4,103.7,108.8,103.7,108.8,104z
		 M121.1,104c0,0.2-0.9,0.2-4.3,0.2c-4.5,0-6.1-0.1-6-0.3c0-0.1,2.4-0.1,5.2-0.1C119.8,103.8,121,103.8,121.1,104L121.1,104z
		 M93.9,104.8c0.1,0.1,1.7,0.2,4.2,0.2c3.7,0,3.8,0,1.6,0.1l-2.4,0.1l0,0.7l0,0.7h-1.5c-1,0-1.6-0.1-1.8-0.2
		c-0.2-0.2-0.5-1.4-0.3-1.6C93.6,104.6,93.8,104.6,93.9,104.8L93.9,104.8L93.9,104.8z M122.4,104.9c0,0.1-0.9,0.2-2.4,0.2
		c-1.3,0-2.4,0.1-2.5,0.2c-0.1,0.1-0.1,0.4-0.1,0.7l0,0.6h-7.6c-6.9,0-7.6,0-7.6-0.3c0-0.3,0.3-1.2,0.4-1.2c0,0,0.5,0.2,1.1,0.5
		c1.4,0.6,2.1,0.4,1-0.3l-0.5-0.3h3.8c3.4,0,3.9,0,4.4,0.3c1,0.5,2.3,0.9,2.4,0.8c0,0-0.1-0.3-0.3-0.6c-0.3-0.4-0.3-0.5-0.1-0.6
		c0.2-0.1,7-0.2,7.9-0.2C122.4,104.7,122.4,104.8,122.4,104.9L122.4,104.9z M125,105.4c1.2,0.6,2.1,0.7,2.4,0.3
		c0.1-0.2,0.1-0.3-0.1-0.5c-0.3-0.2-0.1-0.2,1.6-0.2l1.9,0v0.7c0,0.6,0,0.8-0.3,0.8c-0.6,0.2-7.2,0.1-7.3-0.1
		c-0.1-0.2,0.6-1.6,0.8-1.6C123.9,105,124.5,105.2,125,105.4z M121.2,106.1c0.3,0.6,0.2,0.7-1.2,0.6l-1,0l0.3-0.4
		c0.3-0.4,0.6-0.5,1.3-0.6C120.8,105.6,121.1,105.8,121.2,106.1z M100.5,106c0.4,0.4,0.3,0.6-0.6,0.5c-1-0.1-1.2-0.5-0.3-0.6
		c0.3-0.1,0.6-0.1,0.6-0.1C100.2,105.8,100.4,105.9,100.5,106z M163.9,108.5c0,1.5-0.1,2.2-0.2,2.3c-0.3,0.1-8.2,0.5-8.4,0.4
		c0,0-0.1-1.1-0.2-2.3l0-2.2l1.7-0.1c0.9,0,2.9-0.1,4.4-0.1l2.7,0L163.9,108.5L163.9,108.5z M154.8,109c0,1.2,0,2.3,0,2.3
		c0,0-1.6,0.1-3.4,0.1c-1.8,0-5.7,0.1-8.6,0.2c-2.9,0.1-5.3,0.2-5.3,0.2c0,0-0.1-1.1-0.1-2.4l-0.1-2.4l1.3-0.1
		c0.7-0.1,1.7-0.1,2.2-0.1c0.8,0,0.8,0,0.8,0.5v0.5h-0.9h-0.9v1.5v1.5h1.2c1.5,0,1.9-0.2,2.2-0.9c0.4-0.9,0.3-1.3-0.3-1.9
		c-0.4-0.4-0.5-0.6-0.4-0.8c0.1-0.3,0.2-0.3,3.8-0.4c2.1,0,4.8,0,6.1,0h2.4C154.7,106.8,154.8,109,154.8,109z M112.4,107h18.2v2.4
		v2.4l-17.2,0c-9.5,0-17.8-0.1-18.5-0.1c-1.5-0.1-1.4,0.1-1.4-2.8c0-1.7,0.1-2,0.3-1.9C94,107,102.3,107,112.4,107L112.4,107z
		 M136.5,107c0,0.1,0.1,1.2,0.2,2.5l0.1,2.3h-2.8h-2.9v-2.4c0-1.3,0-2.4,0-2.4c0,0,1.1-0.1,2.5-0.1c1.3,0,2.5-0.1,2.7-0.1
		C136.4,106.9,136.5,107,136.5,107L136.5,107z M231.7,107.6c0,0.2-6.2,0.3-30.1,0.8c-4.7,0.1-13.1,0.3-18.8,0.4
		c-12.1,0.3-13.6,0.3-13.4,0.1c0.2-0.1,7.9-0.3,27.8-0.6c11.9-0.2,31.2-0.6,31.5-0.7C229.2,107.5,231.7,107.5,231.7,107.6
		L231.7,107.6z M140.4,109.2c0,0.9-0.1,1.1-0.3,1.1c-0.3,0-0.3-0.1-0.3-1c0-1,0.1-1.2,0.5-1.2C140.4,108.1,140.4,108.6,140.4,109.2
		L140.4,109.2z M230.1,110l0,1.7l-9.2,0.4c-5,0.2-9.5,0.4-9.9,0.4c-0.4,0-1.7,0.1-2.9,0.1l-2.1,0.1l-0.1-1.8c0-1,0-1.9,0-1.9
		c0-0.1,1.8-0.1,4-0.1c2.2,0,4,0,4.1-0.1c0,0,3.1-0.1,6.8-0.2c3.7-0.1,6.7-0.1,6.8-0.2c0,0,0.6-0.1,1.3-0.1h1.2L230.1,110L230.1,110
		z M203.1,109.8c0,0.5,0,1.4,0.1,2l0.1,1l-1.6,0.1c-0.9,0.1-3.9,0.2-6.6,0.3c-8.1,0.4-14.2,0.7-18.6,0.9c-2.3,0.1-4.5,0.2-5,0.2
		h-0.9v-2.4v-2.4l1-0.1c0.5,0,4.7-0.2,9.2-0.3c4.5-0.1,10.1-0.2,12.4-0.3c2.3-0.1,5.5-0.1,7.1-0.1l2.9,0V109.8z M204.9,111.2
		c0,1.2,0,2.2-0.1,2.2c-0.1-0.2-0.2-4.4-0.1-4.4C204.8,108.9,204.9,109.8,204.9,111.2z M204,109.2c0.2,0.1,0.3,2.4,0.2,6.1
		c0,1.4-0.1,1.8-0.3,1.8c-0.2,0.1-0.2-0.3-0.2-2.9c0-1.7,0-3.5-0.1-4.1C203.6,109.1,203.6,108.9,204,109.2
		C204,109.2,204,109.2,204,109.2z M170,112.6c0,1.7-0.1,3-0.1,3.1c0,0-0.1,0-0.2-0.1c-0.1-0.1-0.2-1.1-0.2-3.1c0-2.8,0-3,0.3-3
		C170,109.6,170,109.9,170,112.6z M168.8,116.2c0,5.7,0,6.5-0.2,6.5c-0.2,0-0.2-0.8-0.2-6.5c0-5.7,0-6.5,0.2-6.5
		C168.8,109.7,168.8,110.5,168.8,116.2z M205.5,113.5c0.1,3,0.1,3.4-0.1,3.3c-0.1-0.2-0.3-6.5-0.1-6.5
		C205.4,110.3,205.5,111.6,205.5,113.5z M163.9,114.4c0.1,1.8,0.1,3.3,0,3.3c-0.2,0.1-5.2,0.5-7.2,0.5h-1.4v-3.2c0-1.7,0-3.2,0-3.3
		c0-0.1,0.8-0.2,1.8-0.2c5.4-0.3,6.3-0.4,6.5-0.4C163.7,111.2,163.7,111.7,163.9,114.4L163.9,114.4z M154.8,112.9
		c0,1.2,0,1.2-0.4,1.2c-0.2,0-0.4,0-0.5,0c-0.1,0-0.2-0.2-0.2-0.4c-0.1-0.4-0.2-0.5-0.6-0.6c-0.3,0-0.7-0.1-1,0
		c-0.5,0.1-0.6,0.3-0.5,0.9c0,0.1-0.1,0.2-0.3,0.2c-0.3,0-0.4,0.1-0.4,0.6c0,0.4,0.1,0.6,0.3,0.5c0.2,0,0.3,0.1,0.3,0.3
		c0,0.2,0.1,0.5,0.2,0.6c0.2,0.3,0.3,0.3,1.1,0.2c0.8-0.1,0.9-0.2,0.9-0.5c0-0.5,0.5-1.1,0.8-1c0.3,0,0.3,0.1,0.3,1.6v1.6l-2.8,0.1
		c-5.3,0.2-5.1,0.1-5.6,3.2c-0.2,1.2-0.4,2.2-0.5,2.3c-0.1,0.1-1.8,0.3-4.1,0.4c-0.8,0-2,0.2-2.7,0.3c-0.7,0.1-1.5,0.1-1.7,0.1h-0.4
		l0-6.2l0-6.2h0.5c0.3,0,1,0,1.7-0.1c2.4-0.1,5.4-0.2,9.1-0.3c2-0.1,3.7-0.1,3.8-0.2c0,0,0.6-0.1,1.3-0.1h1.2L154.8,112.9
		L154.8,112.9L154.8,112.9z M97.2,117.2c0,2.9,0.1,5.4,0.2,5.7l0.1,0.5l-0.9,0l-0.9,0l-1-1.7l-1-1.7l-0.1-3.9l-0.1-3.9l0.7-0.1
		c0.4,0,1.2-0.1,1.8-0.1l1.1,0L97.2,117.2L97.2,117.2z M110.1,112.4c0.1,0.1,0.2,0.6,0.2,1.1c0.1,0.9,0.1,1-0.3,1.4
		c-0.4,0.5-1.2,0.5-1.4,0.1c-0.1-0.1-0.2-0.6-0.3-1l-0.1-0.7l-2.9-0.1c-1.6,0-3.8-0.1-4.8-0.2c-1.6-0.1-1.9,0-2.1,0.2
		c-0.3,0.2-0.3,0.7-0.2,4.8c0,2.5,0.1,4.6,0.2,4.6c0.1,0.1,24.2,1,24.3,0.9c0.2-0.1-0.1-9.1-0.3-9.8c-0.1-0.2-0.9-0.2-5.9-0.2
		c-5.7,0-5.8,0-5.8-0.3c0-0.2,0-0.4,0.1-0.6c0.1-0.3,0.5-0.3,6.1-0.3l5.9,0l0.3,0.4c0.2,0.4,0.3,1.1,0.3,6.1c0,3.6,0.1,5.8,0.2,5.8
		c0.2,0,0.3-8.8,0.1-10.4c-0.1-0.7-0.2-1.4-0.3-1.6c-0.1-0.3,0-0.3,3.5-0.3c2,0,3.6,0.1,3.6,0.1c0,0,0.1,2,0.2,4.4l0.1,4.3l-0.6,0.5
		c-0.3,0.3-1.2,1.2-2.1,1.9l-1.5,1.4l-1.8,0c-1,0-3.5-0.1-5.7-0.2c-2.1-0.1-7.9-0.3-12.7-0.5c-4.9-0.2-8.9-0.4-9-0.5
		c-0.1-0.1-0.2-2.6-0.3-5.7c-0.1-4.2-0.1-5.6,0-5.8c0.2-0.2,1.1-0.2,6.4-0.1C107.2,112.2,110,112.3,110.1,112.4L110.1,112.4z
		 M230,113.7l0,1.6l-1.4,0.1c-0.8,0-3.5,0.2-6,0.3c-2.5,0.1-5,0.3-5.6,0.3c-1.5,0.1-6.4,0.4-8.8,0.5l-2.1,0.1V115
		c0-1.7,0-1.8,0.4-1.8c0.2,0,3.7-0.2,7.9-0.4c4.1-0.2,8.6-0.4,10-0.4c1.3-0.1,3.2-0.1,4.2-0.1l1.7,0L230,113.7L230,113.7L230,113.7z
		 M135.1,112.4c0.8,0,1,0.1,1.1,0.3c0.3,0.6,0.5,3.1,0.5,4.7v1.7l-2,2.1c-1.1,1.1-2,2.1-2,2.2c0,0,0.7,0,1.6,0c1.9-0.1,2,0,1.7,1
		l-0.2,0.7l-2,0l-2,0l0-5.8c0-5.7,0-5.8-0.3-6.3c-0.2-0.3-0.3-0.5-0.2-0.6c0-0.1,0.7-0.1,1.4-0.1
		C133.6,112.4,134.6,112.4,135.1,112.4L135.1,112.4z M92.8,117.6c0,3.3,0,5-0.2,5c-0.1-0.1-0.2-1.9-0.2-5.1c0-3.2,0.1-5,0.2-5
		C92.8,112.5,92.8,114.3,92.8,117.6z M203.2,115.2l0,2l-0.6,0.1c-0.3,0-4.3,0.3-8.8,0.6c-9.8,0.7-18.7,1.3-21.1,1.5
		c-0.9,0.1-1.8,0.1-2,0.1c-0.2,0-0.2-0.4-0.2-2.2c0-1.2,0-2.2,0.1-2.2c0,0,6.7-0.4,12.4-0.6c2.8-0.1,5-0.3,5.7-0.3
		c0.3,0,2.7-0.2,5.2-0.3c4.5-0.3,8.2-0.5,8.9-0.5C203.1,113.2,203.1,113.2,203.2,115.2L203.2,115.2z M131.7,118.5
		c0,5.8-0.2,7.3-0.3,2.2c-0.2-5.4-0.1-7.2,0.1-7.1C131.6,113.6,131.7,114.8,131.7,118.5L131.7,118.5z M152.8,114.1
		c-0.1,0.2-0.9,0.2-0.9,0c0-0.2,0.6-0.3,0.8-0.2C152.8,114,152.9,114.1,152.8,114.1z M152.7,115.6c0,0.1-0.1,0.2-0.4,0.2
		c-0.3,0-0.4-0.1-0.4-0.2c0-0.1,0.1-0.2,0.4-0.2C152.6,115.4,152.7,115.5,152.7,115.6z M169.6,118c0,2.4-0.2,4.8-0.3,4.7
		c0,0-0.1-1.6,0-3.6c0-2.2,0.1-3.5,0.2-3.4C169.6,115.8,169.6,116.8,169.6,118L169.6,118z M230.1,116.6c0,0.5-0.1,0.9-0.2,0.9
		c-0.2,0-2.4,0.2-11.5,1c-3.2,0.3-3.2,0.3-3.6-0.1c-1.5-1.2-3.1-1.1-4.4,0.3c-0.7,0.7-0.5,0.6-3.8,0.9l-1.2,0.1v-1v-1l0.6-0.1
		c0.3-0.1,0.6-0.2,0.6-0.3c0-0.4,0.3-0.1,0.3,0.3c0,0.4,0.1,0.4,0.6,0.5c0.7,0.1,1.1-0.2,1.1-0.6c0-0.2,0.1-0.3,0.1-0.4
		c0.1-0.1,2.6-0.3,4.9-0.4c0.7,0,0.7,0,0.7,0.4c0,0.4,0,0.4,0.7,0.5c0.9,0.1,1.2,0,1.1-0.5c0-0.2,0-0.5,0-0.5c0-0.1,1.1-0.2,2.4-0.3
		l2.3-0.1v0.5c0,0.4,0,0.5,0.5,0.5c0.7,0,1.2-0.3,1.3-0.7c0-0.3,0.2-0.4,1-0.5c0.5-0.1,1.6-0.1,2.4-0.1c1.4,0,1.5,0,1.5,0.3
		c0,0.3,0.2,0.4,0.6,0.4c0.6,0.1,1.2-0.2,1.2-0.5c0-0.2,0.2-0.3,0.8-0.4C230.1,115.7,230.1,116.1,230.1,116.6L230.1,116.6
		L230.1,116.6z M203.4,118.7c0,0.7,0,1.3-0.1,1.3c-0.2,0-18.1,1.5-26.1,2.1c-3.6,0.3-6.6,0.6-6.7,0.6c-0.1,0-0.1-0.7-0.1-1.5l0-1.5
		l0.9,0c0.9,0,0.9,0.1,1,0.4c0.1,0.3,0.2,0.4,0.9,0.4c0.8,0,1.2-0.1,1.2-0.6c0-0.4,0.1-0.4,1.7-0.5c0.7,0,2.2-0.2,3.2-0.2
		c1-0.1,2.1-0.2,2.4-0.2c0.6,0,0.6,0,0.5,0.4c-0.1,0.4-0.1,0.4,0.9,0.4c1.2,0,1.3-0.1,1.4-0.6c0.1-0.4,0.2-0.5,4.8-0.7l2.1-0.1
		l0.1,0.4c0,0.4,0.6,0.6,1.5,0.4c0.4-0.1,0.5-0.2,0.5-0.4c0-0.2,0-0.3,0.1-0.4c0.1,0,1.2-0.2,2.6-0.3c1.4-0.1,2.7-0.3,3-0.3
		c0.4-0.1,0.5,0,0.6,0.3c0,0.4,0.1,0.4,0.7,0.5c0.7,0,1.1-0.2,1.1-0.6c0-0.2,0.1-0.3,0.6-0.3c0.3,0,0.7-0.1,0.8-0.1
		C203.4,117.4,203.4,117.8,203.4,118.7L203.4,118.7L203.4,118.7z M204.2,118.6c0,0.9,0,1.2-0.2,1.2s-0.2-0.2-0.2-1.1
		c0-0.6,0-1.1,0.1-1.2C204.1,117.3,204.2,117.5,204.2,118.6z M110.3,118.7c1.4,0,2.1,0.1,2.1,0.2c0,0.2-11.6,0-13-0.2
		c-0.5-0.1,1.2-0.1,4-0.1C106.1,118.7,109.2,118.7,110.3,118.7z M118.6,119c1.9,0,3.4,0.1,3.4,0.2c0,0.1-1.7,0.1-3.8,0.1
		c-3,0-3.8,0-3.8-0.2c0-0.3,0.2-0.4,0.5-0.3C115.1,118.9,116.8,118.9,118.6,119L118.6,119z M110.5,119.5c0.8,0.1,1.2,0.1,1,0.2
		c-0.4,0.2-8.6-0.1-8.6-0.3C102.8,119.3,108.3,119.3,110.5,119.5L110.5,119.5z M205.6,120.8c0.5,0.2,0.8,0.5,0.8,0.6
		c0,0.2-0.3,0.3-2.5,0.4c-1.4,0.1-3.1,0.2-3.9,0.2l-1.4,0.1l0.1,4.9c0,3.6,0,4.9-0.1,4.9c-0.1,0-0.2,0-0.2-0.1c0-0.1,0-2.3-0.1-4.9
		l-0.1-4.8l0.5-0.2c0.3-0.1,1.5-0.2,2.8-0.3c2.5-0.1,4.5-0.3,3.4-0.4c-0.9,0-5.8,0.3-6.3,0.4c-0.4,0.1-0.4,0-0.4-0.3
		c0-0.9,1-1.1,5-1C204.5,120.4,205,120.5,205.6,120.8L205.6,120.8L205.6,120.8z M122,120.6c0.1,0.1,0.1,0.2,0,0.2
		c-0.1,0.1-7.4-0.1-7.4-0.3C114.7,120.4,121.9,120.4,122,120.6z M208.3,122c-0.3,0.8-0.7,1.9-0.8,2.5c-0.1,0.6-0.4,1.1-0.5,1.2
		c-0.3,0.2-0.3,0,0-1.2c0.2-1,1.6-4.1,1.7-4C208.8,120.5,208.6,121.2,208.3,122L208.3,122z M192.6,121.5c0.2,0.4,0.1,3.9-0.1,3.9
		c-0.1,0-0.2-0.5-0.2-1.2c0-0.7,0-1.6-0.1-2.1c-0.1-0.5,0-0.8,0.1-0.8C192.4,121.2,192.6,121.3,192.6,121.5L192.6,121.5z M175,124.9
		c0,2-0.1,2.8-0.4,2.1c0-0.1-0.1-1.2-0.1-2.3c0-1.7,0-2,0.2-2C175,122.7,175,123,175,124.9L175,124.9z M220.5,124
		c0,0.5-0.2,1-0.4,0.8c-0.1-0.2,0.1-1.2,0.3-1.2C220.4,123.6,220.5,123.8,220.5,124L220.5,124z M97.9,124.1c1.6,0.1,4.7,0.2,6.9,0.3
		c2.2,0.1,7.2,0.3,11.1,0.5c3.9,0.2,8.7,0.3,10.6,0.4c4.4,0.1,4.6,0.1,4.9,0.6c0.1,0.2,0.2,0.4,0.2,0.5c0,0.1-12.4-0.1-16.1-0.2
		c-8.2-0.3-19.6-1.1-20.5-1.3c-0.6-0.2-0.9-0.5-0.8-0.8C94.3,123.9,94.3,123.9,97.9,124.1z M145.4,124.9c-0.2,0.3-0.4,0.6-0.5,0.6
		c-0.1,0-1.3,0.2-2.8,0.3c-1.5,0.1-3.2,0.3-4,0.3c-0.7,0.1-1.3,0.1-1.4,0c0-0.1,0-0.3,0.1-0.5c0.2-0.5,0.2-0.5,4.6-0.8
		c1.7-0.1,3.1-0.3,3.1-0.3c0,0,0.3-0.1,0.6-0.1h0.5L145.4,124.9L145.4,124.9z M98.7,126.1c0.1,0.6,0.1,0.6-1.7,0.3
		c-1.6-0.3-1.9-0.4-1.9-0.7c0-0.2,1.2-0.3,2.6-0.2C98.6,125.6,98.6,125.6,98.7,126.1z M136.4,125.8l-0.3,0.5h-1.8c-1,0-1.9,0-2,0.1
		c-0.2,0.1-0.8-0.8-0.6-0.9c0,0,1.2-0.1,2.5-0.1h2.4L136.4,125.8L136.4,125.8z M101.4,126.2c0,0.4,0,0.4-1.1,0.4
		c-0.6,0-1.1,0-1.1-0.1c0-0.3,0.8-0.7,1.5-0.7C101.3,125.8,101.4,125.8,101.4,126.2L101.4,126.2z M144.9,126.3
		c0,0.2-0.1,0.5-0.1,0.6c0,0.1-0.1,0.2-0.2,0.2c-0.2,0-0.2-0.8,0-1C144.8,125.8,145,126,144.9,126.3z M196.9,126.7l0,0.8l-7.1,0.7
		c-9.8,1-19.7,2-20.2,2.1c-0.5,0-0.5,0-0.5-0.6c0-0.4,0-0.7,0-0.7c0.2,0,26.9-3,27.3-3l0.6,0L196.9,126.7L196.9,126.7z M144.3,127
		c0,0.2,0.2,0.4,0.4,0.4c0.3,0,0.4,0.2,0.4,0.5c0,0.4,0,0.4-0.8,0.4l-0.8,0l-0.1-0.7c-0.1-0.6-0.1-0.7,0.3-1
		c0.4-0.3,0.4-0.3,0.5-0.1C144.2,126.6,144.2,126.8,144.3,127L144.3,127z M123.8,126.7c0.4,0.1,0.5,0.2,0.5,0.5v0.4l-1.2,0
		c-1.1,0-1.2-0.1-1.2-0.4c0-0.2,0-0.4,0.1-0.5C122.2,126.6,123.2,126.6,123.8,126.7L123.8,126.7z M125.9,127.1
		c0.1,0.3,0.2,0.3,2.8,0.3c1.5,0,2.9,0,3.1,0.1c0.3,0.1,0.3,0,0.3-0.1c0-0.4,0.3-0.5,0.7-0.1c0.2,0.2,0.7,0.4,1.1,0.5
		c0.5,0.1-0.4,0.1-3.7,0.1c-2.4-0.1-4.5-0.1-4.5-0.2c-0.2-0.1-0.2-0.8,0-0.8C125.8,126.8,125.9,126.9,125.9,127.1L125.9,127.1z
		 M135.6,127c0.1,0.1,0.2,0.4,0.3,0.6c0.2,0.6-0.2,0.3-0.5-0.3C135.2,126.8,135.3,126.6,135.6,127z M142.8,127.5
		c0,0.3,0,0.7-0.1,0.8c-0.1,0.1-1,0.2-2.1,0.3c-1.6,0.1-2.1,0.1-2.3-0.1c-0.2-0.1-0.7-0.3-1.1-0.4c-0.4-0.1-0.8-0.2-0.8-0.3
		c0-0.1,0.4-0.2,1-0.2c0.5-0.1,1.9-0.2,3-0.3c1.1-0.1,2.1-0.2,2.1-0.2C142.7,126.9,142.8,127.2,142.8,127.5L142.8,127.5z M197.1,128
		c0,0.1,0,0.2-0.1,0.2c0,0-6.2,0.7-13.7,1.6c-7.5,0.9-13.8,1.6-13.9,1.6c-0.4,0-0.3-0.5,0.1-0.6c0.2,0,4.2-0.5,9-1
		c4.7-0.5,10.6-1.2,13.1-1.5C197,127.7,197.1,127.6,197.1,128L197.1,128L197.1,128z M94.7,128.9l1.7,0.2l0,2.5
		c0,1.4-0.1,2.5-0.1,2.6c-0.1,0.1-4.1-0.3-4.6-0.4c-0.2-0.1-0.5-0.2-0.5-0.4c-0.1-0.3,0.1-0.3,2.5,0c1,0.1,1.9,0.2,1.9,0.1
		c0.1,0,0.1-0.9,0.1-2c0-2.2,0.3-1.9-2.7-2.2c-1.1-0.1-2-0.2-2-0.2c0,0,0-0.2,0.1-0.3c0.1-0.2,0.3-0.3,1-0.2
		C92.5,128.6,93.7,128.8,94.7,128.9L94.7,128.9z M197,129.1c0.1,0.5,0.2,0.5-1.8,0.8c-1.2,0.2-1.4,0.1-1.4-0.6
		c0-0.3,0.1-0.4,1.3-0.5c0.7-0.1,1.4-0.2,1.5-0.2C196.8,128.7,196.9,128.8,197,129.1L197,129.1z M168.6,129.8c0.1,0.7,0,0.8-1,0.7
		c-0.7,0-0.7,0-0.7-0.7l0-0.7h0.9h0.9L168.6,129.8z M192.7,129.7c0.3,0.8,0.7,0.7-4.3,1.2c-1.9,0.2-4.6,0.5-6,0.7
		c-1.4,0.2-4.7,0.6-7.2,0.9c-2.5,0.3-4.9,0.6-5.3,0.6l-0.8,0.1v-0.7c0-0.7,0-0.7,0.6-0.7c0.6,0,4.1-0.5,14.9-1.8
		c3.4-0.4,6.6-0.8,7.1-0.8C192.5,129.3,192.6,129.3,192.7,129.7L192.7,129.7z M94.4,130.3c0,0.4,0,0.4-0.2,0.3
		c-0.2-0.1-0.3,0-0.5,0.2c-0.1,0.2-0.3,0.3-0.4,0.3s-0.2,0.2-0.2,0.4c0,0.3,0,0.3,0.2,0.3c0.1-0.1,0.3,0,0.3,0s0.2,0.2,0.4,0.3
		c0.5,0.1,0.5,0.3-0.1,0.4c-0.6,0.1-1.1-0.2-1.3-0.9c-0.1-0.5-0.1-0.7,0.3-1.2c0.4-0.6,0.5-0.6,1-0.6
		C94.3,129.8,94.4,129.9,94.4,130.3C94.4,130.3,94.4,130.3,94.4,130.3z M112.5,130.4c0,0.1,0.1,0.9,0.2,1.8l0,1.7l-3.2-0.1
		c-1.8,0-3.6-0.1-4.1-0.2l-0.9-0.1l0-1.8l0-1.8l4,0.1C110.6,130.2,112.4,130.3,112.5,130.4L112.5,130.4z M197,130.6
		c0,0.3,0.3,0.2-6,1c-7.2,0.9-19.7,2.4-20.7,2.6c-0.9,0.1-1.2,0.1-1-0.2c0.1-0.1,2.7-0.5,5.7-0.9c11-1.4,21.3-2.7,21.5-2.8
		C196.8,130.3,197,130.4,197,130.6z M136.5,131c0.7,0.2,0.9,0.7,0.8,2.8c0,1.4-0.1,2-0.3,2.3l-0.2,0.4l-4.9,0c-2.7,0-5.8-0.1-7-0.1
		l-2.1-0.1l0-2.7l0-2.7l6.7,0.1C133.1,130.8,136.2,130.9,136.5,131L136.5,131L136.5,131z M168.7,131.2c0,0.1-0.4,0.2-0.9,0.2
		c-0.5,0-0.9-0.1-0.9-0.2c0-0.1,0.4-0.2,0.9-0.2S168.7,131.1,168.7,131.2z M196.9,131.7l0,0.5l-3.5,0.5c-1.9,0.3-7.6,1.1-12.7,1.9
		l-9.2,1.4l-0.3-0.3c-0.2-0.3-0.4-0.3-1.2-0.2c-0.9,0.1-0.9,0.1-0.9-0.2c0-0.2,0-0.3,0-0.3c0.3-0.1,26.9-3.6,27.3-3.6
		C197,131.2,197,131.2,196.9,131.7L196.9,131.7z M92.6,132.3c0.1,0.4,0.1,0.5-0.6,0.4l-0.5,0l0.4-0.4
		C92.3,131.9,92.5,131.9,92.6,132.3L92.6,132.3z M206.4,133.5c0.1,0.5,0.5,1.4,0.7,1.8c0.6,1.2,0.3,1.2-0.3,0c-0.5-0.9-1-2.5-1-3.1
		c0-0.3,0-0.3,0.1,0C206,132.4,206.2,133,206.4,133.5z M168.7,132.3c0,0.8-0.2,0.9-1,0.9h-0.8v-0.6v-0.6h0.9
		C168.4,132.1,168.7,132.2,168.7,132.3L168.7,132.3z M202.7,133c0.3,1.2,1.2,3.1,1.6,3.3c0.2,0.1,0.5,0.4,0.6,0.7
		c0.2,0.5,0.2,0.5,0,0.5c-0.2,0-1-0.8-1.4-1.5c-0.3-0.5-1-2.5-1.1-3.4C202.1,131.8,202.4,132.1,202.7,133L202.7,133z M205.7,135.1
		c0.3,0.5,0.6,1.1,0.8,1.2c0.2,0.2,0.2,0.3,0,0.2c-0.4-0.1-1.6-2.3-1.8-3.3c-0.1-0.5-0.1-1,0-1.1c0-0.1,0.2,0.3,0.3,0.9
		C205.1,133.7,205.3,134.5,205.7,135.1L205.7,135.1z M201.4,133.6c0.1,0.5,0.5,1.4,0.8,1.9c0.6,1.2,0.6,1.5-0.1,0.4
		c-0.6-0.9-0.9-2-1.1-2.9C200.8,132.1,201.1,132.5,201.4,133.6L201.4,133.6L201.4,133.6z M197.1,132.9c0,0.2-0.1,0.3-0.5,0.4
		c-1.6,0.3-23.3,3.4-24.2,3.5c-0.7,0.1-0.8,0-0.8-0.2c0-0.2,0.1-0.3,0.2-0.3c0.4,0,22.2-3.2,23.5-3.5
		C196.7,132.5,197.1,132.6,197.1,132.9L197.1,132.9L197.1,132.9z M200.3,133.4c0.1,0.5,0.2,1,0.3,1.2c0.1,0.2,0,0.3,0,0.3
		c-0.2-0.2-0.7-2.3-0.5-2.3C200,132.6,200.2,133,200.3,133.4L200.3,133.4z M199,133.4c0,0.3,0.3,1,0.7,2c0.2,0.5,0.2,0.6,0,0.4
		c-0.3-0.3-1.2-3-0.9-2.8C199,133.1,199,133.2,199,133.4z M204,134.3c0.2,0.4,0.5,1.1,0.8,1.5c0.3,0.4,0.5,0.8,0.5,0.9
		c-0.2,0.2-1.4-1.8-1.8-3C203.3,133,203.7,133.6,204,134.3L204,134.3z M168.7,134.1c0,0.1-0.4,0.2-0.8,0.2c-0.6,0-0.8,0-0.8-0.2
		c0-0.2,0.2-0.2,0.8-0.2C168.4,133.9,168.7,134,168.7,134.1z M168.7,135.4c0,0.3-0.1,0.4-0.8,0.4c-0.7,0-0.8,0-0.8-0.3
		c0-0.4,0-0.4,0.9-0.4C168.6,135,168.7,135.1,168.7,135.4z M146.5,144.5c0.5,0.7,0.5,0.9,0,0.4c-0.4-0.4-1.5-2.2-1.5-2.4
		c0-0.1,0.2,0.2,0.5,0.6C145.8,143.5,146.2,144.2,146.5,144.5z M144.2,144.7c0.4,0.3,0.6,0.7,0.6,0.8c0,0.2-1.6-1.3-1.8-1.8
		c-0.4-0.8-0.4-1.1,0-0.4C143.3,143.7,143.8,144.4,144.2,144.7z M147.4,143.5c0.2,0.3,0.6,0.9,0.9,1.3c0.4,0.5,0.5,0.6,0.2,0.5
		c-0.3-0.2-1.6-2-1.6-2.3C146.9,142.8,147,142.9,147.4,143.5L147.4,143.5z"/>
</g>
</svg>
