<?xml version="1.0" encoding="UTF-8"?>
<!DOCTYPE svg PUBLIC "-//W3C//DTD SVG 1.0//EN" "http://www.w3.org/TR/2001/REC-SVG-20010904/DTD/svg10.dtd">
<!-- Creator: CorelDRAW -->
<svg xmlns="http://www.w3.org/2000/svg" xml:space="preserve" width="84mm" height="53mm" version="1.0" style="shape-rendering:geometricPrecision; text-rendering:geometricPrecision; image-rendering:optimizeQuality; fill-rule:evenodd; clip-rule:evenodd"
viewBox="0 0 8400 5300"
 xmlns:xlink="http://www.w3.org/1999/xlink"
 xmlns:xodm="http://www.corel.com/coreldraw/odm/2003">
 <defs>
  <style type="text/css">
   <![CDATA[
    .fil0 {fill:black;fill-rule:nonzero}
   ]]>
  </style>
 </defs>
 <g id="Слой_x0020_1">
  <metadata id="CorelCorpID_0Corel-Layer"/>
  <path class="fil0" d="M5072.99 2175.71c-143.24,5.58 -291.49,15.05 -390.15,25.09 -42.91,4.45 -145.46,14.49 -228.51,22.29 -82.49,7.8 -221.83,24.52 -309.33,36.79 -87.51,12.25 -164.42,23.4 -171.11,23.96 -16.72,1.67 -103.12,77.47 -176.68,154.39 -84.16,87.5 -207.9,240.21 -249.7,306.54 -35.67,57.41 -38.46,60.2 -81.38,71.9 -21.17,5.57 -27.31,10.59 -46.81,42.36 -17.83,28.43 -28.43,39.01 -48.49,48.49 -23.41,11.15 -25.64,14.5 -26.2,32.32 -0.56,11.15 -5.57,26.76 -10.59,35.12 -5.57,7.8 -7.24,14.49 -4.46,14.49 2.23,0 49.61,-3.35 104.79,-7.8 175.56,-13.94 321.03,-22.86 624.23,-36.79 70.79,-3.34 171.11,-8.36 222.95,-11.7 52.39,-3.34 161.07,-6.13 242.45,-6.13 131.53,-0.56 153.27,1.11 198.97,11.7 65.21,15.05 66.33,15.05 70.23,-3.9 1.66,-8.36 8.36,-27.31 14.49,-41.8l11.7 -26.76 17.28 9.48c39.02,20.06 58.52,57.97 34,65.77 -14.49,5.01 -32.33,25.08 -45.15,51.28 -7.25,14.49 -11.7,18.95 -13.37,13.37 -1.68,-4.46 -6.14,-17.83 -9.48,-30.09l-6.69 -21.74 -11.14 17.84c-10.04,15.6 -10.59,20.62 -5.02,42.35 7.8,30.1 7.8,177.8 0.55,361.17l-5.57 138.23 -20.06 39.01c-28.99,58.52 -56.85,85.84 -101.99,100.88 -32.34,10.59 -52.4,12.27 -167.77,14.49 -71.9,1.12 -128.75,0 -126.52,-2.79 2.79,-2.22 61.86,-6.13 130.98,-7.8 148.81,-3.9 168.87,-8.36 213.47,-47.93 27.87,-25.64 60.74,-80.82 60.74,-103.11 0,-11.7 -34.55,-22.85 -103.1,-35.11 -59.64,-10.04 -94.76,-10.6 -128.75,-2.24 -27.87,7.25 -32.89,13.38 -38.46,51.84l-3.9 27.31 -45.15 -3.34c-26.19,-2.24 -59.08,-8.93 -76.36,-15.61 -60.75,-23.97 -83.05,-27.31 -182.25,-27.31 -52.95,0 -96.42,-2.23 -96.42,-5.02 0,-2.23 32.32,-6.13 71.89,-8.36 77.48,-3.9 132.1,1.68 187.28,18.95 18.38,6.14 54.06,15.61 78.59,21.18l45.7 10.59 3.34 -27.87c7.8,-55.73 29.54,-67.99 120.39,-67.44 44.03,0 71.9,3.9 112.58,14.49l53.51 13.94 3.35 -14.5c2.22,-7.8 6.13,-100.88 8.91,-206.78 3.9,-163.86 3.35,-197.3 -3.34,-226.84 -6.69,-26.75 -7.25,-37.34 -2.23,-46.26 3.34,-6.69 5.57,-12.82 4.46,-13.37 -34,-21.74 -114.82,-27.88 -330.51,-23.41 -104.23,2.22 -209.57,5.01 -234.09,6.68 -24.53,1.67 -110.92,6.14 -192.29,10.59 -306.54,16.72 -565.16,32.33 -662.69,40.13l-35.12 2.79 2.23 27.31 2.79 27.31 -20.62 0c-34.56,0 -55.19,10.03 -65.21,32.88 -13.39,28.43 -15.05,322.71 -1.68,332.75 6.69,5.56 6.69,8.91 0.56,20.06 -6.68,13.38 -6.13,73.57 2.23,142.12 3.34,27.31 6.13,30.65 31.21,49.61 23.97,17.83 26.2,20.62 18.95,28.42 -10.59,10.03 -8.36,2.23 -15.05,57.41 -3.34,26.2 -6.69,83.61 -7.24,128.19 -1.12,77.48 -1.67,81.93 -15.61,102.55l-15.05 21.74 0 179.47 0 180.02 21.19 17.28c39.56,32.33 67.99,64.66 67.99,76.91 0,8.37 1.12,8.37 -57.4,21.19 -39.02,8.36 -44.6,11.14 -56.86,29.53l-13.93 20.62 0 181.15c0,109.24 2.23,189.5 6.13,202.32 8.92,33.44 35.11,46.26 123.18,59.63 182.81,27.31 386.25,49.61 459.82,50.17 14.49,0 19.5,3.9 31.77,23.96 18.94,32.89 45.14,51.84 98.65,71.35 80.82,29.54 242.44,35.67 297.62,11.14 30.66,-13.37 69.67,-44.03 75.25,-59.08 3.9,-11.15 7.25,-11.15 145.46,-6.68 196.2,6.13 516.12,7.24 541.2,2.22l20.62 -4.45 16.72 32.32c33.44,66.33 82.49,105.34 148.26,117.6 60.19,11.7 119.83,17.84 171.67,17.29l51.27 0 -33.44 -12.27c-57.41,-21.18 -136,-107.57 -147.15,-162.74 -3.33,-13.94 -6.68,-17.28 -22.84,-18.4 -10.59,-1.11 -21.19,-5.01 -23.41,-8.36 -2.23,-3.9 -4.47,-34.56 -4.47,-68.56 0,-50.16 -1.66,-63.54 -8.91,-69.67 -11.71,-9.47 -8.36,-54.62 14.5,-186.15 20.06,-113.14 20.06,-122.07 5.01,-132.65 -17.28,-12.82 -12.82,-39.57 7.8,-41.8 17.28,-2.24 20.62,-12.26 3.35,-12.26 -8.92,0 -11.15,-2.79 -9.47,-15.61 1.66,-13.38 3.9,-15.05 21.17,-15.05 10.59,0 21.74,-3.35 23.96,-7.25 7.81,-12.26 -7.24,-23.41 -30.65,-23.41 -21.73,0 -22.29,-0.55 -19.5,-15.6 1.67,-8.36 6.13,-34.56 9.47,-57.97 6.13,-37.34 10.03,-46.81 30.09,-70.78 12.27,-15.05 30.1,-37.91 38.47,-50.16 26.19,-37.9 26.74,-37.9 223.5,-44.59 98.09,-3.34 181.13,-3.9 185.59,-1.12 4.47,2.23 11.15,10.59 15.05,17.84 6.14,12.81 7.8,13.38 61.87,11.7 51.83,-1.67 56.85,-2.79 68.55,-16.16l12.82 -13.94 -1.66 -152.16 -1.68 -152.71 16.16 -2.78c8.93,-1.67 36.79,-3.35 62.98,-3.35l46.82 0 -1.67 225.17c-1.11,123.74 -3.35,226.85 -5.01,228.52 -2.79,2.79 -211.8,-19.51 -239.67,-25.64 -4.46,-1.11 -7.81,2.23 -7.81,6.69 0,5.57 6.7,8.91 22.3,10.03 50.17,2.78 70.23,7.81 81.38,19.51 31.21,33.99 79.7,156.06 93.64,237.99 3.34,20.06 7.8,83.05 10.03,140.46l3.34 104.77 46.82 0 46.26 0 0 18.39c0,10.6 -1.67,20.07 -3.35,21.74 -1.67,1.67 -22.29,-2.78 -45.69,-10.03 -24.54,-7.24 -43.48,-10.59 -44.6,-7.81 -1.11,3.35 -11.7,5.59 -23.41,5.59 -17.83,0 -21.73,-2.24 -23.41,-11.71 -1.11,-10.04 -11.15,-14.49 -54.62,-27.31 -28.97,-8.36 -60.19,-18.39 -68.55,-21.74 -8.92,-3.35 -16.73,-6.13 -18.39,-6.13 -1.12,0 -2.24,16.72 -2.24,37.34l0 37.9 60.2 23.97c57.41,22.85 63.54,23.96 135.44,27.31l75.24 3.34 12.26 -15.6c7.81,-10.04 12.26,-23.41 12.26,-36.79 0,-21.18 0.56,-21.73 19.51,-21.73 11.71,0 20.62,3.35 23.96,8.91 3.91,7.25 7.25,7.8 16.17,3.35 6.13,-3.35 20.63,-6.13 32.89,-5.58 11.7,0.57 216.81,-28.98 455.35,-65.21 423.6,-64.65 433.07,-66.32 433.07,-78.58 0,-16.17 5.57,-30.1 11.7,-30.1 2.79,0 5.02,11.71 5.02,26.2 0,37.33 21.18,85.27 55.74,127.07 23.41,28.43 32.88,35.67 49.04,37.9 11.71,2.23 90.85,3.35 176.68,3.35 135.44,0 154.4,-0.56 142.13,-7.25 -36.23,-20.06 -70.79,-87.5 -95.87,-184.48 -9.47,-39.01 -10.59,-56.3 -8.36,-133.77 3.35,-93.64 11.15,-129.31 42.92,-200.64 45.7,-100.33 128.2,-115.38 192.84,-34.01 25.65,31.77 40.7,67.44 57.41,139.35 14.5,61.86 14.5,112.03 0,207.33 -6.13,41.25 -10.03,79.14 -8.36,83.6 2.23,5.58 13.38,7.81 44.03,7.81l41.25 0 3.34 -88.62 3.35 -88.62 -18.96 -20.63c-18.94,-19.5 -19.5,-21.74 -19.5,-65.76 0,-61.32 -12.26,-127.64 -33.44,-180.58 -21.74,-54.07 -41.25,-82.5 -68,-100.89 -17.84,-11.7 -24.52,-12.82 -47.38,-9.48 -16.72,2.24 -34.55,9.48 -47.37,20.07 -22.85,18.39 -24.52,17.84 -15.05,-2.22 16.73,-37.36 85.28,-49.06 124.85,-21.75 27.31,18.95 41.24,39.57 64.09,93.64 22.86,54.62 32.33,103.67 37.9,184.49 2.23,35.67 6.69,65.76 9.48,66.88 7.8,2.23 0.55,-119.83 -10.03,-168.32 -11.71,-51.28 -22.86,-81.38 -43.48,-117.61 -12.26,-22.29 -15.05,-30.65 -9.47,-32.32 18.39,-5.58 102.55,-12.26 106.45,-8.92 2.79,2.23 -10.59,21.73 -28.98,42.92l-34 39.57 8.36 23.96c13.38,40.7 25.08,120.39 25.08,172.78l0 49.05 23.97 3.35c12.82,1.67 47.38,3.34 76.36,4.46l52.95 1.11 1.67 -23.97 1.67 -23.41 125.41 0 124.84 0 0 -30.65 0 -30.66 -128.19 0 -128.2 0 0 25.09c0,24.52 0,25.08 -18.94,25.08 -17.28,0 -18.95,1.67 -23.97,23.41l-6.13 23.96 -0.55 -20.06c0,-11.15 -2.23,-28.43 -3.91,-37.9 -3.34,-17.28 -3.34,-17.28 19.51,-17.28 18.95,0 22.85,-1.67 22.85,-11.15 0,-9.47 -3.9,-11.15 -22.29,-11.15 -12.26,0 -22.3,-1.11 -22.3,-2.22 0,-1.12 6.69,-13.94 14.49,-27.88 12.27,-21.73 13.93,-30.65 11.71,-50.72 -3.34,-22.84 -1.68,-27.31 27.31,-69.66 25.63,-37.35 30.66,-47.93 27.87,-61.31 -3.35,-19.51 7.8,-27.87 35.67,-27.87 17.27,0 17.84,0.56 15.6,22.29l-2.23 22.29 67.44 0c36.79,0 80.26,1.68 95.87,3.35 56.85,7.25 22.29,13.38 -71.34,13.38l-94.19 0 0 61.31 0 61.31 100.32 0 100.32 0 0 -57.97c0,-32.88 2.24,-60.19 5.58,-61.87 3.35,-1.66 5.57,-20.61 5.57,-41.79l0 -38.46 18.4 -1.68 17.83 -1.66 2.79 -175.57 2.78 -175.57 15.06 -1.67c27.86,-3.35 28.97,-13.38 25.07,-273.11 -10.03,-639.84 -15.6,-901.24 -19.5,-904.58 -2.23,-1.67 -45.15,-10.03 -95.87,-17.84 -50.72,-8.35 -229.63,-37.34 -398.51,-65.21 -168.32,-27.31 -361.72,-59.07 -429.16,-69.67 -67.44,-11.14 -190.05,-31.21 -273.1,-44.58 -260.28,-42.92 -525.03,-85.84 -652.11,-106.46 -67.44,-10.59 -176.12,-28.43 -241.34,-39.01 -65.77,-10.59 -125.96,-18.4 -133.76,-16.73 -8.36,1.68 -97.54,5.58 -198.98,8.92 -100.88,2.79 -235.76,7.25 -298.74,8.92l-114.82 3.9 -3.9 -40.69c-4.46,-47.37 -8.36,-56.85 -32.32,-71.34 -23.97,-14.49 -89.18,-17.84 -235.76,-12.26l-0.01 0.01zm122.62 2324.18c-7.81,14.49 -25.63,239.1 -28.98,374.54l-2.79 115.93 18.95 0c22.85,0 20.62,11.14 35.67,-153.28 5.02,-59.07 14.49,-120.94 22.3,-150.48 22.85,-88.06 39.01,-138.78 51.28,-162.75 6.69,-12.82 12.25,-24.52 12.25,-25.08 0,-2.78 -107,-1.67 -108.68,1.12zm209.01 -37.35c-15.61,5.57 -44.03,20.62 -62.98,33.45 -28.99,20.06 -37.35,28.98 -52.4,59.63 -31.21,65.21 -57.96,209.01 -69.11,367.85l-6.68 97.54 14.49 30.65c25.63,53.51 94.75,117.05 143.24,130.99 7.8,2.22 15.6,6.68 17.28,9.47 5.57,8.92 83.04,-5.57 115.37,-21.74 37.9,-18.94 67.44,-44.59 99.21,-86.39 33.44,-42.91 55.73,-96.42 71.34,-171.11 11.7,-53.5 12.26,-67.99 8.36,-137.67 -6.13,-119.83 -27.87,-180.02 -89.74,-250.24 -36.77,-41.81 -74.13,-62.98 -120.94,-68.56 -32.32,-3.9 -43.47,-2.79 -67.44,6.13zm126.51 180.02c11.15,17.29 6.14,22.86 -12.26,14.5 -33.99,-15.61 -68.55,-4.46 -109.79,35.11 -35.11,34 -49.61,70.78 -52.95,136 -1.67,30.09 -1.67,61.3 0.56,69.1 5.01,20.63 52.39,80.82 70.79,90.3 17.82,9.47 64.08,11.14 86.38,2.79 24.52,-9.48 21.74,-2.23 -7.24,18.94 -28.98,21.75 -40.69,24.53 -40.69,11.71 0,-12.26 -22.29,-19.51 -37.34,-12.26 -7.25,3.34 -12.82,7.8 -12.82,10.59 0,8.36 -10.04,4.46 -27.87,-10.59 -15.04,-12.26 -17.28,-17.28 -14.49,-31.21 3.9,-18.4 -8.36,-42.92 -21.18,-42.92 -9.48,0 -14.49,-11.7 -19.51,-49.05 -3.35,-21.73 -2.23,-30.65 3.34,-35.12 8.37,-7.24 10.04,-44.58 1.68,-52.94 -3.9,-3.9 -3.9,-15.61 0.56,-36.23 7.8,-38.45 18.95,-56.85 32.32,-52.39 15.05,4.46 32.33,-22.85 23.41,-37.34 -8.91,-14.49 -3.35,-28.99 13.94,-37.9 12.26,-6.69 16.16,-6.69 33.43,2.78 15.61,8.36 21.74,8.92 32.9,3.9 7.8,-3.34 13.92,-10.02 13.92,-14.49 0,-12.82 31.77,0 42.92,16.72l-0.01 0zm1.12 38.46c1.12,1.67 -0.55,6.14 -3.9,9.48 -3.9,3.9 -6.68,17.28 -6.68,30.66 0,22.84 -0.56,23.96 -16.72,23.96 -11.15,0 -22.3,5.02 -31.77,14.49 -12.83,12.82 -15.05,13.38 -19.51,5.58 -2.78,-5.02 -10.03,-8.92 -15.61,-8.92 -17.83,0 -12.26,-20.07 14.49,-51.84l12.82 -15.05 1.68 26.2c1.66,31.21 12.81,35.67 26.19,11.71 7.25,-12.27 7.25,-18.4 2.23,-31.77 -3.35,-8.92 -4.46,-18.4 -2.23,-20.06 3.35,-3.9 34,0.55 39.02,5.56l-0.01 0zm42.36 47.38c10.59,20.62 10.59,27.87 0,27.87 -5.02,0 -11.15,5.57 -13.93,12.26 -3.35,9.48 -5.02,10.03 -5.02,3.35 -0.55,-5.02 -5.57,-12.83 -12.26,-17.28 -11.15,-8.37 -11.15,-8.37 -0.56,-11.71 6.14,-2.23 12.82,-10.03 14.49,-17.28 4.46,-17.83 6.7,-17.28 17.28,2.79zm-42.91 40.13c-1.68,3.9 -6.13,7.25 -10.04,7.25 -3.9,0 -8.35,-3.35 -9.47,-7.25 -1.67,-3.9 2.23,-6.69 9.47,-6.69 7.25,0 11.16,2.79 10.04,6.69zm-96.42 38.46c7.8,1.67 11.7,7.8 12.81,20.06 1.67,14.49 -0.55,17.84 -11.15,19.51 -8.35,1.11 -13.37,6.13 -14.49,13.93 -1.11,7.25 -3.9,12.82 -6.68,12.82 -7.8,0 -11.7,-27.31 -7.8,-56.85 3.34,-22.85 5.01,-26.75 10.02,-20.06 3.35,5.02 11.15,9.47 17.29,10.59zm103.1 1.67c0,7.8 -16.16,17.27 -21.17,11.7 -3.35,-3.34 10.02,-19.5 16.16,-19.5 2.78,0 5.01,3.34 5.01,7.8zm-46.82 16.72c3.91,16.16 -0.55,25.64 -12.25,25.64 -5.02,0 -7.81,-6.13 -7.81,-19.51 0,-22.85 14.5,-27.31 20.06,-6.13zm96.99 6.13c0,15.61 -2.23,19.51 -11.15,19.51 -6.14,0 -11.15,-3.35 -11.15,-7.25 0,-3.34 -1.67,-12.26 -3.34,-19.51 -2.79,-10.59 -1.12,-12.25 11.14,-12.25 12.82,0 14.5,2.22 14.5,19.5zm-55.73 30.65c0,2.79 -5.02,5.58 -11.16,5.58 -6.13,0 -11.14,-2.79 -11.14,-5.58 0,-3.34 5.01,-5.57 11.14,-5.57 6.14,0 11.16,2.23 11.16,5.57zm-67.45 54.62c-5.57,3.9 -10.59,12.27 -10.59,18.4 0,19.5 -18.39,9.48 -32.33,-16.72 -12.26,-23.41 -12.26,-23.97 -1.67,-21.18 6.69,1.67 15.05,-1.68 20.62,-7.81 9.48,-10.58 10.04,-10.58 22.3,4.47 11.7,15.04 11.7,15.6 1.67,22.84zm105.9 -11.7c1.11,0.56 -3.9,10.59 -11.15,22.29 -11.7,18.4 -13.38,19.51 -15.05,8.92 -1.12,-6.68 -5.57,-15.05 -9.47,-18.39 -6.69,-5.58 -6.69,-8.36 1.67,-19.51 8.91,-12.26 10.03,-12.26 20.62,-3.9 6.14,5.02 12.26,10.03 13.38,10.59zm-67.45 -5.02c1.12,3.9 -1.66,6.69 -6.68,6.69 -5.02,0 -8.92,-3.9 -8.92,-8.91 0,-9.48 12.27,-7.81 15.61,2.22l-0.01 0zm4.47 42.92c0.55,30.1 0.55,30.65 -15.61,30.65 -12.82,0 -16.17,-2.23 -13.37,-8.91 1.66,-5.02 3.34,-17.28 3.34,-27.31 0,-15.05 2.78,-18.95 12.82,-21.18 6.69,-1.12 12.25,-2.79 12.25,-3.35 0,0 0.57,13.38 0.57,30.1zm-278.68 -494.93c-1.68,8.92 -4.46,21.18 -6.69,27.87 -3.34,12.26 -2.22,12.82 39.01,12.82 25.64,0 42.36,-2.23 42.36,-5.58 0,-3.34 5.02,-16.16 10.59,-27.87l10.59 -22.29 -46.25 0c-45.71,0 -46.27,0 -49.61,15.05zm477.66 -122.61c2.22,1.66 3.9,6.12 3.9,10.02 0,4.47 5.57,12.27 12.82,17.84 41.23,32.88 107.56,196.19 121.5,297.07 6.13,46.26 7.25,160.52 1.66,175.01 -2.78,6.69 0,8.92 11.71,8.92l15.61 0 -3.34 -110.36c-3.9,-142.68 -21.74,-228.52 -68,-328.28 -25.09,-54.62 -31.21,-60.75 -62.43,-65.77 -13.93,-2.23 -28.42,-4.45 -31.76,-5.02 -3.35,-1.11 -4.46,-0.55 -1.67,0.57zm-191.18 -4.47c-67.44,18.39 -92.52,32.89 -130.42,73.58 -19.51,21.17 -37.91,38.45 -40.69,38.45 -4.46,0 -19.51,26.75 -26.2,45.7 -3.9,13.39 3.91,12.27 27.32,-3.34 35.11,-23.97 89.17,-38.46 126.51,-34.56 93.64,9.48 186.72,108.69 212.92,225.73 5.01,22.3 8.91,54.06 8.91,70.23l0 28.98 57.41 17.28c31.22,9.48 62.98,18.4 70.78,18.95l13.94 1.67 1.67 -58.53c2.79,-94.18 -19.51,-191.72 -63.54,-280.34 -46.26,-91.96 -65.76,-118.72 -88.62,-122.62 -10.59,-1.67 -26.75,-8.91 -36.23,-16.16 -23.41,-16.73 -82.49,-19.51 -133.77,-5.02l0.01 0zm1895.01 -45.14c-44.03,30.1 -71.9,93.08 -92.52,210.12 -10.03,57.41 -10.03,90.85 1.11,148.26 21.19,114.25 47.93,169.99 99.77,205.66 30.66,21.18 40.68,20.62 80.26,-0.56 28.99,-15.05 34.55,-21.18 54.62,-59.63 12.26,-23.41 25.09,-54.07 28.43,-68 11.14,-45.71 18.39,-140.45 15.04,-183.37 -10.03,-122.62 -32.33,-190.62 -76.35,-236.32 -24.53,-26.2 -25.09,-26.2 -60.76,-25.64 -23.97,0 -40.13,3.35 -49.6,9.48zm75.8 107.01c23.41,8.36 45.15,46.26 55.74,96.98 7.24,36.79 7.8,50.16 2.23,91.41 -7.25,47.37 -31.77,117.6 -47.94,135.44 -11.14,12.25 -40.13,24.52 -45.7,18.94 -2.23,-1.67 1.11,-7.8 7.25,-12.82 29.53,-23.96 45.14,-59.08 61.3,-134.87 6.69,-30.66 6.69,-41.8 0,-72.46 -10.03,-49.05 -25.63,-83.05 -46.82,-102.56 -12.82,-12.25 -15.6,-17.83 -10.58,-21.18 8.91,-5.57 5.57,-5.57 24.52,1.12zm-15.61 33.44c16.16,17.28 34.56,83.04 34.56,123.74 0,67.99 -40.13,171.66 -66.88,171.66 -15.05,0 -17.84,-6.69 -4.46,-13.38 17.83,-8.92 42.36,-59.08 49.6,-101.44 12.26,-71.34 -5.01,-154.94 -38.46,-180.58l-13.93 -11.15 14.49 0c8.37,0 18.95,5.02 25.08,11.15zm-55.73 55.18c1.67,4.45 -0.56,6.69 -5.02,5.02 -3.9,-1.12 -8.36,-5.58 -9.47,-9.48 -1.67,-4.46 0.55,-6.69 5.01,-5.01 3.9,1.11 8.36,5.57 9.48,9.47zm-10.04 34.55c0,6.7 -15.04,6.14 -19.5,-0.55 -6.13,-9.47 2.79,-17.84 11.7,-10.59 4.46,3.34 7.8,8.36 7.8,11.14zm42.92 22.86c-1.67,4.45 -3.34,2.78 -3.34,-3.35 -0.56,-6.13 1.11,-9.48 2.78,-7.24 1.67,1.67 2.23,6.69 0.56,10.59zm-26.2 21.17c0,2.79 -3.9,5.58 -8.36,5.58 -4.46,0 -8.36,-2.79 -8.36,-5.58 0,-3.34 3.9,-5.57 8.36,-5.57 4.46,0 8.36,2.23 8.36,5.57zm-31.21 34c-1.67,2.79 -5.57,3.9 -8.36,1.68 -2.78,-1.68 -3.9,-5.58 -1.67,-8.37 1.67,-2.78 5.58,-3.9 8.36,-1.67 2.79,1.67 3.9,5.57 1.67,8.36zm17.84 14.5c-6.13,6.13 -9.47,-2.23 -5.01,-12.82 3.9,-10.04 4.45,-10.04 6.13,-0.56 1.11,5.58 0.55,11.7 -1.12,13.38zm-1772.95 -352.25c-2.78,1.12 -61.87,6.13 -130.98,11.14 -129.87,8.92 -168.32,15.05 -185.59,27.88 -15.06,11.14 -42.92,83.6 -42.92,112.02l0 24.53 32.88 0 32.33 0 28.98 -33.45c47.93,-55.17 107.57,-80.82 201.21,-86.95 51.27,-3.34 54.62,-3.34 76.91,11.16 28.99,17.83 34.55,18.38 18.39,1.11 -13.37,-14.5 -12.26,-22.85 6.14,-35.67 12.26,-8.92 13.37,-26.75 1.11,-31.22 -9.48,-3.34 -28.98,-3.9 -38.46,-0.55zm-176.68 -38.46c-81.37,3.9 -156.61,9.47 -167.2,12.26 -13.39,3.34 -21.74,10.59 -30.66,26.75 -11.71,21.18 -46.82,162.75 -42.36,170.55 1.11,2.79 9.48,4.46 17.84,4.46 15.05,0 16.16,-1.67 22.85,-37.9 8.36,-44.03 23.41,-84.72 39.57,-107.01 16.16,-21.73 37.34,-25.64 197.3,-36.78 159.97,-10.6 164.98,-11.71 158.29,-28.98 -3.9,-10.04 -8.36,-12.27 -25.63,-11.71 -11.71,0.56 -88.07,4.46 -170,8.36zm-756.89 503.29c-8.36,2.23 -11.14,5.57 -7.24,7.8 7.24,4.47 23.96,-0.55 23.96,-7.8 0,-2.79 -0.55,-5.02 -1.12,-4.45 -1.11,0.55 -7.8,2.22 -15.6,4.45zm27.87 3.35c0,12.26 2.23,14.49 12.82,12.82 7.8,-1.12 12.26,-5.58 12.26,-12.82 0,-7.25 -4.46,-11.71 -12.26,-12.82 -10.59,-1.67 -12.82,0.55 -12.82,12.82zm-370.08 -56.3c-1.68,15.61 -3.35,47.93 -3.35,71.34 0,37.35 1.67,44.03 11.15,49.05 12.26,6.69 355.03,16.16 412.44,11.15l36.23 -2.79 1.67 -68.55 1.68 -68.56 -18.4 -7.25c-13.93,-5.57 -69.11,-8.35 -227.96,-10.02l-210.11 -2.23 -3.35 27.86zm32.88 -1.67c6.13,11.7 11.7,16.17 17.84,13.94 6.68,-2.79 7.8,-0.57 5.01,10.03 -11.15,44.02 51.28,108.13 79.15,80.25 4.45,-4.45 8.36,-4.45 15.6,1.68 7.8,6.69 10.59,5.57 22.85,-8.36l13.94 -16.17 13.37 14.49c20.63,22.3 53.51,21.18 75.25,-2.22 18.95,-20.63 21.73,-9.48 2.78,13.37l-12.82 16.17 -93.08 -2.23c-71.33,-1.12 -94.19,-3.35 -97.54,-9.48 -3.9,-6.13 -8.35,-6.13 -22.84,-1.11 -25.08,8.35 -39.02,7.8 -39.02,-2.24 0,-5.01 5.02,-8.35 13.94,-8.35 25.08,0 32.88,-39.58 8.91,-47.38 -16.16,-5.01 -31.21,-24.52 -24.52,-31.21 3.9,-3.9 8.36,-1.12 15.05,8.36 11.15,17.28 20.07,18.95 20.07,3.34 0,-6.13 -6.7,-14.49 -16.17,-18.94 -16.17,-8.37 -25.08,-21.74 -18.95,-27.88 6.69,-6.68 12.82,-2.78 21.18,13.94zm47.37 -12.82c0,2.23 -5.02,7.25 -11.14,11.15 -8.92,5.57 -11.15,5.57 -11.15,-1.12 0,-4.45 3.34,-9.47 7.24,-10.58 10.59,-4.47 15.05,-4.47 15.05,0.55zm72.46 6.69c0,2.79 -1.11,5.58 -2.23,5.58 -1.67,0 -4.46,-2.79 -6.13,-5.58 -1.67,-3.34 -0.55,-5.58 2.23,-5.58 3.34,0 6.13,2.24 6.13,5.58zm47.93 18.4c-10.02,19.5 -12.26,21.73 -13.37,11.14 -2.23,-15.05 7.8,-35.11 17.83,-35.11 5.58,0 3.9,6.13 -4.46,23.97zm57.41 -15.61c21.74,11.14 26.76,25.08 8.92,25.08 -7.81,0 -13.93,2.23 -13.93,5.57 0,2.79 -11.15,5.57 -25.09,5.57 -13.93,0 -25.08,-2.22 -25.08,-5.01 0,-7.8 14.49,-17.84 19.51,-12.82 2.79,2.23 2.79,0.56 0.56,-3.35 -6.13,-10.03 0,-23.41 10.59,-23.41 5.01,0 16.16,3.91 24.52,8.37zm35.67 -4.46c1.67,2.78 0.56,8.92 -1.11,14.49 -3.35,9.48 -4.46,8.92 -10.6,-3.9 -5.01,-11.71 -5.01,-14.49 1.68,-14.49 3.9,0 8.92,1.67 10.03,3.9zm91.97 18.95c8.36,21.18 10.02,22.29 27.31,20.62 18.94,-2.23 21.73,2.23 15.04,20.06 -1.67,5.02 -6.68,8.92 -11.14,8.92 -11.7,0 -9.48,9.48 3.34,12.82 15.61,3.9 13.93,10.03 -8.36,26.2 -10.59,7.8 -19.51,17.27 -19.51,20.62 0,14.49 -11.15,6.69 -11.15,-7.8l0 -15.05 -16.72 16.16c-17.27,16.72 -18.94,15.05 -16.72,-15.6 0.56,-8.37 -1.67,-15.05 -5.01,-15.05 -3.35,0 -6.14,7.24 -6.14,16.72 0,8.92 -2.23,16.72 -5.56,16.72 -3.35,0 -5.59,-15.61 -5.59,-36.23l0 -36.23 16.17 0c21.74,0 25.64,-13.38 8.92,-27.31 -17.84,-13.94 -17.84,-21.74 1.67,-24.52 8.36,-1.12 17.28,-2.79 19.51,-3.35 2.79,0 8.91,9.48 13.93,22.3l0.01 0zm-249.69 -8.92c12.81,15.61 -1.12,21.18 -24.53,10.59 -11.15,-5.57 -20.07,-11.7 -20.07,-14.49 0,-7.8 37.35,-4.46 44.6,3.9zm-22.3 19.51c0,6.13 -25.64,10.03 -34,5.57 -3.35,-2.23 -5.02,-6.69 -3.35,-9.47 3.9,-6.14 37.35,-2.79 37.35,3.9zm169.43 31.76c-5.57,32.33 -21.73,51.84 -42.36,51.84 -13.93,0 -15.6,-1.67 -10.59,-7.8 3.91,-4.46 12.82,-9.48 20.07,-11.15 17.83,-4.46 17.83,-14.49 0,-14.49 -10.03,0 -13.93,-2.79 -13.93,-10.03 0,-15.61 6.13,-18.95 17.27,-8.92 12.26,11.14 23.41,5.02 18.96,-9.47 -2.8,-7.25 -1.12,-10.6 5.56,-10.6 7.25,0 8.37,3.9 5.02,20.62zm-190.05 3.91c3.9,10.03 -0.56,14.49 -10.04,10.59 -4.46,-1.11 -6.13,-6.13 -4.46,-10.59 3.9,-10.03 10.6,-10.03 14.5,0zm46.82 -2.23c13.92,0 12.26,15.05 -4.47,32.89 -11.14,11.7 -38.45,16.16 -38.45,6.13 0,-3.35 3.34,-5.58 7.24,-5.58 4.46,0 12.27,-4.46 17.28,-10.59 8.91,-10.03 8.91,-10.59 -5.01,-13.93 -7.81,-2.23 -13.94,-6.13 -13.94,-9.48 0,-3.9 5.01,-5.01 12.82,-2.79 6.68,1.68 17.83,3.35 24.53,3.35zm80.81 12.26c-8.36,8.36 -14.49,2.23 -10.03,-10.03 2.78,-7.24 5.01,-8.36 10.03,-3.34 5.02,5.01 5.02,8.35 0,13.37zm-887.31 -122.06c-1.67,1.67 -2.23,24.52 -1.12,50.72 1.68,45.15 2.79,47.93 15.61,51.28 7.25,1.67 66.32,3.9 131.53,4.45l118.73 0.56 1.67 -41.8c2.23,-63.54 9.47,-60.19 -138.23,-64.65 -69.11,-1.67 -126.52,-2.23 -128.19,-0.56zm253.04 21.74c6.69,31.76 7.8,70.23 2.79,75.24 -7.25,7.24 -233.54,2.23 -243.01,-5.01 -7.8,-6.14 -10.04,-71.9 -3.35,-78.6 1.68,-2.22 56.86,-3.9 122.06,-3.9 118.72,0 119.28,0 121.51,12.27zm1010.48 -1703.28c-4.45,4.46 0.56,13.38 7.81,13.38 2.78,0 5.01,-3.9 5.01,-8.36 0,-8.37 -6.68,-11.15 -12.82,-5.02zm1119.17 587.45l-55.73 3.35 44.58 2.23c48.49,2.22 46.26,2.22 113.15,-1.68 25.64,-1.67 47.93,-4.45 50.16,-6.13 3.34,-3.9 -71.9,-2.78 -152.16,2.23zm-967.01 -1166.54c-225.17,182.81 -292.61,240.21 -288.15,244.68 7.24,7.8 349.46,-274.22 349.46,-288.71 0,-6.13 3.9,-8.92 -61.31,44.03zm176.68 -142.13c30.65,14.49 32.33,24.52 34,214.03l1.67 173.89 -29.53 16.72c-16.72,9.48 -87.52,39.01 -158.3,65.21 -166.09,61.87 -186.72,70.79 -197.86,81.94 -12.26,11.7 -7.8,15.6 15.61,15.6 40.69,0 56.29,17.83 66.33,73.57l3.34 21.18 -20.07 0c-16.16,0 -21.17,-2.79 -27.87,-15.61 -6.68,-12.81 -16.16,-17.27 -65.76,-31.21 -31.22,-8.91 -59.64,-16.72 -62.99,-17.83 -3.34,-1.12 -5.57,9.47 -6.12,24.52l-0.57 26.76 26.76 10.02c23.96,8.36 27.86,11.71 32.88,31.77 3.35,12.26 5.02,27.87 3.9,34.56 -1.67,10.59 -2.22,10.03 -6.68,-4.46 -5.58,-21.74 -16.72,-34 -45.15,-50.72 -20.06,-11.71 -22.29,-15.05 -20.06,-30.1 6.13,-44.03 -11.71,-55.73 -104.79,-69.1 -124.28,-17.85 -198.41,-20.07 -381.78,-11.71 -245.8,11.71 -595.82,30.65 -744.07,41.24 -35.12,2.23 -65.21,3.34 -66.33,2.23 -8.36,-6.13 65.77,-118.16 122.07,-184.48 107,-126.52 278.67,-298.19 314.9,-313.79 24.52,-10.6 310.44,-48.49 515.55,-68.56 20.07,-2.23 59.08,-6.68 86.39,-9.47 27.87,-3.35 153.27,-13.38 278.68,-21.74 247.47,-17.28 405.19,-18.95 435.85,-4.46zm671.61 537.85c-1.11,241.89 -2.23,590.8 -2.78,776.39l-1.12 337.21 -75.24 0 -75.24 0 -9.48 -192.29c-8.92,-177.8 -25.08,-421.36 -37.89,-563.49 -6.7,-74.12 -19.51,-142.12 -30.11,-157.73 -4.45,-7.24 -25.64,-18.39 -52.95,-27.87 -32.88,-11.7 -48.49,-20.06 -56.84,-31.76 -17.84,-25.09 -78.59,-65.78 -117.6,-78.6 -41.25,-13.37 -49.06,-21.73 -49.06,-49.6 0,-11.14 -3.34,-23.41 -7.8,-26.75 -7.24,-6.13 -88.05,-12.82 -244.68,-21.18 -39.01,-1.67 -69.1,-5.57 -66.88,-7.81 2.23,-2.22 35.67,-16.71 74.13,-31.76 38.46,-15.61 81.37,-32.88 95.87,-39.57 41.8,-18.96 43.47,-25.64 43.47,-176.13l0 -129.86 23.96 -2.23c12.83,-1.67 57.41,-3.35 98.66,-4.46 41.24,-0.55 129.31,-3.34 195.07,-5.57 65.78,-1.67 159.96,-3.91 209.01,-4.46l89.18 -1.11 -1.67 438.63 -0.01 0zm216.82 -414.12c84.16,13.94 333.3,54.07 554.01,89.74 220.71,35.67 632.6,101.99 915.73,147.7 282.59,45.7 516.11,84.16 518.9,85.83 2.23,1.67 6.13,154.39 8.36,338.87 2.23,185.04 5.02,356.15 6.13,380.68 1.12,24.52 3.9,128.19 6.14,229.63l3.34 185.59 -61.86 0 -61.87 0 0 -21.17c0,-44.04 -18.96,-45.15 -25.08,-1.68l-3.9 27.31 -66.33 3.9c-36.79,2.23 -68.55,2.79 -70.23,1.12 -1.67,-1.67 -4.46,-16.73 -6.68,-32.89 -4.46,-37.89 -15.05,-33.99 -12.82,5.02l2.22 28.43 -80.25 2.22c-43.48,1.12 -80.26,1.68 -80.82,1.12 -1.12,0 -3.34,-16.16 -5.02,-35.11 -5.01,-44.59 -15.6,-41.8 -17.83,3.9l-1.67 34.56 -80.26 0 -80.82 0 0 -29.55c0,-30.65 -7.8,-52.39 -13.37,-37.34 -1.68,4.46 -3.9,22.3 -4.47,39.01l-1.67 30.66 -84.16 1.67 -84.16 1.68 -3.9 -17.84c-1.67,-9.47 -3.35,-25.64 -3.35,-36.23 0,-19.51 -7.8,-28.98 -14.48,-17.84 -2.23,3.35 -3.35,19.51 -2.79,35.68 0.56,16.16 -0.56,30.09 -3.34,31.77 -2.23,1.67 -45.15,5.01 -95.31,7.24l-90.3 3.9 0 -18.95c0,-31.77 -6.68,-61.31 -13.37,-59.08 -3.9,1.12 -5.57,15.05 -4.45,39.02l2.22 37.34 -100.32 0 -100.88 0 -2.79 -23.97c-1.67,-12.82 -3.9,-29.54 -4.46,-37.34 -3.34,-27.87 -12.82,-12.82 -17.84,26.19l-5.01 40.7 -98.65 0c-109.8,0 -105.9,1.67 -105.9,-37.9 0,-23.41 -7.24,-37.91 -15.61,-32.33 -3.34,1.67 -7.8,19.51 -9.47,39.57l-3.91 36.23 -107.57 0 -107.56 0 -3.9 -39.02c-5.02,-50.72 -16.17,-49.6 -18.4,1.67l-1.67 37.35 -59.64 0.55c-32.88,0.57 -85.83,1.12 -118.16,1.68l-58.52 0.55 -1.67 -32.32c-1.12,-23.41 -3.9,-31.77 -9.48,-31.77 -6.69,0 -8.36,7.8 -8.36,33.44l0 33.44 -91.96 0 -91.96 0 0 -759.67c0,-418.02 1.67,-761.9 3.9,-763.58 7.25,-7.8 47.37,-3.34 197.3,20.62zm-977.04 396.84c12.81,1.67 23.41,5.58 23.41,8.36 0,3.35 -21.75,5.02 -54.07,3.9 -47.94,-1.67 -54.62,-2.78 -56.29,-11.7 -2.23,-11.15 2.78,-11.15 86.95,-0.56zm-130.43 25.64c2.79,5.02 4.46,10.59 2.79,12.26 -1.68,1.67 -21.19,1.12 -42.91,-0.56 -42.37,-3.34 -46.27,-10.03 -11.15,-18.39 26.19,-6.69 44.02,-4.46 51.27,6.69zm276.45 10.59c50.72,6.69 66.88,12.82 66.88,23.4 0,5.02 -21.18,4.47 -93.08,-2.78 -51.83,-5.02 -100.32,-9.47 -108.69,-10.03 -10.02,0 -15.6,-2.79 -15.6,-8.36 0,-13.94 59.08,-15.05 150.49,-2.23zm25.08 44.03c78.59,6.68 161.08,26.75 189.5,45.7 26.76,18.4 52.95,45.15 52.95,53.51 0,6.69 -11.15,7.25 -65.21,3.9 -124.29,-7.24 -256.94,-18.4 -262.51,-21.73 -2.79,-1.68 -7.25,-12.82 -9.48,-23.97 -2.22,-11.71 -8.36,-28.98 -14.49,-38.46 -15.61,-26.19 -13.93,-30.09 13.38,-27.31 12.81,1.12 56.29,5.02 95.86,8.36zm-397.95 75.25c5.58,18.38 10.59,42.91 10.59,54.06 0,19.5 -1.11,21.18 -15.61,21.18 -15.61,0 -16.71,-1.67 -25.08,-41.8 -13.38,-61.31 -12.82,-70.79 5.02,-68.56 12.82,1.67 16.16,6.69 25.08,35.12zm-422.48 -22.3c-0.55,2.79 -7.8,6.13 -15.6,7.25 -10.59,1.67 -13.38,0 -10.59,-7.25 3.9,-9.47 28.42,-9.47 26.19,0zm40.69 0c5.58,4.45 7.81,8.36 3.9,8.36 -10.58,0 -23.96,-6.13 -23.96,-11.71 0,-7.24 7.8,-6.12 20.06,3.35zm333.85 13.93c9.48,18.4 13.94,80.82 5.58,80.82 -2.78,0 -4.46,-4.46 -3.9,-10.03 1.12,-5.02 -1.12,-9.48 -3.9,-9.48 -3.34,0 -6.13,-7.25 -6.13,-16.17 0,-8.91 -3.9,-25.07 -8.36,-35.66 -10.6,-25.08 -10.6,-26.2 0,-26.2 4.46,0 11.7,7.24 16.71,16.72zm234.09 22.3c55.18,3.34 116.49,6.68 136.56,8.36 20.06,1.12 60.2,3.9 89.17,5.57 178.92,10.59 266.98,19.51 295.96,29.54 23.41,7.8 30.1,13.38 33.44,25.08 2.23,8.36 2.23,16.17 0.57,17.28 -2.24,1.12 -40.14,0 -84.73,-2.22 -44.58,-2.8 -198.42,-11.71 -342.77,-19.51 -143.8,-7.81 -267.53,-15.61 -274.22,-16.73 -12.26,-2.78 -14.49,-7.24 -21.18,-41.24l-3.9 -18.95 35.11 3.9c19.51,1.67 80.82,6.13 136,8.92l-0.01 0zm-1764.02 30.65c0,4.46 -2.23,8.36 -5.02,8.36 -7.25,0 -12.26,-8.91 -7.8,-13.37 6.13,-6.14 12.82,-3.35 12.82,5.01zm-22.3 8.36c0,2.79 -2.22,5.58 -5.57,5.58 -2.79,0 -5.58,-2.79 -5.58,-5.58 0,-3.34 2.79,-5.57 5.58,-5.57 3.35,0 5.57,2.23 5.57,5.57zm44.59 2.79c0,4.45 -3.9,8.36 -8.36,8.36 -8.92,0 -11.15,-6.69 -4.46,-12.82 6.14,-6.69 12.82,-4.45 12.82,4.46zm-31.77 12.26c-3.9,1.11 -11.7,1.11 -16.72,0 -5.57,-1.67 -2.22,-2.79 6.69,-2.79 9.47,0 13.38,1.12 10.03,2.79zm1503.19 15.6c0,4.46 -6.13,11.71 -12.82,16.73 -28.43,18.39 -27.87,7.24 -39.58,406.87 -7.24,234.64 -14.48,372.86 -18.94,377.33 -2.79,2.78 -44.59,3.34 -95.31,1.11l-90.29 -3.9 1.67 -27.87c2.23,-24.52 3.9,-28.42 15.61,-30.1 21.18,-3.34 71.34,-27.86 95.31,-46.81 21.73,-17.28 42.91,-52.39 58.52,-96.43 13.37,-36.78 18.39,-114.25 19.51,-287.59 1.66,-236.87 6.68,-273.66 43.47,-304.87 17.27,-14.49 22.85,-15.61 22.85,-4.46l0 -0.01zm234.09 -3.34c41.24,3.34 108.13,6.69 147.7,8.92 40.13,1.67 83.6,4.46 97.53,5.57 24.53,2.23 75.8,5.02 222.95,11.15 41.24,1.67 88.06,4.46 104.22,6.13l28.43 2.79 8.91 39.57c15.05,66.88 10.04,98.66 -9.47,57.41 -16.72,-35.11 -28.43,-39.01 -135.44,-40.69 -62.98,-1.11 -99.77,0 -107.57,3.91 -13.93,7.8 -25.63,28.97 -31.21,59.08l-4.46 22.29 -7.8 -41.8c-8.92,-46.26 -23.41,-70.23 -56.29,-91.97 -18.96,-12.26 -30.11,-13.93 -118.16,-19.51 -219.05,-12.81 -261.97,-16.71 -261.97,-22.85 0,-6.12 28.43,-6.12 122.63,0zm-362.28 36.23l0 12.82 -185.04 -2.23c-152.16,-2.22 -216.81,-1.12 -358.38,8.92 -94.75,6.68 -293.18,17.83 -440.32,25.63 -147.13,7.25 -286.48,15.05 -309.33,17.29l-41.8 3.34 -29.54 184.49c-16.16,101.99 -36.78,226.28 -45.14,277 -8.92,51.27 -14.49,102.55 -13.38,115.37 3.35,27.31 -5.01,25.64 95.31,24.52 42.92,-0.55 68,1.12 68,5.02 0,3.35 -29.55,5.57 -80.82,5.57 -72.46,0 -81.93,-1.11 -91.41,-10.59 -13.38,-13.37 -11.7,-35.66 8.36,-153.83 7.81,-42.91 26.2,-151.04 41.25,-239.65 15.04,-89.18 29.54,-172.23 32.33,-185.61l5.57 -23.41 -28.98 -0.56c-22.86,0 -25.65,-1.1 -15.61,-5.01 18.4,-7.8 167.77,-21.18 341.1,-30.65 84.16,-4.46 238.55,-13.38 342.77,-20.06 188.95,-11.16 426.38,-18.96 609.19,-20.63l95.87 -1.12 0 13.38zm198.97 -7.8c-22.29,2.78 -36.23,7.8 -43.47,16.17 -6.13,6.12 -14.49,11.7 -18.95,11.7 -3.9,0 -11.15,1.66 -16.16,3.34 -14.5,5.57 -10.04,-10.03 6.68,-23.97 12.83,-10.58 21.18,-12.26 59.64,-11.7l44.59 0.56 -32.33 3.9zm394.05 21.73c28.98,11.7 49.05,29.55 59.64,53.51 8.36,18.95 11.14,47.93 16.16,156.62 5.02,115.93 15.61,318.81 25.09,485.46l2.79 51.83 -101.44 0c-56.3,0 -152.73,1.67 -214.58,3.9 -64.66,1.67 -113.15,1.11 -112.59,-1.67 0,-2.79 15.6,-29.54 34.55,-59.08l34.55 -54.62 147.71 -2.23c81.37,-1.11 154.38,-5.02 162.19,-7.8 21.73,-8.36 25.63,-35.11 21.18,-132.1 -2.23,-46.26 -7.25,-148.25 -10.59,-227.4 -6.69,-158.84 -13.39,-203.43 -36.23,-226.84 -14.49,-15.05 -16.72,-15.61 -99.21,-19.51 -46.82,-2.23 -86.94,-5.57 -90.29,-8.36 -8.92,-6.69 -74.13,-11.71 -78.03,-5.57 -5.58,8.91 -12.26,6.68 -15.61,-5.02 -1.67,-6.13 -1.67,-11.71 -1.12,-12.82 5.02,-4.46 241.9,6.14 255.83,11.7zm-290.38 28.43c-27.87,12.26 -35.11,23.97 -35.67,59.64l-0.56 26.75 -4.46 -28.43c-2.22,-16.16 -6.13,-31.77 -8.36,-35.67 -7.8,-12.82 -41.25,-22.29 -78.03,-22.29 -36.23,0 -36.78,0 -44.58,18.39 -5.02,12.82 -9.48,67.44 -13.38,176.69 -3.35,87.5 -7.81,183.37 -9.48,212.9 -2.23,33.45 -1.67,54.62 1.67,54.62 7.81,0 27.31,-66.32 46.27,-158.85 19.5,-93.63 56.85,-236.87 61.87,-236.87 6.12,0 10.58,49.04 10.58,108.69 0,52.39 -1.67,60.75 -21.73,114.81 -12.26,31.77 -35.12,100.32 -51.28,152.71 -16.17,51.84 -30.1,95.87 -31.21,96.99 -4.46,6.68 -10.59,-8.92 -13.94,-37.35 -2.23,-19.51 -3.35,-2.79 -2.23,44.03 1.12,70.79 2.23,78.59 17.28,108.12l15.61 31.78 50.71 -3.35c35.12,-2.78 52.96,-6.68 57.42,-12.82 3.34,-4.46 10.02,-7.24 14.49,-6.13 6.12,1.12 5.02,7.25 -5.02,30.66l-13.37 29.53 -81.93 0 -82.5 0 3.35 -73.57c2.22,-40.68 5.57,-200.08 7.8,-354.47l4.46 -280.36 16.17 -13.37c16.16,-13.94 18.39,-13.94 114.81,-13.38l98.65 0 -23.41 10.59 0 0.01zm306.54 18.39c8.92,5.58 17.29,18.4 20.63,30.66 9.47,36.78 16.17,146.59 20.07,338.87l3.9 184.48 -13.39 8.93c-11.14,8.35 -31.76,9.46 -156.61,9.46 -118.71,0 -142.69,-1.11 -140.45,-7.8 2.78,-7.8 88.06,-13.93 212.91,-15.05 55.73,-0.55 57.4,-1.11 67.99,-16.16 10.04,-13.93 11.15,-24.52 11.15,-90.29 0,-88.62 -9.47,-346.68 -13.93,-386.81 -5.57,-45.7 -7.8,-47.37 -85.28,-54.05 -37.34,-3.35 -68,-8.37 -68,-11.16 0,-3.34 26.2,-4.45 63.55,-2.79 46.81,1.68 66.88,5.02 77.46,11.71zm-1973.03 18.95c2.79,4.46 -54.07,347.79 -59.64,362.28 -4.45,11.15 -73.01,7.81 -73.01,-3.9 0,-6.13 6.13,-7.8 25.08,-6.69 45.14,2.79 44.03,6.69 45.14,-159.96 1.12,-168.87 3.35,-162.18 -49.04,-162.18 -31.77,0 -36.23,-5.58 -20.06,-23.41 7.8,-8.37 17.83,-10.04 69.1,-10.04 32.89,0 61.32,1.67 62.43,3.91l0 -0.01zm2249.48 7.25c19.51,2.79 37.91,7.25 41.25,10.59 6.69,6.69 12.26,68.55 35.67,404.64 3.9,52.95 5.57,51.84 -118.16,54.06l-105.9 1.68 -7.24 -22.3c-8.36,-23.97 -13.94,-86.39 -25.64,-300.97 -5.01,-93.08 -5.58,-141.57 -2.23,-146.59 7.24,-8.36 127.63,-9.47 182.25,-1.11zm69.12 15.61c11.7,12.81 17.84,59.63 26.19,187.82 16.17,260.84 16.17,312.12 -3.34,331.63 -6.69,6.69 -235.2,8.92 -241.89,2.23 -2.79,-2.79 -7.25,-13.94 -8.92,-23.96 -3.9,-17.29 -2.78,-18.95 6.68,-13.94 5.58,2.79 58.53,5.57 117.05,6.69l107.01 1.67 12.82 -20.62 12.82 -21.18 -6.68 -129.87c-10.59,-202.32 -17.28,-274.21 -28.99,-304.31 -11.15,-27.32 -8.36,-33.44 7.25,-16.17l0 0.01zm-2126.87 32.32l16.72 3.35 3.9 203.99c2.78,162.75 2.23,204.55 -3.34,208.45 -3.9,2.23 -36.79,4.46 -72.46,4.46 -75.8,0 -69.11,8.91 -60.19,-76.92 7.8,-73.01 14.49,-116.48 33.99,-217.37 23.41,-121.5 32.89,-135.99 81.37,-125.96l0.01 0zm401.3 11.7c2.78,5.58 3.9,88.07 2.78,183.37l-1.67 173.35 -46.81 6.12c-27.31,3.35 -57.41,11.7 -73.58,20.07 -23.96,12.26 -36.23,13.93 -119.27,17.28l-93.08 3.9 -3.9 -183.37c-3.9,-182.26 -2.78,-201.77 15.05,-222.94 4.46,-5.58 41.8,-7.25 161.07,-7.25 142.13,0 155.51,0.56 159.41,9.47zm1473.08 213.47c15.05,273.1 14.5,265.86 31.21,277.01 12.26,7.8 27.87,8.36 123.74,5.01 60.19,-1.67 115.38,-5.01 121.5,-6.68 13.39,-3.34 24.52,-23.41 24.52,-44.04 0,-7.8 2.24,-13.92 5.02,-13.92 5.58,0 11.71,161.63 6.13,168.31 -1.66,2.24 -70.78,5.57 -153.82,7.81l-151.05 3.9 -3.9 -94.19c-1.67,-51.83 -6.13,-133.21 -8.91,-180.58 -9.48,-153.84 -16.17,-330.51 -12.83,-336.65 5.58,-8.92 5.58,-7.8 18.39,214.02zm-510.54 85.28c-23.4,71.34 -44.58,131.54 -47.37,134.32 -12.82,13.94 -8.35,-7.81 17.28,-84.71 15.05,-45.71 27.87,-87.51 27.87,-91.97 0,-5.01 9.47,-31.77 21.18,-60.75 37.34,-93.08 26.75,-33.44 -18.95,103.11l-0.01 0zm390.15 -73.57c1.68,18.95 3.35,73.01 3.35,120.39l0 86.38 -28.98 -3.9c-16.17,-2.22 -30.1,-5.01 -31.21,-5.57 -1.68,-1.67 32.32,-178.91 41.8,-219.04 5.02,-21.73 11.14,-13.38 15.04,21.74zm-594.13 167.76c-2.24,5.57 -33.45,7.8 -122.06,10.04 -65.77,1.66 -120.39,2.22 -121.51,1.66 -8.36,-5.56 14.49,-8.91 86.95,-12.81 138.22,-6.69 158.84,-6.14 156.62,1.11zm-1436.31 65.77c-0.56,16.72 -3.35,32.32 -5.57,34.56 -2.23,2.22 -12.82,-3.35 -24.52,-12.82 -14.5,-12.27 -20.63,-21.19 -20.63,-32.33 0,-20.62 3.9,-23.41 30.1,-21.73l22.29 1.66 -1.67 30.66zm1732.82 -13.94c0,8.37 33.44,28.99 33.44,21.19 0,-2.79 2.23,-0.56 5.02,3.9 7.8,11.15 2.22,16.71 -16.16,16.71 -13.39,0 -17.84,3.35 -24.53,19.51 -10.03,23.97 -17.28,25.65 -12.27,2.79 1.68,-9.48 0.56,-16.72 -2.22,-16.72 -3.35,0 -5.58,-2.78 -5.58,-6.13 0,-2.79 2.79,-3.9 5.58,-2.23 3.34,2.23 5.57,-6.68 5.57,-21.73 0,-13.94 2.79,-25.65 5.57,-25.65 3.35,0 5.58,3.9 5.58,8.36zm-75.24 52.4c6.68,11.15 -15.05,22.85 -40.69,22.85 -23.97,0 -46.26,-7.25 -40.13,-12.82 1.67,-1.12 17.83,-4.46 36.22,-7.81 18.4,-3.34 35.12,-6.12 37.35,-6.68 2.23,0 5.02,1.67 7.25,4.46zm52.94 9.47c0,4.46 -7.24,16.16 -16.71,25.09 -15.61,15.6 -18.4,16.71 -56.86,15.04 -53.5,-2.23 -50.72,-12.26 3.9,-14.49 39.02,-1.67 42.36,-2.79 54.06,-17.84 13.94,-18.95 15.61,-20.06 15.61,-7.8zm-1181.59 22.85c0,7.8 -7.8,8.36 -79.14,5.58 -44.03,-2.23 -103.12,-3.9 -130.98,-3.9 -30.66,0 -51.83,-2.23 -51.83,-5.58 0,-3.35 47.37,-5.57 130.98,-5.57 118.16,0 130.97,1.11 130.97,9.47zm433.62 0c1.68,5.58 -31.21,7.25 -153.27,7.25 -158.29,0 -215.69,-3.35 -210.12,-12.26 1.67,-2.24 83.6,-3.9 181.7,-3.35 137.11,1.11 179.47,3.35 181.7,8.36l-0.01 0zm-960.32 29.55c2.23,3.34 58.52,6.12 146.58,6.68 129.87,1.12 135.44,1.67 56.86,4.46l-86.39 2.78 -1.68 23.41 -1.67 23.97 -54.62 0c-35.11,0 -57.4,-2.23 -62.98,-7.25 -8.36,-6.68 -17.28,-50.15 -11.15,-56.29 4.46,-5.02 11.15,-3.9 15.05,2.23l0 0.01zm1007.7 2.78c0.56,3.34 -32.89,6.69 -83.6,8.36 -46.27,1.67 -86.4,5.02 -89.18,7.24 -2.23,2.79 -3.91,13.94 -3.91,25.09l0.57 20.62 -269.21 0c-243.56,0 -269.76,-1.12 -269.76,-8.92 0,-8.91 11.15,-44.03 13.93,-44.03 0.57,0 17.84,7.24 37.9,16.72 48.5,21.74 74.69,14.49 36.23,-10.59l-18.39 -11.71 134.32 0c118.72,0 136.55,1.12 156.06,10.6 34.56,16.16 79.71,30.66 83.61,26.75 1.67,-1.67 -2.23,-11.15 -8.92,-20.06 -8.91,-13.38 -10.03,-17.84 -4.46,-20.07 5.58,-2.23 246.36,-6.68 279.24,-5.57 2.79,0 5.02,2.79 5.57,5.57zm90.29 19.51c42.92,20.62 73.57,23.96 83.05,9.47 5.01,-8.36 3.9,-11.7 -4.46,-17.84 -9.48,-7.24 -2.79,-7.8 56.85,-7.24l68 1.12 0 26.19c0,22.29 -1.68,26.75 -12.27,29.54 -22.29,5.57 -254.15,3.9 -258.05,-2.23 -4.46,-6.68 19.5,-55.74 26.75,-55.74 2.79,0 21.19,7.81 40.13,16.73zm-133.76 22.29c11.14,21.18 6.68,23.41 -41.8,21.18l-34.56 -1.67 11.71 -15.05c11.14,-13.93 21.73,-18.39 46.26,-20.62 5.57,0 13.37,6.69 18.39,16.16zm-730.69 -2.23c15.04,15.05 10.03,19.51 -20.07,17.83 -35.68,-2.22 -41.8,-16.16 -10.03,-21.73 10.59,-2.23 20.06,-3.9 20.62,-4.46 0.55,0 5.02,3.34 9.48,8.36zm2238.33 88.06c0,54.07 -2.22,76.37 -6.69,79.7 -8.92,5.02 -289.82,17.84 -295.39,13.38 -1.68,-1.67 -4.46,-39.01 -5.58,-82.49l-1.66 -79.14 58.52 -2.23c32.32,-0.56 101.99,-2.23 154.94,-2.79l95.86 -1.11 0 74.68zm-323.27 18.95c1.67,44.03 1.12,81.38 -0.55,82.49 -1.68,1.12 -55.74,2.23 -119.84,2.79 -64.09,0.56 -200.08,4.46 -302.64,8.36 -102.55,4.46 -187.27,6.69 -188.39,6.13 -1.11,-1.12 -3.34,-39.57 -5.01,-85.83l-3.9 -83.61 46.82 -3.35c25.64,-2.22 60.19,-3.9 76.36,-3.9 28.42,0 28.98,0 28.98,16.73l0 16.72 -33.45 0 -33.43 0 0 52.95 0 52.95 41.23 0c52.96,0 68.56,-6.13 78.6,-30.66 12.82,-30.09 10.58,-47.37 -8.92,-67.44 -12.82,-12.82 -16.17,-21.18 -13.38,-29.54 3.35,-11.14 7.25,-11.71 135.44,-13.38 72.45,-0.55 169.99,-1.11 215.7,-1.11l83.6 0 2.78 79.7zm-1495.94 -71.33l643.19 0 0 84.71 0 85.27 -605.84 -1.11c-333.86,-0.56 -627.03,-2.79 -651.55,-5.01 -54.06,-3.9 -50.16,3.9 -47.93,-98.66 1.67,-61.31 2.78,-71.34 10.03,-68.56 5.02,1.67 298.18,3.35 652.1,3.35l0 0.01zm852.2 1.11c1.11,3.9 3.35,44.02 5.57,89.17l3.34 82.49 -100.31 0 -100.89 0 0 -83.61c0,-46.25 0.56,-84.15 1.67,-84.15 0.56,-0.56 40.13,-2.79 87.51,-5.02 47.37,-1.68 89.73,-3.9 93.64,-4.46 3.9,-0.55 7.8,2.23 9.47,5.58zm3358.06 20.61c0,6.7 -217.37,12.27 -1061.76,28.43 -165.53,3.35 -463.72,9.48 -663.25,13.94 -428.6,9.47 -480.44,10.03 -473.76,3.34 5.58,-4.46 277.57,-11.15 980.95,-22.85 418.58,-7.25 1101.34,-22.29 1111.93,-24.52 18.39,-4.46 105.89,-2.79 105.89,1.66zm-3222.62 54.62c-1.12,30.66 -3.34,37.91 -11.15,39.58 -8.92,1.67 -10.03,-2.78 -10.03,-33.99 0,-34.56 2.78,-40.7 18.39,-42.37 2.23,-0.55 3.9,16.17 2.79,36.78zm3166.33 28.43l-1.67 60.2 -323.82 12.81c-177.8,7.25 -334.41,13.94 -348.35,15.05 -13.93,0.56 -59.08,2.79 -100.88,4.46l-75.8 2.79 -3.34 -65.21c-1.12,-35.67 -1.68,-66.88 -0.56,-68.55 1.11,-2.23 65.21,-4.46 142.68,-4.46 76.91,-0.56 141.57,-1.68 143.24,-2.79 1.67,-1.12 109.79,-3.9 240.22,-6.13 130.42,-2.23 237.99,-5.01 239.1,-6.13 1.12,-1.12 22.3,-2.23 46.27,-2.23l44.03 0 -1.12 60.19zm-952.52 -6.13c0,17.84 1.67,49.05 3.35,69.12l3.9 36.78 -57.96 3.35c-31.78,2.22 -136.56,7.8 -232.98,12.25 -285.37,13.94 -501.06,24.53 -655.45,33.45 -79.7,4.46 -159.4,8.36 -176.69,8.36l-32.32 0 0 -83.05 0 -83.05 35.11 -3.34c18.95,-1.67 164.97,-5.57 324.38,-9.47 159.4,-3.9 356.15,-8.36 437.53,-10.6 81.37,-2.22 193.4,-3.9 249.7,-4.45l101.43 -1.12 0 31.77zm61.31 47.38c0,43.47 -1.12,77.47 -2.23,76.36 -5.01,-5.58 -7.8,-155.5 -3.34,-155.5 3.34,0 5.57,32.32 5.57,79.14zm-29.54 -69.11c6.69,4.45 10.03,84.16 8.36,216.25 -0.55,50.17 -2.23,62.98 -9.47,65.21 -7.25,3.35 -8.37,-9.48 -8.37,-103.67 0,-59.08 -1.66,-123.74 -3.9,-144.91 -3.34,-36.23 -1.11,-41.8 13.39,-32.88l-0.01 0zm-1201.65 120.94c-1.12,58.53 -2.79,107.01 -3.9,108.13 -0.57,0.56 -3.9,0 -7.25,-2.23 -3.9,-2.23 -6.14,-40.13 -6.14,-109.24 0,-98.09 0.56,-105.9 10.04,-104.22 8.92,1.66 9.47,10.59 7.25,107.56zm-39.58 125.41c0,199.53 -1.12,228.51 -8.36,228.51 -7.25,0 -8.36,-28.97 -8.36,-228.51 0,-199.53 1.11,-228.52 8.36,-228.52 7.24,0 8.36,28.99 8.36,228.52zm1294.18 -93.64c2.79,104.79 2.79,121.51 -3.34,115.37 -5.02,-5.57 -10.04,-227.95 -5.02,-227.95 3.34,0 6.69,45.7 8.36,112.58zm-1470.3 31.21c2.79,64.65 2.79,115.37 0,118.16 -5.57,5.02 -182.82,16.72 -254.16,16.72l-49.04 0 0 -111.47c0,-61.31 -0.57,-113.14 -1.12,-115.93 -1.11,-2.23 27.31,-5.57 62.42,-7.8 191.73,-12.26 220.72,-13.94 228.52,-13.38 6.69,0.56 8.92,19.51 13.38,113.7zm-319.93 -51.83c0,40.69 -0.55,41.8 -13.93,41.8 -7.8,0 -15.61,0.56 -17.83,1.11 -2.23,1.12 -5.58,-5.57 -7.25,-15.04 -2.23,-12.82 -6.69,-17.28 -20.06,-20.07 -9.48,-1.67 -25.09,-2.22 -35.12,-0.56 -16.71,2.24 -20.62,9.48 -17.83,32.89 0.55,3.35 -5.02,7.25 -11.71,8.37 -10.58,1.1 -12.82,5.01 -12.82,21.17 0,15.05 2.24,19.5 10.04,18.95 6.12,-0.56 9.47,2.79 9.47,11.15 0,6.69 3.35,16.71 7.25,22.29 6.69,8.92 12.26,10.03 39.01,6.69 27.87,-3.9 31.77,-5.57 31.77,-16.17 0,-18.95 16.16,-38.45 29.54,-36.22 11.7,1.67 12.26,4.46 12.26,57.4l0 55.74 -97.54 3.9c-185.6,7.81 -178.35,3.35 -197.3,112.59 -7.81,42.35 -15.05,78.03 -16.72,79.7 -2.79,3.34 -64.65,9.47 -145.47,15.61 -27.31,1.66 -70.23,5.57 -94.75,8.91 -24.52,2.79 -51.28,5.02 -59.64,5.02l-15.6 0 1.11 -217.37 1.67 -217.37 16.72 0c9.47,-0.56 36.78,-1.67 61.31,-2.79 86.4,-4.45 190.62,-8.35 320.48,-11.7 71.9,-2.23 132.09,-4.46 133.21,-5.57 1.12,-1.12 22.29,-2.23 46.26,-2.23l43.47 0 0 41.79 0 0.01zm-2032.67 151.6c1.67,100.88 5.02,191.17 7.24,201.21l3.35 18.39 -32.33 -1.67 -32.32 -1.67 -36.23 -58.53 -36.23 -58.52 -2.23 -137.67 -2.23 -137.66 23.96 -2.23c13.39,-1.12 42.37,-2.23 64.1,-2.78l40.13 -1.12 2.79 182.25zm456.48 -171.67c2.78,2.24 6.12,19.51 7.8,38.46 3.34,31.77 2.79,36.23 -8.92,48.5 -15.6,16.72 -41.8,18.38 -49.6,3.9 -2.79,-5.03 -6.69,-21.19 -8.92,-35.12l-3.9 -26.19 -103.67 -3.35c-57.41,-1.67 -133.2,-5.02 -168.88,-6.69 -56.29,-2.78 -66.33,-1.66 -74.13,6.69 -8.91,8.36 -9.47,24.52 -7.8,170 1.12,88.06 3.35,161.63 5.57,163.86 4.46,5.02 852.2,36.78 858.89,32.33 7.24,-4.47 -2.23,-322.16 -10.03,-347.24 -2.23,-7.25 -30.1,-8.36 -207.33,-8.36 -201.22,0 -205.12,0 -205.12,-11.15 0,-6.13 1.68,-15.6 4.46,-21.18 4.46,-8.91 18.4,-10.03 213.47,-9.47l208.46 0.56 10.02 15.04c8.36,12.82 10.04,37.35 12.26,216.82 1.68,128.18 5.03,202.87 8.37,203.99 7.8,1.67 10.03,-309.33 3.34,-366.74 -3.34,-24.52 -7.24,-49.61 -8.92,-55.74 -3.34,-11.15 -1.11,-11.15 123.74,-9.47 69.67,1.11 127.63,2.79 128.75,3.34 1.11,1.11 3.9,70.79 6.13,154.39l3.9 152.71 -19.51 18.95c-11.14,10.04 -44.03,40.69 -73.57,67.44l-54.06 48.49 -62.98 -1.67c-35.11,-1.67 -124.85,-5.01 -200.09,-7.8 -75.24,-2.79 -277.01,-10.59 -448.68,-17.28 -171.66,-6.69 -314.35,-13.93 -316.57,-16.16 -2.79,-2.24 -7.25,-93.09 -9.48,-201.21 -3.9,-149.37 -3.34,-198.98 1.68,-204.55 5.57,-7.25 39.01,-7.8 224.05,-4.45 119.28,2.22 219.04,6.12 221.27,8.35zm4228.09 46.27l-1.67 57.41 -50.17 3.9c-27.31,1.66 -122.61,7.8 -211.78,12.26 -88.63,5.01 -177.81,10.03 -197.87,11.7 -51.83,3.35 -224.06,13.93 -310.45,18.39l-74.13 3.9 0 -62.42c0,-60.75 0.57,-62.98 12.83,-65.21 6.68,-1.67 131.53,-8.36 277.01,-15.05 145.46,-6.13 303.75,-13.38 351.13,-15.6 47.37,-2.8 113.7,-5.02 146.58,-5.02l60.2 -1.12 -1.68 56.85 0 0.01zm-3345.25 -45.71c27.31,0 35.11,2.23 38.46,9.48 8.92,21.73 18.4,108.13 18.95,165.53l0 61.31 -69.67 73.58c-37.9,40.12 -69.11,74.68 -69.11,76.35 0,1.68 26.2,1.68 57.96,0 66.33,-3.9 69.12,-1.67 59.08,34.56l-6.68 24.52 -70.78 1.67 -70.23 1.67 1.67 -206.22c1.67,-201.2 1.11,-206.22 -10.03,-221.27 -6.69,-8.91 -10.03,-18.39 -8.37,-21.18 1.68,-2.79 23.41,-3.9 49.06,-2.79 25.07,1.68 61.3,2.79 79.69,2.79zm-1491.48 184.49c0,117.6 -1.67,177.23 -5.58,175.01 -3.34,-2.23 -5.56,-68 -5.56,-178.92 0,-113.14 2.22,-175 5.56,-175 3.35,0 5.58,63.53 5.58,178.91zm3891.46 -86.95l1.67 69.67 -22.29 2.79c-12.27,1.11 -151.61,11.7 -309.34,22.29 -347.23,23.97 -661.02,45.14 -744.07,51.28 -33.44,2.22 -64.65,4.46 -69.11,4.46 -5.57,0 -7.24,-15.61 -6.69,-78.03 0.56,-42.36 1.67,-78.03 2.24,-78.59 1.11,-1.12 236.87,-12.82 435.85,-21.74 98.65,-4.46 175.56,-8.92 200.65,-11.15 12.25,-1.67 95.3,-6.69 183.92,-11.7 157.17,-8.92 288.71,-16.17 313.23,-17.83 11.7,-1.12 12.27,0.55 13.94,68.55zm-2521.48 118.16c1.68,205.66 -6.69,257.49 -11.7,76.35 -6.13,-190.61 -5.01,-254.15 3.34,-251.92 5.01,2.23 7.25,43.48 8.36,175.57zm745.18 -153.83c-4.46,6.69 -30.65,6.69 -30.65,0 0,-5.57 21.74,-11.15 29.54,-7.25 2.23,1.12 2.79,4.46 1.11,7.25zm-2.78 52.39c0,5.02 -5.02,8.37 -13.93,8.37 -8.92,0 -13.94,-3.35 -13.94,-8.37 0,-5.02 5.02,-8.36 13.94,-8.36 8.91,0 13.93,3.34 13.93,8.36zm596.37 85.28c0,85.27 -5.58,168.88 -10.59,166.09 -1.67,-1.11 -2.79,-57.97 -1.67,-125.41 1.11,-77.47 3.34,-122.06 6.68,-120.39 3.35,2.23 5.58,36.79 5.58,79.71zm2134.11 -51.28c-0.55,17.28 -3.9,31.77 -7.25,32.89 -5.57,1.66 -85.27,8.35 -404.07,33.99 -112.59,8.92 -113.15,8.92 -128.75,-2.23 -54.63,-40.68 -109.8,-37.34 -155.51,8.92 -23.41,23.41 -17.83,22.3 -135.43,32.33l-43.47 3.9 0 -36.79 0 -36.23 19.5 -3.34c10.59,-2.24 19.51,-6.14 19.51,-8.92 0,-12.82 10.58,-3.9 12.26,9.48 1.67,13.37 4.46,15.6 22.85,17.27 23.41,2.23 37.34,-6.12 37.34,-21.73 0,-5.58 2.23,-11.15 5.02,-13.38 4.46,-2.79 93.08,-10.03 173.34,-15.05 23.96,-1.12 25.08,-0.56 23.96,13.38 -0.55,13.93 1.12,15.61 23.96,18.95 32.33,4.46 43.48,0 40.13,-16.73 -1.67,-7.8 -1.11,-16.16 0.57,-18.94 1.66,-3.34 40.13,-7.25 85.83,-9.48l81.93 -4.46 0 17.84c0,15.61 1.67,17.28 16.16,17.28 26.19,0 44.03,-9.47 46.27,-23.41 1.66,-11.15 5.56,-13.38 35.11,-16.16 18.39,-2.23 56.29,-3.9 84.71,-4.46 49.05,-0.56 51.28,0 52.95,11.7 1.11,10.03 6.13,13.37 19.51,14.49 20.62,2.23 40.69,-6.68 40.69,-18.39 0,-6.69 5.57,-8.92 29.54,-13.38 2.22,0 3.9,13.38 3.34,30.65l0 0.01zm-941.37 74.69c0,24.52 -1.67,44.58 -3.9,44.58 -5.58,0 -639.84,51.84 -921.31,75.24 -127.07,10.6 -232.98,19.51 -235.76,19.51 -2.23,0 -3.34,-23.41 -2.79,-51.83l1.67 -51.28 33.45 0.56c30.09,1.11 33.44,2.23 36.22,13.93 2.79,11.71 7.25,13.38 30.1,15.05 28.98,1.67 42.36,-5.01 42.36,-22.3 0,-12.82 3.34,-13.93 61.31,-18.38 26.2,-1.68 76.35,-5.58 111.47,-8.37 35.11,-2.78 73.57,-5.58 85.83,-5.58 20.07,0 21.19,1.12 17.84,13.95 -3.34,13.92 -3.34,13.92 31.21,13.92 40.69,0 47.38,-3.34 49.61,-22.29 2.22,-15.61 6.68,-16.16 170.55,-25.08l73.01 -3.9 2.23 12.82c1.67,15.05 20.07,19.5 52.95,13.38 13.38,-2.23 18.39,-6.14 18.39,-13.94 0,-5.57 1.67,-11.7 4.46,-12.82 2.23,-1.67 44.03,-6.68 93.08,-11.7 49.05,-5.01 96.98,-10.04 107.01,-11.15 15.61,-2.23 17.84,-1.11 19.51,12.26 1.67,13.38 4.46,15.05 25.64,16.72 26.19,1.67 40.13,-5.57 40.13,-21.73 0,-7.25 5.02,-10.59 21.18,-12.26 11.15,-1.12 23.96,-2.23 27.87,-2.8 5.01,-1.11 6.69,11.15 6.69,43.48l-0.01 0.01zm27.87 -2.79c0,33.44 -1.67,41.8 -8.36,41.8 -6.69,0 -8.37,-7.8 -8.37,-37.9 0,-21.18 1.68,-40.13 3.9,-41.8 9.48,-10.03 12.83,-0.56 12.83,37.9zm-3312.36 2.79c50.72,0 74.12,2.22 74.12,6.12 0,7.25 -410.77,1.12 -459.26,-6.68 -16.72,-2.79 41.25,-3.34 141.01,-2.23 93.08,1.67 202.88,2.79 244.13,2.79zm293.16 10.03c66.33,1.11 120.95,4.45 120.95,7.24 0,2.79 -60.19,5.02 -133.76,5.02 -107.57,0 -133.77,-1.67 -133.77,-7.25 0,-11.14 6.69,-15.61 16.16,-11.7 5.02,2.23 63.54,5.01 130.42,6.69zm-288.71 17.83c29.54,2.23 41.25,5.02 34.56,7.8 -13.94,6.69 -304.87,-2.22 -304.87,-8.91 0,-5.57 195.63,-5.02 270.31,1.11zm3357.51 45.7c17.28,7.81 28.43,16.17 28.43,21.74 0,8.36 -11.7,10.04 -87.51,13.38 -48.49,2.23 -110.35,5.58 -138.22,7.8l-50.16 3.34 2.23 173.9c1.11,126.52 0,174.46 -4.47,174.46 -3.34,0 -6.12,-1.68 -6.12,-4.47 0,-2.22 -1.68,-80.81 -3.9,-174.45l-3.35 -169.99 16.16 -6.69c8.92,-3.34 52.95,-7.8 98.1,-9.47 89.17,-4.46 159.96,-12.26 118.72,-13.38 -31.21,-0.56 -202.88,10.03 -221.27,13.93 -13.94,2.79 -15.61,1.68 -15.61,-10.59 0,-31.21 34.56,-37.9 176.68,-34.55 51.28,1.67 66.88,3.9 90.29,15.05l0 -0.01zm-2950.64 -6.12c2.23,3.34 2.79,6.69 1.68,7.8 -4.46,4.46 -260.85,-4.46 -260.85,-9.48 0,-6.68 254.71,-5.57 259.17,1.68zm3043.72 47.93c-10.59,27.31 -23.41,66.32 -28.98,86.94 -5.02,20.07 -12.82,40.13 -16.72,43.48 -10.03,8.36 -10.03,1.12 0.56,-43.48 8.36,-36.22 56.29,-144.91 61.3,-139.89 1.68,1.67 -5.57,25.08 -16.16,52.95zm-552.9 -17.28c5.58,15.05 3.9,136 -2.22,136 -3.35,0 -5.58,-18.4 -5.58,-43.48 0,-23.41 -1.67,-56.29 -3.34,-72.45 -2.79,-18.4 -1.68,-28.99 2.22,-28.99 2.8,0 7.25,3.9 8.92,8.92zm-620.89 118.71c0,71.35 -4.46,98.1 -13.38,75.25 -1.67,-5.02 -3.34,-41.24 -3.34,-80.82 0,-60.19 1.11,-71.9 8.36,-71.9 7.25,0 8.36,12.26 8.36,77.47zm1605.18 -28.98c0,17.28 -8.35,34 -14.49,28.43 -5.01,-5.57 2.79,-43.47 8.92,-43.47 3.34,0 5.57,6.69 5.57,15.04zm-4325.07 1.67c56.85,2.8 166.09,7.81 242.44,11.15 76.91,2.79 253.6,10.59 392.94,16.16 139.34,6.14 307.66,12.27 373.43,14.5 156.05,4.46 163.86,5.01 172.22,22.85 3.34,7.8 6.13,15.61 6.13,17.27 0,3.35 -439.2,-2.22 -568.5,-7.24 -290.94,-11.15 -692.24,-37.34 -722.89,-47.38 -20.07,-6.68 -32.33,-18.39 -26.75,-27.31 4.46,-6.68 3.34,-6.68 130.98,0zm1677.08 28.99c-7.25,10.03 -15.05,20.06 -17.28,21.73 -2.79,1.68 -46.82,6.13 -98.09,10.03 -51.28,3.91 -113.7,8.93 -139.35,11.16 -25.63,2.22 -47.37,2.22 -49.04,0 -1.12,-2.23 0.56,-10.59 3.9,-18.4 7.8,-16.72 6.13,-16.17 161.08,-28.98 59.63,-5.02 109.79,-10.03 110.91,-11.15 1.12,-1.11 11.15,-2.23 21.18,-2.23l18.95 0 -12.26 17.84zm-1650.33 41.8c2.23,21.18 4.46,21.18 -60.19,10.59 -56.3,-9.47 -66.88,-13.37 -66.88,-23.41 0,-8.36 40.68,-12.26 91.95,-7.8 32.89,2.78 33.45,2.78 35.12,20.62zm1330.41 -9.47l-8.93 16.71 -62.97 0c-35.12,0 -66.88,1.12 -71.34,2.79 -7.8,2.79 -28.43,-27.31 -22.3,-32.89 1.68,-1.66 41.24,-3.34 88.63,-3.34l85.83 0 -8.92 16.72 0 0.01zm-1234.54 13.93c0,13.38 -1.12,13.93 -39.02,13.93 -21.18,0 -39.01,-1.67 -39.01,-3.34 0,-11.15 27.86,-23.97 51.83,-24.52 24.52,0 26.2,1.11 26.2,13.92l0 0.01zm1536.07 3.9c-1.68,7.25 -3.35,16.17 -3.35,19.5 0,3.9 -2.23,7.25 -5.57,7.25 -6.13,0 -7.8,-29.54 -1.68,-35.11 7.8,-8.36 13.94,-3.35 10.6,8.36zm1834.81 13.93l-1.67 26.76 -250.81 26.2c-345.57,36.22 -693.35,71.34 -713.41,73.01 -16.17,1.12 -16.72,0 -18.4,-22.86 -1.11,-12.82 -1.11,-23.41 0,-23.96 5.58,-1.67 947.5,-104.22 964.78,-104.78l21.18 -0.56 -1.67 26.19zm-1857.67 11.15c1.67,7.24 7.81,12.82 15.61,13.93 8.92,1.12 12.82,6.14 13.94,17.28 1.66,15.61 1.66,15.61 -27.88,13.93l-29.53 -1.66 -3.9 -25.09c-3.9,-22.85 -3.35,-25.63 11.14,-36.78 13.38,-11.15 15.05,-11.15 16.72,-3.35 0.56,5.02 2.79,15.05 3.9,21.74zm-722.32 -11.7c13.92,2.79 17.27,6.13 17.27,18.39l0 14.49 -41.8 -1.67c-39.02,-1.67 -41.8,-2.79 -41.8,-14.49 0,-7.25 1.66,-14.49 3.9,-16.17 4.46,-5.01 39.57,-5.01 62.43,-0.55zm74.68 13.37c2.78,10.59 7.8,11.15 99.76,11.15 52.95,0 102,1.68 109.25,3.35 8.92,2.78 12.25,1.11 12.25,-5.02 0,-14.49 11.15,-16.72 23.97,-5.02 6.69,6.13 23.41,13.94 37.34,17.28 18.4,4.46 -15.61,5.01 -130.97,2.79 -85.83,-2.23 -157.74,-4.46 -159.96,-6.13 -6.14,-3.35 -5.58,-29.54 0.55,-29.54 2.79,0 6.13,5.01 7.81,11.14zm342.77 -4.46c2.79,3.9 7.24,13.38 9.47,20.62 6.14,20.07 -7.8,12.27 -17.27,-9.47 -7.25,-17.84 -2.79,-23.96 7.8,-11.15zm253.6 19.51c1.11,11.7 0,23.97 -2.23,27.31 -2.79,3.35 -35.12,7.8 -75.25,9.48 -55.17,2.78 -72.45,2.22 -81.93,-4.46 -6.69,-3.9 -23.96,-10.59 -38.46,-14.49 -15.05,-3.34 -26.75,-8.36 -26.75,-10.59 0,-2.79 15.61,-6.14 35.11,-7.8 18.95,-2.24 65.77,-7.25 104.23,-11.15 38.46,-4.46 72.46,-7.81 75.8,-8.36 3.9,0 7.8,8.91 9.48,20.06zm1915.62 15.61c0,4.46 -1.11,8.36 -2.22,8.36 -1.12,0 -218.48,25.08 -483.23,55.74 -264.74,30.65 -486.02,55.73 -491.03,55.73 -14.49,0 -12.26,-16.17 2.79,-19.51 6.69,-1.11 148.81,-17.83 316.02,-36.78 167.2,-18.4 375.1,-42.36 462.6,-52.39 190.62,-21.74 195.08,-22.3 195.08,-11.15l-0.01 0zm-3614.44 32.32l61.31 6.69 -1.67 89.18c-0.56,48.49 -2.79,89.73 -3.9,90.85 -2.79,2.78 -143.8,-10.03 -162.75,-15.05 -8.36,-2.23 -16.17,-8.36 -17.28,-13.38 -2.22,-11.7 2.23,-11.7 88.06,-1.11 35.12,3.9 65.78,6.13 68,5.01 2.79,-1.67 4.46,-32.88 4.46,-69.11 0,-78.03 11.15,-68.55 -94.76,-78.03 -38.45,-3.9 -70.22,-7.25 -71.33,-7.8 -0.56,-1.11 0,-6.13 2.23,-11.15 2.78,-7.81 8.92,-8.92 35.11,-6.13 17.28,2.22 59.08,6.69 92.52,10.03zm3609.99 9.48c2.79,18.4 6.13,16.72 -64.65,28.42 -41.25,6.7 -47.94,3.9 -47.94,-20.61 0,-11.15 4.46,-12.82 46.27,-17.84 25.07,-2.79 49.6,-5.57 54.62,-6.14 6.13,-0.55 10.03,5.02 11.7,16.17zm-1003.24 22.85c2.23,26.2 -0.56,28.98 -35.11,26.2 -24.52,-1.68 -24.52,-1.68 -26.2,-25.64l-1.67 -23.41 30.09 0 30.66 0 2.23 22.85zm851.63 -2.79c10.6,27.31 25.09,23.41 -150.48,44.04 -65.76,7.8 -161.07,18.94 -211.79,25.07 -50.72,6.14 -164.43,20.07 -253.6,30.66 -88.62,10.59 -173.34,21.18 -187.83,22.85l-26.75 3.35 0 -24.53c0,-24.52 0,-24.52 21.18,-25.64 21.18,-1.11 146.02,-16.16 525.03,-61.86 120.95,-15.05 233.53,-27.31 249.69,-27.87 26.75,-0.56 29.54,0.56 34.55,13.93zm-3467.85 20.07c1.66,12.82 0,15.05 -7.81,11.7 -6.13,-2.22 -12.26,0.56 -17.28,7.25 -4.46,5.57 -10.59,10.59 -14.49,10.59 -3.9,0 -7.8,6.13 -8.36,13.37 -1.67,10.04 0,12.27 6.69,10.04 5.02,-2.23 8.92,-1.12 8.92,1.67 0,2.79 6.13,6.69 13.93,8.91 18.95,4.47 17.28,11.16 -2.79,15.61 -22.85,4.46 -37.9,-6.13 -45.14,-31.21 -4.47,-18.39 -3.34,-23.41 8.91,-43.47 13.38,-21.18 16.17,-22.86 35.12,-21.18 17.83,1.67 20.62,3.9 22.29,16.72l0.01 0zm637.61 3.34c1.67,2.23 4.45,31.22 5.57,65.21l1.67 61.31 -112.03 -2.22c-61.86,-1.12 -127.07,-3.35 -144.91,-5.58l-32.88 -3.34 -1.67 -63.54 -1.67 -63.54 141 3.9c77.48,2.23 142.69,6.13 144.92,7.8zm2980.74 9.48c0,8.91 12.26,6.68 -211.8,33.99 -253.6,30.11 -696.14,85.28 -730.14,90.85 -31.77,5.02 -44.03,3.35 -34.56,-6.12 2.79,-2.8 93.64,-16.17 202.33,-30.11 389.58,-49.04 752.98,-96.97 760.22,-99.2 8.37,-2.79 13.95,1.67 13.95,10.59zm-2134.12 11.7c25.08,5.58 30.09,24.52 28.43,99.21 -0.56,48.49 -3.35,70.23 -9.48,79.7l-8.36 12.82 -171.67 -0.56c-94.19,-0.55 -205.1,-2.22 -246.34,-4.45l-75.25 -3.35 -1.67 -96.98 -1.11 -96.98 235.19 3.9c129.87,1.67 242.45,5.02 250.25,6.69l0.01 0zm1136.45 7.8c0,2.79 -13.94,5.58 -30.66,5.58 -16.71,0 -30.65,-2.79 -30.65,-5.58 0,-3.34 13.93,-5.57 30.65,-5.57 16.72,0 30.66,2.23 30.66,5.57zm996.55 17.84l-1.67 18.39 -122.62 17.84c-67.44,10.03 -269.2,39.57 -448.11,66.33l-325.5 47.93 -8.92 -11.7c-8.35,-10.59 -12.81,-11.7 -41.24,-8.37 -30.1,3.35 -31.77,3.35 -31.77,-8.36 0,-6.13 0.56,-11.7 1.67,-12.26 9.47,-2.22 948.06,-126.52 961.44,-127.07 17.84,-0.56 18.39,0.55 16.72,17.27zm-3681.34 22.29c4.47,15.61 3.35,16.73 -19.5,14.49l-18.4 -1.67 12.83 -12.82c15.6,-15.6 21.17,-15.6 25.07,0zm4014.08 40.69c5.02,18.4 16.72,47.93 25.64,65.22 20.62,42.35 11.7,41.8 -10.59,0 -17.84,-32.89 -35.11,-88.63 -34,-109.81 0,-11.14 0,-11.14 5.01,0 2.24,6.14 8.37,26.2 13.94,44.59zm-1329.29 -40.69c-0.56,26.76 -6.69,32.33 -34,32.33l-27.31 0 0 -19.51 0 -19.5 30.65 0c20.62,0 30.66,2.23 30.66,6.68zm1198.87 22.3c10.03,44.03 41.24,108.12 56.29,118.16 7.81,5.01 16.72,15.6 20.06,23.41 8.37,17.84 8.37,18.95 -0.55,18.95 -8.36,0 -36.23,-28.43 -50.16,-51.28 -10.03,-16.16 -34,-88.62 -39.57,-120.39 -5.02,-29.54 6.13,-20.07 13.93,11.15zm105.34 74.12c10.03,18.4 22.29,38.47 27.31,44.04 6.69,7.8 7.24,10.03 1.12,8.36 -14.5,-5.02 -56.85,-82.49 -61.87,-114.82 -2.79,-17.27 -3.35,-34 -1.11,-37.34 1.66,-3.34 6.13,10.03 9.47,30.1 3.9,21.18 13.94,50.16 25.08,69.66zm-151.04 -50.15c3.9,18.39 16.16,49.04 26.75,68.55 22.85,41.8 21.18,52.39 -2.23,13.93 -20.06,-32.88 -33.44,-69.11 -38.46,-101.99 -5.57,-36.23 5.58,-21.18 13.93,19.51l0.01 0zm-149.94 -25.09c0,7.8 -5.01,11.71 -17.83,13.94 -56.3,9.47 -820.99,118.71 -852.75,122.06 -23.41,2.23 -26.76,1.11 -26.76,-8.36 0,-5.58 3.35,-10.59 7.25,-10.59 13.38,0 784.75,-113.7 828.79,-122.06 45.15,-8.92 61.31,-7.25 61.31,5.01l-0.01 0zm110.37 17.84c3.34,16.17 7.8,35.67 10.03,43.48 2.23,7.8 1.67,11.7 -1.12,9.47 -6.13,-6.13 -23.96,-81.93 -18.95,-81.93 2.23,0 6.69,13.37 10.04,28.98zm-43.48 -2.23c0.56,10.03 8.92,34 25.08,70.79 7.81,18.39 8.36,20.62 1.12,14.49 -12.27,-10.04 -42.37,-104.79 -31.22,-97.54 2.79,1.67 5.02,7.25 5.02,12.26zm176.13 33.44c5.57,14.49 18.38,38.46 28.42,52.95 10.59,15.05 17.84,28.43 16.16,30.1 -6.69,6.69 -49.6,-64.66 -61.86,-104.23 -7.8,-23.96 7.24,-5.57 17.28,21.18zm-1244.58 -7.24c-1.12,2.79 -13.93,6.13 -29.54,7.24 -22.3,1.12 -27.87,0 -27.87,-7.24 0,-7.25 5.57,-8.36 29.54,-7.25 15.61,1.12 28.43,3.9 27.87,7.25zm-1.67 45.7c0,11.71 -2.79,12.82 -27.87,12.82 -23.41,0 -27.87,-1.67 -27.87,-10.03 0,-14.49 1.12,-15.05 30.1,-15.05 22.85,-0.56 25.64,1.11 25.64,12.26zm-784.2 321.04c18.39,23.41 17.83,33.44 -0.55,13.38 -13.94,-15.06 -51.29,-76.36 -51.29,-84.17 0,-3.34 7.8,6.14 17.84,21.74 9.47,15.05 24.52,37.34 34,49.05zm-80.26 6.69c12.82,11.7 22.85,24.52 22.85,27.31 0,8.36 -55.17,-46.82 -64.09,-63.54 -15.05,-29.54 -13.94,-40.13 1.67,-13.94 9.47,15.05 27.31,37.9 39.57,50.17zm112.58 -43.48c7.25,11.7 21.75,32.33 32.33,45.7 15.05,18.4 16.73,22.86 8.36,18.4 -10.59,-5.58 -57.96,-71.9 -57.96,-80.82 0,-8.36 5.02,-3.34 17.27,16.72z"/>
 </g>
</svg>
