<?xml version="1.0" encoding="utf-8"?>
<!-- Generator: Adobe Illustrator 26.0.1, SVG Export Plug-In . SVG Version: 6.00 Build 0)  -->
<svg version="1.1" id="Слой_1" xmlns:xodm="http://www.corel.com/coreldraw/odm/2003"
	 xmlns="http://www.w3.org/2000/svg" xmlns:xlink="http://www.w3.org/1999/xlink" x="0px" y="0px" viewBox="0 0 238.1 150.2"
	 style="enable-background:new 0 0 238.1 150.2;" xml:space="preserve">
<style type="text/css">
	.st0{fill-rule:evenodd;clip-rule:evenodd;fill:#373435;}
</style>
<g id="Слой_x0020_1">
	<path class="st0" d="M168.3,126.1c0.3,0.4,0.4,0.1,0.6,0.6c-0.6,0-1.2-0.7-1.3-1.3C168.4,125.6,167.8,125.6,168.3,126.1z
		 M175.4,58.7C175.4,58.7,175.5,58.7,175.4,58.7l0.4,0.2c0.4,0.1,0.4-0.2,0.4-0.2l0.3-0.1c0.3-0.4,1.4-1.1,1.7-1
		c0.3,0.4,0.2,0.5,0.8,0.5c0.4,0,1,0,1.4,0c0.6,0.6,1.2,1.1,1.6,1.8c-0.3,0.6-2.8,2.6-3.3,3.4l-0.6,0l0,0c0-0.1,0-0.1-0.1,0
		l-1.1-0.5c-0.3,0.1-3.1-0.7-3.4-0.9c0-0.6,0.1-2.6,0.3-2.9c0.7-0.3,0.9-0.1,1.5-0.2C175.5,58.7,175.3,58.8,175.4,58.7z M151.6,40.6
		c0-0.3-0.1-0.4-0.2-0.6c-0.2-0.5,0-0.3-0.4-0.4c-0.2,0.7-0.2,1.1-0.1,1.8c0.2,0.7,0.3,0.8,0.7,1.4c0.4,0.7,0.3,0.8,0.7,1.2
		c-0.1,0.1,0.2,0.2-0.3,0.1c-0.2-0.4-0.5-0.7-0.7-1.1c-0.2-0.3-0.5-1-0.6-1.2c-0.4-1.6-1.4-3.3-1.2-5.2c0.1-1,0.3-1.8,0.5-2.7
		c0.1-0.7,0.2-2.2,0.4-2.7c0.1-2,0.1-4,0-6c-0.1-1-0.2-1.9-0.3-2.8c-0.1-0.7-0.4-2-0.4-2.6c-0.2-0.3-0.2-1-0.3-1.3
		c-0.1-0.4-0.2-0.9-0.3-1.3c-0.2-0.7-0.6-1.9-0.6-2.5c0.7,0.1,3.7,2.4,4.2,2.6c0.6,0.3,0.6,0.1,1.5,0.8l3.9,2.9
		c0.4,0.3,0.7,0.8,1.4,0.9c0,0.3-1.1,1.6-1.6,2.1c-0.5,0.6-1.2,1.6-1.5,2.4c-1.1,2.2-1.2,3.8-0.7,6.4l0.1,0
		c-0.1,0.8,0.8,3.9,2.3,4.9c0.6,0.4,1,0.3,1.7,0.7l6.2,3.4l0.5,8.8c0,0.5,0.4,1.9-0.3,1.8c-0.5-0.1-0.3-1.5-0.4-2
		c-0.2-1.8-0.2-5.5-0.4-6.4c-0.4-1.5-0.8-1.1-2.5-2.1l-6.6-3.8c-0.3-0.2-0.5-0.1-0.8-0.3c-0.4-1.1-1.1-2.8-1-4.1
		c-0.2-0.2-0.1-0.3-0.2-0.4c0-0.1,0-0.4,0-0.5c-0.1-1-0.2-1.8-0.1-2.9c0.2-2-0.1-1.7,0.8-3.3c0.6-0.9,1.1-1.6,1.8-2.5
		c0.6-0.7,1.8-1.8,1.8-2.2c-0.5,0-0.7,0.4-1,0.6c-0.3,0.2-0.1,0.1-0.4,0.3c0,0.2-1.6,1.8-1.8,1.9l-0.4,0.3c-0.1,0.4-2.1,2.6-2.5,3.1
		c-2.3,3.1-2.7,4.8-1.6,8.7c0.3,1.2,1.3,2.6,1.6,4.1c0.5,0.3,0.6,0.5,1.3,0.7c0.6,0.2,1.1,0.3,1.7,0.4c1.7,0.5,4.8,1.4,6.2,2.2
		c0.8,0.4,2.3,0.9,2.8,1.4c0,0,0.8,5.3,0.4,6.1c-0.2,0.3-0.7,0.9-0.9,1.3c0,0-0.1,0-0.1,0.1l-0.2,0.2c-0.4-0.1-1.6-0.4-1.9-0.7
		l0.4-0.8c0.2-0.3,0.5-0.7,0.7-1.1c0.4-0.6,0.4-0.4,0.5-1.3l0-2.5c0.4,0,0.6,0,0.8-0.1c0.1-0.6-0.1-0.5-0.6-0.7
		c-0.7-0.3-1.7-1-2.8-1.1c-1-0.5-6.1-2.2-7.3-2.1c-0.4-0.3-0.5,0-0.9-0.7c-0.2-0.3-0.4-0.7-0.4-1c-0.1-0.1-0.1,0-0.2-0.2
		c-0.1-0.1-0.1-0.1-0.1-0.2C151.7,40.7,152,40.9,151.6,40.6L151.6,40.6z M171.9,110.4c0.1,0.5,0.1,0.2-0.1,0.3
		c-0.3-0.2-0.4-0.4-0.7-0.5c0.1,0.4,0.4,0.7,0.7,0.9c0,0.2,0,0.2-0.1,0.2c0,0.1-0.1,0,0,0.2c0,0.2,0.3,0.3,0.5,0.4
		c0,0.4,0.5,0.4,0.7,0.9l-0.6-0.3l0,0.4c0.3,0.2,0.4,0.4,0.7,0.7c0,0,0,0.1,0,0.1c-0.2,0.4-0.2,0.4-0.1,0.6c0.2,0.5,0.4,0.1,0.5,0.9
		c0,0,0,0.1,0,0.1c0.2,0.7,0.4,0.1,1,1.9c0.2,0.6,0.2,1,0.3,1.6c0.2,1.2,1.3,2.9,1.5,5.7c-0.3-0.1-0.8-0.5-1-0.7
		c-0.4-0.5,0.1-0.1-0.5-1c-0.6-0.8,0.3-0.3-0.3-1c-0.2-0.3-0.3-0.4-0.6-0.8c0-0.3,0-0.2,0.1-0.6c-0.5-0.2-0.4-0.6-0.9-0.9
		c0-0.7,0.5-0.2-0.7-1.6c0,0,0,0-0.1-0.1c-0.9-1.4-0.3-0.5-0.4-1.2c0-0.3-0.5-0.7-0.7-1c0.2-0.6,0,0,0.3-0.5
		c-0.3-0.7-0.4-0.3-0.6-1.1c-0.3,0-0.2-0.1-0.4-0.4c-0.1-0.2-0.1-0.1-0.3-0.3c-0.5-0.6,0.1-0.5-0.4-1c-0.6-0.6-1.9-2.1-2.2-2.7
		l0-0.2c0.2,0.2,0.3,0.2,0.4,0.4l0.7,1c0.4,0.6,0,0.4,0.7,0.5c-0.2-0.6-0.4-0.5-0.7-1.1c-0.5-0.2-1.2-1.6-1.8-2
		c-0.3-0.6-1.2-1.3-1.1-2.1c-0.4,0-0.1-0.1-0.3,0.1c0,0.5,0.4,1.2,0.5,1.6c0.3,1,0.6,4.3,0.9,5.4c0.3,1.1,0.5,2.3,0.9,3.4
		c0.2,0.5,1,2.8,1,3.1c0.3,0.3,0.2,0.4,0.6,1.1c0.9,1.5,0.7,2,1.2,3.6l0.8,2.3c0.2,1,0.3,1.9,0.3,2.9c-0.4-0.1-0.7-0.4-1.1-0.8
		c0.1-0.5,0.4-0.3,0.2-0.8c0-0.1-0.4-0.5-0.5-0.6c-0.8-0.8-0.2-0.7-0.6-1.4c-0.2-0.4-0.3-0.2-0.4-0.6c-0.1-0.5,0.2-0.2-0.2-0.8
		c-0.6-0.9,0-0.9-0.6-1.4c-0.3-0.2-0.3-0.3-0.5-0.3c-0.2-0.4-1.3-1.7-1.9-1.9c0,1.1,0.3,1.1,0.3,1.8c-0.5-0.1-0.1,0.1-0.5-0.2
		c0-0.4-0.3-0.8-0.4-1.3l-0.5-4.3c0.4,0.1,0.4,0.2,0.7,0.5c0.3,0.4,1.1,1.4,1.4,1.6l0-0.3l-0.4-0.3c0.1-0.5,0,0,0.2-0.3
		c0.4-0.6-0.1,0.3,0.1-0.2c-0.2-0.5-0.4-0.5-0.7-0.7l0.1-0.3c0.1-0.4-0.7-1.4-1.1-1.6c-0.3,0.1-0.1,0-0.2,0.2
		c-0.2,0.3,0.2,0-0.2,0.3c-0.3-0.3-0.1-0.1-0.2-0.5c-0.1-0.3,0-0.4-0.2-0.7c0-1.1-0.8-5.3-0.8-6.7c-0.1-2.7-0.6-4.6-0.8-6.9
		c-0.2-0.3-0.4-2.5-0.4-3c0.4,0,0.7,0.6,0.9,0.9c0.3,0.4,0.6,0.6,0.9,0.9c0.1,0.7,0.3,0.8,0.6,1.1l0.9,1.3c0.2,0.4-0.3,0.3,1.1,1.5
		l0.2,0.2c0.4,0.6,2.3,2.6,2.9,3.1c-0.4-0.3-0.6-0.7-1.3-0.8c0.1,0.6,0.6,0.9,0.9,1.1c0,0.3,0,0.1-0.1,0.2c-0.3,0.6,0-0.3-0.1,0.2
		c0.2,0.2,0,0.1,0.2,0.2c0.3,0.7,1.9,1.6,2,2.1c-0.4-0.1-0.9-0.8-1.4-1c0,0,0,0,0,0.2l0,0.1c0.4,0.2,0.4,0.3,0.8,0.7
		C171.4,110.1,171.7,110.4,171.9,110.4L171.9,110.4z M196.5,104.1c0.2-0.2,0.4-0.4,0.2-0.7l-0.1-0.5c0.4-0.3,0.7-0.8,0.7-1.3
		c-0.3,0-0.1-0.1-0.4,0.1c-0.2,0.1-0.1,0-0.2,0.2c-0.2-0.1-0.2,0.4-0.1-0.3l0.7-1.1c0.1-0.1,0.3,0.2,0.2-0.4c0-0.4,0,0.2-0.1-0.2
		c0-0.1,0,0.1-0.1-0.3c0.2-0.4,0.7-1,1.1-1.4c0.4-0.5,2.5-3.8,3.2-4.2c0.2-0.3,0,0,0.2-0.2c0.1-0.1,0.1-0.1,0.2-0.1
		c0.2-0.1,0.2-0.1,0.3-0.3c0.2-0.1,0.3-0.1,0.7-0.2c0.3-0.6,0.2-0.5,0.6-1c0.5-0.4,0.2-0.6,0.8-0.9c-0.3,0.9-1,1.2-1.1,2
		c0.8-0.3-0.1,0.1,0.9-1c0.3-0.3,1.8-2.5,1.7-2.8l-0.2-0.2c0,0,0,0-0.1,0c0.2-0.2,0.3-0.4,0.4-0.6c0.2-0.5,0.1-0.4-0.2-0.4L206,88
		c0.2-0.2,0.4-0.7,0.4-0.9c0-0.6-0.1,0.1-0.1-0.5c0-0.2,0.1-0.2,0.1-0.4c0,0,0.3-0.1,0.2-0.3c0-0.2,0,0-0.2-0.1l-0.1-0.1
		c0.3-0.3,0.4-0.4,0.4-0.8c-0.4,0.1-0.9,0.8-1,1l0-0.3c0.2-0.2,0.6-0.6,0.6-0.9c0.3-0.2,0.5-0.5,0.7-1l-0.2-0.4
		c0.2-0.4,0.4-0.4,0.5-0.9c0.1-0.4,0.1-0.8,0.2-1.2c0.3-1.8,1-4,1.3-5.8c0-0.2,0.1-0.5,0.1-0.6c0.1-0.5,0-0.3,0.3-0.5
		c0.1,0.2,0.2,0.6,0.2,0.8c0.1,0.7,0.1,0.7,0.3,0.9c-0.1,0.4,0.4,1.5,0.5,1.9c0.1,0.2,0.2,0.7,0.3,0.9c0.1,0.3,0.3,0.4,0.4,0.6
		c0.3,0.3,0.4,0.7,0.5,1.1c0.2,0.4,0.3,0.7,0.5,1.1c0.2,0.5,1.1,1.7,1,2c0.2,0.1,0.1,0,0.2,0.2c0,0,0.2,0.2,0.2,0.2
		c0.1,0.1,0.1,0.2,0.1,0.4l2.8,5c0.2,0.3,0.3,0.5,0.4,0.7c0.2,0.3,0.2,0.4,0.4,0.7l1.8,3.8c0.2,0.4,0.3,0.3,0.4,0.6
		c0.1,0.3-1.3,3.1-1.5,3.4c-0.3,0.5-0.2,0.3-0.4,0.9c-0.2,0.5-1,1.5-1.2,2.3c-0.3,0.3-0.2,0.5-0.8,0.5l-0.1-0.2
		c-0.1-0.4,0,0.2-0.1-0.2l-0.1-0.8c-0.6-0.1-0.4,0.4-0.7,0.8c-0.1-0.1-0.1,0-0.1-0.2c-0.1-0.4,0-0.6,0.1-0.9
		c0.1-0.5,0.1-0.7-0.4-0.8c-0.1,0.1-0.1,0.1-0.1,0.3c0,0.5,0,0.5-0.3,0.7c-0.2-0.3-0.1-0.4-0.1-0.7c0.3-0.3,0.4-0.9,0.1-1.2
		l-0.2-0.2c0-0.2,0.1-0.6,0.1-0.8c0-0.6-0.2-0.6-0.3-0.7l-0.3,0.6c0,0,0,0-0.1,0.1c0-0.8,0.4-2.1,0-2.7c-0.3,0.1-0.3-0.2-0.4,1
		c-0.1,0.4-0.2,1.2-0.5,1.5l-0.2-0.6c0-0.1,0-0.5,0.1-0.6c0.2-1.2,0.4-1.7,0.4-3.1c-0.7,0.5-0.4,3-1.1,3.3c-0.2-0.5,0.9-4.8,0.6-5.3
		c-0.4,0.2-0.3,1.7-0.8,2.2c0-1.8,0.7-3,0.7-4.1l-0.3,0.2c0,0-0.1,0-0.1,0.1c0,0.3-1.9,9.1-2.7,10.4c-0.4,0.7-0.6,1.5-1.1,2.2
		c-0.6,1-0.5,1.6-0.9,2.4c-0.3,0.7-2,3.9-2.4,4.1c-0.1-0.1-0.1,0.2,0-0.2c0-0.1,1.7-3,1.8-3.4c-0.6,0.1-2.3,3.4-2.6,3.9
		c-0.4,0.8-2.4,3.4-2.8,3.6l-0.2,0.1l0.1-0.2c0.4-0.8,2-2.2,2.2-3.1c-0.9,0.2-1.4,1.8-2.2,2.3c0.2-0.9,2.6-3.3,2.7-4.4
		c-0.5,0.2-2.5,3.4-2.9,4l-2.2,2.9c-0.2,0.3-0.6,0.8-0.9,0.9c0.1-0.4,0.8-1.1,1.3-2c0.8-1.3,4-5.3,4.1-6c-0.5,0.2-0.5,0.4-0.9,1.1
		l-4.1,5.7c-0.5,0.6-1.4,1.6-1.8,2.3c-0.3,0.1-0.5,0.4-0.8,0.6l0,0.8c-1.3,0.8-1.5,1.8-2.3,1.9c0.1-0.5,0.8-1.3,1.3-2.1
		c0.4-0.7,0.7-1.4,1.2-2.1c0.4-0.6,1-1.2,1.5-1.8c0.5-0.7,0.3-2,0.5-2.3c0.1-0.2,0-0.1,0.2-0.2c-0.1-0.6-0.3-0.4-0.1-1
		c0.3-0.5,0.1-0.2,0.1-0.8c0.2-0.1,0.1,0,0.2-0.2c0.7-0.7,0.3-0.8,0.3-1.4l0.1-0.3c0.3-0.2,0.3-0.1,0.1-0.6c0,0,0,0,0-0.1
		c0,0,0-0.1,0-0.1c0.3-0.3,0.3-0.2,0.4-0.7c-0.8,0.2-0.5,0.4-1.6,1.6l-0.5,0.6c-0.3,0.4-0.7,0.7-1.1,1c-0.6,0.6-0.7,0.8-1.2,1
		l0.2-0.7l-0.3,0.1l-0.3,0.1l0.1-0.3c0.2-0.2,0.1-0.1,0.3-0.3c0.1-0.2,0,0,0.1-0.2c0-0.1,0.1-0.1,0.1-0.2c0.1-0.1,0.1-0.1,0.2-0.3
		c0.2-0.2,0.1,0.2,0.2-0.2c0-0.1-0.1-0.3-0.1-0.3c0-0.2,0,0,0-0.3c0.2-0.4,0.6-0.6,0.6-1.2c0-0.7,0.3-0.8,0.6-1.3
		c0.6-0.4,0.3-0.4,0.2-0.9L196.5,104.1L196.5,104.1z M201.2,41.2c-0.1,0.1,0,0-0.2,0.1c0,0-0.1,0.2-0.2,0.2
		c-0.3,0.4-0.2,0.1-0.2,0.5c-0.3,0.4-0.4,0.4-0.5,0.7c-0.4,0.4-0.7,1.1-1,1.6c-0.1,0.2-0.1,0.1-0.2,0.3c-0.3,0.3,0,0.1-0.3,0.2
		c0,0.6-1.3,1.8-1.5,2.3c0.5,0.4,1.6,0.3,2.2,1.1c0.4,0.1,0.6,0.2,0.9,0.4c0.6,0.4,0.3,0.4,0.7,0.5c0.3-0.3,0.5-0.7,0.5-1.1
		c0.5-0.4,1.7-4.3,1.8-4.6l0.2-0.7l0.3-0.7c0.1-0.2,0.1-0.5,0.2-0.7c0.1-0.5,0.5-1.1,0.3-1.5l-0.4,0.8l-1.6-1
		c0.1-0.9,0.9-1.2,0.6-1.7c-0.4,0.2-0.2,0.3-0.5,0.7L201.2,41.2L201.2,41.2z M175.4,57c-0.4,0,0,0-0.7-0.3c-0.1-0.1,0-0.2-0.4-0.1
		c-0.3,0.1-0.2,0.3-0.3,0.4c-0.1,0.3-0.4,0.6-0.7,0.8c0.1-0.5,0.4-0.5,0.5-1.1c-0.5,0.1-0.3,0.1-0.8,0.9c-1.5,2.3-0.6,1.7-0.9,4.1
		c-0.6,0-1.2-0.3-1.7,0c0.3,0.4,1.4,0.2,2,0.4c0.6,0.1,1.3,0.2,1.9,0.4c1.1,0.3,2.7,0.9,3.7,1.1l0.4,0.4c0.9-0.6,2.5-2.6,3.1-2.8
		c0.2-0.4,0.9-1,1.4-1.4c0.5-0.5,0.9-1.1,1.5-1.1c0.1-0.1,0.1-0.1,0.3-0.2c0.1-0.1,0.3-0.1,0.5-0.1l5.7-1.1c0.6-0.2,0.9-0.2,1.3-0.6
		c0.4-0.4,0.6-0.6,1-1c0.3-0.3,1.7-1.8,1.8-2c0.9-0.4,1.1-1.7,2.2-1.8c0.5-0.1,0.8-0.2,1.2-0.2c-0.3,0.6-2.8,2.8-3.2,3.7
		c-0.2,0.1-1.3,1.3-1.7,1.7c-1.7,1.7-2.2,1.1-5.1,1.7c-1.2,0.2-2,0.1-3.2,0.3c-0.2,0.2-0.6,0.5-0.8,0.7c-0.4,0.4-2,2.1-2.4,2.3
		c-0.1,0.1,0,0.1-0.1,0.2c-0.1,0.1-0.1,0.1-0.1,0.2c-0.4,0.2-0.2,0.1-0.5,0.4l-2.2,2.4c-0.6-0.1-3.5-1.4-5.9-1.8
		c-1.2-0.2-2.7-0.5-4.2-0.2c-0.5,0.1-1.3,0.4-1.7,0.6c-0.4,0.2-1,0.7-1.5,0.9l0,7.1l1.2,2.1c0.7,1.5,2.7,6.3,2.8,7.7l-0.3-0.6
		c-0.1-0.3-0.2-0.5-0.2-0.8l-3.3-6.8c-0.3-0.5-0.2-0.7-0.7-1.3c-0.2-0.3-0.5-0.7-0.8-0.8c-0.7-0.2-0.6,0.6-0.6,1.1
		c-0.2,0.2-0.1,0.3-0.2,0.5c-0.1,0.5-0.1,0.3-0.3,0.5c-0.3-0.7-1.1-1.5-1.5-2.1c-0.3-0.4-1.2-1.9-1.7-1.9c0,0.5,0.5,0.8,0.7,1.1
		c0.1,0.2,0.2,0.3,0.4,0.6l2.1,2.8c0,0,0.2,0.2,0,0.5l-2.3-3.3c-0.2-0.4-0.1-0.3-0.5-0.4c0.1,0.4,1.9,3,2.3,3.6
		c0.2,0.2,0.8,0.8,0.5,1.2c-0.5-0.5-0.9-1.4-1.4-2.1l-1.2-1.8c-0.2-0.2-0.1-0.1-0.3-0.2c0.1,0.3,2.2,3.6,2.6,4.4
		c0.5,0.9-0.1,3.5-0.2,3.6c-0.3-0.1-0.2,0-0.4-0.3l-0.9-1.4c-0.8-1.1-3.2-4.7-3.9-5.1c0,0,0-0.5-0.7,0c-0.3,0.2-0.2,0.3-0.7,0.4
		c-0.4-0.2-0.9-0.9-1.2-1.2l-1.9-1.7c-0.2-0.2-0.5-0.3-0.8-0.5c-0.5-0.4-0.8-0.8-1.4-1.2c-0.6-1-0.4-0.4-0.7-2.1l-0.5-2.4
		c-0.2-1.2-0.2-4.4-0.1-5.7c0.4,0.1,0.7,0.6,1,1c0.3,0.4,0.7,0.7,0.8,1.1c0.3,0.1,1.3,1.3,1.5,1.6c0.3,0.3,1.4,1.3,1.7,1.5v1.3
		l0,2.3c-0.1,0.1,0.1,0.2-0.1,0.1c-0.3-0.3-1.1-1.2-1.5-1.2c0.1,0.9-0.1,0.8,0.4,1.2l2.3,2c-0.8-0.2-1.8-1.5-2.4-1.6
		c0.1,0.8,1.3,1.2,1.4,2c-0.3-0.1-0.4-0.3-0.7-0.5c0.1,0.4,0.3,0.5,0.6,0.8c0.3,0.2,0.6,0.5,0.9,0.6c0.3-0.4-0.1-0.3,0.5-0.5
		l0.3-0.1c-0.1-0.4-0.1-0.2-0.2-0.5c0.4,0.1,0.2,0.1,0.7,0.2c-0.1-0.6-0.2-0.5,0.1-0.9c1.3-1.6,3.3-3,5.4-3.3l0.9,1.2
		c0.3,0.5-0.1,0.2,0.4,0.5c0.1-0.1,0.1-0.2,0.2-0.4l-1-1.3c-0.4-0.5-0.6-0.8-1.1-1.3c-0.2-0.3-0.7-1.1-1.1-1.1c-0.6-0.1-1.5-0.1-2,0
		l-4,0.2c-0.2-0.4-0.7-0.7-1.1-1l-2.1-2.2c-0.4-0.4-0.7-0.8-0.4-1.4c0.5,0,0.1-0.1,0.5,0.2c0.2,0.4,0.5,0.6,0.8,0.9
		c0.3,0.3,0.5,0.6,0.8,0.9l1.8,1.5c0.9,0.5,5.2-0.4,6.4,0c0.3,0.4,2.1,2.6,2.4,2.6c0.3,0.1,2.6-1.5,3.3-1.9c1.1-0.3,1.1-0.4,2.3-0.5
		c0.1-0.5,0.1-4.9,0-5.7c0-0.2-0.2-0.5-0.2-0.8c0.1-0.5,0.2-0.1,0.4-0.6c-0.2-0.4-0.2-0.1-0.3-0.7c1.3-0.1,4.7,1.7,6.2,2.3l0,0.3
		L175.4,57L175.4,57z M194.9,22.5c0.3-0.2,0.1,0.1,0.3-0.3l0.7-1.2c0.2-0.3,0.3-0.2,0.5-0.6l0.1-0.3c0,0,0,0,0-0.1
		c0.2-0.3,0.2-0.1,0.3-0.6c-0.4,0.1-0.4,0.3-0.6,0.4c-0.1-0.1-0.1,0-0.1-0.3c0.2-0.1,2.5-2.2,2.7-2.5l1.7-2.3
		c0.1-0.1,0.2-0.3,0.2-0.4c0.2-0.3,0.1-0.2,0.4-0.4c-0.1,0.6-2.2,3.6-2.8,4.5c-0.3,0.6-0.6,1.1-0.9,1.6c-0.4,0.7-0.4,0.9-0.9,1.5
		c-0.6,0.5-0.6,0.9-1,1.6c-1,1.9-2.6,4.4-3.5,6.4l-3.5,6.4c-0.5,0.8-0.5,0.7-1.3,1.1c-0.4,0.2-1.3,0.6-1.5,1c0.6,0,0.7-0.3,1.2-0.6
		c1.7-0.9,1,0,2.6-2.7l2.5-4.5l3.7-6.7c0.2-0.4,0.4-0.9,0.7-1.3c0.3-0.6,0.6-0.6,0.9-1.2c0.2-0.4,0.4-0.8,0.7-1.3
		c0.5-0.9,0.9-1.8,1.5-2.6c1.2-1.5,2.6-4.5,3.1-5.2c0.3-0.5,0.5-0.8,0.8-1.3c0.4-0.6,0.5-1,0.9-1.2l0.4,1.4
		c-0.1-0.3-0.2-0.3-0.3-0.5c-0.6,0.2-0.7,0.7-1,1.2c-0.2,0.5-0.4,0.9-0.6,1.5c-0.4,1-0.7,2.1-1.1,3.1c-0.8,2.1-1.3,4.7-0.9,7.3
		c0.3,1.8,1.1,4.8,1.8,6.5c0.4,1.1,0.7,1.9,1.2,3c0.3,0.6,1.2,2,1.4,2.8c0.5,0.6,0.1,4,0,5c-0.2,1.7-1,5.2-1.6,6.7
		c-1.1,2.8-1.4,3-1.6,6.1l-0.1,0.6c0,0,0,0.1,0,0.1c0.1,0.3,0.1,0.6,0,1l-0.1,0.3c0,0,0,0.1-0.1,0.1c0.1,0.4,0.1,0.4,0,0.8
		c0,0.1,0,0.3-0.1,0.4c-0.1,0.4-0.1,0.2-0.1,0.2l0,0.9c0.7-0.9,0.7-3,0.9-4.5c0.2-1,0-1.4,0.4-2.3c0.3-0.6,0.5-1.3,0.8-1.9
		c0.3-1.3,0.8-2.6,1.1-3.9c0.1-0.5,0.8-4.1,0.8-4.1c0.6-5.9,0.5-4.3-1.9-9.1c-0.7-1.4-2.6-7.1-2.6-8.8c0.5,0.2,0.9,1,1.2,1.5
		c0.4,0.6,0.9,1,1.3,1.6c1.1,1.5,2.5,3.3,3.5,4.8c0.4,0.6,0.6,1.2,1,1.9l0.9,1.4c1.5,2.6,1.7,1.9-0.2,3.3c-0.1,0.1-0.3,0.2-0.4,0.3
		c-0.4,0.2-1,0.1-1.1,1.1c0.3-0.1,0.1,0,0.3-0.2c0.4-0.4,2.2-1.3,2.3-1.3c0.3-0.5,0.5-0.4,0.7-0.9c-0.1-0.3-0.4-0.7-0.5-1
		c-0.2-0.3-0.4-0.5-0.5-0.8c-0.7-1.2-1.5-2.1-2.1-3.5c-0.5-1.1-2.6-3.7-3.4-4.9c-0.6-0.9-2.1-2.4-2.4-3.2c0.5,0.2,5.3,3.9,5.8,4.7
		c0.3,0.4,1.2,1.6,1.6,1.6l-0.2-2.1c-0.2-0.7-0.3-1.3-0.5-1.9c-0.2-0.7-0.3-1.4-0.4-2.1c-0.2-0.7-0.4-1.3-0.4-2.1
		c0.4,0.4,1,3.2,1.2,3.8c0.1,0.5,0.3,0.8,0.4,1.2c0.3,0.9,0.3,1.8,0.6,2.7c0.1,0.3,0.3,0.9,0.4,1.2l0.7,4.2c0.3,1.4,1,7.4,0.7,8.7
		c-0.1,0.2,0,0.1-0.1,0.2c0.2,0.7-0.4,10.7-0.5,12.4l0,1.4c0,0.2,0,0,0,0.2c-0.1,0.2,0,0.1-0.1,0.3c0.1,0.3-0.6,9.9-0.9,10.2
		l-1.9,6.8c-0.5,1.6-0.5,2.2-0.7,3.6l-0.7,3.6c-0.3,0.4-0.2,0.7-0.2,1.1c-0.1,0-0.3-0.4-0.9-0.6c0.1,0.6,0.1,0.5,0.4,0.8
		c0.2,0.2,0.3,0.2,0.2,0.4l-0.2-0.4c-0.1-0.1-0.2-0.2-0.3-0.4l-0.5-0.6c-0.6-0.8-1.4-2.1-2.2-2.7c-0.5-0.4-0.5-0.9-1.1-1.2
		c0.3-0.6,0.3,0,0.3-0.9c-0.5,0.1-0.4,0-0.7,0.3c-0.1,0.1-0.2,0.2-0.2,0.4c0,0-0.1,0.1-0.1,0.1l-0.2,0.3c-0.2,0.3-0.1-0.1-0.2,0.5
		l0.6,0.4c0.3,0.2,1.4,1.9,1.7,2.2c0.3,0.5,0.3,0.7,0.9,0.9c-0.1-0.5-0.5-1.1-0.9-1.5c-0.4-0.4-0.6-0.7-0.9-1.4l2.6,3.3
		c0.2,0.4,0,0.2,0.3,0.5c0.4-0.2,0.2-0.1,0.3-0.5c0.3,0.6,0.2,0.3,0.5,0.6c-0.2,0.2-0.1,0.1-0.3,0.4c-0.1,0.3-1.2,1.4-1.6,1.8
		c-0.6,0.7-1,1.1-1.6,1.8c-0.5,0.6-2.7,3.1-3.5,3.5c0,0.3-5.2,4.9-5.4,4.9c-0.2,0.9-5,3-5.3,3.8c1-0.1,2.4-1.6,3.3-1.9
		c-0.1,0.5-0.3,0.4-0.9,0.9c-1.4,1.1-1.7,1-2.1,1.3c-0.4,0.3-0.6,0.4-1,0.7c-0.4,0.3-0.6,0.5-0.9,0.7c-0.3,0.2-0.8,0.5-1,0.6
		c-0.9,0.5-1.6,0.5-2.8,0.5c-2.1,0.1-4.2,0.3-6.1,0.4l-5,0.1c-1,0-1.1,0.1-1.4-0.3c-0.7,0.1-2.7-2.2-3.5-2.9
		c-0.2-0.2-0.5-0.3-0.6-0.4c-0.2-0.2-0.2-0.3-0.5-0.6c-0.3-0.3-0.7-0.6-1.1-1.1c-1-1.1-2.1-2.1-3-3.4c-0.6-0.8-1.3-1.5-2-2.3
		c-1.2-1.3-2.7-3.6-3.5-5.2c-0.6-1.1-0.5-2.2-0.9-3.3c-0.5-3.4-1.8-6.8-2.3-9.8c-0.2-1.1-0.7-2.3-0.8-3.3c0.5,0.2,0.6,0.5,1,0.9
		c1.3,1.4,0.8,0.5,1.3,2.4c0.4,1.3,1,4.4,1.5,6c0.1,0.4,0.4,1.1,0.5,1.3c0,0.3,0,0.2-0.1,0.5c0.2,0.4,0,0,0.3,0.2
		c0.3,0.4,0.7,0.5,0.9,1c-0.6-0.2-0.2-0.3-0.8-0.4c0.2,0.5,0.8,0.7,0.9,1.2c-0.4-0.2-0.3-0.3-0.8-0.4c0.2,0.5,1.1,0.9,1.2,1.5
		c-0.5-0.1-0.4-0.4-0.9-0.6c0.2,0.8,0.9,0.7,1.1,1.5c-0.4-0.2-0.3-0.4-0.7-0.5c0.1,0.4,0.5,0.6,0.7,0.9c0,0.4-0.4,0.4,0.3,1.1
		c0.2,0.2,0.1,0.1,0.3,0.2c0,0.7,0.1-0.1-0.2,0.5c0.5,1,1.1,0.7,1.3,2c0.1,0.6,0.3,0.6,0.6,0.9c0.5,0.4,0.2,0.6,0.9,0.9
		c0.1,0.3,1.9,2.3,2.6,2.4c0.4-0.7-0.4-4.9-0.6-6.1c-0.3-1.2-0.5-4.7-1-6.1c-0.2-0.5-1.4-2.5-1.9-3l-2-2.8c-1.3-1.7-0.8-1.3-2.2-2.6
		c-0.5-0.4-4.2-3.6-4.4-4c-0.1-0.2-0.1-0.3-0.2-0.5l-0.2-0.4l-0.1-0.4c0.6,0.1,2.3,1.6,2.8,2.1l1.9,1.7c0.1,0.1,0.2,0.2,0.3,0.3
		l0.4,0.4c1.5,1.1,3.9,5.2,4.8,6.1c2.6,2.6,2.3,4.8,2.8,8.3c0.2,1.5,0.4,3.3,0.6,4.9c0.1,0.8,0.3,4.7,0.5,5c0.2,0.4,1.2,2,1.7,2.4
		c1.3,1,1.4,1.3,2.2,1.9c0.2,0.2,0.6,0.4,0.9,0.5c0.3,0.1,1,0.3,1.1,0.3c3,0.1,6.5,0.1,9.4-0.2c1.4-0.1,3.2-0.1,4.5-0.4
		c0.9-0.2,0.8-0.5,1.6-0.9l1.1-0.7c0.4-0.3,0.2,0,0.3-0.4l-0.6,0.1c0,0,0,0-0.1,0.1c-0.8,0.7-0.8,0.3-1.5-0.2
		c-0.4-0.3-0.4-0.4-0.7-0.8c-0.3-0.3-1-1.3-1.2-1.7c-0.1-0.4-0.1-0.4-0.4-0.6c0.4-0.6,0.9-1.1,1.1-1.4c0.5-1,0.2-0.2,0.7-0.9
		l1.2-1.6c0,0,0,0,0.1-0.1c0.2-0.2,0.3-0.2,0.5-0.5c0.4-0.9-0.1-0.1,0.7-0.9c0.5-0.6-0.3-0.2,0.4-1c0.3-0.3,0.5-0.4,0.5-0.9
		c-0.7,0.1-1.2,0.9-1.4,1.5c-0.5,1.1-0.2,0.4-0.7,0.8c-0.4,0.4,0,0.5-0.6,0.8l-1.5,1.9c-0.9,1-1.1,1.6-1.6,1.6
		c-0.4-0.4-0.6-0.8-0.9-1.2c-0.4-0.4-0.8-0.9-1-1.3c-0.2-0.1-1.6-1.9-1.8-2.3c-0.1-0.6,0.6-1.5,0.9-2c0.4-0.6,0.7-1.4,1-1.9
		c0.3-0.6,1.9-3.6,2-3.9c0.6-0.6,0.7-1.5,1.2-2.1c0.4-0.6,0.9-1.6,1.1-2.2l0.3,0.1c0.3,0.3,1.1,2,1.2,2.3c0.3,0.3,0.2,0.7,0.4,1.3
		c0.3,1,2.7,8.8,2.7,9.4l0.2,0.5c0.1,0.3,0.1,0.2,0.2,0.3c0.4,0,0.9-0.6,0.9-0.8c0.4-0.3,0.1-0.6-0.2-1.4l-0.4-1.7
		c-0.1-0.2-0.9-3.4-1-4.1c-0.1-0.6-0.3-1.5-0.5-2.1c-0.3-1.2-0.3-1,0-2.2c0.3-1.5,0.8-2.6,1.5-3.6c0.6-0.9,1.6-2.4,2.4-2.8
		c0.8-1,4.3-0.4,4.5,0.7c0.2,0.1,0,0,0.2,0.2c0.1,0,0.2,0.2,0.2,0.2c0.3,0.4,0.4,1.3,0.6,1.8c0.4,1.4,1.9,6.7,1.8,7.4
		c0.1,0.1,0,0,0.2,0.2l0.3,0.6c0-0.6-0.1-1-0.2-1.5c-0.1-0.5-0.2-1-0.1-1.6c0.4,0.4,0.2,1,0.6,1.4c0.1-1.1-0.8-3.6-0.5-4.1
		c0.4,0.3,0.4,1.7,0.5,2.2c0.1,0.5,0.3,1.6,0.5,2c0.2-0.3-0.4-3.2-0.5-4.2l-0.1-0.6c-0.1-0.5-0.5-0.3-0.1-0.8
		c0.5-0.6,0.2-0.6,0.7-1.1c0,0,0.1,0,0.1-0.1c0,0,0,0,0.1-0.1c0.1-0.5,0.6-0.7,0.6-1.1c-0.7,0.1-1.2,1.7-1.6,1.8
		c-0.2-0.5,0.7-1.8,1-2.1c0.2-0.2,0.3-0.3,0.4-0.7c-0.3,0.1-0.2,0.1-0.4,0.4l-1.1,1.2c0,0,0-0.1,0-0.1c0-1-0.1-0.3-0.2-0.8
		c-0.1-0.4,0,0.2,0-0.3c0-0.7-0.6-2.6-0.7-3.4c-0.4-3.3-1.1-2.4,0.4-4.6c0.4-0.5,1.5-1.8,1.5-2.4c-0.3,0.1-0.4,0.2-0.5,0.5
		c-0.3,0.4-0.2,0.4-0.7,0.5c0.2-0.8,0.8-0.9,1.1-1.8c-0.5,0.2-0.4,0.3-0.7,0.6c-0.4,0.4-1.5,1.7-1.8,1.9c0.1-0.6,2.3-2.7,2.7-3.6
		c0.1-0.1,0.1,0,0.2-0.2c-0.2-0.7,0-1.4,0.7-1.6c0.4-0.7,1.5-1.9,2.1-2.4c0.6-0.5,1.2-1,1.7-1.7c0.2-0.3,0.2-0.5,0.5-0.6
		c0.3-0.6,0.4-0.6,0.8-1c0.4-0.4,0.4-0.8,0.7-1.2c0.3-0.4,0.6-0.7,0.9-1c0.2-0.3,0.5-0.9,0.8-1c0.3-0.7,1.4-1.5,1.4-2.4
		c-0.5,0.1-0.3,0-0.6,0.4c-0.1,0.2-0.2,0.3-0.3,0.5c-0.2,0.3-0.5,0.7-0.7,1l-1.6,1.9c0.3-0.9,2.2-2.7,2.6-3.6
		c-0.2-0.2,0-0.1-0.4-0.1c-0.1,0.3-1.5,2.2-1.8,2.3l-1.2,1.8c-0.6,0.6-1.5,0.4-2.1,0.9l-2.9,2.9c0,0,0,0-0.1,0.1
		c-0.1,0.4-0.5,0.5-1,0.9c-0.5,0.4-2.2,2.4-2.8,2.8c-0.1,0.2-2.1,2.2-2.5,2.3c0-1,0-2,0-3c0-0.8-0.2-2.3,0.4-2.5
		c0-0.5,0.1-0.2-0.1-0.4c-0.4,0.2-0.3,0.2-0.5,0.4l-0.3,0.1c0.2-0.8,0.7-0.7,0.9-1.6c-0.6,0.2-1.2,1.4-2,1.5c0.2-0.6,1.9-1.9,2-2.6
		c-0.5,0.1-1.9,2.2-2.7,2.4c0.2-0.5,2.1-2.3,2.3-2.8c0.5-0.3-0.1-0.4,0.5-1.2c0.3-0.4,0.6-0.7,1-1l1.4-1.5c0.3-0.4,0.3-0.4,0.5-0.5
		c0,0,0.1,0,0.1-0.1c0.6-0.6,0.2-0.6,0-0.6c0-0.5-1-1.5-1.4-1.9c-0.2-0.2-1.4-1.5-1.7-1.6l-0.2-0.4c0.2-0.5,0.8-1,1.2-1.4
		c0.3-0.4,0.9-1.2,1.1-1.4c0.2-0.4,0.3-1,0.5-1.3c1.1-1.5,2.7-4.2,3.4-5.8c0.4-0.8,0.6-1.8,0.9-2.6c0.2-0.7,0.4-1.4-0.1-2.1
		c-0.1-0.2,0-0.1-0.2-0.2c0-0.2-0.7-1.8-0.8-2.2c-0.2-0.4-0.2-0.8-0.4-1.2l-1.3-3.3c-0.2-0.7-0.5-1.6-0.7-2.2c-0.6,0-1,0.3-1.4,0.6
		c-0.7,0.6-0.4-0.3-1.8,1.8c-0.8,1.2-3.1,5.2-3.5,5.6c0,0.3-2.5,4.4-2.9,5.3c-0.8,1.5-0.1,0.7-1.1,1.3c-0.1,0.1-0.1,0-0.2,0.2
		l0.9-0.1c0.2,0.6,0.5,1.9,0.6,2.7l0.1,0.4c0,0.3,0.1,0.5,0.1,0.9c0,0.1,0.1,0.4,0.1,0.4c0,0,0,0.1,0,0.1l-0.1,0.2
		c-0.5,0.2-1.1-0.1-1.7,0.3c-0.7,0.4-0.5,0.3-0.6,0.1c-0.2-0.3,0.1-0.2-0.2-0.8l-0.1-0.1c-1,0.1-1.2,0.8-1.9,0.9
		c0-0.4,0.7-0.7,1.2-1.1c0.3-0.1,0.3-0.1,0.5-0.4l-0.6-0.2c0.2-0.1,0.1-0.1,0.2-0.3c0.3-0.1,0.2-0.1,0.2-0.3c0,0-0.1-0.1-0.1-0.1
		c-0.1,0.1,0,0-0.3-0.3c0.2-0.1,0.2-0.2,0.5-0.3c0-0.3-0.1-0.3-0.2-0.5l0.2-0.1l0.3-0.2c0-0.8-0.2,0.2,0-0.7
		c0.1-0.2,0.2-0.4,0.4-0.6c-0.9,0-1.4,0.6-2.1,0.9l-3.9,2.2c-0.3,0.2-0.7,0.3-1,0.5c-0.9,0.5-4,2.6-4.6,3.2
		c-0.5,0.5-0.4,1.9-0.3,2.8c0,1.6,0,1.6,1.7,2.9c0.5,0.4,0.8,0.3,0.6,0.9c-0.7,0.2-1.6-0.7-2.1-1c-1-0.7-0.9-0.8-0.9-2.3
		c0-1-0.1-2.1,0-3.1c0.1-0.9,0.4-1,1.5-1.8c0.9-0.7,7.4-4.8,8.1-4.8c0.2-0.5,0.1-0.2,0-0.3c-1.3,0.3-2.9,1.7-3.9,2.1
		c-0.1,0.2-2.6,1.8-3.1,2c-1.4,0.8-1.9,1.3-3,2.2c0,0.7-0.1,5,0.1,5.4c0.6,0.8,2.3,1.5,2.8,2.1c-0.1,0.3-0.2,0.6-0.5,0.9
		c-0.5,0-1.5-0.8-1.8-1.1c-0.6-0.5-1.4-0.8-1.5-1.4c-0.3-1.3,0-4.1,0-5.5c0-0.6-0.1-0.8,0.3-1.2l2.4-1.9c0.7-0.5,2.7-2.1,3.5-2.2
		c0.2-0.3,1.2-0.7,1.7-0.9c1.2-0.6,1.3-0.5,1.8-0.7c0.6-0.3,1.1-0.7,1.7-0.9c0.6-0.2,1.2-0.5,1.5-0.9c0.7-0.3,1.6-2.5,2.1-3.3
		c1.1-1.9,2.6-5.1,3.7-6.8l1.4-2.6C194.7,23.1,194.9,22.8,194.9,22.5L194.9,22.5z M164.3,56.6l0,0.4l-0.3-0.1
		c-0.2-0.1,0.2-0.1-0.4-0.1c-0.1,0.8,0.1,1.6,0.1,1.7c0,0,0,0.3,0,0.3l-0.7,0.4c-1.6,0.4-4.7,0.6-6.4,0.3c-0.4-0.2-0.5-0.4-0.8-0.6
		c-0.5-0.3-0.4-0.2-0.8-0.7c-0.3-0.4-1.1-1.4-1.1-2c0.8-0.5,2-0.3,3.1-0.3c0.5,0,0.8-0.1,1.5-0.2c0.4,0,1.2,0.1,1.4-0.2
		c2.2,0.2,2.4-1,4.2,0.7L164.3,56.6L164.3,56.6z M200.7,109c-0.5,0.9-2.8,3.5-2.9,4c0.6-0.1,1.1-1,1.8-2l2.3-3.1
		c0.6-1,1.8-2.5,2.1-3.4c-0.1-0.2,0.1,0-0.3-0.1c0,0.3-0.5,0.9-0.7,1.1c-0.3,0.4-0.5,0.8-0.8,1.2C202,107.2,201.1,108.8,200.7,109z
		 M194.8,52l1.1-0.1c-0.1,0.3-0.5,0.7-0.8,1c-0.1,0.1,0,0-0.2,0.1c-0.1,0.1-0.1,0-0.2,0.1l-0.1,0l-0.4,0.2c-0.1-0.1,0,0-0.2-0.2
		l-0.2-0.3c-0.4-0.4,0.3,0.1-0.2-0.1l-0.1,0.3c-2.4,1.9-2.4,3.1-6.8,3.4l-2.4,0.1c-0.7,0-0.6,0-0.8-0.1c-0.6,0.1-1.4-0.4-2.2-0.7
		c-0.4-0.2-0.2,0-0.2-0.2c-0.3-0.1-0.5-0.1-0.8-0.3c0.3-0.7,1.3-2.8,2.1-2.8c0.5-0.6,2.1-0.8,3-1.1c0.5-0.2,1-0.4,1.5-0.5
		c1.5-0.3,4.1-0.5,5.3,0.2c0.3,0.2,1.6,1.1,1.8,1.1C194.6,52.2,194.4,52.1,194.8,52L194.8,52z M195.1,108.5c0.6-0.1,1.6-1,2-1.8
		c0.4-0.7,1.2-1.3,1.4-2l-0.3-0.6c-0.4,0.2-0.4,0.2-0.6,0.6c-0.2,0.3-0.3,0.4-0.4,0.7c-0.3-0.1-0.1-0.2-0.4-0.2
		c-0.2,0.1-0.4,0.3-0.5,0.4c-0.1,0.2-0.1,0.1-0.1,0.3c0.1,0.5-0.2-0.4,0.1,0.1l0.1,0.1c-0.2,0.2-0.4,0.3-0.5,0.5
		c-0.2,0.4-0.1,0.1,0,0.4l0.1,0.3c-0.2,0.1-0.3,0.3-0.5,0.5C195.3,108,195.3,108,195.1,108.5L195.1,108.5z M186.7,79.4
		c0.2-0.4,0.1-0.3-0.1-0.6c-0.1-0.3-0.2-0.4-0.1-0.9c0.1-1.1,2.3-5.6,2.8-6.6c0.3-0.5,0.4-0.8,0.6-1.3c0.2-0.3,0.7-0.8,0.5-1.2
		c-0.5,0.1-1.2,1.8-1.5,2.3l-2.4,5.3c-0.1,0.3-0.1,0.4-0.2,0.7c-0.1,0.4-0.2,0.4-0.2,0.7c-0.1,0.4,0.1,0.5,0.2,0.8
		C186.5,79.2,186.2,79.2,186.7,79.4z M184.7,78.2l-0.1,0.1c-1,1.4-0.7,1.3-1.5,2.9l-1.6,3.3c-0.3,0.2-0.6,1-0.9,1.5l-2.2,3.6
		c-0.5,0.9,0.1,0.8-0.6,0.7c-0.1-0.3-0.3-0.7-0.4-1.1c-0.2-0.5-0.3-0.6-0.4-1.3l-0.1-0.3c0-0.1-0.1-0.4-0.1-0.6
		c-0.1-0.4-0.1-0.7-0.2-1c-0.1-0.7-0.3-1.3-0.4-2c-0.2-1.2-0.6-2.9-0.7-4.1c-0.1-0.7-0.4-1.1-0.4-1.9c0-0.9-0.7-4.1-0.9-5.4
		c0-0.2,0-0.1,0.1-0.3l0-0.4c-0.5,0.1-0.3,0-0.2-0.4c0.1-0.8,0,0-0.1-0.7c0-0.3,0-1.6,0.2-1.9c-0.1-0.9,0.1-1,0.2-1.7
		c-0.9,0.3-0.6,1.4-1,2.6c-0.3-0.4-0.1-0.7-0.2-1c0-1,0-1.5,0-2.5c0-0.7-0.3-1.9,0-2.6c0.5-0.2,4.5,1.1,4.9,1.4c1,0.3,0.6,0.7,2-0.9
		l1.2-1.3c0.3-0.3,0.2-0.3,0.5-0.4l0-0.3c0.4,0,0.8-1,1.3-1.2c0.3,0.3,0.3,0.9,0.5,1.2c0.9,1.5,0.8,1.4,2.1,3.1
		c0.8,1.1,0.7,1.2,1,1.6c0.1,0.2,0.2,0.2,0.3,0.5c0.5,0.9,1.5,1.3,0.7,2.1c-0.5-0.3-0.7-1-1-1.4c-0.2-0.3-0.1-0.2-0.4-0.3
		c0.1,0.6,0.8,1.3,1,1.9c0.2,0.5-0.7,1.9-0.7,1.9c-0.1,0.4-0.2,0.4-0.3,0.7c-0.1,0.4-0.1,0.5-0.2,0.9
		C186.2,74.2,184.7,77.6,184.7,78.2L184.7,78.2z M212.9,122.6c0.5-0.3,0.5-0.6,0.9-1.1c0.8-1.3,0.2-4.8,0.8-5.2
		c0.6-0.3,2.7-0.8,3.4-0.9c0.4,0,0.3,0.1,0.5-0.2c0.6-0.3,2.7-3.7,3-4.2c1.5-2.4,1-1.1,0.3-3.7c-0.1-0.5-0.4-1.1-0.5-1.5
		c1.3-0.6,3.2-0.7,3.7-1.8l0.8-1.9c0.2-0.4,1-1.8-0.1-1.9l-0.3-0.3c-0.4-0.3-0.8-0.3-0.9-0.8c1.7-0.5,2.4-1.1,3.4-0.9
		c1.9,0.5,3.2,1,4.9,1.7c1.3,0.5,1.5,0.2,3.9,1.6c0.5,0.3,0.3,0.3,0.9,0.4l-0.1-0.6c-0.5-0.1-1.6-0.9-2.3-1.1l-1.9-0.6
		c-0.7-0.3-0.5-0.2-0.6-0.4l0.7,0.1c0.2,0.2,1.6,0.6,2,0.7c0.4,0.2,0.8,0.2,1.2,0.3c0.4,0.1,0.4,0.3,1,0.3c0.1-0.8-0.3-0.8-0.9-1
		c-0.4-0.2-1-0.4-1.4-0.5c-0.9-0.2-2.4-0.4-3-0.8l-0.8-0.2c-0.7-0.1-1.5-0.3-2.1-0.4c-0.3-0.1-0.7-0.2-0.9-0.3
		c-0.3-0.1-0.8-0.1-0.9-0.2c-0.6-0.1-1-0.4-1.5-0.7c-0.3-0.2-1.2-0.5-1.2-0.7c-0.7-0.2-0.8-0.5-1.6-0.6c-0.6-0.1-1.3,0-1.9-0.1
		l-2.3-4.4c-0.7-1.1-1.9-3.1-2.6-3.9c-0.5-0.6-1.5-2-1.8-2.6c-0.1,0,0,0-0.1-0.1l-1.5-2c-0.2-0.2-1.9-3-2.1-3.6
		c-0.2-0.5-0.4-0.8-0.6-1.3c-0.1-0.3-0.8-2.5-0.9-2.7c-0.1-0.8-0.4-1.2-0.3-1.9l1-3.7l1-8.1c0.1-0.7,0-1.4,0.2-2.1
		c0-0.7,0.3-5.6,0.4-5.7l0.3-9.2c0.1-1.6,0.1-3.4,0-5c0-0.9-0.6-4.1-0.5-4.4c-0.1-0.1,0,0-0.1-0.2l-3-13c-0.2-1.1-0.6-2.1-0.9-3.2
		c-0.2-0.6-0.2-1.2-0.4-1.8c-0.3-1-1.1-3.2-1.5-4.6c-0.2-0.6-0.8-2.5-1.1-3c-0.6,0-0.7,0.4-1.4,1.2c-0.2,0.3-0.4,0.5-0.6,0.8
		c-2.2,2.4-3.6,3.3-6.4,5.2c-2,1.4-3,1.3-3.5,1.5c-1.9,0.2-3-0.1-4.7-0.2c-1.4-0.1-2.9-0.4-4.4-0.5c-0.9-0.1-2.2,0-3.1,0.1
		c-1,0.1-2.1,0.1-3.2,0.2l-2.5,0.2c-0.5,0.2-1.3,0.1-1.9,0.2c-0.8,0.1-1.3,0.1-2.1,0.2l-4.9,1.4c-0.3,0.2-1.1,0.4-1.5,0.5l-2.1,0.9
		c-0.4,0.2-1.7,1-2.1,0.8c-1.2-0.5-4.8-3.4-5.8-3.7c-0.4-0.1-3.3-2-4-2.4c-0.6-0.3-1.3-1-2.1-0.9l0,0.5l0.3,0.8l0.5,1.9l0.5,2.6
		l0.4,2.4l0.3,3.4c0.1,0.8,0.3,4.7-0.1,5.2l-0.2,1.7c-0.1,0.3,0,0-0.1,0.2c0.1,0.5,0,1.1-0.2,1.7c0,0.2,0,0.1-0.1,0.3
		c-0.1,0.2,0,0.1-0.2,0.2c0.1,0.3-0.3,2.7-0.4,3.3c0,0.4,0,3.3-0.3,3.7c0.1,0.7,0.1,1.5,0,2.2c-0.1,0.5,0.1,1.8-0.3,2.1
		c0.2,0.5,0.1,2.5,0,3.2l0,1.1c0.1,0.3,0,0.2,0.2,0.4c0.2-0.5,0.4-4.9,0.4-5.7l0.4-5.8l0.3,0.9c0.2,0.6,0.6,2.1,1.1,2.5
		c0,0.5,0.6,1.2,1,1.7l0,4.5c-0.6,0.1-0.9,0.4-1.5,0.6c-0.6,0.3-1.1,0.3-1.2,1c0.6-0.1,1.2-0.6,1.8-0.8c1.3-0.5,0.6-0.4,2.1-0.1
		l4.2,1.4c0.5,0.2,1.4,0.6,1.9,0.9c0.7,0.3,1.3,0.5,2.1,0.8c0.2,0.4,1.3,0.7,1.7,0.9c0.2,0.1,0.4,0.1,0.6,0.2
		c0.3,0.1,1.6,1.7,1.9,1.8c0.4,0.1,1-0.6,1.2-0.9c0.3-0.4,0.6-0.7,1.1-1.1c1.4-1.2,1-1,2.8-0.4c1,0.3,5.2,1.7,5.9,2.3
		c-0.1,0.4-0.2,0.3-0.3,0.6c-0.5,0.2-0.6,0-1.2-0.3l-3.3-1.4c-0.5-0.2-1.9-0.8-2.3-0.7c-0.3,0.1-0.7,0.5-0.9,0.7
		c-0.4,0.4-0.5,0.4-0.8,0.8c-0.4,0.1-0.9,1-1.5,1.3c-0.4-0.2-0.5-0.5-0.9-0.8c-0.3-0.3-0.6-0.5-0.9-0.8c-1.5-1.3-1.3-1.3-1.9-0.4
		c-1.3,0-7.5,0.2-8.4,0.3c-0.1,0.2-0.1,0.1-0.3,0.2c-0.6,0.2-0.6,0.4-1.1,0l-2.4-2.3l-0.1-0.4c0.7,0,0.9,0,1.4,0.2
		c1.8,1.5,2.1,0.7,3.4,0.7c0.7,0,1.6,0,2.3,0c0.7,0,1.9,0.2,2.1,0c-0.2-0.3-0.9-0.4-1.3-0.5l-6.1-2.3c-0.5-0.1-1.6,0.8-2.1,1.1
		l-0.3,0.1c0,0.1,0,0.2-0.1,0.3c-0.2,0.3,0.1,0.1-0.3,0.3c-0.2-0.5-0.3-0.6-0.9-0.6l0,0.9c0.1,0.2,0.3,7.5,0.5,8.7
		c0.2,1.4,0.5,2.5,0.8,3.8c0.3,1.3,0.5,2.6,0.9,3.9c0.3,0.9,1.8,5.9,1.7,6.6L153,78c0.3,0.9,1.6,6.9,1.4,7.6l0.1,0.3
		c0.3,0.7,0,0.9,0.4,1.3c0,1.5,4.3,6.5,5.6,8c0.8,0.9,0.6,0.5,0.8,2c0.1,0.9,0.7,4,0.6,4.7c0,0,0,0.1,0,0.1c0,0,0,0.1,0,0.1
		c0,0,0,0.1,0,0.1l0.1,0.4c0.1,0.5,0.2,1.2,0.2,1.6c0.2,0.2,0.2,0.7,0.2,1.4c0,0.5,0,1,0,1.5l0.2,2.7c0.1,0.6,0.4,2.1,0.2,2.6
		c-0.1,0.2-0.4,0.7-0.5,0.9c-0.1,0.2-0.4,0.9-0.4,1c-0.2,1.2-0.4,1.2-1,1.9l-1.3,1.4c-0.2,0.6-1,1.4-1.3,1.8
		c-0.4,0.5-0.8,1.3-1.3,1.5c-0.1,0.4-0.7,1.1-1.1,1.7c-0.1,0.1-0.1,0.1-0.2,0.3l-0.1,0.1c0,0,0,0,0,0c-0.1,0.4-0.6,1.1-0.9,1.5
		c-0.3,0.5-0.5,1.1-1.2,1.1l-0.4,0.4c-0.1,0.1-0.2,0.1-0.3,0.2c-0.4,0.3-1.7,1.4-2,1.5c-0.3,0.5-1.1,1.1-1.6,1.4
		c-0.3,0.2-0.5,0.4-0.8,0.6c-0.3,0.2-0.6,0.5-0.8,0.5c-0.2,0.4-0.3,0.4-0.7,0.7c-0.3,0.2-0.4,0.4-0.7,0.4c-0.2,0.4-1.3,1.1-1.6,1.5
		c-0.3,0.3-0.4,0.5-0.8,0.8c-0.2,0.2-0.6,0.5-0.8,0.6c-0.2,0.3-0.4,0.5-0.7,0.7c-0.3,0.2-0.4,0.3-0.7,0.6c-0.3,0.2-0.5,0.4-0.7,0.6
		c-0.2,0.3-0.4,0.5-0.6,0.5c-0.2,0.5-0.4,0.5-0.8,0.8c-0.7,0.6-1.3,2.2-1.7,2.5c-0.3,0.8-0.8,1.4-1.1,2.1c-0.1,0.3-0.8,2.1-0.9,2.3
		c-0.1,1.1-0.8,2.1-1.1,4c-0.3,2.1-2,1.5,9.7,1.5c3.3,0,6.8,0.1,10,0c0.1-0.5,0.2-2.1,0.5-2.4c-0.1-0.5,0.7-3.5,0.8-4.2
		c0.3-1.6,1.4-3.7,2.2-5.3c0.3-0.7,0.6-1,1-1.6c0.3-0.5,0.7-1.1,1-1.6c0.2-0.4,0.3-0.5,0.5-0.8c0.4-0.5,0.2-0.5,0.6-0.7
		c0.1-0.7,1.7-2,1.6-2.7c-0.4,0.2-0.3,0.6-0.9,0.7l0.2-3.8c0-0.8,0.1-0.7,0.4-0.9c0-0.5,1-0.9,1.1-1.6c-0.5,0.2-0.6,0.4-0.9,0.8
		c-0.7,0.8-1.7,1.7-2.8,1.8c-0.2,0.2-4.3,2.8-5.5,4c-0.4,0.4-1.3,1.4-1.6,1.4c0.1-0.8,2.8-4.6,3.3-5.4c0.2-0.4,0.9-1.4,1.2-1.7
		c0.1-0.3,1.4-1.8,1.7-2.1c0.6-0.8,1.2-1.5,2.3-1.6c0.6-0.1,1.2,0,1.4-0.6c0.6-1.3,0.2-3.5,0.7-5c0.4-0.6,0.2-1.1,0.4-1.9
		c0.4,0.4,0.2,0.9,0.3,1.7c0,0.5,0.2,0.5,0.2,0.5c-0.1,1.4,0.1,4.1,0,5.7c0,0.8,0.3,4.8,0,5.6c0.1,0.1,0.1,0,0.1,0.3l0.7,6
		c0.2,1.2,0.8,5.3,0.8,6.1c0.2,0.2,0-0.1,0.1,0.2c0,0.1,0.1,0.3,0.1,0.4c0,0.2,0.1,0.4,0.1,0.6c0.4,1.8,1,4.1,1.6,5.7
		c0.2,0.5,0.7,2,0.7,2.3c0.6,0.4,3.5,0.2,4.4,0.2l9.1,0c1.6,0,1.3,0.3,3.1-1.5l4.6-4.4c0.5-0.4,0.7-0.7,1.2-1.1l2-1.4
		c0.8-0.5,0,0.3,2.2-1.3c1.8-1.3,5.7-3.7,6.7-4.6l2.4-2.1c1-0.9,2.7-2.4,3.3-3.5c0.5-0.8,1.4-1.8,2-2.5c1.5-1.4,0.9-1,2.1-2.5
		C211.5,124.8,212.9,123,212.9,122.6L212.9,122.6z M218.3,114.9c-0.4,0.2-4,0.6-4.3,0.9c-0.3,0.4-0.3,3.5-0.5,4.6
		c-0.2,1.5,0.1,1.5-2,1.4l-0.3-0.4c-0.1-0.6-0.7-0.8-0.9-1.3c-0.4-0.9,0.2-1.7,0.1-1.9c0.4-0.1,0.3-0.1,0.7-1
		c0.2-0.4,0.5-0.8,0.5-1.3c-0.5,0.2-0.3,0.2-0.6,0.5c-0.1-0.2,0.4-1,0.6-1.3c0.4-0.8-0.2-0.2,0-1.1c0.1-0.3,0.1-0.2,0.2-0.7
		c-0.3,0.1-0.2,0-0.6,0.7c-0.1,0.3-0.2,0.6-0.5,0.7c0-0.2,1.4-2.3,1.5-3.1c-0.5,0.2-0.5,0.6-1.2,1.6c-0.1-0.1,0,0-0.1-0.3
		c0.2-0.1,1.6-2.4,1.7-2.9c-0.4,0.2-0.9,1.2-1.2,1.6c-0.2,0.3-0.4,0.5-0.6,0.8c-0.2,0.3-0.2,0.6-0.6,0.8c0.1-0.4,2.3-3.9,2.6-4.6
		c0.2-0.5,0.3-0.4,0.5-0.7c0.2-0.4,0-0.4,0.4-0.8c0.6,0.1,0.3,0.2,0.7,0.4c0.4,0.2,0.4,0,1.3,0.6c0.3,0.2,0.4,0.2,0.6,0.3
		c1.5,0.9,1.8,1,1.7,2.1c0.6-0.2,0.1-0.3,0.6-0.4c0,0.5-0.3,0.6-0.4,1.3c0.8-0.3,0.3-0.6,1-0.8c-0.1,0.6-0.8,1.2-0.9,1.9
		c0.7-0.3,0.6-1.2,1.3-1.5c-0.1,0.4-0.2,0.4-0.4,0.7c-0.3,0.4-1,1.7-1,2c0.9-0.5,1.2-2.4,2.1-2.4C220.5,112,218.3,114.1,218.3,114.9
		L218.3,114.9z M217.1,118.1c0.4,0,2.2,1.2,2.8,1.6c0.2,0.1,0.3,0.2,0.5,0.3l0.5,0.4c0.6,0.1,4.9,3,5.4,3.7c0.8,0.2,2.9,2.7,3.7,2.9
		c0-0.5-0.9-1.1-1.3-1.4c-1-0.7-2.5-2.1-4-3.2c-0.2-0.2-0.3-0.1-0.3-0.3c-0.5-0.2-1.1-0.6-1.5-0.9c-0.5-0.4-0.4-0.1-1.4-0.8
		c-0.5-0.3-2.5-1.6-2.7-1.8c-0.7-0.2-3-1.9-3.5-1.7c0.1,0.3,0.9,0.8,1.3,0.9c0.1,0.1,0.2,0.1,0.3,0.1
		C217.1,118.1,217,117.9,217.1,118.1L217.1,118.1z M182.3,63.1c-0.1,0.3-0.1,0.3-0.4,0.5c-0.2,0.2-0.3,0.3-0.5,0.5
		c-0.4,0.5-0.6,0.6-1,1c-0.7,0.8-3.1,4.1-3.7,5c-0.1,0.2-0.2,0.4-0.3,0.6c-0.2,0.4-0.8,0.8-0.5,1.2c0.7-0.9,1.2-2,1.7-2.6
		c0.3-0.3,0.4-0.5,0.6-0.8l1.2-1.6c0.4-0.4,0.9-1.3,1.4-1.5c0.2-0.4,1.3-1.6,1.7-1.8l3.3,5.2c0.2,0.4,0.4,0.5,0.5,0.9
		c0.1,0.4,0.3,0.7,0.3,1.1c0.8,0.2,0.2,0.1,0.5-0.1c-0.1-0.5-0.3-0.5-0.5-1c-0.2-0.4-0.1-0.5-0.4-1c-0.2-0.3-0.4-0.7-0.6-0.9L184,65
		c-0.3-0.5-1.2-1.2-1.2-1.7c0.4-0.1,0.8,0.7,0.9,0.9c0.3,0.5,0.6,0.8,0.9,1.2l1.3,1.9c0.3,0.4,0.2,0.4,0.7,0.5
		c-0.1-0.5-1.3-2.2-1.7-2.7c-0.3-0.5-1.4-2.1-1.8-2.4C182.7,62.8,182.6,63,182.3,63.1L182.3,63.1z M198.1,46.6
		c0.3-0.2,0.1-0.2,0.8,0.2l1.6,0.8c0.5,0.2,0.6,0.2,0.7,0.7c-0.6,0-1.5-0.7-2.4-1.1C198.3,47,198.2,47,198.1,46.6z M201.4,46.4
		c-0.4-0.2-0.8-0.5-1.2-0.7c-0.4-0.2-1-0.5-1-0.9l2.7,1.4l0.1,0.4L201.4,46.4L201.4,46.4z M200.3,44.1c-0.4-0.2-0.2,0-0.3-0.3
		l0.5-0.6c0.5,0,1.9,0.8,2.4,1.2c0,0.5-0.1,0.4-0.3,0.7C201.7,44.8,201.1,44.2,200.3,44.1z M178.1,63.4L178.1,63.4l-0.2,0.1
		C177.9,63.4,178,63.3,178.1,63.4L178.1,63.4z M194.8,65.2c0.4-0.2,0.4-0.3,0.8-0.7l2.5-2.2l4.1-3.9c0.3-0.6,1.6-1.8,2.1-2.3
		c0.5-0.5,0.4-0.7,1.3-0.8c1.3-0.3,0.8-0.3,1.7-0.8c-0.1,0.4-0.2,0.6-0.5,0.8l-1.6,1.9c-0.4,0.5-0.7,0.8-1.1,1.2
		c-0.3,0.4-0.3,0.2-0.6,0.5c-0.5,0.4-0.1,0.4-0.7,0.6c-0.1,0.2,0,0-0.2,0.3c-0.1,0.1-0.2,0.2-0.2,0.3c-0.5,0.5-3.6,3.8-3.8,4.2
		l-0.1,0c-0.3,0.6-3.6,3.5-4.6,4.5c-0.4,0.4-1.1,1.2-1.6,1.4l-0.4,0.5c-1.6,1.6-2.9,4.4-3.8,6.4c-0.6,1.3-0.7,1.4-0.4,3
		c0.4,2.7,1.3,6.4,2,9.1c0.2,0.9,0.9,1.9,0.7,3.1l-0.4,0.4c-0.3-0.4-0.5-1.2-0.6-1.8c-0.2-0.7-0.3-1.2-0.5-1.8l-2.1-7.2
		c-0.2-0.5-0.3-1.3-0.6-1.7c-0.3-0.6-0.6-0.9-0.9-1.4c-0.5-0.8-0.3-0.9,0-1.7l1.2-3.4c0.4-1.9,1.6-3.5,2.2-4.8
		c0.4-0.8,0.3-0.9,1.3-1c0.4,0,0.7,0,1.1-0.1c0.4-0.1,0.7-0.2,0.9-0.2c0.2-0.4,1.1-1,1.5-1.3C194,66,194.6,65.6,194.8,65.2
		L194.8,65.2z M225.5,100.4c0.1,0.4,0.4,0.2,0.1,1c-0.1,0.5-0.2,0.8-0.5,1c-0.1-0.2-0.1,0-0.1-0.3c-0.1-0.5,0,0.1,0-0.6
		c-0.4,0-0.1,0-0.6,0.2l-0.1-0.2c0,0,0-0.1,0-0.1c-0.1-0.1,0-0.1-0.1-0.2c-0.5,0.2,0,0.3-0.6,0.3c0-0.4,0.1-0.6,0.1-0.9
		c-0.6,0.2-0.2,0.3-0.8,0.3l0.2-0.8c-0.5,0.1-0.3,0.2-0.7,0.4c0-0.6,0.3-0.4,0.3-1.1c-0.5,0.2-0.1,0-0.5,0.4
		c-0.3,0.3,0.1,0.1-0.4,0.3c0.1-0.7,0.5-0.9,0.6-1.5c-0.7,0.3-0.7,1.4-1.3,1.4c0-0.3,0.4-0.9,0.6-1.2c0.2-0.4,0.4-0.8,0.5-1.2
		c-0.7,0.1-0.3,0.7-1.1,1c0.1-0.9,0.6-1.1,0.7-1.8c-0.7,0.1-1,1.8-1.8,2c0.1-0.8,0.8-1.1,0.9-2.1c-0.7,0.3-1.2,1.5-1.6,1.7
		c-0.2-0.4,0.9-1.4,1.1-1.7c0.8-1,0.2-1.1,1.6-1c1.5,0.1,1.2,0,2.2,0.7c0.4,0.3,1.4,1.1,1.8,1.1l0.4,0.3c0,0,0.1,0.1,0.1,0
		c0,0,0.1,0,0.1,0c-0.3,0.3-2.1,0.8-2.8,1.3C224,99.5,224.9,100.1,225.5,100.4L225.5,100.4z M220,116.5c0.6,0.2,4.2,3.5,5.4,4.3
		l0.1,0.1c0.4,0.1,1.1,0.8,1.4,1.1c1.1,1,0.6,0.4,1.2,1.3c0.1,0.1,1.6,1.6,2.4,2.6c0.8,1,4,4.9,4.1,5.7c-0.5-0.2-1.8-1.2-2.3-1.5
		l-4.7-2.9c-0.8-0.5-1.2-0.5-1.9-0.9l-0.5-0.3c-0.5-0.1-5-2.2-5.2-2.4c-0.7-0.2-1.4-0.6-2.1-0.9l-1.6-0.5c-0.4-0.2-0.2-0.2-0.2-0.2
		l-0.4,0c0,0.5,0.1,0.1,0.3,0.6l-6.2,7.9c-0.3,0.5-0.7,0.8-1,1.3c-1.3,1.9-0.3,0.8-1.2,1.2c0.1,0.2,0.3,0.9,0.5,1.2l1.5,4.1
		c0.3,0.6,0.8,1.9,1.5,3.1c1,1.6,4.7,8.7,5,8.8l12.5,0l9.1,0c0.1-1.5-0.1-3.1-0.1-4.5l0.1-27.7c0-1.1,0.1-3.6-0.1-4.5
		c-0.7-0.6-3.1-1.4-4-1.7l-4.3-1.2c-0.7-0.1-1-0.2-1.7-0.3c-0.6-0.1-1.2-0.1-1.8-0.2c-0.4-0.1-1.6-0.1-2-0.1
		c-0.7,0.1-2.2,2.7-2.6,3.4c-0.4,0.5-1.3,1.8-1.5,2.5c-0.5-0.1-0.7-0.5-1.1-0.4C219,115.9,219.7,116,220,116.5L220,116.5z
		 M157.6,72.8c0.4,0.2,2.4,3.1,2.8,3.6l2.1,2.9c0.2,0.3,0.2,1.1,0.2,1.5c-0.3-0.2-0.5-0.5-0.7-0.9l-3.6-4.7
		c-0.2-0.3-1.2-1.4-1.4-1.8C157,73,157.2,72.8,157.6,72.8z M157.7,33.5c-0.1-0.9,0-0.3,0.3-0.5c0.2,0.3,0.4,1.1,0.4,1.6
		c-0.5-0.1-0.3-0.2-0.5-0.6C157.8,33.8,157.7,33.7,157.7,33.5z M185.5,23.8l-0.8,2.3c-0.2,0.4,0.2-0.4-0.1,0.1c0,0,0,0.1-0.1,0.1
		c0,0,0,0-0.1,0.1c0,0.5-0.3,1-0.5,1.5c-0.2,0.5-0.4,1-0.7,1.3c0.1,0.3-0.9,2.1-1,2.3c0,0.3,0.1,0.1-0.2,0.3
		c-0.3-0.2-0.1-0.1-0.4-0.2c-1.9-1.4-2.9-1.7-5.2-2.4c-2-0.7-1.1-0.5-3.4-0.7c-2-0.2-0.8-0.4-3.6-0.1l-0.5,0.1
		c0.1-1.3,0.2-2.6,0.4-3.8c0.1-1,0.5-2.2,0.7-3.2l0.6-1.9c0.3-1.1,0.5-1.9,1.8-1.7c0.4-0.3,2.9-0.2,3.6-0.3
		c2.1-0.2,9.7-0.7,10.9,0.1c0,0.9-0.5,1.5-0.5,2c-0.1,0.5-0.1,0.5,0.2,0.6c0.2-0.1,0.5-1.9,0.7-2.4c0.1-0.3,0-0.1,0.2-0.3l1.5,0.1
		c0,0.4-1.9,6-2.3,7.1c-0.5,1.2,0,1,0,1.1c0.1-0.3,0-0.3,0.3-0.6l0.1-0.4c0.2-0.8,0.6-2,0.9-2.7c0.2-0.5,0.3-0.8,0.5-1.3
		c0.1-0.3,0.4-1.2,0.4-1.3c0.1-0.6,0.3-1.6,0.7-1.9l0.5,0c0.2,0.2,2,0.4,2.4,1.2c0.2,1.1-0.3-0.1-0.1,0.7l0.3,0.7
		c0.1,0.4,0.3,1.3,0.6,1.6c0.1,0.5,0.3,1,0.3,1.6c0,0.4-0.1,0.5-0.3,0.8c-0.2,0.3-0.2,0.4-0.4,0.6c0,0.4-0.8,1.7-1.2,2.5
		c-0.1,0.2-0.1,0.3-0.2,0.4l-0.3,0.4c0,0.4-0.7,1.5-1,2c-0.9,1.8-1,2.1-2.1,3.9c-1.4,2.3-0.6,0.8-1.3,1.7l-0.3,0
		c-0.1-0.2-0.1-0.3-0.2-0.5c-0.1,0.3-0.1,0.4-0.4,0.6c-0.3-0.4,0.4-0.8,0.5-1.9c-0.1-0.1,0.1-0.2-0.2-0.1l-0.5,0.1
		c0.1-0.6,0.4-1,0.2-1.3l-0.7,0.7l0-0.4c0.3-0.4,0-0.5-0.1-0.6c-0.3,0.7-0.5,1.4-0.9,1.6c-0.2-0.4,0.2-1.2,0.5-1.8
		c0.2-0.4,0.6-1.4,0.5-1.7c0-0.5-0.2-0.2,0.1-0.9c0.4-0.8,0.6-1.6,1-2.4l0-0.7c-0.4,0.2-0.2,0.2-0.6,1.1c-0.1,0.3-0.3,0.8-0.5,1
		c0.1,0.4-0.9,2.4-1.1,2.8c-0.2,0.4-0.4,1.1-0.6,1.4c-0.3,0.4-0.2,0-0.4,0.6c-0.1,0.4-0.1,0.5-0.4,0.7c0,0.6-3.2,3-3.9,3.5
		c-1.4,1.1-0.8,0.3-2.3,1.4c-0.7,0.5-1.4,1-2.1,1.6c-2.6,2-2.4,1.1-2.4,4.9c0,0.9,0.2,6.8,0.1,7.1c-0.7,0-0.3-0.4-0.5-1.5
		c-0.1-0.6-0.1-1.3-0.1-1.8c-0.4-3.8-0.1-4.1-0.1-7.3c0-0.9,0-1,0.5-1.5l2.2-1.7c0.5-0.4,0.7-0.4,1.2-0.7c0.7-0.5,1.5-1.1,2.3-1.6
		c1.1-0.8,3.6-2.7,4.1-3.7c0.5-0.8,0.8-1.8,1.3-2.7c0.3-0.6,0.9-2.3,1.2-2.6c0.2-0.9,0.9-2.5,1.3-3.3c0.2-0.5,0.3-1.2,0.5-1.7
		c0.2-0.5,0.6-1.2,0.2-1.6C186.2,21.2,185.9,23.5,185.5,23.8z M166.6,28.9l-0.7,0.1l-0.3,0.3c-0.1,0.1-0.2,0.2-0.4,0.3l-1.4,0.9
		c-0.8,0.4-1,0.8-2,1.6l-0.9,0.9c-0.2,0.3,0.2,0.1-0.2,0.3c-0.2-0.1-0.1,0.1-0.2-0.3l-0.3-0.9c-0.2,0.3-0.1,0.3-0.3,0.5l-0.6-2.1
		c-0.4,0.6,0.2,1.6,0,2.1l-0.7-2.7c-0.4,0.3,0.3-0.3-0.2,0.2c-0.2,0.2,0.2,0.1-0.2,0.1c0-0.3-0.1-0.6-0.1-0.9
		c-0.1-0.8-0.1-0.7-0.1-0.8c0-0.1,0-0.1,0-0.1c-0.1,0.1-0.1,0.1-0.1,0.3l-0.1,0.6c0,0.9,0.2,1.5,0.3,2.4l0.6,2.2
		c0.1,0.2,0.2,0.4,0,0.4c-0.2-0.3-0.7-2.1-0.8-2.6c-0.4-1.3-0.2-2.8-0.4-3.2c-0.4,0.7,0,2.6,0.1,3.4c0.1,0.3,0.2,0.7,0.1,0.9
		c-0.3-0.2-0.4-0.4-0.5-1.1c0-0.4,0-0.3-0.1-0.7L157,29c0-0.3,0.2-0.9,0-1.2c-0.2,0.2-0.2,0.3-0.3,0.7c0,0-0.1-0.1-0.2,0.5
		c0,0.2,0,0.4,0,0.6c-0.3-0.1-0.4,0.2-0.3-1c0.3-1.7,1.6-3.7,2.7-5.1l0.2-0.2c0.2-0.5,0.3-0.3,0.7-0.8c0.2-0.2,0.5-0.7,0.6-0.8
		c0.3-0.3,1.5-0.8,1.9-0.9c0.3-0.3,1.1-0.6,1.5-0.8c1.6-0.6,3.8-1.5,5.4-1.7c-0.1,0.4-0.6,1.6-0.8,2.1c-0.3,0.8-0.4,1.5-0.5,2.4
		c-0.2,0.9-0.6,2.9-0.6,3.8l-0.1,0.9c0,0,0,0.1,0,0.1l-0.1,0.2l0.1,0.5L166.6,28.9L166.6,28.9z M193.2,46.8
		c-1.1-0.2-5.3,0.6-6.5,1.3c-1.6,0.8-1.8,1.2-2.3,1.6c-0.5,0.3-2,1.3-2.1,1.6c-0.5,0.1-0.2,0.1-0.3-0.1l3-2.7
		c0.4-0.4,1.2-0.9,1.6-1.3c0.6-0.6,0.6-0.6,2-0.8c2.2-0.3,2.8-0.4,5.2-0.5c2.2-0.1,1.6,0.1,3.2-1.1c0.3-0.3,0.4-0.5,0.8-0.6l-0.8,1
		c-0.3,0.4-0.5,0.6-0.8,0.9c-0.7,0.8-0.8,0.2-2.4,0.5C193.2,46.7,193.5,46.5,193.2,46.8z M181.8,49.4L181.8,49.4l0.7-0.5
		c-0.4-0.3-0.2,0-0.3-0.3c0.4-0.4,2.3-2.2,2.7-2.2c0.3-0.4,0.8-0.7,1.1-0.9c0.4-0.3,0.7-0.8,1.1-0.9c0.2-0.4,0.9-0.7,1.2-0.9
		c1-0.6,2.1-0.6,3.6-0.5c1.3,0,1.7-0.2,1.6,0.3l-1,0.3c0.2,0.6,0.2-0.1,0.4,0.4l-0.8,0.1c-0.5,0.2,0,0-0.3,0.3
		c-0.4,0.4-0.3,0.2-1.1,0.3c-0.1,0.2,0,0.1-0.1,0.3l-0.1,0.3c-0.5,0.1-0.3,0-0.7,0.3c-0.8,0.5-1.4,0.3-2.5,0.6
		c-0.2,0.2-0.4,0.3-0.7,0.5c-1,1-1,0.9-2.1,1.7c-0.8,0.7-1.9,1.9-2.8,2.4c-0.2-0.3,0,0.1,0-0.4c0.2-0.1,0.1,0,0.3-0.2
		c-0.1-0.3,0.1,0-0.3-0.3c-0.1-0.1-0.2-0.1-0.3-0.2C182,49.5,181.7,49.7,181.8,49.4L181.8,49.4z M207.8,150.1l7.9,0
		c-0.1-0.2-0.9-0.7-1.2-0.8c-0.6-0.4-0.8-0.5-1.3-0.8c-1.5-1-4.2-3.3-5.6-4.7l-0.7-0.9c-0.1-0.2-0.1-0.1-0.1-0.2
		c-0.6-0.3-0.6-0.5-1.2-1c-0.4-0.3-1-0.6-1.7-1.5l-1.7-1.6c-0.6-0.1-3.2,2.4-4.3,2.8c-1.9,0.6-0.4,0.1-2,0.9
		c-1.2,0.6-3.5,2.3-3.1,3.9c0.4,1.8,1.5,3,1.8,4L207.8,150.1z M227.1,104.8c0.3,0,1.9,0.8,2.1,1c0.7,0.1,1.6,0.8,2.2,1.2
		c0.5,0.3,1.8,0.8,2.1,1.3c0.3,0,0.6,0.3,1,0.5c1,0.7,2.2,1.8,3.2,1.8l0-8.3c-1.9-0.9-1.9-1-4.3-1.4c-1.6-0.3-3.9-0.2-5.5-0.1
		c-0.2,0.8-0.3,1.2-0.6,1.9c-0.2,0.5-0.7,1.3-0.6,1.9C227.2,104.8,226.6,104.4,227.1,104.8L227.1,104.8z M202.7,21l0-0.2
		c-0.2-0.5,0.3,0.2-0.1-0.1c-0.1,0.2-0.1,0.1-0.2,0.2l-0.2,2c-1.7-0.5-0.9-3.6-0.4-4.7c0.2-0.7,0.9-2.7,1.4-3.3
		c0.1-0.2,0.2-0.3,0.3-0.4c0.4-0.5,0-0.2,0.5-0.4c0.1,0.9,0.4,1.7,0.4,2.6c-0.2-0.2-0.1,0.2-0.2-0.2c-0.1-0.2-0.3-0.4-0.4-0.8
		c-0.1-0.4-0.1-0.4-0.3-0.7c-0.4,0.4,0.2,1.2,0.4,2.2c0.1,0.5,0.1,0.6,0,0.7l-0.5-1.2c-0.5,0.3,0.4,1.2,0.2,2.4
		c-0.1,0.7,0.1-0.5,0,0.2l-0.1,0.2c-0.4-0.6,0-1.1-0.5-1.5c0,0,0,0.1,0,0.1C202.5,18.9,203.4,20.6,202.7,21L202.7,21z M151.8,58.4
		c-0.1-0.5-0.4-0.6,0-1.2c0.3-0.4,0.6-0.7,1.2-0.6c0.4,0.8,0.6,1.1,1.2,1.7l1.7,1.2c0.3,0.5,1,0.4,1.6,0.4c0.9,0,1.3,0,1.6,0.3
		c-0.1,0.4,0.1,0.1-0.4,0.3c-0.6,0.3,0.1,0.1-0.6,0.6c-0.3,0.2,0-0.1-0.2,0.1c-0.1,0.1,0,0-0.1,0.2c-0.1,0.2,0,0.1-0.1,0.2
		c-0.5,0.1-1.8,0.1-2.2,0.1c-0.6-0.1-1-0.6-1.3-0.9C153.6,60,152.4,58.6,151.8,58.4L151.8,58.4z M166.3,62.9
		c-0.1-0.2-0.1,0.2-0.1-0.4l0.5-5.6c0.1-0.2,0-0.1,0.1-0.3c0.1,0.1,0.2-0.1,0.2,0.8l-0.4,5.1C166.4,62.9,166.5,62.7,166.3,62.9z
		 M161.5,140.2c-0.2,0.3-0.8,0.8-1.1,1c-0.5,0.3-0.6,0.4-1,0.9c-0.9,0.8-1.1,1.3-1.5,2.4c-0.4,0.8-2.2,4.8-2.2,5.5l5.1,0
		c0-0.3,1.1-2.4,1.3-2.7c0.3-0.3,0.8-0.6,1.2-0.8c0.4-0.2,1.1-0.6,1.5-0.6l-0.1,3.4c-0.1,0.4-0.3,0.4-0.3,0.7l0.7,0l0-4.8
		c-0.7,0.1-1.8,0.8-2.5,0.8l-0.5-5.4c0.1-0.4-0.1-0.1,0.1-0.3l0.4-2.2c0.1-0.6,0.3-1.6,0.3-2.3c-0.4,0.6-0.5,1.7-0.6,2.5
		C162.4,139.1,162.4,139.9,161.5,140.2L161.5,140.2z M168.5,30.3c-0.4,0.2-0.6,0.2-0.9,0.2c-0.3-2.3,0.6-8.1,1.4-10.3
		c0.6-1.7,0.2-2,1.9-2.2c-0.2,0.9-0.7,1.7-1,2.7c-0.2,1-0.5,1.9-0.7,3l-0.6,4.8C168.6,29.1,168.7,29.9,168.5,30.3L168.5,30.3z
		 M157.1,126.2c-0.5,0.7-1.1,1.2-1.2,1.8c0.3-0.2,0.6-0.4,0.8-0.8c0.3-0.4,0.3-0.6,0.8-0.8c0.3-0.6,0.9-1.1,1.4-1.6
		c0.6-0.7,1.4-1.3,1.4-1.7c-0.5,0.1-1.9,1.7-2.5,2.3C157.6,125.7,157.4,126,157.1,126.2L157.1,126.2z M189.4,150
		c-0.1-0.4-0.5-0.7-0.9-0.8c0.1,0.3,0.1,0.4,0.3,0.6C189,150.1,188.9,150,189.4,150z M195.7,43.2c0.1-0.2,0,0,0.1-0.3
		c-0.6-0.4-1.2-1.5-1.7-2.3c-0.8-1.4,0.3-1.8,0.4-3c-0.4,0.1-0.2,0.2-0.6,0.3c0-0.3,0.4-1.9,0.6-2.1l0.1-0.5c-0.7,0.3-0.8,1.7-1.2,2
		l0-0.5c0.1-0.5,1.5-2.9,1.3-3.3c-0.5,0.2-1.1,1.8-1.5,2.6c-0.4,0.8-0.2,0.7-0.6,0.7c0.1-0.9,2-4.2,1.8-4.5
		c-0.5,0.2-1.5,3.1-2.2,3.4c-0.1-0.3-0.1,0.1,0-0.4c0.1-0.5,1.5-2.8,1.8-3.4c0.1-0.2,0.2-0.4,0.4-0.6c0.1-0.2,0.2-0.3,0.1-0.5
		c-0.3,0.2-0.8,1.3-1.1,1.7l-1.2,1.6c0.1-0.7,0.6-1.1,0.9-1.8c0.2-0.4,2.5-4.6,2.8-4.8c0.2-0.6,0.9-1.7,1.3-2.3
		c0.3-0.4,0.4-0.5,0.9-0.8c0.3-0.2,0.8-0.5,1.2-0.5c0.3,0.6,0.4,1.9,0.7,2.7c0.3,0.8,0.5,1.6,0.8,2.4c0.4,0.9,1.7,4,1.9,4.5
		c0.2,0.7-0.7,3.1-0.9,3.5l-1.2,2.2c-0.2,0.5-0.1,0.5-0.4,0.7c0,0.5-0.6,1.1-0.9,1.5c-0.8,1-2,3.4-3.6,3.8L195.7,43.2L195.7,43.2z
		 M168.4,121.3l-0.3-0.4c-0.2-0.1-0.5-0.3-0.7-0.6c-0.4-0.2-0.2-0.1-0.4-0.4c-0.5-0.5-0.7-0.9-1.1-1c0.3,1.1,1.6,1.9,1.9,2.1
		c0.5,0.6-0.1,0.4,0.6,0.7C168.4,121.5,168.4,121.7,168.4,121.3L168.4,121.3z M168.6,122.3l-0.2-0.3c-0.1-0.1-0.1-0.1-0.2-0.2
		L166,120c0.2,0.5,0.8,1,1.3,1.4c1,0.9,0.8,1.2,1.4,1.4L168.6,122.3L168.6,122.3z M228.3,108.7c1.2,0,8.4,3.4,8.8,3.4
		c-0.4-0.9-3.9-1.9-4.2-2.3c-0.4-0.1-4.8-1.9-4.8-1.9c-0.2-0.1-2-0.6-2-0.6c-0.3-0.1-0.7-0.2-1-0.3c-1.4-0.4-0.9-0.2-1.1,0
		C224.8,107.3,227.9,108.3,228.3,108.7L228.3,108.7z M208.3,141.4c0.7,0.1,2.8,3.4,3.4,3.7c0-0.5-2.3-3.2-2.7-3.6
		c-0.3-0.2-0.9-0.6-1-1.2c-0.7-0.4-0.8-1.3-2-2.7c-0.3-0.4-0.6-0.9-1-1.3l-0.7-1c-0.4-0.4,0-0.1-0.5-0.3c0.1,0.7,0.7,1.2,1.1,1.7
		c0.5,0.8,1.5,1.9,1.9,2.6c0.2,0.3,0.1,0.2,0.2,0.5C207.4,140.3,208,140.9,208.3,141.4L208.3,141.4z M167.3,119.5L167.3,119.5
		C167.3,119.6,167.3,119.5,167.3,119.5l-0.2-0.1c-0.5-0.5-0.8-1.2-1.4-1.5c0.2,0.8,1,1.3,1.4,1.9
		C167.4,119.8,167.2,119.8,167.3,119.5L167.3,119.5z M200.2,108c-0.2,0.6,0.2,0.5-0.3,1c-0.3,0.4-0.5,0.4-0.6,1.1
		c0.8-0.2,0.5-0.4,1.3-1.1l2.5-4c0.4-0.6,1.4-1.6,1.5-2.4c-0.7,0.2-0.3,0.3-0.8,0.7c0.1-0.6,0.4-0.4,0.5-1.2
		C203.5,102.3,200.7,107.5,200.2,108z M201.4,97.3c0.4-0.1,0.2-0.1,0.6-0.3c-0.1,0.5-0.2,0.5-0.3,0.7c-0.1,0.5,0.1-0.3,0.2,0.6
		c-0.2,0.1-0.2,0-0.4,0l-0.3,0.2c-0.3,0.2-0.5,0.5-0.3,0.8c0.2-0.2,0.4-0.6,0.5-0.9c0.3,0.1,0.2,0.1,0.3,0.2
		c0.2,0.2-0.1,0.1,0.2,0.2c0.1-0.4,0.2-0.7,0.5-0.9c0.2-0.2,0.2-0.2,0.4-0.4c0.1-0.1,0.2-0.3,0.3-0.4c1.5-2,0.5-1.3,0.8-2
		c0.6-0.7,0.9-1.1,1.4-2.1l-0.4-0.1c0.2-0.3,0.1-0.2,0.3-0.4c0.1-0.2,0.1-0.3,0.3-0.5c0.3-0.6,0.5-0.4,0.6-1.2
		c-0.6,0.1-1.1,1-1.4,1.5l-1.6,2.5c-0.3,0.6-0.1,0.4-0.5,0.9L201.4,97.3L201.4,97.3z M165.5,105.1c-0.2-0.2-0.3-0.6-0.5-0.9
		c-0.2-0.3-0.5-0.7-0.5-1c-0.6-0.1-0.2-0.1-0.4,0.1c0.2,0.5,0.4,0.8,0.6,1.3c0.5,1.2,0.2,1.1,0.7,1.2L165.5,105.1L165.5,105.1z
		 M159.2,138.6c0.1-0.4,1.1-1.9,1.3-2.3c0.2-0.3,0.4-0.8,0.7-1.2c0.3-0.4,0.6-0.7,0.6-1.1l-0.2-0.1c-0.5,1-1.1,1.6-1.6,2.6l-1.5,2.6
		c-0.5,1.1-2.4,4.7-2.4,5.5c0,0.3,0,0.1,0.1,0.2c0.2-0.1,1.2-2.7,1.4-3.1C158,140.8,158.8,138.9,159.2,138.6L159.2,138.6z
		 M162.4,149.8c0.3-0.3,1.7-2.7,1.7-3.3c-0.5,0.2-0.9,1-1.1,1.5c-0.1,0.2-0.3,0.6-0.4,0.8l-0.3,0.7
		C162.3,150.1,162.3,149.7,162.4,149.8z M158.6,35.4c-0.1-0.5,0-0.4-0.4-0.5C158.1,35.3,158.2,35.3,158.6,35.4z M201.6,47.5
		c-0.1-0.5,0-0.4-0.5-0.6l-2.4-1.2c0.1,0.7,0.1,0.3,1.3,1C200.5,46.9,200.9,47.4,201.6,47.5z M151.7,55.7c0-0.4,0-0.1-0.6-0.9
		l-1.5-1.6c-0.4-0.5-0.1-0.7-0.8-0.9c0.1,0.4,0,0.3,0.3,0.6c0.5,0.6,0.4,0.6,1.1,1.3l1.2,1.2C151.5,55.6,151.4,55.6,151.7,55.7z
		 M195.2,108.9c0.1,0.4-0.2,0.2,0.1,0.4c1-0.7,1.7-1.8,2.3-2.5c0.4-0.4,0.3-0.6,0.8-0.8l0-0.4c-0.6,0.1-0.8,0.9-1.6,1.7
		C196.3,107.7,195.7,108.6,195.2,108.9L195.2,108.9z M207.9,119.3c0.5-0.1,0.7-0.3,0.7-0.8c-0.4,0.1-0.2,0-0.5,0.3
		C208,118.9,208,119,207.9,119.3L207.9,119.3z"/>
</g>
</svg>
