<?xml version="1.0" encoding="utf-8"?>
<!-- Generator: Adobe Illustrator 26.0.1, SVG Export Plug-In . SVG Version: 6.00 Build 0)  -->
<svg version="1.1" id="Слой_1" xmlns:xodm="http://www.corel.com/coreldraw/odm/2003"
	 xmlns="http://www.w3.org/2000/svg" xmlns:xlink="http://www.w3.org/1999/xlink" x="0px" y="0px" viewBox="0 0 238.1 150.2"
	 style="enable-background:new 0 0 238.1 150.2;" xml:space="preserve">
<style type="text/css">
	.st0{fill-rule:evenodd;clip-rule:evenodd;}
</style>
<g id="Слой_x0020_1">
	<path class="st0" d="M162.5,88.2c-0.1-0.4,0-0.9,0.5-0.8c0.1,0.2,0.1,0.4,0,0.6C162.8,88.2,162.7,88.3,162.5,88.2z M195.8,14.2
		c0.1-0.1,0.1-0.1,0.3-0.1l0,0c0.1-0.1,0.2-0.2,0.2-0.3c0-0.4-0.1,0-0.1-0.2c0.1,0,0,0,0.1,0.1l0.1,0.1c0.1,0.1,0.1,0.1,0.1,0.2
		c-0.1,0-0.1,0-0.2,0.1C195.9,14.2,195.9,14.1,195.8,14.2L195.8,14.2z M191.8,34.1C191.8,34.1,191.8,34.1,191.8,34.1
		C191.8,34.2,191.8,34.1,191.8,34.1z M194.2,38c0,0,0.1,0,0.1,0L194.2,38L194.2,38z M198.6,42.4C198.6,42.4,198.6,42.3,198.6,42.4
		C198.7,42.4,198.6,42.3,198.6,42.4C198.7,42.4,198.6,42.4,198.6,42.4z M198.7,42.5l0.3-0.1c-0.1,0.1-0.1,0.1-0.1,0.2
		C198.9,42.6,198.8,42.5,198.7,42.5z M200,43.6L200,43.6L200,43.6L200,43.6z M191.3,48.3L191.3,48.3L191.3,48.3L191.3,48.3l-0.2-0.3
		l0,0c-0.1,0.3,0,0.1,0.1,0.3h-0.7l-0.2,0.3c0.1,0.1,0.1,0.1,0.1,0.3h-0.1l0,0c-0.1-0.1-0.1-0.2-0.1-0.3l0,0c0,0,0,0,0-0.1
		c0-0.1,0-0.1,0-0.2c0-0.3-0.1-0.1-0.1-0.4l0,0l0.1,0.3l0,0c0.1,0,0,0,0.1,0c0,0,0-0.1,0.1-0.1l0.1-0.2c-0.1,0.1,0.1,0.1,0.2,0.2
		l-0.2-0.9c-0.1-0.4,0.1-0.5-0.2-0.7c-0.1-0.1,0-0.1-0.2-0.1c-0.1,0-0.1,0-0.2,0l-0.1,0.5c0-0.2,0-0.1-0.1-0.3l0,0c0-0.1,0,0,0-0.1
		l-0.1-0.5c0-0.1,0,0-0.1-0.1c0-0.1,0-0.2,0-0.4l0.1,0.1l0,0l0,0h0.1c0.1-0.1,0.1-0.1,0.1-0.3c0-0.1,0-0.3,0-0.4s0-0.1,0-0.2
		c0-0.1,0,0,0-0.1c0-0.1,0-0.3,0-0.4c-0.1,0.1,0,0,0,0.1c0,0.2,0,0.3,0,0.5c0.2-0.1,0.1-0.2,0.1-0.5c0-0.2,0-0.3,0-0.4
		c-0.1-0.3,0-1-0.1-1.1c-0.1-0.1-0.2-0.3-0.3-0.3c-0.2,0-0.2,0-0.2,0.1v0.2c0-0.1,0,0-0.1-0.1l0,0v0.1l0,0v0.1
		c0-0.2-0.1-0.3-0.1-0.4l-0.1-0.4c0,0,0,0,0-0.1s0-0.3,0-0.4v-0.1l0,0c0.1-0.2,0-0.4,0-0.6c0,0-0.1,0,0,0.1l0.1,0.1
		c0-0.3,0-0.9,0-1.2l0,0v-0.3c-0.1-0.1,0-0.1-0.2-0.1c0,0.1,0,0.2,0,0.2s0,0-0.1,0c0.2-0.1,0-0.3,0-0.3c-0.1,0-0.1-0.1-0.2,0l0,0
		c-0.1,0.1-0.1,0,0,0.3h0c-0.1-0.1,0,0-0.1-0.1v-0.1c-0.3,0,0,0-0.2-0.1c0-0.2,0-0.3,0-0.4l-0.1-0.5c0-0.2-0.1-0.2,0-0.5
		c-0.1,0-0.2,0-0.1-0.1c0.2-0.1-0.1,0.2,0.5,0.2c0-0.4-0.1-0.2-0.1-0.5c0-0.1,0.1-0.5,0-0.6v-0.1l0,0l-0.2-0.2l-0.2,0l0,0
		c-0.1-0.1,0,0,0-0.2s0-0.4-0.1-0.5l-0.1,0.2v0.1c0-0.1,0-0.2,0-0.2c0-0.2-0.1-0.1-0.1-0.3v-0.2c-0.2-0.2-0.3,0-0.4-0.2
		c0.1,0,0.1-0.2,0-0.3c-0.1-0.2,0-0.5-0.2-0.7c-0.1-0.1,0-0.1-0.2-0.1l-0.3-0.1c-0.3-0.1-0.1-0.1-0.3-0.4l-0.2-0.2l0,0h-0.1
		c-0.1-0.1-0.1-0.1-0.1-0.2c-0.2,0-0.1-0.1-0.2,0.1v-0.2l-0.3-0.1c0,0,0,0,0-0.1l0,0l-0.2,0.1c0-0.4-0.1-0.6-0.5-0.8
		c-0.2-0.1,0-0.1-0.2-0.1l0-0.2h-0.2c0.1,0,0.1,0,0.1-0.1c0-0.2,0,0-0.1-0.2c-0.2-0.2-0.1-0.3-0.5-0.4c-0.1,0-0.1-0.1-0.3,0
		l-0.2-0.2l0,0c-0.1-0.1,0.1-0.1-0.2-0.2c-0.1,0-0.1-0.1-0.1,0c0-0.3,0-0.1,0-0.2c0.1-0.2,0-0.3-0.1-0.5l-0.1-0.1l0,0l-0.3-0.1h0.3
		l0.3-0.1l0,0l0,0l0.3,0.1l0,0l0.1,0.1c0.1,0.2,0.2,0.3,0.1,0.5c0,0.1,0-0.1,0,0.2c0-0.1,0-0.1,0.1,0c0.2,0.1,0.1,0.1,0.2,0.2l0,0
		l0.2,0.2c0.2-0.1,0.2,0,0.3,0c0.3,0.1,0.3,0.2,0.5,0.4c0.1,0.1,0.1,0,0.1,0.2c0,0.1,0.1,0.1-0.1,0.1l0.6,0v0.4c0.3,0,0,0,0.2,0.1
		c0.4,0.2,0.5,0.3,0.5,0.8l0.2-0.1l0,0v0.1l0.3,0.1v0.2c0.1-0.2,0,0,0.2-0.1c0,0.1,0,0.2,0.1,0.2h0.1l0,0l0.2,0.2
		c0.2,0.3,0,0.3,0.3,0.4l0.3,0.1c0.1,0.1,0.1,0,0.2,0.1c0.1,0.2,0.1,0.5,0.2,0.7c0,0.1,0.1,0.3,0,0.3c0.2,0.2,0.3,0,0.4,0.2v0.2
		c0.1,0.2,0.1,0.1,0.1,0.3c0,0.1,0,0.2,0,0.2v-0.1l0.1-0.2c0.1,0.1,0.1,0.3,0.1,0.5c-0.1,0.2-0.1,0.1,0,0.2l0,0l0.2,0l0.2,0.2l0,0
		v0.1c0.1,0.1,0,0.4,0,0.6c0,0.3,0.1,0.2,0.1,0.5c-0.7,0-0.4-0.3-0.5-0.2c-0.1,0,0.1,0,0.1,0.1c0,0.3,0,0.3,0,0.5l0.1,0.5
		c0,0.2,0,0.3,0,0.4c0.3,0.1,0,0.1,0.2,0.1v0.1c0.1,0.1,0,0,0.1,0.1l0,0c-0.1-0.2,0-0.2,0-0.3l0,0c0.1-0.1,0.1,0,0.2,0
		c0.1,0.1,0.2,0.2,0,0.3c0.1,0,0.1,0,0.1,0s0-0.1,0-0.2c0.2,0.1,0.1,0,0.2,0.1V40l0,0c-0.1,0.3,0,0.9,0,1.2l-0.1-0.1
		c-0.1-0.1-0.1-0.1,0-0.1c0,0.2,0,0.4,0,0.6l0,0v0.1c0,0.1-0.1,0.3,0,0.4c0,0.1,0,0.1,0,0.1l0.1,0.4c0.1,0.2,0.1,0.2,0.1,0.4v-0.1
		l0,0v-0.1l0,0c0.1,0.1,0,0,0.1,0.1v-0.2c0-0.2,0-0.1,0.2-0.1c0.1,0,0.2,0.2,0.3,0.3c0.1,0.1,0,0.7,0.1,1.1c0,0.1,0,0.3,0,0.4
		c0,0.3,0.1,0.4-0.1,0.5c-0.1-0.1,0-0.3,0-0.5c0-0.1-0.1,0,0-0.1c0,0.1,0,0.3,0,0.4s0,0,0,0.1c0,0.1,0,0,0,0.2c0,0.1,0,0.3,0,0.4
		s0,0.2-0.1,0.3h-0.1l0,0l0,0l-0.1-0.1c0,0.1-0.1,0.2,0,0.4c0,0.1,0,0,0.1,0.1l0.1,0.5c0,0.1,0,0,0,0.1l0,0c0,0.2,0.1,0.1,0.1,0.3
		l0.1-0.5c0.1,0,0.1,0,0.2,0c0.1,0,0.1,0,0.2,0.1c0.3,0.3,0.1,0.4,0.2,0.7l0.2,0.9c-0.1,0-0.2-0.1-0.2-0.2l-0.1,0.2
		C191.4,48.2,191.4,48.2,191.3,48.3L191.3,48.3L191.3,48.3z M182.5,30.1L182.5,30.1c-0.2,0-0.4,0-0.5,0v0.2c-0.1,0,0.1,0-0.1-0.1
		l-0.2-0.1c0.1-0.1,0-0.1,0.1-0.1h0.1c0-0.2,0-0.1,0-0.4v-0.1l0,0c0,0-0.1,0,0.1,0c0-0.2,0-0.2,0-0.4c-0.1-0.3-0.3-0.4-0.6-0.4
		c0-0.3,0,0-0.1-0.2l-0.6-0.5c0-0.2,0-0.4,0-0.6c0-0.2,0.1-0.3,0-0.5v-0.1c0-0.1,0-0.3,0-0.4c0.2,0,0.3,0.1,0.5-0.3l0.1-0.1
		c0.1-0.4,0.2-0.2,0.2-0.4c0,0-0.1-0.1,0,0h0.1l0.4-0.4l0,0l0,0c0,0,0.2,0,0.3,0l-0.2,0.2H182c-0.1-0.1,0,0,0,0
		c0,0.2-0.1,0.1-0.2,0.4l-0.1,0.1c-0.2,0.4-0.4,0.3-0.5,0.3c0,0.1,0,0.3,0,0.4v0.1c0.1,0.2,0,0.3,0,0.5c-0.1,0.2,0,0.4,0,0.6
		l0.6,0.5c0.1,0.2,0.1-0.1,0.1,0.2c0.3,0,0.5,0,0.6,0.4c0,0.1,0,0.2,0,0.4c-0.2,0,0,0-0.1,0l0,0v0.1c-0.1,0.2,0,0.1,0,0.4h-0.1
		c-0.1,0-0.1,0-0.1,0.1L182.5,30.1C182.5,30.1,182.5,30.1,182.5,30.1z M183.2,25v-0.3l0,0v-0.2c0.2,0,0.2,0.1,0.3,0h0.1h0.1v0l0,0
		v0.3h-0.2C183.4,24.9,183.4,24.9,183.2,25C183.3,25,183.2,25,183.2,25z M184.4,24.3L184.4,24.3L184.4,24.3L184.4,24.3
		c0,0,0-0.1,0.1-0.1c0-0.1,0-0.2,0-0.3l0.2-0.1l0,0l0,0c0.1,0,0,0,0.1,0c0.1,0,0.2-0.2,0.4-0.2l0,0h0l0,0l0,0l-0.2,0.1
		c0,0.1,0,0.2,0,0.3c0,0,0,0.1-0.1,0.1l0,0l0,0c-0.1,0.1-0.1,0.1-0.3,0.2h-0.1H184.4L184.4,24.3z M185.2,23.6
		C185.2,23.6,185.3,23.6,185.2,23.6L185.2,23.6L185.2,23.6L185.2,23.6z M185.6,23.4L185.6,23.4l0.1-0.1c0.1,0,0,0,0.1,0
		c0.1-0.1,0.2,0,0.3,0v0c0,0,0,0.1-0.1,0.1l0,0l0,0l0,0c-0.1,0,0,0-0.1,0h-0.1C185.6,23.3,186,23.4,185.6,23.4
		C185.7,23.4,185.6,23.4,185.6,23.4L185.6,23.4z M186.8,23.1L186.8,23.1C186.8,23.1,186.8,23.1,186.8,23.1z M187,23l0.1-0.1
		c-0.1-0.3,0,0,0-0.3h0.1l0,0h0.3l0,0l0,0l0,0l0,0l0.1-0.1c0,0.1-0.1-0.1,0,0.2l-0.5,0.3l0,0C187.1,23,187.1,23,187,23
		C187,23,187,23,187,23z M187.6,22.5c-0.1-0.2-0.2-0.2,0-0.2c0-0.4-0.1-0.4-0.1-0.6c-0.1,0.1,0.1,0.1,0.2,0.1c0-0.3,0,0,0-0.1
		s0-0.1,0-0.2l0,0l0.1-0.1l0,0l0,0l0,0l0,0c0.3,0,0.2-0.1,0.2-0.2c0.1-0.2-0.1,0.1,0-0.1c0.1-0.1,0.1-0.1,0.2-0.1h0.1v-0.3h0.3h0.1
		l0,0l0.1-0.1v0.2h-0.1c-0.1,0-0.1,0-0.2,0.1c-0.2,0.2,0-0.1,0,0.1c0,0.1,0.1,0.2-0.2,0.2l0,0l0,0l0,0l0,0l-0.1,0.1l0,0
		c0,0.1,0,0.1,0,0.2c0.1,0.2,0-0.1,0,0.1c-0.1,0-0.3,0-0.2-0.1c0,0.3,0.1,0.3,0.1,0.6c-0.2,0-0.1,0,0,0.2l-0.1,0.1l0,0l0,0l0,0l0,0
		h-0.3l0,0L187.6,22.5C187.6,22.4,187.6,22.5,187.6,22.5L187.6,22.5z M189,20.5c0-0.1,0-0.2,0-0.3c0.1,0-0.1,0.1,0.1,0
		c0.2,0,0.2-0.1,0.3-0.2c0.2-0.2,0.2-0.3,0.2-0.6c0-0.2,0-0.1,0-0.2c0,0,0-0.1,0-0.2c-0.1,0.1,0,0,0,0.1l0,0
		c0.1-0.1,0.2-0.1,0.2-0.3c0-0.1,0-0.1,0-0.1c-0.1,0.1,0,0,0,0.1c0.1-0.1,0.1,0,0.1-0.2c0.1-0.1,0,0,0.1-0.1l0.1-0.3
		c-0.1,0.1-0.1,0,0,0h0.1l0,0l0,0l0.1-0.1l0,0c0.1-0.1-0.1,0.1,0.1,0c0.2-0.1,0-0.1,0.2-0.1c0,0,0,0,0,0l-0.1,0.3
		c-0.1,0.2,0,0-0.1,0.1c-0.1,0.1,0,0.1-0.1,0.2c-0.1-0.1-0.1-0.1,0-0.1c0,0.1,0,0.1,0,0.1c0,0.2-0.2,0.2-0.2,0.3l0,0
		c-0.1-0.1-0.1-0.1,0-0.1c0,0.1,0,0.2,0,0.2c0,0.1,0,0,0,0.2c0,0.3,0,0.4-0.2,0.6c-0.1,0.1-0.1,0.2-0.3,0.2c-0.3,0.1,0,0-0.1,0
		c0,0.1,0,0.3-0.1,0.4c-0.2,0.2,0-0.1-0.1,0l-0.1,0.1l0,0c0,0-0.1-0.1-0.1,0H189z M190.6,18L190.6,18c-0.1-0.4-0.1-0.3-0.1-0.7h0.1
		l0,0h0.2c0.1-0.1,0,0.1,0-0.1c0-0.1-0.1-0.1,0-0.1l0.1,0.1c0.1,0.1,0,0,0.1,0.1c0,0.3,0,0.2,0.1,0.5c-0.2,0,0,0-0.2,0.1
		c-0.2,0.1,0,0-0.1,0l0,0l-0.1,0.1l0,0l0,0L190.6,18L190.6,18L190.6,18z M191.3,17.1C191.3,17.1,191.3,17.1,191.3,17.1L191.3,17.1
		L191.3,17.1L191.3,17.1z M191.3,17.1L191.3,17.1C191.3,17.1,191.3,17.1,191.3,17.1z M191.4,17c0.1,0,0.1,0,0.3,0l-0.1,0.1l0,0l0,0
		C191.4,17,191.5,17.1,191.4,17z M191.7,17v-0.2c0.1-0.4,0-0.2,0-0.4v-0.1l0,0l0,0c0.1-0.1,0.1-0.2,0.2-0.2c0.4,0,0.3-0.1,0.4-0.1
		c0,0,0,0.1-0.1,0.1l0,0l0,0v0.1c0,0.3,0.1,0.1,0,0.4c0,0.1,0,0.1,0,0.2C192,16.7,192,16.8,191.7,17C191.8,16.9,191.7,17,191.7,17z
		 M192.5,15.9c0.1-0.1,0.3,0,0.3-0.3c0-0.2,0.1-0.1-0.1-0.2l0.1-0.1c0.1,0,0.1,0,0.2,0.1c0.1-0.1,0.1-0.1,0.1-0.2c0-0.2,0,0,0-0.2
		l0.3-0.1c0.1,0.1,0.1,0.2,0.2,0V15c0,0.1-0.1,0.2-0.1,0.2c-0.1,0-0.1-0.1-0.2-0.1l-0.1,0.1c0.1,0,0.1,0,0.1,0.2s-0.2,0.2-0.3,0.3
		l-0.2,0.1C192.7,15.8,192.8,15.9,192.5,15.9L192.5,15.9z M193.6,14.8c0-0.1,0-0.2,0-0.3c0,0,0.2,0,0.5,0v0.2
		c-0.1,0.2-0.2,0.1-0.2,0L193.6,14.8z M195.3,14.2c0.2-0.1,0.3-0.1,0.3,0c0,0,0,0-0.1,0C195.5,14.2,195.4,14.2,195.3,14.2
		L195.3,14.2L195.3,14.2z M195.6,14.2C195.7,14.2,195.6,14.2,195.6,14.2C195.6,14.2,195.6,14.2,195.6,14.2L195.6,14.2L195.6,14.2
		L195.6,14.2L195.6,14.2z M174.7,87.4c0,0.1-0.1,0.1-0.1,0.3c0.3,0.2,0.8-0.1,0.9,0.2c-0.1,0.1-0.1,0.2-0.1,0.2l0,0
		c-0.2,0.2-0.6,0.3-0.7,0.4c-0.1,0.1-0.1,0.2,0,0.4c0.6,0.1,1-0.3,1.4-0.2c0,0.1,0.1,0.2,0.2,0.2c-0.1,0.1,0,0.2,0.1,0.3
		c0.1,0.2,0,0.1,0.2,0.3c0.3,0.4,0.3,0.3,0.4,0.4v0.3c0,0.2,0.3,0.3,0.4,0.5c0.1,0.1,0.1,0.2,0.1,0.3l0.6,0.7
		c0.1,0.2,0.2,0.3,0.4,0.4c0.3-0.1,0.8-0.7,0.9-1.1c0-0.1,0.1-0.3,0.1-0.4c0.1-0.1,0.2-0.1,0.2-0.3c0.1-0.2,0-0.3,0.2-0.8
		c0.2-0.4,0.1-0.5,0.2-0.8c0.1-0.3,0.2-0.5,0.2-0.7c0-0.4,0.4-1.3,0.6-1.4c0.5-0.1,0.3,0.8,0.2,1c-0.1,0.4-0.1,0.8-0.1,1.2
		c-0.1,0.6-0.2,1-0.4,1.6c-0.1,0.2-0.2,0.2-0.2,0.4c-0.1,0.3-0.3,0.7-0.4,0.9c-0.3,0.5-0.8,1-1.4,1.3c-0.3,0.2-0.4,0.3-0.7,0.3h-0.3
		c-0.1-0.3,0,0-0.1-0.4c0-0.1,0-0.2-0.1-0.3c-0.1-0.3,0-0.4-0.1-0.6c-0.1-0.2-0.3-0.6-0.5-1c-0.1-0.1-0.2-0.2-0.3-0.4
		c-0.2-0.4-0.4-0.4-0.7-0.8c-0.4-0.4-0.4-0.4-0.9-0.2c-0.1,0.1-0.3,0.1-0.5,0.2c-0.3,0.1-0.7,0.2-0.8,0.5c-0.1,0.4-0.1,0.8,0.2,1
		c0.3,0.2,0.7,0.2,0.8,0.5c0.2,0.5,0,0.9,0,1.2c0,0.4-0.3,0.7-0.4,0.9c-0.5,0.6-0.7,1.2-1.4,1.3c0-0.6,0.2-1.2,0.4-1.7
		c0-0.2,0.2-0.7,0.2-0.8c0-0.2-0.2-0.3-0.3-0.8c-0.1,0-0.1-0.2-0.4-0.1c-0.2,0.1-0.7,0.6-1.2,0.6c-0.7,0.1-0.9,0-1.5-0.3
		c-0.2-0.1-0.2-0.2-0.4-0.3c-0.5,0-0.8,0.6-0.8,1.1c0,0.5,0.1,1.5-0.1,1.8c-0.3,0.1-0.5-0.1-0.8-0.2c-0.2-0.1-0.4-0.3-0.5-0.5
		c-0.4-0.6-0.3-1.3-0.3-1.6c0-0.1,0-0.2,0-0.4c0,0.1,0,0.2,0,0.3c0.1-0.1,0.1-0.4,0.2-0.7c0.5-1.5,1-0.8,0.8-1.7
		c-0.1-0.1-0.1-0.2-0.3-0.3c-0.1-0.1-0.4-0.1-0.4-0.1c-0.5,0-0.7-0.1-1.2-0.3c-0.4-0.1-0.7-0.2-0.6-0.8c0.2-0.1,0.8-0.1,1,0
		c0.3,0.2,0.4,0.4,0.9,0.1c0-0.3-0.1-0.4-0.2-0.5c-0.4-0.5-0.3-1.5-0.1-1.7l0,0c0-0.1,0.2-0.6,0.2-0.7c0-0.1,0-0.3-0.1-0.3
		c-0.1-0.1-0.2-0.1-0.3-0.2c-0.1-0.1,0-0.4-0.4-0.4c-0.2,0-0.3,0.2-0.5,0.3c-0.6,0.3-0.4,0.3-0.7,0.5c-0.1,0.1-0.2,0.1-0.2,0.1
		c-0.3,0.2-0.5,0.5-0.9,0.8c-0.6,0.4-0.4,0.7-0.9,0.6c-0.1-0.2,0.3-0.5,0.5-0.9l0,0l-0.2,0.1c0-0.2,0-0.1-0.1,0
		c-0.1,0.1,0.2,0-0.1,0.1c-0.2,0-0.1,0-0.2-0.1c0,0.4,0,0-0.1,0.3l-0.1,0.2c-0.1,0.1,0,0.1-0.1,0.3v0.1c0,0.1,0,0.1-0.3,0.1
		c0,0,0-0.1-0.2,0.2l-0.1,0.1v-0.1l0,0l0,0c-0.1,0,0,0.3,0,0.4c0,0,0,0-0.1,0c-0.2,0,0,0,0,0s0,0,0,0.1c0,0.1,0.2,0-0.2,0.2
		c-0.2,0.1-0.1,0.1-0.3,0.1c0,0.2,0,0,0,0.1l0.1,0.1c0,0.1,0,0.3,0,0.6c0.2,0,0.1,0.1,0.2,0l0,0c0,0.6,0.1,0.3,0.3,0.5
		c0.1,0.1,0.1,0.1,0,0.3c-0.2,0-0.4-0.2-0.4,0c0.1-0.2,0-0.2,0-0.3c-0.2-0.2-0.2,0-0.3-0.5l0,0c-0.1,0.1,0,0-0.2,0
		c0-0.3,0-0.6,0-0.6l-0.1-0.1c0-0.1,0,0.1,0-0.1c0.2,0,0.2,0,0.3-0.1c0.3-0.2,0.2-0.1,0.2-0.2c0,0,0,0,0-0.1c0,0-0.2,0,0,0
		c0.1,0,0.1,0,0.1,0c0-0.2-0.1-0.4,0-0.4l0,0l0,0c0,0,0,0,0,0.1l0.1-0.1c0.2-0.3,0.2-0.2,0.2-0.2c0.3-0.1,0.3-0.1,0.3-0.1V87
		c0.1-0.2,0-0.1,0.1-0.3l0.1-0.2c0.2-0.3,0.1,0.1,0.1-0.3c0.1,0.1-0.1,0.1,0.2,0.1c0.3,0,0.1,0,0.1-0.1c0.1-0.1,0.1-0.2,0.1,0
		l0.2-0.1c0.1,0,0,0,0.1-0.1c0,0,0,0,0.1-0.1s0.1-0.1,0.1-0.2l1.6-1.1c0.5-0.5,0.4-0.2,0.6-0.5c0.1-0.2,0.3-0.5,0.6-0.5
		c0.2,0,0.7,0.6,0.9,0.8c0.2,0.2,0.4,0.7,0.7,0.9c0.2-0.1,0.1-0.2,0.2-0.4c0.3-0.7,0.3-0.6,0.4-0.8c0.1-0.2,0-0.3-0.1-0.4
		c-0.1-0.2-0.1-0.2-0.2-0.4l-0.6-1.1c-0.1-0.1-0.2-0.2-0.2-0.4c-0.1-0.3-0.2-0.6-0.4-0.8c-0.2-0.2-0.1-0.1-0.2-0.4
		c-0.1-0.5-0.5-0.6-0.6-1.8c-0.2-0.3-0.4-1.3-0.4-1.8c0-0.7,0.2-2.3,0.4-2.9c0.1-0.2,0.1-0.3,0.1-0.4l0.5-1.2
		c0.2-0.2,0.1-0.1,0.2-0.4c0-0.1,0.1-0.3,0.2-0.3l0.1-0.4c0.1-0.3,0.2-0.3,0.4-0.6c0.1-0.1,0.1-0.2,0.2-0.3c0.2-0.3,0.3-0.7,0.5-0.9
		c0.2-0.2,0.1-0.2,0.2-0.3c0-0.2,0.2-0.3,0.4-0.3c0.4,0.1,0.2,0.3,1.7,0.3c0.9,0,0.9-0.2,1.7-0.3c0.3,0,0.1-0.2,0.4-0.2
		c0.9,0.2,0.5,0.9,0.7,1.2l0,0c0.1,0.2,0.2,0.2,0.2,0.3c0.4,0.1,0.9,0.8,1.1,1.2c0.4,0.8,0.5,1,0.7,1.9c0,0.2,0.2,0.5,0.1,0.9
		c0,0.1,0.1-0.1,0.1,0.3s0.1,0.1,0.1,1c0,0.3,0.1,0.4,0.1,0.7l-0.2,1.3c-0.1,0.5-0.1,1.1-0.2,1.3c-0.1,0.3-0.1,0.8-0.3,1.2
		c-0.2,0.5-0.2,0.8-0.3,0.9c0,0.1-0.1,0.1-0.1,0.2c-0.1,0.3,0,0.3-0.2,0.5c-0.2,0.2-0.1,0.3-0.2,0.5c-0.1,0.2-0.2,0.3-0.3,0.4
		c-0.1,0.2-0.2,0.2-0.3,0.4c-0.1,0.1-0.2,0.3-0.4,0.4c-0.2,0.3-0.7,0.3-0.4,0.9c0.1,0.2,0.2,0.3,0.2,0.5c0.1,0.2,0.1,0.3,0.3,0.5
		c0.4,0.1,0.3-0.1,0.5-0.1c0.1-0.1,0,0,0.1-0.1l0,0c0.1-0.1,0,0,0.1-0.1c0.2,0,0.2-0.3,0.4-0.4c0.1-0.1,0.3-0.2,0.4-0.3
		c0.3-0.2,1-0.1,1.3,0c0.4,0.1,0.6,0.5,1.1,0.8c0.1,0.1,0.1,0.1,0.2,0.2c0.5,0.4,0.5,0.2,0.7,0.1c0.3-0.2,0.1-0.4,0.3-0.7
		c0.2-0.3,0.3-0.6,0.3-1c0.1-0.9,0.2-1.6,0.1-2.6c0-0.1-0.1-0.3-0.2-0.4c-0.3-0.8,0.3-0.7,0.4-0.6l0.5,0.7c0.1,0.3,0.1,0.2,0.3,0.3
		c0.7,0.7,0.1,1.3,0.1,1.9c-0.2,0.2,0,0.2-0.2,0.4c-0.1,0.1-0.1,0.2-0.2,0.3c-0.1,0.1,0,0.2-0.1,0.4c-0.4,0.7-0.3,0.7-0.5,1
		c-0.3,0.4-0.1,0.2-0.3,0.5c0,0.1,0,0,0,0.1v0.1c-0.1,0.2-0.2,0.5-0.3,0.7c-0.4,0-0.7,0.1-0.9-0.3l-0.4-0.5c-0.4-0.4-0.4-0.5-1-0.5
		c-0.3,0-0.5,0-0.7,0.2l-0.4,0.2l0,0c-0.1,0-0.3,0.2-0.4,0.3c-0.1,0.1-0.2,0.1-0.2,0.2c-0.1,0.1,0,0.1-0.1,0.2
		c-0.1,0.5,0.6,0.1,0.6,0.1c0.8-0.4,1.5-0.1,2.3,0.3c0.2,0.1,0.2,0.2,0.5,0.5c0.1,0.1,0.4,0.7,0.8,0.3c0.1-0.1,0.1-0.2,0.1-0.4
		c0-0.2,0.1-0.2,0.2-0.3c0.1-0.1,0.1-0.3,0.1-0.4h-0.1l0,0l0,0l0,0v0h0c0.1-0.1,0.1-0.2,0.4-0.2c0.1,0.5,0,0.8-0.2,1.2
		c-0.4,1-0.1,0.7-0.2,1.1c-0.4,0.2-0.6,0-0.8-0.2c-0.2-0.2-0.3-0.1-0.7-0.5c-0.1-0.1-0.2-0.2-0.3-0.3c-0.3-0.2-0.6-0.7-0.9-0.9
		l-0.4,0.2L176,87c-0.1,0-0.2,0.1-0.5,0.1C175.1,87.2,174.9,87.2,174.7,87.4L174.7,87.4L174.7,87.4z M175.6,87.8
		c0-0.1,0-0.1,0.1-0.1c0.1-0.1,0,0,0.1-0.1c0,0,0.2,0,0.3,0l0,0l0,0l-0.1-0.1c-0.1-0.1-0.2,0,0-0.2l0-0.1h0.1l0.4,0.3
		c0.1,0.1,0.4,0.3,0.5,0.5c0.5,0.6,0.8,0.5,0.8,1.2c-0.6-0.1-1.3-0.9-1.7-1.3c-0.2-0.2-0.2-0.1-0.2-0.1L175.6,87.8L175.6,87.8z
		 M178.9,34.1L178.9,34.1c0.1-0.1,0.2-0.1,0.4-0.2c0,0,0,0,0,0c0.1,0,0.1,0,0.2,0.1l0,0c0,0,0,0,0.1,0l0.1-0.1
		c0.2,0.5-0.1,0.6-0.2,0.9c-0.1,0.2,0,0.2-0.2,0.2c-0.4,0.2-0.9,0.2-1.5,0.2c0-0.3,0-0.4,0-0.5c0.1,0,0.2-0.2,0.3-0.3l0,0h0.1
		c0.1,0,0.1,0,0.1-0.1C178.4,34.3,178.5,34.2,178.9,34.1L178.9,34.1z M168,1.4h0.6c0,0.6-0.1,1.7,0,2.2s0,1.5,0.1,2.2
		c0.1,0.5,0,1.7,0,2.3c0,0.7,0,1.5,0.1,2.3c0.1,1.4,0,3.2,0,4.7c0,1.6,0,3.2,0,4.7c0,0.8,0,1.6,0,2.4c0,0.5-0.2,1.8-0.1,2.2
		c0.2,0,0.5,0,0.8,0c0.3,0,0.4,0.1,0.7,0.1c0.3,0.1,0.4,0.1,0.7,0.3c0.2,0.2,0.4,0.2,0.7,0.3c0.3,0.1,0.1,0.2,0.7,0.3
		c1,0.3,0.8,0,1,0.7c0.1,0.2,0.2,0.2,0.3,0.5c0.3,0.8-0.1,0.9-0.1,1.3c0.5,0.2,0.7,0,1-0.1l0-0.1v0c0.1,0,0.2,0,0.4,0.1
		c0.4,0.2-0.1,0.3,0.4,1.4c0.1,0.3,0.2,0.4,0.3,0.6c0.1,0.1,0.1,0.1,0.2,0.2c0.2,0.2,0,0.1,0.3,0.2c0.1,0.1,0.4,0.2,0.5,0.4
		c0.2,0.3-0.1,0.5,0,0.7c0,0.5,0.1,1.5,0.4,1.8c0.2,0.2,0.2,0.1,0.3,0.4c0.1,0.3,0.5,0.6,0.8,0.2c0.1-0.2,0.1-1.1,0.2-1.2
		c0.2-0.3,0.4-0.1,0.6,0c0.4,0.1,1.8,0.2,2,0.5h-0.3l0,0c0.2,0,0.3,0,0.4,0c0.2,0,0.3,0.4,0.3,0.6c0,0.4,0,0.5-0.1,0.8
		c-0.1,0.5-0.3,0.2-0.4,0.6c-0.1,0.2-0.2,0.5-0.3,0.6l0,0l-0.3,0.2c-0.2,0.5-1.1,0.3-2,0.3c-0.5,0-0.6-0.1-0.7,0.1
		c0,0-0.1,0.1-0.1,0.2c-0.1,0.1-0.1,0.1-0.1,0.2c-0.1,0.1-0.2,1.1-0.1,1.2c0,0,1.9-0.2,2.4,0c0.2,0.1,1.1,0.4,1.2,0.3
		c0.1,0.1,0.1,0.1,0.2,0.2c0.5,0.2,0.8,0.3,1.1,0.5l0.9,0.5c0.2,0.1,0.2,0.2,0.4,0.3c0.4,0.3,0.6,0.3,0.8,0.6
		c0.2,0.3,0.2,0.1,0.4,0.3c0.1,0.1,0.1,0.1,0.2,0.2s0.1,0.1,0.2,0.1c0.5,0.4,0.3,0.3,0.8,0.6c0.5,0.2,0,0.2,0.8,0.6
		c0.2,0.1,0.7,0.3,0.8,0.5c0.2,0.5,0.4,1,0.6,1.5c0.1,0.2,0.1,0.4,0.1,0.6c0.2,0.4,0,0.6,0.3,1.1c0.2,0.4,0,0.7,0.3,1.1
		c0.2,0.3,0.2,0.1,0.2,0.5c0,0.3,0.4,1.3,0.4,1.6c0.2,0.5,0.5,1,0.7,1.4c0.1,0.2,0,0.3,0.4,0.3c0-0.4-0.4-1-0.5-1.5
		c-0.1-0.3-0.1-0.3-0.1-0.6l-0.3-1.2c-0.1-0.6-0.2-0.8-0.3-1.3c-0.1-0.5-0.1-1-0.2-1.4c0-0.2-0.1-0.5-0.1-0.7c0-0.3,0-0.4-0.1-0.7
		c-0.1-0.5-0.3-0.8-0.2-1.3c0-0.3-0.2-1-0.3-1.3l-0.1-0.6c0-0.3,0-0.4-0.1-0.7c-0.1-0.2-0.2-0.3-0.2-0.5c-0.3-1-0.1-0.4-0.4-1.2
		c-0.1-0.2-0.2-0.3-0.3-0.6c-0.2-0.6-0.3-0.6-0.5-1c-0.1-0.3-0.1-0.2-0.3-0.4c-0.1-0.1-0.1-0.3-0.3-0.5c-0.3-0.3-0.5-0.5-0.8-0.8
		c-0.2-0.2-0.2-0.3-0.4-0.4l-0.6-0.6c-0.1-0.1-0.2-0.1-0.3-0.1c-0.2-0.2,0.1,0-0.4-0.4c-0.2-0.1-0.2-0.2-0.4-0.4l-0.9-0.7
		c-0.2-0.1-0.3-0.3-0.4-0.4l-0.8-0.7c-0.1-0.1-0.2-0.3-0.3-0.4l-1-1.2c-0.1-0.1-0.1-0.1-0.1-0.2c-0.1-0.1-0.1-0.1-0.2-0.2
		c0-0.1-0.1-0.4-0.2-0.6c-0.3-0.8,0-1.7,0.4-2.3c0.1-0.2,0.2-0.2,0.4-0.3c0.1-0.2,0.2-0.2,0.4-0.3c0.2-0.1,0.3-0.1,0.4-0.3
		c0.1-0.1,0.4-0.2,0.5-0.3c0.1,0,0.5-0.1,0.6-0.2l0.5-0.2c0.5-0.1,1-0.4,1.4-0.6c0.5-0.2,0.3-0.2,0.6-0.3c0.2-0.1,0.6-0.2,0.6-0.3
		c0.2-0.1,0.9-0.7,1-0.9c0.1-0.1,0.1-0.1,0.2-0.2c0.1-0.1,0.3-0.2,0.3-0.4c0.2-0.1,0.4-0.3,0.5-0.6c0.1-0.2,0.3-0.5,0.4-0.7
		c0.2-0.2,0.4-0.4,0.5-0.6c0.2-0.3,0.3-0.4,0.4-0.7c0.2-0.2,0.3-0.4,0.5-0.6c0.1-0.1,0.1-0.2,0.2-0.3c0.1-0.1,0.2-0.2,0.2-0.3
		c0.1-0.1,0.2-0.2,0.3-0.3c0.2-0.2,0.1-0.2,0.2-0.4c0.5-0.7,0.7-0.7,1.1-1.1c0.1-0.1,0.1-0.2,0.2-0.3l0.2-0.2c0.1-0.1,0,0,0-0.1
		c0.2-0.1,0.4-0.3,0.5-0.4c0.1-0.1,0.4-0.3,0.4-0.4c0.2-0.1,0.4-0.3,0.6-0.4c0.4-0.2,0.4-0.3,0.7-0.4c0.2-0.1,0.4-0.2,0.7-0.3
		c0.2-0.1,0.6-0.1,0.7-0.2c0.6-0.1,0.7-0.2,1.6-0.2c0.2,0,0.2,0,0.3,0c0.2,0,0.5,0,0.7,0c0,0.5-0.1,0.3-0.3,0.7
		c-0.1,0.3-0.4,0.7-0.5,0.9c-0.1,0.2-0.2,0.5-0.3,0.6l0,0l0,0.1c0,0-0.1,0-0.1,0c0,0-0.1,0.1-0.1,0.2c-0.1,0.4-0.2,0.3-0.3,0.6
		l-0.1,0.3c0.1,0.1,0,0.1,0,0.2l-0.1,0.3l0,0v0.3c0,0.1,0,0,0,0.1c-0.1,0-0.2,0-0.2,0l-0.1,0.2c-0.1,0.2-0.2,0.5-0.3,0.7
		c-0.1,0.1-0.2,0.4-0.2,0.6l0,0.1c0,0.1,0,0.2,0.1,0.2c-0.1-0.1-0.2,0-0.2,0.1l-0.1,0.2c-0.1,0.3,0,0.3-0.2,0.6l0,0
		c0,0.1,0,0.1,0,0.2c-0.1,0-0.1,0-0.1,0l-0.2,0.4c-0.2,0.1-0.5,1.1-0.7,1.4l-0.5,0.9c-0.1,0.1-0.1,0.2-0.2,0.3v0.1l0,0
		c0,0,0,0.1-0.1,0.1c-0.1,0.2-0.1,0.3-0.2,0.5c-0.1,0.3-0.2,0.3-0.3,0.4c-0.1,0.2-0.1,0.3-0.2,0.5c0,0.1-0.1,0.1-0.1,0.2l0,0l0,0
		c-0.1,0.2-0.1,0.3-0.2,0.5c0,0,0,0.1,0,0.1c0,0,0,0,0-0.1c0,0.1,0,0.1-0.1,0.2c-0.1,0.2-0.1,0.2-0.2,0.5c-0.1,0.3-0.2,0.2-0.3,0.4
		c0,0.1,0,0.2-0.1,0.3c0,0,0,0,0,0V27l0,0l-0.2,0.4c0,0.2,0.1,0.6,0,0.8v0.2c0,0.2,0,0.2,0.1,0.3c0.1-0.1,0.1,0,0.1-0.1s0,0,0-0.1
		v-0.1c0,0.2,0,0.2,0,0.3v0.4c0,0.1,0,0.1,0.1,0.2c0,0.1-0.1,0-0.1,0.1c-0.1,0.1-0.1,0.2-0.1,0.5v0.5l0,0c0.1,0.2,0.1,0.2,0.3,0.2
		v0.2c0.1,0.2,0.1,0-0.1,0c-0.2,0.1,0,0-0.1,0.1c0,0.1,0,0.3,0,0.4s-0.1,0.2,0,0.4c0,0,0,0.1,0,0.1l0,0.1c0,0,0,0,0.1,0c0,0,0,0,0,0
		c0.2,0.4,0.6,1.3,0.7,1.6c0.1,0.1,0.1,0.2,0.2,0.4c0,0.1,0.1,0.1,0.1,0.2c0,0,0-0.1,0-0.1h0.1c0,0,0,0,0.1,0.1
		c0.1,0,0.2,0.1,0.3,0.2l0,0v0.1c0,0.1,0,0.2,0,0.3c0.2,0,0,0,0.2,0c-0.1,0.1,0,0.2,0,0.2c0,0.1,0.1,0.1,0.1,0.1
		c-0.1,0.1-0.1,0-0.1,0.1l0,0c0,0.1,0.1,0.2,0.2,0.2c0.3,0.6,0.2,0.3,0.5,0.7c0.2,0.2,0.3,0.5,0.5,0.7s0.4,0.5,0.5,0.6
		c0.1,0.2,0.3,0.5,0.5,0.7c0.3,0.3,0.6,0.7,0.8,0.9c0.1,0.1,0.2,0.2,0.3,0.3c0.1,0.1,0.2,0.2,0.3,0.3c0.1,0.2,0.1,0.2,0.3,0.3
		c0.2,0.2,0.5,0.3,0.6,0.6c0.1,0.2,0.2,0.2,0.3,0.4c0.1,0.1,0.2,0.3,0.4,0.3c0.1,0.3,0.4,0.4,0.5,0.6c0.2,0.2,0.3,0.3,0.5,0.6
		c0.1,0.2,0.1,0.1,0.3,0.3c0.1,0.1,0.2,0.2,0.3,0.3c0.1,0.1,0.2,0.1,0.2,0.2l0.1,0c0-0.4-0.2-0.3-0.3-0.6l0,0l0,0
		c-0.1,0.1,0.1,0-0.1,0c0.1,0,0.1,0,0.1-0.1c0.1,0.2,0.1,0,0.1,0.2l0.3-0.1c-0.1,0.1-0.1,0.2-0.1,0.3c0.2,0,0.1,0,0.2,0.1l0,0
		c0.4,0.3,0.3,0.1,0.6,0.3l0.1,0.1l0,0l0,0c0.1,0,0,0.1,0,0.3c0.2,0,0.2,0,0.2,0.2l-0.1,0v-0.2l-0.2-0.1l0,0h-0.4
		c-0.1,0-0.1,0-0.2,0c0.1,0.1,0.1,0.1,0.2,0.2l0,0c0,0,0,0,0.1,0c0,0-0.1,0-0.1,0c0,0.1,0.1,0.1,0.2,0.2c0.1,0.1,0.2,0.2,0.3,0.2
		c0.1,0.2,0,0.1,0.2,0.2c0.1,0.1,0,0.1,0.1,0.2l0.1,0.1l0,0l0,0c0.1,0.1,0.1,0,0.2,0.1c0,0.1,0.1,0.1,0.1,0.1l0,0
		c0.2,0,0.2,0,0.2,0.1l0,0l0,0l0.1,0.1c0,0.1,0.1,0.2,0.2,0.3c0.1,0,0.1,0,0.3,0c-0.2,0-0.2-0.1-0.2,0.1c0,0.2,0.3,0.4,0.4,0.4h0.1
		c-0.2,0.1-0.1,0-0.1,0.2c0.3,0.1,0.1,0,0.2,0.1c0.1,0.1,0,0,0.1,0.2c0.1,0.1,0,0.2,0.1,0.3c0.1,0.1,0,0,0.1,0.2c0,0,0,0.1,0,0.2
		c0.1,0.1,0.2,0.2,0.3,0.3l0,0l0,0l0,0l0.2,0.2c0,0,0,0,0,0.1l0.3,0.3l0.1,0c0.1,0,0.1,0,0.2,0c0,0,0.2,0,0.2,0.1H204
		c0.1,0.1,0.2,0.3,0.3,0.3c0.1,0.2,0.2,0.2,0.3,0.4c0.1,0.2,0.2,0.2,0.3,0.4c0.3,0.5,0.2,0.1,0.6,0.9c0.2,0.4,0.4,0.6,0.6,0.8
		c0.1,0.1,0.1,0.1,0.1,0.2c0.1,0.1,0.1,0.1,0.2,0.2c0.1,0.1,0.2,0.3,0.3,0.4c0.1,0.2,0.2,0.3,0.3,0.4c0.1,0.2,0.2,0.2,0.3,0.4
		c0.1,0.2,0.1,0.3,0.2,0.5l0.8,1.1c0.1,0.1,0.1,0.2,0.1,0.2l0.6,0.8c0.2,0.3,0.4,0.6,0.6,0.9c0.2,0.3,0.5,0.6,0.6,0.8
		c0.2,0.3,0.4,0.6,0.6,0.9c0.1,0.1,0.3,0.3,0.3,0.4c0.1,0.2,0.1,0.3,0.2,0.5c0.3,0.3,0.3,0.4,0.4,0.7l0.1,0.1c0.1,0.1,0,0,0.1,0.1
		c0,0.1,0.3,0.7,0.4,0.9c0.1,0.1,0.8,1.6,0.8,1.8c0.1,0.9,0.6,1.5,0.6,3.4c0,0.5,0,0.9-0.1,1.3c0,0.4-0.2,0.7-0.2,1.1
		c-0.1,0.1-0.1,0.5-0.2,0.6c-0.3,0.8,0,0.5-0.3,0.9c-0.1,0.2,0,0.3-0.3,0.6c-0.3,0.3,0,0.4-0.8,0.5c-0.3,0-0.4,0-0.7,0.1
		c-0.6,0.1-1.6,0-2.3,0.2c-0.2,0.1-2.1,0.1-2.4,0.1c-1.1,0-2.2,0-3.3,0c-0.3,0-0.7,0-1,0c-0.2,0-0.2-0.1-0.3-0.1l-1.4-0.1
		c-0.2,0-0.2,0-0.4,0c-0.2,0-0.2,0-0.3-0.1c-0.2-0.1-0.6-0.1-0.8-0.1c-0.3,0-0.5-0.1-0.8-0.2c-0.1,0-0.3,0-0.4,0
		c-0.2,0-0.2-0.1-0.4-0.1c-0.2-0.1-0.6,0-0.8-0.2l-1.2-0.2c-0.1,0-0.2-0.1-0.3-0.2c-0.4-0.1-0.4,0-0.8-0.2c-0.2-0.2-0.5-0.1-0.7-0.2
		c-0.2-0.1-0.5-0.2-0.7-0.3c-0.2-0.1-0.2-0.1-0.4-0.1c-0.1,0-0.2-0.1-0.3-0.2c-0.2-0.1-0.5-0.2-0.7-0.3c-0.2-0.1-0.4-0.2-0.6-0.3
		c-0.2-0.1-0.4-0.2-0.6-0.4c-0.2-0.1-0.5-0.2-0.6-0.3l-1.2-0.7c-0.1-0.1-0.4-0.3-0.6-0.4c-0.3-0.2-1.2-0.8-1.4-1
		c-0.1-0.1-0.1-0.1-0.3-0.2c0-0.1-0.1-0.1-0.2-0.2l-1.2-1.1c0,0.1,0.1,0.2,0.1,0.3c0.2,0.5,0.2,1.8,0,2.3c-0.4,1-0.5,0.2-0.7,0.9
		c-0.1,0.4,0.4,0.8,0.7,1.3c0.1,0.3,0.5,0.8,0.8,1.3c0.2,0.3,0.1,0.5,0.2,0.8c0.1,0.2,0.2,0.6,0.1,0.9c-0.4,0.1-0.4-0.4-0.9-0.3
		c0,0.2,0.1,0.3,0.2,0.5c0.1,0.3,0,0.4,0.3,0.5c0.1,0.1,0.2,0.2,0.3,0.3c0.1,0.1,0.3,0.1,0.4,0.2c0.1,0,0.7,0.4,0.8,0.4
		c1.3,0.4,1.1,1.1,1.2,1.2v0.1c0.1,0.1,0.1,0.2,0.1,0.4l0.1,1c0,0.5,0,1,0,1.5c-0.1,1.5,0.2,1,0.4,1.4c0.3,0.5,0.1-0.1,0.5,0.6
		l1.2,1.8l1.2,2.5c0.1,0.2,0,0.4,0.1,0.6c0,0.2,0.2,0.3,0.2,0.5c0.1,0.2,0.1,0.3,0.2,0.5c0.3,0.8,0.2,0.9,0.3,1.2
		c0.2,0.4,0.2,0.9,0.2,1.3c0,0.3,0.2,0.3,0.2,0.6c0,0.8,0,1.3,0,2.2c-0.1,0.4-0.2,0.8-0.3,1.2c-0.1,0.2-0.1,0.6-0.1,0.7
		c-0.1,0.2-0.2,0.2-0.2,0.5c-0.2,0.2-0.2,0.5-0.4,0.7c-0.1,0.1-0.1,0.1-0.2,0.3c-0.2,0.3-0.5,0.6-0.7,0.9c-0.1,0.1-0.2,0.1-0.3,0.2
		c-0.2,0.2-0.1,0.2-0.4,0.2c0-0.4,0.4-1,0.6-1.3c0.1-0.3,0.4-1,0.5-1.3c0.2-0.8,0.2-1.4,0.2-1.6s0.1-0.5,0.2-0.7
		c0.1-0.2,0.2-0.5-0.1-0.6c-0.1,0.3,0,0.3-0.2,0.5c-0.2,0.2-0.1,0.1-0.2,0.4c-0.1,0.1-0.1,0.3-0.2,0.4l-0.6,1.9
		c0,0.2-0.1,0.4-0.1,0.5c-0.2,0.4-1,1.2-1.1,1.3c-0.2,0-0.3,0-0.5,0.1c-0.1,0.1-0.2,0.2-0.4,0.2c-0.4,0-0.7-0.2-0.8-0.4l0,0
		c0-0.3,0-1,1.4-1.6c0.1-0.1,0.3-1.6-0.2-1.1c-0.4,0.3-0.3,0.3-0.5,0.9c-0.2,0.4-0.5,1.2-0.2,1.5l0.8,0.6c0,0.1,0.1,0.2,0.2,0.2
		c0.4,0.2,1.4,0.2,1.6,0.2c0.1,0.3-0.3,0.7-0.4,0.9c-0.4,0.6-0.1,0.2-0.6,0.8c-0.2,0.3-0.6,0.4-0.9,0.5c-0.5,0.2-0.8,0-1.1,0.3
		c-0.2,0.1-0.4,0.3-0.5,0.4c-0.2,0.1-0.4,0.2-0.4,0.4c-0.2,0.1-0.4,0.2-0.5,0.3c-0.2,0.2-0.2,0.2-0.4,0.4c-0.1,0.2-0.2,0.1-0.4,0.3
		c-0.1,0.1-0.2,0.2-0.4,0.3c-0.2,0.2-0.2,0.3-0.4,0.4c-0.2,0.1-0.3,0.2-0.5,0.3l-1.4,1c-0.2,0.2-0.3,0.1-0.5,0.3
		c-0.1,0.2-0.8,0.5-1,0.6c-0.3,0.2-1.1,0.6-1.6,0.7c-0.3,0.1-0.4,0.3-0.6,0.1c-0.1-0.1-0.1-0.4-0.2-0.6c-0.2-0.8,0-0.8-0.3-1.3
		c-0.1-0.3,0-0.4-0.1-0.7l-0.5-1.1c-0.1-0.3-0.5-0.7-0.9-0.7c0,0.3,0.1,0.2,0.1,0.5c0.1,0.2,0,0.3,0.1,0.5l0.5,1.8
		c0.1,0.2,0.1,0.2,0.2,0.4c0,0.2,0,0.3,0.1,0.5c0.3,0.7,0.7,1.3,1,1.9c0.1,0.2,0.5,1.1,0.6,1.2c0.1,0.4,0.2,0.4,0.4,1
		c0.1,0.3,0.1,0.3,0.2,0.5c0.1,0.2,0.1,0.3,0.2,0.5c0,0.1,0.1,0.1,0.1,0.2c0,0.1,0,0.2,0,0.3c0,0.1,0.3,0.6,0.4,1
		c0,0.3,0,0.4,0.1,0.6c0.3,0.7,0,0.4,0.3,1c0.1,0.3,0.5,3.1,0.4,3.4c0,0.2,0,0-0.1,0.2c-0.2,0-0.2,0-0.3,0c-0.2-0.1-0.1,0-0.1-0.1
		c-0.2,0-0.1-0.1-0.3-0.1c-0.2,0-0.3,0-0.4,0c-0.7-0.2-0.8,0.1-1.2,0.2c-0.2,0-0.5-0.1-0.5,0.2c-0.7,0.3-1.7,1.4-2,2.1
		c-0.1,0.2-0.6,1.2-0.6,1.4c-0.1,0.7-0.3,0.9-0.3,1.8c0,0.4,0.4,1.2,0.6,1.4c0.5,0.5,1,0.5,1.6,0.5c0.8,0,0.5,0,0.8-0.2
		c0.1-0.1,0.2-0.1,0.3-0.2l0.5-0.5c0.2-0.3,0-0.2,0.5-0.5l0.1-0.1c0.1-0.1,0-0.1,0.1-0.2l0,0h0.1c0.2-0.1,0.2-0.1,0.2,0
		c0,0.1-0.2,0.7-0.4,0.9c0,0.1-0.3,0.3-0.3,0.5c-0.2,0.1-0.4,0.5-0.6,0.7c-0.2,0.1-0.7,0.5-0.7,0.6c-0.1,0.1-0.1,0.1-0.3,0.2
		c-0.2,0.1-0.2,0.1-0.3,0.2c-0.4,0.3-1.6,0.8-2,0.8c-0.5,0-0.5,0-0.8,0.1c-0.6,0.1-2.1,0.2-2.6,0c-0.4-0.1-0.4-0.1-0.8-0.1
		c-0.3,0-1.5-0.6-1.9-0.8c-0.3-0.2-0.6-0.6-0.7-0.7c-0.1-0.1-0.2-0.1-0.3-0.2c-0.2-0.2,0.1,0-0.3-0.4c-0.2-0.1-0.4-0.5-0.4-0.8
		c0.2-0.1,0.2-0.2,0.5-0.1c0.2,0,0.4,0.1,0.5,0.2c0.4,0.6,1,1.2,1.7,0.8c0.4-0.2,0.6-0.3,0.8-0.6c0.9-1,1-1.8,0.6-3
		c-0.1-0.2-0.1-0.3-0.2-0.5c-0.1-0.1-0.1-0.1-0.2-0.2c0,0-0.1-0.1-0.1-0.2c-0.2-0.2-0.2-0.2-0.3-0.4c-0.1-0.4-0.7-0.8-0.9-1.1
		c-0.3-0.3-0.2-0.4-0.7-0.6c-0.3-0.2-0.6-0.4-0.9-0.5c-0.6-0.2-0.4-0.2-1-0.3c-0.2-0.1-0.4-0.1-0.6,0c-0.6,0.4-0.4,0.7-0.4,1.6
		c0,0.3-0.2,0.9-0.6,0.7c-0.2-0.2,0.2-3.3,0.2-4c0.1-0.5,0.2-1,0.3-1.5l0.4-1.4c0.1-0.3,0.1-0.5,0.2-0.7c0.3-0.9,0.1-0.4,0.5-1.3
		l0.5-0.8c0.4-0.6,0.1-0.6,0.4-0.9c0.2-0.2,0.1-0.1,0.2-0.3c0.1-0.2,0.1-0.1,0.2-0.3c0.2-0.1,0.4-0.6,0.6-0.8
		c0.2-0.2,0.6-0.6,0.7-0.8c0.2-0.3,0.7-0.6,1.1-1.1c0.2-0.2,0.3-0.2,0.3-0.4c0,0,0-0.1-0.1-0.1c-0.3,0-0.4,0.2-0.8,0.4
		c-0.1,0-0.2,0-0.3,0.1c-0.1,0-0.7,0.6-1,0.8c-0.2,0.2-0.4,0.6-0.6,0.8c-0.3,0.4-0.1,0.5-0.4,0.6c-0.1,0.1-0.2,0-0.3-0.1
		c-0.1-0.1-0.2-0.4-0.2-0.7s0-0.6,0-0.9c0-0.3,0.1-0.6,0.1-0.9c0-0.4,0.1-1.4,0-1.7h-0.3c-0.2,0.5-0.1,0.9-0.2,1.4
		c0,0.1-0.1,0.2-0.1,0.4l-0.1,1.6c0,0.1,0.1,0.1,0.1,0.2c0,0.1,0,0,0,0.1c0,0.4-0.6,0-0.8-0.1c-0.2-0.1-0.4-0.2-0.7-0.3l-1.5-0.6
		c-0.2-0.1-0.6-0.1-0.8-0.2c-0.3-0.1-0.5-0.2-0.8-0.3l-0.8-0.3c-0.3-0.1-0.5-0.2-0.8-0.3c-0.3-0.1-0.5-0.2-0.7-0.3
		c-0.1-0.1-0.2,0-0.4-0.1c-0.1-0.1-0.1-0.1-0.3-0.2c-0.2-0.1-0.1-0.1-0.3-0.2c-0.2-0.1-0.3-0.1-0.4-0.2l-1.2-0.9
		c-0.1-0.1-0.1-0.2-0.2-0.3c0,0-1.2-1.1-1.1-1.5c0.1-0.2,0.6-0.2,0.8-0.4c0.3-0.2,0.1-0.2,0.1-0.2c-0.1,0-0.4,0-0.5,0
		c-0.3,0-0.5,0.6-1.2,0c-0.3-0.2-0.3-0.4-0.4-0.7c-0.1-0.2-0.3-0.5-0.4-0.7c-0.2-0.6-0.2-1-0.5-1.7c-0.2-0.3-0.1-1.4-0.6-1.5
		c-0.1,0.3-0.1,1.2-0.1,1.6c0,0.4,0.1,0.3,0.2,0.6c0.2,0.3,0.1,0.3,0.3,0.6c0.2,0.2,0.1,0.3,0.3,0.6c0.2,0.4,0.6,1.4,1,1.6v0.1
		c0,0.2,0.1,0.2,0,0.4c-0.3,0-0.5-0.2-0.7-0.3c-0.2-0.1-0.2-0.1-0.3-0.2c-1.1-0.7-0.7-0.7-1.2-1.3c-0.3-0.3-0.1-0.2-0.4-0.6
		c-0.2-0.2-0.2-0.4-0.3-0.7c-0.2-0.4-0.4-1.1-0.5-1.5c-0.1-0.5-0.2-0.6-0.4-1.6c0-0.3,0-0.6-0.1-0.9c-0.2-1-0.2-1.8-0.2-2.8
		c0-1.1-0.1-0.8,0.1-1.9c0.1,0,0.3-1.1,0.3-1.2c0-0.3,0.1-0.3,0.2-0.5c0.1-0.1,0.1-0.2,0.1-0.3c0.1-0.2,0.1-0.1,0.2-0.3
		c0.1,0,0.1-0.2,0.2-0.3c0-0.1,0.1-0.1,0.2-0.3c0-0.2,0-0.3,0.1-0.4c0.1-0.2,0.1-0.1,0.2-0.4l0.2-0.2c0.1-0.1,0.9-1.9,1-2.2
		c0.1-0.3,0.1-0.2,0.1-0.5c0-0.2,0.2-0.4,0.2-0.8c0.1-0.7,0.1-1.9,0-2.6l-0.1-0.5l0,0c0.1-0.3-0.2,0.1,0.1-0.6
		c0.1-0.3,0.5-0.6,0.6-0.7c0.4-0.5,0.1-0.2,0.8-0.6c0.3-0.2,0.2-0.3,0.3-0.6c0.1-0.3,0.2-0.5,0.2-0.8c0.1-0.4,0.1-0.4,0.2-0.7
		c0.1-0.3-0.1-0.4,0.2-0.7c0.2-0.1,0.2-0.3,0.3-0.6c0.3-0.7,0.3-0.9,0.5-1.3c0.1-0.2,0.2-0.4,0.3-0.6c0-0.2,0-0.2,0.1-0.3
		c0.2-0.2,0.3-0.6,0.4-0.9c0.1-0.1,0.2-0.2,0.2-0.3c0-0.2,0-0.3,0.1-0.4c0.1-0.2,0.2-0.4,0.3-0.6c0,0,0,0.1,0,0
		c0.2-0.2,0.1-0.3,0.2-0.5c0.1-0.2,0.2-0.2,0.2-0.5c0.1-0.5,0.2-0.5,0.3-1c0.1-0.5,0.5-1.7,0.4-2.1h-0.1c0,0,0,0-0.2,0
		c-0.1,0-0.2,0-0.3,0.1c-0.2,0.2-0.6,1-0.7,1.3c-0.2,0.6-0.2,2-0.5,2.3c-0.1,0.1-0.3,0.2-0.4,0.3c-0.2,0.1-0.3,0.1-0.5,0.2
		c-0.2,0.1-0.2,0.2-0.4,0.3c-0.2,0.1-0.3,0.1-0.5,0.2c-0.7,0.7-0.3,0.3-0.8,0.6c-0.2,0.1-0.2,0.2-0.4,0.3l-2.2,1.3
		c-0.1,0.1-0.3,0.2-0.4,0.3c-0.2,0.1-0.3,0.1-0.5,0.2c-0.2,0.1-0.2,0.1-0.5,0.2c-0.3,0.1-0.7,0.4-0.9,0.5c-0.3,0.1-0.3,0-0.5,0.2
		c-0.2,0.2-0.2,0.1-0.5,0.2l-1,0.4c-0.2,0.1-0.3,0.1-0.5,0.2c-0.2,0.1-0.3,0.1-0.5,0.2c-0.1,0.1-0.2,0.1-0.3,0.1l-0.1,0.1
		c-0.2,0.1-0.1,0-0.1,0.1c-0.3-0.1-0.7,0-0.9,0.1l0,0c-0.1,0-0.2,0.1-0.3,0.1c-0.1,0-0.3,0-0.4,0c-0.5,0-1.1,0.2-2.2,0.2
		c-1.4,0.1-1.7,0.1-3.1-0.1c-1-0.2-0.5-0.3-1-0.7c-0.3-0.3-0.4-0.5-0.7-0.9c-0.2-0.4-0.2-0.1-0.6-1c-0.2-0.5-0.2-0.8-0.1-1.4
		c0-0.1,0.4-0.9,0.5-1l0.6-0.9c0.3-0.4,0.4-0.5,0.1-1c-0.2-0.2-0.2-0.3-0.3-0.5c-0.3-0.5,0-1.8,0-2c-0.1-0.5,0-0.3,0.1-0.6
		c0-0.2,0-0.3,0.1-0.6l0.4-1.1c0.1-0.4,0.2-0.8,0.3-1.2V60c0.1,0,0.2-0.1,0.2-0.3c0.1-0.3,0.1-0.2,0.2-0.4c0.1-0.2,0.2-0.6,0.3-0.8
		c0.1-0.2,0.2-0.6,0.3-0.8c0.1-0.3,0.2-0.4,0.3-0.7l0.3-0.7c0.2-0.3,0.2-0.5,0.3-0.8c0.1-0.3,0.4-0.7,0.5-1.1l0.1-0.4l0,0
		c0.1,0,0,0,0.1-0.1c0.1-0.2,0.2-0.7,0.2-0.8c0.1-0.2,0.1-0.2,0.2-0.3c0.2-0.3-0.1,0.1,0.3-0.5c0.1-0.2,0.1-0.4,0.3-0.6
		c0.1-0.2,0.1-0.4,0.2-0.6c0.1-0.2,0.1-0.1,0.3-0.5c0.2-0.2,0.4-0.4,0.7-1l0.7-1c0.2-0.2,0.2-0.3,0.3-0.5c0.1-0.1,0.1-0.1,0.2-0.2
		l0.9-1.2c0.3-0.3,0.4-0.5,0.5-0.7c0.1-0.2,0.1-0.2,0.2-0.3c0.2-0.4,0.2-0.3,0.3-0.5c0.3-0.5,0.2-0.3,0.4-0.5l0.4-0.8
		c0.1-0.1,0.1-0.1,0.2-0.2c0.1-0.1,0.2-0.3,0.3-0.5l1.3-2c0.1-0.2,0.2-0.3,0.3-0.5c0.3-0.5,0.3-0.3,0.4-0.5c0-0.1,0-0.2,0.1-0.3
		c0.1-0.2,0.1-0.1,0.2-0.3c0.1-0.3,0.2-0.3,0.3-0.5c0.1-0.1,0.1-0.1,0.2-0.2l0.5-0.8c0.1-0.2,0.3-0.3,0.3-0.5h0.1
		c0.4-0.4,0.5-0.7,0.7-1c0.2-0.2,0.3-0.3,0.4-0.5c0.2-0.3,0.3-0.3,0.4-0.5c0.1-0.2,0.1-0.3,0.3-0.5c0.2-0.2,0.3-0.3,0.4-0.5
		c0.1-0.2,0.2-0.4,0.3-0.6c0.1-0.2,0-0.2,0.2-0.4l0.1-0.1c0.2-0.1,0.1-0.3,0.3-0.5c0.1-0.1,0.2-0.2,0.3-0.4c0.1-0.2,0.2-0.3,0.3-0.5
		c0.3-0.5,0.6-0.9,0.8-1.5c0.1-0.3,0.4-1,0.5-1.1c0-0.1,0-0.3,0.1-0.4c0.1-0.1,0.1-0.2,0.2-0.3c0-0.1,0-0.2,0-0.4
		c0-0.1,0.1-0.3,0.1-0.4c0.2-1,0.1-4.2,0.1-5.6v-0.2c0-0.5-0.1-0.9-0.1-1.3c0-0.4,0-1-0.1-1.2c0-0.9,0-1.8,0-2.6v-1.9
		c0-0.2,0.1-0.3,0.1-0.5c0-0.4-0.6-0.6-0.8-1.1c-0.1-0.2,0-0.3-0.1-0.5c-0.2-0.4-0.3-0.4-0.2-1.1c0-0.2,0.2-0.8,0.3-0.9
		c0.3,0,0.9,0,1.1,0c0.3,0.1,0.6,0.2,0.9,0.2c0.1,0,1.5,0.4,1.6,0.5c0.8,0.5,0.5,0.2,1.3,0.8c0.3,0.2,0.5,0.2,0.7,0.4
		c0.3,0.1,0.2,0.4,0.6,0.5l0.2,0.5c0.1,0.1,0.1,0,0.2,0.2c0,0.1,0.1,0.2,0.1,0.3c0.1,0.2,0.1,0.3,0.2,0.5c0.1,0.3,0.2,0.3,0.3,0.5
		c0.2,0.6,0.2,1.6,0.1,2.2c-0.1,0.3-0.1,0.5-0.1,0.8c-0.2,3.1,0.2,2.6,0.3,3.3c0,0.4,0.1,0.2,0.2,0.5c0.1,0.2,0.2,0.2,0.3,0.4
		c0.3,0.4,0.9,1.5,1,2c0,0.1,0,0.2,0,0.3c0.1,0.4,0.2,0.2,0,0.9c-0.4,1.3-0.1,0.3-0.6,1.2c-0.1,0.2-0.1,0.2-0.2,0.3
		c-0.1,0-0.2,0.1-0.3,0.2l-1,0.9c-0.2,0.2-0.1,0.1-0.3,0.3l-0.6,0.6c-0.2,0.1-0.2,0.2-0.3,0.4c-0.2,0.1-0.5,0.9-0.6,1
		c-0.1,0.2,0,0.3-0.2,0.6c-0.1,0.2,0,0.3-0.1,0.6c-0.1,0.2-0.2,0.4-0.2,0.6c0,0.3,0,0.4-0.1,0.7l-0.4,1.1c-0.1,0.5-0.4,1-0.4,1.1
		c-0.1,0.4-0.1,0.8-0.3,1.2l-0.4,1.1c-0.1,0.1-0.1,0.2-0.1,0.3c-0.1,0.2-0.1,0.2-0.2,0.3c-0.1,0.1-0.2,0.5-0.2,0.7
		c-0.1,0.1-0.4,1.2-0.5,1.4c0,0.2-0.1,0.2-0.2,0.4c-0.1,0.2-0.1,0.4-0.1,0.6c-0.1,0.2-0.2,0.3-0.2,0.5c0,0.3,0,0.4-0.1,0.6
		c0,0.1-0.1,0.2-0.1,0.3c0,0-0.1-0.1,0,0.1l0.2-0.1c0-0.2,0.4-0.9,0.6-1.1c0.2-0.2,0.2-0.3,0.4-0.5l0.4-0.5c0.1-0.1,0.2-0.1,0.3-0.2
		c0.1-0.1,0.1-0.1,0.2-0.2c0.2-0.1,0.2-0.1,0.3-0.2c0.4-0.4,0.8-0.6,1.4-0.8c0.4-0.1,0.5-0.3,1.4-0.2c0.1,0,1,0.4,0.7-0.5
		c-0.1-0.3,0-1.1,0-1.5c0-0.6,0.1-0.7,0.2-1.3c0-0.5,0.1-0.8,0.2-1.3c0.3-1.3,0.4-0.6,0.5-1.1c0.1-0.3,0-0.3,0.2-0.5l0.1-0.1
		c0,0-0.1-0.1-0.1-0.2c0-0.1,0,0,0-0.2c0.2-0.1,0.1,0,0.2-0.1c0-0.1,0-0.5,0-0.7c0-0.4-0.2-0.2,0-0.4l0.1-0.2V31
		c0-0.1,0-0.2,0.1-0.3c0.1-0.4,0-0.4,0-0.7l-0.4,0c-0.1,0.1,0,0.3-0.1,0.4c0,0-0.1,0-0.2,0c-0.2,0,0,0-0.2,0.1c0-0.1,0-0.1,0-0.1
		c0.4-0.2,0.2-0.3,0.4-0.6c0.2,0,0.4,0,0.5,0c0.3,0.5-0.2,1.8,0,2.5c0.1-0.2,0.3-0.4,0.4-0.5c0-0.1,0-0.2,0.1-0.2
		c0.2-0.1,0.1-0.1,0.1-0.1c0.2-0.9,0-1.2,0-1.6c0-0.3,0-0.6,0-0.9c0-0.3,0-1.6,0-1.8c0.2-0.6,0.7-1,0.5-1.3
		c-0.3-0.3-0.1-0.1-0.3-0.5c-0.1-0.2-0.1-0.4-0.2-0.5c-0.1-1.1,0-2.3,0-3.4c0-0.5,0-1.2,0-1.7c0.2-1.2,0.1-1.3,0-2.4
		c0-0.3,0-0.6,0-0.9c0-0.5-0.3-0.8-0.4-1.2c-0.1-0.3,0-0.5,0.1-0.7c0.1-0.3,0.3-1.9,0.3-2.2v-2.2c0-0.3,0.1-0.4,0.1-0.7
		c0-0.5,0-1,0-1.5c0-0.1,0-0.2,0-0.3c0-0.2,0-0.1-0.1-0.3C168,7.9,168,2,168,1.4L168,1.4L168,1.4z M179.9,32.9L179.9,32.9l-0.2,0
		l0,0H179.9z M178.7,32.7L178.7,32.7l-0.2,0c-0.2,0.1-0.1,0.2-0.1,0.4c0,0.1,0,0.1,0,0.3c0,0.3-0.1,0.4-0.3,0.6l0,0
		c-0.5,0.3-0.4,0-0.5,0.3c0,0,0,0,0.1,0c0.1-0.3,0,0,0.5-0.3l0,0c0.2-0.2,0.3-0.3,0.3-0.6c0-0.2,0-0.2,0-0.3c0-0.2-0.1-0.3,0.1-0.4
		H178.7L178.7,32.7z M177.5,34.3c-0.1,0,0,0-0.2,0.1c0,0.2,0,0,0.1,0.1l0,0l0,0l0,0c0.1,0,0,0.1,0,0.2l0.1,0.1l0,0c0,0,0.1,0,0.1,0
		l-0.1-0.1c0-0.1,0.1-0.2,0-0.2l0,0l0,0l0,0c-0.1-0.1-0.1,0.1-0.1-0.1C177.5,34.3,177.5,34.3,177.5,34.3L177.5,34.3z M179.7,33.8
		L179.7,33.8L179.7,33.8c0,0.2,0,0.2,0.1,0.3h-0.2l0,0l0,0l-0.1,0.8l0,0c-0.1,0.2-0.3,0.4-0.3,0.6h0.1c0-0.2,0.2-0.4,0.3-0.6l0,0
		l0.1-0.8l0,0l0,0h0.2c-0.1-0.1-0.1-0.1-0.1-0.2l0,0l-0.1-0.2C179.7,33.8,179.7,33.8,179.7,33.8L179.7,33.8z M179.6,35.4
		C179.7,35.4,179.6,35.4,179.6,35.4L179.6,35.4c0.1,0.2,0.2,0.1,0.2,0.2c-0.1,0,0,0-0.1,0l0,0v0.1l0,0h0.1v-0.1l0,0c0.1,0,0,0,0.1,0
		c0-0.1-0.1,0-0.1-0.1l0,0C179.7,35.4,179.8,35.4,179.6,35.4L179.6,35.4L179.6,35.4z M179.8,35.7C179.8,35.7,179.7,35.8,179.8,35.7
		L179.8,35.7L179.8,35.7L179.8,35.7z M179.9,35.7L179.9,35.7l0.1,0L179.9,35.7C180,35.7,180,35.7,179.9,35.7L179.9,35.7z
		 M180.3,47.4c0.2,0,0.5,0,1,0l0-0.1c-0.1-0.1-0.1-0.1-0.2-0.1c-0.2-0.1-0.2-0.3-0.2-0.5l-0.1,0c0,0.1,0,0,0,0.2l-0.1,0
		c0-0.3-0.1-0.2-0.1-0.3l-0.2,0.1c0.1,0.1,0.1,0.1,0.1,0.3c-0.1-0.1,0,0-0.1-0.1c0-0.1-0.1-0.1-0.1-0.1c-0.1,0-0.1-0.1-0.2,0.1
		c0.2,0,0.2,0.1,0.2,0.2v0.1C180.2,47.4,180.2,47.4,180.3,47.4z M184,41.7c-0.1-0.1-0.1-0.1-0.2-0.1C183.8,41.6,183.9,41.7,184,41.7
		z M183.8,41.6L183.8,41.6C183.8,41.6,183.8,41.7,183.8,41.6z M182,40.5l-0.1-0.1h0C181.9,40.4,181.9,40.4,182,40.5z M179.7,39.4
		l-0.2-0.2c-0.1-0.1-0.1-0.2-0.3-0.2c-0.1,0-0.1,0.1-0.2,0.1c-0.2,0-0.5-0.1-0.7,0l-0.1,0.1c0,0-0.3,0-0.6-0.1h-0.2
		c-0.2,0-0.4-0.1-0.5-0.1h0l0.5,0.3c0,0.2,0.1,0,0.2,0c0.2,0,0.4,0,0.5,0c0.1,0,0.3,0.1,0.5,0.1h0.2c0.3,0.1,0.6,0.1,0.6,0.1
		l0.1-0.1C179.6,39.4,179.6,39.4,179.7,39.4L179.7,39.4z M176,38.9l-0.3-0.2c0,0,0,0,0-0.1c-0.1,0-0.2,0-0.3,0.1
		c-0.1,0.1,0,0.1,0,0.1l0.1,0.1c0.1,0.3-0.1-0.1,0,0.1c0-0.1,0,0,0-0.2l0.1,0c0.1,0.1,0.1,0.1,0.1,0.2c0,0.1,0,0.1,0.1,0.1v-0.2
		C176,38.9,175.9,38.9,176,38.9C176,39,176,38.9,176,38.9L176,38.9z M175.6,38.6c0-0.1-0.1-0.2-0.2-0.2v0.1c-0.1-0.1-0.1,0-0.1-0.1
		l0,0h0c-0.1-0.1-0.1-0.1-0.1-0.2l-0.1,0c0,0.2,0.1,0.2,0,0.2c-0.1-0.2,0.1,0.1,0-0.1l-0.1-0.1c0-0.1-0.1,0,0-0.1
		c0.1-0.1,0.3,0,0.4-0.1c-0.2,0-0.4,0.1-0.5,0l-0.1-0.1c-0.1,0.2-0.2,0.1-0.4,0.1c0,0.1,0,0,0,0.1l0,0l0,0l0,0
		c-0.4-0.1-0.1,0.1-0.7-0.1h-0.2c0,0,0,0.1,0.1,0.1c0.1,0.1,0,0,0.1,0.3c0,0.1-0.1,0.2,0.1,0.2c0.1,0,0.2,0,0.3,0
		c0.6,0.1,0.3-0.1,0.7,0.1l0,0l0,0l0,0c0,0,0,0,0-0.1c0.2,0,0.3,0,0.4-0.1l0.1,0.1C175.4,38.6,175.5,38.6,175.6,38.6z M175.4,38.4
		C175.5,38.4,175.3,38.4,175.4,38.4C175.5,38.3,175.4,38.3,175.4,38.4L175.4,38.4z M175.3,37.5c-0.1,0,0-0.1,0,0.1c0,0-0.1,0-0.3,0
		c-0.1-0.1-0.1-0.1-0.2-0.1c0,0-0.1,0-0.1,0c0.1-0.2,0.1-0.1,0.2-0.5l0.1-0.4c0-0.1,0,0.1,0-0.1c0-0.4,0.1-0.3,0.1-0.7h0.1
		c0-0.1,0-0.2,0-0.2l0.1-0.1l0,0l0,0c0,0,0.2-0.1,0.1,0.2l-0.1,0.2c0,0.1,0,0.1,0,0.4l0,0c0,1-0.1,0.5-0.2,0.9l-0.1,0.2
		c0-0.1,0.1-0.1,0.2-0.1v0.1L175.3,37.5l0,0.1C175.3,37.6,175.3,37.6,175.3,37.5L175.3,37.5z M173.3,37.6h-0.2l-0.1-0.1l-0.1,0v0.2
		l0,0l0,0c0,0.2,0,0,0,0.1l0,0c-0.2,0,0,0-0.1,0l0,0l0,0c0,0,0.1,0,0,0l-0.2-0.1c-0.2-0.1-0.4,0-0.5,0c-0.2,0.1-0.2,0-0.3,0h-0.2
		c0,0,0,0.1,0,0.1c0.3,0.4,0.4,0.2,0.6,0.3h-0.1c-0.1,0.1-0.2,0.1-0.2,0.2c0,0,0.2,0,0.3,0c0.2,0,0.2,0.1,0.3,0c0.1,0,0.4,0,0.5,0
		l0.2,0.1c0,0-0.1,0,0,0l0,0l0,0c0.1,0-0.1,0,0.1,0l0,0c0-0.1-0.1,0,0-0.1l0,0l0,0c0.1-0.1,0-0.1,0-0.2l0,0c0,0,0-0.1,0-0.2
		C173.3,37.7,173.3,37.7,173.3,37.6L173.3,37.6z M174.5,37.5c0,0,0-0.1,0-0.1c0.1-0.1,0.1-0.1,0.2-0.3c0.1-0.2,0.1-0.5,0.1-0.8
		c0.1-0.6,0.1-1.8,0-2.5c0-0.2,0-0.5,0-0.8c-0.1-1-0.2-0.6-0.7-1c-0.8-0.6-0.2-0.3-1.1-0.8c-0.5-0.3-0.3-0.1-0.6-0.3
		c-0.3-0.1,0.1-0.1-0.6-0.3c-0.5-0.1-0.9-0.3-1.4-0.4c-0.1,0-0.2,0-0.4-0.1c-0.2-0.1-0.4-0.2-0.7-0.2l0.1,0.3c0,0.3,0.1,0.5,0.3,0.6
		c0.1,0.1,0.1,0.2,0.1,0.4l0.4,1c0.1,0.1,0,0,0.1,0.1c0,0.2,0.1,0.1,0.1,0.3c0,0.1-0.1,0.2,0,0.3c0,0.1,0.1,0,0.1,0.2
		c0,0.1,0,0.2,0,0.3c-0.1,0.1-0.1,0.4,0,0.5c0,0.1,0,0.1,0.1,0.2c0.1,0,0.1,0,0.1,0.1c0.1,0.1,0.2,0,0.2,0.2
		c-0.2,0.1-0.2-0.1-0.2,0.2l0,0c0,0,0,0.1,0,0.1c0,0.2,0.1,0.3,0.1,0.5l0,0h-0.1c-0.1,0.1,0,0-0.1,0.1c0.1,0.2,0.1,0,0.1,0.3
		c0,0.3,0,0.1,0,0.3c0.2-0.1-0.1-0.1,0.2-0.1c0,0.1,0.1,0.8,0.1,0.9c0.2,0.2,0.9-0.1,2.1,0.3h0.1c0.6,0.2,0-0.1,0.6,0.2l0.1,0.1
		c0.1,0,0.1,0,0.2,0C174.2,37.3,174.3,37.4,174.5,37.5L174.5,37.5z M169.5,29.6C169.6,29.6,169.6,29.6,169.5,29.6L169.5,29.6
		l0.2,0.1c0.2,0,0.1,0,0.1,0l0.1-0.1l0,0l0,0C169.8,29.5,169.7,29.4,169.5,29.6C169.6,29.5,169.6,29.5,169.5,29.6L169.5,29.6z
		 M170.1,29.5c0,0,0.1,0.1,0.2,0.1l0.3,0.1c0.4-0.1,0-0.1,0.2-0.1c0.2,0-0.1,0.2,0.2,0l0,0c0.1,0,0,0,0.1-0.1l-0.1,0
		c-0.2-0.1-0.2-0.1-0.3-0.2c-0.1,0,0,0-0.1,0.1l0,0l-0.1,0.1c0,0,0.1,0-0.1,0h-0.1l0,0C170.2,29.4,170.2,29.4,170.1,29.5L170.1,29.5
		L170.1,29.5L170.1,29.5C170.1,29.4,170,29.4,170.1,29.5L170.1,29.5z M171.8,29.4c0.1,0,0.1,0,0.2,0.1l0.3,0c0,0.3,0.2,0.3,0.2,0.5
		h1.1c0,0.2,0,0.1,0.2,0.2l0,0l0,0l0,0v0.4l0.3,0c0,0.3,0,0.1,0.1,0.2c0.1,0.2,0.1,0,0.1,0.1c0,0.2-0.1,0.2-0.1,0.4h0.1
		c0,0.1,0.1,0.1,0.3,0.1c0-0.1,0-0.1,0-0.2c0.2,0,0.1,0,0.2-0.1l0.1,0.1c0-0.2,0.1-0.2,0.1-0.4v0l0,0l0,0c0,0,0,0-0.1-0.1
		c-0.1-0.1-0.1,0.1-0.1-0.2h-0.3v-0.4l0,0l0,0l0,0c-0.1-0.1-0.2,0-0.2-0.1l0,0c-0.1-0.1-0.2-0.1-0.2-0.1h-0.9c0-0.2-0.2-0.2-0.2-0.5
		l-0.3,0c-0.1-0.1-0.1-0.1-0.3-0.1c-0.2,0.1-0.1,0.1-0.3,0.1l0,0C171.9,29.3,171.9,29.3,171.8,29.4L171.8,29.4z M175.2,31.3
		L175.2,31.3L175.2,31.3L175.2,31.3z M173.7,28.9L173.7,28.9c0-0.2,0-0.2-0.1-0.3c0.1,0,0.1-0.2,0.2-0.3c0,0,0,0,0-0.1s0-0.3,0-0.3
		l-0.1,0.2c0,0,0,0.1,0,0.2c-0.1,0-0.1,0-0.1-0.2l0,0v0.1c0,0,0,0,0,0.1c-0.1,0.1,0.1,0-0.1,0.1v0.4l-0.1,0
		C173.5,28.8,173.6,28.9,173.7,28.9L173.7,28.9z M170.5,25.5L170.5,25.5L170.5,25.5l-0.1-0.2c-0.1,0-0.2,0-0.3,0
		C170.2,25.4,170.4,25.5,170.5,25.5z M168.4,24.8c-0.4,0-0.1-0.2-0.4-0.3h-0.1l-0.2-0.2c0,0.2,0,0.3,0,0.5c0,0.2-0.1,0.2,0,0.4l0,0
		c0,0.1,0,0,0,0.1v0.2l0,0v0.2c0,0.2,0,0.2,0.1,0.3c0.2,0.1,0,0,0,0v0.3c0,0.1,0,0,0.1,0c-0.1,0.2,0,0.2-0.1,0.3
		c-0.1,0.3-0.4,0.4-0.4,0.6v0.1c-0.1,0.2-0.1,0.2-0.1,0.4c0.2,0.1,0.1,0.4,0.1,0.5v1.5c0,0.7,0.1,0.6,0.1,0.9c0,0.2,0,0.4,0,0.6h0.1
		c0,0,0-0.1,0-0.1l0.4,0c0,0.3,0.1,0.3,0,0.6l0.2,0.3c-0.1-0.1,0-0.2,0-0.2c0-0.2,0,0,0-0.1l0,0l0,0v-0.1c0.1,0,0.1,0,0.2,0
		c0-0.3-0.1-0.2-0.1-0.5c0,0,0.1,0,0,0s0,0-0.1,0c0-0.2,0-0.4,0-0.6c0-0.3-0.1-0.2-0.1-0.9v-1.5c0-0.1,0.1-0.4-0.1-0.5
		c0-0.2,0-0.2,0.1-0.4v-0.1c0-0.2,0.3-0.3,0.4-0.6c0.1-0.1,0-0.1,0.1-0.3c-0.1,0-0.1,0.1-0.1,0v-0.3c0,0,0.2,0.1,0,0
		c-0.1-0.1-0.1-0.1-0.1-0.3v-0.2l0,0v-0.2c0-0.1,0,0,0-0.1l0,0C168.3,25,168.4,24.9,168.4,24.8L168.4,24.8z M157.7,97.2
		c0-0.3,0.2-0.7,0.3-1c0.2-0.3,0.5-0.4,1-0.4c0.1,0.5-0.1,0.7-0.3,1C158.5,97.1,158.2,97.2,157.7,97.2L157.7,97.2z M176.9,67.8
		c0.1,0.2,0.4,0.5,0.5,0.6c0.3,0.3,0.5,0.2,0.4,0.6c-0.3,0-0.2-0.1-0.5-0.1c-0.1,0.3-0.1,1.5-0.1,2c0,0.2,0,0.3-0.1,0.5
		c0,0.2,0,0.3,0,0.5c0,0.2-0.1,0.2-0.1,0.4v1.5c0,0.6,0,0.4,0.2,0.8c0.1,0.3,0,0.5,0.2,0.8c0.2,0.3,0.3,0.4,0.2,0.8
		c-0.3,0-0.5-0.5-0.7-0.8c-0.2-0.2-0.1-0.3-0.2-0.5c-0.4-0.8-0.1-0.4-0.4-1.1c-0.1-0.2-0.1-0.3-0.1-0.6c0-0.2-0.1-0.4-0.1-0.6
		c-0.1-0.3,0-0.4-0.2-0.6c0.1-0.3,0-1.7,0-2.1c0-0.2-0.1-0.4-0.1-0.6c0-0.4,0-1.7-0.1-2c-0.1-0.2-0.2-0.3-0.1-0.6
		c0.2-0.1,0.3,0.1,0.4,0.2c0.1,0.1,0.2,0.2,0.3,0.3C176.8,67.5,176.8,67.7,176.9,67.8L176.9,67.8L176.9,67.8z M167.9,90.1l-0.4-0.2
		c-0.4-0.1-0.8-0.1-1.3-0.3l0,0c0,0,0,0-0.1,0l0,0c-0.4-0.2-0.4,0-0.4,0l0,0l-0.4-0.2c-0.1-0.1,0-0.1-0.1,0c-0.1,0,0.1,0.1-0.1,0
		c0,0.1,0-0.1-0.2-0.1c-0.1,0.3,0.1,0.3-0.3,0.5c0,0,0,0,0-0.1c0.4-0.2,0.2-0.2,0.3-0.5c0.2,0,0.3,0.2,0.2,0.1c0.2,0.1,0,0,0.1,0
		c0.1,0,0,0,0.1,0l0.4,0.2l0,0c0,0,0-0.2,0.4,0l0,0c0,0,0,0,0.1,0l0,0c0.5,0.2,0.8,0.2,1.3,0.3L167.9,90.1L167.9,90.1L167.9,90.1z
		 M164.6,89.8L164.6,89.8L164.6,89.8L164.6,89.8L164.6,89.8z M164.7,90.1L164.7,90.1c0.1,0.1,0,0,0,0.2c0,0,0,0,0-0.1l0,0
		L164.7,90.1L164.7,90.1c-0.1,0-0.1,0-0.2,0.1h-0.1l0,0l0,0l0,0v0.1c0,0,0,0,0,0.1l0,0l0,0l0,0l-0.1,0.1c-0.1,0.1-0.1,0.2-0.2,0.3
		l0,0v0.1l0,0c-0.1,0-0.1,0.1-0.1,0.1c0,0,0,0.1-0.1,0.1c-0.1,0,0,0.1,0,0.2c-0.1,0,0-0.1-0.1,0l0,0l0,0l0,0c-0.2,0.2,0-0.1-0.1,0.1
		c-0.1,0.2,0,0,0,0.2v0.2c0.1-0.2,0.2-0.4,0.3-0.5c0.3-0.3,0.4-0.7,0.7-1.1L164.7,90.1L164.7,90.1z M164.7,90.3
		c0.1-0.1,0.1-0.3,0.1-0.4c0.4,0.1,0.2,0.3,0.2,0.5c-0.1,0.4,0.1,0-0.2,0.6c-0.4,0.9-0.2,0.4-0.6,0.9c-0.1,0.2-0.2,0.4-0.3,0.5
		c-0.1,0.2-0.1,0.3-0.2,0.5c-0.3,0.5-0.2,0.6-0.3,1.3c-0.5,0.1-0.4,0.1-0.8-0.1l-0.6-0.4c0-0.1-0.1-0.3-0.2-0.3l-0.5-0.8
		c-0.1-0.1-0.1-0.2-0.1-0.4c0-0.2,0-0.3,0-0.4h0.2c0,0.1,0,0.2,0,0.3c0,0.2,0,0.3,0.1,0.4l-0.1-0.6c0.2,0,0.2,0,0.3,0.1
		c0,0,0.1,0,0.1,0.1l0,0l0.1,0.2l0,0l0,0l0.2,0.2c0.1,0.1,0,0,0,0c0,0,0.1,0.1,0.2,0.1l0,0c0.1,0.1,0.1,0.2,0.3,0.2
		c0.3,0.1,0.5-0.2,0.7-0.5c0.1-0.2,0.2-0.3,0.3-0.4h-0.1l-0.1,0.1l-0.2,0.2l0,0l0,0c-0.1,0.1,0-0.2,0,0.1v0.1
		c-0.1,0.1-0.1,0.2-0.2,0.3c0.2,0,0.3-0.2,0.4-0.4v-0.1c0-0.3-0.1,0,0-0.1l0,0l0,0l0.4-0.1c0,0,0-0.1,0.1-0.1c0.1-0.1,0.1,0,0.2,0
		c0-0.2,0-0.2,0-0.3c0-0.3-0.1,0,0-0.2c0.1-0.2,0,0,0.1-0.1l0,0l0,0l0,0c0.1-0.1-0.1,0.1,0.1,0c0-0.1-0.1-0.1,0-0.2
		c0.1-0.2,0-0.1,0.1-0.2l0.1-0.1c0.1-0.1,0.1-0.2,0.2-0.3l0.1-0.1l0,0l0,0l0,0C164.7,90.4,164.7,90.3,164.7,90.3L164.7,90.3z
		 M164.1,90.2L164.1,90.2L164.1,90.2L164.1,90.2L164.1,90.2L164.1,90.2c-0.1,0.2-0.2,0.2-0.3,0.3c-0.1,0.1-0.2,0.3-0.3,0.5l-0.1,0.1
		l0,0l-0.1,0.2c-0.1,0.2-0.2,0.3-0.3,0.4l-0.1,0.1c-0.2,0-0.3-0.1-0.4-0.2c0,0.2,0.1,0.2,0.3,0.3l0,0c-0.2,0.2-0.1,0.1-0.4,0
		c-0.2,0-0.3,0-0.3-0.3c0,0-0.2-0.6-0.3-0.7c-0.1-0.2-0.1-0.6-0.1-0.9c0.1,0,0.6,0.4,1,0.1c0.2-0.2,0.2-0.1,0.4-0.2
		c0.5-0.3,0.8-0.9,1.3-1.4l0.1-0.2c0.1-0.5-0.1-0.3,0.2-0.5c0.1-0.1,0,0,0.1-0.1c0.1-0.2,0.2-0.2,0.3-0.3c0,0,0,0,0,0.1
		c0-0.1,0.1-0.2,0.2-0.3c0.1-0.1,0.1,0,0.2-0.1c0,0.1,0,0.1,0,0.2c0,0.2,0,0-0.3,0.4c-0.1,0.1,0,0-0.1,0.1c-0.2,0.2-0.1,0-0.2,0.5
		c0.1-0.1,0.2-0.2,0.3-0.4l0.7-0.6c0.1-0.1,0.2-0.2,0.3-0.3c0.1-0.1,0.1-0.1,0.2-0.2c0.2,0,0.3,0,0.3,0.2c0,0.1-0.1,0.2-0.2,0.3
		l-0.5,0.5c-0.2,0.3-0.8,0.8-0.9,1c-0.1,0.2,0,0.2-0.2,0.3c-0.1,0.1-0.2,0.2-0.2,0.3c-0.2,0.2-0.4,0.2-0.5,0.5
		C164.2,90,164.1,90.1,164.1,90.2z M165.1,87.2L165.1,87.2c-0.1-0.1-0.1-0.1-0.2,0c-0.1,0.1-0.2,0.2-0.2,0.3c-0.1-0.2,0-0.1-0.2-0.1
		c-0.1,0.1-0.4,0.6-0.6,0.7h-0.1c0.1,0.3-0.2,0.5-0.4,0.7c-0.1,0.1-0.3,0.3-0.4,0.4c-0.2,0.3-0.2,0.2-0.2,0.4
		c-0.2,0-0.2,0.1-0.2,0.1l0,0c-0.1-0.1-0.1-0.2-0.3-0.4c-0.2-0.2-0.2-0.2-0.2-0.4c0-0.2-0.1-0.4-0.1-0.5c0.1-0.1,0.2-0.2,0.4-0.1
		c0.2,0.1,0.1,0.2,0.2,0.4c0.5,0,0.3-0.3,0.8-0.6c0.4-0.3,1-1.2,1.7-1.4c0.3-0.1,0.5-0.3,0.7-0.2c0,0.2-0.1,0-0.2,0.2
		C165.3,87.1,165.3,87,165.1,87.2L165.1,87.2z M162.6,89.8c0,0-0.1,0.1-0.2,0.1h0C162.4,89.7,162.5,89.7,162.6,89.8z M175,31.2
		c0,0.1,0.1,0.1,0.2,0.1L175,31.2z M171.4,37.5c0-0.1,0-0.2,0-0.2c0.1,0,0.1,0,0.3,0.1h-0.1L171.4,37.5z M171.2,37.2v0.2l-0.1-0.1
		C171.2,37.3,171.2,37.3,171.2,37.2z M171,36.8c-0.1,0-0.1,0-0.2,0v-0.2c0-0.1,0,0,0-0.1c0.1-0.2,0.1,0,0.1,0
		C171,36.6,171,36.7,171,36.8z M170.8,36.8C170.8,36.8,170.7,36.8,170.8,36.8L170.8,36.8z M170.7,36.7L170.7,36.7
		c-0.1-0.2-0.2-0.1-0.2-0.3c0-0.1,0-0.2,0-0.2c0.1,0,0.2,0,0.2,0c0,0.1,0,0.1,0,0.1c0,0.1,0,0,0.1,0.1c0,0,0,0.1,0,0.2
		S170.8,36.7,170.7,36.7z M170.1,33.9L170.1,33.9l-0.1-0.1c0,0,0,0-0.1,0l0,0c-0.1,0-0.1-0.2-0.1-0.2v-0.2c0,0,0-0.1,0-0.1l0,0
		c0.2,0,0.1,0,0.3,0.2c0.1,0.1,0.1,0,0.2,0.2C170.1,33.9,170.1,33.6,170.1,33.9z M169.4,31.7C169.4,31.7,169.3,31.7,169.4,31.7
		c-0.1,0.2-0.1,0.3-0.1,0.4l0,0l0,0v0.2l0,0l0,0c0,0.1,0,0.3,0,0.5v0.4v0.1l-0.1,0.3c0,0.1,0,0.2,0.1,0.3v0.5c-0.1,0,0,0-0.1,0.1
		l-0.1,0.1l0,0c-0.1,0.1-0.5,0-0.7,0h-0.2l0,0c-0.2,0.1,0,0-0.3,0c-0.3,0-0.2-0.1-0.4-0.3c0-0.1-0.1-0.1-0.1-0.1l-0.1-0.1
		c0,0,0-0.1,0-0.1c0,0,0.1,0,0.2,0c0.3,0,0.1,0.2,0.3,0l0,0h0.2c0.2,0,0.6,0.1,0.7,0l0,0l0.1-0.1c0.1-0.1,0,0,0.1-0.1v-0.5
		c-0.1,0-0.1-0.1-0.1-0.3l0.1-0.3v-0.1v-0.4c0-0.2,0-0.3,0-0.5l0,0l0,0v-0.2l0,0l0,0c-0.1-0.1,0-0.3,0-0.4c0.2,0,0.3,0.1,0.3,0.2
		c0.1-0.1,0,0,0.1-0.1l0.1-0.1l0,0l0,0l0,0c0,0.1,0.1,0.1,0.1,0.2c-0.1,0.2-0.1,0-0.1,0.3C169.4,31.6,169.4,31.7,169.4,31.7z
		 M167.6,32.5c0-0.2-0.1-0.1,0-0.2l0.1-0.1l0,0L167.6,32.5L167.6,32.5L167.6,32.5z M167.7,31.8c0,0,0-0.1,0.1-0.1v0
		C167.8,32,167.8,31.9,167.7,31.8z M166,35.3c0.8,0,0.8,0.1,1.3,0.5c0.5,0.4,0.5,0.9,0.6,1.1c0.1,0.2,0.3,1,0.4,1.3
		c0.1,0.7,0.1,0.9-0.2,1.4h-0.5c0,0.1-0.1,0.1-0.2,0.1c-0.2,0.3-0.9,0.1-1.1,0.1c0-0.1,0,0,0-0.1c-0.1-0.2-0.1-0.2-0.2-0.5
		s-0.2-0.4-0.3-0.6c-0.1-0.1-0.1-0.5-0.2-0.7c-0.1-0.3-0.3-0.3-0.3-0.5s0-0.2-0.1-0.4c0-0.1-0.1-0.2-0.2-0.3c-0.1-0.3-0.3-0.7,0.1-1
		c0.1-0.1,0.1-0.1,0.2-0.2C165.5,35.4,165.8,35.4,166,35.3L166,35.3z M172.9,50.7c-0.1-0.6-0.1-1.3-0.3-1.7
		c-0.2-0.3,0.1-0.3-0.2-1.1c-0.1-0.2-0.1-0.3-0.1-0.5c-0.1-0.2,0-0.4-0.1-0.5c-0.1-0.2-0.1-0.2-0.2-0.5c-0.1-0.3-0.2-0.7-0.3-1
		c-0.1-0.4-0.1-0.7-0.3-1c-0.2-0.4,0-0.4-0.3-1c-0.2-0.5-0.1-0.5-0.1-0.8c0-0.2,0-0.1,0-0.3c0.3,0,0.5,0.4,0.6,0.7l0.9,2.4
		c0,0.2,0,0.4,0.1,0.6c0.1,0.2,0.1,0.2,0.1,0.5c0.1,0.9,0.2,0.7,0.2,1.1c0,0.2,0,0.8,0.2,1.2c0.1,0.3,0.2,0.1,0.2,0.5
		c0,0.5,0.1,0.8,0.2,1.2l0.1,1.2c0,0.4,0.2,0.7,0.2,1.1c0.1,1.1,0.1,0.6,0.2,1.1c0,0.2,0.1,0.4,0.1,0.6c0.1,0.2,0.2,0.3,0.2,0.5
		c0.1,0.4,0.1,0.7,0.3,1l0.9,1.8c0.1,0.2,0.1,0.2,0.3,0.4c0.6,0.6-0.1,0.8-0.5,0.4c-0.2-0.2-0.4-0.4-0.6-0.7
		c-0.2-0.3-0.3-0.5-0.4-0.9c0-0.2-0.1-0.3-0.2-0.4s0-0.4-0.1-0.5c-0.3,0-0.3,0.5-0.4,0.8c-0.2,0.7,0,0.6,0,1c0,0.2,0,0.2,0,0.3
		l0.1,1.8c0,0.2,0,1.1,0.2,1.4c0,0.2,0.1,0.4,0.1,0.6c0,0.3,0,0.4,0.1,0.6c0.2,0.3,0.1,0.2,0.2,0.5c0,0.3,0.1,0.3,0.1,0.7
		c-0.3,0-0.5-0.2-0.6-0.4c-0.3-0.5-0.2-0.2-0.4-0.6c-0.1-0.2-0.1-0.2-0.2-0.3c0-0.1-0.1-0.3-0.1-0.4c-0.3-0.7-0.3-1.6-0.4-2.4
		c-0.1-1.5,0.1-2.5,0.1-3.7l0.1-1.8C173,53.3,173.1,51.7,172.9,50.7L172.9,50.7L172.9,50.7z M165,72.1c0-0.4,0.1-0.5,0.2-0.9
		c0.1-0.2,0.1-0.6,0.4-0.7c0.1,0.1,0.1,0.2,0.2,0.3c0.3,0.7,0.1,0,0.4,1c0.1,0.3-0.2,2-0.3,2.4c-0.1,0.4-0.2,1.3-0.3,1.5
		c-0.2,0.3-0.3,0.5-0.4,0.5c-0.1-0.2,0-0.1,0-0.2c0-0.1-0.1-1.4-0.1-1.6C164.9,73.5,165,73.2,165,72.1L165,72.1z M155.5,59.8
		c0,0.1,0,0.1-0.1,0.1c0,0-0.6,0.3-0.5-0.2c0-0.1,0.1-0.1,0.1-0.2c0-0.4,0.3-0.5,0.5-0.7c0.1-0.1,0.2-0.2,0.3-0.3
		c0.1-0.1,0.1-0.3,0.2-0.4c0.2-0.5,0.6-0.8,0.7-1.2c0.1-0.2,0.1-0.3,0.2-0.4c0.1-0.2,0.1-0.3,0.1-0.5c0.1-0.2,0.1-0.1,0.2-0.4
		c0-0.2,0.1-0.2,0.1-0.5c0.1-0.4,0.3-1.8,0.1-2.2c-0.1-0.2-0.1-0.3,0-0.5c0.4-0.1,0.5,0.1,0.8,0.3c0,0.7-0.1,1.6-0.3,2.2
		c-0.1,0.2-0.1,0.9-0.2,1c-0.2,0.3,0,0.3-0.3,0.9l-0.4,0.8c-0.2,0.4,0,0.2-0.5,0.8c-0.1,0.2-0.2,0.2-0.3,0.3
		c-0.1,0.1-0.2,0.2-0.3,0.3C155.9,59.4,155.7,59.5,155.5,59.8L155.5,59.8z M152.7,59.2c-0.2,0-0.3-0.4-0.5-0.8
		c-0.2-0.5-0.2-1.6-0.2-2.2c0-0.3,0.1-0.3,0.1-0.5c0.1-0.8,0.2-0.5,0.3-0.9c0.1-0.2,0.1-0.2,0.2-0.4l0.5-0.8
		c0.2-0.3,0.4-0.4,0.6-0.7c0.2-0.2,0.4-0.4,0.6-0.6l0.7-0.5c0.3-0.3,0.4-0.3,0.8-0.5c0.3-0.1,0-0.2,0.8-0.5c0.5-0.2,0.3-0.3,0.9-0.3
		c0.5,0,1.2,0.2,1.7,0c0.2-0.1,0.4,0,0.6-0.1c0.2,0,0.3-0.1,0.5-0.1c0.3-0.1,1.4-0.2,1.6-0.2c0,0.2-0.3,0.4-0.5,0.5
		c-0.7,0.1-0.4,0.1-0.8,0.2l-2.4,0.6c-0.2,0.1-0.1,0.1-0.3,0.2c-0.1,0-0.3,0.1-0.4,0.1c-0.2,0.1-1.3,0.4-1.4,0.6
		c-0.3,0.3-0.8,0.3-1.3,0.8c-0.2,0.2-0.5,0.2-1.1,0.9c-0.6,0.7-0.4,0.4-0.8,1.3c-0.4,1-0.2,0.9-0.3,1.2c-0.1,0.3-0.1,0.9,0,1.3
		c0,0.2,0,0.3,0,0.5C152.6,58.5,152.8,58.5,152.7,59.2L152.7,59.2z M168.6,58.3c0,0.1-0.4,0.6-0.6,0.8c-0.4,0.4-0.3,0.6-0.6,0.7
		c0-0.4,0-0.4,0.1-0.7c0.1-0.2,0.2-0.4,0.3-0.6c0.1-0.3,0.2-0.3,0.3-0.5c0-0.1,0-0.3,0.3-0.5c0.1-0.2,0.1-0.3,0.2-0.5
		s0.1-0.3,0.2-0.4c0.1-0.3,0.3-0.4,0.4-0.8c0.1-0.4,0.3-0.5,0.3-0.9c0.1-0.6,0.3-1,0.4-1.5c0-0.2,0.1-0.3,0.1-0.5
		c0.1-0.4,0-0.8,0.1-1.2c0-0.5,0.1-0.6,0-1.2c0-0.2-0.1-0.3-0.1-0.5c0-0.3,0.1-0.5,0.3-0.4c0.1,0.1,0.3,0.8,0.3,1
		c0.2,0.7,0.1,3-0.1,3.6c-0.1,0.5,0.1,0.4-0.1,1.2c-0.1,0.4-0.1,0.7-0.1,1.1c0,1.9,0.2,1.1,0.2,1.7c0,0.4,0.1,0.3,0.1,0.6
		c-0.1,0.1-0.2,0.1-0.4,0.1c-0.4-0.2-0.1-1.2,0-1.2c-0.5-0.3-0.5-0.1-0.8,0.1C168.7,58.1,168.8,58.2,168.6,58.3L168.6,58.3z"/>
</g>
</svg>
