<?xml version="1.0" encoding="utf-8"?>
<!-- Generator: Adobe Illustrator 24.0.2, SVG Export Plug-In . SVG Version: 6.00 Build 0)  -->
<svg version="1.1"
	 id="Слой_1" shape-rendering="geometricPrecision" image-rendering="optimizeQuality" text-rendering="geometricPrecision" xmlns:xodm="http://www.corel.com/coreldraw/odm/2003"
	 xmlns="http://www.w3.org/2000/svg" xmlns:xlink="http://www.w3.org/1999/xlink" x="0px" y="0px" viewBox="0 0 238.1 150.2"
	 style="enable-background:new 0 0 238.1 150.2;" xml:space="preserve">
<g id="Layer_x0020_1">
	<g id="_105553145466112">
		<path class="st0"  d="M117.8,52.6c-0.5,0.2-1.3,1.2-2.3,2.8c-0.5,0.9-2.6,4.3-4.5,7.6c-2,3.3-4,6.7-4.6,7.6c-0.5,0.9-1.5,2.5-2.2,3.6
			s-2.7,4.4-4.4,7.4c-6.1,10.2-5.8,9.7-5.6,10.7c0.1,0.8,1,1.6,1.8,1.7c0.3,0,10.7,0.1,23.1,0h22.4l0.4-0.3c1-0.7,1.3-1.8,0.9-2.8
			c-0.2-0.4-1.8-3.3-3.7-6.3c-0.7-1.1-1.6-2.6-2-3.4c-0.5-0.8-3.8-6.4-7.4-12.4c-3.6-6-7.1-11.9-7.9-13.1c-1.4-2.3-1.8-2.9-2.5-3.2
			C119,52.5,118.3,52.5,117.8,52.6L117.8,52.6L117.8,52.6z M126.2,75.3l7.5,12.4h-7.5c-4.1,0-10.9,0-15,0h-7.5l2.5-4.3
			c1.4-2.3,3.2-5.4,4-6.7c0.8-1.4,1.9-3.2,2.5-4.2s1.8-3,2.7-4.6c2.7-4.7,3.2-5.3,3.3-5.2C118.7,62.8,122.1,68.4,126.2,75.3
			L126.2,75.3L126.2,75.3z"/>
		<path class="st0"  d="M67.6,52.8c-4.8,0.7-8.9,2.6-12.3,5.8c-5.5,5.2-7.7,12.6-5.9,19.9c2,7.9,8.4,13.9,16.7,15.6c0.9,0.2,2,0.2,4,0.3
			c3,0,4.3-0.2,6.8-1c5.1-1.7,9.9-5.7,12.3-10.5c2.3-4.6,2.8-10.1,1.4-14.9C89,62.5,85.2,57.8,80,55c-1.4-0.7-3.9-1.6-5.6-2
			C72.8,52.7,69.1,52.6,67.6,52.8L67.6,52.8z M74,59.5c7.1,1.9,11.8,8.3,11.1,15.2c-0.4,3.5-1.7,6.4-4.1,8.9
			c-2.1,2.2-4.8,3.7-7.8,4.3c-1.3,0.3-4.3,0.3-5.6,0.1c-5-0.9-9.2-4-11.2-8.5c-0.6-1.3-1-2.8-1.2-4.6c-0.9-7.1,4.3-14,11.7-15.6
			C68.7,58.9,72,59,74,59.5L74,59.5z"/>
		<path class="st0"  d="M148.7,54.6c-0.5,0.2-0.7,0.5-1,1l-0.3,0.6v18.1c0,19.8,0,18.6,0.8,19.3s0.4,0.6,20.5,0.7c18.5,0,19.1,0,20-0.2
			c1.1-0.3,1.7-0.8,1.9-1.7c0.1-0.4,0.1-6.1,0.1-18.4V56.2l-0.3-0.6c-0.7-1.2,1.4-1.1-21.1-1.2h-20L148.7,54.6L148.7,54.6
			L148.7,54.6z M184.2,60.7c0.2,0.1,0.2,1.9,0.2,13.6v13.5H174c-5.7,0-12.6-0.1-15.4-0.1h-5V74.2c0-7.4,0-13.5,0.1-13.5
			C153.8,60.6,183.9,60.6,184.2,60.7z"/>
	</g>
</g>
</svg>
