<?xml version="1.0" encoding="utf-8"?>
<!-- Generator: Adobe Illustrator 24.0.2, SVG Export Plug-In . SVG Version: 6.00 Build 0)  -->
<svg version="1.1" id="Слой_1" xmlns="http://www.w3.org/2000/svg" xmlns:xlink="http://www.w3.org/1999/xlink" x="0px" y="0px"
	 viewBox="0 0 238.1 150.2" style="enable-background:new 0 0 238.1 150.2;" xml:space="preserve">
<g>
	<path class="st0" d="M209.7,68.2c0,0.9,0,1.6,0.1,2.5c0.1,1.3,0.2,2.6,0.3,3.9c0,1.3,0,2.7,0,4c-0.1,3.7-0.6,7.4-1.4,10.9
		c-1,4.3-2.5,8.5-4.4,12.6c-1.8,3.7-4,7-6.6,10.2c-0.1,0.1-0.2,0.3-0.2,0.4c3.9-4.4,6.9-9.3,9.3-14.6c-3.9,9.8-10.1,18-18.5,24.2
		c-11.4,8.5-24.3,12.2-38.4,11.1c-17.1-1.3-30.9-9.1-41.3-22.8C100.1,99.5,96.4,87,97.4,73.2c1.1-16.1,8-29.6,20.4-40
		c11.6-9.6,25.1-13.8,40-12.9c15.9,1.1,29.3,7.8,39.7,20c10.4,12.2,14.4,26.5,13,42.4c0-0.2,0-0.4,0-0.8c0-2.2,0.1-4.3,0-6.5
		c-0.1-2.1-0.4-4.1-0.6-6.2C209.8,68.9,209.7,68.6,209.7,68.2c0-0.3,0-0.6-0.1-1c-0.6-3.5-1.5-6.9-2.7-10.2
		c-0.6-1.7-1.4-3.5-2.2-5.1c-0.1,0-0.1,0-0.2,0.1c0.1,0.2,0.2,0.4,0.3,0.6c2.1,4.3,3.6,8.9,4.4,13.6
		C209.4,66.9,209.6,67.6,209.7,68.2z M154.5,21.3c-30.9-0.2-55,24.1-56.2,53.2c-1.3,33.1,24.8,56.6,52.4,57.9
		c17.1,0.9,31.7-4.9,43.6-17.2c9.4-9.7,14.6-21.5,15.4-35.1C211.5,46.5,184.2,21.1,154.5,21.3z M123,123.7
		c-17.3-12.4-25.8-29.2-25.2-50.5c-0.8,11.3,1.6,21.7,7.2,31.6C109.6,112.5,115.4,118.9,123,123.7z M183.7,124.7
		c-18.7,10.6-37.7,11-56.9,1.4c10.6,6,22,7.9,34.1,6.6C169.1,131.8,176.8,129.2,183.7,124.7z M124.4,29.1
		c16.4-9.4,33.4-10.7,51.2-4.1c-8.8-3.7-18-5-27.5-4C139.6,21.7,131.7,24.4,124.4,29.1z M99.9,61.5c-1,3.7-1.7,7.4-1.9,10.9
		C98.6,68.9,99.2,65.2,99.9,61.5z M112.6,38.5l0.1,0.1c1.8-1.7,3.8-3.6,5.6-5.3c-0.1-0.1-0.1-0.1-0.2-0.2
		C116.4,34.9,114.6,36.8,112.6,38.5z M191.7,34.9C191.8,34.9,191.8,34.9,191.7,34.9c1.5,1.5,2.9,3,4.4,4.7l0,0
		C194.8,38.1,193.2,36.5,191.7,34.9z M196.1,114.2l0.1,0.1c-1.2,1.2-2.5,2.5-3.7,3.7l-0.1-0.1C193.6,116.7,194.8,115.5,196.1,114.2z
		"/>
	<path class="st0" d="M207.3,76.8c0.3,28.8-23.7,54.3-55.3,53.2c-26.8-0.9-51.8-23.8-51.3-54.4c0.4-27.7,23.8-51.8,53.1-52
		C183.3,23.4,207.5,47.8,207.3,76.8z M192.9,42.4c-0.3-0.4-0.5-0.9-1-1.2c-0.8-0.8-1.6-1.5-2.4-2.2c-0.4-0.3-0.8-0.8-1.2-1.1
		c-0.3-0.3-0.5-0.2-0.9,0.1c-0.3,0.4-0.6,0.8-1,1.1c-0.2-0.1-0.5-0.1-0.6-0.2c-0.5-0.3-1.1-0.8-1.6-1.2c-0.1,0.1-0.1,0.1-0.2,0.2
		c-0.3,0.2-0.5,0.9-1.1,0.5c-0.5-0.4,0.1-0.8,0.2-1.1c0,0,0,0,0-0.1c0.5-0.6,1.2-1.4,1.8-2.2c-0.8-0.4-1.6-1-2.4-1.5
		c-0.3-0.2-0.8-0.5-1.1-0.8c-0.1-0.1-0.2-0.2-0.3-0.3c-2.5-1.3-5-2.7-7.6-3.9c-5.7-2.6-11.9-3.7-18.2-3.8c-2.7,0-5.4,0.2-8.1,0.4
		c-3.8,0.3-7.4,1.3-10.9,2.5c-5.3,1.8-10.1,4.5-14.4,8c-2.6,2.1-5,4.3-7.1,6.9l0,0c-1,1.2-1.8,2.4-2.8,3.5l0,0
		c-0.2,0.2-0.3,0.3-0.5,0.5c-2.4,3.4-4.4,6.9-6,10.8c-2.3,5.8-3.4,11.8-3.7,18c-0.2,4.1,0.2,8.1,1.1,12.1c1.4,6.7,4,12.9,7.9,18.5
		c2.8,4.1,6.3,7.8,10.1,10.9c0.2,0.2,0.6,0.3,1,0.4l0,0c0.1,0.2,0.2,0.4,0.4,0.5c4.5,3.6,9.6,6.2,15,8.1c3,1.1,6.2,1.7,9.3,2.2
		c1.9,0.2,3.9,0.4,5.8,0.5c3.1,0.1,6.3-0.1,9.4-0.6c1.6-0.2,3.2-0.5,4.9-0.9c-0.4-0.2-0.8-0.4-1.1-0.5c0-0.1,0-0.2,0-0.2
		c0.3-0.1,0.6-0.2,1-0.4c0.2-0.1,0.9,0.1,0.8-0.6c-0.2,0-0.5,0.1-0.8,0.1c-0.4,0.1-0.9,0.4-1-0.2c0-0.1,0.5-0.4,0.9-0.6
		c0.2-0.1,0.4-0.2,0.6-0.3c0-0.1-0.1-0.2-0.1-0.2c-0.4,0.1-0.8,0.2-1.2,0.2c-0.2,0-0.5-0.2-0.8-0.3c0.2-0.2,0.3-0.4,0.5-0.5
		c0.5-0.2,1.1-0.3,1.6-0.4c0.2,0,0.4,0,0.6,0.1c0.3-0.5,0.4-0.5,1-0.2c0.6,0.3,1.4,0.8,2.2,1.1c-0.2-0.6-0.3-1.1-0.4-1.6
		c0-0.2,0.1-0.3,0.2-0.5c0.2,0.1,0.4,0.2,0.5,0.3c0.3,0.8,0.5,1.5,0.9,2.3c0.1,0.2,0.1,0.6,0,0.6c-0.2,0.1-0.6,0.1-0.9,0
		c-0.6-0.3-1.3-0.6-2.2-1.1c0.2,0.5,0.3,0.9,0.4,1.3c0,0.2-0.1,0.5-0.2,0.8c-0.2-0.1-0.5-0.3-0.6-0.4c-0.1-0.1-0.2-0.4-0.2-0.6h-0.1
		c0.1,0.4,0.2,0.9,0.3,1.3c-0.3,0.2-0.6,0.3-1.1,0.6c0.3,0,0.4,0,0.5-0.1c2.2-0.8,4.4-1.5,6.6-2.4c1.4-0.5,2.8-1.4,4.2-2.2
		c0.8-0.4,1.6-1,2.4-1.4c0.4-0.3,1-0.6,1.4-1c0.6-0.4,1.4-1,2.1-1.4c0.3-0.2,0.5-0.4,0.9-0.6c0.5-0.4,1.2-1,1.7-1.4
		c1.3-1.2,2.6-2.3,3.9-3.5c0.5-0.5,1.1-1.2,1.5-1.8l0,0c0.4-0.3,0.9-0.6,1.2-1.1c3-3.8,5.7-7.9,7.6-12.3c0.8-1.7,1.4-3.5,2.2-5.3
		c-3.9,0-7.6,0-11.5,0c0.4,0.3,0.8,0.5,1,0.6c0.5,0.2,0.6,0.5,0.3,1.1c-1.3,2.4-2.5,4.9-3.9,7.1c-4.1,6.3-9.6,10.9-16.3,14.3
		c-5.4,2.7-11.1,4.3-17.2,4.7c-3.9,0.2-7.8-0.2-11.6-1c-6-1.3-11.5-3.7-16.3-7.4c-3.4-2.5-6.2-5.4-8.8-8.7c-5.5-7.1-8.4-15.3-9-24.2
		c-0.2-3.8,0.1-7.6,0.9-11.4c1.5-7,4.7-13.2,9.3-18.6c2.6-3,5.5-5.7,8.8-7.9c5.7-4,12.1-6.3,19-7.1c3.1-0.3,6.2-0.5,9.3-0.2
		c2.4,0.3,4.9,0.5,7.2,1.2c9,2.5,16.6,7.4,22.5,14.6c3.4,4,5.7,8.5,7.4,13.5c0.6,1.9,1.1,3.9,1.7,5.8c0.6,0,1.4,0,2.1,0
		c0-0.1,0.1-0.1,0.1-0.2c-0.2-0.2-0.4-0.3-0.6-0.5c-0.3-0.3-0.6-0.6-0.8-1c-0.4-1.3-0.6-2.6-1.1-3.8c-0.1-0.5-0.1-0.9,0.3-1.2
		c0.1-0.1,0.2-0.3,0.1-0.5c-0.1-0.3-0.2-0.8-0.4-1.2c-0.8,0.3-1.1-0.1-1.4-0.8c-0.4-1.1-1-2.1-1.5-3c-0.3-0.6-0.5-1.4,0.1-1.9
		c-0.3-0.6-0.5-1.4-1.5-1.1c-0.1,0-0.4-0.3-0.6-0.5c-0.8-1.1-1.6-2.2-2.3-3.4c-0.2-0.3-0.1-0.9-0.1-1.2c0-0.2,0-0.4-0.1-0.6
		c-0.1-0.2-0.4-0.4-0.6-0.8c-0.8,0.4-1.3,0.2-1.7-0.3c-0.9-0.9-1.7-1.7-2.6-2.6c-0.4-0.4-0.6-0.9-0.4-1.3c0.2-0.6-0.4-0.6-0.6-1
		c-0.1-0.1-0.4,0-0.6,0c-0.3,0-0.6,0.1-0.9,0c-1.3-0.9-2.5-1.7-3.8-2.6c-0.2-0.1-0.3-0.4-0.3-0.5c0.1-1-0.5-1.3-1.3-1.5
		c-0.5,0.6-1.1,0.5-1.7,0.2c-1-0.5-2.1-1-3-1.5c-0.5-0.3-1.3-0.5-1.1-1.4c0-0.1-0.2-0.2-0.3-0.3c-0.3-0.1-0.6-0.2-1.1-0.4
		c-0.3,0.9-1,0.8-1.7,0.5c-1.1-0.3-2.2-0.6-3.2-0.9c-0.8-0.2-1.4-0.4-1.3-1.4c-0.6,0-1.4-0.6-1.8,0.4c0,0.1-0.3,0.2-0.5,0.1
		c-1.3-0.1-2.6-0.1-3.8-0.2c-0.4,0-1.2-0.2-1.3-0.4c-0.4-1-1.1-0.6-1.5-0.8c-0.5,0.4-0.9,1-1.2,1c-1.5,0.2-3,0.3-4.5,0.3
		c-0.2,0-0.5-0.2-0.8-0.4c-0.2-0.1-0.5-0.3-0.6-0.3c-0.3,0.1-0.9-0.1-1.1,0.5c-0.1,0.3-0.5,0.8-0.9,0.9c-1.1,0.3-2.2,0.5-3.2,0.9
		c-0.8,0.2-1.5,0.4-2.1-0.4c-1,0.3-1,0.3-1.4,1.3c-0.1,0.2-0.3,0.3-0.5,0.4c-1.1,0.5-2.3,1.1-3.4,1.6c-0.8,0.3-1.4,0.5-1.9-0.1
		c-0.4,0.2-0.9,0.5-1.2,0.8c0.1,1,0.1,1.1-0.6,1.6c-1,0.6-1.8,1.3-2.8,1.9c-0.6,0.4-1.2,0.8-1.8,0.1c-0.4,0.3-0.8,0.6-1.1,1
		c0.3,1,0.3,1.1-0.4,1.8c-0.8,0.8-1.6,1.5-2.4,2.4c-0.5,0.5-1,0.9-1.7,0.3c-0.8,0.8-0.8,0.8-0.6,1.8c0,0.2-0.1,0.4-0.2,0.5
		c-0.9,1.3-1.6,2.5-2.5,3.8c-0.1,0.2-0.4,0.4-0.5,0.3c-1-0.3-1.1,0.5-1.5,1.1c0.6,0.6,0.5,1.2,0.2,1.9c-0.5,1.1-1.1,2.2-1.5,3.4
		c-0.3,0.6-0.6,1-1.4,0.8c-0.4,1-0.4,1,0.1,1.8c0.1,0.1,0.1,0.4,0,0.5c-0.3,1.4-0.6,2.8-1.1,4.2c-0.1,0.3-0.5,0.8-0.9,1
		c-0.4,0.3-0.8,1.2-0.3,1.4c0.5,0.3,0.4,0.6,0.4,1.2c0,1.1-0.1,2.3-0.2,3.4c0,0.5-0.1,1.4-0.4,1.5c-1,0.4-0.6,1.1-0.6,1.8
		c0.8,0.2,1,0.5,1,1.3c0,0.9,0.2,1.8,0.2,2.7c0,0.8,0.4,1.6-0.4,2.4c-0.4,0.3,0,1.2,0.4,1.5c0.3,0.1,0.6,0.4,0.6,0.8
		c0.4,1.4,0.8,2.7,1.1,4.1c0.1,0.3-0.2,0.8-0.3,1.1c0,0.4,0,0.9,0.1,1.2c0,0.2,0.4,0.2,0.6,0.4c0.3,0.2,0.6,0.3,0.9,0.5
		c0.6,1.3,1.2,2.5,1.7,3.8c0.1,0.3,0.1,0.9,0,1c-0.4,0.4-0.1,0.8,0.1,1.1s0.3,0.5,0.9,0.5c0.3,0,0.6,0.2,0.9,0.4
		c0.9,1.1,1.6,2.3,2.4,3.4c0.3,0.4,0.4,0.8,0.1,1.2c-0.1,0.1,0,0.4,0.1,0.6c0.2,0.3,0.4,0.5,0.8,0.9c0.6-0.5,1.1-0.3,1.5,0.2
		c0.9,1,1.8,1.8,2.8,2.7c0.3,0.3,0.5,0.6,0.3,1.1c-0.1,0.1,0,0.4,0.1,0.6c0.2,0.3,0.5,0.4,0.9,0.8c0-0.1,0-0.1,0-0.2
		c0.4,0,1.1,0,1.4,0.2c1.1,0.6,2.2,1.5,3.2,2.3c0.4,0.3,0.8,0.6,0.6,1.3c0,0.1,0.1,0.4,0.2,0.4c0.3,0.2,0.6,0.3,1,0.5
		c0.4-0.5,1-0.6,1.5-0.3c1.3,0.6,2.6,1.2,3.9,1.8c0.2,0.1,0.4,0.4,0.4,0.6c-0.1,0.6,0.4,0.6,0.8,0.9c0.3,0.2,0.6,0.3,1-0.2
		c0.1-0.2,0.8-0.2,1.1-0.2c1.2,0.2,2.5,0.5,3.7,1c0.4,0.1,0.9,0.3,1.1,0.6c0.5,1,1.2,1.1,1.8,0.3c0.2-0.2,0.5-0.2,0.8-0.2
		c1.1,0,2.1,0,3.1,0.2c0.9,0.1,2.2-0.2,2.3,1.2c0.5,0,1,0,1.4,0c0-0.1-0.1-0.1-0.1-0.2c0.3-0.3,0.6-0.8,1-0.9c1.5-0.2,3-0.3,4.5-0.3
		c0.2,0,0.5,0.2,0.8,0.4c0.2,0.1,0.4,0.4,0.5,0.3c0.4-0.1,1-0.3,1.1-0.5c0.1-0.8,0.6-0.9,1.2-1c1.1-0.3,2.2-0.5,3.2-0.9
		c0.8-0.2,1.5-0.4,1.9,0.5c0.6-0.3,1.6-0.2,1.4-1.4c0-0.1,0.2-0.3,0.4-0.4c1.3-0.6,2.6-1.2,3.9-1.8c0.3-0.1,0.8-0.2,1.1-0.1
		c0.9,0.3,1.6,0,1.6-1c0-0.2,0.1-0.5,0.3-0.8c1.2-0.9,2.4-1.7,3.7-2.5c0.2-0.1,0.6-0.2,0.9-0.1c0.3,0.3,0.6,0.3,1,0
		c0.3-0.3,0.9-0.5,0.5-1.2c-0.1-0.2,0.1-0.6,0.3-0.9c1-1.1,2.1-2.2,3.1-3.1c0.2-0.2,0.6-0.3,0.9-0.2c0.6,0.3,0.8-0.2,1.1-0.4
		c0.3-0.3,0.3-0.5,0.1-1c-0.1-0.2,0-0.8,0.2-1c0.8-1.1,1.5-2.2,2.3-3.1c0.3-0.4,0.6-0.8,1.2-0.6c0.6,0,1.1-1,0.9-1.5
		c-0.1-0.3-0.2-0.9-0.1-1.2c0.5-1.2,1.1-2.4,1.6-3.6c0.4-0.9,0.6-0.9,1.6-0.4c1.1,0.4,1.3,0.8,0.9,1.6c-0.5,1.2-1.1,2.4-1.6,3.5
		c-0.3,0.6-0.6,1.1-1.4,0.6c-0.2,0.4-0.5,0.8-0.6,1.1c-0.1,0.2-0.1,0.5,0,0.6c0.5,0.5,0.2,1-0.1,1.5c-0.6,0.9-1.3,1.8-1.9,2.7
		c-0.4,0.6-0.8,1.1-1.6,1c-0.5-0.1-1.4,1.1-1.2,1.4c0.3,0.5,0.1,0.9-0.2,1.3c-0.9,0.9-1.7,1.7-2.6,2.6c-0.5,0.6-1.1,1.1-1.9,0.4
		c-0.6,0.5-1.4,1-1.2,2.1c0,0.2-0.2,0.5-0.4,0.6c-1,0.8-2.1,1.4-3.1,2.2c-0.6,0.5-1.2,0.5-1.7-0.1c-0.5,0.3-1,0.5-1.4,0.8
		c0.3,0.8,0,1.2-0.6,1.5c-1.3,0.5-2.5,1.2-3.8,1.7c-0.3,0.1-0.8,0-1.1-0.1c-0.8-0.4-1.7-0.1-1.9,0.8c-0.1,0.3-0.3,0.6-0.5,0.8
		c-1.5,0.4-2.9,0.8-4.4,1.1c-0.3,0.1-0.6-0.1-0.9-0.3c-0.6-0.6-1.5-0.4-1.9,0.4c-0.1,0.2-0.3,0.4-0.5,0.5c-1.6,0.2-3.2,0.3-4.9,0.4
		c-0.2,0-0.6-0.1-0.8-0.3c-0.5-0.8-1.5-0.8-2.1,0c-0.2,0.2-0.5,0.4-0.9,0.3c-1.5-0.1-3-0.2-4.5-0.4c-0.2,0-0.5-0.3-0.6-0.5
		c-0.3-0.8-1.4-1-1.9-0.4c-0.3,0.4-0.6,0.5-1.1,0.3c-1.3-0.4-2.7-0.8-4-1.1c-0.5-0.1-0.8-0.4-1-1c-0.1-0.6-1.3-1.1-1.7-0.6
		c-0.4,0.3-0.8,0.4-1.2,0.2c-1.3-0.6-2.6-1.2-3.9-1.9c-0.2-0.1-0.4-0.5-0.4-0.8c-0.1-0.8-1.1-1.4-1.7-1c-0.4,0.2-0.8,0.2-1.2,0
		c-1.1-0.8-2.2-1.5-3.4-2.3c-0.4-0.3-0.8-0.6-0.5-1.3c0.2-0.6-0.4-0.8-0.8-1.1c-0.1-0.2-0.5-0.3-0.8-0.2c-0.5,0.4-1,0.1-1.3-0.3
		c-0.9-0.9-1.7-1.7-2.6-2.6c-0.6-0.5-1-1.1-0.3-1.8c-0.5-0.6-0.9-1.4-1.9-1.2c-0.2,0-0.5-0.3-0.8-0.5c-0.8-1.1-1.5-2.2-2.3-3.2
		c-0.3-0.4-0.4-0.8,0-1.1c0.5-0.5-0.2-1-0.3-1.4c-0.1-0.3-0.3-0.5-0.8-0.4c-0.2,0-0.6-0.2-0.8-0.4c-0.6-1.2-1.1-2.4-1.7-3.5
		c-0.4-0.8-0.4-1.4,0.3-1.9c-0.2-0.5-0.4-1-0.5-1.5c0,0.1-0.1,0.1-0.2,0.2c-0.4-0.3-1-0.5-1.1-0.9c-0.4-1.3-0.9-2.7-1.2-4.1
		c-0.1-0.3,0.1-0.8,0.2-1.1c0.1-0.2,0.4-0.5,0.4-0.6c-0.2-0.4,0.2-1.3-0.8-1.4c-0.2,0-0.5-0.4-0.5-0.6c-0.1-1.5-0.2-3-0.3-4.5
		c0-0.3,0.2-0.6,0.4-0.9c0.4-0.3,0.4-1.6,0-1.9c-0.2-0.2-0.4-0.5-0.4-0.8c0.1-1.5,0.2-3.1,0.3-4.7c0-0.2,0.3-0.5,0.6-0.8
		c0.6-0.3,0.9-1.2,0.4-1.8c-0.2-0.3-0.4-0.9-0.3-1.3c0.3-1.3,0.8-2.6,1.1-4c0.1-0.5,0.4-0.9,1-0.9c0.1,0,0.4-0.1,0.4-0.1
		c0.1-0.5,0.6-1.1,0.1-1.7c-0.2-0.2-0.2-0.8-0.1-1.1c0.4-1.2,1.1-2.4,1.6-3.5c0.3-0.8,0.6-1.3,1.6-1c0.1-0.2,0.1-0.3,0.2-0.4
		c0.3-0.5,0.8-1,0.2-1.6c-0.1-0.1,0-0.5,0.1-0.8c0.8-1.2,1.6-2.4,2.4-3.6c0.1-0.2,0.4-0.4,0.6-0.4c1.1,0.2,1.4-0.5,1.9-1.3
		c-0.6-0.5-0.3-1.1,0.1-1.5c0.9-0.9,1.7-1.7,2.6-2.7c0.5-0.5,1.1-1.1,1.7-0.2c0.1-0.1,0.2-0.1,0.2-0.2c0.5-0.5,1.3-0.9,1-1.8
		c0-0.1,0.2-0.4,0.3-0.5c1.4-1,2.8-1.9,4.2-2.9c0.4,0.2,0.6,0.4,1,0.6c0.6-0.4,1.6-0.6,1.4-1.7c0-0.1,0.2-0.3,0.4-0.4
		c1.4-0.6,2.7-1.3,4.1-1.8c0.3-0.1,0.8,0,1,0.1c0.6,0.4,1.8,0,2.1-0.8c0.1-0.3,0.4-0.6,0.6-0.8c1.4-0.4,2.7-0.8,4.1-1.1
		c0.3-0.1,0.8,0,1,0.2c0.6,0.6,1.6,0.4,2.1-0.3c0.1-0.2,0.4-0.5,0.8-0.5c1.3-0.1,2.6-0.2,4-0.3c0.6-0.1,1.4-0.1,1.6,0.8
		c0.6,0,1.2,0,1.8,0c0-0.8,0.4-0.9,1.1-0.8c1.5,0.1,2.9,0.2,4.4,0.3c0.2,0,0.5,0.3,0.6,0.6c0.3,0.6,1.4,0.9,1.9,0.4
		c0.2-0.2,0.8-0.4,1.1-0.3c1.4,0.3,2.7,0.8,4.1,1.1c0.5,0.1,0.6,0.4,0.8,0.9c0.1,0.6,1.3,1.2,1.7,0.8c0.5-0.5,1.1-0.3,1.6-0.1
		c1.2,0.5,2.5,1.1,3.7,1.7c0.2,0.1,0.3,0.5,0.5,0.9c0.1,0.3,0.2,0.6,0.4,0.8c0.2,0.2,0.6,0.3,1,0.5c0.4-0.5,0.9-0.6,1.5-0.2
		c1.1,0.9,2.3,1.5,3.4,2.4c0.2,0.2,0.4,0.5,0.4,0.8c-0.1,0.5,0.1,0.9,0.5,1.3c0.4,0.4,0.8,0.5,1.3,0.1c0.1-0.1,0.4,0.1,0.5,0.2
		c1.1,1.1,2.3,2.2,3.4,3.2c0.2,0.2,0.1,0.8,0.1,1.1c0,0.2,0,0.4,0.1,0.6c0.2,0.3,0.5,0.6,0.8,0.9c1-0.2,1.3-0.2,1.6,0.4
		c0.8,1.1,1.5,2.3,2.4,3.4c0.3,0.4,0.3,0.8,0.1,1.3c-0.1,0.3,0.1,0.9,0.3,1.3c0.1,0.2,0.4,0.4,0.5,0.3c0.6-0.2,0.9,0.1,1.1,0.5
		c0.6,1.3,1.3,2.6,1.8,3.9c0.1,0.2,0,0.8-0.1,1c-0.3,0.3-0.3,0.6-0.1,1c0.1,0.3,0.2,0.6,0.4,1c0.6,0,1.1,0.1,1.3,0.8
		c0.3,1.4,0.8,2.7,1.1,4.1c0.1,0.2,0,0.8-0.1,0.9c-0.5,0.3-0.5,0.8-0.4,1.4c0.1,0.5-0.1,0.8-0.6,0.8c-0.8,0-1.5,0-2.3,0
		c-0.5,0-0.8-0.2-0.9-0.6c-0.2-0.8-0.3-1.5-0.5-2.3c-1.7-7.2-5.2-13.5-10.3-18.9c-2.7-2.8-5.7-5.3-9.1-7.4c-6-3.6-12.4-5.5-19.3-6.1
		c-4.1-0.3-8.2,0-12.2,1c-5.3,1.3-10.2,3.4-14.6,6.5c-3.4,2.3-6.3,5-8.9,8.2c-3,3.7-5.2,7.8-6.9,12.1c-0.1,0.2,0,0.4,0.1,0.6
		c0.3-0.5,0.4-1,0.6-1.4c0.2-0.4,0.5-0.9,0.8-1.3c3.4-7.6,8.4-13.6,15.4-18.3c6.7-4.4,14.2-6.7,22.3-7c3.8-0.1,7.6,0.3,11.3,1.3
		c7.7,2.1,14.3,5.8,19.9,11.7c4.1,4.2,7,9.1,9.1,14.5c0.4,1.1,0.8,2.2,1.1,3.4c-0.9,0-1.5,0-2.3,0c-1.7-5.6-4.4-10.6-8.3-14.9
		c-0.2,0.6-0.2,0.6,0.4,1.3c3,3.6,5.2,7.6,6.7,12c0.3,0.9,0.4,1.7,1,2.5c0.9,1.3,1.9,2.5,2.9,3.7c0.2,0.2,0.6,0.4,1,0.4
		c1.7,0,3.5,0,5.3,0c1.5,0,2.9,0,4.5,0c-0.2-1.2-0.3-2.4-0.5-3.5c-1.6-8.1-4.9-15.6-10-22.2c-0.8-0.9-1.5-1.7-2.3-2.6
		C193,42.6,192.9,42.5,192.9,42.4z M179.8,122.8c-1.3,0.6-2.5,1.3-3.8,1.8c-5.4,2.4-11,3.9-17,4.4c-3.5,0.3-6.8,0.3-10.3,0
		c-3.4-0.3-6.6-1-9.8-1.9c-9.6-3-17.9-8.3-24.6-16c-3.8-4.3-6.7-9.2-8.9-14.6c-2.2-5.3-3.4-10.9-3.8-16.7c-0.1-2.3-0.1-4.7,0-6.9
		c0.1-1.6,0.3-3.1,0.5-4.8c0.1-0.8,0.2-1.5,0.3-2.3c-0.1,0-0.2,0-0.2,0c-0.3,2.8-0.9,5.6-1,8.4c-0.2,4.5,0.1,9,1.1,13.4
		c1.1,5.2,2.8,10.1,5.4,14.6c2.9,5.2,6.6,9.7,11,13.6c3,2.7,6.3,5.1,9.7,7c6.9,3.9,14.5,6,22.4,6.4c3.2,0.1,6.5,0,9.7-0.3
		c3.7-0.3,7.4-1.2,10.9-2.5C174.5,125.6,177.3,124.5,179.8,122.8c1.3-0.6,2.6-1.4,3.9-2.2c0-0.1-0.1-0.1-0.1-0.2
		C182.3,121.2,181,122,179.8,122.8z M136.5,66.5c0,0.9,0,1.6,0,2.4c0,6.7,0,13.3,0,20c0,1-0.1,1-1.1,1c-1.5,0-3,0-4.5,0
		c-0.8,0-1.2,0.3-1.3,1c-0.1,0.3-0.1,0.6-0.1,1c0,3.5,0,6.9,0,10.4c0,1.3,0.6,1.9,1.9,1.9c8.5,0,17.1,0,25.6,0c1.3,0,2.6,0,3.8-0.2
		c3.9-0.9,7.5-2.7,10.6-5.3c5.5-4.7,8.9-10.6,9.6-17.9c0.3-3.6,0-6.9-1-10.4c-1.2-4-3.2-7.5-6.1-10.5c-2.6-2.8-5.7-5-9.3-6.5
		c-2.2-0.9-4.3-1.4-6.6-1.4c-2.6,0-5.2,0-7.8,0c-6.3,0-12.6,0-18.9,0c-1.4,0-1.8,0.4-1.9,1.8c0,0.3,0,0.8,0,1.1c0,3,0,6.1,0,9.1
		c0,1.6,0.4,2.2,2.1,2.2C133.2,66.5,134.8,66.5,136.5,66.5z M113.7,70.6c-2.4,8.2-0.1,23.4,9.7,33.8c11.9,12.4,26.4,16.4,42.8,11.7
		c12.3-3.6,20.8-11.9,26-23.7c-1.2,0-2.3-0.2-3.1,0.6c-1.1,1.1-2.4,2.1-3.5,3c-1,0.9-1.9,1.6-2.5,2.8c0.4-0.2,0.9-0.5,1.1-0.4
		c0.5,0.2,0.9,0.6,1.6,0.4c0.3-0.1,1,0.5,1.3,1c0.1,0.1-0.2,0.6-0.4,1c-0.2,0.3-0.5,0.6-0.8,1c-3.2,4.3-7.4,7.7-12,10.4
		c-4,2.2-8.1,3.9-12.7,4.5c-1.9,0.2-3.8,0.6-5.7,0.8c-2.8,0.1-5.6-0.1-8.4-0.6c-5.7-1-10.9-3-15.7-6.3c-6.6-4.4-11.4-10.3-14.6-17.4
		c-1.9-4.4-3.1-9.1-3.4-14c-0.1-1.5,0-3.1,0-4.7C113.6,73.2,113.7,71.9,113.7,70.6z M192.7,93.5c-0.1,0.2-0.3,0.5-0.4,0.8
		c-1.8,3.9-4.1,7.6-7,10.7c-3.1,3.4-6.6,6.2-10.6,8.4c-6.3,3.6-13,5.2-20.1,5.4c-2.9,0.1-5.8-0.3-8.8-0.9
		c-6.3-1.2-11.8-3.8-16.9-7.5c-5.3-4-9.4-9-12.3-14.9c-2.5-5-4-10.3-4.3-15.9c-0.2-3,0.1-6.2,0.2-9.3c-0.1,0.1-0.3,0.2-0.3,0.4
		c-0.1,0.8-0.3,1.6-0.3,2.4c-0.2,3-0.3,6.1,0.1,9.1c0.4,2.5,0.9,5,1.6,7.5c1.7,6,5,11.1,9,15.8c3.5,4,7.6,7.1,12.2,9.4
		c5.2,2.6,10.7,4.1,16.4,4.5c3.7,0.3,7.5,0.1,11.1-0.6c5.3-1.1,10.2-3.1,14.7-6c4.4-2.7,8.1-6.2,11.3-10.3c1.8-2.5,3.5-5.2,4.8-8
		C193,94.1,193.3,93.7,192.7,93.5z M193.5,65c-4.9-17-23.3-32.5-46.4-28.7c-9.7,1.6-17.9,6.4-24.3,13.8c-3,3.6-5.5,7.6-6.9,12.1
		c0.4-0.5,0.9-1.1,1.1-1.7c2.5-5.6,6.2-10.4,10.8-14.5c7.4-6.3,15.9-9.3,25.4-9.7c2.2-0.1,4.4,0.2,6.6,0.4c2.7,0.2,5.4,1,8,1.8
		c4.8,1.7,9.1,4.2,13,7.7c3.6,3.1,6.6,6.7,8.9,10.9c1.2,2.4,2.2,4.9,3.1,7.2C192.9,65,193,65.2,193.5,65z M188.6,81.7
		c0-0.1,0-0.1,0-0.2c-0.9-0.1-1.7-0.1-2.6-0.2c-0.2,0-0.5-0.2-0.6-0.3c-0.8-1.2-1.5-2.4-2.2-3.6c-0.1-0.2-0.2-0.5-0.2-0.9
		c-0.2-1.6-0.2-3.4-0.5-5c-1.5-6.9-5-12.7-10.6-17c-4.7-3.7-10-5.6-15.8-6.1c-3.8-0.3-7.6,0.3-11.1,1.6c-1.4,0.5-2.7,1.2-4.1,1.7
		c0,0.1,0.1,0.2,0.1,0.3c0.5-0.1,1.1-0.2,1.5-0.4c5.3-2.5,10.9-3.1,16.7-2.2c6.1,1,11.3,3.9,15.5,8.3c4.8,5,7.2,10.9,7.6,17.9
		c0,0.9-0.1,1.8,0.1,2.6c0.5,1.3,1.3,2.5,2.1,3.7c0.1,0.1,0.3,0.1,0.4,0.1c1.1,0,2.2-0.1,3.1-0.1C188.2,81.8,188.4,81.7,188.6,81.7z
		 M119.3,71.7c0,0-0.1,0-0.1-0.1c-0.2,0.9-0.6,1.8-0.6,2.7c-0.1,3.1,0,6.3,0.5,9.3c1,4.9,2.8,9.3,5.6,13.3c0.1,0.2,0.4,0.2,0.6,0.4
		c0-0.1,0.1-0.1,0.1-0.2c-0.3-0.4-0.5-1-0.9-1.4c-2.4-3.6-4-7.6-4.9-11.8c-0.1-0.5,0-0.8,0.5-1.1c1.5-1.1,3.2-1.4,5.1-1.3
		c0.3,0,0.6,0,1,0c1.1,0,2.1,0,3.1,0c2.2,0,4.4,0,6.6,0c0.1-0.6-0.3-0.5-0.6-0.5c-2.5,0-5,0.1-7.5,0.1c-1.3,0-2.6-0.1-3.8-0.1
		c-1.3,0.1-2.3-0.3-3.1-1.3c-0.4-0.4-1-0.9-1.4-1.3c-0.2-0.3-0.4-0.8-0.4-1.1C119.1,75.6,119.2,73.7,119.3,71.7z M131.9,44.1
		c0.5,0.4,0.9,0,1.2-0.2c2.7-1.8,5.7-3.2,8.9-4.1s6.4-1.5,9.5-2.1c1.1-0.2,2.2,0,3.2,0.1c2.1,0.2,4.2,0.3,6.3,0.6
		c4.1,0.5,8,2.1,11.7,4c2.8,1.5,5.3,3.4,7.7,5.4c0.1,0.1,0.4,0.1,0.6,0.2C167.2,34.7,145.7,33.8,131.9,44.1z M165.1,105.8
		c0,0.1,0.1,0.2,0.1,0.3c0.5-0.2,1.1-0.3,1.6-0.6c5.6-2.5,10.1-6.4,13.5-11.5c0.8-1.2,1.6-2.4,2.6-3.5c1-1,2.1-1.8,3.2-2.7
		c0.4-0.3,1-0.5,1.4-0.5c1.5-0.1,3,0,4.7,0c2.6,0,5.2,0,7.9,0c0,0,0,0.1,0,0.2c-0.3,0.1-0.6,0.1-1,0.2c1.3,0,2.7,0,4,0l0,0
		c-0.2,0-0.4-0.1-0.8-0.1c0.6-0.1,1.3-0.1,1.9-0.1c0.5,0,0.6-0.1,0.5-0.8c-0.1,0-0.2,0-0.3,0c-3,0.1-6.1,0.2-9,0.3
		c-1.4,0-2.8,0-4.1,0c-1,0-1.8,0.2-2.8,0c-1.5-0.3-3-0.5-4.2,0.9c-0.4,0.4-1,0.8-1.4,1.2c-0.6,0.5-1.3,1.1-1.7,1.8
		c-1.6,2.9-3.5,5.6-6,7.9c-2.7,2.6-5.7,4.7-9.2,6.2C166,105.2,165.5,105.6,165.1,105.8z M175.1,110.4c0-0.1,0-0.1-0.1-0.2
		c-0.2,0-0.4,0.1-0.6,0.1c-1.7,0.9-3.5,1.8-5.3,2.7c-3.4,1.5-6.8,2.4-10.4,2.7c-2.7,0.2-5.4,0.1-8.1,0c-2.7-0.1-5.4-0.8-8-1.5
		c-5.5-1.6-10.4-4.5-14.6-8.3c-0.2-0.2-0.5-0.2-0.8-0.3C140,118.7,161.3,119.7,175.1,110.4z M204.8,88.2c-0.2,0-0.5,0-0.8,0
		c-5.2,0-10.5,0-15.7,0c-1,0-1.6,0.3-2.3,0.9c-0.6,0.6-1.4,1.2-2.1,1.8c-0.8,0.8-1.6,1.6-2.3,2.6c-2.1,3.2-4.4,6.2-7.5,8.5
		c-1.7,1.3-3.5,2.5-5.4,3.8c0.4-0.1,0.8,0,1-0.1c4.3-2.4,7.9-5.5,10.8-9.5c0.9-1.2,1.7-2.4,2.8-3.5c1.2-1.2,2.5-2.2,3.7-3.2
		c0.4-0.3,1-0.5,1.4-0.5c2.3,0,4.7,0,6.9,0c2.9,0,5.7,0,8.7,0C204.6,88.8,205,88.9,204.8,88.2z M169.7,107c0.1,0.1,0.1,0.1,0.2,0.2
		c4.5-2.4,8.4-5.5,11.6-9.7c1.1-1.5,2.3-3,3.8-4.2c0.9-0.6,1.6-1.3,2.4-2.1c0.8-0.8,1.6-1.1,2.6-1.1c4.5,0.1,9.1,0.1,13.6,0.1
		c0.5,0,1,0,0.6-0.6c-4.9,0-9.6,0-14.4,0c-1.5,0-2.7,0.2-3.8,1.4c-1.2,1.3-2.6,2.4-3.7,3.7c-1.4,1.6-2.6,3.5-4,5.1
		c-2.4,2.7-5.2,4.8-8.3,6.6C170.1,106.4,169.9,106.8,169.7,107z M174.4,109c-0.1,0-0.1-0.1-0.2-0.1c-7.2,4.4-15.3,6.4-23.7,5.6
		s-15.9-4.2-22.4-10c0,0.3,0,0.6,0.2,0.8c0.3,0.3,0.6,0.5,1,0.9c3.7,3.1,7.8,5.5,12.4,7c3.4,1.1,6.8,1.7,10.3,1.9
		c3.4,0.2,6.6-0.1,9.8-0.8c4-0.9,7.9-2.3,11.5-4.4C173.8,109.7,174.1,109.4,174.4,109z M126.9,101.5c0,0.1-0.1,0.2-0.1,0.2
		c6.5,7.2,14.6,11.1,24.2,12c6.7,0.5,13.1-0.4,19.2-3.7c-0.3-0.1-0.6-0.1-1,0c-4.4,2.1-9.1,3-14,3.2c-3,0.2-6-0.2-8.9-0.9
		c-6.8-1.5-12.9-4.7-17.9-9.6c-0.3-0.3-0.6-0.6-1.1-1C127.3,101.6,127.1,101.5,126.9,101.5z M173.3,106.9c0.4-0.3,0.9-0.6,1.2-0.9
		c2.6-1.8,5-3.9,6.9-6.4c1.2-1.4,2.4-2.7,3.7-4c1.2-1.2,2.6-2.3,3.9-3.4c0.4-0.3,1.2-0.6,1.8-0.6c3,0,6.1,0,9.1,0.1
		c1.2,0,2.5,0,3.7-0.1c0.2,0,0.3-0.2,0.5-0.3c-0.2-0.1-0.4-0.2-0.6-0.3c-0.1,0-0.1,0-0.2,0c-3.8,0-7.7,0.1-11.5,0
		c-1.9-0.1-3.5,0.3-4.9,1.8c-1.3,1.4-2.9,2.4-4,3.9c-2.8,3.9-6.2,7.2-10.3,9.8C173,106.5,173.1,106.8,173.3,106.9z M181.3,56.8
		c0.1-0.1,0.1-0.2,0.2-0.2c-0.5-0.8-1.1-1.4-1.6-2.1c-4.1-4.4-8.9-7.9-14.6-9.8c-3.2-1.1-6.6-1.7-10.1-1.8c-1.1,0-2.3,0.2-3.4,0.3
		c-0.5,0-1.1-0.2-1.6-0.1c-1.2,0.1-2.4,0.3-3.5,0.6c-1.9,0.5-3.8,1.1-5.6,1.6c0,0.1,0,0.3,0.1,0.4c0.3,0,0.6,0,0.9-0.1
		c2.7-1,5.4-1.7,8.2-2.1c2.9-0.3,5.7-0.3,8.7,0.1c3.5,0.5,6.7,1.5,9.7,3c4.8,2.3,8.9,5.5,12.1,9.7C180.9,56.6,181.1,56.7,181.3,56.8
		z M182.7,51.9c0,0.1-0.1,0.1-0.1,0.2c0.4,0.4,0.8,0.9,1.2,1.4c3,4,5.3,8.3,6.6,13.1c0.3,1.1,0.9,1.9,1.5,2.8
		c0.5,0.8,1.1,1.5,1.7,2.2c0.3,0.3,0.9,0.5,1.3,0.6c0.6,0.1,1.3-0.1,2.1-0.1c2.7,0,5.3,0.1,8,0.1c0.3,0,0.6-0.2,0.9-0.3
		c-0.3-0.1-0.5-0.4-0.9-0.4c-3,0-6.1,0-9.2,0c-0.5,0-1-0.1-1.3-0.5c-0.8-1-1.7-1.9-2.4-2.9c-0.5-0.8-1.2-1.6-1.5-2.6
		c-1.5-4.9-4-9.1-7.2-13C183.4,52.1,183,52,182.7,51.9z M141.5,46.9c0.1,0.1,0.1,0.1,0.2,0.2c6.8-2.6,13.8-3.2,21-1.2
		c7.1,1.9,12.9,6.1,17.4,11.9c0-0.3,0.1-0.6-0.1-0.8c-1.2-1.3-2.3-2.8-3.6-4c-3-2.8-6.5-5.1-10.4-6.6c-3.1-1.3-6.5-2.2-9.8-2.3
		c-2.4-0.1-4.9,0-7.2,0.3c-2.3,0.3-4.5,1.2-6.8,1.8C142,46.5,141.7,46.7,141.5,46.9z M206.2,73.1c-0.1-0.1-0.1-0.1-0.2-0.2
		c-3.8,0-7.7,0-11.5,0c-0.3,0-0.9-0.2-1.1-0.5c-1-1.1-1.8-2.2-2.6-3.2c-0.3-0.4-0.8-1-0.9-1.6c-0.9-3.6-2.4-6.8-4.3-10
		c-0.4-0.8-1-1.5-1.5-2.3c-0.1,0-0.2,0.1-0.3,0.1c0.1,0.3,0.2,0.6,0.3,1c2.3,3.2,3.9,6.8,5,10.7c0.3,1.1,0.6,2.3,1.2,3.2
		c0.5,1,1.3,1.7,2.1,2.6c0.2,0.3,0.6,0.5,1,0.6c4.1,0,8.2,0,12.3,0C205.8,73.4,206,73.2,206.2,73.1z M146.2,48.2
		c0,0.1,0.1,0.2,0.1,0.3c6.4-1.6,12.7-1.4,18.8,1.1c6.1,2.5,10.8,6.6,14.3,12.3c0.1-0.1,0.2-0.1,0.3-0.2c-0.2-0.4-0.3-1-0.5-1.3
		c-1.9-3-4.4-5.5-7.4-7.7c-4.3-3.1-9.2-5-14.4-5.7c-3.5-0.4-6.9-0.1-10.3,0.6C146.8,47.8,146.5,48,146.2,48.2z M182.5,60.8
		c-0.1,0.1-0.2,0.1-0.2,0.2c0.1,0.3,0.2,0.5,0.3,0.9c1.6,3.2,2.8,6.7,3.4,10.3c0.1,0.8,0.3,1.5,0.6,2.2c0.5,1,1.2,1.9,1.9,2.8
		c0.2,0.2,0.6,0.5,1,0.5c2.9,0,5.7,0,8.7,0c0.2,0,0.4-0.1,0.6-0.1c0.3-0.1,0.6-0.2,1-0.3c1.9-0.3,3.8,0.4,5.6,0.6
		c0.8,0.1,1-0.1,0.9-0.8c-0.3,0-0.5,0-0.9,0c-4.9,0-9.6,0-14.5,0c-0.6,0-1.1-0.2-1.4-0.8c-0.6-0.9-1.3-1.7-1.8-2.6
		c-0.4-0.6-0.8-1.3-1-2.1c-0.2-0.8-0.3-1.6-0.5-2.4c-0.6-2.7-1.6-5.3-3-7.8C182.9,61.2,182.6,61,182.5,60.8z M206.4,76.4
		c-0.2-0.3-0.3-0.8-0.4-0.8c-0.9,0-1.7-0.1-2.5,0.1c-0.5,0.2-1,0.4-1.6,0.4c-0.8,0-1.6,0-2.4,0c-0.2,0-0.4-0.1-0.6-0.2
		c-0.4-0.1-0.8-0.4-1.2-0.4c-1.6,0-3.4,0.1-5,0.1c-0.9,0-1.5-0.2-2.1-1c-0.6-1-1.4-1.7-2.1-2.6c-0.3-0.4-0.6-1.1-0.8-1.6
		c-0.4-1.4-0.8-2.8-1.1-4.2c-0.6-2.2-1.5-4.3-2.9-6.2c-0.1,0.3-0.1,0.6,0,1c1.5,2.9,2.7,6.1,3.2,9.4c0.2,1,0.5,1.9,1.1,2.8
		c0.4,0.8,1.1,1.4,1.5,2.2c0.4,0.6,1,1,1.8,1c2.1,0,4.2,0,6.3,0C200.5,76.4,203.3,76.4,206.4,76.4z M197.9,47.6
		c7.2,10.9,9.7,22.9,8.3,35.8c-1.4,13.1-7.5,23.8-17.1,32.7c6.1-5.3,10.8-11.6,14-19c4.5-10.9,5.1-22.2,2.3-33.5
		C203.8,57.6,201.4,52.3,197.9,47.6z M188,77.2c-0.3-0.2-0.5-0.3-0.6-0.5c-0.5-0.8-1.1-1.5-1.6-2.3c-0.2-0.3-0.3-0.6-0.3-1.1
		c-0.2-1-0.2-2.1-0.5-3c-0.5-2.1-1.2-4-1.8-6c-0.1,0-0.2,0-0.4,0.1c0,0.3,0,0.6,0.1,1c0.9,2.6,1.7,5.2,1.9,7.9
		c0.1,0.8,0.1,1.5,0.4,2.2c0.5,1.1,1.3,2.1,1.9,3c0.2,0.2,0.5,0.4,0.9,0.4c1.4,0.1,2.8,0.1,4.1,0.1c1.1,0,2.2,0.1,3.2,0.1
		c1.2,0,2.4-0.2,3.6-0.2c2.4,0,4.8,0,7,0c0-0.1,0.1-0.1,0.1-0.2c-0.2-0.1-0.3-0.4-0.5-0.3c-0.9,0.1-1.7,0-2.7,0.3
		c-1.2,0.4-2.6,0.1-4,0.1c-0.1,0-0.1-0.1-0.2-0.1c-0.3-0.1-0.6-0.3-1-0.3c-2.9,0-6,0-8.9,0C188.4,78.4,187.9,77.9,188,77.2z
		 M179.8,67.9c-2.8-7.7-8.1-13.2-15.7-16.3c-7.2-3-15.8-2.1-20.1,0.3c4.7-1.1,9.4-2.2,14.3-1.3c4.9,0.9,9.3,2.7,13,6
		C174.8,59.7,177.9,63.5,179.8,67.9z M129.1,56c-0.1,0-0.1-0.1-0.2-0.1c-1.9,2.4-3.6,4.9-4.8,7.7c-1.5,3.4-2.4,6.9-2.7,10.6
		c-0.2,2.2-0.2,2.2,1.4,3.7c0.2,0.2,0.4,0.4,0.6,0.6c0.4,0.2,0.9,0.5,1.3,0.5c1.8,0,3.7-0.1,5.5-0.1c1.7,0,3.5,0.1,5.2,0.1
		c0.2,0,0.4-0.2,0.6-0.3c-0.2-0.1-0.5-0.3-0.8-0.3c-0.4,0-1,0.1-1.4,0.1c-2.8,0-5.7-0.1-8.5-0.2c-0.3,0-0.6-0.2-0.9-0.3
		c-0.6-0.6-1.3-1.2-1.9-1.9c-0.3-0.4-0.6-1-0.6-1.4c0-1.3,0.2-2.5,0.4-3.8c1-5.1,3-9.6,6.3-13.7C128.9,56.9,129,56.4,129.1,56z
		 M169.4,108.8c0-0.1-0.1-0.2-0.1-0.3c-0.2,0.1-0.5,0.1-0.8,0.2c-4,1.9-8.2,2.8-12.7,3.1c-3.2,0.2-6.6-0.1-9.7-0.9
		c-4.7-1.1-8.9-3-12.8-5.8c-0.3-0.2-0.6-0.2-1.1-0.4c0,0.1,0,0.1-0.1,0.2c5.3,4.1,11.4,6.6,18.1,7.2
		C157,112.9,163.4,111.8,169.4,108.8z M182.7,56.2c-0.1,0.1-0.1,0.1-0.2,0.2c0.2,0.3,0.4,0.8,0.6,1.2c2.2,3.2,3.8,6.8,4.8,10.6
		c0.3,1.2,0.5,2.4,1.1,3.4c0.5,1.1,1.4,2.1,2.3,3c0.2,0.2,0.5,0.3,0.8,0.4c1.9,0,4,0,6,0c0.2,0,0.4-0.1,0.6-0.1
		c0.4-0.1,0.9-0.3,1.2-0.3c0.9,0,1.7,0,2.6,0c0.2,0,0.4,0,0.6,0.1c1,0.8,2.1,0.2,3,0.4c0.2-0.8-0.2-0.6-0.5-0.6c-4,0-8,0-12,0
		c-0.5,0-1-0.1-1.3-0.6c-0.9-1.1-1.7-2.2-2.6-3.2c-0.3-0.3-0.5-0.8-0.6-1.2c-0.3-1.2-0.6-2.4-1-3.6c-1.1-3.2-2.6-6.3-4.5-9.1
		C183.2,56.4,183,56.3,182.7,56.2z M180.6,61c0.6-0.2,0.2-0.5,0.1-0.9c-1.7-2.7-3.8-5-6.2-7.1c-2.4-2.1-4.9-3.7-7.8-4.9
		c-3.4-1.4-6.9-2.3-10.5-2.6c-2.5-0.2-4.9,0-7.2,0.3c-1,0.1-1.9,0.4-2.9,0.6c0,0.1,0,0.2,0,0.3c0.3,0,0.6,0.2,0.9,0.1
		c3.7-0.9,7.2-1.2,11-0.6c3.1,0.4,6.2,1.2,9,2.5C172.7,51.5,177.1,55.6,180.6,61z M128.1,80.1c0-0.1-0.1-0.2-0.1-0.3
		c-0.8,0-1.5-0.1-2.3,0c-1.6,0.2-2.7-0.3-3.9-1.5c-1-1.1-1.6-1.8-1.4-3.5c0.3-2.3,0.5-4.7,1.1-6.9c1.4-4.9,3.7-9.1,6.9-13
		c0.3-0.3,0.4-0.8,0.5-1.2c-0.1,0-0.1-0.1-0.2-0.1c-0.3,0.3-0.5,0.5-0.9,0.9c-3,3.6-5.4,7.7-6.7,12.2c-0.6,2.4-1,4.9-1.5,7.2
		c-0.1,0.9-0.1,1.7-0.2,2.6c0,1.2,2.3,3.7,3.5,3.8c1.4,0,2.8,0,4.1-0.1C127.7,80.5,127.9,80.3,128.1,80.1z M124.2,103.1
		c0.2-0.6,0.2-0.6-0.4-1.5c-5.7-7.1-8.5-15.3-8.9-24.5c0-1.7,0-3.5,0-5.2c-1.1,4.2-0.5,8.4,0.2,12.7
		C116.3,91.5,119.5,97.7,124.2,103.1z M116.4,71.3c0,0.3-0.1,0.6-0.1,1c-0.2,1-0.5,1.8-0.5,2.8c-0.2,3.2,0.1,6.5,0.9,9.7
		c1.3,6.2,3.9,11.7,8,16.6c0.2,0.2,0.6,0.4,1,0.5c0.1-0.1,0.1-0.1,0.2-0.2C118.2,92.9,115.3,82.7,116.4,71.3z M164.6,104.4
		c0.4,0.6,0.9,0.2,1.2,0.1c6.4-2.8,11.4-7.1,14.7-13.3c0.3-0.6,0.8-1.3,1.2-1.7c1.1-1,2.3-1.9,3.5-2.8c0.4-0.3,1-0.5,1.5-0.6
		c0.5-0.1,1.2-0.1,1.8-0.2c-0.6-0.2-1.3-0.2-1.9-0.3c-1-0.1-1.8,0.1-2.5,0.8c-0.5,0.4-1,1-1.5,1.4c-0.5,0.5-1.2,1-1.5,1.5
		c-0.9,1.3-1.6,2.7-2.5,4.1c-1.5,2.6-3.6,4.8-6,6.6C170.2,101.8,167.5,103.3,164.6,104.4z M118.5,38.3c9.1-8.3,19.7-13,32-13.7
		c12.2-0.8,23.5,1.9,33.6,9.1C165.5,19.7,135.2,21.1,118.5,38.3z M181.2,52.3c0-0.1,0.1-0.1,0.1-0.2c0-0.1,0-0.2-0.1-0.3
		c-0.8-0.9-1.5-1.7-2.4-2.5c-1.4-1.1-2.8-2.2-4.3-3.1c-5.5-3.8-11.7-5.8-18.5-6.2c-0.8,0-1.6,0-2.4,0c0,0.1,0,0.2,0,0.3
		c0.2,0.1,0.4,0.1,0.6,0.2c1.9,0.2,4,0.4,6,0.6c3.5,0.4,6.6,1.6,9.7,3.1c4,1.9,7.5,4.5,10.5,7.7C180.7,52.1,181,52.2,181.2,52.3z
		 M129.4,66.2c-0.1,0-0.1,0-0.2,0c-0.1,0.1-0.2,0.2-0.2,0.4c-0.3,0.8-0.6,1.5-0.8,2.3c-0.6,2.4-1.2,1.9,0.8,3.9
		c0.1,0.1,0.1,0.2,0.2,0.3c0.3,0.2,0.8,0.5,1.2,0.5c1.7,0.1,3.4,0,5.1,0c0.2,0,0.4,0,0.8-0.1c0-0.3,0-0.6,0-0.9c0-0.2,0-0.4,0-0.9
		c-0.6,1.3-0.6,1.3-2.5,1.1c0.1-2.1,1.1-3.8,1.6-5.7c-0.2,0.1-0.4,0.2-0.5,0.4c-0.5,1.6-1.1,3.2-1.7,4.9c-0.1,0.2-0.2,0.4-0.3,0.4
		c-0.6,0-1.2,0-2.1,0c0.5-1.9,1.1-3.9,1.6-5.7c-0.2,0-0.4,0.1-0.5,0.3c-0.2,0.4-0.3,0.9-0.4,1.3c-0.3,1-0.6,1.9-1.1,2.9
		c-1.5-1-1.9-2.3-1.1-3.9c0.1-0.2,0.2-0.4,0.2-0.6C129.3,66.8,129.3,66.5,129.4,66.2z M124.1,98.5c0.1,0,0.2,0,0.2,0
		c0-0.3,0-0.6-0.2-0.9c-0.9-1.5-1.8-3-2.7-4.7c-2.5-4.7-3.7-9.7-3.8-14.9c-0.1-1.8,0-3.8,0-5.8C115.8,78.4,118.2,91,124.1,98.5z
		 M129.2,58.3c-0.1,0-0.2-0.1-0.4-0.1c-1.1,1.9-2.3,3.8-3.2,5.8c-1.5,2.9-2.3,6.2-2.7,9.4c-0.1,0.6-0.2,1.4,0,1.9
		c0.5,0.9,1.5,1.6,2.3,2.4c0.1,0.1,0.2,0.1,0.3,0.1c1.6,0,3.4,0,5,0c0-0.1,0.1-0.2,0.1-0.2c-0.2-0.1-0.4-0.3-0.6-0.3
		c-0.9,0-1.7,0-2.6,0c-0.6,0-1.1-0.1-1.5-0.5c-0.4-0.5-1-1.1-1.5-1.6c-0.6-0.5-0.9-1.2-0.8-1.9c0.1-0.8,0.2-1.5,0.3-2.3
		c0.9-4.1,2.5-7.9,4.9-11.5C129,59,129,58.6,129.2,58.3z M188.9,79.9c0,2.2,0,4.3,0,6.5c0,0.4,0.2,0.5,0.5,0.5c1.8,0,3.8,0,5.6,0
		c0.5,0,0.8-0.2,0.8-0.8c0-1.5,0-3,0-4.7c0-0.5-0.1-1.1-0.1-1.6C193.5,79.9,191.2,79.9,188.9,79.9z M136,76.1c0-0.1,0-0.2,0-0.3
		c-0.2,0-0.4-0.1-0.6-0.1c-1.8,0-3.7-0.1-5.6,0c-1.4,0.1-2.6-0.1-3.4-1.4c-0.2-0.3-0.4-0.6-0.8-0.9c-0.6-0.5-0.6-1.3-0.4-2.1
		c0.6-3.4,1.8-6.6,3.7-9.5c0.2-0.3,0.2-0.8,0.3-1.2c-0.1,0-0.1,0-0.2-0.1c-0.3,0.5-0.6,1.1-1,1.6c-1.8,3.2-2.9,6.7-3.6,10.4
		c-0.2,1,0.1,1.6,0.8,2.2c0.6,0.5,1.3,1.1,1.9,1.6c0,0,0.1,0,0.2,0c0.5,0,1.2-0.1,1.7-0.1c2.1,0,4.1,0,6.2,0
		C135.5,76.2,135.8,76.1,136,76.1z M180.1,53.3c0.4-0.4-0.1-0.6-0.3-1c-3.9-3.9-8.3-6.9-13.5-8.9c-2.8-1.1-5.8-1.7-8.9-2.1
		c-1-0.1-1.9-0.1-3-0.2c0,0.1-0.1,0.2-0.1,0.3c0.2,0.1,0.4,0.3,0.6,0.3c1.7,0.2,3.5,0.2,5.1,0.5c5.6,1,10.7,3.1,15.1,6.6
		C176.9,50.4,178.5,51.9,180.1,53.3z M122.4,85.3c0.6,2.5,1.6,4.9,2.8,7.1c0.1,0.2,0.4,0.3,0.6,0.4l0.1-0.1
		c-0.9-2.2-1.8-4.3-2.7-6.5c1.6-1.1,3-1.7,5-1.6c2.4,0.1,4.8,0,7.1,0c0.4,0,0.8,0,0.6-0.6c-0.3,0-0.5,0-0.9,0c-2.8,0-5.6,0.1-8.4,0
		C125.1,83.9,123.7,84.1,122.4,85.3z M179.9,49.1c0,0,0.1-0.1,0.2-0.1c-0.1-0.2-0.3-0.5-0.4-0.6c-1.2-1-2.4-1.9-3.7-2.9
		c-2.9-2.2-6.3-3.8-9.7-4.9c-2.6-0.8-5.3-1.3-7.9-1.8c-1.3-0.2-2.6-0.2-3.8-0.2c0,0.1-0.1,0.2-0.1,0.3c0.3,0.1,0.6,0.2,1,0.3
		c1.6,0.2,3.2,0.3,4.9,0.5c5.3,0.8,10.2,2.7,14.7,5.6C176.6,46.5,178.2,47.9,179.9,49.1z M181.3,65.1c0,0.2-0.1,0.3,0,0.3
		c1.4,3.5,2.2,7,2.3,10.8c0,0.3,0.2,0.6,0.3,0.9c0.6,1,1.2,1.9,1.8,2.9c0.1,0.2,0.5,0.4,0.8,0.4c0.8,0,1.4-0.1,2.1-0.2
		c0-0.1,0-0.1,0.1-0.2c-0.2-0.1-0.4-0.2-0.6-0.2c-0.6,0-1-0.2-1.3-0.8c-0.5-1-1.2-1.8-1.7-2.7c-0.3-0.5-0.5-1.1-0.6-1.6
		c-0.2-0.9-0.1-1.8-0.3-2.7c-0.5-2.2-1.2-4.3-1.8-6.4C181.9,65.4,181.6,65.3,181.3,65.1z M136.1,74.6c0-0.1,0-0.2-0.1-0.3
		c-0.1,0-0.3-0.1-0.4-0.1c-1.5,0-3-0.1-4.4,0c-1.3,0.1-2.4-0.1-3.1-1.4c-0.2-0.3-0.5-0.6-0.8-0.9c-0.4-0.4-0.6-1-0.4-1.6
		c0.6-1.7,1.3-3.6,1.8-5.3c0.2-0.5,0.3-1.1,0.4-1.6c-0.1,0-0.1,0-0.2,0c-1.5,2.6-2.5,5.7-3,8.4c0,0.2,0,0.5,0.2,0.8
		c0.5,0.6,1.2,1.3,1.7,1.9c0.2,0.2,0.6,0.3,0.9,0.3c2.3,0,4.4,0,6.7,0C135.7,75,135.9,74.7,136.1,74.6z M136,87.4
		c0-0.1,0.1-0.2,0.1-0.3c-0.2-0.1-0.5-0.2-0.8-0.2c-1.8,0-3.7,0.1-5.5,0c-1.4-0.1-2.5,0.4-3.4,1.1c0.5,0.9,1.1,1.7,1.6,2.6
		c0.9-0.8,1.8-1.5,2.7-2.4c0.5-0.4,1.1-0.8,1.7-0.8C133.7,87.4,134.8,87.4,136,87.4z M166.1,108.8c0-0.1,0-0.2,0-0.2
		c-0.2,0-0.5,0-0.8,0c-2.7,0.6-5.4,1.4-8.2,1.6c-3.5,0.3-6.8,0.1-10.3-0.6c-1.4-0.3-2.7-0.9-4.2-0.6
		C150.5,111.7,158.3,111.7,166.1,108.8z M133.8,48.1c-0.2,0-0.5-0.1-0.6,0c-1.5,1.2-3,2.4-4.3,3.8c-3.4,3.6-6.3,7.5-7.7,12.2
		c-0.1,0.2,0,0.5-0.1,0.9c1.4-3.2,3-6.4,5.2-9.2C128.4,52.9,131,50.5,133.8,48.1z M132.7,45.4c0.1,0.1,0.1,0.1,0.2,0.2
		c5.4-3.7,11.5-5.7,18.1-6.4c0-0.1,0-0.3-0.1-0.4c-0.4,0-0.8-0.1-1.2-0.1c-1.2,0.2-2.4,0.3-3.5,0.5c-4.7,1-9,2.7-12.9,5.3
		C133.1,44.9,132.9,45.2,132.7,45.4z M133,46.8c-0.1,0-0.1-0.1-0.2-0.1c-5.8,4.2-10.1,9.6-12.8,16.2c0.3-0.3,0.6-0.5,0.9-1
		c1.8-4.2,4.7-7.9,7.9-11.3c1.1-1.1,2.4-2.1,3.7-3.1C132.7,47.5,132.8,47.1,133,46.8z M165.4,107.3c0-0.1-0.1-0.2-0.1-0.3
		c-3,1.1-6.1,1.8-9.3,1.9c-1.8,0.1-3.7,0.1-5.5-0.1c-2.1-0.2-4-0.8-6-1.2c-0.2,0-0.3,0-0.5,0.1c0.1,0.1,0.2,0.3,0.4,0.4
		c1.5,0.3,3,0.9,4.5,1.1c2.8,0.4,5.6,0.5,8.3,0.2c2.2-0.3,4.2-0.8,6.4-1.3C164.4,108,164.9,107.6,165.4,107.3z M124.4,93.9
		c0.4-0.6,0-1.2-0.2-1.6c-0.9-2.2-1.7-4.4-2.6-6.6c-0.2-0.5-0.1-0.9,0.4-1.1c1.2-0.5,2.3-1.5,3.8-1.2c-0.2-1.2-3.1-0.9-5.2,0.6
		C121.3,87.4,122.5,90.6,124.4,93.9z M117.4,62.4c0.3-0.5,0.6-1.1,0.9-1.6c1.3-2.7,2.7-5.3,4.7-7.6c1.7-2.1,3.6-3.9,5.3-5.8
		c0.2-0.2,0.3-0.4,0.4-0.8C125.3,48.2,117.9,58.4,117.4,62.4z M188.4,84.5c0-0.1,0-0.1,0-0.2c-0.2,0-0.3-0.1-0.5-0.1
		c-0.9,0.1-1.8,0.5-2.7,0.3c-1.5-0.4-2.5,0.4-3.4,1.3c-0.3,0.3-0.6,0.5-1,0.9c-0.3,0.4-0.8,0.9-1,1.4c-1.1,1.9-2.1,4-3.2,6
		c-1,1.5-2.3,2.8-3.5,4.2c0.1-0.1,0.2-0.1,0.3-0.2c2.8-2.6,5.1-5.6,6.7-9.1c0.2-0.4,0.5-0.9,0.9-1.1c1-0.9,1.9-1.7,3-2.5
		c0.4-0.3,1-0.4,1.5-0.5C186.4,84.6,187.4,84.6,188.4,84.5z M113.6,65.1c0.9-0.5,1.7-0.9,2.7-0.4c0.6,0.3,1.3,0.3,2.1,0.5
		c0.3,0.1,0.6,0.2,1.1,0.3c0.5,0.1,0.6,0.4,0.6,0.9c-0.1,0.9-0.3,1.7-0.5,2.5c-0.1,0.2-0.2,0.4-0.4,0.5c-0.8,0.4-1.4,0.9-2.3,1.4
		c0.6,0.2,1.3,0.4,1.9,0.5c0.1,0,0.4-0.1,0.4-0.3c0.4-1.7,0.9-3.6,1.3-5.3c0.2-0.9,0-1.1-0.9-1.2c-0.5-0.1-1.2-0.1-1.7-0.2
		c-1.2-0.3-2.4-0.8-3.7-1.1C113.9,63.9,113.7,64.5,113.6,65.1z M125,88.8c0.1,0,0.1,0,0.2,0c0.1-0.3,0.1-0.5,0.2-0.9
		c0-0.2,0.1-0.4,0.2-0.5c1.3-0.8,2.6-1.6,4.2-1.5c1.9,0.1,3.8,0,5.7,0c0.2,0,0.3-0.1,0.5-0.2c-0.1-0.1-0.3-0.3-0.4-0.3
		c-3,0-6-0.1-9,0c-0.8,0-1.6,0.5-2.3,1.1c-0.2,0.2,0.2,1.1,0.4,1.7C124.9,88.4,124.9,88.6,125,88.8z M129.8,48
		c-2.2-0.6-11.3,11.8-11.3,15C121.5,57.3,124.8,52,129.8,48z M188.5,83.2c0-0.1,0-0.3,0-0.4c-1.3-0.1-2.6-0.2-3.8-0.1
		c-0.6,0-1-0.2-1.3-0.8c-0.5-0.9-1.1-1.7-1.6-2.7c-0.3,2.3-0.6,4.3-1,6.5c1-0.8,1.8-1.5,2.6-2.3c0.4-0.4,0.9-0.8,1.5-0.6
		c0.6,0.1,1.2,0,1.8,0.1C187.3,82.8,187.8,83.1,188.5,83.2z M136.3,44.4c0,0.1,0,0.2,0,0.3c0.3,0,0.6,0,0.9-0.1
		c3.8-1.9,7.8-3.1,11.9-3.7c0.8-0.1,1.5-0.3,2.2-0.5c0-0.1-0.1-0.2-0.1-0.3C146,40.3,141,42,136.3,44.4z M150.9,41.6
		c-0.1-0.1-0.2-0.2-0.2-0.3c-2.4,0.5-4.8,0.9-7,1.6c-2.1,0.6-4,1.6-6,2.4c-0.3,0.1-0.4,0.4-0.8,0.8c0.1,0.1,0.1,0.1,0.2,0.2
		c0.4-0.2,0.9-0.4,1.3-0.5c2.3-0.9,4.4-1.8,6.7-2.6c1.7-0.5,3.5-0.8,5.3-1.1C150.6,42.1,150.7,41.7,150.9,41.6z M139.9,104.7
		c0,0.1,0,0.2-0.1,0.3c1.1,0.3,2.3,0.6,3.4,1c1.1,0.4,2.2,1,3.4,1.3c1.2,0.3,2.4,0.5,3.6,0.6c1.2,0.1,2.3,0.1,3.5,0.2
		c0-0.1,0-0.2,0-0.2c-1-0.1-2.1-0.3-3-0.4c-3.1-0.5-6.3-1.2-9.2-2.6C140.9,104.7,140.4,104.7,139.9,104.7z M182.5,99.6
		c-1.3,1.3-2.4,2.6-3.7,3.8c-1.4,1.3-3,2.5-4.5,3.7c-0.3,0.2-0.5,0.5-0.8,0.9c0.1,0.1,0.1,0.1,0.2,0.2c0.2-0.1,0.6-0.1,0.8-0.2
		c1.4-1.1,2.8-2.2,4-3.4C179.9,103.1,181.8,101.9,182.5,99.6z M205.9,82.7c-3.2,0-6.4,0-9.6,0c0.8,0.5,6.7,0.8,9.5,0.4
		C205.8,83,205.9,82.8,205.9,82.7z M178.4,108.1c3.2-2.3,5.8-5,7.9-8.1c-0.2,0-0.3,0-0.3,0c-0.9,1-1.6,1.9-2.5,2.8
		c-1.6,1.6-3.2,3.1-4.9,4.7C178.4,107.5,178.5,107.8,178.4,108.1z M196.3,84.1v0.1c0.1,0.1,0.2,0.2,0.3,0.2c2.9,0.1,5.8,0.1,8.7,0.1
		c0.2,0,0.3-0.3,0.6-0.5C202.5,84.1,199.4,84.1,196.3,84.1z M158.8,51.7c-3.4-0.9-6.7-0.9-10.2,0C152.2,51.7,155.6,51.7,158.8,51.7z
		 M205.6,85.7c0-0.1-0.1-0.1-0.1-0.2c-3,0-6.2,0-9.2,0c0,0.1,0,0.1,0,0.2c0.2,0.1,0.5,0.2,0.8,0.2c2.6,0.1,5.2,0.1,7.8,0.1
		C205,86.1,205.3,85.8,205.6,85.7z M159.9,104.8c-3.8,0-7.6,0-11.4,0C152.3,105.6,156.1,105.6,159.9,104.8z M152.6,106.9
		c0-0.1,0.1-0.2,0.1-0.3c-0.2-0.1-0.3-0.3-0.5-0.3c-2.3-0.3-4.7-0.5-6.8-1.3c-0.5-0.2-1.2-0.2-1.7-0.2c0,0.1,0,0.2,0,0.2
		c1.5,0.4,2.9,1,4.4,1.2C149.5,106.5,151,106.7,152.6,106.9z M130.5,89.4c0.9,0,1.6,0,2.4,0c0.2,0,0.4-0.1,0.6-0.2
		c0.4-0.1,0.9-0.3,1.3-0.4c0.4-0.1,0.9,0,1.5,0c-0.2-0.3-0.3-0.6-0.4-0.6C133.9,88.4,131.9,87.5,130.5,89.4z M130.9,51.6
		c0,0.1,0.1,0.2,0.1,0.3c0.3-0.1,0.6-0.1,1-0.3c1.7-1.2,3.4-2.4,5-3.6c0.2-0.1,0.2-0.4,0.3-0.6c-0.1-0.1-0.2-0.2-0.3-0.2
		C135,48.6,133,50.1,130.9,51.6z M178.5,106.8c0.3-0.4,0.4-0.8,0.8-1c1.3-1.3,2.6-2.6,4.1-4c-0.4-0.1-0.6-0.2-0.6-0.1
		c-1.6,1.7-3.2,3.6-5,5.4c-0.1,0-0.1-0.1-0.2-0.1C178,106.8,178.3,106.8,178.5,106.8z M135.4,51.6c0,0.1,0.1,0.1,0.1,0.2
		c0.3-0.1,0.8-0.1,1-0.2c1.7-1,3.4-1.9,5.1-2.9c0.2-0.1,0.2-0.4,0.3-0.6c-1.3,0.4-2.4,1-3.5,1.5C137.4,50.3,136.4,50.9,135.4,51.6z
		 M134.8,104.6c0,0.1-0.1,0.1-0.1,0.2c1.1,1.2,5.8,3.8,7.1,3.7C139.5,107.1,137.1,105.8,134.8,104.6z M136.1,82.8
		c0-0.1-0.1-0.2-0.1-0.2c-1.9,0-3.9,0-5.7,0c-0.1,0-0.3,0.2-0.4,0.3c0.1,0.1,0.3,0.3,0.4,0.3c1.7,0,3.5,0,5.2,0
		C135.7,83.2,135.9,83,136.1,82.8z M161.2,107.2c-2.2,0-4.3,0.2-6.6,0.9C157,108.3,159.2,107.8,161.2,107.2z M133.2,51.6
		c0,0.1,0.1,0.2,0.1,0.3c1.7-0.6,3.1-2.1,4.8-3.1c-0.2-0.1-0.4-0.2-0.5-0.1C136.1,49.6,134.7,50.6,133.2,51.6z M138,51.7
		c1.8-0.2,3.1-1.4,4.8-2.2C140.8,49.5,139.5,50.8,138,51.7z M160.9,106c0-0.1,0-0.2-0.1-0.3l0,0c-1.6,0.2-3.2,0.4-4.9,0.6
		c-0.1,0-0.2,0.2-0.2,0.4c0.1,0.1,0.3,0.2,0.4,0.2c0.8-0.1,1.6-0.1,2.4-0.3C159.3,106.4,160,106.2,160.9,106z M131.6,72.1
		c0.3-0.2,0.5-0.2,0.6-0.4c0.5-1.5,1-3,1.4-4.7C133,67.3,131.8,70.2,131.6,72.1z M137.1,104.7c0,0.1,0,0.1,0,0.2
		c1.5,0.8,3,1.5,4.7,2.4c0-0.2,0.1-0.5,0-0.5C140.1,105.9,138.8,104.8,137.1,104.7z M200.3,79.7c0,0.1,0,0.2,0,0.2
		c0.2,0,0.5,0,0.8,0c0.8,0,1.5-0.2,2.1,0.1c1,0.6,1.9,0.2,3,0.2c-0.1-0.2-0.3-0.4-0.5-0.5c-0.8-0.1-1.5-0.1-2.2-0.1
		C202.4,79.7,201.4,79.7,200.3,79.7z M204.2,90.5L204.2,90.5c-5-0.1-10-0.1-14.9-0.1c0,0,0,0,0,0.1
		C194.2,90.5,199.2,90.5,204.2,90.5z M132.1,80c1.3,0.8,3.7,0.6,3.9,0C134.7,80,133.4,80,132.1,80z M129,95.7
		c0.2-1.4-1.3-3.5-2.2-3.4C127.5,93.6,128.2,94.6,129,95.7z M134.3,72.1c0.9-0.4,1.8-3.1,1.5-4.1C135.4,69.3,134.8,70.6,134.3,72.1z
		 M129.1,100.2c0.1-1.2-1.6-3.4-2.5-3C127.3,98.2,128.2,99.1,129.1,100.2z M203,82c0.9,0,1.6,0,2.4,0c0.4,0,0.8-0.2,0.5-0.8
		C204.2,81,203.8,81.1,203,82z M195.3,70.9C195.3,71.1,195.3,71.1,195.3,70.9c3.4,0.1,6.6,0.1,10,0.1c0,0,0,0,0-0.1
		C202,70.9,198.7,70.9,195.3,70.9z M129.7,70.1c0.3-1.1,0.6-2.1,1-3.1C129.9,67.2,129.2,69.4,129.7,70.1z M135.7,85
		C135.7,84.9,135.7,84.9,135.7,85c-2.9-0.1-6-0.1-9-0.1c0,0,0,0,0,0.1C129.7,85,132.8,85,135.7,85z M199.4,79.9c-1,0-1.8,0-2.8,0
		c-0.1,0-0.2,0.2-0.3,0.2c0.1,0.1,0.2,0.2,0.2,0.2C197.5,80.3,198.5,80.8,199.4,79.9z M196.3,81.4c0.9,0.6,1.7,0.3,2.8,0.4
		C198.1,80.8,197.1,81.7,196.3,81.4z M128,95.8c-0.3,1.1,0.5,1.6,1,2.3C129.3,97,128.5,96.5,128,95.8z M191.5,75.2L191.5,75.2
		c2.3,0.1,4.5,0.1,6.8,0.1v-0.1C196.1,75.2,193.8,75.2,191.5,75.2z M129,93.3c0.1,0,0.2-0.1,0.3-0.1c-0.2-0.6-0.4-1.2-0.6-1.9
		C127.8,92.3,128.8,92.7,129,93.3z M128.9,101.9c0.1-0.1,0.2-0.1,0.3-0.2c-0.3-0.4-0.8-1-1.1-1.4c-0.1,0.1-0.2,0.1-0.3,0.2
		C128.2,101,128.5,101.5,128.9,101.9z M185,36.6c0,0.1-0.1,0.1-0.1,0.2c0.8,1,1.1,1.1,1.5,0.8C186,37.3,185.6,37,185,36.6z
		 M205.6,76.7C205.6,76.6,205.6,76.6,205.6,76.7c-1.4-0.1-2.9-0.1-4.3-0.1c0,0,0,0,0,0.1C202.8,76.7,204.2,76.7,205.6,76.7z
		 M189.9,78C189.9,78.1,189.9,78.1,189.9,78c1.3,0,2.6,0,3.9,0l0,0C192.5,78,191.2,78,189.9,78z M134.4,86.4
		C134.4,86.4,134.4,86.3,134.4,86.4c-1.3-0.1-2.5-0.1-3.8-0.1c0,0,0,0,0,0.1C131.8,86.4,133.1,86.4,134.4,86.4z M135.4,77.8
		c0.2-0.1,0.4-0.3,0.6-0.4c-0.2-0.1-0.5-0.2-0.8-0.2c-0.2,0-0.4,0.2-0.6,0.2C134.9,77.5,135.1,77.7,135.4,77.8z M112.6,69.1
		c-0.1,0.2-0.2,0.4-0.2,0.6c0.4,0.1,0.9,0.2,1.3,0.4c0-0.1,0.1-0.1,0.1-0.2C113.5,69.8,113.2,69.4,112.6,69.1z"/>
	<path class="st0" d="M190.2,44.3c-0.2,0-0.6,0.1-0.8-0.1c-0.5-0.5-1.1-1.3-1.6-1.8c-0.3-0.3-0.9-0.5-1.2-0.9c-0.3-0.3-0.6-0.6-1-1
		c0.3-0.5,0.6-0.9,1-1.3c0.3-0.3,0.6-0.8,1-1.1c0.3-0.3,0.5-0.4,0.9-0.1c0.4,0.3,0.8,0.8,1.2,1.1c0.2,0.2,0.3,0.4,0.5,0.8
		c-0.5,0.5-0.9,0.2-1.3-0.1c-0.2-0.2-0.4-0.9-1.1-0.3c0.4,0.4,0.9,0.9,1.2,1.4c-0.1,0.2-0.3,0.3-0.4,0.5c-0.3-0.2-0.6-0.5-1-0.6
		c-0.2-0.1-0.4-0.1-0.6-0.2c0.1,0.2,0.1,0.4,0.3,0.5c0.3,0.3,0.8,0.5,1.2,0.9c0.5-0.4,1.2-1.1,2.1-1.9c0.5,0.5,1,1.1,1.4,1.7
		c0.1,0.2,0.1,0.5,0.1,0.9c-0.2-0.1-0.5-0.1-0.8-0.2c-0.3-0.2-0.6-0.5-1-0.9c-0.1,0.2-0.2,0.3-0.2,0.3c0.3,0.4,0.6,0.9,1,1.3
		c-1,0.8-1.2-0.6-2.1-0.8c0.1,0.2,0.1,0.4,0.2,0.6C189.6,43.4,189.9,43.8,190.2,44.3L190.2,44.3z"/>
	<path class="st0" d="M178.1,34.8c0.6-0.9,1.3-1.7,1.9-2.7c0.5,0.2,1.1,0.4,1.6,0.6c0.3,0.2,0.8,0.5,1.1,0.8c0.6,0.5-0.1,1.1-0.1,1.4
		c0.3,0.4,0.6,0.6,0.9,1c0.1,0.1-0.2,0.6-0.4,0.6c-0.3,0-0.8-0.2-1.1-0.2c0-0.1,0-0.1,0-0.2c-0.2,0.3-0.5,0.6-0.9,1
		c-0.9-0.5-1.7-1.1-2.6-1.6C178.3,35.4,178.2,35,178.1,34.8L178.1,34.8z M179.3,34.9c0.5,0.3,1,0.6,1.5,1c1.3-1.8,1.3-1.6-0.5-2.5
		C179.9,33.8,179.6,34.4,179.3,34.9z"/>
	<path class="st0" d="M179.2,122.3c-0.6-1.1-1.4-2.1-2.2-3.1c1-0.6,1.8-1.1,2.7-1.6c0.1-0.1,0.4,0,0.6,0.1c-0.1,0.2-0.1,0.5-0.2,0.6
		c-0.4,0.3-1,0.5-1.4,0.9c-0.1,0.1-0.2,0.3-0.2,0.5c0.1,0,0.1,0.1,0.2,0.1c0.5-0.3,1.2-0.8,1.7-1.1c0.2-0.1,0.5,0,0.9-0.1l0,0
		c0.2,0.5,0.5,1.1,0.8,1.7c-0.1,0.2-0.3,0.4-0.4,0.5C180.8,121.4,179.9,121.9,179.2,122.3z M181,120c-1-0.2-1.8,0.4-1.6,1.1
		C179.8,120.7,180.4,120.4,181,120z"/>
	<path class="st0" d="M181.2,118.7c-0.2-0.4-0.5-1-0.9-1.5c0.9-0.6,1.7-1.2,2.6-1.7c0.1-0.1,0.4,0.1,0.6,0.2c-0.3,1.1-1.6,1.1-1.7,2.2
		c0.6-0.4,1.3-0.9,1.9-1.2c0.2-0.1,0.4,0,0.6,0l0,0c0.2,0.3,0.3,0.8,0.6,1.1c0.3,0.4,0.3,0.6,0,1.1c-0.6,0.4-1.4,1-2.1,1.4
		c-0.4,0.3-0.8,0.1-1-0.3C181.8,119.2,181.4,119,181.2,118.7L181.2,118.7z M182.3,118.7c0.9,0.3,1.2-0.3,1.6-0.5c0.1,0,0-0.3,0-0.6
		C183.4,117.9,183,118.2,182.3,118.7z"/>
	<path class="st0" d="M186.6,113c-0.5,0.5-1.1,1.1-1.5,1.6c-0.1,0.2-0.2,0.4-0.3,0.5c0.1,0,0.1,0.1,0.2,0.1c0.8-0.5,1.4-1.1,2.2-1.6
		c0.4,0.5,0.9,1.1,1.3,1.6c-0.3,0.3-0.6,0.6-0.9,1c-0.5,0.4-1.2,1-1.7,1.4c-0.5-0.4-1-1-1.5-1.4l0,0c-0.3-0.5-0.6-1-1-1.5
		c0.9-0.8,1.7-1.4,2.6-2.2C186.3,112.9,186.5,113,186.6,113L186.6,113z M185.7,116.2c0,0.1,0.1,0.2,0.1,0.3c0.3-0.2,0.6-0.3,1-0.5
		c0.2-0.1,0.3-0.4,0.4-0.6c-0.1-0.1-0.1-0.1-0.2-0.2C186.5,115.4,186.1,115.8,185.7,116.2z"/>
	<path class="st0" d="M122.7,115c0.3-0.2,0.5-0.5,1.1-1c0,0.5,0.1,0.9,0,1.1c-0.2,0.4-0.6,0.8-0.9,1.2c-0.1,0.2-0.1,0.4-0.2,0.6
		c0.1,0,0.2,0.1,0.2,0.1c0.3-0.4,0.6-0.9,1-1.3c0.1-0.2,0.2-0.3,0.4-0.4c0.2-0.1,0.4,0,0.6,0c0,0.2,0,0.4-0.1,0.5
		c-0.3,0.4-0.6,1-1,1.4c-0.1,0.1,0,0.4,0,0.6c0.1-0.1,0.3-0.1,0.4-0.3c0.3-0.4,0.6-0.9,1-1.3c0.1-0.1,0.4-0.1,0.8-0.2
		c0,0.2,0.1,0.5,0,0.6c-0.5,0.9-1.2,1.6-1.7,2.4c-0.8-0.5-1.5-1.1-2.3-1.6l0,0c-0.2-0.2-0.4-0.4-0.6-0.5
		C121.8,116.3,122.3,115.6,122.7,115L122.7,115z"/>
	<path class="st0" d="M193.1,42.6c0.5,0.6,1.1,1.4,1.7,2.3c-0.8,0.6-1.5,1.4-2.3,2.1c-0.1,0.1-0.4,0-0.6,0.1c0-0.2,0-0.5,0.1-0.6
		c0.1-0.2,0.3-0.4,0.5-0.6c-0.4-0.4-0.8-0.9-1.2-1.3c-0.4,0.2-0.9,1.1-1.5,0.2c0.1-0.1,0.2-0.3,0.3-0.4l0,0c0.6-0.6,1.4-1.2,2.1-1.8
		c0.1-0.1,0.4,0,0.6-0.1C192.9,42.5,193,42.6,193.1,42.6z M192.6,43.6c-0.1,0-0.2,0-0.3,0.1c0.1,0.2,0.1,0.5,0.3,0.6
		c0.2,0.2,0.3,0.9,1,0.4C193.1,44.3,192.9,43.9,192.6,43.6z"/>
	<path class="st0" d="M114.9,42.7c1-0.1,1.9-0.1,3-0.2c-0.1-0.6-1.6-0.8-0.6-1.9c0.9,0.9,1.7,1.6,2.7,2.5c-1,1.1-2.3,0.1-3.2,0.6
		c0.3,0.3,0.6,0.6,1,1.1c0.1,0.1,0.1,0.4,0,0.5c0,0.1-0.3,0.1-0.4,0.1C116.6,45.3,114.9,43.4,114.9,42.7L114.9,42.7z"/>
	<path class="st0" d="M111,55.3c-0.5,1.2-1.1,2.3-1.5,3.5c-0.3,0.6-0.4,1.4-0.6,2.1c-0.4,1.5-0.9,3-1.3,4.5c-0.2,0.5-0.5,0.8-1.1,0.6
		c-0.6-0.1-1.2-0.3-1.8-0.5c-0.5-0.2-0.9-0.5-0.8-1.2c0.2-0.9,0.4-1.7,0.6-2.6c0.1-0.2,0.4-0.3,0.6-0.5c-0.4-1.3,0.3-3.4,1.2-3.6
		c0-0.4-0.1-0.9,0-1.2c0.2-0.6,0.6-1.3,0.9-1.9c0.2-0.6,0.5-0.5,1-0.3c0.8,0.3,1.6,0.6,2.4,1C110.8,55.2,110.9,55.3,111,55.3z
		 M107.8,61c0.1-0.6,0.2-1.2,0.3-1.6c-0.5-0.1-1.1-0.3-1.6-0.2c-0.3,0.1-0.4,0.8-0.8,1.2C106.6,60.7,107.1,60.8,107.8,61z
		 M105.2,62.8c-0.1,0.4-0.2,0.9-0.3,1.4c0.6,0.1,1.2,0.3,1.8,0.4c0.1-0.6,0.3-1.1,0.4-1.5C106.4,62.9,105.8,62.9,105.2,62.8z
		 M109.6,56.2C109.6,56.2,109.5,56.1,109.6,56.2c-0.3,0.2-0.6,0.5-0.9,0.8c-0.9-0.5,0-1.2-0.3-1.8c-0.8,0.2-0.8,1.1-1.1,1.6
		c0.6,0.2,1.2,0.5,1.7,0.8C109.3,57.1,109.4,56.7,109.6,56.2z"/>
	<path class="st0" d="M111,55.3c-0.1,0-0.2-0.1-0.3-0.2c-1-0.5-1.8-1.1-2.8-1.6c0.4-0.8,0.6-1.3,1.1-1.9c0.1-0.2,0.5-0.3,0.8-0.4
		c-0.1,0.4-0.3,1-0.4,1.4c0,0.2,0,0.4,0,0.8c0.4-0.4,0.6-0.8,1-1.2c0.1-0.1,0.3-0.2,0.5-0.2c0,0.2,0.2,0.4,0.1,0.5
		c-0.1,0.3-0.2,0.6-0.3,1c0,0.2,0,0.4,0.1,0.5c0.1,0,0.1,0,0.2,0c0.3-0.5,0.6-1.1,1-1.7c-0.8-0.4-1.4-0.8-2.1-1.1
		c-0.4-0.4-0.2-0.9,0.1-1.3c0.4-0.6,0.9-1.4,1.4-2.2c0.2,0.1,0.5,0.1,0.5,0.2c0.1-0.6,0.3-1.2,0.4-1.7l0,0c0.2-0.2,0.4-0.4,0.6-0.6
		c0.4-0.6,1-1.1,1.8-0.5c-0.1-0.2-0.3-0.3-0.4-0.5c-0.1-0.1,0-0.3,0-0.5c0.2,0,0.4,0,0.5,0c0.6,0.5,1.4,1,1.9,1.6
		c0.2,0.2,0.2,0.5,0.3,0.9c-0.1,0-0.2,0.1-0.2,0.1c-0.2-0.1-0.4-0.1-0.4-0.1c-0.1,0.4-0.1,0.9-0.3,1.1c-1.2,1.7-2.4,3.4-3.5,5.1
		c-0.4,0.6-0.6,1.3-1.1,2.1C111.3,54.8,111.1,55,111,55.3z M113.1,50c-0.4-0.3-0.8-1.2-1.4-0.9c-0.4,0.2-0.8,0.9-1.3,1.3
		c0.6,0.4,1.2,0.8,1.7,1.1C112.5,50.9,112.9,50.5,113.1,50z M114.3,48.3c0.4-0.5,0.8-1,1.1-1.5c-0.5-0.4-1.1-0.8-1.5-1.1
		c-0.3,0.5-0.6,1-1.1,1.5C113.3,47.7,113.7,48,114.3,48.3z"/>
	<path class="st0" d="M156.5,27.6c0-0.6,0-1.1,0-1.5c0-0.3,0.2-0.5,0.3-0.8c0.1,0.2,0.3,0.5,0.4,0.8c0.1,0.8,0,1.4,0,2.2c0,0.2-0.2,0.4-0.3,0.6
		c-0.2-0.1-0.5-0.1-0.6-0.3c-0.5-0.6-1.2-1.3-1.8-2.2c0,0.9,0,1.4,0,2.1c-3.4,0.3-6.7,0.8-10.2,1.1c-0.2-1-0.3-2.1-0.5-3.1
		c0-0.1,0.1-0.3,0.2-0.3c0.8-0.1,1.5-0.2,2.4-0.3c0.1,0,0.2,0.1,0.4,0.3c-0.5,0.2-1,0.3-1.4,0.5c-0.2,0.1-0.5,0.3-0.8,0.4
		c0.3,0,0.6,0.1,1,0.1c0.4,0,0.9-0.3,1.1,0.4c-0.5,0.2-1.2,0.4-1.7,0.8c0,0,0,0.2,0,0.3c0.5-0.1,1.2-0.1,1.7-0.2
		c0.1,0,0.2-0.3,0.2-0.5c0-0.8-0.1-1.5-0.2-2.4c1.2-0.1,2.3-0.3,3.5-0.4c0.1,1.2,0.2,2.2,0.4,3.2h0.1c0-1.1,0-2.1,0-3.1
		c0.9,0,1.8,0,2.8,0c-0.3,1.1-1.7,0-2.1,1.2c0.4,0,0.9,0,1.3,0c0.2,0,0.3,0.2,0.5,0.3c-0.2,0.1-0.3,0.3-0.5,0.4c-0.3,0.1-0.6,0-1,0
		c-0.2,0.8,0,0.8,1.9,0.5c0-0.6,0-1.4,0-2.1c0-0.2,0.1-0.4,0.2-0.6c0.3,0.1,0.6,0.1,0.9,0.3C155.3,26,155.8,26.8,156.5,27.6z
		 M150,26.8c-0.2-0.1-0.5-0.5-0.9-0.5c-0.4-0.1-1.1,0-1.2,0.2c-0.2,0.5-0.3,1.4,0,1.6c0.4,0.3,1.2,0.2,1.7,0.2
		C149.7,27.7,149.9,27.2,150,26.8z"/>
	<path class="st0" d="M136.2,124.4c0.3-0.9,0.8-1.6,1.2-2.5c0.1,0,0.2,0,0.3,0c0.1,0.3,0.3,0.5,0.2,0.9c-0.3,1-0.8,1.8-1.1,2.8
		c-1-0.3-1.9-0.8-2.9-1.1c-0.2-0.1-0.3-0.4-0.3-0.6c0.1-0.5,0.3-1,0.4-1.4c-0.4-1-1-1.7-2.1-1.9c-0.4,0.8-0.9,1.5-1.3,2.4
		c-0.5-0.8-1.3-0.5-1.8-1c-0.6-0.4-1.3-0.8-1.9-1.2c0.4-1,0.9-1.8,1.3-2.7c0.2-0.4,0.5-0.5,1-0.2c1.6,0.9,3.4,1.8,5,2.7
		c0.3,0.2,0.5,0.8,1.1,0.5c0,0.2,0.1,0.4,0.1,0.6c-0.2,0.6-0.5,1.4-0.8,2.1c0.1,0.1,0.1,0.1,0.2,0.2c0.2-0.2,0.3-0.3,0.4-0.5
		c0.2-0.4,0.3-1,0.5-1.4c0.1-0.2,0.4-0.3,0.6-0.4c0,0.2,0.1,0.5,0.1,0.8c-0.1,0.5-0.3,1-0.5,1.5c-0.1,0.2,0,0.4,0,0.5
		C136.1,124.4,136.2,124.4,136.2,124.4z M130.3,119.7c-1.3-1-1.4-1-1.7-0.5C129.9,120.2,129.9,120.2,130.3,119.7z M129.6,121.5
		c-0.2-1-1-1-1.4-1.3C128.2,120.7,128.4,120.9,129.6,121.5z"/>
	<path class="st0" d="M164.6,28.5c0.2-0.6,0.4-1.3,0.6-2.2c1.1,0.2,2.3,0.5,3.5,0.9c-0.3,1.2-0.6,2.4-1,3.6c-0.8-0.2-0.8-0.2-0.5-1.8
		c-0.5-0.1-1.1-0.3-1.6-0.4c-0.1,0.2-0.1,0.3-0.2,0.5c-0.2,0.4-0.1,1.5-1.2,0.6c-1.1,0.4-0.6-0.4-0.8-0.9c-0.1-0.2-0.3-0.4-0.5-0.5
		c-0.3-0.1-0.6-0.1-1.1-0.2c-0.1,0.2-0.1,0.5-0.2,0.8c-0.1,0.2-0.3,0.3-0.4,0.4c-0.1-0.2-0.3-0.4-0.3-0.6c0-0.5,0.2-1.1,0.2-1.6
		c0-0.2,0-0.4,0-0.8c-0.4,0.1-0.8,0.1-1.2,0.2c-0.2,0.9-0.4,1.8-0.5,2.7c-0.1,0-0.2,0-0.3,0c-0.6-0.9,0.2-1.8-0.3-2.8
		c-0.1,0-0.3-0.1-0.5-0.2c-0.2-0.1-0.3-0.3-0.4-0.4c0.2-0.1,0.4-0.3,0.6-0.3c0.6,0,1.3,0.1,1.9,0.1c1.3,0.2,2.6,0.4,3.9,0.6
		c0.1,0,0.3,0.4,0.3,0.6c0,0.5-0.1,1.2-0.1,1.7C164.5,28.4,164.6,28.4,164.6,28.5z M162.1,26.5c0.1,0.9,0.4,1,1.5,0.5
		C163.2,26.9,162.6,26.7,162.1,26.5z"/>
	<path class="st0" d="M122.7,115c-0.2,0.2-0.4,0.4-0.6,0.6s-0.5,0.5-0.8,0.6c-1.1,0.2-1.6-0.6-2.2-1.3c-0.4-0.4-0.3-1.1,0.1-1.5
		c0.1-0.1,0.2-0.2,0.2-0.4c-0.4,0.3-0.9,0.8-1.5,1.3c0-1.3,0-2.4,0-3.5c-0.1,0-0.1,0-0.2-0.1c-0.4,0.4-0.9,0.8-1.4,1.2
		c-0.5-0.2-0.6-0.5-0.1-1c0.4-0.3,0.8-0.8,1.2-1.1l-0.1-0.1c-0.5,0.4-1.2,1-1.8,1.4c-0.4-0.5-1-1.1-1.4-1.7c-0.1-0.1,0-0.4-0.1-0.6
		c0.2,0.1,0.5,0.1,0.6,0.2c0.3,0.3,0.5,0.6,0.9,1c0.6-0.2,0.5-0.4,0.2-0.8c-0.2-0.3-0.4-0.8-0.6-1.1c0.1-0.1,0.2-0.1,0.3-0.2
		c0.4,0.4,0.9,0.8,1.5,1.4c0-0.4,0.1-0.6,0-0.9c-0.2-0.3-0.4-0.5-0.6-0.9c-0.1-0.1,0-0.3,0-0.5c0.2,0,0.4,0,0.5,0.1
		c0.3,0.3,0.6,0.6,1,1c0.9,1,1.4,1.9,1.1,3.2c-0.1,0.3,0,0.6,0,1.1c0.4-0.4,0.8-0.6,1.1-1c0.2-0.1,0.4-0.2,0.8-0.3
		c0,0.2,0.1,0.5,0.2,0.9c0.8-0.2,1.3,0.4,1.9,0.9C123.1,113.6,123,114.2,122.7,115L122.7,115z M119.7,114.2c1.1,1.5,1.4,1.5,2.5-0.2
		C120.7,112.4,120.6,112.7,119.7,114.2z"/>
	<path class="st0" d="M159.7,125c0.2-0.2,0.4-0.4,0.6-0.4c1.1-0.2,2.1-0.4,3.1-0.5c0.1,1.2,0.2,2.2,0.4,3.1c0.1,0.4-0.1,0.6-0.6,0.8
		c-1,0.1-1.8,0.2-2.8,0.3c-0.1-0.6-0.2-1.1-0.3-1.6l0,0c-0.2,1.8-0.2,1.8-2.2,1.9c-0.9,0.1-1.3-0.2-1.5-1.4
		c-0.1-0.8-0.4-1.6,0.3-2.2C157.4,124.5,159.2,124.6,159.7,125z M162.9,127c-0.1-0.8-0.2-1.4-0.3-2.2c-0.5,0.6-1.5-0.1-1.7,0.9
		c-0.1,0.4,0,1.2,0.3,1.3C161.6,127.2,162.3,127,162.9,127z M159.2,125.6c-0.8,0-1.6-0.3-1.8,0.4c-0.2,0.4-0.1,1.2,0.2,1.4
		c0.2,0.2,1.2,0.2,1.4,0C159.1,126.9,159.1,126.2,159.2,125.6z"/>
	<path class="st0" d="M151.3,126.1c0.3-0.5,0.5-0.9,0.8-1.3c0.2,0.4,0.4,0.9,0.8,1.4c0.6,0,1.5,0,2.4,0c0-0.3,0-0.6,0.1-1
		c0.1-0.2,0.3-0.3,0.4-0.4c0.1,0.2,0.4,0.3,0.4,0.5c0,1,0,1.8,0,2.8c0,0.2-0.3,0.5-0.5,0.5c-0.9,0.1-1.7,0.1-2.6,0
		c-0.2,0-0.4-0.3-0.5-0.5c-0.1-0.2,0-0.5-0.1-0.9c0,0.4,0,0.9-0.1,1.4c-1.2-0.1-2.4-0.1-3.7-0.2c0.1-0.8,0.1-1.4,0.2-2.2
		C149.7,126.1,150.6,126.1,151.3,126.1z M151.4,127.6c0-0.1,0-0.2,0.1-0.4c-0.5-0.1-1.1-0.1-1.7-0.2c0,0.1,0,0.2-0.1,0.3
		C150.2,127.5,150.7,127.5,151.4,127.6z M155.3,127.5c-0.4-0.5-1.4-0.5-1.6,0C154.1,127.5,154.6,127.5,155.3,127.5z"/>
	<path class="st0" d="M178.1,34.8c-0.5-0.1-1.2-0.1-1.6-0.4c-1.1-0.8-2.4-1.1-3.6-1.7c-0.3-0.2-0.5-0.4-0.8-0.8c0.2-0.2,0.5-0.4,0.8-0.6
		c0.6-0.3,1.3-0.5,2.1-0.9c-0.4-0.2-0.9-0.3-1.2-0.5c-0.6-0.2-0.8-0.5-0.3-1.2c1.1,0.4,2.2,1,3.2,1.4c-0.5,1.3-1.9,1-2.9,1.7
		c0.5,0.3,1.1,0.6,1.7,1c0.4-0.8,1-1.6,1.5-2.6c0.6,0.4,1.4,0.8,2.1,1.2c0.1,0.1,0.1,0.3,0.2,0.5c-0.2,0-0.4,0.2-0.6,0.1
		c-0.4-0.2-0.9-0.4-1.3-0.6c-0.5,0.4-0.1,0.5,0.2,0.8c0.3,0.2,0.6,0.3,1,0.5c-0.2,0.2-0.3,0.4-0.4,0.6c-0.5-0.2-1-0.4-1.5-0.5
		c0,0-0.1,0.2-0.2,0.3C177,33.9,178.2,33.7,178.1,34.8L178.1,34.8z"/>
	<path class="st0" d="M193,111.1c-0.3,0.3-0.6,0.5-1,0.9c-0.2,0.1-0.5,0.3-0.5,0.3c-0.2-0.2-0.4-0.4-0.4-0.6c0-0.9,0-1.6,0-2.7
		c-0.4,0.5-0.8,0.9-1.2,1.3c-0.1,0.1-0.4,0.1-0.6,0.1c0-0.2-0.1-0.5,0-0.8c0.5-0.6,1-1.2,1.6-1.7c0.2-0.2,0.5-0.2,0.8-0.3
		c-0.1-1,0.6-1.6,1.3-2.3c0.1-0.1,0.4-0.3,0.4-0.2c0.8,0.4,1.6,0.8,2.2,1.4c0.5,0.5,0.2,1.2-0.2,1.7c-0.1,0.1-0.2,0.3-0.3,0.4
		c-0.6,0.9-1.2,1-2.1,0.3c-0.3-0.2-0.6-0.5-1.1-0.9c0,1,0,1.8,0,2.8c0.5-0.5,1-1,1.4-1.5c0.2,0.2,0.3,0.3,0.5,0.4
		C193.7,110.2,193.3,110.8,193,111.1C193,111.2,193,111.1,193,111.1z M195.2,107c-0.5-0.4-1.1-0.8-1.6-1.2c-0.4,0.4-0.8,1-1.2,1.4
		c0.5,0.4,1.1,0.9,1.5,1.2C194.4,108,194.8,107.5,195.2,107z"/>
	<path class="st0" d="M135.1,32.5c-0.1-0.1-0.2-0.3-0.2-0.4c-0.4-0.9-1.2-1-1.8-0.3c-0.1,0.1-0.1,0.3-0.1,0.5c0,0.2,0.2,0.4,0.2,0.6
		c0,0.2-0.1,0.4-0.2,0.6c-0.2-0.1-0.4-0.1-0.5-0.2c-0.4-0.9-0.8-1.7-1.1-2.5c-0.1-0.1,0.1-0.5,0.2-0.5c0.9-0.4,1.8-0.9,2.8-1.3
		c0.2,0.3,0.3,0.5,0.5,0.9c0.1-0.4-0.4-1.1,0.5-1.2c0.3,0.9,0.6,1.6,1,2.6c0.8-0.2,1.4-0.4,2.1-0.6c0.1,0,0.3,0.1,0.5,0.1
		c-0.1,0.2-0.1,0.4-0.3,0.5c-0.9,0.3-1.6,0.6-2.5,1C135.9,32.3,135.6,32.4,135.1,32.5z"/>
	<path class="st0" d="M105.2,76.9c0-1.7,0-3.4,0-5.1c-0.1,0-0.2,0-0.2,0c-0.1,0.6-0.2,1.2-0.2,1.8c0,1.1-0.9,0.6-1.4,0.8c-0.5,0.1-1-0.1-0.9-0.8
		c0.1-0.9,0.1-1.6,0.2-2.5c0-0.2,0.2-0.3,0.4-0.4c0.1,0.2,0.3,0.3,0.3,0.5c0,0.5,0,1,0,1.5c0,0.2,0.1,0.4,0.1,0.6c0.1,0,0.1,0,0.2,0
		c0.1-0.9,0.2-1.6,0.3-2.5c0.2,0,0.4,0,0.6,0c1.6,0,1.6,0,1.5,1.5c-0.1,1.7-0.3,3.5-0.4,5.3c-1,0-1.9,0-3,0c-0.2,0-0.3-0.3-0.5-0.4
		c0.2-0.1,0.3-0.3,0.5-0.3C103.5,76.8,104.3,76.9,105.2,76.9z"/>
	<path class="st0" d="M128.1,35.9c0,0.1,0,0.3,0,0.4c-1,0.6-1.9,1.3-2.9,1.9c-0.1,0-0.2,0-0.2,0.1c-0.3,1-0.6,0.4-1,0c-0.3-0.4-0.8-0.9-1.1-1.4
		c-0.2-0.3-0.3-0.6-0.4-1c0.3,0,0.6,0,1,0.1c-0.1-0.2-0.2-0.4-0.3-0.8c1-0.6,1.8-1.3,2.9-2.1c0.2,0.3,0.4,0.8,0.6,1.1
		C127.1,34.8,127.6,35.4,128.1,35.9L128.1,35.9z M124.3,35.6c0.4,0.5,0.8,1.1,1.2,1.6c0.5-0.4,1-0.8,1.6-1.2
		c-0.6-0.1-1.2,0.9-1.6-0.1c0.3-0.3,0.6-0.5,1-0.9c-0.2-0.2-0.4-0.3-0.5-0.4C125.3,34.9,124.9,35.2,124.3,35.6z"/>
	<path class="st0" d="M201.6,59.4c0,0.3,0.1,0.8,0.1,1.1c0,0.3-0.1,0.6-0.1,0.9c-0.2-0.2-0.4-0.4-0.6-0.6c-0.1-0.2-0.2-0.5-0.3-0.9
		c-0.5,0.3-0.5,0.3,0.1,2.3c0.6-0.2,1.4-0.4,2.1-0.6c0.4-0.1,0.9-0.1,1,0.4c0.1,0.6,0.3,1.3,0.5,2.1c-1.2-0.2-0.9-1.3-1.4-1.7
		c-0.6,0-0.4,0.4-0.3,0.8c0,0.4,0.1,0.8,0.2,1.2c-0.1,0-0.2,0.1-0.3,0.1c-0.3-0.5-0.8-1.2-1.2-1.8c-0.4,1,0.5,1.7-0.3,2.6
		c-0.2-0.8-0.3-1.3-0.5-1.8c-0.3-1.1-0.8-2.2-1.1-3.2c-0.1-0.3-0.1-0.5,0.3-0.8c0.8-0.2,1.6-0.5,2.4-0.9c0.4-0.1,0.6-0.1,0.8,0.4
		c0.1,0.5,0.3,1.1,0.5,1.6c0,0.2-0.1,0.4-0.2,0.6c-0.2-0.1-0.4-0.3-0.5-0.5c-0.2-0.4-0.3-0.9-0.5-1.3
		C201.8,59.3,201.7,59.3,201.6,59.4z"/>
	<path class="st0" d="M121.5,41.6c-0.9-1.1-1.6-1.9-2.4-2.9c0.9-0.8,1.7-1.5,2.7-2.4c0.9,0.9,1.6,1.7,2.5,2.7C123.3,40,122.5,40.8,121.5,41.6z
		 M121.6,40.3c0.4-0.4,0.9-0.8,1.3-1.2c-0.2-0.3-0.4-0.5-0.6-0.8c-0.2-0.2-0.4-0.4-0.5-0.6C120.1,38.9,120.1,38.9,121.6,40.3z"/>
	<path class="st0" d="M105.1,90.2c0.6-0.2,1.3-0.3,1.9-0.4c0.2,0,0.5,0.1,0.8,0.2c-0.2,0.2-0.3,0.5-0.5,0.5c-0.4,0.2-0.9,0.2-1.4,0.3
		c-0.2,0.1-0.4,0.3-0.5,0.4c0,0.1,0.1,0.1,0.1,0.2c0.9-0.2,1.8-0.3,2.7-0.5c0,0.1,0.1,0.2,0.1,0.3c-0.2,0.2-0.4,0.4-0.6,0.5
		c-0.8,0.2-1.5,0.4-2.4,0.6c-0.2,0-0.6-0.2-0.6-0.3c-0.3-0.9-0.5-1.6-0.6-2.5c0-0.2,0.2-0.5,0.3-0.5c0.8-0.3,1.6-0.5,2.4-0.6
		c0.2,0,0.4,0.1,0.6,0.2c-0.1,0.2-0.3,0.5-0.5,0.6c-0.4,0.2-1,0.3-1.4,0.4c-0.2,0.1-0.3,0.3-0.5,0.4C105,90.1,105,90.2,105.1,90.2z"
		/>
	<path class="st0" d="M104.3,79.1c0,0.6,0,1.2,0,1.8c0.4,0,0.9,0,1.3,0c0.1,0,0.3,0.2,0.4,0.3c-0.1,0.1-0.2,0.4-0.3,0.4c-1,0.1-1.9,0.1-2.8,0.2
		c-0.1,0-0.4-0.3-0.4-0.4c-0.1-0.9-0.1-1.7-0.2-2.6c0-0.4,0.1-0.6,0.5-0.6c0.9,0,1.6-0.1,2.5-0.1c0.2,0,0.4,0.2,0.6,0.3
		c-0.1,0.1-0.3,0.3-0.4,0.4C105.1,79,104.7,79,104.3,79.1z"/>
	<path class="st0" d="M110.9,105.5c-0.6-1-1.2-2.1-1.8-3c1-0.5,1.8-1.1,2.7-1.6c0.1-0.1,0.3,0,0.5,0c-0.1,0.2,0,0.4-0.2,0.5
		c-0.3,0.3-0.6,0.4-1,0.8c0.3,0.5,0.6,1.1,1,1.5c0.6,0,1-1,1.9-0.2C112.9,104.1,111.9,104.7,110.9,105.5z"/>
	<path class="st0" d="M141.7,127.2c0.6-1.1-0.3-2.6,1.1-3.7c0.1,0.6,0,1.3,0.3,1.5c0.4,0.3,1.1,0.3,1.6,0.4c0.1-0.4,0.2-0.8,0.3-1
		c0.1-0.1,0.3-0.2,0.4-0.2c0.1,0.2,0.3,0.3,0.2,0.5c-0.2,1-0.3,1.8-0.6,2.7c0,0.2-0.5,0.3-0.8,0.3
		C143.6,127.6,142.7,127.4,141.7,127.2z M144.2,126.8c0-0.1,0.1-0.2,0.1-0.3c-0.3-0.1-0.5-0.3-0.9-0.3c-0.2,0-0.4,0-0.6,0
		c0,0.1,0,0.1,0,0.2c0.1,0,0.2,0.1,0.3,0.1C143.6,126.6,143.9,126.7,144.2,126.8z"/>
	<path class="st0" d="M199.5,51.8c0,0.2,0,0.3-0.1,0.4c-0.2,0.5-2.2,1.7-2.8,1.6c-0.2,0-0.4-0.2-0.5-0.3c-0.3-0.5-0.6-1.1-1-1.6
		c-0.3-0.6-0.1-1.1,0.4-1.4c0.3-0.2,0.6-0.3,0.9-0.5c1.3-0.8,1.5-0.8,2.4,0.6C199.1,51.1,199.3,51.6,199.5,51.8z M195.9,51.4
		c1,1.8,0.6,1.9,2.5,0.5c-0.3-0.5-0.6-1-1-1.5C197,50.7,196.5,51,195.9,51.4z"/>
	<path class="st0" d="M140.7,30.7c-0.3-1.2-0.5-2.4-0.9-3.6c1.2-0.3,2.3-0.5,3.5-0.9c0.2,1.1,0.5,2.1,0.8,3.1c0,0.2-0.3,0.5-0.5,0.6
		C142.6,30.3,141.7,30.5,140.7,30.7z M141.3,29.8c0.6-0.2,1.3-0.3,1.7-0.8c0.2-0.2,0-1.3-0.3-1.4c-0.5-0.2-1.2,0-1.8,0
		C141,28.4,141.1,29,141.3,29.8z"/>
	<path class="st0" d="M197.9,97.1c1.1,0.5,2.1,1.1,3.1,1.6c-0.5,1-1,1.9-1.5,2.9c-1.1-0.6-2.5-0.5-3.1-1.6c0-0.1,0.1-0.2,0.1-0.3
		c0.4,0.1,0.9,0.2,1.4,0.3c0.2-0.5,0.5-1,0.8-1.5C198.3,98.1,197.4,98.1,197.9,97.1z M199.4,98.9c-0.8,1.4-0.8,1.4-0.2,1.7
		C200.1,99.2,200.1,99.2,199.4,98.9z"/>
	<path class="st0" d="M107.2,99c0.9-0.5,1.6-1.1,2.4-1.5c0.2-0.1,0.5,0,0.9,0c-0.2,0.2-0.3,0.4-0.5,0.6c-0.1,0.1-0.2,0.1-0.4,0.3
		c0.3,0.5,0.5,1.1,0.8,1.6c0.5-0.1,1-0.1,1.5-0.2c0,0.1,0.1,0.2,0.1,0.4c-1,0.5-2.1,1.1-3.1,1.7C108.3,100.9,107.8,99.9,107.2,99z
		 M108.8,99c-0.5,0.4-0.5,0.6,0,1.5c0.1,0.1,0.4,0.1,0.6,0.2c0-0.1,0.1-0.1,0.1-0.2C109.4,99.9,109.1,99.5,108.8,99z"/>
	<path class="st0" d="M204.3,64.3c0.2,1,0.4,1.9,0.6,2.8c0,0.1-0.2,0.4-0.3,0.5c-0.8,0.3-1.6,0.5-2.4,0.8c-0.2,0.1-0.4,0-0.6-0.1
		c0-0.1,0-0.2-0.1-0.2c0.4-0.2,0.9-0.4,1.3-0.8c-0.1-0.5-0.2-1.1-0.4-1.7c-0.3,0-0.6,0.1-1,0c-0.1,0-0.3-0.2-0.4-0.3
		c0.1-0.1,0.2-0.3,0.3-0.3C202.2,64.8,203.3,64.6,204.3,64.3z M204.2,67.1c-0.1-0.5-0.2-1.1-0.3-1.5c0-0.1-0.4-0.2-0.4-0.1
		C203,65.8,203.4,66.9,204.2,67.1z"/>
	<path class="st0" d="M202.3,57.9c-0.6,0.3-1.2,0.5-1.7,0.8c-0.1,0-0.4-0.1-0.5-0.3c-0.2-0.2-0.2-0.5-0.3-0.8c-0.3-0.6-0.4-1.4-1.4-1
		c-0.1,0.1-0.4-0.1-0.6-0.2c0-0.1,0-0.2-0.1-0.3c1.1-0.5,2.2-1,3.2-1.5C201.4,55.7,201.8,56.7,202.3,57.9z M201,57.6
		c0-0.1,0.1-0.1,0.1-0.2c-0.2-0.4-0.4-0.9-0.6-1.3c-0.1-0.1-0.2-0.2-0.3-0.2c0,0.1-0.2,0.3-0.1,0.4c0.1,0.3,0.2,0.6,0.4,1
		C200.6,57.4,200.9,57.5,201,57.6z"/>
	<path class="st0" d="M169.1,30.4c0.6,0.2,1.3,0.4,2.1,0.6c0.3-0.8,0.5-1.4,0.9-2.2c0.1-0.2,0.3-0.2,0.5-0.4c0.1,0.2,0.2,0.5,0.1,0.6
		c-0.2,0.9-0.5,1.6-1,2.4c-0.1,0.2-0.4,0.3-0.6,0.3c-0.9-0.2-1.7-0.5-2.6-0.9c-0.4-0.1-0.5-0.3-0.4-0.9c0.3-0.8,0.5-1.6,0.8-2.4
		c0.1-0.1,0.3-0.2,0.5-0.3c0.1,0.2,0.2,0.4,0.2,0.5C169.7,28.9,169.4,29.6,169.1,30.4z"/>
	<path class="st0" d="M147.7,127.1c-0.4-0.8-1.6,0-1.7-1.2c0.6,0,1.3-0.1,1.9-0.1c0-0.1,0-0.2,0-0.3c-0.6-0.1-1.2-0.3-1.8-0.5
		c-0.1-0.5,0.1-0.9,0.6-0.6c0.4,0.1,0.8,0.2,1.2,0.2c0.9-0.1,1,0.4,0.9,1c-0.1,0.9-0.2,1.7-0.3,2.7c-0.9-0.1-1.6-0.2-2.4-0.3
		c-0.1,0-0.3-0.2-0.4-0.4c0.2-0.1,0.3-0.3,0.5-0.3c0.3,0,0.5,0.1,0.9,0.1C147.1,127.2,147.4,127.1,147.7,127.1z"/>
	<path class="st0" d="M106.3,85.3c0.1,0,0.2,0.1,0.3,0.2c0.1,0.1,0.1,0.2,0.1,0.3c0.6,1.9,0.6,2.2-1.4,2.6c-1.6,0.4-1.6,0.4-1.9-1.3
		c-0.1-0.4-0.1-0.8-0.1-1.3c1.1,0.3,0.4,1.7,1.5,1.9c0-0.8,0-1.3,0-1.9c0.1,0,0.2,0,0.3-0.1c0.2,0.5,0.4,1.2,0.6,1.8
		C106.7,87,105.6,86,106.3,85.3z"/>
	<path class="st0" d="M173.8,124.2c0.1-0.2,0.2-0.4,0.3-0.5c0.4-0.3,0.9-0.5,1.4-0.8c0-0.1-0.1-0.2-0.1-0.3c-0.4,0.1-0.8,0.3-1.2,0.3
		c-0.2,0-0.5-0.1-0.8-0.1c0.1-0.2,0.2-0.4,0.4-0.6c0.1-0.1,0.2-0.1,0.3-0.1c0.2-0.1,0.4-0.2,0.6-0.3c0-0.5,0-1,0-1.5
		c0.1,0,0.2,0,0.3-0.1c0.5,1.1,1,2.2,1.6,3.4c-0.9,0.3-1.5,0.8-2.3,1.1C174.3,124.4,174,124.2,173.8,124.2L173.8,124.2z"/>
	<path class="st0" d="M107.5,94.3c0.2,0.4,0.4,0.9,0.6,1.2c0.4-0.1,0.9-0.1,1.5-0.2c-0.1,0.3-0.2,0.5-0.3,0.6c-1,0.3-0.8,1-0.4,1.6
		c-0.6,0.3-1.3,1-2.2,0.5c0.4-0.4,1-0.8,1-1.2s-0.3-1-0.5-1.5c-0.5,0-1,0.6-1.6-0.1C106.3,95,106.9,94.6,107.5,94.3z"/>
	<path class="st0" d="M196.7,102.3c0.1,1,1.2,1.4,0.9,2.6c-0.3-0.2-0.5-0.3-0.8-0.5c-0.5-0.8-1-1.5-1.5-2.4c-0.2-0.4-0.1-0.6,0.4-0.6
		c1,0,1.9,0.1,2.9,0.2c0.2,0,0.3,0.3,0.4,0.5c-0.2,0.1-0.4,0.3-0.6,0.3C198,102.4,197.4,102.4,196.7,102.3z"/>
	<path class="st0" d="M196.3,48.6c-0.8,0.4-1.5,0.9-2.3,1.3c-0.1-0.1-0.1-0.2-0.2-0.3c0-1.2,1.4-1.1,1.8-1.9c0-0.4-0.9-0.9,0.1-1.5
		c0.6,0.9,1.2,1.7,1.8,2.7c0,0.1-0.1,0.3-0.2,0.4c-0.1,0.1-0.3,0.1-0.4,0C196.7,49,196.5,48.8,196.3,48.6z"/>
	<path class="st0" d="M130.6,30.7c0.1,0.2,0.2,0.4,0.4,0.6c-0.3,0.2-0.6,0.5-0.9,0.6c0,1,1.3,1.6,0.9,2.7c-0.1,0-0.2,0.1-0.3,0.1
		c-0.4-0.8-1-1.6-1.4-2.4c-0.2,0.1-0.4,0.2-0.6,0.2c-0.2,0-0.4,0-0.6,0c0.1-0.2,0.1-0.5,0.3-0.6C128.9,31.6,129.7,31.1,130.6,30.7z"
		/>
	<path class="st0" d="M103.7,84c0,0.3,0,0.6,0,0.9c0,0.2-0.2,0.3-0.3,0.4c-0.1-0.1-0.4-0.2-0.4-0.3c-0.1-1-0.2-1.9-0.3-2.9
		c0.8-0.1,0.8-0.1,1.1,1.1c0.5-0.1,1.2-0.2,1.8-0.3c0.3,0,0.6,0.2,1,0.3c-0.2,0.2-0.5,0.5-0.8,0.5C105,84,104.4,84,103.7,84z"/>
	<path class="st0" d="M115,104.8c0,1.5-1.4,1.5-1.8,2.4c0.1,0.1,0.2,0.3,0.3,0.5c0,0.2,0,0.4-0.1,0.6c-0.2-0.1-0.4-0.1-0.5-0.2
		c-0.5-0.6-1-1.3-1.4-1.9c-0.1-0.1,0-0.4,0-0.6c0.2,0,0.4,0,0.5,0.1c0.2,0.1,0.3,0.4,0.5,0.6C113.4,105.9,114.1,105.4,115,104.8z"/>
	<path class="st0" d="M198.3,95.8c0.9-0.5,1.4,0.4,2.4,0.3c-0.1-0.4-0.1-0.9-0.2-1.3c0-0.2,0.1-0.4,0.2-0.6c0.1,0.1,0.4,0.2,0.4,0.4
		c0.2,0.8,0.3,1.4,0.4,2.2c0,0.2-0.3,0.5-0.4,0.5c-1-0.3-1.9-0.8-2.9-1.2C198.3,96,198.3,95.9,198.3,95.8z"/>
	<path class="st0" d="M128.1,35.9L128.1,35.9c-0.4-0.8-0.9-1.5-1.3-2.3c-0.1-0.2,0-0.4,0-0.6c0.2,0.1,0.5,0.1,0.6,0.2c0.5,0.8,1,1.5,1.4,2.3
		c0.1,0.1,0,0.4,0,0.5C128.5,36,128.3,36,128.1,35.9z"/>
	<path class="st0" d="M173.8,124.2c-0.1,0.3-0.2,0.5-0.4,0.9c-1.1-1.2-1.6-3.2-1-3.9C172.8,122.1,173.3,123.2,173.8,124.2L173.8,124.2z"/>
	<path class="st0" d="M120.3,41.1c-0.4,0.3-0.8,0.6-0.9,0.6c-0.3-0.1-0.6-0.4-0.6-0.6c0-0.2,0.3-0.6,0.6-0.6C119.6,40.3,119.9,40.7,120.3,41.1z"
		/>
	<path class="st0" d="M186.7,113c0-0.4-0.1-0.8,0-1.2c0-0.1,0.5-0.2,0.6-0.1c0.2,0.1,0.3,0.4,0.3,0.6s-0.2,0.4-0.4,0.5
		C187.2,113.1,186.9,113,186.7,113C186.6,113,186.7,113,186.7,113z"/>
	<path class="st0" d="M138.8,28.5c0.2,0.4,0.4,0.8,0.4,1c0,0.2-0.3,0.4-0.5,0.6c-0.2-0.2-0.5-0.4-0.6-0.6C138.1,29.2,138.4,29,138.8,28.5z"/>
	<path class="st0" d="M137.2,90.7c0-8.3,0-16.6,0-24.9c-1.8,0-3.6,0-5.3,0c-1.4,0-1.6-0.2-1.6-1.6c0-3.1,0-6.3,0-9.4c0-0.2,0-0.4,0-0.6
		c0.1-0.9,0.3-1.2,1.2-1.2c5.5,0,11.1,0,16.7,0c3.1,0,6.4,0.1,9.5,0c2.4-0.1,4.7,0.4,6.8,1.4c8,3.6,13.2,9.6,15,18.2
		c1.9,8.9-0.3,16.8-6.5,23.5c-3.4,3.6-7.5,6.1-12.3,7.1c-1.6,0.4-3.5,0.2-5.2,0.2c-7.8,0-15.6,0-23.4,0c-1.8,0-2.1-0.1-1.9-1.9
		c0-3,0-6.1,0-9c0-0.3,0-0.6,0.1-1c0.1-0.5,0.3-0.9,1-0.9c1.6,0,3.4,0,5,0C136.8,90.7,137,90.7,137.2,90.7z M151.4,66
		c0,0.8,0,1.6,0,2.4c0,7.1,0,14.4,0,21.5c0,0.6,0.2,1,0.9,0.9c1.1-0.1,2.2,0,3.2,0c2.6,0.1,4.4-1.1,5.8-3.1
		c2.1-3.2,2.9-6.8,2.7-10.7c-0.2-2.7-1-5.2-2.4-7.5c-1.1-1.7-2.5-3.1-4.4-3.4C155.3,65.8,153.4,66,151.4,66z"/>
	<path class="st0" d="M189.7,80.1c1.2,0,2.5,0,3.7,0c0.8,0,1.5,1,1.5,1.7c0,1.2,0,2.5,0,3.7c0,0.6-0.3,0.9-1.1,0.9c-0.6,0-1.4,0-2.1,0
		c-0.2,0-0.5-0.1-0.6-0.2c-0.5-0.4-1.1-1-1.4-1.4c-0.2-0.3-0.4-0.9-0.5-1.3c-0.1-0.4,0-0.9,0-1.3c0-0.3-0.2-0.8,0.4-1
		C189.6,81.2,189.6,80.7,189.7,80.1z"/>
	<path class="st0" d="M152.5,89.9c0-7.8,0-15.5,0-23.3c2.4-0.1,4.8-0.5,6.8,1.1c1.4,1.2,2.2,2.8,2.8,4.4c1,2.4,1.3,4.9,1.1,7.4
		c-0.2,3.1-1.1,6.1-3.2,8.4c-1.1,1.3-2.7,1.7-4.3,1.9C154.6,90,153.5,89.9,152.5,89.9z M152.9,84c1.4,0.1,2.8,0.1,4.2,0.2
		c0.6,0,0.9,0.3,0.9,1c0,0.6-0.3,0.8-0.9,0.9c-0.6,0-1.2,0.1-1.8,0.3c-0.2,0-0.4,0.3-0.4,0.4c0,0.2,0.2,0.5,0.3,0.6
		c0.6,0.4,2.2,0,2.6-0.8c0.8-1.2,0.5-2.6,0.3-3.9c0-0.2-0.4-0.4-0.4-0.4c-0.6,0.4-1.4,0-2.1,0.1c-1.5,0.2-1.8,0.1-1.7-1.5
		c0-0.3,0-0.8,0.1-1.1c0.1-0.2,0.4-0.5,0.6-0.5c0.9,0,1.7,0.1,2.7,0.1c0.1,0,0.3-0.1,0.4-0.1c0-0.1,0-0.1,0-0.2
		c-1.6,0.1-3.4-0.4-4.9,0.6c0,1,0,1.9,0,2.9c1.4,0.1,2.8,0.1,4.2,0.2c0,0.1,0,0.1,0,0.2c-1.4,0.3-2.8,0.1-4.2,0.2
		C152.9,83.5,152.9,83.7,152.9,84z M152.9,70.9c0,0.3,0,0.6,0,1c0.1-0.1,0.3-0.2,0.4-0.2c0.8,0,1.6,0,2.4,0.1c0.4,0,0.9,0.2,1.3,0.3
		c-0.4,0.1-0.8,0.2-1.2,0.2c-1,0-1.9,0-2.9,0c0,1.1,0,2.2,0,3.5c1.6,0,3.2,0,4.9,0c-0.8-0.1-1.5-0.2-2.3-0.1c-1.3,0.2-1.6,0-1.6-1.3
		c0-0.5,0.1-1.2,0.1-1.7c1.2,0,2.3,0,3.4,0c0.6,0,1-0.1,0.9-0.9c0-0.5,0-1.1,0-1.6c-0.1-1.8-1.2-2.8-2.9-2.4c-0.2,0-0.4,0.3-0.5,0.5
		c0,0.1,0.2,0.4,0.4,0.5c0.6,0.1,1.3,0.2,1.8,0.3c0.2,0,0.5,0.1,0.6,0.3c0.4,0.8,0.1,1.2-0.8,1.3c-1.3,0.1-2.5-0.3-3.8,0.3
		C153.2,71.2,153,70.9,152.9,70.9z M162.2,82.3c-0.1,0-0.2,0.1-0.3,0.1c-1.3,0.2-1.3,0.2-1.3,1.5c0,0.5,0.1,1.2-0.2,1.6
		c-0.9,1.4-2.1,2.4-3.8,2.3c-0.4,0-0.9,0-1.3,0c-0.2,1.5-1,1.3-2.3,1.4C157.2,90.5,161.4,87.4,162.2,82.3z M152.9,78.4
		c1.7,0,3.4,0,5,0c0.3,0,0.6,0.2,0.9,0.4c0.2,0.1,0.5,0.3,0.8,0.3c0.5-0.1,1.1-0.2,1.8-0.4c-0.5-0.3-1-0.9-1.4-0.9
		c-2.1-0.1-4.1-0.1-6.2,0C153.5,77.9,152.8,77.7,152.9,78.4z M161.2,75.9c-1,0.4-2.1-0.8-2.7,0.5c0,0.1-0.2,0-0.3,0
		c-1.2,0-2.5,0-3.7,0c-0.5,0-1.1,0-1.6-0.1c0,0.2,0,0.4,0,0.5c0.4,0.1,0.8,0.1,1.1,0.1c1.9,0,4,0,6,0
		C160.6,77.2,161,76.9,161.2,75.9z M162.4,74.6c-0.4,1.1-0.9,2.1-1.3,3.1c0.3,0.4,0.9,1.1,1.1,1.8c0.2,0.8,0,1.6,0,2.4
		C162.8,79.5,162.9,77,162.4,74.6z M158.6,68.5c0,1.1,0.1,2.3,0.1,3.4c0,0.5,0.1,1.1,0.6,1c0.3,0,0.6-0.5,0.8-0.9
		C160.3,70.4,159.8,69.2,158.6,68.5z M158.5,86.6c0,0,0.1,0,0.2-0.1c1.1-0.8,1.7-2.6,1.2-3.8c-0.1-0.2-0.4-0.4-0.5-0.4
		c-0.2,0.1-0.5,0.3-0.6,0.5c-0.1,0.4-0.1,0.9-0.1,1.3C158.6,85,158.6,85.9,158.5,86.6z M153,68.7c0.2,0,0.3,0,0.5,0
		c0.2,0,0.4-0.1,0.5-0.2c-0.2-0.1-0.3-0.3-0.5-0.4c-0.2-0.1-0.4-0.1-0.8-0.1c0,0.8,0,1.5,0,2.3c0.8,0,1.5,0,2.3,0c0-0.3,0-0.6,0-0.9
		c-0.4,0-1-0.1-1.4,0C152.8,69.8,153,69.2,153,68.7z M155,84.7c-0.8,0-1.4,0-2.2,0c0,0.2,0,0.5,0,0.8c0.8,0,1.4,0.1,2.2,0.1
		C155,85.3,155,85,155,84.7z M160.7,72.6c0.3,0,0.6,0,1.1,0c-0.3-0.8-0.6-1.4-1-2.1h-0.1C160.7,71.2,160.7,71.8,160.7,72.6z"/>
</g>
</svg>
