<?xml version="1.0" encoding="utf-8"?>
<!-- Generator: Adobe Illustrator 24.0.2, SVG Export Plug-In . SVG Version: 6.00 Build 0)  -->
<svg version="1.1" id="Layer_1" xmlns="http://www.w3.org/2000/svg" xmlns:xlink="http://www.w3.org/1999/xlink" x="0px" y="0px"
	 viewBox="0 0 238.1 150.2" style="enable-background:new 0 0 238.1 150.2;" xml:space="preserve">
<style type="text/css">
	.st0{fill:none;stroke:#000000;stroke-miterlimit:10;}
</style>
<g>
	<path class="st0" d="M6.4,36.7c1.1,0,2.1,0,3.2,0c0,0.9,0,1.7,0,2.6c0.5,0,0.8,0,1.2,0c0-1.3,0-2.5,0-3.9c-1.5,0-2.9-0.1-4.4-0.1
		c0-2.3,0-4.4,0-6.6c1,0,2,0,3.1,0c0,0.8,0,1.7,0,2.6c0.5,0,0.8,0.1,1.3,0.1c0.1-1.4,0-2.7,0.1-4c-1.5,0-3,0-4.5,0
		c0-2.3,0-4.4,0-6.7c1,0,2,0,3.1,0c0,0.8,0,1.6,0,2.6c0.5,0,0.8,0,1.3,0c0-1.3,0-2.5,0-3.9c-1.5,0-2.9,0-4.4,0c0-2.3,0-4.4,0-6.7
		c1,0,2,0,3.1,0c0,0.8,0,1.6,0,2.6c0.5,0,0.8,0.1,1.3,0.1c0-0.9,0.1-1.7,0.1-2.7c1.1,0,2.2-0.1,3.4-0.1c0-1.5,0-3,0-4.5
		c2.3,0,4.4,0,6.7,0c0,1,0,2,0,3.1c-0.8,0-1.7,0-2.6,0c0,0.5-0.1,0.8-0.1,1.4c1.4,0.1,2.6,0,4,0c0-1.5,0-3,0-4.5c2.3,0,4.4,0,6.6,0
		c0.2,1,0.1,2,0.1,3.2c-0.9,0-1.7,0-2.6,0c0,0.5,0,0.9,0,1.3c1.3,0,2.6,0,3.9,0c0-1.5,0-2.9,0-4.3C31.3,8,35.6,8,37,8.2
		c0,1,0,1.9,0,3.1c-0.9,0-1.7,0-2.6,0c0,0.5,0,0.9,0,1.3c0.4,0,0.7,0.1,1,0.1c1,0,1.9,0,3,0c0-1.6,0-3,0-4.5c2.3,0,4.4,0,6.6,0
		c0,1,0,2.1,0,3.2c-0.9,0-1.7,0-2.6,0c0,0.5,0,0.8,0,1.3c1.3,0.1,2.5,0.1,3.9,0c0-1.5,0-2.9,0-4.3C47.2,8.1,51.1,8,53,8.2
		c0.3,1,0.1,2,0.1,3.1c-0.9,0-1.8,0-2.7,0c0,0.5-0.1,0.8-0.1,1.3c1.4,0,2.7,0,4.1,0c0-1.5,0-2.9,0-4.4c2.3,0,4.4,0,6.7,0
		c0,1.1,0,2,0,3.1c-0.9,0-1.7,0-2.6,0c0,0.5-0.1,0.8-0.1,1.3c1.4,0.1,2.6,0.1,4,0c0-1.5,0-3,0-4.5c2.3,0,4.4,0,6.6,0
		c0.2,1,0.1,2,0,3.2c-0.9,0-1.7,0-2.6,0c0,0.5,0,0.8-0.1,1.3c1.3,0.1,2.6,0.1,4,0c0-1.5,0-2.9,0-4.3C71.3,8,75.7,8,77,8.2
		c0,1,0,1.9,0,3.1c-0.9,0-1.7,0-2.7,0c0,0.5-0.1,0.8-0.1,1.3c1.4,0.2,2.6,0.1,4.1,0.1c0-1.5,0-3,0-4.5c2.3,0,4.4,0,6.6,0
		c0,1,0,2,0,3.1c-0.8,0-1.6,0-2.5,0c0,0.5-0.1,0.9-0.1,1.3c1.3,0,2.6,0,3.9,0c0.3-1.4-0.1-2.9,0.2-4.4c2.2,0,4.3,0,6.5,0
		c0,1,0,2,0,3.2c-0.9,0-1.7,0-2.6,0c0,0.5,0,0.8-0.1,1.3c1.4,0,2.7,0,4.1,0c0-1.5,0-2.9,0-4.4c2.2,0,4.4,0,6.6,0c0,1,0,2,0,3.2
		c-0.8,0-1.6,0-2.5,0c0,0.5,0,0.9,0,1.3c1.3,0,2.5,0,3.8,0c0.3-1.5,0-2.9,0.2-4.5c2.2,0,4.3,0,6.4,0c0.3,0.9,0.3,1.9,0.1,3.2
		c-0.8,0-1.6,0-2.5,0c0,0.5,0,0.9,0,1.3c1.3,0,2.6,0,4,0c0-1.5,0-3,0-4.5c2.3,0,4.4,0,6.6,0c0,1,0,2,0,3.1c-0.8,0-1.7,0-2.6,0
		c0,0.5,0,0.9,0,1.3c1.3,0,2.5,0,3.9,0c0-1.5,0-2.9,0-4.5c2.3,0,4.4,0,6.6,0c0.2,1,0.1,2,0,3.2c-0.9,0-1.7,0-2.6,0
		c0,0.5,0,0.9,0,1.3c1.3,0,2.5,0,3.9,0c0.2-1.5,0-2.9,0.2-4.4c1-0.3,5.5-0.3,6.6,0c0,1,0,1.9,0,3.1c-0.9,0-1.8,0-2.7,0
		c0,0.5,0,0.8,0,1.3c1.3,0.1,2.6,0.1,4,0c0-1.5,0-2.9,0-4.4c2.3,0,4.4,0,6.7,0c0,1,0,2,0,3.1c-0.8,0-1.6,0-2.6,0
		c0,0.5-0.1,0.9-0.1,1.3c1.4,0,2.6,0,4,0c0-1.5,0-2.9,0-4.3c1-0.3,5.5-0.3,6.7-0.1c0,1,0,2,0,3.1c-0.9,0-1.7,0-2.6,0
		c0,0.5,0,0.9-0.1,1.3c0.4,0,0.7,0.1,1,0.1c1,0,1.9,0,3,0c0-1.6,0-3,0-4.5c2.3,0,4.4,0,6.7,0c0,1,0,2,0,3.1c-0.8,0-1.7,0-2.6,0
		c0,0.5-0.1,0.8-0.1,1.3c0.7,0,1.4,0.1,2,0.1s1.3,0,2,0c0-1.6,0-3,0-4.5c2.3,0,4.4,0,6.6,0c0.2,1,0.1,2,0,3.2c-0.9,0-1.7,0-2.6,0
		c0,0.5,0,0.9,0,1.3c1.3,0,2.6,0,4,0c0-1.5,0-2.9,0-4.3c1-0.3,5.5-0.3,6.7-0.1c0,0.2,0.1,0.4,0.1,0.7c0,0.8,0,1.5,0,2.4
		c-0.9,0-1.8,0-2.7,0c0,0.5,0,0.8-0.1,1.3c1.4,0.2,2.6,0.1,4,0c0-1.5,0-2.9,0-4.3c0.9-0.3,5.2-0.3,6.7-0.1c0,1,0,2,0,3.1
		c-0.8,0-1.6,0-2.6,0c0,0.5-0.1,0.9-0.1,1.3c1.4,0,2.6,0,4,0c0-1.5,0-2.9,0-4.3c0.9-0.3,5.2-0.3,6.7-0.1c0,1,0,2,0,3.1
		c-0.9,0-1.7,0-2.6,0c0,0.5,0,0.8,0,1.3c1.3,0,2.5,0,4,0c0-1.5,0-2.9,0-4.5c2.3,0,4.4,0,6.7,0c0,1,0,2,0,3.2c-0.8,0-1.7,0-2.6,0
		c0,0.5,0,0.8-0.1,1.3c1.4,0,2.6,0,4,0c0-1.5,0-2.9,0-4.3c0.9-0.3,5.1-0.4,6.7-0.1c0,1,0,1.9,0,3.1c-0.8,0-1.6,0-2.5,0
		c0,0.5-0.1,0.9-0.1,1.3c1.4,0,2.7,0,4.1,0c0-1.5,0-2.9,0-4.4c2.3,0,4.5,0,6.7,0c0,1.1,0,2,0,3.2c-0.9,0-1.8,0-2.7,0
		c0,0.5,0,0.8-0.1,1.3c1.4,0.2,2.7,0.1,4,0c0-1.5,0-3,0-4.4c0.9-0.2,5.3-0.3,6.7-0.1c0,1,0,2,0,3.1c-0.8,0-1.6,0-2.6,0
		c0,0.5-0.1,0.9-0.1,1.3c1.4,0,2.6,0,4,0c0-1.5,0-2.9,0-4.3c0.9-0.3,5.3-0.3,6.7-0.1c0,1,0,1.9,0,3.1c-0.8,0-1.7,0-2.6,0
		c0,0.4-0.1,0.7-0.1,1.2c1.7,0,3.3,0,5,0c0,2.3,0,4.4,0,6.6c-1,0-2,0-3.1,0c0-0.8,0-1.7,0-2.6c-0.5,0-0.9,0-1.3,0c0,1.3,0,2.6,0,4
		c1.5,0,2.9,0,4.3,0c0.3,1,0.3,5.4,0.1,6.7c-0.9,0-1.9,0-3,0c0-0.8-0.1-1.7-0.1-2.6c-0.5,0-0.8,0-1.3,0c0,1.3,0,2.5,0,3.9
		c1.5,0,2.9,0,4.3,0c0.3,1,0.3,5.2,0.1,6.7c-1,0-1.9,0-3,0c0-0.8,0-1.7,0-2.6c-0.5,0-0.8-0.1-1.3-0.1c0,1.4,0,2.7,0,4.1
		c1.5,0,2.9,0,4.4,0c0,2.3,0,4.4,0,6.6c-1,0-1.9,0-3,0c0-0.8-0.1-1.7-0.1-2.6c-0.4,0-0.8,0-1.2,0c0,1.3,0,2.6,0,3.9
		c1.5,0,2.9,0,4.4,0c0,2.3,0,4.4,0,6.6c-1,0-2,0-3.1,0c0-0.8,0-1.6,0-2.5c-0.5,0-0.9-0.1-1.3-0.1c0,1.3,0,2.6,0,3.9
		c1.4,0.3,2.9,0,4.3,0.2c0.3,0.8,0.3,5.1,0.1,6.7c-0.5,0-1,0-1.5,0s-0.9,0-1.5,0c0-0.9,0-1.8,0-2.7c-0.5,0-0.8-0.1-1.3-0.1
		c-0.1,1.4-0.1,2.6-0.1,4c1.5,0,3,0,4.5,0c0,2.3,0,4.4,0,6.7c-1,0-2,0-3.1,0c0-0.8,0-1.6,0-2.5c-0.5,0-0.9-0.1-1.3-0.1
		c0,1.4,0,2.6,0,4c1.5,0,2.9,0,4.4,0c0,2.3,0,4.5,0,6.7c-1,0-2,0-3.1,0c0-0.9,0-1.7,0-2.6c-0.5,0-0.8,0-1.3-0.1c0,1.4,0,2.6,0,4
		c1.4,0.3,2.9,0,4.4,0.2c0,2.2,0,4.3,0,6.5c-1,0-2,0-3.1,0c0-0.8,0-1.6,0-2.6c-0.5,0-0.9,0-1.3-0.1c0,1.3,0,2.5,0,3.9
		c1.4,0.2,2.9,0,4.4,0.2c0,2.2,0,4.3,0,6.5c-1,0.2-2,0.1-3.1,0.1c0-0.9,0-1.7,0-2.6c-0.5,0-0.9-0.1-1.3-0.1c0,1.3,0,2.6,0,4
		c1.4,0.2,2.9,0,4.3,0.1c0.3,0.8,0.3,5.1,0.1,6.6c-1,0-1.9,0-3,0c0-0.9,0-1.7,0-2.6c-0.5,0-0.8-0.1-1.3-0.1c0,0.7-0.1,1.4-0.1,2
		s0,1.3,0,2.1c1.5,0,3,0,4.5,0c0,2.3,0,4.4,0,6.7c-1,0-2,0-3.1,0c0-0.8,0-1.6,0-2.6c-0.5,0-0.9,0-1.3-0.1c0,1.4,0,2.6,0,4
		c1.5,0,2.9,0,4.5,0c0,2.3,0,4.5,0,6.7c-1.1,0-2,0-3.1,0c0-0.9-0.1-1.7-0.1-2.7c-0.4,0-0.8,0-1.2,0c0,1.3,0,2.5,0,3.9
		c1.4,0,2.9,0,4.2,0c0.3,0.9,0.4,5.1,0.1,6.7c-1,0-1.9,0-3.1,0c0-0.8,0-1.7,0-2.6c-0.5,0-0.9,0-1.3,0c0,0.3-0.1,0.5-0.1,0.7
		c0,1,0,2,0,3c1.5,0.3,3,0,4.5,0.2c0,2.2,0,4.3,0,6.5c-1,0-2,0-3.1,0c0-0.9-0.1-1.7-0.1-2.6c-0.4,0-0.8,0-1.3,0c0,1.3,0,2.6,0,3.9
		c1.5,0,2.9,0,4.3,0c0.3,1,0.3,5.4,0.1,6.7c-1,0-1.9,0-3,0c0-0.9,0-1.7,0-2.6c-0.5,0-0.8-0.1-1.3-0.1c0,1-0.1,1.8-0.1,2.7
		c-1.1,0-2.1,0-3.3,0c0,1.5,0,3,0,4.5c-2.3,0-4.5,0-6.7,0c0-1,0-2,0-3.1c0.8,0,1.6,0,2.6,0c0-0.5,0-0.9,0.1-1.3c-1.3,0-2.6,0-3.9,0
		c-0.2,1.4,0,2.9-0.1,4.4c-2.2,0-4.4,0-6.6,0c0-1,0-2,0-3.2c0.9,0,1.7,0,2.6,0c0-0.4,0.1-0.8,0.1-1.3c-1.4-0.1-2.7,0-4.1,0
		c0,1.5,0,3,0,4.5c-2.3,0-4.4,0-6.7,0c0-1,0-2,0-3.2c0.9,0,1.7,0,2.6,0c0-0.5,0-0.8,0-1.3c-1.3,0-2.5,0-3.9,0c0,1.5,0,2.9,0,4.4
		c-2.3,0-4.5,0-6.7,0c0-1,0-2,0-3.1c0.8,0,1.7,0,2.6,0c0-0.5,0-0.9,0-1.3c-1.3,0-2.6,0-3.9,0c0,1.5,0,2.9,0,4.4c-2.3,0-4.5,0-6.7,0
		c0-1,0-2,0-3.1c0.9,0,1.7,0,2.6,0c0-0.5,0-0.8,0-1.3c-1.3,0-2.6,0-3.9,0c0,1.5,0,2.9,0,4.3c-0.9,0.3-4.8,0.3-6.7,0.1c0-1,0-2,0-3.1
		c0.8,0,1.7-0.1,2.6-0.1c0-0.4,0-0.7,0.1-1.2c-1.3,0-2.6,0-4,0c0,1.5,0,2.9,0,4.4c-2.3,0-4.4,0-6.7,0c0-1,0-2,0-3.2
		c0.9,0,1.7,0,2.6,0c0-0.5,0-0.8,0-1.2c-1.3,0-2.6,0-4,0c0,1.5,0,2.9,0,4.4c-2.3,0-4.4,0-6.7,0c0-1,0-2,0-3.2c0.8,0,1.6,0,2.5,0
		c0-0.5,0.1-0.8,0.1-1.3c-1.3-0.1-2.6,0-4,0c0,1.5,0,3,0,4.5c-2.3,0-4.4,0-6.6,0c-0.2-1-0.1-2-0.1-3.2c0.9,0,1.7,0,2.6,0
		c0-0.5,0.1-0.8,0.1-1.3c-1.4,0-2.7,0-4,0c0,1.5,0,2.9,0,4.4c-2.3,0-4.4,0-6.7,0c0-1,0-2.1,0-3.2c0.9,0,1.7,0,2.6,0
		c0-0.4,0.1-0.8,0.1-1.3c-1.4-0.1-2.7,0-4,0c0,1.5,0,3,0,4.5c-2.3,0-4.4,0-6.7,0c0-1,0-2,0-3.1c0.9,0,1.6,0,2.6,0
		c0-0.4,0-0.8,0.1-1.3c-1.4,0-2.6,0-4,0c0,1.4,0,2.9,0,4.3c-0.9,0.3-4.9,0.3-6.7,0.1c0-1,0-2,0-3.1c0.9,0,1.7,0,2.6,0
		c0-0.4,0.1-0.8,0.1-1.3c-1.4-0.1-2.7-0.1-4,0c0,1.5,0,2.9,0,4.4c-2.3,0-4.4,0-6.7,0c0-1,0-2,0-3.2c0.9,0,1.7,0,2.6,0
		c0-0.5,0-0.8,0.1-1.2c-1.3,0-2.6,0-3.9,0c0,1.4,0,2.9,0,4.3c-0.9,0.3-5.1,0.3-6.7,0.1c0-1,0-2,0-3.1c0.9,0,1.7,0,2.6,0
		c0-0.5,0-0.8,0-1.2c-1.3,0-2.5,0-4,0c0,1.4,0,2.9,0,4.4c-2.3,0-4.4,0-6.7,0c0-1,0-2,0-3.2c0.8,0,1.7,0,2.6,0c0-0.5,0-0.8,0.1-1.2
		c-1.3,0-2.6,0-4,0c0,1.4,0,2.9,0,4.4c-2.3,0-4.4,0-6.7,0c0-0.5,0-1,0-1.5s0-1,0-1.7c0.9,0,1.7,0,2.6,0c0-0.5,0.1-0.8,0.1-1.3
		c-1.4-0.1-2.6,0-4,0c0,1.5,0,3,0,4.5c-2.3,0-4.5,0-6.7,0c0-1,0-2,0-3.1c0.9,0,1.7-0.1,2.7-0.1c0-0.4,0.1-0.7,0.1-1.2
		c-1.4,0-2.7,0-4,0c0,1.5,0,2.9,0,4.4c-2.3,0-4.4,0-6.7,0c0-1,0-2.1,0-3.2c0.9,0,1.6,0,2.6,0c0-0.4,0-0.8,0.1-1.2c-1.4,0-2.6,0-4,0
		c0,1.5,0,2.9,0,4.4c-2.3,0-4.5,0-6.7,0c0-1,0-2,0-3.2c0.9,0,1.7,0,2.6,0c0-0.4,0.1-0.8,0.1-1.3c-1.4-0.1-2.7,0-4.1,0
		c0,1.5,0,2.9,0,4.4c-2.3,0-4.4,0-6.7,0c0-1,0-2,0-3.2c0.9,0,1.7,0,2.6,0c0-0.5,0-0.8,0-1.3c-1.3,0-2.6,0-3.9,0c0,1.5,0,2.9,0,4.4
		c-2.3,0-4.4,0-6.7,0c0-1,0-2.1,0-3.1c0.9,0,1.7,0,2.6,0c0-0.5,0-0.8,0.1-1.3c-1.4,0-2.6,0-4,0c0,1.5,0,2.9,0,4.4
		c-2.3,0-4.4,0-6.7,0c0-1,0-2.1,0-3.2c0.9,0,1.7,0,2.7,0c0-0.5,0-0.8,0-1.2c-1.3,0-2.6,0-4,0c0,1.5,0,2.9,0,4.4c-2.3,0-4.4,0-6.6,0
		c0-1,0-2,0-3.2c0.8,0,1.7,0,2.5,0c0-0.5,0.1-0.8,0.1-1.2c-1.3,0-2.6,0-4,0c0,1.5,0,2.9,0,4.4c-2.3,0-4.4,0-6.7,0c0-1,0-2,0-3.2
		c0.9,0,1.7,0,2.6,0c0-0.5,0-0.8,0-1.2c-1.3,0-2.6,0-4,0c0,1.4,0,2.9,0,4.4c-2.3,0-4.4,0-6.7,0c0-1,0-2,0-3.2c0.8,0,1.7,0,2.6,0
		c0-0.5,0-0.8,0-1.2c-1.3,0-2.6,0-3.9,0c0,1.4,0,2.9,0,4.2c-0.9,0.3-4.8,0.4-6.7,0.1c0-1,0-2,0-3.1c0.9,0,1.7,0,2.6,0
		c0-0.5,0-0.8,0.1-1.3c-0.7,0-1.3,0-1.9,0s-1.3,0-2.1,0c0,1.5,0,3,0,4.5c-2.3,0-4.4,0-6.7,0c0-1,0-2,0-3.2c0.8,0,1.7,0,2.6,0
		c0-0.4,0.1-0.7,0.1-1.1c-1.7,0-3.4,0-5.1,0c0-2.3,0-4.4,0-6.7c1.1,0,2.1,0,3.2,0c0,0.9,0,1.7,0,2.6c0.5,0,0.8,0,1.2,0
		c0-1.3,0-2.5,0-3.9c-1.5,0-2.9-0.1-4.4-0.1c0-2.2,0-4.4,0-6.6c1,0,2,0,3.1,0c0,0.8,0,1.7,0,2.6c0.5,0,0.9,0,1.3,0
		c0-1.3,0-2.6,0-3.9c-1.5,0-2.9,0-4.4,0c0-2.3,0-4.4,0-6.7c1,0,2,0,3.1,0c0,0.8,0,1.6,0,2.5c0.5,0,0.9,0,1.3,0c0-1.2,0-2.5,0-3.9
		c-1.5,0-2.9,0-4.4-0.1c0-2.2,0-4.4,0-6.7c1-0.1,2-0.1,3.2,0c0,0.9,0,1.8,0,2.7c0.5,0,0.8,0,1.2,0c0-1.3,0-2.6,0-4
		c-1.5,0-2.9,0-4.4,0c0-2.3,0-4.4,0-6.7c1,0,2.1,0,3.2,0c0,0.8,0,1.7,0,2.6c0.5,0,0.8,0,1.3,0c0-1.3,0-2.5,0-3.9c-1.4,0-2.9,0-4.4,0
		c0-2.3,0-4.4,0-6.6c1-0.2,2-0.1,3.2-0.1c0,0.9,0,1.7,0,2.6c0.5,0,0.8,0,1.3,0.1c0.1-1.4,0-2.6,0-4c-1.6,0-3,0-4.5,0
		c0-2.3,0-4.4,0-6.6c1-0.2,2-0.1,3.2-0.1c0,0.9,0,1.8,0,2.7c0.5,0,0.8,0,1.3,0c0.1-1.3,0.1-2.6,0.1-3.9c-1.5,0-3,0-4.5,0
		c0-2.3,0-4.4,0-6.6c1-0.2,2-0.1,3.2,0c0,0.9,0,1.7,0,2.6c0.5,0,0.8,0,1.2,0.1c0-1.3,0-2.6,0-4c-1.4,0-2.9,0-4.2,0
		c-0.3-1-0.3-5.3-0.1-6.7c1,0,1.9,0,3.1,0c0,0.8,0,1.7,0,2.6c0.5,0,0.9,0,1.4,0c0-0.5,0-1,0-1.5c0-0.8,0-1.6,0-2.5c-1.6,0-3,0-4.5,0
		c0-2.3,0-4.4,0-6.7c1,0,2,0,3.1,0c0,0.8,0,1.6,0,2.6c0.5,0,0.8,0,1.3,0.1c0-1.3,0-2.6,0-3.9c-1.4,0-2.9,0-4.4,0c0-2.3,0-4.4,0-6.6
		c1-0.2,2-0.1,3.2,0c0,0.9,0,1.7,0,2.6c0.5,0,0.8,0,1.2,0c0-1.3,0-2.6,0-4c-1.5,0-2.9,0-4.4,0c0-2.3,0-4.4,0-6.6c1,0,2,0,3.2,0
		c0,0.9,0,1.7,0,2.6c0.5,0,0.8,0,1.2,0c0-1.3,0-2.6,0-4c-1.5,0-2.9,0-4.4,0C6.4,41.1,6.4,38.9,6.4,36.7z M201.5,10.2
		c0.9,0,1.8-0.1,2.7-0.1c0-0.4-0.1-0.7-0.1-1c-1.5,0-2.9,0-4.5,0c0,1.5,0,3,0,4.4c-2.1,0-4.1,0-6.1,0c0-1.1,0-2.2,0-3.4
		c0.9,0,1.7,0,2.6,0c0-0.4,0-0.7-0.1-1.1c-0.8,0-1.5,0-2.2,0s-1.5,0-2.3,0.1c0,1.6,0,3,0,4.4c-2.1,0-4,0-6,0c0-1.1,0-2.2,0-3.3
		c0.9,0,1.7-0.1,2.6-0.1c0-0.4,0-0.7,0-1c-1.5,0-3,0-4.6,0c0,1.5,0,3,0,4.4c-2.1,0-4.1,0-6.1,0c0-1.1,0-2.2,0-3.3c0.7,0,1.3,0,1.9,0
		c0.8,0,0.8,0,0.7-1c-1.5,0-2.9,0-4.5,0c0,1.5,0,2.9,0,4.4c-2.1,0-4.1,0-6.1,0c0-1.1,0-2.2,0-3.4c0.9,0,1.7,0,2.6,0
		c0-0.4,0-0.7,0-1.1c-1.5,0-3-0.1-4.5,0c0,1.5,0,3,0,4.4c-2.1,0-4.1,0-6.1,0c0-1.1,0-2.2,0-3.3c0.9,0,1.8-0.1,2.7-0.1
		c0-0.4-0.1-0.7-0.1-1c-1.5,0-2.9,0-4.5,0c0,1.5,0,3,0,4.4c-2.1,0-4.1,0-6.1,0c0-1.1,0-2.2,0-3.3c0.9,0,1.7-0.1,2.6-0.1
		c0-0.4-0.1-0.7-0.1-1c-1.5,0-2.9,0-4.5,0c0,1.5,0,3,0,4.5c-1.1,0-2.1,0-3.1,0s-2,0-3,0c0.1-1.2-0.1-2.3,0.2-3.4
		c0.9,0,1.7-0.1,2.5-0.1c0-0.4,0-0.7,0-1c-1.5,0-3,0-4.5,0c0,0.8,0,1.5,0,2.2s0,1.4,0,2.2c-2.1,0-4.1,0-6.1,0c0-1.2,0-2.2,0-3.3
		c0.7,0,1.3,0,1.9,0c0.8,0,0.8-0.1,0.6-1c-1.5,0-2.9,0-4.5,0c0,1.5,0,2.9,0,4.4c-2.1,0-4.1,0-6.1,0c0-1.1-0.1-2.2,0.1-3.3
		c0.9,0,1.7-0.1,2.6-0.1c0-0.4-0.1-0.7-0.1-1c-1.5,0-2.9,0-4.5,0c0,1.5,0,3,0,4.4c-2.1,0-4.1,0-6.1,0c0-1.1,0-2.2,0-3.3
		c0.9-0.1,1.8-0.1,2.6-0.1c0-0.4,0-0.7,0-1c-1.5,0-3,0-4.6,0c0,1.5,0,3,0,4.5c-1.1,0-2.1,0-3.1,0s-2,0-2.9,0c0-1.2,0-2.3,0-3.4
		c0.9,0,1.7,0,2.5,0c0-0.4,0-0.7,0-1c-1.5,0-3,0-4.6,0c0,1.5,0,3,0,4.4c-2.1,0-4,0-6.1,0c0-1.1,0-2.2,0-3.4c0.9,0,1.8,0,2.7,0
		c0-0.5-0.1-0.8-0.1-1.1c-1.5,0-3,0-4.5,0c0,1.6,0,3,0,4.5c-2.1,0-4.1,0-6.1,0c0-1.1,0-2.2,0-3.3c0.9,0,1.8-0.1,2.7-0.1
		c-0.1-0.4-0.1-0.7-0.1-1c-1.5,0-3,0-4.5,0c0,1.5,0,3,0,4.4c-2.1,0-4,0-6,0c0-1.1,0-2.2,0-3.4c0.9,0,1.7,0,2.6,0c0-0.4,0-0.7,0-1
		c-1.5,0-3,0-4.6,0c0,1.5,0,3,0,4.5c-2.1,0-4.1,0-6,0c0-1.2,0-2.3,0-3.4c0.9,0,1.7-0.1,2.6-0.1c0-0.4,0-0.7,0-1c-1.5,0-3,0-4.5,0
		c0,1.6,0,3,0,4.4c-2.1,0-4.1,0-6.1,0c0-1.1,0-2.2,0-3.4c0.9,0,1.7,0,2.6,0c0-0.4,0-0.7-0.1-1.1c-1.5,0-3,0-4.6,0c0,1.6,0,3,0,4.5
		c-2.1,0-4.1,0-6.1,0c0-1.1,0-2.2,0-3.3c0.9-0.1,1.8-0.1,2.7-0.2c-0.1-0.4-0.1-0.7-0.1-1c-1.5,0-2.9,0-4.5,0c0,1.5,0,3,0,4.4
		c-2.1,0-4.1,0-6.1,0c0-1.1,0-2.2,0-3.3c0.9,0,1.7-0.1,2.6-0.1c0-0.4-0.1-0.7-0.1-1c-1.5,0-2.9,0-4.5,0c0,1.5,0,3,0,4.4
		c-2.1,0-4,0-6,0c0-1.1,0-2.2,0-3.4c0.9,0,1.7,0,2.6,0c0-0.4,0-0.7,0-1c-1.5,0-3,0-4.6,0c0,1.5,0,3,0,4.5c-2.1,0-4.1,0-6,0
		c0-1.2,0-2.3,0-3.4c0.7,0,1.3,0,1.9,0c0.8,0,0.8-0.1,0.7-1c-1.5,0-2.9,0-4.5,0c0,1.5,0,2.9,0,4.4c-2.1,0-4.1,0-6.1,0
		c0-1.1,0-2.2,0-3.4c0.9,0,1.7,0,2.6,0c0-0.4,0-0.7-0.1-1.1c-1.5,0-3,0-4.5,0c0,1.6,0,3,0,4.5c-2.1,0-4.1,0-6.1,0c0-1.1,0-2.2,0-3.3
		c0.9,0,1.8-0.1,2.7-0.1c-0.1-0.4-0.1-0.7-0.1-1c-1.5,0-2.9,0-4.5,0c0,1.5,0,3,0,4.4c-2.1,0-4.1,0-6.1,0c0-1.1,0-2.2,0-3.3
		c0.9,0,1.7-0.1,2.6-0.1c0-0.4-0.1-0.7-0.1-1c-1.5,0-2.9,0-4.5,0c0,1.5,0,3,0,4.5c-1.2,0-2.3,0-3.4,0c0,1,0,1.8,0,2.7
		c-1.2,0-2.3,0.1-3.5-0.1c0-0.9,0-1.7,0-2.7c-0.4,0-0.7,0-1,0.1c0,1.5,0,3,0,4.5c1.6,0,3,0,4.5,0c0,2.1,0,4,0,6.1
		c-1.2,0-2.2,0-3.4,0c0-0.9,0-1.7,0-2.6c-0.4,0-0.7,0-1.1,0c0,1.5-0.1,3,0.1,4.6c1.5,0,3,0,4.4,0c0,2.1,0,4.1,0,6
		c-1.2,0-2.2,0-3.4,0c0-0.9,0-1.7,0-2.6c-0.4,0-0.7,0-1.1,0.1c0,1.5,0,3,0,4.5c1.6,0,3,0,4.5,0c0,2.1,0,4,0,6.1c-1.1,0-2.2,0-3.4,0
		c0-0.9,0-1.8,0-2.7c-0.4,0-0.7,0-1,0.1c0,1.5,0,2.9,0,4.5c1.5,0,3,0,4.4,0c0,2.1,0,4.1,0,6.1c-1.1,0-2.2,0-3.4,0c0-0.9,0-1.7,0-2.6
		c-0.4,0-0.7,0-1.1,0c0.1,1.5-0.1,3,0.1,4.5c1.5,0,3,0,4.4,0c0,2.1,0,4.1,0,6c-1.1,0-2.2,0-3.3,0c0-0.9-0.1-1.8-0.1-2.6
		c-0.4,0-0.6,0-0.9,0c0,1.5,0,3,0,4.6c1.5,0,3,0,4.4,0c0,2.1,0,4.1,0,6.1c-1.1,0-2.2,0-3.4,0c0-0.9,0-1.8,0-2.6c-0.4,0-0.7,0-1,0
		c0,1.5,0,3,0,4.6c1.5,0,3,0,4.4,0c0,2.1,0,4,0,6c-1.1,0-2.2,0-3.4,0c0-0.9-0.1-1.7-0.1-2.6c-0.4,0-0.7,0-1,0c0,1.5,0,3,0,4.6
		c1.5,0,3,0,4.5,0c0,2.1,0,4.1,0,6.1c-1.2,0-2.3,0-3.4,0c0-0.9-0.1-1.8-0.1-2.6c-0.4,0-0.6,0-0.9,0c0,1.5,0,3,0,4.5
		c1.5,0,2.9,0,4.4,0c0,2.1,0,4.1,0,6.1c-1.1,0.1-2.2,0.1-3.5-0.1c0-0.9,0-1.7,0-2.5c-0.4,0-0.7,0-1,0c0,1.5,0,3,0,4.6
		c1.5,0,3,0,4.5,0c0,1.1,0,2.1,0,3.1s0.1,2-0.1,2.9c-1.1,0-2.2,0-3.3,0c-0.1-0.9-0.1-1.8-0.1-2.7c-0.4,0-0.7,0.1-1,0.1
		c0,1.5-0.1,3,0,4.5c1.5,0,3,0,4.5,0c0,2.1,0,4,0,6.1c-1.1,0-2.2,0-3.5,0c0-0.9,0-1.7,0-2.6c-0.4,0-0.7,0-1,0c0,1.5,0,3,0,4.6
		c1.5,0,3,0,4.4,0c0,2.1,0,4,0,6c-1.1,0-2.2,0-3.4,0c0-0.9,0-1.7,0-2.6c-0.4,0-0.7,0-1,0c0,1.5,0,3,0,4.6c1.5,0,3,0,4.5,0
		c0,1.1,0,2.1,0,3.1s0,2,0,2.9c-1.2,0-2.3,0-3.4,0c0-0.9,0-1.7,0-2.6c-0.4,0-0.7,0-1,0c0,1.5,0,3,0,4.5c1.5,0,2.9,0,4.4,0
		c0,2.1,0,4.1,0,6.1c-1.2,0.1-2.2,0.2-3.5-0.1c0-0.9,0-1.7,0-2.5c-0.4,0-0.7,0-0.9,0c0,1.5,0,3,0,4.6c1.5,0,3,0,4.4,0
		c0,2.1,0,4,0,6.1c-1.1-0.1-2.2,0.1-3.4-0.1c0-0.9,0-1.7,0-2.6c-0.4,0-0.7,0-1,0c0,1.5,0,2.8,0,4.3c1.7,0,3.3,0,4.9,0
		c0,1.2,0,2.3,0,3.5c-0.9,0-1.7,0-2.6,0c0,0.4,0.1,0.7,0.1,1c1.5,0,2.9,0,4.5,0c0-1.5,0-3,0-4.4c2-0.2,5.3-0.2,6.1,0.1
		c0,1.1,0,2.1,0,3.3c-0.9,0-1.8,0-2.7,0c0,0.4,0,0.6,0,1c1.5,0,3,0,4.6,0c0-1.5,0-3,0-4.5c1.1,0,2.1,0,3.1,0s2,0,2.9,0
		c0,1.2,0,2.3,0,3.5c-0.9,0-1.7,0-2.6,0c0,0.4,0,0.7,0,1c1.5,0,2.9,0,4.5,0c0-1.5,0-3,0-4.4c2.1,0,4,0,6.1,0c0,1.2,0.1,2.3-0.1,3.5
		c-0.9,0-1.7,0-2.5,0c0,0.4,0,0.6,0,0.9c1.5,0,3,0,4.6,0c0-1.5,0-3,0-4.4c2.1,0,4.1,0,6,0c0,1.2,0,2.3,0,3.5c-0.9,0-1.8,0-2.7,0
		c0,0.4,0.1,0.7,0.1,0.9c1.5,0,2.9,0,4.4,0c0.2-1.5-0.1-3,0.1-4.4c2.1,0,4,0,6,0c0,1.2,0,2.3,0,3.5c-0.9,0-1.7,0-2.6,0
		c0.1,0.4,0.1,0.7,0.1,1c1.5,0,2.9,0,4.4,0c0.2-1.5-0.1-3,0.2-4.5c1.1,0,2.1,0,3.1,0s2-0.1,2.9,0.1c0,1.2,0,2.3,0,3.5
		c-0.9,0-1.8,0-2.7,0c0,0.4,0,0.7,0.1,0.9c1.5,0,3,0,4.5,0c0-1.5,0-2.9,0-4.4c2.1,0,4.1,0,6.1,0c0,1.2,0,2.2,0,3.5
		c-0.9,0-1.7,0-2.6,0c0,0.4,0.1,0.7,0.1,1c1.5,0,2.9,0,4.4,0c0.3-1.5-0.1-3,0.2-4.5c1,0,2,0,2.9,0c1,0,2,0,3,0c0,1.2,0,2.3,0,3.5
		c-0.9,0-1.8,0-2.7,0c0,0.4,0.1,0.7,0.1,1c1.5,0,3,0,4.5,0c0-1.6,0-3,0-4.4c1.4-0.2,5.3-0.2,6.1,0c0,1.1,0,2.1,0,3.3
		c-0.9,0-1.8,0-2.7,0c0,0.4,0,0.6,0,1c1.5,0,3,0,4.5,0c0.3-1.5-0.1-3,0.2-4.4c2,0,4,0,6,0c0,1.2,0.1,2.3-0.1,3.5c-0.9,0-1.7,0-2.6,0
		c0,0.4,0,0.6,0.1,1c1.5,0,3,0.1,4.5-0.1c0-1.5,0-2.9,0-4.4c2.1,0,4.1,0,6.1,0c0,1.2,0,2.3,0,3.5c-0.9,0-1.8,0-2.7,0
		c0,0.4,0.1,0.7,0.1,0.9c1.5,0,3,0,4.5,0c0-1.5,0-2.9,0-4.4c2.1,0,4.1,0,6,0c0,1.2,0,2.3,0,3.5c-0.9,0-1.7,0-2.6,0c0,0.4,0,0.6,0,1
		c1.5,0,3,0.1,4.6-0.1c0-1.5,0-2.9,0-4.3c1.4-0.2,5.2-0.2,6.1,0.1c0,1,0,2.1,0,3.3c-0.9,0-1.8,0-2.7,0c0,0.4,0.1,0.7,0.1,1.1
		c1.3,0,2.6,0,3.8,0c0.2,0,0.4,0,0.7-0.1c0-1.5,0-2.9,0-4.4c2.1,0,4.1,0,6.1,0c0,1.2,0,2.3,0,3.4c-0.9,0-1.7,0-2.7,0
		c0,0.4,0,0.7,0.1,1c1.5,0,2.9,0,4.5,0c0-1.5,0.1-3,0.1-4.4c2.1,0,4,0,6,0c0,1.2,0,2.3,0,3.5c-0.9,0-1.7,0-2.6,0
		c0.1,0.4,0.1,0.7,0.1,1c1.5,0,2.9,0,4.5,0c0-1.5,0-3,0-4.5c1.1,0,2.1,0,3.1,0s2,0,2.9,0c0,1.2,0,2.3,0,3.5c-0.9,0-1.8,0-2.7,0
		c0,0.4,0,0.6,0,1c1.5,0,3,0,4.5,0c0.2-1.5-0.1-3,0.2-4.4c2.1,0,4,0,6,0c0,1.2,0,2.2,0,3.5c-0.9,0-1.7,0-2.6,0c0,0.4,0.1,0.7,0.1,1
		c1.5,0,2.9,0,4.4,0c0.3-1.5-0.1-3,0.2-4.4c2,0,4,0,6,0c0,1.2,0,2.3,0,3.5c-0.9,0-1.8,0-2.7,0c0,0.4,0.1,0.7,0.1,0.9
		c1.5,0,3,0,4.5,0c0-1.5,0-2.9,0-4.4c2.1,0,4.1,0,6.1,0c0,1.2,0,2.2,0,3.5c-0.9,0-1.8,0-2.7,0c0,0.4,0.1,0.7,0.1,1
		c1.5,0,3,0.1,4.5,0c0-1.5,0-3,0-4.5c2.1,0,4,0,6,0c0,1.1,0,2.2,0,3.4c-0.9,0-1.7,0-2.6,0c0,0.4,0,0.7,0.1,1.1c1.5,0,3,0.1,4.5-0.1
		c0-1.5,0-3,0-4.4c2.1,0,4.1,0,6.1,0c0,1.2,0,2.3,0,3.5c-0.9,0-1.8,0-2.7,0c0,0.4,0.1,0.7,0.1,1c1.5,0,3,0.1,4.5,0c0-1.6,0-3,0-4.4
		c2.1,0,4.1,0,6.1,0c0,1.2,0,2.2,0,3.4c-0.9,0-1.7,0-2.6,0c0,0.4,0,0.7,0,1.1c1.5-0.1,3,0.1,4.5-0.1c0-1.5,0-2.9,0-4.3
		c1.7-0.2,5.2-0.2,6.1,0.1c0,1.1,0,2.1,0,3.3c-0.9,0-1.8,0-2.7,0c0,0.4,0.1,0.7,0.1,1c1.5,0,2.9,0,4.5,0c0-1.5,0-3,0-4.4
		c2.1,0,4.1,0,6.1,0c0,1.2,0,2.3,0,3.5c-0.9,0-1.7,0-2.6,0c0,0.4,0,0.6,0.1,1c1.5,0,3,0.1,4.6,0c0-1.6,0-3,0-4.4c2.1,0,4,0,6,0
		c0,1.2,0.1,2.3,0,3.5c-0.9,0-1.7,0-2.6,0c0,0.4,0.1,0.7,0.1,1c1.4,0,2.6,0,3.9,0c0.1,0,0.3-0.1,0.6-0.1c0-1.5,0-2.9,0-4.4
		c2.1,0,4.1,0,6.1,0c0,1.2,0,2.3,0,3.4c-0.9,0-1.7,0-2.7,0c0,0.4,0,0.7,0.1,1c1.5,0,2.9,0,4.5,0c0-1.5,0-3,0-4.5c1.2,0,2.3,0,3.5,0
		c0-0.9,0-1.8,0-2.6c1.2,0,2.2,0,3.3,0c0,0.9,0.1,1.7,0.1,2.6c0.4,0,0.7-0.1,1-0.1c0.2-1.7,0.2-3.6-0.2-4.6c-1.4,0-2.8,0-4.2,0
		c-0.2-1.7-0.2-5.2,0.1-6c1,0,2,0,3.2,0c0,0.9,0,1.8,0,2.7c0.5,0,0.7,0,1.1-0.1c0-1.5,0-3,0-4.5c-1.6,0-3,0-4.5,0c0-2.1,0-4.1,0-6.1
		c1.1,0,2.2,0,3.3,0c0,0.9,0.1,1.8,0.1,2.7c0.4,0,0.7-0.1,1-0.1c0-1.5,0-2.9,0-4.5c-1.5,0-3-0.1-4.4-0.1c0-2.1,0-4,0-6
		c1.1,0,2.2,0,3.3,0c0,0.9,0.1,1.7,0.1,2.6c0.4,0,0.7,0,1.1-0.1c0-1.5,0.1-3-0.1-4.5c-1.5,0-3,0-4.4,0c0-2.1,0-4.1,0-6.1
		c1.1,0,2.2,0,3.3,0c0,0.9,0.1,1.8,0.1,2.7c0.4-0.1,0.7-0.1,1-0.1c0-1.5,0-2.9,0-4.5c-1.5,0-3,0-4.5,0c0-1.2,0-2.1,0-3.1
		s-0.1-2,0.1-2.9c1.1,0,2.1,0,3.3,0c0,0.9,0,1.7,0,2.6c0.4,0,0.7,0,1.1,0c0-1.5,0-3,0-4.6c-1.5,0-3,0-4.4,0c0-2.1,0-4,0-6
		c1.1,0,2.2,0,3.4,0c0,0.9,0,1.8,0,2.7c0.5-0.1,0.7-0.1,1-0.1c0-1.5,0-2.9,0-4.5c-1.5,0-3,0-4.4,0c0-2.1,0-4.1,0-6.1
		c1.1,0,2.2,0,3.4,0c0,0.9,0,1.7,0,2.6c0.4,0,0.7,0,1,0c0-1.5,0-3,0-4.6c-1.5,0-2.9,0-4.3,0c-0.2-1.4-0.2-5.2,0-6.1
		c1,0,2.1-0.1,3.2,0.1c0,0.9,0,1.7,0,2.6c0.4,0,0.7,0,1-0.1c0-1.5,0-3,0-4.5c-1.5,0-3,0-4.5,0c0-2.1,0-4.1,0-6.1c1.2,0,2.3,0,3.4,0
		c0,0.9,0,1.7,0,2.6c0.4,0,0.7,0,1,0c0-1.5,0-3,0-4.5c-1.5,0-2.9,0-4.4,0c0-2.1,0-4.1,0-6.1c1.1,0,2.2,0,3.3,0
		c0,0.9,0.1,1.7,0.1,2.6c0.4,0,0.7-0.1,1.1-0.1c0-1.5,0.1-3-0.1-4.5c-1.6,0-3,0-4.5,0c0-1.1,0-2.1,0-3.1s0-2,0-2.9
		c1.2,0,2.3,0,3.4,0c0,0.9,0,1.7,0,2.6c0.4,0,0.7,0,1,0c0-1.5,0-3,0-4.5c-0.8,0-1.5,0-2.2,0s-1.4,0-2.1,0c-0.3-1.4-0.2-5.3,0.1-6.1
		c1,0,2.1,0,3.2,0c0,0.9,0,1.7,0,2.6c0.4,0,0.7,0,1.1,0c0-1.5,0-3,0-4.5c-1.6,0-3,0-4.4,0c-0.2-1.5-0.2-5.2,0.1-6c1,0,2,0,3.2,0
		c0,0.9,0,1.7,0,2.6c0.5,0,0.8-0.1,1.1-0.1c0-1.5,0-3,0-4.5c-1.5,0-3,0-4.4,0c0-2.1,0-4.1,0-6.1c1.1,0,2.2,0,3.4,0
		c0,0.9,0,1.7,0,2.6c0.4,0,0.7,0,1,0c0-1.5,0-3,0-4.5c-1.5,0-2.9,0-4.4,0c0-2.1,0-4.1,0-6c1.1,0,2.2,0,3.3,0c0,0.9,0.1,1.7,0.1,2.6
		c0.4,0,0.7-0.1,1.1-0.1c0-1.5,0.1-2.8,0-4.3c-1.7,0-3.3,0-5,0c0-1.2,0-2.2,0-3.4c0.9,0,1.7,0,2.6,0c0-0.4,0-0.7,0-1.1
		c-1.5,0-3,0-4.6,0c0,1.5,0,3,0,4.4c-2.1,0-4.1,0-6.1,0c0-1.1,0-2.2,0-3.4c0.7,0,1.3,0,1.9,0c0.8,0,0.8,0,0.7-1c-1.5,0-2.9,0-4.5,0
		c0,1.5,0,2.9,0,4.4c-2.1,0-4.1,0-6.1,0c0-1.1,0-2.2,0-3.4c0.9,0,1.7,0,2.6,0c0-0.4,0-0.7,0-1.1c-1.5,0-3-0.1-4.5,0c0,1.5,0,3,0,4.4
		c-2.1,0-4.1,0-6.1,0C201.5,12.4,201.5,11.4,201.5,10.2z"/>
	<path class="st0" d="M166.5,58.6c1.7-2.1,3.4-3.6,5.9-4.2c2.8-0.7,5.2,0,7.1,2.1c1.9,2,2.5,4.4,1.7,7.1c-0.1,0.2-0.1,0.5-0.2,0.7
		c0,0,0,0.1,0,0.2c1.6,0.1,3.2,0.2,4.7,0s3-0.6,4.4-1.1c1.6-0.5,2.7-1.5,2.6-3.4c2.6,1.1,2.8,3.4,0.5,5.8c0.3,0,0.6,0.1,0.8,0.1
		c3.3-0.2,6.3-1.4,8.9-3.5c0.6-0.5,1.2-1.1,1.6-1.8c1-1.5,0.8-2.9-0.6-4.2c-0.1-0.1-0.3-0.3-0.5-0.4c1.2-0.1,2.8,0.7,3.7,1.8
		c1.1,1.4,1.3,3,0.8,4.6c-0.8,2.5-2.5,4.1-5.1,4.7c-0.3,0.1-0.7,0.2-1.3,0.3c1.7,1.1,3.6,0.6,5.1,1.4c-2,0.9-4,1.7-6,2.6
		c0.2,0.1,0.6,0.2,1.2,0.5c-1.3,0.4-2.4,0.8-3.5,1.2c1.6,0.6,3.4,0.8,5.4,0.8c-2,1-3.9,1.5-6,1.4c0.3,0.3,0.4,0.5,0.6,0.6
		c0.1,0.1,0.3,0.2,0.5,0.3c-1.1,0.8-1.4,0.8-4.2,0c-0.6,2-1.4,3.8-3.8,4.4c-0.1-1.9-1-3.3-2-4.9c-0.6,1.7-1.5,3.1-2.6,4.4
		c0.3,0.9,0.9,1.7,2.2,1.9c-0.7,0.7-1,0.8-1.8,0.4c-1.1-0.6-1.8-1.5-2.5-2.5c-0.7-0.9-1.3-1.8-2-2.7c-2.7-3.2-6.1-5.1-10.2-5.8
		c-8.6-1.5-15.4,1.7-20.6,8.5c-1.3,1.7-2,3.8-2.7,5.8c-0.1,0.3-0.2,0.7-0.5,1c0.1-0.9,0.2-1.8,0.4-2.6c0.6-2.9,1.5-5.6,2.9-8.2
		c1.7-3.2,3.7-6.1,6-8.9c0.9-1.1,1.7-2.3,2.5-3.5c0.8-1.3,1.3-2.8,1.5-4.4c0.2-1.7-0.3-3.1-1.6-4.1c-0.6-0.5-1.4-0.9-2.1-1.4
		c-0.3-0.2-0.5-0.3-0.9-0.5c2.2-0.6,4.4-0.1,6,1.1c2.1,1.7,2.5,4.8,1.1,6.5c-0.1,0.1-0.1,0.2-0.2,0.3c1.1,0.2,1.6-0.1,3.5-1.6
		c0.3,1.3,0,2.7-1.1,3.6c-0.6,0.6-1.4,1-2.1,1.5c-1.8,1.1-3.6,2.2-5.4,3.3c-1.6,1.1-3,2.4-4.1,4c-0.1,0.2-0.2,0.4-0.2,0.7
		c0.2-0.2,0.5-0.4,0.7-0.7c1.9-2.2,4.2-3.8,6.7-5.2c1.8-0.9,3.5-1.9,5.2-2.9c0.9-0.5,1.7-1.2,2.5-1.9c0.7-0.6,0.9-1.5,0.5-2.4
		s-1.2-1.3-2.1-1.2C167.5,58.4,167.1,58.5,166.5,58.6z M178.4,65.8c-0.1-0.1-0.1-0.1-0.2-0.2c-1.3,1.4-3,1.8-4.8,1.9
		c-1,0.1-2.1,0-3.1,0c-3.9,0.1-7.6,1.1-11,3.2c-0.2,0.1-0.4,0.3-0.6,0.5c0.1,0.1,0.2,0.1,0.2,0.1c0.3-0.1,0.7-0.3,1-0.4
		c2.4-1.1,4.9-1.9,7.6-2.2c4.4-0.5,8.6,0.5,12.4,2.7c0.3,0.1,0.5,0.3,0.8,0.4c-0.7-0.7-1.5-1.3-2.3-1.8s-1.7-1-2.8-1.5
		c0.4-0.1,0.6-0.2,0.7-0.2c0.3,0,0.6,0,0.8,0c2.1,0,4.2,0.5,6.2,1.4c3.5,1.5,7.1,1.8,10.8,0.8c1.4-0.4,2.7-0.8,3.9-1.6
		c-0.3,0-0.6,0-0.9,0.1c-3.6,0.9-7.2,1.1-10.9,0.1c-2.8-0.8-5.6-1.7-8.6-1.5C177.9,66.9,178.1,66.4,178.4,65.8z"/>
	<path class="st0" d="M43.3,76.2c-1.4,0.5-2.8,1.1-4.2,0.1c0.3-0.3,0.6-0.6,1.2-1c-2.2,0-4.1-0.4-5.8-1.4c1.8-0.1,3.5-0.3,5.1-0.9
		c-1.1-0.4-2.2-0.7-3.5-1.2c0.6-0.2,1-0.4,1.3-0.5c-2-0.8-4-1.7-6-2.5c1.5-0.8,3.4-0.3,5.1-1.4c-0.7-0.1-1.1-0.2-1.6-0.3
		c-2.8-0.7-4.9-3.3-5-6.2c0-2,0.9-3.5,2.7-4.5c0.7-0.3,1.4-0.5,2.2-0.6c-0.2,0.2-0.5,0.4-0.7,0.6c-1.2,1.1-1.5,2.4-0.7,3.9
		c0.3,0.6,0.8,1.2,1.3,1.7c2.7,2.4,5.9,3.7,9.6,3.9c0.1,0,0.3,0,0.6-0.1c-1.1-1-2-2.1-1.7-3.6c0.3-1.1,1-1.8,1.9-2.3
		c0.1,0.1,0.2,0.1,0.2,0.1c-0.1,1.7,0.8,2.7,2.2,3.2c1.4,0.5,2.8,0.9,4.3,1.2c1.7,0.3,3.5,0.1,5.3,0.1c-0.4-1.4-0.8-2.7-0.5-4.1
		c0.8-4.4,5-7.1,9.3-5.9c2.4,0.7,4.1,2.2,5.7,4.2c-0.6,0-1.1-0.1-1.5-0.1c-0.9,0-1.5,0.4-1.9,1.3c-0.4,0.8-0.3,1.6,0.4,2.2
		c0.6,0.6,1.2,1.2,1.9,1.6c1.5,0.9,3.1,1.9,4.7,2.7c3.1,1.6,5.9,3.4,8.2,6.1c0.1,0.1,0.2,0.2,0.5,0.2c-0.1-0.2-0.2-0.5-0.4-0.7
		c-1.1-1.5-2.4-2.8-4-3.8c-1.7-1.1-3.4-2.1-5.1-3.1c-0.5-0.3-1-0.5-1.4-0.8c-1.6-1-2.4-2.5-2.3-4.6c1.1,0.9,2.2,1.9,3.7,1.9
		c-0.1-0.2-0.2-0.4-0.3-0.5c-1.6-2.2-0.6-5.1,1.1-6.5c1.1-0.9,2.4-1.3,3.8-1.4c0.7,0,1.4,0,2.2,0.2c-0.3,0.2-0.5,0.3-0.8,0.5
		c-0.8,0.5-1.7,1-2.5,1.7c-1.2,1-1.6,2.4-1.3,3.9c0.4,2.5,1.5,4.7,3,6.7c2,2.5,4,5,5.7,7.7c1.8,3,3.3,6,4,9.4c0.3,1.3,0.6,2.6,0.5,4
		c-0.2-0.5-0.4-1.1-0.5-1.6c-1.3-4.3-3.8-7.6-7.3-10.2c-4-3-8.4-4.2-13.3-4c-4.1,0.2-7.6,1.6-10.8,4.1c-1.5,1.2-2.6,2.8-3.7,4.4
		c-0.7,1.1-1.5,2.1-2.6,2.8c-0.8,0.5-1.2,0.4-2-0.3c1.3-0.1,1.9-1,2.3-2c-1.2-1.2-1.9-2.6-2.6-4.1c-1.1,1.2-1.6,2.4-2.1,4.7
		C44.8,80.1,43.9,78.3,43.3,76.2z M39.6,68.6c4.8,2.6,9.9,3.2,15.1,1.1c1.4-0.6,2.9-1.1,4.5-1.3c1-0.1,2.1-0.3,3.1,0.1
		c-0.3,0.3-0.7,0.4-1,0.6c-1.4,0.8-2.8,1.5-4.2,2.3c-0.5,0.3-1,0.7-1.2,1.4c0.2,0,0.2,0,0.2,0c0.2-0.1,0.5-0.3,0.7-0.4
		c4.7-3,9.8-3.9,15.2-2.9c2.4,0.5,4.8,1.2,7.1,2.2c0.3,0.1,0.6,0.4,1,0.1c-1.6-1.3-3.3-2.3-5.2-3c-2.8-1-5.8-1.3-8.7-1.2
		c-2.3,0.1-4.6-0.1-6.6-1.7c0.3,0.5,0.5,1,0.8,1.5c-1.2,0.1-2.3,0.1-3.4,0.3c-1.6,0.3-3.1,0.7-4.6,1.1c-2.7,0.7-5.4,1.1-8.2,0.6
		C42.6,69.2,41.1,68.9,39.6,68.6z"/>
	<path class="st0" d="M63.6,86.6c1.8-1.2,5-0.7,6.3,2.1c1.3,2.7,0.8,7.2-3.3,9c-2.9,1.3-5.8,1.1-8.5-0.6c-3.9-2.5-5.7-6.2-5.3-10.8
		c0.5-5.5,3.4-9.4,8.2-11.9c5.9-3,12-3.2,17.8,0.1c4.6,2.6,8.1,6.4,9.7,11.6c1.8,5.8-0.7,11.9-4.6,15.1c-0.5,0.5-1.2,0.8-1.8,1.1
		c-0.4,0.2-1,0.2-1.5,0.3c-0.1-0.1-0.1-0.2-0.2-0.3c0.2-0.3,0.5-0.6,0.7-0.8c0.8-0.8,1.7-1.7,2.6-2.5c2.5-2.6,3.2-5.6,2.2-9.1
		C85,86.8,83.4,84,81,81.8c-2.3-2.1-5-3.1-8-3.3c-1.4-0.1-2.6,0.3-3.2,1.8c0,0.1-0.1,0.2-0.1,0.2c-0.2,0.3-0.5,0.5-0.8,0.2
		c-0.2-0.1-0.3-0.5-0.2-0.7c0.3-1.1,1.1-1.8,2.2-2.2c1.5-0.5,3-0.4,4.5-0.2c3.3,0.5,5.7,2.4,7.7,4.9c1.1,1.4,1.9,2.9,2.8,4.4
		c0.2,0.3,0.3,0.6,0.5,1.1c0-0.4,0-0.5,0-0.7c-1.8-6-5.8-9.8-12-11c-2.4-0.5-4.9-0.3-7,1.3c-1.2,0.9-2.2,2-2.5,3.5
		c0,0.3-0.1,0.5-0.2,0.8c-0.2,0.7-0.5,1.2-1.2,1.3c-0.8,0.1-1.5,0-1.9-0.7c-0.7-1-0.9-2-0.3-3.1c0.7-1.5,1.7-2.7,3.1-3.6
		c0.3-0.2,0.6-0.4,1-0.7c-3.5,0.4-5.1,2.4-5.8,6.9c-0.7,0.4-1.5,0.8-2.1,1.3c-2.1,1.9-2.9,4.3-2.4,7c0.9,5.1,6,8,10.8,6.2
		c3.3-1.2,4.7-4.8,3-7.9c-1.1-1.9-3.1-2.8-4.8-2.2C64,86.7,63.8,86.6,63.6,86.6z"/>
	<path class="st0" d="M157.6,102.4c-0.8,0.3-1.5,0.2-2-0.2c-1-0.6-1.9-1.3-2.7-2.1c-4.5-4.9-5.3-11.8-1.8-17.5
		c2.8-4.6,6.5-8.1,11.8-9.6c6.5-1.7,12.6-0.6,17.7,4c3.7,3.3,5.2,7.6,4.5,12.4c-0.6,4.4-4,8.1-8,8.9c-2,0.4-3.9,0.3-5.7-0.6
		c-3.4-1.6-4.8-5.6-3.2-8.9c1.1-2.5,4.1-3.4,6.5-2.1c-0.4,0-0.6,0-0.8-0.1c-1.8-0.4-3.2,0.2-4.2,1.6c-2.1,2.8-1.5,7.6,3.3,8.8
		c6,1.5,9.8-3.2,10.2-7.1c0.3-3.3-1.4-6.2-4.6-7.6c-0.2-3.6-1.7-6.3-5.7-6.9c0.3,0.2,0.6,0.4,0.9,0.6c1.3,0.9,2.4,2.1,3.1,3.6
		c0.4,1,0.4,1.9-0.1,2.9c-0.4,0.8-1.2,1.1-2,1c-0.9-0.1-1.2-0.7-1.4-1.4c-0.2-1-0.4-2.1-1.2-3c-1.4-1.5-3.1-2.5-5.2-2.7
		c-6.2-0.6-12.8,3.4-15,10.4c-0.1,0.3-0.2,0.6-0.1,1c0.1-0.3,0.3-0.5,0.4-0.8c1.2-2.4,2.7-4.6,4.8-6.4c2.6-2.3,5.5-3.3,8.9-2.9
		c1.3,0.1,2.5,0.5,3.2,1.7c0.4,0.7,0.5,1.1,0.1,1.4s-0.6,0.1-1.1-0.7c-0.6-1.1-1.6-1.5-2.7-1.5c-2.9,0-5.6,0.9-7.8,2.8
		c-3.4,2.9-5.5,6.6-5.9,11.1c-0.2,1.8,0.3,3.5,1.4,4.9s2.4,2.6,3.6,3.9C156.9,101.6,157.2,102,157.6,102.4z"/>
	<path class="st0" d="M119,40.3c2.3,4.1,4.6,8.1,6.9,12.2c2.3-0.7,3.9,0.5,5.3,2.1c1.2,1.4,2,2.9,2.7,4.6c0.9,2.2,1.7,4.5,2.6,6.7
		c0.9,2.1,1.9,4,3.6,5.6c0.1,0.1,0.1,0.2,0.2,0.4c-0.5,0.1-0.8-0.3-1.1-0.5c-0.9-0.6-1.7-1.3-2.6-1.9c-0.4-0.3-0.9-0.6-1.3-1
		c-0.6-0.7-0.9-1.5-0.6-2.6c0.5,0.2,0.9,0.4,1.3,0.6c0-0.1,0.1-0.3,0-0.3c-0.8-1.8-1.7-3.5-3.3-4.8c-0.3-0.2-0.6-0.5-0.8-0.8
		c-0.1-0.1-0.1-0.5,0-0.6c0-0.1,0.4-0.1,0.5,0c0.2,0.1,0.5,0.2,0.9,0.4c-0.7-2.3-1.7-4.1-4-5.1c0.4-0.3,0.6-0.4,0.8-0.5
		c-0.7-1.1-2.7-1.9-4.2-1.4c3.5,6.2,7,12.3,10.4,18.4c3.5,6.1,7,12.3,10.5,18.6c-5.1,0-10.1,0-15,0c-0.2,0.2-0.3,0.3-0.3,0.5
		c-1.1,2.2-3,3-5.4,3.2c-2.5,0.2-4.9-0.3-7.3-0.9c-2.1-0.5-4.2-0.9-6.3-1.2c-1.4-0.2-2.8,0-4.2,0.1c-0.3,0-0.6,0-0.9,0.1
		c0-0.1,0-0.2-0.1-0.2c1.2-0.4,2.4-0.8,3.6-1.2c0-0.1,0-0.2-0.1-0.3c-6.8,0-13.5,0-20.5,0c7.1-12.4,14-24.7,20.9-36.9
		c-1.2-0.6-2.8-0.1-4.2,1.3c0.3,0.2,0.5,0.3,0.7,0.5c-0.8,0.7-1.7,1.4-2.3,2.2c-0.7,0.8-1.2,1.8-1.4,3c0.5-0.2,0.9-0.3,1.3-0.4
		c0.4,0.8-0.1,1.2-0.5,1.5c-1.7,1.1-2.5,2.8-3.3,4.4c-0.1,0.2-0.2,0.5-0.3,0.9c0.6-0.3,0.9-0.4,1.4-0.7c0.3,0.9,0,1.5-0.3,2
		c-0.2,0.3-0.5,0.6-0.8,0.9c-1.2,1-2.4,1.9-3.6,2.9c-0.2,0.1-0.4,0.2-0.7,0.1c0.1-0.1,0.2-0.3,0.3-0.4c1.3-1.2,2.3-2.8,3-4.4
		c0.9-2,1.7-4.1,2.5-6.1c0.8-2.1,1.7-4.2,3.2-6c0.3-0.4,0.7-0.8,1.1-1.1c1.2-1,2.6-1.8,4.4-1.1C114.3,48.4,116.6,44.4,119,40.3z
		 M119,42.2C117.7,44,92.8,88,92.6,88.9c17.6,0,35.2,0,52.9,0C136.7,73.3,127.9,57.8,119,42.2z M114.5,91.2l0.1,0.1
		c1.9,0.4,3.8,0.6,5.8,0c0.4-0.1,0.9-0.2,1.4-0.3c0.1,0,0.4,0.2,0.4,0.3c0,0.1-0.1,0.4-0.2,0.5c-0.2,0.2-0.5,0.3-0.8,0.5
		c1.1,0.6,2.1,0.5,3.2,0.6c1.2,0.1,2.1-0.6,3.2-0.9c0,0.4,0,0.7,0.1,1c2.2-0.6,3.3-1.7,3.4-3.1c-5.1,0-10.2,0-15,0
		C115.4,90.5,114.9,90.9,114.5,91.2z"/>
	<path class="st0" d="M212.8,93.1c-1.6-1-2.7-0.7-3.7,0.7c-0.9,1.3-1,2.7-0.4,4.2c0.1,0.3,0.3,0.6,0.5,0.8c2.1,2.7,4.9,3.9,8.2,3.4
		c3.2-0.5,5.4-2.5,6.3-5.7c0.7-2.7-0.2-5.1-2.1-7.1c-0.5-0.6-1.2-0.9-2-0.8c-0.2,0-0.5,0-0.7,0c0.4-1.1,0.6-1.2,3.4-1.2
		c-1.2-1.8-2.5-3.6-2.1-5.9c0.4-2.2,1.1-4.2,3.2-5.6c-2-1.4-2.8-3.4-3.2-5.6c-0.4-2.3,0.9-4.1,2.2-6c-1.4,0-2.7,0.3-3.6-1.1
		c0.4,0,0.6-0.1,0.8-0.1c1,0.1,1.8-0.3,2.4-1.1c4.1-5,1.4-10.9-3.5-12.3c-3.3-1-6.3,0.1-8.6,2.5c-1.6,1.6-1.8,4-0.6,5.7
		c1,1.5,2.1,1.7,3.8,0.7c-0.8-1.2-1-2.5-0.9-4c0.1-0.9,0.3-1.7,1.2-2c1-0.4,1.7,0.2,2.4,0.8c0.6,0.6,1,1.4,1.1,2.3
		c0.2,2-1.5,4.4-3.5,4.9c-0.9,0.2-1.8,0.1-2.7-0.4c-2.9-1.6-3.9-5.3-1.9-8c1.6-2.3,3.9-3.5,6.7-3.8c5.9-0.7,8.9,3.6,9.5,8.1
		c0.4,2.6-0.2,5.2-0.6,7.7c-0.4,2.2-0.7,4.4-0.9,6.6c-0.1,1.5,0,3,0.7,4.5c0.1,0.3,0.1,0.8,0,1.1c-0.9,2.3-0.8,4.6-0.5,7
		c0.3,2.3,0.8,4.6,1.2,7s0.4,4.8-0.4,7.1c-1,2.8-2.7,4.9-5.7,5.7c-3.4,0.9-7.8-0.5-9.9-3.4c-2-2.7-1.3-6.5,1.6-8.2
		c1.4-0.8,2.8-0.8,4,0.2c1.5,1.1,2.5,2.5,2.2,4.6c-0.2,1.1-0.7,1.9-1.7,2.5c-1.3,0.8-2.5,0.3-2.8-1.1c-0.3-1.3-0.2-2.6,0.4-3.9
		C212.5,93.6,212.6,93.3,212.8,93.1z"/>
	<path class="st0" d="M24.8,58.6c1.5,1,2.7,0.8,3.6-0.5c1.2-1.6,1.2-3.8-0.1-5.5c-1.3-1.8-3.2-2.7-5.4-3.1c-2.8-0.5-5.2,0.2-7.2,2.3
		c-2.2,2.3-2.6,7.5,0.2,10.4c0.6,0.6,1.3,1,2.1,0.9c0.3,0,0.5,0,1,0c-0.9,1.5-2.2,1.3-3.6,1.2c1.3,1.9,2.6,3.8,2.2,6.1
		c-0.4,2.2-1.2,4.1-3.2,5.5c2,1.4,2.8,3.4,3.2,5.5c0.4,2.3-0.8,4.1-2.2,6.1c0.8,0,1.5-0.1,2.1,0s1.2,0.4,1.5,1.1
		c-0.3,0-0.4,0.1-0.6,0.1c-1.4-0.2-2.2,0.5-3,1.5c-2.7,3.4-1.9,9.6,2.8,11.6c3.2,1.4,7.8,0.3,9.9-2.4c1.4-1.7,1.5-3.9,0.3-5.6
		c-1-1.4-2.1-1.6-3.7-0.7c0.1,0.3,0.2,0.5,0.4,0.8c0.5,1.1,0.6,2.2,0.4,3.4c-0.2,1-0.9,1.7-1.7,1.8c-0.8,0.1-1.9-0.4-2.3-1.2
		c-0.1-0.2-0.2-0.5-0.3-0.8c-0.5-1.8,0.4-4.2,1.9-5.4c1.3-1,2.9-1,4.3-0.2c3,1.9,3.6,5.6,1.4,8.3c-2.5,2.9-5.7,3.9-9.4,3.3
		c-3.2-0.6-6.1-4.1-6.5-7.5c-0.3-2.7,0.2-5.4,0.6-8.1c0.3-2.1,0.7-4.3,0.9-6.4c0.2-1.6,0-3.2-0.6-4.7c-0.1-0.3-0.2-0.8,0-1.1
		c1-2.4,0.8-4.8,0.5-7.2c-0.3-2.3-0.8-4.6-1.2-6.8c-0.3-2.2-0.5-4.4,0.1-6.5c0.9-3.1,2.9-5.3,6.1-6.2c3.4-1,8,0.8,9.9,3.8
		c1.8,2.7,0.8,6.5-2.2,8c-1.2,0.6-2.4,0.6-3.5-0.2c-1.7-1.1-2.8-2.5-2.4-4.7c0.2-1.1,0.7-1.9,1.6-2.5c1.3-0.8,2.5-0.4,2.8,1.1
		c0.3,1.3,0.3,2.6-0.4,3.9C25.1,58.1,24.9,58.3,24.8,58.6z"/>
	<path class="st0" d="M85.3,128.6c0-0.3-0.1-0.6-0.1-0.8c1.1-0.6,2.2-0.7,3.3-0.3c2.3,0.7,4.5,1.7,6.6,2.8c1.2,0.6,2.4,1.4,3.6,1.9
		c1.3,0.5,2.7,0.8,4.1,1.2c0.2,0.1,0.4,0,0.6,0c0.1,0,0.1-0.1,0.3-0.3c-0.4-0.2-0.7-0.5-1.1-0.6c-0.8-0.3-1.7-0.4-2.5-0.6
		c-2.1-0.5-3.8-1.6-5.3-3.1c-0.7-0.8-1.1-1.7-0.9-2.7c0.1-0.5,0.1-1,0.1-1.7c0.7,0.4,1.3,0.8,2.2,1.3c-0.2-0.5-0.2-0.9-0.4-1.2
		c-1-1.3-0.7-2.6,0.1-3.9c0.2-0.4,0.5-0.8,0.8-1.2c0.3,0.4,0.6,0.7,0.9,1.1c0.4-0.5,0.7-0.9,1-1.4c0.5-0.9,1.3-1.4,2.3-1.5
		c0.8-0.1,1.5,0.2,1.9,0.9c-0.1,0.1-0.2,0.2-0.3,0.2c-2.2,0.2-3.6,1.4-4,3.5c-1.1,6.6,5.1,10.9,10.3,9.5c2-0.5,3.4-1.8,4.3-3.6
		c0.2-0.5,0.4-1.2,1-1.3c0.7-0.1,1.5,0,2.3,0c0.5,0.1,0.7,0.5,0.5,0.9c-0.2,0.7-0.4,1.4-0.7,2c-1.3,2.5-3.4,4.2-6.1,5
		c-1.7,0.5-3.4,0.7-5.2,0.7c-1.1,0-2.2,0.1-3.3,0.2c-0.2,0-0.4-0.1-0.8-0.1c0.2-0.4,0.4-0.8,0.6-1.3c-0.3-0.1-0.7-0.3-1-0.4
		c-1.5-0.3-3.1-0.5-4.6-0.7c-0.9-0.1-1.8,0.3-2.6,0.7c-0.5,0.2-1,0.5-1.7,0.2c-0.1-0.3-0.1-0.7-0.2-1.2c-0.6,0.5-1,1-1.5,1.4
		c-1.1,0.9-1.9,0.8-2.9-0.3c0.8-0.7,1.6-1.4,2.6-2.3c-0.5-0.2-0.8-0.4-1.2-0.6c1.1-1.2,2.3-1.1,3.7-1.3c-0.4-0.1-0.5-0.2-0.7-0.2
		c-1.7-0.2-3.3,0-5,0.4c-0.5,0.1-0.9,0.4-1.4,0.7c-0.2,0.1-0.4,0.3-0.7,0.5c-0.7,0.3-0.9,0.2-1.1-0.5c0-0.1,0-0.3-0.1-0.5
		c-1.3,0.3-2.5,1.8-2.6,3.2c0.2,0,0.5,0,0.7,0.1c0.7,0.1,1,0.5,0.8,1.2c-0.1,0.7-0.6,1.2-1.2,1.3c-0.7,0.1-1.3-0.1-1.7-0.7
		c-0.7-1-0.6-2-0.2-3.1c0.4-1,1.1-1.8,2-2.3c1-0.5,2-0.8,3-1.2C84.3,128.8,84.8,128.7,85.3,128.6z"/>
	<path class="st0" d="M134.6,118.7c1.2-1.1,2.9-0.8,3.9,0.4c0.4,0.5,0.8,1.1,1.2,1.7c0.4-0.4,0.6-0.8,0.9-1.1
		c0.5,0.5,1.5,2.2,1.7,2.7c0.4,1.1-0.6,2-0.7,3.2c0.5-0.3,1-0.6,1.4-0.9c0.6,0.5,0.7,1.1,0.6,1.7c-0.2,1.3-0.7,2.5-1.8,3.3
		c-1.9,1.5-4,2.5-6.4,2.9c-0.6,0.1-1.3,0.1-1.9,0.6c0.3,0.5,0.7,0.5,1.2,0.4c1.3-0.1,2.5-0.4,3.7-1c2.1-1,4.1-2.1,6.2-3
		c1.2-0.6,2.5-1.1,3.7-1.6c1.3-0.6,2.5-0.5,3.7,0.2c0,0.3-0.1,0.6-0.1,0.9c0.8,0.1,1.6,0.2,2.3,0.3c2.1,0.3,4.1,2.3,4.5,4.3
		c0.1,0.6,0,1.3-0.1,1.9c-0.2,0.7-0.7,1-1.5,1c-0.7,0-1.2-0.3-1.6-0.9c-0.4-0.8-0.1-1.4,0.8-1.5c0.2,0,0.4,0,0.6-0.1
		c0.3-1.3-0.6-2.4-2.5-3.3c-0.1,0.3-0.2,0.6-0.3,0.9c-0.6,0.3-1.1,0-1.6-0.4c-1.9-1.6-4.2-1.3-6.4-1.1c-0.2,0-0.4,0.1-0.8,0.3
		c1.3,0.5,2.7-0.4,3.7,1c-0.3,0.2-0.6,0.4-1,0.7c0.8,0.7,1.5,1.4,2.3,2c-0.4,0.7-1,0.7-1.5,0.7c-0.6,0-1-0.2-1.4-0.5
		c-0.4-0.4-0.8-0.7-1.3-1.2c-0.1,0.5-0.2,0.9-0.3,1.3c-0.7,0.1-1.4-0.2-1.9-0.4c-1.4-0.7-2.8-0.6-4.3-0.3c-0.9,0.2-1.8,0.3-2.7,0.4
		c-0.3,0-0.6,0.1-0.9,0.2c0.3,0.6,0.5,1,0.7,1.5c-0.5,0.4-0.9,0.1-1.2,0c-0.8-0.2-1.6-0.4-2.4-0.5c-1.7-0.2-3.4-0.2-5-0.5
		c-3.5-0.7-5.9-2.9-7.3-6.1c-0.7-1.6-0.3-2.2,1.5-2.2c0.9,0,1.5,0.3,1.9,1.2c1.3,3,3.7,4.2,6.8,4.2c2.6,0,4.8-1,6.5-3.1
		c1.6-2,2-4.2,1.3-6.7c-0.5-1.7-1.5-3-3.4-3.4C135,119,134.9,118.9,134.6,118.7z"/>
	<path class="st0" d="M103.5,114.8c0.4-1.5,1.5-2.1,2.7-2.3c1.3-0.3,2.4,0.3,3.8,0.6c-0.4-0.5-0.8-1-1.2-1.5
		c1.3-0.4,2.4-0.1,3.5,0.5c0.1-0.3,0.3-0.6,0.4-0.9c1.1,0.1,2,0.6,2.6,1.6c0.5,0.8,0.9,1.6,1.3,2.4c0.2,0.4,0.3,1,1,1.2
		c0.4-0.6,0.3-1.2,0-1.8c-0.6-1.4-1.2-2.7-1.7-4.1c-0.2-0.5-0.2-1.2-0.2-1.7c0-0.3,0.2-0.5,0.4-0.9c0.4,0.3,0.7,0.5,1.1,0.8
		c1.2-0.4,2.5-1.8,3.5,0.3c0.4-0.4,0.8-0.6,1.2-1c0.6,0.4,0.7,0.9,0.5,1.5c-0.2,0.7-0.4,1.5-0.7,2.1c-0.4,0.9-1,1.8-1.4,2.8
		c-0.2,0.4-0.4,0.9-0.5,1.3c-0.1,0.2,0.1,0.6,0.2,0.8c0.3-0.1,0.6-0.2,0.8-0.4c0.2-0.2,0.3-0.6,0.4-0.8c0.4-0.7,0.7-1.5,1.2-2.2
		c0.6-0.9,1.5-1.5,2.7-1.7c0.2,0.2,0.3,0.5,0.5,0.8c1.2-0.2,2.3-0.5,3.7-0.3c-0.4,0.5-0.7,0.8-1.1,1.2c0.9,0,1.6,0,2.3,0
		c0.9,0,1.7,0,2.4,0.5c0.8,0.5,1.3,1.1,1.5,2.2c-0.5-0.2-0.7-0.3-0.9-0.4c-1.5-1.2-3.2-1.2-4.9-0.9c-2.7,0.5-4.8,2-6.6,3.9
		c-0.4,0.4-0.7,0.8-1,1.2c-1.1,1.2-2.4,1.3-3.7,0.2c-0.7-0.7-1.4-1.4-2.1-2.1c-1.5-1.7-3.4-2.9-5.6-3.4c-1.6-0.3-3.2-0.4-4.8,0.3
		C104.3,114.7,103.9,114.7,103.5,114.8z"/>
	<path class="st0" d="M131.2,52.7c0.2-0.2,0.4-0.4,0.5-0.6c-0.1-0.1-0.1-0.2-0.2-0.3c-1.7-1-3.5-1.9-5.5-2.4c-1-0.3-1.6-0.8-1.8-1.8
		c15.1,2.6,24.6,19.5,19.1,33.7c-0.7-0.7-0.9-1.5-0.6-2.6c0.6-1.8,0.8-3.7,0.7-5.7c-3.2-1.7-4.9-4.6-6.3-7.8c-0.8-2-1.5-4-2.4-6
		c-0.6-1.3-1.2-2.7-2-3.9c-1.2-1.8-2.9-3.1-5.1-3.4c-0.2,0-0.4-0.2-0.5-0.2c-0.1-0.4,0.2-0.6,0.5-0.5c0.6,0.2,1.3,0.4,1.9,0.7
		C130,52,130.5,52.4,131.2,52.7z M143.3,72.4c0.7-6-4.3-15.9-9.1-18.6c0.2,1.4,0.5,2.9,0.8,4.4c0.1,0.4,0.1,0.7,0.6,0.7
		c0.6-0.9-0.7-2,0.3-2.7c0.5,0.4,0.9,0.8,1.4,1.1c0.8,0.6,1,1.4,0.8,2.4c-0.1,0.5-0.2,1-0.3,1.5c-0.2,1.5-0.3,2.9,0.3,4.3
		c0.1,0.2,0.3,0.4,0.5,0.7c0.1,0,0.2-0.1,0.2-0.1c0-0.4,0-0.8,0-1.1c0-0.5,0-1,0.1-1.4c0.1-0.6,0.5-0.7,1-0.4c1,0.6,1.9,1.4,1.4,2.8
		c0.2,0.1,0.3,0.1,0.5,0.2c0.1,0.1,0.2,0.2,0.4,0.3C141.3,68.6,141.3,70.6,143.3,72.4z"/>
	<path class="st0" d="M113.7,47.6c-0.3,1.2-1,1.7-2.1,2c-1.9,0.5-3.6,1.3-5.4,2.5c0.2,0.3,0.4,0.4,0.6,0.7c0.7-0.3,1.4-0.7,2.1-1
		s1.3-0.6,2.3-0.3c-0.3,0.2-0.5,0.4-0.7,0.5c-2.8,0.5-4.6,2.3-5.9,4.6c-0.6,1.1-1,2.2-1.5,3.4c-0.9,2.1-1.7,4.3-2.6,6.4
		c-0.6,1.3-1.4,2.5-2.2,3.7c-0.9,1.3-2,2.4-3.7,3c0.1,1,0.1,1.9,0.2,2.9s0.3,2,0.6,2.9c0.4,1,0,1.7-0.6,2.5
		C89.5,68.4,97.3,50.9,113.7,47.6z M94.7,72.3c0.3-0.2,0.6-0.4,0.7-0.6c1-1.2,1.2-2.6,0.8-4.2c-0.1-0.4-0.2-0.7-0.3-1.1
		c0.3-0.2,0.6-0.3,0.9-0.5c-0.4-1.3,0.3-2.1,1.3-2.7c0.7-0.4,1-0.3,1.2,0.5c0.1,0.5,0,0.9,0,1.4c0,0.3-0.2,0.7,0.3,1
		c0.7-0.9,1-1.9,0.9-3c-0.1-1-0.3-2-0.4-2.9s-0.4-1.7,0.3-2.5c0.5-0.5,1-1.1,1.6-1.6c0.9,0.8,0,2,0.7,3.1c0.8-1.8,0.5-3.6,1.3-5.3
		C99.2,56,94,66.6,94.7,72.3z"/>
	<path class="st0" d="M218.5,29.2c0.9-1.4,2.1-1.3,3.5-1.1c-0.2-0.3-0.3-0.5-0.4-0.7c-0.2-0.3-0.4-0.5-0.5-0.8
		c-1.8-2.9-1.5-6.4,0.7-9c0.5-0.6,0.7-0.7,1.7-1.1c0.1,0.3,0.2,0.6,0.1,0.9c-1,3.2-0.4,6.3,0.1,9.5c0.3,2,0.7,4.1,0.9,6.1
		c0.3,2.1-0.1,4.1-1,6.1c-1.6,3.7-5.2,5.6-9.2,4.8c-2.4-0.5-4.5-1.5-6-3.5c-2.1-2.7-1.4-6.3,1.5-8.1c1.5-0.9,2.9-0.9,4.2,0.2
		c1.5,1.1,2.4,2.4,2.1,4.4c-0.1,1-0.6,1.9-1.5,2.5c-1.4,1.1-2.8,0.5-3.1-1.2c-0.2-1.5-0.1-2.9,0.8-4.2c-1-1-2.3-1-3.3,0
		c-1.2,1.3-1.5,2.8-1,4.5c0.4,1.1,1.1,2,2,2.6c2.7,1.9,5.6,2.7,8.7,1.3c4.4-2,6.3-7.3,2.6-11.9c-0.7-0.9-1.6-1.4-2.7-1.1
		C218.9,29.4,218.8,29.3,218.5,29.2z"/>
	<path class="st0" d="M98.2,17.5c0.1-0.3,0.1-0.6,0.2-1c0.4,0.1,0.8,0.1,1.2,0.3c1.1,0.5,2.1,0.6,3.3,0.4c0.9-0.2,1.9-0.3,2.9-0.5
		c-0.1-0.4-0.2-0.7-0.3-0.9c0.1-0.1,0.1-0.2,0.2-0.2c1.8,0.1,3.6,0.1,5.3,0.4c2.5,0.3,4.4,1.6,5.7,3.7c0.4,0.7,0.8,1.4,0.6,2.3
		c-0.5,0.4-1.1,0.4-1.7,0.3c-0.3,0-0.5-0.3-0.8-0.5c-0.1-0.1-0.1-0.2-0.2-0.3c-1.3-2.9-4.3-3.7-7.1-2.7c-2.9,1.1-4.5,4-3.9,6.8
		c0.3,1.7,1.3,2.7,3.1,2.7c-0.7,0.8-1.3,1-2.2,0.4c-0.6-0.4-1.1-1.1-1.8-1.9c-0.1,0.3-0.2,0.6-0.4,1c-0.8-0.8-1.3-1.5-1.2-2.4
		c0-0.7,0.4-1.5,0.7-2.4c-0.6,0.3-1,0.5-1.5,0.8c0-0.3,0.1-0.5,0-0.7c-0.5-1.4,0.2-2.3,1.2-3.1c1.2-1,2.6-1.6,4.1-1.9
		c0.7-0.1,1.3-0.2,2-0.9c-0.5,0-0.8,0-1.1,0c-1.6,0.3-2.9,1-4.3,1.7c-1.8,0.9-3.6,1.7-5.4,2.5c-1.2,0.5-1.7,0.4-3,0
		c0-0.2,0-0.5-0.1-0.6c-0.2-0.2-0.5-0.3-0.7-0.3c-1.2-0.1-2.2-0.6-3.1-1.4c-0.6-0.5-1-1.1-1.1-1.9c-0.1-0.7,0-1.3,0.5-1.8
		c0.4-0.5,1.1-0.6,1.5-0.1c0.3,0.3,0.4,0.7,0.5,1.2c0,0.3-0.2,0.4-1.2,0.6c0.3,1.1,1,1.8,1.9,2.5c0.1-0.3,0.3-0.6,0.4-1
		c0.4,0.2,0.8,0.3,1.1,0.5c1.4,0.8,2.9,1,4.5,1c0.3,0,0.6-0.2,0.8-0.4c-0.9-0.2-1.9,0-2.7-0.8c0.2-0.2,0.3-0.4,0.5-0.7
		c-0.6-0.5-1.1-1-1.7-1.5c0.7-0.8,1.3-0.9,2-0.3C97.4,16.7,97.8,17.1,98.2,17.5z"/>
	<path class="st0" d="M212.8,117.9c-0.8-1.2-1-2.6-0.9-3.9c0-0.1,0-0.2,0-0.4c0.3-1.8,1.7-2.3,3.2-1.2c1.3,1,1.8,2.9,1.2,4.5
		c-0.6,1.3-1.5,2.2-2.8,2.8c-1.2,0.5-2.3,0.3-3.3-0.3c-2.9-1.8-3.6-5.5-1.5-8.2c2.2-2.8,6.5-4.2,9.9-3.3c3.3,0.9,5,3.3,5.8,6.4
		c0.6,2.1,0.5,4.2,0.1,6.3c-0.4,2.2-0.8,4.5-1.2,6.7c-0.3,2.2-0.4,4.4,0.2,6.6c0.1,0.3,0,0.7,0.1,1c-1.7-0.3-3.1-2.3-3.7-5.2
		c-0.3-1.7-0.1-2.4,2-6.3c-1.2,0.1-2.5,0.3-3.4-1c0.3-0.1,0.5-0.1,0.7-0.1c1,0.1,1.7-0.3,2.3-1c2.2-2.6,2.9-5.9,1.2-8.9
		s-5.2-4.5-8.5-3.7c-1.8,0.4-3.5,1.2-4.7,2.7c-1.5,1.7-1.7,4-0.5,5.7C210,118.6,211.1,118.8,212.8,117.9z"/>
	<path class="st0" d="M57.1,26.6c-1.1,0.7-2.2,1-3.5,0.9c-0.5,0-1-0.1-1.4-0.3c-1.1-0.4-1.5-1.4-0.9-2.4c0.6-1.2,1.6-1.8,2.8-2
		c2.4-0.4,5.2,2,5.1,4.5c0,0.6-0.2,1.2-0.5,1.7c-1.6,3-5.3,3.8-8,1.9c-2.2-1.6-3.2-3.8-3.7-6.3c-1-5.5,3.8-9.7,8.4-9.9
		c2.7-0.1,5.3,0.4,8,0.8c1.6,0.3,3.1,0.6,4.7,0.8c1.8,0.2,3.6,0.1,5.3-0.4c0.2-0.1,0.5,0,0.8,0c0,0.3-0.1,0.6-0.1,0.9
		c0,0.1-0.1,0.2-0.2,0.3c-1.9,2.3-6,3.2-8.6,1.8c-0.8-0.4-1.5-0.9-2.4-1.4c-0.1,1.3,0.3,2.7-1.2,3.4c0-0.3-0.1-0.5-0.1-0.7
		c0.2-1.1-0.3-1.8-1.1-2.5c-3.3-3-11-2.8-12.5,3.8c-0.7,3.3,0.3,6.3,2.9,8.5c1.7,1.5,3.9,1.5,5.6,0.3C57.9,29.2,58.1,28.1,57.1,26.6
		z"/>
	<path class="st0" d="M100.6,90.8c1.1-0.3,1.9-0.1,2.7,0.7c0.6,0.6,1.4,1.1,2.2,1.7c2.4-1.1,5-1.2,7.5-0.9c2.2,0.3,4.5,0.8,6.7,1.2
		c1.9,0.4,3.8,0.9,5.8,0.8c2.2-0.1,4.2-0.7,5.7-2.3c0.2-0.2,0.4-0.3,0.8-0.3c-0.1,0.2-0.1,0.5-0.3,0.6c-0.8,0.6-1.7,1.2-2.5,1.8
		c-0.3,0.2-0.7,0.3-0.3,0.9c0.3-0.2,0.7-0.3,1-0.5c1.8-0.9,3.5-2,5-3.3c0.8-0.7,1.6-0.7,2.5-0.6C128.1,101,110.5,101.5,100.6,90.8z
		 M119.7,97.3c-2.8-3.3-4.7-4.3-6.3-3.9c0.1,0.5,0.5,0.5,0.8,0.7c0.4,0.3,0.9,0.6,1.2,0.9c0.4,0.5,0.2,0.9-0.4,1
		c-0.8,0.1-1.7,0.1-2.5-0.3c-0.3-0.2-0.7-0.3-0.9,0.3C114.3,97,116.9,97.4,119.7,97.3z M125.3,96.5c0-0.1,0-0.2,0-0.3
		c-0.7-0.3-1.4-0.6-2.1-0.9c-0.7-0.2-1.3-1-2.3-0.5c1,0.7,1.8,1.3,2.8,2C124.1,96.7,124.7,96.6,125.3,96.5z M110.5,95.8
		c-0.9-1.7-2.4-2.4-4-1.9c0.6,0.3,1.2,0.7,1.8,1C109,95.2,109.8,95.5,110.5,95.8z"/>
	<path class="st0" d="M24.8,33.8c0.8,1.2,1.1,2.5,0.9,3.8s-0.9,2.1-1.9,2.1c-1.2,0.1-2.1-0.7-2.5-1.9c-0.5-1.9,0.3-4.3,1.9-5.5
		c1.3-1,2.7-1,4.1-0.2c2.9,1.7,3.6,5.4,1.7,8.1c-2.1,2.8-6.4,4.4-9.8,3.5C16.6,43,13.3,40,12.9,36c-0.3-2.7,0.2-5.2,0.7-7.8
		c0.3-2,0.6-3.9,0.9-5.9c0.2-1.6,0.1-3.1-0.4-4.6c-0.1-0.4-0.3-0.8,0.3-1.2c2.2,1.1,2.9,3.2,3.3,5.4c0.5,2.4-0.8,4.3-2.1,6.2
		c2.3-0.1,2.9,0.1,3.4,1.2c-0.2,0-0.3,0.1-0.4,0.1c-1.2-0.3-2,0.3-2.7,1.1c-1.9,2.4-2.6,5.1-1.3,7.9c1.3,3,3.8,4.6,7,4.6
		c2.6,0,4.8-1,6.6-2.9c1.6-1.7,1.7-4.2,0.4-5.8C27.4,33,26.3,32.9,24.8,33.8z"/>
	<path class="st0" d="M205.2,125.1c1-1.5,0.8-2.6-0.5-3.6c-1.5-1.2-3.6-1.2-5.3-0.1c-2.5,1.6-4,5.5-3.4,8.6c0.6,3.1,3.2,5.6,6.4,6.1
		c2.6,0.4,4.8-0.6,6.6-2.4c0.5-0.5,0.7-1.1,0.7-1.9c0-0.3,0-0.5,0-0.9c1.5,0.9,1.3,2.2,1.1,3.6c0.8-0.5,1.4-1,2.1-1.3
		c2.8-1.5,6.9-0.7,9,1.7c0.1,0.1,0.2,0.2,0.3,0.4c0.1,0.2,0.1,0.5,0,0.7c0,0.1-0.4,0.2-0.6,0.1c-0.6-0.1-1.2-0.3-1.7-0.4
		c-2.3-0.4-4.5,0-6.8,0.3c-2.6,0.4-5.1,0.8-7.7,1.1c-1.1,0.1-2.3,0-3.4-0.2c-2.8-0.5-4.7-2.2-6.1-4.6c-1-1.7-1.1-3.5-0.7-5.3
		c0.5-2.4,1.5-4.5,3.6-6c2.7-2,6.5-1.2,8.1,1.8c0.8,1.3,0.7,2.7-0.2,3.9c-1,1.4-2.3,2.4-4.2,2.3c-1.3-0.1-2.3-0.7-2.9-1.8
		c-0.7-1.2-0.3-2.3,1-2.7c1.3-0.4,2.6-0.2,3.9,0.3C204.7,124.8,205,125,205.2,125.1z"/>
	<path class="st0" d="M180.4,125c0.8-0.3,1.6-0.6,2.4-0.7s1.7,0,2.5,0.2c1.2,0.3,1.6,1.4,1,2.6c-0.5,1-1.4,1.6-2.4,1.8
		c-2.5,0.7-5.6-1.8-5.5-4.4c0-0.4,0.1-0.9,0.3-1.3c0.9-2.2,4.5-4.6,7.7-2.6c2,1.2,3.2,3,3.9,5.1c2.2,6.7-3.4,11.2-7.8,11.4
		c-2.8,0.1-5.6-0.3-8.3-0.8c-1.7-0.3-3.4-0.6-5.1-0.8c-1.5-0.2-2.9,0-4.4,0.4c-0.3,0.1-0.5,0.2-0.8,0.2c-0.4,0.1-0.7-0.3-0.5-0.7
		c0.2-0.3,0.4-0.6,0.6-0.9c2.3-2.4,6.2-2.9,9-1.3c0.6,0.3,1.1,0.7,1.7,1.1c0.1-2.8,0.2-2.8,1.2-3.4c0,0.1,0.1,0.2,0.1,0.3
		c-0.3,1.5,0.6,2.5,1.7,3.3c3.7,2.6,10.5,1.7,11.8-4.3c0.7-3.3-0.3-6.3-2.9-8.5c-1.7-1.5-3.9-1.5-5.6-0.3
		C179.7,122.4,179.5,123.6,180.4,125z"/>
	<path class="st0" d="M32.3,125c0.8-0.2,1.5-0.6,2.3-0.7s1.7-0.1,2.5,0.1c1.3,0.3,1.7,1.4,1.1,2.6c-0.8,1.5-2.8,2.3-4.5,1.7
		c-1.5-0.5-2.5-1.5-3.1-3c-0.5-1.2-0.3-2.3,0.4-3.3c1.4-2.2,4.9-4,8.2-1.4c2.7,2.2,4.2,6.4,3.3,9.7c-0.9,3.2-4.3,6-7.8,6.3
		c-2.5,0.2-5-0.2-7.5-0.6c-1.8-0.3-3.7-0.6-5.5-0.9s-3.6-0.1-5.3,0.4c-0.2,0-0.3,0.1-0.5,0.1c-0.4,0-0.7-0.3-0.5-0.7
		c0.1-0.3,0.4-0.5,0.6-0.8c2.2-2.4,6.3-3,9.1-1.3c0.6,0.3,1.1,0.7,1.8,1.2c-0.1-1.4-0.3-2.7,1.1-3.6c0,0.3,0.1,0.6,0.1,0.8
		c-0.2,0.9,0.2,1.7,0.8,2.3c1.9,1.7,4.1,2.6,6.7,2.3c1.1-0.2,2.1-0.7,3-1.5c2.8-2.7,3.8-6,2.8-9.7c-0.7-2.5-2.7-4.1-5.3-4.3
		c-1.4-0.1-2.6,0.4-3.5,1.4C31.4,123,31.5,123.8,32.3,125z"/>
	<path class="st0" d="M57.1,125.1c0.9-1.7,0.7-2.7-0.6-3.7c-1.3-0.9-2.6-1.1-4.1-0.5c-0.4,0.2-0.8,0.4-1.2,0.6
		c-4.5,3.1-4.5,10.2,0,13.3c3.4,2.4,7.1,1.3,9.5-0.9c0.6-0.6,1-1.3,0.9-2.1c0-0.2,0-0.5,0-0.7c1.1,0.5,1.2,0.8,1.2,3.4
		c0.5-0.3,1-0.6,1.4-0.9c2.8-1.8,6.1-1.6,8.7,0.4c0.5,0.4,0.9,0.8,1.2,1.3c0.1,0.1,0.1,0.5,0,0.6s-0.4,0.2-0.6,0.2
		c-0.5-0.1-1.1-0.3-1.6-0.4c-2.4-0.5-4.7,0-7,0.3c-2.6,0.4-5.1,0.8-7.7,1.1c-1,0.1-2,0-3-0.1c-2.5-0.4-4.5-1.8-6-3.8
		c-1.3-1.7-1.6-3.7-1.3-5.8c0.4-2.6,1.5-4.8,3.6-6.4c2.6-2,6.4-1.3,8,1.5c1,1.6,0.8,3.3-0.5,4.7c-1.4,1.6-3.2,2.2-4.9,1.5
		c-0.8-0.3-1.4-0.9-1.9-1.6c-0.7-1.2-0.2-2.2,1-2.6c1.3-0.4,2.6-0.3,3.9,0.3C56.5,124.8,56.8,124.9,57.1,125.1z"/>
	<path class="st0" d="M24.8,117.9c1.6,1,2.7,0.7,3.7-0.6c0.9-1.3,1.1-2.7,0.5-4.2c-0.1-0.3-0.3-0.6-0.4-0.8
		c-2.2-3.5-9.7-5.8-13.5-0.2c-1.5,2.2-1.7,6.8,1,9.5c0.6,0.6,1.3,0.9,2.1,0.8c0.2,0,0.5,0,0.8,0c-0.9,1.5-2.2,1.2-3.6,1.2
		c1.3,1.9,2.5,3.7,2.2,6c-0.3,1.7-0.8,3.3-2,4.6c-0.4,0.4-0.8,0.9-1.6,0.9c0-0.3-0.1-0.6,0-0.9c0.9-2.7,0.5-5.4,0.1-8.2
		c-0.4-2.6-0.9-5.1-1.2-7.7c-0.4-3.7,0.7-6.9,3.9-9.2c1.7-1.3,3.7-1.7,5.8-1.4c2.4,0.4,4.4,1.3,6.1,3.1c2.9,3.2,1.5,6.4-0.6,8.2
		c-1.8,1.6-4.2,1.3-5.6-0.7c-0.9-1.3-1.4-2.8-1-4.4c0.1-0.3,0.2-0.5,0.3-0.8c0.4-0.8,1.4-1.3,2.3-1.2c0.8,0.1,1.5,0.8,1.7,1.8
		c0.2,1.1,0.1,2.2-0.3,3.3C25.2,117.3,25,117.5,24.8,117.9z"/>
	<path class="st0" d="M180.4,26.6c-0.9,1.6-0.8,2.6,0.5,3.6c1.5,1.2,3.2,1.3,4.9,0.3c1.8-1.2,3-2.9,3.6-4.9c1.4-4.7-1.7-9.4-6.5-9.9
		c-2.5-0.3-4.5,0.7-6.2,2.5c-0.5,0.5-0.7,1.1-0.6,1.7c0,0.3,0,0.5,0,0.8c-1-0.4-1-0.4-1.3-3.3c-0.5,0.3-0.9,0.5-1.3,0.8
		c-3.2,2.3-6.9,1-9-0.7c-0.4-0.3-0.7-0.7-1-1.2c-0.3-0.4,0-0.8,0.5-0.7c0.1,0,0.2,0.1,0.3,0.1c2.4,0.8,4.9,0.6,7.4,0.2
		c2.4-0.4,4.7-0.8,7.1-1.2c2-0.3,3.9-0.2,5.8,0.4c5,1.5,7.4,5.9,5.8,10.9c-0.6,1.9-1.6,3.6-3.3,4.8c-2.4,1.7-5.7,1.3-7.5-1
		c-1.7-2-1.3-4.6,1-6c1.2-0.7,2.4-1,3.8-0.8c0.3,0,0.7,0.2,1,0.3c0.9,0.5,1.4,1.2,1.3,2.2c0,0.9-0.7,1.4-1.5,1.7
		c-1.2,0.5-2.4,0.3-3.5-0.2C181.1,27,180.8,26.8,180.4,26.6z"/>
	<path class="st0" d="M211,17.4c-0.1,1.3,0.2,2.6-1.2,3.4c0-0.3-0.1-0.4-0.1-0.6c0.2-1.1-0.3-2-1.1-2.6c-2.7-2.1-5.8-2.7-8.8-1
		c-2.9,1.7-4.4,5.2-3.6,8.4c0.4,1.7,1.1,3.2,2.3,4.4c1.8,1.8,4.1,2.2,6.1,0.9c1.4-1,1.7-2.1,0.7-3.7c-0.7,0.3-1.4,0.6-2.1,0.8
		c-0.8,0.2-1.7,0.2-2.5-0.1s-1.5-0.8-1.5-1.7c0-1,0.4-1.8,1.4-2.2c0.6-0.3,1.3-0.4,2-0.3c1.5,0,2.9,0.6,3.9,1.8
		c1.1,1.2,1.2,2.8,0.4,4.2c-1.7,2.9-5.3,3.8-8.1,1.8c-2.1-1.5-3.2-3.6-3.6-6c-0.9-4.6,1.6-8.8,7.1-10c2.2-0.5,4.4-0.3,6.5,0.1
		c2.3,0.4,4.6,0.8,7,1.2c1.9,0.3,3.7,0.2,5.6-0.3c0.2-0.1,0.4-0.1,0.6-0.2c0.4,0,0.7,0.3,0.5,0.7c-0.2,0.3-0.5,0.7-0.7,0.9
		c-2.4,2.4-6.2,2.8-9,1.1C212.1,18.1,211.6,17.7,211,17.4z"/>
	<path class="st0" d="M32.4,26.6c-1,1.4-0.8,2.6,0.4,3.6c1.7,1.3,3.9,1.3,5.6-0.1c2.1-1.7,3.1-4,3.1-6.6c0.1-4-2.9-7.5-6.9-7.8
		c-2.4-0.2-4.4,0.8-6.1,2.4c-0.5,0.5-0.8,1.2-0.7,2c0,0.2,0,0.5,0,0.8c-1.4-0.8-1.3-2.1-1.2-3.5c-0.6,0.4-1,0.6-1.4,0.9
		c-2.7,1.7-6,1.6-8.6-0.3c-0.4-0.3-0.8-0.7-1.1-1.1c-0.2-0.2-0.4-0.7-0.3-0.9c0.2-0.4,0.6-0.2,0.9-0.1c1.7,0.5,3.5,0.7,5.2,0.4
		c2-0.3,3.9-0.6,5.9-1c2.1-0.4,4.3-0.7,6.4-0.6c3.1,0.1,5.5,1.4,7.4,3.9c1.5,1.9,1.8,4.1,1.3,6.5s-1.6,4.5-3.7,6
		c-2.7,1.9-6.4,1-8-1.9c-0.7-1.4-0.7-2.7,0.3-3.9c1.4-1.7,3.2-2.3,5.3-2c0.4,0.1,0.9,0.3,1.3,0.6c1.3,1.2,1,3-0.7,3.6
		c-1.2,0.4-2.4,0.2-3.6-0.3C32.9,26.9,32.6,26.7,32.4,26.6z"/>
	<path class="st0" d="M132.3,15.1c-0.2,0.5-0.4,0.8-0.6,1.2c0.9,0.1,1.7,0.3,2.5,0.4c0.8,0.1,1.7,0.2,2.5,0.1
		c0.8-0.1,1.6-0.5,2.4-0.7c0.1,0.4,0.2,0.6,0.3,0.9c0.1,0,0.2,0,0.3-0.1c0.2-0.2,0.4-0.4,0.6-0.5c0.7-0.6,1-0.6,2.2,0
		c-0.5,0.5-1,1-1.5,1.6c0.2,0.2,0.3,0.4,0.5,0.7c-0.6,0.9-1.6,0.3-2.5,0.6c1.6,0.6,3.7,0.4,4.9-0.4c0.1-0.1,0.3-0.2,0.4-0.3
		c0.8-0.4,0.8-0.4,1.4,0.5c0.9-0.5,1.7-1.1,1.8-2.3c-0.2-0.1-0.4-0.1-0.5-0.1c-0.8-0.3-1-0.9-0.4-1.5s1.7-0.4,2,0.4
		c0.1,0.3,0.2,0.7,0.2,1c-0.2,1.8-1.9,3.5-3.7,3.7c-0.4,0-0.9,0.1-1.4,0.2c0,0.3,0,0.5,0.1,0.7c-0.9,0.6-1.8,0.6-2.8,0.2
		c-1.9-0.9-3.8-1.8-5.7-2.7c-1-0.5-2-0.9-3.1-1.3c-0.7-0.3-1.4-0.3-2.2-0.1c0.3,0.7,1,0.6,1.5,0.7c1.7,0.3,3.3,1,4.6,2.1
		c0.8,0.6,1.3,1.4,1.3,2.4c0,0.4-0.1,0.8-0.1,1.4c-0.5-0.2-0.9-0.4-1.3-0.6c0.1,0.8,0.4,1.6,0.3,2.3s-0.6,1.3-1.1,2.3
		c-0.2-0.4-0.4-0.7-0.6-1.1c-0.4,0.5-0.7,1-1,1.3c-0.8,1-1.7,1.1-2.9,0.4c0.3-0.1,0.4-0.2,0.6-0.3c1.3-0.3,2-1.2,2.4-2.4
		c0.6-2.3,0.1-4.3-1.7-5.8c-2.1-1.8-5.4-2-7.5-0.3c-0.6,0.5-1.1,1.1-1.4,1.7c-0.6,1.1-1,1.3-2.2,1.1c-0.2,0-0.4-0.1-0.5-0.2
		c-0.3-0.6-0.1-1.1,0.1-1.5c1.1-2.6,3.2-4,5.9-4.5c0.7-0.1,1.4-0.2,2.1-0.2c1.1,0,2.2,0,3.2-0.5C131.7,15.1,131.9,15.1,132.3,15.1z"
		/>
	<path class="st0" d="M198.5,96.2c-2,1.5-3.9,1.2-5.9,0.6c0.2,1.9,0,2.3-1.8,2.8c-0.4,0.1-0.8,0.3-1.3,0.4c-0.9,0.2-1.7,0.8-2.2,1.5
		c-0.5-0.4-0.9-0.8-1.4-1.1c-1.2-0.8-1.3-1.3-1-2.6c0-0.2,0.1-0.3,0.1-0.5c0-0.1-0.1-0.1-0.1-0.3c-1.5,0.8-3,1.8-4.9,1.9
		c1.1-1,2.1-1.9,3.1-2.8c1.7-1.5,2.5-3.5,2.8-5.7c0.1-1.1,0.3-2.1,0.5-3.2c0.1-0.3,0.1-0.7,0.2-1c0.6,0,0.7,0.4,0.9,0.7
		c0.2,0.5,0.4,1,0.6,1.6c1.6,4.5,4.9,6.9,9.6,7.5C198,96.1,198.1,96.1,198.5,96.2z"/>
	<path class="st0" d="M51.3,86.3c0.2,0.9,0.3,1.8,0.5,2.7c0.1,0.7,0.2,1.4,0.3,2.1c0.4,3.2,2.5,5.2,4.9,7.1c0.3,0.2,0.6,0.5,1.1,0.8
		c-2.1-0.1-3.5-1.1-5.2-2c0.1,0.4,0.1,0.7,0.2,0.9c0.3,1.1,0.1,1.7-0.8,2.4c-0.3,0.2-0.6,0.4-0.9,0.6c-0.2,0.2-0.5,0.4-0.7,0.7
		c-0.7-1-1.7-1.4-2.8-1.7c-0.5-0.1-0.9-0.3-1.4-0.4c-1.1-0.4-1.3-0.8-1.2-2c0-0.2,0-0.3,0.1-0.6c-2,0.6-4,0.9-5.8-0.6
		c1-0.2,1.9-0.4,2.8-0.6c3.1-0.8,5.4-2.7,6.8-5.6c0.4-0.8,0.7-1.7,1.1-2.5C50.4,87,50.5,86.5,51.3,86.3z"/>
	<path class="st0" d="M107,123.5c0.6-0.4,1-0.6,1.3-0.9c0.9-0.6,1.8-0.4,2.6,0.4c0.8,1,0.8,2.4,0,3.4c-1.3,1.6-3.6,1.8-5.3,0.5
		c-1.4-1.1-2-2.7-1.9-4.4c0-0.9,0.3-1.7,0.6-2.5c0.9-2.1,2.4-3,4.7-3c3.3,0,5.7,1.6,7.3,4.4c0.3,0.5,0.4,1,0.6,1.6s0,0.9-0.7,1
		c-0.7,0-1.4,0.1-2-0.2c-0.4-0.1-0.7-0.7-1-1.1c-0.9-1.7-2.6-2.6-4.5-2.2c-1.1,0.2-1.9,1-2,2C106.7,122.7,106.9,123,107,123.5z"/>
	<path class="st0" d="M195.8,113.8c1.3-0.5,2.5-0.6,3.7-0.1c1.6,0.8,2.1,2.5,1.2,3.9c-0.5,0.7-1.2,1.1-2,1c-0.4,0-0.8-0.1-1-0.5
		c-0.2-0.5-0.1-0.9,0.4-1.2c0.2,0.1,0.3,0.3,0.5,0.4c0.1,0,0.2,0,0.2-0.1c0.9-1,0.6-1.9-0.6-2.2c-0.7-0.2-1.4-0.1-2,0.3
		c-1.5,0.8-2.4,2.2-2.6,3.9c-0.1,0.9,0.4,1.7,1.2,2.5c-0.9-0.2-1.3-0.9-1.7-1.4c-0.5,0.5-0.9,1-1.4,1.4c-0.1,0-0.2-0.1-0.2-0.1
		c0.9-0.9,1.1-1.9,0.8-3c-0.4-1.4-1.2-2.4-2.5-3.1c-0.7-0.4-1.4-0.4-2.1-0.3c-0.5,0.1-1,0.4-1.1,1s0.2,1.1,0.7,1.3
		c0.3-0.2,0.5-0.6,0.8-0.2c0.3,0.3,0.3,0.6,0.1,1c-0.3,0.5-1,0.6-1.7,0.4c-1.8-0.6-2.3-3-1-4.3c1.1-1,2.4-1.1,3.8-0.8
		c0.3,0.1,0.6,0.2,1,0.4c0-0.5,0-0.9,0-1.3c0-1.4,0-2.8,0.5-4.1c0.2-0.6,0.5-1.2,0.9-1.7c0.8-1.1,1.9-1,2.7,0c0.7,0.9,1,2.1,1.2,3.2
		c0.1,0.6,0.2,1.2,0.2,1.8C195.8,112.5,195.8,113.1,195.8,113.8z M192.9,109.9c-0.7,1-1.1,2-1.1,3.1c0,0.8,0.5,1.3,1.1,1.3
		s1-0.6,1-1.4c0-0.1,0-0.2,0-0.2C193.8,111.7,193.5,110.8,192.9,109.9z"/>
	<path class="st0" d="M205.1,51.9c-0.2-0.2-0.3-0.3-0.5-0.5c0.2-0.4,0.4-0.7,0.9-0.6s0.7,0.4,0.8,0.8c0.2,0.7,0,1.3-0.4,1.8
		c-0.9,1.2-2.8,1.4-3.9,0.2c-0.8-0.9-1.1-1.9-0.9-3.1c0.1-0.4,0.2-0.8,0.3-1.4c-0.6,0-1.2,0.1-1.7,0c-1.3-0.2-2.6-0.4-3.9-0.7
		c-0.5-0.1-1-0.5-1.4-0.8c-0.8-0.7-0.8-1.6,0-2.4s1.9-1.2,3-1.3c1.4-0.2,2.8-0.2,4.2-0.3c-0.1-0.3-0.2-0.7-0.3-1.1
		c-0.4-1.4-0.2-2.7,0.9-3.8c0.7-0.7,1.6-0.9,2.6-0.6c0.9,0.3,1.5,1,1.7,2c0.1,0.5,0.1,0.9-0.3,1.2c-0.4,0.3-0.9,0.4-1.5-0.1
		c0.1-0.2,0.3-0.4,0.5-0.7c0-0.4-0.8-0.9-1.3-0.7c-0.3,0.1-0.6,0.3-0.7,0.6c-0.2,0.4-0.3,0.8-0.3,1.2c0.1,1.6,1.1,2.7,2.5,3.4
		c1.2,0.7,2.5,0.8,3.7-0.1c0.1,0,0.1-0.1,0.3-0.2c-0.1,0.8-0.9,1-1.2,1.3c0.5,0.5,0.9,0.9,1.3,1.4c-0.1,0.1-0.1,0.2-0.2,0.2
		s-0.2,0-0.2-0.1c-1.1-1.1-2.4-1-3.7-0.4c-0.9,0.4-1.7,1.1-2.2,2c-0.4,0.7-0.6,1.4-0.4,2.2C203.1,52.8,204,53,205.1,51.9z
		 M197.5,46.2c1,0.7,2,1,3.1,1c0.8,0,1.4-0.4,1.5-1c0-0.6-0.6-1.1-1.5-1.1C199.5,45.1,198.5,45.5,197.5,46.2z"/>
	<path class="st0" d="M198.5,34.3c-0.2,0.2-0.4,0.3-0.7,0.6c-0.1-0.5-0.3-0.9-0.2-1.2c0.1-0.3,0.6-0.5,0.9-0.6
		c0.9-0.2,1.9,0.4,2.3,1.3c0.5,1,0.3,2.1-0.4,2.9c-1,1-2.2,1.2-3.5,1c-0.3-0.1-0.6-0.2-1-0.3c-0.1,1-0.1,2-0.3,2.9
		c-0.1,0.8-0.3,1.6-0.5,2.3c-0.2,0.5-0.4,1-0.7,1.4c-0.9,1.2-2.1,1.2-2.9,0c-0.7-1-1-2.3-1.1-3.5c0-1.1,0-2.1,0-3.3
		c-0.4,0.1-0.7,0.3-1,0.3c-1.5,0.4-2.9,0.3-4-0.9c-0.7-0.7-0.8-1.6-0.5-2.6c0.3-0.9,1-1.4,1.9-1.7c0.6-0.1,1.2,0.1,1.5,0.5
		c0.2,0.4,0.2,0.7-0.2,0.9c-0.2,0.1-0.5,0-1-0.1c-0.3,0.1-0.6,0.6-0.6,1.2c0.1,0.6,0.6,0.8,1.1,1c0.6,0.2,1.2,0.2,1.8-0.1
		c1.6-0.7,2.6-1.9,2.9-3.5c0.2-1.1,0-1.6-0.8-2.7c0.7,0.2,0.7,0.2,1.5,1.2c0.5-0.5,1-0.9,1.5-1.4c0,0.1,0.1,0.1,0.1,0.2
		c-0.1,0.2-0.3,0.3-0.4,0.5c-0.7,0.9-0.9,2-0.3,3c0.4,0.8,0.9,1.5,1.5,2.1c0.7,0.8,1.7,1.1,2.7,0.9c0.5-0.1,1-0.3,1.2-0.9
		C199.4,35.1,199.2,34.6,198.5,34.3z M192.9,37.1c-1.4,1.1-1.4,2.9,0,4.6C194.1,39.8,194.1,38.3,192.9,37.1z"/>
	<path class="st0" d="M208,105.4c0.4,0.4,0.8,0.8,1.3,1.2l-0.1,0.1c-0.5-0.2-0.9-0.5-1.4-0.6c-2-0.4-4.6,1.3-4.9,3.3
		c-0.1,0.4,0,1,0.1,1.4c0.1,0.5,0.4,1,1,1.1s1-0.3,1.2-0.8c-0.2-0.2-0.3-0.3-0.4-0.5c0.2-0.5,0.5-0.7,0.9-0.6c0.5,0.1,0.7,0.5,0.7,1
		c0.1,0.9-0.3,1.8-1.2,2.3c-1,0.5-1.9,0.5-2.8-0.2c-1.1-0.8-1.5-2.4-1.1-3.9c0.1-0.3,0.2-0.7,0.4-1.1c-0.4,0-0.7,0-1.1-0.1
		c-1.3-0.2-2.7-0.2-4-0.5c-0.8-0.2-1.5-0.7-2.1-1.2c-0.8-0.7-0.7-1.6,0.1-2.3c0.5-0.4,1.1-0.8,1.7-0.9c1.1-0.3,2.3-0.4,3.4-0.5
		c0.5-0.1,1.1,0,1.8,0c-0.3-1.1-0.5-2.1-0.2-3.2c0.6-1.8,2.5-2.6,4-1.7c0.7,0.5,1.2,1.1,1.1,2c0,0.4-0.3,0.9-0.6,1.1
		c-0.4,0.3-0.8,0.1-1.1-0.4c0.1-0.2,0.3-0.4,0.4-0.6c-1-1.1-1.7-0.9-2.2,0.3c-0.3,0.8-0.2,1.6,0.3,2.3c0.8,1.2,1.9,1.9,3.2,2.4
		c1.1,0.4,2.1-0.1,2.9-0.9c0,0.1,0.1,0.1,0.1,0.2C208.9,104.5,208.5,104.9,208,105.4z M197.4,105.5c0.9,0.6,1.7,1,2.6,1
		c0.4,0,1-0.1,1.4-0.2c0.3-0.1,0.5-0.5,0.5-0.8s-0.3-0.6-0.6-0.8c-0.2-0.1-0.4-0.2-0.7-0.2C199.6,104.4,198.5,104.8,197.4,105.5z"/>
	<path class="st0" d="M130.2,123.9c0.5-1.9-1.1-3.5-3.1-3.1c-1,0.2-2,0.7-2.6,1.6c-0.2,0.3-0.4,0.5-0.6,0.7c-0.6,0.6-1.2,0.9-2,0.8
		c-0.9-0.1-1.3-0.6-1-1.5c0.7-1.9,1.9-3.4,3.7-4.3c1.7-0.8,3.5-0.9,5.3-0.4c2.5,0.7,4.3,3.7,3.9,6.4c-0.2,1.7-1.1,3-2.7,3.6
		c-1.4,0.6-2.7,0.4-4-0.4c-1.2-0.9-1.5-2.4-0.8-3.6s1.9-1.3,2.9-0.4c0.2,0.2,0.5,0.4,0.7,0.6C130.1,123.9,130.2,123.9,130.2,123.9z"
		/>
	<path class="st0" d="M50.3,117.5c0.5-0.3,0.8-0.7,0.7-1.3c-0.1-0.6-0.6-0.9-1.2-1c-0.5-0.1-1-0.1-1.4,0c-1.8,0.5-3.3,2.7-3.1,4.5
		c0.1,0.7,0.5,1.3,0.7,1.9c-0.6-0.2-0.9-0.8-1.3-1.3c-0.5,0.5-1,0.9-1.5,1.4c0.8-1.1,1.2-2.2,0.7-3.5c-0.6-1.5-1.6-2.7-3.2-3.2
		c-1.3-0.4-2.9,0.7-2.2,2.1c0.2,0,0.4,0,0.6-0.1c0.5-0.3,0.8-0.1,0.9,0.4c0.2,0.4,0,0.9-0.5,1.1c-0.8,0.3-1.6,0.1-2.2-0.5
		c-1.2-1.1-1.1-3,0.2-4c0.9-0.7,2-0.9,3.1-0.6c0.3,0.1,0.7,0.2,1.1,0.3c0.1-1.1,0.1-2.2,0.3-3.2c0.2-0.9,0.4-1.8,0.8-2.6
		c0.8-1.7,2.3-1.7,3.3-0.1c0.8,1.2,1,2.5,1.1,3.9c0,0.8,0,1.6,0,2.2c1.1-0.1,2-0.3,3-0.3c1.4,0.1,2.4,1,2.6,2.2
		c0.3,1.5-0.9,3.1-2.4,3c-0.5,0-0.9-0.2-1.1-0.7c-0.1-0.4,0.1-0.7,0.4-0.9C49.8,117.2,50,117.4,50.3,117.5z M44.7,109.9
		c-0.7,1-1,2-1,3.1c0,0.8,0.4,1.4,1,1.4s1-0.5,1.1-1.3c0-0.1,0-0.2,0-0.2C45.7,111.7,45.4,110.8,44.7,109.9z"/>
	<path class="st0" d="M32.5,99.7c0.1,0.2,0.3,0.4,0.4,0.5c-0.2,0.5-0.6,0.7-1.2,0.5c-0.5-0.3-0.6-0.8-0.5-1.3c0.2-1,0.8-1.7,1.8-2
		s1.9-0.1,2.6,0.7c0.8,0.8,1,1.9,0.9,3c-0.1,0.4-0.2,0.8-0.3,1.4c0.5,0,0.9,0,1.3,0c1.3,0.2,2.6,0.3,3.9,0.6c1,0.2,1.9,0.8,2,2
		c0,1.1-0.9,1.6-1.8,2.1c-1.2,0.5-2.4,0.8-3.7,0.8c-0.6,0-1.2,0-1.9,0c0.1,0.4,0.3,0.8,0.4,1.2c0.3,1.3,0.2,2.5-0.7,3.6
		c-0.7,0.8-1.8,1.1-2.8,0.7c-0.9-0.3-1.5-1.2-1.6-2.1c0-0.1,0-0.2,0-0.4c0-0.5,0.2-0.9,0.7-1c0.3,0,0.7,0.2,1.1,0.4
		c-0.3,0.3-0.4,0.5-0.7,0.7c0.3,0.2,0.6,0.6,0.9,0.7s0.8-0.1,1.1-0.4c0.6-0.6,0.6-1.4,0.4-2.2c-0.4-1.6-2.3-3-3.9-3.2
		c-0.9-0.1-1.7,0.2-2.4,0.8c-0.1-0.1-0.1-0.2-0.2-0.3c0.4-0.4,0.9-0.8,1.3-1.2c-0.4-0.5-0.9-0.9-1.3-1.4c2.6,1.5,5.8,0.3,6.6-2.4
		c0.1-0.4,0.1-1,0-1.4C34.4,98.9,33.6,98.7,32.5,99.7z M40.1,105.5c-1-0.7-2.1-1-3.3-1c-0.2,0-0.5,0.1-0.7,0.2
		c-0.2,0.2-0.6,0.5-0.6,0.8s0.3,0.7,0.5,0.8c0.4,0.2,0.9,0.3,1.4,0.2C38.4,106.4,39.3,106.1,40.1,105.5z"/>
	<path class="st0" d="M28.2,47.6c0.4-0.4,0.8-0.9,1.3-1.3c-0.4-0.4-0.9-0.8-1.3-1.3c2.5,1.1,5,0.4,6.2-2c0.3-0.6,0.4-1.3,0.3-2
		c-0.1-0.6-0.4-1.1-1-1.3c-0.6-0.2-1,0.2-1.4,0.7c0.2,0.2,0.3,0.3,0.4,0.5c-0.2,0.5-0.6,0.8-1,0.5c-0.3-0.2-0.6-0.6-0.6-0.9
		c-0.2-1,0.4-1.9,1.4-2.4s2.2-0.2,3,0.6c0.9,1,1.1,2.3,0.8,3.6c-0.1,0.4-0.2,0.7-0.4,1.1c1.2,0.1,2.3,0.1,3.3,0.3
		c0.8,0.1,1.7,0.4,2.5,0.8s1.4,1,1.4,1.9c0,1-0.8,1.5-1.6,1.8c-1.1,0.3-2.2,0.5-3.4,0.7c-0.6,0.1-1.3,0-2,0c0.3,1.2,0.6,2.2,0.2,3.3
		c-0.5,1.4-1.7,2.3-3.1,2c-1.1-0.2-2.1-1.2-2.1-2.3c0-0.5,0.2-1,0.7-1.2s0.8,0,1.1,0.7c-0.1,0.1-0.3,0.3-0.5,0.4
		c0.3,0.5,0.7,0.8,1.4,0.7c0.6-0.2,0.9-0.7,1-1.2s0.1-1-0.1-1.4c-0.5-1.5-2.4-2.9-3.9-3.1c-1-0.1-1.7,0.2-2.4,1
		C28.3,47.8,28.3,47.7,28.2,47.6z M40.1,46.1c-1.2-0.7-2.3-1.2-3.6-0.9c-0.6,0.1-1,0.6-1,1c0,0.5,0.5,0.9,1.1,0.9
		C37.9,47.3,39,46.9,40.1,46.1z"/>
	<path class="st0" d="M39.8,34.9c-0.8-0.7-1.1-0.7-1.4-0.2c-0.4,0.9,0.2,1.9,1.2,2.2c0.7,0.2,1.3,0,1.8-0.3c1.4-0.9,2.3-2.2,2.5-3.9
		c0.2-1-0.3-1.9-1.2-2.7c0.9,0.2,1.2,0.8,1.7,1.4c0.2-0.3,0.4-0.6,0.7-0.8c0.2-0.2,0.5-0.4,0.8-0.6c-1.5,2.4-0.6,5.3,2.1,6.4
		c0.6,0.2,1.2,0.3,1.9,0.1c0.5-0.2,1-0.4,1-1c0.1-0.6-0.3-1-0.8-1.3c-0.1,0.2-0.3,0.3-0.4,0.5c-0.2-0.2-0.3-0.3-0.4-0.4
		c-0.2-0.3-0.2-0.7,0.1-1c0.4-0.4,0.9-0.5,1.4-0.4c1.8,0.4,2.6,2.6,1.4,4.1c-0.8,1-2,1.4-3.2,1.2c-0.6-0.1-1.1-0.3-1.9-0.5
		c0,0.5,0,0.9,0,1.4c0,1.3-0.1,2.5-0.6,3.6c-0.2,0.5-0.6,1.1-1,1.5c-0.8,0.8-1.9,0.7-2.6-0.2c-0.6-0.8-0.9-1.8-1-2.8
		c-0.1-0.5-0.1-1-0.2-1.5c0-0.5,0-1,0-1.5c-0.9,0.1-1.6,0.2-2.3,0.2c-1,0-1.9-0.4-2.5-1.3c-0.7-0.9-0.7-1.9-0.1-2.8
		c0.5-0.8,1.2-1.3,2.2-1.2c0.3,0.1,0.8,0.3,0.9,0.6C40.1,33.9,39.9,34.3,39.8,34.9z M44.7,41.8c0.7-0.9,1-1.8,1.1-2.9
		c0-1-0.5-1.7-1.2-1.6c-0.6,0-1,0.8-0.9,1.7C43.8,40,44.1,41,44.7,41.8z"/>
	<path class="st0" d="M134.6,107.4c-1.2-2.1-1.7-4.1-0.5-6.2c1.4-2.4,3.5-3.2,6.3-2.9c-0.9-0.7-1.8-1.5-2.8-2.3
		c1.6-0.7,3-0.9,4.4-0.2c0.7,0.3,1.3,0.8,1.9,1.2c0.6,0.4,1.2,0.9,1.8,1.4c4.3,3.8,9.6,5.5,15.1,6.5c-0.5,0-0.9,0-1.4-0.1
		s-1-0.1-1.5-0.2c-3.1-0.6-6.1-1.2-9-2.2c-2.5-0.9-5.1-1.5-7.7-1.3c-0.6,0-1.1,0.1-1.7,0.2c-2.3,0.3-3.6,1.7-4.2,3.8
		C134.9,105.8,134.8,106.5,134.6,107.4z"/>
	<path class="st0" d="M103.4,107.4c-0.1-0.6-0.2-1-0.3-1.4c-0.9-3.8-2.7-4.6-5.6-4.8c-2.6-0.3-5.1,0.2-7.5,1.1
		c-3.6,1.3-7.3,2.1-11,2.7c-0.3,0-0.6,0.1-1,0.1c-0.2,0-0.5,0-1,0c1.9-0.4,3.6-0.8,5.3-1.2c4-1,7.5-3,10.6-5.6
		c0.6-0.5,1.2-1,1.9-1.5c1.7-1.3,3.6-1.6,5.8-0.6c-1,0.8-1.9,1.6-3,2.5c3.1-0.5,5.4,0.4,6.7,3.1C105,103.5,104.6,105.5,103.4,107.4z
		"/>
	<path class="st0" d="M92.6,128.2c-0.2-0.1-0.5-0.2-0.7-0.4c-0.9-0.7-1.7-1.4-2.6-2.2c-0.8-0.7-1.7-1.4-2.5-2
		c-1.4-1.1-3-1.8-4.8-1.9c-0.7,0-1.3-0.2-1.9-0.7c0.6-1.1,1.6-0.7,2.4-0.8c0-0.2-0.1-0.3-0.1-0.3c-2.4-1.1-5-1.8-7.6-1.3
		c-1.3,0.2-2.3,0.9-2.8,2.2c-0.1,0.3-0.2,0.5-0.2,0.8c0,0.5,0.3,0.7,0.8,0.5c0.1-0.1,0.2-0.1,0.3-0.2c1.1-0.7,2.1-0.3,2.5,0.9
		c0.3,1.2-0.2,2.3-1.3,2.7c-1.7,0.7-4-0.4-4.6-2.2c-0.8-2.3,0.2-4.8,2.4-5.9c1.9-1,3.9-1,6-0.6c3.8,0.6,6.9,2.5,9.5,5.3
		c1.2,1.3,2.3,2.6,3.4,3.8c0.5,0.5,1,1,1.5,1.5c0.1,0.1,0.3,0.3,0.4,0.5C92.7,128.1,92.7,128.1,92.6,128.2z"/>
	<path class="st0" d="M107.5,31.1c0.3,0.1,0.5,0.1,0.8,0.2c2.7,1,5.1,0.2,7.2-1.6c0.7-0.6,1.3-1.3,1.9-2c0.3-0.3,0.7-0.5,1.1-0.7
		c0.7-0.3,1.3-0.2,1.8,0.4c0.3,0.3,0.6,0.7,0.9,1c1.5,1.5,3.1,2.7,5.3,3c1.2,0.1,2.3,0.1,3.3-0.7c0.1-0.1,0.3-0.2,0.5-0.3
		c-0.3,1.3-0.9,1.9-2.2,1.9c-0.7,0-1.4,0-2.2,0c0.2,0.3,0.4,0.5,0.7,0.9c-0.6,0-1-0.1-1.4-0.1c-0.6,0-1.2-0.5-1.7,0.2
		c-0.1,0.1-0.5,0-0.7-0.1c-0.5-0.4-1-0.8-1.4-1.3c-0.4-0.5-0.5-1.1-0.8-1.6c-0.2-0.3-0.4-0.6-0.6-0.9c-0.1,0-0.2,0-0.3,0.1
		c0,0.2-0.2,0.5-0.1,0.7c0.2,0.6,0.5,1.1,0.8,1.7c0.4,0.8,0.8,1.7,1.1,2.5c0.2,0.5,0.3,1-0.2,1.5c-0.3-0.2-0.6-0.4-0.8-0.5
		c-0.5,0.3-1,0.7-1.5,0.7c-0.4,0-0.9-0.3-1.5-0.5c-0.1,0.1-0.3,0.2-0.6,0.4c-0.6-0.5-0.6-1.1-0.3-1.7c0.4-1,0.9-2,1.3-3.1
		c0.2-0.4,0.5-0.9-0.1-1.5c-0.2,0.4-0.4,0.7-0.6,1.1c-0.3,0.5-0.5,1.1-0.8,1.6c-0.5,0.8-1.1,1.2-2,1.3c-0.1-0.2-0.2-0.4-0.3-0.6
		c-0.8,0.3-1.5,0.7-2.5,0.3c0.1-0.3,0.3-0.6,0.5-0.9c-1.8,0.4-3.5,0.7-4.6-1.1C107.4,31.3,107.4,31.2,107.5,31.1z"/>
	<path class="st0" d="M155.2,120.6c0.7,0.2,1.3,0.4,1.8,0.6c0.2,0.1,0.3,0.4,0.4,0.6c-0.2,0.1-0.4,0.2-0.6,0.3c-0.1,0-0.2,0-0.2,0
		c-2.4-0.3-4.4,0.9-6.3,2.2c-1,0.7-1.9,1.7-2.9,2.5c-0.5,0.4-1,0.7-1.6,1.1c-0.1-0.2-0.1-0.3-0.1-0.3c2-2.1,3.9-4.4,6.1-6.3
		c3.2-2.9,7.1-4.2,11.5-3.6c1.8,0.2,3.3,1,4.4,2.4c0.8,1,1,2.1,0.8,3.4c-0.5,2.8-3.7,3.5-5.4,2.7c-1.3-0.6-1.6-2.6-0.4-3.5
		c0.7-0.5,1.5-0.4,2.1,0.3c0.2,0.2,0.3,0.4,0.5,0.7c0.7-1.1,0.7-2.2-0.4-3c-0.5-0.4-1.2-0.8-1.9-1
		C161.4,119,157.1,119.6,155.2,120.6z"/>
	<path class="st0" d="M200.9,92.4c1.9,1.1,2.3,2.4,1.3,4.1c-0.3-1-1.1-1.3-1.9-1.5c-0.7-0.2-1.4-0.2-2.1-0.3c-1-0.2-2.2-0.3-3.1-0.8
		c-2.8-1.3-5-3.2-6.4-6c-0.7-1.3-1.2-2.6-1.5-4.1c0.3,0.3,0.6,0.6,1,1c2.2,2.3,4.7,4.1,7.7,5.1c1.6,0.5,3.2,0.6,4.8,0.2
		c2.2-0.6,3.6-1.9,4.1-4.2c0-0.1,0.1-0.2,0.1-0.3C205.7,87.7,204.1,90.3,200.9,92.4z"/>
	<path class="st0" d="M50.9,83.7c-1.1,4.1-3.1,7.4-6.7,9.5c-1.4,0.8-2.9,1.3-4.5,1.4c-0.6,0-1.3,0.1-1.9,0.3c-0.8,0.2-1.6,0.5-2,1.5
		c-0.9-1.6-0.5-2.8,1.3-4.1c-2.7-1.5-4.3-3.6-4.3-7.1c0.2,0.4,0.3,0.5,0.4,0.6c0.6,2.5,2.3,3.8,4.7,4.2c1.4,0.3,2.9,0.1,4.2-0.3
		c2.8-0.9,5.1-2.5,7.2-4.6C49.9,84.7,50.4,84.2,50.9,83.7z"/>
	<path class="st0" d="M144.8,107c1.4,2.3,1.7,4.8,2.3,7.3c0.7-1.5,1.1-3.3,3-4.1c0.1,0.5,0.1,0.9,0.2,1.2c0.9-0.3,1.7-0.7,2.6-1
		c0.7-0.2,1.4-0.1,2,0.4c0.2,0.2,0.3,0.5,0.3,0.8c-0.1,0.4-0.4,0.4-0.8,0.3c-1.4-0.6-2.5,0.1-3.5,0.9c-1.1,0.8-1.8,2-2.2,3.2
		c-0.7,1.9-1.3,3.9-1.9,5.8c-0.4,1.3-0.9,2.5-1.4,3.8c-0.2,0.4-0.5,0.8-0.8,1.3c-0.3-0.9-0.1-1.5,0.1-2c1.6-3.6,1.4-7.2,0.7-10.9
		c-0.2-1.2-0.8-2.3-1.3-3.3c-0.5-1.1-0.4-2.2,0.3-3.1C144.4,107.3,144.5,107.2,144.8,107z"/>
	<path class="st0" d="M92.9,126.3c-0.7-0.4-0.9-1-1.1-1.6c-0.6-1.9-1.1-3.9-1.7-5.8c-0.3-1.1-0.6-2.3-1-3.4
		c-0.5-1.5-1.4-2.8-2.7-3.7c-0.9-0.6-1.8-1.1-2.9-0.9c-0.2,0-0.5,0-0.9-0.1c0.5-0.9,1.3-1.3,2.1-1.1c0.8,0.2,1.5,0.6,2.4,0.9
		c0.1-0.2,0.3-0.5,0.4-0.9c0.1,0,0.2,0,0.3,0.1c0.8,0.4,1.3,1.1,1.5,1.9c0.2,0.9,0.5,1.7,0.8,2.6c0.1,0,0.2,0,0.3,0
		c0.3-1,0.5-2,0.8-3c0.3-1.1,0.5-2.2,0.8-3.2c0.1-0.5,0.2-1.1,0.9-1.4c0.7,0.6,1.1,1.4,0.8,2.4c-0.1,0.2-0.2,0.5-0.2,0.7
		c-1.9,4.2-2.4,8.5-1.2,12.9c0.2,1,0.4,1.9,0.6,2.9C93,125.6,92.9,125.9,92.9,126.3z"/>
	<path class="st0" d="M110.1,24.6c-0.4,1.2,0.1,2,1.2,2.2c1.4,0.3,2.6-0.3,3.3-1.6c0.6-1,1.1-1.3,2.2-1.1c0.4,0.1,0.6,0.3,0.5,0.8
		c-0.1,0.3-0.1,0.5-0.3,0.8c-0.7,1.4-1.7,2.5-3.1,3.3c-1.5,0.8-3.1,0.7-4.5-0.3c-1.4-0.9-2.2-2.3-2.1-4c0.1-2.3,2.6-4,4.5-3.1
		c1.3,0.5,1.9,1.9,1.2,3c-0.5,0.9-1.3,1.1-2.1,0.6C110.7,25,110.5,24.9,110.1,24.6z"/>
	<path class="st0" d="M120.3,24.5c1.4-0.5,1.9-0.4,2.7,0.7c0.5,0.8,1.2,1.2,2.2,1.4c1.5,0.2,2.5-0.7,2.3-2.4
		c-0.3,0.2-0.5,0.3-0.7,0.5c-0.5,0.5-1,0.6-1.6,0.3s-0.9-0.9-0.9-1.6c0-0.9,0.5-1.6,1.3-2c2.1-1,4.6,0.6,4.6,3.1
		c0,1.8-1.2,4.2-3.8,4.5C123.5,29.5,120.6,27.5,120.3,24.5z"/>
	<path class="st0" d="M83.9,25.5c-0.3,1,0.1,1.6,0.7,2c0.4,0.3,1,0.6,1.5,0.7c1.6,0.3,4.1-0.2,5.7-1.1c-0.6-0.2-1.5,0.2-1.8-0.8
		c0.5-0.1,1.1-0.4,1.6-0.4c1.2-0.1,2.3-0.6,3.3-1.3c1.1-0.8,2.1-1.7,3.2-2.6c0.4-0.3,0.8-0.6,1.3-0.8c-0.1,0.2-0.3,0.3-0.4,0.5
		c-1.1,1.2-2.3,2.5-3.4,3.7c-1.9,2.1-4.2,3.6-7.1,4.2c-1.3,0.2-2.7,0.3-4-0.2c-1.9-0.7-2.8-2.2-2.5-4.2c0.2-1.5,1.8-2.6,3.3-2.2
		c0.9,0.2,1.4,1.1,1.2,2c-0.2,0.9-1,1.2-1.8,0.8C84.5,25.7,84.2,25.6,83.9,25.5z"/>
	<path class="st0" d="M139.3,21.4c0.6,0.5,1.3,1,1.9,1.5c1,0.9,2.1,1.7,3.4,2.2c0.8,0.3,1.6,0.6,2.5,0.5c0.2,0,0.4,0.1,0.8,0.1
		c-0.4,0.8-1.3,0.4-1.8,1c2,0.8,4.1,1.3,6.2,0.7c1.5-0.4,2-1.5,1.5-2.8c-0.1,0.1-0.3,0.2-0.3,0.3c-0.4,0.4-0.8,0.7-1.4,0.5
		s-0.8-0.8-0.9-1.3c-0.1-0.6,0.2-1,0.7-1.3c1.3-0.8,3.4-0.2,4,1.2c0.6,1.3,0.3,2.4-0.6,3.4c-0.9,0.9-2,1.5-3.3,1.6
		c-3.1,0.3-5.9-0.6-8.3-2.7c-1.3-1.1-2.4-2.4-3.6-3.7c-0.3-0.3-0.6-0.7-1-1C139.1,21.5,139.2,21.5,139.3,21.4z"/>
	<path class="st0" d="M213.8,46.2c0.6-0.9,1.3-1.2,2.3-1.3c1.4-0.2,2.7-0.6,4.1-0.9c0.3-0.1,0.7-0.1,0.9,0c1.3,0.7,2.5,1.4,3.9,2.2
		c-1.5,0.8-2.8,1.6-4.1,2.3c-0.2,0.1-0.5,0-0.7,0c-1.4-0.3-2.9-0.7-4.3-1C215,47.4,214.4,47,213.8,46.2z"/>
	<path class="st0" d="M192.9,14.3c0.8,1.4,1.5,2.7,2.2,3.9c0.1,0.2,0.1,0.6,0,0.9c-0.3,1.5-0.7,3-0.9,4.6c-0.1,0.8-0.7,1.3-1.3,1.8
		c-0.8-0.5-1.2-1.2-1.3-2.1c-0.2-1.3-0.5-2.7-0.8-4c-0.1-0.5-0.2-0.9,0.1-1.4C191.5,16.9,192.1,15.7,192.9,14.3z"/>
	<path class="st0" d="M44.7,14.3c0.8,1.4,1.5,2.6,2.2,3.9c0.1,0.2,0.1,0.6,0.1,0.9c-0.3,1.6-0.7,3.1-1,4.7c-0.2,0.8-0.6,1.3-1.3,1.7
		c-0.8-0.6-1.2-1.2-1.3-2.2c-0.1-1.3-0.5-2.7-0.9-4c-0.1-0.5-0.1-0.9,0.1-1.3C43.3,16.8,43.9,15.6,44.7,14.3z"/>
	<path class="st0" d="M23.7,46.2c-0.5,0.7-1.1,1.2-2.1,1.3c-1.5,0.2-2.9,0.6-4.3,0.9c-0.3,0.1-0.6,0.1-0.8,0c-1.3-0.7-2.6-1.4-4-2.2
		c1.5-0.8,2.8-1.6,4.1-2.3c0.2-0.1,0.5,0,0.8,0.1c1.4,0.3,2.8,0.7,4.2,0.9C22.6,45.1,23.2,45.5,23.7,46.2z"/>
	<path class="st0" d="M23.7,105.5c-0.6,0.9-1.3,1.2-2.2,1.3c-1.3,0.2-2.6,0.5-4,0.9c-0.4,0.1-0.7,0.2-1.1,0
		c-1.2-0.7-2.4-1.4-3.8-2.2c1.5-0.8,2.8-1.6,4.1-2.3c0.2-0.1,0.4,0,0.7,0c1.6,0.3,3.1,0.7,4.7,1C22.7,104.4,22.8,104.4,23.7,105.5z"
		/>
	<path class="st0" d="M42.4,133.3c0.4-1.9,0.7-3.6,1-5.4c0.1-0.8,0.6-1.2,1.2-1.7c0.8,0.5,1.2,1.1,1.4,2c0.2,1.4,0.6,2.8,0.9,4.2
		c0.1,0.4,0.1,0.8,0,1.1c-0.6,1.3-1.4,2.5-2.1,3.9C43.8,135.8,43,134.5,42.4,133.3z"/>
	<path class="st0" d="M213.9,105.4c0.6-0.8,1.3-1.2,2.2-1.3c1.4-0.2,2.7-0.6,4.1-0.9c0.3-0.1,0.6-0.1,0.8,0c1.3,0.7,2.6,1.4,4.1,2.2
		c-1.4,0.8-2.7,1.5-4,2.2c-0.2,0.1-0.6,0-0.9,0c-1.4-0.3-2.7-0.7-4.1-0.9C215.1,106.6,214.4,106.3,213.9,105.4z"/>
	<path class="st0" d="M137.3,46.9c-0.1-1.5-0.1-1.5-0.8-2.1c-0.4,0.7-0.9,1.4-1.3,2.1c1.2,1.3,1.7,1.3,3.9,0.3
		c-0.3,0.8-0.8,1.4-1.3,2c-1-0.6-2-1.3-3.1-1.9c-0.7-0.4-1.5-0.8-2.2-1.1c-1.4-0.7-2.3-2.2-2-3.6c0.4-1.7,1.8-2.9,3.4-2.8
		c0.5,0,1,0.1,1.4,0.4c1.9,1.1,3.8,2.4,5.8,3.6c-0.4,0.7-0.7,1.2-1.2,2c-0.1-0.8-0.1-1.5-0.3-2.1c-0.2-0.6-0.8-1-1.6-1.2
		c-0.4,0.6-0.8,1.2-1.2,1.8c0.7,0.9,1.3,0.2,2.1,0.1C138.4,45.1,137.9,45.9,137.3,46.9z M136,41.7c-0.2-0.3-0.5-0.8-0.8-1.1
		c-0.4-0.3-1-0.3-1.4,0.1c-1.1,1-1.7,2.2-1.9,3.7c-0.1,0.6,0.2,1,0.7,1.3c0.5,0.2,1,0.2,1.5-0.1C135.1,44.6,135.6,43.3,136,41.7z"/>
	<path class="st0" d="M192.9,137.4c-0.8-1.4-1.4-2.6-2.1-3.7c-0.2-0.4-0.2-0.8-0.1-1.3c0.3-1.4,0.7-2.7,0.9-4.1
		c0.1-0.9,0.5-1.5,1.3-2.1c0.7,0.5,1.2,1.1,1.3,2c0.2,1.4,0.6,2.8,0.9,4.2c0.1,0.3,0.1,0.7,0,1C194.4,134.7,193.7,135.9,192.9,137.4
		z"/>
	<path class="st0" d="M142.2,33.5c0,0.4,0,0.6,0,1c-1.4-0.5-1.6-1.8-2.2-3.1c-0.5,2-0.7,3.8-1.7,5.4c-0.8-0.6-1.1-1.2-0.8-2
		c0.1-0.3,0.2-0.5,0.3-0.8c1.4-2.7,1.3-5.6,0.9-8.5c-0.1-0.6-0.4-1.2-0.6-1.8c-0.1-0.4-0.2-0.9-0.3-1.3c0.1,0,0.2-0.1,0.3-0.1
		c0.2,0.4,0.5,0.8,0.6,1.2c0.6,1.6,1.1,3.2,1.7,4.9c0.3,0.9,0.6,1.8,1,2.5s1,1.4,1.6,1.9s1.4,0.9,2.3,0.6c0.6-0.2,0.8,0.2,0.9,0.6
		C145.2,34.6,144.3,34.5,142.2,33.5z"/>
	<path class="st0" d="M99.6,22.8c-0.2,1.1-0.3,2.2-0.6,3.3c-0.8,3-0.3,5.9,0.9,8.7c0.5,1.2,0.5,1.6-0.3,2.5
		c-0.6-0.2-0.6-0.7-0.7-1.1c-0.2-0.7-0.4-1.5-0.6-2.2c-0.2-0.7-0.4-1.5-0.6-2.3c-0.8,1.1-0.6,2.7-2.1,3.3c-0.1-0.2-0.3-0.4-0.4-0.6
		c-0.6,0.2-1.1,0.6-1.7,0.7s-1.2-0.1-1.6-0.8c0.2-0.1,0.4-0.2,0.5-0.2c1.2,0.2,2-0.4,2.8-1.1c1-0.9,1.5-2.1,1.9-3.4
		c0.4-1.6,0.8-3.2,1.3-4.7c0.2-0.7,0.6-1.5,0.9-2.2C99.3,22.7,99.4,22.7,99.6,22.8z"/>
	<path class="st0" d="M49.9,83.6c-0.4,0.4-0.8,0.8-1.3,1.2c-2.1,1.5-4.4,2.6-6.8,3.5c-1.1,0.4-2.3,0.5-3.4,0.1c-1.4-0.5-2.1-1.6-2-3
		c0.1-1.6,1-2.4,2.8-2.1c-0.2,0.1-0.3,0.2-0.4,0.3c-1,0.7-1,1.7-0.1,2.5c0.7,0.6,1.5,0.8,2.4,0.6c1.5-0.3,2.9-0.7,4.4-1.2
		C47,84.8,48.4,84.1,49.9,83.6L49.9,83.6z"/>
	<path class="st0" d="M87,105.4c2.4-0.9,4.5-1.8,6.7-2.2c1.3-0.2,2.6-0.2,3.9,0.2c0.6,0.2,1.2,0.5,1.7,0.8c1.3,1,1.4,2.7,0.4,4.1
		c-0.6,0.8-2,1.4-3,0.4c0.3-0.1,0.5-0.1,0.8-0.2c0.8-0.3,1.1-1,0.8-1.8c-0.3-0.8-0.9-1.3-1.6-1.5c-1-0.2-2.1-0.4-3.2-0.3
		c-1.9,0.1-3.8,0.3-5.7,0.5C87.6,105.4,87.4,105.4,87,105.4z"/>
	<path class="st0" d="M141.3,108.6c-1.3,0.8-2.3,0.6-3.1-0.5c-1.1-1.5-0.7-3.5,1-4.4c1.6-0.9,3.3-0.9,5-0.6c2.3,0.4,4.4,1.3,6.5,2.3
		c-0.9-0.1-1.8-0.3-2.7-0.3c-1.9-0.1-3.7-0.1-5.6-0.1c-0.5,0-1,0.2-1.5,0.4c-0.9,0.4-1.5,1.3-1.4,2
		C139.7,108.3,140.4,108.5,141.3,108.6z"/>
	<path class="st0" d="M198.7,83.2c1.7-0.2,2.3,0.1,2.7,1.3c0.5,1.2,0.1,2.6-1,3.4c-1,0.7-2.1,0.9-3.2,0.7c-3.2-0.8-6.2-2.3-8.7-4.5
		c-0.1-0.1-0.1-0.2-0.2-0.3c0,0,0-0.1,0-0.2c0.3,0.1,0.7,0.3,1,0.4c2.1,1,4.1,1.9,6.4,2.3c0.8,0.2,1.6,0.2,2.5,0.2
		c0.4,0,0.8-0.2,1.1-0.4c1.1-0.8,1-1.9-0.1-2.6C199,83.4,198.9,83.4,198.7,83.2z"/>
	<path class="st0" d="M146,125.6c0.1-0.2,0.1-0.4,0.2-0.6c1-2.3,1.9-4.6,2.9-6.8c0.4-0.8,1-1.5,1.6-2.2c0.3-0.4,0.8-0.7,1.4-0.5
		c-0.1,0.4-0.1,0.8-0.2,1.4c0.9-0.4,1.7-0.7,2.4-1.1c0.9-0.4,1.7-0.3,2.5,0.2c0,0,0.1,0.1,0.1,0.3c-0.2,0-0.4,0.1-0.6,0.1
		c-1.2-0.2-2.3,0.2-3.2,1c-0.9,0.7-1.7,1.5-2.4,2.3c-1.6,2-3.1,4.1-4.6,6.1C146.1,125.6,146.1,125.6,146,125.6z"/>
	<path class="st0" d="M85.5,116c0-0.5,0-0.8,0.1-1.2c1,0.1,1.5,0.8,2.1,1.4c0.3,0.3,0.5,0.7,0.6,1c0.9,2.3,1.9,4.7,2.8,7
		c0.1,0.1,0.1,0.3-0.1,0.6c-0.2-0.3-0.5-0.6-0.7-1c-0.8-1.2-1.5-2.4-2.2-3.5c-1.3-2-3.1-3.4-5.2-4.5c-0.6-0.3-1.2-0.4-1.8-0.1
		c-0.3,0.1-0.6,0.1-0.7-0.2c0-0.2,0.3-0.5,0.5-0.5c1.2-0.2,2.4,0.1,3.5,0.5C84.7,115.5,85,115.7,85.5,116z"/>
	<path class="st0" d="M97.1,51.5c-1.2,0.4-2.3,0.2-3.3,0.2c-1.1,0-2.1,0-3.3,0.2c0.8,0.7,1.6,1.5,2.5,2.1c0.3,0.2,0.9,0.1,1.4,0.1
		c-0.3,0.7-0.9,1.1-1.5,1.7c0.2-1.1-0.5-1.6-1.1-2.1c-0.5-0.4-0.9-0.8-1.4-1.2c-1-0.8-1-0.8-2.2-0.6c0.7-1,1.3-1.9,2.7-1.7
		c1.2,0.1,2.4,0,3.7,0c-0.6-0.8-1.3-1.4-2-1.8c-0.3-0.2-0.8,0-1.2,0.1c0.1-0.6,0.4-1,1.6-2c-0.5,1.1,0.3,1.6,0.9,2.2
		c0.8,0.7,1.6,1.4,2.4,2C96.5,50.8,96.7,51.1,97.1,51.5z"/>
	<path class="st0" d="M89.2,62.5c0.1-1-0.5-1.6-1.4-1.9c-0.7-0.3-1.3-0.6-1.9-1s-1.3-0.8-2,0.3c0.3-1.8,0.7-2.2,2.1-2.5
		c1.2-0.2,2.3-0.5,3.6-0.8c-0.7-0.7-1.5-1-2.3-1.3c-0.3-0.1-0.8,0.2-1.4,0.3c0.4-0.7,0.7-1.4,1.1-2.1c0.1,1.3,1.2,1.5,2.1,2
		c1,0.6,2.1,1.1,3.2,1.7c-0.2,0.6-0.7,0.6-1.1,0.7c-1.7,0.4-3.3,0.7-5.2,1.1c0.3,0.2,0.4,0.4,0.6,0.5c0.6,0.3,1.1,0.6,1.7,0.9
		c1.1,0.6,1.1,0.5,2.2,0C90.1,61.1,89.8,61.9,89.2,62.5L89.2,62.5z"/>
	<path class="st0" d="M124.5,126c-0.6,0.1-1.2,0.2-1.8,0.2c-1.8,0-3.7-0.1-5.5-0.1c-0.9,0-1.8,0-2.8-0.1c-0.3,0-0.6,0-1,0
		c-0.5,0-0.7-0.4-0.7-0.8c0-0.5,0.3-0.7,0.7-0.7c0.6,0,1.1,0.1,1.7,0.1c2.5,0,5,0,7.5,0.1c0.3,0,0.6,0,1,0
		C124.4,124.7,124.6,124.9,124.5,126z"/>
	<path class="st0" d="M142.2,49.6c-0.5,0.5-0.9,1-1.4,1.5c0.2,0.3,0.3,0.6,0.4,0.9c-0.1,0-0.1,0.1-0.2,0.1c-0.8-0.8-1.6-1.5-2.4-2.3
		c0-0.1,0.1-0.1,0.1-0.2c0.3,0.1,0.5,0.2,0.9,0.4c1.1-1.2,2.3-2.5,3.5-3.7c-0.2-0.3-0.3-0.6-0.4-0.9c0.2,0,0.3-0.1,0.4,0
		c1,0.9,1.9,1.8,2.9,2.7c0.2,0.2,0.4,0.4,0.5,0.7c0.4,0.7,0.3,1.4-0.2,2s-1.2,0.7-1.9,0.4c-0.4-0.2-0.8-0.5-1.2-0.8
		C142.9,50.2,142.6,49.9,142.2,49.6z M142.5,49.2c0.6,0.6,1,1.2,1.8,1c0.6-0.1,1.1-0.6,1.2-1.2c0.1-0.8-0.4-1.2-1.2-1.6
		C143.8,47.9,143.2,48.5,142.5,49.2z"/>
	<path class="st0" d="M148.1,64c1.1-0.3,1.8-0.6,2.5-0.8c0.1,0.1,0.1,0.2,0.2,0.2c-0.2,0.3-0.5,0.5-0.7,0.8
		c-0.6,0.7-0.9,1.4-0.6,2.3c0.2,0.6,0.6,0.9,1.1,0.9c0.5-0.1,0.8-0.4,0.9-1.1c0-0.6,0-1.3,0-1.9c0.1-1.2,0.5-1.7,1.5-1.9
		c1-0.2,1.8,0.3,2.2,1.3c0.2,0.4,0.2,0.9,0.2,1.3c0.1,0.4,0.2,0.9,0.3,1.5c-0.5,0.2-1.2,0.4-1.9,0.7c0-0.1-0.1-0.1-0.1-0.2
		c0.3-0.3,0.5-0.6,0.8-1c0.5-0.6,0.6-1.3,0.3-2c-0.2-0.4-0.5-0.7-1-0.7s-0.7,0.4-0.7,0.8c0,0.6,0,1.1,0,1.7c0,1.2-0.4,1.8-1.3,2.2
		c-1,0.4-2,0.1-2.4-0.8c-0.3-0.6-0.5-1.3-0.4-1.9C149,64.8,148.8,64.4,148.1,64z"/>
	<path class="st0" d="M94.2,45.3c1-0.7,1.9-1.3,2.9-2c-0.4,1.1-0.4,1.1,0.2,1.9c0.5,0.7,1,1.5,1.5,2.1c0.7,0.8,1.3,0.9,2.1,0.4
		c0.9-0.6,1-1.3,0.5-2.1c-0.4-0.7-0.9-1.3-1.3-2c-0.4-0.6-0.8-1.4-1.9-0.7c0-0.1,0-0.3,0-0.4c0.6-0.4,1.2-0.9,1.9-1.4
		c-0.2,1.3-0.2,1.3,0.5,2.3c0.4,0.6,0.8,1.2,1.2,1.8c0.7,1.1,0.5,1.9-0.4,2.8c-0.3,0.3-0.7,0.6-1.2,0.8c-1.1,0.6-2,0.4-2.7-0.6
		c-0.5-0.7-1-1.4-1.5-2.1C95.4,45.2,95.4,45.2,94.2,45.3z"/>
	<path class="st0" d="M89.1,62.5c-0.2,1-0.4,1.9-0.6,2.9c-0.1,0-0.2,0-0.2,0c-0.1-0.2-0.2-0.4-0.3-0.6c-1.3-0.1-1.3-0.1-1.7,1
		c-0.1,0.3-0.2,0.7-0.3,1c0.8,0.9,0.9,1,1.7,0.1c0.1,0.7,0,1.1-0.6,2.3c-0.8-1.7-2.4-2.4-3.6-3.6c-0.4-0.3-0.8-0.6-1.1-0.9
		c-0.2-0.1-0.3-0.5-0.3-0.6c0.1-0.2,0.4-0.4,0.6-0.4c1.4-0.2,2.8-0.4,4.2-0.5C87.7,63.1,88.5,63.1,89.1,62.5L89.1,62.5z M86.1,64.8
		c-0.9,0.1-1.5,0.2-2.4,0.3c0.7,0.6,1.2,1,1.8,1.5C85.7,66,85.9,65.5,86.1,64.8z"/>
	<path class="st0" d="M39.3,129.9c-0.5,2.3-1.8,3.6-3.9,4.1c-1.2,0.3-2.3-0.2-2.9-1.1c-0.2-0.3-0.3-0.7-0.3-1.1
		c0-0.8,0.4-1.2,1.2-0.8c0.3,0.1,0.5,0.2,0.7,0.4c1,0.7,2.1,0.6,3.1,0C37.9,131,38.5,130.5,39.3,129.9z"/>
	<path class="st0" d="M108.3,38.4c-1.4,0.3-1.3,1.4-1.5,2.4c-0.5-0.7-0.5-1.4-0.6-2.2c1.8-0.5,3.6-1,5.5-1.5
		c0.3,0.7,0.5,1.4,0.8,2.3c-1-0.6-1.3-2.1-2.7-1.3c0.4,1.6,0.8,3.2,1.3,4.7c0.1,0.3,0.6,0.4,1,0.6c-1,0.5-2,0.7-3.3,0.9
		c0.4-0.4,0.7-0.6,0.7-0.9c0.1-0.3-0.1-0.6-0.2-0.9C109,41.2,108.7,39.8,108.3,38.4z"/>
	<path class="st0" d="M144.2,55.6c0.9,0.4,0.9,0.4,1.7-0.1c0.9-0.6,1.8-1.2,2.7-1.8c0.3-0.2,0.6-0.4,0.8-0.6
		c-0.2-0.7-0.6-0.9-1.2-0.9c-0.5,0-0.9,0.1-1.5,0c0.6-0.4,1.3-0.7,2-1.1c1.1,1.6,2.1,3.2,3.1,4.8c-0.6,0.5-1.2,0.9-2,1.5
		c0.3-1.1,1.6-1.8,0.6-2.9c-0.3,0.1-0.6,0.2-0.8,0.4c-1,0.6-1.9,1.3-2.9,1.9c-0.7,0.5-0.7,0.5-0.7,1.5
		C145.1,57.5,144.7,56.5,144.2,55.6z"/>
	<path class="st0" d="M19.8,99.9c-2.5-0.1-4.6-2.8-3.9-5.1c0.3-1.2,1.3-1.9,2.3-1.9c0.7,0,1.2,0.6,0.7,1.2c-0.1,0.2-0.2,0.3-0.3,0.5
		c-0.7,1.3-0.7,2.6,0.2,3.8C19.1,98.9,19.5,99.4,19.8,99.9z"/>
	<path class="st0" d="M217.6,100c0.4-0.5,0.8-0.9,1.1-1.3c0.9-1.3,1.2-2.6,0.2-4c0-0.1-0.1-0.1-0.1-0.2c-0.2-0.4-0.6-0.7-0.2-1.2
		c0.3-0.5,0.9-0.4,1.3-0.3c0.7,0.1,1.2,0.6,1.5,1.3c0.6,1.3,0.4,2.5-0.4,3.6C220.3,99,219.2,99.8,217.6,100z"/>
	<path class="st0" d="M217.6,111c2.5,0.4,4.3,2.4,4.1,4.6c-0.1,1-0.5,1.8-1.5,2.3c-0.3,0.1-0.7,0.2-1,0.2c-0.7-0.1-0.9-0.5-0.6-1.1
		c0.1-0.3,0.2-0.5,0.4-0.7c0.8-1.3,0.6-2.5-0.1-3.7C218.5,112.1,218.1,111.6,217.6,111z"/>
	<path class="st0" d="M198.4,130c0.7,0.5,1.2,1,1.8,1.4c1,0.7,2,0.8,3.1,0.1c0.3-0.2,0.5-0.3,0.8-0.5c0.9-0.4,1.4,0,1.3,1
		c-0.1,0.7-0.5,1.3-1,1.7c-0.8,0.5-1.6,0.7-2.5,0.4C200.1,133.6,198.7,132,198.4,130z"/>
	<path class="st0" d="M20,40.7c-2.6-0.4-4.3-2.4-4.2-4.6c0.1-1.1,0.9-2.2,1.8-2.4c0.5-0.1,1-0.1,1.3,0.3c0.1,0.3,0,0.7-0.1,1.1
		c0,0.1-0.1,0.1-0.1,0.2c-1.2,1.6-0.7,3.1,0.5,4.4C19.4,40,19.6,40.2,20,40.7z"/>
	<path class="st0" d="M50.4,130.1c0.6,0.4,1,0.8,1.4,1.1c1.2,0.8,2.4,0.9,3.7,0.1c0.2-0.1,0.3-0.2,0.5-0.3c0.9-0.4,1.3-0.1,1.3,0.8
		s-0.6,1.7-1.5,2.1c-0.8,0.3-1.6,0.2-2.3,0C51.8,133.4,50.5,131.9,50.4,130.1z"/>
	<path class="st0" d="M19.1,117.5c-0.6,0.7-1.2,0.7-1.8,0.4c-1-0.4-1.4-1.2-1.5-2.3c-0.2-2.2,1.6-4.2,4.1-4.6
		c-0.7,1-1.6,1.8-1.8,3.1C17.9,115.4,18.8,116.4,19.1,117.5z"/>
	<path class="st0" d="M187.3,130c-0.5,2-1.5,3.4-3.4,4.1c-1.2,0.4-2.2,0-3-0.9c-0.3-0.3-0.5-0.8-0.5-1.2c0-0.3,0.1-0.8,0.4-1
		c0.1-0.1,0.7,0,0.9,0.2c1.9,1.2,3.5,0.8,4.9-0.5C186.8,130.4,187,130.2,187.3,130z"/>
	<path class="st0" d="M217.7,51.7c2.5,0.3,4.3,2.4,4.1,4.6c-0.1,1.2-0.9,2.2-2,2.3c-0.4,0-0.8-0.1-1.1-0.3c-0.4-0.4-0.1-0.8,0.2-1.2
		c1-1.5,0.9-3-0.2-4.4c-0.2-0.2-0.4-0.4-0.5-0.6C217.9,52.1,217.9,52,217.7,51.7z"/>
	<path class="st0" d="M19.8,51.8c-0.3,0.4-0.6,0.7-0.8,1c-1.1,1.4-1.3,2.9-0.3,4.4c0.2,0.4,0.6,0.7,0.3,1.2
		c-0.3,0.4-0.9,0.5-1.5,0.2c-0.9-0.3-1.3-1-1.5-1.8C15.3,54.6,17.4,51.9,19.8,51.8z"/>
	<path class="st0" d="M198.4,21.7c0.4-2.8,2.9-4.6,5.2-4c1.1,0.3,1.9,1.3,1.8,2.2c0,0.8-0.5,1.1-1.2,0.8c-0.2-0.1-0.4-0.2-0.6-0.4
		c-1.3-0.8-2.6-0.6-3.8,0.2C199.3,20.9,198.9,21.3,198.4,21.7z"/>
	<path class="st0" d="M39.2,21.7c-0.6-0.5-1.1-0.9-1.6-1.3c-1.2-0.8-2.4-0.9-3.6-0.1c-0.1,0.1-0.3,0.2-0.4,0.2
		c-0.4,0.2-0.9,0.5-1.2,0.1c-0.2-0.3-0.3-0.8-0.2-1.2c0.2-1.2,1.6-2,3-1.8C37.3,17.8,38.8,19.3,39.2,21.7z"/>
	<path class="st0" d="M217.7,40.5c0.4-0.5,0.8-1.1,1.2-1.6c0.8-1.1,0.9-2.3,0.1-3.5c-0.1-0.2-0.3-0.4-0.4-0.6
		c-0.1-0.3-0.2-0.7-0.1-0.9c0.3-0.2,0.7-0.4,1-0.4c1,0,2,1.1,2.1,2.3c0.2,1.7-0.9,3.5-2.6,4.4c-0.4,0.2-0.9,0.3-1.3,0.5
		C217.8,40.7,217.8,40.6,217.7,40.5z"/>
	<path class="st0" d="M187.1,21.6c-0.5-0.4-0.9-0.7-1.3-1c-1.2-1-2.5-1-3.8-0.4c-0.1,0.1-0.2,0.1-0.3,0.2c-0.4,0.2-0.8,0.6-1.2,0.2
		c-0.5-0.4-0.4-0.9-0.2-1.4c0.3-0.9,1.2-1.6,2.4-1.7c2-0.1,4.1,1.6,4.5,3.6C187.3,21.3,187.2,21.4,187.1,21.6z"/>
	<path class="st0" d="M50.1,21.9c0.6-2.5,2.1-4,4.1-4.2c1-0.1,1.9,0.1,2.6,0.9c0.3,0.3,0.4,0.8,0.5,1.2c0,0.3-0.1,0.8-0.3,0.9
		c-0.2,0.1-0.7,0.1-1-0.1c-2.2-1.1-3.2-1-5.1,0.6C50.7,21.4,50.5,21.5,50.1,21.9z"/>
	<path class="st0" d="M129,42.2c0,0.9-0.4,1.3-1.1,1.6c-1.5,0.7-3.6-0.2-4.1-1.8c-0.5-1.3,0-3,1-3.8c1-0.9,2.4-1,3.8-0.3
		c0.4,0.2,0.8,0.2,1.4,0.4c-0.1,0.7-0.2,1.4-0.4,2.1c-0.1,0-0.2,0-0.2,0c-0.1-0.3-0.2-0.6-0.3-0.8c-0.1-0.3-0.2-0.7-0.4-1
		c-0.7-1.1-2.2-1-2.7,0.1c-0.4,0.9-0.6,2-0.7,3c-0.1,0.7,0.2,1.3,0.9,1.6c0.7,0.3,1.4,0.2,2-0.3C128.5,42.8,128.7,42.5,129,42.2z"/>
	<path class="st0" d="M193.3,81.3c0.5-0.8,1.3-0.7,2-0.5c0.9,0.2,1.5,1,1.5,1.8s-0.3,1.5-1.1,1.9c-0.3,0.2-0.7,0.3-1,0.3
		c-1.4,0.1-2.7-0.3-4.1-1.1c0.5-0.3,1-0.2,1.4-0.2c0.5,0,1,0,1.6-0.1c0.7-0.1,1-0.5,1-1c0-0.7-0.4-0.9-1-0.9
		C193.4,81.4,193.4,81.3,193.3,81.3z"/>
	<path class="st0" d="M44.7,81.3c-0.9,0.2-1.2,0.5-1.2,1c0,0.6,0.5,1,1.5,1.1c0.8,0,1.5,0,2.5,0c-0.3,0.3-0.4,0.5-0.6,0.6
		c-1,0.3-2,0.6-3,0.8c-0.5,0.1-1-0.1-1.5-0.3c-0.8-0.3-1.2-1.1-1.1-1.9c0.1-0.9,0.6-1.4,1.4-1.8C43.5,80.4,44,80.6,44.7,81.3z"/>
	<path class="st0" d="M139.3,23c1,1.4,2,2.6,2.9,3.9c0.4,0.5,0.8,1.1,1.3,1.6c1,1,2.2,1.8,3.7,1.5c-0.5,0.6-1.1,0.8-1.8,0.5
		c-0.6-0.3-1.1-0.5-1.8-0.9c0,0.4,0.1,0.7,0.1,0.9c-0.5,0.2-0.8,0-1.1-0.3c-0.4-0.5-0.8-1-1.1-1.5c-0.8-1.7-1.5-3.4-2.2-5.1
		C139.3,23.5,139.3,23.3,139.3,23z"/>
	<path class="st0" d="M148.3,61.9c0,0.4,0,0.7,0.1,1c-0.1,0-0.1,0.1-0.2,0.1c-0.5-1-0.9-1.9-1.5-3.1c0.3,0.1,0.5,0.1,0.5,0.2
		c0.3,0.4,0.6,0.4,1,0.2c1.3-0.6,2.7-1.2,4-1.9c0-0.3,0-0.7,0-1c0.1,0,0.1,0,0.2,0c0.5,1,0.9,2,1.4,3.1c-1-0.6-1-0.6-2.1-0.1
		C150.6,60.8,149.5,61.4,148.3,61.9z"/>
	<path class="st0" d="M104.8,39.3c-0.7,0.4-0.6,0.9-0.3,1.6c0.6,1.3,1.2,2.6,1.8,3.9c0.4,0,0.7-0.1,0.9-0.1c0,0.1,0.1,0.2,0.1,0.2
		c-1,0.4-2,0.9-3,1.3c0-0.1-0.1-0.1-0.1-0.2c0.2-0.3,0.5-0.5,0.5-0.8s-0.2-0.7-0.4-1c-0.5-1.2-1.1-2.4-1.6-3.6c-0.3,0-0.7,0-1.2,0
		C102.7,40,103.7,39.6,104.8,39.3z"/>
	<path class="st0" d="M90.1,30.5c0.2,0,0.4-0.1,0.5,0c0.5,0.3,1,0.1,1.5-0.1c1.5-0.8,2.9-1.8,3.8-3.4c0.5-0.7,0.9-1.5,1.4-2.2
		c0.2-0.3,0.4-0.5,0.8-1c0,0.4,0,0.6,0,0.7c-0.6,1.6-1.3,3.3-1.9,4.9c-0.3,0.8-1,1.4-1.9,1.8c-0.1-0.3-0.1-0.6-0.2-0.8
		C91.2,31.4,91,31.4,90.1,30.5z"/>
	<path class="st0" d="M123.1,22.7c0.1,0.7-0.3,0.8-0.8,0.9c-0.6,0.1-1.2,0.3-1.8,0.3c-1.8,0-3.7,0-5.5,0c-0.4,0-0.7-0.1-0.7-0.6
		s0.3-0.6,0.7-0.6c2.5-0.1,5-0.2,7.5-0.2C122.8,22.5,123,22.6,123.1,22.7z"/>
	<path class="st0" d="M94,123.3c-1.4-2.1-0.6-7.5,1.2-9.5c0.3,0.2,0.4,0.4,0.3,0.8s-0.3,0.8-0.4,1.1c-1.1,2.2-1.5,4.6-1.1,7.1
		C94.1,123,94,123.2,94,123.3z"/>
	<path class="st0" d="M141.7,114.8c0.6-0.4,1-0.1,1.2,0.3c0.3,0.6,0.5,1.2,0.7,1.8c0.5,1.9,0.7,3.9,0.6,5.9c0,0.4,0,0.9-0.6,1.3
		c0-0.3-0.1-0.5-0.1-0.7c0.7-2.6-0.4-4.9-1.2-7.3C142,115.6,141.8,115.2,141.7,114.8z"/>
	<path class="st0" d="M43.2,27.4c0.5-0.5,0.9-0.9,1.4-1.5c0.5,0.5,0.9,0.9,1.5,1.4c-0.5,0.8-0.9,1.5-1.5,2.4
		C44.1,28.9,43.7,28.2,43.2,27.4z"/>
	<path class="st0" d="M213.4,105.5c-0.5,0.5-0.9,0.9-1.4,1.4c-0.7-0.5-1.5-0.9-2.3-1.4c0.7-0.7,1.5-1,2.2-1.5
		C212.4,104.5,212.9,105,213.4,105.5z"/>
	<path class="st0" d="M28,46.3c-0.9,0.5-1.6,1-2.4,1.4c-0.5-0.5-0.9-0.9-1.4-1.4c0.4-0.5,0.9-0.9,1.4-1.5
		C26.3,45.2,27.1,45.7,28,46.3z"/>
	<path class="st0" d="M25.7,106.8c-0.6-0.5-1-0.9-1.5-1.4c0.5-0.5,1-0.9,1.6-1.4c0.6,0.3,1.3,0.8,2.2,1.3
		C27.1,106,26.4,106.4,25.7,106.8z"/>
	<path class="st0" d="M211.8,44.9c0.6,0.5,1,0.9,1.5,1.3c-0.5,0.5-1,0.9-1.5,1.4c-0.6-0.4-1.4-0.8-2.3-1.4
		C210.4,45.7,211.1,45.3,211.8,44.9z"/>
	<path class="st0" d="M192.9,29.8c-0.5-0.9-1-1.6-1.5-2.4c0.5-0.5,0.9-0.9,1.5-1.4c0.5,0.6,0.9,1,1.4,1.5
		C193.9,28.1,193.4,28.9,192.9,29.8z"/>
	<path class="st0" d="M191.4,124.3c0.5-0.8,1-1.6,1.5-2.4c0.5,0.9,0.9,1.6,1.4,2.4c-0.5,0.4-1,0.8-1.6,1.3
		C192.4,125.3,192,124.8,191.4,124.3z"/>
	<path class="st0" d="M43.3,124.2c0.4-0.7,0.8-1.4,1.3-2.2c0.5,0.9,1,1.6,1.5,2.4c-0.5,0.4-1,0.9-1.6,1.4
		C44.2,125.3,43.8,124.8,43.3,124.2z"/>
	<path class="st0" d="M17.6,65.7c0.7,0.1,1.3,0.4,1.8,0.3c0.6-0.1,1.1-0.6,1.6-0.9c0.5,0.8,0.5,1.3-0.2,1.7
		c-0.6,0.4-1.3,0.4-1.9,0.1C18.3,66.7,17.8,66.3,17.6,65.7z"/>
	<path class="st0" d="M17.7,26.6c0.5-1.1,1.6-1.7,2.6-1.4c0.4,0.1,0.8,0.5,1.1,0.8c0.3,0.3,0.2,0.7-0.2,1c-0.5-0.3-1.1-0.7-1.7-0.8
		C18.9,26.2,18.2,26.5,17.7,26.6z"/>
	<path class="st0" d="M216.5,27.1c-0.5-0.7-0.4-1.3,0.4-1.7c0.8-0.4,1.6-0.3,2.2,0.2c0.4,0.3,0.6,0.6,1,1.1c-0.8-0.2-1.4-0.4-2-0.4
		C217.6,26.4,217,26.8,216.5,27.1z"/>
	<path class="st0" d="M25.3,132.4c-1.3-0.7-1.8-1.7-1.6-2.8c0.2-1,1.1-1.4,1.9-0.8C24.6,130.7,24.6,130.7,25.3,132.4z"/>
	<path class="st0" d="M211.9,128.8c1-0.5,1.7-0.1,1.9,0.9c0.2,1.1-0.3,2-1.5,2.6C212.9,130.6,212.9,130.6,211.9,128.8z"/>
	<path class="st0" d="M25.7,23c-1.1,0.3-1.6,0.1-1.9-0.6c-0.4-1.1,0.1-2.3,1.3-2.9c-0.1,0.6-0.4,1.2-0.3,1.8
		C24.9,21.8,25.4,22.3,25.7,23z"/>
	<path class="st0" d="M17.7,125.1c1.7,0.4,1.7,0.4,3.4-0.5c0.4,0.3,0.4,0.6,0.2,1c-0.2,0.5-0.6,0.8-1.1,0.9
		C19.3,126.7,18.4,126.3,17.7,125.1z"/>
	<path class="st0" d="M211.9,23c0.3-0.6,0.8-1.2,0.9-1.7c0.1-0.5-0.2-1.1-0.3-1.7c1,0.3,1.7,1.4,1.4,2.6C213.6,23,213,23.3,211.9,23
		z"/>
	<path class="st0" d="M220,65.6c-0.4,1-1.2,1.5-2.2,1.6c-0.6,0.1-1.1-0.1-1.5-0.6c-0.3-0.4-0.4-0.9,0.1-1.3c0.6,0.3,1.1,0.7,1.8,0.8
		C218.7,66.1,219.3,65.8,220,65.6z"/>
	<path class="st0" d="M220.1,86.2c-1.3-0.9-2.5-0.8-3.5,0.3c-0.4-0.3-0.6-0.6-0.4-1.1c0.2-0.5,0.5-0.8,1-0.9
		C218.3,84.3,219.3,84.8,220.1,86.2z"/>
	<path class="st0" d="M21,86.5c-1-1-2.1-1.4-3.4-0.3c0.5-1.3,1.6-2,2.8-1.6c0.4,0.1,0.7,0.5,0.9,0.8C21.6,85.8,21.5,86.2,21,86.5z"
		/>
	<path class="st0" d="M216.4,124.6c1.7,1,1.7,1,3.3,0.6c-0.5,1.2-1.8,1.7-2.8,1.2C216.2,126,216,125.4,216.4,124.6z"/>
	<path class="st0" d="M63.8,22.9c0.9-1.9,0.9-1.9,0.4-3.4c1.2,0.5,1.8,1.8,1.4,2.9C65.3,23.2,64.7,23.4,63.8,22.9z"/>
	<path class="st0" d="M64.3,132.2c0.7-1.3,0.5-2.3-0.6-3.2c0.8-0.8,1.7-0.4,1.9,0.6C65.9,130.6,65.5,131.5,64.3,132.2z"/>
	<path class="st0" d="M173.3,132.3c-1.4-0.9-1.8-2.2-1.2-3.2c0.4-0.7,0.9-0.8,1.7-0.3C172.8,130.6,172.8,130.6,173.3,132.3z"/>
	<path class="st0" d="M173.8,22.9c-0.9,0.5-1.7,0.1-1.9-0.9c-0.2-1.1,0.2-1.9,1.4-2.6c-0.1,0.6-0.4,1.3-0.3,1.9
		C173,21.9,173.5,22.4,173.8,22.9z"/>
	<path class="st0" d="M101.4,31.7c-1.4-1.2-2.1-5.2-1.1-7c0,0.8-0.1,1.6,0,2.3c0.1,0.8,0.3,1.6,0.5,2.4
		C100.9,30.2,101.6,30.8,101.4,31.7z"/>
	<path class="st0" d="M137.6,24.3c0.1,0.3,0.2,0.7,0.2,1c0.1,1.7-0.2,3.3-0.7,4.9c-0.1,0.5-0.3,1-1.2,1c0.9-2.3,1.9-4.5,1.4-7
		C137.4,24.3,137.5,24.3,137.6,24.3z"/>
	<path class="st0" d="M120.1,107.2c-0.8,0.3-1.6,0.4-2.3,0c0.2-0.8,0.6-1.2,1.4-1.2C119.7,106,120,106.4,120.1,107.2z"/>
	<path class="st0" d="M141.8,112.2c0.5,0,0.9,0.4,1,0.8s-0.4,0.9-0.9,0.9s-0.9-0.3-1-0.8C140.9,112.6,141.3,112.2,141.8,112.2z"/>
	<path class="st0" d="M119.6,122.5c0,0.5-0.2,0.8-0.7,0.9c-0.6,0.1-1-0.3-1-0.9c0-0.5,0.3-0.8,0.8-0.8
		C119.3,121.6,119.6,122,119.6,122.5z"/>
	<path class="st0" d="M119,105.2c-0.5,0-0.9-0.4-0.8-0.9c0-0.5,0.4-0.8,0.9-0.8s0.9,0.4,0.8,0.9C119.8,104.9,119.5,105.2,119,105.2z
		"/>
	<path class="st0" d="M96.6,112.3c0,0.5-0.3,0.8-0.8,0.8s-0.9-0.3-0.9-0.8s0.3-0.8,0.8-0.8S96.6,111.9,96.6,112.3z"/>
	<path class="st0" d="M136.8,32.6c-0.1,0.4-0.4,0.5-0.8,0.5s-0.7-0.3-0.6-0.7c0.1-0.2,0.4-0.5,0.6-0.6
		C136.5,31.6,136.9,32.1,136.8,32.6z"/>
	<path class="st0" d="M119.1,24.7c0.1,0.2,0.3,0.4,0.3,0.7c0,0.4-0.3,0.7-0.7,0.6c-0.2-0.1-0.5-0.4-0.5-0.6
		C118.2,24.9,118.5,24.7,119.1,24.7z"/>
	<path class="st0" d="M118,36.9c0.8-0.4,0.9-0.4,1.8,0.1C119.2,37.9,118.7,37.9,118,36.9z"/>
	<path class="st0" d="M144.4,88.2c-17,0-33.8,0-50.6,0c0.2-1,23.6-42.4,25.2-44.7C127.5,58.4,135.9,73.2,144.4,88.2z M142.8,87.2
		c-8-14-15.8-27.9-23.8-41.8c-0.2,0.2-0.3,0.3-0.4,0.5c-7.8,13.7-15.5,27.3-23.2,41V87c0,0,0,0.1,0.1,0.2
		C111.2,87.2,126.9,87.2,142.8,87.2z"/>
	<path class="st0" d="M108.3,75.8c0.6-0.3,1.2,0,1.6,0.3c0.9,0.4,1.7,0.9,2.5,1.4c1.7,1,3.5,1.8,5.5,1.9c0.7,0,1.3,0,2,0
		c0-0.1,0-0.2,0-0.3c-0.5-0.1-0.9-0.1-1.4-0.2c-1.8-0.2-3.5-0.8-5.1-1.6c-0.8-0.4-1.6-0.8-2.5-1.2c-1.5-0.8-3-1.2-4.7-1.3
		c-0.9-0.1-1.7-0.2-2.1-1.1c-0.3-0.8,0.2-1.5,0.7-2.2c0.2-0.2,0.4-0.4,0.6-0.6c2.5-2.1,4.9-4.3,7.8-5.9c2.3-1.3,4.9-2,7.6-1.7
		c0.9,0.1,1.9,0.3,2.7,0.8c1.6,0.8,3,1.8,4.5,2.7c1.2,0.8,2.3,1.6,3.4,2.4c0.9,0.7,1.2,1.3,0.9,2.6c-0.6,0.3-1.1,0-1.5-0.4
		c-0.9-0.7-1.8-1.4-2.6-2.2c-1.3-1.2-2.6-2.2-4.2-2.9c-3-1.2-6-1.3-8.9,0c-0.8,0.4-1.7,0.8-2.5,1.2c-1.7,0.9-3.3,1.8-5,2.6
		c-0.8,0.4-1.4,0.9-1.9,1.6c-0.8,1.2-0.3,2.3,1.2,2.3c1.6,0.1,2.9,0.6,4.3,1.2c2.7,1.3,5.6,2.1,8.6,2.2c3.4,0.1,6.4-0.9,9.2-2.9
		c0.3-0.2,0.7-0.4,1-0.6c0,0,0.1,0,0.3,0.1c-0.2,0.3-0.4,0.6-0.7,1.1c0.5-0.3,0.9-0.5,1.3-0.7c0,0.1,0.1,0.1,0.1,0.2
		c-0.5,0.4-1.1,0.9-1.6,1.3c-2.5,1.9-5.3,3.3-8.4,3.8c-2.9,0.5-5.6,0-8.1-1.4c-0.8-0.4-1.5-1-2.2-1.4
		C110,76.5,109.1,76.2,108.3,75.8z"/>
	<path class="st0" d="M110,69.8c0.4,1,0,2.1,0.9,3c-0.1-1.2-0.4-2.4,0.3-3.7c0.1,1.6-0.1,3.1,1.3,4.3c-0.6-2-1.4-3.8,0.6-5.3
		c-0.4,2.5-0.1,4.7,1.8,6.4c1.5,1.3,3.2,1.7,5.1,1.6c3.6-0.2,6.5-3.6,5.5-7.9c0.8,0.6,0.9,0.8,0.4,4.5c0.8-0.6,0.8-0.6,1.1-3.7
		c1,1.5,0.2,2.8-0.1,4.4c1.2-0.9,1.2-2.1,1.3-3.3c0.6,0.9,0.6,0.9,0.2,2.8c0.6-0.6,0.6-0.6,1-1.8c0.6,0.5-0.1,1.1,0.2,1.8
		c0.3-0.4,0.5-0.8,0.7-1.1c0.3,0.1,0.6,0.2,0.3,0.6c-0.4,0.5-0.9,1.1-1.4,1.5c-1.7,1.5-3.8,2.3-6.1,2.6c-3.5,0.6-7,0.2-10.3-1.1
		c-1-0.4-1.9-0.8-2.9-1.2c-0.4-0.2-0.8-0.5-1.2-0.7c0.1-0.8,0.2-1.5,0.3-2.3c0.2,0.3,0.3,0.5,0.5,0.7
		C109.7,71.1,109.8,70.5,110,69.8z"/>
	<path class="st0" d="M113.9,68.6c0.9-0.4,1.6-0.3,2.4,0.3c-0.1,1.1,0,2.2,0.9,3.1c0.6,0.5,1.2,0.8,1.9,0.8c1.7,0.1,2.8-0.8,3.2-2.6
		c-0.3-0.1-0.7-0.1-1-0.3c-0.6-0.3-1-1-0.9-1.7s0.7-1.3,1.4-1.5c0.7-0.1,1.4,0.2,1.7,0.8c0.2,0.5,0.4,0.9,1,1c0.2,0,0.3,0.4,0.3,0.7
		c0.3,3.1-2.1,5.7-5,5.9c-2.9,0.3-5.7-1.8-6-4.6C113.8,70,113.9,69.3,113.9,68.6z"/>
	<path class="st0" d="M107.9,67.6c0.1-0.1,0.1-0.3,0.2-0.4c1.7-1.5,3.3-3.2,5.1-4.5c3.6-2.6,7.6-2.3,11.5-0.5
		c1.9,0.9,3.4,2.2,4.8,3.7c0.1,0.1,0.1,0.1,0.2,0.2c0.2,0.3,0.6,0.6,0.2,0.9c-0.3,0.3-0.6-0.1-0.8-0.3c-1.3-0.9-2.5-2-3.9-2.7
		c-2-1.2-4.3-1.7-6.7-1.4c-1.9,0.2-3.7,0.8-5.3,1.8c-1.4,0.9-2.8,1.8-4.2,2.8c-0.3,0.2-0.6,0.5-0.9,0.7
		C108,67.8,108,67.7,107.9,67.6z"/>
	<path class="st0" d="M97.3,85.9c4.2-3,8.3-6,12.5-9c0.3,0.1,0.5,0.3,0.8,0.5c-0.2,0.2-0.4,0.3-0.5,0.5c-3.7,2.7-7.4,5.5-11.1,8.2
		c-0.2,0.1-0.4,0.3-0.6,0.4C97.9,86.7,97.6,86.5,97.3,85.9z"/>
	<path class="st0" d="M128.6,77.3c0.4-0.6,0.7-0.4,1.1-0.1c1.1,0.9,2.3,1.8,3.4,2.7c2.4,1.9,4.8,3.7,7.1,5.6c0.3,0.2,0.6,0.5,1,0.8
		c-0.6,0.5-1.1,0.2-1.5-0.1c-1.2-1-2.4-1.9-3.6-2.9C133.6,81.3,131.1,79.3,128.6,77.3z"/>
	<path class="st0" d="M119.8,60.2c-0.7,0.1-0.6-0.3-0.6-0.6c-0.1-1-0.1-2-0.2-3c-0.2-2.9-0.3-5.8-0.5-8.7c0-0.6,0.1-1.1,0.6-1.6
		c0.2,0.5,0.4,1,0.4,1.5c0.1,4,0.2,7.9,0.3,11.9C119.9,59.8,119.8,60,119.8,60.2z"/>
	<path class="st0" d="M127.6,77.8c0.2,0,0.5-0.1,0.7,0c0.1,0,0.2,0.2,0.4,0.3c2.7,2.7,5.4,5.3,8.1,8c0.1,0.1,0.1,0.2,0.3,0.4
		c-0.6,0.2-1.1,0.2-1.5-0.2c-2.7-2.7-5.3-5.4-8-8.1C127.6,78,127.6,77.9,127.6,77.8z"/>
	<path class="st0" d="M111.5,78.1c-0.8,0.8-1.5,1.6-2.2,2.4c-1.9,1.9-3.8,3.7-5.6,5.5c-0.5,0.5-1,0.8-1.7,0.4
		c0.2-0.2,0.4-0.4,0.6-0.6c2.7-2.5,5.3-5,8-7.5c0.1-0.1,0.2-0.2,0.3-0.3C111.2,77.6,111.4,77.8,111.5,78.1z"/>
	<path class="st0" d="M98.5,83c0.4-1.1,0.9-1.6,1.6-2c2.4-1.4,4.8-2.8,7.2-4.2c0.6-0.3,1.1-0.5,1.8,0C105.6,78.8,102.1,80.8,98.5,83
		z"/>
	<path class="st0" d="M139.4,82.7c-3.3-2.2-6.4-4.2-9.5-6.2c0.3-0.8,0.6-0.5,1-0.3c1.5,0.9,3,1.9,4.5,2.8c0.7,0.5,1.5,0.9,2.2,1.4
		C138.7,81.1,138.7,81.1,139.4,82.7z"/>
	<path class="st0" d="M120.9,49.7c0.5,0.7,1,1.3,0.9,2.1c-0.2,2.5-0.4,5.1-0.6,7.6c0,0.2,0,0.5-0.1,0.7c-0.1,0.1-0.3,0.2-0.6,0.3
		c0-0.3-0.1-0.4-0.1-0.6C120.5,56.5,120.7,53.2,120.9,49.7z"/>
	<path class="st0" d="M112.8,78.9c-2,2.4-4,4.8-6,7.2c-0.4,0.5-0.8,0.5-1.5,0.3c0.5-0.5,0.8-1,1.2-1.4c1.7-2,3.4-4,5.2-5.9
		C112,78.8,112.2,78.3,112.8,78.9z"/>
	<path class="st0" d="M117.2,49.7c0.5,3.6,1.1,7.1,1.5,10.5c-0.6,0.2-0.7-0.1-0.7-0.4c-0.4-2.2-0.8-4.4-1.2-6.6
		c-0.1-0.4-0.1-0.9-0.2-1.3C116.3,51.1,116.5,50.4,117.2,49.7z"/>
	<path class="st0" d="M133.4,86.4c-0.5,0.2-0.9,0.2-1.2-0.2c-2-2.5-3.9-5-6-7.6c0.4-0.1,0.6-0.2,0.8-0.1c0.1,0,0.2,0.2,0.3,0.3
		c2,2.5,4,4.9,5.9,7.4C133.4,86.2,133.4,86.3,133.4,86.4z"/>
	<path class="st0" d="M125.3,79.2c0.4-0.4,0.6-0.4,0.8-0.1c0.2,0.3,0.4,0.7,0.7,1c1.1,1.7,2.2,3.5,3.3,5.2c0.2,0.3,0.4,0.7,0.6,1
		c-0.5,0.3-0.9,0.2-1.2-0.2C128.1,83.8,126.7,81.5,125.3,79.2z"/>
	<path class="st0" d="M108.5,86.4c0.1-0.2,0.2-0.4,0.3-0.5c1.4-2.1,2.8-4.2,4.2-6.2c0.2-0.3,0.4-0.8,0.9-0.2
		c-0.1,0.2-0.2,0.4-0.3,0.6c-1.2,1.9-2.5,3.9-3.7,5.8C109.6,86.4,109.2,86.8,108.5,86.4z"/>
	<path class="st0" d="M115.5,52.6c0.7,2.6,1.5,5.1,1.9,7.7c0,0-0.2,0.1-0.3,0.2c-0.1-0.2-0.3-0.3-0.3-0.5c-0.6-2-1.2-4-1.8-5.9
		C114.8,53.4,115.1,53.1,115.5,52.6z"/>
	<path class="st0" d="M114.5,79.6c0.3,0.1,0.5,0.2,0.6,0.3c0,0.1,0,0.2,0,0.3c-0.9,1.9-1.9,3.9-2.8,5.8c-0.2,0.5-0.5,0.8-1.2,0.6
		C112.2,84.2,113.3,81.9,114.5,79.6z"/>
	<path class="st0" d="M122,60.6c-0.6,0-0.5-0.4-0.4-0.8c0.2-1.3,0.4-2.5,0.6-3.8c0.2-1,0.3-2,0.5-3.2c0.5,0.6,0.9,1.1,0.7,1.7
		c-0.4,1.9-0.8,3.8-1.2,5.7C122.2,60.4,122.1,60.4,122,60.6z"/>
	<path class="st0" d="M124.1,79.6c0.6-0.4,0.7,0,0.9,0.2c0.6,1.2,1.2,2.4,1.7,3.5c0.5,1,1,2,1.5,3c-0.4,0.2-0.8,0.2-1-0.2
		C126.1,84,125.1,81.8,124.1,79.6z"/>
	<path class="st0" d="M113.3,86.4c0.8-2,1.5-4,2.3-6c0.1-0.4,0.4-0.5,0.9-0.2c-0.2,0.6-0.4,1.2-0.6,1.7c-0.5,1.3-0.9,2.6-1.4,4
		C114.3,86.4,114.1,86.7,113.3,86.4z"/>
	<path class="st0" d="M123,79.9c0.3-0.1,0.4-0.1,0.7-0.2c0.8,2.2,1.6,4.5,2.3,6.7c-0.6,0.4-0.9,0.1-1-0.4
		C124.3,84,123.6,82,123,79.9z"/>
	<path class="st0" d="M122.5,80.1c0.5,2.1,1,4.2,1.5,6.3c-0.5,0.2-0.8,0.2-0.9-0.3c-0.4-1.9-0.9-3.7-1.3-5.6
		C121.7,80.1,122,80,122.5,80.1z"/>
	<path class="st0" d="M106.5,76.2c-1.9,0.9-3.7,1.7-5.7,2.6c0.2-0.9,0.7-1.3,1.4-1.6c0.6-0.3,1.2-0.5,1.8-0.9
		C104.8,75.9,105.6,75.8,106.5,76.2z"/>
	<path class="st0" d="M114.3,54.8c0.7,1.9,1.5,3.8,2.2,5.8c-0.2,0.1-0.4,0.2-0.6,0.3c-0.3-0.7-0.6-1.4-0.9-2.1s-0.6-1.5-1-2.2
		C113.6,55.9,113.6,55.3,114.3,54.8z"/>
	<path class="st0" d="M118.2,86.5c-0.4,0-0.6,0-0.9-0.1c0.3-2.1,0.6-4.1,1-6.1c0.6-0.1,0.7,0.1,0.6,0.5c-0.1,0.7-0.2,1.4-0.2,2.1
		C118.5,84.1,118.3,85.3,118.2,86.5z"/>
	<path class="st0" d="M119.4,80.4c0.6-0.2,0.7,0.1,0.7,0.4c0,1.8,0,3.7,0,5.6c-0.3,0-0.6,0-0.9,0C119.3,84.4,119.3,82.4,119.4,80.4z
		"/>
	<path class="st0" d="M117.7,80.2c-0.5,2.1-0.9,3.9-1.3,5.8c-0.1,0.5-0.3,0.7-1,0.4c0.4-2,1-4,1.6-6
		C117.1,80.3,117.4,80.3,117.7,80.2z"/>
	<path class="st0" d="M122,86.5c-0.3,0-0.5,0-0.9,0c-0.2-2-0.4-4.1-0.6-6.1c0.1,0,0.2-0.1,0.2-0.1c0.2,0.1,0.4,0.2,0.4,0.4
		C121.5,82.5,121.7,84.5,122,86.5z"/>
	<path class="st0" d="M131,75.3c0.2,0,0.5-0.2,0.6-0.1c1.5,0.7,3.1,1.3,4.5,2.1c0.4,0.2,0.6,0.7,0.9,1.1c0,0.1-0.1,0.1-0.1,0.2
		c-2-1-4-2-5.9-3C131,75.5,131,75.4,131,75.3z"/>
	<path class="st0" d="M124,55.2c0.6,0.5,0.7,1,0.5,1.7c-0.5,1.3-0.9,2.6-1.3,3.9c-0.6,0.1-0.7-0.2-0.5-0.6
		C123.1,58.6,123.5,56.9,124,55.2z"/>
	<path class="st0" d="M108.6,70.5c-0.1,0.7-0.2,1.4-0.3,2c-0.1,0.6-0.5,0.9-1.1,0.9c-0.7,0-1.1-0.5-0.8-1.2
		C106.7,71.5,107.5,70.8,108.6,70.5z"/>
	<path class="st0" d="M113.2,56.7c0.8,1.5,1.5,2.8,2.2,4.2c-0.1,0.1-0.1,0.1-0.2,0.2c-0.2-0.1-0.4-0.1-0.5-0.3
		c-0.6-0.9-1.2-1.8-1.8-2.7C112.5,57.6,112.7,57.2,113.2,56.7z"/>
	<path class="st0" d="M124.1,61.3c-0.5-0.1-0.6-0.3-0.5-0.6c0.5-1.1,0.9-2.3,1.4-3.4c0.6,0.4,0.7,0.9,0.3,1.5
		C125,59.5,124.6,60.4,124.1,61.3z"/>
	<path class="st0" d="M111.6,59.1c0.2-0.3,0.4-0.6,0.6-0.9c0.7,1.1,1.4,2.1,2.1,3.2c-0.2,0.1-0.5,0.2-0.5,0.2
		C113.1,60.8,112.4,60,111.6,59.1z"/>
	<path class="st0" d="M135.5,75.8c-1.3-0.5-2.4-0.9-3.5-1.3c0-0.1,0-0.2,0-0.3c0.3-0.1,0.6-0.3,0.9-0.2
		C134.4,74.2,135,74.6,135.5,75.8z"/>
	<path class="st0" d="M113.3,62c-0.8,0.3-1,0.2-2.4-1.5c0.1-0.2,0.2-0.4,0.4-0.8C112,60.5,112.6,61.2,113.3,62z"/>
	<path class="st0" d="M125,61.8c-0.2-0.7,0.2-1.6,1.2-3c0.3,0.3,0.5,0.7,0.1,1.1c-0.3,0.4-0.6,0.8-0.8,1.2
		C125.4,61.3,125.2,61.5,125,61.8z"/>
	<path class="st0" d="M112,62.9c-0.8,0.1-1.2-0.7-1.9-1c0.1-0.3,0.3-0.5,0.4-0.8c0.6,0.6,1.1,1,1.6,1.5
		C112.1,62.7,112.1,62.8,112,62.9z"/>
	<path class="st0" d="M126.9,60.1c0.8,1-0.1,1.3-0.4,1.8c-0.2,0.3-0.5,0.6-0.9,0C126,61.3,126.4,60.7,126.9,60.1z"/>
	<path class="st0" d="M111.3,63.4c-0.6,0.6-0.6,0.6-1.8-0.3c0-0.1,0-0.2,0.1-0.3c0.1-0.1,0.2-0.3,0.3-0.4
		C110.4,62.7,110.8,63,111.3,63.4z"/>
</g>
</svg>
