<?xml version="1.0" encoding="utf-8"?>
<!-- Generator: Adobe Illustrator 24.0.2, SVG Export Plug-In . SVG Version: 6.00 Build 0)  -->
<svg version="1.1" id="Слой_1" xmlns="http://www.w3.org/2000/svg" xmlns:xlink="http://www.w3.org/1999/xlink" x="0px" y="0px"
	 viewBox="0 0 238.1 150.2" style="enable-background:new 0 0 238.1 150.2;" xml:space="preserve">
<g>
	<path class="st0" d="M235.9,85.1c-12,0-23.9,0-35.9,0c-0.4,0-0.6,0.1-0.9,0.4c-0.8,0.9-1.7,1.8-2.6,2.7c-0.2,0.2-0.5,0.3-0.7,0.3
		c-3.7,0-7.4,0-11.1,0c-0.2,0-0.5-0.2-0.7-0.4c-0.7-0.9-1.3-1.8-2-2.6c-0.2-0.2-0.5-0.4-0.8-0.4c-2.7,0-5.3,0-8,0
		c-0.4,0-0.6,0.1-0.8,0.5c-0.6,1.3-2.9,1.2-3.6,0.2c-0.7-1-0.1-2.4,1.2-2.6c1-0.1,1.9,0.1,2.5,1.1c0.1,0.2,0.4,0.3,0.7,0.3
		c2.8,0,5.6,0,8.4,0c0.4,0,0.7,0.1,0.9,0.5c0.6,0.8,1.2,1.5,1.7,2.3c0.3,0.5,0.6,0.6,1.1,0.6c3.3,0,6.6,0,9.9,0
		c0.5,0,0.9-0.2,1.2-0.5c0.7-0.8,1.5-1.5,2.2-2.4c0.3-0.4,0.6-0.4,1.1-0.4c12,0,24.1,0,36.1,0C235.9,84.8,235.9,84.9,235.9,85.1z
		 M170.6,85.9c0.7,0,1.3-0.5,1.3-1.1c0-0.5-0.6-1.1-1.2-1.1c-0.6,0-1.3,0.5-1.4,1.1C169.2,85.4,169.9,85.9,170.6,85.9z"/>
	<path class="st0" d="M235.9,66c-2.2,0-4.4,0-6.5,0c-8.8,0-17.5,0-26.3,0c-0.5,0-0.9-0.2-1.2-0.6c-1.2-1.7-2.5-3.3-3.8-5
		c-0.2-0.2-0.6-0.4-0.9-0.4c-3.1,0-6.3,0-9.4,0c-0.8,0-1.4,0.2-1.9,0.8c-0.9,1-2.3,1-3.2,0c-0.3-0.3-0.3-1.1-0.1-1.7
		c0.2-0.8,0.8-1.1,1.6-1.2c1-0.1,1.8,0.1,2.3,1.1c0.1,0.2,0.5,0.2,0.7,0.3c3.5,0,7,0,10.4,0c0.5,0,0.8,0.2,1.1,0.5
		c1.3,1.7,2.5,3.3,3.8,5c0.3,0.4,0.6,0.5,1,0.5c10.8,0,21.6,0,32.4,0C235.9,65.6,235.9,65.8,235.9,66z M184.5,60.7
		c0.6,0,1.3-0.4,1.3-0.9c0-0.5-0.6-1.1-1.2-1.1c-0.5,0-1.3,0.7-1.3,1.1C183.3,60.2,183.9,60.6,184.5,60.7z"/>
	<path class="st0" d="M235.9,72.8c-9,0-18,0-26.9,0c-8.4,0-16.9,0-25.3,0c-0.6,0-1,0-1.4,0.6c-0.7,1.2-3,1-3.6-0.2c-0.3-0.6-0.3-1.2,0.1-1.7
		c0.5-0.6,1.2-0.9,2-0.8c0.7,0.1,1.3,0.4,1.7,1.1c0.1,0.1,0.3,0.2,0.5,0.3c0.1,0,0.2,0,0.3,0c17.6,0,35.1,0,52.7,0
		C235.9,72.3,235.9,72.5,235.9,72.8z M180.5,73.4c0.7,0,1.3-0.4,1.2-0.9c0-0.6-0.6-1.1-1.3-1.1c-0.6,0-1.2,0.6-1.2,1.1
		C179.3,73.1,179.8,73.4,180.5,73.4z"/>
	<path class="st0" d="M235.9,77.3c-10.4,0-20.9,0-31.3,0c-4.1,0-8.1,0-12.2,0c-0.5,0-0.8,0.1-1.2,0.4c-0.9,0.7-1.8,1.4-2.6,2.2
		c-0.3,0.2-0.5,0.4-0.4,0.9c0.2,1-0.3,1.6-1.3,1.9c-1,0.3-2.2-0.1-2.5-0.9c-0.5-1.3,0.2-2.4,1.8-2.4c0.4,0,0.7,0.2,1.1,0.2
		c0.3,0,0.6-0.1,0.8-0.2c1-0.7,1.9-1.5,2.8-2.3c0.4-0.3,0.7-0.4,1.2-0.4c14.6,0,29.3,0,43.9,0C235.9,76.9,235.9,77.1,235.9,77.3z
		 M184.9,81.1c0,0.5,0.7,1.1,1.3,1.1c0.6,0,1.4-0.6,1.3-1.1c0-0.5-0.8-1.1-1.4-1.1C185.5,80,184.9,80.6,184.9,81.1z"/>
	<path class="st0" d="M235.9,12.4c-12.8,10.3-25.6,20.6-38.3,30.9c0.6,1.3,0,2.2-0.9,2.5c-1.3,0.4-2.5-0.1-2.9-1.1c-0.2-0.6,0.1-1.4,0.7-1.7
		c0.7-0.4,1.5-0.5,2.3-0.1c0.2,0.1,0.5,0.1,0.6,0c1.5-1.2,2.9-2.3,4.4-3.5c2.6-2.1,5.1-4.1,7.7-6.2c2.9-2.4,5.8-4.8,8.8-7.1
		c2.7-2.2,5.5-4.4,8.2-6.6c2.5-2,4.9-4,7.4-6c0.7-0.5,1.4-1.1,2.1-1.6C235.9,12,235.9,12.2,235.9,12.4z M195.8,43.2
		c-0.7,0-1.2,0.5-1.2,1.1c0,0.6,0.6,1.1,1.2,1.1c0.7,0,1.3-0.5,1.3-1.1C197,43.6,196.5,43.2,195.8,43.2z"/>
	<path class="st0" d="M235.9,69.9c-13.1,0-26.3,0-39.4,0c-1.3,0-1.3,0-1.3-1.3c0-0.8,0-1.7,0-2.5c0-0.5-0.2-0.8-0.6-1.1c-0.9-0.5-1.2-1.1-1-1.8
		c0.2-0.8,1.1-1.5,2-1.4c1.9,0.1,2.6,1.6,1.7,2.9c-0.1,0.2-0.4,0.4-0.6,0.4c-0.5,0.1-0.7,0.4-0.7,0.8c0,1.1,0,2.2,0,3.5
		c13.3,0,26.6,0,39.9,0C235.9,69.5,235.9,69.7,235.9,69.9z M195.6,64.5c0.8,0,1.3-0.4,1.3-0.9c0-0.5-0.6-1.1-1.2-1.2
		c-0.7,0-1.3,0.5-1.3,1.2C194.4,64.1,195,64.5,195.6,64.5z"/>
	<path class="st0" d="M235.9,97.3c-8.6,0-17.2,0-25.8,0c-0.5,0-0.8,0.2-1.1,0.5c-1,1.1-2,2.1-3,3.2c-0.2,0.2-0.5,0.3-0.8,0.3c-2.8,0-5.5,0-8.3,0
		c-0.4,0-1-0.4-1.3-0.7c-2.1-1.9-4.1-3.9-6.2-5.8c-0.3-0.3-0.6-0.4-1.1-0.4c-1.9,0-3.9,0-5.8,0c-0.6,1.5-2.4,1.9-3.5,1
		c-0.9-0.8-0.7-2.1,0.4-2.6c1.2-0.6,2.7-0.1,3.1,1.2c2,0,4.1,0,6.2,0c0.3,0,0.7,0.1,0.9,0.4c2.2,2.1,4.4,4.2,6.7,6.2
		c0.2,0.2,0.6,0.4,1,0.4c2.5,0,5,0,7.6,0c0.3,0,0.8-0.2,1-0.5c1-1,2-2,2.9-3.1c0.3-0.3,0.6-0.4,1.1-0.4c8.7,0,17.4,0,26.1,0
		C235.9,97.1,235.9,97.2,235.9,97.3z M180.5,95.1c0.8,0,1.3-0.5,1.3-1c0-0.5-0.7-1.1-1.3-1.1c-0.7,0-1.3,0.5-1.3,1.1
		C179.1,94.6,179.8,95.1,180.5,95.1z"/>
	<path class="st0" d="M235.9,20.8c-1.6,1.3-3.2,2.5-4.8,3.8c-3,2.4-6.1,4.8-9.1,7.3c-3.1,2.5-6.3,5-9.4,7.5c-2.4,1.9-4.8,3.8-7.2,5.7
		c-0.9,0.7-1.8,1.4-2.7,2.2c-0.1,0.1-0.1,0.4-0.1,0.6c0.2,1.1-0.1,1.8-1.2,2.2c-1,0.4-2.2-0.1-2.6-1c-0.4-0.9,0.3-2,1.3-2.2
		c0.4-0.1,0.9-0.1,1.2,0c0.8,0.4,1.2,0,1.6-0.4c2.7-2.2,5.4-4.3,8.1-6.5c2.4-1.9,4.7-3.8,7.1-5.7c1.9-1.5,3.9-3.1,5.8-4.6
		c1.7-1.4,3.4-2.8,5.1-4.1c1.9-1.5,3.8-3,5.7-4.5c0.3-0.3,0.7-0.5,1-0.8C235.9,20.3,235.9,20.6,235.9,20.8z M200.6,47.3
		c-0.6,0-1.3,0.6-1.3,1.1c0,0.5,0.7,1.1,1.3,1.1c0.7,0,1.3-0.6,1.3-1.1C201.9,47.8,201.4,47.3,200.6,47.3z"/>
	<path class="st0" d="M235.9,100.8c-8.8,0-17.7,0-26.5,0c-0.5,0-0.8,0.2-1.1,0.5c-0.8,0.9-1.7,1.9-2.5,2.8c-0.2,0.2-0.5,0.3-0.7,0.3
		c-3.3,0-6.6,0-10,0c-0.4,0-0.8-0.3-1.1-0.5c-0.9-0.7-1.7-1.5-2.6-2.3c-0.4-0.3-0.7-0.6-1.3-0.4c-0.8,0.2-2-0.5-2.1-1.2
		c-0.2-1.1,0.3-1.7,1.5-2c0.9-0.2,1.6,0.1,2.2,0.8c0.5,0.5,0.4,1.1-0.4,2.2c1.1,1,2.3,1.9,3.4,2.9c0.1,0.1,0.3,0.1,0.5,0.1
		c3.2,0,6.4,0,9.6,0c0.3,0,0.6-0.2,0.8-0.4c0.9-0.9,1.7-1.8,2.6-2.7c0.2-0.2,0.5-0.3,0.8-0.3c9,0,18,0,26.9,0
		C235.9,100.5,235.9,100.6,235.9,100.8z M189.9,100.5c0.8,0,1.4-0.4,1.4-1c0-0.6-0.5-1.1-1.3-1.1c-0.8,0-1.3,0.4-1.3,1
		C188.6,100.1,189.1,100.5,189.9,100.5z"/>
	<path class="st0" d="M235.9,29.5c-9.5,7.5-18.9,15-28.4,22.4c0.2,1.1,0,1.7-0.8,2.1c-0.7,0.4-1.9,0.3-2.6-0.3c-0.5-0.5-0.6-1.1-0.4-1.6
		c0.2-0.5,0.7-0.9,1.2-1.1c0.6-0.3,1.4-0.2,2,0.2c0.2,0.1,0.5,0,0.7-0.1c1.5-1.1,2.9-2.3,4.4-3.5c2.1-1.7,4.2-3.3,6.3-5
		c2.1-1.7,4.2-3.4,6.3-5c2-1.6,4.1-3.2,6.1-4.8c1.8-1.4,3.5-2.8,5.3-4.1C235.9,29,235.9,29.2,235.9,29.5z M205.5,53.7
		c0.9,0,1.4-0.4,1.4-1c0-0.6-0.6-1-1.3-1c-0.9,0-1.3,0.4-1.3,1.1C204.3,53.3,204.8,53.7,205.5,53.7z"/>
	<path class="st0" d="M235.9,87.9c-9.9,0-19.9,0-29.8,0c-0.5,0-0.7,0.1-1,0.5c-0.6,1.1-2.7,1.2-3.5,0.2c-0.7-0.9-0.4-2,0.7-2.5
		c1.2-0.5,2.5,0,3,1.2c10.2,0,20.4,0,30.5,0C235.9,87.5,235.9,87.7,235.9,87.9z M203.3,86.5c-0.7,0-1.3,0.6-1.3,1.2
		c0,0.5,0.6,1,1.3,1c0.7,0,1.3-0.5,1.3-1.1C204.6,87,204,86.5,203.3,86.5z"/>
	<path class="st0" d="M235.9,38.1c-2.9,2.2-5.7,4.5-8.6,6.7s-5.7,4.5-8.6,6.7c-2,1.5-3.9,3.1-5.9,4.6c-0.3,0.2-0.5,0.4-0.3,0.9
		c0.2,0.5-0.3,1.3-0.9,1.6c-0.8,0.3-1.6,0.3-2.4-0.1c-1-0.6-1-2,0-2.6c0.8-0.5,1.6-0.5,2.4,0c0.3,0.2,0.5,0.2,0.8,0
		c3.7-3,7.5-5.9,11.2-8.9c3.1-2.5,6.3-4.9,9.4-7.4c0.9-0.7,1.9-1.5,2.8-2.2C235.9,37.7,235.9,37.9,235.9,38.1z M210.4,58.4
		c0.7,0,1.4-0.5,1.4-1.1c0-0.6-0.7-1.2-1.3-1.2c-0.6,0-1.3,0.6-1.4,1.1C209.1,57.8,209.8,58.4,210.4,58.4z"/>
	<path class="st0" d="M235.9,124.7c-5.3,0-10.7-0.1-16-0.1c-1.5,0-3,0-4.5,0c-0.6,0-1-0.2-1.5-0.5c-2-1.7-4.1-3.3-6.1-5c-0.3-0.2-0.5-0.4-1-0.2
		c-0.8,0.3-1.9,0-2.3-0.6c-0.5-0.6-0.5-1.3,0.1-2c0.8-0.8,2.2-0.8,3,0c0.6,0.5,0.6,1.3,0,2.1c1.6,1.3,3.3,2.7,4.9,4
		c0.3,0.2,0.6,0.4,0.8,0.6c0.9,1,2,1.1,3.3,1.1c6.3,0,12.5,0,18.7,0c0.1,0,0.3,0,0.4,0C235.9,124.3,235.9,124.5,235.9,124.7z
		 M206.2,118.4c0.7,0,1.4-0.5,1.4-1c0-0.6-0.6-1.2-1.3-1.2c-0.7,0-1.4,0.5-1.4,1.1C204.8,117.9,205.3,118.4,206.2,118.4z"/>
	<path class="st0" d="M235.9,54.3c-1,0.7-2,1.3-3,2c-2.5,1.7-4.9,3.4-7.4,5.1c-0.2,0.2-0.5,0.2-0.8,0.2c-1.3,0-2.6,0-3.9,0
		c-0.4,0-0.7,0.1-0.9,0.5c-0.4,0.7-1.1,0.8-1.7,0.9c-0.8,0-1.4-0.3-1.8-1c-0.5-0.9,0.3-2.1,1.5-2.2c1-0.1,1.7,0.2,2.2,1.1
		c0.1,0.1,0.3,0.3,0.5,0.3c1.4,0,2.7,0,4.1,0c0.2,0,0.4-0.1,0.6-0.2c3.6-2.4,7.1-4.9,10.7-7.3C235.9,53.8,235.9,54.1,235.9,54.3z
		 M218.2,60.2c-0.8,0-1.4,0.5-1.3,1.1c0,0.7,0.5,1.1,1.4,1.1c0.8,0,1.4-0.5,1.3-1.2C219.5,60.7,218.9,60.2,218.2,60.2z"/>
	<path class="st0" d="M235.9,108.7c-7.8,0-15.6,0-23.4,0c0,0-0.1,0-0.1,0c-0.6,1.5-2.1,1.5-3,1.2c-0.6-0.2-1-0.8-1-1.5c0-0.6,0.7-1.3,1.3-1.5
		c1.1-0.3,2.4,0.1,2.8,1.4c7.8,0,15.7,0,23.5,0C235.9,108.5,235.9,108.6,235.9,108.7z M210.3,109.6c0.8,0,1.4-0.5,1.4-1.1
		c0-0.5-0.7-1.1-1.3-1.1c-0.7,0-1.4,0.5-1.4,1.2C209,109.1,209.5,109.6,210.3,109.6z"/>
	<path class="st0" d="M235.9,49.5c-2.9,2.1-5.7,4.2-8.5,6.3c-0.4,0.3-0.8,0.5-1.4,0.5c-0.4,0-0.8,0-1.2,0c-0.6,0-1.2-0.1-1.6,0.7
		c-0.5,0.9-2.1,0.9-3,0.3c-0.6-0.4-0.7-1-0.6-1.7c0.1-0.5,1-1.1,1.5-1.2c1,0,1.9,0.1,2.3,1.1c0,0.1,0.3,0.2,0.4,0.2
		c0.8,0,1.6,0.1,2.3,0c0.5-0.1,1-0.6,1.5-0.9c2.7-2,5.5-4,8.2-6C235.9,49,235.9,49.3,235.9,49.5z M221.5,54.9
		c-0.7,0-1.3,0.5-1.3,1.1c0,0.7,0.5,1.1,1.3,1.1c0.7,0,1.3-0.5,1.3-1.1C222.8,55.4,222.2,54.9,221.5,54.9z"/>
	<path class="st0" d="M235.9,90.7c-3.6,0-7.2,0-10.8,0c-1.4,0-2.7,0-4,0c-0.4,0-0.6,0.1-0.9,0.5c-0.5,0.9-1.4,1-2.3,0.9
		c-0.7-0.1-1.3-0.5-1.5-1.2c-0.2-0.7,0.2-1.5,1-1.8c1.3-0.6,2.5,0,3,1.1c5.1,0,10.3,0,15.4,0C235.9,90.4,235.9,90.6,235.9,90.7z
		 M218.5,91.6c0.8,0,1.2-0.4,1.2-1c0-0.7-0.5-1.1-1.3-1.1c-0.6,0-1.3,0.6-1.3,1.1C217.1,91.1,217.8,91.6,218.5,91.6z"/>
	<path class="st0" d="M235.9,94.7c-4.9,0-9.8,0-14.8,0c-0.4,0-0.7,0-0.9,0.5c-0.5,0.9-1.4,1-2.3,0.9c-0.7-0.1-1.3-0.5-1.5-1.2
		c-0.2-0.6,0-1.2,0.7-1.7c1-0.7,2.5-0.4,3,0.6c0.2,0.4,0.4,0.4,0.8,0.4c5,0,9.9,0,14.9,0C235.9,94.4,235.9,94.6,235.9,94.7z
		 M218.4,95.6c0.6,0.1,1.3-0.5,1.3-1c0-0.6-0.7-1.1-1.3-1.1c-0.6,0-1.4,0.6-1.4,1.1C217.1,95,217.7,95.6,218.4,95.6z"/>
	<path class="st0" d="M235.9,103.4c-5.8,0-11.5,0-17.3,0c-0.4,0-0.6,0.1-0.9,0.5c-0.7,1.2-2.6,1.1-3.4,0.4c-0.4-0.4-0.6-1-0.4-1.5
		c0.3-0.5,0.7-1,1.2-1.1c1.1-0.4,1.9,0,2.6,1.1c0.1,0.2,0.5,0.2,0.7,0.2c5.2,0,10.3,0,15.5,0c0.6,0,1.2,0,1.9,0
		C235.9,103.1,235.9,103.3,235.9,103.4z M217.2,103.2c0-0.6-0.6-1.1-1.3-1.1c-0.7,0-1.3,0.6-1.3,1.2c0,0.6,0.6,1,1.3,1
		C216.7,104.3,217.2,103.8,217.2,103.2z"/>
	<path class="st0" d="M235.9,135.4c-2.4,0-4.7,0-7.1,0c-0.7,0-1.3-0.2-1.9-0.6c-2.1-1.7-4.2-3.3-6.2-5c-0.3-0.3-0.6-0.3-1-0.1
		c-0.7,0.3-1.3,0.1-1.9-0.3c-1-0.7-0.9-2.1,0.2-2.7c1-0.5,2.2-0.2,2.7,0.5c0.4,0.5,0.5,1,0.1,1.6c-0.3,0.4-0.1,0.5,0.1,0.7
		c2.1,1.7,4.2,3.4,6.4,5c0.3,0.3,0.8,0.4,1.2,0.4c2.4,0,4.8,0,7.2,0C235.9,135.1,235.9,135.3,235.9,135.4z M219.3,127.2
		c-1,0-1.5,0.3-1.5,1c0,0.6,0.6,1.1,1.4,1.1c0.8,0,1.4-0.5,1.4-1.1C220.5,127.5,220.1,127.2,219.3,127.2z"/>
	<path class="st0" d="M235.9,116.2c-3.2,0-6.3,0-9.5,0c-0.4,0-0.7,0.1-1,0.5c-0.7,1.2-2.8,1.2-3.5,0c-0.5-0.8,0-1.9,1-2.2c1.1-0.3,2.4,0.1,2.7,1
		c0.1,0.2,0.4,0.3,0.7,0.3c2.9,0,5.9,0,8.8,0c0.2,0,0.5,0,0.7,0C235.9,115.9,235.9,116,235.9,116.2z M222.4,116
		c0,0.6,0.5,1.1,1.3,1.1c0.7,0,1.4-0.5,1.4-1.1c0-0.7-0.6-1.2-1.3-1.2C223,114.8,222.4,115.3,222.4,116z"/>
	<path class="st0" d="M235.9,82c-1.4,0-2.8,0-4.2,0c-0.4,0-0.7,0.1-1,0.5c-0.6,1-2.5,1.2-3.3,0.4c-0.5-0.5-0.6-1.1-0.4-1.6
		c0.2-0.6,0.7-1,1.3-1.1c1.1-0.2,1.9,0.1,2.6,1.1c0.1,0.2,0.4,0.3,0.6,0.3c1.5,0,2.9,0,4.4,0C235.9,81.6,235.9,81.8,235.9,82z
		 M229,80.6c-0.7,0-1.3,0.5-1.3,1.1c0,0.5,0.6,1.1,1.3,1.1c0.6,0,1.4-0.6,1.3-1.1C230.3,81.1,229.6,80.6,229,80.6z"/>
	<path class="st0" d="M235.9,130.7c-1.6,0-3.2,0-4.8,0c-0.6,1.4-2,1.8-3.2,1.1c-0.6-0.3-0.9-0.9-0.8-1.6c0.1-0.7,0.6-1.3,1.2-1.4
		c1.2-0.2,2.1,0,2.7,1.4c1.6,0,3.2,0,4.9,0C235.9,130.5,235.9,130.6,235.9,130.7z M229.1,131.7c0.7,0,1.4-0.6,1.3-1.1
		c0-0.6-0.8-1.2-1.4-1.2c-0.7,0-1.4,0.6-1.3,1.2C227.7,131.2,228.4,131.7,229.1,131.7z"/>
	<path class="st0" d="M235.9,119.9c-0.7,0-1.2,0.1-1.6,0.8c-0.6,1-2.8,0.9-3.4-0.1c-0.4-0.6-0.3-1.4,0.3-1.9c1-0.9,2.7-0.8,3.3,0.4
		c0.4,0.7,1,0.3,1.4,0.5C235.9,119.7,235.9,119.8,235.9,119.9z M232.7,120.7C232.7,120.7,232.7,120.7,232.7,120.7c0.1,0,0.2,0,0.3,0
		c0.6,0,1-0.4,1-0.9c0-0.3-0.4-0.7-0.7-1c-0.5-0.3-1.1-0.3-1.5,0.1c-0.2,0.2-0.5,0.7-0.4,0.9c0.1,0.3,0.5,0.6,0.8,0.8
		C232.3,120.8,232.5,120.7,232.7,120.7z"/>
	<path class="st0" d="M235.9,112.6c-0.2,0-0.4,0-0.6,0c-0.6,0-1.1,0-1.5,0.7c-0.6,1.2-2.8,1-3.5-0.2c-0.5-0.9,0.2-2.1,1.4-2.3
		c1-0.2,1.8,0.2,2.3,1c0.1,0.2,0.3,0.3,0.5,0.3c0.5,0,0.9,0,1.4,0C235.9,112.3,235.9,112.5,235.9,112.6z M232.2,111.3
		c-0.8,0-1.4,0.5-1.4,1.1c0,0.6,0.6,1.1,1.3,1.1c0.8,0,1.5-0.5,1.5-1.1C233.6,111.9,232.9,111.4,232.2,111.3z"/>
	<path class="st0" d="M102,66.2c-0.1,0-0.2,0.1-0.4,0.1c-1.2-0.2-2.3-0.5-3.2-1.3c-1.3-1.1-2.3-2.4-2.7-4.1c-1-4,1.4-8.2,5.7-8.9
		c4.2-0.7,7.6,2.2,8.2,6c0.4,2.7-0.5,4.9-2.5,6.6c-1.2,1-2.6,1.7-4.3,1.8C102.6,66.4,102.3,66.3,102,66.2z"/>
	<path class="st0" d="M126.8,65.9c3.8-0.1,7.2,3.2,7,7.3c-0.1,3.8-2.9,6.5-6.4,7c-1.8,0.3-3.4-0.2-4.7-1.2c-2-1.4-3.1-3.5-3-6
		C119.7,69,122.8,65.8,126.8,65.9z"/>
	<path class="st0" d="M133.8,45.2c0,1.9-0.5,3.6-1.8,4.9c-0.8,0.8-1.8,1.8-2.9,2.1c-1.8,0.4-3.8,0.5-5.6-0.5c-1.1-0.6-1.9-1.4-2.7-2.4
		c-0.8-1.2-1.2-2.5-1.2-4c0-3.9,3.2-7.2,7.4-7.1C130.6,38.2,133.9,41.2,133.8,45.2z"/>
	<path class="st0" d="M110.6,65.9c3.9,0,7.2,3.2,7.1,7.2c-0.1,4-3.1,7-6.9,7c-4.2,0-7.3-3.1-7.2-7.3C103.6,69,106.8,65.8,110.6,65.9z"/>
	<path class="st0" d="M134.7,66.2c-4.4,0.1-7.1-3.4-7.1-7c0.1-4.3,3.1-7.1,7.1-7.1c3.9,0,7.3,3.1,7,7.8C141.6,63,138.7,66.4,134.7,66.2z"/>
	<path class="st0" d="M110.7,38.1c3.9,0,7.1,3.2,7,7.2c-0.1,4.3-3.3,6.9-6.7,7c-4.6,0.1-7.4-3.1-7.4-7.2C103.6,41.2,106.7,38.1,110.7,38.1z"/>
	<path class="st0" d="M142.3,41.3c2.4-0.2,4.1,1.9,4.1,4.1c0,2.7-2,4.3-4.1,4.3c-2.3,0-4.1-1.4-4.1-4.3C138.1,43,140.2,41.1,142.3,41.3z"/>
	<path class="st0" d="M122.6,86.9c0,1.7-0.7,3-2.2,3.7c-0.3,0.1-0.5,0.2-0.8,0.3c-2.4,0.8-4.9-1.3-5.1-3.5c-0.2-2.4,1.3-4.2,3.4-4.6
		c2.1-0.4,4.3,1.1,4.7,3.3C122.7,86.3,122.6,86.6,122.6,86.9z"/>
	<path class="st0" d="M95,77c-2,0.2-4.2-1.6-4.1-4.2c0.1-2.3,1.8-4,4.1-4c2.5,0,4.2,1.9,4.1,4.3C99.1,75.3,97.4,77.2,95,77z"/>
	<path class="st0" d="M94.6,49.4c-2.3,0.2-4.2-2-4-4.5c0.2-1.7,1.7-3.8,4.4-3.6c1.8,0.1,3.9,1.6,3.7,4.6C98.6,47.6,96.8,49.7,94.6,49.4z"/>
	<path class="st0" d="M118.5,35.7c-1.8,0.2-4.1-1.4-4.1-4c0-2.3,1.7-4,3.8-4.2c2.7-0.2,4.3,1.9,4.4,3.9C122.7,33.9,120.8,35.8,118.5,35.7z"/>
	<path class="st0" d="M138.6,73c-0.1-2.3,1.9-4,3.9-4.1c2.3-0.1,4.2,1.9,4.2,3.9c0,2.3-1.7,4.1-3.7,4.2C140.5,77.2,138.4,75.3,138.6,73z"/>
	<path class="st0" d="M100,125.1c0-3.1,0-6.1,0-9.1c0-0.2-0.3-0.5-0.5-0.6c-0.8-0.4-1.3-1.1-1.2-1.8c0.1-0.7,0.9-1.3,1.7-1.4
		c0.9-0.1,1.7,0.1,2.2,1c0.4,0.8,0,1.9-0.8,2.1c-0.6,0.2-0.7,0.5-0.7,1c0,2.9,0,5.8,0,8.7c0,0.9,0,0.9-0.9,0.9c-8.8,0-17.6,0-26.4,0
		c-0.1,0-0.1,0-0.3,0c0,6.8,0,13.6,0,20.4c-0.3,0-0.5,0-0.7,0c0-7,0-14,0-21.1C81.7,125.1,90.8,125.1,100,125.1z M101.6,113.9
		c0-0.6-0.7-1.2-1.3-1.2s-1.2,0.6-1.2,1.2c0,0.5,0.6,1,1.2,1C101,114.9,101.6,114.4,101.6,113.9z"/>
	<path class="st0" d="M165.6,146.2c-0.2,0-0.4,0-0.6,0c0-6.8,0-13.6,0-20.4c-0.3,0-0.5,0-0.8,0c-8.7,0-17.4,0-26.2,0.1c-0.6,0-0.7-0.2-0.7-0.8
		c0-2.9,0-5.8,0-8.7c0-0.6-0.1-0.9-0.7-1.1c-0.7-0.2-1-1-1-1.6c0.1-0.7,0.8-1.4,1.4-1.4c0.7-0.1,1.5-0.1,2.1,0.4
		c1,0.9,0.7,2.3-0.5,2.8c-0.2,0.1-0.5,0.4-0.5,0.6c0,3,0,6,0,9.1c9.2,0,18.3,0,27.4,0C165.6,132.2,165.6,139.2,165.6,146.2z
		 M139,113.9c0-0.6-0.6-1.1-1.2-1.1c-0.6,0-1.3,0.6-1.3,1.2c0,0.5,0.7,1,1.3,1C138.4,114.9,139,114.4,139,113.9z"/>
	<path class="st0" d="M94.9,123.2c0-2.6,0-5.1,0-7.6c-0.2-0.1-0.5-0.1-0.7-0.3c-0.6-0.3-1-0.8-1-1.5c0-0.7,0.4-1.2,1-1.4
		c0.6-0.2,1.3-0.2,1.9-0.1c0.8,0.2,1.3,1,1.2,1.7c-0.1,0.8-0.6,1.4-1.8,1.6c0,2.7,0,5.4,0,8.2c-8.6,0-17.2,0-25.8,0
		c0,7.5,0,15,0,22.5c-0.3,0-0.5,0-0.8,0c0-7.7,0-15.3,0-23.1C77.6,123.2,86.2,123.2,94.9,123.2z M96.5,113.9c0-0.5-0.6-1.1-1.2-1.1
		c-0.6,0-1.4,0.6-1.4,1.1c0,0.5,0.7,1.1,1.3,1.1C95.8,114.9,96.5,114.4,96.5,113.9z"/>
	<path class="st0" d="M168.4,123.8c-8.7,0-17.2,0-25.8,0c0-2.7,0-5.4,0-8.1c-0.5-0.2-0.9-0.3-1.2-0.6c-0.8-0.6-0.7-1.9,0.1-2.5
		c0.8-0.6,2.1-0.5,2.8,0.1c1,0.9,0.7,2.3-0.5,2.7c-0.2,0.1-0.3,0.1-0.5,0.2c0,2.5,0,5,0,7.6c8.6,0,17.2,0,25.9,0
		c0,7.7,0,15.4,0,23.1c-0.2,0-0.5,0-0.8,0C168.4,138.8,168.4,131.3,168.4,123.8z M141.6,113.9c0,0.5,0.7,1,1.3,1
		c0.6,0,1.3-0.6,1.3-1.1c0-0.5-0.8-1.1-1.4-1.1C142.3,112.7,141.6,113.3,141.6,113.9z"/>
	<path class="st0" d="M2.9,84.6c0.3,0,0.5,0,0.7,0c11.8,0,23.5,0,35.3,0c0.5,0,0.8,0.1,1.1,0.5c0.8,0.9,1.5,1.7,2.4,2.5c0.2,0.2,0.5,0.4,0.8,0.4
		c3.5,0,7,0,10.5,0c0.2,0,0.5-0.2,0.6-0.4c0.6-0.8,1.3-1.6,1.9-2.5c0.2-0.4,0.5-0.4,0.9-0.4c2.8,0,5.6,0,8.4,0
		c0.4,0,0.6-0.1,0.9-0.5c0.7-1.2,2.8-1.3,3.6-0.1c0.7,1-0.1,2.4-1.5,2.5c-1,0.1-1.9-0.1-2.3-1.1c-0.1-0.1-0.3-0.2-0.5-0.2
		c-2.8,0-5.5,0-8.3,0c-0.2,0-0.5,0.1-0.6,0.3c-0.7,0.9-1.3,1.8-2,2.7c-0.2,0.2-0.5,0.4-0.7,0.4c-3.7,0-7.4,0-11.1,0
		c-0.2,0-0.5-0.1-0.7-0.3c-0.9-0.9-1.8-1.8-2.6-2.8c-0.3-0.3-0.5-0.3-0.9-0.3c-10.1,0-20.2,0-30.2,0c-1.7,0-3.4,0-5.2,0
		C2.9,85.1,2.7,85.1,2.9,84.6z M68.1,83.7c-0.6,0-1.2,0.6-1.2,1.1c0,0.6,0.6,1.1,1.3,1.1c0.7,0,1.3-0.6,1.3-1.1
		C69.4,84.3,68.7,83.7,68.1,83.7z"/>
	<path class="st0" d="M2.9,65.3c0.3,0,0.6,0,0.8,0c10.5,0,21,0,31.5,0c0.5,0,0.9-0.2,1.2-0.6c1.2-1.7,2.5-3.3,3.7-5c0.3-0.4,0.6-0.5,1-0.5
		c3.5,0,7,0,10.4,0c0.4,0,0.6-0.1,0.9-0.5c0.4-0.8,1.6-1.1,2.5-0.8c0.9,0.3,1.4,1,1.4,1.9c0,0.7-0.5,1-0.9,1.3
		c-0.6,0.4-2.1,0.2-2.6-0.3c-0.5-0.6-1.2-0.9-2-0.8c-3,0-6.1,0-9.1,0c-0.5,0-1,0.2-1.3,0.6c-1.3,1.6-2.6,3.2-3.8,4.8
		c-0.3,0.4-0.6,0.5-1.1,0.5c-10.7,0-21.3,0-31.9,0C3,66,2.7,66,2.9,65.3z M54.2,60.7c0.6,0,1.2-0.5,1.2-0.9c0-0.5-0.8-1.2-1.3-1.2
		c-0.6,0-1.1,0.5-1.1,1.1C53,60.2,53.6,60.7,54.2,60.7z"/>
	<path class="st0" d="M66.6,146.3c-0.3,0-0.6,0-0.8,0c0-8.5,0-16.9,0-25.3c8.1,0,16.1,0,24.3,0c0-0.8,0-1.6,0-2.4c0-0.8,0-1.6,0-2.5
		c0-0.4-0.1-0.6-0.5-0.7c-0.9-0.3-1.3-1-1.2-1.7c0.1-0.8,0.9-1.4,1.8-1.5c0.8,0,1.6,0.1,2.1,0.9c0.5,0.9,0.2,1.9-0.7,2.3
		c-0.6,0.2-0.7,0.5-0.7,1c0,1.7,0,3.3,0,5.1c-8.1,0-16.2,0-24.3,0C66.6,129.7,66.6,137.9,66.6,146.3z M89.3,113.9
		c0,0.5,0.7,1.1,1.3,1c0.6,0,1.3-0.6,1.3-1.1c0-0.5-0.7-1.1-1.3-1.1C89.8,112.8,89.2,113.3,89.3,113.9z"/>
	<path class="st0" d="M172.3,120.8c0,8.5,0,16.9,0,25.4c-0.2,0-0.4,0-0.7,0c0-8.3,0-16.5,0-24.8c-8.1,0-16.2,0-24.3,0c0-0.2,0-0.4,0-0.6
		c0-1.6,0-3.1,0-4.7c0-0.4-0.1-0.7-0.5-0.8c-0.8-0.3-1.2-1-1.1-1.7c0.1-0.7,0.9-1.4,1.6-1.4c0.5,0,1,0,1.5,0.2c0.7,0.2,1,0.8,1,1.5
		c0,0.7-0.4,1.3-1,1.5c-0.5,0.2-0.6,0.4-0.6,0.9c0,1.5,0,3,0,4.6C156.1,120.8,164.2,120.8,172.3,120.8z M147.7,112.7
		c-0.6,0-1.3,0.6-1.3,1.1c0,0.5,0.7,1,1.3,1.1c0.6,0,1.3-0.5,1.3-1.1C148.9,113.3,148.4,112.8,147.7,112.7z"/>
	<path class="st0" d="M2.8,72.8c0-0.2,0-0.4,0-0.6c0.2,0,0.4,0,0.6,0c4.6,0,9.2,0,13.8,0c12.7,0,25.5,0,38.2,0c0.4,0,0.7,0,1-0.5
		c0.9-1.2,2.8-1.2,3.5,0c0.5,0.7,0.3,1.6-0.4,2.2c-0.6,0.5-1.2,0.4-1.8,0.4c-0.7-0.1-1.2-0.4-1.6-1c-0.1-0.2-0.6-0.4-0.9-0.4
		c-2.7,0-5.5,0-8.2,0c-14.5,0-29,0-43.6,0C3.3,72.8,3.1,72.8,2.8,72.8z M58.2,73.4c0.7,0,1.2-0.4,1.2-0.9c0-0.6-0.6-1.1-1.2-1.1
		c-0.8,0-1.3,0.5-1.2,1.1C57,73.1,57.5,73.4,58.2,73.4z"/>
	<path class="st0" d="M82.8,63.1c-2.8,0.1-3.9-1.4-4-3.5c-0.1-2.4,1.5-3.8,3.6-3.9c2.1,0,3.6,1.5,3.6,3.5C86.1,61.6,84.8,63.1,82.8,63.1z"/>
	<path class="st0" d="M136.1,94.1c-2.1-0.1-3.6-1.7-3.4-3.9c0.2-2.2,1.8-3.5,3.8-3.4c2,0.1,3.6,1.6,3.4,4.1C139.8,92.8,138.2,94.2,136.1,94.1z"
		/>
	<path class="st0" d="M136.3,24.4c2.1-0.2,3.7,2,3.7,3.6c0,2.2-2,3.7-3.6,3.7c-2.1,0-3.7-1.6-3.7-3.8C132.7,25.9,134.5,24.2,136.3,24.4z"/>
	<path class="st0" d="M97.1,28c-0.1-1.9,1.7-3.7,3.7-3.7c1.6,0,3.6,1.4,3.6,3.7c0,2-1.6,3.7-3.5,3.7C98.7,31.7,97.1,30.2,97.1,28z"/>
	<path class="st0" d="M100.7,94.1c-2,0.3-3.6-1.6-3.7-3.4c-0.1-2.4,1.6-3.9,3.6-3.9c2,0,3.6,1.4,3.7,3.6C104.4,92.4,102.7,94.3,100.7,94.1z"/>
	<path class="st0" d="M158.4,59.8c0,2.1-2,3.5-3.7,3.3c-2.4-0.2-3.6-1.8-3.5-3.8c0.1-2.2,1.9-3.8,4.3-3.4C157.1,56.1,158.7,57.6,158.4,59.8z"/>
	<path class="st0" d="M4.5,146.2c1.8-1.5,3.5-3,5.2-4.5c1.4-1.2,2.8-2.4,4.2-3.5c4.3-3.5,8.6-7,12.9-10.5c7.5-6.1,15-12.2,22.5-18.3
		c3.5-2.8,7-5.6,10.4-8.5c0.5-0.4,0.8-0.5,1.4-0.5c1.8,0,3.7,0,5.5,0c0.4,0,0.6-0.2,0.8-0.5c0.5-0.8,1.2-1.1,2-1
		c0.8,0.1,1.5,0.4,1.7,1.3c0.2,0.5,0,1-0.4,1.4c-1,1-2.7,0.8-3.5-0.4c-0.1-0.2-0.5-0.4-0.7-0.4c-1.8,0-3.6-0.1-5.3,0
		c-0.4,0-0.8,0.1-1,0.4c-6.7,5.4-13.4,10.9-20.1,16.4c-3.9,3.1-7.7,6.3-11.6,9.4c-3.1,2.5-6.2,5.1-9.4,7.7c-1.1,0.9-2.3,1.8-3.4,2.8
		c-3.2,2.8-6.4,5.6-9.7,8.4C5.5,146.2,5.1,146.4,4.5,146.2z M69.1,101.7c0.7,0,1.3-0.5,1.4-1.1c0-0.6-0.6-1.1-1.4-1.1
		c-0.8,0-1.2,0.4-1.2,1.1C67.8,101.3,68.3,101.8,69.1,101.7z"/>
	<path class="st0" d="M234.1,146.4c-0.4-0.2-0.8-0.2-1.1-0.5c-2.7-2.4-5.4-4.8-8.2-7.1c-2.3-2-4.8-3.9-7.1-5.8c-2.6-2.1-5.2-4.3-7.8-6.4
		c-8.5-6.9-17-13.8-25.5-20.7c-1.9-1.6-3.8-3.2-5.7-4.7c-0.2-0.2-0.5-0.3-0.8-0.3c-1.9,0-3.7,0-5.6,0c-0.2,0-0.6,0.2-0.7,0.5
		c-0.7,1.1-2.3,1.4-3.3,0.6c-0.5-0.4-0.7-0.9-0.5-1.5c0.2-0.9,0.9-1.2,1.7-1.3c0.9-0.1,1.6,0.2,2.1,1c0.1,0.2,0.5,0.4,0.8,0.4
		c1.9,0,3.8,0,5.7,0c0.3,0,0.5,0.1,0.7,0.2c3.4,2.7,6.8,5.5,10.2,8.2c4.8,3.9,9.6,7.8,14.3,11.6c2.2,1.8,4.4,3.5,6.5,5.3
		c3.3,2.7,6.6,5.4,9.8,8.1c1.4,1.2,3,2.3,4.4,3.4c2.9,2.4,5.7,4.9,8.6,7.3c0.5,0.5,1.1,0.9,1.6,1.4
		C234.2,146.2,234.1,146.3,234.1,146.4z M169.7,101.7c0.8,0,1.3-0.4,1.3-1.1c0-0.7-0.5-1.1-1.3-1.1c-0.7,0-1.3,0.5-1.4,1.1
		C168.3,101.2,168.9,101.7,169.7,101.7z"/>
	<path class="st0" d="M216.4,146.4c-0.4-0.2-0.8-0.3-1.1-0.6c-2.7-2.3-5.4-4.6-8.1-6.8c-1.7-1.5-3.4-3-5.2-4.4c-2.3-1.9-4.6-3.9-6.9-5.8
		c-1.7-1.5-3.4-2.9-5.1-4.4c-1.6-1.4-3.2-2.8-4.8-4.1c-1.8-1.5-3.5-3-5.3-4.4c-2.7-2.3-5.3-4.5-8-6.8c-0.1-0.1-0.4-0.2-0.5-0.2
		c-4.5,0-9.1,0-13.6,0c-0.5,1.2-1.6,1.8-3.1,1.3c-0.6-0.2-1-0.6-1.1-1.3c-0.1-0.7,0.2-1.2,0.8-1.6c1.1-0.7,2.5-0.3,3.1,0.8
		c0.2,0.4,0.5,0.3,0.9,0.3c4.2,0,8.4,0,12.6,0c0.7,0,1.3,0.2,1.8,0.7c3.6,3.1,7.3,6.2,10.9,9.3c2.2,1.9,4.4,3.8,6.7,5.7
		c3.2,2.8,6.5,5.5,9.7,8.3c2.3,2,4.6,4,6.9,5.9c2.3,1.9,4.6,3.8,6.8,5.8c0.9,0.7,1.7,1.5,2.6,2.2
		C216.5,146.2,216.5,146.3,216.4,146.4z M155.7,109.6c0.6,0,1.3-0.5,1.3-1.1c0-0.6-0.7-1.1-1.4-1c-0.7,0-1.2,0.5-1.2,1.1
		C154.4,109.2,154.9,109.6,155.7,109.6z"/>
	<path class="st0" d="M80.9,108.7c-4.6,0-9.1,0-13.6,0c-0.2,0-0.4,0.1-0.6,0.2c-2.7,2.3-5.4,4.6-8.1,6.9c-2.9,2.5-5.9,5-8.8,7.4
		c-2.9,2.5-5.8,5-8.8,7.5c-2.6,2.2-5.3,4.4-7.9,6.7c-2.4,2-4.7,4-7,6c-1,0.8-1.9,1.6-2.9,2.4c-0.3,0.2-0.6,0.3-1,0.4
		c0-0.1-0.1-0.1-0.1-0.2c1.2-1,2.4-2.1,3.6-3.1c1.4-1.2,2.8-2.3,4.2-3.5c1.7-1.4,3.4-2.9,5.1-4.3c2-1.7,4-3.4,6-5.2
		c1.9-1.6,3.9-3.3,5.8-4.9c2-1.7,4-3.4,6-5.1s4-3.4,6-5.1c1.8-1.5,3.5-3,5.3-4.5c0.8-0.7,1.6-1.4,2.5-2c0.2-0.1,0.4-0.2,0.6-0.2
		c4.3,0,8.7,0,13,0c0.6,0,0.9-0.1,1.2-0.6c0.4-0.8,1.6-1.1,2.6-0.7c0.8,0.3,1.2,1,1.1,1.9c-0.1,0.8-0.9,1.3-1.9,1.4
		C82.2,110.3,81.3,109.7,80.9,108.7z M83,107.5c-0.7,0-1.3,0.5-1.3,1.1c0,0.5,0.7,1,1.3,1c0.8,0,1.3-0.4,1.3-1
		C84.3,108,83.7,107.5,83,107.5z"/>
	<path class="st0" d="M224.5,146.4c-0.3-0.2-0.7-0.3-1-0.5c-2.7-2.3-5.4-4.5-8-6.8c-2-1.7-4-3.5-6.1-5.2c-2.9-2.5-5.9-5-8.9-7.5
		c-2-1.7-4-3.5-6.1-5.2c-2.9-2.4-5.7-4.9-8.6-7.3c-2.6-2.2-5.2-4.5-7.9-6.7c-0.6-0.5-1.3-1.1-1.9-1.6c-0.4-0.4-0.8-0.5-1.4-0.5
		c-2.8,0-5.6,0-8.4,0c-0.4,0-0.7,0.1-0.9,0.5c-0.3,0.7-1.4,1.1-2.2,1c-0.9-0.2-1.5-0.7-1.6-1.4c-0.2-0.8,0.3-1.6,1.2-1.9
		c1.1-0.3,2.1,0,2.7,1.1c0.1,0.2,0.4,0.3,0.7,0.3c2.9,0,5.8,0.1,8.7,0c0.9,0,1.3,0.5,1.8,1c2.1,1.8,4.2,3.6,6.3,5.3
		c2.3,1.9,4.6,3.9,6.8,5.9c2.3,2,4.6,3.9,6.9,5.9c2.3,1.9,4.5,3.9,6.8,5.8c2.9,2.4,5.7,4.8,8.6,7.2c2,1.7,3.9,3.4,5.9,5.1
		c2,1.7,3.9,3.3,5.9,5c0.2,0.1,0.3,0.3,0.4,0.4C224.6,146.2,224.5,146.3,224.5,146.4z M163.6,103.8c-0.8,0-1.3,0.4-1.3,1.1
		c0,0.6,0.5,1,1.2,1c0.8,0,1.4-0.5,1.4-1.1C165,104.3,164.4,103.8,163.6,103.8z"/>
	<path class="st0" d="M14.1,146.1c1-0.9,2.1-1.8,3.1-2.7c1.7-1.4,3.4-2.8,5.1-4.3c2-1.7,4-3.4,6-5.1c2-1.7,4-3.4,6-5.1c2.3-1.9,4.6-3.9,6.9-5.8
		c2-1.7,3.9-3.4,5.9-5.1c2.3-2,4.7-3.9,7-5.9c2.3-1.9,4.5-3.9,6.8-5.8c0.6-0.5,1.2-1.1,1.9-1.6c0.2-0.1,0.5-0.1,0.7-0.1
		c3,0,6,0,8.9,0c0.4,0,0.6,0,0.8-0.5c0.3-0.6,1.4-1.1,2-1c1.2,0.2,1.7,0.6,1.8,1.4c0.2,1.1-1,2.2-2.3,1.9c-0.7-0.2-1.4-0.4-1.7-1.2
		c0-0.1-0.3-0.3-0.5-0.3c-3,0-6.1,0-9.1,0c-0.3,0-0.7,0.3-1,0.5c-3.6,3.1-7.3,6.2-10.9,9.2c-3.2,2.7-6.4,5.5-9.6,8.2
		c-3.6,3.1-7.2,6.1-10.8,9.2c-2.3,2-4.7,4-7,6c-3,2.6-6.1,5.2-9.2,7.8c-0.2,0.2-0.6,0.2-0.8,0.3C14.2,146.3,14.1,146.2,14.1,146.1z
		 M75.1,103.8c-0.7,0-1.4,0.5-1.4,1c0,0.6,0.6,1.1,1.4,1.1c0.7,0,1.2-0.4,1.2-1C76.3,104.2,75.9,103.8,75.1,103.8z"/>
	<path class="st0" d="M2.9,12c2.3,1.9,4.6,3.7,6.9,5.6c2,1.6,4,3.2,6,4.8c2.2,1.8,4.4,3.5,6.5,5.3c2.4,2,4.9,3.9,7.3,5.9
		c2.5,2.1,5.1,4.1,7.6,6.1c1.2,1,2.5,2,3.7,3c0.1,0.1,0.5,0.1,0.6,0.1c1.1-0.4,2.5,0,2.9,0.9c0.5,1.2-0.2,2.3-1.4,2.3
		c-0.5,0-1,0-1.5-0.2c-0.7-0.2-1.2-1-1-1.9c0.2-0.5,0-0.8-0.4-1.1c-2-1.6-4-3.3-6.1-4.9c-3.4-2.7-6.7-5.5-10.1-8.2
		c-3.5-2.8-7-5.6-10.5-8.5c-3.5-2.8-7-5.6-10.4-8.5c-0.2-0.2-0.3-0.5-0.4-0.7C2.8,12.1,2.9,12,2.9,12z M42.7,45.3
		c0.6,0,1.2-0.4,1.2-0.9c0-0.5-0.8-1.2-1.3-1.2c-0.6,0-1.2,0.7-1.2,1.2C41.4,44.9,42,45.3,42.7,45.3z"/>
	<path class="st0" d="M2.7,77.1C2.9,77,3,76.8,3.1,76.7c0.1,0,0.3,0,0.4,0c14.4,0,28.8,0,43.2,0c0.4,0,0.8,0.1,1.1,0.4c0.9,0.8,1.9,1.5,2.9,2.3
		c0.3,0.3,0.6,0.3,1,0.2c0.5-0.1,1.1-0.2,1.7,0c0.8,0.2,1.2,0.8,1.2,1.5c0,0.9-0.3,1.2-1.1,1.5c-0.7,0.2-1.3,0.2-2-0.1
		c-0.7-0.4-1-0.9-0.9-1.8c0.1-0.4-0.1-0.5-0.3-0.7c-1-0.8-2-1.7-3.1-2.5c-0.2-0.2-0.5-0.2-0.8-0.2c-9.7,0-19.3,0-29,0
		c-4.7,0-9.3,0-14,0c-0.1,0-0.3,0-0.4,0C2.8,77.2,2.8,77.1,2.7,77.1z M52.6,80c-0.6,0-1.4,0.6-1.4,1.1c0,0.5,0.8,1.1,1.4,1.1
		c0.6,0,1.3-0.6,1.3-1.1C53.8,80.6,53.2,80,52.6,80z"/>
	<path class="st0" d="M42.7,69.3c0-1.2,0-2.3,0-3.4c0-0.3-0.3-0.8-0.5-0.8c-0.8,0-0.9-0.6-1-1.1c-0.1-0.5,0-1.2,0.3-1.5c0.9-1.1,2.9-1.1,3.6,0.4
		c0.4,0.7,0.1,1.6-0.6,2c-0.7,0.4-1,0.8-0.9,1.6c0.1,0.9,0,1.9,0,2.8c0,0.4-0.1,0.6-0.6,0.6c-13.2,0-26.3-0.1-39.5-0.1
		c-0.3,0-0.7,0.2-0.6-0.5C16.1,69.3,29.3,69.3,42.7,69.3z M43.1,64.5c0.6,0,1.2-0.4,1.2-0.8c0-0.5-0.8-1.2-1.4-1.2
		c-0.6,0-1.1,0.6-1.1,1.2C41.9,64.2,42.4,64.5,43.1,64.5z"/>
	<path class="st0" d="M2.9,20.3c1.5,1.2,2.9,2.3,4.4,3.5c1.7,1.3,3.4,2.7,5,4c2.2,1.8,4.4,3.5,6.6,5.3c2.2,1.7,4.3,3.4,6.5,5.1s4.3,3.4,6.4,5.2
		c1.4,1.1,2.8,2.3,4.3,3.4c0.2,0.1,0.5,0.2,0.8,0.1c1-0.2,2-0.1,2.5,0.5c0.6,0.6,0.5,1.9-0.1,2.5C39.2,49.9,39.1,50,39,50
		c-0.8,0-1.6,0.1-2.4,0.1c-0.4,0-1-1.3-0.8-1.9c0.2-0.6,0-1-0.5-1.4c-5.4-4.3-10.8-8.7-16.2-13c-4.7-3.8-9.4-7.5-14.1-11.3
		c-0.5-0.4-1.1-0.8-1.7-1.3c-0.2-0.2-0.4-0.6-0.5-0.9C2.7,20.4,2.8,20.4,2.9,20.3z M39,48.6c0-0.6-0.7-1.3-1.2-1.2
		c-0.5,0-1.2,0.7-1.2,1.2c0,0.4,0.7,1,1.3,1C38.3,49.5,39,49,39,48.6z"/>
	<path class="st0" d="M2.7,97.3C2.8,97.1,2.9,97,3,97c0.2,0,0.4,0,0.6,0c8.4,0,16.9,0,25.3,0c0.5,0,0.8,0.1,1.1,0.5c0.9,1,1.9,2,2.9,3
		c0.3,0.3,0.7,0.5,1.1,0.5c2.5,0,5,0,7.5,0c1,0,1.4-0.7,1.9-1.2c1.9-1.7,3.8-3.6,5.7-5.3c0.2-0.2,0.6-0.4,0.9-0.4c2,0,4.1,0,6.1,0
		c0.7-1.4,1.6-1.8,2.9-1.3c0.7,0.2,1.3,1,1.2,1.6c-0.1,0.7-0.7,1.4-1.5,1.5c-1.4,0.2-2.2-0.2-2.5-1.4c-2,0-4.1,0-6.2,0
		c-0.2,0-0.4,0.1-0.6,0.3c-2.1,1.9-4.1,3.9-6.2,5.8c-0.6,0.6-1.2,0.9-2.1,0.9c-2.5-0.1-5.1,0-7.6,0c-0.3,0-0.6-0.1-0.8-0.3
		c-1-1-2-2.1-3-3.2c-0.3-0.3-0.6-0.5-1.1-0.5c-8.3,0-16.7,0-25,0C3.4,97.3,3.1,97.3,2.7,97.3z M58.2,95.2c0.7,0,1.4-0.5,1.4-1
		c0-0.5-0.7-1.1-1.4-1.2c-0.6,0-1.3,0.6-1.3,1.1C56.9,94.7,57.5,95.1,58.2,95.2z"/>
	<path class="st0" d="M2.9,29.1c9.4,7.5,18.9,14.9,28.3,22.4c0.7-0.5,1.5-0.7,2.4-0.4c1,0.4,1.4,1.1,1.1,2.2c-0.2,0.9-0.8,1.4-1.9,1.3
		c-1.4-0.1-2-0.8-2.2-2.1c0-0.3-0.3-0.7-0.6-0.9c-1.1-1-2.3-1.9-3.5-2.9c-3.4-2.7-6.9-5.5-10.3-8.2C12,37,7.6,33.5,3.2,30
		c-0.2-0.2-0.4-0.5-0.5-0.7C2.8,29.2,2.8,29.1,2.9,29.1z M32.9,53.7c0.6,0,1.2-0.5,1.2-0.9c0-0.6-0.7-1.2-1.4-1.2
		c-0.6,0-1.2,0.6-1.2,1.2C31.6,53.2,32.3,53.7,32.9,53.7z"/>
	<path class="st0" d="M141.6,143.7c2,0,3.8,0,5.8,0c0,0.9,0,1.7,0,2.6c-0.2,0-0.4,0-0.6,0c0-0.2,0-0.4,0-0.5c0-1.3,0-1.3-1.4-1.3
		c-1.1,0-2.2,0-3.3,0c-0.2,0-0.4,0-0.5,0.1c-0.5,0.3-0.6,0-0.7-0.4c0-0.1,0-0.3,0-0.4c0-3.2,0-6.3,0-9.5c0-1-0.2-1.6-1-2.2
		c-1.8-1.5-3.6-3.1-5.4-4.7c-0.1-0.1-0.4-0.1-0.6-0.2c-0.6-0.1-1.2,0-1.7-0.1c-1.1-0.3-1.2-1.9-0.6-2.5c0.9-0.9,2.8-1,3.4,0.3
		c0.2,0.4,0,1,0.1,1.5c0,0.2,0,0.4,0.1,0.5c2.1,1.8,4.1,3.6,6.2,5.5c0.2,0.2,0.3,0.5,0.3,0.8c0,3.3,0,6.5,0,9.8
		C141.6,143.1,141.6,143.3,141.6,143.7z M133.2,126.5c0.7,0,1.3-0.4,1.3-0.9c0-0.5-0.7-1.1-1.3-1.1c-0.7,0-1.3,0.6-1.3,1.1
		C131.9,126.1,132.5,126.5,133.2,126.5z"/>
	<path class="st0" d="M97.3,144.5c-0.2,0-0.4-0.1-0.6-0.2c-1.4,0-2.8,0-4.2,0c-0.4,0-0.6,0.2-0.6,0.5c0,0.4,0,0.9,0,1.3c-0.3,0-0.4,0-0.7,0
		c0-0.8,0-1.7,0-2.6c1.9,0,3.8,0,5.8,0c0-0.3,0-0.5,0-0.8c0-3.3,0-6.5,0-9.7c0-0.5,0.1-0.8,0.5-1.1c1.4-1.2,2.8-2.4,4.1-3.7
		c0.7-0.6,1.4-1.2,2.1-1.8c-0.1-0.3-0.2-0.5-0.2-0.8c-0.1-1.1,0.4-1.7,1.6-2c0.8-0.2,2,0.3,2.3,1.1c0.5,1-0.3,2.2-1.6,2.3
		c-0.2,0-0.4,0.1-0.5,0c-0.9-0.4-1.4,0.2-1.9,0.7c-1.7,1.5-3.4,3-5.1,4.5c-0.4,0.3-0.5,0.7-0.5,1.1c0,3.4,0,6.8,0,10.2
		c0,0.3-0.2,0.6-0.3,1C97.4,144.6,97.3,144.6,97.3,144.5z M105.4,126.5c0.7,0,1.3-0.4,1.3-0.9c0-0.6-0.6-1.1-1.3-1.1
		c-0.6,0-1.3,0.6-1.3,1.1C104.1,125.9,104.7,126.6,105.4,126.5z"/>
	<path class="st0" d="M154,37.2c-0.1-1.7,1.2-3,2.9-3c1.8,0,3.1,1.5,3,3.1c-0.1,1.6-1.5,3.1-3,3.1C155.4,40.3,154,38.8,154,37.2z"/>
	<path class="st0" d="M83.2,37.2c0,2-1.5,3-3,3c-1.7-0.1-2.9-1.2-2.9-3c0-1.7,1.3-3,3-3C82,34.1,83.4,35.6,83.2,37.2z"/>
	<path class="st0" d="M47.4,100.9c-0.2-0.5-0.5-0.9-0.6-1.3c-0.1-0.7,0.6-1.6,1.9-1.8c1.2-0.2,2.1,0.8,2.1,1.9c0,0.8-0.6,1.1-1.2,1.3
		c-0.4,0.1-0.8,0-1.2,0.1c-0.4,0.1-0.8,0.3-1.2,0.6c-1,0.8-1.9,1.6-2.9,2.4c-0.2,0.2-0.5,0.2-0.7,0.2c-3.3,0-6.6,0-10,0
		c-0.3,0-0.6-0.2-0.8-0.4c-0.9-0.9-1.7-1.9-2.7-2.9c-0.2-0.2-0.6-0.3-0.9-0.3c-8.6,0-17.2,0-25.8,0c-0.3,0-0.6,0.2-0.8-0.4
		c0.3,0,0.6,0,0.8,0c8.6,0,17.2,0,25.8,0c1.1,0,1.5,0.8,2.2,1.4c0.6,0.6,1.2,1.3,1.8,1.9c0.1,0.1,0.4,0.2,0.5,0.2c3.2,0,6.5,0,9.7,0
		c0.3,0,0.6-0.1,0.8-0.3C45.4,102.6,46.4,101.7,47.4,100.9z M48.7,100.5c0.9,0,1.3-0.4,1.3-1.1c0-0.6-0.5-1-1.2-1
		c-0.8,0-1.4,0.4-1.4,1.1C47.5,100.1,48,100.5,48.7,100.5z"/>
	<path class="st0" d="M115.6,103.5c-0.2-1.4,1.1-2.9,2.9-2.9c2,0,2.9,1.4,3,3c0.1,1.5-1.5,3.2-2.6,3.1C116.9,106.6,115.5,105.3,115.6,103.5z"/>
	<path class="st0" d="M77.3,81.1c-0.2-1.7,1.5-3.1,2.9-3c1.6,0,3,1.2,3,3c0,1.7-1.3,2.9-3,2.9C78.6,84.1,77.1,82.5,77.3,81.1z"/>
	<path class="st0" d="M159.8,81.1c0.1,1.6-1.3,2.9-2.9,2.9c-1.5,0-2.9-1.4-2.9-2.9c0-1.8,1.5-3,2.9-3C158.3,78.1,159.9,79.5,159.8,81.1z"/>
	<path class="st0" d="M121.4,15.1c0.1,1.6-1.2,2.8-2.9,2.8s-3-1.4-2.9-3c0.1-1.5,1.2-2.8,2.9-2.9C120.2,12,121.6,13.4,121.4,15.1z"/>
	<path class="st0" d="M137.4,145.4c2.5,0,5,0,7.5,0c0,0.3,0,0.5,0,0.7c-1.6,0-3.1,0-4.6,0c-1,0-2,0-2.9,0c-0.5,0-0.8-0.1-0.8-0.7c0-3,0-6,0-9
		c0-1-0.3-1.6-1-2.3c-1.2-1-2.3-2.1-3.5-3.2c-0.4-0.4-0.7-0.8-1.4-0.5c-0.3,0.1-0.8,0-1.2-0.1c-0.6-0.2-1.1-0.6-1.2-1.3
		c-0.1-0.8,0.2-1.3,0.8-1.7c1.2-0.7,3-0.2,3.2,1.3c0,0.2,0,0.5-0.1,0.7c-0.3,0.5-0.1,0.7,0.3,1c1.5,1.4,3,2.8,4.4,4.2
		c0.2,0.2,0.4,0.7,0.4,1.1c0,3,0,6,0,9C137.4,144.9,137.4,145.1,137.4,145.4z M130.3,129.8c0.7,0,1.2-0.4,1.3-0.9
		c0-0.6-0.6-1.1-1.3-1.1c-0.7,0-1.3,0.6-1.3,1.1C129,129.3,129.7,129.8,130.3,129.8z"/>
	<path class="st0" d="M101.2,145.4c0-3.3,0-6.5,0-9.6c0-0.6,0.1-1.1,0.6-1.5c1.5-1.3,2.9-2.7,4.3-4c0.2-0.2,0.4-0.4,0.2-0.8
		c-0.3-0.6-0.2-1.2,0.3-1.7c0.5-0.5,1.2-0.8,1.9-0.6c1.2,0.2,1.7,0.8,1.7,1.7c0,1-0.7,1.8-1.8,1.7c-0.4,0-0.7-0.2-1.1-0.1
		c-0.3,0.1-0.6,0.3-0.9,0.5c-1.4,1.3-2.8,2.6-4.2,4c-0.2,0.2-0.3,0.5-0.3,0.8c0,3.3,0,6.5,0,9.7c0,0.6-0.2,0.7-0.7,0.7
		c-2.5,0-4.9,0-7.4,0c-0.1,0-0.1,0-0.2,0c0-0.2,0-0.5,0-0.8C96.2,145.4,98.7,145.4,101.2,145.4z M108.2,129.8c0.6,0,1.3-0.5,1.3-0.9
		c0-0.5-0.7-1.1-1.3-1.1c-0.6,0-1.2,0.5-1.3,1.1C107,129.3,107.6,129.8,108.2,129.8z"/>
	<path class="st0" d="M26.3,56.1c1.3-0.7,2.3-0.7,3.2,0.1c0.7,0.6,0.8,2.1-0.4,2.6c-1,0.4-1.9,0.6-2.7-0.2c-0.3-0.3-0.5-0.7-0.5-1.1
		c0-0.6-0.3-1.1-0.7-1.4c-4.1-3.2-8.2-6.4-12.3-9.7c-3.2-2.6-6.5-5.1-9.7-7.7c-0.2-0.2-0.3-0.6-0.5-0.9c0.1,0,0.1-0.1,0.2-0.1
		C10.7,43.8,18.5,49.9,26.3,56.1z M27.9,58.3c0.6,0,1.2-0.4,1.2-0.9c0-0.6-0.5-1-1.3-1c-0.5,0-1.2,0.6-1.2,1
		C26.7,57.9,27.3,58.3,27.9,58.3z"/>
	<path class="st0" d="M2.9,87.3c0.3,0,0.6,0,0.9,0c9.6,0,19.3,0,28.9,0c0.5,0,0.8,0,1-0.5c0.3-0.7,1.4-1,2.3-0.8c0.7,0.1,1.4,0.8,1.5,1.5
		c0.1,0.6-0.2,1.2-0.7,1.5c-1,0.7-2.9,0.3-3.3-0.8c-0.1-0.2-0.4-0.3-0.7-0.3c-3.7,0-7.5,0-11.2,0c-6,0-12.1,0-18.1,0
		C3.1,87.9,2.7,88,2.9,87.3z M34.1,87.6c0,0.6,0.5,1.1,1.2,1.1c0.7,0,1.4-0.5,1.4-1c0-0.6-0.6-1.1-1.2-1.2
		C34.8,86.4,34.1,87,34.1,87.6z"/>
	<path class="st0" d="M70.1,61.9c-1.7-0.1-2.5-0.9-2.4-2.5c0.1-1.5,1.2-2.5,2.8-2.4c1.2,0.1,2.3,1.4,2.2,2.6C72.7,61.1,71.6,62,70.1,61.9z"/>
	<path class="st0" d="M178.9,146.2c-0.2,0-0.4,0-0.7,0c0-0.3,0-0.5,0-0.8c0-6.2,0-12.5,0-18.7c0-0.5,0-0.7-0.6-0.9c-0.8-0.2-1.2-0.9-1.1-1.7
		c0.1-0.6,0.8-1.4,1.5-1.4c0.6,0,1.3,0.1,1.8,0.4c0.6,0.3,0.9,1,0.6,1.6c-0.2,0.5-0.6,1-1,1.1c-0.5,0.2-0.6,0.4-0.6,0.9
		c0,6.2,0,12.4,0,18.5C178.9,145.6,178.9,145.9,178.9,146.2z M179.8,124.4c0-0.7-0.6-1.1-1.4-1.1c-0.6,0-1.2,0.6-1.2,1.1
		c0,0.6,0.7,1.1,1.4,1.1C179.3,125.5,179.9,124.9,179.8,124.4z"/>
	<path class="st0" d="M60,146.2c-0.3,0-0.4,0-0.6,0c0-0.2,0-0.4,0-0.6c0-6.3,0-12.5,0-18.8c0-0.5-0.1-0.8-0.7-1c-0.4-0.2-0.8-0.7-1-1.1
		c-0.2-0.6,0-1.2,0.6-1.6c0.8-0.5,2.1-0.5,2.8,0.1c0.9,0.8,0.7,2.2-0.5,2.6c-0.6,0.2-0.6,0.5-0.6,1c0,6.2,0,12.4,0,18.5
		C60,145.6,60,145.9,60,146.2z M59.7,123.3c-0.8,0-1.3,0.4-1.3,1.1c0,0.5,0.7,1.1,1.3,1.1c0.7,0,1.3-0.6,1.3-1.1
		C60.9,123.8,60.3,123.3,59.7,123.3z"/>
	<path class="st0" d="M145.9,101.5c0,1.3-1.2,2.6-2.6,2.6c-1.3,0-2.5-1.2-2.4-2.5c0-1.4,0.9-2.5,2.3-2.6C145,98.9,145.7,100.2,145.9,101.5z"/>
	<path class="st0" d="M31,118.4c-0.5-0.8-0.5-1.3-0.1-1.9c0.4-0.5,1.4-0.9,2-0.8c0.2,0,0.4,0.1,0.6,0.2c0.8,0.3,1.2,1,1.1,1.6
		c-0.1,0.7-0.8,1.4-1.6,1.4c-0.2,0-0.5,0.1-0.7,0c-0.8-0.4-1.3,0.1-1.8,0.5c-1.9,1.6-3.9,3.2-5.8,4.7c-0.3,0.2-0.7,0.4-1,0.4
		c-6.7,0.1-13.4,0.1-20.1,0.1c-0.1,0-0.2,0-0.3,0c-0.1,0-0.2-0.1-0.3-0.2c0.1-0.1,0.2-0.2,0.3-0.2c0.5,0,1,0,1.6,0
		c6.2,0,12.4,0,18.5-0.1c0.3,0,0.6,0,0.8-0.2C26.3,122.1,28.6,120.3,31,118.4z M32.4,118.4c0.9,0,1.4-0.5,1.4-1.1
		c0-0.6-0.6-1.1-1.3-1.1c-0.7,0-1.4,0.6-1.4,1.2C31.1,117.9,31.8,118.4,32.4,118.4z"/>
	<path class="st0" d="M143,19.8c-1.8,0-2.5-1.3-2.5-2.5c0-1.5,1.3-2.5,2.7-2.5c1.3,0.1,2.4,1.2,2.3,2.6C145.5,18.8,144.3,19.9,143,19.8z"/>
	<path class="st0" d="M2.9,53.7c1.8,1.2,3.6,2.5,5.4,3.7c1.7,1.2,3.4,2.3,5.1,3.5c0.2,0.1,0.4,0.2,0.5,0.2c1.3,0,2.5,0,3.8,0
		c0.4,0,0.6-0.1,0.8-0.4c0.7-1.1,2.3-1.4,3.3-0.5c0.6,0.5,0.8,1.2,0.5,1.9c-0.2,0.6-0.9,1-1.6,1c-1,0-1.9-0.1-2.4-1.1
		c-0.1-0.2-0.5-0.2-0.7-0.2c-1.3,0-2.6,0-3.8,0c-0.3,0-0.7-0.1-1-0.3c-3.1-2.1-6.2-4.3-9.3-6.4C2.9,54.6,2.7,54.2,2.9,53.7z
		 M20.1,60.1c-0.4,0.6-0.9,1-1,1.4c-0.1,0.4,0.7,1,1.3,1c0.5,0,1.4-0.7,1.2-1C21.2,61,20.7,60.6,20.1,60.1z"/>
	<path class="st0" d="M96.8,17.5c0,1.6-1,2.5-2.5,2.5c-1.3,0-2.4-1.2-2.4-2.6c0-1.6,1.2-2.5,2.5-2.5C95.6,14.9,96.8,15.7,96.8,17.5z"/>
	<path class="st0" d="M94.7,104.1c-1.5,0.2-2.6-1.2-2.5-2.5c0-1.4,1.2-2.5,2.6-2.5c1.5,0,2.4,1.1,2.3,2.8C97.1,103.2,96,104.1,94.7,104.1z"/>
	<path class="st0" d="M169.9,59.4c0,1.4-1,2.5-2.5,2.5c-1.4,0-2.5-1.1-2.5-2.4c0-1.4,1.1-2.5,2.5-2.5C168.9,56.9,169.9,58,169.9,59.4z"/>
	<path class="st0" d="M2.9,48.9c2.2,1.6,4.3,3.2,6.5,4.8c0.8,0.6,1.5,1.2,2.3,1.7c0.5,0.3,1.2,0.2,1.7,0.3c0.8,0.1,1.4,0,1.9-0.8
		c0.5-0.8,2.2-0.7,2.9-0.2c0.7,0.5,0.9,1.7,0.4,2.5c-0.1,0.2-0.3,0.3-0.4,0.4c-0.7,0.4-2.5,0.2-3-0.5c-0.6-0.7-1.2-1-2.1-0.8
		c-1.1,0.2-2-0.2-2.9-0.9c-2.3-1.8-4.7-3.5-7-5.3c-0.3-0.2-0.4-0.7-0.6-1.1C2.7,49,2.8,49,2.9,48.9z M16.9,57.1
		c0.5,0,1.2-0.5,1.2-0.9c0-0.4-0.7-1.2-1.1-1.2c-0.5,0-1.3,0.7-1.3,1.2C15.7,56.6,16.3,57.1,16.9,57.1z"/>
	<path class="st0" d="M105.7,146.2c-0.3,0-0.4,0-0.6,0c0-0.1-0.1-0.1-0.1-0.2c0-3,0-5.9,0-8.9c0-0.2,0.1-0.5,0.3-0.6c1.2-1.1,2.5-2.2,3.8-3.3
		c0.1-0.1,0.2-0.4,0.2-0.6c-0.1-1.3,0.6-1.9,1.7-2.1c1.1-0.2,2.2,0.5,2.3,1.6c0,0.4-0.2,1.1-0.5,1.4c-0.6,0.5-1.3,0.8-2.1,0.4
		c-0.6-0.3-1-0.2-1.5,0.4c-0.9,0.9-1.9,1.8-2.9,2.6c-0.4,0.3-0.5,0.7-0.5,1.2c0,2.5,0,5,0,7.5C105.7,145.7,105.7,145.9,105.7,146.2z
		 M111.4,133.2c0.7,0,1.2-0.4,1.2-1c0-0.6-0.6-1-1.3-1c-0.6,0-1.3,0.5-1.3,1C110.1,132.7,110.7,133.3,111.4,133.2z"/>
	<path class="st0" d="M133.5,146.2c-0.2,0-0.4,0-0.7,0c0-0.2,0-0.5,0-0.7c0-2.4,0-4.8,0-7.2c0-0.9-0.2-1.4-0.9-1.9c-1-0.8-1.9-1.7-2.8-2.5
		c-0.2-0.2-0.6-0.2-0.9-0.2c-0.4,0-0.8,0.2-1.2,0.2c-1.1,0-1.9-0.8-1.9-1.7c0-0.9,0.9-1.7,2-1.8c1.4-0.1,2.2,0.8,2.1,2.2
		c0,0.2,0.1,0.4,0.2,0.5c1.2,1.1,2.5,2.1,3.7,3.2c0.2,0.2,0.4,0.4,0.4,0.6C133.5,140.1,133.5,143.1,133.5,146.2z M127.2,133.2
		c0.7,0.1,1.3-0.5,1.4-1c0-0.5-0.7-1.1-1.3-1.1c-0.7,0-1.3,0.5-1.3,1C125.9,132.8,126.5,133.2,127.2,133.2z"/>
	<path class="st0" d="M195.4,146.2c-0.3,0-0.5,0-0.8,0c0-2.6,0-5.3,0-7.9c-1.7,0-3.4,0-5,0c-0.2,0-0.3,0.2-0.5,0.4c-0.5,0.7-1.2,1-2.1,0.9
		c-0.8-0.1-1.5-0.4-1.8-1.3c-0.2-0.7,0.2-1.5,1-1.9c1.2-0.5,2.2-0.2,2.9,0.9c0.1,0.2,0.4,0.2,0.6,0.2c1.6,0,3.3,0,4.9,0
		c0.5,0,0.7,0.1,0.7,0.7C195.4,140.9,195.4,143.6,195.4,146.2z M187.2,139c0.8,0,1.3-0.4,1.3-1c0-0.6-0.6-1.1-1.3-1.1
		c-0.8,0-1.3,0.4-1.3,1C186,138.6,186.5,139,187.2,139z"/>
	<path class="st0" d="M43.6,138.3c0,2.7,0,5.3,0,7.9c-0.3,0-0.5,0-0.7,0c0-0.1-0.1-0.1-0.1-0.2c0-2.6,0-5.3,0-7.9c0-0.4,0.1-0.5,0.5-0.5
		c1.6,0,3.3,0,4.9,0c0.4,0,0.6,0,0.9-0.4c0.7-1.1,2.5-1.2,3.4-0.3c0.7,0.8,0.6,1.8-0.3,2.3c-1.1,0.7-2.5,0.4-3.2-0.6
		c-0.1-0.2-0.3-0.3-0.5-0.3C46.9,138.3,45.3,138.3,43.6,138.3z M50.9,139c0.8,0,1.2-0.4,1.2-1c0-0.6-0.5-1-1.3-1
		c-0.7,0-1.3,0.5-1.3,1.1C49.6,138.6,50.2,139,50.9,139z"/>
	<path class="st0" d="M26.3,108.7c-7.8,0-15.7,0-23.6,0c0.2-0.2,0.2-0.3,0.3-0.4c0.2,0,0.4,0,0.6,0c7.3,0,14.6,0,21.9,0c0.3,0,0.5,0,0.8,0
		c0.5-1.3,1.7-1.7,2.8-1.4c0.7,0.2,1.3,1,1.3,1.7c0,0.7-0.7,1.4-1.5,1.5C27.7,110.3,26.9,109.9,26.3,108.7z M28.4,109.6
		c0.8,0,1.4-0.4,1.4-1s-0.6-1.2-1.3-1.2c-0.6,0-1.4,0.6-1.4,1.2C27,109.1,27.6,109.6,28.4,109.6z"/>
	<path class="st0" d="M18.2,90.2c0.6-1.6,2.6-1.7,3.5-0.8c0.4,0.4,0.7,0.8,0.5,1.4c-0.2,0.7-0.7,1.2-1.4,1.3c-1,0.1-2,0.1-2.6-1.1
		c-0.1-0.2-0.4-0.3-0.6-0.3c-3.2,0-6.5,0-9.7,0c-1.5,0-3.1,0-4.7,0c-0.2,0-0.4-0.2-0.6-0.3c0-0.1,0.1-0.2,0.1-0.2
		C8,90.2,13.1,90.2,18.2,90.2z M20.3,91.6c0.7,0,1.3-0.5,1.3-1c0-0.5-0.7-1.1-1.3-1.1c-0.8,0-1.3,0.5-1.3,1.2
		C19,91.2,19.5,91.6,20.3,91.6z"/>
	<path class="st0" d="M2.9,94.2c5.1,0,10.2,0,15.3,0c0.8-1.2,1.5-1.5,2.8-1.2c0.7,0.2,1.4,1,1.4,1.6c0,0.7-0.7,1.4-1.4,1.5
		C19.8,96.3,19,96,18.3,95c-0.1-0.2-0.4-0.3-0.7-0.3c-4.4,0-8.7,0-13,0c-0.5,0-1,0-1.4,0c-0.1,0-0.3-0.2-0.4-0.3
		C2.8,94.3,2.8,94.3,2.9,94.2z M20.2,95.6c0.7,0.1,1.4-0.5,1.4-1.1c0-0.5-0.8-1.1-1.4-1.1c-0.6,0-1.3,0.6-1.3,1.1
		C18.9,95.1,19.5,95.6,20.2,95.6z"/>
	<path class="st0" d="M55.7,146.2c-0.3,0-0.4,0-0.7,0c0-4,0-8,0-12c-0.3-0.1-0.5-0.1-0.7-0.2c-0.7-0.3-1-0.8-1-1.5c0-0.6,0.6-1.3,1.2-1.5
		c0.6-0.2,1.3-0.2,1.9,0.1c0.7,0.3,1,0.9,0.9,1.6c0,0.7-0.5,1.2-1.1,1.3c-0.5,0.1-0.5,0.4-0.5,0.7c0,3.5,0,7,0,10.6
		C55.7,145.7,55.7,145.9,55.7,146.2z M55.3,133.6c0.9,0,1.4-0.4,1.4-1c0-0.7-0.5-1.1-1.3-1.1c-0.7,0-1.3,0.5-1.4,1
		C54.1,133.2,54.6,133.6,55.3,133.6z"/>
	<path class="st0" d="M183.2,146.2c-0.3,0-0.4,0-0.7,0c0-0.2,0-0.5,0-0.7c0-3.5,0-7,0-10.5c0-0.5,0-0.8-0.6-0.9c-0.6-0.1-1-0.6-1.1-1.3
		c0-0.8,0.2-1.3,0.9-1.6c0.7-0.3,1.3-0.4,2,0c0.7,0.3,1.1,1,1.1,1.7c-0.1,0.7-0.6,1.2-1.6,1.5C183.2,138.2,183.2,142.2,183.2,146.2z
		 M182.8,131.6c-0.8,0-1.3,0.4-1.3,1.1c0,0.6,0.5,1,1.3,1c0.8,0,1.3-0.4,1.3-1C184.1,132,183.5,131.6,182.8,131.6z"/>
	<path class="st0" d="M151.4,146.2c-0.3,0-0.4,0-0.6,0c0-0.2,0-0.3,0-0.4c0-3.2,0-6.5,0-9.7c0-0.5,0-0.8-0.7-1c-1.2-0.4-1.4-2-0.4-2.8
		c0.7-0.6,1.6-0.6,2.4-0.2c0.7,0.3,1,0.9,1,1.6c0,0.7-0.5,1.2-1.1,1.3c-0.6,0.1-0.6,0.5-0.6,0.9c0,1.6,0,3.2,0,4.8
		C151.4,142.6,151.4,144.4,151.4,146.2z M151,134.6c0.7,0,1.4-0.5,1.4-1c0-0.5-0.7-1.1-1.3-1c-0.7,0-1.3,0.5-1.3,1.1
		C149.7,134.1,150.3,134.6,151,134.6z"/>
	<path class="st0" d="M87.5,146.2c-0.3,0-0.4,0-0.7,0c0-0.3,0-0.5,0-0.8c0-3.1,0-6.2,0-9.3c0-0.5,0-1-0.7-1.2c-0.9-0.3-1.2-1.1-0.9-1.9
		c0.3-0.8,1.4-1.5,2.3-1.3c1.3,0.3,2,1.2,1.6,2.2c-0.2,0.5-0.6,1-1.1,1.1c-0.6,0.2-0.5,0.5-0.5,0.8c0,3.2,0,6.4,0,9.5
		C87.5,145.7,87.5,145.9,87.5,146.2z M87.1,134.6c0.7,0,1.3-0.4,1.3-0.9c0-0.6-0.6-1.1-1.3-1.1c-0.6,0-1.3,0.5-1.3,1.1
		C85.8,134.1,86.4,134.6,87.1,134.6z"/>
	<path class="st0" d="M2.8,103.2c0.1-0.1,0.3-0.2,0.4-0.2c0.4,0,0.8,0,1.2,0c5.2,0,10.4,0,15.6,0c0.5,0,0.8,0,1.1-0.5c0.5-1,2-1.2,2.9-0.6
		c0.6,0.4,0.9,1,0.8,1.7s-0.7,1.1-1.3,1.2c-1.2,0.3-1.9-0.1-2.6-1.1c-0.1-0.2-0.4-0.3-0.7-0.3c-5.5,0-11,0-16.5,0
		c-0.3,0-0.5,0-0.8,0C2.8,103.3,2.8,103.3,2.8,103.2z M22.8,102c-0.7,0-1.3,0.5-1.3,1.1c0,0.7,0.6,1.1,1.4,1.1
		c0.8,0,1.3-0.6,1.3-1.1C24,102.6,23.5,102,22.8,102z"/>
	<path class="st0" d="M2.8,135.1c0.2,0,0.4-0.1,0.6-0.1c2.2,0,4.4,0,6.6,0c0.5,0,0.9-0.1,1.3-0.5c2.1-1.7,4.2-3.3,6.3-5c0.1-0.1,0.3-0.5,0.2-0.6
		c-0.4-0.7-0.3-1.3,0.2-1.9c0.5-0.6,1.2-0.7,2-0.6c1.1,0.2,1.7,1,1.5,2c-0.2,0.8-1.5,1.5-2.4,1.2c-0.6-0.2-0.9-0.1-1.4,0.3
		c-2.1,1.7-4.3,3.4-6.5,5.1c-0.2,0.1-0.4,0.3-0.7,0.3c-2.5,0-5,0-7.5,0c-0.1,0-0.2,0-0.3-0.1C2.8,135.3,2.8,135.2,2.8,135.1z
		 M19.5,129.4c1-0.2,1.7-0.8,1.4-1.5c-0.2-0.3-0.6-0.6-0.9-0.7c-0.5-0.1-1.2-0.3-1.5,0.4c-0.1,0.3-0.2,0.8,0,1.1
		C18.6,129,19.1,129.1,19.5,129.4z"/>
	<path class="st0" d="M123.8,146.2c-0.3,0-0.4,0-0.6,0c0-0.1,0-0.2,0-0.3c0-2.4,0-4.8,0-7.2c0-0.4-0.1-0.6-0.5-0.8c-1-0.4-1.4-1.1-1.1-2.1
		c0.2-0.7,1.4-1.4,2.2-1.2c1.3,0.3,2,0.7,1.8,2c-0.1,0.6-0.4,1.1-1,1.3c-0.6,0.1-0.7,0.5-0.7,1c0,2.2,0,4.4,0,6.6
		C123.8,145.7,123.8,145.9,123.8,146.2z M123.4,137.3c0.7,0,1.3-0.4,1.3-0.9c0-0.5-0.7-1.1-1.4-1.1c-0.6,0-1.2,0.5-1.2,1
		C122.1,136.9,122.6,137.3,123.4,137.3z"/>
	<path class="st0" d="M115.5,138.1c0,2.7,0,5.3,0,8.1c-0.2,0-0.4,0-0.7,0.1c0-0.7,0-1.4,0-2c0-1.9,0-3.7,0-5.6c0-0.4-0.1-0.7-0.5-0.8
		c-0.7-0.2-1.1-0.7-1.1-1.4c-0.1-0.9,0.2-1.3,1-1.7c0.9-0.4,1.7-0.3,2.4,0.2c1,0.6,0.8,2.2-0.3,2.7
		C116.1,137.9,115.8,138,115.5,138.1z M115.2,137.3c0.8,0,1.3-0.4,1.3-1c0-0.5-0.6-1-1.2-1c-0.7,0-1.4,0.5-1.4,1.1
		C113.9,136.9,114.5,137.3,115.2,137.3z"/>
	<path class="st0" d="M160.2,146.2c-0.2,0-0.4,0-0.6,0c0-0.1-0.1-0.3-0.1-0.4c0-2.4,0-4.7,0-7.1c0-0.5-0.1-0.8-0.6-0.9c-0.7-0.2-1.1-0.7-1.1-1.5
		c0-0.8,0.3-1.2,1-1.5c1-0.5,2.1-0.2,2.7,0.6c0.6,0.8,0.3,2.2-0.7,2.4c-0.6,0.1-0.6,0.5-0.6,0.9
		C160.2,141.2,160.2,143.7,160.2,146.2z M159.9,137.3c0.7,0,1.3-0.5,1.3-1c0-0.5-0.7-1-1.3-1c-0.7,0-1.3,0.5-1.3,1.1
		C158.5,136.9,159.1,137.4,159.9,137.3z"/>
	<path class="st0" d="M78.7,146.2c-0.3,0-0.4,0-0.6,0c0-0.1,0-0.2,0-0.4c0-2.4,0-4.8,0-7.1c0-0.5,0-0.8-0.6-0.9c-0.5-0.1-1-0.6-1-1.2
		c-0.1-0.7,0.2-1.2,0.8-1.6c0.8-0.5,1.9-0.5,2.7,0.1c0.8,0.6,0.9,2.3-0.3,2.7c-0.7,0.2-0.8,0.6-0.8,1.3
		C78.7,141.4,78.7,143.8,78.7,146.2z M78.3,137.3c0.8,0,1.3-0.4,1.3-0.9c0-0.6-0.6-1.1-1.3-1.1c-0.6,0-1.3,0.6-1.3,1.1
		C77,136.9,77.6,137.3,78.3,137.3z"/>
	<path class="st0" d="M38,146.2c-0.2,0-0.4,0-0.6,0c0-0.1-0.1-0.2-0.1-0.3c0-1.7,0-3.5,0-5.2c0-0.4,0-0.6-0.5-0.8c-0.8-0.3-1.3-1-1.1-1.7
		c0.1-0.8,0.9-1.4,1.8-1.4c0.7,0,1.3,0,1.8,0.5c0.8,0.8,0.5,2.2-0.7,2.6c-0.5,0.2-0.6,0.4-0.6,0.8C38,142.5,38,144.3,38,146.2z
		 M37.7,137.3c-0.7,0-1.4,0.5-1.3,1.1c0,0.5,0.7,1.1,1.3,1.1c0.6,0,1.3-0.6,1.3-1.1C38.9,137.7,38.5,137.3,37.7,137.3z"/>
	<path class="st0" d="M200.9,146.2c-0.2,0-0.4,0-0.6,0c0-0.1-0.1-0.2-0.1-0.4c0-1.7,0-3.4,0-5.2c0-0.4-0.1-0.7-0.5-0.8c-0.7-0.2-1.2-0.9-1.2-1.5
		c0-0.8,0.5-1.4,1.3-1.5c0.5-0.1,1-0.1,1.5,0c0.7,0.2,1.2,0.8,1.3,1.5c0,0.7-0.3,1.3-1.2,1.6c-0.4,0.1-0.5,0.4-0.5,0.7
		C200.9,142.5,200.9,144.4,200.9,146.2z M200.5,137.3c-0.8,0-1.3,0.4-1.2,1.1c0,0.5,0.7,1.1,1.3,1.1c0.7,0,1.3-0.6,1.3-1.1
		C201.8,137.8,201.2,137.3,200.5,137.3z"/>
	<path class="st0" d="M128.6,146.2c-0.3,0-0.5,0-0.8,0c0-1.1,0-2.1,0-3.2c0-0.5,0-0.8-0.6-1c-0.6-0.2-1-0.7-1-1.3c-0.1-0.7,0.2-1.2,0.8-1.5
		c1.2-0.8,2.9-0.2,3.3,1c0.2,0.8-0.1,1.6-1,1.9c-0.5,0.2-0.6,0.5-0.6,0.9C128.6,144.1,128.6,145.1,128.6,146.2z M128.1,141.6
		c0.7,0,1.2-0.4,1.3-1c0-0.5-0.6-1.1-1.3-1.1c-0.6,0-1.3,0.6-1.2,1.1C126.9,141.2,127.5,141.6,128.1,141.6z"/>
	<path class="st0" d="M110.8,146.2c-0.3,0-0.5,0-0.8,0c0-1.1,0-2.2,0-3.4c0-0.3,0-0.6-0.4-0.7c-1.1-0.5-1.4-1.1-1.1-2.1c0.3-1,1.5-1.4,2.3-1.2
		c1.4,0.3,2,1.3,1.5,2.4c-0.2,0.4-0.5,0.7-0.9,0.8c-0.5,0.2-0.6,0.4-0.6,0.8c0,0.5,0,1.1,0,1.6C110.8,145.1,110.8,145.6,110.8,146.2
		z M110.4,141.6c0.7,0,1.3-0.5,1.3-1c0-0.5-0.7-1-1.2-1c-0.7,0-1.3,0.5-1.3,1C109.2,141.2,109.7,141.6,110.4,141.6z"/>
	<path class="st0" d="M83.2,146.2c-0.3,0-0.4,0-0.6,0c0-0.1,0-0.2,0-0.3c0-1.3,0-2.6,0-3.8c0-0.4,0-0.7-0.5-0.8c-0.7-0.2-1.1-0.7-1.2-1.5
		c0-0.7,0.3-1.3,1.1-1.6c0.9-0.3,2.4-0.2,2.8,0.9c0.4,0.9,0,1.8-0.8,2.1c-0.7,0.2-0.8,0.7-0.8,1.3C83.2,143.8,83.2,145,83.2,146.2z
		 M84.2,139.8c0-0.5-0.7-1.1-1.3-1.1c-0.6,0-1.4,0.7-1.3,1.1c0,0.4,0.8,1,1.3,1C83.5,140.9,84.2,140.4,84.2,139.8z"/>
	<path class="st0" d="M155.6,146.2c-0.3,0-0.5,0-0.7,0c0-1.2,0-2.4,0-3.6c0-0.7-0.1-1.2-0.8-1.4c-0.8-0.3-0.9-0.9-0.9-1.5c0-0.7,0.6-1.4,1.4-1.5
		c0.8-0.2,1.6-0.2,2.3,0.5c0.8,0.8,0.6,2.2-0.5,2.6c-0.6,0.2-0.7,0.5-0.7,1C155.7,143.6,155.6,144.9,155.6,146.2z M155.3,140.9
		c0.5,0,1.3-0.6,1.3-1.1c0-0.5-0.8-1.1-1.4-1.1c-0.6,0-1.2,0.6-1.2,1.1C154,140.3,154.6,140.9,155.3,140.9z"/>
	<path class="st0" d="M2.8,115.7c0.2,0,0.5,0,0.7,0c2.9,0,5.9,0,8.8,0c0.4,0,0.6,0,0.8-0.5c0.4-0.8,1.2-1,1.9-1c0.8,0,1.4,0.4,1.7,1.1
		c0.4,0.8-0.3,1.9-1.4,2.1c-1,0.2-1.7-0.2-2.3-1.1c-0.1-0.2-0.5-0.3-0.7-0.3c-3,0-6,0-9,0c-0.2,0-0.4-0.1-0.6-0.1
		C2.8,115.9,2.8,115.8,2.8,115.7z M15,114.8c-0.8,0-1.4,0.4-1.4,1.1c0,0.7,0.5,1.2,1.3,1.2c0.7,0,1.4-0.4,1.4-1.1
		C16.3,115.3,15.8,114.8,15,114.8z"/>
	<path class="st0" d="M2.9,82c-0.2-0.5,0.1-0.6,0.4-0.5c1.3,0,2.6,0,3.8,0c0.4,0,0.6-0.1,0.8-0.4c0.7-1.3,2.8-1.3,3.6-0.1c0.4,0.6,0.3,1.6-0.3,2
		c-1,0.8-2.7,0.6-3.4-0.5C7.7,82,7.5,81.9,7.1,82C5.7,82,4.3,82,2.9,82z M9.7,80.6c-0.7,0-1.3,0.6-1.3,1.2c0,0.5,0.7,1.1,1.3,1
		c0.6,0,1.3-0.6,1.3-1.1C11,81.1,10.4,80.6,9.7,80.6z"/>
	<path class="st0" d="M49.4,145c0,0.4,0,0.8,0,1.3c-0.3,0-0.5,0-0.8,0c0-0.2-0.1-0.4,0-0.6c0.1-0.5-0.1-0.8-0.7-1c-0.6-0.2-0.9-0.8-1-1.4
		c0-0.5,0.2-1,0.7-1.4c0.9-0.5,2.1-0.5,2.8,0.1c0.8,0.7,0.7,1.9-0.3,2.5C50,144.7,49.7,144.8,49.4,145z M49,142.1
		c-0.7,0-1.3,0.5-1.3,1.1c0,0.5,0.7,1.1,1.3,1c0.6-0.1,1.3-0.3,1.3-1C50.2,142.7,49.7,142.1,49,142.1z"/>
	<path class="st0" d="M189.6,146.2c-0.3,0-0.5,0-0.8,0c0-0.4,0-0.8,0-1.1c-0.6-0.4-1.1-0.7-1.4-1.1c-0.2-0.3-0.2-0.9-0.1-1.3
		c0.2-0.8,1.2-1.2,2.4-1.1c0.7,0.1,1.4,0.8,1.5,1.5c0.1,0.5-0.3,1.4-0.9,1.5c-0.7,0.2-0.8,0.6-0.7,1.2
		C189.6,146,189.6,146.1,189.6,146.2z M189.2,142.1c-0.7,0-1.3,0.5-1.3,1.1c0,0.7,0.6,1,1.2,1.1c0.6,0.1,1.3-0.5,1.3-1
		C190.5,142.7,189.9,142.2,189.2,142.1z"/>
	<path class="st0" d="M7.7,130.7c-1.7,0-3.2,0-4.8,0c0-0.1,0-0.1,0-0.2c0.2-0.1,0.4-0.2,0.5-0.2c1.3,0,2.5,0,3.8,0c0.4,0,0.6-0.1,0.8-0.5
		c0.5-0.8,1.3-1.2,2.4-1c0.7,0.1,1.2,0.7,1.3,1.4c0.2,1.3-0.8,1.9-2,1.9C8.7,132.1,7.9,131.8,7.7,130.7z M9.6,131.7
		c0.7,0,1.4-0.5,1.4-1.1c0-0.6-0.6-1.2-1.4-1.2c-0.6,0-1.4,0.6-1.4,1.2C8.3,131.2,8.9,131.7,9.6,131.7z"/>
	<path class="st0" d="M4.5,112.6c-0.6,0-1.1,0-1.7,0c0-0.1,0-0.1,0-0.2c0.2,0,0.4-0.1,0.6-0.1c0.6,0,1.1,0,1.5-0.7c0.7-1.1,2.7-1,3.4,0.2
		c0.5,0.8,0,1.8-1,2.1C6.1,114.3,5.1,113.9,4.5,112.6z M6.6,111.3c-0.8,0-1.5,0.5-1.5,1.1c0,0.6,0.6,1.1,1.3,1.1
		c0.8,0,1.4-0.4,1.4-1C7.9,111.9,7.4,111.4,6.6,111.3z"/>
	<path class="st0" d="M2.7,119.6c1,0.3,1.4-0.5,1.9-1c1-0.9,2.7-0.5,3.2,0.6c0.3,0.5,0.2,1-0.2,1.4c-1,1.1-3.1,0.9-3.6-0.3
		c-0.1-0.2-0.3-0.3-0.5-0.4c-0.2-0.1-0.5,0-0.7,0C2.8,119.8,2.8,119.7,2.7,119.6z M5.9,120.8c0.9,0,1.4-0.4,1.5-1
		c0-0.5-0.5-1.1-1-1.1c-0.4,0-0.9,0.1-1.3,0.3c-0.2,0.1-0.5,0.6-0.5,0.8c0.1,0.3,0.4,0.6,0.7,0.9C5.5,120.8,5.8,120.8,5.9,120.8z"/>
</g>
</svg>
