<?xml version="1.0" encoding="utf-8"?>
<!-- Generator: Adobe Illustrator 24.0.2, SVG Export Plug-In . SVG Version: 6.00 Build 0)  -->
<svg version="1.1"
	 id="Слой_1" text-rendering="geometricPrecision" image-rendering="optimizeQuality" shape-rendering="geometricPrecision" xmlns:xodm="http://www.corel.com/coreldraw/odm/2003"
	 xmlns="http://www.w3.org/2000/svg" xmlns:xlink="http://www.w3.org/1999/xlink" x="0px" y="0px" viewBox="0 0 238.1 150.2"
	 style="enable-background:new 0 0 238.1 150.2;" xml:space="preserve">
<g id="Слой_x0020_1">
	<g id="_2789641187024">
		<g>
			<path  d="M0,120.8c6.6-4.3,13.3-8.6,20.5-11.9c6.3-2.9,12.7-5.1,19.6-5.8c1.4-0.1,2.8-0.2,4.2-0.1c1,0.1,1.7-0.3,2.3-1.1
				c2.3-2.8,5.3-4.5,8.8-5.2c0.2,0,0.4-0.1,0.6-0.1c2-0.2,2.1-0.2,2.4-2.3c0.4-3.1,0.6-6.2,0.9-9.3c0.1-0.8-0.2-1.2-1.1-1.3
				c-1.9-0.2-3.3-1.4-4.3-2.8c-1.5-2-3.2-3.5-5.4-4.8c-3.2-2-6-4.5-7.8-7.9c-2.5-4.9-2-9.8,0-14.6c0.6-1.4,1.2-2.7,2-4
				c0.4-0.7,0.3-1.1-0.2-1.6c-2.5-2.5-5-5-7.5-7.6c-0.3-0.3-0.5-0.7-1-1.3c0.6-0.1,1-0.2,1.3-0.2c2.6-0.1,5.2-0.2,7.8-0.3
				c0.9,0,1.3-0.3,1.2-1.3c-0.3-3.4-0.5-6.8-0.8-10.5c3.3,2.7,6,5.9,8.8,9.2c1.2-1.4,2.2-2.8,3.4-4.1c2.6-3,5.8-5.3,9.8-6.1
				c2.4-0.5,4.8-0.5,7.2,0.3c2.7,0.9,5.5,1.7,8.1,2.7c1.5,0.6,2.9,1.5,4.6,2.3c-0.3-2.2-0.5-4.4-0.8-6.4c-1.9,0-3.6,0-5.3,0
				c-1.5,0-2-0.5-2-2c0-3.5,0-7,0.1-10.5c0-0.3,0-0.5,0-0.8c0-1.8,0-1.8-2.1-1.6c0,0.4,0,0.8,0,1.2c0,2.6,0,5.3,0,7.9
				c0,3.6-2.2,5.9-5.8,6.1c-1.9,0.1-3.8,0-5.4-1.2c-0.9-0.7-1.6-1.7-2.4-2.7c0,0.5,0,1.1,0,1.6c0,1.5-0.4,2-1.9,2c-3,0-6,0-9,0
				c-2.4,0-2.4,0-3-2.3c-2.7,3-6,3.4-9.6,2c-1.4-0.5-2.4-1.7-2.9-3.1c-0.3-1.2-0.4-2.4-0.5-3.6c-0.1-1,0-2.1,1.5-2.2
				c0.1,0,0.3-0.8,0.2-1c-2.2-2.3-2-5.1-1.3-7.8c0.3-1.3,1.2-2.3,2.5-2.8c3.2-1.3,6.3-1.1,9,1c0.4,0.3,0.7,1,1.2,1.7
				C47.9,6.1,48,5.8,48,5.5c0-1.6,0.4-1.9,2-1.9c1.6,0,3.3,0.2,4.9,0.2c1.6,0,3.1-0.2,4.7-0.2c0.7,0,1.5,0.3,2.1,0.4
				c0.7-0.1,1.5-0.4,2.2-0.4c3,0,6,0,9,0c4.2,0,8.5,0,12.7,0c1.6,0,1.9,0.4,2,1.9c0,0.9-0.1,1.8,0,2.7c0,1.1-0.5,1.6-1.5,1.7
				c-1.2,0.1-1.8,1.3-1,2.2c2,2.1,4,4.2,6.1,6.3c0.1-0.1,0.3-0.1,0.4-0.2c0-1.5,0-3,0-4.5c0-2.7,0-5.5,0-8.2c0-1.4,0.4-1.8,1.8-1.8
				c3.3,0,6.6,0,10,0c0.6,0,1.3,0.4,2,0.6c0.2-0.1,0.6-0.5,0.9-0.5c2.8,0.1,5.7,0.1,8.5,0.4c1.9,0.3,3.1,1.8,3.2,3.8
				c0.1,1.8,0.1,3.6,0,5.4c-0.1,2.2-1.7,3.6-4.3,3.9c-0.9,0.1-1.2,0.4-1.2,1.3c0,1.5,0,3.1,0,4.6c0,1.2-0.5,1.7-1.7,1.7
				c-1.6,0-3.1,0-5,0c0.4,0.7,0.6,1.2,0.8,1.7c2.3,5.5,4.4,11,4,17.1c-0.1,2.1-0.8,4.2-1.4,6.3c-0.5,1.8-2.1,2.7-3.9,2.9
				c-1.8,0.2-3.7,0-5.5-0.1c-0.4,0-0.8,0-1.3-0.1c0.1,1.1,0.1,2.1,0.3,3c0,0.3,0.3,0.6,0.6,0.7c2.1,0.9,3,2.5,2.8,4.8
				c-0.1,1,0.2,1.8,0.9,2.6c2.6,2.7,3.4,6.8,0.6,10.4c-0.8,1-1.5,2-2.4,3.2c0.8,0.4,1.6,0.7,2.4,1.1c0.5,0.2,1,0.4,1.4,0.8
				c2.3,2,2.3,3.5-0.5,5.8c-0.9,0.7-0.9,1.2-0.5,2c1.2,3,3,5.8,5.3,8c1.2,1.2,1.5,2.6,1.1,4.1c-0.3,1.4-1.6,2-2.9,2.3
				c-3.4,0.8-6.6,0-9.9-0.8c-1.6-0.4-3.1-0.9-4.8-1.3c-0.4-0.1-0.8,0.2-1.2,0.3c-0.6,0.1-1.3,0.4-1.9,0.3c-0.8-0.1-1.6-0.4-2.4-0.7
				c-1.3,1.9-1.4,3.9-0.2,5.7c1.2,1.7,1.8,3.4,0.4,5.3c-0.2,0.2,0,0.9,0.2,1.3c1.5,2.3,3.8,3.8,6.3,4.6c3,0.9,6.2,1.4,9.3,2.1
				c1.8,0.4,3.5-0.2,5-1.2c3.5-2.3,7-4.7,10.5-7.1c3.4-2.3,6.7-4.8,10.2-6.9c2-1.2,4.3-1.9,6.7-1.9c1,0,1.1-0.3,1-1.2
				c-0.6-3.7-0.3-7.3,1.5-10.6c1-1.8,2.5-3.2,4-5c-0.7-0.7-1.6-1.7-2.6-2.5c-3-2.4-6.6-3.4-10.3-3.8c-1.6-0.2-3.2-0.2-4.8-0.3
				c-0.4,0-0.9-0.3-1-0.5c-0.1-0.3,0.2-0.8,0.4-1c1.4-1.3,2.9-2.4,4.2-3.8c1.1-1.2,2-2.7,2.8-4.2c1.3-2.4,2.7-4.8,5-6.5
				c0.9-0.7,1-1.3,0.5-2.2c-0.6-1.2-1.1-2.5-1.7-3.7c-0.5-1.1-0.1-1.8,0.9-2.2c1.7-0.6,3.6-1.1,5.4-1.7c0.3-0.1,0.6-0.1,0.9-0.1
				c0-1,0.1-1.9,0.1-3c1.4,0.2,2.6,0.4,3.8,0.6c4.5,0.7,8.9,0.6,13.3-0.7c2.3-0.7,4.6,0.1,6.8,0.8c0.7,0.2,1.5,0.5,2.2,0.9
				c1.2,0.6,2.3,0.4,3.4-0.4c0.1-0.1,0.3-0.1,0.7-0.2c-0.2,1.1-0.4,2.1-0.5,2.9c2.1,0.1,3.9,0.2,5.8,0.4c0.4,0,0.9,0.3,1.3,0.5
				c1.4,0.8,1.6,1.7,0.7,3c-0.2,0.3-0.4,0.5-0.6,0.8c1.4,0.7,2.8,1.2,4,1.9c0.8,0.5,1.6,1.1,2.2,1.9c0.2,0.3,0.1,1.2-0.2,1.5
				c-0.6,0.7-0.4,0.9,0.1,1.5c1.3,1.4,2.8,2.8,3.8,4.4c0.8,1.4,1.1,3.2,1.5,4.8c0.2,0.8-0.4,0.8-1,0.9c-3.4,0.7-6.9,1.1-10.2,2.1
				c-2.4,0.8-4.6,2.3-6.8,3.5c-0.4,0.2-0.6,0.5-1,0.8c0.9,0.9,1.8,1.8,2.5,2.7c1.6,1.9,1.5,4.2,0.7,6.3c-0.7,1.8-0.8,3.4-0.3,5.3
				c0.4,1.3-0.1,2.8-0.2,4.3c0,0.5,0,1,0.2,1.4c1.2,2,1.2,4.2-0.3,6.1c0,0,0,0.1-0.1,0.1c-1.7,2.3-1.5,2.6,0.4,5.9
				c1,1.8,1.3,4.1,1.9,6.2c0.1,0.3-0.5,0.9-0.9,1.1c-3.2,1.5-6.7,2.2-10.2,2.6c-3.7,0.4-7.5,0.6-11.2,1c-0.3,0-0.8,0.2-1,0.5
				c-0.5,0.7-1,1.4-1.5,2.1c-0.1,0.2-0.1,0.5-0.1,0.7c0.1,0.1,0.4,0.3,0.6,0.3c2-1.1,4.2-0.4,6.3-0.5c2.6-0.2,5.2-0.1,7.7,0
				c4.3,0.2,8.7-0.1,13,0c2.5,0,2.9,0.5,2.8,2.9c-0.2,3.8-0.5,7.5-0.6,11.3c-0.1,1.7,0.2,3.4,0.3,5.1c0.1,1.7-0.5,2.3-2.1,2.3
				c-1.1,0-2.2,0-3.3,0c-1.2,0-1.9-0.7-1.9-1.9c0-1.5,0.3-2.9,0.4-4.4c0-1.1-0.1-2.2-0.1-3.3c-0.1-1.6-0.3-3.1-0.4-4.8
				c-0.2,0.2-0.3,0.3-0.4,0.5c-1.2,3.4-2,6.8-1.7,10.5c0.2,3.2-0.1,3.5-3.3,3.4c-0.8,0-1.5,0-2.2,0c-1.3,0-1.9-0.7-1.9-2
				c0-1.3-0.1-2.7,0-4c0.2-2.8-1.1-5.2-1.7-7.9c-0.1-0.4-0.3-0.9-0.4-1.3c-0.9,0.1-1.7,0.3-2.5,0.4c0,0.1,0,0.1,0,0.2
				c0.2,0,0.3,0.1,0.5,0.1c1.9,0.2,2.2,0.5,2.2,2.4c0,0.7,0,1.5,0,2.2c0,1.3-0.6,1.9-1.9,2c-0.4,0-0.7,0.3-1.1,0.5
				c0.4,0.2,0.7,0.5,1.1,0.5c2,0.1,2.4,0.4,2.5,2.4c0,0.9,0,1.8,0,2.7c-0.1,1-0.7,1.6-1.7,1.6c-2.6,0-5.3,0-7.9,0
				c-0.6,0-1.1-0.3-1.6-0.4c-0.8,0.1-1.6,0.4-2.3,0.4c-1.5,0-2.9-0.3-4.4-0.4c-0.2,0-0.4,0.1-0.7,0.2c-1.7,0.1-3.4,0.2-5.1,0.1
				c-0.4,0-0.9-0.9-1.1-1.5c-0.2-0.3,0-0.8,0-1.6c-1.6,2.7-3.8,3.7-6.5,3.7c-2.7,0.1-4.9-0.9-6.5-3.3c-0.6,2.9-0.6,2.9-3.6,2.9
				c-4.1,0-8.3,0-12.4,0c-1.6,0-2.2-0.6-2.1-2.1c0.1-1.2-0.4-1.5-1.5-1.6c-1.4-0.1-2.9-0.3-4.3-0.5c-0.9-0.1-1.2,0.2-1.1,1
				c0.2,3.4-0.6,3.3-3.4,3.3c-4,0-4,0.1-4-4c0-0.2,0-0.5,0-0.7c0-1.6-0.1-1.7-1.8-1.8c0,1.4,0,2.7,0,4.1c0,1.9-0.5,2.4-2.4,2.4
				c-1.1,0-2.1-0.1-3.2,0c-0.3,0-0.6,0.4-0.9,0.7c-0.3,0.3-0.5,0.8-0.7,0.8c-3.9,0-7.9,0-12,0c0.3-1.9,0.8-3.7,0.9-5.5
				c0.2-4.1,0.3-8.2,0.4-12.3c0-1.2,0-2.3,0-3.5c0-1.1,0.5-1.8,1.6-1.9c0.8,0,0.9-0.5,1-1c0.3-1.7,0.6-3.5,0.9-5.2
				c0.2-1.1,0-1.3-1.2-1.1c-2.5,0.4-5,0.9-7.5,0.9c-6.2,0-10.5-3.3-13.6-8.4c-0.2-0.3-0.4-0.6-0.5-0.9c-0.1-0.1-0.2-0.3-0.4-0.6
				c-2.7,5.2-3.7,10.8-5.3,16.3c1.7,0,3.2,0,4.7,0c0.7,0,1.3,0,2,0c2,0,4,0,5.9,0c2,0,4.1,0,6.1,0c1.4,0,1.9,0.5,1.9,1.8
				c0,1,0,2,0,2.9c0,1.4-0.4,1.8-1.8,1.9c-0.4,0-0.8,0.1-1.2,0.1c0,0.1,0,0.3,0,0.4c0.3,0.1,0.6,0.1,1,0.2c1.4,0,1.9,0.6,2,1.9
				c0,0.7,0,1.5,0,2.2c0,1.8-0.4,2.2-2.2,2.3c-0.2,0-0.5,0-0.7,0.1c-0.3,0.9,0,1.2,0.9,1.1c2.2,0,2.5,0.3,2.5,2.5c0,0.8,0,1.7,0,2.5
				c0,1-0.6,1.6-1.6,1.6c-2.9,0-5.8-0.1-8.7-0.1c-1.6,0-3.1,0.1-4.7,0.1c-2.9,0-5.9-0.2-8.8-0.1c-1.1,0-2.5,0-2.3,1.7
				c-9.6,0-19.1,0-28.9,0c1-2.1,1.9-3.9,3-6.1c-1.3,0.7-2.4,1.1-3.3,1.7c-1.5,1.1-3,2.4-4.4,3.7c-0.5,0.5-1,0.7-1.7,0.7
				c-2.5-0.1-5.1,0-7.7,0C0,140.4,0,130.6,0,120.8L0,120.8z M179,61c1.3,0,2.3,0.7,3.2,1.5c0.5,0.2,0.9,0.4,1.4,0.5
				c0.1,0,0.2,0,0.3-0.1c0.4-0.2,1.1-0.4,1.3-0.8c0.1-0.2-0.3-0.9-0.5-1.2c-1.4-1.7-3.4-2-5.3-2.8c-0.3-0.1-1,0.2-1.2,0.5
				c-0.2,0.3,0,0.8,0.2,1.2C178.5,60.3,178.8,60.6,179,61c-1-0.1-1.4,0.6-1.9,1.4C178.4,62.8,178.5,61.6,179,61L179,61z M101.7,62.2
				c0.7-2.5-0.1-4.3-2.3-5.3c-0.4-0.2-0.8-0.6-0.9-1c-0.2-0.9-0.1-1.8-0.3-2.7c-0.1-0.4-0.5-0.9-0.9-1.1c-0.9-0.4-1.9-0.5-2.8-0.9
				c-5-1.9-9.9-3.9-14.9-5.7c-4.1-1.5-8.4-2.5-12.9-2.4c-1.1,0-2.2,0.4-3.6,0.6c0.4,0.4,0.5,0.6,0.7,0.7c1.7,2.2,3.5,4.3,5.1,6.5
				c0.7,1,1.1,2.3,0.7,3.7c-0.2,0.9-0.5,1-1.3,0.5c-1.4-0.8-2.7-1.7-4.2-2.4c-1.7-0.8-3.5-1.2-5.5-0.8c0.2,0.3,0.3,0.4,0.4,0.6
				c1.5,2.2,3.2,4.3,4.5,6.6c3.2,5.4,4.7,11.2,3.7,17.6c0,0.3-0.3,0.6-0.5,1.2c-0.4-0.7-0.5-1-0.8-1.4c-1.2-1.9-2.3-3.9-3.7-5.7
				c-1-1.3-2.3-2.2-4-2.3c-3.1-0.2-5.8,3.6-6,6.1c-0.2,3,2.5,7.2,5.3,8.2c2.3,0.8,4,0.3,5.3-1.6c0,0,0.1,0,0.2,0
				c0.1,1.3-0.6,2.1-2.2,2.4c-0.7,0.1-0.7,0.4-0.8,1c-0.2,3.1-0.3,6.3-0.8,9.3c-0.9,5.1-2.7,10-4.4,14.9c-0.2,0.5-0.3,1.2-0.1,1.7
				c1.8,3.6,4.4,6.4,8.1,8.1c4.5,2,9,1.4,13.6,0.2c0.3-0.1,0.7-0.3,0.8-0.6c1.4-2.2,2.7-4.3,4-6.5c0.5-0.8,1-1.2,2-1.1
				c0.9,0,1.9-0.1,2.8-0.2c1.6-0.1,2.5-1.2,2.2-2.7c-0.2-0.8-0.7-1.6-1-2.3c-0.4-1-0.9-2-1-3c-0.1-0.8,0.2-1.6,0.4-2.4
				c-2.2-0.3-3.7,1.5-3,3.7c0.1,0.4,0.2,0.8,0.4,1.3c-0.4,0-0.6,0.1-0.8,0.1c-3.1-0.1-6.2-0.1-9.3-0.3c-2.5-0.1-5-0.6-7.2-1.9
				c-1.3-0.8-2.1-2.1-1.8-3.6c0.4-2.5,3.2-5.3,5.7-5.8c5-0.9,9.7,0.1,14.4,1.7c4.2,1.4,7.9,3.8,12.3,4.7c3.3,0.7,6.5,1.6,10,1.1
				c1.4-0.2,2.7-0.7,3.1-2.1c0.4-1.4-0.1-2.6-1.1-3.6c-2.6-2.6-4.5-5.6-5.6-9.2c-1.8,0-3.6,0.1-5.4,0c-2.3-0.2-4.5-1-5.1-1.9
				c0.4,0.1,0.7,0.2,1,0.2c1.8,0.4,3.6,0.9,5.5,1.1c1.8,0.2,3.7,0.1,5.3-1.1c2-1.5,2.4-3.4,0.2-4.8c-0.3-0.2-0.7-0.4-1-0.6
				c-2.1-1.3-4.4-1.5-6.8-1.4c-0.9,0-1.4-0.3-1.7-1.2c-0.6-1.8-2-2.8-3.8-3.4c-0.1,0.3-0.2,0.6-0.3,0.8c-0.7,1.2-1.3,2.6-2.2,3.6
				c-1.6,1.8-3.8,2.4-6.2,2.4c-2.9,0-5.7-0.4-8-2.5c-1.4-1.3-2-3.1-2.4-4.9c-0.7-3.3-0.4-6.4,2.4-8.6c0.8-0.7,2-1.6,2.9-1.5
				c4.1,0.3,8.1,1.1,11.8,2.8c0.5,0.2,0.7,0.3,1.2-0.2c0.9-1.1,0.3-1.9-0.2-2.7c-0.2-0.4-0.5-0.7-0.7-1.1c0.1-0.1,0.3-0.2,0.4-0.3
				c0.6,0.9,1.2,1.8,1.8,2.7C95.8,61.6,96.9,61.2,101.7,62.2L101.7,62.2z M52.3,37c-2.4-2.7-4.9-5.4-7.3-8.1
				c-0.1,0.1-0.3,0.1-0.4,0.2c0,0.5,0,1.1,0,1.6c0.1,2.5,0.3,4.9,0.5,7.4c0,0.8-0.2,1.2-1,1.2c-1.2,0-2.5,0.1-3.7,0.1
				c-1.6,0.1-3.2,0.2-4.9,0.2c0.2,0.3,0.2,0.4,0.3,0.5c2.5,2.5,5,5.1,7.5,7.6c0.3,0.3,0.5,1,0.4,1.4c-0.9,2.3-2.1,4.5-3,6.8
				c-1,2.6-1.2,5.3-0.7,8c1,5.3,4.5,8.7,8.8,11.6c0.7,0.5,1.6,0.9,2.5,1.5c-0.4-2.9,0.5-5.1,2.2-7c1.3-1.5,3.5-2.6,5.6-1.9
				c2.2,0.7,3.7,2.3,5,4.1c0.8,1.1,1.4,2.3,2.1,3.4c0.9-4.5,0-8.7-1.7-12.8c-1.7-4-4.2-7.6-7.2-11.2c4.7-1.5,8,1,11.8,3
				c-0.4-5.1-4.3-7.6-7-11c0.6-0.3,1.1-0.6,1.6-0.7c4.7-1.2,9.3-0.1,13.8,1.2c2.8,0.8,5.5,2,8.3,3c2.6,1,5.2,2,7.8,3
				c3.1,1.2,6.3,2.1,9.7,2.1c2.3,0,4.7-0.4,5.8-2.9c0.5-1.2,0.7-2.4,0.9-3.7c0.6-3.6,0.2-7.2-0.8-10.7c-0.9-3.1-2.2-6.1-3.3-9.2
				c-0.4-0.9-0.9-1.8-1.3-2.6c-1.7,0.8-3.2,1.6-4.8,2.4c-0.2,1.5,0.3,3.3-0.3,5.3c-0.9-1.5-1.6-2.7-2.2-3.9
				c-0.6-1.2-1.5-2.2-2.7-2.8c-1.1-0.5-1.9-1.4-2.3-2.6c-0.3-0.9-0.5-1.9-1.1-2.6c-1-1.3-2.2-2.4-3.3-3.5C86.9,14.7,86,13.9,85,13
				c0,4.9-0.2,9.5,0.6,14c0.3,1.5,0.4,3.1,0.6,4.7c0,0.3-0.2,0.5-0.3,0.8c-0.2-0.1-0.5-0.2-0.7-0.3c-1.4-0.9-2.8-1.9-4.3-2.5
				c-2.2-0.9-4.6-1.5-6.9-2.3c-5.9-2.2-11.2-1-15.8,3.2C56.1,32.5,54.3,34.8,52.3,37L52.3,37z M148.6,93.4c0.5,0.1,0.8,0.1,1.1,0.2
				c1.4,0.3,2.8,0.7,4.2,0.9c2.1,0.3,4.2,0.2,6.1-0.9c1.7-1.1,2.1-3.4,0.5-4.4c-3.3-2.1-6.8-4-10.2-6c-0.9-0.5-1.9-0.6-2.9-0.1
				c-1,0.5-2.1,1-3.1,1.6c-4.1,2.3-6.4,5.7-6.5,10.4c-0.1,3.2,0.1,6.3,0.3,9.5c0.3,4.5,2.4,8,6.2,10.5c0.8,0.5,1.3,0.6,1.8-0.4
				c1.2-2.5,2-5.1,2.3-7.8c0.3-2.7,0.5-5.4,0.6-8.1C148.9,96.9,148.7,95.3,148.6,93.4z M116.6,133.5c-0.1,0-0.1,0-0.2,0
				c-0.1-0.4-0.2-0.8-0.2-1.2c-0.2-1.2-0.3-2.3-0.5-3.5c-0.1-0.5-0.3-0.8-0.9-0.8c-1.7,0-3.4,0-5.1,0c-0.8,0-1.1,0.3-1.1,1
				c0,5.8,0,11.7,0,17.5c0,0.6,0.2,0.9,0.8,0.8c0.9,0,1.7,0,2.6,0c1.5,0,1.5,0,1.5-1.5c0-1.4,0-2.8,0-4.2c0.1,0,0.2,0,0.3,0
				c0.3,1.9,0.6,3.7,0.9,5.6c1,0,1.8-0.1,2.6,0c1,0.1,1.2-0.4,1.2-1.1c0.1-1.3,0.3-2.5,0.4-3.8c0.3,0.1,0.4,0.3,0.4,0.5
				c0,1.1,0.1,2.3,0,3.4c-0.1,0.8,0.1,1.1,0.9,1.1c0.9,0,1.9-0.1,2.8,0c1,0.1,1.3-0.4,1.3-1.3c0-1.8,0-3.6,0-5.4c0-3.8,0-7.5,0-11.3
				c0-1-0.3-1.5-1.4-1.4c-1.5,0.1-3,0.1-4.5,0c-0.9,0-1.3,0.2-1.4,1.1C117,130.6,116.8,132,116.6,133.5L116.6,133.5z M85.3,147.5
				c1.5,0,2.7,0.1,3.9,0c0.4,0,1-0.6,1-1c0-5.7,0-11.5,0-17.2c0-0.9-0.3-1.2-1.2-1.2c-1.6,0-3.1,0.1-4.7,0c-0.8,0-1.2,0.2-1.2,1.1
				c-0.1,1.4-0.4,2.8-0.6,4.2c-0.1,0-0.2,0-0.3,0c-0.2-1.4-0.5-2.8-0.6-4.3c-0.1-0.7-0.4-1-1.1-1c-1.5,0-3,0.1-4.5,0
				c-1.2-0.1-1.5,0.4-1.5,1.5c0,4.8,0,9.6,0.1,14.5c0,1.1-0.3,2.7,0.3,3.2c0.6,0.6,2.1,0.2,3.3,0.3c1.1,0.1,1.4-0.3,1.3-1.3
				c-0.1-1.4,0-2.8,0-4.2c0.1,0,0.3,0,0.4,0c0.2,1.4,0.3,2.9,0.6,4.3c0.1,0.4,0.4,1.2,0.7,1.2c2.6,0.6,3.1,0.2,3.4-2.5
				c0-0.5,0.1-0.9,0.2-1.4c0.1-0.4,0.2-0.8,0.3-1.2c0.1,0,0.2,0,0.3,0C85.3,144,85.3,145.6,85.3,147.5L85.3,147.5z M72.9,70
				c0,0.5,0,0.9,0.1,1.4c0.3,2.5,1,4.9,3.3,6.3c3.3,1.9,6.9,2.2,10.4,0.8c3.4-1.3,5.3-6,4.5-9.8c-0.4-1.9-1.3-3.3-3.2-3.9
				c-2.7-0.7-5.5-1.3-8.2-1.9c-2.2-0.5-3.9,0.4-5.3,2C73.3,66.4,72.7,68.1,72.9,70L72.9,70z M144.6,142.2c0.1,0,0.3,0,0.4-0.1
				c0.2,0.6,0.4,1.3,0.6,1.9c0.9,3.4,0.9,3.4,4.4,3.4c1.2,0,1.5-0.4,1.5-1.5c0-5,0-10,0-14.9c0-3,0-3-2.9-3c-0.2,0-0.3,0-0.5,0
				c-1.1-0.1-1.5,0.3-1.4,1.4c0.1,1.4,0,2.7,0,4.1c-0.7-1.3-1.1-2.5-1.5-3.9c-0.3-1.2-0.8-2-2.2-1.7c-0.5,0.1-1.1,0.1-1.6,0
				c-1.2-0.2-1.5,0.5-1.5,1.5c0,5.6,0,11.2,0,16.9c0,0.8,0.3,1.1,1.1,1.1c0.7,0,1.5,0,2.2,0c1.1,0.1,1.6-0.3,1.5-1.5
				C144.5,144.8,144.6,143.5,144.6,142.2L144.6,142.2z M138,137.8C138,137.8,138,137.8,138,137.8c0-1.5,0-2.9,0-4.3
				c-0.1-3.5-1.7-5.3-5-5.8c-3.3-0.4-6.9,1.3-6.8,5.1c0,3.2,0,6.5,0,9.7c0,3.5,2.8,5.4,6,5.3c3.7,0,5.9-2.2,5.9-5.9
				C138,140.6,138,139.2,138,137.8L138,137.8z M51.4,143.3c0.1,0,0.3,0,0.4-0.1c0.3,1,0.6,2,0.8,3c0.2,0.8,0.5,1.2,1.4,1.1
				c1.1-0.1,2.1,0,3.2,0c1.2,0,1.4-0.2,1-1.4c-0.6-2.1-1.3-4.3-2-6.4c-0.6-1.7-0.9-3.4-0.1-5.2c0.7-1.6,1.2-3.3,1.7-5
				c0.1-0.4,0.1-0.9,0.2-1.4c-1.4,0-2.7,0-3.9,0c-0.8,0-1.2,0.3-1.4,1.1c-0.3,1.1-0.7,2.1-1,3.2c-0.1,0-0.2,0-0.3,0
				c0-1.1,0-2.1,0-3.2c0-0.7-0.2-1-1-1c-1.2,0-2.3,0-3.5,0c-0.7,0-1,0.2-1,0.9c0,5.8,0,11.7,0,17.5c0,0.7,0.3,1,1,0.9
				c1.2,0,2.3,0,3.5,0c0.7,0,1-0.3,1-1C51.3,145.4,51.4,144.4,51.4,143.3L51.4,143.3z M55.5,4.7c0,1.9,0,3.7,0,5.5
				c0,0.4-0.4,0.8-0.6,1.2c-0.2-0.4-0.6-0.8-0.6-1.1c-0.1-1.5-0.1-3.1,0-4.6c0-0.7-0.2-1-0.9-1c-1.1,0-2.2,0-3.3,0
				c-0.3,0-0.8,0.5-0.8,0.8c0,5.8,0,11.5,0,17.3c0,0.3,0.5,0.8,0.8,0.8c1.1,0.1,2.1,0,3.2,0c0.8,0,1.1-0.3,1.1-1.1c0-2,0-3.9,0-5.9
				c0-0.3,0.4-0.6,0.6-0.9c0.2,0.3,0.6,0.6,0.6,0.9c0.1,1.2,0,2.3,0,3.5c0,1.1,0,2.2,0,3.4c1.6,0,2.9,0,4.2,0c0.3,0,0.8-0.5,0.8-0.8
				c0-5.8,0-11.5,0-17.3c0-0.6-0.2-0.8-0.8-0.8C58.4,4.7,57.1,4.7,55.5,4.7L55.5,4.7z M34.7,128.1c-0.4,2.8-0.8,5.5-1.1,8.2
				c-0.4,3.3-0.9,6.5-1.3,9.8c-0.1,1,0.1,1.5,1.2,1.4c0.5-0.1,1.1,0,1.6,0c2.6,0,2.5,0,2.9-2.5c0-0.3,0.4-0.6,0.7-0.9
				c0.2,0.3,0.5,0.6,0.6,0.9c0.1,0.5,0.1,1,0.1,1.5c0,0.6,0.3,0.9,0.9,0.9c1.1-0.1,2.3,0,3.4,0c1.3,0,1.4-0.2,1.2-1.4
				c-0.7-4.6-1.4-9.1-2.1-13.7c-0.2-1.4-0.4-2.8-0.7-4.2C39.6,128.1,37.1,128.1,34.7,128.1L34.7,128.1z M69.2,4.7
				c0,0.6-0.1,1.1-0.1,1.6c0,4.2,0,8.4,0,12.6c0,0.6-0.4,1.1-0.6,1.7C68.3,20,68,19.4,68,18.9c0-4.4,0-8.7,0-13.1
				c0-0.9-0.2-1.2-1.1-1.2c-1,0.1-2,0-3.1,0c-0.8,0-1,0.3-1,1c0,4.4,0,8.9,0.1,13.3c0,0.9,0.3,1.8,0.7,2.6c1,1.8,2.8,2.3,4.7,2.4
				c3,0.2,5.8-1.3,5.8-4.4c0.1-4.7,0.1-9.4,0.1-14.1c0-0.3-0.5-0.7-0.7-0.8C72,4.6,70.7,4.7,69.2,4.7z M104.1,12.6L104.1,12.6
				c0-2.3,0-4.6,0-6.9c0-0.8-0.3-1.1-1-1c-0.9,0-1.9,0.1-2.8,0c-1-0.1-1.3,0.3-1.3,1.2c0,4.2,0,8.4,0,12.6c0,0.4,0,0.9-0.1,1.3
				c-0.1,0.3-0.4,0.5-0.5,0.8c-0.2-0.2-0.4-0.4-0.5-0.7c-0.1-0.5-0.1-1.1-0.1-1.6c0-4.1,0-8.2,0-12.2c0-0.9-0.2-1.4-1.2-1.3
				c-0.9,0.1-1.8,0.1-2.7,0c-0.9-0.1-1.2,0.3-1.1,1.2c0.1,4.3,0,8.5,0.1,12.8c0,0.8,0.1,1.6,0.4,2.3c0.8,2.1,2.6,2.8,4.7,3
				c3.5,0.4,6.3-1.5,6.3-5.3C104.1,16.6,104.1,14.6,104.1,12.6L104.1,12.6z M144.5,83.6c-0.3-0.3-0.5-0.7-0.7-0.9
				c-1.8-1.4-3.6-2.9-5.5-4.1c-1.1-0.7-1.8-1.4-2.1-2.7c-0.2-1.4-1.2-2-2.5-2.3c-0.7-0.1-1.4-0.1-2.3-0.2c0.4-1.3,0.7-2.4,1.2-3.6
				c1.1-2.8,2.4-5.4,4.9-7.2c0.8-0.6,1.3-0.5,1.7,0.4c0.7,1.6,1.6,3.1,2.1,4.7c1.5,4.7,3,9.5,4.4,14.3c0.1,0.3,0.2,0.5,0.4,0.7
				c0.1,0,0.2-0.1,0.3-0.1c-0.4-7.4-3.7-13.9-5.9-20.8c1.9-1.3,1.8-3.1,1.3-5c-0.8-2.7-0.7-2.9,2-2.7c4.3,0.3,8.6,0.7,12.9,1.1
				c0.9,0.1,2.2-0.1,2.7,0.5c0.5,0.6,0.3,1.8,0.4,2.8c0.2,1.6,0.4,3.2,2.1,4c0.2,0.1,0.3,0.7,0.2,1c-0.5,1.6-1.2,3.2-1.6,4.9
				c-1.2,5.9-1.5,11.9-1.4,17.9c0,0.4,0.1,0.8,0.2,1.2c-0.3-9.3,2.5-17.9,5-26.7c-1.1,0.4-2.2,0.8-3.1-0.2c-0.3-0.4,0-1.1,0-1.7
				c0-0.7-0.2-1.5,0-2c0.4-0.7,2-0.7,2.7-0.2c1,0.7,0.3,1.4-0.1,2.1c0.3,0.3,0.5,0.5,0.8,0.8c0.2-0.4,0.4-0.6,0.4-0.9
				c0.2-1.5,0.3-2.9,0.6-4.3c0.2-0.9-0.2-1-1-1c-4,0.1-8.1,0.3-12.1,0.4c-1.4,0-2.9-0.1-4.3-0.5c-4.1-1.3-7.9-0.9-11.7,1.1
				c-0.6,0.3-0.8,0.7-0.5,1.3c0.5,1.2,1,2.5,1.6,3.7c0.2,0,0.4-0.1,0.5-0.1c-0.1-0.4,0-0.8-0.3-1.1c-0.5-0.6-0.6-1.1-0.2-1.7
				c0.5-0.6,2.1-1.1,2.6-0.5c0.4,0.4,0.4,1.2,0.7,1.8c0.1,0.6,0.6,1.3,0.4,1.7c-0.5,1.5-1.9,0.9-2.8,1.1c-0.3,0.4-0.5,0.8-0.8,1
				c-1.9,1.3-3.4,3-4.5,5c-0.7,1.2-1.3,2.3-1.9,3.5c-1.2,2.4-3.3,3.9-5.3,5.6c-0.5,0.4-0.9,0.8-1.6,1.5c1.7,0.1,2.9,0.1,4.4,0.2
				c-0.4-0.9,0.7-1.7-0.3-2.4c0,0,0.2-0.6,0.4-0.7c0.3-0.2,0.7-0.3,1.3-0.5c0,0.5,0.1,0.9,0,1.3c-0.1,0.6-0.4,1.1-0.4,1.7
				c0,0.3,0.2,0.5,0.4,0.8c0.1,0,0.2-0.1,0.4-0.1c-0.3-1.2-0.2-2.4,1-3c0.5-0.2,1.3,0.2,2,0.4c0.7,0.1,1.6,0,1.9,0.4
				c0.9,1.2,0.1,2.2-0.5,3.1c1.7,0.9,3.3,1.6,4.8,2.5c1.5,1,2.8,2.2,4.3,3.4C143.8,84.1,144.1,83.9,144.5,83.6L144.5,83.6z
				 M38.5,16.7c-0.5,0-1.1-0.1-1.6,0c-0.3,0-0.7,0.3-0.8,0.5c-0.8,2.1,0.6,5.4,2.7,6.3c0.8,0.3,1.7,0.5,2.5,0.5
				c3.7,0,5.9-1.1,5.9-5.1c0-2.5-0.6-4.8-3-6.2c-0.9-0.5-1.6-1.1-2.5-1.6c-0.8-0.5-1.2-1.3-1.1-2.2c0.1-0.4,0.4-0.8,0.7-1.2
				c0.2,0.4,0.5,0.7,0.7,1.2c0.1,0.2,0,0.5,0,0.7c0,0.7,0.2,1,0.9,1c1,0,2,0,2.9,0c0.3,0,0.8-0.3,0.8-0.5c0-1.5,0.3-3.2-1.1-4.4
				c-1.7-1.6-6.2-1.9-8.1-0.5c-0.4,0.3-0.7,0.6-1,1c-1.6,2.2-0.8,6.5,1.4,8.1c1,0.7,2,1.5,3.1,2.1c0.9,0.6,1.3,1.4,1.2,2.4
				c0,0.7,0.2,1.6-0.8,1.7c-1,0-0.8-0.9-0.8-1.6C40.8,16.7,40.8,16.7,38.5,16.7L38.5,16.7z M98.8,77.2c0,0,0,0.1,0,0.1
				c0.7-0.1,1.7,0.1,2.1-0.3c2-1.9,3.7-4,4.3-6.9c0.4-2.5-1.5-6.6-3.8-7.4c-3.8-1.3-7.1-0.5-10,2.3c-0.5,0.5-0.6,1.1-0.3,1.9
				c0.5,1.5,0.7,3.1,0.9,4.6c0.1,0.7,0.2,1.1,0.8,1.4c1.4,0.7,2.5,1.7,3,3.1c0.3,0.9,0.8,1.3,1.7,1.2C98,77.2,98.4,77.2,98.8,77.2
				L98.8,77.2z M64.8,142.9c0-0.8,0-1.5,0-2.1c-0.1-0.9,0.2-1.3,1.2-1.2c1.9,0.1,1.9,0,1.9-1.9c0-2.2,0-2.3-2.2-2.4
				c-0.7,0-0.9-0.2-0.9-0.9c0-0.4,0-0.7,0-1.1c-0.1-0.7,0.2-0.9,0.9-0.9c2.5-0.1,2.5-0.1,2.4-2.6c0-0.3,0-0.5,0-0.8
				c0-0.8-0.4-1-1.1-1c-2.1,0-4.2,0.1-6.3,0c-1.2,0-1.4,0.5-1.4,1.5c0,5.6,0,11.3,0,16.9c0,0.8,0.3,1.1,1,1c1.6,0,3.2,0,4.8,0
				c3.9-0.1,3.2,0.7,3.3-3.5c0-0.7-0.3-1-1-1C66.5,142.9,65.8,142.9,64.8,142.9L64.8,142.9z M158.8,139.6c0.9,0,1.8,0.3,2.4-0.1
				c0.5-0.3,0.6-1.3,0.7-1.9c0-0.7-0.1-1.9-0.5-2.1c-0.6-0.4-1.7-0.1-2.5-0.1c0-0.6-0.1-1-0.1-1.4c0-0.4,0-0.8,0-1.2
				c0.2-0.1,0.3-0.1,0.4-0.1c0.9-0.1,2.3,0,2.7-0.5c0.5-0.7,0.2-1.9,0.2-2.9c0.1-0.9-0.3-1.1-1.2-1.1c-2,0.1-4,0-6,0
				c-1.6,0-1.7,0-1.7,1.7c0,5.5,0.1,11,0,16.5c0,1.1,0.4,1.3,1.3,1.3c2.1,0,4.1,0,6.2,0c1.6,0,1.6,0,1.6-1.6c0-0.6,0-1.1,0.1-1.7
				c0.1-0.9-0.2-1.2-1.1-1.2c-0.8,0-1.6,0-2.4,0C158.8,141.7,158.8,140.7,158.8,139.6L158.8,139.6z M111.4,23.6c0-1.9,0-3.6,0-5.3
				c0-2.1,0-2.1,2.1-2.2c2.3-0.1,3.5-1.3,3.5-3.6c0-1.4,0-2.7,0-4.1c-0.1-1.9-1.1-3.1-3-3.3c-1.7-0.2-3.4-0.2-5.2-0.3
				c-0.8,0-1.6,0-2.4,0c0,6.4,0,12.6,0,18.9c1,0,2,0,2.9,0C110,23.6,110.6,23.6,111.4,23.6L111.4,23.6z M97,132.5
				c-0.1,0-0.2,0-0.3,0c-0.1-0.3-0.1-0.6-0.2-0.9c-0.2-1.1-0.1-2.6-0.8-3.2c-0.6-0.6-2.1-0.2-3.1-0.3c-0.2,0-0.4,0-0.6,0
				c-1-0.1-1.3,0.3-1,1.3c0.6,1.9,1.1,3.8,1.6,5.7c0.9,3.1,1.8,6.2,1.5,9.6c-0.3,2.8,0,2.8,2.8,2.8c2.6-0.1,2.3,0.5,2.5-2.6
				c0.1-1.9,0-3.9,0.4-5.8c0.7-3.2,1.8-6.4,2.8-9.6c0.4-1.2,0.3-1.4-1-1.4c-0.9,0-1.9,0-2.8,0c-0.8-0.1-1.1,0.3-1.2,1
				C97.5,130.2,97.3,131.3,97,132.5L97,132.5z M168.7,132.5c-0.1,0-0.2,0-0.3,0c-0.2-1.2-0.4-2.5-0.7-3.7c-0.1-0.3-0.6-0.7-0.9-0.8
				c-1.1-0.1-2.1,0-3.2,0c-0.9,0-1.1,0.3-0.9,1.1c0.5,1.9,1.2,3.7,1.6,5.6c0.6,2.6,1.9,5,1.6,7.7c-0.1,1.3,0,2.6-0.1,3.8
				c0,0.8,0.3,1.1,1.1,1.1c0.9,0,1.7,0,2.6,0c1.3,0,1.7-0.5,1.6-1.8c-0.2-2.6-0.2-5.2,0.6-7.8c0.9-2.8,1.7-5.7,2.5-8.6
				c0.2-0.6,0.4-1.2-0.6-1.2c-1.4,0-2.7,0-4.1,0C169.3,129.6,169,131,168.7,132.5L168.7,132.5z M161.3,88.7c0.2,0.4,0.5,0.9,0.7,1.3
				c0.5,1.9,0.1,3.7-2.9,4.8c-0.3,0.1-0.6,0.5-0.6,0.7c0,0.3,0.3,0.6,0.5,0.9c0.1,0.1,0.4,0.1,0.7,0.2c2.7,0.5,5.4,0.6,7.9-0.4
				c3-1.1,5.7-2.7,6.8-6.2c0.9-3,0.6-5.4-1.8-7.5c-0.8-0.7-1.5-1.2-2.5-0.2c-0.4,0.5-1.1,0.7-1.6,1.2c-0.3,0.2-0.6,0.6-0.5,0.8
				c0.2,2.1-1.3,2.8-2.9,3.4C163.9,88.1,162.6,88.4,161.3,88.7L161.3,88.7z M23.6,132.6c0,0.4,0.1,0.7,0.1,1c0,4.2,0,8.4,0,12.6
				c0,0.9,0.3,1.3,1.2,1.3c1-0.1,2,0,2.9,0c1.1,0,1.4-0.4,1.4-1.4c0-4.1,0-8.1,0-12.2c0-0.4,0-0.8,0-1.1c2.9-0.4,2.9-0.4,2.8-3.4
				c0,0,0-0.1,0-0.1c0.1-0.9-0.4-1.2-1.3-1.2c-2.4,0-4.9,0-7.3,0c-3.2,0-2.6-0.4-2.8,2.7c-0.1,1.6,0.1,1.7,1.7,1.7
				C22.8,132.5,23.2,132.6,23.6,132.6L23.6,132.6z M173.4,93.3c-0.4,0.4-0.8,0.7-1.1,1c-3,2.5-6.6,3.5-10.5,3.2
				c-1.5-0.1-2.6,0.3-3.7,1.2c-2.1,1.7-2.3,3.6-0.5,5.1c1.6,1.3,3.5,1.7,5.5,1.6c4-0.1,7.2-1.9,9.9-4.8
				C174.5,98.9,174.8,95.2,173.4,93.3L173.4,93.3z M78.6,16.2C78.6,16.2,78.6,16.2,78.6,16.2c0,2.2,0.1,4.3,0,6.5
				c0,0.7,0.2,1,0.9,0.9c0.9,0,1.8-0.1,2.7,0c1,0.1,1.3-0.3,1.3-1.3c0-4.2,0-8.4,0-12.6c0-0.6,0.1-1,0.9-1c2-0.1,2-0.1,2-2.2
				c0-0.2,0-0.5,0-0.7c0.1-0.8-0.3-1.1-1.1-1.1c-2.9,0-5.7,0-8.6,0c-0.9,0-1.3,0.3-1.2,1.2c0,0.3,0,0.6,0,0.9c0,1.8,0,1.9,1.8,1.8
				c0.9,0,1.2,0.3,1.1,1.2C78.5,11.9,78.6,14,78.6,16.2L78.6,16.2z M178.2,128.1c-0.6,0-1.3,0-1.9,0c-0.7,0-1,0.1-1,1
				c0.3,3.5,0.4,7.1,0.6,10.7c0,1.1,0,2.3,0,3.4c0,1.3-0.1,2.6-0.1,3.9c0,0.1,0.5,0.4,0.8,0.4c1.1,0.1,2.2,0.1,3.3,0.1
				c0.8,0,0.8-0.5,0.9-1.2c0.3-2.1-0.7-4-0.4-6.2c0.4-3,0.4-6.1,0.5-9.2C181.2,127.8,181.6,128,178.2,128.1L178.2,128.1z
				 M173.8,100.7c-0.4,0.4-0.7,0.7-1,0.9c-3.5,3.2-7.4,5-12.3,4.1c-0.8-0.1-1.2,0.2-1.3,0.9c0,0.6,0,1.2,0.1,1.7
				c0.2,1.1,0.9,1.7,2,1.9c1.9,0.3,3.7,1,5.6,1c3.6,0,5.7-2.4,7.4-5.3C175.4,104.2,175,102.5,173.8,100.7L173.8,100.7z M74.3,93.6
				c-1.4,0.2-2.8,0.3-4.2,0.6c-0.3,0.1-0.6,0.4-0.9,0.7c0.3,0.4,0.6,0.9,1,1.1c0.5,0.1,1.2,0,1.7-0.2c0.6-0.2,1-0.2,1.4,0.4
				c1,1.3,2.4,1.8,4.1,1.3c0.4-0.1,1,0,1.3,0.2c1.3,1,2.7,1.3,4.3,0.7c0.3-0.1,0.9,0.1,1.2,0.3c0.8,0.5,1.6,1.2,2.5,0.6
				c0.8-0.5,1.5-0.3,2.3,0c0.5,0.2,1.1,0.3,1.6,0.4c0.3,0,0.7-0.1,1-0.2c-0.2-0.3-0.3-0.7-0.6-0.9c-1.1-0.6-2.2-1.1-3.3-1.5
				C83.4,95.1,79,93.7,74.3,93.6L74.3,93.6z M186.2,68.2c-0.4,0.1-0.8,0.2-1.1,0.3c-1.7,0.6-3.1,1.5-3.4,3.3c-0.2,1.4-1,1.8-2.1,2.3
				c-4.7,2.1-9.1,4.6-12.3,8.6c-0.9,1.1-1.7,2.4-1.9,4c1.5-0.4,1.9-1,1.9-2.3c0-0.4,0.3-1,0.7-1.3c0.7-0.6,1.6-1,2.2-1.7
				c1.7-1.7,3.7-2.9,5.8-4c4.1-2.1,8.6-3.1,13.2-3.5c0.9-0.1,1.3-0.4,0.9-1.3c-0.1-0.4-0.3-0.8-0.4-1.2c-0.1,0.1-0.1,0.2-0.2,0.3
				c-0.5-0.1-1-0.3-1.5-0.4c-0.1,1.4-0.3,1.5-1.9,1.5c-0.3,0.7-0.7,1.4-1.6,1c-0.6-0.3-1.2-0.8-1.7-1.4c-0.3-0.4-0.6-1.2-0.4-1.5
				c0.2-0.3,1-0.4,1.7-0.6c0.5-1.6,1.7-0.7,2.8-0.4c-0.3-0.4-0.4-0.7-0.7-1.1c1.1-0.5,1.3,0.5,1.9,0.8c0.2,0.1,0.5,0.1,0.8,0.2
				c0-0.3,0.1-0.6,0-0.8c-1.2-1.9-2.6-3.7-4.5-5c-0.2-0.1-0.5-0.1-0.7-0.2c0,0.2,0,0.5,0.1,0.7C184.6,65.8,185.4,66.9,186.2,68.2
				L186.2,68.2z M148.2,52.4c0.3-1.3,1.4-0.9,2.3-1c4.6-0.1,9.2-0.2,13.8-0.3c0.6,0,0.9,0,0.9,0.7c0,0.2,0.3,0.6,0.4,0.7
				c0.8,0,1.7,0.1,2.2-0.2c1.5-0.9,1.3,0.4,1.7,0.9c0,0.1-0.1,0.3-0.1,0.4c-1.2-0.1-2.3-0.3-3.5-0.4c0,0.1-0.1,0.2-0.1,0.3
				c0.2,0.1,0.4,0.4,0.6,0.4c0.2,0,0.5-0.1,0.7-0.1c0.7,0.2,1.4,0.4,1.9,0.9c0.2,0.2-0.3,1-0.3,1.6c0,0.2,0.1,0.5,0.1,0.8
				c0.1,0,0.2,0,0.3,0c0.8-1.9,1.7-3.8,2.4-5.6c-1.2-0.2-2.3-0.2-3.4-0.5c-1.2-0.3-2.2-1-3.4-1.2c-1.7-0.3-3.5-0.7-5.1-0.3
				c-4.3,1.1-8.5,1.4-12.9,0.7c-1.3-0.2-2.6-0.4-4-0.6c0,0.5,0,0.7,0,1c-0.2,1.2,0.3,1.5,1.4,1.5C145.6,51.9,146.8,52.2,148.2,52.4
				L148.2,52.4z M162.5,87.7c0.1-0.9,0.2-1.8,0.3-2.7c0.5-3.3,1.7-6.3,3.3-9.2c2.1-3.5,3.9-7.1,6.2-10.5c2.1-3.1,4.6-5.8,6.9-8.7
				c1-1.2,0.9-1.9-0.5-2.7c-0.3-0.2-0.7-0.4-1.1-0.4c-2.1,0-4.2,0-6.3,0c-0.1,0.1-0.1,0.2-0.2,0.3c0.6,0.4,1.1,0.9,1.8,1.4
				c-0.1,0.3-0.3,0.8-0.5,1.2c-0.2,0.4-0.3,0.9-0.6,1.5c0.6-0.2,1-0.3,1.4-0.4c-0.4-1.5,0.7-1.6,1.7-1.9c-0.2-0.3-0.4-0.5-0.7-0.9
				c0.4-0.1,0.6-0.2,0.9-0.2c0.7,0,1.5,0.1,2.2,0.2c0.3,0,0.6,0.3,0.8,0.6c0.1,0.2,0.2,0.7,0,0.8c-0.1,0.2-0.5,0.1-0.9,0.1
				c-0.2,0-0.4-0.1-0.7-0.2c1,1.3,1,1.3-0.3,2.3c-0.1,0.1-0.2,0.3-0.2,0.4c-0.2,1.1-0.8,1.6-1.9,1.3c-0.8-0.2-1.6-0.6-2.7-1
				c0.2,0.8,0.4,1.5,0.4,2.2c0.1,0.5,0.2,1.1,0,1.5c-0.8,1.6-1.7,3.2-2.6,4.8c-1.3,2.5-2.8,4.9-3.9,7.5c-1.5,3.3-2.6,6.8-3.9,10.2
				C161.3,86.3,161.7,87,162.5,87.7L162.5,87.7z M150.6,115.7c1.3,0.2,2.3,0,3,0.5c2.4,1.5,5,1.6,7.7,1.5c2.7-0.1,5.5-0.4,8.2-0.5
				c0.9,0,1.2-0.3,1.2-1.2c0-1.1,0.2-2.2,0.2-3.3c0-0.6-0.1-1.1-0.1-1.7c-0.1,0-0.2,0-0.4-0.1c-0.1,0.3-0.2,0.5-0.3,0.8
				c0,0.2,0.2,0.4,0.2,0.5c-0.4,1.1,0.1,2.2,0,3.2c-0.1,0.4-0.3,1.2-0.6,1.2c-0.6,0.1-1.4,0-2-0.2c-0.2-0.1-0.2-0.8-0.3-1.3
				c0-0.3,0-0.6,0-0.9c-0.1,0-0.2,0-0.4,0c0,0.3-0.2,0.7-0.1,1c0.1,0.7-0.3,0.9-0.8,1c-3.2,0.6-6.3,0.3-9.2-1
				c-2-0.9-3.8-1.3-5.9,0.3c0.3-1.3,0.6-2.2,0.7-3.2c0.3-2-0.1-2.7-1.9-3.5c-0.3-0.1-0.7-0.7-0.7-1.1c0.1-1.1,0.4-2.1,0.5-3.2
				c0.3-3.1,0.5-6.2,0.7-9.2c0-0.3-0.3-0.7-0.5-1.1c-0.1,0-0.3,0.1-0.4,0.1c0,5.7,0.1,11.3-1.5,16.7c1,0.6,2.4-1.2,2.8,0.9
				c-0.2,0.1-0.4,0.3-0.6,0.4c0.2,0.4,0.5,0.8,0.6,1.2C150.8,114.4,150.7,115.2,150.6,115.7L150.6,115.7z M163.3,87.3
				c0.8,0.1,1.4,0.1,1.4-0.9c-0.1-2,0.7-3.8,1.6-5.4c2.7-5.2,7-9,11.2-12.9c0.9-0.8,1.9-1.6,2.8-2.4c-1.9,0.1-2.8-1.2-3.9-2.1
				c-0.1,0.2-0.2,0.3-0.2,0.4c0,0.7-0.2,1.5-0.1,2.2c0.1,0.8-0.2,1.3-0.7,1.8c-4.1,3.7-7.7,7.9-10.2,12.9
				C164.1,82.9,163.1,84.9,163.3,87.3L163.3,87.3z M149.9,122.9c0.8,0.1,1.6,0.2,2.4,0.2c3.4-0.1,6.8-0.2,10.2-0.5
				c4.2-0.4,8.4-1.1,12.4-2.5c0.8-0.3,1.2-0.8,1.1-1.6c-0.4-2.5-1.4-4.7-2.7-6.9c0,0.9,0.3,1.7,0.6,2.6c0.4,1.5,1.4,2.9,1.1,4.3
				c-1,0.4-1.7,0.8-2.4,1.1c-1.2,0.5-2.4,1.3-3.6,1.6c-5.6,1.3-11.2,1.5-16.8,0c-1.8-0.5-1.8-0.4-2.1,1.4
				C149.8,122.7,149.9,122.8,149.9,122.9L149.9,122.9z M152.4,120.5c0.2,0.1,0.4,0.2,0.5,0.3c6,1.3,12,1.1,17.8-0.9
				c1.3-0.4,2-1.2,1.9-2.7c-0.2-2.3-0.2-4.7-0.3-7.1c-0.2,0-0.3,0-0.5,0c0,0.4-0.1,0.7-0.1,1.1c-0.1,1.4-0.1,2.8-0.2,4.2
				c0,0.5-0.2,1.1,0,1.5c0.6,1.1-0.1,1.3-0.9,1.6c-3.9,1.3-7.9,2-12,2.2c-1.9,0.1-3.8,0.4-5.6-0.5
				C152.9,120.1,152.7,120.3,152.4,120.5L152.4,120.5z M161.6,78.1c2.3-6.5,4.5-13,6.8-19.4c-0.9-0.2-1.9-0.4-2.8-0.6
				c-0.8,1.6,1.1,1.6,1.5,2.6C164.6,66.3,162.7,72,161.6,78.1L161.6,78.1z M148.3,112.4c-0.9,0-2.7,3.9-2.7,5.7
				c1.3,0.1,2.3-0.4,3.1-1.4C147.5,115.8,147.3,113.8,148.3,112.4L148.3,112.4z M58,141.2c0-2.8,0-5.5,0-8.3
				C56.1,135.7,56.5,138.4,58,141.2z M161.6,78.5c-0.1,0-0.2-0.1-0.3-0.1c-0.2,0.8-0.5,1.7-0.6,2.5c-0.3,2.1-0.4,4.2-0.6,6.4
				c0,0.2,0.4,0.4,0.6,0.7c0.1-0.3,0.3-0.6,0.3-0.8c0-1.7-0.1-3.4,0-5.1C161.1,80.8,161.4,79.7,161.6,78.5z M148.6,119.9
				c0.5,0.1,1,0.1,1.5,0.2c0.1-1.1,0.3-2,0.4-3.1C148.7,117.5,148.6,117.6,148.6,119.9z M48.1,11.3c-1,0.3-1.8,0.5-2.4,0.6
				c0.6,0.7,1.3,1.5,1.9,2.3c0.1,0,0.2-0.1,0.4-0.1C48,13.2,48,12.2,48.1,11.3L48.1,11.3z M98.7,28.2c0.1,0,0.2,0,0.3,0
				c0-0.5,0-1,0-1.5c0-1.6-0.1-1.6-1.9-1.3C97.6,26.3,98.1,27.2,98.7,28.2L98.7,28.2z" class="fillable"/>
			<path  d="M148.5,24.1c-1.4,0.9-5.3,1-6.4,0.2c-1.2,0.2-2.1,0.4-3,0.4c-2.7,0-5.3,0-8,0c-0.6,0-1.2-0.2-1.8-0.3
				c-0.2,0-0.4-0.1-0.6-0.1c-1.9,0.1-3.8,0.3-5.7,0.4c-1,0-1.6-0.7-1.5-1.7c0.8-5.7,1.5-11.3,2.3-17c0.4-2.6,0.4-2.5,3.1-2.5
				c1.5,0,3.1,0.1,4.6,0c1.2,0,1.8,0.5,2,1.6c0.4,2.5,0.8,5,1.2,7.5c0.1,0.5,0.1,1,0.2,1.5c0.1,0,0.2,0,0.3,0c0-0.9,0-1.8,0-2.7
				c0-2,0-3.9,0-5.9c0-1.7,0.4-2.1,2-2.1c0.8,0,1.7-0.1,2.5,0c0.8,0.1,1.5,0.4,2.5,0.7c1-1,4.9-1.1,6.2-0.1c1-0.2,1.8-0.5,2.6-0.5
				c2.3,0,4.5,0.1,6.8,0.2c3,0.2,4.7,2.6,4.7,5.4c0,3.6,0,7.3-0.1,10.9c-0.1,3.1-1.5,4.4-4.5,4.6c-2.5,0.1-5.1,0.1-7.6,0
				C149.6,24.7,149.1,24.3,148.5,24.1L148.5,24.1z M149.7,14.1C149.7,14.1,149.8,14.1,149.7,14.1c0,2.8,0,5.5,0,8.3
				c0,0.6,0,1.2,0.9,1.2c2.5,0,4.9,0,7.4-0.1c1.9-0.1,3-1.2,3-3c0.1-3.9,0.1-7.9,0-11.9c0-2.3-1.2-3.5-3.6-3.7
				c-2.2-0.2-4.5-0.1-6.7-0.2c-0.9,0-1.1,0.3-1.1,1.2C149.8,8.6,149.7,11.3,149.7,14.1L149.7,14.1z M140.6,16.7c0.1,0,0.2,0,0.3-0.1
				c0.4,1.2,0.7,2.4,1.1,3.6c0.9,3.4,0.9,3.4,4.4,3.3c0.8,0,1.1-0.2,1.1-1.1c0-5,0-10,0-15.1c0-2.8,0-2.7-2.9-2.8
				c-1.2,0-1.6,0.4-1.5,1.5c0.1,1.7,0,3.4,0,5.1c-0.7-1.2-1.1-2.4-1.5-3.7c-0.9-2.9-0.9-2.9-3.9-2.9c-1,0-1.3,0.3-1.3,1.3
				c0,4.8,0,9.6,0,14.5c0,3.3,0,3.3,3.3,3.2c0.8,0,1-0.3,1-1.1C140.6,20.6,140.6,18.7,140.6,16.7L140.6,16.7z M134.9,23.6
				c0-0.4,0.1-0.5,0.1-0.6c-0.9-5.9-1.7-11.8-2.7-17.6c0-0.3-0.6-0.6-1-0.7c-1.4-0.1-2.9,0-4.3,0c-2,0-2,0-2.2,2
				c-0.6,4.5-1.2,9.1-1.8,13.6c-0.1,1.1-0.2,2.1-0.3,3.3c1.4,0,2.7,0,4,0c0.9,0,1.3-0.2,1.3-1.2c0-0.5,0-1.1,0.1-1.5
				c0.1-0.3,0.6-0.7,0.8-0.6c0.3,0,0.7,0.4,0.8,0.7c0.2,0.5,0.1,1.2,0.2,1.7c0.1,0.3,0.4,0.8,0.6,0.8
				C132,23.6,133.4,23.6,134.9,23.6L134.9,23.6z" class="fillable"/>
			<path  d="M182.2,62.5c-0.8-0.6-1.5-1.2-2.2-1.8c0.1-0.2,0.2-0.3,0.3-0.5c0.3,0,0.7,0,1,0.1c0.7,0.2,1.3,0.5,1.9,0.8
				c1,0.5,0.6,1.3,0.4,2C183.1,62.8,182.7,62.6,182.2,62.5L182.2,62.5z" class="fillable"/>
			<path  d="M59.9,79c-1.3,0.1-2.7-0.7-3.1-2c-0.3-1.2-0.3-2.5-0.4-3.8c-0.2,0-0.6,0.1-1.1,0.2c0.6-1,2.1-1.4,3.7-1.1
				c1.1,0.3,1.9,1.1,2.1,2.5c-0.4-0.5-0.6-0.9-0.9-1.1c-0.7-0.4-1.4-0.8-2.1-0.9c-0.2,0-0.7,0.9-0.8,1.5c-0.4,1.5,0.1,2.8,1.3,3.7
				C58.9,78.3,59.3,78.6,59.9,79z" class="fillable"/>
			<path  d="M82.9,70.5c-0.8,0-1.6-0.7-1.6-1.5c0-0.8,0.9-1.7,1.6-1.6c0.8,0,1.6,0.8,1.6,1.6C84.5,69.7,83.7,70.5,82.9,70.5
				L82.9,70.5z" class="fillable"/>
			<path  d="M131.7,131.3c0.4,0.4,0.6,0.6,0.6,0.7c0,3.8,0,7.5,0,11.3c0,0.3-0.2,0.5-0.3,0.7c-0.1-0.1-0.2-0.2-0.4-0.3
				C131.7,139.8,131.7,135.7,131.7,131.3L131.7,131.3z" class="fillable"/>
			<path  d="M38.6,137.1c0.1,0.7,0.3,1.5,0.3,2.2c0,0.2-0.2,0.5-0.4,0.7c-0.1-0.2-0.4-0.4-0.4-0.6c0-0.8,0.1-1.5,0.2-2.3
				C38.5,137.1,38.5,137.1,38.6,137.1L38.6,137.1z" class="fillable"/>
			<path  d="M163.2,54.4c0.2,0.2,0.6,0.6,1,1c0,0.1-0.1,0.2-0.1,0.4c-1,0-1.9,0.1-2.9,0.1c-0.2,0-0.4-0.3-0.5-0.5
				c0.2-0.1,0.4-0.4,0.6-0.4C161.8,54.8,162.3,54.6,163.2,54.4L163.2,54.4z" class="fillable"/>
			<path  d="M138.9,53.4c0.4,0.3,0.9,0.7,1.6,1.2c-1.3,0.4-2.2,0.7-3.1,0.9c-0.1,0-0.4-0.2-0.5-0.3c0.1-0.2,0.2-0.5,0.4-0.6
				c0.5-0.3,1.1-0.6,1.6-0.9C138.8,53.7,138.9,53.6,138.9,53.4L138.9,53.4z" class="fillable"/>
			<path  d="M101.4,66.6c0.7,0.1,1.3,0.5,1.3,1.5c0,1-0.6,1.6-1.6,1.6c-1,0-1.4-0.6-1.5-1.5C99.5,67.4,100.3,66.6,101.4,66.6z" class="fillable"/>
			<path  d="M112.9,10.4c0,0.5,0,1.1-0.1,1.5c-0.1,0.3-0.6,0.5-0.9,0.7c-0.1-0.3-0.4-0.5-0.4-0.8c0-0.9-0.1-1.9,0-2.8
				c0-0.3,0.3-0.6,0.5-0.8c0.3,0.3,0.7,0.5,0.8,0.8C112.9,9.4,112.8,9.9,112.9,10.4C112.8,10.4,112.8,10.4,112.9,10.4L112.9,10.4z"
				 class="fillable"/>
			<path  d="M154.8,14.2c0-1.7,0-3.5,0-5.2c0-0.3,0.3-0.6,0.4-0.9c0.3,0.2,0.7,0.4,0.8,0.8c0.2,0.4,0.2,0.8,0.2,1.3
				c0,2.9,0,5.7,0,8.6c0,0.3,0,0.6-0.2,0.8c-0.2,0.2-0.5,0.4-0.8,0.5c-0.1-0.3-0.4-0.5-0.4-0.8C154.8,17.6,154.8,15.9,154.8,14.2
				C154.8,14.2,154.8,14.2,154.8,14.2L154.8,14.2z" class="fillable"/>
			<path  d="M129.5,16.6c-0.6,0-0.9,0-1.5,0c0.2-1.7,0.4-3.3,0.5-5c0.1,0,0.2,0,0.3,0C129.1,13.2,129.3,14.8,129.5,16.6z" class="fillable"/>
		</g>
	</g>
</g>
</svg>
