<?xml version="1.0" encoding="utf-8"?>
<!-- Generator: Adobe Illustrator 24.0.2, SVG Export Plug-In . SVG Version: 6.00 Build 0)  -->
<svg version="1.1" id="Слой_1" xmlns="http://www.w3.org/2000/svg" xmlns:xlink="http://www.w3.org/1999/xlink" x="0px" y="0px"
	 viewBox="0 0 238.1 150.2" style="enable-background:new 0 0 238.1 150.2;" xml:space="preserve">
<g>
	<path class="st0"  d="M223.4,113.8c-9.2-10.2-20.5-16-34.2-17.5c11.9,5.3,21.1,13.3,25.9,26c-1.1-0.1-1.9-0.1-2.7-0.2c-2-0.2-4-0.4-5.9-0.5
		c-2.4-0.1-4.9-0.2-7.3-0.2c-3.7,0.1-7.3,0.4-10.8,1.8c-2.4,0.9-4.5,2.1-6.4,3.8c-2,1.7-3.7,3.5-5.1,5.8c-0.6,1-1.1,2-1.6,3
		c-0.5-2-1.1-4-1.7-6c-1-3.2-2.6-6.1-4.3-8.9c-1.8-2.9-4-5.5-6.6-7.8c-2.7-2.4-5.6-4.5-8.9-6c-3.4-1.5-6.9-2.9-10.4-4.3
		c-0.5-0.2-0.8,0.1-0.9,0.4c-0.8,1.8-1.7,3.6-2.3,5.5c-0.7,2.3-1.2,4.6-1.7,6.9c-0.3,1.6-0.5,3.3-0.5,4.9c-0.2,4.3-0.3,8.6-0.4,12.8
		c0,2.4,0.1,4.8,0.2,7.3c0,0.2,0,0.4,0.2,0.4c-1.2-1.1-2.5-2.1-3.7-3.2c-3.1-2.8-6.3-5.5-9.9-7.7c-2.8-1.7-5.7-3.2-8.9-4
		c-2-0.4-3.9-0.8-5.9-0.9c-3-0.2-6.1-0.2-9.1-0.2c-1.3,0-2.7,0.2-4,0.3c-0.3,0-0.6,0.4-0.8,0.7c-2.3,4.2-4,8.6-5.4,13.2
		c-0.2,0.6-0.3,0.6-0.9,0.5c-6.4-1.7-12.8-3.3-19.2-4.9c-2.7-0.7-5.4-1-8.2-1c-1.5,0-2.9-0.2-4.4-0.1c-3,0.1-6,0.3-8.9,0.7
		c-3.3,0.4-6.6,0.9-10,1.3c4.3-8.8,9.8-16.9,16.4-24.2c-2.3,0.8-4.4,1.8-6.4,3.1c-2,1.3-3.9,2.7-5.8,4c-0.6-5.4-0.2-10.7,2.5-15.7
		c1.8-3.3,4.1-6.3,7.3-8.3c1.3-0.8,3-1.2,4.5-1.7c1.5-0.5,3-0.9,4.5-1.4c-0.9-0.6-1.7-1.1-2.4-1.6c-1.4-1-2.1-2.3-2.4-3.9
		c-0.6-3.1,0.3-5.9,1.5-8.7c1.7-4,4-7.7,6.7-11.1c2-2.5,4.1-4.9,6.7-6.8c2.1-1.6,4.2-3.2,6.4-4.6c2.6-1.6,5.4-2.5,8.5-2.9
		c3.4-0.4,6.5,0.2,9.6,1.6c3.3,1.5,5.5,3.9,6,7.5c0.3,2.2,0,4.3-0.4,6.4c-0.1,0.5-0.2,1-0.3,1.6c0.3,0,0.6,0,0.8,0
		c0.7-0.1,1.5-0.2,2.2-0.3c0.7,0,1.1-0.2,1.5-0.9c1.5-3.3,2.9-6.5,4.5-9.7c1.2-2.4,2.5-4.8,3.9-7.1c0.7-1.3,2.1-1.7,3.5-1.5
		c2.6,0.3,4.6,1.5,5.8,3.9c0.6,1.1,0.6,2.2-0.2,3.2c-2.5,3.3-4.2,7.1-6.1,10.8c-3.5,7.1-6.5,14.4-8.9,21.9c-0.1,0.3-0.2,0.7-0.3,1
		c0,0.1,0,0.3,0,0.5c0.5,0.1,1,0.3,1.6,0.4c1.4-2.6,2.9-5.1,4.1-7.7c1.3-2.7,2.3-5.6,3.5-8.4c0.7-1.6,1.6-3.1,3.5-3.6
		c2.6-0.7,5.1,0.5,6.6,3.1c0.8-1.8,1.7-3.5,2.3-5.2c1-2.6,3.2-3.4,5.6-2.9c1,0.2,1.9,0.7,3,1.1c0.7-1.7,2.3-2.3,4.3-2.3
		c-0.7-1.4-1.2-2.6-1.8-3.8c-0.2-0.3-0.7-0.5-1.1-0.6c-0.8-0.3-1.8-0.4-2.1-1.4c-0.2-0.7-0.2-1.2,0.3-1.7c1.1-1.1,2.4-2.1,4-2.4
		c1-0.2,2.1,0,3.2,0c1.5,0.1,2.8-0.3,4-1c1.4-0.7,2.6-0.1,2.5,1.4c0,1.7-0.1,3.4-0.2,5.2c0.4-0.1,0.9-0.1,1.4-0.2
		c2.2-0.9,4.1,0.8,4.7,2.5c0.3,0.7,0.6,1.5,1.1,2.1c0.8,1.1,1.4,0.7,2-0.2c0.4-0.6,0.5-1.3,1.4-1.3c0.1,0,0.2-0.2,0.3-0.3
		c0.1-0.1,0.1-0.2,0.1-0.2c0.4-0.9,0.7-1.8,1-2.8c-0.3,0.2-0.5,0.5-0.9,0.6c-1.6,0.9-2.3,0.8-3.9-0.4c-1.4-1.1-2.2-2.6-2.4-4.4
		c-0.2-2.5,0.5-3,2.3-3.9c1.8-0.9,3.7-1.7,5.7-2.5c1.2-0.5,2.4-0.8,3.7-1.2c0.9-0.3,1.5-0.7,1.9-1.6c0.7-1.5,1.6-2.9,2.5-4.4
		c1-1.6,2.5-2.4,4.3-2.6c1.9-0.2,3.7,0.2,5.3,1.4c1.5,1.2,1.8,3.1,0.7,4.8c-0.2,0.3-0.4,0.6-0.6,0.9c1,0.7,1.2,0.6,1.8-0.4
		c0.9-1.5,1.8-3,2.7-4.4c1.3-2,3.5-2.8,5.9-2c1,0.3,1.9,0.8,2.7,1.4c1.5,1.2,2.1,3.2,0.4,5.6c-1.9,2.6-3.7,5.3-5.3,8.1
		c-1.8,3.3-3.3,6.7-4.9,10.1c-0.1,0.2-0.1,0.4-0.1,0.4c1.5-2.7,3.1-5.5,4.9-8.3c1.2-1.9,2.7-3.7,4.5-5.2c2.4-2.1,5.1-2.4,7.9-1.1
		c1.2,0.6,2.4,1.1,3.5,1.8c1.5,1.1,1.6,2.8,1.3,4.5c-0.1,0.6-0.2,1.1-0.4,1.7c0.6,0.1,1.2,0.1,1.7,0.3c1.9,0.5,2.9,2.4,2.2,4.2
		c-1.1,2.6-2.3,5.1-3.5,7.6c-0.1,0.2-0.2,0.4-0.4,0.8c1,0.2,1.9,0.3,2.8,0.5c2.2,0.5,4.4,1,6.5,1.5c0.4,0.1,0.9,0.5,1.1,0.9
		c1.5,2.4,2.9,4.9,3.7,7.6c0.6,2.1,1,4.2,0.9,6.6c-6.3-3.7-13.1-5-20.3-4.6c1.2,0.2,2.5,0.5,3.7,0.7c2.6,0.5,5.2,1.1,7.7,1.6
		c1,0.2,2.1,0.5,3.1,0.9c2.2,0.9,3.5,2.8,4.9,4.6c1.7,2.3,3,4.8,3.7,7.6c1.1,4.3,0.7,8.5-1.1,12.6
		C223.8,113,223.6,113.4,223.4,113.8z M90.6,97.6c-0.3,0.2-0.6,0.4-1.1,0.7c0.9,0,1.5,0,2.1,0c-0.5,0.2-0.9,0.4-1.4,0.5
		c-1.7,0.3-2.9,1.2-3.6,2.8c-0.1,0.2-0.2,0.4-0.4,0.5c-0.5,0.4-0.4,0.7,0.2,0.9c1.6,0.7,3,1.7,4.1,3c0.9,1,1.7,2,2.6,3
		c1.1-1.3,2.1-2.7,3.2-4c-1.6,0.7-1.6,0.7-1.9,0.4c0.5-0.4,1.1-0.8,1.3-1.3c0.2-0.5,0-1.2-0.1-2c-0.9,0.6-1.6,1.1-2.2,1.6
		c-1,0.7-1,0.7-2-0.2c1.4-1.1,3-1.7,4.2-3c-1.2-0.1-2.5,0.4-3.5-0.7c0.2-0.8,0.8-1.2,1.4-1.5c0.6-0.2,1.3-0.3,1.9-0.6
		c0.2-0.1,0.5-0.3,0.5-0.5c0-0.2-0.2-0.5-0.4-0.6c-0.2-0.1-0.4-0.1-0.7-0.2c0,0.1-0.1,0.1-0.1,0.2c0.2,0.1,0.4,0.3,0.6,0.4
		c0,0,0,0.1-0.1,0.1c-0.5-0.1-0.9-0.3-1.4-0.4c0,0.1-0.1,0.1-0.1,0.2c0.2,0.1,0.4,0.3,0.6,0.5c-1,0.3-1.9,0.6-2.8,0.9
		C91.8,97.3,91,97.7,90.6,97.6c0.3-0.1,0.7-0.2,1.2-0.3c0-0.1,0-0.3-0.1-0.6c0.6,0,1.1,0,1.6,0c0-0.1,0-0.2,0-0.3
		c-1.2,0.2-2.4,0.4-3.6,0.5c0,0.1,0,0.3,0,0.4C90,97.4,90.3,97.5,90.6,97.6z M95,116.1c-0.4,1-0.8,1.9-1.2,2.9
		c0.1-0.5,0.3-1,0.5-1.6c-0.6-0.1-1.1-0.2-1.6-0.3c-0.2,0.4-0.4,0.7-0.5,1c-0.1,0.3-0.2,0.7-0.3,1.1c0.4,0,0.7,0.1,1.1,0
		c0.3,0,0.6-0.1,0.9-0.2c0,0.3-0.1,0.5-0.1,0.8c0,0,0.1,0,0.1,0c0.3-0.5,0.6-1,0.8-1.6c-0.1,0.5-0.3,1-0.4,1.5
		c-0.2,0.7,0,1.2,0.7,1.4c0.5,0.2,1.1,0.4,1.6,0.3c2.2-0.1,4.4-0.4,6.5-0.5c2.8,0,5.6,0.1,8.4,0.3c2.8,0.2,5.4,1,8,2
		c1.6,0.6,3.2,1.4,4.8,2c1.5,0.5,2.7,0.3,3.3-0.8c0.7,0.5,1.5,1,2.3,1.5c0-0.3,0.1-0.6,0.1-0.8c0.2-0.6,0.2-1-0.5-1.3
		c-0.8-0.3-1.4-0.9-2.1-1.3c0.3-0.7,0.6-0.2,0.9,0c1,0.6,1.6,0.5,2.1-0.3c-0.8-0.9-2.3-1.1-2.7-2.4c0.1-0.1,0.1-0.1,0.2-0.2
		c0.8,0.5,1.6,1,2.6,1.6c-0.1-0.6-0.2-1.1-0.4-1.5c1.2,1.3,1.1,2.9,0.1,3.6c0.2,0.5,0.5,1,0.5,1.4c0,0.7-0.1,1.4-0.2,2.1
		c-0.1,0.5,0,0.9,0.8,0.7c-0.5-1.2,0.6-2.5-0.3-3.7c0.9-0.6,1-1.1,0.3-2.7c-0.4-0.9-1.1-1.7-1.6-2.5c0.1,0,0.2,0,0.4,0
		c0.3-0.1,0.5-0.3,0.7-0.5c-0.1-0.2-0.3-0.4-0.4-0.6c-0.5-0.3-0.9-0.7-1.4-0.9c-0.6-0.3-0.6-0.3-0.3-1c0.8,0.4,1.5,0.8,2.5,1.4
		c-0.3-0.8-0.5-1.3-0.7-2c1.4,1.8,1.4,3,0.1,4.1c0.5,0,1.1,0,1.4-0.3c0.2-0.2,0.2-0.8,0.2-1.2c-0.2-1.7-1.2-2.8-2.6-3.6
		c-0.5-0.3-0.5-0.6-0.4-1c0.2-0.8,0.5-1.6,0.7-2.4c0.2-0.6,0.3-1.3,0.5-2c-0.6,0-1,0-1.4,0c1.3-0.2,2.7-0.3,4-0.5
		c3.8-0.6,4.2-4,3.3-7.1c0,0.7,0.1,1.2,0.1,1.6c-0.1,1,0,1.9-0.5,2.9c-0.9,1.7-2.5,2.4-4.2,2.5c-2.6,0.2-5.2,0.6-7.9,0.2
		c-2.3-0.3-4.5-0.3-6.8-0.4c-2.4-0.1-4.7-0.2-7.1-0.3c-0.8,0-1.6,0-2.3-0.2c-0.9-0.2-1.5,0.1-1.9,0.9c-0.9,1.6-1.9,3.1-2.6,4.8
		c-1,2.1-1.7,4.3-2.6,6.4c-0.1,0.3-0.3,0.6-0.5,0.7c-0.8,0.2-1.6,0.2-2.5,0.3c1.5-4.4,3.4-8.3,5.9-12.1c-0.7-0.2-1.2-0.1-1.6,0.5
		c-0.8,1.3-1.6,2.6-2.3,4c-1.1,2.3-2.1,4.7-3.2,7.1c-0.2,0.3-0.5,0.6-0.7,0.9c-0.1-0.1-0.1-0.1-0.2-0.2c1.5-4.4,3.6-8.5,6.3-12.3
		c-0.9-0.3-0.9-0.3-1.4,0.3c-0.3,0.4-0.6,0.8-1,1.2c0.1-0.5,0.1-1.1,0.2-1.7c-0.5,0-0.7,0.1-1.3,0.1c0.5,0.3,1.4,0.2,0.7,1
		c0-0.8-0.4-0.8-0.8-0.5c-0.5,0.3-1,0.7-1.4,1.1c0.6-0.9,1.2-1.8,1.8-2.7c-0.4-0.2-0.7-0.5-1-0.6c-0.2-0.1-0.7,0-0.8,0.1
		c-1.2,1.6-2.4,3.2-3.5,4.8c-2.1,3.2-3.8,6.6-5,10.3c-0.4,1.1-0.6,2.3-0.9,3.6c1.8-0.2,3.4-0.5,5-0.6c3.3-0.3,6.7-0.7,10-0.8
		c3.7-0.2,7.3-0.2,11,0.5c4.9,0.9,9.3,3,13.4,5.8c3.2,2.2,6.2,4.6,8.9,7.4c0.1,0.1,0.4,0.2,0.6,0.4c0-2.2,0-4.2,0-6.2
		c0.1-3.5,0.1-7,0.4-10.5c0.1-2.4,0.4-4.8,0.9-7.2c0.5-2.4,1.2-4.8,2-7.2c0.5-1.5,1.2-2.9,1.8-4.4c-0.7-0.2-1.3-0.3-2-0.6
		c-0.7-0.3-1,0-1.2,0.6c-0.5,1.3-1,2.5-1.4,3.8c-0.8,2.8-1.7,5.5-2.3,8.3c-0.5,2.3-0.8,4.7-1,7.1c-0.3,2.4-0.5,4.8-0.7,7.3
		c-0.1,1.5-0.1,1.6-1.6,1.5c0,0-0.1,0.1-0.3,0.2c0.7,0.1,1.3,0.1,1.8,0.2c0,0.5,0,0.9,0,1.5c-0.3-0.2-0.5-0.4-0.7-0.5
		c-0.8-0.7-1.6-1.4-2.5-2c-1.3-0.9-2.7-1.7-4.1-2.5c-3.4-2.1-7-3.8-10.9-4.5c-1.9-0.4-3.8-0.6-5.7-0.8c-1.8-0.2-3.6-0.3-5.4-0.2
		c-2.9,0.2-5.8,0.5-8.7,0.8c-0.9,0.1-1.8,0-2.7,0.1c-0.7,0.1-1.3,0.3-2.1,0.4c0.3-0.9,0.5-1.7,0.9-2.4c1.1-2.4,2.2-4.7,3.4-7
		c0.7-1.3,1.7-2.5,2.6-3.8c0.6,0.1,1.2,0.1,1.8,0.2c-0.1,0.3-0.3,0.7-0.5,1.1c0.3-0.2,0.5-0.4,0.7-0.5c-0.8,1.3-1.5,2.6-2.3,4
		c0.1-0.7,0.3-1.4,0.4-2.1c-1.2-0.1-2.3,0.8-2.8,2c0.6,0,1.2,0,1.9,0c-0.2,0.5-0.4,0.9-0.6,1.2c0,0,0.1,0,0.1,0
		c0.3-0.4,0.7-0.8,1-1.2c-0.6,1.3-1.3,2.6-1.9,3.9c0.2-0.5,0.4-1.1,0.6-1.7C95.2,116.5,95.1,116.3,95,116.1c0.1-0.3,0.2-0.6,0.4-1
		c-0.7,0-1.3,0-2,0c0,0.6-0.1,1.4,0.1,1.6C94,117.1,94.5,116.5,95,116.1C94.9,116.1,95,116.1,95,116.1z M196.9,106.3
		c-0.6-0.4-1.2-0.9-1.7-1.3c-0.1,0.1-0.1,0.1-0.2,0.2c0.9,0.8,1.7,1.6,2.6,2.4c0.1-0.1,0.1-0.1,0.2-0.2c-0.2-0.3-0.5-0.6-0.7-0.9
		c0.9,0.2,1.7,0.3,2.6,0.5c-0.4-0.6-0.9-1.1-1.4-1.5c-0.7-0.5-1.5-0.4-2.3-0.2C196.3,105.6,196.6,105.9,196.9,106.3z M52.2,122.7
		c0.2-0.3,0.5-0.6,0.6-1c0.1-0.2,0-0.4,0-0.7c-0.4-0.1-0.8-0.2-1.3-0.3c0,0.2,0.1,0.4,0.1,0.6c-0.9,0.1-1.4,1.1-1.2,2.3
		c0.5-0.3,1-0.5,1.5-0.8c-0.4,0.6-0.8,1.2-1.2,1.9c-0.2-0.8-0.7-0.2-1-0.2c-1.1,0-1.9,0.9-1.7,2.2c0.6-0.2,1.1-0.3,1.7-0.5
		c-0.2,0.4-0.3,0.7-0.6,1.2c0.4-0.3,0.5-0.4,0.7-0.6c-0.1,0.2-0.2,0.5-0.3,0.7c-0.5,0.9,0.2,1.8,0.9,2c0.4,0.1,0.8,0.2,1.1,0.2
		c3.5,0.1,6.9,0.1,10.4,0.2c2.5,0.1,4.9,0.3,7.3,0.7c3,0.4,6,1,9,1.4c1.3,0.2,2.6,0.3,3.5-0.9c-0.5-0.5-1-1.1-1.5-1.6
		c0.5-1.3,0.6-1.4,2-0.6c-0.4-0.1-0.8-0.2-1.1-0.2c-0.4,1.2-0.3,1.5,0.9,1.7c0.3,0.1,0.7,0.2,1,0.3c0.6,0.2,1.1,0.4,1.7,0.6
		c0.2-0.6,0.3-1,0.5-1.5c-0.4-0.1-0.8-0.2-1.1-0.4c0.2-0.1,0.3-0.1,0.5-0.2c-0.5-0.2-0.9-0.3-1.3-0.5c1.4,0.1,2.1,0.1,2.7-0.7
		c-0.6-0.8-2-0.3-2.4-1.7c0.7,0.2,1.2,0.3,1.8,0.4c0-0.4,0.2-0.9,0.1-1.1c-0.3-0.3-0.8-0.5-1.4-0.9c0.7,0,1.2,0.1,1.7,0.1
		c0.1-0.8,0.1-0.8-0.4-1.5c-0.1-0.1,0-0.4,0-0.6c0,0,0.1,0,0.1,0c0.3,0.1,0.5,0.1,0.9,0.2c0.1-0.5,0.3-1.1,0.1-1.5
		c-0.3-0.5-0.1-0.7,0.1-1c0.5-1,1-2,1.6-3.1c-1.4-0.1-2.7-0.2-4-0.3c-1.5-0.1-2.9-0.1-4.4-0.4c-2.2-0.3-4.3-0.8-6.5-1.1
		c-0.3-0.1-0.7,0-1,0.1c-0.7,0.3-1.4,0.7-2.1,1.1c-2.6,1.4-5.3,2.7-8.4,2.5c-0.3,0-0.8,0.2-1,0.4c-1.5,2.2-3.1,4.4-4.5,6.7
		c-1.1,1.7-1.4,1.7-3.7,1.5c2.1-3.1,4.2-6.1,6.3-9.1c-0.5-0.5-0.8-0.5-1.2,0c-2,3-4.1,5.9-6.1,8.8c-0.2,0.3-0.5,0.4-0.7,0.6
		c-0.1-0.1-0.1-0.1-0.2-0.2c0.6-1,1.2-2,1.9-2.9c1.5-2.1,3-4.3,4.5-6.4c0.6-0.9,0.7-0.9-0.2-1.5c-0.1,0.1-0.2,0.2-0.3,0.3
		c-0.8,1-1.6,2-2.4,3.1c0.2-0.3,0.4-0.6,0.5-0.9c0.3-0.6,0.5-1.3,0.8-2.1c-0.7,0-1.2,0.1-1.7,0.1c0,0.1,0,0.1,0,0.2
		c0.3,0,0.6,0.1,1.1,0.2c-0.2,0.5-0.4,1-0.6,1.5c-0.1-0.2,0-0.4,0-0.6c0.1-0.3,0.1-0.5,0.1-0.8c-0.3,0-0.7-0.1-0.9,0.1
		c-0.6,0.4-1.1,1-1.9,1.6c0.9,0.1,1.5,0.2,2.1,0.3c-0.3,0.5-0.6,0.9-0.9,1.3c0,0,0.1,0.1,0.1,0.1c0.2-0.1,0.4-0.2,0.5-0.3
		c-0.4,0.6-0.9,1.2-1.3,1.8C52.4,123.1,52.3,122.9,52.2,122.7z M198.7,108.1c-0.2-0.3-0.4-0.6-0.7-0.8c-0.1,0-0.1,0.1-0.2,0.1
		c0.2,0.5,0.3,0.9,0.5,1.4c-0.6-0.6-1.2-1.2-1.8-1.7c-1.7-1.5-3.3-3.2-5.2-4.6c-2.5-1.8-5.2-3.4-7.8-5c-0.5-0.3-1-0.5-1.6-0.7
		c0,0.1,0,0.1,0,0.2c-0.1-0.4-0.2-0.9-0.4-1.3c-0.3,0.9-0.5,1.6-0.7,2.4c0.2-0.1,0.3-0.2,0.4-0.2c0,0.1,0.1,0.1,0.1,0.2
		c-5.4,3.5-11,6.7-17.4,8.7c1,0.9,1.8,1.5,2.6,2.2c1.4,1.4,2.9,2.9,4.1,4.4c1.6,2.1,3,4.2,4.5,6.4c0.9,1.3,1.5,2.8,2.3,4.2
		c0.5,1,1,1.1,2,0.7c0.6-0.3,1.2-0.6,1.7-1c3.5-2.6,7.4-4.3,11.7-5.1c2.4-0.5,4.8-0.6,7.2-0.9c0.8-0.1,1.6-0.3,2.3-0.6
		c0.8-0.3,1-0.9,0.6-1.6c-0.8-1.3-1.6-2.6-2.4-3.8c-0.7-1-1.4-1.9-2.1-2.9c1.1,1,2.1,2.1,3.6,2.5c0.1,0,0.2,0.4,0.2,0.6
		c0.1,0.5,0,1,0.6,1.4c1,0.6,1.7,0.4,2.6-0.3c-0.4-0.3-0.7-0.6-1-0.8c-0.3-0.2-0.7-0.4-1-0.6c-0.3-0.2-0.6-0.4-0.5-0.9
		c0-0.2,0-0.4-0.1-0.6c-0.3-0.7-2.2-0.9-3.2-0.4C199.4,109.1,199,108.6,198.7,108.1c0.9,0.7,1.9,0.2,2.9,0.2c-0.9-0.7-1.7-1.5-3-1.2
		C198.7,107.5,198.7,107.8,198.7,108.1z M153.9,100.5c-0.4-1.2-0.9-2.5-1.2-3.5c-0.4,0.7,0.4,3.4,2.1,5.6c2,2.5,4.9,3.8,7.6,3.2
		c-1.5,0-2.8-0.1-4-0.8c0.5,0.1,1,0.2,1.5,0.4c0,0,0-0.1,0-0.1c-0.2-0.1-0.3-0.2-0.5-0.4c0.6,0,1.1,0.1,1.7,0.1
		c-0.8-0.5-1.6-0.9-2.1-1.9c1.8,1.7,2.6,1.8,3.5,0.6c-1.4,0.2-1.8,0.2-2.2-0.6c-0.4-1-0.7-2-1.1-3c0.5,0.5,0.6,1.6,1.7,1.7
		c-0.4-0.6-1.2-1.1-0.9-2c0.7,0.5,0.7,1.8,1.9,1.5c-0.1-0.3-0.1-0.6-0.2-0.6c0.4,0.2,1.1,0.2,1.4,0.6c0.9,1,1.9,0.6,2.8,0.4
		c0.6-0.2,1.1-0.5,1.7-0.7c-0.2,0.5,0.2,0.3,0.3,0.2c0.5-0.4,1-0.8,1.6-1.2c0.3-0.2,0.7-0.6,0.8-0.5c0.8,0.5,1-0.4,1.7-0.5
		c-0.5-0.2-0.6-0.3-0.8-0.4c0.1-0.2,0.3-0.4,0.4-0.6c-0.5-0.5-0.5-0.5-1-0.1c-0.1,0.1-0.3,0.2-0.4,0.3c-0.9,0.5-1.8,1-2,2.1
		c0,0.2-0.3,0.3-0.4,0.4c0-0.2,0.1-0.4,0.2-0.8c-0.8,0.5-1.4,0.9-2.1,1.4c0.1-0.4,0.2-0.7,0.3-1c-0.3,0-0.5-0.1-0.8-0.1
		c0.2-0.2,0.4-0.3,0.7-0.2c0.2,0,0.5,0.1,0.7,0.1c0-0.1,0.1-0.2,0.1-0.2c-0.4-0.3-0.9-0.5-1.4-0.9c0.9-0.1,1.7,1,2.4-0.1
		c-0.6-0.5-1.1-1-1.8-1.6c0.4,0,0.7,0,0.8,0c0.1,0.2,0.2,0.4,0.3,0.5c1.4,0.8,2.2,0.7,3.4-0.3c0.4-0.3,0.7-0.6,1.1-0.8
		c0.4-0.4,1.1-0.2,1.5,0.2c0.3,0.3,0.9,0.3,1.4,0.3c0.1,0,0.3-0.4,0.3-0.5c0.9-0.1,1.7-0.2,2.6-0.2c0-0.1,0-0.2,0-0.3
		c-2.3,0.1-4.4-0.6-5.9-2.5c-0.9-1.2-2.2-0.9-3.4-0.9c-0.3,0-0.8,0.2-1,0.4c-2.1,1.8-4.4,2.4-7.1,2c-0.2,0-0.3,0.1-0.7,0.3
		c0.5,0.2,0.7,0.3,1,0.5c-0.4,0.5-0.7,1-1.1,1.6c0.1-0.5,0.1-0.9,0.1-1.2c-0.1,0-0.3,0-0.4-0.1c0,0.4-0.1,0.8-0.1,1.1
		c0,0.6,0.1,1.1,0.2,1.7c-0.2-0.7-0.4-1.4-0.6-2.1c-1.5,0.3-2.5,0.8-2.3,2.6c0-0.4,0-0.8,0-1.1c-0.1,0-0.1,0-0.2,0
		c-0.2,0.6-0.4,1.2-0.6,1.9c0,0-0.1,0-0.1,0c0-0.7,0-1.4,0-2.1c-0.6-0.1-1.2-0.2-1.9-0.4C153.4,98.7,153.6,99.6,153.9,100.5z
		 M54.6,107.4c1.1,0,1.1,0,1.6-1c0.2-0.4,0.6-0.8,0.8-1.2c0.1-0.2,0.2-0.4,0.2-0.5c-0.9,0.1-1.8,0.3-2.6,0.4c0,0,0,0,0-0.1
		c1.2-0.5,2.3-1.1,3.5-1.6c0-0.1-0.1-0.2-0.1-0.3c-1.9,0.8-3.7,1.6-5.6,2.4c0-0.1-0.1-0.1-0.1-0.2c2.1-1.2,4.5-1.8,6.6-3.1
		c0-0.1-0.1-0.2-0.1-0.3c-1.7,0.7-3.4,1.4-5.2,2.1c0-0.1-0.1-0.2-0.1-0.3c1-0.5,2.1-0.9,3.1-1.4c1-0.4,2.1-0.8,3.1-1.2
		c0-0.1-0.1-0.2-0.1-0.3c-1-0.1-2,0.6-3,0c0.2-0.3,0.3-0.7,0.6-0.8c1.2-0.7,2.4-1.4,3.6-1.9c0.8-0.3,1.4-0.7,1.9-1.6
		c-1.7,0.7-3.5,0.5-4.8,1.9c-0.3,0.3-0.7,0.6-1.1,0.7c-1,0.3-2,0.6-3.1,0.9c0.8-1.1,1.4-2.3,2.8-2.6c1.4-0.4,2.8-0.7,4.2-1
		c0.9-0.2,1.8-0.4,2.6-0.7c0.2-0.1,0.4-0.3,0.5-0.5c0,0-0.2-0.2-0.2-0.3c0.3-0.2,0.6-0.4,1-0.6c-0.3-0.2-0.5-0.2-0.7-0.2
		c-1.9,0.4-3.7,0.8-5.6,1.4c-1.9,0.5-3.7,1.4-5.1,2.9c-1.5,1.6-2.6,3.4-3.5,5.3c-0.5,1.1-0.9,2.3-1.3,3.4c-0.1,0.4-0.2,1.1,0.1,1.2
		c0.3,0.2,0.9,0.1,1.3,0.1c0,0,0,0,0.1,0c0.6-0.3,1.2-0.7,1.7-1c0,0.4,0,0.8,0,1.3c0.3-0.1,0.5-0.1,0.8-0.2
		c-0.6,0.4-1.2,0.8-1.7,1.1c1.4-0.5,2.8-1.2,4.1-1.9C54.6,107.8,54.6,107.6,54.6,107.4z M124.1,103c0.3,0,0.6,0,0.9-0.1
		c0,0,0,0.1,0,0.1c-0.7,0.2-1.4,0.3-2.1,0.5c1.5,1.4,3.3,1.6,5.2,1.6c-0.4,0-0.8,0-1.2,0.1c0,0,0,0.1,0,0.1c0.6,0.1,1.2,0.3,1.8,0.4
		c0,0,0,0.1,0,0.1c-0.8,0-1.6,0-2.4,0c0,0.5,0,1,0,1.4c1.6,0,3.2,0,4.7,0c0,0.1,0,0.1,0,0.2c-1.6,0-3.2,0-4.8,0c2,0.1,3.9,0.3,5.9,0
		c3.9-0.5,4.5-3.6,3.8-6.5c0-0.1-0.2-0.2-0.4-0.3c0.1,1.1,0.1,2,0.1,3c-0.1,0-0.2,0-0.3,0c0-0.3,0-0.6,0-0.9c0-0.3-0.1-0.6-0.1-1.1
		c-1,2.1-1.1,2.2-2,2.4c1.6-1.2,2-2.7,1-3.4c-0.4,0.6-0.7,1.2-1.1,1.8c0.1-0.7,0.4-1.2,0.4-1.8c0-0.2-0.4-0.5-0.7-0.7
		c-0.1,0-0.1,0.1-0.2,0.1c0.2,0.9-0.4,1.2-1,1.4c-0.8,0.3-1.7,0.5-2.5,0.7c-1,0.2-2,0.4-3,0.6c1.1-0.4,2.1-0.8,3.2-1.2
		c0.2-0.1,0.4-0.4,0.5-0.7c-1,0.8-1.5,0.9-2.7,0.7c1.8-0.9,1.6-0.8,1.5-1.4c-0.4,0.1-0.7,0.1-1,0.2c0.1-0.3,0.4-0.7,0.3-0.8
		c-0.2-0.3-0.6-0.5-1-0.6c-0.8-0.2-1.6-0.3-2.4-0.5c-0.6-0.1-1.3-0.2-1.6,0.6c-0.2,0.3-0.5,0.6-0.6,0.8c-0.4-0.1-0.8-0.3-1-0.2
		c-1.4,0.7-3,0.8-4.5,0.7c-0.9,0-1.8,0-2.3,0.9c-1.8-0.7-2.6-0.4-3.2,1.3c1.6,0,3.3,0,4.9,0c-0.1,0.2-0.2,0.3-0.3,0.5
		c0.6-0.1,1-0.1,1.4-0.2c-0.1,0.2-0.2,0.4-0.2,0.6c1.6,0.2,2.2,0,2.4-0.8c1.3,0,2.5,0,3.8,0C123.7,102.8,123.9,102.9,124.1,103
		c-0.9,0-1.8,0-2.6,0c0,0.1,0,0.2,0,0.3C122.3,103.6,123.2,103,124.1,103z M105.3,99.7c-0.1,0-0.2,0-0.3,0c-0.1-1.1-0.4-2.2-0.2-3.2
		c0.4-2.4,0.9-4.8,1.6-7c1-3.2,2.2-6.4,3.4-9.5c1.6-3.9,3.1-7.8,4.9-11.6c2.1-4.4,4.1-8.9,7.1-12.8c0.4-0.6,0.3-1.2,0-1.8
		c-0.6-1-1.5-1.6-2.6-2c-1.8-0.7-2.8-0.3-3.7,1.4c-0.6,1.1-1.2,2.2-1.7,3.3c-1.2,2.5-2.4,5.1-3.6,7.6c-0.9,2-1.8,3.9-2.7,5.9
		c-0.2,0.5-0.6,0.7-1.2,0.7c-0.7,0-1.5,0-2.2,0.1c-1.7,0.3-3.3,0.6-5,0.9c0.3-1.6,0.7-3.2,1-4.8c0.4-1.9,0.6-3.9,0.3-5.9
		c-0.4-2.7-2-4.6-4.6-5.7c-3.7-1.6-7.6-2.2-11.5-0.9c-4.9,1.6-9.1,4.3-12.7,7.9c-2.2,2.2-4.2,4.5-6.1,7c-2.1,2.6-3.7,5.5-5,8.6
		c-1,2.4-1.8,4.8-1.4,7.5c0.2,1.9,1.7,3.6,3.5,4.1c1.7,0.4,3.3,0.3,4.9-0.1c1.5-0.3,2.9-1.1,4.3-2.2c-0.8,0.1-1.3,0.1-1.8,0.3
		c-1.9,0.6-4.2-1.1-4.2-3.4c0-1.9,0.4-3.6,1.1-5.3c1.9-4.4,4.6-8.3,7.8-11.7c1.9-2.1,4-4,6.2-5.8c2.3-2,4.9-3.7,7.9-4.6
		c2.2-0.6,3.8,0,4.4,2.3c0.5,1.9,0.4,3.8,0.2,5.7c-0.4,3.3-1.2,6.6-2.2,9.7c-0.1,0.4-0.5,0.7-0.9,0.9c-2,1.3-4,2.4-6,3.7
		c-3.6,2.3-6.9,5-10,7.9c-3.1,2.9-6,6.1-8.7,9.4c-2.3,3-4.6,6-6.3,9.4c-1.1,2.3-2,4.6-1.9,7.2c0.1,2.6,2,4.6,4.6,4.6
		c2.2,0,4.3-0.6,6.2-1.5c4.2-1.9,7.7-4.7,10.8-8.1c1.8-1.9,3.4-4.1,4.9-6.2c2.2-3.2,4.4-6.5,6.3-9.8c2.7-4.7,4.8-9.7,6.8-14.7
		c0.2-0.4,0.5-0.9,0.9-1.1c1.2-0.5,2.4-1,3.6-1.4c1.3-0.4,2.7-0.7,4.2-1.1c-0.2,0.6-0.3,0.9-0.4,1.3c-2.3,5.7-4.4,11.5-6,17.5
		c-0.8,3-1.6,6.1-1.6,9.3c0,2.4,0.9,3.4,3,4.1c2,0.6,4,0.8,5.6-0.6c1.5-1.2,2.7-2.8,3.9-4.4c1.2-1.6,2.3-3.4,3.4-5.2
		c0.2,1.1,0.6,2.1,1.8,2.4c1.1,0.2,2.3,0.5,3.4,0.4c1.2-0.1,2.4-0.6,3.2-1.6c1-1.2,1.9-2.6,2.8-3.9c0.8-1.2,1.6-2.5,2.4-3.8
		c0,1.3,0.1,2.7,1.1,3.5c1,0.8,2.2,1.3,3.4,1.7c1.1,0.4,2.5-0.5,3-1.5c-1.7-0.3-1.5-1.6-1.5-2.9c-0.2,0-0.4,0.1-0.7,0.1
		c0.4-5.7,2.1-11.1,3.9-16.4c-1.7-0.5-2.5-1.1-3.4-2.4c-0.4-0.7-0.4-1.2,0.2-1.7c0.6-0.5,1.3-0.3,1.8,0.4c0.3,0.3,0.5,0.6,0.8,1
		c0.4,0.5,0.8,0.5,1.2,0c0.4-0.4,0.8-0.8,0.4-1.5c-1.5-1.9-4.6-1.6-5.6,0.5c-1.9,4-3.7,8-5.7,11.9c-1.7,3.3-3.7,6.5-5.5,9.7
		c-0.3,0.5-0.6,0.8-1.1,1.4c0-0.4-0.1-0.5,0-0.6c0.5-1.9,1-3.9,1.6-5.8c1.3-3.7,2.7-7.3,4.1-10.9c0.4-1,0.3-1.6-0.7-2
		c-0.7-0.3-1.5-0.3-2.2-0.4c-1-0.2-1.8,0.3-2.2,1.2c-0.5,1.1-1.1,2.2-1.6,3.4c-0.7,1.8-1.3,3.7-2.2,5.5c-1.3,2.6-2.7,5.1-4.1,7.7
		C110.3,94.2,108.2,97.3,105.3,99.7z M164.6,82c0.2-0.3,0.3-0.4,0.3-0.5c0.9-2.9,1.6-5.8,2.6-8.6c1.3-3.6,2.7-7.1,4.2-10.6
		c1.2-2.7,2.6-5.3,3.8-8c0.3-0.7,0.8-1.1,1.6-1c1,0.1,1.9,0.1,2.9,0.2c0.8,0.1,1.5,0.4,2.3,0.7c-0.3,0.7-0.5,1.3-0.8,1.8
		c-1.3,2.9-2.7,5.8-4,8.6c-1.8,3.8-3.5,7.6-5.4,11.4c-1.3,2.6-2.9,5-4.5,7.5c-0.7,1.1-1.5,2.2-2.3,3.2c-0.3,0.4-0.6,0.6-0.7,1.2
		c-0.3,2-0.8,2.6-3,2.4c-0.3,0-0.8,0.1-0.9,0.3c-0.5,0.6-0.9,1.2-1.4,2c1,0.4,1.8,0.4,2.8,0.3c1.5-0.1,2.9-0.6,3.8-1.8
		c1.8-2.2,3.5-4.4,5.2-6.7c0.7-0.9,1.3-1.9,1.9-2.9c0.1,0.2,0.1,0.3,0,0.5c-0.8,2.3-1.3,4.7-1.1,7.1c0.1,1.8,0.7,3.5,2.5,4.2
		c1.4,0.6,3,0.8,4.5,0.3c1.1-0.3,2.2-0.6,3-1.5c-0.2,0-0.3-0.1-0.5-0.1c-1.8-0.4-2.8-1.6-3.1-3.4c-0.4-2-0.2-4,0-6
		c0.2-2.6,0.9-5.2,1.6-7.6c1-3.3,2.2-6.5,3.5-9.7c1.6-4.2,3.6-8.3,6-12.1c1.6-2.5,3.3-5,4.9-7.4c0.8-1.2,0.6-2.2-0.7-3
		c-0.4-0.2-0.9-0.5-1.3-0.6c-1.6-0.6-3-0.2-3.8,1.1c-0.7,1.1-1.4,2.3-2.1,3.5c-0.8,1.3-1.5,2.6-2.3,3.9c-1.4-1.9-3.5-1.6-5.4-1.9
		c0.2-0.3,0.3-0.5,0.5-0.7c0.7-1,1.3-2,2-3c0.6-0.9,0.5-1.5-0.4-2.1c-0.6-0.4-1.3-0.7-2-0.9c-1.5-0.3-3.7,0.3-4.5,1.8
		c-1,1.9-2.1,3.7-3.2,5.6c-0.1,0.2-0.3,0.5-0.6,0.5c-1.3,0.4-2.6,0.7-3.9,1.2c-2.4,1-4.9,2-7.3,3.1c-0.6,0.3-1,0.8-0.8,1.5
		c0.3,1,0.7,2,1.3,2.8c0.6,1,1.5,1,2.4,0.2c0.5-0.4,0.9-0.8,1.4-1.1c1.4-0.9,2.8-1.8,4.4-2.3c-1.9,4.6-3.8,9.1-5.7,13.7
		c-0.5,1.1-0.4,2.1,0.3,3.2c1.3,2.1,2.1,4.4,2,7C164.7,80.1,164.6,80.9,164.6,82z M138.1,91.8c0,0.1,0,0.2,0,0.3
		c0.7,0.3,1.4,0.6,2.1,0.9c2.7,1.2,5.4,2.3,8.3,2.5c3.2,0.3,6.2-0.3,8.7-2.3c1.1-0.9,2.1-2,2.8-3.5c-1.2,0.3-2.2,0.6-3.1,0.8
		c0.6-0.3,1.2-0.7,1.8-0.8c0.9-0.2,1.9-0.3,2.8-0.2c1.5,0.1,1.9-0.1,1.9-1.7c0-0.4,0-0.7,0-1.1c0-1.7,0.1-3.4,0.1-5
		c0.1-1.6,0.4-3.2-0.1-4.9c-0.6-2.4-1.6-4.6-3.1-6.5c-1.7-2.3-3.8-4.1-6.2-5.6c-0.2,0.4-0.4,0.7-0.5,0.9c1.2,1,2.4,2,3.6,2.9
		c0,0-0.1,0.1-0.1,0.1c-1.2-0.9-2.4-1.7-3.6-2.6c-0.1,0.1-0.2,0.2-0.3,0.3c0.3,0.4,0.5,0.7,0.8,1.1c0,0,0,0.1-0.1,0.1
		c-0.4-0.3-0.7-0.5-1.1-0.8c-0.6,0.4-1.2,0.8-1.8,1.2c-0.5,0.3-0.7,0.7-0.3,1.3c0.3,0.5,0.6,1.1,0.9,1.7c-0.5-0.6-0.9-1.2-1.3-1.8
		c-0.1-0.2-0.3-0.4-0.4-0.4c-0.7,0.2-1.4,0.5-2,0.9c-0.1,0.1,0,0.7,0.1,1.1c0,0.1,0,0.2-0.1,0.5c-0.2-0.5-0.3-0.8-0.4-1.1
		c-0.1-0.2-0.3-0.4-0.5-0.4c-0.4,0-0.9,0.2-1.3,0.2c-0.6,0-0.8,0.3-0.9,0.9c-0.1,0.6-0.5,1.2-0.8,1.8c-0.1,0-0.1-0.1-0.2-0.1
		c0.3-0.8,0.6-1.6,0.8-2.5c-0.3-0.1-0.5-0.2-0.8-0.3c-0.2,0.4-0.4,0.8-0.6,1.4c-0.1-0.8,0.6-1.5-0.6-1.7c-0.8,1.4-1.5,2.8-2.3,4.2
		c-1.3,2.3-2.6,4.6-3.8,7c-0.9,1.8-1.4,3.7-1,5.7c0.1,0.4,0.1,0.9,0,1.3c-0.3,0.9-0.8,1.8-1.2,2.7c-0.3,0.9-0.1,1.3,0.8,1.4
		c0.7,0.1,1.4,0.1,2.1-0.1c1.3-0.4,1.9-0.5,2.9,0C139.4,91.7,138.7,91.7,138.1,91.8z M191.4,77.2c-0.1,0-0.2,0-0.2-0.1
		c0.5-1.8,0.9-3.6,1.4-5.4c0.1-0.5,0.4-0.6,0.9-0.6c1.9,0.3,3.8,0.1,5.3-1.3c1.4-1.3,2.6-2.8,3.6-4.4c1.7-2.6,2.6-5.5,3.3-8.6
		c0.3-1.3-0.1-2.3-1.1-2.8c-1.1-0.6-2.3-1.1-3.5-1.5c-1.7-0.6-3.2-0.2-4.5,1c-2.3,2-4.2,4.4-5.8,7c-3,5.2-5.6,10.5-6,16.6
		c-0.1,2.1,0.1,4.1,2.2,5.2c1.2,0.6,2.4,1.2,3.7,1.4c1.4,0.3,2.8,0.1,3.9-0.9c0.9-0.8,1.8-1.6,2.7-2.4c2.8-2.6,5.4-5.5,7.5-8.6
		c1.9-2.8,3.5-5.8,4.5-9.1c0.2-0.7,0-1.2-0.6-1.4c-0.6-0.3-1.3-0.4-1.7,0.4c-0.4,0.8-0.8,1.7-1.3,2.5c-1.6,2.4-3.2,4.9-4.9,7.2
		c-1.9,2.7-4.1,5.1-6.8,7c-0.6,0.4-1.4,0.5-2.1,0.7c-0.1-0.7-0.3-1.3-0.4-2C191.4,77.4,191.4,77.3,191.4,77.2z M91.3,62
		c0-0.4,0-0.8,0-1.3c-0.1-2-0.8-2.6-2.7-2.1c-0.1,0-0.1,0.1-0.2,0.1c-3.1,1-5.5,3.1-7.9,5.2c-1.9,1.7-3.6,3.6-5.3,5.5
		c-2.8,3.1-5.1,6.6-6.6,10.5c-0.5,1.2-0.7,2.6-0.8,3.9c-0.1,1,0.6,1.6,1.4,1.5c0.6-0.1,1.3-0.3,1.9-0.4c0.5-0.1,1.1-0.1,1.7-0.1
		c0.3,0,0.7-0.1,1-0.3c1.3-1.1,2.5-2.2,3.8-3.3c3.3-2.8,6.9-5.1,10.7-7.3c0.8-0.4,1.1-1,1.3-1.8c0.1-0.3,0.1-0.5,0.2-0.8
		C90.5,68.4,91.2,65.2,91.3,62z M124.4,97c0.3,0.1,0.6,0.2,0.9,0.3c2.8,0.5,5.5,0.9,8.3,1.6c5.7,1.3,11.4,3,16.8,5.3
		c4.2,1.8,8.2,4,11.7,6.9c3.2,2.7,5.9,5.7,8.2,9.2c1.6,2.4,2.9,4.9,3.9,7.6c0.5,1.4,1,2.7,1.5,4.1c0.1-0.1,0.2-0.2,0.3-0.3
		c1.4-1.6,2.7-3.3,4.2-4.8c2.3-2.3,5.1-3.8,8.1-4.9c2.8-1,5.8-1.5,8.8-1.6c3.3-0.2,6.6-0.1,9.8,0c0.9,0,1.8,0.2,2.7,0.3
		c1,0.1,2.1,0.1,3.3,0.2c-2.9-6.8-7.3-12.2-13-16.5c-4.1-3.1-8.5-5.5-13.5-7.2c0.1,0.2,0.1,0.2,0.1,0.2c0.8,0.4,1.6,0.8,2.3,1.3
		c6.1,3.3,11.6,7.4,15.9,12.9c1.1,1.5,2.1,3,3,4.6c0.6,0.9,0.3,1.5-0.7,1.8c-0.7,0.2-1.4,0.4-2.2,0.4c-1.9,0.1-3.8,0-5.8,0.2
		c-2.3,0.2-4.5,0.4-6.8,0.8c-4.9,0.9-9.2,3.1-12.9,6.4c-0.8,0.7-1.6,1.4-2.5,1.9c-0.7,0.5-1.3,0.2-1.7-0.5c-0.5-0.8-0.9-1.7-1.4-2.5
		c-1.6-2.6-3.1-5.3-4.9-7.9c-2.3-3.2-5.1-6-8.2-8.5c-2.5-1.9-5.1-3.5-7.9-4.8c-3.5-1.7-7.2-3.1-11-4.1c-3.5-0.9-7-1.7-10.6-2.5
		c-0.8-0.2-1.7-0.3-2.5-0.5c-1.1-0.3-1.7-1.2-2.1-2.4C125.9,94.9,125.2,95.9,124.4,97z M94.2,125.6c-1,0.1-2.1,0.3-3.2,0.5
		c-0.4,0-0.7,0.1-0.8,0.6c-0.6,1.7-1.3,3.4-2,5.1c-0.5,1.2-1,2.5-1.4,3.6c-2.2-0.7-4.4-1.5-6.6-2c-3.5-0.8-7-1.5-10.6-2
		c-2.9-0.4-5.8-0.7-8.7-0.8c-2.8-0.1-5.7,0-8.5,0c-1.6,0-3.2,0.1-4.8,0.2c-1.3,0-1.9-1.1-1.4-2.2c0.2-0.4,0.5-0.8,0.7-1.2
		c1.7-2.5,3.4-5.1,5.1-7.6c1-1.4,2.1-2.6,3.1-4c0.5-0.7,0.5-1.3,0-1.8c-3.1,2.6-13.4,17.6-13.8,20.1c1.1-0.1,2.3-0.3,3.4-0.4
		c2.5-0.3,4.9-0.6,7.4-0.8c1.2-0.1,2.4-0.1,3.7-0.2c3.6-0.4,7.2-0.2,10.8,0.2c2.6,0.3,5.2,1,7.7,1.6c3.8,0.9,7.5,1.9,11.2,2.8
		c1.2,0.3,2.5,0.7,3.5,1C90.7,134,92.4,129.8,94.2,125.6z M208.8,90.6c-1.1-0.1-2-0.3-2.5-1.2c0,0.1-0.1,0.1-0.1,0.2
		c0.1,0.2,0.2,0.4,0.2,0.6c-1.7-0.3-3.4-0.5-5.1-0.8c-0.2,0-0.7-0.1-0.7-0.2c-0.1-1-0.5-0.5-0.8-0.1c0,0-0.2,0-0.2,0
		c-1-0.2-2-0.4-2.9-0.7c-0.8-0.3-1.6-0.4-2.5-0.3c0.8,0.6,1.5,1.1,2.2,1.7c0.5,0.4,0.4,1.3-0.1,1.7c-0.4,0.3-0.9,0.5-1.4,0.8
		c-0.5,0.2-1.1,0.4-1.7,0.7c0.2,0.1,0.3,0.1,0.4,0.2c3.9,0.7,7.7,1.8,11.4,3.2c5,1.9,9.6,4.3,14,7.4c0.6,0.4,1.2,0.6,1.9,0.8
		c0.5,0.2,0.9,0,0.9-0.6c0-0.8,0.1-1.6,0-2.3c-0.3-2.6-1.1-5.1-2.4-7.5c-1.2-2.1-2.8-3.7-5.3-4.2c-1.7-0.3-3.4-0.7-5.1-1.1
		c-0.9-0.2-1.8-0.3-2.7-0.5c0,0.1-0.1,0.2-0.1,0.2c0.9,0.4,1.7,0.8,2.6,1.2c0-0.1,0-0.2,0-0.6c0.7,0.5,1.2,0.9,1.8,1.2
		c0,0,0.1-0.1,0.1-0.1c-0.1-0.2-0.3-0.3-0.4-0.5c0.1-0.1,0.1-0.2,0.2-0.2c0.6,0.4,1.1,0.8,1.7,1.2c0,0,0,0,0.1-0.1
		c-0.1-0.2-0.3-0.4-0.4-0.5c0-0.1,0.1-0.2,0.1-0.2c1,0.5,2,1,3,1.5c0,0.1-0.1,0.2-0.1,0.2c-1-0.2-1.9-0.4-3-0.6
		c0.3,0.3,0.5,0.5,0.9,0.8c-0.9-0.2-1.6-0.3-2.3-0.5c-0.6-0.2-1.1-0.7-1.7-1c0,0,0,0.1-0.1,0.1C208.4,90.2,208.5,90.4,208.8,90.6z
		 M183,94.5c15.7,0.1,29,5.6,40,16.7c1.2-3.2,1.5-6.4,0.9-9.6c-0.8-4.4-3.1-8.1-6.3-11.3c-0.6-0.6-1.3-0.9-2-1.3
		c-0.1,0.1-0.1,0.1-0.2,0.2c6.1,5.1,7.8,11.7,6.2,19.3c-0.9-0.5-1.2-1.7-2.3-2c-0.2-0.1-0.4-0.2-0.5-0.4c-3.1-2.4-6.5-4.5-10-6.3
		c-4-2-8.2-3.5-12.5-4.5c-2.1-0.5-4.2-0.9-6.3-1.2c-1.6-0.3-3.1-0.4-4.7-0.5C184.5,93.5,183.5,93.2,183,94.5z M86,112.1
		c0-0.1,0-0.2-0.1-0.3c0.4-0.1,0.7-0.2,1.1-0.4c0.2-0.1,0.4-0.4,0.6-0.6c-0.2,0-0.4-0.1-0.6-0.1c-0.2,0-0.3,0-0.6-0.1
		c1.3-0.6,1.6-1.7,0.7-2.7c-0.2-0.2-0.3-0.3-0.5-0.5c-0.4-0.4-0.7-0.8-1.1-1.1c-0.4-0.3-1-0.3-1.5-0.6c-0.5-0.3-0.8-0.1-0.8,0.3
		c1,0.5,2,1,3.1,1.6c-0.7,0.2-1.1,0.3-1.5,0.4c0-0.2,0.1-0.4,0.1-0.9c-0.6,0.4-1,0.7-1.4,1c0.1-0.4,0.2-0.7,0.2-0.9
		c-0.1-0.2-0.5-0.3-0.8-0.2c-0.4,0.2-0.8,0.4-1.1,0.7c-1.3,1.4-2.7,2.8-4,4.2c0.9,0.3,1.3,0.2,1.3-0.4c1,0.2,1.9,0.4,2.9,0.6
		c0,0,0,0.1,0,0.1c-0.4,0-0.8-0.1-1.2-0.1c0,0.1,0,0.2,0,0.3c1.5,0,3,0,4.6,0c0,0,0,0,0,0.1c-1.1,0.1-2.3,0.2-3.5,0.3
		c0.8,0.9,1.7,1.5,2.8,1.7c1,0.2,1.9,0.6,3,1c-1.1-0.1-2.1-0.3-3-0.4c-0.1,0.5-0.1,0.9-0.2,1.4c1.2,0,2.3,0,3.4,0c0.5,0,1,0,1.3-0.3
		c0.3-0.2,0.3-0.8,0.4-1.2c-0.4,0-0.8,0-1.1-0.1c0.3-0.1,0.6-0.1,0.9-0.1c0.2,0,0.5-0.2,0.6-0.3c0.5-0.9,1-1.8,1.5-2.7
		c0.3-0.6,0-0.7-0.5-1c-0.1,0.6,0.5,1.2-0.3,1.4c-1.2,0.2-2.4,0.3-3.7,0.4c0.6-0.5,1.6-0.1,1.6-1C87.6,111.7,86.8,111.9,86,112.1z
		 M55.2,95.1c-0.1-0.1-0.1-0.2-0.2-0.3c-0.7,0.3-1.5,0.5-2.1,1c-1.4,1.2-2.7,2.4-3.9,3.8c-0.9,1-1.7,2.3-2.4,3.5
		c-1.2,2.1-2,4.3-2.4,6.7c-0.3,2-0.4,4-0.6,6.2c0.4-0.2,0.6-0.3,0.8-0.4c0.2-0.1,0.3-0.2,0.5-0.3c3-2.1,6.1-3.8,9.5-5.2
		c1.1-0.5,1.2-1.2,1.4-2.3c-1.6,0.9-3.2,1.6-4.7,2.4c-1.4,0.8-3,1.1-4.1,2.4c0-0.7,0-1.4,0.1-2c0.2-1.6,0.4-3.3,0.8-4.9
		c0.8-2.8,2.6-5.1,4.5-7.3C53.4,97.3,54.3,96.2,55.2,95.1z M200.8,80.4c2,0.1,3.8,0.2,5.6,0.4c1.9,0.2,3.8,0.5,5.6,0.8
		c1.5,0.2,2.9,0.6,4.4,0.8c0.9,0.1,1.2-0.2,0.9-1.1c-0.5-1.4-1.1-2.8-1.7-4.2c-0.5-1.1-1.4-1.7-2.6-1.7c-0.5,0-1.1-0.1-1.6-0.2
		c-1.8-0.3-3.5-0.5-5.3-0.8c-0.2,0-0.4,0.2-0.5,0.3c1.1,0.2,2.2,0.2,3.2,0.4c1,0.2,2.2,0,3.3,0.8c-1.4,0-2.6-0.1-3.8,0
		c-1.2,0.1-2.5-0.5-3.9,0.1c0.7,0.4,1.3,0.6,1.8,0.8c0,0.1,0,0.2,0,0.3c-0.9,0.2-1.8,0.4-2.9,0.7c1.1,0.1,1.9,0.1,2.8,0.2
		c1.1,0.1,2.2,0.2,3.2,0.3c0.2,0,0.4,0.3,0.6,0.5c-0.6,0.2-1,0.2-1.5,0.2c-1.8-0.1-3.6-0.3-5.5-0.5c-0.6,0-0.9,0.2-1.1,0.8
		c0.4,0.1,0.7,0.1,1.1,0.2c0,0.1,0,0.1,0,0.2c-0.5,0-0.9,0-1.5,0c0.2,0.1,0.3,0.2,0.4,0.3C201.4,80.2,201.2,80.3,200.8,80.4z
		 M179.4,55.7c-0.4-0.1-0.6-0.1-0.8-0.1c-0.8-0.3-1.4-0.1-1.8,0.8c-0.7,1.6-1.6,3.1-2.3,4.7c-1.7,3.9-3.3,7.9-4.9,11.9
		c-0.8,2.1-1.4,4.2-2.1,6.4c0.1,0,0.2,0.1,0.2,0.1C172.5,71.9,175.6,63.7,179.4,55.7z M94.4,88.3c1,0.1,2,0.2,2.9,0.3
		c0.7,0.1,1-0.2,1.2-0.9c0.7-2.2,1.5-4.4,2.3-6.7c0.5-1.5,1-3,1.6-4.7c-1.3,0.5-2.4,0.9-3.3,1.4c-0.4,0.2-0.5,0.9-0.7,1.3
		C97.1,82.2,95.8,85.2,94.4,88.3z M152.3,99.9c-0.2-1-0.4-1.8-0.5-2.7c-0.1-0.6-0.3-0.8-0.8-0.7c-1.6,0.4-3.1,0-4.6-0.3
		c-3.1-0.7-6.1-1.5-9.2-2.2c-0.3-0.1-0.6,0.1-0.8,0.1c0,0.1,0,0.2,0,0.3c0.7,0.1,1.5,0.2,2.2,0.3c-0.2,0.2-0.7,0.4-0.7,0.4
		c-0.4-0.9-1.2-0.3-1.7-0.4c-0.3,0-0.7,0.4-1,0.7c0.2,0.3,0.4,0.5,0.7,0.8c0.2,0.2,0.4,0.2,0.7,0.4c0.2-0.2,0.4-0.3,0.5-0.5
		c0.1,0.2,0.1,0.3,0.2,0.4c0.3-0.6,0.5-1.2,1.3-0.9c-0.3,0.4-0.5,0.8-0.8,1.2c0.8,0,1.5,0,2.2,0c-1.6,0.5-3.1,0.1-4.6-0.4
		c1.2,1.2,4.7,1.4,5.5,0.1c-0.2,1,0.5,1.1,1,1.3c0.2,0.1,0.5-0.1,0.8-0.2c0,0,0,0.1,0.1,0.3c0.3-0.5,0.4-1.1,1.2-0.8
		c-0.3,0.4-0.5,0.8-0.8,1.3c0.6,0.1,1.1,0.1,1.7,0.2c0,0.1,0,0.2-0.1,0.3c-1.3-0.3-2.5-0.6-3.8-0.9c1.7,1.5,4.1,1.4,5.3-0.1
		C148.4,98.5,150.3,99.2,152.3,99.9z M194,91.8c0.4-0.2,0.6-0.3,0.8-0.4c1.1-0.5,1.1-1.1,0.3-1.9c-1.1-1.1-2.6-1.4-4-1.8
		c-1.3-0.3-2.4-1.2-3.9-0.8c-1.9,0.5-3.8,0.8-5.9,1.2c0.9,0.6,0.4,1-0.1,1.4c1.6,0.5,3.3,0.9,3,3.1c1.5,0,2.9,0,4.3,0
		c0-0.1,0-0.2,0-0.2c-0.2,0-0.4-0.1-0.7-0.1c0.5-0.1,1-0.2,1.5-0.2c-1.5,0-3.8-0.6-4.6-1.4c0.9,0.1,1.5,0.2,2.3,0.3
		c-0.1-0.1-0.2-0.3-0.3-0.3c1.7,0.1,3.3,0.4,4.9-0.4c0-0.3,0-0.6-0.1-0.9c-0.4,0-0.9-0.1-1.5-0.2c0.1,0.2,0.2,0.3,0.2,0.3
		c0.1,0.3,0.1,0.6,0.2,0.8c-0.2,0-0.5,0-0.7-0.1c-0.8-0.2-1.5-0.4-2.2-0.5c0.3,0,0.7,0,1.1-0.1c0,0,0-0.1,0-0.1
		c-0.4,0-0.9-0.1-1.3-0.1c0,0,0-0.1,0-0.1c0.6,0,1.2,0,1.8,0c0-0.1,0-0.1,0-0.2c-0.3-0.2-0.7-0.4-1-0.6c0.4-0.2,0.7-0.4,1.1-0.7
		c-0.2-0.2-0.3-0.4-0.5-0.6c0.3,0.1,0.4,0.1,0.5,0.1c1.7,0.9,3.3,1.8,5,2.7c0.1,0.1,0.1,0.5,0.1,0.8C194.3,91.1,194.1,91.4,194,91.8
		z M151,56.6c-0.1-0.1-0.2-0.1-0.3-0.2c-1.1,0.4-2.2,0.7-3.3,1.1c0,0.1,0,0.1,0.1,0.2c0.5-0.1,0.9-0.3,1.4-0.4
		c0.8-0.2,1.4,0.4,1.3,1c-0.2,1-0.4,2-0.6,3c0,0-0.1,0-0.1,0c0-0.7,0-1.3,0-2.1c-1.9,0.9-3.7,1.8-5.6,2.7c0.4,0.6,0.8,1,1.1,1.5
		c-0.1,0-0.1,0.1-0.2,0.1c-0.4-0.6-0.9-1.2-1.3-1.8c-0.5-0.8,0.2-1.4,0.6-2.1c-0.9,0.2-1.6,0.4-2.4,0.6c0.1,0.4,0.2,0.7,0.4,0.9
		c0.6,1.1,1.3,2.2,1.9,3.3c0.3,0.7,0.8,0.8,1.5,0.7c0.2,0,0.5-0.1,0.7-0.2c1.9-0.6,3.7-1.2,4.1-3.6C150.5,59.9,150.7,58.2,151,56.6z
		 M218.5,85.2c-0.7-0.3-1.4-0.7-2.1-0.8c-2.7-0.6-5.5-1.2-8.3-1.5c-2.9-0.3-5.8-0.4-8.6-0.5c-0.7,0-1.5,0.2-1.8,1.1
		c7.9-1.2,15.5-0.1,22.8,3.2c0-0.4,0-0.6,0-0.8c0-0.1,0-0.2,0-0.3c-0.7-3.4-2.1-6.5-3.9-9.5c-0.4-0.7-1.1-0.9-2-0.8
		C217.9,79.4,218.4,83.1,218.5,85.2z M179.2,98.5c0.1,0.1,0.2,0.1,0.2,0.2c0.5-0.7,1.1-1.3,1.6-2c0.1-0.2-0.1-0.6-0.2-1
		c-0.2,0.1-0.4,0.1-0.6,0.2c0,0-0.1-0.1-0.2-0.1c-0.7-0.1-1.3,0.1-1.9,0.6c-0.4,0.4-0.8,0.7-1.3,1c-0.9,0.5-2,0.9-2.9,1.4
		c-0.7,0.4-1.6,0.9-1.9,1.6c-0.8,1.6-2.1,2.3-3.6,2.9c-0.7,0.3-1.1,0.7-1.6,1.5c4.5-1.9,8.7-4,12.6-6.8
		C179.4,98.2,179.3,98.3,179.2,98.5z M143.1,68.4c0.1,0.6,0.5,0.8,1.2,0.8c1.4-0.1,2.7-0.2,4.1-0.8c1-0.4,2-1,3-1.4
		c0.5-0.3,1.2-0.6,0.9-1.5c0.7,0.1,1.3-0.8,1.4-2.1c0-0.5-0.3-0.8-0.8-0.6c-0.1,0.5-0.3,0.9-0.5,1.3c-0.3,0.5-0.7,1-1.1,1.4
		c-0.2,0.2-0.4,0.6-0.6,0.7c-0.7,0.4-1.5,0.7-2.2,1c-0.7,0.3-1.2,0.8-2.1,0.7c-0.5-0.1-1.4-0.1-1.5,1.1c-0.3-1.5-1.6-1.1-2.4-1.6
		c0,0.4,0,0.8,0.2,1.1C142.5,68.5,142.8,68.5,143.1,68.4z M147.9,66.8c0.5-0.4,1-0.7,1.6-1.2c0.7,0.1,1.4-0.6,1.2-1.4
		c0.2,0,0.7,0,0.7-0.1c0.2-0.4,0.3-0.9,0.4-1.3c0-0.2-0.2-0.4-0.1-0.5c0.4-0.7,0.4-0.8-0.6-0.9c0,0.6-0.1,1.2-0.1,1.7
		c-0.1,0-0.4,0-0.5,0.2c-1.1,1.1-2.4,2-4,2.4c-0.2,0-0.3,0.3-0.4,0.3c-0.7,0-1.5-0.1-2.2-0.1c0,0.1,0,0.1,0,0.2
		c-0.2-0.3-0.3-0.5-0.5-0.8c-0.1,0-0.2,0-0.3,0c-0.1,0.3-0.4,0.8-0.2,1c0.5,0.7,1,1.4,1.9,0.4c0,0.2,0.1,0.4,0.1,0.6
		c1.7,0.1,2.4-0.3,2.5-1.3C147.6,66.2,147.7,66.4,147.9,66.8z M209.1,87.9c-0.2,0.4,0.6,0.7,1.4,0.7c0-0.1-0.1-0.3-0.1-0.4
		c0.1-0.1,0.1-0.1,0.2-0.2c0.4,0.3,0.8,0.6,1.3,0.8c0.4,0.2,0.9,0.3,1.3,0.4c0-0.1,0.1-0.2,0.1-0.3c-0.3-0.1-0.6-0.3-1.2-0.5
		c0.7,0.1,1.2,0.1,1.6,0.2c-0.8-0.4-1.6-0.6-2.4-0.8c-3-0.6-6-1.2-9.1-1.7c-2-0.3-4-0.6-6-0.8c-0.6-0.1-1.3-0.3-2,0.5
		c2.4,0.2,4.7,0.5,7,0.7c0.1,0.7,0.5,0.9,1.6,0.7c-0.2-0.2-0.4-0.3-0.7-0.5c0.8,0.1,1.6,0.3,2.5,0.4c-0.4,0.1-0.6,0.1-0.8,0.1
		c0,0.1,0,0.1,0,0.2c0.5,0.1,0.9,0.2,1.5,0.4c-0.1-0.3-0.2-0.4-0.3-0.6c0-0.1,0.1-0.1,0.2-0.2c0.4,0.2,0.8,0.5,1.3,0.7
		c0.4,0.2,0.8,0.3,1.2,0.4c0,0,0.2-0.2,0.3-0.5c-0.1,0-0.1,0,0,0C208.4,87.7,208.8,87.8,209.1,87.9z M134.2,71.4
		c0.1-0.1-0.1,0,0,0.1c0.1,0.6,1.3,1.3,1.9,1.3c0.7-0.1,1.2-0.1,1.9-0.6c0.6-0.5,1.3-1.5,1.4-2.2c0.1-0.8,0.4-1.7,0.8-2.4
		c0.3-0.4,0.9-0.8,1.4-0.9c0.6-0.2,0.6-0.1,0.5-0.7c-1.2-0.1-2.4,0.5-2.7,1.4c-0.4,0.9-0.7,1.9-1,2.8c-0.4,1.4-1.6,2.1-2.9,1.4
		c-0.4-0.2-0.5-0.7-0.8-1c-0.2-0.2-0.5-0.3-0.7-0.4c-0.1,0.2-0.3,0.4-0.2,0.6C133.7,70.9,133.9,71.1,134.2,71.4z M158,65.6
		c0,0,0.1-0.1,0.1-0.1c-0.5-0.9-0.9-1.8-1.4-2.7c-0.9-1.8-2.2-2.3-4-1.5c0.3,0.6,0.8,0.7,1.4,0.5c0.2,0,0.4-0.1,0.5,0
		c0.8,0.4,1.5,0.9,1.8,1.9c0.1,0.5,0.5,1,0.6,1.6c0.2,0.5,0.9,1,1.4,1.3c0.5,0.3,0.8,1.3,1.6,0.4c1,0.6,1.3-0.5,1.9-0.9
		c0.2-0.1,0.1-0.5,0.2-0.7c0.2-0.3,0.4-0.5,0.6-0.8c-0.9-0.4-1.1,0.1-1.3,0.6c-0.5,1.3-1.6,1.6-2.7,0.9
		C158.5,65.8,158.2,65.8,158,65.6z M187.5,85.2c-0.8-0.7-1.5-1.1-2.5-0.7c-1.2,0.4-2.5,0.7-3.7,1.1c-1.1,0.3-1.1,0.3-0.8,1.4
		C182.8,86.4,185.1,85.8,187.5,85.2z M59.8,94.7c0,0.1,0.1,0.2,0.1,0.2c1.1-0.3,2.3-0.7,3.6-1.1c0.2-1.4,1.9-1,2.9-1.8
		c0-0.1-0.1-0.2-0.1-0.3c-3,0.8-6,1.6-9,2.5c0,0.1,0,0.2,0.1,0.3c1.1-0.3,2.2-0.5,3.3-0.8c0,0,0.1,0.1,0.1,0.1
		C60.4,94.1,60.1,94.4,59.8,94.7z M203,114.1c-0.4-0.6-0.8-1.4-1.3-2.2c0,1.7,1.1,2.8,2.3,3.7c0.6,0.4,1.3,1.1,2.2,0.6
		c0,0,0-0.1,0.1-0.1c-0.2,0-0.3-0.1-0.5-0.1c1-0.7,0.1-1.3,0-2C204.9,114,204,114,203,114.1z M145.8,56.6c2.8-0.6,2.8-0.6,3.1-1.1
		c-0.1,0-0.2,0-0.3,0c-1.4,0.5-2.7,0.8-4.2,0.5c-0.7-0.1-1.5-0.2-2.1,0c-1.1,0.4-2,1.1-3,1.6c-0.2,0.1-0.4,0.5-0.6,0.7
		c0.1,0.1,0.1,0.1,0.2,0.2c1-0.7,2.1-1.3,3.1-2c0.3,0.7,0.6,1.2,0.8,1.8c0,0,0.1,0,0.1-0.1c-0.1-0.6-0.2-1.2-0.3-1.9
		c0.3,0,0.6,0,0.9,0c1.1,0.1,1.9,0.4,2.2,1.5c0.1,0.3,0.4,0.6,0.5,0.9c0.1,0,0.1-0.1,0.2-0.1C146.3,58,146.1,57.3,145.8,56.6z
		 M138.1,75.3c0,0,0.1,0.1,0.1,0.1c0.1-0.1,0.2-0.1,0.2-0.2c1-1.9,2-3.8,3.1-5.7c0.4-0.8,0.1-1.3-0.2-1.9c-0.1,0-0.2,0-0.3-0.1
		C140,70.1,139,72.7,138.1,75.3z M108.1,106.5c2.4,0.2,4.7,0.3,7,0.5c0-0.1,0-0.2,0.1-0.2c-0.2-0.1-0.4-0.2-0.6-0.3
		c-1.2-0.3-2.5-0.6-3.7-1C109.4,105,108.7,105.3,108.1,106.5z M200,87.7c-0.5-0.6-7.4-1.4-9.7-1c1.2,0.4,2.2,0.7,3.4,1.1
		c-0.1-0.3-0.2-0.4-0.3-0.6c1.6,0.2,3.2-0.2,4.6,0.8c-0.1-0.1-0.1-0.2-0.2-0.4C198.6,87.7,199.3,87.7,200,87.7z M84.5,104.6
		c1.7-0.2,3,0.6,4.2,1.6c0.5,0.4,1,0.7,1.5,1.1c0.1-0.1,0.1-0.2,0.2-0.2c-1.2-1.3-2.4-2.6-4.1-3.3C85.2,103.2,85,103.3,84.5,104.6z
		 M85.5,132.4c1.1-0.7,1.1-1.8,1.6-2.7c0.1-0.1-0.2-0.4-0.3-0.6c0.9-0.3,1.3-0.8,1.2-1.6c-0.1-0.4,0-1-0.8-0.9
		c0.1,1-0.1,1.9-1.1,2.3C86.7,130.2,85.3,131.1,85.5,132.4z M180.7,81.9c0.7-0.2,1.4-0.3,2-0.5c0.2,0,0.4-0.3,0.4-0.4
		c-0.1-0.3-0.3-0.6-0.4-0.9c-0.1-0.1,0-0.3-0.1-0.5c-0.4,0.1-0.8,0.2-1.2,0.3c-0.2,0.1-0.5,0.1-0.5,0.3
		C180.8,80.7,180.8,81.2,180.7,81.9z M180.5,83.1c0,0.6-0.1,1.2-0.2,2c1.1-0.6,2-1.1,2.9-1.7c-0.1,0-0.3-0.1-0.4-0.1
		c0.2-0.2,0.4-0.3,0.6-0.5C182.5,82.9,181.5,83,180.5,83.1z M93.3,90.1c0,0.1,0.1,0.2,0.1,0.3c1.2,0.1,2.5,0.3,3.7,0.4
		c0.2,0,0.4-0.4,0.6-0.7c-1.3-0.2-2.4-0.4-3.5-0.4C94,89.7,93.6,89.9,93.3,90.1z M211.9,74.7c0.2-0.1,0.3-0.1,0.6-0.2
		c-2.2-0.4-4.2-0.7-6.2-1.1c0,0.1,0,0.2,0,0.2c0.2,0.1,0.3,0.1,0.5,0.2c-0.3,0.1-0.5,0.1-0.7,0.1c0,0.1,0,0.2,0,0.2
		c0.5,0.1,1,0.1,1.5,0.2c0-0.1,0-0.2,0-0.2c-0.1-0.1-0.3-0.1-0.4-0.2c0,0,0-0.1,0-0.1c0.6,0.1,1.2,0.2,1.8,0.3
		c-0.2,0.1-0.3,0.1-0.5,0.2c0.5,0.1,0.9,0.3,1.2,0.4c0.1-0.2,0.2-0.5,0.3-0.5c0.4,0.1,0.7,0.3,1.1,0.4c0.4,0.1,0.8,0.2,1.1,0.3
		c0-0.1,0-0.1,0-0.2C212.1,74.8,212.1,74.7,211.9,74.7z M181.3,79.2c1.6-0.2,1.6,0,1.3-2.1C181.3,77.3,181.3,78,181.3,79.2z
		 M55.6,115.4c-0.3,0.6-0.6,1-0.9,1.5c-0.1,0.2-0.1,0.5,0,0.6c0.2,0.1,0.5,0.2,0.7,0.1c0.4-0.1,0.7-0.4,1.2-0.6
		C56.2,116.5,56,116,55.6,115.4z M97.9,110.7c-1.7-0.2-2.1,0.1-2,1.4C96.8,112.2,97.4,111.8,97.9,110.7z M96.5,94.7
		c-1.2,0.2-2.2,0.5-3.4,0.7C94.5,96.1,96.2,95.8,96.5,94.7z M92.6,91.7c1.3,0.3,2.5,0.6,3.8,0.9c0-0.1,0-0.2,0.1-0.2
		C95.6,91.7,93.5,91.2,92.6,91.7z M164.7,104.8c-0.3-0.5-0.6-0.8-0.9-1.3c-0.1,2.1-0.1,2.1,1.7,1.7c0.2,0,0.3,0,0.5-0.1
		c0.1-0.1,0.2-0.2,0.4-0.4C165.6,104.7,165.1,104.7,164.7,104.8z M90.6,95.4c0.9-0.1,1.7-0.2,2.6-0.3C91.8,94.2,91,94.3,90.6,95.4z
		 M90.3,109.5c0,0,0,0.1,0,0.1c0.6,0,1.2,0,2.1,0c-0.5-0.6-0.9-1.2-1.4-1.7c-0.1,0.1-0.1,0.1-0.2,0.2c0.2,0.4,0.3,0.7,0.4,1
		C90.9,109.2,90.6,109.3,90.3,109.5z M140.5,94.5c0-0.1,0.1-0.2,0.1-0.2c-1.1-0.3-2.2-1-3.4-0.9c0,0.1,0,0.2-0.1,0.3
		C138.2,94,139.4,94.2,140.5,94.5z M93.5,94.2c0.9,0.8,1.9,0.7,2.8,0C95.4,94.2,94.5,94.2,93.5,94.2z M184.2,69.7
		c-0.1,0-0.1,0-0.2-0.1c-0.4,1.2-0.8,2.5-1.2,3.7c0,0,0.2,0.1,0.3,0.2C183.5,72.3,183.8,71,184.2,69.7z M109.2,92.3
		c-0.6-0.2-1-0.3-1.6-0.4c0.1,0.6,0.2,1,0.3,1.5C108.2,93,108.6,92.7,109.2,92.3z M170.8,117.1c0.5,0.1,1,0.3,1.2,0.1
		c0.4-0.4,0.4-0.9-0.1-1.3C171.6,116.3,171.3,116.6,170.8,117.1z M171.9,118.7c0.5,0.1,0.9,0.3,1.1,0.2c0.5-0.4,0.4-0.9-0.1-1.4
		C172.6,117.8,172.3,118.2,171.9,118.7z M154.6,62.6c-0.3,1.1-0.1,1.4,1.3,1.7C155.4,63.6,155,63.1,154.6,62.6z M59.9,99.7
		c0-0.1,0-0.2,0-0.3c-0.2-0.1-0.5-0.4-0.6-0.3c-0.4,0.3-0.8,0.7-1.2,1c0.1,0.1,0.1,0.1,0.2,0.2C58.8,100.1,59.3,99.9,59.9,99.7z
		 M163,106.8c-0.1,0.5-0.2,0.9-0.3,1.3c0.3,0,0.6,0.1,0.8-0.1C164,107.6,163.6,107.3,163,106.8z M170,115.4c0.5-0.5,1.1-0.9,0.3-1.7
		c-0.3,0.4-0.5,0.7-0.9,1.1c0.3,0,0.5-0.1,0.6-0.1C170,115,170,115.2,170,115.4z M196.6,73.6c0-0.1,0-0.3,0-0.4
		c-0.8,0.1-1.6,0.2-2.4,0.3c0,0.1,0,0.2,0,0.3C195,73.7,195.8,73.7,196.6,73.6z M176.6,124.2c-1.1-0.1-0.1-0.5-0.2-1.1
		c-0.4,0.5-0.8,0.8-1.1,1.1c0.1,0.1,0.1,0.1,0.2,0.2c0.1-0.1,0.3-0.1,0.4-0.2c0,0.2-0.1,0.5-0.1,0.7c0.1,0,0.1,0,0.2,0.1
		C176.2,124.8,176.4,124.6,176.6,124.2z M92.1,92.7c0.8-0.1,1.5-0.1,2.2-0.2C93.5,92,92.6,92.1,92.1,92.7z M65.5,92.6
		c-0.5,0.2-1,0.5-1.5,0.8C64.9,93.9,65.3,93.5,65.5,92.6z M203.4,88.3c0,0.1-0.1,0.1-0.1,0.2c0.3,0.2,0.6,0.4,0.8,0.6
		c0.4-0.7,1,0.1,1.7-0.1C204.9,88.7,204.2,88.5,203.4,88.3z M176.1,122.4c-1.2,0-1.1,0.6-0.9,1.5
		C175.5,123.3,175.7,122.9,176.1,122.4z M182.6,74.8c-0.2,0.3-0.5,0.6-0.8,1C182.9,76.1,182.9,75.6,182.6,74.8z"/>
	<path class="st0"  d="M146.5,29.3c-0.5,0.6-0.9,1-1.3,1.4c-0.8,0.9-2,1.4-3.1,1.6c-0.6,0.1-0.7,0.3-0.7,0.8c0,1.7,0,3.5,0,5.2
		c0,0.7-0.3,1-0.9,1.2c-0.8,0.2-1.5,0.3-2.3,0.4c-0.7,0.1-1.2-0.1-1.2-0.9c0-0.3-0.1-0.6-0.2-1.1c-0.9,1.8-2.2,2.7-3.9,3.2
		c-1.7,0.5-3.3,0.2-4.6-1.2c-0.1,0.2-0.1,0.2-0.1,0.2c0,1.6,0.2,1.4-2.3,1.9c-1.8,0.4-3.7,0.7-5.5,1c-1.5,0.3-3,0.5-4.5,0.7
		c-0.8,0.1-1.1-0.3-1.2-1c-0.1-0.6-0.2-1.3-0.2-1.9c0-1.1,0-2.3,0-3.4c0-0.2-0.3-0.4-0.4-0.5c-0.1,0.2-0.3,0.4-0.4,0.5
		c-0.1,0.1,0,0.3,0,0.5c0,1.8,0,3.5,0,5.3c0,0.6-0.2,1-0.8,1.1c-0.9,0.1-1.7,0.3-2.6,0.4c-0.6,0.1-0.9-0.2-0.9-0.8
		c-0.1-1.5-0.1-3-0.2-4.5c0-3.9,0-7.7,0-11.6c0-1.4,0.2-1.7,1.6-1.9c1.6-0.3,3.3-0.5,4.9-0.6c1.4-0.1,2.3,0.7,2.9,1.9
		c0.1,0.2,0.2,0.4,0.5,0.7c0-0.8,0-1.5,0-2.3c0-0.8,0.2-1.2,1.1-1.3c2.3-0.4,4.6-0.9,6.9-1.3c0.8-0.1,1.2,0.5,1.2,1.4
		c1.1-1.4,2.5-2.3,4.3-2.5c1.8-0.2,3.4,0.2,4.3,2.1c0.1-0.1,0.1-0.1,0.2-0.2c0-0.4,0-0.8,0-1.2c-0.1-0.9,0.2-1.4,1.2-1.5
		c1.6-0.2,3.1-0.6,4.7-0.8c1-0.1,2,0.4,2.8,1.2c0.2,0.2,0.4,0.4,0.7,0.5c0-0.5,0-0.9,0-1.4c-0.1-0.8,0.3-1.2,1-1.3
		c1.9-0.3,3.7-0.7,5.6-1c0.2,0,0.3-0.1,0.5-0.1c1.2-0.1,1.8-0.3,2,1.5c0.9-1.4,2.2-2.3,3.7-2.7c1.6-0.4,3-0.2,4.4,1
		c-0.1-2.2,1.5-1.7,2.6-2c2.1-0.5,4.3-0.8,6.4-1.1c0.6-0.1,1,0.2,1.1,0.9c0,0.8,0,1.7,0,2.5c0,0.3-0.3,0.6-0.5,0.7
		c-0.4,0.2-0.9,0.4-1.3,0.3c-0.7,0-0.8,0.3-0.8,0.9c0,4.1,0,8.2,0,12.3c0,1.2-0.2,1.5-1.3,1.7c-0.6,0.1-1.1,0.2-1.7,0.3
		c-1,0.2-1.5-0.2-1.5-1.2c0-4,0-8,0-12c0-0.3,0-0.6,0-1.1c-0.6,0.1-1.2,0.2-1.8,0.3c0,0.7,0,1.3,0,1.9c0,1.3,0,1.4-1.3,1.6
		c-0.7,0.1-1.4,0.2-2,0.3c-0.7,0.1-1-0.3-1-0.9c0-0.7,0-1.4,0-2.2c-0.5-0.1-0.8-0.1-0.8,0.5c0,3.4,0,6.8,0,10.1
		c0.7,0.1,0.8-0.3,0.8-0.8c0-0.8-0.1-1.6,0-2.4c0-0.4,0.4-0.9,0.7-1c0.9-0.2,1.8-0.4,2.8-0.4c0.3,0,0.9,0.5,0.9,0.7
		c0.1,1.6,0.1,3.3-0.4,4.8c-1,2.6-4.4,4.2-6.9,3.1c-0.6-0.3-1.2-0.8-1.8-1.3c0,0.4,0,0.7,0,1.1c0,0.7-0.4,1-1.1,1.1
		c-2.1,0.4-4.3,0.7-6.4,1.1c-1.2,0.2-1.6,0-1.6-1.3C146.5,34.5,146.5,32,146.5,29.3z M118.1,42.5c0-1.9,0-3.7,0-5.5
		c0-1.3-0.1-2.4-1.6-2.9c0.8-0.6,1.5-1.3,1.5-2.4c0-1.2,0.2-2.3,0-3.5c-0.3-1.8-0.9-2.3-2.7-2.1c-1.7,0.1-3.4,0.4-5,0.6
		c0,5.8,0,11.4,0,17.1c0.7-0.1,1.3-0.3,1.9-0.3c0.6,0,0.8-0.3,0.8-0.9c0-1.9,0-3.9,0-5.8c0-0.3,0.3-0.8,0.5-0.9
		c1.3-0.4,1.9,0.1,1.9,1.5c0,1.7,0,3.5,0,5.4C116.5,42.8,117.4,42.7,118.1,42.5z M161.2,23.7c0.8-0.1,1.6-0.2,2.3-0.4
		c0.1,0,0.3-0.4,0.3-0.6c0-0.7,0-1.4-0.1-2.2c-0.2-1.6-0.9-2.5-2.3-2.6c-0.6,0-1.2-0.1-1.8,0c-1.2,0.2-2.2,0.8-3,1.8
		c-0.7,1.1-0.8,2.4-0.9,3.6c-0.1,2.7,0,5.3,0,8c0,0.8,0.1,1.6,0.4,2.3c0.2,0.6,0.7,1.2,1.3,1.5c1.9,0.9,4.5-0.3,5.4-1.6
		c1.1-1.7,1-3.6,1-5.6c-0.9,0.2-1.8,0.3-2.7,0.4c0,0.9,0,1.8,0,2.7c0,0.4-0.1,0.9-0.4,1.1c-0.4,0.3-0.9,0.6-1.4,0.6
		c-0.4,0-0.8-0.4-0.8-1c0-0.7-0.1-1.4-0.1-2.1c0-2.7,0.1-5.5,0.2-8.2c0-0.8,0.8-1.5,1.5-1.4c0.6,0,1,0.5,1,1.5
		C161.2,22.3,161.2,22.9,161.2,23.7z M130.9,35.3c-0.1,0-0.2,0.1-0.4,0.1c-2.2,0.2-2.2,0.2-2,2.3c0,0.3,0.1,0.7,0.2,1
		c0.3,0.8,0.8,1.4,1.7,1.6c0.9,0.1,1.8,0.1,2.7-0.1c3.5-0.9,4.3-5.5,2.4-8c-0.8-1-1.8-1.8-2.9-2.6c-1-0.8-1.5-1.7-1.4-3
		c0.1-0.8,0.8-1.4,1.5-1.4c0.7,0,1,0.5,1,1.4c0,0.2,0,0.4,0,0.6c0.1,0.1,0.3,0.3,0.4,0.3c0.4,0,0.9-0.2,1.3-0.2
		c0.9,0,1.1-0.6,0.9-1.4c-0.1-0.6-0.2-1.2-0.4-1.7c-0.3-0.5-0.7-1.1-1.2-1.3c-1.6-0.6-3.8-0.3-5,1.1c-1.9,2.3-2,5.1,0.2,7.2
		c0.8,0.7,1.6,1.4,2.4,2.1c1.2,1,1.7,2.4,1.1,3.6c-0.3,0.6-0.9,1-1.5,0.9c-0.3,0-0.8-0.4-0.9-0.7C130.9,36.6,130.9,36,130.9,35.3z
		 M137.9,39.1c0.6-0.1,1.2-0.3,1.8-0.3c0.7,0,0.9-0.3,0.9-1c0-2,0-4,0-6c0.4-0.1,0.7-0.2,1-0.2c2.4-0.4,3.7-1.5,4.1-3.8
		c0.2-1.4,0.2-2.8,0-4.2c-0.2-1.7-1.1-2.4-2.8-2.3c-1.7,0.1-3.3,0.4-4.9,0.6C137.9,27.7,137.9,33.3,137.9,39.1z M122.7,31.6
		c0-1.3,0.1-2.4,0-3.5c-0.1-0.7,0.3-1,0.9-1.1c1-0.2,2.1-0.3,3.1-0.5c0.3-0.1,0.6-0.4,0.7-0.6c0.1-0.6,0-1.2,0-1.9
		c-2.5,0.4-5,0.9-7.3,1.3c0,5.7,0,11.3,0,16.9c0.2,0,0.4,0,0.5,0c1.5-0.3,3-0.5,4.5-0.8c0.7-0.1,1.7-0.1,2-0.5
		c0.4-0.5,0.2-1.4,0.2-2.3c-1.6,0.3-3.1,0.5-4.6,0.7c0-1.7,0-3.4,0-5.1c1.1-0.2,2.1-0.4,3.1-0.6c0.2-0.1,0.5-0.3,0.5-0.5
		c0.1-0.6,0-1.3,0-2C125.1,31.2,123.9,31.4,122.7,31.6z M147.3,37.4c2.5-0.4,4.8-0.9,7.1-1.3c0-0.8,0-1.6,0-2.5
		c-1.5,0.2-3,0.5-4.5,0.7c0-1.6,0-3.1,0-4.6c0-0.5,0.2-0.6,0.6-0.7c1-0.2,2-0.4,3-0.5c0-0.9,0-1.7,0-2.4c-1.2,0.2-2.4,0.4-3.6,0.6
		c0-1.5,0-2.9,0-4.4c1.4-0.3,2.7-0.5,3.9-0.8c0.2,0,0.5-0.3,0.5-0.5c0.1-0.6,0-1.3,0-1.9c-0.1,0-0.2-0.1-0.2-0.1
		c-2,0.4-4,0.8-6.1,1.1c-0.8,0.1-0.9,0.5-0.9,1.2c0,5,0,10.1,0,15.1C147.3,36.7,147.3,37,147.3,37.4z M170.3,18.8
		c0.7-0.1,1.4-0.2,2.1-0.4c0.2-0.1,0.5-0.3,0.6-0.5c0.1-0.6,0-1.3,0-2c-2.8,0.5-5.5,1-8.2,1.4c0,0.9,0,1.7,0,2.5
		c0.9-0.2,1.7-0.3,2.7-0.5c0,4.9,0,9.7,0,14.5c1-0.2,1.9-0.4,2.8-0.5C170.3,28.4,170.3,23.7,170.3,18.8z M123.7,30.5
		c0.6-0.1,1.2-0.2,1.7-0.3c1.1-0.2,1.7-0.1,1.8,0.7c0.1,0.9,0,1.8-0.1,2.7c0,0.3-0.5,0.6-0.8,0.7c-0.7,0.2-1.4,0.2-2.1,0.4
		c-0.2,0.1-0.5,0.4-0.5,0.5c-0.1,1,0,1.9,0,2.9c1.3-0.2,2.6-0.5,3.9-0.7c0-0.6,0-1,0-1.5c-0.1-0.8,0.4-1.1,1.1-1.3
		c0.6-0.2,1.3-0.2,1.9-0.3c0.8-0.1,1.3,0.3,1.4,1.1c0,0.4,0,0.9,0,1.3c0.5,0.1,0.8,0,0.9-0.5c0.2-1.2-0.4-2-1.3-2.7
		c-0.7-0.5-1.4-1-2-1.6c-1.4-1.2-1.9-2.8-1.9-4.7c-1.3,0.2-2.5,0.4-3.8,0.6C123.7,28.8,123.7,29.6,123.7,30.5z M155,22.4
		c-1,0.2-1.9,0.3-2.8,0.4c-1.3,0.3-1.3,0.3-1.3,1.7c0,0.4,0,0.7,0,1.1c0.3,0,0.5,0,0.8,0c0.4-0.1,0.8-0.2,1.2-0.3
		c1.1-0.3,1.7,0.3,1.6,1.2c-0.1,0.6,0,1.3,0,1.9c0,0.5-0.2,0.9-0.8,1c-0.9,0.2-1.8,0.4-2.7,0.5c0,1.1,0,2.2,0,3.3
		c1.2-0.2,2.4-0.4,3.5-0.6c0.2,0,0.5-0.3,0.5-0.5C155,29,155,25.8,155,22.4z M136.9,27.9c-0.8,0.1-1.4,0.3-2.1,0.4
		c-1.3,0.1-1.9,0.4-1.9-1.5c0-0.2,0-0.4,0-0.6c-0.7,0-0.7,0-0.8,0.5c-0.1,0.9,0.3,1.6,0.9,2.1c1.3,1.1,2.7,2.3,3.9,3.3
		C136.9,30.9,136.9,29.4,136.9,27.9z M119.1,32.1c-1.1,1.4-1.1,2,0,3.4C119.1,34.3,119.1,33.3,119.1,32.1z"/>
	<path class="st0"  d="M148.9,46.8c0,0.4,0,0.8,0,1.3c0.5-0.1,1-0.1,1.5-0.2c0.7-0.2,1.1,0.2,1.2,0.8c0.1,0.5,0,1.2-0.1,1.7
		c-0.1,0.3-0.4,0.7-0.7,0.7c-2.4,0.5-4.7,0.9-7.1,1.3c-0.2,0-0.4-0.1-0.6-0.1c-0.3,0-0.6,0.1-0.9,0.2c-0.8,0.2-1.6,0.4-2.5,0.4
		c-0.2,0-0.6-0.7-0.6-1.1c-0.1-2.1,0-4.3,0-6.4c0-0.3,0-0.6,0-0.9c-0.6-0.2-0.7,0.1-0.7,0.5c0,2.3,0,4.6,0,6.9c0,1.3,0,1.3-1.3,1.6
		c-0.1,0-0.1,0.1-0.2,0.1c-1.8,0.5-2-0.3-2-1.5c0-2.3,0-4.7,0-7c-1.4,0.2-1.7-0.1-1.7-1.3c0-1.7,0-1.7,1.7-2
		c2.1-0.3,4.1-0.8,6.1-1.1c0.4-0.1,0.8,0.1,1.2,0.1c0.6-0.2,1.2-0.5,1.8-0.6c1.7-0.3,3.5-0.6,5.2-0.9c0.4-0.1,0.9-0.2,1.3-0.3
		c0.1,0,0.2,0,0.3,0c0.6,0.2,0.9,1.1,0.8,2.1c-0.1,0.6-0.3,1.1-1,1.2c-0.4,0-0.8,0.1-1.1,0.2c-0.5,0.1-0.9,0.3-0.6,0.8
		c0.7,0.1,1.4,0,1.9,0.4c0.3,0.2,0.2,1.1,0.2,1.6C151,46.4,150.9,46.5,148.9,46.8z M139.9,52.1c1.7-0.2,1.7-0.2,1.7-1.7
		c0-1.1,0-2.2,0-3.2c0.7-0.1,1.2-0.1,1.8-0.2c0,1.6,0,3,0,4.6c0.5-0.1,0.9-0.1,1.4-0.2c0.1,0,0.3-0.2,0.3-0.4c0-0.8,0-1.6,0-2.5
		c0-2.5,0-5,0-7.5c-1.5-0.2-1.8,0-1.8,1.4c0,1,0,2,0,3c-0.6,0.1-1.1,0.2-1.7,0.3c0-1.5,0-2.8,0-4.2c-0.3,0.1-0.5,0.2-0.7,0.2
		c-0.8-0.1-1,0.4-1,1.1c0,2.4,0,4.9,0,7.3C139.9,50.7,139.9,51.4,139.9,52.1z M146.3,40.6c0,3.5,0,6.9,0,10.4
		c0.8-0.1,1.5-0.3,2.2-0.4c0.7-0.1,1.4-0.3,2.1-0.4c0-0.5,0-1,0-1.5c-0.9,0.1-1.7,0.3-2.6,0.4c0-0.6,0-1.1,0-1.6
		c0-1.6,0-1.6,1.6-1.8c0.2,0,0.5-0.3,0.5-0.5c0.1-0.3,0-0.6,0-1c-0.8,0.1-1.4,0.2-2.2,0.3c0-0.8,0-1.5,0-2.1c0-0.2,0.3-0.5,0.6-0.6
		c0.7-0.2,1.4-0.3,2.1-0.4c0-0.5,0-0.9,0-1.5C149.2,40.1,147.7,40.3,146.3,40.6z M139.2,41.8c-1.7,0.3-3.4,0.6-5.1,0.9
		c-0.1,1.4-0.1,1.4,1.1,1.3c0.2,0,0.4,0,0.7,0c0,2.9,0,5.8,0,8.7c1.8-0.1,1.7-0.2,1.7-1.4c0-2.3,0-4.7,0-7c0-0.4,0-0.7,0.5-0.8
		C139.3,43.4,139.3,43.3,139.2,41.8z"/>
	<path class="st0"  d="M88.2,81.2c-0.8,1.5-1.5,2.9-2.2,4.2c-2.3,4.4-4.8,8.7-7.7,12.7c-1.8,2.6-3.8,5.1-5.8,7.5c-1.9,2.3-4,4.4-6.4,6.1
		c-0.8,0.5-1.6,0.9-2.5,1.3c-0.9,0.4-1.3,0-1.3-0.9c0-1.7,0.7-3.1,1.5-4.5c1.7-2.6,3.4-5.2,5.3-7.7c3.5-4.7,7.5-8.9,11.8-12.9
		c2.2-2.1,4.7-3.8,7-5.7C87.8,81.3,87.9,81.3,88.2,81.2z M71.5,103.6c-3,0.4-6.1,3.1-5.8,5.7c0.8-1.1,1.4-2.3,2.3-3.2
		C68.9,105.2,70.2,104.5,71.5,103.6z M69.7,102.4c1.8-1.2,4.1-1.6,5.4-3.6C73.2,99.7,70.8,100.1,69.7,102.4z M78.4,94.2
		c0-0.1-0.1-0.2-0.1-0.2c-0.8,0.4-1.7,0.7-2.5,1.1c0,0.1,0.1,0.2,0.1,0.3C76.7,94.9,77.9,95.3,78.4,94.2z M76.8,94.1
		c0.9-0.4,1.7-0.7,2.4-1c0-0.1-0.1-0.2-0.1-0.2C77.8,92.8,77.4,92.9,76.8,94.1z M79.7,92.4c0-0.2-0.1-0.3-0.1-0.5
		c-0.5,0.2-1,0.3-1.5,0.5c0,0.1,0.1,0.2,0.1,0.3C78.7,92.6,79.2,92.5,79.7,92.4z"/>
	<path class="st0"  d="M149.3,74.3c0-0.7,0-1.3,0-2c0.7,0,1.4,0,2.2,0c0,0.7,0,1.3,0,2.1c1.8,0.3,3.5,0.5,4.5,2.2c0.4,0.6,0.5,1.4,0.7,2.3
		c-1.3,0-2.4,0-3.5,0c-0.1,0-0.3-0.2-0.4-0.3c-0.4-0.2-0.7-0.5-1.3-0.8c0,0.8,0,1.3,0,1.8c1.1,0.2,2.2,0.5,3.2,0.8
		c1.2,0.4,1.8,1.3,1.9,2.5c0.2,1.6,0.1,3-1.2,4.2c-0.9,0.8-2,1.1-3.2,1.2c-0.7,0.1-0.9,0.3-0.9,1c0,0.4,0,0.8,0,1.2
		c-0.7,0-1.4,0-2.1,0c0-0.6,0-1.2,0-1.9c-4.7-1-5.2-1.8-5.4-4.8c1.1,0,2.2,0,3.3,0c0.1,0,0.2,0.2,0.4,0.2c0.5,0.4,0.9,0.7,1.4,1.1
		c0.1-0.1,0.2-0.1,0.2-0.2c0-0.5,0-1,0-1.5c0-0.2-0.3-0.4-0.5-0.5c-0.9-0.3-1.9-0.5-2.8-0.8c-1.2-0.4-1.7-1.3-1.8-2.4
		c-0.4-2.7,1-4.5,3.7-5C148.3,74.5,148.7,74.4,149.3,74.3z M151.5,84.8c1.1-0.1,1.7-0.7,1.5-1.4c-0.3-0.7-0.9-0.4-1.5-0.4
		C151.5,83.6,151.5,84.2,151.5,84.8z M149.3,77.8c-1,0.2-1.7,0.8-1.4,1.2c0.2,0.3,0.9,0.4,1.4,0.6C149.3,78.9,149.3,78.4,149.3,77.8
		z"/>
	<path class="st0"  d="M183,102.4c-0.4-0.3-0.9-0.6-1.3-0.9c-0.1,0,0-0.2,0-0.3c0.1,0.1,0.2,0.2,0.2,0.2c0.5-0.1,1-0.2,1.8-0.3
		c-0.5-0.6-1-1.1-1.3-1.4c0.7-0.1,1.7-1,2.6,0.4c-0.4,0.2-0.7,0.4-1.1,0.7c0,0.1,0,0.2,0,0.3c0.4-0.1,0.9,0,1.1-0.2
		c0.7-0.5,1.1-0.2,1.7,0.4c-0.6,0.1-1.2,0.1-1.7,0.2c0.3,0.5,0.4,0.5,1.4,0.3c0.5-0.1,1.1,0,1.6,0.1c0,0.1,0,0.2,0,0.3
		c-0.6,0.1-1.2,0.3-1.9,0.4c1,0.7,2.3-0.5,3.3,0.6c-0.8,0.1-1.4,0.2-2.3,0.3c0.3,0.3,0.5,0.4,0.6,0.5c0.9-0.2,1.7-0.3,2.5-0.4
		c0.1,0,0.2,0,0.2,0c0.9-0.4,1.6,0,2.2,0.7c0.2,0.2,0.4,0.3,0.7,0.6c-0.5,0.1-0.8,0.1-1.1,0.2c0,0.1,0,0.2,0,0.3
		c0.6,0.1,1.2,0.2,1.8,0.2c0,0,0,0.1,0,0.1c-0.3,0-0.6,0.1-1,0.1c0.3,0.6,0.8,0.6,1.3,0.6c0.3,0,0.7,0.1,1,0.2c0,0.1,0,0.2,0,0.3
		c-0.3,0-0.7,0.1-1,0.1c0.2,0.5,0.4,0.6,1.1,0.4c0.7-0.2,0.9,0.1,1.1,0.5c-0.8,0.3-1.5,0.6-2.3,0.9c0.1,0.1,0.3,0.2,0.5,0.3
		c-0.5,0.2-1,0.3-1.7,0.5c0.4,0.2,0.6,0.4,0.9,0.5c0,0,0.1,0,0.2,0c0.4-0.1,0.8-0.4,1.2-0.4c0.3,0,0.6,0.3,1,0.6
		c-0.7,0.2-1.4,0.3-2.1,0.5c0.3,0.6,0.3,0.6,3,0.2c0.2,0.2,0.3,0.5,0.5,0.7c-0.5,0.1-1,0.2-1.6,0.2c-0.2,0-0.3-0.2-0.7-0.4
		c0,0-0.3,0-0.7,0c0.1,0.2,0.2,0.2,0.3,0.3c0.1,1.1,0.9,1.7,1.4,2.5c0.1,0.1,0.3,0.1,0.5,0.1c0.8,0.2,1.1-0.3,1.4-1
		c0.2,0.3,0.4,0.5,0.5,0.7c0.1-0.1,0.1-0.1,0.2-0.2c0,0.2,0,0.4,0,0.5c-0.7,0.1-1.5,0.3-2.2,0.2c-0.4,0-0.9-0.5-1.2-0.8
		c-0.5-0.5-0.9-1-1.3-1.6c0.1-0.4-0.2-0.6-0.5-0.5c-0.6,0.2-1.1,0.4-1.7,0.5c0,0.1,0,0.2,0,0.3c0.4,0.1,0.7,0.1,1.1,0.2
		c-0.5,0.5-0.9,0.5-1.3-0.2c-1.8-2.9-4.1-5.4-6.6-7.8c-0.1-0.1-0.1-0.2-0.2-0.3c0.7-0.1,1.5,0.1,1.9-0.8c-0.3,0-0.6-0.1-0.8,0
		c-0.4,0.2-1.1,0.1-1.1,0.9c-0.4-0.3-0.8-0.6-1.2-0.8c0-0.1,0-0.1,0.1-0.2c0.8,0,1.6,0,2.6,0c-0.3-0.3-0.5-0.5-0.6-0.5
		c-0.7,0-1.4,0-2.2,0C183.6,102.8,183.3,102.5,183,102.4c0.7,0,1.4-0.1,2.2-0.1C184.6,101.6,183.4,101.8,183,102.4z M189.9,106.1
		c0.3,0,0.7,0,1,0c0.2,0,0.4,0.2,0.5,0.3c0,0.1-0.2,0.3-0.3,0.5c0.9,0.7,1.5,0.1,2-0.6c-0.6-0.6-1.2-1.3-1.9-1.9
		c-0.2-0.2-0.4-0.3-0.6-0.3c-0.7,0.1-1.3,0.2-2,0.4c0,0.1,0,0.1-0.1,0.2c0.7,0.3,1.5,0.6,2.2,0.9c0-0.1,0-0.1,0-0.2
		c-0.4,0.2-0.8,0.3-1.1,0.5c-0.7,0-1.4,0-2.1,0c0,0,0,0.1,0,0.1c0.1,0,0.2,0.1,0.3,0.1c-0.1,0.1-0.3,0.1-0.3,0.2
		c0.2,0.3,0.5,0.6,0.7,0.9c0,0,0.1-0.1,0.1-0.1c0-0.2-0.1-0.3-0.1-0.6c0.8,0.1,1.5,0.2,2.1,0.3C190.3,106.6,190.1,106.4,189.9,106.1
		z M191.1,108.5c0,0,0,0.1,0,0.1c-0.1,0-0.2,0-0.3,0c-0.2,0.2-0.4,0.4-0.7,0.6c0.3,0.1,0.6,0.2,0.9,0.3c0.1,0,0.3-0.1,0.4-0.1
		c0.4-0.1,0.8-0.2,1.2-0.3c-0.2-0.2-0.5-0.4-0.7-0.6c0,0,0-0.1,0-0.1c-0.2-0.3-0.3-0.6-0.5-0.9c-0.2,0.1-0.4,0.2-0.7,0.3
		c0.1-0.2,0.2-0.4,0.3-0.6c-0.2,0-0.4-0.1-0.6-0.1c-0.5,0.1-1.1,0.2-1.6,0.2c0,0.1,0,0.2-0.1,0.2c0.3,0.1,0.7,0.2,1,0.3
		c-0.1,0.1-0.2,0.2-0.5,0.6C190,108.6,190.6,108.5,191.1,108.5z M188.1,105c0-0.2,0.1-0.3,0.1-0.5c-0.2,0-0.5-0.1-0.7-0.1
		c-0.3,0.1-0.6,0.3-0.9,0.4c0,0.1,0,0.1,0.1,0.2c0.2,0,0.4,0.1,0.7,0.1c-0.3,0.1-0.5,0.2-0.7,0.3c0.5,0.5,1.6,0.4,2.6-0.1
		C188.8,105.2,188.4,105.1,188.1,105z M193.7,110.8c-0.6-1.4-1.5-1.6-2.8-0.7c0.1,0.2,0.2,0.3,0.3,0.4c0.5-0.2,1-0.4,1.4-0.4
		C192.9,110.2,193.3,110.6,193.7,110.8z M191.9,107.7c0.4,0.6,2.3,0.6,2.9,0.1C193.8,107.2,192.9,107.8,191.9,107.7z M184,101.1
		c-0.6,0.2-1,0.3-1.6,0.5C183.5,101.9,183.8,101.8,184,101.1z"/>
	<path class="st0"  d="M181.5,106.1c1.8,0,3.3,0.3,4.1,1.8c0.1,0.2,0.2,0.5,0.1,0.7c-0.3,1-0.9,1.5-1.8,2c-1.1,0.6-2.1,0.8-3.3,0.7
		c-1.2-0.1-2.6-0.7-2.7-2.2c0-0.6,0.1-1.3,0.5-1.7C179.3,106.6,180.4,105.8,181.5,106.1z"/>
	<path class="st0"  d="M179.3,116.9c-2.2-3.7-4.8-7-7.9-10c0.5-0.4,0.9-0.8,1.5-1.3c1.1,1.2,2.3,2.2,3.3,3.5c1.5,1.9,2.9,3.9,4.4,5.9
		c0.5,0.6,0.3,0.9-0.3,1.2C179.9,116.3,179.6,116.6,179.3,116.9z"/>
	<path class="st0"  d="M177.5,120.2c-0.7-0.2-1.6-0.4-1.7-1.6c-0.1-0.7,0.5-2,1.1-2.1c0.7-0.2,1.7,0.7,1.7,1.6c0,0.4-0.1,0.8-0.1,1.3
		c0.2,0.1,0.3,0.2,0.5,0.2c0.8,0.3,1.1,0.8,1.3,1.6c0.1,0.8-0.3,1.4-0.9,1.9c-0.8,0.5-1.8-0.2-1.9-1.3
		C177.4,121.4,177.5,120.8,177.5,120.2z M176.3,119.1c0.1,0.1,0.1,0.1,0.2,0.2c0.6-0.5,1.1-1,1.7-1.5c-0.1-0.1-0.1-0.1-0.2-0.2
		C177.3,117.8,176.6,118.2,176.3,119.1z M177.9,122c0.9,0.1,1.7-0.6,1.9-1.6C179,121,178.4,121.5,177.9,122z"/>
	<path class="st0"  d="M173.7,114.1c-1.4-1.6-2.8-3.2-4.2-4.9c-0.1-0.2-0.1-0.5-0.1-0.8c0.1,0,0.2-0.1,0.3-0.1c1,1.1,2,2.2,2.9,3.2
		c0.4,0.5,0.9,1,1.2,1.6C174.2,113.6,174.2,113.6,173.7,114.1z"/>
	<path class="st0"  d="M174,116c0.9,0,1.6-0.3,1.7-1.2c1.2-0.1,1.2-0.1,1.5,0.6c-0.7,0.8-1.3,1.5-2,2.3C174.9,117.4,174.5,116.8,174,116z"/>
	<path class="st0"  d="M172.4,114.1c-1.1-1.3-2.2-2.6-3.3-3.9c0.1-0.1,0.2-0.2,0.3-0.2c1.1,1.3,2.2,2.6,3.3,3.9
		C172.6,113.9,172.5,114,172.4,114.1z"/>
	<path class="st0"  d="M198.8,113.1c-0.6-0.1-1.1-0.3-1.7-0.4c-0.1,0.4-0.2,0.7-0.4,1.2c-0.4-0.7-0.6-1.1-0.8-1.6c0.7-0.3,1.4-0.2,2.1,0.2
		c0.1,0.1,0.4-0.1,0.6-0.1C198.6,112.7,198.7,112.9,198.8,113.1z"/>
	<path class="st0"  d="M200.1,58.1c0.1,3.2-3.6,10.5-5.9,9.7C195.7,64.3,197.7,61.2,200.1,58.1z"/>
	<path class="st0"  d="M112.1,110.6c1.2,0.4,2.5,0.8,3.6,1.4c2,1.1,1.5,2.9-0.1,3.8c-0.9,0.5-1.9,0.6-2.9,0.9c-1.7,0.4-3.3-0.2-4.8-0.5
		c-0.5-0.1-1-0.5-1.4-0.8c-0.6-0.6-0.5-1.5,0.2-2.3c1.1-1.2,2.6-1.8,4.1-2c0.4-0.1,0.8-0.1,1.2-0.2
		C112.1,110.7,112.1,110.7,112.1,110.6z M113.9,112.3c0.2,0.2,0.4,0.4,0.5,0.5c0.1,0.4,0.3,0.9,0.2,1.2c-0.2,0.8-2.6,1.7-2.8,1.2
		c0.1-0.1,0.2-0.2,0.3-0.3c-0.4-0.4-1.3,0-1.4-0.9c-0.2,0.1-0.6,0.1-0.7,0.3c-0.1,0.2,0,0.5,0,0.9c-0.6-0.3-1.1-0.5-1.7-0.8
		c0.4-0.3,0.7-0.5,1-0.8c-0.3-0.1-0.5-0.1-0.6-0.1c0.5-0.7,0.9-1.8,2-1.4c0,0.3-0.1,0.6-0.1,0.8c0.9-0.1,1.7-0.2,2.5-0.2
		c0.2,0,0.6,0.3,0.7,0.6c0.1,0.2-0.1,0.5-0.2,0.7c-0.1,0.2-0.2,0.3-0.3,0.6c0.9-0.2,1.2-0.7,1-1.2c-0.4-0.9-1.3-1.2-2-1.7
		c-0.4-0.2-1.1-0.2-1.6,0c-0.9,0.3-1.8,0.7-2.5,1.2c-0.7,0.6-0.5,1.6,0.3,2c1.8,0.9,3.7,0.9,5.5,0.2c0.7-0.3,1.3-0.8,1.3-1.6
		C115.2,113,114.8,112.5,113.9,112.3z"/>
	<path class="st0"  d="M123.3,112c1.1,0.1,1.2,0.5,1,1.3c-0.6,2.5-1.1,5-1.6,7.5c0,0.1-0.1,0.2-0.1,0.3c-1.1,0-1.3-0.3-1-1.2
		C122.1,117.3,122.7,114.6,123.3,112z"/>
	<path class="st0"  d="M121.9,110.3c-0.7,2.9-1.5,5.7-2.2,8.6c-0.1,0.5-0.1,0.9-0.3,1.4c-0.1,0.2-0.3,0.4-0.5,0.6c-0.1-0.3-0.3-0.5-0.3-0.7
		c0.5-2.2,1.1-4.5,1.6-6.7c0.3-1,0.6-1.9,1-2.9c0.1-0.2,0.3-0.3,0.5-0.5C121.8,110.1,121.9,110.2,121.9,110.3z"/>
	<path class="st0"  d="M104.3,117.2c-0.2,0.7-0.3,1.4-0.6,1.9c-0.2,0.3-0.7,0.6-1.1,0.7c-0.6,0.1-1.2,0-1.7,0C100.8,117.8,101.7,117,104.3,117.2z
		"/>
	<path class="st0"  d="M118.4,119.2c-0.3-0.1-0.5-0.2-0.7-0.3c0.7-2.5,1.4-5,2.1-7.4c0.1-0.2,0.3-0.3,0.5-0.5c0,0.2,0.2,0.5,0.1,0.7
		C119.7,114.2,119,116.6,118.4,119.2z"/>
	<path class="st0"  d="M124.8,120.7c-0.6-0.1-0.8-0.3-0.6-1c0.4-1.7,0.7-3.4,1.1-5.1c0-0.2,0.3-0.4,0.5-0.5c0.1,0.2,0.3,0.5,0.3,0.7
		C125.6,116.7,125.2,118.7,124.8,120.7z"/>
	<path class="st0"  d="M126.5,121.2c-0.5-0.7-1-1.6-0.5-2.7c0.3-0.7,0.9-0.7,1.6-0.6c-0.5,0.3-0.8,0.4-1.1,1.4
		C126.2,119.8,126.4,120.6,126.5,121.2z"/>
	<path class="st0"  d="M128.3,113.7c-0.2,0.5-1.5,0.3-0.8,1.2c-0.8,0.5-0.3,1.2-0.1,1.9c-0.7-0.6-1-1.4-0.7-2.2
		C126.9,113.9,127.5,113.6,128.3,113.7z"/>
	<path class="st0"  d="M125.7,121.5c0.1,0.7,0.2,1.4,0.3,2c-0.9-0.5-0.9-0.6-0.6-2C125.5,121.5,125.6,121.5,125.7,121.5z"/>
	<path class="st0"  d="M67.3,125.2c-0.6-0.2-1.6-0.2-2.5-0.6c-2-1-2.5-2.2-0.5-4c2-1.8,5.3-2.5,8-0.9c0.8,0.5,1.6,1.1,1.6,2.1
		c0,1-0.7,1.6-1.5,2.2C70.9,124.9,69.1,125,67.3,125.2z M70.5,120.3c0.2,0.1,0.5,0.3,0.7,0.4c0.5,0.4,0.6,0.9,0.4,1.4
		c-0.5,1.1-2.3,1.8-3.5,1.5c0.3-0.1,0.6-0.2,0.9-0.3c-0.3-0.7-1.7,0.4-1.4-1.1c-0.9-0.2-0.9,0.6-1,1.2c-0.3-0.1-0.6-0.2-0.9-0.4
		c-0.2-0.1-0.3-0.4-0.4-0.6c0.2-0.1,0.4-0.2,0.5-0.3c0.2-0.1,0.3-0.2,0.6-0.4c-0.4-0.1-0.6-0.2-0.8-0.2c0-0.1,0-0.1,0-0.2
		c0.3,0,0.6,0,0.9-0.1c0-0.2-0.1-0.5,0-0.5c0.6-0.3,1.2-0.5,1.8-0.8c0,0.1,0,0.1,0.1,0.2c-0.2,0.3-0.4,0.6-0.5,0.8
		c0.8,0.1,1.6,0.1,2.4,0.2c0.2,0,0.6,0.3,0.6,0.4c0,0.3-0.2,0.6-0.4,0.8c-0.3,0.3-0.6,0.5-1,0.8c0.1,0.1,0.2,0.2,0.2,0.3
		c0.5-0.5,1.4-0.9,1.5-1.5c0.2-0.7-0.4-1.3-1.2-1.5c0.1-0.2,0.2-0.3,0.3-0.6c-0.8,0-1.5-0.1-2.2,0c-1.2,0.2-2.3,0.6-3,1.8
		c-0.4,0.6-0.4,1.1,0.1,1.5c1.3,1.1,2.7,1.2,4.3,0.8c0.7-0.2,1.4-0.5,2-0.9c0.6-0.4,0.9-1.1,0.7-1.7
		C71.9,120.8,71.4,120.2,70.5,120.3z"/>
	<path class="st0"  d="M80.7,120.3c0.4,0.2,0.7,0.3,1,0.4c-0.8,1.6-1.6,3.2-2.4,4.8c-0.4,0.7-0.7,1.5-1,2.2c-0.5,1.1-0.5,1.1-1.9,0.8
		C77.9,125.8,79.3,123.1,80.7,120.3z"/>
	<path class="st0"  d="M55.9,128.2c0.7-1,1.3-2,1.9-2.9c0.1-0.1,0.5-0.1,0.7-0.1c0.6,0,1.3,0,2,0c-0.6,0.9-1,1.8-1.6,2.6
		c-0.2,0.2-0.5,0.4-0.8,0.4C57.4,128.3,56.7,128.2,55.9,128.2z"/>
	<path class="st0"  d="M73.6,128.6c1.7-3.1,3.4-6.3,5.2-9.4c0.1-0.2,0.4-0.3,0.6-0.4c0.1,0.1,0.1,0.1,0.2,0.2c-1.2,2.3-2.5,4.7-3.7,7
		c-0.5,0.9-0.9,1.8-1.4,2.6c-0.1,0.2-0.4,0.2-0.6,0.4C73.8,128.8,73.7,128.7,73.6,128.6z"/>
	<path class="st0"  d="M77.9,119.6c-0.1,0.2-0.1,0.5-0.2,0.7c-1.2,2.2-2.3,4.4-3.5,6.5c-0.1,0.2-0.4,0.3-0.8,0.4c1.3-2.7,2.6-5.3,4.2-7.7
		C77.7,119.5,77.8,119.6,77.9,119.6z"/>
	<path class="st0"  d="M79.7,127.5c0.8-1.7,1.7-3.4,2.6-5.1c0.1-0.2,0.4-0.2,0.7-0.4c0,0.1,0,0.1,0.1,0.2c-0.8,1.7-1.5,3.3-2.3,5
		c-0.1,0.3-0.5,0.4-0.8,0.5C79.8,127.7,79.8,127.6,79.7,127.5z"/>
	<path class="st0"  d="M82.5,128.1c-0.7-0.6-1-1.3-0.5-2.1c0.4-0.6,1-0.9,1.5-0.9c-0.3,0.4-0.6,0.8-0.9,1.2C82,126.8,82.3,127.5,82.5,128.1z"/>
	<path class="st0"  d="M84.8,121.7c-0.4,0.7-0.7,1.4-1.1,2.3c-0.1-0.4-0.3-0.8-0.2-1.1C83.7,122.1,84.2,121.7,84.8,121.7z"/>
	<path class="st0"  d="M208.5,117.3c0.2,0.3,0.3,0.7,0.6,1.3c-0.9-0.1-1.7-0.1-2.5-0.2C207.3,118,207.9,117.6,208.5,117.3z"/>
	<path class="st0"  d="M126,95.8c0.3-0.4,0.5-0.6,0.8-0.9c0.3,0.4,0.6,0.7,0.9,1.2C127.1,96,126.6,95.9,126,95.8z"/>
	<path class="st0"  d="M177.1,128c-0.3,0.4-0.6,0.6-0.9,1c-0.2-0.4-0.3-0.7-0.4-1C176.2,128,176.6,128,177.1,128z"/>
	<path class="st0"  d="M46.2,130.7c-0.5,0-1,0-1.5,0c0.3-0.5,0.6-1,0.8-1.5C45.8,129.8,46,130.2,46.2,130.7z"/>
	<path class="st0"  d="M212.1,98.5c0.2-0.4,0.3-0.6,0.4-0.8c0.2,0.1,0.5,0.1,0.7,0.2c1.1,0.3,2.1,0.8,2.8,1.8c0.1,0.2,0.5,0.3,0.7,0.3
		c1,0,3,1.4,3.3,2.3c0.1,0.3,0,0.6-0.1,0.9c0,0.1-0.5,0.1-0.7,0c-0.9-0.6-1.8-1.3-2.6-2c-0.2-0.1-0.3-0.5-0.5-0.5
		c-1.9-0.3-3.4-1.7-5.1-2.3c-0.3-0.1-0.6-0.3-0.9-0.4c0.1-0.4,0.2-0.7,0.3-1.1C211.5,96.6,211.9,97,212.1,98.5z"/>
	<path class="st0"  d="M214.3,97.8c-1-0.4-2-0.9-2.9-1.3c-3.6-1.6-7.3-2.9-11.1-3.8c-0.4-0.1-1-0.1-0.8-0.9c4.9,1.1,9.6,2.7,14.2,4.6
		C214.2,96.6,214.4,97,214.3,97.8z"/>
	<path class="st0"  d="M203.5,90.8c0.9,0,1.6-0.2,2.3-0.1c1.5,0.3,3,0.8,4,2c0.2,0.2,0.4,0.7,0.3,0.8c-0.2,0.2-0.6,0.5-0.9,0.4
		c-1.8-0.2-3.5-0.9-4.9-2C204,91.8,203.9,91.4,203.5,90.8z"/>
	<path class="st0"  d="M207.7,96.5c-2.4-0.7-4.8-1.3-7.3-2.1c0.3-0.2,0.4-0.2,0.5-0.3c-0.5-0.2-0.9-0.3-1.4-0.5c0-0.1,0.1-0.2,0.1-0.3
		c2.8,0.7,5.6,1.6,8.3,2.8C207.8,96.2,207.8,96.3,207.7,96.5z"/>
	<path class="st0"  d="M125.3,101.1c-0.7,0.2-1.3,0.3-2,0.5c0.2-0.3,0.4-0.6,0.7-0.9c0.3,0.6,0.8,0.4,1.4,0C125.3,100.9,125.3,101,125.3,101.1z"
		/>
	<path class="st0"  d="M54.6,107.5c-0.7,0.3-1.3,0.7-2,1c0.5-0.4,1.1-0.7,0.8-1.5c-0.1-0.2-0.2-0.4-0.4-0.7c0.1,0,0.4-0.1,0.7-0.2
		c0,0.5,0,0.8,0,1.2c0,0,0.1,0,0.1,0c0.1-0.2,0.2-0.5,0.2-0.7c0.3,0.2,0.5,0.5,0.7,0.7C54.8,107.3,54.7,107.4,54.6,107.5z"/>
	<path class="st0"  d="M166.3,94.6c1.7-0.4,3.4-0.4,4.8,0.9C169.2,96.2,167.5,96.6,166.3,94.6z"/>
	<path class="st0"  d="M161.1,99.1c-0.1-0.6-0.2-1.3-0.4-2.1c0.4,0.6,0.8,1.1,1.1,1.5c-0.1,0.1-0.3,0.2-0.5,0.4C161.3,99,161.2,99,161.1,99.1z"/>
	<path class="st0"  d="M84.2,111c-1,0-2,0-2.9,0c0.6-0.1,1.3-0.2,2.1-0.3c0,0,0-0.1,0-0.1c0.3,0.1,0.6,0.2,0.9,0.3C84.2,111,84.2,111,84.2,111z"
		/>
	<path class="st0"  d="M210,80.5c0-0.3-0.1-0.5-0.1-0.8c0.1,0,0.3,0,0.4,0c1.5,0.7,3.1,0.4,4.6,1c0.4,0.1,0.7,0.5,1,0.7c0,0.1,0,0.2,0,0.3
		c-0.3,0-0.7,0.2-1,0.1c-0.9-0.2-1.7-0.5-2.6-0.8c-0.2-0.1-0.3-0.2-0.5-0.2c-2.1-0.2-4.3-0.3-6.4-0.5c0.1-0.3,0.1-0.6,0.2-0.9
		c1.7-0.4,1.4-0.5,1.9,0.5c0.5-0.1,1-0.4,1.4-0.3C209.2,79.6,209.5,80,210,80.5z"/>
	<path class="st0"  d="M187,88.6c-0.9,1-2.1-0.1-3.1,0.3c0-0.1,0-0.2,0-0.3c1-0.1,2.1-0.2,3.1-0.3C187,88.4,187,88.5,187,88.6z"/>
	<path class="st0"  d="M112.9,34c0-1.7,0-3.2,0-4.6c0-0.8,0.7-0.6,1-0.7c0.5-0.1,1.2-0.2,1.3,0.5c0.1,1.2,0.2,2.4-0.2,3.5
		C114.9,33.2,113.8,33.5,112.9,34z M114,32.6c0.6-0.4,0.8-1.4,0.4-3C113.8,29.8,113.7,30.5,114,32.6z"/>
	<path class="st0"  d="M140.6,24c0.5-0.1,1-0.2,1.5-0.2c0.6,0,0.9,0.3,0.9,0.9c0,1,0,2,0,3c0,0.7-0.5,1.1-1.1,1.2c-0.4,0.1-0.9,0.1-1.3,0.2
		C140.6,27.4,140.6,25.8,140.6,24z M142.3,24.7c-0.9,0.2-1.1,1-0.7,3.5c0.3-0.3,0.7-0.5,0.7-0.7C142.3,26.6,142.3,25.6,142.3,24.7z"
		/>
</g>
</svg>
