<?xml version="1.0" encoding="utf-8"?>
<!-- Generator: Adobe Illustrator 26.0.1, SVG Export Plug-In . SVG Version: 6.00 Build 0)  -->
<svg version="1.1" id="Слой_1" xmlns:xodm="http://www.corel.com/coreldraw/odm/2003"
	 xmlns="http://www.w3.org/2000/svg" xmlns:xlink="http://www.w3.org/1999/xlink" x="0px" y="0px" viewBox="0 0 238.1 150.2"
	 style="enable-background:new 0 0 238.1 150.2;" xml:space="preserve">
<style type="text/css">
	.st0{fill-rule:evenodd;clip-rule:evenodd;fill:#2B2A29;}
</style>
<g id="Слой_x0020_1">
	<path class="st0" d="M38.7,75.3c-0.5,0.5-0.7,1.1-1.2,1.4l-1.7,0.9c0.3,1.6,0.5,0.2,0.5,2.9c-2,0.5-1.9-0.6-2.9,1.5l-3.9,0L29,82.6
		c-1.6,1.3-0.7,1.4-1,3.2c-0.2,0.9-0.3,0.4-0.5,1.3c-0.1,0.4,0,0.6,0,1.1c0.7-0.5,0.1-0.4,0.7-0.6c0.4-2.4-0.7-3,1.6-4.1
		c0.6-0.3,0.2-0.3,1.7-0.3c2.3,0,2.1,0,2.7-0.8c0.6-0.8-0.2-0.5,1.2-0.7c0.9-0.2,0.8-0.1,1.4-0.5l0.2-2.9c0.7-0.5,0.9-0.1,1.4-1
		c0.2-0.2,0.8-1.5,0.9-1.8c1.9-0.3,1.4,0.3,2.4-1.4c1-0.1,1-0.2,1.8,0.3c1.1,0.7,0.7,0.2,1.7,0.6c0.1,0.6,0,1,0.3,1.6
		c0.3,1,1,0.9,0.5,3.4c-0.1,0.7-0.3,1.2,0.2,1.9c0-0.1,0.1-0.2,0.1-0.2l1-2.5c1.6,0.1,0.3,0.3,1.5,0.7c0.6,0.2,1.4,0.1,2.1,0.1
		c1.1,1.1,0.6,1.2,0.9,2.9c0.6,0.4,0.6,0.2,1.3,0.6l1,0.7c1,0.6,1.7,1.1,1.4,2.5c-4.9,0.2-22.2-0.3-24.9,0.1
		c-0.3,0.5-0.1,0.1-0.1,0.7c1.7,0.4,23.4,0.2,26.8,0.1c0-2.2-0.8-2.7-1.2-3.2l-0.8,0c-0.3-1.1,0-0.3-0.6-0.8c-1.2-1.1-1-1.2-2.8-1.7
		c-0.1-1.3,0.2-1.5-0.5-2.5c-1-0.7-1.7,0.6-3-1.1c-1.2-1.6-0.5,0.7-2.2-2.1c-0.3-0.5-0.2-0.4-0.3-1.2c-0.1-1.7-0.2-1.3-1-1.4
		c-1.1-0.2-0.3,0-1-0.4l-1.1-0.3c-0.4,0-0.9,0-1.3,0.1c-0.6,0.8-0.5,0.6-0.9,1.5c-1,0.1-1.4-0.2-1.7,0.5l0.4,0.4l-0.6-0.5L38.7,75.3
		L38.7,75.3L38.7,75.3L38.7,75.3z M98.3,70.8c-0.4,1.5-0.6,0.5-0.6,2.7c0,1.1,0,0.7-0.3,1.4c-0.4,0.9-0.2,0.6-0.3,1.7
		c0.1,0,0.1-0.2,0.2-0.1c0.2,0.2,0.8-0.5,0.8-2.3c0-1.7,0.8-2.6,2.6-2.6c0.5,0,1.2,0,1.7,0c1.5-0.1,1.3-0.6,1.9-1.4
		c1-0.2,1.8,0,2.2-0.8c0.4-0.7,0.2-2,0.1-2.8c1-0.3,1.8-0.5,2.3-2.7c1.8-0.1,1.1,0.2,2.2-0.7c0.2-1,1-1,1.8-0.6c2,1-0.1,0.2,2,0.7
		c0.4,3.9,0.8,1.4,0.9,3.5c0.1,1.4-0.9,2.9,0.1,3.6c0.3-0.5,0.1-0.6,0.4-1.3c0.4-0.9,0.4-0.1,0.3-1.5c-0.2-0.9,1.1-0.2,1.4,0
		c0.4-0.5,0.3,0.2,0-0.6l-0.1-0.7c-1.8-0.7-0.5,0.5-1.9-1.3c-1-1.3-0.1-1.8-0.8-2.6c-0.7-0.6-0.3-0.1-1-0.3
		c-1.4-0.4-0.1-0.8-3.3-0.6l0.2,0.5c-1.1,0.3-0.2,0.1-0.9,1c-3.2,0.3-1,1.5-3.4,2.3c-0.5,0.2-0.4,0.1-0.7,0.4
		c-0.1,0.1-0.2,0.3-0.6,0.5c0.2,1.1,0.9,1.3,0.4,2.9c-2.3,0.2-1.7-0.2-2.5,0.9c-0.4,0.6,0.2,0.3-0.8,0.5c-0.6,0.1-1.7-0.1-2.4,0
		C98.1,70.4,99.8,71,98.3,70.8L98.3,70.8L98.3,70.8L98.3,70.8z M194.5,83.7c-0.2,0.7-0.2,0.7-0.2,1.8c1.8-1.3,0.3-2.1,1.1-3.7
		c1.1-2.2,4.3-0.5,5.5-1.8c0.5-0.6,0.2-0.6,0.8-0.8c2.1-0.8,1.9,0.6,2.1-3.5c0.8-0.6,1.1,0.2,2.4-2.8l1.6-0.1l0.8-1.3
		c2.2,0,0.9,0.2,2.6,0.7c1.2,0.4,0.8-0.1,1,1c0.1,0.6-0.1,0.3,0.2,0.9c0.3,0.9,0.5,0.4,0.7,1.4c0.2,1.6-0.7,2.6-0.1,3.8
		c0.6-0.2,0.1,0.3,0.7-1.2c0.1-0.3,0.4-1.2,0.6-1.4c1.5,0,0.4,0.6,2.1,0.8c2.3,0.1,0.8-0.2,2.3,0.8l0,2.2c2.3,0.6,0.8,0.4,2,0.8
		v-1.3c-1.4-0.9-0.9-0.3-1.6-0.7c-0.5-3.6-0.4-2.3-2.6-2.7c-0.7-0.2-0.7-0.5-1-0.9c-1.1-1.5-0.1,0.8-1.9-1.7c-1.5-2,0.6-2.4-1.7-2.9
		c-1.5-0.3-0.4-0.6-1.9-0.6c-0.4,0-0.9,0-1.3,0c-0.1,0.1-0.5,0.7-0.5,0.7c-0.3,0.4-0.2,0.4-0.4,0.8c-2.3,0.3-1.2,0-2.4,1.6
		c-1,1.3-0.9-0.2-2.3,1.7c0.2,0.8,0.3,0.5,0.4,1.1c0.1,0.4,0,1.1,0,1.5c-0.6,0.2-1.4,0-1.9,0.2c-0.8,0.3-0.6,0.6-1,1.2
		c-3.1,0.1-3.2-0.3-4.5,0.7l-0.8,0.9c-0.3,0.8,0,1.5-0.2,2.1C194.8,83.2,195.4,82.7,194.5,83.7L194.5,83.7L194.5,83.7L194.5,83.7z
		 M121.5,71.1C121.6,71.1,121.6,71.1,121.5,71.1l2.6,1.6c0,0,0.1,0.1,0.1,0.1l0.6,0.6c0.4,0.6,0.4,0.6,0.3,1.6
		c-4,0.3-16.7,0.1-22.2,0c-1.8,0-2.3-0.3-2.9,0.4c0.3,0.6,0,0.3,0.5,0.5l12.7,0.1c3.9,0,9.8,0.3,13.5-0.1l0-1.5
		c-0.6-0.2-0.4-0.7-0.6-1.4c-0.3,0-0.4,0-0.7-0.1c-0.9-0.4-0.1,0-0.7-0.4c-0.9-0.8,0.8,0.8-0.2-0.2c0,0-0.2-0.2-0.2-0.2
		c-0.7-0.6-0.7-0.9-1.6-1.3c-0.9-0.4-0.9,0-1.2-0.6L121.5,71.1L121.5,71.1L121.5,71.1L121.5,71.1z M197.3,84.9l23.2,0V84l-23.1,0
		L197.3,84.9L197.3,84.9L197.3,84.9z"/>
	<path class="st0" d="M67.7,136.4l0.1,0.3l2.5,0l0.1-0.9c-0.5,0-0.9,0-1.4-0.1c-0.1,0-0.6,0-0.6,0c-0.6,0.1-0.3,0-0.7,0.4
		L67.7,136.4L67.7,136.4z M144.9,107.6l-0.2-0.5c-0.4,0.4-0.3,0.1-0.4,0.8c-1,0.1-0.9,0.3-0.9,1.5l0,6.4l-1.5-0.1
		c0.3-1.5,0.1-6.8,0.1-9.1c0-1.4,0.2-1.6-1-2l0-0.6c-0.8,0-1.5-0.2-2.1,0.2c-0.1,0.1-0.9,0.9-1,1.1l0,13.4l-1.5,0l-0.1-7.4
		c-0.6-0.3-0.7-0.1-0.9-0.6c0-0.9,0.1-0.3-0.3-0.5c-0.6,0.4-0.4,0.4-0.6,1c-0.7,0-0.4-0.2-0.7,0.3l0,7.8c0.8,0.5,0.4,0,1,0.7
		c0.3,0.3,0.4,0.7,0.7,0.9c1.2,0.8,2.2-0.7,2.4,1.1c0.2,2-0.1,4.8,0,6.9l3.9,0.1l0.1-10.9l2.3-0.1l0.1-0.7c0.9-0.3,0.3-0.1,0.9-0.7
		c0,0,0.1-0.1,0.1-0.1l0.5-0.4l0-8.1l-0.7-0.6L144.9,107.6L144.9,107.6C144.9,107.6,144.9,107.6,144.9,107.6z M83.2,110.4l1.1,0
		l0-1.2l-1.8,0.1l-1.4,0l0-1l0.2-0.5l5.3,0l0-1.7l0-0.9l0-2.9L86,102c-0.6-0.4-0.5-0.8-0.7-1.2l-5.5,0l-3.4,0l-0.1,1.1
		c-0.3,0.2-0.3,0.1-0.6,0.2c-0.1,0.1-0.3,0.2-0.3,0.1c0,0-0.1,0-0.1,0.1l0,6l0,1.3l0,1c-0.7,0.1-0.7-0.1-1.1,0.3l-0.1,1.1l-0.8,0.1
		c-1.4,0-0.5,0-0.7,0.2l-0.2-0.1l-0.1,1.2c-1.1,0.2-1.5-0.3-1.5,0.8c-0.3,1-0.5,0-1.1,0.8c-0.3,0.5,0,0.5-0.4,1.1l-1.3,0l-0.8,0
		l-0.3-0.4l0.1-1l-1.1-0.1c0-1.9,0.1-0.7-1.1-1.5l-0.1-2.4l-1,0.1v2.8c0,5.1-0.5,5.1,1.1,5.1l0.3,1.2l0.7,0.1
		c0.5,0.4,0.3,0.4,0.4,1.2l1,0.2l0.2,1.1l1,0.3l0.1,1.2l1,0.2l0,3.2c0.3,0,1,0.1,1.3,0l0.9-0.3c-0.1-1.3-0.2-0.4-1.1-1.1l0-0.6
		c0.6-0.3,1.1-0.2,1.9-0.2c0,0,0.1-0.1,0.1-0.1c0,0,0.1-0.1,0.1-0.1c0,0,0.1-0.1,0.1-0.1l0.4-0.8l0.9,0l0.2,1.2l1.1,0.2l0.1,3.8
		l-75.2,0.1v1.9h237.3v-1.9l-113.7,0l-46.2,0c-0.2-0.2-0.1-0.6-0.4-0.9c-0.5-0.5-0.2,0-0.9-0.4l0-5.1c0,0,0.1-0.1,0.1-0.1l0.4-0.2
		c1.5-0.6-0.4,0.3,0.4-0.2l0.1-1.2l1.1-0.3c0-0.6-0.2-1.2,0.3-1.6l0.9-0.4l0-1.9l0-0.6l0-1.7c0.2-0.2-0.3-0.2,0.7-0.2l0.7,0
		c0,1.1-0.2,1,0.6,1.2c0.5-0.7,0.3-1.6,0.3-2.4c-0.7,0-1.4,0.1-2-0.2c-0.1-0.4-0.2-1.2-0.1-1.7c0-0.9,0-0.9,0.8-1L83.2,110.4
		L83.2,110.4L83.2,110.4L83.2,110.4z M164.2,139.1c-0.8,0-0.9-0.1-1.4,0.3l0,0.4c0.5,0.4,0.9,0.3,1.6,0.3c1,0,0.9,0.2,1.3-0.5
		C165.3,138.9,165.2,139.1,164.2,139.1L164.2,139.1L164.2,139.1z M73.9,136.9c-0.6,0.1-0.2,0-0.5,0.4c0.5,0.4-0.6,0.1,0.5,0.4
		c0,0,0.8,0,0.9,0c1.4,0,1.1-0.1,1.4-0.4c-0.3-0.4,0-0.3-0.5-0.4L73.9,136.9L73.9,136.9L73.9,136.9L73.9,136.9z M34.9,136.3
		c0.5,0.3,0.7,0.2,1.4,0.2c1.2,0,1.2,0.2,1.3-0.7c-0.7-0.4-1.8-0.3-2.7-0.2L34.9,136.3L34.9,136.3z M98,135.9c0.8,0,1.5,0.2,2.1-0.2
		l0-0.4c-0.5-0.4-1.7-0.3-2.5-0.3c-2.6,0-1.9,0.1-2.3,0.5c0.6,0.7,1.1,0.4,2.1,0.4L98,135.9L98,135.9L98,135.9z M148.2,125.3
		c-1,0.1-0.8,0.4-0.8-3.6c0-1.4,0.5-2.6-1-2.5c-1.3,0.1-0.8,1.4-0.8,2.7c0,0.6,0,1.1,0,1.7c0,0.2,0,0.7,0,0.9c0,0.3,0,0.2,0,0.4
		c-0.1,0.5,0,0.2-0.2,0.4c-0.2-0.2-0.3,0.3-0.3-1.5c0-0.9,0.2-1-0.4-1.4c-0.1-0.5,0.3-0.4-0.8-0.3c-0.5,1-0.3,2.6-0.1,3.8
		c0.2,0.5,1.5,0.8,1.8,1.1l0,2l1.8,0.1l0-2.7c1.2-0.3,1.8,0,1.9-1.5c0.1-1,0.1-2.3-0.2-3.2C147.7,121.6,147.9,123.5,148.2,125.3
		L148.2,125.3L148.2,125.3L148.2,125.3z M144.3,115.4L144.3,115.4L144.3,115.4L144.3,115.4L144.3,115.4z M151.6,113.3
		c-0.7-0.1-0.7,0.1-0.8-1c0-0.4,0-1.1,0-1.5c0-1,0-1.9,0-2.9l-0.8-0.2l0.1-0.5l-1.3-0.2l-0.1,0.6c-1.3,0.4-1.2-0.3-1.2,3
		c0,1.4,0,2.7,0,4.1c2,0.7,0.1,0.5,1.8,1.3c0.1,0.7,0.3,0.4,1.2,0.5c1.5,0.1,1.1-0.3,1.1,4.8c0,2.5-0.1,5.3,0,7.8l3.9,0.1l0-9.4
		l2.4-0.1c0.1-1.1,1.3-0.8,1.5-2.1l0-7.6c0-1.7,0-1.7-1-2.7c-0.6,0.2-0.2,0.1-0.9,0.7c-0.1,0.1-0.4,0.3-0.4,0.3l-0.1,9l-1.6,0.1
		l-0.1-9.6c0-1.3,0.3-2.3-0.5-3l-0.3-0.6c-1.3-0.2-2-0.3-2.7,0.6c-0.3,0.4-0.2,0.1-0.4,0.6L151.6,113.3L151.6,113.3L151.6,113.3
		L151.6,113.3z M144.3,115.4L144.3,115.4L144.3,115.4z M124,121.6c0.3,0.4,0.2,0,0.3,0.6c0.1,0.7-0.2,5.1,0.1,6.7l3.5,0.1
		c0.6-0.3,0.3-2.8,0.3-3.6c0-1.3,0.2-3-0.1-4.1c0.9-0.2,1.5-0.1,2.1-0.2c0.3-0.1,2.7-1.6,2.7-3.5c0-1.4,0-2.9,0-4.3
		c0-2.1,0.3-2.1-0.8-3.6c-1.7-0.2-0.7,0.1-2,1l0,7.9l-1.7,0c-0.5-1.9,0.1-11.6-0.1-12.9c-0.1-0.9,0.1-0.3-0.3-0.8
		c-0.1-0.8-2.4-0.5-3.1-0.4l-0.4,0.5c-0.6,1.7,0,10.9-0.2,13.7l-1.6-0.1c-0.2-1.7,0.5-6.3-0.5-7.4c-1.2-0.6-1.9,0.1-2.5,0.4l0,8.1
		c0.3,0.3,0.6,0.4,0.9,0.7c0.3,0.3,0.4,0.5,0.7,0.8C122.3,121.8,123.4,121.2,124,121.6L124,121.6L124,121.6L124,121.6z M89.9,140.5
		c-0.3-0.3-2.1-0.8-2.9,0.2c0.4,0.3-0.5,0.1,0.6,0.5c0,0,0.8,0,0.9,0c0.7,0,0.9,0.1,1.4-0.3L89.9,140.5L89.9,140.5
		C89.9,140.5,89.9,140.5,89.9,140.5z M69,135.1l0.1-0.4c-0.9,0.1-1.9-0.1-2.8,0.2l0,0.6c0.5,0.1,0.8,0.2,1.4,0.2c1.2,0,1,0,1.3-0.4
		L69,135.1L69,135.1z M48,133.9c-0.1-0.3,0.2-0.5-1.3-0.5c-0.6,0-0.9,0-1.4,0.2l0,0.6c0.5,0.4,0.5,0.2,1.2,0.3c1.4,0,1.2,0,1.5-0.4
		L48,133.9L48,133.9L48,133.9L48,133.9z M78.7,102.5l0.2,1.3l-0.3,0.2l-1-0.1l0-1.4l1,0L78.7,102.5L78.7,102.5L78.7,102.5z
		 M87.3,140.7l1.2,0.3c0.6,0,0.8,0.1,1.1-0.3c-0.3-0.3-0.9-0.3-1.6-0.2C86.8,140.6,87.8,140.4,87.3,140.7z M40.5,141.8v0.3
		c0.3,0.3-0.1,0.2,0.7,0.3c1.6,0.3,1.8-0.1,2-0.5C42.6,141.1,40.8,141.5,40.5,141.8L40.5,141.8z M173.9,137.4l0,0.3
		c0.4,0.3-0.3,0.2,0.7,0.3c1.5,0.3,1.8-0.1,2-0.5C176,136.7,174.2,137,173.9,137.4L173.9,137.4L173.9,137.4L173.9,137.4z M0.3,135
		v0.4v0.3l1-0.2c-0.1-1,0-0.7-1-0.8V135z M78.6,102.5L78.6,102.5L78.6,102.5z M26.6,135.8c0.1-0.1-0.2-0.3,1.3-0.3l0.8,0.4
		C28.1,136.1,27.1,136.2,26.6,135.8z M29.1,136.3l0-0.8c-0.9-0.1-2.1-0.3-2.8,0.2c0.1,0.8,0,0.7,1,0.7
		C28,136.3,28.6,136.3,29.1,136.3L29.1,136.3L29.1,136.3L29.1,136.3z M151.3,136.6c-1.1,0-1.1-0.1-1.2,0.7c0.3,0.2,2.2,0.8,2.8-0.2
		C152.4,136.4,152.3,136.6,151.3,136.6L151.3,136.6L151.3,136.6L151.3,136.6z M52,139.4c-0.7-1-2.5-0.5-2.8-0.2l0,0.4
		C49.4,139.9,51.3,140.4,52,139.4L52,139.4z M106.2,137.5c0.4-0.3-0.5-0.1,0.7-0.3c0.7-0.1,1.2,0,1.6,0.3
		C107.9,138,106.7,137.8,106.2,137.5L106.2,137.5L106.2,137.5z M107.4,137c-1.1,0-0.9-0.2-1.4,0.5c0.5,0.5-0.5,0.3,0.8,0.5
		c1.7,0.3,2,0,2.1-0.7C108.3,136.9,108.1,137,107.4,137L107.4,137L107.4,137z M43.2,135.2c0.4-0.3,1.2-0.4,1.8-0.2
		c0.4,0.1,0.4,0.1,0.5,0.2c-0.1,0-0.1,0.1-0.2,0.1l-1.2,0.1C43.4,135.4,43.6,135.5,43.2,135.2L43.2,135.2L43.2,135.2z M43,135l0,0.4
		c0.4,0.2,2.2,0.7,2.8-0.2C45.1,134.2,43.3,134.7,43,135L43,135z M22.1,133.9c0.6-0.4,1.8-0.4,2.4,0
		C23.9,134.2,22.7,134.3,22.1,133.9z M22,134.1c0.3,0.2,2.2,0.7,2.8-0.2c-0.4-0.7-0.5-0.5-1.5-0.5C22.2,133.4,22,133.2,22,134.1
		L22,134.1L22,134.1z M100.1,141.8c-0.4-0.3-2.1-0.7-2.8,0.2c0.2,0.2-0.3,0.5,1.4,0.5c0.7,0,0.9,0.1,1.4-0.3L100.1,141.8
		C100.1,141.8,100.1,141.8,100.1,141.8z M163.4,135.4c0.4-0.3,1-0.3,1.6-0.3c1.2,0.2,0.3,0,0.7,0.3
		C165.3,135.7,164,135.8,163.4,135.4L163.4,135.4z M164.6,134.9c-0.8,0-0.9-0.1-1.5,0.3l0,0.4c0.4,0.2,2.1,0.7,2.8-0.2
		C165.6,134.7,165.7,134.9,164.6,134.9L164.6,134.9L164.6,134.9L164.6,134.9z M55.5,139.2l0,0.4c0.4,0.2,2.1,0.7,2.8-0.2
		c-0.5-0.7-0.3-0.6-1.4-0.5C56.2,138.9,56,138.9,55.5,139.2L55.5,139.2L55.5,139.2L55.5,139.2z M17.2,142.6c0.5-0.3,1.8-0.4,2.4,0
		c-0.3,0.2,0.1,0.1-0.7,0.2C18.4,142.9,17.7,142.9,17.2,142.6L17.2,142.6L17.2,142.6z M19.8,142.4c-0.6-0.4-2.1-0.4-2.8,0l0,0.4
		c0.5,0.4,0.9,0.3,1.7,0.3C19.8,143.1,19.7,143.3,19.8,142.4L19.8,142.4z M21.1,137.5c0.5-0.3,1.4-0.3,1.9-0.2
		c0.4,0.1,0.3,0.1,0.5,0.2C22.9,137.8,21.7,137.9,21.1,137.5L21.1,137.5z M20.9,137.3l0,0.4c0.6,0.4,0.7,0.3,1.5,0.3
		c1.1,0,1.1,0.2,1.3-0.7C23,136.9,21.5,136.9,20.9,137.3L20.9,137.3z M231.4,134.7c-1,0-1-0.1-1.4,0.5c0.4,0.3-0.4,0.1,0.6,0.4
		c0.2,0,1.7,0.2,2.3-0.2l0-0.4C232.3,134.6,232.2,134.7,231.4,134.7L231.4,134.7L231.4,134.7L231.4,134.7z M127.9,137.7
		c0,0-0.4-0.9,2-0.4c0.4,0.1,0.3,0.1,0.5,0.2C129.7,137.9,128.8,137.7,127.9,137.7z M130.5,137.3c-0.3-0.2-2.2-0.8-2.8,0.2
		c0.4,0.4-0.4,0.5,1.6,0.5C130.3,138,130.3,138.2,130.5,137.3L130.5,137.3L130.5,137.3z M59.7,134.5l-0.1-0.7l-2.3,0
		c-0.4,0.5-0.2,0.2-0.4,0.7c-1,0-0.9-0.2-1.4,0.5c0.5,0.7,1.7,0.5,3.1,0.4c0.2-0.3,0-0.1,0.2-0.4c0,0,0.1-0.1,0.1-0.1L59.7,134.5
		L59.7,134.5L59.7,134.5L59.7,134.5z M42.6,137.8c0.8,0.1,1.9,0.2,2.6-0.1c-0.1-0.9-0.3-0.6-1.5-0.6C42.9,137.1,42.5,137,42.6,137.8
		C42.6,137.8,42.6,137.8,42.6,137.8z M17.1,133.5c0.2,0.8,0.3,0.7,1.4,0.7c0.7,0,1.3,0.1,1.8-0.2l0-0.5
		C19.5,133.2,17.6,133,17.1,133.5L17.1,133.5z M144,134.8c-0.7-0.5-2.6-0.4-3.2,0c0.3,0.8-0.1,0.7,1.4,0.7c0.7,0,1.3,0.1,1.8-0.2
		L144,134.8L144,134.8L144,134.8z M105.4,134.2l0.1-0.9l-3,0c-0.5,0.7,0,0.7,0,0.7C103.3,134.3,104.4,134.1,105.4,134.2L105.4,134.2
		L105.4,134.2z M69.1,142.3c0.8,0.2,1.9,0.2,2.6-0.1l0-0.6c-0.5-0.2-1.3-0.2-1.9-0.2C69.1,141.5,69.1,141.5,69.1,142.3L69.1,142.3
		L69.1,142.3z M30.6,141l2.7,0l0-0.9l-2.7,0L30.6,141L30.6,141C30.6,141,30.6,141,30.6,141z M69.1,140l0.2-0.9c-0.6,0-1.4-0.1-2,0
		c-0.8,0.1-0.8,0.1-0.8,0.8C67.1,140.2,68.2,140,69.1,140L69.1,140L69.1,140L69.1,140z M154.4,142.3l2.6,0l0-0.9l-2.6,0.1
		L154.4,142.3L154.4,142.3L154.4,142.3z M56.6,138.4c0.4,0.6,0.4,0.4,1.4,0.4c0.9,0,1.1,0.2,1.5-0.4c-0.2-0.4-0.7-0.5-1.2-0.5
		c0.4,0,0.3-0.1,0.4-0.8c-0.6-0.4-0.5-0.3-1.3-0.3c-1.6,0-1.1,0.1-1.3,0.4l0,0.2c0.2,0.3,0,0.4,1.6,0.4c0.2,0,0.3,0,0.5,0
		c-0.2,0-0.5,0-0.7,0.1C56.1,138.1,57,138.1,56.6,138.4L56.6,138.4L56.6,138.4z M227.4,137.9c-1.1,0-0.9-0.1-1,0.6
		c0.7,0.4,2,0.3,2.8,0.1l0-0.6C228.6,137.9,228,137.9,227.4,137.9L227.4,137.9z M80.5,139.7c-0.6-0.8-2.5-0.4-2.8-0.2
		c0.1,0.9,0.3,0.7,1.3,0.6C79.9,140.1,80.1,140.3,80.5,139.7C80.5,139.7,80.5,139.7,80.5,139.7z M91.3,137.5
		c-0.6-0.8-2.3-0.4-2.6-0.2c0.1,0.8,0.3,0.6,1.3,0.6C90.9,137.9,90.9,138.1,91.3,137.5z M199.2,137.8c-1,0-0.9-0.2-1.3,0.4
		c0.4,0.3-0.6,0.4,1.3,0.4c0.9,0,0.9,0.2,1.3-0.4C200.1,137.6,200.1,137.8,199.2,137.8L199.2,137.8z M80.7,135.4
		c-0.4-0.7-2.2-0.7-2.7,0c0.5,0.4-0.5,0.1,0.5,0.4C79.3,135.9,80.4,135.9,80.7,135.4z M207.3,136c-0.4-0.6-2.2-0.7-2.7,0
		c0.5,0.3-0.5,0.1,0.5,0.4C205.9,136.6,207,136.5,207.3,136L207.3,136z M86.4,135.2c-0.4-0.6-2.2-0.7-2.7,0c0.6,0.4-0.5,0.1,0.5,0.4
		C85,135.7,86.1,135.7,86.4,135.2L86.4,135.2L86.4,135.2z M76.5,134.6c0.8-0.2,1.7-0.2,2.4,0l0.1-0.8l-2.5,0L76.5,134.6L76.5,134.6
		L76.5,134.6z M97.2,139.2c-1.9-0.3-2,0.1-2.1,0.6c0.3,0.2,2.2,0.6,2.8-0.2C97.6,139.1,98.2,139.4,97.2,139.2L97.2,139.2z M12.7,140
		l0-0.7l-2.8,0.1l0,0.7L12.7,140L12.7,140z M29.8,142l1.9-0.2c0.8,0.1,0.2,0,0.5,0.2c-0.1,0-0.1,0.1-0.2,0.1c0,0-0.1,0.1-0.2,0.1
		c-1,0.3,0.6,0-0.4,0.1c0,0-0.6,0-0.7,0C30.1,142.2,30.2,142.3,29.8,142L29.8,142L29.8,142z M32.3,142c-0.4-0.5,0.4-0.3-0.8-0.5
		c0,0-1,0-1.1,0c-0.9,0.1-0.7-0.1-0.8,0.7c0.6,0.4,1.9,0.3,2.7,0.2L32.3,142C32.3,142,32.3,142,32.3,142z M151.7,135.2
		c0.3-0.2-0.3-0.1,0.6-0.2c0.6-0.1,1.3,0,1.7,0.2l-0.3,0.1C153.6,135.4,152.4,135.6,151.7,135.2L151.7,135.2L151.7,135.2z
		 M153.6,134.7c-0.8-0.2-1.8-0.2-2.2,0.5c0.3,0.3-0.4,0.3,0.6,0.5c1,0.2,1.8,0.1,2.2-0.5C154,134.7,154.6,134.9,153.6,134.7
		L153.6,134.7z M137.1,139.4c-0.5-1-2.4-0.4-2.8-0.2l0,0.4C134.7,139.9,136.5,140.4,137.1,139.4L137.1,139.4L137.1,139.4z
		 M143.8,137.1c-0.6-0.4-2.1-0.4-2.7,0c0,0.9,0.3,0.7,1.2,0.7c0.8,0,0.9,0.1,1.5-0.3L143.8,137.1L143.8,137.1z M125.7,142.2
		c0.3-0.3-0.6-0.4,1.1-0.5l1.2,0.2c-0.2,0.1,0,0.1-0.4,0.2L125.7,142.2z M127.1,141.5c-1,0-1.1-0.2-1.6,0.5c0.4,0.3-0.4,0.2,0.5,0.4
		c0.1,0,1.7,0.2,2.3-0.2C128.2,141.3,128.2,141.5,127.1,141.5L127.1,141.5L127.1,141.5L127.1,141.5z M117.4,135.6
		c-1.2-0.1-1.6,0.2-2.4-0.2c0.6-0.4,1.3-0.3,2.2-0.2L117.4,135.6c0.1-0.3,0.3,0.6,0.1-0.6c-0.6-0.1-1-0.1-1.6-0.1
		c-1.1,0-0.7-0.2-1.1,0.5C115.3,136.3,117.1,135.8,117.4,135.6L117.4,135.6L117.4,135.6L117.4,135.6z M0.3,139.9v0.2
		c0.8,0,0.5,0.1,1-0.2c-0.1-0.9,0-0.6-1-0.7v0.3V139.9L0.3,139.9L0.3,139.9z M4.2,136.3c0.2-0.1,0-0.1,0.5-0.2
		c0.6-0.1,1.5-0.1,1.9,0.2c-0.2,0.1,0,0.1-0.5,0.2L4.2,136.3C4.2,136.3,4.2,136.3,4.2,136.3z M4.1,136.5c0.6,0.4,2.1,0.4,2.7,0
		c-0.1-0.9-0.1-0.7-1.2-0.7C4.5,135.7,4.2,135.5,4.1,136.5L4.1,136.5C4.1,136.5,4.1,136.5,4.1,136.5z M115.9,140.8
		c0.5,0.7,1.9,0.4,2.7,0.3l-0.1-0.9c-0.5-0.1-0.9-0.1-1.4-0.1c-1.5,0-1.1,0.1-1.3,0.4L115.9,140.8L115.9,140.8L115.9,140.8
		L115.9,140.8z M143.4,139.2c-0.6-0.4-2.2-0.4-2.7,0c0.1,0.9,0.2,0.7,1.3,0.7c0.8,0,0.9,0.1,1.5-0.3L143.4,139.2L143.4,139.2
		L143.4,139.2z M153,139.1c-0.7,0-0.9-0.1-1.5,0.3l0,0.4c0.6,0.4,2.2,0.4,2.7,0C154.1,139,154.1,139.1,153,139.1L153,139.1
		L153,139.1z M29.7,135.6l0.2-0.4c0.9,0,1.6-0.2,2.2,0.2c-0.3,0.1,0.3,0-0.5,0.2L29.7,135.6c0.1,0.1,0.1,0.1,0.5,0.2
		c0,0,0.6,0,0.6,0c0.6,0,1,0,1.6-0.1l-0.1-0.8l-2.5,0l-0.2,0.6L29.7,135.6C29.7,135.6,29.7,135.6,29.7,135.6z M129.2,134.7
		c-1.1,0-0.9-0.1-1.1,0.7c0.6,0.3,2.1,0.4,2.7,0l0-0.4C130.3,134.6,129.9,134.7,129.2,134.7L129.2,134.7L129.2,134.7z M28.1,138.6
		c0.9,0,2.3,0.3,2.8-0.4c-0.3-0.7,0.1-0.2-0.7-0.5l-1.9,0L28.1,138.6L28.1,138.6L28.1,138.6z M191.7,134c0.2,0.3-0.1,0.4,1.3,0.4
		c1,0,0.9,0.2,1.4-0.5c-0.5-0.6-0.1-0.5-1.2-0.5c0,0-0.8,0-0.9,0c-0.6,0.1-0.3,0-0.7,0.4L191.7,134L191.7,134L191.7,134z
		 M217.7,133.8c-0.2-0.3,0.1-0.4-1.3-0.4c-1.1,0-1-0.2-1.4,0.5c0.4,0.5,1,0.6,2.1,0.4c0.6-0.1,0.3,0,0.7-0.3L217.7,133.8
		L217.7,133.8L217.7,133.8L217.7,133.8z M17.1,138l0,0.4c0.6,0.4,2.1,0.4,2.7,0l0-0.4C19.2,137.5,17.7,137.5,17.1,138
		C17.1,138,17.1,138,17.1,138z M158.7,137.3c0.3-0.2,0.2-0.3,1.3-0.3l1.1,0.3c-0.5,0.3-1.3,0.3-1.9,0.2
		C158.7,137.4,159,137.5,158.7,137.3L158.7,137.3L158.7,137.3L158.7,137.3z M161.3,137.3c-0.6-1-2.5-0.5-2.8-0.2l0,0.4
		C158.8,137.7,160.7,138.3,161.3,137.3L161.3,137.3L161.3,137.3z M114.9,142l1.1-0.3c1.3,0,1.1,0.1,1.2,0.3
		C116.7,142.4,115.5,142.3,114.9,142z M117.5,141.8c-0.4-0.3-2.2-0.7-2.8,0.2c0.4,0.3-0.4,0.2,0.5,0.5c0.2,0,1.7,0.2,2.3-0.2
		L117.5,141.8L117.5,141.8L117.5,141.8L117.5,141.8z M121.4,135.5c-1,0-0.9-0.2-1.4,0.5c0.3,0.3-0.4,0.5,1.6,0.5
		c1.1,0,1.1,0.2,1.2-0.7C122.3,135.4,122.2,135.5,121.4,135.5L121.4,135.5L121.4,135.5z M2.2,140.7c0.4-0.3,1.2-0.3,1.7-0.2
		c0.9,0.1,0.3,0,0.6,0.2c-0.6,0.4-1.6,0.3-2,0.2L2.2,140.7L2.2,140.7C2.2,140.7,2.2,140.7,2.2,140.7z M3.2,140.2
		c-1.1,0-1.1-0.2-1.3,0.7c0.6,0.4,2.2,0.4,2.7,0C4.6,140,4.4,140.2,3.2,140.2L3.2,140.2L3.2,140.2z M10.4,135.2c1,0,1.8-0.2,2.4,0.2
		c-0.2,0.1-0.1,0.2-1.3,0.2C9.7,135.6,10.7,135.5,10.4,135.2C10.4,135.2,10.4,135.2,10.4,135.2z M10.2,135.6
		c0.3,0.2,2.2,0.7,2.8-0.2c-0.4-0.7-0.5-0.5-1.5-0.5C10.4,134.9,10.3,134.7,10.2,135.6L10.2,135.6L10.2,135.6L10.2,135.6z
		 M83.9,139.7c0.5-0.3,1.8-0.5,2.3,0c-0.4,0.4-0.5,0.3-1.1,0.3c0,0-0.6,0-0.7,0C84.1,139.8,84.1,139.7,83.9,139.7L83.9,139.7
		C83.9,139.7,83.9,139.7,83.9,139.7z M84.2,139.2c-0.9,0.3-0.1-0.2-0.6,0.5c0.4,0.3-0.5,0.2,0.6,0.5c0.2,0,1.7,0.2,2.3-0.3l0-0.4
		C85.9,139,84.5,139.1,84.2,139.2L84.2,139.2C84.2,139.2,84.2,139.2,84.2,139.2z M67.6,137.6l-0.1-0.4l0-0.2
		c-0.1-0.2,0.1-0.4-1.3-0.4c-0.7,0-0.7,0-1.4,0.2l0,0.6L67.6,137.6L67.6,137.6L67.6,137.6z M182.6,142.1c0.3,0.3-0.2,0.2,0.7,0.3
		c1.5,0.3,1.8-0.1,2-0.5c-0.4-0.6-1.4-0.6-2.2-0.4c-0.6,0.1-0.2-0.1-0.5,0.3L182.6,142.1L182.6,142.1L182.6,142.1L182.6,142.1z
		 M45.4,138.5c0.4,0.4-0.6,0.3,0.7,0.3c1,0,1.5,0.3,2-0.5c-0.4-0.6-0.1-0.5-1.2-0.5c-1.7,0-1.4,0.2-1.6,0.4L45.4,138.5L45.4,138.5
		L45.4,138.5L45.4,138.5z M104.9,138c-0.4-0.4,0.4-0.1-0.7-0.4c-1.1-0.2-1.7,0-2,0.5c0.4,0.6,0.4,0.5,1.4,0.5c1.4,0,1.2-0.1,1.3-0.4
		L104.9,138L104.9,138L104.9,138L104.9,138z M237.6,139.9v-0.2v-0.4V139c-1,0-0.9-0.2-1.4,0.5C236.6,140.1,236.5,139.9,237.6,139.9
		L237.6,139.9L237.6,139.9L237.6,139.9z M91.9,136.2c-0.4-0.4,0.3-0.2-0.7-0.4c-1-0.2-1.7-0.1-2.1,0.5c0.5,0.6,0.4,0.5,1.4,0.5
		c1.2,0,1.1-0.1,1.3-0.4L91.9,136.2L91.9,136.2L91.9,136.2z M217.7,138.3c-0.3-0.4,0-0.2-0.7-0.4c-1.1-0.2-1.7-0.1-2.1,0.5
		c0.3,0.4,0.2,0.5,1.4,0.5c1.4,0,1.2-0.1,1.3-0.4L217.7,138.3L217.7,138.3L217.7,138.3L217.7,138.3z M76.4,140.7
		c0.3,0.3-0.3,0.2,0.7,0.3c0.4,0.1,1.4,0.1,1.9-0.3c-0.3-0.3,0.3-0.2-0.7-0.3C77.9,140.3,76.9,140.3,76.4,140.7L76.4,140.7z
		 M55.7,139.4c0.4,0.3,0.5,0.3,1.2,0.3c1.5,0,1-0.2,1.2-0.5C57.3,139.2,56.2,139,55.7,139.4z M163,139.7c0.4,0.3,0.5,0.2,1.2,0.3
		c0.8,0,0.8,0.1,1.3-0.3C165,139.3,163.5,139.2,163,139.7L163,139.7L163,139.7L163,139.7z M17.2,138.4l1.9,0
		c0.4-0.1,0.3-0.1,0.5-0.2c-0.2-0.1,0-0.1-0.5-0.2c-0.1,0-0.7,0-0.9,0C16.6,137.9,17.5,138.1,17.2,138.4L17.2,138.4
		C17.2,138.4,17.2,138.4,17.2,138.4z M151.7,139.7c0.4,0.3,1.1,0.3,1.7,0.2c1-0.1,0.4-0.1,0.7-0.2
		C153.5,139.3,152.3,139.3,151.7,139.7z M28.3,138.2c0.5,0.3,0.3,0.2,1,0.2l1.3-0.2c-0.4-0.3-1.2-0.3-1.8-0.2
		C27.9,138.1,28.6,137.9,28.3,138.2L28.3,138.2C28.3,138.2,28.3,138.2,28.3,138.2z M49.4,139.4c0.4,0.3,0.2,0.2,1,0.2l1.4-0.2
		C51.1,139.1,49.9,139,49.4,139.4z M105,142.4c-0.4-0.3-2.1-0.7-2.8,0.2c0.4,0.4,0,0.3,0.6,0.5c0.1,0,1.7,0.2,2.3-0.3L105,142.4
		L105,142.4L105,142.4L105,142.4z M226.9,134.1c0.4-0.3-0.4-0.1,0.7-0.3c0.8-0.1,1.2,0,1.6,0.3C228.7,134.5,227.4,134.4,226.9,134.1
		z M226.6,134.1c0.8,0.9,2.5,0.5,2.9,0.2l0-0.4c-0.6-0.5-2.2-0.3-2.3-0.3C226.1,134,227,133.8,226.6,134.1L226.6,134.1z
		 M113.1,135.3c-1.2,0-1.1,0-1.6,0.3c0.2,1.4,2.6,0.6,2.8,0.4C114.2,135.1,114.2,135.3,113.1,135.3L113.1,135.3z M60.6,135.2
		c0.5,0.5,1.9,0.3,2.4,0C62.4,134.8,61.2,134.7,60.6,135.2z M111.7,135.8c0.2,0.1,0.1,0.1,0.5,0.2c0,0,0.6,0,0.6,0
		c0.7,0,0.8,0.1,1.2-0.2c-0.4-0.3-0.8-0.4-1.6-0.3C111.7,135.7,112,135.7,111.7,135.8L111.7,135.8
		C111.7,135.8,111.7,135.8,111.7,135.8z M230.3,135.2c0.2,0.1-0.1,0.1,0.5,0.2c0.1,0,0.5,0,0.6,0c0.6,0,0.8,0.1,1.2-0.2
		c-0.4-0.3-0.2-0.2-0.9-0.3C230.1,134.9,230.4,135.1,230.3,135.2L230.3,135.2L230.3,135.2L230.3,135.2z M97.5,142
		c0.5,0.3,1.8,0.5,2.3,0c-0.4-0.3-0.9-0.3-1.6-0.2c-0.6,0.1,0.2-0.1-0.4,0.1L97.5,142L97.5,142z M102.4,142.6c0.6,0.3,1.8,0.5,2.3,0
		c-0.5-0.4-1.5-0.3-2.2-0.1C102.5,142.6,102.5,142.6,102.4,142.6L102.4,142.6z M134.5,139.4c0.4,0.3,1.2,0.3,1.7,0.2
		c0.7-0.1,0.4-0.1,0.7-0.2C136.3,139.1,135,139.1,134.5,139.4z M120.2,136c0.1,0,0.1,0.1,0.2,0.1c0.6,0.2,1.6,0.3,2.2-0.1
		c-0.5-0.3-1.2-0.4-1.9-0.2C120.3,135.9,120.5,135.9,120.2,136L120.2,136L120.2,136z M140.8,139.4c0.2,0.1,0.1,0.1,0.5,0.2
		c0.7,0.1,1.5,0.1,1.9-0.2c-0.2-0.1-0.1-0.1-0.5-0.2l-1.3,0C140.9,139.3,141.2,139.2,140.8,139.4L140.8,139.4z M182.6,135.3l0,0.2
		c0.2,0.2-0.2,0.4,1.5,0.4c1,0,0.7,0.1,1.2-0.5C184.8,134.6,182.9,134.8,182.6,135.3L182.6,135.3L182.6,135.3z M150.2,137.1
		c0.2,0.1,0.1,0.1,0.5,0.2c0.1,0,0.5,0,0.6,0l1.3-0.2c-0.5-0.3-1.2-0.3-1.8-0.2C150,137,150.4,137,150.2,137.1L150.2,137.1
		L150.2,137.1z M128.3,135.2l1.8,0.2c0.8-0.1,0.4,0,0.6-0.2C130.2,134.8,128.9,134.8,128.3,135.2L128.3,135.2L128.3,135.2
		L128.3,135.2z M141.3,137.3c0.2,0.1,0.1,0.1,0.5,0.2l1.9-0.2c-0.2-0.1-0.1-0.1-0.5-0.2C142.6,137,141.7,137,141.3,137.3
		L141.3,137.3L141.3,137.3z"/>
</g>
</svg>
