<?xml version="1.0" encoding="utf-8"?>
<!-- Generator: Adobe Illustrator 26.0.1, SVG Export Plug-In . SVG Version: 6.00 Build 0)  -->
<svg version="1.1" id="Слой_1" xmlns:xodm="http://www.corel.com/coreldraw/odm/2003"
	 xmlns="http://www.w3.org/2000/svg" xmlns:xlink="http://www.w3.org/1999/xlink" x="0px" y="0px" viewBox="0 0 238.1 150.2"
	 style="enable-background:new 0 0 238.1 150.2;" xml:space="preserve">
<style type="text/css">
	.st0{fill-rule:evenodd;clip-rule:evenodd;}
</style>
<g id="Слой_x0020_1">
	<path class="st0" d="M46.8,14.2h145.6c0.1,0,0.2-0.1,0.2-0.2c0-0.1-0.1-0.2-0.2-0.2H46.8c-0.1,0-0.2,0.1-0.2,0.2
		C46.6,14.1,46.7,14.2,46.8,14.2z M77.4,88.1c0,0.4,0.2,0.8,0.5,1.1c0.7,0.6,1.7,0.6,2.4,0c0.7-0.6,0.7-1.6,0-2.2
		c-0.7-0.6-1.7-0.6-2.4,0C77.6,87.3,77.4,87.7,77.4,88.1z M81.5,88.1c0,0.5-0.2,1.1-0.7,1.5c-0.9,0.8-2.4,0.8-3.4,0
		c-0.4-0.4-0.7-0.9-0.7-1.5c0-0.6,0.2-1.1,0.7-1.5c0.9-0.8,2.4-0.8,3.4,0C81.2,87,81.5,87.6,81.5,88.1z M87.1,84.5
		c0,0.8,0.8,1.5,1.7,1.5c0.9,0,1.7-0.7,1.7-1.5c0-0.8-0.8-1.5-1.7-1.5S87.1,83.7,87.1,84.5z M91.1,84.5c0,1.2-1.1,2.1-2.4,2.1
		s-2.4-1-2.4-2.1c0-1.2,1.1-2.1,2.4-2.1S91.1,83.4,91.1,84.5z M91.1,75.9c0,0.4,0.2,0.8,0.5,1.1c0.3,0.3,0.7,0.4,1.2,0.4
		s0.9-0.2,1.2-0.4c0.3-0.3,0.5-0.7,0.5-1.1c0-0.4-0.2-0.8-0.5-1.1c-0.3-0.3-0.7-0.4-1.2-0.4s-0.9,0.2-1.2,0.4
		C91.2,75.1,91.1,75.5,91.1,75.9z M95.1,75.9c0,0.6-0.2,1.1-0.7,1.5c-0.4,0.4-1,0.6-1.7,0.6c-0.6,0-1.2-0.2-1.7-0.6
		c-0.4-0.4-0.7-0.9-0.7-1.5c0-0.6,0.2-1.1,0.7-1.5c0.9-0.8,2.4-0.8,3.4,0C94.9,74.8,95.1,75.3,95.1,75.9z M87.1,67.2
		c0,0.8,0.8,1.5,1.7,1.5c0.9,0,1.7-0.7,1.7-1.5c0-0.8-0.8-1.5-1.7-1.5C87.8,65.6,87.1,66.3,87.1,67.2z M91.2,67.2
		c0,1.2-1.1,2.1-2.4,2.1c-1.3,0-2.4-1-2.4-2.1c0-1.2,1.1-2.1,2.4-2.1C90.1,65,91.2,66,91.2,67.2z M77.4,63.5c0,0.4,0.2,0.8,0.5,1.1
		c0.3,0.3,0.7,0.4,1.2,0.4c0.5,0,0.9-0.2,1.2-0.4c0.3-0.3,0.5-0.7,0.5-1.1c0-0.4-0.2-0.8-0.5-1.1C80,62.2,79.6,62,79.1,62
		c-0.5,0-0.9,0.2-1.2,0.4C77.6,62.8,77.4,63.1,77.4,63.5z M81.5,63.5c0,0.5-0.2,1.1-0.7,1.5c-0.4,0.4-1,0.6-1.7,0.6
		c-0.6,0-1.2-0.2-1.7-0.6c-0.4-0.4-0.7-0.9-0.7-1.5c0-0.6,0.2-1.1,0.7-1.5c0.4-0.4,1-0.6,1.7-0.6c0.6,0,1.2,0.2,1.7,0.6
		C81.3,62.5,81.5,63,81.5,63.5z M67.8,67.1c0,0.8,0.8,1.5,1.7,1.5c0.9,0,1.7-0.7,1.7-1.5s-0.8-1.5-1.7-1.5
		C68.5,65.6,67.8,66.3,67.8,67.1z M71.8,67.1c0,1.2-1.1,2.1-2.4,2.1c-1.3,0-2.4-1-2.4-2.1s1.1-2.1,2.4-2.1
		C70.8,65,71.8,66,71.8,67.1z M63.7,75.8c0,0.4,0.2,0.8,0.5,1.1c0.3,0.3,0.7,0.4,1.2,0.4c0.5,0,0.9-0.2,1.2-0.4
		c0.7-0.6,0.7-1.6,0-2.2c-0.7-0.6-1.7-0.6-2.4,0C63.9,75,63.7,75.4,63.7,75.8z M67.8,75.8c0,0.5-0.2,1.1-0.7,1.5
		c-0.4,0.4-1,0.6-1.7,0.6c-0.6,0-1.2-0.2-1.7-0.6c-0.9-0.8-0.9-2.2,0-3c0.9-0.8,2.4-0.8,3.4,0h0C67.6,74.7,67.8,75.3,67.8,75.8z
		 M67.7,84.5c0,0.8,0.8,1.5,1.7,1.5c0.9,0,1.7-0.7,1.7-1.5c0-0.8-0.8-1.5-1.7-1.5C68.5,83,67.7,83.7,67.7,84.5z M71.8,84.5
		c0,1.2-1.1,2.1-2.4,2.1c-1.3,0-2.4-1-2.4-2.1c0-1.2,1.1-2.1,2.4-2.1C70.7,82.4,71.8,83.3,71.8,84.5z M87,35.6
		c3.1,2.2,5.2,5.5,5.7,9c-1.1-0.3-2.3-0.5-3.6-0.5c-1.3,0-2.5,0.2-3.7,0.5c-0.3,0.1-0.5,0-0.7-0.2l0,0c-3-2.7-7.8-2.7-10.8,0
		c0,0-0.1,0-0.1,0.1c-0.2,0.2-0.5,0.2-0.7,0.2c-2.4-0.8-5.1-0.8-7.6-0.1c0.5-3.6,2.5-6.8,5.7-9C75.8,32.3,82.3,32.3,87,35.6z
		 M27.7,75.8L27.7,75.8c0,0.5,0.2,0.9,0.5,1.3l5.5,6.3c0.9,1,1.9,1.9,3,2.6c-0.4,0.9-0.6,1.8-0.6,2.8c0,3.1,2.1,5.7,5,6.8
		c-0.1,0.7-0.2,1.4-0.2,2.1c0,0.6,0,1.1,0.1,1.7l1.1,7.9c0.1,0.5,0.3,0.9,0.7,1.2c0.4,0.3,0.8,0.5,1.3,0.6l8.8,1
		c1.4,0.2,2.8,0.1,4.2,0c0.4,0.8,1,1.6,1.8,2.3c2.4,2.2,5.9,2.7,8.9,1.6c0.8,1,1.8,1.9,2.9,2.7l7,5c0.4,0.3,0.9,0.4,1.3,0.4
		c0,0,0,0,0,0h0c0.5,0,1-0.2,1.3-0.4l7-5c1.1-0.8,2.1-1.7,2.9-2.7c1,0.3,2,0.5,3.1,0.5c3.4,0,6.3-1.9,7.6-4.5c1.4,0.2,2.8,0.2,4.2,0
		l8.9-1c0.5-0.1,0.9-0.2,1.3-0.6l0,0c0.3-0.3,0.6-0.7,0.6-1.1l1.1-8c0.1-0.6,0.1-1.1,0.1-1.7c0-0.7-0.1-1.3-0.2-2
		c1-0.4,1.8-0.9,2.6-1.6c2.4-2.2,3-5.4,1.8-8.1c1.1-0.7,2.1-1.6,3-2.6l5.6-6.4c0.3-0.3,0.4-0.7,0.4-1.2v0c0-0.4-0.2-0.8-0.4-1.2
		l-5.6-6.4c-0.9-1-1.9-1.9-3-2.6c0.4-0.9,0.6-1.8,0.6-2.8c0-3.1-2.1-5.7-5.1-6.8c0.1-0.7,0.2-1.3,0.2-2c0-0.6,0-1.1-0.1-1.7l-1.1-8
		c-0.1-0.4-0.3-0.8-0.6-1.1l0,0c-0.3-0.3-0.8-0.5-1.3-0.6l-8.9-1c-1.4-0.1-2.8-0.1-4.1,0c-0.4-0.8-1-1.6-1.8-2.3
		c-2.4-2.2-6-2.7-9-1.6c-0.8-1-1.8-1.9-2.9-2.7l-7.1-5c-0.4-0.3-0.8-0.4-1.3-0.4l0,0c-0.5,0-0.9,0.1-1.3,0.4l-7.1,5
		c-1.1,0.8-2.1,1.7-2.9,2.7c-0.9-0.3-2-0.5-3.1-0.5c-3.4,0-6.3,1.9-7.6,4.5c-1.4-0.2-2.8-0.2-4.2-0.1l-8.8,1c-0.5,0.1-1,0.3-1.3,0.6
		l0,0c-0.4,0.3-0.6,0.7-0.6,1.2l-1.1,8c-0.2,1.2-0.1,2.5,0.1,3.7c-0.9,0.4-1.8,0.9-2.6,1.6c-2.4,2.2-3,5.4-1.8,8
		c-1.1,0.8-2.1,1.6-3,2.6l-5.5,6.3C27.9,75,27.7,75.4,27.7,75.8L27.7,75.8z M98.9,39.7L98.9,39.7c0.9,0.8,0.5,2.2-0.7,2.5
		c-1.7,0.5-3.3,1.3-4.7,2.3c-0.2-1.6-0.7-3.2-1.5-4.6c-0.5-1,0.2-2.2,1.5-2.2C95.4,37.7,97.4,38.4,98.9,39.7z M105.1,42.3
		c5.9,0.6,10.5,4.8,11.2,10.1l0.1,0l-0.1,0c0.5,3.6-0.6,7.2-3.1,10c-0.5-1-1.2-1.9-2.1-2.7c-0.9-0.8-1.9-1.5-3-1.9
		c-0.2-0.1-0.4-0.3-0.4-0.6v0c0-3.8-3.4-6.8-7.6-6.8c0,0-0.1,0-0.1,0c-0.3,0-0.5-0.1-0.7-0.4c-1.1-2.1-3-3.8-5.3-4.9
		C97.2,42.9,101.2,41.9,105.1,42.3z M119.1,58c1.4,1.2,2.3,3,2.3,4.9c0,0,0,0,0,0c0,1.1-1.3,1.8-2.5,1.3c-1.6-0.7-3.4-1.2-5.2-1.4
		c1.1-1.3,2-2.7,2.6-4.3C116.8,57.6,118.3,57.2,119.1,58z M123.8,68.7c3.7,4.2,3.7,10,0,14.2c-2.5,2.8-6.1,4.6-10,5.1
		c0.4-1,0.6-2.1,0.6-3.3c0-1.2-0.2-2.3-0.6-3.3c-0.1-0.2,0-0.5,0.2-0.7l0,0c3-2.7,3-7,0-9.7c0,0-0.1,0-0.1-0.1
		c-0.2-0.2-0.3-0.4-0.2-0.7c0.5-1.1,0.7-2.3,0.7-3.5c0-1.1-0.2-2.2-0.6-3.3C117.8,64.1,121.4,65.9,123.8,68.7z M121.4,88.7
		c0,1.8-0.7,3.6-2.2,4.9c0,0,0,0,0,0c-0.9,0.8-2.4,0.4-2.8-0.6c-0.6-1.5-1.5-3-2.6-4.3c1.8-0.2,3.6-0.7,5.2-1.4
		C120.1,86.9,121.4,87.6,121.4,88.7z M116.3,99.3c-0.7,5.3-5.3,9.4-11.2,10.1h0l0,0c-4,0.4-8-0.6-11.1-2.8c1.1-0.5,2.1-1.1,3-1.9
		c0.9-0.8,1.6-1.7,2.2-2.7c0.1-0.2,0.4-0.4,0.6-0.4h0c4.2,0,7.6-3.1,7.6-6.8c0,0,0-0.1,0-0.1c0-0.3,0.2-0.5,0.4-0.6
		c2.3-1,4.2-2.7,5.4-4.7C115.7,92.1,116.8,95.7,116.3,99.3z M98.9,111.9c-1.4,1.3-3.3,2.1-5.4,2.1c0,0,0,0-0.1,0
		c-1.2,0-2-1.2-1.5-2.2c0.8-1.5,1.3-3,1.5-4.7c1.4,1,3,1.8,4.7,2.3C99.4,109.8,99.8,111.1,98.9,111.9z M87,116.1
		c-4.7,3.3-11.2,3.3-15.8,0c-3.1-2.2-5.2-5.5-5.7-9c1.1,0.3,2.4,0.5,3.6,0.5c1.3,0,2.5-0.2,3.7-0.5c0.3-0.1,0.5,0,0.7,0.2l0,0
		c3,2.7,7.8,2.7,10.8,0c0,0,0,0,0.1-0.1c0.2-0.2,0.5-0.2,0.7-0.2c1.2,0.4,2.5,0.6,3.9,0.6c1.3,0,2.5-0.2,3.6-0.5
		C92.2,110.6,90.1,113.9,87,116.1z M59.3,111.9L59.3,111.9c-0.9-0.8-0.5-2.2,0.7-2.5c1.7-0.5,3.3-1.3,4.7-2.3
		c0.2,1.6,0.7,3.2,1.5,4.6c0.5,1-0.2,2.2-1.5,2.2C62.8,113.9,60.8,113.3,59.3,111.9z M53,109.4c-5.9-0.6-10.5-4.8-11.2-10.1
		c-0.1-0.5-0.1-1.1-0.1-1.6c0-3,1.1-6,3.2-8.4c0.5,1,1.3,1.9,2.1,2.7c0.9,0.8,1.9,1.5,3,1.9c0.2,0.1,0.4,0.3,0.4,0.6v0
		c0,3.8,3.4,6.8,7.6,6.8c0,0,0.1,0,0.1,0c0.3,0,0.5,0.1,0.6,0.4c1.1,2.1,3,3.8,5.3,4.8C61,108.8,57,109.8,53,109.4
		C53,109.4,53,109.4,53,109.4z M39,93.6c-1.4-1.2-2.3-3-2.3-4.9v0c0-1.1,1.3-1.8,2.5-1.3c1.6,0.7,3.3,1.2,5.1,1.4
		c-1.1,1.3-2,2.7-2.6,4.2C41.4,94.1,39.9,94.4,39,93.6z M34.3,83c-3.6-4.2-3.6-10,0-14.2h0c2.5-2.8,6.1-4.7,10.1-5.1
		c-0.4,1-0.6,2.1-0.6,3.3c0,1.2,0.2,2.3,0.6,3.3c0.1,0.2,0,0.5-0.2,0.7l0,0c-3,2.7-3,7,0,9.7c0,0,0,0,0.1,0.1
		c0.2,0.2,0.3,0.4,0.2,0.7c-0.4,1.1-0.7,2.3-0.7,3.5c0,1.1,0.2,2.2,0.6,3.3C40.4,87.6,36.8,85.8,34.3,83L34.3,83z M36.8,62.9
		c0-1.8,0.7-3.5,2.2-4.9l0,0c0.9-0.8,2.4-0.4,2.8,0.6c0.6,1.5,1.4,3,2.6,4.2c-1.8,0.2-3.5,0.7-5.1,1.4
		C38.1,64.7,36.8,64.1,36.8,62.9z M76.7,47.5C76.7,47.5,76.8,47.6,76.7,47.5c1.3,1.2,1.7,2.8,1.3,4.3c-0.2,0.8-0.3,1.6-0.3,2.5
		c0,0.1,0,0.3,0,0.4c-2.4,0.1-4.8,0.6-7,1.3v-0.2c0-4-1.9-7.8-5.1-10.5C69.3,44.1,73.7,44.8,76.7,47.5z M78.4,54.7
		c0-0.1,0-0.3,0-0.4c0-1.2,0.2-2.3,0.7-3.4c0.5,1.2,0.7,2.5,0.7,3.8c-0.2,0-0.5,0-0.7,0C78.9,54.7,78.7,54.7,78.4,54.7z M87.4,55.8
		V56c-2.2-0.7-4.5-1.2-6.9-1.3c0-0.1,0-0.3,0-0.4c0-0.8-0.1-1.6-0.3-2.4c-0.4-1.5,0-3.2,1.3-4.3c1.9-1.7,4.6-2.8,7.5-2.8
		c1.2,0,2.4,0.2,3.5,0.5C89.3,48,87.4,51.8,87.4,55.8z M88.2,55.9v-0.1c0-1.9,0.4-3.7,1.2-5.4c0.3-0.7,1-0.7,1.5-0.5
		c0.5,0.2,1,0.7,0.7,1.4c-0.8,1.7-1.9,3.3-3.4,4.6L88.2,55.9z M99.7,54.3L99.7,54.3c0,1.6-0.9,3.1-2.4,3.9c-0.8,0.4-1.5,0.9-2.2,1.5
		c-0.1,0.1-0.2,0.2-0.3,0.3c-1.8-1.4-3.8-2.6-6-3.5l0.2-0.2c3-2.7,4.7-6.4,4.7-10.1c0-0.2,0-0.4,0-0.6
		C97.2,47.2,99.7,50.5,99.7,54.3C99.7,54.3,99.7,54.3,99.7,54.3z M110.6,73.7C110.6,73.7,110.5,73.7,110.6,73.7
		c-1.3,1.2-3.1,1.6-4.8,1.2c-0.9-0.2-1.8-0.3-2.7-0.3c-0.2,0-0.3,0-0.5,0c-0.1-2.2-0.7-4.3-1.5-6.2h0.2c4.5,0,8.7-1.7,11.7-4.6
		c0.4,1,0.6,2.1,0.6,3.2C113.7,69.4,112.7,71.8,110.6,73.7z M110.8,77.4c-1-0.8-0.9-2.2,0-3c0.1-0.1,0.2-0.1,0.2-0.2
		c0.9-0.8,1.6-1.8,2.2-2.8c0.1,0.1,0.2,0.1,0.2,0.2c2.7,2.4,2.7,6.4,0,8.8c0,0-0.1,0.1-0.1,0.1C112.8,79.3,111.9,78.2,110.8,77.4z
		 M101.3,83.4h-0.2c0.8-2,1.3-4,1.5-6.2c0.2,0,0.3,0,0.5,0c0.9,0,1.8-0.1,2.7-0.3c1.7-0.4,3.6,0.1,4.8,1.2c1.9,1.7,3.1,4.1,3.1,6.7
		c0,1.1-0.2,2.2-0.6,3.2C110.1,85,105.8,83.4,101.3,83.4z M99.7,101c0.5-1.1,0.7-2.3,0.7-3.5c0-0.1,0-0.2,0-0.3c0-1.2,1-2.2,2.4-2.1
		c0.1,0,0.2,0,0.3,0c1.3,0,2.5-0.2,3.7-0.6c0,0.1,0,0.2,0,0.3c0,3.4-3.1,6.2-6.9,6.2C99.8,101,99.7,101,99.7,101z M93.6,105.4
		c0-3.8-1.7-7.5-4.7-10.1l-0.2-0.2c2.2-0.9,4.2-2.1,6-3.5c0.7,0.7,1.6,1.4,2.6,1.9c1.5,0.8,2.3,2.2,2.4,3.8c0,0,0,0.1,0,0.1
		c0,2.4-1,4.9-3.1,6.8c-0.9,0.8-1.9,1.4-3,1.9C93.6,105.8,93.6,105.6,93.6,105.4z M88.2,95.7l0.1,0.1c1.5,1.3,2.6,2.9,3.4,4.6
		c0.3,0.7-0.1,1.2-0.7,1.4c-0.5,0.2-1.2,0.1-1.6-0.5c-0.8-1.7-1.2-3.5-1.2-5.4C88.2,95.9,88.2,95.7,88.2,95.7z M81.5,104.2
		C81.5,104.1,81.4,104.1,81.5,104.2c-1.3-1.2-1.7-2.8-1.3-4.3c0.2-0.8,0.3-1.6,0.3-2.5c0-0.1,0-0.3,0-0.4c2.4-0.1,4.8-0.6,6.9-1.3
		v0.2c0,4,1.9,7.8,5.2,10.5c-1.1,0.4-2.3,0.6-3.6,0.6C86.2,107,83.5,106,81.5,104.2z M79.8,97c0,0.1,0,0.3,0,0.4
		c0,1.2-0.2,2.3-0.7,3.4c-0.5-1.1-0.7-2.2-0.7-3.4c0-0.1,0-0.3,0-0.4c0.2,0,0.5,0,0.7,0C79.3,97,79.5,97,79.8,97z M70.7,95.9v-0.2
		c2.2,0.7,4.5,1.2,6.9,1.3c0,0.1,0,0.3,0,0.4c0,0.8,0.1,1.7,0.3,2.4c0.4,1.5,0,3.1-1.3,4.3c-1.9,1.8-4.6,2.8-7.6,2.8
		c-1.2,0-2.4-0.2-3.6-0.6C68.9,103.7,70.7,99.9,70.7,95.9z M69.9,95.7v0.1c0,1.8-0.4,3.6-1.2,5.3c-0.3,0.7-1,0.7-1.6,0.5
		c-0.4-0.2-0.8-0.5-0.8-1c0-0.1,0-0.3,0.1-0.4c0.8-1.7,1.9-3.2,3.3-4.5L69.9,95.7z M58.5,97.4C58.5,97.4,58.5,97.3,58.5,97.4
		c0-1.7,1-3.1,2.5-3.9c0.8-0.4,1.5-0.9,2.2-1.5c0.1-0.1,0.2-0.2,0.3-0.3c1.8,1.4,3.8,2.6,5.9,3.5l-0.2,0.2
		c-3.1,2.8-4.8,6.7-4.6,10.7C61,104.5,58.5,101.2,58.5,97.4z M47.6,78C47.6,78,47.7,77.9,47.6,78c1.3-1.2,3.1-1.6,4.8-1.2
		c0.9,0.2,1.8,0.3,2.7,0.3c0.2,0,0.3,0,0.5,0c0.1,2.2,0.7,4.3,1.5,6.2h-0.3c-4.4,0-8.7,1.7-11.7,4.6c-0.4-1-0.6-2.1-0.6-3.2
		C44.5,82.2,45.6,79.8,47.6,78z M47.4,74.3c1,0.8,0.9,2.2,0,3c-0.1,0.1-0.2,0.1-0.2,0.2c-0.9,0.8-1.6,1.7-2.2,2.8
		c-0.1-0.1-0.2-0.1-0.2-0.2c-2.7-2.4-2.7-6.4,0-8.8c0,0,0.1-0.1,0.1-0.1C45.4,72.4,46.3,73.4,47.4,74.3z M56.8,68.3h0.3
		c-0.8,2-1.3,4-1.5,6.2c-1.1,0-2.2,0.1-3.3,0.3c-1.7,0.4-3.4-0.1-4.7-1.2c-1.9-1.7-3.2-4.1-3.2-6.8c0-1.1,0.2-2.2,0.6-3.2
		C48.1,66.7,52.4,68.3,56.8,68.3z M58.5,50.7c-0.5,1.1-0.7,2.3-0.7,3.5c0,0.1,0,0.2,0,0.3c0,1.2-1,2.2-2.4,2.1c-0.1,0-0.2,0-0.3,0
		c-1.3,0-2.5,0.2-3.7,0.6c0-0.1,0-0.2,0-0.3c0-3.4,3.1-6.2,6.9-6.2C58.4,50.7,58.5,50.7,58.5,50.7z M77.8,55.9l-2.5,1.8
		c-0.8,0.6-1.4,1.3-1.9,2c-0.6,1-1.8,1.4-3,1.1c-0.9-0.3-2-0.3-2.9-0.2l-3.1,0.3c-0.1-0.2-0.3-0.3-0.4-0.5c3.7-3,8.5-4.9,13.8-5.2
		C77.8,55.5,77.8,55.7,77.8,55.9L77.8,55.9z M78.5,55.4c0,0,0-0.1,0-0.1c0.2,0,0.4,0,0.6,0C78.9,55.2,78.7,55.3,78.5,55.4z
		 M79.7,55.4c-0.2-0.1-0.4-0.2-0.6-0.2c0.2,0,0.4,0,0.6,0C79.7,55.3,79.7,55.4,79.7,55.4z M94.3,60.4c-0.1,0.2-0.3,0.3-0.4,0.5
		l-3.2-0.3c-1-0.1-2,0-2.9,0.2c-1.2,0.3-2.4-0.1-3-1.1c-0.5-0.8-1.1-1.5-1.9-2l-2.5-1.7c0-0.2,0.1-0.4,0.1-0.6
		C85.8,55.6,90.6,57.5,94.3,60.4z M95.3,60.5c0.1-0.1,0.2-0.2,0.3-0.3c0.9-0.8,2-1.5,3.2-2c-0.6,1.2-1.5,2.2-2.5,3.1
		C95.9,61,95.6,60.7,95.3,60.5z M94.8,60.9c0.1,0.1,0.2,0.2,0.3,0.3C95,61.1,94.9,61,94.7,61C94.8,61,94.8,60.9,94.8,60.9z M93.4,63
		c0.1-0.2,0.2-0.5,0.4-0.7c0.1,0.1,0.3,0.2,0.4,0.3C93.9,62.8,93.6,62.9,93.4,63z M98.4,75.5c-1-0.5-2-1.1-2.8-1.8
		c-0.8-0.8-1.5-1.6-2-2.6c0.2-0.1,0.3-0.3,0.5-0.4c0.1-0.1,0.2-0.1,0.2-0.2c1.8,0.1,3.5,1,4.6,2.3c0.6,0.7,1,1.4,1.1,2.2
		C99.4,75.1,98.9,75.3,98.4,75.5z M102.6,76.5c0-0.2,0-0.4,0-0.6c0-0.2,0-0.4,0-0.6c0.1,0,0.3,0,0.4,0c1.3,0,2.6,0.2,3.8,0.6
		c-1.2,0.4-2.5,0.6-3.8,0.6C102.9,76.5,102.8,76.5,102.6,76.5z M98.9,78.9L98.9,78.9c-1.2,1.3-2.9,2.2-4.7,2.3
		c-0.2-0.2-0.5-0.4-0.7-0.6c1-1.9,2.7-3.4,4.8-4.3c0.5,0.2,1.1,0.4,1.7,0.5C99.9,77.5,99.5,78.3,98.9,78.9z M93.4,88.7
		c0.3,0.1,0.5,0.2,0.8,0.3c-0.1,0.1-0.2,0.2-0.4,0.3C93.6,89.2,93.5,88.9,93.4,88.7z M95.2,91.3c0.3-0.3,0.7-0.6,1-0.9
		c0.1,0.1,0.2,0.2,0.3,0.3c0.9,0.8,1.7,1.8,2.2,2.8C97.4,93,96.2,92.2,95.2,91.3z M94.7,90.7c0.2,0,0.3-0.1,0.5-0.2
		c-0.1,0.1-0.2,0.2-0.4,0.3C94.8,90.8,94.7,90.7,94.7,90.7z M80.4,95.8l2.5-1.8c0.2-0.2,0.4-0.3,0.6-0.5c0.5-0.5,0.9-1,1.3-1.5
		c0.6-1,1.8-1.4,3-1.1c0.9,0.3,2,0.3,2.9,0.2l3.1-0.3c0.1,0.2,0.3,0.3,0.4,0.5c-3.7,3-8.5,4.9-13.8,5.2C80.4,96.2,80.4,96,80.4,95.8
		z M79.7,96.3c0,0.1,0,0.1,0,0.2c-0.2,0-0.4,0-0.6,0C79.3,96.4,79.5,96.4,79.7,96.3z M78.5,96.3c0.2,0.1,0.4,0.2,0.6,0.2
		c-0.2,0-0.4,0-0.6,0C78.5,96.4,78.5,96.3,78.5,96.3z M63.9,91.2c0.1-0.2,0.3-0.3,0.4-0.5l3.2,0.3c1,0.1,2,0,2.9-0.2
		c1.2-0.3,2.4,0.1,3,1.1c0.5,0.8,1.1,1.5,1.9,2l2.5,1.8c0,0.2-0.1,0.4-0.1,0.6C72.4,96.1,67.6,94.2,63.9,91.2z M62.9,91.2
		c-0.1,0.1-0.2,0.2-0.3,0.3c-0.9,0.8-2,1.5-3.2,2c0.6-1.2,1.5-2.2,2.5-3.1C62.3,90.7,62.6,91,62.9,91.2z M63.4,90.8
		c-0.1-0.1-0.2-0.2-0.3-0.3c0.1,0.1,0.3,0.1,0.4,0.2C63.4,90.7,63.4,90.8,63.4,90.8z M64.8,88.7c-0.1,0.2-0.2,0.5-0.4,0.7
		c-0.1-0.1-0.3-0.2-0.4-0.3C64.3,88.9,64.5,88.8,64.8,88.7z M59.8,76.2c1,0.4,2,1,2.8,1.8c0.9,0.8,1.5,1.6,2,2.6
		c-0.3,0.2-0.5,0.4-0.8,0.6c-1.8-0.1-3.5-1-4.6-2.3c-0.6-0.7-0.9-1.4-1.1-2.2C58.7,76.6,59.3,76.4,59.8,76.2z M55.6,75.2
		c0,0.2,0,0.4,0,0.6c0,0.2,0,0.4,0,0.6c-0.1,0-0.3,0-0.4,0c-1.3,0-2.6-0.2-3.8-0.6C52.7,75.4,54.1,75.2,55.6,75.2z M59.3,72.7
		c0.2-0.2,0.3-0.4,0.5-0.5c1.1-1,2.6-1.6,4.1-1.7c0.2,0.2,0.5,0.4,0.8,0.6c-1,1.9-2.7,3.4-4.8,4.4c-0.5-0.2-1.1-0.4-1.7-0.5
		C58.3,74.1,58.7,73.4,59.3,72.7z M64.8,63c-0.3-0.1-0.5-0.2-0.8-0.4c0.1-0.1,0.3-0.2,0.4-0.3C64.6,62.5,64.7,62.8,64.8,63z
		 M78.7,58.5c-0.5,0.9-1.2,1.8-2,2.5c-0.8,0.8-1.8,1.4-2.9,1.8c-0.2-0.2-0.5-0.5-0.7-0.7c0.1-1.4,0.8-2.7,1.9-3.7
		c0.2-0.2,0.4-0.3,0.6-0.5c0.7-0.5,1.6-0.9,2.5-1C78.3,57.5,78.5,58,78.7,58.5z M79.1,57.7c-0.1-0.2-0.2-0.5-0.3-0.7
		c0.2,0,0.4,0,0.5,0C79.3,57.2,79.2,57.4,79.1,57.7z M79.5,58.5c0.2-0.5,0.4-1,0.6-1.5c0.9,0.1,1.7,0.5,2.4,1c1.4,1,2.3,2.5,2.5,4.2
		c-0.3,0.2-0.5,0.4-0.7,0.7C82.3,61.9,80.6,60.4,79.5,58.5z M82.7,66.8c-1.1-0.4-2.4-0.6-3.6-0.6c-1.3,0-2.5,0.2-3.6,0.6
		c0-1.2-0.4-2.4-1.2-3.4c1.1-0.5,2.1-1.1,2.9-1.9c0.8-0.7,1.4-1.5,1.9-2.3c1.1,1.8,2.8,3.2,4.8,4.2C83.2,64.4,82.7,65.6,82.7,66.8z
		 M83.2,66.8c0-0.8,0.2-1.5,0.5-2.2c0.1-0.2,0.4-0.3,0.6-0.2c0.2,0.1,0.4,0.3,0.3,0.5C84.3,65.6,83.8,66.3,83.2,66.8z M88.7,71.8
		c-1.1-2-2.9-3.7-5.1-4.6c1-0.9,1.6-2,1.9-3.2c1.1,0.3,2.3,0.5,3.6,0.5c1.1,0,2.1-0.1,3.1-0.4c-0.3,0.9-0.4,1.8-0.4,2.8
		c0,1.1,0.2,2.2,0.6,3.2C91,70.3,89.7,70.9,88.7,71.8C88.7,71.8,88.7,71.8,88.7,71.8z M91.6,71.6c-0.8,0.3-1.6,0.5-2.5,0.5
		c0.6-0.5,1.3-1,2.2-1.2c0.3-0.1,0.5,0,0.6,0.2C91.9,71.3,91.9,71.5,91.6,71.6z M91.3,80.8c-0.8-0.3-1.5-0.7-2.1-1.2
		c0.9,0,1.7,0.2,2.5,0.5c0.3,0.1,0.3,0.3,0.2,0.5C91.8,80.8,91.5,80.9,91.3,80.8z M91.7,84.8c0,1,0.2,1.9,0.4,2.8
		c-2.2-0.6-4.5-0.5-6.7,0.1c-0.3-1.2-0.9-2.3-1.9-3.2c2.3-1,4.1-2.6,5.1-4.6c1,0.9,2.2,1.4,3.5,1.7C91.9,82.6,91.7,83.7,91.7,84.8z
		 M83.2,84.9c0.6,0.6,1.1,1.2,1.4,1.9c0.1,0.3,0,0.4-0.3,0.5c-0.2,0.1-0.5,0-0.6-0.2C83.4,86.4,83.3,85.6,83.2,84.9z M74.9,84.9
		c0,0.8-0.2,1.5-0.5,2.2c-0.1,0.2-0.4,0.3-0.6,0.2c-0.2-0.1-0.3-0.2-0.3-0.4c0,0,0-0.1,0-0.2C73.9,86.1,74.3,85.4,74.9,84.9z
		 M69.5,79.9c1.1,2,2.9,3.7,5.1,4.6c-1,0.9-1.6,2-1.9,3.2c-1.1-0.3-2.3-0.5-3.6-0.5c-1.1,0-2.1,0.1-3.1,0.4c0.3-0.9,0.4-1.9,0.4-2.8
		c0-1.1-0.2-2.2-0.6-3.2C67.2,81.3,68.5,80.7,69.5,79.9z M66.5,80.1c0,0,0.1-0.1,0.2-0.1c0.8-0.3,1.6-0.5,2.5-0.5
		c-0.6,0.5-1.3,0.9-2.1,1.2c-0.3,0.1-0.5,0-0.6-0.2C66.3,80.5,66.3,80.3,66.5,80.1z M66.9,70.9c0.8,0.3,1.5,0.7,2.1,1.2
		c-0.9,0-1.7-0.2-2.5-0.5c-0.2-0.1-0.3-0.2-0.3-0.3c0-0.1,0-0.1,0-0.2c0-0.1,0.1-0.1,0.1-0.1C66.5,70.9,66.7,70.8,66.9,70.9z
		 M79.1,66.8c5.5,0,10,4,10,9c0,5-4.5,9-10,9c-5.5,0-10-4-10-9C69.1,70.9,73.6,66.8,79.1,66.8z M74.4,64.6c0.3,0.7,0.5,1.5,0.5,2.2
		c-0.6-0.6-1.1-1.2-1.4-1.9c0-0.1,0-0.1,0-0.2c0-0.1,0.1-0.2,0.1-0.3c0,0,0.1-0.1,0.2-0.1C74,64.3,74.3,64.3,74.4,64.6z M66.5,66.9
		c0-1-0.2-1.9-0.4-2.8c1,0.3,2.1,0.4,3.1,0.4c1.2,0,2.4-0.2,3.5-0.5c0.3,1.2,0.9,2.3,1.9,3.2c-2.3,1-4.1,2.6-5.1,4.6
		c-1-0.9-2.2-1.4-3.5-1.7C66.3,69.1,66.5,68,66.5,66.9L66.5,66.9z M64.1,70c-1.2-1.3-1.7-2.9-1.5-4.5c0.1-0.8,0.4-1.6,1-2.3
		c0.5,0.3,1.1,0.5,1.6,0.7c0.4,1,0.6,2,0.6,3.1c0,1.1-0.2,2.1-0.6,3.1C64.8,70,64.5,70,64.1,70z M60.6,75.8c2-1,3.6-2.5,4.6-4.3
		c1.1,0.7,2.5,1,3.8,1.1c-0.4,1-0.7,2.1-0.7,3.3c0,1.1,0.2,2.2,0.6,3.3c-1.4,0-2.7,0.4-3.8,1.1c-0.5-1-1.2-1.8-2.1-2.6
		C62.4,76.8,61.5,76.3,60.6,75.8z M56.2,75.8c0-0.2,0-0.4,0-0.5c0.1,0,0.1,0,0.2,0C56.3,75.4,56.2,75.6,56.2,75.8z M56.4,76.4
		c-0.1,0-0.1,0-0.2,0c0-0.2,0-0.3,0-0.5C56.2,76.1,56.3,76.2,56.4,76.4z M58.1,75.6c0.3,0.1,0.5,0.2,0.8,0.2
		c-0.3,0.1-0.5,0.2-0.8,0.2C58.1,75.9,58.1,75.8,58.1,75.6z M65.2,81.7c0.8,2,0.8,4.2,0,6.2c-0.6,0.2-1.1,0.4-1.6,0.7
		c-0.5-0.7-0.8-1.4-0.9-2.3c-0.2-1.6,0.3-3.3,1.5-4.5C64.5,81.7,64.8,81.7,65.2,81.7z M81,90.2c-0.8,0.7-1.4,1.4-1.9,2.3
		c-1.1-1.8-2.8-3.2-4.8-4.2c0.7-1,1.2-2.2,1.2-3.4c1.1,0.4,2.4,0.6,3.6,0.6c1.3,0,2.5-0.2,3.6-0.6c0,1.2,0.4,2.4,1.2,3.4
		C82.9,88.8,81.9,89.4,81,90.2L81,90.2z M79.5,93.2c0.5-0.9,1.2-1.8,2-2.5c0.9-0.8,1.8-1.4,2.9-1.8c0.2,0.2,0.5,0.5,0.7,0.7
		c-0.2,1.6-1.1,3.2-2.5,4.2c-0.7,0.5-1.6,0.9-2.5,1C79.9,94.2,79.7,93.7,79.5,93.2z M79.1,94c0.1,0.2,0.2,0.5,0.3,0.7
		c-0.2,0-0.4,0-0.5,0C78.9,94.5,79,94.3,79.1,94z M75.6,93.7L75.6,93.7c-1.4-1-2.3-2.5-2.5-4.2c0.1-0.1,0.2-0.1,0.2-0.2
		c0.2-0.1,0.3-0.3,0.5-0.5c2.1,0.9,3.8,2.5,4.8,4.3c-0.2,0.5-0.4,1-0.6,1.5C77.2,94.5,76.4,94.2,75.6,93.7L75.6,93.7z M94,81.7
		c1.2,1.3,1.7,2.9,1.5,4.5c-0.1,0.8-0.5,1.6-1,2.3c-0.5-0.3-1-0.5-1.6-0.7c-0.4-1-0.6-2-0.6-3.1c0-1.1,0.2-2.1,0.6-3.1
		C93.4,81.7,93.7,81.7,94,81.7z M97.6,75.9c-2,1-3.6,2.5-4.6,4.3c-1.1-0.7-2.5-1-3.8-1.1c0.4-1,0.7-2.1,0.7-3.3
		c0-1.2-0.2-2.3-0.7-3.3c1.4,0,2.7-0.4,3.8-1.1c0.5,1,1.3,1.9,2.1,2.6C95.8,74.8,96.6,75.4,97.6,75.9z M102,75.9c0,0.2,0,0.4,0,0.6
		c-0.1,0-0.1,0-0.2,0C101.9,76.3,102,76.1,102,75.9z M101.8,75.3c0.1,0,0.1,0,0.2,0c0,0.2,0,0.3,0,0.5
		C102,75.6,101.9,75.4,101.8,75.3z M100.1,76.1c-0.3-0.1-0.5-0.2-0.8-0.2c0.3-0.1,0.5-0.2,0.8-0.2C100.1,75.8,100.1,75.9,100.1,76.1
		z M93,70c-0.4-1-0.6-2-0.6-3.1c0-1.1,0.2-2.1,0.6-3.1c0.6-0.2,1.1-0.4,1.6-0.7c0.5,0.7,0.8,1.4,0.9,2.2c0.2,1.6-0.3,3.3-1.5,4.5
		C93.7,70,93.4,70,93,70z M63.4,60.9c0,0,0.1,0.1,0.1,0.1c-0.2,0-0.3,0.1-0.5,0.2C63.1,61.1,63.3,61,63.4,60.9z M62,61.3
		c-0.1-0.1-0.2-0.2-0.3-0.3c-0.9-0.8-1.7-1.8-2.2-2.8c1.3,0.5,2.5,1.3,3.5,2.3C62.6,60.7,62.3,61,62,61.3z M62.6,61.8
		c0,0-0.1-0.1-0.1-0.1c0.1-0.1,0.2-0.2,0.3-0.3C62.7,61.5,62.6,61.6,62.6,61.8z M67.5,61c1.8-0.2,3.7,0.3,5.1,1.4c0,0.3,0,0.6,0,0.9
		c-1.1,0.3-2.2,0.5-3.4,0.5c-1.2,0-2.3-0.2-3.4-0.5c-0.2-0.5-0.5-1-0.8-1.5C65.8,61.4,66.6,61.1,67.5,61z M57,67.6h-0.1
		c-2.1,0-4.1-0.4-6-1.1c-0.5-0.2-0.7-0.6-0.7-0.9c0-0.2,0-0.3,0.1-0.5c0.2-0.5,0.8-0.9,1.5-0.6c1.9,0.7,3.6,1.7,5.1,3L57,67.6z
		 M62,62.2c0.2,0.1,0.3,0.2,0.5,0.4l-0.4,2.8c-0.1,0.9,0,1.8,0.3,2.7c0.4,1.1-0.1,2.2-1.2,2.7c-0.6,0.3-1.2,0.7-1.7,1.1
		c-0.2,0.2-0.4,0.4-0.6,0.6l-2,2.2c-0.2,0-0.4-0.1-0.7-0.1C56.6,69.8,58.7,65.5,62,62.2L62,62.2z M56.9,84.2c-1.5,1.3-3.2,2.3-5.1,3
		c-0.7,0.3-1.3-0.1-1.5-0.6c-0.1-0.1-0.1-0.3-0.1-0.5c0-0.4,0.2-0.7,0.7-0.9C52.7,84.5,54.7,84.1,56.9,84.2l0.1-0.1
		C57,84.1,56.9,84.2,56.9,84.2z M56.2,77.1c0.2,0,0.4,0,0.7-0.1l2,2.3c0.6,0.7,1.4,1.3,2.3,1.7c1.1,0.5,1.6,1.6,1.2,2.7
		c-0.3,0.9-0.4,1.8-0.3,2.7l0.4,2.8c-0.2,0.1-0.4,0.2-0.5,0.4C58.7,86.1,56.6,81.8,56.2,77.1z M62.8,90.3c-0.1-0.1-0.2-0.2-0.3-0.3
		c0,0,0.1-0.1,0.1-0.1C62.6,90,62.7,90.2,62.8,90.3z M65,89.8c0.3-0.5,0.5-0.9,0.7-1.4c1.1-0.3,2.2-0.5,3.4-0.5
		c1.2,0,2.4,0.2,3.5,0.5c0,0.3,0,0.6,0,0.9c-1.4,1.1-3.2,1.6-5.1,1.4C66.6,90.5,65.7,90.2,65,89.8z M95.6,89.9c0,0,0.1,0.1,0.1,0.1
		c-0.1,0.1-0.2,0.2-0.3,0.3C95.5,90.2,95.6,90.1,95.6,89.9z M90.7,90.7c-1.8,0.2-3.7-0.3-5.1-1.4c0-0.3,0-0.6,0-0.9
		c2.2-0.7,4.6-0.7,6.8,0c0.2,0.5,0.5,1,0.7,1.4C92.4,90.2,91.6,90.5,90.7,90.7z M101.2,84.1h0.1c2.1,0,4.1,0.4,6,1.1
		c0.7,0.3,0.8,0.9,0.6,1.4c-0.2,0.5-0.8,0.9-1.5,0.6c-1.9-0.7-3.6-1.7-5.1-3C101.3,84.2,101.2,84.1,101.2,84.1z M96.2,89.5
		c-0.2-0.1-0.3-0.2-0.5-0.4l0.4-2.9c0.1-0.9,0-1.8-0.3-2.7C95.5,82.6,96,81.5,97,81c0.6-0.3,1.2-0.7,1.7-1.1
		c0.2-0.2,0.4-0.4,0.6-0.6l1.9-2.2c0.2,0,0.5,0.1,0.7,0.1C101.6,81.8,99.5,86.2,96.2,89.5z M101.3,67.5c1.5-1.3,3.2-2.3,5.1-3
		c0.7-0.3,1.3,0.1,1.5,0.6c0.2,0.5,0.1,1.1-0.6,1.4C105.4,67.2,103.4,67.6,101.3,67.5l-0.1,0.1C101.2,67.6,101.3,67.5,101.3,67.5z
		 M102,74.6c-0.2,0-0.4,0-0.7,0.1l-2-2.3c-0.6-0.7-1.4-1.3-2.3-1.7c-1.1-0.5-1.6-1.6-1.2-2.7c0.3-0.9,0.4-1.8,0.3-2.7l-0.4-2.8
		c0.2-0.1,0.4-0.2,0.5-0.4C99.5,65.5,101.6,69.9,102,74.6z M95.4,61.4c0.1,0.1,0.2,0.2,0.3,0.3c0,0-0.1,0.1-0.1,0.1
		C95.6,61.6,95.5,61.5,95.4,61.4z M93.2,61.9c-0.3,0.5-0.5,0.9-0.8,1.4c-1.1,0.3-2.2,0.5-3.4,0.5c-1.2,0-2.4-0.2-3.5-0.5
		c0-0.3,0-0.6,0-0.9c1.4-1.1,3.2-1.6,5.1-1.4C91.6,61.1,92.5,61.4,93.2,61.9z M68.7,50.5c0.8,1.7,1.2,3.5,1.2,5.3v0.1l-0.1-0.1
		c-1.4-1.3-2.6-2.8-3.3-4.5c-0.3-0.7,0.1-1.2,0.7-1.4C67.7,49.7,68.4,49.8,68.7,50.5z M69.2,56.4l0.2,0.2c-2.2,0.9-4.2,2.1-5.9,3.5
		c-0.7-0.7-1.6-1.4-2.6-1.9c-1.5-0.8-2.3-2.2-2.4-3.7c0,0,0-0.1,0-0.1c0-2.6,1.1-5,3.1-6.8c0.9-0.8,1.9-1.4,2.9-1.9
		C64.4,49.6,66.1,53.5,69.2,56.4L69.2,56.4z M45.5,62.8c1.7-3.2,5.4-5.5,9.6-5.5c0,0,0.1,0,0.1,0c1.7,0,3.3,0.9,4.2,2.2
		c0.5,0.7,1,1.4,1.7,1.9c0.1,0.1,0.2,0.2,0.3,0.3c-1.6,1.6-2.9,3.4-3.9,5.4L57.4,67C54.3,64.2,50,62.6,45.5,62.8z M57.4,84.7
		l0.2-0.2c1,2,2.3,3.8,3.9,5.4c-0.8,0.7-1.5,1.5-2.1,2.3c-0.9,1.3-2.5,2.1-4.2,2.1c0,0-0.1,0-0.1,0c-2.8,0-5.5-1-7.5-2.8
		c-0.9-0.8-1.6-1.7-2.1-2.6C50,89,54.3,87.5,57.4,84.7z M58.1,100.7c-3.8,0-6.9-2.8-6.9-6.2c0-0.1,0-0.1,0-0.2
		c1.2,0.4,2.6,0.6,3.9,0.6c0.1,0,0.2,0,0.3,0c1.3,0,2.4,0.9,2.4,2.1c0,0.1,0,0.2,0,0.3c0,1.2,0.2,2.3,0.6,3.3
		C58.3,100.7,58.2,100.7,58.1,100.7z M83.8,106.8c-2.7,2.4-7.1,2.4-9.8,0c0,0-0.1-0.1-0.1-0.1c1.3-0.6,2.5-1.3,3.5-2.3
		c0.9-0.9,2.4-0.8,3.3,0c0.1,0.1,0.2,0.1,0.2,0.2c0.9,0.8,1.9,1.5,3.1,2C84,106.7,83.9,106.7,83.8,106.8L83.8,106.8z M112.7,88.9
		c-1.7,3.2-5.4,5.5-9.6,5.5h0c-1.7,0-3.4-0.8-4.3-2.2c-0.5-0.7-1-1.4-1.7-2c-0.1-0.1-0.2-0.2-0.3-0.3c1.6-1.6,2.9-3.4,3.9-5.3
		l0.2,0.1C103.9,87.5,108.2,89,112.7,88.9z M100.7,67l-0.2,0.1c-1-2-2.3-3.7-3.8-5.3c0.8-0.7,1.5-1.4,2.1-2.3
		c0.9-1.3,2.5-2.1,4.2-2.1c2.7,0,5.5,0.9,7.6,2.8c0.9,0.8,1.6,1.7,2.1,2.6C108.2,62.6,103.9,64.2,100.7,67z M100.1,50.9
		c3.8,0,6.9,2.8,6.9,6.2c0,0.1,0,0.1,0,0.2c-1.4-0.5-2.8-0.7-4.3-0.6c-1.3,0-2.4-0.9-2.3-2.1c0-0.1,0-0.2,0-0.3
		c0-1.2-0.2-2.3-0.6-3.3C99.9,50.9,100,50.9,100.1,50.9z M74.4,44.9c2.7-2.4,7.1-2.4,9.8,0c0,0,0.1,0.1,0.1,0.1
		c-1.3,0.6-2.5,1.3-3.5,2.3c-0.9,0.9-2.4,0.8-3.3,0c-0.1-0.1-0.2-0.1-0.2-0.2c-0.9-0.8-2-1.5-3.1-2C74.2,45,74.3,44.9,74.4,44.9z
		 M41.7,54c0-0.5,0-1.1,0.1-1.6c0.7-5.3,5.3-9.4,11.2-10.1c4-0.4,8,0.6,11.1,2.8c-1.1,0.5-2.1,1.1-3,1.9c-0.9,0.8-1.6,1.7-2.2,2.7
		c-0.1,0.2-0.4,0.4-0.6,0.4h0c-4.2,0-7.6,3.1-7.6,6.8c0,0,0,0.1,0,0.1c0,0.2-0.2,0.5-0.4,0.6c-2.3,1-4.3,2.7-5.4,4.8
		C42.9,60,41.7,57.1,41.7,54z M59.3,39.8c1.4-1.3,3.3-2.1,5.4-2.1h0c1.2,0,2,1.2,1.5,2.2c-0.8,1.5-1.3,3-1.5,4.6
		c-1.4-1-3-1.8-4.7-2.3C58.8,41.9,58.4,40.6,59.3,39.8z M195.8,74c0-0.3-0.3-0.5-0.6-0.5c-0.3,0-0.6,0.2-0.6,0.5
		c0,0.3,0.3,0.5,0.6,0.5C195.5,74.6,195.8,74.3,195.8,74z M194.5,74c0-0.3,0.3-0.6,0.7-0.6c0.4,0,0.6,0.3,0.6,0.6
		c0,0.3-0.3,0.6-0.6,0.6C194.8,74.6,194.5,74.3,194.5,74z M195.2,74.4c-0.2,0-0.4-0.2-0.4-0.4c0-0.2,0.2-0.4,0.4-0.4
		c0.2,0,0.4,0.2,0.4,0.4C195.6,74.2,195.4,74.4,195.2,74.4z M195.8,77.7c0-0.3-0.3-0.5-0.6-0.5c-0.3,0-0.6,0.2-0.6,0.5
		c0,0.3,0.3,0.5,0.6,0.5C195.5,78.2,195.8,78,195.8,77.7z M194.5,77.7c0-0.3,0.3-0.6,0.7-0.6c0.4,0,0.6,0.3,0.6,0.6
		c0,0.3-0.3,0.6-0.6,0.6C194.8,78.2,194.5,78,194.5,77.7z M195.2,78c-0.2,0-0.4-0.2-0.4-0.4c0-0.2,0.2-0.4,0.4-0.4
		c0.2,0,0.4,0.2,0.4,0.4C195.6,77.9,195.4,78,195.2,78z M196.2,75.8c0-0.5-0.4-0.9-1-0.9c-0.5,0-1,0.4-1,0.9c0,0.5,0.4,0.9,1,0.9
		C195.7,76.7,196.2,76.3,196.2,75.8z M194.2,75.8c0-0.5,0.5-0.9,1-0.9c0.6,0,1,0.4,1,0.9c0,0.5-0.5,0.9-1,0.9
		C194.6,76.8,194.2,76.4,194.2,75.8z M195.2,76.5c-0.4,0-0.7-0.3-0.7-0.6c0-0.3,0.3-0.6,0.7-0.6c0.4,0,0.7,0.3,0.7,0.6
		C195.9,76.2,195.6,76.5,195.2,76.5z M195.4,78.5l-0.2,29.5L195,78.5H195.4z M195.4,73.2l-0.2-29.5L195,73.2H195.4z M168.2,73.4
		c0-0.4-0.4-0.7-0.8-0.7c-0.4,0-0.8,0.3-0.8,0.7c0,0.4,0.4,0.7,0.8,0.7C167.8,74.1,168.2,73.8,168.2,73.4z M166.5,73.4
		c0-0.4,0.4-0.8,0.9-0.8c0.5,0,0.9,0.4,0.9,0.8c0,0.4-0.4,0.8-0.9,0.8C166.9,74.2,166.5,73.8,166.5,73.4z M167.4,73.9
		c-0.3,0-0.5-0.2-0.5-0.5c0-0.3,0.2-0.5,0.5-0.5c0.3,0,0.5,0.2,0.5,0.5C167.9,73.7,167.6,73.9,167.4,73.9z M168.2,78.3
		c0-0.4-0.4-0.7-0.8-0.7c-0.4,0-0.8,0.3-0.8,0.7c0,0.4,0.4,0.7,0.8,0.7C167.8,79,168.2,78.7,168.2,78.3z M166.5,78.3
		c0-0.4,0.4-0.8,0.9-0.8c0.5,0,0.9,0.4,0.9,0.8c0,0.4-0.4,0.8-0.9,0.8C166.9,79.1,166.5,78.7,166.5,78.3z M167.4,78.8
		c-0.3,0-0.5-0.2-0.5-0.5c0-0.3,0.2-0.5,0.5-0.5c0.3,0,0.5,0.2,0.5,0.5C167.9,78.6,167.6,78.8,167.4,78.8z M168.7,75.8
		c0-0.6-0.6-1.2-1.3-1.2c-0.7,0-1.3,0.5-1.3,1.2s0.6,1.2,1.3,1.2C168.1,77,168.7,76.5,168.7,75.8z M165.9,75.8
		c0-0.7,0.6-1.3,1.4-1.3c0.8,0,1.4,0.6,1.4,1.3c0,0.7-0.6,1.3-1.4,1.3C166.6,77.1,165.9,76.5,165.9,75.8z M167.4,76.7
		c-0.5,0-0.9-0.4-0.9-0.8c0-0.5,0.4-0.8,0.9-0.8c0.5,0,0.9,0.4,0.9,0.8C168.3,76.3,167.9,76.7,167.4,76.7z M167.6,79.4h-0.6
		l0.3,39.6L167.6,79.4z M167.6,72.3l-0.3-39.6l-0.3,39.6H167.6z M206.3,73.7c2.3,1.4,5.6,1.9,7.3,2c0.1,0,0.1,0,0.1,0.1
		c0,0,0,0.1-0.1,0.1c-1.7,0.2-5.1,0.6-7.4,2.1c-0.4,0.2-1,0.3-1.4,0c0,0-0.1,0-0.1,0c-0.5-0.2-0.7-0.5-0.8-0.8
		c-0.1-0.3-0.2-0.5-0.4-0.8c-0.1-0.2-0.2-0.4-0.2-0.6c0-0.2,0.1-0.4,0.1-0.5c0.2-0.3,0.3-0.6,0.4-0.9c0.1-0.3,0.4-0.5,0.8-0.8l0,0
		C205.2,73.4,205.9,73.5,206.3,73.7z M198,87.9l0.5-0.4l0.2-0.2l0.2-0.2c0.1-0.1,0.3-0.3,0.4-0.4l0.4-0.4c0.6-0.6,1.1-1.2,1.6-1.8
		c0.5-0.6,1-1.3,1.3-2c0.1-0.2,0.2-0.4,0.3-0.5c0,0,0-0.1,0.1-0.1l0.1-0.1l0.1-0.1c0,0,0-0.1,0-0.1c0.1-0.4,0.2-0.8,0.2-1.2
		c0-0.4,0-0.8-0.2-1.2c-0.1-0.4-0.4-0.7-0.7-1c-0.3-0.3-0.7-0.5-1.1-0.6c-0.4-0.1-0.8-0.2-1.3-0.2c-0.4,0-0.9,0-1.3,0.1
		c-0.1,0-0.1,0-0.2,0c-0.1,0-0.1,0-0.2,0c-0.1,0-0.2,0.1-0.3,0.1c-0.2,0.1-0.4,0.2-0.5,0.3c-0.2,0.1-0.3,0.3-0.4,0.4
		c-0.1,0.2-0.2,0.3-0.3,0.5c-0.1,0.4-0.1,0.8,0.1,1.2c0.1,0.4,0.3,0.7,0.6,1l0,0.1c0,0,0,0,0,0.1l0.1,0.1l0.1,0.1
		c0,0,0.1,0.1,0.1,0.1l0.2,0.2l0.2,0.2c0.6,0.6,1.2,1.1,1.7,1.8c0.5,0.6,0.9,1.3,1.2,2.1c0.2,0.4,0.3,0.7,0.4,1.1
		c0.1,0.4,0.2,0.8,0.2,1.2c0.1,0.8,0,1.6-0.1,2.3c-0.1,0.8-0.4,1.5-0.7,2.3c-0.3,0.7-0.7,1.4-1.1,2.1c-0.2,0.3-0.5,0.7-0.7,1
		c-0.3,0.3-0.5,0.6-0.8,0.9c0,0,0.1-0.1,0.3-0.3c0.2-0.2,0.5-0.5,0.8-1c0.3-0.4,0.6-1,1-1.6c0.3-0.6,0.6-1.4,0.9-2.3
		c0.2-0.8,0.3-1.8,0.3-2.8c0-0.5-0.1-1-0.2-1.5c-0.1-0.5-0.3-1-0.6-1.5c-0.5-1-1.2-1.9-2-2.7c-0.2-0.2-0.4-0.4-0.7-0.6
		c-0.1-0.1-0.2-0.2-0.4-0.3c-0.1-0.1-0.2-0.2-0.4-0.3l-0.1-0.1c0,0-0.1-0.1-0.1-0.1l-0.2-0.2c-0.1-0.1-0.1-0.1-0.2-0.2
		c-0.1-0.1-0.1-0.1-0.2-0.2c-0.2-0.3-0.4-0.6-0.5-0.9c-0.1-0.3-0.2-0.7-0.2-1.1c0-0.4,0.2-0.8,0.4-1.1c0.2-0.3,0.5-0.6,0.9-0.8
		c0.3-0.2,0.7-0.3,1-0.4c0.7-0.2,1.5-0.2,2.2-0.1c0.4,0.1,0.7,0.2,1,0.3c0.3,0.1,0.6,0.3,0.9,0.5c0.3,0.2,0.5,0.5,0.7,0.8
		c0.2,0.3,0.3,0.6,0.4,0.9c0,0.1,0,0.2,0.1,0.2c0,0.1,0,0.2,0,0.2c0,0.1,0,0.2,0,0.2c0,0.1,0,0.1,0,0.2c0,0.3-0.1,0.6-0.1,0.8
		c-0.1,0.5-0.3,1-0.6,1.5c-0.1,0.2-0.2,0.4-0.4,0.6c0,0.1-0.1,0.1-0.1,0.2c0,0.1-0.1,0.1-0.1,0.1c-0.1,0.1-0.1,0.2-0.2,0.3
		c-0.6,0.8-1.1,1.4-1.7,1.9c-0.1,0.1-0.1,0.1-0.2,0.2c-0.1,0.1-0.1,0.1-0.2,0.2c-0.1,0.1-0.3,0.2-0.4,0.4c-0.2,0.2-0.5,0.4-0.7,0.6
		c-0.2,0.2-0.4,0.3-0.6,0.5c-0.1,0.1-0.3,0.2-0.4,0.3C198.1,87.8,198,87.9,198,87.9L198,87.9z M198.5,55.1c0.3,0.3,0.5,0.6,0.8,0.9
		c0.2,0.3,0.5,0.7,0.7,1c0.4,0.7,0.8,1.4,1.1,2.1c0.3,0.7,0.5,1.5,0.7,2.3c0.1,0.8,0.2,1.6,0.1,2.3c0,0.4-0.1,0.8-0.2,1.2
		c-0.1,0.4-0.2,0.8-0.4,1.1c-0.3,0.7-0.7,1.4-1.2,2.1c-0.5,0.6-1.1,1.2-1.7,1.8l-0.2,0.2l-0.2,0.2c0,0-0.1,0.1-0.1,0.1l-0.1,0.1
		l-0.1,0.1c0,0,0,0,0,0.1l0,0.1c-0.3,0.3-0.5,0.7-0.6,1c-0.1,0.4-0.2,0.8-0.1,1.2c0.1,0.2,0.1,0.4,0.3,0.5c0.1,0.2,0.3,0.3,0.4,0.4
		c0.2,0.1,0.3,0.2,0.5,0.3c0.1,0,0.2,0.1,0.3,0.1c0.1,0,0.1,0,0.2,0c0.1,0,0.1,0,0.2,0c0.4,0.1,0.9,0.2,1.3,0.1
		c0.4,0,0.9-0.1,1.3-0.2c0.4-0.1,0.8-0.3,1.1-0.6c0.3-0.3,0.6-0.6,0.7-1c0.1-0.4,0.2-0.8,0.2-1.2c0-0.4-0.1-0.8-0.2-1.2
		c0,0,0-0.1,0-0.1l-0.1-0.1l-0.1-0.1c0,0,0-0.1-0.1-0.1c-0.1-0.2-0.2-0.4-0.3-0.5c-0.4-0.7-0.8-1.4-1.3-2c-0.5-0.6-1-1.3-1.6-1.8
		l-0.4-0.4c-0.1-0.1-0.3-0.3-0.4-0.4l-0.2-0.2l-0.2-0.2l-0.5-0.4c0,0,0.1,0.1,0.3,0.3c0.1,0.1,0.3,0.2,0.4,0.3
		c0.2,0.1,0.4,0.3,0.6,0.5c0.2,0.2,0.4,0.4,0.7,0.6c0.1,0.1,0.2,0.2,0.4,0.4c0.1,0.1,0.1,0.1,0.2,0.2c0.1,0.1,0.1,0.1,0.2,0.2
		c0.5,0.5,1.1,1.2,1.7,1.9c0.1,0.1,0.1,0.2,0.2,0.3c0,0,0.1,0.1,0.1,0.1c0,0.1,0.1,0.1,0.1,0.2c0.1,0.2,0.3,0.4,0.4,0.6
		c0.2,0.5,0.4,0.9,0.6,1.5c0.1,0.3,0.1,0.6,0.1,0.8c0,0.1,0,0.1,0,0.2c0,0.1,0,0.1,0,0.2c0,0.1,0,0.2,0,0.2c0,0.1,0,0.2-0.1,0.2
		c-0.1,0.3-0.2,0.6-0.4,0.9c-0.2,0.3-0.4,0.5-0.7,0.8c-0.3,0.2-0.6,0.4-0.9,0.5c-0.3,0.1-0.7,0.2-1,0.3c-0.7,0.1-1.5,0.1-2.2-0.1
		c-0.4-0.1-0.7-0.2-1-0.4c-0.3-0.2-0.6-0.5-0.9-0.8c-0.2-0.3-0.4-0.7-0.4-1.1c0-0.4,0-0.7,0.2-1.1c0.1-0.3,0.3-0.6,0.5-0.9
		c0-0.1,0.1-0.1,0.2-0.2c0.1-0.1,0.1-0.1,0.2-0.2l0.2-0.2c0,0,0.1-0.1,0.1-0.1l0.1-0.1c0.1-0.1,0.2-0.2,0.4-0.3
		c0.1-0.1,0.2-0.2,0.4-0.3c0.2-0.2,0.4-0.4,0.7-0.6c0.8-0.8,1.5-1.7,2-2.7c0.2-0.5,0.4-1,0.6-1.5c0.1-0.5,0.2-1,0.2-1.5
		c0.1-1-0.1-1.9-0.3-2.8c-0.2-0.8-0.5-1.6-0.9-2.3c-0.3-0.6-0.7-1.2-1-1.6c-0.3-0.4-0.6-0.8-0.8-1C198.7,55.2,198.5,55.1,198.5,55.1
		z M152.3,73.1c-3,1.9-7.4,2.5-9.6,2.7c-0.1,0-0.1,0-0.1,0.1c0,0,0,0.1,0.1,0.1c2.3,0.2,6.7,0.8,9.7,2.8c0.5,0.3,1.3,0.3,1.9,0.1
		c0,0,0.1,0,0.1-0.1c0.6-0.3,0.9-0.6,1.1-1c0.1-0.4,0.3-0.7,0.5-1c0.1-0.2,0.2-0.5,0.2-0.8c0-0.3-0.1-0.5-0.2-0.7
		c-0.2-0.4-0.4-0.7-0.6-1.1c-0.1-0.4-0.5-0.7-1.1-1l0,0C153.8,72.7,152.8,72.7,152.3,73.1z M162.6,103.3c-0.4-0.4-0.7-0.8-1.1-1.2
		c-0.3-0.4-0.6-0.9-0.9-1.3c-0.6-0.9-1.1-1.8-1.5-2.8c-0.4-1-0.7-2-0.9-3c-0.2-1-0.2-2.1-0.1-3.1c0.1-0.5,0.1-1,0.3-1.5
		c0.1-0.5,0.3-1,0.5-1.5c0.4-1,1-1.9,1.6-2.7c0.7-0.9,1.4-1.6,2.2-2.4l0.3-0.3l0.3-0.3c0,0,0.1-0.1,0.1-0.1l0.1-0.2l0.1-0.2
		c0,0,0-0.1,0.1-0.1l0.1-0.1c0.3-0.4,0.6-0.9,0.8-1.4c0.2-0.5,0.2-1,0.1-1.5c-0.1-0.3-0.2-0.5-0.3-0.7c-0.2-0.2-0.3-0.4-0.6-0.6
		c-0.2-0.2-0.5-0.3-0.7-0.4c-0.1-0.1-0.3-0.1-0.4-0.2c-0.1,0-0.1,0-0.2-0.1c-0.1,0-0.1,0-0.2-0.1c-0.6-0.1-1.1-0.2-1.7-0.2
		c-0.6,0-1.1,0.1-1.7,0.3c-0.5,0.2-1,0.4-1.5,0.8c-0.4,0.4-0.7,0.8-0.9,1.3c-0.2,0.5-0.3,1-0.2,1.5c0,0.5,0.1,1,0.3,1.5
		c0,0.1,0,0.1,0.1,0.2l0.1,0.2l0.1,0.2c0,0.1,0,0.1,0.1,0.2c0.1,0.2,0.2,0.5,0.3,0.7c0.5,0.9,1.1,1.8,1.7,2.7
		c0.7,0.8,1.4,1.7,2.1,2.4l0.6,0.6c0.2,0.2,0.4,0.4,0.6,0.6l0.3,0.3l0.3,0.3l0.6,0.6c0,0-0.1-0.1-0.4-0.4c-0.1-0.1-0.3-0.3-0.5-0.5
		c-0.2-0.2-0.4-0.5-0.6-0.7c-0.2-0.3-0.5-0.6-0.8-0.9c-0.1-0.2-0.3-0.3-0.4-0.5c-0.1-0.1-0.1-0.2-0.2-0.3c-0.1-0.1-0.1-0.2-0.2-0.3
		c-0.6-0.8-1.2-1.7-1.8-2.7c-0.1-0.1-0.1-0.3-0.2-0.4c0-0.1-0.1-0.1-0.1-0.2c0-0.1-0.1-0.1-0.1-0.2c-0.1-0.3-0.3-0.5-0.4-0.8
		c-0.2-0.6-0.4-1.1-0.5-1.7c-0.1-0.3-0.1-0.6-0.1-0.9c0-0.1,0-0.1,0-0.2c0-0.1,0-0.1,0-0.2c0-0.1,0-0.1,0-0.2c0-0.1,0-0.1,0.1-0.2
		c0,0,0-0.1,0-0.1l0-0.1l0-0.1c0,0,0,0,0-0.1l0,0c0-0.1,0.1-0.1,0.1-0.2c0-0.1,0.1-0.1,0.1-0.2c0.2-0.2,0.4-0.4,0.6-0.6
		c0.5-0.4,1.1-0.6,1.8-0.7c0.7-0.1,1.4-0.1,2.1,0.1c0.7,0.2,1.3,0.5,1.6,1c0.2,0.2,0.3,0.5,0.3,0.7c0,0.3,0,0.6-0.1,0.9
		c-0.1,0.3-0.3,0.6-0.5,0.9c0,0.1-0.1,0.1-0.2,0.2c-0.1,0.1-0.1,0.2-0.2,0.2l-0.2,0.2c0,0-0.1,0.1-0.1,0.1l-0.1,0.1
		c-0.1,0.1-0.3,0.3-0.4,0.4c-0.1,0.1-0.3,0.3-0.4,0.4c-0.3,0.3-0.6,0.6-0.9,0.9c-1.1,1.2-2,2.6-2.6,4c-0.3,0.7-0.5,1.4-0.6,2.1
		c-0.1,0.7-0.2,1.4-0.2,2.1c0,0.7,0.1,1.3,0.2,2c0.1,0.6,0.3,1.2,0.5,1.8c0.4,1.1,0.9,2.1,1.3,3c0.5,0.8,1,1.5,1.4,2.1
		c0.4,0.6,0.8,1,1,1.3C162.4,103.1,162.6,103.3,162.6,103.3L162.6,103.3z M163.3,60l-0.9,0.8l-0.3,0.3c-0.2,0.2-0.4,0.4-0.6,0.6
		l-0.6,0.6c-0.8,0.8-1.5,1.6-2.1,2.4c-0.7,0.8-1.3,1.7-1.7,2.7c-0.1,0.2-0.2,0.5-0.3,0.7c0,0.1,0,0.1-0.1,0.2l-0.1,0.2l-0.1,0.2
		c0,0.1,0,0.1-0.1,0.2c-0.2,0.5-0.3,1-0.3,1.5c0,0.5,0.1,1,0.2,1.5c0.2,0.5,0.5,0.9,0.9,1.3c0.4,0.4,0.9,0.6,1.5,0.8
		c0.5,0.2,1.1,0.3,1.7,0.3c0.6,0,1.2,0,1.7-0.2c0.1,0,0.1,0,0.2-0.1c0.1,0,0.1,0,0.2-0.1c0.1-0.1,0.3-0.1,0.4-0.2
		c0.3-0.1,0.5-0.3,0.7-0.4c0.2-0.2,0.4-0.4,0.6-0.6c0.2-0.2,0.3-0.5,0.3-0.7c0.1-0.5,0.1-1-0.1-1.5c-0.2-0.5-0.5-0.9-0.8-1.4
		l-0.1-0.1c0,0,0-0.1-0.1-0.1l-0.1-0.2l-0.1-0.2c0-0.1-0.1-0.1-0.1-0.1l-0.3-0.3l-0.3-0.3c-0.8-0.7-1.6-1.5-2.2-2.4
		c-0.7-0.9-1.2-1.8-1.6-2.7c-0.2-0.5-0.4-1-0.5-1.5c-0.1-0.5-0.2-1-0.3-1.5c-0.1-1-0.1-2.1,0.1-3.1c0.2-1,0.5-2,0.9-3
		c0.4-1,0.9-1.9,1.5-2.8c0.3-0.4,0.6-0.9,0.9-1.3c0.3-0.4,0.7-0.8,1.1-1.2c0,0-0.1,0.1-0.4,0.4c-0.3,0.3-0.6,0.7-1,1.3
		c-0.4,0.6-0.9,1.3-1.4,2.1c-0.5,0.8-1,1.8-1.3,3c-0.2,0.6-0.4,1.2-0.5,1.8c-0.1,0.6-0.2,1.3-0.2,2c0,0.7,0,1.4,0.2,2.1
		c0.1,0.7,0.3,1.4,0.6,2.1c0.6,1.4,1.5,2.8,2.6,4c0.3,0.3,0.6,0.6,0.9,0.9c0.2,0.2,0.3,0.3,0.4,0.4c0.1,0.1,0.3,0.3,0.4,0.4l0.1,0.1
		c0,0,0.1,0.1,0.1,0.1l0.2,0.2c0.1,0.1,0.1,0.1,0.2,0.2c0.1,0.1,0.1,0.1,0.2,0.2c0.2,0.3,0.3,0.6,0.5,0.9c0.1,0.3,0.1,0.6,0.1,0.9
		c0,0.3-0.1,0.5-0.3,0.7c-0.3,0.4-0.9,0.8-1.6,1c-0.7,0.2-1.4,0.2-2.1,0.1c-0.7-0.1-1.3-0.3-1.8-0.7c-0.2-0.2-0.5-0.4-0.6-0.6
		c0-0.1-0.1-0.1-0.1-0.2c0-0.1-0.1-0.1-0.1-0.2l0,0c0,0,0,0,0,0l0-0.1l0-0.1c0,0,0-0.1,0-0.1c0-0.1,0-0.1-0.1-0.2c0-0.1,0-0.1,0-0.2
		c0-0.1,0-0.1,0-0.2c0-0.1,0-0.1,0-0.2c0-0.3,0-0.6,0.1-0.9c0.1-0.6,0.3-1.2,0.5-1.7c0.1-0.3,0.2-0.6,0.4-0.8c0-0.1,0.1-0.1,0.1-0.2
		c0-0.1,0.1-0.1,0.1-0.2c0.1-0.1,0.1-0.3,0.2-0.4c0.6-1,1.2-1.9,1.8-2.7c0.1-0.1,0.1-0.2,0.2-0.3c0.1-0.1,0.1-0.2,0.2-0.3
		c0.1-0.2,0.3-0.3,0.4-0.5c0.3-0.3,0.5-0.6,0.8-0.9c0.2-0.2,0.4-0.5,0.6-0.7c0.2-0.2,0.4-0.4,0.5-0.5C163.2,60.1,163.3,60,163.3,60
		L163.3,60z M21.6,19.4c0.4,0.1,0.7,0.3,1,0.5c0.2,0.1,0.4,0.3,0.5,0.5c0,0,0,0.1,0,0.1c0,0.1,0,0.1-0.1,0.1c-0.1,0-0.2,0.1-0.3,0
		l0,0c-0.3-0.1-0.5-0.3-0.7-0.6C21.9,19.9,21.7,19.7,21.6,19.4C21.6,19.5,21.6,19.4,21.6,19.4C21.6,19.4,21.6,19.4,21.6,19.4z
		 M41.7,13.8H15.2c-0.1,0-0.1,0-0.2,0.1C15,13.9,15,14,15,14v22.5c0,0.1,0.1,0.2,0.2,0.2c0.1,0,0.2-0.1,0.2-0.2V20.7
		c0.1-0.1,0.3-0.1,0.4-0.1c0.4-0.1,0.8-0.1,1.2-0.1c0,0,0,0,0,0c-0.1,0.3-0.2,0.6-0.2,1c0,0.7,0.3,1.2,0.9,1.5
		c0.6,0.3,1.4,0.2,1.8-0.2c0.2-0.2,0.4-0.5,0.4-0.7c0-0.4-0.2-0.7-0.4-0.9c-0.4-0.4-1-0.8-1.8-0.9c0.1-0.3,0.3-0.6,0.4-0.9
		c0.1-0.2,0.2-0.3,0.2-0.5l0.2,0c0.8,0.1,1.6,0.2,2.3,0.4c0.1,0.3,0.3,0.6,0.5,0.9c0.3,0.4,0.5,0.6,0.8,0.8c0.3,0.2,0.7,0.4,1.1,0.4
		c0,0,0,0,0,0c0,0,0,0,0,0c0,0,0,0,0,0c0,0.1-0.1,0.2-0.2,0.3c-0.2,0.1-0.3,0.2-0.5,0.3c-0.1,0-0.1,0-0.2,0h0c-0.1,0-0.1,0-0.1,0
		c0,0-0.1-0.1-0.1-0.2c0-0.1-0.1-0.1-0.2-0.1c-0.1,0-0.2,0-0.3,0.1c-0.1,0.1-0.1,0.1-0.1,0.2c0.1,0.3,0.2,0.4,0.5,0.5
		c0.2,0,0.5,0,0.7-0.1c0.4-0.1,0.7-0.4,0.9-0.7c0-0.1,0.1-0.2,0.1-0.3c0,0,0,0,0,0c0.2,0,0.4-0.1,0.5-0.2c0.3-0.1,0.6-0.4,0.7-0.8
		c0-0.1,0.1-0.4,0-0.5c-0.1-0.2-0.3-0.3-0.5-0.3c-0.2,0-0.3,0.1-0.3,0.2c0,0.1,0,0.2,0.2,0.2c0.1,0,0.2,0,0.2,0.1c0,0,0,0.1,0,0.1
		l0,0c0,0.1-0.1,0.3-0.1,0.4c-0.1,0.1-0.2,0.2-0.3,0.3l0,0c-0.1,0-0.1,0.1-0.2,0.1c0,0-0.1,0-0.1,0c0,0,0,0,0,0c0,0,0,0,0,0
		c0-0.1,0-0.2-0.1-0.3c-0.1-0.3-0.3-0.6-0.6-0.8c-0.5-0.4-1.1-0.7-1.8-0.9c0-0.1-0.1-0.3-0.1-0.4c-0.2-0.6-0.3-1.2-0.3-1.7
		c0.2-0.1,0.5-0.2,0.7-0.2c0.1,0,0.2-0.1,0.3-0.1c0.2-0.1,0.4-0.1,0.6-0.2l0.1,0c0.3,0.8,0.9,1.5,1.7,1.8c0.7,0.2,1.3-0.1,1.7-0.6
		c0.4-0.5,0.2-1.2-0.3-1.6c-0.5-0.4-1.2-0.5-1.9-0.4c-0.2,0-0.5,0.1-0.7,0.2c-0.1-0.5,0-1,0.3-1.4l0,0h18.6c0.2,0,0.2-0.1,0.2-0.2
		S41.8,13.8,41.7,13.8z M17.9,20.6c0.4,0.1,0.7,0.3,1,0.5c0.2,0.1,0.3,0.2,0.4,0.4c0.1,0.1,0.2,0.3,0.2,0.4c0.1,0.4-0.3,0.8-0.8,0.9
		c-0.2,0.1-0.5,0-0.8-0.1c-0.2-0.1-0.4-0.3-0.4-0.5c-0.1-0.2-0.1-0.5-0.1-0.7c0-0.2,0.1-0.4,0.1-0.6c0-0.1,0.1-0.1,0.1-0.1
		C17.7,20.6,17.8,20.6,17.9,20.6L17.9,20.6L17.9,20.6z M15.8,18.6c0.5,0,1.2,0.1,1.6,0.1c0.1,0,0.2,0.1,0.3,0.1
		c0.1,0.1,0.1,0.2,0,0.3l-0.1,0.2c-0.1,0.2-0.2,0.4-0.3,0.6c0,0.1-0.1,0.2-0.1,0.3c-0.6-0.1-1.3,0-1.8,0.2v-1.7
		C15.6,18.6,15.7,18.6,15.8,18.6z M22.3,15.8c-0.1,0-0.1,0-0.2,0.1c-0.2,0.1-0.4,0.1-0.6,0.2c-0.1,0-0.2,0.1-0.3,0.1
		c-0.1,0-0.2,0-0.3,0c-0.1,0-0.2-0.1-0.2-0.2c0-0.3-0.1-0.9-0.1-1.4c0-0.1,0-0.2,0-0.3h2c0,0.1-0.1,0.2-0.1,0.2
		C22.3,14.9,22.3,15.3,22.3,15.8C22.3,15.8,22.3,15.8,22.3,15.8z M25.5,16.7c0,0.1,0,0.1,0,0.2c0,0.2-0.1,0.3-0.2,0.5
		c-0.1,0.2-0.3,0.3-0.5,0.4c-0.1,0-0.2,0-0.3,0c-0.2,0-0.3-0.1-0.5-0.2c-0.6-0.3-0.9-0.8-1-1.2c0-0.1,0-0.1,0-0.2
		c0-0.1,0.1-0.1,0.2-0.1c0,0,0.1,0,0.1,0c0.4-0.1,0.7-0.1,1-0.1c0.3,0,0.6,0.1,0.8,0.3C25.3,16.3,25.4,16.4,25.5,16.7z M20.3,16.9
		l0,0.2c0.1,0.5,0.2,1.1,0.3,1.6c-0.7-0.2-1.4-0.2-2.2-0.3c0-0.1,0.1-0.2,0.1-0.2c0.1-0.4,0.2-0.7,0.2-1c0,0,0.1,0,0.1,0
		C19.4,17.1,19.8,17,20.3,16.9z M18.4,16.7c-0.1,0-0.1,0-0.2,0c0,0,0,0-0.1,0l0,0l0,0l0,0c0,0,0,0-0.1,0c0,0-0.1,0-0.1-0.1l0,0
		c0,0,0,0-0.1,0c0,0-0.1-0.1-0.1-0.1c0,0,0,0-0.1-0.1l0,0l0,0l0,0c0,0-0.1-0.1-0.1-0.1c-0.1-0.1-0.1-0.2-0.1-0.3c0,0,0,0,0-0.1
		c0,0,0,0,0.1,0c0.1,0,0.2,0.1,0.3,0.1c0,0,0.1,0,0.1,0.1l0,0l0,0c0,0,0,0,0,0c0,0,0.1,0.1,0.1,0.1c0,0,0,0,0,0l0,0
		c0.1,0.1,0.1,0.1,0.1,0.2l0,0l0,0c0,0,0,0,0,0.1C18.3,16.6,18.4,16.7,18.4,16.7L18.4,16.7C18.4,16.7,18.4,16.7,18.4,16.7z
		 M20.1,14.2c0,0.1,0,0.2,0,0.4c0,0.4,0.1,1,0.1,1.3c0,0.3-0.2,0.6-0.6,0.7l0,0c-0.3,0.1-0.5,0.1-0.7,0.1c0,0-0.1,0-0.1,0
		c0-0.3-0.2-0.6-0.4-0.8c-0.3-0.3-0.7-0.5-1.3-0.6c-0.1,0-0.2,0-0.3,0.1c-0.1,0.1-0.1,0.1-0.1,0.2c0,0.1,0.1,0.2,0.1,0.4
		c0.2,0.4,0.5,0.8,0.8,0.9c0.2,0.1,0.4,0.2,0.7,0.2c0,0.1,0,0.2,0,0.3c0,0.1,0,0.2-0.1,0.3c-0.1,0.3-0.5,0.5-0.9,0.5
		c-0.4,0-1-0.1-1.6-0.1c-0.1,0-0.3,0-0.4,0v-3.9C15.5,14.2,20.1,14.2,20.1,14.2z M25.5,18.2L25.5,18.2L25.5,18.2L25.5,18.2
		C25.5,18.3,25.5,18.3,25.5,18.2c0,0.1,0.1,0.2,0.1,0.2c0.3,0.1,0.6,0.2,0.8,0.2c0.9,0.1,1.9-0.4,2.4-1.1c0-0.1,0-0.1,0-0.2
		c0-0.1-0.1-0.1-0.2-0.1c-0.1,0-0.2,0-0.2,0.1c-0.5,0.7-1.6,1.2-2.6,0.8c-0.1-0.1-0.3,0-0.3,0.1C25.5,18.2,25.5,18.2,25.5,18.2z
		 M30.9,16c-0.5,0.4-0.9,0.8-1.2,1.3l-0.1,0.1c-0.4,0.5-0.7,1-1.3,1.4c-0.3,0.2-0.6,0.4-0.9,0.5c-0.3,0.1-0.6,0.1-0.9,0.1
		c-0.6,0-1.1-0.3-1.4-0.7c0-0.1-0.1-0.1-0.2-0.1c-0.1,0-0.2,0-0.2,0.1c0,0,0,0.1,0,0.1c0,0,0,0.1,0,0.1c0.1,0.1,0.2,0.2,0.3,0.3
		c0.4,0.4,1,0.6,1.6,0.6c0.3,0,0.6,0,0.9-0.1c0.3-0.1,0.7-0.2,1-0.4c0.6-0.4,1-0.9,1.4-1.4c0.1-0.1,0.1-0.2,0.2-0.3
		c0.3-0.4,0.5-0.8,0.9-1.1c0.3-0.2,0.7-0.5,1.2-0.6c0.5,0,0.9,0.1,1.2,0.4c0.3,0.2,0.5,0.6,0.5,0.9c0,0.3-0.1,0.7-0.5,0.9
		c-0.1,0.1-0.3,0.2-0.6,0.1c-0.2,0-0.4-0.2-0.4-0.3c-0.1-0.2-0.1-0.4,0.1-0.5c0.1-0.2,0.3-0.2,0.5-0.3c0.1,0,0.2,0,0.2-0.1
		c0-0.1,0-0.2,0-0.2c0-0.1-0.1-0.1-0.2-0.1c-0.2,0-0.3,0-0.5,0.1c-0.3,0.1-0.5,0.3-0.6,0.5c-0.1,0.3-0.1,0.6,0.1,0.8
		c0.1,0.2,0.4,0.4,0.7,0.5c0.3,0.1,0.6,0,0.9-0.1c0.5-0.3,0.7-0.7,0.8-1.1c0-0.4-0.2-0.8-0.5-1.2c-0.4-0.4-0.9-0.6-1.4-0.7
		C31.8,15.4,31.2,15.7,30.9,16z M16.7,22.6c0-0.1-0.2-0.2-0.3-0.1c-0.1,0-0.1,0.1-0.1,0.1c0,0,0,0.1,0,0.1c0,0,0,0,0,0.1
		c0.2,0.4,0.4,0.7,0.8,0.9c0.4,0.2,0.8,0.3,1.3,0.4c0.3,0,0.5,0,0.8-0.1c0.1,0,0.2-0.1,0.2-0.2c0-0.1-0.1-0.2-0.3-0.1
		C18.2,23.7,17.1,23.4,16.7,22.6z M26.9,16.7c0-0.4-0.2-0.8-0.4-1.1c-0.3-0.3-0.6-0.6-1.1-0.7c-0.1,0-0.1,0-0.2,0
		c-0.1,0-0.1,0.1-0.1,0.1c0,0,0,0,0,0.1c0,0.1,0.1,0.2,0.2,0.2c1,0.3,1.3,1.2,1.1,1.9c0,0.1,0.1,0.2,0.2,0.2c0.1,0,0.2,0,0.3-0.1
		C26.9,17.2,26.9,16.9,26.9,16.7z M31.4,14.9L31.4,14.9L31.4,14.9L31.4,14.9c0,0,0,0.1,0,0.1c0.1,0.1,0.2,0.1,0.3,0.1
		c1-0.4,2.1,0.1,2.6,0.8c0,0.1,0.1,0.1,0.2,0.1c0.1,0,0.2,0,0.2-0.1c0-0.1,0-0.1,0-0.2c-0.1-0.2-0.3-0.4-0.5-0.6
		c-0.4-0.3-0.8-0.5-1.3-0.6c-0.5-0.1-1,0-1.5,0.2C31.5,14.8,31.5,14.8,31.4,14.9C31.5,14.9,31.4,14.9,31.4,14.9z M15.8,28.8
		L15.8,28.8c0,0.1,0,0.2,0,0.4c0.1,0.4,0.3,0.8,0.6,1.1c0.2,0.2,0.4,0.3,0.7,0.5c0.1,0.1,0.3,0,0.3-0.1c0.1-0.1,0.1-0.2-0.1-0.3
		C16.6,30,16,29,16.5,28.2c0.1-0.1,0-0.2-0.1-0.3c-0.1,0-0.1,0-0.2,0c-0.1,0-0.1,0.1-0.1,0.1C15.9,28.2,15.8,28.5,15.8,28.8z
		 M18.9,25.5L18.9,25.5c0,0,0,0.1,0,0.1c0.1,0.1,0.2,0.1,0.3,0.1c0.3-0.1,0.5-0.3,0.7-0.5c0.3-0.3,0.6-0.7,0.6-1.1
		c0.1-0.4,0-0.9-0.2-1.2c0,0-0.1-0.1-0.1-0.1c-0.1,0-0.1,0-0.2,0c-0.1,0.1-0.2,0.2-0.1,0.3c0.5,0.9-0.1,1.8-0.9,2.2
		C18.9,25.4,18.9,25.4,18.9,25.5z M21.9,23.3c-0.1-0.5-0.5-1-1-1.2c-0.1,0-0.2,0-0.2,0c-0.1,0-0.1,0.1-0.1,0.2c0,0.1,0,0.1,0.1,0.2
		c0.1,0.1,0.2,0.1,0.3,0.2c0.4,0.3,0.5,0.8,0.5,1.3c0,0.3-0.2,0.6-0.3,0.8c-0.2,0.2-0.4,0.5-0.7,0.7c-0.4,0.3-0.9,0.5-1.3,0.8
		c-0.2,0.1-0.4,0.2-0.6,0.3c-0.4,0.2-1,0.6-1.3,1.1c-0.2,0.3-0.3,0.6-0.3,0.9c0,0.2,0,0.4,0.1,0.5c0.2,0.4,0.5,0.8,1,1
		c0.5,0.2,1,0.3,1.4,0.2c0.2-0.1,0.5-0.2,0.7-0.3c0.2-0.2,0.4-0.4,0.5-0.6c0.1-0.3,0-0.5-0.2-0.7c-0.2-0.2-0.5-0.4-0.9-0.4
		c-0.3,0-0.6,0.1-0.9,0.2c-0.2,0.2-0.4,0.4-0.4,0.7c0,0.1,0,0.1,0.1,0.2c0.1,0,0.2,0,0.3,0c0.1,0,0.1-0.1,0.1-0.2
		c0-0.1,0-0.2,0.1-0.3c0.1-0.1,0.3-0.2,0.5-0.3c0.2,0,0.5,0.1,0.6,0.2c0.1,0.1,0.2,0.3,0.1,0.5c0,0.1-0.2,0.3-0.4,0.4
		c-0.3,0.2-0.7,0.2-1.1,0.2c-0.4-0.1-0.7-0.3-1-0.6c-0.3-0.3-0.3-0.8-0.2-1.1c0.1-0.3,0.4-0.7,0.9-1c0.3-0.2,0.7-0.4,1-0.6
		c0.2-0.1,0.5-0.2,0.7-0.4c0.7-0.4,1.2-0.8,1.5-1.3C21.9,24.4,22,23.8,21.9,23.3z M28.3,22.5c-0.4,0.9-0.2,1.8,0.1,2.4
		c0,0.1,0,0.2-0.1,0.2c-0.1,0.1-0.2,0.1-0.3,0c-0.7-0.2-1.8-0.4-2.8,0c-0.1,0-0.2,0-0.3,0c-0.1,0-0.1-0.1-0.1-0.2
		c0.1-0.2,0.1-0.3,0.2-0.5l0-0.2h0c0,0,0,0,0-0.1c0.1-0.6,0.1-1.1,0-1.5c0-0.1-0.1-0.1-0.2-0.1c0-0.2-0.1-0.3-0.2-0.5
		c0.2,0.1,0.3,0.1,0.5,0.2c0,0.1,0,0.2,0.1,0.2c0.5,0.1,1.1,0.1,1.8,0c0,0,0.1,0,0.1,0v0l0.2,0c0.2,0,0.4-0.1,0.6-0.1
		c0.1,0,0.2,0,0.3,0.1C28.3,22.4,28.4,22.5,28.3,22.5z M24.1,21.9c0.7,0.6,0.5,1.4,0.3,2.1c-0.1,0.2,0,0.4,0.2,0.5
		c0,0,0.1,0.1,0.2,0.1c0,0.1-0.1,0.2-0.1,0.3c-0.1,0.2,0,0.4,0.2,0.5c0.2,0.1,0.4,0.2,0.6,0.1c0.9-0.3,1.9-0.1,2.6,0
		c0.2,0.1,0.5,0,0.6-0.1c0.2-0.1,0.2-0.3,0.1-0.5c-0.2-0.6-0.4-1.4-0.1-2.2c0.1-0.2,0-0.4-0.1-0.5c-0.2-0.1-0.4-0.2-0.6-0.1
		c-0.1,0-0.3,0.1-0.4,0.1c0-0.1-0.1-0.1-0.1-0.1c-0.1-0.1-0.4-0.2-0.6-0.1c-0.7,0.2-1.8,0.3-2.4-0.3l-0.1-0.1l-0.3,0.3
		C23.9,21.8,24.1,21.9,24.1,21.9z M21.6,132.3C21.6,132.2,21.6,132.2,21.6,132.3c0.1-0.3,0.3-0.5,0.5-0.7c0.2-0.3,0.5-0.5,0.7-0.6
		l0,0c0.1-0.1,0.2,0,0.3,0c0,0,0.1,0.1,0.1,0.1c0,0,0,0.1,0,0.1c-0.1,0.2-0.3,0.4-0.5,0.5C22.3,131.9,22,132.1,21.6,132.3
		C21.6,132.3,21.6,132.3,21.6,132.3z M17.9,131.1L17.9,131.1c-0.1,0-0.2,0-0.2-0.1c-0.1,0-0.1-0.1-0.1-0.1c-0.1-0.2-0.1-0.4-0.1-0.6
		c0-0.3,0-0.5,0.1-0.7c0.1-0.2,0.3-0.4,0.4-0.5c0.2-0.1,0.5-0.2,0.8-0.1c0.4,0.1,0.9,0.5,0.8,0.9c0,0.1-0.1,0.3-0.2,0.4
		c-0.1,0.1-0.2,0.3-0.4,0.4C18.6,130.8,18.2,130.9,17.9,131.1L17.9,131.1z M15.5,133.1v-1.7c0.6,0.2,1.2,0.2,1.8,0.2
		c0,0.1,0.1,0.2,0.1,0.3c0.1,0.2,0.2,0.4,0.3,0.6l0.1,0.2c0,0.1,0,0.2,0,0.3c-0.1,0.1-0.2,0.1-0.3,0.1c-0.4,0-1.1,0.1-1.6,0.1
		C15.7,133.1,15.6,133.1,15.5,133.1z M22.3,135.9c-0.1,0.5,0,0.9,0.1,1.3c0,0.1,0.1,0.2,0.1,0.2h-2c0-0.1,0-0.2,0-0.3
		c0-0.5,0.1-1,0.1-1.4c0-0.1,0.1-0.2,0.2-0.2c0.1,0,0.2-0.1,0.3,0c0.1,0,0.2,0.1,0.3,0.1c0.2,0.1,0.4,0.1,0.6,0.2
		C22.1,135.8,22.2,135.9,22.3,135.9C22.3,135.9,22.3,135.9,22.3,135.9z M25.1,135.6c-0.2,0.1-0.5,0.2-0.8,0.3c-0.3,0-0.6,0-1-0.1
		c0,0-0.1,0-0.1,0c-0.1,0-0.1-0.1-0.2-0.1c0-0.1,0-0.1,0-0.2c0.1-0.4,0.4-0.9,1-1.2c0.1-0.1,0.3-0.2,0.5-0.2c0.1,0,0.2,0,0.3,0
		c0.2,0.1,0.4,0.2,0.5,0.4c0.1,0.1,0.2,0.3,0.2,0.5c0,0.1,0,0.1,0,0.2C25.4,135.2,25.3,135.4,25.1,135.6z M19,134.5c0,0-0.1,0-0.1,0
		c0-0.3-0.1-0.6-0.2-1c0-0.1-0.1-0.2-0.1-0.2c0.8-0.1,1.5-0.2,2.2-0.3c-0.2,0.6-0.3,1.1-0.3,1.6l0,0.2
		C19.8,134.7,19.4,134.6,19,134.5L19,134.5z M18.4,135L18.4,135c0,0.1,0,0.1,0,0.1c0,0,0,0,0,0.1l0,0l0,0c0,0.1-0.1,0.1-0.1,0.2l0,0
		c0,0,0,0,0,0c0,0-0.1,0.1-0.1,0.1c0,0,0,0,0,0l0,0l0,0c0,0-0.1,0.1-0.1,0.1c-0.1,0.1-0.2,0.1-0.3,0.1c0,0,0,0-0.1,0c0,0,0,0,0-0.1
		c0-0.1,0.1-0.2,0.1-0.3c0,0,0.1-0.1,0.1-0.1l0,0l0,0l0,0c0,0,0,0,0.1-0.1c0,0,0.1-0.1,0.1-0.1c0,0,0,0,0.1,0l0,0c0,0,0.1,0,0.1-0.1
		c0,0,0,0,0.1,0l0,0l0,0l0,0c0,0,0,0,0.1,0C18.3,135,18.3,135,18.4,135L18.4,135L18.4,135z M15.5,137.5v-3.9c0.1,0,0.2,0,0.4,0
		c0.5,0,1.2-0.1,1.6-0.1c0.4,0,0.8,0.2,0.9,0.5c0,0.1,0.1,0.2,0.1,0.3c0,0.1,0,0.2,0,0.3c-0.3,0-0.5,0.1-0.7,0.2
		c-0.4,0.2-0.7,0.5-0.8,0.9c0,0.1-0.1,0.2-0.1,0.4c0,0.1,0,0.2,0.1,0.2c0.1,0.1,0.2,0.1,0.3,0.1c0.6-0.1,1.1-0.3,1.3-0.6
		c0.2-0.2,0.3-0.5,0.4-0.8c0,0,0.1,0,0.1,0c0.2,0,0.4,0,0.7,0.1l0,0c0.4,0.1,0.6,0.4,0.6,0.7c0,0.3-0.1,0.9-0.1,1.3
		c0,0.1,0,0.3,0,0.4L15.5,137.5L15.5,137.5z M15.2,115c-0.1,0-0.2,0.1-0.2,0.2v22.5c0,0.1,0,0.1,0.1,0.2c0,0,0.1,0.1,0.2,0.1h26.4
		c0.2,0,0.2-0.1,0.2-0.2c0-0.1-0.1-0.2-0.2-0.2H23.1l0,0c-0.2-0.4-0.3-0.9-0.3-1.4c0.2,0.1,0.5,0.1,0.7,0.2c0.7,0.1,1.5,0,1.9-0.4
		c0.5-0.4,0.7-1,0.3-1.6c-0.3-0.5-1-0.8-1.7-0.6c-0.8,0.3-1.4,1-1.7,1.8l-0.1,0c-0.2-0.1-0.4-0.1-0.6-0.2c-0.1,0-0.2-0.1-0.3-0.1
		c-0.2-0.1-0.4-0.2-0.7-0.2c0.1-0.5,0.2-1.2,0.3-1.7c0-0.1,0.1-0.3,0.1-0.4c0.7-0.2,1.3-0.5,1.8-0.9c0.3-0.2,0.5-0.5,0.6-0.8
		c0-0.1,0.1-0.2,0.1-0.3c0,0,0,0,0,0c0,0,0,0,0,0c0,0,0.1,0,0.1,0c0.1,0,0.1,0.1,0.2,0.1l0,0c0.1,0.1,0.2,0.2,0.3,0.3
		c0.1,0.1,0.1,0.2,0.1,0.4l0,0c0,0.1,0,0.1,0,0.1c-0.1,0-0.1,0.1-0.2,0.1c-0.2,0-0.2,0.1-0.2,0.2c0,0.1,0.1,0.2,0.3,0.2
		c0.3-0.1,0.5-0.2,0.5-0.3c0.1-0.2,0.1-0.4,0-0.5c-0.1-0.4-0.4-0.6-0.7-0.8c-0.2-0.1-0.3-0.2-0.5-0.2c0,0,0,0,0,0
		c0-0.1,0-0.2-0.1-0.3c-0.2-0.3-0.5-0.6-0.9-0.7c-0.2-0.1-0.5-0.1-0.7-0.1c-0.2,0.1-0.4,0.2-0.5,0.5c0,0.1,0,0.1,0.1,0.2
		c0.1,0.1,0.2,0.1,0.3,0.1c0.1,0,0.1-0.1,0.2-0.1c0-0.1,0-0.1,0.1-0.2c0,0,0.1,0,0.1,0l0,0c0.1,0,0.2,0,0.2,0
		c0.2,0.1,0.4,0.1,0.5,0.3c0.1,0.1,0.2,0.2,0.2,0.3c0,0,0,0,0,0c0,0,0,0,0,0c0,0,0,0,0,0c-0.4,0.1-0.7,0.2-1.1,0.4
		c-0.3,0.2-0.5,0.5-0.8,0.8c-0.2,0.3-0.3,0.5-0.5,0.9c-0.8,0.2-1.6,0.3-2.3,0.4l-0.2,0c-0.1-0.2-0.2-0.4-0.2-0.5
		c-0.1-0.3-0.3-0.6-0.4-0.9c0.7-0.2,1.4-0.5,1.8-0.9c0.2-0.2,0.5-0.6,0.4-0.9c0-0.3-0.2-0.5-0.4-0.7c-0.5-0.4-1.3-0.5-1.8-0.2
		c-0.5,0.3-0.9,0.8-0.9,1.5c0,0.4,0.1,0.7,0.2,1c0,0,0,0,0,0c-0.4,0-0.8,0-1.2-0.1c-0.2,0-0.3-0.1-0.4-0.1v-15.8
		C15.5,115,15.3,115,15.2,115L15.2,115z M25.5,133.4L25.5,133.4L25.5,133.4L25.5,133.4c0,0,0,0.1,0,0.1c0.1,0.1,0.2,0.1,0.3,0.1
		c1-0.4,2.1,0.1,2.6,0.8c0,0.1,0.1,0.1,0.2,0.1c0.1,0,0.2,0,0.2-0.1c0-0.1,0-0.1,0-0.2c-0.5-0.7-1.5-1.2-2.4-1.1
		c-0.3,0-0.6,0.1-0.8,0.2C25.6,133.3,25.5,133.3,25.5,133.4C25.5,133.4,25.5,133.4,25.5,133.4L25.5,133.4z M30.9,135.7
		c-0.5-0.4-0.9-0.8-1.2-1.3l-0.1-0.1c-0.4-0.5-0.7-1-1.3-1.4c-0.3-0.2-0.6-0.4-0.9-0.5c-0.3-0.1-0.6-0.1-0.9-0.1
		c-0.6,0-1.1,0.3-1.4,0.7c0,0.1-0.1,0.1-0.2,0.1c-0.1,0-0.2,0-0.2-0.1c0,0,0-0.1,0-0.1c0,0,0-0.1,0-0.1c0.1-0.1,0.2-0.2,0.3-0.3
		c0.4-0.4,1-0.6,1.6-0.6c0.3,0,0.6,0,0.9,0.1c0.3,0.1,0.7,0.2,1,0.4c0.6,0.4,1,0.9,1.4,1.4c0.1,0.1,0.1,0.2,0.2,0.3
		c0.3,0.4,0.5,0.8,0.9,1.1c0.3,0.2,0.7,0.5,1.2,0.6c0.5,0,0.9-0.1,1.2-0.4c0.3-0.2,0.5-0.6,0.5-0.9c0-0.3-0.1-0.7-0.5-0.9
		c-0.1-0.1-0.3-0.2-0.6-0.1c-0.2,0-0.4,0.2-0.4,0.3c-0.1,0.2-0.1,0.4,0.1,0.5c0.1,0.2,0.3,0.2,0.5,0.3c0.1,0,0.2,0,0.2,0.1
		c0,0.1,0,0.2,0,0.2c0,0.1-0.1,0.1-0.2,0.1c-0.2,0-0.3,0-0.5-0.1c-0.3-0.1-0.5-0.3-0.6-0.5c-0.1-0.3-0.1-0.6,0.1-0.8
		c0.1-0.2,0.4-0.4,0.7-0.5c0.3-0.1,0.6,0,0.9,0.1c0.5,0.3,0.7,0.7,0.8,1.1c0,0.4-0.2,0.8-0.5,1.2c-0.4,0.4-0.9,0.6-1.4,0.7
		C31.8,136.3,31.2,136,30.9,135.7L30.9,135.7z M16.7,129.1c0,0.1-0.2,0.2-0.3,0.1c-0.1,0-0.1-0.1-0.1-0.1c0,0,0-0.1,0-0.1
		c0,0,0,0,0-0.1c0.2-0.4,0.4-0.7,0.8-0.9c0.4-0.2,0.8-0.3,1.3-0.3c0.3,0,0.5,0,0.8,0.1c0.1,0,0.2,0.1,0.2,0.2c0,0.1-0.1,0.2-0.3,0.1
		C18.2,128,17.1,128.3,16.7,129.1L16.7,129.1z M26.9,135c0,0.4-0.2,0.8-0.4,1.1c-0.3,0.3-0.6,0.6-1.1,0.7c-0.1,0-0.1,0-0.2,0
		c-0.1,0-0.1-0.1-0.1-0.1c0,0,0,0,0-0.1c0-0.1,0.1-0.2,0.2-0.2c1-0.3,1.3-1.2,1.1-2c0-0.1,0.1-0.2,0.2-0.2c0.1,0,0.2,0,0.3,0.1
		C26.9,134.5,26.9,134.8,26.9,135z M31.4,136.8L31.4,136.8L31.4,136.8L31.4,136.8C31.4,136.8,31.5,136.8,31.4,136.8
		c0,0.1,0.1,0.2,0.1,0.2c0.5,0.2,1,0.2,1.5,0.2c0.5-0.1,0.9-0.3,1.3-0.6c0.2-0.2,0.4-0.3,0.5-0.6c0-0.1,0-0.1,0-0.2
		c0-0.1-0.1-0.1-0.2-0.1c-0.1,0-0.2,0-0.2,0.1c-0.5,0.7-1.6,1.2-2.6,0.8c-0.1-0.1-0.3,0-0.3,0.1C31.5,136.7,31.4,136.7,31.4,136.8z
		 M15.8,122.9L15.8,122.9c0,0.3,0.1,0.6,0.2,0.9c0,0,0.1,0.1,0.1,0.1c0.1,0,0.1,0,0.2,0c0.1-0.1,0.2-0.2,0.1-0.3
		c-0.5-0.9,0.1-1.8,0.9-2.2c0.1-0.1,0.1-0.2,0.1-0.3c-0.1-0.1-0.2-0.1-0.3-0.1c-0.3,0.1-0.5,0.3-0.7,0.5c-0.3,0.3-0.6,0.7-0.6,1.1
		C15.8,122.6,15.8,122.7,15.8,122.9z M18.9,126.2L18.9,126.2c0,0.1,0,0.1,0.1,0.2c0.8,0.4,1.4,1.4,0.9,2.2c-0.1,0.1,0,0.2,0.1,0.3
		c0.1,0,0.1,0,0.2,0c0.1,0,0.1-0.1,0.1-0.1c0.2-0.4,0.3-0.8,0.2-1.2c-0.1-0.4-0.3-0.8-0.6-1.1c-0.2-0.2-0.4-0.3-0.7-0.5
		c-0.1-0.1-0.3,0-0.3,0.1C18.9,126.1,18.9,126.2,18.9,126.2z M21.9,128.4c-0.1,0.5-0.5,1-1,1.2c-0.1,0-0.2,0-0.2,0
		c-0.1,0-0.1-0.1-0.1-0.2c0-0.1,0-0.1,0.1-0.2c0.1-0.1,0.2-0.1,0.3-0.2c0.4-0.3,0.5-0.8,0.5-1.3c0-0.3-0.2-0.6-0.3-0.8
		c-0.2-0.2-0.4-0.5-0.7-0.7c-0.4-0.3-0.9-0.5-1.3-0.8c-0.2-0.1-0.4-0.2-0.6-0.3c-0.4-0.2-1-0.6-1.3-1.1c-0.2-0.3-0.3-0.6-0.3-0.9
		c0-0.2,0-0.4,0.1-0.5c0.2-0.4,0.5-0.8,1-1c0.5-0.2,1-0.3,1.4-0.2c0.2,0.1,0.5,0.2,0.7,0.3c0.2,0.2,0.4,0.4,0.5,0.6
		c0.1,0.3,0,0.5-0.2,0.7c-0.2,0.2-0.5,0.4-0.9,0.4c-0.3,0-0.6-0.1-0.9-0.2c-0.2-0.2-0.4-0.4-0.4-0.7c0-0.1,0-0.1,0.1-0.2
		c0.1,0,0.2,0,0.3,0c0.1,0,0.1,0.1,0.1,0.2c0,0.1,0,0.2,0.1,0.3c0.1,0.1,0.3,0.2,0.5,0.3c0.2,0,0.5-0.1,0.6-0.2
		c0.1-0.1,0.2-0.3,0.1-0.5c0-0.1-0.2-0.3-0.4-0.4c-0.3-0.2-0.7-0.2-1.1-0.2c-0.4,0.1-0.7,0.3-1,0.6c-0.3,0.3-0.3,0.8-0.2,1.1
		c0.1,0.3,0.4,0.7,0.9,1c0.3,0.2,0.7,0.4,1,0.6c0.2,0.1,0.5,0.2,0.7,0.4c0.7,0.4,1.2,0.8,1.5,1.3C21.9,127.2,22,127.9,21.9,128.4z
		 M28.3,129.4c-0.1,0-0.1,0.1-0.3,0.1c-0.2-0.1-0.4-0.1-0.6-0.1l-0.2,0v0c0,0-0.1,0-0.1,0c-0.7-0.1-1.3-0.1-1.8,0
		c-0.1,0-0.2,0.1-0.1,0.2c-0.2,0-0.4,0.1-0.5,0.2c0.1-0.1,0.1-0.3,0.2-0.5c0.1,0,0.2,0,0.2-0.1c0.1-0.4,0.2-1,0-1.5c0,0,0,0,0-0.1h0
		l0-0.2c0-0.2-0.1-0.3-0.2-0.5c0-0.1,0-0.2,0.1-0.2c0.1-0.1,0.2-0.1,0.3,0c1,0.3,2.1,0.2,2.8,0c0.1,0,0.2,0,0.3,0.1
		c0.1,0.1,0.1,0.1,0.1,0.2c-0.2,0.6-0.5,1.5-0.1,2.4C28.4,129.2,28.3,129.3,28.3,129.4z M23.9,129.9l0.3,0.3l0.1-0.1
		c0.7-0.6,1.7-0.5,2.4-0.3c0.2,0.1,0.4,0,0.6-0.1c0,0,0.1-0.1,0.1-0.1c0.1,0,0.3,0.1,0.4,0.1c0.2,0.1,0.5,0,0.6-0.1
		c0.2-0.1,0.2-0.3,0.1-0.5c-0.4-0.8-0.2-1.6,0.1-2.2c0.1-0.2,0-0.4-0.1-0.5c-0.2-0.1-0.4-0.2-0.6-0.1c-0.7,0.2-1.7,0.4-2.6,0
		c-0.2-0.1-0.4,0-0.6,0.1c-0.2,0.1-0.2,0.3-0.2,0.5c0,0.1,0.1,0.2,0.1,0.3c-0.1,0-0.1,0.1-0.2,0.1c-0.2,0.1-0.2,0.3-0.2,0.5
		c0.2,0.6,0.4,1.5-0.3,2.1C24.1,129.8,23.9,129.9,23.9,129.9z M217.4,19.4C217.4,19.4,217.4,19.5,217.4,19.4
		c-0.1,0.3-0.3,0.5-0.5,0.7c-0.2,0.3-0.5,0.5-0.7,0.6l0,0c-0.1,0.1-0.2,0-0.3,0c0,0-0.1-0.1-0.1-0.1c0,0,0-0.1,0-0.1
		c0.1-0.2,0.3-0.4,0.5-0.5C216.6,19.8,216.9,19.6,217.4,19.4C217.3,19.4,217.4,19.4,217.4,19.4z M224,36.5V14c0-0.1,0-0.1-0.1-0.2
		c0,0-0.1-0.1-0.2-0.1h-26.4c-0.2,0-0.2,0.1-0.2,0.2c0,0.1,0.1,0.2,0.2,0.2h18.6l0,0c0.2,0.4,0.3,0.9,0.3,1.4
		c-0.2-0.1-0.5-0.1-0.7-0.2c-0.7-0.1-1.5,0-1.9,0.4c-0.5,0.4-0.7,1-0.3,1.6c0.3,0.5,1,0.8,1.7,0.6c0.8-0.3,1.4-1,1.7-1.8l0.1,0
		c0.2,0.1,0.4,0.1,0.6,0.2c0.1,0,0.2,0.1,0.3,0.1c0.2,0.1,0.4,0.2,0.7,0.2c-0.1,0.5-0.2,1.2-0.3,1.7c0,0.1-0.1,0.3-0.1,0.4
		c-0.7,0.2-1.3,0.5-1.8,0.9c-0.3,0.2-0.5,0.5-0.6,0.8c0,0.1-0.1,0.2-0.1,0.3c0,0,0,0,0,0c0,0,0,0,0,0c0,0-0.1,0-0.1,0
		c-0.1,0-0.1-0.1-0.2-0.1l0,0c-0.1-0.1-0.2-0.2-0.3-0.3c-0.1-0.1-0.1-0.2-0.1-0.4v0c0,0,0-0.1,0-0.1c0.1,0,0.1-0.1,0.2-0.1
		c0.2,0,0.2-0.1,0.2-0.2c0-0.1-0.1-0.2-0.3-0.2c-0.3,0.1-0.5,0.2-0.5,0.3c-0.1,0.2-0.1,0.4,0,0.5c0.1,0.4,0.4,0.6,0.7,0.8
		c0.2,0.1,0.3,0.1,0.5,0.2c0,0,0,0,0,0c0,0.1,0,0.2,0.1,0.3c0.2,0.3,0.5,0.6,0.9,0.7c0.2,0.1,0.5,0.1,0.7,0.1
		c0.2-0.1,0.4-0.2,0.5-0.5c0-0.1,0-0.1-0.1-0.2c-0.1-0.1-0.2-0.1-0.3-0.1c-0.1,0-0.1,0.1-0.2,0.1c0,0.1,0,0.1-0.1,0.2c0,0,0,0-0.1,0
		h0c-0.1,0-0.2,0-0.2,0c-0.2,0-0.4-0.1-0.5-0.3c-0.1-0.1-0.2-0.2-0.2-0.3c0,0,0,0,0,0c0,0,0,0,0,0c0,0,0,0,0,0
		c0.4,0,0.7-0.2,1.1-0.4c0.3-0.2,0.5-0.5,0.8-0.8c0.2-0.3,0.3-0.5,0.5-0.9c0.8-0.2,1.6-0.3,2.3-0.4l0.2,0c0.1,0.2,0.2,0.4,0.2,0.5
		c0.1,0.3,0.3,0.6,0.4,0.9c-0.7,0.2-1.4,0.5-1.8,0.9c-0.2,0.2-0.5,0.6-0.4,0.9c0,0.3,0.2,0.5,0.4,0.7c0.5,0.4,1.3,0.5,1.8,0.2
		c0.5-0.3,0.9-0.8,0.9-1.5c0-0.4-0.1-0.7-0.2-1c0,0,0,0,0,0c0.4,0,0.8,0,1.2,0.1c0.2,0,0.3,0.1,0.4,0.1v15.8c0,0.1,0.1,0.2,0.2,0.2
		S224,36.7,224,36.5L224,36.5z M221,20.6L221,20.6c0.1,0,0.2,0,0.2,0.1c0.1,0,0.1,0.1,0.1,0.1c0.1,0.2,0.1,0.4,0.1,0.6
		c0,0.3,0,0.5-0.1,0.7c-0.1,0.2-0.3,0.4-0.4,0.5c-0.2,0.1-0.5,0.2-0.8,0.1c-0.4-0.1-0.9-0.5-0.8-0.9c0-0.1,0.1-0.3,0.2-0.4
		c0.1-0.1,0.2-0.3,0.4-0.4C220.3,20.9,220.7,20.7,221,20.6L221,20.6z M223.5,18.6v1.7c-0.6-0.2-1.2-0.2-1.8-0.2
		c0-0.1-0.1-0.2-0.1-0.3c-0.1-0.2-0.2-0.4-0.3-0.6l-0.1-0.2c0-0.1,0-0.2,0-0.3c0.1-0.1,0.2-0.1,0.3-0.1c0.4,0,1.1-0.1,1.6-0.1
		C223.2,18.6,223.4,18.6,223.5,18.6L223.5,18.6z M216.6,15.8c0.1-0.5,0-0.9-0.1-1.3c0-0.1-0.1-0.1-0.1-0.2h2c0,0.1,0,0.2,0,0.3
		c0,0.5-0.1,1-0.1,1.4c0,0.1-0.1,0.2-0.2,0.2c-0.1,0-0.2,0.1-0.3,0c-0.1,0-0.2-0.1-0.3-0.1c-0.2-0.1-0.4-0.1-0.6-0.2
		C216.8,15.8,216.7,15.8,216.6,15.8L216.6,15.8z M213.8,16.1c0.2-0.1,0.5-0.2,0.8-0.3c0.3,0,0.6,0,1,0.1c0,0,0.1,0,0.1,0
		c0.1,0,0.1,0.1,0.2,0.1c0,0.1,0,0.1,0,0.2c-0.1,0.4-0.4,0.9-1,1.2c-0.1,0.1-0.3,0.2-0.5,0.2c-0.1,0-0.2,0-0.3,0
		c-0.2-0.1-0.4-0.2-0.5-0.4c-0.1-0.1-0.2-0.3-0.2-0.5c0-0.1,0-0.1,0-0.2C213.5,16.4,213.6,16.3,213.8,16.1z M219.9,17.1
		c0,0,0.1,0,0.1,0c0,0.3,0.1,0.6,0.2,1c0,0.1,0.1,0.2,0.1,0.2c-0.8,0.1-1.5,0.2-2.2,0.3c0.2-0.6,0.3-1.1,0.3-1.6l0-0.2
		C219.1,17,219.5,17.1,219.9,17.1L219.9,17.1z M220.6,16.7L220.6,16.7c0-0.1,0-0.1,0-0.1c0,0,0,0,0-0.1l0,0l0,0
		c0-0.1,0.1-0.1,0.1-0.2l0,0c0,0,0,0,0,0c0,0,0.1-0.1,0.1-0.1c0,0,0,0,0,0l0,0l0,0c0,0,0.1,0,0.1-0.1c0.1-0.1,0.2-0.1,0.3-0.1
		c0,0,0,0,0.1,0c0,0,0,0,0,0.1c0,0.1-0.1,0.2-0.1,0.3c0,0-0.1,0.1-0.1,0.1l0,0l0,0l0,0c0,0,0,0-0.1,0.1c0,0-0.1,0.1-0.1,0.1
		c0,0,0,0-0.1,0l0,0c0,0-0.1,0-0.1,0.1c0,0,0,0-0.1,0l0,0l0,0l0,0c0,0,0,0-0.1,0C220.7,16.7,220.6,16.7,220.6,16.7L220.6,16.7
		L220.6,16.7z M223.5,14.2v3.9c-0.1,0-0.2,0-0.4,0c-0.5,0-1.2,0.1-1.6,0.1c-0.4,0-0.8-0.2-0.9-0.5c0-0.1-0.1-0.2-0.1-0.3
		c0-0.1,0-0.2,0-0.3c0.3,0,0.5-0.1,0.7-0.2c0.4-0.2,0.7-0.5,0.8-0.9c0-0.1,0.1-0.2,0.1-0.4c0-0.1,0-0.2-0.1-0.2
		c-0.1-0.1-0.2-0.1-0.3-0.1c-0.6,0.1-1.1,0.3-1.3,0.6c-0.2,0.2-0.3,0.5-0.4,0.8c0,0-0.1,0-0.1,0c-0.2,0-0.4,0-0.7-0.1l0,0
		c-0.4-0.1-0.6-0.4-0.6-0.7c0-0.3,0.1-0.9,0.1-1.3c0-0.1,0-0.3,0-0.4L223.5,14.2L223.5,14.2z M213.4,18.2L213.4,18.2L213.4,18.2
		L213.4,18.2c0,0,0-0.1,0-0.1c-0.1-0.1-0.2-0.1-0.3-0.1c-1,0.4-2.1-0.1-2.6-0.8c0-0.1-0.1-0.1-0.2-0.1c-0.1,0-0.2,0-0.2,0.1
		c0,0.1,0,0.1,0,0.2c0.5,0.7,1.5,1.2,2.4,1.1c0.3,0,0.6-0.1,0.8-0.2C213.3,18.4,213.4,18.4,213.4,18.2
		C213.4,18.3,213.4,18.3,213.4,18.2L213.4,18.2z M208.1,16c0.5,0.4,0.9,0.8,1.2,1.3l0.1,0.1c0.4,0.5,0.7,1,1.3,1.4
		c0.3,0.2,0.6,0.4,0.9,0.5c0.3,0.1,0.6,0.1,0.9,0.1c0.6,0,1.1-0.3,1.4-0.7c0-0.1,0.1-0.1,0.2-0.1c0.1,0,0.2,0,0.2,0.1
		c0,0,0,0.1,0,0.1c0,0,0,0.1,0,0.1c-0.1,0.1-0.2,0.2-0.3,0.3c-0.4,0.4-1,0.6-1.6,0.6c-0.3,0-0.6,0-0.9-0.1c-0.3-0.1-0.7-0.2-1-0.4
		c-0.6-0.4-1-0.9-1.4-1.4c-0.1-0.1-0.1-0.2-0.2-0.3c-0.3-0.4-0.5-0.8-0.9-1.1c-0.3-0.2-0.7-0.5-1.2-0.6c-0.5,0-0.9,0.1-1.2,0.4
		c-0.3,0.2-0.5,0.6-0.5,0.9c0,0.3,0.1,0.7,0.5,0.9c0.1,0.1,0.3,0.2,0.6,0.1c0.2,0,0.4-0.2,0.4-0.3c0.1-0.2,0.1-0.4-0.1-0.5
		c-0.1-0.2-0.3-0.2-0.5-0.3c-0.1,0-0.2,0-0.2-0.1c0-0.1,0-0.2,0-0.2c0-0.1,0.1-0.1,0.2-0.1c0.2,0,0.3,0,0.5,0.1
		c0.3,0.1,0.5,0.3,0.6,0.5c0.1,0.3,0.1,0.6-0.1,0.8c-0.1,0.2-0.4,0.4-0.7,0.5c-0.3,0.1-0.6,0-0.9-0.1c-0.5-0.3-0.7-0.7-0.8-1.1
		c0-0.4,0.2-0.8,0.5-1.2c0.4-0.4,0.9-0.6,1.4-0.7C207.1,15.4,207.7,15.7,208.1,16L208.1,16z M222.6,22.7L222.6,22.7L222.6,22.7
		L222.6,22.7C222.6,22.6,222.6,22.6,222.6,22.7c-0.1-0.1-0.1-0.2-0.2-0.2c-0.1,0-0.2,0-0.3,0.1c-0.4,0.8-1.4,1.1-2.3,0.9
		c-0.1,0-0.2,0-0.3,0.1c0,0.1,0,0.2,0.2,0.2c0.3,0.1,0.5,0.1,0.8,0.1c0.5,0,0.9-0.1,1.3-0.4C222.2,23.4,222.5,23.1,222.6,22.7
		C222.6,22.7,222.6,22.7,222.6,22.7L222.6,22.7z M212,16.7c0-0.4,0.2-0.8,0.4-1.1c0.3-0.3,0.6-0.6,1.1-0.7c0.1,0,0.1,0,0.2,0
		c0.1,0,0.1,0.1,0.1,0.1c0,0,0,0,0,0.1c0,0.1-0.1,0.2-0.2,0.2c-1,0.3-1.3,1.2-1.1,1.9c0,0.1-0.1,0.2-0.2,0.2c-0.1,0-0.2,0-0.3-0.1
		C212,17.2,212,16.9,212,16.7L212,16.7z M207.5,14.9C207.5,14.9,207.5,14.9,207.5,14.9c0,0.1,0,0.1,0,0.2c-0.1,0.1-0.2,0.1-0.3,0.1
		c-1-0.4-2.1,0.1-2.6,0.8c0,0.1-0.1,0.1-0.2,0.1c-0.1,0-0.2,0-0.2-0.1c0-0.1,0-0.1,0-0.2c0.1-0.2,0.3-0.4,0.5-0.6
		c0.4-0.3,0.8-0.5,1.3-0.6c0.5-0.1,1,0,1.5,0.2C207.4,14.8,207.4,14.8,207.5,14.9L207.5,14.9z M223.1,28.8L223.1,28.8
		c0-0.3-0.1-0.6-0.2-0.9c0,0-0.1-0.1-0.1-0.1c-0.1,0-0.1,0-0.2,0c-0.1,0.1-0.2,0.2-0.1,0.3c0.5,0.9-0.1,1.8-0.9,2.2
		c-0.1,0.1-0.1,0.2-0.1,0.3c0.1,0.1,0.2,0.1,0.3,0.1c0.3-0.1,0.5-0.3,0.7-0.5c0.3-0.3,0.6-0.7,0.6-1.1
		C223.1,29.1,223.1,29,223.1,28.8L223.1,28.8z M220,25.5L220,25.5c0-0.1,0-0.1-0.1-0.2c-0.8-0.4-1.4-1.4-0.9-2.2
		c0.1-0.1,0-0.2-0.1-0.3c-0.1,0-0.1,0-0.2,0c-0.1,0-0.1,0.1-0.1,0.1c-0.2,0.4-0.3,0.8-0.2,1.2c0.1,0.4,0.3,0.8,0.6,1.1
		c0.2,0.2,0.4,0.3,0.7,0.5c0.1,0.1,0.3,0,0.3-0.1C220,25.6,220,25.5,220,25.5z M217,23.3c0.1-0.5,0.5-1,1-1.2c0.1,0,0.2,0,0.2,0
		c0.1,0,0.1,0.1,0.1,0.2c0,0.1,0,0.1-0.1,0.2c-0.1,0.1-0.2,0.1-0.3,0.2c-0.4,0.3-0.5,0.8-0.5,1.3c0,0.3,0.2,0.6,0.3,0.8
		c0.2,0.2,0.4,0.5,0.7,0.7c0.4,0.3,0.9,0.5,1.3,0.8c0.2,0.1,0.4,0.2,0.6,0.3c0.4,0.2,1,0.6,1.3,1.1c0.2,0.3,0.3,0.6,0.3,0.9
		c0,0.2,0,0.4-0.1,0.5c-0.2,0.4-0.5,0.8-1,1c-0.5,0.2-1,0.3-1.4,0.2c-0.2-0.1-0.5-0.2-0.7-0.3c-0.2-0.2-0.4-0.4-0.5-0.6
		c-0.1-0.3,0-0.5,0.2-0.7c0.2-0.2,0.5-0.4,0.9-0.4c0.3,0,0.6,0.1,0.9,0.2c0.2,0.2,0.4,0.4,0.4,0.7c0,0.1,0,0.1-0.1,0.2
		c-0.1,0-0.2,0-0.3,0c-0.1,0-0.1-0.1-0.1-0.2c0-0.1,0-0.2-0.1-0.3c-0.1-0.1-0.3-0.2-0.5-0.3c-0.2,0-0.5,0.1-0.6,0.2
		c-0.1,0.1-0.2,0.3-0.1,0.5c0,0.1,0.2,0.3,0.4,0.4c0.3,0.2,0.7,0.2,1.1,0.2c0.4-0.1,0.7-0.3,1-0.6c0.3-0.3,0.3-0.8,0.2-1.1
		c-0.1-0.3-0.4-0.7-0.9-1c-0.3-0.2-0.7-0.4-1-0.6c-0.2-0.1-0.5-0.2-0.7-0.4c-0.7-0.4-1.2-0.8-1.5-1.3C217,24.4,216.9,23.8,217,23.3
		L217,23.3z M210.7,22.3c0.1,0,0.1-0.1,0.3-0.1c0.2,0.1,0.4,0.1,0.6,0.1l0.2,0v0c0,0,0.1,0,0.1,0c0.7,0.1,1.3,0.1,1.8,0
		c0.1,0,0.2-0.1,0.1-0.2c0.2,0,0.4-0.1,0.5-0.2c-0.1,0.1-0.1,0.3-0.2,0.5c-0.1,0-0.2,0-0.2,0.1c-0.1,0.4-0.2,1,0,1.5c0,0,0,0,0,0.1
		h0l0,0.2c0,0.2,0.1,0.3,0.2,0.5c0,0.1,0,0.2-0.1,0.2c-0.1,0.1-0.2,0.1-0.3,0c-1-0.3-2.1-0.2-2.8,0c-0.1,0-0.2,0-0.3,0
		c-0.1-0.1-0.1-0.1-0.1-0.2c0.2-0.6,0.5-1.5,0.1-2.4C210.6,22.5,210.6,22.4,210.7,22.3L210.7,22.3z M215,21.8l-0.3-0.3l-0.1,0.1
		c-0.7,0.6-1.7,0.5-2.4,0.3c-0.2-0.1-0.4,0-0.6,0.1c0,0-0.1,0.1-0.1,0.1c-0.1,0-0.3-0.1-0.4-0.1c-0.2-0.1-0.5,0-0.6,0.1
		c-0.2,0.1-0.2,0.3-0.1,0.5c0.4,0.8,0.2,1.6-0.1,2.2c-0.1,0.2,0,0.4,0.1,0.5c0.2,0.1,0.4,0.2,0.6,0.1c0.7-0.2,1.7-0.4,2.6,0
		c0.2,0.1,0.4,0,0.6-0.1c0.2-0.1,0.2-0.3,0.2-0.5c0-0.1-0.1-0.2-0.1-0.3c0.1,0,0.1-0.1,0.2-0.1c0.2-0.1,0.2-0.3,0.2-0.5
		c-0.2-0.6-0.4-1.5,0.3-2.1L215,21.8L215,21.8L215,21.8z M217.3,132.3c-0.4-0.1-0.7-0.3-1-0.5c-0.2-0.1-0.4-0.3-0.5-0.5
		c0,0,0-0.1,0-0.1c0-0.1,0-0.1,0.1-0.1c0.1,0,0.2-0.1,0.3,0l0,0c0.3,0.1,0.5,0.3,0.7,0.6C217.1,131.7,217.2,132,217.3,132.3
		C217.4,132.2,217.4,132.2,217.3,132.3C217.4,132.3,217.3,132.3,217.3,132.3z M224,137.7v-22.5c0-0.1-0.1-0.2-0.2-0.2
		s-0.2,0.1-0.2,0.2V131c-0.1,0.1-0.3,0.1-0.4,0.1c-0.4,0.1-0.8,0.1-1.2,0.1c0,0,0,0,0,0c0.1-0.3,0.2-0.6,0.2-1
		c0-0.7-0.3-1.2-0.9-1.5c-0.6-0.3-1.4-0.2-1.8,0.2c-0.2,0.2-0.4,0.5-0.4,0.7c0,0.4,0.2,0.7,0.4,0.9c0.4,0.4,1,0.8,1.8,0.9
		c-0.1,0.3-0.3,0.6-0.4,0.9c-0.1,0.2-0.2,0.3-0.2,0.5l-0.2,0c-0.8-0.1-1.6-0.2-2.3-0.4c-0.1-0.3-0.3-0.6-0.5-0.9
		c-0.3-0.4-0.5-0.6-0.8-0.8c-0.3-0.2-0.7-0.4-1.1-0.4c0,0,0,0,0,0c0,0,0,0,0,0c0,0,0,0,0,0c0-0.1,0.1-0.2,0.2-0.3
		c0.2-0.1,0.3-0.2,0.5-0.3c0.1,0,0.1,0,0.2,0l0,0c0.1,0,0.1,0,0.1,0c0,0,0.1,0.1,0.1,0.2c0,0.1,0.1,0.1,0.2,0.1c0.1,0,0.2,0,0.3-0.1
		c0.1,0,0.1-0.1,0.1-0.2c-0.1-0.3-0.2-0.4-0.5-0.5c-0.2,0-0.5,0-0.7,0.1c-0.4,0.1-0.7,0.4-0.9,0.7c0,0.1-0.1,0.2-0.1,0.3
		c0,0,0,0,0,0c-0.2,0-0.4,0.1-0.5,0.2c-0.3,0.1-0.6,0.4-0.7,0.8c0,0.1-0.1,0.4,0,0.5c0.1,0.2,0.3,0.3,0.5,0.3c0.2,0,0.3-0.1,0.3-0.2
		c0-0.1,0-0.2-0.2-0.2c-0.1,0-0.2,0-0.2-0.1c0,0,0-0.1,0-0.1v0c0-0.1,0.1-0.3,0.1-0.4c0.1-0.1,0.2-0.2,0.3-0.3l0,0
		c0.1,0,0.1-0.1,0.2-0.1c0,0,0.1,0,0.1,0c0,0,0,0,0,0c0,0,0,0,0,0c0,0.1,0,0.2,0.1,0.3c0.1,0.3,0.3,0.6,0.6,0.8
		c0.5,0.4,1.1,0.7,1.8,0.9c0,0.1,0.1,0.3,0.1,0.4c0.2,0.6,0.3,1.2,0.3,1.7c-0.2,0.1-0.5,0.2-0.7,0.2c-0.1,0-0.2,0.1-0.3,0.1
		c-0.2,0.1-0.4,0.1-0.6,0.2l-0.1,0c-0.3-0.8-0.9-1.5-1.7-1.8c-0.7-0.2-1.3,0.1-1.7,0.6c-0.4,0.5-0.2,1.2,0.3,1.6
		c0.5,0.4,1.2,0.5,1.9,0.4c0.3,0,0.5-0.1,0.7-0.2c0.1,0.5,0,1-0.3,1.4l0,0h-18.6c-0.2,0-0.2,0.1-0.2,0.2c0,0.1,0.1,0.2,0.2,0.2h26.4
		c0.1,0,0.1,0,0.2-0.1C223.9,137.8,224,137.7,224,137.7L224,137.7z M221.1,131.1c-0.4-0.1-0.7-0.3-1-0.5c-0.2-0.1-0.3-0.2-0.4-0.4
		c-0.1-0.1-0.2-0.3-0.2-0.4c-0.1-0.4,0.3-0.8,0.8-0.9c0.2-0.1,0.5,0,0.8,0.1c0.2,0.1,0.4,0.3,0.4,0.5c0.1,0.2,0.1,0.5,0.1,0.7
		c0,0.2-0.1,0.4-0.1,0.6c0,0.1-0.1,0.1-0.1,0.1C221.2,131.1,221.1,131.1,221.1,131.1L221.1,131.1L221.1,131.1z M223.1,133.1
		c-0.5,0-1.2-0.1-1.6-0.1c-0.1,0-0.2-0.1-0.3-0.1c-0.1-0.1-0.1-0.2,0-0.3l0.1-0.2c0.1-0.2,0.2-0.4,0.3-0.6c0-0.1,0.1-0.2,0.1-0.3
		c0.6,0.1,1.3,0,1.8-0.2v1.7C223.4,133.1,223.2,133.1,223.1,133.1L223.1,133.1z M216.6,135.9c0.1,0,0.1,0,0.2-0.1
		c0.2-0.1,0.4-0.1,0.6-0.2c0.1,0,0.2-0.1,0.3-0.1c0.1,0,0.2,0,0.3,0c0.1,0,0.2,0.1,0.2,0.2c0.1,0.3,0.1,0.9,0.1,1.4
		c0,0.1,0,0.2,0,0.3h-2c0-0.1,0.1-0.2,0.1-0.2C216.6,136.8,216.6,136.4,216.6,135.9L216.6,135.9z M213.4,135c0-0.1,0-0.1,0-0.2
		c0-0.2,0.1-0.3,0.2-0.5c0.1-0.2,0.3-0.3,0.5-0.4c0.1,0,0.2,0,0.3,0c0.2,0,0.3,0.1,0.5,0.2c0.6,0.3,0.9,0.8,1,1.2c0,0.1,0,0.1,0,0.2
		c0,0.1-0.1,0.1-0.2,0.1c0,0-0.1,0-0.1,0c-0.4,0.1-0.7,0.1-1,0.1c-0.3,0-0.6-0.1-0.8-0.3C213.6,135.4,213.5,135.2,213.4,135z
		 M218.6,134.8l0-0.2c-0.1-0.5-0.2-1.1-0.3-1.6c0.7,0.2,1.4,0.2,2.2,0.3c0,0.1-0.1,0.2-0.1,0.2c-0.1,0.4-0.2,0.7-0.2,1
		c0,0-0.1,0-0.1,0C219.5,134.6,219.1,134.7,218.6,134.8L218.6,134.8z M220.6,135c0.1,0,0.1,0,0.2,0c0,0,0,0,0.1,0l0,0l0,0l0,0
		c0,0,0,0,0.1,0c0,0,0.1,0,0.1,0.1l0,0c0,0,0,0,0.1,0c0,0,0.1,0.1,0.1,0.1c0,0,0,0,0.1,0.1l0,0l0,0l0,0c0,0,0.1,0.1,0.1,0.1
		c0.1,0.1,0.1,0.2,0.1,0.3c0,0,0,0,0,0.1c0,0,0,0-0.1,0c-0.1,0-0.2-0.1-0.3-0.1c0,0-0.1,0-0.1-0.1l0,0l0,0c0,0,0,0,0,0
		c0,0-0.1-0.1-0.1-0.1c0,0,0,0,0,0l0,0c-0.1-0.1-0.1-0.1-0.1-0.2l0,0l0,0c0,0,0,0,0-0.1C220.6,135.1,220.6,135,220.6,135L220.6,135
		L220.6,135L220.6,135z M218.9,137.5c0-0.1,0-0.2,0-0.4c0-0.4-0.1-1-0.1-1.3c0-0.3,0.2-0.6,0.6-0.7l0,0c0.2-0.1,0.5-0.1,0.7-0.1
		c0,0,0.1,0,0.1,0c0,0.3,0.2,0.6,0.4,0.8c0.3,0.3,0.7,0.5,1.3,0.6c0.1,0,0.2,0,0.3-0.1c0.1,0,0.1-0.1,0.1-0.2c0-0.1-0.1-0.2-0.1-0.4
		c-0.2-0.4-0.5-0.8-0.8-0.9c-0.2-0.1-0.4-0.2-0.7-0.2c0-0.1,0-0.2,0-0.3c0-0.1,0-0.2,0.1-0.3c0.1-0.3,0.5-0.5,0.9-0.5
		c0.4,0,1,0.1,1.6,0.1c0.1,0,0.3,0,0.4,0v3.9L218.9,137.5L218.9,137.5z M213.4,133.4L213.4,133.4L213.4,133.4L213.4,133.4
		C213.4,133.4,213.4,133.4,213.4,133.4c0-0.1-0.1-0.2-0.1-0.2c-0.3-0.1-0.6-0.2-0.8-0.2c-0.9-0.1-1.9,0.4-2.4,1.1c0,0.1,0,0.1,0,0.2
		c0,0.1,0.1,0.1,0.2,0.1c0.1,0,0.2,0,0.2-0.1c0.5-0.7,1.6-1.2,2.6-0.8c0.1,0.1,0.3,0,0.3-0.1C213.4,133.5,213.4,133.5,213.4,133.4
		L213.4,133.4z M208.1,135.7c0.5-0.4,0.9-0.8,1.2-1.3l0.1-0.1c0.4-0.5,0.7-1,1.3-1.4c0.3-0.2,0.6-0.4,0.9-0.5
		c0.3-0.1,0.6-0.1,0.9-0.1c0.6,0,1.1,0.3,1.4,0.7c0,0.1,0.1,0.1,0.2,0.1c0.1,0,0.2,0,0.2-0.1c0,0,0-0.1,0-0.1c0,0,0-0.1,0-0.1
		c-0.1-0.1-0.2-0.2-0.3-0.3c-0.4-0.4-1-0.6-1.6-0.6c-0.3,0-0.6,0-0.9,0.1c-0.3,0.1-0.7,0.2-1,0.4c-0.6,0.4-1,0.9-1.4,1.4
		c-0.1,0.1-0.1,0.2-0.2,0.3c-0.3,0.4-0.5,0.8-0.9,1.1c-0.3,0.2-0.7,0.5-1.2,0.6c-0.5,0-0.9-0.1-1.2-0.4c-0.3-0.2-0.5-0.6-0.5-0.9
		c0-0.3,0.1-0.7,0.5-0.9c0.1-0.1,0.3-0.2,0.6-0.1c0.2,0,0.4,0.2,0.4,0.3c0.1,0.2,0.1,0.4-0.1,0.5c-0.1,0.2-0.3,0.2-0.5,0.3
		c-0.1,0-0.2,0-0.2,0.1c0,0.1,0,0.2,0,0.2c0,0.1,0.1,0.1,0.2,0.1c0.2,0,0.3,0,0.5-0.1c0.3-0.1,0.5-0.3,0.6-0.5
		c0.1-0.3,0.1-0.6-0.1-0.8c-0.1-0.2-0.4-0.4-0.7-0.5c-0.3-0.1-0.6,0-0.9,0.1c-0.5,0.3-0.7,0.7-0.8,1.1c0,0.4,0.2,0.8,0.5,1.2
		c0.4,0.4,0.9,0.6,1.4,0.7C207.1,136.3,207.7,136,208.1,135.7L208.1,135.7z M222.6,129L222.6,129L222.6,129L222.6,129
		C222.6,129,222.6,129,222.6,129c-0.2-0.4-0.5-0.7-0.8-1c-0.4-0.2-0.8-0.3-1.3-0.3c-0.3,0-0.5,0-0.8,0.1c-0.1,0-0.2,0.1-0.2,0.2
		c0,0.1,0.1,0.2,0.3,0.1c0.9-0.2,1.9,0.1,2.3,0.9c0,0.1,0.2,0.2,0.3,0.1C222.5,129.2,222.6,129.2,222.6,129
		C222.6,129.1,222.6,129,222.6,129L222.6,129z M212,135c0,0.4,0.2,0.8,0.4,1.1c0.3,0.3,0.6,0.6,1.1,0.7c0.1,0,0.1,0,0.2,0
		c0.1,0,0.1-0.1,0.1-0.1c0,0,0,0,0-0.1c0-0.1-0.1-0.2-0.2-0.2c-1-0.3-1.3-1.2-1.1-2c0-0.1-0.1-0.2-0.2-0.2c-0.1,0-0.2,0-0.3,0.1
		C212,134.5,212,134.8,212,135L212,135z M207.5,136.8C207.5,136.8,207.5,136.8,207.5,136.8c0-0.1,0-0.1,0-0.2
		c-0.1-0.1-0.2-0.1-0.3-0.1c-1,0.4-2.1-0.1-2.6-0.8c0-0.1-0.1-0.1-0.2-0.1c-0.1,0-0.2,0-0.2,0.1c0,0.1,0,0.1,0,0.2
		c0.1,0.2,0.3,0.4,0.5,0.6c0.4,0.3,0.8,0.5,1.3,0.6c0.5,0.1,1,0,1.5-0.2C207.4,136.9,207.4,136.9,207.5,136.8L207.5,136.8z
		 M223.1,122.9L223.1,122.9c0-0.1,0-0.2,0-0.4c-0.1-0.4-0.3-0.8-0.6-1.1c-0.2-0.2-0.4-0.3-0.7-0.5c-0.1-0.1-0.3,0-0.3,0.1
		c-0.1,0.1-0.1,0.2,0.1,0.3c0.8,0.4,1.4,1.4,0.9,2.2c-0.1,0.1,0,0.2,0.1,0.3c0.1,0,0.1,0,0.2,0c0.1,0,0.1-0.1,0.1-0.1
		C223,123.5,223.1,123.2,223.1,122.9L223.1,122.9z M220,126.2L220,126.2c0,0,0-0.1,0-0.1c-0.1-0.1-0.2-0.1-0.3-0.1
		c-0.3,0.1-0.5,0.3-0.7,0.5c-0.3,0.3-0.6,0.7-0.6,1.1c-0.1,0.4,0,0.9,0.2,1.2c0,0,0.1,0.1,0.1,0.1c0.1,0,0.1,0,0.2,0
		c0.1-0.1,0.2-0.2,0.1-0.3c-0.5-0.9,0.1-1.8,0.9-2.2C220,126.3,220,126.3,220,126.2z M217,128.4c0.1,0.5,0.5,1,1,1.2
		c0.1,0,0.2,0,0.2,0c0.1,0,0.1-0.1,0.1-0.2c0-0.1,0-0.1-0.1-0.2c-0.1-0.1-0.2-0.1-0.3-0.2c-0.4-0.3-0.5-0.8-0.5-1.3
		c0-0.3,0.2-0.6,0.3-0.8c0.2-0.2,0.4-0.5,0.7-0.7c0.4-0.3,0.9-0.5,1.3-0.8c0.2-0.1,0.4-0.2,0.6-0.3c0.4-0.2,1-0.6,1.3-1.1
		c0.2-0.3,0.3-0.6,0.3-0.9c0-0.2,0-0.4-0.1-0.5c-0.2-0.4-0.5-0.8-1-1c-0.5-0.2-1-0.3-1.4-0.2c-0.2,0.1-0.5,0.2-0.7,0.3
		c-0.2,0.2-0.4,0.4-0.5,0.6c-0.1,0.3,0,0.5,0.2,0.7c0.2,0.2,0.5,0.4,0.9,0.4c0.3,0,0.6-0.1,0.9-0.2c0.2-0.2,0.4-0.4,0.4-0.7
		c0-0.1,0-0.1-0.1-0.2c-0.1,0-0.2,0-0.3,0c-0.1,0-0.1,0.1-0.1,0.2c0,0.1,0,0.2-0.1,0.3c-0.1,0.1-0.3,0.2-0.5,0.3
		c-0.2,0-0.5-0.1-0.6-0.2c-0.1-0.1-0.2-0.3-0.1-0.5c0-0.1,0.2-0.3,0.4-0.4c0.3-0.2,0.7-0.2,1.1-0.2c0.4,0.1,0.7,0.3,1,0.6
		c0.3,0.3,0.3,0.8,0.2,1.1c-0.1,0.3-0.4,0.7-0.9,1c-0.3,0.2-0.7,0.4-1,0.6c-0.2,0.1-0.5,0.2-0.7,0.4c-0.7,0.4-1.2,0.8-1.5,1.3
		C217,127.2,216.9,127.9,217,128.4L217,128.4z M210.6,129.1c0.4-0.9,0.2-1.8-0.1-2.4c0-0.1,0-0.2,0.1-0.2c0.1-0.1,0.2-0.1,0.3-0.1
		c0.7,0.2,1.8,0.4,2.8,0c0.1,0,0.2,0,0.3,0c0.1,0,0.1,0.1,0.1,0.2c-0.1,0.2-0.1,0.3-0.2,0.5l0,0.2h0c0,0,0,0,0,0.1
		c-0.1,0.6-0.1,1.1,0,1.5c0,0.1,0.1,0.1,0.2,0.1c0,0.2,0.1,0.3,0.2,0.5c-0.2-0.1-0.3-0.1-0.5-0.2c0-0.1,0-0.2-0.1-0.2
		c-0.5-0.1-1.1-0.1-1.8,0c0,0-0.1,0-0.1,0v0l-0.2,0c-0.2,0-0.4,0.1-0.6,0.1c-0.1,0-0.2,0-0.3-0.1
		C210.6,129.3,210.6,129.2,210.6,129.1L210.6,129.1z M214.9,129.8c-0.7-0.6-0.5-1.4-0.3-2.1c0.1-0.2,0-0.4-0.2-0.5
		c0,0-0.1-0.1-0.2-0.1c0-0.1,0.1-0.2,0.1-0.3c0.1-0.2,0-0.4-0.2-0.5c-0.2-0.1-0.4-0.2-0.6-0.1c-0.9,0.3-1.9,0.1-2.6,0
		c-0.2-0.1-0.5,0-0.6,0.1c-0.2,0.1-0.2,0.3-0.1,0.5c0.2,0.6,0.4,1.4,0.1,2.2c-0.1,0.2,0,0.4,0.1,0.5c0.2,0.1,0.4,0.2,0.6,0.1
		c0.1,0,0.3-0.1,0.4-0.1c0,0.1,0.1,0.1,0.1,0.1c0.1,0.1,0.4,0.2,0.6,0.1c0.7-0.2,1.8-0.3,2.4,0.3l0.1,0.1l0.3-0.3L214.9,129.8
		L214.9,129.8L214.9,129.8z M226,139.6V12.1H13v127.5H226z M227.2,140.7V11H11.7v129.6H227.2z M46.6,137.9h145.6
		c0.1,0,0.2-0.1,0.2-0.2c0-0.1-0.1-0.2-0.2-0.2H46.6c-0.1,0-0.2,0.1-0.2,0.2C46.3,137.8,46.5,137.9,46.6,137.9z M223.5,40.6V111
		c0,0.1,0.1,0.1,0.2,0.1c0.1,0,0.2-0.1,0.2-0.1V40.6c0-0.1-0.1-0.1-0.2-0.1C223.6,40.5,223.5,40.6,223.5,40.6z M15.5,111V40.6
		c0-0.1-0.1-0.1-0.2-0.1c-0.1,0-0.2,0.1-0.2,0.1V111c0,0.1,0.1,0.1,0.2,0.1C15.4,111.2,15.5,111.1,15.5,111z"/>
</g>
</svg>
