<?xml version="1.0" encoding="utf-8"?>
<!-- Generator: Adobe Illustrator 26.0.1, SVG Export Plug-In . SVG Version: 6.00 Build 0)  -->
<svg version="1.1" id="Слой_1" xmlns="http://www.w3.org/2000/svg" xmlns:xlink="http://www.w3.org/1999/xlink" x="0px" y="0px"
	 viewBox="0 0 238.1 150.2" style="enable-background:new 0 0 238.1 150.2;" xml:space="preserve">
<g>
	<path d="M127.4,122.9c-15.5,0-30.9,0-46.4,0c-4.2,0-8.3-0.1-12.5-0.1c-10.4,0-20.8-0.1-31.2-0.1c-1.7,0-3.5,0-5.2,0
		c-0.5,0-0.9,0.1-1.4,0.1c-1,0.1-2.1-0.1-2.2-0.9c0-0.4-0.1-0.8,0-1.2c0-0.7,0.1-1.4,0.1-2.1c0-8.1,0-16.1,0-24.2
		c0-17.7-0.1-35.3-0.1-53c0-3.6,0-7.2,0-10.8c0-1.6,0.8-1.8,2-1.7c0.4,0,0.8,0.1,1.2,0.1c24,0,47.9,0,71.9,0c4.4,0,8.9-0.1,13.3-0.1
		c22.7,0,45.4,0,68.1,0.1c8.1,0,16.2,0,24.3,0c0.1,0,0.2,0,0.4,0c1.5,0,1.7,0.3,1.7,1.7c0,5.8,0,11.6,0,17.4c0,9.9,0,19.9,0,29.8
		c0,9.1,0,18.2,0,27.3c0,4.5,0,8.9-0.1,13.4c0,1,0,2,0,3c0,0.7-0.3,0.9-1,0.9c-4.2,0-8.5,0-12.7,0c-3.3,0-6.6,0.1-9.9,0.1
		c-16.8,0-33.6,0-50.4,0C134,122.9,130.7,122.9,127.4,122.9C127.4,122.9,127.4,122.9,127.4,122.9z M173.1,63.2
		c0.9,0,1.7,0.9,2.8,0.4c-0.4-0.2-0.7-0.3-1-0.5c-0.8-0.5-1.6-1-2.3-1.7c-0.7-0.6-0.5-1.5,0.2-1.8c0.1,0.2,0.3,0.4,0.4,0.6
		c0.2,0.5,0.5,0.8,1,0.5c0.5-0.3,0.5-0.7,0.3-1.1c-0.3-0.9-1-1-1.9-0.6c-1.2,0.6-1.6,1.8-0.9,2.7C172.1,62.2,172.7,62.7,173.1,63.2
		c-1,0.1-2.2-0.8-2.4-1.9c-0.1-0.6-0.1-1.2-0.2-1.9c-0.1,0-0.1-0.1-0.2-0.1c-0.2,0.3-0.6,0.6-0.7,1c-0.4,2,1.3,3.6,2.9,3.8
		C173.3,64.2,173.4,64,173.1,63.2z M67.6,88.9c-0.3-0.1-0.6-0.2-0.9-0.3c-0.8-0.3-1.6-0.8-2.6-0.5c0.1,0.1,0.2,0.2,0.3,0.2
		c0.6,0.4,1.3,0.7,1.8,1.1c0.8,0.6,1.6,1.3,1.2,2.4c-0.6,0.1-0.6,0.1-0.8-0.4c-0.3-0.8-0.8-0.9-1.3-0.2c-0.2,0.2-0.3,0.8-0.1,1
		c0.3,0.3,0.8,0.8,1.2,0.7c1.4-0.2,2.4-1.2,1.7-2.8C68,89.8,67.8,89.3,67.6,88.9c0.3,0.2,0.7,0.3,1,0.5c0.6,0.5,0.5,1.2,0.5,1.8
		c0,0.4-0.1,1,0.5,1c0.3,0,0.5-0.5,0.8-0.8c0.1-0.1,0-0.2,0-0.3c0.1-1.4-0.7-2.3-1.8-3c-0.6-0.4-1.2-0.3-1.8-0.2
		C67.1,88.2,67.3,88.6,67.6,88.9z M172.5,107.4c-0.3,0.3-0.6,0.6-1,0.9c-0.4,0.3-1,0.5-1.4,0.9c-0.6,0.4-0.6,0.7,0,1.1
		c0.8,0.5,1.7,1,2.6,1.3c0.6,0.3,1.3,0.4,1.9,0.5c0.2,0,0.5-0.2,0.5-0.4c0-0.2-0.1-0.5-0.3-0.6c-0.3-0.2-0.6-0.2-0.9-0.4
		c-0.7-0.3-1.6-0.4-2.1-1.2c0.4-0.2,0.9-0.5,1.3-0.7c0.5-0.2,1.1-0.3,1.6-0.6c0.2-0.1,0.3-0.4,0.5-0.6c-0.2-0.2-0.4-0.4-0.7-0.4
		c-0.2-0.1-0.4,0-0.7,0C173.5,107.2,173,107.3,172.5,107.4c0.1-0.1,0.2-0.3,0.4-0.4c0.7-0.5,0.7-0.5,0-1c-1.7-1.2-3.4-2.4-5.1-3.6
		c-0.3-0.2-0.5-0.7-0.9-0.4c-0.4,0.4,0.1,0.7,0.2,1.1c0.1,0.1,0.2,0.2,0.2,0.2c0.9,1,1.8,1.9,2.7,3c-0.5,0.3-0.9,0.6-1.3,0.9
		c-0.9,0.6-1.9,1.1-2.7,1.7c-0.7,0.5-0.6,0.9,0,1.4c0.5,0.4,1.1,0.7,1.6,1c0.6,0.4,1.2,0.8,2,1.2c-0.8,0.8-1.5,1.4-2.2,2.1
		c-0.4,0.4-0.8,0.8-0.5,1.5c0.2-0.1,0.5-0.2,0.6-0.3c1.3-0.9,2.6-1.8,3.9-2.7c0.2-0.2,0.6-0.4,0.6-0.6c-0.1-0.2-0.4-0.5-0.6-0.6
		c-0.9-0.6-1.9-1.1-2.9-1.7c-0.7-0.5-0.6-0.9,0.1-1.2c0.2-0.1,0.5-0.3,0.7-0.4C170.4,108.2,171.4,107.8,172.5,107.4z M74.9,53.2
		c-0.1-0.4-0.1-0.8-0.3-1.1c-0.3-0.3-0.8-0.4-1.2-0.6c-2-1-4-2-6.1-3c-1.1-0.5-2.2-1.3-3.5-1.2c-0.4,0-0.9,0.2-1.3,0.3
		c-1.4,0.1-2.6-0.2-3.7-1c-0.1-0.1-0.4-0.1-0.6-0.1c0,0.1-0.1,0.1-0.2,0.2c0.2,0.3,0.4,0.6,0.7,0.9c0.9,1.1,0.8,2.5-0.3,3.3
		c-0.4,0.3-0.9,0.5-1.3,0.6c-1.1,0.3-1.8,0-2.3-1c-0.2-0.4-0.3-0.8-0.5-1.2c-0.1-0.2-0.4-0.4-0.6-0.6c-0.2,0.2-0.5,0.5-0.7,0.7
		c-0.1,0.1-0.1,0.3-0.1,0.5c0,2.2,0,4.5,0,6.7c0,0.5,0.2,0.6,0.7,0.5c0.7-0.2,1.4-0.4,2.1-0.6c2-0.7,4-1.4,5.9-2.2
		c1.3-0.5,2.6-1.3,3.9-1.7c0.9-0.3,2-0.3,2.9-0.5c1.5-0.2,3,0,4.4,0.5C73.5,52.8,74.2,53,74.9,53.2c0.1,0.2,0.1,0.4,0.1,0.5
		c0,1.8,0,3.6,0,5.4c0,1.3,0.2,1.8,1.4,2.4c1.7,0.8,3.5,1.5,5.2,2.2c0.8,0.3,1.5,0.7,2.3,1c-0.8,1.1-1.1,1.1-2.2,0.5
		c-0.2-0.1-0.4-0.1-0.6,0c-0.1,0.1-0.1,0.4-0.1,0.6c0.4,0.9,1.4,1.2,2.3,0.8c0.8-0.3,1.2-0.8,1.3-1.7c0.7,0.3,1.3,0.6,2,0.7
		c0.6,0.1,1.1,0.4,1.4,0.9c0.9,1.2,0.9,1.9,0.1,2.7c-0.5,0.5-1,0.6-1.6,0.1c-0.3-0.2-0.5-0.4-1-0.7c0,0.3-0.2,0.7-0.1,0.8
		c0.4,0.5,0.9,1,1.4,1.4c0.2,0.2,0.7,0.1,1-0.1c0.4-0.3,0.8-0.8,1.2-1.1c0.6-0.6,1.3-0.7,2-0.2c0.8,0.6,1.5,1.2,2.2,1.8
		c0.1,0.1,0.2,0.3,0.2,0.5c0,1-1.2,1.7-2.2,1.3c-0.3-0.1-0.6,0-1,0c0.1,0.3,0,0.7,0.2,1c0.4,0.8,1.3,0.8,2.2,0.2
		c0.5-0.3,1-0.7,1.4-1.1c0.5-0.4,1-0.4,1.4,0c0.7,0.6,1.4,1.1,2.1,1.7c0.6,0.5,0.6,0.9,0.1,1.4c-0.6,0.5-1.2,1.3-2.2,0.6
		c-0.2-0.1-0.5,0-0.7,0c0,0.8,0.7,1.1,1.2,1.4c0.5,0.3,0.9,0.2,1.3-0.2c0.4-0.4,0.9-0.7,1.3-1.1c0.4-0.4,0.8-0.4,1.2-0.1
		c0.8,0.6,1.5,1.2,2.3,1.8c0.5,0.4,0.4,1.2,0,1.6c-0.8,0.7-1,0.9-2.1,0.2c-0.1-0.1-0.3-0.2-0.5-0.1c-0.1,0.1-0.3,0.3-0.3,0.4
		c0.1,0.7,0.7,1,1.3,1.3c0.3,0.1,0.8,0,1.1-0.1c0.7-0.4,1.3-0.9,2-1.3c0.1-0.1,0.4-0.1,0.5-0.1c0.8,0.4,1.5,0.9,2.3,1.4
		c-0.6,0.2-1.1,0.3-1.6,0.4c-0.6,0.1-1.1,0.2-1.7,0.3c-1,0.2-2,0.3-2.9,0.5c-0.4,0.1-0.6-0.1-0.8-0.4c-0.3-0.5-0.7-1-1.1-1.4
		c-0.7-0.7-0.8-0.9,0-1.6c1.1-1,1.1-1,2.3-0.2c0.2,0.1,0.4,0.1,0.7,0.1c0-0.2,0.1-0.6-0.1-0.7c-0.4-0.4-0.8-0.9-1.3-1.2
		c-0.2-0.1-0.8-0.1-1,0.1c-0.5,0.3-1,0.8-1.5,1.2c-0.6,0.4-1.2,0.5-1.8,0c-0.6-0.5-1.3-0.9-1.8-1.5c-0.2-0.2-0.5-0.7-0.4-1
		c0.2-1,1.5-1.5,2.4-1c0.2,0.1,0.5,0.1,0.7,0.1c0-0.3,0.2-0.6,0.1-0.8c-0.3-0.5-0.7-0.9-1.4-0.9c-0.7,0-1.1,0.5-1.6,0.9
		c-0.6,0.4-1.1,1.3-1.9,0.8c-0.8-0.4-1.5-1-2.2-1.6c-0.3-0.2-0.5-0.5-0.6-0.8c-0.2-0.6,0.4-1.2,1.3-1.4c0.5-0.1,1,0,1.6,0
		c0.1,0,0.4-0.3,0.3-0.4c-0.2-0.7-1.4-1.2-2-0.8c-0.6,0.3-1.1,0.8-1.6,1.2c-0.4,0.4-0.9,0.5-1.3,0.3c-0.8-0.6-1.6-1.2-2.3-1.9
		c-0.4-0.4-0.3-1.1,0.1-1.5c0.7-0.7,1-0.7,2.1-0.2c0.2,0.1,0.4,0,0.6,0.1c0-0.2,0.1-0.5,0-0.6c-0.2-0.3-0.4-0.6-0.8-0.9
		C86,66.3,85.6,66.4,85,67c-0.3,0.3-0.7,0.6-1,0.9c-0.6,0.4-1.2,0.5-1.8,0.1c-0.7-0.5-1.3-1-1.9-1.6c-0.6-0.5-0.7-1.1-0.4-1.8
		c0.1-0.3,0-0.6,0-0.9c-0.3,0.1-0.6,0.2-0.8,0.4c-0.7,0.6-1.1,0.6-1.9,0.1c-0.4-0.2-0.7-0.5-1.1-0.8c-0.1,0-0.1,0.1-0.2,0.1
		c0.2,0.3,0.2,0.7,0.5,0.9c1,0.9,2.1,1.8,3.1,2.6c4.7,3.9,9.3,7.9,13.9,11.9c0.2,0.2,0.3,0.4,0.5,0.6c-0.3,0.1-0.5,0.1-0.7-0.1
		c-0.5-0.4-0.9-0.8-1.4-1.2c-2-1.7-4-3.4-6-5c-2.3-1.9-4.6-3.9-6.9-5.8c-0.9-0.8-1.8-1.6-2.8-2.3c-0.1-0.1-0.3-0.1-0.5-0.1
		c0,0.2,0,0.4,0.1,0.6c0.2,0.3,0.5,0.6,0.8,0.9c2.7,2.3,5.4,4.5,8,6.8c2.8,2.4,5.7,4.8,8.6,7.2c1,0.9,2,1.7,3,2.6
		c0.2,0.1,0.3,0.4,0.3,0.6c0,0.1-0.2,0.3-0.3,0.4c-0.8,0.2-1.6,0.4-2.3,0.6c-1.1,0.3-2.2,0.5-3.2,0.8c-1.3,0.4-2.6,0.9-3.9,1.3
		c-1.9,0.7-3.8,1.2-5.6,2c-3.1,1.3-6.1,2.8-9.1,4.2c-0.5,0.2-0.7,0.6-0.4,1.1c0.4,0.9,0.7,1.8,1.1,2.7c0.2,0.4,0.5,0.8,0.7,1.1
		c0.4-0.3,0.8-0.7,1.1-1.1c0.6-0.7,1.1-1.5,1.7-2.4c1,1.1,1.9,2.2,2.8,3.2c-0.1,0.1-0.1,0.1-0.1,0.2c-1.6,0.3-3.2,0.6-4.8,0.9
		c0,1.1,0,1.1,1,1.1c0.4,0,0.9,0,1,0.5c0.1,0.3-0.2,0.6-0.3,0.9c-0.1,0.3-0.2,0.7,0,1c0.3,0.6,0.7,1.1,1,1.6
		c0.3,0.5,0.5,0.4,0.9,0.1c2.1-1.6,4.2-3.2,6.4-4.6c3.5-2.3,7.2-4.1,11-5.6c1-0.4,1.6-1,1.7-2.1c0.2-1.4,0.1-1.3-1.1-1.5
		c-0.2,0-0.3,0-0.5,0c-1.1,0-2.2,0-3.3,0c-0.4,0-0.8-0.2-1.3-0.3c1.5-1.2,2.9-2.4,4.3-3.6c0.2,1.1,1.5,1.5,1.5,2.8
		c0,0.1,0.3,0.2,0.4,0.3c0.1-0.5,0.1-0.9,0.2-1.3c0.5-1.1,1.5-1.5,2.6-1.8c0.8-0.2,1.7-0.2,2.4-0.6c0.7-0.3,1.2-1,2-0.8
		c0,0,0.1-0.1,0.2-0.1c0.5-0.2,1-0.5,1.2-0.6c0.5,0.7,1,1.2,1.4,1.7c0.2,0.3,0.4,0.7,0.6,1c0.2,0.3,0.2,0.7,0.4,1
		c0.9,1.1,2,2.1,3.7,1.8c1.7-0.2,3.3-0.4,5-0.6c0.4,0,0.9,0,1.3,0c1.9,0,3.8-0.1,5.7,0c2.4,0.1,4.9,0.4,7.3,0.6
		c1.8,0.2,3.5,0.5,5.2,0.9c1.6,0.3,3.1,0.8,4.7,1.3c2,0.6,4.1,1.2,6.1,2c2.8,1.2,5.6,2.6,8.2,4.1c3.2,1.8,6.1,3.9,8.8,6.4
		c0.2,0.2,0.4,0.2,0.8,0.4c0-4.5,0-8.9,0-13.3c0-0.3-0.3-0.7-0.6-0.8c-1.2-0.6-2.5-1.1-3.8-1.7c-0.2-0.1-0.5-0.3-0.7-0.5
		c0.5-0.3,0.9-0.5,1.3-0.7c0.4-0.1,0.8-0.3,1.1-0.2c0.4,0.1,0.6,0.4,1,0.6c0.2,0.1,0.5,0.2,0.8,0.3c0-0.3,0-0.3,0-0.4
		c-3.2-2.8-6.3-5.6-9.5-8.4c-1.5-1.3-3-2.4-4.5-3.7c-2.1-1.7-4.2-3.5-6.2-5.2c-0.9-0.7-1.7-1.5-2.7-2.3c1.2-0.3,2.2-0.5,3.2-0.8
		c1.9-0.5,3.8-1,5.6-1.6c2.5-0.8,5.1-1.6,7.5-2.6c3.5-1.5,6.9-3.1,10.4-4.7c0.4-0.2,0.8-0.4,0.9-0.8c0.4,0.4,0.9,0.6,1.5,0.4
		c1.3-0.3,2.6-0.6,4-0.3c0.8,0.2,1.3,0.6,1.5,1.3c0.2,0.7,0,1.2-0.5,1.7c-0.5,0.5-0.5,0.6,0.1,1c0.2,0.1,0.4,0.2,0.6,0.3
		c1.2,0.5,2.4,0.8,3.8,0.6c-0.1-0.2-0.2-0.4-0.2-0.6c-0.2-1.4-0.2-2.3,1.3-2.8c0.4-0.1,0.9-0.1,1.4-0.1c1.6-0.1,2.3,0.9,2.4,2.1
		c0.1,0.6,0.4,1,0.9,1.1c0.8,0.2,1.6,0.3,2.5,0.5c2.6,0.5,5.1,0.1,7.3-1.2s4.6-2.7,6.9-4c2.4-1.3,4.8-2.6,7.1-3.9
		c0.8-0.5,1.2-1.2,1.2-2.2c0-6.7,0-13.4,0-20.1c0-0.4-0.1-0.8-0.2-1.4c-20.1,0-40.1,0-60.3,0c0.2,0.3,0.4,0.5,0.5,0.7
		c2.1,2.2,4.3,4.4,6.3,6.7c1.8,2,3.4,4.2,4.9,6.4c1.1,1.5,2.1,3.1,3,4.7c0.9,1.5,1.6,3,2.3,4.5c0.2,0.4,0.4,0.8,0.5,1.2
		c0.3,0.8,0.9,1.5,0.8,2.4c-0.1-0.1-0.2-0.3-0.3-0.4c-0.4-0.9-0.7-2-1.7-2.7c-0.6,0.8-1.1,1.6-1.6,2.4c-0.7,1.2-0.7,1.2-1.7,0.2
		c-0.7-0.7-1.5-1.4-1.9-2.5c0.3-0.1,0.5-0.2,0.7-0.3c1.2-0.2,2.5-0.5,3.7-0.7c0.5-0.1,0.7-0.5,0.3-0.8c-0.3-0.2-0.8-0.3-1.2-0.3
		c-0.7-0.1-0.9-0.5-0.6-1.2c0.2-0.4,0.4-0.9,0.3-1.2c-0.3-0.8-0.9-1.5-1.3-2.2c-1.8,1.3-3.4,2.5-5.1,3.7c-2.3,1.6-4.7,3-7.2,4.2
		c-2,1-4,1.9-6.1,2.7c-0.6,0.2-1.1,0.6-1.2,1.3c-0.1,1.1-0.2,2.3-0.3,3.4c-0.1,0.8-0.3,1.7-1.1,2c-0.7,0.3-1.4,0.4-2.2,0.6
		c-0.8,0.2-1.7,0.2-2.3,0.9c-0.1,0.1-0.2,0.1-0.3,0.2c-0.7,0.3-1.5,0.6-2.2,0.8c-0.2,0.1-0.4,0.2-0.5,0.2c-0.4-0.6-0.6-1.1-1-1.5
		c-0.4-0.5-0.9-0.9-0.9-1.6c0-0.2-0.1-0.5-0.3-0.7c-0.6-0.6-1.2-1.1-1.9-1.6c-0.2-0.2-0.5-0.2-0.8-0.2c-1.2,0.1-2.5,0.3-3.8,0.4
		c-2.1,0.2-4.2,0.4-6.2,0.5c-0.9,0-1.8-0.1-2.7-0.2c-0.6,0-1.1,0-1.7,0c-1.3-0.1-2.7-0.2-4-0.3c-0.8-0.1-1.7-0.2-2.5-0.3
		c-0.8-0.1-1.7-0.3-2.5-0.5c-0.7-0.1-1.3-0.2-2-0.4c-1-0.2-2-0.5-3-0.7c-1.1-0.3-2.2-0.6-3.3-0.9c-0.9-0.3-1.8-0.7-2.7-1
		c-1.3-0.5-2.7-0.9-4-1.5c-1.8-0.8-3.5-1.8-5.2-2.7c-3.3-1.8-6.3-3.9-9.1-6.3c-0.5-0.4-1-0.8-1.6-1.2c-0.1,0.2-0.1,0.2-0.1,0.3
		c0,1.6,0,3.2,0,4.9C75,52.5,74.9,52.8,74.9,53.2z M90.3,121.5c-0.2-0.2-0.2-0.3-0.3-0.4c-1.7-1.7-3.5-3.4-5.2-5.2
		c-2.7-3-5.3-6.1-7.5-9.4c-1.8-2.7-3.4-5.5-4.8-8.4c-0.7-1.5-1.2-3-1.8-4.5c-0.1-0.2-0.3-0.6-0.5-0.5c-0.6,0-1.1,0.2-1.7,0.3
		c-0.9,0.1-1.8,0.3-2.7,0.2c-0.5,0-1-0.5-1.4-0.9c-0.6-0.7-0.4-1.4,0.4-2.2c0.4-0.4,0.5-0.7-0.1-0.9c-0.7-0.3-1.4-0.5-2.1-0.8
		c-1.6-0.7-2-0.4-2,1.3c0,0.2,0,0.4,0,0.6c-0.1,0.3-0.1,0.6-0.3,0.8c-0.7,0.8-2.4,0.9-3.3,0.6c-1.1-0.4-1.4-1.3-1.5-2.4
		c0-0.5-0.2-0.7-0.6-0.7c-0.4,0-0.8,0-1.1-0.1c-1.5-0.5-3.1-0.6-4.6-0.5c-0.8,0.1-1.8,0.1-2.5,0.5c-2.5,1.3-5,2.8-7.5,4.2
		c-2.7,1.5-5.4,3-8,4.5c-0.8,0.4-1.4,1-1.4,2.1c0,7,0,14,0,21c0,0.8,0.2,1,1,1c4,0,8,0,12,0c15.5,0,31,0,46.5,0
		C89.6,121.7,89.9,121.6,90.3,121.5z M162.5,79.8c0.9-0.1,1.1-0.8,1.4-1.4c0.8-1.6,2.3-2.1,3.9-2.5c-1,1.2-3,1.4-3.5,3.2
		c0.7,0.3,1-0.1,1.5-0.4c0.7-0.6,1.6-1.2,2.4-1.8c0.1-0.1,0.4,0.1,0.5,0.1c-0.1,0.2-0.1,0.4-0.2,0.5c-0.6,0.5-1.2,0.9-1.9,1.3
		c-0.3,0.2-0.5,0.4-0.3,0.7s0.5,0.2,0.8,0c0.7-0.5,1.5-0.8,2.3-1.2c0.1,0.1,0.1,0.2,0.2,0.2c-0.2,0.2-0.3,0.5-0.5,0.6
		c-0.6,0.4-1.2,0.7-1.8,1.1c-0.2,0.1-0.2,0.5-0.2,0.7c0.3,0,0.6,0.1,0.8,0c0.7-0.3,1.3-0.8,2-1.1c0.1-0.1,0.3,0,0.5,0
		c0,0.2,0,0.4-0.1,0.6c0,0.1-0.2,0.1-0.3,0.2c-0.8,0.5-1.6,0.9-2.4,1.4c-0.3,0.2-0.5,0.6-0.7,0.9c0.1,0.1,0.1,0.2,0.2,0.3
		c0.5-0.1,1.1-0.1,1.5-0.4c0.9-0.5,1.6-1.1,2.5-1.6c0.2-0.1,0.5,0,0.8,0c-0.2,0.2-0.3,0.5-0.5,0.7c-0.5,0.3-1.1,0.5-1.5,0.8
		c-0.2,0.1-0.3,0.5-0.5,0.7c0.4,0.1,0.8,0.3,1,0.2c0.6-0.2,1.2-0.7,1.8-1c0.3-0.2,0.7-0.3,1-0.5c0.1,0.1,0.1,0.1,0.1,0.2
		c-0.2,0.2-0.3,0.5-0.6,0.6c-0.5,0.3-1.1,0.6-1.6,0.9c-0.1,0.1-0.2,0.3-0.2,0.5c0.2,0.1,0.4,0.3,0.6,0.2c0.7-0.2,1.4-0.5,2-0.8
		c0.4-0.2,0.8-0.3,1.3-0.4c0.1,0.1,0.1,0.2,0.1,0.4c-1.2,0.6-2.4,1.1-3.6,1.7c1.6,0.2,3,0.1,4.4-0.6c0.3-0.2,0.6-0.2,0.9-0.3
		c0,0.1,0.1,0.2,0.1,0.3c-0.2,0.2-0.4,0.3-0.6,0.4c-1.4,0.7-3,0.9-4.6,1c-0.6,0.1-0.7,0.3-0.6,0.8c2.9,0.3,5.6-0.5,8.2-1.8
		c-0.1,0.4-0.3,0.6-0.6,0.8c-1.8,1-3.8,1.5-5.8,1.7c-0.9,0.1-1.8,0.1-2.6,0.1c-0.3,0-0.6,0.2-0.9,0.4c0,0.1,0,0.2,0.1,0.2
		c0.4,0.1,0.7,0.3,1.1,0.3c1.7,0,3.4,0.1,5-0.5c1.6-0.7,3.3-1.2,5-1.8c1.2-0.4,2.4-0.9,3.6-1.2c1-0.3,2.1-0.5,3.2-0.8
		c0.6-0.1,1.3-0.3,1.9-0.4c1-0.1,1.9-0.2,2.9-0.3c0.4-0.1,0.8-0.1,1.2-0.3c0.3-0.2,0.6-0.5,0.7-0.8c0.2-0.9,0.3-1.8,0.3-2.7
		c-0.1-3.2-0.1-6.3-0.3-9.5c-0.1-1.9-0.3-3.9-1-5.8c-0.1-0.3-0.4-0.8-0.7-0.9c-0.5,0-1.1,0.2-1.6,0.3c-0.1,0-0.2,0.4-0.1,0.6
		c0.1,0.4,0.2,0.8,0.4,1.2c0.4,1.3,0.1,2.5-0.9,3.5c-1,0.9-2.1,1.4-3.5,1.4c-0.9,0-1.8-0.1-2.7-0.3c-1.5-0.2-2.9-0.5-4.4-0.8
		c-0.3-0.1-0.6-0.2-0.9-0.3c-0.4-0.1-0.8-0.2-0.9,0.2c-0.1,0.2,0.2,0.6,0.4,0.8c0.8,0.7,0.8,1,0.2,1.9c-0.3,0.4-0.7,0.8-1,1.3
		c-0.1,0.2-0.1,0.6,0,0.8c0.2,0.3,0.5,0.4,0.9,0.2c0.3-0.2,0.7-0.5,1.1-0.7c0.2-0.1,0.4,0,0.7,0.1c0,0.2,0,0.4-0.1,0.6
		c-0.4,0.8-2.3,1.1-3.1,0.5c-0.6-0.5-0.8-1.4-0.3-2.1c0.7-1.1,0.7-1.1-0.4-1.7c0,0-0.1-0.1-0.1-0.1c0.2-0.4,0.4-0.8,0.6-1.3
		c0.5-1,1.1-1.2,2.1-0.9c0.8,0.2,1.6,0.3,2.3,0.4c0-0.1,0-0.1,0.1-0.2c-0.2-0.4-0.5-0.7-0.8-1.1c0.1-0.1,0.1-0.1,0.2-0.2
		c1.2,0.1,1.6,1.7,2.9,1.5c-0.2-0.8-0.6-1.6-0.6-2.5c0-0.8,0.2-1.6,0.4-2.4c-0.3-0.1-0.4-0.1-0.6-0.1c-1.4,0-2.8,0-4.1,0.1
		c-1.2,0.1-2.4,0.4-3.6,0.6c-1.5,0.4-2.9,0.8-4.5,0.3c-1.6-0.5-2.6-1.4-3.1-3c-0.2-0.6-0.1-1.3-0.2-2.1c-0.3,0.3-0.6,0.4-0.7,0.7
		c-0.8,1.8-0.4,3.2,1.2,4.2c0.9,0.6,1.9,0.9,3,1.1c0.2,0,0.3,0.2,0.5,0.3c0,0.1-0.1,0.2-0.1,0.3c-0.7-0.1-1.4-0.2-2.1-0.4
		c-1.7-0.4-3.1-1.3-3.6-3.2c-0.1-0.4-0.1-0.8-0.2-1.2c0-0.1-0.2-0.3-0.3-0.3c-0.1,0-0.3,0.1-0.4,0.2c-0.1,0.7-0.4,1.3-0.3,2
		c0.2,1.8,1.6,2.5,3.2,3c0.7,0.2,1.4,0.4,2.1,0.7c-1.4,0.6-2.6,0.1-3.8-0.4c-1.8-0.9-2.4-2.5-2.4-4.5c-0.3,0.1-0.6,0-0.6,0.2
		c-0.4,0.5-0.6,1.1-0.4,1.8c0.3,1.5,1.3,2.5,2.6,3c1,0.4,2.2,0.6,3.2,0.9c0.2,0.1,0.4,0.2,0.6,0.3c0,0.1-0.1,0.2-0.1,0.2
		c-2.4,0.1-4.4-0.8-6.2-2.3c0,1.3,1.4,2.9,2.7,3.1c1,0.1,2,0.2,3,0.3c0.4,0,0.5,0.2,0.4,0.5c-1.2,0-2.3,0-3.6,0
		c0.3,0.2,0.5,0.5,0.8,0.6c0.7,0.2,1.4,0.3,2.2,0.5c0.5,0.1,0.8,0.4,0.8,0.9c0,0.5-0.3,0.8-0.7,0.9c-1,0.4-2.1,0.8-3.1,1.3
		c-1.8,0.9-2.9,2.4-3.5,4.3c-0.2,0.7-0.2,1.5-0.1,2.1c0.3,1.5,2.8,2.8,4.6,1.8c0.7-0.3,1.2-1.2,1.1-1.7c-0.1-0.6-0.9-1.4-1.5-1.5
		c-0.7-0.1-1.7,0.4-2,0.9c-0.1,0.1-0.1,0.4,0,0.5c0.3,0.3,0.6,0.6,1,0.6c0.3,0,0.6-0.4,0.9-0.6c0.2-0.1,0.4-0.2,0.6-0.3
		c0,0.2,0.1,0.5,0,0.7c-0.2,0.7-0.9,0.9-1.5,0.9c-0.7,0-1.4-0.1-1.7-0.9c-0.2-0.6-0.4-1.3-0.3-1.9c0.3-2.4,2.9-5.1,5.2-5.6
		c0.2,0,0.5,0.1,0.7,0.2c-0.1,0.2-0.2,0.4-0.4,0.5c-1.5,0.8-3.1,1.6-4.1,3C162.7,78.6,162.4,79.1,162.5,79.8z M70.7,63.4
		c0-0.1,0-0.2,0-0.2c-1-0.3-2-0.8-3.1-0.4c-0.3,0.1-0.7,0.1-1,0.2c-0.9,0.2-1.8,0.4-2.7,0.7c-1,0.3-2,0.8-3,1.2
		c-1.1,0.4-2.2,0.8-3.4,1.2c-1.2,0.4-2.4,0.8-3.6,1c-2.2,0.4-4.4,0.8-6.6,1.1c-0.6,0.1-0.8,0.5-0.9,1C46.1,70.1,46,71,46,72
		c0,2.7,0,5.5,0.2,8.2c0.1,2.1,0.5,4.3,0.8,6.4c0.2,1.3,0.6,1.5,1.8,1.1c0.9-0.3,0.9-0.3,0.6-1.2c-0.8-2.1-0.1-4.2,1.8-5.1
		c1.1-0.6,2.3-0.6,3.5-0.4c2.4,0.2,4.8,0.4,7.1,1.3c0.2,0.1,0.5-0.2,0.8-0.3c-0.1-0.2-0.2-0.4-0.3-0.6c-0.7-0.7-1-1.3-0.2-2.2
		c0.3-0.4,0.7-0.8,0.9-1.3c0.1-0.2,0-0.6-0.2-0.8c0-0.1-0.5-0.1-0.6,0c-0.5,0.3-0.9,0.6-1.3,0.9c-0.6-0.4-0.7-0.8-0.2-1.2
		c0.4-0.3,0.8-0.5,1.3-0.6c0.6-0.2,1.7,0.1,2,0.6c0.5,0.6,0.5,1.3,0.1,2c-0.2,0.3-0.3,0.5-0.5,0.8c-0.2,0.4-0.1,0.7,0.3,0.7
		c0.7,0,0.6,0.4,0.5,0.8c-0.4,1.8-2,1.9-3.5,1.6c-0.5-0.1-0.9-0.5-1.3-0.1c0,0.5,0.8,0.7,0.3,1.4c-0.8-0.6-1.7-1.2-2.5-1.8
		c-0.1,0.1-0.1,0.1-0.2,0.2c0.1,0.2,0.1,0.5,0.2,0.7c0.6,1.2,0.7,2.3,0.1,3.5c-0.3,0.5,0.1,0.6,0.5,0.6c1.4,0,2.8,0.1,4.2,0
		c1.3-0.1,2.6-0.3,3.8-0.7c1.3-0.4,2.6-0.7,3.9-0.4c1.3,0.3,2.8,1.2,3.2,2.8c0.2,0.7,0.3,1.5,0.4,2.4c0.2-0.1,0.5-0.2,0.7-0.4
		c0.4-0.6,0.6-1.3,0.5-2.1c-0.4-1.7-1.7-2.5-3.2-3c-0.7-0.3-1.4-0.4-2.2-0.7c1.4-0.7,2.5,0,3.6,0.5c1.8,0.9,2.6,2.4,2.7,4.4
		c0.2-0.1,0.3-0.1,0.4-0.1c1.1-0.8,0.5-3.3-0.4-4c-0.9-0.7-1.9-1.2-3-1.4c-0.5-0.1-0.9-0.4-1.4-0.6c1.6-0.6,2.9,0.1,4.2,0.8
		c1.7,1,2,2.7,2.1,4.5c0.6-0.4,1.1-0.7,1.1-1.5c0.1-2.1-1.6-3.5-3.2-4c-1.1-0.3-2.1-0.6-3.2-0.9c0-0.1,0-0.2,0.1-0.2
		c0.1-0.1,0.2-0.1,0.4-0.1c2.3-0.1,4.2,0.9,6.2,2.4c-0.1-0.4-0.1-0.5-0.1-0.7c-0.6-1.6-2.3-2.7-4-2.7c-0.5,0-0.9,0.1-1.4,0
		c-0.3-0.1-0.6-0.3-0.9-0.4c0-0.1,0.1-0.2,0.1-0.2c1.2-0.6,2.4,0.3,3.6,0c-0.1-0.2-0.2-0.4-0.3-0.4c-0.8-0.2-1.6-0.5-2.4-0.6
		c-0.7-0.1-0.9-0.4-0.9-0.9c0-0.5,0.2-0.9,0.8-1.1c0.7-0.2,1.4-0.3,2-0.6c1-0.6,2.1-1.2,2.9-2c0.9-0.9,1.5-2.2,1.8-3.5
		c0.2-0.7,0.1-1.4-0.4-2c-0.9-1.2-2.4-2-4.1-1.3c-0.5,0.2-1,0.9-1.2,1.4c-0.2,0.7,0.3,1.2,0.9,1.5c0.6,0.2,1.4,0.3,1.9-0.2
		c0.2-0.2,0.5-0.6,0.4-0.8c-0.1-0.3-0.4-0.7-0.7-0.8c-0.2-0.1-0.6,0.2-0.8,0.4c-0.1,0.1-0.1,0.3-0.2,0.3c-0.2,0.1-0.3,0.2-0.5,0.3
		c-0.1-0.2-0.2-0.4-0.2-0.6c0-0.2,0.1-0.4,0.2-0.6c0.6-0.7,1.4-0.5,2.1-0.5c0.6,0.1,0.9,0.5,1.1,1.1c0.5,1.8,0,3.3-1.1,4.7
		c-0.9,1-2,1.7-3.2,2.3c-0.5,0.3-1,0.3-1.6,0.1c0.2-0.3,0.4-0.5,0.7-0.6c1.2-0.6,2.4-1.1,3.4-2.2c0.6-0.6,1.2-1.2,1-2.3
		c-0.3,0.2-0.7,0.3-0.8,0.6c-0.5,1.5-1.7,2.3-3,3c-0.5,0.2-1.1,0.7-1.8,0.2c0.2-0.2,0.3-0.3,0.5-0.4c0.9-0.6,1.8-1.1,2.7-1.7
		c0.3-0.2,0.5-0.6,0.7-1c-0.1-0.1-0.2-0.2-0.3-0.2c-0.5,0.3-1,0.7-1.5,1.1c-0.8,0.7-1.5,1.5-2.8,1.1c0.1-0.2,0.3-0.3,0.6-0.4
		c0.5-0.3,1.1-0.7,1.6-1.1c0.3-0.2,0.9-0.4,0.6-0.9c-0.4-0.6-0.7,0.1-1,0.2c-0.8,0.4-1.5,0.9-2.6,0.8c0.2-0.2,0.3-0.3,0.4-0.4
		c0.8-0.5,1.6-0.9,2.3-1.4c0.1-0.1,0.2-0.4,0.2-0.6c-0.2,0-0.5-0.2-0.7-0.1c-0.7,0.3-1.3,0.8-2,1.1c-0.2,0.1-0.5-0.1-0.7-0.2
		c0.1-0.2,0.2-0.4,0.3-0.5c0.5-0.3,1.1-0.6,1.6-0.8c0.7-0.4,1.4-0.8,1.6-1.5c-0.5-0.6-0.9-0.4-1.4-0.1c-0.3,0.2-0.5,0.5-0.8,0.7
		c-0.6,0.4-1.2,0.8-1.8,1.1c-0.2,0.1-0.7,0-0.8-0.2c-0.2-0.3,0.1-0.5,0.4-0.6c0.5-0.2,1-0.5,1.4-0.8c0.3-0.2,0.5-0.5,0.7-0.7
		c-0.3-0.1-0.7-0.1-1-0.2c-0.1,0-0.3,0.1-0.4,0.1c-0.6,0.3-1.2,0.7-1.8,1.1c-0.2,0.1-0.4,0-0.6,0c0-0.2,0-0.6,0.1-0.6
		c0.5-0.3,1-0.6,1.5-0.9c0.2-0.1,0.3-0.4,0.5-0.6c-0.2-0.1-0.5-0.2-0.8-0.2c-0.8,0.2-1.5,0.6-2.3,0.8c-0.4,0.1-0.8,0.2-1.1,0.3
		c0-0.1-0.1-0.2-0.1-0.3c1.2-0.6,2.5-1.1,3.8-1.7c0-0.1-0.1-0.1-0.1-0.2c-0.7,0-1.4-0.1-2,0c-0.9,0.3-1.7,0.8-2.6,1.1
		c-0.2,0.1-0.5-0.1-0.7-0.1c0.1-0.2,0.1-0.5,0.3-0.5c1.2-0.7,2.5-1.1,3.9-1.1c0.4,0,0.9-0.1,1.3-0.2c0.1,0,0.2-0.3,0.3-0.4
		c-0.1-0.1-0.3-0.3-0.4-0.3c-0.9,0-1.9,0-2.8,0.2c-1.6,0.3-3.1,0.8-4.4,1.8c-0.1,0.1-0.4-0.1-0.7-0.1c0-0.2,0-0.5,0.1-0.6
		c1.1-0.5,2.2-1.2,3.4-1.4c1.8-0.4,3.6-0.4,5.4-0.6C70.1,63.7,70.4,63.5,70.7,63.4z M195.6,95.4c0,1.8,0,3.5,0,5.2c0,2-0.2,2,2,1.9
		c1.1,0,2,0.5,2.8,1.2c0.7,0.8,0.8,2.1,0.1,2.6c-0.7,0.5-1.4,0.8-2.3,0.9c-0.8,0-1.1,0.4-0.9,1.2c0.4,1.7-0.1,3.2-0.8,4.6
		c-0.8,1.8-2.2,3.2-2.6,5.2c-0.1,0.2-0.3,0.5-0.4,0.7c-0.8,1-1.9,1.2-3.1,1.1c-1.7-0.1-2.9-1.3-2.9-3c0-1.1,0-1.1-1-1.3
		c-1.6-0.2-3-1.1-4.7-0.8c-0.5,0.1-1,0.2-1.5,0.4c-1.1,0.7-2.3,1-3.6,0.2c-0.6-0.4-1.3-0.4-2-0.3c-1.1,0.3-2.2,0.7-3.3,1
		c-1.7,0.5-3.3,1.2-4.8,2.2c-0.9,0.6-1.2,1.4-1.3,2.4c-0.1,0.5,0.2,0.8,0.7,0.9c0.2,0,0.5,0,0.7,0c11,0,22,0,33,0c3.2,0,6.4,0,9.5,0
		c0.9,0,1-0.1,1-1c0-4.6,0-9.2,0.1-13.8c0-1.2-0.4-1.9-1.3-2.5c-3.9-2.6-7.8-5.3-11.7-8C196.7,96.1,196.2,95.8,195.6,95.4z
		 M44.1,56.2c0-1.9,0-3.5,0-5.2c0-0.2,0-0.4,0-0.6c0-0.7-0.4-0.8-1-0.9c-1.1-0.1-2.2,0-3.2-0.7c-1.3-0.9-1.7-3.2,0.1-4
		c0.5-0.2,1.2-0.3,1.7-0.3c0.7,0,0.8-0.3,0.8-0.9c0-0.8-0.1-1.6,0-2.3c0.3-2.1,1.3-3.8,2.7-5.5c0.2-0.3,0.4-0.8,0.5-1.2
		c0.1-0.8,0.3-1.6,1-2c1.3-0.8,2.8-1.1,4.2-0.3c1,0.5,1.9,1.3,1.6,2.9c-0.1,0.6,0.3,0.8,0.8,0.9c1,0.3,2,0.6,3.1,0.8
		c1,0.1,2.1,0.3,3-0.2c1.4-0.9,2.8-1,4.3-0.2c0.4,0.2,1,0.3,1.4,0.2c1.9-0.6,3.9-1.2,5.8-1.9c1.2-0.5,2.3-1.2,3.4-1.9
		c0.5-0.3,0.7-1.3,0.4-1.9c-0.3-0.6-0.8-0.5-1.3-0.4c-0.1,0-0.2,0-0.3,0c-2.9,0-5.9,0-8.8,0c-5.8,0-11.7,0-17.6,0.1
		c-5.3,0-10.6,0-15.8,0c-0.8,0-1.1,0.3-1.1,1.1c0,0.1,0,0.2,0,0.3c0,4.5,0,9,0,13.4c0,0.8,0.3,1.4,1,1.8c3.5,2.4,7,4.8,10.5,7.2
		C42.1,54.9,43,55.5,44.1,56.2z M39.1,75.5c1,0.9,1.3,1.5,0.7,2.5c-0.6,1-0.6,1.8,0,2.7c0.4,0.6,0.3,1.3-0.2,1.9
		c-0.3,0.3-0.7,0.4-0.8-0.2c-0.3-0.8-0.9-1.3-1.7-1.3c-0.9,0-1.7,0.3-2,1.3c-0.1,0.3-0.5,0.6-0.9,0.9c-0.3,0.2-0.7,0.2-1,0.4
		c-0.5,0.3-0.7,1.1-0.5,1.8c0.2,0.6,0.6,0.9,1.3,0.9c0.6-0.1,1.2,0.2,1.4,0.7c0.5,1.3,1.4,1.1,2.6,0.8c0.8-0.2,1.2-0.9,1.5-1.7
		c0.2,0.3,0.4,0.7,0.4,1c0,0.9-0.3,1.8,0.4,2.7c0.1,0.2,0,0.6-0.1,0.8c0,0.1-0.5,0-0.7-0.1c-0.3-0.1-0.6-0.1-0.8-0.2
		c-1-0.6-1.7,0.1-2,0.9c-0.2,0.6-0.6,1.1-1.2,1.4c-0.9,0.4-0.9,0.9-0.2,1.7c0.8-0.6,1.8-0.8,2.2-1.8c0-0.1,0.4-0.2,0.6-0.3
		c0.5-0.2,1-0.2,1.5-0.4c2.3-1.2,2.2-1.2,2.3-3.6c0-2-2.2-3.3-3.7-3c-0.3,0.1-0.6,0.2-0.9,0.2c-0.5,0-0.8-0.2-0.8-0.7
		c0-0.5,0.1-0.9,0.7-0.9c0.4,0,0.8,0,1.2-0.1c0.4-0.1,0.9-0.1,1.2-0.3c0.5-0.3,1-0.7,1.4-1.1c1.5-1.6,2-3.6,0.7-5.3
		c-1.2-1.5-2.6-2.7-4.7-2.3c-0.2,0-0.4,0-0.5,0c-0.5,0-0.7-0.2-0.7-0.7c0-0.5,0.1-0.8,0.6-0.8c0.3,0,0.7,0,1,0.1
		c0.9,0.3,1.8,0.2,2.5-0.3c0.6-0.4,1.2-0.9,1.8-1.5c0.7-0.8,1.2-1.7,1.1-2.8c-0.2-1.3-1-2.4-1.9-3.3c-0.9-0.8-2-1-3.1-0.8
		c-0.5,0.1-1,0-1.1-0.5c-0.1-0.4-0.1-1,0.2-1.2c0.2-0.2,0.8-0.2,1.2-0.2c0.3,0,0.5,0.2,0.8,0.3c0.6,0.2,1.2,0.2,1.8-0.1
		c1.2-0.6,2-1.5,2.4-2.7c0.3-0.8,0.4-1.7,0.5-2.6c0.1-0.8-0.7-1-1.2-1.4c-0.6-0.6-1.3-1-2.3-0.9c-0.5,0.1-1-0.2-1.1-0.7
		c-0.1-0.9-0.7-1.3-1.3-1.7c-0.9-0.6-1.2-0.5-1.6,0.5c-0.2,0.4-0.2,0.7,0.1,1c0.3,0.3,0.6,0.6,1,0.7c0.5,0.2,0.6,0.5,0.4,1
		c-0.3,1,0.3,1.8,1.4,1.9c0.8,0.1,1.4-0.3,2-0.7c0.4-0.3,0.8-0.3,0.9,0.2c0.1,0.4,0.1,0.9-0.1,1.2c-0.6,0.8-0.7,1.7-0.7,2.7
		c0,0.4-0.1,0.9-0.8,0.7c0-0.1,0-0.2-0.1-0.3c0-1-0.8-1.3-1.5-1.6c-0.5-0.2-1,0.2-1.4,0.5c-0.4,0.3-0.8,0.6-1.3,0.8
		c-0.5,0.2-1.2,0.2-1.7,0.5c-0.4,0.2-0.7,0.8-0.8,1.2c-0.2,0.5,0.2,0.9,0.7,1c0.6,0.2,1.1,0.3,1.7,0.5c0,0.3,0,0.6,0,0.9
		c0,0.6,0.3,0.8,0.8,1c1,0.3,1.9,0,2.5-0.9c0.2-0.3,0.4-0.5,0.7-0.7c1.2,1.2,1.2,1.7,0.5,3c-0.3,0.7-0.4,1.3-0.2,2.1
		c0.3,1.4-0.1,2.2-1.3,2.5c-0.1-0.2-0.2-0.4-0.3-0.7c-0.3-0.8-0.9-1.2-1.8-1.2c-0.7,0-1.3,0.4-1.6,1.1c-0.3,0.6-0.7,0.9-1.4,1
		c-1,0.2-1.4,0.7-1.3,1.6c0.1,0.7,0.6,1.2,1.5,1.1c0.6,0,0.9,0.2,1.1,0.7c0.4,0.9,1.1,1.3,2.1,1.2c0.9-0.1,1.3-0.6,1.7-1.3
		C38.9,76,39,75.8,39.1,75.5z M200.2,86.7c-1.2-1.2-1.2-1.7-0.6-3.1c0.3-0.7,0.4-1.3,0.2-2.1c-0.3-1.4,0.1-2.2,1.3-2.5
		c0.1,0.3,0.2,0.5,0.3,0.8c0.3,0.8,0.9,1.1,1.6,1.1c0.7,0,1.3-0.2,1.6-0.9c0.3-0.8,0.9-1.1,1.6-1.2c0.9-0.2,1.2-0.7,1.1-1.6
		c-0.1-0.7-0.6-1.1-1.5-1.1c-0.6,0-0.9-0.2-1.1-0.8c-0.4-0.9-1.1-1.2-2-1.2c-0.9,0-1.4,0.6-1.7,1.3c-0.1,0.2-0.2,0.4-0.3,0.6
		c-1.1-0.8-1.3-1.7-0.6-2.7c0.5-0.8,0.5-1.4,0.1-2.1c-0.4-0.6-0.5-1.3,0-2c0.1-0.2,0.4-0.4,0.6-0.4c0.2,0,0.4,0.3,0.4,0.5
		c0.3,0.7,0.9,1.2,1.6,1.1c0.8-0.1,1.6-0.2,1.9-1.1c0.3-0.8,0.8-1.1,1.5-1.3c0.9-0.3,1.1-0.8,1-1.8c-0.1-0.6-0.6-1-1.4-1
		c-0.7,0-1.1-0.3-1.5-0.9c-0.2-0.3-0.6-0.7-0.9-0.8c-1.2-0.4-2.4,0.3-2.8,1.5c0,0.1-0.1,0.2-0.2,0.3c-0.1,0-0.1,0-0.2,0
		c-0.1-0.3-0.2-0.7-0.3-1c-0.1-0.7,0.3-1.5-0.2-2.2c-0.2-0.4-0.2-0.9-0.4-1.5c0.5,0.1,0.9,0.2,1.2,0.3c1.2,0.3,1.9,0.7,2.6-1
		c0.2-0.4,0.6-0.8,1-1.1c0.9-0.6,1-0.8,0.2-1.8c-0.5,0.4-1.2,0.7-1.6,1.2c-0.6,0.8-1.3,0.9-2.1,1.1c-1.2,0.2-2.2,0.9-2.8,2
		c-0.7,1.4-0.1,2.7,0.7,3.7c0.8,0.9,1.9,1.6,3.4,1c0.6-0.2,1.2,0.1,1.3,0.5c0.2,0.7-0.1,1-0.9,1.1c-0.3,0.1-0.6,0-0.9,0
		c-0.4,0.1-0.9,0.1-1.3,0.3c-0.5,0.3-1,0.7-1.4,1.1c-1.6,1.6-2,3.6-0.6,5.3c1.2,1.5,2.6,2.7,4.7,2.3c0.2,0,0.4,0,0.6,0
		c0.4,0,0.6,0.2,0.7,0.6c0,0.4,0,0.8-0.5,0.8c-0.4,0.1-0.8,0.1-1.1,0c-0.9-0.3-1.8-0.2-2.6,0.3c-0.6,0.4-1.3,1-1.8,1.6
		c-0.7,0.7-1.2,1.7-1.1,2.6c0.1,1.4,0.9,2.6,2,3.5c0.9,0.8,1.9,0.9,3.1,0.8c0.5,0,1,0,1.1,0.5c0.1,0.4,0,0.9-0.2,1.2
		c-0.2,0.2-0.7,0.2-1.1,0.2c-0.3,0-0.5-0.3-0.8-0.3c-0.6-0.1-1.2-0.2-1.6,0c-1.7,0.8-2.6,2.2-3,4c-0.1,0.4-0.1,0.8-0.1,1.2
		c0.1,1,1.1,1.4,1.8,1.9c0.4,0.3,0.8,0.7,1.5,0.5c0.6-0.2,1.3,0.2,1.3,0.7c0.1,0.9,0.6,1.3,1.3,1.7c1,0.6,1.2,0.5,1.6-0.5
		c0.1-0.3,0-0.7-0.1-0.9c-0.2-0.3-0.5-0.5-0.8-0.7c-0.6-0.3-0.8-0.7-0.5-1.3c0.1-0.2,0-0.6-0.1-0.9c-0.3-0.8-1.9-1.2-3-0.4
		c-0.3,0.2-0.7,0.3-1,0.4c-0.1-0.4-0.2-0.7-0.2-1.1c0-0.2,0-0.3,0.1-0.5c0.6-0.9,0.8-1.8,0.8-2.8c0-0.4,0.2-0.8,0.7-0.6
		c0,0.1,0.1,0.1,0.1,0.2c0,1,0.8,1.3,1.4,1.6c0.6,0.3,1-0.2,1.4-0.5c0.4-0.3,0.8-0.6,1.3-0.8c0.5-0.2,1.2-0.2,1.7-0.5
		c0.4-0.2,0.7-0.8,0.8-1.2c0.2-0.5-0.2-0.8-0.7-1c-0.6-0.2-1.1-0.3-1.8-0.5c0-0.3,0-0.6,0-0.9c0-0.6-0.3-0.9-0.7-1
		c-1-0.4-2,0-2.6,0.9C200.7,86.2,200.5,86.4,200.2,86.7z M165.5,98.8c-0.4,1,0.4,1.2,0.9,1.4c2.4,1.2,4.8,2.3,7.2,3.5
		c0.8,0.3,1.5,0.8,2.4,0.7c0.4-0.1,0.7-0.2,1-0.3c1.4-0.2,2.6,0.1,3.8,0.9c0.2,0.1,0.6,0.2,0.8,0c0.3-0.3,0.1-0.5-0.2-0.8
		c-0.8-0.7-1-1.8-0.6-2.7c0.5-1.1,1.4-1.4,2.5-1.5c1-0.1,1.5,0.6,1.9,1.4c0.1,0.2,0.2,0.5,0.4,0.7c0.2,0.3,0.4,0.7,0.6,0.7
		c0.4,0,0.9-0.2,0.9-0.8c0-0.4,0.1-0.7,0.1-1.1c0-2-0.1-4-0.1-6.1c0-0.6-0.4-0.7-1-0.5c-0.5,0.2-0.9,0.3-1.4,0.5
		c-2.2,0.6-4.3,1.3-6.3,2.4c-1.5,0.8-3.1,1.7-4.8,2c-2.1,0.4-4.3,0.6-6.4-0.2C166.6,98.9,166.1,98.9,165.5,98.8z M99.7,37.3
		c0.3,0,0.5,0,0.7,0c8.1,0,16.2,0,24.3,0c0.6,0,0.8-0.3,0.8-0.8c0-1.6,0-3.3,0-4.9c0-0.7-0.3-0.9-0.9-0.9c-5.6,0-11.2,0-16.8,0
		c-0.9,0-1.7,0.4-2.2,1.3c1.2,0.4,1.2,0.4,1.2,1.6c0,0.5,0,1,0,1.5c0,0.5-0.1,0.8-0.7,0.8c-0.6,0-1.1,0-1.1-0.8c0-0.4,0-0.7,0-1.1
		c0-0.5,0-1,0-1.5c-1,0.6-1.1,0.7-1.1,2.3c0,1.1-0.7,1.4-1.6,1c-0.1-0.1-0.4,0-0.6,0C101,36.3,100.4,36.8,99.7,37.3z M140.8,57.8
		c0.1,0.6,0.1,1,0.1,1.5c0,0.4-0.2,0.7-0.2,1.1c0,0.2,0,0.5,0.1,0.7c0.3-0.1,0.7,0,0.9-0.2c0.2-0.2,0.4-0.5,0.5-0.7
		c0.5-1.3,0.3-2.7,0.2-4c-0.1-0.5-0.4-1.1-0.7-1.6c-1.2-1.5-3.1-1.6-4.8-1.9c-1.3-0.2-2.7,0.2-4,0.5c-1.2,0.3-2.1,0.9-2.4,2.3
		c-0.1,0.3,0,0.7-0.1,1c-0.2,1.4-0.2,2.8,0.3,4.2c0.2,0.5,0.5,0.7,1,0.6c0.5-0.1,0.7-0.5,0.7-0.9c0-0.4-0.1-0.7-0.1-1.1
		c-0.1-0.5,0.2-0.7,0.6-0.7c0.2,0,0.5,0.4,0.5,0.6c0.1,0.9,0,1.9,0,2.8c0,0.3,0,0.6,0.1,0.8c0.2,0.2,0.5,0.5,0.8,0.5
		c0.2,0,0.5-0.4,0.5-0.6c0.1-0.6,0-1.3,0-1.9c0-0.3-0.1-0.7,0-1c0.1-0.3,0.4-0.5,0.6-0.7c0.1,0.2,0.4,0.5,0.4,0.8
		c0,0.5-0.1,1.1-0.1,1.6c-0.1,0.8-0.1,1.6-0.1,2.5c0,0.5,0.5,0.8,0.9,0.5c0.3-0.2,0.6-0.7,0.6-1c0.1-0.9,0.1-1.8,0.2-2.8
		c0-0.4,0.1-0.9,0.2-1.3c0.4,0,0.6,0,1,0c0,0.6,0,1.1-0.1,1.6c-0.1,0.7-0.2,1.3-0.3,2c0,0.2,0.1,0.5,0.2,0.6c0.2,0.1,0.5,0,0.7-0.1
		c0.2-0.2,0.4-0.5,0.4-0.8c0.1-0.8,0.1-1.7,0.2-2.5C139.6,59.2,139.8,58.4,140.8,57.8z M105,92.7c-0.9,0.1-1.1-0.3-1-1.3
		c0.1-1.3,0.1-2.6,0.2-3.9c-1.1-0.2-1.2-0.1-1.3,0.8c-0.1,0.9-0.1,1.7-0.1,2.6c0,0.4,0,0.8-0.2,1.1c-0.1,0.2-0.4,0.4-0.6,0.5
		c-0.1,0-0.4-0.3-0.4-0.5c-0.1-0.4,0-0.8,0.1-1.2c0.1-0.6,0.3-1.2,0.3-1.9c0-0.3-0.3-0.6-0.4-0.8c-0.3,0.2-0.7,0.2-0.8,0.5
		c-0.2,0.4-0.4,1-0.4,1.5c-0.1,0.8,0,1.6,0,2.4c0,0.5-0.5,1.2-0.8,1.2c-0.7-0.2-0.4-0.8-0.4-1.2s0.2-0.8,0.3-1.3
		c0-0.2-0.1-0.4-0.2-0.5c-0.1-0.1-0.4,0-0.5,0.1c-0.3,0.4-0.8,0.7-0.9,1.2c-0.2,1.1-0.3,2.1-0.3,3.2c0.1,1.3,0.7,2.4,2,3.1
		c1.3,0.6,2.6,0.9,3.9,0.8c1.3,0,2.6-0.1,3.8-0.4c1.2-0.3,2.1-1,2.3-2.3c0.2-1.7,0.4-3.4-0.3-5c-0.1-0.3-0.5-0.6-0.8-0.6
		c-0.2,0-0.6,0.4-0.7,0.7c-0.1,0.4,0,0.9-0.2,1.3c-0.1,0.3-0.3,0.5-0.5,0.8c-0.2-0.3-0.4-0.5-0.5-0.8c-0.1-1.1,0-2.2,0-3.2
		c0-0.5-0.1-1-0.8-1c-0.6,0-0.8,0.4-0.8,1C105.1,90.4,105,91.6,105,92.7z M43.1,89.8c1-0.5,1.7-1,2.5-1.4c0.7-0.3,0.7-0.9,0.6-1.5
		c-0.8-3.3-1.2-6.7-1.2-10.1c0-2.3,0.1-4.7,0.3-7c0.1-1.4,0.3-2.8,0.5-4.1c0.3-2,0.7-3.9,1-5.8c0-0.2,0-0.6-0.2-0.8
		c-0.8-0.6-1.6-1.1-2.5-1.7c0.1,0.6,0.2,1,0.2,1.3c0.3,1.5,0,2.7-1.3,3.6c-0.6,0.4-1.2,0.7-1.9,1c-0.7,0.3-0.7,0.6-0.2,1.1
		c0.7,0.7,1.4,1.3,2,2c1.5,1.9,1.6,3.9-0.4,5.6c-0.9,0.7-1.8,1.3-2.9,2c0.6,0.5,1.2,0.9,1.8,1.4c1.3,1,2.3,2.2,2.1,4
		c-0.1,1.2-0.8,2-1.5,2.8c-0.5,0.6-1.1,1-1.7,1.6c-0.3,0.3-0.5,0.6,0.1,0.8c0.5,0.2,0.9,0.5,1.3,0.8c1.1,0.7,1.5,1.7,1.4,3
		C43.3,88.9,43.2,89.3,43.1,89.8z M196.6,61.9c-1,0.6-1.9,1-2.7,1.5c-0.2,0.1-0.3,0.6-0.2,0.8c0.8,3.4,1.2,6.9,1.3,10.4
		c0,1.5-0.1,3-0.1,4.6c-0.1,1.5-0.1,2.9-0.3,4.4c-0.4,2.5-0.9,5-1.3,7.6c-0.1,0.4-0.1,1,0.2,1.2c0.6,0.6,1.4,0.9,2.3,1.5
		c-0.1-0.4-0.1-0.7-0.1-1c-0.4-1.4-0.1-2.8,1.3-3.7c0.6-0.4,1.2-0.7,1.8-1c0.7-0.4,0.8-0.6,0.2-1.1c-0.8-0.8-1.7-1.7-2.4-2.6
		c-1.1-1.3-1-3.7,0.5-4.9c1-0.8,2.1-1.4,3.1-2.2c-0.1-0.1-0.2-0.2-0.4-0.3c-0.8-0.7-1.6-1.3-2.4-2c-1.5-1.4-1.6-3.6-0.4-5
		c0.4-0.5,0.9-1,1.4-1.5c0.4-0.4,0.8-0.7,1.2-1.1c0.3-0.3,0.3-0.5-0.1-0.7c-0.5-0.2-0.9-0.5-1.3-0.8c-1-0.6-1.6-1.5-1.5-2.7
		C196.6,63,196.6,62.5,196.6,61.9z M137.2,35.7c0.1,0,0.1-0.1,0.1-0.2c0.2,0.1,0.4,0.2,0.6,0.4c0.7,0.6,1.4,1.1,2,1.8
		c2.1,2.2,4.2,4.3,6.3,6.5c2.3,2.6,4.2,5.6,6,8.5c0.3,0.5,0.7,0.5,1.1,0.3c0.5-0.2,0.5-0.6,0.2-1.1c-1.1-1.8-2.1-3.5-3.2-5.3
		c-1.8-2.8-3.9-5.3-6.3-7.6c-2.9-2.7-5.9-5.2-8.9-7.8c-0.9-0.8-1.9-1.1-3.2-0.8c1.1,1.3,2.8,2,3.7,3.4c-0.3,0.1-0.6,0.2-0.8,0.2
		c0.1,0.2,0.1,0.5,0.2,0.7c0.2,0.3,0.4,0.5,0.6,0.8c1.3,1.8,2.7,3.6,3.9,5.5c0.6,0.9,1,1.9,1.5,2.8c0.2,0.4,0.6,0.6,1.1,0.3
		c0.4-0.3,0.3-0.7,0.1-1c-1.2-2.2-2.4-4.3-4-6.2C137.8,36.6,137.5,36.2,137.2,35.7z M168.3,85.1c-0.4,0.3-0.6,0.6-0.8,0.7
		c-0.4,0.2-0.6,0.6-0.5,1c0.1,0.4,0.4,0.7,0.9,0.7c0.2,0,0.4,0,0.6,0c1,0,1.6-1.1,1.3-2c-0.5-1.5-2.7-1.8-3.9-0.9
		c-0.4,0.3-0.8,0.8-1.1,1.3c-0.2,0.3-0.4,0.4-0.7,0.1c-0.1-0.2-0.3-0.3-0.4-0.4c-1.7-1.5-3.4-2.9-5.2-4.4c-2-1.7-4-3.3-6-5
		c-1.7-1.4-3.4-2.9-5.2-4.3c-1.1-0.9-2.2-1.9-3.3-2.8c-0.4-0.3-0.9-0.9-1.6-0.5c0.6,0.5,1.1,1.1,1.7,1.5c3.8,3.2,7.7,6.5,11.5,9.7
		c2.8,2.3,5.7,4.6,8.5,6.9c0.2,0.1,0.4,0.3,0.4,0.4c0.7,2,2.2,2.8,4.2,3.2c2.2,0.4,4.3,0.1,6.3-0.4c2.1-0.6,4.1-1.6,6.2-2.3
		c1.6-0.6,3.2-1.1,4.8-1.5c1.6-0.4,3.3-0.6,4.9-0.9c0.5-0.1,1.1-0.1,1.6-0.2c0.3-0.1,0.5-0.3,0.7-0.5c-0.2-0.1-0.5-0.3-0.7-0.3
		c-0.6,0-1.2,0.2-1.8,0.3c-1.3,0.2-2.7,0.3-4,0.6c-2.3,0.7-4.6,1.4-6.9,2.2c-2.6,0.9-5.1,2.1-8,2.2c-2.1,0.1-3.9-0.3-5.4-1.7
		c-0.2-0.2-0.5-0.6-0.5-0.9C165.8,85.6,166.6,84.9,168.3,85.1z M103.6,116.7c0,0.1-0.1,0.1-0.1,0.1c-0.2-0.1-0.3-0.1-0.5-0.2
		c-1.3-1.1-2.7-2.2-3.9-3.4c-2.3-2.1-4.4-4.3-6.2-6.9c-1.3-1.9-2.6-3.7-3.9-5.6c-0.3-0.5-0.6-1.1-1-1.6c-0.3-0.4-0.8-0.5-1.2-0.2
		c-0.4,0.2-0.4,0.6-0.1,1c1.1,1.6,2,3.2,3,4.8c2,3.1,4.4,5.8,7.1,8.3c1.8,1.7,3.6,3.3,5.5,4.9c1.3,1.1,2.6,2.1,4,3.1
		c0.7,0.5,1.6,0.6,2.5,0.4c-1.7-1.4-3.3-2.8-4.9-4.2c0-0.1,0.1-0.1,0.1-0.2c0.4,0.2,0.8,0.4,1.2,0.6c0.1,0,0.1-0.1,0.2-0.1
		c-0.1-0.3-0.2-0.6-0.3-0.9c-0.6-0.8-1.4-1.6-1.9-2.4c-1.1-1.6-2.1-3.2-3.2-4.8c-0.4-0.6-0.7-1.3-1.1-2c-0.3-0.5-0.6-0.5-0.9-0.1
		c-0.4,0.5-0.2,0.9,0.1,1.4c1.3,2.7,3,5.1,5.1,7.2C103.2,116.2,103.4,116.5,103.6,116.7z M97.5,44.5c0,0,0,0.1,0,0.1
		c-0.3,0-0.6,0-0.8,0c-1.5,0.3-2.9,0.7-4.4,1.1c-0.9,0.3-1.9,0.5-2.8,1c-1.7,0.8-3.3,1.7-4.9,2.6c-0.7,0.4-1.4,1-2.1,1.5
		c-0.1,0.1-0.1,0.4-0.2,0.7c0.2,0,0.5,0.1,0.7,0.1c0.1,0,0.2-0.1,0.3-0.2c3.5-2.3,7.2-4.3,11.4-5.2c1.7-0.4,3.5-0.7,5.2-0.7
		c2.9-0.1,5.8,0.2,8.7,1c1.4,0.4,2.9,0.7,4.2,1.2c2.6,1,5,2.3,7.2,4c1.8,1.5,3.4,3.2,4.5,5.2c0.8,1.4,1.4,2.8,2.2,4.2
		c0.1,0.2,0.5,0.5,0.8,0.5c0.5-0.1,0.5-0.6,0.4-0.9c-0.8-1.5-1.5-3.1-2.4-4.6c-1.8-2.8-4.1-5-6.9-6.8c-1.2-0.8-2.6-1.4-4-2
		c-1-0.5-2.1-0.8-3.2-1.1c-1.4-0.4-2.8-0.8-4.2-1.1c-0.6-0.2-1.3-0.2-1.9-0.3c-1.1-0.2-2.3-0.5-3.4-0.5
		C100.5,44.3,99,44.4,97.5,44.5z M138.7,107.5c1.5-0.2,3.2-0.4,4.9-0.6c2.1-0.2,4.1-0.8,6-1.6c1.5-0.6,3-1.3,4.4-2.1
		c1.2-0.7,2.3-1.5,3.5-2.2c0.3-0.2,0.5-0.5,0.2-0.9c-0.3-0.3-0.5-0.3-0.8,0c-0.1,0.1-0.2,0.1-0.3,0.2c-1.7,1-3.3,2-5.1,2.9
		c-1.2,0.6-2.4,1.1-3.7,1.6c-1,0.4-2.1,0.7-3.2,0.9c-1.3,0.2-2.7,0.4-4,0.5c-1.3,0.1-2.6-0.1-4-0.1c-1.8,0-3.6-0.4-5.4-0.8
		c-1.4-0.4-2.8-0.7-4.2-1.2c-1.6-0.6-3.2-1.4-4.7-2.3c-3.6-2.2-6.4-5.2-8.2-9.1c-0.3-0.7-0.6-1.4-0.9-2.1c-0.1-0.2-0.5-0.3-0.7-0.3
		c-0.1,0-0.3,0.3-0.3,0.5c0,0.3,0.1,0.6,0.2,0.8c0.5,1.1,1.1,2.2,1.6,3.3c1,1.9,2.4,3.5,3.9,4.9c2.2,2,4.7,3.7,7.5,4.8
		c1.7,0.7,3.5,1.3,5.3,1.8c1.3,0.4,2.7,0.5,4,0.7C136,107.2,137.3,107.3,138.7,107.5z M186.9,110.9c0.1,0,0.1-0.1,0.2-0.1
		c0.1,0.3,0.2,0.6,0.4,0.8c0.1,0.2,0.4,0.3,0.6,0.4c0.1-0.2,0.3-0.4,0.4-0.6c0.1-1-0.5-1.5-1.5-1.3c-0.1,0-0.2,0.1-0.3,0
		c-0.2-0.1-0.4-0.2-0.6-0.4c0.2-0.1,0.3-0.3,0.5-0.4c0.8-0.2,1.5-0.4,2-1c0.9-1.2,2.1-1.3,3.4-0.7c0.3,0.2,0.9,0,1.2-0.2
		c0.5-0.3,0.4-0.8,0.2-1.3c-0.1-0.4-0.4-0.8-0.9-0.9c-2-0.3-4-0.4-5.9,0c-1.2,0.3-2.1,0.8-2.8,1.8c-1.2,1.8-1.2,3.6-0.4,5.5
		c0.6,1.4,2.8,2.6,4.2,2.2c0.4-0.1,0.7-0.2,0.3-0.7C186.9,113.3,186.6,112.2,186.9,110.9z M53.2,40.6c-0.8,0.3-1-0.1-1.1-0.6
		c0-0.2-0.3-0.3-0.5-0.4c-0.1,0.2-0.2,0.3-0.2,0.5c0,0.2,0,0.5,0.1,0.7c0.2,0.5,0.4,0.9,1.1,0.5c0.2-0.1,0.6-0.1,0.9,0
		c0.1,0,0.3,0.2,0.4,0.3c0,0.1-0.1,0.3-0.2,0.4c-0.2,0.1-0.5,0.2-0.8,0.3c-0.5,0.2-1,0.3-1.3,0.7c-1.2,1.3-2.5,1.5-4,0.8
		c-0.4-0.2-0.9,0-1,0.5c-0.3,1,0.4,1.9,1.5,2c1.6,0,3.2,0,4.8,0c1,0,1.9-0.4,2.6-1.2c1.4-1.4,1.8-3.1,1.4-5c-0.4-2-2.2-3.6-4.2-3.5
		c-0.3,0-0.6,0.2-0.8,0.3c-0.1,0.1,0.1,0.5,0.3,0.7C52.9,38.5,53.1,39.5,53.2,40.6z M121.4,96.1c-0.3,0-0.7,0-1.1-0.1
		c-1.2-0.5-1.3-1.9-0.8-2.7c0.2-0.2,0.3-0.5,0.3-0.7c0-0.9-1.2-2.2-2.1-2.4c-0.4-0.1-0.7-0.3-1-0.5c-0.2-0.1-0.4-0.2-0.6-0.2
		c0,0.2-0.1,0.6,0,0.7c0.2,0.3,0.5,0.5,0.8,0.6c1.6,0.4,2.2,0.9,1.4,2.9c-0.4,0.9-0.2,1.8,0.6,2.3c0.7,0.6,1.5,0.9,2.5,0.9
		c1.8,0.2,2.6,0.5,2.6,2.4c0,0.2,0.1,0.3,0.1,0.4c0.7,1.9,2.5,2.4,4.4,1.7c1.6-0.6,2.5-0.5,3.6,1.2c0.8,1.3,2.2,1.8,3.6,1.4
		c0.5-0.2,1-0.5,1.4-0.8c0.9-0.6,1.8-0.5,2.8-0.2c0.6,0.2,1.2,0.8,1.9,0.9c1.7,0.4,2.8,0.2,4-1.5c0.5-0.7,2.2-1.5,2.9-1.2
		c1,0.4,2,0.4,3,0.2c1.4-0.3,2.4-1.9,1.9-3.3c-0.1-0.2-0.4-0.3-0.6-0.5c-0.1,0.2-0.2,0.4-0.3,0.6c0,0.2,0,0.4,0,0.6
		c-0.1,1.4-1.4,2.4-2.6,2c-0.9-0.3-1.8-0.8-2.8-0.2c-0.7,0.4-1.7,0.4-2.1,1.3c-0.9,1.7-2.4,1.8-3.9,0.9c-1.6-1-3.2-1-4.8,0
		c-1.5,1-2.4,1-3.3-0.5c-0.7-1.2-1.9-1.7-3-2.1c-0.2-0.1-0.6-0.1-0.8,0c-0.5,0.2-1,0.3-1.4,0.6c-1.2,0.6-2.8-0.3-2.7-1.9
		c0-0.3-0.1-0.8-0.2-1C124.1,96.9,123.2,95.9,121.4,96.1z M123.9,62.1c-0.1-1-0.7-1-1.2-1.2c-1.1-0.3-1.8-0.8-1.4-2.3
		c0.1-0.2,0.1-0.4,0.2-0.6c0.3-0.8,0.1-1.5-0.4-2.1c-0.7-0.8-1.7-1.2-2.8-1.1c-1.5,0.1-2.2-0.7-2.4-1.9c-0.1-0.8-0.4-1.6-1.1-2.2
		c-1.1-0.9-2.4-0.9-3.7-0.5c-1.6,0.5-2.5,0.3-3.4-1c-0.1-0.2-0.2-0.4-0.4-0.5c-1.1-1-2.2-1.9-3.8-0.7c-0.8,0.6-1.8,1.1-2.8,0.8
		c-0.8-0.2-1.6-0.7-2.4-0.9c-0.6-0.2-1.3-0.4-1.9-0.4c-1,0.1-1.9,0.8-2.4,1.6c-1,1.5-2.4,1.2-3.7,1c-0.8-0.1-1.5-0.2-2.2,0
		c-1.1,0.4-2.1,1.3-2,2.7c0.1,0.5,0.2,1,0.7,1c0.7,0,0.5-0.6,0.4-1c-0.1-1.9,1.1-2.4,2.6-2.1c0.9,0.2,1.8,0.4,2.7,0.2
		c1-0.2,2-0.4,2.4-1.5c0.3-0.8,1.6-1.3,2.5-1c0.6,0.2,1.2,0.6,1.8,0.8c0.4,0.2,0.8,0.3,1.3,0.4c1.2,0.2,2.3-0.2,3.4-0.9
		c1.1-0.8,1.7-0.6,2.6,0.3c0.3,0.3,0.5,0.7,0.8,1c0.3,0.4,0.7,0.8,1.1,1c0.5,0.3,1.1,0.4,1.6,0.6c0.3,0.1,0.6,0,0.9-0.2
		c0.7-0.5,1.4-0.7,2.3-0.6c1.1,0.1,1.8,1.1,1.7,2.2c-0.1,0.3,0,0.8,0.2,1.1c0.5,0.6,1.1,1.2,1.8,1.5c0.7,0.3,1.5,0.3,2.3,0.3
		c1,0,1.6,0.7,1.6,1.6c0,0.5-0.3,0.9-0.4,1.4c-0.1,0.3-0.2,0.6-0.1,0.8c0.2,0.5,0.6,1.1,0.9,1.5c0.2,0.2,0.5,0.3,0.8,0.4
		c0.4,0.2,0.9,0.3,1.3,0.4C123.3,61.9,123.6,62,123.9,62.1z M196.8,104.3c0,1.8,0.3,1.8,1.4,2.2c0.5,0.2,1.5-0.3,1.8-0.8
		c0.4-0.6,0.3-1.1-0.1-1.6c-0.8-1-1.9-1.3-3-1.3c-2.6-0.2-5.1,0-7.7,0.3c-1.6,0.2-3.1,0.4-4.8,0.1c0-0.3,0-0.6,0.1-0.9
		c0.1-0.6-0.2-1-0.7-1.3c-0.6-0.4-1.2-0.1-1.7,0.3c-0.5,0.5-0.6,1.2-0.3,1.8c0.6,1.2,1.6,1.7,2.8,1.7c1.2,0,2.5-0.1,3.7-0.3
		c1.8-0.3,3.5-0.2,5.2,0.6c1.2,0.6,1.5,0.5,2.5-0.4C196.1,104.5,196.4,104.4,196.8,104.3z M100.5,121.5c-0.1-0.2-0.2-0.3-0.2-0.3
		c-1.9-1.7-3.8-3.4-5.7-5.1c-2.1-1.9-4.1-4-5.8-6.2c-1.9-2.4-3.5-4.9-4.7-7.7c-0.2-0.6-0.9-1-1.4-0.8c-0.5,0.2-0.5,0.7-0.2,1.4
		c0.3,0.6,0.6,1.1,0.9,1.7c1.7,3.2,3.8,6.2,6.3,8.7c2.7,2.7,5.7,5.2,8.5,7.8C98.9,121.5,99.6,121.7,100.5,121.5z M138.5,100.6
		c0.9-0.1,1.6-0.1,2.2-0.2c1.2-0.1,2.4-0.2,3.5-0.4c1.6-0.4,3.1-0.9,4.6-1.4c0.7-0.2,1.4-0.6,2.1-1c0.2-0.1,0.3-0.5,0.4-0.7
		c-0.2-0.1-0.5-0.2-0.7-0.2c-0.4,0.1-0.8,0.3-1.2,0.5c-1.1,0.4-2.2,0.9-3.4,1.2c-0.8,0.3-1.7,0.4-2.6,0.6c-1,0.2-2,0.5-3,0.5
		c-1.6,0-3.2-0.1-4.8-0.3c-0.7-0.1-1.4-0.1-2-0.3c-1.2-0.4-2.3-0.8-3.4-1.3c-2.8-1.1-5-3.1-6.8-5.4c-0.6-0.7-1.1-1.6-1.7-2.3
		c-0.1-0.2-0.5-0.3-0.7-0.3c-0.2,0-0.3,0.4-0.4,0.6c0,0.2,0.1,0.4,0.2,0.6c1.5,2.3,3.4,4.4,5.7,6c2.4,1.7,5.1,2.9,8,3.4
		C136,100.2,137.4,100.4,138.5,100.6z M139.8,30.6c0.5,0.5,0.9,0.9,1.4,1.3c3.4,3.1,6.9,6.1,9.7,9.7c1.7,2.2,3.3,4.5,4.4,7
		c0.2,0.5,0.5,1.1,0.9,1.6c0.4,0.5,1.2,0.5,1.4,0c0.1-0.3,0-0.8-0.2-1.2c-0.5-1-1.1-2-1.7-3c-1.4-2.6-3.2-5.1-5.2-7.2
		c-2.4-2.5-5-4.7-7.5-7.1C142.1,31,141.4,30.1,139.8,30.6z M100.8,52.2c1.4,0.1,2.8,0.1,4.1,0.4c1.4,0.3,2.7,0.8,4,1.3
		c2.9,1.1,5.2,3,7.2,5.4c0.6,0.8,1.2,1.7,1.8,2.5c0.2,0.2,0.3,0.6,0.8,0.3c0.3-0.2,0.4-0.5,0.2-0.8c-0.6-0.8-1.1-1.7-1.8-2.5
		c-1.5-1.8-3.2-3.4-5.2-4.6c-1.1-0.6-2.2-1.3-3.4-1.7c-1.1-0.4-2.3-0.7-3.6-0.9c-1.3-0.2-2.7-0.4-4.1-0.5c-0.8-0.1-1.6,0-2.4,0
		c-0.8,0.1-1.7,0.3-2.5,0.5c-0.6,0.1-1.2,0.2-1.8,0.3c-1.1,0.3-2.2,0.7-3.3,1.1c-0.8,0.3-1.6,0.7-2.3,1.1c-0.1,0.1-0.3,0.3-0.2,0.5
		c0,0.1,0.3,0.3,0.4,0.3c0.2,0,0.5,0,0.7-0.1c1.4-0.5,2.8-1.1,4.3-1.6C96.1,52.7,98.4,52.3,100.8,52.2z M56.7,50.7
		c1,0.1,1.7-0.8,1.5-1.6c-0.3-1.1-1.1-1.7-2.1-2.1c-1.4-0.6-2.8,0-4.1,0.2c-1.9,0.2-3.8,0.3-5.6-0.6c-0.5-0.3-1.2-0.6-1.8,0
		c-0.2,0.2-0.3,0.4-0.5,0.5c-0.2,0.2-0.5,0.3-0.8,0.5c-0.1-0.2-0.3-0.5-0.3-0.8c-0.2-0.9-0.8-1.5-1.7-1.3c-0.3,0.1-0.7,0.3-1,0.5
		c-0.6,0.4-0.7,1.1-0.2,1.6c0.4,0.4,1,0.7,1.5,0.9c0.6,0.2,1.3,0.3,1.9,0.3c1.8,0,3.5,0,5.3,0c1.8-0.1,3.6-0.4,5.4-0.5
		c1.1-0.1,1.2,0.1,1.2,1.2C55.4,50.2,55.9,50.7,56.7,50.7z M69.7,45.5c0.3-0.3,0.6-0.5,0.8-0.6c0.9-0.6,1.9-1.1,2.8-1.7
		c1.3-0.9,1.3-1.4-0.1-2.2c-1-0.6-1.9-1.2-3-1.8c0.6-0.5,1.2-1,1.6-1.5c0.4-0.5,0.8-0.9,1.2-1.5c0.1-0.2,0-0.5,0-0.7
		c-0.2,0.1-0.4,0.1-0.6,0.2c-1.4,0.9-2.8,1.9-4.1,2.8c-0.2,0.2-0.4,0.4-0.7,0.6c0.2,0.2,0.4,0.5,0.7,0.7c0.8,0.5,1.7,0.9,2.5,1.4
		c0.3,0.2,0.8,0.6,0.7,0.8c-0.1,0.3-0.5,0.7-0.8,0.9c-1.3,0.7-2.6,1.3-3.9,1.9c-0.5,0.3-0.5,0.5,0,0.9c0.7,0.5,1.4,0.8,2.1,1.3
		c1.2,0.8,2.3,1.8,3.5,2.6c0.2,0.1,0.4,0.1,0.7,0.1c0-0.2,0-0.5-0.1-0.7c-0.2-0.4-0.5-0.7-0.8-1C71.3,47.2,70.6,46.4,69.7,45.5z
		 M93.3,121.5c-0.2-0.2-0.3-0.4-0.4-0.5c-1.6-1.6-3.2-3.1-4.7-4.7c-2.6-2.8-5-5.8-7.2-9c-0.6-0.8-1.1-1.7-1.7-2.5
		c-0.2-0.3-0.6-0.5-1-0.2c-0.4,0.3-0.4,0.7-0.2,1.1c1.5,2.6,3.2,5.1,5.2,7.4c2.4,2.7,4.9,5.2,7.4,7.8
		C91.4,121.5,92.3,121.7,93.3,121.5z M46.9,67.1c0,0.1,0,0.2,0,0.2c0.2,0,0.5,0,0.7,0c1.2-0.2,2.5-0.4,3.7-0.6
		c2.3-0.3,4.5-1,6.7-1.7c2.9-1,5.8-2.2,8.9-2.8c2.4-0.4,4.6,0,6.5,1.5c0.8,0.6,0.9,1.6,0.2,2.4c-0.6,0.7-1.4,0.6-2.2,0.3
		c0.4-0.3,0.8-0.5,1.2-0.8c0.3-0.2,0.3-0.5,0-0.8c-0.5-0.5-1.4-0.7-1.9-0.2c-0.9,0.8-1,1.6-0.3,2.3c1,1.1,2.4,1,3.8,0
		c1.2-0.9,1.4-1.9,0.7-3.2c-0.9-1.6-2.5-2.3-4.2-2.4c-1.5-0.1-3.1,0-4.6,0.3c-1.5,0.3-3,0.9-4.4,1.5c-2.9,1.2-5.9,2.2-9,2.9
		c-1.7,0.4-3.5,0.6-5.2,0.9C47.3,66.8,47.2,67,46.9,67.1z M146.6,30.5c0.3,0.3,0.4,0.6,0.7,0.8c1.6,1.6,3.3,3.2,4.9,4.9
		c3,3.1,5.6,6.4,7.9,10.1c0.2,0.3,0.5,0.7,0.8,0.8c0.2,0.1,0.7-0.1,0.9-0.3c0.1,0,0-0.5-0.1-0.6c-1.3-1.9-2.5-3.8-3.9-5.6
		c-2.5-3.3-5.4-6.3-8.3-9.3C148.8,30.6,147.9,30.3,146.6,30.5z M151.6,113.8c-0.3,0.6-0.4,1.3-0.8,1.9c-0.7,1.1-1.3,2.3-1.4,3.7
		c-0.1,1.4,0.1,2.3,1.6,2.2c0.4,0,0.6-0.1,0.5-0.6c-0.2-1.8,0.1-3.4,1.2-4.9c0.6-0.8,1.2-1.7,0.8-2.9c-0.2-0.6-0.5-1.1-0.8-1.7
		c-0.7-1.5-0.9-3-0.6-4.6c0.2-0.8-0.1-1.2-0.7-1.4c-0.4-0.1-1,0.4-1.1,1c-0.4,1.9-0.2,3.8,0.7,5.6
		C151.2,112.6,151.4,113.2,151.6,113.8z M90.3,32.6c0-1.9-0.2-2.3-1.5-2.2c-0.4,0-0.7,0.1-0.5,0.7c0.1,0.4,0.2,0.8,0.1,1.1
		c-0.1,1.5-0.7,2.8-1.7,4c-0.5,0.6-0.8,1.3-0.4,2.2c0.2,0.6,0.5,1.2,0.8,1.7c0.7,1.5,0.9,3.1,0.6,4.7c-0.1,0.5-0.1,1,0.6,1.2
		c0.5,0.2,1.1-0.3,1.2-0.9c0.1-0.4,0.2-0.9,0.2-1.3c0.2-1.6-0.3-3.1-1-4.5c-0.6-1.2-0.6-2.2,0.2-3.3C89.8,35,90.4,33.8,90.3,32.6z
		 M96.1,106.2c0.2,0.2,0.4,0.4,0.5,0.4c1,0,1.9,0,2.9-0.2c0.8-0.2,1.3,0,1.9,0.6c0.6,0.7,1.2,1.3,1.9,1.9c0.7,0.6,1.1,0.6,1.8,0
		c0.5-0.4,0.9-0.8,1.3-1.3c0.7-0.8,1.2-0.8,2.1-0.6c0.9,0.2,1.8,0.1,2.8,0.2c0.1,0,0.2-0.2,0.3-0.3c0,0-0.1-0.2-0.2-0.2
		c-0.4-0.1-0.7-0.2-1.1-0.3c-1.1-0.4-2.2-0.8-3.3-1.2c-0.4-0.2-0.7-0.2-1,0.2c-0.3,0.4-0.6,0.8-0.9,1.3c-0.7,0.9-1.5,1-2.2,0.2
		c-0.5-0.6-1.1-1.1-1.5-1.7c-0.3-0.5-0.7-0.4-1.2-0.3c-0.7,0.2-1.4,0.4-2,0.5c0-0.1-0.1-0.2-0.1-0.2c0.1-0.1,0.1-0.1,0.2-0.2
		c0.7-0.5,1.5-0.9,2.2-1.5c0.4-0.3,0.4-0.8,0.2-1.3c-0.2-0.3-0.7-0.4-1-0.1c-0.7,0.7-1.4,1.4-2.1,2.1c-0.2,0.3-0.4,0.6-0.6,1
		c0.4,0.1,0.6,0.1,1,0.2C97.3,105.7,96.8,105.9,96.1,106.2z M164.4,89.1c-0.1,0-0.1,0.1-0.2,0.1c0.1,0.2,0.2,0.5,0.4,0.7
		c2.4,2.6,5.4,3.1,8.7,2.2c2-0.6,4-1.4,6-2.2c2.3-0.8,4.5-1.8,6.9-2.4c2.1-0.6,4.2-0.8,6.4-1.2c0.1,0,0.3-0.3,0.3-0.4
		c0-0.2-0.2-0.3-0.3-0.4c-0.2-0.1-0.4-0.1-0.6,0c-1.8,0.3-3.5,0.4-5.2,0.9c-2.2,0.6-4.4,1.4-6.6,2.2c-2.7,1.1-5.4,2.3-8.4,2.5
		c-1.7,0.1-3.4-0.1-4.9-0.8C165.9,90,165.1,89.5,164.4,89.1z M165.8,95.3c-0.4,0.4-0.2,0.8,0.2,1c0.9,0.3,1.7,0.6,2.6,0.8
		c2.2,0.6,4.2,0,6.3-0.8c2.3-0.8,4.5-1.7,6.8-2.6c1.7-0.6,3.4-1.3,5.1-1.9c0.9-0.3,1.8-0.4,2.6-0.6c0.7-0.2,1.5-0.2,2.2-0.4
		c0.2-0.1,0.4-0.4,0.6-0.6c-0.3-0.1-0.6-0.4-0.8-0.3c-1.4,0.2-2.8,0.4-4.1,0.8c-1.9,0.5-3.7,1-5.6,1.7c-2.2,0.8-4.4,1.9-6.6,2.8
		c-2.3,1-4.7,1.4-7.1,0.7C167.3,95.9,166.6,95.6,165.8,95.3z M165.7,91.9c-0.1,0.1-0.1,0.1-0.2,0.2c0.2,0.3,0.3,0.6,0.5,0.8
		c1.1,0.7,2.3,1.2,3.7,1.3c2.6,0.1,5-0.9,7.4-1.7c2.7-1,5.4-2,8.1-3c1.8-0.7,3.7-1.2,5.7-1.4c0.4-0.1,0.9-0.1,1.3-0.3
		c0.2-0.1,0.4-0.4,0.6-0.5c-0.2-0.1-0.4-0.2-0.6-0.3c-0.3,0-0.7,0-1,0.1c-1.8,0.4-3.6,0.8-5.4,1.3c-2.3,0.7-4.6,1.5-6.9,2.3
		c-2,0.7-3.9,1.8-6.1,2.2c-1.7,0.3-3.3,0.2-4.9-0.3C167.1,92.3,166.4,92.1,165.7,91.9z M165.5,93.7c0.2,0.3,0.2,0.6,0.4,0.6
		c1.3,0.7,2.6,1.4,4.2,1.4c1.4,0.1,2.7-0.3,4-0.8c2.6-1,5.1-2,7.8-3c1.8-0.7,3.6-1.3,5.5-1.8c1.6-0.4,3.2-0.6,4.8-0.9
		c0.4-0.1,0.6-0.4,0.5-0.7c0-0.2-0.4-0.3-0.6-0.3c-1.2,0.2-2.5,0.5-3.7,0.8c-1.5,0.4-3,0.9-4.5,1.3c-1.3,0.4-2.6,0.8-3.9,1.3
		c-1.8,0.7-3.5,1.5-5.2,2.1c-1.9,0.7-3.9,1-6,0.5C167.5,94.2,166.6,94,165.5,93.7z M170.2,99.3c1.7-0.4,3.3-0.8,4.9-1.3
		c2.2-0.8,4.3-1.7,6.4-2.5c1.7-0.7,3.4-1.3,5.2-1.9c1.6-0.5,3.2-0.9,4.8-1.4c0.2-0.1,0.3-0.3,0.4-0.4c-0.2-0.1-0.4-0.3-0.5-0.3
		c-0.9,0.2-1.7,0.3-2.6,0.6c-1.1,0.3-2.1,0.6-3.1,0.9c-2.1,0.8-4.3,1.5-6.4,2.3c-2.3,1-4.6,2.1-7.1,2.5c-2,0.3-3.9,0.1-5.7-0.5
		c-0.2-0.1-0.5,0-0.7,0c0.1,0.2,0.2,0.6,0.3,0.7C167.4,98.5,168.8,98.9,170.2,99.3z M143.7,45.5c0-0.1-0.1-0.2-0.1-0.2
		c-1-0.3-2-0.2-3,0c-1.2,0.2-1.5,0.2-2.3-0.8c-0.6-0.7-1.4-1.3-2.1-1.8c-0.2-0.2-0.8-0.1-1,0.1c-0.8,0.7-1.4,1.5-2.1,2.2
		c-0.1,0.1-0.4,0.3-0.5,0.3c-0.8-0.2-1.5-0.4-2.2-0.7c-0.6-0.2-1.2-0.2-1.8,0.4c0.2,0.1,0.4,0.3,0.5,0.3c0.4,0.2,0.9,0.2,1.4,0.4
		c0.9,0.4,1.7,0.8,2.6,1.2c0.4,0.2,0.7,0.3,1-0.2c0.3-0.6,0.8-1.1,1.1-1.6c0.6-0.8,1.1-0.8,1.7-0.1c0.6,0.6,1.1,1.2,1.6,1.8
		c0.4,0.5,0.8,0.4,1.3,0.3c0.7-0.3,1.5-0.4,2.2-0.7C142.5,46,143.1,45.8,143.7,45.5z M74.1,56.3c0.1-0.1,0.1-0.1,0.2-0.2
		c-0.1-0.2-0.2-0.6-0.4-0.7c-1.3-0.7-2.7-1.2-4.1-1.2c-1.9,0-3.7,0.6-5.5,1.2c-1.2,0.4-2.5,1-3.7,1.5c-1.6,0.6-3.1,1.2-4.7,1.8
		c-1.3,0.5-2.6,0.9-3.9,1.3c-1.3,0.3-2.6,0.5-3.9,0.8c-0.1,0-0.3,0.2-0.3,0.4c0,0.1,0.2,0.2,0.3,0.3c0.1,0,0.3,0,0.5,0
		c1.2-0.2,2.4-0.5,3.5-0.7c2.3-0.4,4.5-1.3,6.6-2.1c2.7-1.1,5.4-2.2,8.2-3.2c1.7-0.6,3.4-0.6,5.1,0C72.6,55.8,73.4,56,74.1,56.3z
		 M75.4,62.7c0.1,0,0.1-0.1,0.2-0.2c-0.2-0.3-0.2-0.6-0.5-0.8c-1.1-1-2.3-1.8-3.7-2.2c-1.5-0.4-3-0.4-4.5,0
		c-1.7,0.5-3.4,1.1-5.1,1.8c-1.5,0.6-3.1,1.2-4.6,1.8c-1,0.3-2,0.6-3,0.8c-1.2,0.3-2.4,0.6-3.6,0.8c-1,0.2-2.1,0.4-3.1,0.6
		c-0.1,0-0.2,0.2-0.5,0.5c0.3,0,0.5,0.1,0.7,0c1.6-0.2,3.3-0.2,4.9-0.6c2.3-0.6,4.5-1.4,6.8-2.2c2.5-0.9,4.9-2,7.6-2.4
		c2.8-0.5,5.4,0,7.7,1.6C74.9,62.3,75.2,62.5,75.4,62.7z M111.2,39.6c4.4,0,8.8,0,13.3,0c0.3,0,0.8,0.1,0.8-0.4
		c0-0.5-0.4-0.4-0.8-0.4c-8.7,0-17.3,0-26,0c-0.4,0-0.7,0.2-1.1,0.3c-0.1,0-0.2,0.2-0.2,0.3c0,0.1,0.1,0.2,0.2,0.2
		c0.2,0,0.4,0,0.6,0C102.4,39.6,106.8,39.6,111.2,39.6z M129.2,30.4c-0.3,0.1-0.5,0.2-0.7,0.3c0.1,0.2,0.2,0.5,0.3,0.6
		c0.6,0.6,1.2,1.3,1.8,1.9c2.3,2.5,4.5,5,6.4,7.8c0.7,1,1.3,2,1.9,3c0.2,0.4,0.6,0.8,1,0.5c0.1-0.1,0.1-0.7,0-1c-0.5-1-1-2-1.6-3
		c-2.4-3.6-5.4-6.7-8.4-9.8C129.7,30.6,129.4,30.5,129.2,30.4z M110.6,121.4c0.3-0.2,0.6-0.3,0.7-0.5c0.1-0.1-0.1-0.4-0.2-0.6
		c-0.1-0.2-0.3-0.3-0.4-0.4c-1.5-1.7-3-3.3-4.5-5c-1.4-1.8-2.8-3.6-4.1-5.4c-0.5-0.7-1-1.5-1.5-2.2c-0.1-0.1-0.4-0.2-0.6-0.1
		c-0.1,0-0.3,0.3-0.2,0.5c0.1,0.4,0.2,0.7,0.4,1c0.9,1.5,1.8,3,2.8,4.4c2.1,2.6,4.3,5,6.5,7.5C109.8,120.9,110.2,121.1,110.6,121.4z
		 M47.2,64.3c0,0.1,0,0.1,0.1,0.2c0.7,0,1.4,0.1,2,0c1.4-0.3,2.9-0.6,4.3-1c2.4-0.7,4.8-1.5,7.2-2.4c2.3-0.8,4.4-2.3,7-2.4
		c1.3,0,2.6,0,3.8,0.2c0.9,0.1,1.7,0.6,2.8,1c-0.1-0.3-0.1-0.7-0.3-0.8c-1.3-0.8-2.7-1.5-4.2-1.4c-0.7,0-1.4,0.1-2,0.3
		c-1.7,0.5-3.4,1-5.1,1.6c-1.3,0.4-2.6,1-3.9,1.5c-1.2,0.4-2.3,0.9-3.5,1.3c-1.3,0.4-2.6,0.8-3.9,1.2c-1.2,0.3-2.4,0.4-3.6,0.6
		C47.6,64,47.4,64.2,47.2,64.3z M48,59.9c0,0.1,0.1,0.1,0.1,0.2c0.2,0,0.4,0.1,0.5,0c1.6-0.4,3.2-0.8,4.7-1.2
		c1.2-0.4,2.4-0.8,3.6-1.2c2.2-0.9,4.4-1.8,6.6-2.6c1.4-0.5,2.8-1,4.2-1.2c1.9-0.3,3.9-0.1,5.8,0.6c0.2,0.1,0.4,0,0.6-0.1
		c-0.1-0.2-0.2-0.4-0.4-0.5c-0.8-0.3-1.7-0.6-2.5-0.9c-2-0.6-3.9-0.1-5.7,0.5c-1,0.3-1.9,0.8-2.9,1.2c-1.7,0.7-3.4,1.3-5.1,2
		c-1.5,0.6-3.1,1.3-4.7,1.8c-1.5,0.5-3,0.8-4.6,1.2C48.2,59.6,48.1,59.8,48,59.9z M74.2,57.9c0-0.2,0-0.3,0-0.4c0-0.1,0-0.2-0.1-0.2
		c-1.2-0.6-2.4-1.3-3.8-1.4c-2.1-0.2-3.9,0.5-5.7,1.2c-2,0.8-4,1.6-6,2.4c-1.4,0.5-2.9,1-4.4,1.4c-1.2,0.4-2.5,0.7-3.8,1
		c-0.8,0.2-1.7,0.4-2.6,0.6c-0.2,0-0.3,0.2-0.5,0.4c0,0.1,0.1,0.1,0.1,0.2c0.7-0.1,1.5-0.2,2.2-0.3c1.5-0.3,2.9-0.7,4.4-1.1
		c1.6-0.5,3.2-0.9,4.7-1.5c2-0.8,4-1.7,6-2.5c2.7-1,5.4-1.3,8.1-0.2C73.3,57.7,73.7,57.8,74.2,57.9z M142.6,112.6
		c0-0.1-0.1-0.1-0.1-0.2c-0.1,0-0.2-0.1-0.3-0.1c-4.8,0-9.5-0.1-14.3-0.1c-3.7,0-7.5,0.1-11.2,0.1c-0.5,0-1,0-1.4,0
		c-0.2,0-0.4,0-0.6,0.1c-0.1,0-0.1,0.4-0.1,0.4c0.2,0.1,0.4,0.2,0.6,0.2c0.5,0,1.1-0.1,1.6-0.1c2.4,0,4.8,0.1,7.2,0.1
		c1.1,0,2.2,0,3.2,0c2.2,0,4.3-0.1,6.5-0.1c2.7,0,5.5,0,8.2,0C142.2,112.9,142.4,112.7,142.6,112.6z M139.7,95.3
		c0.9-0.1,2.6-0.3,4.1-0.6c0.2,0,0.4-0.4,0.6-0.7c-0.2-0.1-0.4-0.3-0.7-0.4c-0.1-0.1-0.3,0-0.4,0c-1.1,0.2-2.3,0.5-3.4,0.5
		c-1.2,0-2.5-0.2-3.7-0.2c-1.5,0-2.8-0.6-4-1.3c-1.2-0.7-2.2-1.6-3.3-2.4c-0.1-0.1-0.6-0.1-0.6-0.1c-0.1,0.2-0.2,0.5-0.1,0.8
		c0,0.2,0.3,0.3,0.4,0.4C131.6,94.1,135.1,95.2,139.7,95.3z M95.2,57.3c0.1,0.7,0.5,0.9,1.1,0.8c1-0.2,2.1-0.5,3.1-0.5
		c2-0.1,4-0.1,5.9,0.5c1.1,0.4,2.2,0.9,3.2,1.5c0.8,0.5,1.6,1.3,2.4,1.8c0.2,0.1,0.5,0,0.8,0c0-0.2,0-0.5-0.1-0.7
		c-0.2-0.3-0.6-0.6-0.9-0.8c-2.2-1.9-4.8-3-7.7-3.3c-1.8-0.2-3.7,0.1-5.6,0.3C96.6,56.9,95.9,57.2,95.2,57.3z M91.5,42.5
		c0.2-0.1,0.4-0.2,0.6-0.3c1.1-0.9,2.2-1.7,3.3-2.6c1.7-1.4,3.3-2.8,4.9-4.1c1.6-1.3,3.2-2.7,4.8-4.1c0.2-0.2,0.2-0.5,0.3-0.8
		c-0.3,0-0.6,0-0.8,0.1c-1.2,0.9-2.3,1.8-3.5,2.8c-2.6,2.1-5.2,4.3-7.8,6.4c-0.7,0.5-1.3,1.1-2,1.7c-0.1,0.1-0.2,0.4-0.2,0.6
		C91.2,42.3,91.4,42.4,91.5,42.5z M134.8,121.4c0.2-0.2,0.4-0.3,0.6-0.4c3.1-2.5,6.2-5.1,9.4-7.6c1.2-1,2.4-1.9,3.5-2.9
		c0.3-0.2,0.7-0.5,0.4-0.9c-0.1-0.1-0.6,0.1-0.9,0.1c-0.1,0-0.1,0.1-0.2,0.2c-1.2,1-2.5,2-3.7,3c-2.5,2.1-5,4.1-7.5,6.2
		c-0.6,0.5-1.2,1-1.8,1.5c-0.1,0.1-0.2,0.4-0.2,0.5C134.4,121.2,134.6,121.3,134.8,121.4z M136.2,41.4c-0.1-0.1-0.1-0.2-0.1-0.3
		c-2-2.9-4.4-5.4-6.8-7.9c-0.6-0.6-1.2-1.2-1.9-1.8c-0.4-0.4-0.6-0.2-0.8,0.2c-0.3,0.5,0.2,0.7,0.4,1c2.6,2.7,5.3,5.2,7.4,8.3
		C134.8,41.6,135.6,41.8,136.2,41.4z M103.6,110.3c0.6,0.9,1.2,1.8,1.9,2.6c2.2,2.5,4.5,4.9,6.8,7.3c0.2,0.2,0.5,0.2,0.8,0.2
		c0-0.3,0.1-0.7,0-1c0-0.2-0.2-0.3-0.4-0.4c-2.6-2.6-5.2-5.1-7.3-8.1C105,110.2,104.4,110,103.6,110.3z M181.5,114.1
		c0.8,0,1.1-0.4,1-1c-0.4-2.1-0.5-4.3,0-6.4c0.1-0.2-0.2-0.7-0.5-0.9c-0.6-0.3-1.1,0-1.3,0.9c-0.7,2.3-0.6,4.5,0.2,6.7
		C180.9,113.7,181.4,113.9,181.5,114.1z M59.6,42.2c-0.1-0.9-0.1-1.5-0.2-2.2c-0.1-0.7-0.3-1.3-0.5-2c0-0.2-0.3-0.3-0.5-0.4
		c-0.8-0.1-1.2,0.5-1,1.3c0.6,1.9,0.4,3.8,0.1,5.8c-0.1,0.7,0,1.1,0.5,1.2c0.5,0.1,1.1-0.2,1.2-0.8C59.3,44.1,59.4,43,59.6,42.2z
		 M113,117.5c0.2-0.1,0.5-0.2,0.5-0.3c0-0.3,0-0.6-0.2-0.8c-0.5-0.6-1.1-1.1-1.6-1.7c-1.6-1.9-3.1-3.8-4.7-5.7
		c-0.1-0.2-0.4-0.4-0.6-0.3c-0.2,0.1-0.5,0.3-0.5,0.6s0.1,0.5,0.2,0.7c1.7,2.8,3.9,5.1,6.2,7.3C112.6,117.3,112.8,117.4,113,117.5z
		 M126.9,34.2c-0.2,0.1-0.5,0.3-0.5,0.4c0.1,0.3,0.2,0.7,0.4,0.9c0.7,0.8,1.5,1.6,2.2,2.4c1.3,1.6,2.4,3.2,3.7,4.8
		c0.2,0.2,0.5,0.4,0.8,0.4c0.2,0,0.4-0.3,0.5-0.5c0.1-0.2-0.1-0.5-0.2-0.7c-1.7-2.7-3.8-5-6-7.2C127.4,34.5,127.1,34.4,126.9,34.2z
		 M194.9,102.1c0-0.9,0-1.8,0-2.7c0-0.8-0.3-1.1-1.1-1.1c-1.6,0-3.3,0-4.9,0c-0.6,0-0.9,0.3-0.9,0.8c-0.1,0.9-0.1,1.7,0,2.6
		c0,0.2,0.4,0.4,0.6,0.6c0.2-0.2,0.4-0.4,0.5-0.7c0.1-0.4,0.1-0.9,0-1.4c0-0.5,0.2-0.8,0.7-0.9c0.7,0,1.4,0,2.1,0
		c1.9,0.1,1.9,0.1,1.9,1.9C193.8,102.3,193.8,102.3,194.9,102.1z M139.1,52c0.5,0.1,1,0,1-0.6c0-0.3-0.4-0.7-0.6-0.8
		c-0.8-0.2-1.5-0.3-2.3-0.3c-1.7,0.1-3.4,0.3-5.1,0.5c-0.5,0-0.6,0.4-0.6,0.8c0,0.5,0.4,0.6,0.8,0.6c0.9-0.1,1.9-0.2,2.9-0.3
		C136.4,52,137.7,52,139.1,52z M68,41.9c-0.2,0.2-0.2,0.4-0.4,0.4c-0.8,0.4-1.6,0.8-2.5,1.1c-0.4,0.2-0.8,0.3-0.6,0.7
		c0.1,0.2,0.7,0.5,0.9,0.4c1.4-0.6,2.8-1.2,4.2-1.9c0.5-0.3,0.5-0.8,0-1.1c-0.6-0.4-1.2-0.7-1.8-1c-0.8-0.3-1.6-0.6-2.4-0.9
		c-0.4-0.1-0.8,0-0.8,0.4c0,0.2,0.3,0.5,0.6,0.7C66.1,41.1,67,41.5,68,41.9z M105.1,101.1C105.1,101.1,105.1,101.1,105.1,101.1
		c0.9,0,1.8-0.1,2.6-0.3c0.4-0.1,0.9-0.2,0.8-0.8c-0.1-0.5-0.5-0.6-0.9-0.6c-1.5,0.1-3,0.2-4.5,0.3c-0.8,0-1.7,0-2.5,0
		c-0.5,0-0.9,0.3-0.9,0.7c0,0.3,0.5,0.5,0.8,0.8c0.1,0.1,0.3,0,0.5,0C102.4,101.1,103.7,101.1,105.1,101.1z M132.2,43.6
		c-0.2-0.4-0.3-0.7-0.5-1c-1.4-1.7-2.8-3.4-4.2-5.2c-0.3-0.4-0.6-0.3-0.9,0c-0.5,0.5-0.1,0.8,0.2,1.1c0.6,0.7,1.2,1.3,1.7,2
		c0.9,1.1,1.7,2.3,2.5,3.4c0.1,0.2,0.5,0.4,0.7,0.3C131.9,44.2,132,43.8,132.2,43.6z M113.7,114.1c-0.1-0.1-0.1-0.2-0.2-0.2
		c-0.1-0.2-0.2-0.4-0.4-0.6c-1.1-1.3-2.2-2.6-3.3-4c-0.3-0.4-0.5-1-0.9-1.4c-0.2-0.2-0.7-0.4-0.9-0.4c-0.4,0.2-0.6,0.6-0.2,1.1
		c0.7,0.9,1.2,1.8,1.9,2.7c0.8,1,1.6,1.9,2.5,2.8c0.2,0.2,0.5,0.3,0.8,0.2C113.3,114.4,113.5,114.2,113.7,114.1z M51.7,53.2
		c0-1,0-2,0-2.9c0-0.2-0.3-0.5-0.4-0.7c-0.2,0.2-0.4,0.5-0.5,0.7c-0.1,0.2,0,0.4,0,0.6c0.5,1.3-0.7,1.8-1.7,1.7
		c-0.8-0.1-1.6-0.2-2.4-0.2c-0.6,0-0.7-0.2-0.7-0.7c0-0.4,0-0.9,0-1.3c0-0.2-0.3-0.5-0.5-0.5c-0.3-0.1-0.6,0.1-0.6,0.5
		c0,0.7-0.1,1.3,0,2c0,0.3,0.4,0.8,0.7,0.8C47.5,53.2,49.5,53.2,51.7,53.2z M184.6,64.2C184.6,64.2,184.6,64.1,184.6,64.2
		c0.1-0.1,0.3-0.1,0.4-0.1c0.2-0.1,0.4-0.2,0.6-0.3c-0.1-0.2-0.3-0.4-0.4-0.5c-0.6-0.2-1.3-0.3-2-0.4c-0.6-0.1-1.2-0.1-1.8-0.3
		c-0.3-0.1-0.4-0.7-0.5-1.1c0,0,0.4-0.3,0.5-0.3c0.2,0,0.4,0.3,0.5,0.5c0.3,0.5,0.7,0.4,1.1,0.3c0.2,0,0.4-0.4,0.4-0.6
		c0-0.5-1.1-1.3-1.6-1.3c-0.8,0.1-1.7,0.9-1.8,1.5c-0.1,0.7,0.5,1.6,1.4,1.8C182.3,63.8,183.4,64,184.6,64.2z M54.2,87.7
		c0,0.1,0,0.2,0,0.3c0.2,0.1,0.3,0.3,0.5,0.3c1,0.2,2,0.4,3,0.6c0.4,0.1,0.8,0.2,1.1,0.5c0.3,0.3,0.5,0.8,0.1,1.1
		c-0.4,0.3-0.6-0.1-0.8-0.4c0-0.1-0.1-0.2-0.2-0.2c-0.4-0.4-0.8-0.3-1.2,0s-0.3,0.7,0,1c0.3,0.3,0.7,0.5,1.1,0.6
		c0.8,0.3,1.8-0.4,2-1c0.3-0.7,0-1.4-0.7-1.9c-0.9-0.6-1.8-0.8-2.8-0.9C55.6,87.6,54.9,87.7,54.2,87.7z M186.7,65.1
		c-0.1,0-0.1,0-0.2,0c0.4,1.2,0.6,2.4,0.1,3.7c1.1-0.7,0.9-1.8,1.1-2.8c0.8,1.3-0.1,2.4-0.3,3.8c0.4-0.2,0.7-0.3,0.9-0.4
		c1.2-1.2,1.3-3.2,0.3-4.5c-0.2-0.2-0.5-0.3-0.8-0.4c-0.1,0.2-0.2,0.5-0.3,0.8c0,0.1,0,0.2-0.1,0.3
		C187.1,65.3,186.9,65.2,186.7,65.1z M178.3,108.7c0.3-0.3,0.7-0.6,0.8-0.9c0.1-0.6-0.4-1-0.9-1.1c-0.5-0.1-1,0.2-1.5,0.3
		c0.1,0.3,0.2,0.7,0.3,1c0,0,0,0,0,0.1c0.2,0.3,0.4,0.6-0.2,0.8c-0.2,0.1-0.5,0.6-0.5,0.9c0,0.3,0.4,0.6,0.7,0.7
		c0.3,0.1,0.7,0.2,1.1,0.1c0.9-0.1,1.1-0.6,0.6-1.4C178.6,109,178.5,108.9,178.3,108.7z M194.8,107.9c-0.9,0.2-1.6,0.3-2.4,0.5
		c-0.2,0.1-0.6,0.3-0.6,0.4c0.1,0.3,0.2,0.7,0.5,0.8c0.7,0.2,1.4,0.4,2.1,0.4c0.6,0,1.4,0,1.9-0.6c0.4-0.5,0.3-1-0.2-1.2
		C195.5,108.1,195.1,108,194.8,107.9z M133.3,48.8c-0.2-0.3-0.4-0.7-0.6-0.9c-0.9-0.8-1.9-1.6-3.2-1.7c-0.2,0-0.3,0-0.5,0
		c0.1,0.2,0.1,0.5,0.2,0.6c0.8,0.9,1.6,1.8,2.4,2.7c0.2,0.2,0.7,0.4,0.9,0.3C132.9,49.6,133,49.1,133.3,48.8z M168.7,116.4
		c0.3,0,0.4,0,0.6-0.1c1.6-1,3.4-1.6,5.2-2c0.2-0.1,0.4-0.2,0.5-0.3c0.1-0.2,0.3-0.5,0.2-0.7c-0.1-0.2-0.4-0.4-0.6-0.4
		c-0.2-0.1-0.5,0-0.7,0.1c-1.3,0.6-2.6,1.2-3.8,1.9C169.5,115.2,168.9,115.6,168.7,116.4z M171.2,64.5c-0.4-0.3-0.6-0.6-1-0.8
		c-1.2-0.8-1.6-1.7-1.3-3.1c0.1-0.3-0.1-0.6-0.1-1c-1.5,1-1.7,2.3-0.6,3.8C168.8,64.4,170.4,65,171.2,64.5z M71,35.1
		c-0.4,0.2-0.8,0.5-1.2,0.7c-1.1,0.5-2.3,0.9-3.4,1.3c-0.5,0.2-1,0.3-1.4,0.6c-0.2,0.1-0.3,0.5-0.2,0.8c0,0.1,0.4,0.3,0.6,0.3
		c0.3,0,0.7-0.1,1-0.3c1.5-0.6,3-1.2,4.2-2.2C70.8,36,71.3,35.8,71,35.1z M71.1,92.2c1.2-0.7,1.6-1.7,1.1-2.9
		c-0.6-1.5-2.1-2.4-3.5-2.2c0.7,0.7,1.6,1.3,1.9,2.1C71.1,90,71,91.1,71.1,92.2z M111,105.4c-0.4-0.4-0.7-0.8-1-1.1
		c-0.7-0.8-1.3-1.5-2-2.2c-0.4-0.4-0.9-0.2-1.1,0.2c-0.2,0.6,0,1.4,0.5,1.8c0.3,0.2,0.7,0.5,1,0.7
		C109.2,105.2,109.9,105.6,111,105.4z M45.2,43.5C45.2,43.5,45.2,43.5,45.2,43.5c0.8,0,1.5-0.1,2.2-0.2c0.2,0,0.5-0.3,0.5-0.4
		c0-0.2-0.2-0.6-0.4-0.7c-0.6-0.2-1.2-0.4-1.8-0.4c-0.7,0-1.4,0-1.9,0.6c-0.2,0.2-0.3,0.5-0.3,0.8c0.1,0.2,0.4,0.4,0.7,0.4
		C44.5,43.5,44.9,43.5,45.2,43.5z M138.3,48.4c-0.5-0.8-1-1.5-1.5-2.2c-0.6-0.8-1.4-0.6-2,0.2c-0.4,0.6-0.7,1.2-1,1.9
		c-0.1,0.2,0.1,0.4,0.2,0.7c0.2-0.1,0.5-0.1,0.6-0.3c0.2-0.3,0.3-0.7,0.5-1.1c0.2-0.3,0.4-0.6,0.6-0.8c0.3,0.3,0.6,0.5,0.8,0.8
		c0.2,0.3,0.3,0.6,0.4,0.9c0.1,0.2,0.2,0.3,0.3,0.4c0.1,0.1,0.3,0.1,0.4,0C138,48.8,138.1,48.7,138.3,48.4z M126.8,93.3
		c0.7,0,1-0.4,0.8-1.1c-0.3-0.9-0.9-1.6-1.8-1.9c-0.6-0.2-0.9,0-1,0.6C124.6,92.2,125.3,93.3,126.8,93.3z M95.4,54.5
		c-0.9-0.1-1.6,0.4-2.2,0.9c-0.4,0.3-0.3,1,0.2,1.1c1.2,0.3,2.3,0.2,3.2-0.8c0.3-0.4,0.3-0.7-0.1-0.9C96.3,54.6,95.8,54.6,95.4,54.5
		z M193.2,112c0.6-0.1,1.1-0.1,1.7-0.2c0.3-0.1,0.7-0.3,0.9-0.5c0.1-0.1,0.2-0.5,0.1-0.6c-0.1-0.2-0.4-0.3-0.6-0.3
		c-1,0-2.1,0.1-3.1,0c-0.5,0-0.7,0-0.8,0.4c-0.1,0.5,0.1,0.9,0.6,1C192.3,112,192.8,112,193.2,112z M103.9,106
		c0.4-0.3,1-0.4,1.3-0.8c0.3-0.4,0.5-1,0.7-1.6c0.1-0.3,0.4-0.6-0.1-0.8c-0.4-0.2-0.7,0.1-0.8,0.5c-0.1,0.3-0.2,0.7-0.4,1
		c-0.4,0.7-0.9,0.7-1.3,0c-0.3-0.5-0.5-1-0.8-1.4c-0.1-0.2-0.3-0.2-0.5-0.3c-0.1,0.2-0.3,0.5-0.2,0.6c0.3,0.7,0.7,1.4,1.1,2.1
		C103.1,105.7,103.5,105.8,103.9,106z M144.5,97.3c0.9,0.1,1.5-0.4,2.1-1c0.2-0.2,0.2-0.5,0.2-0.8c0-0.1-0.4-0.2-0.6-0.3
		c-0.6,0-1.1,0-1.6,0c-0.8,0-1.2,0.6-1.6,1.2c-0.1,0.1,0.1,0.5,0.2,0.5C143.6,97.1,144.1,97.2,144.5,97.3z M112.4,59.3
		c0,0.9,0.2,1.2,1,1.6c0.3,0.1,0.6,0.3,0.8,0.4c0.5,0.2,0.9-0.1,1-0.6c0.1-1.1-0.6-1.7-1.5-2.1C112.7,58.2,112.4,58.3,112.4,59.3z
		 M109.4,57.4c0.2-0.1,0.6-0.2,0.7-0.4c0.1-0.2-0.1-0.6-0.3-0.9c-0.5-0.8-1.3-1-2.1-1.2c-0.3-0.1-0.7,0.2-1,0.4
		c-0.1,0.1-0.1,0.6,0.1,0.7C107.3,56.8,108.2,57.2,109.4,57.4z M142.9,46.7c0-0.1-0.1-0.2-0.1-0.3c-0.4,0.1-0.8,0-1.1,0.2
		c-0.6,0.3-1.2,0.7-1.8,1.1c-0.3,0.2-0.7,0.5-0.8,0.8c-0.1,0.3-0.1,0.9,0.1,1.2c0.3,0.5,0.7,0.1,1.1-0.1c0.3-0.2,0.6-0.5,0.9-0.8
		C141.8,48,142.4,47.3,142.9,46.7z M130.7,94.3c-0.3,0.2-0.8,0.2-0.9,0.5c-0.1,0.2,0.1,0.7,0.3,1c0.6,1,2,1.3,3.1,0.8
		c0.1-0.1,0.2-0.3,0.2-0.4C133,95.3,131.7,94.4,130.7,94.3z M137.9,98.1c0.6-0.1,1-0.1,1.4-0.2c0.3-0.1,0.6-0.3,0.7-0.6
		s-0.3-0.6-0.5-0.7c-1-0.5-2-0.7-3-0.1c-0.2,0.1-0.5,0.4-0.5,0.6c0.1,0.2,0.3,0.5,0.5,0.6C137,97.9,137.6,98,137.9,98.1z
		 M103.8,54.7c-1.1-1.4-2.6-1.6-3.8-0.4c-0.1,0.1-0.2,0.4-0.1,0.5C101,56,102.7,55.9,103.8,54.7z M193,114.2c0.6-0.2,1.4-0.4,2-0.7
		c0.5-0.2,0.4-0.6,0-0.9c-0.2-0.1-0.4-0.2-0.6-0.2c-0.9,0-1.7,0-2.6,0c-0.3,0-0.6,0-0.7,0.4c-0.1,0.4,0.1,0.8,0.4,0.9
		C191.9,113.9,192.4,114,193,114.2z M169.4,102.6c-0.1,0.1-0.1,0.2-0.2,0.3c1.2,0.8,2.4,1.6,3.7,2.3c0.5,0.3,1.1,0.7,1.6,0.9
		c0.2,0.1,0.7-0.2,0.9-0.4c0.2-0.3-0.1-0.6-0.4-0.8c-1.3-0.5-2.6-1.1-3.8-1.6C170.6,103.1,170.1,102.8,169.4,102.6z M50.7,84.6
		c-0.1,1,0.2,1.8,0.9,2.4c0.3,0.3,0.6,0.4,0.8,0c0.1-0.2,0-0.6-0.2-0.8c-0.4-0.7-0.7-1.3-0.3-2.2c0.2-0.5,0.3-1.1,0.4-1.7
		c0-0.1-0.1-0.3-0.2-0.3c-0.1,0-0.2,0.1-0.3,0.1C51.1,82.8,50.5,83.6,50.7,84.6z M46.4,40.9c0.4,0.1,0.7,0.1,1,0.2
		c0.4,0.2,0.8,0.3,1-0.2c0.2-0.5-0.2-0.8-0.6-1c-1.3-0.5-2.5-0.1-3.7,0.5c-0.1,0.1-0.2,0.3-0.2,0.4c0,0.2,0.2,0.3,0.3,0.4
		c0.3,0,0.5,0,0.8,0C45.5,41.1,46,41,46.4,40.9z M70.3,49.1c0-0.1,0.1-0.1,0.1-0.2c-0.2-0.2-0.3-0.4-0.5-0.5
		c-1.4-0.9-2.8-1.8-4.2-2.7c-0.2-0.1-0.4-0.2-0.6-0.1c-0.3,0.1-0.5,0.3-0.7,0.5c0.2,0.2,0.3,0.4,0.5,0.5c1,0.5,2.1,0.9,3.1,1.3
		C68.7,48.3,69.5,48.7,70.3,49.1z M47.2,39.4C47.2,39.4,47.2,39.3,47.2,39.4c0.3-0.1,0.7,0,1-0.1c0.2-0.1,0.5-0.3,0.5-0.5
		c0.1-0.2,0-0.5-0.3-0.7c-1.2-0.9-2.3-0.3-3.5,0.2c-0.1,0.1-0.2,0.3-0.2,0.5c0,0.1,0.2,0.2,0.3,0.2C45.7,39.2,46.4,39.3,47.2,39.4z
		 M128.8,43.8c0.7,0,0.9-0.4,0.6-0.9c-0.7-0.9-1.4-1.7-2.2-2.5c-0.3-0.3-0.7-0.4-0.9,0c-0.1,0.2,0,0.6,0.2,0.8
		c0.6,0.8,1.3,1.5,2,2.2C128.5,43.6,128.7,43.7,128.8,43.8z M110.9,107.9c-0.2,0.2-0.5,0.3-0.5,0.4c0,0.2,0,0.6,0.2,0.8
		c0.7,0.8,1.4,1.5,2.2,2.2c0.2,0.2,0.6,0.4,0.8,0c0.1-0.2,0-0.6-0.1-0.8c-0.6-0.8-1.3-1.6-2-2.3C111.3,108.1,111.1,108,110.9,107.9z
		 M62.2,42.9c0.8,0,1.2-0.2,1.2-0.8c0-0.7-0.5-1.1-1.2-1.1c-0.7,0-1.2,0.5-1.2,1C60.9,42.5,61.4,42.9,62.2,42.9z M61.9,43.1
		c-0.7-0.1-1,0.3-1.2,0.8c0,0.2,0.2,0.6,0.5,0.8c0.3,0.2,0.8,0.3,1.1,0.2c0.3-0.1,0.8-0.4,0.8-0.6c0-0.3-0.3-0.7-0.5-1
		C62.5,43.2,62.2,43.2,61.9,43.1z M179.5,105.5c0-0.6-0.6-1-1.4-0.9c-0.6,0-1.1,0.4-1.1,0.9c0,0.4,0.8,1,1.2,1
		C178.9,106.4,179.5,105.9,179.5,105.5z M179.4,114.2c0-0.5-0.4-0.8-1.1-0.9c-0.7,0-1.4,0.4-1.4,0.8c0,0.5,0.6,0.9,1.1,0.9
		C178.8,115.2,179.4,114.7,179.4,114.2z M62.2,38.8c-0.6,0-1.2,0.5-1.2,1c0,0.4,0.6,0.8,1.1,0.8c0.6,0,1.2-0.4,1.2-0.8
		C63.3,39.2,62.8,38.8,62.2,38.8z M61.6,47.1c0,0,0.1,0.1,0.1,0.2c0.3-0.2,0.8-0.3,0.9-0.6c0.1-0.3-0.1-0.8-0.3-1
		c-0.2-0.2-0.7-0.2-1-0.2c-0.5,0-0.9,0.3-0.9,0.8c0,0.6,0.4,0.7,0.9,0.9C61.4,47.1,61.5,47.1,61.6,47.1z M177.6,112.8
		c0.7,0,1.4-0.4,1.3-0.9c0-0.4-0.6-0.8-1.2-0.8c-0.7,0-1.2,0.3-1.2,0.9C176.5,112.6,177,112.9,177.6,112.8z M61.7,36.5
		c-0.5,0-1.2,0.5-1.3,0.9c0,0.4,0.6,0.8,1.2,0.8c0.7,0,1.2-0.4,1.2-0.9C62.7,36.9,62.2,36.5,61.7,36.5z M195.1,107.4
		c0.2,0,0.4,0.1,0.6,0c0.2-0.1,0.4-0.2,0.5-0.4c0.1-0.2,0-0.6-0.1-0.6c-0.6-0.1-1.1-0.2-1.7-0.2c-0.1,0-0.3,0.4-0.3,0.7
		c0,0.2,0.3,0.4,0.5,0.5C194.8,107.5,195,107.4,195.1,107.4z M193,93.6c-0.1,0-0.2,0.1-0.2,0.1c0,1.1,0,2.1,0,3.2
		c0,0.2,0.2,0.4,0.3,0.6c0.1-0.2,0.3-0.4,0.3-0.7c0-0.8,0.1-1.5,0-2.3C193.4,94.2,193.1,93.9,193,93.6z M53.3,86.5
		c-0.1-0.3-0.2-0.6-0.2-0.9c-0.2-0.7-0.3-1.5,0.1-2.2c0.1-0.2,0-0.4,0-0.6c-0.2,0.1-0.5,0.2-0.6,0.4c-0.5,0.8-0.5,1.6-0.2,2.5
		C52.5,86.1,52.6,86.5,53.3,86.5z M191.6,93.1c-0.8,1.7-0.8,3.8,0,4.4C191.6,96,191.6,94.6,191.6,93.1z M191.7,100.1
		c-0.4,0.4-0.8,0.6-0.9,0.9c-0.1,0.5,0.2,0.8,0.8,0.8c0.5,0,0.8-0.4,0.8-0.8C192.3,100.8,192,100.5,191.7,100.1z M190.1,93.9
		c-0.8,1.1-0.8,2.8,0,3.7C190.1,96.3,190.1,95.1,190.1,93.9z M44.7,44.3c0-0.1-0.1-0.1-0.1-0.2c-0.2,0.2-0.7,0.4-0.7,0.7
		c0,0.7,0.6,0.6,1.1,0.7c0.2,0,0.7-0.2,0.7-0.4C45.7,44.6,45.4,44.2,44.7,44.3z M184.7,68.2c-0.3-0.4-0.8-0.7-0.9-1.1
		s0.3-0.8,0.5-1.3c-0.9,0.2-1.2,0.7-1.1,1.6C183.3,67.9,183.9,68.3,184.7,68.2z M48.4,54.7c-0.2,1.2-0.5,2.3,0.2,3.4
		C48.7,57,48.9,55.8,48.4,54.7z M55.6,85.8c0.9-0.4,1.1-0.6,1.2-1.1c0.1-0.6-0.4-0.8-0.8-1.1c-0.2-0.1-0.4-0.1-0.7-0.1
		c0.1,0.2,0.2,0.6,0.3,0.6c0.5,0.3,0.5,0.6,0.3,1C55.8,85.3,55.7,85.5,55.6,85.8z M188.2,97.4c0.5-0.8,0.4-2.6-0.1-3.2
		C188,95.3,187.8,96.3,188.2,97.4z M127.2,44.3c0.1-0.2,0.5-0.5,0.4-0.7c-0.1-0.3-0.5-0.6-0.8-0.7c-0.2-0.1-0.6,0.2-0.6,0.7
		C126.3,44.1,126.6,44.3,127.2,44.3z M48.3,51.5c0.3-0.3,0.6-0.5,0.7-0.8c0.1-0.3-0.1-0.7-0.6-0.7c-0.4,0-0.9,0.2-0.8,0.7
		C47.6,50.9,48,51.1,48.3,51.5z M194.7,97.4c0.4-1.1,0.4-2-0.1-2.5C194.1,95.8,194.1,96.7,194.7,97.4z M113.9,108.2
		c-0.4-0.3-0.7-0.6-1-0.7c-0.1,0-0.5,0.3-0.5,0.5c-0.1,0.5,0.3,0.8,0.7,0.8C113.2,108.8,113.4,108.5,113.9,108.2z M86.9,111.1
		c-0.4-0.3-0.7-0.6-0.9-0.6c-0.3,0.1-0.5,0.4-0.7,0.7c0.2,0.2,0.4,0.5,0.6,0.5C86.2,111.6,86.4,111.4,86.9,111.1z M50,54.8
		c-0.4,1-0.3,1.9,0,2.7C50.3,56.7,50.4,55.8,50,54.8z M153.8,41.4c0.3-0.3,0.7-0.5,0.7-0.7c0-0.2-0.4-0.6-0.5-0.6
		c-0.2,0-0.6,0.3-0.7,0.5C153.2,40.7,153.5,41,153.8,41.4z M90.3,109.1c0.3-0.3,0.6-0.6,0.6-0.7c-0.1-0.3-0.4-0.4-0.6-0.7
		c-0.2,0.2-0.5,0.4-0.6,0.7C89.7,108.5,90.1,108.8,90.3,109.1z M155.7,42c-0.1,0-0.2,0-0.3,0c-0.2,0.3-0.4,0.5-0.4,0.8
		c0,0.1,0.4,0.4,0.6,0.4c0.2,0,0.6-0.3,0.6-0.5C156.1,42.5,155.9,42.2,155.7,42z M155.2,50.8c0-0.1,0-0.2,0-0.3
		c-0.2-0.1-0.5-0.3-0.8-0.3c-0.4-0.1-0.6,0.2-0.5,0.5c0.1,0.2,0.4,0.5,0.6,0.6C154.8,51.2,155,50.9,155.2,50.8z M159.1,48.3
		c0.3-0.3,0.6-0.5,0.6-0.8c0-0.2-0.4-0.5-0.6-0.5c-0.3,0-0.5,0.3-0.8,0.5C158.6,47.7,158.8,47.9,159.1,48.3z M81.9,107.1
		c0.1,0.1,0.2,0.1,0.3,0.2c0.3-0.2,0.6-0.4,0.9-0.6c0,0-0.1-0.4-0.3-0.5c-0.2-0.1-0.7-0.1-0.7-0.1C81.9,106.4,82,106.8,81.9,107.1z
		 M147.9,42.1c0.3-0.4,0.6-0.7,0.5-0.9c0-0.2-0.4-0.5-0.6-0.5c-0.2,0-0.5,0.3-0.6,0.5C147.3,41.5,147.6,41.7,147.9,42.1z
		 M92.6,110.6c0-0.1,0-0.2,0-0.3c-0.3-0.1-0.5-0.3-0.8-0.3c-0.2,0-0.4,0.3-0.6,0.5c0.2,0.2,0.5,0.5,0.7,0.5
		C92.2,111,92.4,110.7,92.6,110.6z M143.5,37.3c0.3-0.3,0.7-0.5,0.6-0.7c-0.1-0.2-0.4-0.4-0.6-0.6c-0.2,0.2-0.5,0.5-0.7,0.7
		C143.1,36.9,143.2,37,143.5,37.3z M87.3,113c-0.2,0.6-0.1,1,0.5,0.9c0.3,0,0.7-0.4,0.7-0.5C88.4,112.6,87.8,113.1,87.3,113z
		 M80.7,105c0.3-0.3,0.6-0.6,0.6-0.8c0-0.2-0.4-0.6-0.6-0.6c-0.2,0-0.6,0.3-0.7,0.6C80.1,104.4,80.4,104.7,80.7,105z M151.3,45.1
		c-0.3,0.3-0.5,0.5-0.7,0.7c0.2,0.2,0.5,0.6,0.7,0.6c0.2,0,0.5-0.3,0.6-0.6C152,45.7,151.6,45.5,151.3,45.1z M146.8,39.1
		c0-0.1,0-0.2,0-0.3c-0.2-0.1-0.5-0.4-0.7-0.3c-0.2,0-0.4,0.3-0.6,0.5c0.2,0.2,0.4,0.6,0.6,0.6C146.3,39.6,146.6,39.3,146.8,39.1z
		 M152,39c0.3-0.3,0.6-0.6,0.5-0.7c-0.1-0.2-0.4-0.4-0.6-0.6c-0.2,0.2-0.5,0.4-0.6,0.7C151.3,38.4,151.7,38.7,152,39z M93,112.6
		c0.3,0.6,0.6,0.9,1.1,0.6c0.2-0.1,0.2-0.6,0.1-0.7C93.8,111.7,93.5,112.4,93,112.6z M157.4,44.3c-0.3,0.3-0.7,0.6-0.6,0.8
		c0,0.2,0.4,0.5,0.6,0.6c0.2,0,0.5-0.3,0.6-0.6C158,44.9,157.7,44.7,157.4,44.3z M86.6,104.4c0.3-0.3,0.7-0.6,0.7-0.7
		c-0.1-0.3-0.4-0.5-0.6-0.7c-0.2,0.2-0.6,0.4-0.6,0.6C86.1,103.8,86.4,104.1,86.6,104.4z M149.5,42.6c-0.3,0.3-0.5,0.5-0.7,0.7
		c0.2,0.2,0.4,0.5,0.7,0.5c0.2,0,0.4-0.3,0.6-0.5C150,43.1,149.8,43,149.5,42.6z M133.1,64.4c0.3,0.3,0.4,0.5,0.6,0.7
		c0.2-0.2,0.5-0.4,0.5-0.6c0-0.3-0.3-0.5-0.4-0.8C133.6,63.9,133.4,64.1,133.1,64.4z M85.3,101.9c0.3-0.4,0.6-0.6,0.6-0.7
		c-0.1-0.2-0.3-0.4-0.5-0.6c-0.2,0.2-0.5,0.4-0.6,0.6C84.7,101.3,85,101.5,85.3,101.9z M85,108.7c-0.1-0.1-0.1-0.2-0.2-0.2
		c-0.4,0.1-0.7,0.2-1.1,0.3c0,0,0,0.5,0.1,0.6c0.2,0.1,0.5,0.2,0.6,0.1C84.7,109.3,84.8,109,85,108.7z M153,48.8c0.1,0,0.2,0,0.3,0
		c0.1-0.3,0.3-0.5,0.4-0.8c0-0.1-0.4-0.3-0.5-0.3c-0.2,0-0.4,0.2-0.6,0.3C152.6,48.2,152.8,48.5,153,48.8z M88.6,105.2
		c-0.1,0-0.2,0-0.2,0c-0.2,0.3-0.3,0.5-0.5,0.8c0.2,0.1,0.4,0.3,0.6,0.3c0.2,0,0.4-0.2,0.6-0.3C88.9,105.7,88.7,105.5,88.6,105.2z
		 M106.3,86.7c-0.1,0-0.2,0-0.3,0c-0.1,0.3-0.3,0.5-0.4,0.8c0,0.1,0.3,0.3,0.5,0.4c0.1,0,0.4-0.2,0.4-0.3
		C106.5,87.2,106.4,86.9,106.3,86.7z M142.2,62.6c-0.3-0.3-0.5-0.5-0.7-0.6c-0.1,0-0.5,0.3-0.5,0.3c0.1,0.3,0.3,0.5,0.4,0.7
		C141.6,63,141.8,62.8,142.2,62.6z M51.4,57c0.5-0.6,0.4-1.8,0-2.2C51.4,55.6,51.4,56.3,51.4,57z M45.4,54.8c-0.7,0.6-0.7,0.9,0,1.7
		C45.4,55.8,45.4,55.3,45.4,54.8z M136.5,64.9c-0.5,0.5-0.7,0.8-0.4,1.1c0.1,0.1,0.4,0,0.6,0C136.7,65.7,136.6,65.4,136.5,64.9z
		 M98.5,88.6c-0.1,0-0.2,0-0.3,0c-0.1,0.3-0.2,0.6-0.1,0.9c0,0.2,0.4,0.2,0.7,0.3c0.1-0.1,0.1-0.1,0.2-0.2
		C98.8,89.2,98.7,88.9,98.5,88.6z M46.8,57.7c0.1,0,0.2,0,0.2,0c0-0.9,0.1-1.8-0.2-2.7C46.8,55.9,46.8,56.8,46.8,57.7z M138.5,64.2
		c-0.1,0.4-0.1,0.7-0.2,1.1c0.2,0,0.5,0,0.7-0.1C139.4,64.7,139,64.5,138.5,64.2z M103.1,85.6c-0.2,0.4-0.2,0.8,0.3,0.8
		c0.1,0,0.4-0.2,0.4-0.3C103.8,85.7,103.6,85.4,103.1,85.6z M100.6,86.9c0.2,0.2,0.4,0.3,0.5,0.4c0.2-0.2,0.3-0.4,0.5-0.6
		c0-0.1-0.3-0.4-0.3-0.4C101,86.5,100.9,86.7,100.6,86.9z M190.9,109c-0.1-0.1-0.2-0.2-0.3-0.3c-0.2,0.1-0.5,0.2-0.7,0.4
		c0.2,0.2,0.3,0.4,0.5,0.6C190.5,109.4,190.7,109.2,190.9,109z M50.3,39.2c0.1-0.3,0.3-0.5,0.3-0.6c-0.1-0.2-0.3-0.3-0.5-0.4
		c-0.1,0-0.3,0.3-0.3,0.4C49.9,38.8,50.1,38.9,50.3,39.2z M190.3,113c-0.3-0.2-0.5-0.3-0.7-0.3c-0.1,0-0.3,0.2-0.4,0.3
		c0.2,0.2,0.3,0.4,0.5,0.4C189.8,113.5,190,113.3,190.3,113z"/>
	<path d="M220.8,21.8c0.8-0.3,1.3-0.7,1.9-0.8c1.1-0.1,1.6,0.5,1.6,1.5c0,1.1,0,2.3,0,3.4c0,1-0.4,1.4-1.3,1.4
		c-1.4,0.1-1.4,0-1.9-1.3c-0.3-0.9-1.1-1.4-1.8-2c-1.8-1.3-3.6-2.6-5.3-3.9c-0.6-0.4-1.1-0.5-1.8-0.1c-2,1.1-4,2-5.9,3.1
		c-1.2,0.6-2.5,1.3-3.7,1.9c-0.5,0.2-0.9,0.5-0.9,1.2c0,0.6-0.6,1-1.2,1c-1.7,0.1-2,0-2.1-2.1c0-1,0.1-1.9,0.1-2.9
		c0-0.6,0.2-1.1,0.9-1.3c0.7-0.2,1.4-0.3,1.9,0.4c0.4,0.6,0.9,0.5,1.4,0.2c2.3-1.2,4.6-2.3,6.9-3.5c0.7-0.3,0.7-0.6,0.1-1.1
		c-1-0.7-2-1-3.2-0.9c-1.3,0.1-2.6,0-3.9,0c-0.5,0-0.9,0.1-1.1,0.7c-0.3,1-1.1,1.1-1.9,1c-0.8-0.1-1.3-0.7-1.3-1.6
		c0-1.1,0-2.2,0.1-3.3c0.1-0.7,0.7-1,1.5-1c1,0,1.3,0.2,1.5,1c0.1,0.5,0.5,0.8,1,0.8c5.8,0,11.6,0,17.4,0c0.7,0,1-0.4,1.3-0.9
		c0.5-1.1,2.2-1.2,2.9-0.3c0.1,0.2,0.1,0.4,0.2,0.6c0,1.1,0,2.2,0,3.3c0,0.8-0.4,1.1-1,1.4c-0.8,0.3-1.7,0-1.9-0.6
		c-0.4-1-1-1.1-1.9-1c-1.9,0-3.7,0-5.6,0c-0.1,0-0.2,0.1-0.4,0.2C216,18.3,218.4,20.1,220.8,21.8z"/>
	<path d="M174.8,19.6c0.6-0.3,1.2-0.5,1.8-0.9c1.9-1.3,3.9-2.6,5.8-3.9c1.2-0.8,2.4-1.6,3.6-2.4c1-0.7,2.1-0.7,3.2-0.5
		c1.5,0.2,2.9,0.8,3.9,2.1c1.3,1.7,0.8,3.3-0.7,4.5c-0.4,0.3-0.9,0.6-1.3,0.8c-0.4,0.2-0.4,0.3,0,0.6c0.6,0.4,1.2,0.7,1.6,1.2
		c1.5,1.4,1.5,3.4-0.1,4.8c-1.6,1.5-3.6,1.8-5.6,1.4c-1.1-0.2-2.1-1-3.1-1.7c-2.5-1.8-4.8-3.7-7.5-5.1c-0.5-0.2-0.9-0.5-1.4-0.8
		C174.9,19.8,174.9,19.7,174.8,19.6z"/>
	<path d="M17.6,134.3c0.1,0.4,0.2,0.7,0.4,1c0.2,0.2,0.5,0.5,0.7,0.5c2.4,0,4.8,0,7.2-0.1c-0.5-0.4-1.1-0.8-1.6-1.2
		c-1.8-1.3-3.5-2.6-5.3-3.9c-0.5-0.3-0.9-0.4-1.4-0.1c-1.4,0.8-2.5,0.3-2.6-1.3c-0.1-1.2,0-2.3,0.1-3.5c0.1-0.9,1.2-1.4,2-1.1
		c0.5,0.2,0.8,0.6,0.9,1.1c0.1,0.5,0.4,1.1,0.8,1.3c2.2,1.6,4.4,3.2,6.6,4.8c0.5,0.4,1.1,0.3,1.7,0c3.2-1.6,6.4-3.3,9.6-4.9
		c0.5-0.3,0.9-0.7,1-1.3c0.2-1.2,1.7-1.5,2.4-0.9c0.2,0.2,0.4,0.4,0.4,0.6c0.1,1.4,0.1,2.8,0.1,4.1c0,0.7-0.5,1.1-1.1,1.2
		c-0.6,0.2-1.2,0-1.6-0.5c-0.4-0.6-0.8-0.6-1.5-0.3c-1.7,0.9-3.4,1.8-5.1,2.6c-0.8,0.4-1.5,0.8-2.3,1.2c-0.4,0.2-0.3,0.3-0.1,0.6
		c1.1,1,2.4,1.4,3.8,1.3c1.2-0.1,2.4,0,3.6-0.1c1,0,1.1-0.1,1.5-1.1c0-0.1,0.1-0.2,0.1-0.2c0.7-0.1,1.3-0.2,2-0.2
		c0.3,0,0.6,0.6,0.7,0.9c0.1,1,0.1,2.1,0.2,3.1c0.1,1.5-0.8,1.7-2.1,1.6c-0.3,0-0.8-0.4-0.8-0.6c-0.2-0.8-0.8-0.9-1.4-0.9
		c-3.3,0-6.5-0.1-9.8-0.1c-2.4,0-4.7,0-7.1,0c-1.1,0-1.3,0.1-1.8,1.2c-0.1,0.2-0.4,0.4-0.6,0.4c-0.3,0.1-0.7,0-1,0c-0.6,0-1-0.4-1-1
		c0-1.1,0-2.3,0-3.4c0-0.8,0.4-1.1,1.1-1.1C16.7,134.3,17.1,134.3,17.6,134.3z"/>
	<path d="M64.1,132.4c-0.9,0.5-1.7,0.9-2.4,1.2c-2.4,1.2-4.3,2.9-6.5,4.4c-1,0.6-2,1.4-3,1.8c-1.8,0.7-3.6,0.3-5.2-0.7
		c-0.9-0.6-1.6-1.2-1.9-2.3c-0.3-1.3,0.1-2.3,1.1-3c0.6-0.4,1.2-0.9,1.8-1.4c-0.3-0.2-0.5-0.4-0.7-0.6c-0.5-0.4-1-0.7-1.4-1.1
		c-1.2-1.1-1.3-2.7-0.2-3.9c1.5-1.8,3.5-2.6,5.9-2c1.5,0.3,2.6,1.3,3.8,2.1c2.2,1.6,4.2,3.3,6.6,4.5C62.6,131.7,63.3,132,64.1,132.4
		z"/>
	<path d="M150.7,85.1c-0.9-0.2-1.7-0.3-2.4-0.4c-0.9-0.2-1.8-0.5-2.7-0.7c-1.4-0.3-2.8-0.7-4.2-1c-0.7-0.2-1.5-0.2-2.2-0.4
		c-0.8-0.2-1.7-0.3-2.5-0.5c-0.7-0.1-1.4-0.2-2.2-0.3c-0.8-0.1-1.5-0.2-2.2-0.3c-1.7-0.1-3.3-0.1-5-0.3c-3.3-0.4-6.5-0.2-9.8-0.2
		c-1.6,0-3.1,0.1-4.7,0.3c-0.4,0-0.8,0.2-1.2,0.3c0.1,0.2,0.3,0.5,0.4,0.8c0,0.3-0.1,0.8-0.3,0.9c-0.4,0.1-0.9,0.1-1.3,0
		c-0.3-0.1-0.2-1.3,0.2-1.7c-0.2,0-0.4-0.1-0.6,0c-0.5,0.1-0.9,0.2-1.4,0.3c-1.2,0.2-2.1-0.5-2.9-1.2c-0.8-0.7-1.6-1.3-2.4-2
		c-1.2-1-2.4-2-3.6-3c-1.5-1.2-3-2.4-4.5-3.7c-1.5-1.2-3-2.4-4.4-3.6c-0.3-0.2-0.6-0.5-0.9-0.7c-0.1-0.2-0.2-0.4-0.4-0.8
		c0.7,0.2,1.2,0.2,1.7,0.4c1.6,0.4,3.2,0.9,4.8,1.3c1.1,0.3,2.1,0.4,3.2,0.6c1.2,0.2,2.4,0.5,3.7,0.7c1.8,0.3,3.5,0.5,5.3,0.7
		c2.1,0.2,4.2,0.4,6.2,0.5c0.2,0,0.5,0,0.7,0c2.2,0,4.4,0.1,6.6,0c2.1-0.1,4.1-0.3,6.2-0.5c1.5-0.1,3-0.2,4.5-0.3
		c0.2,0,0.4,0.1,0.6,0.2c2.7,2.2,5.4,4.4,8.1,6.7c2.9,2.4,5.9,4.8,8.8,7.3C150.1,84.4,150.3,84.7,150.7,85.1z M123.6,77
		c0.3,0,0.6,0,0.9,0c0.4,0,0.8,0.1,0.9-0.6c0.1-1,0-1.5-0.7-1.7c-0.6-0.1-1.1,0-1.7,0c-0.4,0-0.6,0.2-0.7,0.6
		C122,76.4,122.4,76.9,123.6,77z M117.4,74.8c-0.8,0-1.4,0-2.1,0c-0.5,0-0.7,0.2-0.8,0.6c-0.3,1.1,0.1,1.8,1.2,1.8
		c0.5,0,1.1-0.1,1.7-0.1C117.4,76.2,117.4,75.6,117.4,74.8z M120,77.4c-0.4,0.1-1,0.1-1.2,0.4c-0.2,0.4-0.3,1-0.2,1.4
		c0.1,0.2,0.7,0.4,1,0.5c0.3,0.1,0.6,0,0.8,0c0.8-0.1,1.1-0.5,0.9-1.3C121.3,77.6,121.1,77.5,120,77.4z M120,74.1c0.2,0,0.5,0,0.8,0
		c0.6-0.1,0.7-0.6,0.7-1.1c0-0.4-0.1-0.9-0.6-0.9c-0.4-0.1-0.9-0.1-1.3,0c-0.8,0.1-1.1,0.5-1,1.4c0.1,0.8,0.7,0.6,1.1,0.7
		C119.7,74.1,119.8,74.1,120,74.1z"/>
	<path d="M133.8,69.7c2.3-0.4,4.5-0.8,6.4-1.1c0.6,0.8,1.1,1.4,1.6,2c0.3,0.3,0.4,0.6,0.1,0.9c-0.5,0.6-0.9,1.4-1.8,1.2
		c-0.4-0.1-0.8-0.5-1.2-0.8c-0.5,0.3-0.4,0.7,0,1.1c1.7,1.5,1.6,1.4,3.2-0.1c0.2-0.2,0.4-0.3,0.6-0.5c0.4-0.4,0.8-0.3,1.3,0
		c0.7,0.6,1.4,1.1,2.1,1.7c0.5,0.4,0.6,0.8,0.2,1.3c-0.3,0.4-0.7,0.8-1.1,1c-0.1,0.1-0.5-0.1-0.8-0.2c-0.4-0.1-0.8-0.2-1.1-0.1
		c-0.3,0.1,0,0.9,0.4,1.2c0.6,0.4,1.3,0.4,2-0.2c0.4-0.3,0.7-0.6,1.1-1c0.5-0.5,1.6-0.4,2,0c0.6,0.6,1.3,1.1,1.9,1.7
		c0.2,0.2,0.3,0.7,0.2,1c-0.4,0.9-1.6,1.2-2.5,0.8c-0.2-0.1-0.4,0-0.6,0c0,0.2-0.1,0.5,0.1,0.7c0.8,1.1,1.8,1.2,2.8,0.3
		c0,0,0,0,0.1-0.1c1.5-1.4,1.5-1.4,3-0.2c0.5,0.4,1,0.9,1.4,1.3c0.4,0.4,0.4,0.9-0.1,1.2c-0.3,0.3-0.6,0.6-1,0.7
		c-0.2,0.1-0.5-0.1-0.7-0.2c-0.4-0.1-0.7-0.3-1.2-0.5c0,1,0.9,2,1.7,2.1c0.2,0,0.4-0.1,0.6-0.2c0.5-0.4,1-0.8,1.6-1.2
		c0.5-0.4,1-0.4,1.5,0c0.8,0.6,1.5,1.2,2.2,1.9c0.4,0.4,0.5,0.9,0.2,1.4c-0.2,0.3-0.3,0.7-0.5,1.1c-1.3,0-2.5-0.8-3.8-1.4
		c0.3-0.2,0.6-0.5,0.9-0.6c0.5-0.3,0.9-0.1,1.3,0.2c0.2,0.1,0.5,0.1,0.8,0.1c0-0.3,0-0.6-0.1-0.8c-0.7-1.2-2.1-1.2-3,0.2
		c-0.3,0.5-0.5,1-1.2,0.4c-0.1-0.1-0.4-0.1-0.7-0.1c-1.4-0.1-2-1.2-2.6-2.3c-0.1-0.1-0.1-0.3-0.1-0.4c0-0.8,1.4-1.6,2.1-1.2
		c0.3,0.2,0.6,0.4,1,0.6c0.6-0.3,0.6-0.6,0.2-1c-0.4-0.4-0.7-0.8-1.2-1.1c-0.4-0.2-1-0.3-1.4,0.2c-0.4,0.5-0.9,0.9-1.4,1.3
		c-0.4,0.3-0.8,0.4-1.3,0.1c-0.7-0.5-1.4-1.1-2-1.6c-0.8-0.7-0.8-1.3,0-1.9c0.8-0.6,0.9-0.6,1.7-0.1c0.2,0.1,0.5,0,0.8,0
		c0-0.2,0-0.5,0-0.8c0-0.1-0.1-0.2-0.1-0.2c-0.5-0.9-1-1-1.9-0.5c-0.7,0.4-1.3,0.9-2,1.3c-0.3,0.2-0.9,0.2-1.1,0.1
		c-0.8-0.5-1.5-1.1-2.2-1.8c-0.6-0.5-0.5-1.2,0.1-1.6c0.7-0.5,1.3-0.9,2.1-0.3c0.1,0.1,0.4,0,0.5,0c0-0.2,0-0.4,0-0.6
		c-0.4-0.9-1.4-1.1-2.2-0.6c-0.6,0.4-1.2,0.7-1.7,1.2c-0.5,0.4-0.9,0.3-1.3-0.1c-0.8-0.6-1.8-1.1-2.1-2.2c-0.2-0.6,0-1.1,0.5-1.5
		c0.5-0.3,1-0.5,1.5,0c0.1,0.1,0.2,0.2,0.3,0.2c0.2,0,0.4,0,0.6,0c0-0.2,0.1-0.5-0.1-0.6c-0.2-0.3-0.6-0.6-0.9-0.8
		c-0.5-0.4-1.1-0.4-1.6,0c-0.5,0.4-0.9,0.9-1.5,1.2c-0.2,0.2-0.8,0.2-1,0C134.9,70.9,134.4,70.4,133.8,69.7z"/>
	<path d="M121.3,66.2c0.5-0.1,0.9-0.2,1.3-0.2c0.2,0,0.5,0.1,0.8,0.2c0.1,0,0.3,0,0.4,0.1c0-0.2,0-0.3,0-0.4c0-0.3,0-0.6,0-0.9
		c0.3,0,0.7-0.1,1,0c1.5,0.5,2.9,1.1,4.4,1.7c0.1,0,0.1,0.1,0.3,0.2c-1.8,0.7-3.6,1.4-5.4,2.1c0-0.5-0.1-0.8-0.1-1.3
		c-0.3,0.1-0.6,0.2-0.9,0.2c-0.5,0-0.9,0-1.4,0c-0.2,0-0.4-0.1-0.5-0.1c-0.1,0.1-0.1,0.3-0.1,0.5c0,0.6-0.3,0.9-0.9,0.7
		c-1.4-0.5-2.9-1-4.3-1.5c-0.2-0.1-0.3-0.3-0.3-0.5c0-0.1,0.2-0.3,0.3-0.3c1.6-0.6,3.1-1.1,4.7-1.6c0.4-0.1,0.7,0,0.7,0.5
		C121.3,65.6,121.3,65.8,121.3,66.2z"/>
	<path d="M118.7,84.2c0-0.2,0-0.3,0.1-0.3c0.1-1.1,0.2-1.2,1.2-0.7c1.3,0.5,2.6,0.9,3.9,1.3c0.1,0.1,0.4,0.3,0.4,0.3
		c-0.1,0.2-0.2,0.4-0.4,0.5c-0.9,0.3-1.9,0.6-2.8,0.9c-0.6,0.2-1.1,0.4-1.7,0.6c-0.2,0.1-0.6,0-0.7-0.1c-0.1-0.1,0-0.4,0-0.7
		c0-0.1,0-0.2,0.1-0.4c-0.9,0-1.8,0.7-2.6-0.1c0,0.3-0.1,0.4-0.1,0.6c0,0.3,0.1,0.8,0,0.8c-0.3,0.1-0.8,0.2-1.1,0
		c-1.2-0.7-2.6-1-3.9-1.3c-0.2-0.1-0.4-0.3-0.5-0.5c0-0.1,0.2-0.4,0.4-0.4c1-0.3,1.9-0.6,2.9-1c0.5-0.2,1.1-0.4,1.6-0.6
		c0.4-0.2,0.5,0,0.5,0.4c0.1,0.9,0.1,0.8,0.9,0.6c0.4-0.1,0.9,0,1.4,0.1C118.3,84.1,118.5,84.1,118.7,84.2z"/>
	<path d="M158.3,58.1c-0.3,0.3-0.7,0.7-1,1c-0.8,0.8-1.6,1.7-2.3,2.6c-0.4,0.4-0.6,0.4-0.9,0c-0.2-0.3-0.6-0.5-0.8-0.9
		c-0.4-0.6-0.8-1.3-1.1-2c0-0.1,0.2-0.4,0.3-0.4c1.7-0.2,3.4-0.4,5.1-0.6c0.2,0,0.4,0,0.5,0C158.2,58,158.3,58,158.3,58.1z"/>
	<path d="M82.1,60c-1.2-1-2.5-2.1-3.7-3.3c-0.2-0.2-0.2-0.5-0.3-0.7c0.2,0,0.5-0.1,0.7-0.1c1.6,0.1,3.2,0.2,4.9,0.3
		c0.5,0,0.7,0.4,0.4,0.8c-0.2,0.4-0.4,0.8-0.6,1.2c-0.1,0.1-0.1,0.2-0.2,0.3C82.9,59,82.5,59.6,82.1,60z"/>
	<path d="M81.4,93.7c0.5-0.5,0.9-0.9,1.3-1.3c0.7-0.8,1.4-1.6,2-2.4c0.2-0.3,0.4-0.4,0.7-0.1c0.9,0.8,1.8,1.7,2.1,2.9
		c0,0.1-0.2,0.5-0.4,0.5c-1,0.1-2.1,0.2-3.1,0.3c-0.6,0.1-1.2,0.2-1.9,0.3C81.9,93.9,81.7,93.8,81.4,93.7z"/>
	<path d="M143.1,87.7c-0.8,0.7-5.5,0.9-6.2,0.2c0.3-0.5,0.9-0.9,0.6-1.7c0,0,0.1-0.1,0.1-0.2c0.3-0.5,0.7-1,1.1-1.5
		C140.1,85.5,141.6,86.6,143.1,87.7z"/>
	<path d="M106.3,65.8c2-0.3,3.9-0.6,6.1-1c-0.4,1.4-0.8,2.8-1.2,4.3c-1.7-1.1-3.3-2.1-4.9-3.2C106.2,65.9,106.2,65.8,106.3,65.8z"/>
	<path d="M87.4,60.7c2,0,4.1,0,6.3,0c-0.9,1.4-1.7,2.6-2.4,3.7C89.9,63.2,88.7,61.9,87.4,60.7z"/>
	<path d="M161.1,95.6c-1.6,0-3.2-0.1-4.8-0.1c-0.4,0-0.7-0.3-0.5-0.6c0.6-1,1.2-2,1.8-2.9c0.1-0.1,0.5,0,0.6,0.1
		c0.5,0.5,0.9,1,1.4,1.5c0.6,0.5,1.2,0.9,1.8,1.5c0.1,0.1,0.2,0.4,0.3,0.6c-0.2,0.1-0.4,0.2-0.6,0.3
		C161.1,95.8,161.1,95.7,161.1,95.6z"/>
	<path d="M149.4,62.1c-1,0.7-1.9,1.4-2.9,2.2c-0.4,0.3-0.7,0.6-1.1,0.9c-0.1,0.1-0.5,0.1-0.6,0c-0.4-0.6-0.8-1.3-1.1-1.9
		c-0.2-0.4-0.4-0.7-0.6-1.2c2.1-0.5,4.2-0.3,6.2-0.2C149.3,61.9,149.4,62,149.4,62.1z"/>
	<path d="M146.4,90.8c0.4-1.4,1.3-2.4,2.3-3.6c1.3,1.3,2.6,2.6,3.8,3.8c0,0.1,0,0.1,0,0.2C150.5,91,148.5,90.9,146.4,90.8z"/>
	<path d="M128.8,82.9c1.6,0.9,3.1,1.9,4.8,2.9c-0.2,0.1-0.3,0.2-0.4,0.2c-0.8,0.1-1.6,0.2-2.3,0.3c-0.9,0.2-1.7,0.3-2.6,0.5
		c-0.4,0.1-0.7-0.1-0.6-0.5c0.1-0.5,0.1-1.1,0.2-1.6c0.1-0.3,0.3-0.5,0.4-0.7C128.5,83.7,128.6,83.3,128.8,82.9z"/>
	<path d="M96.8,63.8c1.9-0.2,3.9-0.3,5.9-0.5c-0.1,1.5-0.7,2.7-1.6,3.9c-1.4-1.1-2.9-2.2-4.4-3.3C96.8,63.9,96.8,63.8,96.8,63.8z"/>
	<path d="M98.8,82.9c-0.3,0.4-0.6,0.4-1,0.1c-1.2-0.9-2.7-2.2-3.1-3.2c0.7,0.5,1.3,1,2,1.5C97.5,81.9,98.1,82.4,98.8,82.9z"/>
	<path d="M117.1,64.3c0.1,0.6-0.3,0.8-0.7,0.9c-0.6,0.1-1.2-0.4-1.2-0.9c0-0.4,0.6-0.9,1-0.9C116.8,63.4,117.2,63.6,117.1,64.3z"/>
	<path d="M113.9,67.9c-0.6,0-1-0.3-0.9-0.9c0-0.6,0.4-0.8,1-0.7c0.6,0,0.9,0.3,0.9,0.8C114.9,67.5,114.5,67.9,113.9,67.9z"/>
	<path d="M99.9,84.2c0-0.5,0.2-0.8,0.7-0.8c0.6,0,1.1,0.4,1.1,0.9c0,0.5-0.4,1-0.9,1C100.4,85.3,99.9,84.8,99.9,84.2z"/>
	<path d="M110.9,88.3c-0.6,0.1-0.8-0.3-0.8-0.8c-0.1-0.5,0.4-0.8,1-0.8c0.6,0,0.9,0.3,0.9,0.8C112,88,111.6,88.3,110.9,88.3z"/>
	<path d="M143.3,86.1c-0.5,0-1-0.4-1-0.9c0.1-0.5,0.3-0.8,0.9-0.8c0.6,0,1,0.3,1,0.8C144.3,85.7,143.9,86.1,143.3,86.1z"/>
	<path d="M149.6,65.4c-0.6,0-0.9-0.2-0.9-0.8c0-0.6,0.3-0.9,0.9-0.8c0.6,0,0.9,0.3,0.9,0.9C150.5,65.2,150.2,65.4,149.6,65.4z"/>
	<path d="M116.3,68.7c0.6-0.1,0.9,0.1,0.8,0.8c0,0.5-0.4,0.9-0.9,0.9c-0.5,0-0.9-0.4-0.9-1C115.3,68.7,115.8,68.6,116.3,68.7z"/>
	<path d="M76.6,56.5c-0.7,0-1-0.3-0.9-0.9c0.1-0.5,0.4-0.8,0.9-0.8c0.5,0,0.9,0.3,0.9,0.9C77.5,56.2,77.1,56.5,76.6,56.5z"/>
	<path d="M130.3,66.9c0-0.6,0.3-0.9,0.9-0.9c0.5,0,0.9,0.2,0.9,0.8c0,0.5-0.4,0.9-1,0.9C130.7,67.8,130.3,67.4,130.3,66.9z"/>
	<path d="M145.6,88.1c0,0.6-0.4,0.8-0.9,0.8c-0.5,0-0.9-0.2-0.9-0.8c0-0.6,0.3-0.9,0.8-0.9C145.2,87.2,145.6,87.7,145.6,88.1z"/>
	<path d="M108.7,84.2c0.6,0,1,0,1,0.7c0,0.6-0.4,0.9-1,0.9c-0.6,0-0.8-0.4-0.8-0.9C107.8,84.2,108.2,84.1,108.7,84.2z"/>
	<path d="M92.2,92.8c-0.6,0-0.9-0.2-0.9-0.8c0-0.6,0.4-0.8,1-0.8c0.6,0,0.7,0.4,0.8,0.8C93.2,92.4,92.8,92.8,92.2,92.8z"/>
	<path d="M150.6,93.9c-0.5,0.1-0.8-0.2-0.9-0.8c-0.1-0.5,0.4-0.9,1-0.9c0.5,0,1,0.4,0.9,0.9C151.5,93.6,151.2,93.9,150.6,93.9z"/>
	<path d="M139.8,67.5c0.1,0.7-0.4,0.8-0.9,0.9c-0.5,0.1-0.9-0.4-0.9-0.9c0-0.6,0.4-0.7,0.9-0.7C139.5,66.7,139.9,66.8,139.8,67.5z"
		/>
	<path d="M77.5,59.5c-0.5,0-0.8-0.2-0.8-0.8s0.3-0.8,0.8-0.8c0.6,0,1,0.3,1,0.8C78.5,59.2,78.1,59.5,77.5,59.5z"/>
	<path d="M159.1,59.7c0.5,0,0.9,0.4,0.9,0.9c0,0.6-0.5,0.7-0.9,0.8c-0.5,0.1-1-0.4-1-0.9C158.1,60,158.5,59.7,159.1,59.7z"/>
	<path d="M157,56c0.1,0.6-0.3,0.8-0.8,0.8c-0.6,0-1-0.4-1-0.9c0-0.4,0.5-0.9,1-0.8C156.6,55.2,157.1,55.4,157,56z"/>
	<path d="M159.6,56.6c0.6,0,1,0.2,1.1,0.8c0.1,0.4-0.5,1-1,0.9c-0.4-0.1-0.9-0.3-0.9-0.9C158.8,56.8,159.2,56.7,159.6,56.6z"/>
	<path d="M96.5,67.3c-0.6,0-0.9-0.3-0.9-0.9c0-0.6,0.4-0.8,0.9-0.8c0.6,0,0.9,0.3,0.9,0.8C97.4,66.9,97.1,67.3,96.5,67.3z"/>
	<path d="M106.2,67.7c0.7,0,0.9,0.3,1,0.8c0,0.7-0.5,0.8-0.9,0.8c-0.6,0.1-0.9-0.3-0.9-0.8C105.3,67.9,105.6,67.7,106.2,67.7z"/>
	<path d="M151.7,61.5c0,0.7-0.4,1-0.9,1.1c-0.4,0.1-0.9-0.5-0.9-1c0-0.7,0.4-0.8,0.9-0.8C151.4,60.8,151.7,61,151.7,61.5z"/>
	<path d="M94.3,63.6c-0.1-0.6,0.3-0.8,0.8-0.8c0.7,0,1,0.3,1,0.9c0,0.7-0.5,0.8-1,0.8C94.7,64.4,94.2,64.2,94.3,63.6z"/>
	<path d="M125.8,83.9c0.7,0.1,1.1,0.2,1.1,0.9c0,0.6-0.3,0.8-0.8,0.8c-0.6,0.1-0.9-0.4-0.9-0.9C125.1,84.2,125.3,83.8,125.8,83.9z"
		/>
	<path d="M104.5,66.4c-0.6,0.1-0.9-0.2-0.9-0.8c0-0.5,0.5-0.9,1.1-0.8c0.5,0.1,0.7,0.3,0.7,0.8C105.4,66.3,105.1,66.6,104.5,66.4z"
		/>
	<path d="M107.4,64.2c-0.5,0-0.9-0.2-0.9-0.7c0-0.6,0.4-0.8,0.9-0.9s0.9,0.4,0.9,0.9C108.3,64.1,108.1,64.2,107.4,64.2z"/>
	<path d="M135.3,86.7c-0.6,0-1-0.3-1-0.7c0-0.6,0.4-0.8,0.9-0.8c0.4,0,0.9,0.1,1,0.7C136.3,86.4,136,86.6,135.3,86.7z"/>
	<path d="M99.1,61.6c0,0.6-0.3,0.9-0.9,0.9c-0.4,0-0.9-0.5-0.9-1c0-0.6,0.4-0.8,0.9-0.8C98.8,60.8,99.1,61,99.1,61.6z"/>
	<path d="M147.5,59c0.6-0.1,0.9,0.2,0.9,0.8c0,0.6-0.3,0.8-0.9,0.8c-0.6,0-0.8-0.3-0.8-0.8C146.7,59.2,146.9,58.9,147.5,59z"/>
	<path d="M86.6,64c-0.6,0.1-0.8-0.3-0.8-0.8c0-0.5,0.3-0.8,0.8-0.9c0.5,0,0.9,0.4,0.9,0.9C87.5,63.9,87.2,64,86.6,64z"/>
	<path d="M123.6,86.7c0.5-0.1,0.8,0.1,0.8,0.7c0,0.6-0.4,1-0.9,0.9c-0.4,0-0.9-0.6-0.9-1C122.7,86.9,123,86.7,123.6,86.7z"/>
	<path d="M123.5,83.1c-0.6,0-0.9-0.3-0.9-0.8c0-0.6,0.4-0.8,0.9-0.8c0.6,0,0.9,0.3,0.9,0.9C124.4,82.9,124.2,83.1,123.5,83.1z"/>
	<path d="M84.9,60c0-0.4,0.3-0.7,0.9-0.7c0.5,0,0.9,0.2,0.9,0.8c0,0.4-0.5,1-0.9,1C85.3,61.1,84.9,60.7,84.9,60z"/>
	<path d="M128.9,70.1c-0.8,0-1-0.2-1-0.8c0-0.5,0.4-0.9,0.9-0.8c0.5,0.1,0.8,0.3,0.8,0.9C129.6,69.8,129.5,70.2,128.9,70.1z"/>
	<path d="M154.1,90.8c0.6-0.1,0.8,0.2,0.8,0.7c0,0.5-0.2,0.9-0.8,0.9c-0.4,0-1-0.5-1-0.9C153.2,91,153.5,90.7,154.1,90.8z"/>
	<path d="M90.2,86.4c0.6,0,0.8,0.3,0.8,0.8c0,0.5-0.4,0.9-0.9,0.9c-0.5,0-1-0.4-0.9-0.9C89.4,86.6,89.7,86.3,90.2,86.4z"/>
	<path d="M162.2,92.2c0.6,0,1,0.1,1,0.8c0,0.4-0.5,0.9-0.9,0.9c-0.5,0-0.9-0.4-0.9-0.9C161.4,92.4,161.7,92.1,162.2,92.2z"/>
	<path d="M141.4,90.8c-0.5,0.1-0.8-0.2-0.8-0.8c0-0.7,0.4-0.8,1-0.8c0.5,0,0.9,0.1,0.9,0.7C142.5,90.6,142.2,90.8,141.4,90.8z"/>
	<path d="M153.2,89.2c-0.6,0.1-1-0.1-0.9-0.7c0-0.6,0.5-0.7,0.9-0.8c0.5-0.1,1,0.4,0.9,0.8C154.1,89.1,153.8,89.3,153.2,89.2z"/>
	<path d="M88.9,90.8c-0.6,0.1-0.8-0.3-0.8-0.8c0-0.5,0.4-0.7,0.9-0.7c0.5,0,0.9,0.2,1,0.7C90,90.5,89.6,90.8,88.9,90.8z"/>
	<path d="M80.6,95.3c-0.6-0.4-1.4-0.2-1.4-1.1c0-0.2,0.3-0.6,0.6-0.6c0.4-0.1,1.1-0.3,1.2,0.3C81.1,94.3,80.8,94.8,80.6,95.3z"/>
	<path d="M159.8,98.3c-0.6,0.1-0.9-0.1-0.8-0.7c0-0.6,0.4-0.8,0.9-0.8c0.5,0,0.9,0.1,0.9,0.8C160.7,98.3,160.3,98.3,159.8,98.3z"/>
	<path d="M132.3,88.9c-0.5,0.1-0.8-0.1-0.8-0.7c0-0.6,0.2-0.9,0.9-0.8c0.5,0,0.8,0.2,0.8,0.7C133.4,88.7,133.1,88.9,132.3,88.9z"/>
	<path d="M163.3,95.2c0.5-0.1,0.8,0.2,0.8,0.7c0,0.5-0.5,0.9-0.9,0.9c-0.5-0.1-0.8-0.5-0.9-0.9C162.2,95.6,162.7,95.2,163.3,95.2z"
		/>
	<path d="M128.9,63.4c0.6-0.1,0.7,0.3,0.7,0.8c0,0.5-0.3,0.9-0.8,0.8c-0.5,0-0.9-0.3-0.9-0.8C127.9,63.7,128.3,63.4,128.9,63.4z"/>
	<path d="M79.9,54.8c-0.6,0.2-0.8-0.2-0.9-0.7c-0.1-0.5,0.4-0.8,1-0.8c0.5,0,0.8,0.3,0.8,0.8C80.8,54.7,80.6,54.9,79.9,54.8z"/>
	<path d="M89.3,59.3c-0.6,0-1,0-1-0.7c0-0.5,0.2-0.7,0.8-0.7c0.6,0,1,0.1,1,0.7C90.1,59.1,89.8,59.4,89.3,59.3z"/>
	<path d="M80.8,91.9C80.2,92,80,91.7,80,91.2c0-0.6,0.3-0.8,0.8-0.8c0.5,0,0.8,0.2,0.9,0.8C81.7,91.8,81.3,92,80.8,91.9z"/>
	<path d="M133.6,83.9c-0.6,0.1-0.9-0.1-0.9-0.7c0-0.5,0.2-0.7,0.8-0.7c0.6,0,1,0.2,1,0.8C134.5,83.8,134.1,84,133.6,83.9z"/>
	<path d="M83.7,96.3c-0.6,0.1-0.8-0.2-0.9-0.7c-0.1-0.4,0.4-0.8,0.9-0.8c0.6,0,0.8,0.4,0.8,0.9C84.5,96.3,84.2,96.4,83.7,96.3z"/>
	<path d="M73.2,107.2c-1.6,0.8-3.2,1.4-4.7,2.3c-2.2,1.4-4.3,2.9-6.5,4.4c-2,1.4-3.9,2.8-5.8,4.1c-2.1,1.4-4.5,1.6-6.9,1.1
		c-2.1-0.5-3.9-1.4-5.2-3.1c-1.7-2.1-1.5-4.7,0.6-6.5c0.5-0.4,1.1-0.9,1.6-1.2c0.6-0.4,1.2-0.7,1.9-1c-0.9-0.5-1.7-0.9-2.4-1.5
		c-0.9-0.7-1.7-1.5-2.3-2.5c-0.7-1.2-0.7-2.5-0.1-3.8c1.2-2.4,3.3-3.6,5.8-4.3c3.2-0.8,5.9,0.2,8.4,2.1c2.5,1.8,5,3.6,7.5,5.4
		c2.4,1.8,5,3.2,7.9,4.3C72.9,107,73,107.1,73.2,107.2z"/>
	<path d="M192.4,45.4c0.7,0.4,1.5,0.9,2.3,1.5c1.6,1.1,2.7,2.6,2.6,4.7c-0.1,1.5-0.9,2.7-2,3.6c-1.1,1-2.4,1.8-3.9,2.1
		c-1.4,0.3-2.8,0.4-4.3,0.2c-2.3-0.3-3.8-1.8-5.6-3c-1.4-0.9-2.6-2-4-2.9c-1.2-0.9-2.4-1.8-3.7-2.6c-1.4-0.9-2.8-1.6-4.3-2.4
		c-0.8-0.4-1.6-0.7-2.4-1.1c0-0.1,0-0.2,0-0.3c0.5-0.2,1-0.4,1.4-0.6C172,43,175,41,178,38.8c2.1-1.5,4.2-3,6.4-4.5
		c1.6-1,3.3-1.2,5.2-1.1c1.8,0.1,3.5,0.6,4.9,1.7c1.5,1.1,2.6,2.4,2.8,4.3c0.1,1.3-0.3,2.6-1.3,3.5
		C194.9,43.6,193.6,44.5,192.4,45.4z"/>
	<path d="M187.1,73.2c-0.3,0.7-0.1,1.3,0.4,1.8c1.8,1.8,1.7,3.5,0.7,5.5c-0.4,0.9-1,1.7-1.6,2.5c-0.1,0.2-0.4,0.3-0.7,0.4
		c-0.1-0.1-0.1-0.1-0.2-0.2c0.2-0.4,0.4-0.9,0.7-1.3c0.4-0.7,0.9-1.3,1.3-2c0.9-1.4,0.6-3.6-0.6-4.6c-0.1-0.1-0.3-0.1-0.5-0.1
		c0,0.2-0.1,0.3-0.1,0.5c0.1,0.5,0.4,1,0.5,1.6c0.5,2.1-0.3,3.9-1.7,5.4c-0.1,0.2-0.4,0.3-0.6,0.3c-0.2,0.1-0.5,0.1-0.7-0.1
		c-0.1,0-0.1-0.4,0-0.6c0.3-0.7,0-1.3-0.4-1.8c-0.7-1-0.9-2-0.7-3.2c0.1-0.3-0.2-0.7-0.3-1c-0.3,0.1-0.6,0.1-0.8,0.3
		c-0.4,0.3-0.6,0.7-1,1c-0.2,0.1-0.4,0.2-0.6,0.2c0-0.2-0.1-0.6,0-0.7c0.6-0.5,1.2-0.9,1.8-1.5c0.4-0.4,0.8-0.8,1.2-1.2
		c0.2-0.2,0.3-0.3,0.5-0.4c0.7-0.3,1.4-0.7,2.1-1c0.3-0.1,0.6-0.2,0.9-0.2C187,73.1,187,73.1,187.1,73.2z M185.2,76.8
		c-0.9-0.2-1.5,0.1-1.6,0.8c-0.3,0.9,0.2,1.6,1.4,2.1c0.5-0.3,0.4-0.7,0-1c-0.1-0.1-0.3-0.2-0.4-0.3c-0.3-0.3-0.6-0.7,0.1-1
		C184.9,77.4,185,77.1,185.2,76.8z"/>
	<path d="M173.8,69.4c0.5,1.1-0.4,2.5,0.2,3.8c0.1,0.2,0,0.4-0.1,0.6c-0.2,0.4-0.3,0.8-0.1,1.2c0,0.1,0.1,0.2,0.1,0.2
		c-0.2,0.2-0.4,0.5-0.7,0.6c-0.4,0.2-1,0.2-1.4,0.3c0-0.2-0.1-0.6,0-0.7c0.8-1,0.8-1.9,0.1-3c-0.4-0.6-0.3-1.3,0.1-1.9
		c0.4-0.6,0.4-1.1,0.1-1.7c-0.1-0.3,0-0.6-0.1-0.9c0.3,0,0.6,0.1,0.9,0.1C173.5,68.2,174,68.4,173.8,69.4z"/>
	<path d="M189.8,77.8c-0.2-0.6-0.5-1.6-0.9-2.5c-0.1-0.3-0.2-0.5-0.3-0.8c0-0.3,0.1-0.7,0.2-0.8c0.3-0.1,0.8,0,1,0.2
		c1,0.9,1.3,2.2,1.2,3.5c-0.1,1.8-0.5,3.6-1.5,5.1c-0.1,0.2-0.3,0.5-0.6,0.6c-0.2,0.1-0.5,0.1-0.8,0.1c0-0.3,0-0.6,0.1-0.8
		C189.2,81.1,189.8,79.8,189.8,77.8z"/>
	<path d="M171.1,69.8c-0.1,0.3-0.1,0.7-0.3,0.9c-0.5,0.7-0.2,1.4,0.1,2.1c0.1,0.2,0,0.4,0,0.7C169.5,72.1,169.5,70.8,171.1,69.8z"/>
	<path d="M54.3,69.3c0.2-0.3,0.3-0.6,0.5-0.8c0.2-0.2,0.6-0.2,0.9-0.1c0.1,0,0.2,0.5,0.1,0.8c-0.3,0.6-0.1,1.2,0.2,1.6
		c0.9,1,1,2.2,0.9,3.5c0,0.2,0.1,0.5,0.1,0.7c0.2-0.1,0.5-0.1,0.7-0.2c0.4-0.3,0.6-0.8,1-1.1c0.2-0.2,0.6-0.1,0.9-0.2
		c0,0.3,0.1,0.8-0.1,0.9c-0.7,0.6-1.5,1.2-2.2,1.7c-0.4,0.2-0.8,0.5-0.8,0.9c0,0.5-0.3,0.7-0.6,0.7c-0.9-0.1-1.5,0.5-2.2,0.9
		c-0.2,0.1-0.5,0.2-0.7,0.2c-0.1-0.1-0.2-0.4-0.2-0.6c0.1-0.6-0.1-0.9-0.5-1.3c-1.5-1.6-1.9-3.1-0.9-5.2c0.3-0.7,0.7-1.5,1.1-2.2
		c0.3-0.5,0.7-0.9,1.2-1.5c0.1,0.5,0.2,0.9,0.3,1.2C54.1,69.2,54.2,69.3,54.3,69.3z M53.7,69.8c-0.3,0.1-0.4,0.2-0.5,0.2
		c-0.5,0.9-1.1,1.7-1.4,2.6c-0.4,1.3,0,2.5,0.9,3.5c0.1,0.1,0.3,0.1,0.5,0.2c0-0.2,0.1-0.4,0-0.5c-0.2-0.4-0.5-0.7-0.6-1.1
		c-0.4-1.2-0.1-2.3,0.4-3.4C53.2,70.9,53.4,70.4,53.7,69.8z M54.4,72.3c0.3,0.3,0.5,0.6,0.7,0.7c0.6,0.4,0.6,0.8,0.1,1.2
		c-0.1,0.1-0.2,0.2-0.4,0.3c0.4,0.4,0.7,0.1,0.9-0.1c0.5-0.3,0.7-0.7,0.4-1.3C55.9,72.6,55.3,72.2,54.4,72.3z"/>
	<path d="M65.7,82.3c0-1.3,0-2.5,0-3.8c0-0.1,0-0.2,0-0.3c0.2-0.7,0.4-1.5,0.7-2.2c0.2-0.3,0.7-0.6,1.1-0.8c0.2-0.1,0.5,0,0.6,0.1
		c0.1,0.2,0.1,0.5,0.1,0.7c-0.1,0.3-0.4,0.6-0.4,0.9c-0.1,0.5-0.2,1.1,0,1.5c0.6,1,0.7,1.9,0,2.9c-0.3,0.5-0.2,1,0.1,1.5
		c0.1,0.2,0,0.6,0,0.8c-0.3,0-0.6,0.1-0.8,0c-0.6-0.3-1.3-0.4-1.1-1.4C65.9,82.3,65.8,82.3,65.7,82.3z"/>
	<path d="M48.7,74.1c-0.1-1.7,0.4-3.4,1.3-4.9c0.2-0.2,0.3-0.6,0.6-0.7c0.3-0.1,0.7,0,1,0c0,0.3,0.1,0.6,0,0.8
		c-0.3,0.7-0.7,1.4-1,2.1c-0.8,1.6-0.5,3.2,0.2,4.8c0.2,0.4,0.4,0.7,0.5,1.1c0,0.3,0,0.6-0.2,0.8c-0.1,0.1-0.5,0.2-0.7,0.1
		c-1.1-0.5-1.4-1.5-1.6-2.6C48.7,75.1,48.7,74.6,48.7,74.1z"/>
	<path d="M68.7,81.9c0.2-0.6,0.5-1.3,0.5-1.9c0-0.7-0.4-1.3-0.6-2c0.9,0.3,1.4,1.1,1.4,1.9C70.1,80.8,69.6,81.5,68.7,81.9z"/>
	<path d="M115.6,34.1c0,0.3,0,0.7,0,1c0,0.7-0.2,0.9-0.9,0.9c-0.8,0-0.9,0-0.9-0.9c0-0.7,0-1.3,0-2c0-0.7,0.3-1,0.9-1
		c0.6,0,0.9,0.3,0.8,1C115.6,33.4,115.6,33.8,115.6,34.1L115.6,34.1z"/>
	<path d="M124.3,34.2c0,0.3,0,0.7,0,1c0.1,0.6-0.2,0.9-0.8,0.8c-0.8,0-0.9-0.1-1-0.9c0-0.6,0-1.3,0-1.9c0-0.8,0.4-1.1,1-1
		c0.7,0,0.8,0.5,0.8,1.1C124.3,33.5,124.3,33.9,124.3,34.2z"/>
	<path d="M118.5,34.1c0,0.3,0,0.6,0,0.9c0,1,0,1-1,1c-0.6,0-0.7-0.4-0.8-0.8c-0.1-0.7-0.1-1.5,0-2.2c0-0.7,0.4-1,1-0.9
		c0.7,0,0.8,0.5,0.8,1C118.5,33.5,118.5,33.8,118.5,34.1z"/>
	<path d="M112.7,34.2c0,0.3,0,0.5,0,0.8c0,0.9-0.1,1-1,1c-0.5,0-0.7-0.2-0.6-0.7c0-0.8,0-1.7,0-2.5c0-0.5,0.3-0.7,0.8-0.8
		c0.5,0,0.8,0.2,0.9,0.8C112.7,33.3,112.7,33.8,112.7,34.2z"/>
	<path d="M121.6,34.2c0,0.3,0,0.6,0,0.9c0,0.8-0.2,1-1,0.9c-0.5,0-0.7-0.2-0.7-0.7c0-0.8,0-1.6,0-2.4c0-0.5,0.2-0.8,0.7-0.8
		c0.5-0.1,0.8,0.2,0.9,0.7C121.6,33.3,121.5,33.8,121.6,34.2C121.5,34.2,121.5,34.2,121.6,34.2z"/>
	<path d="M109.8,34.2c0,0.3,0,0.5,0,0.8c0,1.2-0.3,1-1.2,0.9c-0.2,0-0.4-0.4-0.4-0.6c-0.1-0.8-0.1-1.7,0-2.5c0-0.4,0.2-0.8,0.8-0.8
		c0.5,0,0.8,0.3,0.8,0.7C109.8,33.3,109.7,33.7,109.8,34.2C109.8,34.2,109.8,34.2,109.8,34.2z"/>
</g>
</svg>
