<?xml version="1.0" encoding="utf-8"?>
<!-- Generator: Adobe Illustrator 26.0.1, SVG Export Plug-In . SVG Version: 6.00 Build 0)  -->
<svg version="1.1" id="Layer_1" xmlns="http://www.w3.org/2000/svg" xmlns:xlink="http://www.w3.org/1999/xlink" x="0px" y="0px"
	 viewBox="0 0 238.1 150.2" style="enable-background:new 0 0 238.1 150.2;" xml:space="preserve">
<g>
	<g>
		<path d="M24.7,3.9C24.8,4,25,4.1,25.1,4.1c1.2,0.4,1.9,1,2,2.2c0,1-0.6,1.7-1.6,2C24.2,8.7,23,8.9,22,8c-0.4-0.4-0.6-1.1-0.8-1.6
			c-1,0.4-1.6,1.2-1.4,2.2s0.7,1.6,1.9,1.6c4.7,0.1,9.3,0.4,14,0.4c29.2,0,58.4,0,87.7,0c17.3,0,34.7,0,52,0c11.5,0,23-0.1,34.5-0.2
			c0.9,0,1.7-0.2,2.6-0.2c1.1-0.1,1.7-0.6,1.8-1.6c0.1-1.1-0.2-1.9-1.4-2.3c-0.4,1.9-1.3,2.5-3.2,2.3c-1.4-0.2-2.4-1-2.6-2.1
			c-0.1-1.1,0.6-1.9,2.1-2.4c0.1,0,0.2-0.1,0.3-0.2c0.9,0,1.8,0,2.7,0c0.8,0.4,1.6,0.7,2.3,1.1c1.7,1,2.2,2.6,1.8,4.3
			c-0.5,1.8-1.5,2.7-3.7,3c-0.8,0.1-1.6,0.2-2.5,0.2c-8.2,0-16.5-0.1-24.7-0.1c-17.2,0-34.4,0-51.6,0c-31.9,0-63.9,0-95.8,0
			c-4.6,0-9.1,0.1-13.7,0.1c-0.9,0-1.7,0-2.6-0.2c-2.3-0.3-3.5-1.4-3.8-3.4c-0.3-1.8,0.7-3.5,2.6-4.3c0.6-0.3,1.2-0.5,1.8-0.7
			C23,3.9,23.8,3.9,24.7,3.9z"/>
		<path d="M209.4,144.5c-0.1-0.1-0.3-0.2-0.4-0.2c-1.2-0.4-1.9-1-2-2.2c0-1,0.6-1.6,1.5-2c1.1-0.5,2.4-0.6,3.4,0.2
			c0.5,0.4,0.7,1.1,1,1.8c1-0.4,1.5-1.2,1.3-2.3c-0.1-1-0.7-1.5-1.9-1.6c-4.3-0.1-8.6-0.3-12.9-0.3c-25.4,0-50.9,0-76.3,0
			c-31,0-62,0-93,0c-2.8,0-5.7,0.2-8.5,0.3c-1.1,0-1.7,0.6-1.9,1.5c-0.2,1,0.4,1.8,1.3,2.2c0.5-0.7,0.8-1.6,1.5-1.8
			c0.8-0.3,1.9-0.2,2.8,0c1,0.2,1.6,0.9,1.7,1.9s-0.5,1.7-1.5,2.1c-0.3,0.1-0.6,0.3-0.9,0.4c-0.8,0-1.7,0-2.5,0
			c-0.5-0.2-0.9-0.3-1.4-0.5c-2.8-1.1-4-3.9-2.3-6.2c0.5-0.7,1.6-1.3,2.5-1.6s1.9-0.3,2.9-0.3c20.8,0,41.6,0.1,62.4,0.1
			c10.5,0,21.1,0.1,31.6,0.1c28.1,0,56.2,0,84.3-0.1c2.5,0,5-0.1,7.5-0.1c0.8,0,1.7,0,2.5,0.1c2.6,0.3,3.8,1.4,4.1,3.6
			c0.2,1.8-1.1,3.6-3.2,4.4c-0.4,0.1-0.8,0.3-1.2,0.4C211.1,144.5,210.3,144.5,209.4,144.5z"/>
		<path d="M226.3,140.5c-1.2,2.1-2.7,3-4.7,2.6c-1.8-0.3-2.9-1.5-3-3.1s1-3,2.7-3.5c1.6-0.5,3.4,0.1,4.3,1.4c0.2,0.3,0.4,0.7,0.7,1
			C226.3,139.4,226.3,140,226.3,140.5z M222.5,141.8c1.2,0,2.1-0.9,2.1-2s-1-1.9-2.2-1.9s-2.1,0.9-2.1,2
			C220.3,140.9,221.3,141.8,222.5,141.8z"/>
		<path d="M7.8,138.9c0.8-1.5,1.9-2.7,4-2.6c1.8,0.1,3.4,1.4,3.6,3c0.3,1.5-0.7,3-2.3,3.6c-1.8,0.6-3.8,0.1-4.8-1.4
			c-0.2-0.3-0.4-0.6-0.6-0.8C7.8,140.1,7.8,139.5,7.8,138.9z M11.6,141.7c1.2,0,2.1-0.8,2.1-1.9c0-1.1-0.9-1.9-2.1-1.9
			s-2.1,0.8-2.1,1.9S10.5,141.7,11.6,141.7z"/>
		<path d="M226.3,9.5c-0.1,0.2-0.3,0.4-0.4,0.6c-1,1.6-2.4,2.2-4.3,1.8c-1.7-0.4-2.9-1.7-2.9-3.3s1.1-2.9,2.7-3.3
			c1.8-0.4,3.5,0.3,4.5,1.8c0.2,0.3,0.3,0.5,0.4,0.8C226.3,8.4,226.3,9,226.3,9.5z M220.3,8.5c0,1.1,0.9,2,2.1,2
			c1.2,0,2.2-0.8,2.2-1.9c0-1-0.9-2-2.1-2C221.3,6.6,220.3,7.5,220.3,8.5z"/>
		<path d="M7.8,7.7c0.9-1.6,2.3-2.6,4.4-2.4c1.7,0.2,3,1.4,3.3,2.9c0.2,1.5-0.9,3.1-2.6,3.7c-1.6,0.5-3.4,0.1-4.4-1.2
			C8.2,10.3,8,9.9,7.8,9.6C7.8,8.9,7.8,8.3,7.8,7.7z M11.6,10.5c1.2,0,2.1-0.8,2.2-1.9c0-1.1-0.9-2-2.1-2S9.6,7.4,9.5,8.5
			C9.5,9.6,10.4,10.5,11.6,10.5z"/>
		<path d="M109.3,37.6c0-0.2-0.1-0.4-0.1-0.5c-0.4-1.6,0-2.9,1.3-3.6c1.2-0.7,2.8-0.6,4,0.6c1.5,1.5,2.7,1.6,4.7,0.8
			c2.4-1,5-0.3,7.4,0.1c2.7,0.5,5.4,0.9,8.2,0.7c1.8-0.1,3.8,0.5,5.6,1.1c2.5,0.8,4.9,2,7.5,2.9c4.6,1.7,9,3.8,13.9,4.7
			c0.9,0.2,1.7,0.2,2.6-0.3c2.9-1.8,5.8-3.5,8.8-5.3c-0.7-1.3-0.5-2.4,0.9-3.2c1.1-0.6,2.2-1.2,3.7-1.4c3-0.3,5.7-1.4,7.3-4
			c0.3-0.6,0.6-1.2,0.8-1.7c1.1-2.6,3.2-4,6.2-4.2c2.5-0.2,5.1,1.3,6.1,3.6c0.9,2.3-0.1,5.1-2.4,6.5c-1.5,0.9-3.2,1.2-4.9,1.2
			c-3.8-0.1-7.1,1.8-8.6,4.9c-0.8,1.7-4.4,3-6.2,2.2c-0.8-0.3-1.3-0.2-2,0.2c-2,1.3-4.1,2.5-6.2,3.7c5.8,0.3,11.1,1.9,16.4,3.9
			c-0.2,0.1-0.1,0.1-0.1,0c1.4-2.5,1.8-2.6,5-2.4c1.5,0.1,3.1-0.2,4.7-0.2c1,0,2.1,0.2,3.1,0.4c0.6,0.1,1.2,0.5,1.8,0.7
			c0.7,0.2,1.2,0.1,1.7-0.5c1-1.2,2.3-1.2,3.3,0c0.6,0.8,1.1,1.2,1.9,0.1c0.2-0.3,1-0.4,1.5-0.4c0.7,0,1.4,0.2,2.1,0.1
			c3.1-0.5,6.2-1.1,9.4-1.6c0.8-0.1,1.2-0.5,1.6-1.2c0.6-1.2,2.1-1.8,3.4-1.4c1.3,0.3,2.2,1.5,2.1,2.7c-0.1,1.2-1.1,2.3-2.5,2.5
			c-0.4,0-0.8,0.1-1.1-0.1c-1.3-0.7-2.1-0.2-2.8,0.8c-0.6,0.8-1.4,1.4-2.1,2.2c0.1,0.1,0.1,0.2,0.2,0.3c0.5-0.2,1-0.3,1.5-0.5
			c1-0.4,1.9-0.3,2.7,0.4c0.7,0.7,0.8,1.5,0.4,2.3c-0.4,0.9-1.2,1.2-2.3,1.2c-0.9,0-1.9,0.2-2.8,0.2c0,0.2,0,0.3,0,0.5
			c1.3,0.4,2.5,0.8,3.8,1.2c0.3,0.1,0.7-0.2,1-0.4c1.2-0.8,2.5-0.8,3.5,0.1c0.9,0.8,1.1,2.1,0.3,3.1s-2.2,1.2-3.5,0.6
			c-0.3-0.2-0.9-0.3-1.1-0.2c-1.8,0.9-3.5,1.9-5.3,2.8c0.1,0.2,0.1,0.4,0.2,0.5c0.6-0.1,1.3-0.2,1.9-0.3c1.1-0.2,2.2-0.1,2.9,0.8
			c0.7,0.8,0.7,1.7,0.2,2.5c-0.6,0.9-1.5,1.3-2.6,1.1c-0.4-0.1-0.8-0.2-1.2-0.3c-0.4-0.1-0.8-0.1-1.2-0.2c-0.1,0.1-0.2,0.2-0.2,0.3
			c1.3,1.1,2.6,2.2,3.9,3.2c0.1,0.1,0.6-0.1,0.8-0.2c1.5-0.8,3.1-0.5,3.9,0.6c0.8,1.1,0.5,2.5-0.7,3.3c-1.3,0.8-2.8,0.6-3.9-0.7
			c-0.2-0.3-0.7-0.5-1.1-0.5c-1,0.1-2.1,0.4-3.1,0.6c0,0.1,0,0.2,0,0.3c0.4,0.1,0.8,0.2,1.2,0.2c1.2-0.1,2.1,0.3,2.5,1.4
			c0.4,0.9,0.1,1.7-0.8,2.3c-1,0.7-2,0.6-3-0.1c-0.1-0.1-0.3-0.1-0.7-0.1c0.8,0.9,1.7,1.9,2.5,2.8c0.1,0.1,0.6,0,0.9-0.1
			c1.3-0.3,2.5,0.2,3,1.2c0.4,1,0,2.1-1,2.6c-1.1,0.5-2.3,0.2-3.1-0.7c-0.4-0.4-0.9-0.8-1.5-1c-1.1-0.4-2.2-0.7-3.3-1
			c-0.5-0.1-1-0.2-1.4-0.1c-1.8,0.5-3.4,0-4.9-0.9c-0.8-0.5-1.5-0.6-2.4-0.4c-0.5,0.1-1.4-0.2-1.8-0.6c-0.5-0.5-0.8-0.7-1.5-0.3
			c-1.3,0.7-2.5,0.4-3.3-0.7c-0.3-0.4-0.8-0.7-1.3-0.8c-1-0.3-2.1-0.4-3.1-0.6c-0.1,1.1-0.1,2.2-0.4,3.2c-0.5,2.2-1.7,4-3.5,5.6
			c-0.4,0.4-0.8,0.9-0.9,1.4c-0.8,3.3-4.1,6.1-7.9,6.5c-2.9,0.3-4.2,0-8.4-1.8c3.4,3.8,6.9,7.6,10.3,11.4c-0.1,0.1-0.3,0.2-0.4,0.4
			c-0.4-0.2-0.8-0.4-1.1-0.7c-3.7-3.2-7.4-6.3-11-9.6c-0.7-0.6-1.3-0.8-2.1-0.2c-3.9,2.6-8.7,3.8-12.9,6c-3.2,1.7-6.9,2.1-10.7,1.5
			c-0.4-0.1-0.8-0.1-1.2-0.1c-0.8,0-1.1,0.4-1,1.1c0.3,2.2,0,2.4-2.3,3.2c-2.3,0.8-4.7,1.7-6.9,2.7c-2.1,1-4.2,1.8-6.7,1.8
			c-0.2,0-0.5,0.1-0.8,0.1c0.1,0.3,0.1,0.5,0.2,0.7c0.3,1.4-0.1,2.6-1.3,3.3c-1.1,0.7-2.5,0.6-3.8-0.3c-0.6-0.4-1.1-1-1.7-1.4
			c-0.3-0.2-0.9-0.4-1.1-0.3c-3.1,1.7-6.3,1.2-9.5,0.6c-2.8-0.5-5.5-0.9-8.5-0.7c-1.8,0.1-3.9-0.4-5.4-1.2c-2.7-1.4-5.6-2.3-8.5-3.3
			c-4.2-1.4-8.4-2.8-12.6-4.3c-1-0.3-1.9-0.2-2.8,0.4c-2.9,1.8-5.8,3.5-8.6,5.2c0.6,2.3-1.5,4.4-4.1,4.6c-3.9,0.2-7,1.7-8.4,5.3
			c-1,2.6-2.8,4.3-5.9,4.7c-2.4,0.3-4.3-0.5-5.8-2.1c-1.4-1.6-1.6-3.5-0.8-5.4c1.1-2.5,4-4,7.3-3.8c3.4,0.2,7.2-1.9,8.4-4.8
			c0.8-1.7,4.3-3.1,6.2-2.3c0.8,0.3,1.4,0.3,2.1-0.2c2-1.3,4.1-2.5,6.1-3.8c-3,0.5-5.6-0.6-8.3-1.4c-2.6-0.8-5.6-0.8-7.8-2.8
			c-0.2,0.3-0.3,0.5-0.4,0.7c-0.7,1.6-1.9,2.2-3.7,2.1c-2-0.1-4.1,0.1-6.1,0.1c-0.9,0-1.8-0.3-2.7-0.5c-0.6-0.2-1.2-0.5-1.8-0.7
			c-0.7-0.2-1.2-0.1-1.7,0.5c-0.9,1.1-2.4,1.1-3.3-0.1c-0.7-0.9-1.1-1.1-1.9-0.1c-0.2,0.3-1,0.3-1.5,0.4c-0.7,0-1.4-0.2-2.1-0.1
			c-3.2,0.5-6.3,1.1-9.5,1.6c-0.7,0.1-1.1,0.3-1.3,0.9c-0.7,1.5-2.4,2-3.9,1.4c-1.4-0.6-2.1-2.2-1.4-3.5c0.7-1.4,2.4-1.9,3.9-1.3
			c0.7,0.3,1,0.2,1.5-0.3c0.9-1,1.8-1.9,2.8-2.8c-0.1-0.1-0.1-0.2-0.2-0.3c-0.5,0.2-1,0.3-1.5,0.5c-1,0.4-1.9,0.4-2.7-0.3
			c-0.8-0.7-0.9-1.5-0.5-2.4s1.3-1.2,2.3-1.2c0.9,0,1.8-0.1,2.7-0.2c0-0.2,0-0.3,0.1-0.5c-1.3-0.4-2.6-0.8-3.9-1.2
			c-0.3-0.1-0.7,0.2-0.9,0.4C11,91,9.7,91,8.7,90.1c-0.9-0.8-1-2.1-0.2-3.1c0.9-1,2.1-1.2,3.5-0.6c0.3,0.1,0.8,0.3,1,0.2
			c1.8-0.9,3.6-1.9,5.4-2.9c-0.1-0.2-0.1-0.3-0.2-0.5c-0.6,0-1.1,0-1.7,0.1c-1.5,0.4-2.5,0.2-3.2-0.7c-0.7-0.9-0.6-1.8,0-2.7
			c0.7-0.9,1.8-1.1,3.2-0.7c0.5,0.1,1.1,0.2,1.6,0.3c0.1-0.1,0.2-0.2,0.2-0.3c-1.3-1.1-2.6-2.1-3.9-3.2c-0.2-0.1-0.7,0-1,0.2
			c-1.5,0.8-3.1,0.5-3.9-0.7c-0.7-1.1-0.4-2.6,0.7-3.3c1.3-0.8,2.8-0.5,3.9,0.8c0.2,0.2,0.6,0.5,0.9,0.5c1.1-0.1,2.2-0.4,3.3-0.6
			c0-0.1,0-0.2,0-0.3c-0.4-0.1-0.8-0.2-1.3-0.2c-1.2,0.1-2.1-0.3-2.5-1.4c-0.3-0.9-0.1-1.7,0.8-2.3c1-0.7,2-0.5,3,0.1
			c0.1,0.1,0.3,0.1,0.7,0c-0.9-0.9-1.7-1.9-2.6-2.8c-0.1-0.1-0.6,0-0.9,0.1c-1.3,0.3-2.5-0.2-3-1.2c-0.4-1,0.1-2.1,1.1-2.6
			c1.1-0.5,2.2-0.2,3.1,0.7c0.4,0.4,0.9,0.8,1.5,1c1,0.4,2.1,0.7,3.2,1c0.5,0.1,1.1,0.2,1.6,0.1c1.8-0.4,3.3-0.1,4.8,0.9
			c0.8,0.5,1.5,0.7,2.5,0.5c0.5-0.1,1.4,0.3,1.8,0.7c0.5,0.5,0.8,0.6,1.5,0.3c1.2-0.7,2.5-0.5,3.1,0.5c0.4,0.8,1.1,0.9,1.9,1.1
			c0.9,0.2,1.8,0.3,2.7,0.5c0.2-1.2,0.2-2.4,0.5-3.5c0.5-2.1,1.7-3.8,3.4-5.3c0.5-0.4,0.9-0.9,1-1.5c0.9-3.5,4.1-6.1,8.1-6.4
			c2.7-0.3,5.2,0.2,7.4,1.7c0.2,0.1,0.4,0.2,0.8,0.1c-3.4-3.8-6.9-7.6-10.3-11.4c0.1-0.1,0.2-0.2,0.4-0.3c0.4,0.2,0.8,0.5,1.2,0.8
			c3.7,3.2,7.4,6.3,11,9.6c0.7,0.6,1.2,0.7,2,0.2c2.2-1.5,4.7-2.5,7.3-3.4c1.4-0.5,2.6-1.4,4-2C82,46.3,86,45.4,90.5,46
			c1.9,0.3,2.2,0,2-1.7c-0.2-1.1,0.3-1.8,1.5-2.3c3.2-1.3,6.5-2.6,9.7-3.8c1.3-0.5,2.8-0.6,4.2-0.9
			C108.3,37.7,108.8,37.7,109.3,37.6z M157.7,84.3c-1.7,2.3-1.7,4.6-1.7,6.9c-0.6-0.5-0.9-1.1-1.1-1.6c-0.6-2.2,0-4.2,0.6-6.3
			c0.3-0.9-0.1-1.3-1.1-1.8c-0.1,1-0.1,1.9-0.3,2.8c0,0.3-0.3,0.6-0.5,0.9c-0.2-0.3-0.6-0.5-0.7-0.8c-0.5-1.3-0.1-2.5,0.9-3.4
			c-0.5-0.9-1.1-0.8-1.8-0.4c-1,0.5-2,0.9-3.2-0.1c0.1,2.7,2.3,4.1,3.4,6c-2.7-0.7-3.3-3.2-5.1-4.8c-0.3,2.6,0.8,4.8,1.6,7.1
			c-2.6-1.2-2.3-3.8-3.4-5.7c-0.3,1-0.5,2-0.7,3c-0.2,1.5-0.5,3-0.8,4.4c-0.1,0.3-0.5,0.5-0.7,0.8c-0.2-0.3-0.5-0.6-0.5-0.9
			c0-0.9,0.1-1.9,0.2-2.8c0.4-3.5,0.7-7,1.1-10.5c0-0.5-0.2-1-0.3-1.5c-0.1,0-0.3,0-0.4,0c-0.5,1-1,2-1.6,3
			c-0.7-1.4,0.1-2.6,0.6-3.7c0.5-1.2,1.1-2.4,1.6-3.6c-0.1-0.1-0.2-0.1-0.3-0.2c-2.7,2.4-5.1,5.1-6.7,8.4c0-1.5,0.6-2.8,1.5-3.9
			c1.6-1.8,3.3-3.6,4.9-5.3c0.4-0.5,0.9-1,1.2-1.5c0.1-0.2,0.1-0.7,0-0.8c-0.2-0.1-0.7-0.2-0.9,0c-0.8,0.4-1.6,0.9-2.4,1.4
			c-3.2,2-6.4,4.1-9.5,6.2c-0.9,0.6-1.6,1.3-2.4,2c1.2,1.3,1.2,1.5-0.4,2.1c-1.4,0.5-2.8,1-4.1,1.5c0,0.1,0,0.1,0.1,0.2
			c0.8-0.1,1.5-0.1,2.3-0.2c0,0.1,0.1,0.2,0.1,0.3c-0.8,0.2-1.5,0.5-2.3,0.7c-2.9,0.6-5.9,0.5-8.9,0.1c-1.7-0.2-3.5-0.3-5.2-0.4
			c0,0.1,0,0.2,0,0.3c1.3,0.2,2.6,0.4,3.9,0.6c-2.7,0.4-5.4-0.6-8.3,0.9c0.8,0.4,1.3,0.7,1.8,0.8c4.7,1.1,8.9,3.1,12.6,6
			c2.3,1.7,4.5,3.5,6.7,5.3c1.5,1.2,3.2,1.9,5.1,2.3c2.2,0.4,4.4,0.9,6.5,1.6c5.7,1.9,11.2,1.4,16.4-1.3c0.7-0.4,1.3-0.9,1.9-1.4
			c0.6-0.5,0.5-1-0.2-1.4c-0.4-0.2-0.8-0.5-1.1-0.7c0-0.1,0-0.3,0.1-0.4c3.7,0.2,7.3-0.2,10.7-1.8c-0.5-0.3-1-0.3-1.4-0.4
			c-0.6-0.1-1.3-0.2-1.9-0.3c0.3-0.4,0.6-0.9,0.9-1.3c0,0,0-0.1,0.1-0.3C162.4,88.4,160.1,86.4,157.7,84.3z M97,68.9
			c0.1,0.1,0.2,0.1,0.4,0.2c-0.2,0.5-0.3,1.1-0.5,1.6c-1.2,2.9-3.6,5.1-5.8,7.3c-0.5,0.5-1.1,1-1.5,1.6c-0.2,0.2-0.1,0.6-0.1,0.9
			c0.4,0,0.9,0.2,1.1,0c0.9-0.5,1.8-1.1,2.6-1.6c3-1.9,6.1-3.9,9.1-5.8c0.9-0.6,1.7-1.4,2.5-2.1c-1.2-1.2-1.2-1.5,0.3-2.1
			c0.5-0.2,0.9-0.3,1.4-0.5c1-0.3,1.9-0.7,2.9-1c0-0.1,0-0.1-0.1-0.2c-0.8,0.1-1.5,0.1-2.3,0.2c0-0.1-0.1-0.3-0.1-0.4
			c1.1-0.3,2.1-0.8,3.2-0.8c2.7-0.1,5.4,0,8.1,0.1c1.6,0,3.3,0.2,4.9,0.3c0-0.1,0-0.2,0-0.3c-1.2-0.2-2.4-0.4-3.6-0.6
			c2.6-0.3,5.3,0.5,7.9-0.9c-0.5-0.4-1-0.8-1.6-0.9c-4.4-1-8.3-2.8-11.8-5.5c-2.5-1.9-4.9-3.8-7.3-5.7c-1.5-1.2-3.2-2-5.2-2.4
			c-2.3-0.4-4.7-1-6.9-1.7c-5.7-1.8-11-1.2-16.2,1.5c-0.6,0.3-1.2,0.8-1.7,1.3C75.9,52,76,52.6,77,53c0.3,0.2,0.6,0.4,1,0.6
			c-2,0.4-3.9,0.4-5.6,0.7c-1.8,0.3-3.6,0.8-5.6,1.3c0.9,1,1.7,0.5,2.4,0.6c0.4,0,0.9,0.3,1.3,0.4c-0.2,0.3-0.4,0.6-0.6,0.9
			c-0.1,0.2-0.3,0.3-0.3,0.3c2,1.9,3.9,3.8,5.9,5.7c0.6,0.6,1.2,0.4,1.5-0.3c0.7-1.6,1.1-3.2,0.7-4.9c-0.1-0.3,0-0.6,0.1-1
			c0.2,0,0.3-0.1,0.5-0.1c0.3,0.6,0.6,1.1,0.8,1.8c0.6,2.1,0,4.2-0.6,6.2c-0.2,0.9,0.1,1.3,1.1,1.8c0.1-1,0.1-1.9,0.3-2.8
			c0-0.3,0.3-0.6,0.5-0.9c0.3,0.2,0.7,0.5,0.7,0.8c0.4,1.3,0.2,2.5-1,3.5c0.8,0.8,0.8,0.8,1.6,0.5c1.1-0.5,2.1-1,3.4,0
			c-0.2-2.7-2.4-4-3.5-5.9c1.5,0,2.1,1,2.8,1.8c0.8,0.9,1.4,2,2,3c0.2-0.1,0.3-0.1,0.5-0.2c0.1-2.5-1.1-4.7-1.8-7.1
			c2.5,1.2,2.3,3.8,3.4,5.8c0.4-1.1,0.5-2.1,0.7-3.1c0.2-1.4,0.4-2.8,0.7-4.2c0.1-0.3,0.5-0.6,0.8-0.8c0.2,0.3,0.5,0.6,0.5,0.9
			c0,0.9-0.1,1.8-0.2,2.7c-0.4,3.6-0.7,7.1-1.1,10.7c0,0.5,0.2,0.9,0.3,1.4c0.1,0,0.3,0,0.4,0c0.5-1,1-2,1.5-3
			c0.1,0,0.3,0.1,0.4,0.1c0.3,2.7-2,4.7-2.4,7.6C93.3,74.9,95.6,72.3,97,68.9z M163.9,56.1c-2.2-0.4-4.2-0.9-6.3-1.3
			c0-0.1,0-0.3,0-0.4c0.6-0.2,1.2-0.5,1.9-0.6c1.4-0.2,2.8-0.2,4.2-0.3c0.4,0,0.9-0.2,1.3-0.3c0.6-0.2,1.2-0.5,1.8-0.7
			s1.2-0.3,1.7-0.5c1.2-0.4,2.3-0.9,3.4-1.2c0.4-0.1,0.9,0,1.3,0c0,0.1,0,0.2,0.1,0.3c-0.5,0.2-1,0.4-1.5,0.6c0,0,0,0.1,0.1,0.1
			c2.3-0.3,4.6-0.7,6.8-1c-0.4-0.1-0.8-0.4-1.2-0.5c-3.3-0.8-6.7-1-9.9,0.5c-0.9,0.4-1.8,0.9-2.7,1.3c-0.3,0.2-0.8,0.2-1.4,0.3
			c0.9-2.4,3.5-2.3,5-3.4c-0.5,0-1,0-1.5,0.1c-1.4,0.4-2.7,0.9-4,1.4c-0.3,0.1-0.7,0.3-0.8,0.2c-0.7-0.8-1.1-0.1-1.6,0.2
			c-1.3,0.7-2.7,1.5-3.9,2.4c-1,0.8-1.9,1.7-2.7,2.7c-0.6,0.9-0.7,2,0.2,2.8c0.8,0.7,1.9,1.2,2.8,1.9c0.1-0.1,0.1-0.1,0.2-0.2
			c-0.7-0.8-1.5-1.7-2.2-2.5c0.1-0.1,0.2-0.1,0.2-0.2c0.3,0.1,0.6,0.2,0.8,0.4c1,1.1,2.2,2,3,3.2c1,1.6,2.2,2.9,4,3.7
			c0.8,0.4,1.6,0.7,2.2,1.2c0.5,0.3,0.8,0.8,1.2,1.2c-0.6,0.1-1.1,0.2-1.7,0.3c-0.1,0-0.1,0.1,0,0c1.8,1.8,3.6,3.7,5.4,5.5
			c0.7,0.7,1.4,1.5,2.2,2.2c1.2,1.1,1.3,1.1,0,2c1.2,2.5,2.4,4.9,3.7,7.5c-1.4,0.1-1.9-0.8-2.5-1.5s-1.1-1.4-1.7-2.2
			c-0.1,1.7,0.6,3.1,1.5,4.4c0.4,0.7,1,1.3,1.3,2c0.2,0.3,0,0.8-0.1,1.2c-0.5-0.1-1,0-1.3-0.2c-0.4-0.2-0.7-0.7-1.1-1.1
			c-0.3-0.3-0.6-0.6-1-1c-0.6,3,1.8,6.1,5,6.9c3.7,0.9,7.4-0.7,8.5-3.8c-1.2,0.6-2.1,1.2-3,1.7c-0.3,0.2-0.7,0.2-1.1,0.2
			c0.1-0.4,0.2-0.7,0.3-1.1c0-0.1,0.2-0.2,0.3-0.3c1.8-1.4,2.7-3.2,2.9-5.4c0-0.4,0.3-0.7,0.6-1.4c0.4,0.7,0.6,1,0.8,1.3
			c0.5,1.1,1,1.2,2,0.4c1.3-1.1,2-2.6,2.2-4.2c0.2-1.4-0.8-2.4-2.5-2.6c0.2,0.5,0.5,0.8,0.6,1.2c0.1,0.5,0.1,1,0.1,1.5
			c-0.6-0.2-1.2-0.2-1.7-0.5s-0.9-0.8-1.2-1.2c-0.4-0.4-0.7-0.9-1.1-1.3c-0.1,0.1-0.2,0.2-0.3,0.3c0.2,0.8,0.4,1.5,0.5,2.3
			c0,0.2-0.2,0.6-0.4,0.7s-0.7,0-0.9-0.2c-0.4-0.4-0.7-0.9-1.1-1.4c-1.1-1.3-2.2-2.7-3.3-4c-0.1,0.1-0.3,0.1-0.4,0.2
			c0.1,0.4,0.2,0.9,0.3,1.3c0.1,0.6,0.4,1.1,0.5,1.7c0,0.3-0.3,0.7-0.5,1c-0.3-0.2-0.8-0.4-1-0.7c-0.6-1.1-1.1-2.3-1.6-3.5
			c-1.2-3.1-3.2-5.7-5.9-7.7c-0.4-0.3-0.7-0.6-1-1c-0.1-0.2-0.1-0.5-0.2-0.7c0.3,0,0.6-0.1,0.8,0c0.6,0.2,1.2,0.4,1.7,0.7
			c0.1-0.1,0.2-0.1,0.2-0.2c-0.2-0.4-0.3-0.9-0.5-1.3c-1.7-2.7-4-4.9-7.1-6.4c-0.7-0.3-1.1-1-1.7-1.5
			C162.4,57.3,163,56.8,163.9,56.1z M69.3,80.4c-1.7-1.8-3.6-3.7-5.4-5.6c-0.6-0.6-1.2-1.3-1.9-1.9c-1.3-1.1-1.3-1.1-0.1-2
			c-1.2-2.5-2.5-5-3.7-7.4c0.1-0.1,0.2-0.1,0.3-0.2c2,0.6,2.4,2.5,4,3.9c-0.1-0.7-0.1-1.2-0.3-1.6c-0.8-1.6-1.8-3.1-2.6-4.7
			c-0.2-0.4-0.1-1-0.1-1.5c0.5,0.1,1.2,0.2,1.6,0.5c0.7,0.5,1.2,1.2,1.8,1.8c0.8-3-1.9-6.1-5.1-6.9c-3.6-0.9-7.4,0.8-8.5,3.8
			c1.1-0.6,2-1.2,2.9-1.6c0.4-0.2,0.9-0.2,1.3-0.2c-0.1,0.4-0.2,0.8-0.4,1.1c-1.9,1.6-3.1,3.5-3.2,5.9c0,0.1-0.1,0.3-0.2,0.4
			c-0.3,0.6-0.6,0.5-1,0.1c-0.2-0.2-0.2-0.5-0.3-0.7c-0.4-1-0.9-1.1-1.7-0.4c-1.6,1.3-2.4,2.9-2.4,4.9c0,1.2,1.1,2,2.5,1.9
			c-0.2-0.4-0.5-0.8-0.6-1.2c-0.1-0.5,0-1-0.1-1.4c0.5,0.1,1.1,0.2,1.6,0.5s0.8,0.7,1.2,1.1c0.4,0.5,0.9,0.9,1.3,1.4
			c0.1-0.1,0.2-0.2,0.3-0.2C50.3,69.6,50,69,50,68.4c0-0.4,0.2-0.8,0.3-1.2c0.5,0.2,1,0.3,1.3,0.6c0.4,0.4,0.6,1,1,1.4
			c1,1.2,2,2.3,3,3.5c0.1-0.1,0.2-0.1,0.3-0.2c0-0.3,0-0.6-0.1-0.9c-0.2-0.8-0.5-1.6-0.6-2.4c0-0.2,0.3-0.7,0.5-0.7
			c0.2-0.1,0.7,0.2,0.8,0.4c0.3,0.4,0.5,0.9,0.7,1.3c1.6,4.1,3.7,7.9,7.6,10.7c0.3,0.2,0.5,0.7,0.7,1c-0.1,0.1-0.2,0.2-0.2,0.3
			c-0.8-0.3-1.6-0.5-2.8-0.9c0.3,0.7,0.4,1.1,0.6,1.5c1.6,2.6,3.8,4.7,6.7,6.2c0.5,0.2,1,0.5,1.4,0.9c1,0.7,0.8,1.4-0.3,1.8
			c-0.3,0.1-0.6,0.2-0.9,0.4c0,0.1,0,0.3,0,0.4c2.1,0.4,4.1,0.8,6.2,1.2c0,0.1,0,0.3,0,0.4c-0.6,0.2-1.2,0.5-1.8,0.6
			c-1.4,0.2-2.9,0.2-4.3,0.4c-0.4,0-0.8,0.2-1.2,0.4c-0.5,0.2-1.1,0.5-1.6,0.6c-0.6,0.2-1.3,0.4-2,0.6c-1.1,0.4-2.2,0.8-3.3,1.2
			c-0.4,0.1-0.9,0-1.4,0c0-0.1-0.1-0.2-0.1-0.3c0.5-0.2,1-0.4,1.5-0.7v-0.1c-2.3,0.3-4.5,0.7-6.7,1c0.3,0.1,0.7,0.4,1.1,0.5
			c3.5,0.9,6.9,1,10.2-0.6c0.8-0.4,1.6-0.8,2.4-1.2c0.4-0.2,0.8-0.2,1.2-0.3c0.1,0.1,0.1,0.2,0.2,0.3c-0.8,2-3.3,1.9-4.9,3
			c0.5,0,0.9,0,1.3-0.1c1.4-0.5,2.8-1,4.3-1.5c0.3-0.1,0.6-0.1,0.9-0.1s0.6,0.2,0.8,0.1c1.8-1,3.6-2,5.2-3.2c0.8-0.6,1.4-1.4,2-2.3
			c0.7-1,0.5-2.3-0.3-2.9s-1.8-1.1-2.6-1.7c-0.1,0.1-0.2,0.1-0.2,0.2c0.7,0.8,1.5,1.6,2.2,2.4c-0.1,0.1-0.2,0.2-0.3,0.3
			c-0.5-0.3-1.1-0.5-1.5-0.9c-0.9-0.9-1.8-1.8-2.4-2.9c-0.9-1.6-2.3-2.8-4-3.7c-0.6-0.3-1.3-0.6-1.8-0.9c-0.5-0.4-1-0.9-1.5-1.4
			C68.4,80.7,69,80.6,69.3,80.4z M191.1,52.8c-0.1,0.1-0.2,0.1-0.3,0.2c0.9,0.5,1.2,1.3,0.2,1.8c-1.7,0.9-3.4,1.6-5.2,2.2
			c-0.5,0.2-1.5-0.2-1.9-0.7c-1.3-1.6-0.9-2.7,1.1-3.5c0.9-0.4,2-0.5,3-0.7c0.3-0.1,0.6-0.1,0.9-0.2c-1-1.2-2.2-1.6-2.7-1
			c-1.6,2.1-3.6,1.9-5.8,1.1c-0.4-0.1-0.9-0.2-1.3-0.3c-0.1,0.1-0.2,0.3-0.3,0.4c0.4,0.2,0.9,0.4,1.5,0.7c-1,0.4-1.6,0.6-2.4,0.9
			c0.8,0.4,1.4,0.8,2.2,1.2c-0.9,0.3-1.4,0.6-2.3,0.9c0.9,0.4,1.6,0.8,2.4,1.2c-0.8,0.5-1.4,0.8-2.2,1.2c0.9,0.4,1.6,0.8,2.4,1.2
			c-0.8,0.4-1.4,0.7-2.3,1.2c0.7,0.2,1.1,0.4,1.5,0.5s0.7,0.3,1,0.5c-0.2,0.3-0.5,0.5-0.7,0.8c-0.2,0.2-0.4,0.5-0.3,0.7
			c0.1,0.2,0.5,0.4,0.7,0.4c1,0,1.9,0,2.9,0c0.1-0.2,0.2-0.4,0.4-0.8c0.4,0.7,0.7,1.3,1,1.9c0.6-0.8,1-1.8,2.2-0.9
			c0.1,0.1,0.5-0.1,0.6-0.2c0.5-0.7,1.1-1.4,1.4-2.1c0.4-0.9,0.6-1.9,1-2.8c0.4-1,1.1-1.7,2.3-1.9c0,0,3.6-1.4,3.3-1.3
			c0.3,1.2,0.6,2.4,0.8,3.6c0.1,0.6,0.2,1.2,0,1.8c-0.6,1.8-0.6,3.9-2.5,5.2c0,0,0,0.1,0,0.3c0.1,0,0.1,0.2,0.2,0.2
			c0.4,0.1,0.9,0.2,1.3,0.3c2.8,0.6,4,1.9,4.2,4.4c0.1,0.8,0.3,1.7,0.4,2.8c0.2-0.4,0.3-0.5,0.3-0.6c0.7-2.6-0.8-5.8-3.2-7.2
			c-1-0.5-1.2-1.1-0.8-2.1c0.4-0.9,0.5-1.9,0.8-2.8c0.1-0.3,0.3-0.6,0.4-0.8c0.1,0,0.3,0,0.4,0c0.4,0.9,0.7,1.8,1.1,2.7
			c0.1,0,0.2,0,0.4,0c0.3-0.6,0.9-1.2,0.9-1.9c0.2-2.6,0.3-5.1,0.4-7.7c0-0.3-0.5-0.9-0.9-1s-0.9,0.3-1.4,0.5
			c-0.4,0.2-0.6,0.5-1,0.8c-0.1-0.1-0.2-0.1-0.3-0.2c0-0.9-0.3-1.9,0.1-2.6c0.4-0.6,1.5-0.8,2.2-1.1c-0.8-0.2-1.9-0.6-2.9-0.8
			s-2.1-0.5-3.2-0.5c-1.8-0.1-3.6,0.1-5.4,0c-1.9-0.1-2.9,0.5-3.3,2.4c0.2-0.1,0.3-0.2,0.4-0.3c1.4-1.3,1.4-1.3,3.2-0.6
			c0.3,0.1,0.7-0.1,1.1-0.1c1.8-0.3,3.5-0.7,5.3-0.8c0.5,0,1.3,0.9,1.4,1.5c0.1,0.8-0.1,1.7-0.5,2.4c-0.8,1.5-2.3,1.5-3.5,0.3
			C191.9,53.4,191.5,53.1,191.1,52.8z M33.6,74.6c-0.1,0.2-0.1,0.3-0.2,0.4c-0.6,2.6,0.8,5.7,3.2,7.1c1,0.6,1.2,1.2,0.8,2.1
			s-0.5,1.8-0.8,2.7c-0.1,0.3-0.3,0.6-0.4,0.9c-0.1,0-0.3,0-0.4,0c-0.4-0.9-0.7-1.8-1.1-2.9c-1.1,1.2-1.5,2.4-1.5,3.7
			c0,1.9-0.2,3.7-0.1,5.6c0,0.5,0.5,1.2,0.9,1.4c0.3,0.1,1-0.4,1.5-0.6c0.1-0.1,0.2-0.3,0.3-0.3c0.5-0.4,0.8-0.3,0.9,0.3
			c0.5,1.9-0.1,2.7-2.2,3c-0.1,0-0.2,0.1-0.5,0.1c1.2,0.3,2.1,0.7,3.2,0.9c1,0.2,2.1,0.5,3.2,0.5c1.8,0.1,3.6-0.1,5.4,0
			c2,0.1,2.9-0.5,3.3-2.4c-0.2,0.1-0.4,0.2-0.5,0.3c-1.4,1.3-1.4,1.3-3.1,0.5c-0.2-0.1-0.7-0.2-0.8-0.1c-1.1,1-2.6,0.8-4,1
			C39.6,99,38.5,99,37.8,98c-0.6-0.9-0.5-2.4,0.3-3.3c1.1-1.3,2.4-1.3,3.5-0.1c0.3,0.4,0.8,0.6,1,0.8c0-0.5-0.3-1.3,0-1.5
			c1.7-1.4,3.6-2.3,5.9-2.5c1.8-0.1,1.6,1.4,1.9,2.3c0.1,0.4-0.3,1.2-0.8,1.4c-1.2,0.5-2.4,0.8-3.7,1.2c-0.4,0.1-0.7,0.1-1.2,0.2
			c1.2,1.3,2.3,1.6,2.9,0.9c1.5-2,3.4-1.9,5.6-1.1c0.5,0.2,1,0.2,1.5,0.3c0.1-0.1,0.2-0.3,0.3-0.4c-0.5-0.2-1-0.4-1.5-0.6
			c0.1-0.1,0.2-0.2,0.3-0.3c0.6-0.2,1.2-0.5,1.9-0.8c-0.8-0.4-1.3-0.7-2.2-1.2c0.9-0.3,1.5-0.6,2.3-0.9c-0.9-0.5-1.6-0.8-2.5-1.2
			c0.9-0.5,1.5-0.8,2.2-1.2c-0.9-0.4-1.6-0.8-2.5-1.3c0.9-0.4,1.5-0.7,2.3-1.1c-1.1-0.4-1.8-0.6-2.6-0.9c-0.1-0.2-0.3-0.4-0.4-0.5
			c0.4-0.1,0.8-0.2,1.1-0.4c0.2-0.1,0.3-0.5,0.4-0.7c-0.3-0.1-0.6-0.3-0.9-0.3c-0.6-0.1-1.3-0.1-2,0c-0.4,0-0.8,0.2-1.5,0.4
			c-0.2-0.3-0.5-0.8-0.8-1.5c-0.6,0.8-1.1,1.7-2.3,0.9c-0.1,0-0.3,0-0.4,0.1c-0.5,0.6-1.1,1.2-1.4,1.9c-0.5,1-0.7,2-1,3
			c-0.4,1.2-1.2,1.9-2.6,2c-1.2,0.1-2.6,0-3,1.4c-0.3-1.4-0.7-2.6-0.9-3.9c-0.1-0.5-0.1-1,0-1.4c0.6-1.9,0.7-4,2.6-5.4
			c0,0,0-0.1,0-0.3c-1.7-0.6-4-0.4-4.8-2.2C34.4,78.1,34.1,76.4,33.6,74.6z M85.8,106.4C85.8,106.4,85.8,106.3,85.8,106.4
			c0.2-0.1,0.4-0.1,0.5,0c2,1,4,1.9,5.9,3c3,1.8,6.1,2.8,9.7,2.3c1.8-0.2,3.5-0.5,5.3-0.7c0.7-0.1,1.3,0.2,2,0.2c0,0.2,0,0.3,0,0.5
			c-0.8,0.1-1.6,0.2-2.4,0.2c2.4,0.9,7.9,0.9,9.5-0.4c-1.1,0-2.3,0.1-3.5,0c-1.2-0.2-2.3-0.8-3.4-0.9c-2.1-0.2-4.2-0.1-6.3-0.2
			c-0.2,0-0.6,0-0.7,0.2c-0.5,1-1.4,0.7-2,0.3c-1.4-0.8-2.9-1.6-4.1-2.6c-1.6-1.4-2.2-3.2-1.9-5.2c0.2-1.5,1.1-2.3,2.6-2.6
			c-0.3,0.7-0.6,1.3-1,1.9c0.9-0.3,1.6-0.7,2.2-1.1c0.2-0.1,0.3-0.5,0.2-0.7c-0.2-0.9-0.9-1-1.7-0.9c-3.3,0.3-6.6,0.7-9.9,1
			c-1,0.1-1.5,0.5-1.5,1.4c0,0.6,0,1.2,0,1.8c0,0.3,0,0.7,0,1c-0.2,0-0.3,0.1-0.5,0.1c-0.4-0.7-0.8-1.3-1.2-2
			c-0.3,0.2-0.5,0.4-0.8,0.6c-0.1,0-0.3-0.1-0.4-0.1c0.1-1,0.3-2,0.4-3c-0.2,0-0.4-0.2-0.7-0.2c-0.5-0.1-1-0.2-1.5-0.2
			c-1.4-0.2-1.4-0.1-1.4,1.2c0,0.6,0.2,1.3-0.8,1.7c-0.2-0.6-0.4-1.2-0.6-1.8c-0.4,0.5-0.6,0.9-1.1,1.5c-0.3-0.7-0.5-1.1-0.8-1.8
			c-0.5,0.5-1,0.8-1.2,1.2c-0.1,0.2,0.5,0.7,0.8,1c0.3,0.2,0.6,0.3,1,0.4c3.1,1.2,6.3,2.5,9.4,3.7c0.7,0.3,1.5,0.5,2.2,0.8
			c0-0.1,0.1-0.2,0.1-0.2C87.5,107.4,86.6,106.9,85.8,106.4z M138.1,45.9c-0.1,0-0.1-0.1-0.2-0.1c-0.7,0.4-1.4,0.8-2.1,1.3
			c-0.5,0.3-0.1,1.2,0.6,1.4c0.4,0.1,0.9,0.1,1.3,0c1.1-0.1,2.2-0.2,3.3-0.4c1.9-0.2,3.8-0.3,5.7-0.6s2.3-0.8,2.1-2.5
			c0-0.3-0.1-0.6-0.1-0.9c0-0.3,0.2-0.5,0.3-0.8c0.3,0.2,0.7,0.3,0.9,0.5c0.3,0.4,0.4,0.9,0.5,1.4c0.3-0.2,0.6-0.4,1-0.7
			c0.8,1.1,0.1,2.1-0.2,3.1c0.9,0.2,1.7,0.3,2.5,0.4c1,0.2,1.4-0.1,1.2-1.1c-0.1-0.6-0.2-1.4,0.8-1.8c0.2,0.6,0.4,1.2,0.6,1.8
			c0.4-0.5,0.7-0.8,1.1-1.4c0.3,0.6,0.4,1,0.7,1.7c0.5-0.5,1-0.8,1.2-1.2c0.1-0.2-0.5-0.7-0.8-1c-0.2-0.2-0.5-0.3-0.8-0.4
			c-3.6-1.4-7.1-2.8-10.7-4.1c-0.4-0.1-0.8-0.3-1.2-0.4c0,0.1-0.1,0.2-0.1,0.2c0.8,0.5,1.7,1,2.5,1.5c-0.4,0.2-0.7,0.1-0.9,0
			c-2-1.1-4-2.1-5.9-3.2c-3-1.8-6.2-2.6-9.9-1.9c-1.6,0.3-3.2,0.4-4.8,0.6c-0.6,0-1.2-0.2-1.8-0.3c0-0.2,0-0.3,0-0.5
			c0.8-0.1,1.6-0.2,2.5-0.3c-3-1-8.3-0.7-9.7,0.6c2.6-1,4.9,0.5,7.3,0.8c1.9,0.2,3.9,0.1,5.9,0.1c0.2,0,0.6,0,0.7-0.2
			c0.7-1.2,1.6-0.6,2.3-0.2c1,0.4,1.9,1,2.8,1.6c2.1,1.5,3.2,3.5,2.9,6c-0.2,1.6-1.3,2.6-2.6,2.6C137.5,47.1,137.8,46.5,138.1,45.9z
			 M107,102.7c-0.6,0.1-0.9,0.2-1.2,0.3c-0.6,0.2-1.2,0.5-1.8,0.7c-1.6,0.4-3.1,0.7-4.7,1.1c-0.2,0-0.5,0-0.7,0
			c-0.3-0.1-0.7-0.1-1-0.2c-0.1,0.4-0.3,1-0.1,1.2c0.7,0.7,1.6,1.5,2.5,1.8c1.3,0.4,2.8,0.3,4.3,0.4c0.6,0,1.1,0.1,1.7,0.2
			c0,0.1,0,0.2,0,0.3c-1.8,0.3-3.7,0.6-5.5,0.8c0,0.1,0,0.2,0,0.3c0.7,0.1,1.4,0.3,2,0.2c3.4-0.4,6.7-0.6,10,0.6c0.1,0,0.2,0,0.4,0
			c0.1-0.3,0.4-0.6,0.5-0.6c0.3,0.2,0.4,0.5,0.7,0.8c3-0.1,6.9-3.6,5.7-5.4c-0.9,1.6-2.1,2.9-4,3.4c1-1.2,2-2.3,2.9-3.6
			c0.5-0.8,0.5-1.6-0.6-2.3c-1,2.2-2.2,4.2-5.1,4.7c1.2-1.3,2.4-2.5,3.4-3.7c0.6-0.7,0.7-1.5-0.1-2.2c-3.5,3.8-5,4.9-6.6,4.5
			c2.5-0.7,3.6-2.7,5-4.4c0.8-1,0.4-2-0.7-2.7c-0.5,2.2-4.8,5.3-7,5C106.8,103.5,106.9,103.2,107,102.7z M120.4,49.7
			c0.3-2.2,4.9-5.5,6.8-5.1c0.1,0.4,0.1,0.7,0.1,1c0.3-0.1,0.7-0.1,1-0.2c0.5-0.2,0.9-0.4,1.4-0.5c1.7-0.4,3.3-0.8,5-1.1
			c0.2,0,0.4,0,0.7,0c0.3,0.1,0.7,0.1,1,0.2c0.1-0.4,0.4-1,0.2-1.2c-0.7-0.7-1.5-1.5-2.4-1.8c-1.1-0.4-2.3-0.3-3.5-0.4
			c-0.9-0.1-1.7-0.1-2.6-0.1c0-0.1,0-0.2,0-0.3c1.9-0.3,3.8-0.6,5.6-0.9c-0.4-0.3-0.8-0.5-1.2-0.5c-1.2,0-2.4,0.2-3.6,0.2
			c-1.6,0-3.3-0.1-4.9-0.3c-0.9-0.1-1.7-0.4-2.6-0.6c0,0.1,0,0.2,0,0.3c-0.3,0-0.9,0.2-0.9,0.1c-0.4-1-1.2-0.6-1.8-0.3
			c-1.9,0.7-3.4,2-4.3,3.7c-0.2,0.4-0.1,0.9-0.2,1.3c3-2.9,3.2-3.1,4.6-3.1c-0.4,0.3-0.7,0.5-1,0.8c-0.8,1.1-1.7,2.1-2.3,3.2
			c-0.4,0.6,0,1.3,0.8,1.6c1-2.2,2.2-4.1,5-4.6c-0.1,0.3-0.4,0.4-0.6,0.6c-1,1.1-2.1,2.1-3,3.2c-0.5,0.6-0.4,1.3,0.2,1.9
			c4.5-4.5,5.1-4.9,6.7-4.5c-2.6,0.7-3.7,2.7-5,4.4C118.9,47.9,119.2,48.9,120.4,49.7z M156.5,73.1c-0.4-0.2-0.9-0.4-1.3-0.7
			c-1-0.7-1.9-1.3-2.8-2c-0.5-0.4-1-0.9-1.3-1.5c-0.2-0.3,0.1-0.8,0.1-1.2c0.4,0.1,1,0.1,1.3,0.3c0.4,0.2,0.7,0.6,1,1
			c1.9,1.9,4.1,3.4,7,3.8c1,0.1,2,0,3,0c0-0.1,0.1-0.3,0.1-0.4c-0.8-0.4-1.6-0.9-2.4-1.3c0-0.1,0.1-0.2,0.1-0.4
			c0.8,0.1,1.6,0.1,2.6,0.2c-1.1-1.2-2.2-2.3-3.1-3.5c-1.8-2.4-4.2-4.2-7.1-5.4c-0.4-0.1-0.7-0.4-1-0.6c0.2-0.3,0.5-0.6,0.7-0.9
			c-1.7-0.9-3.4-1.5-5.3-0.8c0.6,0.3,1.2,0.4,1.8,0.6c0.3,0.1,0.5,0.5,0.8,0.7c-0.4,0.1-0.7,0.3-1.1,0.3c-0.8,0.1-1.8,0-2.5,0.3
			c-1.9,0.7-2.3,2.4-1,3.8c2.3,2.5,4.7,4.9,6.9,7.5C153.9,74,154.7,74.2,156.5,73.1z M83.2,87.7c0.1-0.2,0.1-0.4,0.2-0.6
			c0.5,0,1,0,1.5,0c0.6,0,1.2,0,1.8-0.2c1.3-0.3,1.7-1.4,2.1-2.4c0.1-0.4-0.5-1.1-0.9-1.6c-2.3-2.5-4.6-5-6.9-7.5
			c-1.2-1.3-1.2-1.3-3.2-0.6c0.4,0.3,0.6,0.7,1,1c1,0.8,2.1,1.5,3.1,2.3c0.5,0.4,0.9,1.1,1.2,1.7c0.1,0.2-0.1,0.7-0.3,0.9
			c-0.2,0.1-0.8,0.1-1-0.1c-0.6-0.4-1.1-1-1.7-1.5c-2.2-2.2-4.8-3.5-8.1-3.6c-0.5,0-1.1,0.2-1.6,0.2c0,0.1,0,0.2,0,0.3
			c0.8,0.5,1.6,0.9,2.4,1.4c-0.1,0.1-0.1,0.2-0.2,0.3c-0.8-0.1-1.6-0.1-2.6-0.2c1.7,2,3.1,4,5,5.6s4.1,2.8,6.3,4.2
			c-0.3,0.2-0.6,0.3-0.9,0.5c1.8,1.3,4,1.6,5.3,0.9C85,88.4,84.1,88.1,83.2,87.7z M21.7,66.9c-1.3-0.4-2.6-0.8-3.9-1.3
			c0,0.1-0.1,0.2-0.1,0.3c1.1,0.4,2.2,0.9,3.2,1.3c0,0.1-0.1,0.2-0.1,0.2c-0.8-0.2-1.6-0.3-2.7-0.6c0.4,0.6,0.7,0.9,1,1.3
			c0.9,1.1,1.8,2.1,2.6,3.2c1,1.3,0.7,1.9-1,2.4c-1.5,0.4-3,0.8-4.5,1.2c0,0.1,0,0.1,0,0.2c1.9-0.3,3.8-0.7,5.6-1
			c0,0.1,0.1,0.2,0.1,0.3c-2.1,0.5-4.2,1.1-6.4,1.6c-0.1,0.1-0.1,0.2-0.2,0.3c0.4,0.2,0.8,0.4,1.1,0.7c1.4,1.3,2.8,2.5,4.1,3.9
			c1.1,1.2,0.8,2.5-0.6,3.4c-1.7,1.1-3.5,2.1-5.3,3.1c-0.3,0.2-0.7,0.4-1,0.6c0.1,0.1,0.2,0.2,0.3,0.4c2.4-1.4,4.8-2.8,7.2-4.2
			c-1.9,2.3-4.8,3.5-7.3,5.2c0.9,0.3,1.7,0.6,2.4,0.9s1.5,0.6,2.2,1c1.7,0.9,1.9,1.6,0.8,3.1c-1.3,1.6-2.6,3.1-3.9,4.6
			c-0.3,0.3-0.4,0.7-0.6,1.1c0.1,0.1,0.3,0.2,0.4,0.3c1.7-1.8,3.4-3.7,5.1-5.5c-0.7,2.3-2.7,3.8-4,5.7c2.3-0.3,4.4-0.7,6.6-1.3
			c1.2-0.3,2.1-1.5,2-2.6c-0.1-1.2-1-1.8-2.2-2c-0.3,0-0.6-0.2-1.3-0.4c1.2-0.2,2.4-0.5,1.9-1.5c-0.3-0.5-1.3-0.7-2.1-1.1
			c1.1-0.5,2.7-0.3,2.9-1.9c0.3-2.3-0.8-3.5-3.3-4c2.1-0.1,3-1.2,3.3-2.8c0.2-1.2-0.5-1.9-1.5-2.2c0.8-0.4,1.6-0.8,2.4-1.2
			c-0.1-0.1-0.1-0.2-0.2-0.3c-2.3,0.9-3.7,0.7-4.6-0.6c-0.7-1.1-0.5-2.7,0.6-3.5c1.2-1,2.7-0.8,4.4,0.5c0.1-0.1,0.1-0.1,0.2-0.2
			c-0.6-0.5-1.2-1-1.6-1.4c0.6-0.3,1.4-0.6,2.3-1.1c-1-0.4-1.6-0.7-2.2-0.9c2.6-0.3,2.6-0.3,2.9-1.2c-2,0.8-3.2,0.7-4.1-0.4
			c-0.7-0.9-0.7-2.1,0.2-2.8c0.6-0.4,1.5-0.7,2.2-0.7s1.4,0.5,2.1,0.8c-0.6-1.1-1.7-1.6-2.9-1.5c-1.8,0.1-2.2,1.5-2.7,2.9
			c-0.1,0-0.2,0-0.3-0.1C21.4,68.6,21.5,67.8,21.7,66.9z M208.4,75c0.1,0.1,0.1,0.3,0.2,0.4c0.6,0.2,1.1,0.4,1.9,0.8
			c-2.9,0.4-2.9,0.4-3.2,1.1c2.1-0.7,3.2-0.6,4,0.3c0.7,0.8,0.8,1.7,0.2,2.6c-0.7,1-1.8,1.2-3.9,0.7c0.6,0.9,1.5,1.1,2.4,0.9
			c1.7-0.3,2.1-1.6,2.5-2.9c0.1,0,0.2,0,0.4,0.1c-0.1,0.8-0.3,1.6-0.5,2.5c1.3,0.4,2.5,0.8,3.8,1.2c0-0.1,0.1-0.2,0.1-0.3
			c-1.1-0.4-2.1-0.8-3.2-1.2c0-0.1,0.1-0.2,0.1-0.3c0.8,0.2,1.6,0.4,2.7,0.6c-1.3-1.6-2.5-3.1-3.7-4.5c-1-1.3-0.7-1.9,1-2.4
			c1.5-0.4,3-0.8,4.5-1.2c0-0.1,0-0.1,0-0.2c-1.9,0.4-3.8,0.7-5.7,1c0-0.1-0.1-0.2-0.1-0.3c2.1-0.5,4.3-1.1,6.4-1.6
			c0.1-0.2,0.3-0.3,0.4-0.5c-0.4-0.2-1-0.3-1.3-0.6c-1.4-1.3-2.8-2.5-4.1-3.9c-1.1-1.2-0.8-2.4,0.6-3.3c1.8-1.1,3.6-2.1,5.4-3.2
			c0.3-0.2,0.7-0.4,1-0.6c-0.1-0.1-0.2-0.2-0.3-0.4c-2.4,1.4-4.9,2.9-7.3,4.3c1.9-2.3,4.9-3.5,7.4-5.2c-1.6-0.7-3-1.2-4.4-1.9
			c-1.8-0.8-2-1.7-0.9-3.1c1.2-1.5,2.6-3,3.9-4.5c0.3-0.4,0.5-0.8,0.7-1.2c-0.1-0.1-0.3-0.2-0.4-0.3c-1.7,1.8-3.4,3.6-5.1,5.5
			c0.7-2.3,2.6-3.8,4.1-5.7c-2.3,0.4-4.6,0.8-6.8,1.3c-1.1,0.3-1.9,1.4-1.9,2.4c0.1,1.1,0.8,1.7,2.2,2.1c0.3,0.1,0.6,0.2,0.7,0.2
			c-0.5,0.5-1.2,0.9-1.3,1.4c-0.2,1.3,1.5,0.6,2.1,1.4c-1.4,0.4-2.9,0.4-2.9,2.4c0,2.2,1.3,3,3.3,3.5c-1.6,0.1-2.6,0.8-3.1,2.1
			c-0.5,1.4-0.1,2.4,1.7,3c-1.9,0.3-2.3,0.5-2.5,1.4c1.9-0.9,3.3-0.8,4.2,0.2s1,2.5,0,3.4c-0.6,0.5-1.6,0.9-2.4,0.9
			c-0.8,0-1.6-0.6-2.4-0.9l-0.1,0.1c0.6,0.5,1.2,1,1.7,1.3C209.8,74.4,209.1,74.7,208.4,75z M141.1,56.2c-1.4,0.3-2.1,0.9-2.4,1.9
			c-0.3,0.9-0.2,1.8-0.3,2.7c-0.2,0-0.3,0-0.5,0c-0.1-0.8-0.2-1.5-0.4-2.4c-1.8,0.8-1.5,2.4-2.1,3.7c-0.2-0.5-0.4-1.1-0.6-1.6
			c-0.1,0-0.3,0-0.4,0c-0.2,0.7-0.7,1.4-0.6,2.1c0.1,1.6,0.4,3.3,0.9,4.8c0.3,1.3,1.3,2.4,0.8,3.8c0,0.1,0.1,0.3,0.1,0.7
			c0.3-0.4,0.5-0.5,0.6-0.7c0.8-1.4,0.1-2.6-0.6-3.8c-0.3-0.5-0.5-1.1-0.7-1.6c0.1,0,0.2-0.1,0.3-0.1c1.5,1.2,2.9,2.4,4.4,3.6
			c1.2-0.7,2.3-1.4,3.5-2.1c1-0.6,1.1-1,0.2-1.8c1.2-1.6,2.5-3.1,2.7-5.2c-0.4,0.5-0.8,1-1.2,1.5c-0.1,0-0.2-0.1-0.3-0.1
			c0.2-2.2,0.3-4.3,0.5-6.7c-0.3,0-0.7-0.1-1.1,0c-1.5,0.3-1.6,1.4-1.9,2.5c-0.1,0.5-0.2,0.9-0.4,1.4c-0.1,0-0.2,0-0.4-0.1
			C141.1,57.9,141.1,57.1,141.1,56.2z M99.4,82.6c-0.1,0.1-0.3,0.1-0.4,0.2c-1.4-1.2-2.9-2.3-4.3-3.5c-1.2,0.7-2.3,1.4-3.5,2.2
			c-1,0.6-1,0.9-0.1,1.7c-1.2,1.6-2.6,3.1-2.7,5.2c0.4-0.5,0.8-1,1.2-1.5c0.1,0,0.2,0,0.3,0.1c-0.2,2.2-0.3,4.3-0.5,6.6
			c0.8,0.4,1.6,0.2,2.1-0.5c0.4-0.6,0.6-1.4,0.8-2.1c0.1-0.4,0.3-0.8,0.4-1.2c0.1,0,0.3,0.1,0.4,0.1c0,0.8,0,1.6,0,2.4
			c1.2-0.3,2-0.9,2.3-1.8s0.3-1.9,0.4-2.8c0.2,0,0.3,0,0.5,0c0.1,0.8,0.3,1.6,0.4,2.5c1.9-0.8,1.4-2.5,1.7-3.9c0.1,0,0.2,0,0.3,0
			c0.2,0.6,0.4,1.1,0.7,1.7c0.5-0.4,0.8-0.9,0.9-1.4c0.4-1.9-0.1-3.6-0.7-5.4c-0.5-1.3-1.4-2.6-0.8-4c0-0.1-0.1-0.3-0.2-0.5
			c-0.2,0.1-0.4,0.2-0.4,0.3c-0.5,1.1-0.8,2.1,0,3.2C98.6,80.9,99,81.7,99.4,82.6z M183.8,72.7c-0.1,0.1-0.2,0.2-0.3,0.3
			c0.9,0.8,1.6,1.8,2.6,2.3c3.8,2.1,8,2.7,12.3,2.7c0.3,0,0.7-0.3,0.8-0.6c0.6-1.4,0.4-4.5-0.4-6.2c0,0.8-0.1,1.4-0.1,1.9
			c-1.1-1.1-2.1-2.1-3.2-3.2c-0.1,0.1-0.2,0.1-0.3,0.2c1.3,1.6,2.5,3.3,2.4,5.5c-0.2-0.3-0.2-0.6-0.4-0.9c-0.5-0.8-1.1-1.6-1.7-2.3
			c-0.2-0.2-0.8-0.3-1-0.2c-0.3,0.2-0.4,0.6-0.4,1s0.1,0.8,0.2,1.2c-0.1,0-0.3,0.1-0.4,0.1c-0.6-1.2-1.3-2.4-1.9-3.6
			c0.1,1.2,0.2,2.4,0.8,3.4s1.6,1.8,2.4,2.7c-0.1,0.1-0.1,0.3-0.2,0.4c-1-0.3-2-0.5-2.9-1c-2-1.3-3.2-3.1-3.8-5.2
			c-0.5-1.6,0.5-2.9,2.3-3.4c1-0.3,1.9-0.7,2.9-1c0-0.1,0-0.2,0-0.3c-2-0.3-3.6-1.1-4.4-2.6c-1,0.1-1.8,0.3-2.6,0.4
			c-0.5,0.5-0.8,1-1.4,1.4c-1,0.6-1,1.3-0.5,2.1c1.3,2,2.6,3.9,3.8,5.9c0.4,0.6,1.1,1.3,0.3,2c-0.2,0.2-1.4-0.5-1.9-0.9
			c-0.6-0.4-1-1-1.5-1.5c-0.1,0.1-0.1,0.1-0.2,0.2c0.2,0.4,0.4,0.8,0.6,1.3c-0.1,0.1-0.2,0.1-0.2,0.2c-0.3-0.3-0.6-0.5-0.8-0.8
			C184.5,73.3,184.2,73,183.8,72.7z M35.2,75.1c1.1,1.1,2.1,2.2,3.1,3.2c0.1-0.1,0.2-0.2,0.4-0.2c-1.4-1.6-2.4-3.2-2.2-5.3
			c0.2,0.4,0.3,0.8,0.6,1.2c0.4,0.7,0.9,1.4,1.5,2c0.2,0.2,0.8,0.3,1.2,0.2c0.2-0.1,0.2-0.6,0.2-1s-0.1-0.8-0.1-1.1
			c0.1,0,0.3-0.1,0.4-0.1c0.6,1.2,1.3,2.5,1.9,3.7c-0.3-2.4-0.8-4.7-3.6-6.2c1.6-0.4,2.6,0,3.5,0.6c1.6,1.1,2.6,2.6,3.4,4.2
			c1.1,2.4,0.2,3.9-2.5,4.6c-0.8,0.2-1.5,0.6-2.5,1c2.2,0.5,3.8,1.3,4.7,2.7c1-0.1,1.8-0.3,2.7-0.4c0.2-0.3,0.5-0.8,0.9-1.2
			c1.3-1,1.4-1.3,0.5-2.7c-1.4-2-2.6-4-4-6.1c-0.1-0.2-0.2-0.3-0.2-0.5c0-0.3,0-0.7,0.2-0.8c0.2-0.1,0.6-0.1,0.9,0
			c0.4,0.2,0.8,0.5,1.1,0.8c0.5,0.5,0.9,1,1.4,1.5c0.1,0,0.1-0.1,0.2-0.1c-0.2-0.4-0.3-0.8-0.5-1.2c0.1-0.1,0.2-0.1,0.2-0.2
			c0.6,0.6,1.2,1.2,1.8,1.8c0.1-0.1,0.2-0.2,0.3-0.2c-0.6-0.6-1.1-1.3-1.8-1.8c-3.9-2.6-8.4-3.2-13.1-3.2c-0.4,0-1,0.6-1,1
			c-0.1,1.9,0,3.8,0.1,5.7c0.1,0,0.3,0,0.4,0C35.2,76.5,35.2,75.8,35.2,75.1z M173.4,96.9c0.1-0.1,0.2-0.2,0.3-0.2
			c-9.1-9.9-18.3-19.7-27.5-29.7c-0.2,0.7-0.2,1.3-0.5,1.7c-0.5,0.7-0.2,1.1,0.3,1.6c3.5,3.3,7,6.7,10.4,10c0.3,0.3,0.6,0.6,0.9,0.9
			l-0.1,0.1c-3.9-3.4-7.9-6.8-11.8-10.2c-0.1,0.1-0.2,0.2-0.3,0.3C154.5,79.9,164,88.4,173.4,96.9z M88.7,77.3
			c0.1-0.1,0.2-0.2,0.3-0.3c-9.3-8.3-18.5-16.6-27.8-24.8c-0.1,0.1-0.2,0.2-0.3,0.2c8.9,9.6,17.8,19.3,26.9,29
			c0.2-0.7,0.2-1.2,0.5-1.5c0.6-0.8,0.3-1.4-0.4-2c-3.3-3.1-6.6-6.3-9.9-9.5c-0.2-0.2-0.4-0.4-0.6-0.6c0,0,0.1-0.1,0.2-0.1
			C81.3,70.9,85,74.1,88.7,77.3z M173.1,59.8c0.1,0,0.2-0.1,0.4-0.1c1.6,2.1,2.3,4.9,4.8,6.6c0-0.4,0-0.6,0-0.9
			c3.6,1.7,3.6,1.7,4.8,1.4c-0.4-0.1-0.7-0.1-1-0.1c-1.9-0.3-2.2-0.6-2.6-2.4c0-0.2-0.2-0.4-0.4-0.6c-0.8-0.5-1.7-1.1-2.6-1.7
			c0.2-0.2,0.6-0.5,0.7-0.8c0.1-0.2,0-0.8-0.1-0.9c-1.7-0.4-1.2-1.1-0.3-1.9c0.1-0.1,0-0.2,0.1-0.3c-0.6-0.3-1.1-0.6-1.7-0.9
			c0.4-0.4,0.9-0.9,1.4-1.4c-0.6-0.3-1.1-0.6-1.8-1c0.7-0.4,1.1-0.7,1.7-1c-0.6-0.3-1.1-0.5-1.7-0.8c0.8-0.5,1.4-0.8,2-1.2
			c-0.1-0.1-0.1-0.2-0.2-0.3c-1.9,0.4-3.8,0.7-5.7,1.2c-0.3,0.1-0.6,0.5-0.6,0.8c-0.2,1.7-0.6,3.4-0.3,5.1c0.7,3.7,2.9,6.8,5.3,9.8
			c0.5,0.6,1.6,1,2.5,1.1c2.4,0.3,4.9,0.5,7,0.6c-0.2-0.1-0.8-0.4-1.3-0.5c-1.7-0.3-3.4-0.5-5.1-0.7c-1.4-0.1-2.6-0.6-3.4-1.7
			c-1.8-2.5-3.4-5.2-4-8.1c-0.3-1.5-0.1-3.2-0.1-4.8c0-0.3,0.5-0.7,0.8-1c0.2,0,0.3,0.1,0.5,0.1c-0.7,2.7-0.4,5.3,1.2,7.7
			C173.2,60.8,173.2,60.3,173.1,59.8z M57.3,96.4c0.1,0.1,0.1,0.2,0.2,0.3c1.9-0.4,3.8-0.7,5.6-1.1c0.3-0.1,0.7-0.5,0.7-0.8
			c0.2-1.7,0.6-3.4,0.3-5.1c-0.6-3.6-2.9-6.5-5-9.4c-0.8-1.1-1.9-1.4-3.3-1.5c-1.8-0.1-3.6-0.3-5.4-0.5c-0.5-0.1-1-0.3-1.5-0.4
			c0,0.1-0.1,0.2-0.1,0.3c0.8,0.3,1.6,0.6,2.5,0.8c1.4,0.2,2.9,0.4,4.3,0.5c1.7,0.1,3,0.7,3.7,2.1c1.2,2.2,2.5,4.5,3.5,6.8
			c0.8,1.8,1,3.7,0.4,5.6c-0.1,0.4-0.5,0.7-0.8,1.1c-0.2,0-0.3-0.1-0.5-0.1c0.7-2.6,0.4-5.1-1.1-7.8c0,0.7-0.1,1.1-0.1,1.5
			c-1.9-2.1-2.6-4.8-4.9-6.5c0,0.3-0.1,0.6-0.1,0.9c-3-1.7-3.5-1.9-5-1.5c0.5,0.1,0.8,0.1,1.1,0.1c1.9,0.3,2.3,0.6,2.7,2.4
			c0.1,0.3,0.3,0.6,0.5,0.7c0.8,0.5,1.6,0.9,2.5,1.4c-0.3,0.4-1,1-0.9,1.4c0.2,0.5,1,0.7,1.6,1.1c-0.4,0.5-0.8,0.9-1.3,1.4
			c0.5,0.2,0.9,0.3,1.2,0.4s0.6,0.3,0.6,0.6c0,0.1-0.3,0.4-0.5,0.6c-0.3,0.2-0.6,0.4-1.1,0.7c0.8,0.4,1.3,0.6,2.1,1
			c-0.7,0.4-1.2,0.7-1.8,1c0.6,0.3,1.1,0.5,1.8,0.8C58.5,95.7,57.9,96,57.3,96.4z M165.4,80.5c0.1-1.1,0.2-2.1,0.3-3
			c0.1-1-0.5-1.6-1.6-1.8c-2.3-0.5-4.4-0.1-6.2,1.4c-0.6,0.5-0.5,0.8,0.1,1c1.6-0.7,3.1-1.3,4.7-1.7c0.3-0.1,0.8,0.3,1.2,0.5
			c-0.3,0.3-0.6,0.6-1,0.8c-0.9,0.5-2,0.9-2.9,1.4c-0.7,0.4-0.7,0.9-0.1,1.5c1.7,1.8,3.3,3.7,4.9,5.5c0.9,0.9,1.8,1.8,2.6,2.7
			c0.2,0,0.3,0,0.5-0.1c0.3-1.3,0.6-2.7,0.9-4c-0.1-0.1-0.2-0.1-0.4-0.2c-0.3,0.2-0.5,0.4-0.9,0.5c-0.3,0.1-0.6,0.1-0.9,0.1
			c0-0.2-0.1-0.5,0-0.7c0.1-0.3,0.3-0.6,0.4-0.9c0.5-1.1,1.1-2.1,1.5-3.2c0.2-0.5,0-1.1-0.1-2C167.4,79.3,167,80.6,165.4,80.5z
			 M66.5,59.6c-1.3,1.4-0.9,2.8-1.1,4.2c0.4-0.1,0.7-0.3,1-0.4c0.3-0.1,0.6-0.1,0.9-0.2c0,0.3,0.1,0.6,0,0.8c-0.2,0.5-0.6,1-0.8,1.5
			c-0.4,0.9-0.9,1.7-1.1,2.6c-0.1,0.5,0.1,1.1,0.1,1.7c0.8-0.7,1.5-1.3,2.2-1.8c0.2-0.1,0.6-0.1,0.9-0.1c0,0.2,0.1,0.5,0.1,0.7
			c-0.1,0.8-0.2,1.6-0.3,2.3c-0.1,1,0.6,1.6,1.6,1.7c2.3,0.4,4.5,0.1,6.2-1.4c0.2-0.2,0.2-0.7,0.3-1c-0.5,0-0.6,0.1-0.8,0.1
			c-1.3,0.6-2.6,1.2-4,1.7c-0.4,0.1-1-0.3-1.6-0.5c0.4-0.3,0.7-0.6,1.2-0.8c1-0.5,2-1,2.9-1.6c0.2-0.1,0.3-0.8,0.1-1
			C71.8,65.3,69.2,62.5,66.5,59.6z M53,112.5c-1.5,1-3.1,2-4.6,2.9c0.3,0,0.7-0.1,1.1-0.1c0,0.1,0.1,0.1,0.1,0.2
			c-0.6,0.3-1.2,0.5-1.8,0.8c-0.1,0.4-0.1,0.8-0.2,1.2c-0.6-0.4-0.9-0.9-1.2-1.4c-1.4-2-4.3-2.9-6.7-2c-2.2,0.8-3.5,3.2-3,5.4
			c0.4,1.8,1.7,2.8,3.6,3.4c2.1,0.6,3.8,0,5.1-1.4c1.2-1.2,2.2-2.5,3.1-3.9c1.2-1.8,2.9-3,5.1-3.6c0.4-0.1,0.8-0.3,1.2-0.4
			c0-0.1,0-0.3-0.1-0.4c-0.5,0-1,0-1.4,0.1c-0.5,0.2-1,0.5-1.5,0.8c-0.1-0.1-0.2-0.2-0.2-0.3C52.2,113.4,52.6,112.9,53,112.5z
			 M186.3,30.7c0.1,0,0.3,0.1,0.4,0.1c0.2,0.4,0.4,0.7,0.7,1.1c1.3,2.2,4.2,3.1,6.8,2.3c2.2-0.7,3.6-3.1,3.1-5.3
			c-0.4-1.8-1.6-2.9-3.5-3.4c-2.1-0.7-3.9,0-5.2,1.4c-1.1,1.1-2.1,2.3-2.9,3.6c-1.3,2-3.1,3.4-5.6,4c-0.4,0.1-0.7,0.3-1.1,0.4
			c0,0.1,0.1,0.3,0.1,0.4c0.5-0.1,1.1-0.1,1.5-0.2c0.5-0.2,1-0.5,1.4-0.8c0.1,0.1,0.1,0.2,0.2,0.3c-0.4,0.5-0.9,0.9-1.3,1.4
			c1.6-1,3.1-2,4.5-2.9c-0.2,0-0.6,0-1.1,0C185.4,32.4,186.7,32.2,186.3,30.7z M122.9,108.1c0,0.1-0.1,0.2-0.1,0.3
			c0.5,0.1,0.9,0.4,1.4,0.4c2.7-0.1,5.5,0.1,8.1-1.2c2.2-1.1,4.5-1.8,6.7-2.8c0.5-0.2,1.4-0.7,1.3-0.9c-0.1-0.5-0.6-1.2-1.1-1.4
			c-1.9-0.8-3.9-1.5-5.8-2.1c-1.5-0.5-3.1-0.9-4.6-1.4c-1.8-0.7-3.6-1.4-5.4-2.2c-2.4-1-4.9-1.2-7.4-0.8c-0.9,0.1-1.8,0.6-2.6,1
			c0,0.1,0.1,0.3,0.1,0.4c0.5,0,0.9,0.1,1.4,0.1c0.9,0,2-0.2,2.8,0.1c1.9,0.6,3.8,1.4,5.7,2.1c1.8,0.7,3.6,1.4,5.4,2
			c0-0.1,0.1-0.1,0.1-0.2c-0.9-0.6-1.8-1.3-2.8-1.9c0.1-0.1,0.1-0.2,0.2-0.3c0.4,0.1,0.7,0.1,1.1,0.2c2.2,0.6,4.4,1.3,6.6,2
			c1,0.3,2,0.8,3,1.2c0.6,0.2,1.1,0.4,1.9,0.7c-0.2,0.2-0.6,0.8-1.1,1.1c-1,0.5-2.2,0.9-3.3,1.3c-0.9,0.4-2,0.6-2.8,1.1
			c-2.4,1.5-5.1,1.6-7.8,1.3C123.5,108.2,123.2,108.2,122.9,108.1z M111.1,40.2c0-0.1,0.1-0.2,0.1-0.4c-0.7-0.1-1.4-0.4-2.1-0.4
			c-1.4,0-2.7,0.1-4.1,0.3c-0.9,0.1-1.7,0.4-2.6,0.7c-2.5,1-4.9,2-7.3,3c-0.5,0.2-1.4,0.7-1.3,1c0.1,0.5,0.6,1.2,1.2,1.4
			c1.9,0.8,4,1.5,6,2.1c1.3,0.4,2.6,0.7,3.9,1.2c1.9,0.7,3.9,1.5,5.8,2.3c2.4,1,4.9,1.2,7.5,0.9c0.9-0.1,1.8-0.6,2.7-1
			c0-0.1-0.1-0.3-0.1-0.4c-0.4,0-0.9-0.2-1.3-0.1c-2,0.3-3.8-0.2-5.6-1c-2.1-0.9-4.3-1.8-6.4-2.6c-0.5-0.2-1.1-0.3-1.9-0.5
			c1.1,0.8,1.9,1.4,2.6,1.9c-0.1,0.1-0.2,0.2-0.3,0.3c-0.4-0.1-0.7-0.2-1.1-0.3c-2.1-0.6-4.1-1.2-6.2-1.9c-1.1-0.3-2.1-0.8-3.2-1.2
			c-0.6-0.2-1.3-0.5-2.1-0.8c0.3-0.3,0.7-0.8,1.2-1.1c1-0.5,2.1-0.8,3.2-1.2c0.9-0.4,2-0.6,2.8-1.1c1.8-1.2,3.8-1.5,5.8-1.5
			C109.2,40,110.1,40.2,111.1,40.2z M174.5,39.3c-0.1-0.1-0.2-0.2-0.3-0.3c-9.1,5.3-18.1,10.6-27.2,16c0.1,0.1,0.1,0.2,0.2,0.2
			c0.9-0.4,1.7-0.9,2.6-1.4c0.1,0.1,0.1,0.2,0.2,0.3c-1.1,0.8-2.2,1.7-3.3,2.5c0.1,0.1,0.2,0.2,0.2,0.3c4.3-2.6,8.6-5.2,12.9-7.7
			c0.1,0.1,0.2,0.3,0.3,0.4c-4.8,3-9.7,5.9-14.5,8.9c0.1,0.1,0.1,0.2,0.2,0.3c10-6.1,20.1-12.1,30.1-18.2c-0.1-0.1-0.1-0.2-0.2-0.3
			c-2.9,1.7-5.9,3.4-8.8,5.1c-0.1-0.1-0.2-0.3-0.3-0.4c2.3-1.4,4.7-2.8,7-4.1c-0.1-0.1-0.1-0.1-0.2-0.2c-5.1,2.9-10.2,5.7-15.3,8.6
			c-0.1-0.1-0.1-0.2-0.2-0.3C163.5,45.8,169,42.6,174.5,39.3z M59.6,109.1c0.1,0.1,0.1,0.2,0.2,0.3c9.1-5.3,18.2-10.6,27.2-16
			c-0.1-0.1-0.1-0.2-0.2-0.2c-0.9,0.5-1.7,0.9-2.6,1.4c-0.1-0.1-0.1-0.2-0.2-0.3c1.1-0.8,2.2-1.7,3.3-2.5c-0.1-0.1-0.1-0.2-0.2-0.3
			c-4.3,2.6-8.6,5.2-12.9,7.7c-0.1-0.1-0.2-0.3-0.3-0.4c4.8-2.9,9.6-5.9,14.4-8.8c-0.1-0.1-0.1-0.2-0.2-0.3c-10,6-20,12.1-30,18.1
			c0.1,0.1,0.1,0.2,0.2,0.3c2.9-1.7,5.9-3.4,8.8-5.1c0.1,0.1,0.2,0.3,0.3,0.4c-2.3,1.4-4.7,2.8-7,4.2c0.1,0.1,0.1,0.2,0.2,0.2
			c5.1-2.9,10.2-5.7,15.2-8.6c0.1,0.1,0.1,0.2,0.2,0.3C70.5,102.6,65.1,105.8,59.6,109.1z M126.6,68c-0.1-0.1-0.1-0.1-0.2-0.2
			c1.4-0.9,2.8-1.9,4.1-2.8c-0.1-0.1-0.1-0.1-0.2-0.2c-8.6,5.3-17.1,10.5-25.7,15.8c0.1,0.1,0.1,0.1,0.2,0.2
			c5.5-3.3,11.1-6.6,16.6-10c0.1,0.1,0.1,0.2,0.2,0.2c-6.6,4.1-13.2,8.2-19.8,12.2c0.1,0.1,0.2,0.2,0.2,0.3c1.8-1,3.6-2.1,5.4-3.1
			c0.1,0.1,0.1,0.1,0.2,0.2c-1.4,0.9-2.8,1.9-4.1,2.8c0.1,0.1,0.1,0.1,0.2,0.2c8.3-5.1,16.7-10.3,25-15.4c-0.1-0.1-0.1-0.2-0.2-0.2
			c-5.1,3-10.2,6.1-15.2,9.1c-0.1-0.1-0.1-0.2-0.2-0.3c6.4-3.9,12.8-7.9,19.2-11.8c-0.1-0.1-0.2-0.2-0.2-0.3
			C130.2,65.9,128.4,66.9,126.6,68z M82.2,98.2c0.1-0.1,0.1-0.3,0.2-0.4c1.1,0.4,2.3,1,3.5,1.2c1.3,0.2,2.6,0.1,3.9-0.1
			c1.2-0.1,2.3-0.5,3.5-0.8c-1.4-0.3-2.6-0.2-3.9-0.3c-0.3,0-0.6-0.4-1-0.7c0.3-0.2,0.7-0.5,1-0.6s0.7,0,1.1,0
			c1.2-0.2,2.4-0.4,3.4-0.8c1.5-0.6,1.7-1.6,0.8-2.9c-0.8,0.3-1.8,0.5-2.4,1c-1.1,0.8-2.3,0.9-3.5,0.5c-0.8-0.3-1.3-0.1-1.7,0.4
			c-0.2,0.3-0.2,0.9,0,1.3c0.3,0.8,0,1.3-1,1.3c-0.4,0-0.8-0.1-1.2-0.1c-1.6-0.3-3,0.3-4.2,1.2c-0.4,0.3-0.7,0.7,0,0.9
			c1,0.2,2,0.3,3,0.5c0-0.1,0-0.2,0.1-0.3C83.3,99,82.8,98.6,82.2,98.2z M151.9,50.3c-0.1,0.1-0.1,0.1-0.2,0.2
			c-1.8-0.4-3.7-1.1-5.5-1.2c-1.9,0-3.7,0.6-5.6,1c0,0.1,0.1,0.2,0.1,0.3c0.3,0,0.6-0.1,1-0.1c1,0,2-0.1,3,0c0.4,0,0.7,0.5,1,0.8
			c-0.4,0.2-0.7,0.4-1.1,0.6c-0.3,0.1-0.6,0-0.9,0c-1.2,0.2-2.5,0.4-3.7,0.8c-1.4,0.5-1.6,1.5-0.8,2.9c0.8-0.3,1.8-0.4,2.4-0.8
			c1.2-1,2.5-0.9,3.9-0.6c0.4,0.1,1.1-0.2,1.4-0.5c0.2-0.2,0.2-0.7,0.1-1.1c-0.4-1.1,0-1.6,1.2-1.5c0.5,0,1,0.2,1.5,0.2
			c1.4,0.2,3.4-0.8,4.1-2c-1.2-0.2-2.3-0.4-3.4-0.6c0,0.1-0.1,0.1-0.1,0.2C150.8,49.4,151.3,49.8,151.9,50.3z M104,84.2
			c-0.1,0.2-0.1,0.3-0.2,0.5c0.4,0.1,0.9,0.2,1.3,0.3c1.7,0.7,3.3,1.3,4.9,2c0.3,0.2,0.4,0.8,0.6,1.2c-0.4,0.1-0.8,0.2-1.2,0.2
			c-0.8-0.2-1.6-0.5-2.5-0.7c-0.6-0.2-1.3-0.2-1.9-0.4c0.4,0.6,0.8,0.8,1.2,1.2c0.4,0.4,0.6,0.8,1,1.2c-0.4,0.2-0.9,0.5-1.4,0.7
			c0.5,0.4,1,0.9,1.6,1.4c0.6-0.4,1.1-0.9,1.7-1.2c1.3-0.6,2.6-1.3,3.9-1.5c2.6-0.4,5.2,2.3,3.4,4.5c-0.1,0.2-0.1,0.4-0.3,0.7
			c0.8,0.1,1.6,0.2,2.5,0.4c-0.2-0.4-0.4-0.6-0.6-0.9c0.7-0.1,1.2-0.1,1.9-0.2c-0.7-0.5-1.3-0.9-2.1-1.4c0.8-0.1,1.2-0.1,2-0.2
			C114.9,88.6,109.8,85.9,104,84.2z M128.9,61.1c0.1-0.1,0.1-0.2,0.2-0.3c-0.4-0.3-0.9-0.5-1.2-0.9c-0.4-0.4-0.7-0.8-1-1.2
			c0.4-0.2,0.8-0.5,1.3-0.7c-1.3-1.5-1.2-1.4-3-0.4c-1.2,0.7-2.6,1.3-4,1.6c-1.5,0.3-2.7-0.3-3.6-1.4c-0.8-1-0.5-2,0.1-3
			c0.1-0.2,0.1-0.4,0.2-0.7c-0.8-0.1-1.6-0.2-2.5-0.3c0.3,0.4,0.5,0.6,0.7,0.9c-0.7,0-1.2,0.1-2,0.1c0.7,0.5,1.3,0.9,2,1.4
			c-0.8,0.1-1.2,0.1-1.9,0.2c1.1,0.7,1.9,1.4,2.8,1.9c3.8,1.9,7.5,3.7,11.3,5.5c0.5,0.3,1.2,0.3,1.9,0.4c-1.8-0.9-3.7-1.6-5.5-2.3
			c-0.7-0.3-1.5-0.6-1.1-1.5c0.4-0.8,1.2-0.2,1.8-0.1C126.5,60.5,127.7,60.8,128.9,61.1z M35.5,68.6c-0.4-0.3-1-0.1-1.3,0.3
			c-0.6,0.9-1.3,1.8-1.5,2.8c-0.9,4.2-1.8,8.5-2.2,12.7c-0.4,3.6-0.3,7.3-0.3,11c0,1.2,0.4,2.4,0.9,3.6c0.5,1.1,1.3,1.1,2.1,0
			c-1.4,0.1-1.7-0.7-1.8-1.7c-0.1-1-0.2-1.9-0.3-2.9c-0.3-5.6,0.3-11.1,1.1-16.6c0.4-2.6,1.1-5.1,1.8-7.6
			C34.2,69.6,34.9,69.2,35.5,68.6z M197.8,79.2c0.9,0.9,1.7,1,2.3,0.1c0.6-0.8,1.2-1.8,1.4-2.7c0.7-3.3,1.5-6.6,1.9-9.9
			c0.4-4.5,0.6-8.9,0.6-13.4c0-1.3-0.5-2.6-1-3.9c-0.1-0.3-0.7-0.6-1.1-0.7c-0.3,0-0.6,0.3-1,0.5c1.1-0.2,1.4,0.3,1.6,1
			c0.2,1.2,0.5,2.4,0.5,3.7c-0.1,4.1-0.1,8.2-0.6,12.3c-0.4,3.7-1.2,7.3-1.9,10.9C200.1,79.1,199.6,79.3,197.8,79.2z M134.6,58.9
			c0.9-0.7,1.6-1.3,2.5-2c-1.4-1.5-2.7-3-4.1-4.5c-1.3-1.4-2.2-1.6-4.1-0.8c-0.8,0.4-1.5,1-2.2,1.6c-0.6,0.5-0.6,1,0,1.5
			c2,1.8,3.9,3.5,5.8,5.3c0.1,0.1,0.3,0.2,0.5,0.3c-0.1-0.5-0.4-0.9-0.7-1.2c-1.3-1.4-2.7-2.8-4-4.2c-0.7-0.7-0.8-1.3,0.1-1.8
			c0.7-0.4,1.4-0.9,2.1-1c1.3-0.3,3,1.4,2.7,2.7c-0.6-0.1-1.3-0.3-2.2-0.5C131.9,56.5,133.4,57.7,134.6,58.9z M97.1,91.5
			c1.3,1.4,2.7,2.9,4,4.3c1.4,1.5,2.4,1.7,4.3,0.8c0.8-0.4,1.4-1,2.1-1.6c0.6-0.5,0.5-1-0.1-1.5c-1.9-1.7-3.8-3.5-5.8-5.2
			c-0.2-0.2-0.4-0.2-0.6-0.3c0,0.3,0.1,0.4,0.2,0.6c1.5,1.6,3,3.1,4.4,4.7c0.3,0.4,0.7,0.9,0.6,1.3c-0.2,0.9-2.2,1.8-3.4,1.6
			c-1-0.2-2.2-1.7-2.1-2.7c0.7,0.1,1.3,0.3,2.2,0.4c-0.8-2-2.3-3.2-3.6-4.5C98.5,90.1,97.9,90.8,97.1,91.5z M204.7,54.5
			c0,2.8,0.1,5.4,0,8c-0.1,2.3-0.1,2.3,2.5,2.3c0.1,0,0.2,0,0.5-0.2c0-3.1,0-6.2,0-9.4c0-0.2-0.4-0.5-0.6-0.5
			C206.4,54.6,205.8,54.6,204.7,54.5z M26.4,83.6c0,1.2,0,2.2,0,3.1c0,2.1,0,4.1,0,6.2c0,1.4,1.3,0.9,2.1,1c0.9,0.2,0.6-0.6,0.7-1
			c0.1-2.1,0.1-4.3,0.2-6.4c0-0.8,0.1-1.7,0.1-2.6C28.4,83.8,27.6,83.7,26.4,83.6z M27.8,99.2c-0.3-0.5-0.8-0.9-1-1.4
			c-0.4-1.2-0.9-2.5-0.9-3.7c0-4.9,0.1-9.8,0.4-14.7c0.2-3.2,1.2-6.3,2.8-9.2c0.5-0.9,0.9-1.9,2.6-2c-1.1-0.6-1.7-0.2-2,0.3
			c-0.8,1.1-1.6,2.3-2,3.6c-1.9,5.5-3,11.1-2.8,16.8c0.1,2.9,0.8,5.8,1.4,8.7C26.3,98.4,26.9,99,27.8,99.2z M125.2,55.3
			c-0.8,0.5-1.3,1-2,1.3c-0.4,0.2-1,0.1-1.6,0.1c0.1-0.4,0.1-1,0.4-1.3c2.7-2.2,5.4-4.4,8.2-6.5c0.5-0.4,1.5-0.4,2.3-0.2
			c0.3,0.1,0.3,1,0.4,1.6c0.1-0.1,0.5-0.3,0.6-0.5c0.2-0.5,0.6-1.2,0.5-1.7c-0.2-0.8-1.1-0.9-1.9-0.7c-1,0.3-2.2,0.6-3,1.2
			c-2.7,2-5.3,4.2-7.8,6.4c-0.6,0.5-1,1.1-1.3,1.7c-0.1,0.2,0.3,0.9,0.6,1.1C121.7,58.2,124.7,56.6,125.2,55.3z M202.9,80.3
			c0,0.1,0,0.2,0,0.2c0.5-0.2,1.1-0.3,1.4-0.6c0.7-0.9,1.5-1.9,1.9-3c0.9-2.6,1.6-5.3,2.2-8c1.2-5.4,1.4-10.8,0.1-16.3
			c-0.2-1-0.7-2-1.2-2.9c-0.1-0.3-0.7-0.4-1-0.6c0.3,0.6,0.8,0.9,0.9,1.3c0.4,1.3,0.9,2.6,1,3.9c0.5,5.5,0.2,11.1-0.8,16.5
			c-0.6,3-1.3,6-3.4,8.6C203.8,79.8,203.3,80.1,202.9,80.3z M101.1,98.1c-0.6,0.6-1.7,1-1.1,2.2c0.4,0.8,1.4,1,2.8,0.5
			c0.9-0.3,1.7-0.7,2.5-1.2c1.2-0.8,2.4-1.7,3.5-2.7c1.7-1.5,3.4-3,4.9-4.5c0.3-0.3,0.3-1,0.4-1.5c-0.6-0.1-1.3-0.4-1.7-0.2
			c-1.2,0.5-2.3,1.2-3.5,1.9c-0.1,0,0,0.2-0.1,0.6c0.7-0.5,1.3-1,1.9-1.2c0.5-0.2,1.1-0.1,1.7-0.2c-0.2,0.5-0.2,1.1-0.5,1.3
			c-2.6,2.2-5.3,4.2-8,6.3c-0.2,0.2-0.5,0.3-0.8,0.3c-0.6,0-1.4,0.1-1.8-0.2C101.1,99.4,101.2,98.7,101.1,98.1z M101.5,80.7
			c2.2-0.3,14.7-8.8,15-10c-2,1.3-3.8,2.5-5.7,3.7c0,0,0-0.1-0.1-0.1c1.4-1.3,2.7-2.6,4.1-4c-0.1,0-0.1-0.1-0.2-0.1
			C110.3,73.7,105.9,77.2,101.5,80.7z M117.4,77.2c0.1,0.1,0.2,0.3,0.3,0.4c1.8-1.1,3.5-2.3,5.3-3.4l0.1,0.1c-1.1,1-2.2,2.1-3.2,3.1
			c0.1,0.1,0.2,0.1,0.2,0.2c4.1-3.3,8.3-6.6,12.4-9.8c-0.1-0.1-0.2-0.2-0.3-0.3C127.1,70.4,122.2,73.7,117.4,77.2z M173.6,37.8
			c0.6-0.2,1-0.5,1.4-0.4c1.5,0.2,2.6,1.5,2.7,3c0,0.9-0.4,1.3-1.6,1.2c0.5,0.8,1.2,1.1,1.9,0.8s1.5-0.6,2.1-1.1
			c1.2-0.7,1.5-1.6,0.7-2.7c-0.7-1.1-1.6-2.1-2.6-2.9c-1.1-0.9-4.5,0.3-4.8,1.6C173.5,37.5,173.6,37.8,173.6,37.8z M57.9,106.9
			c-0.4-0.9-1.1-1.1-1.9-0.8c-0.8,0.3-1.5,0.7-2.2,1c-1.1,0.6-1.4,1.6-0.8,2.5c0.8,1.2,1.9,2.2,2.9,3.3c0.3,0.3,1.1,0.4,1.5,0.3
			c1-0.4,1.9-0.9,2.7-1.5c0.3-0.2,0.3-0.8,0.3-1.1c-0.6,0.2-1,0.5-1.4,0.5c-1.5-0.1-2.7-1.5-2.8-3C56.3,107.1,56.8,106.8,57.9,106.9
			z M222.5,48.8c1.2,0,2.1-0.8,2.1-1.9c0-1-1-1.9-2.2-1.9c-1.1,0-2,0.9-2.1,1.9C220.3,48,221.3,48.9,222.5,48.8z M98.6,43.9
			c0,0.1,0,0.2,0.1,0.2c2.2-0.7,4.5-1.5,6.8-1.9s4.6-0.3,6.9-0.5c-2.2-0.9-4.6-1.5-7-0.7C103.1,41.9,100.9,42.9,98.6,43.9z
			 M98.6,45.2c4.6-0.5,8.9-2.4,13.7-1.8C110,41.5,103.1,43.1,98.6,45.2z M121.8,105c2.5,2,10.7-0.1,13.6-1.8
			C130.9,103.7,126.6,105.6,121.8,105z M135.5,104.5c0-0.1-0.1-0.1-0.1-0.2c-2.2,0.7-4.4,1.5-6.7,1.9s-4.7,0.4-7.4,0.5
			c2.6,0.8,4.9,1.5,7.2,0.7C130.9,106.6,133.2,105.5,135.5,104.5z M11.6,103.4c1.1,0,2.1-0.8,2.1-1.8s-1-2-2.1-2s-2.1,0.8-2.1,1.8
			S10.4,103.3,11.6,103.4z M22.6,79.4c1.2,0,2.1-0.9,2.1-1.9s-1.1-1.9-2.2-1.9c-1.2,0-2.2,0.9-2.1,1.9
			C20.4,78.5,21.4,79.4,22.6,79.4z M209.4,71c0,1,1,1.9,2.2,1.9s2.2-0.9,2.1-1.9c0-1-1.1-1.9-2.2-1.9
			C210.3,69.1,209.4,69.9,209.4,71z M223.7,73.4c0-0.9-0.8-1.7-1.7-1.7c-1,0-1.9,0.8-1.9,1.7c0,0.9,0.9,1.6,1.8,1.7
			C222.8,75.1,223.7,74.3,223.7,73.4z M14,75c0-0.9-0.9-1.7-1.8-1.7c-1,0-1.8,0.8-1.8,1.7c0,0.9,0.8,1.6,1.8,1.6
			C13.1,76.7,14,75.9,14,75z M131.4,45.9c-3.5,0.3-13,7.9-13.2,10.4C123.3,51.2,127.1,48.2,131.4,45.9z M102.9,102.4
			c3,0,12.6-7.6,13-9.9c-1.8,1.6-3.8,3.6-6,5.2C107.7,99.3,105.9,101.5,102.9,102.4z M24.9,71c0.9,0,1.6-0.7,1.6-1.5
			c0-0.9-0.9-1.6-1.8-1.6s-1.6,0.7-1.6,1.5C23.1,70.3,23.9,71,24.9,71z M223.4,60.9c0.9,0,1.7-0.8,1.6-1.6c0-0.9-0.8-1.5-1.8-1.5
			s-1.7,0.7-1.6,1.6C221.7,60.2,222.5,60.9,223.4,60.9z M209.3,80.5c0.9,0,1.7-0.6,1.7-1.4c0-0.9-0.8-1.6-1.7-1.7
			c-0.9,0-1.7,0.7-1.7,1.5C207.6,79.8,208.4,80.5,209.3,80.5z M9,89.1c0,0.9,0.7,1.6,1.7,1.6c0.9,0,1.7-0.7,1.7-1.6
			c0-0.8-0.8-1.6-1.7-1.6S9,88.2,9,89.1z M216.9,66.3c0,0.8,0.8,1.5,1.6,1.5s1.6-0.8,1.6-1.6c0-0.8-0.7-1.5-1.7-1.5
			C217.6,64.8,216.9,65.5,216.9,66.3z M13.9,82.2c0,0.8,0.7,1.5,1.6,1.5c0.9,0,1.6-0.7,1.6-1.5s-0.7-1.5-1.6-1.5
			C14.8,80.7,13.9,81.4,13.9,82.2z M121.6,103.6c0,0.1,0,0.3,0.1,0.4c3.7,0.4,9-0.2,11-1.2C129,103,125.3,103.3,121.6,103.6z
			 M135.4,53.7c0.2-0.1,0.3-0.2,0.5-0.3c-0.2-0.2-0.3-0.4-0.5-0.6c-0.2-0.2-0.4-0.4-0.6-0.6c0.3-0.1,0.5-0.4,0.8-0.4
			c1.4-0.1,2.1-1,2.8-2c-1,0.1-2,0-2.8,0.3s-1.3,1-2.1,1.6C134.1,52.3,134.7,53,135.4,53.7z M112.5,44.8c0-0.1,0-0.3-0.1-0.4
			c-3.8-0.5-7.5,0.1-11.2,1.2C105,45.4,108.8,45.1,112.5,44.8z M98.7,94.7c-0.1,0.1-0.3,0.1-0.4,0.2c0.1,0.2,0.2,0.5,0.4,0.6
			c0.2,0.2,0.5,0.4,0.7,0.7c-0.3,0.1-0.7,0.4-1,0.4c-1.3,0.2-1.8,1.1-2.4,1.9c2.1,0.6,3.3-0.4,4.6-1.7C100,96.1,99.3,95.4,98.7,94.7
			z M13.5,64.7c-0.1,0.8,0.6,1.6,1.4,1.5c0.8,0,1.4-0.5,1.5-1.2s-0.6-1.5-1.3-1.5C14.2,63.6,13.7,64,13.5,64.7z M220.2,55.4
			c0.3-0.4,0.9-0.8,1-1.3c0.1-0.8-0.5-1.3-1.4-1.4c-0.9,0-1.4,0.5-1.4,1.2C218.4,54.8,218.9,55.2,220.2,55.4z M14.7,95.8
			c0.3-0.4,0.9-0.8,1-1.3c0.1-0.8-0.5-1.3-1.4-1.3c-0.8,0-1.4,0.5-1.4,1.3C12.8,95.2,13.4,95.7,14.7,95.8z M217.6,84
			c0.4,0.2,0.9,0.7,1.5,0.9c0.8,0.2,1.6-0.7,1.5-1.4c-0.1-0.8-0.6-1.2-1.5-1.2C218.1,82.2,217.7,82.8,217.6,84z M18.6,71.5
			c-0.2-1.2-0.7-1.7-1.6-1.7c-0.8,0-1.4,0.5-1.4,1.3s0.6,1.4,1.5,1.3C17.7,72.3,18.2,71.7,18.6,71.5z M215.6,76.9
			c0.1,1.2,0.6,1.7,1.5,1.8c0.8,0,1.4-0.5,1.4-1.3s-0.5-1.4-1.4-1.3C216.4,76.1,215.9,76.7,215.6,76.9z M108,73.8
			c-2.3,1.8-4.6,3.5-6.8,5.3c0.1,0.1,0.2,0.2,0.3,0.3C104.1,78.1,106.3,76.2,108,73.8z M133.2,69.1c-1.9,0.2-6.6,4-7.1,5.5
			C128.4,72.8,130.6,71.1,133.2,69.1z M116.4,37.8c0.1-0.1,0.1-0.3,0.2-0.4c-0.6-0.2-1.5-0.8-1.9-0.7c-1,0.6-1.9,1.4-2.5,2.3
			c-0.2,0.2,0.7,1.1,1.1,1.6c0.1-0.1,0.3-0.1,0.4-0.2c-0.7-1-0.9-1.8,0.2-2.7C114.8,37.2,115.5,37.1,116.4,37.8z M117.6,110.6
			c-0.1,0.2-0.1,0.3-0.2,0.5c0.7,0.2,1.7,0.8,2.1,0.5c0.9-0.5,1.8-1.4,2.3-2.3c0.2-0.3-0.7-1.1-1.2-1.6c-0.1,0.1-0.2,0.1-0.4,0.2
			c0.6,0.9,0.9,1.7-0.1,2.6C119.4,111.2,118.6,111.3,117.6,110.6z M182.1,38.3c1.9-1.2,3.8-2.4,5.7-3.6
			C185.6,34.8,182.7,36.6,182.1,38.3z M46.3,113.7c2.1,0,5.2-1.9,5.6-3.6C50.1,111.3,48.2,112.5,46.3,113.7z M215.2,64.8
			c-0.1,0.1-0.2,0.2-0.4,0.3c0.1,0.8,0.3,1.6,0.4,2.5c1.4-0.2,0.6-1.1,0.8-1.7C216.1,65.5,215.5,65.1,215.2,64.8z M18.9,81
			c-0.1-0.1-0.2-0.1-0.3-0.2c-0.2,0.3-0.6,0.6-0.6,0.9c0,0.8-0.4,1.8,1.2,1.8C19.1,82.7,19,81.9,18.9,81z M112.9,34.9
			c-0.1-0.1-0.2-0.3-0.3-0.4c-0.6,0.1-1.3,0.1-1.7,0.4c-0.7,0.6-0.8,1.4,0,2.4C110.8,35.8,111.4,35,112.9,34.9z M121.3,113.6
			c0.1,0.2,0.1,0.3,0.2,0.5c0.6-0.2,1.3-0.2,1.7-0.5c0.6-0.6,0.8-1.3,0-2.3C123.2,112.6,122.7,113.4,121.3,113.6z M20.2,73.1
			c0-0.7,0-1.1,0-1.6c0-0.2-0.2-0.4-0.3-0.6c-0.2,0.2-0.4,0.3-0.5,0.5c-0.2,0.4-0.3,0.8-0.5,1.2C19.3,72.7,19.6,72.8,20.2,73.1z
			 M213.9,75.4c0,0.4,0,0.6,0,0.9c0.1,0.4,0.2,0.9,0.3,1.3c0.2-0.4,0.5-0.7,0.7-1.1c0.1-0.2,0.1-0.4,0.2-0.6
			C214.7,75.7,214.3,75.6,213.9,75.4z M216.6,53.6c0.1,0.8,0.2,1.5,0.3,2.2c0.1-0.1,0.5-0.2,0.9-0.4
			C217.3,53.5,217.3,53.5,216.6,53.6z M17,92.7c-0.1,0-0.4,0.2-0.7,0.3c0.4,2,0.4,2,1.2,1.8C17.4,94.1,17.2,93.5,17,92.7z
			 M39.1,90.9c1.3,0.5,3.1,0.1,3.7-0.9C41.6,90.3,40.3,90.6,39.1,90.9z M191.2,58.4c1.4-0.3,2.6-0.6,3.8-0.9
			C193.7,57.1,192.1,57.4,191.2,58.4z M149,79.1c0.1-0.1,0.2-0.2,0.2-0.3c-1.1-0.7-2.2-1.4-3.3-2.1c-0.1,0.1-0.2,0.2-0.2,0.3
			C146.8,77.8,147.9,78.5,149,79.1z M88,71.5c0.1-0.1,0.2-0.2,0.3-0.4c-1.1-0.6-2.2-1.2-3.3-1.9c-0.1,0.1-0.1,0.2-0.2,0.3
			C85.9,70.2,86.9,70.9,88,71.5z M30.8,74.8c0-0.1,0-0.2,0-0.3c-0.9,0-1.8,0-2.6,0c0,0.1,0,0.2,0,0.3C29.1,74.8,30,74.8,30.8,74.8z
			 M205.9,74c0-0.1,0-0.2,0-0.3c-0.9,0-1.7,0-2.6,0c0,0.1,0,0.2,0,0.3C204.1,74,205,74,205.9,74z M194.3,59.4c0-0.1-0.1-0.3-0.1-0.4
			c-1,0.3-1.9,0.6-2.9,0.9c0,0.1,0.1,0.2,0.1,0.3C192.4,59.9,193.3,59.6,194.3,59.4z"/>
		<path d="M52.8,23.5c0.2,1.3,0.2,2.6,0.6,3.8c0.4,1.2,1.2,2.3,1.7,3.7c-3.2-1.2-6.5-2.1-10.1-2.1c-3.5,0-7-0.1-10.5,0
			s-7-0.6-10.5,1c-0.9-2.5-1.9-5-2.8-7.5c-0.1-0.3,0.1-0.6,0.1-1.2c0.4,0.3,0.6,0.3,0.7,0.5c1,1.7,2.5,2.6,4.6,2.6
			c3.6,0,7.2-0.1,10.9-0.2c0.4,0,0.8-0.2,1.5-0.4c-0.6-0.3-0.8-0.5-1.1-0.5c-1.5-0.2-2.9-0.4-4.4-0.4c-0.6,0-1.3,0.3-1.8,0.5
			c-0.7,0.3-1.2,0.2-1.4-0.5c-1.2-2.8-1.2-2.8-4.2-4.6c0.6-0.1,1.1-0.3,1.5-0.3c1.8,0,3.5,0,5.3,0c2,0,3.8-0.3,5.5-1.4
			c0.2-0.1,0.4-0.2,0.8-0.3c0,0.4-0.1,0.7,0,1c0.2,1,0.2,2,0.6,2.9c0.5,1.1,1.8,1.1,2.6,0.2c0.5-0.7,0.7-1.6,1-2.4
			c0.2-0.5,0.2-1,0.3-1.5c4.5,2,9.1,1.8,13.7,1.3c1.8-0.2,3.6-0.7,4.2-2.7c0.1,0,0.2,0,0.4,0.1c0.1,0.6,0.4,1.2,0.3,1.7
			c-0.4,1.2-1.1,2.2-1.5,3.4C60.5,21,60,21.9,60,22.7c0,1-0.4,1.1-1.1,0.8c-5.1-1.6-10.1-0.5-15.1,0.1c-0.2,0-0.4,0.2-0.8,0.3
			c1.8,1,3.5,0.8,5.2,0.6C49.6,24.3,51.3,23.8,52.8,23.5z"/>
		<path d="M195.4,125.1c2.2,0.5,4.5,1.2,6.8,0.2c1.1-0.4,1.6-0.3,1.7,0.8c0.3,1.9,1.3,3.2,3.4,3.7c0.2,0,0.3,0.2,0.8,0.5
			c-0.7,0.1-1.1,0.3-1.6,0.3c-1.6,0-3.2,0-4.8-0.1c-2.1,0-4.1,0.2-5.9,1.4c-0.2,0.1-0.5,0.2-1,0.3c0.1-0.6,0.3-1.2,0.2-1.6
			c-0.1-0.8-0.3-1.6-0.7-2.2c-0.5-1-1.7-1.1-2.4-0.2c-0.5,0.7-0.8,1.5-1.1,2.3c-0.2,0.5-0.2,1.1-0.3,1.6c-4.5-2-9.1-1.9-13.7-1.3
			c-1.8,0.2-3.5,0.7-4.1,2.6c-0.1,0-0.2,0-0.3,0c-0.1-0.4-0.5-0.9-0.4-1.2c0.4-1.2,0.8-2.5,1.4-3.6c0.6-0.9,1.2-1.8,0.9-2.9
			c-0.2-0.8,0.4-0.9,1-0.7c4.8,1.7,9.7,0.5,14.5,0.1c0.4,0,0.8-0.2,1.3-0.5c-1.6-0.8-3.3-0.8-5-0.6c-1.7,0.2-3.4,0.6-5.2,1
			c0.9-2.8-0.6-5.1-2.1-7.5c5,2.2,10.2,2.3,15.5,2.2c5.2-0.1,10.4,0.6,15.7-0.9c0.9,2.2,1.8,4.7,2.7,7.1c0.1,0.4,0,0.8,0,1.2
			c-0.1,0-0.2,0-0.3,0.1c-0.2-0.1-0.4-0.3-0.5-0.4c-1-1.6-2.5-2.5-4.5-2.5c-3.6,0-7.2,0.1-10.9,0.2c-0.4,0-0.8,0.2-1.1,0.3
			C195.4,124.8,195.4,125,195.4,125.1z"/>
		<path d="M223.6,131.6c-0.8-0.1-1.7,0-2.3-0.3c-1.5-0.6-1.8-2.2-0.9-3.7c0.9-1.3,2.7-1.6,4-0.8c0.4,0.2,0.7,0.5,0.9,0.9
			c1.1,1.9,0.5,3.7-0.7,5.4c-1.1,1.5-2.7,2-4.6,1.8c-2.2-0.3-3.6-1.9-3.6-4.2c0-4.6,0.2-9.2,0.2-13.8c0-8.6,0-17.1,0-25.7
			c0-0.5-0.2-1-0.5-1.4c-0.6-0.9-0.7-1.8,0.1-2.3c0.8-0.6,1.6-0.6,2.4,0c0.9,0.7,0.6,1.5,0.1,2.3c-0.3,0.5-0.6,1.1-0.6,1.7
			c0,11.3,0,22.6,0,33.9c0,1.8,0,3.7,0,5.5c0,1.5,0.9,2.4,2.2,2.5C221.9,133.7,223.1,133,223.6,131.6z"/>
		<path d="M10.5,16.8c0.6,0,1.3-0.1,1.9,0c1,0.2,1.7,0.9,1.8,1.8c0.2,1.2-0.3,2.2-1.4,2.8c-0.9,0.6-2,0.6-2.9,0.1
			c-0.6-0.3-1.1-0.9-1.3-1.4C7.5,18,9,14.7,11.4,13.8c3.3-1.3,6.3,0.6,6.3,3.9c-0.1,8.6-0.2,17.2-0.2,25.8c0,4.6,0,9.2,0,13.8
			c0,0.4,0.3,0.9,0.5,1.3c0.6,0.9,0.6,1.8-0.1,2.3c-0.7,0.6-1.5,0.5-2.3,0.1c-0.8-0.5-0.8-1.4-0.2-2.3c0.3-0.4,0.6-0.9,0.6-1.4
			c0-13.1,0-26.1,0-39.2c0-0.3,0-0.5,0-0.8c-0.1-1.4-1-2.3-2.3-2.4C12.2,14.7,10.9,15.5,10.5,16.8z"/>
		<path d="M223.6,16.8c-0.5-1.3-1.8-2.1-3.3-1.9c-1.3,0.1-2.2,1-2.2,2.5c-0.1,2.3,0,4.6,0,6.8c0,5.5,0,11.1,0,16.6
			c0,0.5,0.3,1.1,0.6,1.6c0.4,0.6,0.5,1.2-0.1,1.7c-0.7,0.7-1.6,0.6-2.2,0c-0.3-0.3-0.3-1-0.3-1.6c0.1-0.7,0.5-1.3,0.5-2
			c0-7.5-0.1-15-0.2-22.4c0-3,1.3-4.6,4.1-4.8c2.6-0.2,5,1.8,5.3,4.4c0.2,1.2,0.1,2.3-0.8,3.3c-0.8,0.8-1.9,1.1-3,0.8
			c-1.1-0.3-1.9-1.4-2-2.6c-0.1-1,0.4-1.8,1.4-2.2C222,16.8,222.8,16.9,223.6,16.8z"/>
		<path d="M10.5,131.6c0.5,1.4,1.7,2.1,3.3,1.9c1.3-0.1,2.2-1,2.2-2.5c0-8,0-15.9,0-23.9c0-0.4-0.3-0.8-0.5-1.1
			c-0.5-0.6-0.6-1.4,0.1-1.8c0.5-0.3,1.5-0.4,2.1-0.2c0.8,0.3,0.7,1.1,0.3,1.7c-0.2,0.4-0.5,0.9-0.5,1.3c0,7.6,0.1,15.3,0.2,22.9
			c0,2.9-1.3,4.7-3.8,4.9c-2.7,0.2-5.2-1.6-5.5-4.3c-0.1-1,0.1-2.2,0.6-3.1c0.5-1,1.9-1.4,3.1-1.1c1.1,0.3,2.1,1.3,2.2,2.6
			c0.1,1.1-0.4,1.9-1.5,2.2C12.1,131.7,11.2,131.6,10.5,131.6z"/>
		<path d="M21.2,128.9c0-2.8,2.7-5.1,5.9-5.1c3.1,0,5.6,2.3,5.6,5.1c0,2.8-2.7,5.2-5.8,5.1C23.6,134.1,21.2,131.8,21.2,128.9z
			 M26.8,132.4c2,0,3.6-1.4,3.7-3.2c0.1-2-1.6-3.6-3.8-3.7c-2,0-3.7,1.4-3.7,3.3C22.9,130.7,24.7,132.3,26.8,132.4z"/>
		<path d="M212.9,19.4c0,2.8-2.6,5.2-5.7,5.2c-3.2,0-5.6-2.2-5.6-5.1c0-2.8,2.6-5.1,5.7-5.1C210.4,14.3,212.9,16.6,212.9,19.4z
			 M203.7,19.4c0,2,1.7,3.5,3.8,3.5c2,0,3.7-1.5,3.7-3.2c0-2.1-1.7-3.7-3.8-3.7C205.3,16,203.7,17.5,203.7,19.4z"/>
		<path d="M180,121.7c0,1.5-1.2,2.7-2.8,2.7s-2.9-1.1-3-2.6c0-1.5,1.3-2.7,2.9-2.7C178.8,119.2,180,120.3,180,121.7z"/>
		<path d="M54,26.7c0-1.5,1.2-2.7,2.8-2.7s3,1.1,3,2.6c0,1.4-1.3,2.7-2.8,2.7C55.4,29.3,54,28.1,54,26.7z"/>
		<path d="M116.9,6.7c25.5,0,51,0,76.5,0c3.1,0,6.2,0.1,9.3,0.1c0.4,0,0.8,0,1.1,0.2c0.2,0.1,0.4,0.4,0.4,0.6
			c-0.1,0.2-0.3,0.5-0.6,0.6c-0.5,0.1-1,0.1-1.5,0.1c-17.7,0-35.4,0-53.1,0c-6.6,0-13.1,0-19.7,0c-30.8,0-61.7,0.1-92.5,0.1
			c-2.2,0-4.4,0-6.6-0.2c-0.5,0-0.9-0.5-1.3-0.7c0.4-0.3,0.9-0.7,1.3-0.8c2.5-0.1,5-0.1,7.5-0.1C64.1,6.6,90.4,6.6,116.9,6.7
			C116.9,6.6,116.9,6.7,116.9,6.7z"/>
		<path d="M117,140.1c17.9,0,35.7,0,53.6,0c10.5,0,21,0,31.6,0c0.7,0,2-0.4,2,0.7c0,1-1.2,0.7-1.9,0.7c-9.5,0-19,0-28.5,0
			c-14.9,0-29.9,0-44.8,0c-31.5,0.1-63,0.1-94.5,0.2c-1.4,0-2.9,0-4.3-0.2c-0.4,0-0.8-0.5-1.2-0.7c0.4-0.3,0.8-0.7,1.2-0.7
			c2-0.1,4-0.2,5.9-0.2C63.1,140.1,90,140.1,117,140.1L117,140.1z"/>
		<path d="M222.5,141c-0.5-0.5-1-0.8-1-1c0.1-0.3,0.5-0.6,0.8-0.9c0.3,0.3,0.8,0.5,0.9,0.8C223.3,140.1,222.9,140.4,222.5,141z"/>
		<path d="M13,139.9c-0.7,0.4-1,0.7-1.4,0.7c-0.3,0-0.6-0.5-0.8-0.7c0.3-0.3,0.6-0.7,1-0.8C12,139,12.4,139.5,13,139.9z"/>
		<path d="M223.7,8.5c-0.7,0.5-1,0.9-1.4,0.9c-0.3,0-0.8-0.4-0.8-0.7c0-0.2,0.4-0.7,0.8-0.7C222.6,7.8,223,8.2,223.7,8.5z"/>
		<path d="M11.7,9.8c-0.4-0.6-0.8-0.9-0.8-1.3c0-0.2,0.6-0.6,0.9-0.6c0.3,0,0.8,0.5,0.8,0.7C12.5,8.9,12.1,9.2,11.7,9.8z"/>
		<path d="M155.5,97.2c-0.7,0.4-1.3,0.8-2,1c-3.5,1.3-7,1.8-10.7,0.9c-4.7-1.1-8.8-3.2-12.3-6.3c-1.6-1.5-3.3-2.9-5.1-4.3
			c-1.9-1.5-3.8-2.8-6.2-3.7c-0.6-0.2-1.1-0.6-1.7-1c0-0.1,0.1-0.3,0.1-0.4c0.5,0,1.1-0.1,1.6-0.1c0.4,0,0.9,0.1,1.3,0.2
			c2.3,0.7,4.4,0.5,6.2-1c0.2-0.2,0.6-0.3,1-0.4c0.6,1-0.1,1.5-0.7,2.1c0.1,0.1,0.2,0.2,0.2,0.3c0.6-0.3,1.3-0.4,1.8-0.8
			c0.9-0.9,1.9-1.8,2.6-2.8c2.2-3.3,4.7-6.4,7.9-9c0.7-0.5,1.4-1,2-1.5c0.1,0.1,0.2,0.2,0.3,0.2c-0.2,0.2-0.5,0.5-0.7,0.8
			c-2.3,2.6-4.6,5.2-6.9,7.8c-2.3,2.6-2.2,5.5-1.1,8.4c0.7,1.8,1.8,3.4,2.9,5.1c-0.6-2.5-2.4-4.7-2-7.6c0.2,0.4,0.4,0.7,0.5,1.1
			c0.9,2.9,2.2,5.5,4.6,7.7c2.1,1.8,4.6,3,7.2,4c0.6,0.2,1.2,0.2,1.9,0.2c0-0.1,0.1-0.2,0.1-0.3c-0.5-0.2-0.9-0.3-1.4-0.5
			c-0.7-0.3-1.4-0.5-2-0.8c-0.3-0.1-0.3-0.6-0.5-0.9c0.3,0,0.7-0.2,1-0.1c1.1,0.4,2.2,1,3.3,1.2c1.5,0.3,3.1,0.2,4.6,0.3
			c0.6,0,1.2-0.1,1.8-0.1C155.4,97,155.4,97.1,155.5,97.2z"/>
		<path d="M110,83.3c1.2,0.2,2.4,0.2,3.6,0.5c3.9,1.1,7.3,3,10.3,5.6c2.1,1.8,4.1,3.6,6.2,5.4c1.1,0.9,2.3,1.7,3.3,2.7
			c-0.5-0.1-1-0.1-1.4-0.4c-2.3-1.5-4.7-3-6.9-4.7c-3.1-2.5-6.4-4.8-10.2-6.5c-1.3-0.6-2.7-1-4.1-1.5c-0.4-0.1-0.7-0.3-1-0.5
			C109.8,83.7,109.9,83.5,110,83.3z"/>
		<path d="M141,93.4c-0.3-0.5-0.9-0.9-1-1.5c-0.3-1.4-0.3-2.8-0.5-4.2c0-0.5,0-1,0-1.5c-0.1,0-0.2-0.1-0.4-0.1
			c-0.5,0.9-0.9,1.8-1.4,2.7c-0.8-1.1-0.6-2.3,0.4-3c0.2-0.1,0.2-0.4,0.3-0.6s0.1-0.5,0.2-0.5c1.6-0.6,1.5-2.1,2.3-3.2
			c0.1-0.1,0.3-0.1,0.5-0.2c0,4,0,8,0,11.9C141.4,93.3,141.2,93.3,141,93.4z"/>
		<path d="M147.7,93.9c0.3,0.1,0.7,0.1,1,0.3c0.4,0.2,0.8,0.5,1.2,0.5c0.7,0.1,1.4-0.1,2.1-0.1c-0.3-0.5-0.7-0.9-1.1-1.4
			c-0.5-0.5-1.1-1-1.6-1.5c-0.2-0.2-0.2-0.6,0-0.8c0.1-0.2,0.7-0.2,0.9-0.1c1.5,1.2,3.2,2.2,4.5,3.6c1,1.1,0.2,2-1.3,2.1
			c-1.8,0.1-3.6,0-5-1.3c-0.3-0.3-0.6-0.6-0.8-0.9C147.5,94.2,147.6,94.1,147.7,93.9z"/>
		<path d="M134,82.7c0.3-0.7,0.5-1.3,0.8-1.9c0.1-0.2,0.5-0.2,0.8-0.3c0.1,0.3,0.3,0.6,0.2,0.8c-0.3,0.6-0.8,1.2-1.1,1.8
			C134.4,82.9,134.2,82.8,134,82.7z"/>
		<path d="M85.6,50.7c1.1,0.4,2.2,0.8,3.3,1.2c0.3,0.1,0.4,0.5,0.6,0.8c-0.4,0-0.8,0.2-1.1,0.1c-2.8-1.5-5.8-2-9.1-1.4
			c-0.2,0-0.4,0-0.8-0.3c0.5-0.3,0.9-0.7,1.4-0.9c4.1-1.8,8.3-2.1,12.7-0.8c4.4,1.3,8.2,3.5,11.4,6.4c1.6,1.5,3.2,2.9,5,4.2
			c1.8,1.2,3.8,2.2,5.7,3.3c0.6,0.3,1.1,0.6,1.7,1c0,0.1-0.1,0.3-0.1,0.4c-0.5,0-1.1,0.1-1.6,0.1c-0.6,0-1.1-0.1-1.7-0.3
			c-2.1-0.6-4-0.4-5.6,1c-0.3,0.2-0.9,0.2-1.4,0.3c0.1-0.5,0.3-0.9,0.4-1.4c0.1-0.1,0.3-0.2,0.4-0.3c0-0.1-0.1-0.2-0.1-0.3
			c-0.6,0.2-1.3,0.3-1.7,0.7c-0.9,0.8-1.9,1.7-2.6,2.7c-2.3,3.4-4.8,6.7-8.2,9.4c-0.6,0.5-1.3,0.9-1.9,1.4c-0.1-0.1-0.2-0.2-0.3-0.3
			c0.3-0.3,0.7-0.6,1-0.9c2.2-2.5,4.5-5,6.7-7.6c2.3-2.7,2.1-5.7,0.9-8.6c-0.6-1.6-1.6-3-2.6-4.4c0.5,2.4,2.3,4.5,1.7,7.1
			c-0.2-0.5-0.5-1.1-0.7-1.6c-0.8-2.8-2.2-5.2-4.5-7.2c-2.1-1.8-4.6-3.1-7.4-3.9c-0.5-0.2-1.1-0.1-1.6-0.2
			C85.7,50.5,85.6,50.6,85.6,50.7z"/>
		<path d="M100.8,50.8c1.1,0.5,2.2,0.9,3.2,1.5c1.7,1.1,3.4,2.4,5,3.7c4.3,3.5,8.8,6.5,14.4,8c0.3,0.1,0.6,0.3,1,0.5
			c0,0.2-0.1,0.3-0.1,0.5c-1-0.1-2,0-2.9-0.2c-4-1-7.5-2.8-10.6-5.3c-2.1-1.7-4-3.5-6-5.2c-1.3-1.1-2.7-2.1-4.1-3.2
			C100.7,51.1,100.8,51,100.8,50.8z"/>
		<path d="M92.6,67.1c0-4,0-8,0-12c0.2,0,0.4,0,0.5,0c2,2,1.2,4.7,1.4,7.1c0.1,0,0.2,0.1,0.3,0.1c0.5-0.9,0.9-1.8,1.4-2.7
			c0.8,1.2,0.6,2.2-0.4,3.1c-0.2,0.1-0.2,0.4-0.3,0.6c-0.1,0.2-0.1,0.5-0.2,0.5c-1.5,0.6-1.5,2-2.3,3.1C93,67,92.8,67,92.6,67.1z"/>
		<path d="M86.4,54.5c-0.4-0.1-0.9-0.2-1.3-0.4c-0.3-0.1-0.6-0.4-0.9-0.4c-0.7,0-1.3,0-2,0.1c0.3,0.5,0.6,1,0.9,1.4
			c0.5,0.5,1.2,0.9,1.7,1.5c0.2,0.2,0.1,0.6,0,0.9c-0.1,0.1-0.7,0.2-0.9,0.1c-1.7-1.1-3.6-2-4.6-3.8c-0.5-0.9-0.1-1.6,0.9-1.8
			c2.3-0.4,4.4,0,6,1.7c0.1,0.1,0.2,0.3,0.2,0.5C86.5,54.3,86.4,54.4,86.4,54.5z"/>
		<path d="M99.8,65.6c0.3,0.9,0,1.6-0.6,2.2c-0.1,0.1-0.9-0.1-0.9-0.2C98,67,99,65.8,99.8,65.6z"/>
		<path d="M177.1,92.5c-1.2,0-2.2-0.8-2.1-1.5c0-0.2,0.5-0.6,0.6-0.6c0.8,0.4,1.6,0.9,2.3,1.4C177.6,92,177.3,92.3,177.1,92.5z"/>
		<path d="M159.4,56.6c0.4,0.4,0.7,0.8,0.9,1.1c-0.3,0.2-0.6,0.6-0.8,0.5c-0.4-0.2-0.8-0.5-1.2-0.8C158.7,57.1,159,56.9,159.4,56.6z
			"/>
		<path d="M59.1,57.7c-0.2,0.1-0.5,0.4-0.8,0.4c-0.7-0.2-1.3-0.5-1.9-0.8c-0.6-0.4-0.4-0.9,0.3-1.2C57.7,55.7,59.1,56.6,59.1,57.7z"
			/>
		<path d="M74.8,91.8c-0.5-0.4-0.8-0.7-1.1-1c0.2-0.2,0.6-0.6,0.7-0.5c0.4,0.2,0.8,0.5,1.2,0.8C75.4,91.3,75.2,91.5,74.8,91.8z"/>
		<path d="M193.8,55.7c-1.4,0.7-2.7,1.4-4.2,2.1c0.1-0.3,0.2-0.6,0.3-1c-1.2,0.4-2.4,0.8-3.7,1.2c-0.1-0.1-0.1-0.2-0.2-0.4
			c0.3-0.1,0.7-0.3,1-0.4c1.4-0.7,2.8-1.4,4.2-2.1C192.2,54.5,192.9,54.6,193.8,55.7z"/>
		<path d="M188.7,62.4c-0.7-1.1-1.1-1.9-1.7-2.9c0.2-0.2,0.6-0.6,1.1-0.8c0.2-0.1,1,0.3,1,0.4C189,60.1,188.9,61.1,188.7,62.4z"/>
		<path d="M47.9,90.9c-0.4,0.1-0.8,0.3-1.1,0.5c-1.3,0.7-2.7,1.3-3.9,2c-1,0.6-1.7,0.5-2.5-0.6c1.4-0.7,2.7-1.4,4.2-2.1
			c-0.1,0.3-0.2,0.6-0.3,1c1.2-0.4,2.4-0.7,3.6-1.1C47.8,90.7,47.9,90.8,47.9,90.9z"/>
		<path d="M45.4,86.1c0.6,1.1,1.1,1.8,1.7,2.8c-0.1,0.1-0.3,0.5-0.6,0.7s-0.8,0.3-1.1,0.2c-0.3-0.1-0.5-0.6-0.4-0.9
			C45,88,45.2,87.1,45.4,86.1z"/>
		<path d="M90.6,104c-0.4,0.8-0.7,1.4-1,2c-0.1,0-0.3,0-0.4,0c-0.1-0.4-0.3-0.8-0.3-1.2c0-0.6,0.2-1.3,0.3-1.9
			c0.2-0.6,0.1-1.5,1.3-0.8c0.2,0.1,0.6-0.3,0.9-0.3s0.9,0.4,0.9,0.5c-0.8,1.6-0.1,3,0.4,4.5c0,0.1,0,0.2-0.1,0.5
			C91.5,106.4,90.9,105.4,90.6,104z"/>
		<path d="M144,46.4c-0.5,0.1-1,0.1-1.4,0.2c-0.6,0.2-1.2,0.2-1-0.5c0.6-1.6,0.1-2.9-0.4-4.4c0-0.1,0-0.3,0-0.6
			c1.3,0.8,1.8,1.7,2.2,3c0.2-0.4,0.3-0.9,0.5-1.3c0.1-0.2,0.3-0.4,0.5-0.4s0.5,0.2,0.5,0.4c0.1,1.3-0.2,2.5-0.7,3.7
			C144.3,46.6,144.2,46.5,144,46.4z"/>
		<path d="M157,68.4c-1.7-1.2-3.4-2.2-4.9-3.3c-0.4-0.3-0.6-0.7-0.8-1.1c0.5,0,1.2-0.3,1.6-0.1c1.5,0.9,2.9,1.9,4.2,2.9
			c0.9,0.7,1.7,1.4,2.5,2.1c0.2,0.2,0.4,0.5,0.5,0.8c-0.3,0.1-0.6,0.3-1,0.3c-0.7,0-1.3-0.2-1.9-0.3C156.4,69.4,156.1,69.1,157,68.4
			z"/>
		<path d="M77.9,79c-0.3,0.5-0.5,0.7-0.7,1c1.4,1,2.8,1.9,4.1,2.9c0.4,0.3,0.8,0.5,1.2,0.8c0.2,0.2,0.2,0.5,0.3,0.8
			c-0.3,0.1-0.7,0.4-1,0.3c-0.9-0.4-1.9-0.7-2.7-1.3c-1.7-1.3-3.3-2.7-4.9-4C74,79.4,73.9,79,74,78.9c0.1-0.2,0.4-0.4,0.7-0.4
			C75.7,78.6,76.7,78.8,77.9,79z"/>
		<path d="M20.9,91.3c-1.6,0-2.7-1-2.6-2.4c0.1-1.2,1.3-2.2,2.6-2.3c1.4,0,2.7,1.1,2.7,2.4S22.4,91.3,20.9,91.3z M20.9,87.3
			c-0.9,0-1.9,0.8-1.9,1.6c0,0.9,0.9,1.8,1.9,1.8s1.8-0.8,1.8-1.8C22.8,88.1,21.9,87.3,20.9,87.3z"/>
		<path d="M22.3,95.1c1.2,0,2.2,1,2.1,2.1c-0.1,1-1.2,2-2.3,1.9c-1.1,0-2.1-1-2-2C20.1,96,21.1,95.1,22.3,95.1z M20.5,96.9
			c0.2,1,1,1.7,1.9,1.6c0.8-0.1,1.3-0.5,1.3-1.3s-0.8-1.5-1.6-1.3C21.5,96,21,96.5,20.5,96.9z"/>
		<path d="M213.1,57.1c1.5,0,2.7,0.9,2.7,2.2c0.1,1.3-1.3,2.5-2.7,2.5s-2.6-1.2-2.6-2.4C210.5,58.2,211.7,57.1,213.1,57.1z
			 M213.2,61.1c1,0,1.8-0.7,1.8-1.6c0-1-0.8-1.8-1.8-1.8s-1.9,0.8-1.9,1.7C211.3,60.3,212.1,61.1,213.2,61.1z"/>
		<path d="M212,49.3c1.2,0,2,0.9,2,2s-1.1,2-2.2,2c-1.2,0-2.2-1-2.1-2.1C209.8,50.1,210.9,49.2,212,49.3z M212.3,52.7
			c0.3-0.4,0.9-0.8,1-1.3c0.2-0.7-0.7-1.4-1.5-1.4c-0.9,0-1.4,0.5-1.4,1.4C210.5,52.2,211.1,52.5,212.3,52.7z"/>
		<path d="M187.2,69.2c-1.1-0.3-2-1.4-2.1-2.5c-0.1-0.7,0.3-1.2,1.1-1.4c0.2,0.6,0.5,1.2,0.6,1.8C187,67.8,187,68.5,187.2,69.2z"/>
		<path d="M47.3,79.1c1,0.7,1.6,1.6,1.6,2.8c0,0.4-0.5,0.8-1,1.5c-0.4-1.6-0.8-2.9-1.1-4.1C47,79.2,47.1,79.2,47.3,79.1z"/>
		<path d="M46.6,119.4c-1.1-0.6-2-1.5-3-1.7s-2.2,0.2-3.4,0.3c0-0.3-0.1-0.6-0.2-1.3c-0.8,0.9-1.5,1.6-2.2,2.4
			c-0.7-1-0.2-2.5,1.1-3.6c1.4-1.2,4.1-1.4,5.9-0.3C46.4,116.3,47.2,117.9,46.6,119.4z"/>
		<path d="M38.7,121.7c-0.3-0.4-0.6-0.7-0.6-0.9c0-0.1,0.5-0.5,0.6-0.4c0.3,0.1,0.6,0.4,0.6,0.6C39.5,121.1,39.1,121.3,38.7,121.7z"
			/>
		<path d="M196.4,29.2c0.6,1.3-0.2,3.1-1.5,4c-1.5,1-4.2,1-5.7-0.1c-1.8-1.3-2.4-2.7-1.7-4.1c1,0.6,1.8,1.4,2.9,1.7
			c1.1,0.2,2.3-0.1,3.6-0.2c0,0.2,0.1,0.5,0.2,1.2C195,30.8,195.7,30.1,196.4,29.2z"/>
		<path d="M195.4,28.4c-0.4-0.4-0.7-0.6-0.8-0.8c0-0.1,0.4-0.6,0.5-0.5c0.3,0.1,0.6,0.3,0.8,0.6C196,27.7,195.7,28,195.4,28.4z"/>
		<path d="M174.6,36.8c0.8-0.3,1.2-0.4,2-0.7c2.1,0.6,3.9,2.9,3.2,4.6c-0.2-0.5-0.4-0.8-0.7-1.4c0,0.7-0.1,1.3-0.1,1.9
			c-0.1,0-0.2,0.1-0.3,0.1C178.5,38.9,177.2,37.4,174.6,36.8z"/>
		<path d="M54.3,107.6c0.3,0.7,0.5,1.1,0.7,1.5c0.1,0,0.1,0,0.2,0c0-0.6,0-1.3,0-1.9c0.1,0,0.2-0.1,0.3-0.1c0.1,2.4,1.3,3.9,3.7,4.7
			c-0.9,0.2-1.6,1.1-2.6,0.3c-1.3-1-2.4-2-2.6-3.5C53.9,108.2,54.1,108.1,54.3,107.6z"/>
		<path d="M10.6,102.3c-0.7-1.1-0.5-1.5,0.9-2c-0.2,0.4-0.3,0.7-0.5,1C10.9,101.5,10.8,101.8,10.6,102.3z"/>
		<path d="M21,77.8c0-1.3,0.8-1.9,1.6-1.7C22.1,76.6,21.5,77.2,21,77.8z"/>
		<path d="M211,72.2c0.6-0.6,1.2-1.2,1.8-1.8c0.1,0,0.2,0.1,0.3,0.1c-0.2,0.5-0.3,1-0.6,1.4C212.2,72.3,211.6,72.7,211,72.2z"/>
		<path d="M24.7,129c0-1.1,0.8-1.9,2-1.9s2.1,0.8,2.2,1.7c0,1-0.9,1.9-2,1.9C25.7,130.8,24.7,130,24.7,129z"/>
		<path d="M207.4,21.2c-1.3,0-2.2-0.7-2.2-1.8c0-1,0.8-1.8,1.9-1.8c1.2,0,2.2,0.8,2.2,1.8C209.4,20.4,208.5,21.2,207.4,21.2z"/>
	</g>
</g>
</svg>
