<?xml version="1.0" encoding="utf-8"?>
<!-- Generator: Adobe Illustrator 26.0.1, SVG Export Plug-In . SVG Version: 6.00 Build 0)  -->
<svg version="1.1" id="Слой_1" xmlns="http://www.w3.org/2000/svg" xmlns:xlink="http://www.w3.org/1999/xlink" x="0px" y="0px"
	 viewBox="0 0 238.1 150.2" style="enable-background:new 0 0 238.1 150.2;" xml:space="preserve">
<g>
	<path d="M0.6,51.4000015c0.5,0,0.9-0.0999985,1.4-0.0999985c41-0.0999985,82.0999985-0.0999985,123.0999985-0.0999985
		c37.0000076,0,74.0000076,0.0999985,111.0000076,0.0999985c0.5,0,0.8999939,0,1.3999939,0c0,1.7999992,0,3.5,0,5.2999992
		c-79,0-158,0-236.8999939,0C0.6,54.7999992,0.6,53.0999985,0.6,51.4000015z"/>
	<path d="M0.6,105.1999969c78.9000015,0,157.8999939,0,236.8999939,0c0,1.6999969,0,3.4000015,0,5.1999969
		c-79,0-157.8999939,0-236.8999939,0C0.6,108.5999985,0.6,106.9000015,0.6,105.1999969z"/>
	<path d="M49.5,9.999999c-10.7999992-1-17.4000015,8.1000013-17.7000008,15.000001c-0.3999996,9.0999985,7,17.5999985,17.6000023,17
		c-3.2000008,2.0999985-6.5999985,3.2000008-10.5,3.2999992c-3.9000015,0-7.6000004-0.9000015-10.6000004-2.9000015
		c-4.5-2.9000015-7.5-7.2000008-8.5-12.5c-1-5.7000008-0.1000004-11,3.6000004-15.7000008
		C30.2999992,5.3999991,42.2999992,4.6999989,49.5,9.999999z"/>
	<path d="M87.1999969,6.7999992c0.5,1.3000002,0.6999969,2.4000006,1.3000031,2.9000006
		c0.5999985,0.5,1.8000031,0.1999998,2.9000015,0.3000002C91.0999985,10.3999996,91,10.6999998,90.7000046,10.8000002
		c-2,1.1000004-1.6999969,0.6000004-1.1999969,2.8000002c0.0999985,0.3999996,0.1999969,0.6999998,0.4000015,1.5
		C88.1000061,13.4000006,86.5000076,13.000001,84.7000122,15c1.0999985-2.0999994,0.9000015-3.8000002-1.5999985-4.6999998
		C83.2000122,10.1999998,83.3000107,10.1000004,83.3000107,10c0.5999985,0,1.1999969-0.1000004,1.8000031,0
		c1.0999985,0.1000004,1.4000015-0.3999996,1.5-1.3000002C86.9000015,8.0999994,87,7.599999,87.1999969,6.7999992z"/>
	<path d="M104.5999985,14.999999c-1.8000031-1.6999998-3.4000015-2-5.1999969-0.1000004
		c1.3000031-2.1999998,0.8000031-3.8000002-1.5-4.6999998C98,9.999999,98.0999985,9.8999987,98.0999985,9.7999992
		c0.5999985,0,1.1999969-0.1000004,1.8000031,0c1,0.1000004,1.3000031-0.3999996,1.4000015-1.3000002
		c0.0999985-0.5,0.1999969-1,0.5-1.5999999c0.5999985,2.0999999,1.4000015,3.7000003,4.0999985,2.5999999
		c0,0.1000004,0,0.3000002,0,0.3999996c-0.1999969,0.3000002-0.4000015,0.6000004-0.5999985,0.8000002
		c-1.9000015,1.1000004-1.6999969,0.6000004-1.1999969,2.6999998
		C104.3000031,13.8999987,104.4000015,14.2999992,104.5999985,14.999999z"/>
	<path d="M113.1999969,9.7999992c0.5999985,0,1.1999969-0.1000004,1.8000031,0c1,0.1000004,1.3000031-0.3999996,1.4000015-1.3000002
		c0.0999985-0.5,0.1999969-1,0.5-1.5999999c0.4000015,2.2999997,1.5,3.5999999,4.0999985,2.7000003
		c0,0.1000004,0,0.1999998,0,0.3000002c-0.1999969,0.3000002-0.4000015,0.6000004-0.5999985,0.8000002
		c-2,1.1999998-1.5999985,0.6999998-1.1999969,2.6999998c0.0999985,0.3999996,0.1999969,0.8000002,0.3000031,1.3000002
		c-2.5-1.5-2.5-1.5-5.3000031,0.1000004c1.5-2.1999998,1-3.8000002-1.3000031-4.8000002
		C113.0999985,9.999999,113.0999985,9.8999987,113.1999969,9.7999992z"/>
	<path d="M73.3000031,24.7999992c1,0,1.9000015,0,3,0c-0.3000031,0.3999996-0.5,0.7999992-0.6999969,0.8999996
		c-1.9000015,1.1000004-1.6999969,0.6000004-1.1999969,2.7999992c0.0999985,0.3999996,0.1999969,0.7000008,0.3000031,1.2000008
		c-0.9000015-0.5-1.6999969-1.2000008-2.5-1.2000008s-1.5999985,0.7000008-2.6999969,1.2999992
		c1.3000031-2.1000004,1-3.7000008-1.4000015-4.6000004c0.0999985-0.1000004,0.1999969-0.2000008,0.1999969-0.2999992
		c0.5999985,0,1.1999969-0.1000004,1.8000031,0c1.0999985,0.1000004,1.4000015-0.3999996,1.5-1.2999992
		c0.0999985-0.5,0.1999969-0.8999996,0.5999985-1.3999996C72.5999985,22.8999996,72.9000015,23.7999992,73.3000031,24.7999992z"/>
	<path d="M83.0999985,24.7999992c0.5999985,0,1.1999969-0.1000004,1.8000031,0c1,0.1000004,1.3000031-0.3999996,1.4000015-1.2999992
		c0.0999985-0.5,0.1999969-1,0.5-1.6000004C87.3000031,24,88.2000046,25.6000004,91,24.5
		c0,0.1000004,0,0.2999992-0.0999985,0.3999996C90.7000046,25.1999989,90.5,25.5,90.3000031,25.6999989
		c-1.9000015,1.1000004-1.6999969,0.6000004-1.1999969,2.7000008c0.0999985,0.3999996,0.1999969,0.7999992,0.4000015,1.5
		c-1.8000031-1.7000008-3.4000015-2-5.1999969-0.1000004c1.3000031-2.2000008,0.8000031-3.7999992-1.5-4.7000008
		C82.9000015,24.8999996,83,24.8999996,83.0999985,24.7999992z"/>
	<path d="M99.4000015,29.7000008c1.3000031-2.2000008,0.8000031-3.7999992-1.5-4.7000008
		C98,24.8999996,98.0999985,24.7999992,98.0999985,24.7000008c0.5,0,1.0999985-0.1000004,1.5999985,0
		c1.1999969,0.2000008,1.6999969-0.3999996,1.6999969-1.5c0-0.3999996,0.1999969-0.8999996,0.5-1.6000004
		c0.5,1.2000008,0.9000015,2.1000004,1.1999969,3.1000004c0.9000015,0,1.8000031,0,3,0
		c-0.3000031,0.3999996-0.5,0.7999992-0.6999969,0.8999996c-2,1.1000004-1.6999969,0.6000004-1.1999969,2.7000008
		c0.0999985,0.3999996,0.1999969,0.7999992,0.4000015,1.6000004
		C102.8000031,28.2000008,101.1999969,27.8999996,99.4000015,29.7000008z"/>
	<path d="M59.7000008,45.2999992c-2.5-1.7000008-2.5-1.7000008-5-0.0999985c0-0.0999985-0.0999985-0.0999985-0.0999985-0.2000008
		c0.9000015-1.9000015,0.7999992-3.5-1.5999985-4.4000015c0.0999985-0.0999985,0.2000008-0.2000008,0.2000008-0.2999992
		c0.5999985,0,1.0999985-0.0999985,1.7000008,0c1.0999985,0.0999985,1.5999985-0.4000015,1.5999985-1.4000015
		c0-0.5,0.2000008-0.9000015,0.5999985-1.5c0.2999992,2.4000015,1.5,3.5,4.2999992,2.7000008
		c-0.4000015,0.5999985-0.5999985,1-0.7999992,1.0999985c-1.7999992,1-1.7999992,0.5-1.2000008,2.9000015
		C59.5,44.4000015,59.5999985,44.7999992,59.7000008,45.2999992z"/>
	<path d="M68.5,40.2999992c0.5999985,0,1.1999969-0.0999985,1.8000031,0c1,0.0999985,1.3000031-0.4000015,1.4000015-1.2999992
		c0.0999985-0.5,0.1999969-1,0.5-1.5999985c0.4000015,2.2999992,1.5,3.5999985,4.0999985,2.7000008
		c0,0.0999985,0,0.2000008,0,0.2999992C76.1000061,40.7000008,75.9000015,41,75.7000046,41.2000008
		c-2,1.2000008-1.5999985,0.7000008-1.1999969,2.7000008c0.0999985,0.4000015,0.1999969,0.7999992,0.4000015,1.5
		c-1.8000031-1.7000008-3.4000015-2-5.1999969-0.2000008C71.0000153,43,70.5000153,41.5,68.1000137,40.5
		C68.3000031,40.5,68.4000015,40.4000015,68.5,40.2999992z"/>
	<path d="M89.5,45.5c-1.8000031-1.7000008-3.4000015-2-5.1999969,0.0999985
		c0.3000031-1.2999992,0.9000015-2.2999992,0.5999985-3.0999985c-0.1999969-0.7999992-1.3000031-1.2999992-2.1999969-2.0999985
		c0.8000031,0,1.4000015-0.0999985,1.9000015,0c1.1999969,0.0999985,1.5-0.4000015,1.5999985-1.5
		c0-0.4000015,0.1999969-0.9000015,0.5-1.5999985c0.3000031,0.7000008,0.5,1.2000008,0.6999969,1.5999985
		c0.1999969,0.5,0.4000015,0.9000015,0.5,1.5c0.9000015,0,1.8000031,0,3,0
		C90.5999985,40.8000031,90.5,41.2000008,90.2000046,41.3000031c-1.9000015,1.0999985-1.6999969,0.5999985-1.1999969,2.7999992
		C89.3000031,44.4000015,89.3000031,44.7999992,89.5,45.5z"/>
	<path d="M104.5,45.0999985c-1.8000031-1.4000015-3.4000015-1.7000008-5.0999985,0.2000008
		c1.1999969-2.2000008,0.9000015-3.7999992-1.5-4.7000008C98,40.5,98.0999985,40.3999977,98.0999985,40.2999992
		c0.5999985,0,1.1999969-0.0999985,1.8000031,0c1.0999985,0.0999985,1.4000015-0.5,1.5-1.4000015
		c0.0999985-0.5,0.1999969-0.9000015,0.5999985-1.4000015c0.4000015,0.9000015,0.6999969,1.7999992,1.0999985,2.7000008
		c0.9000015,0,1.8000031,0,3,0c-0.3000031,0.4000015-0.4000015,0.7999992-0.6999969,0.9000015
		c-1.9000015,1.0999985-1.8000031,0.5-1.1999969,2.7999992C104.3000031,44.4000015,104.4000015,44.7999992,104.5,45.0999985z"/>
	<path d="M114.5,45.2999992c1.3000031-2.2000008,0.8000031-3.7999992-1.5-4.7000008
		c0.0999985-0.0999985,0.1999969-0.2000008,0.1999969-0.2999992c0.5,0,1.0999985-0.0999985,1.5999985,0
		c1.1999969,0.2000008,1.6999969-0.4000015,1.6999969-1.5c0-0.4000015,0.1999969-0.9000015,0.5-1.5999985
		c0.5,1.2000008,0.9000015,2.0999985,1.1999969,3.0999985c0.9000015,0,1.8000031,0,3,0
		c-0.3000031,0.4000015-0.5,0.7999992-0.6999969,0.9000015c-2,1.0999985-1.6999969,0.5999985-1.1999969,2.7000008
		c0.0999985,0.4000015,0.1999969,0.7999992,0.4000015,1.5999985C117.9000015,43.7999992,116.3000031,43.4000015,114.5,45.2999992z"
		/>
	<path d="M114.5,29.8999996c1.1999969-2.2000008,0.9000015-3.7999992-1.4000015-4.6999989
		c0.0999985-0.2000008,0.0999985-0.2999992,0.0999985-0.2999992c2.0999985,0.2999992,3.5999985-0.3999996,3.9000015-2.7999992
		c0.4000015,0.8999996,0.5,2,1.1999969,2.5c0.5999985,0.5,1.8000031,0.2000008,2.9000015,0.2000008
		c-0.4000015,0.5-0.6999969,0.7999992-1.0999985,1.2000008c-0.4000015,0.2999992-0.8000031,0.6000004-1.3000031,0.8999996
		c0.1999969,0.8999996,0.5,1.7000008,0.8000031,2.7000008c-0.1999969,0-0.3000031,0-0.3000031,0
		C117.6999969,28,116.1999969,28.2999992,114.5,29.8999996z"/>
</g>
</svg>
