<?xml version="1.0" encoding="utf-8"?>
<!-- Generator: Adobe Illustrator 26.0.1, SVG Export Plug-In . SVG Version: 6.00 Build 0)  -->
<svg version="1.1" id="Слой_1" xmlns:xodm="http://www.corel.com/coreldraw/odm/2003"
	 xmlns="http://www.w3.org/2000/svg" xmlns:xlink="http://www.w3.org/1999/xlink" x="0px" y="0px" viewBox="0 0 238.1 150.2"
	 style="enable-background:new 0 0 238.1 150.2;" xml:space="preserve">
<style type="text/css">
	.st0{fill-rule:evenodd;clip-rule:evenodd;fill:#2B2A29;}
</style>
<g id="Слой_x0020_1">
	<g id="_2693946625456">
		<path class="st0" d="M118.7,72.4c0-5.3,1.5-11.4,3.5-15.5c1.6-3.4,2.4-4.7,4.5-7.4c0.9-1.2,2.3-2.7,3.3-3.7l1.9-1.7
			c0.2-0.2,0.4-0.4,0.6-0.5c3-2.4,4.9-3.7,8.7-5.5c4.7-2.3,10.5-3.5,16.4-3.5c10,0,19.8,4.3,26.7,11.2l2.3,2.5
			c2.4,3,3.7,4.9,5.5,8.7c2.3,4.7,3.5,10.5,3.5,16.4c0,11.6-5.7,21.2-11.2,26.7c-0.4,0.4-0.8,0.7-1.2,1.2c-0.2,0.2-0.4,0.3-0.6,0.5
			l-2,1.6c-2.8,2.1-3.8,2.7-7.4,4.4c-9.5,4.6-22.4,4.6-31.9,0c-3.6-1.8-5.8-3.1-8.7-5.5l-2.4-2.2c-0.4-0.4-0.7-0.8-1.2-1.2l-1.1-1.2
			c-2.4-3-3.7-4.9-5.5-8.7C119.9,84.1,118.7,78.3,118.7,72.4C118.7,72.4,118.7,72.4,118.7,72.4z M130.5,53L130.5,53z M183.6,53
			L183.6,53L183.6,53z M174,49.6c-0.3,0.1-0.7,0.2-0.6,0.6c0.1,0.3,0.2,0.6,0.6,0.5C175.1,50.5,174.5,49.5,174,49.6L174,49.6
			L174,49.6z M146.3,48.3c0.2-0.2,0.4-0.5,0.3-0.8c-0.1-0.1-0.3-0.3-0.5-0.3c-0.4-0.1-0.4,0.1-0.5,0.4
			C145.2,48.3,146.1,48.3,146.3,48.3L146.3,48.3L146.3,48.3z M146.9,49.6c0.8-1-0.1-1.2-0.6-1.1c-0.1,0.1-0.3,0.6-0.3,0.8
			C146.1,49.5,146.6,49.6,146.9,49.6L146.9,49.6z M167.8,48.3c0.3,0,0.7-0.1,0.8-0.3c0-0.2,0-0.4-0.1-0.6c-0.3-0.5-1.1-0.1-1,0.3
			C167.5,47.9,167.7,48.2,167.8,48.3L167.8,48.3z M138.1,49.8c0.2,0.1,0.5,0.3,0.8,0.2c0.2-0.3,0.5-0.7,0.1-1c0,0-0.2-0.1-0.2-0.1
			C138,48.7,138.1,49.7,138.1,49.8L138.1,49.8L138.1,49.8z M139.8,49.6c-0.3,0.1-0.4,0.7-0.3,0.8c0.1,0.2,0.6,0.4,0.8,0.3
			c0.2-0.1,0.4-0.6,0.3-0.8C140.5,49.7,140,49.5,139.8,49.6L139.8,49.6L139.8,49.6z M140.8,48.4c0.2,0.2,0.5,0.3,0.8,0.3
			c0.2-0.2,0.4-0.5,0.3-0.9c-0.1-0.1-0.6-0.4-0.8-0.3C140.9,47.7,140.7,48.2,140.8,48.4L140.8,48.4z M139.2,49
			c0.2,0.2,0.4,0.3,0.8,0.3c0,0,0.8-0.8,0.1-1.1c-0.3-0.1-0.5-0.2-0.6,0C139.3,48.4,139.2,48.8,139.2,49L139.2,49L139.2,49z
			 M140.8,49.9c0.2,0.1,0.5,0.3,0.8,0.3c0.2-0.1,0.4-0.6,0.3-0.8c-0.1-0.2-0.1-0.2-0.3-0.3c-0.2-0.1-0.3-0.1-0.5,0
			C140.9,49.2,140.8,49.7,140.8,49.9L140.8,49.9L140.8,49.9z M167.2,49.6c0.3,0,0.6-0.1,0.8-0.3c0-0.3-0.1-0.6-0.3-0.8
			C167.4,48.4,166.4,48.6,167.2,49.6L167.2,49.6z M144.6,48.3c0.2-0.2,0.3-0.5,0.3-0.8c-0.1-0.2-0.3-0.3-0.6-0.3
			c-0.5-0.1-0.8,0.7-0.5,1C144.1,48.3,144.4,48.4,144.6,48.3L144.6,48.3z M171.1,48.1c0.3,0.1,0.6-0.2,0.8-0.3
			c0-0.3-0.1-0.5-0.2-0.7c-0.2-0.4-1.1-0.1-1,0.4C170.8,47.8,170.9,48,171.1,48.1L171.1,48.1z M169.5,48.3c0.3,0.1,1.2-0.2,0.6-1
			c-0.3-0.4-1,0-0.9,0.4C169.2,48,169.4,48.2,169.5,48.3L169.5,48.3L169.5,48.3z M143.2,49.6c0.2-0.2,0.4-0.6,0.3-0.9
			c-0.4-0.3-0.8-0.5-1.1,0.1C142.1,49.8,143.2,49.6,143.2,49.6L143.2,49.6L143.2,49.6z M174.1,49.3c0.4,0,0.6-0.2,0.8-0.3
			c0-0.2-0.1-0.5-0.2-0.7c-0.2-0.3-0.3-0.2-0.6-0.1c-0.3,0.1-0.4,0.2-0.3,0.5C173.8,49,174,49.2,174.1,49.3L174.1,49.3z M175.2,50.1
			c0.4,0.1,0.6-0.1,0.8-0.2c0.1-0.3,0-0.5-0.1-0.7c-0.3-0.5-1.1-0.1-1,0.3C174.9,49.7,175.1,49.9,175.2,50.1L175.2,50.1z
			 M142.2,47.9c1.1,0.9,1.2-0.6,1.1-0.6c-0.1-0.1-0.5-0.4-0.8-0.3C142.4,47.1,142.2,47.6,142.2,47.9L142.2,47.9L142.2,47.9z
			 M176.4,51c0.5,0,1.2-0.2,0.7-1c-0.2-0.3-0.4-0.2-0.6-0.1C175.9,50.2,176.2,50.6,176.4,51L176.4,51z M172.5,50.2
			c0.3,0,0.6-0.1,0.8-0.3c0.1-0.3,0-0.6-0.2-0.8c-0.2-0.3-0.4-0.2-0.7-0.1c-0.3,0.1-0.4,0.1-0.3,0.5
			C172.2,49.9,172.4,50.1,172.5,50.2L172.5,50.2z M172.2,47.8c0,0.4,0.1,0.7,0.3,0.9c0.3,0,0.7-0.2,0.8-0.3
			C173.4,48.3,173.2,47,172.2,47.8L172.2,47.8z M137.7,51c0.4-0.5,0.5-1-0.3-1.2C136.8,49.7,136.4,51.1,137.7,51z M170.6,48.8
			c0,0.2,0,0.3,0.1,0.5c0.1,0.3,0.3,0.6,0.9,0.2c0.3-0.2,0.2-0.3,0.1-0.6C171.4,48.2,171,48.5,170.6,48.8
			C170.6,48.8,170.6,48.8,170.6,48.8z M134.2,52.5c0.1,0.4,0.2,0.4,0.6,0.6c0.4,0.1,0.5,0.3,0.8,0.5c0.2-0.3,0.1-1.1-0.1-1.3
			C135.1,52,134.4,52.3,134.2,52.5C134.2,52.5,134.2,52.5,134.2,52.5z M178.5,53.5c0.3-0.1,0.5-0.3,0.8-0.5c0.4-0.2,0.6-0.2,0.6-0.6
			c-0.2-0.2-1-0.5-1.3-0.2C178.4,52.4,178.3,53.3,178.5,53.5L178.5,53.5z M135.9,50.8c-0.3,0.1-0.5,0.8-0.4,1c0.1,0.2,0.7,0.5,1,0.4
			c0.2-0.1,0.5-0.8,0.4-1C136.8,51,136.2,50.7,135.9,50.8C135.9,50.8,135.9,50.8,135.9,50.8z M177.9,50.8c-0.4,0.1-0.8,0.2-0.7,0.7
			c0.1,0.4,0.3,0.8,0.7,0.7c0.4-0.1,0.8-0.3,0.6-0.7C178.4,51.1,178.3,50.7,177.9,50.8L177.9,50.8L177.9,50.8z M161.5,42.4
			c0,0.7,0.2,0.7,0.6,0.9c0.4,0.2,0.7,0.4,1,0.6c0.1-0.9-0.8-2.1-1.4-2.3C161.6,41.9,161.5,42,161.5,42.4L161.5,42.4L161.5,42.4z
			 M116.2,76.7c-0.4-0.1-1.3-0.8-1.8-1l-2.6,1c0,0-0.1,0-0.1,0l3.3,0.1c0.2,0,0.4,0,0.6,0c0,0,0.3,0,0.3,0
			C116.2,76.8,116,76.9,116.2,76.7C116.2,76.7,116.2,76.7,116.2,76.7z M138.2,51.4c-0.7-0.2-0.8-0.5-1.2,0.5
			c-0.1,0.4,0.1,0.5,0.4,0.6c0.3,0.1,0.6,0.3,0.8-0.1c0.2-0.2,0.3-0.6,0.2-0.9c0.3,0.1,0.3,0.2,0.6,0.1c0.2-0.2,0.4-0.6,0.3-0.9
			c-0.1-0.1-0.6-0.3-0.8-0.2C138.4,50.6,138.2,51.1,138.2,51.4C138.2,51.4,138.2,51.4,138.2,51.4z M174.7,50.8
			c0,0.3,0.1,0.7,0.3,0.9c0.3,0.1,0.3,0,0.6-0.1c-0.1,0.4,0.1,0.9,0.4,1.1c0.3,0.1,0.9-0.2,1-0.4c0.1-0.3-0.3-0.9-0.4-1
			c-0.4,0-0.5,0.1-0.8,0.2c0-0.3-0.1-0.6-0.3-0.9C175.3,50.5,174.9,50.6,174.7,50.8L174.7,50.8L174.7,50.8z M108.4,75.6
			c0.4,0.2,1,0.4,1.4,0.6c0.4,0.2,1,0.4,1.4,0.5l-1.6-1.5c-0.4-0.3-1.3-1.3-1.7-1.5C108.1,74,108.4,75.3,108.4,75.6
			C108.4,75.6,108.4,75.6,108.4,75.6z M207.6,76.7l-1.8-1l-2.8,1.1C203.3,76.8,207.3,76.9,207.6,76.7z M114.8,80
			c0.1-0.4-0.4-1.5-0.4-2.1l-2.9-1.1l2.4,2.3C114.3,79.5,114.6,79.7,114.8,80L114.8,80z M199.8,75.6c0.2,0.2,0.4,0.2,0.7,0.3
			c0.5,0.2,1.8,0.7,2.2,0.8l-1.6-1.6c-0.3-0.3-0.6-0.5-0.8-0.7c-0.3-0.3-0.7-0.6-0.8-0.8C199.4,73.8,199.8,75.2,199.8,75.6
			L199.8,75.6L199.8,75.6z M111.4,81.4c0.2-0.3,0.4-0.5,0.6-0.9c0.2-0.3,0.4-0.6,0.6-0.9c-0.1-0.4-0.4-0.9-0.6-1.3
			c-0.2-0.4-0.5-1-0.6-1.4L111.4,81.4C111.4,81.4,111.4,81.4,111.4,81.4z M199.4,80.1c0.3-0.1,1.8-0.4,2.2-0.4l1.2-2.7
			C202.6,77,199.5,79.9,199.4,80.1L199.4,80.1z M108,80.1l2.2-0.4c0.1-0.5,1.2-2.5,1.1-2.7c-0.3-0.1-3.3-0.1-4.1-0.1
			c-0.1,0-0.3,0-0.3,0l-0.3,0.1c0.3,0.1,0.7,0.3,0.9,0.5c0.2,0.1,0.8,0.4,0.8,0.5c0.4-0.1,1.1-0.4,1.5-0.5c0.3-0.1,1.1-0.5,1.4-0.5
			c0,0.1,0,0.1-0.1,0.2l-2.8,2.6c-0.1,0.1-0.1,0.1-0.2,0.2c-0.1,0.1,0,0-0.1,0.1C108,80,108.1,80,108,80.1
			C108,80.1,108,80.1,108,80.1z M204.1,74c-0.2,0.3-1.1,2.3-1.2,2.7c0.8-0.7,1.7-1.6,2.4-2.3l0.7-0.6c0.1-0.1,0,0,0.1-0.2L204.1,74
			L204.1,74L204.1,74z M112.7,74l-1.2,2.7c0.1,0,3.2-2.8,3.3-3.1L112.7,74z M202.9,81.3c0.1-0.2,0.4-0.6,0.6-0.9
			c0.2-0.3,0.4-0.5,0.5-0.8c-0.1-0.4-0.4-0.9-0.6-1.3c-0.1-0.2-0.5-1.1-0.6-1.3c0,0.7,0,1.5,0,2.2C202.8,79.6,202.7,81.1,202.9,81.3
			C202.9,81.3,202.9,81.3,202.9,81.3z M110.2,74l1.2,2.7c0-0.1,0.1-4,0-4.3c-0.1-0.2,0,0-0.1-0.2C111.3,72.5,110.4,73.7,110.2,74
			L110.2,74z M206.2,79.9l-0.4-1.8c-0.3-0.2-2.4-1-2.8-1.1c0.1,0.2,1.4,1.4,1.6,1.6l1.4,1.3C206.2,80,206.1,80,206.2,79.9
			L206.2,79.9L206.2,79.9z M132.8,54.5c0.2-0.4,0.8-1,1.1-1.3c-0.1-0.5-0.5-0.9-1.1-0.9c-0.2,0.2-0.9,1-0.9,1.1
			C131.6,53.9,132.3,54.4,132.8,54.5L132.8,54.5z M201.6,74c0.1,0.3,1,2.5,1.2,2.7c0-0.6,0.1-4.1,0-4.4L201.6,74L201.6,74z
			 M181.4,54.5c0.4-0.1,1.1-0.6,0.8-1.2c0,0-0.2-0.2-0.2-0.3c-0.1-0.1-0.1-0.2-0.2-0.3c-0.2-0.2-0.6-0.9-1.3-0.1
			c-0.4,0.5-0.1,0.7,0.4,1.3C181.1,54.2,181.1,54.4,181.4,54.5L181.4,54.5L181.4,54.5z M199.7,78c0.3,0,2.7-1,2.9-1.1
			c-0.5-0.1-4.5-0.1-4.7,0L199.7,78z M112.6,57.5c0.7,0.5,0.4,0.4,0.8,1.2l0.3,0.1c0-0.7-0.1-1.2-0.5-1.6c-0.3-0.3-0.9-0.7-1.5-0.4
			c-1.1,0.4-0.4,2,0.6,1.5c0.2-0.1,0.3-0.3,0.3-0.5C112.5,57.5,112.4,57.6,112.6,57.5C112.6,57.5,112.6,57.5,112.6,57.5z
			 M171.6,93.9l1.7-2.8c-0.1,0-0.1-0.1-0.2-0.1l-1.2-0.7C171.4,91,171.5,93,171.6,93.9C171.6,93.9,171.6,93.9,171.6,93.9z M158.8,45
			l0.7,0.1c0.1,0.2,0,1.1,1.2,1c1.5-0.2,1.2-2.3-0.5-1.8C159.5,44.5,159.8,44.6,158.8,45L158.8,45z M140.6,91.2l1.8,2.7
			c0-0.3,0.2-1.1,0.1-1.4c0-0.5-0.2-1.9-0.4-2.2c-0.4,0.2-1.4,0.8-1.5,0.8C140.7,91.2,140.7,91.2,140.6,91.2
			C140.6,91.2,140.6,91.2,140.6,91.2z M173.8,59.9c0.1,0.2,0.3,0.4,0.4,0.5c0.1-0.2,0.6-0.6,0.8-0.8c0.3-0.3,0.7-0.6,0.8-0.9
			c-0.2-0.2-0.3-0.3-0.5-0.5l-1.6-1.5c-0.2-0.2-0.4-0.3-0.6-0.5c-0.2-0.2-0.3-0.4-0.5-0.5c-0.2-0.2-1-0.8-1-1c0,0.6,1.9,2.5,2.3,3.7
			C174.3,59.2,174.1,59.4,173.8,59.9L173.8,59.9L173.8,59.9z M138.2,58.7l1.7,1.7c0.2-0.2,0.3-0.3,0.4-0.5c-1.3-1.7,1.7-3.8,2.1-5.2
			C142.3,54.8,138.4,58.4,138.2,58.7L138.2,58.7z M133.9,63.1c0.6-0.2,1.9-1.2,2.4-1.6c0.6-0.4,1.4-0.9,2.1-0.8
			c0.4,0.1,0.5,0.2,0.7,0.3c0.2-0.1,0.3-0.2,0.4-0.4L138,59c-0.3,0.1-0.8,0.8-1.1,1C136.4,60.5,134.1,62.7,133.9,63.1L133.9,63.1
			L133.9,63.1z M136.3,56.3l-0.2,0.3l1.8,1.9l4.2-4c-1.2,0.4-1.9,0.8-2.7,1.6C138.1,57.2,137.8,56.8,136.3,56.3L136.3,56.3
			L136.3,56.3z M174.5,60.8c0.2,0.1,0.3,0.2,0.5,0.3c2-1.3,3.5,1.5,5.2,2c-0.5-0.6-3.8-4-4.1-4.1C175.8,59.5,174.7,60.3,174.5,60.8
			L174.5,60.8L174.5,60.8z M157.5,104c-0.2,1.2,0.4,2.8,1.3,3.1c1.1-0.6,1-2.7,1-3.9C159.5,103.4,158.6,105.6,157.5,104L157.5,104
			L157.5,104z M176.2,58.5c0.6-0.5,1.1-1.3,1.8-1.8c-0.1-0.2-0.1-0.2-0.3-0.3c-0.5,0.1-1,0.5-1.6,0.5c-0.7,0-1.1-0.4-1.5-0.7
			c-0.4-0.4-1.9-1.5-2.7-1.6C172.1,54.6,175.8,58.1,176.2,58.5L176.2,58.5z M159,44.6c-0.5,0-1.8,0.4-2.4,0.5
			c-2.8,0.6-4.7,0.2-6.2-2.5c0.2,0.8,0.7,1.8,1.1,2.3c1.7,2.1,4.2,1.2,6.3,0.2C158.1,45,158.7,44.7,159,44.6L159,44.6L159,44.6z
			 M157.5,51.7l1.8,0.1c-0.2-1.2-0.7-2.7,0.1-4.1c0.4-0.7,0.5-0.6,0.8-0.9c-1.2,0.1-1.8,0.8-2.2,1.6
			C157.5,49.8,157.6,50.8,157.5,51.7L157.5,51.7z M163.1,102.4c0,0.8,0.1,1.4,0.5,2.1c0.3,0.5,0.7,1.1,1.2,1.3
			c0.5-0.3,0.7-1.1,0.8-1.9c0.1-0.8,0.1-1.9,0.1-2.7c-0.3,1.2-1.3,2.2-2.2,1.6l-0.2-0.2C163.2,102.4,163.3,102.5,163.1,102.4
			L163.1,102.4L163.1,102.4z M155.3,51.8l1.6-0.1c0.1-1.1,0.4-2.2,0.7-3.2c0.2-0.5,0.4-0.9,0.6-1.3l0.9-0.9c0,0,0,0,0,0c0,0,0,0,0,0
			C157.4,46.5,155.6,49.7,155.3,51.8L155.3,51.8L155.3,51.8z M176.4,58.8c0.2,0.3,0.7,0.7,1,1l2.1,2.1c0.2,0.2,0.9,0.8,1,1
			c0-0.5-0.8-1.8-1-2.1c-0.6-0.9-1.3-1.2-1.3-2c0-0.7,0.3-1.2,0.4-1.8l-0.3-0.2C178,57.1,176.7,58.5,176.4,58.8L176.4,58.8
			L176.4,58.8z M133.5,62.9c0.3-0.2,2.6-2.6,3.1-3.1c0.3-0.3,0.9-0.8,1-1.1c-0.4-0.3-1.6-1.7-1.9-1.9c-0.3,0.2-0.4,0.2-0.2,0.6
			c0.4,1.3,0.4,1.7-0.3,2.6C134.6,60.6,133.8,61.8,133.5,62.9L133.5,62.9z M160.6,46.7c1.5,0.1,1.4-0.2,2.6-0.5
			c0.7-0.2,1.6-0.1,2.3,0c0-0.4-0.4-1-0.5-1.2c-0.2-0.3-0.7-0.4-1.2-0.5c-1.1-0.2-1.4-0.9-2.4-1.2c0.2,0.5,1,1.2,0.9,2.1
			C162.1,46.2,161.1,46.3,160.6,46.7z M150.9,105.9c1.1-0.1,2-1.7,2.1-2.6c-1.4,0.3-1.4-1.8-1.7-3.2c-0.2,0.7-0.4,2-0.5,2.8
			C150.7,103.9,150.5,105.1,150.9,105.9L150.9,105.9L150.9,105.9z M160.7,43.6c-0.6-0.2-2.3,0.1-3,0.2c-2,0.3-4.1,0.5-5.8-0.7
			c-0.5-0.3-1.3-1.2-1.6-1.8c0.1,0.8,1,2.1,1.3,2.4c1.6,1.6,4,1.3,6.1,0.7C158.4,44.3,160.3,43.8,160.7,43.6L160.7,43.6L160.7,43.6z
			 M135,56.9l1.3-1.1c-0.3-1.2-1-2.1-2.2-2.4c-0.2,0.3-0.5,0.6-0.7,0.9c-0.4,0.4-0.5,0.4-0.2,1C133.5,56,134.1,56.7,135,56.9
			L135,56.9L135,56.9z M179.1,56.9c1-0.3,1.8-1.1,2.1-2.1c-0.2-0.3-1-1.3-1.2-1.4c-1.1,0.3-1.9,1.2-2.1,2.2
			c-0.1,0.3,0.1,0.4,0.3,0.5C178.4,56.3,178.7,56.7,179.1,56.9L179.1,56.9L179.1,56.9z M145.1,98.2c-0.2,1.1-0.3,3.1,0.3,4
			c0.9-0.2,1.5-1.4,1.8-2.3c0.3-0.8,0.7-2.7,0.5-3.7c-0.3,0.6-1.2,2.5-1.8,2.7C145.4,99.1,145.3,98.5,145.1,98.2
			C145.1,98.2,145.1,98.2,145.1,98.2z M147.5,100.4c-0.1,0.9-0.3,3.3,0.3,4c1.3-0.4,3.8-4.9,3.7-7.1l-0.1,0.1c0,0,0,0,0,0
			c0,0,0,0,0,0c0,0-0.1,0.1-0.1,0.2c-0.1,0.1-0.1,0.2-0.2,0.4c-0.1,0.3-0.3,0.5-0.4,0.8c-0.3,0.5-0.5,1-0.9,1.5
			C148.4,102.4,148,101.2,147.5,100.4L147.5,100.4L147.5,100.4z M143.7,97.4c0.9-0.3,1.6-3.9,1.9-5.1c-0.2-0.2-0.7-0.4-1-0.7
			c-0.2-0.2-0.8-0.6-1-0.7C143.5,92.5,143.1,96.2,143.7,97.4L143.7,97.4L143.7,97.4z M129,108.7c1.5-1.9,1.2-1.7,2-1.2l0.2-0.2
			l-2.4-1.9c-0.2,0.1-0.1,0.1-0.2,0.2c0.2,0.1,0.5,0.3,0.4,0.6c0,0.2-1.2,1.7-1.4,1.9c-0.4,0.5-0.6,0.8-1,1.2
			c-0.1,0.1-0.3,0.5-0.5,0.6c-0.3,0.1-0.5-0.2-0.7-0.3c-0.1,0.1-0.1,0.1-0.1,0.2l2.4,1.9l0.2-0.1c-0.3-0.6-0.8-0.3-0.1-1.2
			L129,108.7L129,108.7L129,108.7z M202,91.1c-0.2,0.2-0.2,0.5-0.5,0.6c-0.2,0-3.3-1.4-3.7-1.6c-1.4-0.6,0.1-0.9-0.7-1.1l-1.2,2.8
			l0.3,0.1c0.5-0.6,0-0.9,2.3,0.2c2.3,1,2.8,0.9,2.3,1.9L201,94l1.2-2.8L202,91.1L202,91.1L202,91.1z M197,100.3
			c-0.6,0.6-0.5,0.6-1.3,0l-2.5-1.8c-0.8-0.5-0.8-0.4-0.4-1.2c-0.1-0.1-0.1-0.1-0.2-0.2l-1.8,2.5c0.1,0.1,0.1,0.1,0.2,0.1
			c0.2-0.2,0.3-0.5,0.6-0.4c0.2,0,1.7,1.1,1.9,1.3c2.5,1.7,1.9,1.3,1.6,2.1l0.2,0.1c0.2-0.1,1.7-2.4,1.8-2.5L197,100.3
			C197,100.3,197,100.3,197,100.3z M186,111.7c-0.7,0.5-0.7,0.3-1.2-0.4l-1.8-2.5c-0.1-0.2-0.4-0.5-0.4-0.7c0-0.5,0.6-0.2,0.3-0.7
			c-0.3,0.1-2.4,1.7-2.5,1.8l0.2,0.2c0.9-0.5,0.7-0.3,2.1,1.6c1.7,2.3,1.5,1.8,0.9,2.5c0.1,0.2,0,0.1,0.2,0.2l2.5-1.8L186,111.7
			L186,111.7L186,111.7z M127.6,34.4c0.1,0.1,0.1,0.1,0.2,0.2c0.8-0.5,0.6-0.5,1.9,1.3c0.2,0.3,1.6,2.1,1.5,2.3
			c-0.1,0.2-0.3,0.3-0.4,0.5l0.2,0.2c0.3-0.1,0.9-0.6,1.2-0.9c0.3-0.2,1-0.7,1.3-0.9l-0.1-0.3c-0.8,0.3-0.4,0.8-2.3-1.9
			c-0.2-0.3-1.1-1.4-1.1-1.7c0-0.3,0.3-0.3,0.4-0.5l-0.1-0.2c-0.3,0.1-1,0.7-1.3,0.9C128.6,33.6,127.7,34.3,127.6,34.4L127.6,34.4
			L127.6,34.4z M118,90.9c0-0.4-0.8-2.2-1-2.9l-0.3,0.1c0.4,0.9,0.1,0.8-1.8,1.5c-0.5,0.2-2.2,0.9-2.6,0.9c-0.1-0.2-0.2-0.4-0.3-0.6
			l-0.2,0.1c0,0.1,0.9,2.6,1.1,2.8c0.5-0.2,0-0.2,0.2-0.8c0.3-0.3,1.7-0.7,2.2-0.9c2.3-0.9,2.3-1.1,2.6-0.2L118,90.9
			C118,90.9,118,90.9,118,90.9z M199.6,64.1c-0.5-0.3,0-0.7-0.5-0.6c-0.1,0.2,0.2,1.2,0.2,1.5l0.2,1.2c0.1,0.3,0,0.2,0.3,0.2
			c0.5-0.7-1.1-0.6,2-1.1c0.6-0.1,2.4-0.5,2.8-0.4c0.2,0.1,0.2,0.3,0.2,0.5l0.1,0.2l0.2,0l-0.4-2.3c-0.1-0.4,0-0.6-0.3-0.6
			c-0.3,0.4,0.4,0.7-0.7,0.9c-0.5,0.1-0.9,0.2-1.4,0.3C201.8,63.8,199.8,64.3,199.6,64.1L199.6,64.1L199.6,64.1z M174.3,55.1
			c0.1,0.2,0.2,0.2,0.3,0.3c0.2,0.1,0.3,0.2,0.4,0.3c0.2,0.2,0.5,0.5,0.9,0.5c0.5-0.6,0.3-2,0.2-2.7c0.2,0.3,0.2,0.7,0.5,0.7
			c0.3,0,0.8-0.3,0.9-0.4c0.1-0.2-0.1-0.7-0.2-0.8c-0.2-0.4-0.4-0.3-0.9-0.1c-0.3,0.1-0.4,0.1-0.4,0.6c-0.6-1.1-0.8-1.6-2-2.3
			c-0.8-0.5-2-1-3.2-1.2c0,0,0,0,0,0c0,0,0,0,0,0c0.8,0.4,1.6,0.5,2.6,1.6C174.8,52.9,174.5,54,174.3,55.1
			C174.3,55.1,174.3,55.1,174.3,55.1z M133.8,109.1c0,0,0,0-0.1,0.1c0,0-0.1,0.1-0.1,0.1c0.5,0.5,0.8,0.1,0.2,1.3
			c-0.3,0.5-0.5,0.9-0.8,1.4c-1.3,2.4-1.1,2.1-1.9,1.8l-0.1,0.3c0.1,0.1,2.4,1.5,2.7,1.5l0.1-0.2c-0.5-0.5-0.9,0,0-1.6
			c0.2-0.3,0.4-0.7,0.6-1c1.5-2.5,1-2.1,2-1.8l0.1-0.3L133.8,109.1L133.8,109.1L133.8,109.1z M137.9,53.5c0-0.4,0-0.4-0.4-0.6
			c-0.6-0.3-0.7-0.2-1,0.3c-0.1,0.2-0.1,0.3-0.1,0.6c0,0,0.8,0.7,1.2,0.1c0-0.1,0.1-0.2,0.1-0.2C137.9,53.7,137.9,53.7,137.9,53.5
			c-0.1,0.8-0.3,2.2,0.2,2.8c0.4-0.1,0.8-0.5,1.2-0.8c0.2-0.2,0.3-0.2,0.4-0.3c0.2-0.4-1.1-2.6,1.8-4.4c0.3-0.2,0.5-0.3,0.7-0.4
			l0.8-0.3c-1.1,0.1-2.4,0.7-3.2,1.2C138.8,51.9,138.5,52.5,137.9,53.5L137.9,53.5L137.9,53.5z M194.3,42.1c0.5,0.8,0.5,0.6-1.6,2.2
			c-0.2,0.2-1.6,1.4-1.9,1.4c-0.3,0-0.5-0.3-0.6-0.4l-0.2,0.2c0.1,0.2,1.8,2.3,1.9,2.4l0.2-0.1c-0.1-0.6-0.7-0.5,0.3-1.3
			c0.4-0.3,0.8-0.6,1.2-0.9c0.3-0.2,1.7-1.4,1.9-1.4c0.4-0.1,0.4,0.3,0.6,0.4l0.2-0.2l-1.9-2.4C194.4,42,194.4,42,194.3,42.1
			L194.3,42.1L194.3,42.1z M145.7,98.3c0.5-0.2,1.2-1.4,1.5-2.1c0.3-0.7,0.9-1.8,1.1-2.6c-0.3-0.1-0.9-0.4-1.2-0.5
			c-0.3-0.2-0.9-0.5-1.2-0.6c-0.3,0.6-0.6,3.4-0.6,4.4c0,0.3,0.1,0.9,0.2,1.2C145.6,98.2,145.6,98.2,145.7,98.3L145.7,98.3z
			 M169,91.9c0,0.8,0.5,2.4,0.7,3.1c0.2,0.7,0.7,2.4,1.3,2.6c0.8-1.2,0.1-5.9-0.1-7.1C170.6,90.7,169.6,91.7,169,91.9z M190.9,63.2
			c-0.1-0.2-0.6-0.9-0.8-1.2c-0.3-0.4-0.5-0.8-0.8-1.2c-1.3-2-1.7-2.5-3.1-4.2c-0.2-0.2-0.3-0.3-0.5-0.5c-0.4-0.4-1.6-1.5-2.4-1.8
			l1.7,2.4c0.6,0.8,1.1,1.6,1.7,2.5c1.1,1.7,1.2,2.6,2.8,3.4C189.8,62.7,190.6,63.1,190.9,63.2L190.9,63.2z M123.2,63.2
			c0.4-0.1,2.2-1.1,2.5-1.6c0.6-0.8,1.1-1.7,1.6-2.6l2.6-3.7c0.2-0.3,0.8-1,0.9-1.2c-1.4,0.5-3.3,2.8-4.2,4L123.2,63.2L123.2,63.2z
			 M154.6,46.8c-0.1,0.8-0.5,2-0.7,2.7c-0.2,0.6-0.7,2-0.8,2.6l1.7-0.3c0.2-2.2,1.3-3.6,2.5-5c0.4-0.5,0.8-0.9,1.2-1.3
			C157.6,45.7,156,46.8,154.6,46.8C154.6,46.8,154.6,46.8,154.6,46.8z M165.9,115.3c0.5,0.2,0.3-0.1,0.7,0.4c0.9,1,2.3,2.9,3.3,4.1
			c0.3,0.4,0.4,0.2,0.5-0.2l0.7-4.5c0.3-1.6,0.7-0.8,0.6-1.5c-0.1,0-1.9,0.4-1.9,0.6c0,0.3,0.3,0.1,0.5,0.1c0.6,0,0.3,1.2,0.2,1.6
			c-0.1,0.6-0.2,1.3-0.3,1.8c-0.4-0.4-0.8-1-1.1-1.4c-0.3-0.3-1-1.1-1-1.5l0.6-0.2l-0.1-0.3c-0.4,0.1-1,0.3-1.4,0.4
			c-0.4,0.1-1.1,0.2-1.3,0.4L165.9,115.3L165.9,115.3L165.9,115.3z M134.2,67.2c0,1.5,0.3,2.8,0.7,4.2c0.5-0.6,1-3.1,1.1-4.2
			c0.2-1.6,0.3-3.3,0.3-4.9C134.7,63.1,134.2,65.4,134.2,67.2L134.2,67.2z M179.2,71.6c0.4-0.8,0.7-3.4,0.7-4.4c0-1.7-1.1-4.5-2.1-5
			C177.9,64.9,178.1,69.5,179.2,71.6z M168.1,104.2c0.5-0.5,0.7-2.9,0.7-3.8c-1.1-0.7-2.2-2.3-2.9-3.8c-0.1,0.7,0.1,1.6,0.1,2.4
			c0,1.1-0.1,1.2,0.2,2.2C166.6,102.7,166.9,103.1,168.1,104.2z M190.2,37.7c0.4,0.5,0.6,0.5-0.2,1.2c-0.5,0.4-2.7,2.6-2.9,2.6
			c-0.3,0.1-0.5-0.2-0.7-0.4l-0.2,0.2c0.1,0.2,2.1,2.3,2.6,2.8c0.3,0.3,0.7,0.6,0.9,0.9l1.5-1.1c0.2-0.2,0.1,0,0.2-0.2l-0.1-0.1
			c-0.5,0-1,0.6-1.8,0.3c-0.4-0.1-1-0.8-1.1-1.2c0-0.2,2-2.1,2.4-2.4c0.2-0.2,0.7-0.6,0.9-0.8c0.5,0,0.5,0.3,0.8,0.4l0.1-0.1
			c0-0.4-0.1-0.1-0.5-0.6l-1.6-1.7L190.2,37.7L190.2,37.7L190.2,37.7z M193.4,102.1c-0.1,0.3-0.2,0.2,0.1,0.6
			c0.4,0.6,0.6,1.2,0.1,1.8c-1,1.4-0.9,0.9-2.5-0.5c-0.3-0.2-0.5-0.5-0.8-0.7c-1.4-1.2-1.1-1-0.7-1.7c-0.1-0.2-0.1-0.1-0.3-0.2
			l-2,2.4l0.2,0.2c0.2-0.1,0.3-0.4,0.6-0.4c0.3,0,2.2,1.8,2.6,2.1c0.8,0.6,1.2,0.8,0.9,1.3c-0.1,0.2-0.1,0-0.2,0.3l0.1,0.1
			c0.3-0.1,1.5-1.7,1.7-1.9c0.2-0.2,0.2-0.3,0.4-0.5c0.1-0.1,0.3-0.3,0.4-0.5c0.1-0.2,0.3-0.3,0.4-0.5c0.1-0.1,0.3-0.3,0.4-0.5
			c-0.1-0.2-0.8-0.8-1.1-1.2C193.6,102.2,193.6,102.2,193.4,102.1L193.4,102.1L193.4,102.1z M149.6,115.5l0-0.2
			c-0.2-0.2-2.6-0.5-3-0.6l-0.1,0.3c0.3,0.1,0.4,0.1,0.6,0.2c0.1,0.4-0.5,3.4-0.7,4.2c-0.2,0.9-0.5,0.3-0.9,0.6
			c0,0.4,0.1,0.3,1.1,0.4l3.8,0.7c0.1-0.4,0.6-1.7,0.6-2c-0.3-0.1-0.3-0.1-0.4,0.2c-0.2,0.3-0.4,0.8-0.8,1c-0.4,0.2-1.6,0.1-1.9-0.2
			c0-0.1,0.6-4.4,0.9-4.6C149,115.4,149.4,115.6,149.6,115.5L149.6,115.5L149.6,115.5z M198.3,54.8l1.6,0.1
			c-0.1,0.2-0.1,0.2-0.2,0.3l-0.9,0.9C198.5,55.8,198.3,55.2,198.3,54.8L198.3,54.8z M195.7,53.9c0.1,0.3,0.2,0.6,0.4,0.9l0.4,0.9
			c0.6-0.2-0.1-0.4,0.2-0.8c0.2-0.3,0.7-0.2,1.1-0.1l0.6,1.7c-0.2,0.2-0.6,0.7-1,0.8c-0.2-0.2-0.2-0.3-0.3-0.5l-0.3,0.1l0.8,2.1
			c0.1,0.3,0.1,0.6,0.4,0.5c0.2-0.3-0.1-0.4,0.3-0.8l1.7-1.7c0.4-0.4,0.7-0.7,1.1-1.1c0.8-0.8,1.4-1.2,0.7-1.3c-0.1,0-0.3,0-0.4,0
			c-0.3,0-0.6,0-0.9,0c-0.6,0-3.8-0.1-4.2-0.3c-0.2-0.1-0.2-0.1-0.3-0.2C195.9,53.8,195.9,53.7,195.7,53.9L195.7,53.9L195.7,53.9z
			 M131,60.5c0,0.6,0,2.2,0.2,2.8l0.1,0.2c1.1-1.2,2.6-5.8,2.2-6.4c-0.3-0.4-1.1-1.3-1.3-1.7C131.3,56.1,131,59.8,131,60.5L131,60.5
			L131,60.5z M134.9,29.7c0.1,0.3,0.2,0.5,0.4,0.8c0.1,0.3,0.2,0.7,0.5,0.6c0.4-0.2-0.6-1.2,1-1.7l1.7,3.8c0.1,0.2,0.2,0.4,0.1,0.7
			c-0.1,0.2-0.3,0.1-0.5,0.4l0.1,0.1c0.3,0,1.1-0.4,1.4-0.5l1.1-0.5c0.2-0.1,0.2-0.1,0.3-0.2c-0.2-0.5-0.4,0.1-0.7,0
			c-0.3-0.2-0.9-1.6-1.1-2.1c-0.3-0.6-0.8-1.6-1-2.2c1.4-0.6,1.3,0,1.9,0.4l0.2-0.1c-0.1-0.3-0.5-1.3-0.7-1.5L134.9,29.7L134.9,29.7
			L134.9,29.7z M173.5,114.9c0.2,0.1,1,1,1.2,1.2l-1.3,0.5L173.5,114.9C173.5,114.9,173.5,114.9,173.5,114.9z M175.1,116.4
			c0.2,0.2,0.7,0.6,0.7,1c-0.2,0.2-0.4,0.2-0.5,0.3l0.1,0.2c0.4-0.1,0.9-0.3,1.3-0.5c0.2-0.1,0.5-0.2,0.7-0.3
			c0.2-0.1,0.5-0.1,0.6-0.3c-0.2-0.5-0.3,0.1-0.8-0.4c-0.2-0.2-0.4-0.4-0.6-0.6c-0.7-0.8-1.5-1.5-2.3-2.3c-0.4-0.4-0.9-1.1-1.2-1.1
			c-0.2,0.3-0.3,4.3-0.4,5.2c-0.1,1.2-0.7,1-0.4,1.3c0.1,0.1,0.2,0,0.3,0c0,0,0.2-0.1,0.2-0.1c0.4-0.1,1.2-0.4,1.4-0.6
			c-0.1-0.6-0.4,0.1-0.8-0.2c-0.3-0.2-0.1-0.8-0.1-1.1L175.1,116.4L175.1,116.4L175.1,116.4z M182.8,63.5c0.3-0.5,0.3-2.4,0.3-3
			c0-0.8-0.3-4.4-1.1-5.1l-1.3,1.6c-0.3,0.3-0.1,0.7,0,1.2C181.1,60,181.8,62.4,182.8,63.5L182.8,63.5L182.8,63.5z M153.6,118
			l0.7,1.4l-1.3-0.1L153.6,118L153.6,118z M152.9,121.3c0-0.4,0-0.3-0.3-0.3c-0.7-0.2-0.2-0.7,0-1.2l1.8,0.1
			c0.2,0.3,0.4,0.9,0.3,1.2c-0.2,0-0.5,0-0.6,0.1c0,0.3,0.1,0.2,0.5,0.3l2,0.2c0.8,0-0.1-0.4-0.2-0.6c-0.2-0.3-1.3-3.7-1.6-4.4
			c-0.3-0.8-0.4-1.4-0.7-0.7l-2.2,4c-0.9,1.6-1,0.5-1,1.2C151.2,121.3,152.6,121.4,152.9,121.3L152.9,121.3L152.9,121.3z
			 M116.5,97.1c-0.2-0.1-0.6-0.2-0.9-0.3c-0.3-0.1-0.5-0.3-0.7-0.5c-1.6-1.8,1.2-3.4,2.6-3.4c1.4,0,2.4,1.6,1.1,2.9
			c-0.3,0.3-0.2,0.5,0.3,0.3l1.2-0.6c0.2-0.1,0.3-0.1,0.3-0.3c0-0.2-0.2-0.1-0.4-0.2c-0.4-0.1-0.3-0.5-0.3-0.9c-0.4-2.3-2.9-3.4-5-2
			c-1.5,1.1-1.2,3.7,0.2,4.8C115.9,97.7,116.1,97.3,116.5,97.1L116.5,97.1z M200,59.1l-0.3,0c0,0-0.2,0.1-0.3,0.1l-1.7,0.5
			c0.1,0.5,0.1,0.2,0.5,0.5c0.2,0.3-0.4,2.1,1.1,2.8c0.9,0.5,2,0.1,2.4-1.3c0.2-0.5,0.2-1.1,0.4-1.6c0.6-1.9,2.4,0.4,0.7,1.6
			c-0.4,0.3-0.5,0.1-0.4,0.5c0.2,0,1.8-0.5,1.9-0.6c0.2-0.2-0.1-0.2-0.2-0.3c-0.2-0.1-0.3,0-0.2-0.3c0.1-0.5,0.1-0.7,0-1.2
			c-0.4-1.4-2-1.8-2.9-0.7c-0.7,0.8-0.5,3.5-1.7,3c-0.6-0.2-1-1.4,0.1-2.4C199.7,59.5,200.1,59.5,200,59.1L200,59.1L200,59.1z
			 M157.6,74.2c0.4,0.2,0.6,0.4,1,0.6c0.4,0.2,0.7,0.4,1.2,0.5c1,0.3,1.9,0.5,3,0.4c0.7-0.8,0.9-2.7,0.2-3.6
			c-0.4,0.1-0.7,0.4-1.1,0.6c-1.1,0.5-2.9,0.9-4.1,1L157.6,74.2c-0.2,0.1-0.4,0.1-0.5,0.3c0,1.7,1.2,3.4,1.9,4.3
			c0.3,0.3,0.4,0.6,1,0.5c1.1-0.4,2-1.1,2.3-2.3c-1-0.4-1.6-0.6-2.6-1.1C159.1,75.4,157.9,74.6,157.6,74.2
			C157.6,74.2,157.6,74.2,157.6,74.2z M131.4,32.5c0,0.7,0.5,1.2,1,1.5c0.7,0.3,1.6,0.1,2.3,0.1c2,0,0.9,2.3-0.9,1.5
			c-0.4-0.2-0.7-0.6-0.9-0.7l-0.2,0.1c0,0.1,1,1.9,1.2,1.9c0.4,0,0-0.5,0.5-0.6c0.5-0.1,1.6-0.2,2.1-1.3c0.6-1.5-0.4-2.5-2.2-2.4
			l-1.2,0c-2,0-0.4-2.3,1.2-1.2c0.3,0.2,0.3,0.5,0.7,0.3c0,0-0.9-1.8-1.1-1.7c-0.4,0.2,0.3,0.5-0.4,0.6
			C132.3,30.8,131.4,31.3,131.4,32.5L131.4,32.5L131.4,32.5z M168.9,29.4c-0.3-0.1-0.3,0.1-0.4,0.4l-0.5,1.4c-0.2,0.6,0.4,0,0.7,0.2
			c0.2,0.1,1.1,1.1,2.3,0.8c1.1-0.3,1.8-1.5,1-2.6c-0.3-0.5-0.6-0.7-1-1.1c-1.9-1.7,1-2.3,1.3-0.3c0,0.2,0,0.3,0,0.5
			c0,0.3-0.1,0.1,0.2,0.3c0.1-0.1,0.7-1.8,0.6-1.9c-0.3-0.1-0.2,0-0.4,0.2c-0.3-0.1-0.3-0.2-0.6-0.4c-1.7-1.4-4.2,0.5-2.3,2.6
			c0.3,0.4,0.7,0.7,1,1c0.9,1.1-0.7,2-1.6,0.7C168.9,30.4,169.1,29.7,168.9,29.4C168.9,29.4,168.9,29.4,168.9,29.4z M157.6,72.8
			c0.1-0.3,0.6-1,0.9-2.3c0.1-0.5,0.4-2.6,0-3c-0.3-0.2-1.2-0.4-1.7-0.4c-0.6,0-1.4,0.3-1.8,0.6c0.3,0.6,0.7,1.1,1.2,2.3
			c0.3,0.7,0.7,2.1,0.7,2.8l0.6,0.1L157.6,72.8c-0.1,0.2-0.1,0.1-0.1,0.4l0.3,0.3c2-0.5,3.1-1.2,4.4-2.6c0.4-0.4,0-1.1-0.4-1.6
			c-0.3-0.4-1.1-1.2-2-1.2c-0.4,1-0.2,1.6-1.4,3.7L157.6,72.8C157.7,72.8,157.7,72.8,157.6,72.8C157.7,72.8,157.6,72.8,157.6,72.8
			L157.6,72.8z M134.3,116.1c0.4,0.2,0.3-0.3,0.7,0c0.1,0.1,0.4,0.4,0.5,0.5c2,1.4,3.8-0.3,3.1-1.9c-0.3-0.5-0.6-0.8-0.9-1.3
			c-0.2-0.2-0.8-0.9-0.5-1.4c0.3-0.6,1.2-0.2,1.5,0.2c0.4,0.5,0.4,1,0.3,1.7l0.3,0.1c0.1-0.2,0.5-1.1,0.6-1.4
			c0.2-0.5,0.1-0.4,0.1-0.4c-0.3-0.2-0.1,0.1-0.5,0.2c-0.4-0.3-0.5-0.6-1.2-0.9c-1.1-0.4-2.3,0.2-2.4,1.4c-0.1,1.1,1,1.8,1.4,2.6
			c0.7,1.2-0.9,1.8-1.7,0.5c-0.3-0.6-0.3-1.1-0.2-1.7l-0.2-0.1c-0.2,0.2-0.4,0.7-0.5,1c-0.1,0.2-0.1,0.4-0.2,0.5L134.3,116.1
			L134.3,116.1L134.3,116.1z M155,78.7c0,1-0.1,0.9,0.5,1.2c1,0.5,2.4,0.4,3.1-0.2c-0.3-0.7-0.6-1.1-1-2.4c-0.3-1-0.4-1.8-0.5-2.9
			l-0.5-0.1C155.8,75,155,77.2,155,78.7L155,78.7z M153.8,79c0.2-0.2,0.6-1.6,1.1-2.6c0.4-0.8,1.1-1.7,1.6-2.2l-0.2-0.5
			c0,0-0.1,0-0.2,0l0.1,0c0.1-0.3,0-0.4,0.3-0.6c0.3-0.3,0.6-0.1-0.2-1.9c-0.6-1.4-1.1-1.7-1.8-2.5c-0.5-0.6-0.7-0.6-1.7,0
			c-0.7,0.4-1.2,1.1-1.4,2.2c1.5,0.3,3.5,1.1,4.4,1.9c-0.7-0.3-1.2-0.6-2.1-0.8c-0.8-0.2-1.8-0.3-2.7-0.2c-0.7,0.9-0.7,2.7-0.1,3.6
			c2.1-1,2.4-1.2,4.2-1.5c-1.3,0.4-3,1.4-3.7,2.2c-0.3,0.4,0.2,1.2,0.4,1.6C152.3,78.2,153,78.7,153.8,79L153.8,79L153.8,79z
			 M182,71c0.2-0.7,0.4-1.3,0.6-2.2c0.3-1.6,0.3-3.4-0.4-4.9c-0.3-0.6-0.8-1.3-1.3-1.5c0,0.2,0.1,0.4,0.1,0.5c0,0.2-0.1,0.2-0.2,0.5
			l-0.4,3.7c0,1.2,0.6,2.7,1.3,3.7L182,71C182,71,182,71,182,71z M131.3,66.5c0,2.3,0.2,2.5,0.8,4.5c0,0,0,0,0,0l0.1-0.2
			c0.1-0.1,0.1-0.1,0.1-0.2c1.5-2.7,1.2-3.1,0.9-6c0-0.4-0.1-0.8-0.1-1.2c0-0.3-0.1-0.3-0.2-0.5c0-0.2,0.1-0.4,0.1-0.6
			C132,63,131.3,65.1,131.3,66.5L131.3,66.5z M184.8,33.3l0.1-0.2c-0.1-0.2-1.6-1.1-1.8-1.2l-0.1,0.2c0.1,0.4,0.8,0.2,0.1,1.3
			c-0.3,0.4-0.5,0.8-0.8,1.3c-0.5,0.8-1.2,2.1-2.4,1.4c-0.5-0.3-0.7-0.7-0.4-1.4c0.3-0.5,0.5-0.9,0.8-1.3c1.3-2,1.1-2.1,2-1.6
			c0.1-0.1,0.1-0.1,0.2-0.2l-1.9-1.3c-0.2-0.1-0.4-0.3-0.7-0.4c-0.1,0.3-0.2,0.2,0,0.4c0.3,0.3,0.5,0.2-0.1,1.1
			c-0.5,0.8-1.8,2.5-1.8,3.3c0,0.8,0.6,1.2,1,1.5c0.5,0.3,1.1,0.6,1.9,0.5c1.2-0.3,2.1-2.7,2.9-3.4
			C184.3,32.9,184.4,33.2,184.8,33.3L184.8,33.3L184.8,33.3z M161.3,105.6c0.8-0.4,1.5-2.8,1.5-4c0-0.3-1.6-3.4-1.8-3.8l-1,4.1
			C159.8,102.9,160.6,105.1,161.3,105.6L161.3,105.6L161.3,105.6z M155.4,106.5c0.5-0.2,0.7-1,1-1.6c0.2-0.6,0.5-1.4,0.4-2
			c-0.2-0.7-0.8-3.7-1-4.2c-0.1,0.2-1.8,3.5-1.8,3.7C153.9,103.2,154.6,106,155.4,106.5L155.4,106.5z M176.4,28.9
			c0.7,0.2,0.8,0.8,0.5,1.4c-0.3,0.6-0.7,0.8-1.4,0.6L176.4,28.9L176.4,28.9z M174.5,27.8l0.5,0.4c0,0.4-1.7,4.1-1.9,4.4
			c-0.6,0-0.6-0.3-0.8,0.1c0.1,0.2,2.5,1.2,2.7,1.3l0.2-0.3c-0.3-0.2-0.4-0.2-0.5-0.4c0-0.3,0.6-1.7,0.8-1.9c0.5,0.1,2.3,1.1,3-0.5
			c0.6-1.3-0.7-2-1.7-2.5c-0.3-0.1-1.8-0.9-2.1-0.9L174.5,27.8L174.5,27.8L174.5,27.8z M151.4,24.7l0,0.2c0.2,0.2,0.5,0,0.7,0.2
			c0.2,0.3,0.4,2.3,0.4,2.6c-0.3-0.2-0.8-0.7-1.1-1l-1.6-1.5c-0.2-0.2-0.2-0.3-0.7-0.3l-1.4,0.2c-0.4,0.1-0.3,0-0.3,0.3
			c0.6,0.2,0.8-0.1,0.9,0.9l0.4,3.3c0.1,1.3-0.7,0.5-0.7,1.1l0.1,0c0.4,0.1-0.3,0,0.1,0c0,0,0.2,0,0.3,0c0.4-0.1,1.5-0.1,1.7-0.3
			c-0.1-0.6-0.5,0.1-0.9-0.5c-0.2-0.3-0.5-3.3-0.5-3.6l3.2,3c0.4,0.3,1.2,1.4,1.1,0.5c0-0.1,0-0.3-0.1-0.4c0-0.3-0.1-0.6-0.1-0.8
			c-0.1-0.5-0.1-1.1-0.2-1.6c-0.1-0.5-0.1-1.1-0.2-1.6c-0.1-1.2,0.7-0.4,0.6-1.1C153.1,24.4,151.6,24.6,151.4,24.7L151.4,24.7
			L151.4,24.7z M180.1,109.3c-0.2,0-3.6,2-3.9,2.3c0,0.2,0.4,1,0.6,1.3l0.2,0.3c0.3-0.2,0.2,0,0.2-0.3c0-0.2-0.1-0.3-0.1-0.5
			c0-0.8,0.9-1.4,1.5-1.6l-0.1,6.1l4.5-2.6c-0.1-0.3-0.8-1.8-0.9-2l-0.2,0.2c0.5,2.1-0.7,2.2-1.9,3l0-0.4L180.1,109.3
			C180.1,109.3,180.1,109.3,180.1,109.3z M112.1,54.8l1.6,0.9l0.1-0.3c-0.3-0.3-0.7-0.5-0.7-1.2c0-0.4,0.4-1.3,0.5-1.5l3.4,5
			l2.2-4.8l-1.9-1.1c-0.2,0.4-0.1,0.2,0.4,0.8c1,1.1,0.1,2.3-0.2,3.1c-0.2-0.1-0.1-0.1-0.3-0.3l-1.5-2.2c-0.3-0.4-1.5-2.3-1.7-2.5
			C113.8,50.8,112.2,54.4,112.1,54.8L112.1,54.8L112.1,54.8z M186.4,65.1c-0.3-4.5-0.1-5.8-2.7-9.1c-0.2-0.2-0.7-0.8-0.7-0.9
			c0,0.2,0.3,1,0.3,1.3c0.3,1.5,0.4,2.9,0.6,4.5C184,62.4,184.5,64.6,186.4,65.1L186.4,65.1z M127.7,65.1c0.9-0.2,1.5-0.9,1.8-1.6
			c0.8-1.5,0.8-4,1-5.7c0.1-0.5,0.1-0.9,0.2-1.4c0.1-0.3,0.3-1.1,0.3-1.3l-1.4,1.9C127.8,59.6,128,61.6,127.7,65.1L127.7,65.1z
			 M163.8,25c0.2,0.1,0.4,0.1,0.6,0.3c0.1,0.5-0.3,1.9-0.4,2.4l-0.3,1.8c-0.2,0.9-0.5,0.4-0.9,0.6l-0.1,0.3l4.8,0.9
			c0.2-0.2,0.6-1.5,0.7-1.9c-0.4,0-0.2-0.1-0.4,0.1c-0.1,0.2-0.2,0.6-0.8,0.8c-0.4,0.2-1.5,0.2-1.8-0.2c-0.1-0.4,0.2-1.5,0.3-2
			c1.2,0.2,0.5,1.1,0.9,1.4c0.4,0,0.3-0.2,0.3-0.5c0-0.3,0.1-0.6,0.1-0.8c0-0.2,0.3-1.4,0.2-1.6c-0.5-0.1-0.2,0.1-0.5,0.7
			c-0.2,0.3-0.5,0.5-0.9,0.4l0.4-2c2.2,0.3,1.7,0.9,2,1.7l0.3,0l0.4-1.8l-4.3-0.8C163.8,24.7,163.8,24.6,163.8,25L163.8,25L163.8,25
			z M118,44.5c0.3-0.1,0.1,0,0.3-0.2c0.3-0.4,0.6-0.2,0.9,0.1c0.4,0.3,3.1,2.4,3.2,2.6c0,0.3-0.2,0.4-0.3,0.6
			c0.1,0.1,0.1,0.1,0.2,0.2c0.5-0.6,2.8-3.6,3-3.8c-0.1-0.3-1.1-1.3-1.4-1.5c-0.2,0.4-0.1,0.3,0.1,0.6c0.4,0.7,0.2,1.4-0.3,2
			c-0.5,0.7-0.4,0.6-1.6-0.3l-0.4-0.3c0,0,0,0,0,0l-0.1-0.1c0.4-0.8,1.4,0,1.6,0c0.1-0.2,0.1-0.1,0.2-0.3c-0.4-0.3-0.8-0.6-1.2-0.9
			c-0.3-0.3-0.9-0.8-1.2-0.9l-0.2,0.2c0.4,0.4,0.8,0.8,0.4,1.6c-0.3-0.1-1.4-1-1.7-1.2c0.8-1.2,1.2-1.4,2.4-0.9l0.2-0.2
			c-0.1-0.2-1.3-1.1-1.4-1.1c-0.5,0.6-1,1.3-1.5,1.9l-1.1,1.5C117.9,44.2,117.8,44.3,118,44.5L118,44.5z M196.6,93.4
			c0.7,0,0.6,0.2,0.8-0.2l-1.9-1.1l-0.1,0.2c0.1,0.4,0.4,0.3-0.1,0.8c-0.2,0.2-0.4,0.3-0.6,0.6c-0.3,0.3-0.6,1-0.8,1.6
			c-0.6,2.9,2.9,4.8,4.9,2.9c0.7-0.7,1.3-1.8,1.5-3.2c-0.4-0.1-1.1-0.6-1.4-0.8c0-0.4,0-0.4,0.1-0.7l-0.2-0.1
			c-0.2,0.2-1.4,2.3-1.4,2.5l0.2,0.1c0.6-0.6,0.2-0.6,1.8,0.3c-0.5,2.3-2.5,1.5-3.8,0.5C193.6,95.1,195.1,93.4,196.6,93.4
			L196.6,93.4L196.6,93.4z M161.1,43.1c-0.3-0.7-1.1-1.3-1.9-1.5c-1-0.2-2.1,0-3,0.1c-1.6,0.2-2.8,0.1-4.1-0.8
			c-0.4-0.3-0.6-0.5-0.9-0.8c0.1,1.3,0.2,1.8,0.9,2.5C154,44.4,158.1,43.2,161.1,43.1L161.1,43.1L161.1,43.1z M168.7,64.4
			c0-0.5,0.2-0.7,0.5-0.9c0.8-0.6,1.4-0.3,0.5,0.5C169.4,64.3,169.2,64.4,168.7,64.4L168.7,64.4z M170.4,60.9
			c-0.2,0.2-0.2,0.4-0.5,0.5c-0.8,0.3-1.6-0.9-0.5-1.5c1.8-0.9,2.3,1.7,0.8,2.6c-0.3,0.2-0.5,0-0.8,0.1c-0.5,0.2-0.6,0.9-1,1.2
			c-0.7,0.5-3.1,0.1-1.6,1.9c0.2,0.3,0.8,1.1,1.4,0.7c0.3-0.2,0.6-0.9,0.8-1.4c0.3-0.6,0.9-0.4,1.4-0.8c0.6-0.5-0.1-0.7,0.9-1.3
			c1.4-0.7,2.8,0.4,2,1.6c-1,1.4-2.1-0.3-1.2-0.9c0.1-0.1,0.1,0,0.2-0.1c0,0,0,0,0,0l0.1-0.1c0,0,0,0,0,0c-2.1-0.1-1.3,2.2,0,2.2
			c0.5,0,0.9-0.3,1.1-0.5c0.5-0.7,0.7-1.6,0-2.2c-1.1-1-2.2-0.2-2.4-0.6c-0.1-0.2,0.3-0.8,0.3-1.2c0-0.5-0.1-1-0.3-1.3
			c-1.3-1.7-4,0.4-2.5,1.8C169.5,62.4,170.3,62,170.4,60.9L170.4,60.9L170.4,60.9z M157,58.7c-0.3-0.1-0.4-0.5-0.4-0.9
			c0-0.4,0-0.8,0.5-0.8C157.5,57.3,157.5,58.4,157,58.7z M155.4,55.2c0.1,0.3,0.4,1.1-0.5,1.3c-0.7,0.1-1-0.6-0.8-1.3
			c0.5-1.6,2.6-0.6,2.5,1.1c0,0.5-0.2,0.3-0.4,0.7c-0.3,0.7,0.3,1.2,0.3,1.7c-0.1,0.8-1.7,2.4,0.6,2.4c2.4,0,0.9-1.6,0.7-2.3
			c-0.1-0.5,0.5-1,0.3-1.7c-0.1-0.3-0.7-0.4-0.3-1.6c0.5-1.4,2-1.3,2.3-0.2c0.4,1.3-0.9,1.6-1.4,0.8c-0.2-0.3,0-0.6,0-0.9
			c-0.7,0.7-0.6,1.7,0.6,1.9c2.2,0.2,1.7-3.6-0.6-3c-0.5,0.1-0.7,0.4-1,0.6c-0.7,0.7-0.1,0.9-0.9,0.8c-0.5-1.9-3.2-2.1-3.5-0.1
			C153.1,58,157.2,57.2,155.4,55.2L155.4,55.2z M173.4,76.9c-0.3,0.2-0.6,0.2-1,0.1c-0.4-0.1-0.6-0.2-0.7-0.5
			C172,76,173.4,76.3,173.4,76.9z M175.4,75.5c-1.9,0.2-1.1-2.2,0.3-1.3c1.7,1.1-0.6,2.8-1.8,2.2c-0.3-0.2-0.1-0.4-0.6-0.5
			c-0.7-0.3-1.2,0.3-1.8-0.1c-1-0.7-1.9-1.7-2.3,0.3c-0.5,2.4,1.4,1,2.3,1.1c0.4,0.1,0.9,0.7,1.5,0.6c0.3,0,0.7-0.6,1.6,0
			c0.4,0.2,0.8,0.7,0.8,1.4c0,0.6-0.5,1-1.1,1c-0.6,0-1.2-0.4-1-1c0.3-0.7,0.8-0.6,1.4-0.3c-1.5-2.2-3.2,1.7-0.6,1.9
			c2.1,0.1,2.2-2.2,1-3.1c-0.2-0.1-0.4-0.2-0.4-0.4c0-0.3,0.2-0.3,0.5-0.3c1.6-0.5,2.1-2.5,0.6-3.2c-2.3-1-2.8,2.4-1,2.2
			c0.1,0,0.2,0,0.3-0.1c0,0,0.1,0,0.1-0.1L175.4,75.5C175.4,75.6,175.4,75.5,175.4,75.5L175.4,75.5L175.4,75.5z M145.5,64.2
			c-0.5,0-1-0.3-1.3-0.7C143.6,62.5,145.6,63.2,145.5,64.2z M141.7,63.3c0.2,0.1,1.1,0.3,0.6,1.2c-0.3,0.7-1,0.3-1.4-0.1
			c-0.9-1.1,0.4-2.4,1.8-1.7c1.1,0.5,0.5,0.8,0.9,1.3c0.3,0.4,1.2,0.3,1.4,0.8c0.5,0.9,0.7,2.6,2.2,0.9c1.3-1.6-0.1-1.5-1.3-2
			c-0.5-0.2-0.5-0.9-1-1.2c-0.6-0.4-0.8,0.2-1.5-0.7c-0.8-1.2-0.2-2.7,1.2-2.1c1.5,0.6,0.1,2.2-0.6,1.4c-0.1-0.1,0-0.1-0.1-0.1
			l-0.1-0.1c0,0,0,0,0,0c0,0,0,0,0,0c0.3,2.6,3.6,0.1,1.5-1.4c-0.8-0.6-1.8-0.4-2.3,0.3c-0.2,0.3-0.3,0.8-0.3,1.3
			c0,0.4,0.4,1,0.2,1.2c-0.3,0.3-1.4-0.5-2.4,0.5c-0.7,0.6-0.6,1.5,0,2.2c0.6,0.7,1.5,0.8,2.1,0C143.4,64.1,142.9,63.1,141.7,63.3
			L141.7,63.3L141.7,63.3z M163.9,86.9c0.7,0,1.2,1.4,0.8,1.6C164.4,88.6,163.7,87.6,163.9,86.9z M164.1,90.7
			c0.6-2.5-3.3-1.4-1.9,0.8c0.9,1.4,2.8,0.7,3-0.9c0-0.2,0-0.2,0-0.4l0-0.4c0.1-0.5,0.7,0.2,1.1,0.3c1.6,0.6,2.9-0.5,2.3-2
			c-0.3-0.8-1.1-1.4-2.1-0.7c-0.8,0.5-0.7,1.6,0.4,1.9c-0.1-0.2-0.4-0.3-0.4-0.7c-0.1-0.9,1.2-1.4,1.6-0.1c0.5,1.8-1.9,2-2.7,0.4
			c-0.2-0.5,0-0.4,0-0.8c0-0.7-0.8-0.9-1-1.2c-0.4-0.7,0.5-3.1-1.8-2c-0.4,0.2-1.1,0.5-0.7,1.2c0.2,0.4,0.7,0.6,1.2,1
			c0.6,0.4,0.2,1,0.6,1.6c0.4,0.6,0.8,0.1,1.1,1.2c0.4,1.4-0.9,2.6-1.9,1.6c-1.2-1.1,0.6-2.1,1.1-1.1L164.1,90.7L164.1,90.7
			L164.1,90.7z M150.1,88.9c-0.2-0.6,0.3-1.7,0.7-1.6C151.3,87.4,150.8,88.8,150.1,88.9z M147.9,89.7c2.5-1-0.7-3.4-1.6-1.2
			c-0.4,1,0.1,1.9,0.8,2.2c1.8,0.6,2.6-1.6,2.7-0.1c0.1,1.7,1.9,2.7,3,1.2c1.6-2.1-2.5-3.5-1.9-0.7c0.1-0.3,0-0.5,0.3-0.7
			c0.6-0.6,2,0.1,1,1.2c-0.9,1.1-2.3,0.2-2.1-1.3c0.1-1.2,0.5-0.8,0.9-1.2c0.5-0.5,0.1-1.3,0.5-1.7c0.6-0.6,2.3-1.5,0.4-2.3
			c-0.4-0.2-1.2-0.6-1.5,0c-0.3,0.6,0,1.5-0.2,2c-0.2,0.4-0.8,0.6-0.9,1.2c-0.1,0.4,0.4,0.7-0.4,1.6c-0.9,1-2.6,0.6-2.3-0.9
			C147.1,87.4,149.1,88.5,147.9,89.7L147.9,89.7z M142.5,76.9c-0.1,0.7-1.6,0.8-1.7,0.5C140.6,76.9,141.9,76.6,142.5,76.9z
			 M139.4,77.5c0.2,0.7,0,0.2-0.5,0.9c-1,1.4-0.3,2.9,1.2,2.8c1,0,1.7-0.8,1.3-1.8c-0.3-0.9-1.4-1-1.9-0.1c0.6-0.3,1-0.4,1.3,0.2
			c0.3,0.7-0.3,1.1-0.9,1.1c-1.7,0-1.5-2.2,0.3-2.7c0.6-0.1,0.4,0,0.8,0.2c0.6,0.3,1.1-0.4,1.5-0.5c0.7-0.3,3,1.3,2.4-1.1
			c-0.5-2-1.4-1-2.2-0.3c-0.6,0.5-1.1-0.1-1.8,0.2c-0.5,0.2-0.2,0.8-1.5,0.7c-1.4-0.1-2-1.5-0.9-2.3c1.5-0.9,2.1,1.5,0.2,1.3
			c2.3,1.4,2.3-2.9-0.2-2c-1.3,0.5-1.6,2.1-0.3,2.9C138.6,77.3,138.8,77.3,139.4,77.5L139.4,77.5L139.4,77.5z M180,79.3
			c0.9-0.6,1.5-3.5,1.6-4.7c0.1-1,0.1-3.3-0.4-4.2c-0.2-0.3-0.5-0.7-0.6-1.1c-0.2,0.2-0.8,1.9-0.9,2.2c-0.3,0.6-0.4,1.8-0.5,2.6
			C179.1,75.2,179.7,78.7,180,79.3C180,79.3,180,79.3,180,79.3z M132.4,73.3c0,1.3,0.1,2.3,0.4,3.5c0.2,0.7,0.8,2.1,1.2,2.4
			c0.2-0.3,0.5-2,0.6-2.4c0.3-1.6,0.4-3.9-0.3-5.4c-0.2-0.4-0.3-0.7-0.4-1.1l-0.4-1c-0.1-0.1,0-0.1-0.1-0.1
			C133.1,70.3,132.4,70.2,132.4,73.3L132.4,73.3z M148.4,101.1c1.2-0.3,3.4-5.3,3.4-6.2c-0.3-0.2-1.2-0.4-1.6-0.5
			c-0.6-0.2-1.1-0.4-1.6-0.6c-0.1,0.1,0,0-0.1,0.2l-0.6,3.4c-0.1,0.7-0.1,1.4-0.1,2C148,100.2,148.2,100.5,148.4,101.1L148.4,101.1
			L148.4,101.1z M143.7,26.6c1.1-0.4,1.7,1,2,1.9c0.3,1.1,0.6,2.5-0.6,2.9c-1.1,0.3-1.7-1-2-1.9C142.7,28.4,142.5,27,143.7,26.6
			L143.7,26.6L143.7,26.6z M141.3,28.9c0,1.6,1.2,3.1,2.9,3.1c1.8,0,3.2-1.2,3.2-3.1c0-1.6-1.4-3-3-2.9c-0.9,0.1-1.7,0.4-2.2,0.8
			C141.8,27.2,141.3,28.1,141.3,28.9L141.3,28.9L141.3,28.9z M110.2,62.7c-0.4-2.4,4.7-1.3,4.9,0.2
			C115.3,65.3,110.4,64.3,110.2,62.7z M112.1,59.8c-1.5,0.3-2.6,1.7-2.4,3.5c0.2,1.5,1.7,2.8,3.5,2.5c1.5-0.3,2.6-1.7,2.4-3.5
			C115.4,60.8,113.8,59.5,112.1,59.8z M165.3,93.9c0.2,0.8,1,2.6,1.4,3.3c0.5,0.8,1.3,2.3,2.1,2.5l0.2-0.4c0.1-0.2,0.1-0.3,0.2-0.5
			c0.5-1.8-0.2-5-0.6-6.6c-0.5,0.3-1,0.6-1.6,0.9C166.5,93.4,165.6,93.7,165.3,93.9L165.3,93.9L165.3,93.9z M126.1,103l0.2-0.2
			c-0.1-0.2-1.8-2-2-2.1l-0.2,0.2c0.1,0.3,0.5,0.4,0.3,0.8c-0.1,0.2-2.5,2.3-2.8,2.7c-0.9,0.9-0.8,0.3-1.3,0.1
			c-0.1,0.1-0.1,0.1-0.2,0.2l1,1.1c0.2,0.2,0.3,0.3,0.5,0.5c0.2,0.2,0.3,0.4,0.5,0.5l0.2-0.2c-0.1-0.2-0.2-0.2-0.3-0.5
			c0.1-0.3,1.3-1.4,1.5-1.5c0.1,0.4-0.3,2.4-0.5,2.6c-0.4-0.1-0.2-0.3-0.5-0.1c0,0.2,1.9,2.2,2.1,2.3l0.2-0.1
			c-0.1-0.2-0.3-0.5-0.3-0.8l0.5-3.6l2.7,0.4c0.4,0.1,0.5,0.4,0.7,0.2c0.2-0.2-0.8-1-1.2-1.4c-0.2-0.2-0.3-0.4-0.5-0.2
			c-0.1,0.2,0.7,0.7-0.2,0.7c-0.4,0-2.4-0.2-2.7-0.4C125.9,102.2,125.5,102.7,126.1,103L126.1,103z M196.9,45.2
			c0.4,0.8,0.2,0.8-0.5,1.2l-2.6,1.5c-0.7,0.4-0.8,0.6-1.2-0.1l-0.3,0.1c0.2,0.4,0.5,0.9,0.7,1.3l0.6,1c0.1,0.2,0.1,0.3,0.3,0.1
			c0.1-0.1,0.1,0.1,0-0.3c-0.1-0.2-0.1-0.1-0.1-0.4c0.3-0.3,1.5-1,1.8-1c-0.2,0.6-0.7,2.2-1.1,2.4c-0.2-0.1-0.1-0.1-0.3-0.3L194,51
			c0.2,0.4,0.8,1.5,1.1,2c0.1,0.2,0.2,0.4,0.4,0.6c0,0,0,0,0,0c0.5-0.2-0.1-0.1,0.2-1.1l1.2-3.2l2.4,0.9c0.4,0.2,0.5,0.4,0.7,0.5
			l0.2-0.1l-1.1-2l-0.3,0.1c0.1,0.2,0.2,0.3,0.2,0.6c-0.4,0.2-1.1-0.2-1.5-0.4c-0.3-0.1-1.2-0.4-1.4-0.6c0.4-0.2,1.5-0.9,1.8-0.9
			c0.3,0,0.2,0.3,0.5,0.4l0.2-0.1c0-0.2-1.3-2.4-1.4-2.5L196.9,45.2L196.9,45.2L196.9,45.2z M124.8,36.7c0.1,0.1,0.1,0.1,0.2,0.2
			c0.2-0.1,0.5-0.5,0.7-0.1c0,0.1,0,0.1,0,0.2l-0.3,2.8c-2.2-2.1-1-1.7-1.2-2.2c-0.3-0.1-0.1,0-0.6,0.4c-0.2,0.2-0.4,0.3-0.6,0.5
			c-0.2,0.2-1,1-1.1,1.1l0.2,0.2c0.3-0.1,0.2-0.2,0.5-0.3c0.4,0,0.8,0.6,1.1,0.9l1.9,2c0.7,0.8,0.4,0.6,0,1.2l0.2,0.2
			c0.3-0.1,0.8-0.7,1.1-1c0.2-0.2,1-0.9,1.1-1.1c-0.5-0.3-0.2,0-0.6,0.1c-0.4,0.1-0.9-0.7-1.3-1.2c-0.2-0.2-0.2-0.1-0.2-0.4
			c0.6,0.1,2.3,0.2,2.6,0.5l-0.2,0.4l0.2,0.2l1.7-1.6c0.2-0.2,0.5-0.4,0.5-0.6c-0.4-0.2-0.1,0.2-1,0.2l-3.5-0.5c0-0.1,0,0,0-0.2
			c0-0.1,0-0.1,0-0.2c0-0.1,0-0.3,0.1-0.5l0.2-1.8c0.1-0.4,0.2-0.4,0.3-0.7l-0.2-0.2c-0.2,0.1-0.3,0.2-0.4,0.4L124.8,36.7
			C124.8,36.7,124.8,36.7,124.8,36.7z M185.5,37.2c0.2,0.4,0.8,0.5,0.5,1.3c-0.1,0.5-0.6,1-1.2,0.9c-0.2,0-0.6-0.2-0.6-0.4
			c-0.1-0.3,0.4-0.8,0.8-1.3C185.1,37.5,185.2,37.3,185.5,37.2L185.5,37.2z M185.7,36.8c0.1-0.2,0.4-0.6,0.6-0.8l0.6-0.8
			c0.2,0.1,0.5,0.4,0.6,0.6C187.7,36.4,187.1,37.7,185.7,36.8L185.7,36.8z M185.3,33.7l0.4,0.4c0,0.4-0.6,1-0.7,1.2l-1.7,2.2
			c-0.4,0.6-0.5,0.6-1.1,0.2c-0.1,0.1-0.1,0.1-0.2,0.2c0.2,0.3,2.6,2.1,3,2.3c1.3,0.6,2.4-0.1,2.4-1.2c0-0.4-0.3-0.7-0.4-1
			c2,0.4,2.2-1.4,1.2-2.4l-2.7-2.2C185.4,33.6,185.4,33.5,185.3,33.7C185.3,33.7,185.3,33.7,185.3,33.7z M118.2,49.2
			c0.2-0.6,0.9-1,1.7-0.6c0.6,0.3,0.8,1.1,0.2,1.7C119.7,50.3,118.5,49.5,118.2,49.2z M116.1,47.9c0.2-0.4,0.7-1,1.4-0.5
			c0.8,0.5,0.5,0.9,0.3,1.6C117.6,48.8,116.3,48,116.1,47.9L116.1,47.9z M114.5,49.5l0.2,0.2c0.6-0.6,0.3-0.8,2.6,0.7
			c2,1.3,2.2,1,1.7,2.1l0.2,0.1c0.2-0.1,1.9-2.7,2.1-3.3c0.3-0.8,0.2-1.5-0.4-2c-0.8-0.6-1.4-0.2-2,0.2c0.3-2.1-1.7-2.1-2.5-1
			c-0.4,0.5-0.6,0.9-1,1.5L114.5,49.5C114.5,49.5,114.5,49.5,114.5,49.5z M159.3,116.3c1-0.1,1.5,0.1,1.6,1c0.1,1-0.5,1.1-1.4,1.2
			L159.3,116.3L159.3,116.3L159.3,116.3z M157,116.3l0.7,0.1c0.2,0.5,0.3,2.2,0.3,2.9c0.2,2.9,0.1,1.7-0.6,2.2l0,0.3
			c0.5,0,1-0.1,1.5-0.1c0.2,0,1.2,0,1.4-0.2l0-0.2c-0.8,0-0.8,0-0.8-0.8c0-0.4-0.2-1.1-0.1-1.4c0.3-0.1,0.4,0.3,0.6,0.5l1.6,1.9
			l1.8-0.2l0-0.3c-0.4-0.2-0.3,0-0.7-0.4l-1.5-1.7l0.2-0.2c0.1-0.1,0.2-0.1,0.3-0.1c1-0.7,0.7-2.9-1.4-2.7L157,116L157,116.3
			L157,116.3L157,116.3z M158.6,27.1c0-0.6,0-1.3,0-1.9c0-0.4,0-0.4,0.5-0.4c1.2,0.1,1.2,1.1,0.9,1.7
			C159.8,27.1,159.3,27.1,158.6,27.1L158.6,27.1L158.6,27.1z M156.5,24.6c0.8,0,0.7,0.2,0.7,0.9c0,0.7,0,3.6-0.2,4
			c-0.2,0.1-0.6,0.1-0.7,0.2c0,0.4,0.2,0.2,1.3,0.3c0.7,0,1,0.1,1.7,0l-0.1-0.3l-0.5-0.1c-0.2-0.1-0.2-0.5-0.2-0.9l0-1.2
			c0.4,0,0.7,0.6,1,1.2c0.2,0.4,0.7,1.1,0.9,1.3l1.8,0c0-0.6-0.1-0.1-0.5-0.6l-1.4-2.1c0.3-0.2,1-0.3,1.1-1.2
			c0.1-0.8-0.3-1.4-0.8-1.6c-0.6-0.3-3.6-0.5-4.4-0.4L156.5,24.6C156.5,24.6,156.5,24.6,156.5,24.6z M185.1,106.2
			c0.1-0.2,0.6-0.5,0.9-0.6c0.6-0.1,2.2,1,0.5,2.2C186.4,107.7,185.2,106.4,185.1,106.2L185.1,106.2L185.1,106.2z M188.2,106.9
			c0.1-0.4,0.3-0.5,0.2-1.1c0-0.4-0.3-0.7-0.5-0.9c-0.9-0.8-2-0.2-2.8,0.5l-1.5,1.3c-0.2,0.2-0.6,0.4-0.6,0.6l0.1,0.2
			c0.5-0.1,0.5-0.7,1.2,0.2l1.4,1.6c0.3,0.4,1.3,1.3,1.2,1.6c-0.1,0.4-0.5,0.3-0.2,0.7l2.2-1.8c0.3-0.3-0.1-0.3-0.1-0.3
			c-0.5,0-0.3,0.7-1.1-0.2l-0.9-1c0.3-0.2,0.6,0,1.3,0.1c2,0.5,1.8,0.6,2.4,0c0.2-0.2,0.7-0.6,0.9-0.8l-0.1-0.2
			c-0.4,0.1-0.3,0.2-0.8,0.1L188.2,106.9L188.2,106.9L188.2,106.9z M121.4,96.7c-0.3-0.4-0.6-0.9-0.9-1.2l-0.2,0.2
			c0.4,0.8,0.6,0.6-1.6,2.1c-2.1,1.5-1.8,1.6-2.5,0.9c-0.2,0.1-0.1,0-0.2,0.1c0.1,0.3,1.5,2.2,1.8,2.5c0.1-0.1,0.1,0,0.2-0.2
			c-0.1-0.2-0.3-0.4-0.2-0.7l1.7-1.3c0.4,0.5,0.7,0.9,1,1.4c0,0.1,0,0-0.1,0.1c0,0-0.1,0.1-0.1,0.1c-0.4,0.3-1.3,1-1.7,1
			c-0.1-0.1-0.1-0.1-0.2-0.2l-0.2-0.2c-0.1,0.1-0.1,0.1-0.2,0.2l0.9,1.3c0.3,0.4,0.6,0.9,0.9,1.2l0.2-0.1c-0.1-0.3-0.2-0.2-0.3-0.7
			c0.1-0.2,2.7-2.1,3.3-2.5c0.5-0.4,0.8-0.5,1.1,0.1c0.2-0.1,0.1-0.1,0.3-0.2l-1.8-2.4l-0.2,0.2c0.1,0.3,0.3,0.2,0.2,0.7
			c-0.1,0.1-1.4,1.1-1.6,1.2c-0.2-0.5-0.8-1-1-1.5c0.3-0.1,0.9-0.6,1.1-0.8c1-0.8,0.6,0.4,1.3,0.1C122.2,97.8,121.5,97,121.4,96.7
			L121.4,96.7L121.4,96.7z M143.3,113.5c-0.6-0.1-2.5-0.9-2.9-0.9l-0.1,0.2c0.5,0.7,1-0.6-0.1,2.7c-0.8,2.4-0.6,2.4-1.5,2.2
			l-0.1,0.2c0.2,0.2,1.8,0.6,2.3,0.8c0.8,0.3,0.6,0.2,0.7,0c-0.1-0.2-0.5-0.2-0.6-0.4c0-0.4,0.5-1.9,0.6-2.1
			c0.4,0.1,1.3,0.4,1.6,0.6c-0.1,0.4-0.3,1-0.4,1.4c-0.3,0.8-0.2,0.7-1,0.6l-0.1,0.2c0.2,0.2,1.8,0.6,2.3,0.8c0.8,0.3,0.6,0.2,0.7,0
			c-0.1-0.3-0.5-0.2-0.6-0.4c-0.1-0.5,1.3-4.3,1.5-4.6c0.3-0.1,0.4,0,0.7,0.1l0.1-0.3c-0.6-0.1-2.5-0.9-2.9-0.9l-0.1,0.2
			c0.3,0.4,0.8,0,0.5,1c-0.1,0.4-0.3,1-0.5,1.4l-1.7-0.5c0.1-0.5,0.5-1.6,0.7-1.9c0.3-0.1,0.4,0,0.7,0.1L143.3,113.5L143.3,113.5
			L143.3,113.5z M185.4,87c0.2-0.3,0.3-1.1,0.5-1.5c0.8-2.4,1-2.3,2.1-4.2c0.6-1,0.8-1.9,0.8-3.3c0-1.2,0-2.8-0.2-4
			c-0.2,0.4-0.4,1.2-0.5,1.7c-0.6,1.7-1.5,3.1-2.3,4.6c-0.9,1.6-1.9,3.3-1.1,5.2C184.7,86,185.1,86.8,185.4,87L185.4,87z M128.7,87
			c0.3-0.3,0.7-1,0.9-1.4c0.8-2-0.1-3.6-1.1-5.3c-0.9-1.5-1.7-2.9-2.3-4.6c-0.2-0.5-0.4-1.3-0.6-1.7c-0.2,1.1-0.3,2.7-0.2,3.9
			c0.1,3.5,1.6,3.8,2.9,7.5C128.4,85.8,128.5,86.8,128.7,87C128.7,87,128.7,87,128.7,87z M152.7,103.1c1.3-0.4,3.1-5.7,3.3-7.6
			c-0.7,0-1.3-0.1-2-0.2c-0.6-0.1-1.3-0.3-1.9-0.3c-0.2,0.4-0.5,3.6-0.5,4.3c0,0.7,0.1,1.5,0.3,2.2
			C152.3,102.4,152.5,102.6,152.7,103.1L152.7,103.1z M130.8,81.9c1.5-4.5-2-6.8-3.3-11.2c-0.2-0.5-0.3-1.3-0.5-1.7
			c0,0.6-0.4,2.2-0.5,3.9c-0.1,2.2,0.4,3.5,1.6,5.1c0.8,1,1.7,2.2,2.2,3.3C130.5,81.4,130.6,81.7,130.8,81.9L130.8,81.9z
			 M183.3,81.9c0,0,1.1-2,1.7-2.8c2.2-3,3.1-3.7,2.4-8.3c-0.1-0.5-0.3-1.4-0.3-1.9c-0.2,0.6-0.3,1.8-1,3.3
			C184.6,75.5,181.9,77.9,183.3,81.9C183.3,81.9,183.3,81.9,183.3,81.9z M161,95.2c0,1.1,1.8,6.7,3.2,7.4c0.8-0.7,1-3,1-3.9
			c0-1.6-0.3-3-0.4-4.6c-0.6,0.1-1.2,0.4-1.8,0.6C162.5,94.8,161.4,95,161,95.2L161,95.2z M127.9,68.3c0,2,0.8,3.5,1.7,5
			c0.4,0.7,0.8,1.3,1.2,2c0.6,1.3,0.4,0.8,0.9,2.2c0.1-0.6,0.2-1.2,0.1-1.8c-0.2-4.1-1.5-5.3-1.5-9.5c0-1,0.2-1.8,0.3-2.7
			c-0.4,0.2-1.4,1.4-1.8,1.9C128.4,66.2,127.9,67.2,127.9,68.3L127.9,68.3L127.9,68.3z M171,100.9l0,0.8l1.7-2.4
			c1.3-1.6,2.3-2.8,3.8-4.3c0.6-0.6,1.4-1.3,2.1-1.9c-0.7-0.2-1.4-0.4-2.1-0.6c-0.7-0.2-1.3-0.5-1.9-0.8c-0.5,0.5-1.8,3.2-2.2,4.1
			C171.9,97.1,171,99.5,171,100.9L171,100.9L171,100.9z M135.5,93.1c0.6,0.7,1.5,1.3,2.1,1.9c0.7,0.7,1.3,1.3,1.9,2.1
			c0.9,1.1,1.9,2.2,2.7,3.4c0.2,0.4,0.6,0.9,0.8,1.2c0.3-2.2-1.3-5.8-2.3-7.8c-0.3-0.6-0.9-1.8-1.3-2.2
			C137.2,92.8,137.8,92.5,135.5,93.1L135.5,93.1z M182.4,77.5c1.2-3.1,2.6-4.6,3.3-6.8c0.5-1.4,0.6-2.9,0-4.3
			c-0.4-1-1.6-2.6-2.3-2.9c0.1,1.3,0.3,2.3,0.3,3.7C183.6,70.6,181.7,74.3,182.4,77.5L182.4,77.5z M156.5,95.5c0,2,0.2,5.2,0.9,7.1
			c0.2,0.5,0.6,1.6,1.2,1.4c1.5-0.6,1.9-6.7,1.9-8.8C159,95.4,158,95.5,156.5,95.5z M130.4,84.1c0,1.7,0.1,3,0.9,4.5
			c0.5,0.8,1.5,2.3,2.1,2.6c0.6-0.4,1.2-0.7,2-1.1l2-1.1c-1.8-1.9-2.2-1.7-3.7-3l-1.2-1.2c-0.2-0.3-1.7-2.1-2-2.2L130.4,84.1
			L130.4,84.1L130.4,84.1z M176.7,89c0.1,0.1,0,0,0.1,0.1c0,0,0.1,0.1,0.1,0.1l0.8,0.4c0.4,0.2,0.7,0.3,1,0.5c1.1,0.6,1.2,0.7,2,1.2
			c0.7-0.5,1.7-1.8,2.1-2.6c1.1-2,0.9-3.9,0.8-6c-0.3,0.1-1.8,1.8-2,2.1c-0.3,0.4-1.6,1.7-2.1,2C178.1,87.6,178,87.6,176.7,89
			L176.7,89L176.7,89z M122.3,75.4c2.8-0.7,3.6-4,3.9-6.4c0.3-2.4,0.4-4.5,0.9-6.8c0.2-0.7,0.4-1.4,0.6-2.1c-0.5,0.4-1.8,2.3-2.2,3
			c-2.3,3.9-1.5,6.3-2.5,10.4C122.7,74.1,122.4,74.8,122.3,75.4L122.3,75.4L122.3,75.4z M191.8,75.4c-0.1-0.6-0.4-1.3-0.6-1.9
			c-1.1-4.1-0.2-6.4-2.5-10.4c-0.4-0.7-1.7-2.6-2.2-3c0.1,0.6,0.4,1.3,0.5,2c0.8,3.6,0.6,8.2,2,10.9C189.5,74,190.5,75.1,191.8,75.4
			L191.8,75.4L191.8,75.4z M174,87.5l1.8,1.1l1.4-1.3c0.2-0.2,0.3-0.3,0.5-0.5c0.2-0.2,0.3-0.3,0.5-0.4l1.9-1.8
			c0.1-0.2,0.3-0.3,0.4-0.5c0.3-0.3,0.5-0.7,0.7-1.2c0.7-1.6,0.7-2.8,0.6-4.4l-3.3,3c-0.5,0.4-1.8,1.7-2.1,2.1
			c-0.5,0.7-0.8,1.5-1.6,2.7L174,87.5L174,87.5L174,87.5z M138.3,88.6l1.8-1.1l-1.7-2.5c-0.9-1.4-0.4-1.1-1.8-2.5l-2.7-2.6
			c-0.2-0.2-0.4-0.3-0.6-0.5c-0.2-0.1-0.4-0.3-0.6-0.5c-0.1-0.1-0.5-0.4-0.6-0.5c-0.4,1.3,0.1,3.6,0.9,5c0.1,0.2,0.3,0.4,0.4,0.6
			c0.9,1.2,3,2.9,4.2,4C137.9,88.2,138,88.4,138.3,88.6L138.3,88.6L138.3,88.6z M163.3,61.7c-0.6,0.1-0.5-0.4-0.3-0.5
			C163.4,61,163.5,61.3,163.3,61.7z M162.3,60.6c0.3,1-1,0.6-0.3-0.1L162.3,60.6z M164.2,59.1c0.5-0.2,0.6,0.5,0.2,0.6
			C164,60,163.7,59.4,164.2,59.1z M162.6,61c-0.1-1.8,0.3-1,1-2c-0.1,0.4,0,1.1-0.2,1.3C163.3,60.5,162.7,60.9,162.6,61
			C162.6,61,162.6,61,162.6,61z M162.6,58.3c0.8-0.1,0.5,0.6,0.3,0.7c-0.2,0.1-0.4-0.1-0.4-0.3C162.4,58.5,162.5,58.5,162.6,58.3
			L162.6,58.3z M163.8,58.5c0.1-0.4,0.1-1.1,0.2-1.5c0.2-0.7,0.7-0.7,0.9-0.5c0.5,0.6-0.4,1.3-0.7,1.6
			C164,58.2,163.9,58.4,163.8,58.5L163.8,58.5z M161.6,57.3c-0.8,0.4-0.8,0.1-1.7,0.9c-0.5,0.4-1.2-0.3-1.6-0.7
			c-0.1,1,1.2,1.4,0.4,2.6c-0.1,0.2-0.4,0.6-0.5,0.6c0.7,0.1,0.9-0.4,1.2-0.4c0.4,0,0.8,0.4,1.5,0.1c0.1-0.2-0.1-0.4-0.3-0.7
			c-0.5-0.9-0.2-1.5,0.9-1.7c-0.1,0.9,0.5,1.4,0,2c-0.1,0.1-0.4,0.5-0.5,0.7c-0.3,1.1,0.7,1.4,1.2,0.6c0,1.6,0.9,1,1.2,0.3
			c0.2-0.5,0.2-0.8,0.4-1.3c0.9-0.1,0.8-0.2,1.3-0.6c0.3,0.3,0.5,1,0.1,1.4c-0.3,0.3-0.9,0.5-1.5,0.5c0.2,0.7,0.8,0.8,1.2,1.2
			c0.1,0.5,0,0.9,0.5,1.1c0.2-1.5,0.6-1.6,1.5-1.8c0.4-0.1,0.5-0.2,0.8-0.3c-0.2-0.1-0.2-0.1-0.5-0.2c-0.4,0-1.1-0.2-1.1-0.6
			c0-1.1-0.1-1-0.4-1.9c0.3-0.3,0.6-0.3,0.9-0.7c0.2-0.3,0.2-0.9,0.5-1.2c0.4-0.1,1.2,0.4,1.7,0.5c-0.3-0.3-1.6-1.6-2.3-1.5
			c-0.6,0-0.5,0.8-0.6,1.3c-0.1,0.5-0.5,1-1,1c0-0.6,1.1-2.5-0.1-3.2c-1-0.6-1.7,1.7-2.2,2c-0.3-0.4-0.1-1,0.1-1.3
			c0.2-0.2,0.8-0.7,0.7-1.1c-0.1-0.6-2.1-1-2.8-0.9c0.3,0.1,0.5,0.3,0.8,0.4c1.1,0.5,0.7,0.6,0.1,1.4
			C161.6,56.7,161.7,56.8,161.6,57.3L161.6,57.3L161.6,57.3z M158,90.1c0.1,0.5,0.3,0.8,0.5,1.2c0.2,0.4,0.1,1-0.3,1.1
			C157.3,92.6,157.8,90.6,158,90.1z M158.7,89.2c0.4-0.2,0.7,0.5,0.3,0.7c-0.2,0.1-0.4-0.1-0.5-0.2
			C158.4,89.5,158.5,89.3,158.7,89.2L158.7,89.2z M157.3,89.2c0.3,0.4,0.1,0.9-0.3,0.7C156.7,89.8,156.6,89.1,157.3,89.2z M158,89.5
			c-0.1-0.2-0.5-0.8-0.4-1c0-0.3,0.3-0.8,0.4-1C158.3,88.3,158.7,88.2,158,89.5z M158.4,87c0.5,0.1,0.5,0.6-0.1,0.6
			c-0.2-0.2-0.2-0.2-0.2-0.5L158.4,87L158.4,87z M157.4,87c0.3,0.3,0,0.7-0.3,0.6C156.9,87.5,156.9,86.9,157.4,87z M161,86.5
			c-0.6,0.1-1.3,0.2-1.5,0.6c0.2,0.2,0.9,0.5,1.1,0.9c0.3,0.6-0.2,1.1-0.6,1.4l-0.2-0.3c-0.3-0.5-0.3-0.4-0.6-0.7
			c-0.4-0.4,0-0.8,0-1.4c0-0.9-1.1-1.4-1.4-0.1c-0.7-1.4-1.2-0.6-1.2,0.3c0,0.5,0.1,0.9,0.3,1.3c-1.1,0.8-0.6,0.6-1,1.2
			c-1.8-1,0.1-2,0.3-2.4c-0.9-0.6-1.3,0-1.7-0.7c-0.1-0.2,0-0.1-0.2-0.3c-0.2-0.2-0.3-0.2-0.6-0.3c0.1,0.6,0.5,1.3,0,1.8
			c-0.4,0.5-0.9,0.5-1.1,1.2c0.7-0.1,0.8-0.5,1.6-0.2c0.8,1.6,0.9,1.2,1.3,1.7c-0.2,0.4-0.4,0.5-0.5,1c-0.1,0.5,0.2,0.9,0.1,1.3
			c-0.4,0.4-1.2,0.2-1.7,0.4c0.6,0.2,2.4,0.7,2.9,0.2c0.5-0.5-0.4-1.3-0.2-2.2c0-0.1,0.1-0.2,0.1-0.3c0.1-0.2,0.1-0.2,0.2-0.2
			c0.3,0.3,0.2,1,0.4,1.6c0.4,1.4,1.7,1.7,2,0.3c0.1-0.6,0-1.3,0.1-2c0.3,0.1,0.4,0.2,0.5,0.5c0.4,0.8-0.5,1.7,0,2.2
			c0.5,0.4,2.4-0.3,2.8-0.6c-0.7,0-1.6,0.1-1.8-0.1c-0.1-0.3,0.1-0.8,0.1-1.2c0-0.5-0.2-0.7-0.3-1c0.3-0.4,0.8-0.7,1-1.4
			c0.2-0.8,0.9-0.4,1.8-0.3c-0.3-0.7-1.8-0.9-1.6-2l0.1-0.9C161.4,85.7,161.1,86.1,161,86.5L161,86.5L161,86.5z M150.2,61.3
			c0.3-0.2,0.6,0.4,0.3,0.5C150.1,62.1,149.9,61.5,150.2,61.3z M151.7,61.4c-0.6,0.2-0.6-0.4-0.4-0.5
			C151.5,60.7,151.8,61,151.7,61.4z M148.9,59.4c0.4-0.2,0.8,0.5,0.4,0.7C148.9,60.2,148.5,59.6,148.9,59.4z M149.9,59.4
			c0.9,1,0.9,0.1,0.9,2c-0.1-0.1-0.7-0.6-0.8-0.7C149.9,60.5,149.9,59.7,149.9,59.4L149.9,59.4z M150.4,59.3
			c-0.2-0.6,0.3-0.8,0.5-0.5C151.2,59.1,150.9,59.6,150.4,59.3z M149.6,58.8C149.6,58.8,149.6,58.7,149.6,58.8
			C149.6,58.7,149.5,58.7,149.6,58.8l-0.4-0.5c-0.4-0.3-1.2-0.7-0.6-1.5C149.5,56.6,149.5,57.9,149.6,58.8
			C149.6,58.8,149.6,58.8,149.6,58.8C149.6,58.8,149.6,58.8,149.6,58.8z M150.8,57.9c-0.7-0.1-0.8-2-2.3-2c-0.4,0-0.5,0.1-0.6,0.5
			c-0.3,0.9,0.6,1.8,0.6,2.6c-1.5-0.2-0.6-2.2-1.6-2.2c-0.7,0-1.9,1.3-2.2,1.6c0.5-0.1,1.2-0.7,1.7-0.6c0.2,0.3,0.2,0.7,0.4,1.1
			c0.2,0.5,0.5,0.5,0.7,0.8c-0.4,1.1-0.3,0.9-0.3,2.1c-0.9,0.7-0.7,0.3-1.5,0.6c0.6,0.4,1.1,0.3,1.7,0.5c0.7,0.3,0.5,1,0.8,1.5
			c0.3-0.3,0.4-0.6,0.3-1.1c0.3-0.2,1.1-0.7,1.1-1.2c-2.2-0.1-1.7-1-1.5-1.9c0.3,0.2,0.4,0.3,0.8,0.5c0.4,0.2,0.6,0.1,0.7,0.6
			c0.1,0.4,0.1,1.6,1.3,1.4c0.2-0.3,0.3-0.4,0.3-0.9c0.3,0.2,0.4,0.4,0.9,0.4c0.6-0.8-0.3-1.8-0.7-2.2c0.2-0.6,0.5-0.6,0.4-1.5
			c0.6,0.1,1.2,0.3,1.2,0.9c0,0.6-0.4,1.1-0.5,1.5c0.7,0.2,0.9,0,1.5-0.2c0.3-0.1,0.3,0.1,0.5,0.2c0.2,0.1,0.5,0.2,0.7,0.1
			c-0.2-0.4-0.8-0.8-0.7-1.5c0.1-0.6,0.5-0.9,0.6-1.7c-0.5,0.3-0.7,0.8-1.5,0.9c-0.3-0.5-1-0.9-1.8-1c0-0.5,0.2-0.8,0-1.3
			c-0.2-0.5-0.5-0.6-0.6-1c0.3-0.5,1.1-0.6,1.4-1c-0.8,0-2.6,0.4-2.7,1C149.7,56.2,151.4,56.6,150.8,57.9
			C150.8,57.9,150.8,57.9,150.8,57.9z M143.1,71.7c-0.1-0.6,0.5-0.5,0.6-0.3C143.9,71.7,143.5,71.9,143.1,71.7z M141,71.1
			c0.5-0.3,0.8,0.3,0.4,0.6C141,71.9,140.5,71.3,141,71.1z M143.5,70.2c0.4-0.2,0.6,0,0.6,0.4C143.7,70.8,143.4,70.7,143.5,70.2z
			 M141.3,70.5c0.4,0,1-0.3,1.3-0.1c0.3,0.1,0.7,0.5,0.9,0.7c-0.4,0-1,0.3-1.3,0.1C142,71,141.8,70.6,141.3,70.5
			C141.3,70.5,141.3,70.5,141.3,70.5z M138.5,69.9c0.4-0.3,0.7-0.4,1.2-0.1c0.3,0.2,0.7,0.4,1,0.6C140,70.5,138.5,71,138.5,69.9z
			 M141.9,70c-0.8,0.3-1-0.6-0.2-0.6l0.3,0.2L141.9,70z M140.8,69c-0.6,0.1-1.3-0.1-2,0c-1.2,0.2-1.8,1.4-0.3,2
			c0.4,0.2,1.3,0.2,1.6,0.6c-0.7,0.9-1.9-0.4-2.5-0.3c-0.8,0.2-0.4,2.2-0.3,3c0.2-0.4,0.2-1.3,0.5-1.7c0.4-0.1,0.7,0.2,1.1,0.3
			c0.6,0.2,0.7,0,1.2-0.1c0.5,1.2,1.4,1.4,1.4,1.6c0.1,0.7-0.3,1-0.5,1.6c0.7-0.2,0.9-0.6,1.3-1c0.6-0.4,1.2,0,1.8,0.2
			c-0.1-0.6-0.3-0.7-0.7-1c0-0.6,0.1-1.2-0.2-1.6c-0.5,0.3-1.5,1.9-2.4,0c0.2-0.1,0.4-0.1,1.1-0.5c0.5-0.3,0.8,0.1,1.2,0.2
			c1.1,0.4,1.8-0.8,0.7-1.2c0.5-0.1,0.7-0.2,0.9-0.4c0-1-1.2-1-2.2-0.9c-0.2-1-0.6-1-0.9-1.3c0.3-0.2,0.9-0.8,1.4-0.4
			c0.5,0.3,0.5,0.8,0.8,1.3c0.5-0.2,0.6-0.8,0.8-1.4c0.2-0.2,0.8-0.1,1-0.7c-0.7,0-1.4,0.1-1.7-0.4c-0.3-0.5-0.4-1.2-0.9-1.4
			c0,0.5,0.2,1.3-0.2,1.6l-0.1,0c-0.7,0.2-1,0.1-1.8,0.9c-0.2-0.2-0.5-0.6-0.8-0.7c-0.4-0.2-0.9-0.1-1.3-0.2
			c-0.2-0.6,0.2-1.2,0.1-1.8c-0.3,0.5-1.2,1.8-1,2.6C138.3,68.8,140.4,67.7,140.8,69L140.8,69z M169.7,83.8
			c-0.6,0.2-0.9-0.7-0.1-0.7C169.8,83.4,170,83.6,169.7,83.8z M170.6,83.2c0.4,0.1,0.9,0.2,1.3,0.4c0.6,0.2,0.8,0.7,0.6,1
			c-0.4,0.4-1-0.1-1.1-0.4L170.6,83.2C170.6,83.2,170.6,83.2,170.6,83.2z M170.9,82.4c-0.4,0.2-0.9,0.1-0.7-0.4
			C170.4,81.7,171.1,81.7,170.9,82.4z M167.7,81.7c0.3-0.1,0.6,0.3,0.3,0.5c-0.2,0.1-0.4,0-0.4-0.1
			C167.5,81.9,167.5,81.8,167.7,81.7C167.7,81.7,167.7,81.7,167.7,81.7z M170,82.8c-1-0.2-1.1,0.1-1.7-1.3c1.6,0.4,1,0.2,1.4,0.9
			C169.8,82.6,169.9,82.7,170,82.8L170,82.8z M168.3,80.8c0.2-0.2,0.7,0,0.6,0.3c-0.1,0.3-0.5,0.2-0.6,0L168.3,80.8
			C168.3,80.8,168.3,80.8,168.3,80.8z M169.1,80.2c0.6-0.1,2.1-1.2,2.2,1l-0.7-0.1c-0.5-0.1-0.7,0.3-1.1-0.1
			c-0.3-0.2-0.4-0.6-0.7-0.7c-0.8-0.5-1.6,0.1-0.9,1c-0.4-0.1-0.7-0.1-1,0.1c-0.2,1.1,1.3,1.4,1.6,1.7c-0.1,1.2,0.1,0.9,0.3,1.5
			c-1.6,0.4-1.7-0.3-1.6-1.7c-0.6,0.1-1.1,0.6-1.3,0.9c-0.5-0.1-0.8-0.1-1.2,0.2c0.2,0.1,0.5,0.2,0.7,0.3c0.3,0.1,0.4,0.3,0.6,0.5
			c0.3,0.6,0,1.4,0.3,1.9c0.8-2.1,0.6-1.2,1.8-1.3l1.1-0.2c0.3,1.6,1.2,1.2,1.5,1.7c0.1,0.4-0.6,1.2-0.8,1.6
			c0.5-0.3,2.2-1.5,1.9-2.3c-0.5-0.8-1.7-0.2-2-1.7c0.4,0,1.1,0.5,1.5,0.7c1.3,0.6,2.7-0.3,1.3-1.7c-0.3-0.3-1-0.7-1.1-1.1
			c0.8-0.1,0.9,0,1.3,0.5c0.3,0.3,0.6,1,1.1,0.8c0.6-0.2,1.1-1.8,1.3-2.6c-0.6,0.5-0.9,1.5-1.4,1.3c-0.4-0.2-0.5-1-1.8-1.1
			c0-0.4-0.1-0.7-0.2-1.1c0-0.2-0.1-0.3-0.2-0.4c-0.2-0.4-0.6-0.5,0-1.2c0.1-0.1,0.2-0.2,0.3-0.3c0,0,0.2-0.1,0.2-0.1
			c0,0,0.1-0.1,0.1-0.1c0.1-0.1,0,0,0.1-0.1c-1.5,0-1.8,1-2.9-0.4c-0.6-0.8,0,1,0,1C169.5,79,169,79.3,169.1,80.2L169.1,80.2
			L169.1,80.2z M170.1,71.1c-0.3-0.7,0.6-0.7,0.5-0.1C170.4,71.1,170.5,71.1,170.1,71.1z M173,70.3c0.2,0.7-0.5,0.7-0.7,0.4
			C172.1,70.3,172.5,70.1,173,70.3z M170.5,69.8c-0.4,0.3-0.7,0.1-0.5-0.3C170,69.4,170.6,69.2,170.5,69.8z M170.4,70.2
			c1-1,1-0.6,2.2-0.5c-0.4,0.1-0.7,0.6-0.9,0.6C171.4,70.4,170.7,70.2,170.4,70.2L170.4,70.2L170.4,70.2z M173,69.6
			c0.7-0.3,1.6-1.3,2.1-0.8c0.4,0.3-0.1,0.8-0.5,0.9C174.3,69.7,173.5,69.6,173,69.6L173,69.6z M172.6,69.1
			c-0.4,0.2-0.9,0.1-0.6-0.4C172.2,68.4,172.8,68.3,172.6,69.1z M174.8,66.4c-0.7,0.4-1.3-0.2-2.1,0.7c-1-0.4-0.4-0.5-2-0.7
			c-0.4-0.5-0.3-1-0.3-1.6c-0.9,0.4,0,2-2.5,1.9c0.1,0.3,0.4,0.4,0.7,0.5c0,0,0.1,0,0.2,0l0.2,0c0.2,0.1,0.3,1.1,0.9,1.3
			c0.3-0.4,0.3-1,0.7-1.3c0.5-0.4,1.2,0,1.4,0.4c-0.4,0.2-0.5,0.4-0.8,0.8c-0.4,0.6-0.5,0.3-1.3,0.4c-0.5,0-1.4,0.7-0.7,1.2
			c0.3,0.2,0.4,0.1,0.6,0.3c-0.5,0.3-0.9,1,0,1.1c0.7,0.1,1.3-0.3,1.8-0.5c0.3,0.3,0.7,0.6,1.3,0.7c-0.6,2.1-2.2,0.3-2.4,0.2
			c-0.4,0.4-0.2,1.1-0.2,1.6c-0.3,0.3-0.6,0.5-0.6,1c0.5-0.2,1.1-0.7,1.8-0.3c0.3,0.1,0.4,0.3,0.7,0.5c0.3,0.2,0.4,0.2,0.7,0.4
			c-0.1-0.5-0.6-0.6-0.5-1.6c0.4-0.3,0.5-0.3,0.8-0.7c0.3-0.4,0.5-0.8,0.6-0.9c1.3,0.8,1.6-0.1,2.4,0c0.1,0.1,0.6,1.6,0.6,1.7
			c0.1-0.7,0.2-2.8-0.4-2.9c-0.7-0.2-1.9,1.3-2.6,0.3c0.6-0.6,2.2-0.4,2.5-1.8c0.3-1.5-2.4-0.6-3-0.7c0.4-1.5,2.4-0.1,2.6-1.1
			c0.1-0.7-0.8-2.2-1.1-2.5C174.6,65.2,174.9,65.9,174.8,66.4L174.8,66.4L174.8,66.4z M145.9,84.6c0.3,0.4-0.1,0.8-0.4,0.7
			C145.2,85.1,145.2,84.4,145.9,84.6z M142.9,86.2c-0.1-0.6,0.2-0.9,0.6-1c0.2-0.1,0.4-0.1,0.6-0.2c0.2-0.1,0.3-0.2,0.5-0.3
			c-0.1,0.2-0.2,0.3-0.3,0.6C144.1,85.5,143.7,86.6,142.9,86.2L142.9,86.2L142.9,86.2z M144.2,83.8c-0.1-0.6,0.3-0.7,0.7-0.5l0,0.4
			C144.7,83.9,144.6,84,144.2,83.8z M147.4,83.4c-0.3,0.2-0.7,0.1-0.5-0.2C147,82.9,147.5,82.7,147.4,83.4z M145.1,84.2
			c0.5-0.8,0-1.1,1.7-1.3c-0.1,0.2-0.4,0.9-0.5,1C146.2,83.9,145.3,84.1,145.1,84.2z M146.7,82.4c-0.4,0.2-0.8,0-0.5-0.3
			C146.3,81.9,146.9,81.9,146.7,82.4z M142.3,79.7c0.3,0.3,1.3,0.7,1.2,1.2c0,0.1-0.3,0.5-0.4,0.9c-0.1,0.4-0.1,0.7-0.1,1.1
			c-0.7,0.1-1.1,0-1.6,0.7c-0.8,1-1-0.3-1.7-0.7c0.2,0.7,1,2.2,1.5,2.4c0.9,0.2,0.8-1.8,2.4-1.5c-0.2,0.7-1.8,1.5-1.3,2.9
			c0.2,0.6,1.2,0.3,1.6,0.1c0.4-0.3,0.9-0.8,1.4-0.9c-0.2,1.7-1.9,1.1-1.8,2.1c0.1,0.4,0.6,0.8,0.9,1c0.3,0.2,1,0.7,1.3,0.7
			c-0.2-0.5-0.9-1-1-1.4c0.4-0.6,1.2-0.4,1.5-1.6c0.6,0,1.1,0.1,1.7-0.1c0.7-0.2,0.6-0.4,1.4,1.2c0.4-0.6-0.2-1.5,0.3-2.2
			c0.2-0.3,0.7-0.5,1.1-0.7c-0.4-0.3-0.8-0.2-1.2-0.1c-0.3-0.3-0.8-0.7-1.4-0.8c0.1,1.7,0.2,2.1-1.5,1.9c0.6-1.2,0-1.4,0.8-1.8
			c0.6-0.3,1.2-0.5,1-1.5c-0.3-0.3-0.5-0.3-1-0.1c0.1-0.4,0.2-0.5,0.1-1c-1-0.3-1.7,0.6-2,1.2c-0.7-0.1-0.8-0.3-1.6,0
			c-0.1-1.6,0.5-1.6,2.1-1.2c0-0.7-0.2-0.9-0.5-1.3c-0.3-0.5,0.3-0.3,0-1.4c-0.3,0.3-0.6,0.9-1.1,1.1
			C143.6,80,142.9,79.5,142.3,79.7L142.3,79.7L142.3,79.7z M131.9,50.5c0.1,0.6,0.1,0.2,0.7,0.8c0.5,0.5,0.1,0.4,0.9,0.6
			c0.3-0.3,0.2-0.3,0.6-0.2c0.8,0.1,1.2,0.2,1.1-1.1c0-0.3-0.1-0.2,0.1-0.4l0.1,0c0.7,0.2,1.2,0.6,1.3-0.5c0.1-0.5-0.2-0.5,0-0.7
			c0.2-0.1,0.1,0.1,0.4,0.2c0.2,0.1,0.4,0.1,0.6,0.1c0.2-0.2,0.3-0.7,0.2-1c0.4-0.1,0.4,0.3,0.9,0.2c0.2-0.2,0.2-0.6,0.4-0.7
			c0.4-0.1,0.4,0.2,0.9,0.2c0.5-0.4,0-0.6,0.8-0.8c0.8,0.6,0.9,0.7,1.3-0.4l0.6-0.1c0.3,0.2,0.4,0.5,1,0.4c0.1-0.1,0.2-0.4,0.3-0.6
			c0.3,0.1,0.6,1,1.2,0.3c0.2-0.2,0.1-0.3,0.3-0.3c0.7,1.1,0.3,0.8,1.3,0.3c-0.2,1.3,0.7,0.9,1,0.9c0,0.5-0.8,0.7,0,1.2
			c0.2,0.1,0.3,0.1,0.3,0.4c-0.3,0.1-0.4-0.1-0.8,0.1c-0.2,0.2-0.1,0.5-0.1,0.8c-0.7,0.2-0.5-0.1-0.9-0.3c-0.4,0-0.4,0.3-0.7,0.5
			c-0.4-0.1-0.4,0-0.4-0.4c0-0.4-0.1-0.5-0.5-0.5c0.1-0.5,0.7-0.6,1.1-0.9c-2.1-0.1-3,1.2-1.6,2.2c1,0.8,2.7,0.9,4.1,0.4
			c1.2-0.5,2.1-1.8,1.2-3.2c-0.6-1-1.6-1.7-3-2.1c-4.5-1.3-9.2,0.3-12.7,3l-1.4,1.2C132.3,50.1,132.2,50.3,131.9,50.5
			C131.9,50.5,131.9,50.5,131.9,50.5z M167.2,51.3c3.7,0,4.1-3,1.1-2.9l-0.2,0c0.4,0.3,1,0.5,1.1,0.9c-0.3,0-0.4,0.1-0.5,0.4
			c0,0.5,0.1,0.4-0.4,0.5c-0.3-0.2-0.3-0.4-0.7-0.5c-0.4,0.2-0.2,0.5-0.9,0.3c0-0.4,0-0.6-0.1-0.8c-0.3-0.2-0.5,0-0.8-0.1
			c-0.1-0.5,0.5-0.3,0.6-0.7c0.1-0.3-0.3-0.6-0.3-0.9c0.4,0,1.2,0.5,1-0.9c1,0.4,0.6,0.8,1.3-0.3c0.3,0.1,0.4,0.6,0.7,0.6
			c0.5-0.1,0.5-0.5,0.8-0.6c0.1,0.2,0.2,0.5,0.3,0.6c0.5,0,0.7-0.3,1-0.4l0.6,0.1c0.5,1.1,0.6,0.9,1.3,0.4c0.8,0.2,0.4,0.2,0.7,0.7
			c0.3,0.4,0.6-0.2,1-0.1c0.2,0.2,0.3,0.5,0.4,0.7c0.5,0.1,0.5-0.2,0.9-0.2c-0.1,0.3,0,0.8,0.2,1c0.2,0,0.4,0,0.6-0.1
			c0.4-0.1,0.2-0.3,0.4-0.2c0.2,0.2,0,0.2,0,0.6c0.1,0.7,0.2,0.8,0.9,0.7l0.4-0.1c0.3-0.1,0.2,0.3,0.2,0.3c-0.1,1.3,0.1,1.3,1.1,1.2
			c0.4-0.1,0.3,0,0.6,0.2c0.8-0.3,0.4,0,0.9-0.6c0.3-0.4,0.7-0.3,0.7-0.9c-0.4-0.3-0.7-0.7-1-1c-1-0.9-2.4-2-3.7-2.6
			c-2.2-1-4.1-1.7-6.9-1.7c-4.9,0-7.6,2.9-6.2,5C165,50.9,166.1,51.3,167.2,51.3L167.2,51.3L167.2,51.3z M136.6,73.4
			c0-3,0.8-5.8,1.8-8.2c1-2.3,2.4-4.2,4.1-5.9c0.2-0.2,0.4-0.5,0.6-0.7c0.2-0.2,0.4-0.4,0.7-0.6c0.5-0.4,0.9-0.7,1.4-1.1
			c0.9-0.6,2.1-1.3,3.2-1.8c3.1-1.4,5.5-1.9,9-1.9c7.9,0,15.2,5.4,18,11.8c1.4,3.2,1.9,5.4,1.9,9.1c0,5.3-2.5,10.3-6.1,13.9
			c-0.9,0.9-1.6,1.5-2.7,2.3c-3.2,2.2-7.1,3.6-11.3,3.6c-3.5,0-6-0.6-8.9-1.9c-2-0.9-4.3-2.5-5.9-4.1
			C138.8,84.1,136.6,79.2,136.6,73.4L136.6,73.4L136.6,73.4z M135.7,73.1c0,3.2,0.4,5.8,1.6,8.7c0.6,1.5,1.6,3.3,2.5,4.5
			c0.2,0.3,0.9,1.1,1,1.4l-1.8,1.1c-0.6,0.3-1.2,0.7-1.9,1c-0.9,0.5-3.3,1.5-3.6,2.1c0.3,0.5,1.3,0.6,2,0.6c1.4,0,2.8-0.7,3.8-1.2
			c0.6-0.3,1.1-0.6,1.6-0.9c0.4-0.2,1.3-0.8,1.6-0.9l1.3,1.1c3.3,2.6,8.2,4.5,12.5,4.5c3.6,0,5.9-0.4,9.1-1.8
			c1.5-0.6,3.3-1.7,4.5-2.7c0.4-0.3,1-0.8,1.3-1.1c0.8,0.2,6.7,4.7,9.2,2.4c-0.5-0.9-6.5-3.3-7.3-4.3c2.9-3.3,5.2-8.1,5.2-14.1
			c0-5.2-1.9-9.7-5-13.5c-0.6-0.8-0.6-0.7-1.3-1.4c-0.2-0.2-0.4-0.5-0.6-0.7l-0.7-0.6c-2-1.5-2.3-1.9-4.9-3.1
			c-5.2-2.5-12.2-2.5-17.5-0.1c-1.2,0.6-2.4,1.2-3.4,1.9c-3.1,2.2-5.8,5.1-7.3,8.6C136.6,67,135.7,70,135.7,73.1L135.7,73.1
			L135.7,73.1z M156,21.1c3.7-0.2,8.3,0.3,11.8,1.1c6.8,1.5,12.7,4,18.2,7.7c3.1,2.1,7.1,5.4,9.5,8.3c1.5,1.7,2.2,2.5,3.6,4.5
			c1.7,2.3,3.5,5.3,4.8,8.1c6.3,13.6,6.6,28.6,0.7,42.6c-1.3,3.1-2.9,5.9-4.6,8.4c-0.9,1.3-1.8,2.6-2.8,3.7
			c-1.4,1.6-4.2,4.8-5.9,6.2c-0.2,0.1-0.2,0.2-0.4,0.4c-1.1,1-2.4,2-3.6,2.9c-8.4,6.1-18.2,9.3-29.1,9.7c-7.8,0.3-15.4-1.6-21.6-4.2
			c-3.1-1.3-5.9-2.9-8.4-4.6c-3.2-2.1-7.1-5.4-9.5-8.3l-0.8-0.9c-1-1.1-2-2.4-2.9-3.6c-6.2-8.4-9.3-18.2-9.7-29.1
			c-0.1-3.8,0.3-8.3,1.1-11.8c0.8-3.7,1.8-6.6,3.1-9.8c0.6-1.6,1.4-3,2.1-4.4c1.9-3.7,5.5-8.4,8.2-11.2c0.5-0.5,2.4-2.3,2.9-2.8
			c0.2-0.1,0.2-0.2,0.4-0.4c3-2.7,8-5.9,11.8-7.7c3-1.4,6.1-2.5,9.6-3.4C148.7,21.5,151.6,21.3,156,21.1L156,21.1L156,21.1z
			 M104.4,72.4c0,4.6,0.4,8.2,1.4,12.6c0.8,3.3,2,7,3.3,9.7c2.1,4.3,4.4,8.3,7.6,11.9l1.5,1.7c0.3,0.3,0.5,0.6,0.8,0.9l4.2,4
			c3.4,3,7.9,5.6,12,7.6c6.1,2.9,14.4,4.8,21.3,4.8c4.6,0,8.2-0.4,12.6-1.4c5.3-1.2,9.5-3,14-5.5c1.4-0.8,2.7-1.7,4-2.5
			c1.6-1.1,3.1-2.4,4.6-3.6l1.7-1.5c0.3-0.3,0.5-0.6,0.8-0.9c0.3-0.3,0.5-0.5,0.8-0.8c0.3-0.3,0.5-0.6,0.8-0.9c1-1,3.6-4.3,4.3-5.4
			c3.8-5.6,6.5-11.2,8.1-18c1.9-8.2,1.9-16.1,0-24.3c-1.8-7.7-5.7-15.7-10.9-21.7c-1.3-1.5-1.7-2-3.2-3.4c-0.3-0.3-0.5-0.5-0.8-0.8
			c-0.3-0.3-0.6-0.5-0.9-0.8l-3.5-3c-1.6-1.3-4.1-2.9-5.8-3.9c-4.5-2.5-8.7-4.3-14-5.6c-8.2-1.9-16.1-1.9-24.3,0
			c-3.3,0.8-7,2-9.7,3.3c-5.9,2.9-8.1,4.4-12.8,8.3c-1,0.8-2.4,2.3-3.4,3.2l-1.1,1.3c-0.1,0.2-0.2,0.3-0.4,0.4
			c-3.7,4.2-5.8,7.7-8.3,12.9c-1.3,2.8-2.6,6.4-3.3,9.7C105,64.4,104.4,68.4,104.4,72.4L104.4,72.4L104.4,72.4z M117.2,74
			c0.4,14,7.8,25.5,17.8,32.1c6.6,4.4,14.8,7,23.2,6.7c8.5-0.3,15.9-3,22.4-7.6c0.5-0.4,1-0.7,1.4-1.1c1.2-0.9,3-2.5,3.9-3.5
			c3.3-3.6,6-7.3,8-12c4.5-10.8,4.2-22.3-0.7-32.9c-1.1-2.4-4-7-6-9l-1.2-1.3c-3.4-3.7-8.4-7.1-13.2-9.2c-4.6-2-10.8-3.4-16.8-3.2
			c-12.6,0.5-21.6,6-27.7,12.2c-0.4,0.4-0.8,0.9-1.2,1.3c-0.4,0.5-0.7,0.9-1.1,1.3c-2.3,2.8-4.1,5.9-5.6,9.3
			C118.3,62,117.1,68,117.2,74L117.2,74L117.2,74z"/>
	</g>
</g>
</svg>
