<?xml version="1.0" encoding="utf-8"?>
<!-- Generator: Adobe Illustrator 26.0.1, SVG Export Plug-In . SVG Version: 6.00 Build 0)  -->
<svg version="1.1" id="Слой_1" xmlns:xodm="http://www.corel.com/coreldraw/odm/2003"
	 xmlns="http://www.w3.org/2000/svg" xmlns:xlink="http://www.w3.org/1999/xlink" x="0px" y="0px" viewBox="0 0 238.1 150.2"
	 style="enable-background:new 0 0 238.1 150.2;" xml:space="preserve">
<style type="text/css">
	.st0{fill-rule:evenodd;clip-rule:evenodd;}
</style>
<g id="Слой_x0020_1">
	<g>
		<path class="st0" d="M133,98.1l-2.2,0.1l2.6-3.6c0.5,0.5,0.9,1,0.5,1.8C134,96.5,133.1,98,133,98.1z M151.7,33.7
			c1.2-0.3,1.6-1.2,3-1c1,0.4,2.4,0.8,3.7,0.1c0.7-0.4,2.1-1.5,2.5-2.3c-1.8-1.6-4.7-1.1-6.1,1.2c-0.1,0-0.1,0-0.2,0.1l-1.3,0.6
			c-0.4-0.3-0.1,0.1-0.2-0.5l0.2-0.1c1.8-1.5,1.6-4.6,1.1-6.6c-1,0.1-1.4,0.5-1.9,1.1c-2.4,2.9-1.7,2.7-1.9,7.3L150,34
			c-1.5,0.5-2.4,1.2-3.5,1.8c-0.3-0.2-0.1,0.1-0.1-0.5c0.7-0.5,1-2,1-3.3c0-1.4-0.4-2.7-0.9-3.7c-1.3,0.4-2.3,2.3-2.8,3.5
			c-0.8,2.2,0.3,4.1,0.1,5.8c0,0-2.9,2.5-3.5,2.7c0-0.6,0.7-2.1,0.3-4.2c-0.1-0.7-1.1-2.9-1.6-3.2c-0.5,0.2-1.7,2.5-1.8,3.1
			c-0.7,2.1,0,2.6-0.1,4.6c-2.2,0.1-3.2,0.3-3.9-0.7c-0.9-0.7,0-0.2-1-0.4c-0.6,1-0.5,0.4-1.3,0.8c-0.2,2.5-1,5.1-0.8,7.6
			c0,0.3,0,0.4-0.1,0.7c-0.1,0.4-0.1,0.3-0.3,0.5c-0.6-0.3-1-0.9-1.3-1.4c-0.4-0.3-0.9-0.8-1.3-1.2c-0.3,0.3,0-0.3-0.4,0.5
			c-0.2,0.4-0.1,0.1-0.2,0.6c-0.9,2.6-0.3,4.7,1.1,6.9c0.6,1,1,1.1,1.6,1.9l-1.5,4.4c-1-0.4-0.5-3.8-4.8-5.9c-1,1.4-0.7,4.1,0.1,5.7
			c0.7,1.4,1.9,2.8,3.4,3.8l-0.8,4.5c-1.2-0.2,0-0.9-2.3-2.9c-0.8-0.7-2.2-1.7-3.5-1.7c0,2.4,0.1,4.2,1.3,5.5
			c1.4,1.6,2.1,2.1,3.8,3.1c0.2,1.3,0.1,3.1-0.2,4.3c-1.1-0.4-1.6-3.2-6.3-3.5c-0.2,6.4,6.2,7.3,6.6,8.1l0.4,4.1
			c-1.2-0.6-1.6-2.1-3.8-2.2c-0.9,0.2-2-0.2-3-0.2c0.2,0.8,0.4,1.3,0.5,1.9c-0.1,1.1,1.7,2.7,2.5,3.1c3.2,2,4.2,0.4,4.9,2.3l0.8,3.4
			c-1-0.5-1.3-1.4-2.8-1.6c-1.2-0.2-5-0.8-4.3,1.1c0.1,0.2,0.4,0.8,0.5,0.9c0.4,0.6,0.7,1.1,1.3,1.6c1.4,1.2,1.8,1.4,4,1.7
			c-1.8,0.2-3.3,0.3-5.4,0.2c-1,0-1.9,0-2.9,0c-1.3,0-2.1-0.2-1.5,1.4c0.1,0,0.1,0,0.2,0.1c0.1,0.2,82.6,0.1,89.1,0.1
			c4.1,0,8.9,0.2,12.9,0l0-1.5c-1.8-0.1-6.7,0.2-8-0.2c1.7-0.7,2,0,3.8-1.8c0.8-0.7,2.1-2.3,2.1-3.4c-1.6-0.4-4.3-0.6-5.8,0.2
			c-0.6,0.4-0.8,0.7-1.4,1.1c-0.2-0.5,0.3-1.8,0.6-2.9c0.1-0.5,0-0.9,1.1-1.2c1.1-0.3,3-0.3,4.6-1.9c1.1-1.1,2.6-3.2,2.6-4.5
			c-1.8-0.8-3.8,0.1-5.3,0.8l-1.1,1.3c-0.6,0.5,0.1,0.1-0.8,0.4c-0.1-1.8,0.3-2.7,0.4-4.4l1.5-0.6c2.6-0.1,5.4-4.3,5.2-7.3
			c-1.1-0.1-3,0.6-3.8,1.1c-1.9,1.1-1.9,2.1-2.6,2.5c-0.3-0.5-0.2-1.3-0.2-1.9c0-0.8,0-1.5,0-2.3l2-1.5c2.4-1.7,3.4-4,3.1-7.5
			c-1.6,0-4.9,2.4-5,3.8c-0.2,0.7-0.1,0.8-0.7,1.3c-0.3-0.4-0.4,0.6-0.3-0.8c0.2-1.3-0.6-2.7-0.6-3.9c2.9-3,4.9-3.9,3.8-9.8
			c-1,0.5-2.4,1.7-3,2.4c-1.6,1.7-1,1.9-1.7,3.9c-0.6-0.2-0.3-0.6-0.9-2.3c-0.3-0.9-0.7-1.6-0.9-2.3c2.5-3.4,4.1-5.1,2.2-9.7
			c-0.8,0.3-1.1,0.7-1.6,1.3c-0.5,0.5-0.8,1.2-1.2,1.6c-0.4,1.6-0.6,1.8-0.6,3.8c-1.2-0.5-1.2-2.5-1.2-3.6c0.1-1.1-0.1-1.9-0.1-2.8
			c0-0.6,1.6-4.7-0.4-7.3c-0.4-0.5-0.2-0.3-0.4-0.4c-1,0.8-0.7,1.6-4.6,1.3c0.1-3,0.7-4.2-1.3-6.8c-0.5-0.7,0-0.3-0.7-0.6
			c-0.7,0.7-1.3,2-1.4,3c-0.3,1.9,0.1,2.9,0.3,4.4c-0.9-0.3-0.6-0.3-1.1-0.5l-2.7-2.2c-0.2-0.3,0.2-1.4,0.3-2.1c0.1-0.9,0.2-2,0-3.1
			c-0.3-2.3-1.2-2.7-2.3-4.1c-0.9,0.2,0-0.2-1,0.5c0,1-0.4,1.7-0.4,3.2c0,1.1,0.1,2.6,0.8,2.9c0.1,1.1,0.1,0.4-0.2,0.7
			c-1.4-0.5-2.3-1.5-3.9-2c0.4-1.3,0-4.3-0.5-5.5c-0.6-1.5-1.8-2.6-3.2-3.2c-0.9,1.9-0.5,5.4,1,6.6c0.5,0.2,0.2,0,0.7,0.4
			c0.3,0.3,0.3,0.4,0.4,0.6c0.7,1.6,0.5,0.4,0.7,1.3l-3.4,0.4c-1.3,0.3-0.3,0.8-2.9,0.8c-4.2,0-8.2,0.4-12.1,0.4
			c-2.8,0-5.3-0.3-8-0.4c-2.1,0-1.8,0.2-3.2-0.8C153.8,33.5,153.1,34.1,151.7,33.7L151.7,33.7z M192,39.1l0.8,0
			c0.2,0.2,0.4,0.3,0.6,0.5c0.7,0.6,0.2,0,0.5,0.8l-2-0.2c-0.1-0.1-0.2-0.3-0.3-0.5C192,39.1,191.7,39.5,192,39.1L192,39.1z
			 M185.6,35c0.9-0.5,0.6-0.5,2.3,0.5l2,1.1c0.5,0.7,0.2,0.1,0.5,0.8c-1.8-0.2-1.5-0.6-3.3,0.2c-1.1,0.5-2.1,0-2.8-0.6
			C184.4,36,185.5,35.9,185.6,35z M146.2,37.4l-0.3-0.1c0.5-0.5,3-2.5,4.2-2.5l1.2,1.6c0,0,0.1,0.1,0.1,0.1
			c-0.2,0.2-0.1,0.2-0.5,0.4c-0.4,0.3-1.2,0.6-1.8,0.6C147.9,37.5,148,37,146.2,37.4L146.2,37.4z M153.4,94.5
			c-0.2,0.8-0.4,0.8-1.4,0.8c-12.7,0.9-13.4-4.2-4.7-5.1c1.9-0.2,2.9-0.5,5.3-0.3c1,0.1,1,0.4,1.1,0.9
			C152.8,91.2,152.4,93.9,153.4,94.5z M155.1,89.5c-2.7,0.2-6.4-0.4-9,0.1c-8.5,1.9-7.1,5.2,0.3,6.3c3.4,0.5,5.3-0.2,8.5-0.1
			l0.1,0.3l0.6,0c0,0,0,0,0,0l0.6,0.1c-0.3-0.1-0.5-0.1-0.6-0.1l0,0c0.5,0.8,2.8,1.1,3.6,1.2c4.6,0.5,8.4-0.7,12.5-2.1
			c2.1-0.7,1.6-0.5,3.8-0.2c1.3,0.2,2.9,0.5,4.1,0.7c1.5,0.2,7.7,0.5,9-0.8c1,0.1,2.7-1.1,2.8-2.2c0.1-1.3-1.8-2.2-2.8-2.2
			c-0.2-0.1-0.1-0.1-0.5-0.2c-0.7-0.2-2.1-0.1-3-0.1c-1.3,0-1.9,0.1-3.1,0.4c-1.6,0.3-3.8,1.1-5.2,1.7c-4,1.7-3.6,1.7-7.9,0.5
			c-1.5-0.4-2.1-0.3-2.4-1.1c1,0,4.3-1.6,5.7-1.8c0.5,2.4-0.1,1.3-1,2.3c0.4,0.2,0.4,0.2,1,0c1.3-0.5,1.2-1.6,0.9-2.6
			c1-0.5,2.3-0.8,3.4-1.1c0.5-0.1,1.1-0.3,1.8-0.5c0.9-0.2,1,0,1.4-0.6c-1-0.6-5.4-1.7-7-2.2c-0.1-1,3.1-7.3,3.5-8.3
			c2.8-5.8,1.5-5.8,1.4-9.6c-0.7-0.3-2.3-0.8-3.2-0.8c-0.7,1-0.5,0.8-1.3,1.5c-3.1,2.9-2.1,14.1-3,16.4c-1.2,0.2-2.5-0.3-3.9-0.3
			c-2.1,0-9.3,0.7-10,2.3c1.1,0.5,2-0.4,3.1-0.8c3.4-1.3,7.2-1.5,10.8-0.4c0.4,0.5,0.4,0.4,0.4,1.2c0.2-0.7,0.2-0.8,0.9-0.9
			c-0.1,0.9-0.2,0.3-0.2,0.9c0,1.1-0.2,0.3,0.3,0.6l0.5-1c0.6,0,4,1,4.3,1.8c-0.3,0.2-2.2,0.7-2.7,0.8c-1.6,0.5-1.3,0.2-2.3-0.3
			c-0.5-0.5-0.3-0.4-0.5-0.9c-0.2,0.3,0.3,0.3-0.7,0.3c-4.4-0.7-6.9-1.4-12.1,0.2C157.1,88.1,155.5,88.7,155.1,89.5L155.1,89.5z
			 M164.1,92.7c1.4-0.2,2.4,0.1,3.6,0.4c1,0.3,1.9,0.6,2.9,0.7c0.8,0.2,0.6,0,0.9,0.7l-0.9,0.2c-2.3,0.6-4.6,1.7-7.1,1.8
			c-1.8,0.1-4.3,0.3-6.1-0.3l-1.6-0.8c0.6-0.3,1.1-0.3,1.7-0.7C158.3,94.9,164,93.1,164.1,92.7z M187.6,94.6
			c-1.2,0.1-1.7,0.4-3.2,0.4c-3.6,0.1-5.9-0.2-9.4-0.9c0.2-0.2,0.1-0.1,0.4-0.3c0.1,0,0.4-0.2,0.4-0.2l5.4-2
			c5.2-1.6,4.2-0.8,7.1-0.6c0.8,0.5,0.9,0.5,1.4,1C189.8,94.1,188.8,94,187.6,94.6z M178.8,71.3l5.7,0c0.4-2.7-0.3-2.1-2.7-2.1
			C179.3,69.2,178.3,68.6,178.8,71.3z M181.2,32.7c0.3-0.4-0.2-0.2,0.2-0.5c-0.5-0.7-0.4-0.3-0.7-1.1c-0.5-0.6-1.7-1.3-2.4-1.4
			c-1-0.2-2.6,0.3-3.2,0.9c0.3,0.7,1.5,1.6,2.3,2.1C179,33.4,180,33.1,181.2,32.7z M184.6,114.3l2.6,0.1c0.3-1.4,0.3-11.5-0.1-12.6
			l-2.5,0L184.6,114.3z M149.5,104l3.7,0.1l0.1,10.2l2.6,0l0.1-10.1c1.1-0.4,2.4-0.1,3.5-0.2l0-2.2l-10,0L149.5,104L149.5,104z
			 M177.2,57.3c-0.5-0.7-0.1-1.1,0-1.8l0.5-3.7c0.1-1.9,0.1-1.3,0.5-1.4c0.7,0.4,0.5,1,0.3,1.8l-1.1,4.4c-0.1,0.3,0,0.2-0.1,0.5
			C177.3,57,177.2,57.3,177.2,57.3z M174.7,65.8c1.1,0.1,1.5,0.4,2.7,0.4l3.5-10.3c0.9-2.9,1.2-2.3-0.6-4.8
			c-0.3-0.5-2.5-3.7-2.9-3.9c-0.3,0.3-1.1,6.1-1.2,6.7C176,57.3,174.6,62.9,174.7,65.8z M163.3,109.2c0.1-0.8,0.8-3.1,1.4-3.5
			c0.5,0.5,0.6,0.9,0.8,1.6c0.3,0.7,0.5,1.1,0.4,1.9L163.3,109.2L163.3,109.2z M158.6,114.3c4.1,0.2,2.3-0.3,3.9-2.8l4.4,0l1.2,2.7
			l2.8,0.1c0-0.6-4.4-11.8-5.1-12.5l-2.5,0C163,102.5,158.7,113.5,158.6,114.3z M192.3,101.9l-2.7-0.1c-0.1,2.9-0.1,6.1,0,8.9
			c0.2,4.7,6.7,4.6,8.5,3c2.1-1.8,1.5-6.9,1.5-9.7c0-2.2,0.2-2.4-2.8-2.1c-0.9,5,1.6,10.3-2.1,10.4
			C191,112.3,192.7,108.1,192.3,101.9L192.3,101.9z M208.9,110.2c0.1,1.8-1.4,2.2-2.4,2.1c-1.9-0.2-1.7-1.1-2.5-2.3l-2.4,0.1
			c-0.6,5.9,10.4,6.4,10.2,0.4c0-1.3-0.7-2.4-1.7-3c-1.1-0.8-4.7-1.1-5.3-1.9c-0.6-0.7-0.1-1.3,0.6-1.4c2.2-0.5,2.7,0.2,3.3,1.6
			l2.5-0.1c1-4-6-5.6-8.7-2.4c-1.4,1.7-0.3,4,1.1,4.9C205.3,109.2,206.7,108.8,208.9,110.2L208.9,110.2z M176.4,79.8l13.1,0l0-6.9
			c-1.8-0.1-9.7-0.2-10.6,0c-0.8,0.2-0.6,1.4-1.3,3.4C177.2,77.4,176.5,78.8,176.4,79.8L176.4,79.8z M141.2,104.3
			c4.8-2.4,6.3,6.3,2.6,7.7C139.2,113.9,137.8,106,141.2,104.3z M140.6,101.9c-1.5,0.6-2.7,1.3-3.4,2.7c-2.4,4.8,0.7,11.6,7.3,9.8
			c5.3-1.5,5.5-9.3,1.4-11.9C144.7,101.7,142.2,101.3,140.6,101.9z M175,104.2c3.7-0.9,5.8,0.9,4.4,2.4c-0.6,0.6-2.5,0.5-3.5,0.4
			c-0.9,0-0.9,0-1-0.8C174.9,105.8,175,104.7,175,104.2z M172.3,114.3l2.6,0l0.1-5c2.3-0.5,4,2.7,5.4,5l3.1,0
			c-0.2-0.7-2-3.4-2.6-4.2c-0.4-0.5-0.7-0.7-1.2-1.1l0.8-0.5c0.5-0.3,0.3-0.1,0.8-0.4c0.5-0.4,0.8-0.9,1-1.4c0.5-1.5,0-2.9-1-3.9
			c-1.4-1.4-6.6-1.2-9-0.9L172.3,114.3L172.3,114.3z M124.5,110.3l0,4.2c3.8,0.4,2.2,0,2.6-7.2c1,0.8,1.8,2.4,2.5,3.5
			c0.7,1.1,1.8,2.7,2.2,3.7l2.4-0.1c0.3-0.1,0.2-0.2,0.2-0.2l0.1-1.3c0-0.5,0-1.1,0-1.6c0-1.5,0.2-8.2-0.2-9.1
			c-0.7-0.3-1.6-0.2-2.3-0.1l-0.1,7.4c-1-0.6-3.7-5.7-5-7.5C123.7,101.6,124.5,100.6,124.5,110.3L124.5,110.3z M154.6,94.8
			c-0.4-0.9-0.7-1-0.6-2.3c0.1-0.8,0.6-1.5,0.8-2.1c1.4-0.1,3.1,0.5,4.4,0.7c0.7,0.1,3.3,0.7,4,1.1c-0.3,0.6-0.2,0.4-0.8,0.7l-3,1
			C157.9,94.2,156.3,94.8,154.6,94.8L154.6,94.8z M170.6,88.7c0.8,0.2,0.5-0.1,0.7,0.7C170.1,89.4,170.6,89.8,170.6,88.7z
			 M155.8,89.9c0.3-0.4,0-0.1,0.3-0.4c2.1-2.2,13.6-3.1,14.4-0.2c-0.4,0.7-0.5,0.7-1.5,1c-2.4,0.8-3.5,1.7-5.3,1.3
			C161.1,90.9,158.7,90.1,155.8,89.9z M172.5,80.5c0.6,1,0,1,0,1C171.8,80.6,172.5,80.6,172.5,80.5z M173.7,77.7
			c-0.1,0.8-0.3,0.9-0.4,1.4c-0.1,0.4-0.1,1-0.1,1.3c-0.7-0.5-0.5,0.1-0.6-0.8c-0.1-0.7,0.7-0.3,0.4-2.4c-0.2-0.4-0.4-0.8-0.2-1.5
			c0.1-0.6,0.4-0.6,0.8-0.9c0.9-0.7,0.3-1.6,1.2-2.3c0,0.8,0,1-0.1,1.7C174.4,76.1,175.4,76.3,173.7,77.7L173.7,77.7z M155.6,96.1
			L155.6,96.1L155.6,96.1z M140.7,79.8c3.8,0.4,10.3,0.1,14.4,0.1c16.7,0,14.1,1.2,14.3-3.5c0-0.5,0.1-1.1,0.1-1.6l0-1.6
			c-1-0.3-26.2-0.3-28.8-0.1L140.7,79.8z M159.7,59.6c0.1,4.4,1.4,5.2-3.7,7.2c-1.8,0.7-1.4,0.6-1.5,1.3c0,0.1,0,0.1,0,0.2
			c0,0.1,0,0.1,0,0.2l-0.1,0.4c-0.2,0.8-7.1,0.2-8.8,0.3l0,2.1l24.6,0c0.7-2.5,0.9-2.9,1.8-4.8c-0.8-1.4-2.2-2.1-1.6-6.9
			c2.3-0.6,2.7-0.6,4-2.1c1.1-1.2,1.3-3.1,0.5-4.8c-1.7-3.5-5.4-2.7-9.9-2.7c-4.4,0-8.1-0.8-9.9,2.7c-0.9,1.7-0.5,3.6,0.5,4.8
			C157.3,59.7,158.3,59.2,159.7,59.6L159.7,59.6z M179.6,118.6c-0.8,1.9-11.4,6.9-12.3,7c-0.8,0-11.7-5.2-12.3-7.1L179.6,118.6z
			 M189.6,119.8c0.3-1.1,1.9-1.4,2.9-1.4c2.1,0,1.6,0,3.3,0.8c2.5,1.2,4.5,0.8,6.5-0.4c1.6-0.9,13-0.2,16-0.4c0.1-1.8,0-1.6-1.9-1.5
			c-1.1,0-2.2,0-3.3,0l-71.3,0c-4.7,0-22.5-0.3-25.8,0l0.1,1.6c3.6,0.3,15.3-0.3,17.1,0.1c1,0.2,1.6,1.1,3.1,1.3
			c3.7,0.5,3.5-1.3,7.4-1.3c1.2,0,2.5,0.4,2.9,1.2c-2.5,0.4-2.9,0.2-4.4,1.6c-0.7,0.6-2.3,2-2.7,3.1c1.4,1.1,4,1.7,6,0.7
			c2.4-1.1,2.8-2.1,4.4-3.2c0.6,0.1,2.6,1,3.2,1.3c-0.3,0.6-1.6,0.7-2.1,1.1c-0.6,0.4-1.2,1-1.6,1.4c-0.6,0.7-2.3,2.9-2.2,3.9
			c6.8,1.4,7.9-2.9,9.9-4.6c1.9,0.8,8.9,5.6,10.8,4.9c2.6-1,5.8-2.7,8.2-4.1c3.5-2,2-1.6,4.4,1c0.5,0.5,1.3,1.4,2,1.9
			c1.7,1.3,3.9,1.6,6.2,0.9c0-0.1,0.4-0.1-0.1-1.2c-1-2.1-2.5-3.7-4.6-4.6l-0.9-0.6c4-2.3,3.1-1.1,5.1,0.5c0.6,0.4,1.7,1.1,2.2,1.4
			c2,1.1,4.5,0.2,6-0.4c-0.1-0.8-0.5-1.2-1.1-1.8C193.3,120.5,192.7,120,189.6,119.8L189.6,119.8z M201.7,91.6
			c0.5,1.2-0.1,0.9,1.3,3.6c0.5,0.9,2,2.3,2.2,2.9l-2,0c-0.7-1.4-1.3-2.6-2.5-3.5C200.7,93.9,201.3,92.2,201.7,91.6L201.7,91.6z
			 M129.2,94.9c0,0-0.1-0.2-0.1-0.1c-0.2,0.5-1.2-3.6-1.2-4.2c2.1-1.1,2.8-2.8,3.7-3.2c0.8,1.8,0.2,1.8-1,3.4
			C129.2,92.6,129.7,93.9,129.2,94.9L129.2,94.9z M203.2,85.1c1,0.2,0-0.3,1.1,1.6c0.9,1.5,2.4,3.1,4,4c-0.1,1-0.8,3.7-1.2,4.1
			c-0.2-0.6-0.3-1.9-0.6-2.7C204.8,88.3,201.5,89.3,203.2,85.1z M127.1,87.1c-0.6-1-0.8-2.8-0.7-4.3l2.7-1.7c0.6-0.4,0.6-0.3,1-0.3
			c0,0,0.1,0,0.2,0l0.2,1.5C127.6,83.6,127.4,86.7,127.1,87.1z M204.2,78.6c0.6,0.2,0.6,0.5,1.1,1.1c0.8,1,1.6,1.6,2.7,2.2
			c0.6,0.3,1,0.4,1.6,0.8c0.3,1-0.1,3.8-0.5,4.5c-0.8-2-0.3-2.6-3.3-4.8c-0.6-0.5-1.2-0.6-1.8-1L204.2,78.6z M126.3,78.7
			c-0.5-0.8-0.2-4-0.1-4.2l3.3-1l0,1.9C126.8,76.9,127.4,77.6,126.3,78.7z M206.1,72.9c1.7,1.1,3,1,4,1.5l0,4.5
			c-0.6-0.4-0.1,0.1-0.5-0.7c-1.5-2.8-2-2.3-4.8-3.8l0.2-2.3C205.6,72.4,205.6,72.6,206.1,72.9L206.1,72.9z M126.6,70.8
			c-0.1-1.8,0.4-3.3,0.8-4.8l1.8,0l0,2.2c-0.6,0.5-0.9,0.6-1.5,1.2C126.6,70.4,127.3,70.4,126.6,70.8z M205.3,67.7
			c-0.5-3,0.1-2,3.5-1.8c0.3,0.9,0.9,3.8,0.8,4.8c-0.5-0.3-0.5-0.9-1.8-1.9C206.7,68,206.7,68.1,205.3,67.7z M195.6,98.1
			c-7.3,0.3-20.4,0-28.4,0.1c-2.9,0-27.8,0.2-28.4-0.1c-0.6-0.4-0.9-1.7-1.2-2.5c-1.9-4.9-4.1-13.8-4.3-18.8
			c-0.1-1.4-0.3-2.1-0.4-3.5c-0.2-4.5-0.3-10.9,0-15.3l0.8-8.6c0.1-0.8,0.2-1,0.3-1.7c0.1-0.6,0-1.1,0.1-1.7c0.1-0.7,0.3-1,0.4-1.7
			c2.5,0.1,5.6,0.7,8.2,0.1c1.2-0.3,2.6-0.4,3.6-0.7l3.1-1.2c2.2-0.8,3.7-2.1,5.8-2.8c1.3-0.5,6.7,0.1,8.5,0.1
			c5.6,0.1,7.8-0.2,12.7-0.3c1.8,0,2.3-0.3,3.8,0.5c4.8,2.8,13.2,5.7,19.1,4.3c0.9-0.2,0.9-0.1,1,0.8c1.8,11.5,1.9,28.7-0.5,39.9
			c-0.5,2.4-1.1,4.5-1.8,6.8C197.6,93.1,196.2,97.3,195.6,98.1z M128.1,62.7c0.1-0.7,0.7-2.6,1-3.1c0.2,0.5,0.3,1.3,0.1,1.9
			C129,62.6,128.3,62.6,128.1,62.7L128.1,62.7z M207,59c-0.2,0.8,0.7,2.1,0.7,3.3l-0.9-0.6c-0.2-0.1-0.2-0.2-0.5-0.3
			c-1.2-0.2-1.3-0.7-1.4-1.8c-0.1-1.2,0-1.6,1.2-1.8C206.9,58.2,206.8,58.1,207,59L207,59z M142.7,40.3c0.2-0.5,0.1-0.7,1.5-1.4
			c0.5,0.2,0.7,0.4,1,0.9C144.4,40.3,143.9,40.3,142.7,40.3L142.7,40.3z"/>
	</g>
</g>
</svg>
