<?xml version="1.0" encoding="utf-8"?>
<!-- Generator: Adobe Illustrator 26.0.1, SVG Export Plug-In . SVG Version: 6.00 Build 0)  -->
<svg version="1.1" id="Слой_1" xmlns:xodm="http://www.corel.com/coreldraw/odm/2003"
	 xmlns="http://www.w3.org/2000/svg" xmlns:xlink="http://www.w3.org/1999/xlink" x="0px" y="0px" viewBox="0 0 238.1 150.2"
	 style="enable-background:new 0 0 238.1 150.2;" xml:space="preserve">
<style type="text/css">
	.st0{fill-rule:evenodd;clip-rule:evenodd;fill:#373535;}
</style>
<g id="Слой_x0020_1">
	<path class="st0" d="M160.6,92.3l11,0c-0.9,3-2.6,5.9-4.2,7.9c-1.1,1.5-4.2,4.8-6.9,5.1C160.6,105.3,160.6,92.3,160.6,92.3z
		 M177.9,49.8c-0.2-0.3,0-0.1-0.3-0.4c-0.3-0.2-0.1-0.1-0.5-0.2L177.9,49.8z M165.9,60.5l0.8,0l-0.5-1
		C166.2,59.4,165.9,60.5,165.9,60.5z M163.5,64.6c-0.5-0.3-0.5-0.3-1.3-0.1v0.6C163.1,65.2,163.3,65.4,163.5,64.6z M146,59.2
		c-0.6-0.3-0.5-0.2-1.3-0.2v0.8C145.7,59.7,145.8,60,146,59.2z M176.7,66.5c-0.1-0.9-0.4-0.8-1.4-0.7l0,0.8L176.7,66.5z M163.6,66.5
		l0-0.7l-1.4,0l0,0.8L163.6,66.5L163.6,66.5z M147.8,66.6c0.9,0.1,0.9,0.2,1.4-0.3c-0.3-0.7-0.5-0.6-1.4-0.5
		C147.8,65.8,147.8,66.6,147.8,66.6z M148.2,61.2c0.9,0,1.3,0.2,1.4-0.6c-0.5-0.4-0.6-0.3-1.4-0.2C148.2,60.4,148.2,61.2,148.2,61.2
		z M146.1,61.1l0-0.7l-1.4-0.1l0,0.9L146.1,61.1z M171.9,66.6l1.2,0l0-2.2l-1,0.1C172.2,64.5,171.9,66.6,171.9,66.6z M154.5,66.6
		c1.9,0.3,1.5-1.7,0.9-2.1C154.3,63.8,153.6,65.4,154.5,66.6z M142.1,66.6c1-1.2,0.3-2.9-0.9-2.1C140.6,64.9,140.2,66.9,142.1,66.6z
		 M170.3,55.8l-7.7,0c-0.4-1.3,1.4-2.6,0.5-4l-2.4-2.8c0.2,1.3,1,2.9-0.1,3.9l0.1-9.7c2.8,0.5,5.4,3.4,6.7,5c1.3,1.6,2.6,3.7,3.5,6
		c0.2-0.3,3.4-3.9,3.6-3.9c-0.8-1.6-2.1-3.1-2.6-4.3c3.6,1.4,11.3,6,14.9,8c1,0.6,1.8,1.3,2.6,1.8c-0.2-1.5-4.2-6-5.1-7
		c-6.3-6.5-16.2-11-26.1-11c-8.8,0-18.4,3.9-24.4,9.5l-4.4,4.8c-0.6,0.7-2.2,2.8-2.4,3.8l17.7-9.9c-0.3,0.3-1.8,2.7-2.6,4.5
		c0.2,0.1,2.9,3.7,3.3,4.2c0.9-2.2,2.7-5.1,3.7-6.4c1.3-1.7,3.9-4.4,6.7-5.1l0.1,9.7c-1.4-0.8-0.5-2.6-0.3-3.8
		c-0.5,0.4-0.8,1-1.3,1.5c-0.3,0.4-1.2,1.2-1.3,1.4c-0.7,1.4,1,2.8,0.7,3.7c-0.2,0.4,0,0.1-0.3,0.3v0c-0.4-0.2-6.8-0.3-7.5-0.1
		l0.2,0.1c-0.1,0-0.1-0.1-0.2-0.1c-3-1.8-4.8-3.8-5-7.5c-7.2,4.2-16.9,7.2-17.4,16.4c0.3-0.1,0.5-0.2,0.6-0.3
		c1.2-0.7,2.3-1.1,3.3-1.2c0.6-0.2,1.3-0.2,2.1-0.2c2.2,0.5,1.1,0,2.8-0.5c2.1-0.6,3.5,1,4.4,2.7c0.6,1.2,0.5,1.4,0.8,2l0.4,0.6
		c1.6,0,3.4,0.4,4.6,1.1c2,0.7,7.1,4.6,8.5,6.1c2.4,2.9,1.9,1.7,2.8,1.6c1.9-0.1,3.4,7,4.1,8.6c1.1-0.5,2.3-10.6,5-8.2
		c2.5-3.2,6.6-5.9,10-7.9l0.5-0.3c0.7-0.2,1.3-0.5,2.1-0.7c0.8-0.2,1.7-0.3,2.5-0.4c0.6,0.1,0.3,0,0.4-0.6l-0.7,0.1l0-3.4
		c0.9,0.1,0.7,0,0.7,1.2c0,0.6,0,1.3,0,1.9c0.3-0.3,0.1,0,0.3-0.5c0.1-0.2,0.2-0.5,0.3-0.7c0.8-1.9,2.6-3.9,4.8-3.1
		c1.7,0.6,0.3,0.7,2.6,0.5c0.6-0.1,1.2-0.1,1.7,0c1.5,0,3,0.2,4.4,0.9c-0.4-3-1.8-6-4.2-8c-0.2-0.2-0.6-0.5-0.7-0.7
		c-0.8-0.5-1.5-1.1-2.5-1.7c-2.8-1.6-4.9-2.4-7.5-3.8l-0.1,0c-0.7-0.4-1.5-0.9-2.3-1.4c-0.3,2.8-2.1,5.7-4.6,7.1L170.3,55.8
		L170.3,55.8z M162.6,55.8l0.7,0.5c0.3,0.2,0.5,0.4,0.8,0.6C163.6,56.6,163.1,56.2,162.6,55.8z M166.3,57.6c0.1,0,0.1,0,0.2,0
		c0.1,0,0.2,0,0.4,0c-0.1,0-0.2,0-0.4,0C166.4,57.6,166.3,57.6,166.3,57.6z M167,57.5c0.1,0,0.2-0.1,0.4-0.1
		C167.3,57.5,167.1,57.5,167,57.5z M150.7,57.5l0.1,0C150.7,57.5,150.7,57.5,150.7,57.5z M150.8,57.5c0.1,0,0.1,0,0.2-0.1
		C150.9,57.5,150.9,57.5,150.8,57.5z M172.2,115.7c1.4-0.1,0.9,0.1,1.5-0.8c0.4-0.6,0.5-0.7,1.5-0.5c1.3,2-0.9,1.2-0.4,2.5
		c0.3,0.4,1.6-0.3,2,0.6c0,1.9-1.6,1.2-2.5,1c-0.5,0.6-0.4,0.2-0.8,0.9c2.9,2.9,7.4-3,2.9-3.4C178.2,112,172.4,112.3,172.2,115.7z
		 M163.5,117.1c0.9-0.1,2.4-0.4,2.3,0.9c-0.1,1-1.4,1-2.3,1L163.5,117.1L163.5,117.1z M162,116.2l0.6,6.5l1.3,0l-0.1-2.5
		c2-0.2,4.1-0.5,3.4-3C166.5,115.3,163.9,116,162,116.2L162,116.2z M190.1,101.1l-0.7,1l5.5,3.6l0.7-1c-0.5-0.5-1.4-1-1.8-1.3
		c-0.7-0.6-0.4-0.1-0.3-0.5c0.8-0.5,2.4,0,3.5,0.1l0.7-1.2c-1.2-0.3-2.8-0.6-3.9-0.2c0,0-0.1-0.2-0.1-0.1l-1-1.6
		c-0.4-1.3,0.8-1-0.6-1.7c-1.5,1.6-0.1,2.3,0.4,3.5C193.2,103.5,190.7,101.3,190.1,101.1L190.1,101.1z M194.4,96.7l2.3,0l-0.6,1.6
		c-0.6-0.3-0.4-0.2-0.9-0.7l-0.6-0.6C194.4,96.9,194.6,97,194.4,96.7L194.4,96.7z M192.4,96.8l5.4,4.7l0.4-1.2l-1.1-1l0.8-2.6l1.7,0
		l0.5-1.3l-7.2,0L192.4,96.8L192.4,96.8z M169.3,116.7c0.5,0.4,1.1,1.4,1.4,2l-1.6,0.4L169.3,116.7L169.3,116.7z M167.3,122.3
		l1.3-0.3c0.6-1.3-0.9-1.7,3-2.2c0.2,0.6,0.4,0.7,0.7,1.3c0.7-0.1,1-0.1,1.4-0.4l-4-5.7c-1.9,0-1.5,0.2-1.8,2.8
		C167.7,119.3,167.5,120.8,167.3,122.3L167.3,122.3z M145.7,116l0.2,2.4l-1.4-0.4c0,0-0.1,0-0.1-0.1c0-0.1-0.1-0.1-0.1-0.1
		C144.2,117.9,145.7,116,145.7,116z M141.2,119.9l1.2,0.3c0.6-0.5,0.4-0.6,1-1.2l2.5,0.6c0.2,1.7-0.3,1.6,1.5,2
		c-0.1-1.5-0.3-2.9-0.4-4.3c-0.1-0.6-0.1-1.7-0.2-2.2c-0.2-0.9-0.4-0.6-1.3-0.9C144.9,114.7,141.6,119,141.2,119.9z M135.7,117.1
		l1.2,0.7l1.2-2.6l2.3,1.1l-1.2,2.6l1.2,0.7l2.9-6l-1.1-0.6l-1.3,2.3l-2.3-1.1l1.1-2.3l-1.1-0.6L135.7,117.1L135.7,117.1z
		 M130.1,113.3c0.4,0.5,0.5,0.6,1.2,0.9l1.5-2.3c0.8,0.3,1.5,0.9,2.2,1.4c-0.4,0.9-1.2,1.6-1.5,2.6l1.2,0.4l3.5-5.2l-1-0.8
		c-0.4,0.3-0.5,0.5-0.8,1c-0.1,0.2-0.2,0.3-0.3,0.5l-0.5,0.6l-1.5-0.9c0,0-0.2-0.1-0.2-0.2c-0.3-0.2-0.1-0.1-0.3-0.3
		c0.5-0.7,1-1.4,1.3-2.3l-1.1-0.5C132.4,109.4,131.4,111.8,130.1,113.3z M125.5,109.4c1.3,0.8,2.5,2.5,3.8,3.1l0.6-0.5
		c-0.5-1.1-1.7-1.6-2.6-2.6c0.3-0.6,0.7-1.1,1.2-1.4c0.4,0.4,0.6,0.7,1,1c0.5,0.4,0.8,0.7,1.3,1l0.7-0.7c-0.4-0.7-1.7-1.7-2.3-2.1
		l1-1.3c1,0.8,1.6,1.6,2.6,2.3l0.7-0.7l-3.6-3.3C129.1,105.2,125.8,108.6,125.5,109.4L125.5,109.4z M181.6,109.6
		c0.3,0.7,3.5,4.5,4.1,5.1c0.5-0.3,3.4-2.7,3.8-3.1l-0.5-0.8c-1.1,0.3-1.9,1.7-3.2,2.2c-0.3-0.5-0.4-0.8-0.9-1.2
		c0.4-0.6,0.1-0.2,0.6-0.7c0.3-0.3,0.4-0.3,0.6-0.5c0.4-0.4,1-0.8,1.2-1.1l-0.6-0.8c-1,0.5-1.8,1.6-2.7,2l-0.8-1.1
		c0.7-0.8,2-1.7,2.7-2.1c-0.3-0.7-0.2-0.3-0.6-0.9C184.8,106.9,182.1,109,181.6,109.6L181.6,109.6z M125.4,101.9
		c2.4-0.8,3.3,2.9,0.4,3.9C123.2,106.7,121.8,103.1,125.4,101.9z M124.6,100.6c-4.9,1.9-2.2,7.7,1.5,6.5
		C131,105.6,128.6,99.1,124.6,100.6z M152.8,118.6c-0.8,0.1-2.5,0-2.6-0.9c-0.1-1.4,1.7-0.7,2.8-0.6L152.8,118.6z M150,119.2
		c-0.5,0.5-0.7,0.5-1.2,1.1c-0.4,0.5-0.8,1-1.2,1.6l1.5,0.2c1.3-1.3,1.9-2.4,3.3-2.3c0.2,0.9-0.2,1.9-0.2,2.8l1.2,0.1l1.1-6.6
		c-1.2-0.1-3.9-0.8-4.9-0.3c-0.5,0.2-0.9,1-0.8,1.8C148.9,118.6,149.4,118.8,150,119.2z M179.7,115c0.8-0.5,1.7-1.1,2.8-0.9
		c0.4,1.2,0,1.8-2,2.4C180.5,116.5,179.7,115,179.7,115z M178.4,112.7c0.5-0.5,2.2-1.7,2.6-0.6c0.3,0.9-1.3,1.6-2,1.8L178.4,112.7
		L178.4,112.7z M176.7,112.3l3.1,5.8c0.6-0.2,3.3-1.7,3.7-2.1c1.2-1.2,0.6-3-1.5-3.1c0.5-1.4-0.3-2.9-2-2.3
		C179.1,110.9,177.5,111.9,176.7,112.3L176.7,112.3z M121.3,97.7c0.5,0.6,1,1.6,0.8,2.7c-1.4,0.7-1.9-0.6-2.3-2
		C119.8,98.3,121.3,97.7,121.3,97.7z M123.7,96.6c0.6,0.7,1.1,2,0.7,2.4c-1.2,0.6-1.6-0.8-1.9-1.9L123.7,96.6z M118.2,97.6
		c0.7,2,1.8,5.2,3.9,4.4c0.9-0.4,0.8-1,1.2-1.7c1.5,0.6,2.8-0.2,2.4-1.9c-0.2-0.9-1.1-2.5-1.5-3.4C124.3,94.9,118.2,97.6,118.2,97.6
		z M188.9,104.3c0.5,0.3,2.9,2.5,3.2,2.9l-1.4,1.8c-0.4-0.2,0,0-0.3-0.3c-0.6-0.6-1.4-2.1-2.7-2.9L188.9,104.3L188.9,104.3z
		 M186,105.9c1.4,1.7,3.3,2.7,3.4,4.4c0.1,0.8,1,1.5,1.7,2c0.2-0.2,0.5-0.4,0.7-0.6c-0.3-0.6-0.5-0.6-1-1c0.2-0.5,2.3-2.8,2.8-3.1
		l1.1,0.8l0.8-0.9c-0.6-0.4-1.4-1.2-1.7-1.4c-0.7-0.4-0.5,0.4-1.6-0.6c-0.6-0.6-0.9-0.9-1.5-1.4c-0.5-0.4-1.2-1.2-1.6-1.5L186,105.9
		L186,105.9z M155.9,22.7c30.1-1.9,54,21.4,55.8,49.2c1.9,30.2-21.3,54.2-49.2,56c-30.2,1.9-54.2-21.3-56-49.2
		C104.6,48.4,127.9,24.5,155.9,22.7z M155.5,20.6c-29.1,1.9-53.3,27-51.1,58.6c2,28.9,27,53.1,58.6,51c29-2,53.1-27,51-58.5
		C212,42.6,187,18.5,155.5,20.6z M171.1,68c-0.3-0.3-0.3,0.5-0.3-0.9c0-0.8,0.6,0.3,0.6-3.2h2.3l0,2.1c0,1.1,0.6,1.2,0.1,2
		c-0.5-0.2-0.4,0.4-0.4-0.7l-2.1,0C171.4,68.1,171.5,67.7,171.1,68L171.1,68z M177.1,67.1l-2.5,0.2v-3.4h0.7v1.3
		c0.7,0.1,1.4,0,1.8,0.4C177.8,66.1,177.2,66.8,177.1,67.1L177.1,67.1z M148.3,67.2h-1.2l0-3.4h0.7v1.3c1,0.1,1.9,0,2.1,0.9
		C150.2,67.1,149.3,67.2,148.3,67.2z M153.4,66.1c-0.6-2.7,2.8-3.1,3.1-1.1C157.1,67.8,153.8,67.9,153.4,66.1z M140.8,63.9
		c3.4-0.6,2.7,2.7,1.6,3.2c-1,0.4-2,0-2.3-0.7C139.7,65.1,140.3,64.6,140.8,63.9z M164.1,67.1l-2.5,0.2l0-3.4c1.1,0,2.7-0.3,2.6,1
		c0,0.5-0.1,0.1-0.1,0.5c0,0.3,0,0.1,0.2,0.5C164.5,66.5,164.3,66.5,164.1,67.1z M168.1,64.6c0.5-1.8,3.4-0.8,1.9,0.7
		c0.2,0.3,0.5,0.4,0.5,0.8c0.2,1.3-2.1,1.7-2.5,0.4c1.2-0.6,0.2,0.6,1.7,0.1c0.2-0.7,0.2-0.4-0.6-0.9l-0.1-0.1
		c0.5-0.6,0.8-0.1,0.6-0.9c-0.3-0.2,0.2-0.3-0.7-0.2C168.6,64.5,169,64.7,168.1,64.6z M167.4,65.5c-0.5,0.3-1.1,0.2-1.7,0.2l0,0.9
		c2.4,0,1.7-0.1,1.9,0.4c-0.5,0.4-1.9,0.2-2.6,0.2l0-3.3l1.8-0.1c0.9,0,0.6,0,0.7,0.4c-0.4,0.3-1.2,0.2-1.8,0.2c0,1-0.2,0.7,0.6,0.8
		C167.3,65.3,167.1,64.8,167.4,65.5L167.4,65.5z M158.4,64.6c0.6-1.7,3.3-0.7,1.9,0.8c1.8,2.1-2,2.6-1.9,1c1.1-0.1,0.6,0.7,1.6,0.1
		c0-0.2,0.2-0.2-0.4-0.7l-0.3-0.2c0,0,0.1-0.1,0.1-0.1l0.4-0.3c0.3-0.3,0.2,0.2,0.1-0.6C158.8,64,159.7,64.7,158.4,64.6z
		 M143.5,67.2c0.2-1.8,0.5,1.6,0.5-3.4l2.4,0.1c0,3.3,0.4,3.2-0.7,3.3v-2.8l-1,0C144.7,66,145.2,67.3,143.5,67.2z M137.1,64
		c0.3-0.2-0.1-0.1,0.4-0.2l2.3,0c-0.4,2.2-1-2.1-1,3.4c-1-0.1-0.7,0.3-0.7-2.8C136.7,64.4,137.4,64.3,137.1,64z M152.1,65.4l1,1.9
		c-1.8,0-0.4-0.7-1.7-1.5c-0.1,1.2,0.3,1.4-0.7,1.5l0-2.8c0.1-0.9-0.2-0.3,0.4-0.6c0.4,0.2,0.3-0.2,0.3,1.4c1.2-0.7,0-1.3,1.8-1.4
		c-0.3,1.1,0.1,0-0.5,0.8C152.3,64.9,152.3,65,152.1,65.4L152.1,65.4z M167,63.3c-0.1,0,0.2,0.4-0.4,0.1c-0.1-0.1-0.3,0.3-0.1-0.3
		c0.1-0.2-0.2-0.3,0.2-0.2C167.3,63.1,166.8,62.9,167,63.3z M165.5,63.3c0.2-0.4,0-0.6,0.6-0.2c-0.1,0.4,0.3,0.2-0.2,0.3
		C165.4,63.5,165.7,63.4,165.5,63.3L165.5,63.3z M152.2,58.4h0.7l0,2.8l0.9,0c0.1-2.8-0.4-2.7,0.7-2.8l0,2.8l1,0
		c0.1-2.8-0.4-2.7,0.7-2.8l0,3.4l-4,0C152.2,61.8,152.2,58.4,152.2,58.4z M150.7,58.4h0.7v3.4h-0.7V58.4z M148.7,61.8l-1.2-0.1
		c0-0.7,0-1.3,0-2c0-1.2-0.3-1.3,0.7-1.3v1.3c0.9,0.1,1.9-0.1,2.1,0.8C150.5,61.6,149.6,61.8,148.7,61.8L148.7,61.8z M164.6,61.7
		l1-2.6c0.4-0.9,0.1-0.5,0.6-0.7c0.6,0,0.5,0.2,1,1.5c0.2,0.6,0.5,1.2,0.7,1.9c-1.3,0-0.6-1.1-2.1-0.8
		C164.8,61.6,166.1,61.9,164.6,61.7L164.6,61.7z M162.2,61.8c-1.1-0.1-0.7-0.4-0.7-1.7c0-1.2-0.4-1.6,0.7-1.7l0,1.3l1.3,0
		c0.1-1.7-0.1-1.1,0.4-1.3c0.5,0.3,0.3-0.5,0.3,1.7c0,2.2,0.1,1.5-0.3,1.7c-0.4-0.2-0.3,0.1-0.3-1.5l-1.3,0L162.2,61.8L162.2,61.8z
		 M146.3,59.9c1.7,2-0.9,1.9-2.3,1.9v-3.4c0.7,0,2-0.1,2.4,0.3C147,59.3,146.4,59.6,146.3,59.9z M169.3,61.2
		c1.9,0.4,0.2-0.8,1.8-0.4c-0.2,1.1-0.8,1.2-2,1c-2.6-2.5,1.3-4.9,2-2.4c-1.4,0-0.3-0.5-1.8-0.4C168.7,59.9,168.7,60.4,169.3,61.2z
		 M159.3,60.1c-0.5,0.3-0.6,0.2-1.7,0.2l0,0.9c2.4,0,1.7-0.1,1.9,0.4c-0.5,0.3-1.9,0.2-2.6,0.2l0-3.3l1.8-0.1c0.9,0,0.6,0,0.7,0.4
		c-0.4,0.3-1.2,0.2-1.8,0.2c0.1,1.5,0.1,0.4,1.3,0.8C159.5,59.9,159.2,59.7,159.3,60.1L159.3,60.1z M144.6,102.5
		c-4.3-1.6-10.1-7-12.1-10.2h7.2C140.8,97.1,143.5,100.2,144.6,102.5z M171.9,102.5c0.9-2.1,2-2.6,4-7.7c0.4-1.1,0.6-2.4,1.2-2.5
		l6.9,0C182.4,95.3,175.1,101.6,171.9,102.5z M155.9,105.3c-4.9-1.2-9.4-7.8-11-13l0.7,0h10.3V105.3z M179.6,76.7
		c1.1-0.4,8.2-0.1,10.1-0.1c0.2,4-1.8,8.1-2.7,11l-8.8-0.1c0.4-1.7,0.7-3.5,0.9-5.3C179.2,80.8,179.3,77.7,179.6,76.7L179.6,76.7z
		 M137.4,82.3c0.2,1.9,0.6,3.4,0.9,5.2h-8.5c-0.7-0.3-0.8-1.2-1.2-2.3c-0.3-0.9-0.6-1.8-0.8-2.7c-0.4-1.7-1-4.1-1-6l10.1,0
		C137.2,78.4,137.2,80.4,137.4,82.3L137.4,82.3z M122.4,69.2c0.1,0.4-0.7,6.7-0.3,10c0.4,3.2,1.2,5.1,2,7.8
		c1.4,5.4,7.8,13,12.5,16.4c13.2,9.6,30.8,9.5,43.9-0.6c0.9-0.7,1.8-1.4,2.6-2.3c2.1-2.3,2-1.8,4.5-5.1c1-1.4,3-4.5,3.7-6.1
		c1.5-3.2,0.4-1.1,1.2-3.3c1.7-4.5,3-12.2,1.5-17c-0.5-3.3-2.1-5.9-6-5.3c0.7,2.8,1.3,4.7,1.5,7.9c-0.9,0-9.4,0.3-10.2-0.3l-0.2-2.8
		c-0.9,0.1-1.8,0.2-2.6,0.4c-0.8,0.2-1.5,0.5-2.2,0.7l0.1,1.9l-3.1,0c-1.2,0.4-5.1,3.8-5.8,4.6c1.6,0.4,6.9,0.1,8.9,0.1
		c0.1,1.6-0.2,4.3-0.5,6c-0.1,0.9-0.3,1.8-0.5,2.7c-0.2,1-0.2,2.2-0.8,2.3l-12.2-0.1c0-1.2,0.3-5.7-0.2-6.4c-0.3,1-0.7,2-1.1,3.1
		c-0.5,1.7-0.4,2.8-1.1,3.1l-0.4-0.9c-0.8-3.1-0.3-2-1.8-5.6l-0.1,6.8h-12.5c-0.6-3.6-1.5-7.1-1.4-10.9l8,0c0.9-0.1,0.5,0.2,0.8-0.4
		c-1.4-1-3.8-3.8-5.6-4.3l-3.2,0L142,70c-1.2-0.7-3.2-1.1-4.9-1.1l-0.2,3h-10.2c0.2-3.3,1-5.1,1.5-8
		C124.4,63.8,122.8,65.6,122.4,69.2z"/>
</g>
</svg>
