<?xml version="1.0" encoding="UTF-8"?>
<!DOCTYPE svg PUBLIC "-//W3C//DTD SVG 1.1//EN" "http://www.w3.org/Graphics/SVG/1.1/DTD/svg11.dtd">
<!-- Creator: CorelDRAW 2021 (64-Bit) -->
<svg xmlns="http://www.w3.org/2000/svg" xml:space="preserve" width="297mm" height="210mm" version="1.1" style="shape-rendering:geometricPrecision; text-rendering:geometricPrecision; image-rendering:optimizeQuality; fill-rule:evenodd; clip-rule:evenodd"
viewBox="0 0 29700 21000"
 xmlns:xlink="http://www.w3.org/1999/xlink"
 xmlns:xodm="http://www.corel.com/coreldraw/odm/2003">
 <defs>
  <style type="text/css">
   <![CDATA[
    .fil0 {fill:black}
    .fil1 {fill:black;fill-rule:nonzero}
   ]]>
  </style>
 </defs>
 <g id="Слой_x0020_1">
  <metadata id="CorelCorpID_0Corel-Layer"/>
  <path class="fil0" d="M11001.33 14400.36c-224.53,99.79 -548.85,-548.85 174.63,-611.21 885.64,-62.37 598.74,286.9 673.58,611.21l24.95 37.42c149.69,-149.69 62.37,-611.21 -137.21,-698.53 -174.63,-74.84 -661.11,-62.37 -848.22,12.47 -424.11,174.63 -411.63,910.58 623.69,773.37l-486.48 -87.32c87.32,-162.16 62.37,-336.79 -62.37,-486.48 24.96,174.65 87.33,299.39 37.43,449.07zm12635.9 -11039.27c0,-87.32 12.47,-87.32 74.84,-187.11 311.84,-461.53 773.37,-648.64 1309.74,-860.69 461.53,-187.11 1496.85,-436.58 1808.69,-686.06l-149.69 0c-411.63,174.63 -860.69,349.27 -1322.22,486.48 -249.48,74.84 -486.48,224.53 -686.06,87.32 -99.79,-74.84 -137.21,-137.21 -249.48,-149.69l-62.37 -12.47c-87.32,-12.47 -12.47,-12.47 -74.84,-12.47 -12.47,0 -137.21,37.42 -162.16,49.9 149.69,62.37 237,187.11 374.21,261.95l-87.32 12.47c-124.74,37.42 49.9,62.37 -199.58,-49.9 62.37,87.32 12.47,37.42 112.26,87.32l-74.84 62.37c0,0 -12.47,0 0,12.47 -124.74,-62.37 -299.37,-174.63 -424.11,-212.05 12.47,12.47 12.47,12.47 24.95,24.95l349.27 249.48c-49.9,62.37 -162.16,124.74 -361.74,361.74 -87.32,99.79 -187.11,224.53 -212.05,349.27 -24.92,112.25 0.03,112.25 12.5,124.72zm-3305.54 2419.91c0,-12.47 12.47,-24.95 12.47,-24.95 0,0 12.47,-12.47 12.47,-24.95 0,-12.47 12.47,-37.42 24.95,-49.9 112.26,-237 324.32,-399.16 623.69,-411.63 386.69,-12.47 548.85,237 698.53,461.53 -137.21,-698.53 -1347.17,-735.95 -1372.11,49.9zm474 2145.48c137.21,-212.05 424.11,-1172.53 -24.95,-1160.06 -37.42,199.58 112.26,261.95 99.79,548.85 0,224.53 -74.84,399.16 -74.84,611.21zm124.74 286.9c99.79,-37.42 598.74,-623.69 723.48,-760.9 162.16,-187.11 399.16,-711 374.21,-1060.27 -74.85,598.74 -1085.22,1521.8 -1097.69,1821.17zm8107.93 -6074.72l0 -124.74 -24.94 0.01c-24.95,124.74 -162.16,174.63 -349.27,299.37 -1284.8,773.37 -2619.49,948.01 -3143.39,1397.06 137.21,-49.9 286.9,-137.21 436.58,-199.58 1172.53,-486.48 1771.27,-311.84 2893.91,-1209.95 87.32,-74.85 87.32,-112.27 187.11,-162.17zm-5211.6 8405.31c-17.91,150.46 -189.16,284.84 -476.42,263.95 -163.63,-10.56 -303.68,-58.61 -414.85,-127.33l-66.54 10.66c345.6,249.92 924.34,320.33 1036.49,-158.73l-78.68 11.45zm-3394.15 576.15c-55.72,55.01 -106.22,99.4 -138.34,124.38 108.9,-36.3 179.66,-90.21 237.88,-143.22l-99.54 18.84zm225.44 -42.5c-25.34,45.61 -49.83,67.44 -89.36,154.4 73.98,-36.99 154.8,-108.25 217.08,-178.22 -42.5,7.91 -85.07,15.83 -127.72,23.82zm176.8 -32.94c-38.06,185.96 -188.72,345.66 -278.64,424.34 224.53,-49.9 261.95,-199.58 399.16,-361.74 0,199.58 -137.21,386.69 -237,449.06 212.05,-87.32 187.11,-137.21 286.9,-261.95 37.42,-37.42 24.95,-37.42 49.9,-62.37 -24.95,199.58 -87.32,237 -124.74,386.69 174.63,-162.16 124.74,-174.63 237,-386.69 12.47,149.69 -12.47,261.95 -62.37,374.21 87.32,-137.21 87.32,-74.84 162.16,-311.84 99.79,174.63 49.9,249.48 62.37,436.58l99.79 -274.42 62.37 523.9 49.9 -274.42c37.42,261.95 12.47,286.9 -24.95,498.95 99.79,-174.63 99.79,-199.58 99.79,-449.06 74.84,261.95 12.47,386.69 -124.74,586.27 99.79,-37.42 212.05,-162.16 212.05,-299.37 12.47,336.79 -199.58,361.74 -399.16,474 249.48,24.95 311.84,-37.42 424.11,-162.16 -212.05,735.95 -1022.85,-424.11 -1434.48,-611.21l274.42 -112.26c-361.74,-37.42 -411.63,-24.95 -474,-374.21 -5.12,-24.73 -10.3,-47.72 -15.53,-69.27l-120.27 23.28c37.67,143.07 88.84,294.98 173.23,432.67l436.58 349.27c112.26,87.32 249.48,286.9 374.21,411.63 386.69,411.63 798.32,349.27 910.58,-149.69 411.63,-99.79 361.74,-74.84 561.32,-411.63 56.48,-536.55 -220.87,-732.15 -365.75,-1015.61 -213.92,36.72 -429.95,74.65 -648.05,113.76 164.94,38.07 341.34,36.24 464.96,-46.18 -112.26,174.63 -149.69,112.26 -336.79,187.11 212.05,24.95 261.95,-37.42 411.63,-112.26 -24.95,124.74 -162.16,187.11 -336.79,199.58 237,37.42 237,-49.9 424.11,-74.84 -49.9,99.79 -149.69,124.74 -261.95,187.11 174.63,0 199.58,-24.95 311.84,-87.32 -37.42,137.21 -124.74,137.21 -237,199.58 149.69,-12.47 212.05,-49.9 311.84,-112.26 -24.95,149.69 -62.37,149.69 -199.58,199.58 137.21,0 149.69,-37.42 249.48,-87.32 -62.37,99.79 -87.32,124.74 -162.16,174.63 49.9,-12.47 49.9,-24.95 87.32,-24.95 87.32,-12.47 37.42,-12.47 74.84,12.47 -74.84,87.32 -112.26,99.79 -162.16,162.16l187.11 -87.32c-74.84,99.79 -49.9,99.79 -162.16,149.69 162.16,87.32 -112.26,-12.47 112.26,24.95 0,0 12.47,0 12.47,0 -49.9,24.95 -174.63,112.26 -224.53,149.69l237 -74.84c-62.37,24.95 -174.63,187.11 -311.84,212.05 124.74,12.47 187.11,-49.9 286.9,-87.32 -62.37,112.26 -124.74,174.63 -311.84,162.16 -149.69,-374.21 -124.74,-548.85 -386.69,-860.69 -106.04,-123.72 -228.77,-219.62 -334.03,-319.22 -103.03,18.77 -206.48,37.78 -310.4,57.05zm-511.14 -871.97c34.76,-64.25 70.65,-142.22 107.77,-237.94 0,0 0,-12.47 12.47,-24.95l6.21 -18.62 0.02 -0.09 6.24 -39.35 0 -4.31c8.17,-49.05 0.28,-49.88 11.43,-69.21 52.99,-344.56 76.61,-538.25 222.22,-924.3 19.07,-50.57 135.03,-241.2 204.31,-345.14l215.1 -37.91c175.48,-280.1 435.12,-539.51 806.37,-494.51 431.38,45.41 676.83,194.1 1121.78,154.66l349.22 -61.55c20.66,-36.2 551.84,-151.42 1069.19,-713.59 200.13,-200.13 337.27,-780.76 416.09,-1051.01 74.84,-261.95 162.16,-523.9 237,-785.85 187.11,-623.69 349.27,-935.53 1010.37,-1097.69 586.27,-137.21 1172.53,-187.11 1683.96,-436.58 486.48,-237 985.43,-698.53 1272.32,-835.74l0 -99.79c-174.63,74.84 -361.74,212.05 -511.42,311.84 -1846.12,1160.06 -1896.01,586.27 -2931.33,1097.69 -461.53,224.53 -698.53,324.32 -1247.38,212.05 49.9,62.37 62.37,24.95 124.74,124.74l-87.32 261.95c149.69,-174.63 37.42,-162.16 187.11,-224.53 0,137.21 -199.58,324.32 -212.05,623.69 99.79,-187.11 149.69,-399.16 311.84,-511.42 -124.74,274.42 -261.95,436.58 -249.48,823.27 137.21,-286.9 137.21,-760.9 474,-910.58 -112.26,187.11 -199.58,187.11 -311.84,561.32 -62.37,224.53 -112.26,486.48 -87.32,735.95 24.95,-436.58 299.37,-1297.27 711,-1384.59 -174.63,311.84 -311.84,461.53 -449.06,885.64 -274.42,860.69 -74.84,2033.22 -1771.27,2220.33 -60.78,1.95 -69.68,3.03 -124.74,0 -199.58,12.47 -474,0 -611.21,-74.84l498.95 -112.26c0,-12.47 12.47,-12.47 24.95,0l-823.27 0c149.69,-137.21 249.48,-62.37 498.95,-62.37 474,-12.47 960.48,-124.74 1334.69,-386.69 -361.74,99.79 -873.16,424.11 -1534.27,261.95 174.63,-87.32 -49.9,-87.32 424.11,-87.32 723.48,12.47 1060.27,-374.21 1284.8,-411.63 -374.21,174.63 -885.64,374.21 -1434.48,324.32l860.69 -187.11c-261.95,37.42 -399.16,87.32 -686.06,74.84 99.79,-62.37 124.74,-49.9 261.95,-74.84 99.79,-12.47 698.53,-137.21 723.48,-212.05 0,-12.47 12.47,-12.47 24.95,-12.47 -299.37,62.37 -511.42,174.63 -873.16,174.63 12.47,0 12.47,-12.47 24.95,-12.47 187.11,-99.79 212.05,-24.95 636.16,-162.16 212.05,-74.84 361.74,-187.11 511.42,-249.48 -174.63,74.84 -673.58,274.42 -885.64,274.42 -162.16,0 -74.84,12.47 -124.74,-37.42 137.21,-74.84 361.74,-99.79 511.42,-149.69 149.69,-49.9 311.84,-149.69 424.11,-174.63 -249.48,37.42 -523.9,187.11 -835.74,212.05 74.84,-149.69 162.16,-124.74 361.74,-187.11 124.74,-37.42 237,-112.26 349.27,-124.74l-586.27 124.74c49.9,-149.69 137.21,-299.37 199.58,-461.53 299.37,-923.06 87.32,-1359.64 124.74,-1683.96l149.69 137.21c37.42,-62.37 -12.47,-49.9 0,-99.79 87.32,49.9 162.16,112.26 286.9,112.26 -124.74,-37.42 -311.84,-162.16 -374.21,-261.95 -99.79,-162.16 24.95,-349.27 99.79,-486.48l-99.79 137.21c-37.42,62.37 -49.9,99.79 -87.32,162.16 -49.9,0 0,24.95 -62.37,-62.37 12.47,386.69 -37.42,-37.42 -49.9,187.11 0,37.42 24.95,137.21 37.42,212.05 -24.95,-87.32 -87.32,-137.21 -124.74,-199.58l99.79 361.74c-49.9,-74.84 -137.21,-187.11 -174.63,-261.95 49.9,137.21 187.11,361.74 187.11,536.37 0,-37.42 -24.95,-74.84 -49.9,-124.74l-99.79 -112.26c49.9,199.58 137.21,286.9 162.16,536.37 -87.32,-174.63 -199.58,-399.16 -299.37,-561.32 87.32,261.95 249.48,536.37 249.48,848.22 -99.79,-162.16 -49.9,-274.42 -311.84,-661.11 99.79,274.42 237,548.85 261.95,885.64 -37.42,-49.9 -12.47,12.47 -62.37,-99.79l-224.53 -598.74c37.42,299.37 249.48,661.11 199.58,1035.32 -37.42,-361.74 -137.21,-474 -224.53,-760.9 24.95,349.27 199.58,523.9 137.21,985.43 -112.26,-174.63 -37.42,-661.11 -212.05,-910.58 37.42,349.27 174.63,785.85 37.42,1122.64 -12.47,-137.21 -12.47,-261.95 -12.47,-411.63l-24.95 -249.48c0,-12.47 -12.47,-37.42 -12.47,-49.9 0,-12.47 0,-12.47 -12.47,-24.95 0,249.48 12.47,536.37 -24.95,798.32l-62.37 199.58c12.47,-237 87.32,-586.27 0,-798.32 -74.84,199.58 -49.9,648.64 -149.69,898.11 24.95,-249.48 74.84,-374.21 74.84,-673.58 -24.95,24.95 -24.95,24.95 -37.42,87.32 -99.79,274.42 24.95,299.37 -274.42,885.64 74.84,-286.9 162.16,-486.48 174.63,-848.22 -99.79,162.16 -149.69,711 -386.69,948.01 99.79,-349.27 286.9,-711 274.42,-1122.64 -62.37,374.21 -349.27,1160.06 -586.27,1309.74 99.79,-386.69 286.9,-424.11 449.06,-1147.59 124.74,-573.79 224.53,-798.32 -224.53,-1135.11 74.84,149.69 199.58,249.48 237,486.48 -112.26,-187.11 -399.16,-573.79 -661.11,-561.32 224.53,137.21 536.37,598.74 511.42,1047.8 -12.47,336.79 -249.48,885.64 -411.63,1135.11 -461.53,748.43 -598.74,673.58 -1060.27,1259.85 -74.84,99.79 -237,424.11 -274.42,461.53 -99.79,-124.74 -112.26,-187.11 -274.42,-224.53 124.74,87.32 199.58,174.63 212.05,349.27 -99.79,-124.74 -149.69,-199.58 -274.42,-274.42 174.63,336.79 349.27,474 187.11,997.9 -99.79,324.32 -286.9,598.74 -661.11,623.69 261.95,-99.79 486.48,-199.58 523.9,-511.42 -24.95,99.79 -212.05,249.48 -324.32,299.37 -212.05,99.79 -311.84,62.37 -523.9,99.79l74.84 99.79c-137.21,-12.47 -162.16,-24.95 -224.53,-149.69 49.9,-336.79 436.58,-124.74 661.11,-224.53 -199.58,-74.84 -424.11,-99.79 -623.69,0 1.56,-18.72 44.18,-205.07 62.36,-286.9 49.9,-199.58 224.53,-573.79 511.42,-474 74.84,24.95 112.26,87.32 149.69,137.21 49.9,62.37 12.47,24.95 49.9,62.37 -24.95,-424.11 -174.63,-299.37 -386.69,-386.69 162.16,-62.37 162.16,-62.37 324.32,0 -112.26,-174.63 -274.42,-124.74 -436.58,-37.42 24.95,-162.16 49.9,-137.21 99.79,-237l12.47 -49.9c74.84,-311.84 224.53,-711 573.79,-336.79 -49.9,-149.69 -187.11,-286.9 -374.21,-199.58 24.95,-212.05 112.26,-399.16 149.69,-673.58 37.42,-274.42 24.95,-461.53 99.79,-723.48 62.37,-224.53 137.21,-424.11 174.63,-673.58 24.95,-174.63 24.95,-548.85 -74.84,-711 -62.37,249.48 37.42,411.63 0,661.11 -24.95,174.63 -124.74,374.21 -162.16,561.32 -87.32,411.63 -24.95,923.06 -149.69,1297.27l-237 0 149.69 99.79c-174.63,12.47 -224.53,-24.95 -349.27,-87.32 112.26,124.74 137.21,99.79 299.37,174.63 -299.37,49.9 -324.32,-87.32 -511.42,-174.63 62.37,49.9 187.11,149.69 249.48,212.05 -212.05,-37.42 -286.9,-112.26 -461.53,-162.16l87.32 87.32c37.42,37.42 62.37,49.9 87.32,74.84 -237,-49.9 -361.74,-199.58 -548.85,-286.9 49.9,87.32 49.9,62.37 124.74,137.21 62.37,62.37 74.84,74.84 124.74,112.26 -174.63,-62.37 -349.27,-174.63 -486.48,-261.95 74.84,74.84 112.26,87.32 162.16,187.11 -224.53,-99.79 -561.32,-361.74 -698.53,-523.9 24.95,149.69 212.05,349.27 311.84,424.11 -12.47,0 -12.47,12.47 -24.95,12.47 0,0 -12.47,12.47 -24.95,12.47l-37.42 12.47c0,0 -49.9,-12.47 -62.37,-12.47 112.26,49.9 237,137.21 349.27,199.58l-411.63 -112.26c12.47,0 498.95,199.58 498.95,199.58 -149.69,62.37 -474,-87.32 -623.69,-124.74 62.37,62.37 99.79,87.32 199.58,124.74l162.16 62.37c0,0 12.47,24.95 24.95,12.47 0,-12.47 12.47,12.47 24.95,12.47 -199.58,12.47 -474,-49.9 -598.74,-149.69 99.79,124.74 361.74,162.16 474,237 -237,12.47 -324.32,-37.42 -511.42,-99.79 149.69,112.26 324.32,124.74 461.53,212.05 -249.48,0 -286.9,-37.42 -486.48,-87.32 112.26,87.32 224.53,99.79 374.21,149.69 -299.37,49.9 -523.9,-124.74 -748.43,-199.58 99.79,87.32 286.9,212.05 424.11,237 -199.58,0 -511.42,-174.63 -661.11,-249.48l424.11 299.37 -511.42 -224.53c137.21,137.21 274.42,162.16 424.11,274.42 -174.63,-24.95 -299.37,-112.26 -449.06,-162.16 124.74,137.21 174.63,112.26 274.42,199.58 -162.16,-12.47 -386.69,-74.84 -498.95,-174.63 -12.47,-12.47 -49.9,-62.37 -62.37,-62.37 -49.9,-62.37 -12.47,-12.47 -37.42,-49.9l-62.37 -12.47c62.37,112.26 124.74,199.58 174.63,286.9l-237 -99.79c37.42,74.84 324.32,224.53 386.69,249.48 -187.11,-24.95 -324.32,-112.26 -474,-174.63 224.53,249.48 386.69,174.63 673.58,311.84 -249.48,37.42 -361.74,-37.42 -573.79,-99.79 114.11,114.11 305.85,124.7 438.93,160.9l330.99 -58.34c39.59,-68.78 47.82,-101.19 240.47,-127.46 735.95,-87.32 823.27,-486.48 1147.59,-561.32 174.63,-49.9 336.79,37.42 498.95,49.9 187.11,12.47 324.32,-37.42 486.48,-49.9 -33.34,95.26 -65.75,191.26 -97.72,287.67l13.93 -2.46c-83.98,319.56 -143.9,635.6 -265.15,887.98 -265.36,552.37 -340.3,954.76 129.09,1018.47l1.15 0.08c190.86,11.64 354.48,-34.59 504.4,-101.04 183.05,-110.98 321.34,-235.51 417.31,-380.85zm1629.1 -1850.46c28.22,-36.21 53.76,-76.33 75.3,-121.36 -10.49,24.47 -59.2,73.43 -128.25,130.69l52.95 -9.33zm-301.45 53.13c68.99,-67.75 131.22,-138.88 189.64,-211.91 -38.77,44.31 -146.42,135.35 -270.51,226.16l80.87 -14.25zm-242.55 42.75c79.3,-71.06 147.54,-147.63 182.72,-229.72 -52.98,68.13 -174.84,168.41 -301.51,250.66l118.79 -20.94zm-2998.08 -1826.34c-49.9,274.42 -698.53,735.95 -935.53,823.27 -62.37,87.32 -910.58,399.16 -1072.74,461.53 -37.42,49.9 -199.58,149.69 -261.95,212.05 -74.84,74.84 -137.21,162.16 -199.58,274.42 -137.21,286.9 -187.11,399.16 -361.74,611.21 -113.97,135.34 -390.62,368.29 -618.62,580.41l152.41 -26.86c83.23,-78.41 158.01,-145.61 204.26,-191.86 49.9,-49.9 74.84,-74.84 124.74,-124.74l99.79 -99.79c37.42,-37.42 12.47,-12.47 62.37,-49.9l87.32 137.21c-62.37,-311.84 112.26,-399.16 249.48,-548.85 137.21,-162.16 199.58,-311.84 361.74,-486.48 99.79,124.74 0,249.48 99.79,87.32 -112.26,-286.9 436.58,-498.95 673.58,-611.21 162.16,-74.84 324.32,-137.21 486.48,-212.05l324.32 -174.63c74.84,-24.95 -37.42,74.84 62.37,-12.47l311.84 -274.42c99.79,24.95 62.37,0 99.79,87.32 0,-149.69 12.47,-112.26 49.9,-149.69l37.42 112.26c-12.47,-112.26 0,-149.69 49.9,-237 74.84,99.79 0,112.26 87.32,237 -37.42,-149.69 -49.9,-137.21 -37.42,-324.32l49.9 124.74c12.47,49.9 12.47,62.37 37.42,112.26 37.42,87.32 87.32,137.21 137.21,174.63 -137.21,-212.05 -237,-374.21 -62.37,-623.69 623.69,-873.16 623.69,-1609.11 1846.12,-2394.96 374.21,-237 798.32,-636.16 997.9,-686.06 -174.63,274.42 -835.74,686.06 -1110.16,885.64 187.11,-12.47 785.85,-411.63 923.06,-523.9l386.69 -336.79c286.9,-249.48 199.58,-249.48 461.53,-274.42l-174.63 -49.9c187.11,-49.9 199.58,-74.84 424.11,-112.26l-311.84 24.95c137.21,-137.21 237,-112.26 449.06,-149.69l-349.27 24.95c174.63,-299.37 411.63,-224.53 548.85,-274.42l-349.27 24.95c87.32,-74.84 74.84,-49.9 149.69,-62.37l-49.9 -24.95c0,0 -12.47,-12.47 -12.47,-12.47 -87.32,-49.9 -12.47,24.95 -24.95,-12.47 187.11,-87.32 324.32,-49.9 536.37,-37.42 -162.16,-99.79 -311.84,-37.42 -486.48,-49.9 62.37,-74.84 137.21,-187.11 212.05,-261.95l773.37 -711 -174.63 0c-87.32,87.32 -199.58,162.16 -299.37,237 -311.84,249.48 -698.53,735.95 -798.32,773.37 686.06,-923.06 661.11,-686.06 898.11,-935.53l62.37 -74.84c-187.11,0 -162.16,-24.95 -286.9,74.84 -349.27,274.42 -474,411.63 -748.43,760.9 -249.48,311.84 -573.79,686.06 -848.22,935.53l-1297.27 1122.64c-99.79,74.84 -212.05,212.05 -299.37,286.9 -573.83,548.9 -1185.04,1846.17 -1347.2,1945.96zm-3698.42 3213.14c-48.34,56.36 -82,105.16 -93.6,142.29l-49.89 74.84c-227.79,341.64 7.6,551.85 313.04,619.05l-108.49 -212.45 -8.42 -86.01c-169.85,-76.55 -142.99,-224.36 -37.82,-386.38l-14.82 -151.34zm2002.47 -559.44c-134.21,-27.76 -252.51,-95.32 -399.65,-134.04 62.37,49.9 137.21,99.79 237,137.21 16.27,6.51 31.88,12.15 46.99,17.21l115.66 -20.38zm-313.68 55.29c-144.22,-54.61 -266.56,-132.92 -335.45,-201.81 89.97,125.96 159.75,179.8 241.24,218.41l94.21 -16.6zm-232.31 40.94c-43.86,-23.51 -86.33,-47.24 -128.08,-68.12 16.93,27.08 42.13,53.24 72.11,77.99l55.97 -9.87zm-163.18 28.77c-57.1,-41.7 -106.99,-85.83 -152,-121.84 31.58,59.22 61.92,99.69 93.77,132.1l58.23 -10.26zm-8609.19 3819.92c-311.84,-199.58 0,-424.11 99.79,-498.95 -324.32,62.37 -548.85,523.9 -12.47,561.32l-87.32 -62.37zm3941.7 1471.9c99.79,486.48 0,149.69 162.16,598.74l12.47 149.69c0,12.47 -12.47,12.47 -12.47,24.95 -37.42,112.25 -349.27,-12.47 -436.58,-199.58 112.26,62.37 149.69,99.79 274.42,137.21 -99.79,-124.74 -237,-249.48 -374.21,-311.84l199.58 -12.47c-224.53,-37.42 -224.53,-87.32 -324.32,-274.42l-62.37 -49.9c62.37,-87.32 -12.47,-37.42 99.79,-62.37 12.48,-0.01 461.53,-0.01 461.53,-0.01zm-2669.38 -1359.64c598.74,174.63 586.27,-249.48 1222.43,224.53 -187.11,112.26 -498.95,62.37 -723.48,62.37 -311.84,-24.95 -399.16,-49.9 -498.95,-286.9zm-411.63 -436.58c-62.37,87.32 -49.9,87.32 -187.11,124.74l112.26 -212.05c-99.79,324.32 -498.95,237 -548.85,87.32 124.74,-49.9 249.48,-87.32 374.21,-124.74l349.27 -124.74 -99.78 249.47zm948 -336.79c174.63,0 848.22,149.69 1010.37,224.53 336.79,137.21 523.9,274.42 648.64,636.16 -199.58,0 -349.27,-37.42 -486.48,0 -62.37,24.95 -137.21,62.37 -212.05,49.9 0,0 -12.47,0 -12.47,0 0,0 -12.47,0 -24.95,-12.47l-187.11 -62.37c212.05,-87.32 286.9,-12.47 474,-187.11 -162.16,49.9 -299.37,99.79 -486.48,99.79 12.47,0 24.95,-24.95 24.95,-12.47 0,12.47 24.95,-12.47 49.9,-24.95l212.05 -74.84c87.32,-37.42 149.69,-99.79 187.11,-162.16 -87.32,149.69 -436.58,174.63 -661.11,174.63 99.79,-112.26 199.58,-149.69 261.95,-349.27 -112.26,99.79 -224.53,199.58 -411.63,274.42 -24.95,-37.42 0,0 0,-37.42 0,-174.63 49.9,62.37 0,-37.42 -112.26,149.69 -112.26,12.47 -311.84,99.79l0 -49.9c0,-174.63 74.84,62.37 0,-49.9l-224.53 24.96c-87.32,49.9 -74.84,62.37 -187.11,62.37 62.37,-49.9 162.16,-87.32 187.11,-149.69l49.9 -87.32c49.9,-62.37 0,12.47 49.9,-49.9l-311.84 174.63c-112.26,24.95 -49.9,24.95 -112.26,-24.95l137.21 -112.26c149.69,-187.11 224.53,-149.69 299.37,-274.42 -0.02,0.01 37.4,-62.36 37.4,-62.36zm-948 336.79c87.32,-137.21 87.32,-261.95 237,-299.37 99.79,-37.42 137.21,-87.32 212.05,-162.16 49.9,-49.9 24.95,-37.42 74.84,-62.37 -62.37,374.21 -212.05,449.06 -311.84,611.21 -37.42,62.37 -49.9,137.21 -87.32,212.05 -74.84,-24.95 -187.11,-87.32 -237,-149.69 37.42,-74.83 49.9,-74.83 112.27,-149.67zm1871.06 -349.27c74.84,-99.79 187.11,-162.16 212.05,-361.74 -87.32,137.21 -174.63,349.27 -399.16,324.32 87.32,-87.32 174.63,-137.21 212.05,-299.37 -87.32,99.79 -187.11,274.42 -336.79,274.42l162.16 -174.63c-137.21,62.37 -124.74,137.21 -286.9,162.16 0,-12.47 12.47,-24.95 12.47,-24.95l149.69 -187.11c-112.26,49.9 -112.26,74.84 -212.05,149.69 -62.37,-24.95 -12.47,-24.95 -37.42,-49.9l-74.84 -37.42c74.84,-124.74 62.37,-124.74 199.58,-212.05 424.11,-249.48 349.27,-212.05 923.06,-74.84 898.11,212.05 735.95,-237 1259.85,286.9 174.63,174.63 224.53,212.05 474,336.79 636.16,311.84 561.32,386.69 1022.85,648.64 162.16,87.32 561.32,411.63 224.53,523.9 -37.42,12.47 -87.32,37.42 -149.69,49.9 62.37,-49.9 112.26,-99.79 174.63,-149.69 -112.26,-62.37 -212.05,87.32 -299.37,-62.37l-12.47 -24.95c-99.79,74.84 -286.9,-12.47 -411.63,-74.84l-137.21 -87.32c-12.47,-12.47 62.37,-49.9 -74.84,0 -87.32,24.95 -49.9,24.95 -124.74,62.37 0,0 0,-24.95 0,-12.47 0,0 0,-12.47 0,-12.47 0,0 0,-24.95 0,-24.95l-62.37 -62.37c0,0 0,0 -12.47,-12.47l-74.84 -49.9c0,0 -24.95,-12.47 -24.95,-12.47l-24.95 -62.37c0,0 0,-12.47 0,-12.47 0,0 -37.42,-37.42 0,-74.84l-149.69 37.42c62.37,-112.26 -24.95,-12.47 99.79,-99.79 -149.69,24.95 -149.69,37.42 -261.95,-37.42l149.69 -174.63c-199.58,37.42 -511.42,87.32 -735.95,-49.9l-24.95 -24.95c0,0 -12.47,-12.47 -12.47,-12.47l-87.32 -49.9c0,0 -12.47,-12.47 -12.47,-12.47 0,0 -24.95,-12.47 -24.95,-24.95 0,0 -12.47,-12.47 -12.47,-12.47l-199.58 -124.74c124.74,-99.79 137.21,-87.32 212.05,-237 -87.32,87.32 -149.69,174.63 -311.84,212.05 124.74,-99.79 162.16,-149.69 212.05,-311.84 -87.32,74.84 -87.32,99.79 -187.11,162.16l37.42 -224.53c-74.84,137.21 -99.79,261.95 -249.48,299.37l99.79 -224.53c-112.26,112.26 -99.79,187.11 -274.42,249.48l124.74 -212.05c-112.27,99.77 -174.64,236.98 -324.32,236.98l149.69 -224.53c-112.26,87.32 -149.69,199.58 -299.37,224.53 74.84,-112.26 199.58,-212.05 199.58,-399.16 -12.48,87.32 -187.11,374.21 -386.69,374.21zm249.47 -760.89c62.37,-137.21 112.26,-224.53 274.42,-261.95 -37.42,87.32 -49.9,87.32 -99.79,174.63 -74.84,99.79 -24.94,87.32 -174.63,87.32zm374.22 124.73c49.9,-87.32 62.37,-74.84 112.26,-174.63 -124.74,99.79 -62.37,124.74 -224.53,124.74 49.9,-112.26 174.63,-374.21 286.9,-424.11 860.69,-349.27 835.74,-523.9 1546.75,74.84 137.21,112.26 237,224.53 361.74,361.74 137.21,137.21 249.48,224.53 374.21,349.27 149.69,137.21 673.58,523.9 873.16,611.21 -49.9,-49.9 -99.79,-99.79 -162.16,-149.69 -24.95,-12.47 -49.9,-37.42 -87.32,-62.37l-112.26 -99.79c174.63,87.32 386.69,261.95 561.32,374.21 536.36,374.21 12.47,748.43 -686.06,361.74 -324.32,-174.63 -199.58,-137.21 -361.74,-261.95l-124.74 -74.84 99.79 -87.32c-99.79,37.42 -49.9,49.9 -124.74,12.47 99.79,-62.37 112.26,-87.32 149.69,-212.05 -37.42,49.9 -12.47,24.95 -49.9,49.9 -74.84,62.37 12.47,12.47 -87.32,62.37l87.32 -212.05c-87.32,62.37 -149.69,187.11 -311.84,212.05 -261.95,37.42 -611.21,-274.42 -748.43,-461.53l-87.32 -99.79c0,0 -12.47,-12.47 -24.95,-12.47 87.32,-49.9 49.9,0 112.26,-99.79 -99.79,87.32 -124.74,62.37 -137.21,49.9l-149.69 -24.95c99.79,-49.9 149.69,-99.79 187.11,-212.05 -49.9,99.79 -137.21,162.16 -274.42,174.63 74.84,-74.84 149.69,-137.21 187.11,-249.48 -62.37,99.79 -74.84,124.74 -187.11,187.11 24.95,-187.11 62.37,-237 37.42,-449.06 -99.79,99.79 -99.79,286.9 -311.84,349.27 74.84,-137.21 174.63,-212.05 162.16,-424.11 -12.47,99.79 -99.79,199.58 -162.16,286.9 -74.84,99.79 -112.26,174.63 -274.42,199.58 87.32,-124.74 174.63,-187.11 187.11,-399.16 -112.26,162.16 -162.16,336.79 -349.27,399.16 99.79,-112.26 162.16,-162.16 199.58,-349.27 -137.21,162.16 -187.11,336.79 -374.21,324.32 99.79,-87.32 237,-237 237,-449.06 -37.41,162.16 -212.04,374.22 -349.25,424.11zm-299.38 -1771.27c-324.32,49.9 -598.74,112.26 -910.58,162.16 -411.63,62.37 -536.37,-24.95 -910.58,-49.9 -1097.69,-74.84 -1933.43,960.48 -2981.23,1272.32 -324.32,99.79 -523.9,37.42 -885.64,187.11 -249.48,112.26 -461.53,249.48 -711,349.27 -686.06,299.37 -1047.8,-99.79 -1696.43,411.63 -748.43,573.79 -1384.59,2345.07 -1646.54,2532.17l-62.37 99.79 0 212.05c199.58,-174.63 486.48,-661.11 636.16,-960.48 187.11,-349.27 349.27,-723.48 548.85,-1047.8 873.16,-1347.17 1372.11,-948.01 2058.17,-923.06l-174.63 -112.26c249.48,-87.32 399.16,-212.05 598.74,-274.42 -137.21,99.79 -274.42,237 -336.79,411.63l224.53 -224.53c87.32,-74.84 137.21,-124.74 237,-174.63 586.27,-286.9 1185.01,-99.79 1945.91,-511.42 935.53,-511.42 1334.69,-972.95 2295.17,-1022.85 -1185.01,-274.42 -1609.11,1060.27 -3480.18,1259.85 -199.58,24.95 -386.69,74.84 -561.32,87.32 536.37,-149.69 972.95,-162.16 1484.38,-386.69 474,-224.53 773.37,-436.58 1185.01,-661.11 1671.48,-948.01 1958.38,124.74 3018.65,-386.69 -311.84,37.42 -449.06,62.37 -785.85,37.42 237,-62.37 636.16,-124.74 898.11,-174.63 286.9,-49.9 623.69,-187.11 860.69,-199.58 -174.63,74.84 -474,112.26 -636.16,224.53 324.32,-24.95 623.69,-162.16 960.48,-187.11 411.63,-24.95 648.64,124.74 935.53,137.21 -62.37,-37.42 -274.42,-162.16 -336.79,-199.58 187.11,37.42 411.63,187.11 598.74,274.42 199.58,87.32 424.11,174.63 636.16,249.48 224.53,87.32 399.16,187.11 611.21,274.42 199.58,74.84 474,137.21 586.26,286.9 -37.42,299.37 -586.26,374.21 -910.57,286.9 -124.74,-37.42 -361.74,-99.79 -399.16,-199.58l-12.47 -49.9c-12.47,-24.95 -162.16,-12.47 -99.79,-137.21l-149.69 74.84c37.42,-62.37 62.37,-74.84 99.79,-149.69 -249.48,162.16 -249.48,224.53 -698.53,174.63 -149.69,-24.95 -349.27,-87.32 -586.27,-99.79l37.42 -112.26c-74.84,74.84 -12.47,24.95 -99.79,74.84 49.9,-174.63 24.95,-149.69 0,-187.11 -62.37,162.16 -99.79,124.74 -261.95,224.53 -112.26,74.84 -137.21,137.21 -261.95,199.58 -137.21,62.37 -274.42,87.32 -374.21,99.79 -212.05,24.95 -37.42,-37.42 -174.63,24.95 -49.9,-74.84 -37.42,-24.95 -37.42,-149.69 -37.42,174.63 -62.37,137.21 -99.79,162.16l0 -286.9c-174.63,511.42 -686.06,848.22 -1185.01,1010.37 37.42,-449.06 -24.95,-399.16 -112.26,-748.43 -24.95,399.16 124.74,648.64 -149.69,985.43 74.84,-349.27 137.21,-511.42 74.84,-898.11 -49.9,486.48 -74.84,885.64 -361.74,1185.01 99.79,-274.42 212.05,-486.48 212.05,-823.27 -149.69,336.79 -137.21,686.06 -411.63,972.95 74.84,-286.9 199.58,-424.11 212.05,-785.85 -162.16,386.69 -224.53,486.48 -648.64,636.16 -274.42,99.79 -798.32,124.74 -848.22,424.11 199.58,349.27 661.11,0 923.06,311.84 -212.05,-62.37 -399.16,-162.16 -598.74,-37.42 149.69,0 274.42,0 349.27,49.9l124.74 37.42c-49.9,37.42 -62.37,37.42 -99.79,74.84l124.74 12.47 -49.9 62.37c0,0 -12.47,12.47 -24.95,12.47 0,0 -12.47,12.47 -24.95,12.47 0,0 -12.47,12.47 -24.95,12.47 137.21,-49.9 149.69,-49.9 212.05,-12.47 -187.11,62.37 -286.9,162.16 -374.21,311.84 62.37,-62.37 374.21,-374.21 523.9,-311.84 -74.84,74.84 -486.48,212.05 -436.58,536.37 -49.9,-174.63 286.9,-486.48 586.27,-474 -199.58,99.79 -212.05,74.84 -349.27,249.48 -112.26,162.16 -99.79,299.37 -49.9,436.58 24.95,-274.42 174.63,-474 374.21,-561.32 249.48,-99.79 636.16,-49.9 910.58,-49.9 -49.9,74.84 -74.84,87.32 -124.74,187.11 436.58,-336.79 810.79,-286.9 1147.59,-324.32l-399.16 -12.47c174.65,-49.85 1596.66,-224.48 1920.98,399.2 124.74,237 37.42,449.06 -124.74,561.32 -286.9,224.53 -1010.37,99.79 -1434.48,149.69 -224.53,24.95 -511.42,99.79 -636.16,-49.9 -137.21,-162.16 -174.63,-436.58 -112.26,-661.11l199.58 -74.84c-237,-24.95 -311.84,112.26 -299.37,361.74 24.95,286.9 137.21,311.84 224.53,461.53 -711,49.9 -972.95,212.05 -1122.64,212.05 -286.9,249.48 -673.58,0 -935.53,-74.84 99.79,99.79 261.95,187.11 436.58,224.53 -299.37,12.47 -511.42,-149.69 -760.9,-237 112.26,99.79 336.79,261.95 523.9,261.95 -324.32,49.9 -598.74,-174.63 -848.22,-261.95 99.79,112.26 237,149.69 361.74,249.48 -286.9,-24.95 -498.95,-187.11 -636.16,-199.58 87.32,37.42 199.58,124.74 324.32,187.11 124.74,62.37 274.42,74.84 374.21,149.69 -424.11,74.84 -735.95,37.42 -1047.8,-149.69 -12.47,12.47 -12.47,24.95 -12.47,24.95 0,0 -12.47,12.47 -12.47,12.47 -49.9,24.95 -24.95,-12.47 -74.84,-62.37 -37.42,-24.95 0,-12.47 -49.9,-24.95l24.95 74.84c37.42,62.37 -12.47,0 49.9,62.37 212.05,187.11 336.79,199.58 561.32,249.48 -349.27,37.42 -548.85,-174.63 -823.27,-261.95l336.79 237c-162.16,-12.47 -261.95,-74.84 -386.69,-124.74 49.9,49.9 137.21,99.79 187.11,174.63 -199.58,-24.95 -249.48,-112.26 -399.16,-174.63 37.42,37.42 74.84,74.84 137.21,112.26l124.74 99.79c-224.53,-24.95 -511.42,-274.42 -711,-374.21 74.84,74.84 174.63,137.21 261.95,212.05l274.42 236.99c-224.53,-37.42 -349.27,-162.15 -486.48,-274.41 -124.74,-99.79 -274.42,-187.11 -424.11,-261.95l561.32 486.47c0,0 12.47,12.47 12.47,24.95 -299.37,-124.73 -623.69,-486.47 -910.58,-586.26l124.74 124.74c37.42,24.95 62.37,49.9 112.26,74.84l711 473.99c-311.84,12.47 -1110.16,-623.68 -1446.96,-735.94 37.42,37.42 0,0 49.9,49.9l773.37 536.37c-561.32,-149.69 -972.95,-648.64 -1596.64,-748.43 -199.58,-12.47 -386.69,0 -561.32,74.84 -598.74,124.74 -399.16,461.53 -1160.06,449.06l286.9 62.37c-261.95,62.37 -237,49.9 -511.42,12.47 137.21,74.84 162.16,74.84 349.27,87.32 -199.58,87.32 -349.27,37.42 -548.85,0 187.11,149.68 286.9,137.2 561.32,99.78 -74.84,137.21 -324.32,411.63 -336.79,449.06l-149.69 311.84c-24.95,62.37 49.9,162.16 -286.9,224.53 99.79,0 162.16,-24.95 237,-49.9 -87.32,187.11 -199.58,149.69 -349.27,261.95l261.95 -74.84c-87.32,124.74 -199.58,137.21 -349.27,212.05 137.21,0 212.05,-49.9 324.32,-87.32 -37.42,187.11 -299.37,199.58 -523.9,249.48 149.69,37.42 324.32,-12.47 461.53,-62.37 -87.32,124.74 -361.74,199.58 -586.27,199.58l0 24.95c224.53,12.47 336.79,-24.95 536.37,-87.32 -62.37,174.63 -349.27,187.11 -536.37,199.58l12.47 436.58c74.84,-12.47 199.58,-24.95 249.48,-49.9 199.58,-87.32 636.16,-1234.9 723.48,-1434.48 224.53,-461.53 648.64,-1085.21 1172.53,-1259.84 -486.48,286.9 -885.64,760.89 -1160.06,1372.1l-735.95 1846.12c137.21,-112.26 224.53,-324.32 299.37,-474 498.95,-1010.37 698.53,-2145.49 1783.75,-2731.74 174.63,-99.79 399.16,-174.63 611.21,-99.79 -286.9,149.69 -523.9,286.9 -636.16,686.05 99.79,-112.25 174.63,-286.89 286.9,-411.62 112.26,-112.26 274.42,-224.53 523.9,-212.05 -212.05,149.69 -673.58,386.69 -760.9,860.68 112.26,-286.9 586.27,-898.1 910.58,-798.31 -237,199.58 -361.74,137.21 -661.11,598.73 -149.69,224.53 -336.79,611.21 -299.37,948.01 -37.42,-274.42 224.53,-698.53 361.74,-898.11 137.21,-199.57 399.16,-561.31 748.43,-548.84 -299.37,224.53 -449.06,237 -748.43,748.42 -174.63,299.37 -311.84,810.79 -286.9,1209.95 99.79,-324.32 87.32,-686.06 324.32,-1135.11 149.69,-274.42 436.58,-673.57 773.37,-735.94 -237,237 -386.69,212.05 -673.58,760.89 -174.63,324.32 -311.84,748.43 -299.37,1172.53 74.84,-162.16 99.79,-411.63 162.16,-598.74 137.21,-399.16 636.16,-1372.1 1047.8,-1259.84 -87.32,149.69 -274.42,124.74 -536.37,486.47 -548.85,760.9 -598.74,1496.85 -611.21,2457.33 149.69,-311.84 62.37,-1022.85 361.74,-1746.33 149.69,-349.27 636.16,-1160.05 985.43,-1072.73 -62.37,162.15 -723.48,249.47 -1035.32,1758.79 -87.32,399.16 -137.21,823.27 -174.63,1234.9 -24.95,199.58 -37.42,399.16 -74.84,611.21 -37.42,212.05 -99.79,399.16 -124.74,561.32 399.16,-1147.59 286.9,-2881.44 1172.53,-3804.49 112.26,-124.74 224.53,-324.31 386.69,-261.94 -548.85,536.36 -760.9,972.94 -935.53,1808.68 -87.32,386.69 -137.21,785.85 -187.11,1185.01 -62.37,411.63 -162.16,748.43 -261.95,1122.64l112.25 -0.02c374.21,-1234.9 336.79,-2419.91 760.9,-3268.12 137.21,-274.42 399.16,-686.06 598.74,-785.85 249.48,62.37 399.16,162.16 723.48,199.58 399.16,37.42 1209.95,-49.9 1571.69,-199.58 286.9,-124.73 249.48,-261.94 673.58,-299.36 1010.37,-187.11 523.9,-124.74 1322.22,-349.27 349.27,-99.79 1397.06,-199.58 1484.38,-149.69 174.63,87.32 299.37,1022.84 985.43,785.84 62.37,-224.52 -87.32,-561.31 -124.74,-823.26 386.69,-12.47 661.11,-12.47 723.48,-361.74 174.63,-898.11 -1085.22,-823.27 -1209.95,-935.53 -137.21,-137.21 -37.42,-324.32 -311.84,-498.95 -74.84,-49.9 -124.74,-62.37 -174.63,-112.26 261.95,0 336.79,-99.79 548.85,0 124.74,62.37 274.42,187.11 424.11,261.95 174.63,87.32 436.58,112.26 523.9,162.16 112.26,74.84 561.32,673.58 1247.38,785.85 536.37,87.32 760.9,-199.58 461.53,-561.32 237,37.42 424.11,112.26 673.58,12.47 199.58,-74.84 349.26,-274.42 149.69,-486.48l-910.58 -698.53c-87.32,-49.9 -24.95,-12.47 -87.32,-62.37 0,0 -37.42,-49.9 -62.37,-62.37 -99.79,-99.79 -62.37,-37.42 -124.74,-137.21 -124.74,-112.26 -187.11,-212.05 -286.9,-336.79l-237 -224.53c-224.53,-237 -124.74,-62.37 -249.48,-187.11 87.32,-62.37 187.11,-49.9 324.32,-37.42 99.79,0 174.63,0 261.95,49.9 472.83,315.21 1115.57,443.6 1484.38,137.22 169.58,-141.37 237.9,-332.03 24.94,-474.01 -139.09,-86.94 -268.91,-118.75 -436.57,-174.63 -124.74,-37.42 -199.58,-37.42 -299.37,-124.74 -230.54,-116.55 -368.97,-170.45 -586.27,-249.48 -74.84,-24.95 -162.16,-62.37 -224.53,-87.32l-386.69 -174.63c-963.95,-468.52 -1141.38,-207.87 -2232.83,24.96zm12910.33 -2320.12c324.32,0 536.37,-212.05 711,-374.21 149.69,-124.74 324.32,-399.16 336.79,-686.06 -174.63,311.84 -162.16,424.11 -449.06,598.74 -187.1,124.74 -573.79,212.06 -598.73,461.53zm860.69 -4577.86c99.79,-49.9 274.42,-237 673.58,-436.58 523.9,-261.95 1708.9,-698.53 2133.01,-1047.8 62.37,-49.9 49.9,-37.42 87.32,-87.32 -124.74,49.9 -212.05,124.74 -349.27,199.58 -386.69,187.11 -798.32,324.32 -1197.48,474 -486.48,187.11 -1135.11,561.33 -1347.16,898.12zm237 1347.16c474,261.95 785.85,24.95 1160.06,-162.16 399.16,-199.58 785.85,-224.53 1247.38,-324.32 449.06,-99.79 798.32,-249.48 1122.64,-449.06l923.06 -623.69c-735.95,299.37 -711,661.11 -2133.01,923.06 -1796.24,324.33 -1172.55,723.49 -2320.13,636.17zm-21417.42 8906.26c74.84,124.74 87.32,324.32 24.95,461.53 -274.42,536.37 199.58,399.16 137.21,-99.79 -24.95,-149.69 -99.79,-274.42 -162.16,-361.74zm3604.91 349.26c-37.42,112.26 -99.79,187.11 -124.74,336.79 -37.42,212.05 24.95,249.48 49.9,386.69 24.95,-399.16 137.21,-661.11 486.48,-898.11 124.74,-87.32 237,-112.26 286.9,-174.63 -237,49.9 -461.53,149.69 -623.69,311.84l-49.9 37.42c-12.47,-12.47 -24.95,0 -24.95,0zm-5051.87 187.11c37.42,-24.95 24.95,-12.47 49.9,-49.9l474 -723.48c286.9,-436.58 386.69,-449.06 636.16,-661.11 -573.79,62.38 -1010.37,1010.38 -1160.06,1434.49zm-149.68 3455.22c24.95,-24.95 24.95,-24.95 49.9,-49.9 12.47,-24.95 24.95,-37.42 37.42,-62.37 274.42,-536.37 386.69,-873.16 773.37,-1459.43l336.79 -498.94c-511.43,224.52 -1072.74,1571.69 -1197.48,2070.64z"/>
  <path class="fil1" d="M23469.5 8109.8l-42.15 -47.45 -124.49 21.57 -2408.44 424.82c-12.54,18.81 -26.6,40.47 -41.35,63.61l2491.94 -440.99 1242.28 1482.03 -3376.66 616.55 -63.01 -68.86 2929.79 -535.29c161.19,-29.84 247.26,-108.6 193.54,-178.37l-930.08 -1118.71c-52.81,-60.48 -219.91,-91.01 -376.46,-61.62l-2160.29 383.58c-43.55,70.99 -85.13,142.34 -104.83,182.63l377.43 -67.26 5.56 8.84 10.64 13.02 15.76 17.22 51.08 -5.02 4.65 -0.46 10.65 13.03 -32.06 7.83 -9.29 0.91 -124.49 21.56 -23.22 2.27 -27.86 2.73 -23.22 2.27 -133.78 22.47 -23.22 2.27 -27.87 2.73 -23.22 2.27 -41.34 8.74 -8.71 0.85c-5.8,15.72 -11.39,31.12 -16.79,46.22l55.88 71.87 -69.21 11.46 -13.72 -5.26c-3.65,10.87 -7.18,21.58 -10.62,32.18 2.72,-2.19 6.69,-4.51 12.22,-6.97 13.48,-6.01 32.06,-7.83 64.11,-15.65 32.06,-7.83 55.28,-10.1 69.67,-6.82 13.93,-1.36 23.67,2.37 33.42,6.1 5.11,4.2 15.3,12.57 25.95,25.6 10.65,13.02 16.21,21.85 16.66,26.5 0.46,4.65 -3.74,9.74 -17.22,15.75 -13.47,6.01 -32.06,7.83 -64.11,15.65 -32.06,7.83 -55.27,10.11 -69.66,6.82 -13.94,1.37 -23.68,-2.37 -33.43,-6.1 -5.1,-4.19 -15.29,-12.57 -25.94,-25.6 -8.37,-10.23 -13.58,-17.87 -15.66,-22.93 -4.29,13.38 -8.43,26.53 -12.42,39.51 5.12,6.03 9.5,10.88 12.26,13.15 14.84,7.92 38.97,14.94 67.29,16.85 23.67,2.38 51.08,-5 88.25,-8.64 36.69,-8.28 64.56,-11.01 82.23,-22.11l5.11 4.19 45.99 -9.19 73.86 -11.93 45.99 -9.19 -15.75 -17.22 -5.56 -8.83 18.58 -1.82 46 -9.19 -15.75 -17.22 -10.65 -13.02 13.93 -1.37 -15.75 -17.21 -10.65 -13.03 9.28 -0.91 32.06 -7.83 23.22 -2.27 -1.56 79.86 -1.92 28.32 64.57 -11.01 69.21 -11.47 36.7 -8.28 -0.46 -4.65 5.11 4.19 36.69 -8.28 46 -9.2 27.86 -2.72 18.59 -1.82 41.34 -8.74 23.22 -2.27 45.99 -9.2 32.06 -7.83 36.7 -8.28 55.28 -10.11 9.28 -0.9 36.7 -8.29 9.29 -0.91 138.42 -22.92 9.29 -0.91 36.7 -8.29 9.28 -0.9 64.57 -11.02 45.99 -9.19 45.99 -9.2 18.58 -1.81 27.41 -7.38 41.35 -8.74 32.06 -7.83 45.99 -9.19 -5.1 -4.2c0,0 0,0 0,0 23.67,2.38 51.09,-5 83.6,-8.18 9.29,-0.91 23.22,-2.27 36.7,-8.28 4.65,-0.46 4.65,-0.46 9.28,-0.91l27.42 -7.38 69.21 -11.47 36.69 -8.28 -0.45 -4.65 5.1 4.2 36.7 -8.29 73.86 -11.92 64.56 -11.01 -39.42 -19.59 -104.35 -60.12 36.69 -8.28c9.29,-0.91 18.58,-1.82 27.87,-2.73 18.58,-1.82 32.52,-3.18 45.99,-9.19 23.22,-2.27 36.7,-8.29 54.83,-14.74 18.12,-6.47 36.24,-12.93 39.98,-22.68 8.38,-10.19 2.83,-19.03 -3.18,-32.51 -5.56,-8.83 -15.76,-17.22 -30.14,-20.49l-10.65 -13.03 -15.75 -17.21 -11.11 -17.68 -41.8 4.1c-9.28,0.9 -23.22,2.27 -41.8,4.09 -13.93,1.36 -32.51,3.18 -45.99,9.19 -23.22,2.27 -41.35,8.74 -54.83,14.74 -4.64,0.46 -9.28,0.91 -8.83,5.56l-0.45 -4.65 -46 9.2 -133.77 22.47 -23.22 2.27 -27.87 2.73 -23.22 2.27 -156.55 29.39 -18.58 1.82 -27.87 2.73 -9.28 0.9 -101.28 19.29 -9.28 0.91 -27.87 2.73 -18.58 1.82 -41.34 8.74 -5.56 -8.83 -5.56 -8.83 -15.75 -17.22 -10.65 -13.03 -5.56 -8.83 1331.8 -238.2c55.28,-10.1 111.93,-6.26 155.09,3.58l-35.79 17.57 84.97 5.75c0,0 5.1,4.19 5.1,4.19l10.65 13.03 -58.11 29.12 84.96 5.76 15.76 17.21 -58.11 29.13 84.96 5.75 15.75 17.22 -58.11 29.13 84.97 5.75 15.75 17.22 -58.11 29.13 84.97 5.75 15.75 17.21 -58.11 29.13 89.61 5.3 15.75 17.22 -58.1 29.13 89.61 5.29 15.75 17.22 -58.11 29.13 89.61 5.29 15.76 17.22 -58.11 29.13 89.61 5.29 15.75 17.22 -58.11 29.13 89.61 5.3 15.76 17.21 -58.11 29.13 89.61 5.3 15.75 17.22 -58.11 29.13 89.62 5.29 15.75 17.22 -58.11 29.13 89.61 5.29 15.75 17.22 -57.65 33.78 89.61 5.29 15.75 17.22 -57.65 33.78 89.61 5.29 15.75 17.22 -57.65 33.78 89.61 5.29 15.76 17.22 -57.66 33.78 89.61 5.29 15.76 17.22 -57.66 33.78 89.61 5.29 10.65 13.03c0.46,4.64 5.11,4.19 5.56,8.83l-57.65 33.77 56.64 3.84c-11.66,24.58 -51.64,47.25 -111.57,57.81l-2949.38 574.77 -309.49 -335.44c-0.9,-9.29 -2.27,-23.22 -3.18,-32.52 -0.91,-9.28 -1.82,-18.58 -2.27,-23.22 -0.91,-9.28 -1.82,-18.58 -6.92,-22.76 -6.47,-18.13 -7.83,-32.06 -18.93,-49.72l-11.56 -22.31 -11.56 -22.31 -6.01 -13.48 -6.01 -13.48 -16.21 -21.85c-21.26,-30 -46.96,-59.54 -77.09,-88.67 -2.9,13.9 -5.69,27.79 -8.41,41.7 16.33,18.13 30.14,35.94 44.13,55.68l16.21 21.85 6.01 13.48 6.01 13.48 11.56 22.31 11.56 22.31c6.01,13.48 12.47,31.61 18.48,45.08 0.45,4.65 0.91,9.29 1.36,13.94l-128.07 -139.48c-6.7,37.85 -13.04,76.37 -19.38,116.41l660.98 718.37 59.55 608.42 -1394.54 267.8 -69.32 -575.06c-31.61,9.66 -63.93,18.05 -97.06,24.89l3.09 31.62c-382.3,70.24 -760.42,135.39 -1124.61,199.17 -525.38,93.63 -1014.51,174.33 -1429.33,247.75 -419.47,73.89 -770.17,131.66 -1014.97,169.69 -244.79,38.02 -383.22,60.95 -383.22,60.95 0,0 143.08,-23.39 386.5,-75.35 243.88,-47.32 589.03,-113.93 1008.05,-192.45 419.01,-78.52 906.77,-173.16 1427.51,-266.33 282.28,-53.1 573.21,-104.22 868.05,-157.29 -79.74,-11.19 -143.63,-32.26 -193.39,-62.27l-3540.14 645.39 -823.18 -1607.45 3586.58 -627.71 48.16 60.93 -3138.79 555.74c-165.84,30.3 -270.94,106.23 -236.25,173.17l624.8 1209.56c40.24,75.77 207.34,106.3 382.47,75.1l3019.86 -550.37c-15.97,-19.69 -28.89,-41.36 -38.96,-64.86 -55.51,-0.22 -114.68,-2.01 -176.78,-6.21 -75.67,-6.66 -155.99,-12.87 -232.58,-28.81l-55.28 10.1c-61.27,-3.4 -133.21,-19.8 -205.15,-36.21 -52.91,-13.59 -105.82,-27.15 -154.53,-45.84 -24.13,-7.01 -48.72,-18.67 -72.85,-25.69 -14.39,-3.29 -24.58,-11.66 -34.33,-15.4 -9.74,-3.74 -24.59,-11.66 -34.34,-15.4 -44.07,-19.13 -88.6,-42.9 -128.48,-67.13 -10.19,-8.38 -19.94,-12.12 -30.14,-20.5l-14.84 -7.92 -14.84 -7.92c-10.2,-8.38 -19.95,-12.11 -25.49,-20.95 -10.2,-8.37 -15.3,-12.56 -25.5,-20.94 -10.19,-8.38 -15.29,-12.57 -25.49,-20.95 -10.19,-8.37 -15.3,-12.57 -25.49,-20.94 -15.3,-12.57 -31.05,-29.79 -41.7,-42.82l-21.33 -26.05 -16.2 -21.86 -10.65 -13.02 -6.02 -13.48 -16.2 -21.85c-17.12,-31.16 -34.23,-62.3 -42.06,-94.36 -6.02,-13.47 -7.83,-32.06 -13.84,-45.54 -0.9,-9.28 -1.36,-13.93 -2.27,-23.21 -0.91,-9.29 -1.36,-13.94 -2.27,-23.22 -0.91,-9.29 -1.37,-13.94 -2.27,-23.22 -0.91,-9.29 3.28,-14.39 2.37,-23.68l-1.36 -13.93 3.28 -14.39c-0.91,-9.28 3.29,-14.39 2.38,-23.67 6.1,-33.43 17.3,-62.66 28.51,-91.89 3.74,-9.74 7.92,-14.84 11.66,-24.58 3.74,-9.74 7.92,-14.84 11.66,-24.58 7.92,-14.84 15.86,-29.69 28.42,-44.99 20.5,-30.13 46.09,-56.08 71.68,-82.04 33.97,-36.15 77.69,-68.56 121.41,-100.98l32.06 -7.83c8.83,-5.55 21.86,-16.2 30.7,-21.76 30.7,-21.76 70.68,-44.43 106.01,-66.64 39.98,-22.68 80.42,-40.7 120.86,-58.73 80.87,-36.05 167.3,-63.27 258.37,-90.93l15.75 17.22c-86.89,22.57 -168.21,53.97 -244.89,84.93 -40.44,18.02 -80.88,36.05 -116.21,58.27 -35.33,22.21 -71.13,39.78 -101.82,61.54 -61.38,43.51 -117.67,91.22 -160.03,137.57 -84.7,92.69 -130.89,195.68 -131.09,289.48 -4.39,98.9 32.57,189.06 92.75,276.95 64.37,82.79 156.61,162.85 270.7,226.71 114.1,63.86 250.51,116.15 389.74,149.41 71.94,16.4 143.88,32.81 210.72,45.02 71.49,11.76 142.52,18.87 208.9,26.44 57.81,4.24 112.98,7.06 165.15,8.51 -1.91,-4.84 -3.72,-9.73 -5.4,-14.73l-0.93 0.04c-9.28,0.91 -13.93,1.37 -13.93,1.37 0,0 4.65,-0.46 13.93,-1.37l0.91 -0.09c-14.61,-43.35 -20.6,-92.33 -19.06,-146.34 -21.78,-1.96 -42.94,-4.27 -62.32,-5.13 -33.43,-6.1 -66.39,-7.57 -99.81,-13.67 -28.78,-6.56 -57.1,-8.48 -85.87,-15.04 -24.13,-7.01 -47.82,-9.38 -67.3,-16.85 -19.03,-2.83 -38.51,-10.3 -52.9,-13.58 -28.78,-6.56 -43.16,-9.84 -43.16,-9.84 0,0 19.03,2.82 51.99,4.28 32.97,1.47 75.68,6.66 132.78,15.14 47.35,4.74 108.63,8.12 169.92,11.5 -24.13,-7 -47.82,-9.38 -71.49,-11.75 -71.03,-7.12 -133.23,-19.79 -185.68,-28.72 -104.91,-17.87 -167.55,-35.18 -167.55,-35.18 0,0 19.03,2.83 52.45,8.94 33.42,6.1 76.13,11.3 133.23,19.78 28.32,1.92 57.09,8.48 90.06,9.95 32.97,1.46 66.39,7.56 99.36,9.03 32.97,1.47 71.03,7.11 108.63,8.13l2.54 0.08c1.68,-13.77 3.74,-27.81 6.21,-42.12 -163.68,-23.1 -343.27,-60.85 -439.39,-94.02l-29.13 -58.11c14.84,7.92 29.69,15.86 49.18,23.32 49.17,23.32 107.64,45.73 107.64,45.73 0,0 -44.53,-23.77 -84.87,-52.65 -25.49,-20.95 -50.54,-37.25 -65.83,-49.82 4.64,-0.46 4.64,-0.46 8.83,-5.56 8.83,-5.56 13.02,-10.65 17.21,-15.75 4.2,-5.1 3.74,-9.74 8.38,-10.2 -0.45,-4.64 4.19,-5.1 3.74,-9.74 -0.46,-4.64 -0.91,-9.28 -0.91,-9.28 0,0 -4.65,0.45 -8.83,5.55 -4.65,0.46 -4.19,5.11 -8.83,5.56 -4.65,0.46 -8.83,5.56 -13.03,10.65 -4.19,5.1 -13.47,6.01 -18.12,6.47 -4.65,0.45 -13.94,1.36 -18.58,1.82 0,0 -4.65,0.45 -4.65,0.45 0,0 -4.65,0.46 -4.65,0.46 0,0 0,0 -4.65,0.45l-9.28 0.91 -4.65 0.45c0,0 -4.65,0.46 -4.65,0.46 -4.65,0.45 -9.74,-3.74 -9.74,-3.74 -28.77,-6.56 -53.81,-22.87 -73.3,-30.33 -5.56,-8.83 -11.11,-17.67 -16.66,-26.51 35.24,24.69 109.09,12.77 122.11,2.12 0.47,4.65 -59,19.85 -75.11,-48.91 -0.45,-4.65 -5.55,-8.83 -6.01,-13.48 8.83,-5.55 17.67,-11.1 17.67,-11.1 0,0 24.33,-86.78 23.62,-189.87 -0.72,-103.09 -78.66,-132.97 -74.37,-184.97 4.73,-47.36 14.12,-95.16 223.68,-157.87l123.64 161.39c-9.28,0.91 -13.48,6.01 -18.13,6.47 -8.83,5.56 -13.47,6.01 -18.12,6.47 -4.65,0.45 -4.19,5.1 -4.19,5.1 0,0 4.64,-0.46 9.28,-0.91 4.65,-0.46 13.48,-6.01 22.77,-6.92 4.64,-0.46 8.83,-5.56 18.12,-6.47l21.77 30.7c-13.48,6.01 -22.77,6.92 -31.61,12.47 -8.83,5.55 -13.48,6.01 -17.67,11.1 -4.65,0.46 -8.83,5.56 -8.83,5.56 0,0 4.64,-0.46 9.28,-0.91 4.65,-0.46 13.48,-6.01 22.77,-6.92 9.28,-0.91 18.12,-6.47 32.06,-7.83l48.62 65.57c-9.29,0.91 -13.48,6.02 -18.13,6.47 -26.96,12.01 -44.63,23.13 -58.11,29.13 -13.02,10.65 -21.4,20.85 -20.95,25.49 -4.19,5.1 -3.73,9.74 -3.73,9.74 0,0 4.64,-0.45 18.12,-6.46 8.83,-5.56 26.96,-12.02 45.09,-18.48 18.12,-6.47 40.89,-13.38 63.65,-20.3 0,0 4.65,-0.46 4.65,-0.46l10.65 13.03c-8.83,5.55 -18.13,6.46 -26.96,12.01 -8.83,5.56 -17.67,11.1 -22.31,11.56 -4.19,5.1 -13.02,10.65 -17.67,11.1 -8.38,10.2 -12.57,15.3 -16.76,20.4 -4.2,5.11 -3.74,9.74 -3.74,9.74 0,0 4.64,-0.45 13.48,-6.01 8.83,-5.55 17.67,-11.1 31.15,-17.11 4.19,-5.11 13.47,-6.02 22.31,-11.56 8.83,-5.56 18.12,-6.47 22.31,-11.56 4.64,-0.46 9.28,-0.91 13.47,-6.01l10.65 13.02c-17.67,11.11 -35.33,22.22 -48.81,28.22 24.13,7.01 52.45,8.93 80.77,10.85l165.42 211.25c10.79,-28.27 22.42,-57.16 34.78,-86.59l-627.8 -804.88 950.81 -166.61c8.53,-34 17.24,-68.12 26.21,-102.27l-4715.3 831.73 -129.14 22.01 80.93 826.72 864.32 1692.52c0,0 1764.84,-364.99 4115.89,-824.88l1564.57 -303.19c2192.13,-406.82 3520.1,-588.39 3520.1,-588.39l-74.12 -757.05 -47.71 -56.29 -1246.92 -1481.58zm-3144.9 2361.61c41.8,-4.1 83.15,-12.84 120.3,-16.47 41.35,-8.74 83.15,-12.83 119.85,-21.11 41.34,-8.74 78.04,-17.01 119.84,-21.1 78.04,-17.02 147.26,-28.48 206.73,-43.68 119.39,-25.75 201.17,-52.52 201.17,-52.52 0,0 -84.06,3.54 -204.81,15.36 -60.38,5.91 -134.69,13.18 -208.55,25.1 -37.15,3.64 -78.95,7.73 -120.29,16.47 -41.8,4.09 -83.15,12.83 -120.3,16.47 -41.35,8.74 -83.15,12.83 -119.85,21.1 -41.34,8.74 -78.04,17.02 -119.84,21.11 -58.28,12.7 -111.65,22.32 -159.7,32.7 -23.39,17.3 -47.73,34.27 -73.01,50.94 9.59,-0.88 19.48,-1.81 29.62,-2.8 60.38,-5.91 134.69,-13.19 208.55,-25.11 41.79,-4.09 78.95,-7.73 120.29,-16.46zm994.45 -570.93c5.55,8.83 946.66,-148.93 930.45,-170.78 -5.55,-8.84 -946.21,153.57 -930.45,170.78zm-175.94 -24.98c21.3,26.05 1207.3,-216.64 1202.66,-216.18 -16.21,-21.87 -1208.21,207.34 -1202.66,216.18zm-3087.61 503.85c-6.01,-13.48 -419.92,69.24 -414.82,73.43 6.01,13.48 415.73,-64.14 414.82,-73.43zm-1761.9 299.06c11.55,22.31 1069.79,-184.42 1064.23,-193.26 -15.75,-17.21 -1069.79,184.43 -1064.23,193.26zm-181.5 -33.81c11.56,22.31 1359.67,-240.93 1359.21,-245.58 -10.65,-13.02 -1370.31,227.91 -1359.21,245.58zm-195.32 -79.35c11.56,22.31 1682.5,-295.98 1677.41,-300.17 -11.57,-22.31 -1682.97,291.34 -1677.41,300.17zm1432.71 -309.04c-11.11,-17.67 -1245.37,211 -1239.36,224.47 10.65,13.03 1244.91,-215.64 1239.36,-224.47zm5065.99 -1513.39l7.83 32.06 36.7 -8.28 -39.88 -24.23 -4.65 0.45zm-496.14 104.84c4.64,-0.46 9.28,-0.91 13.93,-1.37 4.65,-0.45 4.65,-0.45 4.19,-5.1 0,0 -0.45,-4.65 -5.1,-4.19 -0.45,-4.65 -5.1,-4.2 -5.1,-4.2 0,0 -4.65,0.46 -4.65,0.46 -4.65,0.45 -9.29,0.91 -13.93,1.36l-13.94 1.37 11.11 17.67 13.49 -6zm-711.16 111.81l3.18 32.51 36.71 -8.28 -39.89 -24.23zm-504.98 110.39c5.56,8.83 10.65,13.02 11.1,17.67 0.46,4.65 5.11,4.19 9.74,3.74 4.65,-0.46 9.29,-0.91 18.58,-1.82 9.29,-0.91 13.94,-1.36 13.48,-6.01 0,0 4.2,-5.1 -0.45,-4.65 -0.46,-4.65 -5.56,-8.83 -11.11,-17.67 -5.55,-8.83 -10.65,-13.03 -11.1,-17.67 -5.1,-4.2 -5.1,-4.2 -9.74,-3.74 -4.65,0.45 -9.29,0.91 -18.58,1.82 -9.29,0.9 -13.94,1.36 -13.48,6.01 0,0 -4.19,5.1 0.45,4.64 5.1,4.2 5.55,8.85 11.11,17.68zm1268.88 -353.97l3.18 32.52 41.35 -8.74 -39.88 -24.23 -4.65 0.45zm-654.05 120.29c-5.1,-4.19 -5.1,-4.19 -9.74,-3.74 -4.65,0.46 -9.29,0.91 -18.58,1.82l-9.29 0.91 32.41 43.72 9.29 -0.91c9.29,-0.91 13.93,-1.36 18.13,-6.47 4.64,-0.45 4.19,-5.1 4.19,-5.1 -0.46,-4.65 -5.56,-8.83 -10.65,-13.02 -10.21,-8.37 -15.31,-12.56 -15.76,-17.21zm-4631.7 1447.43c230.41,-41.31 374.13,-153.84 317.69,-251.47 -56,-92.99 -285.75,-140.83 -511.51,-99.98 -230.4,41.32 -374.12,153.85 -318.13,246.84 47.61,103.17 276.9,146.37 511.95,104.61zm131.61 -92.6c13.48,-6.01 21.85,-16.2 26.05,-21.31 4.19,-5.1 8.37,-10.19 12.57,-15.29 4.19,-5.11 3.74,-9.74 7.92,-14.85 -0.46,-4.64 3.74,-9.74 3.28,-14.38 -0.45,-4.65 -0.91,-9.29 -0.91,-9.29 -0.45,-4.65 -0.45,-4.65 -5.55,-8.83 -0.46,-4.65 -5.11,-4.19 -5.56,-8.83 -5.1,-4.19 -10.19,-8.38 -10.19,-8.38 -10.2,-8.38 -10.2,-8.38 -10.2,-8.38 0,0 0,0 0.46,4.64 0.45,4.65 0.45,4.65 -3.74,9.74 0,0 -4.2,5.11 -3.74,9.74 0.45,4.65 -4.2,5.11 -3.74,9.75 -4.19,5.1 -7.92,14.84 -16.76,20.4 -4.2,5.1 -8.83,5.55 -13.03,10.64 -11.1,-17.67 -23.13,-44.62 -28.67,-53.46 -6.01,-13.47 -30.14,-20.49 -53.36,-18.21 -23.22,2.27 -64.57,11.01 -64.57,11.01 0,0 21.86,-16.21 72.5,-25.86 55.28,-10.1 174.12,6.4 174.12,6.4 0,0 -17.11,-31.14 -113.65,-59.2 -96.52,-28.06 -137.86,-19.33 -150.89,-8.67 -17.67,11.1 15.75,17.22 -7.01,24.13 -23.22,2.27 -41.35,8.74 -46.45,4.54 -10.65,-13.02 1.92,-28.32 -44.53,-23.77 -45.99,9.19 -67.39,30.04 -53.46,28.67 13.94,-1.36 37.15,-3.64 42.71,5.2 0,0 0,0 0,0 0,0 0,0 0,0 5.56,8.83 -17.67,11.1 -40.89,13.37 -23.22,2.28 -6.01,-13.48 -29.69,-15.85 -24.12,-7.01 -65.47,1.72 -116.2,58.27 -51.19,51.9 -34.07,83.04 -34.07,83.04 0,0 84.15,-50.44 139.43,-60.54 55.28,-10.1 88.7,-3.99 88.7,-3.99 0,0 -41.34,8.74 -64.56,11.01 -23.22,2.27 -35.79,17.57 -25.14,30.6 5.56,8.83 22.22,35.33 29.13,58.1 -9.74,-3.73 -19.04,-2.82 -28.78,-6.55 -14.38,-3.29 -24.12,-7.02 -33.87,-10.75 -5.11,-4.2 -9.74,-3.74 -14.39,-3.29 -4.65,0.46 -5.11,-4.19 -9.74,-3.74 -5.11,-4.19 -10.2,-8.37 -14.85,-7.92 -4.64,0.46 -5.1,-4.19 -5.1,-4.19 0,0 0,0 0.46,4.65 0.45,4.64 0.45,4.64 0.91,9.28 0.45,4.65 0.45,4.65 0.9,9.29 0.46,4.65 5.11,4.19 5.56,8.83 0.46,4.65 5.1,4.19 10.2,8.37 5.1,4.2 10.19,8.38 14.84,7.93 5.1,4.19 10.19,8.37 19.94,12.11 9.74,3.74 14.85,7.92 24.13,7.01 14.39,3.29 28.78,6.56 43.17,9.85 -99.36,-9.04 -177.31,-38.92 -200.43,-83.55 -39.79,-71.13 69.06,-156.8 239.54,-187.55 170.49,-30.76 342.69,3.96 382.47,75.09 23.12,44.65 -14.14,95.19 -85.27,134.97zm-619.33 -51.91c-0.46,-4.65 -1.37,-13.93 2.83,-19.04 7.01,-24.12 27.96,-49.63 53.56,-75.57 30.69,-21.77 70.68,-44.43 120.4,-63.36 45.08,-18.48 100.36,-28.59 150.99,-38.23 55.74,-5.45 106.82,-10.45 154.18,-5.71 46.9,0.1 90.07,9.94 123.48,16.04 33.42,6.11 62.65,17.31 82.59,29.43 9.74,3.74 19.94,12.11 25.04,16.31 5.1,4.19 10.19,8.37 15.29,12.57 5.11,4.19 5.56,8.83 10.65,13.02 5.11,4.19 5.56,8.83 5.56,8.83 5.1,4.2 5.56,8.83 5.56,8.83 0,0 -0.46,-4.64 -5.56,-8.83 -0.46,-4.65 -5.1,-4.19 -10.19,-8.37 -5.11,-4.2 -10.2,-8.38 -15.3,-12.57 -5.1,-4.2 -10.2,-8.38 -19.95,-12.12 -9.74,-3.74 -14.84,-7.92 -29.68,-15.85 -19.49,-7.47 -48.72,-18.67 -82.14,-24.79 -33.42,-6.1 -71.48,-11.76 -118.39,-11.85 -42.25,-0.56 -93.79,-0.2 -139.78,8.99 -50.64,9.65 -96.63,18.83 -142.17,32.67 -45.54,13.84 -80.87,36.05 -106.92,57.36 -26.05,21.31 -46.99,46.8 -54.47,66.29 6.01,13.48 6.47,18.13 6.92,22.77 0.46,4.65 0.91,9.28 1.82,18.58 0.45,4.65 5.56,8.83 6.47,18.13 0.45,4.64 5.55,8.83 10.65,13.02 15.75,17.22 36.6,38.62 65.83,49.82 29.23,11.21 63.11,21.96 96.53,28.06 33.42,6.11 71.48,11.77 104,8.58 14.38,3.29 32.97,1.47 46.9,0.1 13.93,-1.36 27.87,-2.72 37.15,-3.63 13.93,-1.37 23.22,-2.27 32.52,-3.18 9.28,-0.91 18.58,-1.82 23.21,-2.28 13.94,-1.36 18.59,-1.82 18.59,-1.82 0,0 -4.65,0.46 -18.59,1.82 -4.64,0.46 -13.93,1.37 -23.21,2.28 -9.29,0.9 -18.59,1.81 -32.52,3.18 -13.93,1.36 -27.87,2.73 -41.8,4.09 -13.93,1.36 -32.51,3.18 -46.9,-0.1 -32.97,-1.47 -70.58,-2.47 -108.64,-8.13 -38.06,-5.65 -76.59,-15.94 -105.82,-27.15 -34.33,-15.4 -59.37,-31.69 -75.58,-53.56 -5.1,-4.19 -10.19,-8.38 -11.1,-17.67 -0.46,-4.65 -5.56,-8.83 -6.47,-18.13 -4.18,5.1 -9.74,-3.73 -5.54,-8.83zm499.74 171.47c262.46,-49.13 423.85,-172.78 361.39,-283.88 -62,-106.47 -325.17,-160.42 -582.99,-111.74 -262.91,44.49 -423.85,172.78 -366.04,284.34 62.01,106.46 325.18,160.41 587.64,111.28zm-210.48 -377.96c235.05,-41.77 473.63,0.53 530.53,102.8 56.45,97.64 -91.46,215.27 -331.16,257.49 -239.69,42.22 -478.73,-4.72 -535.18,-102.35 -52.26,-102.73 96.11,-215.72 335.81,-257.94zm7200.71 -446.93c175.12,-31.21 231.86,-74.27 194.8,-117.54 -37.06,-43.27 -136.86,-56.94 -311.99,-25.73 -175.12,31.21 -231.86,74.27 -194.8,117.54 37.05,43.25 136.85,56.94 311.99,25.73zm-101.89 -130.7c18.58,-1.82 51.99,4.29 89.06,47.55 32.41,43.72 19.84,59.02 1.71,65.48 -18.58,1.81 -51.99,-4.29 -89.05,-47.56 -32.42,-43.72 -19.85,-59.01 -1.72,-65.47zm-749.42 199.96c32.42,43.72 136.87,56.94 312,25.73 175.12,-31.21 231.86,-74.27 199.45,-117.99 -32.41,-43.73 -136.87,-56.94 -311.99,-25.73 -175.13,31.21 -231.41,78.92 -199.46,117.99zm215.21 -100.79c18.58,-1.82 51.99,4.29 84.41,48.01 32.41,43.72 19.84,59.02 1.71,65.47 -18.58,1.82 -51.99,-4.28 -84.4,-48 -37.06,-43.26 -24.95,-63.2 -1.72,-65.48zm-210.66 147.23c-15.75,-17.22 -81.03,-109.3 -81.03,-109.3l-147.26 28.48c0,0 -29.79,31.05 -117.11,48.97 0,0 83.6,-8.18 104.9,17.87 21.31,26.05 26.86,34.88 37.52,47.9 10.65,13.03 -51.64,47.26 -51.64,47.26l359.54 -63.33c-5.11,-4.17 -93.82,-0.18 -104.92,-17.85zm-13.55 -186.23l-32.41 -43.72 45.99 -9.19 4.65 -0.46 64.47 35.89 41.35 -8.74 -74.21 -39.63c8.83,-5.55 17.67,-11.1 17.21,-15.75 -0.45,-4.65 -1.36,-13.93 -6.92,-22.76 -5.55,-8.83 -10.65,-13.03 -20.4,-16.77 -5.1,-4.19 -14.84,-7.92 -28.77,-6.55 -13.94,1.36 -27.87,2.72 -46.45,4.54l-87.34 17.93 85.68 108.84 37.15 -3.63zm-33.67 -104.56c13.93,-1.36 18.58,-1.82 27.87,-2.72 4.64,-0.46 9.74,3.73 14.38,3.28 5.11,4.19 5.56,8.83 10.65,13.02 5.11,4.2 5.56,8.83 6.01,13.48 0.46,4.65 0.46,4.65 -3.73,9.74 -4.65,0.46 -13.48,6.01 -22.77,6.92l-41.34 8.74 -31.96 -39.07 40.89 -13.39zm-248.63 94.67c5.55,8.83 11.1,17.68 16.2,21.86 5.11,4.19 10.2,8.38 15.3,12.57 9.74,3.74 14.84,7.92 24.58,11.66 9.75,3.74 19.04,2.83 28.33,1.92 9.28,-0.91 23.22,-2.27 41.8,-4.09 23.22,-2.27 36.69,-8.29 45.54,-13.83 8.83,-5.56 13.02,-10.65 12.57,-15.3 -0.46,-4.65 -6.02,-13.48 -11.56,-22.31 -5.56,-8.83 -15.76,-17.22 -20.4,-16.76 -9.74,-3.74 -19.04,-2.83 -28.78,-6.56 -9.28,0.91 -23.22,2.27 -41.8,4.09 -13.93,1.36 -27.41,7.38 -32.06,7.83 -4.65,0.46 -8.83,5.56 -13.02,10.65 -10.65,-13.02 -16.21,-21.86 -16.66,-26.5 -0.46,-4.65 -0.91,-9.29 7.92,-14.85 4.19,-5.1 18.12,-6.46 36.69,-8.28 13.94,-1.36 32.52,-3.18 55.74,-5.46l-10.65 -13.02c-9.29,0.91 -18.58,1.82 -32.52,3.18 -9.28,0.91 -23.21,2.28 -27.86,2.73 -23.22,2.27 -41.35,8.74 -50.18,14.29 -8.83,5.55 -13.02,10.65 -12.11,19.94 0.45,4.65 0.91,9.29 6.01,13.48 -4.19,5.1 1.37,13.93 6.92,22.76zm55.28 -10.09c4.65,-0.45 13.48,-6.01 27.41,-7.37 13.93,-1.37 23.22,-2.28 27.87,-2.73 4.64,-0.46 9.28,-0.91 14.39,3.28 5.1,4.19 10.19,8.38 15.29,12.57 5.1,4.19 5.56,8.83 6.01,13.48 0.46,4.65 -4.19,5.1 -8.83,5.56 -4.64,0.45 -13.48,6.01 -22.76,6.92 -9.29,0.91 -18.58,1.82 -27.87,2.72 -4.65,0.46 -14.39,-3.28 -14.39,-3.28 -5.1,-4.19 -10.19,-8.38 -15.75,-17.22 -5.1,-4.19 -5.55,-8.83 -6.01,-13.47 -4.19,5.09 0,0 4.64,-0.46zm-134.23 17.82c8.83,-5.55 18.12,-6.46 22.31,-11.56 4.19,-5.1 3.73,-9.74 -6.47,-18.12 -5.56,-8.83 -10.65,-13.03 -20.4,-16.76 -9.74,-3.74 -19.04,-2.83 -33.42,-6.11 -13.94,1.37 -27.87,2.73 -46.45,4.55 -9.29,0.91 -18.58,1.82 -32.06,7.83 -9.29,0.91 -22.77,6.92 -27.41,7.37l10.65 13.03c18.12,-6.47 32.06,-7.83 55.27,-10.1 13.94,-1.37 23.22,-2.28 27.87,-2.73 9.29,-0.91 13.93,-1.37 19.04,2.83 5.1,4.19 9.74,3.74 15.29,12.57 5.56,8.83 6.02,13.48 1.37,13.93 -4.19,5.1 -8.83,5.56 -22.77,6.92l-36.69 8.29 10.65 13.02 36.69 -8.28c13.94,-1.37 23.22,-2.28 32.52,-3.19 9.74,3.74 14.84,7.92 19.94,12.12 5.11,4.19 5.56,8.83 6.01,13.48 0.46,4.64 -4.19,5.1 -8.83,5.55 -4.64,0.46 -13.47,6.01 -27.41,7.38 -18.58,1.82 -36.7,8.28 -59.92,10.56l10.65 13.02c9.28,-0.91 23.21,-2.27 32.51,-3.18 13.93,-1.37 23.22,-2.27 32.51,-3.18 23.22,-2.28 36.7,-8.29 45.54,-13.84 8.83,-5.55 13.03,-10.65 17.22,-15.75 -0.45,-4.65 -0.91,-9.28 -6.47,-18.13 -5.55,-8.83 -15.29,-12.56 -25.03,-16.3 -14.39,-3.3 -28.33,-1.93 -42.71,-5.22zm-211.28 -2.76l70.39 96.27 41.34 -8.74 -85.68 -108.84 -27.87 2.73 -39.98 22.67 10.65 13.03 31.15 -17.12zm-170.48 30.76c4.19,-5.11 18.12,-6.47 36.69,-8.29 13.94,-1.36 32.52,-3.18 55.74,-5.45l-10.65 -13.03c-9.29,0.91 -18.58,1.82 -32.52,3.18 -13.93,1.37 -23.22,2.28 -27.86,2.73 -23.22,2.27 -41.35,8.74 -50.18,14.29 -8.83,5.55 -13.02,10.65 -12.11,19.94 0.45,4.65 0.9,9.29 6.01,13.48 5.1,4.19 10.65,13.03 16.2,21.86 5.56,8.83 11.11,17.67 16.21,21.85 5.1,4.19 10.19,8.38 15.3,12.57 9.74,3.74 14.84,7.92 24.58,11.66 9.74,3.74 19.04,2.83 28.32,1.92 9.29,-0.91 23.22,-2.27 41.8,-4.09 23.22,-2.27 36.7,-8.28 45.54,-13.83 8.83,-5.56 13.03,-10.65 12.57,-15.3 -0.45,-4.65 -1.36,-13.93 -11.56,-22.31 -5.55,-8.83 -15.75,-17.22 -20.4,-16.76 -9.74,-3.74 -19.49,-7.47 -28.77,-6.56 -9.29,0.91 -23.22,2.27 -41.8,4.09 -13.94,1.37 -27.42,7.38 -32.06,7.83 -4.65,0.46 -8.83,5.56 -13.03,10.65 -10.65,-13.02 -16.2,-21.85 -16.66,-26.5 -5.55,-8.83 -6,-13.48 -1.36,-13.93zm32.41 43.72c4.65,-0.46 13.48,-6.02 27.41,-7.38 13.94,-1.36 23.22,-2.27 27.87,-2.73 4.65,-0.45 9.28,-0.91 14.39,3.29 5.1,4.19 10.19,8.37 15.29,12.57 5.11,4.19 5.56,8.83 6.02,13.47 0.45,4.65 -4.2,5.11 -8.83,5.56 -4.65,0.46 -13.48,6.01 -22.77,6.92 -9.28,0.91 -18.58,1.82 -27.87,2.73 -4.64,0.45 -9.74,-3.74 -14.38,-3.28 -5.11,-4.2 -10.2,-8.38 -15.76,-17.22 -5.1,-4.19 -5.55,-8.83 -6.01,-13.48 -4.65,0.45 0,0 4.64,-0.45zm-149.43 -41.65l-129.14 22.02 43.07 56.74c18.12,-6.46 36.69,-8.28 50.63,-9.64 13.93,-1.37 27.86,-2.73 32.51,-3.19 9.29,-0.91 13.93,-1.36 19.04,2.83 5.1,4.2 10.19,8.38 15.29,12.57 5.11,4.2 5.56,8.83 6.02,13.48 0.45,4.65 -4.2,5.1 -8.38,10.2 -4.65,0.45 -13.48,6.01 -27.41,7.37 -18.58,1.82 -36.7,8.29 -59.93,10.56l10.65 13.02c9.29,-0.91 23.22,-2.27 32.52,-3.18 13.93,-1.36 23.21,-2.27 32.51,-3.18 23.22,-2.27 36.7,-8.29 45.54,-13.83 8.83,-5.56 13.02,-10.65 17.22,-15.76 -0.46,-4.64 -1.37,-13.93 -6.92,-22.76 -5.56,-8.83 -10.65,-13.02 -20.4,-16.76 -5.11,-4.2 -14.85,-7.92 -28.78,-6.56 -9.29,0.91 -27.87,2.73 -46.45,4.55 -13.93,1.36 -27.41,7.37 -36.7,8.28l-21.76 -30.7 91.98 -18.37 -11.11 -17.69zm-148.72 61.45c-5.56,-8.84 -10.65,-13.03 -20.4,-16.77 -9.74,-3.74 -19.04,-2.83 -33.42,-6.1 -13.94,1.36 -27.87,2.73 -51.09,5 -18.58,1.82 -36.7,8.28 -45.99,9.19 -8.83,5.56 -18.13,6.47 -17.22,15.76 0.46,4.64 0.91,9.28 6.47,18.12 5.55,8.83 15.29,12.57 20.4,16.77 9.74,3.73 19.03,2.82 32.97,1.46 -9.29,0.91 -13.48,6.01 -18.13,6.47 -4.65,0.45 -4.19,5.1 -8.38,10.19 0.46,4.65 0.91,9.29 6.02,13.48 5.55,8.83 10.65,13.02 20.4,16.76 9.74,3.74 19.49,7.47 33.42,6.11 13.93,-1.37 32.51,-3.19 51.09,-5 23.21,-2.28 36.69,-8.29 45.53,-13.84 8.83,-5.55 17.68,-11.1 17.22,-15.75 -0.45,-4.65 -0.91,-9.28 -6.46,-18.13 -5.11,-4.19 -10.2,-8.37 -15.3,-12.57 -5.1,-4.19 -9.74,-3.73 -19.49,-7.46 -4.65,0.45 -14.39,-3.29 -23.68,-2.38 13.48,-6.01 18.13,-6.46 22.31,-11.56 9.73,3.72 8.82,-5.56 3.73,-9.75zm-109.19 34.13c-5.11,-4.19 -9.74,-3.73 -10.65,-13.02 -5.1,-4.19 -5.56,-8.83 -6.01,-13.48 -0.46,-4.65 4.19,-5.1 8.83,-5.55 4.64,-0.46 13.48,-6.02 22.76,-6.93 13.93,-1.36 23.22,-2.27 27.87,-2.72 4.65,-0.46 9.28,-0.91 14.39,3.28 5.1,4.19 9.74,3.74 10.65,13.03 5.1,4.19 5.55,8.83 6.01,13.47 0.45,4.65 -4.2,5.11 -8.83,5.56 -4.65,0.46 -13.48,6.01 -22.77,6.92 -9.28,0.91 -18.58,1.82 -27.86,2.73 -4.65,0.44 -9.75,-3.74 -14.39,-3.29zm94.7 9.48c5.1,4.2 9.74,3.74 10.65,13.03 5.1,4.19 5.56,8.83 6.01,13.48 0.46,4.64 -4.19,5.1 -8.83,5.55 -4.65,0.46 -13.48,6.02 -27.41,7.38 -13.93,1.36 -23.22,2.27 -27.87,2.73 -4.64,0.45 -13.93,1.36 -14.39,-3.29 -5.1,-4.19 -9.74,-3.74 -15.29,-12.57 -5.11,-4.19 -5.56,-8.83 -6.01,-13.47 -0.46,-4.65 4.19,-5.11 8.83,-5.56 4.64,-0.46 13.47,-6.01 27.41,-7.38 13.93,-1.36 23.22,-2.27 27.87,-2.72 9.29,-0.9 19.03,2.82 19.03,2.82zm-194.71 70.65c-4.2,5.1 -18.13,6.47 -36.7,8.28 -13.93,1.37 -32.52,3.19 -55.73,5.46l10.65 13.02c9.28,-0.91 18.58,-1.82 32.51,-3.18 13.93,-1.36 23.22,-2.27 32.51,-3.18 23.22,-2.27 41.35,-8.74 50.18,-14.29 8.83,-5.55 17.67,-11.1 16.76,-20.4 -0.45,-4.65 -0.9,-9.28 -6.46,-18.12 -5.11,-4.2 -10.65,-13.03 -16.66,-26.51 -5.56,-8.83 -11.11,-17.67 -16.21,-21.85 -5.1,-4.2 -10.19,-8.38 -15.3,-12.57 -5.1,-4.2 -14.84,-7.92 -19.49,-7.47 -9.28,0.91 -19.03,-2.83 -28.32,-1.92 -9.28,0.91 -23.22,2.27 -41.8,4.09 -23.22,2.28 -36.7,8.29 -45.54,13.83 -8.83,5.56 -13.02,10.65 -12.57,15.3 0.46,4.65 1.37,13.94 11.56,22.31 5.56,8.83 15.75,17.22 20.4,16.76 9.74,3.74 19.49,7.47 28.78,6.56 9.28,-0.91 23.22,-2.27 41.8,-4.09 13.93,-1.36 27.41,-7.37 32.06,-7.83 4.64,-0.45 8.83,-5.56 13.02,-10.65 10.65,13.03 16.21,21.86 16.66,26.5 -3.73,9.74 -7.92,14.85 -12.11,19.95zm-27.77 -44.18c-4.65,0.46 -13.48,6.02 -27.41,7.38 -13.93,1.36 -23.22,2.27 -27.87,2.73 -4.64,0.45 -9.28,0.91 -14.39,-3.29 -5.1,-4.19 -10.19,-8.37 -15.29,-12.57 -5.11,-4.19 -5.56,-8.83 -6.01,-13.48 -0.46,-4.64 4.19,-5.1 8.83,-5.55 4.64,-0.46 13.47,-6.01 22.76,-6.92 9.29,-0.91 18.58,-1.82 27.87,-2.73 4.64,-0.46 9.74,3.74 14.39,3.28 5.1,4.2 10.19,8.38 15.75,17.22 5.1,4.19 5.55,8.83 6.01,13.48 4.19,-5.1 -0.45,-4.65 -4.64,0.45zm-90.71 79.22l-10.65 -13.03 -105.92 19.75 41.55 -102.54 -6.02 -13.48 -147.25 28.48 6 13.48 105.92 -19.74 -46.19 102.99 10.65 13.02 151.91 -28.93zm-340.96 61.51l87.34 -17.93c27.86,-2.73 41.34,-8.74 49.72,-18.93 8.83,-5.56 7.92,-14.84 -2.27,-23.22 -5.56,-8.83 -15.3,-12.57 -25.04,-16.31 -9.74,-3.74 -23.68,-2.37 -37.61,-1.01 13.48,-6.01 22.76,-6.92 26.96,-12.01 4.19,-5.11 3.74,-9.74 -1.82,-18.59 -5.56,-8.83 -15.75,-17.21 -29.69,-15.85 -14.38,-3.28 -32.97,-1.46 -56.18,0.81l-87.34 17.92 75.93 105.12zm78.14 -63.92c9.74,3.74 14.84,7.92 19.95,12.11 5.1,4.2 5.55,8.83 6.01,13.48 0.45,4.65 -4.19,5.1 -8.83,5.56 -4.65,0.45 -13.48,6.01 -22.77,6.92l-41.34 8.74 -26.86 -34.88 41.35 -8.74c13.46,-6.02 22.74,-6.93 32.49,-3.19zm-70.03 -44.72c9.29,-0.91 18.58,-1.82 23.22,-2.27 4.65,-0.46 9.29,-0.91 14.39,3.28 5.1,4.19 5.1,4.19 10.19,8.38 5.11,4.19 6.02,13.47 1.37,13.93 -4.19,5.1 -13.48,6.01 -27.41,7.38l-41.35 8.73 -26.85 -34.88 46.44 -4.55zm-5238.86 465.9l-16.66 -26.5 27.87 -2.73 -6.01 -13.48 -27.87 2.73 -22.21 -35.33 -27.87 2.72 8.73 41.35 -59.91 10.55 29.42 -82.59 -41.8 4.09 -28.97 87.24 6 13.48 105.92 -19.75 12.02 26.96 41.34 -8.74zm-292.04 -13.61l-22.68 -39.98 92.43 -13.74 -6 -13.48 -133.78 22.48 62.46 111.1 37.15 -3.64 -23.58 -49.26 83.14 -12.83 -10.65 -13.03 -78.49 12.38zm1565.67 -387.7l36.7 -8.29 -23.13 -44.62 46 -9.2 4.65 -0.45 59.82 36.34 41.35 -8.74 -64.93 -40.54c13.48,-6.01 17.67,-11.1 17.22,-15.75 -0.46,-4.65 -1.37,-13.93 -6.93,-22.76 -5.55,-8.83 -10.64,-13.03 -15.75,-17.22 -5.1,-4.19 -14.84,-7.92 -24.13,-7.01 -9.28,0.91 -27.86,2.72 -46.44,4.54l-87.34 17.93 62.91 115.77zm22.05 -110.01c13.94,-1.37 18.58,-1.82 27.87,-2.73 4.65,-0.46 9.74,3.74 14.39,3.28 5.1,4.2 5.55,8.83 10.65,13.03 5.1,4.19 5.55,8.83 6.01,13.48 0.45,4.64 -4.19,5.1 -8.38,10.19 -4.65,0.46 -13.48,6.01 -22.76,6.92l-41.35 8.74 -22.67 -39.98 36.24 -12.93zm-269.93 68.62c0.46,4.65 6.02,13.48 11.56,22.31 5.56,8.83 11.11,17.67 11.56,22.31 5.1,4.19 5.56,8.83 10.65,13.02 5.1,4.2 14.84,7.93 19.94,12.12 9.75,3.74 19.04,2.83 28.33,1.92 9.28,-0.91 23.22,-2.27 41.8,-4.09 23.22,-2.28 36.69,-8.29 45.54,-13.83 8.83,-5.56 13.02,-10.65 17.21,-15.76 -0.45,-4.64 -1.36,-13.93 -6.92,-22.76 -5.55,-8.83 -10.65,-13.03 -20.4,-16.76 -5.1,-4.2 -14.39,-3.29 -24.13,-7.02 -9.28,0.91 -23.21,2.28 -41.8,4.1 -13.93,1.36 -27.41,7.37 -32.06,7.83 -4.64,0.45 -8.83,5.55 -13.02,10.65 -6.01,-13.48 -11.56,-22.31 -12.01,-26.96 -0.46,-4.65 3.74,-9.74 7.92,-14.84 4.19,-5.11 18.13,-6.47 36.7,-8.29 13.93,-1.36 32.51,-3.18 55.73,-5.45l-6.01 -13.48c-9.29,0.91 -18.58,1.82 -32.52,3.18 -13.93,1.36 -23.22,2.27 -32.51,3.18 -23.22,2.28 -41.35,8.74 -54.83,14.74 -8.83,5.56 -17.67,11.11 -16.76,20.4 5.12,4.19 5.58,8.84 6.03,13.48zm67.3 16.86c4.64,-0.45 13.47,-6.01 27.41,-7.37 13.93,-1.36 23.22,-2.27 27.87,-2.73 4.64,-0.45 9.28,-0.91 14.38,3.29 5.11,4.19 5.56,8.83 10.65,13.02 5.11,4.19 5.56,8.83 6.01,13.48 0.46,4.65 -4.19,5.1 -8.83,5.55 -4.64,0.46 -13.47,6.02 -27.41,7.38 -9.28,0.91 -18.58,1.82 -27.86,2.73 -4.65,0.45 -9.75,-3.74 -14.39,-3.29 -5.11,-4.19 -10.2,-8.37 -11.11,-17.67 -5.1,-4.19 -5.55,-8.83 -6.01,-13.48 0.45,4.64 4.65,-0.45 9.29,-0.91zm-129.69 64.27c-4.65,0.46 -13.48,6.02 -27.41,7.38 -18.58,1.82 -36.7,8.28 -59.93,10.56l6.01 13.48c9.29,-0.91 23.22,-2.28 32.52,-3.19 13.93,-1.36 23.22,-2.27 32.51,-3.18 23.22,-2.27 36.7,-8.28 45.54,-13.83 8.83,-5.56 17.67,-11.11 17.22,-15.75 4.19,-5.11 -0.91,-9.29 -1.82,-18.58 -5.56,-8.84 -10.65,-13.03 -20.4,-16.77 -9.74,-3.74 -19.04,-2.83 -32.97,-1.46 13.93,-1.37 18.13,-6.47 22.31,-11.56 4.19,-5.1 3.74,-9.74 -1.82,-18.58 -5.55,-8.83 -10.65,-13.03 -15.75,-17.22 -9.74,-3.74 -19.04,-2.83 -28.78,-6.56 -13.93,1.37 -27.86,2.73 -46.44,4.55 -9.29,0.91 -23.22,2.27 -32.06,7.83 -9.29,0.91 -18.57,1.82 -27.87,2.73l6.01 13.48c18.13,-6.47 36.7,-8.29 55.28,-10.11 13.93,-1.36 23.22,-2.27 27.87,-2.73 4.65,-0.45 13.93,-1.36 19.03,2.83 5.11,4.2 9.74,3.74 10.65,13.03 5.56,8.83 6.01,13.48 1.37,13.93 -4.2,5.1 -13.48,6.01 -22.77,6.92l-37.16 3.63 6.01 13.48 36.7 -8.29c13.93,-1.36 23.22,-2.27 32.51,-3.18 5.11,4.19 10.2,8.38 15.3,12.57 5.1,4.19 5.56,8.83 1.36,13.93 -4.19,5.11 -3.73,9.75 -13.02,10.66zm-211.17 -49.66l55.98 92.99 36.71 -8.29 -62.01 -106.46 -27.86 2.72 -45.08 18.48 6.46 18.13 35.8 -17.57zm-170.94 26.11c4.19,-5.11 18.12,-6.47 36.7,-8.29 13.93,-1.36 32.51,-3.18 55.73,-5.45l-6.01 -13.48c-9.29,0.91 -18.58,1.82 -32.52,3.18 -13.93,1.36 -23.22,2.27 -32.51,3.18 -23.22,2.28 -41.35,8.74 -54.83,14.74 -8.83,5.56 -17.67,11.11 -16.76,20.4 0.46,4.65 0.91,9.29 1.37,13.94 0.45,4.65 6.01,13.48 11.55,22.31 5.56,8.83 11.11,17.67 11.56,22.31 5.1,4.19 5.56,8.83 10.65,13.02 5.1,4.2 14.84,7.92 19.95,12.12 9.74,3.74 19.03,2.83 28.32,1.92 9.28,-0.91 23.22,-2.28 41.8,-4.09 23.22,-2.28 36.7,-8.29 45.54,-13.84 8.83,-5.55 13.02,-10.65 17.21,-15.75 -0.45,-4.65 -1.36,-13.93 -6.92,-22.76 -5.55,-8.83 -10.65,-13.03 -20.4,-16.77 -5.1,-4.19 -14.38,-3.28 -24.12,-7.01 -9.29,0.91 -23.22,2.27 -41.8,4.09 -13.94,1.37 -27.42,7.38 -32.06,7.83 -4.65,0.46 -13.48,6.02 -13.03,10.65 -6.01,-13.48 -11.56,-22.31 -12.01,-26.95 4.21,-5.1 8.4,-10.2 12.59,-15.3zm23.13 44.63c4.64,-0.46 13.47,-6.02 27.41,-7.38 13.93,-1.36 23.22,-2.27 27.86,-2.73 4.65,-0.45 9.29,-0.91 14.39,3.29 5.11,4.19 5.56,8.83 10.65,13.02 5.11,4.19 5.56,8.83 6.01,13.48 0.46,4.65 -4.19,5.1 -8.83,5.56 -4.64,0.45 -13.48,6.01 -27.41,7.37 -9.28,0.91 -18.58,1.82 -27.87,2.73 -4.64,0.45 -9.74,-3.74 -14.38,-3.28 -5.11,-4.2 -10.2,-8.38 -11.11,-17.68 -0.45,-4.64 -5.55,-8.83 -6.01,-13.48 0.45,4.65 0.45,4.65 9.29,-0.9zm-184.42 32.11c13.93,-1.36 27.86,-2.72 32.51,-3.18 9.29,-0.91 13.94,-1.36 19.04,2.83 5.1,4.19 10.19,8.38 10.65,13.02 5.1,4.2 5.55,8.84 1.36,13.94 0.46,4.65 -4.19,5.1 -8.38,10.19 -4.64,0.46 -18.12,6.47 -27.41,7.38 -18.58,1.82 -36.69,8.28 -59.92,10.56l6.01 13.47c9.28,-0.9 23.22,-2.27 32.51,-3.18 13.94,-1.36 23.22,-2.27 32.52,-3.18 23.22,-2.27 36.69,-8.28 50.17,-14.29 8.84,-5.55 17.68,-11.1 17.22,-15.75 -0.45,-4.65 -1.36,-13.93 -6.92,-22.76 -5.56,-8.83 -10.65,-13.03 -15.75,-17.22 -5.1,-4.19 -14.84,-7.92 -24.13,-7.01 -9.28,0.91 -27.87,2.72 -46.45,4.54 -13.93,1.37 -27.41,7.38 -36.69,8.29l-18.04 -40.46 91.98 -18.38 -6.02 -13.47 -129.14 22.01 33.78 57.66c19.04,2.82 37.16,-3.64 51.1,-5.01zm-254.54 34.29c9.74,3.74 19.03,2.83 32.97,1.47 -9.29,0.91 -13.48,6.01 -18.13,6.47 -4.65,0.45 -8.83,5.55 -8.38,10.19 0.46,4.65 0.91,9.29 1.37,13.93 5.55,8.83 10.65,13.03 15.75,17.22 5.1,4.19 19.49,7.47 28.78,6.56 13.93,-1.37 32.51,-3.18 51.08,-5 23.22,-2.27 36.7,-8.29 50.18,-14.29 8.83,-5.55 17.67,-11.1 17.22,-15.75 4.19,-5.1 -0.91,-9.29 -1.82,-18.58 -5.11,-4.19 -5.56,-8.83 -10.65,-13.03 -5.11,-4.19 -9.74,-3.73 -14.84,-7.92 -4.65,0.46 -13.94,1.37 -23.68,-2.37 13.48,-6.01 18.13,-6.47 22.31,-11.56 4.19,-5.1 3.74,-9.74 -1.82,-18.58 -5.55,-8.83 -10.65,-13.03 -15.75,-17.22 -8.83,5.56 -18.58,1.82 -27.87,2.73 -13.93,1.36 -27.86,2.73 -51.08,5 -18.58,1.82 -36.7,8.28 -46,9.19 -8.83,5.56 -18.12,6.47 -22.31,11.56 -4.19,5.1 -3.73,9.74 1.82,18.58 6.01,13.48 11.11,17.67 20.85,21.4zm122.12 2.12c5.11,4.19 5.11,4.19 10.65,13.02 5.11,4.19 5.56,8.83 1.37,13.93 0.45,4.65 -4.2,5.11 -8.83,5.56 -4.65,0.46 -13.48,6.01 -27.42,7.38 -13.93,1.36 -23.21,2.27 -27.86,2.72 -4.65,0.46 -9.29,0.91 -14.39,-3.28 -5.1,-4.19 -9.74,-3.74 -10.65,-13.02 -5.1,-4.2 -5.56,-8.83 -1.36,-13.94 -0.46,-4.65 4.19,-5.1 8.83,-5.55 4.64,-0.46 13.48,-6.02 27.41,-7.38 13.93,-1.36 23.22,-2.27 27.87,-2.73 4.63,-0.44 9.28,-0.9 14.38,3.29zm-106.72 -36.44c-0.46,-4.65 4.19,-5.1 8.83,-5.56 4.65,-0.45 13.48,-6.01 27.41,-7.37 13.93,-1.37 23.22,-2.27 27.87,-2.73 4.64,-0.45 9.28,-0.91 14.38,3.28 5.11,4.2 5.11,4.2 10.65,13.03 5.11,4.19 5.56,8.83 1.37,13.93 -4.19,5.11 -4.64,0.46 -9.29,0.91 -4.65,0.46 -13.48,6.01 -22.76,6.92 -13.94,1.37 -18.58,1.82 -27.87,2.73 -4.65,0.45 -9.28,0.91 -14.39,-3.28 -5.1,-4.2 -5.1,-4.2 -10.65,-13.03 -4.64,0.46 -5.1,-4.19 -5.55,-8.83zm-217.48 77.56c5.1,4.19 14.39,3.28 24.13,7.01 9.28,-0.91 23.21,-2.27 41.8,-4.09 13.93,-1.37 27.41,-7.38 32.06,-7.83 4.64,-0.46 13.47,-6.02 13.02,-10.65 6.01,13.48 11.56,22.31 12.01,26.95 0.46,4.65 -3.74,9.75 -7.92,14.85 -8.83,5.55 -18.12,6.46 -36.7,8.28 -13.93,1.37 -32.51,3.18 -55.73,5.46l6.01 13.48c9.29,-0.91 18.58,-1.82 32.52,-3.19 13.93,-1.36 23.22,-2.27 32.51,-3.18 23.22,-2.27 41.35,-8.74 50.18,-14.29 8.83,-5.55 17.67,-11.1 21.4,-20.85 -0.46,-4.65 -0.91,-9.29 -1.37,-13.93 -0.45,-4.65 -6.01,-13.48 -11.55,-22.31 -5.56,-8.83 -11.11,-17.68 -11.56,-22.31 -5.1,-4.2 -10.2,-8.38 -10.65,-13.03 -5.1,-4.19 -10.2,-8.37 -19.49,-7.46 -9.29,0.9 -14.39,-3.29 -28.32,-1.92 -9.29,0.9 -23.22,2.27 -41.8,4.09 -23.22,2.27 -36.7,8.28 -45.54,13.83 -8.83,5.56 -13.03,10.65 -17.22,15.75 0.45,4.65 1.36,13.93 6.92,22.76 5.09,4.19 10.64,13.03 15.29,12.58zm14.94 -38.99c-0.45,-4.64 4.19,-5.1 8.83,-5.55 4.65,-0.46 13.48,-6.01 27.41,-7.38 9.29,-0.91 18.59,-1.82 27.87,-2.73 4.65,-0.45 9.74,3.74 14.39,3.29 5.1,4.19 10.19,8.38 11.1,17.67 0.46,4.65 5.56,8.83 1.37,13.93 0.45,4.65 -4.2,5.11 -8.83,5.56 -4.65,0.46 -13.48,6.01 -27.42,7.38 -13.93,1.36 -23.21,2.27 -27.86,2.72 -4.65,0.46 -9.29,0.91 -14.39,-3.28 -5.1,-4.19 -5.56,-8.83 -10.65,-13.02 -1.36,-13.94 -1.82,-18.59 -1.82,-18.59zm-28.98 87.24l-105.91 19.75 60.12 -104.35 -5.56 -8.84 -147.7 23.84 6.01 13.48 101.26 -19.3 -60.12 104.36 6.01 13.48 156.55 -29.39 -10.66 -13.03zm-192.79 42.33c8.83,-5.56 7.92,-14.85 2.37,-23.68 -5.55,-8.83 -10.65,-13.02 -20.4,-16.76 -9.74,-3.74 -23.67,-2.38 -37.6,-1.01 13.47,-6.01 22.76,-6.92 26.95,-12.02 4.2,-5.1 3.74,-9.74 2.83,-19.03 -5.55,-8.83 -15.75,-17.22 -25.04,-16.31 -19.49,-7.47 -33.42,-6.1 -61.29,-3.38l-91.97 18.38 57.81 111.57 87.34 -17.92c32.04,-7.83 50.17,-14.3 59,-19.84zm-152.16 -69.51l41.35 -8.74c9.28,-0.91 18.58,-1.82 23.22,-2.27 4.65,-0.46 9.28,-0.91 14.39,3.28 5.1,4.19 5.1,4.19 10.19,8.38 5.1,4.19 0.91,9.28 -3.28,14.38 -4.2,5.11 -13.48,6.02 -27.42,7.38l-41.34 8.74 -17.11 -31.15zm41.14 85.05l-17.57 -35.78 41.35 -8.74c13.93,-1.37 27.87,-2.73 32.51,-3.19 9.75,3.74 14.85,7.93 15.3,12.57 0.46,4.65 5.56,8.83 1.37,13.94 0.45,4.64 -4.2,5.1 -8.83,5.55 -4.65,0.46 -13.48,6.01 -22.77,6.92l-41.36 8.73zm6471.31 -713.14c21.31,26.05 43.07,56.75 87.59,80.52 73.76,34.98 203.36,17.61 289.78,-9.6 131.5,-45.7 34.62,-125.3 -3.35,-177.85 -42.6,-52.1 -72.2,-114.85 -132.93,-160.49 -60.74,-45.63 -168.92,-49.1 -283.22,-19.17 -123.58,30.86 -113.93,81.49 -81.52,125.21 42.62,52.09 81.04,109.29 123.65,161.38zm2.86 -258.17c86.43,-27.22 132.33,10.48 149.44,41.64 37.52,47.9 69.93,91.62 107.44,139.52 26.4,30.25 113.54,106.12 12.73,130.05 -118.94,30.4 -150.81,-55.57 -177.66,-90.45 -37.52,-47.9 -70.38,-96.27 -107.43,-139.53 -12.02,-26.96 -43.52,-61.39 15.48,-81.23zm-472.5 346.34c21.76,30.7 43.06,56.75 87.59,80.52 73.76,34.98 203.81,22.25 289.77,-9.6 131.5,-45.7 34.17,-129.95 -3.34,-177.85 -42.61,-52.1 -67.55,-115.3 -133.39,-165.12 -60.73,-45.63 -168.92,-49.11 -283.22,-19.17 -123.58,30.85 -113.93,81.48 -81.52,125.2 42.62,52.09 81.05,109.28 124.11,166.02zm7.51 -258.63c86.43,-27.22 132.32,10.49 149.44,41.64 32.86,48.36 69.92,91.63 107.43,139.53 26.4,30.24 113.55,106.11 12.73,130.05 -118.94,30.4 -150.8,-55.58 -177.66,-90.46 -37.51,-47.9 -70.38,-96.27 -107.43,-139.52 -12.48,-31.61 -43.98,-66.03 15.49,-81.24zm-384.68 93.92c43.51,61.39 91.68,122.32 135.21,183.7 26.85,34.88 48.62,65.58 75.47,100.46 5.56,8.83 17.57,35.79 36.61,38.62 9.28,-0.91 101.73,-14.65 110.56,-20.2 4.64,-0.45 -5.11,-4.19 -5.56,-8.83 -2.27,-23.22 -37.51,-47.9 -49.07,-70.22 -54.18,-74.41 -108.35,-148.83 -162.07,-218.58 -16.66,-26.51 -32.87,-48.36 -54.18,-74.41 0,0 -6.01,-13.48 -10.64,-13.03 -9.75,-3.73 -69.22,11.47 -83.15,12.84 -3.28,14.38 -20.49,30.14 -42.36,46.34 -17.67,11.11 -59.01,19.85 -72.04,30.5 -13.02,10.65 6.92,22.76 12.47,31.6 41.81,-4.1 91.99,-18.39 108.75,-38.79zm3178.07 420.4l-53.27 -65.12c-10.75,33.88 -45.17,65.38 -98.63,94.06l151.9 -28.94zm-586.01 1.1c-4.65,0.45 -9.29,0.9 -13.94,1.36l-18.58 1.82 10.65 13.02 18.58 -1.82c4.65,-0.45 9.29,-0.91 13.48,-6.01 4.65,-0.45 4.2,-5.1 -0.45,-4.65 -4.65,0.47 -5.1,-4.18 -9.74,-3.72zm-209.1 67.36l18.58 -1.82 -19.95 -12.12 1.37 13.94zm-1062.88 207.19c9.29,-0.91 18.13,-6.46 18.13,-6.46 4.19,-5.11 -0.91,-9.29 -6.47,-18.13 -5.55,-8.83 -10.65,-13.02 -19.94,-12.11 -5.1,-4.2 -14.39,-3.29 -28.32,-1.92l-18.58 1.81 27.31 39.53 27.87 -2.72zm-7434.02 -116.34c20.04,-34.79 63.76,-67.21 122.32,-91.69l-156.55 29.39 34.23 62.3zm889.14 1371.23c-79.86,-1.56 -151.8,-17.97 -200.98,-41.29l35.15 71.59 165.83 -30.3zm7066.17 -1390.31c-9.74,-3.74 -19.03,-2.83 -32.97,-1.47 -13.93,1.37 -18.12,6.47 -22.31,11.56 -4.19,5.1 -3.74,9.74 1.82,18.58 5.56,8.83 10.65,13.03 19.95,12.12 9.74,3.74 19.03,2.83 32.96,1.46 13.94,-1.36 18.13,-6.47 22.32,-11.56 4.19,-5.1 3.73,-9.74 -1.82,-18.58 -5.11,-4.19 -10.66,-13.02 -19.95,-12.11zm-221.12 40.39c-5.1,-4.19 -14.38,-3.28 -28.32,-1.92l-18.58 1.82 27.31 39.53 18.58 -1.82c9.29,-0.91 18.13,-6.47 18.13,-6.47 4.19,-5.1 -0.91,-9.28 -6.47,-18.13 4.2,-5.08 -5.54,-8.82 -10.65,-13.01zm435.54 -1538.41l-147.71 23.84c75.22,2.01 146.71,13.77 195.42,32.44l-47.71 -56.28zm-6265.76 1232.26c27.87,-2.73 54.37,-19.39 37.25,-50.54 -17.11,-31.15 -54.72,-32.15 -82.59,-29.42 -27.86,2.72 -54.37,19.39 -37.25,50.54 21.76,30.68 59.37,31.69 82.59,29.42zm5153.4 433.36c-0.46,-4.65 -5.1,-4.19 -9.74,-3.74 -4.65,0.46 -9.29,0.91 -13.94,1.36l-18.58 1.82 11.11 17.68 18.58 -1.82c4.65,-0.46 9.28,-0.91 13.48,-6.01 4.19,-5.11 4.19,-5.1 -0.91,-9.29zm-180.2 -1314.03c27.87,-2.72 49.72,-18.93 27.97,-49.63 -21.76,-30.69 -59.37,-31.69 -87.24,-28.97 -27.86,2.73 -49.72,18.94 -27.97,49.63 21.76,30.69 59.37,31.7 87.24,28.97zm723.72 -127.1c27.87,-2.73 49.72,-18.94 27.97,-49.63 -21.76,-30.7 -59.37,-31.7 -87.24,-28.97 -27.86,2.72 -49.72,18.93 -27.97,49.63 25.96,25.58 64.02,31.24 87.24,28.97zm-6448.05 1142.24c27.86,-2.72 54.37,-19.39 37.25,-50.54 -17.12,-31.15 -54.72,-32.15 -82.59,-29.42 -27.87,2.73 -54.37,19.39 -37.25,50.54 17.1,31.15 54.72,32.15 82.59,29.42zm5705.17 369.98c9.29,-0.91 18.13,-6.47 18.13,-6.47 4.19,-5.1 -0.91,-9.28 -6.47,-18.12 -5.55,-8.84 -10.64,-13.03 -19.94,-12.12 -5.1,-4.19 -14.39,-3.28 -28.32,-1.92l-18.58 1.82 27.31 39.53 27.87 -2.72zm-4467.11 685.78c-22.67,-39.99 -52.81,-60.48 -76.94,-67.5 111.02,-15.56 232.22,-22.73 260.91,30.73 28.67,53.46 -70.77,91.33 -181.33,111.52 13.01,-10.64 20.04,-34.77 -2.64,-74.75zm-165.83 30.3c22.67,39.98 52.81,60.47 76.94,67.49 -111.01,15.56 -232.22,22.73 -260.91,-30.73 -28.67,-53.46 71.23,-86.68 181.33,-111.52 -17.66,11.09 -20.04,34.77 2.64,74.76zm56.64 3.83c-5.1,-4.2 -5.1,-4.2 0,0 -33.32,-53.01 -11.92,-73.86 10.85,-80.78 4.65,-0.45 4.65,-0.45 9.29,-0.9 19.49,7.46 39.88,24.23 56.99,55.38 0.46,4.64 5.56,8.83 5.56,8.83l-82.69 17.47zm256.1 -114.17c-57.56,-13.12 -151.35,-13.32 -280.49,8.7 -207.18,39.04 -282.04,88.57 -253.37,142.03 0.46,4.65 5.56,8.83 5.56,8.83l-18.58 1.82c0,0 -0.46,-4.65 -0.46,-4.65 -11.56,-22.31 -41.24,-38.16 -89.05,-47.55 -57.56,-13.13 -151.35,-13.32 -280.49,8.69 -207.18,39.04 -282.05,88.57 -253.37,142.03 0.45,4.65 5.56,8.83 5.56,8.83l-18.59 1.82c-18.02,-40.43 -46.24,-89.25 -46.24,-89.25l-18.58 1.82c-0.46,-4.65 -5.56,-8.83 -5.56,-8.83l-175.12 31.21c0,0 -38.62,36.61 -149.18,56.8 0,0 18.58,-1.82 42.26,0.56 -4.65,0.45 -13.93,1.36 -23.22,2.27 0,0 32.51,-3.18 61.29,3.38 14.39,3.28 24.58,11.66 30.14,20.49 5.56,8.83 11.1,17.67 12.01,26.96l-183.05 46.06c-55.28,10.1 -107.27,5.81 -145.8,-4.49l66.94 -34.69 -132.32 -10.49 102.72 -52.25 -132.32 -10.49 102.73 -52.26 -132.32 -10.49 102.73 -52.25 -132.32 -10.49 102.73 -52.26 -132.33 -10.49 102.73 -52.25 -132.32 -10.49 90.65 -32.34 -132.32 -10.49 102.73 -52.25 -132.32 -10.49 102.73 -52.26 -132.33 -10.49 102.73 -52.25 -132.32 -10.49 98.09 -51.81 -131.87 -5.85 98.55 -47.15 -131.87 -5.85 98.55 -47.16 -127.2 -6.32 98.54 -47.15 -131.87 -5.85 98.55 -47.16 -123.48 -16.04 98.54 -47.16 -127.22 -6.31 98.55 -47.15 -127.69 -10.95 98.55 -47.16 -127.22 -6.3 98.54 -47.16 -85.88 -15.04c21.4,-20.86 61.84,-38.88 117.12,-48.98l2516.79 -443.28c-39.52,27.31 -74.4,54.17 -108.84,85.68 -30.24,26.4 -55.38,56.99 -75.87,87.13 -25.14,30.6 -40.99,60.28 -56.84,89.97 -15.85,29.68 -26.6,63.56 -32.7,96.97 -6.11,33.43 -12.22,66.84 -9.04,99.36 0.91,9.28 1.82,18.58 2.27,23.22 0.91,9.28 1.82,18.58 2.28,23.22 6.46,18.12 7.83,32.06 14.28,50.17 7.83,32.06 24.95,63.2 42.07,94.35l16.2 21.86 6.01 13.48 10.65 13.02 16.21 21.86 20.85 21.4c10.65,13.02 31.05,29.78 41.7,42.81 10.2,8.38 15.3,12.57 25.49,20.94 10.2,8.38 15.3,12.57 25.49,20.95 35.7,29.33 75.58,53.56 115.46,77.79 44.53,23.78 89.06,47.55 133.59,71.33 93.24,42.45 204.61,78.44 315.07,105.14 62.65,17.3 124.84,29.98 191.23,37.54l-879.81 161.15c0,0 -0.46,-4.65 -0.46,-4.65 -16.19,-21.83 -45.88,-37.68 -93.23,-42.43zm-787.49 194.31c-22.67,-39.98 -52.81,-60.47 -76.94,-67.49 111.01,-15.56 232.22,-22.73 260.9,30.73 28.68,53.46 -75.41,91.78 -181.32,111.52 18.11,-6.45 20.49,-30.13 -2.64,-74.76zm-165.84 30.3c22.68,39.98 48.17,60.93 76.94,67.5 -111.01,15.56 -232.22,22.73 -260.9,-30.73 -28.67,-53.46 75.42,-91.78 181.33,-111.53 -13.02,10.65 -20.03,34.78 2.63,74.76zm56.65 3.83c0,0 -0.46,-4.63 0,0 -28.68,-53.46 -12.38,-78.49 10.85,-80.77 4.65,-0.45 4.65,-0.45 9.28,-0.91 19.49,7.47 39.88,24.23 57,55.38 0.46,4.65 5.56,8.83 5.56,8.83l-82.69 17.47zm-498.97 123.87l-29.14 -58.11c-6.01,-13.48 -25.49,-20.94 -49.63,-27.97 36.24,-12.92 58.56,-24.49 71.59,-35.14l129.14 -22.01c17.11,31.15 52.25,102.73 58.26,116.21 5.56,8.83 15.3,12.56 30.14,20.49l-225.76 40.86c13.02,-10.66 20.95,-25.5 15.4,-34.33zm-40.67 -1421.47c244.33,-42.67 366.46,-40.56 383.58,-9.41 17.11,31.15 -82.34,69.02 -326.22,116.33 -248.98,43.13 -371.1,41.02 -383.58,9.41 -17.11,-31.14 81.87,-73.65 326.22,-116.33zm-355.55 152.03c6.01,13.48 117.48,2.57 117.48,2.57l-502.16 91.35c0,0 99.91,-33.22 94.35,-42.06 -5.56,-8.83 -6.47,-18.12 -17.57,-35.79 -11.1,-17.67 -122.57,-6.76 -122.57,-6.76 129.14,-22.01 182.6,-50.7 182.6,-50.7l207.18 -39.04c4.64,-0.44 34.68,66.95 40.69,80.43zm1107.14 -281.86c244.33,-42.68 366.46,-40.57 383.57,-9.42 17.12,31.15 -77.69,68.57 -326.22,116.34 -244.33,42.67 -366.46,40.56 -383.57,9.41 -17.57,-35.79 81.88,-73.66 326.22,-116.33zm5431.14 -705.11l69.21 -11.46 15.75 17.21 -69.21 11.47 10.65 13.02 83.15 -12.83 15.75 17.22 -156.55 29.39 -63.92 -78.14 156.55 -29.39 15.75 17.21 -83.14 12.83 6.01 13.47zm178.86 -40.96c4.65,-0.45 4.65,-0.45 0,0 5.1,4.2 5.1,4.2 9.74,3.74 4.65,-0.45 4.65,-0.45 13.93,-1.36l32.52 -3.18c9.28,-0.91 18.58,-1.82 23.22,-2.28 9.28,-0.91 14.39,3.29 19.03,2.83 5.11,4.2 14.85,7.92 19.95,12.12 5.56,8.83 6.01,13.48 1.82,18.58 -4.2,5.1 -8.38,10.19 -22.31,11.56 -9.29,0.91 -22.77,6.92 -41.35,8.74 -13.93,1.36 -27.86,2.72 -41.34,8.74 -13.94,1.36 -27.87,2.72 -41.8,4.09l-15.76 -17.22c27.87,-2.73 46.45,-4.55 59.93,-10.56 9.29,-0.91 13.93,-1.36 18.58,-1.82 4.65,-0.45 4.65,-0.45 9.29,-0.91 0,0 0,0 0,0 0,0 0,0 -0.46,-4.64 0,0 -5.1,-4.2 -5.1,-4.2 0,0 -4.65,0.46 -9.29,0.91 -4.64,0.46 -9.28,0.91 -18.58,1.82l-37.15 3.64c-13.93,1.36 -23.22,2.27 -28.32,-1.92 -9.74,-3.74 -14.84,-7.92 -20.4,-16.76 -5.56,-8.84 -6.01,-13.48 -1.82,-18.59 4.19,-5.1 13.02,-10.65 22.31,-11.55 9.29,-0.91 27.41,-7.38 41.35,-8.74 13.93,-1.37 27.86,-2.73 41.34,-8.74 13.93,-1.37 23.22,-2.28 32.52,-3.19l15.75 17.22c-9.29,0.91 -18.58,1.82 -27.87,2.73 -13.93,1.36 -23.22,2.27 -32.51,3.18 -4.2,5.11 -13.03,10.67 -17.22,15.76 -0.45,-4.63 -0.45,-4.63 0,0zm-112.31 193.87l-69.21 11.46 -4.44 -93.34 101.27 -19.28 124.3 72.23 -73.86 11.92 -15.3 -12.57 -59.93 10.56 -2.83 19.02zm-120.21 -30.44c-8.83,5.56 -18.12,6.47 -26.95,12.02 0,0 0,0 -0.46,-4.65 0,0 0,0 -0.45,-4.65 0.45,4.66 9.74,3.75 27.86,-2.72zm-31.5 -34.42l15.75 17.22c-23.22,2.27 -37.15,3.63 -41.8,4.09 -13.93,1.36 -23.22,2.27 -27.41,7.37 -4.65,0.46 -4.19,5.1 -4.19,5.1 0.45,4.65 5.56,8.84 11.1,17.68 5.56,8.83 10.65,13.02 15.3,12.57 5.1,4.19 9.74,3.74 14.39,3.28 4.65,-0.45 13.93,-1.36 27.87,-2.73 13.93,-1.36 27.41,-7.37 41.34,-8.74l15.75 17.22c-4.64,0.46 -13.48,6.01 -27.41,7.38 -9.28,0.91 -23.22,2.27 -32.06,7.83 -27.87,2.72 -50.63,9.65 -65.02,6.36 -13.93,1.37 -28.32,-1.92 -33.42,-6.1 -9.74,-3.74 -15.3,-12.57 -25.95,-25.6 -10.65,-13.02 -11.56,-22.31 -12.01,-26.95 -0.46,-4.65 3.74,-9.74 17.22,-15.76 8.83,-5.55 32.06,-7.83 59.47,-15.19 9.28,-0.91 18.58,-1.82 32.51,-3.18 4.64,-0.49 13.92,-1.4 18.57,-1.85zm-120.5 110.26l-73.86 11.92 -64.37 -82.79 73.86 -11.92 64.37 82.79zm95.92 -121.92l-73.86 11.92 -48.17 -60.93 -50.63 9.65 -16.2 -21.86 175.12 -31.2 16.21 21.85 -50.64 9.65 48.17 60.92zm-119.86 21.1l-73.86 11.93 -15.29 -12.57 -59.93 10.55 1.36 13.94 -69.21 11.46 -4.44 -93.34 101.27 -19.28 120.1 77.31zm-215.1 53.88c18.58,-1.81 32.51,-3.18 46.45,-4.54 9.28,-0.91 19.03,2.83 24.13,7.01 5.1,4.19 10.19,8.38 15.75,17.22 5.1,4.19 6.01,13.48 6.47,18.12 0.45,4.65 -3.74,9.75 -13.03,10.65l53.81 22.87 -73.86 11.92 -44.52 -23.77 -13.94 1.36 21.31 26.05 -73.86 11.92 -64.37 -82.79 115.66 -16.02zm-382.96 159.4l-46 9.19 -64.92 -40.53 -4.65 0.45 32.87 48.36 -69.22 11.47 -59.72 -83.25 101.27 -19.29 54.72 32.15 4.65 -0.45 -4.09 -41.8 101.27 -19.29 59.73 83.25 -69.21 11.47 -32.87 -48.36 -4.65 0.45 0.82 56.18zm-318.2 54.6l-69.21 11.46 0.19 -93.79 101.28 -19.29 119.65 72.69 -73.86 11.92 -15.3 -12.57 -59.93 10.56 -2.82 19.02zm-121.82 -142.81l69.21 -11.47 15.75 17.22 -69.21 11.46 10.65 13.03 83.15 -12.83 16.2 21.85 -156.55 29.39 -59.72 -83.24 156.55 -29.4 16.21 21.86 -83.15 12.83 0.91 9.3zm358.37 -171.07l73.86 -11.92 37.97 52.55 -73.86 11.92 -15.75 -17.22 -41.35 8.74 15.75 17.22 -73.86 11.92 -37.97 -52.55 73.86 -11.92 15.76 17.22 41.34 -8.74 -15.75 -17.22zm129.4 76.43c0,0 0.46,4.65 0,0 5.1,4.19 5.1,4.19 9.74,3.74 4.64,-0.46 4.65,-0.46 13.93,-1.37l32.52 -3.18c9.29,-0.91 18.58,-1.82 23.22,-2.27 9.28,-0.91 14.39,3.28 19.03,2.83 5.11,4.19 14.85,7.92 19.95,12.11 5.56,8.83 6.01,13.48 1.82,18.58 -4.19,5.11 -8.38,10.2 -22.31,11.56 -9.29,0.91 -22.77,6.92 -41.35,8.74 -13.93,1.36 -27.86,2.73 -41.34,8.74 -13.94,1.36 -27.87,2.73 -41.8,4.09l-15.75 -17.22c27.86,-2.72 45.99,-9.19 59.92,-10.55 9.29,-0.91 13.94,-1.37 18.58,-1.82 4.65,-0.46 4.65,-0.46 9.29,-0.91 0,0 0,0 0,0 0,0 0,0 -0.46,-4.65 0,0 -5.1,-4.19 -5.1,-4.19 0,0 -4.65,0.45 -9.28,0.91 -4.65,0.45 -9.29,0.91 -18.59,1.82l-37.15 3.63c-13.93,1.37 -23.22,2.27 -28.32,-1.92 -9.74,-3.74 -14.84,-7.92 -20.4,-16.76 -5.56,-8.83 -6.01,-13.48 -1.82,-18.58 4.19,-5.1 13.03,-10.65 22.31,-11.56 9.29,-0.91 27.41,-7.38 41.35,-8.74 13.93,-1.36 27.86,-2.73 41.34,-8.74 13.94,-1.36 27.87,-2.73 32.52,-3.18l15.75 17.22c-9.29,0.9 -18.58,1.81 -32.52,3.18 -13.93,1.36 -23.21,2.27 -32.51,3.18 -3.74,9.75 -8.39,10.21 -12.57,15.31 -0.45,-4.65 -4.65,0.45 0,0zm-131.51 45.7c-10.65,-13.03 -21.31,-26.05 -31.05,-29.79 0,0 -5.1,-4.19 -5.1,-4.19l41.34 -8.74c0.46,4.65 1.36,13.93 6.47,18.12 5.55,8.84 15.29,12.57 20.85,21.4l11.11 17.68 10.64 13.02 -36.69 8.29c0,0 -0.46,-4.65 -0.46,-4.65 -0.91,-9.29 -6.45,-18.12 -17.11,-31.14zm-72.4 -21.05c5.11,4.19 15.3,12.57 25.95,25.59 10.65,13.03 16.21,21.86 16.66,26.51 0.46,4.64 -3.74,9.74 -17.22,15.75 -13.48,6.01 -36.69,8.28 -68.76,16.1l-78.49 12.38 -59.73 -83.25 78.5 -12.37c32.06,-7.83 55.28,-10.11 74.32,-7.28 9.75,3.74 23.68,2.38 28.77,6.57zm234.86 52.03l156.55 -29.39 16.21 21.85 -83.15 12.83 10.19 8.38 69.22 -11.47 15.75 17.22 -69.21 11.47 10.65 13.02 83.14 -12.83 16.21 21.86 -156.55 29.39 -69.01 -82.33zm251.81 -62.16l-73.86 11.92 -48.16 -60.92 -50.63 9.64 -16.21 -21.85 175.12 -31.21 16.21 21.86 -50.63 9.64 48.16 60.92zm-263.63 -58.59l-37.97 -52.56 156.55 -29.39 10.65 13.03 -83.15 12.83 5.56 8.83 69.21 -11.47 10.65 13.03 -69.21 11.46 5.56 8.83 83.14 -12.83 10.65 13.03 -161.64 25.21zm-19.2 -148.17c-21.76,-30.7 68.41,-67.66 308.1,-109.87 235.04,-41.76 357.16,-39.65 378.47,-13.6 21.76,30.7 -68.4,67.66 -303.45,109.41 -239.69,42.22 -361.35,44.75 -383.12,14.06zm97.44 37.35l-484.03 84.88c0,0 95.26,-32.76 89.71,-41.6 -5.56,-8.83 -10.65,-13.03 -26.86,-34.88 -11.1,-17.68 -122.57,-6.77 -122.57,-6.77 124.49,-21.56 173.3,-49.78 173.3,-49.78l202.99 -33.94c0,0 43.52,61.38 54.18,74.41 6,13.49 113.28,7.68 113.28,7.68zm-365.19 101.39l10.65 13.03 -50.64 9.65 27.31 39.53 -73.85 11.92 -27.32 -39.53 -50.63 9.65 -10.65 -13.03 175.13 -31.22zm-351.29 339.17l-73.86 11.92 -59.73 -83.25 151.91 -28.93 16.2 21.85 -78.5 12.38 10.65 13.02 69.22 -11.46 16.2 21.85 -69.21 11.47 17.12 31.15zm16.95 -114.2l-73.86 11.93 -43.51 -61.39 -50.64 9.65 -16.2 -21.85 179.77 -31.67 16.2 21.86 -50.63 9.65 38.87 61.82zm-151.9 28.94l-73.86 11.92 -59.73 -83.25 73.86 -11.92 59.73 83.25zm1781.18 -629.18c235.05,-41.77 357.16,-39.65 378.47,-13.61 21.77,30.7 -63.76,67.21 -303.45,109.42 -235.05,41.76 -357.17,39.65 -383.13,14.06 -17.11,-31.14 73.06,-68.1 308.11,-109.87zm1286.39 1262.03c0,0 0,0 0,0 0.45,4.64 -4.19,5.1 -4.19,5.1l-46 9.19c-4.64,0.46 -4.64,0.46 -9.28,0.91 0,0 -4.65,0.46 -4.65,0.46l-38.97 -14.95 -9.29 0.91 11.11 17.67c0,0 0.45,4.65 0.45,4.65 0,0 -4.65,0.46 -13.48,6.01l-32.06 7.83c-4.64,0.46 -9.28,0.91 -13.93,1.37 -4.65,0.45 -5.1,-4.2 -9.74,-3.74l-48.16 -60.93c0,0 -0.46,-4.65 -0.46,-4.65 0,0 4.65,-0.45 13.48,-6.01l69.21 -11.47c27.41,-7.37 51.09,-5 65.02,-6.36 14.39,3.28 28.78,6.56 34.33,15.4 5.11,4.19 5.56,8.83 6.02,13.48 0.45,4.64 -8.38,10.19 -13.03,10.65l43.62 14.48c-0.46,-4.65 0,0 0,0zm-193.71 33.02c4.65,-0.45 4.65,-0.45 0,0 5.11,4.2 5.11,4.2 0.46,4.65l-50.63 9.65c-4.65,0.45 -9.29,0.91 -13.93,1.36l-14.85 -7.92 -50.63 9.65 0.91 9.28c0,0 -4.19,5.11 -8.83,5.56l-50.63 9.65c-4.65,0.45 -4.65,0.45 -9.29,0.91 0,0 0,0 -0.45,-4.65l15.94 -76.59c0,0 -0.45,-4.64 4.2,-5.1 0,0 4.64,-0.45 9.28,-0.91l32.06 -7.83c4.65,-0.45 9.29,-0.91 9.29,-0.91 4.65,-0.45 4.65,-0.45 9.74,3.74l117.36 49.46zm-578.64 28.51c0,0 -0.46,-4.65 -0.46,-4.65 0,0 4.65,-0.45 13.48,-6.01l32.06 -7.83c4.65,-0.46 9.29,-0.91 13.94,-1.37 4.64,-0.45 5.1,4.2 9.74,3.74l37.97 52.55 64.56 -11.01c4.65,-0.45 9.29,-0.91 13.93,-1.36 4.65,-0.46 5.11,4.19 5.11,4.19l5.1 4.19c0.45,4.65 0.45,4.65 0.45,4.65 0,0 -4.64,0.46 -8.83,5.56l-115.2 20.65c-4.65,0.45 -9.29,0.91 -13.94,1.36 -4.64,0.46 -5.1,-4.19 -9.74,-3.73l-48.17 -60.93zm-2.47 70.57c-13.02,10.65 -35.79,17.57 -67.84,25.4 -32.06,7.84 -60.39,5.91 -84.06,3.54 -23.67,-2.38 -38.52,-10.3 -49.18,-23.32 -10.65,-13.02 -6.92,-22.76 1.47,-32.97 13.02,-10.65 35.79,-17.57 67.85,-25.4 32.06,-7.83 60.38,-5.91 84.05,-3.54 23.68,2.38 38.52,10.3 49.18,23.32 10.65,13.03 6.91,22.77 -1.47,32.97zm172.95 -101.33c0,0 -0.45,-4.64 -0.45,-4.64 0,0 4.65,-0.46 13.48,-6.02l32.06 -7.83c4.65,-0.45 9.28,-0.9 13.93,-1.36 4.65,-0.45 5.1,4.19 9.74,3.74l37.97 52.55 64.57 -11.01c4.64,-0.46 9.28,-0.91 13.93,-1.37 4.65,-0.45 5.1,4.2 5.1,4.2l5.1 4.19c0.46,4.65 0.46,4.65 0.46,4.65 0,0 -4.65,0.45 -8.83,5.55l-115.21 20.66c-4.64,0.45 -9.28,0.9 -13.93,1.36 -4.65,0.45 -5.1,-4.19 -9.74,-3.74l-48.18 -60.93zm655.89 -101.71c0,0 5.1,4.19 5.1,4.19 4.65,-0.46 4.65,-0.46 9.28,-0.91 4.65,-0.46 9.29,-0.91 18.58,-1.82 13.94,-1.36 28.33,1.92 37.61,1.01 9.29,-0.91 19.04,2.83 23.68,2.38 5.1,4.19 9.74,3.74 14.84,7.92 5.55,8.83 1.36,13.93 -7.47,19.49 -8.83,5.56 -26.96,12.01 -50.18,14.28 -18.58,1.82 -32.51,3.19 -51.08,5.01 -13.93,1.36 -27.87,2.72 -42.26,-0.56 -4.64,0.45 -9.28,0.91 -9.74,-3.74 0,0 0,0 -0.45,-4.65l7.92 -14.84c0,0 4.65,-0.45 4.65,-0.45 0,0 4.65,-0.46 4.65,-0.46 9.28,-0.91 18.58,-1.82 27.86,-2.73 9.29,-0.91 18.58,-1.82 27.87,-2.73 9.28,-0.9 13.93,-1.36 13.48,-6.01 4.65,-0.45 4.19,-5.1 -0.46,-4.64 0,0 -5.1,-4.2 -9.74,-3.74 -4.65,0.45 -13.93,1.36 -23.67,-2.38 -23.22,2.27 -37.61,-1.01 -51.54,0.35 -14.39,-3.28 -24.13,-7.01 -29.23,-11.2 -5.56,-8.83 -6.02,-13.48 7.46,-19.49 8.83,-5.56 26.96,-12.01 50.18,-14.29 13.93,-1.36 32.51,-3.18 41.8,-4.09 13.93,-1.36 23.22,-2.27 32.97,1.47 4.65,-0.46 9.29,-0.91 9.74,3.73 0,0 0,0 0.46,4.65l-7.93 14.84c0,0 0,0 -4.64,0.46 0,0 -4.65,0.45 -4.65,0.45 -4.65,0.46 -9.29,0.91 -18.58,1.82 -4.65,0.46 -13.94,1.37 -18.58,1.82 0.9,9.31 -3.75,9.76 -7.93,14.86 0,0 0,0 0,0zm-1054.6 243.89c-13.03,10.65 -35.79,17.57 -67.85,25.4l-64.56 11.01c-4.65,0.46 -9.29,0.91 -13.94,1.37 -4.65,0.45 -5.1,-4.19 -9.74,-3.74l-48.16 -60.93c0,0 -0.46,-4.65 -0.46,-4.65 0,0 4.65,-0.45 13.48,-6.01l64.57 -11.01c64.56,-11.01 107.27,-5.81 128.58,20.24 10.19,8.39 11.1,17.67 -1.92,28.32zm-755.33 139.59c0,0 0.46,4.65 0.46,4.65 0,0 -4.65,0.45 -13.48,6.01l-32.06 7.83c-4.65,0.45 -9.28,0.91 -13.93,1.36 -4.65,0.46 -5.11,-4.19 -5.11,-4.19l-48.61 -65.58c0,0 -0.46,-4.64 -0.46,-4.64 0,0 4.65,-0.46 13.48,-6.02l69.21 -11.46c27.41,-7.38 51.09,-5 65.02,-6.37 14.39,3.29 28.78,6.56 34.33,15.4 5.11,4.19 5.56,8.83 1.37,13.93 0.45,4.65 -8.38,10.2 -13.03,10.65l44.08 19.13c0,0 0,0 4.64,-0.45 0,0 0,0 0.46,4.64 0,0 -4.65,0.46 -4.65,0.46l-45.99 9.19c-4.65,0.46 -4.65,0.46 -9.29,0.91 0,0 -4.65,0.46 -4.65,0.46l-34.33 -15.4 -9.28 0.91 1.82 18.58zm76.33 -82.5c0,0 -0.45,-4.65 -0.45,-4.65 0,0 4.64,-0.45 13.47,-6.01l115.21 -20.65c4.65,-0.46 9.29,-0.91 13.93,-1.36 4.65,-0.46 5.11,4.19 5.11,4.19l5.1 4.19c0.45,4.65 0.45,4.65 0.45,4.65 0,0 -4.64,0.45 -8.83,5.56l-64.56 11.01 5.56 8.83 41.34 -8.74c4.65,-0.46 9.29,-0.91 13.93,-1.36 4.65,-0.46 5.11,4.19 5.11,4.19l5.1 4.19c0.45,4.65 0.45,4.65 0.45,4.65 0,0 -4.64,0.45 -8.83,5.56l-41.34 8.73 5.56 8.84 64.56 -11.02c4.65,-0.45 9.29,-0.91 13.93,-1.36 4.65,-0.46 5.11,4.19 5.11,4.19l5.1 4.2c0.45,4.64 0.45,4.64 0.45,4.64 0,0 -4.64,0.46 -8.83,5.56l-115.2 20.65c-4.65,0.46 -9.29,0.91 -13.94,1.36 -4.64,0.46 -5.1,-4.19 -9.74,-3.73l-47.75 -56.31zm175.12 -31.21c0,0 -0.45,-4.65 -0.45,-4.65 0,0 4.65,-0.45 13.48,-6.01l64.56 -11.01c64.57,-11.01 107.28,-5.81 128.58,20.24 10.65,13.02 6.92,22.76 -6.1,33.42 -13.02,10.65 -35.79,17.57 -67.85,25.4l-64.56 11.02c-4.65,0.45 -9.29,0.9 -13.93,1.36 -4.65,0.45 -5.11,-4.19 -9.75,-3.74l-43.98 -66.03zm-675.1 192.68c0,0 0.46,4.65 0.46,4.65 0,0 -4.65,0.46 -13.48,6.01l-32.06 7.83c-4.65,0.46 -9.29,0.91 -13.93,1.37 -4.65,0.45 -5.11,-4.19 -5.11,-4.19l-48.62 -65.58c0,0 -0.45,-4.65 -0.45,-4.65 0,0 4.65,-0.45 13.48,-6.01l27.86 -2.73c4.65,-0.45 9.29,-0.91 9.29,-0.91 4.65,-0.45 4.65,-0.45 9.29,-0.9l72.39 21.04 -21.31 -26.05c0,0 -0.45,-4.64 -0.45,-4.64 0,0 4.64,-0.46 13.48,-6.01l32.05 -7.84c4.65,-0.45 9.29,-0.9 13.94,-1.36 4.65,-0.45 5.1,4.19 5.1,4.19l48.62 65.58c0,0 0.46,4.65 0.46,4.65 0,0 -4.65,0.45 -13.48,6.01l-27.87 2.73c-4.65,0.45 -9.29,0.91 -9.29,0.91 -4.64,0.45 -4.64,0.45 -9.28,0.9l-72.4 -21.04 21.31 26.04zm99.09 -89.4c0,0 -0.45,-4.65 -0.45,-4.65 0,0 4.65,-0.46 13.48,-6.01l64.56 -11.02c69.21,-11.46 111.92,-6.26 128.59,20.24 10.64,13.03 6.92,22.77 -6.11,33.43 -13.02,10.65 -35.79,17.57 -67.85,25.4l-64.56 11.01c-4.65,0.46 -9.29,0.91 -13.93,1.36 -4.65,0.46 -5.11,-4.19 -5.11,-4.19l-48.62 -65.57zm-532.03 169.29c0,0 0.45,4.65 0.45,4.65 0,0 -4.65,0.45 -13.48,6.01l-32.06 7.83c-4.64,0.46 -9.28,0.91 -13.93,1.36 -4.65,0.46 -5.1,-4.19 -5.1,-4.19l-43.98 -66.03c0,0 -0.45,-4.65 -0.45,-4.65 0,0 4.65,-0.45 13.48,-6.01l32.06 -7.83c4.65,-0.45 9.28,-0.91 13.93,-1.36 4.65,-0.46 5.1,4.19 5.1,4.19l16.21 21.86 50.63 -9.65 -16.2 -21.86c0,0 -0.46,-4.65 -0.46,-4.65 0,0 4.65,-0.45 13.48,-6.01l32.06 -7.83c4.65,-0.45 9.28,-0.91 13.93,-1.36 4.65,-0.46 5.1,4.19 5.1,4.19l43.98 66.03c0,0 0.45,4.65 0.45,4.65 0,0 -4.65,0.45 -13.48,6.01l-32.06 7.83c-4.64,0.46 -9.28,0.91 -13.93,1.37 -4.65,0.45 -5.1,-4.2 -5.1,-4.2l-16.21 -21.85 -50.63 9.65 16.21 21.85zm103.28 -94.51c0,0 -0.45,-4.65 -0.45,-4.65 0,0 4.64,-0.45 13.47,-6.01l32.06 -7.83c4.65,-0.45 9.29,-0.91 13.94,-1.36 4.64,-0.46 5.1,4.19 5.1,4.19l32.41 43.72c0.46,4.65 5.11,4.19 14.85,7.92 4.64,-0.45 13.93,-1.36 18.58,-1.82 9.28,-0.91 13.93,-1.36 18.12,-6.46 4.65,-0.46 4.2,-5.11 -0.91,-9.29l-32.41 -43.72c0,0 -0.45,-4.65 -0.45,-4.65 0,0 4.64,-0.45 13.47,-6.01l32.06 -7.83c4.65,-0.45 9.29,-0.91 13.94,-1.36 4.64,-0.46 5.1,4.19 5.1,4.19l32.41 43.72c5.11,4.19 6.01,13.48 1.82,18.58 -4.19,5.1 -13.02,10.65 -26.5,16.66 -13.48,6.01 -27.41,7.38 -45.54,13.83 -18.58,1.82 -37.15,3.64 -51.09,5 -13.93,1.37 -28.32,-1.92 -38.06,-5.64 -9.74,-3.74 -19.49,-7.47 -24.58,-11.67l-27.34 -39.51zm-3419.81 -63.81c10.65,13.02 6.92,22.76 -6.11,33.42 -5.55,-8.83 -16.2,-21.86 -21.76,-30.7 -185.09,-310.11 83.06,-636.44 607.62,-786.26l11.11 17.67c-27.41,7.38 -59.02,19.85 -86.43,27.22 -67.85,25.4 -126.41,49.88 -175.22,78.11 -48.82,28.22 -88.8,50.9 -119.49,72.66 -17.68,11.1 -26.05,21.31 -39.08,31.96 -13.02,10.65 -21.4,20.85 -30.24,26.4 -17.22,15.75 -29.79,31.05 -38.16,41.24 -8.38,10.2 -12.57,15.3 -12.57,15.3 0,0 4.19,-5.1 12.57,-15.3 4.19,-5.1 8.37,-10.19 17.21,-15.75 8.84,-5.55 17.22,-15.75 26.05,-21.31 8.38,-10.19 21.86,-16.2 34.88,-26.85 13.03,-10.65 26.05,-21.31 43.72,-32.42 8.83,-5.55 17.68,-11.1 26.51,-16.66 8.83,-5.55 17.67,-11.1 31.15,-17.11 8.83,-5.56 22.31,-11.56 31.15,-17.12 13.48,-6.01 22.31,-11.56 35.79,-17.57 49.26,-23.58 107.83,-48.06 171.03,-73.01 22.76,-6.92 50.17,-14.28 77.59,-21.66l75.02 95.82c-114.75,25.3 -218.85,63.62 -304.37,100.12 -210.56,100.32 -132.61,130.21 -221.86,176.46 -89.71,41.6 -47.55,89.05 -84.81,139.59 -28.87,40.34 -31.69,59.37 -35.53,116.02 0.37,51.52 -56.82,89.94 -25.77,119.73zm998.4 -243.09c-9.29,0.91 -14.39,-3.29 -23.68,-2.38 4.19,-5.1 8.83,-5.55 13.48,-6.01l10.2 8.39zm139.54 365.29c-31.22,-6.04 -61.39,-12.18 -91.55,-18.33 -33.42,-6.1 -62.65,-17.31 -91.43,-23.87 -9.74,-3.74 -19.94,-12.12 -29.68,-15.86 -9.74,-3.74 -15.3,-12.57 -20.4,-16.76 -25.95,-25.59 -41.7,-42.81 -62.1,-59.56 -10.19,-8.38 -15.3,-12.57 -20.4,-16.77 -5.1,-4.19 -9.74,-3.73 -9.74,-3.73 0,0 0.45,4.64 0.45,4.64 0.46,4.65 5.56,8.83 11.11,17.68 5.56,8.83 11.1,17.67 21.31,26.04 10.19,8.38 20.85,21.4 31.5,34.43 5.1,4.19 15.3,12.57 20.4,16.76 10.2,8.38 19.95,12.12 34.79,20.04 29.23,11.2 58,17.76 87.24,28.97 35.67,9.85 72.83,19.56 112.28,28.18 2,-7.23 4.08,-14.52 6.22,-21.86zm-9.59 34.34c-26.14,-5.03 -49.09,-9.84 -68.57,-11.79 -24.13,-7.01 -38.52,-10.29 -38.52,-10.29 0,0 9.74,3.74 33.88,10.75 17.88,6.84 43.58,12.94 70.27,22.55l2.94 -11.22zm2173.81 429.89c97.08,-14.2 189.06,-32.58 276.85,-45.86 290.33,-51.86 535.12,-89.89 706.06,-116.01 170.94,-26.1 268.02,-40.3 268.02,-40.3 0,0 -96.63,18.84 -266.66,54.24 -170.03,35.4 -413.91,82.71 -703.78,139.22 -87.34,17.92 -183.96,36.77 -280.59,55.6l-4.55 -46.44 4.65 -0.45zm-4712.19 864.49c170.03,-35.4 413.91,-82.72 703.78,-139.22 289.88,-56.51 630.38,-122.67 998.76,-191.54 363.74,-68.43 755.33,-139.58 1142.28,-210.28 91.98,-18.38 189.06,-32.57 281.04,-50.95l5.91 60.38c-91.97,18.38 -184.41,32.12 -276.39,50.5 -391.6,71.15 -779.01,137.21 -1143.19,200.99 -364.19,63.78 -705.6,120.64 -1000.58,172.97 -290.33,51.86 -535.12,89.88 -706.05,116 -170.94,26.11 -268.02,40.3 -268.02,40.3 0,0 92.43,-13.75 262.46,-49.15zm1868.89 -164.17c170.03,-35.41 413.91,-82.72 703.79,-139.23 175.12,-31.21 368.37,-68.88 575.55,-107.91l4.55 46.45c-202.99,33.93 -396.7,66.96 -571.83,98.17 -290.33,51.86 -535.12,89.89 -706.06,116 -170.93,26.11 -268.01,40.31 -268.01,40.31 0,0 91.98,-18.39 262.01,-53.79zm2858.76 -542.41c382.76,-65.6 769.71,-136.3 1129.25,-199.63 364.19,-63.78 705.61,-120.64 1000.58,-172.96 290.33,-51.86 535.12,-89.89 706.06,-116.01 170.94,-26.1 268.02,-40.3 268.02,-40.3 0,0 -96.63,18.83 -266.66,54.24 -170.03,35.4 -413.91,82.71 -703.78,139.22 -289.87,56.51 -630.38,122.66 -998.76,191.54 -359.09,67.97 -746.04,138.66 -1132.99,209.37l-6.37 -65.01 4.65 -0.46zm2972.28 -867.68c-243.88,47.32 -589.03,113.93 -1008.05,192.45 -419.01,78.52 -906.77,173.16 -1427.51,266.33 -184.42,32.12 -373.02,69.34 -566.72,102.37l-5.46 -55.74c189.06,-32.57 378.12,-65.14 562.08,-101.91 525.37,-93.62 1014.51,-174.33 1429.33,-247.75 419.47,-73.88 770.17,-131.65 1014.97,-169.68 244.79,-38.03 383.21,-60.95 383.21,-60.95 0,0 -137.97,27.56 -381.85,74.88zm-9521.73 -127.69l406.95 804.18 -367.81 -643.9 698.72 1389.87 -680.99 -1208.74 688.98 1386.15 -671.71 -1209.65 679.23 1382.41 -661.96 -1205.92 609.86 1248.52 -634.54 -1213.28 -66.73 -729.64zm3830.08 1716.38c-262,53.78 -519.82,102.45 -763.71,149.78 -243.88,47.31 -468.73,97.45 -680.56,136.95 -422.74,88.27 -772.09,159.97 -1020.16,212.39 -248.08,52.42 -386.05,79.99 -386.05,79.99 0,0 137.52,-32.22 384.68,-93.92 123.58,-30.86 270.39,-63.98 439.96,-104.03 169.58,-40.04 362.37,-82.36 573.28,-131.14 211.38,-44.13 440.87,-94.73 679.2,-150.88 243.43,-51.96 495.7,-109.48 758.16,-158.62 262.01,-53.78 537.95,-108.92 813.89,-164.06 115.2,-20.65 234.59,-46.41 349.8,-67.07l5.91 60.38c-115.21,20.65 -230.4,41.31 -345.16,66.61 -271.29,54.69 -542.58,109.38 -809.24,163.62zm5802.85 -1027.52c-124.5,21.56 -276.85,45.86 -447.79,71.96 -170.94,26.11 -369.28,59.59 -581.57,94.44 -212.28,34.84 -442.69,76.16 -687.48,114.18 -244.33,42.68 -497.96,86.25 -765.53,131.2 -189.05,32.58 -382.76,65.6 -581.11,99.09l-5.91 -60.39c193.71,-33.02 387.41,-66.05 576.47,-98.62 267.56,-44.95 521.64,-83.89 766.44,-121.92 244.78,-38.03 475.65,-74.69 688.38,-104.89 425.02,-65.04 781.74,-109.34 1031.63,-143.18 249.89,-33.83 393.87,-47.93 393.87,-47.93 0,0 -142.16,32.68 -387.4,66.06z"/>
 </g>
</svg>
