<?xml version="1.0" encoding="utf-8"?>
<!-- Generator: Adobe Illustrator 24.0.2, SVG Export Plug-In . SVG Version: 6.00 Build 0)  -->
<svg version="1.1" id="Слой_1" xmlns="http://www.w3.org/2000/svg" xmlns:xlink="http://www.w3.org/1999/xlink" x="0px" y="0px"
	 viewBox="0 0 238.1 150.2" style="enable-background:new 0 0 238.1 150.2;" xml:space="preserve">
<g>
	<path class="st0" d="M212.2,73.2c-0.3,35-26.2,59-54.7,60.9c-16,1.1-30.3-3.4-42.6-13.8c-12.3-10.4-19.4-23.7-20.8-39.8
		c-1.5-17,3.4-32,14.8-44.8c10.6-12,24.3-18.6,40.3-19.6c17-1,31.8,4.4,44.2,16.1C205.8,43.8,211.9,58.4,212.2,73.2z M126,90.2
		c0.1-0.4,0-0.8,0.3-1c0.6-0.6,1.4-1.3,2.2-1.9c0.6-0.5,1.3-1.1,2.3-0.9c0.1,0,0.3,0,0.4-0.1c-0.3-0.6-0.6-0.9-1.1-0.9
		c-1.1,0-2.2,0-3.3,0c-1.1,0-2,0.8-2.8,1.4c0.4,0.3,0.8,0.4,0.9,0.6C125.3,88.3,125.6,89.3,126,90.2c0,0.4-0.1,0.9,0.1,1.3
		c0.4,0.8,0.9,1.5,1.4,2.2c1.6,1.9,3.3,3.8,5.2,5.4c1.8,1.8,3.9,3,6.3,4.2c0.1-0.5,0.1-0.8-0.4-1c-2.5-1.5-4.8-3-7-5.1
		c-1.9-1.9-3.5-4.1-5.1-6.3C126.5,90.4,126.3,90.3,126,90.2z M180.1,60.7c0,0.3,0,0.5,0.1,0.8c0.3,0.6,0.5,1.3,0.9,1.9
		c1.4,3.3,2.3,6.7,2.4,10.4c0,0.6,0.3,1.4,0.5,2c0.5,1,1.1,1.8,1.6,2.8c0.3,0.5,0.6,0.6,1.1,0.5c0.6-0.1,1.4-0.1,2.2-0.3
		c0.1-0.4,0-0.6-0.5-0.6c-0.9,0.1-1.4-0.3-1.8-1c-0.5-1-1.3-1.9-1.8-2.9c-0.3-0.4-0.5-0.8-0.6-1.1c-0.1-1.1-0.3-2.3-0.4-3.4
		c-0.4-2.3-0.9-4.4-1.8-6.6c-0.1-0.3-0.3-0.4-0.5-0.5c-0.3-0.3-0.6-0.4-0.9-0.8C180.6,61.7,180.4,61.2,180.1,60.7
		c-0.1-0.4-0.5-0.9-0.4-1.3c0.3-0.6,0.1-0.9-0.3-1.3c-2.2-3.2-4.7-6-7.7-8.2c-3.3-2.4-7-4.2-10.9-5.2c-0.4-0.1-0.6-0.1-1-0.1
		c0,0.1-0.1,0.3-0.1,0.3c0.4,0.3,0.8,0.6,1.1,0.8c5.2,1.4,9.6,3.9,13.4,7.7c2,2,3.8,4.3,5.2,6.8C179.7,60.3,180,60.4,180.1,60.7z
		 M192.9,91.4c0.4,0.3,0.8,0.4,1.1,0.6c0.4,0.3,0.6,0.4,0.4,0.9c-0.9,1.5-1.5,3.3-2.4,4.8c-1.9,3.3-4.2,6.2-6.8,9
		c-0.9,0.9-1.9,1.8-2.9,2.5c-2.2,1.6-4.3,3.4-6.7,4.8c-4.6,2.8-9.5,4.6-14.8,5.4c-2.4,0.4-4.9,0.5-7.3,0.6c-1.4,0.1-2.9,0-4.3-0.1
		c-1.5-0.1-3-0.3-4.4-0.5c-4.6-1-9-2.4-13-4.7c-2.8-1.5-5.4-3.3-7.9-5.3c-3-2.5-5.7-5.4-7.7-8.7c-1.4-2.2-2.8-4.4-3.9-6.7
		c-1.6-3.3-2.8-6.8-3.4-10.6c-0.4-2-0.6-4.1-0.6-6c-0.1-2,0-4.2,0.1-6.2c0.1-1.9,0.4-3.9,0.9-5.8c1.3-5.1,3.2-10,6.1-14.4
		c2.8-4.3,6.1-8,10-11.1c4.4-3.5,9.5-6.2,14.9-7.9c2.8-0.9,5.7-1.6,8.7-1.6c3.3,0,6.5-0.1,9.6,0c3.3,0.3,6.5,1.1,9.6,2.3
		c6.3,2.3,11.9,5.8,16.7,10.5c1.6,1.6,3.2,3.5,4.6,5.3c2.4,3.2,4.3,6.7,5.7,10.4c0.9,2.4,1.4,4.8,2.2,7.3c0.1,0.3,0.4,0.8,0.5,0.8
		c0.6,0.1,1.3,0,2,0c0-0.4,0-0.6,0-0.9c-0.9,0.1-1.3-0.5-1.4-1.3c-0.4-1.4-0.8-2.8-1.1-4.1c0-0.3,0.1-0.6,0.3-0.8
		c0.5-0.1,0.6-0.6,0.5-0.9c-0.3-0.4-0.1-1.3-1-1.1c-0.5,0.1-0.8-0.3-0.9-0.6c-0.5-1.1-1-2.3-1.6-3.3c-0.4-0.8-0.8-1.5,0.3-2
		c-0.1-0.3-0.3-0.5-0.4-0.6c-0.3-0.5-0.5-1-1.3-0.8c-0.3,0-0.6-0.3-0.8-0.4c-0.3-0.4-0.5-0.8-0.8-1.1c-0.6-0.9-1.3-1.8-1.8-2.5
		c-0.1-0.3-0.3-0.6-0.1-0.8c0.8-0.9-0.4-1-0.5-1.6c-0.1-0.5-0.5-0.1-0.9-0.1c-0.3,0-0.6,0-0.9-0.3c-1.1-1-2.2-2.2-3.3-3.3
		c-0.1-0.1-0.3-0.5-0.1-0.6c0.4-0.6,0-0.9-0.4-1.3c-0.3-0.3-0.5-0.4-0.9-0.6c-0.6,0.8-0.8,0.8-1.5,0.1c-1.1-0.8-2.3-1.5-3.4-2.4
		c-0.5-0.4-0.9-0.8-0.1-1.4c-0.5-0.3-0.9-0.5-1.3-0.8c-0.1-0.1-0.6-0.1-0.6,0c-0.4,0.6-1,0.4-1.4,0.1c-1.1-0.5-2.4-1.1-3.5-1.8
		c-0.6-0.3-1-0.6-0.6-1.4c-0.4-0.1-0.8-0.3-1.1-0.4c-0.5-0.3-0.8-0.3-0.9,0.4c0,0.1-0.5,0.3-0.8,0.3c-1.3-0.3-2.5-0.8-3.8-1
		c-0.9-0.1-1.5-0.5-1.4-1.5c-0.6-0.1-1.3-0.1-1.8-0.3c0,0.1,0,0.1,0.1,0.3c-0.4,0.3-0.8,0.8-1,0.8c-1.5,0-3-0.3-4.4-0.4
		c-0.3,0-0.8-0.3-0.8-0.5c-0.1-0.4-0.3-0.6-0.6-0.6c-0.5,0.1-1.1-0.4-1.4,0.5c-0.1,0.3-0.6,0.5-0.9,0.6c-1.4,0.1-2.7,0.3-4.1,0.4
		c-0.8,0.1-1.3,0-1.3-0.9c-0.6,0.1-1.1,0.1-1.6,0.3c-0.1,0-0.4,0.4-0.4,0.4c0.3,0.8-0.4,0.8-0.8,0.9c-1.3,0.4-2.5,0.6-3.7,1
		c-0.8,0.3-1.4,0.3-1.8-0.6c-0.5,0.1-0.9,0.4-1.3,0.5c-0.1,0.1-0.4,0.4-0.4,0.5c0.3,0.5-0.1,0.6-0.5,0.9c-1.4,0.6-2.7,1.3-4.1,1.9
		c-0.3,0.1-0.6-0.1-1-0.1c-0.3,0-0.6-0.1-0.8,0c-0.4,0.1-0.9,0.5-1.3,0.8c0.4,0.5,0.5,0.9,0,1.3c-1.3,0.9-2.5,1.8-3.8,2.7
		c-0.5,0.4-1,0.4-1.4-0.3c-0.5,0.4-1,0.9-1.5,1.3c0.5,0.5,0.5,0.9,0,1.4c-1,1-1.9,2-2.9,3c-0.3,0.3-0.8,0.8-1.3,0.3
		c0,0-0.4,0-0.5,0.1c-0.4,0.4-0.6,0.8-1,1.3c0.6,0.5,0.5,1,0.1,1.5c-0.8,1-1.5,2.2-2.3,3.2c-0.4,0.6-0.8,1-1.5,0.4
		c-0.4,0.6-0.6,1.1-0.9,1.5c0.1,0.6,0.5,1.1,0.4,1.4c-0.6,1.5-1.3,2.9-2,4.3c-0.1,0.4-0.4,0.6-0.8,0.4c-0.1,0-0.5,0.1-0.6,0.4
		c-0.3,0.4-0.4,0.9-0.5,1.4c0.9,0.6,1,0.6,0.8,1.4c-0.4,1.4-0.8,2.8-1.1,4.1c-0.1,0.3-0.4,0.8-0.6,0.8c-0.6,0-0.8,0.4-0.8,0.8
		c-0.1,0.4,0,0.8,0,1.1c0.8,0,0.9,0.5,0.8,1.1c-0.1,1.4-0.3,2.7-0.4,4.1c0,0.6-0.3,0.9-0.8,1.1c-0.1,0.1-0.4,0.4-0.4,0.5
		c-0.1,0.4,0,0.9,0,1.4c1.1-0.3,1.1,0.5,1.1,1.3c0.1,1,0.3,2,0.3,2.9c0,0.8,0.5,1.5-0.6,2.2c-0.3,0.1-0.1,1,0,1.5
		c0,0.1,0.4,0.3,0.5,0.4c0.3,0.3,0.6,0.4,0.8,0.6c0.4,1.4,0.8,2.9,1.1,4.3c0.1,0.5,0.1,0.6-0.3,1c-0.3,0.3-0.1,0.9,0,1.3
		c0.1,0.3,0.4,0.6,0.6,0.6c0.6,0,0.9,0.4,1,0.8c0.5,1.1,1,2.2,1.5,3.3c0.4,0.8,0.5,1.4-0.3,1.9c0.1,0.3,0.3,0.4,0.4,0.6
		c0.3,0.5,0.4,1.1,1.3,0.8c0.1-0.1,0.6,0.3,0.8,0.5c0.9,1.1,1.6,2.4,2.4,3.5c0.3,0.4,0.4,0.5,0.1,0.9c-0.5,0.8,0.4,1,0.5,1.5
		c0.1,0.1,0.5,0.3,0.5,0.3c0.6-0.5,1,0,1.4,0.4c1,0.9,1.9,2,2.8,2.9c0.5,0.5,0.6,0.9,0.1,1.4c0.4,0.4,0.8,0.6,1.1,0.9
		c0.1,0.1,0.4,0,0.6,0c0.4,0,0.9-0.1,1.3,0.1c1.1,0.8,2.3,1.5,3.3,2.3c0.6,0.4,1,0.9,0.4,1.5c0.6,0.4,1.1,0.6,1.6,0.9
		c0.3-0.6,0.8-0.8,1.4-0.5c1.3,0.6,2.4,1.1,3.7,1.8c0.4,0.1,0.8,0.5,0.8,0.8c-0.1,1.1,0.9,0.9,1.4,1.3c0.1,0,0.4-0.1,0.4-0.1
		c0.3-0.5,0.8-0.5,1.1-0.4c1.4,0.4,2.8,0.8,4.2,1.1c0.4,0.1,0.8,0.5,0.8,0.8c0.1,0.6,0.4,0.6,0.8,0.6s0.8,0,1,0c0,0,0-0.1-0.1-0.1
		c0.4-0.3,0.8-0.6,1.1-0.6c1.4,0,2.7,0.1,4.1,0.4c0.6,0.1,1.4,0.3,1.4,1c0.6,0,1.3,0,1.9,0c-0.1-0.6,0.1-0.9,0.8-1
		c1.5-0.1,3-0.4,4.6-0.5c0.3,0,0.8,0.3,0.8,0.5c0.4,0.9,0.9,0.1,1.3,0.3c0.3,0,0.5-0.4,0.8-0.6c0.3-0.3,0.4-0.6,0.6-0.8
		c1.1-0.4,2.3-0.8,3.5-1c0.6-0.1,1.4-0.6,1.9,0.4c0,0.1,0.3,0.1,0.5,0c0.5-0.1,0.9-0.3,1.1-0.4c0.1-0.5,0.3-1.1,0.5-1.4
		c1.3-0.6,2.7-1.3,4.1-1.9c0.6-0.3,1.3-0.4,1.6,0.4c0.3-0.1,0.5-0.3,0.6-0.4c0.5-0.3,0.9-0.5,0.8-1.3c0-0.1,0.1-0.5,0.3-0.5
		c1.3-0.9,2.5-1.9,3.8-2.7c0.3-0.1,0.6,0,1,0c0.3,0,0.5,0.1,0.6,0c0.4-0.3,0.8-0.6,1.1-1c-0.3-0.3-0.4-0.5-0.5-0.8
		c-0.1-0.1-0.1-0.3-0.3-0.3c1.3-1.1,2.5-2.3,3.8-3.5c0.5-0.5,0.9-0.5,1.4,0c0.3-0.3,0.4-0.6,0.6-0.8c0.4-0.4,0.6-0.8,0.3-1.3
		c-0.1-0.1,0-0.6,0.1-0.9c0.6-1,1.4-2,2-3c0.5-0.8,0.9-1.5,1.9-0.9c0.3-0.6,0.5-1,0.9-1.5c-0.6-0.4-0.6-0.9-0.4-1.4
		c0.6-1.3,1.1-2.7,1.9-3.9c0.1-0.3,0.6-0.5,0.9-0.4c0.6,0.3,1.1,0.6,1.6,1c0,0,0,0.3-0.1,0.4c-0.6,1.3-1.3,2.7-1.9,3.9
		c-0.3,0.6-0.6,1.1-1.4,0.8c-0.3,0.4-0.6,0.8-0.8,1.1c-0.1,0.3-0.3,0.6-0.1,0.8c0.6,0.5,0.3,0.9,0,1.4c-0.6,1-1.4,2-2.2,3
		c-0.4,0.5-0.6,1.3-1.5,0.6h-0.3c-0.4,0.5-0.9,0.9-1.3,1.4c-0.1,0.1,0.1,0.5,0.3,0.8c0,0.1,0,0.4-0.1,0.5c-1,1-2,2.2-3,3.2
		c-0.5,0.6-1,0.9-1.6,0c-0.6,0.5-1.1,0.9-1.6,1.4c0.4,1,0.4,1-0.4,1.5c-1,0.8-2,1.4-3,2.2c-0.6,0.5-1.3,0.8-1.8-0.1
		c-0.5,0.3-1,0.5-1.4,0.8c-0.1,0.1-0.4,0.4-0.3,0.5c0.3,0.6-0.1,0.9-0.6,1.1c-1.3,0.6-2.5,1.1-3.8,1.8c-0.8,0.4-1.1,0.3-1.3-0.6
		c-0.8,0.3-1.4,0.5-2.2,0.8c0.4,1-0.4,1.1-0.9,1.4c-1.3,0.4-2.5,0.6-3.7,1c-0.8,0.3-1.3,0.1-1.4-0.8c-0.8,0.1-1.4,0.3-2,0.3
		c-0.3,1.1-0.4,1.3-1.5,1.3c-1,0-2,0.1-2.9,0.3c-1.1,0.1-1.5,0-1.9-0.9c-0.6,0-1.4,0-2,0c-0.3,0.9-0.4,1-1.3,1
		c-1.3-0.1-2.7-0.1-3.9-0.4c-0.4,0-1-0.4-1-0.5c-0.1-0.6-0.5-0.6-0.9-0.8c-0.4,0-0.8-0.1-1.1-0.3c-0.5,1-0.8,1-1.8,0.6
		c-1.1-0.4-2.3-0.6-3.4-0.9c-1-0.3-1.1-0.4-1-1.4c-0.6-0.3-1.3-0.5-2-0.8c-0.3,0.8-0.8,0.9-1.4,0.5c-1.4-0.6-2.8-1.3-4.1-1.9
		c-0.3-0.1-0.3-0.5-0.4-0.8s-0.3-0.6-0.5-0.9c-0.4-0.3-0.8-0.5-1.1-0.8c-0.1,0.3-0.4,0.4-0.5,0.6c-0.5-0.3-0.9-0.4-1.4-0.6
		c-1.1-0.8-2.2-1.5-3.3-2.3c-0.4-0.3-0.4-0.5-0.1-0.9c0.3-0.4,0.1-0.6-0.3-0.9c-0.3-0.1-0.4-0.3-0.6-0.5c-0.4-0.3-0.6-0.6-1.1-0.1
		c-0.1,0.1-0.6,0-0.9-0.1c-1.3-1.1-2.5-2.4-3.8-3.5c0.1-0.3,0.1-0.3,0.1-0.3c0.1-0.4,0.4-1,0.3-1c-0.6-0.4-0.6-1.8-1.9-1
		c-0.1,0.1-0.6-0.3-0.8-0.5c-0.9-1.3-1.8-2.4-2.5-3.7c-0.1-0.3-0.3-0.8-0.3-0.8c0.9-0.6,0.1-1,0-1.5c-0.1-0.5-0.4-0.9-1-0.6
		c-0.3,0-0.6-0.3-0.8-0.6c-0.6-1.1-1.1-2.2-1.6-3.3c-0.6-1.1-0.6-1.1,0.3-1.9c-0.1-0.4-0.3-0.6-0.4-1c-0.1-0.5-0.3-0.9-1-0.8
		c-0.1,0-0.5-0.3-0.6-0.5c-0.4-1.5-0.8-2.9-1.3-4.4c-0.1-0.6-0.1-0.9,0.4-1.3c0.1-0.1,0.3-0.4,0.3-0.5c-0.1-0.5-0.3-1.1-0.4-1.6
		c-0.9,0.1-1.1-0.4-1.1-1.1c0-1-0.1-2-0.3-2.9c-0.3-1.3,0-1.8,0.9-2.2c0-0.6,0-1.3,0-1.9c-0.6-0.1-0.9-0.4-0.9-1.1
		c0.1-1.4,0.3-2.8,0.3-4.2c0-0.8,0.4-1.1,1.1-1c0.1-0.3,0.1-0.5,0.1-0.6c0-0.6,0.5-1.4-0.4-1.9c-0.1,0-0.3-0.4-0.1-0.6
		c0.4-1.4,0.8-2.8,1.1-4.2c0.3-0.8,0.5-1.3,1.4-0.9c0.3-0.6,0.5-1.3,0.6-1.9c-0.1-0.5-1-0.5-0.6-1.4c0.6-1.4,1.3-2.8,1.9-4.2
		c0.1-0.3,0.5-0.4,0.8-0.5c0.6-0.1,1.5-1,1.5-1.6c0-0.1,0-0.3-0.1-0.4c-0.5-0.4-0.4-0.8-0.1-1.1c0.8-1.1,1.6-2.2,2.3-3.3
		c0.4-0.6,0.9-1,1.6-0.4c0.4-0.5,0.8-0.9,1-1.3c0.1-0.1,0.1-0.5,0-0.8c-0.4-0.5-0.1-0.8,0.3-1.1c0.9-0.9,1.9-1.9,2.8-2.8
		c0.5-0.5,1.1-1,1.8-0.1c0.6-0.5,1.1-1,1.6-1.4c-0.5-0.8-0.5-1,0-1.3c1.4-1,2.9-2,4.3-3c0.5,0.4,0.9,0.9,1.6,0.4
		c0.5-0.4,1.1-0.6,1-1.4c0-0.1,0.1-0.5,0.4-0.5c1.4-0.6,2.8-1.3,4.2-2c0.4-0.3,0.8-0.1,1,0.3c0.1,0.3,0.6,0.3,0.9,0.3
		c0.5-0.1,0.9-0.4,1.4-0.6c-0.4-0.8,0.1-1.1,0.8-1.3c1.4-0.4,2.7-0.6,4.1-1c0.5-0.1,0.9-0.3,1.1,0.4c0.1,0.1,0.4,0.3,0.5,0.3
		c0.6-0.1,1.1-0.3,1.8-0.4c-0.3-0.6,0-1,0.6-1.1c1.5-0.1,3-0.3,4.6-0.4c0.6,0,1.1,0,1,0.8c0.8,0,1.4,0,2.2,0c-0.1-0.9,0.5-0.9,1-0.8
		c1.5,0.1,2.9,0.3,4.4,0.4c0.6,0,0.9,0.4,0.6,1.1c0.1,0,0.3,0.1,0.4,0.1c0.8,0.1,1.6,0.6,2.2-0.4c0.1-0.1,0.5-0.1,0.8-0.1
		c1.3,0.3,2.5,0.6,3.8,1c0.8,0.3,1.5,0.5,1.1,1.5c0.6,0.3,1.3,0.5,1.9,0.6c0.4-0.4,0.6-1,1.3-0.6c1.4,0.6,2.7,1.3,4.1,2
		c0.4,0.3,0.9,0.4,0.5,1c0,0.1,0,0.4,0.1,0.4c0.5,0.3,1,0.6,1.5,0.8c0.3,0,0.6-0.4,0.9-0.5c1.3,0.9,2.7,1.8,3.9,2.7
		c0.8,0.5,0.9,0.8,0.4,1.6c0.5,0.5,1,0.9,1.6,1.4c0.5-0.8,1-0.6,1.6,0c0.6,0.8,1.5,1.3,2,2c0.5,0.6,1.8,1.1,0.9,2.3
		c0,0,0,0.3,0.1,0.3c0.3,0.4,0.5,0.6,0.9,1c0.1,0.1,0.5,0.3,0.5,0.1c0.6-0.4,1,0,1.3,0.4c0.9,1.1,1.6,2.4,2.5,3.7
		c0.1,0.3,0.1,0.6,0,0.8c-0.8,0.5-0.3,0.9,0,1.4c0.1,0.4,0.4,0.6,0.6,0.9c0.9-0.3,1-0.3,1.4,0.6c0.6,1.1,1.1,2.4,1.6,3.5
		c0.4,0.8,0.4,1.3-0.5,1.5c0.3,0.8,0.5,1.4,0.8,2.2c0.9-0.5,1.1-0.1,1.4,0.6c0.4,1.4,0.8,2.7,1.1,4.1c0.1,0.3-0.1,0.9-0.4,1
		c-0.4,0.4-0.5,0.6-0.4,1.1c0,0.3,0.1,0.5,0.1,1c-1,0-1.9,0-2.8,0c-0.5,0-0.8-0.1-0.9-0.6c-0.4-1.8-0.8-3.7-1.4-5.4
		c-1.4-4.3-3.3-8.4-6.1-11.9c-1.5-2-3.2-3.9-4.9-5.7c-1.3-1.4-2.7-2.8-4.2-3.8c-2.2-1.5-4.3-3-6.6-4.2c-2.2-1.1-4.4-2.2-6.7-2.8
		c-3.4-1.1-7-2-10.8-2c-2.5,0-5.1-0.1-7.6,0.1c-2.5,0.3-4.9,0.9-7.3,1.4c-3.8,0.8-7.2,2.5-10.5,4.4c-4.8,2.8-8.9,6.3-12.3,10.6
		c-2.7,3.4-4.9,7-6.6,10.9c-2.2,5.4-3.3,11-3.3,16.8c0,1.5,0.1,3.2,0.4,4.7c0.3,2,0.5,4.2,1,6.1c0.9,3.7,2.3,7.2,4.2,10.6
		c2.3,4.1,4.9,7.7,8.5,10.9c1.6,1.5,3.3,2.9,5.1,4.2c2.8,2,5.7,3.8,9,4.9c2.2,0.8,4.4,1.4,6.7,2c2.9,0.9,6,1.1,9,1.1
		c2.3,0,4.6-0.1,6.7-0.5c2.4-0.4,4.8-0.9,7.1-1.5c3.3-0.9,6.2-2.4,9.2-3.9c3.7-2,7-4.7,9.8-7.7c1.6-1.8,3.2-3.7,4.4-5.6
		c1.4-2.2,2.7-4.4,3.9-6.7c0.3-0.5,0.6-1.1-0.4-1.4c-5.1,11.4-13.6,18.9-23.1,22.9c-10.6,4.6-21.5,4.8-32.4,0.8
		c-9.6-3.5-17.1-10-22.3-18.7c-5.8-9.9-7.5-20.5-4.9-31.7c2.2-9.8,7.1-17.9,14.9-24.2c7.7-6.3,16.7-9.8,26.7-10
		c21.5-0.4,38.3,14.4,42.9,32.2c-0.4,0-0.8,0-1.1,0c-0.6,0.1-0.9-0.3-1-0.8c-1.6-5.7-4.6-10.6-8.5-15.1c-0.3,0.3-0.5,0.5-0.6,0.6
		c0.6,0.9,1.3,1.6,1.9,2.4c2.3,3,4.2,6.3,5.4,10c0.5,1.3,0.6,2.5,1.4,3.7c1,1.5,2.3,2.8,3.4,4.2c0.1,0.3,0.5,0.4,0.9,0.4
		c2.5,0,5.1,0,7.7,0c0.9,0,1.8,0,2.8,0c-2.2-15.5-9.1-28-21.4-37.4c-12.4-9.2-26.5-12.7-41.7-10.3c-12.8,2-23.7,8.1-32.2,18
		c-10.4,12-14.7,26.1-13,41.8c1.4,12.7,6.5,23.6,15.5,32.6c11.4,11.3,25.3,16.7,41.3,16c12.5-0.5,23.6-5.1,33.1-13.3
		c7.9-6.8,13.3-15.1,16.3-25.1c-0.1,0-0.3,0-0.3,0c-4.7,0-9.2,0-13.9,0c-0.4,0-0.8,0.3-1,0.4c-1,0.8-2,1.6-2.9,2.5
		c-1,0.9-2.2,1.8-2.9,2.8c-1.9,2.5-4.1,5.1-6.5,7.1c-0.5,0.5-1.3,0.8-0.8,1.6c3.2-2.2,5.4-5.1,7.3-8.1c1-0.1,1.3,1.4,2.2,0.4
		c0.3,0.1,0.5,0.4,0.8,0.5c0.3,0.1,0.5,0.4,0.8,0.6c-5.4,7.7-12.7,13.2-21.5,16.1c-8.9,2.9-17.9,2.8-26.9-0.1
		c-0.1,0.3-0.1,0.4-0.3,0.6c4.9,2,14.7,3.8,25,0.9C177.7,113,187.2,104.4,192.9,91.4z M194.3,62.9c-1.4-5.4-5.6-15.1-16-22.7
		c-8.7-6.5-18.7-9.2-29.6-8.1c-9.1,1-17.4,4.3-24.2,10.5c-8.9,8-13.9,17.9-14.6,29.8c-0.6,11.7,2.9,22.2,10.6,31
		c3.2,3.7,7,6.8,11.4,9.2c0.1-0.4,0.3-0.6,0.3-0.6c-0.5-0.4-1-0.6-1.4-0.9c-0.3-0.3-0.5-0.4-0.8-0.6c-2.2-1.8-4.4-3.3-6.6-5.2
		c-2.4-2.2-4.3-4.8-6.1-7.5c-3.8-5.8-6-12.3-6.5-19.3c-0.3-4.4-0.1-8.7,1-13c1-3.9,2.4-7.9,4.4-11.3c2.3-3.9,5.2-7.5,8.6-10.5
		c2.9-2.5,6-4.7,9.5-6.3c3-1.5,6.2-2.7,9.5-3.3c2-0.4,4.1-0.9,6.1-0.9c4.1-0.1,8.1,0,12.2,0.9c4.2,0.9,8.2,2.4,11.9,4.6
		c2.5,1.5,4.8,3.3,7.1,5.2c1.9,1.6,3.7,3.5,5.2,5.4c3,3.8,5.3,8.2,6.8,12.9C193.4,62.8,193.7,63.1,194.3,62.9z M162,48
		c-0.1,0.1-0.1,0.3-0.3,0.4c0.4,0.4,0.8,0.8,1.1,0.9c1.5,0.8,3.2,1.4,4.7,2.4c3.9,2.5,7,5.7,9.4,9.8c0.3,0.4,0.4,0.8,0.6,1
		c0.9,0.5,1.5,1.1,1,2.3c0,0.1,0.1,0.4,0.1,0.5c0.5,1.5,1.1,3,1.4,4.6c0.4,2.2,0.5,4.4,0.4,6.7c-0.1,2.3-0.5,4.6-1.1,6.8
		c-1,3.4-2.7,6.5-4.9,9.1c-1,1.3-2.2,2.4-3.3,3.5c-1.8,1.6-3.8,2.9-6,4.1c-0.5,0.3-0.9,0.5-0.9,1.3c0.3-0.1,0.5-0.1,0.6-0.1
		s0.3-0.1,0.4-0.1c2.9-1.4,5.4-3.2,7.6-5.4c2.3-2.3,4.2-4.8,5.6-7.7c0.4-0.8,0.6-1.6,1.3-2.3c1.3-1.3,2.8-2.4,4.1-3.5
		c0.4-0.4,0.8-0.6,1.3-0.6s1.3-0.1,1.5,0.1c0.6,0.6,1.3,0.4,1.9,0.4c0.5,0,0.5-0.3,0.4-0.6c-0.4,0-0.8,0.1-1.1,0.1
		c-1.1-0.1-2.2-0.1-3.3-0.4c-0.3,0-0.6-0.3-0.8-0.4c-0.8-1-1.4-2.2-2-3.3c-0.1-0.3-0.4-0.6-0.4-1c0-1.1,0-2.3,0-3.4
		c-0.1-1.1-0.1-2.4-0.4-3.5c-0.9-3.7-2.2-7.2-4.3-10.3c-1.4-2.2-3.2-3.9-5.1-5.6c-1.8-1.5-3.7-2.8-5.8-3.8
		C164.7,49,163.3,48.5,162,48z M134.8,80.5c-0.6-0.6-1.4-0.9-2.2-0.9c-3.2,0.1-6.3,0.1-9.5,0.1c-1.6,0-3.5,0-4.6-1.6
		c-0.1-0.1-0.3-0.1-0.4-0.3c-0.9-0.8-1.6-1.4-1.5-2.8c0.1-1.4,0.1-2.7,0.3-4.1c0-0.5,0.1-1,0.1-1.4c0.6-2.9,1.4-5.7,2.5-8.5
		c1.8-4.2,4.2-7.9,7.3-11.1c0.6-0.6,1.4-1.4,2-2c-1.1-0.1-1.1-0.1-1.9,0.6c-1.1,1.1-2.3,2.3-3.3,3.7c-2.9,3.8-5.3,7.9-6.5,12.7
		c-0.8,3.2-1.5,6.2-1.4,9.5c0,1.4,0,2.8,0.1,4.2c0.3,2,0.5,3.9,0.9,5.8c1,4.3,2.9,8.5,5.4,12.2c0.3,0.3,0.6,0.4,1.1,0.6
		c0-0.4,0-0.4,0-0.5c-0.1-0.4-0.4-0.6-0.5-1c-2.8-3.9-4.6-8.2-5.6-12.9c0-0.3,0.1-0.5,0.3-0.6c1-0.5,2-1,3-1.4c0.5-0.1,1,0,1.5,0
		c1.8,0,3.5,0,5.3,0C129.8,80.5,132.2,80.5,134.8,80.5z M121.8,102.7c0.6-0.6,0.3-1.1-0.1-1.5c-1.9-2.2-3.4-4.4-4.7-7
		c-2-3.9-3.4-8-4.1-12.3c-0.3-2-0.5-4.2-0.6-6.2c-0.1-1,0-2,0.1-3c0.1-1.5,0.3-3.2,0.5-4.7c0.5-3.3,1.6-6.3,3-9.4
		c1.6-3.8,3.9-7.2,6.6-10.3c0.5-0.6,0.8-1,0.3-1.6C106.3,63.9,109.2,89,121.8,102.7z M143.9,48c-1.9,0.9-3.7,1.8-5.4,2.8
		c-2.5,1.4-4.7,3.3-6.7,5.4c-3,3.4-5.1,7.3-6.3,11.8c-0.3,0.8,0,1.3,0.4,2c1,1.3,2,2,3.7,1.8c0.5-0.1,0.8-0.3,0.9-0.9
		c-0.6,0-1.1,0-1.9,0c0.4-1.4,0.8-2.8,1.3-4.1c0.6-1.5,1.1-3,2-4.6c0.6-1.1,1.5-2,2.3-2.9c1.9-2.2,4.1-4.1,6.5-5.4
		c0.4-0.3,0.6-0.9,1-1.3c-0.1,0-0.1-0.1-0.3-0.1c-7.1,3.5-11.4,9.5-13.3,17.2c-1.5-1.1-1.6-1.8-1.1-3.3c1-2.8,2.4-5.3,4.2-7.7
		c2.3-2.9,4.9-5.4,8.1-7.2c1.4-0.8,2.8-1.4,4.2-2C143.6,49,144.1,48.7,143.9,48z M123.6,101.2c-6.6-7.7-10.1-16.6-10-26.7
		c0.3-10.1,4.1-18.9,10.8-26.5c-0.4,0-0.9-0.1-1.1,0.1c-0.9,0.9-1.6,1.9-2.4,2.9c-1.9,2.5-3.5,5.3-4.8,8.1c-0.9,2-1.5,4.2-2,6.2
		c-0.5,2.4-1,4.8-1.1,7.3c-0.1,1.9,0,3.9,0.1,5.8c0.1,3,0.9,6,1.8,8.9c1.5,4.9,4.1,9.5,7.5,13.6C122.6,101.4,123,101.6,123.6,101.2z
		 M163.3,50c-0.1,0.1-0.1,0.1-0.3,0.3c0.3,0.4,0.5,0.9,1,1c2.5,1.3,4.8,2.8,6.8,4.7c2,1.8,3.5,3.9,4.9,6.3c1.9,3.3,2.9,7,3.4,10.8
		c0.3,2.9,0,5.7-0.8,8.6c-0.9,3.8-2.7,7.1-5.1,10c-1.5,1.9-3.3,3.5-5.3,4.9c-0.9,0.5-1.8,1.1-2,2.4c0.1-0.1,0.3-0.3,0.4-0.3
		c5.3-3,9.1-7.3,11.5-13c1.4-3.4,2.2-6.8,2-10.5c0-1.4-0.1-2.9-0.4-4.3c-0.4-1.9-1-3.7-1.5-5.6c0-0.1-0.4-0.4-0.4-0.4
		c-0.5,0.4-0.5-0.1-0.6-0.4c-0.3-0.5-0.6-1.1-0.4-1.8c0.1-0.1-0.1-0.4-0.1-0.6c-1-2-2.4-3.8-4.1-5.6C170.1,53.7,166.8,51.5,163.3,50
		z M122,97.9c0-0.4,0.3-0.9,0-1c-1.8-2.5-3.4-5.3-4.3-8.2c-0.9-2.7-1.6-5.4-2.2-8.2c-0.4-2.3-0.3-4.7-0.3-7.1c0-2,0.4-4.1,0.8-6.1
		c0.6-3.4,2-6.7,3.5-9.9c2-3.8,4.7-7.1,7.9-10.1c-0.1-0.3-0.1-0.6-0.3-0.9C114.5,56.5,108.4,79.8,122,97.9z M160.9,46.1
		c0.3,1,0.9,1.3,1.5,1.4c2.5,0.9,4.8,2,7,3.4c4.3,2.9,7.6,6.7,9.9,11.4c2,4.1,3,8.4,3,12.8c0,0.6,0,1.4,0.3,1.9
		c0.5,1,1.1,1.9,1.6,2.8c0.1,0.3,0.3,0.5,0.5,0.5c0.9,0,1.9,0,2.8,0c0.5,0,1.1-0.1,1.8-0.3c0,0,0-0.3,0-0.4c-1.1,0-2-0.1-3-0.1
		c-0.1,0-0.3-0.3-0.4-0.4c-0.8-1.3-1.5-2.4-2.3-3.7c-0.3-0.4-0.3-0.9-0.4-1.4c-0.3-2-0.4-4.1-0.8-6.1c-0.6-3.4-2.2-6.5-4.1-9.4
		c-1.6-2.7-3.9-5.1-6.3-7c-2.3-1.9-4.8-3.3-7.5-4.4C163.3,46.8,162.1,46.6,160.9,46.1z M167.6,104.6c1-0.5,1.9-1,2.9-1.6
		c4.4-2.7,7.9-6.3,10.5-10.6c0.4-0.6,0.8-1.4,1.3-1.9c1.3-1.3,2.7-2.3,3.9-3.4c0.5-0.5,1-0.6,1.8-0.6c5.8,0,11.8,0,17.6,0
		c0.5,0,0.9,0,0.9-0.6c0-0.1-0.6-0.4-0.9-0.4c-3.2,0.1-6.3,0.3-9.5,0.3c-3,0-6.1-0.3-9.1-0.3c-0.4,0-0.8,0.1-1,0.4
		c-1,0.9-2.2,1.8-3.2,2.7c-0.4,0.3-0.8,0.5-1,0.9c-1.6,3.2-3.5,6-6.1,8.5c-2.2,2.2-4.7,4.1-7.3,5.4
		C167.8,103.6,167.3,103.7,167.6,104.6z M129.4,77.5c0-0.1,0.1-0.1,0.1-0.3c-0.1-0.1-0.3-0.1-0.4-0.3c-0.9-0.6-1.8-0.3-2.7-0.4
		c-1.3,0-2.5,0.3-3.7-0.1c-1-0.5-1.8-1.6-2.7-2.5c-0.1-0.1-0.3-0.3-0.4-0.4c-0.1-0.1-0.1-0.3-0.1-0.5c0.1-1.1,0.1-2.3,0.4-3.4
		c0.8-3.2,1.5-6.2,2.9-9.1c1.6-3.3,3.7-6.2,6.2-8.9c1.4-1.5,3-2.8,4.6-4.2c-0.5,0-1.1-0.1-1.4,0.1c-1.3,0.9-2.4,1.9-3.5,3
		c-1.5,1.6-3,3.4-4.3,5.3c-1.8,2.4-3.2,5.2-4.1,8c-0.9,2.8-1.5,5.7-1.8,8.6c-0.1,1.1-0.3,2,0.8,2.8c0.9,0.6,1.4,1.9,2.7,1.9
		C124.5,77.5,126.9,77.5,129.4,77.5z M137,46.2c-0.3,0.1-0.4,0.3-0.5,0.4c-2.5,1.5-5.1,3.3-7.1,5.4c-1.4,1.4-2.5,3-3.7,4.6
		c-1.8,2.3-3,4.9-3.9,7.7c-0.8,2.4-1.4,4.9-1.6,7.5c-0.1,1,0.1,1.6,0.8,2.4c1.1,1.5,2.7,2,4.4,1.8c0.5-0.1,0.9,0,1.4,0
		c0.6,0,0.9-0.3,0.9-0.9c-0.6,0-1.1-0.1-1.6,0c-1.4,0.3-2.5-0.3-3.4-1.4c-0.4-0.5-0.8-0.9-1.1-1.3c-0.1-0.3-0.4-0.5-0.4-0.8
		c0.3-1.5,0.4-3,0.8-4.6c0.9-3.5,2.3-6.8,4.4-9.8c2.4-3.7,5.4-6.8,9.1-9.1C136.3,47.9,137.3,47.6,137,46.2z M122.9,78.1
		c-1.4,0.5-2.2-0.4-3-1.3c-0.5-0.5-1-1-1.5-1.5c-0.1-0.3-0.4-0.5-0.3-0.8c0.1-1.6,0.1-3.2,0.4-4.8c0.6-3.8,1.9-7.3,3.7-10.9
		c2.3-4.6,5.6-8.4,9.5-11.4c0.5-0.4,0.8-0.8,0.3-1.4c-2.2,1.6-4.1,3.4-5.8,5.4c-2.9,3.3-5.3,7-6.7,11.1c-1,2.8-1.6,5.6-1.9,8.5
		c-0.1,1-0.3,2.2-0.3,3.2c0,0.6-0.1,1.5,0.3,1.9c1.3,1.4,2.5,3.2,4.9,2.7c0,0,0,0,0.1,0C123,79,123.1,78.8,122.9,78.1z M129.4,72.4
		c-0.6,0-1.1,0-1.6-0.1c-0.4-0.1-0.9-0.3-1.1-0.5c-0.6-0.6-1.3-1.4-1.9-2.2c-0.3-0.4-0.5-0.6-0.3-1c0.3-0.8,0.5-1.6,0.8-2.4
		c1.1-3.9,3.3-7.2,5.8-10.3c3.5-4.1,7.7-6.8,12.8-8.5c0.5-0.1,0.9-0.6,1.3-0.9c0-0.1-0.1-0.1-0.1-0.3c-0.3,0-0.5,0-0.8,0.1
		c-1.9,0.8-3.9,1.5-5.8,2.5c-3.5,1.8-6.6,4.4-9.1,7.6c-2,2.5-3.7,5.3-4.8,8.5c-0.5,1.5-0.9,3.2-1.4,4.8c-0.3,0.9,0.6,1.3,1,1.9
		c0.9,1.5,2.3,1.9,3.9,1.6C128.8,73.2,129.3,73.2,129.4,72.4z M128.7,74.1c0-0.1-0.1-0.3-0.1-0.4c-0.8,0-1.6,0-2.4,0
		c-0.4,0-0.8-0.3-0.9-0.5c-0.6-0.8-1.3-1.4-1.9-2.2c-0.3-0.3-0.4-0.6-0.4-0.9c0-0.6,0.3-1.3,0.4-1.9c0.6-2.9,1.8-5.6,3.3-8.1
		c2.3-4.1,5.3-7.6,9.4-10.1c0.8-0.5,1.5-1,2.3-1.5c0-0.1,0-0.1-0.1-0.3c-0.5,0-1-0.1-1.4,0.1c-0.8,0.4-1.4,0.9-2,1.4
		c-1.4,1.1-2.8,2.3-4.2,3.4c-0.9,0.8-1.6,1.8-2.3,2.8c-1.1,1.6-2.3,3.2-3.2,4.9c-1.6,3-2.5,6.2-3,9.6c-0.1,0.6-0.3,1.4,0,1.8
		c1.1,1.5,2.3,3,4.6,2.5c0.4-0.1,0.9,0,1.3,0C128.1,74.5,128.3,74.2,128.7,74.1z M171.4,103.3c0.4,0.6,0.8,0.4,1.3,0
		c0.6-0.5,1.3-0.9,1.9-1.4c2.4-1.9,4.6-4.2,6.3-6.7c0.8-1,1.4-2.2,2.3-3c1-1.1,2.4-2,3.4-3c1.1-1,2.3-1.5,3.8-1.4
		c4.9,0.1,10,0,14.9,0c0.5,0,0.9-0.1,0.8-0.8c-0.1,0-0.1,0-0.1,0c-6.1,0-12.2,0-18.4,0c-0.3,0-0.5,0.1-0.6,0.4
		c-0.9,0.8-1.9,1.5-2.8,2.3c-0.6,0.6-1.4,1.3-2,2c-0.8,0.9-1.1,2-1.9,2.9c-1.3,1.6-2.5,3.2-3.9,4.6
		C174.9,100.6,173.1,101.8,171.4,103.3z M205.8,88.3c-0.3,0-0.6,0-0.9,0c-4.7,0-9.2,0-13.9,0c-1.8,0-3.3,0-4.4,1.5
		c0,0-0.1,0-0.1,0.1c-1.3,1.1-2.5,2.3-3.8,3.5c-0.8,0.9-1.4,1.9-2,2.8c-2.2,3-4.8,5.4-7.9,7.6c-0.5,0.4-0.6,0.8-0.5,1.4
		c0.3-0.1,0.5-0.3,0.6-0.4c3.4-2.3,6.3-5.2,8.7-8.5c0.8-1,1.5-2,2.5-2.9c1.3-1.3,2.8-2.4,4.2-3.7c0.5-0.4,0.9-0.6,1.5-0.6
		c4.9,0,10,0,14.9,0C205.6,89.2,205.9,88.9,205.8,88.3z M170.4,81.3c-0.1-0.1-0.3-0.1-0.4-0.3c-0.4,0.4-0.8,0.6-1,1
		c-1.1,2.5-2.8,4.8-4.9,6.6c-3.2,2.5-6.8,3.9-10.9,4.1c-2.5,0.1-4.9-0.5-7.2-1.5c-1.1-0.5-2.2-1.1-3.2-1.8c0-0.1,0.1-0.1,0.1-0.3
		c1.6,0.1,3.3-0.3,4.8,0.5c1.1,0.5,2.3,0.6,3.4,1c0.1,0,0.4,0,0.8-0.1c-0.3-0.1-0.4-0.3-0.4-0.4c-1.6-1.1-3.4-2.3-5.7-1.9
		c-0.8,0.1-1.6,0-2.4,0c-1,0-2,0-3,0c0.6,0.6,1.1,1,1.8,1.4c2.2,1.3,4.2,2.7,6.6,3.3c3.2,0.8,6.5,0.8,9.5-0.3c2.5-0.9,4.8-2.4,7-3.8
		c1.6-1.1,2.8-2.8,3.8-4.6C169.5,83.3,170,82.3,170.4,81.3z M182.4,49c0.1,0.3,0.4,0.5,0.5,0.6c1.1,1.5,2.3,2.9,3.3,4.4
		c2.3,3.4,3.7,7.1,4.8,10.9c0.1,0.5,0.4,0.9,0.6,1.4c0.9,1.1,1.8,2.3,2.7,3.4c0.3,0.4,0.6,0.5,1,0.5c3,0,6.1,0,9.1,0
		c0.9,0,1.8,0,2.7,0c0-0.3,0-0.5,0-0.8c-0.4,0-0.6,0-0.9,0c-3.2,0-6.3,0-9.6,0c-0.4,0-0.9-0.3-1.1-0.5c-0.9-1-1.8-2.3-2.7-3.3
		c-0.6-0.8-1.1-1.4-1.4-2.4c-1.4-4.8-3.8-9.1-6.8-13C184,49.6,183.7,48.5,182.4,49z M207.3,70.8c-4.1,0-8.1,0-12.3,0
		c-0.4,0-0.8-0.1-1-0.4c-0.8-0.9-1.5-1.9-2.3-2.9c-0.5-0.6-1.1-1.1-1.3-1.8c-0.9-3.5-2.2-6.8-3.9-9.9c-0.8-1.3-1.6-2.4-2.4-3.5
		c-0.1,0-0.3,0.1-0.3,0.1c0,0.4,0,0.9,0.1,1.3c0.3,0.6,0.8,1.1,1,1.6c1.9,3,3.3,6.2,4.3,9.6c0.4,1.1,0.4,2.4,1.3,3.4
		c0.9,0.9,1.6,2,2.4,3c0.1,0.3,0.5,0.3,0.8,0.3c1.3,0,2.5,0,3.9,0c3.2,0,6.3,0,9.5,0C207.3,71.4,207.3,71.2,207.3,70.8z M182.3,53.4
		c0.1,0.3,0.3,0.5,0.4,0.8c2.8,3.8,4.6,8.1,5.7,12.8c0.3,1,0.4,2,1.1,2.9c0.8,0.9,1.5,1.9,2.3,2.8c0.3,0.3,0.6,0.5,0.9,0.5
		c1.8,0,3.5,0,5.2,0c0.8,0,1.5,0.4,2.2-0.4c0-0.1,0.3,0,0.5,0c0.6,0,1.1,0,1.8,0c0.5,0,1.3-0.1,1.6,0.1c1.1,0.8,2.3,0.3,3.4,0.4
		c0-0.4,0-0.6-0.1-0.9c-4.2,0-8.4,0-12.5,0c-1.3,0-2-0.4-2.7-1.4c-0.3-0.5-0.8-0.9-1.1-1.4c-0.5-0.8-1.4-1.6-1.5-2.5
		c-1-4.4-2.8-8.6-5.3-12.4C183.8,54.1,183.4,53.2,182.3,53.4z M207.5,75.2c-0.4,0-0.6,0-0.9,0c-4.7,0-9.2,0-13.9,0
		c-1.4,0-2.7,0-3.3-1.5c0-0.1-0.1-0.1-0.1-0.1c-0.9-1.4-2.3-2.5-2.4-4.3c0-0.8-0.3-1.6-0.5-2.4c-0.5-2.4-1.4-4.6-2.4-6.7
		c-0.4-0.9-0.8-1.9-2-1.8c0.6,1.4,1.4,2.8,2,4.3c1.1,2.5,1.9,5.3,2.2,8.1c0.1,1,0.4,1.9,1,2.7c0.6,0.8,1.1,1.5,1.6,2.4
		c0.3,0.4,0.5,0.6,0.9,0.5c3.4-0.3,7,0.5,10.5-0.5c1.1-0.3,2.3,0,3.5,0c0.1,0,0.3,0.1,0.5,0.1c0.4,0.1,0.8,0.3,1.1,0.4
		c0.6,0,1.3,0,1.9,0c0.1,0,0.1,0,0.3-0.1C207.5,75.7,207.5,75.6,207.5,75.2z M175.5,103.8c0.3,0.5,0.5,0.6,0.9,0.3
		c1.8-1.8,3.7-3.5,5.4-5.4c0.8-0.9,1.4-1.9,2.2-2.8c1.6-1.6,3.5-3,5.2-4.6c0.6-0.5,1.3-0.8,2-0.8c4.4,0,8.7,0,13.2,0
		c0.3,0,0.5-0.3,0.9-0.4c-0.3-0.1-0.5-0.4-0.9-0.4c-4.8,0-9.6,0-14.4,0c-0.5,0-1.1,0.3-1.5,0.6c-1,0.8-1.8,1.5-2.7,2.4
		c-0.9,0.8-1.6,1.5-2.4,2.3c-1.5,1.9-3,3.8-4.7,5.6C177.8,101.8,176.7,102.8,175.5,103.8z M207.5,74.6c0-0.6-0.3-0.8-0.8-0.9
		c-1.4-0.3-2.5,0.5-3.8,0.6c-1,0-2.2,0.3-3-0.1c-0.8-0.4-1.4-0.4-2.2-0.4c-1.8,0-3.4,0-5.2,0c-0.8,0-1.1-0.3-1.5-0.8
		c-0.6-0.9-1.3-1.6-1.9-2.5c-0.4-0.5-0.8-1-1-1.6c-0.6-2-1-4.1-1.5-6c-0.8-2.5-1.9-4.8-3.4-6.8c0,0.3,0.1,0.5,0.3,0.8
		c0.1,0.3,0.4,0.6,0.3,0.8c-0.6,0.6-0.1,1.1,0.1,1.6c1.5,2.8,2.5,5.7,3.2,8.7c0.4,1.5,0.5,3.2,1.8,4.3c0.5,0.5,1,1.1,1.4,1.8
		c0.4,0.5,0.6,0.8,1.3,0.8c5.1,0,10.1,0,15.2,0C207,74.6,207.2,74.6,207.5,74.6z M162.5,103.5c0.3,0,0.4,0,0.5,0
		c1.9-0.9,3.9-1.8,5.7-2.8c2.8-1.6,5.3-3.8,7.3-6.3c1.6-2,3-4.2,4.2-6.6c0.1-0.4,0.4-0.8,0.6-1c0.9-0.8,1.8-1.4,2.7-2.2
		c0.9-0.9,1.9-1.4,3.3-1.3c0.6,0.1,1.4-0.3,2.2-0.4c0,0,0-0.3,0-0.4c-0.5,0-1,0-1.4,0c-0.1,0-0.3,0-0.4,0c-0.9,0.6-1.9,0.5-2.7,0.3
		c-0.8-0.1-1.1,0-1.6,0.5c-0.1,0.1-0.4,0.4-0.5,0.5c-1.4,1.1-2.4,2.5-3.3,4.2c-1.9,3.7-4.3,7-7.6,9.5c-2,1.6-4.3,3-6.7,4.2
		C164,102.1,163,102.3,162.5,103.5z M207.3,76.7c-0.9,0-1.8,0-2.5,0c-0.1,0-0.3,0-0.4,0.1c-0.3,0.1-0.5,0.4-0.8,0.4
		c-0.5,0-1.1,0-1.6,0c-0.9,0-1.8,0.4-2.5-0.5c0,0-0.1-0.1-0.3-0.1c-1,0-2,0-3,0c-2.2,0-4.4,0.1-6.6,0c-0.4,0-0.8-0.4-1-0.6
		c-0.4-0.5-0.8-1-1-1.5c-0.5-0.9-1.1-1.8-1.6-2.7c-0.3-0.5-0.1-1.1-0.3-1.6c-0.4-1.6-0.6-3.2-1.1-4.8c-0.4-1.3-0.9-2.5-1.4-3.7
		c-0.1,0-0.3,0-0.4,0.1c0,0.5-0.1,1.1,0,1.5c1,2.8,1.9,5.7,2,8.7c0,0.6,0.1,1.3,0.5,1.8c0.6,1,1.4,1.9,1.9,3c0.3,0.5,0.6,0.6,1,0.6
		c3.4,0,6.7,0,10.1,0c2.8,0,5.6,0,8.4,0C207.2,77.4,207.6,77.4,207.3,76.7z M142,101.2c-0.5-0.5-0.9-1-1.4-1.4
		c-0.9-0.6-1.9-1.1-2.9-1.8c-2.4-1.5-4.3-3.3-6.1-5.4c-0.4-0.4-0.6-0.8-1-1.3c0.1-0.1,0.1-0.1,0.3-0.3c0.3,0.1,0.5,0.3,0.6,0.4
		c1.9,2.3,4.1,4.4,6.6,6.1c0.6,0.4,1.4,0.8,2.2,1.3c-1-2.2-3.2-2.8-4.6-4.2c-1.4-1.4-2.9-2.7-3.9-4.6c0.5-0.5,1-0.9,1.4-1.3
		c-0.5-0.8-0.6-0.9-1-0.5c-1,0.8-1.9,1.6-2.9,2.5c1.5,2.4,3.4,4.4,5.6,6.2C136.9,98.9,139.3,100.3,142,101.2z M189.1,84.2
		c-0.6-0.1-1.1-0.1-1.8-0.1c-0.9-0.1-1.8-0.4-2.5,0.3c-1,0.9-2.2,1.8-3.2,2.7c-0.4,0.3-0.8,0.5-0.9,0.9c-1.4,3.2-3.3,6-5.7,8.4
		c-1.9,2-4.2,3.8-6.6,5.2c-0.8,0.4-1.4,0.9-2.2,1.3c0.9,0.5,1.5,0.1,2.2-0.3c2-1.3,4.1-2.7,5.7-4.3c2-1.9,3.9-4.1,5.3-6.5
		c0.6-1,1.1-2.2,1.9-3c1.3-1.3,2.7-2.4,4.1-3.5c0.3-0.3,0.6-0.4,1-0.4c0.8-0.1,1.5-0.1,2.4-0.1C189.1,84.5,189.1,84.2,189.1,84.2z
		 M152.9,33.4c-10.4,0.3-19.5,3.5-27.2,10.4c0.5,0.8,0.9,0.5,1.3,0.1c2.9-2.4,6.1-4.6,9.6-6c1.6-0.6,3.3-1.3,4.9-1.9
		c0.8-0.3,1.5-0.6,2.3-0.9c0.1-0.1,0.4-0.1,0.5-0.1c1-0.1,2.2-0.1,3.2-0.1c1.3-0.1,2.7-0.3,3.9-0.4C152,34.4,152.7,34.4,152.9,33.4z
		 M164.7,52.3c-0.1,0.1-0.3,0.3-0.3,0.3c0.4,0.4,0.8,1,1.3,1.3c2,1.3,3.8,2.7,5.4,4.4c1.8,1.9,3.2,3.9,4.2,6.2
		c1.5,3,2.3,6.2,2.4,9.5c0,0.5,0.3,1,0.5,1.5c0.1,0,0.3-0.1,0.3-0.1c0.3-5.3-1.4-10.1-4.2-14.6C172,57.1,168.7,54.3,164.7,52.3z
		 M145.9,107.3c0-0.1,0.1-0.1,0.1-0.3c-0.3-0.3-0.6-0.5-0.9-0.8c-0.4-0.3-0.9-0.3-1.4-0.4c-3.5-1.3-7-2.8-10-5.1
		c-3.3-2.5-6.1-5.4-8.2-9c-0.3-0.5-0.6-0.6-1.3-0.4c2.3,4.3,5.4,7.9,9.5,10.6C137.5,104.6,141.6,106.4,145.9,107.3z M126.5,89.7
		c1.4,1.8,2.7,3.5,4.1,5.3c2.2,2.7,4.9,4.7,7.9,6.3c0.1,0.1,0.4,0,0.6,0c0-0.3,0-0.5-0.1-0.8c-0.3-0.3-0.5-0.4-0.9-0.6
		c-3.7-2.2-6.6-5.1-9-8.5c-0.4-0.5-0.4-1,0.1-1.4c1-0.9,2-1.8,3-2.7c-0.4-0.3-0.6-0.6-0.9-0.8c-0.8-0.1-1.6-0.1-2.4,0.5
		C128.3,88.1,127.5,88.8,126.5,89.7z M158.6,42.7c0.5,1,0.5,1,1.8,1.3c4.9,1.1,9.2,3.3,13,6.6c2.5,2.2,4.8,4.7,6.6,7.5
		c0.4,0.5,0.8,0.9,1.4,0.6c-3-5.1-7-9.1-12-12C166,44.7,162.6,43.3,158.6,42.7z M147,109c0-0.1,0.1-0.3,0.1-0.4
		c-0.3-0.3-0.6-0.6-0.9-0.8c-0.5-0.3-1.1-0.3-1.6-0.4c-2.5-0.8-5.2-1.5-7.5-2.9c-2-1.3-4.1-2.5-6-4.1c-1.1-0.9-2.2-2-3.3-3.2
		c-0.9-1-1.8-2-2.5-2.9c0,0.5-0.1,1.1,0.1,1.4c0.5,0.9,1.1,1.6,1.9,2.4c1.6,1.5,3.2,3.2,4.9,4.4c1.8,1.4,3.8,2.5,5.8,3.5
		c1.9,0.9,4.1,1.5,6.1,2.2C145.3,108.7,146.2,108.8,147,109z M178.7,107.8c-0.4-0.5-0.8-0.5-1.3-0.1c-2.9,2.4-6.2,4.2-9.8,5.6
		c-4.2,1.6-8.6,2.7-13.2,2.7c-0.6,0-1.3,0.3-1.4,1c4.7-0.3,9.2-0.6,13.6-2.3C171,112.8,175.2,110.8,178.7,107.8z M168.3,82.2
		c-0.3,0.1-0.5,0.3-0.8,0.5c-0.3,0.1-0.5,0.4-0.6,0.6c-1.4,2.2-3,3.9-5.1,5.3c-2.4,1.6-5.2,2.4-8.1,2.7c-2.3,0.3-4.6-0.4-6.7-1.1
		c-0.6-0.3-1.4-0.3-2-0.4c0,0.1,0,0.1,0,0.3C153.3,94.9,164.8,90.8,168.3,82.2z M142.7,49.9c-1.5,0.8-2.8,1.5-4.2,2.3
		c-3,1.8-5.4,4.3-7.6,7.1c-1.6,2.2-2.8,4.4-3.7,7c-0.3,0.8-0.6,1.5,0.3,2.3c0.1-0.5,0.3-0.9,0.4-1.3c1.3-3.8,3.4-7.2,6.2-10.3
		c2.2-2.3,4.7-4.2,7.6-5.4C142.2,51.3,142.7,50.9,142.7,49.9z M177.7,105.7c-2.8,2-5.6,3.8-8.6,5.2c-4.2,1.9-8.5,3-13.2,3.4
		c-0.6,0-1.5-0.1-1.8,1c1.1-0.1,2.3,0,3.3-0.3c2.9-0.5,5.8-1,8.6-2c3.7-1.3,7.1-3.2,10.3-5.3C177.2,107.3,177.8,106.8,177.7,105.7z
		 M122.1,93c0.4-0.8,0.4-0.8,0-1.5c-1.3-2.4-2.3-4.8-2.9-7.5c0-0.1,0-0.5,0.1-0.6c1.1-0.6,2.3-1.6,3.8-1.5c1.6,0.1,3.3,0,4.8,0
		c-0.1-0.8-0.6-1-1.3-1c-1.5,0-3.2,0-4.7,0c-1,0-1.9,0.1-2.8,0.6c-1.3,0.9-1.4,0.8-1,2.3C119.1,87,120.3,90.2,122.1,93z M177.1,73.1
		c0.9-5.2-6.6-17.5-11.3-18.4c0.6,0.8,1.1,1.5,1.6,2.2c0.9,0.9,1.8,1.6,2.7,2.5c2.8,2.9,4.7,6.3,5.6,10.1
		C175.9,70.8,175.8,72.2,177.1,73.1z M143.6,37c0-0.8-0.3-1-1-0.8c-0.5,0.3-1,0.4-1.6,0.5c-5.1,1.5-9.6,4.1-13.7,7.3
		c-0.5,0.4-0.8,0.8-0.4,1.5C131.8,41.5,137.4,38.5,143.6,37z M173.6,107.6c-0.4,0-0.9-0.1-1.1,0c-5.1,2.9-10.4,4.8-16.2,5.2
		c-0.5,0-1,0.3-0.8,0.9C160.2,114,169.8,110.8,173.6,107.6z M129.1,83.5c-0.1-0.6-0.5-0.9-1-0.9c-1.5,0-3,0.1-4.6,0
		c-1,0-1.9,0.3-2.8,0.8c-0.6,0.4-0.9,0.8-0.6,1.5c0.8,2,1.6,4.1,2.4,6.1c0.3,0.6,0.5,1.4,1.5,1.1c0-0.1,0-0.1,0-0.3
		c-0.9-2-1.9-4.2-2.8-6.2c-0.1-0.3-0.1-0.8,0-0.8c1.1-0.5,2-1.4,3.4-1.4C126,83.5,127.5,83.5,129.1,83.5z M153.3,33.3
		c0,0.1-0.1,0.3-0.1,0.4c0.1,0.3,0.4,0.6,0.5,0.6c0.6,0.1,1.1,0.1,1.8,0.3c1.8,0.1,3.4,0.3,5.1,0.6c1.9,0.4,3.8,0.9,5.6,1.4
		c1.3,0.4,2.4,0.8,3.8,1.3c0.3-0.3,0.3-0.6-0.4-0.8c-1.3-0.5-2.4-1.1-3.8-1.4c-2.4-0.6-4.8-1.1-7.3-1.6
		C156.8,33.6,155,33.6,153.3,33.3z M172.5,106c-1.5,0.8-3,1.5-4.6,2.3c-3.3,1.6-6.8,2.5-10.4,2.9c-0.6,0-1,0.4-1.1,1.1
		c1.5-0.3,2.9-0.4,4.2-0.6c4.1-0.8,7.7-2.3,11.3-4.3C172.5,107,172.8,106.6,172.5,106z M145,37.6c-0.6,0-1.1-0.1-1.8,0
		c-4.1,1.1-7.9,2.7-11.4,4.9c-0.6,0.4-1.1,0.9-1.8,1.3c0.5,0.5,0.9,0.5,1.3,0.1c0.3-0.3,0.8-0.5,1-0.8
		C136.3,40.6,140.8,39.5,145,37.6z M154.1,34.9c0,0.1-0.1,0.3-0.1,0.3c0.3,0.3,0.4,0.5,0.6,0.5c0.5,0.1,1,0.1,1.5,0.1
		c2.4,0.3,4.7,0.5,7.1,1.3c1.1,0.4,2.4,0.8,3.5,1.1c0.8,0.3,1.6,0.5,2.5,0.8c0-0.1,0-0.5-0.1-0.5c-0.8-0.4-1.6-0.9-2.5-1.1
		c-2.5-0.8-5.1-1.4-7.6-1.9C157.4,35.1,155.8,35.1,154.1,34.9z M143.9,39c-4.6,1.1-8.9,3.2-12.7,6c0.1,0.3,0.1,0.6,0.3,0.9
		c3.9-2.8,8.1-4.8,12.5-6C144,39.5,143.9,39.3,143.9,39z M124,96.2c1.8,2.5,3.9,4.7,6.3,6.7c1.8,1.4,3.4,2.8,5.7,3.2
		c0.1,0,0.3,0,0.5,0c-0.8-0.5-1.5-1-2.3-1.4c-2.3-1.4-4.4-3.2-6.2-5.1c-0.9-0.9-1.6-1.9-2.5-2.9C125.1,96.2,124.8,95.6,124,96.2z
		 M168.7,39.9c-4.3-2.4-8.9-3.2-13.6-3.4c-0.1,0.8,0.4,1,0.9,1c3,0.1,6,0.8,8.7,1.8c0.6,0.3,1.1,0.4,1.8,0.5
		c0.6,0.1,1.1,0.4,1.8,0.5c0,0.1,0,0.1,0,0.3C168.5,40.4,168.6,40.1,168.7,39.9z M177.4,82.9c-0.1-0.1-0.1-0.1-0.3-0.3
		c-0.8,1.3-1.5,2.4-2.2,3.7c-1,2-2.3,3.8-3.8,5.4c-0.9,1-1.8,2-2.5,3c-0.1,0.1,0,0.3,0,0.6C172.8,92.1,175.9,88,177.4,82.9z
		 M149.2,39.4c-0.8,0.3-1.3,0.4-1.9,0.6c-0.4,0.1-0.9,0.3-1.3,0.4c-0.8,0.1-1.5,0-2.2,0.1c-1.5,0.4-3.2,0.9-4.7,1.5
		c-1.4,0.6-2.8,1.4-4.3,2c0,0.1,0,0.3,0,0.3c0.4,0,0.9,0.3,1.1,0.1c1.1-0.5,2.3-1,3.3-1.5c2.8-1.3,5.7-2,8.7-2.4
		C148.8,40.5,149.1,40.3,149.2,39.4z M174.9,69.8c0.3-2.7-4.4-10.3-6.8-11.4C170.4,62,172.6,65.8,174.9,69.8z M136.3,46
		c0.1,0,0.3,0,0.3-0.1c3.4-1.8,7-3.2,10.6-3.8c0.5-0.1,1-0.4,0.9-1c-4.3,0.6-8.2,2-11.9,4.1C136.3,45.5,136.3,45.7,136.3,46z
		 M154.1,90.2c0,0.1,0,0.1,0.1,0.3c3.2,0.5,10.3-3.7,11.5-6.8c-1,0.3-1.5,0.9-2.2,1.5c-1.9,2-4.3,3.3-7,4.1
		C155.8,89.5,155,89.9,154.1,90.2z M129.9,84.7c-0.4-0.9-0.4-0.9-1.3-0.9c-1,0-2.2,0.1-3.2,0c-1.4-0.1-2.4,0.4-3.5,1.1
		c-0.1,0.1-0.3,0.4-0.3,0.5c0.3,0.8,0.5,1.5,0.9,2.3c0.3-0.3,0.4-0.4,0.6-0.6V87c-0.1-0.3-0.1-0.4-0.3-0.5
		C125,84.7,127.4,84.5,129.9,84.7z M169.2,107c-0.4-0.6-0.8-0.6-1.4-0.4c-2.9,1.4-6,2.4-9.2,2.9c-0.8,0.1-0.9,0.3-1,1
		C161.7,110.2,165.7,108.9,169.2,107z M139.8,114.4c4.2,2,8.6,2.2,13.2,2.3c-0.4-0.4-0.9-0.8-1.4-0.8c-1.8-0.3-3.7-0.3-5.4-0.5
		c-2-0.3-4.1-0.8-6.2-1.3C140,114,139.8,114.2,139.8,114.4z M180.2,55.2c0.6-0.5,0.3-0.8-0.1-1.1c-2.3-2.7-4.3-5.3-7.7-6.6
		c-0.8-0.3-1.4-0.8-2.2-1.1c4.1,2.8,7.6,6,10.4,9.9C180.6,55.8,180.5,55.5,180.2,55.2z M182.3,54.3c-2.2-3.2-4.9-6-8.4-8.1
		c0,0.3-0.1,0.5-0.1,0.8c0.9,0.1,1,0.9,1.5,1.4c1.5,1.5,2.9,3,4.4,4.4C180.5,53.4,180.9,54.7,182.3,54.3z M131,69.5
		c0.1,0,0.1,0,0.3,0c2.3-3.8,4.7-7.6,7-11.4C134.5,61.3,132.2,65.1,131,69.5z M155.9,38.1c0,0.1-0.1,0.3-0.1,0.3
		c0.4,0.3,0.6,0.5,1,0.5c2.3,0.5,4.7,1,7,1.5c0.6,0.1,1.4,0.6,2,0.6c0.8,0,1.3,0.3,1.9,0.8c0.1-0.3,0.3-0.4,0.3-0.5
		C164.1,39.1,160.1,38.2,155.9,38.1z M123.9,100.7c2.9,3,6,6.1,10,7.9c0.1-0.1,0.1-0.4,0.1-0.4c-0.8-0.6-1.4-1.1-2-1.6
		c-1.8-1.5-3.5-2.9-5.3-4.4C125.8,101.6,125.3,100.3,123.9,100.7z M125.8,99.3c-0.4,0.8-0.1,1.3,0.4,1.8c1.5,1.3,2.8,2.7,4.3,3.8
		c1.1,0.9,2.4,1.4,3.5,2.2c0.1,0.1,0.4,0,0.5,0c0-0.1,0-0.4-0.1-0.4c-0.9-0.1-1.3-0.9-1.9-1.3c-1.9-1.5-3.8-3.2-5.7-4.7
		C126.5,100.2,126.2,99.7,125.8,99.3z M140.3,113.1c0.5,0.3,1,0.5,1.5,0.6c0.3,0.1,0.5,0.1,0.6,0.3c2.7,0.5,5.3,0.9,8,1.3
		c0.4,0.1,0.8,0,1.3,0c0-0.1,0-0.3,0.1-0.4c-0.4-0.1-0.6-0.4-1-0.5c-1.9-0.3-3.8-0.5-5.7-0.9c-1.5-0.3-3-0.6-4.6-1
		C140.5,112.7,140.3,113,140.3,113.1z M167.3,42.5c-3.4-1.9-7-2.5-10.5-2.9c0.3,0.4,0.5,0.8,0.9,0.9c2,0.5,4.1,0.8,6,1.4
		c1,0.4,2.3,0,3.2,0.9C166.8,42.8,167.1,42.7,167.3,42.5z M157.8,41c0,0.1-0.1,0.3-0.1,0.4c0.4,0.3,0.6,0.8,1,0.9
		c3.2,0.5,6.1,1.5,8.9,2.8c0.5,0.3,0.9,0.5,1.4,0.8c0-0.1,0.1-0.1,0.1-0.3c-1.8-0.9-3.2-2.5-5.2-2.9C161.9,42,159.8,41.5,157.8,41z
		 M139.8,54.7c-1,0.8-2,1.4-2.8,2.2c-1.3,1.3-2.4,2.5-3.7,3.9c-0.1,0.1-0.1,0.5,0,0.6c0.3,0.1,0.5,0.1,0.8,0.1
		c0.1,0,0.3-0.3,0.4-0.4c1.1-1.3,2.3-2.5,3.4-3.7C138.7,56.7,139.7,56.1,139.8,54.7z M144.8,86.2c-0.8-0.6-1.5-0.9-2.4-0.9
		c-2,0-4.2,0-6.2,0c-0.3,0-0.5,0.1-1,0.1c0.9,0.6,1.5,0.9,2.5,0.9c2,0,4.1,0,6.1,0C144.1,86.4,144.4,86.2,144.8,86.2z M132.9,110.8
		c-0.6-0.5-1.3-1-1.9-1.4c-1.6-1.3-3.3-2.5-4.9-3.8c-0.5-0.4-0.9-0.6-1.6-0.4c2.5,2.4,5.2,4.6,8.4,6
		C132.7,111.1,132.9,110.8,132.9,110.8z M196.8,81.2c-0.1,0-0.1,0.1-0.3,0.1c0.1,0.1,0.3,0.4,0.5,0.4c0.9,0.1,1.8,0.1,2.7,0.1
		c2.2,0,4.3,0,6.5,0c0.3,0,0.5,0,0.9,0c-0.1-0.4-0.1-0.6-0.1-0.8C203.7,81.2,200.2,81.2,196.8,81.2z M168.3,105.2
		c-0.1,0-0.1-0.1-0.3-0.1c-0.3,0.1-0.6,0.3-0.9,0.4c-2.4,1.1-4.8,2-7.5,2.5c-0.4,0.1-0.8,0.5-1,0.8c0.3,0.3,0.4,0.3,0.5,0.3
		c3-0.5,6-1.5,8.6-2.8C168.1,106,168.2,105.6,168.3,105.2z M125.9,103.7c-0.1,0-0.1,0.1-0.3,0.1c0.3,0.4,0.4,0.9,0.6,1.1
		c1.6,1.3,3.2,2.7,4.9,3.8c0.6,0.5,1.4,0.6,2.2,1c0-0.1,0.1-0.4,0.1-0.4C130.8,107.5,128.3,105.6,125.9,103.7z M175.4,43.7
		c-0.1,0.3-0.3,0.5-0.4,0.8c1,0.3,1.1,0.3,1.6,1c0.1,0.3,0.4,0.4,0.5,0.5c1.1,1,2.3,1.9,3.3,3c0.5,0.5,0.9,0.6,1.8,0.4
		c-1.1-1.1-2.2-2.2-3.3-3.2C177.8,45.3,176.6,44.6,175.4,43.7z M136.9,81.9c0-0.1,0-0.3,0.1-0.4c-0.6-0.3-1.4-0.6-2-0.6
		c-1.9-0.1-3.7,0-5.6,0c-0.4,0-0.9,0.1-1.3,0.1c0,0.1,0,0.3,0,0.3c0.6,0.3,1.1,0.5,1.8,0.5C132.1,81.9,134.5,81.9,136.9,81.9z
		 M197,83.1c0.8,0.1,1.5,0.4,2.2,0.4c2.4,0,4.8,0,7.2,0c0.3,0,0.5-0.3,0.6-0.5c-0.3-0.1-0.5-0.4-0.6-0.4c-2.5,0-5.1,0-7.5,0
		c-0.6,0-1.3,0.1-1.9,0.1C197,82.8,197,82.9,197,83.1z M150.6,113.9c0-0.8-0.4-1-0.9-1c-1.3-0.3-2.5-0.3-3.8-0.5
		c-1.5-0.4-3-0.4-4.6-1c-0.1,0-0.4,0.1-0.6,0.3c0,0.1,0,0.1,0.1,0.3c1.5,0.4,3.2,0.9,4.7,1.3C147.3,113.5,148.9,113.6,150.6,113.9z
		 M206.8,83.8c-3.3,0.3-6.7-0.4-9.9,0.6c3.2,0.4,6.5,0.3,9.8,0.3C206.7,84.5,206.8,84.2,206.8,83.8z M132.7,83.8c0,0.1,0,0.3,0,0.4
		c0.8,0.1,1.4,0.4,2.2,0.4c1.8,0,3.4,0,5.2,0c0.6,0,1.3,0,2.2,0c-0.9-0.6-1.5-0.9-2.4-0.9C137.4,84,135.1,83.8,132.7,83.8z
		 M172.1,80c-0.1-0.1-0.1-0.1-0.3-0.3c-0.3,0.4-0.6,0.6-0.9,1.1c-0.4,0.9-0.6,1.9-1.1,2.8c-0.6,1.3-1.5,2.4-2.2,3.5
		C169.3,87,172,82.6,172.1,80z M146.8,87.6c0-0.1,0-0.3,0.1-0.4c-0.6-0.1-1.1-0.4-1.8-0.5c-1.9,0-3.8,0-5.7,0c-0.5,0-1.1,0-1.6,0
		c0,0.1,0,0.1,0,0.3c0.5,0.3,1,0.5,1.4,0.5C141.7,87.6,144.3,87.6,146.8,87.6z M139.6,83.5c0-0.1,0-0.3,0-0.4
		c-0.6-0.1-1.3-0.4-2-0.5c-2.2,0-4.3,0-6.5,0c-0.3,0-0.4,0-0.6,0c0,0.1,0,0.3,0,0.3c0.6,0.1,1.4,0.4,2,0.5c1.6,0.1,3.4,0,5.1,0
		C138.3,83.5,138.9,83.5,139.6,83.5z M149.6,112.3c0-0.1,0.1-0.3,0.1-0.4c-0.4-0.3-0.8-0.6-1.1-0.8c-1.4-0.3-2.8-0.5-4.2-0.8
		c-0.9-0.1-1.8,0.1-2.4-0.6c0,0-0.1,0-0.3,0c-0.1,0.1-0.1,0.4-0.3,0.4C144.1,111.7,146.9,112,149.6,112.3z M180.1,50.8
		c0.1,0,0.1,0,0.3,0c0-0.4,0-0.9-0.1-1.1c-1.5-1.6-3.3-3.2-5.2-4.4c-0.1-0.1-0.4,0-0.6,0.1C176.3,47.2,178.2,49,180.1,50.8z
		 M207.3,78.3c-3.5,0-7,0-10.6,0c0,0.3,0,0.5,0,0.6c0.6,0,1.1,0.1,1.6,0.1c0.5,0,0.9-0.1,1.4-0.3c0.3,0,0.4-0.1,0.6-0.1
		c1.1,0,2.2,0,3.3,0c0.3,0,0.4,0.1,0.6,0.3s0.4,0.3,0.6,0.3c0.8,0,1.5,0,2.2,0c0.1,0,0.1,0,0.3-0.1
		C207.3,78.6,207.3,78.5,207.3,78.3z M130.2,70.3c0.1-0.4,0.3-0.8,0.4-1.1c0.5-1.4,1-2.8,1.6-4.3c0.1-0.4,0.3-0.8-0.1-0.9
		c-0.1,0-0.5,0.1-0.6,0.3c-1,1.9-1.6,3.9-2,6C129.6,70.3,129.8,70.3,130.2,70.3z M140.2,44.6c0.4,0.8,0.9,1,1.4,0.5
		c0.1-0.1,0.3-0.1,0.4-0.1c1.4-0.4,2.9-0.9,4.4-1.3c0.6-0.1,0.6-0.5,0.8-1.1C144.9,43.3,142.6,43.9,140.2,44.6z M186.3,98.8
		c-0.4,0.5-0.6,1-0.9,1.4c-0.5,0.6-1,1.3-1.8,1.6c-0.6,0.4-1.1,1.3-1.8,1.9s-0.6,0.6-0.3,1.6c1.6-1.9,3.2-3.8,4.7-5.6
		C186.9,99.3,186.8,99,186.3,98.8z M196.7,79.5c0,0.4,0,0.6,0,0.8c3.5,0,7,0,10.4,0c0-0.1,0-0.4,0-0.6c-0.3,0-0.4,0-0.5,0
		c-1,0-1.9-0.1-2.8,0.5c-2.3-0.1-4.4-0.3-6.7-0.4C197.1,79.8,197,79.7,196.7,79.5z M140.7,107.9c2.3,1.9,4.9,2.4,7.7,2.5
		c-0.3-0.4-0.6-0.6-1-0.8c-0.9-0.3-1.8-0.4-2.5-0.6C143.5,108.8,142.1,108.4,140.7,107.9z M170.9,85.4c0.8-0.1,1.1-0.5,1.4-1.1
		c0.5-1.3,0.9-2.4,1.4-3.7c0.1-0.5,0.1-1,0.3-1.6c-0.6,0.3-1,0.5-1,1c-0.1,0.8-0.4,1.5-0.8,2.3C171.7,83.3,171.4,84.2,170.9,85.4z
		 M149.6,94c1.6,1.5,5.4,1.4,6.8,0C154.3,94,151.9,94,149.6,94z M137.7,95.4c-0.3-0.4-0.4-0.8-0.6-0.9c-1.1-1.4-2.4-2.7-3.5-4.1
		c-0.4-0.4-0.6-0.3-1,0.1C133.7,92.4,136.3,94.7,137.7,95.4z M175.5,78.1c-0.1,0-0.3-0.1-0.4-0.1c-0.3,0.3-0.6,0.6-0.8,1
		c-0.5,1.5-0.9,2.9-1.3,4.4c-0.1,0.3-0.1,0.5-0.3,0.9C175.3,82.7,175,80.2,175.5,78.1z M176.4,41.8c0.6,0.4,1.3,0.5,1.6,1.1
		c0.4,0.8,1.4,1.1,2,1.8c0.5,0.4,0.9,0.6,1.8,0.3c-1.6-1.4-3.3-2.7-4.8-3.9C176.7,41.3,176.6,41.5,176.4,41.8z M176.8,76.7
		c-0.3,0.5-0.5,0.9-0.6,1.3c-0.1,0.5-0.3,1.1-0.4,1.8c-0.3,1-0.4,1.9-0.6,2.9C176.3,82.4,177.4,78.5,176.8,76.7z M141.1,46.8
		c1.4-0.5,2.9-0.9,4.3-1.4c0.4-0.1,0.6-0.5,1-0.8c0-0.1-0.1-0.1-0.1-0.3c-0.3,0-0.5,0-0.6,0c-1,0.3-2,0.6-2.9,0.9
		C141.7,45.7,141,45.8,141.1,46.8z M178.7,76.2c-0.1,0-0.3-0.1-0.4-0.1c-0.3,0.3-0.5,0.5-0.6,0.8c-0.3,1.6-0.5,3.2-0.8,4.8
		c0.4-0.1,0.8-0.4,0.9-0.6C178.2,79.5,178.5,77.9,178.7,76.2z M146.9,36.2c1.4-0.1,2.8-0.3,4.2-0.5c0.4,0,0.6-0.4,0.9-0.5
		c0-0.1-0.1-0.3-0.1-0.4c-1.4,0.1-2.9,0.4-4.3,0.4C146.9,35.3,146.8,35.7,146.9,36.2z M180.5,45.7c-1.4-1.1-2.9-2.2-4.4-3.3
		c-0.1,0.3-0.3,0.5-0.4,0.6c0.6,0.3,0.6,0.3,1.6,1.4c0.8,0.8,1.6,1.4,2.7,2C180.1,46.2,180.2,46,180.5,45.7z M126.8,78.1
		c-0.1,0.8,0.1,0.9,0.6,0.9c1.1,0,2.3,0,3.4,0c0.4,0,0.8,0,1,0c0-0.1,0-0.1,0-0.3C130.3,77.6,128.6,78.4,126.8,78.1z M145.8,37.6
		c1.4-0.1,2.7-0.1,3.9-0.1c0.6,0,1.1-0.3,1.4-1C149.2,36.5,147.6,36.5,145.8,37.6z M139.7,103.3c0,0.1-0.1,0.1-0.1,0.3
		c1.6,0.6,3.4,1.1,5.1,1.8c0-0.1,0.1-0.3,0.1-0.5C143.2,104,141.6,103.2,139.7,103.3z M181,104c0.9-0.9,1.6-1.9,2.8-3
		c-0.5,0-1-0.3-1.1-0.1c-0.9,0.9-1.6,1.8-2.5,2.8C180.5,103.8,180.7,104,181,104z M164.3,106.1c-0.4-0.3-0.6-0.6-0.9-0.6
		c-1,0.1-1.9,0.5-2.8,0.8c-0.3,0.1-0.4,0.3-0.5,0.5c-0.1,0.1-0.1,0.3,0,0.4c0,0.1,0.3,0.1,0.4,0.1
		C161.6,106.9,162.9,106.5,164.3,106.1z M147.4,39.3c1-0.4,2.3,0.3,2.8-1.3c-1,0.1-1.9,0.3-2.9,0.4
		C147.4,38.6,147.4,38.9,147.4,39.3z M163.4,104c-1.8,0.4-1.9,0.5-2,1.4c0.6-0.3,1.4-0.5,2-0.6C163.4,104.5,163.4,104.2,163.4,104z
		 M143.4,103.5c-0.4-0.9-0.6-1.1-1.8-1.4C141.5,102.8,142.2,103.5,143.4,103.5z M140.6,47.2c0-0.1-0.1-0.1-0.1-0.3
		c-0.8,0.4-1.5,0.8-2.3,1c0,0.1,0.1,0.1,0.1,0.3C139.1,48,139.8,47.6,140.6,47.2z M161.2,86.5c0-0.1-0.1-0.1-0.1-0.3
		c-0.6,0.4-1.3,0.8-2,1.1c0,0.1,0.1,0.1,0.1,0.3C160,87.3,160.6,86.9,161.2,86.5z M181.9,59.1l-0.1,0.1c0.4,0.8,0.6,1.5,1,2.3
		c0.1,0,0.1-0.1,0.3-0.1C182.5,60.7,182.3,59.9,181.9,59.1z"/>
	<path class="st0" d="M129.8,122.7c-0.5,1.3-1.1,0.8-1.8,0.4c-0.6-0.3-1.1-0.6-1.8-1c0.5-1.1,0.9-2.2,1.4-3.3c2.4,1.1,4.8,2.3,7.1,3.4
		c0.1,0.1,0.3,0.5,0.3,0.6c-0.1,0.5-0.4,1.1-0.6,1.6c0,0.1,0.1,0.4,0.1,0.6c0.1-0.1,0.4-0.1,0.5-0.3c0.3-0.5,0.4-1.1,0.6-1.6
		c0.1-0.3,0.4-0.3,0.6-0.4c0,0.3,0.1,0.5,0,0.8c-0.1,0.6-0.4,1.3-0.6,2c0.3,0.1,0.4,0.1,0.6,0.3c0.4-0.9,0.5-1.9,1.3-2.5
		c0.1,0,0.3,0.1,0.3,0.1c-0.1,0.5-0.3,1.1-0.5,1.6c-0.6,1.8-0.6,1.8-2.4,1.1c-1.6-0.5-1.6-0.5-1.1-2.2c0.1-0.3,0.1-0.5,0.3-0.9
		c-0.3,0-0.5,0-0.8,0.1c0.4-1.1-0.8-1.1-1.3-1.5c-0.1-0.1-0.6,0.1-0.8,0.4c-0.3,0.5-0.5,1-0.8,1.5c-0.1,0.3-0.4,0.4-0.5,0.5
		c0-0.3-0.1-0.5-0.1-0.8C129.8,123.1,129.8,123,129.8,122.7z M127.8,120.4c0.5,0.3,1,0.5,1.5,0.8c0.1,0.1,0.4-0.1,0.6-0.1
		c-0.1-0.1-0.1-0.4-0.3-0.5c-0.3-0.3-0.6-0.3-0.9-0.5C128.2,119.6,127.9,119.8,127.8,120.4z M128.9,122.7c0.5-1.1-0.6-1-1-1.4
		c-0.5-0.4-0.6,0-0.8,0.4C127.8,122.1,128.3,122.3,128.9,122.7z"/>
	<path class="st0" d="M142.1,23c-0.1,0.6,0.3,0.8,0.9,0.6c0.4-0.1,0.9-0.1,1.4-0.1c-0.5,1-1.3,0.6-1.9,0.9c0,0.3,0,0.5,0,0.8
		c0.8-0.1,1.5-0.3,2.3-0.4c-0.1-1-0.3-1.9-0.3-3c1.1-0.1,2.4-0.4,3.5-0.5c0.1,1.3,0.3,2.4,0.4,3.7c-0.9,0.1-1.6,0.3-2.5,0.3
		c-1.1,0.1-2.3,0.3-3.4,0.5c-0.6,0.1-0.6-0.1-0.8-0.6c-0.1-0.9-0.3-1.9-0.5-2.9c0.9-0.1,1.6-0.4,2.5-0.5c0.1,0,0.3,0.1,0.4,0.3
		c-0.1,0.1-0.3,0.4-0.4,0.4C143.2,22.8,142.7,22.8,142.1,23z M145.7,24.6c0.5,0,1,0,1.5,0c0.1,0,0.4-0.3,0.5-0.4
		c0.1-0.4,0.1-0.8,0.1-1.1c0-0.5-0.3-0.9-0.9-0.8c-0.5,0.1-1,0.1-1.6,0.3C145.4,23.2,145.5,23.8,145.7,24.6z"/>
	<path class="st0" d="M192.5,110.8c0.5-0.5,0.8-1,1.1-1.3c0.1-0.1,0.4-0.1,0.6-0.1c0,0.3,0,0.5-0.1,0.6c-0.6,0.8-1.3,1.5-2,2.3
		c-0.9-1.3-0.3-2.5-0.6-3.8c-0.6,0.5-0.9,1.5-2,1.4c0.8-1,1.4-2.2,2.7-3c0-0.6,0.6-1.4,1.4-2c0.5-0.5,1-0.3,1.5,0.1
		c0.4,0.3,0.9,0.5,1.1,0.9c0.3,0.3,0.4,0.9,0.3,1.1c-0.3,0.5-0.6,1.1-1.1,1.4c-0.4,0.3-1,0.3-1.4,0c-0.6-0.3-1-0.6-1.8-1.1
		C192.4,108.5,192.4,109.5,192.5,110.8z M194.2,105.2c-0.4,0.5-0.8,0.9-0.9,1.3c-0.1,0.3,0,0.6,0.1,0.8c0.4,0.4,0.9,0.6,1.4,0.9
		c0.4-0.5,0.8-1.1,1.3-1.8C195.4,106,194.8,105.6,194.2,105.2z"/>
	<path class="st0" d="M151.5,21.6c-0.3,0.1-0.5,0.3-0.8,0.3c-0.3,0-0.6,0-0.9,0s-0.4,0.3-0.5,0.4c0.1,0.1,0.4,0.4,0.5,0.4c0.5,0,1,0,1.5,0
		c0,0.9-0.6,0.6-1,0.6c-0.5,0-1,0-0.9,0.8c0.8,0,1.5,0,2.4,0c0-1,0-2,0-3.2c1.3,0.4,1.8,1.8,2.8,2.3c0.1-0.8,0.1-1.5,0.3-2.4
		c0.4,0.3,0.5,0.4,0.5,0.5c0,1,0.1,2.2,0,3.2c0,0.4-0.6,0.3-0.9-0.1c-0.5-0.6-1.1-1.3-1.8-2.2c-0.1,0.9-0.1,1.6-0.3,2.3
		c-1,0.1-1.8,0.1-2.5,0.3c-0.9,0.1-1,0-1.1-0.9c0-0.8-0.1-1.5-0.1-2.3c0-0.3,0.1-0.5,0.3-0.5c0.9,0,1.6,0,2.5,0
		C151.4,21.4,151.5,21.5,151.5,21.6z"/>
	<path class="st0" d="M113.9,112.3c-0.6-0.6-1.4-1.3-2-1.8c0.5-0.6,0.5-0.6,2,0.9c0.9-0.4,0.3-0.9,0-1.3c-0.1-0.3-0.3-0.5-0.4-0.9
		c0.3,0.1,0.6,0.3,0.9,0.5c0.3,0.1,0.4,0.5,0.6,0.6c0.8-0.5,0.8-0.5,0.3-1c-0.3-0.3-0.5-0.6-0.8-0.9c0-0.1,0-0.3,0-0.4
		c0.1,0,0.4,0,0.4,0c0.5,0.5,1,1.3,1.6,1.6c1,0.8,0.6,1.8,0.6,2.7c0,0.4,0,0.8,0,1.1c0.8-0.3,1-1.5,2-1.1c0.1,0.1,0.3,0.3,0.4,0.4
		c-1,0.8-1.9,1.4-3,2.3c-0.5-0.3-0.1-0.9-0.1-1.5s0.1-1.1,0.1-1.8c-1,0.1-1.1,1.4-2.3,1.3c0.8-0.9,1.4-1.6,2.2-2.4l-0.1-0.1
		C115.4,110.9,114.8,111.6,113.9,112.3z"/>
	<path class="st0" d="M155.8,21.5c0.3-0.1,0.5-0.3,0.8-0.3c1.4,0.1,2.7,0.3,4.1,0.4c0.6,0,1.1,0.1,1.8,0.3c0.5,0.1,0.6,0.3,0.5,0.9
		s0.1,1.3-0.1,1.8c-0.1,0.4,0.1,1.1-0.6,1.1c-0.1-0.5-0.1-1.3-0.4-1.4c-0.5-0.4-1.1-0.3-1.8-0.5c0,0.4,0,0.6-0.1,0.8
		c-0.1,0.3-0.4,0.4-0.5,0.6c-0.1-0.3-0.3-0.5-0.3-0.6c0.1-0.8,0.3-1.5,0.4-2.4c-0.5,0-1,0-1.5,0c-0.1,0.8-0.1,1.5-0.3,2.3
		c0,0.3-0.3,0.4-0.5,0.6c-0.1-0.3-0.4-0.4-0.4-0.6c0-0.6,0.1-1.4,0.3-2.2c-0.5-0.1-0.9-0.3-1.4-0.4
		C155.9,21.8,155.9,21.6,155.8,21.5z M162.1,23.4c0.1-0.1,0.1-0.1,0.3-0.3c-0.1-0.1-0.4-0.5-0.5-0.5c-0.5-0.1-1,0-1.5,0
		c0,0.3,0,0.6,0.1,0.6C161,23.3,161.6,23.3,162.1,23.4z"/>
	<path class="st0" d="M100.4,73.3c0-0.5,0.1-1.1,0.1-1.6c0-0.8,0.3-1.1,1-1c0.4,0,0.8,0,1.3,0c0,0.9,0.1,1.8,0,2.5c-0.4,1.3,0,2.7,0,3.9
		c0,0.1-0.3,0.5-0.5,0.5c-0.9,0-1.9,0-2.8,0c-0.1,0-0.4-0.1-0.5-0.3c0.1-0.1,0.4-0.4,0.5-0.4c0.8-0.1,1.6-0.1,2.5-0.3
		c0-1.1,0-2.3,0-3.4c0-0.5,0.1-1,0.1-1.5c0-0.3-0.3-0.4-0.4-0.6c-0.3,0.1-0.5,0.3-0.5,0.5c-0.1,0.5,0,1.1,0,1.6
		c0,0.5-0.1,0.6-0.6,0.6s-1,0-1.6,0c0.1-1.3,0.3-2.4,0.3-3.5c0.1,0,0.1,0,0.3,0c0.8,0.9-0.3,2.2,0.6,2.9
		C100.2,73.4,100.3,73.4,100.4,73.3z"/>
	<path class="st0" d="M136.7,27.6c-1.3,0.5-2.5,1-4.1,1.5c-0.1-0.1-0.3-0.3-0.4-0.5c-0.6-1-0.6-1-1.6-0.4c-0.3,0.1-0.5,0.3-0.6,0.4
		c0.3,0.6,0.4,1.1,0.6,1.6l-0.1,0.1c-0.3-0.1-0.5-0.1-0.6-0.3c-0.5-0.9-0.9-1.8-1.4-2.8c1-0.5,1.9-1,2.9-1.4c0.1,0,0.5,0.1,0.6,0.3
		c0.4,0.6,0.6,1.3,1,1.8c-0.3-0.8-0.5-1.6-0.8-2.4c0.1-0.1,0.1-0.1,0.3-0.3c0.3,0.1,0.5,0.4,0.6,0.5c0.3,0.6,0.5,1.4,0.8,2
		c1-0.1,1.8-1,2.8-0.5C136.5,27.3,136.5,27.5,136.7,27.6z M129.4,27.9c0.6-0.4,1.3-0.6,1.9-0.9C130.6,26.6,129.6,27.2,129.4,27.9z"
		/>
	<path class="st0" d="M188.5,37.1c-0.5-0.4-1-0.6-1.6-1.1c-0.1,0.1-0.3,0.3-0.4,0.4c0.5,0.6,1,1.1,1.5,1.8c0.8-0.6,1.4-1.4,2.2-2.2
		c0.6,0.6,1.1,1.1,1.8,1.8c0.1,0.1,0,0.3,0.1,0.5c-0.1,0-0.4,0-0.5-0.1c-0.3-0.1-0.4-0.4-0.6-0.6c-0.4-0.5-0.8-0.6-1.3-0.1
		c0,0.8,1.5,0.8,1,1.9c-0.5-0.4-0.9-0.8-1.3-1.3c-0.3,0.1-0.4,0.3-0.5,0.4c0.5,0.5,0.9,1.1,1.4,1.6c-0.1,0.1-0.1,0.1-0.3,0.3
		c-0.9-0.4-1.5-1.3-2.2-2c-0.6-0.8-1.5-1.3-2.4-1.9c0.8-0.8,1.4-1.5,2.2-2.3c0.1-0.1,0.5-0.3,0.6-0.1c0.6,0.5,1.1,1.1,1.9,1.9
		c-1.3,0.1-1.4-0.9-2.2-1.3c-0.5,0.3-0.6,0.6-0.1,1.1c0.4,0.3,0.6,0.6,1,1C188.6,36.8,188.5,37,188.5,37.1z"/>
	<path class="st0" d="M184.9,115.4c1.3,0.4,1.6-1.1,2.7-1.3c0.5,0.5,0.9,1,1.5,1.5c-1,0.8-1.9,1.5-2.9,2.3c-0.8-1-1.5-1.9-2.4-2.9
		c1-0.8,1.9-1.5,2.8-2.2c0.3,0.8,0.3,0.8-0.5,1.4c-0.4,0.4-0.9,0.6-1.3,0.9C184.8,115.1,184.8,115.2,184.9,115.4z M186.3,116.9
		c0.5-0.4,0.9-0.9,1.4-1.3c0.1-0.1-0.1-0.4-0.3-0.6c-0.5,0.4-1.1,0.8-1.8,1.3C185.9,116.5,186.1,116.6,186.3,116.9z"/>
	<path class="st0" d="M182.1,120.6c-0.9,0.5-1.8,1-2.7,1.5c-0.4,0.3-0.6,0.1-0.9-0.3c-0.4-0.6-0.9-1.4-1.1-2.2c-0.1-0.3,0-0.6,0.1-0.8
		c0.8-0.5,1.5-0.9,2.2-1.4c0.1-0.1,0.4,0,0.5,0c-0.1,0.1-0.1,0.4-0.3,0.4c-0.5,0.4-1,0.6-1.5,1c-0.1,0.1-0.3,0.4-0.4,0.6
		c0.3,0,0.5,0.1,0.6,0.1c0.6-0.3,1.3-0.6,1.9-1C181.2,119.3,181.8,119.9,182.1,120.6z M181.1,120.4c-0.1-0.3-0.3-0.5-0.4-0.6
		c-0.5,0.3-1,0.5-1.4,0.9c-0.1,0.1-0.1,0.4-0.3,0.6c0.1,0,0.4,0.1,0.5,0C180.1,120.9,180.6,120.7,181.1,120.4z"/>
	<path class="st0" d="M181.5,117.4c0.3,0.5,0.5,0.6,1,0.3c0.5-0.4,1.1-0.8,1.8-1.1c0.1,0.1,0.3,0.4,0.4,0.5c1,1.4,1,1.4-0.5,2.3
		c-0.5,0.3-1,0.6-1.5,1c-0.8-1-1.4-1.9-2.2-2.9c1-0.6,1.9-1.3,2.8-1.9c0.1,0,0.3,0.1,0.6,0.4C183,116.3,182.4,116.8,181.5,117.4z
		 M184.5,118c0-0.1-0.1-0.3-0.1-0.3c-0.9-0.3-1.3,0.8-2,0.9c0.3,0.3,0.4,0.5,0.5,0.8C183.4,118.8,184,118.4,184.5,118z"/>
	<path class="st0" d="M121.3,34.6c-0.4-0.8-0.8-1.4-1.3-2.2c0.8-0.6,1.5-1.3,2.4-1.8c0.1-0.1,0.6,0,0.6,0.1c0.6,0.9,1.3,1.6,1.9,2.7
		c-0.9,0.6-1.9,1.3-2.8,1.8c-0.1,0.1-0.3,0-0.5,0C121.7,34.9,121.6,34.7,121.3,34.6z M122.5,33.4c-0.1-0.1-0.1-0.3-0.3-0.4
		c0.4-0.4,0.9-0.6,1.3-1c-0.1-0.1-0.3-0.1-0.5-0.3c-0.4-0.3-1.9,0.3-2,0.8c0,0.1,0,0.3,0.1,0.4c0.4,0.5,0.8,1,1.1,1.5
		c0.5-0.5,1.4-0.8,1.6-1.8C123.5,32.9,123,33.2,122.5,33.4z"/>
	<path class="st0" d="M105.6,91.8c-0.1,0.3-0.3,0.5-0.4,0.6c-0.9,0.4-1.8,0.6-2.7,1c-0.1,0-0.4-0.3-0.5-0.4c-0.3-0.9-0.6-1.8-0.8-2.7
		c0-0.1,0.1-0.5,0.3-0.5c0.9-0.3,1.8-0.6,2.7-0.8c0.1,0,0.4,0.1,0.6,0.3c-0.1,0.1-0.3,0.4-0.5,0.4c-0.8,0.3-1.5,0.5-2.2,0.6
		c0.1,0.6,0.3,0.6,0.8,0.5c0.6-0.1,1.1-0.4,1.8-0.5c0.3,0,0.4,0.1,0.6,0.1c0,0.1,0,0.1,0,0.3c-0.9,0.4-1.8,0.8-2.5,1.1
		c0,0,0,0.3,0,0.6c1-0.3,1.9-0.6,2.8-0.9C105.4,91.7,105.5,91.7,105.6,91.8z"/>
	<path class="st0" d="M124.1,116.4c-0.5,0.8-1,1.6-1.5,2.4c0.3,0.4,0.6,0.4,0.9-0.1c0.3-0.4,0.5-0.9,0.9-1.3c0.3-0.3,0.5-0.4,0.8-0.5
		c0.1,0.1,0.1,0.1,0.3,0.3c-0.3,0.5-0.6,1-0.9,1.5c-0.4,0.5-0.8,1-1.1,1.5c-1-0.6-1.9-1.4-2.9-2c0.6-0.9,1.3-1.8,1.8-2.7
		c0.1-0.1,0.4-0.1,0.5-0.1c0,0.3,0.1,0.5,0,0.6c-0.4,0.5-0.8,1-1.1,1.6c-0.1,0.1,0,0.4,0,0.5c0.3,0,0.5,0,0.6-0.1
		c0.4-0.4,0.6-0.9,1-1.3c0.1-0.3,0.5-0.4,0.8-0.5L124.1,116.4z"/>
	<path class="st0" d="M111.8,40.1c0.8-0.9,1.4-1.5,2.2-2.3c0.1-0.1,0.4-0.1,0.5-0.1c0.8,0.6,1.5,1.4,2.3,2c0,0,0,0.3,0,0.4
		c-1.1,0-1.6-1.1-2.5-1.6c-0.5,0.4-0.4,0.8,0,1c0.4,0.4,0.8,0.6,1.1,1c0.4,0.4,0.4,0.6-0.1,0.8c-0.6-0.6-1.3-1.1-2-1.8
		c-0.1,0-0.1,0-0.3,0.1c0,0.3,0,0.6,0.1,0.8c0.4,0.4,0.9,0.8,1.3,1.1c0.1,0.1,0.1,0.5,0.3,0.8c-0.3,0-0.5,0-0.8-0.1
		C113.2,41.5,112.6,40.9,111.8,40.1z"/>
	<path class="st0" d="M205.2,61.2c0.3,1.1,0.5,2.3,0.9,3.4c-1.3,0.3-2.3,1.1-3.7,0.9c0-0.1-0.1-0.3-0.1-0.3c0.4-0.3,0.8-0.5,1.4-0.9
		c-0.1-0.5-0.3-1.1-0.4-1.9c-0.5,0-1,0-1.5,0c0-0.1,0-0.1,0-0.3C202.7,61.5,204,61.7,205.2,61.2z M204.4,64.2c0.6-0.5,0.6-1.8,0.1-2
		c-0.1-0.1-0.6,0.1-0.5,0.3C204.2,63.1,204.3,63.6,204.4,64.2z"/>
	<path class="st0" d="M137.3,23.4c1.1-0.3,2.3-0.6,3.5-0.9c0.3,1.1,0.6,2.2,0.9,3.3c0,0.1-0.1,0.4-0.3,0.5c-0.9,0.3-1.8,0.5-2.7,0.6
		c-0.1,0-0.5-0.3-0.6-0.5C137.8,25.4,137.5,24.6,137.3,23.4z M140.7,25.6c-0.4-2-0.4-2-2.4-1.6c-0.1,0-0.1,0.1-0.3,0.1
		c0.3,0.8,0.4,1.4,0.6,2.2C139.4,26,140.1,25.8,140.7,25.6z"/>
	<path class="st0" d="M102.8,78.8c-0.5,0.1-1.1,0.3-1.8,0.3c0,0.6,0.1,1.3,0.1,2c0.5,0,0.9,0,1.4,0c0.1,0,0.3,0.1,0.4,0.3
		c-0.1,0.1-0.3,0.3-0.4,0.4c-0.9,0.1-1.8,0.3-2.7,0.4c-0.5,0.1-0.8-0.3-0.8-0.8c0-0.8-0.1-1.5-0.1-2.3c0-0.3,0.3-0.6,0.5-0.8
		c0.8-0.1,1.6-0.1,2.4-0.3c0.3,0,0.5,0.1,0.8,0.3C102.8,78.5,102.8,78.6,102.8,78.8z M100.2,81.3c0.4-0.3,0.4-1.4,0-2
		C99.8,79.7,99.8,79.7,100.2,81.3z"/>
	<path class="st0" d="M121.1,36.3c-0.9,0.8-1.8,1.5-2.7,2.4c-0.8-0.9-1.6-1.8-2.5-2.7c0.8-0.8,1.5-1.5,2.4-2.2c0.1-0.1,0.5,0,0.6,0.1
		C119.7,34.7,120.3,35.5,121.1,36.3z M119.9,36.2c-1.4-1.9-1.4-2-2.9-0.1c0.4,0.4,0.6,0.9,1,1.1c0.1,0.1,0.6,0.1,0.8,0
		C119.2,37.1,119.6,36.6,119.9,36.2z"/>
	<path class="st0" d="M162.6,124.6c0.3,1.3,0.4,2.4,0.6,3.5c-1.1,0.3-2.3,0.4-3.5,0.6c-0.3-1.1-0.4-2.2-0.5-3.3c0-0.1,0.1-0.4,0.4-0.5
		C160.6,124.9,161.6,124.7,162.6,124.6z M160.3,127.9c0.6-0.1,1.4-0.3,1.9-0.4c0-0.4,0-0.8-0.1-1c0-0.4-0.1-0.6-0.3-1
		C160,125.3,159.7,125.6,160.3,127.9z"/>
	<path class="st0" d="M107,103.5c1-0.6,2-1.4,3-2c0.1,0.6,0.1,0.6-1.1,1.6c0.4,0.5,0.8,1,1.3,1.6c0.4-0.3,0.6-0.4,1-0.5c0.1-0.1,0.4,0,0.6,0
		c-0.1,0.1-0.1,0.4-0.3,0.5c-0.6,0.5-1.4,1-2,1.4c-0.4,0.3-0.6,0.3-0.9-0.3C108.2,105.1,107.7,104.4,107,103.5z M108.2,103.1
		c0,1,0.6,2,1.3,2.2C109.1,104.6,108.7,104,108.2,103.1z"/>
	<path class="st0" d="M141.2,125.5c0.4,0.1,0.8,0.1,1.1,0.3c0.8,0.3,1.3,0.4,1.3-0.6c0-0.1,0.4-0.3,0.5-0.4c0,0.3,0.1,0.4,0.1,0.6
		c-0.1,1-0.4,1.9-0.5,3c-1.1-0.3-2.3-0.4-3.4-0.6c0.1-1.3,0.4-2.5,0.5-3.8C141.9,124.4,141.1,125,141.2,125.5z M143.1,127.3
		c-0.3-0.8-0.9-1-1.9-0.8C141.2,127.3,141.9,127.5,143.1,127.3z"/>
	<path class="st0" d="M167.3,23c-0.3,1.1-0.5,2.2-0.8,3.2c0,0.1-0.3,0.3-0.4,0.3c-0.1,0-0.3-0.1-0.3-0.3v-0.1c0-0.4,0.3-1,0-1.3
		c-0.3-0.3-0.9-0.3-1.3-0.5c-0.5-0.1-0.6,0-0.8,0.4c-0.1,0.4,0,1.3-0.6,1c-0.6-0.3,0-0.8,0-1.3c0-0.1,0.1-0.4,0.1-0.5
		c0.5-1.8,0.5-1.8,2.3-1.4C166,22.7,166.6,22.8,167.3,23z M164.1,23.5c0.6,0.1,1.4,0.4,2.2,0.6C166.2,23.3,165.4,23.2,164.1,23.5z"
		/>
	<path class="st0" d="M108.3,98.3c-0.1,0.3-0.3,0.5-0.5,0.6c-0.5,0.3-0.9,0.6-0.3,1.1c0.1,0.1,0.1,0.3,0.1,0.4c0.3,0.6,0.5,0.9,1.1,0.4
		c0.1-0.1,0.5,0,0.6,0c-0.1,0.3-0.1,0.5-0.4,0.6c-0.9,0.5-1.8,1-2.7,1.5c-0.5-1-1-1.9-1.6-3c1-0.6,2-1.4,2.9-2
		C108.2,98,108.3,98.1,108.3,98.3z M107.5,101.6c-0.3-0.5-0.4-1-0.6-1.4c-0.1-0.1-0.4-0.3-0.5-0.3s-0.3,0.4-0.3,0.4
		c0.3,0.5,0.5,1,0.8,1.5C107.2,101.8,107.4,101.7,107.5,101.6z"/>
	<path class="st0" d="M109.8,48.4c0,0.3,0.1,0.5,0.3,0.9c-0.6-0.1-1-0.3-1.5-0.4c-0.4,0.6-0.6,1.1-1,1.8c0.4,0.3,0.8,0.5,1.1,0.8
		c-0.3,0.5-0.4,0.5-0.9,0.3c-0.8-0.5-1.6-1-2.5-1.5c0.5-0.9,0.9-1.6,1.4-2.4c0.1-0.1,0.5-0.3,0.6-0.3c0.6,0.1,1.4,0.4,2,0.6
		C109.4,48.2,109.6,48.2,109.8,48.4z M106.1,49.8c0.4,0.5,0.8,0.5,1-0.1c0.1-0.3,0.3-0.5,0.4-0.8c0-0.1,0-0.4-0.1-0.6
		c-0.3,0.1-0.5,0.1-0.5,0.3C106.5,49,106.4,49.4,106.1,49.8z"/>
	<path class="st0" d="M175.2,122.7c-0.5,0.3-0.9,0.4-1.3,0.5c-0.1,0-0.4-0.1-0.5-0.1c0.1-0.1,0.1-0.3,0.3-0.5c0,0,0.1-0.1,0.3-0.1
		c0.8-0.3,1.4-0.6,0.8-1.5c0-0.1,0-0.3,0-0.6c0.3,0.3,0.5,0.4,0.6,0.5c0.4,0.8,0.8,1.5,1.1,2.3c0.1,0.1-0.1,0.6-0.4,0.6
		c-0.8,0.3-1.5,0.5-2.2,0.8c-0.3,0.1-0.4,0.4-0.6,0.6c-0.3-0.5-0.5-0.9-0.6-1.4c-0.3-0.5-0.5-1-0.6-1.5c0-0.3,0-0.5,0.1-0.6
		c0.1,0,0.3,0,0.4,0c0.4,0.9,0.9,1.8,1.3,2.7c0.5-0.3,1-0.5,1.5-0.8C175.4,123.4,175.4,123.1,175.2,122.7z"/>
	<path class="st0" d="M180.5,32.9c-1-0.6-1.9-1.1-2.7-1.6c-0.1-0.1-0.3-0.4-0.3-0.5c0.5-0.9,1.1-1.9,1.8-2.8c0.9,0.5,1.8,1,2.5,1.5
		c0.1,0.1,0.3,0.6,0.3,0.8C181.6,31.1,181,32,180.5,32.9z M179.5,28.9c-0.4,0.8-0.8,1.3-1.1,1.9c0.6,0.4,1.3,0.8,1.8,1.1
		c0.4-0.6,0.8-1.3,1.3-2C180.7,29.6,180.1,29.2,179.5,28.9z"/>
	<path class="st0" d="M198.6,99.5c0.3-0.5,0.6-1,0.8-1.5c0.1-0.1-0.3-0.5-0.4-0.8s-0.4-0.5-0.6-0.6c0.1-0.1,0.1-0.1,0.3-0.3c1,0.5,2,1,3.3,1.6
		c-0.5,1-1,2-1.5,3c-1-0.4-2-0.8-2.9-1.1c-0.1-0.1-0.3-0.4-0.4-0.5c0.3,0,0.5-0.1,0.6-0.1C198.1,99.3,198.3,99.5,198.6,99.5z
		 M201,98.3c-0.8-0.3-1.1,0-1.4,1c0,0.1,0.1,0.4,0.1,0.5c0.1-0.1,0.4-0.1,0.5-0.3C200.5,99.3,200.8,98.8,201,98.3z"/>
	<path class="st0" d="M191.9,42.9c1-1.1,1-1.3-0.5-2.5c-0.5,0.1-0.8,1.1-1.6,0.5c0.9-0.9,1.8-1.6,2.8-2.4c0.8,0.9,1.5,1.6,2.3,2.5
		c-0.8,0.8-1.4,1.4-2.2,2c-0.1,0.1-0.5,0.1-0.8,0.3C191.9,43.2,191.9,43.1,191.9,42.9z M192,40c0.1,0.1,0.4,0.3,0.5,0.4
		c0.3,0.3,0.5,1,1,0.6c0.6-0.5-0.3-0.8-0.4-1.3l-0.1-0.1C192.5,39.4,192.3,39.4,192,40z"/>
	<path class="st0" d="M198,46c0.1,0,0.4,0,0.4,0.1c0.5,0.8,0.9,1.5,1.3,2.3c0.1,0.1-0.1,0.6-0.4,0.8c-0.4,0.4-0.9,0.6-1.4,0.9
		c-0.8,0.5-1.1,0.4-1.6-0.4c-0.3-0.5-0.6-1-0.9-1.5c-0.1-0.1-0.1-0.5,0-0.6C196.2,46.7,197,46.1,198,46z M196.1,47.6
		c0.4,0.8,0.8,1.3,1.1,1.9c0.6-0.4,1.3-0.8,2-1.1c-0.4-0.6-0.8-1.1-1.1-1.8C197.3,47,196.7,47.2,196.1,47.6z"/>
	<path class="st0" d="M155,125.5c0.3,1.1,0,2.4,0.1,3.7c-1.1,0-2.2,0-3.2,0c-0.1,0-0.4-0.3-0.4-0.5c0-0.5,0-1.1,0-1.8c1,0,2,0,2.9,0
		c0-0.6,0.1-1,0.1-1.4C154.6,125.4,154.8,125.4,155,125.5z M154.1,127.8c-0.6,0-1.3,0-1.8,0c0,0.6,0,0.6,0.6,0.6
		C154.1,128.4,154.1,128.4,154.1,127.8z"/>
	<path class="st0" d="M167.7,123.5c0.3-0.5,0.5-0.4,0.9-0.1c0.8,0.4,1.5,0.8,2.5,1.1c-0.1-0.4-0.3-0.8-0.4-1.3c-0.3-0.5-0.3-0.9,0.4-1
		c0.3,0.6,0.4,1.1,0.6,1.8c0.1,0.5,0.4,1.1,0.5,1.6c-0.8,0.5-1.1-0.1-1.6-0.4c-0.5-0.3-1-0.5-1.5-0.8c-0.4,0.9,0.8,1.5,0.1,2.4
		C168.2,125.9,168.3,124.5,167.7,123.5L167.7,123.5z"/>
	<path class="st0" d="M159.2,127.4c0,1.1-0.3,1.4-1.4,1.4c-2.2,0.1-2.2,0.1-2.3-2c-0.1-1.1,0.1-1.4,1.4-1.5c0.3,0,0.4,0,0.6-0.1
		c0.8-0.1,1.4,0.3,1.5,1C159.1,126.6,159.1,127,159.2,127.4z M156.4,128.2c2,0.3,2.2,0.1,1.9-1.6v-0.1c-0.1-0.1-0.3-0.4-0.5-0.5
		c-1.4-0.3-1.8,0.1-1.6,1.5C156.3,127.7,156.3,127.9,156.4,128.2z"/>
	<path class="st0" d="M172.4,28c0.8,0.3,1.3,0.4,1.8,0.6c0.1,0.1,0.3,0.4,0.4,0.5c-0.3,0.1-0.5,0.3-0.6,0.1c-0.9-0.4-1.8-0.8-2.8-1.3
		c0.8-1.3,2.4-1,3.3-1.9c-2.2-0.8-2.2-0.8-1.9-1.5c0.9,0.4,1.8,0.8,2.8,1.1c0.1,0.1,0.4,0.4,0.4,0.5c0,0.1-0.3,0.4-0.5,0.4
		C174.3,27.2,173.4,27.5,172.4,28z"/>
	<path class="st0" d="M119.8,117.8c-0.8-0.8-1.6-1.1-2-1.9c-0.3-0.3,0.3-1.1,0.5-1.6c0.1-0.4,0.5-0.6,0.8-0.8s0.6-0.4,0.9-0.3
		c0.6,0.4,1.3,0.9,1.6,1.4c0.4,0.5,0.3,1-0.3,1.5C121,116.6,120.5,117.1,119.8,117.8z M119.8,113.9c-1.4,1-1.6,1.5-1.1,2
		c0.8,0.8,1.3,1,1.6,0.6c0.4-0.4,0.9-1,0.9-1.4C121,114.5,120.2,114.2,119.8,113.9z"/>
	<path class="st0" d="M150.3,126.9c0.1-0.5,0.1-1,0.3-1.5c0.1,0,0.1,0,0.3-0.1c0.1,0.3,0.4,0.5,0.4,0.8c0,1-0.1,1.9-0.3,3
		c-1.1-0.1-2.4-0.1-3.7-0.3c0-0.8,0.1-1.4,0.1-2.2C148.6,126.8,149.5,126.9,150.3,126.9z M150.2,127.5c-0.6,0-1.3,0-2,0
		c0.5,1,1.5,0.3,2,0.9C150.2,128,150.2,127.8,150.2,127.5z"/>
	<path class="st0" d="M200.9,55.3c-0.3-0.6-0.6-1.1-0.9-1.8c-0.3-0.8-0.6-0.9-1.3-0.5c-0.1,0.1-0.3,0.1-0.5,0.1l-0.1-0.1
		c0.1-0.3,0.3-0.5,0.5-0.6c0.9-0.4,1.6-0.8,2.7-1.3c0.3,0.6,0.6,1.1,0.9,1.8c0.8,1.5,0.8,1.5-0.8,2.2
		C201.4,55.1,201.1,55.2,200.9,55.3z M200.2,52.4c0.3,0.5,0.5,1,0.8,1.5c0.1,0.1,0.4,0.3,0.4,0.1c0.1-0.1,0.3-0.4,0.3-0.5
		c-0.1-0.4-0.3-0.8-0.5-1.1C201.1,52,200.8,52,200.2,52.4z"/>
	<path class="st0" d="M167.7,123.5c0.1,0.9,0.3,1.6,0.5,2.5c0.3,0.8,0,1.1-0.6,1.3c-0.5,0.1-0.9,0.3-1.4,0.4c-0.1,0-0.4-0.1-0.5-0.3
		c0.1-0.1,0.3-0.3,0.4-0.4c0.5-0.3,1-0.4,1.5-0.5c-0.1-0.5-0.3-0.8-0.8-0.5c-0.4,0.3-0.9,0.4-1.5-0.3c0.6-0.3,1.1-0.5,1.8-0.8
		c0,0,0-0.3,0.1-0.6c-0.8,0.1-1.5,0.3-2.3,0.4C164.9,123.9,166.6,123.2,167.7,123.5L167.7,123.5z"/>
	<path class="st0" d="M101.2,63.4c0.3,0,0.5,0,0.6,0c0.1-0.4,0.1-0.9,0.3-1.3c0-0.1,0.4-0.3,0.5-0.4c0,0.1,0.1,0.4,0.1,0.5
		c0,0.3-0.1,0.5-0.3,0.6c-0.1,0.4,0,0.8,0.5,0.8c0.3-0.6,0.5-1.4,0.8-2c0.1,0,0.1,0,0.3,0c0.1,0.1,0.3,0.4,0.3,0.5
		c-0.1,0.8-0.4,1.5-0.5,2.3c0,0.1-0.3,0.3-0.4,0.1c-0.9-0.3-1.8-0.4-2.7-0.6c-0.1,0-0.4-0.5-0.4-0.6c0.1-0.8,0.4-1.4,0.5-2.2
		C101.6,61.5,101.6,61.5,101.2,63.4z"/>
	<path class="st0" d="M109.8,48.4c-0.1-0.1-0.4-0.3-0.5-0.4c-0.5-0.4-1-0.8-1.5-1.1c-0.1-0.1-0.4-0.5-0.4-0.5c0.5-0.6,1-1.4,1.5-2
		c0,0,0.3,0,0.5,0c-0.3,0.5-0.4,0.8-0.6,1.1c-0.1,0.1-0.3,0.4-0.4,0.5c0,0.1,0.1,0.4,0.1,0.6c0.1-0.1,0.4-0.1,0.5-0.3
		c0.3-0.3,0.4-0.5,0.5-0.8c0.1-0.1,0.4-0.1,0.6-0.3c0,0.3,0.1,0.5,0,0.6c-0.3,0.4-0.5,0.8-0.8,1.1c0.4,0.5,0.8,0.5,1-0.1
		c0.1-0.4,0.4-0.6,0.6-0.9c0.1-0.1,0.3-0.1,0.4-0.1c0.1,0,0.3,0.3,0.3,0.3C111.7,46.8,110.2,48.4,109.8,48.4z"/>
	<path class="st0" d="M106.5,53.8c0.6-0.5,0.6-1.5,1.4-1.9c0.1,0,0.1,0.1,0.3,0.1c-0.3,0.4-0.4,0.9-0.6,1.3c-0.3,0.4-0.4,0.9-0.6,1.4
		c-1.1-0.5-2.2-1.1-3.4-1.8c0.6-0.8,0.6-1.9,1.5-2.4c0.1,0,0.3,0.1,0.4,0.1c-0.1,0.4-0.3,0.9-0.5,1.3c-0.1,0.4-0.4,0.8,0.3,1
		c0.6-0.4,0.4-1.5,1.5-1.6c-0.3,0.8-0.5,1.4-0.8,2C106.1,53.6,106.4,53.7,106.5,53.8z"/>
	<path class="st0" d="M187.2,33.4c-1.1,1.8-1.1,1.8-2.8,0.6c-0.6-0.5-0.9-0.5-1.4,0.1c-0.1,0.1-0.4,0.1-0.5,0.3c0-0.3,0-0.5,0.1-0.6
		c0.5-0.6,0.9-1.3,1.4-1.9c0.3-0.4,0.6-0.5,1-0.1C185.7,32.3,186.4,32.8,187.2,33.4z M184,32.8c0.5,0.4,0.9,0.8,1.4,1
		c0.1,0.1,0.4,0,0.5,0c0-0.3,0.1-0.5,0-0.6c-0.4-0.4-0.9-0.8-1.4-1.1C184.4,32.4,184.2,32.7,184,32.8z"/>
	<path class="st0" d="M171.7,24.7c-0.4,0.9-0.6,1.8-1,2.8c-0.1,0.5-0.5,0.5-0.9,0.4c-1-0.3-1.9-0.6-3-1c0.4-1.1,0.5-2.4,1.4-3.4
		c0.1,0,0.3,0.1,0.3,0.1c-0.3,0.9-0.5,1.8-0.8,2.8c0.4,0.1,0.6,0.1,0.9,0.3c1.6,0.5,1.6,0.5,2.2-1.1
		C170.9,25.1,170.9,24.4,171.7,24.7z"/>
	<path class="st0" d="M102.2,86.2c0.3,0.6,0.5,1.1,0.6,1.8c0.8,0,0.6-0.4,0.5-0.9c-0.1-0.4-0.6-0.9,0-1.4c0.8,0.8,0.6,1.8,0.9,2.5
		c0,0.1-0.3,0.3-0.4,0.4c-0.9,0.3-1.8,0.4-2.7,0.6c-0.1,0-0.5-0.1-0.5-0.3c-0.1-0.8-0.3-1.5-0.4-2.4c0.1,0,0.1-0.1,0.3-0.1
		c0.1,0.1,0.4,0.4,0.4,0.5c0.1,0.4,0.1,0.6,0.3,1c0,0.1,0.3,0.3,0.4,0.4c0.1-0.1,0.4-0.4,0.4-0.5c0-0.4-0.1-0.8-0.3-1.1
		c0-0.1,0.1-0.3,0.1-0.4C102.1,86.4,102.1,86.4,102.2,86.2z"/>
	<path class="st0" d="M201.5,61.9c0-0.3-0.1-0.5-0.1-0.8c-0.1-0.5-0.4-1.1-0.5-1.6c0-0.3,0.3-0.6,0.5-0.8c0.8-0.3,1.5-0.5,2.3-0.6
		c0.1,0,0.5,0,0.6,0.1c0.3,0.8,0.5,1.6,0.6,2.5c-0.9-0.4-0.6-1.4-1.3-1.9c-0.3,0.1-0.4,0.1-0.6,0.3c0.1,0.6,0.3,1.3,0.4,1.9
		c0,0-0.3,0.1-0.4,0.1c-0.1-0.4-0.3-0.9-0.4-1.1c-0.1-0.3-0.4-0.4-0.6-0.5c0,0.3-0.1,0.5-0.1,0.8c0,0.5,0.1,1,0.3,1.5
		C201.9,61.7,201.8,61.8,201.5,61.9z"/>
	<path class="st0" d="M114.2,43.1c-0.8,1-1.5,1.9-2.3,2.8c-1-0.8-1.9-1.5-2.9-2.2c0-0.1,0-0.1,0-0.3c0.3,0,0.5,0,0.8,0.1c0.5,0.4,1,0.8,1.5,1.1
		c0.4,0.3,0.5,0.3,0.8-0.1s0.6-0.8,1-1.3c-0.6-0.8-1.8-1-2.2-2c0.1-0.1,0.1-0.1,0.3-0.3C112.2,41.7,113.2,42.3,114.2,43.1z"/>
	<path class="st0" d="M104.5,57.1c0.5,0.3,0.9,0.4,1.3,0.6c-0.5,0.6-3-0.1-3.4-1.1c0.5,0.1,1,0.1,1.6,0.3c0.3-0.6,0.5-1.3,0.8-1.8
		c-0.5-0.3-0.9-0.6-1.3-0.9c0-0.1,0.1-0.3,0.1-0.3c1.3,0.1,2.3,0.8,3.4,1.3c-0.5,0.5-0.5,0.5-1.6,0.1
		C105,55.8,104.7,56.5,104.5,57.1z"/>
	<path class="st0" d="M199.7,56.2c1.1-0.4,2.2-0.9,3.3-1.3c0.3,0.9,0.9,1.8,0.9,2.7c-0.1,0-0.3,0.1-0.4,0.1c-0.3-0.6-0.6-1.4-0.9-2
		c-0.3,0.1-0.5,0.3-0.6,0.3c-0.1,0.8,0.9,1.3,0.1,2.2c-0.3-0.8-0.5-1.3-0.8-1.9c-0.3,0.1-0.4,0.1-0.8,0.3c0.3,0.6,0.5,1.4,0.8,2.2
		C200.4,58.6,200.2,58.5,199.7,56.2z"/>
	<path class="st0" d="M144.5,125.4c0.3-0.3,0.3-0.5,0.4-0.5c0.8,0,1.5,0.1,2.3,0.3c0.1,0,0.3,0.3,0.3,0.5c-0.1,0.9-0.1,1.8-0.4,2.7
		c0,0.1-0.4,0.4-0.5,0.4c-0.8-0.1-1.5-0.3-2.3-0.4c0-0.8,0.5-0.6,0.9-0.5c0.4,0,0.9,0.1,1.3,0.1c0.3-0.6-0.1-0.8-0.6-0.9
		c-0.4,0-0.8-0.1-1.1-0.3c0-0.1,0-0.3,0-0.4c0.5,0,1,0,1.4,0c0.3,0,0.5-0.1,0.6-0.3c-0.1-0.3-0.3-0.5-0.5-0.6
		C145.7,125.5,145.1,125.5,144.5,125.4z"/>
	<path class="st0" d="M177.2,30.9c-0.8-0.4-1.6-0.8-2.4-1.1c-0.1,0-0.1-0.4,0-0.5c0.5-0.9,1-1.8,1.5-2.8c0.8,0.4,1.6,0.9,2.4,1.3
		c0,0.1,0,0.1-0.1,0.3c-0.8,0.4-1.3-0.6-2-0.5c-0.1,0.1-0.1,0.3-0.4,0.5c0.5,0.4,1.1,0.6,1.8,1.1c-1,0.5-1.4-0.4-2.2-0.4
		c-0.3,0.4-0.5,0.6,0.3,1c0.5,0.1,0.9,0.5,1.3,0.8C177.3,30.6,177.2,30.8,177.2,30.9z"/>
	<path class="st0" d="M105.9,96.5c0.4-0.3,0.8-0.4,1.1-0.6c0.8,1.1-0.8,0.8-0.8,1.1c-0.1,0.6,1,1,0,1.6c-1.1,0.6-1.3,0.6-1.8,0
		c0.3-0.1,0.4-0.3,0.6-0.4c0.1-0.1,0.4-0.1,0.6-0.3c-0.3-0.6-0.6-1.3-0.9-1.8c-0.5,0.1-1,0.3-1.6,0.4c0.4-1.1,1.4-0.9,1.8-1.5
		C105.4,95.6,105.6,96,105.9,96.5z"/>
	<path class="st0" d="M197.1,101.7c0.5,0.6,0.9,1.1,1.1,1.6c0.1,0.3,0.1,0.6,0.1,0.9c-0.3-0.1-0.6-0.3-0.8-0.5c-0.5-0.8-1-1.5-1.4-2.3
		c-0.1-0.1-0.1-0.4-0.3-0.8c1.3,0.1,2.4,0.1,3.4,0.3c0.1,0,0.4,0.3,0.5,0.4c-0.3,0.1-0.4,0.4-0.6,0.4
		C198.7,101.8,198,101.7,197.1,101.7z"/>
	<path class="st0" d="M201.8,95.5c-0.1-0.8-0.3-1.4-0.4-2.2c0.3,0,0.5,0,0.8,0c0.3,1.1,0.4,2.2,0.6,3.2c-0.1,0-0.1,0.1-0.3,0.1
		c-1-0.4-2-0.8-3-1.3c-0.1,0-0.3-0.4-0.1-0.4c0.1-0.1,0.3-0.3,0.4-0.3C200.4,95,200.9,95.2,201.8,95.5z"/>
	<path class="st0" d="M99.9,82.4c0.3,0.4,0.4,0.9,0.6,1.1c0.9,0,1.9,0,2.8,0c0,0,0,0.3,0,0.4c-0.9,0.1-1.8,0.3-2.7,0.5c-0.3,0.5,0.6,1.1-0.6,1.5
		c-0.1-1.1-0.4-2.3-0.5-3.4C99.7,82.4,99.8,82.4,99.9,82.4z"/>
	<path class="st0" d="M126.3,29.2c-0.5,0-0.9,0.8-1.5,0c1-0.6,1.9-1.1,2.8-1.6c0.1,0,0.4,0.1,0.4,0.1c0,0.3,0,0.5-0.1,0.5
		c-1,0.4-0.6,0.9-0.3,1.5c0.4,0.5,0.6,1,0.9,1.5c-0.8,0.1-0.8,0.1-1.3-0.8C126.8,30,126.5,29.6,126.3,29.2z"/>
	<path class="st0" d="M113.6,106.4c-0.8,0.6-1.5,1.3-2.2,1.8c0.3,0.5,0.4,0.9,0.6,1.4c-1-0.1-2.5-2.2-2.2-2.9c0.1,0,0.3,0,0.3,0.1
		c0.9,0.9,0.9,0.9,1.8,0.1c0.3-0.1,0.4-0.3,0.5-0.5c0.3-0.1,0.4-0.3,0.6-0.5C113.1,106,113.4,106.1,113.6,106.4z"/>
	<path class="st0" d="M102.6,57.5c0,0.5-0.1,1-0.3,1.5c0.9,0.3,1.8,0.6,2.7,1c0,0.1,0,0.3-0.1,0.3c-1,0.3-1.9-0.5-2.9-0.6
		c-0.1,0.4-0.3,0.6-0.4,1c0,0.1-0.3,0.1-0.4,0.1c-0.1,0-0.3-0.3-0.3-0.4c0.4-1,0.6-1.9,1-2.9c0,0,0.1-0.1,0.3-0.1
		C102.3,57.5,102.5,57.5,102.6,57.5z"/>
	<path class="st0" d="M195.9,42.4c0.6,0.8,1.3,1.5,1.8,2.3c0.1,0.1,0,0.4,0,0.6c-0.3-0.1-0.5-0.1-0.6-0.3c-0.3-0.5-0.6-0.5-1.1-0.3
		c-0.5,0.4-0.9,0.6-1.4,0.9c-0.3,0.1-0.5,0-0.6,0.1c0-0.1,0-0.1-0.1-0.3c0.5-0.4,1-0.8,1.6-1.1c0.5-0.3,0.9-0.6,0.4-1.3
		c-0.1-0.1-0.1-0.5-0.1-0.8C195.8,42.4,195.8,42.4,195.9,42.4z"/>
	<path class="st0" d="M121.3,34.6c0.1,0.3,0.4,0.4,0.5,0.6c-0.1,0.3-0.3,0.4-0.4,0.6c-0.3-0.1-0.4-0.3-0.5-0.4c-0.6-0.8-1.1-1.5-1.8-2.3
		c0.3-0.4,0.5-0.4,0.9,0C120.5,33.7,121,34.1,121.3,34.6z"/>
	<path class="st0" d="M123.9,29.6c0.3,0.3,0.5,0.4,0.5,0.6c0.5,0.6,0.9,1.4,1.3,2c0.1,0.1,0,0.4,0,0.5c-0.3,0-0.5,0-0.6-0.1
		c-0.5-0.8-1-1.5-1.5-2.4C123.6,30.1,123.9,29.9,123.9,29.6z"/>
	<path class="st0" d="M187.3,113.1c-0.1-0.3-0.4-0.5-0.5-0.9c0-0.1,0.4-0.4,0.6-0.5c0.1,0,0.6,0.3,0.5,0.4c-0.1,0.3-0.3,0.6-0.5,0.9
		C187.5,113.1,187.3,113.1,187.3,113.1z"/>
	<path class="st0" d="M136.4,25.1c0.1,0.4,0.3,0.6,0.3,1c0,0.1-0.4,0.4-0.5,0.3c-0.3,0-0.6-0.4-0.6-0.4c0.1-0.4,0.4-0.6,0.6-0.9
		C136.3,24.9,136.4,24.9,136.4,25.1z"/>
	<path class="st0" d="M117.3,38.1c-0.5,0.3-0.8,0.5-0.9,0.5s-0.5-0.4-0.5-0.5c0-0.3,0.4-0.5,0.5-0.5C116.7,37.6,116.8,37.9,117.3,38.1z"/>
	<path class="st0" d="M183,31.9c-0.4,0.3-0.6,0.6-0.9,0.6s-0.5-0.4-0.5-0.5c0-0.3,0.3-0.5,0.5-0.6C182.3,31.4,182.5,31.7,183,31.9z"/>
</g>
</svg>
