<?xml version="1.0" encoding="utf-8"?>
<!-- Generator: Adobe Illustrator 24.0.2, SVG Export Plug-In . SVG Version: 6.00 Build 0)  -->
<svg version="1.1" id="Слой_1" xmlns="http://www.w3.org/2000/svg" xmlns:xlink="http://www.w3.org/1999/xlink" x="0px" y="0px"
	 viewBox="0 0 238.1 150.2" style="enable-background:new 0 0 238.1 150.2;" xml:space="preserve">
<g>
	<path class="st0" d="M212,79.4c0,5.1-0.7,10.1-2.1,15c-1.7,5.7-4.3,11-7.8,15.9c-2.2,3.1-4.6,5.9-7.3,8.5c-4,3.9-8.6,7-13.7,9.4
		c-3.2,1.5-6.5,2.7-10,3.6c-3.2,0.8-6.4,1.4-9.7,1.6c-3.7,0.3-7.4,0.1-11.1-0.4c-3.8-0.5-7.6-1.3-11.2-2.6c-6-2.1-11.5-5.3-16.4-9.4
		c-3.9-3.3-7.4-7-10.4-11.3c-3.6-5.2-6.2-10.9-7.7-17c-1.3-5.3-1.9-10.6-1.7-16c0.3-8,2.3-15.5,6.1-22.6c0.8-1.6,1.8-3.1,2.7-4.6
		c0.3-0.5,0.4-1,0.3-1.7c-0.6-3.1-1.3-6.2-1.7-9.3c-0.3-2.9-0.2-5.7,0.2-8.6c0.4-3,1-5.8,2-8.6c0.2-0.7,0.6-0.9,1.3-0.9
		c2.1,0.1,4,0.7,5.9,1.5c4.2,1.7,7.9,4.2,11,7.5c1.3,1.4,1.4,1.4,3.1,0.5c3.8-1.9,7.8-3.3,11.9-4.2c4.4-0.9,8.9-1.3,13.5-1.2
		c3.4,0.1,6.7,0.5,10,1.2c4.2,0.9,8.3,2.3,12.1,4.3c0.6,0.3,1,0.3,1.5-0.2c2.7-3.2,6-5.5,9.8-7.3c2-0.9,4.1-1.8,6.2-2.2
		c0.6-0.1,1.2-0.1,1.8,0c0.3,0,0.6,0.4,0.7,0.7c0.5,1.3,0.9,2.7,1.2,4c0.9,3.8,1.3,7.6,1.1,11.5c-0.2,3.4-0.8,6.8-1.6,10.2
		c-0.1,0.6-0.1,1.1,0.3,1.6c3.4,4.7,5.9,9.9,7.4,15.5c0.9,3.3,1.5,6.6,1.8,10.1C211.7,75.9,211.9,77.7,212,79.4z M202.5,88.9
		c0-0.3,0.1-0.5,0.1-0.6c-0.3-2.5-0.6-5-1-7.4c-1-6.1-2.9-12-5.7-17.5c-0.2-0.3-0.2-0.8-0.1-1.2c1.3-4.2,2.8-8.3,4.1-12.5
		c1.2-3.8,1.9-7.8,2.2-11.8c0.4-5.1-0.2-10.1-1.8-15c-0.3-0.9-0.4-1-1.4-0.8c-0.4,0.1-0.8,0.2-1.2,0.3c-4.9,1.3-9.1,3.9-12.7,7.4
		c-3.7,3.6-6.5,7.8-9.2,12.1c-0.3,0.5-0.5,0.5-1,0.3c-3.8-1.8-7.8-3.2-12-3.8c-3.5-0.5-7.1-0.6-10.6-0.1c-2.6,0.3-5.2,0.9-7.8,1.8
		c-1.9,0.7-3.9,1.4-5.9,2.2c-0.1-0.1-0.2-0.2-0.3-0.3c-2-2.8-4-5.6-6.1-8.3c-3-3.9-6.6-7.2-11.1-9.4c-2-0.9-4-1.8-6.2-2.2
		c-0.6-0.1-1,0-1.3,0.7c-1.2,3.6-1.8,7.2-1.9,11c-0.2,3.8,0.3,7.6,1.2,11.3c1.2,5.5,2.9,11,5,16.2c0.3,0.8,0.5,1.6-0.1,2.4
		c-0.2,0.3-0.4,0.7-0.6,1.1c-3,7-5.1,14.3-6.2,21.9c-0.1,0.7-0.2,1.4-0.2,2.2c0.5,0,0.9,0,1.2,0c3-0.1,5.9-0.2,8.9-0.2
		c2.2,0,4.4,0.3,6.2,1.6c2.4,1.6,4.7,3.2,7.1,4.9c0.8,0.5,1.5,1.2,2.2,1.8c0.7-1.4,1.4-2.8,2.1-4.1c2.4-4.2,5.6-7.7,9.9-10
		c2.2-1.2,4.5-1.9,6.9-2.1c2.5-0.2,5,0.1,7.5,0.8c2.6,0.8,5,2,7.1,3.8c3.1,2.7,5.2,6.1,7,9.7c0.3,0.6,0.6,1.1,0.9,1.7
		c0.2-0.2,0.4-0.3,0.5-0.4c1.6-1.3,3.2-2.7,4.8-3.9c1.7-1.3,3.5-2.4,5.6-2.8c1.9-0.4,3.9-0.6,5.9-0.6
		C197.3,88.8,199.9,88.9,202.5,88.9z M137,99.5c-0.2-0.2-0.4-0.3-0.7-0.5c-2.5-2-5-4-7.5-6c-1.9-1.5-3.9-2.6-6.4-2.7
		c-3.6-0.1-7.2,0-10.8,0c-0.5,0-1,0.1-1.5,0.1c-0.2,1.4,0.2,3.7,0.8,5.4c1.6,4.3,4.3,7.9,7.5,11.1c5.2,5.1,11.1,9,17.6,12.1
		c2.7,1.3,5.5,2.3,8.3,3.5c2.7,1.1,5.5,1.8,8.4,2.2c2.7,0.4,5.5,0.4,8.3,0.1c2.7-0.3,5.4-0.9,8-1.8c3.2-1.1,6.3-2.5,9.4-3.8
		c5.5-2.4,10.4-5.8,14.9-9.9c3.9-3.6,7.1-7.7,8.8-12.8c0.6-1.8,0.9-3.7,1.1-5.7c-0.2,0-0.3-0.1-0.5-0.1c-3.3,0-6.7-0.2-10-0.1
		c-2.5,0.1-4.8,0.7-7,2c-2.6,1.5-4.8,3.5-7,5.6c-0.6,0.5-1.1,1-1.7,1.6c-0.8-2.7-1.8-5.1-3.2-7.4c-3.4-5.3-7.7-9.1-14.2-9.9
		c-3.8-0.5-7.3,0.1-10.7,1.9c-4.2,2.2-7.2,5.7-9.5,9.9C138.6,95.8,137.9,97.6,137,99.5z"/>
	<path class="st0" d="M194.3,56.5c-1.3-1.4-2.5-2.8-3.8-4.1c-3-3.1-5.7-6.5-9.2-9c-0.7-0.5-1.3-1-2-1.5c-0.4-0.3-0.5-0.7-0.1-1.1
		c3.3-3.2,6.6-6.4,10.5-8.8c2.1-1.3,4.4-2.4,6.7-3.5c0.7-0.4,1-0.2,1.1,0.6c0.3,3.3,0.7,6.5,1,9.8c0.2,2.4-0.4,4.8-1,7.1
		c-0.9,3.1-1.8,6.2-2.7,9.3C194.6,55.6,194.5,55.9,194.3,56.5z"/>
	<path class="st0" d="M119.6,56.7c-0.9-3-1.8-5.7-2.5-8.5c-0.6-2-1-4.1-1.4-6.1c-0.5-2.3-0.4-4.6-0.1-6.8c0.3-2,0.6-4,0.9-6
		c0.2-1.1,0.5-1.3,1.5-0.8c5,2.8,10,5.7,14,9.9c1,1,2.1,1.9,3.3,3C129.3,45.6,124.2,50.7,119.6,56.7z"/>
	<path class="st0" d="M146.3,81.2c-1.5,0.1-2.9,0.3-4.4,0.3c-4,0-7.7-1.1-10.9-3.5c-0.5-0.4-1.1-0.6-1.7-0.9c-1.2-0.5-1.8-1.4-1.9-2.7
		c-0.1-1.1,0-2.3-0.1-3.4c-0.1-1.3,0.6-1.6,1.8-1.8c2.7-0.5,5,0.6,7.2,2.1c2.5,1.7,5.1,3.4,7.7,5C146,77.4,146.3,79.1,146.3,81.2z"
		/>
	<path class="st0" d="M171.7,81.4c-0.8,0-1.7,0-2.5,0c-0.9,0-1-0.2-1-1c-0.1-2,0.9-3.5,2.5-4.5c3-1.9,6-3.7,9.1-5.6c1.9-1.1,3.9-1.3,6-1
		c0.9,0.1,1.2,0.4,1.2,1.4c0,1.5,0,3,0,4.4c0,0.6-0.2,1.1-0.8,1.4c-2.7,1.5-5.4,3-8.2,4.3c-1.8,0.8-3.8,0.8-5.8,0.7
		C172,81.4,171.8,81.4,171.7,81.4L171.7,81.4z"/>
	<path class="st0" d="M178,66.9c-1.1,0-2.2,0-3.3,0c-2.5,0-4-2.2-3.2-4.6c0.9-2.7,3.3-4.6,6.2-4.7c3.2-0.1,6.2,2.5,6.4,5.7
		c0.1,1.1-0.3,2.2-1.1,3c-0.3,0.3-0.9,0.4-1.3,0.5C180.5,67,179.2,66.9,178,66.9L178,66.9z"/>
	<path class="st0" d="M136.2,66.9c-1.2,0-2.4,0-3.6,0c-1.5,0-2.6-1-2.8-2.5c-0.3-2.9,1.5-5.3,4.1-6.3c3.1-1.1,6.4,0.5,7.8,2.9
		c0.8,1.4,0.9,2.9,0.3,4.4c-0.4,1-1.1,1.5-2.2,1.5S137.4,66.9,136.2,66.9L136.2,66.9z"/>
	<path class="st0" d="M159.7,104.6c3.6,0,7.2,0,10.7,0c0.2,1.9,0.1,3.6-1.2,5.1c-0.6,0.7-1.1,1.6-1.6,2.4c-0.2,0.3-0.4,0.5-0.7,0.9
		c-0.1-0.8-0.2-1.4-0.2-2c-0.1-0.9-0.1-1.7-0.2-2.6c0-0.5-0.1-0.7-0.7-0.7c-1.5,0-3,0-4.6,0c0,0.3,0,0.6,0,1c0.3,0,0.6,0.1,1,0.1
		c0,0.6,0,1.1,0,1.8c-0.8,0-1.6,0-2.3,0c-0.1,0.1-0.1,0.1-0.1,0.2c-0.1,1.1-0.1,1.1-1.2,1.1c-0.5,0-0.9,0-1.4,0
		c-0.3-1.2-0.3-1.2-1.5-1.2c-0.7,0-1.4,0-2,0c-0.9,0-0.6-0.6-0.6-1.1s0.1-0.8,0.7-0.7c0.4,0,0.7,0,1.1,0c0.3-0.9,0.2-1-0.6-1
		c-1.3,0-2.7,0-4.1,0c0,1.7,0,3.3,0,5c-0.2-0.1-0.3-0.1-0.4-0.2c-1.3-2.1-2.7-4.1-3.5-6.4c-0.4-1.1-0.2-1.4,1-1.5c3,0,6,0,9.1,0
		c0.3,0,0.5,0,0.8,0c0-1.4,0-2.6,0-3.9c0-0.3-0.3-0.6-0.6-0.8c-1-0.7-1.9-1.4-2.9-2c-2.5-1.5-2.9-3.4-2-6.1c0.2-0.7,0.6-1.4,0.9-2
		c0.3-0.7,0.8-1,1.5-1c2.5,0,5,0,7.5-0.1c1.2,0,2,0.3,2.4,1.5c0.4,0.9,1,1.8,1.2,2.7c0.5,1.7-0.3,3.1-1.5,4.2
		c-0.9,0.9-2,1.8-3.1,2.6c-0.6,0.5-0.9,1.1-0.9,1.8C159.8,102.6,159.7,103.6,159.7,104.6z"/>
</g>
</svg>
