<?xml version="1.0" encoding="utf-8"?>
<!-- Generator: Adobe Illustrator 24.0.2, SVG Export Plug-In . SVG Version: 6.00 Build 0)  -->
<svg version="1.1" id="Слой_1" xmlns="http://www.w3.org/2000/svg" xmlns:xlink="http://www.w3.org/1999/xlink" x="0px" y="0px"
	 viewBox="0 0 238.1 150.2" style="enable-background:new 0 0 238.1 150.2;" xml:space="preserve">
<style type="text/css">
	.st0{fill-rule:evenodd;clip-rule:evenodd;fill:#2B2A29;}
</style>
<g id="Layer_x0020_1">
	<g id="_1610296026624">
		<path class="st0" d="M186.4,148.2l-1.9,0.6c0.4-1.9,0.2-1.1,1.4-2.1c3.6-1,2.8-1.8,4.7-2C190.6,147.2,188.7,146.6,186.4,148.2z
			 M170,128.5l1.2-4.6c6.2,1.6,4.9,6.3,4.9,10.9c0,4.8-0.4,10.1-1.4,14.3c-0.9-1.3-0.9-11.8-2.3-16.4
			C171.9,131,170.8,130.1,170,128.5z M207,114.5c-0.3,0.6-0.4-0.4-0.3,0.9c0.1,2-0.1,0.4,0.6,1l0.4-1.7c0.3,0.3,0.4,0.6,0.7,0.8
			c2.4,0,0.3,0.1,0.9-0.4l-1.2-1.4l2.9-6.6l1.6,0.8c1.4,1,3.2,0.9,5.3,1l0.3,0.9l-0.2,6.3c-1.6,0.2-2.9,0.2-4.3,0.1l-2.4-0.6
			c-2.1,0.1-0.4-0.1-1,0.4c1.4,1.6,5.3,1.4,7.3,1.2c-0.4,2.9-4.1,4.4-7.3,2.7c-3.1-1.7-3.2-4.1-5.1-7.4l-0.3-0.8
			c-0.6-1.2-0.3-1.2-0.7-2.2l-3.8-5.7l1.3-1.3c0.7,0.6,6.3,6.7,6.3,7.7c-0.2,0.4-0.6,1.2-0.7,1.8C206.8,113.3,207.1,112.9,207,114.5
			z M198,103.7c0-0.1-0.1-0.3-0.1-0.3s-0.3-0.4,0-1.3c0,0,1.6-2.1,3.4-1.7c0.3,1.9-0.1,1.4-2.1,2.9
			C198.8,103.6,198.8,103.7,198,103.7z M212.7,100.5c0.7,0.7,0.3,0.3,1,0.7c1.8,1,2.6,1.9,2.8,3.7l-2-2.1
			C213.8,102.2,213.1,101.4,212.7,100.5z M162,98.2c6.8,1.6,5.8,0.2,9.2,0.8c14.3,2.3,20-3.7,23.7,0c0.8,0.9,0.2-0.2,0.6,1
			c-2.2,1-3.9,0.9-5.8,1.2c-1,0.2-1,0.3-2.2,0.2c-4.3,0-18.8-0.3-21.7-1.3c-0.6-0.2-1.1-0.4-1.8-0.7C162.1,98.9,162.7,99.2,162,98.2
			z M170.6,110.3c0.4,0.8,1.3,1.8,2.1,3c0.8,1.2,1.1,2.3,1.9,3.8c1.1,2.4,1.7,5.8,1.6,9c-1.3-0.4-2.8-3.7-9.2-5.7
			c-2.1-1-0.1,0.4-4.2-0.2l-3-0.6c-1.8,0.1,1.1-0.6-0.7,0.2c0,0-0.1,0.1-0.2,0.1l4.8,1.2c-0.9,0.6-2.8,1.8-3.3,2.2
			c-0.8,0.7-0.4,0.8-1.4,1.6l-4.8,4.1c-1,1-2,2.2-3.6,2.6c-2.4-3.1-7.7-14-8-18.9c2,0.7,2.8,2.1,4.8,2.7c-0.8-2-6.8-2.3-4.1-8.6
			c1.7-3.8,1.2-13.8,1.4-18.4c0.4,0.8,1,2.2,1.4,2.6c1.3,0.8,1.4-0.8,4.1,6.2c0.2-0.2,0.1,0.1,0.2-0.6c0.2-1.8-0.3-1.4,0.3-3.1
			c0-0.1,0.1-0.1,0.1-0.2c0,0.1,0.1,0.1,0.1,0.2c0,0.1,0.1,0.1,0.1,0.2c1.6,2.9,1.1,0.9,2.4,2.6c0.8,1,0.4,0.7,1.3,1.7
			c0.6,0.6,0.7,0.9,1.4,1.2l-0.7-2c2,0.4,1.1,1,4.1,3.4c3,2.4,4,2.3,8.3,4c0,2-0.1,2.1,0.4,3.7C168.9,110,169.4,108.6,170.6,110.3z
			 M195.7,96.5c1.2-0.9,1.6-1,1.9,1.1c-0.3-0.1-0.4-0.1-0.9-0.4c-0.1,0-0.2-0.1-0.2-0.1L195.7,96.5z M213.7,97.1
			c0.7,1.2,0.4,1.1,0.2,1.7l-0.9,0.6c0,0-0.1,0.1-0.2,0.2l-0.8-1.4c0.9-2.1,3.6-2.8,5.1-3.9l1.1-0.9c-1.1,2.8-0.7,1.7-3.1,3
			C214,97.1,214.7,96.9,213.7,97.1z M129.1,63.1c-0.9,1.1-2.3,0.2-2.4,0.1c0,0-1.1-1.6,0.1-2.8c1-1.3,2-1,3.2-0.2
			C130.5,61.9,130.2,62.2,129.1,63.1z M130.7,59.8c5.7,2.4,7.7,1.3,12.4-0.7c-0.3,1.8,0,1.6-1.4,2.1c-0.6,0.2-0.7,0.2-1.2,0.3
			l-0.8,0.2c-0.7,0.3-0.3,0.1-0.8,0.4l3.8-0.6c-0.6,1.4-9.6,1.2-11.3,0.9C131,61.2,131.1,61.2,130.7,59.8z M193,56.5
			c0.9,2.1,1.3,7.2,1.1,10.1c0-0.2,0-1-0.2-1.3c-0.7-1.4-0.3-0.4-0.9-1c-1.7-1.3-1.8-4.3-2.8-6.4C191.2,57.4,191.9,57.3,193,56.5z
			 M187.3,49.3c4,0.1,7.1,1.4,6.3,5.7c-2.7,2.4-3.4,1.4-7.1,1.8l-0.8-0.1c0.7,0.3,1.4,1,2.6,1.4c1.6,0.6,1.4-0.1,1.9,2
			c0.2,1.4,3.9,8.9,4.8,10.9c0.8,1.8,1.7,3.3,2.4,5.4c0.7,1.8,1.2,3.9,1.8,5.9l0.6,3c0,1.1-0.3,1.8-0.4,2.9c-0.3,2-0.6,2.8-1.3,4.7
			l-0.1,0.4c1,0.3,0.8,0,1.1,1.2c-1.4,1.2-6.7,1.4-9,2.1c-7.8,2.1-8.4,3.3-18.9,1.7c-3.3-0.6-6.7-0.4-10-1c4-1.9,10.1-0.8,15-1
			c2.6-0.1,5.2-0.3,7.7-0.7c1.6-0.2,6.3-1.2,7.2-1.1c-0.6-1.6,0.2-0.4-1.1-1c0-3.9,0-2.1-1-3c-0.3,1.6-0.4,1.2,0,3l-0.6,0.4
			l-4.7,0.2c-0.3,0.7,0,0.1-0.3,0.6c-3.8,0.3-6.9,0.7-10.9,0.7c-3.6,0-7.4-0.4-10.7,0.7c-5.1,1.7-9.1-7.1-7.8-13.2
			c1.2-5.4,5-11.1,7.4-15.2c1-1.6,3.1-5.9,4.2-7c1.1-1,6.3-2.2,7.4-3.9c-2.6,0.1-4.3,1-7.3,0.9c-2.7-0.1-4.7-0.8-5.9-2.1
			c-0.9-5.1,4.2-5,8.2-5.4c3.8-0.4,8.2-1.2,12.1-1.3l1.1-0.2c0.2,0.2,0.3,0.3,0.6,0.8l0.4,1.8c0.1,1.2-0.1,1.9-0.6,2.7
			c0.1,0.8,0.1,1-0.1,1.8c-0.7,2.2-0.3,0.9-0.9,1.6l-0.3,2c0,2.4,0.6,6.8,1.1,8.8c0.3,1.2,0.7,2.4,1.1,3.8c0.6,1.6,1.1,2,1.7,3.4
			l-0.4-0.6c-0.1-1-1.9-5-2.6-9.6c-1-6.3,0.9-9.8,0.9-11.2c0.2-1.9,0-3.2,0.1-4.8L187.3,49.3z M128,35.2c0.6-1.1,0.3-1.1,1.3-1.8
			c6.1-3.9,11.2,1.4,11.7,6.2l0.6,0.8c1.3,0.8,1.6,1.8,1.8,3.8l0.7,6c0.1,0.8,0,0.4,0.3,1.1c-0.6,3.2,0.8,4.6-1.2,6.3
			c-4.4,3.9-11.3,2.9-15.1-1.2C123.1,51.4,123.6,41.9,128,35.2z M183.2,44c1.7-0.6,1.3,0.9,3.8,0.7c1.9-0.1,1.8-1.2,3.6-1.3
			C188.9,46.1,185.8,45.6,183.2,44z M181.1,43.2c0-2.6,0.6-4,2.1-5.7c1.2-1.3,3.2-2,5.7-2.1c0.2,3.4,1.3,4.4,1.7,6.9
			C187.6,43.6,184.3,43.4,181.1,43.2z M206.9,37.5c2.3,5.1-0.7,9.8-3,13c-1.3,1.9-6.2,8.3-9.4,8.6l-0.4-3.9l0.4-0.6
			c0-0.1,0.1-0.1,0.1-0.2s0.1-0.1,0.1-0.2c0-3.4-1.6-3.2-2.7-5.2c0.2-1.3,0.9-2.7,1.3-4c0.6-1.8,0.6-2.1,1.7-3.1l-0.4-0.4
			c0.2-2.1,0.8-2,2.2-2.9c3.2-2,5.7-3.6,9.7-2.2L206.9,37.5z M179.7,45.5c-1.2-0.2-1.6-0.3-2.9,0.1l2.4,0.1c0.6,1.8,0.2,0.3,1.9,1.6
			l2.2,0.6c1,0.6,0,0,0.6,0.4h-3.2c-2.6,0-5.1,0.6-7.6,0.7c1.2-1.4,1.9-1.3,3.7-1.6c-1.4-0.4-2.9,0.6-4.2,1.2c-0.6,0-1,0.3-1.9,0.6
			c-1.4,0.1-7,0.6-8.1,1c-2.4,0.9-4.6,1.4-7.2-0.2c-8.1-5.1,1.4-18.4,9.7-20.8c3.4-1,12.8,0.8,15.8,2c0,0.1,0.1,0.2,0.1,0.2
			c0,0.1,0.1,0.2,0.1,0.2c0.1,0.6,0-0.1,0.1,0.6c0.1,1.3-0.3,1.8,0.2,2.9c0.8-2-0.3-3.1,0.7-4.1c1.2,1.7,0.2,5.7-0.3,7.6
			C179.6,45,181.4,45.2,179.7,45.5z M182.9,30.5c3-0.8,4-2.4,6.8-3.4c3.9-1.3,3.4,2.9,3.6,5.7c0.2,3.9,0.3,9.7-1.6,13.1
			c-1.2,2.1-0.9,1.2-1.8,2.1c-0.4,0.6-0.1,0-0.1,0.4c-3.4,0.3-6.3-1.3-8.1-2.7l-0.1-1.9c1.6,0.7,1,1.2,3.3,2
			c1.2,0.3,3.3,0.6,4.2,0.7c1.6-1.2,2.4-1.6,3.1-3.9c-0.1-0.1-0.1-0.2-0.2-0.2l-0.3-0.3c-0.1-0.1-0.1-0.1-0.2-0.2
			c-0.2-0.2-0.1,0-0.4-0.6c-0.9-1.3-1.4-4.1-1.4-5.8c1.9,0.3,1.4,0.6,2.9,1.1c-1.9-4.6-9.2,0.2-9.7,0.4
			C183,34.5,183.1,33.4,182.9,30.5z M206.9,33.3c0.9-0.1,1.2,0.2,1.7,1c4.6,6.6,0.6,15.9-4.2,19.3c-2.4,1.8-4.1,3.9-6,5.9l-1.3,0.9
			c-0.1,0.1-0.3,0.2-0.3,0.3c-0.7,0.4-1.1,0.7-1.7,0.8c-0.2-1.4,1.1-2,3.6-3.9c2.4-1.8,6.9-7.6,8.6-10.7c1-1.8,0.3-0.9,1.4-1.4
			c0.7-1.6,1.3-4.3,0.7-6.2c-0.6-1.4-0.6-0.2-1.3-1.9l-1.2-2.3c-4.6-1-5.4,0.6-9,1.9c1.2-1.8,6.9-4.7,9.9-2.6
			c1.2,0.9-0.2,0.4,1.4,0.8C208.7,33.8,208.4,33.8,206.9,33.3z M125.7,60.4c-1.3-0.8-2.8-3.7-3.4-5.2c-4.4-10-2-11.3,1-18.2
			c1.8-4,3.9-8.2,8.8-7.9c0.9,0,2.8,0.7,3.3,0.9c2.3,1.1,5.6,4.7,5.2,6c-0.3-1.3-0.7-0.9-0.8-1.6c0,0,0.3-0.9-0.9-2
			c-1-1-2.3-1.9-4.2-2c-3.3-0.2-7.8,1.1-8.2,3.8c1.1-0.3,1-0.6,1.7-1.1c1.8-1.4,4.4-2,6.9-1.4c-4.6-0.2-4.8,0.6-7.3,2.6l-2.2,1.8
			c-0.9,0.8-0.4,0.2-0.9,1.2l0.7,0.2c0.1,0.1,0.4,0.1,0.4,0.1c-2.4,5-2,9.4-1.1,15c-0.2-1.3-0.8-2.1-1.1-3.6c-0.2-1.3,0-2.6-0.7-3.7
			c-0.6,0.8-0.6,0.8-0.4,1.8c0,0.3,0.2,1.4,0.3,1.8c0.7,2.7,0.8,3.3,2.3,4.9c2.1,2.1-1.1,1.2,2.2,3.4c0.6,0.3,0.9,0.8,1.2,1.1
			C125.8,60,128.1,57.9,125.7,60.4z M182.4,21.8c3.2-1-1-0.3,5.6-2.2l0.3,0.8l2.4-0.6l-0.7,1.3l1.3-0.3c0.9,1.2,3.1,5,4.1,6
			c0.9,0.8,1.1,0.8,1.1,2.3c0,2.1-2.2,8.8-2.9,11.2c-0.4-4.1,1.8-11.7-1.9-14.3c-2.9-0.6-5.4,1.7-7.4,2.9
			c-6.2,3.8-14.6-5.4-24.5,1.4c-2,1.4-6,5.6-7.2,8c-0.6,1.1-1.2,2.7-1.4,3.8c-1.7,6.9-0.7,12.4,7.1,11.9c1.3,2.1-0.6,0.8,1.8,3.1
			c1.6,1.6-0.1,1.3,3.4,4.6c-1.2,4-8.7,13.3-10.3,19.4c-0.9,3.3-0.4,5.9-0.6,9.1c-1.2-1.7-2.8-8.3-4.2-9.3
			c-0.4,2.3,0.3,7.4,0.4,10.2l-2.3-4.9c-0.1-0.9,0.4-0.6,0.3-1.7c0-0.6-1-8.7-1.1-8.8c-1.3,0.7,0.1,7,0.2,8.4
			c-0.8-0.6-0.6,0.6-1.4-2.3c-2.4-7.1,0.1-5.8-0.8-7.8c-1,1.3-0.4,1.7-1.4,3c0.6-8.2,2.8-10.6,2.8-22.2c0-3.3-0.6-6.6-1-9.9
			c-0.4-3.3-1.2-6.2-1.4-9.4l5.9-4.6c4.1-3.2,7.7-5.6,12.9-7.8c3-1.3,11.7-3.8,14.4-3c1.4,0.4-1.3,0.9,4.4-0.2
			c2.6-0.4,3.8-1.3,6-2.1c-0.6,0.7-0.2,0.3-1,0.8C184.3,19.5,183.1,20.4,182.4,21.8z M103.9,149.3h56.7l-4.9-8.2
			c-1.3-2.2-4.8-6.6-4.9-9.1l5-3.7c1.4-1,4.2-3.1,5.2-3.4c0.4,1.1,2.1,3.6,2.3,4.6c0.1,0.4-0.9,4.2-1,5.8c-0.2,4.6,0.1,9.6,0.1,14.2
			h35.3l-2.8-15.2c-2.8-13.6-2.6-6.4-8.6-13.6l-7.6-6c-2.8-2.3-7.1-7.7-10-7.9l0.1-4.9c4.4-1,17.8,2.1,26.7-1.2
			c0.9,0.4,0.6,0.4,1.6,1c-0.2,4.1,1.1,2.2,2.4,4.8c1.3,2.6,1.7,2.2,3,4.3c1.7,2.7,3.3,7.9,5.4,9.4c5.8,4.3,11.4,0.8,11.1-8
			c-0.1-3.2-0.6-3.8-2.4-5.2c1.9-6.4-2.2-4.4-2-8.9c3.2-1.9,5.9-4.1,4.7-9.8c-0.3-1.7-1-2.2-2.6-2.6c2.9,8.6,0.6,7.1-3.7,10
			c-1.7,1.1-2.8,3-1.3,5.3c1.7,2.9,2.9,0.6,3.3,5.4c-5.7-1.1-3.9-0.1-6.6,2.7c-0.9-0.9-1.4-2.2-2-2.9c-0.9-1-1.7-1.9-2.4-2.8
			c-3.8-3.8-0.9-2.3-4.2-3.8c-0.3-0.2-1.2-0.8-1.4-1l0.1-2.7c0.9-0.8,0.7-0.4,1.1-1.3c-0.3-0.9-0.4-0.9-1-1.7
			c3-8.6,1.7-12.9-2.7-21.3c-1.1-2.2-0.8-5.6-1-8.3c1.1-1,2.7-1.4,3.7-2.3c2.3-2.2,7.9-7.4,9.4-9.4c1.3-1.8,2.2-3,2.9-5.3
			c1.7-5.2,1.2-16.6-9-14c-4.4,1.1-3.4,2.2-5.4,3.1c0.2-1.4,1.4-5.3,1.4-6.7c0-0.9-2.6-4-3.2-5.1c-0.8-1.1-1.7-2.1-2.2-3.4
			c0.9-0.4,0.7-0.3,1.2-0.9l-0.4-0.2c-0.6-0.3-0.4,0-0.7-0.7l-5.7,0.9c1.3-1.3,2.9-1.8,3.1-3.3c-3-0.4-4.2,3.4-13.1,3.6
			c-9.9,0.1-17.3,3.2-25.1,8.6l-9.6,7.2c-1.8-1.9-2.9-4.1-4.3-5.1c-4.6-3.2-10.7-2.3-13.1,1.9c-1.1,1.9-2.3,4.2-3.3,6.3
			c-3.2,6.6-3.1,8.2-1.1,15c1.7,5.3,4.9,8.1,5.3,8.9c1.1,1.9,0,1.7,2.8,2.4c1.8-0.4,1.4-1,3.4-0.9c5.1,0.4,7.6,0.2,11.9-1.1
			c-0.2,4.8-3.3,16.7-3.3,23.7c0.9-0.4,0.8,0,1.3-2.1l0.4-1.6c0.2-0.4,0.2-0.4,0.4-0.7c1.8,3.3,0.9,14,0.4,18.6
			c-0.3,2.8,0.2,3.6-1.4,5.2c-2.7,2.9-1.4,2.1-4.8,5.1l-9.1,8c-1.9,1.3-1.3,2-3.8,2.7c-6.7,1.9-5.2,2.2-9,4.3
			c-5.9,3.3-3.7,0.6-7.6,13C106.1,142.4,104.9,145.7,103.9,149.3z"/>
		<path class="st0" d="M182.4,21.8c0.7-1.3,1.9-2.2,3.1-3c0.8-0.4,0.3-0.1,1-0.8c-2.2,0.8-3.4,1.7-6,2.1c-5.8,1.1-3,0.7-4.4,0.2
			c-2.9-0.8-11.4,1.7-14.4,3c-5.2,2.2-8.9,4.6-12.9,7.8l-6,4.6c0.1,3.2,1,6.1,1.4,9.4c0.3,3.2,1,6.4,1,9.9c0,11.7-2.2,14-2.8,22.2
			c1-1.3,0.4-1.7,1.4-3c0.9,2-1.7,0.6,0.8,7.8c1,2.9,0.7,1.8,1.4,2.3c-0.1-1.4-1.6-7.7-0.2-8.4c0,0.1,1,8.1,1.1,8.8
			c0.1,1.1-0.3,0.8-0.3,1.7l2.3,4.9c-0.1-2.7-1-7.9-0.4-10.2c1.4,1,3,7.7,4.2,9.3c0.1-3.1-0.4-5.7,0.6-9.1
			c1.8-6.1,9.1-15.4,10.3-19.4c-3.6-3.2-1.9-3-3.4-4.6c-2.3-2.2-0.4-0.9-1.8-3.1c-7.8,0.6-8.9-5-7.1-11.9c0.3-1.1,0.9-2.7,1.4-3.8
			c1.3-2.4,5.2-6.6,7.2-8c10.1-6.9,18.3,2.3,24.5-1.4c2-1.2,4.6-3.4,7.4-2.9c3.7,2.7,1.3,10.2,1.9,14.3c0.7-2.4,2.9-9.1,2.9-11.2
			c0-1.6-0.2-1.6-1.1-2.3c-1-1-3.2-4.9-4.1-6l-1.3,0.3l0.7-1.3l-2.4,0.6l-0.3-0.8C181.4,21.4,185.7,20.8,182.4,21.8z"/>
		<path class="st0" d="M147.1,115.5l1.2,0.9c3.1,2,6.7,2.9,10.4,3.6c0.1,0,0.1-0.1,0.2-0.1c1.8-0.8-1.1-0.1,0.7-0.2l3,0.6
			c4.1,0.8,2.1-0.7,4.2,0.2c0.6-1.2-0.1-0.4,1.1-1.4c0.6-0.4,1-0.8,1.6-1.1c1.2-0.9,1.8-1.7,2.8-2.8l-1.1,0.1l-1.4-3
			c0.4-0.3-1-1.1,0.8,0l-0.4-1.1c0-1.3-0.7,0,0.6-1c-1.1-1.6-1.7-0.3-2.2-1.8c-0.6-1.7-0.4-1.8-0.4-3.7c-4.2-1.7-5.2-1.6-8.3-4
			c-3-2.4-2.1-3-4.1-3.4l0.7,2c-0.8-0.3-0.9-0.7-1.4-1.2c-0.9-1-0.6-0.7-1.3-1.7c-1.2-1.7-0.9,0.3-2.4-2.6c0-0.1-0.1-0.1-0.1-0.2
			c0-0.1-0.1-0.1-0.1-0.2c0,0.1-0.1,0.1-0.1,0.2c-0.6,1.7,0,1.2-0.3,3.1c-0.1,0.7-0.1,0.3-0.2,0.6c-2.7-7.1-2.7-5.4-4.1-6.2
			c-0.6-0.3-1.1-1.8-1.4-2.6c-0.2,4.7,0.2,14.6-1.4,18.4C140.3,113.2,146.3,113.4,147.1,115.5z"/>
		<path class="st0" d="M158,43.6c3-0.1,6.3,0.2,9.2-0.1c2.6-0.2,6-1.1,8.2-0.9c-0.1-1.6-0.4-2.8-0.7-4c-0.2-1.4-0.2-2.8-0.4-4.2
			c-3.6-0.8-7.8,0.6-10.2,2.2C162,38.3,158.6,40.9,158,43.6z"/>
		<path class="st0" d="M125.7,60.4c2.4-2.6,0.1-0.3,2.7-2.1c-0.3-0.4-0.7-0.8-1.2-1.1c-3.3-2.1-0.1-1.3-2.2-3.4
			c-1.6-1.6-1.7-2.1-2.3-4.9c-0.1-0.3-0.3-1.4-0.3-1.8c-0.1-1-0.1-1,0.4-1.8c0.7,1.2,0.4,2.4,0.7,3.7c0.3,1.4,0.9,2.1,1.1,3.6
			c-0.9-5.6-1.3-10,1.1-15c-0.1,0-0.3-0.1-0.4-0.1l-0.7-0.2c0.4-1,0.1-0.4,0.9-1.2l2.2-1.8c2.6-2,2.8-2.8,7.3-2.6
			c-2.4-0.6-5.1-0.1-6.9,1.4c-0.7,0.6-0.6,0.8-1.7,1.1c0.4-2.7,4.9-4,8.2-3.8c1.8,0.1,3.2,1,4.2,2c1.2,1.2,0.9,2,0.9,2
			c0.1,0.7,0.4,0.2,0.8,1.6c0.3-1.2-2.8-4.9-5.2-6c-0.6-0.3-2.4-0.9-3.3-0.9c-4.9-0.2-7,3.9-8.8,7.9c-3,7-5.4,8.3-1,18.2
			C122.9,56.6,124.2,59.5,125.7,60.4z"/>
		<path class="st0" d="M210.1,116.1c0,0.4,0.6,1.6-0.9,2.4l-0.6-2.4H210.1z M209.2,115.1c-0.6-1.7,0-2.7,0.6-4.1
			c0.9-2.3,1.1-1.8,1.4-1.9c1.1-0.4,0.4,0.1,0.4,0c0,0,0.7-0.2,0.8,1.3l-1.1,3.9c-0.7,1.6-0.1,0.7-1.1,1.3
			C209.1,115.2,210,116.1,209.2,115.1z M209.2,115.1c-0.6,0.6,1.6,0.4-0.9,0.4c-0.2-0.3-0.3-0.6-0.7-0.8l-0.4,1.7
			c-0.6-0.7-0.4,1-0.6-1c-0.1-1.3,0-0.2,0.3-0.9c-1.2-0.2-0.8,0-1.4-1c-0.3-0.4-0.2-0.4-0.7-1c2,3.3,2,5.8,5.1,7.4
			c3.2,1.8,6.9,0.1,7.3-2.7c-2,0.2-5.8,0.3-7.3-1.2c0.4-0.6-1.1-0.3,1-0.4l2.4,0.6c1.4,0.1,2.8,0.1,4.3-0.1l0.2-6.3
			c-0.4,0.3,0.4,0.2-1,0.3l-5.3-0.9c-0.9-0.6-0.1,0.2-0.7-0.8c0.8-0.8-1.1-0.8,1.2-0.6l-1.6-0.8l-2.9,6.6L209.2,115.1z"/>
		<path class="st0" d="M162,98.2c0.7,1,0.1,0.7,2,1.2c0.6,0.2,1.2,0.4,1.8,0.7c3,1,17.3,1.3,21.7,1.3c1.1,0,1.2-0.1,2.2-0.2
			c1.9-0.3,3.6-0.2,5.8-1.2c-0.3-1.2,0.2-0.1-0.6-1c-3.6-3.7-9.3,2.3-23.7,0C167.8,98.4,168.8,99.7,162,98.2z"/>
		<path class="st0" d="M206.9,33.3c1.6,0.4,1.8,0.3,2.1,1.9c-1.7-0.2-0.3,0.1-1.4-0.8c-2.9-2.1-8.7,0.9-9.9,2.6
			c3.4-1.3,4.4-2.9,9-1.9l1.2,2.3c0.8,1.8,0.9,0.6,1.3,1.9c0.7,1.9,0.1,4.7-0.7,6.2c-1.1,0.6-0.4-0.3-1.4,1.4
			c-1.7,3.1-6.1,8.8-8.6,10.7s-3.8,2.4-3.6,3.9c0.7-0.1,1-0.3,1.7-0.8c0.1-0.1,0.3-0.2,0.3-0.3l1.3-0.9c1.9-2,3.7-4,6-5.9
			c4.8-3.6,8.8-12.8,4.2-19.3C208.1,33.7,207.8,33.2,206.9,33.3z"/>
		<path class="st0" d="M181.1,43.2c3.1,0.2,6.4,0.4,9.4-0.8c-0.2-2.6-1.4-3.4-1.7-6.9c-2.4,0-4.4,0.7-5.7,2.1
			C181.8,39.2,181.1,40.6,181.1,43.2z"/>
		<path class="st0" d="M158,43.6c0.6-2.8,3.9-5.3,6.2-7c2.3-1.8,6.6-3,10.2-2.2c0.2,1.4,0.2,2.8,0.4,4.2c0.2,1.2,0.6,2.4,0.7,4
			c-2.2-0.1-5.7,0.7-8.2,0.9C164.4,43.9,161,43.5,158,43.6z M157.7,44.5c1.6,0.2,0.1-1,3.9-0.6c1.2,0.2,3.2,0,4.1,0.6
			c1.9,0.4,2.8,1.2,5,0.6c1.9-0.6,1.9-1.7,4.4-1.9l-2,2.3l-0.2,1c1.2,0.8,0.4,0.2,1.3,0.1l1.9-1.1c-0.8-1.1,0.1-0.2-1.1-0.7
			c0.2-0.4,0.2-0.6,0.6-1l1.1-1.1c0.6-1.1,0.2-0.3-0.4-1.4c-0.8-1.6-1-4.1-1.1-6c0.1-0.1,0.2-0.1,0.3-0.1l1.3-0.6
			c-4.8-2.2-8.2-1.2-12.2,1.2c-4,2.4-7.3,7.9-7.3,7.9c0-0.1-0.1,0.1-0.2,0.3L157.7,44.5z"/>
		<path class="st0" d="M128,35.2c4.1-1.3,11.1,1.7,11.6,5c1.1-0.1,0.3,0.2,1.4-0.4c-0.4-4.8-5.6-10.1-11.7-6.2
			C128.3,34.1,128.6,34.1,128,35.2z"/>
		<path class="st0" d="M157.7,44.5c2.8,4.3,8.6,3,10.2,3s2.6-0.2,4-0.4l-1.3,2c0.9-0.3,1.3-0.6,1.9-0.6c-0.6-0.9-0.7,0.7,0.1-0.4
			l1.7-1.3c-0.9,0-0.1,0.6-1.3-0.1l0.2-1c-3,0.3-3.7,1-7.1,0.6c-2.8-0.3-2.8-0.9-5.6-1.9l5.3,0.2c-0.9-0.7-2.9-0.4-4.1-0.6
			C157.8,43.5,159.3,44.8,157.7,44.5z"/>
		<path class="st0" d="M184.6,79.6c0-0.6,0.1-0.2-0.1,0.1c1.4,0.9,1.3,1.6,1.9,3c0,0,0.1,0.1,0.1,0.2l1.3,1.7l-0.4-2.7
			c-0.8-1.9-1.8-6.1-3.3-7.4l0.2,0.7c-0.6-1.4-1.1-1.9-1.7-3.4c-0.4-1.2-0.8-2.6-1.1-3.8c-0.6-2-1.1-6.3-1.1-8.8
			c-1.2,1.6-0.2,4.2,0,5.2C180.8,68.5,182,77,184.6,79.6z"/>
		<path class="st0" d="M204.6,111.6c0.7-0.8,1.2-0.9,1.9,0.1c0.7,0.9,0.8,1.3,0.6,2.7c0.1-1.6-0.3-1.2,0.1-2.7
			c0.1-0.6,0.6-1.3,0.7-1.8c0-0.9-5.7-7.1-6.3-7.7l-1.3,1.3l3.8,5.7C204.2,110.5,204,110.5,204.6,111.6z"/>
		<path class="st0" d="M194.6,41.4h1.1c0-0.1,0.1-0.2,0.1-0.1c0,0,0.1-0.1,0.1-0.2L196,41c1.2-1,1.3-0.1,3.8-1.4
			c-2,0-0.7,0.1-1.1-0.4c2.1-0.3,6.3-1.9,8.1-1.4l-0.4-1.3c-4-1.2-6.4,0.2-9.7,2.2C195.3,39.3,194.8,39.3,194.6,41.4z"/>
		<path class="st0" d="M139.2,40.8c0.7-0.7,0.1-0.4,1.3-0.4c0.2,0,0.8,0.2,1,0.3l-0.6-0.8c-1.1,0.7-0.3,0.3-1.4,0.4
			c-1.6,0-0.7,0.7-2-0.1c-1-0.6-2.9-2.6-6.4-2c-2.4,0.4-5.6,3.9-5.1,5.8c0.7-0.3,1.1-2,1.7-2.8c2.9-3.7,7.7-2.2,9.6-0.3
			c-1.2,2.3-3.4,2.2-4.4,6.4c-0.8,3.1,0.6,6.6,2.7,7.6c-0.3-1.1-5-5.7,0.8-11.8C137.2,42,138.3,41.6,139.2,40.8z"/>
		<path class="st0" d="M184.6,79.6c0.1,1.9,1.9,4.6,2.6,6.7c0.6,1.9,1.8,6,1.1,7.7l0.6-0.4c-0.4-1.8-0.3-1.4,0-3c1,0.8,1-0.9,1,3
			c1.3,0.4,0.6-0.6,1.1,1l6.8-1.1l0.1-0.4c-4.1,0-4.4,0.9-7.3,0.4l-0.8-2.1c0.2-2-1.2-8-2.3-9.2l0.4,2.7l-1.3-1.7c0,0,0-0.1-0.1-0.2
			c-0.6-1.4-0.4-2.1-1.9-3C184.7,79.3,184.6,79.1,184.6,79.6z"/>
		<path class="st0" d="M130.7,59.8c0.4,1.4,0.3,1.3,0.6,2.9c1.9,0.2,10.8,0.6,11.3-0.9l-3.8,0.6c0.4-0.3,0.1-0.2,0.8-0.4l0.8-0.2
			c0.6-0.1,0.8-0.2,1.2-0.3c1.4-0.6,1.1-0.4,1.4-2.1C138.3,61.1,136.3,62.3,130.7,59.8z"/>
		<path class="st0" d="M171.1,56.1c-2.7,0.4-4.3,1.2-6.3-0.8c0.4-2.7,2.9-2.7,5.4-2.1c3,0.7,3.3,1.2,5.1,2.6c-0.2-1-0.1-1.9-1.9-2.2
			c-2.1-0.3-1.4,0.3-3.3-1c-2.2-1.6-5.7-1-7.7,0.6c-0.2,1.9,0.9,3.2,2.6,3.4C166.8,56.8,169.9,57.1,171.1,56.1z"/>
		<path class="st0" d="M185.3,53.3c2.1-0.7,3.7-1.3,4.9,0.7c-0.6,2-3.9,1.7-5.4,1.7c-1.2,0-0.6,0.2-1.9,0.3c-0.1,0.3,0.1,0.9-0.7,0
			l-0.7,2.6l1.6-1.7c3.8,1.3,4.3,2.1,6.9,3.3c-0.3-2.1-0.2-1.4-1.9-2c-1-0.3-1.8-1.1-2.6-1.4l0.8,0.1c-0.6-0.6-0.3-0.1-1-0.2
			c-0.6-0.1-0.3,0.1-1-0.1c-0.9-0.3-0.2,0-0.9-0.6c2.9-0.2,7.3,0.7,8.3-1.9c-0.3-1.3-0.9-2-2.4-2.4
			C186.3,50.6,186.3,51.5,185.3,53.3z"/>
		<path class="st0" d="M213.8,82.7c-0.1-1.6,0.3-2.1,0.7-3.7c-2.8,1.9-1.8,6.9,2.1,7.7c-0.7-1.4-1.8-1.4-1.9-3.1
			c-0.2-2.6,5.4-9.2,0.6-11.2C216.1,75.8,215.5,79.5,213.8,82.7z"/>
		<path class="st0" d="M190.2,57.9c1,2.1,1.2,5.1,2.8,6.4c0.6,0.6,0.2-0.4,0.9,1c0.2,0.4,0.2,1.1,0.2,1.3c0.1-2.9-0.2-8-1.1-10.1
			C191.9,57.3,191.2,57.4,190.2,57.9z"/>
		<path class="st0" d="M174.2,46.8l-1.7,1.3c-0.8,1.1-0.7-0.6-0.1,0.4c1.3-0.6,2.8-1.6,4.2-1.2c-1.8,0.2-2.3,0.1-3.7,1.6
			c2.4-0.1,5-0.7,7.6-0.7c-2-1-2.3,0.3-3.9-0.7c1.2-0.7,2.8-0.7,4.2-0.3c-1.6-1.2-1.2,0.2-1.9-1.6l-2.4-0.1c1.2-0.4,1.7-0.3,2.9-0.1
			c-0.7-0.9-1.8-0.6-3-0.4c0.7-1.7,0.1-0.7,0-1.9c0-0.1-0.1-0.2-0.1-0.3l-1.1,1.1c-0.3,0.4-0.3,0.6-0.6,1c1.2,0.4,0.3-0.4,1.1,0.7
			L174.2,46.8z"/>
		<path class="st0" d="M194.6,41.4l0.4,0.4c1.8-0.8,3.6-1.9,5.9-1.6c3.3,4.7-0.9,9.3-1.4,11.4c2.4-1,4.8-6.3,2.4-11.6
			c1.8-0.2,2.9,0.7,4.3,1c-0.4-1,0.1-0.6-1-1.2c-1.4-0.9-3.6-0.9-5.1-0.4c-2.4,1.3-2.6,0.4-3.8,1.4l-0.1,0.1l-0.1,0.2
			c0-0.1-0.1,0.1-0.1,0.1S194.6,41.4,194.6,41.4z"/>
		<path class="st0" d="M189.7,91.2l0.8,2.1c2.9,0.3,3.2-0.4,7.3-0.4c0.8-1.9,1-2.7,1.3-4.7c0.2-1.1,0.4-1.7,0.4-2.9l-0.6-3
			c0.3,5.6-0.7,8.9-6.3,10.3c-1.3,0.3-0.7-0.3-1.4,0.4l-0.7-0.8c0-0.1-0.1-0.2-0.1-0.2L189.7,91.2z"/>
		<path class="st0" d="M209.2,115.1c0.9,1-0.1,0.1,1,0.6c1-0.7,0.4,0.2,1.1-1.3l1.1-3.9c-0.2-1.6-0.8-1.4-0.8-1.3
			c-0.1,0.1,0.7-0.4-0.4,0c-0.3,0.1-0.6-0.4-1.4,1.9C209.1,112.4,208.7,113.4,209.2,115.1z"/>
		<path class="st0" d="M213.7,97.1c1-0.3,0.4-0.1,1.4-0.7c2.4-1.3,1.9-0.2,3.1-3l-1.1,0.9c-1.6,1.1-4.2,1.8-5.1,3.9l0.8,1.4
			c0.1-0.1,0.1-0.2,0.2-0.2l0.9-0.6C214.1,98.3,214.2,98.4,213.7,97.1z"/>
		<path class="st0" d="M218.1,109.7l-0.3-0.9c-2.1-0.1-3.9,0-5.3-1c-2.4-0.2-0.4-0.1-1.2,0.6c0.6,1-0.2,0.3,0.7,0.8l5.3,0.9
			C218.5,110,217.8,110,218.1,109.7z"/>
		<path class="st0" d="M144.3,51.5c-0.3-0.7-0.3-0.3-0.3-1.1c-1.9,1.2-1,3.1-5.3,6.2c-0.2,0.1-0.4,0.3-0.6,0.4
			c-0.3,0.3-0.2,0.2-0.4,0.6c1.8-0.2,3.1-1.4,4-2.4c0.3-0.4,0.9-1.2,1.2-1.7C143.6,52.3,143.1,52,144.3,51.5z"/>
		<path class="st0" d="M198,103.7c0.8,0,0.8-0.2,1.2-0.4c2-1.4,2.4-0.9,2.1-2.9c-1.9-0.4-3.4,1.7-3.4,1.7c-0.4,0.8,0,1.3,0,1.3
			C197.9,103.4,197.9,103.6,198,103.7z"/>
		<path class="st0" d="M181.6,54c0.4-0.8,0.7-1.6,0.6-2.7l-0.4-1.8c-0.2-0.4-0.3-0.6-0.6-0.8L180,49l0.4,3.1
			c0.7-0.4,0.1,0.1,0.6-0.4L181.6,54z"/>
		<path class="st0" d="M204.9,112.5c0.3,0.6,0.3,0.6,0.7,1c0.7,0.9,0.3,0.8,1.4,1c0.2-1.3,0.1-1.8-0.6-2.7c-0.7-1-1.2-0.9-1.9-0.1
			L204.9,112.5z"/>
		<path class="st0" d="M182.2,53.8c0.8-0.7,1.1-3.2,1.7-4.2l3.3-0.1l-5-0.3C182.2,50.5,182.4,51.9,182.2,53.8z"/>
		<path class="st0" d="M129.1,63.1l-1-1c-0.8-0.7-0.4-0.4-1.3-0.6v-1.1c-1.2,1.2-0.1,2.8-0.1,2.8C126.8,63.2,128.2,64.2,129.1,63.1z
			"/>
		<path class="st0" d="M143.3,44.3c-0.2-2-0.4-3-1.8-3.8c-0.2-0.1-0.8-0.3-1-0.3c-1.2,0-0.7-0.1-1.3,0.4l1.4-0.1
			c0.3,0.9,0.8,1.2,1.2,1.8c0.3,0.4,0.3,0.6,0.7,1L143.3,44.3z"/>
		<path class="st0" d="M172.2,115.2c-0.2-1.1-0.9-2.4-1.8-2.8c-1.8-1.1-0.3-0.3-0.8,0l1.4,3L172.2,115.2z"/>
		<path class="st0" d="M194.7,54.2c0,0.1-0.1,0.1-0.1,0.2c0,0.1-0.1,0.2-0.1,0.2l-0.4,0.6c1.2,0,2.3,0.2,3.3-0.2
			c0.7-0.2,1.4-0.8,1.7-1.2C197,54,197.1,54.8,194.7,54.2z"/>
		<path class="st0" d="M180.6,57.2c0.6-0.7,0.2,0.7,0.9-1.6c0.2-0.8,0.2-1,0.1-1.8c-1,0-1.2,0.1-1.4,1.2c-0.1,0.7,0,0.4,0.1,0.8
			C180.3,56.5,180.3,55.3,180.6,57.2z"/>
		<path class="st0" d="M212.7,100.5c0.4,0.9,1.1,1.7,1.8,2.3l2,2.1c-0.2-1.8-1-2.7-2.8-3.7C213,100.9,213.3,101.2,212.7,100.5z"/>
		<path class="st0" d="M160.2,90.4c0.7,1.7,1.2,2.8,3,3C162.8,92.3,161.3,91,160.2,90.4z"/>
		<path class="st0" d="M172.2,61.9c-0.8,1.4-0.1,2.7,1.1,3.4C173.2,64.1,173.1,62.4,172.2,61.9z"/>
		<path class="st0" d="M210.1,116.1h-1.4l0.6,2.4C210.7,117.5,210.2,116.5,210.1,116.1z"/>
		<path class="st0" d="M196.7,89.3c1.2-0.3,0.6-2.3,0.6-2.3c0-0.1-0.1-0.2-0.2-0.2C197,86.7,195.7,87.2,196.7,89.3z"/>
		<path class="st0" d="M170.2,63.6c0.3-0.4,0.6,0.9,0.6-1.1c0.1-2-0.2-0.8-0.6-1.1C169.9,61.9,169.3,62,170.2,63.6z"/>
		<path class="st0" d="M195.7,96.5l0.7,0.6c0.1,0,0.2,0.1,0.2,0.1c0.4,0.2,0.6,0.2,0.9,0.4C197.2,95.4,196.9,95.5,195.7,96.5z"/>
		<path class="st0" d="M188.6,63c-0.4-2.2-0.9-2-1.6-2.2c0.1,0.7,0.1,1,0.4,1.4C188.1,63.3,187.4,62.5,188.6,63z"/>
		<path class="st0" d="M195,90.3c0.1-0.6,1.2-0.4,0.3-1.9C193.7,90,195,90.3,195,90.3z"/>
		<path class="st0" d="M162.4,91c0.7,1.1,0.7,1.2,2,1.7c-0.4-1.2,0.3-0.3-1-1.2C163.1,91.1,163,91.1,162.4,91z"/>
	</g>
</g>
</svg>
