<?xml version="1.0" encoding="UTF-8"?>
<!DOCTYPE svg PUBLIC "-//W3C//DTD SVG 1.0//EN" "http://www.w3.org/TR/2001/REC-SVG-20010904/DTD/svg10.dtd">
<!-- Creator: CorelDRAW 2020 (64-Bit) -->
<svg xmlns="http://www.w3.org/2000/svg" xml:space="preserve" width="29.2552mm" height="37.7451mm" version="1.0" style="shape-rendering:geometricPrecision; text-rendering:geometricPrecision; image-rendering:optimizeQuality; fill-rule:evenodd; clip-rule:evenodd"
viewBox="0 0 24405.92 31488.55"
 xmlns:xlink="http://www.w3.org/1999/xlink"
 xmlns:xodm="http://www.corel.com/coreldraw/odm/2003">
 <defs>
  <style type="text/css">
   <![CDATA[
    .fil0 {fill:black}
   ]]>
  </style>
 </defs>
 <g id="Слой_x0020_1">
  <metadata id="CorelCorpID_0Corel-Layer"/>
  <g>
   <path class="fil0" d="M17318.78 29289.99c-39.88,-33.2 -68.16,-58.48 -101.28,-99.19l-407.28 -651.71c-98.02,-193.29 -33.7,-135.9 -186.7,-205.31 -80,202.72 19.27,275.38 153.67,502.8 130.39,220.66 690.34,1189.21 860.6,1246.61 83.42,-206.22 -43.55,-239.76 -103.53,-461.09 263.45,222.08 89.85,322.94 401.44,295.49 49.89,-246.94 -266.54,-610 -483.53,-907.49 -425.05,-582.97 -362.31,-767.84 -664.64,-689.25l531.25 969.14zm-6994.7 -13136.23l-165.68 44.63c38.71,39.29 -125.64,159.42 92.43,49.14 101.78,-51.31 19.02,8.26 73.25,-93.77 170.35,74.83 299.58,202.22 528.66,250.27 -201.89,64.15 -193.63,37.62 -246.1,227.16l203.81 -39.79 -46.55 136.48c228.67,12.26 275.88,-28.7 290.15,-240.01l-243.6 103.53 44.63 -186.87 61.23 10.34c591.98,78.84 1483.95,-254.53 2320.61,-328.77 -529.16,-263.04 -1100.28,-65.15 -1664.65,51.89 -886.13,183.78 -1030.46,-25.94 -1504.72,-412.62 83.09,297.41 138.82,232.09 256.53,428.38zm2504.23 -9906.37l357.47 -351.05 1457.67 -26.61 46.13 -1477.19c99.94,-177.36 302.66,-335.62 450.49,-483.53 182.28,-182.28 390.93,-321.6 496.79,-543.51 -245.35,-178.78 -580.05,-556.19 -841.33,-793.61 -251.77,-228.75 -152.33,-952.7 -152.33,-1545.02 -259.45,-56.98 -553.19,-27.28 -821.64,-26.28 -397.35,1.59 -531.75,72.91 -751.9,-149.16 -206.73,-208.73 -675.15,-745.4 -894.31,-851.43 -231.42,275.63 -562.28,576.63 -834.41,851.43 -337.03,340.2 -895.31,26.45 -1573.46,175.44 0,430.64 130.14,1234.43 -134.15,1508.98 -202.97,210.81 -661.14,688.83 -862.94,829.65 161.51,395.68 735.3,644.95 950.54,1027.04l26.7 1457.67 1477.03 46.13 400.1 375.16 -0.92 8.09c75.75,62.99 140.82,136.73 194.04,217.9 103.36,78 241.35,153.33 286.98,284.31 83.17,-8.93 157.25,-11.68 215.07,-11.85 53.81,-112.04 162.93,-188.12 246.85,-257.03 72.08,-102.11 161.51,-190.87 261.53,-265.54zm-3418.56 -2881.81c154.08,-112.21 552.77,-507.8 700.1,-670.73 233.09,-257.7 50.56,-861.1 134.4,-1244.02 380.75,0 1012.02,99.69 1256.37,-121.22 193.63,-174.69 518.06,-507.47 674.73,-693.67 219.49,105.95 518.65,479.44 708.02,666.23 244.43,241.01 686,148.66 1282.98,148.66 83.59,381.92 -96.86,996 122.05,1256.29 109.45,130.39 581.97,587.06 702.6,671.4 -117.29,230 -490.12,513.81 -676.15,711.53 -206.56,219.07 -122.3,781.6 -122.3,1309.34 -378.5,0 -1055.65,-94.52 -1282.9,96.02 -124.05,104.03 -563.7,582.63 -657.97,712.19 -246.85,-131.23 -518.4,-492.04 -724.46,-686 -219.16,-206.56 -781.6,-122.22 -1309.34,-122.22 0,-1275.22 169.02,-1011.52 -443.9,-1622.85 -73.83,-73.66 -113.37,-108.53 -186.29,-182.37 -36.12,-36.54 -175.44,-226.16 -177.94,-228.58zm9826.79 26034.36l-65.74 54.06 65.74 -54.06zm-6595.52 -26297.65l-763.92 12.01 591.23 483.03 -205.72 703.93c257.95,-124.89 439.4,-331.78 658.05,-392.26 226.41,130.23 336.03,263.37 592.98,397.27l-204.72 -706.52c182.03,-202.97 408.36,-274.13 595.65,-469.59l-755.41 -27.03 -251.11 -724.29 -257.03 723.45zm147.24 1790.03c-769.76,-113.37 -1418.46,-682.83 -1392.1,-1554.44 13.76,-454.24 214.65,-795.37 450.07,-1027.2 349.88,-344.46 480.61,-275.47 965.22,-462.17 -602.07,-407.94 -2189.47,145.41 -2184.55,1537.01 4.59,1322.94 1382.17,1834.58 2000.43,1605.58 121.47,-45.05 93.35,-42.96 160.93,-98.77zm-9989.97 8509.77c0,1435.98 225.66,3279.41 887.72,4385.61 -70.99,-805.38 -278.14,-946.78 -278.14,-2371.75 0,-2271.31 797.45,-4479.96 2017.61,-5958.74 459.25,-556.61 1771.26,-1654.8 2390.27,-2114.97 348.3,-259.03 726.88,-472.93 1093.94,-714.19 -1709.45,329.44 -3163.11,1471.02 -4125.83,2295.08 -1107.96,948.2 -1985.58,2843.01 -1985.58,4478.96zm18190.98 1907.91c0,987.99 -50.81,1635.28 -304.58,2573.8 366.15,-814.14 401.85,-733.97 641.12,-1744.9 257.78,-1089.52 273.55,-1733.22 273.55,-2789.87 0,-1858.61 -1111.79,-3614.1 -1995.59,-4403.05 -949.62,-847.67 -2795.8,-2118.64 -4139.59,-2324.7 370.57,290.65 1324.78,660.8 2166.36,1382.51 1363.65,1169.11 2325.03,2392.11 2869.13,4234.53 240.43,814.39 489.62,2172.62 489.62,3071.68zm-19330.39 -1695.93c0,1097.61 274.3,1850.02 746.06,2776.19 324.6,637.36 724.29,1473.27 1115.55,2030.04 130.39,-490.7 -140.99,-610.75 -421.79,-1502.14 -677.24,-2150.18 -210.65,-4580.91 -830.49,-5094.63 -136.9,31.45 -176.69,88.35 -230.42,205.72 -40.88,147.41 -93.94,275.63 -156.67,385.92 -131.39,380.66 -222.24,827.65 -222.24,1198.89zm19204.75 4832.76l163.26 -226.66c724.21,-1173.36 1724.8,-3058.33 1724.8,-4394.12 0,-533.08 -116.96,-1263.04 -362.65,-1709.03 -65.57,-99.11 -100.44,-172.85 -193.79,-260.28 -446.15,180.95 -405.36,1026.87 -424.05,1545.77 -53.39,1477.61 -144.82,2932.11 -742.64,4291.51 -157.67,358.56 -220.24,311.84 -164.93,752.82zm-17525.17 1215.74c-64.4,-779.93 -172.77,-719.87 -520.82,-1192.05 -246.35,-334.28 -481.86,-656.38 -709.86,-986.16 -147.66,-213.57 -1350.89,-1937.94 -1644.12,-1640.62 -394.26,399.52 998.92,1875.63 1195.72,2087.61 142.74,153.67 238.26,307.67 391.18,458.5 170.19,168.1 280.97,244.85 431.47,415.04 203.97,230.83 626.1,711.44 856.43,857.68zm17717.22 29.7c197.21,-96.69 1036.38,-986.16 1259.46,-1241.69 143.82,-164.6 258.45,-263.87 412.12,-434.39 259.95,-288.56 515.39,-652.04 763.92,-933.52 422.13,-478.1 952.29,-1751.07 -68.41,-969.14 -184.12,141.24 -247.77,246.1 -405.69,441.48 -469.43,580.72 -1011.85,1417.71 -1437.23,1955.13 -590.23,745.56 -384.25,474.27 -524.15,1182.12zm-119.38 -785.02c347.88,-26.95 315.68,-228.17 762.83,-807.46 601.24,-778.76 1738.64,-2219.5 1675.32,-3213.92l-42.3 -331.36 -6.42 0 -31.78 -95.27c-413.53,148.33 -785.86,1393.85 -1208.15,2170.95l-912.91 1632.61c-146.83,239.51 -246.02,313.26 -236.59,644.45zm-17502.15 -53.06c112.04,-272.71 -215.9,-633.27 -485.86,-1097.11 -208.14,-357.39 -416.62,-730.71 -622.18,-1125.23 -204.72,-393.26 -355.97,-750.9 -545.76,-1153.59 -187.04,-397.02 -329.94,-986.24 -688.17,-1069.16 -305.58,1321.02 771.84,2482.37 1521.24,3523l528.41 742.73c128.31,197.97 30.87,183.95 292.32,179.36zm-3398.7 -861.19c-25.19,52.56 -21.61,-43.63 -33.95,130.73 -44.47,628.77 917.75,1123.47 1473.02,1532 324.27,238.43 1597.49,1212.99 1853.94,1315.1 -387.26,-650.21 -15.93,-517.15 -604.41,-977.06l-850.68 -739.31c-284.06,-237.43 -1357.14,-1352.31 -1837.92,-1261.46zm21059.94 2997.68l2755.67 -1958.8c242.85,-196.38 624.43,-514.73 543.84,-992.75 -562.45,-103.7 -1779.19,1186.46 -2272.89,1597.07 -191.46,159.17 -725.37,554.52 -806.29,780.18 -97.27,272.05 -113.37,341.87 -220.32,574.29zm-18032.14 -917.42l245.35 -242.35c-223.49,-164.01 -551.77,-507.14 -753.9,-726.04l-1430.39 -1592.23c-176.53,-214.32 -582.72,-605.24 -969.56,-559.86 66.07,613.92 474.93,1027.29 860.52,1359.23 146.58,126.3 257.61,264.71 405.86,387.76 534.08,443.48 1074.92,956.54 1642.12,1373.5zm18035.23 -199.38c91.52,87.43 155.84,175.86 262.2,252.27 275.05,-368.15 2332.29,-1798.88 2700.44,-2581.4 47.22,-100.36 245.6,-441.56 147.74,-539.5 -237.93,-235.67 -1084.85,711.69 -1228.84,891.39 -419.62,523.74 -1463.68,1507.48 -1881.55,1977.24zm-21059.69 -645.95c34.04,692.42 830.57,983.57 1361.65,1244.94 416.7,205.06 1356.64,791.7 1716.12,885.63l127.22 -218.99c-220.91,-198.8 -507.89,-348.05 -755.99,-538.09 -431.14,-330.44 -2055.16,-1689.92 -2449,-1373.5zm21112.75 2849.27c232.5,-55.23 3553.95,-1199.14 3105.47,-1681.75 -364.48,-392.43 -2088.19,732.88 -2561.79,985.66 -502.3,268.21 -292.57,236.17 -543.68,696.09zm-17912.68 -43.13c-196.05,-502.88 -92.18,-444.32 -538.84,-691.25 -454.24,-251.11 -2177.37,-1367.24 -2548.61,-994.67 -473.85,475.68 2792.29,1601.91 3087.45,1685.92zm17909.42 -834.74l199.05 190.46 2517.24 -1335.37c160.34,-109.45 458.92,-426.3 489.95,-636.61 37.37,-252.94 14.1,-95.52 -31.12,-139.49 -316.68,-307.42 -1510.81,694.76 -1681.5,822.81l-1493.63 1098.2zm-17813.32 1417.71l124.47 -306c-298.58,-183.37 -1146.58,-466.93 -1528,-622.68 -238.26,-97.19 -1555.11,-697.09 -1660.64,-270.71 -76.5,309.09 1087.85,583.97 1405.86,684.41 520.65,164.51 1128.98,388.17 1658.31,514.98zm17609.68 -258.53l139.9 298.83c508.14,-131.39 1132.57,-341.71 1635.03,-515.73 415.04,-143.74 1272.47,-274.22 1406.95,-656.05l7.68 -82.76c-438.31,-230.83 -1202.64,148.66 -1629.52,311.42 -230.75,88.1 -1455.92,554.44 -1560.03,644.29zm-17477.37 761.66c-204.56,-501.21 -393.85,-386.5 -1358.06,-708.77 -253.94,-84.76 -1394.44,-557.52 -1595.07,-326.02 -167.1,192.54 244.02,487.28 369.65,547.35 246.52,117.88 543.51,138.98 818.47,188.37 574.29,103.03 1188.21,238.93 1765.01,299.08zm17455.68 43.46c278.14,-27.7 2350.14,-368.9 2594.83,-488.95 122.97,-60.4 547.93,-386.59 359.64,-564.95 -220.49,-208.81 -1835.08,433.72 -2353.98,583.89 -448.24,129.97 -407.44,60.4 -600.49,470.01zm-145.58 360.73c184.62,112.29 2092.28,-77.67 2446.92,-145.32 289.06,-55.14 473.6,-134.9 461.92,-437.73 -424.46,-59.98 -1141.24,102.78 -1578.89,180.03l-719.28 128.06c-131.39,22.94 -250.52,35.62 -368.65,56.98 -248.77,44.38 -224.16,19.6 -242.01,217.99zm-17157.61 -19.69c-2.75,-207.73 45.55,-163.43 -155.09,-222.99l-1177.62 -202.3c-261.87,-45.97 -1400.36,-304.33 -1556.95,-140.07 -150.83,158.34 238.59,357.89 405.61,394.6 377.91,83.09 2254.21,217.4 2484.04,170.77zm16863.12 781.52c291.9,85.09 2208.16,263.29 2540.02,170.19 193.29,-54.31 152.17,-59.98 202.39,-189.96 -263.54,-326.77 -1912.83,-198.97 -2354.98,-198.97 -420.79,0 -387.26,218.24 -387.42,218.74zm-19314.62 -76.33c155.25,370.57 935.44,225.08 1339.46,195.13 424.46,-31.28 1283.4,-36.29 1423.3,-270.96 -847.09,-154.33 -438.48,-104.95 -1397.86,-106.2 -416.7,-0.5 -1135.07,-71.24 -1364.9,182.03zm19089.04 702.26c188.96,109.2 893.22,320.35 1159.35,398.6 410.53,120.8 1122.56,373.99 1270.55,-37.37 -176.44,-251.69 -879.96,-241.18 -1199.56,-296.41 -371.57,-64.32 -970.14,-295.74 -1230.34,-64.82zm541.92 -1069.67c74.58,159.67 -55.06,117.79 276.8,122.38l1172.36 -9.59c387.34,-12.18 1210.99,64.15 1199.14,-358.14 -274.97,-66.66 -1026.28,33.54 -1353.39,55.56l-1030.87 61.07c-338.29,37.62 -205.06,-12.85 -264.04,128.72zm-17194.4 -52.97c-67.74,-126.8 105.11,-88.85 -566.87,-128.56 -436.56,-25.78 -1836.92,-158.59 -2068.42,-110.29 -84.68,508.14 1598.32,355.3 2310.93,373.32 331.11,8.43 251.94,48.3 324.35,-134.48zm-1883.13 1358.15c46.63,550.68 915.58,229.67 1241.19,132.64 377.33,-112.21 830.32,-256.03 1190.3,-407.86 -298.91,-205.31 -751.4,-21.61 -1170.44,51.64 -409.2,71.33 -927.76,100.53 -1261.04,223.58zm18790.63 -517.06c213.07,188.29 850.93,199.63 1179.95,246.85 366.65,52.56 1016.27,232.67 1269.72,-81 -189.96,-272.88 -899.15,-199.63 -1242.69,-226.5l-1007.85 -95.6c-270.88,30.37 -45.88,-85.93 -199.13,156.25zm1822.23 1212.57c-98.11,-275.3 -727.38,-357.72 -1049.48,-454.58 -313.59,-94.44 -893.39,-323.77 -1196.72,-333.95 5.59,349.55 182.2,312.42 1022.03,614.09 385.17,138.15 909.91,403.36 1224.17,174.44zm-20896.34 -1099.7c166.51,301.75 790.03,162.09 1201.14,103.7 280.64,-39.71 1028.79,-133.15 1245.44,-226.08l-52.56 -178.53c-288.06,-29.37 -910.99,69.83 -1244.94,95.1 -342.29,25.78 -961.13,-19.1 -1149.08,205.81zm641.03 1059.9c290.65,284.64 1294.33,-211.65 1805.63,-397.6 331.53,-120.55 428.8,-55.56 423.88,-384.17 -218.74,-14.27 -916.83,239.26 -1173.7,322.52 -311.92,100.86 -971.39,176.03 -1055.82,459.25zm225.5 440.48c355.8,93.85 838.91,-133.06 1197.39,-265.87 299.49,-111.04 892.06,-257.03 1088.35,-446.32 -271.8,-238.09 -445.82,-66.66 -1152.09,170.19 -560.61,187.87 -1081.26,249.27 -1133.65,542.01zm17522 -652.38c133.98,99.44 871.53,355.55 1086.77,433.56 308.84,112.04 922.25,435.72 1182.54,202.3 -87.68,-209.48 -149.33,-161.09 -523.07,-278.72 -201.47,-63.49 -390.93,-125.97 -595.65,-199.47 -705.52,-253.69 -915.75,-427.88 -1150.59,-157.67zm-16896.15 1354.81c326.11,189.12 1515.82,-610.5 1891.06,-753.07l-65.49 -237.84c-236.76,58.15 -728.54,330.44 -984.74,449.66 -359.73,167.77 -786.27,294.9 -840.83,541.26zm18409.64 75.75c123.13,-16.68 59.98,-1.92 132.98,-52.72 -82.42,-207.89 -209.39,-220.49 -439.31,-325.6l-962.8 -466.42c-539.5,-256.53 -387.09,-209.65 -447.49,-83.34 -70.99,149.08 8.18,140.15 108.87,206.14 393.76,207.89 789.53,430.64 1195.55,612.25 46.88,21.11 232.17,100.53 275.05,107.53 114.46,18.77 45.8,14.43 137.15,2.17zm-18737.66 -476.69c212.31,248.94 854.26,-111.87 1085.77,-221.32 178.53,-84.26 355.22,-177.44 534.67,-260.37 343.29,-158.84 418.29,-128.31 476.6,-313.34 -149.25,-88.35 -108.03,-48.8 -518.9,110.37l-1083.35 400.52c-457.58,168.27 -435.56,87.43 -494.79,284.14zm18632.21 742.14c-67.57,-169.43 -668.98,-437.48 -977.56,-606.33 -849.93,-465.26 -646.7,-463.17 -1013.6,-281.81 191.88,159.59 1578.47,1011.69 1991.17,888.13zm-18065.59 -30.03c327.36,84.09 777.01,-210.15 1047.39,-352.3 246.6,-129.72 726.46,-383.42 940.27,-545.09 -350.21,-174.02 -226.08,-178.03 -996.67,274.72 -200.97,118.13 -326.36,180.2 -518.82,278.22 -217.24,110.62 -399.52,118.05 -472.18,344.46zm286.23 294.9c250.44,189.79 862.19,-240.85 1055.23,-353.47 181.61,-106.2 305.58,-204.81 485.2,-309.59 252.61,-147.41 298.16,-77.17 253.53,-410.2 -259.7,108.79 -1717.79,904.32 -1793.95,1073.25zm17359.33 -1428.31c-358.31,-126.47 -735.05,-274.47 -1084.01,-400.44 -64.65,222.91 410.45,365.9 882.88,599.82l847.09 338.62c139.4,22.44 216.9,18.19 327.19,-60.23 28.95,-204.06 -576.54,-337.78 -973.14,-477.77zm-277.39 1176.03c-431.22,-223.49 -1203.89,-789.44 -1389.35,-701.68 -68.99,261.45 -60.57,116.88 102.28,239.01 316.26,236.92 1431.89,979.82 1699.77,751.57 -82.67,-169.68 -236.01,-197.21 -412.7,-288.9zm-15158.76 1967.98c421.04,-20.11 635.11,-429.97 843.75,-677.32 343.21,-406.94 668.81,-618.34 552.44,-826.32 -21.19,-1.5 -1356.14,1000.42 -1396.19,1503.64zm13370.81 -442.73c-205.31,-180.95 -876.7,-979.73 -1152,-1011.6 -3.67,298.91 93.94,241.51 272.05,459.67 317.51,388.67 775.26,1028.12 1146.17,1028.04 -0.67,-261.87 -117.13,-344.63 -266.21,-476.1zm20.52 -1345.72c-191.12,-145.07 -215.65,-198.22 -486.86,-129.56 201.05,233.42 545.68,464.09 787.36,676.99 231.84,204.64 556.44,547.76 814.05,576.38l64.4 -59.82c-86.01,-355.72 -899.23,-851.76 -1178.95,-1063.99zm983.65 -189.12c-561.44,-331.86 -627.35,-507.22 -913.66,-397.27 7.42,13.6 19.94,29.45 26.95,38.21 328.86,274.38 1400.94,1200.56 1732.05,991.83 -33.2,-257.2 -478.1,-415.7 -845.34,-632.77zm-15948.71 633.11c419.62,55.31 1702.35,-947.03 1756.16,-1060.57 -323.52,-126.89 -374.57,76.83 -965.47,418.71 -422.21,244.27 -785.61,352.72 -790.69,641.87zm15126.23 136.4c-219.07,-171.35 -662.81,-489.45 -800.29,-640.28 -157,224.41 13.76,298.16 193.54,451.41 269.88,230 969.97,970.22 1261.04,989.91 60.9,-291.82 -397.85,-600.65 -654.3,-801.04zm-14132.48 711.61c35.54,17.6 40.46,147.83 278.72,-48.39 251.11,-206.56 1295.58,-1072.67 1238.52,-1283.82 -151,-49.14 -1569.54,1083.68 -1517.24,1332.2zm-304.75 -195.8c215.57,35.79 1485.7,-1124.81 1620.18,-1248.53 -216.74,-115.79 -303,-14.43 -464.76,106.12l-1137.49 885.71c-90.6,127.97 -57.48,186.87 -17.94,256.7zm13190.03 -327.19c-170.27,-174.02 -143.99,-309.92 -394.51,-196.3l924.59 1201.48c134.23,161.43 138.73,279.22 433.97,262.95 -5.17,-381.58 -698.18,-996.34 -964.05,-1268.13zm1823.24 -657.47c-253.28,-184.53 -568.12,-400.27 -843.09,-547.18l-66.24 190.37c123.8,127.72 272.55,199.47 395.93,287.65 331.28,236.76 875.12,709.69 1257.12,765.08l35.29 -28.03c-48.89,-255.53 -375.91,-374.07 -779.02,-667.89zm-15407.2 663.39c427.55,-49.72 1039.47,-576.63 1415.54,-845.84 242.35,-173.69 316.26,-112.87 247.52,-399.85 -243.68,63.57 -666.39,406.11 -880.04,559.86 -364.81,262.37 -714.61,399.27 -783.02,685.83zm1692.51 1232.34c260.62,6.84 447.74,-329.19 705.1,-673.57 159.17,-212.82 515.31,-624.6 610.25,-834.08 -185.2,-8.43 -172.52,5.92 -282.31,102.7l-853.35 949.78c-115.29,144.74 -266.29,216.4 -179.7,455.16zm1299.25 -249.94c88.68,-310.84 435.47,-639.95 493.04,-989.24 -291.07,-2.09 -189.37,112.37 -647.29,741.72 -203.22,279.14 -504.55,629.44 -485.86,898.4 260.37,-13.93 132.48,21.44 347.04,-242.26 42.88,-52.72 50.14,-53.31 77.75,-76.5 -56.65,207.98 -207.89,271.3 -103.36,461.25 198.63,-51.22 64.32,46.22 184.7,-173.69 55.39,-101.61 77.67,-139.82 137.9,-232.59 98.19,-151.16 193.96,-306.83 288.56,-454.5 321.68,-502.55 535.42,-686.83 342.87,-870.53 -84.34,88.43 -95.6,131.48 -160.68,258.53 -86.93,170.02 -196.8,332.7 -306.08,489.37l-168.6 190.04zm-2011.61 -197.05c273.55,15.1 311.84,-116.46 467.84,-274.72 240.09,-243.77 950.7,-906.07 1049.89,-1090.52 -258.95,-46.97 -288.65,90.43 -470.6,238.84 -284.73,232 -1017.36,816.47 -1047.14,1126.39zm12164.25 -880.96c-57.73,-61.15 -34.95,-37.46 -83.84,-72 -159.42,190.37 69.49,357.39 427.97,891.39 162.93,242.68 409.61,726.62 744.56,756.91 -29.62,-268.96 -768.84,-1167.77 -1016.86,-1490.29l-71.83 -86.01zm-11140.55 1546.6c317.01,-32.95 779.77,-894.47 1037.46,-1255.78 160.68,-225.5 250.61,-227.16 112.29,-413.95 -164.18,116.46 -481.69,598.99 -633.94,794.87 -213.48,274.8 -561.28,633.02 -515.81,874.87zm12794.85 -870.36c117.04,135.98 166.35,274.55 411.78,231.09 13.68,-310.5 -491.12,-624.68 -694.26,-797.95l-610.58 -554.35c-74.58,-38.63 13.51,-51.14 -118.05,-11.51 -91.6,27.61 -46.63,27.45 -94.69,68.91 191.63,133.9 551.35,500.88 738.8,688.75 133.48,133.9 242.85,230.75 366.98,375.08zm-3248.71 1926.93c-38.63,-329.11 -514.89,-1342.21 -652.63,-1730.47l-208.73 110.62c65.74,291.15 561.78,1465.18 861.35,1619.85zm-6863.06 -47.97c229.42,-137.82 576.71,-993.42 726.96,-1324.03 113.46,-249.94 178.78,-275.55 -37.87,-368.9 -148.5,70.99 -37.96,-74.91 -155.09,178.53 -115.96,250.27 -581.22,1416.38 -534,1514.4zm-1735.81 -581.22c192.38,-41.13 319.85,-416.87 549.68,-799.54 116.21,-193.29 513.64,-674.32 391.26,-870.45 -199.72,32.29 2.17,-147.99 -304.08,374.82 -83.42,142.32 -157.67,256.7 -239.01,396.43 -125.97,216.32 -443.07,641.53 -397.85,898.73zm316.01 125.05c181.45,-147.16 352.13,-595.65 466.26,-797.29 170.52,-300.99 452.16,-717.36 381,-915 -161.84,63.49 -77.5,-19.35 -195.38,198.88l-354.3 653.38c-122.88,226.33 -387.51,577.8 -369.74,833.57l72.16 26.45zm8527.79 -1526.75c77.25,234.34 676.4,1612.01 841.5,1674.82 114.79,-187.7 -200.47,-712.44 -299.99,-910.83 -341.96,-681.33 -271.38,-783.94 -541.51,-764zm807.21 127.47c-302.5,-514.48 -74.33,-307.5 -283.56,-359.22 -94.19,85.76 -62.57,-0.92 -36.04,143.24 1.67,9.09 43.63,86.84 53.22,104.53l353.72 605.99c118.21,197.05 363.15,712.94 530.08,820.81 19.35,-35.71 196.38,63.49 -121.55,-486.78l-495.87 -828.57zm-9028.08 1510.9c179.28,-102.61 813.05,-1608.17 821.73,-1677.91 -238.51,-25.19 -195.88,73.25 -316.09,317.93 -188.29,383.08 -643.45,1142.08 -505.63,1359.98zm583.05 136.06c166.35,-61.23 169.02,-206.06 241.1,-380.5l534.08 -1228.17c-224.33,-37.46 -252.61,149.16 -516.23,714.19 -94.19,201.72 -409.28,704.1 -258.95,894.47zm-334.61 -31.95c227.08,-65.24 205.47,-148.16 314.34,-398.35 123.05,-282.72 555.61,-1163.35 497.21,-1304.09 -186.29,34.29 -40.79,-92.35 -171.35,147.16 -163.76,300.49 -630.1,1336.12 -640.2,1555.28zm7800.5 -742.81c193.96,431.72 219.16,735.47 430.64,812.47 86.01,-164.01 22.19,-233.59 -80.25,-473.02 -89.35,-208.81 -495.71,-1201.89 -636.28,-1160.43 -132.14,39.13 31.7,257.03 87.6,381.17l198.3 439.81zm206.31 -577.88c-71.74,-149.08 -113.54,-312.34 -243.1,-368.82 -113.12,124.55 141.99,538.42 296.91,898.65 171.35,398.6 246.27,765.5 478.69,824.4 23.28,-243.52 -387.67,-1054.23 -532.5,-1354.23zm-7407.24 1476.69c160.42,-52.39 56.31,73.08 165.68,-156.09l460.17 -1128.48c243.35,-522.74 54.39,-460.67 -51.81,-267.12 -159.42,290.73 -672.73,1357.73 -574.04,1551.69zm7958.17 -1656.97c-211.98,-400.85 -129.72,-308.92 -273.71,-368.82 -135.56,183.2 777.35,1644.71 844.92,1725.88 17.94,-6.84 25.36,-37.04 49.22,-17.02l11.35 -3.42c0.5,-16.6 -2.5,-57.4 -8.01,-148.08l-623.76 -1188.54zm-1062.74 373.74c-210.9,-452.91 -114.96,-321.93 -271.21,-350.21 10.18,115.63 -84.59,-67.99 11.93,182.7 165.43,371.99 329.19,736.64 477.94,1115.8 26.11,66.49 59.48,176.36 87.76,231.5 107.2,207.73 39.46,102.11 164.6,139.74 86.93,-185.45 -180.36,-683.91 -273.3,-878.62 -71.16,-149.16 -128.89,-293.24 -197.72,-440.9zm2682.51 -8637.58l242.76 -203.72 -242.76 203.72zm-12158.49 490.03c-301.33,-180.45 -285.73,-446.4 -646.12,-420.71 -133.4,345.46 491.12,1050.14 964.47,947.78l-263.37 -441.73c206.89,78.84 711.94,618.34 981.82,868.95 636.19,590.56 691.25,2724.55 2073.84,3461.44 -1,-883.3 56.65,-660.97 304.92,-1305.51 -1257.12,59.98 -1545.52,-700.85 -1881.72,-1699.1 -217.57,-646.45 -323.44,-689.67 -764,-1037.55 -447.74,-353.3 -559.36,-422.04 -967.3,-886.63 -2030.55,-2313.35 -1740.06,-4045.66 -2194.22,-5134.34 -27.28,1878.21 860.69,3667.16 1936.44,5073.03 166.43,217.49 302.75,344.29 455.25,574.38zm9112.09 3140.17c100.11,529.74 291.48,102.44 294.74,1309.01 732.63,-326.94 1214.66,-1392.35 1547.44,-2388.35 236.51,-707.85 247.94,-812.97 711.36,-1248.61 281.72,-264.87 516.23,-408.19 771.34,-711.94 113.29,-134.81 132.89,-188.37 282.22,-275.22 -161.51,250.69 -411.2,435.47 -503.55,745.23 292.74,65.65 537.59,-147.41 691.92,-319.01 160.26,-178.44 436.23,-428.38 196.46,-655.38 -192.63,30.2 -142.07,102.61 -367.65,205.39l810.47 -1137.82c707.85,-1049.14 1494.88,-3072.35 1352.47,-4370.51 -14.18,388.76 -233.34,1290.66 -441.06,2012.94 -24.86,131.73 -62.23,260.12 -113.87,382.08 -62.82,202.39 -120.3,372.91 -165.26,488.78 -485.28,1252.86 -1374.33,2415.13 -2373,3192.39 -206.22,160.59 -307.59,244.1 -493.37,406.36 -210.9,184.12 -215.15,322.27 -319.26,635.36 -301.33,908.07 -669.48,1906.16 -1881.38,1729.3zm-2450.84 -7647.91c-476.1,338.2 -920.59,-5.51 -1254.53,331.36 -235.01,237.09 -388.01,743.23 -391.93,1192.72 237.51,-13.43 178.94,78.17 176.03,-198.8 81.26,307.08 -84.34,130.23 145.66,208.48 68.07,-78.17 74,-189.21 79.09,-284.89 32.54,238.84 -53.47,110.54 79.84,288.4 295.07,-36.71 101.03,18.77 212.06,-201.89 33.45,145.24 -107.53,148.91 158.84,183.62 214.4,-243.6 5.26,-95.85 53.06,-266.79l162.76 262.95c-0.67,-208.31 -39.79,-203.14 49.39,-352.13 193.46,219.91 63.07,154.84 63.24,155.59 0.25,2.34 -11.68,143.74 -7.09,213.65l152.75 -31.95c-37.29,-1509.73 1471.19,-728.46 1364.32,-1540.26 -226.16,64.15 -132.56,149.58 -459.42,158.92 -345.71,10.01 -238.43,-98.11 -584.05,-118.96 165.6,-224.49 294.32,-133.81 341.12,-486.95 -282.47,39.54 -497.29,192.63 -493.79,470.76l152.67 16.18zm-1828.32 2924.52l-72.08 851.84c12.43,329.36 -55.64,134.23 98.61,203.56 97.52,-178.03 22.94,-43.55 50.56,-223.24 12.18,-79.25 17.52,-191.96 68.49,-258.62 10.51,256.53 -81.59,394.6 39.71,562.95 138.9,-44.05 101.86,59.56 129.89,-189.29 7.17,-63.99 -21.52,-296.91 -23.61,-390.18l92.77 19.35c-0.17,288.73 -83.42,501.05 172.27,560.19 197.21,-226.83 -23.94,-353.05 92.35,-593.15 168.68,266.62 -109.7,436.23 172.52,569.79l37.46 -81.92c55.31,-203.64 28.95,-241.51 28.95,-467.76 150.83,266.62 -143.66,488.2 198.55,576.38 171.85,-248.85 -42.13,-404.69 106.03,-604.83 80.34,158.92 12.1,195.05 47.3,401.35l58.81 171.85c341.12,-101.36 3.5,-351.38 158.92,-619.51 163.01,252.27 -88.01,465.59 211.9,584.64 301.58,-164.01 -76.17,-387.17 95.69,-649.21 48.22,214.65 1.5,421.54 116.29,626.1 323.94,-25.86 189.71,-173.27 112.71,-487.28 -49.3,-201.8 -75.92,-419.87 -165.76,-619.34 -276.8,-2.84 -573.37,57.15 -853.1,71.08 -338.29,16.85 -639.78,-6.84 -975.23,-14.77zm431.47 -203.89l50.39 -501.46c189.37,184.62 15.35,140.74 71.49,545.01 192.21,-22.19 167.1,148.08 154.67,-531.5 223.99,270.46 -130.48,447.32 232.92,533l31.53 -376.74c17.94,97.61 5.42,108.53 19.77,200.22 18.94,121.38 -20.69,193.54 142.24,180.45 5.42,-138.23 -16.02,-192.21 -17.44,-288.06 -5.51,-376.74 -18.35,-128.47 75.42,-230.75l56.23 519.98c274.22,-1.75 51.56,15.35 142.66,-71.41l-54.14 -479.61c92.02,91.52 23.03,-25.03 68.07,99.53 88.43,244.18 -45.22,210.31 105.03,421.63 318.76,-30.45 211.98,-128.14 147.91,-454.24 -39.79,-202.47 -70.66,-412.62 -121.13,-620.84 -228.42,-11.43 -470.43,25.69 -715.28,27.36 -787.11,5.76 -680.16,-200.05 -753.65,576.54 -28.11,296.24 -77.25,382.25 14.27,515.98 338.45,-51.56 36.54,-275.05 209.14,-556.27 70.83,160.93 -38.21,298.07 19.6,556.27 246.69,23.11 52.14,17.52 120.3,-65.07zm2132.41 -3405.88c-267.46,-396.26 -957.79,-482.19 -1579.64,-419.62 -312.42,31.37 -636.61,86.76 -960.13,67.07 -430.47,-26.2 -486.7,-155.84 -743.23,-297.49 199.8,544.01 669.65,827.57 1410.29,620.93 918,-256.2 1039.47,-104.95 1872.71,29.12zm6586.17 5398.63c206.73,160.93 260.45,203.14 780.27,-324.02 146.66,-148.58 602.24,-493.87 381.5,-844.25 -223.33,-354.14 -675.74,48.89 -761.91,250.11 -71.66,167.43 -26.7,332.11 -113.29,524.99 -73.58,163.09 -201.3,251.02 -286.56,393.18zm-15682.33 89.6l246.18 -126.22c-381.25,-375.74 -235.92,-328.86 -387.67,-847.42 -39.38,-134.31 -419.62,-616.42 -717.53,-394.35 -543.26,405.11 693.76,1233.01 859.02,1367.99zm15581.31 904.32c126.55,91.93 152.83,258.28 811.3,-168.77 158.01,-102.53 583.22,-436.81 450.66,-761.66 -145.07,-355.22 -723.04,27.45 -822.23,174.27 -190.87,282.64 95.77,256.2 -439.73,756.16zm-15239.68 -52.97c-523.32,-462.42 -205.14,-234.09 -403.19,-689.42 -53.64,-123.47 -380,-418.46 -789.69,-344.63 -338.79,506.8 373.99,894.22 722.45,1058.32 331.86,156.59 286.81,151.83 470.43,-24.28zm8512.69 4683.52c65.07,-214.48 -83.51,-1154.26 -172.1,-1378.33 -553.69,-52.39 -449.57,320.68 -409.11,784.69 42.63,490.28 16.43,757.32 581.22,593.65zm-8867.24 -6626.13l227.33 -123.05c-84.59,-274.97 -520.15,-1498.38 -915,-1208.9 -449.91,329.78 575.96,1265.29 687.67,1331.95zm7111.33 6712.56c225.33,66.49 179.45,66.49 404.69,0 69.91,-278.72 -3.34,-629.19 -27.03,-903.23 -30.95,-359.39 -85.59,-499.88 -440.23,-519.98 -173.19,298.58 -73.83,1152.42 62.57,1423.22zm8612.13 -6823.85c149,108.95 77,26.61 178.69,159.17 128.39,-68.24 1161.68,-945.03 742.14,-1331.78 -367.9,-339.37 -839,897.39 -920.84,1172.61zm-8005.72 6790.48c399.85,106.78 524.15,110.87 477.35,-371.49 -19.85,-204.97 -16.18,-736.22 -146.41,-851.34 -29.37,-26.2 -527.16,-343.96 -448.99,347.88 30.62,271.21 38.71,650.79 118.05,874.95zm-1047.06 -2864.95c272.3,-9.43 168.68,52.72 330.28,-322.6 17.35,-40.13 40.13,-79.59 60.82,-118.05 -2.09,353.8 -148.5,520.32 255.44,483.69 117.38,-209.81 152.75,-888.38 -3.5,-1103.54 -289.9,25.19 -215.48,265.71 -225.41,592.73 -60.15,-124.64 -31.37,-143.82 -58.06,-378 -21.86,-191.38 -11.01,-183.12 -140.57,-295.82 -146.24,87.43 -67.99,-53.14 -150.83,192.04 -15.02,44.47 -42.88,253.69 -51.56,315.59 -32.12,226.75 -64.65,434.06 -16.6,633.94zm1385.34 3159.19c-232.34,-96.86 -507.14,-255.53 -581.88,72.25 -32.62,143.07 1.67,723.62 47.89,848.51 85.26,230.58 522.07,321.77 566.12,-60.48 30.87,-268.29 3.75,-616 -32.12,-860.27zm-1640.29 -1824.99c-123.38,237.01 -61.98,1488.87 427.97,1471.35 0,-0.08 272.21,-1588.9 -427.97,-1471.35zm1878.46 -171.94c0,-1602.25 -479.11,-989.83 -515.9,-638.95 -136.4,1300.25 515.9,1070.17 515.9,638.95zm-6236.96 -2978.24c-596.98,-662.81 93.18,-253.28 -425.8,-614.17 -171.77,-119.46 -525.41,-465.42 -653.88,-90.77 -131.89,384.25 479.61,678.16 763.25,785.11 239.93,90.43 221.91,68.82 316.43,-80.17zm11837.56 103.45c304.58,174.69 1317.6,-401.85 1045.22,-829.07 -184.95,-289.82 -462.67,45.05 -658.88,178.03 -180.03,121.88 -108.79,89.68 -197.47,327.61 -77.83,208.89 -133.31,161.76 -188.87,323.44zm1013.85 -1070c210.48,93.69 102.7,137.65 362.81,37.62 286.06,-109.7 762.41,-493.29 529.16,-813.39 -296.07,-406.28 -916.75,505.97 -891.97,775.76zm-13858.43 -46.3c-21.36,-266.29 -572.54,-1171.28 -893.31,-778.18 -215.65,264.37 97.94,540.84 212.73,637.78 269.29,227.25 361.98,250.02 680.57,140.4zm4786.3 5220.19c1,-250.19 -55.89,-630.27 -76.92,-907.99 -14.18,-186.79 -123.13,-665.31 -403.61,-424.96 -138.57,118.8 -118.21,1348.8 480.52,1332.95zm8032 -3401.71c96.52,69.24 158.34,79.34 361.81,33.37 463.84,-104.45 737.14,-302.25 569.29,-788.94 -211.73,-38.63 -461.09,65.4 -636.69,183.28 -218.49,146.66 -83.34,50.97 -176.78,299.24 -69.58,185.29 -126.64,148.41 -117.63,273.05zm-5604.6 4027.14c-73.33,326.44 -32.37,866.28 39.96,1176.36 351.8,22.27 408.86,-48.22 423.71,-378.91 11.76,-262.95 18.27,-476.52 -62.4,-717.78 -212.06,-88.26 -205.31,-123.38 -401.27,-79.67zm-1414.21 159.34c-88.26,793.2 402.86,1323.02 529.33,949.7 1.84,-5.67 -32.37,-694.26 -40.04,-776.43 -26.28,-276.13 -183.28,-359.98 -466.67,-408.53l-22.61 235.26zm-4769.53 -4252.8l-239.68 -501.88c-86.76,-89.26 -461.25,-238.68 -601.91,-253.86 -157.84,42.13 -377.74,553.94 383.17,788.94 362.06,111.96 378.66,49.3 458.42,-33.2zm13557.02 159.09c853.85,-55.23 1256.2,-529.16 921.34,-809.3 -153.92,-128.56 -543.93,54.98 -633.77,158.09 -89.76,102.86 -70.16,211.15 -123.8,353.47 -52.14,138.48 -105.11,176.11 -163.76,297.74zm-15322.27 -49.72c-287.48,-463.34 -187.2,-489.87 -276.8,-616.59 -75.5,-107.12 -517.98,-325.1 -677.65,-171.94 -431.47,413.95 504.88,793.2 954.46,788.53zm6905.69 1970.48c0,709.52 451.16,462.17 451.16,212.15 0,-403.11 92.35,-1076.26 -248.6,-1044.64 -248.85,23.03 -202.55,590.31 -202.55,832.49zm2000.85 269.88c-441.81,-63.9 -316.68,377.16 -287.31,711.11 33.54,383.58 -50.47,694.42 333.95,652.38 135.98,-246.02 114.12,-1072.67 -46.63,-1363.49zm-9138.79 -5877.57l274.88 -28.28c-79.42,-231.75 -225.66,-508.22 -336.78,-745.56 -115.13,-246.1 -177.53,-617.59 -444.82,-670.4 -343.62,399.77 370.9,1076.09 506.72,1444.24zm15514.9 26.7l255.78 9.76c143.41,-340.95 926.93,-1155.26 469.76,-1454.25 -210.81,89.85 -713.53,1374.25 -725.54,1444.49zm-13838.49 5157.12c-106.45,-312.84 -154.08,59.65 -390.93,-513.64 -722.54,-56.73 -719.87,742.06 -47.13,723.54 245.93,-6.76 344.54,-30.37 438.06,-209.9zm12400.84 10.18c116.21,177.44 69.16,181.78 340.45,227.66 837,141.65 764.17,-816.47 73.83,-698.43 -226.83,455.75 -172.27,195.55 -414.28,470.76zm-5627.38 682.33c431.55,47.89 357.14,-149.91 296.99,-507.97 -32.03,-189.96 -60.4,-564.2 -198.38,-661.55 -477.35,-336.95 -204.97,1015.44 -98.61,1169.52zm685.91 1596.07c-348.46,-26.45 -351.05,145.99 -366.32,463.84 -9.68,200.47 -83.59,617.01 87.09,719.95 473.27,285.64 336.87,-1010.1 279.22,-1183.79zm-8115.09 -3898.08c67.07,-105.2 6.42,-41.04 -83.17,-198.47 -104.36,-183.03 -54.73,-208.73 -109.04,-331.28 -88.6,-199.38 -477.02,-223.41 -591.14,-27.53 -178.86,306.83 170.6,600.99 511.81,654.71 277.72,43.63 203.05,31.95 271.55,-97.44zm13702.43 52.81c296.16,264.45 1091.69,-126.47 799.2,-583.8 -111.29,-174.02 -469.51,-146.16 -554.69,8.43 -44.38,80.84 -30.95,184.53 -105.87,330.53 -60.82,118.13 -97.27,101.03 -138.65,244.85zm-4390.78 6934.8c-113.87,-117.04 -109.45,-114.96 -196.71,-224.41l-225.16 -191.96c-98.11,417.79 54.56,356.89 692.17,994.17 441.9,441.73 559.86,757.58 974.14,735.05l-191.96 -299.33c-9.51,-6.51 -23.78,-13.26 -34.04,-19.02 -120.63,-66.49 37.29,20.94 -76.83,-29.87 -299.33,-133.31 -690.09,-706.27 -941.61,-964.63zm4061.42 -6120.17c235.09,376.83 774.68,50.89 834.08,-7.17 241.85,-236.42 74.25,-650.04 -418.37,-559.53 -156.25,250.27 56.81,174.86 -288.15,437.06 -12.35,9.34 -48.22,35.71 -58.65,45.3 -100.03,92.35 -3.34,-54.64 -68.91,84.34zm385.75 -1718.87c246.6,202.64 328.27,93.18 586.81,-54.89 237.43,-135.98 370.9,-223.41 281.56,-604.74 -697.18,-398.02 -448.74,355.8 -868.36,659.64zm-13397.93 1702.52c-24.94,-171.35 -79,-90.68 -243.6,-248.85 -196.38,-188.96 -55.14,-161.84 -177.03,-347.8 -382.58,-57.23 -670.4,219.66 -434.64,531.08 153.5,202.64 651.29,324.44 855.26,65.57zm8081.47 2706.36c351.47,-0.75 232.5,-340.62 232.75,-676.65 0.17,-240.68 61.98,-658.63 -154.33,-724.54 -461.17,-140.57 -86.01,1382.09 -78.42,1401.19zm-2099.87 2291.83c79.67,770.84 626.68,709.86 556.77,57.48 -75,-697.51 -624.85,-718.28 -556.77,-57.48zm8108.58 -5538.45l4.17 507.47c535.5,63.9 959.55,98.69 765,-587.14 -268.54,-42.63 -507.39,39.79 -769.17,79.67zm-9247.74 3365.75c99.78,-207.14 -102.86,-1177.95 -145.58,-1447.91l-227.08 28.03c-83.59,224.74 10.85,997.75 90.43,1224.83 69.33,197.05 68.99,207.98 282.22,195.05zm616.42 -1298.41c190.71,-160.68 183.45,-374.24 209.31,-698.01 24.53,-304.92 72.75,-546.93 -282.72,-531.25 -60.48,85.43 -411.62,1146.75 73.41,1229.26zm-5879.49 -3229.6c-15.35,-207.56 -97.02,-155.09 -202.97,-340.62 -99.61,-174.02 -62.23,-285.14 -131.39,-431.8 -1150.59,-167.18 -187.7,1086.35 334.36,772.42zm5324.13 5471.63c40.88,285.73 85.01,422.96 399.6,417.7 44.47,-246.18 69.99,-840.25 -162.34,-1080.59 -251.36,-259.78 -263.87,-76.58 -265.29,-75.92 -70.16,218.99 -6.67,495.79 28.03,738.8zm-6596.85 -3808.57l547.43 -13.85c47.47,-123.22 105.62,-417.37 56.81,-493.37 -34.2,-53.31 -1311.18,-464.67 -604.24,507.22zm8443.7 5460.28c637.28,57.9 450.91,-797.54 242.18,-884.3 -599.57,-249.02 -362.14,714.44 -242.18,884.3zm1993.67 -4510.5c-24.86,143.66 101.61,334.45 101.03,640.86 -0.33,280.64 -40.54,583.64 81,784.27 305.33,-75.83 238.01,-318.43 217.24,-836.16 -6.01,-146.74 -4.42,-360.14 -63.4,-475.18 -82.42,-160.76 -162.76,-146.33 -212.82,-147.08 -237.09,-3.67 -24.28,-14.18 -123.05,33.29zm-8611.63 1067.08c-88.18,-376.91 59.9,-169.94 -223.74,-311.26 -249.52,-124.22 -130.31,-79.09 -299.91,-245.52 -145.83,29.37 -254.53,3.17 -326.36,151.83 -181.03,374.91 338.62,780.43 850.01,404.94zm8532.79 533.66c104.95,-223.08 72.41,-496.71 72.41,-798.79 0,-863.27 -457.08,-754.49 -365.82,-302.58 179.03,888.22 -145.49,1048.31 293.4,1101.37zm-2669.99 -2812.65l26.03 508.39c516.06,215.57 418.04,-386 389.09,-775.85 -23.94,-322.18 -415.12,-637.03 -415.12,267.46zm6919.2 2073.34l-19.94 291.07c479.52,136.23 984.91,149.58 835.16,-496.37 -101.36,-54.14 -210.73,-88.18 -361.73,-106.2 -160.93,240.93 -168.27,214.23 -453.49,311.51zm793.2 -1437.32c168.6,229.25 1,404.77 460.08,384.59 333.36,-14.77 455.33,-170.35 432.89,-510.72 -373.32,-166.93 -629.35,-106.2 -892.97,126.14zm-8736.27 -53.31c-205.97,140.9 -503.47,1265.13 7.76,1056.32 198.47,-81.17 167.6,-426.21 197.63,-628.52 28.28,-191.29 74.91,-619.67 -205.39,-427.8zm-5675.18 0.25c-158.59,-93.44 -172.02,-92.02 -260.2,-225.33 -1222.58,80.59 -466.09,705.44 -23.78,612.42 248.44,-52.06 186.12,-149.91 283.98,-387.09zm5458.78 2882.89c-40.21,-216.24 -165.68,-346.71 -422.79,-319.35 -23.44,220.49 38.96,518.23 86.84,720.95 61.65,260.87 88.68,411.53 357.56,412.53 38.96,-223.33 20.27,-588.97 -21.61,-814.14zm4714.97 -1080.84l49.64 -901.15c0,-730.96 -574.63,-764.42 -358.64,-244.52 159.26,383.67 55.56,723.29 103.45,974.98 43.63,228.42 13.26,142.24 205.56,170.69zm-3342.39 -3868.88c0,206.73 -69.91,721.62 121.88,827.23 428.38,235.92 306.83,-744.31 137.07,-1029.79 -186.2,-9.51 -258.95,18.19 -258.95,202.55zm5077.53 3994.52c-106.2,-27.2 -50.14,-38.46 -161.51,-29.2 -157.59,12.93 -86.76,-3.84 -172.77,62.48 -12.43,452.33 583.97,536 364.65,-22.94 474.93,207.98 673.32,-59.48 343.54,-357.39 -320.6,-289.65 -478.27,24.28 -373.91,347.04zm1132.9 -2377.84c456.41,49.05 1012.77,3.67 818.73,-547.1 -595.32,-76.67 -656.8,84.51 -818.73,547.1zm-7972.35 1391.18c271.63,0 243.6,-279.39 309.75,-525.82 74.58,-277.3 186.87,-424.63 -11.51,-600.99 -221.49,29.2 -172.1,-4.5 -326.36,528.49 -52.39,180.95 -223.66,598.32 28.11,598.32zm-4518.25 -1556.95c377.83,147.66 467.34,150.58 845.25,126.64l-196.05 -454.91c-465.17,-151.08 -760.24,-271.71 -649.21,328.27zm12286.8 880.88c184.7,94.27 663.47,120.21 754.74,-120.88 159.51,-421.79 -197.47,-471.76 -520.9,-402.61 -219.16,583.47 -195.05,135.06 -233.84,523.49zm-11995.48 -115.54c253.19,158.09 383.17,131.98 755.57,128.89 -25.36,-292.15 -29.45,-173.36 -136.73,-329.53l-154.84 -265.37c-413.12,-38.21 -554.02,30.7 -464.01,466.01zm1249.36 -1675.99c-254.03,-1112.04 -1465.26,-1195.3 -602.66,-353.05 118.55,115.88 390.76,286.9 602.66,353.05zm-1702.77 2421.05c-225.41,-249.02 10.93,139.23 -460.5,-431.05 -1062.66,165.93 49.72,997.34 460.5,431.05zm11940.59 -2371.67c1352.22,-622.68 914.08,-1348.22 317.68,-643.62 -128.56,151.92 -267.29,369.82 -317.68,643.62zm1709.11 2428.31c203.05,246.69 962.88,316.01 851.68,-338.37l-386.09 -115.21c-103.11,90.85 -117.04,163.51 -209.31,248.02 -162.84,149.25 -158.59,45.13 -256.28,205.56zm-6844.29 -1853.35c-18.77,160.76 53.56,665.56 107.03,786.69 419.29,56.31 309,-167.6 271.88,-477.85 -44.63,-372.32 39.54,-554.6 -331.44,-566.28l-47.47 257.45zm6903.94 -2791.21c124.39,81.51 129.22,104.28 245.43,149.33 61.15,-80.17 821.56,-747.06 504.47,-926.51 -221.32,-125.3 -632.11,604.91 -749.9,777.18zm-14017.94 146.33c11.01,-7.93 26.28,-35.87 31.37,-25.78 6.76,12.93 40.13,-33.04 64.49,-48.14 46.88,-28.36 90.1,-46.3 139.99,-68.74 -79,-194.46 -535.75,-932.1 -735.13,-828.15 -305,159.01 443.07,889.97 499.29,970.81zm6999.79 9738.36c41.8,-138.82 66.57,-439.56 36.96,-619.67 -35.29,-213.9 -423.54,-519.15 -431.47,40.46 -7.17,521.23 7.51,623.18 394.51,579.21zm211.15 -948.12c-46.97,168.27 -200.38,1176.36 233,929.26 147.58,-84.34 115.71,-396.1 106.45,-612.33 -11.76,-276.3 -56.56,-338.54 -339.45,-316.93zm1650.3 -4444.42c29.62,-274.8 -35.96,-400.69 -105.45,-643.62 -77.33,-270.04 -79.17,-413.2 -365.65,-407.19 -79.92,192.38 8.76,386.09 63.49,600.9 84.01,330.28 52.81,463.76 407.61,449.91zm-7584.43 -1545.43c245.68,188.62 507.47,152.25 863.52,173.77 -43.38,-276.22 -76.92,-569.95 -815.39,-497.38l-48.14 323.6zm11136.46 -261.87c0.92,-0.75 26.2,-27.11 91.1,-61.73l351.3 -176.69c168.27,-112.04 244.43,-180.95 125.97,-442.65 -228.42,-31.37 -371.49,101.69 -526.41,199.38 -249.94,157.42 -224.08,171.44 -249.27,486.86l207.31 -5.17c-291.82,213.23 -220.91,65.24 -292.9,452.99 353.97,44.63 647.87,16.77 851.34,-186.45l-17.69 -272.96c-264.04,-68.66 -289.57,15.02 -540.76,6.42zm-11190.61 -402.35c159.17,126.89 510.06,341.54 834.91,354.72l-37.29 -322.35c-133.56,-100.61 -331.28,-224.33 -454.41,-292.4 -305.67,-169.18 -345.21,-63.57 -343.21,260.03zm6366.02 238.01c-65.99,62.9 -28.7,3 -46.05,121.8 -12.68,87.01 -7.51,105.28 1.25,191.63 20.02,199.3 84.34,927.68 367.57,660.47 113.87,-107.37 -8.26,-1274.47 -322.77,-973.89zm864.86 2146.92c8.84,-284.81 -80.34,-1079.59 -391.01,-1139.82 -149.5,210.15 -33.2,417.54 21.61,672.82 77.25,359.98 -2,463.09 369.4,467.01zm4010.7 -55.89c231.92,65.57 360.39,155.34 603.32,59.15 94.27,-101.78 160.42,-219.24 115.38,-376.16 -54.14,-188.46 -191.21,-158.67 -403.52,-174.27 -378.75,375.08 -285.06,191.12 -315.18,491.29zm-11288.21 29.62c288.65,62.74 355.72,22.52 609.83,-69.74 -1.08,-273.21 79.84,-80.84 -294.82,-487.36 -449.66,23.61 -561.61,189.62 -315.01,557.11zm-24.28 1172.28c-60.23,-164.68 -94.44,-295.99 -336.12,-282.14 -528.41,30.28 -600.4,667.06 -78.92,552.85 134.98,-29.62 342.79,-176.94 415.04,-270.71zm3690.6 621.18c-69.24,-294.65 -78.17,-382.58 -387.26,-406.36 -9.18,325.52 207.89,1076.51 454.5,1136.82 77,-257.86 -9.18,-483.28 -67.24,-730.46zm2319.44 -6159.54c-193.88,127.81 -155,247.85 -144.66,502.21 9.01,217.74 -22.11,467.68 197.97,468.51 243.6,0.75 168.6,-266.04 152.92,-468.43 -21.11,-274.3 35.21,-416.29 -206.22,-502.3zm5951.73 5591.26c216.9,199.13 526.57,393.68 772.42,119.71 -21.52,-457.41 -659.22,-594.98 -772.42,-119.71zm-6959.16 2967.57c-58.4,200.47 -80.09,383.58 -21.61,607.24 40.46,154.59 97.94,260.78 239.26,282.47 236.51,36.21 28.95,14.77 120.8,-24.28 29.03,-88.68 159.51,-847.09 -338.45,-865.44zm-788.28 -5408.39c355.8,36.37 344.38,-28.95 367.73,-366.73 18.02,-262.87 84.93,-474.77 -55.98,-640.7 -218.15,66.57 -158.26,149.58 -221.91,415.04 -60.98,253.69 -125.64,309.17 -89.85,592.4zm6724.24 1665.98c103.28,52.72 271.05,186.37 426.63,186.04 450.91,-1.08 269.21,-611.75 -151.33,-562.45 -206.47,24.28 -248.19,130.64 -275.3,376.41zm-5899.59 2844.68c-107.2,207.31 -276.3,942.19 298.83,805.46 62.32,-251.27 20.77,-632.69 -112.46,-803.12l-186.37 -2.34zm356.05 2407.54c39.63,305.17 50.56,481.27 380.08,428.47 54.14,-209.81 29.45,-570.96 -39.79,-762.33 -360.31,-134.06 -388.26,-35.87 -340.29,333.86zm-5019.55 -5146.19c373.32,113.37 845.59,-172.44 541.42,-439.4 -1.67,-1.59 -110.95,-70.16 -131.23,-76.5 -150.75,-46.97 -556.77,10.34 -410.2,515.9zm4421.9 -3951.55l183.12 -5.92c113.04,-189.54 147.74,-736.14 22.61,-928.76 -277.3,-25.61 -244.27,62.15 -260.7,358.31 -12.85,229.08 -22.02,403.77 54.98,576.38zm-4474.96 2358.32l765.75 23.28c-19.35,-148.66 -71.91,-285.56 -132.64,-384.75 -724.21,-37.62 -738.64,-48.39 -633.11,361.48zm5839.61 -1189.13c315.09,-1.25 232.75,-130.81 201.39,-429.72 -21.94,-208.89 -39.21,-455.58 -98.19,-611 -336.78,-20.44 -247.52,125.39 -207.89,414.62 28.61,208.48 53.14,450.32 104.7,626.1zm1772.76 4826.42c90.77,-173.77 84.76,-374.32 106.37,-617.51 24.78,-278.47 97.69,-382.08 -123.38,-517.56 -167.43,117.13 -159.01,217.9 -159.01,448.91 0,554.27 -40.46,610.08 176.03,686.16zm-1550.94 -6052.01l211.31 -29.87c65.99,-171.85 16.02,-354.72 -1.5,-540.67 -27.03,-285.23 14.93,-369.49 -212.82,-400.52 -192.29,223.74 -101.86,752.07 3,971.06zm4554.79 2477.62l684.33 -20.27c115.46,-346.21 89.1,-377.58 -313.42,-377.58 -389.76,0 -492.04,171.77 -370.9,397.85zm-7585.68 765.33c279.64,-10.34 248.85,-127.97 339.29,-407.44 53.39,-164.76 171.19,-412.95 174.86,-573.62 -331.78,-7.59 -636.28,682.58 -514.14,981.07zm2815.98 6304.95c121.97,-175.36 180.61,-891.22 -195.21,-769 -150.75,48.8 -139.99,318.6 -110.7,499.71 37.12,229.25 77.42,288.31 305.92,269.29zm-6870.07 -6179.65c-52.56,583.72 410.28,482.03 748.98,275.38 -225.75,-155.42 -238.59,-116.88 -330.94,-394.85 -174.02,21.27 -321.77,40.71 -418.04,119.46zm5916.11 -3293.75l159.01 8.18c113.37,-187.12 66.41,-312.84 66.41,-705.69 0,-352.55 -264.04,-343.04 -299.33,-59.65 -26.95,215.82 -26.28,597.82 73.91,757.16zm-264.96 1066.66c254.86,22.11 196.05,-51.97 219.16,-171.27 10.43,-53.47 8.09,-255.03 8.59,-321.6 2.5,-322.02 59.06,-399.69 -227.75,-433.56 -99.94,138.65 -81.42,143.74 -81.67,433.89 -0.25,367.82 -33.45,327.77 81.67,492.54zm6962.08 2541.69c292.07,173.52 791.11,309.59 749.15,-251.61 -109.2,-92.6 -202.47,-121.22 -397.77,-127.47 -178.28,268.13 -90.01,202.39 -351.38,379.08zm-11486.51 1374.66c-66.99,-151.33 -128.72,-277.72 -345.54,-265.79 -135.81,7.42 -305.92,115.79 -314.51,260.28 -18.69,307.08 444.15,384.17 660.05,5.51zm3356.66 -3083.53l201.3 164.93c146.83,-131.64 238.51,-435.06 268.79,-654.21 10.51,-76.58 25.53,-208.48 -47.22,-259.87 -99.53,-69.91 -430.39,479.52 -422.88,749.15zm8415.33 3073.93c-126.8,-166.18 -349.38,-307.33 -550.85,-140.65 -381.25,315.26 472.51,755.99 550.85,140.65zm-4968.83 -4100.47c328.11,11.76 166.43,-267.88 93.6,-497.46 -88.6,-279.64 -45.47,-490.2 -349.05,-477.02 -32.87,176.44 148.5,847.01 255.44,974.48zm665.64 1016.27c-14.1,98.69 154.42,911.74 487.28,947.87 103.03,-224.33 -21.11,-324.35 -117.38,-539.75 -43.71,-98.02 -65.24,-200.8 -123.05,-304.67 -152.42,-273.38 -246.1,-103.61 -246.85,-103.45zm-2639.79 -1526.66c4.42,288.31 -38.71,597.82 62.65,758.74l195.63 26.28c173.61,-872.37 -260.2,-1272.22 -258.28,-785.02zm-1947.45 4147.18c-8.84,-255.28 -76.83,-415.87 -102.44,-651.21 -27.45,-251.61 44.97,-519.57 -56.65,-690.75 -310.25,126.72 -147.41,799.04 -55.56,1066.24 56.73,165.1 79.75,199.13 214.65,275.72zm4716.55 -1475.69c49.55,-104.7 54.14,-119.13 4.09,-287.56 -153.08,-515.81 -148.24,-734.47 -464.76,-681.58 14.77,211.23 78.92,319.85 146.24,519.82 85.68,254.53 78.17,388.26 314.43,449.32zm-582.88 3052.32c255.11,-3.17 211.98,-238.18 211.98,-689 0,-334.03 35.12,-222.74 -106.12,-339.62 -278.8,86.01 -179.45,224.08 -105.87,1028.62zm-424.13 -5081.03c123.88,-164.26 7.34,-375.66 -97.94,-808.63 -60.07,-247.44 -18.35,-157.84 -166.93,-230.17 -49.22,69.16 -88.01,53.81 -64.99,287.65l125.39 576.79c76.42,244.93 10.43,149.66 204.47,174.36zm-5771.54 3333.71c0.5,-1 93.69,-72.58 73.75,-230 -19.85,-159.67 -85.43,-183.7 -184.78,-257.2 -418.96,99.69 -454.58,507.55 -240.43,563.86 135.48,35.71 188.79,-22.36 351.47,-76.67 -82.51,186.29 -87.6,67.82 -45.05,306.58 334.2,137.23 435.56,-9.51 411.11,-374.66 -217.74,14.02 -189.21,-5.42 -366.07,68.07zm-687.67 -1754.33l21.27 286.48c283.14,68.07 410.61,-34.45 674.65,-100.53l-67.91 -305.58c-235.17,6.01 -472.93,26.78 -628.02,119.63zm6512.18 -466.51c126.89,-128.47 115.88,-116.79 17.85,-502.3 -59.98,-235.17 -56.65,-410.53 -282.81,-472.01 -112.87,184.78 -22.36,398.85 92.85,769.25 71.74,230.33 35.46,153.5 172.1,205.06zm3713.04 417.29l-88.35 272.13c351.38,82.92 705.18,331.69 711.61,-169.85 -140.74,-95.19 -417.29,-176.78 -623.26,-102.28zm-5773.46 6001.54c-93.27,259.37 -14.1,910.41 269.04,908.41 75.42,-181.2 38.46,-349.8 0.25,-562.36 -38.96,-217.74 -61.15,-310.84 -269.29,-346.04zm5490.81 -5305.7c228.08,90.93 379.25,275.3 627.52,129.06l36.96 -254.78c-143.49,-84.84 -325.02,-157.34 -541.01,-196.38l-123.47 322.1zm-9047.44 -46.22c-44.97,-92.85 -98.77,-230.08 -159.51,-308.59 -205.64,37.54 -659.72,141.24 -465.17,430.8 130.56,194.04 511.22,-69.91 624.68,-122.22zm5318.79 4206.42c182.95,-8.43 245.43,8.68 245.43,-192.38 0,-478.1 62.65,-646.62 -192.38,-665.98 -167.85,215.4 -96.19,564.87 -53.06,858.35zm1410.95 -1682.58c234.84,-106.28 275.8,-863.61 264.87,-939.69 -15.6,-109.04 -11.18,-61.23 -52.64,-127.47 -262.29,70.83 -206.73,200.97 -226.58,480.94 -13.6,191.63 -25.44,407.94 14.35,586.22zm301.33 -155.59c212.31,-147.58 112.21,-248.44 241.18,-568.95 37.71,-93.69 96.52,-175.86 121.88,-250.61 67.99,-200.97 51.97,-174.02 -28.11,-307.33 -331.94,96.19 -354.55,788.94 -334.95,1126.89zm-1656.05 -5747.09c246.94,-11.35 194.13,-80.25 114.79,-530.24 -4.84,-27.28 -37.04,-221.41 -40.13,-229 -83.59,-205.81 35.37,-63.99 -150.5,-140.49 -63.9,66.66 -124.47,-73.66 -50.14,445.15 30.37,212.06 7.84,319.1 125.97,454.58zm461.17 7433.01c103.95,-135.15 187.2,-752.32 98.94,-921.42 -145.74,90.77 -231.92,162.18 -258.53,407.19 -56.98,523.99 83.09,486.36 159.59,514.23zm3391.03 -1699.94c-108.62,246.27 105.36,465.01 411.45,427.97 193.38,-251.11 117.29,-284.73 -58.4,-489.03l-353.05 61.07zm-2937.45 -3709.21c62.74,-230.17 16.85,-299.33 -49.47,-497.46 -183.62,-547.85 -61.98,-351.72 -272.3,-393.93 -75.67,214.23 34.79,866.78 321.77,891.39zm-6942.98 4064.18c110.29,38.54 217.4,77.83 348.55,-2 33.04,-20.19 499.96,-444.65 -265.96,-435.72 -87.51,149 -136.73,242.76 -82.59,437.73zm-503.72 -344.29c164.51,76.25 283.23,79.17 415.95,-47.55 166.1,-158.67 121.63,-161.18 104.7,-396.68 -316.76,21.86 -568.29,54.31 -520.65,444.23zm11391.16 -1530.75c333.11,454.66 597.65,85.26 571.87,-52.89 -131.89,-212.23 -197.13,-119.21 -385.92,-268.38 -133.73,123.05 -104.2,146.99 -185.95,321.27zm-4779.87 4309.61c304.83,65.91 270.88,-723.04 162.68,-858.52 -338.7,121.38 -194.46,846.92 -185.2,819.23 2.42,-7.17 14.52,26.53 22.52,39.29zm-7202.35 -4415.56c71.91,453.49 384.09,264.37 571.87,99.61l-134.48 -346.04c-235.59,80.92 -312.67,87.6 -437.39,246.44zm4688.77 -4451.77c0,307.17 -34.7,317.1 62.65,474.02 95.69,-30.2 189.29,89.76 189.29,-474.02 0,-247.27 20.69,-325.27 -119.3,-450.74 -141.65,125.05 -132.64,200.97 -132.64,450.74zm6747.52 5966.83c166.93,181.78 211.81,261.12 506.72,197.63 59.48,-289.9 -75.92,-390.18 -288.65,-497.38l-102.78 35.62c-46.3,29.95 -52.56,-155 -115.29,264.12zm-10500.1 -1094.69l-53.64 -247.77c-206.14,-7.51 -182.62,-50.56 -328.69,65.07 -67.16,53.22 -176.19,156.92 -102.78,314.59 147.33,316.51 415.37,-5.51 485.11,-131.89zm6958.91 3698.86c230.17,-123.72 344.54,-602.57 341.2,-965.97 -271.8,84.34 -234.59,172.44 -296.07,441.48 -43.05,188.79 -125.39,362.56 -45.13,524.49zm-2910.92 167.02c95.19,161.93 12.01,60.98 155.25,134.23l43.88 -281.47c-31.03,-372.41 -51.56,-582.97 -302.66,-634.77 -21.77,190.54 5.67,615.59 103.53,782.02zm5569.15 -2075.43c90.52,63.4 492.2,286.06 449.32,-76.67 -28.2,-239.01 -240.93,-308 -438.06,-312.51 -109.7,273.38 -69.24,119.13 -11.26,389.17 -73.5,-52.72 -156.84,-127.72 -286.98,-186.2l-125.72 154.75c92.35,237.93 54.39,363.48 365.15,364.98 87.6,-164.01 72.16,-120.46 47.55,-333.53zm-8593.78 -422.29c-373.32,7.59 -552.1,386.34 -305.17,488.45 173.94,72.08 298.49,-25.78 360.56,-159.17 79.17,-170.19 33.12,-192.46 -55.39,-329.28zm5760.11 -3716.05c45.3,-171.77 -50.14,-600.49 -128.89,-789.11 -108.12,-258.45 -5.09,-113.96 -172.69,-138.73 -57.73,134.73 4.34,873.79 301.58,927.84zm4236.61 2643.13c340.87,-206.56 132.48,-517.81 -245.35,-503.8 -13.76,21.52 -138.32,157 -54.14,322.27 56.56,111.04 149.16,158.17 299.49,181.53zm-5031.56 -3517.5c69.66,-76 50.97,18.94 76.08,-119.46 16.35,-89.26 -103.36,-755.41 -248.6,-974.14 -102.86,259.03 -8.76,1090.6 172.52,1093.61zm3513.33 3868.8c424.8,206.64 414.87,-272.21 141.4,-370.07 -309.09,-110.62 -271.3,39.13 -365.98,151.08 36.62,71.74 57.81,137.9 224.58,218.99zm-7588.85 1318.1c-33.54,-37.37 -69.83,-85.76 -126.72,-127.72 -104.78,-77.58 -34.95,-58.9 -179.95,-66.41 -218.99,260.87 -297.99,531.5 176.86,529.16l129.81 -335.03zm7291.78 337.95c51.64,-218.74 3.09,-305.58 -125.97,-483.94 -84.43,3.42 -117.13,-63.99 -316.51,198.88 47.05,130.89 96.35,236.26 152.25,333.61l290.23 -48.55zm-2295.92 391.01c178.11,-78.25 162.76,-43.05 197.21,-302.25 25.94,-195.8 35.29,-359.47 25.19,-556.02 -159.34,59.65 -116.96,-0.83 -199.3,159.76 -80.92,157.76 -115.29,498.71 -23.11,698.51zm-267.96 1111.29c136.06,-83.34 165.51,-200.8 211.73,-358.81 50.14,-171.1 69.58,-283.89 70.16,-471.68 -463,28.86 -318.68,762.83 -281.89,830.49zm-5767.03 -3178.21c293.57,72 365.73,-67.82 542.59,-182.2l-124.47 -235.92c-303,14.35 -496.54,87.6 -418.12,418.12zm8943.24 154.92c305.25,513.81 821.64,83.42 368.15,-231.67 -313.34,77 -171.6,64.4 -368.15,231.67zm-154.08 -1519.99c86.09,95.77 338.12,386.09 482.28,165.51 159.42,-244.27 -153.08,-384 -344.54,-430.55 -45.88,107.45 -87.76,165.35 -137.73,265.04zm-9165.57 -119.88l24.86 299.83c256.53,57.31 392.01,-85.09 487.95,-232.84l-178.78 -260.03 -334.03 193.04zm-117.21 1812.89c290.65,46.63 327.86,-38.29 477.77,-152.33 -100.36,-154.5 -141.49,-256.28 -424.71,-275.63 -111.12,153.67 -154.08,245.93 -53.06,427.97zm-416.87 -369.57c225.58,107.87 356.3,-52.47 469.34,-151.25l-57.23 -182.7 -352.88 -82.09c-61.9,124.14 -131.73,238.68 -59.23,416.04zm10296.05 -157.5c127.39,324.27 675.65,394.35 402.94,-205.64 -80.67,-1.17 -194.04,1.25 -266.87,35.62 -162.84,76.92 -56.23,-18.27 -136.06,170.02zm-6308.2 2013.94c-6.92,75.42 5.51,264.04 22.27,338.37 51.31,227.41 63.9,161.84 176.69,185.2 43.71,-79.09 197.97,-673.07 -179.45,-795.62l-19.52 272.05zm4472.71 60.73l251.02 -43.88c79,-211.48 52.06,-232.59 -34.87,-451.83l-350.63 54.64 134.48 441.06zm-2312.94 2475.28c166.93,-88.85 115.46,-60.82 146.66,-324.52 24.11,-203.64 48.72,-267.79 22.27,-472.6 -382.92,106.62 -232.42,708.02 -168.93,797.12zm-4865.47 -2866.96c175.61,-166.18 139.65,-178.03 226.83,-376.66l-117.96 -167.1c-285.73,99.44 -503.8,412.95 -108.87,543.76zm1125.98 -39.96l-164.26 -72c-46.05,-16.43 -83.01,-21.52 -123.97,-34.37 -207.73,225.66 -203.72,462.59 188.54,490.03l99.69 -383.67zm3928.2 2832.08c155.75,-67.66 121.8,13.01 184.95,-186.29 59.23,-187.62 120.71,-506.64 54.06,-671.98 -230.92,126.72 -236.76,594.23 -239.01,858.27zm-2063.16 -42.88c29.7,-195.71 14.43,-288.73 -17.6,-466.93 -52.06,-288.4 -20.69,-268.79 -237.76,-318.43 0,262.87 27.53,691.25 255.36,785.36zm2381.18 -275.13c215.65,-133.65 315.26,-449.32 334.86,-712.53 -187.62,13.93 -239.59,41.96 -293.82,228.17 -48.8,167.35 -43.63,314.18 -41.04,484.36zm2805.72 -4984.43c49.97,59.56 184.28,220.99 305.42,225.25 221.16,7.93 320.1,-246.44 -173.44,-451.58l-131.98 226.33zm-5750.26 2373.92c-170.1,189.04 -48.3,674.65 106.12,842 85.68,-136.82 40.96,-251.11 25.36,-435.72 -21.36,-254.94 28.11,-317.26 -131.48,-406.28zm-2868.87 -2241.94c185.7,118.3 265.71,19.1 441.23,-152.58l-130.73 -247.02c-182.03,104.45 -400.35,172.19 -310.5,399.6zm7446.86 2584.06c-93.69,-215.15 -30.95,-140.9 -308.59,-149.75 30.28,163.34 118.55,677.57 346.46,445.99 64.24,-65.32 4.09,-200.05 -37.87,-296.24zm-4386.78 2489.38l-69.74 -120.8 69.74 120.8zm-1489.87 -2231.35c317.1,96.02 309.67,-162.59 361.73,-443.82l-229 -5.42c-76.42,124.97 -147.58,285.64 -132.73,449.24zm7526.03 -1378c68.41,-285.73 -203.97,-489.62 -418.04,-255.61 74.41,285.73 191.29,322.85 418.04,255.61zm-9135.95 -33.04c266.04,52.89 375.08,-68.91 448.49,-240.85l-86.76 -117.46c-263.12,17.94 -390.76,76.17 -361.73,358.31zm361.14 -1103.03c7.42,3.42 -8.09,121.72 202.14,-11.01 91.68,-57.9 115.04,-120.38 159.42,-201.47l-138.57 -157.5c-84.09,31.28 -228.67,91.35 -256.28,225.91 -44.63,218.24 19.69,117.71 33.29,144.07zm8036.09 4577.24c-205.97,-74.25 -332.95,-89.68 -474.1,83.01 93.94,66.66 130.06,170.69 343.04,144.91 151.08,-18.27 139.65,-73.41 131.06,-227.91zm-7176.07 29.95c-158.51,-149.83 -244.6,-143.32 -472.26,-79.34l22.94 195.55c165.01,65.74 344.96,62.4 449.32,-116.21zm4133.25 -14309.17c203.64,155.09 392.68,25.03 350.97,-147.49 -42.55,-175.69 -375.08,-219.57 -350.97,147.49zm-958.54 -9.93l-1.59 165.93c264.2,-39.63 347.88,-162.26 395.68,-447.57 -269.46,57.65 -244.43,117.54 -394.1,281.64l11.6 -215.4c-235.09,59.23 -323.6,162.84 -359.73,414.28 240.51,43.71 212.65,-52.56 348.13,-198.88zm-3976.75 10980.29c244.85,171.69 247.44,27.36 354.05,-163.76l-123.13 -161.18c-180.28,86.51 -237.09,70.83 -230.92,324.94zm8276.43 66.74c98.36,-212.23 11.85,-190.12 -96.27,-351.88 -171.94,78.5 -140.74,72.33 -219.07,179.11 111.62,164.1 78.75,274.3 315.34,172.77zm-8175.41 -596.48c15.18,9.18 3.5,94.85 195.63,39.88 140.82,-40.13 94.27,-59.48 145.99,-135.81 -2.92,-12.93 27.86,-11.1 -64.32,-118.63 -117.04,-136.98 -23.61,-35.46 -115.04,-97.36 -112.21,108.03 -226.41,162.18 -162.26,311.92zm-13.26 4339.23c1.84,1.42 -32.79,166.51 257.7,45.22 154.92,-64.65 110.54,-68.66 143.49,-221.24 -197.97,-27.03 -444.9,-41.63 -401.19,176.03zm599.49 -3381.93c189.46,88.01 231.5,-77 276.13,-274.72l-169.85 -96.86c-281.47,313.01 -113.12,359.06 -106.28,371.57zm5733.58 797.79c-74.91,207.89 -154.67,343.04 -9.76,535.25 301.75,-73.16 104.36,-429.05 9.76,-535.25zm1804.05 2643.46c-14.35,-304.92 -266.12,-258.28 -409.53,-139.32 42.88,90.68 17.1,102.28 167.43,162.68 233.09,93.27 187.95,10.01 242.1,-23.36zm-7478.06 -4660.83c29.87,-63.99 -39.54,-25.86 76.83,-121.97 -103.95,-104.28 -58.65,-100.11 -189.04,-182.78 -159.51,143.16 -172.02,69.74 -162.84,355.22 127.81,-5.92 186.95,-27.61 275.05,-50.47 -78.34,193.13 -27.7,183.62 -7.84,227.5 111.96,11.01 186.45,-36.37 231.42,-154 69.41,-181.95 15.02,-2.09 -9.34,-85.01 -49.22,-25.11 -11.51,-32.2 -107.78,-32.62 -15.18,-0.08 -95.35,38.21 -106.45,44.13zm6299.7 1258.04c71.16,267.46 415.2,162.26 186.12,-169.43 -43.8,-63.57 -41.13,-42.38 -89.85,-85.01 -121.13,126.55 -155.84,31.03 -96.27,254.44zm-3760.26 -11375.14l-41.8 186.54c255.61,-10.34 330.28,-115.63 384.5,-367.15 -195.71,42.13 -231.5,100.69 -342.71,180.61l15.27 -167.35c-241.93,51.81 -282.47,90.01 -325.52,331.61 182.53,-28.61 214.65,-82.92 310.25,-164.26zm-2241.27 11462.4c196.38,37.21 196.55,-28.53 235.76,-235.34 -53.06,-57.73 -76.42,-87.76 -122.47,-149.33 -142.07,137.48 -189.87,205.22 -113.29,384.67zm5695.12 132.89l234.42 32.79c50.14,-204.89 56.73,-318.43 -161.59,-393.76l-72.83 360.98zm1015.61 -1815.48c286.56,257.86 481.86,29.28 192.46,-184.37 -139.74,61.98 -116.13,34.37 -192.46,184.37zm-431.8 4945.22c-53.06,-176.03 120.88,-75 -328.19,-186.37l21.36 213.07c194.21,37.21 144.91,51.22 306.83,-26.7zm-289.65 -3762.93c0,-101.78 -51.47,-86.68 -146.16,-121.05 -15.02,26.45 -57.81,-53.89 -53.39,167.1 3.67,191.12 14.27,54.56 53.39,116.46 75.33,-29.7 146.16,117.54 146.16,-162.51zm277.8 -383.92c56.81,-86.68 105.2,-56.9 11.18,-208.23 -95.94,-154.42 -41.88,-67.41 -134.15,-60.82 -116.21,182.7 -66.57,236.01 122.97,269.04zm-6363.1 -43.05c282.14,0.75 287.15,-114.21 146.33,-295.41 -110.54,93.02 -140.07,87.68 -146.33,295.41zm4438.5 -10636l232.59 -10.18c-24.86,-352.3 -219.91,-288.9 -232.59,10.18zm-4234.7 9944.83c-80.34,-481.69 -585.47,-671.06 -849.93,-1041.13 -732.3,-1025.2 -577.21,-1360.73 -1034.21,-2297.67 10.34,1104.62 861.77,2720.55 1884.14,3338.8zm6015.8 42.71c951.2,-494.96 1888.31,-2336.38 1873.71,-3374.68 -415.87,1159.76 -557.11,1773.77 -1305.76,2649.64 -203.97,238.51 -548.76,393.85 -567.95,725.04zm-6181.82 4684.44c74.33,-143.49 54.14,-106.87 171.27,-225.33l504.55 -500.88c532.75,-532.83 543.09,-419.29 467.68,-781.35 -173.61,105.87 -478.44,502.88 -623.68,680.49 -83.42,102.11 -121.38,118.71 -210.73,210.23 -121.88,124.64 -268.96,351.05 -406.61,442.48 -168.02,111.45 -222.16,29.53 -340.45,242.6l-57.81 172.85c284.14,3.67 273.8,-25.78 389.76,-212.06 22.27,18.27 45.55,46.13 69.74,61.98 209.73,138.32 300.24,93.52 400.44,-31.03 -44.88,-118.46 3.34,-158.51 -364.15,-59.98zm2928.61 -9288.45c71.74,-186.79 46.22,-495.71 46.22,-733.38 0,-196.05 -26.86,-223.33 -201.72,-252.94 -139.23,173.69 -92.77,273.55 -94.19,573.21 -1.17,277.47 -48.47,418.12 249.69,413.12zm-1107.96 1042.47c164.43,-88.68 118.38,-38.96 137.32,-448.82 11.35,-241.51 41.63,-328.02 -12.85,-543.59 -144.49,55.23 -116.13,-153.67 -210.06,451.49 -8.93,56.98 -38.63,259.2 -36.96,305.25 9.43,261.45 -8.43,148.66 122.55,235.67zm2075.34 6523.02c-280.47,-14.85 -292.32,788.53 -61.57,904.07 119.21,-133.73 82.51,-201.55 101.69,-402.86 20.61,-215.82 49.8,-231.17 3.92,-418.04l-44.05 -83.17zm-311.01 1805.05c362.73,-39.88 283.89,-596.48 90.52,-784.6 -102.03,60.15 -43.63,-105.53 -124.39,141.99 -38.21,116.88 -33.12,493.87 33.87,642.62zm1569.46 -14593.56l-343.79 52.97c183.53,107.03 236.67,67.16 566.28,43.05 -112.29,-197.88 -117.46,-117.13 -274.63,-266.62 -181.36,-172.44 -91.68,-231.25 -354.97,-203.47 0,445.74 -42.88,347.55 407.11,374.07zm-3704.7 6130.68c132.73,-39.13 97.52,118.21 197.21,-331.53 48.64,-219.07 63.57,-303.41 69.24,-533 -357.31,103.03 -307.5,772.84 -266.46,864.53zm5121.83 3958.06c181.03,79.25 105.2,112.46 280.14,18.77 9.59,-237.26 -23.36,-229.83 -230.17,-329.61 -27.03,49.64 -99.53,206.31 -101.53,209.81 -85.26,150.25 -17.77,1.75 -191.04,119.8 69.58,169.18 68.41,172.19 239.18,239.26 96.61,-137.15 78.84,-46.38 3.42,-258.03zm-5039.74 2852.02c124.8,497.79 58.73,325.27 201.47,394.43 15.77,-51.56 -3.5,-853.68 -268.21,-933.43 -43.38,221.57 13.18,325.77 66.74,539zm-1248.03 -4794.47c206.39,-80.42 197.3,-285.64 308.42,-488.78 122.97,-224.58 272.21,-276.3 315.68,-505.97 -186.2,87.76 -719.03,727.71 -624.1,994.75zm5034.65 3718.55c151.5,-225.75 254.53,-572.21 293.49,-881.54 -202.39,115.63 -195.71,194.55 -272.13,422.38 -181.45,541.01 -35.87,437.89 -21.36,459.17zm-4157.7 444.57c18.6,174.19 43.96,308.34 91.43,484.94 135.56,505.88 109.54,361.98 224.83,361.39 -9.51,-252.27 -108.95,-787.02 -316.26,-846.34zm-1500.97 -1839.5c-29.62,209.31 -67.24,118.05 48.89,288.23l258.95 -112.12c-59.82,-108.12 16.43,-22.86 -90.1,-131.64l-344.12 -242.68c-114.46,95.77 -123.8,71.83 -159.09,261.45 132.89,-2.59 186.29,-27.7 285.48,-63.24zm1473.69 1331.95c113.12,166.35 31.78,186.2 210.31,345.29 25.78,-45.88 77.67,-631.6 -213.48,-794.53l3.17 449.24c-35.62,-53.39 -53.06,-77.75 -71.83,-139.74 -59.06,-194.88 7.68,-238.76 -126.47,-422.88 -58.23,198.47 -9.43,486.61 73.5,684.25 77.5,184.62 53.56,101.19 124.14,156.59l0.67 -278.22zm364.23 1543.6c-69.83,216.4 69.83,584.14 217.07,752.07 54.06,-109.04 66.91,-636.86 -217.07,-752.07zm5529.11 -3930.95c223.24,468.26 680.82,112.79 146.49,-156.5l-146.49 156.5zm-6141.19 2626.53c-120.38,174.52 -177.94,338.2 -73.5,545.43 188.79,-41.04 190.71,7.34 178.28,-250.44 -6.01,-125.39 -57.65,-205.56 -104.78,-294.99zm4273.74 -5146.27c42.05,-78.5 163.26,153.58 -53.47,-336.2 -25.36,-57.4 -30.37,-88.51 -62.65,-152.17 -68.57,-134.56 -19.19,-65.65 -107.7,-142.15 -92.43,151.33 -37.54,166.93 25.44,328.86 77.83,199.97 43.21,210.31 198.38,301.66zm1232.93 4303.27c42.88,123.47 125.47,150.83 209.9,153.58 169.43,-170.52 25.86,-289.4 -64.74,-408.11 -102.7,61.23 -214.32,55.89 -145.16,254.53zm454.75 -909.74c156,110.79 237.01,196.05 413.53,31.2 -52.56,-146.08 -110.12,-196.21 -246.27,-258.11l-167.27 226.91zm129.72 827.82c31.87,-152.67 -13.01,-192.88 -121.47,-317.93l-186.37 104.28c10.51,36.12 50.89,188.12 80.09,217.57 67.49,67.99 -12.93,37.29 104.11,49.22 213.07,21.69 77.08,-24.86 123.63,-53.14zm-1699.43 102.7c-265.37,127.22 -280.47,615.67 -147.16,752.32l147.16 -752.32zm-5894.5 -104.53c245.77,15.85 190.37,-20.19 298.83,-240.18l-192.79 -116.96c-115.71,112.21 -183.95,192.38 -106.03,357.14zm945.53 359.14c92.18,58.73 -104.45,51.97 147.91,45.38 12.26,-0.33 92.6,-33.7 128.72,-46.22l-109.2 -330.86c-175.44,47.38 -208.14,187.79 -167.43,331.69zm-1073.42 -1714.95c9.26,4.42 67.82,185.45 321.1,-90.43l-190.37 -177.44c-153.42,116.54 -178.94,74.16 -130.73,267.88zm6634.48 -1941.87c-8.43,-222.16 -71.24,-315.34 -251.19,-353.8 -17.85,240.76 36.87,329.11 251.19,353.8zm-1099.11 -8300.12c-3.92,-277.97 3.59,-301.24 -159.17,-420.37 -140.07,239.84 -3.34,337.7 159.17,420.37zm-4347.49 11225.39c-232.5,72.5 -223.08,173.19 -53.06,293.99 144.07,-95.19 147.24,-120.46 53.06,-293.99zm5910.02 134.98c13.1,-559.44 -555.86,123.8 0,0zm-6371.61 -39.38c232.75,53.64 155.5,43.38 239.43,-94.02 -125.39,-198.3 -223.41,-146.33 -239.43,94.02zm6669.1 -51.64c100.69,-141.65 59.31,-64.32 31.78,-272.13 180.03,80.92 110.7,110.7 277.39,17.77 -60.73,-167.35 -46.8,-148.24 -210.15,-215.48 -51.64,53.14 -100.03,111.62 -160.26,155 -164.18,118.71 -143.74,56.48 -216.15,235.34l277.39 79.5zm-1034.46 1246.69c61.82,196.88 5.51,86.26 115.79,170.19 68.49,-108.37 12.85,-299.99 -88.01,-431.05 -23.69,25.53 -100.03,29.78 -27.78,260.87zm-5013.96 124.22c89.76,-58.56 77.58,-10.18 123.72,-180.2 52.56,-193.38 24.53,-142.82 -17.85,-238.09 -9.34,9.59 -23.36,21.44 -28.45,28.53l-90.26 190.37c-33.79,134.65 -41.13,98.77 12.85,199.38zm5481.22 -1516.15l-22.69 -160.09c-1.5,1 -184.62,92.93 22.69,160.09zm-5720.65 -108.7c7.93,-151.16 -52.39,-78.59 -78.67,-99.61 -111.87,149.83 -42.21,117.63 1.33,192.88 28.28,-22.02 71.58,15.18 77.33,-93.27zm1060.74 -10698.24c128.31,-61.07 122.22,-47.64 181.7,-166.6 -129.72,41.46 -150.33,9.26 -181.7,166.6z"/>
  </g>
 </g>
</svg>
