<?xml version="1.0" encoding="utf-8"?>
<!-- Generator: Adobe Illustrator 24.0.2, SVG Export Plug-In . SVG Version: 6.00 Build 0)  -->
<svg version="1.1" id="Слой_1" xmlns="http://www.w3.org/2000/svg" xmlns:xlink="http://www.w3.org/1999/xlink" x="0px" y="0px"
	 viewBox="0 0 238.1 150.2" style="enable-background:new 0 0 238.1 150.2;" xml:space="preserve">
<g>
	<path class="st0" d="M17.4,150c0-1.9,0-3.9,0-5.8c2.8,0,5.5,0,8.3,0c0,0.3,0,0.5,0.1,0.7c1.2,0,2.3,0,3.5,0c0,0.4,0,0.7,0.1,1.1c2,0,4,0,6,0
		c0.4,0,0.6-0.2,0.6-0.5c0-0.6,0-1.2,0-1.8c-6.2-0.1-12.3-0.1-18.5-0.2c0.1-0.4,0.3-0.8,0.4-1.3c-0.2,0.1-0.3,0.1-0.6,0.2
		c0.2-0.3,0.3-0.4,0.5-0.6c-0.4-0.2-0.6-0.4-0.1-0.7c0.1-0.1,0.1-0.3,0.1-0.4c0-3,0-6,0-9c0-0.2,0.1-0.5-0.5-0.3
		c0.8-0.8,0.4-1.6,0.5-2.4c-0.2,0.1-0.3,0.1-0.5,0.1c0.2-0.2,0.2-0.4,0.4-0.5c1-0.5,2-1,3-1.6c2.2-1.2,4.4-2.3,6.5-3.6
		c1.8-1,3.5-2.1,5.2-3.2c1.2-0.8,2.3-1.6,3.4-2.5c0.4-0.3,0.7-0.8,1-1.3c0.1,0.3,0.3,0.6,0.4,1c0.2,0.4,1,0.6,1.3,0.4
		c0.1-0.1,0.1-0.2,0.2-0.4c0.1-0.3,0.2-0.5,0.3-0.8c0.1,0,0.1,0,0.2,0c0.1,0.3,0.2,0.6,0.3,0.9c0.8,0,1.5-0.3,1.5-1.3
		c0-0.3,0.2-0.5,0.4-0.9c0.2,0.6,0.3,1.1,0.5,1.6c0.2,0.5,0.5,1,0.8,1.5c1.7,2.4,3.3,4.9,5.2,7.3c1.9,2.5,4,4.8,6,7.1
		c1.2,1.3,2.4,2.6,3.7,3.8c1.9,1.8,3.9,3.5,6.3,4.7c0.2,0.1,0.4,0.3,0.7,0.5c0-0.8,0-1.5,0-2.2c1.6,0,3.1,0,4.7,0c0,1,0,2,0,3.2
		c4-1.4,6.4-4.2,7.9-7.9c0.1,0.2,0.3,0.4,0.5,0.8c0.1-0.3,0.2-0.4,0.3-0.6c0.4,0.5,0.5,0.5,1-0.2c0.5,1.6,1.1,3.3,1.6,4.9
		c0.5,1.4,1,2.7,1.5,4.1c0.2,0.4,0.4,0.7,0.9,0.6c0.7-0.1,1.5,0,2.3,0c0-0.3,0-0.5,0-0.7c0-4.4,0-8.8,0-13.2c0-0.3-0.2-0.7,0.3-0.9
		c0.1,0,0.1-0.3,0.1-0.5c0-1.3,0-2.5,0-3.9c0.2,0,0.4,0,0.6,0c0,0.2,0.1,0.4,0.1,0.6c1.2,0.1,1.3,0.1,1.5-0.7
		c0.2,0.2,0.3,0.4,0.5,0.5c0.9,0.7,0.4,1.7,0.4,2.5c0.1,4.4,0,8.7,0,13.1c0,0.3-0.1,0.7,0.5,0.5c0-1.3,0-2.6,0-4
		c0.4-0.1,0.9,0.1,1-0.5c0,0,0.3,0,0.4,0c0.7,0,1.4,0,2.1,0c0.4,0,0.8-0.2,1.1,0.3c0.1,0.2,1.3-0.1,1.6-0.2c0.2-0.1,0.6-0.1,0.9-0.2
		c0-2.5,0-5,0-7.5c0.9,0.3,0.5-0.4,0.7-0.8c0.5,0,0.9,0,1.5,0c0,0.2,0,0.5,0.1,0.8c0.3,0,0.7,0,1,0.1c0,1.3,0,2.5,0,3.8
		c0,1.5,0,3.1,0,4.6c0,0.4,0.3,0.8,0.4,1.2c0.1,0.3,0.2,0.7,0.2,1c0,0.1-0.3,0.2-0.5,0.3c0,0.3,0,0.7,0,1.1c0.8,0.1,0.8,0.1,0.8-0.6
		c0-0.6,0-1.3,0-2c0.1,0.2,0.2,0.3,0.2,0.4c0.1,0,0.1,0,0.2,0c0-2.5,0-5.1,0-7.6c0.3-0.1,0.4-0.1,0.5-0.1c0.1-0.3,0.1-0.6,0.2-1
		c0.4,0.3,0.6,0.8,0.9,0.1c0.3,0.3,0.6,0.6,0.9,0.8c0.2-0.3,0.5-0.6,0.9-1.1c0.1,1,0.3,1.8,0.3,2.7c0,2.6,0,5.3,0,7.9
		c0,0.2,0,0.4,0,0.6c0.1,0,0.1,0.1,0.2,0.1c0.2-0.4,0.5-0.8,0.6-1.2c0.1-0.3,0-0.8,0-1.1c0-0.4,0-0.6,0.3-1c0.3-0.4,0.3-1.1,0.6-1.4
		c0.5-0.5,0.8-1.2,0.9-1.8c0.1-0.3,0.1-0.7,0.2-1.2c0.1,0.6,0.3,1.1,0.4,1.6c0.1,0.6,0.3,1,0.8,1.4c0-0.4,0-0.8,0-1.2
		c1.8,0,3.6,0,5.4,0c0.1,0.1,0.1,0.1,0.1,0.1c0.1,1.6,0.1,3.2,0.1,4.9c0,0.1,0,0.2,0,0.2c-0.1,0.8-0.1,0.8,0.7,0.7
		c0-0.4,0.2-0.9-0.1-1.2c-0.1,0-0.2,0-0.3,0c0.1-0.4,0.3-0.9,0.4-1.3c0.1-0.3,0.1-0.5,0.1-0.8c0-0.7,0-1.5,0-2.2
		c0.1,0,0.1,0,0.2,0.1c0.1-0.2,0.3-0.4,0.3-0.7c0.1-0.8,0.2-1.6,0.3-2.4c0.1,0,0.1,0,0.2,0c0.1,0.4,0.1,0.7,0.2,1.2
		c0.3,0,0.6,0.2,0.8-0.3c0-0.1,0.5-0.1,0.5,0c0.4,0.6,0.9,0.2,1.4,0.2c0.2,0,0.4-0.1,0.7-0.1c0-1.4,0-2.9,0-4.2
		c1.6-0.5,3.2-0.3,4.9,0c0,3.5,0,7,0,10.6c0.3,0,0.5,0,0.8,0c0-6.6,0-13.3,0-20c0.9,0,1.7,0,2.6,0c0-0.2,0.1-0.4,0.1-0.6
		c0,0,0.1,0.1,0.1,0.1c0.2-0.2,0.4-0.4,0.6-0.6c0.1-0.1,0.3-0.1,0.4,0c0.5,0.4,0.9,0.8,1.5,1.4c0,2.5,0,5.1,0,7.8
		c0.5,0.1,0.8,0.4,1.3,0.1c0.3-0.2,0.8,0.1,1.3,0.2c0,3.9,0,7.8,0,11.6c0.4,0,0.7,0,1.2,0c0-0.2,0-0.4,0-0.7c0-6.1,0-12.3,0-18.4
		c0-0.5,0.1-0.8,0.7-0.6c0-0.3,0-0.5,0-0.8c1,0,2,0,3,0c0-0.6,0-1.2,0-1.8c0.4,0,0.8,0,1.3,0c0-0.5,0-1,0-1.6c0.4,0,0.8,0,1.2,0
		c0-1,0-2,0-2.9c0.5-0.1,0.9-0.3,1.3-0.3c0.4,0,0.8,0.2,1.2,0.3c0,0.7,0,1.4,0,2.1c0,0.8,0,0.8,0.8,0.8c0.1,0,0.2,0,0.4,0
		c0,0.5,0,1,0,1.5c0.1,0,0.2,0.1,0.2,0.1c1.2,0,1.2,0,1.2,1.2c0,2,0,4.1-0.1,6.1c0,0.2,0.1,0.4,0.1,0.6c0.3,0,0.7,0,1,0
		c0,0.3,0,0.6,0.1,0.9c0.2,0,0.4,0.1,0.7,0.1c0,4.4,0,8.8,0,13.3c0.2,0,0.4,0,0.7,0c0-0.2,0-0.5,0-0.7c0-5.2,0-10.4,0-15.6
		c0-0.3-0.1-0.7,0.5-0.6c0-0.3,0-0.5,0-0.8c0.8,0,1.6,0,2.4,0c0.1,0,0.2,0.2,0.4,0.5c0,0,0.2,0,0.4,0c1,0.1,1.9,0.2,2.9,0.2
		c0.2,0,0.4,0,0.7,0c0-0.7-0.1-1.3-0.1-2c0-0.3,0.1-0.5,0.1-0.8c0-0.8-0.1-1.7-0.1-2.5c0-0.4,0-0.8,0-1.3c0-0.4,0.3-0.4,0.5-0.4
		c1.7,0,3.3,0,5,0c0.5,0,0.7-0.1,0.7-0.6c0-0.6,0.1-0.6,0.7-0.4c0.5,0.2,1,0.2,1.5,0.3c0.1-0.6,0.2-1.1,0.2-1.5c0,0,0.1,0,0.1,0
		c0,0.3,0,0.5,0,0.8c0,0.3-0.1,0.5,0.3,0.7c0.2,0.1,0.2,0.5,0.3,0.8c1.8,0.1,3.6,0.1,5.5,0.2c0,7.8,0,15.5,0,23.3c0.7,0,1.2,0,1.9,0
		c0-0.2,0-0.5,0-0.7c0-10.6,0-21.2,0-31.8c0-0.6,0.2-0.9,0.7-1.1c0.3-0.1,0.5-0.2,1-0.4c0-1.1,0-2.2,0-3.3c0-0.8,0.2-1.6,0.2-2.3
		c0.1-1,0.2-2,0.2-3c0-0.5,0.1-1.1,0.1-1.6c0-0.1,0.2-0.3,0.3-0.3c0.1,0,0.4,0.2,0.4,0.3c0.1,1.1,0.2,2.2,0.3,3.3c0.1,2,0.2,4,0.4,6
		c0,0.6,0.3,1.2,1,1.3c0.6,0.1,0.6,0.4,0.6,0.9c0,4.4,0,8.8,0,13.2c0,1,0,2,0,3c0,0.4,0,0.7,0.5,0.6c0.5,0,0.7-0.2,0.7-0.7
		c0-0.1,0-0.2,0-0.3c0.8,0,1.7,0,2.5,0c0.1,0,0.3,0.3,0.3,0.4c0,1.6-0.1,3.3-0.1,4.9c0,0.2,0,0.4,0,0.6c0,0.9,0.3,1.1,1.2,0.7
		c0-1.7,0-3.4,0-5.2c0-1.9,0-3.8,0-5.7c0-0.4,0-0.7,0.6-0.7c1.2,0,1.2,0,1.4-1.2c0.7-0.1,1.4-0.2,2.1-0.2c0.5,0,0.7-0.2,0.7-0.7
		c0-1.2,0-2.3,0-3.5c0.4-0.3,0.5,0,0.5,0.3c0,1.4,0,2.8,0,4.2c0,0.1,0,0.3,0,0.4c0,0.1,0.2,0.2,0.2,0.3c0.1-0.1,0.2-0.2,0.2-0.3
		c0-0.2,0-0.3,0-0.5c0-1.5,0-2.9,0-4.4c0,0,0-0.1,0-0.1c0.4-0.2,0.5,0,0.5,0.3c0,1.2,0,2.3,0,3.5c0,0.2,0,0.4,0,0.5
		c0.8,0,1.6,0,2.4,0c0,0.2,0,0.4,0,0.7c0.7,0,1.4,0,2.1,0c0,0.3,0,0.5,0,0.7c0,4.5,0,9,0,13.5c0,0.8,0.4,1.1,1.2,1
		c0.4-0.1,0.9-0.1,1.4-0.1c0,3.5,0,6.9,0,10.4c1.1,0,2.1,0,3.2,0c0-0.2,0-0.5,0-0.7c0-4.3,0-8.6,0-12.9c0-0.5,0.1-0.7,0.6-0.7
		c0.5,0,1-0.2,0.8-0.9c0.4,0,0.7,0,1.1,0c0.1,0.6,0.4,1,1.1,0.8c0.1,0,0.4,0.2,0.4,0.4c0.1,0.5,0,1,0,1.4c0,3.9,0,7.9,0,11.8
		c0,0.2,0,0.4,0.2,0.7c0-0.1,0.1-0.2,0.1-0.3c0-1.5,0.1-3,0.1-4.5c0-0.5,0.1-0.9,0.7-0.7c0-2.6,0-5.1,0-7.7c0.6-0.1,1.6,0.2,1.5-0.9
		c0.4-0.1,0.7-0.1,0.7,0.4c0,0.2,0.4,0.4,0.6,0.5c0.2,0.1,0.4,0,0.7,0c0,0.2,0,0.5,0,0.7c0,2.1,0,4.2,0,6.3c0,0.7,0.1,0.8,0.8,0.7
		c0.1,0,0.2,0,0.2,0c0.3,0,0.6,0,0.9,0c0,1.7,0,3.4,0,5.1c0.3,0,0.5,0,0.7,0c0-0.1,0-0.3,0-0.4c0-6.5,0.1-13,0.1-19.4
		c0-0.9,0-0.9,0.9-0.9c0.4,0,0.7,0,1,0c0-0.1,0.1-0.1,0.1-0.1c0.1-0.9,0.1-0.9,1-0.9c1.2,0,2.3,0,3.5,0c0,0.4,0,0.7,0,1.1
		c0.7,0,1.4,0,2.2,0c0,0.3,0,0.5,0,0.8c0,6.6,0,13.2,0,19.8c0,0.8,0,0.8,0.8,0.8c0.3,0,0.6,0,0.8,0c0,2.2,0,4.4,0,6.6
		C153,150,85.2,150,17.4,150z M46.9,142.8c-0.3,0-0.4,0.1-0.3,0.4c0.1,0.4,0.5,0.4,0.8,0.3c-0.1-0.1-0.1-0.2-0.1-0.3
		c0.3,0.1,0.5-0.2,0.3-0.4s-0.4-0.3-0.7-0.5C46.9,142.6,46.9,142.7,46.9,142.8z M42.4,142.8c0.2,0.1,0.5,0.2,0.7,0.3
		c0-0.3,0-0.5,0-0.8c-0.4,0-0.7,0-1,0C42.2,142.5,42.3,142.7,42.4,142.8c-0.1,0-0.2,0-0.3,0c0,0.2,0,0.4,0,0.6c0.3,0,0.5,0,0.8,0
		C42.7,143.2,42.5,143,42.4,142.8z M32,142.3c-0.4-0.1-0.4-0.1-0.3,0.8c0.2,0,0.3,0,0.5,0c0.1,0,0.3,0,0.5,0
		c-0.2-0.2-0.3-0.3-0.4-0.5c0.1,0,0.3,0.1,0.4,0.1c0-0.3,0-0.5,0-0.8c-0.3,0-0.6,0-0.9,0C32,142.2,32,142.3,32,142.3z M28.6,142.2
		c-0.2,0.3-0.5,0.6-0.7,0.9c0.3,0,0.6,0,1.1,0C28.8,142.8,28.7,142.5,28.6,142.2c0-0.1,0.1-0.2,0.1-0.3c-0.4,0-0.7,0-1,0
		c0,0.3,0,0.6,0,0.9C28,142.6,28.3,142.4,28.6,142.2z M26.5,142.1c-0.1,0.3-0.2,0.6-0.3,1c0.5,0,0.8,0,1.1,0
		c-0.2-0.3-0.4-0.5-0.5-0.8c0.2,0.1,0.4,0.2,0.6,0.4c0-0.3,0-0.5,0-0.8c-0.2-0.1-0.4-0.2-0.5-0.1C26.7,141.8,26.6,142,26.5,142.1z
		 M39.4,142.7c0.2,0.1,0.4,0.3,0.6,0.5c0.1,0,0.2-0.1,0.3-0.1c0.1-0.2,0.2-0.4,0.3-0.6c-0.2-0.1-0.4-0.2-0.6-0.2c-0.2,0-0.5,0-0.8,0
		C39.3,142.4,39.4,142.6,39.4,142.7c-0.5-0.4-0.9-0.2-1.2,0.5c0.5,0,0.9,0,1.4,0C39.6,143.1,39.5,142.9,39.4,142.7z M32.8,122.7
		c-0.9,0.3-1.2,0.9-1.2,1.8c0.1,5.3,0,10.6,0,15.9c0,0.4,0,0.7,0,1.1c0.4,0,0.8,0,1.2,0C32.8,135.2,32.8,129,32.8,122.7z
		 M34.1,141.5c0-6.6,0-13.2,0-19.8c-0.9,0.4-1,1-1,1.8c0,5.8,0,11.6,0,17.3c0,0.2,0,0.5,0,0.7C33.5,141.6,33.8,141.5,34.1,141.5z
		 M35.3,120.8c-0.6,0.3-1,0.6-0.9,1.4c0,6.2,0,12.3,0,18.5c0,0.9,0,0.9,0.8,1c0,0,0.1,0,0.1,0C35.3,134.7,35.3,127.8,35.3,120.8z
		 M31.4,123.7c-0.9,0.3-1.1,0.5-1.1,1.3c0,5.3,0,10.6,0,15.8c0,0.2,0,0.5,0,0.7c0.4,0,0.7-0.1,1.1-0.1
		C31.4,135.5,31.4,129.6,31.4,123.7z M28.7,141.4c0-5.4,0-10.7,0-16.1c-1.1,0.5-1.1,0.5-1.1,1.6c0,4.6,0,9.2,0,13.8
		c0,0.2,0,0.5,0,0.7C28,141.4,28.4,141.4,28.7,141.4z M41.8,124.4c0.1,0.9,0.1,1.7,0.1,2.5c0.1,2.3,0.1,4.7,0.1,7c0,2.4,0,4.8,0,7.3
		c0,0.2,0,0.4,0,0.6c0.4,0,0.7,0,1.1,0c0-0.1,0-0.2,0-0.2c0-5,0-10.1,0-15.1c0-0.3-0.1-0.6-0.2-0.8
		C42.6,125.3,42.2,124.9,41.8,124.4z M30.1,141.5c0-5.8,0-11.4,0-17.1c-0.8,0.3-1,0.6-1,1.4c0,2.9,0,5.8,0,8.8c0,2.3,0,4.6,0,6.9
		C29.4,141.5,29.7,141.5,30.1,141.5z M40.6,141.8c0-1.6,0-3.1,0-4.5c0-0.2-0.3-0.7-0.5-0.7c-0.7,0-1.4,0-2.1,0.1
		c-0.4,0.1-0.6,0.3-0.6,0.8c0,1.3,0,2.6,0,3.9c0,0.1,0,0.3,0.1,0.4C38.5,141.7,39.5,141.7,40.6,141.8z M27.3,141.4
		c0-5.1,0-10.2,0-15.3c-1,0.4-1,0.4-1,1.3c0,4.4,0,8.8,0,13.2c0,0.2,0,0.5,0,0.7C26.7,141.4,27,141.4,27.3,141.4z M23.5,141.2
		c1.2,0.1,1.2,0.1,1.2-1c0-4,0-8,0-11.9c0-0.2,0-0.4,0-0.6c-1,0.2-1.2,0.4-1.2,1.3c0,3.9,0,7.8,0,11.6
		C23.5,140.8,23.5,141,23.5,141.2z M40.7,131.6C40.7,131.5,40.6,131.5,40.7,131.6c-0.1-0.4-0.1-0.7-0.1-1c0-0.5-0.2-0.8-0.7-0.7
		c-0.7,0.1-1.4,0.1-2.1,0.3c-0.2,0.1-0.5,0.5-0.5,0.7c0,1.1,0.1,2.3,0.1,3.4c0,0.5,0.2,0.7,0.6,0.6c0.6,0,1.2-0.1,1.8-0.2
		c0.8-0.1,1-0.5,0.7-1.4c0-0.1,0-0.1,0-0.2C40.5,132.6,40.6,132.1,40.7,131.6z M26,126.9c-0.9,0.2-1.1,0.4-1.1,1.3
		c0,4.2,0,8.4,0,12.6c0,0.2,0,0.4,0,0.6c0.4,0,0.7,0,1.1,0C26,136.5,26,131.7,26,126.9z M46.1,146c0-0.3,0-0.5,0-0.7
		c0-0.4,0.1-0.6,0.6-0.6c0.6,0,1.2,0,1.8,0c1.7,0,3.4,0,5.1,0c0-0.2,0-0.4,0-0.6c-3.9-0.1-7.7-0.2-11.5-0.3c0,0.8,0,1.5,0,2.2
		C43.4,146,44.7,146,46.1,146z M23.3,141.2c0-4.3,0-8.6,0-12.8c-1,0.4-1,0.4-1,1.4c0,3.4,0,6.8,0,10.2c0,0.3,0,0.6,0,0.8
		c0,0.2,0.2,0.4,0.3,0.4C22.8,141.3,23,141.3,23.3,141.2z M20.7,129.8c-0.2,0.1-0.4,0.2-0.5,0.2c-0.6,0.2-0.7,0.5-0.7,1.1
		c0,2,0,4,0,6c0,1.3,0,2.6,0,4c0.1,0,0.3,0,0.4,0c0.8,0.2,0.8,0.2,0.8-0.7c0-3.3,0-6.7,0-10C20.7,130.3,20.7,130.1,20.7,129.8z
		 M45.4,142c0-0.1,0-0.1,0-0.2c0-4.2,0-8.4,0-12.6c0-0.6-0.5-1-0.9-1.5c0,4.6,0,9,0,13.4C44.4,142,44.5,142,45.4,142z M21.9,129.2
		c-1,0.3-1,0.3-1,1.3c0,3.4,0,6.8,0,10.2c0,0.2,0,0.4,0,0.6c0.4,0,0.6,0,1-0.1C21.9,137.2,21.9,133.2,21.9,129.2z M43.4,126.5
		c0,5.2,0,10.3,0,15.4c0.3,0,0.5,0,0.8,0c0-0.2,0-0.5,0-0.7c0-4.4,0-8.8,0-13.1C44.2,127.4,43.8,127,43.4,126.5z M46.6,130.3
		c0,0.4,0,0.6,0,0.8c0,3.4,0.1,6.8,0,10.2c0,0.7,0.4,0.7,0.8,0.7c0.5,0,0.3-0.4,0.3-0.7c0-3,0-6.1,0-9.1
		C47.7,131.5,47.3,130.9,46.6,130.3z M37.3,127.1c0,1,0.2,1.2,0.8,1.1c0.6-0.1,1.2-0.1,1.9-0.3c0.2,0,0.5-0.3,0.5-0.5
		c0.1-0.8,0.2-1.6,0.2-2.4c0-0.5-0.2-0.7-0.7-0.7c-0.7,0.1-1.4,0.1-2.2,0.3c-0.4,0.1-0.7,0.4-0.7,0.9
		C37.2,126.2,37.2,126.7,37.3,127.1z M45.5,129.1c0,0.4,0,0.6,0,0.7c0,3.8,0,7.6,0,11.3c0,0.8,0.1,0.9,1,0.7c0-0.2,0-0.4,0-0.6
		c0-3.5,0-7.1,0-10.6C46.5,130,46.1,129.6,45.5,129.1z M19.2,141.1c0-3.5,0-7,0-10.5c-1,0.4-1,0.4-1,1.3c0,2.9,0,5.7,0,8.6
		c0,0.2,0,0.4,0.1,0.7C18.6,141.1,18.9,141.1,19.2,141.1z M48.7,142.1c0-3,0-5.9,0-8.9c0-0.7-0.4-1-0.9-1.4c0,3.5,0,6.9,0,10.3
		C48.1,142.1,48.4,142.1,48.7,142.1z M36.2,120.2c-0.1,0-0.2-0.1-0.3-0.1c-0.1,0.3-0.3,0.6-0.3,0.9c0,6.7,0,13.3,0,20
		c0,0.2,0.1,0.4,0.1,0.6c0.1,0,0.1,0,0.2,0c0-0.1,0.1-0.3,0.1-0.4c0-2.4,0.1-4.8,0.1-7.2c0-0.1-0.1-0.2-0.2-0.2
		c0.1-0.3,0.2-0.5,0.2-0.8c0-3.3,0-6.6,0-10C36.1,122.1,36.2,121.1,36.2,120.2z M48.9,133c0,3.1,0,6.1,0,9.1c0.3,0,0.6,0,0.9,0.1
		c0-2.5,0-5,0-7.5C49.8,133.9,49.5,133.4,48.9,133z M42,117.9c-0.1,0-0.1,0-0.2,0.1c0,0.2,0,0.4,0,0.6c0,1.3,0,2.5,0,3.8
		c0,0.9-0.1,1.8,0.6,2.5c0.2,0.2,0.4,0.5,0.7,0.8c0-0.3,0-0.4,0-0.6c0-1.5-0.1-3.1,0-4.6C43.2,119.3,42.3,118.7,42,117.9z M37.2,123
		c0.9-0.1,1.7-0.2,2.5-0.3c0.6-0.1,0.6-0.3,0.3-0.7c-0.4-0.6-0.9-1.3-1.3-1.9c-0.2-0.4-0.6-0.4-0.9-0.3c-0.3,0.1-0.6,0.4-0.6,0.6
		C37.1,121.1,37.2,122,37.2,123z M51.2,135.1c0,2.5,0,4.8,0,7.1c0.3,0,0.6,0,0.9,0.1c0-2,0-3.9,0-5.9
		C52.1,135.7,51.6,135.5,51.2,135.1z M50.9,142.2c0-0.2,0-0.4,0-0.6c0-2,0-4.1,0-6.1c0-0.7-0.3-1-0.9-1.4c0,2.7,0,5.3,0,7.9
		c0,0.1,0,0.1,0,0.2C50.3,142.2,50.6,142.2,50.9,142.2z M47.7,130.9c0-1.7,0.1-3.2,0-4.8c0-0.5-0.6-0.9-0.9-1.3
		c-0.1,0-0.1,0.1-0.2,0.1c0,1.4,0.1,2.7,0,4C46.5,129.8,46.9,130.3,47.7,130.9z M45.4,128.2c0-1.5-0.1-3,0-4.5
		c0.1-0.9-0.5-1.4-0.9-2c-0.1,1.5,0,3-0.1,4.5C44.4,127.1,44.6,127.8,45.4,128.2z M45.5,123.2c0,1.7,0,3.2,0,4.8
		c0,0.7,0.4,1.1,0.9,1.6c0-0.3,0-0.5,0-0.7c0-1.2-0.1-2.5,0-3.7C46.5,124.4,46.1,123.8,45.5,123.2z M53.2,142.3c0-1.7-0.1-3.3,0-4.9
		c0-0.7-0.4-0.9-0.8-1.2c0,2.1,0,4.1,0,6.1C52.6,142.3,52.8,142.3,53.2,142.3z M44.2,126.9c0-0.3,0-0.5,0-0.7c0-1.5,0-2.9,0-4.3
		c0-0.8-0.4-1.2-0.9-1.9c0,1.8,0.1,3.4,0,5.1C43.3,125.9,43.7,126.3,44.2,126.9z M49.9,133.1c0-1.2-0.1-2.3,0-3.4
		c0.1-1-0.4-1.4-1.1-2.2c0,1.3,0.1,2.5,0,3.6C48.7,132.1,49.1,132.6,49.9,133.1z M54.3,142.5c0-1.3-0.1-2.5,0-3.7
		c0.1-0.8-0.3-1.2-0.9-1.6c0,1.7,0,3.5,0,5.2C53.7,142.4,54,142.4,54.3,142.5z M47.9,126.3c0,0.1-0.1,0.2-0.1,0.2c0,1.4,0,2.9,0,4.3
		c0,0.5,0.4,0.8,0.9,1.1c0-1.2,0-2.3,0-3.4C48.8,127.6,48.6,126.9,47.9,126.3z M51.1,130.4c0,1.2,0.1,2.2,0,3.3
		c-0.1,0.8,0.3,1.3,1,1.7c0-1.1-0.1-2.1,0-3.1C52.2,131.5,51.7,131,51.1,130.4z M62.2,146c0.8,0,1.6,0,2.3,0c0-0.5,0-1,0-1.6
		c-0.8,0-1.5,0-2.3,0C62.2,145,62.2,145.5,62.2,146z M50.1,129.1c0,1.3,0.1,2.5,0,3.7c0,0.7,0.3,1.1,0.9,1.5c0-1.2-0.1-2.2,0-3.3
		C51,130.2,50.7,129.7,50.1,129.1z M53.4,133c0,1.1,0.1,2.1,0,3c-0.1,0.8,0.4,1,1,1.3c0-0.9,0-1.8,0-2.7C54.4,134,54,133.5,53.4,133
		z M54.6,138.1c0,0.8,0,1.5,0,2.2c0,0.7,0,1.4,0,2.2c0.3,0,0.6,0,0.8,0c0-0.9,0-1.9,0-2.8C55.5,139,55.3,138.4,54.6,138.1z
		 M40.5,122.2c0.1,0,0.2,0,0.2,0c0-0.7,0-1.3,0-2c0-0.7-0.2-0.9-0.9-0.8c-0.3,0-0.5,0.1-0.8,0.1c-0.1,0-0.2,0.3-0.2,0.4
		C39.4,120.6,40,121.4,40.5,122.2z M53.2,136.4c0-1.2,0-2.2,0-3.3c0-0.5-0.3-0.9-0.8-1.2c0,1.2,0,2.2,0,3.3
		C52.3,135.8,52.6,136.1,53.2,136.4z M55.7,139c0,1.1,0,2.2,0,3.2c0,0.1,0.3,0.3,0.5,0.4c0.1,0,0.4-0.2,0.4-0.4c0-0.7,0-1.4,0-2
		C56.6,139.5,56.2,139.2,55.7,139z M55.7,135.4c0,0.8,0.1,1.6,0,2.3c-0.1,0.8,0.3,1.1,1,1.4c0-0.7-0.1-1.3,0-2
		C56.8,136.3,56.3,135.9,55.7,135.4z M54.6,134.4c0,1,0,1.8,0,2.6c-0.1,0.7,0.2,1,0.9,1.2c0-0.8-0.1-1.6,0-2.4
		C55.5,135.2,55.2,134.8,54.6,134.4z M57.8,137.5c0,0.8,0,1.4,0,2c0,0.6,0.4,1,1.1,1c0-0.5-0.1-1,0-1.5
		C59,138.2,58.4,137.9,57.8,137.5z M56.8,136.5c0,0.8,0.1,1.6,0,2.3c-0.1,0.7,0.4,0.8,0.9,1.1c0-0.6-0.1-1.2,0-1.8
		C57.8,137.3,57.4,136.9,56.8,136.5z M56.7,139.8c0,0.8,0,1.5,0,2.2c0,0.3,0,0.6,0.4,0.6c0.4,0,0.6-0.1,0.5-0.6
		c-0.1-0.4-0.1-0.8,0-1.2C57.8,140.1,57.3,140,56.7,139.8z M24.7,125.4c-0.1,0-0.1-0.1-0.2-0.1c-0.3,0.3-0.8,0.6-1,0.9
		c-0.2,0.5,0,1.1,0,1.6C25.2,127.5,24.7,126.3,24.7,125.4z M31.7,123.1c0.4-0.4,0.9-0.6,1.1-1c0.2-0.5,0-1.1,0-1.7
		C31.5,121.1,31.5,121.1,31.7,123.1z M28.8,123c-1.2,0.4-1.4,0.9-1.1,2.5C28.9,125,29,124.8,28.8,123z M19.5,130
		c0.3-0.1,0.6-0.2,0.8-0.4c0.2-0.1,0.3-0.3,0.3-0.5c0-0.5,0-1,0-1.8c-0.5,0.4-1,0.6-1.2,0.9C19.3,128.8,19.5,129.4,19.5,130z
		 M76.8,144.5c0-1.9,0-3.6,0-5.4C76.3,139.6,76.2,143.9,76.8,144.5z M25,127c1.1-0.3,1.3-0.9,1-2.4c-1,0.4-1,0.4-1,1.4
		C25,126.3,25,126.7,25,127z M23.3,126.1c-0.3,0.1-0.5,0.2-0.7,0.4c-0.1,0.1-0.3,0.3-0.3,0.4c0,0.5,0,1.1,0,1.6
		c1-0.2,1.1-0.4,1.1-1.2C23.3,126.9,23.3,126.5,23.3,126.1z M30.3,123.8c1.4-0.4,1-1.5,1.1-2.7c-0.4,0.4-0.9,0.6-1,0.9
		C30.2,122.6,30.3,123.2,30.3,123.8z M30.1,122.1c-0.3,0.2-0.5,0.3-0.7,0.5c-0.1,0.1-0.4,0.2-0.4,0.4c0,0.6,0,1.2,0,1.7
		C30.5,124.2,30,123.1,30.1,122.1z M33.1,122c1.2-0.8,1.3-1.1,1-2.6C32.7,119.9,33.1,121,33.1,122z M26.3,126.2c1.2-0.5,1-0.3,1-2.4
		C26.3,124.2,26.1,124.7,26.3,126.2z M18.2,130.6c1.1-0.3,1.1-0.3,1.1-1.3c0-0.3,0-0.7,0-1C18.2,128.6,18.1,128.7,18.2,130.6z
		 M21.9,126.9c-1,0.3-1,0.3-1,1.3c0,0.3,0,0.6,0,1C22.1,128.9,22.1,128.6,21.9,126.9z M59,138.7c0,0,0,0.1,0,0.1c0,0.4,0,0.8,0,1.1
		c0,0.9,0,0.9,0.9,1.2C60.1,139.5,59.9,138.8,59,138.7z M61.1,141.7c0.1-1.6,0-1.9-1-2.3c0,0.4,0,0.8,0,1.1
		C60.1,141.5,60.1,141.6,61.1,141.7z M57.8,140.6c0,0.4,0,0.7,0,1.1c0,1,0,1,1,1C59,141.1,58.8,140.7,57.8,140.6z M75.8,144.2
		c0.4,0.2,0.5-0.1,0.5-0.4c0-1.1,0-2.3,0-3.4c0-0.1,0-0.3-0.1-0.4c-0.2,0.2-0.4,0.4-0.4,0.6C75.8,141.8,75.8,143,75.8,144.2z
		 M35.4,118.5c-1,0.4-1.2,1.1-0.9,2.4C35.8,120.5,35.3,119.4,35.4,118.5z M69.3,144.9c0,0.4,0,0.8,0,1.2c0.5,0,0.9,0,1.4,0
		c0-0.4,0-0.7,0-1C70.2,145,69.8,144.9,69.3,144.9z M75.2,144.2c0.2-0.1,0.4-0.2,0.4-0.2c0-1,0-2.1,0-3.1c-0.1,0-0.1,0-0.2,0
		C74.8,141.9,75.3,143,75.2,144.2z M40.4,146.2c0.1-0.1,0.1-0.1,0.2-0.1c0-0.6,0-1.2,0-1.9c-0.4,0.4-0.7,0.7-1,1
		c-0.1,0.1-0.2,0.4-0.1,0.4C39.7,145.8,40,146,40.4,146.2z M39.8,143.9c0-0.1-0.1-0.1-0.1-0.2c-0.6,0-1.3,0-2,0
		c-0.1,0-0.1,0.1-0.2,0.1c0.4,0.3,0.8,0.6,1.2,0.9C39.1,144.6,39.5,144.3,39.8,143.9z M80.6,140.7c-0.3,2.4-0.3,3.4,0.2,3.7
		C80.7,143.2,80.9,142,80.6,140.7z M35.5,120.1c0.7-0.3,0.9-1.1,0.5-2.3C35.2,118.4,35.8,119.3,35.5,120.1z M75,144.1
		c0-1,0-1.8,0-2.6c-0.4,0.3-0.6,1.7-0.4,2.3C74.6,143.9,74.8,144,75,144.1z M61.3,140.3c-0.1,1.4-0.2,1.9,0.6,1.8
		C62,140.8,62,140.8,61.3,140.3z M59.9,142.6c0.1-1-0.1-1.2-0.9-1.2c0,0.4,0,0.8,0,1.2C59.3,142.6,59.6,142.6,59.9,142.6z
		 M63.3,142.7c0.1-1.2,0-1.3-0.8-1.5c0,0.4,0,0.8,0,1.3C62.7,142.5,63,142.6,63.3,142.7z M79.3,141.2c0-1.4,0.2-2.8-0.1-4.2
		C79.3,138.4,79.1,139.8,79.3,141.2z M79.6,142.2c0.1,0,0.1,0,0.2,0c0-1.3,0-2.6-0.2-3.9C79.6,139.6,79.6,140.9,79.6,142.2z
		 M37.4,146.1c0.4-0.3,0.7-0.5,1-0.8c-0.3-0.3-0.6-0.6-1-1C37.4,145,37.4,145.5,37.4,146.1z M74.4,142c-0.2,0.1-0.4,0.2-0.4,0.3
		c0,0.5,0,1,0,1.5c0,0.1,0.2,0.2,0.3,0.1c0.1,0,0.2-0.2,0.2-0.3C74.4,143.2,74.4,142.7,74.4,142z M80.2,139.7c-0.1,0-0.1,0-0.2,0
		c0.1,1.2-0.1,2.5,0.2,3.7C80.2,142.2,80.2,141,80.2,139.7z M76.3,137.7c-0.7,0.6-0.3,1.4-0.4,2.2C76.6,139.3,76.2,138.5,76.3,137.7
		z M76.8,136.8c-0.6,0.6-0.3,1.3-0.4,2.1C77.1,138.2,76.8,137.5,76.8,136.8z M73.8,140.9c-0.7,0.2-0.9,0.7-0.5,1.5
		C74,142.1,73.5,141.4,73.8,140.9z M75.1,139.4c-0.6,0.4-0.7,1.1-0.4,1.9C75.3,140.8,74.9,140.1,75.1,139.4z M60.1,141.7
		c0,0.2-0.1,0.4,0,0.5c0.1,0.2,0.4,0.4,0.6,0.5c0.1,0,0.3-0.1,0.5-0.2c-0.2-0.2-0.3-0.4-0.5-0.5C60.5,141.9,60.3,141.8,60.1,141.7z
		 M64.3,142.8c0.2-0.7-0.2-0.9-0.7-1C63.5,142.8,63.5,142.9,64.3,142.8z M75.2,140.5c0.7-0.5,0.3-1.2,0.4-1.9
		C74.8,139.2,75.4,139.9,75.2,140.5z M19.5,142.9c0.4-0.5,0.7-0.8,1.1-1.2c-0.5,0-0.8,0-1.1,0C19.5,142.1,19.5,142.4,19.5,142.9z
		 M73.7,142.5c-0.6,0.1-0.6,0.6-0.5,1c0,0.2,0.3,0.3,0.6,0.6c0-0.6,0-1,0-1.4C73.7,142.7,73.7,142.6,73.7,142.5z M19.6,143.1
		c1.1,0.1,1.2,0.1,1-1.1C20.3,142.4,20,142.7,19.6,143.1z M19.1,143.2c0,0,0-0.1,0.1-0.1c-0.3-0.4-0.6-0.7-1-1.1c0,0.5,0,0.8,0,1.1
		C18.5,143.1,18.8,143.2,19.1,143.2z M37.8,143c0.3-0.3,0.6-0.5,0.9-0.8c-0.5-0.1-0.9-0.1-1.2-0.2c0,0.1-0.1,0.1-0.1,0.2
		C37.5,142.5,37.6,142.7,37.8,143z M73.9,141.9c0.8-0.5,0.5-1.1,0.5-1.7C73.7,140.6,74,141.3,73.9,141.9z M81,141.9
		C81,141.9,81,141.9,81,141.9c-0.1,0.9-0.1,1.8-0.1,2.7c0,0,0,0,0.1,0C81,143.7,81,142.8,81,141.9z M24.6,143.1
		c-0.4-0.4-0.6-0.7-1-1.2c0,0.5,0,0.9,0,1.2C23.9,143.1,24.2,143.1,24.6,143.1z M20.9,143.1c0.3,0,0.6,0,1,0c-0.4-0.4-0.6-0.8-1-1.2
		C20.9,142.4,20.9,142.7,20.9,143.1z M24.7,141.8c-0.3,0-0.6,0-0.9,0c-0.1,0.1-0.1,0.1-0.2,0.2c0.2,0.1,0.4,0.2,0.6,0.3
		c0.2,0.1,0.3,0.3,0.5,0.5C24.7,142.5,24.7,142.2,24.7,141.8z M78.3,142.3c0.4-0.5,0.4-1.7,0-1.9C78.3,141,78.3,141.6,78.3,142.3z
		 M19.2,142.6c0-0.3,0-0.6,0-0.9c-0.3,0-0.6,0-0.9,0.1C18.7,142,18.9,142.3,19.2,142.6z M23.3,141.8c-0.4,0-0.7-0.1-1-0.1
		c0,0.3,0,0.6,0,1C22.7,142.4,23,142.1,23.3,141.8z M23.3,142.1c-0.4,0.4-0.7,0.7-1.1,1.1c0.5,0,0.8-0.1,1.1-0.1
		C23.3,142.8,23.3,142.5,23.3,142.1z M21.9,142.7c0-0.4,0.2-0.8,0.1-0.9c-0.2-0.2-0.6-0.2-0.9-0.2c0,0.1,0,0.1,0,0.1
		C21.2,142,21.5,142.3,21.9,142.7z M30.1,143.2c-0.4-0.4-0.7-0.7-1-1c0,0-0.1,0.1-0.1,0.1c0,0.3,0.1,0.6,0.1,0.9
		C29.4,143.2,29.6,143.2,30.1,143.2z M30.1,141.9c-0.3,0-0.6,0-1.1,0c0.4,0.4,0.7,0.7,1.1,1C30.1,142.6,30.1,142.3,30.1,141.9z
		 M35.2,143.3c-0.2-0.3-0.5-0.6-0.8-1C34.4,143.4,34.4,143.4,35.2,143.3z M33,142c0,0.3,0,0.6,0.1,0.9c0.4-0.3,0.7-0.6,1.1-0.9
		C33.8,142,33.4,142,33,142z M30.4,143c0.4-0.4,0.6-0.6,0.9-0.9c-0.3-0.1-0.6-0.1-0.9-0.2C30.4,142.2,30.4,142.5,30.4,143z
		 M78.3,143c0,0.5,0,1.1,0,1.8C78.7,144,78.7,143.1,78.3,143z M25,141.8c0,0.3,0,0.6,0,1c0.4-0.3,0.6-0.6,1-1
		C25.6,141.8,25.3,141.8,25,141.8z M72.5,142.8c0.8-0.4,0.4-0.9,0.5-1.4C72.3,141.7,72.6,142.2,72.5,142.8z M26.1,143.1
		c0-0.4,0-0.6,0-1c-0.4,0.4-0.6,0.7-1,1.1C25.4,143.2,25.7,143.2,26.1,143.1z M31.4,143.2c0-0.3,0-0.5,0-1c-0.4,0.4-0.6,0.7-0.9,1
		C30.8,143.2,31.1,143.2,31.4,143.2z M81.3,144.6c0.1,0,0.2,0,0.3,0c-0.1-0.5-0.1-1-0.2-1.5c0,0-0.1,0-0.1,0
		C81.3,143.6,81.3,144.1,81.3,144.6z M34.1,142.3c-0.3,0.3-0.5,0.5-0.9,0.8c0.4,0.1,0.6,0.1,0.9,0.2C34.1,143,34.1,142.7,34.1,142.3
		z M78.1,140.4c0,0-0.1,0-0.1,0c0,0.6,0,1.2,0,1.9c0,0,0.1,0,0.1,0C78.1,141.6,78.1,141,78.1,140.4z M77.6,140.3
		c-0.3,0.6-0.3,1.7,0,1.9C77.6,141.6,77.6,141,77.6,140.3z M78.5,136.2c-0.1,0-0.2,0-0.3,0c0,0.4,0,0.9,0.1,1.3c0.1,0,0.1,0,0.2,0
		C78.5,137.1,78.5,136.6,78.5,136.2z M72.3,141.9c-0.1,0-0.2,0-0.2,0c-0.1,0.3-0.2,0.7-0.3,1.1c0.2-0.1,0.5-0.1,0.5-0.2
		C72.3,142.5,72.3,142.2,72.3,141.9z M44.2,142.8c0,0-0.1-0.1-0.1-0.1c-0.2,0.2-0.4,0.5-0.7,0.7c0.3,0,0.6,0,0.8,0
		C44.2,143.2,44.2,143,44.2,142.8z M44.6,142.5c-0.1,0.1-0.2,0.1-0.2,0.2c-0.1,0.7,0,0.8,0.6,0.6C44.9,143.1,44.7,142.8,44.6,142.5z
		 M46.3,142.5c-0.3,0-0.6-0.1-0.7,0c-0.1,0.1-0.1,0.4-0.1,0.6c0.1,0,0.1,0,0.2,0C45.9,143,46,142.8,46.3,142.5z M79.4,142.6
		c0,0-0.1,0-0.1,0c0,0.6,0,1.2,0,1.8c0,0,0.1,0,0.1,0C79.4,143.8,79.4,143.2,79.4,142.6z M49.5,143.6c0-0.1,0.1-0.2,0.1-0.2
		c-0.2-0.2-0.4-0.3-0.6-0.5c0,0.2-0.1,0.4-0.1,0.5C49,143.5,49.3,143.5,49.5,143.6z M72.9,143c-0.5,0-0.5,0.4-0.4,0.6
		c0,0.1,0.2,0.2,0.4,0.3C72.9,143.5,72.9,143.2,72.9,143z M47.8,142.5c0,0.3,0,0.5,0,0.9c0.3-0.3,0.5-0.5,0.8-0.8
		C48.2,142.5,48,142.5,47.8,142.5z M78.1,143c0,0-0.1,0-0.1,0c0,0.5,0,1,0,1.5c0,0,0.1,0,0.1,0C78.1,144,78.1,143.5,78.1,143z
		 M71.6,142.3c-0.1,0-0.1-0.1-0.2-0.1c-0.1,0.3-0.2,0.6-0.3,0.9C71.8,143,71.7,142.7,71.6,142.3z M44.5,142.4
		c0.3,0.3,0.5,0.5,0.8,0.8C45.4,142.4,45.4,142.3,44.5,142.4z M50.8,142.8c0,0-0.1-0.1-0.1-0.1c-0.2,0-0.4,0-0.6,0
		c0,0.2,0,0.4,0,0.7C50.4,143.1,50.6,142.9,50.8,142.8z M51.2,142.9c-0.1,0.8,0,0.9,0.6,0.7C51.6,143.4,51.4,143.2,51.2,142.9z"/>
	<path class="st0" d="M218,67.5c-0.5,1.2-0.9,2.3-1.3,3.4c-1,2.4-1.9,4.8-2.9,7.1c-0.7,1.7-1.3,3.3-2,5c-0.1,0.3-0.3,0.5-0.7,0.5
		c-1.6,0-3.1,0-4.7,0c-22.8,0-45.6,0-68.5,0c-0.5,0-0.8-0.1-1.1-0.6c-0.5-1-1.1-1.9-1.8-2.9c-0.3,0.7-0.6,1.3-0.8,1.9
		c-0.2,0.5-0.3,1.3-0.7,1.6c-0.4,0.3-1.1,0.1-1.6,0.1c-4.1,0-8.2,0-12.3,0c-0.2,0-0.4,0-0.7,0c0.3-0.7,0.5-1.3,0.8-2
		c-0.5,0-0.9,0-1.3,0c-0.1,0-0.2,0.1-0.3,0.2c-0.2,0.3-0.4,0.6-0.4,0.9c-0.1,0.8-0.6,0.9-1.3,0.9c-4.6,0-9.1,0-13.7,0
		c0.4-1,0.8-2,1.2-3.1c-0.5,0-0.8,0-1.2,0c-0.2,0-0.4,0.2-0.5,0.4c-0.3,0.7-0.6,1.5-0.9,2.2c-0.1,0.3-0.2,0.5-0.6,0.5
		c-2.4,0-4.9,0-7.4,0c1.2-3.1,2.5-6.2,3.7-9.3c-0.5,0-1,0-1.5,0c-0.1,0-0.3,0.2-0.3,0.4c-0.6,1.5-1.2,3-1.8,4.4
		c-0.1,0.1-0.4,0.3-0.6,0.3c-1.4,0-2.7,0-4.1,0c-0.4,0-0.7,0.1-0.8,0.5c-0.4,1.1-0.8,2.1-1.3,3.2c-0.1,0.2-0.3,0.4-0.4,0.4
		c-2.5,0-4.9,0-7.5,0c0.5-1.3,1-2.5,1.5-3.7c1.1-2.8,2.2-5.6,3.3-8.4c0.5-1.2,0.9-2.4,1.4-3.6c0.1-0.1,0.2-0.2,0.4-0.3
		c0.1,0,0.2,0,0.4,0c9.1,0,18.3,0,27.4,0c0.5,0,0.8,0.1,1,0.6c0.3,0.5,0.6,1.1,1,1.7c0.2-0.6,0.5-1.2,0.7-1.7
		c0.1-0.4,0.3-0.5,0.7-0.5c7,0,14,0,21,0c0.5,0,0.7,0.3,0.9,0.7c0.5,0.9,1,1.7,1.5,2.6c0.1,0.1,0.1,0.2,0.3,0.3
		c0.4-1.1,0.9-2.1,1.3-3.1c0.1-0.3,0.2-0.5,0.6-0.4c0.1,0,0.2,0,0.4,0c24.9,0,49.9,0,74.8,0C217.4,67.5,217.6,67.5,218,67.5z
		 M215.3,69.4c-0.1,0-0.2-0.1-0.2-0.1c-4.2,0-8.5,0-12.7,0c-0.2,0-0.5,0.2-0.5,0.4c-0.3,0.6-0.5,1.3-0.8,1.9
		c-0.8,2.1-1.7,4.3-2.6,6.4c-0.5,1.2-1,2.5-1.5,3.7c4.4,0,8.7,0,13,0c0.2,0,0.4-0.1,0.4-0.3c0.5-1.2,1-2.5,1.5-3.7
		c0.7-1.9,1.5-3.7,2.3-5.6C214.6,71.3,215,70.3,215.3,69.4z M112.2,81.7c1.4,0,2.7,0,4,0c0.3-0.7,0.5-1.4,0.8-2c1.8,0,3.5,0,5.4,0
		c-0.3,0.7-0.5,1.3-0.8,2.1c1,0,2-0.1,2.9,0c0.7,0.1,1.2-0.1,1.4-0.9c0.2-0.6,0.4-1.1,0.6-1.7c0.6-1.4,1.2-2.9,1.8-4.3
		c0.7-1.8,1.4-3.6,2.2-5.5c-0.1,0-0.1-0.1-0.1-0.1c-4.3,0-8.6,0-12.8,0c-0.2,0-0.4,0.2-0.5,0.3c-0.4,0.9-0.7,1.7-1,2.6
		c-0.7,1.8-1.5,3.7-2.2,5.5C113.2,79.1,112.7,80.4,112.2,81.7z M109.2,81.7c0.4-0.9,0.7-1.9,1.1-2.8c0.3-0.6,0.4-1.1-0.1-1.7
		c-0.3-0.4-0.2-0.6,0.2-0.8c0.6-0.4,1.2-0.6,1.5-1.4c0.4-1.1,0.8-2.2,1.3-3.2c0.4-0.8,0.4-1.4-0.1-2.1c-0.3-0.4-0.5-0.5-0.9-0.5
		c-3.2,0-6.5,0-9.7,0c-1.4,0-1.4,0-2,1.3c-0.1,0.2-0.2,0.4-0.3,0.6c-1,2.4-1.9,4.8-2.9,7.1c-0.4,1.1-0.9,2.2-1.3,3.3
		c1.3,0,2.4,0,3.6,0c0.2,0,0.4-0.2,0.5-0.4c0.4-0.9,0.7-1.8,1.1-2.7c1.2,0,2.3,0,3.5,0c0.1,0,0.3,0,0.3,0.1c0.3,0.5,0.7,0.9,0.9,1.4
		c0.1,0.2-0.2,0.6-0.3,0.9c-0.1,0.2-0.1,0.5-0.2,0.7C106.6,81.7,107.9,81.7,109.2,81.7z M146.7,69.3c-1.3,0-2.5,0-3.7,0
		c-0.1,0-0.4,0.2-0.4,0.3c-0.3,0.6-0.5,1.3-0.7,1.9c-0.5,1.2-0.9,2.3-1.5,3.6c-1.1-1.9-2.2-3.6-3.3-5.4c-0.1-0.2-0.3-0.3-0.5-0.4
		c-1,0-2,0-3,0c-0.1,0-0.3,0.2-0.4,0.3c-0.3,0.8-0.6,1.5-1,2.3c-1,2.5-2,5.1-3,7.6c-0.3,0.7-0.6,1.4-0.9,2.2c1.4,0,2.7,0,4,0
		c0.8-1.9,1.5-3.8,2.3-5.7c1.1,1.9,2.2,3.7,3.3,5.4c0.1,0.1,0.3,0.3,0.5,0.3c1,0,1.9,0,2.9,0c0.1,0,0.4-0.2,0.4-0.3
		c0.4-0.9,0.7-1.8,1.1-2.6c0.8-2.1,1.7-4.2,2.5-6.3C145.9,71.5,146.3,70.5,146.7,69.3z M176.8,78.6c-3.1,0-6.2,0-9.3,0
		c-0.4,1-0.8,2-1.3,3.1c4.5,0,8.9,0,13.4,0c0.9-2.4,1.9-4.7,2.9-7.1c-3.1,0-6.2,0-9.3,0c0.2-0.6,0.5-1.1,0.6-1.7
		c0.1-0.4,0.3-0.5,0.6-0.5c2.4,0,4.7,0,7.1,0c0.6,0,1.3,0.2,1.8-0.1c0.4-0.2,0.5-1,0.7-1.5c0.2-0.5,0.4-0.9,0.5-1.4
		c-0.2-0.1-0.2-0.1-0.2-0.1c-4.2,0-8.5,0-12.7,0c-0.2,0-0.4,0.2-0.5,0.4c-0.5,1.1-0.9,2.3-1.4,3.5c-0.4,1.1-0.9,2.2-1.4,3.4
		c3.2,0,6.2,0,9.4,0C177.3,77.3,177,78,176.8,78.6z M195.8,77.7c-2.3,0-4.4,0-6.6,0c0.5-1.3,1-2.6,1.6-3.8c0.1-0.2,0.4-0.3,0.6-0.3
		c1.7,0,3.4-0.1,5.1,0c0.8,0,1.2-0.1,1.4-0.9c0.4-1.1,0.9-2.2,1.3-3.3c-3.9,0-7.8,0-11.7,0c-1.7,4.1-3.3,8.2-5,12.4
		c3.8,0,7.6,0,11.4,0c0.1,0,0.3-0.1,0.4-0.3C194.7,80.2,195.2,79,195.8,77.7z M158,77.7c-2.2,0-4.4,0-6.5,0c0-0.1,0-0.2,0-0.2
		c0.5-1.2,0.9-2.4,1.4-3.6c0.1-0.3,0.3-0.4,0.6-0.4c1.9,0,3.8,0,5.7,0c0.3,0,0.5,0,0.6-0.4c0.2-0.6,0.5-1.2,0.7-1.9
		c0.2-0.6,0.5-1.2,0.7-1.8c-0.1-0.1-0.1-0.1-0.1-0.1c-3.7,0-7.5,0-11.2,0c-0.1,0-0.3,0.1-0.3,0.2c-0.2,0.3-0.3,0.6-0.4,1
		c-0.9,2.3-1.8,4.6-2.8,6.9c-0.6,1.4-1.1,2.8-1.7,4.3c3.9,0,7.8,0,11.7,0C156.9,80.4,157.4,79.1,158,77.7z M93.3,74.6
		c-1.7,0-3.4,0-5.1,0c0.3-0.8,0.5-1.5,0.8-2.2c2.5,0,4.9,0,7.3,0c0.2,0,0.5-0.1,0.6-0.2c0.4-0.9,0.8-1.9,1.1-2.8
		c-0.1,0-0.1-0.1-0.1-0.1c-3.8,0-7.6,0-11.3,0c-0.1,0-0.3,0.1-0.4,0.3c-0.2,0.4-0.3,0.8-0.5,1.2c-1.1,2.8-2.2,5.6-3.3,8.3
		c-0.3,0.8-0.7,1.7-1,2.6c1.2,0,2.3,0,3.4,0c0.6,0,0.7-0.2,0.9-0.7c0.4-1.2,0.9-2.3,1.4-3.5c1.6,0,3.2,0,4.7,0
		c0.2,0,0.5-0.2,0.6-0.3C92.6,76.4,92.9,75.5,93.3,74.6z M163.3,81.7c1.6-4.1,3.3-8.2,4.9-12.4c-1.1,0-2,0-3,0c-1.1,0-1,0-1.4,1
		c-0.8,2.1-1.7,4.3-2.5,6.4c-0.7,1.7-1.3,3.3-2,5C160.6,81.7,162,81.7,163.3,81.7z M191.8,75.9c1.8,0,3.6,0,5.4,0
		c0.2,0,0.4-0.3,0.5-0.4c-0.2-0.1-0.4-0.3-0.6-0.3c-1.5,0-3.1,0-4.6,0C192.1,75.1,191.8,75.3,191.8,75.9z M160,75.3
		c-0.1,0-0.2-0.1-0.2-0.1c-1.7,0-3.4,0-5.1,0c-0.5,0-0.5,0.3-0.5,0.7c1.7,0,3.4,0,5.1,0C159.6,75.9,159.9,75.8,160,75.3z"/>
	<path class="st0" d="M48.2,83.5c0.3-0.7,0.5-1.4,0.8-2.1c-0.5,0-0.9-0.1-1.4-0.1c-0.1,0-0.3,0.2-0.3,0.3c-0.2,0.4-0.3,0.9-0.5,1.3
		c-0.1,0.4-0.3,0.5-0.7,0.5c-7.7,0-15.5,0-23.2,0c-0.1,0-0.1,0-0.3,0c0.3-0.8,0.6-1.6,0.9-2.3c1.5-3.7,3-7.4,4.4-11.2
		c0.3-0.6,0.5-1.3,0.8-1.9c0.2-0.4,0.4-0.6,0.9-0.6c8,0,15.9,0,23.9,0c4.4,0,8.7,0,13.1,0c0.4,0,0.7,0.1,0.9,0.5
		c0.6,1,1.2,2.1,1.9,3.2c0.4-1,0.8-2,1.2-2.9c0.2-0.5,0.3-0.7,0.9-0.7c2.4,0,4.7,0,7.2,0c-2.1,5.4-4.3,10.7-6.4,16
		c-1.8,0-3.6,0-5.4,0c-0.2,0-0.4-0.2-0.5-0.4c-0.6-1-1.2-2-1.9-3.2c-0.3,0.8-0.6,1.5-0.9,2.2c-0.5,1.4-0.5,1.4-2,1.4
		c-4.1,0-8.3,0-12.4,0C48.8,83.5,48.5,83.5,48.2,83.5z M41.4,81.7c1.4,0,2.7,0,4,0c0.1-0.4,0.3-0.9,0.5-1.3c0.1-0.3,0.4-0.7,0.6-0.7
		c1.7-0.1,3.3,0,5,0c-0.3,0.7-0.5,1.3-0.8,2c1.4,0,2.7,0,4,0c1.6-4.1,3.3-8.2,5-12.4c-4.4,0-8.8,0-13.1,0c-0.1,0-0.3,0.2-0.4,0.3
		c-0.4,0.8-0.7,1.7-1,2.5c-0.7,1.7-1.4,3.4-2.1,5.1C42.6,78.8,42,80.2,41.4,81.7z M69.7,75.1c-1.1-1.9-2.2-3.7-3.2-5.4
		c-0.1-0.2-0.4-0.3-0.6-0.4c-0.9,0-1.8,0-2.7,0c-0.4,0-0.5,0.1-0.7,0.4c-1.3,3.4-2.7,6.7-4,10.1c-0.2,0.6-0.5,1.2-0.8,1.9
		c1.2,0,2.3,0,3.4,0c0.5,0,0.7-0.2,0.8-0.6c0.6-1.7,1.3-3.3,2-5.1c0.1,0.1,0.2,0.2,0.3,0.2c1,1.7,2,3.4,3,5.1
		c0.1,0.1,0.3,0.3,0.4,0.3c1,0,2,0,3,0c0.2,0,0.4-0.2,0.4-0.3c0.4-0.8,0.7-1.6,1-2.4c1-2.5,2-5,3-7.5c0.3-0.7,0.5-1.4,0.8-2.1
		c-1.4,0-2.7,0-4,0C71.3,71.2,70.5,73.1,69.7,75.1z M43.5,69.4c-0.2,0-0.3-0.1-0.5-0.1c-4.2,0-8.4,0-12.5,0c-0.2,0-0.4,0.2-0.5,0.4
		c-0.5,1.2-1,2.4-1.5,3.6c-0.4,1.1-0.9,2.2-1.4,3.3c3.2,0,6.3,0,9.4,0c-0.2,0.5-0.5,0.9-0.6,1.3c-0.2,0.7-0.7,0.7-1.2,0.7
		c-2.7,0-5.3,0-8,0c-0.2,0-0.4,0.1-0.5,0.2c-0.4,0.9-0.7,1.9-1.1,2.9c0.3,0,0.5,0,0.7,0c4,0,8,0,12.1,0c0.5,0,0.7-0.2,0.9-0.6
		c0.5-1.3,1-2.5,1.5-3.8c0.4-0.9,0.7-1.8,1.1-2.8c-3.1,0-6.2,0-9.3,0c0.2-0.6,0.5-1.1,0.6-1.6c0.1-0.4,0.3-0.5,0.7-0.5
		c2.8,0,5.6,0,8.4,0c0.3,0,0.5-0.1,0.6-0.4C42.7,71.2,43.1,70.4,43.5,69.4z"/>
	<path class="st0" d="M209.7,73.5c-0.5,1.4-1,2.7-1.6,3.9c0,0.1-0.2,0.2-0.4,0.2c-1.6,0-3.3,0-5.1,0c0.3-0.8,0.6-1.5,0.9-2.2
		c0.2-0.6,0.4-1.1,0.7-1.7c0.1-0.2,0.3-0.3,0.4-0.3C206.3,73.5,208,73.5,209.7,73.5z M205.4,75.9c0.5,0,1,0,1.5,0
		c0.1-0.2,0.1-0.4,0.2-0.6C205.8,75.1,205.3,75.1,205.4,75.9z"/>
	<path class="st0" d="M124.9,73.3c-0.3,0.8-0.6,1.5-0.9,2.1c0,0.1-0.2,0.1-0.3,0.1c-1.1,0-2.2,0.1-3.2,0.1c-0.6,0-1.2,0-1.9,0
		c0.3-0.8,0.6-1.5,0.9-2.1c0-0.1,0.3-0.1,0.5-0.1c1.4,0,2.9,0.1,4.3,0.1C124.4,73.5,124.6,73.4,124.9,73.3z"/>
	<path class="st0" d="M108.9,72.4c-0.3,0.7-0.5,1.4-0.8,2.1c-1.8,0-3.5,0-5.3,0c0.2-0.7,0.4-1.3,0.6-1.9c0-0.1,0.2-0.2,0.3-0.2
		C105.5,72.4,107.2,72.4,108.9,72.4z"/>
	<path class="st0" d="M48,75.5c0.2-0.6,0.4-1.2,0.7-1.8c0.1-0.1,0.3-0.2,0.4-0.2c1.7,0,3.3,0,5,0c-0.2,0.6-0.5,1.2-0.7,1.8
		c-0.1,0.1-0.2,0.2-0.4,0.2C51.3,75.5,49.7,75.5,48,75.5z"/>
</g>
</svg>
