<?xml version="1.0" encoding="utf-8"?>
<!-- Generator: Adobe Illustrator 24.0.2, SVG Export Plug-In . SVG Version: 6.00 Build 0)  -->
<svg version="1.1"
	 id="Слой_1" shape-rendering="geometricPrecision" image-rendering="optimizeQuality" text-rendering="geometricPrecision" xmlns:xodm="http://www.corel.com/coreldraw/odm/2003"
	 xmlns="http://www.w3.org/2000/svg" xmlns:xlink="http://www.w3.org/1999/xlink" x="0px" y="0px" viewBox="0 0 238.1 150.2"
	 style="enable-background:new 0 0 238.1 150.2;" xml:space="preserve">
<style type="text/css">
	.st0{fill-rule:evenodd;clip-rule:evenodd;}
</style>
<g id="Layer_x0020_1">
	<path class="st0 fillable" d="M142.7,62.9c2.7-0.8,4.6-1,7.5-0.7c0.5,0.1,1.9,0.3,2.3,0.4c-0.1,0.3-1.5,1.7-1.9,2l-1.3,1.3
		c-0.4,0.3-1.6,1.7-1.9,1.8c-0.1-0.1-0.8-0.7-1-0.8c-0.1-0.1-0.2-0.2-0.3-0.3c-0.4-0.4-0.8-0.8-1.2-1.2
		C144.7,65.1,142.8,63.3,142.7,62.9z M186.7,122.6h2.9v-2.7h-2.9V122.6z M135.7,135h1.9v-15.1h-1.9V135z M186.7,135h2.9v-11h-2.9
		V135z M182.2,125.4V124h-2.8v11h2.9c0-1.5-0.1-5.7,0.2-6.9c0.6-2.8,2.8-1.3,3.1-1.3c0.2-0.4,0.7-2.1,0.9-2.5
		c-1.1-0.6-2.6-1-3.6,0.1C182.8,124.7,182.4,125.2,182.2,125.4L182.2,125.4z M118.9,125.3c0.8,0,1.7,0.4,2.1,0.9
		c0.5,0.5,0.8,1.3,0.8,2.2h-6c0-0.9,0.4-1.7,0.9-2.2C117.4,125.7,118,125.3,118.9,125.3z M113.8,129.1c0,1.9,0.1,3.4,1.5,4.7
		c1.9,1.8,5.4,1.8,7,0.5c0.7-0.6,1.5-1.7,1.6-2.6c-0.7,0-1.3-0.2-2-0.2c-0.7,3-5.3,3.3-6.1-0.7c0-0.2,0-0.6-0.1-0.8h8.2v-0.8
		C123.9,121.8,113.8,122.1,113.8,129.1z M128.7,133.8c-1,0-1.8-0.3-2.1-1.1c-0.4-0.8,0-1.7,0.7-2c0.8-0.4,2.5-0.5,3.6-0.8
		c0.4-0.1,0.9-0.3,1.2-0.3c0,1.3,0.1,2.1-0.7,3.1C130.9,133.3,129.9,133.8,128.7,133.8L128.7,133.8z M124.8,127.2
		c0.6,0,1.3,0.2,1.9,0.2c0-0.6,0.5-1.4,0.8-1.6c1-0.7,3.2-0.7,4,0.1c0.7,0.6,0.6,1,0.6,2.1c-0.8,0.2-1.4,0.3-2.3,0.5
		c-1.5,0.2-3.3,0.2-4.4,1.3c-1.9,1.8-1,5.4,2.8,5.4c1.2,0,2.3-0.4,3.3-1c0.3-0.2,0.5-0.4,0.8-0.6c0,0.4,0.2,1,0.4,1.3h1.9
		c-0.1-0.4-0.3-0.7-0.4-1.1c-0.2-1.1-0.2-3.3-0.2-4.5c0-2.3,0.2-3.9-1.2-4.9c-1.4-0.9-4.5-0.9-6.2,0
		C125.6,125,124.9,126.1,124.8,127.2L124.8,127.2z M161.1,133.2h-0.4c-0.7,0-1.4-0.6-1.4-1.5c0-0.9,0.8-1.1,1.5-1.3
		c0.8-0.2,1.6-0.4,2.3-0.6c0,1,0.1,1.8-0.3,2.4C162.6,132.7,161.8,133.2,161.1,133.2z M156.7,127c0.3,0,2.5,0.4,2.6,0.5
		c0.1-0.4,0.4-0.8,0.6-1c0.8-0.6,2.4-0.4,2.8-0.1c0.5,0.4,0.4,0.8,0.4,1.5l-4.4,1c-0.7,0.2-1.2,0.5-1.7,1c-1.4,1.6-1,5.3,3.1,5.3
		c1,0,1.9-0.4,2.6-0.9c0.2-0.2,0.5-0.4,0.7-0.5c0,0.4,0.2,0.8,0.3,1.1h2.9c-0.1-0.3-0.1-0.4-0.2-0.7c-0.1-0.2-0.2-0.5-0.2-0.8
		c-0.4-1.6,0.2-5.4-0.2-7.2c-0.1-0.3-0.1-0.7-0.3-0.9c-0.1-0.2-0.1-0.2-0.3-0.3c-0.5-0.6-1.2-1-2.1-1.1c-1.9-0.4-4.6-0.3-5.9,1.3
		C157.2,125.6,156.7,126.5,156.7,127z M106.8,126.5h-4.3v-5h4.6c1.3,0,2.4,0.2,3.1,1.2c0.7,1.1,0.2,2.6-0.7,3.2
		C108.9,126.4,107.9,126.5,106.8,126.5L106.8,126.5z M100.5,135h2v-6.7h3.2c1.1,0,2,1.2,2.6,2c1.1,1.5,2,3.2,3,4.7h2.5
		c-0.1-0.3-1.4-2.4-1.7-2.8c-0.7-1.2-1-1.6-1.9-2.7c-0.7-0.9-1.1-0.9-1.6-1.3c-0.2-0.1,0,0-0.1-0.1c1.6-0.1,3.2-1,3.8-2.5
		c0.5-1.2,0.4-2.4-0.1-3.5c-0.2-0.4-0.6-0.9-0.9-1.2c-0.9-0.8-2-1-3.3-1h-7.5L100.5,135L100.5,135z M170.1,129.3
		c0-1.2,0.3-2.5,1.3-3c1.1-0.6,2.3-0.3,2.9,0.6c0.8,1.1,0.9,3.8,0,5C173.3,133.6,170.1,133.7,170.1,129.3L170.1,129.3z M175,125.2
		c-0.4-0.3-1-1.2-2.4-1.4c-1.1-0.2-2.3,0-3.1,0.5c-3,1.7-3,6.9-1.3,9.1c1.6,2.1,4.5,2.4,6.2,0.7c0.2-0.2,0.4-0.5,0.7-0.6v1.4h2.7
		v-15.1H175L175,125.2L175,125.2z M196.4,133c-2.5,0-2.5-2.4-2.5-4.1c0-3.6,4.8-4.4,4.8,0.7c0,0.9-0.2,1.8-0.5,2.3
		C197.8,132.4,197.2,133,196.4,133z M198.6,125.2c-0.3-0.2-0.8-1-2.2-1.4c-1.1-0.2-2.2,0-3,0.4c-0.5,0.2-0.8,0.5-1.2,0.9
		c-2.2,2.3-1.9,8,1.1,9.6c3.3,1.8,5.3-1.1,5.5-1.3v1.5h2.7v-15.1h-2.9L198.6,125.2L198.6,125.2z M141.9,125.5V124h-2.7v11h2.9v-5.7
		c0-1.5,0.3-3.3,2.2-3.3c1.6,0,1.5,1.8,1.5,3.3v5.7h2.9c0-1.4-0.1-6.3,0.2-7.4c0.1-0.5,0.3-0.8,0.7-1.1c0.8-0.7,2.1-0.7,2.6,0.3
		c0.4,1,0.2,6.9,0.2,8.2h2.9c0-1.6,0.1-7.9-0.3-9.1c-0.3-0.9-0.9-1.5-1.7-1.8c-1.4-0.6-2.9-0.3-4.1,0.6c-0.4,0.3-0.6,0.6-1,0.9
		C148,124.2,144.6,122.3,141.9,125.5L141.9,125.5z M133.5,32.2c-1,0-1.5-0.1-2-0.7c-0.4-0.5-0.7-1.4-0.5-2.1c0.2-0.9,1.1-1.3,1-1.8
		c0-0.2-0.5-0.6-0.6-0.8c-0.5-0.6-0.3-0.6-0.5-0.9c-0.5,0-2.5,0.8-3,1.1c-0.3,0.2-1.1,0.5-1.3,0.7c-0.5,0.6-0.9,3.3-0.7,4.2
		c0,0.3,0.2,0.4,0.3,0.7c1.1,1.7,0.2,2.3,0,3.1c0.6,0,1-0.4,1.2-0.8c0.4-0.7,0.1-0.4-0.2-1.4c-0.6-1.9,1.7-3.1,3.1-1.9
		c0.4,0.4,0.6,0.6,0.9,1.1C132.4,34.2,133.6,32.5,133.5,32.2L133.5,32.2z M164.3,25.8c-0.2,0.2-0.4,0.6-0.5,0.9
		c-0.6,0.8-1.1,0.7-0.3,1.7c0.8,1,0.8,2,0.1,3.1c-0.7,0.9-1.4,0.8-2,0.8c0,0.4,0.6,0.9,1,1.1c1.4,0.5,1.5-2.5,3.7-2.2
		c1,0.1,2,1.1,1.6,2.3c-0.3,1-0.6,0.7-0.2,1.4c0.2,0.4,0.6,0.9,1.1,0.9c0-0.5-0.5-0.7-0.4-1.6c0-0.6,0.3-1.1,0.6-1.5
		c0.1-0.2,0.3-0.4,0.4-0.7c0.1-0.7-0.1-2.1-0.2-2.8c-0.3-1.4-0.5-1.9-1.6-2.4C166.9,26.6,164.9,25.8,164.3,25.8L164.3,25.8z
		 M136.5,26.8c0.2,0.1,0.2,0.1,0.3,0.2c0.1,0.1,0.3,0.1,0.4,0.1c0.7,0.2,1.2,0.8,1.3,1.6c0.1,0.9-0.1,1.6-0.8,2.1
		c-0.1,0.1-0.5,0.3-0.6,0.5c0.1,0.3,0.8,0.8,1.4,0.3c0.3-0.3,1-0.8,0.9-1.3c-0.3-1.5,0-2.6,1.6-2.7c1.5-0.1,2.1,0.8,2.3,2.2
		c0,0.5,0,0.5,0.3,0.8c0.9,0.6,1.8,0.4,2.1-0.5c-0.4-0.3-1.4-0.1-1.9-1.1c-0.2-0.3-0.3-0.8-0.2-1.3c0.1-0.3,0.2-0.9,0.5-1
		c0-0.1,0,0,0.1-0.2c0,0,0.1-0.1,0.1-0.1c0.4-0.4,0.7-0.4,0.9-0.7c0.3-0.6,0.1-0.7,1-1.2c-0.1-0.4-0.4-0.5-0.4-1.1
		c-0.1-0.6,0.1-0.9,0.1-1.4c-2.5-0.3-5-0.2-7.1,0.7c-0.7,0.3-2.3,0.9-2.6,1.4c-0.2,0.3-0.4,1.2-0.5,1.6c-0.1,0.4,0.2,0.4,0.7,1
		C136.4,26.7,136.5,26.8,136.5,26.8C136.5,26.8,136.5,26.8,136.5,26.8z M149.3,22.2c-0.1,0.5,0.2,0.9,0.1,1.3
		c-0.1,0.4-0.4,0.6-0.4,1c0.2,0.2,0.4,0.2,0.7,0.6c0.2,0.3,0.2,0.6,0.4,0.8c0.4,0.3,0.9,0.4,1.2,1.3c0.4,1,0.2,2.1-0.9,2.6
		c-0.5,0.2-1.5,0.2-0.5,1c0.3,0.2,0.5,0.2,0.9,0.1c0.7-0.1,1-0.4,1.1-1.1c0.2-1.4,0.7-2.2,2.2-2.2c1.4,0.1,1.9,1.1,1.6,2.6
		c-0.1,0.4,0.1,0.5,0.3,0.8c0.2,0.2,0.3,0.4,0.5,0.6c0.2,0.2,0.4,0.3,0.8,0.2c0.3-0.1,0.6-0.2,0.7-0.5c-0.1-0.2-0.2-0.2-0.4-0.3
		c-0.5-0.3-0.8-0.8-0.9-1.4c-0.2-1,0.2-1.8,0.7-2.2c0.4-0.3,0.7-0.3,1-0.5c0.3-0.2,1.1-0.8,1.1-1.1c0-0.3-0.4-1.5-0.5-1.8
		c-0.2-0.6-0.1-0.6-0.7-0.9c-2-1-4.1-1.5-6.3-1.3C151.3,21.9,149.9,22,149.3,22.2L149.3,22.2z M126.5,73.7c0.1-0.2,0.5-1.5,0.6-1.9
		c0.7-2.1,2.1-4.7,3.5-6.4c0.8-1,1.5-1.6,2.4-2.6l1.3-1.2c0-0.1-1.5-1.6-1.7-1.8c-0.2-0.3-1.6-1.7-1.8-1.8l-2.1,2.2
		c-0.1,0.2-0.3,0.3-0.4,0.4c-0.3,0.3-0.5,0.6-0.8,0.9c-1,1.1-2,2.7-2.8,4.1c-0.6,1-1.2,2.3-1.7,3.5c-0.3,0.8-0.4,0.6,0.1,1.1
		C123.3,70.6,126.2,73.6,126.5,73.7L126.5,73.7z M165.8,41.7c-0.4-0.2-0.2-0.5,0.1-0.5C166.2,41.2,166.1,41.6,165.8,41.7z
		 M129.4,41.7c-0.4-0.1-0.3-0.3-0.2-0.6c0.2,0,0.3,0.1,0.4,0.3C129.5,41.6,129.5,41.6,129.4,41.7L129.4,41.7z M162.8,39.1
		c1.2-0.5,2,1.3,0.7,1.9c-0.7,0.3-1.1-0.1-1.3-0.6C162,39.8,162.4,39.3,162.8,39.1z M131.5,39.1c1.2-0.3,1.6,1.7,0.3,2
		C130.7,41.3,130,39.4,131.5,39.1z M155.7,37.6c0.2-0.2,1.3-0.3,1.6-0.3c0.9-0.1,1.1-0.2,1.6,0.1c0.4,0.3,1.9,1.3,2.1,1.6
		c-0.3,0.2-1.2,0.2-1.6,0.2c-0.6,0.1-1.2,0.2-1.6-0.1C157.3,38.9,155.8,37.9,155.7,37.6L155.7,37.6z M134.2,39
		c0.1-0.2,0.8-0.7,1-0.9c0.4-0.3,0.7-0.5,1.1-0.8c0.3-0.2,0.3-0.2,0.7-0.1c0.9,0.1,1.7,0.1,2.5,0.3c-0.1,0.2-0.3,0.4-0.5,0.5
		c-1.8,1.2-1.5,1.4-3.3,1.2C135.4,39.2,134.5,39.2,134.2,39z M152.5,36.2c0.6-0.2,1.1,0.3,1.2,0.7c0.2,0.6-0.3,1.2-0.7,1.3
		c-0.6,0.2-1.2-0.2-1.3-0.7C151.7,36.8,152,36.3,152.5,36.2z M141.8,36.2c0.8-0.2,1.6,0.9,0.9,1.7c-0.4,0.5-0.8,0.5-1.4,0.1
		C140.7,37.4,140.9,36.4,141.8,36.2L141.8,36.2z M144.7,36.9c0.1-0.1,2.8-1.1,2.9-1.1c0.1,0,2.6,0.9,2.8,1.1
		c-0.2,0.2-2.5,1.1-2.8,1.1c-0.2,0-1.2-0.4-1.4-0.5L144.7,36.9L144.7,36.9z M129.6,43c0.3-0.1,1.4-0.8,2.1-1.1
		c3.6-1.6,8.7-2.9,12.7-3.1c5.6-0.3,10.2,0.2,15.5,1.9c1.5,0.5,3.9,1.3,5.2,2c0.4,0.2,0.4,0.2,0.6,0.1c0.3-0.3,0.6-0.4,0.9-0.7
		c0.7-0.8,0-0.6,0.3-1c0.2-0.4,0.3-0.7,0-1.2c-0.2-0.3-0.6-0.5-1-0.7c-6.7-3.4-13.8-4.1-21.4-3.7c-3.7,0.2-7.5,0.9-10.7,2
		c-1.4,0.5-3.2,1.2-4.5,1.8c-0.3,0.2-0.7,0.3-0.9,0.7c-0.3,0.8,0.2,1,0.1,1.3c-0.1,0.4-0.4,0.2,0.4,1
		C129.1,42.3,129.5,42.7,129.6,43L129.6,43z M166.6,36.3c-0.6-0.1-3.2-1-3.8-1.3c0.1-0.3,0.5-0.2,1.1-0.5c0.5-0.2,0.7-0.4,1.3-0.2
		c0.7,0.2,0.4,0.3,0.8,0.9C166.2,35.6,166.5,35.9,166.6,36.3L166.6,36.3z M132.4,35c-0.2,0.2-2.6,1-3.2,1.2
		c-1.4,0.5-0.3-0.4,0.1-1.3c0.1-0.3,0.1-0.5,0.9-0.6c0.5-0.1,0.7,0.1,1.1,0.3C131.6,34.7,132.1,34.8,132.4,35L132.4,35z M170.2,34.7
		c-0.2-0.9,0.4-1.6,1.1-1.8c0.9-0.2,1.6,0.4,1.8,1.1C173.5,36.1,170.5,36.5,170.2,34.7z M122,34.7c-0.2-0.9,0.5-1.6,1.2-1.7
		c0.9-0.2,1.7,0.5,1.8,1.2C125.3,36.1,122.4,36.6,122,34.7L122,34.7z M157.3,33.5C157.3,33.5,157.3,33.5,157.3,33.5l0.1-0.1
		c0.1-0.1,0.1-0.1,0.2-0.1c0.8-0.4,1.7-1,2.1-1.9c0.2,0.1,0.3,0.9,0.6,1.6c0.1,0.3,0.2,0.5,0.4,0.8c0.1,0.2,0.3,0.5,0.4,0.7
		c-0.2,0-2.3-0.6-2.8-0.7L157.3,33.5C157.3,33.5,157.3,33.5,157.3,33.5C157.3,33.5,157.3,33.5,157.3,33.5L157.3,33.5z M134.1,34.5
		c0-0.3,0.5-1,0.6-1.4c0.1-0.4,0.4-1.4,0.5-1.6c0.2,0.1,0.4,0.4,0.5,0.6c0.3,0.3,0.9,0.8,1.3,1c0.2,0.1,0.6,0.2,0.7,0.5
		C137.3,33.7,134.5,34.5,134.1,34.5z M153.6,31.4c0.9,0,0.3,0.2,1.4,1.1c0.2,0.1,0.3,0.3,0.4,0.5c-0.5,0.1-3.7-0.2-4.1-0.4
		c0.1-0.1,0.8-0.5,1-0.7C152.8,31.6,152.8,31.4,153.6,31.4L153.6,31.4z M147.6,29.8c0.3,0.6,0.4,1.1,0.8,1.6c0.3,0.4,1.1,1,1.1,1.2
		l-3.9,0c0-0.1,0.4-0.5,0.5-0.6C147,30.9,147.3,29.9,147.6,29.8z M139.6,32.9c0-0.3,0.2-0.3,0.4-0.4c1-0.8,0.5-1.1,1.4-1.1
		c0.9,0,0.7,0.1,1.2,0.4c0.3,0.2,0.7,0.4,1,0.7C143.4,32.7,140.1,33,139.6,32.9L139.6,32.9z M172.6,30.6c-0.4,1.1-1.8,0.6-1.6-0.4
		C171.2,29.3,172.9,29.6,172.6,30.6z M124.1,30.6c-0.1,0.4-0.5,0.8-0.9,0.6c-0.2-0.1-0.7-0.4-0.6-0.9
		C122.8,29.3,124.3,29.6,124.1,30.6z M159,29.2c-0.2-1.2,1.1-2.2,2.3-1.4c0.3,0.2,0.5,0.5,0.5,0.9c0.1,0.9-0.4,1.6-1.2,1.7
		C159.8,30.5,159.1,29.9,159,29.2z M134.1,27.6c0.7-0.2,1.3,0,1.6,0.5c0.2,0.2,0.3,0.5,0.3,0.8c0,0.3,0,0.8-0.2,0.9
		c-0.1,0.2-0.2,0.3-0.4,0.5c-0.2,0.1-0.4,0.2-0.7,0.2C133.1,30.6,132.6,28.3,134.1,27.6z M149,27.8c-0.2,0.7-0.9,1.3-1.8,1.1
		c-0.7-0.1-1.3-0.9-1.1-1.8c0.2-0.7,0.9-1.3,1.8-1.1C148.6,26.2,149.2,26.9,149,27.8L149,27.8z M170.4,27.7c-0.1-0.5,0.2-0.9,0.5-1
		c0.4-0.1,0.9,0.2,1,0.5C172.3,28.4,170.6,28.6,170.4,27.7z M123.2,27.5c-0.1-0.4,0.3-0.8,0.7-0.9c0.5-0.1,0.8,0.3,0.9,0.7
		C124.9,28.4,123.4,28.7,123.2,27.5z M132.2,25.7c-0.1-0.5,0.3-0.8,0.6-1c0.4-0.2,0.9,0.2,0.9,0.6C134,26.4,132.4,26.7,132.2,25.7z
		 M161.4,25.7c-0.1-0.4,0.4-0.8,0.6-0.9c0.9-0.3,1.4,1.4,0.3,1.6C161.8,26.4,161.4,26,161.4,25.7L161.4,25.7z M126.1,25
		c-0.4,1-1.9,0.6-1.5-0.5c0.1-0.3,0.5-0.7,1-0.5C125.9,24.1,126.2,24.6,126.1,25z M170.7,24.9c-0.3,1-1.8,0.8-1.6-0.3
		c0.1-0.4,0.5-0.7,1-0.6C170.4,24,170.8,24.5,170.7,24.9z M162.4,23.8c0.1-0.3,0.3-0.4,0.5-0.7c0.1-0.3,0.2-0.6,0.2-0.9
		c0.3,0,1.5,0.8,1.7,1c1.1,0.7,2.1,1.5,2.9,2.6c0.9,1.1,1.4,2.4,1.7,3.8c0.1,0.5,0.2,2.1,0.1,2.6c-0.1,0.4-1.5,1.5-0.6,2.9
		c0.4,0.6,0.6,0.4,0.6,0.8c-1.8,0.7-2.7-1.2-2.6-1.7c0-0.2,0.3-0.5,0.4-0.8c0.1-0.3,0.2-0.7,0.1-1c-0.3-0.7-1.6-1.7-2.9-0.1
		c-0.4,0.5-0.5,1-1.1,1.3c-1.3,0.7-2.5-0.8-2.5-1.9c0.3-0.1,1.8,0.6,2.5-0.9c0.3-0.7,0.3-1.4-0.2-2c-0.2-0.3-0.3-0.2-0.5-0.4
		c-0.3-0.2-0.3-1.1,0-1.3c0.4-0.3,0.6-0.4,0.8-1c0.2-0.6,0-1-0.3-1.3c-0.2-0.2-0.3-0.3-0.4-0.4C162.8,24.1,162.6,24,162.4,23.8z
		 M134.2,31.6c-0.1,0.7-0.4,1.3-0.8,1.7c-0.4,0.4-1.1,0.7-1.8,0.4c-0.9-0.4-1.2-2.3-2.6-2.1c-0.6,0.1-1.2,0.6-1.3,1
		c-0.3,0.8,0.5,1.3,0.4,1.8c0,0.4-0.5,1.2-0.9,1.5c-0.3,0.3-1.6,0.4-1.9,0c0.1-0.1,0.2-0.2,0.3-0.3c1.5-1.5-0.1-3-0.2-3.3
		c-0.1-0.3,0.1-2.2,0.2-2.6c0.2-1.5,0.8-2.7,1.7-3.8c0.8-1,1.9-1.9,2.9-2.6c0.3-0.2,1.4-1,1.8-1c0.1,0.2,0.1,0.6,0.3,0.9
		c0.2,0.4,0.3,0.4,0.5,0.6c-0.1,0.1-0.6,0.5-1,0.8c-0.3,0.2-0.6,0.7-0.4,1.3c0.4,1.2,1.1,0.8,1.1,1.6c0.1,1.2-0.6,0.8-0.9,1.8
		c-0.3,0.8,0.1,2.1,1,2.4C133.2,31.9,133.6,31.7,134.2,31.6L134.2,31.6z M146.8,23.3c-0.2-1.1,1.4-1.2,1.5-0.3
		C148.4,24.1,147,24.2,146.8,23.3z M126.4,22.8c-0.3-1,1.3-1.5,1.5-0.5C128.2,23.5,126.6,23.7,126.4,22.8z M167.1,22.8
		c-0.1-0.4,0.3-0.9,0.6-1c1.1-0.3,1.4,1.4,0.4,1.6C167.6,23.5,167.2,23.1,167.1,22.8L167.1,22.8z M134.4,22.8
		c-0.3,0.9-1.7,0.7-1.5-0.5c0.1-0.5,0.6-0.6,1-0.5C134.3,21.9,134.6,22.4,134.4,22.8z M162.2,22.6c-0.1,0.5-0.4,0.7-0.9,0.7
		c-0.4,0-0.7-0.4-0.6-0.9C160.7,21.4,162.4,21.7,162.2,22.6z M164.6,20.9c-0.2-1,1.4-1.3,1.6-0.3C166.4,21.7,164.8,21.8,164.6,20.9z
		 M130.5,21c-0.3,1.1-1.8,0.5-1.5-0.4C129.2,19.6,130.8,19.8,130.5,21z M148.3,20.5c-0.4,0.9-1.9,0.4-1.4-0.7
		C147.3,18.8,148.7,19.6,148.3,20.5z M159.4,20.2c-0.2-0.5,0-0.9,0.5-1c0.5-0.1,0.9,0.1,1,0.5C161,20.8,159.6,21.1,159.4,20.2z
		 M134.2,20.1c-0.1-1.2,1.4-1.1,1.5-0.2C135.9,20.8,134.3,21.1,134.2,20.1z M163.6,19.9c-0.3,1-1.9,0.6-1.5-0.5
		C162.5,18.4,163.9,19,163.6,19.9z M133.1,19.9c-0.3,1-1.9,0.7-1.5-0.4c0.1-0.4,0.5-0.7,1-0.5C132.8,19,133.2,19.4,133.1,19.9
		L133.1,19.9z M144.4,27.1c-0.3,1-0.6,1.9,0.7,2.4c0.4,0.1,0.7,0.1,1.1,0.2c0.2,0.7-1,2.7-2.8,1.3c-0.7-0.5-0.3-1.1-0.6-2
		c-0.3-0.6-0.8-1-1.6-1c-0.8,0.1-1.3,0.5-1.3,1.3c0,1.5,0.6,0.8-0.3,2c-0.2,0.3-1,1.1-1.6,0.9c-0.5-0.1-1.3-0.8-1.5-1.1
		c0.6-0.4,1.8-0.7,1.8-2c0-0.9-0.6-1.7-1.5-1.9c-0.2,0-0.3,0-0.4-0.1c0,0,0,0,0,0s0,0,0,0c-0.2-0.1-0.2-0.3-0.4-0.5
		c-0.1-0.1-0.5-0.3-0.5-0.4c-0.3-0.7,1-3.8,1.4-4.5c1-1.8,2.2-2.9,4.2-3.8c1.3-0.6,3.3-1.2,4.8-1.2c0.4,0,0.5,0.1,0.6,0.4
		c0.1,0.5,0.1,1.5,0.1,1.9c-0.1,0.9-0.4,0.4-0.1,1.6c0.2,0.9-0.2,2.2,0,2.8c0.1,0.5,0.9,0.8,1,1c-0.7,0.2-1.4,0.3-1.5,1.1
		c-0.1,0.8-0.3,0.2-1.2,1.1C144.5,27,144.5,27.1,144.4,27.1L144.4,27.1z M158.7,31.2c-0.2,0.4-0.9,0.9-1.5,1.1
		c-1,0.2-1.5-0.7-1.9-1.2c-0.1-0.1-0.2-0.2-0.2-0.4c0.1-0.7,0.7-2.3-1-2.5c-1.3-0.2-1.9,0.8-1.9,1.9c0,0.5-0.1,0.6-0.4,0.9
		c-0.4,0.4-1.3,0.7-2,0.4c-0.4-0.2-0.5-0.3-0.7-0.6c-0.2-0.2-0.4-0.6-0.3-1c0.4-0.1,1.3,0,1.9-0.7c0.5-0.6,0.3-2-0.8-2.6
		c-0.4-0.2-0.5-0.1-0.6-0.7c-0.1-0.8-0.8-0.8-1.5-1.1c0.1-0.1,0.5-0.4,0.6-0.6c0.8-0.7,0-2,0.3-3.2c0.1-0.4,0.2-0.6,0.1-1
		c-0.3-1.1-0.2-1.1-0.1-2.2c0-0.5-0.1-0.7,0.5-0.8c1.3-0.1,3,0.4,4.1,0.8c2.4,0.9,4,2.3,5.2,4.6c0.4,0.7,1.2,2.8,1.2,3.7
		c0,0.5-0.2,0.5-0.5,0.7c-0.2,0.2-0.4,0.5-0.6,0.6c-0.2,0.1-0.6,0.2-0.9,0.3c-0.2,0.1-0.5,0.3-0.6,0.6c-0.5,0.9-0.3,1.9,0.7,2.6
		C158.2,31,158.5,31,158.7,31.2L158.7,31.2z M157.3,17.9c-0.3-1,1.3-1.4,1.5-0.4C159.1,18.6,157.6,18.7,157.3,17.9z M136.2,17.9
		c-0.4-1,1.3-1.4,1.5-0.4C138,18.4,136.6,18.9,136.2,17.9z M146.8,17.3c-0.1-1,1.2-1.4,1.5-0.4C148.6,18,146.9,18.2,146.8,17.3z
		 M156.3,16.3c-0.1,0.3-0.6,0.6-1,0.5c-0.4-0.1-0.7-0.5-0.5-1C155.2,14.8,156.7,15.3,156.3,16.3L156.3,16.3z M140.2,16.2
		c-0.1,0.3-0.5,0.7-0.9,0.5c-0.3-0.1-0.7-0.5-0.5-1C138.9,14.7,140.6,15.3,140.2,16.2z M141.5,15.2c-0.3-1.2,1.3-1.3,1.5-0.4
		C143.3,15.8,141.7,16.2,141.5,15.2z M153.7,15.2c-0.3,0.9-1.9,0.6-1.5-0.4C152.5,13.8,154,14.2,153.7,15.2z M144.1,14.8
		c-0.2-1.1,1.3-1.4,1.5-0.3C145.8,15.6,144.3,15.7,144.1,14.8z M149.4,14.7c-0.1-0.4,0.4-0.8,0.7-0.9c0.4-0.1,0.9,0.4,0.9,0.7
		c0.1,0.4-0.3,0.9-0.7,0.9C149.9,15.5,149.5,15.1,149.4,14.7L149.4,14.7z M145.9,10.4l1.1,0l0.1,1.8c-0.4,0-0.7,0-1,0.2
		c-0.3,0.3-0.1,0.5-0.8,0.5c-1.4-0.1-1.2,0.2-1.7,0.8c-0.5,0.1-1-0.6-1.9-0.3c-0.4,0.1-1.1,1.1-1.2,1.2c-0.4,0.2-0.9-0.6-1.7,0.1
		c-0.5,0.4-0.6,0.9-0.8,1.6c-0.6,0.1-1.7-0.2-2.2,0.2c-0.4,0.3-0.3,1.4-0.4,2c-0.7,0-1.2-0.2-1.6,0.5c-0.6,0-0.6-0.7-1.6-0.7
		c-0.6,0-1.2,0.5-1.4,0.9c-0.1,0.2-0.1,0.2-0.3,0.2c-0.4,0-1.2-0.1-1.7,0.1c-0.3,0.1-0.4,0.3-0.6,0.6c-0.2,0.4-0.1,0.6-0.2,1
		c-0.3,0.1-0.8,0-1.1,0c-0.5,0-0.6,0-0.9,0.3c-0.7,0.7-0.2,1-0.3,2c-1.8,0-2,0-1.9,2c0,0.3,0.1,0.5-0.1,0.6c-0.4,0.3-0.7,0.2-1,0.6
		c-0.6,1,0.5,2,0.2,2.4c-0.1,0.2-0.7,0.5-0.9,0.7c-0.4,0.4-0.3,0.6-0.1,1.2c0.5,1.9-1.2,3.7,0.2,5.3c1,1.1,1.9,0.3,2.4,0.4
		c0.4,0.1,0.5,0.4,1.2,0.4c0.5,0,1.1,0,1.6,0l0,1.2c0.2,0.2,0.7,0.3,1,0.5c0.5,0.3,0.6,0,1-0.2c8.2-4,19.4-4.7,28.3-2.8
		c2.8,0.6,5.4,1.5,7.9,2.6c0.3,0.1,0.8,0.5,1,0.5c0.2-0.2,0.1-0.2,0.5-0.3c1.2-0.3,0.7-1,0.8-1.5c0.6,0,1.4,0.1,2-0.1
		c0.9-0.2,0.4-0.5,1.5-0.2c1.3,0.3,2.1-0.7,2.3-1.7c0.2-1-0.4-2.5-0.5-3.5c0-0.7,0.5-1.1,0.1-1.6c-0.3-0.4-0.6-0.6-1.2-0.9
		c0.1-0.5,0.6-1,0.5-1.9c-0.1-0.7-0.8-0.9-1.4-1.1c0-0.7,0.1-1.5-0.1-2.1c-0.2-0.5-1.2-0.5-1.8-0.5c-0.1-0.7,0.1-1.5-0.3-2
		c-0.6-0.6-1.3-0.2-2-0.3c-0.2-0.6,0.2-2-1.8-1.6c-0.5,0.1-0.6,0.2-0.9-0.2c-0.4-0.4-0.6-0.9-1.4-0.9c-1,0-1.1,0.7-1.6,0.7
		c-0.3-0.2-0.1-0.3-0.7-0.4c-0.4-0.1-0.7,0-1,0c-0.1-0.6-0.1-1.6-0.4-2c-0.3-0.4-1.6-0.2-2.2-0.2c-0.1-0.3-0.1-0.6-0.2-0.9
		c-0.1-0.3-0.3-0.5-0.5-0.7c-0.8-0.7-1.1,0-1.8-0.1c0,0-0.8-1-1.1-1.2c-0.8-0.3-1.3,0.4-1.9,0.3c-0.2-0.6-0.4-0.5-0.7-0.8
		c-0.8-0.2-1.3,0.2-1.6-0.2c-0.4-0.5-0.4-0.5-1.2-0.5l0.1-1.8l1.1-0.1l0-0.8l-1.2,0l0-1.2l-1,0l0,1.2l-1.2,0L145.9,10.4L145.9,10.4z
		 M141.7,89.4c0.2,0.1,0.1,0.1,0.3,0.2c0.1-2.6,0-5.3,0-7.9c0-0.6,0-1.3,0-1.9c0.1-0.7,0.2-0.7,1.3-0.7c2.4-0.1,5.5,0,7.9,0
		c0.4,0,1.6-0.1,1.8,0.2c0.3,0.3,0.2,1.3,0.2,1.8c0,1.7,0.1,1.5-2.4,1.5c-1.3,0-2.7,0-4,0c-0.1,0.2-0.1,3.1-0.1,3.5
		c1.3,0.1,2.9,0,4.3,0c2.3,0,2.2-0.2,2.2,2.1c0,2.3,0.1,2.1-2.2,2.1c-1.4,0-2.9,0-4.3,0l0,4.1c1.6,0.1,4.1-0.1,5.5-0.5
		c2.4-0.7,4.2-1.6,6-3l0.8-0.7c0.4-0.3,1-1,1.6-1.5c0.3-0.3,0.5-0.6,1-0.2c0.3,0.3,0.5,0.5,0.8,0.8c0.2,0.2,0.2,0.2,0.4,0.4
		c0.5,0.6,1.4,1.4,1.8,2c0.3,0.4,0.4,0.5,0.1,1c-0.6,0.8-0.6,0.7-1.1,1.2c-0.1,0.1-0.3,0.2-0.4,0.4c-1,0.8-1.4,1.2-2.6,2
		c-1.2,0.8-2.5,1.5-3.9,2.1c-1.1,0.5-2.2,0.8-3.4,1.1c-0.2,0-0.4,0.1-0.6,0.1c-0.1,0-0.2,0-0.3,0.1l-0.3,0.1
		c0.1,0.2,0.2,0.1,0.3,0.4l7.6,7.7c0.5,0,2.9-1.4,3.4-1.6c2.2-1.3,5.2-3.6,6.9-5.5c0.2-0.2,1.1-1.1,1.2-1.3
		c-0.3-0.4-0.9-0.8-1.1-1.1c-0.2-0.1-0.6-0.5-0.7-0.7c-0.4-0.4-0.7-0.6-1.1-1.1c-0.2-0.3-1-0.9-0.8-1.3c0.3-0.6,1-1.1,1.4-1.6
		c0.5-0.5,0.9-1.2,1.3-1.6c-0.1-0.2-2.2-2.3-2.4-2.5l-14.8-14.9c-0.1-0.2-0.5-0.4-0.6-0.6c-0.3-0.3-1.7-1.8-1.9-1.8
		c-0.5,0.5-2.7,2.9-3.1,3c-0.4,0.1-0.8-0.4-0.9-0.6l-6-6.2c-0.1-0.1-0.3-0.2-0.4-0.4c-0.6-0.6-1.2-1.3-1.9-1.9l-1.4,1.1
		c-0.8,0.8-1.1,1.1-1.8,2c-1.3,1.7-2.3,3.8-2.8,6c-0.1,0.6-0.7,4-0.5,4.4L141.7,89.4C141.7,89.4,141.7,89.3,141.7,89.4L141.7,89.4z
		 M145.3,44.7c2.2-0.2,5.9,0,8.1,0.4c2.4,0.4,4.6,1,6.7,1.8c3.6,1.3,7.9,3.9,10.6,6.6l1.1,1.1c2.6,2.6,4.6,5.3,6.4,8.6
		c2,3.8,3.4,8.4,3.7,13.5c0.6,8.7-2.1,17.1-7.3,23.6c-0.9,1.1-2.7,3-3.6,3.9c-0.2,0.2-0.3,0.3-0.6,0.5c-1.7,1.6-4.9,3.7-7,4.8
		c-8.7,4.6-19.1,4.9-28.2,1.5c-3.6-1.4-8-4-10.6-6.6c-1.1-1.1-1.9-1.8-2.9-3c-1.8-2-3.3-4.3-4.6-6.7c-4.4-8.5-5.1-19.2-1.5-28.2
		c0.8-2,1.8-4,2.9-5.7c0.8-1.2,1.8-2.7,2.7-3.7l1.3-1.4c0.1-0.1,0.2-0.2,0.3-0.3c0.6-0.6,1.5-1.5,2.2-2.1c0.7-0.6,1-0.9,1.7-1.5
		c1.6-1.2,3.2-2.3,5.3-3.3c3-1.5,6.2-2.7,9.6-3.3C143.2,44.9,143.5,44.9,145.3,44.7L145.3,44.7z M187,80.1c0.2-6-1.1-11.7-3.1-16.5
		c-1.4-3.4-3.4-6.5-5.5-9.3c-0.9-1.1-3.9-4.1-5.2-5.3l-1-0.8c-2.6-2.1-4.4-3.1-7.6-4.7c-4.8-2.4-10.3-3.7-15.8-3.8
		c-6.1-0.2-11.6,1-16.6,3.1c-3.2,1.3-6.7,3.4-9.3,5.5c-0.6,0.5-2.1,1.8-2.6,2.3c-0.5,0.5-0.6,0.7-1.2,1.2c-0.4,0.4-0.8,0.9-1.2,1.3
		c-0.2,0.2-0.4,0.5-0.6,0.7c-0.5,0.6-1.2,1.5-1.6,2.1c-4.6,6.3-7.3,13.6-7.5,22c-0.3,9.8,2.9,18.6,8.7,25.8l1.7,2
		c0.2,0.2,0.4,0.4,0.6,0.6c3.1,3.4,7.3,6.2,11.4,8.2c2.3,1.1,4.6,2,7.2,2.6c2.6,0.6,5.8,1.2,8.6,1.2c3.3,0,5.9-0.2,9.1-0.8
		c5-1,9.9-3.1,13.9-5.8c2.3-1.5,3.6-2.6,5.5-4.4c0.4-0.4,2-2,2.4-2.5c0.2-0.2,0.4-0.4,0.6-0.7C183.4,97.4,186.6,89.4,187,80.1
		L187,80.1z M131.3,51.7c-0.6,0.1-3.6,2.5-4.4,3.2c-0.5,0.4-2.3,2.2-2.8,2.7c-3.5,4-6.2,8.4-7.6,14.3c-1.7,7.5-0.7,15.2,2.8,21.8
		c0.5,0.9,2.8,4.8,3.5,5.2c0.4-0.1,2.7-2.5,3.2-3.1c0.1-0.2,0.3-0.3,0.5-0.5c0-0.2-1.3-1.6-1.5-1.9c-1.5-1.8-2.8-4.4-3.6-6.7
		c-1.2-3.7-1.4-8.2-0.6-12.1c0.7-3.7,2.1-7.2,3.8-9.9c0.7-1.1,2-3,2.9-4c0.3-0.3,0.5-0.6,0.8-0.9c0.1-0.2,0.3-0.3,0.4-0.4
		c0.4-0.5,1.8-1.9,2.3-2.1c0.4,0.1,1.9,1.8,2.2,2.1c0.3,0.4,1.9,1.9,2.1,2.3c0,0.2-1.6,1.6-2,1.8c-2,1.8-3.5,4.1-4.7,6.8
		c-0.7,1.5-1.5,4.1-1.6,6c-0.1,2.5-0.1,4.6,0.5,7.1c1.7,7,7.3,12.6,13.8,14.8c0.3,0.1,1.3,0.4,1.4,0.5c0.1,1.1-0.1,4.9,0.1,5.6
		c0.3,0.1,3.1,0.2,3.6,0.1c0.1-0.9-0.1-4.6,0-5c2.9-0.1,4,0.1,7.1-0.7c4-1,7.2-2.9,10-5.6c0.2-0.2,0.3-0.3,0.5-0.5
		c0.1-0.1,0.4-0.4,0.2-0.7c0,0-2.6-3-2.8-3.1c-0.3,0.2-0.7,0.7-1,1c-2.5,2.5-5.5,4.1-9.2,4.8c-1.3,0.2-3.6,0.4-4.9,0.1l0-5.2l6.3,0
		l0-3.1l-6.4,0.1l0-4.8l6.3,0l0-2.4l-9.9,0c-0.1,0.4,0,1.4,0,1.8c0,1.4,0,12.1-0.1,12.7c-0.7,0.2-4.1-1.9-4.9-2.5
		c-0.5-0.4-0.9-0.8-1.3-1.2c-0.8-0.8-1.5-1.6-2.3-2.7c-0.5-0.7-1.5-2.4-1.7-3.3c-0.7-1.5-1-3.9-1-5.8c0-3.7,1.3-7.4,3.5-10.1
		c1.2-1.4,1.4-1.6,2.6-2.6c0.2-0.2,0.7-0.6,1-0.7l9,9.3c0.2-0.1,4-4.1,4.8-4.9c0.8-0.8,1.8-2,2.7-2.8c0.3-0.3,1.9-2.1,2.1-2.1
		c0.3,0.1,1.3,0.9,1.6,1.1c0.5,0.4,0.9,0.8,1.4,1.2c1.1,1.1,2.2,2.6,2.4,2.8c0.4-0.1,3.4-2.8,3.4-2.9c-0.2-0.4-0.9-1.3-1.2-1.6
		l-1.4-1.4c-0.5-0.5-1-0.9-1.5-1.3c-0.3-0.3-1.4-1-1.5-1.2l2.8-3c0.2-0.2,0.7-0.8,0.9-0.9c1.2,0.6,4.1,4.1,5,5.3
		c2.4,3.3,4.4,7.5,5.2,11.9c0.2,1,0.4,2,0.4,3c0.3,5.3-0.5,9.3-3.1,13.9c-0.5,0.9-0.8,1.2-1.4,2l-1.6,1.8c0.1,0.3,1.5,1.7,1.9,2
		l2,1.8c0.4,0,0.7-0.6,1-0.9c1.9-2.5,3.6-5.8,4.6-8.8c1.4-4.1,2.1-8.8,1.6-13.4c-0.8-7-3.3-12.4-7.5-17.4l-1.8-2
		c-0.3-0.3-0.7-0.6-1-0.9c-0.2-0.2-1-0.9-1.2-1.1c-0.7-0.6-3.4-2.6-4.1-2.8l-7.6,7.5c-0.5-0.1-1.1-0.4-1.7-0.6
		c-8.5-2.5-14.7,0.9-15.3,0.9c-0.2,0-1-0.9-1.2-1.1C137.6,58.1,131.3,51.9,131.3,51.7L131.3,51.7z"/>
</g>
</svg>
