<?xml version="1.0" encoding="utf-8"?>
<!-- Generator: Adobe Illustrator 24.0.2, SVG Export Plug-In . SVG Version: 6.00 Build 0)  -->
<svg version="1.1" id="Слой_1" xmlns="http://www.w3.org/2000/svg" xmlns:xlink="http://www.w3.org/1999/xlink" x="0px" y="0px"
	 viewBox="0 0 238.1 150.2" style="enable-background:new 0 0 238.1 150.2;" xml:space="preserve">
<g>
	<path class="st0"  d="M25.2,134.1c0.8,0.3,1.1,0.1,1.2-0.9c0-0.2,0.1-0.5,0.1-0.7c0.1,0,0.1,0,0.2,0c0.1,0.5,0.3,1,0.3,1.6c0,1.3,0,2.6,0,3.9
		c0,0.2,0.1,0.4,0.2,0.6c0.3-5.3-0.2-10.6,0.8-16c0.1,0.3,0.2,0.5,0.2,0.7c0.1,0.4,0.1,0.7,0.2,1.1c0.1,0.6,0.2,1.1,0.2,1.7
		c0,0.4,0.1,0.6,0.6,0.5c0.1-0.7,0.1-1.4,0.7-1.9c0.3-0.3,0.3-0.8,0.3-1.3c0-1,0-2,0-3c0-0.5,0-0.9,0-1.4c0,0,0.1,0,0.1,0
		c0,0.9,0,1.8,0,2.8c0,0.7,0,1.3,0,2c0,0.3,0.1,0.7,0.3,1c0.3,0.4,0.6,0.9,0.5,1.4c0,0.4,0.2,0.6,0.7,0.6c-0.1-1.4,0.1-2.7,0.5-4
		c0.1,0,0.1,0,0.2,0c0.1,1,0.1,2,0.3,3c0.6,4.2,0.3,8.4,0.4,12.7c0,0,0,0.1,0,0.1c1.2,0.2,1.2,0.2,1.4,0c0.6,0.1,1.1,0.1,1.6,0.2
		c0-0.2,0.1-0.4,0.1-0.6c0.1,0.1,0.3,0.2,0.5,0.3c0-2.4-0.2-4.8,0.2-7.1c0.4-2.2,0.7-4.4,1.8-6.4c0.3,0.7,0.6,1.5,0.9,2.4
		c-0.3,0.5-0.1,1.1,0.2,1.8c0.2,0.5,0.4,1.1,0.5,1.6c0.1,0.1,0.1,0.3,0.1,0.3c0.3-0.3,0.7-0.5,1-0.8c0.2-0.3,0.2-0.9,0.7-1
		c0.2,0.5,0.3,0.9,0.5,1.4c0.3-0.1,0.6-0.3,1-0.4c0-1.2,0-2.4,0-3.7c0.8,0.1,0.9-0.3,0.8-0.9c-0.1-1,0.2-1.7,1.1-2.3
		c0.8-0.5,1.2-1.3,1.2-2.3c0-0.5,0.2-1,0.3-1.5c0.3,0.8,0.8,1.5,0.6,2.3c-0.1,0.6,0.3,0.9,0.7,1.2c1.1,0.5,1.4,1.5,1.5,2.6
		c0,0.4,0,0.8,0.5,0.9c0.1,0,0.2,0.4,0.2,0.6c0,0.8,0,1.6-0.1,2.4c-0.1,0.6,0.5,0.7,0.8,0.9c0.1,0.1,0.5,0,0.5,0
		c0.1-0.3,0-0.6,0.1-0.9c0,0,0-0.1,0-0.1c0.5-0.2,0.9,0,0.9,0.6c0,0.1,0,0.3,0.1,0.3c0.6,0,0.4,0.5,0.6,1c0.2-0.3,0.4-0.6,0.5-0.8
		c0.2-0.6,0.3-1.2,0.4-1.8c0.2-0.8,0.3-1.6,0.5-2.4c0.1-0.5,0.4-1,0.7-1.6c0.1,0.5,0.2,1,0.3,1.4c0.1,0.2,0.3,0.4,0.4,0.6
		c0.1,0.1,0.2,0.3,0.2,0.4c0,0.6-0.1,1.1,0.1,1.6c0.2,0.6,0.5,1.2,0.7,1.9c0.1,0.3,0.1,0.7,0.1,1c0,0.6,0,1.2,0,1.8c0,0.5,0,1,0,1.5
		c0,0.8,0,1.6,0.1,2.4c0,0.1,0.2,0.4,0.4,0.4c0.3,0,0.6,0,0.8-0.2c0.2-0.1,0.2-0.3,0.4-0.6c0.2,0.3,0.2,0.8,0.8,0.8
		c0.5,0,0.6-0.4,0.9-0.7c0.1,0.1,0.1,0.2,0.2,0.3c0.1,0.2,0.2,0.3,0.4,0.4c0.2-0.2,0.4-0.4,0.5-0.6c0.1-1,0.2-1.9,0.3-2.9
		c0.1-0.8,0.2-1.5,0.4-2.3c0.1-0.3,0.2-0.7,0.2-1c0-0.4-0.1-0.9,0.5-1.1c0.1,0,0.1-0.3,0.1-0.5c0.1-1,0.2-2,0.4-3
		c0.1,0.4,0.2,0.9,0.3,1.3c0.1,0.7,0.1,1.4,0.3,2.1c0,0.2,0.3,0.4,0.5,0.5c0.1,0.8,0,1.7,0.6,2.5c0.1,0.1,0,0.3,0,0.5c0,1,0,2,0,3
		c0.1,0,0.1,0.1,0.1,0.1c1,0.1,1,0.1,1.1-1c0-0.8-0.2-1.7,0.5-2.5c0,0.5,0,0.9,0,1.4c0,0.2,0.1,0.6,0.3,0.7c0.3,0.1,0.7,0.3,0.9-0.1
		c0.3,0.1,0.6,0.1,1,0.2c0.1-1.1,0.2-2.2,0.3-3.2c0.2-1.4,0.4-2.8,0.5-4.3c0.2-1.4,0.3-2.8,0.4-4.1c0.1-1,0.3-2,0.4-3
		c0,0,0-0.1,0-0.1c-0.3-1.5,0.4-2.9,0.4-4.4c0-1.2,0.3-2.4,0.4-3.6c0.1-0.9,0.2-1.7,0.3-2.6c0.1-0.8,0.2-1.5,0.3-2.3
		c0-0.1,0.1-0.2,0.1-0.3c0.7-0.2,0.4-0.7,0.5-1.2c0.1-0.8,0.2-1.6,0.3-2.4c0.1-0.5,0.1-0.9,0.1-1.4c0.3,0.5-0.2,1.1,0.4,1.5
		c0.2-1.4,0.3-2.7,0.4-4c0,0,0.1,0,0.1,0c0.1,0.4,0.3,0.7,0.3,1.1c0.1,1,0.2,2,0.3,3c0.2,1.5,0.4,3,0.6,4.5c0.1,1.2,0.3,2.5,0.4,3.7
		c0.2,1.5,0.3,3,0.5,4.5c0.1,1.1,0.3,2.2,0.3,3.2c0.1,1.5,0.1,3,0.5,4.5c0.2,0.7,0,1.5,0.2,2.2c0.1,0.6,0.2,1.2,0.1,1.8
		c-0.1,0.7,0.1,1.3,0.9,1.7c0-1.6,0-3.2,0-4.8c0.7,0,1.3,0,1.9,0c0.3,0,0.4,0.2,0.3,0.5c-0.2,0.5,0.1,0.8,0.7,0.9c0-1.4,0-2.7,0-4.1
		c0-1.6,0.1-3.3,0.3-4.9c0.1-0.6,0.5-1.1,0.8-1.7c0.2-0.4,0.5-0.9,0.8-1.3c0.1-0.2,0.3-0.4,0.6-0.8c0.7,1.2,1.4,2.3,2,3.4
		c0.1,0.3,0.1,0.6,0.2,0.9c0.1,0.9,0.1,1.8,0.1,2.7c0,0.2,0.1,0.3,0.2,0.5c0-0.3,0-0.5,0-0.8c1.3,0,2.6,0,3.9,0
		c0.1,2.3,0.2,4.7,0.3,7c0,2.4,0,4.7,0,7c0.5,0.1,0.9,0.1,1.4,0.2c0.5,0.1,0.7-0.1,0.7-0.6c0-0.3,0-0.6,0-0.9c0.1,0,0.1-0.1,0.2-0.1
		c0.1,0.2,0.3,0.4,0.3,0.6c0,1.2,0,2.4,0,3.7c1.3,0,2.4,0,3.6,0c0.4,0,0.4-0.2,0.4-0.5c0-0.9,0-1.7,0-2.6c0-0.5,0.2-1,0.2-1.5
		c0.1,0,0.2,0,0.2,0c0,0.4,0,0.9,0,1.3c0,0.4,0.1,0.6,0.5,0.5c0.6-0.1,1.1-0.1,1.7-0.2c0.1,0,0.3-0.3,0.4-0.4c0.1-0.4,0-0.9,0.1-1.3
		c0.7,1.6,0.3,3.2,0.5,4.8c0.6,0,1.1,0,1.8,0c0-0.2,0-0.4,0-0.6c0-3.6,0-7.3,0-10.9c0-0.7,0.1-1.3,0.2-2c0-0.1,0.1-0.3,0.2-0.3
		c0.6-0.2,0.6-0.6,0.6-1.1c0.1-0.5,0.3-1,0.5-1.5c0.1-0.3,0.2-0.6,0.3-1c0.1-0.3,0.1-0.7,0.2-1.1c0.1,0.5,0.2,1,0.3,1.5
		c0.1,0.2,0.4,0.3,0.4,0.6c0.1,0.3,0.1,0.7,0.1,1.1c0,0.4,0.2,0.8,0.5,1.1c0.4,0.6,0.8,1.4,0.8,2.1c0.1,2.5,0.1,5.1,0.2,7.6
		c0,0.6,0,1.2,0.1,1.8c0.1-0.1,0.2-0.2,0.2-0.3c-0.1-0.4,0.3-0.5,0.5-0.6c0.7-0.1,1.5-0.3,2.3-0.3c1.5,0,3.1,0.2,4.5,0.9
		c0.6,0.3,1.2,0.6,1.8,0.7c0.3,0.1,0.7-0.2,1-0.3c-0.1,0.2-0.2,0.4-0.4,0.6c0.4,0.3,1-0.2,1.4-1c-0.1,0-0.2-0.1-0.3-0.1
		c0-0.1,0-0.1-0.1-0.2c0.3-0.1,0.6-0.4,0.9-0.4c0.4,0,0.5,0,0.5-0.4c0-0.2,0.2-0.3,0.4-0.5c0.8-0.7,0.6-1.7,0.7-2.7
		c0.1-1.1,0.1-2.3,0.2-3.4c0-0.5,0.2-0.9,0.4-1.3c0.1,0.7,0.3,1.5,0.4,2.2c0.1,0,0.1,0,0.2,0c0.3-1.3,0.7-2.6,1-3.8
		c0.4,1.2,0.1,2.6,1.3,3.6c0.3-0.8-0.2-1.7,0.4-2.5c0.3,1.8,0.5,3.5,0.8,5.3c0.1,0,0.2,0,0.4,0c3,0,6,0,9,0c0.2,0,0.4-0.2,0.6-0.2
		c0.1,0,0.2,0,0.3,0c0.2,0,0.4-0.1,0.6-0.1c0.2,0,0.6-0.1,0.8,0.1c0.3,0.4,0.6,0.3,0.9,0.3c0.3,0,0.6,0,0.9,0c0.5,0,1,0,1.4,0
		c1.5,0,3,0,4.5,0c0.7,0,1.5,0,2.2,0c0.5,0,0.7-0.2,0.6-0.6c0-1.2,0.1-2.4,0.4-3.6c0.1-0.3-0.3-0.8,0.3-0.9c0,0.4,0,0.9,0,1.3
		c0,0.1,0,0.3,0,0.3c0.1,0.2,0.3,0.4,0.4,0.7c0.1-0.2,0.3-0.3,0.4-0.5c0.2-0.6,0.3-1.2,0.4-1.9c0.1-0.6,0.2-1.3,0.3-1.9
		c0,0,0.1-0.1,0.2-0.1c0,1.6,0.1,3.1,0.8,4.6c0.6-0.8,0.5-1.5,0.5-2.5c0.2,0.2,0.3,0.3,0.3,0.4c-0.3,0.9,0.3,1.6,0.4,2.4
		c0,0.1,0.1,0.2,0.1,0.3c-0.3,0.9,0.1,1.9-0.1,2.8c-0.1,0.7-0.1,1.3,0.6,1.8c0.4,0.3,0.7,0.7,1,1.1c-0.1,0-0.2,0-0.4,0
		c1.2,1.3,1.2,1.3,1.6,1.2c-0.2-0.3-0.3-0.6-0.6-1c0.2,0,0.4-0.1,0.7-0.1c0-2.2,0-4.4,0-6.6c0-2-0.1-4.1,0.7-6
		c0,0.3,0.1,0.6,0.1,0.9c0.1,0.8,0.4,1.1,1.2,0.9c0.5-0.1,1,0,1.5,0c0.1-0.7-0.1-1.5,0.6-2.1c0.1,1.8,0.1,3.7,0.1,5.5c0,2,0,4,0,6.2
		c0.8-0.7,1.3-1.6,1.8-2.5c0.5,0.9,1,1.7,1.5,2.6c0.5-3.9-0.2-7.7,0.7-11.6c0.1,0.2,0.2,0.4,0.3,0.6c0.1,0.2,0,0.4,0,0.6
		c0,0.4,0.1,0.6,0.6,0.5c0.5,0,1,0,1.5,0c0.5,0,0.8-0.3,0.8-0.8c0-0.3,0-0.6,0-0.9c0.1,0,0.1-0.1,0.1-0.1c0.1,0.2,0.3,0.3,0.3,0.5
		c0.1,2,0.3,4.1,0.4,6.1c0,1.2-0.1,2.3-0.1,3.5c0,0.9-0.1,1.8,0.5,2.6c0.1,0.1-0.1,0.4-0.1,0.6c0,2.6,0,5.1,0,7.7c0.8,0,1.6,0,2.5,0
		c0-1.5,0-3,0-4.6c0.6,0.1,0.6-0.2,0.6-0.7c0-0.9,0.3-1.3,1.2-1c0.2,0.1,0.4,0.4,0.5,0.6c0.1,0.2,0,0.5,0,0.8c0.2,0,0.3-0.1,0.3-0.1
		c0.2-0.1,0.4-0.3,0.6-0.3c0.9,0.1,1.9,0.2,2.8,0.2c0.1-0.5,0.1-1,0.3-1.2c0.3-0.2,0.8-0.1,1.3-0.1c0,0.5,0.1,0.9,0.1,1.4
		c0.1,0,0.1,0,0.2,0c0-1.3,0-2.5,0-3.8c0-0.2-0.2-0.4-0.4-0.5c-0.7-0.5-0.9-1.1,0-1.4c0.1-0.1,0.3-0.4,0.3-0.5
		c-0.2-0.6-0.4-1.1-0.6-1.7c-0.6,0.2-1.2-0.1-1.3-0.6c-0.1-0.5,0.3-0.8,0.6-0.7c0.7,0,0.5-0.4,0.5-0.7c0-0.5-0.1-0.9-0.3-1.4
		c-0.1-0.2-0.4-0.3-0.6-0.4c-0.3-0.1-0.5-0.3-0.4-0.7c0.1-0.2,0.2-0.6,0.4-0.6c0.7-0.2,0.6-0.8,0.8-1.3c0.1-0.2,0.1-0.4,0.1-0.6
		c0-0.2-0.1-0.4-0.2-0.5c-0.3-0.2-0.7-0.3-0.7-0.7c0-0.4,0-0.7,0.5-0.6c0.5,0.1,0.9-0.1,1-0.7c0-0.3,0.2-0.5,0.3-0.8
		c0.3-0.7,0.2-0.8-0.6-0.9c0-0.3,0-0.5,0-0.8c0-0.4,0.2-0.6,0.6-0.6c0.7,0.1,1-0.1,1.2-0.7c0.1-0.2,0.1-0.3,0.1-0.5s0.2-0.3,0.2-0.5
		c-0.9-1.1-0.9-1.2,0.2-1.9c0.1,0.3,0.3,0.5,0.5,0.9c0.5-0.6,0.9-1.1,1.3-1.7c0.1-0.2,0-0.5,0-0.7c0-0.3-0.2-0.6-0.1-0.8
		c0-0.1,0.3-0.3,0.5-0.3c0.3,0,0.6,0,0.9,0.1c0,0.1,0,0.1,0,0.2c0.5-0.4,0.9-0.8,1.4-1.3c0.1-0.1,0.1-0.4,0.1-0.6
		c-0.1-0.3-0.1-0.6,0.2-0.8c0.3-0.1,0.7-0.2,0.9-0.1c0.6,0.4,1,0.4,1.5-0.1c0.1-0.1,0.2-0.1,0.3-0.1c0.5-0.2,0.7-0.4,0.5-1
		c-0.1-0.4,0.1-0.7,0.4-0.8c0.3-0.2,0.6,0,0.9,0.3c0.3,0.4,0.7,0.5,1.2,0.3c0.3-0.1,0.6-0.1,1.1-0.1c0-0.2,0.1-0.4,0-0.6
		c-0.2-0.6,0.3-0.8,0.7-0.9c0.2-0.1,0.6,0.2,0.8,0.4c0.2,0.1,0.3,0.5,0.4,0.5c0.4,0,0.8,0,1.2-0.1c0.2,0,0.4-0.2,0.6-0.3
		c0.2-0.7,0.7-1.2,1.3-1.1c0.4,0.1,0.6,0.5,0.5,1.1c0.6,0.1,1.3,0.2,1.9,0.3c0.4-1,1-1.4,1.4-1.1c0.6,0.4,0.8,0.7,0.5,1.3
		c0.6,0.2,1.2,0.4,1.9,0.6c0.1-0.7,0.4-0.8,0.9-0.8c0.4,0,0.7,0,0.8,0.5c0,0.2,0.2,0.5,0.1,0.6c-0.3,0.5,0.2,0.7,0.4,0.8
		c0.4,0.2,0.9,0.6,1.4-0.1c0.1-0.2,0.7-0.2,1-0.2c0.2,0,0.5,0.4,0.5,0.6c0,0.4-0.1,0.8-0.2,1.4c0.4,0.2,0.9,0.6,1.4,0.9
		c0.1,0.1,0.3,0,0.5,0c0.4,0,0.7-0.2,1.1-0.1c0.2,0.1,0.3,0.5,0.4,0.7c0,0.2-0.2,0.4-0.3,0.5c-0.2,0.2-0.2,0.4,0.1,0.6
		c0.3,0.2,0.4,0.5,0.6,0.8c0.2,0.4,0.5,0.4,0.8,0.3c0.6-0.3,1-0.1,1.2,0.5c0.2,0.5-0.1,0.8-0.5,0.9c-0.1,0-0.1,0.1-0.2,0.1
		c0.3,0.6,0.6,1.1,1,1.7c0.1,0.1,0.4,0.2,0.5,0.1c0.4-0.1,0.7-0.1,0.9,0.2c0.2,0.4,0.1,0.7-0.2,0.9c-0.5,0.3-0.5,0.7-0.2,1.2
		c0.1,0.2,0.1,0.4,0.2,0.6c0.1,0.2,0.3,0.4,0.5,0.5c0.2,0.1,0.4,0.1,0.5,0.2c0.7,0.3,0.7,0.6,0.2,1.1c-0.5,0.4-0.6,0.9-0.6,1.5
		c0,0.3,0,0.7,0,1c0.4,0.1,1,0.2,1.2,0.5c0.4,0.5-0.3,0.8-0.4,1.2c2.8,0.5,5.6,0.6,8.1,1.8c-0.2,0.4-0.4,0.7-0.6,1.1
		c-0.9-0.3-1.9-0.6-2.9-0.9c0,0,0-0.1,0-0.1c0.3,0,0.7,0,1-0.1c0-0.1,0-0.1,0-0.2c-0.4,0-0.8,0.1-1.1,0.1c-0.5,0.1-0.9,0.1-1.4-0.1
		c-0.6-0.2-1.3-0.1-1.9-0.1c-0.8,0-1.5,0-2.3,0c0.4,0.3,0.8,0.5,1.2,0.8c0.2,0.1,0.2,0.5,0.2,0.7c-0.1,0.2-0.4,0.4-0.7,0.4
		c-0.8,0.1-1,0.4-0.7,1.2c0.4-0.1,0.7-0.2,1.2-0.4c0,1.6,0,3.2,0,4.8c0,0.8,0,0.7,0.8,0.8c1,0,2,0.2,3,0.3c0.5,0,0.9,0.1,1.4,0.1
		c0.4,0,0.9-0.1,1.3,0c1.1,0.1,2.3,0.3,3.4,0.5c0.2,0,0.3,0,0.5,0c0.1-0.7,0.1-1.4,0.2-2c0-0.2,0.1-0.4,0.2-0.5
		c0.3-0.3,0.2-0.6,0.2-0.9c-0.1-0.7,0-1.5,0.1-2.3c-0.7-0.4-1.5-0.8-2.3-1.3c-0.2-0.1-0.3-0.5-0.4-0.8c0-0.1,0.2-0.2,0.4-0.3
		c0-0.1-0.1-0.2-0.1-0.5c0.7,0.3,1.3,0.6,1.9,1c-0.1-1.2-0.2-2.3-0.3-3.3c0.3-0.2,0.5-0.3,0.7-0.5c0.1-0.1,0.2-0.2,0.2-0.3
		c-0.3-0.5,0-0.7,0.4-1c0.1-0.1,0.2-0.4,0.2-0.6c0-0.5,0-1,0-1.6c0.5,0.6,0.5,1.2,0.5,1.8c0,0.2-0.2,0.6,0.3,0.7c0,0,0.1,0.3,0,0.5
		c-0.1,0.4,0,0.6,0.3,0.7c0.4,0.1,0.4,0.4,0.4,0.7c0,0.5,0.1,1,0,1.4c-0.1,0.4-0.2,0.9-0.5,1.3c-0.4,0.6-0.3,1,0,1.6
		c0.1,0.2,0.2,0.5,0.3,0.7c0,0,0.2,0,0.3,0c0,0.3,0,0.6,0,1c-0.4,0-0.9,0-0.9,0.4c-0.1,0.5,0,1,0.3,1.4c0.2,0.4,0.3,0.7,0.3,1.1
		c0,0.6,0,1.1,0,1.6c0,0.3,0.2,0.7,0.3,1c0,4.5,0,8.9,0,13.4c-67.5,0-135,0-202.5,0C25.2,144.7,25.2,139.4,25.2,134.1z M202.2,108.8
		c0.1,0.1,0.1,0.2,0.2,0.2c0.2,0.2,0.3,0.4,0.5,0.4c0.2,0,0.4-0.3,0.5-0.4c0.1-0.1,0-0.3,0-0.5c-0.2,0-0.3,0-0.5,0.1
		C202.6,108.6,202.4,108.8,202.2,108.8c0.2-0.2,0.4-0.3,0.5-0.5c0.1-0.1,0.2-0.3,0.2-0.5c-0.1-0.3-0.9-0.6-1.3-0.4
		c0.9,0.5-0.2,1.1,0,1.6C201.9,109,202,108.9,202.2,108.8z M212.6,121.7c0-0.1,0.1-0.3,0-0.3c-0.4-0.4-1.2-0.4-1.7-0.1
		c-0.1-0.4-0.2-0.9-0.3-1.3c-0.1-0.5-0.2-0.9-0.4-1.4c-0.1-0.3-0.3-0.7-0.5-1c0.2,0.3,0.5,0.7,0.6,0.8c0.3-0.3,0.7-0.6,1.2-1.1
		c-0.7,0.1-1.3,0.2-1.8,0.2c-0.5-0.9-1-1.8-1.6-2.8c0.8,0.2,1,0,1.4-1.2c-0.6,0.3-1.1,0.6-1.5,0.8c-0.4-0.4-0.8-0.9-1.3-1.1
		c-0.5-0.2-0.7-0.6-0.9-0.9c-0.5-0.6-1.1-1.3-2-1.3c-0.1,0-0.1,0-0.1-0.1c-0.2-0.7-0.9-0.8-1.4-1.2c-0.4-0.3-0.9-0.5-1.4-0.1
		c-0.1-0.6-1.6-1.4-2.7-1.4c-0.1,0.2-0.1,0.5-0.2,0.6c-0.2-0.2-0.4-0.7-0.6-0.7c-0.8-0.1-1.6-0.1-2.4-0.2c0,0.4,0.1,0.7,0.1,1
		c0,1.5,0,3,0,4.5c0,0.7,0.1,1.5,0,2.2c0,0.9-0.1,1.8-0.1,2.7c0,1.1,0.1,2.1,0.1,3.2c0,0.3,0.2,0.6,0.2,0.8c0.3-0.1,0.6-0.2,0.8-0.3
		c0,0.5,0,0.9,0.4,0.7c0.3,0.3,0.6,0.6,0.9,0.8c0.1,0.1,0.4,0,0.6-0.1c-0.1-0.2-0.1-0.4-0.1-0.5c0.2-0.3,0.4-0.5,0.7-0.9
		c-0.3,0.1-0.4,0.1-0.6,0.1c0.1-0.2,0.1-0.3,0.2-0.4c0.4-0.3,0.9-0.6,0.4-1.2c0,0,0-0.2,0.1-0.3c0.3-0.6,0.6-1.2,0.8-1.8
		c-0.1,0-0.2,0-0.2-0.1c-0.6-0.2-0.6-0.2-0.2-0.8c0.4-0.5,0.8-1.1,1.1-1.7c0.4-1,0.8-1.9,1.5-2.7c0.1-0.2,0.5-0.3,0.6-0.3
		c0.3,0.3,0.6,0.6,0.7,0.9c0.2,0.6,0.5,1,1.2,1.2c-0.8,0.5-0.1,0.9,0,1.3c0.1,0.5,0.1,1.1,0.9,0.9c-0.1,0.3-0.1,0.6-0.1,0.9
		c0,0.1,0.1,0.3,0.1,0.4c0,0.4,0,0.7,0.1,1.1c0.1,0.3,0.4,0.7,0.3,1c-0.1,0.8,0.4,1.1,1.1,1.2c-0.4,0.1-0.7,0.1-1,0.2
		c0.1,0.5,0.3,1,0.4,1.5c0.1,0.3,0.2,0.4,0.6,0.4c0.9,0,1.8,0,2.7,0c0.7,0,1.4,0,2.3,0c-0.1-1.1-0.3-2.1-0.4-3.2
		c0.2,0.3,0.4,0.6,0.6,0.9C211.9,122,212.3,121.8,212.6,121.7c-0.3,0.3-0.6,0.6-0.9,0.8c0.3,0.2,0.6,0.4,0.9,0.5
		c0.2,0.1,0.4,0,0.6,0c0-0.2,0-0.3,0-0.5c0-0.2-0.1-0.4-0.1-0.6C213.2,121.5,212.9,121.5,212.6,121.7z M186.5,109.6
		c-0.3-0.2-0.7-0.4-1.2-0.7c0.1,0.5,0.1,0.8,0.3,1c0.3,0.6,0.3,0.7-0.2,1c-0.1,0.1-0.3,0.2-0.4,0.2c-0.9,0.8-1.8,1.6-2.8,2.3
		c-0.5-0.2-0.9-0.9-1.7-0.5c0.4,0.6,0.8,0.9,1.5,0.7c0,0.2,0,0.3-0.1,0.4c-1,1-1.6,2.2-2.2,3.5c-0.1,0.2,0,0.5,0,0.7
		c-0.3,0-0.5,0-0.5,0.5c0,0.2-0.1,0.4-0.2,0.6c-0.2,0.9-0.5,1.8-0.6,2.8c0,0.6,0.3,1.3,0.5,2c1.7,0,3.5,0,5.2,0c1.5,0,3-0.1,4.6-0.1
		c0.5,0,0.8-0.1,0.9-0.7c-0.2,0-0.5-0.1-0.7-0.1c0.4-0.1,0.8-1,1.1,0c0,0.1,0.2,0.1,0.3,0.1c0.2,0,0.4,0,0.7,0
		c-0.2,0.4-1,0.2-0.9,0.8c0.6,0,1.2,0,1.8,0c1,0,1.3-0.1,1.6-0.6c-0.6,0.1-1.1,0.2-1.6,0.4c0,0,0-0.1,0-0.1c0.4-0.2,0.8-0.4,1.3-0.7
		c-0.3-0.1-0.5-0.1-0.7-0.2c0-0.1,0-0.1,0-0.2c0.6-0.2,1.1-0.3,1.6-0.5c0.2,0.1,0.3,0.2,0.5,0.3c0.1-0.2,0.3-0.4,0.3-0.6
		c0-4.5,0-9,0-13.6c0-0.4-0.2-0.6-0.6-0.5c-0.9,0.1-1.8,0.1-2.7,0.3c-1.1,0.2-2.2,0.2-3.1,1.1c-0.1,0.1-0.2,0.1-0.4,0.1
		c-0.5,0.2-0.9,0.3-1.4,0.5c-0.1,0-0.3,0.1-0.4,0.1C186.3,110,186.4,109.8,186.5,109.6c0.5-0.6,0.3-1.2,0.2-1.9
		c-0.5,0.3-0.8,0.5-1.2,0.7C185.9,108.8,186.2,109.2,186.5,109.6z M141.2,138.8c0.1,0,0.1,0,0.1,0c0,0.1,0,0.1,0.1,0.2
		c0.4,1.1,0.9,2,2.3,1.8c0.2,0,0.4,0.1,0.5,0.3c0.3,0.6,0.8,0.7,1.4,0.6c0.2,0,0.4,0,0.6,0c0.6,0.1,0.7-0.2,0.7-0.7
		c0-2.7,0-5.5,0-8.2c0-0.5-0.1-0.7-0.7-0.7c-3,0-5.9,0-8.9,0c-3.1,0-6.1,0-9.2,0c-1.1,0-2.2,0-3.3,0c-0.2,0-0.5,0.2-0.5,0.3
		c-0.1,0.5-0.2,1.1-0.2,1.7c0,2.4,0,4.8,0,7.2c0,0.2,0,0.4,0,0.6c0.3,0,0.5,0,0.7,0c4-0.1,8-0.2,12-0.2c0.2,0,0.4,0,0.6,0
		c0.1,0,0.3-0.1,0.4-0.2c0.2-0.6,0.6-0.7,1.2-0.7c0.6,0,1-0.2,1.3-0.7C140.6,139.6,141,139.2,141.2,138.8z M187.2,129.9
		c0.3,0,0.6,0.1,0.9,0c0.2-0.1,0.4-0.4,0.5-0.6c0-0.4-0.2-0.3-0.5-0.2c-0.1,0-0.2,0-0.3,0c0.9-0.7,1.1-1.3,0.5-2
		c0.4-0.4,0.8-0.8,1.3-1.2c-0.4-0.1-0.6-0.1-0.8-0.2c0-0.1,0-0.1,0-0.2c0.2,0,0.5,0,0.7-0.1c0.2-0.1,0.3-0.3,0.3-0.5
		c0-0.1-0.2-0.3-0.3-0.3c-0.3,0-0.6,0-1,0c-1.2,0-2.4,0.1-3.5,0.1c-0.6,0-1.3-0.1-1.9-0.1c-0.6,0-1.2,0-1.7,0c-0.9,0-1.8,0-2.7,0
		c0,1.3,1,2,1.8,2.8c-0.2,0-0.4,0-0.5,0c0,0.7,0,1.3,0,1.9c0,0.2,0.3,0.6,0.4,0.6c0.5,0,1-0.1,1.5-0.2c0.3-0.1,0.5-0.2,0.8-0.3
		c-0.1,0.5,0.1,0.8,0.5,0.7c0.6-0.1,1.2-0.2,1.7-0.2c0.8,0,1.7,0,2.4-0.7C187.2,129.5,187.2,129.7,187.2,129.9z M191.7,126.6
		c-0.4,0.4-0.5,0.7-0.3,1.2c0.1,0.4-0.2,1,0.2,1.5c0,0.1-0.1,0.2-0.1,0.4c-0.1,0.5-0.2,1-0.2,1.4c0,0.7,0.4,1.3,0,2
		c-0.1,0.1,0,0.4,0,0.6c0,0.3,0,0.7,0,1c0,0.3,0,0.5,0,0.8c0,0.7,0,1.5,0,2.2c0,0.7,0,1.4,0,2c0.1,0,0.2,0,0.3,0
		c0.1-0.5,0.3-1,0.4-1.5c0.1-0.8-0.1-1.5,0.4-2.3c0.4-0.6,0.3-1.5,0.4-2.3c0-0.1,0-0.1,0-0.2c0-0.2,0.1-0.5,0.1-0.7
		c0-0.1,0.1-0.3,0.1-0.4c0.3-1.5,0.6-3,0.9-4.5c0-0.2,0-0.3-0.1-0.5c-0.1,0-0.1,0-0.2,0c-0.1,0.1-0.2,0.3-0.2,0.4
		c0,0-0.1-0.1-0.1-0.1c0.2-0.4,0.5-0.9,0.7-1.3c-0.3-0.2-0.5-0.3-0.7-0.5c0.1-0.2,0.1-0.3,0.2-0.4c-0.4,0.1-0.7,0.4-0.9-0.1
		c0-0.1,0.2-0.3,0.3-0.5c-0.9-0.9-2,0-2.9-0.4c-0.2,0.8,0.6,0.4,0.7,0.8c-0.2,0.1-0.4,0.1-0.6,0.2
		C190.6,126,190.7,126.8,191.7,126.6z M131.7,143.3c-0.3,0.1-0.6,0.1-0.9,0.1c-1.6,0.3-3.2,0.5-4.8,0.9c-0.2,0-0.4,0.2-0.4,0.4
		c-0.1,0.4,0,0.9,0,1.3c2.1,0,4.1,0,6.1,0C131.7,145,131.7,144.2,131.7,143.3z M211,127.4c0-0.1,0-0.2-0.1-0.2
		c-0.5,0.1-0.9,0.3-1.3,0.3c-1.1,0-1.9,0.5-2.9,0.8c-0.1,0-0.3,0.3-0.3,0.4c0.1,0.4,0.1,0.8,0,1.2c0,0.1,0,0.3,0,0.4
		c1,0.2,1.9-0.4,2.9,0.1c0.2,0.1,0.9-0.2,1.1-0.5c0.3-0.6,0.4-1.4,0.6-2.1c-0.3,0-0.6-0.1-0.9-0.1c0,0,0-0.1,0-0.1
		C210.4,127.4,210.7,127.4,211,127.4z M195.8,125.8c-0.1,0.5-0.2,1-0.2,1.5c0,0.6,0.3,1.1,0.3,1.7c0.3,1.6,0.5,3.1,0.8,4.7
		c0.3-0.1,0.4-0.3,0.4-0.7c0-0.9-0.1-1.8,0.1-2.6c0.2-0.7,0.2-1.3,0.1-2c-0.1-0.5,0.3-1-0.1-1.4c0,0,0.1-0.1,0.1-0.2
		c0-0.1,0.1-0.3,0-0.3c-0.3-0.4,0-0.5,0.4-0.6c-0.5-0.2-0.8-0.3-1.1-0.4c0,0.1,0,0.1-0.1,0.2c0.2,0.1,0.4,0.1,0.5,0.2
		c0,0.1,0,0.1,0,0.1C196.8,126,196.3,125.9,195.8,125.8z M194.5,137.8c0.3-3.5,0.3-6.9-0.1-10.4c-0.1,0.7-0.2,1.3-0.3,2
		c0,0.2-0.1,0.4-0.1,0.6c-0.2,1.6-0.5,3.2-0.7,4.9c-0.1,0.4-0.1,0.8-0.1,1.2c0,0.2,0,0.4,0.3,0.3c0.3,0,0.6,0.1,0.6,0.5
		C194.3,137.2,194.4,137.5,194.5,137.8z M211.1,124.6c-1.8,0-3.5,0-5.3,0c0.1,0.8,0.2,1.4,0.3,2.2c1.7-0.4,3.3-0.9,4.9-1.3
		C211.1,125.2,211.1,124.9,211.1,124.6z M117.7,135.9c0,0.2,0,0.4,0.1,0.6c0.5,0.6,0.9,1.2,1.4,1.8c0.1,0.1,0.3,0.1,0.4,0.1
		c0.1,0,0.2-0.2,0.2-0.3c0-0.6,0-1.3,0-2c0-0.8,0.2-1.7-0.5-2.4c-0.8,0.7-1.7,1.4-2.6,2.2C117.1,135.8,117.4,135.8,117.7,135.9z
		 M195.1,128c0,0-0.1,0-0.1,0.1c0,2.8,0,5.7,0,8.5c0.4-0.4,0.8-0.8,1-1.3c0.4-0.8,0.1-1.7-0.1-2.6c-0.2-1.4-0.4-2.9-0.7-4.3
		C195.2,128.3,195.1,128.2,195.1,128z M108.3,145.9c-0.1-0.8-0.1-1.6-0.2-2.3c0-0.2-0.3-0.5-0.4-0.5c-0.5-0.1-0.9,0-1.4,0
		c0,0.8,0,1.5,0,2.2c0,0.4,0.3,0.6,0.7,0.7C107.3,145.9,107.7,145.9,108.3,145.9z M153.8,136.7c0-0.2-0.2-0.4-0.1-0.5
		c0.6-0.9-0.2-1.2-0.7-1.7c-0.1-0.1-0.5-0.2-0.6-0.1c-0.3,0.5-0.5,0.1-0.7-0.1c-0.1-0.1-0.3-0.2-0.5-0.3c0,0.9,0.1,1.7,0.1,2.5
		c0.1,0,0.2,0,0.2,0c0-0.3,0-0.5,0.1-0.8C151.9,137,152.9,136.5,153.8,136.7z M208.2,112.5c-0.1-0.4-0.1-0.4-0.5-0.3
		c-0.2,0.1-0.4,0.2-0.6,0.3c-0.4,0.2-0.4,0.4-0.1,0.7c0.7,0.6,1.7,0.6,2.5,0.1C209.3,112.4,208.8,112.1,208.2,112.5z M210.9,119
		c0,0.5,0,0.9,0,1.3c0.4-0.2,0.7-0.3,1-0.5c0,0,0,0.1,0.1,0.1c-0.2,0.2-0.5,0.5-0.7,0.8c0.6,0.1,1,0.2,1.6,0.3
		c-0.1-0.5-0.1-0.9-0.1-1.5C212.2,119.4,211.6,119.2,210.9,119z M106.4,136.9c-0.1,0-0.1,0-0.2,0c0,1.4-0.2,2.8,1,4.1
		c0.1-0.3,0.2-0.4,0.2-0.6C107.1,139.3,106.7,138.1,106.4,136.9z M209.2,115.7c0,0.1,0,0.1-0.1,0.2c0.3,0.4,0.5,0.9,1.1,0.5
		c-0.1,0.3-0.1,0.5-0.2,0.8c1.6-0.4,1.6-0.4,1.7-0.9C210.9,116.2,210.1,115.9,209.2,115.7z M190.7,108.2c1.4-0.3,2.1-1.3,2-2.2
		c-0.7,0.1-1.1,0.5-1,1.1C191.1,107.1,191.1,107.7,190.7,108.2z M196,138.2c-0.2,0.5-0.5,1,0.2,1.2c-0.2-0.6,0.4-0.4,0.6-0.5
		c-0.1-0.4-0.1-0.7-0.2-1c-0.1-0.3-0.4-0.5-0.6-0.8c-0.2,0.2-0.3,0.4-0.5,0.6c-0.1,0.1-0.1,0.2-0.1,0.3
		C195.6,138.1,195.8,138.1,196,138.2z M213.4,123.6c-0.6,0.3-1.2,0.6-1.9,1c0.7,0.2,1.3,0.4,1.9,0.6
		C213.4,124.6,213.4,124.1,213.4,123.6z M176.7,120c0.7-0.1,1.1-0.1,1.6-0.2c0-0.1,0.1-0.1,0.1-0.2c-0.4-0.4-0.8-0.8-1.3-1.3
		C176.9,118.9,176.8,119.4,176.7,120z M183.5,109.6c0.6,0.3,1.2,0.6,1.8,0.9c-0.2-0.7-0.4-1.3-0.5-1.9
		C184.3,109,184,109.3,183.5,109.6z M180.4,112.2c0.1,0.1,0.1,0.2,0.2,0.2c0.5,0.2,1.1,0.4,1.7,0.6c-0.2-0.6-0.4-1.2-0.7-1.8
		C181.1,111.6,180.7,111.9,180.4,112.2z M180.1,116.3c-0.4-0.6-0.7-1.1-1.1-1.6c-0.4,0.5-0.7,0.9-1,1.2
		C178.7,116,179.3,116.1,180.1,116.3z M210.2,113.9c-0.8,0.2-0.8,1-1.3,1.5c0.6-0.1,1.1-0.2,1.7-0.3
		C210.6,114.7,210.4,114.3,210.2,113.9z M211.3,128.3c0,0.1,0,0.1,0,0.2c0.5,0.3,1,0.5,1.6,0.8c0-0.5,0-1,0-1.5
		C212.3,128,211.8,128.2,211.3,128.3z M180.1,112.9c-0.3,0.4-0.6,0.9-0.9,1.3c0.7,0.1,1.3,0.2,2,0.3
		C180.8,113.9,180.5,113.5,180.1,112.9z M187.3,107.4c0.5,0.4,0.9,0.8,1.4,1.3c0-0.7,0-1.2,0-1.8C188.2,107,187.8,107.2,187.3,107.4
		z M177.6,123.5c0-0.1,0-0.1,0-0.2c-0.5-0.2-0.9-0.4-1.4-0.7c0,0.6,0,1.1,0,1.6C176.7,124,177.2,123.8,177.6,123.5z M181.9,110.9
		c0.5,0.3,1,0.5,1.4,0.7c0.4-0.5,0.2-1.1-0.1-1.3C182.6,109.9,182.3,110.6,181.9,110.9z M178.9,117.9c0-0.1,0-0.1,0.1-0.2
		c-0.3-0.4-0.7-0.9-1.1-1.4c-0.2,0.6-0.4,1.1-0.5,1.6C178,117.9,178.5,117.9,178.9,117.9z M176.2,126.4c0.3-0.2,0.6-0.4,0.8-0.5
		c0.2-0.1,0.5-0.2,0.8-0.4c-0.4-0.2-0.6-0.3-0.9-0.4c-0.6-0.3-0.7-0.3-0.7,0.4C176.2,125.7,176.2,126,176.2,126.4z M206.7,110.2
		c-0.1-0.1-0.3-0.4-0.6-0.5c-0.3-0.2-0.7-0.3-0.8,0.1c-0.1,0.4-0.1,0.9-0.2,1.2C205.5,110.7,206.1,110.5,206.7,110.2z M194.9,105.9
		c-0.5,0-1,0-1.5,0c0.3,0.5,0.6,1,0.9,1.5C194.5,106.9,194.7,106.4,194.9,105.9z M176.5,121.8c0.4-0.1,1,0.3,1.3-0.3
		c-0.5-0.7-0.8-0.8-1.3-0.8C176.5,121.1,176.5,121.4,176.5,121.8z M190.9,106.5c-0.4,0-0.8-0.1-1.1,0c-0.2,0-0.4,0.4-0.3,0.5
		c0.3,0.3,0.6,0.5,1,0.8C190.6,107.3,190.7,106.9,190.9,106.5z M207.1,110.7c-0.2,0.6-0.4,1.2-0.6,1.7c0.6-0.2,1.1-0.5,1.6-0.7
		C207.8,111.3,207.5,111,207.1,110.7z M211.5,124.3c0.6-0.3,1-0.6,1.5-0.9c0-0.1,0-0.1,0-0.2c-0.5-0.1-0.9-0.3-1.4-0.4
		C211.5,123.4,211.5,123.8,211.5,124.3z M220.8,126.4c-0.3,0.8,0.4,1.4,1.1,1.4C222.1,126.8,221.3,126.7,220.8,126.4z M210.9,129.7
		c0.6,0,1.1,0,1.6,0c0-0.1,0-0.1,0.1-0.1c-0.5-0.3-1.1-0.6-1.6-1C210.9,129,210.9,129.3,210.9,129.7z M192.7,107.7
		c0.5,0,0.9,0.1,1.3,0.1c-0.3-0.5-0.5-1-0.7-1.5c-0.1,0-0.1,0-0.2,0C192.9,106.8,192.8,107.3,192.7,107.7z M183.9,110.1
		c-0.3,0.5-0.1,0.9,0.1,1.4c0.3-0.2,0.7-0.4,1.1-0.6C184.6,110.5,184.2,110.3,183.9,110.1z M199.2,106.6c-0.3-0.4-0.6-0.6-1.1-0.4
		c-0.1,0.1-0.3,0.2-0.3,0.2c0.1,0.2,0.2,0.5,0.4,0.7c0.1,0.1,0.3,0.1,0.4,0C198.8,107,198.9,106.8,199.2,106.6z M179.1,118.2
		c-0.6,0.1-1.1,0.1-1.7,0.1c0.5,0.4,0.8,0.7,1.3,1.1C178.8,119,179,118.6,179.1,118.2z M176.7,122.4c0,0.1,0,0.1,0,0.2
		c0.2,0.1,0.5,0.3,0.7,0.4c0.2,0.1,0.4,0,0.5-0.1c0.1-0.1,0.2-0.4,0.1-0.6c0-0.1-0.3-0.3-0.4-0.2
		C177.4,122.2,177.1,122.3,176.7,122.4z M195.7,107.7c0.4-0.4-0.1-0.7-0.2-1c0-0.1-0.2-0.2-0.4-0.2c-0.1,0-0.2,0.2-0.3,0.3
		c-0.1,0.2-0.1,0.5-0.2,0.7C195,107.6,195.4,107.6,195.7,107.7z M211.2,127.9c0.4-0.1,0.8-0.2,1.4-0.3c-0.4-0.4-0.7-0.8-0.9-0.8
		C211.2,126.9,211,127.3,211.2,127.9z M183.4,111.9c-0.3-0.2-0.6-0.3-0.9-0.4c-0.1-0.1-0.3,0-0.5,0c0,0.2,0,0.3,0.1,0.5
		c0.1,0.3,0.3,0.5,0.5,0.8C182.9,112.5,183.1,112.2,183.4,111.9z M209.6,126.5c0.1,0.2,0.3,0.4,0.5,0.6c0.3-0.4,0.5-0.7,0.7-1
		c0-0.1,0-0.1-0.1-0.1c-0.7,0.1-1.3,0.2-2,0.3c0,0.1,0,0.2,0,0.2C209.1,126.5,209.3,126.5,209.6,126.5z M178.7,120.2
		c-0.7,0-1.2,0-1.7,0c0.1,0.4,0.6,0.9,1,0.8C178.3,120.9,178.4,120.6,178.7,120.2z M177.8,125c0-0.5,0-0.8,0-1.3
		c-0.5,0.3-0.9,0.5-1.4,0.8C176.9,124.7,177.3,124.8,177.8,125z M201.1,107.2c-0.1-0.4-0.5-0.6-0.9-0.6c-0.4,0-0.5,0.2-0.3,0.5
		c0.1,0.2,0.1,0.4,0.2,0.7C200.4,107.7,200.7,107.5,201.1,107.2z M204.8,109.2c-0.1-0.2-0.1-0.5-0.2-0.7c-0.2-0.1-0.5-0.2-0.7-0.1
		c-0.1,0-0.1,0.4-0.1,0.6c0.4,0.1,0.1,0.4,0.1,0.6C204.1,109.4,204.4,109.3,204.8,109.2z M205.2,111.4c0.3,0.2,0.6,0.4,0.9,0.6
		c0.2-0.4,0.5-0.9,0.7-1.3c-0.1,0-0.1-0.1-0.1-0.1C206.2,110.8,205.8,111.1,205.2,111.4z M217.2,126.5c0-0.2,0.1-0.3,0-0.5
		c0-0.1,0-0.2-0.1-0.3c-0.1,0-0.2,0-0.3,0c-0.1,0.1-0.1,0.2-0.1,0.4c-0.2-0.2-0.5-0.3-0.9-0.6c0,0.3,0,0.5,0.1,0.7
		C216.2,126.6,216.9,126.6,217.2,126.5z M189.1,107.1c0,0.6,0,1.1,0,1.6c0.4-0.1,0.7-0.2,1.1-0.3
		C189.8,107.9,189.5,107.5,189.1,107.1z M211,118.7c0.6,0,1,0,1.5,0c-0.1-0.4-0.3-0.7-0.4-1C211.7,118,211.4,118.3,211,118.7z
		 M179.6,114.5c-0.1,0.1-0.1,0.1-0.2,0.2c0.2,0.3,0.4,0.7,0.7,0.8c0.2,0.1,0.5-0.3,0.9-0.5C180.4,114.7,180,114.6,179.6,114.5z
		 M187.2,108.1c-0.1,0-0.1,0-0.1,0.1c0,0.4,0,0.8,0.1,1.2c0.3-0.1,0.7-0.1,1-0.2C187.8,108.7,187.5,108.4,187.2,108.1z M217.6,126.2
		c0.4,0.5,1.2,0.6,1.7,0.2C218.8,125.9,218.2,125.8,217.6,126.2z M178.6,116.5c0,0-0.1,0.1-0.1,0.1c0.3,0.2,0.6,0.6,0.9,0.6
		c0.2,0,0.4-0.4,0.7-0.7C179.5,116.5,179.1,116.5,178.6,116.5z M195.8,105.9c-0.1,0.6,0.2,0.7,0.6,0.8c0.2,0,0.4-0.2,0.6-0.4
		c-0.1-0.1-0.2-0.4-0.4-0.4C196.3,105.8,196,105.9,195.8,105.9z M176.4,126.9c-0.2,0.8,0,1.2,0.6,1.4
		C177.1,127.3,177.1,127.2,176.4,126.9z M106.2,142c0.5-0.1,1.1-0.1,1.7-0.2C107.3,141.2,106.8,141.2,106.2,142z M224.6,128.6
		c-0.1-0.6-0.6-0.6-0.9-0.8c-0.1,0.2-0.3,0.3-0.3,0.4c0,0.1,0.1,0.4,0.2,0.4C223.9,128.6,224.2,128.6,224.6,128.6z M196.5,107.7
		c0,0.1,0.1,0.1,0.1,0.2c0.3,0,0.5,0,0.8-0.1c0.1,0,0.2-0.1,0.3-0.1c0-0.1,0-0.3-0.1-0.4c-0.2-0.1-0.4-0.2-0.6-0.1
		C196.8,107.3,196.7,107.5,196.5,107.7z M200.4,108.6c0.1,0.1,0.1,0.1,0.1,0.1c0.2,0,0.5,0.1,0.7,0.1c0-0.4,0.1-0.7,0.1-1.1
		c-0.1,0-0.1,0-0.2-0.1C200.9,108,200.7,108.3,200.4,108.6z M199.8,108.4c-0.2-0.4-0.2-0.7-0.4-0.8c-0.2-0.1-0.5,0-0.8-0.1
		c0,0.1,0,0.4,0,0.4C199,108.1,199.3,108.2,199.8,108.4z M211.6,124.8c-0.1,0-0.1,0.1-0.2,0.1c0.1,0.2,0.1,0.7,0.2,0.7
		c0.4,0,0.8-0.1,1.1-0.1c0,0,0-0.1,0-0.1C212.4,125.1,212,125,211.6,124.8z M205,109.6c-0.1,0-0.2-0.1-0.2-0.1
		c-0.2,0.2-0.5,0.4-0.6,0.6c-0.1,0.1,0.3,0.4,0.5,0.7C204.8,110.3,204.9,110,205,109.6z M197.7,124.7c-0.6-0.3-0.9-0.2-1.1,0.4
		c0.3,0.1,0.7,0.2,1,0.3c0,0,0-0.1,0-0.1c-0.1-0.1-0.2-0.1-0.3-0.2C197.5,125,197.6,124.9,197.7,124.7z M215.7,126.5
		c0-0.4,0-0.7,0-1.1c-0.4,0.2-0.7,0.3-1.1,0.5C215,126.1,215.3,126.3,215.7,126.5z M207.7,127.3c0-0.1,0-0.1,0-0.2
		c-0.3,0-0.6,0-0.9,0.1c0,0.2,0,0.4,0.1,0.6C207.1,127.6,207.4,127.5,207.7,127.3z M195.8,136.1c0.1,0.2,0.2,0.4,0.3,0.6
		c0.1,0,0.1,0,0.2,0c0-0.3,0-0.6,0-1C196.1,135.9,196,136,195.8,136.1z"/>
	<path class="st0"  d="M137.3,75.1c0.3-0.7,0.5-1.3,0.7-1.9c-0.1,0-0.3,0-0.3,0c-0.6,0.5-1.3,1-1.9,1.4c-0.3,0.2-0.8,0.4-1.2,0.4
		c-7.5,0-15.1,0-22.6,0c-0.4,0-0.6-0.2-0.8-0.5c-0.8-1.3-1.5-2.5-2.4-3.9c-0.4,1-0.8,2-1.2,2.9c-0.5,1.5-0.5,1.5-2,1.5
		c-14.4,0-28.8,0-43.1,0c-0.3,0-0.6,0-0.9,0c0.4-1.1,0.9-2.1,1.3-3.1c0.9-2.3,1.8-4.5,2.6-6.8c0.7-1.7,1.4-3.4,2.1-5.2
		c0.5-1.3,1-2.6,1.6-3.9c0.1-0.3,0.2-0.5,0.6-0.5c3,0,5.9,0,9,0c-1.3,3.4-2.7,6.7-4,10.2c0.4,0,0.6,0,0.8,0c1.8,0,3.6,0,5.5,0
		c0.5,0,0.7-0.1,0.8-0.6c0.5-1.4,1.1-2.8,1.7-4.3c0.6-1.6,1.3-3.1,1.9-4.7c0.2-0.5,0.4-0.7,0.9-0.7c8.3,0,16.5,0,24.8,0
		c1.3,0,1.3,0,1.9,1c0.7,1.1,1.4,2.3,2.1,3.5c0.6-1.4,1.1-2.7,1.6-4.1c0.2-0.4,0.4-0.4,0.7-0.4c7.4,0,14.9,0,22.3,0
		c0.7,0,1.5,0,2.3,0c0.2,0,0.4,0.2,0.5,0.3c0.5,0.7,0.9,1.5,1.4,2.4c0.3-0.9,0.7-1.6,0.9-2.4c0.1-0.3,0.3-0.4,0.6-0.4
		c8.6,0,17.3,0,25.9,0c0.2,0,0.5,0.2,0.7,0.4c0.7,1.2,1.4,2.4,2.2,3.6c0.1,0.1,0.1,0.2,0.3,0.4c0.6-1.4,1.1-2.7,1.6-3.9
		c0.1-0.2,0.3-0.4,0.4-0.4c3,0,6.1,0,9.2,0c-0.4,1-0.8,2-1.2,3c-1.1,2.8-2.2,5.7-3.4,8.5c-1,2.5-2,5-3,7.5c-0.1,0.3-0.3,0.5-0.7,0.5
		c-2,0-4.1,0-6.1,0c-0.3,0-0.5-0.1-0.6-0.4c-0.7-1.3-1.5-2.5-2.3-3.7c0-0.1-0.1-0.1-0.2-0.3c-0.5,1.2-0.9,2.2-1.2,3.2
		c-0.1,0.3-0.2,0.7-0.4,1c-0.1,0.1-0.3,0.2-0.4,0.3c-0.1,0-0.2,0-0.2,0c-9.4,0-18.7,0-28.1,0C137.7,75.1,137.5,75.1,137.3,75.1z
		 M81.1,73c5.3,0,10.5,0,15.7,0c0.2,0,0.5-0.2,0.6-0.4c0.2-0.5,0.4-1,0.6-1.5c0.6-1.4,1.1-2.8,1.7-4.2c0.7-1.8,1.4-3.5,2.1-5.3
		c0.5-1.2,1-2.4,1.4-3.6c-5.5,0-10.9,0-16.3,0c-0.2,0.5-0.3,1-0.5,1.5c-0.5,1.2-1,2.4-1.5,3.6c-0.5,1.1-0.9,2.3-1.3,3.4
		c-0.8,1.9-1.6,3.8-2.4,5.7C81.2,72.4,81.2,72.7,81.1,73z M162.6,58c-0.1,0-0.1,0-0.2,0c-5.2,0-10.4,0-15.6,0
		c-0.2,0-0.4,0.2-0.5,0.3c-0.3,0.8-0.6,1.5-0.9,2.3c-1.4,3.5-2.9,7.1-4.3,10.6c-0.2,0.6-0.4,1.1-0.6,1.8c0.1,0,0.2,0.1,0.3,0.1
		c5.2,0,10.3,0,15.5,0c0.2,0,0.5-0.2,0.5-0.4c1-2.5,2-5,3-7.5C160.7,62.8,161.7,60.4,162.6,58z M120.6,73c0.3,0,0.5,0,0.7,0
		c3.9,0,7.9,0,11.8,0c0.9,0,1.7-0.2,2.4-0.8c0.4-0.3,0.9-0.7,1.4-1c0.3-0.2,0.7-0.5,0.9-0.8c0.5-1,0.8-2,1.2-3
		c0.8-2,1.6-4.1,2.5-6.1c0.5-1.1,0.7-2.1-0.2-3.1c-0.2-0.2-0.3-0.3-0.6-0.3c-1.6,0-3.2,0-4.7,0c-3,0-5.9,0-8.9,0
		c-0.2,0-0.5,0.1-0.6,0.3c-0.3,0.6-0.6,1.3-0.8,1.9c-1.2,2.9-2.3,5.9-3.5,8.8C121.6,70.3,121.1,71.6,120.6,73z M123.1,57.9
		c-0.2,0-0.4,0-0.6,0c-1.3,0-2.5,0-3.8,0c-0.4,0-0.5,0.1-0.7,0.4c-0.3,0.8-0.6,1.6-0.9,2.3c-0.6,1.4-1.1,2.8-1.7,4.3
		c-0.2-0.4-0.4-0.6-0.6-0.9c-1.2-1.9-2.3-3.8-3.5-5.8c-0.1-0.1-0.3-0.3-0.4-0.3c-1.4,0-2.8,0-4.1,0c-2,5-4,10-6,15.1
		c1.6,0,3,0,4.5,0c0.2,0,0.5-0.2,0.5-0.4c0.8-2.1,1.6-4.1,2.4-6.2c0-0.1,0.1-0.2,0.2-0.3c0.3,0.4,0.5,0.8,0.8,1.2
		c1.1,1.8,2.1,3.6,3.2,5.4c0.1,0.2,0.3,0.3,0.5,0.3c1.2,0,2.4,0,3.6,0c0.4,0,0.6-0.2,0.7-0.5c0.3-0.9,0.7-1.8,1.1-2.7
		c0.9-2.2,1.8-4.4,2.7-6.6C121.7,61.5,122.3,59.7,123.1,57.9z M176.4,73c2-5,4-10,6-15.1c-1.6,0-3.1,0-4.6,0c-0.1,0-0.3,0.1-0.4,0.3
		c-0.2,0.5-0.3,0.9-0.5,1.4c-0.7,1.8-1.4,3.5-2.1,5.3c-0.1-0.2-0.2-0.3-0.3-0.5c-1.2-2.1-2.5-4.2-3.7-6.3c-0.1-0.1-0.3-0.3-0.4-0.3
		c-1.3,0-2.5,0-3.8,0c-0.1,0-0.4,0.1-0.4,0.3c-0.5,1.3-1,2.5-1.6,3.8c-1.2,2.9-2.3,5.9-3.5,8.8c-0.3,0.7-0.5,1.4-0.8,2.1
		c1.5,0,2.9,0,4.2,0c0.4,0,0.6-0.1,0.8-0.5c0.5-1.4,1.1-2.8,1.6-4.1c0.3-0.8,0.6-1.6,1-2.4c0.1,0.2,0.2,0.3,0.3,0.4
		c1.2,2.1,2.5,4.2,3.7,6.2c0.1,0.2,0.4,0.3,0.6,0.3C173.8,73,175.1,73,176.4,73z M64.7,73c0.2,0,0.3,0,0.4,0c3.9,0,7.8,0,11.7,0
		c0.4,0,0.6-0.1,0.7-0.5c0.4-1.1,0.9-2.3,1.3-3.4c0.3-0.9,0.2-1-0.7-1c-1.9,0-3.9,0-5.8,0c-0.2,0-0.4,0-0.7,0
		c1.3-3.4,2.7-6.7,4-10.1c-0.2-0.1-0.2-0.1-0.3-0.1c-1.3,0-2.6,0-3.9,0c-0.5,0-0.7,0.3-0.8,0.7c-0.3,0.9-0.7,1.9-1.1,2.8
		c-0.8,1.9-1.6,3.8-2.4,5.7c-0.6,1.5-1.2,3-1.8,4.5C65.1,71.9,64.9,72.4,64.7,73z"/>
	<path class="st0"  d="M199.5,112.9c0,0-0.1-0.1-0.2-0.1c0.2-0.5,0.3-0.9,0.5-1.4c0-0.1,0.1-0.2,0.2-0.2c0,0,0.1,0,0.1,0.1c0,0.1,0,0.2,0,0.3
		C200,112,199.8,112.5,199.5,112.9z"/>
	<path class="st0"  d="M197.1,111.9c0-0.6,0.1-1.1,0.1-1.7c0.1,0,0.1,0,0.1,0c0,0.6,0,1.1,0,1.7C197.3,111.9,197.2,111.9,197.1,111.9z"/>
	<path class="st0"  d="M197.3,109.3c0.8,0.3,0.2,0.7,0.4,1.1c-0.1,0-0.1,0-0.2,0C197.5,110.1,197.4,109.7,197.3,109.3z"/>
	<path class="st0"  d="M87.8,68c0.4-1,0.7-1.9,1.1-2.7c0.3-0.6,0.5-1.3,0.8-1.9c0.1-0.2,0.3-0.4,0.5-0.4c2,0,4,0,6.1,0c-0.3,0.9-0.6,1.7-1,2.5
		c-0.3,0.8-0.6,1.5-0.9,2.3c-0.1,0.1-0.2,0.3-0.4,0.3C92,68,90,68,87.8,68z M91,65.9c0.4,0,0.8,0,1.1,0c0.6,0.1,1-0.1,1-0.8
		c-0.4,0-0.8,0-1.2,0C91.3,65,91.1,65.3,91,65.9z"/>
	<path class="st0"  d="M147.3,68c0.6-1.6,1.2-3.1,1.8-4.6c0.1-0.2,0.3-0.4,0.5-0.4c2,0,4.1,0,6.2,0c-0.7,1.7-1.4,3.4-2,5.1
		C151.7,68,149.5,68,147.3,68z M152.6,65.1c-0.4,0-0.8,0.1-1.2,0c-0.6-0.1-0.8,0.2-0.9,0.8c0.4,0,0.8,0,1.2,0
		C152.3,66,152.6,65.7,152.6,65.1z"/>
	<path class="st0"  d="M127.5,68c0.6-1.6,1.2-3.2,1.9-4.8c0.1-0.1,0.3-0.3,0.5-0.3c2,0,4,0,6,0c0.1,0,0.1,0,0.2,0.1c-0.6,1.6-1.2,3.1-1.9,4.7
		c-0.1,0.2-0.3,0.3-0.5,0.3C131.6,68,129.6,68,127.5,68z M132.8,65.1c-0.4,0-0.8,0-1.2,0c-0.6-0.1-0.9,0.2-0.9,0.8
		c0.4,0,0.9,0,1.3,0C132.5,66,132.7,65.6,132.8,65.1z"/>
</g>
</svg>
