<?xml version="1.0" encoding="utf-8"?>
<!-- Generator: Adobe Illustrator 24.0.2, SVG Export Plug-In . SVG Version: 6.00 Build 0)  -->
<svg version="1.1" id="Слой_1" xmlns="http://www.w3.org/2000/svg" xmlns:xlink="http://www.w3.org/1999/xlink" x="0px" y="0px"
	 viewBox="0 0 238.1 150.2" style="enable-background:new 0 0 238.1 150.2;" xml:space="preserve">
<g>
	<path class="st0"  d="M0.6,51.4c0.5,0,0.9-0.1,1.4-0.1c41-0.1,82.1-0.1,123.1-0.1c37,0,74,0.1,111,0.1c0.5,0,0.9,0,1.4,0c0,1.8,0,3.5,0,5.3
		c-79,0-158,0-236.9,0C0.6,54.8,0.6,53.1,0.6,51.4z"/>
	<path class="st0"  d="M0.6,105.2c78.9,0,157.9,0,236.9,0c0,1.7,0,3.4,0,5.2c-79,0-157.9,0-236.9,0C0.6,108.6,0.6,106.9,0.6,105.2z"/>
	<path class="st0"  d="M49.5,10c-10.8-1-17.4,8.1-17.7,15c-0.4,9.1,7,17.6,17.6,17c-3.2,2.1-6.6,3.2-10.5,3.3c-3.9,0-7.6-0.9-10.6-2.9
		c-4.5-2.9-7.5-7.2-8.5-12.5c-1-5.7-0.1-11,3.6-15.7C30.3,5.4,42.3,4.7,49.5,10z"/>
	<path class="st0"  d="M87.2,6.8c0.5,1.3,0.7,2.4,1.3,2.9c0.6,0.5,1.8,0.2,2.9,0.3c-0.3,0.4-0.4,0.7-0.7,0.8c-2,1.1-1.7,0.6-1.2,2.8
		c0.1,0.4,0.2,0.7,0.4,1.5c-1.8-1.7-3.4-2.1-5.2-0.1c1.1-2.1,0.9-3.8-1.6-4.7c0.1-0.1,0.2-0.2,0.2-0.3c0.6,0,1.2-0.1,1.8,0
		c1.1,0.1,1.4-0.4,1.5-1.3C86.9,8.1,87,7.6,87.2,6.8z"/>
	<path class="st0"  d="M104.6,15c-1.8-1.7-3.4-2-5.2-0.1c1.3-2.2,0.8-3.8-1.5-4.7c0.1-0.2,0.2-0.3,0.2-0.4c0.6,0,1.2-0.1,1.8,0
		c1,0.1,1.3-0.4,1.4-1.3c0.1-0.5,0.2-1,0.5-1.6c0.6,2.1,1.4,3.7,4.1,2.6c0,0.1,0,0.3,0,0.4c-0.2,0.3-0.4,0.6-0.6,0.8
		c-1.9,1.1-1.7,0.6-1.2,2.7C104.3,13.9,104.4,14.3,104.6,15z"/>
	<path class="st0"  d="M113.2,9.8c0.6,0,1.2-0.1,1.8,0c1,0.1,1.3-0.4,1.4-1.3c0.1-0.5,0.2-1,0.5-1.6c0.4,2.3,1.5,3.6,4.1,2.7c0,0.1,0,0.2,0,0.3
		c-0.2,0.3-0.4,0.6-0.6,0.8c-2,1.2-1.6,0.7-1.2,2.7c0.1,0.4,0.2,0.8,0.3,1.3c-2.5-1.5-2.5-1.5-5.3,0.1c1.5-2.2,1-3.8-1.3-4.8
		C113.1,10,113.1,9.9,113.2,9.8z"/>
	<path class="st0"  d="M73.3,24.8c1,0,1.9,0,3,0c-0.3,0.4-0.5,0.8-0.7,0.9c-1.9,1.1-1.7,0.6-1.2,2.8c0.1,0.4,0.2,0.7,0.3,1.2
		c-0.9-0.5-1.7-1.2-2.5-1.2s-1.6,0.7-2.7,1.3c1.3-2.1,1-3.7-1.4-4.6c0.1-0.1,0.2-0.2,0.2-0.3c0.6,0,1.2-0.1,1.8,0
		c1.1,0.1,1.4-0.4,1.5-1.3c0.1-0.5,0.2-0.9,0.6-1.4C72.6,22.9,72.9,23.8,73.3,24.8z"/>
	<path class="st0"  d="M83.1,24.8c0.6,0,1.2-0.1,1.8,0c1,0.1,1.3-0.4,1.4-1.3c0.1-0.5,0.2-1,0.5-1.6c0.5,2.1,1.4,3.7,4.2,2.6c0,0.1,0,0.3-0.1,0.4
		c-0.2,0.3-0.4,0.6-0.6,0.8c-1.9,1.1-1.7,0.6-1.2,2.7c0.1,0.4,0.2,0.8,0.4,1.5c-1.8-1.7-3.4-2-5.2-0.1c1.3-2.2,0.8-3.8-1.5-4.7
		C82.9,24.9,83,24.9,83.1,24.8z"/>
	<path class="st0"  d="M99.4,29.7c1.3-2.2,0.8-3.8-1.5-4.7c0.1-0.1,0.2-0.2,0.2-0.3c0.5,0,1.1-0.1,1.6,0c1.2,0.2,1.7-0.4,1.7-1.5
		c0-0.4,0.2-0.9,0.5-1.6c0.5,1.2,0.9,2.1,1.2,3.1c0.9,0,1.8,0,3,0c-0.3,0.4-0.5,0.8-0.7,0.9c-2,1.1-1.7,0.6-1.2,2.7
		c0.1,0.4,0.2,0.8,0.4,1.6C102.8,28.2,101.2,27.9,99.4,29.7z"/>
	<path class="st0"  d="M59.7,45.3c-2.5-1.7-2.5-1.7-5-0.1c0-0.1-0.1-0.1-0.1-0.2c0.9-1.9,0.8-3.5-1.6-4.4c0.1-0.1,0.2-0.2,0.2-0.3
		c0.6,0,1.1-0.1,1.7,0c1.1,0.1,1.6-0.4,1.6-1.4c0-0.5,0.2-0.9,0.6-1.5c0.3,2.4,1.5,3.5,4.3,2.7c-0.4,0.6-0.6,1-0.8,1.1
		c-1.8,1-1.8,0.5-1.2,2.9C59.5,44.4,59.6,44.8,59.7,45.3z"/>
	<path class="st0"  d="M68.5,40.3c0.6,0,1.2-0.1,1.8,0c1,0.1,1.3-0.4,1.4-1.3c0.1-0.5,0.2-1,0.5-1.6c0.4,2.3,1.5,3.6,4.1,2.7c0,0.1,0,0.2,0,0.3
		c-0.2,0.3-0.4,0.6-0.6,0.8c-2,1.2-1.6,0.7-1.2,2.7c0.1,0.4,0.2,0.8,0.4,1.5c-1.8-1.7-3.4-2-5.2-0.2c1.3-2.2,0.8-3.7-1.6-4.7
		C68.3,40.5,68.4,40.4,68.5,40.3z"/>
	<path class="st0"  d="M89.5,45.5c-1.8-1.7-3.4-2-5.2,0.1c0.3-1.3,0.9-2.3,0.6-3.1c-0.2-0.8-1.3-1.3-2.2-2.1c0.8,0,1.4-0.1,1.9,0
		c1.2,0.1,1.5-0.4,1.6-1.5c0-0.4,0.2-0.9,0.5-1.6c0.3,0.7,0.5,1.2,0.7,1.6c0.2,0.5,0.4,0.9,0.5,1.5c0.9,0,1.8,0,3,0
		c-0.3,0.4-0.4,0.8-0.7,0.9c-1.9,1.1-1.7,0.6-1.2,2.8C89.3,44.4,89.3,44.8,89.5,45.5z"/>
	<path class="st0"  d="M104.5,45.1c-1.8-1.4-3.4-1.7-5.1,0.2c1.2-2.2,0.9-3.8-1.5-4.7c0.1-0.1,0.2-0.2,0.2-0.3c0.6,0,1.2-0.1,1.8,0
		c1.1,0.1,1.4-0.5,1.5-1.4c0.1-0.5,0.2-0.9,0.6-1.4c0.4,0.9,0.7,1.8,1.1,2.7c0.9,0,1.8,0,3,0c-0.3,0.4-0.4,0.8-0.7,0.9
		c-1.9,1.1-1.8,0.5-1.2,2.8C104.3,44.4,104.4,44.8,104.5,45.1z"/>
	<path class="st0"  d="M114.5,45.3c1.3-2.2,0.8-3.8-1.5-4.7c0.1-0.1,0.2-0.2,0.2-0.3c0.5,0,1.1-0.1,1.6,0c1.2,0.2,1.7-0.4,1.7-1.5
		c0-0.4,0.2-0.9,0.5-1.6c0.5,1.2,0.9,2.1,1.2,3.1c0.9,0,1.8,0,3,0c-0.3,0.4-0.5,0.8-0.7,0.9c-2,1.1-1.7,0.6-1.2,2.7
		c0.1,0.4,0.2,0.8,0.4,1.6C117.9,43.8,116.3,43.4,114.5,45.3z"/>
	<path class="st0"  d="M114.5,29.9c1.2-2.2,0.9-3.8-1.4-4.7c0.1-0.2,0.1-0.3,0.1-0.3c2.1,0.3,3.6-0.4,3.9-2.8c0.4,0.9,0.5,2,1.2,2.5
		c0.6,0.5,1.8,0.2,2.9,0.2c-0.4,0.5-0.7,0.8-1.1,1.2c-0.4,0.3-0.8,0.6-1.3,0.9c0.2,0.9,0.5,1.7,0.8,2.7c-0.2,0-0.3,0-0.3,0
		C117.7,28,116.2,28.3,114.5,29.9z"/>
</g>
</svg>
