<?xml version="1.0" encoding="utf-8"?>
<!-- Generator: Adobe Illustrator 24.0.2, SVG Export Plug-In . SVG Version: 6.00 Build 0)  -->
<svg version="1.1" id="Слой_1" xmlns="http://www.w3.org/2000/svg" xmlns:xlink="http://www.w3.org/1999/xlink" x="0px" y="0px"
	 viewBox="0 0 238.1 150.2" style="enable-background:new 0 0 238.1 150.2;" xml:space="preserve">
<style type="text/css">
	.st0{fill-rule:evenodd;clip-rule:evenodd;fill:#36362F;}
</style>
<g>
	<path class="st0" d="M121.4,49.6C117,55,104.2,72.7,102.9,75c-2.8,4.4-3,6.5-3.1,7.9c-0.1,1.4-0.1,3.9,2.2,5.9
		c3.8,3.4,9.1,2.8,13.8,2.8h38.8c1.6,0,2.2-0.5,3-1.7c3.1-4.7,4.5-9.8,4.5-14.5c0-9.8-6.4-22.2-22.6-27.9l-1.9,2.7
		c12.8,6.1,18.2,14.1,18.2,25.2c0.1,3-0.7,6.2-2.7,9.3h-37.7c-2.2,0-2.5-2.5-1.7-4c3.4-5.9,6.8-11.2,10.8-16.5
		c3.8-5.1,7.5-9.8,11.5-14.8c1-1.4,0.3-2.8-1.7-3.1c-4.3-0.9-8.9-1.5-14.5-1.5c-30.9,0-42.2,17.8-42.2,30.9
		c0,14.2,11.3,30.9,42.3,30.9c17.1,0,28.3-5.6,34.9-12.6h-6.6c-5.7,5.2-15.5,9-28.3,9c-26.1,0-35.9-14.7-35.9-27.4
		c0.2-11.3,10.5-27,36.4-27.4C121.4,47.8,122.1,48.7,121.4,49.6z"/>
	<path class="st0" d="M214.4,131c1.5,0.2,2.8,1.4,2.8,2.9c0,1.6-1.5,2.9-3.2,2.9h-33.2v-21.6h-9.8v21.8h-18.1c-4.9,0-5.9-3-5.9-5.7
		V115h-16.2c-1.6,1-3.1,2.3-4.9,3.2l-9.6,5.9l-12.5-9.1H84.3v5.4h7.1v-3l16.5,11.9l-11.3,7.1H84.3v5.4h14.2c1.5-1,3-2.1,4.5-3.1
		l10-6l12.6,9H140l-18.9-14.2l9.7-6.4c2.1-1.4,4.3-2.5,6.4-3.7v14.3c0,6,1.5,10.2,13.7,10.2l68.6-0.1c5.3,0.1,8.7-3.6,8.7-8
		s-3.9-8-8.7-8h-24.9c0.3-3,2.9-5.6,5.6-5.6h25.1l-0.1-5.2h-26.6c-8.4,0-15.2,6.9-15.4,15.2c0,0.6,0.3,0.9,0.9,0.9L214.4,131z
		 M84.3,131v-5.6h4.9v5.6H84.3z M84.3,115H66c-5,0-8.8,1.3-11.7,3.6c-5.1,4-6.7,8.2-6.7,10.2h6.6c-2.9,2.2-4.9,4.7-5.9,7.8H26.6
		c-3.9,0-6.5-2.8-6.5-5.4v-16.2h-9.6v16.9c0,6,5.8,10.3,15,10.3h58.8v-5.4H61c0.1-2.8,3.1-5.6,5.8-5.6h17.6v-5.6H60.7
		c-0.3-1.6,2.8-4.9,5.1-4.9h18.5L84.3,115L84.3,115z"/>
</g>
</svg>
