<?xml version="1.0" encoding="utf-8"?>
<!-- Generator: Adobe Illustrator 26.0.1, SVG Export Plug-In . SVG Version: 6.00 Build 0)  -->
<svg version="1.1" id="Слой_1" xmlns:xodm="http://www.corel.com/coreldraw/odm/2003"
	 xmlns="http://www.w3.org/2000/svg" xmlns:xlink="http://www.w3.org/1999/xlink" x="0px" y="0px" viewBox="0 0 238.1 150.2"
	 style="enable-background:new 0 0 238.1 150.2;" xml:space="preserve">
<style type="text/css">
	.st0{fill:#373535;}
	.st1{font-family:'HelveticaNeueBoldCondensed';}
	.st2{font-size:6.0299px;}
	.st3{fill-rule:evenodd;clip-rule:evenodd;fill:#2B2A29;}
</style>
<g id="Слой_x0020_1">
	<g id="_105553196830112">
		<text transform="matrix(1 0 0 1 99.3604 113.8876)" class="st0 st1 st2">O‘ZBEKISTON RESPUBLIKASI ICHKI ISHLAR VAZIRLIGI </text>
		<text transform="matrix(1 0 0 1 95.96 121.0145)" class="st0 st1 st2">TOSHKENT VILOYATI ICHKI ISHLAR BOSH BOSHQARMASI</text>
		<text transform="matrix(1 0 0 1 110.1748 128.1415)" class="st0 st1 st2">YO‘L HARAKATI XAVFSIZLIGI BOSHKARMASI</text>
		<g id="_2693946625456">
			<path class="st3" d="M128.4,54.4c0-4.6,1.3-10,3.1-13.6c1.4-2.9,2.1-4.1,3.9-6.5c0.8-1,2-2.4,2.9-3.3l1.6-1.5
				c0.2-0.2,0.4-0.3,0.5-0.5c2.7-2.2,4.3-3.2,7.7-4.8c4.2-2,9.2-3,14.4-3c8.8,0,17.4,3.8,23.5,9.9l2,2.2c2.2,2.7,3.2,4.3,4.8,7.7
				c2,4.2,3,9.2,3,14.4c0,10.2-5,18.6-9.9,23.5c-0.4,0.4-0.7,0.6-1.1,1c-0.2,0.2-0.4,0.3-0.5,0.5l-1.7,1.4c-2.5,1.8-3.4,2.4-6.5,3.9
				c-8.3,4-19.7,4-28,0c-3.2-1.5-5.1-2.7-7.7-4.9l-2.1-2c-0.4-0.4-0.6-0.7-1-1.1l-1-1.1c-2.2-2.7-3.2-4.3-4.8-7.7
				C129.4,64.7,128.4,59.6,128.4,54.4L128.4,54.4L128.4,54.4z M138.7,37.3L138.7,37.3z M185.5,37.3L185.5,37.3L185.5,37.3z
				 M177,34.4c-0.3,0.1-0.6,0.2-0.5,0.5c0.1,0.3,0.2,0.6,0.5,0.5C177.9,35.1,177.4,34.2,177,34.4L177,34.4z M152.6,33.2
				c0.2-0.2,0.3-0.5,0.3-0.7c-0.1-0.1-0.3-0.2-0.5-0.3c-0.3-0.1-0.3,0.1-0.4,0.3C151.7,33.2,152.5,33.2,152.6,33.2L152.6,33.2z
				 M153.2,34.3c0.7-0.9-0.1-1.1-0.5-1c-0.1,0.1-0.3,0.5-0.2,0.7C152.5,34.2,152.9,34.4,153.2,34.3L153.2,34.3L153.2,34.3z
				 M171.6,33.2c0.3,0,0.6-0.1,0.7-0.3c0-0.2,0-0.4-0.1-0.6c-0.2-0.5-0.9-0.1-0.9,0.3C171.3,32.9,171.5,33.1,171.6,33.2
				C171.6,33.2,171.6,33.2,171.6,33.2z M145.4,34.5c0.2,0.1,0.4,0.3,0.7,0.2c0.2-0.2,0.4-0.6,0.1-0.9c0,0-0.2-0.1-0.2-0.1
				C145.4,33.5,145.4,34.4,145.4,34.5L145.4,34.5z M147,34.3c-0.2,0.1-0.4,0.6-0.3,0.7c0.1,0.2,0.5,0.4,0.7,0.3
				c0.1-0.1,0.4-0.6,0.3-0.7C147.6,34.5,147.1,34.3,147,34.3L147,34.3z M147.8,33.3c0.1,0.1,0.4,0.3,0.7,0.3
				c0.2-0.1,0.3-0.5,0.3-0.8c-0.1-0.1-0.5-0.3-0.7-0.2C147.9,32.7,147.8,33.1,147.8,33.3z M146.4,33.8c0.1,0.2,0.4,0.3,0.7,0.3
				c0,0,0.7-0.7,0.1-0.9c-0.2-0.1-0.4-0.2-0.6,0C146.5,33.3,146.4,33.6,146.4,33.8L146.4,33.8z M147.8,34.7c0.2,0.1,0.4,0.2,0.7,0.2
				c0.1-0.1,0.4-0.5,0.3-0.7c-0.1-0.2-0.1-0.1-0.3-0.2c-0.1-0.1-0.3-0.1-0.4,0C147.9,34,147.8,34.4,147.8,34.7
				C147.8,34.7,147.8,34.7,147.8,34.7z M171,34.3c0.3,0,0.6-0.1,0.7-0.3c0-0.3-0.1-0.5-0.2-0.7C171.2,33.3,170.3,33.5,171,34.3
				C171,34.3,171,34.3,171,34.3z M151.2,33.2c0.2-0.2,0.3-0.4,0.3-0.7c-0.1-0.1-0.3-0.2-0.5-0.3c-0.4-0.1-0.7,0.6-0.4,0.9
				C150.7,33.2,151,33.3,151.2,33.2L151.2,33.2z M174.4,33.1c0.2,0,0.6-0.1,0.7-0.2c0-0.2-0.1-0.5-0.2-0.6c-0.2-0.3-0.9-0.1-0.8,0.4
				C174.2,32.8,174.3,33,174.4,33.1L174.4,33.1L174.4,33.1z M173,33.2c0.3,0.1,1.1-0.1,0.6-0.9c-0.2-0.3-0.9,0-0.8,0.4
				C172.8,32.9,172.9,33.1,173,33.2L173,33.2z M149.9,34.4c0.2-0.1,0.3-0.5,0.3-0.8c-0.4-0.3-0.7-0.5-0.9,0.1
				C149,34.5,149.9,34.4,149.9,34.4L149.9,34.4z M177.1,34.1c0.3,0,0.5-0.1,0.7-0.3c0-0.2-0.1-0.4-0.2-0.6c-0.1-0.2-0.3-0.2-0.5-0.1
				c-0.2,0.1-0.4,0.1-0.3,0.5C176.9,33.8,177,34,177.1,34.1L177.1,34.1z M178,34.8c0.3,0,0.5-0.1,0.7-0.2c0-0.2,0-0.4-0.1-0.6
				c-0.2-0.4-0.9-0.1-0.9,0.3C177.8,34.4,178,34.7,178,34.8z M149.1,32.8c1,0.8,1-0.5,1-0.5c-0.1-0.1-0.5-0.3-0.7-0.3
				C149.2,32.1,149.1,32.6,149.1,32.8L149.1,32.8z M179.1,35.6c0.4,0,1-0.2,0.6-0.9c-0.2-0.2-0.3-0.2-0.6-0.1
				C178.6,34.8,178.9,35.3,179.1,35.6z M175.7,34.9c0.3,0,0.5-0.1,0.7-0.2c0-0.2,0-0.5-0.1-0.7c-0.2-0.3-0.3-0.2-0.6-0.1
				c-0.2,0.1-0.4,0.1-0.3,0.4C175.5,34.6,175.6,34.8,175.7,34.9L175.7,34.9z M175.4,32.8c0,0.3,0.1,0.6,0.3,0.8
				c0.3,0,0.6-0.1,0.7-0.3C176.5,33.2,176.3,32.1,175.4,32.8L175.4,32.8L175.4,32.8z M145.1,35.6c0.3-0.4,0.4-0.9-0.2-1
				C144.3,34.5,143.9,35.7,145.1,35.6z M174,33.6c0,0.2,0,0.3,0.1,0.5c0.1,0.3,0.3,0.5,0.8,0.2c0.2-0.1,0.2-0.3,0.1-0.5
				C174.7,33.2,174.4,33.4,174,33.6L174,33.6z M142,36.9c0,0.4,0.2,0.4,0.6,0.5c0.3,0.1,0.5,0.3,0.7,0.4c0.2-0.2,0.1-1-0.1-1.2
				C142.8,36.5,142.2,36.7,142,36.9L142,36.9z M181,37.8c0.3-0.1,0.4-0.3,0.7-0.4c0.3-0.1,0.5-0.1,0.6-0.5c-0.2-0.2-0.9-0.4-1.1-0.2
				C180.8,36.8,180.8,37.6,181,37.8z M143.5,35.4c-0.3,0.1-0.4,0.7-0.4,0.9c0.1,0.2,0.7,0.5,0.9,0.4c0.2-0.1,0.4-0.7,0.3-0.9
				C144.3,35.6,143.8,35.3,143.5,35.4C143.5,35.4,143.5,35.4,143.5,35.4z M180.4,35.4c-0.3,0.1-0.7,0.2-0.6,0.6
				c0.1,0.3,0.2,0.7,0.7,0.6c0.3-0.1,0.7-0.2,0.6-0.6C180.9,35.7,180.8,35.3,180.4,35.4L180.4,35.4z M166,28c0,0.6,0.2,0.6,0.6,0.8
				c0.3,0.2,0.6,0.4,0.9,0.6c0.1-0.8-0.7-1.9-1.3-2C166.1,27.6,166,27.7,166,28L166,28z M126.2,58.2c-0.4-0.1-1.2-0.7-1.6-0.9
				l-2.3,0.9c0,0-0.1,0-0.1,0l2.9,0.1c0.2,0,0.3,0,0.5,0c0,0,0.2,0,0.2,0C126.2,58.2,126,58.3,126.2,58.2
				C126.2,58.2,126.2,58.2,126.2,58.2z M145.6,35.9c-0.6-0.2-0.7-0.5-1,0.5c-0.1,0.4,0.1,0.4,0.3,0.5c0.3,0.1,0.5,0.2,0.7,0
				c0.1-0.2,0.3-0.5,0.2-0.8c0.3,0.1,0.3,0.2,0.5,0.1c0.2-0.2,0.3-0.5,0.3-0.8c-0.1-0.1-0.5-0.3-0.7-0.2
				C145.7,35.2,145.5,35.6,145.6,35.9L145.6,35.9L145.6,35.9z M177.6,35.4c0,0.3,0.1,0.6,0.3,0.8c0.2,0.1,0.3,0,0.5-0.1
				c0,0.3,0.1,0.8,0.4,1c0.3,0.1,0.8-0.2,0.9-0.4c0.1-0.3-0.2-0.8-0.4-0.9c-0.3,0-0.4,0.1-0.7,0.2c0-0.3-0.1-0.6-0.2-0.8
				C178.1,35.1,177.8,35.2,177.6,35.4L177.6,35.4L177.6,35.4z M119.3,57.2c0.4,0.2,0.8,0.3,1.2,0.5c0.4,0.1,0.9,0.4,1.3,0.5
				l-1.4-1.4c-0.3-0.3-1.2-1.2-1.5-1.3C119.1,55.8,119.4,56.9,119.3,57.2L119.3,57.2z M206.5,58.2l-1.5-0.9l-2.5,0.9
				C202.7,58.3,206.3,58.4,206.5,58.2z M125,61.1c0.1-0.3-0.3-1.3-0.3-1.8l-2.5-1l2.1,2C124.5,60.7,124.8,60.8,125,61.1L125,61.1
				L125,61.1z M199.7,57.2c0.1,0.2,0.3,0.2,0.6,0.3c0.5,0.2,1.6,0.6,1.9,0.7l-1.4-1.4c-0.2-0.2-0.5-0.4-0.7-0.6
				c-0.2-0.2-0.6-0.5-0.7-0.7C199.3,55.7,199.7,56.8,199.7,57.2L199.7,57.2L199.7,57.2z M122,62.3c0.2-0.3,0.3-0.5,0.5-0.8
				c0.2-0.3,0.4-0.5,0.5-0.8c-0.1-0.3-0.3-0.8-0.5-1.2c-0.2-0.4-0.4-0.8-0.5-1.2L122,62.3L122,62.3L122,62.3z M199.4,61.2
				c0.3-0.1,1.6-0.4,1.9-0.4l1-2.4C202.2,58.5,199.5,61,199.4,61.2z M119,61.1l1.9-0.4c0.1-0.4,1-2.2,1-2.4
				c-0.3-0.1-2.9-0.1-3.6-0.1c-0.1,0-0.2,0-0.3,0l-0.2,0.1c0.3,0.1,0.6,0.3,0.8,0.4c0.1,0.1,0.7,0.4,0.7,0.5
				c0.4-0.1,0.9-0.3,1.3-0.5c0.3-0.1,1-0.4,1.3-0.5c0,0.1,0,0.1-0.1,0.2l-2.5,2.3c-0.1,0.1-0.1,0.1-0.2,0.2c-0.1,0.1,0,0-0.1,0.1
				C119,61.1,119,61.1,119,61.1L119,61.1z M203.5,55.8c-0.2,0.2-1,2.1-1,2.4c0.7-0.6,1.5-1.4,2.1-2l0.6-0.6c0.1-0.1,0,0,0.1-0.1
				L203.5,55.8C203.5,55.8,203.5,55.8,203.5,55.8z M123.1,55.8l-1,2.3c0.1,0,2.8-2.5,2.9-2.7L123.1,55.8z M202.4,62.3
				c0.1-0.2,0.3-0.6,0.5-0.8c0.2-0.2,0.3-0.5,0.5-0.7c-0.1-0.4-0.3-0.8-0.5-1.2c-0.1-0.2-0.4-1-0.5-1.1c0,0.6,0,1.3,0,2
				C202.4,60.7,202.3,62,202.4,62.3C202.4,62.3,202.4,62.3,202.4,62.3z M120.9,55.8l1,2.4c0-0.1,0.1-3.5,0-3.8c0-0.2,0,0-0.1-0.1
				C121.9,54.5,121.1,55.5,120.9,55.8L120.9,55.8L120.9,55.8z M205.4,61l-0.4-1.6c-0.3-0.2-2.1-0.9-2.5-1c0.1,0.2,1.3,1.2,1.4,1.4
				l1.2,1.2C205.4,61.1,205.3,61.1,205.4,61L205.4,61z M140.8,38.7c0.2-0.3,0.7-0.9,0.9-1.2c-0.1-0.5-0.4-0.8-1-0.8
				c-0.1,0.2-0.8,0.8-0.8,1C139.7,38.2,140.3,38.6,140.8,38.7L140.8,38.7L140.8,38.7z M201.3,55.8c0,0.3,0.9,2.2,1,2.4
				c0-0.5,0.1-3.6,0-3.8L201.3,55.8C201.3,55.8,201.3,55.8,201.3,55.8z M183.5,38.7c0.4-0.1,1-0.6,0.7-1c0,0-0.2-0.2-0.2-0.3
				c-0.1-0.1-0.1-0.1-0.2-0.2c-0.1-0.2-0.5-0.8-1.1-0.1c-0.3,0.4-0.1,0.6,0.4,1.1C183.2,38.4,183.3,38.5,183.5,38.7
				C183.5,38.7,183.5,38.7,183.5,38.7z M199.6,59.3c0.3,0,2.4-0.8,2.6-1c-0.4-0.1-3.9-0.1-4.1,0L199.6,59.3L199.6,59.3z M123,41.3
				c0.7,0.4,0.4,0.4,0.7,1.1l0.3,0.1c0-0.6-0.1-1.1-0.5-1.4c-0.2-0.3-0.8-0.6-1.3-0.4c-1,0.4-0.3,1.8,0.5,1.3
				c0.2-0.1,0.2-0.3,0.3-0.4C123,41.3,122.9,41.4,123,41.3L123,41.3L123,41.3z M174.9,73.3l1.5-2.4c-0.1,0-0.1-0.1-0.2-0.1l-1.1-0.6
				C174.7,70.7,174.8,72.5,174.9,73.3L174.9,73.3L174.9,73.3z M163.7,30.3l0.6,0.1c0.1,0.2,0,1,1.1,0.9c1.3-0.1,1-2.1-0.5-1.6
				C164.3,29.9,164.5,30,163.7,30.3L163.7,30.3L163.7,30.3z M147.7,70.9l1.6,2.3c0-0.3,0.2-0.9,0.1-1.2c0-0.4-0.1-1.7-0.3-2
				c-0.4,0.2-1.3,0.7-1.3,0.7C147.7,70.9,147.7,70.9,147.7,70.9L147.7,70.9L147.7,70.9z M176.8,43.4c0.1,0.2,0.2,0.3,0.4,0.4
				c0.1-0.2,0.6-0.5,0.7-0.7c0.2-0.2,0.6-0.5,0.7-0.8c-0.1-0.2-0.3-0.3-0.4-0.4l-1.4-1.3c-0.2-0.2-0.3-0.3-0.5-0.4
				c-0.2-0.1-0.3-0.3-0.5-0.5c-0.2-0.1-0.8-0.7-0.9-0.8c0,0.6,1.7,2.2,2.1,3.2C177.3,42.8,177.1,43,176.8,43.4
				C176.8,43.4,176.8,43.4,176.8,43.4z M145.5,42.4l1.5,1.5c0.2-0.1,0.2-0.3,0.3-0.4c-1.2-1.5,1.5-3.3,1.9-4.6
				C149.1,39,145.7,42.1,145.5,42.4L145.5,42.4z M141.7,46.3c0.5-0.1,1.7-1,2.1-1.4c0.5-0.3,1.2-0.8,1.9-0.7
				c0.3,0.1,0.4,0.2,0.6,0.3c0.2-0.1,0.3-0.2,0.4-0.4l-1.4-1.5c-0.3,0.1-0.7,0.7-0.9,0.9C143.9,44,141.9,45.9,141.7,46.3L141.7,46.3
				L141.7,46.3z M143.8,40.3l-0.2,0.2l1.6,1.7l3.7-3.5c-1,0.3-1.6,0.7-2.4,1.4C145.4,41,145.2,40.7,143.8,40.3L143.8,40.3
				L143.8,40.3z M177.5,44.2c0.2,0.1,0.2,0.2,0.4,0.3c1.7-1.1,3.1,1.3,4.6,1.8c-0.4-0.5-3.4-3.5-3.6-3.6
				C178.6,43.1,177.6,43.8,177.5,44.2L177.5,44.2z M162.5,82.1c-0.2,1.1,0.4,2.5,1.2,2.7c1-0.5,0.9-2.4,0.9-3.4
				C164.3,81.7,163.5,83.6,162.5,82.1L162.5,82.1L162.5,82.1z M179,42.2c0.6-0.4,1-1.1,1.6-1.6c-0.1-0.2-0.1-0.1-0.2-0.3
				c-0.4,0.1-0.9,0.4-1.4,0.4c-0.6,0-1-0.4-1.3-0.6c-0.3-0.3-1.7-1.3-2.4-1.4C175.3,38.7,178.5,41.9,179,42.2
				C179,42.2,179,42.2,179,42.2z M163.8,29.9c-0.5,0-1.6,0.3-2.1,0.5c-2.4,0.5-4.1,0.2-5.4-2.2c0.1,0.7,0.6,1.6,1,2
				c1.5,1.9,3.7,1,5.6,0.2C163.1,30.3,163.5,30,163.8,29.9C163.8,29.9,163.8,29.9,163.8,29.9z M162.5,36.2l1.6,0.1
				c-0.2-1.1-0.6-2.4,0.1-3.6c0.4-0.6,0.5-0.5,0.7-0.8c-1,0.1-1.6,0.7-1.9,1.4C162.5,34.5,162.6,35.4,162.5,36.2L162.5,36.2z
				 M167.4,80.8c0,0.7,0.1,1.2,0.4,1.8c0.2,0.5,0.6,1,1,1.1c0.5-0.2,0.6-1,0.7-1.7c0.1-0.7,0.1-1.7,0.1-2.4
				c-0.2,1.1-1.2,1.9-1.9,1.4l-0.2-0.2C167.5,80.8,167.6,80.9,167.4,80.8L167.4,80.8z M160.6,36.3l1.4-0.1c0.1-1,0.3-1.9,0.6-2.8
				c0.2-0.4,0.3-0.8,0.6-1.1l0.8-0.8c0,0,0,0,0,0c0,0,0,0,0,0C162.4,31.6,160.9,34.4,160.6,36.3L160.6,36.3L160.6,36.3z M179.2,42.4
				c0.2,0.3,0.6,0.7,0.9,0.9l1.8,1.8c0.2,0.2,0.8,0.7,0.9,0.9c0-0.4-0.7-1.5-0.9-1.9c-0.5-0.8-1.1-1.1-1.1-1.8c0-0.6,0.3-1,0.3-1.6
				l-0.3-0.2C180.5,40.9,179.4,42.2,179.2,42.4L179.2,42.4L179.2,42.4z M141.4,46c0.2-0.1,2.3-2.3,2.7-2.7c0.2-0.2,0.8-0.7,0.9-1
				c-0.4-0.3-1.4-1.5-1.7-1.7c-0.3,0.2-0.3,0.2-0.2,0.6c0.4,1.1,0.4,1.5-0.3,2.2C142.4,44.1,141.7,45.1,141.4,46L141.4,46L141.4,46z
				 M165.2,31.8c1.3,0.1,1.2-0.2,2.3-0.4c0.6-0.1,1.4-0.1,2,0c0-0.3-0.3-0.9-0.5-1c-0.2-0.2-0.6-0.4-1.1-0.5c-1-0.2-1.2-0.8-2.1-1
				c0.2,0.5,0.9,1.1,0.8,1.8C166.6,31.4,165.6,31.4,165.2,31.8z M156.7,83.9c1-0.1,1.7-1.5,1.9-2.2c-1.3,0.2-1.2-1.6-1.5-2.8
				c-0.2,0.6-0.4,1.8-0.5,2.4C156.5,82.1,156.3,83.1,156.7,83.9L156.7,83.9L156.7,83.9z M165.3,29.1c-0.5-0.2-2.1,0.1-2.7,0.2
				c-1.7,0.3-3.6,0.4-5.1-0.6c-0.4-0.3-1.2-1.1-1.4-1.6c0,0.7,0.9,1.8,1.2,2.1c1.4,1.4,3.6,1.1,5.4,0.6
				C163.3,29.7,164.9,29.3,165.3,29.1L165.3,29.1z M142.7,40.8l1.1-1c-0.2-1.1-0.9-1.9-1.9-2.1c-0.2,0.3-0.4,0.5-0.7,0.8
				c-0.3,0.4-0.5,0.4-0.2,0.9C141.4,40,142,40.6,142.7,40.8L142.7,40.8L142.7,40.8z M181.5,40.8c0.9-0.3,1.6-1,1.8-1.8
				c-0.2-0.2-0.9-1.1-1.1-1.2c-1,0.2-1.7,1.1-1.8,1.9c-0.1,0.3,0.1,0.3,0.3,0.5C180.9,40.3,181.1,40.6,181.5,40.8L181.5,40.8
				L181.5,40.8z M151.6,77.1c-0.1,1-0.2,2.8,0.2,3.5c0.8-0.2,1.3-1.2,1.6-2.1c0.3-0.7,0.6-2.4,0.4-3.2c-0.3,0.5-1,2.2-1.6,2.4
				C151.9,77.8,151.8,77.3,151.6,77.1L151.6,77.1L151.6,77.1z M153.7,79c-0.1,0.8-0.3,2.9,0.3,3.5c1.1-0.3,3.4-4.3,3.3-6.2l-0.1,0.1
				c0,0,0,0,0,0c0,0,0,0,0,0c0,0-0.1,0.1-0.1,0.2c-0.1,0.1-0.1,0.2-0.2,0.3c-0.1,0.2-0.2,0.4-0.4,0.7c-0.2,0.4-0.5,0.9-0.8,1.3
				C154.5,80.8,154.1,79.7,153.7,79C153.7,79,153.7,79,153.7,79z M150.4,76.4c0.8-0.3,1.4-3.4,1.7-4.5c-0.2-0.2-0.6-0.4-0.8-0.6
				c-0.2-0.1-0.7-0.5-0.9-0.6C150.2,72.1,149.8,75.3,150.4,76.4L150.4,76.4z M137.4,86.3c1.3-1.7,1.1-1.5,1.7-1.1l0.2-0.2l-2.1-1.6
				c-0.2,0.1-0.1,0-0.2,0.2c0.1,0.1,0.4,0.2,0.4,0.5c0,0.2-1.1,1.5-1.2,1.6c-0.3,0.4-0.6,0.7-0.9,1.1c-0.1,0.1-0.3,0.4-0.5,0.5
				c-0.2,0.1-0.4-0.2-0.6-0.2c-0.1,0.1-0.1,0.1-0.1,0.2l2.1,1.6l0.2-0.1c-0.2-0.5-0.7-0.3-0.1-1.1L137.4,86.3L137.4,86.3L137.4,86.3
				z M201.6,70.8c-0.2,0.2-0.2,0.5-0.5,0.5c-0.2,0-2.9-1.2-3.3-1.4c-1.2-0.6,0.1-0.8-0.6-1l-1.1,2.4l0.2,0.1c0.4-0.6,0-0.8,2.1,0.2
				c2,0.9,2.5,0.8,2,1.6l0.3,0.1l1.1-2.4L201.6,70.8L201.6,70.8z M197.2,78.9c-0.6,0.5-0.4,0.5-1.1,0l-2.2-1.6
				c-0.7-0.5-0.7-0.4-0.4-1.1c-0.1-0.1-0.1-0.1-0.2-0.2l-1.6,2.2c0.1,0.1,0.1,0.1,0.2,0.1c0.2-0.2,0.3-0.4,0.6-0.4
				c0.2,0,1.5,1,1.7,1.1c2.2,1.5,1.7,1.2,1.4,1.9l0.2,0.1c0.2-0.1,1.5-2.1,1.6-2.2L197.2,78.9L197.2,78.9L197.2,78.9z M187.6,89
				c-0.6,0.4-0.6,0.3-1.1-0.3l-1.6-2.2c-0.1-0.1-0.4-0.4-0.3-0.6c0-0.4,0.5-0.2,0.3-0.7c-0.2,0.1-2.1,1.5-2.2,1.6l0.1,0.2
				c0.8-0.4,0.6-0.3,1.9,1.4c1.5,2.1,1.3,1.6,0.8,2.2c0.1,0.1,0,0.1,0.1,0.2l2.2-1.6L187.6,89L187.6,89L187.6,89z M136.2,21
				c0.1,0.1,0.1,0.1,0.1,0.2c0.7-0.4,0.5-0.4,1.7,1.2c0.2,0.3,1.4,1.8,1.3,2.1c-0.1,0.2-0.2,0.3-0.4,0.4l0.1,0.2
				c0.2-0.1,0.8-0.6,1.1-0.7c0.3-0.2,0.8-0.6,1.1-0.8l-0.1-0.2c-0.7,0.3-0.4,0.7-2-1.7c-0.2-0.2-1-1.3-1-1.5c0-0.2,0.2-0.3,0.4-0.5
				l-0.1-0.2c-0.2,0.1-0.9,0.6-1.1,0.8C137.1,20.3,136.3,20.9,136.2,21L136.2,21L136.2,21z M127.8,70.6c0-0.4-0.7-1.9-0.9-2.5
				l-0.3,0.1c0.3,0.8,0.1,0.7-1.6,1.3c-0.5,0.2-1.9,0.8-2.3,0.8c-0.1-0.2-0.2-0.3-0.3-0.5l-0.2,0.1c0,0.1,0.8,2.3,1,2.5
				c0.4-0.1,0-0.2,0.1-0.7c0.3-0.2,1.5-0.6,1.9-0.8c2-0.7,2.1-1,2.3-0.2L127.8,70.6L127.8,70.6L127.8,70.6z M199.5,47.1
				c-0.4-0.3,0-0.6-0.5-0.5c-0.1,0.2,0.1,1,0.2,1.3l0.2,1.1c0.1,0.3,0,0.2,0.2,0.2c0.4-0.6-0.9-0.5,1.7-1c0.5-0.1,2.1-0.4,2.5-0.4
				c0.1,0.1,0.2,0.3,0.2,0.4l0.1,0.2l0.2,0l-0.4-2c-0.1-0.3,0-0.6-0.3-0.6c-0.2,0.3,0.4,0.6-0.6,0.8c-0.4,0.1-0.8,0.1-1.2,0.2
				C201.5,46.8,199.7,47.2,199.5,47.1L199.5,47.1L199.5,47.1z M177.3,39.2c0.1,0.1,0.2,0.2,0.3,0.3c0.1,0.1,0.2,0.2,0.3,0.3
				c0.2,0.2,0.4,0.4,0.8,0.5c0.4-0.6,0.3-1.8,0.2-2.4c0.2,0.2,0.2,0.6,0.5,0.6c0.2,0,0.7-0.2,0.8-0.3c0.1-0.2-0.1-0.6-0.2-0.7
				c-0.2-0.4-0.4-0.3-0.8-0.1c-0.3,0.1-0.3,0.1-0.3,0.5c-0.5-0.9-0.7-1.4-1.7-2c-0.7-0.4-1.8-0.9-2.8-1c0,0,0,0,0,0c0,0,0,0,0,0
				c0.7,0.3,1.4,0.4,2.3,1.4C177.7,37.3,177.4,38.2,177.3,39.2L177.3,39.2L177.3,39.2z M141.6,86.6c0,0,0,0-0.1,0.1
				c0,0,0,0.1-0.1,0.1c0.4,0.4,0.7,0.1,0.1,1.1c-0.2,0.4-0.5,0.8-0.7,1.2c-1.2,2.1-0.9,1.9-1.7,1.6l-0.1,0.2
				c0.1,0.1,2.1,1.3,2.3,1.3l0.1-0.2c-0.4-0.5-0.8,0,0-1.4c0.2-0.3,0.3-0.6,0.5-0.9c1.3-2.2,0.9-1.9,1.7-1.6l0.1-0.2L141.6,86.6
				C141.6,86.6,141.6,86.6,141.6,86.6z M145.3,37.8c0-0.4,0-0.4-0.3-0.5c-0.6-0.2-0.6-0.2-0.9,0.3c-0.1,0.2-0.1,0.3-0.1,0.5
				c0,0,0.7,0.7,1,0.1c0-0.1,0.1-0.1,0.1-0.2C145.2,37.9,145.2,37.9,145.3,37.8c-0.1,0.7-0.2,1.9,0.2,2.4c0.4-0.1,0.7-0.4,1.1-0.7
				c0.2-0.1,0.2-0.2,0.3-0.3c0.2-0.3-0.9-2.3,1.6-3.9c0.2-0.1,0.4-0.2,0.6-0.3l0.7-0.3c-1,0.1-2.1,0.6-2.8,1
				C146,36.4,145.8,36.9,145.3,37.8C145.3,37.8,145.3,37.8,145.3,37.8z M194.9,27.8c0.4,0.7,0.4,0.5-1.4,1.9
				c-0.2,0.2-1.4,1.2-1.6,1.2c-0.3,0-0.4-0.3-0.5-0.4l-0.2,0.1c0.1,0.1,1.5,2.1,1.7,2.1l0.1-0.1c-0.1-0.5-0.6-0.4,0.3-1.1
				c0.4-0.3,0.7-0.5,1.1-0.8c0.2-0.2,1.5-1.2,1.6-1.2c0.3-0.1,0.4,0.2,0.6,0.4l0.2-0.2l-1.6-2.1C194.9,27.7,195,27.6,194.9,27.8
				C194.9,27.8,194.9,27.8,194.9,27.8z M152.1,77.2c0.5-0.2,1.1-1.3,1.3-1.8c0.3-0.6,0.8-1.6,1-2.3c-0.3-0.1-0.8-0.3-1.1-0.5
				c-0.3-0.1-0.8-0.4-1-0.5c-0.2,0.5-0.6,3-0.5,3.9c0,0.3,0.1,0.8,0.2,1.1C152,77.1,152.1,77.1,152.1,77.2L152.1,77.2z M172.6,71.6
				c0,0.7,0.4,2.1,0.6,2.7c0.2,0.6,0.6,2.1,1.1,2.3c0.7-1.1,0.1-5.2-0.1-6.2C174,70.5,173.1,71.4,172.6,71.6z M191.9,46.3
				c-0.1-0.2-0.5-0.8-0.7-1.1c-0.3-0.4-0.5-0.7-0.7-1.1c-1.2-1.8-1.5-2.2-2.7-3.7c-0.1-0.2-0.3-0.3-0.5-0.5
				c-0.4-0.4-1.4-1.4-2.1-1.6l1.5,2.1c0.5,0.7,1,1.4,1.5,2.2c1,1.5,1.1,2.3,2.5,3C190.9,45.8,191.6,46.2,191.9,46.3L191.9,46.3
				L191.9,46.3z M132.3,46.3c0.4-0.1,1.9-0.9,2.2-1.4c0.5-0.7,0.9-1.5,1.4-2.2l2.3-3.2c0.2-0.2,0.7-0.8,0.8-1.1
				c-1.2,0.4-2.9,2.4-3.7,3.5L132.3,46.3L132.3,46.3z M160,31.9c0,0.7-0.4,1.7-0.6,2.4c-0.2,0.6-0.6,1.8-0.7,2.3l1.5-0.2
				c0.2-1.9,1.2-3.1,2.2-4.4c0.3-0.4,0.7-0.8,1.1-1.1C162.6,30.9,161.2,31.9,160,31.9L160,31.9L160,31.9z M169.9,92.1
				c0.4,0.2,0.3-0.1,0.7,0.3c0.8,0.9,2,2.6,2.9,3.6c0.3,0.3,0.4,0.2,0.4-0.2l0.6-4c0.2-1.4,0.6-0.7,0.5-1.3c-0.1,0-1.7,0.3-1.7,0.5
				c0,0.3,0.2,0.1,0.4,0.1c0.6,0,0.2,1,0.2,1.4c-0.1,0.5-0.1,1.1-0.2,1.6c-0.3-0.3-0.7-0.8-1-1.2c-0.2-0.3-0.9-0.9-0.9-1.3l0.5-0.2
				l0-0.2c-0.4,0-0.9,0.2-1.2,0.3c-0.3,0.1-1,0.2-1.2,0.4L169.9,92.1L169.9,92.1L169.9,92.1z M142,49.8c0,1.3,0.3,2.5,0.6,3.7
				c0.5-0.6,0.8-2.7,1-3.7c0.2-1.4,0.3-2.9,0.3-4.3C142.5,46.2,142,48.3,142,49.8L142,49.8L142,49.8z M181.6,53.7
				c0.4-0.7,0.6-3,0.6-3.9c0-1.5-1-4-1.8-4.4C180.4,47.8,180.6,51.8,181.6,53.7z M171.8,82.3c0.4-0.4,0.6-2.6,0.6-3.4
				c-1-0.6-1.9-2-2.6-3.3c0,0.6,0.1,1.4,0.1,2.1c0,1-0.1,1,0.2,1.9C170.5,81.1,170.8,81.4,171.8,82.3L171.8,82.3z M191.2,23.9
				c0.4,0.4,0.5,0.5-0.1,1.1c-0.4,0.4-2.3,2.3-2.5,2.3c-0.3,0.1-0.4-0.2-0.6-0.3l-0.2,0.2c0.1,0.2,1.9,2,2.2,2.4
				c0.2,0.3,0.6,0.5,0.8,0.8l1.3-1c0.2-0.2,0.1,0,0.1-0.2l-0.1-0.1c-0.5,0-0.9,0.5-1.6,0.3c-0.3-0.1-0.9-0.7-1-1
				c0-0.2,1.8-1.9,2.1-2.1c0.2-0.2,0.6-0.6,0.8-0.7c0.5,0,0.4,0.2,0.7,0.3l0.1-0.1c0-0.3-0.1-0.1-0.4-0.5l-1.4-1.5L191.2,23.9
				L191.2,23.9z M194,80.5c-0.1,0.3-0.1,0.2,0,0.5c0.3,0.5,0.5,1,0.1,1.6c-0.8,1.2-0.8,0.8-2.2-0.4c-0.3-0.2-0.5-0.4-0.7-0.6
				c-1.3-1-1-0.9-0.6-1.5c-0.1-0.1-0.1-0.1-0.2-0.2l-1.7,2.1l0.2,0.2c0.1-0.1,0.2-0.4,0.5-0.3c0.2,0,2,1.6,2.3,1.9
				c0.7,0.6,1.1,0.7,0.8,1.2c-0.1,0.2-0.1,0-0.1,0.3l0.1,0.1c0.2-0.1,1.3-1.5,1.5-1.6c0.2-0.2,0.2-0.3,0.4-0.4
				c0.1-0.1,0.2-0.3,0.4-0.4c0.1-0.1,0.2-0.3,0.4-0.4c0.1-0.1,0.3-0.3,0.3-0.4c-0.1-0.2-0.7-0.7-1-1C194.2,80.6,194.2,80.6,194,80.5
				L194,80.5z M155.5,92.3l0-0.2c-0.2-0.1-2.3-0.5-2.7-0.5l-0.1,0.3c0.3,0,0.4,0.1,0.6,0.2c0.1,0.4-0.5,3-0.6,3.7
				c-0.2,0.8-0.4,0.3-0.8,0.5c0,0.3,0.1,0.2,1,0.4l3.4,0.6c0.1-0.4,0.5-1.5,0.5-1.8c-0.3,0-0.2-0.1-0.4,0.2
				c-0.2,0.3-0.4,0.7-0.7,0.8c-0.4,0.2-1.4,0.1-1.7-0.2c0-0.1,0.5-3.9,0.8-4C155.1,92.2,155.4,92.4,155.5,92.3L155.5,92.3
				L155.5,92.3z M198.3,38.9l1.4,0.1c-0.1,0.2-0.1,0.1-0.2,0.3l-0.8,0.8C198.6,39.8,198.4,39.3,198.3,38.9
				C198.3,38.9,198.3,38.9,198.3,38.9z M196.1,38.1c0.1,0.3,0.2,0.5,0.3,0.8l0.4,0.8c0.5-0.2-0.1-0.3,0.2-0.7c0.2-0.2,0.6-0.2,1-0.1
				l0.6,1.5c-0.1,0.2-0.5,0.7-0.8,0.7c-0.2-0.2-0.1-0.3-0.3-0.4l-0.2,0.1l0.7,1.9c0.1,0.3,0.1,0.5,0.4,0.4c0.1-0.3-0.1-0.4,0.3-0.7
				l1.5-1.5c0.3-0.3,0.7-0.7,1-1c0.7-0.7,1.3-1,0.6-1.1c-0.1,0-0.2,0-0.4,0c-0.3,0-0.5,0-0.8,0c-0.6,0-3.4-0.1-3.7-0.3
				c-0.1-0.1-0.1-0.1-0.2-0.2C196.2,38,196.3,38,196.1,38.1L196.1,38.1z M139.2,44c0,0.5,0,2,0.1,2.4l0.1,0.2c1-1.1,2.3-5.1,1.9-5.6
				c-0.3-0.4-1-1.1-1.1-1.5C139.5,40.1,139.2,43.3,139.2,44L139.2,44L139.2,44z M142.7,16.8c0.1,0.3,0.2,0.5,0.3,0.7
				c0.1,0.2,0.2,0.6,0.4,0.6c0.3-0.2-0.5-1.1,0.9-1.5l1.5,3.3c0.1,0.2,0.2,0.4,0.1,0.6c-0.1,0.2-0.3,0.1-0.5,0.4l0.1,0.1
				c0.2,0,1-0.4,1.2-0.5l0.9-0.4c0.2-0.1,0.2,0,0.3-0.2c-0.2-0.4-0.3,0.1-0.6,0c-0.3-0.2-0.8-1.4-1-1.9c-0.2-0.5-0.7-1.4-0.9-1.9
				c1.2-0.6,1.1,0,1.7,0.4l0.2-0.1c-0.1-0.3-0.5-1.1-0.6-1.3L142.7,16.8L142.7,16.8L142.7,16.8z M176.6,91.7c0.2,0.1,0.8,0.8,1,1
				l-1.1,0.4L176.6,91.7L176.6,91.7L176.6,91.7z M178,93.1c0.2,0.2,0.6,0.5,0.7,0.8c-0.2,0.2-0.3,0.2-0.5,0.3l0.1,0.2
				c0.4-0.1,0.8-0.3,1.2-0.4c0.2-0.1,0.4-0.2,0.6-0.2c0.2-0.1,0.4-0.1,0.5-0.3c-0.2-0.4-0.3,0.1-0.7-0.3c-0.2-0.2-0.3-0.3-0.5-0.5
				c-0.6-0.7-1.3-1.3-2-2c-0.3-0.3-0.8-0.9-1.1-0.9c-0.1,0.2-0.2,3.8-0.3,4.5c-0.1,1-0.6,0.9-0.4,1.1c0,0.1,0.2,0,0.2,0
				c0,0,0.2-0.1,0.2-0.1c0.3-0.1,1-0.4,1.2-0.5c-0.1-0.5-0.4,0.1-0.7-0.2c-0.2-0.2-0.1-0.7-0.1-0.9L178,93.1L178,93.1L178,93.1z
				 M184.8,46.6c0.3-0.4,0.2-2.1,0.2-2.6c0-0.7-0.3-3.9-1-4.5l-1.1,1.4c-0.2,0.3-0.1,0.6,0,1C183.2,43.5,183.9,45.6,184.8,46.6
				L184.8,46.6L184.8,46.6z M159.1,94.5l0.6,1.2l-1.2-0.1L159.1,94.5L159.1,94.5z M158.5,97.4c0-0.3,0-0.2-0.3-0.3
				c-0.6-0.1-0.2-0.6,0-1.1l1.6,0.1c0.2,0.3,0.4,0.8,0.3,1.1c-0.1,0-0.4,0-0.5,0.1c0,0.3,0.1,0.2,0.5,0.2l1.8,0.1
				c0.7,0-0.1-0.4-0.2-0.5c-0.2-0.2-1.2-3.2-1.4-3.9c-0.2-0.7-0.3-1.3-0.6-0.6l-1.9,3.5c-0.8,1.4-0.9,0.4-0.9,1
				C156.9,97.4,158.2,97.5,158.5,97.4L158.5,97.4L158.5,97.4z M126.5,76.1c-0.2-0.1-0.5-0.2-0.8-0.3c-0.2-0.1-0.4-0.3-0.6-0.4
				c-1.4-1.6,1-3,2.2-3c1.2,0,2.1,1.4,0.9,2.6c-0.3,0.3-0.1,0.5,0.3,0.3l1-0.5c0.1-0.1,0.3-0.1,0.3-0.2c0-0.2-0.2-0.1-0.3-0.2
				c-0.3-0.1-0.2-0.4-0.3-0.8c-0.4-2-2.6-3-4.4-1.7c-1.3,1-1.1,3.3,0.2,4.2C125.9,76.6,126.1,76.3,126.5,76.1
				C126.5,76.1,126.5,76.1,126.5,76.1z M199.9,42.7l-0.2,0c0,0-0.2,0.1-0.2,0.1l-1.5,0.4c0.1,0.4,0.1,0.2,0.4,0.4
				c0.1,0.2-0.4,1.8,1,2.5c0.8,0.4,1.8,0.1,2.1-1.1c0.1-0.5,0.2-1,0.3-1.4c0.5-1.6,2.1,0.3,0.6,1.4c-0.3,0.2-0.4,0.1-0.3,0.5
				c0.2,0,1.6-0.4,1.7-0.5c0.1-0.2-0.1-0.2-0.2-0.2c-0.2-0.1-0.2,0-0.2-0.3c0-0.4,0.1-0.6,0-1c-0.3-1.2-1.8-1.6-2.6-0.6
				c-0.6,0.7-0.4,3.1-1.5,2.7c-0.6-0.2-0.8-1.2,0.1-2.1C199.6,43.1,200,43,199.9,42.7C199.9,42.7,199.9,42.7,199.9,42.7z
				 M162.6,55.9c0.3,0.2,0.6,0.4,0.9,0.6c0.4,0.2,0.6,0.3,1,0.5c0.8,0.3,1.7,0.4,2.6,0.3c0.6-0.7,0.8-2.4,0.1-3.2
				c-0.3,0.1-0.6,0.3-1,0.5c-1,0.5-2.5,0.8-3.6,0.8L162.6,55.9c-0.2,0.1-0.3,0.1-0.4,0.2c0,1.5,1,3,1.7,3.8c0.2,0.3,0.4,0.6,0.8,0.4
				c1-0.3,1.8-0.9,2-2c-0.9-0.4-1.4-0.5-2.3-1C163.9,57,162.9,56.3,162.6,55.9L162.6,55.9L162.6,55.9z M139.6,19.3
				c0,0.6,0.4,1.1,0.9,1.3c0.6,0.3,1.4,0.1,2,0.1c1.8,0,0.8,2.1-0.8,1.3c-0.4-0.2-0.6-0.5-0.8-0.6l-0.2,0.1c0,0.1,0.9,1.7,1,1.7
				c0.4,0,0-0.4,0.4-0.6c0.5-0.1,1.4-0.1,1.9-1.2c0.6-1.3-0.4-2.2-1.9-2.1l-1,0c-1.8,0-0.3-2,1-1c0.3,0.2,0.3,0.5,0.6,0.2
				c0,0-0.8-1.6-1-1.5c-0.3,0.2,0.3,0.4-0.4,0.5C140.4,17.8,139.6,18.2,139.6,19.3L139.6,19.3L139.6,19.3z M172.6,16.6
				c-0.2-0.1-0.2,0.1-0.3,0.3l-0.4,1.2c-0.1,0.6,0.3,0,0.6,0.2c0.2,0.1,0.9,1,2.1,0.7c1-0.3,1.6-1.3,0.9-2.3c-0.3-0.4-0.5-0.6-0.9-1
				c-1.7-1.5,0.9-2,1.2-0.3c0,0.2,0,0.3,0,0.5c0,0.3-0.1,0.1,0.2,0.3c0-0.1,0.6-1.6,0.5-1.7c-0.2-0.1-0.2,0-0.4,0.2
				c-0.3-0.1-0.3-0.2-0.5-0.4c-1.5-1.2-3.7,0.5-2.1,2.3c0.3,0.3,0.6,0.6,0.9,0.9c0.8,1-0.7,1.8-1.4,0.6
				C172.5,17.4,172.7,16.8,172.6,16.6C172.6,16.6,172.6,16.6,172.6,16.6z M162.6,54.8c0.1-0.2,0.5-0.9,0.8-2c0.1-0.4,0.4-2.3,0-2.6
				c-0.3-0.2-1.1-0.4-1.5-0.3c-0.5,0-1.2,0.3-1.6,0.5c0.2,0.5,0.6,1,1.1,2c0.3,0.6,0.6,1.8,0.6,2.5l0.5,0.1L162.6,54.8
				c-0.1,0.2-0.1,0.1-0.1,0.3l0.3,0.3c1.7-0.4,2.7-1.1,3.8-2.3c0.3-0.4,0-0.9-0.4-1.4c-0.3-0.4-1-1-1.8-1c-0.4,0.9-0.2,1.4-1.2,3.2
				L162.6,54.8C162.7,54.7,162.6,54.7,162.6,54.8C162.6,54.7,162.6,54.7,162.6,54.8L162.6,54.8L162.6,54.8z M142.1,92.8
				c0.4,0.2,0.3-0.2,0.6,0c0.1,0.1,0.3,0.3,0.5,0.4c1.7,1.3,3.4-0.3,2.7-1.7c-0.2-0.5-0.5-0.7-0.8-1.1c-0.2-0.2-0.7-0.8-0.5-1.2
				c0.3-0.5,1.1-0.1,1.3,0.1c0.3,0.4,0.3,0.9,0.2,1.5l0.2,0.1c0.1-0.1,0.4-1,0.6-1.2c0.2-0.4,0.1-0.3,0.1-0.4
				c-0.3-0.2-0.1,0.1-0.4,0.1c-0.4-0.3-0.4-0.6-1-0.8c-1-0.4-2,0.2-2.1,1.2c-0.1,1,0.8,1.6,1.3,2.3c0.7,1.1-0.8,1.6-1.5,0.4
				c-0.3-0.5-0.2-0.9-0.1-1.5l-0.2-0.1c-0.2,0.2-0.3,0.6-0.4,0.9c-0.1,0.2-0.1,0.3-0.2,0.5L142.1,92.8L142.1,92.8L142.1,92.8z
				 M160.3,59.9c0,0.9-0.1,0.8,0.5,1c0.9,0.4,2.1,0.4,2.7-0.2c-0.2-0.6-0.6-1-0.9-2.1c-0.3-0.9-0.3-1.6-0.5-2.5l-0.4-0.1
				C161,56.7,160.3,58.6,160.3,59.9L160.3,59.9L160.3,59.9z M159.2,60.2c0.1-0.2,0.5-1.4,1-2.3c0.4-0.7,0.9-1.5,1.4-1.9l-0.2-0.4
				c0,0-0.1,0-0.1,0l0.1,0c0.1-0.3,0-0.3,0.2-0.5c0.3-0.2,0.5-0.1-0.2-1.6c-0.5-1.2-0.9-1.5-1.6-2.2c-0.5-0.5-0.7-0.5-1.5,0
				c-0.6,0.4-1.1,1-1.2,1.9c1.3,0.2,3.1,1,3.9,1.7c-0.6-0.3-1-0.5-1.8-0.7c-0.7-0.2-1.6-0.3-2.3-0.2c-0.7,0.8-0.6,2.4-0.1,3.2
				c1.8-0.9,2.1-1.1,3.7-1.3c-1.2,0.3-2.6,1.2-3.3,2c-0.3,0.3,0.2,1.1,0.4,1.4C157.9,59.5,158.5,60,159.2,60.2L159.2,60.2
				L159.2,60.2z M184.1,53.2c0.2-0.6,0.4-1.2,0.5-1.9c0.2-1.4,0.3-3-0.3-4.3c-0.3-0.5-0.7-1.1-1.1-1.3c0,0.2,0.1,0.3,0.1,0.5
				c0,0.2-0.1,0.2-0.1,0.4l-0.3,3.3c0,1,0.6,2.4,1.1,3.2L184.1,53.2C184.1,53.2,184.1,53.2,184.1,53.2z M139.5,49.2
				c0,2,0.2,2.2,0.7,4c0,0,0,0,0,0l0.1-0.1c0-0.1,0.1-0.1,0.1-0.2c1.3-2.4,1.1-2.7,0.8-5.2c0-0.4,0-0.7-0.1-1.1
				c0-0.3-0.1-0.2-0.1-0.4c0-0.2,0.1-0.3,0.1-0.5C140,46.1,139.5,48,139.5,49.2L139.5,49.2L139.5,49.2z M186.5,20l0.1-0.2
				c-0.1-0.2-1.4-1-1.5-1L185,19c0.1,0.4,0.7,0.2,0.1,1.1c-0.3,0.4-0.5,0.7-0.7,1.1c-0.4,0.7-1,1.9-2.1,1.2
				c-0.4-0.2-0.6-0.7-0.3-1.2c0.2-0.4,0.5-0.8,0.7-1.2c1.1-1.7,1-1.8,1.7-1.4c0.1-0.1,0.1-0.1,0.1-0.2l-1.7-1.1
				c-0.2-0.1-0.4-0.3-0.6-0.4c-0.1,0.3-0.2,0.2,0,0.3c0.3,0.3,0.5,0.2-0.1,1c-0.4,0.7-1.6,2.2-1.5,2.9c0,0.7,0.5,1.1,0.9,1.3
				c0.4,0.3,1,0.6,1.6,0.4c1.1-0.2,1.9-2.3,2.5-3C186,19.7,186.2,19.9,186.5,20L186.5,20L186.5,20z M165.8,83.6
				c0.7-0.3,1.4-2.5,1.4-3.5c0-0.3-1.4-3-1.6-3.3l-0.9,3.6C164.5,81.2,165.2,83.1,165.8,83.6L165.8,83.6L165.8,83.6z M160.7,84.4
				c0.4-0.2,0.7-0.9,0.8-1.4c0.2-0.5,0.5-1.2,0.3-1.8c-0.2-0.6-0.7-3.3-0.9-3.7c-0.1,0.1-1.6,3.1-1.6,3.2
				C159.3,81.4,159.9,83.9,160.7,84.4L160.7,84.4z M179.1,16.1c0.6,0.2,0.7,0.7,0.4,1.3c-0.3,0.6-0.6,0.7-1.2,0.5L179.1,16.1z
				 M177.4,15.2l0.5,0.3c0,0.4-1.5,3.6-1.7,3.9c-0.5,0-0.5-0.3-0.7,0.1c0.1,0.2,2.2,1,2.3,1.1l0.1-0.2c-0.2-0.1-0.3-0.2-0.5-0.3
				c0-0.3,0.5-1.5,0.7-1.7c0.4,0.1,2,1,2.6-0.4c0.5-1.1-0.6-1.8-1.5-2.2c-0.3-0.1-1.6-0.8-1.8-0.8L177.4,15.2
				C177.4,15.2,177.4,15.2,177.4,15.2z M157.1,12.5l0,0.2c0.2,0.1,0.5,0,0.6,0.2c0.2,0.2,0.4,2,0.4,2.3c-0.3-0.1-0.7-0.6-0.9-0.9
				l-1.4-1.4c-0.2-0.2-0.2-0.3-0.6-0.2l-1.2,0.1c-0.4,0.1-0.3,0-0.2,0.3c0.5,0.2,0.7-0.1,0.8,0.8l0.4,2.9c0.1,1.1-0.7,0.4-0.6,1
				l0.1,0c0.4,0-0.3,0,0.1,0c0,0,0.2,0,0.2,0c0.4-0.1,1.3-0.1,1.5-0.2c-0.1-0.5-0.5,0.1-0.8-0.4c-0.1-0.2-0.4-2.9-0.4-3.2l2.8,2.7
				c0.3,0.3,1.1,1.3,1,0.5c0-0.1,0-0.3,0-0.4c0-0.2-0.1-0.5-0.1-0.7c-0.1-0.5-0.1-1-0.2-1.4c-0.1-0.5-0.1-0.9-0.2-1.4
				c-0.1-1.1,0.6-0.4,0.5-1C158.7,12.2,157.3,12.4,157.1,12.5L157.1,12.5L157.1,12.5z M182.4,86.8c-0.2,0-3.1,1.8-3.5,2
				c0,0.2,0.4,0.9,0.5,1.1l0.2,0.3c0.2-0.2,0.2,0,0.2-0.3c0-0.2-0.1-0.2-0.1-0.4c0-0.7,0.8-1.3,1.4-1.4l-0.1,5.4l4-2.3
				c-0.1-0.3-0.7-1.6-0.8-1.8l-0.2,0.2c0.5,1.8-0.6,1.9-1.7,2.7l0-0.4L182.4,86.8L182.4,86.8z M122.6,38.9l1.4,0.8l0.1-0.3
				c-0.3-0.2-0.6-0.5-0.6-1.1c0-0.3,0.3-1.1,0.5-1.3l3,4.4l1.9-4.2l-1.7-1c-0.2,0.4-0.1,0.2,0.3,0.7c0.9,0.9,0.1,2-0.2,2.7
				c-0.1-0.1-0.1-0.1-0.2-0.2l-1.3-2c-0.3-0.4-1.3-2-1.5-2.2C124.1,35.4,122.7,38.6,122.6,38.9C122.6,38.9,122.6,38.9,122.6,38.9z
				 M187.9,48c-0.3-4-0.1-5.1-2.4-8c-0.1-0.2-0.6-0.7-0.7-0.8c0,0.2,0.2,0.9,0.3,1.1c0.3,1.4,0.4,2.6,0.5,3.9
				C185.8,45.6,186.2,47.6,187.9,48L187.9,48L187.9,48z M136.3,48c0.8-0.2,1.3-0.8,1.6-1.4c0.7-1.3,0.7-3.5,0.9-5
				c0.1-0.4,0.1-0.8,0.2-1.3c0.1-0.3,0.3-1,0.3-1.2l-1.3,1.6C136.4,43.1,136.5,44.9,136.3,48L136.3,48z M168,12.7
				c0.1,0.1,0.4,0.1,0.6,0.2c0.1,0.4-0.2,1.7-0.3,2.1l-0.3,1.6c-0.2,0.8-0.5,0.4-0.8,0.5l0,0.2l4.2,0.8c0.1-0.1,0.5-1.4,0.6-1.6
				c-0.4,0-0.2-0.1-0.4,0.1c-0.1,0.2-0.2,0.5-0.7,0.7c-0.4,0.2-1.3,0.2-1.6-0.1c-0.1-0.3,0.2-1.3,0.2-1.8c1,0.2,0.5,0.9,0.8,1.3
				c0.3,0,0.2-0.1,0.3-0.5c0-0.2,0.1-0.5,0.1-0.7c0-0.2,0.3-1.2,0.2-1.4c-0.4-0.1-0.1,0.1-0.5,0.6c-0.2,0.3-0.4,0.4-0.8,0.3l0.3-1.8
				c1.9,0.2,1.5,0.8,1.7,1.5l0.2,0l0.3-1.6l-3.8-0.7C168,12.4,168,12.4,168,12.7L168,12.7L168,12.7z M127.7,29.9
				c0.2,0,0.1,0,0.2-0.2c0.3-0.3,0.5-0.2,0.8,0.1c0.4,0.3,2.7,2.1,2.8,2.3c0,0.3-0.1,0.4-0.2,0.6c0.1,0.1,0.1,0.1,0.2,0.1
				c0.5-0.5,2.5-3.2,2.7-3.3c-0.1-0.2-1-1.1-1.2-1.3c-0.2,0.3-0.1,0.2,0.1,0.5c0.4,0.7,0.2,1.3-0.2,1.8c-0.5,0.6-0.4,0.5-1.4-0.3
				l-0.4-0.3c0,0,0,0,0,0l-0.1-0.1c0.4-0.7,1.2,0,1.4,0c0.1-0.1,0.1-0.1,0.1-0.2c-0.3-0.2-0.7-0.6-1.1-0.8c-0.3-0.2-0.8-0.7-1.1-0.8
				l-0.2,0.2c0.3,0.3,0.7,0.7,0.4,1.4c-0.2,0-1.2-0.9-1.5-1.1c0.7-1,1.1-1.3,2.1-0.8l0.2-0.2c-0.1-0.2-1.1-0.9-1.2-1
				c-0.5,0.5-0.9,1.1-1.3,1.7l-1,1.3C127.7,29.6,127.6,29.7,127.7,29.9L127.7,29.9L127.7,29.9z M196.8,72.8c0.6,0,0.5,0.2,0.7-0.2
				l-1.6-0.9l-0.1,0.2c0.1,0.3,0.4,0.3-0.1,0.7c-0.2,0.2-0.3,0.3-0.5,0.5c-0.3,0.3-0.6,0.9-0.7,1.4c-0.6,2.6,2.5,4.2,4.3,2.5
				c0.6-0.6,1.2-1.6,1.3-2.8c-0.3-0.1-0.9-0.5-1.2-0.7c0-0.3,0-0.3,0.1-0.6l-0.2-0.1c-0.1,0.2-1.2,2-1.2,2.2l0.2,0.1
				c0.5-0.6,0.2-0.5,1.6,0.2c-0.4,2-2.2,1.3-3.3,0.5C194.2,74.4,195.5,72.8,196.8,72.8L196.8,72.8L196.8,72.8z M165.6,28.7
				c-0.2-0.6-1-1.1-1.6-1.3c-0.8-0.2-1.8,0-2.7,0.1c-1.4,0.2-2.5,0.1-3.6-0.7c-0.3-0.2-0.5-0.5-0.8-0.7c0.1,1.1,0.2,1.6,0.8,2.2
				C159.4,29.8,163,28.7,165.6,28.7L165.6,28.7z M172.4,47.4c0-0.4,0.2-0.6,0.4-0.8c0.7-0.5,1.2-0.3,0.4,0.5
				C173,47.3,172.8,47.4,172.4,47.4C172.4,47.4,172.4,47.4,172.4,47.4z M173.9,44.3c-0.2,0.2-0.1,0.3-0.5,0.5
				c-0.7,0.3-1.4-0.8-0.4-1.3c1.5-0.8,2,1.5,0.7,2.3c-0.3,0.2-0.4,0-0.7,0.1c-0.5,0.2-0.6,0.8-0.9,1.1c-0.6,0.4-2.7,0.1-1.4,1.7
				c0.2,0.2,0.7,1,1.2,0.6c0.3-0.2,0.5-0.8,0.7-1.2c0.3-0.5,0.8-0.3,1.2-0.7c0.5-0.4-0.1-0.6,0.8-1.1c1.2-0.6,2.5,0.4,1.7,1.4
				c-0.9,1.2-1.9-0.3-1.1-0.8c0.1-0.1,0.1,0,0.2-0.1c0,0,0,0,0,0l0.1-0.1c0,0,0,0,0,0c-1.8-0.1-1.1,2,0,2c0.4,0,0.8-0.3,1-0.5
				c0.5-0.6,0.6-1.4,0-2c-1-0.9-1.9-0.1-2.1-0.5c-0.1-0.2,0.2-0.7,0.3-1.1c0-0.4-0.1-0.9-0.3-1.2c-1.1-1.5-3.5,0.3-2.2,1.6
				C173,45.6,173.8,45.2,173.9,44.3C173.9,44.3,173.9,44.3,173.9,44.3z M162.1,42.4c-0.3-0.1-0.3-0.4-0.3-0.8c0-0.4,0-0.7,0.4-0.7
				C162.5,41.2,162.5,42.1,162.1,42.4z M160.6,39.3c0,0.2,0.3,1-0.5,1.1c-0.6,0.1-0.9-0.5-0.7-1.1c0.5-1.4,2.3-0.5,2.2,1
				c0,0.4-0.2,0.2-0.3,0.6c-0.2,0.6,0.3,1.1,0.2,1.5c-0.1,0.7-1.5,2.1,0.5,2.1c2.1,0,0.8-1.4,0.6-2.1c-0.1-0.4,0.4-0.9,0.2-1.5
				c-0.1-0.3-0.6-0.4-0.2-1.4c0.5-1.2,1.8-1.1,2.1-0.2c0.4,1.2-0.8,1.4-1.2,0.7c-0.2-0.3,0-0.5,0-0.8c-0.6,0.6-0.6,1.5,0.5,1.6
				c2,0.2,1.5-3.2-0.5-2.6c-0.4,0.1-0.7,0.3-0.9,0.6c-0.6,0.6-0.1,0.8-0.8,0.7c-0.5-1.7-2.8-1.9-3-0.1
				C158.6,41.7,162.2,41.1,160.6,39.3L160.6,39.3L160.6,39.3z M176.5,58.3c-0.2,0.2-0.5,0.2-0.9,0.1c-0.4-0.1-0.5-0.2-0.6-0.4
				C175.3,57.6,176.4,57.9,176.5,58.3L176.5,58.3z M178.2,57.2c-1.7,0.1-1-2,0.2-1.1c1.5,1-0.5,2.5-1.6,1.9
				c-0.3-0.2-0.1-0.3-0.5-0.5c-0.6-0.2-1.1,0.3-1.6-0.1c-0.8-0.6-1.7-1.5-2,0.2c-0.4,2.1,1.3,0.9,2,1c0.4,0,0.8,0.6,1.3,0.5
				c0.3,0,0.6-0.5,1.4,0c0.3,0.2,0.7,0.6,0.7,1.2c0,0.5-0.4,0.9-1,0.9c-0.5,0-1.1-0.3-0.8-0.9c0.2-0.6,0.7-0.5,1.2-0.2
				c-1.4-1.9-2.8,1.5-0.6,1.7c1.9,0.1,1.9-1.9,0.9-2.7c-0.2-0.1-0.4-0.2-0.4-0.4c0-0.3,0.2-0.2,0.4-0.3c1.4-0.4,1.8-2.2,0.5-2.8
				c-2-0.9-2.4,2.1-0.9,1.9c0.1,0,0.2,0,0.3-0.1c0,0,0.1,0,0.1-0.1L178.2,57.2C178.2,57.2,178.2,57.2,178.2,57.2L178.2,57.2z
				 M151.9,47.2c-0.5,0-0.9-0.3-1.1-0.6C150.2,45.7,152,46.3,151.9,47.2z M148.6,46.4c0.2,0.1,1,0.3,0.6,1.1
				c-0.3,0.6-0.9,0.3-1.2-0.1c-0.8-1,0.3-2.1,1.6-1.5c0.9,0.4,0.4,0.7,0.8,1.1c0.3,0.3,1,0.3,1.3,0.7c0.5,0.7,0.6,2.3,1.9,0.8
				c1.2-1.4-0.1-1.3-1.2-1.7c-0.5-0.2-0.4-0.8-0.9-1.1c-0.6-0.4-0.7,0.2-1.3-0.6c-0.7-1-0.1-2.4,1.1-1.9c1.3,0.5,0.1,1.9-0.6,1.2
				c-0.1-0.1,0-0.1-0.1-0.1l-0.1-0.1c0,0,0,0,0,0c0,0,0,0,0,0c0.3,2.3,3.2,0.1,1.3-1.2c-0.7-0.5-1.6-0.3-2,0.3
				c-0.2,0.3-0.3,0.7-0.3,1.2c0,0.3,0.4,0.9,0.2,1.1c-0.2,0.3-1.2-0.4-2.1,0.4c-0.6,0.6-0.5,1.4,0,2c0.5,0.6,1.4,0.7,1.9,0
				C150.1,47.1,149.7,46.2,148.6,46.4L148.6,46.4L148.6,46.4z M168.1,67.1c0.6,0,1,1.2,0.7,1.4C168.5,68.7,167.9,67.7,168.1,67.1z
				 M168.3,70.5c0.5-2.2-2.9-1.2-1.7,0.7c0.8,1.2,2.5,0.7,2.7-0.8c0-0.1,0-0.2,0-0.3l0-0.3c0.1-0.4,0.6,0.1,0.9,0.3
				c1.4,0.5,2.5-0.4,2.1-1.8c-0.2-0.7-1-1.2-1.8-0.7c-0.7,0.5-0.6,1.4,0.3,1.6c-0.1-0.2-0.3-0.3-0.4-0.6c-0.1-0.8,1.1-1.2,1.4-0.1
				c0.4,1.6-1.6,1.7-2.3,0.3c-0.2-0.4,0-0.3,0-0.7c0-0.6-0.7-0.8-0.8-1.1c-0.3-0.6,0.4-2.8-1.6-1.7c-0.4,0.2-1,0.5-0.6,1.1
				c0.2,0.4,0.6,0.6,1,0.9c0.5,0.4,0.2,0.9,0.5,1.4c0.3,0.5,0.7,0.1,0.9,1c0.3,1.3-0.8,2.3-1.7,1.4c-1-1,0.6-1.8,0.9-0.9L168.3,70.5
				L168.3,70.5L168.3,70.5z M156,68.9c-0.2-0.5,0.3-1.5,0.6-1.4C157,67.6,156.6,68.8,156,68.9z M154.1,69.7c2.2-0.9-0.7-3-1.4-1.1
				c-0.3,0.8,0.1,1.7,0.7,1.9c1.6,0.6,2.3-1.4,2.4-0.1c0.1,1.5,1.7,2.4,2.7,1.1c1.4-1.9-2.2-3.1-1.6-0.6c0.1-0.3,0-0.4,0.2-0.6
				c0.5-0.6,1.7,0.1,0.9,1c-0.8,0.9-2,0.2-1.8-1.1c0.1-1,0.5-0.7,0.8-1.1c0.4-0.5,0.1-1.1,0.4-1.5c0.5-0.5,2-1.3,0.4-2
				c-0.4-0.2-1.1-0.5-1.3,0c-0.3,0.5,0,1.3-0.2,1.7c-0.1,0.3-0.7,0.6-0.8,1.1c0,0.3,0.4,0.6-0.3,1.4c-0.8,0.9-2.3,0.5-2-0.8
				C153.4,67.6,155.1,68.6,154.1,69.7C154.1,69.7,154.1,69.7,154.1,69.7z M149.3,58.4c-0.1,0.6-1.4,0.7-1.5,0.4
				C147.6,58.4,148.8,58.1,149.3,58.4z M146.5,58.9c0.1,0.6,0,0.2-0.5,0.8c-0.9,1.2-0.3,2.5,1.1,2.5c0.8,0,1.5-0.7,1.2-1.6
				c-0.3-0.8-1.2-0.9-1.7-0.1c0.5-0.2,0.9-0.4,1.2,0.2c0.3,0.6-0.2,1-0.8,1c-1.5,0-1.3-2,0.2-2.3c0.5-0.1,0.4,0,0.7,0.1
				c0.6,0.2,1-0.3,1.3-0.5c0.6-0.3,2.6,1.1,2.1-1c-0.4-1.7-1.2-0.9-2-0.3c-0.5,0.4-1-0.1-1.6,0.2c-0.5,0.2-0.2,0.7-1.3,0.6
				c-1.2-0.1-1.8-1.3-0.8-2c1.3-0.8,1.9,1.4,0.2,1.1c2.1,1.2,2-2.5-0.2-1.8c-1.2,0.4-1.4,1.8-0.3,2.6
				C145.9,58.7,146,58.7,146.5,58.9L146.5,58.9L146.5,58.9z M182.3,60.4c0.8-0.6,1.3-3,1.4-4.2c0.1-0.8,0.1-2.9-0.4-3.7
				c-0.2-0.3-0.4-0.7-0.5-0.9c-0.2,0.2-0.7,1.6-0.8,1.9c-0.2,0.5-0.4,1.6-0.4,2.3C181.5,56.9,182,59.9,182.3,60.4L182.3,60.4z
				 M140.4,55.2c0,1.2,0.1,2,0.4,3.1c0.2,0.6,0.7,1.9,1,2.1c0.2-0.3,0.4-1.7,0.5-2.1c0.3-1.4,0.3-3.4-0.2-4.7
				c-0.1-0.3-0.2-0.6-0.4-0.9l-0.4-0.9c-0.1-0.1,0,0-0.1-0.1C141.1,52.5,140.4,52.5,140.4,55.2z M154.5,79.6c1.1-0.2,2.9-4.7,3-5.4
				c-0.3-0.1-1.1-0.3-1.4-0.4c-0.5-0.2-0.9-0.4-1.4-0.5c-0.1,0.1,0,0-0.1,0.2l-0.5,3c-0.1,0.6-0.1,1.2-0.1,1.8
				C154.1,78.9,154.3,79.1,154.5,79.6L154.5,79.6z M150.3,14.2c1-0.3,1.5,0.9,1.7,1.7c0.3,0.9,0.5,2.2-0.5,2.5
				c-1,0.3-1.5-0.9-1.7-1.6C149.5,15.7,149.3,14.5,150.3,14.2L150.3,14.2L150.3,14.2z M148.2,16.2c0,1.4,1,2.7,2.5,2.7
				c1.6,0,2.8-1,2.8-2.7c0-1.4-1.2-2.6-2.6-2.5c-0.8,0.1-1.5,0.4-1.9,0.7C148.7,14.7,148.2,15.5,148.2,16.2L148.2,16.2L148.2,16.2z
				 M120.9,45.9c-0.3-2.1,4.1-1.1,4.3,0.2C125.4,48.2,121.1,47.2,120.9,45.9z M122.5,43.4c-1.3,0.2-2.3,1.5-2.1,3.1
				c0.2,1.3,1.5,2.5,3.1,2.2c1.3-0.2,2.3-1.5,2.1-3.1C125.4,44.2,124.1,43.1,122.5,43.4L122.5,43.4z M169.3,73.3
				c0.1,0.7,0.9,2.3,1.2,2.9c0.4,0.7,1.2,2,1.8,2.2l0.2-0.4c0.1-0.1,0.1-0.3,0.1-0.4c0.4-1.5-0.2-4.4-0.5-5.8
				c-0.5,0.2-0.9,0.5-1.4,0.8C170.4,72.8,169.7,73.1,169.3,73.3L169.3,73.3L169.3,73.3z M134.9,81.3l0.2-0.2
				c-0.1-0.2-1.6-1.8-1.8-1.9l-0.2,0.1c0.1,0.3,0.4,0.3,0.3,0.7c-0.1,0.2-2.2,2.1-2.5,2.3c-0.8,0.8-0.7,0.3-1.1,0.1
				c0,0.1-0.1,0.1-0.1,0.2l0.9,1c0.2,0.2,0.3,0.3,0.5,0.5c0.2,0.2,0.3,0.4,0.5,0.5l0.1-0.2c-0.1-0.2-0.2-0.2-0.2-0.5
				c0.1-0.3,1.1-1.2,1.3-1.3c0.1,0.4-0.2,2.1-0.4,2.3c-0.3-0.1-0.2-0.3-0.5-0.1c0,0.2,1.7,1.9,1.8,2l0.2-0.1
				c-0.1-0.2-0.3-0.4-0.3-0.7l0.4-3.1l2.4,0.3c0.4,0.1,0.5,0.4,0.6,0.2c0.2-0.2-0.7-0.9-1-1.3c-0.2-0.2-0.2-0.4-0.4-0.2
				c-0.1,0.2,0.6,0.7-0.2,0.7c-0.4,0-2.1-0.2-2.3-0.4C134.7,80.6,134.3,81.1,134.9,81.3L134.9,81.3L134.9,81.3z M197.1,30.5
				c0.3,0.7,0.2,0.7-0.4,1l-2.3,1.3c-0.6,0.4-0.7,0.5-1.1-0.1l-0.2,0.1c0.1,0.4,0.5,0.8,0.7,1.2l0.5,0.9c0.1,0.2,0.1,0.2,0.3,0.1
				c0.1-0.1,0.1,0.1,0-0.2c0-0.2-0.1-0.1-0.1-0.4c0.3-0.2,1.3-0.9,1.6-0.9c-0.1,0.5-0.6,1.9-0.9,2.1c-0.2-0.1-0.1-0.1-0.3-0.2
				l-0.2,0.1c0.1,0.4,0.7,1.3,1,1.7c0.1,0.2,0.2,0.4,0.3,0.5c0,0,0,0,0,0c0.4-0.2-0.1-0.1,0.2-1l1.1-2.8l2.1,0.8
				c0.4,0.2,0.4,0.4,0.6,0.4l0.2-0.1l-1-1.8l-0.2,0.1c0.1,0.2,0.2,0.3,0.1,0.6c-0.4,0.1-1-0.2-1.3-0.3c-0.2-0.1-1.1-0.4-1.3-0.5
				c0.4-0.2,1.3-0.8,1.6-0.8c0.3,0,0.2,0.2,0.5,0.3l0.1-0.1c0-0.2-1.2-2.2-1.3-2.2L197.1,30.5L197.1,30.5L197.1,30.5z M133.7,23
				c0.1,0.1,0.1,0.1,0.1,0.2c0.2-0.1,0.5-0.4,0.6-0.1c0,0.1,0,0,0,0.1l-0.3,2.4c-2-1.8-0.8-1.5-1-1.9c-0.3-0.1-0.1,0-0.5,0.3
				c-0.2,0.2-0.3,0.3-0.5,0.5c-0.2,0.1-0.9,0.8-0.9,0.9l0.1,0.2c0.3-0.1,0.2-0.2,0.5-0.3c0.4,0,0.7,0.6,0.9,0.8l1.7,1.8
				c0.6,0.7,0.3,0.5,0,1l0.1,0.2c0.3-0.1,0.7-0.6,1-0.9c0.2-0.2,0.9-0.7,0.9-1c-0.4-0.3-0.2,0-0.5,0.1c-0.3,0.1-0.8-0.6-1.2-1
				c-0.2-0.2-0.1-0.1-0.2-0.3c0.5,0.1,2,0.2,2.3,0.4l-0.2,0.3l0.1,0.2l1.5-1.4c0.2-0.2,0.5-0.3,0.4-0.6c-0.4-0.1-0.1,0.2-0.9,0.2
				l-3.1-0.4c0-0.1,0,0,0-0.1c0-0.1,0-0.1,0-0.2c0-0.1,0-0.3,0.1-0.4l0.2-1.6c0.1-0.4,0.2-0.4,0.3-0.6l-0.2-0.1
				c-0.2,0.1-0.2,0.2-0.3,0.3L133.7,23C133.7,23,133.7,23,133.7,23z M187.1,23.4c0.2,0.3,0.7,0.5,0.5,1.1c-0.1,0.4-0.5,0.8-1.1,0.8
				c-0.2,0-0.5-0.2-0.6-0.3c-0.1-0.3,0.4-0.7,0.7-1.1C186.8,23.7,186.9,23.5,187.1,23.4L187.1,23.4L187.1,23.4z M187.3,23.1
				c0.1-0.2,0.4-0.5,0.5-0.7l0.6-0.7c0.2,0.1,0.4,0.3,0.5,0.6C189,22.8,188.6,23.9,187.3,23.1L187.3,23.1z M187,20.4l0.4,0.4
				c0,0.3-0.5,0.8-0.7,1l-1.5,1.9c-0.4,0.5-0.4,0.6-1,0.2c-0.1,0.1-0.1,0.1-0.1,0.2c0.2,0.2,2.3,1.8,2.7,2c1.2,0.6,2.1-0.1,2.1-1.1
				c0-0.4-0.2-0.6-0.3-0.9c1.7,0.4,2-1.2,1.1-2.1l-2.4-1.9C187,20.3,187,20.2,187,20.4C187,20.4,187,20.4,187,20.4z M128,34
				c0.2-0.5,0.8-0.9,1.5-0.5c0.5,0.3,0.7,0.9,0.2,1.5C129.3,35,128.2,34.2,128,34z M126.1,32.8c0.2-0.4,0.6-0.8,1.2-0.5
				c0.7,0.4,0.5,0.8,0.2,1.4C127.4,33.7,126.3,33,126.1,32.8L126.1,32.8z M124.7,34.2l0.2,0.1c0.5-0.6,0.3-0.7,2.3,0.7
				c1.7,1.2,1.9,0.9,1.5,1.8l0.2,0.1c0.2-0.1,1.6-2.4,1.8-2.9c0.2-0.7,0.1-1.4-0.4-1.7c-0.7-0.5-1.2-0.1-1.7,0.2
				c0.2-1.8-1.5-1.8-2.2-0.9c-0.3,0.4-0.6,0.8-0.9,1.3L124.7,34.2L124.7,34.2L124.7,34.2z M164,93c0.9-0.1,1.3,0.1,1.4,0.9
				c0,0.9-0.5,1-1.2,1L164,93C164,93,164,93,164,93z M162.1,93l0.6,0.1c0.2,0.4,0.2,1.9,0.3,2.5c0.2,2.5,0.1,1.5-0.5,1.9l0,0.2
				c0.4,0,0.9-0.1,1.4-0.1c0.2,0,1.1,0,1.3-0.2l0-0.2c-0.7,0-0.7,0-0.7-0.7c0-0.3-0.2-1-0.1-1.2c0.2-0.1,0.4,0.3,0.5,0.4l1.4,1.6
				l1.6-0.1l0-0.2c-0.4-0.2-0.3,0-0.6-0.3l-1.3-1.5l0.2-0.2c0.1-0.1,0.2-0.1,0.2-0.1c0.9-0.6,0.6-2.5-1.2-2.4l-3,0.2L162.1,93
				L162.1,93L162.1,93z M163.5,14.6c0-0.5,0-1.1,0-1.7c0-0.4,0-0.4,0.4-0.3c1,0.1,1,1,0.8,1.5C164.6,14.6,164.1,14.6,163.5,14.6
				L163.5,14.6z M161.6,12.4c0.7,0,0.6,0.2,0.6,0.8c0,0.6,0,3.2-0.2,3.6c-0.2,0.1-0.5,0.1-0.6,0.2c0,0.3,0.2,0.2,1.1,0.2
				c0.6,0,0.9,0.1,1.5,0L164,17l-0.4-0.1c-0.2-0.1-0.2-0.4-0.2-0.8l0-1c0.4,0,0.6,0.5,0.9,1c0.2,0.3,0.6,1,0.8,1.2l1.6,0
				c0-0.5-0.1-0.1-0.5-0.5l-1.2-1.8c0.2-0.2,0.9-0.3,1-1c0.1-0.7-0.3-1.2-0.7-1.4c-0.6-0.3-3.1-0.4-3.9-0.3L161.6,12.4
				C161.6,12.4,161.6,12.4,161.6,12.4z M186.8,84.1c0.1-0.2,0.5-0.5,0.8-0.5c0.5-0.1,1.9,0.9,0.5,2
				C187.9,85.4,186.9,84.3,186.8,84.1L186.8,84.1z M189.5,84.8c0.1-0.4,0.3-0.5,0.2-1c0-0.3-0.2-0.6-0.4-0.8
				c-0.8-0.7-1.8-0.2-2.5,0.4l-1.3,1.1c-0.2,0.2-0.5,0.4-0.5,0.6l0.1,0.1c0.4-0.1,0.5-0.6,1.1,0.2l1.2,1.4c0.3,0.4,1.1,1.1,1.1,1.4
				c-0.1,0.3-0.4,0.2-0.2,0.6l1.9-1.6c0.2-0.3-0.1-0.3-0.1-0.3c-0.4,0-0.3,0.6-1-0.2l-0.8-0.9c0.3-0.2,0.5,0,1.1,0.1
				c1.7,0.4,1.5,0.5,2.1,0c0.2-0.2,0.6-0.5,0.7-0.7l-0.1-0.2c-0.3,0.1-0.3,0.2-0.7,0.1L189.5,84.8C189.5,84.8,189.5,84.8,189.5,84.8
				z M130.7,75.8c-0.3-0.3-0.5-0.8-0.8-1.1l-0.2,0.1c0.4,0.7,0.5,0.5-1.4,1.9c-1.9,1.3-1.6,1.4-2.2,0.8c-0.2,0-0.1,0-0.2,0.1
				c0.1,0.2,1.3,1.9,1.6,2.2c0.1-0.1,0.1,0,0.2-0.1c-0.1-0.2-0.2-0.3-0.2-0.6l1.5-1.1c0.3,0.4,0.6,0.8,0.9,1.2c0,0.1,0,0-0.1,0.1
				c0,0-0.1,0.1-0.1,0.1c-0.3,0.3-1.1,0.9-1.5,0.9c-0.1-0.1-0.1-0.1-0.2-0.2l-0.2-0.2c-0.1,0.1-0.1,0-0.2,0.2l0.8,1.1
				c0.2,0.3,0.5,0.8,0.8,1l0.2-0.1c-0.1-0.3-0.2-0.2-0.2-0.6c0.1-0.2,2.4-1.8,2.9-2.2c0.4-0.3,0.7-0.4,1,0.1
				c0.2-0.1,0.1-0.1,0.2-0.2l-1.6-2.1l-0.2,0.1c0.1,0.3,0.2,0.2,0.2,0.6c-0.1,0.1-1.2,0.9-1.4,1c-0.2-0.4-0.7-0.9-0.9-1.3
				c0.2-0.1,0.8-0.5,1-0.7c0.9-0.7,0.5,0.3,1.1,0.1C131.4,76.7,130.9,76,130.7,75.8L130.7,75.8L130.7,75.8z M150,90.6
				c-0.5-0.1-2.2-0.8-2.6-0.8l-0.1,0.2c0.5,0.6,0.9-0.6-0.1,2.4c-0.7,2.1-0.5,2.1-1.4,1.9l-0.1,0.2c0.2,0.2,1.6,0.6,2,0.7
				c0.7,0.2,0.5,0.2,0.6,0c-0.1-0.2-0.4-0.2-0.5-0.3c0-0.3,0.4-1.7,0.6-1.9c0.3,0.1,1.2,0.3,1.4,0.5c-0.1,0.4-0.3,0.8-0.4,1.2
				c-0.2,0.7-0.2,0.7-0.9,0.5l-0.1,0.2c0.2,0.2,1.6,0.6,2,0.7c0.7,0.2,0.5,0.2,0.6,0c-0.1-0.2-0.4-0.2-0.5-0.3
				c-0.1-0.4,1.1-3.8,1.3-4.1c0.3-0.1,0.4,0,0.6,0.1l0.1-0.3c-0.5-0.1-2.2-0.8-2.6-0.8l-0.1,0.2c0.3,0.4,0.7,0,0.4,0.9
				c-0.1,0.3-0.2,0.9-0.4,1.2l-1.5-0.5c0.1-0.4,0.4-1.4,0.6-1.7c0.3-0.1,0.4,0,0.6,0.1L150,90.6C150,90.6,150,90.6,150,90.6z
				 M187,67.3c0.2-0.2,0.3-1,0.4-1.3c0.7-2.1,0.9-2,1.8-3.7c0.5-0.9,0.7-1.7,0.7-2.9c0-1,0-2.5-0.2-3.5c-0.2,0.3-0.3,1.1-0.5,1.5
				c-0.5,1.5-1.3,2.7-2.1,4.1c-0.8,1.4-1.6,2.9-1,4.6C186.4,66.4,186.8,67,187,67.3L187,67.3L187,67.3z M137.2,67.3
				c0.2-0.2,0.6-0.9,0.8-1.2c0.7-1.7-0.1-3.2-0.9-4.6c-0.8-1.3-1.5-2.5-2-4c-0.2-0.4-0.3-1.2-0.5-1.5c-0.2,1-0.2,2.4-0.2,3.4
				c0.1,3.1,1.4,3.3,2.5,6.6C136.9,66.2,137,67.1,137.2,67.3C137.2,67.3,137.2,67.3,137.2,67.3z M158.3,81.4c1.2-0.4,2.7-5,2.9-6.7
				c-0.6,0-1.2-0.1-1.7-0.2c-0.6-0.1-1.1-0.2-1.6-0.3c-0.2,0.3-0.4,3.2-0.4,3.8c0,0.7,0.1,1.3,0.2,1.9
				C157.9,80.8,158.1,80.9,158.3,81.4L158.3,81.4L158.3,81.4z M139,62.8c1.3-4-1.8-6-2.9-9.9c-0.1-0.5-0.3-1.2-0.4-1.5
				c0,0.6-0.4,2-0.4,3.4c-0.1,2,0.3,3,1.4,4.4c0.7,0.8,1.5,1.9,2,2.9C138.8,62.3,138.9,62.6,139,62.8L139,62.8L139,62.8z
				 M185.2,62.8c0,0,1-1.8,1.5-2.4c1.9-2.6,2.7-3.2,2.1-7.3c-0.1-0.5-0.3-1.3-0.3-1.7c-0.2,0.5-0.3,1.6-0.9,2.9
				C186.3,57.1,184,59.2,185.2,62.8C185.2,62.8,185.2,62.8,185.2,62.8z M165.6,74.4c0,1,1.6,5.9,2.8,6.5c0.7-0.6,0.9-2.7,0.9-3.4
				c0-1.4-0.2-2.7-0.4-4c-0.5,0.1-1.1,0.4-1.6,0.5C166.9,74.1,165.9,74.3,165.6,74.4C165.6,74.4,165.6,74.4,165.6,74.4z M136.5,50.8
				c0,1.8,0.7,3.1,1.5,4.4c0.3,0.6,0.7,1.2,1,1.8c0.6,1.2,0.4,0.7,0.8,1.9c0-0.5,0.1-1.1,0.1-1.6c-0.1-3.6-1.3-4.7-1.3-8.3
				c0-0.8,0.2-1.6,0.2-2.4c-0.4,0.2-1.2,1.2-1.6,1.7C136.9,48.9,136.5,49.8,136.5,50.8L136.5,50.8L136.5,50.8z M174.4,79.5l0,0.7
				l1.5-2.1c1.1-1.4,2-2.5,3.3-3.8c0.5-0.5,1.3-1.1,1.8-1.7c-0.6-0.2-1.2-0.3-1.8-0.5c-0.6-0.2-1.1-0.4-1.7-0.7
				c-0.5,0.5-1.6,2.8-2,3.6C175.1,76.1,174.4,78.2,174.4,79.5L174.4,79.5L174.4,79.5z M143.2,72.6c0.6,0.6,1.3,1.2,1.8,1.7
				c0.6,0.6,1.1,1.2,1.7,1.8c0.8,0.9,1.6,1.9,2.3,3c0.2,0.3,0.5,0.8,0.7,1c0.2-1.9-1.1-5.1-2-6.9c-0.3-0.5-0.8-1.6-1.1-1.9
				C144.6,72.3,145.1,72,143.2,72.6L143.2,72.6z M184.4,58.9c1-2.8,2.2-4,2.9-6c0.4-1.3,0.5-2.6,0-3.8c-0.4-0.9-1.4-2.2-2-2.5
				c0.1,1.2,0.3,2,0.2,3.2C185.4,52.8,183.8,56.1,184.4,58.9L184.4,58.9L184.4,58.9z M161.6,74.7c0,1.7,0.2,4.6,0.8,6.2
				c0.1,0.4,0.6,1.4,1,1.3c1.4-0.5,1.7-5.9,1.7-7.7C163.9,74.6,162.9,74.7,161.6,74.7z M138.6,64.7c0,1.5,0.1,2.7,0.8,3.9
				c0.4,0.7,1.4,2,1.9,2.3c0.6-0.4,1.1-0.7,1.7-1l1.8-1c-1.6-1.6-1.9-1.5-3.2-2.6l-1.1-1.1c-0.2-0.3-1.5-1.9-1.8-1.9L138.6,64.7
				C138.6,64.7,138.6,64.7,138.6,64.7z M179.4,69C179.4,69,179.4,69,179.4,69c0.1,0.1,0.2,0.1,0.2,0.2l0.7,0.3
				c0.3,0.2,0.6,0.3,0.9,0.5c0.9,0.5,1,0.6,1.7,1c0.6-0.4,1.5-1.6,1.9-2.3c0.9-1.7,0.8-3.4,0.7-5.3c-0.3,0-1.6,1.6-1.8,1.9
				c-0.3,0.4-1.4,1.5-1.9,1.8C180.6,67.8,180.5,67.8,179.4,69L179.4,69L179.4,69z M131.5,57c2.5-0.6,3.1-3.5,3.4-5.7
				c0.3-2.1,0.3-4,0.8-6c0.1-0.6,0.4-1.3,0.5-1.8c-0.5,0.4-1.6,2-1.9,2.6c-2.1,3.4-1.3,5.5-2.2,9.1C131.9,55.9,131.6,56.5,131.5,57
				L131.5,57L131.5,57z M192.7,57c-0.1-0.5-0.4-1.2-0.5-1.7c-1-3.6-0.2-5.7-2.2-9.1c-0.3-0.6-1.5-2.3-1.9-2.6
				c0.1,0.5,0.3,1.2,0.5,1.8c0.7,3.2,0.5,7.2,1.7,9.6C190.6,55.8,191.5,56.8,192.7,57C192.7,57,192.7,57,192.7,57z M177,67.7
				l1.6,0.9l1.3-1.2c0.2-0.1,0.3-0.3,0.5-0.4c0.2-0.1,0.3-0.2,0.4-0.4l1.7-1.6c0.1-0.1,0.2-0.3,0.4-0.4c0.2-0.3,0.5-0.6,0.6-1
				c0.6-1.4,0.6-2.4,0.5-3.8l-2.9,2.6c-0.4,0.4-1.5,1.5-1.8,1.9c-0.4,0.6-0.7,1.3-1.4,2.3L177,67.7L177,67.7z M145.6,68.6l1.6-0.9
				l-1.5-2.2c-0.8-1.2-0.4-1-1.5-2.2l-2.4-2.2c-0.2-0.2-0.3-0.3-0.5-0.5c-0.2-0.1-0.3-0.3-0.5-0.4c-0.1-0.1-0.5-0.4-0.5-0.4
				c-0.3,1.1,0.1,3.2,0.8,4.4c0.1,0.2,0.2,0.4,0.4,0.5c0.8,1.1,2.6,2.6,3.7,3.5C145.3,68.3,145.4,68.5,145.6,68.6L145.6,68.6
				L145.6,68.6z M167.6,45c-0.5,0.1-0.5-0.4-0.2-0.5C167.7,44.3,167.8,44.7,167.6,45z M166.7,44c0.3,0.9-0.9,0.5-0.3-0.1L166.7,44z
				 M168.4,42.7c0.4-0.2,0.5,0.4,0.2,0.6C168.2,43.5,167.9,43,168.4,42.7z M167,44.4c-0.1-1.6,0.3-0.9,0.9-1.7
				c-0.1,0.4,0,0.9-0.1,1.1C167.6,44,167.1,44.3,167,44.4L167,44.4L167,44.4z M167,42c0.7-0.1,0.5,0.6,0.2,0.6
				c-0.2,0.1-0.4-0.1-0.4-0.2C166.8,42.2,166.9,42.1,167,42L167,42L167,42z M168,42.2c0.1-0.4,0.1-1,0.1-1.4
				c0.2-0.6,0.6-0.6,0.8-0.4c0.4,0.5-0.4,1.2-0.6,1.4C168.3,41.9,168.1,42.1,168,42.2z M166.1,41.2c-0.7,0.3-0.7,0.1-1.5,0.8
				c-0.4,0.4-1-0.3-1.4-0.6c-0.1,0.8,1,1.2,0.4,2.3c-0.1,0.1-0.4,0.5-0.4,0.6c0.6,0.1,0.8-0.3,1.1-0.4c0.3,0,0.7,0.3,1.3,0.1
				c0.1-0.1-0.1-0.3-0.3-0.6c-0.4-0.8-0.2-1.3,0.8-1.5c-0.1,0.8,0.4,1.2,0,1.7c-0.1,0.1-0.4,0.4-0.4,0.6c-0.3,1,0.6,1.2,1,0.6
				c0,1.4,0.8,0.8,1.1,0.3c0.2-0.4,0.2-0.7,0.3-1.1c0.8-0.1,0.7-0.2,1.2-0.5c0.2,0.3,0.4,0.9,0.1,1.2c-0.3,0.3-0.8,0.4-1.3,0.5
				c0.2,0.7,0.7,0.7,1,1c0.1,0.4,0,0.7,0.4,1c0.2-1.4,0.5-1.4,1.3-1.6c0.3-0.1,0.5-0.2,0.7-0.3c-0.1-0.1-0.2-0.1-0.4-0.1
				c-0.3,0-0.9-0.1-1-0.5c0-1-0.1-0.9-0.3-1.7c0.2-0.2,0.5-0.2,0.8-0.6c0.2-0.3,0.2-0.8,0.4-1c0.4-0.1,1.1,0.3,1.5,0.4
				c-0.3-0.3-1.4-1.4-2-1.4c-0.5,0-0.5,0.7-0.6,1.1c-0.1,0.4-0.4,0.9-0.9,0.9c0-0.6,1-2.2-0.1-2.8c-0.9-0.5-1.5,1.5-1.9,1.8
				c-0.3-0.3-0.1-0.9,0.1-1.2c0.2-0.2,0.7-0.6,0.6-1c-0.1-0.5-1.9-0.9-2.5-0.8c0.2,0.1,0.5,0.3,0.7,0.4c1,0.5,0.6,0.5,0.1,1.3
				C166.1,40.6,166.2,40.7,166.1,41.2L166.1,41.2L166.1,41.2z M162.9,70c0.1,0.5,0.3,0.7,0.4,1.1c0.1,0.4,0.1,0.9-0.3,1
				C162.3,72.2,162.8,70.4,162.9,70L162.9,70z M163.5,69.2c0.4-0.2,0.7,0.4,0.3,0.6c-0.2,0.1-0.4-0.1-0.4-0.2
				C163.3,69.4,163.4,69.3,163.5,69.2L163.5,69.2L163.5,69.2z M162.3,69.2c0.3,0.3,0.1,0.7-0.2,0.6
				C161.8,69.7,161.7,69.1,162.3,69.2z M162.9,69.4c-0.1-0.2-0.4-0.7-0.4-0.9c0-0.3,0.2-0.7,0.4-0.9
				C163.2,68.4,163.6,68.3,162.9,69.4z M163.3,67.2c0.4,0.1,0.4,0.6-0.1,0.6c-0.1-0.2-0.1-0.1-0.1-0.4L163.3,67.2L163.3,67.2z
				 M162.4,67.2c0.2,0.3,0,0.6-0.2,0.5C162,67.7,161.9,67.2,162.4,67.2z M165.6,66.8c-0.5,0.1-1.2,0.2-1.3,0.6
				c0.2,0.2,0.8,0.4,1,0.8c0.3,0.5-0.2,1-0.5,1.2l-0.1-0.2c-0.3-0.5-0.3-0.3-0.6-0.6c-0.4-0.4,0-0.7,0-1.3c0-0.8-1-1.2-1.2-0.1
				c-0.6-1.2-1.1-0.5-1.1,0.2c0,0.5,0.1,0.8,0.2,1.1c-1,0.7-0.5,0.5-0.8,1c-1.6-0.9,0.1-1.8,0.3-2.1c-0.8-0.6-1.2,0-1.5-0.6
				c-0.1-0.1,0-0.1-0.2-0.2c-0.1-0.1-0.3-0.2-0.5-0.3c0.1,0.5,0.4,1.1,0,1.6c-0.3,0.4-0.8,0.5-1,1.1c0.6-0.1,0.7-0.4,1.4-0.2
				c0.7,1.4,0.8,1,1.1,1.5c-0.1,0.3-0.4,0.4-0.4,0.9c-0.1,0.4,0.2,0.8,0.1,1.1c-0.3,0.3-1.1,0.2-1.5,0.3c0.5,0.2,2.1,0.6,2.5,0.2
				c0.4-0.4-0.4-1.2-0.1-1.9c0-0.1,0.1-0.2,0.1-0.3c0.1-0.2,0.1-0.1,0.2-0.2c0.3,0.2,0.2,0.8,0.4,1.4c0.3,1.2,1.5,1.5,1.8,0.3
				c0.1-0.6,0-1.2,0.1-1.7c0.2,0.1,0.3,0.2,0.4,0.4c0.3,0.7-0.5,1.5,0,1.9c0.5,0.3,2.1-0.3,2.5-0.5c-0.6,0-1.4,0.1-1.6-0.1
				c-0.1-0.3,0-0.7,0-1c0-0.5-0.2-0.6-0.3-0.9c0.3-0.4,0.7-0.6,0.9-1.3c0.2-0.7,0.8-0.3,1.6-0.3c-0.2-0.6-1.5-0.8-1.4-1.7l0.1-0.8
				C165.9,66,165.6,66.5,165.6,66.8L165.6,66.8L165.6,66.8z M156.1,44.7c0.3-0.2,0.6,0.4,0.3,0.5C156,45.3,155.8,44.8,156.1,44.7z
				 M157.4,44.8c-0.5,0.2-0.5-0.3-0.3-0.5C157.2,44.1,157.5,44.4,157.4,44.8z M154.9,43c0.4-0.2,0.7,0.4,0.3,0.6
				C154.9,43.7,154.6,43.1,154.9,43z M155.8,42.9c0.8,0.9,0.8,0.1,0.8,1.7c-0.1-0.1-0.6-0.5-0.7-0.6
				C155.8,43.9,155.8,43.2,155.8,42.9L155.8,42.9z M156.3,42.9c-0.2-0.6,0.2-0.7,0.5-0.5C156.9,42.7,156.7,43.1,156.3,42.9z
				 M155.6,42.4C155.5,42.4,155.5,42.4,155.6,42.4C155.5,42.4,155.5,42.4,155.6,42.4l-0.4-0.4c-0.3-0.3-1-0.6-0.6-1.4
				C155.5,40.5,155.5,41.7,155.6,42.4C155.6,42.4,155.6,42.4,155.6,42.4L155.6,42.4L155.6,42.4z M156.6,41.7
				c-0.6-0.1-0.7-1.8-2.1-1.8c-0.4,0-0.5,0.1-0.6,0.4c-0.3,0.8,0.5,1.6,0.5,2.3c-1.3-0.1-0.6-2-1.4-2c-0.6,0-1.7,1.1-2,1.4
				c0.4-0.1,1.1-0.6,1.5-0.5c0.2,0.3,0.2,0.6,0.3,1c0.2,0.5,0.4,0.4,0.6,0.7c-0.3,0.9-0.3,0.8-0.3,1.8c-0.8,0.6-0.6,0.3-1.3,0.5
				c0.5,0.4,1,0.2,1.5,0.5c0.6,0.3,0.5,0.9,0.7,1.3c0.2-0.3,0.3-0.5,0.3-1c0.3-0.2,1-0.6,1-1.1c-1.9-0.1-1.5-0.8-1.3-1.7
				c0.3,0.1,0.4,0.3,0.7,0.4c0.4,0.2,0.5,0.1,0.6,0.5c0.1,0.3,0.1,1.4,1.1,1.2c0.2-0.2,0.3-0.4,0.2-0.8c0.3,0.2,0.3,0.4,0.8,0.3
				c0.5-0.7-0.2-1.6-0.6-1.9c0.2-0.5,0.5-0.5,0.3-1.3c0.5,0.1,1,0.2,1.1,0.8c0,0.5-0.3,0.9-0.5,1.3c0.7,0.2,0.8,0,1.3-0.2
				c0.2-0.1,0.2,0.1,0.5,0.2c0.2,0.1,0.4,0.1,0.6,0.1c-0.1-0.3-0.7-0.7-0.6-1.3c0.1-0.5,0.5-0.8,0.5-1.5c-0.4,0.3-0.6,0.7-1.3,0.8
				c-0.2-0.4-0.9-0.8-1.6-0.9c0-0.4,0.2-0.7,0-1.1c-0.2-0.4-0.4-0.5-0.5-0.9c0.3-0.4,0.9-0.5,1.3-0.9c-0.7,0-2.3,0.3-2.4,0.9
				C155.7,40.1,157.1,40.5,156.6,41.7L156.6,41.7L156.6,41.7z M149.9,53.8c-0.1-0.5,0.4-0.5,0.5-0.2C150.5,53.8,150.2,54,149.9,53.8
				z M148,53.2c0.4-0.2,0.7,0.3,0.4,0.5C148,54,147.6,53.5,148,53.2z M150.2,52.4c0.3-0.2,0.5,0,0.5,0.4
				C150.3,53,150.1,52.9,150.2,52.4z M148.3,52.7c0.4,0,0.9-0.2,1.1-0.1c0.2,0.1,0.6,0.5,0.8,0.6c-0.3,0-0.8,0.3-1.1,0.1
				C148.8,53.1,148.7,52.8,148.3,52.7L148.3,52.7z M145.8,52.2c0.3-0.3,0.6-0.3,1.1-0.1c0.3,0.2,0.6,0.3,0.9,0.5
				C147.1,52.7,145.8,53.1,145.8,52.2L145.8,52.2z M148.8,52.3c-0.7,0.2-0.9-0.6-0.2-0.5l0.2,0.2L148.8,52.3z M147.8,51.4
				c-0.5,0.1-1.1-0.1-1.7,0c-1.1,0.1-1.6,1.2-0.2,1.7c0.4,0.1,1.2,0.2,1.4,0.5c-0.7,0.8-1.7-0.4-2.2-0.3c-0.7,0.2-0.4,2-0.3,2.6
				c0.2-0.4,0.2-1.2,0.5-1.5c0.3-0.1,0.6,0.1,0.9,0.3c0.5,0.2,0.6,0,1.1-0.1c0.5,1.1,1.2,1.2,1.3,1.4c0.1,0.6-0.2,0.9-0.4,1.4
				c0.6-0.2,0.8-0.6,1.2-0.8c0.6-0.4,1.1,0,1.6,0.2c-0.1-0.5-0.3-0.6-0.6-0.9c0-0.5,0.1-1.1-0.2-1.4c-0.4,0.3-1.3,1.6-2.1,0
				c0.1-0.1,0.4,0,1-0.4c0.4-0.3,0.7,0.1,1.1,0.2c1,0.4,1.6-0.7,0.6-1.1c0.4-0.1,0.6-0.2,0.8-0.3c0-0.8-1.1-0.9-1.9-0.8
				c-0.2-0.8-0.6-0.8-0.8-1.1c0.3-0.1,0.8-0.7,1.3-0.3c0.4,0.3,0.4,0.7,0.7,1.1c0.4-0.2,0.5-0.7,0.7-1.2c0.1-0.1,0.7,0,0.9-0.6
				c-0.6,0-1.2,0.1-1.5-0.4c-0.3-0.4-0.4-1-0.8-1.2c0,0.5,0.2,1.1-0.2,1.4l-0.1,0c-0.6,0.2-0.9,0.1-1.6,0.8
				c-0.2-0.2-0.4-0.5-0.7-0.6c-0.4-0.2-0.8-0.1-1.2-0.2c-0.1-0.5,0.2-1.1,0.1-1.6c-0.3,0.5-1,1.6-0.9,2.3
				C145.7,51.2,147.5,50.2,147.8,51.4L147.8,51.4L147.8,51.4z M173.3,64.4c-0.5,0.2-0.8-0.6,0-0.6C173.4,64,173.5,64.2,173.3,64.4z
				 M174,63.9c0.3,0.1,0.8,0.2,1.2,0.3c0.6,0.2,0.7,0.6,0.5,0.8c-0.3,0.3-0.9-0.1-1-0.3L174,63.9L174,63.9L174,63.9z M174.3,63.2
				c-0.3,0.2-0.8,0-0.6-0.3C173.8,62.6,174.4,62.6,174.3,63.2z M171.5,62.6c0.3-0.1,0.6,0.3,0.3,0.5c-0.1,0.1-0.3,0-0.4-0.1
				C171.3,62.8,171.3,62.6,171.5,62.6L171.5,62.6z M173.5,63.6c-0.8-0.2-1,0-1.5-1.1c1.4,0.3,0.9,0.2,1.2,0.8
				C173.4,63.3,173.4,63.4,173.5,63.6L173.5,63.6L173.5,63.6z M172,61.8c0.2-0.1,0.6,0,0.5,0.3c-0.1,0.3-0.4,0.1-0.5,0L172,61.8
				L172,61.8L172,61.8z M172.7,61.2c0.5,0,1.9-1,1.9,0.9L174,62c-0.4-0.1-0.6,0.2-1-0.1c-0.2-0.2-0.4-0.5-0.6-0.7
				c-0.7-0.5-1.4,0.1-0.8,0.9c-0.4-0.1-0.6-0.1-0.9,0.1c-0.1,1,1.1,1.3,1.4,1.5c-0.1,1,0.1,0.7,0.3,1.3c-1.4,0.3-1.5-0.2-1.4-1.5
				c-0.5,0.1-0.9,0.5-1.1,0.8c-0.4-0.1-0.7-0.1-1.1,0.2c0.1,0.1,0.5,0.2,0.7,0.3c0.2,0.1,0.4,0.2,0.5,0.5c0.2,0.5,0,1.2,0.3,1.7
				c0.7-1.9,0.5-1,1.6-1.1l1-0.1c0.3,1.4,1,1,1.3,1.5c0.1,0.3-0.6,1-0.7,1.4c0.4-0.3,1.9-1.3,1.7-2c-0.4-0.7-1.5-0.2-1.8-1.5
				c0.3,0,1,0.4,1.3,0.6c1.1,0.5,2.4-0.2,1.1-1.5c-0.3-0.3-0.9-0.6-1-1c0.7-0.1,0.8,0,1.2,0.4c0.2,0.2,0.5,0.8,1,0.7
				c0.5-0.1,0.9-1.5,1.1-2.3c-0.5,0.4-0.8,1.3-1.2,1.1c-0.4-0.2-0.4-0.9-1.6-0.9c0-0.3-0.1-0.6-0.2-0.9c0-0.1-0.1-0.2-0.1-0.4
				c-0.2-0.3-0.6-0.4,0-1c0.1-0.1,0.2-0.2,0.3-0.3c0,0,0.2-0.1,0.2-0.1c0,0,0.1,0,0.1-0.1c0.1-0.1,0,0,0.1-0.1
				c-1.3,0-1.5,0.9-2.6-0.3c-0.6-0.7,0,0.9,0,0.9C173,60.2,172.6,60.5,172.7,61.2L172.7,61.2L172.7,61.2z M173.6,53.2
				c-0.2-0.6,0.5-0.6,0.5-0.1C173.9,53.3,173.9,53.3,173.6,53.2z M176.1,52.6c0.2,0.6-0.4,0.6-0.6,0.4
				C175.3,52.6,175.7,52.4,176.1,52.6z M173.9,52.1c-0.3,0.3-0.6,0.1-0.5-0.2C173.5,51.7,174,51.6,173.9,52.1z M173.8,52.4
				c0.9-0.9,0.9-0.5,1.9-0.4c-0.4,0.1-0.6,0.5-0.8,0.6C174.7,52.7,174.1,52.5,173.8,52.4L173.8,52.4z M176.2,51.9
				c0.6-0.3,1.4-1.1,1.9-0.7c0.4,0.3-0.1,0.7-0.5,0.8C177.2,52,176.6,51.9,176.2,51.9L176.2,51.9L176.2,51.9z M175.8,51.5
				c-0.3,0.2-0.8,0.1-0.6-0.3C175.4,50.9,176,50.8,175.8,51.5z M177.7,49.1c-0.6,0.4-1.2-0.2-1.8,0.7c-0.8-0.4-0.4-0.5-1.8-0.7
				c-0.3-0.4-0.2-0.8-0.2-1.4c-0.8,0.4,0,1.8-2.2,1.7c0.1,0.3,0.3,0.4,0.6,0.5c0,0,0.1,0,0.1,0l0.1,0c0.2,0.1,0.3,0.9,0.8,1.2
				c0.3-0.3,0.3-0.9,0.7-1.2c0.4-0.3,1,0,1.3,0.3c-0.3,0.2-0.5,0.4-0.7,0.7c-0.3,0.5-0.5,0.3-1.1,0.3c-0.5,0-1.2,0.6-0.6,1.1
				c0.2,0.2,0.3,0.1,0.5,0.2c-0.4,0.2-0.8,0.9,0,1c0.6,0.1,1.1-0.3,1.5-0.5c0.3,0.3,0.6,0.6,1.2,0.6c-0.5,1.8-1.9,0.3-2.1,0.2
				c-0.3,0.3-0.2,0.9-0.1,1.4c-0.2,0.2-0.5,0.4-0.5,0.9c0.4-0.2,1-0.6,1.6-0.3c0.2,0.1,0.4,0.3,0.6,0.5c0.3,0.2,0.3,0.2,0.6,0.3
				c-0.1-0.4-0.5-0.5-0.5-1.4c0.4-0.2,0.5-0.3,0.7-0.6c0.3-0.3,0.4-0.7,0.5-0.8c1.2,0.7,1.4-0.1,2.1,0c0.1,0.1,0.5,1.4,0.5,1.5
				c0.1-0.7,0.2-2.4-0.4-2.6c-0.6-0.2-1.7,1.1-2.3,0.3c0.6-0.5,1.9-0.4,2.2-1.6c0.3-1.3-2.1-0.6-2.6-0.6c0.4-1.3,2.1-0.1,2.2-1
				c0.1-0.6-0.7-1.9-1-2.2C177.6,48.1,177.8,48.7,177.7,49.1L177.7,49.1L177.7,49.1z M152.3,65.1c0.2,0.4-0.1,0.7-0.4,0.6
				C151.7,65.6,151.7,65,152.3,65.1z M149.7,66.5c-0.1-0.5,0.2-0.8,0.5-0.9c0.2-0.1,0.4-0.1,0.5-0.2c0.2-0.1,0.3-0.2,0.5-0.2
				c-0.1,0.2-0.2,0.3-0.3,0.5C150.7,66,150.4,66.9,149.7,66.5L149.7,66.5z M150.8,64.4c-0.1-0.5,0.2-0.6,0.6-0.4l0,0.3
				C151.2,64.5,151.1,64.6,150.8,64.4z M153.6,64c-0.3,0.2-0.6,0.1-0.5-0.2C153.2,63.6,153.7,63.4,153.6,64z M151.6,64.8
				c0.4-0.7,0-1,1.5-1.2c-0.1,0.2-0.4,0.8-0.5,0.9C152.5,64.5,151.8,64.7,151.6,64.8L151.6,64.8z M153,63.2c-0.3,0.2-0.7,0-0.5-0.3
				C152.7,62.7,153.1,62.7,153,63.2z M149.1,60.8c0.3,0.2,1.1,0.6,1,1c0,0.1-0.2,0.5-0.3,0.8c-0.1,0.4-0.1,0.6-0.1,1
				c-0.6,0.1-0.9,0-1.4,0.6c-0.7,0.9-0.8-0.3-1.5-0.7c0.2,0.6,0.8,2,1.4,2.1c0.8,0.2,0.7-1.5,2.1-1.3c-0.2,0.6-1.6,1.3-1.2,2.5
				c0.2,0.6,1,0.3,1.4,0.1c0.4-0.2,0.8-0.7,1.2-0.8c-0.2,1.5-1.7,1-1.6,1.8c0,0.4,0.5,0.7,0.8,0.9c0.2,0.2,0.8,0.6,1.1,0.7
				c-0.2-0.4-0.8-0.9-0.9-1.3c0.3-0.5,1.1-0.4,1.3-1.4c0.5,0,1,0.1,1.5-0.1c0.6-0.2,0.5-0.4,1.3,1c0.3-0.6-0.2-1.3,0.2-1.9
				c0.2-0.3,0.6-0.5,0.9-0.7c-0.3-0.3-0.7-0.2-1.1-0.1c-0.3-0.3-0.7-0.7-1.2-0.7c0.1,1.5,0.1,1.9-1.3,1.7c0.6-1.1,0-1.2,0.7-1.6
				c0.5-0.3,1.1-0.5,0.9-1.3c-0.3-0.3-0.5-0.2-0.9-0.1c0.1-0.3,0.2-0.5,0.1-0.9c-0.8-0.3-1.5,0.6-1.7,1.1c-0.6-0.1-0.7-0.3-1.4,0
				c-0.1-1.4,0.4-1.4,1.8-1.1c0-0.6-0.2-0.8-0.4-1.2c-0.3-0.4,0.2-0.2,0-1.2c-0.3,0.3-0.5,0.8-1,1C150.2,61.1,149.7,60.6,149.1,60.8
				L149.1,60.8L149.1,60.8z M140,35.1c0.1,0.5,0.1,0.2,0.6,0.7c0.4,0.4,0.1,0.3,0.8,0.5c0.3-0.2,0.1-0.3,0.5-0.2
				c0.7,0.1,1,0.1,0.9-1c0-0.3-0.1-0.2,0.1-0.3l0.1,0c0.6,0.1,1,0.5,1.2-0.4c0.1-0.4-0.2-0.5,0-0.6c0.2-0.1,0.1,0.1,0.4,0.2
				c0.2,0.1,0.3,0.1,0.5,0.1c0.2-0.2,0.3-0.6,0.2-0.9c0.3-0.1,0.3,0.2,0.8,0.2c0.2-0.2,0.2-0.5,0.4-0.7c0.3-0.1,0.4,0.2,0.8,0.1
				c0.4-0.4,0-0.5,0.7-0.7c0.7,0.5,0.8,0.6,1.2-0.3l0.6-0.1c0.3,0.2,0.4,0.4,0.9,0.4c0.1-0.1,0.2-0.4,0.3-0.6c0.3,0.1,0.5,0.9,1,0.3
				c0.1-0.2,0.1-0.2,0.3-0.3c0.7,1,0.3,0.7,1.2,0.3c-0.2,1.2,0.6,0.8,0.9,0.8c0,0.5-0.7,0.6,0,1c0.2,0.1,0.3,0.1,0.2,0.3
				c-0.2,0.1-0.4-0.1-0.7,0.1c-0.2,0.2-0.1,0.4-0.1,0.7c-0.6,0.2-0.4-0.1-0.8-0.3c-0.3,0-0.4,0.2-0.6,0.4c-0.4-0.1-0.4,0-0.4-0.4
				c0-0.3-0.1-0.4-0.4-0.4c0.1-0.4,0.6-0.5,0.9-0.8c-1.8-0.1-2.6,1-1.4,2c0.9,0.7,2.4,0.8,3.6,0.3c1.1-0.4,1.8-1.6,1-2.9
				c-0.5-0.9-1.4-1.5-2.7-1.9c-3.9-1.1-8.1,0.2-11.2,2.6l-1.2,1.1C140.4,34.8,140.2,35,140,35.1L140,35.1L140,35.1z M171.1,35.9
				c3.3,0,3.6-2.6,1-2.5l-0.2,0c0.4,0.3,0.9,0.4,0.9,0.8c-0.3,0-0.4,0.1-0.4,0.4c0,0.4,0.1,0.4-0.4,0.4c-0.3-0.2-0.3-0.4-0.6-0.4
				c-0.4,0.2-0.2,0.4-0.8,0.3c0-0.3,0-0.6-0.1-0.7c-0.3-0.2-0.5,0-0.7-0.1c-0.1-0.4,0.4-0.3,0.5-0.6c0.1-0.3-0.3-0.5-0.3-0.8
				c0.3,0,1.1,0.4,0.9-0.8c0.9,0.4,0.5,0.7,1.2-0.3c0.3,0.1,0.3,0.5,0.6,0.5c0.4-0.1,0.4-0.4,0.7-0.5c0.1,0.2,0.2,0.4,0.3,0.6
				c0.5,0,0.6-0.2,0.9-0.4l0.6,0.1c0.4,1,0.5,0.8,1.2,0.3c0.7,0.2,0.3,0.2,0.7,0.6c0.3,0.3,0.5-0.2,0.9-0.1c0.2,0.1,0.2,0.5,0.4,0.7
				c0.4,0.1,0.5-0.2,0.8-0.2c-0.1,0.3,0,0.7,0.2,0.9c0.2,0,0.4,0,0.5-0.1c0.3-0.1,0.2-0.2,0.4-0.2c0.2,0.2,0,0.2,0,0.6
				c0.1,0.6,0.2,0.7,0.8,0.6l0.4-0.1c0.3-0.1,0.2,0.2,0.2,0.3c-0.1,1.1,0.1,1.2,0.9,1.1c0.4,0,0.3,0,0.5,0.2c0.7-0.2,0.4,0,0.8-0.5
				c0.3-0.3,0.6-0.3,0.6-0.8c-0.4-0.3-0.6-0.6-0.9-0.9c-0.9-0.8-2.1-1.7-3.2-2.3c-1.9-0.9-3.6-1.5-6-1.5c-4.3,0-6.7,2.6-5.4,4.4
				C169.1,35.5,170,35.9,171.1,35.9L171.1,35.9L171.1,35.9z M144.2,55.3c0-2.6,0.7-5.1,1.6-7.2c0.9-2,2.1-3.7,3.6-5.2
				c0.2-0.2,0.4-0.4,0.6-0.6c0.2-0.2,0.4-0.3,0.6-0.5c0.4-0.3,0.8-0.6,1.2-0.9c0.8-0.6,1.8-1.2,2.8-1.6c2.7-1.2,4.8-1.7,7.9-1.7
				c7,0,13.4,4.7,15.9,10.4c1.2,2.8,1.7,4.8,1.7,8c0,4.7-2.2,9.1-5.3,12.2c-0.8,0.8-1.4,1.4-2.4,2c-2.8,1.9-6.2,3.2-9.9,3.2
				c-3.1,0-5.2-0.5-7.8-1.7c-1.8-0.8-3.8-2.2-5.2-3.6C146,64.7,144.2,60.4,144.2,55.3L144.2,55.3L144.2,55.3z M143.3,55
				c0,2.8,0.4,5.1,1.4,7.6c0.5,1.3,1.4,2.9,2.2,3.9c0.2,0.2,0.8,1,0.9,1.2l-1.6,0.9c-0.5,0.3-1.1,0.6-1.6,0.9
				c-0.8,0.4-2.9,1.3-3.2,1.9c0.3,0.4,1.1,0.6,1.8,0.6c1.2,0,2.5-0.6,3.4-1.1c0.5-0.3,1-0.5,1.4-0.8c0.4-0.2,1.1-0.7,1.4-0.8l1.2,1
				c2.9,2.3,7.2,3.9,11,3.9c3.1,0,5.2-0.4,8-1.5c1.3-0.6,2.9-1.5,4-2.4c0.4-0.3,0.9-0.7,1.2-1c0.7,0.2,5.9,4.1,8,2.1
				c-0.4-0.8-5.7-2.9-6.4-3.8c2.6-2.9,4.5-7.2,4.5-12.4c0-4.6-1.7-8.5-4.4-11.9c-0.5-0.7-0.6-0.6-1.1-1.2c-0.2-0.2-0.4-0.4-0.6-0.6
				l-0.6-0.5c-1.8-1.4-2-1.6-4.3-2.7c-4.6-2.2-10.7-2.2-15.4-0.1c-1.1,0.5-2.1,1-3,1.6c-2.7,1.9-5.1,4.5-6.5,7.5
				C144.1,49.7,143.3,52.3,143.3,55L143.3,55L143.3,55z M161.1,9.3c3.3-0.2,7.3,0.3,10.4,1c6,1.3,11.1,3.5,16,6.8
				c2.7,1.8,6.3,4.8,8.4,7.3c1.3,1.5,1.9,2.2,3.2,3.9c1.5,2,3.1,4.6,4.2,7.1c5.5,12,5.8,25.2,0.6,37.5c-1.2,2.7-2.6,5.2-4,7.4
				c-0.8,1.1-1.6,2.3-2.4,3.3c-1.2,1.4-3.7,4.2-5.2,5.5c-0.2,0.1-0.2,0.2-0.4,0.3c-0.9,0.8-2.1,1.7-3.2,2.5
				c-7.4,5.4-16,8.2-25.6,8.6c-6.9,0.3-13.5-1.4-19-3.7c-2.7-1.1-5.2-2.6-7.4-4c-2.8-1.9-6.2-4.8-8.4-7.3l-0.7-0.8
				c-0.8-0.9-1.7-2.1-2.5-3.2c-5.4-7.4-8.2-16-8.6-25.6c-0.1-3.4,0.3-7.3,1-10.4c0.7-3.3,1.6-5.8,2.7-8.6c0.6-1.4,1.2-2.6,1.9-3.8
				c1.7-3.3,4.8-7.4,7.2-9.8c0.4-0.4,2.1-2.1,2.6-2.5c0.2-0.1,0.2-0.2,0.4-0.3c2.7-2.4,7-5.2,10.3-6.7c2.7-1.2,5.4-2.2,8.4-3
				C154.8,9.7,157.3,9.4,161.1,9.3L161.1,9.3L161.1,9.3z M115.8,54.4c0,4.1,0.3,7.2,1.2,11.1c0.7,2.9,1.8,6.1,2.9,8.5
				c1.8,3.8,3.9,7.3,6.6,10.5L128,86c0.3,0.2,0.4,0.5,0.7,0.8l3.7,3.5c3,2.6,6.9,4.9,10.5,6.7c5.3,2.6,12.7,4.2,18.7,4.2
				c4.1,0,7.2-0.3,11.1-1.2c4.7-1.1,8.4-2.7,12.3-4.9c1.3-0.7,2.4-1.5,3.5-2.2c1.4-0.9,2.7-2.1,4-3.1l1.5-1.4
				c0.3-0.3,0.5-0.5,0.7-0.8c0.3-0.3,0.4-0.4,0.7-0.7c0.3-0.2,0.4-0.5,0.7-0.8c0.9-0.9,3.2-3.8,3.8-4.7c3.3-4.9,5.7-9.8,7.1-15.8
				c1.7-7.2,1.7-14.2,0-21.4c-1.6-6.8-5-13.8-9.6-19c-1.1-1.3-1.5-1.7-2.8-3c-0.3-0.3-0.4-0.4-0.7-0.7c-0.2-0.3-0.5-0.4-0.8-0.7
				l-3.1-2.6c-1.4-1.1-3.6-2.5-5.1-3.4c-3.9-2.2-7.7-3.8-12.3-4.9c-7.2-1.7-14.2-1.7-21.4,0c-2.9,0.7-6.1,1.8-8.5,2.9
				c-5.2,2.5-7.1,3.9-11.3,7.3c-0.9,0.7-2.1,2-3,2.8l-1,1.1c-0.1,0.2-0.2,0.2-0.4,0.4c-3.2,3.7-5.1,6.8-7.3,11.3
				c-1.2,2.4-2.3,5.6-2.9,8.5C116.3,47.4,115.8,50.9,115.8,54.4L115.8,54.4L115.8,54.4z M127.1,55.8c0.4,12.3,6.8,22.4,15.6,28.2
				c5.8,3.8,13,6.2,20.4,5.9c7.5-0.3,14-2.6,19.7-6.7c0.4-0.3,0.8-0.6,1.3-1c1-0.8,2.6-2.2,3.4-3.1c2.9-3.1,5.3-6.4,7-10.5
				c4-9.5,3.7-19.6-0.6-28.9c-1-2.1-3.5-6.1-5.3-7.9l-1-1.1c-3-3.3-7.4-6.3-11.6-8.1c-4.1-1.8-9.5-3-14.8-2.8
				c-11.1,0.5-19,5.3-24.3,10.8c-0.4,0.4-0.7,0.8-1.1,1.2c-0.4,0.4-0.6,0.8-1,1.2c-2,2.4-3.6,5.2-4.9,8.2
				C128,45.2,126.9,50.5,127.1,55.8L127.1,55.8L127.1,55.8z"/>
		</g>
	</g>
</g>
</svg>
