<?xml version="1.0" encoding="utf-8"?>
<!-- Generator: Adobe Illustrator 26.0.1, SVG Export Plug-In . SVG Version: 6.00 Build 0)  -->
<svg version="1.1" id="Слой_1" xmlns:xodm="http://www.corel.com/coreldraw/odm/2003"
	 xmlns="http://www.w3.org/2000/svg" xmlns:xlink="http://www.w3.org/1999/xlink" x="0px" y="0px" viewBox="0 0 238.1 150.2"
	 style="enable-background:new 0 0 238.1 150.2;" xml:space="preserve">
<style type="text/css">
	.st0{fill-rule:evenodd;clip-rule:evenodd;fill:#2B2A29;}
</style>
<g id="Слой_x0020_1">
	<path class="st0" d="M156.2,71.8c-0.2,0.2-0.4,0.3-0.6,0.4l-4.9-12.1C150.8,60.2,156.2,71.8,156.2,71.8z M207,90.1L207,90.1
		c-0.1,0.8-0.6,1.7-0.8,2.2c-0.1,0.2-0.2,0.5-0.3,0.5l0-3.3l0-0.6l0.1-0.3c0.1-0.4,0.4-1.5,0.5-1.8c0.2-0.6,0.1-0.4,0.2-0.5
		c0.1,0.6,0.2,1.2,0.2,1.9c0,0.3,0,0.7,0.1,1C207,89.4,206.9,89.8,207,90.1L207,90.1z M209.5,70.6c-0.1,0.4-0.2,1-0.4,1.2
		c-0.1-0.4-0.3-2.1-0.4-2.6l-0.1-0.6c0-0.5-0.1-0.5,0-1.1c0-0.4,0.1-0.7,0.1-1c0.1-0.6,0.2-1.4,0.3-2l0.1-0.4
		c0.1,0.2,0.3,1.1,0.4,1.4c0.1,0.2,0.3,1.5,0.3,1.6c0.1,1.3,0.1,1.1,0,2.3C209.7,69.6,209.6,70.4,209.5,70.6L209.5,70.6z
		 M208.9,85.5c0.2-0.5,0.6-0.6,0.8-1.1c0.1,0,0,0,0.1,0c0,0,0,0,0.1,0c0.1,0,0-0.2,0.1,0.1c-0.1,0.4-0.1,1.3-0.3,1.6
		c0,0.5-0.2,1.1-0.3,1.5c-0.1,0.3-0.1,0.4-0.2,0.5c-0.1,0.1-0.2,0.3-0.3,0.4c-0.5,0.4-1,1-1.5,1.2c0.1-0.5,0.5-2,0.6-2.4
		C208.2,86.6,208.6,85.6,208.9,85.5L208.9,85.5z M208.4,84.3l-0.2,0.9c0,0.2,0,0.1-0.1,0.2l-0.4-1.9c-0.1-0.4-0.2-1.3-0.3-1.6
		c0-0.3,0-0.7,0-1c0-0.3,0-0.6,0.1-0.9c0-0.4,0.1-1.4,0.1-1.7c0.2,0.1,0.2,0.4,0.3,0.8l0.5,1.8c0.1,0.3,0.1,0.8,0.2,1
		C208.7,82.4,208.6,84,208.4,84.3z M207.4,70.9l-0.1-1.2c0-0.4,0-0.2,0-0.2c0.1,0.1,0.3,0.4,0.4,0.7c0.1,0.1,0.3,0.4,0.4,0.6
		c0.1,0.2,0.2,0.4,0.3,0.7c0.2,0.4,0.4,0.9,0.6,1.7c0.1,1.1,0.1,2.2,0.1,3.4c-0.2-0.2-0.7-1.5-0.7-1.8c-0.1-0.1-0.2-0.2-0.2-0.4
		c0-0.1-0.1-0.2-0.1-0.4c0-0.1-0.1-0.3-0.2-0.4c-0.1-0.2,0-0.2-0.2-0.4c0-0.2,0,0,0-0.3C207.5,72.3,207.4,71.4,207.4,70.9z
		 M207.3,58c0,0.4,0.4,1.2,0.4,1.6c0.1,0.1,0.1,0.3,0.2,0.5c0.1,0.3,0.3,0.7,0.4,1.1c0,0.1,0.1,0.2,0.1,0.3
		c-0.1-0.2-0.2-0.5-0.2-0.7c0-0.1-0.1-0.2-0.1-0.4c-0.1-0.2-0.1-0.1-0.1-0.3l0.7,2.3l0.1,0.7c0,1.1-0.2,3.2-0.4,3.9
		c-0.1-0.1-0.1-0.2-0.1-0.2c-0.1-0.7-0.4-1.3-0.5-2.1c-0.1,0,0-0.2,0-0.3c-0.1-0.3-0.2-1-0.3-1.3l0-2.3c0-1.8,0.1-1.2-0.1-2.1
		l-0.2-0.4l-0.3-1.2C207,57.1,207.1,57.6,207.3,58z M204.7,60.2c0.1,0.4,0.3,0.6,0.5,0.8l0.1,0c0.1,0.2,0.2,0.2,0.3,0.3l0.9,0.9
		c0.1,0.3,0.3,0.3,0.5,0.7l-0.1-0.1c-0.1-0.2-0.2-0.5-0.4-0.6c-0.1-0.3-0.4-0.8-0.6-1c-0.1-0.2-0.5-0.8-0.5-1.1
		c-0.1-0.1-0.1-0.2-0.2-0.3c0-0.3-0.1-0.6-0.2-0.8c0-0.3-0.2-0.8-0.3-1.1c0-0.1-0.1-0.3-0.1-0.3l0-0.2c-0.1-0.7-0.3-0.9-0.5-1.3
		c-0.2-0.3-0.5-0.7-0.6-1l-0.1-0.1c-0.2-0.2-0.3-0.3-0.3-0.6l0.3,0.3c-0.1-0.2-0.4-0.5-0.4-0.8c0.2,0.1,0.3,0.4,0.5,0.6l0.1,0.2
		c-0.1-0.2-0.2-0.3-0.2-0.6c0.2,0.2,0.6,1,0.7,1.3c0.2,0.3,0.6,1.2,0.7,1.3c0,0.1,0,0.1,0.1,0.1c0.1,0.1,0.5,0.6,0.6,0.7
		c0.2,0.3,0.4,0.7,0.6,0.8c0.1,0.2,0.4,0.6,0.7,1.9c0.2,0.9,0.3,1.7,0.4,2.7l0,0.6c-0.1-0.1-0.2-0.2-0.3-0.3
		c0.1,0.2,0.3,0.6,0.4,1.1c0.1,0.4,0.6,2.2,0.6,2.8c-0.1-0.1-0.1,0-0.2-0.3c-0.2,0-0.6-0.6-0.7-0.8c-0.2-0.3-0.5-0.8-0.7-0.9
		c-0.1-0.2-0.1-0.2-0.2-0.3c-0.1-0.1-0.1-0.2-0.2-0.3c-0.1-0.2-0.1-0.3-0.2-0.4c-0.1-0.4-0.4-1-0.4-1.4l-0.2-0.4
		c-0.3-0.9-0.7-2-1.2-2.5l-0.1-0.3c0,0,0,0,0-0.1C204.2,59.5,204.5,59.9,204.7,60.2C204.7,60.3,204.6,60.2,204.7,60.2z M207.6,69.7
		c0-0.2-0.2-0.4-0.3-0.6c0-0.1,0-0.1,0-0.1c0-0.2,0,0,0-0.1c-0.2-0.3-0.4-1.1-0.5-1.7c-0.1-0.4-0.3-1.7-0.4-1.9
		c0.1-0.2-0.1-0.1,0.1-0.2l0.1,0.2c0.3,0.5,0.9,1.1,1.5,2c0.1,0.2,0.1,0.2,0.2,0.4c0,0.1,0,0,0,0.1l0.1,0.3c0.3,0.8,0.5,2.7,0.5,3.8
		c-0.2-0.2-0.5-0.8-0.6-1C208,70.4,207.8,69.9,207.6,69.7z M210.1,83.2l0,0.3c-0.1,0.1,0,0-0.1,0.1l-0.3,0.7c-0.3,0.2-0.7,1-1,1.1
		l-0.3,0.3l0.1-0.6c0-0.7,0.3-2,0.4-2.7c0.1-0.1,0.1-0.4,0.2-0.6c0.1-0.2,0.2-0.3,0.2-0.5c0.1-0.3,0.4-0.8,0.6-1
		c0-0.2,0.5-0.8,0.6-0.9l0,0.8C210.4,81,210.3,83,210.1,83.2z M205.7,57.9c-0.1-0.2-0.1,0-0.1-0.2l-0.1,0.4c-0.1,0-0.2,0-0.3,0
		c-0.3,0-0.1,0-0.2,0.1c0,0,0,0,0,0c0,0.2,0.1,0.3,0.1,0.5l0.3,1l0.2,0c0-0.3-0.1-0.4,0-0.3l0-0.6c0.2-0.1,0.1,0.2,0.1-0.3
		c0-0.4,0-0.3-0.1-0.4C205.7,57.8,205.8,58.3,205.7,57.9L205.7,57.9z M208.4,61.5c0.1,0.3,0.2,0.8,0.3,0.9L208.4,61.5z M207.2,89.3
		c-0.1-0.2,0,0.1-0.1-0.3c0-0.1,0-0.3,0-0.4c0-0.3-0.1-0.5-0.1-0.8c-0.1-0.6-0.1-1.1-0.1-1.7c-0.1-1.3,0.2-2.2,0.4-3.2l0-0.2
		c0,0,0,0,0-0.1l0-0.1c0,0,0,0,0,0c0-0.1,0,0,0.1-0.1c0.2,0.4,0.6,2.8,0.6,3.7C208,87.3,207.4,88.6,207.2,89.3L207.2,89.3z
		 M205.6,92.8l0,0.4l-0.1,0.2c-0.2,0.8-0.2,0.7-0.6,1.3c-0.2,0.4-0.5,0.8-0.8,1.1c0-0.1,0,0.2,0-0.3c0.1-0.7,0.2-2.2,0.3-3.2
		c0.1-0.5,0.2-0.9,0.4-1.2c0.1-0.3,0.4-0.8,0.4-1c0.1-0.2,0.2-0.4,0.3-0.5C205.8,90.3,205.7,92,205.6,92.8z M207.5,93.5
		c-0.1,0.1-0.4,0.8-0.5,1.1c-0.1,0.3-0.3,0.7-0.5,0.9c-0.4,0.6-1,0.7-1.5,0.7c-0.2,0-0.6,0.1-0.7-0.1l0.1-0.1c0-0.3,0.5-1,0.6-1.2
		l0.6-1c0.6-0.4,1.3-0.8,2-1L207.5,93.5z M208.7,76.2c0.5,1.2,0.4,3.2,0.1,4.8c-0.1-0.1,0,0-0.1-0.3l-0.6-2.1l-0.1-0.4
		c0-0.3-0.1-0.6-0.2-0.8c0-0.5-0.1-1.1-0.1-1.7c0-0.6,0-1.3,0-1.9c0.2,0.1,0.4,0.7,0.6,1.1c0.1,0.2,0.2,0.4,0.2,0.6
		C208.6,75.8,208.6,76,208.7,76.2L208.7,76.2z M210.2,70c0,0.4,0.1,1.3,0.2,1.8c0,0.4,0,0.7,0,1c0,0.4-0.1,0.6-0.1,1
		c-0.1,0.2-0.2,0.9-0.5,1.5c-0.1,0.3-0.4,1.1-0.6,1.2c-0.1-1.4-0.3-3.1,0-4.3c0.1-0.6,0.6-2.6,0.8-3C210.2,69.4,210.1,69.8,210.2,70
		L210.2,70z M210.6,76c0,1.8,0,2.5-0.4,3.5c-0.2,0.4-0.8,1.6-1.1,1.8c0-0.5,0-1.7,0.1-2.3c0.1-0.9,0.1-1.2,0.3-1.9
		c0.3-1,0.5-1.3,0.8-2c0-0.1,0.1-0.2,0.1-0.3c0.1-0.2,0.1-0.1,0.1-0.3c0-0.1,0,0,0.1-0.1C210.5,74.4,210.6,76,210.6,76z M207.9,92.2
		c-0.6,0.4-1.2,1-1.8,0.9c0.2-0.8,0.8-2,1.1-2.7c0-0.1,0-0.1,0.1-0.1l0.2-0.2c0.3-0.3,1.4-1.3,1.7-1.3c-0.2,0.8-0.3,1.3-0.5,2
		C208.2,91.9,208.1,91.8,207.9,92.2z M101.8,90.1L101.8,90.1c0.1,0.8,0.6,1.7,0.8,2.2c0.1,0.2,0.2,0.5,0.3,0.5l0-3.3l0-0.6l-0.1-0.3
		c-0.1-0.4-0.4-1.5-0.5-1.8c-0.2-0.6-0.1-0.4-0.2-0.5c-0.1,0.6-0.2,1.2-0.2,1.9c0,0.3,0,0.7-0.1,1C101.8,89.4,101.9,89.8,101.8,90.1
		z M99.3,70.6c0.1,0.4,0.2,1,0.4,1.2c0.1-0.4,0.3-2.1,0.4-2.6l0.1-0.6c0-0.5,0.1-0.5,0-1.1c0-0.4-0.1-0.7-0.1-1
		c-0.1-0.6-0.2-1.4-0.3-2L99.8,64c-0.1,0.2-0.3,1.1-0.4,1.4C99.3,65.7,99,67,99,67c-0.1,1.3-0.1,1.1,0,2.3
		C99.1,69.6,99.2,70.4,99.3,70.6z M99.9,85.5c-0.2-0.5-0.6-0.6-0.8-1.1c-0.1,0,0,0-0.1,0c0,0,0,0-0.1,0c-0.1,0,0-0.2-0.1,0.1
		c0.1,0.4,0.1,1.3,0.3,1.6c0,0.5,0.2,1.1,0.3,1.5c0.1,0.3,0.1,0.4,0.2,0.5c0.1,0.1,0.2,0.3,0.3,0.4c0.5,0.4,1,1,1.5,1.2
		c-0.1-0.5-0.5-2-0.6-2.4C100.6,86.6,100.2,85.6,99.9,85.5L99.9,85.5z M100.4,84.3l0.2,0.9c0,0.2,0,0.1,0.1,0.2l0.4-1.9
		c0.1-0.4,0.2-1.3,0.3-1.6c0-0.3,0-0.7,0-1c0-0.3,0-0.6-0.1-0.9c0-0.4-0.1-1.4-0.1-1.7c-0.2,0.1-0.2,0.4-0.3,0.8l-0.5,1.8
		c-0.1,0.3-0.1,0.8-0.2,1C100.1,82.4,100.2,84,100.4,84.3z M101.4,70.9l0.1-1.2c0-0.4,0-0.2,0-0.2c-0.1,0.1-0.3,0.4-0.4,0.7
		c-0.1,0.1-0.3,0.4-0.4,0.6c-0.1,0.2-0.2,0.4-0.3,0.7c-0.2,0.4-0.4,0.9-0.6,1.7c-0.1,1.1-0.1,2.2-0.1,3.4c0.2-0.2,0.7-1.5,0.7-1.8
		c0.2-0.1,0.2-0.5,0.4-0.8c0-0.1,0.1-0.3,0.2-0.4c0.1-0.2,0-0.2,0.2-0.4c0-0.2,0,0,0-0.3C101.3,72.3,101.4,71.4,101.4,70.9z
		 M101.5,58c0,0.4-0.4,1.2-0.4,1.6c-0.1,0.1-0.1,0.3-0.2,0.5c-0.1,0.3-0.3,0.7-0.4,1.1c0,0.1-0.1,0.2-0.1,0.3l0,0l0,0
		c-0.1,0.3-0.2,0.8-0.3,0.9L100,63c0,1.1,0.2,3.2,0.4,3.9c0.1-0.1,0.1-0.2,0.1-0.2c0.1-0.7,0.4-1.3,0.5-2.1c0.1,0,0-0.2,0-0.3
		c0.1-0.3,0.2-1,0.3-1.3l0-2.3c0-1.8-0.1-1.2,0.1-2.1l0.2-0.4l0.3-1.2C101.8,57.1,101.7,57.6,101.5,58L101.5,58z M104.1,60.2
		c-0.1,0.4-0.3,0.6-0.5,0.8l-0.1,0c-0.1,0.2-0.2,0.2-0.3,0.3l-0.9,0.8c-0.1,0.3-0.3,0.3-0.5,0.7c0,0,0-0.1,0.1-0.1
		c0.1-0.2,0.2-0.5,0.4-0.6c0.1-0.3,0.4-0.8,0.6-1c0.1-0.2,0.5-0.8,0.5-1.1c0.1-0.1,0.1-0.2,0.2-0.3c0-0.3,0.1-0.6,0.2-0.8
		c0-0.3,0.2-0.8,0.3-1.1c0-0.1,0.1-0.3,0.1-0.3l0-0.2c0.1-0.7,0.3-0.9,0.5-1.3c0.2-0.3,0.5-0.7,0.6-1l0.1-0.1
		c0.2-0.2,0.3-0.3,0.3-0.6l-0.3,0.3c0.1-0.2,0.4-0.5,0.4-0.8c-0.2,0.1-0.3,0.4-0.5,0.6l-0.1,0.2c0.1-0.2,0.2-0.3,0.2-0.6
		c-0.2,0.2-0.6,1-0.7,1.3c-0.2,0.3-0.6,1.2-0.7,1.3c0,0.1,0,0.1-0.1,0.1c-0.1,0.1-0.5,0.6-0.6,0.7c-0.2,0.3-0.4,0.7-0.6,0.8
		c-0.1,0.2-0.4,0.6-0.7,1.9c-0.2,0.9-0.3,1.7-0.4,2.7l0,0.6c0.1-0.1,0.2-0.2,0.3-0.3c-0.1,0.2-0.3,0.6-0.4,1.1
		c-0.1,0.4-0.6,2.2-0.6,2.8c0.1-0.1,0.1,0,0.2-0.3c0.2,0,0.6-0.6,0.7-0.8c0.2-0.3,0.5-0.8,0.7-0.9c0.1-0.2,0.1-0.2,0.2-0.3
		c0.1-0.1,0.1-0.2,0.2-0.3c0.1-0.2,0.1-0.3,0.2-0.4c0.1-0.4,0.4-1,0.4-1.4l0.2-0.4c0.3-0.9,0.7-2,1.2-2.5l0.1-0.3c0,0,0,0,0-0.1
		C104.6,59.5,104.4,59.9,104.1,60.2C104.1,60.3,104.2,60.2,104.1,60.2L104.1,60.2z M101.3,69.7c0-0.2,0.2-0.4,0.3-0.6
		c0-0.1,0-0.1,0-0.1c0-0.2,0,0,0-0.1c0.2-0.3,0.4-1.1,0.5-1.7c0.1-0.4,0.3-1.7,0.4-1.9c-0.1-0.2,0.1-0.1-0.1-0.2l-0.1,0.2
		c-0.3,0.5-0.9,1.1-1.5,2c-0.1,0.2-0.1,0.2-0.2,0.4c0,0.1,0,0,0,0.1l-0.1,0.3c-0.3,0.8-0.5,2.7-0.5,3.8c0.2-0.2,0.5-0.8,0.6-1
		C100.8,70.4,101,69.9,101.3,69.7z M98.7,83.2l0,0.3c0.1,0.1,0,0,0.1,0.1l0.3,0.7c0.3,0.2,0.7,1,1,1.1l0.3,0.3l-0.1-0.6
		c0-0.7-0.3-2-0.4-2.7c-0.1-0.1-0.1-0.4-0.2-0.6c-0.1-0.2-0.2-0.3-0.2-0.5c-0.1-0.3-0.4-0.8-0.6-1c0-0.2-0.5-0.8-0.6-0.9l0,0.8
		C98.4,81,98.5,83,98.7,83.2z M103.1,57.9c0.1-0.2,0.1,0,0.1-0.2l0.1,0.4c0.1,0,0.2,0,0.3,0c0.3,0,0.1,0,0.2,0.1c0,0,0,0,0,0
		c0,0.2-0.1,0.3-0.1,0.5l-0.3,1l-0.2,0c0-0.3,0.1-0.4,0-0.3l0-0.6c-0.2-0.1-0.1,0.2-0.1-0.3c0-0.4,0-0.3,0.1-0.4
		C103.1,57.8,103,58.3,103.1,57.9z M101.6,89.3c0.1-0.2,0,0.1,0.1-0.3c0-0.1,0-0.3,0-0.4c0-0.3,0.1-0.5,0.1-0.8
		c0.1-0.6,0.1-1.1,0.1-1.7c0.1-1.3-0.2-2.2-0.4-3.2l0-0.2c0,0,0,0,0-0.1l0-0.1c0,0,0,0,0,0c0-0.1,0,0-0.1-0.1
		c-0.2,0.4-0.6,2.8-0.6,3.7C100.8,87.3,101.4,88.6,101.6,89.3L101.6,89.3z M103.2,92.8l0,0.4l0.1,0.2c0.2,0.8,0.2,0.7,0.6,1.3
		c0.2,0.4,0.5,0.8,0.8,1.1c0-0.1,0,0.2,0-0.3c-0.1-0.7-0.2-2.2-0.3-3.2c-0.1-0.5-0.2-0.9-0.4-1.2c-0.1-0.3-0.4-0.8-0.4-1
		c-0.1-0.2-0.2-0.4-0.3-0.5C103,90.3,103.1,92,103.2,92.8z M101.3,93.5c0.1,0.1,0.4,0.8,0.5,1.1c0.1,0.3,0.3,0.7,0.5,0.9
		c0.4,0.6,1,0.7,1.5,0.7c0.2,0,0.6,0.1,0.7-0.1l-0.1-0.1c0-0.3-0.5-1-0.6-1.2l-0.6-1c-0.6-0.4-1.3-0.8-2-1L101.3,93.5z M100.1,76.2
		c-0.5,1.2-0.4,3.2-0.1,4.8c0.1-0.1,0,0,0.1-0.3l0.6-2.1l0.1-0.4c0-0.3,0.1-0.6,0.2-0.8c0-0.5,0.1-1.1,0.1-1.7c0-0.6,0-1.3,0-1.9
		c-0.2,0.1-0.4,0.7-0.6,1.1c-0.1,0.2-0.2,0.4-0.2,0.6C100.2,75.8,100.2,76,100.1,76.2L100.1,76.2z M98.6,70c0,0.4-0.1,1.3-0.2,1.8
		c0,0.4,0,0.6,0,1c0,0.4,0.1,0.6,0.1,1c0.1,0.2,0.2,0.9,0.5,1.5c0.1,0.3,0.4,1.1,0.6,1.2c0.1-1.4,0.3-3.1,0-4.3
		c-0.1-0.6-0.6-2.6-0.8-3C98.6,69.4,98.7,69.8,98.6,70z M98.2,76c0,1.8,0,2.5,0.4,3.5c0.2,0.4,0.8,1.6,1.1,1.8c0-0.5,0-1.7-0.1-2.3
		c-0.1-0.9-0.1-1.2-0.3-1.9c-0.3-1-0.5-1.3-0.8-2c0-0.1-0.1-0.2-0.1-0.3c-0.1-0.2-0.1-0.1-0.1-0.3c0-0.1,0,0-0.1-0.1
		C98.3,74.4,98.2,76,98.2,76z M100.9,92.2c0.6,0.4,1.2,1,1.8,0.9c-0.2-0.8-0.8-2-1.1-2.7c0-0.1,0-0.1-0.1-0.1l-0.2-0.2
		c-0.3-0.3-1.4-1.3-1.7-1.3c0.2,0.8,0.3,1.3,0.5,2C100.6,91.9,100.7,91.8,100.9,92.2z M100.8,60.1c0,0.2-0.1,0.2-0.1,0.3
		c-0.1,0.1-0.1,0.2-0.1,0.4c-0.1,0.2-0.2,0.6-0.2,0.7C100.4,61.5,100.8,60.1,100.8,60.1z M185.7,56C185.8,56,185.8,55.9,185.7,56
		C185.8,55.9,185.8,55.9,185.7,56c0.2-0.2,0.1-0.1,0.2-0.2l-0.1-0.1L185.7,56L185.7,56z M157.5,31.2c-0.2,0.6-0.4,0.6-1,0.6l0-2.5
		c-0.1-0.3,0.1-0.1,0.4-0.2l0-0.3l-2,0l0,0.3l0.4,0.1c0.1,0.4,0.1,2.1,0,2.6c-0.5,0.3-0.5-0.1-0.5,0.5l3.3,0.1l0-1.3l-0.4,0
		C157.6,31.4,157.7,30.9,157.5,31.2L157.5,31.2z M167.5,31.1l0.4,0.2c-0.1,0.6-0.5,1.7-0.7,2.4l-0.5-0.1l-0.2,0.6l2.1,0.7l0.2-0.6
		l-0.4-0.2c0-0.4,0.5-1.9,0.7-2.3l0.5,0.1l0.2-0.5l-2.1-0.7L167.5,31.1L167.5,31.1z M194.7,53.5C194.7,53.5,194.7,53.6,194.7,53.5
		l0.2,0.2c0.1,0.1,0,0,0.1,0.2l0.5-0.3l-1.1-1.9l-0.5,0.3l0.1,0.5l-2.1,1.1c-0.1-0.1-0.1-0.1-0.2-0.4l-0.5,0.3l1.1,1.9l0.5-0.3
		l-0.1-0.4C192.8,54.5,194.4,53.6,194.7,53.5z M176,34.6l0.3,0.3c-0.1,0.3-1,1.9-1.2,2.1l-0.4-0.1l-0.3,0.5l1.9,1.1l0.3-0.5
		c-0.2-0.1-0.2-0.1-0.4-0.2l1.1-2.1l0.5,0.1c0.1-0.1,0.2-0.3,0.3-0.5c-0.4-0.3-1.4-0.8-1.9-1.1L176,34.6L176,34.6z M160.3,30.1
		l0.1,0.8l-0.5,0L160.3,30.1z M158.8,31.6l-0.1,0.3l-0.5,0.1l0,0.3l1.4,0.2l0-0.3c-0.3-0.1-0.2,0-0.4-0.3c0.1-0.4,0-0.1,0.2-0.2
		l0.2-0.3l0.3,0c0.6-0.1,0.8,0.1,0.8,0.7c-0.2,0.1-0.1,0.1-0.5,0.1l-0.1,0.3c0.4,0.1,0.7,0,0.9,0.2l0.4,0l0.6,0l0.1-0.3l-0.3-0.2
		l0-0.2l-0.4-2.3c0-0.1,0-0.3-0.1-0.4c-0.1-0.5,0-0.3-1.4-0.6C159.9,29.3,158.8,31.3,158.8,31.6z M187.5,44.6
		c0.1-0.3,0.1-0.7,0.3-0.8c0.1,0.1,0.2,0.1,0.3,0.2l0.4-0.4L187,42l-0.4,0.4c0.4,0.6,0.1,0.8-0.1,1.5c-0.1,0.5-0.2,0.9-0.8,1.2
		c-0.2-0.1-0.1-0.1-0.4-0.3l-0.4,0.4c0.3,0.3,0.5,0.5,0.8,0.8l0.8,0.8l0.4-0.4c-0.1-0.2-0.1-0.2-0.2-0.4c0.6-0.7,0.6-0.6,1.3-0.7
		c0.6-0.1,1.1-0.3,1.5,0l0.4-0.4c-0.4-0.3-0.8-0.8-1.2-1.2l-0.4,0.4l0.2,0.3C188.4,44.5,187.5,44.6,187.5,44.6z M189.7,47.2
		c-0.1,0.1-0.1,0-0.2,0.2l-0.2,0.2l-0.2-0.3c0.2-0.2,0.3-0.2,0.6-0.3c0.1-0.1,0-0.1,0.2-0.2c0.1,0,0.1,0,0.2,0
		C190,46.9,189.9,47,189.7,47.2z M189.1,50.1c0.1,0,0.2,0.1,0.2,0.1c0.2-0.1,0.2-0.1,0.3-0.3c-0.2-0.4,0.1-0.5,0.2-0.8
		c0.3-0.4,1.3-1.9,1.4-2.2c-0.3-0.3-0.5-0.7-0.8-1c-0.5,0.1-1.2,0.4-1.7,0.5c-1,0.3-1.2,0.6-1.7,0.2l-0.4,0.3
		c0.1,0.2,0.3,0.5,0.5,0.7c0.2,0.2,0.3,0.4,0.5,0.6c0.2-0.1,0.3-0.2,0.4-0.3l-0.2-0.4l0.6-0.2c0.1,0.3,0.3,0.5,0.5,0.7l-0.2,0.4
		c-0.3-0.1-0.2-0.2-0.4-0.3c-0.1,0.1-0.1,0.1-0.2,0.2l-0.2,0.2c0,0,0,0,0,0C188,48.8,188.9,50,189.1,50.1L189.1,50.1z M196.4,60.6
		c0,0,0,0-0.1-0.2c-0.1-0.2,0-0.1,0-0.2l0.8,0L196.4,60.6z M198,59.4c-0.6,0-1.3,0-1.9,0c-1,0-1.3,0.1-1.5-0.4l-0.6,0.2l0.5,1.6
		l0.6-0.2l-0.1-0.5l0.6,0l0.3,0.9l-0.5,0.3l-0.2-0.4l-0.5,0.2l0.7,2.1l0.6-0.2l-0.1-0.4c0.3-0.3,0.8-0.7,1.3-1
		c0.4-0.3,0.9-0.6,1.3-1L198,59.4L198,59.4z M191.2,51.2c0.1,0.1,0.1-0.1,0.1,0.2c0.2,0.6-0.6,0.8-0.8,0.1c0-0.3-0.2-0.4-0.1-0.8
		c0.1-0.3,0.2-0.4,0.3-0.7c-0.1-0.2-0.1-0.3-0.3-0.4L190,50c-0.1,0.1-0.2,0.2-0.3,0.3c0,0-0.2,0.1-0.2,0.1c-0.1,0.1,0,0-0.1,0.1
		c0.2,0.4,0.1,0.2,0.5,0.4l0,0.4c0,0.8,1.1,2.1,2.1,1.4c0.5-0.3,0.6-0.7,0.5-1.4c-0.1-0.3-0.1-0.5-0.2-0.8c-0.1-0.4-0.2-0.5-0.1-0.8
		c0.4-0.1,0.6,0.2,0.7,0.5c0.2,0.5-0.1,0.7-0.2,1l0.3,0.5c0.3-0.1,0.9-0.5,1.1-0.7c-0.1-0.2-0.2-0.4-0.5-0.5
		C193.3,47.8,189.7,48.4,191.2,51.2z M183.3,42.9c-0.5-0.6-0.3-0.9,0.1-1.4c0.2-0.2,0.8-1,1.3-0.8c0.7,0.2,0.2,1.1-0.1,1.4
		C184.3,42.6,183.9,43,183.3,42.9z M181.9,42c0.1,0.9,1.3,1.9,2.3,1.9c1.1,0,2.1-1.1,1.9-2.3c-0.2-0.9-1.3-1.9-2.3-1.9
		C182.7,39.7,181.7,40.8,181.9,42z M193.6,56.9c0.4-0.2,1.9-1,2.3-1c0.3,0.9-0.1,1-0.8,1.3C194.4,57.6,193.9,57.6,193.6,56.9z
		 M195.7,58.6c0.8-0.4,1.4-1,1-2.2c-0.1-0.4-0.8-2-1.1-2.4l-0.5,0.3l0.1,0.4c-0.3,0.2-1.9,0.9-2.2,1l-0.2-0.3l-0.5,0.2
		c0.1,0.4,0.9,2.1,1.1,2.4C193.9,58.6,194.6,59.1,195.7,58.6z M164.6,30.4c0.4,0.1,0.5,0.1,0.7,0.2c0,0.4,0,0.5-0.2,0.7l-0.7-0.1
		L164.6,30.4z M162.8,32.4l0,0.1l-0.4,0l0,0.4c0.2,0.1,1.7,0.4,1.9,0.4l0.1-0.5l-0.4-0.2l0.2-1c0.3,0.1,0.4,0.1,0.6,0.2
		c0,0.7-0.4,1.3,0.2,1.7c0.5,0.4,1.4,0.3,1.5-0.4l0-0.4c-0.6,0-0.1,0.2-0.4,0.3c-0.3,0.1-0.2,0-0.2-0.1c0-0.6,0-0.2,0.1-0.3
		c0.2-0.6,0.1-0.8-0.2-1.2c1-0.2,1.1-1.4-0.1-1.8c-0.5-0.1-2.3-0.6-2.8-0.6l-0.1,0.6l0.4,0.1C163.3,30.7,162.8,31.7,162.8,32.4z
		 M171.7,32.6l0.4,0.2c-0.1,0.4-0.8,2-1,2.3l-0.4-0.1l-0.2,0.5c0.5,0.3,1.3,0.7,1.9,0.9l0.2-0.4l-0.2-0.3l0.4-0.8
		c0.3,0.1,0.6,0.2,0.8,0.4l-0.4,0.8c-0.3,0-0.4-0.2-0.6,0.6l1.9,0.8l0.3-0.5l-0.4-0.2l1-2.2l0.5,0.1l0.2-0.5L174,33l-0.2,0.5
		c0,0,0,0,0,0c0,0,0.1,0.1,0.1,0.1c0.1,0.1,0,0,0.1,0.1c-0.1,0.3-0.2,0.5-0.3,0.7c-0.2-0.1-0.6-0.2-0.8-0.4l0.3-0.7l0.3,0l0.2-0.5
		l-1.9-0.9L171.7,32.6L171.7,32.6z M181.1,38.6l0-0.2c0.2-0.1,0.4-0.3,0.6-0.4l-0.4,0.5C181.3,38.8,181.3,38.6,181.1,38.6z
		 M179,37.1c0-0.1,0-0.1,0.1-0.2c0,0,0.1,0,0.1,0.1l0,0.1l-0.8,2.5l0.8,0.5c0.4-0.3,1.8-1.4,2.1-1.5c-0.1,0.2-0.8,1.3-1,1.5
		c-0.2-0.1-0.2-0.1-0.4-0.2c-0.1,0.2-0.1,0.2-0.3,0.4c0.3,0.3,1.3,1,1.7,1.2c0.2-0.1,0.2-0.2,0.3-0.4c0,0,0,0,0,0l-0.2-0.3
		c0.1-0.3,0.5-0.8,0.7-1.1c0.2-0.3,0.5-0.8,0.7-0.9l0.3,0.2c0.2-0.2,0.2-0.2,0.4-0.5l-1.7-1.2c-0.4,0.2-1.3,1-1.7,1.2l0.7-2
		c-0.6-0.3-1.1-0.8-1.7-1.2l-0.2,0.2c-0.1,0.1-0.1,0.1-0.1,0.2l0.3,0.2c-0.1,0.4-1.2,1.9-1.4,2.1c-0.2-0.1-0.2-0.1-0.4-0.2
		c-0.1,0.2-0.2,0.3-0.3,0.5c0.2,0.2,1.1,0.9,1.4,1l0.2-0.5c0,0,0,0,0,0l-0.1-0.2C178.2,38.1,178.9,37.6,179,37.1L179,37.1z
		 M113.8,53.6l-0.4-0.2l-1,1.8l0.4,0.2l0.2-0.3c0.4,0,2.1,1,2.3,1.1l-0.1,0.4l0.4,0.2c0.1-0.2,0.9-1.6,0.9-1.8l-0.3-0.1
		c-0.2,0.2-0.1,0.2-0.3,0.3c-0.3-0.1-2-0.9-2.3-1.2C113.7,54,113.8,53.6,113.8,53.6z M115,51.4l-0.3-0.2c-0.2,0.2-0.9,1.5-1.1,1.8
		l0.3,0.2l0.3-0.3c0.4,0,0.9,0.4,1.2,0.6c0.3,0.2,0.8,0.4,1.1,0.7l-0.1,0.4l0.3,0.2l0.8-1.5c0.2-0.4,0.7-1.1,0.8-1.4l-1.2-0.7
		c-0.1,0.1-0.2,0.3-0.2,0.4c0.2,0.2,0.6,0.3,0.6,0.7c0,0.3-0.2,0.7-0.4,0.8c-0.4-0.2-1.9-1-2.2-1.3C114.8,51.9,115,51.4,115,51.4z
		 M120.4,49.1l0.1-0.2c-0.2-0.3-0.6-0.4-0.8-0.7c-0.3-0.1-0.1,0-0.4-0.2l-0.2,0.4c0.3,0.4,1,0.6,0.1,1.6c-0.4-0.2-1.8-1.2-2.1-1.5
		l0.2-0.5l-0.3-0.2c-0.3,0.3-1.1,1.4-1.2,1.7l0.4,0.2l0.2-0.3c0.4,0.1,2.1,1.3,2.1,1.4c0,0.3,0,0.3-0.1,0.4l0.3,0.2
		c0.3-0.2,0.7-0.9,0.9-1.2C119.6,50.1,120.2,49.2,120.4,49.1L120.4,49.1z M150.8,29.6c0-0.4,0.3-0.4,0.7-0.4c0,0.4,0,0.9,0,1.3
		c0,0.2,0,0.4,0,0.6c0,0.3,0.1,0.5-0.1,0.6c-0.2,0.2-0.3,0.1-0.5,0.2l0,0.3l2.3,0l0-0.4c-0.8,0-0.6,0.2-0.7-2.6c0.4,0,0.7,0,0.7,0.4
		c0.1,0.1,0-0.1,0.1,0.1c0,0,0.1,0.2,0.1,0.2c0.1,0.1-0.1,0.1,0.2,0.1c0,0,0.3,0,0.3,0l0-1.3l-3.7,0.1l0,1.3l0.4,0L150.8,29.6
		L150.8,29.6z M120.7,43.2l0.8,0.9l0.3-0.3c-0.2-0.6-0.5-0.7,0.1-1.2c0.4,0.2,0.6,0.6,0.9,0.9c0.3,0.3,0.7,0.6,0.8,1l-0.3,0.5
		l0.2,0.3c0.2-0.1,1-0.9,1.3-1.1c0.4-0.4,0.3-0.2,0.4-0.5l-0.2-0.1c-0.7,0.2-0.2,0.7-1.5-0.6c-0.2-0.2-0.7-0.7-0.9-1
		c0.6-0.4,0.6-0.4,1.2,0l0.3-0.2c-0.1-0.2-0.7-0.9-1-1c-0.3,0.5-0.9,0.9-1.3,1.3L120.7,43.2z M140.8,33.5l-0.2-0.4
		c0-0.1-0.1-0.2-0.1-0.3c0.4-0.2,0.6-0.2,0.7,0.2c0.2,0.2,0.1,0.2,0.4,0l-0.4-1.2c-0.1-0.3,0-0.2-0.3-0.3l-0.1,0.1
		c0,0-0.1,0.1-0.1,0.1c0.1,0.5,0,0.7-0.5,0.7l-0.1-0.4l-0.2-0.6c1.3-0.7,1.4-0.1,1.8,0.4l0.5-0.1l-0.4-1.3c-0.4,0.1-3.2,1-3.4,1.2
		l0.1,0.3l0.5,0c0.2,0.6,0.7,1.9,0.8,2.4l-0.3,0.2l0.1,0.4l1.9-0.7l-0.1-0.4l-0.5,0.1L140.8,33.5L140.8,33.5z M143.6,30.7
		c0.2,0.1,0.6,0.9,0.7,1.1l-0.7,0.1L143.6,30.7z M145.8,33.1c0.2-0.1,0.3-0.1,0.5-0.2c-0.1-0.7-0.2-0.1-0.5-0.7
		c-0.2-0.1-1.3-2.2-1.5-2.5l-1.2,0.3l-0.3,2.8c-0.1,0.4-0.2,0.4-0.4,0.6l0.1,0.3c0.3,0,0.5-0.1,0.8-0.2c0.4-0.1,0.5,0,0.7-0.3
		l-0.1-0.3l-0.4,0l0-0.7l1.1-0.2c0.1,0.2,0.2,0.3,0.2,0.6l-0.4,0.2l0.1,0.4C144.9,33.3,145.4,33.1,145.8,33.1L145.8,33.1z
		 M148.2,30.6L148.2,30.6c0.2,0.2,0.1,0.1,0.2,0.4l-0.7,0.1l0.2-1.3C148,30,148.1,30.3,148.2,30.6L148.2,30.6z M146.6,32.4l0,0.5
		l1.3-0.2l0-0.4l-0.5-0.1l0.1-0.7l0.5,0l0.5-0.1c0.2,0.2,0.2,0.3,0.2,0.6l-0.4,0.1l0,0.4c0.5,0,1.1-0.2,1.6-0.1l0.5-0.1
		c0-0.1,0-0.1,0-0.2c-0.1-0.3,0-0.1-0.1-0.2l-0.4,0c0-0.2-0.5-1.1-0.7-1.4c-0.2-0.4-0.5-1.1-0.7-1.5l-1.2,0.1
		C147.2,30.1,147,32.2,146.6,32.4L146.6,32.4z M132.8,36.2l-0.6,0.3l-0.3-1.2c0.3,0.1,0.3,0.2,0.5,0.4
		C132.5,36,132.6,36.1,132.8,36.2z M131.6,38.2c0,0.3,0,0.2,0.2,0.4l0.2-0.1l1-0.6l-0.2-0.4l-0.4,0.1l-0.2-0.7
		c0.4-0.2,0.6-0.4,1-0.5l0.4,0.5c-0.1,0.2-0.1,0.2-0.3,0.3l0.2,0.4c0.4-0.2,1.3-0.8,1.7-0.9l0.1-0.2l-0.1-0.4l-0.4,0.2
		c-0.3-0.1-0.4-0.3-0.6-0.5l-1.8-1.6l-1.1,0.6c0.1,0.9,0.6,2.5,0.5,3.3C131.6,38.3,131.7,38.2,131.6,38.2L131.6,38.2z M120.3,46.5
		c-0.2-0.2-0.6-0.8-0.7-1l1.1,0.5C120.6,46.2,120.5,46.4,120.3,46.5z M120.3,48.3c-0.1,0.3,0.1,0.3,0.3,0.4l0.9-1.1l-0.3-0.3
		c-0.2,0.1-0.1,0.1-0.4,0.2c-0.2-0.2-0.1,0-0.2-0.3c-0.1-0.2-0.1-0.2-0.1-0.3c0.3-0.3,0.4-0.4,0.6-0.7c0.3,0,0.4,0.1,0.7,0.3
		c0,0.3-0.1,0.2-0.2,0.5l0.3,0.2l1.4-1.6l-0.3-0.2c-0.1,0.1-0.2,0.1-0.3,0.2c-0.6,0-2.3-1-3-1.2c-0.1,0.1-0.6,0.7-0.8,0.9
		C119.1,46.1,120.6,47.7,120.3,48.3z M137.6,33.8c0.2,0.2,0.2,0.3,0.3,0.5c-0.2-0.1-0.3-0.2-0.5-0.4c-0.2-0.1-1.5-1-1.8-1.3
		l-1.4,0.6c0,0-0.1,0.1-0.1,0.1c0,0,0,0.1,0,0.1c0,0,0,0.1,0,0.1c0,0,0,0,0.1,0.1l0.5,0c0.2,0.4,1,2,1,2.4l-0.2,0l-0.1,0.2l0.2,0.3
		l0.3-0.1l1.1-0.5l-0.2-0.4l-0.5,0.1l-0.9-1.9c0.6,0.3,1.8,1.4,2.5,1.8l1-0.5c-0.3-0.8-1.1-2.3-1.2-2.8l0.3-0.2l-0.2-0.4l-1.4,0.6
		l0.2,0.4l0.5-0.1C137.2,32.9,137.6,33.4,137.6,33.8z M128.4,38.6l0.2,0.3c0,0.1,0,0.2,0.1,0.3c-0.2-0.2-0.3-0.2-0.5-0.4l-1.4-1
		c-0.4,0.2-1.3,0.8-1.6,1.1l0.2,0.3l0.4-0.2c0.2,0.3,1.3,1.7,1.4,2.1c-0.1,0.2-0.1,0.1-0.3,0.4l0.2,0.2c0.4-0.2,0.8-0.6,1.2-0.8
		l0-0.2l-0.2-0.1l-0.2,0.1l-0.2,0c-0.2-0.2-0.9-1.1-0.9-1.3c-0.2-0.2-0.5-0.5-0.6-0.8c0.3,0.1,0.5,0.3,0.6,0.5c0.2,0,0-0.1,0.2,0.1
		c0.1,0.1,0.2,0.1,0.3,0.2l1.4,1.1c0.2-0.1,0.4-0.2,0.6-0.4c-0.1-0.7-0.7-1.6-0.6-2.2c-0.2-0.2-0.3-0.5-0.3-0.9
		c0.2,0.2,0.4,0.5,0.6,0.8c0.1,0.1,0.8,1.1,0.9,1.4l-0.2,0.3l0.3,0.3c0.3-0.2,1-0.8,1.3-0.9c0.1-0.1,0.1-0.1,0.1-0.2l-0.2-0.3
		l-0.3,0.1c-0.2-0.2-1.4-1.8-1.5-2.1l0.3-0.3l-0.2-0.3l-1.7,1.2C128.1,37.2,128.4,38.3,128.4,38.6L128.4,38.6z M112.5,56l-0.4-0.1
		l-0.7,1.9c0.3,0.4,1.5,1.1,1.7,1.5l-2.3-0.2l-0.7,1.8l0.3,0.2l0.3-0.4c0.5,0.1,1.8,0.7,2.4,0.9l-0.1,0.5l0.4,0.1
		c0.2-0.2,0.5-1.1,0.6-1.4l-0.4-0.1l-0.2,0.3c-0.3,0-2.1-0.7-2.4-0.9l3.3,0.3l0.3-0.7l-1.9-1.5c-0.2-0.2-0.4-0.2-0.6-0.5
		c0.4,0.1,2,0.7,2.4,1l-0.1,0.4l0.4,0.1l0.7-1.7l-0.4-0.1l-0.2,0.3c-0.4,0-2.1-0.7-2.4-0.9C112.4,56.4,112.5,56,112.5,56z
		 M111.9,37.7c0.4-0.2,0.4-0.4,0.2-0.8l-0.6,0l-0.2,0.3c-0.3-0.3,0-0.4-0.3-0.6c0,0-0.1,0-0.1,0.2C111,37.2,111.3,37.8,111.9,37.7z
		 M129.5,25.3c0.2,0.2,1.4,2.5,1.4,2.9c-0.2,0.2-0.1,0.1-0.3,0.3l0.3,0.5c0.2,0.3,0,0,0.1,0.1l0.8-0.4l1.1-0.6l-0.3-0.7l-0.4,0.1
		c-0.4-0.4-0.8-1.4-1.1-1.9c-0.2-0.4-0.9-1.6-0.9-2.1c0.2-0.2,0-0.1,0.3-0.2l-0.3-0.7l-2,1l0.3,0.7c0.4-0.1,0.4-0.2,0.7,0.2
		C129.3,24.8,129.5,25.1,129.5,25.3L129.5,25.3z M184.5,26.5l-0.1,0.3c0.6,0.4,0.1,0.6-0.9,2.3c-0.3,0.5-0.9,1.5-1.3,1.8l-0.4-0.1
		l-0.4,0.6l0.1,0.1c0.2,0.2,1.3,0.8,1.5,1l0.2,0.1l0.2-0.3c0.1-0.2,0,0,0.1-0.1l0.1-0.2l-0.3-0.2c0-0.4,0.8-1.6,1.1-1.9
		c0.4-0.6,0.8-1.3,1.2-1.9l0.6,0.1l0.4-0.6l-1.6-1.1l-0.2-0.1c0,0,0,0,0,0L184.5,26.5L184.5,26.5z M198.4,39.1
		c0.2,0.6,0.4,0.3-0.7,1.2c-0.4,0.3-2.4,2-2.6,2c-0.2-0.1-0.2-0.1-0.3-0.3c-0.3,0.1-0.4,0.3-0.7,0.5c0.1,0.3,1,1.2,1.3,1.7
		c0.3-0.1,0.5-0.2,0.7-0.5c-0.3-0.7,0-0.6,1.5-1.8c0.2-0.2,1.6-1.3,1.8-1.3c0.1,0,0.1,0,0.2,0.1c0.1,0.1,0.1,0.1,0.2,0.2
		c0.2-0.2,0.3-0.2,0.5-0.5c-0.1-0.3-1.1-1.6-1.3-1.7C198.8,38.8,198.6,39,198.4,39.1L198.4,39.1z M180.8,24.6
		c0.4,0.4,0.4,0.3-0.7,2.3c-0.4,0.6-0.7,1.4-1.2,1.9l-0.5-0.1l-0.4,0.7l3,1.8c0.2-0.2,1.2-1.9,1.3-2.2l-0.4-0.2
		c-0.3,0.3-0.5,0.7-0.8,1c-0.4,0.4-0.9,0-1.2-0.2c0.2-0.5,2-3.6,2.3-3.9l0.5,0.1l0.3-0.7l-1.9-1.1L180.8,24.6L180.8,24.6z
		 M136.2,22.6c-0.1-0.2-0.1-0.4-0.1-0.7l0.1-0.5c0.1-0.1,0.1-0.1,0.1-0.1l0.3-0.2c0,0,0,0,0,0.1l0.2,0.5c0.1,0.2,0.1,0.3,0.2,0.5
		c0.1,0.3,0.2,0.7,0.3,1c0.2,0.5,0.6,1.7,0.6,2.1c-0.2,0.2-0.3,0.2-0.5,0.3l0.2,0.7l2.3-0.8l-0.3-0.8l-0.3,0.1l-0.3,0
		c-0.5-1.2-1.1-2.9-1.4-4.2c0.5-0.2,0.7-0.1,0.9,0.2c0.1,0.1,0.2,0.1,0.4,0.8l0.5-0.1l-0.7-2.2l-3.8,1.3l0.7,2.2L136.2,22.6
		L136.2,22.6z M124.5,117.6l0.3,0.2c0.1-0.4,0.3-0.4,0.3-0.7c-0.3-0.1-0.9-0.6-1.2-0.9c-0.4-0.3-0.9-0.7-1.3-0.9
		c-0.2,0.2-0.3,0.4-0.5,0.6c0.1,0.2,0.3,0.3,0.4,0.5c0,0.1-2.2,3.4-2.6,3.6l-0.5-0.3c-0.2,0.2-0.4,0.4-0.5,0.7
		c0.2,0.1,2.4,1.6,2.5,1.8c0.3-0.2,0.4-0.4,0.5-0.6c-0.1-0.1,0,0-0.1-0.1c0,0-0.1-0.1-0.1-0.1c-0.1-0.1-0.1-0.1-0.2-0.2
		c0-0.5,0.3-0.8,0.5-1.1c0.4-0.5,1.6-2.3,2-2.6L124.5,117.6z M134.4,123l0.2,0.1c0,0.4-1,2.9-1.2,3.3c-0.1,0.4-0.2,0.6-0.4,0.9
		l-0.6-0.1l-0.3,0.7l0.3,0.2c0.7,0.1,1.9,0.8,2.8,1l0.3-0.7l-0.5-0.3c0-0.5,1.3-3.9,1.6-4.2l0.6,0.1c0.1-0.2,0.2-0.5,0.3-0.7
		c-0.3-0.3-1.8-0.7-2.3-1l-0.7-0.2l-0.2,0.7L134.4,123L134.4,123z M175.2,121.7l-1.7,0.7l0.3,0.8c0.3-0.1,0.3-0.2,0.7-0.1
		c0.2,0.1,1.8,3.6,1.7,4c-0.1,0.1-0.3,0.2-0.5,0.3l0.3,0.8l3-1.4l-0.3-0.7c-0.3,0.1-0.4,0.1-0.7,0.1c-0.3-0.4-1.6-3.3-1.7-3.6
		c-0.2-0.2-0.1-0.1-0.1-0.4c0.2-0.3,0.2-0.3,0.5-0.4l-0.3-0.8L175.2,121.7L175.2,121.7z M192.1,109.4l-1.5,1.6
		c-0.2,0.2-0.4,0.3-0.4,0.6l0.5,0.5c0.3-0.1,0.2-0.2,0.5-0.3c0.3-0.1,1.9,1.5,2.2,1.8c1.4,1.3,1.2,1.1,0.8,1.7
		c0.2,0.2,0.3,0.4,0.6,0.5c0.5-0.5,2-2,2.2-2.4l-0.6-0.5c-0.2,0.1-0.4,0.3-0.5,0.3c-0.2,0-2.3-2.1-2.4-2.1c-1.2-1-0.8-0.8-0.5-1.4
		l-0.5-0.5L192.1,109.4L192.1,109.4z M169.3,21.8c-0.1,0.2,0.1,0.1-0.2,0.2c-0.2,0.1-0.6,0-0.8-0.1l0.5-1.8c0.4,0.1,0.6,0.1,0.8,0.5
		c0.1,0.1,0.1,0.4,0,0.8C169.5,21.5,169.5,21.7,169.3,21.8L169.3,21.8z M167.5,19.7c0,0.1,0.2-0.1,0,0.6c0,0.2-0.1,0.3-0.2,0.5
		c-0.2,0.7-0.7,2.8-1,3.2l-0.5,0l-0.2,0.7l2.1,0.6l0.2-0.7l-0.4-0.2c0-0.4,0.3-1.4,0.4-1.8c0.5,0,0.8,0.2,1.3,0.3
		c0.7,0,0.7-0.3,1.1-0.5c0.1-0.3,1-2-0.2-2.7c-0.3-0.2-2.5-0.8-2.9-0.8l-0.2,0.7L167.5,19.7L167.5,19.7z M192.3,34.4
		c0,0.2-0.5,1-0.8,1.1c-0.1-0.2-0.3-0.4-0.5-0.5c0.2-0.2,0.6-0.5,0.8-0.5l0.3-0.3c0.1-0.1,0.1-0.1,0.2-0.2c0.2-0.1,0.2-0.2,0.4-0.3
		C192.6,34,192.5,34.2,192.3,34.4z M189.1,35.4c-0.2,0.3-0.4,0.2-0.7,0c-0.2,0.2-0.3,0.3-0.5,0.6l1.2,1l0.5-0.5
		c-0.1-0.1-0.1-0.1-0.2-0.4c0.2-0.3,0.2-0.3,0.5-0.4c0.2-0.2,0.3-0.2,0.5-0.3c0.2,0.3,0.5,0.5,0.7,0.8c-0.2,0.3-0.3,0.7-0.7,0.9
		c-0.3-0.1-0.1-0.1-0.5-0.2c-0.1,0.1-0.1,0.1-0.2,0.3c-0.2,0.2-0.1,0.1-0.2,0.3l1.6,1.5c0.3-0.2,0.4-0.3,0.5-0.5l-0.2-0.4
		c0.2-0.7,2.7-4,2.9-4.6c-0.3-0.3-0.6-0.7-0.9-0.9c-0.7,0.4-1.4,1-2.1,1.4c-0.4,0.2-0.7,0.5-1.1,0.7c-0.2,0.1-0.3,0.2-0.5,0.3
		C189.4,35.4,189.4,35.4,189.1,35.4L189.1,35.4z M171.8,21.7c-0.1,0.2-0.9,2.6-1,3c-0.4,1.3,0.3,2.3,1.6,2.3c1.7,0,1.9-2.6,2.7-4.4
		c0.2-0.4,0.2-0.3,0.6-0.3l0.2-0.8l-0.8-0.3l-0.8-0.3l-0.3,0.8c0.4,0.1,0.5,0.3,0.2,0.6c0,0.4-0.5,1.5-0.6,2
		c-0.3,0.8-0.3,1.2-0.9,1.7c-1.6,0.2-0.8-1.4-0.5-2.2l0.7-2c0.1-0.3,0.1-0.4,0.4-0.3l0.2,0l0.2-0.7c-0.2-0.2-1.8-0.7-2.1-0.7
		l-0.2,0.7l0.4,0.2L171.8,21.7L171.8,21.7z M112.7,35.2c0.1,0.3,1.2,1.5,1.6,1.6l0.4-0.4c-0.4-0.5-1.2-1.4,0.1-2l1.4,4.2
		c0.2,0.7,0.3,0.8,0.8,1.2c0.2-0.1,1-0.9,1.3-1.2c0.2-0.2,0.4-0.4,0.6-0.6c0.3-0.2,0.5-0.4,0.6-0.7c-0.4-0.2-1.3-1.3-1.6-1.7
		c-0.2,0.1-0.3,0.2-0.5,0.4c0.4,0.6,1.3,1.5,0,2.2c-0.3-1-1-3-1.4-4.2c-0.2-0.7-0.3-0.8-0.8-1.2c-0.2,0.1-1,0.9-1.3,1.1
		C113.9,34,112.7,35.2,112.7,35.2z M133.5,21.4c-0.5-0.2-1.9,0-2,1.3c-0.1,1,0.5,2.1,1.2,2.4c0.8,0.3,2.5-0.1,2.5,1
		c0,0.9-1.5,0.8-2-0.3c-0.2-0.1,0,0-0.3-0.1l-0.3,0.1l0.1,0.4l0.1,0.4c0.1,0.1,0.1,0,0.1,0.2l0.2,0.5c0.1,0.2,0.2,0.5,0.3,0.7
		c0.4-0.1,0.4-0.1,0.4-0.5c0.9,0.1,1.6,0.2,2.1-0.5c0.5-0.7,0.3-1.4,0-2.2c-0.3-0.4-0.3-0.7-0.9-1c-0.6-0.3-1.1-0.2-1.8-0.2
		c-1.6-0.1-0.2-2.4,0.9-0.8l0.2,0.2c0.1,0.1,0,0.1,0.1,0.2l0.5-0.2l-0.8-2l-0.4,0.1l0,0.4L133.5,21.4z M198.5,37.9
		c-0.2-0.1-0.1,0-0.2-0.1c-0.1-0.1-0.1-0.1-0.1-0.2l-0.4,0.1l-0.1-0.5c-0.7-2.5-3.6-0.8-3.8,0.7c-0.1,0.9,0.9,2.4-0.2,2.7
		c-0.5,0.1-0.8-0.4-0.8-0.9c0-0.6,0.4-0.9,0.5-1.3l-0.2-0.3c-0.2,0.1-1.5,1.2-1.7,1.5c0.3,0.5,0.2,0.2,0.7,0.3
		c0.2,3.3,4.4,1.6,3.8-1.1c-0.1-0.3-0.3-0.8-0.3-1.1c0-0.9,1.5-0.8,1.4,0.3c0,0.4-0.4,0.7-0.5,1c0.1,0.1,0.3,0.3,0.4,0.4
		c0.3-0.2,0.5-0.4,0.8-0.7C197.9,38.5,198.4,38.1,198.5,37.9L198.5,37.9z M162.9,22.7c-0.1-0.1-0.1-0.5-0.1-0.7l-0.5-0.1l-0.1,0.4
		l-0.3,1.8l0.5,0.1l0.2-0.3c2.4,2.3,4.5-1.5,2.4-3.1c-0.3-0.2-0.8-0.4-1-0.7c-0.7-0.9,1.3-1.6,1.3-0.3c0.2,0.1,0.1,0.5,0.1,0.7
		l0.6,0.1c0.1-0.5,0.4-1.5,0.3-2l-0.4-0.1c-0.1,0.1-0.1,0-0.1,0.1c0,0-0.1,0.1-0.1,0.1l-0.4-0.4c-0.4-0.1-0.6-0.4-1.3-0.3
		c-1.2,0.2-1.8,2.3-1.1,3.3c0.3,0.5,1.6,1,1.6,1.7C164.5,24.1,163,24,162.9,22.7z M159.5,21.1c0.3,0.1,0.2,0.7,0.2,1l0.4,0l0.2-2.2
		l0-0.6l-0.4,0c-0.1,0.7-0.1,1-0.8,0.9l0.1-1.8c1.4-0.1,1.6,0.3,1.7,1.6l0.5,0l0.1-0.7c-0.1-0.5,0.1-1.1,0-1.6l-2.4-0.2l-1.5-0.1
		l0,0.7l0.4,0.1c0.1,0.5-0.2,4-0.3,4.4c-0.2,0.1-0.1,0.1-0.5,0.1l0,0.8l4,0.3l0.2-2.5l-0.5,0c-0.2,1.7-0.3,1.6-1.9,1.5l0.1-1.6
		c0,0,0-0.2,0-0.3c0-0.1,0.1-0.1,0.1-0.2L159.5,21.1L159.5,21.1z M124.9,30c-0.1,0-0.1-0.1-0.2-0.1c-0.2,0.1-0.2,0.1-0.4,0.2
		c0.1,0.3,0.1,0.2,0.2,0.5c0.2,0.3,0.4,0.6,0.3,1.2l-1,0.8c-0.2-0.2-1.1-1.4-1.2-1.7c0.7-0.5,0.7,0.1,1.2,0.4
		c0.2-0.1,0.1-0.1,0.2-0.2c-0.2-0.6-1.3-1.7-1.5-2.3l-0.4,0.2c0.2,0.6,0.7,0.8,0,1.2c-0.2-0.1-1-1.3-1.1-1.5
		c0.6-0.3,1.2-1.2,2.2,0.2c0.2-0.1,0.3-0.1,0.5-0.3c-0.2-0.4-1-1.5-1.3-1.8c-0.2,0.1,0,0-0.2,0.1l-2.2,1.6c-0.3,0.2-0.6,0.4-0.8,0.6
		c0.1,0.1,0.1,0.1,0.2,0.2c0.1,0.1,0,0,0.1,0.1c0.1,0.1,0.1,0.1,0.2,0.2l0.4-0.1c0.4,0.3,2.6,3.4,2.6,3.7l-0.2,0.2c0,0,0,0,0,0
		c0,0,0,0,0,0l0.4,0.6l3.3-2.3C126,31.5,125.1,30.4,124.9,30L124.9,30z M148.4,23.6l0.3,0.3c0.3,0,0.9-0.1,1.2-0.2
		c-0.1-0.4-0.2-0.9-0.1-1.3c-0.1-0.1-0.3-1.7-0.3-1.8c-0.1-0.6-0.2-1.5-0.2-2.1l0.4-0.1l-0.1-0.8l-1.6,0.2l0,0.8l0.5,0
		c0.1,0.3,0.5,3.1,0.5,3.5c0-0.1-1.8-3.9-2-4.2l-1.8,0.2l0.1,0.7c0,0,0.1,0,0.1,0c0,0,0,0,0.1,0c0,0,0,0,0.1,0
		c0.3,0.1,0.3-0.1,0.4,0.7c0.1,0.9,0.4,3.2,0.4,3.8l-0.4,0.2l0.1,0.7l1.6-0.1l0-0.7c-0.2-0.2-0.2-0.1-0.5-0.2
		c-0.2-0.5-0.5-3-0.5-3.6l0.1,0.2c0,0,0,0,0,0.1l0.8,1.8C147.6,21.9,148.4,23.3,148.4,23.6z M129.4,120.7c0.9,0.2,0.2,1-0.5,2.3
		c-1.1,2.3-0.8,2-1.7,1.7l-0.3,0.7l4.6,2.3l0.9-1.8l0.2-0.5l-0.7-0.3c-0.1,0.3-0.1,0.1-0.1,0.2l-0.3,0.4c-0.6,0.8-1.3,0.6-2,0.1
		c0.3-0.6,1.7-3.8,2.1-4l0.6,0.2l0.3-0.7l-2.9-1.4C129.5,120.2,129.3,120.4,129.4,120.7L129.4,120.7z M120.6,34.2
		c0.6,0.4,0.1,0.9-0.3,1.1l-0.3-0.5c-0.2-0.1-0.8-0.9-0.9-1.1C119.8,32.9,120.6,33.9,120.6,34.2z M117.5,31.8
		c0.2-0.2,0.3-0.4,0.7-0.3c0.3,0.1,1.4,1.2,0.4,1.6C118.3,32.8,117.6,32.1,117.5,31.8L117.5,31.8z M120.9,32.7
		c-0.6-0.2-0.6-0.1-1.2,0c0.1-0.7,0.2-1-0.4-1.7l-0.3-0.4c-0.4-0.1-0.8-0.6-1.9,0.4c-0.4,0.4-1.3,1.1-1.5,1.4
		c0.2,0.2,0.3,0.3,0.4,0.5l0.5-0.2c0.3,0.2,2.9,3.2,2.9,3.3c-0.1,0.3-0.1,0.2-0.2,0.4l0.4,0.4c0.2,0.2,0,0.1,0.2,0.1l1-0.9
		c0.3-0.3,0.7-0.6,1-1c0.6-0.7,0.2-1.5-0.4-2.1L120.9,32.7L120.9,32.7z M176.2,27.1l0.3-0.8l0.3-0.7c0.1,0,0.2,0.1,0.2,0.1
		c0.2,0.1,0.1,0.1,0.2,0.2l0,0c0,0,0.2,0,0.2,0.3c0,0.3-0.4,2-1.5,1.2c0-0.1,0,0,0.1-0.2C176.1,27.1,176.1,27.2,176.2,27.1
		L176.2,27.1z M177.8,23.3c0.6,0.2,0.8,0.4,0.5,1.1c-0.3,0.7-0.5,0.7-1.2,0.5L177.8,23.3z M176.3,22.5l0.3,0.3
		c0,0.3-1.5,3.8-1.9,4.1l-0.4-0.1l-0.3,0.8c0.9,0.2,2.4,1.3,3.3,1.1c0.5-0.1,0.8-0.7,1-1.2c0.3-1,0-1.2-0.3-1.7
		c1.5-0.2,1.8-1.8,1.3-2.4c-0.2-0.3-2.2-1.3-2.8-1.4L176.3,22.5L176.3,22.5z M125.2,118.6l-1.8,3c0,0,0,0,0,0l-0.1,0.1
		c-0.1,0.3-0.1,0.2-0.3,0.3l-0.7-0.2l-0.3,0.6c0.1,0.2,0.1,0.1,0.2,0.2c0.1,0,0.1,0.1,0.1,0.1c0.1,0.1,0.1,0.1,0.1,0.1
		c0.3,0.1,3.2,2.1,3.8,2.3c0.2-0.2,1.2-1.8,1.4-2.1l-0.6-0.4c-0.1,0.1,0,0-0.2,0.1c-0.1,0.1,0,0-0.1,0.1c-0.9,1.3-1.4,0.6-2.3,0.2
		l2.1-3.2l0.3-0.5c0.3,0,0.5,0.1,0.7,0.2l0.4-0.6c-0.2-0.3-0.4-0.3-0.7-0.5l-0.2-0.2l-1.6-1l-0.5,0.2c-0.1,0.2-0.1,0.2-0.2,0.4
		c0.1,0.1,0.3,0.2,0.4,0.3C125.5,118.5,125.2,118.6,125.2,118.6L125.2,118.6z M142,19.4c0.8-0.4,1.2,1.2,1.4,1.9
		c0.2,0.7,0.6,2.4-0.1,2.7c-1.1,0.5-1.8-3.4-1.6-4.1C141.8,19.6,141.8,19.6,142,19.4L142,19.4z M141.8,18.6
		c-2.8,0.7-1.3,7.2,1.7,6.4C146.3,24.2,144.9,17.7,141.8,18.6z M109.9,40.7c-0.2-0.3-0.6-1,0-1.2c0.7-0.3,2,1,2.4,1.3
		c0.3,0.2,0.7,0.6,0.9,0.9c0.5,0.5,0.4,0.8,0.1,1.2c-0.9,0.1-1.9-0.7-2.5-1.3C110.4,41.3,110.2,41.2,109.9,40.7z M110.1,38.5
		c-1.5,0.3-2.1,1.9-0.9,3.5c0.5,0.7,2.2,2.2,3.8,1.9c1.4-0.3,2.1-2,0.8-3.6C113.2,39.7,111.6,38.2,110.1,38.5z M155,18.3L155,18.3
		c0.4,0.2,0.5,0.7,0.3,1.2c-0.1,0.4-0.5,0.4-1,0.4l0.1-1.7C154.6,18.2,154.9,18.1,155,18.3z M155.1,20.9L155.1,20.9
		c0.2,0.4,0.1,1,0.1,1.4c0,0.6,0,0.8,0.2,1.2c0.1,0.1,0,0,0.1,0.1c1.4,0.6,1.6-0.4,1.6-1.6c-0.4,0-0.3,0-0.3,0.4
		c0,0.3,0,0.4-0.2,0.4c-0.2-0.2-0.1-0.3-0.1-0.7c0-1.4,0.1-1.5-0.7-1.8l0.5-0.2l0.3-0.5c0.1-0.2,0.1-0.5,0.1-0.8
		c0-0.8-0.3-1-0.5-1.3c-0.9-0.3-2.3-0.2-3.4-0.2l0,0.7c0.2,0.1,0.2,0,0.4,0.2c0.1,0.6,0,4-0.2,4.4l-0.4,0l0,0.8l2.2,0.1l0-0.7
		c-0.7-0.3-0.5,0.3-0.5-2.1C154.8,20.7,154.9,20.7,155.1,20.9L155.1,20.9z M126.6,24.5l-0.8,0.5l0.1,0.3l0.2,0.3
		c0.3-0.1,0.3-0.2,0.6-0.1c0.2,0.3-0.1,2-0.2,2.5l-1-1.7c0.1-0.3,0.1-0.1,0.2-0.4l-0.4-0.6c-0.6,0.3-1.2,0.7-1.8,1l0.4,0.7l0.4-0.1
		c0.2,0.2,2.2,3.4,2.2,3.9l-0.3,0.3c0.1,0.3,0.2,0.5,0.5,0.7l1-0.6c0.3-0.2,0.2-0.1,0.4-0.2l0.3-0.3l-0.3-0.6l-0.5,0l-0.1-0.2
		c-0.4-0.4-0.3-0.7-0.2-1.5c0.2,0,0.6,0.4,0.8,0.5c0.3,0.2,0.5,0.3,0.7,0.7c-0.1,0.1-0.1,0.2-0.3,0.3l0.4,0.7l1.8-1
		c0.1-0.1-0.1-0.1,0.2-0.1l-0.4-0.7c-0.1,0-0.5,0.2-0.6,0c0,0,0,0-0.1,0c-0.2-0.1-2.1-1.5-2.3-1.8c0-0.4,0-0.8,0.1-1.2
		c0.1-0.5,0-0.6,0.4-0.9c-0.1-0.3-0.2-0.5-0.4-0.7L126.6,24.5L126.6,24.5z M138.4,128.6c-0.1,0.6-0.3,0.6-0.9,0.4
		c-0.1,0.3-0.2,0.5-0.2,0.8c0.6,0,2.3,0.7,3.1,0.8l0.2-0.8c-0.7-0.2-0.7-0.2-0.5-1c0.2-0.7,0.1-0.7,0.5-1.2l1.5-1.5
		c0.2-0.1,0.1-0.1,0.2-0.1c0,0,0.1-0.2,0.4-0.3c0.2,0,0.3,0,0.5,0l0.2-0.7c-0.2-0.2-1.9-0.6-2.3-0.7l-0.2,0.8c0.2,0,0,0,0.2,0.1
		l0.1,0.1l0.1,0c0,0.4-0.3,0.7-0.5,0.8l-0.6,0.7c-0.1-0.3-0.2-0.8-0.2-1.1c0,0,0,0-0.1-0.2c-0.1-0.3,0-0.4,0-0.5l0.6,0l0.2-0.7
		c-0.3-0.2-0.6-0.2-0.9-0.3c-0.3-0.1-0.1,0-0.2-0.1c-0.5,0-1.4-0.4-2-0.5l-0.2,0.7c0.2,0.2,0.3,0.1,0.4,0.3c0.3,0.3,0.4,1.3,0.5,1.8
		C138.7,127.5,138.9,127.5,138.4,128.6L138.4,128.6z M187,28.4c0.3,0.4,0.4,0.3-0.4,1.3c-0.3,0.3-0.4,0.5-0.7,0.9
		c-0.2,0.3-1.2,1.7-1.4,1.7c-0.3,0-0.2-0.1-0.5-0.2c-0.2,0.3-0.3,0.3-0.4,0.7c0.3,0.2,0.5,0.3,0.8,0.6l0.9,0.6
		c0.2-0.2,0.3-0.4,0.5-0.5l-0.2-0.4c0.1-0.2,0.4-0.7,0.5-0.8c0.2-0.2,0.7-0.2,1-0.3c-0.1,0.4-0.4,1.5-0.6,1.8l-0.5-0.2
		c-0.1,0.3-0.3,0.4-0.4,0.6l1.7,1.4c0.3-0.1,0.4-0.3,0.5-0.6c-0.4-0.5-0.3-0.5,0-1.6c0.5-1.8,0.3-1.8,1-2c0.2-0.1,0.3-0.1,0.5-0.2
		c0.7-0.2,0.6-0.2,1.2,0c0.1-0.3,0.3-0.3,0.4-0.7c-0.2-0.1-1.4-1-1.5-1.2c-0.3,0.2-0.4,0.3-0.5,0.6c0.2,0.2,0.2,0.1,0.3,0.4
		c-0.2,0.4-1.9,0.7-2.4,0.8l1.1-1.4c0.2-0.2,0.2-0.3,0.6-0.2c0.1-0.2,0.3-0.4,0.4-0.6c-0.2-0.2-1.3-1.1-1.6-1.3
		C187.3,28,187.2,28.1,187,28.4L187,28.4z M183.4,123.5c-0.3-0.2-0.4-0.6-0.6-0.9c-0.3-0.5-0.2-0.6-0.2-1.3c0-0.5,0-1.1,0-1.6
		c0-1.1,0.3-0.9,0.4-1.1c0,0,0,0,0-0.1l-0.4-0.6l-2,1.1c0.1,0.4,0.2,0.4,0.3,0.7c0.2-0.1,0.3-0.2,0.6-0.1c0.3,0.4,0.2,1.2,0.2,1.8
		c-0.3-0.1-0.6-0.3-0.8-0.5c-1-0.6-0.7-0.5-0.3-1l-0.4-0.7l-2.7,1.6l0.4,0.6c0.9-0.3,1.4,0.4,2.5,1c0.6,0.4,0.8,0.4,1,0.8
		c0.8,1.4,0.7,1.1,0.1,1.6c0.1,0.3,0.2,0.5,0.4,0.7l2.8-1.6c-0.1-0.3-0.2-0.5-0.4-0.7L183.4,123.5L183.4,123.5z M152.3,128.6
		l0.9,3.7l1.8,0.1c0.2-0.3,0.7-2.1,0.9-2.6c0.2-0.6,0.6-2.2,0.9-2.5c0.1-0.2,0.2-0.2,0.6-0.2l0-0.8c-0.6,0-2-0.1-2.5,0l0,0.8
		c0.7,0.1,0.8,0.1,0.5,0.7l-0.7,2.1c-0.1,0.2-0.1,0.3-0.2,0.5c0,0.1-0.1,0.2-0.1,0.3c-0.1,0.2-0.1,0.1-0.1,0.2l-0.4-1.9
		c-0.1-0.3-0.3-0.9-0.3-1.3c-0.2-0.2-0.1-0.4-0.1-0.6c0.2-0.1,0.4-0.1,0.7-0.1l0-0.8l-3.2-0.1l0,0.7
		C151.7,127,152,126.7,152.3,128.6L152.3,128.6z M158.7,127.2l0.7,2l-1.1,0.1L158.7,127.2z M157.2,129.7c0.1,0.5-0.3,1.3-0.4,1.7
		l-0.2,0l-0.3,0.2l0.1,0.7l2.4-0.2l-0.1-0.8l-0.6-0.1c-0.1-0.6,0-0.4,0.1-0.5c0-0.3,0-0.4,0.1-0.7l1.6-0.1c0.1,0.3,0.2,0.6,0.3,0.8
		c0.1,0.4-0.3,0.4-0.7,0.4l0,0.7c0.5,0.1,2.6-0.2,3.3-0.2l-0.1-0.8l-0.7-0.1l-0.1-0.3c-0.1-0.1-0.7-1.7-0.7-2
		c-0.3-0.3-0.4-1-0.6-1.4c-0.2-0.4-0.4-1.1-0.5-1.5c-0.5,0-1.6,0-1.9,0.2c-0.1,0.1-0.6,2.3-0.7,2.8l-0.2,0.8
		C157.2,129.7,157.2,129.7,157.2,129.7L157.2,129.7z M185,120l-0.7-1.9l1.6,1.3L185,120L185,120z M190,120.1c0-0.1,0.1-0.1,0.1-0.2
		c-0.1-0.2-0.1-0.2-0.2-0.4c-0.2-0.2-0.1-0.3-0.3-0.2c-0.5,0.5-1.6-0.6-2.5-1.3c-0.4-0.3-0.7-0.6-1.1-0.9c-0.4-0.3-0.8-0.6-1.1-0.9
		c-0.3,0.1-0.6,0.3-0.9,0.5c-0.3,0.2-0.6,0.4-0.8,0.6c0.3,1,0.6,1.9,1,2.9c0.5,1.4,1,2.3,0.4,2.8c0.1,0.3,0.3,0.5,0.5,0.7
		c0.2-0.1,1.7-1.1,1.9-1.4c-0.1-0.2-0.2-0.4-0.5-0.6c-0.2,0.1-0.3,0.2-0.6,0.2l-0.3-1c0.3-0.3,0.9-0.6,1.2-0.9
		c0.3,0.2,0.8,0.5,0.8,0.8c-0.2,0.3-0.3,0.2-0.4,0.5c0.1,0.2,0.2,0.4,0.5,0.6c0.4-0.3,0.8-0.6,1.3-0.9
		C189,120.8,189.7,120.2,190,120.1L190,120.1z M189.6,119.1l0.6,0.7c0.1-0.1,0,0.1,0.2-0.1l0.3-0.3l-0.1-0.5
		c2.1-0.5,3.3-2.1,2.4-3.7c-1.4-2.2-3.9,0.4-4.7,0c-0.3-0.2-0.5-0.9,0.5-1.4c0.7-0.4,1.1-0.1,1.7,0.2c0.3-0.2,0.2-0.2,0.6-0.5
		c-0.1-0.4-1-1.4-1.3-1.6c-0.3,0.1-0.3,0.2-0.5,0.4l0,0.4c-3.8,0.9-2.8,4.7-0.6,4.5c0.9-0.1,3-1.5,3.3-0.4c0.1,0.6-0.6,1.1-1,1.2
		c-0.7,0.2-1.2-0.2-1.7-0.4c-0.2,0.1-0.4,0.3-0.5,0.5C189,118.5,189.4,118.8,189.6,119.1L189.6,119.1z M150.4,130.1l0.1-0.2l0.6,0
		l0.1-0.8l-3-0.3l-0.1,0.7l0.3,0.2c0.2,0,0.1,0,0.2,0.1c0.1,0.8,0,2.1-1.1,1.5c-0.6-0.3-0.6-1.4-0.5-2.3c0.4-3.8,2.3-2.3,2.3-1.4
		c0.2,0,0.2,0.7,0.2,0.9l0.9,0.1c0-0.3,0.1-0.7,0.1-1l0.1-0.8c0.1-0.3,0-0.1,0.1-0.2l0-0.4l-0.8-0.1l-0.2,0.3
		c-0.4-0.2-0.6-0.5-1.5-0.6c-1.8-0.2-3,1-3.2,2.9c-0.3,2.8,1.5,4.4,4.1,3.3l0.2,0.4l0.9,0.1L150.4,130.1L150.4,130.1z M170.4,124.4
		c1.3-0.3,1.6-0.2,2.2,1.6c0.4,1.3,0.7,2.5-0.8,2.8L170.4,124.4L170.4,124.4z M169.7,129.5l-0.2,0.1c0,0.2,0.1,0.5,0.2,0.8
		c1-0.3,3-0.9,3.9-1.3c1.2-0.6,1.7-1.8,1.1-3.5c-0.4-1.3-1.2-2.4-2.9-2.3c-0.4,0-3.4,0.8-4,1.2l0.2,0.7l0.7-0.1
		c0.2,0.4,1.3,3.7,1.3,4.2C169.9,129.4,169.8,129.4,169.7,129.5L169.7,129.5z M164.5,127.1l-0.1-0.3c0-0.1,0-0.2-0.1-0.3
		c0-0.2-0.1-0.3-0.1-0.5c0.8-0.2,1.4-0.4,1.6,0.4c0.3,1-0.4,1.1-1.2,1.2C164.5,127.5,164.5,127.4,164.5,127.1z M164.8,125
		C164.7,125,164.7,125,164.8,125l-0.2,0.1c0,0-0.2,0-0.2,0l-1.1,0.3c-0.6,0.1-1,0.3-1.6,0.4l0.2,0.8l0.6,0c0.3,0.4,0.5,1.5,0.6,2.1
		l0.5,2.1c0,0.3,0,0.1-0.1,0.1c-0.1,0.1,0.1,0-0.2,0.2c-0.1,0-0.2,0-0.3,0.1l0.1,0.8c0.5-0.1,1-0.3,1.5-0.3c0.2-0.2,0.6-0.2,0.8-0.3
		c0.3-0.1,0.5-0.1,0.8-0.2c0-0.1,0.1,0,0-0.2c0,0,0-0.2,0-0.2c0-0.1-0.1-0.2-0.1-0.4c-0.9,0.1-0.6,0.1-0.6,0c-0.1,0-0.1,0-0.2-0.4
		l-0.3-1.4c0.5-0.1,0.7-0.2,1.2-0.1l0.1,0.2c0.4,0.5,0.2,1.6,0.9,2.1c0.4,0.2,0.9,0.1,1.3,0c0.5-0.2,0.6-0.4,0.8-0.8l0-0.7l-0.2-0.5
		l-0.4,0.1c0,0.3,0.2,0.6,0,0.8l-0.2,0.1c-0.2-0.4-0.3-0.9-0.5-1.4c-0.3-0.7-0.4-0.6-1.2-0.7c0.4-0.2,0.7-0.3,0.9-0.8
		c0.2-0.5,0.1-1.1-0.2-1.4C166.7,124.4,165.3,125.1,164.8,125L164.8,125z M115.5,110.4c-0.2,0.4-1,1.1-1.4,1.5
		c-1.7,1.9-1.4,1.5-2,1.1c-0.2,0.1-0.4,0.3-0.5,0.6c0.5,0.6,1.3,1.1,1.4,1.4c0.2,0.2,0.1,0.1,0.4,0.2l0.4-0.5
		c-0.2-0.3-0.5-0.4-0.1-0.8c0-0.1,0,0,0.1-0.1l0.2-0.2c0.2-0.2,0.8-1,1-1c0.5-0.8,1.2-1.3,1.5-1.7l-0.5,1L116,112
		c-0.1,0.1-0.1,0.2-0.1,0.2c-0.1,0.2-0.2,0.3-0.3,0.5l-1.6,3c0.1,0.2,0.6,0.6,0.8,0.9c0.1,0,4-2.2,4-2.5l0.7-0.4
		c-0.1,0.1-1,1.2-1.2,1.3l-0.2,0.2c-0.1,0.1-0.1,0.1-0.2,0.2c-1.7,1.9-1.2,1.4-2,1.1l-0.4,0.6c0.5,0.6,1.5,1.4,1.6,1.6
		c0.3,0.2,0.3,0.3,0.6,0.4l0.5-0.5c-0.1-0.3-0.1-0.2-0.3-0.4c-0.2-0.3,0.4-0.7,0.6-0.9l1.6-1.7c0.9-1,0.8-0.8,1.4-0.4
		c0.3-0.2,0.4-0.3,0.5-0.6c-0.6-0.4-1.7-1.8-2.3-2.1c-0.5,0.3-2.4,1.6-2.7,1.6l-0.6,0.4c0.1-0.3,0.3-0.7,0.6-0.9
		c0-0.4,0.5-1,0.7-1.3c0.2-0.4,0.6-0.9,0.7-1.3c-0.2-0.2-1-0.8-1.1-1.1l-1.1-1l-0.5,0.6c0.1,0.1,0.4,0.3,0.3,0.6
		C115.6,110.5,115.6,110.3,115.5,110.4L115.5,110.4z M202.5,76.5c-0.2,9.2-3.8,19.7-9.3,26.9l-3,3.7c-0.2,0.2-0.2,0.2-0.4,0.4
		l-4.6,4.4c-0.3,0.2-0.5,0.5-0.9,0.7c-3.6,2.7-6.9,5-11.4,6.7c-6.5,2.6-12.6,3.9-20.4,3.7c-10-0.3-20.2-4.1-27.6-9.9l-5.6-5
		l-2.8-3.2c-1-1.4-1.5-1.9-2.5-3.5c-5.4-8.3-8.2-17.8-7.9-28.2c0.2-5.1,1.2-10.4,3-15c1.7-4.5,3.5-7.9,6.3-11.8
		c0.8-1.1,1.3-1.7,2-2.5c0.1-0.2,0.2-0.2,0.4-0.4c0.2-0.2,0.1-0.2,0.4-0.4c0.3-0.3,0.2-0.3,0.7-0.8c0.2-0.2,0.5-0.6,0.7-0.8
		c0.5-0.5,1-1,1.5-1.5c0.3-0.3,0.5-0.4,0.8-0.7l2.8-2.4c0.2-0.2,0.3-0.2,0.4-0.3c8.5-6.6,19.6-10.2,30.8-9.8
		c8.1,0.3,14.9,2.4,21.3,5.8c2.5,1.3,5.1,3,7.2,4.8l3.2,2.8c1.3,1.2,1.9,2,3,3.1l2,2.5c2.4,3.1,4.5,6.7,6.1,10.5
		C201.3,62.2,202.7,69.3,202.5,76.5L202.5,76.5z M151.6,25c-11,0.6-20.1,4.5-28.2,10.7c-1.3,1-3.8,3.3-4.9,4.4
		c-4.6,4.9-7.8,9.5-10.4,16.1c-2.6,6.4-3.9,13.8-3.5,21.4c0.6,10.1,4.3,19.8,10,27.3l1.4,1.7c0.1,0.2,0.2,0.2,0.4,0.4
		c0.2,0.2,0.1,0.2,0.4,0.4l0.8,0.9c0.1,0.2,0.2,0.3,0.4,0.4l2.3,2.3c0.2,0.2,0.2,0.2,0.4,0.4c0.2,0.1,0.3,0.2,0.4,0.3
		c0.2,0.1,0.2,0.2,0.4,0.4l1.7,1.4c1.5,1.2,2.9,2.3,4.5,3.3l4,2.3c1.4,0.7,2.8,1.4,4.3,2c14.9,5.9,31.5,4.4,45-4
		c1.7-1,3.5-2.3,5-3.6l3.7-3.3c0.6-0.5,0.9-1,1.6-1.6c0.3-0.3,0.4-0.5,0.7-0.8c0.2-0.1,0.2-0.3,0.4-0.4c2.4-2.5,5-6.7,6.6-9.7
		c0.7-1.4,1.4-2.8,2-4.3c5.3-13.1,4.6-28.5-1.7-41c-1.5-2.9-3.1-5.4-4.8-7.7c-0.2-0.3-0.5-0.6-0.7-0.9c-0.2-0.2-0.2-0.3-0.3-0.4
		c-0.2-0.2-0.2-0.3-0.3-0.4c-0.2-0.2-0.2-0.3-0.4-0.4l-1.5-1.7c-1.1-1.3-1.6-1.6-2.7-2.7l-3.3-2.8C175.7,28.1,163.7,24.4,151.6,25z
		 M152,15.9c11.5-0.4,22.9,2.5,32.3,8.1l3.4,2.2c1.7,1.2,2.9,2.1,4.4,3.4c0.1,0.1,0.2,0.1,0.3,0.2l6,5.9c0.2,0.2,0.3,0.3,0.4,0.5
		l2.9,3.6l3,4.4c5,7.9,8.1,18.1,8.5,28.3c0.4,9.3-1.4,17.3-4.4,25c-1.4,3.6-3.3,6.8-5.1,9.7c-0.7,1.1-3.4,4.9-4.3,5.8
		c-0.2,0.2-0.2,0.3-0.4,0.5l-1.7,1.9c-1.2,1.3-2.2,2.1-2.8,2.8c-0.6,0.6-1.3,1.2-2,1.7c-0.4,0.3-0.6,0.5-1,0.9
		c-0.3,0.3-0.7,0.5-1,0.8c-9.7,7.3-20.7,11.8-33.7,12.3c-12.9,0.5-26.5-3.4-36.9-11.1c-1.6-1.2-3.1-2.4-4.6-3.7
		c-1-0.8-3.9-3.7-4.6-4.6l-2.1-2.5c-0.3-0.3-0.5-0.7-0.8-1c-2.4-3.1-4.5-6.3-6.4-10.2c-3.3-6.9-5.6-14.7-5.9-23.5
		c-0.3-8.9,1.3-17.7,4.5-25c1.6-3.6,3.2-6.7,5.1-9.7c2-3,2.9-4,4.8-6.3l4.1-4.2c0.9-0.9,1.7-1.5,2.4-2.2c0.2-0.1,0.3-0.2,0.5-0.4
		c3.1-2.7,8-5.7,11.7-7.6C135.1,18.5,143.5,16.3,152,15.9L152,15.9z M94,73v3.9c0.1,0.3,0.2,2.8,0.2,3.5c0.9,10.6,4.9,21.3,11,29.7
		l2,2.6c0.1,0.2,0.3,0.3,0.4,0.5l1.3,1.5c0.2,0.2,0.2,0.3,0.4,0.5c0.2,0.2,0.3,0.3,0.4,0.5l2.3,2.4c3.7,3.6,8.3,7.1,12.7,9.5
		c3.6,2,6.2,3.2,10.3,4.6c1.9,0.6,3.8,1.2,5.8,1.6c12.8,3,26.4,1.5,37.9-3.6c5.6-2.5,10.3-5.4,14.8-9.3c1.6-1.4,4.5-4,5.7-5.5
		l2.1-2.5c0.1-0.2,0.3-0.3,0.4-0.5c2.7-3.6,5.1-7,7.2-11.4c2.6-5.6,4.3-10.8,5.2-17c0.2-1.1,0.3-2.2,0.4-3.3
		c0.1-0.7,0.1-3.1,0.3-3.5v-4.3c-0.4-1.2,0.4-10.4-5.7-23.6c-1.8-4-3.1-5.8-5.4-9.3c-0.8-1.2-2.3-3.1-3.2-4.1l-0.9-1
		c-0.4-0.6-1.2-1.3-1.7-1.9c-1.1-1.2-2.7-2.7-4-3.8c-0.1-0.1-0.2-0.1-0.3-0.2c-0.2-0.1-0.3-0.2-0.5-0.4c-0.1-0.1-0.1-0.1-0.2-0.2
		c-2-1.7-6.3-4.6-8.4-5.8c-7.9-4.5-15.8-7.1-24.9-7.9c-0.6-0.1-3.1-0.1-3.4-0.2h-3.5c-0.3,0.1-2.9,0.2-3.5,0.2
		c-9.1,0.7-17.3,3.4-25.1,7.9c-4.6,2.6-8.9,6-12.4,9.5l-1.4,1.4c-0.5,0.5-2.6,2.8-3,3.4c-0.1,0.2-0.3,0.3-0.4,0.5
		c-1.6,1.9-3.6,5-4.8,7.1c-4.4,7.5-7.2,16.2-7.9,25C94.1,70.2,94.1,72.6,94,73L94,73z M146.3,109.3c0.2,0.1,0.3,0.3,0.4,0.6
		C146.3,109.8,146.3,109.7,146.3,109.3z M142,109.8c-0.2-0.2-0.4-0.4-0.2-0.8C142,109.2,142,109.4,142,109.8z M144.3,109.9
		c-0.2-0.2-0.4-0.6-0.3-0.8c0.3-0.1,0.3-0.1,0.4,0.2C144.3,109.6,144.3,109.8,144.3,109.9z M181.3,109c-0.1-0.9-0.3-0.8,0.1-1
		c0,0,0.1,0,0.1,0.2C181.5,108.3,181.4,108.8,181.3,109L181.3,109z M184.7,109c-0.3-0.4-0.1-0.3-0.3-0.9c0.5,0,0.8,0.3,0.9,0.8
		L184.7,109z M182.3,108.3c0.3-0.2,0.3-0.3,0.6-0.3l-0.1,1.1C182.3,108.9,182.4,108.6,182.3,108.3z M184.6,107.1
		c0.1-0.1,0.3-0.1,0.5-0.2c0.4-0.4,0.9-0.7,0.9,0.3c0,0.5,0.1,0.7,0.2,1.2c0,0.3,0.1,0.7-0.4,0.7c-0.5-0.5,0.1-0.7-1.2-1
		L184.6,107.1L184.6,107.1z M143.8,108.9c-0.1-0.7,0.2-1,0.6-1.4l0.5-0.4c0.5-0.3,1.1,0.1,1.2,0.3c0,0-0.2,1.9-0.6,2.3l-0.9,0
		c0-0.4,0-0.5-0.2-0.8L143.8,108.9L143.8,108.9z M140.9,109.6c-0.4-0.1-0.3-0.2-0.3-0.6c0-0.8,0.2-1.5,1-1.8
		c-0.1,0.4-0.4,0.6-0.5,1.1C140.9,109,141,109.4,140.9,109.6z M182.4,107.9c0-0.2,0.1-0.3,0.2-0.5c0.3-0.6,0.3-0.5,0.7-0.9l0.6,0.2
		c-0.2,1.6,0,1.1,0,2l-0.8,0.2l0-1.2C182.8,107.7,182.7,107.8,182.4,107.9L182.4,107.9z M181.3,107.7c0.1-0.4,0.5-0.8,0.7-0.9
		l-0.2,1.3C181.6,107.8,181.5,107.8,181.3,107.7z M141.8,108.8c0.2-0.9,0.6-2,1.8-1.9c0,0.2-0.3,0.9-0.3,1.2
		c-0.1,0.5-0.1,0.9-0.1,1.4c-0.3,0.1-0.3,0.1-0.5,0.2c-0.4,0.1-0.1,0.1-0.5,0.2C142.2,109,142.2,109.3,141.8,108.8L141.8,108.8z
		 M126.5,106.4c0.1,0.2,0.1,0.4,0.1,0.6l-0.4,0.1l0-0.6L126.5,106.4z M124.7,106.4c0.1,0.1,0,0,0.1,0.2l0.1,0.6
		C124.5,107.3,124,106.6,124.7,106.4z M121.9,107.4c-0.3-0.2-0.6-0.4-0.5-1C122,106.4,121.9,106.9,121.9,107.4z M119.9,107
		c-0.2-0.3-0.1-0.6-0.1-1c0.2,0.2,0.3,0.4,0.4,0.7L119.9,107C120,107,119.9,107,119.9,107z M124.3,106.4c0-0.4,0.2-0.9,0.4-1.2
		c0.4-0.5,0.7-0.3,1.2-0.1c0,0.4-0.1,0.3-0.2,0.7c-0.3,1,0,1.3-0.7,1.5l-0.2-0.9C124.6,106.2,124.6,106.3,124.3,106.4L124.3,106.4z
		 M153.6,105c-0.1,0.4-0.1,0.3-0.3,0.5C153.4,105.3,153.3,105.1,153.6,105z M121.5,106.2c0-0.6,0.4-1,0.8-1.3c0.6-0.4,0.7-0.4,1.5,0
		c-0.1,0.3-0.2,0.5-0.3,0.8c-0.2,0.6,0,1.5-1.4,1.7C122.1,106.1,121.9,106.4,121.5,106.2L121.5,106.2z M120.2,105.5
		c0.1-0.1,0.1-0.1,0.1-0.2c0.3-0.4,0.7-0.7,1.3-0.7c-1,1.8-0.1,2-1.1,2c-0.1-0.3-0.4-0.7-0.5-1L120.2,105.5L120.2,105.5z M153.6,105
		c0-0.3,0-0.2,0.3-0.3c0.3-0.1,0.3-0.1,0.6-0.1l-0.3,0.2C153.5,105,154.1,104.9,153.6,105L153.6,105z M154.3,105.3
		c0.3-0.1,0.4,0,0.7-0.2c0.7-0.4,0.3,0,1.1-0.5c0.2-0.1,0.3-0.2,0.5-0.3c0.3-0.2,0.6-0.4,1-0.6l1.4-1.1c0.2-0.3,0.2-0.1,0.4-0.3
		c0.5-0.5,1-1.2,1.4-1.9c0.2-0.3,0.3-0.7,0.5-1.1c0.3,0.1,0.2,0.1,0.4,0.2c0.6,0.6,0.2,1.1,0.2,1.4c0,0.4,0.2,0.5-0.2,1
		c-0.2,0.2-0.5,0.3-0.5,0.8c0.4,0.1,0.6-0.1,1-0.3l1.4-0.8c-0.2,0.3-0.6,0.5-1,0.8c-1.6,1.3-1.2,1.7-1.4,2c-0.1,0.1-0.5,0.5-0.8,0.5
		c-0.2,0-0.2-0.1-0.3-0.1c0-0.4,0.2-0.4,0.5-0.6c0.2-0.1,0.4-0.3,0.4-0.6c-0.8-0.2-1.7,0.5-2.1,1c-0.2,0.2-0.1,0.1-0.4,0.3
		c-0.2,0.1-0.2,0.2-0.3,0.3c-0.2,0.4-0.8,0.9-1.3,1.3c-0.2,0.2-0.1,0.2-0.4,0.3c-0.7,0.2-1.4,0.3-2.2,0.2c-0.3-0.4-0.2-0.2-0.2-0.7
		C154.1,105.7,154.1,105.7,154.3,105.3L154.3,105.3z M159.1,97.6c0.1,0.2,0.1,0.3,0.2,0.5c0.3,0.6,0.5,0.4,0.7,0.7c0,0,0,0.3-0.6,0
		c-0.5-0.3-0.6-1-0.7-1.5C159,97.4,159,97.4,159.1,97.6z M174.9,84.6c0-0.3,0.2-0.4,0.3-0.7c0.1-0.3,0.2-0.4,0.3-0.7
		c0.6-1.4,0.6-3.9,0-5.2c-0.1-0.2-0.3-0.5-0.4-0.7c-0.8-1.6-1.7-3.1-2.2-4.9l2.6,4.2c0.2,0.4,0.8,1.9,1,2.4c0.1,0.3,0.1,0.7,0.2,1
		c0.2,0.7,0.2,1.3,0.1,2.1c-0.1,0.5-0.2,0.9-0.4,1.3c-0.1,0.2-0.3,1.3-1.1,1.6L174.9,84.6L174.9,84.6z M152.2,66.7c0,0,0,0,0.1,0.1
		c0.1,0.2,0.1,0.3,0.1,0.5C152.3,67.1,152.1,66.9,152.2,66.7z M152.2,66.7c-0.2-0.1-0.1,0-0.1-0.1c-0.1-0.2,0-0.1,0.1-0.1
		L152.2,66.7L152.2,66.7z M173.9,65c-0.1-0.2,0.2-0.8,0.3-1c0.1-0.2,0.2-0.2,0.3-0.5c0.1-0.2,0.1-0.3,0.3-0.4
		C174.6,63.7,174.4,64.8,173.9,65z M143.2,88c-0.4,1.3-0.3,2.7-0.5,3c-0.4-0.2-0.1-0.1-0.4-0.5c-0.1-0.1-0.3-0.3-0.4-0.5
		c-1.1-1.6-1-1.5-0.8-3.8c-0.8,0.2-0.4,1.2-1,1.3c-0.5-0.8-0.4-1.9-0.3-2.7c-0.6,0.1-0.5,1.3-0.8,1.7c-0.3,0-0.3-0.2-0.5-0.5
		c-0.6-1-0.3-1.8-0.2-2.8c-0.7,0.1-0.2,0.6-0.9,0.7c-0.3-0.1-0.4-0.6-0.4-0.8c0-1,1.5,0.2-0.9-3.1c-0.4-0.6-0.9-1.3-1-2
		c0-0.3,0.1-0.5,0-0.8c-0.1,0-0.1,0-0.2-0.1c0,0,0,0-0.1,0c-0.2,0-0.2,0-0.3-0.1c-0.1-0.1-0.1-0.3-0.1-0.5c0-1.8,0.7-2.5,0.8-3
		c-0.6,0.1-0.4,0.8-0.9,0.8c-0.3-2.3,1.6-3.7,1.7-4.1l-0.6,0c0-0.3,0-0.5,0.2-0.7l0.5-0.7c0.6-0.6,0.6-0.5,1.3-0.7
		c0.1-0.4,0-0.5,0.3-0.8c0.4-0.4,1.1-0.4,0.8-1.2c-0.1-0.3-0.1-0.5-0.4-0.5c-0.3,0.4-0.1,1-0.6,0.9c-0.2-0.4,0.2-1.1,0.4-1.5L139,65
		c0.1-0.3-0.1-0.4-0.3-0.5c-0.8,0-0.7,0.5-1.3,0.7c-0.1,0.3-0.2,0.7-0.5,0.9c-0.2-0.4,0.1-0.6,0.2-1c0.4-0.7,1.3-1.2,2.2-1
		c0.3,0.1,0.2,0.1,0.4,0.2c-0.2,0.7-0.9,1.2-0.5,2.2c0.5,0,0.6-0.4,0.7-0.8c0.6-1.4,0.8-1.4,1.8-2.2c0,0,0,0,0,0c0,0,0,0,0,0
		c-0.1-0.1,0.2-0.1-0.2-0.1l-0.7,0.1c-0.1,0.3-0.1,0.1-0.4,0.3c-0.1,0-0.1,0.1-0.3,0.1c-0.5,0.1-0.2,0-0.3-0.1
		c0-0.4,1.2-1.1,1.5-1.2c0.6-0.4,4-1.3,4.4-1.3c0.5,0.1,2.5,1,3,1.3c0.6,0.3,1.1,0.9,1.5,1.4c0.5,0.6,0.4,1.5,0.6,2.2
		c0.2,0.4,0.3,0.4,0.4,1c0.2,0.8,0.4,1.3,0.4,2.3c-0.3,0-0.3,0-0.5-0.2c-0.3-0.5-0.4-0.9-0.6-1.4c-0.3-0.9-0.7-1.9-1.4-2.5l-1.5-1.2
		c-0.6-0.4-0.7-0.9-1.4-0.4c-0.3,0.1-0.4,0.1-0.6,0.2l-2.5,0.9c-0.4,0.1-0.6,0.3-0.9,0.4c-0.1,0-0.2,0.1-0.3,0.1
		c0.2,0.8,0.2,1.1-0.1,1.9c-0.4,1.2-1.7,3.2-0.5,4.3c0.8,0.8,0.6,0,0.7,1.8c0.4-0.1,0.4-0.6,0.4-1c0-0.3,0.1-0.9,0-1.3
		c-0.4-0.1-0.3,0-0.6-0.2c-0.4-0.3-0.6-1-0.3-1.4l0.1-0.1c0,0,0-0.1,0.1-0.1c0.4-0.7,0.6-1.4,0.9-2.2c0.8-2.5,1.3-1.4,2.4-2.2
		c2.2-1.4,4.6,1.4,5.1,3.4c0.3,1.1,0.4,2.9-1,3.3c0,0.5,0.1,0.9,0.1,1.3c0,0.4-0.1,1-0.1,1.2c0.3-0.1,0.3-0.2,0.5-0.5
		c0.6-0.7,0.2-1.7,0.7-2.2c0.3,0.3,0.3,1.5,0.2,2.2l-0.2,0.1c0.7,0.5-1.1,3-1.4,3.7c-0.3,0.8-1.5,2.8-1.5,3.8l2.1-3.5
		c0.3-0.6,0.7-1.2,0.9-1.9c0.1-0.4,0.4-1.9,0.6-2.1c0.3,0.8,0,2-0.2,2.8c-0.1,0.3-0.1,0.7-0.2,1c-0.1,0.2-0.1,0.1-0.1,0.2
		c-0.1,0.3-0.1,0.3-0.2,0.6c-0.1,0.4,0,0.4-0.3,0.4c-0.3,0-0.2,0-0.4,0.3c-0.4,0.6-0.6,1.5-1,2.1l-0.5,1.7c0.2-0.1,0.4-0.3,0.5-0.5
		c0.2-0.6,0.2-0.3,0.4-0.7c0.1-0.1,0.1-0.2,0.1-0.4l0.6-1c0.3-0.5,0.5-0.9,0.8-1.3l0.2-0.4c0.1-0.2,0.1-0.1,0.2-0.4
		c0.1-0.3,0.2-0.4,0.3-0.7c0.6-1.9,0.6-3.4,0.3-5.5c-0.1-0.5-0.3-1.2-0.2-1.8c0.4,0.2,0.5,0.9,0.7,1.2c0.5-0.2-0.1-0.4-0.1-1.7
		l1-0.2c0.4,1.1,0,2.8,0,4l0.3-0.3c0.3,0.3,0.5,1.8,0.4,2.4c0,0.8-0.2,1.6-0.5,2.3c-0.1,0.2-0.1,0.3-0.2,0.5l-1.2,2.2
		c-0.3,0.6-0.8,1.1-1.2,1.6c-0.2,0.3-0.5,0.5-0.6,0.7l-0.6,0.8c-0.3,0.4-0.5,0.5-0.8,0.8l-0.5,0.6c-0.4,0.5-1.5,1.9-1.9,2.2
		c0-0.8,0.3-0.6,0.2-1.1c-0.4-0.2-0.5,0.3-0.8,0.7c-0.2,0.4-0.4,0.7-0.6,1.1c-0.1,0.2-0.2,0.3-0.3,0.5c-0.3,0.5-0.3,1.4-0.7,1.9
		c-0.3-0.2-0.2-0.4-0.2-0.7c-0.1-0.4-0.1-0.4-0.1-0.9l0.1-1.7c0,0,0.1-0.1-0.2,0C143.3,87.5,143.3,87.8,143.2,88L143.2,88z
		 M143.6,61.1c-0.2,0.1-0.5,0.2-0.8,0.3c-0.2,0.1-0.2,0.1-0.4,0.1c-0.3,0.1,0,0.1-0.4,0.2c-0.4,0.2-2.8,1.4-3.2,1.7
		c-0.5,0.5-1.5,0.7-1.8,1.4c0,0.1-0.2,0.5-0.2,0.6c-0.1,0.3,0,0.3-0.2,0.6c-0.1,0.2-0.9,2.4-1.4,3.4c-0.4,0.7-0.2,0.6-0.3,1.3
		c-0.1,0.4-0.3,0.7-0.5,1.1c-0.2,0.4-0.3,1.5-0.4,2.1c0,0.2,0,0.5,0,0.7c0,0.5,0,1.1,0,1.6c0,1.4,0.4,1.4,0.6,2.7
		c-0.2,0.2-0.3,0.3-0.4,0.6c-0.1,0.3-0.1,0.5-0.1,0.8c0,0.2,0,0.6,0,0.8c-0.2,1.3-0.3,3.2,0.1,4.2c-0.3,0.3-0.6,2.1-0.7,2.6
		c-0.1,0.5-0.3,0.9-0.3,1.4c0,0.5-0.1,0.9-0.3,1.4c-0.4,1.5-0.7,2.3-1.6,3.5l-0.6,1c-0.5,0.6-0.8,1.5-1.4,2
		c-0.5,0.4-1.4,1.6-1.6,1.8c-0.4,0.3-0.5,0.6-0.8,0.9l-1.6,1.7c-0.3,0.3-0.4,0.6-0.7,0.9c-0.2,0.2-0.3,0.2-0.5,0.3
		c-0.3,0.2-0.2,0.3-0.4,0.4l-2.4,1c-1.5,0.4-1.2,0.6-1.8,1.5c-0.2,0.3-0.3,0.9-0.1,1.3c0.1,0.2,0.3,0.3,0.5,0.4c0,0,0.2,0.1,0.2,0.1
		c0.2,0,0.1,0,0.5,0c0.3,0,1.2,0.2,1.4,0.2c0.8,0.1,2.5,0,3.4,0c1.4,0,0.7-0.1,1.4-0.3c0.5-0.1,0.8-0.1,1.3-0.3
		c0.4-0.2,0.6-0.5,0.9-0.8c0.8-0.7,0.8-1.6,1.2-2.1c0.4-0.4,0.7-0.1,1.3-0.1c0.1-0.3-0.1-0.1,0.1-0.2c0.6,0,0.6,0,0.6-0.6
		c0-0.6,0.9-1.8,1.3-2.2c0.2-0.2,0.4-0.4,0.6-0.6c0.3-0.4,0.6-1.2,1.3-0.9c0.3,0.2,0.3,0.4,0.4,0.7l1.5,0c0.1-0.4,0-0.7,0-1l0.1-0.1
		c0,0,0,0,0,0c0.1-0.2,0-0.1,0-0.2c-0.1-0.7,0.5-0.9,0.8-1.4c0.2-0.4,0.6-0.7,0.9-1c0.2-0.3,0.2-0.3,0.6-0.3c0.6-0.1,1.1-0.1,1.7,0
		c0.2,0.3,0.2,0.2,0.5,0.4c0.6,0.3,1.3,0.4,1.9,0.6c0.9,0.3,2.1,0,2.8,0.6c0.9,0.7,0.7,0.8,0.3,1.7c-0.3,0.6-2.6,4.2-2.9,4.8
		c-0.1,0.4-0.4,0.7-0.6,1.1c-0.3,0.5-0.2,0.7-0.7,1c-1.3,0.8-0.8-0.2-2,1.4c-0.2,0.3-0.4,0.8-0.4,1.3c0,0.8,0.1,0.8,0.4,1.3
		c0.5,0,0.9-0.1,1.5-0.1c0.6,0,0.9,0.1,1.4,0.2c0.8,0,2.1-0.3,2.7-0.2c1.2,0.3,1.2-0.1,1.9-0.3l0.6-0.2c0.3-0.1,0.3,0,0.5-0.2
		c0.3-0.3,0.1-0.2,0.3-0.5l0.4-1.1c0.1-0.5,0.2-0.7,0.4-1.2c0.1-0.2,0.2-0.3,0.2-0.5c0.2-0.5,0.9-0.7,1.2-1.1
		c0.5-0.9,0.5-0.6,0.7-1.6c0.1-0.2,0.1-0.3,0.2-0.6c0.2-0.5,0.2-0.6,0.5-1c0.2-0.3,0.5-0.5,0.7-0.8c0.2-0.3,0.4-0.6,0.7-0.8
		c0-0.1,0-0.1,0.1-0.2c0.1-0.2,0.1-0.1,0.2-0.2l1.1-1.5c0.6-0.9,1.8-1.1,2.6-0.4c0.3,0.2,0.1,0.4,0.9,1c0.2,0.1,0.2,0.1,0.4,0.3
		c0.1,0.1,0.1,0.2,0.3,0.3c0.2,0.2,0.2,0,0.4,0.3c0.2,0.3-0.4,1-0.6,1.3c-0.5,0.8-0.4,0.5-1,1c-0.3,0.2-0.4,0.4-0.6,0.6
		c-1.6,1.4-1.1,0.9-2.4,1.4c-0.4,0.2-0.7,0.1-1.1,0.2l-0.2-0.1c-0.6,0-0.5,0.1-0.6,0.2c-0.2,0.2-1.2,0.8-0.9,2.1
		c0,0,0.1,0.2,0.1,0.3c0.1,0.2,0,0.1,0.2,0.2c0.2,0.1,1,0.2,1.3,0.3l0.2-0.1c0.3,0.1,0.9,0,1.4,0c0.9,0,1.4-0.2,2.1-0.6
		c0.3-0.2,0.8-0.6,0.9-0.9c0.5-0.9,1.4-0.1,2-0.5c1-0.6,0.1-0.8,1.6-2.1c0.2-0.1,0.3-0.3,0.5-0.4c0.5-0.3,0.1-0.2,0.4-0.5
		c0.2-0.2,1.6-0.8,2.3-1.4c0.4-0.3,0.8-0.4,1.2-0.7c0.7-0.5,0.8-0.7,1-0.8c0.1-1.8-0.2-1.7-0.2-2.2l0.3-0.2c0.6,0.3-0.2,0.1,1,0.6
		c1.4,0.6,0.5,0.6,2.3,1c1,0.2,1.6,0.4,2.8,0.1c0.4-0.1,0.9-0.1,1.4-0.2l2.4-0.7c0.6,0.1,1.7,1.4,2.1,1.9c0.1,0.2,0.2,0.2,0.4,0.4
		l0.5,1c0.2,0.8,0.7,1.4,1,2.1c0.3,0.9,0.2,0.9,0.2,1.3c0,0.6,0.2,0.9,0.2,1.3c-0.3,0.2-0.3,0.1-0.6,0.2c-0.2,0.5-0.5,0.7-0.7,1.3
		c-0.3,0.8-0.3,0.5-0.3,1.3c0,0.7,0.6,0.7,0.8,0.6c0.8-0.2,0.5,0.1,0.9,0.1c0.2,0,0.1-0.1,0.4-0.1c0.2,0,0.3,0.1,0.6,0.1
		c0.4,0,0.6-0.2,0.9-0.2c0.3,0.1,0.5,0.3,1,0.2c0.3-0.1,0.2-0.1,0.5-0.2c0.2,0,0.3,0,0.6,0c2.5-0.5,1.7-0.9,1.6-2.1
		c-0.1,0.2-0.1,0.2,0,0.5c-0.3,0.5-0.5,0.5-1.3,0.4c-0.2,0-0.2-0.8-0.1-0.9c0.3-0.4,0.4-0.2,0.6-0.6c-0.4-0.5-2.4-0.3-3.1-0.3
		c-0.5,0-1.1,0.2-1.2-0.5c0-0.2,0-0.2,0-0.4c0-0.3,0-0.5,0-0.7c0.3-0.1,0.2,0,0.4,0.3c0,0,0.2,0,0-0.4c-0.1-0.1-0.1-0.1-0.2-0.3
		l-2.5-4.4l0.5,0.3c0-0.3-0.1-0.3-0.3-0.5c-0.2-0.2-0.1-0.1-0.3-0.4c-0.1-0.2-0.2-0.2-0.4-0.4l-1.1-1c-0.4-0.3-0.3-0.2-0.7-0.7
		c-0.5,0-1.2,0.4-1.7,0.5c-0.6,0.2-1.1,0.4-1.8,0.4c-0.8,0.1-1.3,0.1-2.2,0c-0.4,0-0.5-0.1-0.8-0.2c-0.4,0-0.5-0.1-0.9-0.2
		c-0.8-0.3-1.5-0.6-2-1.2c-0.1-0.1-0.1-0.1-0.1-0.1c-1.4-1.3-1.1-2.6-1.2-4.2c-0.3,0-0.2,0-0.4,0.2c-1,1-0.3,1.9-0.3,3
		c-0.3,0-0.8-0.3-1.4-0.4c-0.6-0.1-0.8-0.2-1.6-0.1c-1.4,0.2-1.7,0.4-2.1,0.5c-0.5,0.1-2.4,1-3.2,1.2c-1,0.3-1.7,0.5-2.9,0.5
		c0-0.1,0-0.3,0-0.4c0-0.4,0.1,0.1,0.2-0.9c0.1-0.6,0.3-1.2,0.5-1.7c0.6-1.9,1.9-3.6,2-5.9c-0.2,0.1-0.2,0.1-0.3,0.3
		c0,0.1,0,0-0.1,0.1l-0.2,0.4c-0.2,0.4-0.3,0.5-0.5,0.8l-1.1,1.5c-1,1.5-0.9,2.2-1.4,3.8c-0.8,2.5-3.3,4.1-3.9,6.6
		c0.4-0.2,1.5-1.9,2-2.4l0.1-0.1c0,0,0.2-0.2,0.2-0.2c0.8-1.1,1.6-2.3,1.9-3.6c0.1-0.4,0.1-0.8,0.3-1.1c0.1,0.1,0,0,0.1,0.1
		c0.1,0.2,0,0.4,0,0.7c0,0.7-0.1,1.3-0.4,1.9c-0.1,0.2,0,0.1-0.1,0.3c-0.2,0.4-0.6,1.1-0.9,1.4c-0.2,0.2,0,0-0.2,0.2l-0.3,0.5
		c0,0-0.1,0.1-0.1,0.1l-0.7,0.9c-0.5,0.6-1.1,1.5-1.4,2.2c-0.2,0.4-0.3,0.9-0.4,1.3c-1.4,0-1.9,1.6-2.2,2.8
		c-0.4,1.4-0.5,1.4-1.5,2.2c-0.2,0.1-0.5,0.4-0.7,0.5c-0.2-0.5-0.3-0.5-0.6-0.8c0-0.6,0.2-0.9,0.6-1.2c0.5-0.4,0.9-0.3,1.2-0.5
		c-0.5-1-2.9-0.5-3.6-0.8c-0.4-0.1-0.9,0-1.2-0.2l2.9-5.2c0.3-0.6,0.7-1.1,0.9-1.7c0.2-0.6,0.6-1.2,0.8-1.9l0.2-0.5c0,0,0,0,0,0
		l1.1,0.5c0.3,0.2,0,0.1,0.3,0.3c0.1-0.4,0.1-0.9-0.1-1.2c-0.1-0.2-0.2-0.3-0.3-0.4c-0.3-0.5-0.6-0.9-0.4-1.5l0.4-0.7
		c0.2-0.4,0.4-0.2,0.8-0.1c0.4-0.4,0.2-0.8,0-1.2c-0.5-1.2-0.6-3-0.4-4.3c0.1-0.9,0.3-1.8,0.7-2.6c0.4-0.9,0.6-1,0.8-1.3
		c0.1-0.1,0-0.1,0.1-0.3c0.2-0.3,0.2-0.1,0.3-0.4c-0.4,0-0.7,0.6-0.9,0.8c-0.7-0.1-0.9,0.1-1.2,0.6c-0.5,0.9-1.4,3.6-1,4.5
		c0.2-0.1,0.3-0.1,0.4-0.4c0-0.1,0-0.2,0-0.3c0.1-0.4,0-0.2,0.2-0.2c0.3,0.6-0.1,4.1-0.3,4.6c-0.2,0.5,0,0.6-0.6,1.9
		c-0.2,0.5-0.8,1.2-1.1,1.4c-0.4,0.2-1-0.3-1.4-0.4c-0.2-0.1-0.2-0.1-0.3-0.2c-0.6,0.6-0.3,0.8-1.3,0.5c-0.3-0.1-0.5,0-0.8-0.2
		c-0.3-0.1-0.4-0.2-0.7-0.3c-0.3,0-0.2,0-0.4-0.1l-1-0.4c-0.3-0.1-1.1-0.5-1.2-0.7l-0.5-0.1c-0.2,0.2-0.2,0.3-0.4,0.6
		c-0.4,0.7-2,2.2-2.7,3.3c-0.2,0.3,0,0.5-0.4,0.6l-0.2-0.7c-0.4,0-0.5,0.2-0.8,0.3c-0.2,0.1-0.5,0.3-0.7,0.5
		c-0.8,0.7-1.2,1.4-1.7,2.2c-0.1,0.1,0,0-0.1,0.2c-0.3,0.6-0.6,1.7-1.4,1.6c-0.2-0.3-0.1-0.5-0.1-1c-0.4,0-0.4,0.2-0.6,0.5l-0.8,1.3
		c-0.3,0.5-0.5,0.8-0.7,1.3c-0.1,0.3-0.2,0.5-0.3,0.7c-0.2,0.4-0.9,0.7-1.4,0.6l-0.2-0.6c-0.3-0.1-0.2,0-0.5,0
		c0.1-1.5,0.8-1.2,2-1.4c0.1-0.5-0.2-0.5-0.7-0.6c-1.1-0.1-2.3-0.3-3.5-0.2c0.1-0.5,1.2-1.6,1.6-2c0.1-0.2,0.3-0.4,0.4-0.5l3.8-4.6
		c0.1-0.1,0.1-0.1,0.2-0.2c1.4-1.5,2.2-3.2,2.9-5.1c0.3-0.8,1-4,1.1-5.1c0.1-0.9,0-0.5,0.2-0.7c0.2,0.5,0.4,1.1,0.6,1.7
		c0.1,0.3,0.1,0.3,0.3,0.4c0-0.4-0.2-0.5-0.3-0.9c-0.2-0.9-0.6-1.9-0.7-2.9c-0.1-0.7-0.1-1.6,0-2.3c0.1-0.6,0.4-1.4,0.8-1.7
		c0.5,0.1,1,0.8,1.2,1.2c0.2,0.5,0.1,0.6,0.1,1c0,0.1,0.1,0.8,0.2,1c0.6,2.9,3.4,4.8,4.7,7.2c0.1,0.2,0.3,0.5,0.4,0.8
		c0.1,0.1,0.1,0.3,0.2,0.4c0.1,0.2,0.1,0.2,0.3,0.3l0.1-0.7c0.4,0,0.2,0,0.5,0.3c0.3,0.3,0.4,0.6,0.6,0.9c0.1,0.2,0.2,0.3,0.3,0.5
		l0.7,1.2c0.2,0.2,0.3,0.5,0.6,0.6c-0.1-0.5-0.3-0.8-0.4-1.4c-0.2-0.9-0.4-3.6,0.4-4.1c0,0.4-0.1,0.6-0.1,1c0,0.5-0.1,0.8,0.2,0.8
		l0.2-0.6c0.1-0.2,0.1-0.4,0.2-0.7c0.2-0.6,0.4-1.2,0.7-1.8c0.1-0.2,0.2-0.3,0.3-0.5c0.1-0.3,0.2-0.3,0.4-0.5
		c0.2-0.2,0.1-0.3,0.4-0.3c-0.1,0.4-0.2,1,0.4,1.1c0.5-1.6,0-0.9,1.1-2.7l0.3-0.5c0.2-0.3,0.4-0.6,0.6-0.9c0.5-0.5,0.9-1.2,1.3-1.7
		c0.2-0.3,0.4-0.6,0.6-0.9c0.3-0.4,0.4-0.7,0.6-0.8c0.1,0.1,0.1-0.1,0.1,0.2c0,0.2-0.1,0.5-0.2,0.6c-0.1,0.5-0.1,0.7,0.3,0.7
		l0.5-1.4c0-0.1,0-0.2,0-0.3c0.1-0.8,0.7-2.2,1.1-2.8c0.5,0,0.2,0,0.5,0.2c0.3,0.1,0.6,0.1,1.2,0.7c0.8,0.9,1.5,1.9,1.9,3.1l0.9,1.6
		c0.2-0.4-0.5-1.3-0.4-2c0.3,0,1.2,0.3,1.6,0.4c1.1,0.3,2.2,0.4,3.3,0.7c2.4,0.8,8.4,0.6,10.1,2.1c0.6,0.5,1.1,0.9,1.5,1.5l0.6,0.9
		c1,1.5,1.2,1.8,2,3.5l1.4,2.6c0.8,0.1,1.1,0.3,1.7,0.6c0.4,0.2,0.6,0.5,1,0.7c0.3,0.3,0.6,0.6,0.8,0.9c0.7,1.2,0.7,0.8,1.2,2.2
		c0.4,1.1,0.8,2.1,1.3,3.2c1,2.2,1.7,1.9,1.7,2.8c-0.7,0-0.6-0.7-1.2-0.7c-0.1,1,1.2,2.1,1.7,2.9c0.2,0.3,0.3,0.7,0.6,0.9
		c-0.2-1.1-0.5-2.3-0.8-3.4c-0.3-1.2-0.1-0.7-0.5-1.1l-1.6-3c-0.2-0.5-0.4-1-0.6-1.4c-0.2-0.5-0.4-1-0.7-1.4
		c-0.3-0.5-0.3-0.7-0.6-1.4c0-0.1-0.3-0.6-0.4-0.7l-1.8-1.2c-0.6-0.3-0.8-0.4-1.2-0.9c-0.2-0.2-0.3-0.3-0.4-0.6
		c-0.1-0.3-0.3-0.3-0.4-0.6l-0.8-1.3c-0.3-0.4-0.4-0.9-0.7-1.3c-0.4-0.7-0.4-0.4-0.8-1.3c-0.4-0.7-0.5-1-0.2-1.4l12.4,1.4l-11.6-2.6
		l0.6-2.8c0-0.2-0.1-0.4-0.1-0.7c1.8-0.3,3.7-0.7,5.5-1.1c0.6-0.1,5.1-0.9,5.3-1.2c-0.2-0.2-9.6,1.3-10.9,1.5
		c-0.1-0.2-0.2-0.7-0.3-1c-0.3-1-1.1-2.2-1.1-2.6c0.4-0.1,1-0.5,1.4-0.7l6.6-3.6c0.4-0.2,0.9-0.5,1.3-0.7c0.2-0.1,0.4-0.2,0.7-0.4
		c0.5-0.3,0.5-0.1,0.6-0.4c-0.2-0.1,0.2-0.1-0.2,0l-8,3.8c-0.7,0.3-2.1,0.9-2.7,1.3c-0.5-0.5-0.7-1.2-1.1-1.9
		c-0.2-0.3-0.4-0.6-0.5-0.9c-0.1-0.3-0.4-0.6-0.4-0.9c0.6-0.4,2.3-2.1,3-2.6c0.1-0.1,0.2-0.1,0.3-0.2l5-4.5c0.2-0.2,0.3-0.2,0.6-0.5
		c0.4-0.4,0.4-0.2,0.5-0.6c-0.3,0.1-0.5,0.3-0.7,0.5c-0.2,0.2-0.4,0.3-0.6,0.5l-4.8,3.8c-0.4,0.3-0.8,0.6-1.2,1l-1.8,1.4
		c-0.2,0.1-0.4,0.3-0.6,0.4c-0.2-0.5-0.3-1.8-0.2-2.6c0.2-1,0.1-0.5,0.4-1l1.1-1.8c0.5-1.3,0.4-2,0.5-3.2c0-0.2,0.1-0.3,0.1-0.5
		c-0.5,0-0.3,0.2-0.7,0.4c0.3-0.3,0.6-0.9,0.8-1.3c0.3-0.4,0.5-0.9,0.8-1.3c0.4-0.7,0.9-1.4,1.2-2l0.3-0.6l-0.2,0
		c-0.1,0.2-1.7,2.7-2,2.9c-0.1,0.3-0.4,0.7-0.6,0.9c-0.3,0.4-1.8,2.5-1.9,2.9l-0.1,0.2c-0.2,0.4-0.5,0.7-0.7,1.2
		c-0.2,0.4-0.4,1-0.5,1.3c-0.1,0.1,0,0-0.2,0.1l-2.8,4.5c-0.3,0.5-0.7,1.1-1,1.6c-0.3-0.1-0.2-0.2-0.4-0.4c0.1-0.2,0.4-0.7,0.6-0.9
		c0.2-0.3,0.4-0.6,0.6-0.9l3.4-5.1c0.2-0.5,0-0.2,0-0.3c-0.6,0.7-3.8,5.7-4.8,6.9c-0.1,0-1.5-0.9-1.6-1l1.3-4.9
		c0.1-0.4,1.1-4.6,1.3-4.8c-0.1-0.3,0.5-2.2,0.6-2.7c0.2-0.7,0.5-2.1,0.7-2.7l0.1-0.5c0-0.6,0.8-2.5,0.6-2.8c-0.2,0.1-0.1,0-0.3,0.7
		c-0.1,0.2-0.2,0.5-0.3,0.7c-0.2,0.5-0.3,1-0.5,1.5l-0.1,0.5l-1.9,5.7l-3,8.9l-1.9-0.4l0.1-7.8l0.1-4l0.1-4.2l0-1l0-1.8
		c0-0.5,0-0.4-0.1-0.5c-0.2,0.3-0.2,2.6-0.3,3.3l-0.3,4.5l-0.2,3.7l-0.4,7.8l-1.8,0.1c-0.5-2.6-1.4-5.5-2-8.1c-0.3-1.1-2-7.7-2-8.2
		c-0.2-0.4-0.4-1.6-0.5-1.8c-0.1-0.2,0-0.1-0.1-0.2c-0.2,0.3,0.2,1.6,0.3,2l3.3,16.6c-0.4,0.1-0.9,0.3-1.2,0.5
		c-0.2,0.1-0.4,0.2-0.6,0.3c-0.3,0.1-0.3,0.2-0.6,0.3l-2-4.4l-0.2-0.5c-0.2-0.3-1.2-2.5-1.4-3l-2.8-6c-0.2-0.3-1.1-2.7-1.4-2.9
		c0,0.1-0.1-0.1,0,0.3l1.3,3.3c1.4,3.5,3,7.1,4.3,10.6l0.2,0.6c0.2,0.3,1,2.3,1.1,2.7c-0.4,0.2-0.8,0.7-1.1,0.9
		c-0.1,0.2-0.1,0.1-0.2,0.3c-0.1-0.1-0.1,0.2-0.1-0.2c-0.2-0.3-0.2-0.5-0.3-0.9c-0.1-0.8-0.5-1.6-0.7-2.7c-0.1-0.7,0-1.2-0.1-1.8
		c0-0.3-0.3-1.4-0.5-1.7c-0.2-0.3-0.2-0.4-0.5-0.7c-0.2-0.2-0.3-0.3-0.5-0.6c-0.2-0.2-0.2-0.5-0.4-0.7c-0.2-0.3-0.3-0.3-0.5-0.6
		l-1-1.3c-0.2-0.2-0.3-0.3-0.6-0.5c-0.2-0.2-0.4-0.2-0.6-0.5c-0.3,0-0.7-0.3-1-0.4c-0.9-0.2-1.6-0.2-2.5-0.3c-0.4,0-0.8,0.1-1.3,0.1
		l-1-1.3c-0.3-0.1,0,0-0.1,0C142.7,60.1,143.3,60.6,143.6,61.1L143.6,61.1z M176.4,85.4c0.2-0.2,0.4-0.6,0.6-0.8l8.1,1.8L176.4,85.4
		L176.4,85.4z M176,76.4c-0.2-0.2-0.2-0.2-0.3-0.5c0.5-0.1,1.3-0.6,1.8-0.8c0.6-0.3,1.2-0.6,1.8-0.9c1.2-0.6,2.5-1.1,3.6-1.7
		c-0.3,0.1-1.3,0.7-1.7,0.9C180.5,73.9,176.2,76.2,176,76.4z M173.6,71.9c-0.1-0.2-0.1-0.2-0.2-0.5c0.3-0.1,0.5-0.3,0.7-0.5
		c0.2-0.2,0.5-0.4,0.7-0.5l3.8-3c0.2-0.2,0.2-0.2,0.4-0.3c-0.1,0.1,0,0-0.2,0.2l-1.5,1.3c-0.2,0.1-0.2,0.2-0.3,0.3
		c-0.1,0.1-0.2,0.2-0.4,0.3L173.6,71.9L173.6,71.9z M172,66.9c0,0.4-0.1,0.9-0.1,1.4c0,0.4,0,1,0.1,1.4l0.4,2.4l-2.2,1.7
		c-0.3,0.2-0.5,0.4-0.8,0.6c-0.3-0.5-0.9-1-1.2-1.4L172,66.9L172,66.9z M172.4,72.2C172.4,72.2,172.4,72.2,172.4,72.2
		c0.2,0.4,0,0.2,0.2,0.7l-2.6,2.2l-0.4-0.6c0.2-0.1,0.5-0.4,0.7-0.5C170.7,73.6,172.2,72.6,172.4,72.2L172.4,72.2z M172.6,73.1
		c0.2,0.5,0.5,1.2,0.7,1.7l0.8,1.7l-2.8,1.3c-0.1-0.2-0.4-1-0.6-1.3l-0.7-1.3C170.5,74.9,172.3,73.3,172.6,73.1L172.6,73.1z
		 M174.2,76.7c0.2,0.1,0,0,0.1,0.1c0,0,0.1,0.1,0.1,0.2c0,0.1,0.1,0.1,0.1,0.3l-2.8,1.5l-0.2-0.7L174.2,76.7L174.2,76.7z
		 M174.5,77.4c0,0.5,0.4,1.1,0.6,1.5c0.1,0.3,0.3,1.1,0.4,1.5l-3.5,0.5l-0.3-1.9L174.5,77.4z M175.5,80.6l0,0.6l-3.4,0.7l0-0.7
		C172.6,80.9,174.8,80.7,175.5,80.6z M175.5,81.4c-0.1,0.8-0.1,0.9-0.5,1.4c-0.2,0.3-0.3,0.9-0.9,0.9l-1.4-0.3l-0.6-0.2l0-1.2
		L175.5,81.4L175.5,81.4z M171.9,83.2c-0.4-0.2-0.9-0.3-1.3-0.4c-0.5-0.1-0.8-0.3-1.3-0.4c-0.4-0.1-1-0.1-1.4-0.2l-2.8-0.6
		c-0.6-0.1-0.9-0.2-1.4-0.3c-0.8-0.2-1.6-0.3-2.4-0.6l-0.3-0.1c-1.3-0.3-0.7-0.2-1.2-0.5c-0.2-0.1-0.4-0.1-0.6-0.2
		c-0.5-0.2-1.8-0.9-2.2-1.2c-0.3-0.2-0.2-0.2-0.5-0.3c-0.7-0.4-0.4-0.5-1.1-1.1c-1.3-1-0.8-1.7-1.1-3.5c0.2-0.1,0.1,0,0.2-0.1
		c0.7-0.5,0.6-0.8,2.1-1.8c3.5-2.3,7.6-1.7,10.7,0.6c1.2,0.8,2.4,2.5,3.1,3.8C171.5,78.2,172,80.7,171.9,83.2L171.9,83.2z
		 M147.8,75.5c0.1,0.1,0.2,0,0.2,0.3c0,0.3,0,0.2-0.3,0.2L147.8,75.5z M144.7,76c0,0,0.1,0.2-0.2,0c-0.2-0.1-0.1-0.5-0.1-0.7
		C144.7,75.4,144.8,75.8,144.7,76z M146.8,75.7l0.1,0c0.1,0,0.1,0,0.2,0c0,0,0,0,0.1,0c0,0,0,0,0,0l-0.3,0.1l-0.1,0
		c-0.5-0.1-0.3-0.1-0.7,0c-0.6,0.1-0.5-0.1-0.5-0.1c0.3-0.2,0-0.1,0.5-0.1C146.5,75.7,146.5,75.7,146.8,75.7L146.8,75.7z
		 M147.9,74.6c0.2,0.1,0.2,0.1,0.1,0.3c-0.1-0.1-0.1,0.1-0.2-0.2C147.7,74.4,147.8,74.7,147.9,74.6z M144.5,74.9
		c-0.1-0.3-0.1-0.5-0.1-0.8c0.2,0.1,0.2,0.1,0.3,0.2C144.7,74.5,144.7,74.8,144.5,74.9z M146.5,74.5c0-0.2,0-0.2,0.2-0.2
		C146.6,74.6,146.7,74.4,146.5,74.5z M146.1,72.2c0.2-0.1,1.4,0,1.6,0.1C147.5,72.5,146.3,72.4,146.1,72.2z M145.1,72.1
		c0.2,0.4,0.7,0.6,1,1.1c0.3,0.4,0.6,0.9-0.2,1.3c-1,0.4-1.4-0.9-1.6-1.6l-0.1-0.7c-0.1-0.3,0-0.1-0.1-0.2c-0.1,0.2-0.2,0.9-0.3,1.2
		c-0.3,1-1,2.8-0.4,3.6c0.7,0,0.3-0.3,1-0.3c0.1,0.7-0.5,0.7-0.4,1.5c-0.3,0-0.5-0.2-0.8-0.6c-1.2-1.8-1-2.5-1.3-3.2
		c-0.3,0.4-0.2,1.7-0.3,2.3c-0.1,0.3-0.1,0.4-0.4,0.4c-0.2-0.5,0.1-0.9,0-1.5c-0.7,0.1-0.4,0.8-1,0.6c-0.2-0.7,0.4-1.6,0-2.2
		c-0.6,0.4-0.9,4.7-0.3,5.6c0.3-0.6-0.2-1.4,0.2-2.1l0.4,0c0.3,0.4,0.2,1,0.5,1.6c0-0.3,0.1-0.7,0.2-0.9c0.4,0,0.3,0.3,0.9,1.1
		c0.2,0.2,0.2,0.4,0.4,0.6c0.2,0.2,0.3,0.4,0.4,0.6c0-0.1-0.1-0.7-0.2-0.9c-0.1-0.5-0.3-0.3-0.2-0.8c2.1-0.4,2.3,3.8,2.4,4
		c0.2-0.1,0,0.2,0.3-0.4l0.6-1c0.3-0.4,1.4-2.2,1.5-2.6c-0.4,0.2-0.1,0.1-0.5,0c-0.7-0.2-0.9,0.2-1.2,0.4c-0.6-0.1-0.3-0.3-0.8-0.3
		c-0.6,0,0.1,0-0.6-0.2c0,0,0,0-0.1,0c-0.4-0.1-0.2-0.3,0-1.1l0.4-0.1c0-0.3,0.1-0.6,0.2-0.9c0.6-0.2,0.3-0.1,0.6-0.5
		c0.4-0.1,1.5-0.1,1.9,0c0.3,0.1,0.6,0.1,0.7,0.3c0.1,0.2,0.1,0.5,0.3,0.7c0.3-0.1,0.6-1.5,0.5-1.8c-0.3-1,0.2-0.5,0.4-1.2
		c-0.1,0.1-0.2,0.2-0.4,0.2l-0.2-0.4c-0.5,0.2-0.6,0.5-1.5,0.2l-0.1-0.7c0.6-0.5-0.2-0.1,0.6-0.6c0.2-0.1,0.5-0.4,0.7-0.5
		c-0.3-0.9-1.3-0.1-2.3-0.5C145.4,71.8,145.3,71.9,145.1,72.1L145.1,72.1z M156.7,95.7c0.4-0.1,0.1,0.1,0.8-0.4
		c0.3-0.2,0.6-0.5,0.9-0.5l-0.1,0.6c0.5,0.1,0.6,0,1-0.2c0.1,0,0.3-0.1,0.4-0.1l1.3-0.5c0.3-0.1,0.2-0.3,0.8-0.3
		c0.3,0.2-0.3,0.5,1.8,0.1l1.3-0.2c0.1,0,0.1-0.1,0.1-0.1c-0.5-0.2-2.3,0.3-2.6,0.2l0-0.4c-0.5-0.2-2.2,0.7-3,0.7
		c0-0.4,0.2-0.4,0.3-0.7l-0.1-0.3c-0.3-0.1-0.5,0-0.7,0.1l-0.6,0.2c-0.4,0-0.3-0.1-0.2-0.8c0.1-0.4,0-0.3-0.1-0.6
		c-0.2,0.2-0.2,0.4-0.4,0.7C157.4,94,156.7,95.2,156.7,95.7L156.7,95.7z M132.1,100.2c0,0.2-0.1,0.2,0.1,0.1
		c0.2-0.7,1.1-1.4,1.6-1.9l2-1.5c0.1-0.1,0.3-0.2,0.4-0.3c0.4-0.4,1.4-1.4,1.4-2.1c-0.2-0.1-0.1-0.1-0.3-0.2c-0.6,1-1.5,1.5-2.1,2.1
		c-0.2,0.2-0.5,0.5-0.7,0.7l-0.7,0.8c-0.1,0.1-0.1,0.1-0.2,0.2l-0.5,0.5C132.9,99.2,132.6,99.8,132.1,100.2L132.1,100.2z
		 M139.4,93.9c-0.1-0.3-1.6-2.4-1.9-2.6c-0.6-0.7-0.7-1.6-1-1.7c-0.3,0.5,0.1,0.9,0.2,1.5c0.1,0.4,0.2,1.3,0.4,1.6
		c0.2,0.3,1.2,0.7,1.7,1.1C139,93.9,139,94,139.4,93.9z M139.5,73.4c0.5-0.2,0-1.2,0.4-2c0.9,0.1,0.7,1,1,1.5c0.2-0.2,0.1-0.7,0-1
		c-0.3-1.3-1.6-2-0.6-4.2l0.7-1.6c-0.1,0.1,0,0-0.1,0.1c-0.1,0.1-0.1,0.1-0.1,0.2c-0.1,0.1-0.2,0.2-0.2,0.3l-0.1,0.1
		c-0.2,0.4-0.2,0.2-0.4,0.6c-0.6,1.2-0.5,2.6-0.4,4C139.6,71.9,139.4,73.3,139.5,73.4L139.5,73.4z M183.4,97c-0.4-0.9-1.5-3-2.6-2.6
		c0.1,0.2-0.1,0.1,0.3,0.3c0.1,0.1,0.2,0.1,0.3,0.3c0.2,0.2,0.3,0.3,0.5,0.6c0.4,0.5,0.9,1.3,1.3,1.9l1.1,2
		C184.2,99.1,183.6,97.4,183.4,97L183.4,97z M143,68.1c0.5,0.2,0.2-0.2,0.9,0.6c0.2,0.2,0.2,0.2,0.5,0.3c0.4,0.1,0.3,0.1,0.6,0.2
		c0-0.6-0.2-1.2,0-1.7c-0.3,0.1-0.7,0.4-1,0.4C143.6,67.9,143.3,67.8,143,68.1z M148.4,69.3l1.2-0.7c-0.3-0.2-0.4-0.1-0.6-0.3
		c-0.2-0.3,0.1-0.4-0.3-0.6c-0.3,0.3-0.2,0.2-0.2,0.7C148.5,68.8,148.4,69,148.4,69.3L148.4,69.3z M146.1,68.5
		c0.5-0.6,0.5-1.4,0.1-1.8c0,0.3,0,0.7,0,1C146.2,68.2,146,68.1,146.1,68.5z M162.2,70.3l-0.5,0l0.8-13.9
		C162.4,56.4,162.3,68.9,162.2,70.3z M156.2,57l2.5,10c0.3,1.1,0.6,2.3,0.8,3.4c-0.2,0.1-0.3,0.2-0.6,0.2c-0.4-2.3-0.9-4.6-1.4-6.8
		L156.2,57L156.2,57z M165.7,71.2l-1.1-0.4c0.5-1.8,1.8-5.4,2.5-7.4l2.5-7.5c-0.4,1.2-1.5,5.9-2,7.6
		C167.1,65.5,166.1,69.3,165.7,71.2z"/>
</g>
</svg>
