<?xml version="1.0" encoding="utf-8"?>
<!-- Generator: Adobe Illustrator 26.0.1, SVG Export Plug-In . SVG Version: 6.00 Build 0)  -->
<svg version="1.1" id="Слой_1" xmlns:xodm="http://www.corel.com/coreldraw/odm/2003"
	 xmlns="http://www.w3.org/2000/svg" xmlns:xlink="http://www.w3.org/1999/xlink" x="0px" y="0px" viewBox="0 0 238.1 150.2"
	 style="enable-background:new 0 0 238.1 150.2;" xml:space="preserve">
<style type="text/css">
	.st0{fill-rule:evenodd;clip-rule:evenodd;fill:#2B2A29;}
</style>
<g id="Слой_x0020_1">
	<g>
		<path class="st0" d="M198.8,34.2l-0.1,0.7c0.4-0.1,0.2,0.1,0.7-0.3C199.4,34.6,198.8,34.2,198.8,34.2z M115.9,30.9l0.2,0.9
			c0.2-0.2,0.9,0.7,0.3-0.5C116.2,30.7,116.5,31.2,115.9,30.9c0.4-0.9,1.1-1.7,1.4-2.9c0.4,1.1,0.2,1.1,1.3,1.4l-0.2-1.1l0.8,0.3
			c0.1-1.3-0.2-1.5-1.3-1.6l0.6,1.3l-1-0.2l0.1-0.3c0.4-3.3-1.4-8.2-1.8-12.8c-1.5,2.9-0.4,6.1,0.3,9.2c1,4.9-0.1,5.7-2.3,8.3
			C115.2,31.8,114.9,31.5,115.9,30.9z M99.1,40.3L99,39.9L99.1,40.3z M109.9,56.6l-0.7-0.5v0L109.9,56.6z M71.2,45.2h0.4H71.2z
			 M61.3,17.1l-2-2.1L59.1,7l-8.2-0.3c-1-0.6-1.9-1.7-2.7-2.5c-1-1-1.8-2.2-3-2.7c-1,1.4-3.1,3.2-4.4,4.7C39.6,7.6,35.6,7,32.3,7
			c-0.3,1.4-0.2,3.1-0.1,4.5c0,2.2,0.4,2.9-0.8,4.2c-1.2,1.1-4.1,3.7-4.7,4.9c1.5,1.3,3.2,3.1,4.7,4.6c1.9,1.9,0.1,4.9,1,8.7
			c2.4,0,6.8-0.7,8.3,0.7c1.2,1.1,3.8,3.7,4.6,4.8c2.2-0.9,3.6-4.1,5.7-5.3l8.1-0.1l0.3-8.2l2.1-2.2l0.2,0v-0.2h0.1
			c0-0.1,0-0.1,0.1-0.1v0h0.2v0H62v0h0.1v-0.1h0v0l-0.2,0c0.5-0.3,0.9-1.1,1.4-1.6v0l0.3-0.3l-0.5-2.2c-0.5-0.5-0.8-1.1-1.2-1.2
			l0.2,0v0h0v0h0v0c-0.1,0,0,0-0.1,0v-0.1h0v0h-0.1v0h-0.1v-0.1h-0.1v0h-0.1v0h-0.1v0h-0.1v-0.1h0v0h-0.1
			C61.3,17.2,61.3,17.1,61.3,17.1z M211.5,43.2c0,0.3,0.1,0.7,0.1,1c0.3,1.2,0.3,0.6,0.5,0.8l0.6,2.8l8.7-0.6
			c0.1-1.8-1.7-10.1-2-12.8c-1.1-9.3-0.9-18.5,0.9-27.7c0.4-2.1,0.9-4,1.5-5.8h-4.2c0.8,0.2,1.4,0.6,1.8,1.1c2,3.3-4,5.9-6.4,2.8
			c-1.1-1.5,0-3.4,1.6-3.9h-3c-1.5,5.3-2.5,10.3-2.9,16.3C208.4,23.4,209.1,38,211.5,43.2z M45.2,35.9c-0.6-0.9-2.8-3.1-3.7-3.9
			c-1.4-1.3-4.8-0.3-6.9-0.7c0-2.1,0.6-5.6-0.7-6.9c-1-1.1-2.8-2.9-3.8-3.7c0.6-1.2,2.7-2.9,3.7-3.9c1.3-1.4,0.8-3.8,0.8-7.1
			c2.1-0.5,5.5,0.5,6.9-0.7c0.7-0.6,3.2-3.2,3.7-3.9c1.3,0.6,2.8,2.7,3.9,3.7c1.2,1.1,4.3,0.7,7.2,0.7c0,2.1-0.5,5.8,0.5,7.1
			c0.6,0.7,3.2,3.1,3.9,3.6c-0.7,1.4-2.7,2.9-3.8,4c-1.1,1.2-0.7,4.3-0.7,7.2c-7,0-5.6-0.9-9,2.5c-0.4,0.4-0.6,0.6-1,1
			C46.3,35.2,45.3,35.9,45.2,35.9z M211.4,47.8c-2.8-8.9-4.4-17.5-4.1-27.8c0.2-7.6,1.2-13.3,2.8-19.2h-6.7
			c-1.4,5.9-2.3,11.6-2.4,18.9c-0.1,6.2,0.9,23.8,3.4,28.3L211.4,47.8L211.4,47.8z M223.2,47l6.4-0.7l-2.1-12.2
			c-0.6-4.3-0.8-8.8-0.7-13.3c0.3-9.7,1.3-13.3,2.8-20.1h-6.5C219,16.3,218.9,30.6,223.2,47L223.2,47z M217.2,34.7l-0.4-1.5l-1.6,0
			l-0.1,1.7L217.2,34.7z M218.4,3c-0.6-0.6-1.1-0.9-2.3-0.9c-1.6-0.1-2,0.1-2.4,1.2C214.6,4.8,218.2,5.5,218.4,3L218.4,3z
			 M43.8,18.1l0.1,4.2l2.7-3.3l3.9,1.1c-0.7-1.4-1.8-2.4-2.2-3.6c0.7-1.3,1.5-1.9,2.2-3.3l-3.9,1.1c-1.1-1-1.5-2.3-2.6-3.3l-0.1,4.2
			l-4,1.4L43.8,18.1z M53.7,17.3c-0.6,4.3-3.8,7.8-8.6,7.7c-2.5-0.1-4.4-1.2-5.7-2.5c-1.9-1.9-1.5-2.7-2.6-5.3
			c-2.3,3.3,0.8,12.1,8.5,12.1c7.3,0,10.1-7.6,8.9-11.1C54,17.5,54,17.6,53.7,17.3z M217.5,20.9c-0.8,0.7-2.8,0.3-4,0.3
			c-2,0-3.1,0.6-2.9-1.4l3.5,0c-0.8-1.1-2-1.5-2.7-1.9c-1.4-0.9-1.1-1.5,1-1.4c0.6,0,1.4,0.1,2.1,0.1c2.4,0.1,3.2-0.2,3.1,0.8
			c-0.1,1-1.6,0.5-3.7,0.5C215.6,20.4,217.3,19.1,217.5,20.9z M220.2,44.9c-2.3,0.2,0-0.1-2-0.7c-1.3,0.6-2.8,2-4,2.3
			c-0.4-1.9,0.4-1.5,1.9-2.7c-1.6-1-2.6,0.4-3-2c1.4,0.2,2.8,0.6,4.3,0.9C219,43,220.1,43,220.2,44.9z M215.3,37.8
			c1.6-2.7,4.7-0.2,3.5,3.3c-2-0.5-0.4-0.7-1.1-2.7l-0.9-0.2c-1,0.8-0.1,1-1.2,1.5c-1.3-0.9,0.1-0.8-1.5-1.2
			c-1.3,1.5,1.5,2.1-0.9,2.7C210.8,36.4,214.1,36.8,215.3,37.8L215.3,37.8z M211.4,33.3c0.1-0.9-0.2-0.4,0.3-0.9
			c2.1,0.5-0.2,2.2,1.8,2.6c0.6-0.7,0,0.4,0.3-0.6c0.1-0.4,0-0.3,0.1-0.8c0.1-0.8,0.3-2.3,2.5-2c2,0.3,2,2.3,2.2,4.4l-6.5,0.3
			C212.1,36.3,211.4,33.3,211.4,33.3z M218.5,8.6c-0.3,0.8,0.4,0.6-1.1,0.7l-4.5-0.4l-0.4,1.4c-1.1,0-0.6,0-1.1-0.3
			c0.8-3.9,0-3.9,1.7-3.9l0.1,1.5c1,0.1,2,0.2,3,0.3C217.7,7.9,218.5,7.8,218.5,8.6L218.5,8.6z M216.7,13c-0.2-0.9-0.5-0.9-0.3-1.5
			c0.4-1.7,2.5,1,1.2,2.9c-0.9,1.4-4.2,1.9-5.8,0.4c-1.6-1.4-0.8-4.1,0.6-3.8c1.4,0.3-1.7,2.9,1.9,3.1
			C215.6,14.3,215.9,13.8,216.7,13L216.7,13z M211.3,31c-0.5-0.8-0.6-3-0.1-3.7c1.7,0.3,0.4,0.7,1.2,2.3c2.4,0,0.7-0.4,1.5-1.9
			l0.9,0c0.4,0.9-0.1,2.6,1.4,1.8c1-0.6,0.1,0.3,0.4-0.6c0.5-1.6-0.7-1.2,0.5-1.9c0.9,0.4,0.3-0.1,0.6,0.7c0.2,0.4,0.3,2.6,0.3,3.2
			C218,30.9,211.3,31,211.3,31z M213.2,24.6c-1.3-0.8-2.6-0.7-2.8-2.4c0.8-0.2,0.4-0.4,1.5,0.3l1.9,1.1c0.9-0.6,2.5-1.7,3.8-1.6
			c-0.1,2.3-1.7,1.3-3.1,2.6c0.4,0.4,0.1,0.2,0.8,0.4c1.1,0.2,1.3-0.2,2.3,0.3l-0.1,1c-7,0.1-6.9,0.6-6.8-1.2
			C213.2,24.9,212.5,25.4,213.2,24.6L213.2,24.6z M100.7,72.5c7.9,0,18.1-1.2,24.2-4.9c-4.5,0.4-5.2,1.5-13.1,1.5
			c-12.6,0-24.8-4.4-32.9-11.2c-3.1-2.5-9.1-9.8-11.7-13.2c-1.4-1.9-2.6-4-3.9-6c1.8,9.4,8.1,17.5,12.7,22.8
			C81.2,67.6,91.7,72.5,100.7,72.5z M101.9,78.8c6.1,0,10.2-1.5,15.3-4.1c3.5-1.8,8.1-4,11.2-6.2c-2.7-0.7-3.4,0.8-8.3,2.3
			C108.3,74.6,94.8,72,92,75.4c0.2,0.9,0.6,1.1,1.6,1.5C96,78,99.3,78.8,101.9,78.8z M135.3,69.5c-4.3,0.4-4,1-6.6,2.9
			c-1.8,1.4-3.6,2.7-5.5,3.9c-1.2,0.8-10.7,7.5-9.1,9.1c2.2,2.2,10.4-5.5,11.5-6.6c0.8-0.8,1.7-1.3,2.5-2.2c0.9-0.9,1.4-1.6,2.3-2.4
			C131.9,73.1,134.5,70.8,135.3,69.5L135.3,69.5z M130.9,69c-1.5-0.6-3.5,1.2-6.1,2.7c-2,1.2-4,2.3-6.2,3.4c-2.2,1.1-4.2,2-6.4,3
			c-2.2,1-5.5,1.8-5.9,3.8c7.3,1.7,13.7-4.3,19.5-8.4l4.1-2.9C131,69.9,130.9,70.4,130.9,69z M126.1,87.8c0.3,0.1-0.2,0.1,0.7,0.2
			c3.5,0.2,6.2-5.1,8.5-8.1c1.3-1.8,6.7-8.8,7.3-10.2c-3.6,2.1-2.9,0.1-5.4,3.3l-4.1,4.7C131.8,79.2,125.6,85.1,126.1,87.8z
			 M137.6,71l-1.3-1.4c-0.9,1.2-2.8,3.1-4,4.2l-8.8,7.9c-1.2,1-3.3,3.2-3.1,5.4c3.4-0.4,5.7-2.6,7.5-4.8c0.7-0.8,1.5-1.4,2.1-2.2
			C132.5,77.1,135.3,74.2,137.6,71L137.6,71z M132.9,87.7c3.8-0.2,5.4-4.6,6.9-7.5c1.1-2.3,4.4-7.5,4.9-9.5l-1.2-0.7
			c-1.1,1.2-1.9,2.8-3,4.2C138.7,76.6,131.2,85.6,132.9,87.7L132.9,87.7z M148.4,70c-2.8,1.1-2.5,0.5-3.8,3
			c-1.4,2.5-7.6,12-5.5,14.1C141.8,89.7,148,71.7,148.4,70z M151.7,69.5l-1.7-0.7c-1,1.7-2.6,6.3-3.4,8.4c-0.5,1.3-3.9,8.6-1.5,9.2
			c1.7,0.4,3.2-6,3.8-7.8C149.7,75.8,151,72.4,151.7,69.5z M154.5,68.8c-2.8,1.1-2.1,2.2-3.9,7.5c-0.5,1.4-3.1,7.7-1.8,8.8
			c1.1,0.9,2.7-1.3,3-2c0.7-1.4,0.8-3,1-4.5C153.4,75.4,154.1,72,154.5,68.8L154.5,68.8z M156.6,67.9c-1.1,0-0.9-0.3-1.2,0.9
			l-1.1,6.5c-0.3,1.4-1.7,7.7-0.8,8.6c0.9,0.8,2-1.3,2.2-2.2C156.1,79.6,156.8,69.2,156.6,67.9z M160.5,81.5c2-0.9,1.2-5.2,1.1-7.4
			c-0.2-2.3-0.2-7.1-1.5-7.9c-0.9,4.7-0.6,2.4-0.6,7.7C159.5,76.3,159.1,80.2,160.5,81.5z M158.2,68c-0.7,0.4-0.5-0.6-0.7,3.1
			c-0.1,2.4-0.9,10.2-0.6,11.4c2.8,0.5,2-8.8,2.1-12.8C158.9,68,159.2,68.4,158.2,68L158.2,68z M165.7,78.4c3-0.3,1.3-5.1,0.7-6.9
			c-0.6-2.1-1.4-4.6-2.3-6.6c-1.1,1.7-0.1,4.2,0.3,6.5C164.8,73.7,165,76.6,165.7,78.4z M163.4,80c1.7-0.9,0.9-4.4,0.6-6.6
			c-0.2-1.6-0.7-5.7-1.2-6.9l-1,0.3c-0.2,1.6,0.4,5,0.5,6.9C162.4,75.5,162.2,79,163.4,80z M169.3,76.5c1.6-1.6-1.2-7.2-2.2-10
			c-0.7-1.8-0.3-2.4-2.1-2.3c-0.1,1.2,1.3,5.1,1.8,6.5C167.3,72.3,167.7,76,169.3,76.5z M171.7,75.2c0.5-2-0.8-4.6-1.5-6.6
			c-0.6-1.7-1.4-4.9-2.5-6c-1.3,1.5-0.4,2.5,0.9,6.4C169.7,72,170.1,74.8,171.7,75.2L171.7,75.2L171.7,75.2z M175.6,71.8
			c1-1.8-3.4-8.4-4.2-10.5l-1.3,0.4c0.3,1.3,1.8,4,2.5,5.4C173.5,69.1,174.2,71.5,175.6,71.8z M173.4,73.6c1.4-1.2-0.6-4.7-1.2-6
			c-0.5-1-1-2-1.4-3c-0.9-1.9-0.7-2.3-1.7-2.6c-0.5,0.8-0.3,0.6,0.6,2.9l2.2,6C172.7,73.4,172.3,73.2,173.4,73.6L173.4,73.6z
			 M177.3,70.4c0.5-1.8-1.2-4.3-1.9-5.8c-0.7-1.4-2.1-4-3-5.2c-1,1.9-1,1.3,1.5,5.5c0.7,1.1,1,1.8,1.5,2.9
			C176,69,176.1,70,177.3,70.4z M179,68.9c1.3-1.7-2.6-6.7-3.7-8.5c-0.8-1.4-0.4-1.6-2.3-1.4C173.6,60.4,178,68.4,179,68.9z
			 M188.4,58.2c-0.1-2.3-2.4-3.5-3.7-4.7c-2.2-1.9-3.4-3.7-4.6-3.1C180.1,50.6,185.7,58,188.4,58.2L188.4,58.2z M181,66.9
			c0.3-2.3-5.2-9.4-5.9-9.7c-0.7,1.8,0.4,2.1,2.3,5.3C178.8,64.9,179.4,66.9,181,66.9z M185.7,61.4c0.1-0.2,0.8-0.2-0.3-1.5
			c-1.1-1.4-5.9-7.2-7.1-6.8C178.1,53.9,184.3,61.7,185.7,61.4z M184.6,63.1c0.2-1.2-6.2-8.2-6.9-9c-0.6,1.2-0.1,1.7,0.6,2.6
			l4.9,6.3C183.9,63.5,184.2,63.3,184.6,63.1z M182.8,65.3c-0.3-2.4-3.2-5.7-4.7-7.8c-1-1.3-0.6-1.7-2.2-1.4
			c0.4,1.3,2.2,3.7,3.1,4.9C180.5,63,181.2,64.9,182.8,65.3L182.8,65.3z M189.6,55.9c0-1.4-1.8-2.5-3.7-3.9
			c-1.2-0.9-3.5-2.8-4.6-3.4c0,1,0,1,0.6,1.6l5.3,4.7C187.9,55.6,188.3,56.4,189.6,55.9z M188.3,48.7c-1.7-0.5-3.5-2.4-5.5-2.7
			c0,1.6,0.6,1,4.1,3.6c1.5,1.1,3.5,2.8,5,2.7c-0.1-1.4,0.1-0.7-1.3-1.9c-0.3-0.2-0.3-0.3-0.4-0.4c1.1,0.3,1.5,1.1,2.5,0.6
			c-0.3-1.1,0.3-0.4-1-1c-1.3-0.7-2.6-1.6-3.8-2.4c-2.8-1.8-3.8-3-4.8-1.9c0.5,0.5,0.7,0.5,1.4,0.9c0.9,0.5,1.8,1.1,2.7,1.7
			C187.2,47.8,188.3,48.7,188.3,48.7z M187.2,59.9c0.1-1.5-0.6-1.7-1.5-2.6c-1.3-1.3-5-5.3-6-5.8c-0.3,1.4,0.5,1.6,1.3,2.6
			C182.2,55.7,185.5,59.7,187.2,59.9z M190.9,54.2c-0.2-1.8-4.9-4.3-6.9-5.7c-1.2-0.9-1.3-1.4-2.3-0.6c0.6,0.9,3.3,2.7,4.4,3.5
			C187.5,52.5,189.5,54.5,190.9,54.2z M196.7,1.4c-1.8,0.2-7.4,2.8-9.6,3.6l0.6,1.2C189.4,5.8,195.8,3.1,196.7,1.4z M196.4,39.4
			c-0.8-1.3-5.5-3.2-7.3-4c-1.4-0.6-1.5-1-2,0.2c0.4,0.8-0.4,0.2,1,0.9C189.4,37.1,195.9,39.6,196.4,39.4z M193.2,49
			c-0.2-1.1-2.3-1.8-4.4-3c-1.1-0.6-3.7-2.8-4.8-2.2c0.2,1.1-0.8,0,2.1,1.7c0.8,0.5,1.4,0.9,2.2,1.3C189.4,47.5,191.8,49.2,193.2,49
			z M194.1,47.6c-0.4-1.1-3.4-2.2-4.6-2.9c-1.7-0.9-4-2.5-5.1-2.1c0.4,0.9-0.1,0.4,1.1,1.1l3.6,2C190.5,46.3,192.7,48,194.1,47.6
			L194.1,47.6z M194.5,45.5c-0.6-1-8.9-4.5-9.3-4.5c-0.1,1.3,0.4,1.1,1.8,1.7C189.1,43.8,193.3,46.3,194.5,45.5z M195.3,42.3
			c-0.3-0.9-1.1-0.9-2.1-1.3l-6.8-3c-0.2,1.2,0.8,1.4,3.9,2.9C191.4,41.4,194.2,43.1,195.3,42.3z M195.1,44.2
			c-0.4-1.3-0.8-1.1-2.2-1.7c-1.6-0.7-6.4-3.1-7.2-2.7c0.2,1-0.5,0.2,0.8,0.9C188.2,41.5,193.9,44.1,195.1,44.2z M191,1l0.5-0.2H189
			c-1.4,0.7-2.7,1.4-2.6,1.8c0.2,0.7,1.4-0.2,2.1-0.5L191,1L191,1z M186.1,0.8c-0.1,0.1-0.2,0.3-0.3,0.4c0.4,0.4,1.3,0.1,2.4-0.4
			C188.1,0.8,186.1,0.8,186.1,0.8z M196,40.8c-0.3-0.9,0.4-0.3-0.9-0.9l-6.2-2.5c-2.9-1.3-2.5-0.3-1.5,0.3
			C189,38.6,194.9,41.4,196,40.8z M188.9,2.7c-2.5,1.2-1.8,0.6-1.9,1.5c0.6-0.1-0.4,0.5,1-0.1c2.1-0.9,4.1-1.8,6.2-2.6
			c0.6-0.2,1.1-0.4,1.7-0.7H193c-0.7,0.3-1.3,0.6-1.7,0.8C190.5,2,189.7,2.3,188.9,2.7L188.9,2.7z M114.3,87.7l-0.4-0.1L114.3,87.7z
			 M233.7,28.2c-4.3-1.5-3.1-0.7-5.8-3.2c-0.3,6,1.5,13.1,2.4,18.8C231.9,41.9,233.9,31.5,233.7,28.2z M228.2,17
			c1.7-1.4,2.4-2.3,5.6-2.6c-0.1-2-0.7-10.9-2.4-13.6h-0.5C229.7,4.6,227.9,13.1,228.2,17L228.2,17z M143.8,55.1
			c-1,1.7-2.5,1.6-2.3,3.6c1.9,0.7,5.8-2.7,5.2-5.3l-2.4,1.5c0.4-1.1,3.4-3.9,4.8-5.4c3.3-3.5,15.1-3.8,19.1-11.5
			c-4.9,0-3.7-0.3-7.2-1.7c0.3,6.9-3.9,8.5-9.4,10.4c-2.8,1-3.6,1.5-4.7,2.9v0h0l-0.1,0.1h0l-0.1,0.2h-0.1l0,0.1h-0.1l-0.1,0.2h-0.1
			v0.1h-0.1l0,0.1h-0.1l0,0.2h-0.1V51h-0.1l0,0.1h-0.1l0,0.1h-0.1l-0.1,0.1h0c-0.1,0.1-0.4,0.5-0.4,0.6h0L145,52h0l-0.2,0.4h0
			c-1.1,1.3-1.7,2.1-3.7,3.8c-12.8,11.2-22.4,9.6-28.4,12.1c10.4,0.2,20.3-4.8,28-10.7C141.9,56.7,142.6,56,143.8,55.1L143.8,55.1z
			 M161.2,4.7c2.9-0.6,0.6-1.6,7.2-1.6c-0.4-0.8-0.9-1.6-1.6-2.3h-5.9C161.3,1.9,161.4,3.2,161.2,4.7L161.2,4.7z M118.9,18.3
			c1.9,2.6,0,5.1,1.8,6.9c1.3,1.3,4.1,2.1,6.6,2.2c-0.1-1.3,0.4-1-1.1-1c1.7-0.4,0.7,0.5,1.2-0.8c-0.4-0.4-1-0.4-1.6-0.4
			c1.3-0.2,0.6,0.3,1.6-0.4c-0.2-1.6,0.1-0.6-1.1-1.2c0.8-0.2,0.8,0.6,1-0.9c-1.3-1.2-0.5,0-1.5-0.3l1.5-0.9c-1.2,0-1.1,0.2-1.9-0.3
			c1.2-1.1,0.9-0.3,0.9-0.3c0,0,0.8,0.1,1.2,0l-0.2-0.8c-8.3,0.2-4-8.1-8.5-7.5c0.4,1.3,0.8,0.7,0.9,2.5
			C119.6,17,119,16.4,118.9,18.3c-1.2-0.9-0.7-1.6-2.7-1.9c0.2,1.6,1.1,2.7,2.6,2.7L118.9,18.3L118.9,18.3z M135.1,28.4l4.7,0.4
			c1.8-0.1,0.7,0.3,1.1-0.5c-1-0.5-0.2-0.1-1.2-0.3c-0.4-0.1-1.1-0.1-1.4-0.4c1.4-0.1,2.2,0.5,3.1-0.2c-0.2-0.8,0.3-0.6-1-0.7
			c-0.4,0-1.6,0.1-2.2,0.1l0.1-0.5c1.6,0,2.8,0.5,3.1-1c-1.3-1.1-2,0.1-3.3-0.5c1.5-0.9,2.4,0.6,3.1-1c-1.2-0.5-1.8-0.4-3-0.4
			c1.5-0.8,2.7,0.8,3.2-1.1c-1.4-0.9-2.2,0.2-3.3-0.6c0.9-0.4,1.1-0.1,2.2-0.3l0.9-0.3c-0.6-1.9-1.9,0-3.4-0.9
			c1.4-0.9,2.6,0.5,3.2-1.2c-0.9-1.7-2.1,0.4-3.6-0.5c1.2-0.3,2.3,0,3.5-0.6c-0.1-1.8-1-1-2.7-0.6c-1.1,0.3-2.3,0.4-3.4,0.9
			c0,1.5,0.3,3.2,0.4,4.7C135.3,24.9,135.1,26.5,135.1,28.4L135.1,28.4z M134,26l-2.8-0.3c1-1,0.8-0.1,3-0.4
			c-0.1-1.1,0.8-0.9-2.9-0.9c1.5-1.2,2.5,0.7,2.9-1.3l-2.1-0.2c0.5-0.1,0.6,0,1.1-0.1c0.7-0.1,1.1,0.1,1-0.8c-0.8,0-1.1,0.1-1.6,0.1
			c-2.1,0-0.7,0.1-1.3-0.4l2.9-0.3c0-1.5,0.1-0.3-0.4-0.8l-2.7,0.3c0.5-0.5-0.1-0.1,0.5-0.4c1.3-0.5,1.2,0.3,2.3-0.6
			c-0.2-1.8-0.7-1.2-2.5-0.8c-1.1,0.2-2.3,0.4-3.4,0.7c-0.1,1.3,0.1,2.6,0.2,4c0,4.4-1.1,3.8,3.2,4.2c1.6,0.2,2.1,0.4,2.9-0.1
			c-0.3-1.9-1.5-0.2-3.1-1.2c0.9-0.4,1.6,0.2,3.1-0.1C134.4,25.3,134.4,26.4,134,26L134,26z M115.1,14.2c-2.2,1.5-2.7,5.3-2.3,8.7
			c0.2,1.7,0.5,3.5,0.4,5.3c-0.1,2.4-0.9,2.7-1.6,4.1c3-1.1,4.6-3.7,3.4-7.8C113.5,19.5,114.4,18.8,115.1,14.2z M145.5,64.5
			l-0.7-1.4c-2.1,2.1-1.8,1.3-4.7,2.1c-0.7,0.2-3.4,2.3-2.2,4C140.1,72.3,144.7,65.4,145.5,64.5L145.5,64.5z M150.2,62.6
			c-2.6,2.9-1.3,1.1-3.8,2.2c-0.7,0.3-2.3,2.1-1.9,4.4c2.8,1.9,4.9-2.1,5.9-4C151.2,63.4,151.1,63.6,150.2,62.6z M176.1,15.6
			c-1.2-0.4-6.4,0.5-7.6,1c-0.3,3.1,1.8,2.5,4.3,2.3C175.5,18.5,177,18.7,176.1,15.6z M139.4,64.6l-0.7-1.3
			c-1.5,0.5-8.3,2.9-6.7,5.1C133.9,70.9,139.1,65.2,139.4,64.6z M176.5,25.3c0.4-1.2,0.4-1,0-2.2c-1.5-0.4-3.5,0-5,0.1
			c-2,0.2-2.8,0.5-2.9,2.4C170.3,26.6,175,26,176.5,25.3z M176.4,21.9c0.6-2.2,0.6-2.9-2.1-2.6c-1.1,0.1-4.1,0.1-4.7,0.8
			c-0.1,0.2-1.9,2.9,1.9,2.5C173,22.4,175.1,22.3,176.4,21.9z M160.5,27.7c-0.1-1.5,0.3-0.9-1.8-1.8c-0.2-0.1-0.4-0.2-0.7-0.3
			c2,0,2.9,0.8,2.7-1.4c-1.2-0.6-4.9-0.8-6.1,0c0.1,1.6,1.5,1.2,3.3,1.2c-0.7,0.3-0.8,0.2-2.1,0.3c-1.1,0.1-1,0.1-1.6,0.8
			c0.5,0.8-0.3,0.4,1.1,0.8c0.2,0.1,1.4,0.2,1.7,0.3C158.3,27.8,159.4,28,160.5,27.7z M178,20c-0.5,1.3-1.4,2.8,0.4,3.2
			c0.8,0.2,4,0,4.7-0.3c1.3-0.5,1.8-2.9-0.3-3.1C181.3,19.7,179.3,19.8,178,20L178,20z M167.9,29.1c1.3,0.7,8.2,0.3,8.1-2.4
			C176,26.7,167.2,25.2,167.9,29.1z M166.9,18.7c-8.9,0-5.5,2.6-3.5,2.9C170.6,22.3,169.3,18.7,166.9,18.7z M150.5,53.2
			c-3.7,3.3-1.4-0.5-3.4,2.4c-0.7,0.9-2.6,2.9-0.5,3.6c2.1,0.7,3.7-2.7,4.3-4.2C151.4,53.6,151.3,53.7,150.5,53.2z M144.9,58.8
			c-1.5,0.1-6.5,3.2-4.3,4.9c1.5,1.2,3-0.5,3.5-1.2C145.4,61,145.5,60.5,144.9,58.8L144.9,58.8z M173.7,32.3c-1.4,0-3.5,0.3-5,0.4
			c-1,0.1-3.7,0.7-2.3,2.2C167,35.7,173.8,35.6,173.7,32.3z M177.2,18.9c1.8,0.4,4.8,0.2,6.5-0.2c0.1-1.9-0.3-2.3-2.1-2.3
			c-1.5-0.1-2.6-0.1-4,0.3C177.1,17.8,176.9,17.8,177.2,18.9z M178.1,26.7c4.4,0.5,7.3-2.2,5.3-2.9c0,0-3.8,0.2-4.3,0.2
			c-1.5,0.1-2,1-2.3,2.6L178.1,26.7z M154.6,53.1l-2.8,1.3c-0.5,0.5-1.3,2.5-1.4,3.3c0.2,0.9,3.1,2.1,4.4-2.1
			C155.4,53.6,155,53.5,154.6,53.1L154.6,53.1z M155.2,62.8c-2.6,1.6-2.7,1-3.4,1.5c-0.6,0.4-1.8,2.9-1,3.7
			C153.1,70.5,155.2,65.3,155.2,62.8z M166.1,24.7c3.9,0,2.6-2.5,1.2-2.5c-2.2,0-5.9-0.5-5.8,1.4C161.6,24.9,164.7,24.7,166.1,24.7z
			 M167.6,13.6c-0.4,2.4,2.1,1.8,3.9,1.6c2.1-0.2,3.8,0.3,3.6-1.8C173.7,12.6,169.2,12.7,167.6,13.6z M135.1,64.1l-0.2-1.5
			c-1.3,0.4-2.8,1.2-4.1,1.9c-1.4,0.6-3.4,1-3.7,2.5C129.3,68.8,133,64.9,135.1,64.1L135.1,64.1z M163.7,54.8
			c-1.7,0.6,0.3,0.9-2.8,2.2c-0.3,4,4.1,4,4,0.3C164.8,55.9,164.7,55.4,163.7,54.8z M167.5,17.4c0.3-2.4-0.8-2-2.8-1.6
			c-1.1,0.2-3.1,0.3-3.7,1.1C159.2,19.5,166.7,18,167.5,17.4z M176.4,13.6c-0.1,1.9,0.8,1.9,2.6,2c1.1,0.1,3.4,0.5,4-0.5
			C184.5,12.5,177.3,13.3,176.4,13.6z M154.8,58.5c-0.6-0.4-0.2,0-1.1,0.5c-1,0.6-1.2,0.3-1.8,0.6c-1.1,0.5-1.2,2.6-0.2,3.3
			c1.7,1,3.3-0.9,3.6-2.8C155.6,58.4,155.5,58.9,154.8,58.5L154.8,58.5z M193.4,7c-0.6,0.6-0.6,0.6-1.2,1.1l-1.1,1.2
			c2.3,0.5,2-0.3,5.5-3.8c2.2-2.2,3.8-2.9,4-4.7L199,1.2l-0.1,0.2c-0.4,0.7,0.1-0.2-0.2,0.4C198,3.4,194.9,5.6,193.4,7z M159.5,56.5
			c-0.9,0.1-0.5,0.4-1.4,1.3c-1,1.1-0.9,0.3-1.9,1c-0.3,2.1,1.2,3.7,2.9,2.4C160.3,60.4,161,57.6,159.5,56.5z M174.5,11.8
			c0-1.9-1.9-1.3-3.7-1.3c-1.3,0-3.6-0.3-4,0.9C166,13.9,174.4,11.8,174.5,11.8z M187.2,23.4c4.3-0.4,3.9-3.5,0.3-3.1
			C183.6,20.8,183.5,23.8,187.2,23.4z M175.1,29.7c-1.1-0.6-6.5,0.6-8,0.8l0.2,1.3c1.2,0.5,5.5-0.1,6.8-0.5
			C175.2,30.9,175.2,30.9,175.1,29.7z M168,26.3c-0.9-1.1-2.1-1-3.9-1.2c-1.7-0.1-3-0.4-2.9,1.6C161.6,27,167.5,29,168,26.3
			L168,26.3z M150.1,58.8c-1.1,0.1-0.9,0.5-1.9,1.1c-1,0.6-1.6,0.3-2.4,0.7C144.9,67,151.8,61.7,150.1,58.8z M180.4,29.4
			c1.6-0.2,2.3-0.5,2.3-2.2c-1.4-0.2-4.6-0.4-6,0.9c-1.4,1.4-0.4,1.5-0.4,1.5C177.5,29.9,179,29.6,180.4,29.4L180.4,29.4z
			 M159.3,65.8l-0.1-3c-0.7-0.3-2.3-0.6-2.7-0.3C156.2,62.7,153.9,69.7,159.3,65.8z M189.5,19.2c0.3-3.5-4.4-2.5-4.9-1.3
			C183.2,21.1,188.6,19.8,189.5,19.2z M164.6,8.1c0.8,0.1,1.8-0.6,3.5-0.6c1.6,0,3.2,0.2,4.3-0.4c-0.4-1.7-1.8-1.3-4.6-1.2
			c-0.8,0-2,0-2.6,0.3c-0.9,0.5-0.8,0.9-0.8,1.2C164.4,8.8,164.3,7.6,164.6,8.1L164.6,8.1z M170.5,55.7c-2.1,0.5-0.9-0.3-1.7,1.2
			c-0.7,1.4-0.4,0.7-1.4,1.7c0.2,0.8,0,1.4,0.8,1.8C170.3,61.4,172.5,58.6,170.5,55.7z M173.4,8.6c-1.2-0.6-2.7-0.4-4.4-0.4
			c-4.8,0-4.2,2.5-1.7,2C172.2,9.2,173.1,11,173.4,8.6z M157.9,23.3l2.8-0.1c1.2-2.9-2.1-2.3-4.3-2.2
			C154.6,21.2,152.9,23.3,157.9,23.3z M161.1,29c0.8,1.1,7,2.8,5.8,0c-0.4-1.1-2.4-0.9-3.5-1.1C162.4,27.7,160,27.4,161.1,29z
			 M161.1,60.4c-0.5,0.9-0.5,1-1.2,1.4c0.4,6.8,3.9,2.6,3.4,0.1C162.9,60.6,162.4,60.9,161.1,60.4L161.1,60.4z M177,30.2
			c-1.2,0.2-1.9,0.9-1.8,2.3c1.2,0.1,2.9-0.2,4-0.5c1.4-0.3,2.3-0.5,2.3-2C180.3,29.9,178.3,30,177,30.2z M171,4.1l-5-0.3
			c-4,0-4.2,3.2-1.4,2c2.1-0.9,4-0.3,5.4-0.6C171.4,5,170.9,5.2,171,4.1z M149.7,22.6c1.1,0,4,0.4,4.6-0.7c1.3-2.4-4.1-1.7-5.7-0.8
			C148.5,22.2,148.6,22.6,149.7,22.6z M166.3,32.3c0-1.5-1.5-1.3-2.9-1.7c-1.5-0.4-2.3-1-3.3,0.1c0.2,1.2,0,1,2.9,1.8
			C164,32.8,166.3,33.7,166.3,32.3z M157.7,57.3c0.8-2.1,0.8-2.6,0.7-4.7l-2.5,1.1C155,56.3,154.4,57.9,157.7,57.3z M161.9,55.7
			c0.9-1.4,0.7-2.1,0.7-4.2c-1.6,0.1-1,0.2-1.8,0.8l-1.5,0.9C159.1,55.4,159.5,56.2,161.9,55.7L161.9,55.7z M152.6,48.8
			c-6.1,1.4-6.6,8.1-2,3.3C151.3,51.5,152.3,50,152.6,48.8z M166,58.2c-1.4,1.2,0.8-0.1-2.4,2.5C164.6,66.6,169.2,60.5,166,58.2z
			 M156.1,20.6c0.9,0.1,3.7-0.3,4.3-0.6c0.3-2.3-0.9-1.7-2.6-1.5c-2.1,0.2-3.1-0.2-3.1,1.8L156.1,20.6z M141.5,59.9
			c0-0.1-0.2-0.1-0.1-0.2c0.1,0-0.2-0.2-0.3-0.4c-0.2-0.3-0.3-0.5-0.4-0.8c-1.1,0.4-5.2,3-4.6,4.1C137,64.4,141,60.2,141.5,59.9
			L141.5,59.9z M195.3,21.2c-0.8-0.2-2.4-0.4-3.4-0.2c-1.2,0.2-2.9,2.3,0.2,2.4C195,23.5,195.5,23.4,195.3,21.2L195.3,21.2z
			 M190.1,20.1c0.9,0.3,6.5,1.1,5.1-1.3c-0.5-0.8-2.2-0.6-3.4-0.6C190.3,18.3,189.9,18.5,190.1,20.1z M165.5,10.9
			c-1.5-0.2-2.2,0.2-3.6,0.6c-1.5,0.4-2.3,0.4-2.3,2c1.1,0.4,2.1,0,3.3-0.4C164.8,12.7,165.6,12.9,165.5,10.9z M157,52.9
			c1-1.4,0.8-2.8,1-4.8c-1.5,0.2-3.2,0.4-2.8,4.5L157,52.9z M153.3,53.2c0.7-0.9,1.9-2.8,2-4.6l-1.8,0.2c-0.6,0.7-1.2,1.8-1.6,2.5
			C150.9,53,151.5,53.2,153.3,53.2z M154.6,18c0.3,0.4,0,0.2,0.7,0.3c0.5,0.1,0.6,0,1.1,0c1.1-0.1,5.1-0.5,3.7-2
			C159.4,15.6,152.9,16.2,154.6,18L154.6,18z M166.5,13.2c-1.6,0-6,0.4-6.3,2.2c1.2,0.8,2.3,0.2,3.7-0.1
			C165.9,14.8,166.4,15.2,166.5,13.2z M166.3,53.4c0.3-1.6,0.1-2-0.4-3.4c-1.5,0-0.4-0.4-2.7,1.6C163.4,54.2,164.3,54.8,166.3,53.4z
			 M172.8,53.6c-0.9,0.3-1.6,0.5-1.6,1.9c0.2,2.9,3.7,3.3,3.1,0.4C174.1,55.1,173.3,54,172.8,53.6z M176.2,33.2
			c-1.6,0.4-2.1,0.4-2.2,2.1c1.8,0.1,6-1.1,6.3-2.5C178.8,32.4,177.6,32.8,176.2,33.2z M142.2,20.3c0.7,1.1,1.4,0.9,2.8,0.8
			c1.2,0,2.6,0.1,2.6-1.1c0-1.3-1.5-0.9-2.6-0.8C143.4,19.3,142.7,19,142.2,20.3z M189.5,25.9c1.1,0.3,2.1,0.4,3.4,0.1
			c0.9-0.2,1.4-0.5,1.6-1.3c0.2-1.3,0.1-0.2-0.1-0.7C193.8,23.9,189.6,23.2,189.5,25.9z M159.6,30.3c0.2-2-0.2-1.9-2-2
			c-1.5-0.1-2.6-0.5-3.5,0.3c0.4,1.2,0.8,0.9,2.3,1.2C157.7,30.1,158,30.5,159.6,30.3z M184.5,25.7c1.1,0.6,5.2,1.5,4.5-1.7
			c-1.4-0.3-3.5-0.1-4.4,0.6L184.5,25.7z M197.8,23.7c1.7-0.2,2.7-0.3,2.4-2.1c-1.2-0.3-3.2-0.2-4.2,0.2
			C195.3,23.8,195.8,24,197.8,23.7z M169.4,51.5c0.6-2.1-1-4.7-2.4-3c0,0-0.4,0.6-0.4,0.7C166.3,50,166.6,52.3,169.4,51.5
			L169.4,51.5z M147.6,27l0-1c-1-0.6-4.1-0.8-5.1-0.1c-0.1,1.5,0.3,1.3,2,1.4C145.6,27.4,146.6,27.5,147.6,27z M160.6,51.8l0.1-4.2
			c-0.8,0.1-1.6,0.4-2.1,0.7C158.4,52.3,158.3,52.4,160.6,51.8z M154,19.5c0-1.7-0.7-1.3-2.4-1.1c-1.2,0.1-2.5,0.2-3.4,0.5
			c-0.1,1.9,0.7,1.4,2.3,1.1C151.7,19.9,153,19.8,154,19.5L154,19.5z M180.7,9.7c-1-0.5-2.1-0.5-3.4-0.6c-1.5-0.1-2.1-0.5-2.9,0.7
			c0.6,0.9,1.2,0.9,2.5,0.9C180,10.7,180.3,10.9,180.7,9.7z M147.2,18.3l-0.2-1.2c-1-0.4-2-0.1-3,0c-1.6,0.1-2-0.1-2.2,1.2
			C143.1,19.3,146,18.8,147.2,18.3z M165.2,35c-0.1-1.5-0.7-1.4-2.3-1.9c-0.9-0.3-2.3-0.9-3.2-1C159.7,34,163.5,35.7,165.2,35z
			 M200,19.5c-1-0.7-4.9-1-4.3,1.1c0.3,0.8,1.8,0.8,2.8,0.6C199.8,20.9,200.1,20.7,200,19.5z M165.9,57.4c3.2,0.3,2.7-2.3,1.5-4.1
			c-0.9,1.2-0.6,1.3-2.2,1.8C165.3,56.1,165.4,56.9,165.9,57.4z M147.7,24.7l0-0.9c-1-0.6-1.7-0.4-3.9-0.4c-1.9,0-1.9,1.5-0.3,1.7
			C144.7,25.3,146.8,25.3,147.7,24.7L147.7,24.7z M153.5,26.2c0.1-1.4-0.3-1.1-0.9-1.2c-0.3-0.1-1.4,0-1.8,0c-1.8,0-2.2-0.3-2.4,1.3
			c0.8,0.6,0.8,0.4,2.4,0.5C152.9,26.6,152.6,26.8,153.5,26.2z M175.2,51.2c-0.8,0.4-1.5,0.7-1.5,1.9c0,0.8,0.6,1.7,1.4,1.7
			C176.9,55,177.3,52.4,175.2,51.2z M158.2,32.7l0.9-1.1c-0.7-0.8-2.4-1.3-3.6-1.5c-0.4-0.1-1.2-0.1-1.4,0.3
			C153.6,30.9,156.7,32.7,158.2,32.7z M152.5,13.6c0.1-1.8-1.5-0.9-2.8-0.5c-1.5,0.5-2.7,0.3-2.6,1.9
			C148.1,15.2,151.8,14.2,152.5,13.6z M158.1,9.9c0.5,0.1,5-0.9,5.2-2.7c-1.2-0.6-1.8,0.1-3,0.6c-0.5,0.2-1.1,0.4-1.7,0.7
			C157.2,9.4,158.1,9.9,158.1,9.9L158.1,9.9z M149.7,24.5c1.6,0,3.3,0.2,4.2-0.3l0.1-1.1C149.2,22.1,147,24.5,149.7,24.5z
			 M172.6,35.3c-1.4,0-2.3,0.4-3.6,0.6c-1.4,0.2-2.9-0.2-3.8,0.3c0.7,1.7,4.4,0.8,5.9,0.3C172,36.1,172.2,36,172.6,35.3z M164.4,9.2
			c-0.6-0.3-0.7-0.3-1.6,0c-2.9,0.8-4.1,0.8-3.8,2.6c1.2-0.1,1.8-0.4,2.9-0.8C163.3,10.5,164.1,10.5,164.4,9.2z M181.3,12.4
			c0-1.4-1.3-1.2-3.8-1.2c-1.8,0-1.2-0.2-1.9,0.6C176.1,13.4,176.8,12.8,181.3,12.4L181.3,12.4z M153.2,14.8c-0.9-0.7-2.1,0-4.5,0.5
			c-1.4,0.3-0.9,0.1-1.3,0.9c0.4,0.3,0.3,0.5,1.6,0.4l3.2-0.7C153.6,15.5,153.1,15.8,153.2,14.8L153.2,14.8z M171.6,46.7
			c0,0-0.4-0.5-1.3-0.4c-0.9,0.1-1,0.5-1.4,1c0.6,2.3,2.8,2.5,3.1,1.3C172.3,47.9,171.9,47.6,171.6,46.7c1,0.5,0.4,0.5,1.7,0.2
			c0.8-1.8-0.1-2.4-2.1-2.3C171.3,45.9,171.2,45.7,171.6,46.7L171.6,46.7z M161.9,50.5l1.6-0.1c0.4-1.6-0.2-2.3-0.6-3.7l-1.7,0.4
			C161.3,48.3,161.4,49.6,161.9,50.5z M159.4,14.5c-0.7-0.7-0.6-0.6-2.8-0.1c-1.3,0.3-2.3,0.3-2.6,1.6c1,0.6,2.2,0.1,4.3-0.5
			C159.5,15,159.1,15.2,159.4,14.5L159.4,14.5z M194.8,25.9c1.4,0.5,5,0.1,5-1.5c-1-0.4-1.9-0.2-3.1,0
			C195.6,24.6,195,24.7,194.8,25.9L194.8,25.9z M165.3,45.5c-0.5,0.2-1.3,0.5-1.7,0.9c0.2,1.1,0.8,3.6,2.4,2.6
			C167,48.3,165.5,46.2,165.3,45.5z M188.5,16.1c0-1,0-1.4-1.1-1.4c-2.6,0-3.6-0.3-3.7,1.1C185,16.8,186.9,16.4,188.5,16.1z
			 M179.2,8.3c-0.6-1.3-4.8-1.5-5.2-1.5c-0.6,0.1-0.3,0.1-0.7,0.3c0.4,1.5,1.1,1.1,2.7,1.3C177,8.5,178.2,8.5,179.2,8.3z M178.3,6.7
			c-0.8-1.2-1.4-0.6-3.1-1.3c-0.5-0.2-1-0.5-1.4-0.7c-1.1-0.4-1-0.3-1.7,0.2C172.7,6.6,176.5,6.8,178.3,6.7L178.3,6.7z M146.6,15.8
			c-0.1-1.4-0.4-1.1-2.9-0.6c-0.2,0-1.2,0.2-1.3,0.2c-1.1,0.5-0.4-0.2-0.8,0.8c0.4,0.4-0.4,0.7,2.5,0.3
			C145.2,16.3,145.8,16.5,146.6,15.8z M187.7,13.3c-0.7-0.6-4.2-1-5.1-0.5c0.5,0.8,0.9,1.3,2.3,1.4
			C187.7,14.5,187.5,13.7,187.7,13.3z M157.8,10.8c-1.3-0.3-1.7-0.1-2.7,0.3c-3,1-1.9,0.3-2.2,1.5C154,13,157.6,12.3,157.8,10.8z
			 M180.2,49.1c0.2-0.6,0.4-1.2,0-1.9c-0.1-0.2-2.5-2.8-2.4,1.5C178.6,49.2,179.2,49.4,180.2,49.1z M178.3,51.9
			c0.4-0.9,0.4-1.6-0.3-2.3c-0.9-0.9-0.9-0.7-2.2-0.6C176,50.8,176.2,52.2,178.3,51.9z M193.7,15.4c0.4-1.7-4-1.5-4.7-0.9
			c0.7,1.9,4.7,1.1,4.5,1C193.4,15.5,193.6,15.4,193.7,15.4L193.7,15.4z M169.3,55.2c2.5-0.4,1.5-2.1,0.6-3.2l-1.9,0.7
			C168.4,54.1,168.4,54.5,169.3,55.2z M144.7,29.3c1.7,0,1.8,0.2,2.6-0.3c-0.2-0.5,0.5-1-2.6-1c-1.4,0-1.8-0.1-2.5,0.7
			C142.9,29.3,143.3,29.3,144.7,29.3z M171.6,50l-1.4,0.3c0,1.1-0.3,1,0.4,1.8c0.3,0.4,0.9,1,1.7,0.6
			C174.1,51.9,172.3,50.4,171.6,50z M192.1,11.5c-0.7-1.3-3.3-1.9-5.3-1.9c0.5,1.5,1,1.3,2.4,1.6C190.2,11.5,191.2,12,192.1,11.5
			L192.1,11.5z M193,27.6c0.9-0.5,0.3-0.1,0.7-0.9l-1.6-0.2c-2.1,0.2-3.2,0.3-3.5,1.7C189.7,28.3,192.1,28.2,193,27.6z M179.2,44.4
			c0,2.1,2.1,3.1,2.7,1.7c0.4-1-0.1-1.6-0.9-2C180,43.6,179.9,43.9,179.2,44.4L179.2,44.4z M158.6,12.5c-0.9-0.2-3.3,0.3-4.4,0.7
			c-1.4,0.6-0.6,0-0.8,1C154.2,14.5,158.3,14.2,158.6,12.5z M153.8,16.9c-0.4-0.4,0.1-0.3-0.7-0.4c-0.5-0.1-4.2,0.6-5.4,1.4
			C149.2,18.4,153.8,17.9,153.8,16.9L153.8,16.9z M182.5,39.4c-0.2,0.2-0.5,0.4-0.7,0.7c-0.4,0.6-0.3,0.2-0.4,1
			c1.4,1.2,2.9,1.6,2.9-1C184.3,40.2,182.5,39.4,182.5,39.4z M181.9,0.8c0.2,0.2,0.4,0.4,0.9,0.8c0.7-0.2,1.2-0.5,1.7-0.8H181.9z
			 M186.5,11.8c-0.4-1-0.2-0.9-1.7-1.1c-1.1-0.1-2-0.2-3.1-0.1c0.3,0.9,0,0.6,0.9,1.1C183.5,12.1,185.4,12.3,186.5,11.8z
			 M192.6,13.3c-0.5-0.8-1.1-0.9-2-1.2c-0.9-0.3-1.6-0.4-2.6-0.4C188.2,14.3,192.3,13.5,192.6,13.3L192.6,13.3z M175.1,45.2
			c0.4-1.6-0.4-2-1-3l-1.3,0.7C172.8,44.5,173.2,45.6,175.1,45.2L175.1,45.2z M166.9,47.3l1.7-0.1c0.3-1.4-0.5-2.2-1.3-2.7l-1.4,1
			L166.9,47.3z M176.9,47.9c0.3-1.6-0.2-1.8-0.8-2.6c-0.9,0.6-1.4,0.8-1.5,2.3C175.4,48.2,175.9,48.5,176.9,47.9z M174.8,50.2
			c0.6-1.2-0.3-2-0.8-2.6l-1,0.3l-0.5,2C173.2,50.2,173.9,50.6,174.8,50.2z M185.1,28.2c0.4,0,1.5,0,1.9-0.1c1.3-0.3,0.9-0.4,1-1
			c-0.4-0.2-3.7-1.1-4.4,1L185.1,28.2L185.1,28.2z M185.4,3.4l-0.2-1.4c-1.2-0.4-1.3-0.3-2.5,0.2l0.3,1.9L185.4,3.4L185.4,3.4z
			 M199.1,16.2c-0.5-0.9-0.3-0.6-1.8-0.8c-1.1-0.1-1.5-0.3-2.6-0.1C195.3,17.4,198.6,16.6,199.1,16.2z M183.3,43.1
			c-0.9-1-1-0.8-2.1-1.3l-0.9,0.7C180.8,44.1,182.6,45.3,183.3,43.1z M183.1,36.9l-0.4,0.9c-0.1,0.3-0.1,0.5-0.2,0.7
			c1.2,1.1,2.6,1.1,2.7-1C185.2,37.5,183.1,36.9,183.1,36.9z M198.7,15.2c-0.4-0.9,0.1-0.7-1-1c-1-0.3-2.8-0.7-3.7-0.3
			C194.7,15.1,197.2,15.2,198.7,15.2z M198.5,26.6c-1.1-0.2-1.6-0.1-2.6,0.1c-1.6,0.3-1.5,0.1-1.8,1.3C195.6,28,198,27.9,198.5,26.6
			L198.5,26.6z M197,13.4c-0.7-1.2-2.5-1.7-3.9-1.9c0.1,1,0.2,1.3,1.3,1.6C195.2,13.5,196,13.4,197,13.4z M182.5,29.7
			c1,0.9,3.7,0.3,4.7-0.6c-0.8-0.5-1.4-0.2-2.4-0.1C183.4,29.1,183,28.8,182.5,29.7L182.5,29.7z M199.6,9c0.2-1.3-0.2-1.1-1.1-1.8
			c-0.6-0.5-0.8-0.9-1.8-0.8c-0.1,1.2,0.3,1.1,1.1,1.8C198.5,8.8,198.5,9.1,199.6,9L199.6,9z M170.1,45.6c0.7-1,0.1-1.5-0.8-2.4
			l-1.4,0.7C168.5,44.9,168.9,46.1,170.1,45.6L170.1,45.6z M184.4,4.4c-1.2,0.5-0.8,0.2-0.8,1.7c0.9-0.2,3.7-0.7,2.5-1.9
			C185.7,3.8,184.9,4.2,184.4,4.4z M197.7,32.9c-1,0.8-1.1,0.3-1.2,1.8c0.8,0,3-1.2,3.1-2.5C198.4,31.9,198.5,32.2,197.7,32.9z
			 M197.6,11.8c0.5,0.8,0.6,0.8,1.6,1.3l0.3-3.4C198.4,10.3,197.9,10.9,197.6,11.8L197.6,11.8z M199.2,28.1l-1.8,1
			c0.4,1.3,0.9,1.8,2,2.3C199.4,31.4,199.2,28.1,199.2,28.1z M185.8,36.9c0.5-1.8-0.9-1.7-2.5-2l0,1.3C184,36.6,184.9,37,185.8,36.9
			L185.8,36.9z M178,45.8c0.3-1.5-0.4-2.1-1.3-2.5l-0.6,0.5C176.2,45.2,176.5,45.9,178,45.8z M171.9,43.8c0,0,0.7,0-0.1-1.1
			c-0.3-0.5-0.7-0.6-1.1-0.9l-0.9,0.8c0.2,0.5,0.5,1.3,1.2,1.4C172.4,44.2,171.8,43.9,171.9,43.8z M197,0.8c0,0.4,0.3,0.8,0.7,1.2
			c0.3-0.4,0.7-0.6,0.8-1.2C198.5,0.8,197,0.8,197,0.8z M197.4,39c-0.8,0.9-0.8,1.4-0.4,2.6l1.1-0.1C198.4,40.6,198.4,39.6,197.4,39
			z M118.3,16.2c0.9-1.1,0.1-2.2-0.8-1.9C116.5,14.5,116.3,16.3,118.3,16.2z M118.3,21.5l0.9,0c-0.2-1.5-0.9-1.9-2.5-2.2
			C117,20.8,117.3,20.7,118.3,21.5l-1.2-0.1c0.3,1.3,0.9,1.8,2.3,2C119.6,22.1,119.1,22.2,118.3,21.5z M179,43.5
			c0.9-1.4,0.2-1.4-0.9-2l-0.9,0.7C177.6,43.2,177.5,43.5,179,43.5z M176,42.9c0.1-0.1,0.5,0,0.2-1.1c-0.2-0.8-0.3-0.5-0.8-0.8
			c-0.1,0-0.1-0.2-0.7,0.4c-0.8,0.6-0.2,0.1-0.5,0.6C174.9,42.6,175.2,43.3,176,42.9L176,42.9z M200,43c0,0,0.9,0.2,0.2-1.4
			c-0.4-0.9-0.4-0.6-1.2-0.8C198.9,41.9,198.8,43.2,200,43L200,43z M181.3,39.7c0.5-1-0.4-1.3-1.5-1.5l-0.5,0.9
			C181,40.6,181.2,39.7,181.3,39.7z M185.7,8c1.1,0.4,1.9,0.9,3,0.1C188.3,6.4,186.3,7.5,185.7,8z M174.6,39.3
			c-0.4-0.2-0.1,0.2-0.7-0.4c-0.6,0.6-0.6,0.3-1,1c0.8,0.9,0.4,1,2,0.9C174.8,40.2,174.7,39.8,174.6,39.3c1.1,0.4,1,0.2,1.3,0
			c0.1-0.6-0.2-1-0.9-1.3c-1-0.4,0-0.1-0.5,0.1c-0.1,0.3-0.2,0.1-0.2,0.6C174.3,38.8,174.5,39.3,174.6,39.3L174.6,39.3z M181.5,4.5
			c1.5-0.4,0.9-2.3-0.9-1c-0.4,0.2-0.2,0.2-0.5,0.5C180.8,4.7,180.3,4.8,181.5,4.5z M118.6,25.3l1,0.2c-0.1-1.4-0.6-1.8-2-2.1
			C117.9,24.5,118.2,24.7,118.6,25.3l-0.9-0.1c0.3,1.3,0.5,1.6,1.8,1.8C119.4,26,119.1,25.8,118.6,25.3z M182,37.7
			c0.2-1.1-0.2-1.1-1.3-1.3c-0.3,0.3-0.5,0.4-0.8,0.7C180.6,37.9,181,38.1,182,37.7L182,37.7z M182.7,6.2l0.2-1.3
			c-1.1-0.3-1.8-0.3-2.2,0.9L182.7,6.2L182.7,6.2z M200,3c-1,0.3-0.4-0.7-1,1.8l1.2-0.1C200.4,3.6,200.5,3.9,200,3L200,3z
			 M179.2,4.6c-0.6,0-0.5,0.3-0.7,0.8c0.1,0.1-0.3,0.3,0.9,0.3c1.1,0,0.3-0.1,0.6-0.3C180,5,180.8,4.6,179.2,4.6z M177.1,3.1
			c-0.5-0.3-0.3-0.6-1.2-0.1c-0.9,0.5-0.4,0.2-0.3,0.7C176.6,4.4,176.9,4.1,177.1,3.1z M176.9,38.2c0-1.6-0.6-1.6-1.6-0.8
			C175.8,38,175.7,38.2,176.9,38.2z M118.1,13.7l-0.1-1.3C116.1,12.5,116.4,13.6,118.1,13.7z M173.1,37.1c-2.7,0.4-3.7,3.2-5.8,4.7
			c-5.7,4-7.5,3.2-12.7,5.7C160.7,47.5,169.6,42.8,173.1,37.1z M173.3,3.8c-0.5-1-1.4-2.1-2.4-3h-1.5C170.7,1.9,171.5,3.7,173.3,3.8
			z M199.2,38c-0.8-0.4-0.6-0.3-1.2-0.9l-2.8-2.8c-2.9-2.9-2.3-3-4.3-2.6c0.6,1,2.8,2.6,3.8,3.4c0.6,0.5,0.7,0.7,1.2,1.2
			c0.7,0.7,1.9,1.5,2.4,2.2c0.6,0.9,0.2,1.2,1.3,1.9l1,0.3c0-1.6-0.1-1.5-1.2-2.2c0.1-0.1,0.3-0.3,0.3-0.4c0.8-1.2,0.5-1.7-0.2-2.2
			C198.9,36.3,198.6,36,199.2,38z M147.8,21.8c-1-0.4-2.7-0.3-4.1-0.3c-1.1,0-1.2,0.1-1.4,1.1c1,0.8,1.5,0.5,3.2,0.5
			C147.1,23.2,147.9,23.5,147.8,21.8z M153.6,28c-0.5-0.9-0.2-0.7-2.5-0.8c-1.3-0.1-1.8-0.2-3,0.1c0.3,0.8-0.8,0.6,2.5,1.2
			c0.3,0,1.4,0.2,1.7,0.2C153.8,28.6,153.1,28.7,153.6,28z M189.7,16.5c-0.1,1.6,4.4,1.6,5,0.3c-0.7-0.7-1.1-0.5-2.2-0.6
			c-1.2-0.1-1.3-0.3-2.3,0L189.7,16.5L189.7,16.5z M199.6,18.2c-0.2-2-3.3-1.6-4.3-0.5c0.3,0.6-0.6,0.2,0.8,0.7
			C196.7,18.6,198.8,18.6,199.6,18.2z M119,9.5l0.3,1.9c0.6-1,0.4-1.3,0.2-3.1c-1.1,0.6-0.6,0.6-1.5,1.5c-1,1-1.3,0.5-1.1,2
			C119.4,11.8,118.8,12,119,9.5z M152.9,30c-0.2-0.7,0.7-0.5-1.8-1.1c-1.2-0.3-1.7-0.4-2.9-0.4C148.7,30.5,152.4,30.2,152.9,30z
			 M174.7,1.7c0.3-0.6,0.4-0.7,0.4-0.9h-1.8L173,1.4c0.3,0.1,1.1,0.5,1.2,0.6c0.8,0.5,0,0.1,0.7,1.1c0.9-0.4,1-0.4,1.3-1.3
			C175.4,1.2,175.9,1.3,174.7,1.7L174.7,1.7z M190.5,29.5c2.8-0.7,1.8-0.3,2.2-1.1c-0.3-0.1-4.7,0-5.2,1.5
			C188.8,30.2,189.3,29.8,190.5,29.5z M164,36.4c-0.4-1.1-1.6-1.1-2.7-1.7c-1.2-0.7-1.5-1.5-2.8-1.7C159,34,162.5,37,164,36.4z
			 M184.6,8.6c-1.2-0.8-3.2-1.4-4.9-1.6c0.6,1.1,1.1,1.1,2.3,1.5C185,9.5,184.4,8.7,184.6,8.6z M187,31.6c1-0.1,1.7-0.2,2.7-0.5
			c2.8-0.7,2-0.6,2-1.2C190.3,29.9,187.3,30.5,187,31.6z M176.9,39.9c1.2,0.2,0.7,0.4,1.6-0.3l-0.6-1.4c-0.6,0.3-0.1-0.1-0.7,0.5
			l-1.3,1.9c0.5,0.6,0.4,0.7,1.4,0.9C177.2,40.7,177,40.4,176.9,39.9L176.9,39.9z M184.2,31.8c0.9-0.6,1-0.2,1.9-1.2
			c-0.3-0.1-3.5-0.4-4.4,1.2L184.2,31.8c-0.3,0.2-0.4,0.3-0.8,0.4c-1.1,0.3-1.3,0-2.3,0.7c1.1,0.3,2.7,0.1,3.8-0.4
			c1-0.4,0.6-0.3,0.9-0.7L184.2,31.8L184.2,31.8z M192.7,29.7c1.2,0.4,3.2-0.4,4.2-1.2C196.3,28.2,193.4,28.2,192.7,29.7z
			 M185.5,33.1c1,0.7,1.9,1,3,0.4c-0.2-1,0-1.1-1.4-1C186.5,32.6,186,32.9,185.5,33.1z M157.1,9.5c-0.4-0.2,0.8-0.9-1.9,0.3
			c-0.3,0.1-0.5,0.2-0.8,0.3c-0.7,0.4-0.4,0.1-0.8,0.6c0.8,0.5,0.9,0.2,1.8-0.1C156.5,10.2,156.6,10.4,157.1,9.5z M180.9,2.7
			c0.7-0.2,0.8-0.7,0.8-1.2c-0.9-0.9-1.6-0.1-2.3,0.4C179.8,2.4,179.8,3.1,180.9,2.7z M179.1,0.8l0.2,0.3c0.2,0,0.7-0.2,1-0.3H179.1
			z M181,8.8c0.7,1.5,3.4,1.6,4.2,0.8L181,8.8z M180.4,41.4c0.1-1.4-0.1-1.1-1.3-1.7l-0.6,1.1C179.1,41.5,179.5,41.9,180.4,41.4
			L180.4,41.4z M182.4,36.2c0.3-0.5,0.3,0.6,0.3-0.8c0-0.1-0.2-0.5-0.3-0.7l-1.8,0.6C180.8,36.2,181.6,36.4,182.4,36.2L182.4,36.2z
			 M172.9,42.1c0-0.1,1-0.4-0.5-1.8l-1,1.1C172.1,42.3,171.8,42.4,172.9,42.1L172.9,42.1z M162.2,5.5c-1.2,0-1.7,0.4-2,1.4
			C161.6,6.9,162.1,6.6,162.2,5.5z M116.3,11.5c-1.5,0-1.7,0-2.3,0.9C115.3,13.2,115.8,12.4,116.3,11.5z M178.4,35.6
			c0.4,1.3,1,1.2,1.6,0.3C179.5,35.1,179.3,35,178.4,35.6z M179.1,2.9C176,2.8,179.8,6,179.1,2.9z M178.9,38.1
			c0.3-1.3,0.2-0.9-0.5-1.3C177.3,37.5,177.6,38,178.9,38.1z M190.5,7.2c-0.7,0.3-0.1-0.1-0.4,0.6c1,0.7,1-0.1,1.2-0.4
			C191.1,7.3,191.7,6.8,190.5,7.2z M196.2,32.6c-0.5-0.1-0.6-0.2-1.1,0c0.3,1-0.2,0.6,1.1,0.9L196.2,32.6l1,0.1
			c-0.4-1.4,0-1-1.1-0.9C196.1,31.8,196.2,32.6,196.2,32.6z M195.9,31.1c-0.1-1.2,0.1-1.1-1.2-0.9C195.1,31,194.8,31,195.9,31.1z
			 M192.6,35.6c-0.3-1.2-1-0.4-1.3-0.3C191.9,36,191.8,36.1,192.6,35.6z M193.9,9.5c-0.9,0.8,0.1,0.6,0.1,0.6c0,0,0.4,0.8,0.8-0.8
			C194.2,9.3,194.4,9,193.9,9.5L193.9,9.5z M196.5,8.3l-0.2,0.9c1.5,0.1,0.6,0.5,1.1-0.6C197,8.3,198,8.3,196.5,8.3l-0.3-0.8
			c-1,0.3-0.7-0.2-0.8,1C195.9,8.5,196.1,8.5,196.5,8.3z M192.2,5.2c-0.6-0.1-0.6,0.5-0.6,0.5c0.8,0.7,0.4,0.4,1.2,0.2
			C192.4,5,193.2,5.3,192.2,5.2z M198.1,31.9c-0.3-0.9,0-1.5-1.2-0.7C197.5,32.2,196.8,31.6,198.1,31.9z M196.6,10.7
			c-0.7,0.2-0.2,0.1-0.4,0.5c0.8,0.8,0.7,0.3,1.1-0.3C197.3,10.9,197.7,10.4,196.6,10.7z M197.2,30.4c-0.3-0.8-0.1-1.3-1.2-0.6
			C196.4,30.7,195.7,30.2,197.2,30.4z M198.3,9.1c-1,0.2-0.9,0.1-1.2,1C198.3,10,197.9,10.6,198.3,9.1z M193.4,6.2
			c-1.4,0.1-0.9-0.2-1.3,0.7C193,6.8,192.6,7.6,193.4,6.2z M189.9,33.5c0.5,0.3-0.4,0.2,0.5,0.2c0.7,0,0.4-0.1,0.7-0.3
			C191.1,33.5,190.7,32.2,189.9,33.5z M194.6,31.8c-0.3-0.9,0-1.6-1.2-0.6L194.6,31.8z M190.7,34.7c-0.1,0-0.1-0.8-1.2-0.3
			C190,35.3,189.9,35.1,190.7,34.7z M194.4,5.3c0.1-1.2,0.3-0.7-0.8-0.8C193.7,5.6,193.3,5.3,194.4,5.3z M178.6,1.3
			c-0.8-0.6-0.4-0.3-1.5-0.2l0.1-0.3h-1.1c0.3,0.3,0.5,0.5,0.7,0.8c0.7,0.9,0.3,0.8,1.3,1.2L178.6,1.3L178.6,1.3z M185.5,7
			c1.1-0.3,0.5,0,0.9-0.6c-0.6-0.4-1.7-0.1-2.4,0.5C184.2,6.9,184.2,7.4,185.5,7L185.5,7z M186.2,34.7c-0.3-0.5-0.1-0.4-1-0.7
			c-1.1-0.3-0.8-0.1-1.3,0.1c0.3,0.3,0.8,0.5,1.2,0.7C185.8,34.9,185.6,35,186.2,34.7L186.2,34.7z M195,10.7c1,0.5,1,0.2,1-0.7
			C194.8,9.9,195.3,10.1,195,10.7z M190.9,6.3c-1-0.5-0.7-0.4-1.2,0.3c0.3,0.3-0.5,0.6,0.8,0.2C191.4,6.5,190.6,6.8,190.9,6.3z
			 M193.2,34.5c-0.7-0.7-0.1-0.6-1.2-0.3C192.3,35.4,192.7,34.9,193.2,34.5z M194.3,36.1c-0.8-0.8-0.5-0.7-1.1,0.1
			c0.4,0.4-0.1,0.3,0.6,0.3C194.7,36.5,193.9,36.6,194.3,36.1z M177.8,4.4l-0.9,0.1C176.9,4.5,177.4,5.5,177.8,4.4z M195,4.3
			c0.7-0.6,0.1,0.8,0.8-0.8C194.9,3.9,195.2,3.4,195,4.3z M177.2,36c-0.8,0-0.4,0.3-0.6,0.4c0.8,0.6,0.6,0.2,1.1,0
			C177.6,36.3,177.8,36,177.2,36z M198.1,35.1c-0.3,0.4-0.3-0.2-0.2,0.4c0.1,0.7-0.1,0.1,0.4,0.3C198.9,34.9,198.7,35.5,198.1,35.1z
			 M195.6,37.3c-0.5-0.6,0-0.2-0.8-0.5C194.9,37.4,194.5,37.8,195.6,37.3z M198.1,5.8c0.5-0.2,0.5,0,0.6-0.5l-0.4-0.1
			C197.8,5.4,198.1,5.4,198.1,5.8L198.1,5.8z M118.1,30.2c-0.3-0.7-0.3-0.7-0.9-1C117.4,29.9,117.2,30,118.1,30.2z M199.2,6.8
			c0.4-0.5,0.6,0,0-0.7C198.4,6.9,199,6.6,199.2,6.8z"/>
	</g>
</g>
</svg>
