<?xml version="1.0" encoding="utf-8"?>
<!-- Generator: Adobe Illustrator 26.0.1, SVG Export Plug-In . SVG Version: 6.00 Build 0)  -->
<svg version="1.1" id="Слой_1" xmlns:xodm="http://www.corel.com/coreldraw/odm/2003"
	 xmlns="http://www.w3.org/2000/svg" xmlns:xlink="http://www.w3.org/1999/xlink" x="0px" y="0px" viewBox="0 0 238.1 150.2"
	 style="enable-background:new 0 0 238.1 150.2;" xml:space="preserve">
<style type="text/css">
	.st0{fill-rule:evenodd;clip-rule:evenodd;}
</style>
<g id="Слой_x0020_1">
	<path class="st0" d="M156.5,75.2c0.1,0.2,0.2,0.4,0.3,0.7l6.6,15.5c0.3,0.6,2.3,5.1,2.2,5.4l-9.1,21.5L156.5,75.2L156.5,75.2z
		 M156.4,75.2c0,0.1,0,0.2-0.1,0.3l-2.2,5.1c-0.8,1.8-1.5,3.6-2.3,5.4l-4.1,9.5c-0.1,0.2-0.4,1.2-0.6,1.3c-0.2,0.1-1.1,0.4-1.4,0.6
		l-20.7,8.3c0.6-0.7,1.3-1.3,2-1.9L134,97c0.3-0.3,0.6-0.6,1-0.9c1.9-1.8,3.9-3.9,5.9-5.7l9.8-9.5c0.3-0.3,0.6-0.7,1-1
		C152.1,79.4,156.3,75.4,156.4,75.2z M188,105.6c-0.2-0.1-0.7-0.6-1-0.9l-3.9-3.8c-2-1.9-3.9-3.9-5.9-5.7c-0.3-0.3-0.6-0.6-1-0.9
		l-2.9-2.9c-0.3-0.3-0.6-0.6-1-0.9c-0.3-0.3-0.6-0.7-1-1l-4.9-4.7c-0.3-0.3-0.6-0.7-1-1c-0.3-0.3-0.6-0.6-1-0.9
		c-0.3-0.3-0.6-0.7-1-1c-0.3-0.3-0.6-0.6-1-0.9l-2.5-2.4c-0.2-0.2-0.3-0.3-0.5-0.5c-0.3-0.3-0.6-0.6-1-0.9l-1.9-1.9l11.1,4.4
		c1.8,0.7,3.7,1.5,5.5,2.2l5.5,2.2c0.2,0.2,4.2,9.7,4.7,10.8c0.8,1.8,1.5,3.6,2.3,5.4C186.5,102,187.3,103.8,188,105.6L188,105.6z
		 M156.4,75.2l-2.8,1.1c-3,1.2-19.2,7.8-19.4,7.8c-0.3,0-4.9-1.9-5.6-2.2c-4.6-1.8-9.3-3.7-13.9-5.6c-0.6-0.2-2.4-0.9-2.7-1.1
		c1.8-0.1,3.8,0,5.6,0c11.1,0,22.2,0,33.3,0c1.1,0,4.2-0.1,5.2,0C156.4,75.1,156.3,75.1,156.4,75.2L156.4,75.2z M156.6,75.1
		c0.2-0.2,15-6.1,16.6-6.7c0.7-0.3,5.3-2.2,5.6-2.2c0.2,0,1.2,0.5,1.4,0.6c0.5,0.2,0.9,0.4,1.4,0.6c0.9,0.4,1.8,0.7,2.8,1.1
		l13.9,5.6c0.9,0.4,1.8,0.8,2.7,1.1L156.6,75.1L156.6,75.1z M156.5,75l-2.3-5.4c-0.8-1.8-1.6-3.6-2.3-5.4
		c-0.4-1.1-4.6-10.6-4.6-10.8l4.6-10.7c0.1-0.3,4.4-10.4,4.6-10.7c0.1,1.7,0,3.7,0,5.4l0,37.4C156.5,75,156.6,74.9,156.5,75z
		 M156.5,75l-16.6-6.6c-1.8-0.7-3.7-1.4-5.5-2.2c-0.4-0.2-0.5-0.9-0.7-1.3c-0.2-0.5-0.4-0.9-0.6-1.4c-0.4-0.9-0.8-1.8-1.2-2.7
		c-2.1-4.9-4.2-10-6.3-14.9c-0.2-0.4-0.5-1-0.5-1.3l5,4.8c0.3,0.3,0.6,0.6,0.9,0.9c0.4,0.3,0.7,0.6,1,0.9l6.8,6.6
		c0.3,0.3,0.7,0.6,1,0.9c0.3,0.3,0.6,0.6,0.9,1c0.4,0.3,0.7,0.6,1,0.9l2,1.9c0.3,0.3,0.6,0.6,0.9,0.9l6.9,6.6
		C152.1,70.8,156.3,74.9,156.5,75z M165.2,54.6c0.1-0.3,0.4-1.1,0.7-1.2c0.8-0.4,1.9-0.8,2.8-1.1l16.5-6.6c0.9-0.4,1.9-0.8,2.7-1.1
		c-0.1,0.2-0.7,0.7-1,1l-1,1c-0.3,0.3-0.7,0.6-1,0.9c-1.6,1.5-3.3,3.2-4.9,4.7l-14.7,14.3c-0.3,0.3-0.6,0.6-0.9,0.9l-1.5,1.4
		c-0.5,0.5-0.9,0.9-1.5,1.4c-0.3,0.3-0.6,0.6-0.9,0.9l-3.5,3.3c-0.2,0.2-0.2,0.3-0.5,0.5L165.2,54.6L165.2,54.6z M129.5,64.3
		l-26.9,10.8l26.9,10.8l-1.4,3.3c-0.8,1.8-9.7,22.6-9.7,22.9l26.9-10.8l11.2,26.1l11.1-26.1l26.9,10.8c0-0.3-1.2-2.8-1.4-3.3
		c-0.8-1.8-9.7-22.5-9.8-22.9l27-10.8l-27-10.8l11.2-26.2l-26.9,10.8l-11.1-26.1c-0.2,0.3-0.6,1.2-0.7,1.6l-4.9,11.4
		c-0.2,0.5-5.4,12.6-5.6,13l-26.9-10.8L129.5,64.3L129.5,64.3z"/>
</g>
</svg>
