<?xml version="1.0" encoding="utf-8"?>
<!-- Generator: Adobe Illustrator 24.0.2, SVG Export Plug-In . SVG Version: 6.00 Build 0)  -->
<svg version="1.1" id="Слой_1" xmlns="http://www.w3.org/2000/svg" xmlns:xlink="http://www.w3.org/1999/xlink" x="0px" y="0px"
	 viewBox="0 0 238.1 150.2" style="enable-background:new 0 0 238.1 150.2;" xml:space="preserve">
<g>
	<path class="st0"  d="M87.6,82.9c1.3-0.9,2.4-1.7,3.5-2.5c2.9-2.1,5.7-4.2,8.6-6.3c0.4-0.3,0.7-0.3,1.2,0.1c3.8,2.8,7.5,5.5,11.4,8.2
		c0.1,0.1,0.3,0.2,0.6,0.4c-1.5-4.7-3-9.2-4.5-13.8c-0.9,0.3-1.7,0.5-2.6,0.9c0.6-3,1.2-5.9,1.8-8.9c2.2,2.1,4.4,4.1,6.5,6.2
		c-0.7,0.3-1.3,0.5-2.1,0.8c2.7,8.2,5.3,16.5,8,24.6c-0.1,0-0.1,0.1-0.2,0.1c-1.6-1.1-3.1-2.2-4.7-3.3c-4.6-3.3-9.2-6.5-13.8-9.9
		c-1.1-0.8-1.5-0.5-2.3,0.1c-5.5,4-11,8-16.5,11.9c-0.6,0.4-1.3,0.9-2.1,1.3c2.5-7.7,4.9-15.3,7.4-23c-6.5-4.7-13-9.5-19.4-14.2
		c0-0.1,0-0.2,0.1-0.2c0.4,0,0.6,0,1,0c7.4,0,14.9,0,22.2,0c0.6,0,0.9-0.1,1.2-0.8c1.5-4.8,3.1-9.7,4.7-14.5
		c0.8-2.5,1.6-4.9,2.4-7.4c0-0.1,0.1-0.2,0.2-0.4c0.8,2.2,1.5,4.4,2.2,6.5c1,3,2,6.1,3,9c0.7,2.2,1.5,4.5,2.1,6.7
		c0.2,0.6,0.4,0.7,1.1,0.7c6.1,0.1,12.3,0.1,18.3,0.2c3.8,0.1,7.7,0.1,11.5,0.2c3.5,0.1,7.1,0.1,10.6,0.2c3.8,0.1,7.5,0.1,11.3,0.2
		c3.5,0.1,7.1,0.1,10.6,0.2c3.8,0.1,7.5,0.1,11.3,0.2c7,0.1,14,0.3,20.9,0.4c4.4,0.1,8.8,0.2,13.2,0.4c0.3,0,0.5,0,0.8,0.2
		c-1.8,0.1-3.6,0.2-5.4,0.3h-0.1c-6.4,0.1-12.8,0.1-19.2,0.2c-4.2,0.1-8.5,0.2-12.7,0.2c-3.4,0.1-6.8,0.1-10.2,0.2
		c-3.9,0.1-8,0.1-11.9,0.2c-3.4,0.1-6.8,0.1-10.2,0.2c-3.8,0.1-7.5,0.1-11.4,0.2c-6.3,0.1-12.5,0.3-18.8,0.4c-4,0.1-8,0-12.1,0
		c-1.5-4.7-3.1-9.5-4.7-14.6c-1.7,5.1-3.2,9.9-4.8,14.8c-5.1,0-10.2,0-15.6,0c2.1,1.6,4.1,3,6.1,4.5c1.9,1.3,3.8,2.8,5.7,4.1
		c0.5,0.4,0.7,0.8,0.4,1.5c-1.4,4.4-2.9,8.8-4.3,13.2C87.7,82.4,87.7,82.4,87.6,82.9z"/>
	<path class="st0"  d="M194.1,73.4c1.2,0.5,2.4,1,3.5,1.8c2.1,1.5,1.9,5.2-0.7,6.5c-1.5,0.8-3.2,1.2-4.9,1.2c-3.1,0.1-6.3,0-9.4,0
		c-0.8,0-1.1-0.3-0.9-1.2c0.4,0,0.8,0,1.2,0c1,0,1.3-0.4,1.3-1.3c0-4.4,0-8.7,0-13.1c0-1-0.5-1.2-1.3-1.3c-0.4-0.1-0.9,0-1.3,0
		c0-0.4,0-0.7,0-1.2c0.3,0,0.6,0,0.9,0c3.5,0,7,0,10.5,0c1.3,0,2.7,0.4,3.8,1.4c1.9,1.7,1.5,4.9-0.9,6.2
		C195.2,73,194.6,73.2,194.1,73.4z M188.1,77.8c0,0.9,0,1.8,0,2.8c0,0.9,0.4,1.3,1.3,1.3c0.6,0,1.3,0,1.9,0c2.2-0.2,3.3-1.2,3.6-3
		c0.3-2.1-0.6-4.1-2.7-4.4c-1-0.1-2.1-0.1-3-0.2c-0.9-0.1-1.1,0.4-1.1,1.1C188.1,76.2,188.1,77,188.1,77.8z M188.1,70L188.1,70
		c0,0.3,0,0.5,0,0.7c0,2.4,0,2.4,2.4,2.3c1.9-0.1,3.1-1,3.4-2.6c0.1-0.5,0.1-1.2,0-1.7c-0.1-1-0.4-2-1.4-2.2c-1-0.3-2-0.4-3-0.4
		c-1-0.1-1.3,0.6-1.3,1.4C188.1,68.5,188.1,69.3,188.1,70z"/>
	<path class="st0"  d="M173.3,65.1c2.2,0,4.5,0,6.7,0c0,0.4,0,0.6,0.1,1c-0.2,0-0.3,0.1-0.4,0.1c-1.5,0.3-2.2,1.2-2.2,2.8c0,2.6-0.1,5.2,0,7.9
		c0.2,3.9-2.6,6.2-5.8,6.4c-2.1,0.2-4-0.1-5.9-1.1c-1.9-1-2.4-2.6-2.4-4.5c-0.1-3.3,0-6.5,0-9.8c0-1.3-0.3-1.6-1.6-1.7
		c-0.3,0-0.4,0-0.8,0c0-0.4,0-0.7,0-1.1c3,0,5.9,0,8.9,0c0,0.3,0,0.6,0,1.1c-0.5,0-1,0-1.5,0c-0.7,0-1.1,0.4-1.1,1.1
		c0,3.6,0,7.1,0,10.6c0,1.8,1.3,3,3.1,3.4c1.7,0.3,3.2,0,4.5-1.3c0.9-0.9,1.1-2.1,1.1-3.1c0.1-2.6,0-5.3-0.1-8
		c0-1.6-0.9-2.6-2.5-2.9C173.3,65.7,173.3,65.4,173.3,65.1z"/>
	<path class="st0"  d="M114.7,40.4c0,2.9,0,5.6,0,8.5c0,1.1,0.5,1.7,1.5,2.1c0.3,0.1,0.4,0.4,0.5,0.6c-0.3,0.2-0.4,0.4-0.7,0.4
		c-1.2,0.1-2.3,0.1-3.5,0c-0.3,0-0.4-0.3-0.7-0.4c0.2-0.3,0.3-0.5,0.5-0.7c0.9-0.4,1.3-1,1.3-2c0-2.4,0-4.9,0-7.3
		c0-1.8,0-1.8-1.8-1.8c0-0.3,0-0.5,0-0.9c1.6,0,3.2,0,4.8,0c0.2,0,0.5,0.4,0.6,0.6c0.9,2.6,1.8,5.3,2.7,8.1c0.9-2.7,1.8-5.2,2.5-7.7
		c0.3-0.7,0.5-1.1,1.3-1c1.4,0.1,3,0,4.5,0c0,0.4,0,0.6,0,0.9c-0.1,0.1-0.2,0.1-0.2,0.1c-1.6,0-1.6,0-1.6,1.6c0,2.8,0,5.5,0,8.3
		c0,1.3,0.1,1.3,1.4,1.3c0.1,0,0.3,0,0.4,0c0.1,0.5,0.1,0.9-0.6,0.9c-1.8,0-3.6,0-5.4,0c-0.6,0-0.8-0.3-0.7-0.9
		c1.9-0.3,1.9-0.3,1.9-2.2c0-2.7,0-5.4-0.2-8.1c-0.7,2.1-1.4,4.2-2.1,6.3c-0.4,1.4-1,2.8-1.4,4.2c-0.1,0.3-0.4,0.4-0.6,0.7
		c-0.3-0.3-0.6-0.4-0.7-0.7c-0.7-2.1-1.4-4.4-2.1-6.5c-0.5-1.5-1.1-3-1.5-4.5C114.8,40.3,114.7,40.3,114.7,40.4z"/>
	<path class="st0"  d="M159.8,51c0,0.4,0.4,0.8-0.4,0.8c-1.9,0-3.7,0-5.5,0c-0.6,0-0.8-0.3-0.6-0.9c0.4,0,0.7,0.1,1,0c0.4-0.2,0.5-0.5,0.8-0.8
		c0.1-0.1,0-0.3,0-0.4c0-3,0-6-0.1-9c-0.6,1.7-1.2,3.4-1.8,5.1c-0.6,1.8-1.3,3.6-1.9,5.4c-0.1,0.3-0.4,0.5-0.5,0.8
		c-0.3-0.3-0.6-0.5-0.7-0.9c-1.3-3.5-2.4-7-3.7-10.6c0,0,0,0-0.2-0.1c0,1.7,0,3.3,0,5c0,1.2,0,2.3,0,3.5c0,1.1,0.4,1.6,1.5,2
		c0.3,0.1,0.4,0.4,0.6,0.5c-0.2,0.2-0.4,0.5-0.6,0.5c-1.4,0.1-2.9,0-4.3,0c0-0.4,0-0.7,0-1c1.3-0.4,1.9-1,1.9-2.4c0-2.3,0-4.7,0-7
		c0-1.4,0.3-2-1.9-2c0-0.3,0-0.5-0.1-0.9c1.7,0,3.3,0,4.9,0c0.2,0,0.4,0.4,0.5,0.7c0.8,2.4,1.6,4.8,2.5,7.2c0.1,0.2,0.2,0.4,0.3,0.6
		c1-3,1.9-5.7,2.9-8.7c1.6,0,3.2,0,4.9,0c0.2,0,0.4,0.3,0.6,0.4c-0.2,0.2-0.4,0.4-0.7,0.4c-1.2,0.1-1.3,0.3-1.3,1.5c0,2.7,0,5.3,0,8
		C157.8,50.9,157.8,50.9,159.8,51z"/>
	<path class="st0"  d="M138.1,66.2c0.7-0.4,0.4-2,1.9-1.4c0.1,2.3,0.2,4.7,0.3,7.1c-0.4,0-0.7,0-1.1,0c-0.4-1.1-0.7-2.1-1.3-3.2
		c-0.8-1.6-2.1-2.7-4-2.8c-1.7-0.1-3.4,1.2-4,3c-0.7,2.1-0.9,4.3-0.6,6.5c0.2,1.8,0.4,3.4,1.4,4.9c0.6,0.9,1.5,1.3,2.5,1.5
		c2.9,0.4,5.3-1.3,6-4.1c0.2-0.6,0.2-1.5,1.3-1.1c-0.1,2.2-1,4-2.9,5.4c-4,2.9-10.4,1.2-12.3-4.1c-1.4-4-1-7.9,2.2-11.1
		c2.4-2.4,7.1-3,9.8-1C137.7,66,138,66.1,138.1,66.2z"/>
	<path class="st0"  d="M143.2,66.2c0-0.4,0-0.7,0-1.2c3,0,6.1,0,9.2,0c0,0.4,0,0.7,0,1.1c-0.6,0-1.3,0.1-1.9,0.1c-0.6,0.1-1,0.5-1,1.2
		c0,4.4,0,8.8,0,13.2c0,0.6,0.2,1,0.9,1.1c2.1,0.3,4.3,0.5,5.8-1.3c0.7-1,1.1-2.1,1.6-3.3c0.2-0.3,0.2-0.6,0.3-1c0.4,0,0.6,0,1.1,0
		c-0.2,2.3-0.3,4.6-0.4,6.9c-5.3,0-10.4,0-15.7,0c0-0.4,0-0.6,0-1.1c0.4,0,0.7,0,1.1,0c1,0,1.5-0.3,1.5-1.3c0-4.4-0.1-8.9-0.2-13.2
		c0-0.5-0.3-0.9-0.8-0.9C144.4,66.2,143.9,66.2,143.2,66.2z"/>
	<path class="st0"  d="M170.4,44.9c0.9,0.5,1.9,1,2.7,1.6c1.3,1.2,0.9,3.4-0.4,4.4c-1.3,0.9-2.8,1-4.2,1c-2.1,0.1-4.4,0-6.5,0
		c-0.6,0-0.9-0.2-0.7-0.8c0.2,0,0.4-0.1,0.6,0c0.9,0.1,1.3-0.4,1.3-1.3c0-3,0-5.8,0-8.8c0-1.3,0-1.3-1.3-1.3c-0.1,0-0.3,0-0.4,0
		c0-0.3-0.1-0.5-0.1-0.8c0.2,0,0.4-0.1,0.5-0.1c2.7,0,5.3,0,8,0c1.8,0,3.8,1.3,3.5,3.5c-0.1,1.1-0.8,1.7-1.6,2.2
		C171,44.6,170.6,44.8,170.4,44.9z M165.9,45.5c-0.1,0.3-0.2,0.3-0.2,0.4c0,1.1,0,2.1,0,3.2c0,2,0.2,2.1,2.1,2
		c0.3,0,0.4-0.2,0.7-0.2c1.4-0.1,2-1.3,2.1-2.3c0.1-1.4-0.6-2.5-1.9-2.8C167.9,45.6,166.9,45.6,165.9,45.5z M165.7,44.6
		c0.3,0,0.4,0,0.5,0c0.5,0,1,0,1.5,0c1,0,1.9-0.6,2.1-1.4c0.4-1.1,0-2.5-0.7-3c-0.2-0.1-0.4-0.2-0.6-0.3c-0.5-0.1-1.2-0.1-1.8-0.2
		c-0.7-0.1-1.1,0.4-1.1,1C165.7,41.9,165.7,43.2,165.7,44.6z"/>
	<path class="st0"  d="M197,45.2c1.8,0.6,2.2,2.1,2.8,3.6c0,0.1,0,0.2,0,0.3c0.3,0.4,0.4,0.8,0.7,1.2c0.2-0.4,0.4-0.7,0.6-1.1
		c0.1-0.2,0.3-0.4,0.4-0.4c0.1,0.2,0.4,0.4,0.4,0.6c0,1.3-0.9,2.4-2.1,2.6c-1.6,0.2-2.5-0.4-2.8-2.1c-0.2-0.8-0.4-1.6-0.5-2.4
		c-0.4-1.3-1.1-2.2-2.9-1.9c0,1.5,0,3,0,4.6c0,0.7,0.6,0.8,1.3,0.8c0.4,0,0.9,0,0.6,0.8c-2.1,0-4.1,0-6.2,0c-0.2,0-0.4-0.4-0.7-0.7
		c0.4-0.1,0.6-0.1,0.8-0.1c1.1,0,1.3-0.2,1.3-1.3c0-2.7,0-5.4,0-8.1c0-1.6,0.2-2-1.8-2c0-0.3,0-0.5-0.1-0.8c0.2,0,0.3-0.1,0.4-0.1
		c2.3,0,4.7-0.1,7.1,0c1,0.1,2.1,0.4,3,0.9c1,0.5,1.3,1.5,1.3,2.7c-0.2,1.4-1.2,2.1-2.5,2.6C197.8,45.1,197.5,45.1,197,45.2z
		 M193.7,44.8c1.1-0.2,2.1-0.2,2.9-0.5c1-0.4,1.3-1.7,1-2.8c-0.4-1.2-1.1-1.7-2.3-1.7c-1.5,0-1.6,0-1.6,1.6
		C193.7,42.3,193.7,43.4,193.7,44.8z"/>
	<path class="st0"  d="M129.6,39.7c0-0.4,0-0.5,0-0.9c3.8,0,7.5,0,11.4,0c0.1,1.5,0.2,3,0.2,4.6c-0.6,0.2-0.9,0.1-1-0.5c-0.5-2.7-2.5-3.9-5.1-3.1
		c-0.3,0.1-0.5,0.4-0.5,0.6c-0.2,1.3-0.2,2.8-0.3,4c1.7,0.5,2.7-0.1,3-2.2c0.3,0,0.5,0,0.8,0c0,2.1,0,4,0,6.1
		c-0.3,0-0.5,0.1-0.8,0.1c-0.1-0.2-0.1-0.2-0.1-0.3c-0.2-1.4-0.6-2.1-1.9-2.4c-0.5-0.2-0.7-0.1-0.8,0.4c-0.1,1.3-0.2,2.8-0.2,4.1
		c0,0.2,0.4,0.5,0.5,0.5c2.4,0.6,5.1-0.1,5.6-3.1c0.2-0.8,0.2-0.8,0.9-0.8c0,1.5,0,3,0,4.6c0,0.2-0.5,0.4-0.8,0.4
		c-2.5,0-5.1,0-7.6,0c-1.1,0-2.2,0-3.3,0c0-0.4,0-0.6,0-0.9c0.2,0,0.4,0,0.6,0c0.8,0,1.3-0.3,1.3-1.3c-0.1-2.9,0-5.8,0-8.7
		c0-1.3,0-1.3-1.4-1.4C130,39.7,129.9,39.7,129.6,39.7z"/>
	<path class="st0"  d="M175.1,39.7c0-0.2-0.1-0.3-0.1-0.4c0-0.2,0-0.3,0-0.5c3.8,0,7.5,0,11.3,0c0.1,1.5,0.2,3,0.3,4.6c-0.6,0.2-0.9,0-1-0.5
		c-0.4-2.2-1.3-3.3-3.8-3.1c-1.7,0.1-2.1-0.4-2,2c0,0.6,0,1.3,0,1.9c0,0.4,0.3,1.1,0.3,1.1c0.6,0,1.3-0.1,1.7-0.4
		c0.5-0.4,0.7-1.3,1.2-2.1c0.4-0.1,0.6,0,0.6,0.7c0,1.6,0,3.2,0,4.8c0,0.7-0.3,0.8-0.7,0.7c-0.4-0.8-0.5-1.5-1-2.1
		c-0.4-0.4-1.1-0.5-1.6-0.7c-0.1,0-0.5,0.4-0.5,0.5c-0.1,1.3-0.1,2.7,0,4c0,0.3,0.5,0.7,0.9,0.8c2.2,0.2,4.7,0,5.3-3.3
		c0.1-0.4,0.1-1,0.9-0.7c0,1.4,0,2.9,0,4.3c0,0.2-0.4,0.6-0.5,0.6c-3.7,0-7.3,0-11-0.1c-0.1,0-0.3,0-0.4-0.1c0-0.3,0-0.4,0-0.7
		c0.3,0,0.5,0,0.8,0c0.7,0,1.1-0.4,1.1-1.2c0-3,0-5.9,0-8.9c0-1.3,0-1.3-1.3-1.3C175.5,39.7,175.3,39.7,175.1,39.7z"/>
	<path class="st0"  d="M205.2,50.8c-0.3,0.3-0.4,0.6-0.7,0.9c-0.2,0.2-0.5,0.3-0.8,0.3c-0.1,0-0.3-0.4-0.3-0.6c0-1.2,0-2.3,0-3.5
		c0-0.3,0.3-0.5,0.4-0.7c0.2,0.2,0.5,0.4,0.6,0.6c0.6,1.7,1.6,3,3.5,3.4c1.2,0.3,2.3,0.2,3.2-0.6c1.2-1.2,0.9-2.8-0.6-3.4
		c-1.3-0.4-2.5-0.6-3.8-1c-0.7-0.3-1.5-0.5-2.1-1c-1.3-1-1.2-2.5-0.8-3.8c0.4-1.5,1.5-2.3,3-2.6c1.7-0.3,3.2,0,4.7,1.3
		c0.3-0.5,0.6-1,0.9-1.5c0.2,0.1,0.4,0.2,0.5,0.4c0,1.4,0.1,2.8,0.1,4.2c0,0.2-0.4,0.4-0.4,0.4c-0.3-0.1-0.5-0.3-0.7-0.4
		c-0.5-0.8-1-1.7-1.6-2.4c-1-1-2.1-1.3-3.5-0.7c-0.9,0.4-1.4,1-1.4,1.9c0,0.9,0.6,1.5,1.4,1.8c1.1,0.4,2.2,0.5,3.3,0.8
		c1.5,0.4,3,0.9,3.4,2.6c0.7,2.8-0.4,4.6-3.2,5.3C208.6,52.5,206.8,52,205.2,50.8z"/>
</g>
</svg>
