<?xml version="1.0" encoding="utf-8"?>
<!-- Generator: Adobe Illustrator 24.0.2, SVG Export Plug-In . SVG Version: 6.00 Build 0)  -->
<svg version="1.1"
	 id="Слой_1" text-rendering="geometricPrecision" image-rendering="optimizeQuality" shape-rendering="geometricPrecision" xmlns:xodm="http://www.corel.com/coreldraw/odm/2003"
	 xmlns="http://www.w3.org/2000/svg" xmlns:xlink="http://www.w3.org/1999/xlink" x="0px" y="0px" viewBox="0 0 238.1 150.2"
	 style="enable-background:new 0 0 238.1 150.2;" xml:space="preserve">
<style type="text/css">
	.st0{fill:#111111;}
</style>
<g id="Слой_x0020_1">
	<g id="_105553432544960">
		<path class="st0" d="M36.5,5.6c-0.1,0-0.2-0.1-0.2-0.1c-1-0.5-0.8-1.6,0.2-2L36.5,5.6L36.5,5.6z M36.5,1c-2.2,0.2-4.3,1.3-4.4,3.8
			C32,7.6,34.2,8.4,36.5,9v3.1c-1.1-0.5-1.1-1.8-1.1-1.8l-3.8,0.4c0.3,2.7,2.6,3.7,4.9,3.9l0,1h0.8V0h-0.8V1z"/>
		<path class="st0" d="M38.3,12.2V9.5c0.9,0.3,1.2,0.6,1.4,1.2C39.8,11.3,39.4,12,38.3,12.2z M42.2,7.9c-1.1-1-2.7-1.5-3.9-1.8V3.6
			c0.8,0.4,0.9,1.2,0.9,1.2l3.7-0.6c-0.4-1.7-2.2-2.9-4.6-3.1V0h-0.6v15.7h0.6v-1.1c1.3-0.1,2.4-0.5,3.1-0.9
			C43.3,12.5,44.1,9.6,42.2,7.9L42.2,7.9z"/>
		<path class="st0" d="M86.5,5.6c-0.1,0-0.2-0.1-0.2-0.1c-1-0.5-0.8-1.6,0.2-2V5.6L86.5,5.6z M86.5,1c-2.2,0.2-4.3,1.3-4.4,3.8
			c-0.1,2.8,2.2,3.6,4.4,4.2v3.1c-1.1-0.5-1.1-1.8-1.1-1.8l-3.8,0.4c0.3,2.7,2.6,3.7,4.9,3.9v1h0.8V0h-0.8C86.5,0,86.5,1,86.5,1z"/>
		<path class="st0" d="M88.3,12.2l0-2.7c0.9,0.3,1.2,0.6,1.4,1.2C89.8,11.3,89.3,12,88.3,12.2z M92.2,7.9c-1.1-1-2.7-1.5-3.9-1.8
			V3.6c0.8,0.4,0.9,1.2,0.9,1.2l3.7-0.6c-0.4-1.7-2.2-2.9-4.6-3.1l0-1h-0.6v15.7h0.6v-1.1c1.3-0.1,2.4-0.5,3.1-0.9
			C93.3,12.5,94,9.6,92.2,7.9L92.2,7.9z"/>
		<path class="st0" d="M136.4,5.6c-0.1,0-0.2-0.1-0.2-0.1c-1-0.5-0.8-1.6,0.2-2V5.6L136.4,5.6z M136.4,1c-2.2,0.2-4.3,1.3-4.4,3.8
			c-0.1,2.8,2.2,3.6,4.4,4.2l0,3.1c-1.1-0.5-1.1-1.8-1.1-1.8l-3.8,0.4c0.3,2.7,2.6,3.7,4.9,3.9v1h0.8V0h-0.8L136.4,1L136.4,1z"/>
		<path class="st0" d="M138.2,12.2V9.5c0.9,0.3,1.2,0.6,1.4,1.2C139.8,11.3,139.3,12,138.2,12.2z M142.2,7.9c-1.1-1-2.7-1.5-3.9-1.8
			V3.6c0.8,0.4,0.9,1.2,0.9,1.2l3.7-0.6c-0.4-1.7-2.2-2.9-4.6-3.1V0h-0.6v15.7h0.6v-1.1c1.3-0.1,2.4-0.5,3.1-0.9
			C143.2,12.5,144,9.6,142.2,7.9L142.2,7.9z"/>
		<path class="st0" d="M186.4,5.6c-0.1,0-0.2-0.1-0.2-0.1c-1-0.5-0.8-1.6,0.2-2V5.6L186.4,5.6z M186.4,1c-2.2,0.2-4.3,1.3-4.4,3.8
			c-0.1,2.8,2.2,3.6,4.4,4.2l0,3.1c-1.1-0.5-1.1-1.8-1.1-1.8l-3.8,0.4c0.3,2.7,2.6,3.7,4.9,3.9v1h0.8V0h-0.8V1z"/>
		<path class="st0" d="M188.2,12.2V9.5c0.9,0.3,1.2,0.6,1.4,1.2C189.7,11.3,189.3,12,188.2,12.2z M192.2,7.9c-1.1-1-2.6-1.5-3.9-1.8
			V3.6c0.8,0.4,0.9,1.2,0.9,1.2l3.7-0.6c-0.4-1.7-2.2-2.9-4.6-3.1V0h-0.6v15.7h0.6v-1.1c1.3-0.1,2.4-0.5,3.1-0.9
			C193.2,12.5,194,9.6,192.2,7.9L192.2,7.9z"/>
		<path class="st0" d="M236.4,5.6c-0.1,0-0.2-0.1-0.2-0.1c-1-0.5-0.8-1.6,0.2-2L236.4,5.6L236.4,5.6z M236.4,1
			c-2.2,0.2-4.3,1.3-4.4,3.8c-0.1,2.8,2.2,3.6,4.4,4.2v3.1c-1.1-0.5-1.1-1.8-1.1-1.8l-3.8,0.4c0.3,2.7,2.6,3.7,4.9,3.9l0,1h0.8V0
			h-0.8V1z"/>
		<polygon class="st0" points="238.1,0 238.1,15.7 237.6,15.7 237.6,0 		"/>
		<path class="st0" d="M23.8,22.4c-0.1,0-0.2-0.1-0.2-0.1c-1-0.5-0.8-1.6,0.2-2V22.4L23.8,22.4z M23.8,17.8
			c-2.2,0.2-4.3,1.3-4.4,3.8c-0.1,2.8,2.2,3.6,4.4,4.2v3.1c-1.1-0.5-1.1-1.8-1.1-1.8l-3.8,0.4c0.3,2.7,2.6,3.7,4.9,3.9v1h0.8V16.8
			h-0.8C23.8,16.8,23.8,17.8,23.8,17.8z"/>
		<path class="st0" d="M25.6,29v-2.7c0.9,0.3,1.2,0.6,1.4,1.2C27.1,28.1,26.7,28.8,25.6,29z M29.5,24.7c-1.1-1-2.7-1.5-3.9-1.8v-2.5
			c0.8,0.4,0.9,1.2,0.9,1.2l3.7-0.6c-0.4-1.7-2.2-2.9-4.6-3.1v-1h-0.6v15.7h0.6v-1.1c1.3-0.1,2.4-0.5,3.1-0.9
			C30.6,29.3,31.3,26.4,29.5,24.7L29.5,24.7z"/>
		<path class="st0" d="M73.7,22.4c-0.1,0-0.2-0.1-0.2-0.1c-1-0.5-0.8-1.6,0.2-2V22.4L73.7,22.4z M73.7,17.8
			c-2.2,0.2-4.3,1.3-4.4,3.8c-0.1,2.8,2.2,3.6,4.4,4.2l0,3.1c-1.1-0.5-1.1-1.8-1.1-1.8l-3.8,0.4c0.3,2.7,2.6,3.7,4.9,3.9v1h0.8V16.8
			h-0.8C73.7,16.8,73.7,17.8,73.7,17.8z"/>
		<path class="st0" d="M75.5,29v-2.7c0.9,0.3,1.2,0.6,1.4,1.2C77.1,28.1,76.6,28.8,75.5,29z M79.5,24.7c-1.1-1-2.6-1.5-3.9-1.8v-2.5
			c0.8,0.4,0.9,1.2,0.9,1.2l3.7-0.6c-0.4-1.7-2.2-2.9-4.6-3.1v-1h-0.6v15.7h0.6v-1.1c1.3-0.1,2.4-0.5,3.1-0.9
			C80.6,29.3,81.3,26.4,79.5,24.7L79.5,24.7z"/>
		<path class="st0" d="M123.7,22.4c-0.1,0-0.2-0.1-0.2-0.1c-1-0.5-0.8-1.6,0.2-2L123.7,22.4L123.7,22.4z M123.7,17.8
			c-2.2,0.2-4.3,1.3-4.4,3.8c-0.1,2.8,2.2,3.6,4.4,4.2v3.1c-1.1-0.5-1.1-1.8-1.1-1.8l-3.8,0.4c0.3,2.7,2.6,3.7,4.9,3.9l0,1h0.8V16.8
			h-0.8C123.7,16.8,123.7,17.8,123.7,17.8z"/>
		<path class="st0" d="M125.5,29v-2.7c0.9,0.3,1.2,0.6,1.4,1.2C127.1,28.1,126.6,28.8,125.5,29z M129.5,24.7c-1.1-1-2.7-1.5-3.9-1.8
			v-2.5c0.8,0.4,0.9,1.2,0.9,1.2l3.7-0.6c-0.4-1.7-2.2-2.9-4.6-3.1l0-1h-0.6v15.7h0.6v-1.1c1.3-0.1,2.4-0.5,3.1-0.9
			C130.5,29.3,131.3,26.4,129.5,24.7L129.5,24.7z"/>
		<path class="st0" d="M173.7,22.4c-0.1,0-0.2-0.1-0.2-0.1c-1-0.5-0.8-1.6,0.2-2V22.4L173.7,22.4z M173.7,17.8
			c-2.2,0.2-4.3,1.3-4.4,3.8c-0.1,2.8,2.2,3.6,4.4,4.2v3.1c-1.1-0.5-1.1-1.8-1.1-1.8l-3.8,0.4c0.3,2.7,2.6,3.7,4.9,3.9v1h0.8V16.8
			h-0.8C173.7,16.8,173.7,17.8,173.7,17.8z"/>
		<path class="st0" d="M175.5,29l0-2.7c0.9,0.3,1.2,0.6,1.4,1.2C177,28.1,176.6,28.8,175.5,29L175.5,29z M179.5,24.7
			c-1.1-1-2.7-1.5-3.9-1.8v-2.5c0.8,0.4,0.9,1.2,0.9,1.2l3.7-0.6c-0.4-1.7-2.2-2.9-4.6-3.1l0-1h-0.6v15.7h0.6v-1.1
			c1.3-0.1,2.4-0.5,3.1-0.9C180.5,29.3,181.3,26.4,179.5,24.7L179.5,24.7z"/>
		<path class="st0" d="M223.7,22.4c-0.1,0-0.1-0.1-0.2-0.1c-1-0.5-0.8-1.6,0.2-2V22.4L223.7,22.4z M223.7,17.8
			c-2.2,0.2-4.3,1.3-4.4,3.8c-0.1,2.8,2.2,3.6,4.4,4.2l0,3.1c-1.1-0.5-1.1-1.8-1.1-1.8l-3.8,0.4c0.3,2.7,2.6,3.7,4.9,3.9v1h0.8V16.8
			h-0.8C223.7,16.8,223.7,17.8,223.7,17.8z"/>
		<path class="st0" d="M225.5,29v-2.7c0.9,0.3,1.2,0.6,1.4,1.2C227,28.1,226.6,28.8,225.5,29z M229.4,24.7c-1.1-1-2.7-1.5-3.9-1.8
			v-2.5c0.8,0.4,0.9,1.2,0.9,1.2l3.7-0.6c-0.4-1.7-2.2-2.9-4.6-3.1v-1h-0.6v15.7h0.6v-1.1c1.3-0.1,2.4-0.5,3.1-0.9
			C230.5,29.3,231.3,26.4,229.4,24.7L229.4,24.7z"/>
		<path class="st0" d="M36.5,39.2c-0.1,0-0.2-0.1-0.2-0.1c-1-0.5-0.8-1.6,0.2-2L36.5,39.2L36.5,39.2z M36.5,34.6
			c-2.2,0.2-4.3,1.3-4.4,3.8c-0.1,2.8,2.2,3.6,4.4,4.2v3.1c-1.1-0.5-1.1-1.8-1.1-1.8l-3.8,0.4c0.3,2.7,2.6,3.7,4.9,3.9l0,1h0.8V33.6
			h-0.8V34.6z"/>
		<path class="st0" d="M38.3,45.9v-2.7c0.9,0.3,1.2,0.6,1.4,1.2C39.8,44.9,39.4,45.6,38.3,45.9z M42.2,41.6c-1.1-1-2.7-1.5-3.9-1.8
			v-2.5c0.8,0.4,0.9,1.2,0.9,1.2l3.7-0.6c-0.4-1.7-2.2-2.9-4.6-3.1v-1h-0.6v15.7h0.6v-1.1c1.3-0.1,2.4-0.5,3.1-0.9
			C43.3,46.2,44.1,43.3,42.2,41.6L42.2,41.6z"/>
		<path class="st0" d="M86.5,39.2c-0.1,0-0.2-0.1-0.2-0.1c-1-0.5-0.8-1.6,0.2-2V39.2L86.5,39.2z M86.5,34.6
			c-2.2,0.2-4.3,1.3-4.4,3.8c-0.1,2.8,2.2,3.6,4.4,4.2v3.1c-1.1-0.5-1.1-1.8-1.1-1.8l-3.8,0.4c0.3,2.7,2.6,3.7,4.9,3.9v1h0.8V33.6
			h-0.8C86.5,33.6,86.5,34.6,86.5,34.6z"/>
		<path class="st0" d="M88.3,45.9l0-2.7c0.9,0.3,1.2,0.6,1.4,1.2C89.8,44.9,89.3,45.6,88.3,45.9z M92.2,41.6c-1.1-1-2.7-1.5-3.9-1.8
			v-2.5c0.8,0.4,0.9,1.2,0.9,1.2l3.7-0.6c-0.4-1.7-2.2-2.9-4.6-3.1l0-1h-0.6v15.7h0.6v-1.1c1.3-0.1,2.4-0.5,3.1-0.9
			C93.3,46.2,94,43.3,92.2,41.6L92.2,41.6z"/>
		<path class="st0" d="M136.4,39.2c-0.1,0-0.2-0.1-0.2-0.1c-1-0.5-0.8-1.6,0.2-2V39.2L136.4,39.2z M136.4,34.6
			c-2.2,0.2-4.3,1.3-4.4,3.8c-0.1,2.8,2.2,3.6,4.4,4.2l0,3.1c-1.1-0.5-1.1-1.8-1.1-1.8l-3.8,0.4c0.3,2.7,2.6,3.7,4.9,3.9v1h0.8V33.6
			h-0.8L136.4,34.6L136.4,34.6z"/>
		<path class="st0" d="M138.2,45.9v-2.7c0.9,0.3,1.2,0.6,1.4,1.2C139.8,44.9,139.3,45.6,138.2,45.9z M142.2,41.6
			c-1.1-1-2.7-1.5-3.9-1.8v-2.5c0.8,0.4,0.9,1.2,0.9,1.2l3.7-0.6c-0.4-1.7-2.2-2.9-4.6-3.1v-1h-0.6v15.7h0.6v-1.1
			c1.3-0.1,2.4-0.5,3.1-0.9C143.2,46.2,144,43.3,142.2,41.6L142.2,41.6z"/>
		<path class="st0" d="M186.4,39.2c-0.1,0-0.2-0.1-0.2-0.1c-1-0.5-0.8-1.6,0.2-2V39.2L186.4,39.2z M186.4,34.6
			c-2.2,0.2-4.3,1.3-4.4,3.8c-0.1,2.8,2.2,3.6,4.4,4.2l0,3.1c-1.1-0.5-1.1-1.8-1.1-1.8l-3.8,0.4c0.3,2.7,2.6,3.7,4.9,3.9v1h0.8V33.6
			h-0.8V34.6z"/>
		<path class="st0" d="M188.2,45.9v-2.7c0.9,0.3,1.2,0.6,1.4,1.2C189.7,44.9,189.3,45.6,188.2,45.9z M192.2,41.6
			c-1.1-1-2.6-1.5-3.9-1.8v-2.5c0.8,0.4,0.9,1.2,0.9,1.2l3.7-0.6c-0.4-1.7-2.2-2.9-4.6-3.1v-1h-0.6v15.7h0.6v-1.1
			c1.3-0.1,2.4-0.5,3.1-0.9C193.2,46.2,194,43.3,192.2,41.6L192.2,41.6z"/>
		<path class="st0" d="M236.4,39.2c-0.1,0-0.2-0.1-0.2-0.1c-1-0.5-0.8-1.6,0.2-2L236.4,39.2L236.4,39.2z M236.4,34.6
			c-2.2,0.2-4.3,1.3-4.4,3.8c-0.1,2.8,2.2,3.6,4.4,4.2v3.1c-1.1-0.5-1.1-1.8-1.1-1.8l-3.8,0.4c0.3,2.7,2.6,3.7,4.9,3.9l0,1h0.8V33.6
			h-0.8V34.6z"/>
		<polygon class="st0" points="238.1,33.6 238.1,49.3 237.6,49.3 237.6,33.6 		"/>
		<path class="st0" d="M23.8,56c-0.1,0-0.2-0.1-0.2-0.1c-1-0.5-0.8-1.6,0.2-2V56L23.8,56z M23.8,51.5c-2.2,0.2-4.3,1.3-4.4,3.8
			c-0.1,2.8,2.2,3.6,4.4,4.2v3.1c-1.1-0.5-1.1-1.8-1.1-1.8l-3.8,0.4c0.3,2.7,2.6,3.7,4.9,3.9v1h0.8V50.5h-0.8
			C23.8,50.5,23.8,51.5,23.8,51.5z"/>
		<path class="st0" d="M25.6,62.7V60c0.9,0.3,1.2,0.6,1.4,1.2C27.1,61.7,26.7,62.4,25.6,62.7z M29.5,58.4c-1.1-1-2.7-1.5-3.9-1.8V54
			c0.8,0.4,0.9,1.2,0.9,1.2l3.7-0.6c-0.4-1.7-2.2-2.9-4.6-3.1v-1h-0.6v15.7h0.6V65c1.3-0.1,2.4-0.5,3.1-0.9
			C30.6,63,31.3,60.1,29.5,58.4L29.5,58.4z"/>
		<path class="st0" d="M73.7,56c-0.1,0-0.2-0.1-0.2-0.1c-1-0.5-0.8-1.6,0.2-2V56L73.7,56z M73.7,51.5c-2.2,0.2-4.3,1.3-4.4,3.8
			c-0.1,2.8,2.2,3.6,4.4,4.2l0,3.1c-1.1-0.5-1.1-1.8-1.1-1.8l-3.8,0.4c0.3,2.7,2.6,3.7,4.9,3.9v1h0.8V50.5h-0.8
			C73.7,50.5,73.7,51.5,73.7,51.5z"/>
		<path class="st0" d="M75.5,62.7V60c0.9,0.3,1.2,0.6,1.4,1.2C77.1,61.7,76.6,62.4,75.5,62.7z M79.5,58.4c-1.1-1-2.6-1.5-3.9-1.8V54
			c0.8,0.4,0.9,1.2,0.9,1.2l3.7-0.6c-0.4-1.7-2.2-2.9-4.6-3.1v-1h-0.6v15.7h0.6V65c1.3-0.1,2.4-0.5,3.1-0.9
			C80.6,63,81.3,60.1,79.5,58.4L79.5,58.4z"/>
		<path class="st0" d="M123.7,56c-0.1,0-0.2-0.1-0.2-0.1c-1-0.5-0.8-1.6,0.2-2L123.7,56L123.7,56z M123.7,51.5
			c-2.2,0.2-4.3,1.3-4.4,3.8c-0.1,2.8,2.2,3.6,4.4,4.2v3.1c-1.1-0.5-1.1-1.8-1.1-1.8l-3.8,0.4c0.3,2.7,2.6,3.7,4.9,3.9l0,1h0.8V50.5
			h-0.8C123.7,50.5,123.7,51.5,123.7,51.5z"/>
		<path class="st0" d="M125.5,62.7V60c0.9,0.3,1.2,0.6,1.4,1.2C127.1,61.7,126.6,62.4,125.5,62.7z M129.5,58.4
			c-1.1-1-2.7-1.5-3.9-1.8V54c0.8,0.4,0.9,1.2,0.9,1.2l3.7-0.6c-0.4-1.7-2.2-2.9-4.6-3.1l0-1h-0.6v15.7h0.6V65
			c1.3-0.1,2.4-0.5,3.1-0.9C130.5,63,131.3,60.1,129.5,58.4L129.5,58.4z"/>
		<path class="st0" d="M173.7,56c-0.1,0-0.2-0.1-0.2-0.1c-1-0.5-0.8-1.6,0.2-2V56L173.7,56z M173.7,51.5c-2.2,0.2-4.3,1.3-4.4,3.8
			c-0.1,2.8,2.2,3.6,4.4,4.2v3.1c-1.1-0.5-1.1-1.8-1.1-1.8l-3.8,0.4c0.3,2.7,2.6,3.7,4.9,3.9v1h0.8V50.5h-0.8
			C173.7,50.5,173.7,51.5,173.7,51.5z"/>
		<path class="st0" d="M175.5,62.7l0-2.7c0.9,0.3,1.2,0.6,1.4,1.2C177,61.7,176.6,62.4,175.5,62.7L175.5,62.7z M179.5,58.4
			c-1.1-1-2.7-1.5-3.9-1.8V54c0.8,0.4,0.9,1.2,0.9,1.2l3.7-0.6c-0.4-1.7-2.2-2.9-4.6-3.1l0-1h-0.6v15.7h0.6V65
			c1.3-0.1,2.4-0.5,3.1-0.9C180.5,63,181.3,60.1,179.5,58.4L179.5,58.4z"/>
		<path class="st0" d="M223.7,56c-0.1,0-0.1-0.1-0.2-0.1c-1-0.5-0.8-1.6,0.2-2V56L223.7,56z M223.7,51.5c-2.2,0.2-4.3,1.3-4.4,3.8
			c-0.1,2.8,2.2,3.6,4.4,4.2l0,3.1c-1.1-0.5-1.1-1.8-1.1-1.8l-3.8,0.4c0.3,2.7,2.6,3.7,4.9,3.9v1h0.8V50.5h-0.8
			C223.7,50.5,223.7,51.5,223.7,51.5z"/>
		<path class="st0" d="M225.5,62.7V60c0.9,0.3,1.2,0.6,1.4,1.2C227,61.7,226.6,62.4,225.5,62.7z M229.4,58.4c-1.1-1-2.7-1.5-3.9-1.8
			V54c0.8,0.4,0.9,1.2,0.9,1.2l3.7-0.6c-0.4-1.7-2.2-2.9-4.6-3.1v-1h-0.6v15.7h0.6V65c1.3-0.1,2.4-0.5,3.1-0.9
			C230.5,63,231.3,60.1,229.4,58.4L229.4,58.4z"/>
		<path class="st0" d="M36.5,72.9c-0.1,0-0.2-0.1-0.2-0.1c-1-0.5-0.8-1.6,0.2-2L36.5,72.9L36.5,72.9z M36.5,68.3
			c-2.2,0.2-4.3,1.3-4.4,3.8c-0.1,2.8,2.2,3.6,4.4,4.2v3.1c-1.1-0.5-1.1-1.8-1.1-1.8L31.6,78c0.3,2.7,2.6,3.7,4.9,3.9l0,1h0.8V67.3
			h-0.8V68.3z"/>
		<path class="st0" d="M38.3,79.5v-2.7c0.9,0.3,1.2,0.6,1.4,1.2C39.8,78.6,39.4,79.3,38.3,79.5z M42.2,75.2c-1.1-1-2.7-1.5-3.9-1.8
			v-2.5c0.8,0.4,0.9,1.2,0.9,1.2l3.7-0.6c-0.4-1.7-2.2-2.9-4.6-3.1v-1h-0.6v15.7h0.6v-1.1c1.3-0.1,2.4-0.5,3.1-0.9
			C43.3,79.8,44.1,76.9,42.2,75.2L42.2,75.2z"/>
		<path class="st0" d="M86.5,72.9c-0.1,0-0.2-0.1-0.2-0.1c-1-0.5-0.8-1.6,0.2-2V72.9L86.5,72.9z M86.5,68.3
			c-2.2,0.2-4.3,1.3-4.4,3.8c-0.1,2.8,2.2,3.6,4.4,4.2v3.1c-1.1-0.5-1.1-1.8-1.1-1.8L81.6,78c0.3,2.7,2.6,3.7,4.9,3.9v1h0.8V67.3
			h-0.8C86.5,67.3,86.5,68.3,86.5,68.3z"/>
		<path class="st0" d="M88.3,79.5l0-2.7c0.9,0.3,1.2,0.6,1.4,1.2C89.8,78.6,89.3,79.3,88.3,79.5z M92.2,75.2c-1.1-1-2.7-1.5-3.9-1.8
			v-2.5c0.8,0.4,0.9,1.2,0.9,1.2l3.7-0.6c-0.4-1.7-2.2-2.9-4.6-3.1l0-1h-0.6v15.7h0.6v-1.1c1.3-0.1,2.4-0.5,3.1-0.9
			C93.3,79.8,94,76.9,92.2,75.2L92.2,75.2z"/>
		<path class="st0" d="M136.4,72.9c-0.1,0-0.2-0.1-0.2-0.1c-1-0.5-0.8-1.6,0.2-2V72.9L136.4,72.9z M136.4,68.3
			c-2.2,0.2-4.3,1.3-4.4,3.8c-0.1,2.8,2.2,3.6,4.4,4.2l0,3.1c-1.1-0.5-1.1-1.8-1.1-1.8l-3.8,0.4c0.3,2.7,2.6,3.7,4.9,3.9v1h0.8V67.3
			h-0.8L136.4,68.3L136.4,68.3z"/>
		<path class="st0" d="M138.2,79.5v-2.7c0.9,0.3,1.2,0.6,1.4,1.2C139.8,78.6,139.3,79.3,138.2,79.5z M142.2,75.2
			c-1.1-1-2.7-1.5-3.9-1.8v-2.5c0.8,0.4,0.9,1.2,0.9,1.2l3.7-0.6c-0.4-1.7-2.2-2.9-4.6-3.1v-1h-0.6v15.7h0.6v-1.1
			c1.3-0.1,2.4-0.5,3.1-0.9C143.2,79.8,144,76.9,142.2,75.2L142.2,75.2z"/>
		<path class="st0" d="M186.4,72.9c-0.1,0-0.2-0.1-0.2-0.1c-1-0.5-0.8-1.6,0.2-2V72.9L186.4,72.9z M186.4,68.3
			c-2.2,0.2-4.3,1.3-4.4,3.8c-0.1,2.8,2.2,3.6,4.4,4.2l0,3.1c-1.1-0.5-1.1-1.8-1.1-1.8l-3.8,0.4c0.3,2.7,2.6,3.7,4.9,3.9v1h0.8V67.3
			h-0.8V68.3z"/>
		<path class="st0" d="M188.2,79.5v-2.7c0.9,0.3,1.2,0.6,1.4,1.2C189.7,78.6,189.3,79.3,188.2,79.5z M192.2,75.2
			c-1.1-1-2.6-1.5-3.9-1.8v-2.5c0.8,0.4,0.9,1.2,0.9,1.2l3.7-0.6c-0.4-1.7-2.2-2.9-4.6-3.1v-1h-0.6v15.7h0.6v-1.1
			c1.3-0.1,2.4-0.5,3.1-0.9C193.2,79.8,194,76.9,192.2,75.2L192.2,75.2z"/>
		<path class="st0" d="M236.4,72.9c-0.1,0-0.2-0.1-0.2-0.1c-1-0.5-0.8-1.6,0.2-2L236.4,72.9L236.4,72.9z M236.4,68.3
			c-2.2,0.2-4.3,1.3-4.4,3.8c-0.1,2.8,2.2,3.6,4.4,4.2v3.1c-1.1-0.5-1.1-1.8-1.1-1.8l-3.8,0.4c0.3,2.7,2.6,3.7,4.9,3.9l0,1h0.8V67.3
			h-0.8V68.3z"/>
		<polygon class="st0" points="238.1,67.3 238.1,82.9 237.6,82.9 237.6,67.3 		"/>
		<path class="st0" d="M23.8,89.7c-0.1,0-0.2-0.1-0.2-0.1c-1-0.5-0.8-1.6,0.2-2V89.7L23.8,89.7z M23.8,85.1
			c-2.2,0.2-4.3,1.3-4.4,3.8c-0.1,2.8,2.2,3.6,4.4,4.2v3.1c-1.1-0.5-1.1-1.8-1.1-1.8l-3.8,0.4c0.3,2.7,2.6,3.7,4.9,3.9v1h0.8V84.1
			h-0.8C23.8,84.1,23.8,85.1,23.8,85.1z"/>
		<path class="st0" d="M25.6,96.3v-2.7c0.9,0.3,1.2,0.6,1.4,1.2C27.1,95.4,26.7,96.1,25.6,96.3z M29.5,92c-1.1-1-2.7-1.5-3.9-1.8
			v-2.5c0.8,0.4,0.9,1.2,0.9,1.2l3.7-0.6c-0.4-1.7-2.2-2.9-4.6-3.1v-1h-0.6v15.7h0.6v-1.1c1.3-0.1,2.4-0.5,3.1-0.9
			C30.6,96.6,31.3,93.7,29.5,92L29.5,92z"/>
		<path class="st0" d="M73.7,89.7c-0.1,0-0.2-0.1-0.2-0.1c-1-0.5-0.8-1.6,0.2-2V89.7L73.7,89.7z M73.7,85.1
			c-2.2,0.2-4.3,1.3-4.4,3.8c-0.1,2.8,2.2,3.6,4.4,4.2l0,3.1c-1.1-0.5-1.1-1.8-1.1-1.8l-3.8,0.4c0.3,2.7,2.6,3.7,4.9,3.9v1h0.8V84.1
			h-0.8V85.1z"/>
		<path class="st0" d="M75.5,96.3v-2.7c0.9,0.3,1.2,0.6,1.4,1.2C77.1,95.4,76.6,96.1,75.5,96.3z M79.5,92c-1.1-1-2.6-1.5-3.9-1.8
			v-2.5c0.8,0.4,0.9,1.2,0.9,1.2l3.7-0.6c-0.4-1.7-2.2-2.9-4.6-3.1v-1h-0.6v15.7h0.6v-1.1c1.3-0.1,2.4-0.5,3.1-0.9
			C80.6,96.6,81.3,93.7,79.5,92L79.5,92z"/>
		<path class="st0" d="M123.7,89.7c-0.1,0-0.2-0.1-0.2-0.1c-1-0.5-0.8-1.6,0.2-2L123.7,89.7L123.7,89.7z M123.7,85.1
			c-2.2,0.2-4.3,1.3-4.4,3.8c-0.1,2.8,2.2,3.6,4.4,4.2v3.1c-1.1-0.5-1.1-1.8-1.1-1.8l-3.8,0.4c0.3,2.7,2.6,3.7,4.9,3.9l0,1h0.8V84.1
			h-0.8V85.1z"/>
		<path class="st0" d="M125.5,96.3v-2.7c0.9,0.3,1.2,0.6,1.4,1.2C127.1,95.4,126.6,96.1,125.5,96.3z M129.5,92
			c-1.1-1-2.7-1.5-3.9-1.8v-2.5c0.8,0.4,0.9,1.2,0.9,1.2l3.7-0.6c-0.4-1.7-2.2-2.9-4.6-3.1l0-1h-0.6v15.7h0.6v-1.1
			c1.3-0.1,2.4-0.5,3.1-0.9C130.5,96.6,131.3,93.7,129.5,92L129.5,92z"/>
		<path class="st0" d="M173.7,89.7c-0.1,0-0.2-0.1-0.2-0.1c-1-0.5-0.8-1.6,0.2-2V89.7L173.7,89.7z M173.7,85.1
			c-2.2,0.2-4.3,1.3-4.4,3.8c-0.1,2.8,2.2,3.6,4.4,4.2v3.1c-1.1-0.5-1.1-1.8-1.1-1.8l-3.8,0.4c0.3,2.7,2.6,3.7,4.9,3.9v1h0.8V84.1
			h-0.8V85.1z"/>
		<path class="st0" d="M175.5,96.3l0-2.7c0.9,0.3,1.2,0.6,1.4,1.2C177,95.4,176.6,96.1,175.5,96.3L175.5,96.3z M179.5,92
			c-1.1-1-2.7-1.5-3.9-1.8v-2.5c0.8,0.4,0.9,1.2,0.9,1.2l3.7-0.6c-0.4-1.7-2.2-2.9-4.6-3.1l0-1h-0.6v15.7h0.6v-1.1
			c1.3-0.1,2.4-0.5,3.1-0.9C180.5,96.6,181.3,93.7,179.5,92L179.5,92z"/>
		<path class="st0" d="M223.7,89.7c-0.1,0-0.1-0.1-0.2-0.1c-1-0.5-0.8-1.6,0.2-2V89.7L223.7,89.7z M223.7,85.1
			c-2.2,0.2-4.3,1.3-4.4,3.8c-0.1,2.8,2.2,3.6,4.4,4.2l0,3.1c-1.1-0.5-1.1-1.8-1.1-1.8l-3.8,0.4c0.3,2.7,2.6,3.7,4.9,3.9v1h0.8V84.1
			h-0.8V85.1z"/>
		<path class="st0" d="M225.5,96.3v-2.7c0.9,0.3,1.2,0.6,1.4,1.2C227,95.4,226.6,96.1,225.5,96.3z M229.4,92c-1.1-1-2.7-1.5-3.9-1.8
			v-2.5c0.8,0.4,0.9,1.2,0.9,1.2l3.7-0.6c-0.4-1.7-2.2-2.9-4.6-3.1v-1h-0.6v15.7h0.6v-1.1c1.3-0.1,2.4-0.5,3.1-0.9
			C230.5,96.6,231.3,93.7,229.4,92L229.4,92z"/>
		<path class="st0" d="M36.5,106.5c-0.1,0-0.2-0.1-0.2-0.1c-1-0.5-0.8-1.6,0.2-2L36.5,106.5L36.5,106.5z M36.5,101.9
			c-2.2,0.2-4.3,1.3-4.4,3.8c-0.1,2.8,2.2,3.6,4.4,4.2v3.1c-1.1-0.5-1.1-1.8-1.1-1.8l-3.8,0.4c0.3,2.7,2.6,3.7,4.9,3.9l0,1h0.8
			v-15.7h-0.8C36.5,100.9,36.5,101.9,36.5,101.9z"/>
		<path class="st0" d="M38.3,113.1v-2.7c0.9,0.3,1.2,0.6,1.4,1.2C39.8,112.2,39.4,112.9,38.3,113.1z M42.2,108.9
			c-1.1-1-2.7-1.5-3.9-1.8v-2.5c0.8,0.4,0.9,1.2,0.9,1.2l3.7-0.6c-0.4-1.7-2.2-2.9-4.6-3.1v-1h-0.6v15.7h0.6v-1.1
			c1.3-0.1,2.4-0.5,3.1-0.9C43.3,113.4,44.1,110.5,42.2,108.9L42.2,108.9z"/>
		<path class="st0" d="M86.5,106.5c-0.1,0-0.2-0.1-0.2-0.1c-1-0.5-0.8-1.6,0.2-2V106.5L86.5,106.5z M86.5,101.9
			c-2.2,0.2-4.3,1.3-4.4,3.8c-0.1,2.8,2.2,3.6,4.4,4.2v3.1c-1.1-0.5-1.1-1.8-1.1-1.8l-3.8,0.4c0.3,2.7,2.6,3.7,4.9,3.9v1h0.8v-15.7
			h-0.8C86.5,100.9,86.5,101.9,86.5,101.9z"/>
		<path class="st0" d="M88.3,113.1l0-2.7c0.9,0.3,1.2,0.6,1.4,1.2C89.8,112.2,89.3,112.9,88.3,113.1z M92.2,108.9
			c-1.1-1-2.7-1.5-3.9-1.8v-2.5c0.8,0.4,0.9,1.2,0.9,1.2l3.7-0.6c-0.4-1.7-2.2-2.9-4.6-3.1l0-1h-0.6v15.7h0.6v-1.1
			c1.3-0.1,2.4-0.5,3.1-0.9C93.3,113.4,94,110.5,92.2,108.9L92.2,108.9z"/>
		<path class="st0" d="M136.4,106.5c-0.1,0-0.2-0.1-0.2-0.1c-1-0.5-0.8-1.6,0.2-2V106.5L136.4,106.5z M136.4,101.9
			c-2.2,0.2-4.3,1.3-4.4,3.8c-0.1,2.8,2.2,3.6,4.4,4.2l0,3.1c-1.1-0.5-1.1-1.8-1.1-1.8l-3.8,0.4c0.3,2.7,2.6,3.7,4.9,3.9v1h0.8
			v-15.7h-0.8L136.4,101.9L136.4,101.9z"/>
		<path class="st0" d="M138.2,113.1v-2.7c0.9,0.3,1.2,0.6,1.4,1.2C139.8,112.2,139.3,112.9,138.2,113.1z M142.2,108.9
			c-1.1-1-2.7-1.5-3.9-1.8v-2.5c0.8,0.4,0.9,1.2,0.9,1.2l3.7-0.6c-0.4-1.7-2.2-2.9-4.6-3.1v-1h-0.6v15.7h0.6v-1.1
			c1.3-0.1,2.4-0.5,3.1-0.9C143.2,113.4,144,110.5,142.2,108.9L142.2,108.9z"/>
		<path class="st0" d="M186.4,106.5c-0.1,0-0.2-0.1-0.2-0.1c-1-0.5-0.8-1.6,0.2-2V106.5L186.4,106.5z M186.4,101.9
			c-2.2,0.2-4.3,1.3-4.4,3.8c-0.1,2.8,2.2,3.6,4.4,4.2l0,3.1c-1.1-0.5-1.1-1.8-1.1-1.8l-3.8,0.4c0.3,2.7,2.6,3.7,4.9,3.9v1h0.8
			v-15.7h-0.8C186.4,100.9,186.4,101.9,186.4,101.9z"/>
		<path class="st0" d="M188.2,113.1v-2.7c0.9,0.3,1.2,0.6,1.4,1.2C189.7,112.2,189.3,112.9,188.2,113.1z M192.2,108.9
			c-1.1-1-2.6-1.5-3.9-1.8v-2.5c0.8,0.4,0.9,1.2,0.9,1.2l3.7-0.6c-0.4-1.7-2.2-2.9-4.6-3.1v-1h-0.6v15.7h0.6v-1.1
			c1.3-0.1,2.4-0.5,3.1-0.9C193.2,113.4,194,110.5,192.2,108.9L192.2,108.9z"/>
		<path class="st0" d="M236.4,106.5c-0.1,0-0.2-0.1-0.2-0.1c-1-0.5-0.8-1.6,0.2-2L236.4,106.5L236.4,106.5z M236.4,101.9
			c-2.2,0.2-4.3,1.3-4.4,3.8c-0.1,2.8,2.2,3.6,4.4,4.2v3.1c-1.1-0.5-1.1-1.8-1.1-1.8l-3.8,0.4c0.3,2.7,2.6,3.7,4.9,3.9l0,1h0.8
			v-15.7h-0.8C236.4,100.9,236.4,101.9,236.4,101.9z"/>
		<polygon class="st0" points="238.1,100.9 238.1,116.6 237.6,116.6 237.6,100.9 		"/>
		<path class="st0" d="M23.8,123.3c-0.1,0-0.2-0.1-0.2-0.1c-1-0.5-0.8-1.6,0.2-2V123.3L23.8,123.3z M23.8,118.8
			c-2.2,0.2-4.3,1.3-4.4,3.8c-0.1,2.8,2.2,3.6,4.4,4.2v3.1c-1.1-0.5-1.1-1.8-1.1-1.8l-3.8,0.4c0.3,2.7,2.6,3.7,4.9,3.9v1h0.8v-15.7
			h-0.8C23.8,117.8,23.8,118.8,23.8,118.8z"/>
		<path class="st0" d="M25.6,130v-2.7c0.9,0.3,1.2,0.6,1.4,1.2C27.1,129,26.7,129.7,25.6,130z M29.5,125.7c-1.1-1-2.7-1.5-3.9-1.8
			v-2.5c0.8,0.4,0.9,1.2,0.9,1.2l3.7-0.6c-0.4-1.7-2.2-2.9-4.6-3.1v-1h-0.6v15.7h0.6v-1.1c1.3-0.1,2.4-0.5,3.1-0.9
			C30.6,130.3,31.3,127.4,29.5,125.7L29.5,125.7z"/>
		<path class="st0" d="M73.7,123.3c-0.1,0-0.2-0.1-0.2-0.1c-1-0.5-0.8-1.6,0.2-2V123.3L73.7,123.3z M73.7,118.8
			c-2.2,0.2-4.3,1.3-4.4,3.8c-0.1,2.8,2.2,3.6,4.4,4.2l0,3.1c-1.1-0.5-1.1-1.8-1.1-1.8l-3.8,0.4c0.3,2.7,2.6,3.7,4.9,3.9v1h0.8
			v-15.7h-0.8C73.7,117.8,73.7,118.8,73.7,118.8z"/>
		<path class="st0" d="M75.5,130v-2.7c0.9,0.3,1.2,0.6,1.4,1.2C77.1,129,76.6,129.7,75.5,130z M79.5,125.7c-1.1-1-2.6-1.5-3.9-1.8
			v-2.5c0.8,0.4,0.9,1.2,0.9,1.2l3.7-0.6c-0.4-1.7-2.2-2.9-4.6-3.1v-1h-0.6v15.7h0.6v-1.1c1.3-0.1,2.4-0.5,3.1-0.9
			C80.6,130.3,81.3,127.4,79.5,125.7L79.5,125.7z"/>
		<path class="st0" d="M123.7,123.3c-0.1,0-0.2-0.1-0.2-0.1c-1-0.5-0.8-1.6,0.2-2L123.7,123.3L123.7,123.3z M123.7,118.8
			c-2.2,0.2-4.3,1.3-4.4,3.8c-0.1,2.8,2.2,3.6,4.4,4.2v3.1c-1.1-0.5-1.1-1.8-1.1-1.8l-3.8,0.4c0.3,2.7,2.6,3.7,4.9,3.9l0,1h0.8
			v-15.7h-0.8C123.7,117.8,123.7,118.8,123.7,118.8z"/>
		<path class="st0" d="M125.5,130v-2.7c0.9,0.3,1.2,0.6,1.4,1.2C127.1,129,126.6,129.7,125.5,130z M129.5,125.7
			c-1.1-1-2.7-1.5-3.9-1.8v-2.5c0.8,0.4,0.9,1.2,0.9,1.2l3.7-0.6c-0.4-1.7-2.2-2.9-4.6-3.1l0-1h-0.6v15.7h0.6v-1.1
			c1.3-0.1,2.4-0.5,3.1-0.9C130.5,130.3,131.3,127.4,129.5,125.7L129.5,125.7z"/>
		<path class="st0" d="M173.7,123.3c-0.1,0-0.2-0.1-0.2-0.1c-1-0.5-0.8-1.6,0.2-2V123.3L173.7,123.3z M173.7,118.8
			c-2.2,0.2-4.3,1.3-4.4,3.8c-0.1,2.8,2.2,3.6,4.4,4.2v3.1c-1.1-0.5-1.1-1.8-1.1-1.8l-3.8,0.4c0.3,2.7,2.6,3.7,4.9,3.9v1h0.8v-15.7
			h-0.8C173.7,117.8,173.7,118.8,173.7,118.8z"/>
		<path class="st0" d="M175.5,130l0-2.7c0.9,0.3,1.2,0.6,1.4,1.2C177,129,176.6,129.7,175.5,130L175.5,130z M179.5,125.7
			c-1.1-1-2.7-1.5-3.9-1.8v-2.5c0.8,0.4,0.9,1.2,0.9,1.2l3.7-0.6c-0.4-1.7-2.2-2.9-4.6-3.1l0-1h-0.6v15.7h0.6v-1.1
			c1.3-0.1,2.4-0.5,3.1-0.9C180.5,130.3,181.3,127.4,179.5,125.7L179.5,125.7z"/>
		<path class="st0" d="M223.7,123.3c-0.1,0-0.1-0.1-0.2-0.1c-1-0.5-0.8-1.6,0.2-2V123.3L223.7,123.3z M223.7,118.8
			c-2.2,0.2-4.3,1.3-4.4,3.8c-0.1,2.8,2.2,3.6,4.4,4.2l0,3.1c-1.1-0.5-1.1-1.8-1.1-1.8l-3.8,0.4c0.3,2.7,2.6,3.7,4.9,3.9v1h0.8
			v-15.7h-0.8C223.7,117.8,223.7,118.8,223.7,118.8z"/>
		<path class="st0" d="M225.5,130v-2.7c0.9,0.3,1.2,0.6,1.4,1.2C227,129,226.6,129.7,225.5,130z M229.4,125.7
			c-1.1-1-2.7-1.5-3.9-1.8v-2.5c0.8,0.4,0.9,1.2,0.9,1.2l3.7-0.6c-0.4-1.7-2.2-2.9-4.6-3.1v-1h-0.6v15.7h0.6v-1.1
			c1.3-0.1,2.4-0.5,3.1-0.9C230.5,130.3,231.3,127.4,229.4,125.7L229.4,125.7z"/>
		<path class="st0" d="M36.5,140.1c-0.1,0-0.2-0.1-0.2-0.1c-1-0.5-0.8-1.6,0.2-2L36.5,140.1L36.5,140.1z M36.5,135.6
			c-2.2,0.2-4.3,1.3-4.4,3.8c-0.1,2.8,2.2,3.6,4.4,4.2v3.1c-1.1-0.5-1.1-1.8-1.1-1.8l-3.8,0.4c0.3,2.7,2.6,3.7,4.9,3.9l0,1h0.8
			v-15.7h-0.8V135.6L36.5,135.6z"/>
		<path class="st0" d="M38.3,146.8v-2.7c0.9,0.3,1.2,0.6,1.4,1.2C39.8,145.8,39.4,146.5,38.3,146.8z M42.2,142.5
			c-1.1-1-2.7-1.5-3.9-1.8v-2.5c0.8,0.4,0.9,1.2,0.9,1.2l3.7-0.6c-0.4-1.7-2.2-2.9-4.6-3.1v-1h-0.6v15.7h0.6v-1.1
			c1.3-0.1,2.4-0.5,3.1-0.9C43.3,147.1,44.1,144.2,42.2,142.5L42.2,142.5z"/>
		<path class="st0" d="M86.5,140.1c-0.1,0-0.2-0.1-0.2-0.1c-1-0.5-0.8-1.6,0.2-2V140.1L86.5,140.1z M86.5,135.6
			c-2.2,0.2-4.3,1.3-4.4,3.8c-0.1,2.8,2.2,3.6,4.4,4.2v3.1c-1.1-0.5-1.1-1.8-1.1-1.8l-3.8,0.4c0.3,2.7,2.6,3.7,4.9,3.9v1h0.8v-15.7
			h-0.8L86.5,135.6L86.5,135.6z"/>
		<path class="st0" d="M88.3,146.8l0-2.7c0.9,0.3,1.2,0.6,1.4,1.2C89.8,145.8,89.3,146.5,88.3,146.8z M92.2,142.5
			c-1.1-1-2.7-1.5-3.9-1.8v-2.5c0.8,0.4,0.9,1.2,0.9,1.2l3.7-0.6c-0.4-1.7-2.2-2.9-4.6-3.1l0-1h-0.6v15.7h0.6v-1.1
			c1.3-0.1,2.4-0.5,3.1-0.9C93.3,147.1,94,144.2,92.2,142.5L92.2,142.5z"/>
		<path class="st0" d="M136.4,140.1c-0.1,0-0.2-0.1-0.2-0.1c-1-0.5-0.8-1.6,0.2-2V140.1L136.4,140.1z M136.4,135.6
			c-2.2,0.2-4.3,1.3-4.4,3.8c-0.1,2.8,2.2,3.6,4.4,4.2l0,3.1c-1.1-0.5-1.1-1.8-1.1-1.8l-3.8,0.4c0.3,2.7,2.6,3.7,4.9,3.9v1h0.8
			v-15.7h-0.8L136.4,135.6L136.4,135.6z"/>
		<path class="st0" d="M138.2,146.8v-2.7c0.9,0.3,1.2,0.6,1.4,1.2C139.8,145.8,139.3,146.5,138.2,146.8z M142.2,142.5
			c-1.1-1-2.7-1.5-3.9-1.8v-2.5c0.8,0.4,0.9,1.2,0.9,1.2l3.7-0.6c-0.4-1.7-2.2-2.9-4.6-3.1v-1h-0.6v15.7h0.6v-1.1
			c1.3-0.1,2.4-0.5,3.1-0.9C143.2,147.1,144,144.2,142.2,142.5L142.2,142.5z"/>
		<path class="st0" d="M186.4,140.1c-0.1,0-0.2-0.1-0.2-0.1c-1-0.5-0.8-1.6,0.2-2V140.1L186.4,140.1z M186.4,135.6
			c-2.2,0.2-4.3,1.3-4.4,3.8c-0.1,2.8,2.2,3.6,4.4,4.2l0,3.1c-1.1-0.5-1.1-1.8-1.1-1.8l-3.8,0.4c0.3,2.7,2.6,3.7,4.9,3.9v1h0.8
			v-15.7h-0.8V135.6L186.4,135.6z"/>
		<path class="st0" d="M188.2,146.8v-2.7c0.9,0.3,1.2,0.6,1.4,1.2C189.7,145.8,189.3,146.5,188.2,146.8z M192.2,142.5
			c-1.1-1-2.6-1.5-3.9-1.8v-2.5c0.8,0.4,0.9,1.2,0.9,1.2l3.7-0.6c-0.4-1.7-2.2-2.9-4.6-3.1v-1h-0.6v15.7h0.6v-1.1
			c1.3-0.1,2.4-0.5,3.1-0.9C193.2,147.1,194,144.2,192.2,142.5L192.2,142.5z"/>
		<path class="st0" d="M236.4,140.1c-0.1,0-0.2-0.1-0.2-0.1c-1-0.5-0.8-1.6,0.2-2L236.4,140.1L236.4,140.1z M236.4,135.6
			c-2.2,0.2-4.3,1.3-4.4,3.8c-0.1,2.8,2.2,3.6,4.4,4.2v3.1c-1.1-0.5-1.1-1.8-1.1-1.8l-3.8,0.4c0.3,2.7,2.6,3.7,4.9,3.9l0,1h0.8
			v-15.7h-0.8V135.6L236.4,135.6z"/>
		<polygon class="st0" points="238.1,134.6 238.1,150.2 237.6,150.2 237.6,134.6 		"/>
		<path class="st0" d="M11.7,4.4c-0.2,0.1-0.3,0.3-0.3,0.5c0,0.2,0.1,0.4,0.3,0.5V4.4L11.7,4.4z M12.1,6.2L11.8,6
			c-0.1,0-0.1-0.1-0.2-0.1c-0.5-0.3-0.7-0.7-0.7-1.1c0-0.5,0.4-0.9,0.9-1.1l0.3-0.1L12.1,6.2L12.1,6.2z M12.1,14.5h0.2V1.1h-0.2V2
			l-0.2,0c-1.3,0.1-3.6,0.7-3.7,3.1C8.2,7.5,10,8.1,12,8.6l0.2,0V12l-0.3-0.2c-0.8-0.4-1.1-1.2-1.1-1.6l-2.9,0.3
			c0.4,2.4,2.7,2.9,4.1,3l0.2,0L12.1,14.5L12.1,14.5z M12.8,15h-1.2v-0.9c-1.6-0.2-4-0.8-4.3-3.7l0-0.2l3.8-0.4l0,0.3
			c0,0,0,0.7,0.5,1.2l0-2.1c-2-0.5-4-1.3-3.9-3.9c0.1-2,1.5-3.3,3.9-3.6V0.6h1.2V15z"/>
		<path class="st0" d="M13.7,9.7v1.7c0.3-0.1,0.5-0.3,0.7-0.5c0.1-0.2,0.1-0.3,0.1-0.5C14.4,10.1,14.2,9.9,13.7,9.7z M13.3,12V9
			l0.3,0.1c0.8,0.3,1.2,0.6,1.4,1.2c0.1,0.3,0,0.6-0.1,0.9c-0.2,0.4-0.7,0.7-1.3,0.8L13.3,12L13.3,12z M13.2,14.5L13.2,14.5l0.1-0.9
			l0.2,0c1.1-0.1,2.1-0.4,2.6-0.7c0.9-0.6,1.5-1.5,1.6-2.6c0.1-0.9-0.2-1.6-0.8-2.2c-0.9-0.9-2.2-1.3-3.4-1.6l-0.2,0V3.7l0.3,0.2
			c0.5,0.3,0.8,0.7,0.9,1l2.8-0.5c-0.4-1.3-1.9-2.2-3.8-2.3l-0.2,0V1.1h-0.1L13.2,14.5L13.2,14.5z M13.7,15h-1V0.6h1v0.9
			c2.1,0.3,3.7,1.4,4.1,2.9l0.1,0.3l-3.7,0.6l0-0.2c0,0-0.1-0.3-0.4-0.6v1.6c1.2,0.3,2.4,0.7,3.4,1.6c0.7,0.7,1.1,1.6,1,2.6
			c-0.1,1.2-0.8,2.3-1.8,2.9c-0.6,0.4-1.5,0.6-2.6,0.8L13.7,15L13.7,15z"/>
		<path class="st0" d="M61.7,4.4c-0.2,0.1-0.3,0.3-0.3,0.5c0,0.2,0.1,0.4,0.3,0.5V4.4L61.7,4.4z M62.1,6.2L61.8,6
			c-0.1,0-0.2-0.1-0.2-0.1c-0.5-0.3-0.7-0.7-0.7-1.1c0-0.5,0.4-0.9,0.9-1.1l0.3-0.1L62.1,6.2L62.1,6.2z M62.1,14.5h0.2V1.1h-0.2V2
			l-0.2,0c-1.3,0.1-3.6,0.7-3.7,3.1c-0.1,2.3,1.8,3,3.7,3.5l0.2,0V12l-0.3-0.2c-0.8-0.4-1.1-1.2-1.1-1.6l-2.9,0.3
			c0.4,2.4,2.7,2.9,4.1,3l0.2,0L62.1,14.5L62.1,14.5z M62.8,15h-1.2l0-0.9c-1.6-0.2-4-0.8-4.3-3.7l0-0.2l3.8-0.4l0,0.3
			c0,0,0,0.7,0.5,1.2V9c-2-0.5-4-1.3-3.9-3.9c0.1-2,1.5-3.3,3.9-3.6V0.6h1.2C62.8,0.6,62.8,15,62.8,15z"/>
		<path class="st0" d="M63.7,9.7l0,1.7c0.3-0.1,0.5-0.3,0.7-0.5c0.1-0.2,0.1-0.3,0.1-0.5C64.4,10.1,64.2,9.9,63.7,9.7L63.7,9.7z
			 M63.3,12l0-3.1l0.3,0.1c0.8,0.3,1.2,0.6,1.4,1.2c0.1,0.3,0,0.6-0.1,0.9c-0.2,0.4-0.7,0.7-1.3,0.8L63.3,12L63.3,12z M63.2,14.5
			L63.2,14.5l0.1-0.9l0.2,0c1.1-0.1,2.1-0.4,2.6-0.7c0.9-0.6,1.5-1.5,1.6-2.6c0.1-0.9-0.2-1.6-0.8-2.2c-0.9-0.9-2.2-1.3-3.4-1.6
			l-0.2,0V3.7l0.3,0.2c0.5,0.3,0.8,0.7,0.9,1l2.8-0.5c-0.4-1.3-1.9-2.2-3.8-2.3l-0.2,0V1.1h-0.1L63.2,14.5L63.2,14.5z M63.7,15h-1
			V0.6h1v0.9c2.1,0.3,3.7,1.4,4.1,2.9l0.1,0.3l-3.7,0.6l0-0.2c0,0-0.1-0.3-0.4-0.6v1.6c1.2,0.3,2.4,0.7,3.4,1.6
			c0.7,0.7,1.1,1.6,1,2.6c-0.1,1.2-0.8,2.3-1.8,2.9c-0.6,0.4-1.5,0.6-2.6,0.8L63.7,15L63.7,15z"/>
		<path class="st0" d="M111.6,4.4c-0.2,0.1-0.3,0.3-0.3,0.5c0,0.2,0.1,0.4,0.3,0.5V4.4L111.6,4.4z M112.1,6.2L111.8,6
			c-0.1,0-0.1-0.1-0.2-0.1c-0.5-0.3-0.7-0.7-0.7-1.1c0-0.5,0.4-0.9,0.9-1.1l0.3-0.1L112.1,6.2L112.1,6.2z M112.1,14.5h0.2V1.1h-0.2
			V2l-0.2,0c-1.3,0.1-3.6,0.7-3.7,3.1c-0.1,2.3,1.8,3,3.7,3.5l0.2,0V12l-0.3-0.2c-0.8-0.4-1.1-1.2-1.1-1.6l-2.9,0.3
			c0.4,2.4,2.7,2.9,4.1,3l0.2,0L112.1,14.5L112.1,14.5z M112.8,15h-1.2v-0.9c-1.6-0.2-4-0.8-4.3-3.7l0-0.2l3.8-0.4l0,0.3
			c0,0,0,0.7,0.5,1.2V9c-2-0.5-4-1.3-3.9-3.9c0.1-2,1.5-3.3,3.9-3.6V0.6h1.2C112.8,0.6,112.8,15,112.8,15z"/>
		<path class="st0" d="M113.7,9.7v1.7c0.3-0.1,0.5-0.3,0.7-0.5c0.1-0.2,0.1-0.3,0.1-0.5C114.4,10.1,114.2,9.9,113.7,9.7L113.7,9.7z
			 M113.2,12l0-3.1l0.3,0.1c0.8,0.3,1.2,0.6,1.4,1.2c0.1,0.3,0,0.6-0.1,0.9c-0.2,0.4-0.7,0.7-1.3,0.8L113.2,12L113.2,12z
			 M113.1,14.5L113.1,14.5l0.1-0.9l0.2,0c1.1-0.1,2.1-0.4,2.6-0.7c0.9-0.6,1.5-1.5,1.6-2.6c0.1-0.9-0.2-1.6-0.8-2.2
			c-0.9-0.9-2.2-1.3-3.4-1.6l-0.2,0V3.7l0.3,0.2c0.5,0.3,0.8,0.7,0.9,1l2.8-0.5c-0.4-1.3-1.9-2.2-3.8-2.3l-0.2,0V1.1h-0.1
			L113.1,14.5L113.1,14.5z M113.7,15h-1V0.6h1v0.9c2.1,0.3,3.7,1.4,4.1,2.9l0.1,0.3l-3.7,0.6l0-0.2c0,0-0.1-0.3-0.4-0.6v1.6
			c1.2,0.3,2.4,0.7,3.4,1.6c0.7,0.7,1.1,1.6,1,2.6c-0.1,1.2-0.8,2.3-1.8,2.9c-0.6,0.4-1.5,0.6-2.6,0.8L113.7,15L113.7,15z"/>
		<path class="st0" d="M161.6,4.4c-0.2,0.1-0.3,0.3-0.3,0.5c0,0.2,0.1,0.4,0.3,0.5V4.4L161.6,4.4z M162.1,6.2L161.8,6
			c-0.1,0-0.1-0.1-0.2-0.1c-0.5-0.3-0.7-0.7-0.7-1.1c0-0.5,0.4-0.9,0.9-1.1l0.3-0.1L162.1,6.2L162.1,6.2z M162.1,14.5h0.2V1.1h-0.2
			V2l-0.2,0c-1.3,0.1-3.6,0.7-3.7,3.1c-0.1,2.3,1.8,3,3.7,3.5l0.2,0l0,3.3l-0.3-0.2c-0.8-0.4-1.1-1.2-1.1-1.6l-2.9,0.3
			c0.4,2.4,2.7,2.9,4.1,3l0.2,0L162.1,14.5L162.1,14.5z M162.8,15h-1.2v-0.9c-1.6-0.2-4-0.8-4.3-3.7l0-0.2l3.8-0.4l0,0.3
			c0,0,0,0.7,0.5,1.2V9c-2-0.5-4-1.3-3.9-3.9c0.1-2,1.5-3.3,3.9-3.6V0.6h1.2V15z"/>
		<path class="st0" d="M163.7,9.7v1.7c0.3-0.1,0.5-0.3,0.7-0.5c0.1-0.2,0.1-0.3,0.1-0.5C164.3,10.1,164.2,9.9,163.7,9.7L163.7,9.7z
			 M163.2,12V9l0.3,0.1c0.8,0.3,1.2,0.6,1.4,1.2c0.1,0.3,0,0.6-0.1,0.9c-0.2,0.4-0.7,0.7-1.3,0.8L163.2,12L163.2,12z M163.1,14.5
			L163.1,14.5l0.1-0.9l0.2,0c1.1-0.1,2.1-0.4,2.6-0.7c0.9-0.6,1.5-1.5,1.6-2.6c0.1-0.9-0.2-1.6-0.8-2.2c-0.9-0.9-2.3-1.3-3.4-1.6
			l-0.2,0V3.7l0.3,0.2c0.5,0.3,0.8,0.7,0.9,1l2.8-0.5c-0.4-1.3-1.9-2.2-3.8-2.3l-0.2,0l0-0.9h-0.1V14.5L163.1,14.5z M163.7,15h-1
			V0.6h1v0.9c2.1,0.3,3.7,1.4,4.1,2.9l0.1,0.3l-3.7,0.6l0-0.2c0,0-0.1-0.3-0.4-0.6v1.6c1.2,0.3,2.4,0.7,3.4,1.6
			c0.7,0.7,1.1,1.6,1,2.6c-0.1,1.2-0.8,2.3-1.8,2.9c-0.6,0.4-1.5,0.6-2.6,0.8L163.7,15L163.7,15z"/>
		<path class="st0" d="M211.6,4.4c-0.2,0.1-0.3,0.3-0.3,0.5c0,0.2,0.1,0.4,0.3,0.5V4.4L211.6,4.4z M212.1,6.2L211.7,6
			c-0.1,0-0.2-0.1-0.2-0.1c-0.5-0.3-0.7-0.7-0.7-1.1c0-0.5,0.4-0.9,0.9-1.1l0.3-0.1L212.1,6.2L212.1,6.2z M212.1,14.5h0.2V1.1h-0.2
			V2l-0.2,0c-1.3,0.1-3.6,0.7-3.7,3.1c-0.1,2.3,1.8,3,3.7,3.5l0.2,0V12l-0.3-0.2c-0.8-0.4-1.1-1.2-1.1-1.6l-2.9,0.3
			c0.4,2.4,2.7,2.9,4.1,3l0.2,0L212.1,14.5L212.1,14.5z M212.8,15h-1.2v-0.9c-1.6-0.2-4-0.8-4.3-3.7l0-0.2l3.8-0.4l0,0.3
			c0,0,0,0.7,0.5,1.2V9c-2-0.5-4-1.3-3.9-3.9c0.1-2,1.5-3.3,3.9-3.6V0.6h1.2V15L212.8,15z"/>
		<path class="st0" d="M213.7,9.7v1.7c0.3-0.1,0.5-0.3,0.7-0.5c0.1-0.2,0.1-0.3,0.1-0.5C214.3,10.1,214.2,9.9,213.7,9.7z M213.2,12
			V9l0.3,0.1c0.8,0.3,1.2,0.6,1.4,1.2c0.1,0.3,0,0.6-0.1,0.9c-0.2,0.4-0.7,0.7-1.3,0.8L213.2,12L213.2,12z M213.1,14.5L213.1,14.5
			l0.1-0.9l0.2,0c1.1-0.1,2.1-0.4,2.6-0.7c0.9-0.6,1.5-1.5,1.6-2.6c0.1-0.9-0.2-1.6-0.8-2.2c-0.9-0.9-2.2-1.3-3.4-1.6l-0.2,0V3.7
			l0.3,0.2c0.5,0.3,0.8,0.7,0.9,1l2.8-0.5c-0.4-1.3-1.9-2.2-3.8-2.3l-0.2,0V1.1h-0.1V14.5L213.1,14.5z M213.7,15h-1V0.6h1v0.9
			c2.1,0.3,3.7,1.4,4.1,2.9l0.1,0.3l-3.7,0.6l0-0.2c0,0-0.1-0.3-0.4-0.6v1.6c1.2,0.3,2.4,0.7,3.4,1.6c0.7,0.7,1.1,1.6,1,2.6
			c-0.1,1.2-0.8,2.3-1.8,2.9c-0.6,0.4-1.5,0.6-2.6,0.8L213.7,15L213.7,15z"/>
		<path class="st0" d="M1,26.5l0,1.7c0.3-0.1,0.5-0.3,0.7-0.5c0.1-0.2,0.1-0.3,0.1-0.5C1.7,26.9,1.5,26.7,1,26.5L1,26.5z M0.6,28.8
			l0-3.1l0.3,0.1c0.8,0.3,1.2,0.6,1.4,1.2c0.1,0.3,0,0.6-0.1,0.9c-0.2,0.4-0.7,0.7-1.3,0.8L0.6,28.8L0.6,28.8z M0.5,31.4L0.5,31.4
			l0.1-0.9l0.2,0c1.1-0.1,2.1-0.4,2.6-0.7c0.9-0.6,1.5-1.5,1.6-2.6c0.1-0.9-0.2-1.6-0.8-2.2c-0.9-0.9-2.2-1.3-3.4-1.6l-0.2,0v-2.8
			l0.3,0.2c0.5,0.3,0.8,0.7,0.9,1l2.8-0.5c-0.4-1.3-1.9-2.2-3.8-2.3l-0.2,0v-0.9H0.5L0.5,31.4L0.5,31.4z M1,31.8H0V17.5h1l0,0.9
			c2.1,0.3,3.7,1.4,4.1,2.9l0.1,0.3l-3.7,0.6l0-0.2c0,0-0.1-0.3-0.4-0.6v1.6c1.2,0.3,2.4,0.7,3.4,1.6c0.7,0.7,1.1,1.6,1,2.6
			c-0.1,1.2-0.8,2.3-1.8,2.9c-0.6,0.4-1.5,0.6-2.6,0.8L1,31.8L1,31.8z"/>
		<path class="st0" d="M48.9,21.2c-0.2,0.1-0.3,0.3-0.3,0.5c0,0.2,0.1,0.4,0.3,0.5V21.2L48.9,21.2z M49.4,23l-0.3-0.1
			c-0.1,0-0.1-0.1-0.2-0.1c-0.5-0.3-0.7-0.7-0.7-1.1c0-0.5,0.4-0.9,0.9-1.1l0.3-0.1L49.4,23L49.4,23z M49.4,31.4h0.2V17.9h-0.2v0.9
			l-0.2,0c-1.3,0.1-3.6,0.7-3.7,3.1c-0.1,2.3,1.8,3,3.7,3.5l0.2,0l0,3.3l-0.3-0.2c-0.8-0.4-1.1-1.2-1.1-1.6l-2.9,0.3
			c0.4,2.4,2.7,2.9,4.1,3l0.2,0L49.4,31.4L49.4,31.4z M50.1,31.8h-1.2v-0.9c-1.6-0.2-4-0.8-4.3-3.7l0-0.2l3.8-0.4l0,0.3
			c0,0,0,0.7,0.5,1.2v-2.1c-2-0.5-4-1.3-3.9-3.9c0.1-2,1.5-3.3,3.9-3.6v-0.9h1.2V31.8z"/>
		<path class="st0" d="M51,26.5v1.7c0.3-0.1,0.5-0.3,0.7-0.5c0.1-0.2,0.1-0.3,0.1-0.5C51.7,26.9,51.5,26.7,51,26.5L51,26.5z
			 M50.5,28.8l0-3.1l0.3,0.1c0.8,0.3,1.2,0.6,1.4,1.2c0.1,0.3,0,0.6-0.1,0.9c-0.2,0.4-0.7,0.7-1.3,0.8L50.5,28.8L50.5,28.8z
			 M50.5,31.4L50.5,31.4l0.1-0.9l0.2,0c1.1-0.1,2.1-0.4,2.6-0.7c0.9-0.6,1.5-1.5,1.6-2.6c0.1-0.9-0.2-1.6-0.8-2.2
			c-0.9-0.9-2.2-1.3-3.4-1.6l-0.2,0v-2.8l0.3,0.2c0.5,0.3,0.8,0.7,0.9,1l2.8-0.5c-0.4-1.3-1.9-2.2-3.8-2.3l-0.2,0l0-0.9h-0.1
			L50.5,31.4L50.5,31.4z M51,31.8h-1V17.5h1v0.9c2.1,0.3,3.7,1.4,4.1,2.9l0.1,0.3l-3.7,0.6l0-0.2c0,0-0.1-0.3-0.4-0.6v1.6
			c1.2,0.3,2.4,0.7,3.4,1.6c0.7,0.7,1.1,1.6,1,2.6c-0.1,1.2-0.8,2.3-1.8,2.9c-0.6,0.4-1.5,0.6-2.6,0.8L51,31.8L51,31.8z"/>
		<path class="st0" d="M98.9,21.2c-0.2,0.1-0.3,0.3-0.3,0.5c0,0.2,0.1,0.4,0.3,0.5V21.2L98.9,21.2z M99.4,23l-0.3-0.1
			c-0.1,0-0.1-0.1-0.2-0.1c-0.5-0.3-0.7-0.7-0.7-1.1c0-0.5,0.4-0.9,0.9-1.1l0.3-0.1L99.4,23L99.4,23z M99.4,31.4h0.2V17.9h-0.2v0.9
			l-0.2,0c-1.3,0.1-3.6,0.7-3.7,3.1c-0.1,2.3,1.8,3,3.7,3.5l0.2,0v3.3l-0.3-0.2c-0.8-0.4-1.1-1.2-1.1-1.6l-2.9,0.3
			c0.4,2.4,2.7,2.9,4.1,3l0.2,0L99.4,31.4L99.4,31.4z M100.1,31.8h-1.2v-0.9c-1.6-0.2-4-0.8-4.3-3.7l0-0.2l3.8-0.4l0,0.3
			c0,0,0,0.7,0.5,1.2l0-2.1c-2-0.5-4-1.3-3.9-3.9c0.1-2,1.5-3.3,3.9-3.6v-0.9h1.2C100.1,17.5,100.1,31.8,100.1,31.8z"/>
		<path class="st0" d="M101,26.5v1.7c0.3-0.1,0.5-0.3,0.7-0.5c0.1-0.2,0.1-0.3,0.1-0.5C101.7,26.9,101.5,26.7,101,26.5L101,26.5z
			 M100.5,28.8v-3.1l0.3,0.1c0.8,0.3,1.2,0.6,1.4,1.2c0.1,0.3,0,0.6-0.1,0.9c-0.2,0.4-0.7,0.7-1.3,0.8L100.5,28.8L100.5,28.8z
			 M100.4,31.4L100.4,31.4l0.1-0.9l0.2,0c1.1-0.1,2.1-0.4,2.6-0.7c0.9-0.6,1.5-1.5,1.6-2.6c0.1-0.9-0.2-1.6-0.8-2.2
			c-0.9-0.9-2.2-1.3-3.4-1.6l-0.2,0v-2.8l0.3,0.2c0.5,0.3,0.8,0.7,0.9,1l2.8-0.5c-0.4-1.3-1.9-2.2-3.8-2.3l-0.2,0v-0.9h-0.1
			L100.4,31.4L100.4,31.4z M101,31.8h-1V17.5h1v0.9c2.1,0.3,3.7,1.4,4.1,2.9l0.1,0.3l-3.7,0.6l0-0.2c0,0-0.1-0.3-0.4-0.6v1.6
			c1.2,0.3,2.4,0.7,3.4,1.6c0.7,0.7,1.1,1.6,1,2.6c-0.1,1.2-0.8,2.3-1.8,2.9c-0.6,0.4-1.5,0.6-2.6,0.8L101,31.8L101,31.8z"/>
		<path class="st0" d="M148.9,21.2c-0.2,0.1-0.3,0.3-0.3,0.5c0,0.2,0.1,0.4,0.3,0.5V21.2L148.9,21.2z M149.4,23l-0.3-0.1
			c-0.1,0-0.2-0.1-0.2-0.1c-0.5-0.3-0.7-0.7-0.7-1.1c0-0.5,0.4-0.9,0.9-1.1l0.3-0.1L149.4,23L149.4,23z M149.4,31.4h0.2V17.9h-0.2
			v0.9l-0.2,0c-1.3,0.1-3.6,0.7-3.7,3.1c-0.1,2.3,1.8,3,3.7,3.5l0.2,0v3.3l-0.3-0.2c-0.8-0.4-1.1-1.2-1.1-1.6l-2.9,0.3
			c0.4,2.4,2.7,2.9,4.1,3l0.2,0L149.4,31.4L149.4,31.4z M150.1,31.8h-1.2l0-0.9c-1.6-0.2-4-0.8-4.3-3.7l0-0.2l3.8-0.4l0,0.3
			c0,0,0,0.7,0.5,1.2v-2.1c-2-0.5-4-1.3-3.9-3.9c0.1-2,1.5-3.3,3.9-3.6v-0.9h1.2L150.1,31.8L150.1,31.8z"/>
		<path class="st0" d="M151,26.5l0,1.7c0.3-0.1,0.5-0.3,0.7-0.5c0.1-0.2,0.1-0.3,0.1-0.5C151.6,26.9,151.5,26.7,151,26.5L151,26.5z
			 M150.5,28.8l0-3.1l0.3,0.1c0.8,0.3,1.2,0.6,1.4,1.2c0.1,0.3,0,0.6-0.1,0.9c-0.2,0.4-0.7,0.7-1.3,0.8L150.5,28.8L150.5,28.8z
			 M150.4,31.4L150.4,31.4l0.1-0.9l0.2,0c1.1-0.1,2.1-0.4,2.6-0.7c0.9-0.6,1.5-1.5,1.6-2.6c0.1-0.9-0.2-1.6-0.8-2.2
			c-0.9-0.9-2.2-1.3-3.4-1.6l-0.2,0v-2.8l0.3,0.2c0.5,0.3,0.8,0.7,0.9,1l2.8-0.5c-0.4-1.3-1.9-2.2-3.8-2.3l-0.2,0v-0.9h-0.1V31.4
			L150.4,31.4z M151,31.8h-1V17.5h1v0.9c2.1,0.3,3.7,1.4,4.1,2.9l0.1,0.3l-3.7,0.6l0-0.2c0,0-0.1-0.3-0.4-0.6v1.6
			c1.2,0.3,2.4,0.7,3.4,1.6c0.7,0.7,1.1,1.6,1,2.6c-0.1,1.2-0.8,2.3-1.8,2.9c-0.6,0.4-1.5,0.6-2.6,0.8L151,31.8L151,31.8z"/>
		<path class="st0" d="M198.9,21.2c-0.2,0.1-0.3,0.3-0.3,0.5c0,0.2,0.1,0.4,0.3,0.5V21.2L198.9,21.2z M199.4,23l-0.3-0.1
			c-0.1,0-0.1-0.1-0.2-0.1c-0.5-0.3-0.7-0.7-0.7-1.1c0-0.5,0.4-0.9,0.9-1.1l0.3-0.1L199.4,23L199.4,23z M199.4,31.4h0.2V17.9h-0.2
			v0.9l-0.2,0c-1.3,0.1-3.6,0.7-3.7,3.1c-0.1,2.3,1.8,3,3.7,3.5l0.2,0v3.3l-0.3-0.2c-0.8-0.4-1.1-1.2-1.1-1.6l-2.9,0.3
			c0.4,2.4,2.7,2.9,4.1,3l0.2,0L199.4,31.4L199.4,31.4z M200.1,31.8h-1.2v-0.9c-1.6-0.2-4-0.8-4.3-3.7l0-0.2l3.8-0.4l0,0.3
			c0,0,0,0.7,0.5,1.2v-2.1c-2-0.5-4-1.3-3.9-3.9c0.1-2,1.5-3.3,3.9-3.6v-0.9h1.2V31.8z"/>
		<path class="st0" d="M201,26.5v1.7c0.3-0.1,0.5-0.3,0.7-0.5c0.1-0.2,0.1-0.3,0.1-0.5C201.6,26.9,201.5,26.7,201,26.5L201,26.5z
			 M200.5,28.8l0-3.1l0.3,0.1c0.8,0.3,1.2,0.6,1.4,1.2c0.1,0.3,0,0.6-0.1,0.9c-0.2,0.4-0.7,0.7-1.3,0.8L200.5,28.8L200.5,28.8z
			 M200.4,31.4L200.4,31.4l0.1-0.9l0.2,0c1.1-0.1,2.1-0.4,2.6-0.7c0.9-0.6,1.5-1.5,1.6-2.6c0.1-0.9-0.2-1.6-0.8-2.2
			c-0.9-0.9-2.2-1.3-3.4-1.6l-0.2,0v-2.8l0.3,0.2c0.5,0.3,0.8,0.7,0.9,1l2.8-0.5c-0.4-1.3-1.9-2.2-3.8-2.3l-0.2,0v-0.9h-0.1V31.4
			L200.4,31.4z M201,31.8h-1V17.5h1v0.9c2.1,0.3,3.7,1.4,4.1,2.9l0.1,0.3l-3.7,0.6l0-0.2c0,0-0.1-0.3-0.4-0.6v1.6
			c1.2,0.3,2.4,0.7,3.4,1.6c0.7,0.7,1.1,1.6,1,2.6c-0.1,1.2-0.8,2.3-1.8,2.9c-0.6,0.4-1.5,0.6-2.6,0.8L201,31.8L201,31.8z"/>
		<path class="st0" d="M11.7,38c-0.2,0.1-0.3,0.3-0.3,0.5c0,0.2,0.1,0.4,0.3,0.5V38L11.7,38z M12.1,39.8l-0.3-0.1
			c-0.1,0-0.1-0.1-0.2-0.1c-0.5-0.3-0.7-0.7-0.7-1.1c0-0.5,0.4-0.9,0.9-1.1l0.3-0.1L12.1,39.8L12.1,39.8z M12.1,48.2h0.2V34.8h-0.2
			v0.9l-0.2,0c-1.3,0.1-3.6,0.7-3.7,3.1c-0.1,2.3,1.8,3,3.7,3.5l0.2,0v3.3l-0.3-0.2c-0.8-0.4-1.1-1.2-1.1-1.6l-2.9,0.3
			c0.4,2.4,2.7,2.9,4.1,3l0.2,0L12.1,48.2L12.1,48.2z M12.8,48.7h-1.2v-0.9c-1.6-0.2-4-0.8-4.3-3.7l0-0.2l3.8-0.4l0,0.3
			c0,0,0,0.7,0.5,1.2l0-2.1c-2-0.5-4-1.3-3.9-3.9c0.1-2,1.5-3.3,3.9-3.6v-0.9h1.2V48.7z"/>
		<path class="st0" d="M13.7,43.3V45c0.3-0.1,0.5-0.3,0.7-0.5c0.1-0.2,0.1-0.3,0.1-0.5C14.4,43.7,14.2,43.5,13.7,43.3z M13.3,45.7
			v-3.1l0.3,0.1c0.8,0.3,1.2,0.6,1.4,1.2c0.1,0.3,0,0.6-0.1,0.9c-0.2,0.4-0.7,0.7-1.3,0.8L13.3,45.7L13.3,45.7z M13.2,48.2
			L13.2,48.2l0.1-0.9l0.2,0c1.1-0.1,2.1-0.4,2.6-0.7c0.9-0.6,1.5-1.5,1.6-2.6c0.1-0.9-0.2-1.6-0.8-2.2c-0.9-0.9-2.2-1.3-3.4-1.6
			l-0.2,0v-2.8l0.3,0.2c0.5,0.3,0.8,0.7,0.9,1l2.8-0.5c-0.4-1.3-1.9-2.2-3.8-2.3l-0.2,0v-0.9h-0.1L13.2,48.2L13.2,48.2z M13.7,48.7
			h-1V34.3h1v0.9c2.1,0.3,3.7,1.4,4.1,2.9l0.1,0.3L14.1,39l0-0.2c0,0-0.1-0.3-0.4-0.6v1.6c1.2,0.3,2.4,0.7,3.4,1.6
			c0.7,0.7,1.1,1.6,1,2.6c-0.1,1.2-0.8,2.3-1.8,2.9c-0.6,0.4-1.5,0.6-2.6,0.8L13.7,48.7L13.7,48.7z"/>
		<path class="st0" d="M61.7,38c-0.2,0.1-0.3,0.3-0.3,0.5c0,0.2,0.1,0.4,0.3,0.5V38L61.7,38z M62.1,39.8l-0.3-0.1
			c-0.1,0-0.2-0.1-0.2-0.1c-0.5-0.3-0.7-0.7-0.7-1.1c0-0.5,0.4-0.9,0.9-1.1l0.3-0.1L62.1,39.8L62.1,39.8z M62.1,48.2h0.2V34.8h-0.2
			v0.9l-0.2,0c-1.3,0.1-3.6,0.7-3.7,3.1c-0.1,2.3,1.8,3,3.7,3.5l0.2,0v3.3l-0.3-0.2c-0.8-0.4-1.1-1.2-1.1-1.6l-2.9,0.3
			c0.4,2.4,2.7,2.9,4.1,3l0.2,0L62.1,48.2L62.1,48.2z M62.8,48.7h-1.2l0-0.9c-1.6-0.2-4-0.8-4.3-3.7l0-0.2l3.8-0.4l0,0.3
			c0,0,0,0.7,0.5,1.2v-2.1c-2-0.5-4-1.3-3.9-3.9c0.1-2,1.5-3.3,3.9-3.6v-0.9h1.2C62.8,34.3,62.8,48.7,62.8,48.7z"/>
		<path class="st0" d="M63.7,43.3l0,1.7c0.3-0.1,0.5-0.3,0.7-0.5c0.1-0.2,0.1-0.3,0.1-0.5C64.4,43.7,64.2,43.5,63.7,43.3L63.7,43.3z
			 M63.3,45.7l0-3.1l0.3,0.1c0.8,0.3,1.2,0.6,1.4,1.2c0.1,0.3,0,0.6-0.1,0.9c-0.2,0.4-0.7,0.7-1.3,0.8L63.3,45.7L63.3,45.7z
			 M63.2,48.2L63.2,48.2l0.1-0.9l0.2,0c1.1-0.1,2.1-0.4,2.6-0.7c0.9-0.6,1.5-1.5,1.6-2.6c0.1-0.9-0.2-1.6-0.8-2.2
			c-0.9-0.9-2.2-1.3-3.4-1.6l-0.2,0v-2.8l0.3,0.2c0.5,0.3,0.8,0.7,0.9,1l2.8-0.5c-0.4-1.3-1.9-2.2-3.8-2.3l-0.2,0v-0.9h-0.1
			L63.2,48.2L63.2,48.2z M63.7,48.7h-1V34.3h1v0.9c2.1,0.3,3.7,1.4,4.1,2.9l0.1,0.3L64.1,39l0-0.2c0,0-0.1-0.3-0.4-0.6v1.6
			c1.2,0.3,2.4,0.7,3.4,1.6c0.7,0.7,1.1,1.6,1,2.6c-0.1,1.2-0.8,2.3-1.8,2.9c-0.6,0.4-1.5,0.6-2.6,0.8L63.7,48.7L63.7,48.7z"/>
		<path class="st0" d="M111.6,38c-0.2,0.1-0.3,0.3-0.3,0.5c0,0.2,0.1,0.4,0.3,0.5V38L111.6,38z M112.1,39.8l-0.3-0.1
			c-0.1,0-0.1-0.1-0.2-0.1c-0.5-0.3-0.7-0.7-0.7-1.1c0-0.5,0.4-0.9,0.9-1.1l0.3-0.1L112.1,39.8L112.1,39.8z M112.1,48.2h0.2V34.8
			h-0.2v0.9l-0.2,0c-1.3,0.1-3.6,0.7-3.7,3.1c-0.1,2.3,1.8,3,3.7,3.5l0.2,0v3.3l-0.3-0.2c-0.8-0.4-1.1-1.2-1.1-1.6l-2.9,0.3
			c0.4,2.4,2.7,2.9,4.1,3l0.2,0L112.1,48.2L112.1,48.2z M112.8,48.7h-1.2v-0.9c-1.6-0.2-4-0.8-4.3-3.7l0-0.2l3.8-0.4l0,0.3
			c0,0,0,0.7,0.5,1.2v-2.1c-2-0.5-4-1.3-3.9-3.9c0.1-2,1.5-3.3,3.9-3.6v-0.9h1.2C112.8,34.3,112.8,48.7,112.8,48.7z"/>
		<path class="st0" d="M113.7,43.3V45c0.3-0.1,0.5-0.3,0.7-0.5c0.1-0.2,0.1-0.3,0.1-0.5C114.4,43.7,114.2,43.5,113.7,43.3
			L113.7,43.3z M113.2,45.7l0-3.1l0.3,0.1c0.8,0.3,1.2,0.6,1.4,1.2c0.1,0.3,0,0.6-0.1,0.9c-0.2,0.4-0.7,0.7-1.3,0.8L113.2,45.7
			L113.2,45.7z M113.1,48.2L113.1,48.2l0.1-0.9l0.2,0c1.1-0.1,2.1-0.4,2.6-0.7c0.9-0.6,1.5-1.5,1.6-2.6c0.1-0.9-0.2-1.6-0.8-2.2
			c-0.9-0.9-2.2-1.3-3.4-1.6l-0.2,0v-2.8l0.3,0.2c0.5,0.3,0.8,0.7,0.9,1l2.8-0.5c-0.4-1.3-1.9-2.2-3.8-2.3l-0.2,0v-0.9h-0.1
			L113.1,48.2L113.1,48.2z M113.7,48.7h-1V34.3h1v0.9c2.1,0.3,3.7,1.4,4.1,2.9l0.1,0.3l-3.7,0.6l0-0.2c0,0-0.1-0.3-0.4-0.6v1.6
			c1.2,0.3,2.4,0.7,3.4,1.6c0.7,0.7,1.1,1.6,1,2.6c-0.1,1.2-0.8,2.3-1.8,2.9c-0.6,0.4-1.5,0.6-2.6,0.8L113.7,48.7L113.7,48.7z"/>
		<path class="st0" d="M161.6,38c-0.2,0.1-0.3,0.3-0.3,0.5c0,0.2,0.1,0.4,0.3,0.5V38L161.6,38z M162.1,39.8l-0.3-0.1
			c-0.1,0-0.1-0.1-0.2-0.1c-0.5-0.3-0.7-0.7-0.7-1.1c0-0.5,0.4-0.9,0.9-1.1l0.3-0.1L162.1,39.8L162.1,39.8z M162.1,48.2h0.2V34.8
			h-0.2v0.9l-0.2,0c-1.3,0.1-3.6,0.7-3.7,3.1c-0.1,2.3,1.8,3,3.7,3.5l0.2,0l0,3.3l-0.3-0.2c-0.8-0.4-1.1-1.2-1.1-1.6l-2.9,0.3
			c0.4,2.4,2.7,2.9,4.1,3l0.2,0L162.1,48.2L162.1,48.2z M162.8,48.7h-1.2v-0.9c-1.6-0.2-4-0.8-4.3-3.7l0-0.2l3.8-0.4l0,0.3
			c0,0,0,0.7,0.5,1.2v-2.1c-2-0.5-4-1.3-3.9-3.9c0.1-2,1.5-3.3,3.9-3.6v-0.9h1.2V48.7z"/>
		<path class="st0" d="M163.7,43.3V45c0.3-0.1,0.5-0.3,0.7-0.5c0.1-0.2,0.1-0.3,0.1-0.5C164.3,43.7,164.2,43.5,163.7,43.3
			L163.7,43.3z M163.2,45.7v-3.1l0.3,0.1c0.8,0.3,1.2,0.6,1.4,1.2c0.1,0.3,0,0.6-0.1,0.9c-0.2,0.4-0.7,0.7-1.3,0.8L163.2,45.7
			L163.2,45.7z M163.1,48.2L163.1,48.2l0.1-0.9l0.2,0c1.1-0.1,2.1-0.4,2.6-0.7c0.9-0.6,1.5-1.5,1.6-2.6c0.1-0.9-0.2-1.6-0.8-2.2
			c-0.9-0.9-2.3-1.3-3.4-1.6l-0.2,0v-2.8l0.3,0.2c0.5,0.3,0.8,0.7,0.9,1l2.8-0.5c-0.4-1.3-1.9-2.2-3.8-2.3l-0.2,0l0-0.9h-0.1V48.2
			L163.1,48.2z M163.7,48.7h-1V34.3h1v0.9c2.1,0.3,3.7,1.4,4.1,2.9l0.1,0.3l-3.7,0.6l0-0.2c0,0-0.1-0.3-0.4-0.6v1.6
			c1.2,0.3,2.4,0.7,3.4,1.6c0.7,0.7,1.1,1.6,1,2.6c-0.1,1.2-0.8,2.3-1.8,2.9c-0.6,0.4-1.5,0.6-2.6,0.8L163.7,48.7L163.7,48.7z"/>
		<path class="st0" d="M211.6,38c-0.2,0.1-0.3,0.3-0.3,0.5c0,0.2,0.1,0.4,0.3,0.5V38L211.6,38z M212.1,39.8l-0.3-0.1
			c-0.1,0-0.2-0.1-0.2-0.1c-0.5-0.3-0.7-0.7-0.7-1.1c0-0.5,0.4-0.9,0.9-1.1l0.3-0.1L212.1,39.8L212.1,39.8z M212.1,48.2h0.2V34.8
			h-0.2v0.9l-0.2,0c-1.3,0.1-3.6,0.7-3.7,3.1c-0.1,2.3,1.8,3,3.7,3.5l0.2,0v3.3l-0.3-0.2c-0.8-0.4-1.1-1.2-1.1-1.6l-2.9,0.3
			c0.4,2.4,2.7,2.9,4.1,3l0.2,0L212.1,48.2L212.1,48.2z M212.8,48.7h-1.2v-0.9c-1.6-0.2-4-0.8-4.3-3.7l0-0.2l3.8-0.4l0,0.3
			c0,0,0,0.7,0.5,1.2v-2.1c-2-0.5-4-1.3-3.9-3.9c0.1-2,1.5-3.3,3.9-3.6v-0.9h1.2V48.7L212.8,48.7z"/>
		<path class="st0" d="M213.7,43.3V45c0.3-0.1,0.5-0.3,0.7-0.5c0.1-0.2,0.1-0.3,0.1-0.5C214.3,43.7,214.2,43.5,213.7,43.3z
			 M213.2,45.7v-3.1l0.3,0.1c0.8,0.3,1.2,0.6,1.4,1.2c0.1,0.3,0,0.6-0.1,0.9c-0.2,0.4-0.7,0.7-1.3,0.8L213.2,45.7L213.2,45.7z
			 M213.1,48.2L213.1,48.2l0.1-0.9l0.2,0c1.1-0.1,2.1-0.4,2.6-0.7c0.9-0.6,1.5-1.5,1.6-2.6c0.1-0.9-0.2-1.6-0.8-2.2
			c-0.9-0.9-2.2-1.3-3.4-1.6l-0.2,0v-2.8l0.3,0.2c0.5,0.3,0.8,0.7,0.9,1l2.8-0.5c-0.4-1.3-1.9-2.2-3.8-2.3l-0.2,0v-0.9h-0.1V48.2
			L213.1,48.2z M213.7,48.7h-1V34.3h1v0.9c2.1,0.3,3.7,1.4,4.1,2.9l0.1,0.3l-3.7,0.6l0-0.2c0,0-0.1-0.3-0.4-0.6v1.6
			c1.2,0.3,2.4,0.7,3.4,1.6c0.7,0.7,1.1,1.6,1,2.6c-0.1,1.2-0.8,2.3-1.8,2.9c-0.6,0.4-1.5,0.6-2.6,0.8L213.7,48.7L213.7,48.7z"/>
		<path class="st0" d="M1,60.1l0,1.7c0.3-0.1,0.5-0.3,0.7-0.5c0.1-0.2,0.1-0.3,0.1-0.5C1.7,60.6,1.5,60.3,1,60.1L1,60.1z M0.6,62.5
			l0-3.1l0.3,0.1c0.8,0.3,1.2,0.6,1.4,1.2c0.1,0.3,0,0.6-0.1,0.9c-0.2,0.4-0.7,0.7-1.3,0.8C0.8,62.4,0.6,62.5,0.6,62.5z M0.5,65
			L0.5,65l0.1-0.9l0.2,0c1.1-0.1,2.1-0.4,2.6-0.7c0.9-0.6,1.5-1.5,1.6-2.6c0.1-0.9-0.2-1.6-0.8-2.2c-0.9-0.9-2.2-1.3-3.4-1.6l-0.2,0
			v-2.8l0.3,0.2c0.5,0.3,0.8,0.7,0.9,1l2.8-0.5c-0.4-1.3-1.9-2.2-3.8-2.3l-0.2,0v-0.9H0.5L0.5,65L0.5,65z M1,65.5H0V51.1h1L1,52
			c2.1,0.3,3.7,1.4,4.1,2.9l0.1,0.3l-3.7,0.6l0-0.2c0,0-0.1-0.3-0.4-0.6v1.6c1.2,0.3,2.4,0.7,3.4,1.6c0.7,0.7,1.1,1.6,1,2.6
			c-0.1,1.2-0.8,2.3-1.8,2.9c-0.6,0.4-1.5,0.6-2.6,0.8L1,65.5L1,65.5z"/>
		<path class="st0" d="M48.9,54.9c-0.2,0.1-0.3,0.3-0.3,0.5c0,0.2,0.1,0.4,0.3,0.5V54.9L48.9,54.9z M49.4,56.7l-0.3-0.1
			c-0.1,0-0.1-0.1-0.2-0.1c-0.5-0.3-0.7-0.7-0.7-1.1c0-0.5,0.4-0.9,0.9-1.1l0.3-0.1L49.4,56.7L49.4,56.7z M49.4,65h0.2V51.6h-0.2
			v0.9l-0.2,0c-1.3,0.1-3.6,0.7-3.7,3.1c-0.1,2.3,1.8,3,3.7,3.5l0.2,0l0,3.3l-0.3-0.2c-0.8-0.4-1.1-1.2-1.1-1.6l-2.9,0.3
			c0.4,2.4,2.7,2.9,4.1,3l0.2,0L49.4,65L49.4,65z M50.1,65.5h-1.2v-0.9c-1.6-0.2-4-0.8-4.3-3.7l0-0.2l3.8-0.4l0,0.3
			c0,0,0,0.7,0.5,1.2v-2.1c-2-0.5-4-1.3-3.9-3.9c0.1-2,1.5-3.2,3.9-3.6v-0.9h1.2V65.5z"/>
		<path class="st0" d="M51,60.1v1.7c0.3-0.1,0.5-0.3,0.7-0.5c0.1-0.2,0.1-0.3,0.1-0.5C51.7,60.6,51.5,60.3,51,60.1L51,60.1z
			 M50.5,62.5l0-3.1l0.3,0.1c0.8,0.3,1.2,0.6,1.4,1.2c0.1,0.3,0,0.6-0.1,0.9c-0.2,0.4-0.7,0.7-1.3,0.8
			C50.8,62.4,50.5,62.5,50.5,62.5z M50.5,65L50.5,65l0.1-0.9l0.2,0c1.1-0.1,2.1-0.4,2.6-0.7c0.9-0.6,1.5-1.5,1.6-2.6
			c0.1-0.9-0.2-1.6-0.8-2.2c-0.9-0.9-2.2-1.3-3.4-1.6l-0.2,0v-2.8l0.3,0.2c0.5,0.3,0.8,0.7,0.9,1l2.8-0.5c-0.4-1.3-1.9-2.2-3.8-2.3
			l-0.2,0l0-0.9h-0.1L50.5,65L50.5,65z M51,65.5h-1V51.1h1V52c2.1,0.3,3.7,1.4,4.1,2.9l0.1,0.3l-3.7,0.6l0-0.2c0,0-0.1-0.3-0.4-0.6
			v1.6c1.2,0.3,2.4,0.7,3.4,1.6c0.7,0.7,1.1,1.6,1,2.6c-0.1,1.2-0.8,2.3-1.8,2.9c-0.6,0.4-1.5,0.6-2.6,0.8L51,65.5L51,65.5z"/>
		<path class="st0" d="M98.9,54.9c-0.2,0.1-0.3,0.3-0.3,0.5c0,0.2,0.1,0.4,0.3,0.5V54.9L98.9,54.9z M99.4,56.7l-0.3-0.1
			c-0.1,0-0.1-0.1-0.2-0.1c-0.5-0.3-0.7-0.7-0.7-1.1c0-0.5,0.4-0.9,0.9-1.1l0.3-0.1L99.4,56.7L99.4,56.7z M99.4,65h0.2V51.6h-0.2
			v0.9l-0.2,0c-1.3,0.1-3.6,0.7-3.7,3.1c-0.1,2.3,1.8,3,3.7,3.5l0.2,0v3.3l-0.3-0.2c-0.8-0.4-1.1-1.2-1.1-1.6l-2.9,0.3
			c0.4,2.4,2.7,2.9,4.1,3l0.2,0L99.4,65L99.4,65z M100.1,65.5h-1.2v-0.9c-1.6-0.2-4-0.8-4.3-3.7l0-0.2l3.8-0.4l0,0.3
			c0,0,0,0.7,0.5,1.2l0-2.1c-2-0.5-4-1.3-3.9-3.9c0.1-2,1.5-3.2,3.9-3.6v-0.9h1.2C100.1,51.1,100.1,65.5,100.1,65.5z"/>
		<path class="st0" d="M101,60.1v1.7c0.3-0.1,0.5-0.3,0.7-0.5c0.1-0.2,0.1-0.3,0.1-0.5C101.7,60.6,101.5,60.3,101,60.1L101,60.1z
			 M100.5,62.5v-3.1l0.3,0.1c0.8,0.3,1.2,0.6,1.4,1.2c0.1,0.3,0,0.6-0.1,0.9c-0.2,0.4-0.7,0.7-1.3,0.8
			C100.8,62.4,100.5,62.5,100.5,62.5z M100.4,65L100.4,65l0.1-0.9l0.2,0c1.1-0.1,2.1-0.4,2.6-0.7c0.9-0.6,1.5-1.5,1.6-2.6
			c0.1-0.9-0.2-1.6-0.8-2.2c-0.9-0.9-2.2-1.3-3.4-1.6l-0.2,0v-2.8l0.3,0.2c0.5,0.3,0.8,0.7,0.9,1l2.8-0.5c-0.4-1.3-1.9-2.2-3.8-2.3
			l-0.2,0v-0.9h-0.1L100.4,65L100.4,65z M101,65.5h-1V51.1h1V52c2.1,0.3,3.7,1.4,4.1,2.9l0.1,0.3l-3.7,0.6l0-0.2
			c0,0-0.1-0.3-0.4-0.6v1.6c1.2,0.3,2.4,0.7,3.4,1.6c0.7,0.7,1.1,1.6,1,2.6c-0.1,1.2-0.8,2.3-1.8,2.9c-0.6,0.4-1.5,0.6-2.6,0.8
			L101,65.5L101,65.5z"/>
		<path class="st0" d="M148.9,54.9c-0.2,0.1-0.3,0.3-0.3,0.5c0,0.2,0.1,0.4,0.3,0.5V54.9L148.9,54.9z M149.4,56.7l-0.3-0.1
			c-0.1,0-0.2-0.1-0.2-0.1c-0.5-0.3-0.7-0.7-0.7-1.1c0-0.5,0.4-0.9,0.9-1.1l0.3-0.1L149.4,56.7L149.4,56.7z M149.4,65h0.2V51.6h-0.2
			v0.9l-0.2,0c-1.3,0.1-3.6,0.7-3.7,3.1c-0.1,2.3,1.8,3,3.7,3.5l0.2,0v3.3l-0.3-0.2c-0.8-0.4-1.1-1.2-1.1-1.6l-2.9,0.3
			c0.4,2.4,2.7,2.9,4.1,3l0.2,0L149.4,65L149.4,65z M150.1,65.5h-1.2l0-0.9c-1.6-0.2-4-0.8-4.3-3.7l0-0.2l3.8-0.4l0,0.3
			c0,0,0,0.7,0.5,1.2v-2.1c-2-0.5-4-1.3-3.9-3.9c0.1-2,1.5-3.2,3.9-3.6v-0.9h1.2L150.1,65.5L150.1,65.5z"/>
		<path class="st0" d="M151,60.1l0,1.7c0.3-0.1,0.5-0.3,0.7-0.5c0.1-0.2,0.1-0.3,0.1-0.5C151.6,60.6,151.5,60.3,151,60.1L151,60.1z
			 M150.5,62.5l0-3.1l0.3,0.1c0.8,0.3,1.2,0.6,1.4,1.2c0.1,0.3,0,0.6-0.1,0.9c-0.2,0.4-0.7,0.7-1.3,0.8L150.5,62.5L150.5,62.5z
			 M150.4,65L150.4,65l0.1-0.9l0.2,0c1.1-0.1,2.1-0.4,2.6-0.7c0.9-0.6,1.5-1.5,1.6-2.6c0.1-0.9-0.2-1.6-0.8-2.2
			c-0.9-0.9-2.2-1.3-3.4-1.6l-0.2,0v-2.8l0.3,0.2c0.5,0.3,0.8,0.7,0.9,1l2.8-0.5c-0.4-1.3-1.9-2.2-3.8-2.3l-0.2,0v-0.9h-0.1V65
			L150.4,65z M151,65.5h-1V51.1h1V52c2.1,0.3,3.7,1.4,4.1,2.9l0.1,0.3l-3.7,0.6l0-0.2c0,0-0.1-0.3-0.4-0.6v1.6
			c1.2,0.3,2.4,0.7,3.4,1.6c0.7,0.7,1.1,1.6,1,2.6c-0.1,1.2-0.8,2.3-1.8,2.9c-0.6,0.4-1.5,0.6-2.6,0.8L151,65.5L151,65.5z"/>
		<path class="st0" d="M198.9,54.9c-0.2,0.1-0.3,0.3-0.3,0.5c0,0.2,0.1,0.4,0.3,0.5V54.9L198.9,54.9z M199.4,56.7l-0.3-0.1
			c-0.1,0-0.1-0.1-0.2-0.1c-0.5-0.3-0.7-0.7-0.7-1.1c0-0.5,0.4-0.9,0.9-1.1l0.3-0.1L199.4,56.7L199.4,56.7z M199.4,65h0.2V51.6h-0.2
			v0.9l-0.2,0c-1.3,0.1-3.6,0.7-3.7,3.1c-0.1,2.3,1.8,3,3.7,3.5l0.2,0v3.3l-0.3-0.2c-0.8-0.4-1.1-1.2-1.1-1.6l-2.9,0.3
			c0.4,2.4,2.7,2.9,4.1,3l0.2,0L199.4,65L199.4,65z M200.1,65.5h-1.2v-0.9c-1.6-0.2-4-0.8-4.3-3.7l0-0.2l3.8-0.4l0,0.3
			c0,0,0,0.7,0.5,1.2v-2.1c-2-0.5-4-1.3-3.9-3.9c0.1-2,1.5-3.2,3.9-3.6v-0.9h1.2V65.5z"/>
		<path class="st0" d="M201,60.1v1.7c0.3-0.1,0.5-0.3,0.7-0.5c0.1-0.2,0.1-0.3,0.1-0.5C201.6,60.6,201.5,60.3,201,60.1L201,60.1z
			 M200.5,62.5l0-3.1l0.3,0.1c0.8,0.3,1.2,0.6,1.4,1.2c0.1,0.3,0,0.6-0.1,0.9c-0.2,0.4-0.7,0.7-1.3,0.8
			C200.8,62.4,200.5,62.5,200.5,62.5z M200.4,65L200.4,65l0.1-0.9l0.2,0c1.1-0.1,2.1-0.4,2.6-0.7c0.9-0.6,1.5-1.5,1.6-2.6
			c0.1-0.9-0.2-1.6-0.8-2.2c-0.9-0.9-2.2-1.3-3.4-1.6l-0.2,0v-2.8l0.3,0.2c0.5,0.3,0.8,0.7,0.9,1l2.8-0.5c-0.4-1.3-1.9-2.2-3.8-2.3
			l-0.2,0v-0.9h-0.1V65L200.4,65z M201,65.5h-1V51.1h1V52c2.1,0.3,3.7,1.4,4.1,2.9l0.1,0.3l-3.7,0.6l0-0.2c0,0-0.1-0.3-0.4-0.6v1.6
			c1.2,0.3,2.4,0.7,3.4,1.6c0.7,0.7,1.1,1.6,1,2.6c-0.1,1.2-0.8,2.3-1.8,2.9c-0.6,0.4-1.5,0.6-2.6,0.8L201,65.5L201,65.5z"/>
		<path class="st0" d="M11.7,71.7c-0.2,0.1-0.3,0.3-0.3,0.5c0,0.2,0.1,0.4,0.3,0.5V71.7L11.7,71.7z M12.1,73.5l-0.3-0.1
			c-0.1,0-0.1-0.1-0.2-0.1c-0.5-0.3-0.7-0.7-0.7-1.1c0-0.5,0.4-0.9,0.9-1.1l0.3-0.1L12.1,73.5L12.1,73.5z M12.1,81.8h0.2V68.4h-0.2
			v0.9l-0.2,0c-1.3,0.1-3.6,0.7-3.7,3.1c-0.1,2.3,1.8,3,3.7,3.5l0.2,0v3.3l-0.3-0.2c-0.8-0.4-1.1-1.2-1.1-1.6l-2.9,0.3
			c0.4,2.4,2.7,2.9,4.1,3l0.2,0L12.1,81.8L12.1,81.8z M12.8,82.3h-1.2v-0.9c-1.6-0.2-4-0.8-4.3-3.7l0-0.2l3.8-0.4l0,0.3
			c0,0,0,0.7,0.5,1.2l0-2.1c-2-0.5-4-1.3-3.9-3.9c0.1-2,1.5-3.3,3.9-3.6v-0.9h1.2V82.3L12.8,82.3z"/>
		<path class="st0" d="M13.7,76.9v1.7c0.3-0.1,0.5-0.3,0.7-0.5c0.1-0.2,0.1-0.3,0.1-0.5C14.4,77.4,14.2,77.2,13.7,76.9z M13.3,79.3
			v-3.1l0.3,0.1c0.8,0.3,1.2,0.6,1.4,1.2c0.1,0.3,0,0.6-0.1,0.9c-0.2,0.4-0.7,0.7-1.3,0.8C13.6,79.2,13.3,79.3,13.3,79.3z
			 M13.2,81.8L13.2,81.8l0.1-0.9l0.2,0c1.1-0.1,2.1-0.4,2.6-0.7c0.9-0.6,1.5-1.5,1.6-2.6c0.1-0.9-0.2-1.6-0.8-2.2
			c-0.9-0.9-2.2-1.3-3.4-1.6l-0.2,0v-2.8l0.3,0.2c0.5,0.3,0.8,0.7,0.9,1l2.8-0.5c-0.4-1.3-1.9-2.2-3.8-2.3l-0.2,0v-0.9h-0.1
			L13.2,81.8L13.2,81.8z M13.7,82.3h-1V67.9h1v0.9c2.1,0.3,3.7,1.4,4.1,2.9l0.1,0.3l-3.7,0.6l0-0.2c0,0-0.1-0.3-0.4-0.6v1.6
			c1.2,0.3,2.4,0.7,3.4,1.6c0.7,0.7,1.1,1.6,1,2.6c-0.1,1.2-0.8,2.3-1.8,2.9c-0.6,0.4-1.5,0.6-2.6,0.8L13.7,82.3L13.7,82.3z"/>
		<path class="st0" d="M61.7,71.7c-0.2,0.1-0.3,0.3-0.3,0.5c0,0.2,0.1,0.4,0.3,0.5V71.7L61.7,71.7z M62.1,73.5l-0.3-0.1
			c-0.1,0-0.2-0.1-0.2-0.1c-0.5-0.3-0.7-0.7-0.7-1.1c0-0.5,0.4-0.9,0.9-1.1l0.3-0.1L62.1,73.5L62.1,73.5z M62.1,81.8h0.2V68.4h-0.2
			v0.9l-0.2,0c-1.3,0.1-3.6,0.7-3.7,3.1c-0.1,2.3,1.8,3,3.7,3.5l0.2,0v3.3l-0.3-0.2c-0.8-0.4-1.1-1.2-1.1-1.6l-2.9,0.3
			c0.4,2.4,2.7,2.9,4.1,3l0.2,0L62.1,81.8L62.1,81.8z M62.8,82.3h-1.2l0-0.9c-1.6-0.2-4-0.8-4.3-3.7l0-0.2l3.8-0.4l0,0.3
			c0,0,0,0.7,0.5,1.2v-2.1c-2-0.5-4-1.3-3.9-3.9c0.1-2,1.5-3.3,3.9-3.6v-0.9h1.2L62.8,82.3L62.8,82.3z"/>
		<path class="st0" d="M63.7,76.9l0,1.7c0.3-0.1,0.5-0.3,0.7-0.5c0.1-0.2,0.1-0.3,0.1-0.5C64.4,77.4,64.2,77.2,63.7,76.9L63.7,76.9z
			 M63.3,79.3l0-3.1l0.3,0.1c0.8,0.3,1.2,0.6,1.4,1.2c0.1,0.3,0,0.6-0.1,0.9c-0.2,0.4-0.7,0.7-1.3,0.8
			C63.5,79.2,63.3,79.3,63.3,79.3z M63.2,81.8L63.2,81.8l0.1-0.9l0.2,0c1.1-0.1,2.1-0.4,2.6-0.7c0.9-0.6,1.5-1.5,1.6-2.6
			c0.1-0.9-0.2-1.6-0.8-2.2c-0.9-0.9-2.2-1.3-3.4-1.6l-0.2,0v-2.8l0.3,0.2c0.5,0.3,0.8,0.7,0.9,1l2.8-0.5c-0.4-1.3-1.9-2.2-3.8-2.3
			l-0.2,0v-0.9h-0.1L63.2,81.8L63.2,81.8z M63.7,82.3h-1V67.9h1v0.9c2.1,0.3,3.7,1.4,4.1,2.9l0.1,0.3l-3.7,0.6l0-0.2
			c0,0-0.1-0.3-0.4-0.6v1.6c1.2,0.3,2.4,0.7,3.4,1.6c0.7,0.7,1.1,1.6,1,2.6c-0.1,1.2-0.8,2.3-1.8,2.9c-0.6,0.4-1.5,0.6-2.6,0.8
			L63.7,82.3L63.7,82.3z"/>
		<path class="st0" d="M111.6,71.7c-0.2,0.1-0.3,0.3-0.3,0.5c0,0.2,0.1,0.4,0.3,0.5V71.7L111.6,71.7z M112.1,73.5l-0.3-0.1
			c-0.1,0-0.1-0.1-0.2-0.1c-0.5-0.3-0.7-0.7-0.7-1.1c0-0.5,0.4-0.9,0.9-1.1l0.3-0.1L112.1,73.5L112.1,73.5z M112.1,81.8h0.2V68.4
			h-0.2v0.9l-0.2,0c-1.3,0.1-3.6,0.7-3.7,3.1c-0.1,2.3,1.8,3,3.7,3.5l0.2,0v3.3l-0.3-0.2c-0.8-0.4-1.1-1.2-1.1-1.6l-2.9,0.3
			c0.4,2.4,2.7,2.9,4.1,3l0.2,0L112.1,81.8L112.1,81.8z M112.8,82.3h-1.2v-0.9c-1.6-0.2-4-0.8-4.3-3.7l0-0.2l3.8-0.4l0,0.3
			c0,0,0,0.7,0.5,1.2v-2.1c-2-0.5-4-1.3-3.9-3.9c0.1-2,1.5-3.3,3.9-3.6v-0.9h1.2L112.8,82.3L112.8,82.3z"/>
		<path class="st0" d="M113.7,76.9v1.7c0.3-0.1,0.5-0.3,0.7-0.5c0.1-0.2,0.1-0.3,0.1-0.5C114.4,77.4,114.2,77.2,113.7,76.9
			L113.7,76.9z M113.2,79.3l0-3.1l0.3,0.1c0.8,0.3,1.2,0.6,1.4,1.2c0.1,0.3,0,0.6-0.1,0.9c-0.2,0.4-0.7,0.7-1.3,0.8
			C113.5,79.2,113.2,79.3,113.2,79.3z M113.1,81.8L113.1,81.8l0.1-0.9l0.2,0c1.1-0.1,2.1-0.4,2.6-0.7c0.9-0.6,1.5-1.5,1.6-2.6
			c0.1-0.9-0.2-1.6-0.8-2.2c-0.9-0.9-2.2-1.3-3.4-1.6l-0.2,0v-2.8l0.3,0.2c0.5,0.3,0.8,0.7,0.9,1l2.8-0.5c-0.4-1.3-1.9-2.2-3.8-2.3
			l-0.2,0v-0.9h-0.1L113.1,81.8L113.1,81.8z M113.7,82.3h-1V67.9h1v0.9c2.1,0.3,3.7,1.4,4.1,2.9l0.1,0.3l-3.7,0.6l0-0.2
			c0,0-0.1-0.3-0.4-0.6v1.6c1.2,0.3,2.4,0.7,3.4,1.6c0.7,0.7,1.1,1.6,1,2.6c-0.1,1.2-0.8,2.3-1.8,2.9c-0.6,0.4-1.5,0.6-2.6,0.8
			L113.7,82.3L113.7,82.3z"/>
		<path class="st0" d="M161.6,71.7c-0.2,0.1-0.3,0.3-0.3,0.5c0,0.2,0.1,0.4,0.3,0.5V71.7L161.6,71.7z M162.1,73.5l-0.3-0.1
			c-0.1,0-0.1-0.1-0.2-0.1c-0.5-0.3-0.7-0.7-0.7-1.1c0-0.5,0.4-0.9,0.9-1.1l0.3-0.1L162.1,73.5L162.1,73.5z M162.1,81.8h0.2V68.4
			h-0.2v0.9l-0.2,0c-1.3,0.1-3.6,0.7-3.7,3.1c-0.1,2.3,1.8,3,3.7,3.5l0.2,0l0,3.3l-0.3-0.2c-0.8-0.4-1.1-1.2-1.1-1.6l-2.9,0.3
			c0.4,2.4,2.7,2.9,4.1,3l0.2,0L162.1,81.8L162.1,81.8z M162.8,82.3h-1.2v-0.9c-1.6-0.2-4-0.8-4.3-3.7l0-0.2l3.8-0.4l0,0.3
			c0,0,0,0.7,0.5,1.2v-2.1c-2-0.5-4-1.3-3.9-3.9c0.1-2,1.5-3.3,3.9-3.6v-0.9h1.2V82.3L162.8,82.3z"/>
		<path class="st0" d="M163.7,76.9v1.7c0.3-0.1,0.5-0.3,0.7-0.5c0.1-0.2,0.1-0.3,0.1-0.5C164.3,77.4,164.2,77.2,163.7,76.9
			L163.7,76.9z M163.2,79.3v-3.1l0.3,0.1c0.8,0.3,1.2,0.6,1.4,1.2c0.1,0.3,0,0.6-0.1,0.9c-0.2,0.4-0.7,0.7-1.3,0.8L163.2,79.3
			L163.2,79.3z M163.1,81.8L163.1,81.8l0.1-0.9l0.2,0c1.1-0.1,2.1-0.4,2.6-0.7c0.9-0.6,1.5-1.5,1.6-2.6c0.1-0.9-0.2-1.6-0.8-2.2
			c-0.9-0.9-2.3-1.3-3.4-1.6l-0.2,0v-2.8l0.3,0.2c0.5,0.3,0.8,0.7,0.9,1l2.8-0.5c-0.4-1.3-1.9-2.2-3.8-2.3l-0.2,0l0-0.9h-0.1V81.8
			L163.1,81.8z M163.7,82.3h-1V67.9h1v0.9c2.1,0.3,3.7,1.4,4.1,2.9l0.1,0.3l-3.7,0.6l0-0.2c0,0-0.1-0.3-0.4-0.6v1.6
			c1.2,0.3,2.4,0.7,3.4,1.6c0.7,0.7,1.1,1.6,1,2.6c-0.1,1.2-0.8,2.3-1.8,2.9c-0.6,0.4-1.5,0.6-2.6,0.8L163.7,82.3L163.7,82.3z"/>
		<path class="st0" d="M211.6,71.7c-0.2,0.1-0.3,0.3-0.3,0.5c0,0.2,0.1,0.4,0.3,0.5V71.7L211.6,71.7z M212.1,73.5l-0.3-0.1
			c-0.1,0-0.2-0.1-0.2-0.1c-0.5-0.3-0.7-0.7-0.7-1.1c0-0.5,0.4-0.9,0.9-1.1l0.3-0.1L212.1,73.5L212.1,73.5z M212.1,81.8h0.2V68.4
			h-0.2v0.9l-0.2,0c-1.3,0.1-3.6,0.7-3.7,3.1c-0.1,2.3,1.8,3,3.7,3.5l0.2,0v3.3l-0.3-0.2c-0.8-0.4-1.1-1.2-1.1-1.6l-2.9,0.3
			c0.4,2.4,2.7,2.9,4.1,3l0.2,0L212.1,81.8L212.1,81.8z M212.8,82.3h-1.2v-0.9c-1.6-0.2-4-0.8-4.3-3.7l0-0.2l3.8-0.4l0,0.3
			c0,0,0,0.7,0.5,1.2v-2.1c-2-0.5-4-1.3-3.9-3.9c0.1-2,1.5-3.3,3.9-3.6v-0.9h1.2V82.3L212.8,82.3z"/>
		<path class="st0" d="M213.7,76.9v1.7c0.3-0.1,0.5-0.3,0.7-0.5c0.1-0.2,0.1-0.3,0.1-0.5C214.3,77.4,214.2,77.2,213.7,76.9z
			 M213.2,79.3v-3.1l0.3,0.1c0.8,0.3,1.2,0.6,1.4,1.2c0.1,0.3,0,0.6-0.1,0.9c-0.2,0.4-0.7,0.7-1.3,0.8L213.2,79.3z M213.1,81.8
			L213.1,81.8l0.1-0.9l0.2,0c1.1-0.1,2.1-0.4,2.6-0.7c0.9-0.6,1.5-1.5,1.6-2.6c0.1-0.9-0.2-1.6-0.8-2.2c-0.9-0.9-2.2-1.3-3.4-1.6
			l-0.2,0v-2.8l0.3,0.2c0.5,0.3,0.8,0.7,0.9,1l2.8-0.5c-0.4-1.3-1.9-2.2-3.8-2.3l-0.2,0v-0.9h-0.1V81.8L213.1,81.8z M213.7,82.3h-1
			V67.9h1v0.9c2.1,0.3,3.7,1.4,4.1,2.9l0.1,0.3l-3.7,0.6l0-0.2c0,0-0.1-0.3-0.4-0.6v1.6c1.2,0.3,2.4,0.7,3.4,1.6
			c0.7,0.7,1.1,1.6,1,2.6c-0.1,1.2-0.8,2.3-1.8,2.9c-0.6,0.4-1.5,0.6-2.6,0.8L213.7,82.3L213.7,82.3z"/>
		<path class="st0" d="M1,93.8l0,1.7c0.3-0.1,0.5-0.3,0.7-0.5c0.1-0.2,0.1-0.3,0.1-0.5C1.7,94.2,1.5,94,1,93.8L1,93.8z M0.6,96.1
			l0-3.1l0.3,0.1c0.8,0.3,1.2,0.6,1.4,1.2c0.1,0.3,0,0.6-0.1,0.9c-0.2,0.4-0.7,0.7-1.3,0.8L0.6,96.1L0.6,96.1z M0.5,98.6L0.5,98.6
			l0.1-0.9l0.2,0c1.1-0.1,2.1-0.4,2.6-0.7c0.9-0.6,1.5-1.5,1.6-2.6c0.1-0.9-0.2-1.6-0.8-2.2c-0.9-0.9-2.2-1.3-3.4-1.6l-0.2,0v-2.8
			l0.3,0.2c0.5,0.3,0.8,0.7,0.9,1l2.8-0.5c-0.4-1.3-1.9-2.2-3.8-2.3l-0.2,0v-0.9H0.5L0.5,98.6L0.5,98.6z M1,99.1H0V84.7h1l0,0.9
			c2.1,0.3,3.7,1.4,4.1,2.9l0.1,0.3l-3.7,0.6l0-0.2c0,0-0.1-0.3-0.4-0.6v1.6c1.2,0.3,2.4,0.7,3.4,1.6c0.7,0.7,1.1,1.6,1,2.6
			c-0.1,1.2-0.8,2.3-1.8,2.9C3.1,97.7,2.1,98,1,98.2L1,99.1L1,99.1z"/>
		<path class="st0" d="M48.9,88.5c-0.2,0.1-0.3,0.3-0.3,0.5c0,0.2,0.1,0.4,0.3,0.5V88.5L48.9,88.5z M49.4,90.3l-0.3-0.1
			c-0.1,0-0.1-0.1-0.2-0.1c-0.5-0.3-0.7-0.7-0.7-1.1c0-0.5,0.4-0.9,0.9-1.1l0.3-0.1L49.4,90.3L49.4,90.3z M49.4,98.6h0.2V85.2h-0.2
			v0.9l-0.2,0c-1.3,0.1-3.6,0.7-3.7,3.1c-0.1,2.3,1.8,3,3.7,3.5l0.2,0l0,3.3L49.1,96c-0.8-0.4-1.1-1.2-1.1-1.6l-2.9,0.3
			c0.4,2.4,2.7,2.9,4.1,3l0.2,0L49.4,98.6L49.4,98.6z M50.1,99.1h-1.2v-0.9c-1.6-0.2-4-0.8-4.3-3.7l0-0.2l3.8-0.5l0,0.3
			c0,0,0,0.7,0.5,1.2v-2.1c-2-0.5-4-1.3-3.9-3.9c0.1-2,1.5-3.2,3.9-3.6v-0.9h1.2V99.1L50.1,99.1z"/>
		<path class="st0" d="M51,93.8v1.7c0.3-0.1,0.5-0.3,0.7-0.5c0.1-0.2,0.1-0.3,0.1-0.5C51.7,94.2,51.5,94,51,93.8L51,93.8z
			 M50.5,96.1l0-3.1l0.3,0.1c0.8,0.3,1.2,0.6,1.4,1.2c0.1,0.3,0,0.6-0.1,0.9c-0.2,0.4-0.7,0.7-1.3,0.8L50.5,96.1L50.5,96.1z
			 M50.5,98.6L50.5,98.6l0.1-0.9l0.2,0c1.1-0.1,2.1-0.4,2.6-0.7c0.9-0.6,1.5-1.5,1.6-2.6c0.1-0.9-0.2-1.6-0.8-2.2
			c-0.9-0.9-2.2-1.3-3.4-1.6l-0.2,0v-2.8l0.3,0.2c0.5,0.3,0.8,0.7,0.9,1l2.8-0.5c-0.4-1.3-1.9-2.2-3.8-2.3l-0.2,0l0-0.9h-0.1
			L50.5,98.6L50.5,98.6z M51,99.1h-1V84.7h1v0.9c2.1,0.3,3.7,1.4,4.1,2.9l0.1,0.3l-3.7,0.6l0-0.2c0,0-0.1-0.3-0.4-0.6v1.6
			c1.2,0.3,2.4,0.7,3.4,1.6c0.7,0.7,1.1,1.6,1,2.6c-0.1,1.2-0.8,2.3-1.8,2.9c-0.6,0.4-1.5,0.6-2.6,0.8L51,99.1L51,99.1z"/>
		<path class="st0" d="M98.9,88.5c-0.2,0.1-0.3,0.3-0.3,0.5c0,0.2,0.1,0.4,0.3,0.5V88.5L98.9,88.5z M99.4,90.3l-0.3-0.1
			c-0.1,0-0.1-0.1-0.2-0.1c-0.5-0.3-0.7-0.7-0.7-1.1c0-0.5,0.4-0.9,0.9-1.1l0.3-0.1L99.4,90.3L99.4,90.3z M99.4,98.6h0.2V85.2h-0.2
			v0.9l-0.2,0c-1.3,0.1-3.6,0.7-3.7,3.1c-0.1,2.3,1.8,3,3.7,3.5l0.2,0v3.3L99.1,96c-0.8-0.4-1.1-1.2-1.1-1.6l-2.9,0.3
			c0.4,2.4,2.7,2.9,4.1,3l0.2,0L99.4,98.6L99.4,98.6z M100.1,99.1h-1.2v-0.9c-1.6-0.2-4-0.8-4.3-3.7l0-0.2l3.8-0.5l0,0.3
			c0,0,0,0.7,0.5,1.2l0-2.1c-2-0.5-4-1.3-3.9-3.9c0.1-2,1.5-3.2,3.9-3.6v-0.9h1.2L100.1,99.1L100.1,99.1z"/>
		<path class="st0" d="M101,93.8v1.7c0.3-0.1,0.5-0.3,0.7-0.5c0.1-0.2,0.1-0.3,0.1-0.5C101.7,94.2,101.5,94,101,93.8L101,93.8z
			 M100.5,96.1v-3.1l0.3,0.1c0.8,0.3,1.2,0.6,1.4,1.2c0.1,0.3,0,0.6-0.1,0.9c-0.2,0.4-0.7,0.7-1.3,0.8L100.5,96.1L100.5,96.1z
			 M100.4,98.6L100.4,98.6l0.1-0.9l0.2,0c1.1-0.1,2.1-0.4,2.6-0.7c0.9-0.6,1.5-1.5,1.6-2.6c0.1-0.9-0.2-1.6-0.8-2.2
			c-0.9-0.9-2.2-1.3-3.4-1.6l-0.2,0v-2.8l0.3,0.2c0.5,0.3,0.8,0.7,0.9,1l2.8-0.5c-0.4-1.3-1.9-2.2-3.8-2.3l-0.2,0v-0.9h-0.1
			L100.4,98.6L100.4,98.6z M101,99.1h-1V84.7h1v0.9c2.1,0.3,3.7,1.4,4.1,2.9l0.1,0.3l-3.7,0.6l0-0.2c0,0-0.1-0.3-0.4-0.6v1.6
			c1.2,0.3,2.4,0.7,3.4,1.6c0.7,0.7,1.1,1.6,1,2.6c-0.1,1.2-0.8,2.3-1.8,2.9c-0.6,0.4-1.5,0.6-2.6,0.8L101,99.1L101,99.1z"/>
		<path class="st0" d="M148.9,88.5c-0.2,0.1-0.3,0.3-0.3,0.5c0,0.2,0.1,0.4,0.3,0.5V88.5L148.9,88.5z M149.4,90.3l-0.3-0.1
			c-0.1,0-0.2-0.1-0.2-0.1c-0.5-0.3-0.7-0.7-0.7-1.1c0-0.5,0.4-0.9,0.9-1.1l0.3-0.1L149.4,90.3L149.4,90.3z M149.4,98.6h0.2V85.2
			h-0.2v0.9l-0.2,0c-1.3,0.1-3.6,0.7-3.7,3.1c-0.1,2.3,1.8,3,3.7,3.5l0.2,0v3.3l-0.3-0.2c-0.8-0.4-1.1-1.2-1.1-1.6l-2.9,0.3
			c0.4,2.4,2.7,2.9,4.1,3l0.2,0L149.4,98.6L149.4,98.6z M150.1,99.1h-1.2l0-0.9c-1.6-0.2-4-0.8-4.3-3.7l0-0.2l3.8-0.5l0,0.3
			c0,0,0,0.7,0.5,1.2v-2.1c-2-0.5-4-1.3-3.9-3.9c0.1-2,1.5-3.2,3.9-3.6v-0.9h1.2L150.1,99.1L150.1,99.1z"/>
		<path class="st0" d="M151,93.8l0,1.7c0.3-0.1,0.5-0.3,0.7-0.5c0.1-0.2,0.1-0.3,0.1-0.5C151.6,94.2,151.5,94,151,93.8L151,93.8z
			 M150.5,96.1l0-3.1l0.3,0.1c0.8,0.3,1.2,0.6,1.4,1.2c0.1,0.3,0,0.6-0.1,0.9c-0.2,0.4-0.7,0.7-1.3,0.8L150.5,96.1L150.5,96.1z
			 M150.4,98.6L150.4,98.6l0.1-0.9l0.2,0c1.1-0.1,2.1-0.4,2.6-0.7c0.9-0.6,1.5-1.5,1.6-2.6c0.1-0.9-0.2-1.6-0.8-2.2
			c-0.9-0.9-2.2-1.3-3.4-1.6l-0.2,0v-2.8l0.3,0.2c0.5,0.3,0.8,0.7,0.9,1l2.8-0.5c-0.4-1.3-1.9-2.2-3.8-2.3l-0.2,0v-0.9h-0.1V98.6
			L150.4,98.6z M151,99.1h-1V84.7h1v0.9c2.1,0.3,3.7,1.4,4.1,2.9l0.1,0.3l-3.7,0.6l0-0.2c0,0-0.1-0.3-0.4-0.6v1.6
			c1.2,0.3,2.4,0.7,3.4,1.6c0.7,0.7,1.1,1.6,1,2.6c-0.1,1.2-0.8,2.3-1.8,2.9c-0.6,0.4-1.5,0.6-2.6,0.8L151,99.1L151,99.1z"/>
		<path class="st0" d="M198.9,88.5c-0.2,0.1-0.3,0.3-0.3,0.5c0,0.2,0.1,0.4,0.3,0.5V88.5L198.9,88.5z M199.4,90.3l-0.3-0.1
			c-0.1,0-0.1-0.1-0.2-0.1c-0.5-0.3-0.7-0.7-0.7-1.1c0-0.5,0.4-0.9,0.9-1.1l0.3-0.1L199.4,90.3L199.4,90.3z M199.4,98.6h0.2V85.2
			h-0.2v0.9l-0.2,0c-1.3,0.1-3.6,0.7-3.7,3.1c-0.1,2.3,1.8,3,3.7,3.5l0.2,0v3.3L199,96c-0.8-0.4-1.1-1.2-1.1-1.6l-2.9,0.3
			c0.4,2.4,2.7,2.9,4.1,3l0.2,0L199.4,98.6L199.4,98.6z M200.1,99.1h-1.2v-0.9c-1.6-0.2-4-0.8-4.3-3.7l0-0.2l3.8-0.5l0,0.3
			c0,0,0,0.7,0.5,1.2v-2.1c-2-0.5-4-1.3-3.9-3.9c0.1-2,1.5-3.2,3.9-3.6v-0.9h1.2V99.1L200.1,99.1z"/>
		<path class="st0" d="M201,93.8v1.7c0.3-0.1,0.5-0.3,0.7-0.5c0.1-0.2,0.1-0.3,0.1-0.5C201.6,94.2,201.5,94,201,93.8L201,93.8z
			 M200.5,96.1l0-3.1l0.3,0.1c0.8,0.3,1.2,0.6,1.4,1.2c0.1,0.3,0,0.6-0.1,0.9c-0.2,0.4-0.7,0.7-1.3,0.8L200.5,96.1L200.5,96.1z
			 M200.4,98.6L200.4,98.6l0.1-0.9l0.2,0c1.1-0.1,2.1-0.4,2.6-0.7c0.9-0.6,1.5-1.5,1.6-2.6c0.1-0.9-0.2-1.6-0.8-2.2
			c-0.9-0.9-2.2-1.3-3.4-1.6l-0.2,0v-2.8l0.3,0.2c0.5,0.3,0.8,0.7,0.9,1l2.8-0.5c-0.4-1.3-1.9-2.2-3.8-2.3l-0.2,0v-0.9h-0.1V98.6
			L200.4,98.6z M201,99.1h-1V84.7h1v0.9c2.1,0.3,3.7,1.4,4.1,2.9l0.1,0.3l-3.7,0.6l0-0.2c0,0-0.1-0.3-0.4-0.6v1.6
			c1.2,0.3,2.4,0.7,3.4,1.6c0.7,0.7,1.1,1.6,1,2.6c-0.1,1.2-0.8,2.3-1.8,2.9c-0.6,0.4-1.5,0.6-2.6,0.8L201,99.1L201,99.1z"/>
		<path class="st0" d="M11.7,105.3c-0.2,0.1-0.3,0.3-0.3,0.5c0,0.2,0.1,0.4,0.3,0.5V105.3L11.7,105.3z M12.1,107.1l-0.3-0.1
			c-0.1,0-0.1-0.1-0.2-0.1c-0.5-0.3-0.7-0.7-0.7-1.1c0-0.5,0.4-0.9,0.9-1.1l0.3-0.1L12.1,107.1L12.1,107.1z M12.1,115.5h0.2v-13.4
			h-0.2v0.9l-0.2,0c-1.3,0.1-3.6,0.7-3.7,3.1c-0.1,2.3,1.8,3,3.7,3.5l0.2,0v3.3l-0.3-0.2c-0.8-0.4-1.1-1.2-1.1-1.6l-2.9,0.3
			c0.4,2.4,2.7,2.9,4.1,3l0.2,0L12.1,115.5L12.1,115.5z M12.8,116h-1.2V115c-1.6-0.2-4-0.8-4.3-3.7l0-0.2l3.8-0.4l0,0.3
			c0,0,0,0.7,0.5,1.2l0-2.1c-2-0.5-4-1.3-3.9-3.9c0.1-2,1.5-3.2,3.9-3.6v-0.9h1.2V116L12.8,116z"/>
		<path class="st0" d="M13.7,110.6v1.7c0.3-0.1,0.5-0.3,0.7-0.5c0.1-0.2,0.1-0.3,0.1-0.5C14.4,111,14.2,110.8,13.7,110.6z M13.3,113
			v-3.1l0.3,0.1c0.8,0.3,1.2,0.6,1.4,1.2c0.1,0.3,0,0.6-0.1,0.9c-0.2,0.4-0.7,0.7-1.3,0.8L13.3,113L13.3,113z M13.2,115.5
			L13.2,115.5l0.1-0.9l0.2,0c1.1-0.1,2.1-0.4,2.6-0.7c0.9-0.6,1.5-1.5,1.6-2.6c0.1-0.9-0.2-1.6-0.8-2.2c-0.9-0.9-2.2-1.3-3.4-1.6
			l-0.2,0v-2.8l0.3,0.2c0.5,0.3,0.8,0.7,0.9,1l2.8-0.5c-0.4-1.3-1.9-2.2-3.8-2.3l-0.2,0v-0.9h-0.1L13.2,115.5L13.2,115.5z M13.7,116
			h-1v-14.4h1v0.9c2.1,0.3,3.7,1.4,4.1,2.9l0.1,0.3l-3.7,0.6l0-0.2c0,0-0.1-0.3-0.4-0.6v1.6c1.2,0.3,2.4,0.7,3.4,1.6
			c0.7,0.7,1.1,1.6,1,2.6c-0.1,1.2-0.8,2.3-1.8,2.9c-0.6,0.4-1.5,0.6-2.6,0.8L13.7,116L13.7,116z"/>
		<path class="st0" d="M61.7,105.3c-0.2,0.1-0.3,0.3-0.3,0.5c0,0.2,0.1,0.4,0.3,0.5V105.3L61.7,105.3z M62.1,107.1l-0.3-0.1
			c-0.1,0-0.2-0.1-0.2-0.1c-0.5-0.3-0.7-0.7-0.7-1.1c0-0.5,0.4-0.9,0.9-1.1l0.3-0.1L62.1,107.1L62.1,107.1z M62.1,115.5h0.2v-13.4
			h-0.2v0.9l-0.2,0c-1.3,0.1-3.6,0.7-3.7,3.1c-0.1,2.3,1.8,3,3.7,3.5l0.2,0v3.3l-0.3-0.2c-0.8-0.4-1.1-1.2-1.1-1.6l-2.9,0.3
			c0.4,2.4,2.7,2.9,4.1,3l0.2,0L62.1,115.5L62.1,115.5z M62.8,116h-1.2l0-0.9c-1.6-0.2-4-0.8-4.3-3.7l0-0.2l3.8-0.4l0,0.3
			c0,0,0,0.7,0.5,1.2V110c-2-0.5-4-1.3-3.9-3.9c0.1-2,1.5-3.2,3.9-3.6v-0.9h1.2L62.8,116L62.8,116z"/>
		<path class="st0" d="M63.7,110.6l0,1.7c0.3-0.1,0.5-0.3,0.7-0.5c0.1-0.2,0.1-0.3,0.1-0.5C64.4,111,64.2,110.8,63.7,110.6
			L63.7,110.6z M63.3,113l0-3.1l0.3,0.1c0.8,0.3,1.2,0.6,1.4,1.2c0.1,0.3,0,0.6-0.1,0.9c-0.2,0.4-0.7,0.7-1.3,0.8L63.3,113L63.3,113
			z M63.2,115.5L63.2,115.5l0.1-0.9l0.2,0c1.1-0.1,2.1-0.4,2.6-0.7c0.9-0.6,1.5-1.5,1.6-2.6c0.1-0.9-0.2-1.6-0.8-2.2
			c-0.9-0.9-2.2-1.3-3.4-1.6l-0.2,0v-2.8l0.3,0.2c0.5,0.3,0.8,0.7,0.9,1l2.8-0.5c-0.4-1.3-1.9-2.2-3.8-2.3l-0.2,0v-0.9h-0.1
			L63.2,115.5L63.2,115.5z M63.7,116h-1v-14.4h1v0.9c2.1,0.3,3.7,1.4,4.1,2.9l0.1,0.3l-3.7,0.6l0-0.2c0,0-0.1-0.3-0.4-0.6v1.6
			c1.2,0.3,2.4,0.7,3.4,1.6c0.7,0.7,1.1,1.6,1,2.6c-0.1,1.2-0.8,2.3-1.8,2.9c-0.6,0.4-1.5,0.6-2.6,0.8L63.7,116L63.7,116z"/>
		<path class="st0" d="M111.6,105.3c-0.2,0.1-0.3,0.3-0.3,0.5c0,0.2,0.1,0.4,0.3,0.5V105.3L111.6,105.3z M112.1,107.1l-0.3-0.1
			c-0.1,0-0.1-0.1-0.2-0.1c-0.5-0.3-0.7-0.7-0.7-1.1c0-0.5,0.4-0.9,0.9-1.1l0.3-0.1L112.1,107.1L112.1,107.1z M112.1,115.5h0.2
			v-13.4h-0.2v0.9l-0.2,0c-1.3,0.1-3.6,0.7-3.7,3.1c-0.1,2.3,1.8,3,3.7,3.5l0.2,0v3.3l-0.3-0.2c-0.8-0.4-1.1-1.2-1.1-1.6l-2.9,0.3
			c0.4,2.4,2.7,2.9,4.1,3l0.2,0L112.1,115.5L112.1,115.5z M112.8,116h-1.2V115c-1.6-0.2-4-0.8-4.3-3.7l0-0.2l3.8-0.4l0,0.3
			c0,0,0,0.7,0.5,1.2V110c-2-0.5-4-1.3-3.9-3.9c0.1-2,1.5-3.2,3.9-3.6v-0.9h1.2L112.8,116L112.8,116z"/>
		<path class="st0" d="M113.7,110.6v1.7c0.3-0.1,0.5-0.3,0.7-0.5c0.1-0.2,0.1-0.3,0.1-0.5C114.4,111,114.2,110.8,113.7,110.6
			L113.7,110.6z M113.2,113l0-3.1l0.3,0.1c0.8,0.3,1.2,0.6,1.4,1.2c0.1,0.3,0,0.6-0.1,0.9c-0.2,0.4-0.7,0.7-1.3,0.8L113.2,113
			L113.2,113z M113.1,115.5L113.1,115.5l0.1-0.9l0.2,0c1.1-0.1,2.1-0.4,2.6-0.7c0.9-0.6,1.5-1.5,1.6-2.6c0.1-0.9-0.2-1.6-0.8-2.2
			c-0.9-0.9-2.2-1.3-3.4-1.6l-0.2,0v-2.8l0.3,0.2c0.5,0.3,0.8,0.7,0.9,1l2.8-0.5c-0.4-1.3-1.9-2.2-3.8-2.3l-0.2,0v-0.9h-0.1
			L113.1,115.5L113.1,115.5z M113.7,116h-1v-14.4h1v0.9c2.1,0.3,3.7,1.4,4.1,2.9l0.1,0.3l-3.7,0.6l0-0.2c0,0-0.1-0.3-0.4-0.6v1.6
			c1.2,0.3,2.4,0.7,3.4,1.6c0.7,0.7,1.1,1.6,1,2.6c-0.1,1.2-0.8,2.3-1.8,2.9c-0.6,0.4-1.5,0.6-2.6,0.8L113.7,116L113.7,116z"/>
		<path class="st0" d="M161.6,105.3c-0.2,0.1-0.3,0.3-0.3,0.5c0,0.2,0.1,0.4,0.3,0.5V105.3L161.6,105.3z M162.1,107.1l-0.3-0.1
			c-0.1,0-0.1-0.1-0.2-0.1c-0.5-0.3-0.7-0.7-0.7-1.1c0-0.5,0.4-0.9,0.9-1.1l0.3-0.1L162.1,107.1L162.1,107.1z M162.1,115.5h0.2
			v-13.4h-0.2v0.9l-0.2,0c-1.3,0.1-3.6,0.7-3.7,3.1c-0.1,2.3,1.8,3,3.7,3.5l0.2,0l0,3.3l-0.3-0.2c-0.8-0.4-1.1-1.2-1.1-1.6l-2.9,0.3
			c0.4,2.4,2.7,2.9,4.1,3l0.2,0L162.1,115.5L162.1,115.5z M162.8,116h-1.2V115c-1.6-0.2-4-0.8-4.3-3.7l0-0.2l3.8-0.4l0,0.3
			c0,0,0,0.7,0.5,1.2V110c-2-0.5-4-1.3-3.9-3.9c0.1-2,1.5-3.2,3.9-3.6v-0.9h1.2V116L162.8,116z"/>
		<path class="st0" d="M163.7,110.6v1.7c0.3-0.1,0.5-0.3,0.7-0.5c0.1-0.2,0.1-0.3,0.1-0.5C164.3,111,164.2,110.8,163.7,110.6
			L163.7,110.6z M163.2,113v-3.1l0.3,0.1c0.8,0.3,1.2,0.6,1.4,1.2c0.1,0.3,0,0.6-0.1,0.9c-0.2,0.4-0.7,0.7-1.3,0.8L163.2,113
			L163.2,113z M163.1,115.5L163.1,115.5l0.1-0.9l0.2,0c1.1-0.1,2.1-0.4,2.6-0.7c0.9-0.6,1.5-1.5,1.6-2.6c0.1-0.9-0.2-1.6-0.8-2.2
			c-0.9-0.9-2.3-1.3-3.4-1.6l-0.2,0v-2.8l0.3,0.2c0.5,0.3,0.8,0.7,0.9,1l2.8-0.5c-0.4-1.3-1.9-2.2-3.8-2.3l-0.2,0l0-0.9h-0.1V115.5
			L163.1,115.5z M163.7,116h-1v-14.4h1v0.9c2.1,0.3,3.7,1.4,4.1,2.9l0.1,0.3l-3.7,0.6l0-0.2c0,0-0.1-0.3-0.4-0.6v1.6
			c1.2,0.3,2.4,0.7,3.4,1.6c0.7,0.7,1.1,1.6,1,2.6c-0.1,1.2-0.8,2.3-1.8,2.9c-0.6,0.4-1.5,0.6-2.6,0.8L163.7,116L163.7,116z"/>
		<path class="st0" d="M211.6,105.3c-0.2,0.1-0.3,0.3-0.3,0.5c0,0.2,0.1,0.4,0.3,0.5V105.3L211.6,105.3z M212.1,107.1l-0.3-0.1
			c-0.1,0-0.2-0.1-0.2-0.1c-0.5-0.3-0.7-0.7-0.7-1.1c0-0.5,0.4-0.9,0.9-1.1l0.3-0.1L212.1,107.1L212.1,107.1z M212.1,115.5h0.2
			v-13.4h-0.2v0.9l-0.2,0c-1.3,0.1-3.6,0.7-3.7,3.1c-0.1,2.3,1.8,3,3.7,3.5l0.2,0v3.3l-0.3-0.2c-0.8-0.4-1.1-1.2-1.1-1.6l-2.9,0.3
			c0.4,2.4,2.7,2.9,4.1,3l0.2,0L212.1,115.5L212.1,115.5z M212.8,116h-1.2V115c-1.6-0.2-4-0.8-4.3-3.7l0-0.2l3.8-0.4l0,0.3
			c0,0,0,0.7,0.5,1.2V110c-2-0.5-4-1.3-3.9-3.9c0.1-2,1.5-3.2,3.9-3.6v-0.9h1.2V116L212.8,116z"/>
		<path class="st0" d="M213.7,110.6v1.7c0.3-0.1,0.5-0.3,0.7-0.5c0.1-0.2,0.1-0.3,0.1-0.5C214.3,111,214.2,110.8,213.7,110.6z
			 M213.2,113v-3.1l0.3,0.1c0.8,0.3,1.2,0.6,1.4,1.2c0.1,0.3,0,0.6-0.1,0.9c-0.2,0.4-0.7,0.7-1.3,0.8L213.2,113L213.2,113z
			 M213.1,115.5L213.1,115.5l0.1-0.9l0.2,0c1.1-0.1,2.1-0.4,2.6-0.7c0.9-0.6,1.5-1.5,1.6-2.6c0.1-0.9-0.2-1.6-0.8-2.2
			c-0.9-0.9-2.2-1.3-3.4-1.6l-0.2,0v-2.8l0.3,0.2c0.5,0.3,0.8,0.7,0.9,1l2.8-0.5c-0.4-1.3-1.9-2.2-3.8-2.3l-0.2,0v-0.9h-0.1V115.5
			L213.1,115.5z M213.7,116h-1v-14.4h1v0.9c2.1,0.3,3.7,1.4,4.1,2.9l0.1,0.3l-3.7,0.6l0-0.2c0,0-0.1-0.3-0.4-0.6v1.6
			c1.2,0.3,2.4,0.7,3.4,1.6c0.7,0.7,1.1,1.6,1,2.6c-0.1,1.2-0.8,2.3-1.8,2.9c-0.6,0.4-1.5,0.6-2.6,0.8L213.7,116L213.7,116z"/>
		<path class="st0" d="M1,127.4l0,1.7c0.3-0.1,0.5-0.3,0.7-0.5c0.1-0.2,0.1-0.3,0.1-0.5C1.7,127.8,1.5,127.6,1,127.4L1,127.4z
			 M0.6,129.8l0-3.1l0.3,0.1c0.8,0.3,1.2,0.6,1.4,1.2c0.1,0.3,0,0.6-0.1,0.9c-0.2,0.4-0.7,0.7-1.3,0.8L0.6,129.8L0.6,129.8z
			 M0.5,132.3L0.5,132.3l0.1-0.9l0.2,0c1.1-0.1,2.1-0.4,2.6-0.7c0.9-0.6,1.5-1.5,1.6-2.6c0.1-0.9-0.2-1.6-0.8-2.2
			c-0.9-0.9-2.2-1.3-3.4-1.6l-0.2,0v-2.8l0.3,0.2c0.5,0.3,0.8,0.7,0.9,1l2.8-0.5c-0.4-1.3-1.9-2.2-3.8-2.3l-0.2,0v-0.9H0.5
			L0.5,132.3L0.5,132.3z M1,132.8H0v-14.4h1l0,0.9c2.1,0.3,3.7,1.4,4.1,2.9l0.1,0.3l-3.7,0.6l0-0.2c0,0-0.1-0.3-0.4-0.6v1.6
			c1.2,0.3,2.4,0.7,3.4,1.6c0.7,0.7,1.1,1.6,1,2.6c-0.1,1.2-0.8,2.3-1.8,2.9c-0.6,0.4-1.5,0.6-2.6,0.8L1,132.8L1,132.8z"/>
		<path class="st0" d="M48.9,122.1c-0.2,0.1-0.3,0.3-0.3,0.5c0,0.2,0.1,0.4,0.3,0.5V122.1L48.9,122.1z M49.4,123.9l-0.3-0.1
			c-0.1,0-0.1-0.1-0.2-0.1c-0.5-0.3-0.7-0.7-0.7-1.1c0-0.5,0.4-0.9,0.9-1.1l0.3-0.1L49.4,123.9L49.4,123.9z M49.4,132.3h0.2v-13.4
			h-0.2v0.9l-0.2,0c-1.3,0.1-3.6,0.7-3.7,3.1c-0.1,2.3,1.8,3,3.7,3.5l0.2,0l0,3.3l-0.3-0.2c-0.8-0.4-1.1-1.2-1.1-1.6l-2.9,0.3
			c0.4,2.4,2.7,2.9,4.1,3l0.2,0L49.4,132.3L49.4,132.3z M50.1,132.8h-1.2v-0.9c-1.6-0.2-4-0.8-4.3-3.7l0-0.2l3.8-0.4l0,0.3
			c0,0,0,0.7,0.5,1.2v-2.1c-2-0.5-4-1.3-3.9-3.9c0.1-2,1.5-3.2,3.9-3.6v-0.9h1.2V132.8L50.1,132.8z"/>
		<path class="st0" d="M51,127.4v1.7c0.3-0.1,0.5-0.3,0.7-0.5c0.1-0.2,0.1-0.3,0.1-0.5C51.7,127.8,51.5,127.6,51,127.4L51,127.4z
			 M50.5,129.8l0-3.1l0.3,0.1c0.8,0.3,1.2,0.6,1.4,1.2c0.1,0.3,0,0.6-0.1,0.9c-0.2,0.4-0.7,0.7-1.3,0.8L50.5,129.8L50.5,129.8z
			 M50.5,132.3L50.5,132.3l0.1-0.9l0.2,0c1.1-0.1,2.1-0.4,2.6-0.7c0.9-0.6,1.5-1.5,1.6-2.6c0.1-0.9-0.2-1.6-0.8-2.2
			c-0.9-0.9-2.2-1.3-3.4-1.6l-0.2,0v-2.8l0.3,0.2c0.5,0.3,0.8,0.7,0.9,1l2.8-0.5c-0.4-1.3-1.9-2.2-3.8-2.3l-0.2,0l0-0.9h-0.1
			L50.5,132.3L50.5,132.3z M51,132.8h-1v-14.4h1v0.9c2.1,0.3,3.7,1.4,4.1,2.9l0.1,0.3l-3.7,0.6l0-0.2c0,0-0.1-0.3-0.4-0.6v1.6
			c1.2,0.3,2.4,0.7,3.4,1.6c0.7,0.7,1.1,1.6,1,2.6c-0.1,1.2-0.8,2.3-1.8,2.9c-0.6,0.4-1.5,0.6-2.6,0.8L51,132.8L51,132.8z"/>
		<path class="st0" d="M98.9,122.1c-0.2,0.1-0.3,0.3-0.3,0.5c0,0.2,0.1,0.4,0.3,0.5V122.1L98.9,122.1z M99.4,123.9l-0.3-0.1
			c-0.1,0-0.1-0.1-0.2-0.1c-0.5-0.3-0.7-0.7-0.7-1.1c0-0.5,0.4-0.9,0.9-1.1l0.3-0.1L99.4,123.9L99.4,123.9z M99.4,132.3h0.2v-13.4
			h-0.2v0.9l-0.2,0c-1.3,0.1-3.6,0.7-3.7,3.1c-0.1,2.3,1.8,3,3.7,3.5l0.2,0v3.3l-0.3-0.2c-0.8-0.4-1.1-1.2-1.1-1.6l-2.9,0.3
			c0.4,2.4,2.7,2.9,4.1,3l0.2,0L99.4,132.3L99.4,132.3z M100.1,132.8h-1.2v-0.9c-1.6-0.2-4-0.8-4.3-3.7l0-0.2l3.8-0.4l0,0.3
			c0,0,0,0.7,0.5,1.2l0-2.1c-2-0.5-4-1.3-3.9-3.9c0.1-2,1.5-3.2,3.9-3.6v-0.9h1.2L100.1,132.8L100.1,132.8z"/>
		<path class="st0" d="M101,127.4v1.7c0.3-0.1,0.5-0.3,0.7-0.5c0.1-0.2,0.1-0.3,0.1-0.5C101.7,127.8,101.5,127.6,101,127.4
			L101,127.4z M100.5,129.8v-3.1l0.3,0.1c0.8,0.3,1.2,0.6,1.4,1.2c0.1,0.3,0,0.6-0.1,0.9c-0.2,0.4-0.7,0.7-1.3,0.8L100.5,129.8
			L100.5,129.8z M100.4,132.3L100.4,132.3l0.1-0.9l0.2,0c1.1-0.1,2.1-0.4,2.6-0.7c0.9-0.6,1.5-1.5,1.6-2.6c0.1-0.9-0.2-1.6-0.8-2.2
			c-0.9-0.9-2.2-1.3-3.4-1.6l-0.2,0v-2.8l0.3,0.2c0.5,0.3,0.8,0.7,0.9,1l2.8-0.5c-0.4-1.3-1.9-2.2-3.8-2.3l-0.2,0v-0.9h-0.1
			L100.4,132.3L100.4,132.3z M101,132.8h-1v-14.4h1v0.9c2.1,0.3,3.7,1.4,4.1,2.9l0.1,0.3l-3.7,0.6l0-0.2c0,0-0.1-0.3-0.4-0.6v1.6
			c1.2,0.3,2.4,0.7,3.4,1.6c0.7,0.7,1.1,1.6,1,2.6c-0.1,1.2-0.8,2.3-1.8,2.9c-0.6,0.4-1.5,0.6-2.6,0.8L101,132.8L101,132.8z"/>
		<path class="st0" d="M148.9,122.1c-0.2,0.1-0.3,0.3-0.3,0.5c0,0.2,0.1,0.4,0.3,0.5V122.1L148.9,122.1z M149.4,123.9l-0.3-0.1
			c-0.1,0-0.2-0.1-0.2-0.1c-0.5-0.3-0.7-0.7-0.7-1.1c0-0.5,0.4-0.9,0.9-1.1l0.3-0.1L149.4,123.9L149.4,123.9z M149.4,132.3h0.2
			v-13.4h-0.2v0.9l-0.2,0c-1.3,0.1-3.6,0.7-3.7,3.1c-0.1,2.3,1.8,3,3.7,3.5l0.2,0v3.3l-0.3-0.2c-0.8-0.4-1.1-1.2-1.1-1.6l-2.9,0.3
			c0.4,2.4,2.7,2.9,4.1,3l0.2,0L149.4,132.3L149.4,132.3z M150.1,132.8h-1.2l0-0.9c-1.6-0.2-4-0.8-4.3-3.7l0-0.2l3.8-0.4l0,0.3
			c0,0,0,0.7,0.5,1.2v-2.1c-2-0.5-4-1.3-3.9-3.9c0.1-2,1.5-3.2,3.9-3.6v-0.9h1.2L150.1,132.8L150.1,132.8z"/>
		<path class="st0" d="M151,127.4l0,1.7c0.3-0.1,0.5-0.3,0.7-0.5c0.1-0.2,0.1-0.3,0.1-0.5C151.6,127.8,151.5,127.6,151,127.4
			L151,127.4z M150.5,129.8l0-3.1l0.3,0.1c0.8,0.3,1.2,0.6,1.4,1.2c0.1,0.3,0,0.6-0.1,0.9c-0.2,0.4-0.7,0.7-1.3,0.8L150.5,129.8
			L150.5,129.8z M150.4,132.3L150.4,132.3l0.1-0.9l0.2,0c1.1-0.1,2.1-0.4,2.6-0.7c0.9-0.6,1.5-1.5,1.6-2.6c0.1-0.9-0.2-1.6-0.8-2.2
			c-0.9-0.9-2.2-1.3-3.4-1.6l-0.2,0v-2.8l0.3,0.2c0.5,0.3,0.8,0.7,0.9,1l2.8-0.5c-0.4-1.3-1.9-2.2-3.8-2.3l-0.2,0v-0.9h-0.1V132.3
			L150.4,132.3z M151,132.8h-1v-14.4h1v0.9c2.1,0.3,3.7,1.4,4.1,2.9l0.1,0.3l-3.7,0.6l0-0.2c0,0-0.1-0.3-0.4-0.6v1.6
			c1.2,0.3,2.4,0.7,3.4,1.6c0.7,0.7,1.1,1.6,1,2.6c-0.1,1.2-0.8,2.3-1.8,2.9c-0.6,0.4-1.5,0.6-2.6,0.8L151,132.8L151,132.8z"/>
		<path class="st0" d="M198.9,122.1c-0.2,0.1-0.3,0.3-0.3,0.5c0,0.2,0.1,0.4,0.3,0.5V122.1L198.9,122.1z M199.4,123.9l-0.3-0.1
			c-0.1,0-0.1-0.1-0.2-0.1c-0.5-0.3-0.7-0.7-0.7-1.1c0-0.5,0.4-0.9,0.9-1.1l0.3-0.1L199.4,123.9L199.4,123.9z M199.4,132.3h0.2
			v-13.4h-0.2v0.9l-0.2,0c-1.3,0.1-3.6,0.7-3.7,3.1c-0.1,2.3,1.8,3,3.7,3.5l0.2,0v3.3l-0.3-0.2c-0.8-0.4-1.1-1.2-1.1-1.6l-2.9,0.3
			c0.4,2.4,2.7,2.9,4.1,3l0.2,0L199.4,132.3L199.4,132.3z M200.1,132.8h-1.2v-0.9c-1.6-0.2-4-0.8-4.3-3.7l0-0.2l3.8-0.4l0,0.3
			c0,0,0,0.7,0.5,1.2v-2.1c-2-0.5-4-1.3-3.9-3.9c0.1-2,1.5-3.2,3.9-3.6v-0.9h1.2V132.8L200.1,132.8z"/>
		<path class="st0" d="M201,127.4v1.7c0.3-0.1,0.5-0.3,0.7-0.5c0.1-0.2,0.1-0.3,0.1-0.5C201.6,127.8,201.5,127.6,201,127.4
			L201,127.4z M200.5,129.8l0-3.1l0.3,0.1c0.8,0.3,1.2,0.6,1.4,1.2c0.1,0.3,0,0.6-0.1,0.9c-0.2,0.4-0.7,0.7-1.3,0.8L200.5,129.8
			L200.5,129.8z M200.4,132.3L200.4,132.3l0.1-0.9l0.2,0c1.1-0.1,2.1-0.4,2.6-0.7c0.9-0.6,1.5-1.5,1.6-2.6c0.1-0.9-0.2-1.6-0.8-2.2
			c-0.9-0.9-2.2-1.3-3.4-1.6l-0.2,0v-2.8l0.3,0.2c0.5,0.3,0.8,0.7,0.9,1l2.8-0.5c-0.4-1.3-1.9-2.2-3.8-2.3l-0.2,0v-0.9h-0.1V132.3
			L200.4,132.3z M201,132.8h-1v-14.4h1v0.9c2.1,0.3,3.7,1.4,4.1,2.9l0.1,0.3l-3.7,0.6l0-0.2c0,0-0.1-0.3-0.4-0.6v1.6
			c1.2,0.3,2.4,0.7,3.4,1.6c0.7,0.7,1.1,1.6,1,2.6c-0.1,1.2-0.8,2.3-1.8,2.9c-0.6,0.4-1.5,0.6-2.6,0.8L201,132.8L201,132.8z"/>
		<path class="st0" d="M11.7,139c-0.2,0.1-0.3,0.3-0.3,0.5c0,0.2,0.1,0.4,0.3,0.5V139L11.7,139z M12.1,140.8l-0.3-0.1
			c-0.1,0-0.1-0.1-0.2-0.1c-0.5-0.3-0.7-0.7-0.7-1.1c0-0.5,0.4-0.9,0.9-1.1l0.3-0.1L12.1,140.8L12.1,140.8z M12.1,149.1h0.2v-13.4
			h-0.2v0.9l-0.2,0c-1.3,0.1-3.6,0.7-3.7,3.1c-0.1,2.3,1.8,3,3.7,3.5l0.2,0v3.3l-0.3-0.2c-0.8-0.4-1.1-1.2-1.1-1.6l-2.9,0.3
			c0.4,2.4,2.7,2.9,4.1,3l0.2,0L12.1,149.1L12.1,149.1z M12.8,149.6h-1.2v-0.9c-1.6-0.2-4-0.8-4.3-3.7l0-0.2l3.8-0.4l0,0.3
			c0,0,0,0.7,0.5,1.2l0-2.1c-2-0.5-4-1.3-3.9-3.9c0.1-2,1.5-3.2,3.9-3.6v-0.9h1.2V149.6L12.8,149.6z"/>
		<path class="st0" d="M13.7,144.2v1.7c0.3-0.1,0.5-0.3,0.7-0.5c0.1-0.2,0.1-0.3,0.1-0.5C14.4,144.7,14.2,144.5,13.7,144.2z
			 M13.3,146.6v-3.1l0.3,0.1c0.8,0.3,1.2,0.6,1.4,1.2c0.1,0.3,0,0.6-0.1,0.9c-0.2,0.4-0.7,0.7-1.3,0.8
			C13.6,146.5,13.3,146.6,13.3,146.6z M13.2,149.1L13.2,149.1l0.1-0.9l0.2,0c1.1-0.1,2.1-0.4,2.6-0.7c0.9-0.6,1.5-1.5,1.6-2.6
			c0.1-0.9-0.2-1.6-0.8-2.2c-0.9-0.9-2.2-1.3-3.4-1.6l-0.2,0v-2.8l0.3,0.2c0.5,0.3,0.8,0.7,0.9,1l2.8-0.5c-0.4-1.3-1.9-2.2-3.8-2.3
			l-0.2,0v-0.9h-0.1L13.2,149.1L13.2,149.1z M13.7,149.6h-1v-14.4h1v0.9c2.1,0.3,3.7,1.4,4.1,2.9l0.1,0.3l-3.7,0.6l0-0.2
			c0,0-0.1-0.3-0.4-0.6v1.6c1.2,0.3,2.4,0.7,3.4,1.6c0.7,0.7,1.1,1.6,1,2.6c-0.1,1.2-0.8,2.3-1.8,2.9c-0.6,0.4-1.5,0.6-2.6,0.8
			L13.7,149.6L13.7,149.6z"/>
		<path class="st0" d="M61.7,139c-0.2,0.1-0.3,0.3-0.3,0.5c0,0.2,0.1,0.4,0.3,0.5V139L61.7,139z M62.1,140.8l-0.3-0.1
			c-0.1,0-0.2-0.1-0.2-0.1c-0.5-0.3-0.7-0.7-0.7-1.1c0-0.5,0.4-0.9,0.9-1.1l0.3-0.1L62.1,140.8L62.1,140.8z M62.1,149.1h0.2v-13.4
			h-0.2v0.9l-0.2,0c-1.3,0.1-3.6,0.7-3.7,3.1c-0.1,2.3,1.8,3,3.7,3.5l0.2,0v3.3l-0.3-0.2c-0.8-0.4-1.1-1.2-1.1-1.6l-2.9,0.3
			c0.4,2.4,2.7,2.9,4.1,3l0.2,0L62.1,149.1L62.1,149.1z M62.8,149.6h-1.2l0-0.9c-1.6-0.2-4-0.8-4.3-3.7l0-0.2l3.8-0.4l0,0.3
			c0,0,0,0.7,0.5,1.2v-2.1c-2-0.5-4-1.3-3.9-3.9c0.1-2,1.5-3.2,3.9-3.6v-0.9h1.2L62.8,149.6L62.8,149.6z"/>
		<path class="st0" d="M63.7,144.2l0,1.7c0.3-0.1,0.5-0.3,0.7-0.5c0.1-0.2,0.1-0.3,0.1-0.5C64.4,144.7,64.2,144.5,63.7,144.2
			L63.7,144.2z M63.3,146.6l0-3.1l0.3,0.1c0.8,0.3,1.2,0.6,1.4,1.2c0.1,0.3,0,0.6-0.1,0.9c-0.2,0.4-0.7,0.7-1.3,0.8
			C63.5,146.5,63.3,146.6,63.3,146.6z M63.2,149.1L63.2,149.1l0.1-0.9l0.2,0c1.1-0.1,2.1-0.4,2.6-0.7c0.9-0.6,1.5-1.5,1.6-2.6
			c0.1-0.9-0.2-1.6-0.8-2.2c-0.9-0.9-2.2-1.3-3.4-1.6l-0.2,0v-2.8l0.3,0.2c0.5,0.3,0.8,0.7,0.9,1l2.8-0.5c-0.4-1.3-1.9-2.2-3.8-2.3
			l-0.2,0v-0.9h-0.1L63.2,149.1L63.2,149.1z M63.7,149.6h-1v-14.4h1v0.9c2.1,0.3,3.7,1.4,4.1,2.9l0.1,0.3l-3.7,0.6l0-0.2
			c0,0-0.1-0.3-0.4-0.6v1.6c1.2,0.3,2.4,0.7,3.4,1.6c0.7,0.7,1.1,1.6,1,2.6c-0.1,1.2-0.8,2.3-1.8,2.9c-0.6,0.4-1.5,0.6-2.6,0.8
			L63.7,149.6L63.7,149.6z"/>
		<path class="st0" d="M111.6,139c-0.2,0.1-0.3,0.3-0.3,0.5c0,0.2,0.1,0.4,0.3,0.5V139L111.6,139z M112.1,140.8l-0.3-0.1
			c-0.1,0-0.1-0.1-0.2-0.1c-0.5-0.3-0.7-0.7-0.7-1.1c0-0.5,0.4-0.9,0.9-1.1l0.3-0.1L112.1,140.8L112.1,140.8z M112.1,149.1h0.2
			v-13.4h-0.2v0.9l-0.2,0c-1.3,0.1-3.6,0.7-3.7,3.1c-0.1,2.3,1.8,3,3.7,3.5l0.2,0v3.3l-0.3-0.2c-0.8-0.4-1.1-1.2-1.1-1.6l-2.9,0.3
			c0.4,2.4,2.7,2.9,4.1,3l0.2,0L112.1,149.1L112.1,149.1z M112.8,149.6h-1.2v-0.9c-1.6-0.2-4-0.8-4.3-3.7l0-0.2l3.8-0.4l0,0.3
			c0,0,0,0.7,0.5,1.2v-2.1c-2-0.5-4-1.3-3.9-3.9c0.1-2,1.5-3.2,3.9-3.6v-0.9h1.2L112.8,149.6L112.8,149.6z"/>
		<path class="st0" d="M113.7,144.2v1.7c0.3-0.1,0.5-0.3,0.7-0.5c0.1-0.2,0.1-0.3,0.1-0.5C114.4,144.7,114.2,144.5,113.7,144.2
			L113.7,144.2z M113.2,146.6l0-3.1l0.3,0.1c0.8,0.3,1.2,0.6,1.4,1.2c0.1,0.3,0,0.6-0.1,0.9c-0.2,0.4-0.7,0.7-1.3,0.8
			C113.5,146.5,113.2,146.6,113.2,146.6z M113.1,149.1L113.1,149.1l0.1-0.9l0.2,0c1.1-0.1,2.1-0.4,2.6-0.7c0.9-0.6,1.5-1.5,1.6-2.6
			c0.1-0.9-0.2-1.6-0.8-2.2c-0.9-0.9-2.2-1.3-3.4-1.6l-0.2,0v-2.8l0.3,0.2c0.5,0.3,0.8,0.7,0.9,1l2.8-0.5c-0.4-1.3-1.9-2.2-3.8-2.3
			l-0.2,0v-0.9h-0.1L113.1,149.1L113.1,149.1z M113.7,149.6h-1v-14.4h1v0.9c2.1,0.3,3.7,1.4,4.1,2.9l0.1,0.3l-3.7,0.6l0-0.2
			c0,0-0.1-0.3-0.4-0.6v1.6c1.2,0.3,2.4,0.7,3.4,1.6c0.7,0.7,1.1,1.6,1,2.6c-0.1,1.2-0.8,2.3-1.8,2.9c-0.6,0.4-1.5,0.6-2.6,0.8
			L113.7,149.6L113.7,149.6z"/>
		<path class="st0" d="M161.6,139c-0.2,0.1-0.3,0.3-0.3,0.5c0,0.2,0.1,0.4,0.3,0.5V139L161.6,139z M162.1,140.8l-0.3-0.1
			c-0.1,0-0.1-0.1-0.2-0.1c-0.5-0.3-0.7-0.7-0.7-1.1c0-0.5,0.4-0.9,0.9-1.1l0.3-0.1L162.1,140.8L162.1,140.8z M162.1,149.1h0.2
			v-13.4h-0.2v0.9l-0.2,0c-1.3,0.1-3.6,0.7-3.7,3.1c-0.1,2.3,1.8,3,3.7,3.5l0.2,0l0,3.3l-0.3-0.2c-0.8-0.4-1.1-1.2-1.1-1.6l-2.9,0.3
			c0.4,2.4,2.7,2.9,4.1,3l0.2,0L162.1,149.1L162.1,149.1z M162.8,149.6h-1.2v-0.9c-1.6-0.2-4-0.8-4.3-3.7l0-0.2l3.8-0.4l0,0.3
			c0,0,0,0.7,0.5,1.2v-2.1c-2-0.5-4-1.3-3.9-3.9c0.1-2,1.5-3.2,3.9-3.6v-0.9h1.2V149.6L162.8,149.6z"/>
		<path class="st0" d="M163.7,144.2v1.7c0.3-0.1,0.5-0.3,0.7-0.5c0.1-0.2,0.1-0.3,0.1-0.5C164.3,144.7,164.2,144.5,163.7,144.2
			L163.7,144.2z M163.2,146.6v-3.1l0.3,0.1c0.8,0.3,1.2,0.6,1.4,1.2c0.1,0.3,0,0.6-0.1,0.9c-0.2,0.4-0.7,0.7-1.3,0.8L163.2,146.6
			L163.2,146.6z M163.1,149.1L163.1,149.1l0.1-0.9l0.2,0c1.1-0.1,2.1-0.4,2.6-0.7c0.9-0.6,1.5-1.5,1.6-2.6c0.1-0.9-0.2-1.6-0.8-2.2
			c-0.9-0.9-2.3-1.3-3.4-1.6l-0.2,0v-2.8l0.3,0.2c0.5,0.3,0.8,0.7,0.9,1l2.8-0.5c-0.4-1.3-1.9-2.2-3.8-2.3l-0.2,0l0-0.9h-0.1V149.1
			L163.1,149.1z M163.7,149.6h-1v-14.4h1v0.9c2.1,0.3,3.7,1.4,4.1,2.9l0.1,0.3l-3.7,0.6l0-0.2c0,0-0.1-0.3-0.4-0.6v1.6
			c1.2,0.3,2.4,0.7,3.4,1.6c0.7,0.7,1.1,1.6,1,2.6c-0.1,1.2-0.8,2.3-1.8,2.9c-0.6,0.4-1.5,0.6-2.6,0.8L163.7,149.6L163.7,149.6z"/>
		<path class="st0" d="M211.6,139c-0.2,0.1-0.3,0.3-0.3,0.5c0,0.2,0.1,0.4,0.3,0.5V139L211.6,139z M212.1,140.8l-0.3-0.1
			c-0.1,0-0.2-0.1-0.2-0.1c-0.5-0.3-0.7-0.7-0.7-1.1c0-0.5,0.4-0.9,0.9-1.1l0.3-0.1L212.1,140.8L212.1,140.8z M212.1,149.1h0.2
			v-13.4h-0.2v0.9l-0.2,0c-1.3,0.1-3.6,0.7-3.7,3.1c-0.1,2.3,1.8,3,3.7,3.5l0.2,0v3.3l-0.3-0.2c-0.8-0.4-1.1-1.2-1.1-1.6l-2.9,0.3
			c0.4,2.4,2.7,2.9,4.1,3l0.2,0L212.1,149.1L212.1,149.1z M212.8,149.6h-1.2v-0.9c-1.6-0.2-4-0.8-4.3-3.7l0-0.2l3.8-0.4l0,0.3
			c0,0,0,0.7,0.5,1.2v-2.1c-2-0.5-4-1.3-3.9-3.9c0.1-2,1.5-3.2,3.9-3.6v-0.9h1.2V149.6L212.8,149.6z"/>
		<path class="st0" d="M213.7,144.2v1.7c0.3-0.1,0.5-0.3,0.7-0.5c0.1-0.2,0.1-0.3,0.1-0.5C214.3,144.7,214.2,144.5,213.7,144.2z
			 M213.2,146.6v-3.1l0.3,0.1c0.8,0.3,1.2,0.6,1.4,1.2c0.1,0.3,0,0.6-0.1,0.9c-0.2,0.4-0.7,0.7-1.3,0.8L213.2,146.6z M213.1,149.1
			L213.1,149.1l0.1-0.9l0.2,0c1.1-0.1,2.1-0.4,2.6-0.7c0.9-0.6,1.5-1.5,1.6-2.6c0.1-0.9-0.2-1.6-0.8-2.2c-0.9-0.9-2.2-1.3-3.4-1.6
			l-0.2,0v-2.8l0.3,0.2c0.5,0.3,0.8,0.7,0.9,1l2.8-0.5c-0.4-1.3-1.9-2.2-3.8-2.3l-0.2,0v-0.9h-0.1V149.1L213.1,149.1z M213.7,149.6
			h-1v-14.4h1v0.9c2.1,0.3,3.7,1.4,4.1,2.9l0.1,0.3l-3.7,0.6l0-0.2c0,0-0.1-0.3-0.4-0.6v1.6c1.2,0.3,2.4,0.7,3.4,1.6
			c0.7,0.7,1.1,1.6,1,2.6c-0.1,1.2-0.8,2.3-1.8,2.9c-0.6,0.4-1.5,0.6-2.6,0.8L213.7,149.6L213.7,149.6z"/>
	</g>
</g>
</svg>
