<?xml version="1.0" encoding="utf-8"?>
<!-- Generator: Adobe Illustrator 24.0.2, SVG Export Plug-In . SVG Version: 6.00 Build 0)  -->
<svg version="1.1" id="Слой_1" xmlns="http://www.w3.org/2000/svg" xmlns:xlink="http://www.w3.org/1999/xlink" x="0px" y="0px"
	 viewBox="0 0 238.1 150.2" style="enable-background:new 0 0 238.1 150.2;" xml:space="preserve">
<g>
	<path class="st0" d="M62.7,70.2c-0.2-2,0.5-3.3,2.2-4.3c9.3-5.2,19.3-8.9,29.4-12.3c3.9-1.3,7.8-2.4,11.8-3.7c0.3,2.6,0.5,5,0.9,7.3
		c0.3,1.3,0.8,2.7,1.6,3.6c3.3,3.3,6.8,6.5,10.2,9.7c0.3,0.3,0.6,0.6,1,0.7c4.1,0.7,7,3.7,10.3,5.7c1.1,0.6,2.1,1.4,3,2
		c1.4-3.7,2.9-7.3,4.3-11c0.2,0,0.4,0.1,0.6,0.1c0.3,2.4,0.5,4.9,0.8,7.4c0.6,0.1,1.2,0.3,1.8,0.4c2,0.2,2.6-0.3,2.8-2.3
		c0.2-1.9,0.4-3.7,0.6-5.6c0.2,0,0.4-0.1,0.5-0.1c1.4,3.6,2.9,7.3,4.3,11c0.2-0.1,0.6-0.3,1-0.6c2.8-1.9,5.7-3.8,8.5-5.7
		c0.4-0.3,0.8-0.6,1.2-0.7c3.9-0.5,5.9-3.7,8.6-6c1.9-1.6,3.7-3.4,5.3-5.3c0.7-0.8,1.3-1.9,1.4-2.9c0.5-2.5,0.7-5,1-7.8
		c2.3,0.7,4.6,1.4,6.9,2.1c10.9,3.4,21.6,7.1,31.7,12.4c0.9,0.5,1.7,1.1,2.7,1.5c1.9,0.8,2.4,2.2,2.3,4.3c-1.5-0.6-2.9-1.1-4.4-1.7
		c-1.9-0.7-3.7-0.8-5.7-0.2c-5.5,1.8-11.1,3.4-16.6,5.2c-0.8,0.3-1.6,1-2.1,1.8c-1.2,2.2-2.2,4.6-3.4,6.8c-0.2,0.4-0.8,0.9-1.3,0.9
		c-7,0.5-13.9,1-20.9,1.6c-0.6,0-1.2,0.2-1.7,0.6c-5.4,3.7-10.8,7.5-16.3,11.2c-0.4,0.3-1,0.4-1.5,0.5c-3.2,0-6.3,0-9.5,0
		c-0.5,0-1.1-0.2-1.5-0.5c-5.4-3.7-10.8-7.5-16.3-11.2c-0.4-0.3-1-0.5-1.5-0.5c-6.9-0.5-13.8-1-20.8-1.5c-0.9-0.1-1.3-0.3-1.7-1.2
		c-1.1-2.4-2.2-4.8-3.5-7.1c-0.3-0.5-0.9-1-1.5-1.2C83.5,71.7,77.2,69.7,71,68c-1.1-0.3-2.5,0.2-3.7,0.5
		C65.8,69,64.3,69.6,62.7,70.2z"/>
</g>
</svg>
