<?xml version="1.0" encoding="utf-8"?>
<!-- Generator: Adobe Illustrator 24.0.2, SVG Export Plug-In . SVG Version: 6.00 Build 0)  -->
<svg version="1.1" id="Слой_1" xmlns="http://www.w3.org/2000/svg" xmlns:xlink="http://www.w3.org/1999/xlink" x="0px" y="0px"
	 viewBox="0 0 238.1 150.2" style="enable-background:new 0 0 238.1 150.2;" xml:space="preserve">
<style type="text/css">
	.st0{fill:#373435;}
</style>
<g id="Слой_x0020_1">
	<path class="st0 fillable" d="M198.1,65.7l7.8,4.5l7.8-4.5l-7.8-4.5L198.1,65.7z M159,70.3c0,0.1,0,0.2-0.1,0.3l3.4,2l3.9-2.3v-4.5l-7.3,4.2
		C159,70.1,159,70.2,159,70.3z M158.9,70.6c-0.1,0.1-0.3,0.2-0.5,0.3v3.9l3.8-2.2L158.9,70.6L158.9,70.6z M158.4,70.9
		c-0.2,0-0.4-0.1-0.5-0.3l-3.4,2l3.8,2.2V70.9z M157.9,70.6c0-0.1-0.1-0.2-0.1-0.3c0-0.1,0-0.2,0.1-0.3l-7.3-4.2v4.5l3.9,2.3
		L157.9,70.6L157.9,70.6z M157.9,70c0.1-0.2,0.3-0.3,0.5-0.3c0.2,0,0.4,0.1,0.5,0.3l7.3-4.2l-7.9-4.5v-4.5l-7.8,4.5v4.5
		C150.5,65.7,157.9,70,157.9,70z M32.4,102.2c0,0.3-0.2,0.6-0.6,0.6v4l3.9,2.2l4-2.3v-9l-7.3,4.2C32.4,102,32.4,102.1,32.4,102.2z
		 M31.8,102.8c-0.3,0-0.6-0.3-0.6-0.6c0-0.1,0-0.2,0.1-0.3l-3.5-2l-3.9,2.2v4.5l0.1,0v0l4,2.3l3.8-2.2V102.8z M31.4,101.8
		c0.1-0.2,0.3-0.3,0.5-0.3c0.2,0,0.4,0.1,0.5,0.3l7.3-4.2l-7.8-4.5l0,0v4.4l0,0l-3.9,2.3C27.9,99.9,31.4,101.8,31.4,101.8z
		 M56.2,115.9c0,0.3-0.2,0.6-0.6,0.6v8.5l7.8-4.5v-4.6l0,0l3.9-2.2l-3.8-2.2l-0.1,0l-0.1,0l0,0l-7.3,4.2
		C56.1,115.7,56.2,115.8,56.2,115.9L56.2,115.9z M55.5,116.5c-0.3,0-0.6-0.3-0.6-0.6c0-0.1,0-0.2,0.1-0.3l-7.4-4.3l-7.9,4.5v4.6l0,0
		v4.4l7.9-4.5l0,0l7.9,4.5C55.5,124.9,55.5,116.5,55.5,116.5z M55.1,115.5c0.1-0.2,0.3-0.3,0.5-0.3c0.2,0,0.4,0.1,0.5,0.3l7.3-4.2
		l-7.8-4.5l-7.8,4.5C47.7,111.3,55.1,115.5,55.1,115.5z M8.7,88.5c0,0.3-0.2,0.6-0.6,0.6v8.5L16,93v-4.6l0,0l3.9-2.2L16,84l-7.4,4.3
		C8.7,88.3,8.7,88.4,8.7,88.5z M8.1,89.1c-0.3,0-0.6-0.3-0.6-0.6c0-0.3,0.3-0.6,0.6-0.6c0.2,0,0.4,0.1,0.5,0.3l7.4-4.3l0,0l3.9,2.2
		l3.9-2.2v-4.6l0.1,0l7.8-4.5l-14.4-8.3l0-0.1l14.4,8.3l0.1,0l0.1,0l0,0l7.8-4.5l-6.8-3.9c-0.1,0.2-0.3,0.3-0.5,0.3
		c-0.3,0-0.6-0.3-0.6-0.6c0-0.3,0.3-0.6,0.6-0.6c0.3,0,0.6,0.3,0.6,0.6c0,0.1,0,0.2-0.1,0.3l6.8,3.9l0,0l0,0l7.9-4.6l0,0l7.9,4.6v0
		l7.8,4.5v-4.5l0,0l7.9-4.6v0v-3.9c-0.2,0-0.4-0.1-0.5-0.3l-7.4,4.3l0,0l-7.9-4.6V52l0,0l7.8-4.5v-0.1l0.1,0v-4.4l0,0l7.9-4.6
		l7.9,4.5v-4.6l0,0l7.9-4.6l7.9,4.6v9.1l4,2.3l3.8-2.2v-4.6l0,0l7.9-4.6v0l0,0l7.9-4.6l7.9,4.6v9.1l5.4-3.1c0-0.1-0.1-0.2-0.1-0.3
		c0-0.3,0.3-0.6,0.6-0.6c0.3,0,0.6,0.3,0.6,0.6c0,0.3-0.3,0.6-0.6,0.6c-0.2,0-0.4-0.1-0.5-0.3l-5.4,3.1l7.8,4.5l7.9-4.6l7.9,4.6v9.1
		l7.8-4.5v-4.5L135,38.6l0-0.1L158.4,52l7.9-4.6v-9.1l0,0l7.9-4.6v0l0,0l7.9-4.6l7.9,4.6l23.9-13.8l0,0.1l-23.9,13.8v9.1l15.7,9.1
		l0.1,0l0.1,0l8,4.6v0.1l23.9,13.8l0,0.1l-23.8-13.8v9.1l-0.1,0l0,0v9.1l0,0l-7.9,4.6v9.1l7.9,4.6v9.2l0,0l-3.9,2.3l4,2.3v9.2l0,0
		l-7.9,4.6l0,0l-4-2.3l-3.8,2.2v9.2l-0.1,0l-8,4.6l-0.1,0l0,0l-7.8,4.5l0,0l-7.9-4.6l-7.9,4.6l0,0l-7.9-4.6l-7.9,4.6l0,0l-7.9-4.6
		v-9.1v0v-4.5l-4-2.3l-3.8,2.2v9.2l-0.1,0l-8,4.6l-0.1,0l0,0l-7.8,4.5l0,0l-7.9-4.6v0l-7.9-4.6v-9.1l-0.1,0v-4.7l-31.5,18.2v0l0,0
		l-7.9,4.6l0,0l0,0l-0.1,0.1l0-0.1l0.1,0l-7.8-4.5l-7.9,4.6l0,0l-7.9-4.6V125v0v-4.4l-7.9,4.5l0,0l-3.9-2.3l-4,2.3l-0.1,0l-8-4.6v0
		L8,115.9v-9.3l0.1,0l0,0v-9l0,0L8.1,89.1L8.1,89.1z M72,61.1c0,0.3-0.2,0.6-0.6,0.6v3.9l7.9-4.5l0,0l7.9,4.5v-4.3l-0.1,0v-0.1
		l-7.7-4.5l0,0l-7.4,4.3C72,61,72,61,72,61.1z M70.9,61.4c0-0.1-0.1-0.2-0.1-0.3c0-0.1,0-0.1,0-0.2l-7.5-4.3v-9.1L55.6,52v9.1
		l7.9,4.5L70.9,61.4z M70.9,60.7c0.1-0.1,0.2-0.2,0.4-0.2v-3.9l-7.8-4.5v4.3L70.9,60.7z M71.4,60.5c0.2,0,0.3,0.1,0.4,0.2l7.4-4.2
		v-4.3l-7.8,4.5C71.4,56.6,71.4,60.5,71.4,60.5z M103.6,88.4c0,0.1,0,0.2-0.1,0.3l3.6,2l3.8-2.2l0,0l7.9,4.5V84l0,0l7.8-4.5
		l-7.7-4.5v4.4l0,0l-7.9,4.6l0,0l-0.1,0l-7.3,4.2C103.6,88.2,103.6,88.3,103.6,88.4L103.6,88.4z M103.5,88.7
		c-0.1,0.2-0.3,0.3-0.5,0.3c-0.3,0-0.6-0.3-0.6-0.6c0-0.1,0-0.2,0.1-0.3l-7.3-4.2v4.5l7.9,4.6v0l4-2.3L103.5,88.7z M102.5,88.1
		c0.1-0.2,0.3-0.3,0.5-0.3c0.2,0,0.4,0.1,0.5,0.3l7.3-4.2l-7.8-4.5v-9.2l0,0l0,0l0,0l-7.9,4.5v4.6v4.5L102.5,88.1z M151.1,93.2
		c0,0.3-0.2,0.6-0.6,0.6v8.5l7.9,4.5l5.6-3.2l2.3-1.3l-7.9-4.5v-9.1l-7.3,4.2C151.1,93,151.1,93.1,151.1,93.2z M150.4,93.7
		c-0.2,0-0.3-0.1-0.4-0.2l-7.4,4.3l-0.1,0l-4-2.3l-3.8,2.2v4.6l4,2.3l3.9-2.3l0,0l3.9,2.2l4-2.3L150.4,93.7L150.4,93.7z M149.9,93.3
		c0-0.1,0-0.1,0-0.2c0-0.1,0-0.2,0.1-0.3l-7.3-4.2v4.5l0,0l-3.9,2.2l3.9,2.2L149.9,93.3L149.9,93.3z M150,92.8
		c0.1-0.1,0.2-0.2,0.4-0.2v-8.5l-7.7,4.5L150,92.8z M150.6,92.6c0.2,0,0.3,0.1,0.4,0.2l7.4-4.2l-7.7-4.5
		C150.6,84.1,150.6,92.6,150.6,92.6z M190.6,52c0,0.1,0,0.2-0.1,0.3l7.3,4.2l0,0l7.8-4.5L190,43l-7.9,4.5v0v9l0,0l0,0l7.3-4.2
		c0-0.1-0.1-0.2-0.1-0.3c0-0.3,0.3-0.6,0.6-0.6C190.4,51.4,190.6,51.7,190.6,52z M190.5,52.4c-0.1,0.2-0.3,0.3-0.5,0.3
		c-0.2,0-0.4-0.1-0.5-0.3l-7.3,4.2l7.9,4.5v9.1l7.7-4.4v-9.2C197.8,56.6,190.5,52.4,190.5,52.4z M63.5,79.3l7.8,4.5v0l0,0l7.8-4.5
		l-7.8-4.5v-4.5v-4.6l-7.8,4.5v4.5C63.5,74.8,63.5,79.3,63.5,79.3z M79.3,79.3v-4.4l-7.8-4.5v4.4L79.3,79.3z M79.3,74.7v-4.5
		l-7.8-4.5v4.5L79.3,74.7z M71.3,83.9l-7.8-4.5v4.4l0.1,0v0.1l3.8,2.2L71.3,83.9z M71.5,65.6l7.9,4.5v4.6l7.8-4.5v-4.6l-7.9-4.5
		C79.3,61.1,71.5,65.6,71.5,65.6z M79.3,74.8v4.4l7.8-4.5v-4.4L79.3,74.8z M79.3,79.4l-7.8,4.5l7.8,4.5
		C79.3,88.4,79.3,79.4,79.3,79.4z M87.3,70.3v4.5l7.8,4.5v-4.6l0,0l7.9-4.6l0,0l0.1,0l7.8-4.5v-4.4l-7.9,4.5l0,0l-3.9-2.3l-4,2.3
		l-0.1,0l-7.8-4.5v4.3C87.3,65.6,87.3,70.3,87.3,70.3z M103.1,102.2l7.8,4.5l0,0v-4.6l-7.8-4.5V102.2L103.1,102.2z M111,106.8
		l7.8-4.5v0v-4.7l-11.7-6.8l-4,2.3v4.4l7.9,4.6L111,106.8L111,106.8L111,106.8z M118.8,93.2l-7.9-4.5l-3.8,2.2l11.6,6.7
		C118.8,97.5,118.8,93.2,118.8,93.2z M110.8,106.8l-7.7-4.5v8.9C103.1,111.3,110.8,106.8,110.8,106.8z M118.8,102.3l-7.7,4.5
		l7.7,4.5C118.8,111.3,118.8,102.3,118.8,102.3z M213.7,65.6v-9l-7.8-4.5l-7.8,4.5v9l7.8-4.5l0,0L213.7,65.6z M205.9,79.4l7.9-4.5
		v-9l-7.9,4.5l-0.1,0l-7.8-4.5v9L205.9,79.4z M205.8,79.5l-7.9-4.5l-7.8,4.5l7.9,4.5V93l7.8-4.5V79.5z M197.9,74.8v-9l0,0l-7.7,4.5
		v0.1l-0.1,0l0,0v8.9l0,0l0,0L197.9,74.8L197.9,74.8z M205.9,106.8l3.8-2.2l-3.8-2.2l-3.8,2.2L205.9,106.8L205.9,106.8z
		 M209.8,104.5l4-2.3v-9.1l-7.9-4.5l-7.8,4.5v0.1l-0.1,0l0,0v9v0l4,2.3l3.9-2.3l0,0C205.9,102.3,209.8,104.5,209.8,104.5z
		 M205.8,106.9l-3.9-2.2l-4,2.3v4.5v4.6l3.9,2.2l4-2.3L205.8,106.9L205.8,106.9z M201.9,104.6l-3.9-2.2v4.5L201.9,104.6z
		 M197.9,102.2v-8.9l-7.7,4.5L197.9,102.2z M209.8,104.6l-3.9,2.2v9.1l0,0l-3.9,2.3l3.9,2.3l7.9-4.5v-9.1L209.8,104.6L209.8,104.6z
		 M174.3,116l7.8,4.5l0,0l7.8-4.5l-7.8-4.5L174.3,116L174.3,116z M190,115.9v-9l-3.8-2.2l-4,2.3v4.4L190,115.9L190,115.9L190,115.9z
		 M186,104.5l-3.8-2.2v4.4L186,104.5z M182,120.5l-7.8-4.5v9L182,120.5L182,120.5z M174.2,106.8l3.8-2.2l-3.9-2.2v-4.6l-7.7,4.5
		L174.2,106.8z M178.2,104.5l3.9-2.2l-7.7-4.5v4.5L178.2,104.5L178.2,104.5z M182.2,102.3l3.9,2.2l3.9-2.2v-4.4L182.2,102.3z
		 M186.3,104.6l3.8,2.2l7.8-4.5l-7.7-4.5v4.6l-0.1,0L186.3,104.6z M158.5,116l7.8,4.5V116l-4-2.3L158.5,116z M166.3,120.5l7.8-4.5
		l-7.8-4.5l-3.9,2.3l4,2.3V120.5L166.3,120.5z M174.2,115.9v-9l-7.8-4.5v9L174.2,115.9L174.2,115.9z M163.7,103.8l-5.3,3.1v4.6
		l3.9,2.2l4-2.3v-9L163.7,103.8z M158.4,111.5v4.4l3.8-2.2C162.2,113.7,158.4,111.5,158.4,111.5z M166.2,120.5l-7.8-4.5v9
		L166.2,120.5z M158.4,115.9v-4.4l-3.8,2.2L158.4,115.9L158.4,115.9z M158.4,111.4v-4.6l-7.9-4.5l-3.9,2.3l4,2.3v4.5l4,2.3
		L158.4,111.4L158.4,111.4z M174.3,106.9v9l7.8-4.5V107l0,0l-4-2.3L174.3,106.9z M174.2,116l-7.8,4.5l7.8,4.5V116z M166.3,102.2
		l7.8-4.5v-4.6l0.1,0l0,0v-4.4l-7.8,4.5C166.3,93.2,166.3,102.2,166.3,102.2z M174.3,97.7l7.8,4.5v-9l-0.1,0v-0.1l-3.7-2.2l-4,2.3
		V97.7z M142.6,125l7.8-4.5v-4.4l-7.8,4.5V125z M142.7,125.1l7.8,4.5l3.8-2.2l-3.9-2.2v-4.6L142.7,125.1L142.7,125.1z M154.4,127.4
		l3.9-2.3l-7.8-4.5v4.5L154.4,127.4L154.4,127.4z M158.4,116l-3.9-2.2l-4,2.3v4.5l7.8,4.5L158.4,116L158.4,116z M154.4,113.7
		l-3.9-2.2v4.5L154.4,113.7z M150.4,111.5l-7.8,4.5v0l0,0v4.5l7.8-4.5V111.5z M150.5,129.7L150.5,129.7l-7.9-4.5v9l7.9,4.5l7.9-4.5
		v-4.5l-4-2.3L150.5,129.7z M142.5,120.5V116l-3.9,2.2L142.5,120.5z M142.6,115.9l7.8-4.5v-4.5l-4-2.3l-3.9,2.2V115.9z M158.4,125.2
		l-3.9,2.2l3.9,2.2V125.2L158.4,125.2z M158.4,129.6l3.9-2.2l-3.9-2.2V129.6z M162.4,127.4l3.9-2.2v-4.5l-7.8,4.5L162.4,127.4
		L162.4,127.4z M166.3,120.6v4.6l0,0l-3.9,2.2l3.8,2.2l7.8-4.5L166.3,120.6L166.3,120.6z M162.4,127.5l-4,2.3v4.5l7.9,4.5l7.9-4.5
		v-9l-7.9,4.5l0,0L162.4,127.5z M174.3,134.2l7.9,4.5l7.8-4.5l-7.9-4.5v-9.1l-7.8,4.5L174.3,134.2L174.3,134.2z M182.3,120.6
		l7.8,4.5v0v9l7.8-4.5v-9l-7.8-4.5L182.3,120.6L182.3,120.6z M55.6,70.3v9l0,0l7.8,4.5v-4.4v-4.6L55.6,70.3z M47.8,83.9l7.8,4.5l0,0
		l0,0l7.8-4.5l-7.8-4.5C55.6,79.5,47.8,83.9,47.8,83.9z M55.5,70.3l-7.8,4.5l7.8,4.5l0,0V70.3z M55.6,88.5L55.6,88.5L47.8,93
		l7.8,4.5l7.8-4.5L55.6,88.5C55.6,88.5,55.6,88.5,55.6,88.5z M55.5,88.5L47.8,84v8.9L55.5,88.5z M47.7,74.7l7.8-4.5l-7.8-4.5
		l-7.8,4.5L47.7,74.7z M63.4,84l-7.7,4.5l7.7,4.5V84z M39.9,79.4l7.7,4.5l0,0l0,0v-9l-7.8-4.5v9L39.9,79.4
		C39.9,79.3,39.9,79.4,39.9,79.4z M47.6,83.9l-7.7-4.4v8.9L47.6,83.9C47.6,83.9,47.6,83.9,47.6,83.9z M39.7,79.2v-8.9L32,74.7
		C32,74.7,39.7,79.2,39.7,79.2z M55.5,97.7l-7.8-4.5v9l7.8,4.5C55.5,106.6,55.5,97.7,55.5,97.7z M47.6,93.1L47.6,93.1l-7.8,4.5
		l7.8,4.5C47.6,102.1,47.6,93.1,47.6,93.1z M47.6,93.1v-9l-7.7,4.4v0.1l-0.1,0l0,0v9C39.8,97.5,47.6,93.1,47.6,93.1z M47.7,83.8
		l7.7-4.5l-7.7-4.5V83.8z M63.6,84v4.3l3.7-2.2C67.3,86.2,63.6,84,63.6,84z M63.6,88.4V93l7.9,4.6v4.5l7.7-4.5L71.4,93v-9.1
		C71.4,83.9,63.6,88.4,63.6,88.4z M55.7,106.6l7.8-4.5v-4.6v-4.4l-7.8,4.5C55.7,97.7,55.7,106.6,55.7,106.6z M55.5,106.7l-7.8-4.5v9
		L55.5,106.7C55.5,106.8,55.5,106.7,55.5,106.7z M63.5,97.6v4.6l0,0l-7.8,4.5l7.8,4.5l7.8-4.5v-4.6C71.3,102.1,63.5,97.6,63.5,97.6z
		 M71.3,102v-4.4l-7.8-4.5v4.4L71.3,102z M71.5,102.1v4.5l7.7-4.4v-0.1l0.1,0l7.9-4.6v-4.4l-7.8,4.5v0l0,0
		C79.3,97.6,71.5,102.1,71.5,102.1z M71.5,106.7L71.5,106.7l-0.1,0.1l0,0v4.4l7.9,4.6v4.6l7.7-4.5l-7.9-4.5v-9.1L71.5,106.7
		L71.5,106.7z M71.4,106.9l-7.7,4.5l3.8,2.2l4-2.3L71.4,106.9L71.4,106.9z M24,83.9l3.9,2.2l3.9-2.2v-9L24,79.4V83.9z M24.1,88.4
		l7.7,4.5v-4.4l-3.9-2.2L24.1,88.4z M31.9,92.9l7.7-4.5L31.8,84L28,86.2l3.9,2.2V92.9z M39.6,88.4v-9l-7.8-4.5v9L39.6,88.4z M24,84
		v4.4l3.8-2.2C27.9,86.2,24,84,24,84z M31.8,93.1L31.8,93.1L31.8,93.1L24,97.6l3.8,2.2l4-2.3C31.8,97.5,31.8,93.1,31.8,93.1z
		 M31.7,93.1L24,88.6v8.9C24,97.5,31.7,93.1,31.7,93.1z M23.9,88.6L23.9,88.6l-0.1-0.1l-3.9-2.2l-3.9,2.2V93l7.8,4.5L23.9,88.6
		L23.9,88.6z M23.8,88.4V84L20,86.2C20,86.2,23.8,88.4,23.8,88.4z M39.7,88.6L32,93.1l7.7,4.5C39.7,97.5,39.7,88.6,39.7,88.6z
		 M8.2,97.6l7.8,4.5l0.1,0l0.1,0l0,0l3.9-2.2l-4-2.3v-4.5L8.2,97.6L8.2,97.6z M20,99.8l3.8-2.2l-7.8-4.5v4.4
		C16.1,97.5,20,99.8,20,99.8z M15.9,102.1l-7.7-4.5v8.9L15.9,102.1z M23.9,97.7l-3.8,2.2l3.8,2.2V97.7z M20,99.9l-3.9,2.2l7.7,4.5
		v-4.4L20,99.9z M24,102.1l3.8-2.2L24,97.7V102.1z M31.9,111.2l3.8-2.2l-3.8-2.2L31.9,111.2C31.9,111.2,31.9,111.2,31.9,111.2z
		 M39.8,106.8l-3.9,2.3l4,2.3v4.5l7.8-4.5L39.8,106.8z M35.8,109.1l-3.8,2.2v0l7.8,4.5v-4.4C39.7,111.4,35.8,109.1,35.8,109.1z
		 M8.3,106.8l7.7,4.4l0,0l7.8-4.5l-7.7-4.4L8.3,106.8z M15.9,111.3l-7.7-4.4v9l7.7,4.4V111.3z M16.1,120.3l7.7-4.4v-8.9l-7.7,4.4
		C16.1,111.4,16.1,120.3,16.1,120.3z M24,106.9v4.3l3.7-2.2L24,106.9z M24,111.3v4.6l-0.1,0l0,0v4.5l3.8,2.2l4-2.3v-9l-3.9-2.2
		L24,111.3L24,111.3z M23.9,116l-7.7,4.4l7.7,4.4l3.8-2.2l-3.8-2.2C23.9,120.5,23.9,116,23.9,116z M47.6,111.2v-9l-7.8-4.5v9
		L47.6,111.2z M39.7,115.9l-7.8-4.5v9.1l-0.1,0l-3.9,2.3l3.9,2.2l7.9-4.5V115.9z M31.8,111.2v-4.3l-3.7,2.2L31.8,111.2z M150.4,61.2
		l-7.8,4.5v0l0,0l-7.8,4.5v4.5l7.8-4.5v0l0,0l7.9-4.6V61.2z M166.3,65.7v-4.5l-7.8-4.5v4.5C158.4,61.1,166.3,65.7,166.3,65.7z
		 M158.4,74.9l-3.9-2.3l-3.9,2.3v9l0,0l7.8-4.5L158.4,74.9L158.4,74.9z M154.4,72.6l-3.9-2.3v-4.5l-7.8,4.5l7.8,4.5
		C150.5,74.8,154.4,72.6,154.4,72.6z M158.4,56.6l7.9,4.6v4.5l7.8-4.5v0l-7.8-4.5v0l-7.8-4.5C158.4,52.1,158.4,56.6,158.4,56.6z
		 M166.3,65.8v4.5l0,0l-3.9,2.2l3.9,2.3v9.1l7.8-4.5v0v-9l-0.1,0v-0.1L166.3,65.8L166.3,65.8z M162.4,72.6l-3.9,2.3v4.5l7.8,4.5v-9
		L162.4,72.6z M150.6,84l7.8,4.5l7.8-4.5l-7.8-4.5L150.6,84L150.6,84z M166.3,47.4l7.8-4.5v-9l-7.8,4.5V47.4z M170,49.5l4.3,2.5
		l7.8-4.5l-7.8-4.5l-7.8,4.5L170,49.5z M182.1,47.4v-9l-7.8,4.5L182.1,47.4L182.1,47.4z M182.1,38.3l-7.8-4.5v9L182.1,38.3z
		 M174.3,33.8l7.8,4.5l7.8-4.5l-7.8-4.5L174.3,33.8z M182.2,38.4v9l7.8-4.5v-9L182.2,38.4z M182.1,47.5l-7.8,4.5v9l7.8-4.5V47.5z
		 M166.3,56.6l7.8,4.5l0,0l0,0v-9l-7.8-4.5V56.6z M166.3,56.5v-9l-7.8,4.5L166.3,56.5L166.3,56.5z M174.4,70.3l7.8,4.5l7.8-4.5
		l-7.8-4.5L174.4,70.3z M189.9,70.2v-9l-7.8-4.5v9L189.9,70.2z M182.1,56.7l-7.8,4.5v9l7.8-4.5V56.7z M182.1,75L182.1,75L182.1,75
		l-7.8,4.4l7.8,4.5l0,0l7.8-4.5L182.1,75L182.1,75L182.1,75z M182,74.9l-7.7-4.5v8.9C174.3,79.4,182,74.9,182,74.9z M174.1,70.2
		v-8.9l-7.7,4.5C166.4,65.7,174.1,70.2,174.1,70.2z M190,70.4l-7.7,4.5l7.7,4.4l0,0V70.4z M166.3,84L166.3,84l-7.8,4.5l7.8,4.5
		l7.8-4.5L166.3,84L166.3,84z M174.2,79.5l-7.8,4.5l7.8,4.5C174.2,88.5,174.2,79.5,174.2,79.5z M182,84l-7.8-4.5v9l3.9,2.2l3.9-2.2
		L182,84L182,84z M178.4,90.9L182,93v-4.2C182,88.8,178.4,90.9,178.4,90.9z M182.2,93l3.7-2.1l-3.7-2.1
		C182.2,88.8,182.2,93,182.2,93z M186.1,90.8l3.9-2.2v-9l-7.8,4.5v4.5C182.2,88.6,186.1,90.8,186.1,90.8z M190,88.6l-3.9,2.2l4,2.3
		v4.4l7.7-4.4C197.8,93.1,190,88.6,190,88.6z M186,91l-3.7,2.1l7.7,4.4v-4.3L186,91z M158.4,97.7l7.8,4.5v-9l-7.8-4.5V97.7z
		 M174.3,88.6V93l3.8-2.2C178.1,90.8,174.3,88.6,174.3,88.6z M197.8,93v-9l-7.8-4.5v9L197.8,93z M189.9,97.7l-7.7-4.5v8.9
		C182.2,102.2,189.9,97.7,189.9,97.7z M182.1,102.3l-3.8,2.2l3.8,2.2C182.1,106.7,182.1,102.3,182.1,102.3z M87.3,102.2L87.3,102.2
		l3.9-2.2l-3.9-2.2V102.2z M87.4,102.2l7.7,4.4v-4.4l-3.8-2.2C91.2,100,87.4,102.2,87.4,102.2z M95.2,106.7l7.7-4.4l-3.9-2.3
		l-3.7,2.1l0,0V106.7z M103,102.2L103,102.2l0-4.6l-4,2.3C99,99.9,103,102.2,103,102.2z M103,97.5v-4.4v0l-7.9-4.5l-7.9,4.5v4.4l0,0
		l4.1,2.3l3.8-2.2l0,0l3.8,2.2C98.9,99.9,103,97.5,103,97.5z M95,106.7l-7.7-4.5l0,0v4.4v4.7l3.8,2.2l4-2.3
		C95,111.2,95,106.7,95,106.7z M87.2,102.2L87.2,102.2l0-4.5l-7.7,4.5l7.7,4.5L87.2,102.2L87.2,102.2
		C87.2,102.2,87.2,102.2,87.2,102.2z M103,102.3l-7.7,4.5v4.5l4,2.3l3.7-2.1v-0.1l0.1,0l0,0L103,102.3L103,102.3z M91.2,113.7
		l3.9,2.3l4-2.3l-3.9-2.3v0l-0.1,0C95.2,111.4,91.2,113.7,91.2,113.7z M98.9,99.9l-3.7-2.2l-3.7,2.1l3.7,2.2L98.9,99.9z M95.1,116
		L95.1,116l-4-2.3l-3.9,2.3l-0.1,0l0,0l-7.8,4.5v4.5l0,0l-7.9,4.6v4.5l31.5-18.2v0l-3.7-2.1L95.1,116L95.1,116z M90.9,113.6
		l-3.7-2.1v4.3L90.9,113.6z M102.9,111.5l-3.6,2.1l3.6,2.1C102.9,115.7,102.9,111.5,102.9,111.5z M103.1,115.7l7.8-4.5V107l-7.8,4.5
		V115.7z M111,107v4.3l0,0l0,0l-7.8,4.5v4.6l7.8-4.5l0,0l7.8,4.5v-9C118.7,111.5,111,107,111,107z M110.9,83.9L110.9,83.9l0-9.1
		l-7.8-4.5l0,0v9.1L110.9,83.9z M103.2,70.2l7.8,4.5v9.2l0,0l0,0l0,0l7.9-4.5V75l-0.1,0v-0.1l-7.8-4.5v-4.6
		C110.9,65.8,103.2,70.2,103.2,70.2z M79.3,88.4l7.8,4.5v-9.1l-7.8-4.5v0V88.4L79.3,88.4z M87.3,93l7.8-4.5v-4.6v-4.5l-7.9-4.5
		l-7.8,4.5l7.8,4.5C87.3,83.8,87.3,93,87.3,93z M87.1,93l-7.8-4.5v9C79.3,97.5,87.1,93,87.1,93z M71.4,115.8l7.8,4.5v-4.5l-7.8-4.5
		V115.8z M87.2,115.7v-4.3v-4.7l-7.8-4.5v9L87.2,115.7z M79.3,120.5l-7.8-4.5v9v0v4.4l7.8-4.5V120.5z M71.4,115.8v-4.5l-3.9,2.2
		L71.4,115.8L71.4,115.8z M55.7,125l7.8,4.5l3.9-2.3l-4-2.3v-4.5L55.7,125L55.7,125z M67.5,127.2l3.8-2.2l-7.8-4.5v4.4
		C63.5,124.9,67.5,127.2,67.5,127.2z M71.4,124.9v-9l-4-2.3l-3.9,2.2v4.6L71.4,124.9z M63.5,129.6L63.5,129.6l-7.9-4.5v9l7.8,4.5
		l7.9-4.6v-4.5l-3.9-2.2L63.5,129.6z M71.4,125.1l-3.8,2.2l3.8,2.2V125.1z M79.3,97.5v-9v0l-7.8-4.5v9L79.3,97.5z M134.8,84l7.7,4.5
		V84l-3.8-2.2L134.8,84z M142.6,88.5l7.7-4.5l-7.8-4.5l-3.8,2.2l3.8,2.2V88.5z M150.4,83.9v-9l-7.8-4.5v9l0,0L150.4,83.9z
		 M142.5,70.4l-7.8,4.5v0.1l-0.1,0l0,0v4.4l3.9,2.2l3.9-2.3C142.5,79.3,142.5,70.4,142.5,70.4z M134.7,79.5v4.4l3.8-2.2L134.7,79.5z
		 M142.5,88.6l-7.7-4.5V93C134.8,93,142.5,88.6,142.5,88.6z M134.6,83.9v-4.4l-3.9,2.2L134.6,83.9L134.6,83.9L134.6,83.9z
		 M134.6,79.4V75l-7.7,4.5l3.8,2.2C130.7,81.6,134.6,79.4,134.6,79.4z M118.9,93.1l7.8,4.5l0,0l0,0l3.9-2.3l-4-2.3v-4.5L118.9,93.1
		L118.9,93.1z M130.8,95.3l3.8-2.2v0l-7.8-4.5v4.4C126.8,93.1,130.8,95.3,130.8,95.3z M134.6,84l-3.9-2.2l-3.9,2.2v4.6l7.8,4.5V84z
		 M130.6,81.7l-3.8-2.2l-0.1,0l-0.1,0l0,0l-7.8,4.5v9l7.8-4.5v-4.6l0,0L130.6,81.7L130.6,81.7z M126.8,97.7L126.8,97.7l-3.8,2.2
		l7.8,4.5l3.8-2.2L126.8,97.7L126.8,97.7z M126.7,97.7l-7.8-4.5v4.3l4,2.3L126.7,97.7z M134.6,93.2l-3.8,2.2l3.8,2.2L134.6,93.2
		L134.6,93.2L134.6,93.2z M130.8,95.4l-3.9,2.3l7.8,4.5v-4.5C134.6,97.7,130.8,95.4,130.8,95.4z M134.7,97.6l3.7-2.2l-3.7-2.2V97.6z
		 M138.6,95.3l3.9-2.2v-4.4l-7.7,4.5C134.8,93.1,138.6,95.3,138.6,95.3z M118.9,61.1l3.9,2.2l3.8-2.2l-7.7-4.5V61.1z M123,63.5
		l3.7,2.2v-4.3C126.7,61.3,123,63.5,123,63.5z M126.8,65.6l3.7-2.2l-3.7-2.2C126.8,61.3,126.8,65.6,126.8,65.6z M130.7,63.3l3.9-2.2
		v-9l-7.8,4.5v4.5l0,0L130.7,63.3z M134.6,52l-7.8-4.5l-7.9,4.5v4.6l7.8,4.5l0,0v-4.5l0,0L134.6,52z M126.7,65.7l-3.8-2.2l-4,2.3v9
		l7.8-4.5V65.7C126.7,65.7,126.7,65.7,126.7,65.7z M122.7,63.4l-3.9-2.2v-4.5l-7.8,4.5v0v4.5l7.8,4.5v-4.5l0.1,0
		C118.8,65.6,122.7,63.4,122.7,63.4z M118.8,56.6v-4.5l-7.8,4.5v4.5L118.8,56.6z M134.7,61.2l-3.9,2.2l4,2.3v4.5l7.7-4.5L134.7,61.2
		L134.7,61.2z M130.6,63.5l-3.8,2.2l7.7,4.5v-4.4C134.6,65.8,130.6,63.5,130.6,63.5z M142.5,65.6v-9l-7.8-4.5v9L142.5,65.6z
		 M134.6,70.2l-7.8-4.5v4.6l0,0l-7.8,4.5l7.8,4.5l7.8-4.5V70.2L134.6,70.2z M134.7,52l7.9,4.5v9.1l7.8-4.5V52l-7.9-4.5L134.7,52
		L134.7,52z M118.7,74.8v-4.5l-7.8-4.5v4.5L118.7,74.8z M79.4,56.6l3.9,2.3l3.8,2.2v-9l-7.7-4.4C79.4,47.5,79.4,56.6,79.4,56.6z
		 M138.7,104.6l3.8,2.2l3.8-2.2l-3.8-2.2L138.7,104.6z M118.9,102.3l7.8,4.5l4-2.3l-7.8-4.5L118.9,102.3z M118.9,97.6v4.6l4-2.3
		L118.9,97.6z M126.7,106.9l-7.8-4.5v9l0.1,0v0.1l7.7,4.5l0,0C126.7,115.9,126.7,106.9,126.7,106.9z M190.1,115.9l7.8-4.5v-4.5v-4.5
		l-7.8,4.5L190.1,115.9L190.1,115.9L190.1,115.9z M197.9,111.5l-7.7,4.5l7.8,4.5l3.8-2.2l-3.9-2.2V111.5z M190,134.1v-9l-7.8-4.5v9
		L190,134.1z M126.8,115.9l7.8-4.5v-4.5v-4.5l-7.8,4.5L126.8,115.9L126.8,115.9L126.8,115.9z M126.6,115.9l-7.7-4.4v8.8L126.6,115.9
		z M134.7,102.3v4.5l3.9-2.2L134.7,102.3z M134.6,111.5l-7.7,4.5l7.8,4.5l3.8-2.2l-3.9-2.2C134.6,116,134.6,111.5,134.6,111.5z
		 M138.6,118.2l4-2.3v-9.1l-3.9-2.2l-4,2.3v4.5v4.6L138.6,118.2z M39.8,125l7.8,4.5l7.8-4.5l-7.8-4.5L39.8,125z M47.7,129.6
		L47.7,129.6l-7.9-4.5v9l7.9,4.5l7.9-4.5v-9C55.5,125.1,47.7,129.6,47.7,129.6z M103.2,120.5l7.8,4.5l7.8-4.5l-7.8-4.5L103.2,120.5z
		 M110.9,125.2L110.9,125.2l-7.8-4.5v9l7.8,4.5V125.2L110.9,125.2z M118.7,120.7l-7.8,4.5v9l7.8-4.5V120.7z M118.8,129.8l-7.8,4.5
		l7.8,4.5l7.8-4.5L118.8,129.8L118.8,129.8z M126.7,134.1v-9l-7.8-4.5v9L126.7,134.1L126.7,134.1z M119,120.6l7.8,4.5v9l7.8-4.5v-9
		l-7.8-4.5L119,120.6z M79.4,47.4l7.7,4.5l0,0l7.8-4.5l-7.8-4.5L79.4,47.4C79.4,47.4,79.4,47.4,79.4,47.4z M95.1,47.3v-9l-7.9-4.5
		l-7.9,4.5v4.6v4.4l0,0l7.8-4.5L95.1,47.3L95.1,47.3L95.1,47.3z M87.3,61l7.8-4.5V52v-4.4L87.3,52V61z M95.2,47.6V52l3.8-2.2
		L95.2,47.6z M95.1,56.6l-7.7,4.5l7.8,4.5l3.8-2.2l-3.8-2.2C95.1,61.2,95.1,56.6,95.1,56.6z M71.4,56.5V52l-7.8-4.5V52L71.4,56.5z
		 M63.6,47.5l7.8,4.5v4.6l7.8-4.5v-4.6L71.4,43C71.4,43,63.6,47.5,63.6,47.5z M63.5,47.3l7.9-4.5l7.9,4.5v-4.3l-7.9-4.5l-7.9,4.5
		C63.5,42.9,63.5,47.3,63.5,47.3z M103.1,52l7.8,4.5v-4.4l-7.8-4.5v4.4L103.1,52L103.1,52z M111,56.5l7.8-4.5l-7.9-4.5v-9.1
		l-7.8,4.5v4.6L111,52V56.5z M118.8,51.9v-9l-7.8-4.5v9C111,47.4,118.8,51.9,118.8,51.9z M110.9,56.6l-7.7-4.5V61
		C103.1,61,110.9,56.6,110.9,56.6z M103,51.8v-4.3l-3.7,2.2C99.3,49.7,103,51.8,103,51.8z M111,38.3l7.9,4.5v9.1l7.8-4.5v-9.1
		l-7.9-4.5C118.9,33.8,111,38.3,111,38.3z M99,63.3l4-2.3v-9l-3.9-2.2l-3.9,2.2v4.5v4.6C95.2,61.1,99,63.3,99,63.3z M103.1,61.1
		L103.1,61.1l-0.1,0.1l-3.9,2.3l3.9,2.2l7.9-4.5v0v-4.5C110.9,56.6,103.1,61.1,103.1,61.1z"/>
</g>
</svg>
