<?xml version="1.0" encoding="utf-8"?>
<!-- Generator: Adobe Illustrator 24.0.2, SVG Export Plug-In . SVG Version: 6.00 Build 0)  -->
<svg version="1.1"
	 id="Слой_1" text-rendering="geometricPrecision" image-rendering="optimizeQuality" shape-rendering="geometricPrecision" xmlns:xodm="http://www.corel.com/coreldraw/odm/2003"
	 xmlns="http://www.w3.org/2000/svg" xmlns:xlink="http://www.w3.org/1999/xlink" x="0px" y="0px" viewBox="0 0 238.1 150.2"
	 style="enable-background:new 0 0 238.1 150.2;" xml:space="preserve">
<style type="text/css">
	.st0{fill-rule:evenodd;clip-rule:evenodd;fill:#373435;}
</style>
<g id="Слой_x0020_1">
	<path class="st0" d="M187.1,48.8l1.4,0l0,1.4l-1.4,0L187.1,48.8L187.1,48.8z M2.8,19.5c2.2-1.1,2.5-2,3.8-3.7
		c1.6,2,1.6,2.3,3.8,3.8c-0.5,0.6-1.5,1.1-2.1,1.7c-0.6,0.6-1.1,1.5-1.7,2.2c-0.6-0.7-1.1-1.6-1.7-2.2C4.2,20.6,3.3,20.2,2.8,19.5z
		 M0,20.3c1.4,0.6,4.2,0.9,5.4,4.3c0.4,1,0.2,1.9,0.9,2.4c1.6-0.1,0.9-0.5,1.4-2.2c1-2.9,3.3-3.9,6.1-4.5l0.2-1.3
		c-4.4-0.7-6-2.3-6.9-6.7l-1.3,0c-1,4.2-1.7,5.3-6,6.6L0,20.3L0,20.3z M0,38.4c0.3,1.3,2.2,2.5,3.3,3.3c-0.9,1.1-2.8,1.6-3.2,3.3
		l0,4c1.4-3.4,0.6-5.2,6.8-6.7l0-1.2c-1.7-0.8-2.8-0.4-4.5-2c-1.6-1.5-1.6-2.8-2.2-4.7L0,38.4L0,38.4z M21.5,57.9l1.8,0l0,1.9
		l-1.8-0.1C21.5,59.6,21.5,57.9,21.5,57.9z M19.6,60.9l0.3,0.4l0.1,0.3c1.5-0.1,1.3-0.7,2.8-0.5c2,0.3,0.4,0.9,2.5,0.1
		c-0.3-2.6-1.3-1,0-4.5l-0.9-0.8c-2.2,1.1-1.8,0.9-4,0l-0.9,0.9C20.8,60.1,19.9,58.4,19.6,60.9L19.6,60.9z M51.4,57.9
		c0.8-0.7,1.1-1.1,1.8-1.9l1.9,1.9l-1.9,1.9C53.3,59.8,51.4,57.9,51.4,57.9z M48.5,57.3l0.2,1.3c4.9,1.3,2.9,4.4,4.8,4
		c1.3-0.8,0.7-4.2,4.3-3.8l0-1.4c-3.8-1.7-2.3-0.5-4.1-4l-1.1,0C51.4,55.9,52.2,56.6,48.5,57.3z M36,61.2c-1.6-1.3,0.6-0.6-3.9-3.8
		c0.6-0.6,1.4-1.1,2.1-1.7c1-0.9,1-1.5,1.8-2.1c1.9,3.1,1.7,1.9,3.7,3.8C37.7,59.1,37.7,58.8,36,61.2L36,61.2z M30.2,56.5l-1.5,0.1
		l0,1.5c3.7,1.4,5,0.4,6.7,6.7l1.2,0c0.2-0.5,1.1-6.5,5.9-6.3C43,58,43.6,58,43.2,57c-0.4-0.8-0.5-0.4-1.2-0.6
		c-6.4-1.5-4.1-6.8-6.2-6.4c-1.1,0.2-0.3,1.8-2,4.1C32.8,55.3,31.7,55.9,30.2,56.5z M50.3,75.4c1-2.4-1.2-3-2.1-2.1
		C47.2,74.3,48,76.3,50.3,75.4z M48.7,79.4c0,1.2-0.5,1.9,0.9,2.1c0.9-1.4,0-1.1,0.5-2.1l1.2-0.2c0.3,0.4,0.1,0.2,0.2,0.7
		c0.6,1.6,0.3,1,1.1,1.1c0.7-1.2,0.1-2.1-0.3-3.3c-1.1,0-1.9,0.2-3,0.3c-1,0-2-0.2-3-0.2c-0.6,1.2-1.5,3,0.3,3.3
		c0.6-1,0.2-0.8,0.5-1.8C47,79.2,48.7,79.4,48.7,79.4z M52.8,69.5c0.1-1.2,0.4-0.6-0.2-1.7c-1.4-0.5-0.8,0.5-1.4,1.7l-1.5-0.2
		l0.1-1.8l-0.9-0.2c-0.5,0.9-0.4,1.1-0.2,2.1l-1.6,0.2c-0.5-1,0.4-0.8-0.8-1.9C45,68.2,45.6,70,46.3,71c2.1,0.1,0.6-0.6,5.9,0.1
		L52.8,69.5L52.8,69.5z M40.1,75.8l0,2.9L37,78.7C37.3,77.1,38.6,75.9,40.1,75.8z M32,75.8c1.7,0,3,1.3,3.2,2.9l-3.2,0L32,75.8z
		 M36.2,76.7c-0.7-0.7-1.5-1.3-1.8-2.1l1.8-1.6c0.2,0.1,1.8,1.7,1.9,1.9C37.7,75.2,36.6,76.3,36.2,76.7L36.2,76.7z M32.1,74L32,70.7
		l3.2-0.1C35.2,72.2,33.8,73.9,32.1,74L32.1,74z M37,70.7l3.1-0.1l0,3.4C38.5,73.7,37.1,72.3,37,70.7z M30.6,78.4l0,1.6l10.8,0.1
		l0-1.9l0-8.9l-10.8-0.1L30.6,78.4L30.6,78.4z M37.5,85.8l1.6,0.1l0,1.3l-1.6,0.1L37.5,85.8L37.5,85.8z M209.8,11.7l-0.2,1.6l-0.9,0
		c-0.3-0.8-0.2-0.7-0.3-1.7L209.8,11.7L209.8,11.7z M59,48.8l1.4,0l0,1.4l-1.3,0.1L59,48.8L59,48.8z M202.2,78.2l0,1.8l10.9,0.1
		l0.1-1.9l-0.1-9l-10.9,0.1L202.2,78.2L202.2,78.2z M223.8,106.2c-0.7,1.1-0.3,3.7-0.3,5.3c0,1.8-0.2,3.9,0.1,5.7l10.8,0.1l0.1-9.8
		c0-1.4,0.1-0.6-0.4-1.1L223.8,106.2z M59.7,74.9c0.5-0.6,1.6-1,2.2-1.7c0.6-0.6,1-1.5,1.6-2.2c0.7,0.6,1,1.6,1.7,2.2
		c0.6,0.6,1.7,1.1,2.2,1.6c-2.6,1.8-2,1.2-3.8,3.8C61.3,76.3,64.1,78.1,59.7,74.9z M57.5,73.8c-0.9,0.9-1.1,0.6-1.3,1.7
		c1.6,0.3,3.6,0.6,4.4,2.1c3,1.6,1.1,4.9,3.1,4.6c1.1-0.2,0.4-0.6,1-2.4c0.3-0.8,0.7-1.6,1.5-2c1.6-2.7,4.9-1.5,4.7-3.2
		c-0.5-1,0.2-0.4-1.3-0.8c-6.2-1.5-4.3-6.7-6.2-6.4c-1.1,0.5-0.3-0.4-0.8,1.1c-0.3,0.9-0.2,1.6-1.3,3C60.3,72.7,59.2,73.6,57.5,73.8
		L57.5,73.8z M133.2,83.5c0.2-0.6,0-0.4,1.9-1.4c1.1-0.6,1.5-1,2.7-1C137.5,82.7,134.9,84,133.2,83.5L133.2,83.5z M142.1,71
		c-0.6-1,0-2,1-2.2C143.2,69.7,142.8,70.3,142.1,71z M157.7,66.3c-0.2-1-0.1-1.9,0.2-3C158.7,64.4,158.8,65.6,157.7,66.3z M156,61.1
		c0.8,1,0.8,2.1-0.2,2.9L156,61.1z M157.7,61.6c-0.3-0.7-0.4-2-0.1-2.8C158.9,59.2,158.5,60.7,157.7,61.6z M144.5,59l1.3,1.1
		c-2.3,0.3-3.7,0-6.1,0.7c-3.5,1-11.2,6.2-12,7.8l-1.7,0.9c-0.2,0.7-8.6,8-9.6,8.5c-0.3,1.1-8.1,7.3-9.7,8
		c-0.4,1.6-10.2,6.4-14.1,7.2c-1.9,0.4-5.7,0.1-6.4,0.3c2,1.2,9.3,1.6,11.7,1.4c4.6-0.3,31.9-4.8,33.4-5.7c8.5-1.5,17-7.9,18.7-17
		c0.9-4.8-0.4-6.2-0.7-10.3c2.3,1.4,2.2,7.1,2,9.7c-0.3,3-1.9,5.9-3.4,8.5c-3.8,6.2-11.1,7.9-14.2,9.7c5.9,0.4,12.9-5.1,14.2-5.3
		c0.1-0.1,3.8-3.3,4.2-3.6c1.1-0.9,3-3.4,3.7-3.8c0.7-1.8,1.6-2.4,2.3-4.8c-1-0.3,0.2,0.3-0.9-0.2c1.2-2.7,1.6-5.1,1.9-8
		c0.3-2.2,0.1-8.8-1.1-10.5l0.1-1.3c-0.9-1.2-1.1-3.5-2.7-5.3c-0.6-0.7-1.3-1.3-2-1.8c-0.9-0.6-2.1-0.9-2.5-1.3
		c-1.9-0.2-1.9-0.2-3.7,0.1c-2,0.3-5.9-1.7-9.3,0.4l1,0.6c2,0,5,1.2,5.5,3.4c-1.4-0.1-2.8-2.1-4.2-2.1c1.6,1.4,3,2.7,3.9,4.7
		c0.8,1.9,1.3,5.6-0.2,7.3L144.5,59L144.5,59z M143.1,74.1c0.9-1.1,1-3.9,2.7-4c0.4,1.9-1.2,3.3-1.9,4.5
		C142.6,74.7,143.4,74.8,143.1,74.1L143.1,74.1z M145.5,76.2c1.7-3.3,2.1-6.4,3.2-6.7c0.9,2.8-3.8,11.5-6.8,11.9
		c0-1.1,2.5-3.1,3.1-4.6L145.5,76.2L145.5,76.2z M115.8,85.3l0.5,0.1l0.6,0.7c-1.1,0.7-2.3,0.3-2.7-0.8L115.8,85.3z M124.4,85.1
		l1.9-0.1l0,0.8c-0.9,0.2-1.8,0.6-2.8-0.2L124.4,85.1z M132.5,85.7c2-0.1,3.9-2.3,6-2.1c-0.4,1.9-5.5,3.9-7.3,3.8
		c-0.6-0.4-0.3,0.5-0.6-0.5C131.3,86.4,131.8,86.4,132.5,85.7L132.5,85.7z M194.8,93.8c2.5-1.8,2-1.2,3.8-3.8c2,2.2,1.3,1.9,3.9,3.8
		c-1.5,1.7-0.7-0.6-3.8,3.9c-0.7-0.6-1-1.6-1.7-2.2C196.4,94.8,195.4,94.4,194.8,93.8L194.8,93.8z M198.8,101.2
		c1.4-0.6,0.1,0,1.1-2.5c0.3-0.8,0.8-1.5,1.5-2.1c2.7-2.5,4.8-1.4,4.6-2.8c-0.2-1.2-1.5-0.3-3.6-1.7c-2.9-1.9-2.9-4.8-3.1-5.1
		c0,0,0.2-0.8-0.9-0.3c-1.6,0.8,0.7,4.4-6.1,6.4c-1.2,0.4-0.6-0.1-0.9,0.6c-0.9,2.1,4.8,0,6.3,5.9
		C198.1,101.1,197.5,101,198.8,101.2L198.8,101.2z M191.5,70.9c0.6,0.6,1,1.6,1.7,2.2c0.6,0.7,1.7,1.1,2.2,1.7
		c-2.6,1.8-2,1.2-3.8,3.8c-0.6-0.6-1-1.5-1.6-2.1c-0.6-0.7-1.5-1.1-2.3-1.7C189,73.2,188.3,75.5,191.5,70.9L191.5,70.9z M188.9,77.8
		c0.7,0.4,1.2,1.2,1.5,2c0.6,1.6-0.2,2.1,1.3,2.3c1.1-0.2,0.4-0.7,1-2.4c0.3-0.8,0.8-1.6,1.5-2c0.6-1,1.1-1.3,2.2-1.8
		c1.6-0.6,2.3,0,2.5-1.4c-0.4-1,0.2-0.4-1.3-0.8c-2.2-0.6-4-1.8-4.9-4.1c-0.6-1.6,0.1-2.1-1.3-2.4c-1.1,0.5-0.3-0.4-0.8,1.1
		c-1.3,4.2-1.8,3.8-5.5,5.6l0,1.4C186.8,76.4,187.7,75.9,188.9,77.8L188.9,77.8z M197.8,64.3c-0.3-1.9-0.4-7.2,0-9.1
		c2.1,0,2.5,0.6,2.6,2.6c0.1,1.6,0.2,3.5-0.1,5.1L197.8,64.3L197.8,64.3z M196.1,64.3c-3.1-1-2.6-2-2.6-4.9c0-2-0.1-4.6,2.7-4.2
		C196.4,57.4,196.7,62.3,196.1,64.3z M192.2,56.2l0.1,0.8l0,6.5c0.8,0.5,3.9,2.6,4.6,2.7c1.4,0,3.2-2.3,4.7-2.4
		c0.3-2.2,0.8-8.1-1.4-9.2c-1.1-0.6-3.6-0.5-4.9-0.4C193,54.4,193.4,55,192.2,56.2L192.2,56.2z M219.2,101.3c-0.6-2.2-0.3-6.7-0.2-9
		c2.9-0.8,2.8,2.3,2.8,4.2C221.8,99.4,222.3,100.2,219.2,101.3z M217.6,92.2c0.1,2.4,0.5,6.9-0.2,9c-3-1.1-2.6-1.6-2.6-4.6
		C214.8,94.7,214.6,91.5,217.6,92.2z M213.7,100.5l4.6,2.8l4.7-2.8c0.1-1.1,0.2-5.7,0-6.8c-0.5-3.7-8.7-3.5-9.3-0.2
		C213.5,94.4,213.5,99.5,213.7,100.5z M227.3,37.9L229,36l1.9,1.8l-1.8,1.9C228.2,38.8,228.1,38.7,227.3,37.9L227.3,37.9z
		 M223.4,43.2l0.7-0.1l9.9,0c0.5-0.5,0.3-0.1,0.4-0.8l0-9.9l-10.8-0.1C223.6,32.2,223.4,43.2,223.4,43.2z M224.9,41.8l0-3.1
		c1.7,0.1,2.5,1,3.2,2.4c-0.1,0.9,0.3,0.4-0.5,0.6L224.9,41.8L224.9,41.8z M230,41.1c1-1.1,1-1.9,3-2.4l0,3l-2.9,0.1L230,41.1
		L230,41.1z M233,37.1c-2.9-1.6-1.3-0.6-3.2-2.8c0.4-1.1-0.1-0.4,0.6-0.7l2.6,0.1L233,37.1z M228.3,34.5c-1.1,1-1.4,2.4-3.4,2.5
		l0.1-3.5l3.2,0.2L228.3,34.5L228.3,34.5z M80.6,4.7c0.2-1.6,1.4-2.8,3-2.9l0,2.9C83.6,4.7,80.6,4.7,80.6,4.7z M75.6,1.8
		c1.7,0,2.9,1.3,3.2,3l-3.2-0.1L75.6,1.8z M74,6l11,0.1c0.1-2-0.2-4,0.2-5.8l-4,0c-0.2,1.1,1.6-0.7-1.6,2.4
		c-0.3-0.3-0.8-0.9-1.2-1.3c-1.3-1.5,1.8-1.3-4.3-1L74,6L74,6z M229.2,85.9c0.8,0.7,0.9,1,1.9,1.8l-1.9,1.8l-1.9-1.9L229.2,85.9
		L229.2,85.9z M229.6,92.4c0.8-0.6,0.3-1.5,1.5-2.6c1-1,1.9-0.9,2.8-1.5l0-1c-0.9-0.5-1.8-0.4-2.7-1.3c-1-1-0.8-2.1-1.5-2.8l-0.8,0
		c-0.7,1-0.3,1.7-1.5,2.8c-1.2,1.2-2.9,0.8-2.6,2c0.2,1,1.8,0.5,2.9,1.8C228.8,91.3,227.6,92.4,229.6,92.4L229.6,92.4z M206.3,88.7
		c2.1,1.9,0.1-1.2,4.8,0.6l0.8-0.9c-1-2-1-1.9,0-4l-0.8-0.9c-3.4,1.4-2.3,0.1-4.3,0.1c-1.1,1.4-0.4,0.6-0.1,2.2
		C207.2,87.5,206.4,87.5,206.3,88.7L206.3,88.7z M88.7,7.6c1.1-0.2,1-0.7,0.9-1.7l1.9,0.1c0,1.3-0.5,1,0.4,2.1
		c1.3-0.6,0.8-0.9,0.7-2.1l1.5-0.2c0.5,1-0.2,0.8,0.6,1.9c1.8-0.2,0.6-2.2,0.4-3.3c-1.1-0.1-1.8,0.2-2.9,0.2c-1.1,0-2.2-0.2-3.2-0.2
		C88.5,5.5,87.8,6.4,88.7,7.6L88.7,7.6z M216.6,81.6c1.3-0.4,1.1-0.7,1-1.9l1.9,0.2c-0.2,1.2-0.5,1.6,0.6,2.1c0.9-0.8,0.6-0.9,0.4-2
		l1.7-0.3l0.3,1.9c2.1-0.7,0.6-1.6,0.6-3.3c-1.3-0.2-2,0.2-3.3,0.2c-1.1,0-2.1-0.2-3.2-0.3C216.7,79.9,216,79.6,216.6,81.6
		L216.6,81.6z M195.7,44.6c1.2-0.9,0.4-0.7,0.9-1.9l1.6,0.3c0,1.2-0.6,1.4,0.7,2.1c0.8-0.8,0.5-1.1,0.5-2.1l1.5-0.2
		c0.5,1-0.2,1.2,0.9,1.9c1.3-0.9,0.4-2,0-3.4c-1-0.1-1.8,0.2-2.9,0.2c-1.1,0-2.2-0.3-3.2-0.2C195.3,42.5,194.4,43.8,195.7,44.6
		L195.7,44.6z M125.8,51c0.3,1.8,0.2,2.5,2.4,2c0.7-2.2-0.3-2.6,0-4.4l-0.9-2.2C126.3,47.4,126.7,49.7,125.8,51L125.8,51z
		 M111.9,51.3c0.3,1,0.6,2.5,2.1,1.7c1.2-0.6,0.4-2.2,0.5-3.4c-0.7-1.1-0.3-2.3-1.2-3.3C112.4,47.6,112.7,50,111.9,51.3z
		 M121.5,58.7c0.1-1.2-0.4-5.3-1.2-6.2C119.7,53.2,117.3,61.6,121.5,58.7z M196.4,51.5c-2.1,0.2-0.4,0.1-1.6-1.3
		c-0.9,0.7-0.4,1.6,0.1,2.5c1.4,0.1,2.6-0.1,4.2,0.1c0.6-0.7,1-1.7,0.2-2.5c-1.1,0.5-0.2,0.5-0.7,1.4l-0.9-0.1
		c-0.7-1.1,0.3-0.7-0.7-1.7C195.9,50.8,196.7,50.5,196.4,51.5L196.4,51.5z M177.5,15.8c0.9-0.5,0.2-0.1,0.8-0.9
		c0.1-1.2,0.4-0.7-0.3-1.6c-0.9,0-0.4,0.6-0.8,1.3l-0.9-0.1c-0.5-1.1,0.2-0.6-0.6-1.6c-0.8,0.3-0.6,0.6-0.5,1.4l-1,0.3
		c-0.8-1,0.4-0.5-0.8-1.4c-0.8,0.9-0.4,1.4,0.1,2.5C174.9,15.7,175.9,15.4,177.5,15.8L177.5,15.8z M216.7,15.8
		c1.2-0.4,2.6-0.1,3.8,0l0.6-1.3l-0.3-1.1c-1,0.3-0.2,0.1-0.7,0.6c0,0-0.1,0.1-0.1,0.2c0,0-0.1,0.1-0.1,0.2c-1,1.1,0.9-0.2-0.4,0.2
		c-1.7-0.8,0.2-0.1-1.1-1.7c-1.1,1.1,0.3,1-1.1,1.7c-1.1-0.4-0.3-0.9-1.4-1.3C215.4,14.2,215.6,15.5,216.7,15.8L216.7,15.8z
		 M185.2,65.5c1.6,0.2,1.1-0.2,2.1-0.3c0.2-1.6,0-2.8-2-2.1L185.2,65.5L185.2,65.5z M185.9,99.6c-0.3,0.8-0.2,1.5-0.1,2.4
		C188.8,102.7,188.4,98.7,185.9,99.6z M106.9,92.1c1.2-0.7,6.2-1.5,7.8-1.6C113.8,92.2,108.7,92.9,106.9,92.1z M118.2,90.4
		c0.4-0.7,0.2-0.5,2-0.9c1.8-0.5,5.6-1.8,6.6-1.2C124.9,89.7,120.6,90.8,118.2,90.4z M100,28.3c-0.3,1.1-1.1,1.4-1.8,2.2
		c-0.6,0.6-1,1.6-1.5,2.3c-0.7,1.2-2.3,4.5-2.7,5l-1.1,3.6c0.1,1,0.3,0.6-0.3,1.4c0.2,1.2-0.2,2.7-0.2,4c0,1.3,0.1,2.7,0.1,4
		c0,2.8,0.2,5.6,0.2,8.4l0,0.9l-0.1,29.9l0.8-0.4l0.1-4.4l0.2-12.5c0-2.3-0.4-10.7,0.1-12.2c-0.6-1.3-0.6-13.3-0.4-15.6l0.3-2.2
		l0-0.1l1.1-3.9c0.8-3.3,4.4-8.5,6.9-10.7c7.5-6.7,17.2-7.3,26.9-7.5c2.6-0.1,15.6-0.4,17.1,0.3c2.6-0.8,11.9,0.9,14.7,1.8
		c3.1,1,9.1,3.6,10.4,6.5c0.9,0.4,2.3,2.2,2.9,3.1c1.5,2.5,2.5,4.2,3.5,7c1,2.6,2.1,10.5,1,12.8c0.7,1.6-0.1,11.3-0.1,13.8
		c-0.1,4.7,0.1,9.5,0.1,14.2c0,4.4,1,21.9,0.3,24.7c-0.6,0.6-41.4,25-42.1,25.2c-1.3,0.4-18.7-10.7-21.2-12.1
		c-3.6-2-7.1-4.2-10.6-6.4c-1.8-1.1-3.5-2.1-5.3-3.2c-1.5-0.9-3.9-3.1-5.5-2.5c1.6,1.4,5.1,3.2,7.1,4.4c3.6,2.2,21.2,12.3,22,13.4
		c1.2,0.2,5.7,3.2,7.1,4c1.1,0.7,2.3,1.3,3.4,2c1.7,1,2.2,1.7,4,0.6c5.4-3,41.7-24.7,41.9-25.4c1-4.3-1-15.3,0.1-19
		c-1-2.1-0.2-27.4-0.2-31.9l0.2-4.6c0.1-3.1-0.1-5.7-0.8-8.8c-0.5-1.1-0.7-2.7-1.3-3.9c-0.6-1.2-1.6-2.5-1.7-3.7
		c-1-0.7-3-3.9-4.3-5.1c-1.8-1.7-2.9-2.8-5.3-4c-4.9-2.5-9.1-3.4-14.6-3.9l-5.2-0.3l-2.5-0.1c-11.2,0-30.8-1.5-40.2,5.8
		c-0.6,0.5-1.4,0.9-1.9,1.4C100.8,27.4,100.9,27.8,100,28.3L100,28.3z M187.4,115.7c0-1.6,1.6-2.8,3-2.9l-0.1,2.9L187.4,115.7
		L187.4,115.7z M182.3,112.7c1.6,0,2.8,1.5,3.2,3l-3.2-0.1L182.3,112.7L182.3,112.7z M184.5,111.9c0.3-0.6,1.1-1.2,1.7-2l1.9,2.1
		l-2,1.6C185.5,112.8,185.3,112.7,184.5,111.9L184.5,111.9z M187.3,107.6l3.1,0.1l0,3.3C188.7,110.8,187.3,109.3,187.3,107.6
		L187.3,107.6z M180.9,113.9l0,3.1l10.8,0.1l0.1-10.8l-5.9,0c0,2.7,0.4,3.1-1.9,4.5C182,111.8,180.9,111.7,180.9,113.9L180.9,113.9z
		 M209,111.7c2.2-1.1,2.4-2,3.8-3.7c1.8,1.7,0.9,1.9,3.9,3.7c-0.4,0.5-1.5,1.2-2.1,1.8c-1,0.9-1,1.4-1.7,2.1
		c-0.6-0.7-1.1-1.6-1.6-2.2C210.7,112.8,209.6,112.4,209,111.7L209,111.7z M205.6,112c0.5,1-0.5,0.3,1.1,0.7c2,0.6,4.1,1.5,5,4
		c0.2,0.5,0.2,1.1,0.3,1.5c0.4,1.3-0.3,0.8,1.1,1c1.1-0.2,0.2-2.3,2.3-4.6c1.7-1.8,3.2-1.4,4.8-2.3l-0.1-1.1
		c-3.8-1.2-5.2-0.8-6.7-6.7c-2.7-0.1-0.2,0.9-3,4.4c-0.6,0.7-1.3,1.2-2.2,1.6c-0.7,0.3-0.8,0.2-1.5,0.4
		C205.2,111.3,205.7,110.6,205.6,112L205.6,112z M216.2,130.8c2-1.7,2.3-1.5,3.8-3.8c1.6,1.4-0.4,0.8,3.9,3.8
		c-0.6,0.6-1.4,1.1-2.1,1.7c-0.9,0.9-1,1.5-1.7,2.1C217.1,130.5,217.9,132.5,216.2,130.8L216.2,130.8z M220.2,138.2
		c1-0.5,0.5-1,1-2.3c0.3-0.8,0.8-1.6,1.3-2.2c1.8-1.9,3.1-1.4,4.8-2.3l0-1.1c-3.5-1.2-5.3-0.8-6.7-6.7l-1.2,0c-0.7,2-0.4,3-2.2,4.8
		c-0.5,0.5-1.5,1.1-2.2,1.3c-1.2,0.4-2.5,0-2.3,1.3c0.2,1-0.2,0.4,1.1,0.8c1.5,0.4,2.1,0.3,3.6,1.9c1.6,1.7,1.4,2.2,1.8,3.6
		C219.6,138.5,218.9,138,220.2,138.2L220.2,138.2z M135.7,91.2c0.4,11,1.5,8.5,3.7,12.5c1.1,2,0.3,2.5,0,4.4l7.5,0
		c-0.4-1.2-0.7-1.1-1.8-1.2c-1.8-0.1-1.2,0-2.5-1.2c-8.5-8-4-10-4.5-15.1L135.7,91.2L135.7,91.2z M83.8,42.8l0.1,1.5
		c0.9,1.2-0.4,0.6,1.3,1c0.6-1.1,0.2-2.1,0.3-3.6c-2.2-0.9,0,0.3-2-1.9c-0.8-0.9-1.5-1.2-2.4-1.9c1.6-1.7,0.8,0.4,3.8-3.8l1.3,1.7
		l0.5-1.1L86.6,34c-0.4-0.8-0.5-1.1-0.7-2c-0.4-1.6,0.1-1.5-1.4-1.5c-0.6,0.2-0.9,4.9-4.8,6.2c-1.7,0.6-2.1-0.2-2.2,1.5
		c0.6,0.6,2.8,0.9,3.9,1.7C82.9,40.8,82.8,41.5,83.8,42.8L83.8,42.8z M163.4,124.8c0.3-0.4,1.5-1.6,1.8-1.8l1.9,1.9l-1.9,1.9
		C164.9,126.4,163.6,125,163.4,124.8z M160.6,125.3c1.1,0.7,1.7,0.2,2.9,1.6c1.5,1.7,0,2.5,2.2,2.5c0.5-0.9,0.6-2.2,1.5-2.9
		c1.4-1.3,2.6-0.2,2.7-2c-0.5-0.8-1.1-0.5-2.2-1.1c-0.8-0.5-1.1-1.3-1.7-2C164.7,122.1,160.7,124.1,160.6,125.3L160.6,125.3z
		 M229.7,122.7l1.6,0.2l0,1.4l-1.5,0L229.7,122.7L229.7,122.7z M228.3,126.3c0.8-0.1,1-0.5,2.1-0.6c1.2,0,1.4,0.5,2.4,0.6
		c1.2-1.3,0-0.8-0.1-2.6c-0.1-2.1,1.4-1.4-0.1-3c-0.9,0.2-1.6,0.7-2.7,0.5c-0.8-0.2-1.8-1.1-2.1,0.1c-0.2,0.8,0.7,1.1,0.4,2.6
		C227.9,125.6,227,124.9,228.3,126.3L228.3,126.3z M80.3,11.6l1.4,0.1l-0.2,1.6l-1.1-0.1C80.4,13.2,80.3,11.6,80.3,11.6z M78.4,13.6
		c-0.4,2.7,0.9,1.3,2.3,1.1c1.3-0.2,1,0.1,1.9,0.4c1,0.3,0.2,0,1.3-0.3c-0.3-1.2-0.8-1.2-0.7-2.6c0.1-1.1,0.5-1.1,0.6-2.1l-0.5-0.5
		c-2,0.1-1,1.5-4.2,0l-0.9,0.8C78.5,11.5,79.5,12.6,78.4,13.6L78.4,13.6z M185.3,84.5l0,2.5c0.9-0.4,0.4-0.3,0.7-0.5l0.5-0.3
		c0,0,0.1-0.1,0.2-0.1l1.6,1.7l-1.8,1.9l-1-1.1c-0.1,1.2-0.2,3.2,0.7,3.8c1.8-0.1,0.7-0.9,1.9-2.5c0.9-1.2,2-1,3-1.6l0-1.1
		c-1.5-0.6-3.2-0.8-3.4-2.8c-0.8-0.9,0-1.3-1.2-1.3C185.4,83.2,186.1,83.5,185.3,84.5L185.3,84.5z M185,121.3c0,1,0.5,0.8,0.6,2.1
		c0,1.5-0.6,1.2-0.6,2.4l0.5,0.5c2-0.1,1.3-1.4,4.3,0.1l0.8-0.8c-1.5-4.3,1.1-3.6-0.4-4.7c-1.1-0.4-0.8,0.3-2.3,0.4
		c-1.4,0-1.2-0.5-2.4-0.5L185,121.3L185,121.3z M218.5,71.3l4.5,0.1l0.8-1.7l-0.3-1.5c-1.4-0.1-0.8,0.6-1.2,1.7l-1.6-0.3
		c0.1-1.1,0.5-1.5-0.6-2.1c-1.4,1.3-0.2,1-0.8,2.2L218,70c-0.6-1.3,0.3-1.2-1-1.9c-1.1,1.1-0.4,2,0.1,3.4L218.5,71.3L218.5,71.3z
		 M195.8,118.5c0.7-0.7,0.5-0.9,0.6-1.8l1.9,0.2c-0.1,1.1-0.5,1.6,0.6,2.1c0.9-0.7,0.6-1.1,0.5-2.1l1.5-0.2c0.8,1.1-0.4,0.7,0.8,1.9
		c1.4-0.7,0.6-2.3,0-3.4c-2.6,0.3-3.1,0.4-5.8,0C195.2,116.2,194.4,117.8,195.8,118.5L195.8,118.5z M237.5,19.9
		c0.8-0.8,0.3,0.1,0.5-0.9c0.3-1.3-0.2-0.9-0.3-0.9l-3.7,1.1l0.1,1.2l3.3,1L237.5,19.9L237.5,19.9z M237.5,94l0-0.3l0-1.5l-3.5,1.2
		l0,1.1l3.5,1L237.5,94z M78,27.5c0.3,1.6,3,1.4,2.7-0.5C80.4,25.2,77.6,25.6,78,27.5z M228.2,137c-1.9,0.7-0.6,3.4,1.2,2.4
		C230.7,138.7,230.1,136.3,228.2,137z M228.5,99.7c-1.9,1.3,0.2,3.3,1.6,2.2C231.2,101.1,230.3,98.6,228.5,99.7z M198.3,110.5
		c-1.9,0.8-0.7,3.6,1.2,2.4C200.8,112.1,199.7,109.9,198.3,110.5z M208.9,138.9c0.8-2.2-0.9-3.1-2.1-2
		C205.9,137.8,206.6,139.8,208.9,138.9z M206.9,100c-2,0.9-0.5,3.1,1,2.5C209.5,101.9,208.7,99.2,206.9,100z M219.2,150
		c2.8,0.7,2.6-2,1.4-2.4C219.3,147,217.9,148.3,219.2,150z M164.1,138.9c2.3,0.9,3.1-1.1,2.1-2.1C164.9,135.6,163.4,137,164.1,138.9
		z M218.8,74.1c-0.3,2.9,2.9,2.8,2.6,0c-0.9-0.8-0.8-0.7-2-0.6L218.8,74.1z M85.6,57.7c0.4-0.8,0.4-0.8,0-1.6
		C84.2,56.3,84.1,57.3,85.6,57.7z M237.5,124.4l-0.4-0.1c-0.2,1-0.1,1.5,0.4,2.4L237.5,124.4L237.5,124.4z M150.9,49.3
		c-2.2-0.6-2.1-2.2-0.6-3.4c1.2,0.6,2.4,1.2,2.3,2.5c-1,0.1-0.1,0.1-1.2-0.3L150.9,49.3L150.9,49.3z M208.7,78.7
		c0.1-1.5,1.5-2.8,3-2.9l0,2.9L208.7,78.7L208.7,78.7z M203.6,75.8c1.7,0,3,1.3,3.2,3l-3.2-0.1L203.6,75.8L203.6,75.8z M207.7,73
		c0.2,0.1,1.8,1.7,1.9,1.9l-1.8,1.7c-0.7-0.7-1.4-1.3-1.8-2L207.7,73L207.7,73z M203.6,70.6l3.2,0c0,1.6-1.5,3.2-3.2,3.3L203.6,70.6
		z M211.7,70.7l-0.1,3.3c-1.6-0.3-2.8-1.6-3-3.4L211.7,70.7z M202.5,80l10.3,0l0-10.6l-10.4,0L202.5,80L202.5,80z M229.1,73.6
		c-0.8,0.6-1.4,0.2-2.2,0.8l0,0.8c1,1,3.7,0.5,4.7,2.4c1.4,0.8,1.7,3,2,4.4l1.6,0c-0.4-3,1.6-3.6,2.4-5.3l0-1.5
		c-1.5,0.5-2.3,2.3-3.3,3.3c-1.6-2-1.4-2.3-3.8-3.8c0.5-0.5,1.4-1,2.1-1.7c0.6-0.7,1.2-1.5,1.8-2.3c1.1,1.4,1.6,2.3,3.2,3.4l0.1-1.5
		c-0.5-0.9-1.3-1.3-1.9-2.6c-0.9-1.8,0-2.7-1.7-2.8C232.7,68.5,233.4,72.5,229.1,73.6L229.1,73.6z M233,112.8l0,2.9l-3,0.1
		C230.1,114.4,231.9,112.3,233,112.8z M228.1,115.9c-1-0.3-2.2-0.3-3.1,0l-0.1-3.1C226.8,112.8,228,114,228.1,115.9L228.1,115.9z
		 M224.9,107.5l3.3,0.1c-0.1,1.5-0.6,1.7-1.2,2.7c-1,0.3-0.9,0.5-2.1,0.5L224.9,107.5z M228.1,110.7l1.2-0.6
		c0.6,0.9,0.4,1.1,1.5,1.2l0.2,0.6c-1,0.9-0.9,0.6-1.6,1.7c-0.7-0.3-1.4-1.1-2-1.8L228.1,110.7L228.1,110.7z M232,110.8
		c-1-0.9-2-1.3-2.1-3.2l3.1,0.1l-0.1,3.3L232,110.8L232,110.8z M85.5,19.1l0.1,0.3l0,7.1c0.9,0.7,2.6,2.2,3.7,1.7
		c0.5-1.6-1.1-1-2.4-2.4c-0.3-2.3-1-8,2.7-7.6l0.1,8.9c2-2,1.1-4,1.4-8.9c2.6-0.3,2.5,1.5,2.9,3.4l0.6-0.2c0.9-1.8,0.5-1.6-0.1-3.4
		c-1.9-1-2.7-1.1-5-1C86.3,17.3,87.2,17.6,85.5,19.1L85.5,19.1z M206,50.8c0.7-0.7,1.2-1.2,1.8-1.8l1.9,1.8l-1.8,1.9L206,50.8
		L206,50.8z M206.7,47.4c0,0.9-0.6,1.6-1.4,2.1c-1.7,1-2-0.2-2.1,1.8c0.9,0.6,1.9,0.4,2.9,1.5c1.3,1.4,0.4,2.3,1.8,2.7
		c1.3-0.4,0.6-1.5,1.7-2.8c0.8-0.9,2.1-0.9,2.9-1.5l0-1c-2.7-1.1-3.4-0.9-3.9-4.2l-1.3,0.2C207,47.2,207.2,46.8,206.7,47.4z
		 M99.3,13.9c0.1-0.2,1.7-1.8,1.9-1.9l1.8,1.8c-0.6,0.7-1.3,1.5-2,1.8C100.2,14.5,100.2,14.7,99.3,13.9z M100.2,16.6
		c1-0.5,1.9-1.1,2.8-1.5c1.2-0.5,2.6-0.6,2.8-1.8c-1.1-1-2.5-0.3-3.5-2.5c-0.4-1-0.2-2-1.3-1.7c-1.3,0.3-0.3,2.2-2.7,3.4
		c-1.2,0.6-1.9,0.1-1.7,1.3c0.2,1.1,0.7,0.5,1.9,1.2C99.2,15.4,99.5,16.1,100.2,16.6L100.2,16.6z M195,32.7l0.7,1.8
		c2.7-0.2,3-0.4,5.8,0l0.9-1.8c-0.1-2.3-1.3-2.4-1.3,0.2l-1.8-0.3c0.1-1,0.5-1.9-0.8-2c-0.5,0.7-0.4,1.3-0.3,2.1l-1.4,0.2
		c-0.8-1,0.1,0-0.3-1.1C195.7,30.2,195,31.1,195,32.7L195,32.7z M234.9,63.7l2.6,1.3l0-1.1c-1.7-2.1-1.4-0.6-1.4-4.2
		c0-2.6-0.3-2.8,1.4-4.5l0-0.9c-1.9,0.4-2.5,1.3-2.6,3.2C234.9,59.4,234.9,61.7,234.9,63.7z M229.8,65.1c1-2.2-1.5-2.9-2.3-1.7
		C226.7,64.8,228.2,66.4,229.8,65.1z M229.8,28.2c1.4-1.5,0.4-3-1-2.7C227.7,25.8,226.7,28.4,229.8,28.2z M95.5,117l2.1,0l-2.1-1.4
		L95.5,117z M57.8,99.6c-1.7,0.8-0.4,3.2,1.3,2.4C60.7,101.3,59.5,98.7,57.8,99.6z M59.8,27.5l0-1.2C57.5,22.5,55.2,30.5,59.8,27.5z
		 M66.2,51.3l0.3,0.9l0.4,0.6c1.3-0.3,2.9-0.5,3.9,0.2c0.7-0.6,0.5-0.2,0.7-1.3c0.3-1.1,0.4-0.7-0.3-1.4c-1.1,0.4-0.3,0.5-0.7,1.4
		l-1.2-0.4l0.2-1L68.7,50c-0.6,1,0.2,1.7-0.9,1.5c-1.7-0.3,0.3-0.6-1.4-1.3L66.2,51.3L66.2,51.3z M69.7,106.8l-1.2,0.1
		c-0.5-1,0.2-1.2-0.9-1.9c-1.2,0.9-0.5,2.4,0.1,3.4c1.1-0.1,1.9-0.3,3-0.3c1,0,2,0.3,2.9,0.2c0.4-1.4,1.3-2.4,0-3.4
		c-1.1,0.7-0.4,0.8-0.9,1.9l-1.6-0.3c0.1-1.2,0.6-1.5-0.6-2.1C69.2,106.1,70.5,105.6,69.7,106.8z M67.8,118.5
		c0.7-0.7,0.5-0.9,0.6-1.8l1.8,0.2c-0.1,1.1-0.5,1.9,0.8,2.1c0.5-0.7,0.3-1.3,0.3-2.1l1.5-0.2c0.8,1-0.4,0.7,0.8,1.8
		c1.5-0.7,0.6-2.3,0-3.4c-2.6,0.2-3.1,0.4-5.8,0C67.1,116.3,66.3,117.8,67.8,118.5L67.8,118.5z M56.9,121.3c0.1,1.1,0.8,1,0.5,2.6
		c-0.3,1.6-1.3,1.1,0,2.4c2.1-0.1,1.2-1.5,4.3,0.1l0.8-0.8c-1.5-4.4,1.3-4.1-0.6-4.7c-0.8-0.3-1,0.6-2.6,0.4
		C57.9,121,58,120.1,56.9,121.3L56.9,121.3z M58.9,48.6l1.8,0l0,1.9l-1.8-0.1L58.9,48.6z M56.9,51.7l0.3,0.4l0.1,0.3
		c1.5-0.1,1.3-0.7,2.8-0.5c2,0.3,0.4,0.9,2.5,0.1c-0.3-2.6-1.3-1,0-4.5l-0.9-0.8c-2.2,1.1-1.8,0.9-4,0l-0.9,0.9
		C58.1,50.8,57.2,49.1,56.9,51.7L56.9,51.7z M58.5,11.9l1.8,1.9c-0.9,0.8-1.1,1.2-1.8,1.8l-1.8-1.9C57.1,13.4,57.9,12.6,58.5,11.9z
		 M56.9,11.1c-0.2,1.3-1.8,1.9-3.1,1.9l0,1.4c4.1,1.3,2.5,1.3,4.1,4l1,0c0.8-1.2,0.7-3.6,3.4-3.6c0.8-0.6,0.7-0.3,0.8-1.5
		c-0.8-0.6-1.9-0.5-2.9-1.5c-1.3-1.4-0.4-2.3-1.8-2.7C56.8,9.6,58.4,10,56.9,11.1L56.9,11.1z M56.2,149.3c1.2,0.6,3.7,1,5.1,0.8
		c-0.5-0.8-0.8-0.7-1.6-1.3c2.1-1.6,2.2-1.5,3.8-3.8c0.6,0.5,1.1,1.4,1.7,2.1c0.7,0.8,1.4,1.1,2.2,1.7c-0.8,0.7-1.1,0.5-1.6,1.3
		c1.3,0.2,3.9-0.2,5.1-0.8l0-1.1c-2.2-0.9-2.6-0.2-4.7-2.2c-1.6-1.5-1.3-3.4-2.2-4.6l-1,0c-0.6,1.8-0.7,4.9-4.5,6.2
		C56.7,148.2,56.2,147.5,56.2,149.3L56.2,149.3z M69.8,138.3c-0.5-1.8-0.4-7.2-0.1-9.2c3.7,0,2.9,5.2,2.6,7.8L69.8,138.3z
		 M65.5,136.8c-0.1-2.2-1.1-8.4,2.7-7.5c0.2,2.8,0.3,6.2-0.1,9C67.1,137.9,66.3,137.5,65.5,136.8L65.5,136.8z M64.5,129.8
		c-0.5,1.7-0.3,5.5-0.3,7.5c0.5,0.4,4.1,2.7,4.5,2.8c0.9,0.1,3.8-1.9,4.8-2.6c0.4-1.9,0.3-6.4-0.4-8.3c-2.1-1.2-1.7-1.2-4.6-1.2
		C66.6,128.1,65.8,128.1,64.5,129.8L64.5,129.8z M59.3,41.7c0.2-1.7,1.4-2.7,3-2.9l-0.1,3C62.2,41.7,59.3,41.7,59.3,41.7z
		 M54.2,38.8c1.7-0.1,3,1.3,3.2,2.9l-3.2-0.1C54.2,41.6,54.2,38.8,54.2,38.8z M56.5,37.9c0.2-0.2,1.8-1.8,1.9-1.9
		c0.6,0.7,1.2,1.2,1.8,1.8l-1.9,1.8L56.5,37.9L56.5,37.9z M62.3,33.7L62.2,37c-1.6-0.3-2.9-1.6-3-3.3L62.3,33.7z M54.2,33.6l3.2,0
		c-0.1,1.7-1.5,3.2-3.3,3.3L54.2,33.6L54.2,33.6z M63.7,43.2l0-11l-10.9-0.2l0,10.9C52.8,43,63.7,43.2,63.7,43.2z M6.1,147.5
		c-1.7,0.9-0.5,3.2,1.3,2.4C8.8,149.3,7.8,146.7,6.1,147.5z M14.4,27c0.1,1.7,3.3,1.7,2.7-0.5C16.7,24.9,14.3,25.2,14.4,27z
		 M15.1,99.6c-1.5,0.8-0.6,3.2,1.3,2.4C18,101.4,16.9,98.7,15.1,99.6z M14.8,136.9c-1.9,0.8-0.7,3.7,1.2,2.4
		C17.4,138.5,16.3,136.3,14.8,136.9z M16.5,65.1c0.9-1.5-1.3-3.3-2.3-1.8C13,65.1,15.6,66.5,16.5,65.1z M2.7,89.7c0.5,0,4,0,4.5,0
		l0.2-0.8c0.5-0.9,0.4-0.9-0.2-1.6c-1.4,1.3,0.7,1.5-1.6,1.3c-0.5-1.1,0.4-1-0.8-1.6c-0.8,1.1,0,0.6-0.5,1.6
		c-2.5,0.1,0.1-0.4-1.6-1.3C1.8,88.1,2.2,88.6,2.7,89.7L2.7,89.7z M25,118.6c0.9-0.8,0.7-0.7,0.6-1.9l1.7,0.1
		c0.3,1.2-0.5,1.2,0.7,2.2c0.9-0.8,0.6-1.1,0.6-2.2l1.6-0.2c0.4,1.1-0.5,1.1,0.8,1.9c1.3-1,0.5-2,0-3.4c-1.2-0.1-1.8,0.2-3,0.2
		c-1,0-2-0.2-3-0.3C24.5,116.1,23.7,117.8,25,118.6L25,118.6z M0,108.5c0.3,1.3,2.2,2.5,3.3,3.3c-0.9,1.1-2.8,1.6-3.2,3.3l0,4
		c1.4-3.4,0.6-5.2,6.8-6.7l0-1.2c-1.7-0.8-2.8-0.4-4.5-2c-1.6-1.5-1.6-2.8-2.2-4.7L0,108.5L0,108.5z M16.3,122.7l1.5,0l0,1.5l-1.6,0
		L16.3,122.7L16.3,122.7z M14.2,121.4c0,0.7,0.5,1,0.6,2c0.1,1.3-0.6,1.4-0.6,2.3l0.7,0.7c3.6-1,1.4-0.4,4.3-0.1l0.8-0.8
		c-1.6-3.1,0.5-3.3-0.4-4.5c-1.5-0.9-1.3,1.4-4.4-0.3L14.2,121.4L14.2,121.4z M16,2.2c3.7,1.1,3.1,4.1,4.3,5.9l1.1,0
		c0.8-1.8,0.2-2.8,2.1-4.6c1.9-1.9,3-1.2,4.6-2.1l0-0.9c-1.1-0.4-2.5-0.2-3.8-0.2c-0.1,0.4,0.4,0.4-0.2,0.9
		c-3.3,2.9-0.9,0.6-3.3,3.5c-1.5-1.3-1.1-2.3-3.8-3.6c0.2-0.8,0.3-0.2,0.2-0.7l-3.7,0l-0.1,1.1L16,2.2L16,2.2z M2.8,130.7
		c2.2-1.1,2.5-2,3.8-3.7c1.6,2,1.6,2.3,3.8,3.8c-0.5,0.6-1.5,1.1-2.1,1.7c-0.6,0.6-1.1,1.5-1.7,2.2c-0.6-0.7-1.1-1.6-1.7-2.2
		C4.2,131.8,3.3,131.4,2.8,130.7z M0,131.5c1.4,0.6,4.2,0.9,5.4,4.3c0.4,1.1,0.2,1.9,0.9,2.4c1.6-0.1,0.9-0.5,1.4-2.2
		c1-2.9,3.3-3.9,6.1-4.5l0.2-1.3c-4.4-0.7-6-2.3-6.9-6.7l-1.3,0c-1,4.2-1.7,5.3-6,6.6L0,131.5L0,131.5z M18.2,74.3l2.6-3.3l2,2.7
		c0.6,0.1,1.3,0.7,1.8,1.1c-2.4,1.6-2.1,1.7-3.8,3.8c-0.8-0.9-0.7-1.2-1.7-2.2c-0.7-0.7-1.7-1.2-2.1-1.8L18.2,74.3L18.2,74.3z
		 M19.7,68.9c0,3.1-3.4,4.8-6.2,5.2l0,1.3c1.6,0.3,3.5,0.5,4.4,2c0.7,0.4,1.3,1.2,1.6,2c0.6,1.5,0,2.3,1.3,2.6
		c1.3-0.1,0.4-2.8,2.7-4.6c0.7-1.4,3-1.9,4.6-2l-0.1-0.9c-1.2-0.1-1.1,0.1-1.7-0.9c-1.5-0.4-3.4-1.6-3.7-3.2
		c-0.6-0.5-0.6-0.3-0.5-1.3c-1-1.1,0.1-1.5-1-1.9C19.7,67,20.3,68.1,19.7,68.9L19.7,68.9z M16.5,41.7c0.2-1.6,1.5-2.6,3-2.9l-0.1,3
		L16.5,41.7L16.5,41.7z M11.6,38.7c1.6,0.2,2.8,1.3,3.2,3l-3.2,0L11.6,38.7L11.6,38.7z M15.6,36l1.8,1.8c-1.1,0.9-1,0.9-1.8,1.9
		c-0.4-0.3-1.5-1.4-1.9-1.9C13.8,37.8,15.6,36,15.6,36z M19.5,33.6c0.3,1,0.3,2.4,0,3.3c-1.6-0.3-2.9-1.7-2.9-3.4L19.5,33.6z
		 M11.6,33.6l3.1,0c0,1.9-1.4,3.1-3.3,3.3C11.5,37,11.6,33.6,11.6,33.6z M10,43.1l11,0l-0.1-10.9l-10.8,0L10,43.1L10,43.1z
		 M57.4,137c-1.9,1-0.4,3.1,1.2,2.4C60.1,138.8,59.2,136.2,57.4,137z M66.7,124.2c-0.8,0.8-0.4,1.4,0,2.5c1.8,0,2.5-0.2,4.4,0
		c0.5-0.9,0.9-1.6,0.3-2.5c-1,0.5-0.4,0.3-0.8,1.3c-2.2-0.3-0.4-0.6-1.6-1.7c-1.1,1.3,0.2,1.2-0.9,1.7
		C66.7,126,67.6,125.2,66.7,124.2z M56.6,87.8c0.8-0.7,1.1-1.1,1.8-1.9l1.9,1.9l-1.9,1.9L56.6,87.8z M53.7,87.1l0.2,1.3
		c4.9,1.3,2.9,4.4,4.8,4c1.3-0.8,0.7-4.2,4.3-3.8l0-1.4c-3.8-1.7-2.3-0.5-4.1-4l-1.1,0C56.6,85.7,57.4,86.4,53.7,87.1z M59.3,115.7
		c0-1.5,1.6-2.8,3-2.9l-0.1,2.9C62.2,115.7,59.3,115.7,59.3,115.7z M54.3,112.7c1.6,0,2.8,1.5,3.2,3l-3.3-0.1L54.3,112.7L54.3,112.7
		z M56.5,111.9c0.3-0.5,1.4-1.7,2-2l1.7,2l-2,1.6C57.4,112.8,57.3,112.7,56.5,111.9z M59.2,107.6l3.1,0.1l0,3.2
		C60.5,110.8,59.3,109.3,59.2,107.6z M54.2,107.6l3.3,0.1c-0.2,1.6-1.5,3.2-3.3,3.3L54.2,107.6L54.2,107.6z M52.8,117l10.8,0.1
		l0.1-10.9c-2.1-0.1-9.3-0.3-10.9,0.1C52.8,106.4,52.8,117,52.8,117z M71.4,113.1c1.3-1.4,0.4-2.9-1-2.6
		C69,110.7,68.4,113.5,71.4,113.1z M80.9,138.9c0.5-1.2,0.5-1.5-0.5-2.4C77.3,136.3,78,140.1,80.9,138.9z M91.2,150
		c2.8,0.7,2.5-2,1.4-2.5C91.3,147,89.9,148.3,91.2,150z M185.5,137c-1.9,1-0.4,3.1,1.2,2.4C188.2,138.8,187.2,136.1,185.5,137z
		 M71.4,36.5c-3-0.4-2.2,2.2-1.2,2.6C71.5,39.7,72.8,38.1,71.4,36.5z M80.8,62.8c-2.2-0.9-3,1.1-2.1,2.1
		C79.7,65.8,81.8,65.1,80.8,62.8z M133.4,149.3c0.5,1.5,3.2,0.9,2.6-1C135.5,146.7,132.8,147.3,133.4,149.3z M121.8,136.7
		c-1.5,0.9-0.2,3.3,1.4,2.3C124.6,138.2,123.6,135.6,121.8,136.7z M100.2,137c-1.9,0.7-0.6,3.4,1.2,2.4
		C102.6,138.7,102.1,136.3,100.2,137z M142.9,136.9c-1.9,0.8-0.7,3.6,1.2,2.4C145.5,138.5,144.3,136.3,142.9,136.9z M217.5,88.5
		c-2.3-0.1,0.1-0.6-1.6-1.2c-0.6,0.8-0.3,1.4,0.2,2.4l4.2,0c0.6-0.7,1-1.5,0.3-2.4c-1.5,0.7,0.4,1.3-1.3,1.2c-1.4-0.1,0-0.4-1.1-1.7
		C217.2,88,218.3,87.4,217.5,88.5z M194.7,124.2c-0.8,0.9-0.4,1.4,0,2.5c1.6,0,2.5-0.1,4.4,0.1c0.5-0.9,0.9-1.6,0.3-2.5
		c-1,0.5-0.4,0.3-0.8,1.3c-2.2-0.3-0.4-0.6-1.6-1.8c-1.1,1.3,0.2,1.2-0.9,1.7C194.7,126,195.7,125.2,194.7,124.2L194.7,124.2z
		 M92.5,16l0.6-2.3L92,13.3l0,1.3c-2.8,0-0.1-0.9-1.8-1.6c-1.2,1.5,0.7,0.8-1,1.6c-0.8-0.3-0.2-0.2-0.9-0.9c-1.3-1.3,0.7,0-0.5-0.3
		c-0.4,1.1-0.1,1.2,0.3,2.3C89.4,15.9,90.7,15.3,92.5,16L92.5,16z M134,143.7l-1.6,0.2c-0.3-1.2,0.4-0.9-0.8-1.9
		c-1.2,1-0.6,2.1,0,3.4c1.1,0,1.9-0.3,3-0.3c1,0,2,0.3,3,0.2c0.4-1,1.4-3-0.1-3.3c-1,1-0.3,0.7-0.7,1.8l-1.6-0.2
		c0-0.9,0.2-1.2-0.3-2C133.4,141.8,134.1,142.5,134,143.7L134,143.7z M91.3,143.7l-1.4,0.2c-0.6-1,0-0.4-0.4-1.3
		c-0.3-0.7-0.1-0.5-0.8-0.6c-0.9,1.1-0.2,2.1,0.2,3.4c1.1,0,1.9-0.2,2.9-0.2c1,0,2.2,0.3,3.1,0.2c0.4-1.1,1.4-3.1-0.3-3.3
		c-0.9,1.1-0.2,0.8-0.6,1.9l-1.6-0.2c-0.1-1.2,0.6-1.8-0.9-2.1C91.1,142.6,91.4,142.7,91.3,143.7L91.3,143.7z M219.4,143.7l-1.4,0.2
		c-0.6-1,0-0.4-0.4-1.3c-0.3-0.7-0.1-0.5-0.8-0.6c-0.9,1.1-0.3,2.1,0.2,3.4c1.1,0,1.9-0.2,2.9-0.2c1,0,2.2,0.3,3.1,0.2
		c0.4-1.2,1.3-2.6,0-3.3c-1.2,0.8-0.3,0.8-0.9,1.9l-1.6-0.2c0-1.2,0.6-1.8-0.9-2C219.2,142.6,219.4,142.7,219.4,143.7L219.4,143.7z
		 M74.3,44.1c0-1.5-0.3-1.6-0.6-2.9c-1.1-0.1-1.8,0.2-2.9,0.2c-1.2,0-2.2-0.2-3.4-0.2c0.1,1.6-1.3,2.3,0.2,3.4
		c1.1-0.6,0.5-0.9,0.9-1.9l1.6,0.3c-0.1,1.2-0.5,1.5,0.7,2.1c1.3-1.4,0-1,0.8-2.2l1.2-0.1c0.5,1.1-0.2,0.7,0.7,1.9L74.3,44.1
		L74.3,44.1z M176.8,143.7l-1.6,0.2c-0.4-1.1,0.2-0.8-0.6-1.9c-1.7,0.3-0.6,2.2-0.3,3.3c1.1,0.2,1.8-0.2,2.9-0.2
		c1.1,0,2.2,0.3,3.2,0.3c0.4-1.3,1.1-2.3,0.2-3.3c-0.7,0.1-0.5-0.1-0.9,1.2c-0.2,0.5,0,0.3-0.2,0.7l-1.4-0.2c-0.1-1.3,0.4-1-0.5-2.1
		C176.2,142.3,176.7,142.4,176.8,143.7L176.8,143.7z M78.8,85.8c0,1.7-0.5,1.9-0.5,2.9c1.9,1.8,0.6-1,4.8,0.6
		c0.8-0.9,0.8-0.4,0.6-1.6c-1.1-1.1-0.4-2.1,0.2-3.3l-0.8-0.9c-3.3,1.3-2.4,0-4.3,0.1C77.8,84.9,78.1,84.4,78.8,85.8z M79.8,122.9
		l1.8,1.8l-1.9,1.9l-1.8-1.9L79.8,122.9L79.8,122.9z M79.1,129.2l1.4,0c0.6-3.3,1.8-2.7,3.9-3.9l0-1.1c-1.1-0.6-1.5-0.2-2.7-1.3
		c-1.1-1.1-0.8-1.5-1.4-2.7l-1.1-0.1c-0.6,1.1-0.2,1.6-1.4,2.7c-1.2,1.1-1.5,0.8-2.7,1.4l0,1.1C77.5,126.5,78.4,125.9,79.1,129.2
		L79.1,129.2z M141.6,148.2l-0.1,1.1c1,0.6,3.9,1,5.2,0.8l-1.7-1.3c0.7-0.6,1.7-1.1,2.3-1.7c0.6-0.6,1-1.6,1.6-2.1
		c1.6,2.3,1.7,2.1,3.8,3.8L151,150c1.6,0.3,5.3,0,5.2-1.3c-0.1-1.3-2.8-0.4-4.8-2.7c-0.6-0.6-1.1-1.6-1.4-2.4
		c-0.6-1.8,0.2-2.1-1.6-2.1c-0.9,1.4-0.2,2.6-2.2,4.6C143.9,148.2,143.9,147.3,141.6,148.2L141.6,148.2z M189.3,150.1
		c-0.5-0.8-0.8-0.7-1.6-1.3c2.1-1.6,2.3-1.5,3.8-3.8c1.5,1.3-0.3,0.6,3.9,3.8c-0.8,0.7-1.1,0.5-1.6,1.3c1.3,0.2,3.9-0.2,5.1-0.8
		l0-1.1c-2.2-0.9-2.6-0.2-4.7-2.2c-1.7-1.6-1.3-3.4-2.2-4.6l-1,0c-0.9,2.8-0.9,4.6-4.1,6c-0.9,0.4-4.2,0.6-2.2,2
		C185.4,150,188.3,150.3,189.3,150.1L189.3,150.1z M98.9,148.1l-0.1,1.3c1.7,0.4,3.4,1,5.1,0.7l-1.7-1.3c2.2-1.7,2.2-1.6,3.8-3.8
		c0.7,0.7,1,1.6,1.6,2.2c0.5,0.6,1.6,1.1,2.2,1.6l-1.7,1.3c1.3,0.3,4.2-0.1,5.2-0.8l0-1.1c-2-0.8-2.7-0.2-4.6-2.2
		c-2.1-2.2-1.2-2.9-2.2-4.6l-1.1,0C104.9,143,105.3,147.2,98.9,148.1L98.9,148.1z M85,119.1c0.9-0.5,0.5-0.9,0.9-2.2
		c0.9-2.9,3-3.4,4.5-4.4l-1.5-0.9c-2.4,1.2-2.6,2.2-4.1,3.9c-0.6-0.7-1.1-1.6-1.6-2.2c-0.6-0.7-1.7-1.1-2.2-1.7
		c2.6-2,1.5-0.9,3.4-3.2c1-1.3,0.1-0.2,0.9-0.4l0.1-3.7c-2.5,0-0.2,1-2.9,4.4c-0.6,0.7-1.1,1.1-2,1.5c-1.9,0.9-2.4,0.2-2.8,1.1
		c-0.8,1.9,4.3,0.4,6,5.1C84.6,119.3,83.3,118.9,85,119.1L85,119.1z M155.1,138.3c-0.4-2.3-0.3-6.7-0.1-9.1c3.7-0.4,3.1,5.4,2.6,7.8
		L155.1,138.3z M153.4,129c0.5,1.7,0.4,7.4,0.1,9.2l-2.5-1.3l-0.1-6.5l-1.2,0.7l-0.1,6.3l4.7,2.9l4.6-2.8c0.1-1.4,0.2-6.6-0.3-7.7
		C157.8,127.8,155,127.7,153.4,129L153.4,129z M69.8,64.3c-0.3-1.9-0.4-7.2,0-9.1c2.1,0,2.5,0.6,2.6,2.6c0.1,1.6,0.2,3.5-0.1,5.1
		L69.8,64.3L69.8,64.3z M68.1,55.2c0.2,2.3,0.5,7-0.1,9.1c-2.9-1-2.6-1.8-2.6-4.6C65.4,57.6,65.2,54.8,68.1,55.2z M64.4,55.6
		c0,2.6-0.2,5.4-0.2,8c1.2,0.2,3.3,2,4.6,2.6c1.4-0.5,3.5-2.4,4.7-2.5c0.2-1.6,0.2-4.6,0.1-6.3c-0.1-1.9-0.6-2.6-2.3-3.2
		C68.1,53.9,66.7,53.7,64.4,55.6L64.4,55.6z M112.4,138.2c-0.4-2.7-0.3-6.2-0.1-9c3.7-1,2.8,5.3,2.7,7.5
		C114.2,137.5,113.4,137.9,112.4,138.2L112.4,138.2z M110.8,129.1c0.3,1.9,0.4,7.3-0.1,9.1l-2.6-1.3
		C108.1,134.1,107,129.1,110.8,129.1L110.8,129.1z M106.9,137.7c1.5,0.2,3.4,2.4,4.7,2.4c0.6,0,4.1-2.3,4.7-2.8
		c-0.1-6.7,1.6-9.5-6.3-9.2c-2,0.3-3,1-3.1,3.1C106.8,133,106.8,136,106.9,137.7L106.9,137.7z M75.5,147.9l0-3.2l3.3-0.1
		C78.6,146.4,77.5,147.9,75.5,147.9L75.5,147.9z M80.5,144.7l3.1-0.1l0,3.3C81.8,147.7,80.9,146.4,80.5,144.7L80.5,144.7z
		 M74.1,150.1c2.6,0.5,0.4-0.6,2.1-0.3c1.4,0.3,1,0.5,2.8,0.3l-1.3-1.3l2-1.9l1.8,1.8c-0.6,0.8-0.6,0.3-1.2,1.3
		c2.4,0.3,1.2-0.5,3.5-0.1c0.1,0,0.1,0,0.2,0.1c0.1,0,0.2,0,0.2,0c0.5,0.1,0,0.1,0.8,0l0-6.8l-10.9-0.1L74.1,150.1L74.1,150.1z
		 M126.3,144.6l-0.1,3.3c-1.7-0.2-2.9-1.6-3-3.3L126.3,144.6L126.3,144.6z M118.3,144.6l3.3,0c-0.1,1.8-1.5,3.1-3.3,3.3L118.3,144.6
		L118.3,144.6z M116.8,150.2c2.5,0.2,0.5-0.7,2.2-0.3c1.4,0.3,1,0.6,2.7,0.2l-1.3-1.3c0.8-0.8,1.1-1,1.9-1.9
		c0.6,0.6,1.2,1.2,1.9,1.9l-1.2,1.3c1.6,0.2,1.3-0.1,2.5-0.2c1.7-0.2,0,0.3,2.2,0.3l0-7l-10.9,0L116.8,150.2L116.8,150.2z
		 M165.9,144.6l3.1,0.1l-0.1,3.3C167.1,147.6,166.1,146.5,165.9,144.6L165.9,144.6z M161,144.6l3.2,0.1c-0.2,1.7-1.5,3.1-3.3,3.3
		L161,144.6L161,144.6z M159.5,150.2c2.2,0.1,0.8-0.6,2.1-0.4c1.4,0.2,0.9,0.6,2.8,0.3c-0.5-1.1-0.5-0.5-1.2-1.3l1.8-1.8l1.9,1.9
		l-1.3,1.1c1.6,0.3,1.2,0.2,2.6-0.1c1.5-0.4-0.1,0.4,2.2,0.3l0-6.9l-10.8-0.1L159.5,150.2L159.5,150.2z M197.9,138.3
		c-0.5-1.9-0.4-7.1-0.1-9.1c3.8,0,2.7,5.2,2.6,7.8L197.9,138.3L197.9,138.3z M193.5,136.8c-0.1-2.2-1.1-8.3,2.8-7.5l-0.2,9.1
		L193.5,136.8L193.5,136.8z M192.2,137.3c0.5,0.4,4.1,2.7,4.5,2.8c0.9,0.2,3.8-2,4.8-2.6c0.2-1.1,0.3-5.6,0.1-6.8
		c-0.4-2.5-2.3-2.7-4.5-2.7C190.6,128.1,192.4,131.9,192.2,137.3L192.2,137.3z M203.6,144.6l3.3,0c-0.2,1.8-1.3,3.3-3.3,3.3
		L203.6,144.6L203.6,144.6z M211.6,147.9c-1.6-0.2-2.9-1.6-3.1-3.3l3.1,0.1L211.6,147.9L211.6,147.9z M202.2,150.1
		c2.6,0.5,0.4-0.6,2.1-0.3c1.4,0.3,1,0.5,2.8,0.3l-1.3-1.3l2-1.8l1.8,1.8c-0.6,0.8-0.6,0.3-1.2,1.3c2.4,0.3,1.2-0.5,3.5-0.1l1.2,0.1
		l0-6.8c-1.7-0.2-9.4-0.3-10.9,0.1L202.2,150.1L202.2,150.1z M66.8,19.8c3.8-2.8,2.6-2.7,3.9-3.8c1.5,2.4,1.7,2.1,3.7,3.8
		c-2,1.5-2.3,1.6-3.8,3.8c-0.6-0.6-1.1-1.6-1.8-2.2C68.3,20.8,67.5,20.4,66.8,19.8z M65.6,18.6c-1.1,1.1-2.4-0.6-2.2,1.8
		c2.2,0.9,2.4,0.1,4.5,2.1c1.5,1.3,1.8,2.8,2.1,4.7l1.3,0c0.6-2,0.6-3.3,2.2-4.8c2.2-2.1,4.9-1.1,4.5-2.7c-0.2-1-2.5-0.2-4.7-2.5
		c-0.5-0.5-1.1-1.4-1.4-2.1c-0.7-1.9,0-2.3-1.1-2.5c-1.3,0.2-0.8,0.1-1.1,1.6C69.2,16.3,67.7,17.9,65.6,18.6L65.6,18.6z
		 M173.5,130.8c0.7-0.5,1.7-1.1,2.3-1.7c0.6-0.6,1-1.6,1.6-2.1c1.7,2.3,1.6,2,3.8,3.8c-0.5,0.6-1.5,1-2.1,1.5
		c-0.6,0.5-1.2,1.6-1.7,2.3c-0.6-0.6-1-1.4-1.7-2.1C174.9,131.8,174.2,131.4,173.5,130.8L173.5,130.8z M170,131.3
		c1.3,0.8,4.9,0.6,6.2,4.7c0.6,1.9-0.2,2.3,1.7,2c0.5-1.5,0.7-4.6,4.3-6c1.5-0.6,2.1,0,2.4-1.3c-0.1-1.3-2.4-0.3-4.7-2.5
		c-1.5-1.5-1.5-4-2.3-4.7l-0.8,0c-1,1.3-0.1,2.6-2.5,4.8C171.3,131.2,170.1,128.7,170,131.3L170,131.3z M88.2,130.8
		c1.9-1.6,2.4-1.7,3.8-3.8c1.6,1.4-0.5,0.7,3.9,3.8c-0.6,0.5-1.4,1.1-2.1,1.7c-1,0.9-1,1.4-1.7,2.1
		C89.1,130.5,89.8,132.5,88.2,130.8L88.2,130.8z M84.6,130.1l0.1,1.2c1.9,1,2.7,0.1,4.8,2.4c0.6,0.7,1.1,1.3,1.4,2.2
		c0.6,1.6-0.1,2.1,1.3,2.3c1-0.5,0.5-1,1-2.3c1.1-3,3.3-3.8,6.1-4.3l0-1c-0.8-0.8-3-0.9-4.6-2.5c-1.9-1.9-1.3-3.4-2.2-4.5l-1,0.1
		C90.8,125,90.7,129.8,84.6,130.1L84.6,130.1z M66.8,93.8c0.7-0.5,1.6-1,2.2-1.6c0.6-0.6,1-1.7,1.7-2.2c1.8,2.6,1.3,2,3.8,3.8
		c-1.5,1.7-0.8-0.5-3.8,3.9c-0.7-0.6-1-1.6-1.7-2.2C68.4,94.8,67.3,94.4,66.8,93.8z M69.3,88.6c0,1.8-2.3,3.7-4.1,4.2
		c-1.6,0.4-1.7-0.1-1.9,1.2c0.2,1.5,1.9-0.2,4.6,2.6c2.4,2.4,1.4,4.9,2.8,4.6c1.1-0.5,0.3,0.3,0.7-1.1c0.6-2,1.2-3.9,3.9-5
		c1.6-0.6,2.3,0,2.5-1.4c-0.5-1.1-0.5-0.5-1.9-0.9c-0.7-0.2-1.3-0.5-1.8-0.9c-1.1-0.8-2.1-1.9-2.3-3.2c-1.1-1.2,0.1-2-1.3-2.2
		C69.2,86.3,70.3,87.3,69.3,88.6L69.3,88.6z M83.6,75.8l0,2.9l-3.1,0.1C80.9,77.1,82.1,75.9,83.6,75.8z M75.5,75.8
		c1.7,0,3,1.3,3.2,2.9l-3.2,0C75.6,78.7,75.5,75.8,75.5,75.8z M79.7,76.7c-0.7-0.7-1.5-1.3-1.9-2.1l1.8-1.6c0.2,0.1,1.8,1.7,1.9,1.9
		C81.3,75.2,80.1,76.3,79.7,76.7L79.7,76.7z M75.6,74l-0.1-3.3l3.2-0.1C78.7,72.2,77.3,73.9,75.6,74L75.6,74z M80.5,70.7l3.1-0.1
		l0,3.4C82,73.7,80.6,72.3,80.5,70.7z M74.2,78.4l0,1.6L85,80.1l0-1.9l0-8.9l-10.8-0.1L74.2,78.4L74.2,78.4z M86.3,101.5
		c2.8,0.5,6.7-2.5,8.1-1.7c-0.6,1.2-3.5,1.3-4.2,2.6c2.2,0,8.8-4.2,11.9-4.5c-0.7,1.6-6.9,3.7-8.6,5c1.3,0.1,15-5.8,18.3-7.1
		c1.8-0.7,5-1.5,6.5-2.2c-4.2,0.2-12.9,1.9-17.2,2.8C99.4,96.7,86.8,100.9,86.3,101.5z M127.9,92.3c-0.3,11.3-2.9,5.1,2.5,11.8
		c1.7,2.2,1.3,1.4,0.9,4l6.7,0c-1.3-2.7-2.5,0.1-4.6-2.1c-1.1-1.2-2.1-2.7-3.1-4c-3.1-4.2-1.6-6.3,0.5-10.1
		C131,91.9,127.9,92.3,127.9,92.3z M78,50.8c0.7-0.7,1.2-1.2,1.8-1.8l1.9,1.8l-1.8,1.9L78,50.8z M78.6,47.4c0,1.2-1,2-2.2,2.4
		c-1,0.3-1.2,0-1.3,0.9c-0.1,1.2,0.2,0.5,1,1.2c1,0,1.6,0.5,2.2,1.3c0.9,1.4,0.1,1.9,1.4,2.2c1.3-0.4,0.6-1.6,1.7-2.8
		c0.8-0.8,2.1-0.9,2.9-1.4l0-1c-1.1-0.4-2.5-0.5-2.8-1.7c-0.9-0.6-0.9-1.2-1.1-2.4l-1.3,0.1C78.9,47.2,79.2,46.8,78.6,47.4
		L78.6,47.4z M207.9,122.9l1.8,1.8l-1.9,1.9l-1.8-1.9L207.9,122.9L207.9,122.9z M203.3,124.2l0,1.1c1.2,0.6,1.8,0.3,2.9,1.5
		c1.4,1.6,0.2,2.5,2.1,2.6c0.8-0.5,0.4-1.4,1.5-2.6c1.1-1.2,1.7-0.9,2.8-1.5l0-1.1c-1.1-0.6-1.5-0.2-2.7-1.3
		c-1.1-1.1-0.8-1.5-1.4-2.7c-2.2-0.2-0.8,0.8-2.2,2.4C205.3,123.7,204.4,123.7,203.3,124.2z M237.2,148c0.3,0,0.5,0.5,0.1-0.3
		l0.2-1.1c-2.9-2.7-1.6-3.3-2.8-5.1l-1,0c-0.8,1.6-0.3,2.9-2.1,4.6c-1.9,1.8-3,1.3-4.6,2.2l0,1.1c1.7,0.4,3.4,1,5.1,0.6l-1.7-1.2
		c2-1.5,2.3-1.7,3.8-3.8C235.4,146.2,235.4,147.4,237.2,148L237.2,148z M101.6,122.7l1.5,0l0,1.6l-1.5,0L101.6,122.7L101.6,122.7z
		 M100.2,126.3c0.8-0.1,1-0.5,2.1-0.6c1.2,0,1.4,0.5,2.4,0.6c1.2-1.3,0-0.8-0.1-2.6c0-1.2,0.5-1.4,0.5-2.2c-1.6-1.2-1.1-0.1-2.8-0.2
		c-1.1,0-1.9-1.2-2.6-0.1c-0.5,0.8,0.6,1.2,0.4,2.8C99.9,125.6,98.9,124.9,100.2,126.3L100.2,126.3z M197.8,106.8l-1.2,0.1
		c-0.5-1.2,0.3-1-0.9-1.9c-1.3,0.8-0.4,2.5,0.1,3.4c1.1-0.1,1.9-0.3,3-0.3c1,0,2,0.3,2.9,0.2c0.4-1.4,1.3-2.4,0-3.4
		c-1.1,0.8-0.4,0.8-0.9,1.9l-1.6-0.3c0.1-1.2,0.6-1.5-0.7-2.1C197.3,106.1,198.6,105.6,197.8,106.8L197.8,106.8z M234.9,137.3
		l2.5,1.7c0.4-1.7,0-1.3-1.2-2.1c-0.1-1.7-0.1-3.4-0.1-5.1c0.1-2.9,1.4-1.6,1.4-3.5C233.9,128.1,234.9,134.7,234.9,137.3z M78.9,100
		c-2,0.9-0.5,3.1,1,2.5C81.4,101.9,80.7,99.2,78.9,100z M178.2,150c1.3-1.6,0-3-1.4-2.5C175.6,148,175.3,150.6,178.2,150z
		 M149.1,35.7l-0.8,4.9c1.5,0.6,3.4,0.6,4.4,1.7c2.3,0.1,4.3,3,6.1,3.5l3.3-3.3c0.1-1.2,0.3-3.2-1.5-2.1c-1.2,0.7-0.9,1.7-1.5,2.6
		l-3.5-2.4c1.2-1.4,2.1-1.6,1.5-3.8l-0.9-0.3c-1.7,1.5-1.4,1.3-2,3.5l-3.9-1.5c0.9-1.4,2-1.5,1.1-3.6
		C150.4,34.5,149.9,35.2,149.1,35.7L149.1,35.7z M216.2,56.9c1.2-1.4,1.2,0,3.8-3.9c0.7,0.7,0.8,1.3,1.7,2.2
		c0.8,0.8,1.6,1.1,2.1,1.8c-2.9,1.8-2.2,2.3-3.9,3.7C218.3,58.4,218.5,58.6,216.2,56.9L216.2,56.9z M214.7,58.1
		c2,0.1,3.8,2.2,4.3,4.3c0.4,1.4-0.1,1.6,1.2,1.7c1.2-0.4,0.8-3.6,2.5-4.4c2-3.2,4.6-0.8,4.7-3.4c-1.5-0.9-2.9-0.3-4.8-2.3
		c-2.7-3-0.6-4.5-2.9-4.5c-0.6,0.6-0.9,4.8-4.6,6.1c-1.8,0.7-2.3-0.2-2.4,1.6C213.6,58.1,213.6,57.2,214.7,58.1L214.7,58.1z
		 M212.9,34c0.6,0.6,1,1.4,1.7,2.1c0.7,0.7,1.5,1.1,2.1,1.7c-4.2,2.9-2.3,2.3-3.9,3.8c-1.8-2.3-1.6-2-3.8-3.8c0.4-0.5,1.5-1,2.1-1.6
		C211.7,35.7,212.4,34.7,212.9,34z M213.8,45.1l0-1.6c0.9-2.2,2.1-4,4.6-4.6c1.7-0.4,1.8,0.1,1.8-1.5c-0.3-0.2-7.2-1.5-6.5-6.8
		l-1.6,0c-0.6,7.7-7.4,5.4-6.6,7.7c0.3,1,2.4,0,4.7,2.3c1.5,1.5,1.3,3.3,2.2,4.8L213.8,45.1L213.8,45.1z M194.9,19.9
		c0.7-0.7,1.3-0.9,2.2-1.8c0.8-0.8,1.2-1.6,1.8-2.1c1.6,2.5,1.7,2.1,3.7,3.8c-2.1,1.6-2.3,1.5-3.8,3.8c-0.5-0.5-1-1.4-1.6-2.1
		C196.5,20.9,195.6,20.5,194.9,19.9L194.9,19.9z M197.4,14.7c0,1.4-1.3,2.6-2.4,3.4c-2.9,2-3.8-0.2-3.6,2.4c1.4,0.6,5,0.7,6.1,4.6
		c0.5,1.8-0.1,2.1,1.6,2.2c0.6-0.7,0.4-1.5,0.7-1.8c0.5-1.6,1.2-2.9,2.7-3.7c2-1.2,3.6-0.4,3.6-2.3c-1-0.5-2-0.2-2.9-1.1
		c-1.8-0.6-3.6-2.8-3.4-4.8c-0.6-0.9-0.2-0.9-1.5-0.9C197.5,13.6,198.3,13.7,197.4,14.7L197.4,14.7z M190.3,38.7l0,2.9l-3,0.1
		C187.5,40,188.6,39,190.3,38.7z M190.3,33.6l-0.1,3.3c-1.7-0.3-2.8-1.6-3-3.3L190.3,33.6z M185.6,40.6l0.2,2.4l5.9,0.2l-0.1-11
		l-7.7-0.1l0.3,1.2l1.5,0.3c-0.4,1.6-1.2,1.9-0.2,3.4l1-1.1c0.7,0.8,1.3,1.3,1.9,1.9c-1.7,1.5-1.1,1.6-2.1,1.6c0,0-0.1,0-0.2,0
		c-0.7,0,0.4-0.3-0.5,0L185.6,40.6L185.6,40.6z M123.3,4.6c0.3-1.5,1.4-2.6,2.9-2.9c0.3,1,0.2,1.9,0.1,3L123.3,4.6z M118.3,1.7
		c1.6,0.2,2.9,1.3,3.2,3l-3.2-0.1L118.3,1.7L118.3,1.7z M116.7,6.2l10.9-0.1l0.1-5.8l-3.8,0c-0.3,0.9,0.1,0,0.1,0.5
		c0,0.6-1,1.4-1.7,1.9c-0.5-0.4-1.5-1.3-1.7-1.8c-0.3-1.3,0,1.1,0-0.2c0-0.8,0.3,0.4,0.1-0.4l-3.9,0L116.7,6.2L116.7,6.2z
		 M168.9,1.7l0.1,2.9l-3.1,0.1C166.2,3.1,167.3,2,168.9,1.7L168.9,1.7z M160.9,1.7c1.8,0.3,3,1.2,3.2,3L161,4.7
		C161,4.7,160.9,1.7,160.9,1.7z M170.5,6.2l-0.1-5.9c-6.1-0.1-2.8-0.4-4.1,1.1c-0.3,0.3-0.9,1-1.2,1.3c-2.9-2.5-1.4-1.6-1.6-2.4
		l-3.9,0l0,5.8L170.5,6.2L170.5,6.2z M208.6,4.7c0.2-1.6,1.4-2.8,3-2.9l0,2.9L208.6,4.7L208.6,4.7z M203.6,1.7
		c1.7,0.1,2.9,1.3,3.2,3l-3.2-0.1C203.6,4.6,203.6,1.7,203.6,1.7z M202.2,6L213,6.1l0-5.8l-3.8-0.1c-0.2,1,1.5-0.4-1.6,2.5
		c-2.2-2.3-1.4-1.6-1.7-2.5l-3.8,0.1L202.2,6L202.2,6z M227.4,13.9c0.1-0.1,1.7-1.8,1.9-1.9l1.8,1.8c-0.6,0.7-1.3,1.5-2,1.8
		C228.2,14.5,228.2,14.7,227.4,13.9z M225.5,14.9c2.5,0.2,2.3,2.4,3.2,3.5l1,0c0.9-1.5,0.6-3.5,3.2-3.5c0.8-0.7,0.8-0.2,0.9-1.5
		c-0.8-0.7-1.5-0.3-2.8-1.5c-1.3-1.3-0.5-2.2-1.8-2.7c-1.4,0.3-0.6,0.4-1.3,1.9c-0.3,0.6-0.7,1.1-1.3,1.4c-0.6,0.3-1.6,0.5-1.9,0.9
		C223.9,14.5,225.1,14.4,225.5,14.9L225.5,14.9z M113.6,1.5l-0.2-1.2l-3.7,0c-0.3,1.2,1.8-0.7-1.5,1.8c-1,0.7-1.3,1.7-2,2.6
		c-0.8-1-1-1.5-1.9-2.4c-0.6-0.6-0.7-0.5-1.3-0.9c-0.7-0.6-0.2-0.6-0.3-1l-3.7,0.2l0,1.1c6.5,1.2,5.7,4.3,6.7,6.6l1.1,0
		c0.8-1.3,0.2-2.6,2.1-4.5C110.3,2.2,111.4,1.7,113.6,1.5L113.6,1.5z M143.2,1.8c1.6,0.4,2.7,1.2,3.6,2.4c1,1.3,0.9,2.8,1.5,3.9
		l1.1,0c0.8-1.7,0.3-2.9,2.1-4.6c1.9-1.8,3-1.3,4.6-2.1l0-1l-3.8,0c0,0,0,0.1,0,0.1c0.2,1.6,0.5-0.8,0,0.4c-0.1,0.2,0.1,0-0.4,0.4
		c-1.7,1.3-1.9,1.5-3.2,3.4c-0.8-0.7-1.2-1.8-2.1-2.5c-3.3-2.6-1.2-0.6-1.5-1.8l-3.7,0l-0.1,1.1L143.2,1.8L143.2,1.8z M186.5,11.9
		l1.9,1.9c-0.8,0.7-1.2,1.3-1.9,1.8l-1.8-1.9C184.7,13.8,186.5,11.9,186.5,11.9z M184.9,16.2c0.8,0.6,0.6,1.4,1.1,2.2l1,0
		c1-1.4,0.8-3.9,4.1-3.8c0-2.9-0.7-0.8-2.7-2.6c-1.4-1.3-0.5-2.5-2-2.8c-1.3,0.4-0.7,1.6-1.8,2.8c-0.8,0.8-2.1,0.9-2.8,1.5l0,0.8
		C182.9,15.1,184.2,14.5,184.9,16.2L184.9,16.2z M229.7,48.7l1.5,0l0,1.4l-1.6,0.2L229.7,48.7L229.7,48.7z M228,52
		c1.1,0.9,0.6-0.1,2.2-0.2c1.2-0.1,1.3,0.3,2.4,0.6c1.4-1.6,0.2-0.9,0.1-2.7c-0.1-1.2,0.6-1.4,0.6-2.3l-0.5-0.5
		c-1,0-0.9,0.5-2.1,0.6c-1.5,0.1-1.3-0.5-2.4-0.6c-1.3,1.6-0.3,0.6-0.1,2.4C228.5,51,227.1,51,228,52L228,52z M185.3,50.1l0.2,2.2
		c1.1,0,0.9-0.6,2.4-0.5c1.3,0.1,1.2,0.8,2.3,0.4c1.2-1.4-1.3-2.1,0.2-3.7l0.3-1l-0.8-0.8c-2.1,1.1-2,0.8-4,0
		C185.5,47.6,185.8,49.3,185.3,50.1L185.3,50.1z M165.6,11.7l1.6,0l0,1.5l-1.5,0L165.6,11.7L165.6,11.7z M163.5,10.8
		c0.8,0.7,0.6,1.8,0.7,2.8c1.1,0.5,3.8,1.9,4.8,1.4c0.9-1.4-1.4-1.5,0.3-4.3l-0.7-1c-0.9,0.2-1.2,0.7-2.3,0.6
		c-1.2-0.1-1.2-0.6-2.1-0.6L163.5,10.8L163.5,10.8z M172.6,17.8c0.8,0.2,0.3,0.2,1,0.3c0.4,0.1,0.7,0,1.2,0c0.2,1.3,0.1,1.9,1.4,2.3
		l0.2-2.3c4.9,0,1,4.8,3.8,7c0.5-2.9,0.8-6.9-2.5-8C176.2,17.1,173.5,16.6,172.6,17.8L172.6,17.8z M173.9,7.5
		c1.6,0.3,0.9-0.8,1.3-1.8l1.6,0.2c0.1,1.2-0.6,1.8,0.9,2c0.7-1.1,0.3-0.9,0.3-2.1l1.7-0.1c-0.1,1.1-0.2,1.6,0.9,1.8
		c0.9-1.2,0.2-2.1-0.2-3.4c-1.7,0-3.3,0.6-5.1,0l-1,0C173.9,5.8,173.5,5.8,173.9,7.5L173.9,7.5z M219.6,7.6c0.7,0.7,0,0.3,0.8,0.3
		c0.7-1.1,0.2-0.8,0.4-2l1.4-0.2c0.5,1.1-0.3,1.1,0.8,1.9c0.8-0.5,0.7-0.7,0.9-1.6c-0.7-0.7-0.5-1-0.9-1.8c-1.1,0.1-1.9,0.3-3.1,0.3
		c-1,0-2-0.2-2.9-0.2c-0.5,1.2-1.1,2.2-0.3,3.4c1.1-0.2,1-0.8,0.9-1.7l1.9,0.1L219.6,7.6L219.6,7.6z M131.8,7.5c1-1,0.3-0.7,0.7-1.8
		l1.6,0.2c0.1,1.2-0.5,1.3,0.6,2.1c1.2-0.8,0.7-0.8,0.7-2.1l1.6-0.2c0.3,1.1-0.3,0.8,0.7,1.8c1.5-0.3,0.6-2.3,0.1-3.3
		c-1.1,0-1.9,0.3-3,0.2c-1,0-2-0.3-3-0.3C131.2,5.2,130.3,7.2,131.8,7.5L131.8,7.5z M120.8,10.3l0.2,1.1c1.2,0,7.7,0.6,4.8-1.7
		c-1.6,0.5-2.3,1-4-0.1L120.8,10.3z M187.8,26.1c-1.5-1.3-3.2-0.3-2.5,1.4C185.7,28.6,188.3,28.7,187.8,26.1z M208.9,62.8
		c-2.2-0.9-3.1,1-2.1,2.1C207.8,65.8,209.9,65.1,208.9,62.8z M206.3,28.3c2.2,0.8,3.2-0.9,2.1-2.1C207.1,25,205.5,26.4,206.3,28.3z
		 M197.4,38.6c2.2,1.6,3.4-0.4,2-2C197.5,36.3,197.2,36.8,197.4,38.6z M176.4,2c1.5,0.3,2.3,0.3,2.4-1.5l-0.2-0.2l-2.5,0
		C176,1.4,176,1,176.4,2L176.4,2z M136,0.4l-2.7-0.1C133.2,2.9,136.2,2.9,136,0.4z M93.3,0.3l-2.7,0C90.6,3,93.5,2.8,93.3,0.3z
		 M142.5,11.2l2.5-0.1c-0.1-0.3-0.2-0.9-0.3-1.1c-0.3-0.7-0.1-0.5-0.7-0.8l-1,0C143,10.2,143,10.2,142.5,11.2L142.5,11.2z
		 M27.4,106.7l-1.6,0.3l-0.4-1.8c-1.9,0.3-1,2.1-0.4,3.3c1.1,0,1.9-0.2,3-0.2c1.1,0,2,0.3,3,0.2c0.4-1.3,1-2.1,0.3-3.3
		c-1,0.2-0.3-0.4-0.8,0.5c-0.3,0.5,0,0.1-0.2,0.6c-0.1,0.4,0,0.3-0.2,0.7l-1.2-0.2c-0.8-1.1,0.7-1.5-1.1-2.2
		C26.9,105.5,27.3,105.6,27.4,106.7L27.4,106.7z M14,88c0.4-0.8,1.1-1.3,1.7-2.1l1.9,1.8c-0.2,0.2-1.9,1.8-1.9,1.9
		C14.9,88.8,15.1,88.8,14,88L14,88z M12.3,88.9c2.7,0.2,2.2,3.4,3.3,3.5c1.6,0.2,0.8-4.1,4.7-3.8l0-1.5c-5-2.1-2.5-1.7-4.1-4l-0.8,0
		c-0.9,1-0.6,2.5-2.1,3.3c-0.6,0.3-1.7,0.5-2,0.9C10.6,88.4,11.8,88.5,12.3,88.9L12.3,88.9z M13.5,148.2l-0.1,1.1
		c1.1,0.7,3.8,1,5.2,0.8l-1.7-1.3c4.5-3.3,2.1-2.2,3.9-3.8c0.7,0.9,0.8,1.2,1.7,2.1c0.9,0.9,1.2,0.9,2.1,1.7L23,150
		c1.6,0.3,5.3,0,5.2-1.3c-0.1-1.3-2.8-0.5-4.8-2.7c-2.9-3.3-0.5-4.5-3-4.5c-0.9,1.3-0.2,2.6-2.2,4.6
		C15.9,148.1,15.8,147.3,13.5,148.2L13.5,148.2z M24.1,93.7c2.1-0.8,2.6-2.1,3.9-3.6c1.7,2.1,1.5,2.2,3.8,3.8
		c-2.1,2-0.7-0.1-3.8,3.9C26.2,95.5,24.2,93.7,24.1,93.7L24.1,93.7z M26.5,88.9c-0.4,3.6-4.5,3.5-5.9,4.5l0,0.9
		c1,0.8,4.6,0.7,6.1,4.3c0.5,1.1,0.2,2,1,2.6c1.6-0.2,0.8-0.6,1.4-2.3c0.3-0.8,0.8-1.5,1.4-2.2c1.5-1.8,2.7-1.7,4.8-2.3l0-1.2
		c-0.5-0.3-6.2-1.2-6.1-5c-0.6-0.8-0.3-2.4-1.6-1.7C26.7,87.2,27.6,88,26.5,88.9L26.5,88.9z M24.2,19.9c1.6-1.6,2.3-1.5,3.8-3.9
		c3.5,4.6,2.1,2.1,3.8,3.9c-1.9,1.7-2.2,1.5-3.8,3.8c-0.7-0.7-1-1.5-1.6-2.2C25.9,21,24.8,20.4,24.2,19.9L24.2,19.9z M22.1,18.9
		l-1.5,0.4l0,1.1c1.6,0.7,2.2,0.1,4,1.7c1.1,0.9,2.2,2.1,2.1,3.6c0.7,0.7,0.2,0.6,0.7,1.5l1.1,0c0.8-1.7,0.3-2.9,2.1-4.6
		c1.8-1.7,3.1-1.3,4.6-2.2l0.1-1.1c-2.4-0.7-3-0.3-4.8-2.3c-0.6-0.6-1.1-1.3-1.4-2.2c-0.6-1.8,0.2-2.2-1.6-2.2
		c-0.7,1.3-0.4,2.5-1.6,4.1C25,17.8,23.6,18.6,22.1,18.9L22.1,18.9z M11.6,107.6l3.2,0.1c-0.1,1.8-1.5,3.1-3.3,3.3L11.6,107.6z
		 M19.5,115.9c-1-0.3-1.9-0.3-2.9,0c0.1-1.8,1.2-2.9,3-3.1L19.5,115.9z M14.7,115.6l-3.1,0.3l-0.1-3.1
		C13.1,112.9,14.5,114,14.7,115.6L14.7,115.6z M14,112.2l-0.2-0.4c0.9-0.8,1.2-0.6,1.4-1.8c0.9,0.4,1.5,1.1,2.2,1.9l-1.8,1.8
		C14.8,112.9,15.2,112.7,14,112.2L14,112.2z M16.6,109.1l-0.1-1.5l3.1-0.2l0,3.5C17.7,110.6,17.8,109.9,16.6,109.1z M21,111.4l0-5.2
		l-10.8,0l-0.1,10.9l10.8,0l0.1-3.2L21,111.4L21,111.4z M50.7,0.4L48,0.2C47.9,2.9,50.7,2.9,50.7,0.4z M50.1,150
		c1.3-1.6,0-3-1.4-2.5C47.6,148,47.3,150.7,50.1,150z M50.1,87.2l-0.6,0.1c-0.3,0.7,0,1.8-1.1,1.2c-1.3-0.7,0.8-1-1.2-1.6L47,88.5
		c-2.4,0.2-0.3-0.1-1.7-1.3c-0.8,1-0.4,1.3,0,2.5c1.7,0.1,2.4-0.2,4.4,0.1C50.3,88.8,50.5,88.4,50.1,87.2z M46.6,7.6
		c0.8-1.1,0.2-0.9,0.6-1.9l1.6,0.2c0.1,1.2-0.6,1.8,0.9,2C50.4,6.8,50,7.1,50,5.9l1.7,0c-0.1,1-0.2,1.6,0.9,1.7
		c0.9-1.1,0.2-2.1-0.3-3.4c-1.2,0-2,0.3-3.2,0.2c-1,0-2-0.3-2.9-0.2C45.9,5.4,44.8,7.3,46.6,7.6L46.6,7.6z M35.6,87.8
		c-0.1,1.2-0.1,0.5,0.6,1.5c3.6-1.2,2-0.2,4.3-0.1l0.7-1.2c-1.5-1.2,0.2-2.7-0.3-4c-1.2-1-0.6-0.2-2,0.1c-1.1,0.2-1.8-0.2-2.7-0.5
		l-0.8,0.9C36.1,85.7,36.6,86.7,35.6,87.8L35.6,87.8z M48.4,27.2c-0.3-2-0.4-7.2,0-9.1c3,0,2.6,2,2.7,4.5
		C51.1,25.1,51.3,26.7,48.4,27.2z M46.8,18.2c0.4,2.4,0.2,6.5,0,9c-0.8,0-1.9-0.8-2.6-1.2C43.9,23.4,43.1,18,46.8,18.2z M42.9,22.1
		l-0.1,4.3l1.2,0.8c1.2,0.8,2.9,2.3,4.3,1.7c0.6-0.3,3.6-2.2,4-2.6c0.1-1.7,0.1-4.2,0-5.9c0-1.9-0.7-2.9-2.6-3.2
		C45,16.4,42.7,17.2,42.9,22.1L42.9,22.1z M37.8,144.6l3,0l0.1,3.4C39.2,147.7,37.9,146.4,37.8,144.6L37.8,144.6z M32.9,148
		l-0.1-3.3l3.3,0C35.9,146.4,34.6,147.8,32.9,148L32.9,148z M31.4,150.2c2.1,0,0.8-0.6,2.1-0.4c1.4,0.2,0.9,0.5,2.8,0.3
		c-0.6-1.1-0.5-0.5-1.2-1.3L37,147c0.7,0.6,1.5,1.4,1.8,2.1l-1.2,1c1.6,0.3,1.3,0.2,2.6-0.1c1.6-0.4-0.2,0.4,2.2,0.3l0-6.9l-10.9,0
		L31.4,150.2L31.4,150.2z M48.4,101.2c-0.4-2.2-0.4-6.9,0-9.1c3.7-0.1,2.7,4.9,2.7,7.7L48.4,101.2L48.4,101.2z M44.3,99.9
		c-0.5-2.3-1.1-8.1,2.7-7.8l-0.2,9.1L44.3,99.9L44.3,99.9z M42.9,100.5c0.8,0.6,3.8,2.6,4.6,2.7c0.6,0,4.1-2.1,4.8-2.7
		c0.1-1.3,0.1-5.7,0-6.8c-0.4-2.3-2.5-2.5-4.5-2.5c-2,0-4.2,0-4.8,2.2C42.8,94.1,42.8,99.5,42.9,100.5L42.9,100.5z M42.2,41.6
		c-1.6-1.3,0.6-0.6-3.9-3.8c0.6-0.6,1.4-1.1,2.1-1.7c1-0.9,1-1.5,1.8-2.1c1.9,3.1,1.7,1.9,3.7,3.8C43.9,39.5,43.9,39.2,42.2,41.6
		L42.2,41.6z M36.4,36.9l-1.5,0.1l0,1.5c3.7,1.4,5,0.4,6.7,6.7l1.2,0c0.2-0.5,1.1-6.5,5.9-6.3c0.5-0.3,1.2-0.4,0.7-1.4
		c-0.4-0.8-0.5-0.4-1.2-0.6c-6.4-1.5-4.1-6.8-6.2-6.4c-1.1,0.2-0.3,1.8-2,4.1C39.1,35.8,38,36.3,36.4,36.9z M45.5,130.8
		c3.9-2.7,2.4-2.5,3.9-3.8c1.7,2.3,1.6,2.1,3.8,3.8c-1.8,1.8-0.8-0.5-3.8,3.8c-0.6-0.6-1-1.4-1.7-2.1
		C46.8,131.8,46.2,131.5,45.5,130.8z M41.8,130.1l0.2,1.4c2.8,0.5,5.2,1.3,6.2,4.5c0.6,1.8-0.2,2.3,1.7,2c0.7-1.9,0.3-2.8,2.1-4.5
		c2-1.9,2.7-1.3,4.7-2.3l-0.3-1.2c-1.7-0.2-3.4-0.8-4.5-2c-1.5-1.7-1.2-2.7-1.9-4.6l-1.2,0C47.5,127.5,46.6,129.7,41.8,130.1
		L41.8,130.1z M38.4,111.7c0.7-0.5,1.7-1.1,2.2-1.6c0.6-0.6,1-1.6,1.6-2.1c1.7,2.4,1.6,2,3.8,3.8c-0.5,0.5-1.5,1-2.1,1.5
		c-0.7,0.6-1.1,1.6-1.7,2.4c-0.6-0.7-0.8-1.2-1.6-2C40,113,38.8,112.3,38.4,111.7z M34.8,112.3c1.1,0.7,4.8,0.7,6.2,4.5
		c0.7,1.8-0.2,2.3,1.6,2.3c0.7-0.7,0.9-4.8,4.6-6.1c1.5-0.6,2.1,0.1,2.4-1.3c-0.1-1.3-2-0.1-4.7-2.6c-1.9-1.7-1.5-3.8-2.3-4.7
		l-0.8,0c-0.5,0.7-0.9,4.9-4.6,6.2C35.2,111.3,34.9,110.4,34.8,112.3z M2.8,56.9c0.6-0.6,1.5-1.1,2.1-1.7C5.6,54.6,6,53.7,6.6,53
		c3.1,3.6,0.2,0.6,3.8,3.9c-1.9,1.3-2.5,1.8-3.8,3.8C5.3,58.6,4.8,58.3,2.8,56.9z M0,57.6L0,57.6c1.4,0.3,3.3,1.1,4.2,2.2
		c1.2,1.6,1.4,2.4,1.8,4.4l1.3,0c0.5-1.9,0.7-3.4,2.1-4.7C11,58,13.2,58,14,57.2l0-0.8c-1.2-0.9-4.7-0.3-6.2-4.7
		c-0.6-1.6,0.2-2.1-1.4-2.2c-1.7,1.2,0.6,4.5-6.3,6.6C0.1,56.1,0,57.6,0,57.6z M5.8,101.3l-0.2-9.1c3.8-0.5,3.1,5.6,2.7,7.7
		L5.8,101.3L5.8,101.3z M4,101.2c-2.9-0.8-2.7-1.8-2.7-4.5c0-2.4-0.3-4.6,2.7-4.6C4.4,94.3,4.4,99.1,4,101.2z M0,93.6
		c0.6,2,0.1,4.7,0.2,6.9c0.5,0.4,4,2.7,4.6,2.7c0.9,0.1,3.9-2,4.8-2.7c0.2-1.2,0.2-6.5-0.2-7.6c-1-2.5-4-1.4-6-2
		C0.6,92.4,2.2,90.7,0,93.6L0,93.6z M2.9,68.3l0.6,3.2c1.3,0.1,2-0.2,3.1-0.2c1,0,2.1,0.2,3,0.2c0.6-1.5,0.8-1.8,0.4-3.4l-1,0.2
		l-0.3,1.7l-1.6-0.2c0.1-1.1,0.3-1.3-0.6-2.1c-1.1,0.7-0.6,1-0.6,2.2l-1.6,0.2C4,69.1,4.7,69.3,3.9,68L2.9,68.3L2.9,68.3z M6.2,73.6
		c-2.1,0.9-0.6,3.2,1,2.5C8.7,75.5,8,72.8,6.2,73.6z M219.1,27.1c-0.1-2.1-0.1-4-0.1-6.1c0-1.5,0-4.4,2.2-2.3
		c0.6,0.6,1.5,6.5-0.1,7.7C220.4,26.8,219.7,27.2,219.1,27.1L219.1,27.1z M217.6,27.1c-0.6,0.1-1.9-0.5-2.4-1.1
		c-0.6-0.7-0.4-2.5-0.4-3.4c0-2.2-0.2-4.8,2.8-4.4L217.6,27.1L217.6,27.1z M213.7,26.2c0.9,1.3,3.6,2.9,5.2,3
		c0.3-0.5,3.4-2.4,4.1-2.4c0.1-1.2,0.2-6.3,0-7.3c-0.5-2.3-2.6-2.3-4.6-2.3c-2.2,0-4.2,0.1-4.6,2.6
		C213.5,20.4,213.5,25.5,213.7,26.2L213.7,26.2z M184.2,0.6c0.3,2.2,2.2,0.2,4.8,3c2.8,3,0.5,4.5,3,4.6c0.9-1.1,0.5-4.6,4.5-6.1
		c1.6-0.6,2.3,0.1,2.4-1.5c-0.9-0.6-2.4-0.4-3.9-0.3c0,0.5,0-0.3,0.2,0.7c-2.4,1.2-2.3,2.3-3.7,3.6c-0.7-1-1-1.6-2-2.5
		c-0.3-0.2-1.1-0.8-1.2-1c-1.3-1.4,0.8-0.4-0.7-1C186.3,0.2,185.1,0,184.2,0.6L184.2,0.6z M232,4.3c1.2,0.6,1.2,2.7,1.7,3.8l1.1,0
		c0.5-0.7,0.5-2,0.9-2.9c0.4-0.8,1.4-1.6,1.6-2.2l0-0.3c0.4-0.8,0.3-0.4,0-0.5l-0.7-0.4l-2.3,2.8c-0.7-1-0.9-1.5-1.9-2.4
		c-1-0.9-1.6-0.8-1.7-1.5l0-0.4c0,0,0-0.1,0-0.1l-3.8,0l0,1.1C228.5,2.2,230.9,1.7,232,4.3L232,4.3z M206.9,12
		c-0.1,1.5-1.5,3.6,0.5,3.2c1.8-0.4,1.6-1,3.6,0.2l0.8-0.8c-0.2-1.1-0.8-1-0.5-2.6c0.3-1.6,0.9-0.7,0.3-2.3
		c-1.4-0.2-1.2,0.7-2.9,0.5c-1.7-0.2-0.9-1.1-2.5-0.1L206.9,12L206.9,12z M221.4,0.3c-1-0.1-1.7-0.2-2.7,0.1
		C218.7,3,221.6,2.8,221.4,0.3z M237.5,50.5l-0.1-0.2c-0.8,0.8-0.4,1.5,0.1,2.4L237.5,50.5L237.5,50.5z M27,112.9
		c2.6,0.9,2.8-1.6,1.8-2.3C27.7,109.9,25.7,110.9,27,112.9z M29,38.9c1-2.4-1.2-3-2.1-2.1C25.9,37.8,26.7,39.8,29,38.9z M35.9,26
		c-1.4,0.7-0.4,3.1,1.3,2.5C38.8,27.9,38,24.9,35.9,26z M37.6,11.7l1.5,0.1l0,1.5l-1.6,0L37.6,11.7L37.6,11.7z M40.7,15.5l0.6-1
		c-1.2-2.2-0.7-2-0.1-4.1l-0.7-0.7c-1.3,0-2,1.4-3.4,0c-0.9-0.1-0.8-0.2-1.5,0.5c0,1.9,1.4,1.3-0.1,4.2l0.9,0.9
		C39.1,14.3,38.1,14.6,40.7,15.5L40.7,15.5z M37.9,4.7c0.3-1.4,1.4-2.7,3-2.9l0,3L37.9,4.7L37.9,4.7z M32.9,1.7c1.9,0.3,2.6,1,3.2,3
		l-3.3,0C32.8,4.7,32.9,1.7,32.9,1.7z M42.5,0.2l-3.8,0c-0.2,0.4,0.6,0.3-1.7,2.4c-2.7-2.3-1.4-1.7-1.6-2.4l-4-0.2l0.1,6l10.8-0.1
		L42.5,0.2L42.5,0.2z M27.1,138.2c-0.4-2.3-0.3-6.7,0-9.1c3.7-0.4,3,5.4,2.6,7.8L27.1,138.2z M22.9,136.9c-0.5-2.4-1.1-8.1,2.5-7.8
		c0.3,2.4,0.3,6.7-0.1,9.2L22.9,136.9z M21.8,130.2c-0.4,0.7-0.3,6.2-0.2,7.2l4.5,2.8c1-0.2,3.9-2,4.9-2.8c0.1-1.1,0.2-6.5-0.2-7.2
		c-0.7-2.2-2.5-2.2-4.6-2.1C23.9,128.1,22.4,128,21.8,130.2L21.8,130.2z M6.1,2.2c1.5,0,2-0.2,1.9-1.8L5.2,0.2
		C5.2,1.6,5.2,1.3,6.1,2.2z M6,143.7l-1.6,0.2c-0.3-1.1,0.3-0.8-0.7-1.8c-1.5,0.3-0.5,2.3-0.1,3.3c1.1,0,1.9-0.3,3-0.3
		c1.1,0,2.1,0.3,3,0.3c0.4-1,1.4-3-0.1-3.3c-1,1-0.3,0.7-0.7,1.8l-1.6-0.2c0-0.9,0.2-1.2-0.3-2.1C5.4,141.9,6,142.5,6,143.7L6,143.7
		z M3.9,81.5c0.8-1.2,0-1,0.5-1.8l1.6,0.2C6,81,5.8,81.2,6.7,82c1.1-0.7,0.6-1,0.6-2.1L9,79.6c0,1.1-0.3,0.9,0.3,1.9
		c1.7-0.2,0.9-2,0.4-3.3c-1.1,0-1.9,0.2-3,0.2c-1,0-2.1-0.2-3.1-0.3C3.1,79.5,2.2,81.3,3.9,81.5L3.9,81.5z M16.2,48.7l1.6,0.1
		l-0.1,1.5l-1.5-0.1L16.2,48.7L16.2,48.7z M19.2,46.7c-1,0.2-0.9,0.7-2.4,0.6c-1.7-0.2-1.4-1.2-2.6,0.1c1.7,5.6-1.2,2.5,0.6,5.1
		c1.1-0.3,1.2-0.7,2.5-0.6c1.5,0.2,1.1,1,2.2,0.3c0.9-1.3-1.3-1.5,0.4-4.5L19.2,46.7L19.2,46.7z M15.7,12c0.3,0.2,1.7,1.6,1.9,1.9
		c-0.8,0.8-0.9,0.8-1.6,1.7c-0.7-0.3-1.6-1.3-1.9-1.9L15.7,12L15.7,12z M18.4,12.3c-0.6-0.4-1.1-0.7-1.4-1.4c-0.7-1.3,0-1.2-1.1-1.8
		l-1,0c0.2,3.5-2.7,3.2-3.8,4.2c-0.6,1.4,2.1,1.4,3,2.6c1.3,1.6,0.1,2.5,2,2.5c0.8-0.9,0.6-2.8,2.8-3.6c1.4-0.5,0.9,0.2,1.4-0.9
		C20.2,12,19,13.5,18.4,12.3L18.4,12.3z M36.1,100.1c-2,1.2-0.2,2.9,1,2.4C38.9,101.8,37.7,99.1,36.1,100.1z M36.4,136.8
		c-1.7,1.3,0.2,3.1,1.5,2.1C39.2,138,38.1,135.5,36.4,136.8z M49.8,13.2c-1.2,0.9,0.3,1.6-1.2,1.3c-1.6-0.3,0.2-0.2-0.9-1.6
		c-0.9,0.3-0.6,0.6-0.5,1.5L46,14.6c-0.7-1.2,0.4-0.5-0.7-1.4c-0.8,0.9-0.5,1.5,0,2.5l4.5,0C50.2,14.6,50.7,14.1,49.8,13.2z
		 M35.3,124.8c0.6-0.6,1.2-1.2,1.8-1.8l1.9,1.8l-1.9,1.9C36.7,126.3,35.6,125.2,35.3,124.8z M36.4,129.6l1.2-0.2l0.3-0.5
		c1.1-4.4,3.7-2,3.8-4.4c-0.5-0.8-1.6-0.5-2.7-1.5c-1.2-1.1-0.8-1.8-1.5-2.9l-1.1,0c-1.8,4.2-0.7,2.1-4,4.1l0,1
		C34.5,126.6,36,125.8,36.4,129.6L36.4,129.6z M56.3,0.1l-0.1,1.2c1.9,0.8,3.4,0.6,4.9,2.3c2.1,2.4,1,4.7,2.6,4.5
		c1-0.4,0.6-1.3,1.1-2.6c2.1-4.9,5.7-2.6,6.1-5c-0.7-0.5-0.9-0.4-2-0.4c-0.7,0-1.3,0-1.9,0.1C66.9,0.8,67,0,67.2,1
		c-2.4,1.2-2.3,2.3-3.7,3.6C60.9,1,60.6,1.9,60,1L56.3,0.1L56.3,0.1z M73.2,34.4l0.5-0.1c0.6-1.7,0.9-1.7,0.3-3.4
		c-0.9,0.3-0.6,0-0.9,0.7c-0.4,0.9,0.3,0.3-0.4,1.2l-1.5-0.2c0-1.1,0.4-2-0.9-2.1c-0.5,0.7-0.4,1.3-0.3,2.1l-1.4,0.2
		c-0.8-1.1,0.4-0.7-0.8-1.8c-1.4,0.7-0.6,2.3,0,3.4C70,34.3,70.9,34.1,73.2,34.4L73.2,34.4z M110,126.8c1.2-0.4,2.5-0.1,3.7-0.1
		c-1.9-2.1-3.2-1.1-3.7-1c-0.3-0.9,0.2-0.8-0.7-1.4c-0.5,0.6-0.5,0.4-0.4,1.3C109.1,126.6,109.3,126.5,110,126.8L110,126.8z
		 M25.6,125.5l-0.9,0.1c-0.5-1,0.3-0.8-0.7-1.4c-0.8,1-0.4,1.3,0,2.4c0.9,0,3.6,0,4.6,0c0.4-1.2,0.9-1.5,0-2.5
		c-1,0.6-0.2,0.3-0.7,1.4l-0.9-0.1c-0.7-1,0.5-0.8-0.8-1.6C25.2,125.1,26.1,124.5,25.6,125.5L25.6,125.5z M27.4,42.9
		c0,1.2-0.5,1.9,0.9,2.1c0.9-1.4,0-1.1,0.5-2.1l1.2-0.2c0.3,0.4,0.1,0.2,0.2,0.7c0.6,1.6,0.3,1,1.1,1.1c0.7-1.2,0.1-2.1-0.3-3.3
		c-1.1,0-1.9,0.2-3,0.3c-1,0-2-0.2-3-0.2c-0.6,1.2-1.5,3,0.3,3.3c0.6-1,0.2-0.8,0.5-1.8C25.8,42.7,27.4,42.9,27.4,42.9z M31.6,33
		c0.1-1.2,0.4-0.6-0.2-1.7C30,30.8,30.6,31.8,30,33l-1.5-0.2l0.1-1.8l-0.9-0.2c-0.5,0.9-0.4,1.1-0.2,2.1l-1.6,0.2
		c-0.5-1,0.4-0.8-0.8-1.9c-1.2,0.7-0.6,2.5,0.1,3.5c2.1,0.1,0.6-0.6,5.9,0.1L31.6,33L31.6,33z M48.7,143.7l-1.5,0.3
		c-0.5-1.1,0.2-0.8-0.6-1.9c-1.6,0.3-0.6,2.2-0.3,3.3c1.1,0.1,1.8-0.2,2.9-0.2c1.1,0,2.2,0.3,3.2,0.3c0.4-1.3,1.1-2.2,0.2-3.3
		c-0.6,0.1-0.4-0.2-0.7,0.5c-0.2,0.5-0.1,0.2-0.2,0.6c-0.2,0.5,0,0.3-0.2,0.7l-1.4-0.2c-0.2-1.3,0.4-1-0.5-2.1
		C48.2,142.3,48.7,142.4,48.7,143.7L48.7,143.7z M187.3,122.7l1.2,0.1l0,1.4l-1.4,0C187.1,123.2,187,123.4,187.3,122.7L187.3,122.7z
		 M186.9,124.4l1.7,0l0.1-1.8l-1.9-0.1L186.9,124.4L186.9,124.4z M59.2,122.7l1.2,0.1l0,1.4l-1.4,0C59,123.2,58.9,123.5,59.2,122.7
		L59.2,122.7z M58.8,124.4l1.8,0l0.1-1.8l-1.9-0.1L58.8,124.4L58.8,124.4z M80.3,85.8l1.4,0l0,1.4l-1.4,0
		C80.3,87.2,80.3,85.8,80.3,85.8z M80.1,87.4l1.8,0l0-1.8l-1.8-0.1L80.1,87.4L80.1,87.4z M208.4,85.8l1.4,0l0,1.4l-1.4,0L208.4,85.8
		z M208.2,87.4l1.8,0l0.1-1.8l-1.8-0.1L208.2,87.4L208.2,87.4z M186.8,50.4l1.8,0.1l0-1.9l-1.8,0L186.8,50.4L186.8,50.4z"/>
</g>
</svg>
