<?xml version="1.0" encoding="utf-8"?>
<!-- Generator: Adobe Illustrator 26.0.1, SVG Export Plug-In . SVG Version: 6.00 Build 0)  -->
<svg version="1.1" id="Слой_1" xmlns:xodm="http://www.corel.com/coreldraw/odm/2003"
	 xmlns="http://www.w3.org/2000/svg" xmlns:xlink="http://www.w3.org/1999/xlink" x="0px" y="0px" viewBox="0 0 238.1 150.2"
	 style="enable-background:new 0 0 238.1 150.2;" xml:space="preserve">
<g id="Слой_x0020_1">
	<path d="M95.1,33.3c-1,0.3-1.7,0.7-2.2,1.3c-0.8,0.9-0.8,1.1-0.7,3.8c0,1.6,0,4.3,0,6.2c0,3.4,0,3.4-0.7,3.2
		c-1.2-0.4-4.2-0.2-4.7,0.3c-0.4,0.5-0.4,0.5,0.1,0.3c0.4-0.1,0.5-0.1,0.4,0.2c-0.1,0.2-0.3,0.3-0.5,0.3c-0.2,0-0.3,0.5-0.3,1.4
		c0,0.8-0.1,2-0.2,2.5c-0.1,0.8,0,1.1,0.6,1.8c0.7,0.7,0.9,0.8,3,0.8c1.9,0,2.2,0.1,2.4,0.5c0.2,0.7,0,33.1-0.2,33.5
		c-0.1,0.3-0.7,0.4-2,0.4s-2.1,0.2-2.7,0.5c-0.9,0.5-0.9,0.6-0.9,2.8c-0.1,4.5,0.1,4.7,3.6,4.7h2.4l-0.1,5.5c-0.1,7.7,0.1,8,5.6,8.3
		c8.2,0.4,32.1,0.6,36.1,0.3c1.4-0.1,2.6-0.1,3.9-0.1c1.8,0,2.3,0,2.6-0.3c0.3-0.2,0.4-0.2,0.4,0c0,0.2,0.1,0.3,0.3,0.3
		c0.2,0,0.3-0.3,0.3-0.6c0-0.3-0.1-0.5-0.3-0.4c-0.1,0.1-0.3,0-0.3-0.1c0-0.5,0.7-0.2,1,0.5c0.3,0.6,0.4,0.6,6.7,0.6
		c3.5,0,8.4,0.1,10.7,0.2c6.4,0.3,16.6-0.1,16.6-0.6c0-0.2,0.1-0.4,0.3-0.4c0.2,0,0.3,0.2,0.1,0.4c-0.1,0.4,0.2,0.4,2,0.4
		c1.2,0,7.8,0.1,14.6,0.1c6.8,0,12.3,0,12.3-0.2c-0.1-0.1,0.1-0.2,0.3-0.2c0.3,0,0.4,0.1,0.3,0.3c-0.3,0.5,7.1,0.1,8.4-0.5
		c2.1-1,2.2-1.4,2.2-7.6c0-3,0.1-5.7,0.2-6c0.1-0.3,0.3-0.4,0.8-0.3c0.8,0.3,3.9,0.1,4.5-0.2c0.4-0.2,0.3-0.3-0.1-0.3
		c-0.3,0-0.5-0.1-0.4-0.4c0.1-0.2,0.3-0.3,0.4-0.3c0.4,0.1,0.7-4.5,0.3-5c-0.7-1.2-0.8-1.3-3.4-1.4l-2.6-0.1l-0.1-17.1l-0.1-17.1
		h2.5c2.3,0,2.5-0.1,3.2-0.8c0.6-0.6,0.7-1,0.6-1.8c-0.1-0.5-0.2-1.7-0.2-2.5c0-1-0.1-1.5-0.3-1.4c-0.2,0-0.4-0.1-0.5-0.3
		c-0.1-0.2,0-0.3,0.4-0.2c0.5,0.2,0.5,0.1,0.1-0.3c-0.5-0.5-3.3-0.7-4.5-0.4c-1.3,0.3-1.4,0-1.6-5.1c-0.3-7.9-0.9-9-4.8-8.9
		c-1.1,0-2.2,0-2.4-0.1c-0.3-0.3-5.1-0.6-7.6-0.6c-0.9,0-2.6,0-3.7,0c-1.1,0-6.7,0.1-12.5,0.1c-5.8,0-11.6,0.1-12.9,0.1
		c-1.3,0-3,0.1-3.7,0.1c-11-0.2-20.2-0.2-20.7-0.1c-0.4,0.1-0.6,0.3-0.6,0.4c0,0.1-0.1,0.2-0.2,0.3c-0.1,0.1-0.3-0.1-0.3-0.3
		c0-0.3-1.4-0.3-5.8-0.3c-4.5,0-5.8,0.1-5.8,0.3c0.1,0.2-0.1,0.4-0.4,0.4c-0.2,0-0.4-0.1-0.3-0.3c0.3-0.5-1.5-0.6-14.5-0.6
		c-7.2,0-15.4-0.1-18.2-0.1C97.9,33,96.1,33,95.1,33.3C95.1,33.3,95.1,33.3,95.1,33.3z M152.9,41c38.9,0.1,51.8,0,51.8-0.3
		c0-0.3,0.1-0.2,0.2,0c0.1,0.2,0.9,0.4,1.6,0.4l1.4,0.1l0,1.4c0.1,2.3,0.4,25.2,0.4,25.7c-0.1,2.4,0,20.7,0.1,27.1
		c0.1,6.4,0.1,8.2-0.2,8.4c-0.2,0.1-1.3,0.2-2.4,0.1c-2.1-0.1-9.8-0.1-39.2-0.1c-15.3,0-17.3,0.1-17.1,0.5c0.1,0.3,0,0.4-0.4,0.4
		c-0.4,0-0.5-0.1-0.4-0.4c0.1-0.4-1.6-0.4-14.3-0.4c-7.9,0-16.8,0.1-19.6,0.2c-2.8,0.1-5.2,0.1-5.2,0c0-0.3-1-0.2-1.4,0.1
		c-0.3,0.3-0.4,0.3-0.6,0.1c-0.1-0.2-1.5-0.3-3.7-0.4c-1.9,0-3.6-0.1-3.7-0.2c-0.1-0.1-0.3-1.2-0.3-2.4c0-1.9-0.1-2.2-0.4-2.1
		c-0.3,0.1-0.4,0-0.4-0.4c0-0.4,0.1-0.5,0.4-0.4c0.4,0.1,0.4-1.1,0.5-10.2c0.1-34,0.1-33.6-0.3-33.7c-0.2-0.1-0.3-0.2-0.1-0.3
		c0.4-0.3,0.5-3.7,0.1-5c-0.2-0.6-0.3-1.2-0.1-1.4c0.1-0.2,0.2-1.8,0.3-3.5c0-1.7,0.1-3.3,0.1-3.5c0-0.3,0.2-0.3,0.5-0.1
		C100.8,40.8,124.4,41,152.9,41L152.9,41L152.9,41z"/>
	<path d="M190.3,47.9l-6.1,0.1l-1.1,1.1c-0.9,0.9-1.1,1.3-1.3,2.6c-0.3,2.7-0.3,6.5-0.1,12.5c0.1,3.2,0.2,6.3,0.2,7
		c-0.1,0.6-0.1,5.9-0.1,11.7l0,10.5l0.7,1.1c0.4,0.6,1.1,1.2,1.6,1.5c1.1,0.5,12.6,0.6,14.1,0.1c1.4-0.4,2.5-1.8,2.7-3.4
		c0.3-2.8,0.2-23.8-0.1-24.6l-0.3-0.8h-3.9c-2.6,0-4,0.1-4.2,0.3c-0.2,0.2-0.3,1.3-0.3,3.1v2.7l0.9,0.5l0.9,0.5l0,3.2
		c0,1.8,0,4.6,0,6.4c0,1.9,0.1,3.4,0.3,3.7c0.2,0.4,0.3,0.7,0,1.3c-0.3,0.8-0.3,0.8-2.4,0.7c-2.4-0.1-2.9-0.3-2.4-0.9
		c0.3-0.4,0.5-20.3,0.2-29.6l-0.1-4.6l2-0.1c3-0.1,3-0.2,3,1.9c0,1,0.1,1.9,0.3,2.1c0.3,0.3,0.3,0.3,0,0.3c-0.6,0-0.4,0.8,0.3,0.9
		c1,0.2,5,0,5.3-0.3c0.1-0.1,0.3-2.3,0.4-4.9l0.1-4.7l-0.8-0.8c-0.7-0.7-1.3-0.9-3.2-1.2C196.4,47.8,193.6,47.8,190.3,47.9
		L190.3,47.9L190.3,47.9z M109,48.4c-0.3,0.3-0.3,1.9-0.3,5.8c0.1,6.4,0.1,5.9,0.4,5.3c0.2-0.3,0.3-0.3,0.3,0.3
		c0,0.4-0.1,0.8-0.3,0.9c-0.3,0.1-0.3,1.3-0.3,4.2c0,3.6-0.1,4.2-0.5,4.6c-0.4,0.4-0.5,1-0.5,3.6c0,1.7,0.1,3.1,0.2,3
		c0.3-0.3,1.2,0.6,1.2,1.1c0,0.2-0.1,0.4-0.2,0.4c-0.1,0-0.3,3.9-0.3,8.7c0,4.8,0.1,8.7,0.2,8.7c0.1,0,0.4,0.3,0.6,0.7
		c0.3,0.7,0.4,0.7,3.2,0.7c4.2,0,4,0.5,3.9-9.8c-0.1-4.5-0.1-8.4-0.2-8.5c-0.3-1.2-0.2-1.3,3.9-1.3c4.4,0,6-0.3,7-1.3l0.7-0.7
		l0.1-12.3c0.1-8.3,0-12.5-0.2-12.9c-0.7-1.3-1.5-1.4-10.2-1.5C111.5,48.1,109.2,48.2,109,48.4z M120.3,55.2c0,0.3,0,3.3,0.1,6.8
		c0,3.4,0.1,6,0.1,5.7c0.2-0.9,0.7-0.5,0.7,0.5c0,0.8-0.1,1-0.5,0.9c-0.3-0.1-0.4,0-0.3,0.3c0.1,0.4,0,0.5-1.7,0.4
		c-1.1-0.1-2-0.3-2.3-0.5c-0.5-0.5-0.5-1.3-0.1-1.3c0.2,0,0.3-2,0.1-6.5c-0.1-3.6-0.1-6.6,0-6.7c0.1-0.1,1-0.2,2-0.2
		C120,54.8,120.3,54.8,120.3,55.2C120.3,55.2,120.3,55.2,120.3,55.2z M133.4,48.3c-0.5,0.6-0.3,6.9,0.2,6.8c0.2,0,0.3,0.1,0.3,0.4
		c0,0.2-0.2,0.4-0.3,0.3c-0.3,0-0.4,0.4-0.5,1.4c-0.1,1.2,0,1.5,0.3,1.3c0.3-0.2,0.3-0.1,0.1,0.2c-0.5,0.6-0.8,32.8-0.3,34.7
		c0.3,1,0.6,1.6,1.3,2.1l0.9,0.7l7.5-0.1c8.3-0.1,8.9-0.3,9.8-2c0.6-1.2,0.9-10.8,0.7-27.5c-0.1-6.8-0.1-13.6-0.1-15
		c0-1.6-0.1-2.7-0.3-2.9c-0.2-0.1-0.4,0-0.5,0.1c-0.1,0.5-0.6,0.4-0.6-0.1c0-0.3-0.5-0.4-2.4-0.4c-3.9,0-3.6-0.9-3.6,12.2
		c0,6.1,0.1,12.7,0.2,14.8c0.1,2.7,0.1,3.8-0.1,3.8c-0.5,0-0.4,1.1,0.2,1.4c0.3,0.2,0.4,0.4,0.1,0.5c-0.2,0.2-0.4,1.6-0.4,4.1
		c-0.1,3.3-0.2,4-0.6,4.4c-0.5,0.5-0.5,0.5-0.9,0c-0.4-0.5-1.6-0.6-2.5-0.2c-0.9,0.4-1.7-0.4-1.5-1.4c0.2-0.9,0.3-24.4,0.2-33
		l-0.1-5.9l-1.2-0.7c-0.8-0.5-1.4-0.6-1.8-0.5c-0.5,0.2-2.4,0.2-3.3,0C133.9,48,133.6,48.1,133.4,48.3L133.4,48.3L133.4,48.3z
		 M158.7,48.3c-0.3,0.4-0.4,10.7-0.1,12.1c0.1,0.5,0.1,1.9,0.1,3c-0.1,1.1-0.1,2.1,0.1,2.3c0.4,0.5,0,1.5-0.5,1.5
		c-0.2,0-0.3,0.1-0.3,0.3c0.1,0.2,0,0.5-0.3,0.7c-0.5,0.5-0.7,4.5-0.2,4.8c0.2,0.1,0.3,0.4,0.3,0.7c0,0.3,0.1,0.6,0.3,0.6
		c0.3,0.1,0.3,2.6,0.3,9.3c0,5.3,0.1,9.4,0.3,9.6c0.1,0.2,0.1,0.4,0,0.5c-0.1,0.1-0.2,0.7-0.1,1.3l0.1,1.2l7.6-0.1
		c11.3-0.1,10.7,0.7,10.7-13.3c0-9.4,0-9.8-0.6-10.4c-1.7-1.8-1.9-2.2-1.4-2.4c1.1-0.6,1.4-1.9,1.5-6.2c0-2.3,0.1-6.4,0.1-9.2
		c0.1-4.8,0.1-5.1-0.5-5.6c-0.9-0.9-2.2-1.1-9.9-1.1C160.8,48,158.9,48,158.7,48.3L158.7,48.3L158.7,48.3z M169.3,54.8
		c0.2,0.3,0.2,2.4,0,10.8c0,2.1-0.2,2.2-2.3,1.8l-1.2-0.2l-0.2-2.5c-0.1-1.4-0.2-2.7-0.2-2.9c0-0.2,0.1-2,0.2-3.9l0.2-3.5h1.6
		C168.4,54.5,169.2,54.6,169.3,54.8z M169.2,74.8c0.1,0.2,0.2,2.4,0.2,4.9s0,5.7,0,7.2c0,1.4,0,2.7-0.1,2.9
		c-0.2,0.4-3.2,0.2-3.7-0.2c-0.3-0.3-0.4-0.6-0.2-1.4c0.1-0.6,0.3-3.8,0.3-7.2c0-5.3,0.1-6.2,0.5-6.4
		C166.7,74.1,168.9,74.3,169.2,74.8L169.2,74.8L169.2,74.8z"/>
</g>
</svg>
