<?xml version="1.0" encoding="utf-8"?>
<!-- Generator: Adobe Illustrator 26.0.1, SVG Export Plug-In . SVG Version: 6.00 Build 0)  -->
<svg version="1.1" id="Слой_1" xmlns="http://www.w3.org/2000/svg" xmlns:xlink="http://www.w3.org/1999/xlink" x="0px" y="0px"
	 viewBox="0 0 238.1 150.2" style="enable-background:new 0 0 238.1 150.2;" xml:space="preserve">
<g>
	<path d="M0.4,137.3c0-0.2,0-0.3,0-0.5c3.4,0,6.8,0,10.4,0c-0.3-0.3-0.4-0.4-0.5-0.4c-2.4-1.4-4.7-2.8-7.1-4.1
		c-0.9-0.5-1.9-0.9-2.8-1.3c0-0.2,0-0.5,0-0.7c3.5,2,7,4,10.6,6.1c-0.1-0.3-0.1-0.4-0.1-0.5c-3.3-5.7-6.5-11.3-9.8-16.9
		c-0.1-0.2-0.5-0.3-0.7-0.4c0-0.5,0-1.1,0-1.6c3.7,2.2,7.5,4.4,11.2,6.6c0.2,0.1,0.5,0,0.7-0.1c3.4-1.9,6.9-3.8,10.3-5.8
		c0.3-0.2,0.7-0.7,0.7-1.1c0-3.7,0-7.4,0-11.2c0-1-0.4-1.5-1.3-2c-3.1-1.7-6.1-3.4-9.2-5.2c-0.8-0.5-1.3-0.5-2.1,0
		c-3.5,2-6.9,4-10.4,6c0-0.2,0-0.3,0-0.5c3.4-1.9,6.7-3.9,10.1-5.8c0-0.1,0-0.2-0.1-0.3c-3.3,0-6.7,0-10,0c0-0.2,0-0.3,0-0.5
		c3.4,0,6.7,0,10.1,0c-1.9-1.4-3.8-2.5-5.8-3.6c-1.4-0.8-2.9-1.5-4.3-2.3c0-1.8,0-3.6,0-5.4c0,1.3,0,2.6,0.2,3.9
		c0,0.4,0.3,1,0.6,1.2c3.4,2,6.8,3.9,10.2,5.9c0.3,0.2,0.8,0.2,1,0.1c3.4-1.9,6.8-3.8,10.2-5.7c0.6-0.3,0.8-0.8,0.8-1.5
		c0-3.7,0-7.4-0.1-11.2c0-0.4-0.4-1-0.7-1.2c-3.3-2-6.7-3.8-10.1-5.7c-0.3-0.2-0.8-0.2-1-0.1c-3.7,2.1-7.3,4.3-11,6.4
		c0-0.4,0-0.8,0-1.2c0.2-0.3,0.5-0.5,0.7-0.8c3-5.2,6-10.3,9-15.5c0.3-0.6,0.7-1.2,1-1.8c-1.9,0.9-3.7,1.9-5.4,2.9s-3.5,2.1-5.2,3.1
		c0-0.2,0-0.5,0-0.7C3.9,62,7.3,60,10.7,58.1c0-0.1-0.1-0.2-0.1-0.3c-3.4,0-6.7,0-10.1,0c0-0.2,0-0.3,0-0.5c3.4,0,6.7,0,10.1,0
		c0-0.1,0-0.1,0.1-0.2c-3.5-2.1-6.9-4-10.3-6c0-0.2,0-0.5,0-0.7c0.2,0,0.4,0,0.6-0.1c2.2-1.3,4.4-2.5,6.6-3.8c1-0.6,2-1.2,3.3-2
		c-3.7,0-7.1,0-10.5,0c0-0.2,0-0.3,0-0.5c3.4,0,6.7,0,10.1,0c0-0.1,0-0.2,0-0.3C7,41.9,3.8,39.9,0.4,38c0-0.2,0-0.3,0-0.5
		c3.5,2,7,4,10.5,5.9c-2.9-5.5-6-10.8-9.1-16.1c-0.4-0.6-0.9-1.2-1.4-1.8c0-0.4,0-0.9,0-1.4c3.5,2.1,7,4.1,10.5,6.2
		c0.8,0.5,1.3,0.4,2-0.1c3.2-1.9,6.5-3.7,9.8-5.6c0.3-0.2,0.6-0.7,0.6-1.1c0-3.8,0-7.7-0.1-11.5c0-0.4-0.3-0.9-0.6-1.1
		c-3.4-2-6.8-3.9-10.2-5.8c-0.4-0.2-1-0.2-1.4,0C8.7,6.6,6.3,8,4,9.4c-1.2,0.7-2.4,1.6-3.6,2.3c0-0.2,0-0.5,0-0.7
		c3.4-2,6.8-3.9,10.2-5.9c0-0.1-0.1-0.1-0.1-0.2c-3.4,0-6.7,0-10.1,0c0-0.2,0-0.3,0-0.5c3.4,0,6.8,0,10.2,0C10.1,4,9.7,3.7,9.3,3.5
		C7.5,2.4,5.8,1.3,3.9,0.2c0.3,0,0.6,0,0.9,0C5,0.4,5.2,0.6,5.5,0.8c1.8,1,3.6,1.9,5.3,3c0.9,0.6,1.4,0.5,2.3-0.1
		c1.3-0.8,2.8-1.5,4.2-2.3C17.9,1,18.4,0.6,19,0.2c0.3,0,0.6,0,0.9,0c-1,0.6-2,1.2-2.9,1.8c-1.3,0.7-2.6,1.5-3.9,2.2
		c0,0.1,0.1,0.1,0.1,0.2c6.8,0,13.7,0,20.9,0c-2.6-1.5-4.8-2.9-7.1-4.2c0.3,0,0.6,0,0.9,0c2,1.2,4,2.4,6.1,3.6c0-0.1,0-0.2,0.1-0.3
		c-0.7-1.1-1.3-2.3-2-3.4c0.2,0,0.5,0,0.7,0c0.5,1.1,1.1,2.1,1.6,3.2c0.1,0,0.2-0.1,0.2-0.1c0-1,0-2,0-3c0.2,0,0.3,0,0.5,0
		c0,5.7,0,11.4,0,17.3c7.6-4.3,15-8.5,22.6-12.8c-2.7-1.6-5.2-3-7.7-4.5c0.4,0,0.8,0,1.2,0c2.2,1.3,4.4,2.7,6.6,4
		c0.2,0.1,0.6,0.1,0.9-0.1c2.2-1.3,4.4-2.6,6.7-3.9c0.3,0,0.6,0,0.9,0c-2.5,1.5-4.9,2.9-7.4,4.4C59,4.8,59,4.9,59.1,4.9
		c3.4,2,6.8,4,10.2,5.9c0.3,0.1,0.7,0.1,1-0.1c1.2-0.6,2.4-1.3,3.6-2c2.2-1.3,4.4-2.6,6.8-4c-2.6-1.6-5.1-3-7.6-4.5
		c0.3,0,0.6,0,0.9,0c1.7,1,3.6,2,5.2,3.1c1.3,0.9,2.5,1.2,3.7,0c0.2-0.2,0.6-0.2,0.8-0.4c1.6-0.9,3.1-1.8,4.6-2.7c0.3,0,0.6,0,0.9,0
		c-2.5,1.5-5,3-7.5,4.5C89,9,96.4,13.2,104,17.5c0-5.9,0-11.6,0-17.3c0.2,0,0.3,0,0.5,0c0,1,0,2.1,0,3.1c0.1,0,0.2,0.1,0.3,0.1
		c0.5-1.1,1.1-2.1,1.6-3.2c0.2,0,0.5,0,0.7,0c-0.7,1.1-1.4,2.3-2,3.4c0.1,0.1,0.1,0.2,0.2,0.2c2-1.2,4-2.4,6-3.7c0.3,0,0.6,0,0.9,0
		c-2.3,1.4-4.6,2.7-7,4.2c7.1,0,14,0,20.8,0c0-0.1,0.1-0.1,0.1-0.2c-2.3-1.3-4.5-2.7-6.8-4c0.4,0,0.8,0,1.2,0v0.1
		c2.2,1.3,4.4,2.6,6.6,3.9c0.2,0.1,0.5,0.1,0.6,0c2.3-1.3,4.6-2.7,6.9-4c0.2,0,0.5,0,0.7,0c-1.4,0.9-2.8,1.7-4.3,2.6
		c-0.8,0.5-1.6,1-2.6,1.6c7.1,0,13.8,0,20.8,0c-2.5-1.5-4.7-2.8-6.9-4.2c0.3,0,0.6,0,0.9,0c2,1.2,4,2.4,6,3.7
		c0.1-0.1,0.1-0.1,0.2-0.2c-0.6-1.1-1.3-2.3-1.9-3.4c0.2,0,0.3,0,0.5,0c0.7,1.1,1.3,2.3,2,3.4c0.1,0,0.2-0.1,0.3-0.1
		c0-1.1,0-2.2,0-3.2c0.2,0,0.3,0,0.5,0c0,1.1,0,2.1,0,3.5c0.8-1.4,1.5-2.5,2.1-3.5c0.2,0,0.3,0,0.5,0c-0.7,1.1-1.3,2.3-2,3.4
		c0.1,0.1,0.1,0.1,0.2,0.2c2-1.2,4-2.4,6-3.6c0.3,0,0.6,0,0.9,0c-2.2,1.3-4.5,2.7-7,4.2c7.1,0,13.8,0,20.9,0c-0.6-0.4-1-0.6-1.4-0.8
		c-1.8-1.1-3.7-2.2-5.5-3.3c0.3,0,0.6,0,0.9,0c1.4,0.9,2.9,1.7,4.2,2.7c1.8,1.4,3.6,1.7,5.4,0c0.6-0.6,1.5-0.9,2.2-1.3
		s1.4-0.9,2.1-1.4c0.3,0,0.6,0,0.9,0c-0.5,0.4-1.1,0.8-1.6,1.1c-1.7,1-3.3,1.9-5.2,3.1c7.2,0,14,0,21.1,0c-0.6-0.3-0.9-0.5-1.2-0.7
		c-1.9-1.2-3.9-2.3-5.8-3.5c0.3,0,0.6,0,0.9,0c2,1.2,4,2.4,6,3.6c0.1-0.1,0.1-0.2,0.2-0.2c-0.7-1.1-1.3-2.3-2-3.4c0.2,0,0.5,0,0.7,0
		c0.5,1.1,1.1,2.2,1.6,3.3c0.1,0,0.2-0.1,0.3-0.1c0-1,0-2.1,0-3.1c0.2,0,0.3,0,0.5,0c0,5.7,0,11.4,0,17.3
		c7.6-4.4,14.9-8.6,22.4-12.9c-1-0.5-1.8-1-2.6-1.4c-1.7-1-3.3-2-5-3c0.3,0,0.6,0,0.9,0c0.1,0.1,0.1,0.3,0.3,0.3
		c2.1,1.2,4.3,2.4,6.4,3.6c0.3,0.1,0.7,0.2,1,0c2.3-1.3,4.5-2.6,6.7-4c0.3,0,0.6,0,0.9,0c-2.5,1.5-5,2.9-7.5,4.4
		c0.2,0.2,0.2,0.3,0.3,0.4c3.4,2,6.8,3.9,10.1,5.9c0.2,0.1,0.7,0.1,0.9-0.1c1.5-0.8,3-1.7,4.5-2.5c0.5-0.3,1.1-0.6,1.6-0.9
		c0.1,0.1,0.1,0.2,0.2,0.3c-1.8,1.1-3.6,2.1-5.4,3.2c0,0.1,0,0.2,0.1,0.3c1.7,0,3.5,0,5.2,0c0,0.1,0,0.3,0,0.4c-1.8,0-3.6,0-5.3,0
		c0,0.1,0,0.2,0,0.2c1.8,1.1,3.7,2.2,5.5,3.2c-0.1,0.1-0.1,0.2-0.2,0.3c-0.3-0.1-0.5-0.2-0.8-0.4c-1.7-1-3.4-2-5.1-2.9
		c-0.3-0.2-0.9-0.3-1.1-0.2c-3.4,1.9-6.7,3.8-10,5.8c-0.4,0.2-0.7,0.9-0.7,1.4c-0.1,3.8-0.1,7.6,0,11.4c0,0.4,0.4,0.8,0.7,1
		c2.6,1.6,5.4,2.9,7.9,4.7c1.9,1.3,3.5,1.4,5.3,0c1.2-0.9,2.6-1.6,4-2.3c0.1,0.1,0.1,0.2,0.2,0.3c-0.2,0.2-0.4,0.4-0.7,0.5
		c-1.7,1-3.4,2-5.2,3c-0.5,0.3-0.8,0.6-0.8,1.3c0,2.4,0,4.8,0,7.2c0,1.3,0,2.6,0,3.9c0.1,0,0.2,0,0.3,0c2-3.5,4.1-7.1,6.1-10.6
		c0.1,0.1,0.2,0.1,0.3,0.2c-2,3.6-4.1,7.1-6.3,11c2.2-1.3,4.1-2.4,6-3.4c0.1,0.1,0.1,0.2,0.2,0.3c-1.9,1.1-3.7,2.2-5.6,3.3
		c0,0.1,0.1,0.2,0.1,0.3c1.8,0,3.5,0,5.3,0c0,0.1,0,0.2,0,0.3c-1.8,0-3.6,0-5.4,0c0,0.1,0,0.2,0,0.2c1.9,1.1,3.7,2.2,5.6,3.2
		c-0.1,0.1-0.1,0.2-0.2,0.3c-1.9-1.1-3.7-2.1-5.6-3.2c-0.1,0.1-0.1,0.1-0.2,0.2c2,3.5,4,7,6,10.6c-0.1,0.1-0.2,0.1-0.3,0.2
		c-2-3.5-4.1-7-6.2-10.8c-0.1,0.4-0.2,0.5-0.2,0.6c0,3.6,0,7.2,0,10.8c0,0.4,0.3,0.9,0.7,1.1c1.1,0.7,2.2,1.3,3.4,1.9
		c0.9,0.5,1.7,1.1,2.6,1.6c-0.1,0.1-0.1,0.2-0.2,0.3c-1.9-1.1-3.8-2.2-5.7-3.3c-0.4-0.2-1.1-0.3-1.5-0.1c-3.4,1.8-6.7,3.8-10,5.7
		c-0.3,0.2-0.6,0.8-0.6,1.2c-0.1,3.8-0.1,7.6,0,11.4c0,0.5,0.4,1.1,0.8,1.3c3.1,1.9,6.3,3.6,9.4,5.5c0.7,0.4,1.2,0.5,2,0
		c1.8-1.1,3.7-2.2,5.6-3.3c0.1,0.1,0.1,0.2,0.2,0.3c-1.8,1.1-3.7,2.2-5.5,3.3c0,0.1,0,0.2,0.1,0.3c1.8,0,3.6,0,5.3,0
		c0,0.1,0,0.2,0,0.3c-1.8,0-3.6,0-5.8,0c2.2,1.3,4.1,2.4,5.9,3.5c-0.1,0.1-0.1,0.2-0.2,0.3c-0.4-0.2-0.8-0.4-1.2-0.6
		c-1.5-0.9-3.1-1.8-4.6-2.7c-0.6-0.4-1.1-0.4-1.7,0c-1.3,0.8-2.7,1.6-4.1,2.4c-2,1.2-4,2.3-6.2,3.6c3.6,2.1,7,4.1,10.5,6.1
		c0.3,0.2,0.8,0.2,1,0c1.6-0.9,3.2-1.8,4.8-2.8c0.4-0.3,0.9-0.5,1.3-0.7c0.1,0.1,0.1,0.2,0.2,0.3c-1.8,1.1-3.7,2.2-5.5,3.2
		c0,0.1,0,0.2,0,0.3c1.8,0,3.6,0,5.4,0c0,0.1,0,0.2,0,0.3c-1.8,0-3.6,0-5.3,0c0,0.1-0.1,0.1-0.1,0.2c1.8,1.1,3.7,2.2,5.5,3.3
		c-0.1,0.1-0.1,0.2-0.2,0.3c-0.3-0.2-0.7-0.3-1-0.5c-1.6-0.9-3.2-1.9-4.9-2.8c-0.4-0.2-1-0.2-1.4,0c-3.3,1.9-6.6,3.8-9.8,5.7
		c-0.4,0.2-0.7,0.8-0.7,1.2c0,3.8,0,7.5,0,11.3c0,0.8,0.3,1.1,0.9,1.4c3.5,2,6.9,4,10.3,6c2.2-1.3,4.4-2.5,6.6-3.8
		c0.1,0.1,0.1,0.2,0.2,0.3c-0.3,0.2-0.6,0.5-1,0.7c-1.7,1-3.3,1.9-5,2.9c-0.3,0.2-0.6,0.6-0.6,0.8c0,3.8,0,7.6,0,11.3
		c0.1,0,0.2,0.1,0.3,0.1c2-3.5,4.1-7.1,6.1-10.6c0.1,0.1,0.2,0.1,0.3,0.2c-2.1,3.6-4.1,7.2-6.3,10.9c2.1-1.2,4.1-2.3,6-3.4
		c0.1,0.1,0.1,0.2,0.2,0.3c-1.8,1.1-3.6,2.1-5.4,3.2c0,0.1,0.1,0.2,0.1,0.3c1.7,0,3.4,0,5.1,0c0,0.1,0,0.2,0,0.4c-1.8,0-3.5,0-5.3,0
		c0,0.1,0,0.2,0,0.3c1.8,1.1,3.7,2.2,5.5,3.3c-0.1,0.1-0.1,0.2-0.2,0.3c-1.9-1.1-3.8-2.2-5.9-3.4c1.2,2.1,2.2,4,3.2,5.9
		c-0.2,0-0.3,0-0.5,0c-1-1.8-2-3.6-3-5.3c-0.1,0-0.2,0.1-0.3,0.1c0,1.7,0,3.5,0,5.2c-0.2,0-0.3,0-0.5,0c0-1.8,0-3.5,0-5.3
		c-0.1,0-0.2,0-0.2-0.1c-0.9,1.8-1.9,3.5-2.8,5.3c-0.2,0-0.5,0-0.7,0c1.1-1.9,2.2-3.7,3.3-5.6c-1.4,0.6-2.7,1.3-4,2
		c-2,1.2-3.9,2.4-5.9,3.5c-0.5,0-1.1,0-1.6,0c-0.3-0.2-0.5-0.5-0.8-0.6c-3.1-1.8-6.3-3.6-9.5-5.3c-0.3-0.2-1-0.1-1.3,0.1
		c-1.7,0.9-3.3,1.9-5,2.9c-1.6,1-3.2,2-4.8,3c-0.6,0-1.3,0-1.9,0c-1-0.7-2-1.3-3.1-2c-2.1-1.3-4.3-2.5-6.4-3.8
		c-0.1,0.1-0.1,0.1-0.2,0.2c1,1.8,2,3.7,3.1,5.5c-0.2,0-0.3,0-0.5,0c-1-1.8-2-3.5-3-5.3c-0.1,0-0.2,0.1-0.3,0.1c0,1.7,0,3.5,0,5.2
		c-0.2,0-0.3,0-0.5,0c0-6.3,0-12.7,0-19c0-0.1-0.1-0.1-0.3-0.4c-7.4,4.2-14.7,8.5-22.2,12.8c3.8,2.3,7.5,4.4,11.1,6.6
		c-0.4,0-0.8,0-1.2,0c-0.2-0.2-0.4-0.5-0.6-0.7c-3-1.7-6-3.4-9-5.2c-0.6-0.3-1-0.3-1.6,0c-2,1.2-4.1,2.4-6.2,3.6
		c-1.2,0.7-2.3,1.5-3.5,2.3c-0.7,0-1.4,0-2.1,0c-0.2-0.2-0.4-0.5-0.7-0.6c-3.1-1.8-6.1-3.6-9.2-5.3c-0.3-0.2-1-0.2-1.3,0
		c-3,1.7-6,3.4-9,5.2c-0.3,0.2-0.5,0.5-0.7,0.7c-0.4,0-0.8,0-1.2,0c2.8-1.7,5.6-3.3,8.5-5c0.8-0.5,1.6-1,2.6-1.6
		c-7.6-4.4-14.9-8.6-22.4-12.9c-0.1,0.5-0.1,0.7-0.1,0.9c0,3.5-0.1,7-0.1,10.5c0,2.7,0.1,5.4,0.2,8.2c-0.2,0-0.3,0-0.5,0
		c0-1.8,0-3.5,0-5.3c-0.1,0-0.3,0-0.4,0c-1,1.8-1.9,3.5-2.9,5.3c-0.2,0-0.3,0-0.5,0c1-1.9,2-3.7,3.1-5.8c-0.6,0.4-1.1,0.6-1.5,0.8
		c-2.8,1.7-5.7,3.3-8.5,5c-0.5,0-1.1,0-1.6,0c-0.2-0.2-0.3-0.4-0.5-0.5c-3.1-1.8-6.3-3.7-9.4-5.4c-0.4-0.2-1.1-0.2-1.4,0
		c-2.2,1.2-4.3,2.5-6.5,3.7c-1.2,0.7-2.4,1.4-3.6,2.1c-0.5,0-1.1,0-1.6,0c-2.1-1.2-4.1-2.5-6.2-3.7c-1.2-0.7-2.3-1.3-3.5-2
		c-0.1,0.1-0.1,0.1-0.2,0.2c1.1,1.8,2.2,3.7,3.3,5.5c-0.2,0-0.5,0-0.7,0c-1-1.8-1.9-3.6-3.1-5.7c0,2.1,0,3.9,0,5.7
		c-0.2,0-0.3,0-0.5,0c0-1.8,0-3.5,0-5.3c-0.1,0-0.2-0.1-0.4-0.1c-1,1.8-1.9,3.6-2.9,5.4c-0.2,0-0.3,0-0.5,0c1-1.9,2-3.8,3.2-5.9
		c-1.6,0.9-3,1.7-4.4,2.6c-1.9,1.1-3.7,2.2-5.6,3.3c-0.5,0-1.1,0-1.6,0c-0.1-0.1-0.2-0.3-0.4-0.4c-3.3-1.9-6.6-3.8-10-5.6
		c-0.3-0.1-0.8-0.1-1,0.1c-2.2,1.2-4.3,2.4-6.4,3.6c-1.2,0.7-2.4,1.5-3.6,2.3c-0.5,0-1.1,0-1.6,0c-3.2-1.9-6.4-3.8-9.7-5.7
		c0,0.1-0.1,0.1-0.1,0.2c1,1.8,2,3.7,3,5.5c-0.2,0-0.3,0-0.5,0c-1-1.8-1.9-3.5-3.1-5.6c0,2.1,0,3.8,0,5.6c-0.2,0-0.5,0-0.7,0
		c0-0.5,0.1-1,0.1-1.5c0-5.3,0-10.6,0-15.9c0-0.6,0-1.3,0-2.1c-7.6,4.3-15,8.5-22.5,12.9c0.7,0.4,1.2,0.7,1.7,1
		c3.2,1.9,6.3,3.7,9.5,5.6c-0.4,0-0.8,0-1.2,0c-0.2-0.2-0.3-0.5-0.5-0.6c-1.7-1-3.4-2-5.1-2.9c-1.6-0.9-3.2-1.7-4.8-2.6
		c0-0.2,0-0.5,0-0.7c3.4-2,6.8-3.9,10.2-5.9c0-0.1-0.1-0.1-0.1-0.2C7,137.3,3.8,137.3,0.4,137.3z M115.2,23.6
		c0.1-0.3,0.2-0.6,0.2-0.9c0-3.6,0.1-7.1,0-10.7c0-0.4-0.4-0.8-0.7-1c-2.8-1.7-5.7-3.4-8.6-5c-0.3-0.2-0.6-0.3-1.2-0.5
		c2.2,3.8,4.2,7.2,6.2,10.7C112.4,18.7,113.8,21.1,115.2,23.6c-0.3-0.3-0.7-0.6-0.9-1c-2.7-4.6-5.3-9.2-8-13.8c-0.6-1-1.2-2-1.7-2.9
		c-0.2,3.7-0.2,7.3-0.2,10.9c0,0.8,0.2,1.2,0.9,1.6c3,1.7,5.9,3.4,8.9,5.1C114.4,23.6,114.8,23.6,115.2,23.6z M103.8,57.4
		c-0.4-0.1-0.8-0.2-1.1-0.4c-3.1-1.8-6.2-3.6-9.2-5.4c-0.6-0.3-1-0.3-1.6,0c-2.8,1.6-5.7,3.2-8.6,4.8c-1.4,0.8-2.3,1.6-2.2,3.5
		c0.2,3.3,0.1,6.7,0.1,10c0,0.7,0.2,1,0.7,1.3c1.2,0.6,2.4,1.2,3.5,1.9c2.2,1.3,4.5,2.6,6.7,3.8c0.3,0.2,0.8,0.2,1,0.1
		c3.4-1.9,6.8-3.9,10.2-5.9c0.3-0.2,0.6-0.8,0.6-1.2c0-3.6,0-7.2,0-10.8C104,58.5,103.8,57.9,103.8,57.4c0.4-0.2,0.9-0.3,1.2-0.5
		c2.5-1.4,4.9-2.9,7.4-4.3c0.7-0.4,1.3-0.8,2.2-1.3c-7.1,0-13.9,0-20.9,0c0.3,0.3,0.5,0.4,0.6,0.5c2.8,1.6,5.6,3.2,8.4,4.9
		C103.2,56.8,103.5,57.1,103.8,57.4z M139,123.7L139,123.7c0,1.8,0.1,3.7,0,5.5c0,0.7,0.2,1.1,0.8,1.5c3.3,1.9,6.5,3.8,9.9,5.7
		c0.4,0.2,1.1,0.2,1.5,0c3.3-1.9,6.6-3.8,9.8-5.7c0.4-0.2,0.8-0.9,0.8-1.3c0.1-3.9,0.1-7.7,0.1-11.6c0-0.3-0.3-0.6-0.5-0.8
		c-3.3-1.9-6.6-3.8-9.9-5.8c-0.6-0.4-1.1-0.4-1.8,0c-3.2,1.9-6.4,3.7-9.7,5.5c-0.7,0.4-0.9,0.8-0.9,1.6
		C139,120.1,139,121.9,139,123.7z M35.1,37.6L35.1,37.6c0,1.9,0,3.8,0,5.6c0,0.5,0.3,1.1,0.7,1.3c3.3,2,6.7,4,10.1,5.9
		c0.3,0.2,0.8,0.2,1,0c3.3-1.8,6.6-3.8,9.9-5.6c0.9-0.5,1.1-1.1,1.1-2c0-3.5-0.1-7.1,0-10.6c0-0.8-0.2-1.2-0.8-1.6
		c-3.4-1.9-6.7-3.8-10.1-5.7c-0.3-0.2-0.8-0.2-1.1,0c-3.4,1.9-6.8,3.9-10.2,5.9c-0.3,0.2-0.6,0.6-0.6,1
		C35.1,33.9,35.1,35.8,35.1,37.6z M161.7,31.1L161.7,31.1c0-1.9,0.1-3.8,0-5.6c0-0.4-0.3-1-0.7-1.2c-3.3-1.9-6.5-3.8-9.9-5.7
		c-0.4-0.2-1.2-0.3-1.6-0.1c-3.4,1.9-6.8,3.9-10.1,5.9c-0.3,0.2-0.5,0.6-0.5,0.9c0,3.9,0,7.8,0,11.6c0,0.4,0.3,0.9,0.6,1
		c3.4,2,6.8,4,10.3,5.9c0.3,0.2,0.9,0.1,1.3-0.1c3.3-1.9,6.6-3.8,9.8-5.7c0.4-0.3,0.8-0.9,0.8-1.5C161.8,34.8,161.7,33,161.7,31.1z
		 M161.7,70.1L161.7,70.1c0-1.6,0.1-3.2,0-4.8c0-0.5-0.4-1.1-0.8-1.4c-3.2-2-6.5-3.9-9.8-5.7c-0.4-0.2-1.1-0.3-1.5,0
		c-3.4,1.9-6.7,3.9-10,5.9c-0.3,0.2-0.6,0.7-0.7,1.1c0,3.8,0,7.6,0,11.4c0,0.4,0.4,1,0.7,1.3c3.2,1.9,6.5,3.8,9.8,5.6
		c0.4,0.2,1.1,0.3,1.5,0.1c3.4-1.9,6.8-3.9,10.2-5.9c0.3-0.2,0.6-0.6,0.6-1C161.7,74.5,161.7,72.3,161.7,70.1z M57.9,64.3L57.9,64.3
		c0-1.8-0.1-3.7,0-5.5c0-0.8-0.2-1.2-0.9-1.6c-3.3-1.9-6.7-3.8-10-5.6c-0.3-0.2-0.9-0.2-1.2,0c-3.3,1.9-6.5,3.8-9.8,5.6
		c-0.7,0.4-0.9,0.8-0.9,1.5c0,3.7,0,7.5,0,11.2c0,0.4,0.4,0.9,0.7,1.1c3.2,1.9,6.4,3.7,9.6,5.6c0.7,0.4,1.1,0.5,1.8,0.1
		c3.3-1.9,6.6-3.7,9.9-5.6c0.4-0.2,0.8-0.9,0.8-1.4C58,68,57.9,66.1,57.9,64.3z M57.9,130.4L57.9,130.4c0-1.8,0.1-3.7,0-5.5
		c0-0.5-0.4-1.1-0.8-1.3c-3.4-2-6.8-3.9-10.2-5.8c-0.3-0.2-0.8-0.1-1.1,0c-3.3,1.9-6.6,3.8-9.9,5.7c-0.4,0.2-0.7,0.8-0.7,1.2
		c0,3.8,0,7.5,0,11.3c0,0.5,0.4,1.1,0.8,1.4c3.3,2,6.6,3.8,9.9,5.7c0.3,0.2,0.8,0.2,1.1,0c3.3-1.8,6.7-3.8,10-5.6
		c0.7-0.4,1-0.8,0.9-1.6C57.9,134.1,57.9,132.2,57.9,130.4z M104,37.7L104,37.7c0-1.9,0.1-3.8,0-5.6c0-0.4-0.4-1-0.7-1.2
		c-3.2-1.9-6.5-3.8-9.7-5.7c-0.6-0.3-1-0.3-1.6,0c-3.3,1.9-6.5,3.7-9.8,5.5c-0.7,0.4-1,0.8-1,1.6c0,3.5,0.1,7,0,10.5
		c0,1.1,0.3,1.8,1.4,2.2c0.7,0.2,1.3,0.6,1.9,0.9c2.5,1.5,5.1,3,7.6,4.4c0.3,0.2,0.9,0.3,1.2,0.1c3.3-1.9,6.6-3.9,9.9-5.8
		c0.6-0.3,0.8-0.7,0.8-1.4C103.9,41.4,104,39.5,104,37.7z M104,130.4L104,130.4c0-1.8,0-3.7,0-5.5c0-0.7-0.2-1.1-0.8-1.4
		c-3.3-1.9-6.5-3.8-9.9-5.6c-0.3-0.2-1-0.2-1.3,0c-3,1.6-5.9,3.3-8.9,4.9c-1.4,0.7-2.1,1.5-2,3.3c0.2,3.3,0,6.6,0.1,9.9
		c0,0.5,0.2,1.1,0.6,1.3c3.4,2,6.9,4,10.4,5.9c0.3,0.1,0.8,0.2,1,0c3.3-1.9,6.6-3.8,9.9-5.7c0.6-0.4,0.9-0.8,0.8-1.5
		C103.9,134.1,104,132.2,104,130.4z M219.5,64.3L219.5,64.3c0-1.9,0-3.8,0-5.6c0-0.7-0.2-1.1-0.8-1.5c-3.4-1.9-6.7-3.8-10.1-5.7
		c-0.3-0.1-0.8-0.2-1,0c-3.4,1.9-6.7,3.8-10,5.8c-0.4,0.2-0.7,0.8-0.7,1.3c-0.1,3.8-0.1,7.5-0.1,11.3c0,0.4,0.3,0.9,0.6,1.1
		c3.4,2,6.7,4,10.1,5.9c0.3,0.2,0.8,0.2,1.1,0c3.5-1.9,6.9-3.8,10.3-5.8c0.3-0.2,0.6-0.8,0.6-1.2C219.5,68.1,219.5,66.2,219.5,64.3z
		 M219.5,37.7L219.5,37.7c0-1.9,0-3.8,0-5.7c0-0.4-0.3-0.9-0.6-1c-1-0.6-2.1-1.1-3.2-1.7c-2.3-1.3-4.6-2.7-6.9-4
		c-0.4-0.2-1.2-0.2-1.6,0c-3.2,1.8-6.4,3.7-9.7,5.5c-0.6,0.4-0.9,0.8-0.9,1.5c0,3.7,0,7.4,0.1,11.2c0,0.4,0.4,1,0.7,1.3
		c3.2,2,6.5,3.9,9.8,5.7c0.3,0.2,0.9,0.2,1.3,0.1c3.4-1.9,6.7-3.8,10.1-5.7c0.6-0.4,0.8-0.8,0.8-1.5
		C219.5,41.3,219.5,39.5,219.5,37.7z M219.5,130.5L219.5,130.5c0-1.9,0-3.8,0-5.7c0-0.7-0.3-1-0.8-1.3c-3.3-1.9-6.7-3.8-10-5.6
		c-0.3-0.2-1-0.2-1.3,0c-3.2,1.8-6.4,3.7-9.7,5.5c-0.8,0.4-1,1-1,1.8c0,3.6,0.1,7.1,0,10.7c0,0.8,0.2,1.2,0.9,1.6
		c3.3,1.9,6.6,3.8,9.9,5.7c0.3,0.2,0.8,0.2,1.1,0c3.4-1.9,6.8-3.8,10.2-5.8c0.4-0.2,0.7-0.8,0.7-1.3
		C219.6,134.2,219.5,132.3,219.5,130.5z M162.2,110.6C162.2,110.6,162.1,110.6,162.2,110.6c0,2-0.1,3.9,0,5.9c0,0.3,0.2,0.8,0.5,0.9
		c3.3,1.9,6.6,3.8,9.8,5.7c0.7,0.4,1.2,0.4,1.9,0c3.2-1.9,6.5-3.7,9.8-5.5c0.7-0.4,0.8-0.9,0.8-1.5c0-3.2-0.1-6.4,0-9.5
		c0.1-1.7-0.1-3-2-3.4c-0.1,0-0.2-0.1-0.3-0.2c-2.9-1.7-5.8-3.4-8.7-5.1c-0.3-0.1-0.7-0.1-1,0.1c-3.3,1.9-6.6,3.8-9.9,5.7
		c-0.7,0.4-0.8,0.8-0.8,1.5C162.2,107,162.2,108.8,162.2,110.6z M115.8,110.7C115.9,110.7,115.9,110.7,115.8,110.7
		c0,1.4,0.1,2.9,0,4.3c-0.1,1.5,0.2,2.3,1.7,3c3.1,1.5,6,3.4,9.1,5.1c0.4,0.2,1,0.3,1.3,0.1c3.3-1.9,6.7-3.8,9.9-5.7
		c0.4-0.2,0.7-0.8,0.7-1.3c0.1-3.7,0-7.4,0.1-11.2c0-0.7-0.2-1.1-0.9-1.5c-3.2-1.8-6.4-3.6-9.5-5.5c-0.7-0.4-1.1-0.4-1.8,0
		c-3.3,1.9-6.6,3.8-9.8,5.7c-0.4,0.2-0.7,0.8-0.7,1.3C115.8,107,115.8,108.8,115.8,110.7z M138.6,84.1L138.6,84.1c0-1.8,0-3.7,0-5.5
		c0-0.7-0.2-1.1-0.9-1.5c-3.2-1.8-6.4-3.6-9.5-5.5c-0.6-0.4-1.1-0.4-1.7,0c-3.4,2-6.8,3.9-10.2,5.8c-0.3,0.2-0.6,0.7-0.6,1
		c0,3.9,0,7.7,0.1,11.6c0,0.3,0.2,0.7,0.4,0.8c3.5,2,7.1,4,10.6,6c0.2,0.1,0.7,0.1,0.9,0c3.4-1.9,6.7-3.9,10-5.8
		c0.4-0.2,0.7-0.8,0.7-1.3C138.6,87.8,138.6,86,138.6,84.1z M162.1,84L162.1,84c0,1.9,0,3.8,0.1,5.8c0,0.4,0.2,0.9,0.5,1.1
		c3.4,2,6.7,3.9,10.1,5.9c0.3,0.2,0.8,0.2,1.1,0c3.4-1.9,6.7-3.8,10.1-5.7c0.6-0.3,0.8-0.6,0.8-1.4c0-3.8,0-7.5,0-11.3
		c0-0.4-0.4-1-0.7-1.2c-3.3-1.9-6.6-3.8-10-5.6c-0.4-0.2-1.1-0.2-1.5,0c-3.3,1.9-6.7,3.8-10,5.7c-0.3,0.2-0.6,0.6-0.6,1
		C162.1,80.2,162.1,82.1,162.1,84z M184.9,17.9L184.9,17.9c0-1.7-0.1-3.5,0-5.2c0.1-1-0.3-1.5-1.2-2c-3.2-1.8-6.4-3.7-9.7-5.5
		c-0.3-0.2-0.9-0.2-1.3,0C169.3,7.1,166,9,162.6,11c-0.3,0.2-0.6,0.7-0.6,1c-0.1,3.8-0.1,7.7,0,11.5c0,0.4,0.3,1,0.7,1.2
		c3.2,1.9,6.5,3.7,9.7,5.7c0.7,0.4,1.1,0.4,1.8,0c3.3-1.9,6.6-3.7,9.9-5.6c0.3-0.2,0.7-0.8,0.7-1.2
		C184.9,21.8,184.9,19.8,184.9,17.9z M138.6,17.9L138.6,17.9c0-1.7-0.1-3.5,0-5.2c0.1-1.1-0.4-1.6-1.2-2.1c-3-1.7-6-3.4-9-5.2
		c-0.7-0.4-1.3-0.4-2,0c-3,1.8-6,3.6-9.1,5.3c-1.1,0.6-1.4,1.2-1.4,2.3c0.1,3.1,0.1,6.2-0.1,9.3c-0.1,1.4,0.3,2.3,1.7,3
		c3.2,1.6,6.2,3.5,9.3,5.3c0.3,0.2,0.8,0.2,1.1,0c3.3-1.9,6.6-3.8,10-5.7c0.6-0.3,0.8-0.7,0.8-1.4C138.6,21.6,138.6,19.8,138.6,17.9
		z M80.8,24.6L80.8,24.6c0-1.9-0.1-3.8,0-5.7c0-0.7-0.2-1-0.8-1.4c-3.3-1.9-6.6-3.8-9.9-5.7c-0.3-0.2-0.8-0.2-1.1,0
		c-3.3,1.9-6.6,3.8-9.9,5.7c-0.6,0.4-0.9,0.8-0.8,1.5c0,3.8,0,7.6,0,11.4c0,0.3,0.3,0.8,0.6,0.9c3.3,2,6.6,3.9,10,5.8
		c0.4,0.2,1,0.2,1.4,0c3.3-1.9,6.6-3.7,9.9-5.7c0.4-0.2,0.7-0.8,0.7-1.2C80.9,28.3,80.8,26.5,80.8,24.6z M69.6,130.1
		c3.6-2,7.2-4.1,10.7-6.2c0.3-0.2,0.5-0.6,0.5-0.9c0-3.8,0-7.7,0-11.5c0-0.4-0.3-1.1-0.7-1.3c-3.2-1.9-6.5-3.8-9.8-5.7
		c-0.4-0.2-1-0.2-1.4,0c-3.3,1.9-6.6,3.8-9.9,5.8c-0.3,0.2-0.6,0.7-0.6,1.1c0,3.9,0,7.8,0,11.6c0,0.3,0.3,0.8,0.5,1
		C62.4,126.1,66,128.1,69.6,130.1z M58.3,77.5L58.3,77.5c0,1.9,0,3.8,0,5.6c0,0.4,0.3,1,0.7,1.3c3.3,2,6.7,3.9,10,5.9
		c0.3,0.1,0.8,0.1,1,0c3.3-1.9,6.6-3.8,9.9-5.8c0.4-0.3,0.8-1,0.8-1.5c0.1-3.7,0-7.4,0-11c0-0.5-0.3-1.1-0.7-1.3
		c-3.3-1.9-6.6-3.8-10-5.7c-0.3-0.2-0.9-0.2-1.1,0c-3.4,1.9-6.7,3.8-10.1,5.8c-0.3,0.2-0.6,0.8-0.6,1.2
		C58.3,73.7,58.3,75.6,58.3,77.5z M115.9,64c7.6-4.4,15-8.7,22.5-13c-7.6-4.4-15-8.6-22.5-13C115.9,46.8,115.9,55.2,115.9,64z
		 M184.9,38c-7.6,4.4-15,8.6-22.6,13c7.6,4.4,15,8.6,22.6,13C184.9,55.2,184.9,46.8,184.9,38z M0.7,51c7.7,4.4,15.1,8.6,22.6,12.9
		c0-8.7,0-17.1,0-25.7C15.7,42.4,8.3,46.6,0.7,51z M57.7,97.4c-7.6-4.3-15-8.6-22.5-12.8c0,8.6,0,17,0,25.6
		C42.7,105.9,50.1,101.7,57.7,97.4z M81.6,97.4c7.4,4.3,14.8,8.5,22.3,12.8c0-8.7,0-17.1,0-25.7C96.4,88.9,89,93.1,81.6,97.4z
		 M219.2,97.4c-7.5-4.3-14.8-8.5-22.4-12.9c0,8.6,0,17,0,25.7C204.4,105.9,211.7,101.7,219.2,97.4z M139.2,143.7
		c3.6,2.1,7.1,4.1,10.5,6.1c0.4,0.2,1.1,0.1,1.5-0.1c2-1.1,4-2.3,6-3.4c1.4-0.8,2.8-1.7,4.3-2.6c-3.3-1.9-6.4-3.6-9.5-5.5
		c-1.2-0.7-2-0.7-3.2,0C145.8,140,142.6,141.8,139.2,143.7z M139.5,50.9c0.1,0.2,0.1,0.3,0.2,0.3c3.4,2,6.8,4,10.3,5.9
		c0.3,0.2,0.9,0.1,1.3-0.1c0.9-0.5,1.8-1,2.7-1.6c2.5-1.4,5-2.9,7.6-4.4c-0.4-0.3-0.6-0.5-0.9-0.6c-3.1-1.8-6.2-3.5-9.2-5.4
		c-0.7-0.4-1.3-0.4-1.9,0c-1.5,0.9-3.1,1.8-4.7,2.7C143,48.8,141.2,49.8,139.5,50.9z M185.3,129.8c0.3,0,0.5,0,0.5-0.1
		c3.4-1.9,6.8-3.9,10.1-5.9c0.3-0.1,0.4-0.7,0.4-1c0-3.5,0-7,0-10.5c0-0.4,0-0.9,0-1.5c-3.7,2.1-7.2,4.1-10.6,6.1
		c-0.2,0.1-0.5,0.6-0.5,0.8C185.2,121.8,185.3,125.8,185.3,129.8z M104.4,83.7c0.6-0.3,0.9-0.5,1.3-0.7c3-1.7,5.9-3.5,8.9-5.1
		c0.7-0.4,0.9-0.9,0.9-1.6c0-3.6,0-7.1,0-10.7c0-0.2-0.1-0.5-0.1-0.7c-0.1,0-0.2,0-0.2,0c-3.5,2-6.9,3.9-10.4,5.9
		c-0.2,0.1-0.3,0.4-0.3,0.7C104.4,75.5,104.4,79.5,104.4,83.7z M196.3,83.7c0-0.4,0.1-0.7,0.1-0.9c0-3.7,0-7.4,0-11.2
		c0-0.4-0.4-0.8-0.7-1.1c-1.7-1-3.4-2-5.2-3c-1.7-1-3.4-1.9-5.2-3c0,4.2,0,8.2,0,12.2c0,0.3,0.2,0.6,0.4,0.7
		C189.1,79.6,192.6,81.6,196.3,83.7z M185.3,37.2c0.3,0,0.4,0,0.4,0c3.4-2,6.8-3.9,10.1-5.9c0.3-0.2,0.5-0.7,0.5-1c0-3.5,0-7,0-10.6
		c0-0.4-0.1-0.9-0.1-1.4c-3.5,2-6.9,4-10.3,5.9c-0.3,0.2-0.7,0.6-0.7,0.9C185.2,29.2,185.3,33.2,185.3,37.2z M115.5,37.4
		c0-4.2,0-8.2,0-12.1c0-0.4-0.4-0.8-0.7-1c-2.4-1.5-4.8-2.8-7.3-4.3c-1-0.6-1.9-1.1-3.1-1.7c0,3.7,0.1,7.3,0,10.8
		c0,1.3,0.2,2.2,1.5,2.9C109.1,33.6,112.1,35.5,115.5,37.4z M58.7,97.3c0.2,0.2,0.3,0.3,0.4,0.4c3.3,1.9,6.6,3.9,9.9,5.7
		c0.3,0.2,0.9,0.2,1.2,0c1.8-1,3.7-2.1,5.5-3.2c1.6-0.9,3.2-1.9,4.9-2.8c-0.4-0.3-0.5-0.4-0.7-0.5c-3.2-1.9-6.4-3.7-9.6-5.6
		c-0.3-0.2-0.8-0.1-1.1,0c-0.9,0.5-1.8,1-2.7,1.6C63.8,94.3,61.3,95.8,58.7,97.3z M104.4,111c0,4.3,0,8.3,0,12.3
		c0,0.2,0.3,0.6,0.5,0.7c2,1.2,4.1,2.4,6.2,3.6c1.3,0.8,2.7,1.5,4.2,2.3c0.1-0.6,0.1-1.1,0.1-1.5c0-2.2,0-4.4,0-6.6
		c0-1.5,0.4-3.3-0.2-4.5c-0.7-1.1-2.5-1.6-3.8-2.4C109.1,113.7,106.9,112.5,104.4,111z M23.7,37.4c3.7-2.1,7.2-4.1,10.7-6.2
		c0.2-0.1,0.4-0.6,0.4-0.9c0-2.8,0-5.6,0-8.3c0-1.2,0-2.3,0-3.5c-0.3,0-0.4,0-0.5,0.1c-3.1,1.8-6.2,3.6-9.3,5.4
		c-0.9,0.5-1.3,1-1.2,2.2C23.8,29.8,23.7,33.4,23.7,37.4z M23.8,64.7c0,0.4-0.1,0.6-0.1,0.7c0,3.8-0.1,7.6,0,11.4
		c0,0.3,0.3,0.8,0.6,1c2.4,1.5,4.9,2.9,7.4,4.3c0.9,0.5,1.9,1,3,1.6c0-4.2,0-8.3,0-12.3c0-0.2-0.3-0.6-0.6-0.7
		c-1.6-1-3.2-1.9-4.9-2.8C27.5,66.8,25.7,65.8,23.8,64.7z M34.7,111.1c-0.5,0.2-0.9,0.4-1.1,0.5c-3,1.7-6,3.5-9,5.2
		c-0.7,0.4-0.8,0.8-0.8,1.5c0,3.5,0,7,0,10.6c0,0.3,0.1,0.6,0.1,1.1c3.6-2.1,7-4.1,10.5-6.1c0.2-0.1,0.4-0.5,0.4-0.8
		C34.7,119.1,34.7,115.2,34.7,111.1z M139.7,78.3L139.7,78.3c3.3,6.1,6.8,12,10.4,18.2c0.2-0.4,0.3-0.5,0.3-0.6c0-3.7,0-7.4,0-11.1
		c0-0.2-0.3-0.6-0.5-0.7c-1.3-0.8-2.6-1.5-3.8-2.3C143.9,80.7,141.8,79.5,139.7,78.3z M139.7,116.1c0.1,0.1,0.1,0.1,0.2,0.2
		c3.2-1.9,6.5-3.8,9.7-5.6c0.6-0.3,0.7-0.6,0.7-1.3c0-3.3,0-6.6,0-9.9c0-0.4-0.1-0.8-0.1-1.2c-0.1,0-0.2,0-0.3-0.1
		C146.5,104.3,143.1,110.3,139.7,116.1z M139.6,23.6c0,0.1,0.1,0.1,0.1,0.2c3.4-2,6.9-3.9,10.3-6c0.2-0.1,0.3-0.6,0.3-0.9
		c0-3.4,0-6.7,0-10.1c0-0.3-0.1-0.6-0.1-1c-0.1,0-0.2-0.1-0.3-0.1C146.5,11.7,143.1,17.6,139.6,23.6z M91.6,89.9
		c0.1-0.1,0.2-0.1,0.3-0.2C88.4,83.8,85,78,81.5,72.1c-0.1,0-0.2,0.1-0.3,0.1c0,2.8,0.2,5.5,0,8.3c-0.2,2.5,0.2,4.4,3,5.1
		c0.1,0,0.2,0.1,0.3,0.2C86.8,87.1,89.2,88.5,91.6,89.9z M91.8,12.4c-0.1-0.1-0.2-0.1-0.2-0.2c-3.3,1.8-6.5,3.6-9.8,5.5
		c-0.3,0.2-0.6,0.8-0.6,1.2c-0.1,2,0,4,0,6c0,1.7,0,3.3,0,5c0.1,0,0.2,0.1,0.3,0.1C85,24.1,88.4,18.3,91.8,12.4z M91.9,105.1
		c-0.1-0.1-0.1-0.1-0.2-0.2c-3.3,1.8-6.7,3.7-10,5.6c-0.3,0.2-0.5,0.8-0.5,1.2c-0.1,2.6-0.1,5.2-0.1,7.9c0,1,0,2.1,0,3.1
		c0.1,0,0.3,0,0.4,0.1C85,116.7,88.4,110.9,91.9,105.1z M115.9,76c0.2,0,0.3,0.1,0.5,0.1c3.4-5.9,6.9-11.8,10.4-17.9
		c-3.6,2-6.9,3.9-10.2,5.8c-0.3,0.2-0.6,0.7-0.6,1c-0.1,2.8-0.1,5.6-0.1,8.4C115.9,74.3,115.9,75.2,115.9,76z M209.1,104.2
		c0.4,0.3,0.5,0.5,0.7,0.6c3.1,1.8,6.3,3.5,9.4,5.2c0.3,0.2,0.8,0.1,1.1-0.1c3.1-1.7,6.1-3.5,9.2-5.2c0.2-0.1,0.4-0.1,0.6-0.2
		c-0.1-0.1-0.2-0.2-0.3-0.3C223.1,104.2,216.2,104.2,209.1,104.2z M70.9,104.2c0,0.1,0,0.2-0.1,0.2c3.3,1.9,6.6,3.8,9.9,5.7
		c0.2,0.1,0.6,0,0.8-0.1c2.9-1.6,5.8-3.2,8.7-4.9c0.4-0.2,0.8-0.5,1.3-0.8c0-0.1-0.1-0.1-0.1-0.2C84.5,104.2,77.7,104.2,70.9,104.2z
		 M184.5,76.2c0.1,0,0.3-0.1,0.4-0.1c0-0.3,0-0.5,0-0.8c0-2.9-0.1-5.7,0-8.6c0.1-1.8-0.2-3-2.1-3.5c-0.5-0.1-0.9-0.5-1.3-0.7
		c-2.4-1.4-4.8-2.8-7.1-4.1c-0.1,0.1-0.1,0.1-0.2,0.2C177.6,64.4,181,70.3,184.5,76.2z M105.5,97.6c0,0.1-0.1,0.2-0.1,0.3
		c3.3,1.9,6.6,3.8,9.9,5.6c0.2,0.1,0.7,0,0.9-0.1c3.1-1.7,6.3-3.5,9.4-5.3c0.1-0.1,0.2-0.2,0.4-0.5
		C119.1,97.6,112.3,97.6,105.5,97.6z M46.6,89.3c0.1,0,0.2,0.1,0.3,0.1c3.5-5.8,7-11.7,10.6-17.8c-0.5,0.2-0.7,0.2-0.8,0.3
		c-2.5,1.4-5,3-7.6,4.2c-2,0.9-2.7,2.2-2.5,4.4C46.8,83.5,46.6,86.4,46.6,89.3z M91.7,144c-7.1,0-14,0-20.8,0c3.2,2.1,6.5,4,9.8,5.9
		c0.2,0.1,0.7,0,0.9-0.1c1.4-0.7,2.7-1.5,4.1-2.2C87.6,146.4,89.5,145.2,91.7,144z M46.9,105.3c-0.1,0-0.2,0-0.3,0.1
		c0,3.8,0,7.6,0,11.4c0,0.3,0.4,0.7,0.8,0.9c2.3,1.3,4.6,2.6,6.8,3.8c1,0.5,1.9,1.1,2.9,1.6c0.1-0.1,0.1-0.1,0.2-0.2
		C53.9,116.9,50.4,111.1,46.9,105.3z M209.1,143.9c0.4,0.3,0.5,0.5,0.7,0.6c3.1,1.7,6.2,3.5,9.3,5.2c0.3,0.2,1,0.1,1.4-0.1
		c1.8-1,3.5-2,5.3-3c1.4-0.8,2.8-1.6,4.2-2.4c0-0.1-0.1-0.1-0.1-0.2C223.1,143.9,216.2,143.9,209.1,143.9z M174,136.4
		c3.6-2,6.9-3.8,10.2-5.7c0.4-0.2,0.7-0.8,0.7-1.3c0-3.3,0-6.7,0-10c0-0.3-0.1-0.6-0.1-0.8c-0.1,0-0.2-0.1-0.3-0.1
		C181,124.3,177.6,130.2,174,136.4z M57.1,30.3c0.1-0.1,0.1-0.1,0.2-0.2c-3.5-5.9-6.9-11.7-10.5-17.7c-0.2,0.2-0.2,0.3-0.2,0.4
		c0,3.7,0,7.4,0,11c0,0.3,0.3,0.7,0.6,0.8c1.2,0.7,2.5,1.4,3.8,2.1C53.1,28,55.1,29.2,57.1,30.3z M174.2,43.2
		c0.1,0.1,0.1,0.1,0.2,0.2c0.2-0.1,0.3-0.1,0.5-0.2c3.1-1.7,6.2-3.5,9.3-5.3c0.4-0.2,0.7-0.8,0.7-1.2c0.1-3.3,0-6.7,0-10
		c0-0.3-0.1-0.6-0.1-0.9c-0.1,0-0.2-0.1-0.3-0.1C181,31.7,177.6,37.5,174.2,43.2z M47.5,12.1c-0.1,0.1-0.1,0.1-0.2,0.2
		c3.5,5.9,6.9,11.7,10.4,17.6c0.2-3.8,0.2-7.5,0.2-11.1c0-0.4-0.3-0.9-0.6-1.1C54,15.8,50.8,14,47.5,12.1z M209.2,11.6
		c0.3,0.3,0.5,0.4,0.6,0.5c3.1,1.8,6.3,3.5,9.4,5.3c0.3,0.2,0.8,0.1,1.1-0.1c1.7-0.9,3.4-1.9,5.1-2.9c1.5-0.9,3-1.7,4.5-2.6
		c0-0.1,0-0.1-0.1-0.2C223.1,11.6,216.2,11.6,209.2,11.6z M70.5,90.4c7.3,0,14.1,0,21.3,0c-2.8-1.6-5.3-3-7.7-4.5
		c-2.2-1.4-4-1.5-6.1,0.2C75.8,87.7,73.2,88.9,70.5,90.4z M116.2,118.3c-0.1,0.1-0.3,0.1-0.4,0.2c0,0.3,0,0.6,0,0.9
		c0,3.4,0,6.8,0.1,10.2c0,0.3,0.2,0.8,0.5,0.9c2.9,1.7,5.8,3.3,8.7,5c0.4,0.2,0.8,0.4,1.3,0.6c0-0.1,0.1-0.1,0.1-0.2
		C123.1,130.1,119.7,124.2,116.2,118.3z M173.6,135.8c0.1,0,0.1,0.1,0.2,0.1c3.5-6,6.9-11.9,10.6-18.2c-3.2,1.8-6.1,3.6-9.1,5.2
		c-1.2,0.6-1.8,1.3-1.7,2.7C173.7,129.1,173.6,132.4,173.6,135.8z M185,103.8c3.6-2.1,6.9-4,10.2-6c0-0.1-0.1-0.1-0.1-0.2
		c-6.8,0-13.6,0-20.4,0c0,0.1-0.1,0.2-0.1,0.3C178.2,99.9,181.6,101.9,185,103.8z M47.5,104.8c-0.1,0.1-0.1,0.1-0.2,0.2
		c3.5,5.9,7,11.7,10.4,17.6c0.2-3.8,0.2-7.5,0.2-11.3c0-0.3-0.3-0.7-0.6-0.9C54,108.5,50.8,106.7,47.5,104.8z M70.9,11.5
		c0,0.1,0,0.1-0.1,0.2c3.3,1.9,6.6,3.8,9.9,5.7c0.2,0.1,0.7,0,0.9-0.2c3.1-1.7,6.2-3.5,9.3-5.2c0.2-0.1,0.3-0.3,0.6-0.5
		C84.5,11.5,77.8,11.5,70.9,11.5z M47.3,89.7c0.3,0,0.4,0.1,0.4,0c3.2-1.8,6.5-3.6,9.7-5.5c0.3-0.2,0.5-0.7,0.5-1
		C58,79.7,58,76.1,58,72.6c0-0.1-0.1-0.3-0.2-0.5C54.2,78,50.8,83.8,47.3,89.7z M208.8,89.7c0.1,0.1,0.1,0.1,0.2,0.2
		c3.3-1.8,6.5-3.7,9.8-5.5c0.6-0.3,0.8-0.8,0.8-1.4c0-3.2,0-6.4,0-9.6c0-0.4,0-0.8,0.1-1.2c-0.1,0-0.2-0.1-0.3-0.1
		C215.8,78,212.3,83.9,208.8,89.7z M184.1,25.5c0-0.1-0.1-0.1-0.1-0.2c-3.3,1.9-6.6,3.8-9.9,5.7c-0.3,0.2-0.5,0.6-0.5,0.9
		c0,3.7,0,7.5,0,11.2c0.1,0,0.1,0.1,0.2,0.1C177.2,37.4,180.7,31.4,184.1,25.5z M11.3,43.1c0.1,0,0.2-0.1,0.3-0.1
		c0-3.6,0-7.1,0-10.7c0-0.8-0.2-1.3-1-1.7c-1.8-1-3.6-2.1-5.4-3.1c-1.3-0.8-2.6-1.5-4-2.2c0,0.1-0.1,0.1-0.1,0.2
		C4.6,31.5,7.9,37.3,11.3,43.1z M47.6,104.2c0.3,0.3,0.3,0.4,0.4,0.4c3.2,1.8,6.4,3.7,9.7,5.5c0.3,0.1,0.7,0.1,1-0.1
		c2.2-1.2,4.4-2.5,6.6-3.7c1-0.6,2.1-1.3,3.3-2C61.5,104.2,54.6,104.2,47.6,104.2z M209.3,51.2c0,0.1,0,0.2-0.1,0.3
		c3.4,1.9,6.7,3.8,10.1,5.6c0.2,0.1,0.7,0,0.9-0.1c1.9-1.1,3.8-2.2,5.7-3.2c1.4-0.8,2.7-1.6,4.3-2.5
		C223.1,51.2,216.2,51.2,209.3,51.2z M104.8,70.3c3.6-2.1,6.9-3.9,10.1-5.9c0.3-0.2,0.5-0.8,0.5-1.2c0.1-3.3,0-6.5,0.1-9.8
		c0-0.4,0-0.8-0.1-1.6C111.8,58.1,108.3,64,104.8,70.3z M209.3,90.3c0,0.1,0,0.1,0.1,0.2c6.9,0,13.8,0,20.9,0
		c-3.6-2.1-6.9-4-10.2-5.9c-0.2-0.1-0.5-0.1-0.7,0C216,86.5,212.6,88.4,209.3,90.3z M69.2,49.8c0.1,0,0.2,0,0.3-0.1
		c0-0.3,0-0.6,0-0.9c0-3.3,0-6.7,0-10c0-0.8-0.3-1.2-0.9-1.5c-2.2-1.2-4.3-2.5-6.5-3.8c-1-0.6-2.1-1.1-3.3-1.8
		C62.3,38,65.8,43.9,69.2,49.8z M151.5,5.5c-0.1,0-0.1,0.1-0.2,0.1c3.4,5.9,6.8,11.7,10.2,17.7c0.1-0.2,0.2-0.3,0.2-0.3
		c0-3.6,0-7.1,0-10.7c0-0.8-0.5-1.2-1-1.5C157.6,9,154.6,7.3,151.5,5.5z M126.4,43.5c0.1-0.1,0.1-0.1,0.2-0.2
		c-3.4-5.9-6.9-11.8-10.3-17.8c-0.1,0.1-0.2,0.1-0.3,0.2c0,0.5,0,1,0,1.5c0,3.2,0,6.4,0,9.5c0,0.4,0.3,0.9,0.6,1.1
		c1.1,0.7,2.3,1.2,3.4,1.9C122,41,124.2,42.2,126.4,43.5z M208.9,104.8c-0.1,0-0.1,0.1-0.2,0.1c3.5,5.9,7,11.8,10.5,17.7
		c0.2-3.9,0.3-7.7,0.2-11.5c0-0.3-0.4-0.7-0.7-0.9C215.5,108.5,212.2,106.6,208.9,104.8z M184.3,76.8c-3.6-6.2-7.1-12.1-10.5-18
		c-0.2,3.6-0.2,7.2-0.3,10.7c0,0.9,0.4,1.5,1.2,1.9c2.2,1.2,4.3,2.4,6.4,3.6C182.1,75.6,183.1,76.2,184.3,76.8z M105.2,98.2
		c-0.1,0.1-0.1,0.1-0.2,0.2c3.4,5.9,6.8,11.8,10.2,17.6c0.2-3.8,0.2-7.6,0.2-11.3c0-0.3-0.2-0.7-0.5-0.8
		C111.7,102,108.4,100.1,105.2,98.2z M137.9,25.7c-0.1-0.1-0.1-0.1-0.2-0.2c-0.2,0.1-0.3,0.1-0.5,0.2c-2.9,1.7-5.9,3.4-8.8,5.1
		c-0.7,0.4-0.9,0.9-0.9,1.6c0,2.7,0,5.3,0,8c0,0.9,0,1.8,0,2.7c0.1,0,0.2,0,0.3,0C131.2,37.3,134.5,31.5,137.9,25.7z M91.5,50.7
		c-0.1-0.2-0.2-0.3-0.3-0.3c-3.3-1.8-6.5-3.7-9.8-5.5c-0.3-0.2-0.8-0.1-1.2,0.1c-2.8,1.5-5.5,3.1-8.2,4.7c-0.4,0.3-0.9,0.5-1.6,1
		C77.8,50.7,84.5,50.7,91.5,50.7z M105.2,32c-0.1,0-0.1,0.1-0.2,0.1c3.4,5.9,6.8,11.8,10.2,17.7c0.3-3.9,0.3-7.7,0.2-11.5
		c0-0.3-0.3-0.6-0.5-0.8C111.6,35.7,108.4,33.9,105.2,32z M127.5,135.6c0.1,0,0.2,0.1,0.3,0.1c3.4-5.9,6.8-11.7,10.1-17.6
		c-3.4,1.7-6.7,3.6-9.9,5.5c-0.3,0.2-0.6,0.6-0.6,0.9C127.5,128.2,127.5,131.9,127.5,135.6z M105.5,4.9c0,0.1,0,0.2,0,0.2
		c0.3,0.2,0.6,0.3,0.9,0.5c2.8,1.6,5.6,3.3,8.5,4.9c0.4,0.2,1,0.2,1.3,0.1c2.4-1.2,4.7-2.5,7.1-3.9c1-0.5,1.9-1.1,3.1-1.8
		C119.2,4.9,112.3,4.9,105.5,4.9z M69.5,52.3c-0.1,0-0.2-0.1-0.3-0.1c-3.5,5.9-6.9,11.8-10.3,17.7c3.4-1.8,6.8-3.7,10-5.6
		c0.3-0.1,0.5-0.5,0.5-0.8C69.5,59.7,69.5,56,69.5,52.3z M1.2,76.5c0.1,0.1,0.1,0.1,0.2,0.2c3.3-1.9,6.5-3.8,9.7-5.7
		c0.3-0.2,0.5-0.8,0.5-1.3c0-2.7,0-5.5,0-8.2c0-0.9,0-1.7,0-2.6c-0.1,0-0.2,0-0.3,0C7.9,64.7,4.6,70.6,1.2,76.5z M115.3,142.6
		c0.1-0.7,0.1-1.1,0.1-1.5c0-3.1,0-6.3,0-9.4c0-0.9-0.2-1.4-1-1.8c-3-1.7-5.9-3.4-8.8-5.1c-0.1-0.1-0.3-0.1-0.7-0.2
		C108.4,130.7,111.8,136.6,115.3,142.6z M219.3,30c0.1,0,0.2-0.1,0.2-0.1c0-3.8,0-7.6,0-11.3c0-0.3-0.3-0.7-0.6-0.8
		c-2-1.2-4.1-2.3-6.1-3.4c-1.2-0.7-2.4-1.4-3.7-2.1c-0.1,0.1-0.2,0.2-0.2,0.2C212.3,18.3,215.8,24.1,219.3,30z M33.6,97.9
		c0-0.1-0.1-0.1-0.1-0.2c-6.8,0-13.6,0-20.3,0c2.6,1.7,5.3,3,7.9,4.7c1.7,1.1,3.1,1.3,4.8,0C28.3,100.8,31,99.4,33.6,97.9z
		 M70.9,51.2c0,0.1,0,0.1,0,0.2c3.2,1.9,6.5,3.8,9.7,5.6c0.3,0.1,0.7,0.1,1,0c3.1-1.7,6.3-3.5,9.4-5.3c0.2-0.1,0.4-0.3,0.7-0.5
		C84.5,51.2,77.8,51.2,70.9,51.2z M161.7,78.9c-0.1,0-0.2-0.1-0.3-0.1c-3.4,5.9-6.8,11.8-10.4,18c3.5-2,6.7-3.8,9.8-5.7
		c0.4-0.2,0.8-0.8,0.8-1.2C161.7,86.2,161.7,82.5,161.7,78.9z M151.5,98.2c0,0.1-0.1,0.1-0.1,0.2c3.4,5.9,6.8,11.7,10.3,17.9
		c0.1-0.5,0.1-0.7,0.1-0.9c0-3.1-0.1-6.3,0-9.4c0.1-1.3-0.2-2.2-1.5-2.7c-0.9-0.4-1.8-1-2.6-1.5C155.6,100.6,153.6,99.4,151.5,98.2z
		 M11.3,135.8c0.1,0,0.2-0.1,0.3-0.1c0-3.7,0-7.3,0-11c0-0.4-0.4-1-0.8-1.3c-2-1.2-4-2.4-6.1-3.6c-1.2-0.7-2.3-1.3-3.8-2.2
		C4.6,124,7.9,129.9,11.3,135.8z M137.8,76.6c0.1-0.1,0.1-0.1,0.2-0.2c-3.4-5.9-6.8-11.7-10.2-17.6c-0.2,3.8-0.3,7.4-0.2,11
		c0,0.4,0.2,0.9,0.6,1.1C131.3,72.9,134.5,74.8,137.8,76.6z M68.3,144.2c0-0.1-0.1-0.1-0.1-0.2c-6.8,0-13.6,0-20.7,0
		c0.3,0.3,0.4,0.4,0.6,0.4c3.2,1.8,6.3,3.6,9.5,5.3c0.3,0.2,0.8,0.1,1.1,0c1.2-0.6,2.3-1.2,3.4-1.9
		C64.1,146.6,66.2,145.4,68.3,144.2z M59.1,124.6c0,0.1-0.1,0.1-0.1,0.2c3.4,5.9,6.8,11.8,10.3,17.7c0.2-3.6,0.2-7.1,0.3-10.5
		c0-1-0.2-1.6-1.2-2.1c-2.2-1.2-4.3-2.5-6.5-3.7C60.9,125.6,60,125.1,59.1,124.6z M207.6,89.5c0.1,0,0.2-0.1,0.3-0.1
		c0-3.7,0-7.4,0-11.1c0-0.3-0.3-0.8-0.6-1c-2-1.2-4-2.3-6-3.5c-1.3-0.7-2.5-1.5-3.8-2.2c0,0.1-0.1,0.1-0.1,0.2
		C200.8,77.7,204.2,83.6,207.6,89.5z M92.5,12.6c-0.1,0-0.2,0-0.2-0.1c-3.4,5.9-6.9,11.8-10.3,17.7c3.4-1.7,6.7-3.6,10-5.5
		c0.3-0.2,0.5-0.7,0.5-1.1c0.1-2.3,0-4.6,0-6.9C92.5,15.3,92.5,14,92.5,12.6z M209.3,50.5c0,0.1,0,0.2,0.1,0.3c6.9,0,13.8,0,20.7,0
		c-0.1-0.1-0.1-0.2-0.1-0.2c-3.2-1.9-6.5-3.8-9.7-5.6c-0.2-0.1-0.7-0.1-0.9,0C215.9,46.7,212.6,48.6,209.3,50.5z M115.4,78.8
		c-0.1,0-0.2,0-0.3-0.1c-3.4,5.8-6.7,11.7-10.2,17.7c0.3,0,0.4,0,0.4,0c3.2-1.8,6.3-3.6,9.4-5.5c0.3-0.2,0.5-0.6,0.5-0.9
		c0.1-2.8,0.1-5.6,0.1-8.5C115.4,80.6,115.4,79.7,115.4,78.8z M174.6,4.9c0.2,0.2,0.3,0.3,0.3,0.4c2.9,1.7,5.9,3.2,8.8,5
		c1.2,0.7,2,0.5,3.1-0.1c1.2-0.8,2.6-1.5,3.9-2.2c1.6-0.9,3.1-1.8,4.7-2.8c0-0.1-0.1-0.1-0.1-0.2C188.3,4.9,181.5,4.9,174.6,4.9z
		 M12,135.6c0.1,0,0.2,0.1,0.3,0.1c3.5-5.8,7-11.7,10.4-17.5c-3.4,1.6-6.6,3.5-9.8,5.2c-0.6,0.3-0.9,0.7-0.9,1.5
		c0.1,1.9,0,3.8,0,5.6C12,132.2,12,133.9,12,135.6z M151.9,57.8c0,0.1,0,0.2-0.1,0.3c3.2,1.9,6.4,3.7,9.6,5.5
		c0.3,0.2,0.9,0.1,1.2-0.1c3.1-1.7,6.2-3.5,9.3-5.3c0.1-0.1,0.3-0.2,0.5-0.4C165.4,57.8,158.6,57.8,151.9,57.8z M91.9,91
		c-7.3,0-14.2,0-21.2,0c0.1,0.2,0.2,0.3,0.3,0.3c2.4,1.4,4.9,2.7,7.3,4.3c1.8,1.2,3.4,1.8,5.2,0.2h0.1C86.2,94.2,88.9,92.7,91.9,91z
		 M186.2,143.9c0.4,0.3,0.5,0.5,0.6,0.6c3.1,1.8,6.2,3.6,9.3,5.3c0.3,0.2,0.8,0.1,1.1-0.1c1.9-1,3.7-2.2,5.6-3.2
		c1.4-0.8,2.7-1.6,4.1-2.4c0-0.1-0.1-0.1-0.1-0.2C200.1,143.9,193.3,143.9,186.2,143.9z M45.5,12.4c0-0.1-0.1-0.2-0.2-0.2
		c-3.2,1.8-6.4,3.6-9.6,5.5c-0.3,0.2-0.6,0.8-0.6,1.3c-0.1,2.9,0,5.8,0,8.7c0,0.7,0,1.5,0,2.2c0.1,0,0.2,0,0.3,0
		C38.8,24.1,42.2,18.2,45.5,12.4z M195.2,97.1c-0.1-0.2-0.1-0.3-0.2-0.3c-3.2-1.9-6.3-3.7-9.5-5.5c-0.3-0.2-0.8,0-1.1,0.1
		c-1.6,0.8-3.1,1.6-4.6,2.5c-1.7,1-3.5,2-5.2,3c0,0.1,0.1,0.1,0.1,0.2C181.5,97.1,188.3,97.1,195.2,97.1z M70.9,10.8
		c0,0.1,0,0.1,0.1,0.2c6.8,0,13.7,0,20.5,0c-3.3-2.1-6.6-4-10-5.8c-0.2-0.1-0.6-0.1-0.8,0C77.4,7,74.1,8.9,70.9,10.8z M24.8,143.9
		c-0.1,0.1-0.1,0.2-0.2,0.3c0.2,0,0.3,0,0.5,0.1c3,1.7,6.1,3.4,9,5.2c0.7,0.4,1.2,0.4,1.9,0c2.5-1.5,4.9-2.9,7.4-4.3
		c0.6-0.4,1.3-0.8,2.1-1.3C38.3,143.9,31.6,143.9,24.8,143.9z M197.4,30.1c0.1,0.1,0.1,0.1,0.2,0.2c3.3-1.9,6.6-3.8,9.9-5.7
		c0.3-0.2,0.4-0.7,0.4-1.1c0-1.9,0-3.8,0-5.6c0-1.7,0-3.5,0-5.2c-0.1,0-0.2-0.1-0.3-0.1C204.2,18.4,200.8,24.3,197.4,30.1z
		 M230,91.2c0-0.1,0-0.2-0.1-0.3c-6.9,0-13.8,0-20.7,0c0,0.1-0.1,0.1-0.1,0.2c3.5,2,7.1,4,10.6,5.9C223.2,95.1,226.6,93.2,230,91.2z
		 M195.7,5.7c-0.2-0.1-0.3-0.1-0.3-0.1c-3.2,1.9-6.5,3.7-9.7,5.6c-0.2,0.1-0.4,0.5-0.4,0.7c0,3.8,0,7.6,0,11.3c0.1,0,0.2,0,0.2,0.1
		C188.9,17.5,192.3,11.6,195.7,5.7z M103.7,122.6c0.1,0,0.2,0,0.3-0.1c0-3.8,0-7.7,0-11.5c0-0.2-0.3-0.5-0.6-0.6
		c-2.4-1.4-4.8-2.8-7.2-4.2c-0.8-0.5-1.7-0.9-2.5-1.4c-0.1,0.1-0.1,0.1-0.2,0.2C96.9,110.9,100.3,116.7,103.7,122.6z M197.3,122.9
		c0.2-0.1,0.4,0,0.4-0.1c3.2-1.8,6.4-3.6,9.5-5.5c0.3-0.2,0.5-0.8,0.5-1.3c0-2.7,0-5.4,0-8.1c0-0.9,0-1.8,0-2.7c-0.1,0-0.2,0-0.3,0
		C204.2,111.1,200.8,116.9,197.3,122.9z M195.7,124.8c-0.1,0-0.1-0.1-0.2-0.1c-3.1,1.8-6.3,3.7-9.4,5.4c-0.6,0.3-0.8,0.6-0.8,1.3
		c0,2.7,0,5.5,0,8.2c0,0.9,0,1.9,0,2.8c0.1,0,0.2,0,0.2,0C188.9,136.6,192.3,130.7,195.7,124.8z M149.3,96.6c0.1,0,0.1-0.1,0.2-0.1
		c-3.4-5.9-6.8-11.8-10.3-17.9c-0.1,0.3-0.2,0.5-0.2,0.6c0,3.5,0,7.1,0,10.6c0,0.5,0.4,1.1,0.9,1.3C143,93,146.2,94.7,149.3,96.6z
		 M45.7,104.9c-0.2,0-0.3,0-0.4,0c-3.2,1.8-6.4,3.6-9.5,5.5c-0.4,0.2-0.6,0.9-0.6,1.4c-0.1,2.7,0,5.3,0,8c0,0.9,0,1.9,0,2.8
		c0.1,0,0.2,0,0.3,0C38.8,116.7,42.2,110.9,45.7,104.9z M35.4,72.1c-0.1,0-0.2,0.1-0.3,0.1c0,3.7,0,7.4,0,11.2
		c0,0.4,0.5,0.9,0.8,1.1c2.2,1.3,4.4,2.6,6.6,3.8c1,0.6,1.9,1.1,2.9,1.7c0.1-0.1,0.1-0.1,0.2-0.2C42.2,83.9,38.8,78,35.4,72.1z
		 M195.8,32.1L195.8,32.1c-3.4,1.8-6.7,3.7-9.9,5.6c-0.3,0.2-0.6,0.7-0.6,1.1c0,2.8,0,5.6,0,8.5c0,0.9,0,1.7,0,2.6
		c0.1,0,0.2,0,0.3,0C189,43.8,192.4,37.9,195.8,32.1z M185.4,52c-0.1,0.5-0.2,0.6-0.2,0.8c0,3.5,0,7.1,0,10.6c0,0.4,0.4,0.9,0.7,1.2
		c1.1,0.8,2.3,1.4,3.5,2.1c2,1.2,4.1,2.3,6.3,3.6C192.4,64.1,189,58.1,185.4,52z M68.7,90.5c-0.6-0.4-0.9-0.6-1.2-0.7
		c-2.8-1.6-5.6-3.1-8.3-4.8c-0.9-0.5-1.5-0.4-2.3,0.1c-2.3,1.4-4.8,2.7-7.2,4c-0.8,0.4-1.5,0.9-2.5,1.5
		C54.5,90.5,61.4,90.5,68.7,90.5z M105.1,97.1c7.2,0,14,0,20.8,0c-3-2-6.2-3.8-9.3-5.6c-0.8-0.5-1.6-0.4-2.3,0.2
		c-0.6,0.5-1.3,0.8-2,1.2C110.1,94.2,107.8,95.6,105.1,97.1z M12.7,58.4c-0.1,0.1-0.1,0.1-0.2,0.2c3.5,5.9,7.1,11.8,10.7,18
		c0-4,0-7.6,0-11.3c0-0.4-0.2-1-0.5-1.1C19.4,62.1,16,60.3,12.7,58.4z M12.2,58.9c-0.1,0-0.1,0.1-0.2,0.1c0,3.6,0.1,7.1,0,10.7
		c0,0.9,0.3,1.3,0.9,1.6c2.3,1.2,4.5,2.5,6.8,3.7c1,0.5,1.9,1.1,2.9,1.7c0.1-0.1,0.1-0.1,0.2-0.2C19.2,70.6,15.7,64.7,12.2,58.9z
		 M185.6,78.7c-0.1,0-0.2,0-0.2,0c0,0.3-0.1,0.6-0.1,0.9c0,2.7,0.1,5.4,0,8.1c-0.1,2,0.4,3.3,2.3,4.2c2.8,1.4,5.4,3.1,8.1,4.6
		c0.1,0,0.1-0.1,0.2-0.1C192.4,90.5,189,84.6,185.6,78.7z M151.8,43.8c0,0.1,0,0.1,0.1,0.2c6.7,0,13.4,0,20.3,0
		c-0.2-0.2-0.3-0.3-0.4-0.4c-3.1-1.8-6.3-3.6-9.4-5.4c-0.2-0.1-0.6-0.1-0.8,0C158.2,40.1,155.1,42,151.8,43.8z M104,72.2
		c-0.1,0-0.2,0-0.3-0.1c-3.4,5.9-6.8,11.7-10.1,17.6c3.5-1.7,6.8-3.6,10-5.5c0.2-0.1,0.4-0.5,0.4-0.8C104,79.7,104,75.9,104,72.2z
		 M149.4,98.4c-0.1-0.1-0.2-0.1-0.2-0.2c-3.2,1.9-6.4,3.7-9.6,5.6c-0.3,0.2-0.5,0.8-0.5,1.3c-0.1,3.2,0,6.4,0,9.7c0,0.4,0,0.8,0,1.2
		c0.1,0,0.2,0,0.3,0C142.7,110.2,146.1,104.3,149.4,98.4z M93.2,12.6c-0.1,0-0.2,0.1-0.3,0.1c0,3.7,0,7.4,0,11
		c0,0.4,0.4,0.9,0.7,1.1c1.5,1,3.1,1.8,4.6,2.7c1.7,1,3.3,1.9,5,2.8c0-0.1,0.1-0.1,0.1-0.2C100,24.3,96.6,18.5,93.2,12.6z
		 M12.6,43.3c0.2,0.1,0.2,0.1,0.2,0.1c3.3-1.8,6.6-3.7,9.9-5.5c0.3-0.2,0.5-0.7,0.5-1c0.1-2.6,0.1-5.2,0.1-7.8c0-1.1,0-2.2,0-3.3
		c-0.1,0-0.2,0-0.3,0C19.5,31.7,16,37.6,12.6,43.3z M149.5,5.6c-0.1,0-0.1-0.1-0.2-0.1c-3.1,1.8-6.1,3.5-9.2,5.3
		c-0.8,0.4-1.2,1-1.2,1.9c0.1,2.5,0,5.1,0,7.6c0,0.9,0,1.9,0,2.8c0.1,0,0.2,0,0.4,0.1C142.7,17.4,146.1,11.5,149.5,5.6z M12,43
		c0.1,0,0.1,0,0.2,0c3.5-5.9,7-11.7,10.5-17.6c-3.3,1.5-6.3,3.2-9.3,4.9c-1,0.5-1.4,1.1-1.4,2.3C12,36.2,12,39.6,12,43z M94,143.9
		c0,0.1,0,0.2-0.1,0.2c3.1,1.8,6.3,3.6,9.4,5.5c0.6,0.4,1,0.4,1.6,0c2.2-1.3,4.4-2.5,6.6-3.8c0.9-0.5,1.9-1.1,2.8-1.7
		c0-0.1-0.1-0.1-0.1-0.2C107.5,143.9,100.8,143.9,94,143.9z M103.7,29.9c0.1,0,0.2-0.1,0.3-0.1c0-3.7,0-7.5,0-11.2
		c0-0.3-0.4-0.7-0.7-0.9c-2.7-1.6-5.3-3.1-8-4.6c-0.5-0.3-1.1-0.6-1.6-0.9c0,0.1-0.1,0.1-0.1,0.2C96.9,18.1,100.3,24,103.7,29.9z
		 M128.8,57.8c0,0.1-0.1,0.2-0.1,0.3c3.3,1.9,6.6,3.8,9.9,5.6c0.2,0.1,0.6,0,0.9-0.2c1.7-0.9,3.3-1.9,5-2.9c1.5-0.9,3-1.8,4.6-2.7
		c0-0.1-0.1-0.2-0.1-0.2C142.2,57.8,135.5,57.8,128.8,57.8z M68.6,51.3c-7.2,0-14.1,0-21.3,0c2.7,1.5,5.4,2.8,7.7,4.4
		c2.1,1.4,3.8,1.6,5.9,0.1C63.3,54.1,65.9,52.8,68.6,51.3z M151.9,97.7c0.1,0.2,0.1,0.3,0.2,0.3c3.1,1.8,6.3,3.7,9.5,5.4
		c0.3,0.2,0.8,0.1,1.1-0.1c1.5-0.8,3-1.7,4.5-2.5c1.7-1,3.4-2,5.4-3.2C165.3,97.7,158.6,97.7,151.9,97.7z M185.3,115.9
		c0.1,0,0.2,0.1,0.3,0.1c3.4-5.9,6.8-11.7,10.1-17.6c-0.1-0.1-0.2-0.1-0.2-0.2c-2.9,1.7-5.8,3.4-8.8,5.1c-1,0.6-1.5,1.2-1.4,2.4
		C185.3,109.1,185.3,112.5,185.3,115.9z M207.2,105c-0.1-0.1-0.1-0.1-0.2-0.2c-3.2,1.9-6.5,3.7-9.7,5.6c-0.3,0.2-0.5,0.8-0.5,1.2
		c0,3.3,0,6.7,0,10c0,0.3,0.1,0.6,0.1,1.3C200.4,116.7,203.8,110.9,207.2,105z M23.2,118.2c-3.7,6.2-7.2,12.1-10.7,18
		c3.5-1.7,6.7-3.5,10-5.4c0.3-0.2,0.7-0.6,0.7-0.9C23.2,126.1,23.2,122.3,23.2,118.2z M47.4,11.5c3.5,2,6.7,3.8,9.9,5.7
		c0.6,0.4,1.1,0.4,1.7,0c2.8-1.6,5.6-3.2,8.3-4.8c0.3-0.2,0.7-0.4,1.3-0.8C61.4,11.5,54.6,11.5,47.4,11.5z M149.3,97.7
		c-7.1,0-13.8,0-20.6,0c0.1,0.2,0.1,0.3,0.1,0.3c3.2,1.8,6.4,3.7,9.5,5.5c0.2,0.1,0.6,0.2,0.8,0C142.5,101.6,145.8,99.7,149.3,97.7z
		 M35.7,122.8c0,0.1,0.1,0.1,0.1,0.2c3.3-1.9,6.6-3.7,9.8-5.7c0.3-0.2,0.5-0.9,0.5-1.3c0-3,0-6,0-8.9c0-0.6,0-1.3,0-1.9
		c-0.1,0-0.2,0-0.3,0C42.6,111.1,39.2,116.9,35.7,122.8z M80,70c0.1-0.1,0.1-0.1,0.2-0.2C76.8,64,73.5,58.1,70,52
		c-0.1,0.5-0.2,0.7-0.2,1c0,3,0.1,6,0,9c-0.1,1.6,0.4,2.4,1.8,3.2C74.5,66.7,77.2,68.4,80,70z M128.7,43.9c0,0.1,0,0.1,0.1,0.2
		c6.7,0,13.5,0,20.2,0c-0.1-0.2-0.1-0.2-0.1-0.3c-3.2-1.9-6.4-3.7-9.7-5.6c-0.2-0.1-0.7,0-1,0.1c-1.8,1-3.6,2-5.4,3.1
		C131.4,42.2,130,43,128.7,43.9z M102.9,122.8c0.1-0.1,0.2-0.2,0.3-0.3c-3.3-5.8-6.7-11.6-10-17.4c-0.3,3.9-0.3,7.6-0.2,11.4
		c0,0.3,0.4,0.7,0.7,0.9c1.4,0.9,2.8,1.7,4.3,2.5C99.5,120.9,101.2,121.8,102.9,122.8z M68.3,50.7c0-0.1,0.1-0.2,0.1-0.2
		c-3.3-1.9-6.5-3.8-9.8-5.6c-0.3-0.2-0.9,0-1.3,0.2c-2.5,1.4-5,2.8-7.6,4.2c-0.7,0.4-1.4,0.8-2.1,1.2c0,0.1,0.1,0.2,0.1,0.2
		C54.6,50.7,61.5,50.7,68.3,50.7z M35.7,30.2c0,0.1,0.1,0.1,0.1,0.2c3.3-1.9,6.6-3.8,9.9-5.7c0.3-0.2,0.5-0.8,0.5-1.2
		c0-3.1,0-6.2,0-9.3c0-0.6,0-1.2,0-1.7c-0.1,0-0.1,0-0.2,0C42.6,18.3,39.2,24.3,35.7,30.2z M81.1,137.3c-3.5,2-6.8,4-10.4,6.1
		c7.2,0,14,0,20.8,0c0-0.1,0-0.1,0-0.2C87.9,141.2,84.4,139.2,81.1,137.3z M92.9,89.4c0.1,0,0.2,0.1,0.3,0.1
		c3.4-5.9,6.8-11.8,10.2-17.7c-3.5,1.8-6.8,3.7-10.1,5.6c-0.2,0.1-0.4,0.5-0.4,0.8C92.9,81.9,92.9,85.7,92.9,89.4z M126.9,43.1
		c0.1,0,0.1-0.1,0.2-0.1c0-3.7,0-7.3,0-11c0-0.4-0.3-0.9-0.6-1.1c-2.5-1.5-5.1-3-7.7-4.5c-0.7-0.4-1.4-0.8-2.3-1.3
		C120,31.4,123.5,37.3,126.9,43.1z M209.4,10.7c0,0.1,0.1,0.2,0.1,0.3c6.8,0,13.6,0,20.4,0c-2.7-1.8-5.5-3.2-8.2-4.9
		c-1.5-1-2.5-0.9-4,0C215,7.7,212.2,9.2,209.4,10.7z M196.8,29.7c0.1,0,0.2,0.1,0.3,0.1c3.4-5.8,6.7-11.7,10.1-17.5
		c-3.4,1.7-6.7,3.6-9.9,5.5c-0.3,0.2-0.5,0.7-0.5,1.1C196.7,22.5,196.8,26.1,196.8,29.7z M196,69.6c0.1,0,0.2-0.1,0.3-0.1
		c0-3.8,0-7.6,0-11.3c0-0.3-0.3-0.6-0.6-0.7c-1.5-0.9-3-1.8-4.5-2.7c-1.7-1-3.3-1.9-5-2.9c-0.1,0.1-0.1,0.1-0.2,0.2
		C189.3,57.9,192.7,63.7,196,69.6z M196.3,125.2c-0.1,0-0.2-0.1-0.3-0.1c-3.4,5.9-6.8,11.8-10.2,17.7c3.4-1.7,6.6-3.6,9.8-5.5
		c0.3-0.2,0.6-0.6,0.7-1C196.4,132.6,196.3,128.9,196.3,125.2z M47.8,10.8c0,0.1,0,0.1,0.1,0.2c6.8,0,13.6,0,20.4,0
		c-2.2-1.5-4.5-2.9-6.8-4.2c-1.2-0.6-2.3-1.8-3.4-1.7c-1.1,0-2.2,1.1-3.4,1.8C52.4,8.1,50.1,9.4,47.8,10.8z M47.8,91
		c0,0.1,0,0.1,0,0.2c3.3,1.9,6.6,3.8,9.9,5.7c0.2,0.1,0.7,0.1,0.9-0.1c1.9-1,3.7-2.1,5.6-3.2c1.4-0.8,2.8-1.7,4.5-2.6
		C61.5,91,54.6,91,47.8,91z M185.9,50c0.1,0.1,0.1,0.1,0.2,0.2c3.1-1.8,6.1-3.6,9.2-5.3c0.8-0.4,1.1-0.9,1.1-1.9
		c-0.1-2.3,0-4.6,0-6.9c0-1.2,0-2.4,0-3.6c-0.1,0-0.2,0-0.3-0.1C192.7,38.3,189.3,44.1,185.9,50z M92.2,89.4c0.1,0,0.2,0,0.2-0.1
		c0-3.2-0.1-6.5,0-9.7c0.1-1.4-0.3-2.3-1.7-3c-3-1.6-6-3.3-9.2-5.2C85.3,77.6,88.8,83.5,92.2,89.4z M150.7,96c0.1,0,0.2,0,0.3,0.1
		c3.4-5.9,6.8-11.8,10.2-17.7c-3.4,1.7-6.7,3.6-9.9,5.5c-0.3,0.2-0.5,0.7-0.5,1.1c-0.1,1.7,0,3.4,0,5.1
		C150.7,92.1,150.7,94.1,150.7,96z M69.8,49.7c0.1,0,0.2,0,0.3,0c3.4-5.8,6.7-11.7,10.1-17.5c-0.5,0-0.8,0.1-1.1,0.2
		c-2.2,1.3-4.4,2.8-6.7,3.8c-2.1,1-2.7,2.3-2.6,4.5C70,43.8,69.8,46.8,69.8,49.7z M69.8,142.4c0.1,0,0.2,0,0.3,0
		c3.4-5.9,6.8-11.7,10.1-17.6c-3.4,1.7-6.7,3.5-9.8,5.5c-0.3,0.2-0.5,0.8-0.5,1.1c0,2.2,0,4.4,0,6.6C69.8,139.5,69.8,141,69.8,142.4
		z M36,71.7c-0.1,0.1-0.1,0.1-0.2,0.2c3.4,5.9,6.8,11.7,10.2,17.6c0.3-2.8,0.1-5.5,0.3-8.2c0.3-2.7-0.5-4.4-3.1-5.6
		C40.7,74.7,38.4,73.1,36,71.7z M160.9,116.3c0.1-0.1,0.1-0.1,0.2-0.2c-3.4-5.9-6.8-11.8-10.2-17.6c-0.3,3.9-0.3,7.6-0.2,11.4
		c0,0.3,0.2,0.7,0.5,0.8C154.5,112.7,157.6,114.4,160.9,116.3z M92.5,105.3c-0.1,0-0.2,0-0.2,0c-3.4,5.9-6.9,11.8-10.4,17.8
		c1-0.5,1.9-0.9,2.7-1.4c2.4-1.3,4.8-2.7,7.1-4.1c0.4-0.2,0.7-0.8,0.7-1.3c0.1-2.7,0-5.5,0-8.2C92.5,107.2,92.5,106.2,92.5,105.3z
		 M34.7,125.1c-0.1,0-0.1,0-0.2-0.1c-3.4,5.9-6.8,11.8-10.2,17.7c3.4-1.7,6.7-3.6,10-5.5c0.2-0.1,0.4-0.5,0.4-0.7
		C34.7,132.7,34.7,128.9,34.7,125.1z M45.5,50.7c-3.5-2-6.7-4-10-5.8c-0.3-0.2-0.8,0-1.2,0.1c-1.7,0.9-3.3,1.9-5,2.8
		c-1.5,0.9-3.1,1.8-4.6,2.6c0,0.1,0,0.1,0.1,0.2C31.6,50.7,38.4,50.7,45.5,50.7z M116.5,117.9c3.5,6.1,7,12.1,10.4,18
		c0.2-3.7,0.2-7.3,0.2-10.9c0-0.8-0.3-1.2-0.9-1.6c-2.4-1.3-4.7-2.8-7.1-4.1C118.3,118.8,117.4,118.3,116.5,117.9z M34,4.9
		c-7.2,0-14,0-21,0c0.2,0.3,0.3,0.4,0.4,0.5c3,1.7,6.1,3.4,9.1,5.2c0.8,0.4,1.3,0.3,2-0.1c2.2-1.3,4.4-2.6,6.6-3.8
		C32,6.1,32.8,5.6,34,4.9z M209.4,143.2c0,0.1,0.1,0.1,0.1,0.2c6.8,0,13.6,0,20.4,0c-3.2-2.1-6.4-3.9-9.7-5.8
		c-0.3-0.1-0.8,0-1.1,0.1c-2,1.1-4,2.2-6,3.3C211.8,141.7,210.6,142.5,209.4,143.2z M128.3,58.4c-0.1,0-0.1,0.1-0.2,0.1
		c3.4,5.9,6.8,11.7,10.2,17.6c0.3-3.8,0.3-7.5,0.2-11.2c0-0.3-0.3-0.8-0.6-0.9C134.8,62.1,131.6,60.3,128.3,58.4z M160.9,23.7
		c0-0.1,0.1-0.1,0.1-0.2c-3.4-5.9-6.8-11.8-10.2-17.6c-0.3,3.3-0.2,6.6-0.3,9.8c-0.1,1.5,0.3,2.4,1.7,3.1
		C155.4,20.3,158.1,22.1,160.9,23.7z M151.9,137.3c0,0.1,0,0.1,0,0.2c3.3,1.9,6.5,3.8,9.8,5.7c0.2,0.1,0.6,0,0.8-0.1
		c1.8-1,3.5-2,5.3-3c1.5-0.9,3-1.8,4.7-2.8C165.3,137.3,158.6,137.3,151.9,137.3z M33.7,97.1c-0.2-0.3-0.3-0.3-0.3-0.4
		c-3.2-1.8-6.3-3.7-9.5-5.5c-0.2-0.1-0.7,0-1,0.1c-2.2,1.2-4.3,2.4-6.5,3.6c-1.2,0.7-2.3,1.4-3.7,2.2C19.9,97.1,26.7,97.1,33.7,97.1
		z M70.6,103.6c7.1,0,13.9,0,20.8,0c-3.3-2.1-6.5-3.9-9.9-5.7c-0.3-0.1-0.7-0.1-1,0C77.3,99.8,74.1,101.6,70.6,103.6z M196.4,98.8
		c-0.1,0-0.2,0-0.3-0.1c-3.4,5.9-6.7,11.7-10.1,17.6c3.4-1.7,6.7-3.6,10-5.6c0.2-0.1,0.4-0.6,0.4-1c0-2.2,0-4.5,0-6.7
		C196.4,101.6,196.4,100.2,196.4,98.8z M128.7,136.5c0,0.1,0.1,0.2,0.1,0.2c6.7,0,13.4,0,20.1,0c0-0.2,0-0.3-0.1-0.3
		c-3.2-1.8-6.4-3.7-9.6-5.5c-0.3-0.2-0.8-0.1-1.1,0.1c-2.3,1.2-4.5,2.5-6.7,3.8C130.5,135.4,129.6,136,128.7,136.5z M128.7,137.3
		c0,0.1-0.1,0.1-0.1,0.2c3.3,1.9,6.7,3.8,10,5.7c0.2,0.1,0.6,0,0.8-0.2c1.4-0.7,2.7-1.5,4.1-2.3c1.9-1.1,3.8-2.2,6-3.5
		C142.3,137.3,135.5,137.3,128.7,137.3z M218.6,30.3c0.1-0.1,0.1-0.2,0.2-0.2c-3.5-5.9-6.9-11.7-10.6-17.9c0,4.1,0,7.9,0,11.7
		c0,0.3,0.2,0.7,0.5,0.8C212.1,26.6,215.3,28.5,218.6,30.3z M114.3,50.7c0-0.1,0.1-0.2,0.1-0.3c-3.3-1.9-6.5-3.8-9.8-5.6
		c-0.3-0.2-0.8,0-1.2,0.1c-2.8,1.6-5.6,3.2-8.3,4.8c-0.4,0.2-0.8,0.5-1.4,0.9C100.8,50.7,107.5,50.7,114.3,50.7z M128.1,136.1
		c0.1,0.1,0.1,0.1,0.2,0.2c3.3-1.9,6.5-3.7,9.8-5.7c0.3-0.2,0.4-0.7,0.4-1.1c0-3.5,0-6.9,0-10.4c0-0.2-0.1-0.5-0.1-0.9
		C134.9,124.3,131.5,130.2,128.1,136.1z M186.4,50.5c0,0.1,0,0.1,0,0.2c6.8,0,13.6,0,20.7,0c-3.6-2.1-6.9-4-10.2-5.9
		c-0.2-0.1-0.5-0.1-0.7,0C192.9,46.7,189.6,48.6,186.4,50.5z M24.6,51.2c0.1,0.2,0.1,0.2,0.2,0.3c3.2,1.9,6.5,3.8,9.7,5.6
		c0.2,0.1,0.7,0,1-0.1c2.4-1.3,4.8-2.7,7.1-4.1c0.8-0.5,1.7-1,2.5-1.5c0-0.1-0.1-0.1-0.1-0.2C38.3,51.2,31.5,51.2,24.6,51.2z
		 M186.4,51.2c0,0.1,0,0.1,0,0.2c2.8,1.6,5.7,3.2,8.4,4.9c1.3,0.8,2.4,1.1,3.6,0c0.3-0.3,0.7-0.4,1.1-0.6c2.4-1.4,4.9-2.8,7.3-4.3
		c0-0.1-0.1-0.1-0.1-0.2C199.9,51.2,193.2,51.2,186.4,51.2z M151.5,136.8c7.1,0,13.8,0,20.8,0c-0.3-0.3-0.4-0.4-0.5-0.4
		c-3-1.7-6-3.4-8.9-5.2c-0.7-0.4-1.3-0.3-1.9,0.1c-2.2,1.3-4.5,2.6-6.7,3.9C153.5,135.6,152.6,136.1,151.5,136.8z M114.6,50.1
		c0.1-0.1,0.1-0.1,0.2-0.2c-3.4-5.8-6.7-11.7-10.1-17.5c-0.2,3.9-0.3,7.6-0.2,11.4c0,0.3,0.4,0.7,0.7,0.9c2.3,1.4,4.6,2.7,6.9,4
		C112.8,49.1,113.7,49.6,114.6,50.1z M128.5,4.9c0.2,0.2,0.2,0.3,0.3,0.3c3.1,1.8,6.3,3.7,9.5,5.4c0.3,0.2,0.8,0.1,1.1,0
		c2.8-1.6,5.6-3.2,8.4-4.8c0.4-0.2,0.8-0.5,1.4-0.9C142.2,4.9,135.4,4.9,128.5,4.9z M23.7,49.7c0.1,0,0.2,0,0.2,0
		c3.4-5.9,6.8-11.7,10.2-17.6c-3.4,1.7-6.7,3.6-9.9,5.5c-0.3,0.2-0.5,0.8-0.5,1.1c0,3.1,0,6.1,0,9.2C23.7,48.5,23.7,49.1,23.7,49.7z
		 M114.6,142.8c0.1-0.1,0.1-0.1,0.2-0.2c-3.4-5.8-6.7-11.7-10.2-17.7c-0.1,0.3-0.1,0.4-0.1,0.5c0,3.6,0,7.2,0,10.8
		c0,0.4,0.4,1,0.8,1.2c1.4,0.9,2.9,1.7,4.3,2.5C111.2,140.9,112.9,141.9,114.6,142.8z M209.4,103.4c0,0.1,0,0.2,0.1,0.2
		c6.8,0,13.6,0,20.7,0c-2.9-1.7-5.5-3-8-4.7c-1.7-1.2-3.2-1.5-4.8,0c-0.1,0.1-0.3,0.2-0.5,0.3C214.4,100.7,211.9,102,209.4,103.4z
		 M58.6,125c-0.1,0-0.2,0.1-0.2,0.1c0,3.7,0,7.4,0,11.1c0,0.4,0.3,0.9,0.7,1.1c1.9,1.2,3.8,2.3,5.8,3.4c1.3,0.7,2.5,1.4,3.8,2.2
		c0.1-0.1,0.1-0.1,0.2-0.2C65.4,136.8,62,130.9,58.6,125z M196,96c0.1,0,0.2,0,0.3,0c0-0.5,0-0.9,0-1.4c0-2.5-0.2-4.9,0-7.4
		c0.2-2.2-0.4-3.5-2.4-4.5c-2.7-1.3-5.3-3-7.9-4.5c-0.1,0.1-0.1,0.1-0.2,0.2C189.3,84.3,192.7,90.2,196,96z M218.7,123
		c0-0.1,0.1-0.1,0.1-0.2c-3.5-5.9-7-11.8-10.4-17.6c-0.2,3.8-0.2,7.5-0.2,11.2c0,0.3,0.2,0.6,0.4,0.8
		C212,119.2,215.4,121.1,218.7,123z M185.9,23.5c0.1,0,0.1,0.1,0.2,0.1c3.2-1.8,6.4-3.6,9.5-5.5c0.4-0.2,0.7-0.9,0.7-1.3
		c0.1-2.9,0-5.9,0-8.8c0-0.7,0-1.4,0-2.1c-0.1,0-0.2,0-0.3-0.1C192.7,11.8,189.3,17.7,185.9,23.5z M197.1,72.2c-0.1,0-0.2,0-0.3,0.1
		c0,2.9,0.2,5.8-0.1,8.7c-0.2,2.2,0.5,3.5,2.5,4.5c2.7,1.3,5.2,2.9,7.8,4.4c0.1-0.1,0.1-0.1,0.2-0.2C203.8,83.9,200.4,78,197.1,72.2
		z M149,97.1c0-0.1,0-0.2,0-0.2c-3.2-1.9-6.4-3.8-9.6-5.6c-0.3-0.2-1,0-1.4,0.2c-2.7,1.5-5.3,3-7.9,4.6c-0.5,0.3-0.9,0.5-1.3,0.8
		c0,0.1,0.1,0.2,0.1,0.2C135.5,97.1,142.2,97.1,149,97.1z M128.2,43.2c0.1,0.1,0.1,0.2,0.2,0.2c3.3-1.9,6.5-3.7,9.7-5.7
		c0.3-0.2,0.4-0.7,0.4-1.1c0-2.9,0-5.7,0-8.6c0-0.7,0-1.5,0-2.2c-0.1,0-0.2,0-0.3,0C134.9,31.7,131.6,37.5,128.2,43.2z M172.1,5.1
		c0-0.1,0-0.1-0.1-0.2c-6.8,0-13.6,0-20.7,0c3.5,2,6.7,3.9,10,5.8c0.3,0.1,0.7,0.2,1,0C165.6,8.9,168.9,7,172.1,5.1z M34.7,32.5
		c-0.1,0-0.2,0-0.2-0.1c-3.4,5.9-6.8,11.8-10.2,17.7c3.4-1.7,6.6-3.5,9.8-5.4c0.3-0.2,0.6-0.6,0.6-1C34.7,39.8,34.7,36.2,34.7,32.5z
		 M47.5,143.4c7.1,0,13.9,0,20.7,0c-0.3-0.4-0.7-0.7-1.1-0.9c-2.1-1.2-4.3-2.3-6.3-3.6c-1.9-1.3-3.3-1.5-5.3-0.1
		C53.1,140.4,50.3,141.7,47.5,143.4z M104.4,69.4c0.1,0,0.2,0,0.3,0.1c3.4-5.8,6.7-11.7,10.1-17.5c-0.1-0.1-0.1-0.1-0.2-0.2
		c-3.3,1.9-6.5,3.8-9.8,5.8c-0.2,0.1-0.4,0.6-0.4,1c0,1.4,0,2.7,0,4.1C104.4,64.9,104.4,67.2,104.4,69.4z M218.9,71.9
		c-0.4,0.1-0.5,0.1-0.6,0.1c-3.1,1.7-6.3,3.5-9.4,5.3c-0.4,0.2-0.6,0.9-0.6,1.3c-0.1,3.4,0,6.7,0,10.1c0,0.2,0.1,0.5,0.2,0.8
		C211.9,83.6,215.3,77.8,218.9,71.9z M68.7,52c-0.1-0.1-0.1-0.1-0.2-0.2c-0.4,0.2-0.8,0.4-1.2,0.6c-2.6,1.5-5.2,3.1-7.9,4.6
		c-0.9,0.5-1.2,1-1.2,2c0,3,0,6,0,9.1c0,0.5,0,1,0,1.5c0.1,0,0.2,0,0.3,0C62,63.7,65.4,57.9,68.7,52z M34.7,98.8
		c-0.1,0-0.2-0.1-0.3-0.1c-3.4,5.8-6.7,11.7-10.1,17.5c3.4-1.7,6.6-3.5,9.8-5.3c0.3-0.2,0.6-0.7,0.6-1
		C34.7,106.2,34.7,102.5,34.7,98.8z M58.5,32.3c-0.1,0-0.1,0.1-0.2,0.1c0,3.6,0,7.2,0,10.8c0,0.8,0.3,1.3,1,1.6
		c1.7,0.9,3.4,2,5.1,2.9c1.4,0.8,2.9,1.7,4.7,2.6C65.4,44.1,62,38.2,58.5,32.3z M172.2,44.8c0-0.1-0.1-0.1-0.1-0.2
		c-6.8,0-13.6,0-20.4,0c0.1,0.1,0.1,0.2,0.1,0.3c3.2,1.9,6.4,3.8,9.6,5.6c0.3,0.2,0.8,0,1.2-0.2c1.6-0.8,3.1-1.7,4.6-2.6
		C168.9,46.7,170.5,45.7,172.2,44.8z M172.3,97.2c-0.4-0.3-0.5-0.4-0.6-0.5c-3.1-1.8-6.1-3.6-9.2-5.3c-0.3-0.2-0.9-0.1-1.3,0.1
		c-2.7,1.5-5.4,3.1-8,4.6c-0.5,0.3-1,0.6-1.5,0.9c0,0.1,0.1,0.1,0.1,0.2C158.5,97.2,165.2,97.2,172.3,97.2z M24.6,51.8
		c-0.1,0.1-0.2,0.1-0.2,0.2c3.4,5.8,6.7,11.7,10.1,17.5c0.3-3,0.1-5.9,0.3-8.7c0.2-2.3-0.4-3.9-2.7-4.6c-0.2-0.1-0.4-0.2-0.6-0.4
		C29.1,54.5,26.9,53.2,24.6,51.8z M114.6,116.3c0.1-0.1,0.1-0.1,0.2-0.2c-3.4-5.9-6.8-11.7-10.2-17.6c-0.2,3.8-0.2,7.5-0.2,11.3
		c0,0.3,0.3,0.8,0.6,1c1.8,1.1,3.6,2.1,5.3,3.2C111.8,114.7,113.2,115.5,114.6,116.3z M114.4,143.4c-0.1-0.2-0.1-0.2-0.2-0.3
		c-3.2-1.9-6.4-3.7-9.7-5.6c-0.3-0.1-0.8-0.1-1.1,0.1c-1.4,0.7-2.7,1.5-4.1,2.3c-1.8,1.1-3.6,2.2-5.8,3.4
		C100.8,143.4,107.6,143.4,114.4,143.4z M172.8,58.2c-3.5,2-6.6,3.9-9.9,5.7c-0.6,0.3-0.8,0.7-0.8,1.4c0,2.9,0,5.9,0,8.8
		c0,0.7,0,1.4,0,2c0.1,0,0.2,0,0.3,0.1C165.8,70.3,169.2,64.4,172.8,58.2z M24.3,23.6c0,0.1,0.1,0.1,0.1,0.2
		c3.3-1.9,6.5-3.8,9.8-5.7c0.3-0.2,0.5-0.7,0.5-1c0-1.8,0-3.7,0-5.5s0-3.6,0-5.5c-0.1,0-0.2,0-0.3-0.1C31,11.8,27.7,17.7,24.3,23.6z
		 M162.7,76.5c0.2,0.1,0.3,0.1,0.3,0.1c3.2-1.9,6.4-3.7,9.6-5.6c0.3-0.2,0.5-0.6,0.5-0.9c0-2.7,0-5.5,0-8.2c0-1,0-2,0-3
		c-0.1,0-0.1,0-0.2,0C169.5,64.7,166.1,70.6,162.7,76.5z M127.1,58.8c-0.1,0-0.1-0.1-0.2-0.1c-3.4,5.9-6.9,11.9-10.3,17.9
		c0.2-0.1,0.4-0.1,0.6-0.2c3-1.7,5.9-3.5,8.9-5.1c0.7-0.4,1-0.8,1-1.7C127.1,66,127.1,62.4,127.1,58.8z M114.8,78.5
		c-0.1-0.1-0.1-0.1-0.2-0.2c-3.2,1.9-6.4,3.7-9.6,5.6c-0.3,0.2-0.6,0.8-0.6,1.2c0,3.1,0,6.2,0,9.3c0,0.6,0,1.1,0,1.7
		c0.1,0,0.2,0,0.3,0C108.1,90.2,111.4,84.3,114.8,78.5z M230.4,51.9c-0.2,0-0.2,0-0.2,0c-3.3,1.8-6.5,3.7-9.8,5.6
		c-0.3,0.2-0.4,0.7-0.4,1.1c0,1.9,0,3.8,0,5.6c0,1.8,0,3.6,0,5.4c0.1,0,0.2,0,0.2,0C223.6,63.8,227,57.9,230.4,51.9z M45.2,143.4
		c-0.1-0.2-0.2-0.3-0.2-0.3c-3.2-1.9-6.4-3.7-9.6-5.6c-0.2-0.1-0.7-0.1-0.9,0.1c-1.9,1-3.7,2.1-5.6,3.2c-1.4,0.8-2.7,1.6-4.1,2.4
		c0,0.1,0,0.1,0.1,0.2C31.6,143.4,38.3,143.4,45.2,143.4z M68.2,103.7c0-0.1,0-0.2,0.1-0.3c-3-1.7-6-3.4-8.9-5.2
		c-1-0.6-1.6-0.4-2.5,0.1c-2.4,1.4-4.8,2.7-7.2,4.1c-0.6,0.4-1.3,0.8-2.2,1.3C54.6,103.7,61.4,103.7,68.2,103.7z M24.5,78.3
		c-0.1,0.1-0.1,0.1-0.2,0.2c3.4,5.9,6.8,11.7,10.1,17.6c0.3-3.9,0.3-7.6,0.2-11.4c0-0.3-0.3-0.6-0.6-0.8
		C30.9,82,27.7,80.2,24.5,78.3z M128.6,44.6c0.2,0.3,0.2,0.3,0.3,0.4c3.2,1.8,6.4,3.7,9.6,5.5c0.3,0.2,0.8,0,1.1-0.1
		c1.8-1,3.7-2.1,5.5-3.2c1.3-0.8,2.6-1.6,3.9-2.4c0-0.1-0.1-0.1-0.1-0.2C142.2,44.6,135.5,44.6,128.6,44.6z M186.5,143.1
		c0,0.1,0,0.2,0,0.3c6.7,0,13.4,0,20.2,0c-0.1-0.2-0.2-0.3-0.3-0.4c-3.2-1.8-6.3-3.7-9.5-5.5c-0.2-0.1-0.5-0.1-0.7,0
		C193,139.4,189.7,141.3,186.5,143.1z M34.1,124.8c-0.1-0.1-0.1-0.1-0.2-0.2c-3.1,1.8-6.3,3.7-9.4,5.5c-0.6,0.3-0.7,0.7-0.7,1.3
		c0,3.1,0,6.3,0,9.4c0,0.5,0,1.1,0.1,1.9C27.3,136.6,30.7,130.7,34.1,124.8z M172.9,43.1c0.1,0,0.2,0,0.2-0.1c0-3.8,0-7.6,0-11.5
		c0-0.3-0.4-0.6-0.6-0.7c-1.7-1-3.4-2-5.1-3c-1.5-0.9-3-1.7-4.5-2.6c-0.1,0.1-0.1,0.1-0.2,0.2C166.1,31.5,169.5,37.3,172.9,43.1z
		 M220.7,124.6c0,0.1-0.1,0.1-0.1,0.2c3.4,5.9,6.8,11.7,10.2,17.6c0.1-0.2,0.2-0.2,0.2-0.3c0-3.6,0-7.3,0-10.9c0-0.3-0.3-0.8-0.6-1
		c-1.3-0.8-2.6-1.6-3.9-2.3C224.5,126.8,222.6,125.7,220.7,124.6z M162.4,25.9c-0.1,0-0.2,0-0.2,0.1c0,3.8,0,7.6,0,11.4
		c0,0.3,0.4,0.7,0.7,0.8c1.6,1,3.3,1.9,5,2.9c1.5,0.9,3.1,1.8,4.9,2.8C169.2,37.6,165.8,31.7,162.4,25.9z M149,57.3
		c0-0.1,0-0.1,0.1-0.2c-3.3-1.9-6.5-3.8-9.8-5.7c-0.2-0.1-0.7,0-1,0.2c-1.7,1-3.5,2-5.2,3c-1.5,0.8-2.9,1.7-4.3,2.6
		c0,0.1,0.1,0.1,0.1,0.2C135.5,57.3,142.2,57.3,149,57.3z M230.8,49.7c0.1,0,0.2,0,0.2,0c0-3.5,0-7.1,0-10.6c0-1-0.3-1.5-1.1-1.9
		c-1-0.4-1.8-1.1-2.7-1.6c-2.2-1.3-4.4-2.5-6.8-3.9C223.9,37.9,227.3,43.8,230.8,49.7z M162.8,118L162.8,118
		c3.3,6,6.7,11.9,10.1,17.8c0.2-2.9,0-5.8,0.3-8.7c0.2-2.5-0.6-3.8-2.8-4.9C167.8,121,165.3,119.4,162.8,118z M80.6,69.6
		c0.1,0,0.2,0,0.2,0c0-3.8,0-7.5,0-11.3c0-0.3-0.4-0.8-0.8-1c-2.4-1.4-4.8-2.8-7.2-4.2c-0.8-0.4-1.5-0.8-2.6-1.4
		C73.8,57.9,77.2,63.7,80.6,69.6z M172.4,136.2c0.1-0.1,0.1-0.1,0.2-0.2c-3.4-5.9-6.8-11.7-10.2-17.6c-0.2,3.8-0.2,7.5-0.2,11.3
		c0,0.3,0.2,0.7,0.5,0.9C165.9,132.5,169.1,134.4,172.4,136.2z M80.9,32.6c-0.1,0-0.2-0.1-0.3-0.1c-3.4,5.9-6.8,11.7-10.1,17.6
		c3.5-1.7,6.7-3.6,10-5.6c0.2-0.1,0.4-0.5,0.4-0.8C80.9,39.9,80.9,36.3,80.9,32.6z M172.3,57.3c-0.4-0.3-0.5-0.4-0.7-0.5
		c-3-1.8-6.1-3.5-9.2-5.2c-0.3-0.2-0.9-0.1-1.2,0.1c-1.9,1-3.7,2.1-5.5,3.1c-1.3,0.8-2.7,1.6-4.3,2.5
		C158.5,57.3,165.2,57.3,172.3,57.3z M70.5,142.6c0.1,0.1,0.1,0.1,0.2,0.2c3.2-1.9,6.5-3.7,9.7-5.6c0.3-0.2,0.4-0.7,0.4-1.1
		c0-3.4,0-6.7,0-10.1c0-0.3,0-0.6-0.1-1.2C77.2,131,73.8,136.8,70.5,142.6z M34.1,98.4c-0.2,0-0.3-0.1-0.4-0.1
		c-3.1,1.8-6.3,3.6-9.4,5.5c-0.3,0.2-0.6,0.8-0.6,1.3c0,3.3,0,6.7,0,10c0,0.3,0,0.6,0,0.9c0.1,0,0.2,0,0.2,0
		C27.3,110.1,30.7,104.3,34.1,98.4z M33.9,70c0.1-0.1,0.1-0.1,0.2-0.2c-3.4-5.8-6.8-11.7-10.2-17.6c-0.2,3.9-0.2,7.6-0.2,11.4
		c0,0.3,0.4,0.6,0.7,0.8c1.2,0.7,2.3,1.4,3.5,2.1C29.9,67.7,31.9,68.9,33.9,70z M231,52.4c-0.1,0-0.2-0.1-0.3-0.1
		c-3.3,5.8-6.7,11.6-10.1,17.5c0.3,0,0.4,0,0.5,0c3.2-1.8,6.3-3.6,9.4-5.4c0.2-0.1,0.4-0.5,0.4-0.8C231,59.8,231,56.1,231,52.4z
		 M230.3,50.2c0.1,0,0.1-0.1,0.2-0.1c-3.4-5.9-6.8-11.8-10.2-17.7c-0.3,3.8-0.3,7.5-0.2,11.1c0,0.4,0.4,0.9,0.8,1.1
		C223.9,46.5,227.1,48.3,230.3,50.2z M220.3,125.2c-0.1,0-0.2,0.1-0.3,0.1c0,3.7,0,7.4,0,11c0,0.4,0.5,0.9,0.8,1.1
		c2.8,1.6,5.5,3.2,8.3,4.8c0.3,0.2,0.7,0.4,1,0.5c0-0.1,0.1-0.1,0.1-0.2C227,136.8,223.7,131,220.3,125.2z M23.9,78.7
		c-0.1,0-0.1,0.1-0.2,0.1c0,3.2,0.1,6.4,0,9.6c-0.1,1.7,0.4,2.6,1.9,3.4c2.9,1.4,5.6,3.2,8.4,4.8c0.1,0,0.1-0.1,0.2-0.1
		C30.7,90.5,27.3,84.6,23.9,78.7z M34.1,5.6c0-0.1-0.1-0.1-0.1-0.2c-2.9,1.7-5.7,3.4-8.6,4.9c-1.3,0.7-1.8,1.5-1.7,3
		c0.1,3.3,0,6.5,0,9.8c0.1,0,0.1,0,0.2,0.1C27.3,17.4,30.7,11.5,34.1,5.6z"/>
	<path d="M152.7,150.2c0.1-0.1,0.3-0.2,0.4-0.2c4.4,0,8.7,0,13.1,0c0.2,0,0.4,0.1,0.6,0.1C162,150.2,157.3,150.2,152.7,150.2z"/>
	<path d="M235.5,0.2c0.8,0.5,1.6,1,2.4,1.6c-0.1,0.1-0.1,0.2-0.2,0.3c-1-0.6-2.1-1.2-3.1-1.9C234.9,0.2,235.2,0.2,235.5,0.2z"/>
	<path d="M134.8,150.2c2.1,0,4.2,0,6.4,0C139,150.2,136.9,150.2,134.8,150.2z"/>
</g>
</svg>
