<?xml version="1.0" encoding="utf-8"?>
<!-- Generator: Adobe Illustrator 26.0.1, SVG Export Plug-In . SVG Version: 6.00 Build 0)  -->
<svg version="1.1" id="Слой_1" xmlns="http://www.w3.org/2000/svg" xmlns:xlink="http://www.w3.org/1999/xlink" x="0px" y="0px"
	 viewBox="0 0 238.1 150.2" style="enable-background:new 0 0 238.1 150.2;" xml:space="preserve">
<g>
	<path d="M181.4,149.6c-0.6,0-1.3,0-1.9,0c-0.3-0.7-0.6-1.5-0.9-2.2c-2.4-4.1-5.6-7-9.9-8.9c-2.7-1.2-5.6-1.7-8.4-2
		c-4-0.3-7.7,0.5-11.5,1.8c-3.3,1.1-5.9,3.2-7.9,5.9c-1.3,1.6-2.1,3.6-3.1,5.4c-0.6,0-1.3,0-1.9,0c0.6-1.2,1-2.6,1.8-3.7
		c1.4-1.9,2.8-3.8,4.5-5.4c1.3-1.3,3.1-2.1,4.7-3.2c0.2-0.2,0.5-0.7,0.4-0.8c-1.3-2.2-2.4-4.4-4.4-6.2c-2.9-2.6-6.3-3.8-10-4
		c-3.2-0.1-6.2,0.9-8.7,2.8c-2.5,1.9-4.6,4.1-5.8,7c-0.2,0.6-0.2,0.9,0.4,1.2c2.9,1.4,5.6,3.3,7.3,6c1.3,1.9,2.2,4.1,3.3,6.1
		c-0.5,0-1.1,0-1.6,0c-0.9-2.5-2.3-4.7-4.1-6.5c-2.2-2.2-4.6-4-7.6-5c-3-0.9-5.9-1.7-8.9-1.7c-1.7,0-3.4,0.2-5.1,0.5
		c-4.5,0.6-8.3,2.4-11.5,5.6c-2.1,2.1-3.6,4.5-4.8,7c-0.5,0-1.1,0-1.6,0c0.9-3,2.7-5.6,4.8-7.8c1.6-1.8,3.6-3.1,5.7-4.1
		c0.7-0.3,1-0.6,0.6-1.5c-1-2.4-2.6-4.4-4.6-6.1c-2.2-1.9-4.8-3.1-7.6-3.4c-2.4-0.2-4.8-0.4-7,0.7c-1.6,0.8-3.2,1.6-4.7,2.6
		c-2.4,1.6-3.8,4-5,6.5c-0.3,0.5-0.1,0.9,0.5,1c0.2,0,0.5,0.1,0.6,0.2c2.9,1.8,5.7,3.8,7.4,6.7c1,1.6,1.7,3.4,2.5,5.2
		c-0.5,0-1.1,0-1.6,0c-0.9-1.5-1.6-3-2.6-4.5c-1.4-2.1-3.2-3.9-5.5-5.2c-1.6-1-3.4-1.6-5.2-2.2c-2.5-0.9-5.1-1.2-7.6-1.2
		s-5.1,0.4-7.4,1.1c-2,0.5-4.1,1.3-5.8,2.5c-2,1.3-3.7,3.1-5.2,4.9c-1.1,1.3-1.7,3.1-2.6,4.7c-0.7,0-1.4,0-2.1,0
		c1-1.9,1.9-3.8,3.1-5.6c1.9-3,4.7-5.1,7.8-6.6c0.7-0.3,0.6-0.6,0.4-1.2c-1.4-3.1-3.5-5.6-6.4-7.3c-3.6-2.3-7.4-2.9-11.5-1.9
		c-5,1.3-8.8,4.3-10.9,9.1c-0.3,0.8-0.2,0.9,0.4,1.2c3.1,1.5,5.9,3.4,7.7,6.3c1.2,1.8,2,3.9,3,5.9c-0.6,0-1.3,0-1.9,0
		c-1.3-3.4-3.4-6.3-6.4-8.4c-2.9-2.1-6-3.4-9.3-4.1c-2.3-0.5-4.7-0.4-6.9-0.6c0-0.5,0-1.1,0-1.6c1,0.1,2.1,0.2,3.1,0.2
		c0.4,0,0.9-0.5,1.1-0.9c0.4-0.9,0.6-1.9,1-2.8c2-5.2,5.4-8.9,10.3-11.3c0.9-0.4,0.7-0.9,0.4-1.5c-1.6-3.2-3.8-5.8-6.8-7.4
		c-2.8-1.6-5.8-2.2-9-1.9c0-0.5,0-0.9,0-1.4c0.5-0.1,1.1-0.2,1.6-0.2c2.2,0.1,4.2,0.5,6.3,1.3c4.4,1.7,7.2,5,9.4,8.9
		c0.5,0.8,0.9,1.2,1.9,0.9c1.2-0.4,2.4-0.7,3.6-0.8c1-0.1,1.1-0.5,0.8-1.3c-1.6-4.5-3.9-8.4-8-11c-2-1.2-4.1-2.3-6.4-2.9
		c-3-0.8-6-1.1-9-0.9c0-0.5,0-1.1,0-1.6c1.1,0,2.2,0.1,3.3,0c0.3,0,0.8-0.4,0.9-0.7c0.6-3.7,2.3-6.7,4.6-9.4c1.8-2.1,4-3.8,6.5-5
		c0.7-0.3,0.9-0.8,0.5-1.5c-0.7-1-1.3-2-1.9-3c-1.9-3.2-4.9-4.8-8.3-5.9C4.9,73.9,3,73.8,1.1,74c0-0.5,0-1.1,0-1.6
		c0.6,0,1.3,0,1.9,0c4.5-0.1,8.2,1.6,11.3,4.8c1.9,1.9,3.3,4.2,5.1,6.4c1.4-0.3,3.1-0.8,4.8-1.1c0.8-0.2,0.7-0.6,0.5-1.1
		c-1.6-4.3-3.7-8.2-7.6-10.7c-1.8-1.1-3.6-2.1-5.5-2.9c-3.4-1.2-6.9-1.5-10.4-1.4c0-0.5,0-1.1,0-1.6c1.1,0,2.2,0,3.3,0
		c0.3,0,0.8-0.3,0.9-0.6c0.8-1.9,1.4-4,2.4-5.8c2.1-3.8,5-6.7,8.9-8.4c0.3,0,0.6-0.4,0.3-1c-1.7-3.7-4.2-6.6-7.9-8.2
		c-2.6-1.2-5.3-1.6-8-1.4c0-0.5,0-1.1,0-1.6c1.8,0.2,3.7,0.1,5.5,0.5c3.2,0.7,6,2.2,8,4.7c1.5,1.8,2.8,3.8,4.2,5.7
		c0.2,0.3,0.7,0.5,0.9,0.5c1.5-0.3,2.9-0.8,4.4-1.2c0.3-0.1,0.6-0.5,0.6-0.7c-0.1-0.6-0.2-1.3-0.5-1.9c-1.7-3.7-3.8-7.1-7.3-9.2
		c-1.6-1-3.2-2-4.9-2.7C8.2,32,4.6,31.6,0.9,31.9c0-0.6,0-1.3,0-1.9c1.4,0,2.8,0,4.1,0c0.1-0.6,0.1-1.2,0.4-1.7
		c1-2.1,1.9-4.3,3.1-6.3c1.6-2.7,4-4.7,6.7-6.3c2.1-1.2,2.4-1.3,1.2-3.1c-1.3-2-2.8-3.9-4.6-5.4C8.5,5,4.9,3.9,0.9,4.3
		c0-0.5,0-1.1,0-1.6c8.6-0.3,14.2,4.2,18,11.4c1.7-0.4,3.5-0.7,5.2-1.2c0.2-0.1,0.6-0.7,0.5-1c-1.2-3.5-2.8-6.7-5.6-9.2
		c-0.9-0.8-1.9-1.5-2.8-2.2c1.2,0,2.4,0,3.5,0c0.4,0.6,0.9,1.1,1.3,1.7c1.2,1.8,2.6,3.4,3.6,5.3c0.9,1.6,1.4,3.5,2.1,5.3
		c1.4,0,2.9,0,4.4,0c0.3-0.8,0.6-1.6,0.8-2.4c1.1-4,3.4-7,6.4-9.7c1,0,2,0,3.1,0c-4.3,3.1-7,7-8.3,12.2c2.1,0.5,4,0.9,5.9,1.3
		c2.1-5.4,6.9-9.9,12.9-10.9c4-0.7,7.7-0.1,11.3,1.9c3.3,1.8,5.4,4.6,7.1,7.6c0.3,0.5,0.5,1.2,0.9,1.4s1-0.2,1.5-0.4
		c1.4-0.3,2.8-0.6,4.3-0.9c-0.2-0.6-0.3-1-0.5-1.5c-0.8-1.7-1.3-3.5-2.4-5c-1.7-2.2-3.7-4-5.5-5.9c1,0,2,0,3.1,0
		C71.8,0.7,71.8,1,72,1.1c3.2,3.1,5.5,6.6,6.4,10.9c0.1,0.3,0.5,0.6,0.8,0.6c1.3,0.1,2.7,0,3.9,0c0.5-1.1,0.8-2.2,1.4-3.3
		c1-1.9,2-3.9,3.2-5.7c0.8-1.2,1.9-2.2,2.9-3.3c0.9,0,1.9,0,2.8,0c-0.1,0.2-0.3,0.4-0.4,0.5c-3.7,2.7-6,6.3-7.3,10.6
		c-0.3,1,0.2,1.3,1,1.5c1.3,0.3,2.5,0.6,3.8,0.8c0.3,0.1,1-0.1,1.1-0.3c1.3-3.1,3.3-5.5,6-7.5c2.3-1.8,4.9-2.7,7.5-3.1
		c2-0.3,4.2,0,6.2,0.4c2.6,0.5,5,1.8,7,3.6c2.1,1.8,3.6,4,4.8,6.5c0.3,0.6,0.7,0.8,1.2,0.7c1.5-0.4,3.1-0.7,4.6-1.2
		c0.2-0.1,0.5-0.6,0.4-0.8c-0.8-2-1.6-4.1-2.7-6c-1.4-2.3-3.2-4.2-5.5-5.7c0.9,0,1.9,0,2.8,0c0.2,0.3,0.4,0.5,0.7,0.8
		c3.1,3,5.3,6.5,6.2,10.7c0.1,0.5,0.3,1,1.1,0.8c1-0.2,2-0.1,3,0c0.7,0.1,0.9-0.1,1.1-0.7c1.2-4.6,3.5-8.4,6.9-11.5
		c0.9,0,1.7,0,2.6,0c-0.6,0.6-1.2,1.2-1.9,1.7c-3.3,2.8-5.2,6.4-6.3,10.5c1.6,0.4,3.2,0.7,4.8,1.2c1,0.4,1.3,0.1,1.7-0.7
		c1.7-3.4,3.9-6.3,7.3-8.1c3.7-1.9,7.3-2.9,11.4-2.1c3.9,0.8,7.3,2.7,9.7,6c1.2,1.6,2.2,3.2,3.3,5c1.6-0.4,3.5-0.8,5.4-1.2
		c0.1,0,0.3-0.6,0.2-0.8c-1.1-2.3-2-4.8-3.5-6.8c-1.2-1.8-3.1-3.2-4.7-4.7c0.9,0,1.9,0,2.8,0c1.1,1.2,2.3,2.3,3.3,3.6
		c1.7,2.3,3.1,4.8,3.7,7.5c0.1,0.4,0.5,1,0.8,1c1.5,0.1,3,0,4.1,0c0.8-2,1.4-3.7,2.2-5.5c1.1-2.6,3-4.8,5-6.7c1,0,2,0,3.1,0
		c-1,0.8-2.1,1.6-3,2.5c-1.7,1.8-3.1,3.9-4.1,6.2c-0.5,1.1-0.8,2.4-1.2,3.6c1.8,0.4,3.4,0.7,5,1.2c0.7,0.2,1,0.1,1.3-0.6
		c1.7-3.4,3.8-6.3,7.2-8.1c3.6-2,7.2-3,11.4-2.1c4.5,0.9,7.9,3.2,10.6,6.7c1,1.4,1.8,2.9,2.7,4.3c1.8-0.4,3.7-0.8,5.7-1.3
		c-1.3-5.1-4.1-9-8.2-12.2c1,0,2,0,3.1,0c0,0.1,0.1,0.1,0.1,0.2c3.3,3,5.6,6.7,6.6,10.9c0.2,0.8,0.5,1.1,1.4,1c0.5-0.1,1,0,1.5,0
		c0,0.6,0,1.1,0,1.6c-5.2-0.1-9.9,1.1-14.1,4.1c-4.2,3-6.6,7.1-8.1,11.8c2.2,0.5,4.1,1,6.1,1.4c4.2-9.3,11.7-11.5,16.3-11.3
		c0,0.5,0,1,0,1.5c-0.6,0-1.1,0-1.6,0s-1.1,0.1-1.6,0.2c-5.3,1.4-9.2,4.4-11.3,9.4c-0.1,0.3,0.1,0.8,0.4,1c1.1,0.8,2.4,1.3,3.4,2.1
		c1.7,1.4,3.6,2.8,4.7,4.6c1.6,2.5,2.6,5.4,4,8.2c0.5,0.1,1.4,0.2,2.2,0.3c0,0.4,0,0.8,0,1.2c-1.7,0.2-3.3,0.4-4.9,0.6
		c-2.8,0.4-5.4,1.3-7.8,2.8c-2.2,1.3-4.3,2.9-5.7,5.1c-1.4,2.2-2.5,4.7-3.7,7c-0.3,0.6-0.1,1,0.7,1.1c1.4,0.2,2.8,0.5,4.2,0.9
		c0.7,0.2,1.1,0.1,1.4-0.6c0.6-1.3,1.3-2.5,2.1-3.7c1.8-2.6,4.3-4.3,7-5.5c2.1-1,4.3-1.6,6.7-1.3c0,0.5,0,0.8,0,1.4
		c-0.9,0.1-1.8,0.1-2.7,0.3c-5.6,1.1-9.5,4.4-11.9,9.5c-0.3,0.6-0.1,0.9,0.4,1.2c1,0.5,1.9,1.1,2.8,1.7c4,2.8,6.7,6.6,8.1,11.3
		c0.6,2,0.6,2,2.8,2.1c0.1,0,0.3,0.1,0.5,0.1c0,0.3,0,0.5,0,0.7c0,0.3-0.1,0.5-0.1,0.8c-5.1,0.1-9.9,1.1-14.1,4.1
		c-4.2,3-6.6,7.1-8.1,11.8c1.8,0.4,3.4,0.7,4.8,1.2c1.1,0.4,1.5-0.1,1.9-1c1-2.2,2.5-4.2,4.3-5.9c2.1-1.9,4.5-3.1,7.1-3.8
		c1.3-0.4,2.8-0.5,4.2-0.7c0,0.7,0,1.2,0,1.7c-0.5,0-0.9,0-1.3,0c-0.5,0-0.9,0.1-1.4,0.2c-5.5,1.1-9.4,4.2-11.7,9.2
		c-0.3,0.7-0.2,1,0.5,1.4c5.3,2.9,9,7,10.8,12.8c0.6,2.1,0.7,2.1,2.9,2.2c0.1,0,0.2,0.1,0.3,0.1c0,0.5,0,0.9,0,1.5
		c-0.8,0-1.5,0-2.3,0c-3.1,0-6.1,0.9-8.8,2.2c-3.3,1.5-6,3.9-8,6.9c-1,1.4-1.8,3-2.5,4.6c-0.4,0.7-0.4,1.6-0.6,2.3
		c2.1,0.5,4,0.9,6,1.3c3.1-6.9,8.3-10.9,16.2-11.4c0,0.7,0,1.2,0,1.3c-2.1,0.5-4,0.9-5.9,1.6c-4.2,1.5-6.7,4.6-8.6,8.4
		c-0.3,0.6-0.2,0.9,0.4,1.2c1.5,0.9,3,1.8,4.4,2.9c3.1,2.4,5.2,5.6,6.4,9.2c-0.6,0-1.3,0-1.9,0c-0.2-0.4-0.5-0.9-0.7-1.3
		c-1.4-3.6-4-6.2-7-8.2c-3.8-2.5-8.1-3.4-12.7-3.6c-1.6-0.1-3.2,0.3-4.8,0.4c-2.4,0.2-4.6,1-6.7,2c-3.3,1.5-6,3.8-7.9,6.8
		c-0.8,1.2-1.3,2.6-2,3.9c-0.6,0-1.3,0-1.9,0c0.9-2.5,2.3-4.8,4-6.8c1.8-2.3,4.1-3.8,6.6-5.2c0.6-0.3,1-0.7,0.5-1.5
		c-0.5-0.7-0.8-1.5-1.2-2.2c-1.6-2.9-4.2-4.7-7-6.2c-2.3-1.2-4.7-1.2-7-1.1c-2.8,0-5.2,1.1-7.4,2.6c-2.6,1.7-4.4,4.1-5.8,6.7
		c-0.5,0.8-0.3,1.3,0.5,1.8c1.8,1.2,3.9,2.2,5.4,3.7C178.6,143.7,180.3,146.5,181.4,149.6z M199.3,31.8c-1.6-3.4-3.9-6.4-7.5-8.2
		c-3.9-2.1-7.7-2.3-11.8-1.1c-4.1,1.3-7,4-9,7.7c-1,2-1,2,1,3c3.8,2,6.5,5.1,8.3,8.8c0.8,1.5,1.2,3.1,1.9,4.7
		c0.2,0.4,0.7,0.9,1.1,0.9c1,0.1,2.1,0.1,3.2,0c0.3,0,0.8-0.3,0.9-0.5c0.3-0.8,0.5-1.6,0.8-2.4c1.2-3,2.5-6,5-8
		C194.9,35.2,197,33.6,199.3,31.8z M169.9,67.3c2.6,1,4.8,2.6,6.6,4.5c2.8,3,4.8,6.5,5.7,10.4c0,0.2,0.4,0.5,0.7,0.5
		c1,0,1.9-0.2,2.9-0.1c1.3,0.2,1.6-0.6,1.9-1.6c0.8-3.3,2.5-6.1,4.6-8.5c0.7-0.9,1.7-1.6,2.7-2.3c1.5-1.1,3-2.1,4.6-3.1
		c-2.9-6.9-8.3-10.5-15.1-10.3C177.6,56.9,172.3,60.9,169.9,67.3z M169.9,102.1c0.3,0.2,0.6,0.4,0.9,0.6c3.6,1.7,6.5,4.3,8.4,7.7
		c1.1,1.9,1.7,4.1,2.7,6.1c0.2,0.5,0.6,1.1,1,1.1c1.1,0.2,2.3,0.1,3.4,0c0.3,0,0.8-0.3,0.9-0.6c0.3-0.6,0.3-1.2,0.6-1.9
		c1.8-4.9,4.6-8.9,9.1-11.6c0.8-0.5,1.6-1,2.5-1.5c-3.3-7.1-8.6-11-16.6-10.3C176.6,92.4,172.4,96.2,169.9,102.1z M158.6,30.2
		c2.3,0,2.3,0,3-2.2c0-0.1,0.1-0.1,0.1-0.2c1.4-3.9,3.5-7.2,6.7-9.9c1.2-1,2.6-1.9,4-2.6c0.9-0.4,1-0.7,0.6-1.5
		c-1.2-2.3-2.5-4.5-4.6-6.1c-2.6-2.1-5.5-3.4-8.9-3.5c-2.9-0.1-5.6,0.5-8,1.9c-1.7,1-3.5,1.9-4.7,3.7c-0.8,1.3-1.6,2.7-2.6,3.9
		c-0.7,0.9-0.4,1.1,0.4,1.5c3.3,1.7,6.3,3.7,8.2,6.8c1.1,1.9,2.1,3.9,2.9,5.9C156.5,30.2,156.4,30.2,158.6,30.2z M65.9,102.1
		c1.3,0.7,2.5,1.3,3.6,2.1c2.1,1.5,3.9,3.2,5.3,5.4c1.5,2.3,2.7,4.7,3.3,7.2c0.1,0.3,0.5,0.7,0.8,0.8c1,0.1,2,0,3.1,0.1
		c0.8,0,1.1-0.4,1.4-1c0.5-1.3,0.9-2.7,1.6-4c2.2-4.4,5.3-8,9.9-10.1c0.3-0.1,0.6-0.8,0.5-1c-0.8-2.1-2-4-3.7-5.6
		c-3.3-3-7-4.5-11.5-4.4c-2.5,0.1-4.7,0.8-6.7,2C69.7,95.5,67.5,98.5,65.9,102.1z M161,100.1c0.1-0.1,0.1-0.2,0.1-0.3
		c1-3.5,2.5-6.6,4.8-9.3c1.8-2.2,4-3.9,6.5-5.1c0.7-0.4,1.3-0.8,0.8-1.7c-0.4-0.7-0.6-1.5-1.1-2.1c-1.2-1.4-2.4-2.7-3.7-3.9
		c-2.3-2.2-5.2-3.3-8.3-3.5c-5.4-0.4-9.9,1.7-13.4,5.8c-1.2,1.4-2,3.1-2.8,4.4c2.4,1.7,4.8,3.1,6.7,4.9c3,2.7,4.7,6.3,5.8,10.1
		c0.1,0.3,0.6,0.7,0.9,0.7C158.4,100.2,159.7,100.1,161,100.1z M132.6,117.7c0.4,0,0.8-0.1,1.2,0c1,0.2,1.5-0.3,1.7-1.2
		c0.5-2.3,1.6-4.3,2.8-6.3c2.1-3.5,5.1-6,8.6-7.7c0.2-0.1,0.5-0.6,0.4-0.8c-0.2-0.6-0.5-1.2-0.8-1.7c-2-3.2-4.5-5.8-8-7.1
		c-2.8-1.1-5.6-1.6-8.5-0.9c-3.7,0.8-6.7,2.5-9,5.4c-0.9,1.1-1.7,2.4-2.4,3.6c-0.6,1-0.4,1.6,0.6,2c2.4,0.9,4.3,2.7,6,4.5
		c2.2,2.4,3.7,5.3,4.7,8.3C130.4,117.7,130.4,117.7,132.6,117.7z M66,32.1c1.2,0.8,2.2,1.4,3.2,2.1c3.7,2.4,6.3,5.7,7.8,9.8
		c0.4,1.1,0.6,2.2,1,3.3c0.2,0.3,1,0.6,1.5,0.5c1.2,0,2.7,0.5,3.6-0.7c0.7-1,0.9-2.2,1.4-3.3c1.9-4.7,5.1-8.2,9.4-10.7
		c1.7-0.9,1.7-0.9,0.8-2.6c-2-3.8-4.9-6.4-8.8-7.8c-2.5-1-5.3-1.1-7.8-0.7c-2.3,0.4-4.4,1.4-6.4,2.8C69,26.7,67.2,29.1,66,32.1z
		 M132.4,47.8L132.4,47.8c0.7,0,1.5-0.1,2.2-0.2c0.3-0.1,0.6-0.4,0.7-0.7c0.5-1.2,0.7-2.6,1.4-3.7c1.2-2.1,2.3-4.4,3.9-6.1
		c1.8-1.8,4.2-3.1,6.3-4.6c0.2-0.2,0.4-0.7,0.3-1c-0.7-1.3-1.3-2.6-2.2-3.7c-2.1-2.8-4.8-4.7-8.1-5.7c-1.9-0.5-3.7-0.7-5.6-0.4
		c-1.4,0.2-2.8,0.4-4,0.9c-4,1.6-6.8,4.6-8.7,8.3c-0.4,0.7-0.5,1.3,0.7,1.9c3.2,1.5,5.7,3.8,7.6,6.7c1.5,2.3,2.8,4.7,3.4,7.4
		c0.1,0.3,0.6,0.6,0.9,0.7C131.4,47.9,131.9,47.8,132.4,47.8z M66.1,67c2.1,1.5,4.1,2.9,6,4.6c2.2,1.9,3.9,4.4,4.9,7
		c0.4,1.2,0.4,3,1.2,3.6c0.9,0.7,2.6,0.3,3.9,0.4c0.1,0,0.2,0,0.2,0c0.3-0.2,0.7-0.4,0.8-0.6c1-2.1,1.8-4.3,2.9-6.3
		c1.1-2.1,2.7-4,4.6-5.4c1.6-1.2,3.3-2.3,4.9-3.4c-3.4-7.4-9.1-11.2-17.4-10C72.2,57.8,67.9,61.8,66.1,67z M158,109.1
		c-1.5-0.3-3.6,0.5-5.6,1.4c-2.5,1.1-4.7,2.5-6.2,4.8c-0.9,1.3-1.6,2.6-2.4,3.9c-0.1,0.2,0.3,0.7,0.6,0.9c0.7,0.5,1.7,0.7,2.3,1.3
		c1.6,1.4,3.4,2.5,4.8,4.2c1.9,2.4,3.5,4.8,4.2,7.7c0.5,2,0.4,2,2.5,2c0.4,0,0.9-0.1,1.3,0c1.3,0.3,1.8-0.5,2.1-1.6
		c0.1-0.6,0.3-1.1,0.5-1.6c2-5.4,5.5-9.4,10.6-12c0.6-0.3,0.7-0.5,0.4-1.1c-0.9-1.5-1.7-3.1-2.8-4.4
		C167.3,111,163.4,109.2,158,109.1z M147.3,67.2c-1.4-3.5-3.4-6.4-6.7-8.2c-3.4-1.9-6.8-2.8-10.7-2.1c-5,0.9-10.2,4.9-11.8,10.3
		c1.3,0.8,2.7,1.5,3.9,2.4c1.5,1.1,2.7,2.6,3.9,4c1.9,2.2,2.9,4.9,4,7.3c0.3,0.6,0.1,1.6,0.5,1.8c0.5,0.3,1.4,0.1,2.1,0.1
		c0.5,0,0.9,0,1.4,0c0.8,0,1.4-0.5,1.5-1.2c0.2-2.1,1.4-3.8,2.3-5.7c0.5-1,1.2-1.9,2-2.8c1-1.1,2-2.3,3.2-3.2
		C144.2,68.9,145.8,68.2,147.3,67.2z M106.6,135.2c0.4,0,0.7,0,1.1,0c0.8,0.1,1.3-0.1,1.6-1c0.4-1.5,0.9-3.1,1.7-4.5
		c1.2-2.1,2.6-4.2,4.3-5.9c1.5-1.5,3.5-2.6,5.4-3.7c0.9-0.5,1-1,0.6-1.8c-1.8-3.7-4.7-6.3-8.3-7.9c-4.3-2-8.4-1.7-12.6,0.1
		c-3.6,1.6-6.1,4.4-7.6,7.9c-0.4,0.8-0.4,1.3,0.6,1.8c2.6,1.3,4.9,3,6.7,5.3c1.8,2.4,3.2,4.9,4.1,7.7
		C104.3,135.3,104.4,135.2,106.6,135.2z M104.2,65c1.2,0.1,2.4,0.3,3.5,0.3c0.5,0,1.2-0.3,1.4-0.7c0.4-0.8,0.5-1.7,0.8-2.5
		c0.8-2.6,2.2-4.9,4-6.9c1.9-2.3,4.4-3.7,6.9-5.1c0.3-0.1,0.5-0.8,0.4-1c-0.7-1.4-1.3-3-2.4-4.1c-3.8-4-8.1-6.3-13.9-5.7
		c-3.5,0.3-6.3,1.9-8.7,4c-1.4,1.2-2.4,2.9-3.5,4.5s-0.9,1.9,0.8,2.7c0.2,0.1,0.3,0.2,0.5,0.3c2.3,1.7,4.5,3.3,6.2,5.7
		C102.1,59,103.3,61.9,104.2,65z M108.9,100.1c0.9-3.6,2.5-6.8,4.8-9.6c1.9-2.4,4.4-4,6.9-5.3c0.5-0.3,1.1-0.5,0.6-1.2
		c-0.9-1.5-1.8-3.2-2.9-4.5c-2.4-2.7-5.5-4.4-8.9-5.1c-4.1-0.9-7.8,0.2-11.3,2.4c-2.7,1.7-4.3,4.2-5.8,6.9c-0.3,0.5-0.4,1,0.4,1.3
		c0.9,0.4,1.7,0.9,2.5,1.5c4.6,3.2,7.4,7.5,8.9,12.9c0.1,0.3,0.6,0.7,0.9,0.7C106.3,100.2,107.6,100.1,108.9,100.1z M91.9,14.7
		c0.5,0.3,0.9,0.4,1.2,0.6c5.1,2.6,8.4,6.7,10.3,11.8c1.1,3,0.9,3,4.1,3.1c1.1,0,1.8-0.2,1.9-1.5c0-0.7,0.4-1.4,0.7-2.1
		c1.5-3.7,3.5-6.8,6.8-9.1c1.2-0.8,2.5-1.6,3.8-2.4c0.6-0.4,0.9-0.6,0.6-1.4c-1.8-4.1-4.9-6.8-8.9-8.5s-8.1-1.7-11.9,0.2
		c-2.3,1.2-4.6,2.7-6.1,5.1C93.5,12,92.7,13.3,91.9,14.7z M156.6,65.2c1.3,0,2.6,0.1,3.9,0c0.3,0,0.8-0.5,0.9-0.8
		c0.6-2.6,1.7-5,3.1-7c1.8-2.7,4.3-4.9,7-6.6c0.6-0.4,1.5-0.6,1.6-1.1c0.2-0.4-0.5-1.2-0.8-1.7c-0.6-1.1-1.1-2.4-2-3.3
		c-2.2-2.3-4.8-4.1-7.9-5c-4-1-7.5-0.3-11,1.5c-3.6,1.8-6,4.9-7.5,8.6c3,1.6,5.9,3.4,8.1,6.1C154.1,58.4,155.4,61.7,156.6,65.2z
		 M54.6,135.2L54.6,135.2c0.5,0,1.1,0.1,1.6,0c0.4-0.1,0.8-0.4,1-0.7c0.3-0.5,0.3-1.2,0.5-1.7c1-2.2,1.8-4.5,3.3-6.4
		c2.1-2.7,4.6-5.1,7.8-6.5c0.2-0.1,0.5-0.6,0.4-0.8c-1.3-3-3.2-5.7-6.1-7.4c-3.7-2.4-7.5-3-11.9-2.1c-2.4,0.5-4.3,1.6-6.2,2.9
		c-2.2,1.5-3.5,3.9-4.8,6.1c-0.3,0.6-0.4,1.1,0.5,1.5c3,1.5,5.6,3.7,7.5,6.4c1.7,2.3,3.3,4.8,3.9,7.6c0.2,1,0.7,1.4,1.6,1.2
		C54,135.2,54.3,135.2,54.6,135.2z M39.9,14.7c0.8,0.4,1.7,0.7,2.4,1.2c4.9,3.2,8.2,7.4,9.8,13.1c0.2,0.7,0.6,1.3,1.6,1.2
		c0.7-0.1,1.4-0.1,2.1,0c1,0.1,1.5-0.4,1.7-1.3c0.3-0.9,0.4-1.9,0.9-2.7c1.2-2.1,2.2-4.2,3.7-6c1.3-1.5,3.1-2.7,4.7-3.9
		c0.9-0.7,1.8-1.2,2.7-1.9C66.1,7.7,60.9,3.7,53.3,4.3C46.8,4.9,42.5,8.7,39.9,14.7z M40,84.3c2.2,1.7,4.4,3.1,6.3,4.9
		c2.4,2.2,4.1,5,5.3,7.9c0.4,1,0.4,2.4,1.1,2.9c0.8,0.5,2.1,0.1,3.2,0.2c1,0.1,1.3-0.5,1.6-1.3c0.8-2.1,1.6-4.3,2.7-6.3
		c1.9-3.4,4.9-5.8,8.3-7.5c0.8-0.4,0.8-0.8,0.4-1.5c-1.7-3.5-4.2-6-7.5-7.7c-4.5-2.4-8.9-2.1-13.3-0.2C44.2,77.5,41.6,80.6,40,84.3z
		 M212.8,30.2c0.8-2.1,1.3-3.7,2-5.3c2.2-4.3,5.4-7.6,9.7-9.7c0.8-0.4,1-0.8,0.6-1.5s-0.9-1.4-1.3-2.2c-2.5-4.3-6.5-6.4-11-7.1
		c-3.7-0.7-7.2,0.3-10.4,2.4c-2.6,1.8-4.5,4.2-6,6.9c-0.4,0.9-0.1,1.1,0.6,1.6c1.9,1.1,3.9,2.2,5.4,3.7c2.7,3,5,6.4,5.8,10.4
		c0.1,0.3,0.5,0.8,0.8,0.8C210.3,30.2,211.7,30.2,212.8,30.2z M196,84.6c0.5,0.3,0.9,0.6,1.4,0.8c3.1,1.5,5.5,3.8,7.3,6.6
		c1.6,2.2,2.8,4.7,3.3,7.3c0.1,0.5,0.4,1,1.1,0.9c1-0.1,2,0,2.9-0.1c0.4,0,1-0.4,1-0.7c0.7-2.6,1.6-5.1,3.4-7.1
		c1.1-1.3,2.1-2.7,3.4-3.9c1.5-1.3,3.3-2.4,5-3.6c0.2-0.2,0.5-0.7,0.4-0.8c-0.9-1.5-1.6-3.2-2.8-4.5c-2.8-3.1-6.2-5-10.3-5.4
		c-3.6-0.3-6.7,0.5-9.6,2.3C199.5,78.5,197.4,81.2,196,84.6z M57.1,65.1c0.3-1.2,0.5-2.3,0.9-3.3c2.1-5.2,5.5-9.1,10.4-11.6
		c0.8-0.4,0.9-0.7,0.5-1.5c-1.5-3.1-3.7-5.5-6.6-7.2c-3.4-2.1-6.9-2.6-10.7-1.8c-5.4,1-9,4.2-11.3,9c-0.3,0.5-0.5,1,0.3,1.5
		c1.6,1,3.1,2.1,4.7,3.1c2.6,1.9,4.1,4.7,5.6,7.2c0.7,1.2,0.9,2.6,1.5,3.9c0.1,0.3,0.5,0.7,0.7,0.7C54.3,65.2,55.7,65.1,57.1,65.1z
		 M225.3,119.7c-2.6-6.5-7.7-10.3-14.6-10.3c-7.1,0-11.8,3.9-14.8,10.3c0.9,0.5,1.8,0.9,2.7,1.5c3,2,5.6,4.5,7.2,7.7
		c1,1.8,1.6,3.8,2.4,5.7c0.1,0.2,0.3,0.6,0.4,0.6c1.2,0.1,2.3,0.1,3.5,0.1c0.6,0,0.9-0.3,1.1-1c0.5-2.3,1.5-4.4,2.8-6.4
		C218.4,124.3,221.4,121.7,225.3,119.7z M208.7,65.1c0.9,0,2.2,0.1,3.5,0c0.4,0,1-0.6,1-0.9c0.6-2.8,1.9-5.3,3.7-7.5
		c2.1-2.6,4.5-4.9,7.4-6.4c0.9-0.4,1-0.8,0.6-1.5c-1.8-3.5-4.2-6.5-7.8-8c-5.3-2.3-10.3-1.9-15.1,1.2c-2.5,1.6-4.4,3.9-5.6,6.7
		c-0.4,0.9-0.6,1.2,0.4,1.7c3.3,1.5,6,3.8,7.8,6.7C206.3,59.4,207.3,62.2,208.7,65.1z M13.8,102.1c1.6,0.9,2.9,1.6,4.1,2.4
		c3,2,5.2,4.7,6.6,7.9c0.6,1.3,1,2.6,1.5,3.9c0.4,1,0.8,1.8,2.1,1.5c0.6-0.1,1.3-0.1,1.9,0c0.8,0.1,1.1-0.3,1.4-1.1
		c0.6-1.9,1.2-3.8,2.1-5.5c2.1-3.8,5.2-6.7,9.1-8.6c0.7-0.3,0.8-0.7,0.5-1.4c-1.6-3-3.5-5.6-6.5-7.2c-3.5-2-7.1-2.8-11.1-1.8
		s-7,3.4-9.5,6.4C14.9,99.5,14.4,100.9,13.8,102.1z M14,67.2c0.9,0.6,1.8,1.1,2.7,1.6c4.3,2.4,7,6.1,8.7,10.6
		c1.2,3.3,1.1,3.4,4.7,3.3c0.7,0,1.1-0.3,1.2-1c0.6-2.3,1.5-4.6,2.8-6.6c2.4-3.6,5.4-6.2,9.3-7.8C40,60.2,34.8,56.2,26.6,57
		C21.6,57.3,15.3,62.2,14,67.2z M43.4,32c-1-1.5-1.7-2.9-2.7-4.2c-3.9-5.1-9.1-7-15.3-5.7c-5.2,1.1-9,4.4-11.3,9.3
		c-0.3,0.6-0.2,0.8,0.4,1.1c2.9,1.5,5.7,3.3,7.6,6c1.7,2.3,3.1,4.8,3.8,7.6c0.1,0.6,0.5,1.5,0.9,1.6c1.1,0.2,2.3,0.1,3.5,0
		c0.4,0,0.8-0.6,1-1c0.4-0.8,0.7-1.7,1-2.6c1.5-4.3,4.2-7.5,7.9-10C41.2,33.3,42.2,32.7,43.4,32z M132.2,49.2
		c-2.4-0.2-4.9,0.4-7.3,1.1c-4.6,1.4-8.3,3.9-11,7.7c-1.4,2-2.5,4.1-3,6.6c-0.1,0.5-0.1,0.8,0.6,1c1.4,0.2,2.7,0.5,4,0.9
		c1.1,0.3,1.5,0,2.1-1c0.9-1.7,1.9-3.5,3.2-4.9c2.8-2.9,6.3-4.7,10.3-5.2c3.5-0.4,6.6,0.4,9.5,2c3.6,2,6.1,4.9,7.6,8.5
		c0.1,0.3,0.8,0.6,1.1,0.6c1.6-0.3,3.1-0.7,4.7-1.1c0.2-0.1,0.5-0.3,0.5-0.5c-0.1-1-0.1-2.1-0.5-2.9c-2.2-4.5-5.4-8-9.8-10.4
		C140.5,49.9,136.6,49,132.2,49.2z M110.7,135.2c1.5,0.4,2.9,0.8,4.3,1.2c1.6,0.5,1.8,0.4,2.6-1.1c1.8-3.6,4.4-6.5,8-8.2
		c4.4-2.1,8.8-2.4,13.3-0.5c4.5,1.9,7.5,5.1,9.4,9.5c0.1,0.3,0.6,0.6,0.9,0.5c1.7-0.3,3.4-0.7,5.1-1.2c0.2-0.1,0.5-0.4,0.5-0.6
		c-0.1-0.6-0.2-1.1-0.5-1.7c-1.4-2.8-2.6-5.6-5-7.7c-2.3-2.1-4.8-3.9-7.6-4.9c-3.6-1.2-7.2-1.8-11.1-1.3c-3.3,0.4-6.4,0.9-9.2,2.6
		c-2.3,1.3-4.4,2.8-6.2,4.7c-0.6,0.6-1,1.3-1.5,2C112.2,130.6,111.1,132.8,110.7,135.2z M154.9,30.2c-0.7-1.5-1.4-3.1-2-4.6
		c-1.9-4.3-5.4-7.1-9.4-9.1c-3.3-1.7-6.8-2.4-10.4-2.3c-2.9,0.1-5.9,0.5-8.6,1.2c-3.8,1-6.8,3.4-9.5,6.2c-0.4,0.4-0.5,0.9-0.9,1.3
		c-1.8,1.9-2.5,4.3-3.3,6.7c-0.2,0.7,0,0.9,0.6,1c1.3,0.2,2.5,0.4,3.7,0.8c1.7,0.4,1.8,0.4,2.5-1.1c1.4-3.2,3.7-5.7,6.7-7.3
		c1.9-1,4-1.7,6.1-2.2c2.4-0.5,4.8-0.5,7,0.5c1.7,0.7,3.4,1.6,5,2.6c2.8,1.7,4.5,4.4,5.9,7.1c0.3,0.7,0.7,0.9,1.3,0.8
		C151.3,31.2,152.9,30.7,154.9,30.2z M154.8,100.2c-0.2-0.4-0.3-0.8-0.5-1.3c-1.2-3.3-2.5-6.6-5.5-8.7c-2-1.5-3.9-3-6.1-4
		c-2.1-0.9-4.5-1.4-6.7-1.7c-3.3-0.5-6.6-0.4-9.7,0.4c-3.6,0.8-6.6,2.6-9.3,4.9c-3.1,2.4-4.8,5.6-6,9.1c-0.2,0.6-0.6,1.6,0.7,1.8
		c1.3,0.2,2.6,0.5,3.8,0.9c0.8,0.2,1.3,0.2,1.7-0.7c1.2-2.7,3-5,5.3-6.8c2.6-2.1,5.6-3.3,8.7-3.6c1.7-0.2,3.5-0.1,5.1,0.3
		c2.4,0.6,4.8,1.7,6.7,3.4c1.9,1.6,3.5,3.5,4.6,5.8c0.4,0.8,0.6,2.1,2.1,1.7C151.4,101.1,153,100.6,154.8,100.2z M84.9,117.6
		c1.3,0.4,2.5,0.7,3.7,1c1.9,0.6,1.9,0.6,2.9-1.2c2-3.7,4.8-6.6,8.7-8.2c1.4-0.6,2.8-1.2,4.2-1.3c2.5-0.2,5-0.1,7.4,0.8
		c4.9,1.7,8.3,4.7,10.4,9.3c0.3,0.7,0.7,1.3,1.8,0.9c1.2-0.5,2.5-0.9,3.7-0.9c1.1,0,1.1-0.2,0.8-1.1c-0.4-1.1-0.7-2.3-1.2-3.3
		c-1.1-2.4-2.5-4.5-4.6-6.3c-2.3-2-4.8-3.6-7.6-4.4c-1.2-0.3-2.4-0.8-3.6-0.9c-2.3-0.2-4.7-0.2-7-0.3c-2.9,0-5.7,0.9-8.2,2
		c-3.5,1.5-6.4,3.8-8.3,7C86.4,112.8,85.4,115,84.9,117.6z M84.8,82.6c1.8,0.5,3.5,0.9,5.2,1.3c0.6,0.2,0.9,0.1,1.1-0.5
		c0.3-0.9,0.7-1.7,1.2-2.5c1.9-2.9,4.3-5.2,7.4-6.6s6.2-2,9.5-1.4c3.6,0.6,6.7,2.3,9.3,4.9c1.6,1.6,2.7,3.8,4,5.7
		c0.2,0.3,0.6,0.6,0.8,0.6c1.8-0.4,3.6-0.9,5.5-1.5c-0.3-0.7-0.6-1.4-0.8-2.1c-0.6-2.9-2.4-5.1-4.2-7.1c-2.4-2.9-5.7-4.5-9.1-5.6
		c-3.8-1.2-7.5-1.3-11.4-1s-7.2,1.6-10.3,3.8C88.7,73.6,86,77.7,84.8,82.6z M90.8,49.1c1.1-3.2,3.1-5.9,5.9-7.8
		c4.4-3.2,9.1-4.5,14.6-2.7c5.1,1.7,8.7,4.7,10.9,9.5c0.4,0.8,0.9,1.3,2,0.8s2.4-0.7,3.7-0.9c0.8-0.1,1-0.4,0.8-1
		c-1.1-3.4-2.7-6.5-5.3-9c-2.2-2.2-4.8-3.7-7.6-4.8c-3-1.1-6-1.5-9-1.6c-3.1-0.1-6.1,0.5-8.9,1.5c-2.7,1-5.1,2.4-7.1,4.4
		c-2.4,2.2-3.8,5-5.2,7.7c-0.3,0.5-0.4,1.2-0.5,1.8c-0.1,0.5-0.1,1,0.7,1.1C87.3,48.3,88.9,48.7,90.8,49.1z M136.6,47.6
		c0.2,0.2,0.3,0.3,0.4,0.4c1.7,0.4,3.4,0.9,5,1.2c0.3,0.1,0.8-0.3,0.9-0.6c0.7-1.2,1.2-2.5,2-3.5c1.6-2.2,3.6-4,6.1-5.2
		c3.2-1.6,6.6-2.7,10.1-2s6.8,2,9.2,4.7c1.8,2,3.2,4.3,4.8,6.4c1.5-0.3,3.2-0.6,4.9-1c0.3-0.1,0.6-0.7,0.5-1
		c-0.2-0.8-0.6-1.6-0.9-2.4c-1-2.8-2.7-5.1-4.8-7c-4.4-4.2-9.7-5.7-15.6-5.9c-1.7-0.1-3.4,0.2-5.1,0.4c-2.9,0.4-5.8,1.2-8.2,2.7
		c-3.2,2-5.7,4.6-7.4,7.9C137.7,44.3,137.2,46,136.6,47.6z M136.6,117.7c1.7,0.4,3.3,0.8,4.9,1.3c0.7,0.2,1.1,0.3,1.6-0.5
		c0.8-1.4,1.7-2.7,2.5-4c2.3-3.7,6-5.4,9.8-6.4c4.2-1.1,8.2-0.2,12,2.1c3.3,2,5.6,4.8,7.1,8.1c0.3,0.6,0.6,0.8,1.3,0.5
		c1.3-0.5,2.7-0.7,4-1c0.6-0.1,0.9-0.3,0.7-1c-0.8-2.5-1.9-4.8-3.4-6.8c-1.4-1.9-3.1-3.4-5-4.8c-2.6-1.9-5.5-2.8-8.5-3.4
		c-3-0.5-6.1-0.6-9-0.1c-3.1,0.5-6.1,1.3-8.7,2.9C141,107.9,138,112.2,136.6,117.7z M180.6,82.7c-0.3-0.9-0.6-1.6-0.8-2.4
		c-1.2-3.4-3.3-6.1-5.9-8.4c-1.6-1.5-3.5-2.4-5.5-3.3c-2.8-1.3-5.7-1.7-8.5-1.9c-2.3-0.1-4.6,0.3-6.8,0.6c-2.7,0.3-4.9,1.5-7,2.6
		c-0.8,0.4-1.7,0.9-2.2,1.6c-1.2,1.7-3,2.8-4.2,4.6c-1.4,2.1-1.8,4.6-3.1,6.7c1.9,0.4,3.6,0.8,5.2,1.3c0.9,0.3,1.1-0.2,1.5-0.8
		c1-1.7,1.9-3.5,3.2-4.9c2.8-3,6.3-4.7,10.2-5.4c3.2-0.6,6.3,0,9,1.3c4.2,2,7.2,5.3,8.9,9.8C176.5,83.6,178.5,83.2,180.6,82.7z
		 M96.6,101.6c0.6-0.1,1.3-0.2,1.9-0.4c0.7-0.2,1.3-0.5,2-0.6c2.3-0.3,2.4-0.3,1.6-2.5c-1.5-4.1-4-7.4-7.6-10
		c-3.8-2.7-8-3.8-12.6-3.9c-2.7,0-5.3,0.2-7.8,0.9c-3.7,0.9-6.7,2.6-9.4,5.1c-2.1,1.8-3.4,4.2-4.6,6.6c-0.5,1.1-0.7,2.3-1.1,3.5
		c2,0.5,3.9,1,5.9,1.5c3.6-8.4,10.6-11.8,16.6-11.4C88.4,90.7,93.8,94.6,96.6,101.6z M162.5,30.2c1.8,0.4,3.4,0.7,4.9,1.2
		c1,0.3,1.5,0,1.9-0.8c1.7-3.8,4.4-6.7,8.1-8.5c2.5-1.3,5.1-1.9,7.7-1.8c1.8,0,3.5,0.6,5.3,1.1c2.4,0.7,4.4,2,6.2,3.7
		c1.7,1.7,3.1,3.7,4.1,6c0.3,0.6,0.5,0.7,1.2,0.4c1.2-0.4,2.5-0.9,3.8-0.9c1.4-0.1,1.2-0.7,0.9-1.5c-1.2-3.3-2.7-6.3-5.4-8.7
		c-2-1.9-4.2-3.3-6.6-4.3c-3.8-1.6-7.6-1.9-11.6-1.6c-2.2,0.2-4.4,0.7-6.5,1.2c-2.3,0.5-4.2,1.9-6.1,3.2c-2.2,1.5-3.8,3.5-5.1,5.8
		C164.1,26.3,163.4,28.2,162.5,30.2z M168.5,66.6c0.1-0.1,0.2-0.4,0.3-0.6c1.4-2.6,2.9-5.2,5.4-6.9c3.9-3,8-4.4,12.9-3.6
		c6.3,1.1,10.6,4.6,13.2,10.3c0.3,0.6,0.7,0.8,1.2,0.7c1.6-0.4,3.2-0.8,4.9-1.2c-0.1-0.4-0.1-0.9-0.3-1.3c-0.9-1.9-1.7-3.9-2.7-5.7
		c-1.4-2.3-3.4-4.3-5.8-5.7c-2.4-1.5-5-2.4-7.6-3c-4.4-1-8.7-0.6-13,0.5c-2.7,0.7-5.2,1.9-7.2,3.7c-1.1,0.9-2.2,1.8-3.1,3
		c-1,1.4-1.9,2.9-2.6,4.4c-0.6,1.3-1.4,2.6-1.2,4C165,65.8,166.6,66.2,168.5,66.6z M58.8,65.5c0.4,0,0.6,0.1,0.7,0.1
		c1.4,0.3,2.8,0.5,4.1,0.9c0.7,0.2,1.1,0,1.4-0.6c0.5-1,0.8-2,1.4-2.9c2.7-3.5,5.9-6.2,10.2-7.2c2.9-0.8,5.8-0.7,8.4,0.1
		c5.5,1.7,9.2,5.4,11.5,10.7c1.9-0.4,3.9-0.8,5.9-1.2c-0.1-0.4-0.1-0.8-0.2-1.1c-0.8-1.9-1.5-4-2.6-5.7c-2.6-4-6.3-6.8-10.8-8.1
		c-4.3-1.3-8.7-1.7-13.2-0.8c-4.6,1-8.8,2.7-12,6.4C61.3,58.7,59.5,61.7,58.8,65.5z M58.8,135.1c1.8,0.5,3.6,1.1,5.3,1.5
		c0.1,0,0.4-0.3,0.6-0.5c0.6-0.8,1.1-1.6,1.6-2.5c1-1.9,2.4-3.4,4.1-4.7c4.3-3.3,9-4.6,14.2-3.2c5.5,1.5,9.4,4.9,11.7,10.1
		c0.4,0.8,0.7,0.9,1.5,0.7c1.2-0.4,2.5-0.8,3.8-1c1.1-0.1,1.2-0.6,0.9-1.4c-0.8-1.8-1.5-3.7-2.6-5.4c-1.3-1.8-2.9-3.4-4.5-5
		c-1.9-1.8-4.3-2.8-6.7-3.6c-3.1-1-6.3-1.2-9.5-1c-4.3,0.2-8.1,1.2-11.7,3.6C62.9,125.7,60.2,129.9,58.8,135.1z M206.6,134.8
		c-0.6-1.6-1.1-3-1.8-4.3c-2.5-4.5-6-7.9-10.8-9.7c-4.3-1.6-8.7-2.1-13.2-1.4c-5.3,0.8-10.1,2.8-13.6,7c-2,2.4-3.6,5.1-4.3,8.1
		c-0.2,0.7-0.1,0.8,0.6,0.9c1.5,0.3,2.9,0.7,4.4,1c0.3,0.1,0.7,0,0.9-0.2c0.3-0.3,0.6-0.8,0.8-1.2c1.1-2.3,2.5-4.2,4.4-5.8
		c4.2-3.5,8.9-4.9,14.4-3.7c3.1,0.7,5.9,2.2,8.1,4.4c1.8,1.7,3.1,3.8,4.2,6c0.1,0.3,0.7,0.5,1,0.5c1.4-0.3,2.8-0.6,4.1-1
		C206,135.4,206.3,135.1,206.6,134.8z M102.6,30.2c-0.2-0.7-0.3-1.4-0.6-2.2c-1.1-3-2.8-5.7-5.1-7.8c-2.6-2.4-5.6-4.1-9.1-5.1
		c-4-1-7.8-1.2-11.8-0.5c-5.4,0.9-10.1,3.1-13.4,7.7c-1.6,2.2-2.9,4.5-3.7,7c-0.1,0.3,0.2,1,0.4,1c1.7,0.4,3.4,0.8,5.2,1.2
		c0.2-0.3,0.4-0.6,0.6-0.9c2.6-6.3,9.5-11.1,17-10.3c2.6,0.3,5,1.1,7.2,2.5c3.2,2,5.5,4.8,6.9,8.1c0.3,0.7,0.6,0.7,1.2,0.5
		C99.1,31,100.7,30.7,102.6,30.2z M162.7,100c0.2,0.2,0.3,0.3,0.5,0.3c1.7,0.4,3.4,0.8,5,1.2c0.2,0,0.5-0.2,0.6-0.4
		c0.6-1,1.1-2.1,1.8-3.1c1.5-2.4,3.7-4.2,6.1-5.6c2.6-1.6,5.6-2.4,8.5-2.3c3,0.1,5.9,1,8.5,2.7c3.4,2.2,5.6,5.1,7.1,8.7
		c1.7-0.4,3.5-0.7,5.2-1.2c0.8-0.2,0.6-0.9,0.4-1.4c-0.3-0.9-0.8-1.7-1.1-2.5c-1-2.9-3-5.3-5.2-7.1c-3.9-3.3-8.5-4.9-13.6-5.1
		c-3-0.1-5.9,0-8.8,0.9c-3,0.9-5.8,2.1-8.1,4.2C166,92.1,164.1,95.8,162.7,100z M38.5,119c0-0.1,0.1-0.2,0.2-0.4
		c0.1-0.2,0.3-0.4,0.4-0.6c1.4-3.2,3.5-5.8,6.4-7.5c3.2-2,6.6-2.9,10.3-2.6c4.5,0.3,8,2.2,11,5.4c1.5,1.6,2.5,3.4,3.5,5.2
		c0.3,0.5,0.5,0.7,1.2,0.5c1.3-0.4,2.7-0.8,4.1-1c0.9-0.1,1-0.4,0.7-1.2c-1.3-3.9-3.3-7.2-6.6-9.9c-3.7-3.2-7.9-4.6-12.6-5
		c-4.1-0.3-8.2,0-12.1,1.6c-2.9,1.2-5.5,2.8-7.5,5.2c-2.2,2.5-3.8,5.4-4.8,8.5c-0.2,0.6-0.1,0.8,0.5,0.9
		C35,118.3,36.7,118.6,38.5,119z M211,37.6c0.9,0.2,2,0.4,3.1,0.6c3.4,0.7,6.3,2.2,8.6,4.7c1.6,1.7,2.9,3.7,3.8,5.9
		c0.1,0.2,0.5,0.5,0.8,0.4c1.5-0.3,3-0.7,4.5-1.1c0.7-0.2,1-0.4,0.7-1.3c-1.2-3.6-3-6.7-5.8-9.2c-1.4-1.2-3-2.4-4.6-3.2
		c-4.1-2-8.4-2.8-13-2.4c-2.5,0.2-5,0.6-7.4,1.4c-3.1,1.1-5.7,2.8-7.8,5.2c-2.2,2.4-3.9,5.3-4.7,8.5c-0.2,0.7-0.1,0.9,0.6,1.1
		c1.4,0.3,2.9,0.8,4.3,1.1c0.3,0.1,1-0.3,1.1-0.6c1.1-2.7,2.9-4.9,5.2-6.7C203.3,39.1,206.8,38,211,37.6z M32.7,47.7
		c1.8,0.4,3.4,0.6,4.8,1.2c0.8,0.4,1.1,0.2,1.4-0.4c1.4-3.2,3.5-5.8,6.4-7.7c2.5-1.7,5.2-2.7,8.1-2.9c5-0.4,9.2,1.3,12.9,4.8
		c1.8,1.7,3,3.8,4.1,6c0.3,0.6,0.6,0.8,1.3,0.5c1.3-0.5,2.7-0.7,4.1-1c0.6-0.1,1-0.3,0.7-1c-0.6-1.3-1-2.7-1.7-4
		c-2.6-4.8-6.3-8.2-11.5-9.9c-3-1-6-1.4-9-1.4c-1.8,0-3.6,0.3-5.4,0.7c-3.9,0.8-7.4,2.5-10.3,5.3c-2.2,2.1-3.7,4.6-4.9,7.2
		C33.2,45.7,33,46.7,32.7,47.7z M188.9,82.6c1.5,0.4,3,0.7,4.4,1.1c1,0.3,1.5,0.3,2-0.8c0.9-2.4,2.5-4.5,4.5-6.1
		c2.2-1.8,4.7-3.2,7.5-3.8c3.7-0.8,7.2-0.4,10.5,1.2c4,1.9,6.9,4.9,8.6,8.9c0.1,0.3,0.6,0.7,0.9,0.7c1.8-0.4,3.5-0.9,5.5-1.4
		c-0.5-1.3-1.1-2.5-1.6-3.8c-2.1-5.1-5.9-8.4-10.7-10.4c-4.4-1.8-9.1-2.2-13.8-1.5c-5.6,0.8-10.3,3.1-13.9,7.6
		C191,77,189.5,79.7,188.9,82.6z M32.3,82.4c2.2,0.6,4,1.1,5.8,1.5c0.2,0,0.7-0.4,0.8-0.7c2.4-5.5,6.6-8.8,12.4-10.1
		c5.6-1.2,10.4,0.3,14.6,4c1.9,1.7,3.6,3.7,4.5,6.3c0.2,0.7,0.6,0.9,1.4,0.5c1.1-0.5,2.3-0.7,3.5-0.9c1.4-0.2,1.5-0.3,1.1-1.7
		c-0.7-2.4-1.9-4.6-3.4-6.5c-1.6-2.1-3.4-4-5.9-5.3c-2.4-1.3-4.9-2.3-7.5-2.6c-2.5-0.3-5-0.2-7.4-0.2c-2.7,0.1-5.3,0.7-7.7,1.8
		c-3.4,1.4-6.1,3.6-8,6.6C34.6,77.5,33.6,80,32.3,82.4z M28.8,84.1c-1.1,0.1-2.2,0.2-3.4,0.3c-3.8,0.4-7.3,1.6-10.5,3.7
		c-4.1,2.8-6.5,6.7-8,11.3c-0.2,0.7,0,0.9,0.6,1c1.5,0.3,3,0.8,4.4,1.1c0.3,0.1,0.8-0.3,0.9-0.6c2.3-5.1,6.2-8.3,11.5-10
		c3-0.9,6-0.9,9,0.1c4.7,1.5,8,4.5,10.4,8.7c1,1.9,1,1.9,3.1,1.5c1.1-0.3,2.2-0.5,3.3-0.8c0.2-0.1,0.6-0.6,0.5-0.8
		c-0.6-1.5-1.3-2.9-2-4.3c-1.7-3.3-4.2-6-7.4-7.8C37.3,85.2,33.2,84.2,28.8,84.1z M50.6,65.2C46,52,36.4,47.7,23.6,49.7
		c-8.7,1.4-14.5,6.7-17,15.3c0.2,0.2,0.2,0.3,0.2,0.3c1.7,0.4,3.4,0.8,5.1,1.2c0.2,0,0.7-0.3,0.8-0.6c1.3-2.9,3.1-5.4,5.8-7.1
		c2.9-2,6-3.4,9.5-3.5c2.7-0.1,5.2,0.6,7.6,1.7c2.3,1,4.2,2.5,5.7,4.3c1.4,1.6,2.3,3.6,3.4,5.4C46.6,66.1,48.6,65.7,50.6,65.2z
		 M6.7,135.2c2,0.5,3.8,0.9,5.7,1.3c3.3-6.7,8.4-11.1,16.2-11.2s13,4.4,16.1,11.3c2.1-0.5,4.1-1,6-1.5c-0.4-1.1-0.8-2.1-1.2-3
		c-1.4-3.4-3.5-6.1-6.3-8.3c-3.4-2.8-7.3-4-11.6-4.4c-5.2-0.5-10.1,0.2-14.8,2.6c-3.3,1.7-5.9,4.2-7.7,7.4
		C8,131.2,7,133.1,6.7,135.2z M188.7,117.7c1.8,0.4,3.2,0.7,4.7,1.1c0.9,0.2,1.5,0.3,2-0.9c0.7-1.6,1.8-3.1,2.9-4.4
		c2.7-3.1,6.1-4.8,10-5.6c3.3-0.7,6.5-0.1,9.3,1.2c4.1,1.8,6.9,5.1,9,9c0.4,0.7,0.8,0.8,1.5,0.6c1.5-0.4,3-0.7,4.5-1.1
		c0-0.1,0.1-0.4,0-0.6c-1.3-4-3.2-7.5-6.5-10.2c-1.7-1.4-3.6-2.5-5.6-3.5c-2.4-1.2-5-1.5-7.5-1.7c-4.6-0.3-9.1,0.1-13.3,2.3
		c-4.1,2.1-7.2,5-9.2,9.2C189.9,114.7,189.3,116.2,188.7,117.7z M50.7,30.1c-0.6-1.4-1-2.5-1.5-3.5c-2-4.2-4.8-7.4-8.9-9.7
		c-2.8-1.4-5.7-2.2-8.6-2.5c-4-0.4-7.9,0-11.8,1.3c-6.8,2.4-10.9,7.2-13,14c-0.1,0.2,0.3,0.7,0.5,0.7c0.8,0.2,1.6,0.3,2.5,0.5
		c0.8,0.2,1.8,0.7,2.4,0.4c0.7-0.3,1-1.3,1.4-2.1c1.1-2.1,2.6-3.9,4.6-5.3c1.8-1.2,3.5-2.4,5.5-3.1c2.1-0.7,4.4-1,6.7-0.6
		c4.6,0.7,8.3,2.6,11.2,6.2c1.2,1.6,2.2,3.3,3.3,5C46.6,31.1,48.6,30.6,50.7,30.1z"/>
	<path d="M66.3,149.6c-5.7-7.3-17.9-7-23.3,0c-0.6,0-1.3,0-1.9,0c1.3-1.2,2.6-2.5,3.9-3.7c2.1-1.9,4.7-2.8,7.3-3.1
		c1.7-0.2,3.5-0.1,5.2,0.1c2.3,0.3,4.5,1.1,6.3,2.5c1.6,1.3,3,2.8,4.5,4.2C67.5,149.6,66.9,149.6,66.3,149.6z"/>
	<path d="M222.5,149.6c-3.3-3.8-7.4-5.6-12.4-5.4c-4.2,0.2-7.7,1.7-10.5,4.8c-0.2,0.2-0.4,0.4-0.7,0.6c-0.5,0-1.1,0-1.6,0
		c0.9-1,1.6-2.2,2.6-2.9c1.8-1.3,3.8-2.4,5.8-3.3c3-1.3,6.1-1.2,9.1-0.4c2.4,0.7,4.6,1.6,6.5,3.2c1.2,1,2.1,2.2,3.2,3.3
		C223.7,149.6,223.1,149.6,222.5,149.6z"/>
	<path d="M118.6,149.6c-1.9-2.4-4.4-3.9-7.1-4.7c-1.7-0.5-3.4-0.9-5.2-0.9c-3.8,0.1-7.1,1.4-9.9,4.1c-0.5,0.5-0.9,1-1.4,1.5
		c-0.5,0-1.1,0-1.6,0c1.1-1.2,2-2.6,3.3-3.6c1.9-1.4,4.1-2.4,6.4-3c4.6-1.2,8.6,0,12.6,2.3c1.9,1.1,3.3,2.6,4.6,4.3
		C119.7,149.6,119.1,149.6,118.6,149.6z"/>
	<path d="M170.4,149.6c-2-2.5-4.6-4-7.5-5c-2.4-0.8-4.9-0.8-7.2-0.4c-2.3,0.4-4.4,1.5-6.2,2.9c-0.9,0.7-1.8,1.6-2.7,2.5
		c-0.5,0-1.1,0-1.6,0c1.3-1.9,3-3.3,5-4.5c2.7-1.6,5.5-2.5,8.5-2.6c3.8,0,7.1,1.3,10,3.6c1.2,1,2.2,2.3,3.4,3.4
		C171.5,149.6,171,149.6,170.4,149.6z"/>
	<path d="M14.2,149.6c-3-3.4-6.6-5.3-11.1-5.4c-0.7,0-1.5,0-2.2,0c0-0.5,0-1.1,0-1.6c4.1-0.3,7.8,0.7,11.2,3.1c1.5,1.1,2.7,2.6,4,4
		C15.5,149.6,14.8,149.6,14.2,149.6z"/>
</g>
</svg>
