<?xml version="1.0" encoding="utf-8"?>
<!-- Generator: Adobe Illustrator 24.0.2, SVG Export Plug-In . SVG Version: 6.00 Build 0)  -->
<svg version="1.1" id="Слой_1" xmlns="http://www.w3.org/2000/svg" xmlns:xlink="http://www.w3.org/1999/xlink" x="0px" y="0px"
	 viewBox="0 0 238.1 150.2" style="enable-background:new 0 0 238.1 150.2;" xml:space="preserve">
<style type="text/css">
	.st0{fill-rule:evenodd;clip-rule:evenodd;fill:#2B2A29;}
</style>
<g id="Layer_x0020_1">
	<g id="_2606049836528">
		<g>
			<path class="st0 fillable" d="M157.2,112.2c0,0,0.5-0.1,0-0.7c-0.4,0-0.5,0.1-0.6,0.5C156.9,112.2,156.8,112.2,157.2,112.2z"/>
			<path class="st0 fillable" d="M152.6,110l0.1-0.7C151.8,109.3,151.6,110,152.6,110z"/>
		</g>
		<g>
			<path class="st0 fillable" d="M150.4,112.4c0.8,0.1,0.5,0.2,0.9-0.3l-0.3-0.5C150.5,111.9,150.6,111.8,150.4,112.4z"/>
			<path class="st0 fillable" d="M162.3,115.2c0,0.3,0,0.1,0,0.4v0.1c0,0,0.4,0.6,0.7-0.2L162.3,115.2z"/>
		</g>
		<g>
			<path class="st0 fillable" d="M181.4,77.8c1.2,0.1,1.9-0.3,2.4-0.9c-0.8,0.1-1.4,0.1-2.1,0.6L181.4,77.8z"/>
			<path class="st0 fillable" d="M179.3,71.9c0.7,0.1,1.7-0.2,1.8-0.7c-0.3-0.1-0.7-0.1-1.1,0C179.6,71.4,179.4,71.5,179.3,71.9z"/>
			<path class="st0 fillable" d="M152.9,114.4c0,0.4,0,0.3,0.1,0.7l0.6-0.2c-0.2-0.5,0.2-0.1-0.3-0.5C152.9,114.2,153.2,114.4,152.9,114.4z"
				/>
		</g>
		<g>
			<path class="st0 fillable" d="M137.9,113.4c0.2,0.8,0.5,0.7,1,0.4c0.3-0.2,0.3-0.5,0.3-0.8l-0.9-0.1L137.9,113.4z"/>
			<path class="st0 fillable" d="M149.1,121.5c-0.7-1.5-1.6,1.1-0.2,0.2C149.1,121.5,149,121.6,149.1,121.5z"/>
			<path class="st0 fillable" d="M158.6,118l0.9-0.3l-0.2-0.5C158.6,117,158.4,117.3,158.6,118z"/>
		</g>
		<g>
			<path class="st0 fillable" d="M173.5,74.6c1,1.8,2.2,3.6,3.3,5.4c0.3,0.5,2.9,5,3.5,5.2c0.3-0.4,0.4-0.2,0.1-0.7L173.5,74.6z"/>
			<path class="st0 fillable" d="M136.3,112.6c0.6,0.7,0.7,1.9,0.8,3.1l0.6-0.3C137.6,114.3,137.1,113,136.3,112.6z"/>
			<path class="st0 fillable" d="M158.1,97.8c0,0-0.1-0.1-0.1-0.2c-0.1-0.1,0.2,0-0.2-0.1c-0.2,0.3-0.2,0.4-0.1,0.9h0.8l0.1-0.7L158.1,97.8z"
				/>
		</g>
		<g>
			<path class="st0 fillable" d="M99.9,95.2l-0.1,0.4c-0.3,0.5-2.8,1-3.6,0.1l-0.1,2.1c1-0.1,3.9-1.1,4.5-2.2L99.9,95.2z"/>
			<path class="st0 fillable" d="M138.3,112.9l0.9,0.1c0,0.3,0,0.6-0.3,0.8c-0.5,0.4-0.9,0.5-1-0.4L138.3,112.9z M138.6,112.5L138.6,112.5
				c-1.3,0.8-1,1.7,0.3,1.9c2.2,0.4,0.5-2.2,0.4-2.3c-0.3-0.6-0.7-1.4-1-1.8l-1.1,0.7C137.8,111.5,137.9,111.3,138.6,112.5z"/>
			<path class="st0 fillable" d="M152.8,96.9c-0.5,0.5-1,0.3-1.3,0C151.6,96.7,152.4,96.4,152.8,96.9z M150.8,97.7c0.8,0.8,1.9,0.7,2.7,0
				C153.7,95.7,150.7,95.7,150.8,97.7z"/>
			<path class="st0 fillable" d="M104.9,105.6c-0.1-0.3-0.2-0.3-0.7-0.4c-0.3-0.1-0.5-0.2-0.8-0.3c1.5,0,1.7,0.9,1.8-1l-2.2-0.2l-0.2,1.4
				c0.4,0.1,0.7,0.3,1.1,0.4C105,106,104.7,105.7,104.9,105.6z"/>
			<path class="st0 fillable" d="M102.9,102.8c0.5,0.2,1.6-0.2,2.1-0.3c-0.2-0.9-0.3-0.8-1-0.5C102.7,102.6,102.9,102.3,102.9,102.8z"/>
			<path class="st0 fillable" d="M112.6,120.2c0.3,0.2,0.6,0,1-0.1l0.8-0.2c0.3-0.1,0.1-0.1,0.3-0.1l-0.3-0.6l-1.6,0.6
				C112.4,120,112.7,119.7,112.6,120.2z"/>
			<polygon class="st0 fillable" points="167.9,70.5 168.8,69.9 168.3,69.1 167.5,69.7 			"/>
			<path class="st0 fillable" d="M136.8,95c0.4,0,0.5,0,0.9-0.3l-0.2-0.6l-0.7,0.3L136.8,95z"/>
		</g>
		<g>
			<path class="st0 fillable" d="M155.9,107.4c1.3,0.3-1.1-0.4,0.6,0.1c0.1-0.9,0.7-0.9,0.9-1.8c0.1,0,0.1,0.1,0.1,0.1s0.2,0.8,0.6,0.8
				c1.1,0.1-0.1,0.1,0.4-0.2h0.1l0.5-0.4l0.1-0.1c-0.4-0.1-0.7,0.1-0.2-0.3c0,0,0,0,0.1-0.1l0.4-0.3c-0.3-0.1-0.5-0.1-0.8-0.5
				c0.6,0.3,0.4,0.3,0.9,0.4v-0.2c0.1-0.3-0.1-0.1,0.2-0.3c0,0,0.1,0,0.1-0.1l0.2-0.2c0.1,0,0.1-0.1,0.1-0.1c-0.4-0.1-0.8-0.2-1-0.5
				c-0.6,0.2-0.3-0.1-0.5,0.5c0,0-0.5-0.1-0.6-0.1c-0.5-0.5,0.1,0.2-0.1-0.2c-0.1-0.3,0.3,0.1-0.2-0.3c-0.3,0.1-0.3-0.1-0.5,0.4
				l-0.5,1.1c-0.2,0.4-0.6,1.4-0.9,1.6L155.9,107.4L155.9,107.4z"/>
			<path class="st0 fillable" d="M147.5,119.8c-0.3,0.4-0.3,0.5-1,0.5c-1.1,0.1-0.9,0-1,0.4c0.3,0.3-0.3,0.1,0.5,0.2l1.6-0.1L147.5,119.8z"/>
		</g>
		<g>
			<path class="st0 fillable" d="M178.8,86.3c0.5-0.5,0.4-0.4-0.4-1.6c-1.1-1.7-6.9-10.9-7.3-11l-0.4,0.2c0.1,0.5,3.3,5.4,3.9,6.3l3,4.6
				C177.9,85.2,178.3,86,178.8,86.3z"/>
			<path class="st0 fillable" d="M128.7,113.2c-0.5,0.3-1.1,0.5-1.6,1l0.1,0.8c0.6,0,0.6-0.3,1.1-0.4L128.7,113.2z"/>
			<path class="st0 fillable" d="M95.1,113.8l0.2,0.7c0.5-0.1,0.9-0.5,0.8-0.9l-0.2-0.1C95.5,113.5,95.5,113.6,95.1,113.8z"/>
		</g>
		<g>
			<path class="st0 fillable" d="M209,114.7c-0.2-0.4-0.2-2-0.1-2.3c-0.4,4.1-1.2,5.8-3.2,8.4c-1.2,1.6-4.4,4-7.5,4.3
				c0.6,0.2,0.5-0.1,0.6,0.5c-0.8,0.8-4.1,0.3-5.2,0.3c2,0.5,6.4,0.5,7.9-0.7c-0.6,0.1-0.7,0.2-1.3,0.1c0.1-0.7,0.6-0.6,1.8-1.2
				c0.7-0.3,1.4-0.7,1.9-1.2c0.6-0.5,1.1-0.9,1.6-1.4c1-1,1-1.4,1.7-1.4l-0.1,1c0.2-0.1,0.1,0,0.2-0.2c0.9-0.9,0.9-1.4,0.2-2
				c0.6-1.4,0.7-2.1,1.4-2.1c0.3,0.7-0.2,1.5-0.4,2c0.1-0.4,1.6-2.7,1.4-6.2l-0.3-2.7c-0.1,0.3,0,1.2,0,1.4
				c-0.1,0.5-0.3,0.3-0.4,1.2C209.2,113.4,210.2,114.8,209,114.7z"/>
			<path class="st0 fillable" d="M151.7,116.3l1.2-0.1c-1.6,0.3-3-0.5-3.4-1.8c-0.2-0.6-0.1-0.9-0.3-1.3l-0.1,0.9c-0.3-0.5-0.1-0.4-0.9-0.4v1
				c0.2,0.1,0.4,0,0.6,0.2c-1,0.1-0.4,0.7-0.4,1.3c0,0.4-0.2,0.3-0.2,1.2c1.1,0.2,1.9,0.4,2.9,0c-0.1-1.1-1.8-1-2.1-3.3
				C149.6,115,150.2,116.3,151.7,116.3z"/>
			<polygon class="st0 fillable" points="133.4,110.6 134.2,111 134.1,110.3 			"/>
		</g>
		<g>
			<path class="st0 fillable" d="M132.1,113.7c1.4-0.5,1.8,1.6,0.6,2C131.4,116.1,130.6,114.2,132.1,113.7z M130.5,117
				c1.2,0.9,3.2,0.8,4.1-0.3c0.8-1,1-3.1,0.2-3.5c-0.5-0.2,0.5,0.2-0.2,0s0.6,0.3-0.1-0.1c-0.5-0.3-0.6-0.9-1.8-1
				c-1.6-0.1-2.9,1.1-2.8,2.6c0,0.9,0.6,1.3,0.9,1.8c-0.1,0.6,0,0.1-0.2,0.5H130.5z"/>
			<path class="st0 fillable" d="M146.5,97.7c-0.2-0.1-0.5-0.2-0.7,0s-0.1,0.5-0.1,0.7C146.6,98.7,146.9,98.1,146.5,97.7z"/>
		</g>
		<g>
			<path class="st0 fillable" d="M105.9,105.8c3.3-0.1,7.5,0,11,0c0.7,0,3.1,0.3,3.4-0.3l-9.9-0.2l10.1-0.2l0.2-1h-14.5L105.9,105.8z"/>
			<path class="st0 fillable" d="M116.7,119.7h13.1c0.3-0.1,0.2-0.1,0.3-0.1c-0.3-0.4-0.2-0.3-1.1-0.3h-13.4
				C115.9,119.8,115.7,119.7,116.7,119.7z"/>
			<path class="st0 fillable" d="M177.5,75.3c-0.1-1.6,3.7-3.3,6.5-2.7c-0.5-1.9-2.4-0.8-3.8-0.2C178.9,72.9,177.3,73.7,177.5,75.3z"/>
			<path class="st0 fillable" d="M114.6,123.1c-0.1-0.7-0.1-0.1-1.2-0.8l1.4,0.1l0.1-1l-0.1-0.1h-0.1l-1.9-0.3l-0.2,1.4
				C113.1,122.7,114.1,123.3,114.6,123.1z"/>
			<path class="st0 fillable" d="M131.4,121.5v0.6l1.5-0.1c-1,0.1-1.6,0.3-1.6,0.8c2.2-0.8,1.9-0.3,2.2-1.5L131.4,121.5z"/>
			<path class="st0 fillable" d="M136.2,109.2c1.1,0.6,1,0.6,1.5,0.3C137.5,108.4,136.5,108.8,136.2,109.2z"/>
		</g>
		<g>
			<path class="st0 fillable" d="M169.1,112.8c0-0.4,0.4-0.1-0.2-0.7c0.5,0.2,0.7,0.3,0.9,0.9c0.2,0.8,0.1,1-0.6,1.2
				C169.2,113.6,169.4,113.2,169.1,112.8z M180,93.1c1.3,0,2.5-0.8,3.3-1.3c2.3-1.6,1.4-2.2,2.5-1.9c-0.1,1-1.6,2-2.4,2.6
				c-0.7,0.5-2.5,1.5-3.5,1.2L180,93.1z M178.8,92.3c0.3-1,0.6-0.5,1.6-0.9c3.6-1.5,3.1-3,4.3-3c0,1.3-3.3,3.5-5,3.8l0.4-0.4
				l-0.9,0.2c0.2,0.1,0.1,0,0.3,0.1c0.1,0,0.2,0.1,0.2,0.1s0.1,0,0.1,0.1C179.8,92.3,178.8,92.3,178.8,92.3z M177.9,90.9
				c0.3-1,0.5-0.4,1.5-0.9c1.5-0.6,3-1.6,3.8-3h0.6C183.7,88.4,180,91.2,177.9,90.9z M177,89.5c0.4-1.2,0.5-0.1,3.1-1.7
				c1.6-1,1.5-1.2,2.3-2.2h0.6c-0.1,1.4-3.4,3.6-5.1,3.8l0.4-0.4l-0.9,0.2c0.1,0.2,0.3,0.3,0.3,0.3s0.1,0,0.1,0.1H177V89.5z
				 M184.4,77.2c0.1,1-0.6,2.5-1,3.3c-0.3,0.6-0.5,0.8-0.9,1.2c-0.7,0.6-0.7,0.5-1.6,0.3c0.9-0.1,1.2,0.1,1.6-0.7
				c-0.9-0.3-3.4-1-3.8-2c0.7,0.3,1.2,0.7,2.1,1l1.9,0.5c0.6,0,0.3,0.1,0.5-0.3c-0.4-0.3-1-0.3-1.6-0.4c-0.1,0-0.2-0.1-0.3-0.1
				l2.1,0.1l0.9-2.7C184.4,77.1,184.4,77.2,184.4,77.2z M165.9,77.2c0.4-0.2,1-0.7,1.5-0.9c0.8-0.3,1,0.3,1.3,0.9
				c0.7,1,1.3,2,1.9,2.9c-0.3-0.4-0.6-0.7-0.9-1C168.5,77.7,168,76.8,165.9,77.2z M168.7,75.1c0.3-0.4,1.8-1.2,2.3-1.6
				c0.5-0.3,1.8-1.3,2.3-1.4c0.2,0.1,2.6,3.7,2.7,4.1l-2.1-3.1c-0.3-0.6-0.3-0.8-1-0.7c0.1,0.7,6,9.5,6.8,10.8
				c0.5,0.8,0.6,1.2,1,1.3c0.3-0.5,0.1-0.6-0.3-1.1L179,81c0.1,0.1,0.2,0.3,0.3,0.5c0.4,0.5,1.7,2.5,1.7,2.8
				c-0.5,0.9-3.1,3.1-4.7,2.9l0.1-0.1c0.7-0.1,1.3-0.3,1.8-0.7c-0.2-0.6-1.5-2.5-2-3.2l-5.8-8.9c-0.3-0.2,0.2,0-0.2-0.1l-0.1,0.1
				c-0.1,0.2,3.3,5.3,3.7,6.1c-0.4-0.5-3.7-5.5-3.9-6C169.3,74.5,169.1,74.7,168.7,75.1l0.6,1C169.1,76,168.8,75.7,168.7,75.1z
				 M164.9,74c0.3-0.4,3.1-2.2,3.7-2.4c-0.1,0.4-0.4,0.4-0.6,0.6c0.3,0.6,1,1.4,1.2,2c-0.9,0.5-0.9,0.7-1.2,0.9
				c-0.2-0.4-0.4-0.6-0.7-1.1c-0.8-1.1-0.4-0.9-0.9-0.8c0,0.4-0.1,0.2,0.2,0.6c0.3,0.5,0.9,1.1,1,1.6c-0.4-0.2-1.2-1.6-1.4-2
				c-0.5,0.1-0.7,0.4-1.2,0.7l1.3,2.2c-0.5-0.2-0.4-0.3-0.9-1.1C165.3,74.7,165,74.4,164.9,74z M155.1,71.7c-0.3-0.2-0.2,0-0.3-0.3
				c0.5-0.4,0.8,0.1,0.8,0.6C155.4,71.9,155.3,71.9,155.1,71.7z M171.1,72.8c-0.3-0.3-1.6-2.1-1.6-2.5l0.5-0.2l1.6,2.5L171.1,72.8z
				 M185.7,74.5c0-3-1-3.9-1.3-4.6c2.2,0.6,3.1,5.9,1.6,9.3c-0.5,0.2,0.1-0.4-0.3,0.1c0,0,0,0,0,0.1c-0.1,0.3,0.1,0.1,0.1,0.3
				c-0.7,1.3-1.4,2.8-3.1,2.9c0.1-0.1,0.2-0.2,0.4-0.4C185.1,80.2,185.6,77.2,185.7,74.5z M184.4,77.2l-0.1-0.6
				c-0.7,2.2-3.8,1.8-5.7,0.9c2,0.4,1.8,0.2,3.4-0.7c1.1-0.6,2.7,0.3,2.4-2c-0.3,0.3-0.4,0.7-0.8,0.9c-0.4,0.2-0.9,0-1.4,0.1
				c-0.9,0.2-0.7,1-2.2,1c-2.3,0-3.7-0.4-2.9-2.8c0.5-1.5,1.7-2.6,3.2-3c2.3-0.7,3.1-0.1,3.9,1.7c0-1-0.6-2.3-1.2-2.6
				c-0.9-0.4-6.1,0.5-7.1,5.4c-0.6-1.5,2-4.8,5.6-5.5c1.7-0.3,2.4,0.1,2.8,2.4c0.3,1.2,0.3,2.5,0.1,3.8V77.2z M167.2,69.6
				c0.3-0.3,2.2-1.6,2.7-1.8c0.3,0.2,0.3,0.2,0.5,0.5c0.2,0.3,0.2,0.3,0.3,0.6c-0.3,0.3-2.2,1.5-2.7,1.7l-0.4-0.5
				C167.4,70,167.3,69.8,167.2,69.6z M168.9,63.1c2.6,1,3.1,5.7,3.3,8.2l-0.4-0.5c-1.6-2.3-0.2-1.2-0.9-2.5
				c-1.3-2.4-1.2,0.4-1.7-2.7C169.2,64.9,169,64,168.9,63.1z M161.8,63.8c0.4-0.5,2.4-1.6,3.2-1.1l-2.9,1.9
				C162,64.1,161.9,64.3,161.8,63.8z M157.9,63c0.2-0.3,1.7-1.4,2-1.4c0.8-0.1,1.6,0.9,1.5,1.8c-0.1,1-0.2,0.4,0.3,1.3
				c0.2,0.4,0.3,0.8,0.2,1.3c-0.3,1-1,1.1-1.6,1.6c-1.6-1.6,1.2-2.2,1.1-2.9c-0.2-0.1-0.4,0.1-0.4,0.1c-0.2,0.1-0.3,0.3-0.5,0.4
				c-0.3,0.3-0.4,0.4-0.8,0.5c0.2-0.4,1-1,1.4-1.4c-0.6-1.4,0.3-0.3-0.1-1.6c-0.5,0.2-1.5,1-2,1.3l-0.6-0.7c0.5-0.6,1.3-1,1.9-1.5
				C159.4,61.5,158.9,62.9,157.9,63z M161.4,61.7c1.1-0.9,4.4-2.2,6,0.1c0.6,0.9,0.7,2.2,0.9,3.3c0.4,3.1,0.9,2.7,0,3.1l-0.5-1.4
				c-0.4-2.3,0.1-6-3.4-5.7c-1.1,0.1-1.8,0.6-2.7,0.9L161.4,61.7z M157.4,74.5c-0.1,0.1-0.2,0.1-0.2,0.5c0.5-0.1,4.7-0.3,5,0.1
				c0.2,0.3,0.2,1.2,0,1.6c-0.4-0.1-0.2-0.3-0.2-0.9c0-0.7,0.1-0.6-0.3-0.8c-0.4,0.2-0.3,0-0.3,1.6c-0.2-0.1-0.3,0.1-0.3-0.8
				c0-0.4,0.1-0.4-0.1-0.7c-0.2,0.3-0.1,1-0.1,1.5c-0.3,0.5-1.1,0-1.4,0.2c-0.5,0.2,0-0.2-0.2,0.3c2.9-0.1,5.5,0.1,7.3,1.7
				c0.8,0.7,1.4,1.5,1.7,2.8c0.5,1.6,0.1,3,0.3,4.2c0,0.5,0,0.3-0.2,0.9h0.2c0,0,0.1,0,0.1,0.1l0.1,0.2c0.2-0.8-0.1-0.1,0.4-0.5
				l2.5-1.6c1.6-1.1,1.1-0.3,1.2-0.1c-0.1,0.1-0.3,0.1-0.4,0.2l-0.1,0.1l-0.1,0.1l-0.1,0.1c-0.2,0.1,0,0-0.3,0.2
				c0.2-0.1,0.1,0,0.4,0l0.5-0.2c0.2,1-0.1,2.8-0.4,3.7c-0.4,1.1-1,1.7-2.2,2.2c-0.9-0.5-0.2-0.1-0.5,0.1l-0.7,10
				c-0.3,2.6-0.4,6.1-0.7,8.7c0,0.3-0.2,1.1-0.2,1.5l-0.1,2.2c-0.1,1-0.1,0.8-0.4,0.9c-0.2,0.1-0.4-0.1-0.1-0.2
				c0,0.5-0.1,0.5-0.7,0.4c-0.1,0-0.4,0.1-0.4,0.1c-0.4,0-0.1,0.1-0.4-0.1c0-0.6,0.2,0.4,0-0.2h-0.1c0-0.1-0.1,0-0.1,0
				c-0.2,0.3-0.1,0.5-0.3,0.8c-0.4-0.3-0.4,0.4-0.4-0.9c-0.8,0.1-0.2,0-0.9-0.1c0.2,0.8,0,0.1-0.1,0.9v0.1l0.1,0.3
				c0.3,0.4-0.4-0.1,0.2,0.3h0.3h0.1c-0.2,0-0.5,0-0.6,0.5v0.1l0.1,0.1c-0.6-0.1,0.2-0.5-1.2-0.3c-0.1,0.2-0.6,1-0.7,1.2
				c-0.2,0.3-0.7,0.5-1.1,0.7c0,0.2-0.2,0.6,0.6,0.1c1.5-0.9,1.5-1.4,2.1-1.2c0.5,0.1,0.1,0.4,0.5,0.2c0.2-0.1,0,0,0.2-0.1
				c0.2-0.2,0.1-0.1,0.3-0.3c0.3-0.2,0.3-0.2,0.8-0.2c-0.8,1-3.6,2.8-5,3.7c-1,0.6-4.6,3.1-5.3,3.4c0,0.2,0.2,0.5,0.5,0.5
				c0.4,0,0,0.1,0.7-0.3l8.1-5.2c2.1-1.9,1.2-2.2,2.4-2.3c-0.5,1.8-2.2,3-3.7,4c-0.1,0.1-0.4,0.2-0.5,0.3c-0.5,0.3-1,0.8-1.8,1
				c0.5,0.6-0.3,0.2,0.4,0.2c0.5-0.1,2.7-1.6,3.3-2c0.4-0.3,0.7-0.6,1-0.8c0.6-0.4,1.7-0.7,2.5-1c1.2-0.5,1-0.9,1.4-2.2
				c0.7-0.1,1.4-0.2,1.6-0.7c0.2-0.9-0.6-0.9-1.3-0.8c0.2-1.7-0.5-1.9-1.5-2.6c-0.1-1,0.3-3.8,0.3-4.9c0.3-4.1,0.7-11.1,1.2-14.5
				c4-0.9,3.3-5.8,3.5-7.4c0.5,0.1,0.1-0.2,0.5,0.3c0.1,0.1,0.2,0.3,0.3,0.5c0.2,0.3,0.4,0.6,0.6,0.9c1.2,1.8,0.3,0.6,0.4,2.2
				l1.1,0.4c-0.1,0.4-0.2,0.5-0.2,1l1.1,0.3c-0.1,0.6-0.2,0.4-0.2,1c0.3,0.2,0.6,0.3,1.1,0.4c-0.1,0.5-0.3,0.3-0.2,1
				c0.3,0.3,0.6,0.3,1.1,0.4l-0.2,1c0.3,0.2,0.6,0.3,1.1,0.4c-0.1,0.7-0.5,0.7,0.1,1.2c0.2-0.1,0.2-0.3,0.3-0.5
				c0.4-1.1,0.3-0.3,1.9-1c0.5-0.3,1-0.5,1.4-0.9c0.5-0.4,0.9-0.7,1.2-1c0.1-0.1,0.2-0.3,0.3-0.3c0.4-0.5,0.1-0.6,1-0.6
				c-0.1,0.5-0.3,0.7-0.5,1l0.3,0.1c0,0,0.4-0.2-0.1,0s-0.9,1.3-3.1,2.2c0.2,0.2-0.4,0.6,0.8,0.2c0.5-0.1,1.5-0.9,1.8-1.2h0.3
				l0.1,0.1l0.7-1c0.7,0.2,0.8,0,1.1-0.4l-0.9-0.1c0-1.9,0.4-1-0.9-1.5V90l-0.9-0.1c0-0.3,0.1-0.9,0-1.1c-0.3-0.5-0.5-0.1-0.9-0.3
				v-1.2c-0.3-0.2,0-0.1-0.4-0.2c-0.2,0-0.3,0-0.5,0l-0.1-1.4h-1c0-0.6,0.2-0.8,0-1.3c-0.6-0.3-1.1,0.3-1.7-1.4
				c1.4,0.5,2.4,0.8,3.6-0.1c4.1-3,3.5-12.2,0.1-13c-2.3-0.6-5.4,0.6-7.1,2.3c-1.4,1.4-1.1,1.7-1.7,2.9c-0.1-0.1,0.1,0.1-0.2-0.2
				l-0.4-0.6c-1.5-2.3-0.9-1.5-2-2.1c-0.1-2.7-0.6-6.9-2.8-8.7c-1.2-1-1.3-0.2-1.8-1.1c-1.1-2.2-3.4-2.7-5.9-1.7
				c-2,0.8-0.9,0.7-2.7,1c-0.6,0.1-1.9,1.1-2.4,1.5c-2.3-0.4-2.6,0.2-2.6,2.4c-0.5,0.2-1.2,0.9-1.6,1.2c-0.6,0.4-1,0.7-1.5,1.1
				c-0.5,0.4-1.2,0.7-1.3,1.4c0,0.7,0.5,1.5,0.8,1.8c1.3,1.2,2.2,0.1,3.4-0.8c0.5-0.4,1-0.7,1.5-1.2c0.6-0.4,0.9-0.7,1.3-0.5
				c0.5,0.2,0.3,0.1,0.4,0.3c-1.4,0.9-2,2.5-2.7,2.8c-0.6,0.3-0.7,0.3-0.5,1.2c0.5,0.2,0.5,0.2,1.1,0c0.2-0.6-0.3-1.2,1.8-2.7
				c0.5-0.4,1-0.6,1.6-0.8c0.9-0.4,2.1-0.6,2.9-1.9c0.5-0.8,0-1,0.8-1.6c0.7-0.5,1.8-1.5,2.8-1.8c0.5,1.1,0.5,3.1,0.8,4.5
				c0.1,0.2,0.3,0.9,0.3,1c0,0.4-0.8,1,1,2.4c-1,0.8-2.6,1.5-3.3,2.3c-0.3,1.2,1,2.1,1.4,3.1c-0.5,0.3-0.8,0.7-1.4,0.5
				c-3.1-0.6-1.2-0.8-2-2.6C161.8,74.4,158.2,74.3,157.4,74.5z"/>
			<path class="st0 fillable" d="M137.9,121.9c0.7-0.2,4.5-0.2,5.7-0.2c0.7,0,1.1,0.2,1-0.5h-10.2l-0.1,1h5.7c0.7,0,4.3,0.2,4.5-0.2
				L137.9,121.9z"/>
			<path class="st0 fillable" d="M152.3,116.7c-0.4,0-0.2-0.1-0.3,0.2l1.2,0.2c0,1.5-2.3,1.7-3.4,1.5c-0.7-0.1-0.8-0.3-1.2-0.5l-0.5,0.3
				c0.7,1,3.2,1.2,4.2,1c0.3-0.5-0.3-0.9,0.8-0.8l-0.3,0.1c-0.3,0.3-0.2,0.3-0.3,0.6c-0.1,0.7-2.2,0.2-2.7,0.1
				c0.5,0.3,1.2,0.5,1.9,0.4c1.2-0.1,1-0.5,1.6-0.7c0-0.2-0.4,0,0.2-0.7c0.5-0.5,0.3-0.4,0.4-1c0.1-0.6,0.4-0.5,0.8-0.7l0.3-0.3
				c0.1-0.1,0.2-0.4,0.3-0.5c-0.2-0.2,0-0.1-0.4-0.1c-0.4-0.1-0.1,0.2-0.4-0.3c-0.5,0.5-0.3,0.5-0.9,0.8
				C153.4,116.5,152.7,116.7,152.3,116.7z"/>
		</g>
		<g>
			<path class="st0 fillable" d="M184.2,116.7c0.1,0.1,0.1,0.1,0.3,0.3c0.3,0.5,1,1.9,0.8,2.2c-0.6-0.2-1.2-1.8-1.1-2.3
				C184,116.8,184.1,116.8,184.2,116.7z M177.5,104.7c-0.1-0.1-0.3,0.2,0-0.6c0.1-0.4,0.4-1,0.8-1.2
				C178.5,103.4,177.7,104.5,177.5,104.7z M178.7,102.3c-0.1-0.1-0.2-0.1,0.1-0.6c0.6-1,0.6-1,1.1-0.9
				C179.7,101.2,179.2,102.2,178.7,102.3z M200,100.9c-0.3-0.3-0.2-0.2-0.7-0.3c-0.9-0.2-0.6-0.2-0.7-0.3c0.4-0.2,0.7-0.1,1.1,0
				c1.1,0.3,0.7,0.2,0.8,0.5L200,100.9z M194.2,106.1c-0.4-0.1-0.7-0.6-1.2-1.4l-1.8-2.7c-1.3-1.9-1.1-1.5-0.9-1.9
				c0,0,0.1,0,0.1-0.1s0.1-0.1,0.1-0.1c0.2,0.4,0.6,0.8,0.6,1.2h0.1c0.5-0.1,0.3-0.2,0.9-0.5c0.3-0.1,0.5-0.2,0.8-0.2
				c1.2-0.1,0.3-0.1,0.7,0.3c-0.1,0.1-0.2,0.1-0.3,0.2l-0.7,0.2c-1.1,0.4-0.9,0.3-0.5,0.3c1.1-0.4,2.5-0.7,3.7-0.8
				c1.6-0.1,2.9,0.5,4.1,0.4l0.6,0.3c1.9,0.7,1.8,0.7,3.6,1.9c-0.4-0.2-1-0.8-1.6-1.1c-1.1-0.7-1.4-0.5-1.6-1.1c0.4-0.2,0.7,0,1,0.2
				c0.3,0.1,0.5,0.3,0.9,0.4c0.6,0.3,1,0.6,1.5,1c1,0.8,1.9,1.6,2.6,2.6c-1-1.9-3.8-4-6.4-4.9c-2.4-0.9-5-1-7.5-0.4
				c-1.4,0.3-1.5,0.7-2,0.3c0.6-0.8,3.9-1.2,5.2-1.2c5.1,0,9.5,2.7,12,6.8c3.6,6,2.1,13.5-3.3,17.9c-2.3,1.8-5.9,3.3-9.7,3
				c-9.8-0.7-15.9-11.4-11.2-20.3c0.2-0.4,0.3-0.6,0.6-1c0.2-0.4,0.4-0.7,0.7-0.9c0.3,0.5-0.1,0.7-0.4,1.1c-0.7,1-1.3,2.4-1.6,3.7
				c-0.5,2-0.6,4.2-0.1,6.2c0.9,3.8,3.3,6.8,5.8,8.2c-1.3-1-2-1.6-2.9-2.8c-0.1-0.2-0.3-0.4-0.3-0.6c0-0.3,0.1-0.4,0.2-0.5v-0.1
				c-2.7-3.3-2.7-10.3-0.2-13.4l0.1,0.3c0.2,0.2,0.1,0.1,0.4,0.1c0.5,0.1,0.7,0.3,1.2,0.3l-0.5-0.5c1.4,0.1,0.5,0.4,1,0.1
				c-0.4-0.1-0.9-0.3-1.2-0.6c0.2-0.3,0.4-0.5,0.5-0.7l0.6,0.2c0,0,0,0,0-0.1l-0.1-0.8l0.6-0.8c0-0.1,0.1-0.1,0.1-0.1
				c0.2,0.4,0.3,0.6,0.6,1c0.2,0.4,0.4,0.6,0.6,0.9c0.2,0.3,0.4,0.6,0.6,0.9c0.5,0.8,2.9,4.1,2.9,4.8l0.2,0.3l1-0.3l-2.4-3.8
				c-0.7-1.1-7-10.7-7-11.1c0.4,0.1,4.3,6.6,4.9,7.5l3.7,5.7c0.5,0.9,0.9,1.7,1.3,1.5c0.1-0.4-0.8-1.5-1.1-1.9
				c-0.4-0.7-0.8-1.2-1.2-1.8c-0.8-1.3-1.6-2.5-2.4-3.7l-4.8-7.4c0.5-0.3,0.8-0.6,1.2-0.8c0.3,0.5,0.8,1.4,1.2,1.9
				c1.5,2.2,7.7,12.3,8.4,12.8c0.5-0.8-0.4-1.6-0.8-2.2C195,107.3,194.7,106.8,194.2,106.1z M202.8,93.6c-0.7-0.2-0.7-0.1-0.8-0.5
				c0.1-0.1,0-0.2,0.5,0c1.4,0.4,1.2,0.4,1.2,0.7C203.5,93.9,203.3,93.7,202.8,93.6z M188.8,93.8c-0.1-0.4,0.3-0.4,0.8-0.5
				c0.4-0.1,0.7-0.3,1-0.1c-0.1,0.3,0.3,0.2-0.3,0.4l-1,0.3C188.5,94,189.1,93.9,188.8,93.8z M200.2,92.9c-0.6-0.1-0.7,0-0.8-0.4
				c0.3-0.1,0.6,0,1,0.1c0.9,0.2,0.7,0.1,0.8,0.5C200.9,93.2,200.7,93,200.2,92.9z M191.4,92.9c0.3-0.3,1.4-0.5,1.5-0.5
				c0.6,0,0.2-0.1,0.4,0.2c-0.2,0.3,0.2,0.1-0.4,0.3C191.1,93.3,191.5,93,191.4,92.9z M198.6,92.5c-0.2,0.1-0.1,0.1-0.4,0.2
				l-1.4-0.1v-0.3c0.4-0.1,0.6,0,1,0c0.1,0,0.5,0,0.6,0.1C198.7,92.3,198.5,92.2,198.6,92.5z M195.8,92.5c-0.3,0.1-0.6,0.1-1,0.1
				c-1.2,0.1-0.7,0-0.9-0.1c0.1-0.4-0.3-0.1,0.4-0.3l1.5-0.1V92.5z M188,92.3c-0.3,0.5-0.5,0.6-1.1,0.4h0.7c-0.4,1.6-3.7,3.9-6,4
				c0.3-1.6,0.8,0.4,4.6-3l-0.1-0.1h-0.3c-0.3,0.4-1.2,1.1-1.8,1.2c-1.2,0.4-0.6,0-0.8-0.2c2.2-0.9,2.6-2,3.1-2.2s0.1,0,0.1,0
				l-0.3-0.1c-0.8,0.7-1.3,1.3-2.4,1.9c-0.8,0.4-2.2,1.2-3.1,1c-0.1,0.2-0.1,0.4-0.3,0.5l0.9,0.3c-0.2,0.9-0.3,0.6,0.2,1.3
				c-1.4,1.1-3.3,3.7-4.4,5.8c-6.5,13.1,1,28.1,14.8,31c5.4,1.2,11.6,0.1,16.2-3c9.4-6.4,12.6-18,7.4-28.1
				c-2.2-4.3-5.8-7.7-10.5-9.8c-2.5-1.1-5.3-1.8-8.3-1.8c-4-0.1-5.3,0.6-8.6,1.6L188,92.3z"/>
			<path class="st0 fillable" d="M102.8,117.7c0.7,0.1,0.6,0.2,0.8,0.8C102.9,118.3,103.1,118.3,102.8,117.7z M85.8,116.7
				c0.3,0.2,1.2,2,1.2,2.6C86.1,119.1,85.6,117.1,85.8,116.7z M103.9,116.3c0.6,0.2,2.9,1.7,3.5,2.2c-0.7,0.1-3.3-1-3.7-1.3
				C103.6,116.5,103.7,116.9,103.9,116.3z M101,116.1l0.3-0.3l0.3,0.6c-0.1,0-0.3-0.1-0.3-0.1C100.9,116.1,101.1,116.3,101,116.1z
				 M98.5,112.4v0.8C97.4,113.9,97,112.1,98.5,112.4z M97.1,112.1c0.5-0.2,0.7-0.3,1.2,0c-1.4,0.1-1,1-0.9,1.3
				c0.4,0.5,1.3,0.3,1.4-0.4c0,0.8-0.5,1.1-1.3,1c0.4,0.1,0.5,0.3,1.1,0c0.7-0.3,0.3-0.5,0.8-0.7l-0.5,0.8c0.5-0.1,0.8-0.1,1.2-0.3
				c-0.6,0.5-2.6,0.7-3.3,0.1c-1-1-0.2-2.4,1.4-2.4C97.8,111.9,97.6,111.4,97.1,112.1z M99,114.6c-0.9,0.5-1,0.3-2,0.2l-0.5,0.9
				c0.7,0.3,1.4,0.4,2.2,0.2c1-0.3,1-0.7,1.7-1c-0.2-0.6-0.2-0.3-0.3-0.6l0.7,0.1c-0.7,0.9-1.2,1.6-2.6,1.8
				c-2.5,0.3-4.5-2.4-3.3-4.7c0.4-0.8,1.3-1.8,2.6-1.8l0.1,1.3c-2.5,1-1.6,3-0.5,3.6C98,115,98.3,114.6,99,114.6z M79.1,104.7
				c-0.1-0.4,0.3-1,0.5-1.4c0.3-0.5,0-0.3,0.4-0.3C80.2,103.2,79.7,104.7,79.1,104.7z M97,101.3l-0.1,0.8l-1-0.1v-0.6L97,101.3z
				 M80.4,102.2c0-0.3,0.7-1.4,0.8-1.4l0.3-0.1h0.1c0.1,0.3-0.7,1.4-0.7,1.4C80.6,102.3,80.7,102.3,80.4,102.2z M95.2,98.2
				c-0.2-0.1-0.1,0.1-0.3-0.2c-0.1-0.1-0.1,0-0.1-0.3c0-0.1-0.1-0.5-0.1-0.6c-0.1-0.7-0.1-2.1,0-2.8c0.2-1.2,0.3-0.9,0.6-1.1
				C95.5,94.4,95.8,97.2,95.2,98.2z M94.7,92.5c0.5,0.3,0.1,0,0.2,0.3c-0.4,0.2-1.3,0.4-1.8,0.4c0.1,0.6,0.5,0.4,0.8,0.7
				c-0.7,0.7-0.9,0.3-1.6,0.8l-0.1,0.1c0,0-0.1,0-0.1,0.1c0.3,0.5-0.3,0.3,0.5,0.4c-0.1-0.2-0.4,0.1-0.5,0.3c0.6,0,0.4,0.1,0.5-0.1
				c-1.2,0-0.7-0.1-0.9,0.5c0.8,0.2,1.2-0.5,2.1-0.4l0.4,0.1c-0.2,0.5,0,0.2-0.4,0.4c-0.1,0-1.7,0.4-2.5,0.8l-2.7,1.4
				c-3,2.2-5,4.2-6.7,7.7v0.1l-0.3,0.6c-0.9,2.3-1.3,4.5-1.3,7.2l0.2,2.2c0,0.1,0.1,0.4,0.1,0.5l0.7,2.9c-0.1,0.6,0.2,0.1-0.3,0.5
				c-0.1-0.5-0.3-0.9-0.4-1.3s-0.3-0.9-0.4-1.3c-0.5-1.8-0.5-4.3-0.4-6.2c0-0.7,0.4-2,0.5-2.7c0.4-1.7,1.1-3.3,1.9-4.7
				c0.4-0.7,1.5-2.2,2.1-2.9c0.1-0.2,0.2-0.3,0.4-0.4l0.3-0.2c-0.1-0.3-0.4-0.5-0.7-0.7c-0.4-0.2-0.2,0.1-0.7,0.3v-0.8
				c-0.5,0.1-0.1,0.3-0.6-0.1c-0.2,0.3-0.4,0.4-0.6,0.7c-0.3,0.4-0.2,0.5-0.7,0.3l0.5-0.7c0-0.6,0.3-0.8,0.5-1.2L82.6,98h-0.4
				c-1.4,1.1-3.6,4.9-4.4,6.8c-1.2,2.9-1.7,6.2-1.5,9.6c1.4,19.2,25.7,27.3,38.4,12c0.3-0.3,0.5-0.5,0.5-0.9c0.1-0.2,0.1,0,0.1-0.3
				c0-0.1,0-0.2-0.1-0.3c-0.7-0.6,0.3,0.1-0.4,0l-0.4-0.1c0.2-0.5,0.2-0.8,0.6-0.6c-0.3-0.7-0.7-0.1-0.1-0.4c-0.2-0.3,0.1,0-0.4-0.4
				c-0.9,0-1.6-0.6-2.4-0.8c0.2-0.8,0.3-0.9,0.3-1.8l-0.5-0.1c0.1,0.4,0.1,1-0.1,1.4c-0.3,0.6,0,0.1-0.3,0.3h-7.2
				c0.7-0.7,0.9-1.8,0-2.3l-0.3,0.2c0.4,0.3,0.4,0.1,0.5,0.6c0.3,1.5-1.2,1.3-1.4,1.6c-0.2-0.1-0.6,0.3-0.7,0.5
				c0.2,0.4,0.2,0.1,0.2,0.6l-0.2,0.1c0.4,0.7-0.3,0.2,0.3,0.4c0.3-0.3,1.6-1,2-1.1c-0.2,0.3-0.7,0.5-1.1,0.8
				c-1,0.6-2.9,1.4-4.1,1.5c0.5,0.1,0.4-0.1,0.6,0.3c-0.3,0.6-1.2,0.5-2.4,0.5c-1,0-1.9-0.1-2.9-0.1c2.6,0.6,6.1,0.4,8.3-0.8
				c-0.7,0.1-0.9,0.4-1.6,0.2c0.1-0.6,1.7-1.1,2.4-1.4c1.9-1,0.5-1,3.2-1c-0.7,1.2-3.6,2.7-5.3,3.2c-2.4,0.7-5,0.9-7.5,0.2
				c-4.5-1.2-7.4-4-9.2-7.7c-2.1-4.5-1.5-9.6,1-13.4c1.1-1.6,2.6-3.1,4.3-4.2c1.2-0.8,4.4-2.1,5.8-2c0.7,0,0.2-0.1,0.5,0.1
				c-0.2,0.5-0.8,0.3-2,0.6c-0.7,0.2-1.3,0.4-1.9,0.6c-1.3,0.5-2.4,1.2-3.3,1.9c-1.7,1.3-3.5,3.5-4.3,6.1c-1,3.1-1,6,0.1,9
				c0.4,1.2,1.2,2.6,1.9,3.4c0.6,0.7,1.9,2.1,2.7,2.5l-1.6-1.6c-1.4-1.4-0.8-1.5-0.7-2c-0.8-0.6-1.6-2.9-1.8-4.1
				c-0.4-1.8-0.3-3.8,0.1-5.6c0.7-2.7,2.9-6.2,5-7.2c-0.4,0.6-0.6,0.5-0.9,1c0.1,0.2,0,0.2,0.1,0.4c0.3,0,0.3-0.3,0.7-0.1
				c0.2,0.1,0.3,0.5,0.3,0.8c0.1,0.1,0.2,0.2,0.4,0.3c0.1,0.1,0.3,0.1,0.5,0.2c0.4,0.3,0.3,0.5,0.5,0.8l0.1,0.4
				c0,0.1-0.1,0.1-0.1,0.1l0.5,0.4l-0.5,0.2c0.5,0.4,0.4,0.1,0.7,0.8c-0.6-0.1-0.5-0.1-0.8-0.6c0,0-0.3-0.1,0.1,0.5
				c0.3,0.5,0.3,0.3,0.3,0.9l-0.3-0.2c-0.2-0.1-0.1-0.3-0.1-0.1l0,0c0,0,0,0.1,0.1,0.1l0.3,0.7c0,0-0.6-0.2,0.5-0.5
				c-0.1,1-0.2,0.5-0.7,1.4c-0.1,0.3-0.4,1-0.5,1.3c-0.3,1.2-0.2,2.5,0.2,3.5c0,0,0,0.1,0.1,0.1v0.1l2,2.6c1.1,0.6,0.7,0.6,0.6,0.7
				c-0.2,0.4,0.3-0.1-0.4,0.3c0.7,0.1,0.5-0.2,0.5,0.3c0.3,0.7-0.3,1.1-0.7,1.6c0.3,0.3-0.1,0.4,0.6-0.6l0.2,0.3
				c0.2,0.7,0.3,0.1-0.2,0.5l0.3-0.1c0.2,1.2-0.1,1.1-0.4,1.9c0.5-0.5,0.6-0.9,1-1.5l1.1-1.6c0.3,0.3,0.2,0.1,0.2,0.5l0.2-0.3h1.4
				c0.7-0.5-0.4-0.7,2.5-0.6l6.5-0.5c0.1,0,0.4,0,0.5,0h0.2h0.2c-1.1,0-0.3,0-0.6-0.2c-0.3-0.3-2.2-1.5-2.6-1.8l-5.4-3.5
				c-0.4-0.3-1.1-0.5-1.2-1.1c-0.3-0.9,0.3-1.2,0.6-1.5c0.2-0.4,0.2-0.2,0-0.4l-0.5,0.1l-0.3-3.8c0,0-0.6,0-0.1-0.7l0.2-0.2
				c0.1,0,0.1-0.1,0.1-0.1c0.1,0,0.1-0.1,0.1-0.1c-0.4-0.1-0.3-0.3-0.4-0.1c0.3-0.2,0.1,0.1,0.3-0.4h-4.1c0.2-0.4,0.6-0.6,0.6-1.3
				c0-0.6-0.4-0.8-0.6-1.1h7.3c-0.1-0.4,0.1,0-0.2-0.6c0.4,0.4-0.1,0-0.2,0c-0.4-0.2-0.1-0.1-0.4-0.2c-0.2,0.5,0,0.3-0.4,0.3
				c-0.1-0.2-0.1,0-0.1-0.5c-0.3-0.2,0-0.1-0.7-0.1v0.6h-0.6c-0.5-0.2,0.1,0.4-0.4-0.1c-0.1-0.1-0.1,0.2-0.1-0.3
				c0,0.6,0.1,0.4-0.5,0.4c-0.2-0.5-0.3-2.7-0.3-3.4l-0.4-0.2c-0.3,0.2-0.1,0.1-0.7-0.3L97,98.1c0,0,0,0-0.1,0L96.4,98l-0.6,0.2
				c0.3-2,0.1-3.1,0-5l-0.1-0.5v-0.4H96c0.2-0.5,0.2-0.1,0-0.4c-0.6,0-1.1,0.1-1.1,0.9C94.6,92.5,95.1,92.7,94.7,92.5z"/>
			<path class="st0 fillable" d="M164.7,89.2c0.8-0.2,1,0.2,0.7,0.8l-0.7,0.1C164.5,89.6,164.5,89.7,164.7,89.2z M142,90.8
				c0.6-0.1,1.1,0.2,1.8,0.2h15.1c-0.2,0.3-0.8,0.3-0.9-0.7c0.5-0.4,3.8-0.5,4.4-0.5c1.5,0.1,1.7,0.9,0.7,1.2
				c-0.1,0-0.3,0.2-0.5-0.1c0.7,0,1.8-0.2,2.2-0.1c3-1.1,3.8-2.9,3.8-6.5c0-3.4-1.2-5.4-3.8-6.3c-5.2-2-12,1-15.5,3.4
				c1.4-0.4,4.5-2.4,9-2.9c1.6-0.2,4.1-0.1,4.5,1.2c0.6,1.7-1.8,2.2-3.2,2.5c-10.6,2.5-7.2,1.8-15.3,5.5c-0.3,0.1-0.7,0.3-1.1,0.4
				c-2.2,0.7-1.5-1.4-0.6-2.2C139.3,88.1,139.8,90.8,142,90.8z"/>
			<path class="st0 fillable" d="M121.6,122.7c1.7,0,3.3-0.1,5-0.1c3.9-0.1,3.7,0.3,3.8-1.2l-14.4,0.1l-0.4,1.8h13.8c0.7-0.1,0.4,0.1,0.6-0.3
				c-0.7-0.3-6-0.1-7.6-0.2l-0.7-0.1C121.7,122.6,121.6,122.7,121.6,122.7z"/>
			<path class="st0 fillable" d="M105.9,101.9c0.3,0.5,2.2,0.3,3.4,0.3c1.8,0,10.6,0.1,11.1-0.1c-0.2-0.7-0.6-0.5-1.4-0.4h-12.7
				C105.8,101.8,106.1,101.8,105.9,101.9z"/>
			<path class="st0 fillable" d="M95.4,104.7h6.5l-0.1-0.1h-0.1c-0.6-0.2-1.5-0.1-2.1-0.1c-0.8,0-1.7-0.1-2.4-0.1c0.7,0,4.5,0.1,4.8-0.3
				c-0.1-0.3,0.5-0.3-1.3-0.3c-1.4,0-3.9-0.1-5,0L95.4,104.7z"/>
		</g>
		<path class="st0 fillable" d="M96,124.4c-0.2-1.3-0.3-2.4,0.5-3.3l0.5,3.4L96,124.4z M100.7,123c0.1,0.1,0.1,0.1,0.2,0.3l0.4,0.7l-0.7,0.2
			L100.7,123z M156.6,121.2c0,0.7-0.7,0.8-0.8,0.6C155.5,121.2,156,120.8,156.6,121.2z M149.1,121.5c-0.1,0.1,0,0.1-0.2,0.2
			C147.5,122.6,148.5,120,149.1,121.5z M149.5,120.4c0.3,0.4,0.2,0.3,0.9,0.3c0.1,0,0.5,0,0.5,0c0.3,0.1,0.1-0.1,0.3,0.2
			c-0.2,0.1,0.1,0.1-0.8,0.1c-0.3,0-0.5,0-0.7,0c0.5,0.4,1-0.1,1.4,0.2c-0.3,0.1-0.4,0.1-0.8,0.1c-0.7,0-0.5-0.1-0.8,0.3
			L149.5,120.4z M99.4,119.7v2c0.1-0.4-0.1-0.2,0.2-0.6c0.6,1.1,0.7,1.3,0.4,3.3l-1,0.1l0.1-2c-0.3,0.4-0.3,0.6-0.3,1.1L99.4,119.7z
			 M134,122.4c0.2-0.9,0.3-1.4,0-2.3c0.8-0.3,3.5-0.1,4.5-0.1c0.9,0,5.6-0.2,6.2,0.1h-0.1h-0.1c-0.7,0.1-8.3-0.1-10.1,0.1
			c0.1,0.5,1.6,0.2,2.1,0.2h8.2c0.3,0.5,0.4,0.7,0.3,1.3c-0.1,0.7-0.3,0.6-1,0.6L134,122.4z M130.8,123.2c0.3-1.8,0.4-2.1,0-3.9
			l2.6,0.8c0.3,1.1,0.2,1.3,0,2.4L130.8,123.2z M115.3,123.4c0-0.6,0.4-1.3,0.4-2.2c0-1.1-0.3-1.5-0.5-2.4l14.9,0.1
			c0.5,0.9,1,3.1,0.2,4.2c-0.4,0.5-1.5,0.3-2.2,0.3C124,123.4,119.3,123.3,115.3,123.4z M142.8,117.9h1.7v0.7h-2.7v-0.7h0.6H142.8z
			 M115.5,118.2c-0.4-0.5-0.2-8.2-0.2-8.7l0.5,0.1c0.3,0.5,0.1,3.5,0.1,4.3v4.1v0.1L115.5,118.2z M137.1,119.2
			c0.3-0.4,0.1-2,0.2-2.7c0.2,0.4,0.1,2.6,0.1,3.1c-0.9,0-1.7,0-2.6,0c-2.2,0-1.4-0.1-2-0.3h2.3c-0.1-0.7-0.1-1.1,0.2-1.7l0.1,0.5
			c0,0.2,0,0.3,0,0.5c0.1,0.6,0.1,0.6,0.7,0.7c-0.3-1-0.4-0.8-0.3-2l0.9-0.4C136.8,117.5,136.8,118.6,137.1,119.2z M158.6,118
			c-0.3-0.7-0.1-0.9,0.7-0.8l0.2,0.5L158.6,118z M139.5,117L139.5,117c-1,0.6-1.1,0.4-1.4,0c0,0-0.1,0-0.1-0.1s-0.1-0.1-0.1-0.1
			c0.8,0,2.6-0.1,3.2,0.1l-0.1,2.5c-0.5,0.2-2.8,0.2-3.2,0c0.2-0.4,0.5-0.2,1-0.2C139.2,119.1,139.5,117.3,139.5,117z M154.2,120.4
			c1-0.1,1.1-0.6,2-2.2c0.2-0.4,1.3-2.3,1.7-2.4c-0.1,0.5-1.8,3-2.2,3.7c-0.5,0.8-0.5,1.2-1.7,1.3c-0.6,0-2.4,0.1-2.7-0.2
			c0.4-0.4,1.9-0.1,2.6-0.2c0.5-0.6,1-1.6,1.4-2.3c0.2-0.4,0.5-0.8,0.7-1.1c0.3-0.4,0.4-0.9,0.8-0.9
			C156.4,116.9,154.5,119.4,154.2,120.4z M157.8,115.4c0.1-0.3,0.2-0.5,0.4-0.8c0.3-0.5,0.2-0.5,0.8-0.3
			C157.8,115.4,158.5,115.5,157.8,115.4z M109.6,113.8l-0.1,1c-1.5,0.2-1.7,0.2-2.6-0.6L109.6,113.8z M108,112.3
			c0.2,0,1.4,0.2,1.4,0.2c0.5,0.3,0.4,0.6-0.3,0.7c-0.6,0.1-2.4,0.4-2.9,0.4c-1.1,0-1.8-1.4-1-1.7
			C105.5,111.8,107.4,112.2,108,112.3z M143.7,111.8c0.2-0.1,0.2-0.2,0.5-0.1c0.4,0.1,0.2,0.1,0.4,0.3l-0.2,0.3
			c-0.2,0.2-0.4,0.2-0.6,0.2C143.6,112.2,143.5,112.1,143.7,111.8z M110,114.5c0.4-3-0.7-3.9,1.2-4.6l0,1.9
			c-0.2,0.5-0.4,0.9-0.2,1.6c0.2,0.7,0.2-0.2,0.3,0.7c0,0.3-0.1,0.5-0.2,0.7c-0.7,0.5-0.5-0.9-0.5-1.2c-0.3,0.8-0.2,1.8-0.6,2.7
			C109.6,115.9,109.9,115.4,110,114.5z M106.2,111.3c0.5-0.2,0.8-0.5,1.4-0.5s1.2,0,1.8,0.1l0.2,1
			C108.8,111.8,106.7,111.6,106.2,111.3z M144.2,111.3c-0.6-1,0.4-0.9,1.2-1l-0.2,2.1c0.1-0.6,0.1-0.1-0.6-0.5
			c0.5-0.9,0.6,0.4,0.4-1.1c-0.2,0.7-0.1,0.3-0.2,0.5H144.2z M143.2,112.4c0.1,0.5,0.2,0.2,0.4,0.6c0.5,0.9-0.6,1.4,1.3,1.4
			l-1.2,0.2c-0.4-0.9-2-3.6-2.2-4.2c0.3,0.1,0.1-0.1,0.4,0.3l0.8,1.2l-0.7-2c0.5-0.2,1-0.7,1.6-0.6
			C144.2,111.5,142.9,111.5,143.2,112.4z M146,110.1c0.2-0.4,0.4-0.6,0.9-0.4c0.2,0.6-0.3,0.7-0.7,0.8L146,110.1z M145,110.1
			c-0.7,0-0.7-0.1-0.9-0.9h0.5L145,110.1z M123,109.8c-0.2-0.1-0.2-0.1-0.3-0.2c1.6-0.5,0-0.5,1.1-0.8l0.3,0.7
			C123.7,109.6,123.5,109.9,123,109.8z M115.4,107.7h0.6v0.9h-0.6V107.7z M127.1,107.4c0.2,0,0.2,0,0.4,0c0.6,0.2,0.7,1.3,0.1,1.5
			c-1.1,0.5-1.8-1-0.9-1.4C126.8,107.5,126.7,107.5,127.1,107.4z M124.8,107.8l0.7,1.4l-0.8,0.3c-0.3-0.6-0.5-0.7-0.6-1.4
			L124.8,107.8z M121.7,107.1c0.2,0.4,0.2,0.8,0.3,1.2c0.1,0.8,0.2,0.6-0.3,1c-0.3-0.4-0.4-1.5-0.5-2L121.7,107.1z M135.6,107.1
			l-0.4-0.8c0.7,0,3-0.2,3.4,0.2c-0.4,0.3-1.8,0.2-2.4,0.3l2.6,0.3H135.6z M132.2,107.3c-0.1,0.5,0.1,0.2-0.3,0.5
			c-0.2,0.1-0.2,0.1,0-0.1c0.1,0-0.2-0.1,0.3-0.1c0.3,0,0.3-0.3,0.3,0.2l1.4-0.7l0.9-0.4c0.3,0.4,0.9,1.4,0.9,2
			c-0.5,0.3-1.6,0.7-2,1.2c0.5,0,0.5-0.3,0.1,0.3c0.8-0.3,1.6-0.8,2.3-1.2c1.1-0.7,1.4-0.6,2,0.5c-0.7,0.8-2.5,1.2-3.1,1.9h0.1
			c0,0-0.1-0.1,0.1,0c0.3,0.2,0.1-0.6,0.2,0.2l3-1.5c0.4,0.4,0.9,1.6,1.2,2.2c1.3,2.3,0.9,1.9-2,3.5l-1.7,1
			c-0.8,0.3-0.3,0.2-0.5-0.1l-0.3,0.3c-0.3,0.2,0.1,0.1-0.5,0.3c0-0.1,0-0.1,0.1-0.2l0.2-0.5c-0.5,0.5-0.7,0.7-1.3,1
			c-1,0.4-2,0.3-2.8-0.1c-0.2-0.1-0.1,0-0.2-0.1l-1-1.1c-0.6-1.1-0.3-1.4-0.3-2.4l-0.3-0.1c-0.5,0.7,0.1,0.6-0.7,1
			c-0.5,0.3-0.7,0.4-1.1,0.5l-0.3-0.9l-0.1,0.3c-0.4-0.6-0.1-0.4-0.7-0.6c-0.2,0.3-0.7,0.5-1.1,0.6c0.2,0.7-0.3,0.6,0.8,0.4
			c-0.3,0.3-0.2,0-0.3,0.4c-0.3,0.8-0.1,0.1,0.1,0.4c0-0.5-0.1-0.2,0.2-0.5c0.4-0.5,1.4,1,0.9,1.9c-0.2-0.1-0.3-0.2-0.4-0.3
			c0.2,0.7,0.3,0.4-0.2,0.3l0.2,0.5h-0.5l0.1,0.1h0.3c-1.2,0-1.8,0.1-2.9,0.1c-0.9,0-1.9,0-2.9,0c0.5-0.3,0.2,0,0.4-0.7l0.3-2.8
			c0-1.3,0-2.7,0-4.1c0.7,0.2-0.2,0.2,0-0.4l3.9,0.5c1,0.2,3.1,0.5,4.1,0.5c-0.3-0.3-0.2-0.4-1-0.5l-1.5-0.3
			c-0.3-0.1-0.2-0.1-0.2-0.3c0.1-0.4-0.4-0.2,0.2-0.4l-2.2-4.2c0.4,0.2,0.1,0,0.4,0.5l2,3.6c0.9,0,2.5-1.2,3.4-1.6h-0.1
			c-0.7-0.2-1.2-0.6-1.2-1.4c0-0.1,0-0.1,0-0.1c0.7-0.4,1.5-0.1,2.3-0.1c0.4,0.5,0.3,0.6,0.5,1l0.8-0.5c-0.3-0.5-0.3,0-0.5-0.6
			c0.8,0.2,1,0,1.9,0.1L132.2,107.3z M139.2,106.2c0.4-0.3,1.5-1,2.1-1c0.7,0.9,2.3,2.5,2.4,2.9c-0.6,0-0.8-0.4-1.4-1.2
			c-0.8-0.9-0.7-1.3-1.2-1.4c-0.3,0.4-0.2,0.5,0.1,1c0.5,1,1.2,1.5,1.5,2l-1.4,0.6c-0.3-0.5-0.6-0.9-0.8-1.4
			c-0.2-0.5-0.3-1.1-0.5-1.6l-0.4,0.2c0,0.4,0.5,1.2,0.7,1.6l0.7,1.2c0.1,0.5,0.1,0.1,0,0.3C140.4,108.8,139.2,106.6,139.2,106.2z
			 M135.5,105c0.2-1.1,0.2-1.2,0-2.4l4.1,0.2c0.1,0,0.6,0,0.7,0.1l0.5,0.2c-0.9,0-1.8-0.1-2.7-0.1c-0.4,0-0.8,0-1.2-0.1
			c-1.4-0.1-1,0-1.1,0.1c0.5,0.3,2.2,0.2,2.9,0.2l2.2,0.1c0.5,0.1,0.2-0.1,0.5,0.3l-0.2,0.1c-0.2,0.1-2.3,0.2-3.1,0.1
			c0.5,0,0.9,0,1.4,0c0.2,0,0.6,0,0.8,0L136,104l-0.1,0.7c0.9-0.1,6.1-0.5,6.5-0.3C141.9,104.8,136.6,104.9,135.5,105z M124.2,105
			c0-0.5,0.2-0.8,0.2-1.3c0-0.4-0.1-0.7-0.2-1.2H135c0.4,0.7,0.3,1.7,0,2.4L124.2,105L124.2,105z M146.3,103.4
			c-0.4,0-0.2,0.1-0.5-0.3c-0.1,0.5,0,0.1-0.1,0.3c-0.4-1-0.7-1.1-0.3-1.8c0.9,0.1,0.5,0.2,0.7,0.9
			C146.4,103.2,146.7,102.8,146.3,103.4z M121.1,105.8c0.4-1.8,0.3-2.1,0-3.9c2.4,0.6,2.8,0.7,2.8,2c0,1-0.1,1.2-1,1.4
			C122.3,105.4,121.7,105.6,121.1,105.8z M127.1,102c0-0.6,0-1.2,0.4-1.6l1,1.7L127.1,102z M127.8,99.9c0.3-0.4,1.9-1.4,2.5-1.7
			l2.4,3.9h-3H129L127.8,99.9z M138.4,99.9l-1.2,0.5c0-1,0.1-1.4-0.1-2.3c0.6,0,0.5,0.2,0.7,0.7C138.1,99.2,138.3,99.5,138.4,99.9z
			 M134.1,98.5l-0.5,0.2c-0.3-0.4-0.6-0.9-0.6-1.3l0.4-0.2C133.7,97.4,134.1,98,134.1,98.5z M136,96.1l0.3,0.9l-1.2-0.4L136,96.1z
			 M156.4,92.9c-0.3,0.1-0.2,0.1-0.6-0.1c0.3-0.5,0-0.5,0.7-0.5L156.4,92.9z M144.6,92.7c0.5-0.1,0.7-0.4,1.4-0.3
			c0.4,0,0.5,0.1,0.7,0.2c0.3,0.1,0.1-0.1,0.7,0l0.1,0.8l-0.8,0.3c0.5-0.1,0.5-0.1,0.6-0.7c-0.5-0.1-0.3-0.2-0.7,0.2
			c-0.6,0.6,0,0.8-1.2,1c-0.2-0.4-0.5-0.5-0.6-0.9c-0.1,0.6,0.1,0.7,0.3,1.2c-0.5-0.1-0.7-0.7-0.8-1.2c0-0.2-2,0.8-2.4,1l-0.2,0.1
			c-0.4,0.4,0.7,0.7,0,1.4c-0.2,0.3-1.1,0.6-1.5,0.7c0.3-0.1,0.4-0.1,0.7-0.3c0.1-1-0.6-0.3-0.3-1.4c-0.1,0-0.3,0.1-0.3,0.2
			c-0.4,0.2-0.1,0.1-0.5,0.2c-0.1,0-0.1-0.3-0.1,0.2c0,0.3,0,0,0.1,0.3c0.2,0.5,0.2,0.2,0.2,0.9c-0.3,0.3-0.1,0.3-0.7,0.4l-0.9,0.4
			c-0.3-0.4-0.7-1.2-0.5-1.5l-0.9,0.3l-0.1-0.4c0,0,0,0,0-0.1v-0.1v-0.1l-0.1-0.4l-0.2-0.5c0.4-0.3,2.3-1.2,2.9-1.4
			c0-0.1,0-0.1,0.3-0.2l0.3-0.1c0.4-0.1,0.1-0.1,0.6-0.2l1.3,0.1l0.8-0.1c-0.2,0.5-0.1,0.3-0.1,0.4v0.1l0,0c0.1,0,0,0,0.1-0.1
			l0.9-0.3h-0.1c-0.1-0.1-0.5,0.5,0-0.1C143.8,92.2,144.2,92.5,144.6,92.7z M134.9,91.1c0.3,0.3-0.1,0.5-0.4,0.6l-16.6,8.9
			c-0.1,0.1-0.2,0.1-0.3,0.2l-0.1,0.1l-0.2,0.3c0.8,0,0.8-0.1,1.3-0.3l11.2-6c0.3-0.1,1.5-1.1,1.7-0.6c1.1-0.6,7.5-4.1,8-4.2
			c0.1,0.5,0.3,0.3-1,0.9c-0.5,0.2-0.9,0.5-1.3,0.7l-15.4,8.3c-0.9,0.5-1.7,1.2-2.9,1c0.2,0.2-0.5,0.4,0.5,0.1
			c0.3,0.3,0.3-0.4,0.3,0.4l0.8,0.1c0.5,1.1,0.8,3.4-0.1,4.4c-0.6,0.4-12.5-0.1-14.8,0.1c-0.3,0.1-0.5,0.1-0.9,0.3
			c0,0.5,0,0.2,0,0.1l-0.2-0.6c1,0.5,0.4,0.2,0.7,0c-0.9-0.1-1.6-0.6-2.4-0.8c0.4,0.5,0.3,0.1-0.1,0.4l0.5,0.4l-0.2,0.6l-2.2-0.1
			l0.1-0.5c-0.5-0.5,0.3,0.3-0.1-0.3l-0.1-0.1l-0.2-0.2c-0.1,0.3-0.2,0.5-0.5,0.7c-0.3,0-0.2,0.1-0.2-0.5l-0.3,0.3l-0.1-0.4
			c0-0.4,0.3-0.3,0.4-0.4c-0.1,0.2,0,0.2-0.1-0.1H99c-0.1,0.4,0.1,0.1-0.3,0.4c0.1-0.1,0,0.1,0.4,0.1l-0.1,0.1l-0.1,0.1l-0.3,0.2
			c-0.6,0.7,0.1,0.7,0.1,0.7l0.1-0.5c0-0.1,0.1-0.1,0.1-0.1c0.6,0.2,0.5,0.1,0.5,0.9l0.2,3.4c0.2,0.2,0.2,0.1,0,0.4
			c1.2-0.3,4.2-2.5,5.6-2.7c-1.2,1-4,1.9-5.2,2.9c0.7,0.2,2.7-1.2,3.4-1.5c0.9-0.4,2.2-1.6,3.3-1.2c-0.9,0.5-5.4,2.7-5.8,3.2
			c1.6,0.2,2.4-0.3,4.1-1.3c0.6-0.3,3-1.8,3.5-1.6c-1,0.6-5.7,2.9-6.2,3.4c2,1.2,5.2,3.4,7.5,4.8c0.4,0.3,0.8,0.5,1.3,0.8l1.1,0.8
			c-0.6-0.1-5.7-3.6-7-4.4c-0.7-0.4-1.6-1.2-2.4-1.4c0.2,0.4,0.1,0.2,0.5,0.5c0.2,0.2,0.3,0.3,0.5,0.4l7.4,4.9
			c-1,0.1-1.2-0.1-1.8-0.5l-8.7-5.6c-1.4-0.9-0.6-0.6-1.2-1.1c-0.6,1.2,0.2,1.3,1.6,2.3c0.9,0.5,1.8,1.1,2.6,1.6
			c1.7,1.1,3.3,2.2,5.1,3.3c-0.1,0.2,0.3,0.1-0.4,0.1c0.3,0.2-0.5,0.2,0.6,0.2h-0.2h-0.2c-0.1,0-0.4,0-0.5,0l-6.5,0.5
			c-2.9-0.1-1.8,0.1-2.5,0.6l0.1,0.6c0,0.3,0,0.5-0.1,0.7l-0.4,2.7c-0.1,0.8,0.1,0.9-0.7,0.9c-0.3-0.5-0.7-3.7-0.7-4.5
			c0-0.5,0-0.3-0.2-0.5l-1.1,1.6c-0.4,0.6-0.5,1-1,1.5l-0.8,1c0,0,0,0-0.1,0.1l-0.9-0.4c0.5-0.8,1.6-1.9,1.8-2.5
			c0.5-0.5,0.4,0.1,0.2-0.5L95,120c-0.7,1-0.3,0.9-0.6,0.6l-1.7,2.1c-0.2,0.2,0,0.1-0.3,0.3c-0.3-0.2-0.3-0.1-0.5-0.4l-0.5-0.5
			c0,0,0,0-0.1-0.1c-0.2,0.3,0,0.1-0.3,0.2l-0.5-0.5c0.1-0.7,0.8-1.5,1-2.2c0,0,0-0.4-0.1,0.1c-0.5,0.2,0-0.2-0.3,0.7
			c0-0.1-0.1-0.1-0.1-0.1l-0.1-0.1c-0.4-0.8,0.7,0.2-0.1-0.3c-0.2,0.3-0.2,0-0.4,0.4l-0.3-0.1c0.1,0.3,0.2,0.2-0.1,0.6
			c-0.1,0.2-0.2,0.3-0.3,0.4c-0.1-0.2,0,0-0.3-0.1c-0.1,0.7-0.1,0.3,0.4,0.8c0.1,0.1,0.1,0.1,0.3,0.3c0.1,0.1,0.1,0.1,0.3,0.2
			c1.6,1.1,3,1.9,5.1,2.3c3.3,0.6,4.7-0.1,7.3-0.8c-0.6-0.2,0.1,0.3-0.3-0.4l0.2-0.1l-0.9,0.2c-0.2-0.3-0.6-1-0.7-1l1.4,0.3
			c0.1-0.2,0.5-0.5,0.7-0.5c0.2-0.2,1.7-0.1,1.4-1.6c-0.1-0.6-0.1-0.4-0.5-0.6l0.3-0.2c0.9-0.3,3.1-0.1,4.1-0.1c0.7,0,1.4,0,2,0
			c1.1,0,1.2-0.3,1.3,0.7l0.5,0.1l-0.3-1l2.3-0.8c0.8,0.7,0.8,2.6,0.5,3.6l-0.3,0.9c0,0,0,0-0.1,0.1c0.5,0.4,0.1,0.1,0.4,0.4
			c-0.6,0.3-0.2-0.3,0.1,0.4c-0.4-0.2-0.4,0.1-0.6,0.6l0.4,0.1c0.7,0.1-0.4-0.6,0.4,0c0.1,0.1,0.1,0.2,0.1,0.3c0,0.3,0,0.1-0.1,0.3
			c0.5-0.3,0.3-0.4,0.8-1l0.3-0.3c1.7,0.9,2.2,1.6,4.8,1.8c2,0.1,4.4,0,6.5,0h19.4c5.5,0,6.5,0.6,10.8-2.1c0.7-0.5,3.5-2.1,3.9-2.6
			c-0.7,0,0.1,0.4-0.4-0.2c0.8-0.2,1.3-0.6,1.8-1c0.1-0.1,0.4-0.2,0.5-0.3c1.6-1,3.2-2.2,3.7-4c-1.2,0.2-0.3,0.5-2.4,2.3l-8.1,5.2
			c-0.7,0.5-0.3,0.4-0.7,0.3c-0.3,0-0.5-0.3-0.5-0.5c-1.9,1.4-4.9,1.1-7.5,1.1l-17,0.1c-2.5,0-6.1,0.2-8.5,0c0.6,0,1.9-0.3,2.7-0.3
			c1,0,2,0.1,2.9,0.1c1.2,0,1.9-0.3,2.8-0.3c1,0,2.1,0,3.1,0c4.2,0,8.3,0,12.5,0c9.4,0,5.9,0.4,14.3-4.5c0.9-0.5,3.2-1.7,3.7-2.6
			c-0.4,0.2-0.1-0.1-0.5-0.2c-0.7-0.2-0.6,0.2-2.1,1.2c-0.8,0.5-0.6,0.1-0.6-0.1l-0.7,0.4l1.2-2c0.2-0.3,0.3-0.3,0.2-0.7
			c-0.3-0.2,0.1,0.3-0.2-0.3c-0.1,0.3-0.1,0.4-0.2,0.6l-0.4-0.6c0,0,0,0.1-0.1,0.1L161,116l-0.4-0.7c-0.1-0.1,0-0.1-0.2-0.4
			c-0.3-0.5-0.4-0.3-0.4-1.1l0.3-0.2l0.1-0.1l0.1-0.1c0.1-0.2,0.5,0,0-0.5l-0.2-0.1h-0.1c-0.4,0.1-0.1,0-0.3,0.2
			c0,0.1-0.2,0.1,0,0.6c-0.4-0.3,0.4,0-0.1-0.1v0.1c0.1-0.2,0.1-0.1,0.1-0.5c-0.1,0-0.2,0-0.3,0c-0.4-0.3,0,0.2-0.3-0.4
			c0.4-0.3,0.9-1.7,1.2-1.8l-1.6,2.7c-0.3,0.2,0,0.1-0.5,0.2c0.1-0.8,0.3-0.9,0.6-1.5l0.1-0.1c0,0,0,0,0.1-0.1c0-0.1,0-0.1,0-0.1
			h-0.1H159c-0.6,0.2-0.1,0.3-0.1,0.3c0-0.3,0.1-0.3-0.3-0.3c-0.3,0.1-0.8,0.4-0.8-0.3c0-0.6,0.5-0.5,0.9-0.3l0.2,0.1
			c0-0.1,0.1,0,0.2,0c-0.1-0.9-0.1-0.6,0-0.8l0.2-0.3c-0.2,0-0.6,0-0.7-0.2c0-0.1-0.1-0.1-0.1-0.1l-0.4,0.4v0.1l-0.1-0.1
			c-0.3-0.7,0.1-0.2-0.1-0.7c-0.9,0.7-0.4,0.7-0.4,1.4l-0.1,0.4c0,0,0,0.1-0.1,0.1c-0.3,0.3-0.6,1-0.9,1.4c-0.3,0.5-0.5,0.9-0.8,1.3
			c-0.4,0.9-2.6,4.6-3.1,4.8c-1,0.5-2.3,0.3-3.3-0.1c-2.1-0.9-1.6-1.2-1.6-2.3c-0.3-0.1,0.5-0.3-0.3,0l-0.1,0.1
			c-0.3,0.3-0.1-0.1-0.1,0.4c0.1,0.5,0.3,2.6-0.1,2.9c-0.3,0.2-2.1,0.5-2.1-0.5l-0.5-0.7c0-0.9,0-1.9,0-2.8c0-1.1-0.2-2,0.4-2.4
			c0,0,0.1,0,0.1,0.1l0.2,0.1c0,0,0,0.1,0.1,0.1c0.3,0.4-0.5,0,0.2,0.3c-0.1-0.4-0.2-1.2-0.1-1.7c0.1-0.6,0.1-0.7,0.8-0.7v-1.2
			c0.1-0.5,0.4-0.5,0.6-0.5c0.6,0,0.2,0,0.4,0.1c0-0.4-0.1-0.7,0.5-1h0.1c0.3-0.2,0.6-0.2,0.9-0.5h-0.1c-0.9,0.2-1-0.1-1.1-0.9
			l0.2,0.2c0,0,0.1,0.1,0.1,0.2c0.2,0.1-0.1,0.2,0.3,0l-0.1-0.9c0.8,0.4,0.5,0.7,0.6,0.5c-0.3-0.6-0.4-0.2-0.5-0.9
			c-0.5,0.1-0.3,0-0.6,0.1c0.6-0.3,1.1-0.5,1.7-0.7c-0.8-0.4,0,0.5-0.9-1.8l-0.5-1.4c0-0.1-0.1-0.4-0.1-0.5c0-0.5,0-0.3,0.2-0.5
			c0.6,0.2,0.2-0.2,0.5,0.5l0.6,1.6c-0.6-0.5,0.3-0.5,0.3-0.5c0.1,0.7,0.3,0.9,0.4,1.5h0.3l0,0l0.5-0.3h0.1l1-0.7l0.4,0.4
			c0.5,0.3,0.7-0.1,0.9-0.2l0.3-0.2c0,0.4,0,0.3,0.1,0.4c0.2,0.2,0.8,0.3,1,0.4l-0.3,0.2c-0.6,0.3-0.4,0-0.6-0.1
			c0.1,0.2,0.1,0.4,0.4,0.5c0,0,0,0,0.1,0h0.1h0.1h0.1h0.5c-0.1,0.5-0.1,0.3-0.2,0.5c0,0-0.1,0-0.1,0.1c0.5-0.3,0.1-0.3,0.7-0.2
			c0.1,0,0.3,0.1,0.3,0.1c0.3,0.1,0.1,0,0.3,0.1c0.3,0.1,0.2,0.1,0.5,0.3H156v0.1c0.3-0.2,0.7-1.2,0.9-1.6l0.5-1.1
			c0.3-0.5,0.2-0.3,0.5-0.4c0.5,0.4,0,0,0.2,0.3c0.2,0.5-0.4-0.2,0.1,0.2c0.1,0.1,0.6,0.1,0.6,0.1c0.2-0.6-0.1-0.3,0.5-0.5v-0.1
			c-0.5-0.2-0.5,0-0.4-0.5c-0.2,0.3-0.5,0.6-0.9,0.4c-0.4-0.3-0.2-0.4-0.2-0.5l0.3-0.4c0.3-0.6,0,0,0.1-0.4c0-1.3,0.5-0.9,0.8-0.8
			h-0.2c-0.2-0.4-0.1-0.3,0.1-0.6l-0.5-0.3c0-0.1-0.1-0.1-0.1-0.1c0.7-0.4,0.9-1.1,1.4-1.4c0.2-0.9,0.2-1.1,0.1-2
			c-0.1,0.1,0,0-0.2,0.2c-0.6,1.1,0.2,0-0.9,1c-0.9,0.9-1-0.6-2.2-0.1c-0.4,0.2,0.3,0.3-0.1,0c0.1-2-0.4-2.2-1-3.5
			c0.5,0.3,0.7,0.9,1,1.4l0.1,0.1c0,0,0,0.1,0.1,0.1c-0.5-4.5-8-4.6-8.6-0.1c0.3-0.3,0.3-0.7,0.6-1c1.6-2.3,5-2.6,6.8-0.7l-0.1,0.1
			c0,0,0,0-0.1,0l-0.2,0.1c0.6,0.3,1,1,1.2,1.8c0.3,0.4,0.3,0.5,0.3,1.1c0,1.4-0.2,1.6-0.9,2.7c0.2-0.2,0.4-0.5,0.6-0.9l0.3-0.9
			c0,0,0.1,0,0.1-0.1s0-0.1,0.1-0.1c-0.2,1.7-1.9,3.3-2.9,3.4c0.8,0,1.5-0.2,2.2-0.4c0.2-0.1,0,0,0.1-0.3c0.3-0.7,1.1-0.3,1.4-0.4
			l0.3-0.2c0.3-0.2,0.4-0.2,0.7-0.4c-0.8,0.8-1.2,1.1-2.5,1.6c-1,0.4-2.4,0.7-3.5,0.7c-2.5,0-4.8-0.9-6.1-2.2
			c1.2,0.6,2.9,1.6,4.6,1.6c-1-0.2-2.7-1.9-2.8-2.9c0.3,0.1,0.6,1.9,2.7,2.7c1.6,0.6,3.3,0.2,4.2-0.7l-0.3-0.1
			c0.4-0.3,0.3-0.3,0.5-0.7c0.7-1.1,0.8-1.6,0.8-2.9c0.1,0.1,0.1,0,0.1,0.3c0,0.1-0.1,0.2-0.1,0.3c-0.2,0.3,0.1,0.1-0.2,0.2
			c-0.4,0.3-1.1,0.1-1.5,0.1c0,0.2-0.1,0.4-0.2,0.5c-0.1,0.1-0.5,0.3-0.7,0.5c0.2-0.6,0.9-1.5,0.3-2.2c0.2,0.6,0.3,0.7,0.1,1.3h-0.2
			c-0.3,0.1,0,0-0.3,0.3c-0.8,0.6-2,0.4-2.3-0.3l0.3,0.6l-0.4-0.3c0,0.3-0.1,0.2,0.2,0.4c-0.4-0.4-0.5-0.4-0.7-1.1
			c-1.9,0.3-1.8-0.3-1.8-1.3c-0.3,1.9-0.2,1.8,0.5,3.5c-1.2-1-0.8-2.7-0.5-4.3c-0.2,0.2-0.1,0-0.2,0.3l-0.3,0.9
			c-0.1,0.5-0.1,0.9,0,1.3h-0.3l0.3,1.6l-0.6-1.3c0,0-0.1-0.1-0.1-0.2c0,0-0.1,0-0.1-0.1c0,0,0-0.1-0.1-0.1c-1.4,0.2-0.9,0.9-1.8,0
			c-0.7-0.7-0.7-0.4-0.7-1.8c-0.7,1.4-0.2,2.6,0.4,3.6c-1.9-2.2-0.7-5.5,3.5-6.8c3.2-0.9,6.9-0.7,9.6,1.4c0.1-0.2,0.3-0.1,0.2-0.3
			c0,0.2-0.1,0.1,0.2,0.2c0.7,0.2,0,0.1,0.3-0.1c-0.5-0.1-0.3,0.1-0.5-0.3c-0.9-0.8-0.4-1.3-1.4-1.2c0.1,0.5,0.1,0.6,0.6,0.7
			l-0.7-0.3l0.1-0.8c0.3,0,1.2,0.1,1.7,0.2c0.6,0.1,1.1,0.1,1.3,0.5l0.1-0.2c0-0.1,0.1-0.1,0.2-0.1l0.8,0.4h0.6h0.1l0.5-0.1
			c0.7,0,0.7,0.3,1.4,0.5l0,0v-0.1c0.3-0.3,0.5,0.2,1.1,0.2l0.1-0.4c0.6,0,0.9,0.2,1.4,0.4l0.8,0.2c-0.1,0.2-0.2,0.5-0.2,0.8
			l0.7,0.2c0.1-1-0.1-0.3,0.3-0.6c0,0.6,0,0.7-0.3,0.9l0.7,0.5c-0.3,0.2-0.2,0.2-0.8,0c0.9,0,0.7,0.2,0.5,1c0.2-0.1,0.2,0,0.4-0.1
			c0.1-0.4,0.2-0.5,0.2-0.9c0-0.9-0.3-2.1,0.4-2.8c0,0.1,0-0.1,0.1,0.3l-0.8,10.7c-0.1,1.8-0.3,3.7-0.5,5.6
			c-0.3,3.3-0.5,3.3-0.8,5.2c0.5,0.1,0.7,0.1,0.7-0.4c-0.3,0.1-0.1,0.2,0.1,0.2c0.3-0.1,0.3,0.1,0.4-0.9l0.1-2.2
			c0-0.4,0.2-1.1,0.2-1.5c0.3-2.7,0.4-6.2,0.7-8.7l0.7-10c0.3-0.1-0.4-0.5,0.5-0.1l0.4-4.5c0.3-0.2,0.6-0.4,0.9-0.6l0.7-0.6
			c0,0,0.1,0,0.1-0.1c-0.4,0-0.2-0.1-0.4,0c0.3-0.3,0.1-0.1,0.3-0.2l0.1-0.1c0,0,0.1,0,0.1-0.1c0,0,0.1,0,0.1-0.1
			c0.2-0.1,0.3-0.1,0.4-0.2c-0.1-0.1,0.4-1-1.2,0.1l-2.5,1.6c-0.5,0.4-0.2-0.3-0.4,0.5l-0.1-0.2c0,0,0-0.1-0.1-0.1h-0.2
			c0.1-0.6,0.2-0.4,0.2-0.9c-0.5,0.7-0.4,2.2-1.2,3.3c-0.5,0.6-1.6,1.8-2.8,1.6c-0.4-0.1-1.5,0.1-2.2,0.1c0.1,0.3,0.4,0.1,0.5,0.1
			c1-0.4,0.8-1.2-0.7-1.2c-0.5,0-3.8,0.1-4.4,0.5c0.1,0.9,0.7,0.9,0.9,0.7h-15.2c-0.7,0-1.3-0.3-1.8-0.2c-0.3,0.2,0.2,0.2-0.5,0.1
			c-1-0.1-3-2.2,0.5-4.7c3.4-2.5,6.7-5,10.7-6.8c3.2-1.5,3.3-1.4,6.6-2.1c0.2-0.5-0.2-0.1,0.2-0.3c0.3-0.2,1.1,0.3,1.4-0.2h-1.4
			c-0.1-1.3,0.2-1.3-0.2-1.6l-0.1,0.3c-0.2,0.7,0.3,1.1-0.3,1.3c-0.2-0.3-0.1-1.1-0.1-1.6l-1.7-0.1c0-0.4,0.1-0.4,0.2-0.5
			c-0.7,0.2-0.7,0.3-0.7,1.1c0,0.6,0,1.1,0,1.7c-4.2,1.1-8.6,3.9-11.7,6.1c-1.3,1-4.2,2.8-4.9,4.1c-0.9,1.6,0.1,0.8-2.3,2.1
			C136.8,90.1,135.7,90.7,134.9,91.1z"/>
		<path class="st0 fillable" d="M100.6,99.7c-0.6-0.1-1.1,0-1.3-0.5c0.4-0.3,1.1,0,1.7,0.1c1,0.2,3,0.9,3.9,1.5c0.1,0.1,0.1,0.1,0.2,0.2
			C103.5,101.1,103.2,100.3,100.6,99.7z M83.9,98.1c0-0.1-0.4,0,0-0.5l1.2-0.9c0.3,0.5,0.1,0.4-0.9,1.3
			C83.8,98.5,83.9,98.2,83.9,98.1z M85.8,96.3c0.1-0.3,0.4-0.5,0.7-0.7c0.3-0.2,0.6-0.4,0.9-0.4c0.2,0.5-1,1.1-1.4,1.2L85.8,96.3z
			 M126.2,94.9l0.3,0.7c-0.6-0.2-0.1-0.2-0.6-0.5l-0.6,0.4c0.6,0.1,0.3,0,0.5,0.3c-0.1,0.1-0.1,0.1-0.2,0.2l-2.7,1.4
			c-0.1-0.3-0.1-0.2-0.1-0.3c-0.1-0.4,0.2,0.1-0.1-0.3c-0.3,0.3-0.8,0.5-1.2,0.7c-0.8,0.4-0.5,0.5-0.5,0.7c0,0.3,0.1,0-0.1,0.3
			c-0.3-0.3-0.3-0.2-0.4-0.7L126.2,94.9z M88.1,94.9c0.1-0.4-0.3-0.1,0.3-0.4l1.3-0.6l0.1,0.3C89.4,94.6,88.5,95.2,88.1,94.9z
			 M90.6,93.9c-0.1-0.5,0.3-0.7,1.3-0.9c0.4-0.1,0.2-0.1,0.4,0c-0.1,0.5-0.3,0.4-0.9,0.6C91.1,93.8,91,93.9,90.6,93.9z M99.5,92.7
			c-0.9,0-0.7-0.1-0.8-0.3c0.2-0.1-0.2-0.1,0.4-0.1l1.1,0.4C100,92.7,99.9,92.7,99.5,92.7z M130.6,91.3c0.3-0.3,1.8-1,2.3-1.1
			l0.7,1.6c-0.3-0.1-0.3-0.1-0.5-0.6c-0.1-0.3-0.2-0.5-0.4-0.8l-0.9,0.5c0.2,0.4,0.3,0.5,0.5,0.8s0.4,0.6,0.1,0.7
			c-0.7,0.1-0.3-0.9-1.3-1.2c0.1,0.6,0.5,1,0.7,1.6c-0.4,0.2-0.5,0.3-0.9,0.4C130.8,92.6,130.6,92,130.6,91.3z M130.6,90.7
			c0-0.6,0-0.9,0.4-1.3l0.4,0.9L130.6,90.7z M101.9,89.3c-0.6-0.1-3.2-0.3-3.4-0.4l-0.1-0.6c5.3,0,11,2.2,14.7,5.2
			c1.5,1.2,5.2,4.7,5.5,6.2l-0.3,0.2c-0.2-0.1-2.4-3.1-3.6-4.2c-2.7-2.6-6.1-4.6-9.8-5.8C103.9,89.7,103,89.5,101.9,89.3z
			 M95.5,89.8c-0.3,0.1-0.3,0.1-1.2-0.3c-0.4-0.2-0.7-0.3-1.1-0.6c-0.5-0.4-1.4-1-1.7-1.5l3.4,0.6l0.4,0.7c-1-0.1-2.1-0.5-2.9-0.8
			c0.7,1,2.3,1.4,2.9,1.7L95.5,89.8z M94.1,87.5c-0.1-1,0.1-2.2,1-2.4c0.3,0.7,0.6,1.5,0.7,2.5L94.1,87.5z M127.9,84.8
			c0.6-0.4,1.8-0.5,2.4-0.2C130.1,85.5,128.2,85.1,127.9,84.8z M131.5,84.4c0.3-0.2,0.8-0.3,1.2-0.4c0.6-0.1,1-0.2,1.1,0.4
			C133.4,84.7,131.9,84.7,131.5,84.4z M126.5,84.8c-0.5,0.3-1.2-0.1-1.7-0.5l-0.1-0.1c0-0.1,0-0.1-0.1-0.1
			C126,84.2,126.5,84.2,126.5,84.8z M135.1,84.1c0.3-0.2,0.8-0.3,1.1-0.4c0.6-0.1,0.8,0,0.9,0.5C136.7,84.3,135.4,84.2,135.1,84.1z
			 M93.8,84c4.6-2.2,4.5,9.3,4.5,9.5c-0.7-0.1-0.6-0.2-0.6-1c-0.1-2.1-0.4-8.4-2.7-8.6c1.2,1.1,1.4,2.1,1.7,4.1
			c0.1,0.9,0.7,4.5,0.4,5.1c-0.4-0.6-0.3-5.8-1.3-7.9C95.2,84.1,94.8,84.3,93.8,84z M122.2,83.3c0.1-0.1-0.2-0.1,0.3-0.1l0.7,0.1
			c0.5,0.1,0.4,0.1,0.5,0.5c-0.5,0.1-0.4,0.1-0.9-0.1C122.3,83.5,122.4,83.5,122.2,83.3z M121.2,82.9c-0.5,0.1-1.3-0.2-1.6-0.5
			C120.3,82.2,121.1,82.1,121.2,82.9z M82.3,98h0.4c0,0,0.1,0,0.1,0.1c-0.2,0.5-0.5,0.6-0.5,1.2c0.1-0.2,0.4-0.6,0.6-0.7
			c0.5-0.2,0.4,0.1,0.3,0.4c0.5,0.4,0.1,0.2,0.6,0.1v0.8c0.5-0.2,0.3-0.5,0.7-0.3c0.4,0.2,0.7,0.4,0.7,0.7l-0.3,0.2
			c-0.1,0.1-0.2,0.2-0.4,0.4c-0.6,0.6-1.7,2.1-2.1,2.9c-0.8,1.4-1.5,2.9-1.9,4.7c-0.2,0.7-0.5,2-0.5,2.7c-0.1,1.8-0.1,4.4,0.4,6.2
			c0.1,0.4,0.3,0.9,0.4,1.3c0.1,0.5,0.3,0.8,0.4,1.3c0.5-0.4,0.2,0.1,0.3-0.5l-0.7-2.9c0-0.1-0.1-0.4-0.1-0.5l-0.2-2.2
			c0-2.7,0.5-4.9,1.3-7.2l0.3-0.6V106c1.6-3.5,3.6-5.5,6.7-7.7l2.7-1.4c0.8-0.4,2.4-0.8,2.5-0.8c0.4-0.2,0.2,0.1,0.4-0.4l-0.6-0.3
			c-0.8-0.1-1.2,0.6-2.1,0.4c0.2-0.6-0.3-0.5,0.9-0.5c-0.1,0.2,0.1,0.1-0.5,0.1c0.1-0.1,0.4-0.5,0.5-0.3c-0.8-0.1-0.3,0.1-0.5-0.4
			l0.1-0.1l0.1-0.1c0.7-0.4,0.9-0.1,1.6-0.8c-0.4-0.4-0.8-0.1-0.8-0.7L93,92.6l1.7-0.3c0.4,0.2-0.1,0,0.3,0.3c0-0.8,0.5-0.9,1.1-0.9
			c0.2,0.3,0.2-0.1,0,0.4c0.3,0.2,0.2-0.3,0.3,0.4h-0.6l0.1,0.5c1.5,0.6,4.6,1.2,5,2.4c-0.2,0.8-1,1.1-1.8,1.4
			c-0.9,0.4-1.6,0.7-2.6,0.9l0.5,0.1h0.1l0.1,0.1c0.7,0.4,0.4,0.5,0.7,0.3l0.3,0.2l0.6-0.1l0.2,3.1c-0.1,0.4,0,0.2,0.1,0.3
			c0.5,0.5-0.1-0.1,0.4,0.1v-0.6c0.3-0.1,0.3-0.1,0.6,0.1c0.7,0.1,0.3-0.1,0.7,0.1l0.5,0.1c0.4,0.1,0,0,0.4,0.2c0,0,0.6,0.4,0.2,0
			c0.3,0.6,0.1,0.2,0.2,0.6c0.3,0.7,0.4,1.6,0,2.4h-2.5c0.1,0.3,0,0.3,0.1,0.1c-0.1,0.1-0.4,0-0.4,0.4l0.1,0.4l0.3-0.3l0.5-0.1
			l-0.2,0.6c0.3-0.2,0.4-0.4,0.5-0.7l0.2,0.2l0.1,0.1c0.5,0.6-0.4-0.2,0.1,0.3c0.5-0.8,0.9-0.3,1.6-0.4c0.3-0.3,0.5,0.1,0.1-0.4
			c0.3-1.5,0.4-1.2,0-2.8c0.4-0.3,1.8-0.9,2.4-0.9c0.4,0.6,0.6,1.4,0.6,2.3c0,1.2-0.3,1.3-0.5,2.2c-0.2,0.1,0.4,0.5-0.7,0l0.2,0.6
			c0.1,0.1,0,0.5,0-0.1c0.5-0.3,0.7-0.2,0.9-0.3c0.6-2.5,0.6-2,0.1-4.6h14.1c0-0.8,0-0.1-0.3-0.4c-1,0.3-0.2,0.1-0.5-0.1
			c1-0.7,2.2-1.2,3.3-1.8c1-0.6,2.1-1.1,3.1-1.7c2.1-1.1,4.2-2.2,6.3-3.4c-0.2-0.5-1.5,0.5-1.7,0.6l-11.2,6
			c-0.5,0.3-0.5,0.3-1.3,0.3l0.2-0.3l0.1-0.1c0.1-0.1,0.1-0.1,0.3-0.2l16.6-8.9c0.3-0.1,0.6-0.3,0.4-0.6l-0.7,0.4
			c-0.9-1.1-0.5-2.2-2.2-1.5l-0.7-1.2l7.7-3.3c0.9-0.5,1.9-0.8,1.8-1.9c-1.7-1.3-6.3-0.5-8.7-0.2c-3.8,0.5-4.9,0.8-8.4-0.5
			c-0.9-0.3-7.5-3.2-7.3-0.7c0.1,1.4,4.8,4.3,5.1,4.7c-0.7,1.2-1.8,1.6-0.7,2.3c0.4-0.2,0.3-0.3,0.7-0.6c0.4,0.1,0.7,0.2,1.2,0.1
			c0.2-1-0.3-0.8-0.3-1.1c0.1-0.1,0-0.1,0.3,0c0.1,0,0.1,0,0.2,0.1c0.1,0,0.5,0.4,1.3,0.7l-0.1,0.9c1,0.5,1.3,1,2.4,0.2
			c1.1,0.2,1.4,0.4,2.6,0.3c0.2,0.6,0.6,1.1,0.9,1.7c-0.5,0.4-1.1,0.3-0.7,1.2c0.2,0.5,0.5,0.9,0.7,1.4c-0.4,0.3-2.3,1.3-2.7,1.4
			c-0.5-1.4-0.7-0.9-1.1-1s0,0-0.4-0.4l-2,1c0.1,0.4,0.1,0.3,0.2,0.8l-0.7,0.3c-0.3-0.1-0.1-0.1-0.3-0.3c-0.1,0-0.1-0.1-0.2-0.2
			l-2.1,1l0.2,0.8c-0.5,0.2-0.5,0.2-0.6,0.4l0.5,1l-0.7,0.4c-0.9-0.8-1.8-3.2-6.1-6.6c-4.4-3.4-9.2-5-15.4-5.3
			c-0.3-1.8-1.2-3.9-2.8-4.1c-2.4-0.4-2.9,1.6-3.3,3.6c-0.3,0.1-2.9-0.8-0.7,2.6c0.7,1,0.8,1,0.8,2.6c-2,0.6-3.9,1.4-5.5,2.4
			C84.3,95.9,84,96.4,82.3,98z"/>
		<path class="st0 fillable" d="M197.8,121.1c0.7,0.8,0.7,2,0.4,3.3l-1,0.1L197.8,121.1z M194.3,124.3c-0.1-0.5-0.1-1.3-0.1-1.8
			c0-0.7,0.3-0.9,0.6-1.4l0.5,3.4L194.3,124.3z M199.5,122.5c-0.4-0.7-0.5-0.7-0.4-1.7c0.5,0.7,1.7,2,2.1,2.7l-0.9,0.4
			C200,123.4,199.8,122.9,199.5,122.5z M191.4,123.4c0.3-0.7,1.6-2,2.1-2.6c0.1,1,0.1,1-0.4,1.7c-0.3,0.5-0.5,0.9-0.8,1.3
			C191.9,123.7,191.7,123.6,191.4,123.4z M204.3,121.2c-0.3-0.3-0.3-0.5-0.5-0.9c0.4,0.1,0.5,0.3,0.9,0.4
			C204.6,121.1,204.8,120.9,204.3,121.2z M196.5,124.5c-0.6,0-0.5,0.1-0.6-0.4c0-0.1-0.1-0.6-0.1-0.8c-0.4-2.7-0.8-2.8,0.2-4.3h0.6
			c0.8,1.4,0.7,0.7,0.4,2.6C196.9,122.3,196.9,124,196.5,124.5z M188.9,120.4l-0.5,0.9c-0.3-0.2-0.3-0.1-0.5-0.5L188.9,120.4z
			 M193.4,118.3c0.2,0.7,0.2,1.3-0.2,1.7c-0.4,0.5-0.6,0.7-0.9,1.1c-0.5,0.7-1.6,2.4-1.9,1.7c-0.1-0.3,1.3-3.9,1.7-4.3
			C192.7,118.1,192.8,118.1,193.4,118.3z M201.9,121.6c0.2,0.4,0.7,1.2,0.2,1.3c-0.4,0.1-0.3,0-0.6-0.4c-0.2-0.3-0.3-0.4-0.5-0.6
			l-1.8-2.3c-0.2-0.4-0.3-1.3,0.2-1.5C200.7,117.5,201.6,120.9,201.9,121.6z M203,122.3l-0.3-0.4c0,0-0.1-0.3-0.1-0.4
			c-0.1-0.3-0.2-0.5-0.3-0.7c-0.2-0.6-0.5-1.1-0.6-1.7c1.3,0.7,0.9,0.5,2,2.6L203,122.3z M188.9,121.9c0.2-0.5,0.5-1.1,0.8-1.6
			c0.4-0.7,0.5-0.7,1.2-1l-1.3,3.1c-0.3-0.1-0.1,0-0.4-0.2C189.1,122,189,121.9,188.9,121.9z M205.2,120.3c-1-0.5-2.2-0.9-2.6-2
			c0.5,0.1,2.8,1,3.1,1.2C205.6,120,205.6,120,205.2,120.3z M190,118.3c-0.5,0.9-0.1,0.7-1.1,1.2c-0.5,0.3-1,0.6-1.6,0.8
			c-0.1-0.3-0.3-0.5-0.5-0.8L190,118.3z M190.6,118.5c0.3-0.6,0.2-0.7,0.9-0.8C191.2,118.4,191.3,118.2,190.6,118.5z M206.3,118.7
			c-0.3,0.3-4.1-1.3-4.3-1.5c-0.2-0.3-0.7-1-0.3-1.4c0.8-0.9,2.4,0.7,2.8,1C205.3,117.4,206.8,118.3,206.3,118.7z M190.8,115.8
			c0.2,0.6,0.2,0.8-0.3,1.4c-0.3,0.4-4,1.8-4.2,1.7c-0.7-0.3,0.4-0.9,0.6-1.1l2-1.6c0.7-0.5,0.3-0.5,1.1-0.5
			C190.3,115.6,190.5,115.7,190.8,115.8z M204.2,115.6c1.1-0.1,0.9-0.1,1.8,0.4c0.3,0.2,1,0.5,1.3,0.9l-0.3,0.9L204.2,115.6z
			 M185.4,116.9c0.5-0.4,0.9-0.5,1.3-0.9c0.7-0.5,0.7-0.5,1.7-0.4l-2.7,2.1L185.4,116.9z M204.7,114.3c0.5-0.2-0.2,0.1,0.2-0.1
			c0.1,0,0.3-0.1,0.4-0.1l2.5-0.4c0.1,1.3-0.2,1-1.4,1c-1.4,0.1-1,0-2-0.4H204.7z M184.7,113.8c0.9,0.1,2.7,0.3,3.4,0.6
			c-1.3,0.7-1.2,0.5-3.2,0.4L184.7,113.8z M207.9,113c-0.3,0.2-2.5,0.5-3,0.5c-0.5,0.1-1.1,0.3-1.5,0.1c-1.4-0.5-1-1.4,0.1-1.7
			c0.4-0.1,4.2,0.5,4.5,0.7v0.4H207.9z M190.1,113.2c-1.4,0.8-0.9,0.7-2.7,0.4c-0.5-0.1-1-0.1-1.6-0.2c-1.1-0.2-1.3,0-1.2-0.5
			c0.1-0.4,0.1-0.3,0.6-0.3c0.3,0,0.6-0.1,0.8-0.1c2.7-0.4,2.6-0.7,4.1,0.2L190.1,113.2z M206,110.8c0.6,0,1.1,0.1,1.7,0.1
			c0.2,0.4,0.2,0.5,0.2,1c-0.8-0.1-2.9-0.3-3.3-0.7C205.2,111,205,110.8,206,110.8z M184.8,110.9c0.5-0.1,1.3-0.1,1.9-0.1
			c0.8,0,0.9,0.2,1.4,0.6l-3.4,0.5L184.8,110.9z M197.5,111.9c-0.1-0.7-0.4-1-0.6-1.6c2,2.1,0.4,6.5-2.8,2.7
			c0.4,0.3,0.3,0.4,0.8,0.7C194.5,111.3,196.3,110.8,197.5,111.9z M198,110.2c-0.6-0.3-0.2,0.3-0.6-0.4c2.3,0.7,3,4.1,1,5.6
			c-2.3,1.7-5,0.2-5.2-1.8l0.4,0.9c0.5-0.2,0.5-0.2,0.7-0.5c0.3,0.2,0.8,0.5,1.2,0.7c-0.3,0.3-0.5,0.5-0.6,1
			c1.7,0.4,3.3,0.2,3.9-1.1c-0.3-0.4-0.6-0.4-0.8-0.8l1.1,0.5l0.2-0.6l-1-0.5c0.3-0.2,0.7,0.2,1.1,0c-0.3-0.2-0.7-0.2-1-0.3
			l-0.2-1.3l0.7-0.6c-0.2-0.3-0.3-0.3-0.5-0.5l-0.1,0.1c-0.5,0.4-0.3,0.4-0.5,0.2C197.7,110.6,197.9,110.5,198,110.2z M206.9,107.9
			l0.3,0.9c-0.4,0.3-0.8,0.6-1.3,0.9c-0.7,0.5-0.7,0.4-1.7,0.4L206.9,107.9z M185.8,108c0.4,0.2,1,0.7,1.4,1l1.3,1.1
			c-1.1,0.1-1,0.1-1.7-0.4c-0.5-0.3-1-0.5-1.3-0.9L185.8,108z M206.4,107.3c-0.3,0.3-0.7,0.6-1.1,0.9l-2.1,1.7
			c-1.2,0.7-2.3-0.2-1.1-1.4c0.3-0.3,3.7-1.6,4.1-1.6L206.4,107.3z M201.2,108c0.3-0.7,0.2-0.6,0.9-0.9
			C201.8,107.8,201.8,107.8,201.2,108z M202.7,107.3c0.4-0.5,0.3-1.2,2.5-1.9c0.3,0.2,0.4,0.5,0.5,0.8L202.7,107.3z M195.9,101.4
			c0.1-0.2,0-0.2,0.4-0.2c0.3,0,0.4-0.3,0.5,0.9c0.2,1.7,0.8,3.4-0.1,4.3c-0.5,0.5-0.8,0.1-1.1-0.4c-0.4-0.7-0.3-0.7-0.1-1.5
			C195.5,104.1,195.8,101.6,195.9,101.4z M203,103.4l0.8,0.5c-0.2,0.6-0.5,1-0.8,1.6c-0.5,0.9-0.6,0.6-1.2,1L203,103.4z
			 M199.2,107.3c-0.1-0.7-0.1-1.1,0.2-1.6l2.6-3.1c0.8,0.3,0.4,0.7-0.6,3c-0.3,0.7-0.3,1.1-0.8,1.4
			C200,107.5,199.7,107.8,199.2,107.3z M199.1,104.9c-0.2-1.4,0.6-2,1.1-3l0.9,0.4c-0.3,0.6-0.6,0.9-1,1.4
			C199.8,104.1,199.5,104.5,199.1,104.9z M197.4,101.3l1,0.2c0,1.7,0.3,1.9-0.5,3.1L197.4,101.3z M195.3,101.3l-0.5,3.2
			c-0.8-0.7-0.5-1.8-0.5-3.1L195.3,101.3z M194.2,106.1c0.3,0.2,1,1.4,1.2,1.8c0.2,0.3,1.1,1.6,1.1,1.8c0,0.8-3.1,3-3.4,1.8
			c0-0.8-2.4-4-2.9-4.8c-0.2-0.3-0.4-0.6-0.6-0.9c-0.2-0.3-0.4-0.5-0.6-0.9c-0.3-0.4-0.4-0.6-0.6-1c0,0.1-0.1,0.1-0.1,0.1l-0.6,0.8
			l0.1,0.8c0,0.1-0.1,0.1,0,0.1c0.4,0.5,0.7,0.4,1,0.7c0.3,0.2,0.5,0.7,0.7,1.1l-1.6-0.7c-0.5,0.3,0.4,0.1-1-0.1l0.5,0.5l2.4,1
			c0.6,0.3,1.4,1.3,0.8,1.8c-1.2,0.5-1.9-0.5-2.6-1c-0.7-0.5-1.4-1.1-2.1-1.7l0.2-0.5c-0.4,0.1-0.3,0.1-0.4-0.1
			c-0.7,0.5-1.3,2.7-1.5,3.7c-1.5,7.4,4.1,14.4,11.7,14.5c9.7,0.1,15.4-10.5,10.7-18.3c-0.4-0.6-1.2-1.8-1.7-2.3l-0.7-0.7
			c-2.1-1.8-4.8-2.9-7.7-3c-2-0.1-2.9,0.3-4.7,0.7c0.1-0.2-0.1,0,0.2-0.2c-0.4-0.1-0.6,0.1,0.5-0.3l0.7-0.2c0.1-0.1,0.2-0.1,0.3-0.2
			c-0.4-0.5,0.5-0.4-0.7-0.3c-0.3,0-0.5,0.1-0.8,0.2c-0.7,0.3-0.5,0.4-0.9,0.5H191c0-0.3-0.4-0.8-0.6-1.2c0,0.1-0.1,0.1-0.1,0.1
			c0,0.1-0.1,0.1-0.1,0.1c-0.1,0.5-0.3,0,0.9,1.9l1.8,2.7C193.5,105.5,193.8,106,194.2,106.1z"/>
		<path class="st0 fillable" d="M152.7,107.5l-0.6,0.5c-0.5-0.3-0.5-0.5,0-0.9L152.7,107.5z M161.8,108.1l0.2-1l3.1,0.8c0,0.9,0,1-0.2,1.8
			c-0.3,0.9,0.1,1.1-0.7,1.6c0.1-0.7,0.3-2.3,0-2.8l-0.3,1.2l-0.4-0.5c-0.4-0.8,0.3-1,0.7-1.2c-0.5-0.3-1.3-0.5-2-0.5L161.8,108.1z
			 M164.9,107.3c-0.3-0.5,0.2-0.1-0.4-0.5c1.6,0.2,1.2,0.3,1.2,0.7L164.9,107.3z M160,108.3c0-1,0.2-1.4,0.6-1.9l1,0.1l-0.4,1.4
			c0-0.6,0.3-1-0.2-1.3c-0.1,0.3-0.1,0.5-0.3,1C160.6,108.1,160.5,108.1,160,108.3z M161.9,105.2c0.3-0.7,0.9-0.6,0.5,0.2
			L161.9,105.2z M164.3,106.1c-0.1-0.3,0.2-1.2,0.4-1.7l1.3,0.4l-0.1,1.6l-0.8-0.1c0-0.8,0.2-1,0.5-1.4l-0.8-0.1
			C164.7,105.1,164.5,105.8,164.3,106.1z M160,93.2l0.1,0.6l-0.7,0.6c0.1-0.7,0.4-0.6,0.2-1.1c-0.1,0.1-0.2,0.4-0.4,0.5
			c-0.4,0.3-0.1,0.3-0.7,0.3c0.2,0.4,0,0.2,0.5,0.3c-0.3,0.1,0.4,0.2-0.3,0.1c-0.2-0.1-0.1,0-0.2-0.2c0.1,0.3,0,0.2-0.2,0.3
			c1.2,0.9,2,2.4,1.5,4l-0.2,0.5c-0.6,0.3-0.7,1-1.4,1.4c0.1,0.1,0.1,0,0.1,0.1l0.5,0.3c-0.2,0.3-0.3,0.2-0.1,0.6h0.2
			c-0.3,0-0.8-0.5-0.8,0.8c0,0.4,0.2-0.2-0.1,0.4l-0.3,0.4c0,0.1-0.2,0.2,0.2,0.5c0.4,0.2,0.7-0.1,0.9-0.4c-0.1,0.5-0.2,0.3,0.4,0.5
			v0.1c0.2,0.3,0.6,0.5,1,0.5c0,0.1-0.1,0.1-0.1,0.1l-0.2,0.2c0,0-0.1,0-0.1,0.1c-0.3,0.3-0.1,0.1-0.2,0.3v0.2
			c-0.5-0.1-0.3-0.1-0.9-0.4c0.2,0.4,0.5,0.4,0.8,0.5l-0.4,0.3c0,0-0.1,0-0.1,0.1c-0.5,0.4-0.2,0.2,0.2,0.3l-0.1,0.1l-0.5,0.4h-0.1
			c-0.5,0.3,0.7,0.3-0.4,0.2c-0.4,0-0.6-0.8-0.6-0.8c0-0.1,0-0.1-0.1-0.1c-0.2,0.9-0.8,0.9-0.9,1.8c-1.7-0.5,0.7,0.2-0.6-0.1h0.1
			l0.7,0.3c0,0-0.3,0.1-0.4,0.4c0,0,0,0.4,0,0.5c0,0.3-0.1,0.3-0.1,0.5c0,0,0.5,0.3-0.3,0.2c0.4,0.1,0.9,0.4,1.1,0.7
			c-0.8-0.2-1.2-0.5-1.9-0.7l-2-1.2c0.2-0.2,0.4-0.3,0.6-0.7l0.1-0.8c-0.4,0.3-0.1,0.1-0.3,0.5c-0.1,0.2-0.1,0.1-0.2,0.3
			c0.2-0.7,0.1-0.7,0.7-0.8h-0.1h-0.1h-0.1h-0.1c-0.3-0.1-0.3-0.3-0.4-0.5c0.2,0.1,0,0.3,0.6,0.1l0.3-0.2c-0.3-0.1-0.9-0.2-1-0.4
			c-0.1-0.1-0.1,0.1-0.1-0.4l-0.3,0.2c-0.2,0.1-0.4,0.5-0.9,0.2l-0.4-0.4l-1,0.7h-0.1l-0.5,0.3l0,0h-0.3c-0.1-0.6-0.3-0.9-0.4-1.5
			c0,0-0.8,0.1-0.3,0.5l-0.6-1.6c-0.3-0.7,0-0.3-0.5-0.5c-0.2,0.3-0.2,0.1-0.2,0.5c0,0.1,0.1,0.5,0.1,0.5l0.5,1.4
			c0.9,2.3,0.1,1.4,0.9,1.8l0.5-0.2c0,0,0.1-0.5,0.8-0.3c0.4,0.2,0.4,0.4,0.5,0.9l-0.2-0.2c-0.4-0.6,0.3,0.5-0.2-0.3
			c-0.2-0.3,0.1-0.4-0.3-0.1c0.1,0-0.1-0.5,0.2,0.1c0.2,0.5-0.1,0.5,0.3,0.9l0.4,0.3l-0.7,0.1h0.1l0.4,0.2l-2.3,1h0.1
			c-0.2,0.3-0.5,0.3-0.9,0.5h-0.1c-0.5,0.3-0.5,0.6-0.5,1c-0.2-0.1,0.2-0.1-0.4-0.1c-0.2,0-0.5-0.1-0.6,0.5v1.2
			c-0.6,0.1-0.7,0.2-0.8,0.7s0,1.3,0.1,1.7c-0.7-0.3,0.1,0.1-0.2-0.3c0,0-0.1,0-0.1-0.1l-0.2-0.1l-0.1-0.1c-0.6,0.5-0.4,1.3-0.4,2.4
			c0,0.9,0,1.9,0,2.8l0.5,0.7v-2.4c0.8,0.9,0,0.2,0.6,0.4c-0.2,0.6,0,0.5,0,0.9c0,0.7,0,0.2-0.3,0.7h0.8c-0.6-0.1-0.3-0.1-0.5-0.2
			c0.1-0.5-0.1-0.7,0.2-1.3l0.3-0.5c1,0.1,1,0.1,1.1-0.2c-0.1-0.5-0.2-0.1,0.1-0.4l0.1-0.1c0.8-0.3,0-0.1,0.3,0v-6.7
			c0.5-0.4,2.3-1.1,3-1.4c1-0.5,1.7-0.7,3.2,0.3l-0.7-0.2c-0.1,0.6-0.3,0.5-0.1,0.8c0.7,0.3,0.8,0.6,1.2,0.8c0,0,0.2-0.2,0.2-0.3
			l0.1-0.1l0.3-0.4c0,0,0,0,0-0.1v-0.1c1.2,0.5,2.6,0.6,2.4,2.3l0.1-0.1l0.1-0.4c0.1-0.7-0.5-0.7,0.4-1.4c0.2,0.6-0.2,0.1,0.1,0.7
			l0.1,0.1v-0.1l0.4-0.4c0,0,0.1,0,0.1,0.1c0.1,0.1,0.5,0.2,0.7,0.2l-0.2,0.3c-0.1,0.2-0.1-0.1,0,0.8c-0.1,0-0.2-0.1-0.2,0l-0.2-0.1
			c0.1,0.6,0.1,0.2-0.1,0.6c0.3,0,0.3-0.1,0.3,0.3c0,0-0.5-0.1,0.1-0.3h0.1h0.1c0,0,0,0,0,0.1s-0.1,0.1-0.1,0.1s0,0.1-0.1,0.1
			c-0.3,0.7-0.5,0.7-0.6,1.5c0.5-0.1,0.3,0,0.5-0.2l1.6-2.7c-0.4,0.1-0.8,1.4-1.2,1.8c0.3,0.6-0.2,0.1,0.3,0.4c0,0,0.2,0,0.3,0
			c-0.1,0.4-0.1,0.3-0.1,0.5v-0.1c0.5,0.1-0.3-0.3,0.1,0.1c-0.1-0.5,0-0.5,0-0.6c0.1-0.2-0.1-0.1,0.3-0.2h0.1l0.2,0.1
			c0.5,0.5,0.1,0.2,0,0.5l-0.1,0.1c0,0,0,0.1-0.1,0.1l-0.3,0.2c0.1,0.8,0.1,0.6,0.4,1.1c0.1,0.2,0.1,0.3,0.2,0.4l0.4,0.7l0.1-0.9
			c0-0.1,0-0.1,0.1-0.1l0.4,0.6c0.1-0.2,0.1-0.4,0.2-0.6c0.3,0.6,0,0.1,0.2,0.3l0.1-0.4c0.4-0.4,0.7-0.1,0.8-0.9
			c0-0.5-0.3-1-0.3-1.6c0.2-0.1,0.1-0.1,0.3-0.2s0.1-0.1,0.4-0.3c0.9,1.1,0.5,2.7-0.2,3.7c1.4-0.2,0.7,0.2,1.2,0.3l-0.1-0.1v-0.1
			c0.1-0.5,0.4-0.5,0.6-0.5h-0.1h-0.3c-0.6-0.3,0,0.2-0.2-0.3l-0.1-0.3v-0.1c0-0.9,0.3-0.1,0.1-0.9c0.7,0.2,0.1,0.2,0.9,0.1
			c0,1.3,0,0.6,0.4,0.9c0.1-0.3,0.1-0.5,0.3-0.8c0.1,0,0.1-0.1,0.1,0h0.1c0.2,0.6,0-0.4,0,0.2c1.1-0.8,1.2-6.8,1.4-8.6
			c0.3-3.1,0.5-6.2,0.7-9.4c-0.2,0.1-0.1,0-0.4,0.1c0.3-0.8,0.5-1-0.5-1l-0.8-0.2c-0.3,0.2-0.1,0.9-0.6,1.5l0.5,0.3
			c-0.9-0.4-1.4-0.5-2.1-1c0-0.9,0.2-0.7,0.3-1.4c-0.2-0.1-0.2-0.1-0.2-0.1c-0.1-0.1-0.4-0.2-0.5-0.2h0.1h-0.1
			c0.6,0.9-0.7,0.6-0.1,1.5c-0.4-0.1-0.9-0.2-1-0.6c-0.2-0.4-0.1-0.4,0-0.7c0.2-0.4,0.2,0.1,0.2-0.7c-0.3-0.1-0.5-0.3-0.9-0.4
			c-0.2-0.1-0.3-0.1-0.4-0.2c-0.3-0.2-0.2-0.1-0.4-0.3l-0.8-0.4c-0.1,0.1-0.2,0-0.2,0.1C160.1,93,160,93.2,160,93.2z"/>
		<path class="st0 fillable" d="M89.1,120.3c-0.4-0.3-0.3-0.3-0.6-0.7l3.1-1.3c-0.3,0.7-0.2,0.9-1,1.2C90.1,119.7,89.6,120.1,89.1,120.3z
			 M91.5,115.6c0.3,0.2,0.2,0.1,0.5,0.5c0.7,1.1,0.4,1.1-0.6,1.4c-0.9,0.4-1.9,0.8-2.9,1.1c-0.6,0.2-1-0.1-0.5-0.6
			C88.6,117.7,91.1,115.8,91.5,115.6z M87.4,117.7l-0.3-0.9c0.4-0.3,0.9-0.6,1.3-0.8c0.8-0.5,0.6-0.5,1.7-0.4
			C89.9,115.9,87.8,117.5,87.4,117.7z M86.5,113.8l3.2,0.6l0.1,0.1c-1.1,0.4-0.4,0.5-2,0.4C86.7,114.9,86.4,115.1,86.5,113.8z
			 M86.4,112.6c0.2-0.1,4.4-1,4.6-0.5c0.1,0.1,0.1,0.5,0.1,0.8c-0.1,1.1-0.2,0.9-2.5,0.6c-0.5-0.1-2-0.2-2.3-0.5v-0.4H86.4z
			 M86.6,110.9c0.6-0.1,1.2-0.1,1.8-0.1c0.9,0,0.8,0.2,1.4,0.4c-0.2,0.1,0.2,0-0.4,0.2l-3,0.5L86.6,110.9z M87.4,107.9l2.7,2.2
			c-1,0-1,0-1.8-0.5c-0.4-0.3-0.9-0.5-1.3-0.8L87.4,107.9z M88.9,105.4c0.7,0.1,1.1,0.5,1.6,0.8c0.6,0.3,0.7,0.5,1,1.2l-3-1.2
			L88.9,105.4z M90.1,121.9c-0.5-0.5-0.4-0.1-0.4-0.8c-0.1-0.3,0.2,0.1-0.1-0.3c0.4-0.2,0.5-0.2,0.8-0.6l0.3,0.1
			c0.2-0.4,0.2-0.1,0.4-0.4c0.9,0.5-0.3-0.5,0.1,0.3l0.1,0.1c0,0,0,0.1,0.1,0.1c0.3-0.9-0.2-0.4,0.3-0.7c0.1-0.5,0.1-0.1,0.1-0.1
			l1-0.5l-1.1,2.9c0,0,0.1,0,0.1,0.1l0.5,0.5c0.4-0.8,1.3-3.7,1.7-4.1c0.7-0.1,0.6,0.3,1.4,0.5c0-0.4,0.2-0.1-0.5-0.3
			c0.7-0.4,0.2,0.1,0.4-0.3c0-0.1,0.5,0-0.6-0.7l-2-2.6V115c0,0,0-0.1-0.1-0.1c-0.4-1.1-0.5-2.3-0.2-3.5c0.1-0.3,0.3-1,0.5-1.3
			c0.4-0.8,0.5-0.3,0.7-1.4c-1.1,0.3-0.5,0.5-0.5,0.5l-0.3-0.7c0-0.1,0-0.1-0.1-0.1c0,0.5-0.3,1.1-0.7,1.5c-0.6,0-0.7-0.3-1.1-0.6
			c-0.7-0.5-2.4-1.7-2.6-2.3l0.2-0.3c0.6,0.1,3.7,1.4,4.3,1.7c0.1-0.3-0.1-0.1,0.1,0.1l-0.1,0.3c-0.1-0.7,0-0.5-0.3-0.9
			c-0.4-0.7-0.1-0.5-0.1-0.5c-0.1-0.4-0.1-0.1,0.2-0.2l0.5-0.2l-0.5-0.4l0.1-0.1l-0.1-0.4c-0.2,0.3,0.3,0.4-0.5,0.1
			c-0.2-0.1-0.3-0.2-0.5-0.3c-0.2-0.2-0.4-0.7-0.5-1c0-0.3-0.1-0.7-0.3-0.8c-0.3-0.2-0.4,0.2-0.7,0.1c-0.1-0.2-0.1-0.1-0.1-0.4
			c-0.9,0.2-2.5,2.9-2.9,3.6c-1.7,3.4-1.6,7.4,0,10.8C87.7,119.5,89.2,121.6,90.1,121.9z"/>
		<path class="st0 fillable" d="M123.8,117.5c-0.3-0.5-0.2-0.9-0.2-1.5c0.4,0.2,0.8,1,0.9,1.5H123.8z M121.5,117.9c-0.1-0.4,0-0.7,0.1-1.1
			c0.3-1.5,0.2-2.4,0.3-3.7c0.6,0.8,0.5,1.4,0.3,2.5c-0.1,0.4-0.1,0.9-0.2,1.3C121.8,118.2,122,117.8,121.5,117.9z M128.3,110
			c0.5-0.2,0.5-0.3,1.1-0.5c0.3,0.5,0.6,0.7,0.7,1.3l-1.6-0.2C128.4,110.1,128.5,110.3,128.3,110z M126.4,109.7
			c-0.6,0.2-0.1,0-0.2,0.4c0,0.2-0.1,0.2,0.2,0.3l1.5,0.3c0.8,0.1,0.7,0.2,1,0.5c-1,0-3.1-0.3-4.1-0.5l-3.9-0.5
			c-0.2,0.6,0.7,0.6,0,0.4c0,1.3,0,2.7,0,4.1l-0.3,2.8c-0.1,0.7,0.1,0.4-0.4,0.7c1,0,1.9,0,2.9,0c1.1,0,1.8-0.1,2.9-0.1h-0.3
			l-0.1-0.1c-0.1-0.5-1.6-2.9-2-3.5c-0.8-1.5-2.1-3-1.6-3.8c0.7,0.4-0.2-0.1,0.5,1c0.2,0.4,0.3,0.6,0.5,0.9l2.5,4.3
			c0.1,0.1,0.1,0.3,0.2,0.4l0.2,0.3c0.5,0.1,0.4,0.4,0.2-0.3c0-0.3-0.3-0.9-0.6-1.1c-0.2-0.3-0.4,0.4-0.1-0.4c0.1-0.4,0-0.1,0.3-0.4
			c-1.1,0.2-0.5,0.3-0.8-0.4c0.5-0.1,0.9-0.3,1.1-0.6c0.6,0.2,0.3,0.1,0.7,0.6l0.1-0.3l0.1-0.5c0.4-0.3,1.8-1.1,2.4-1.3
			c-0.2,0.5-0.4,0.7-0.4,1.2l0.3,0.1c0.2-0.2,0.9-2.3,3.2-2.2l1.2,0.3c0,0,0.1,0,0.1,0.1l0.6,0.4c1.5,1.3,1.2,2.9,0.5,4.2l-0.2,0.5
			c0,0.1,0,0.1-0.1,0.2c0.5-0.2,0.2-0.1,0.5-0.3l0.3-0.3c0.5-0.4,0.7-1.8,0.5-2.6c-0.1-1-0.6-1.4-1.1-2c0.1-0.2,0-0.1,0.2-0.2
			l0.4-0.3c-0.2-0.8,0.1,0-0.2-0.2c-0.3-0.1-0.1,0-0.1,0s0,0-0.1,0c-0.9,0.3-0.4,0.4-1.3,0.1c-0.6-0.3-0.9-0.2-1.5-0.3l1.6-1
			c0.4-0.7,0.4-0.3-0.1-0.3c-1,0.1-1.8,1.3-3,1.1c-0.3-0.1-0.9-1.4-0.9-1.7l2-1c0.1,0.4,0.8,1.4,1,1.6c-0.1-0.4-0.5-1.4-0.8-1.7
			l0.4-0.4c0-0.5,0-0.2-0.3-0.2c-0.5,0-0.3,0.1-0.3,0.1c-0.2,0.2-0.1,0.2,0,0.1c0.3-0.3,0.2,0,0.3-0.5c-1.4,0.5-4.5,2.7-5.6,2.7
			C126.6,109.9,126.4,109.8,126.4,109.7z"/>
		<path class="st0 fillable" d="M153.5,115.3c1.1-0.7,1.5-2.3,0.4-3.7c-0.2-0.2-0.2-0.1-0.1-0.2l0.4-0.1c0.2-0.1-0.1-0.3,0.2,0
			s0.9,1.5,0.6,2.7l-0.5-0.1C154.3,114.6,154,115,153.5,115.3z M150.2,112.1c0.4-0.1,0,0.1,0.4-0.3c0.7-0.6,1.6-1,2.6-0.5
			c0.3,0.2,0.8,0.7,1,1c0.3,0.6,0.2,1,0.1,1.6c0-0.5,0.1-0.9-0.6-0.5c-0.3,0.2-0.3,0.7-0.3,0.9c0.5,0.2,0.4,0.5,0.7-0.1
			c-0.5,0.9-1.4,1.4-2.8,0.9c0.8,0.3,2.7,0.3,1.4-0.7l0.3-0.1l0.1-0.1l-0.1-0.1c-0.4,0.3-0.5,0.2-1,0.2c0.9,0.2,0.3-0.1,0.7,0.4
			c-1,0-0.6-0.1-1.5-0.5c0.1,0.4,0.1,0.1-0.1,0.3l-0.3,0.4c-0.1-0.3-0.1-0.1-0.5-0.4c-0.1-0.1-0.1-0.1-0.2-0.2c0,0-0.1,0-0.1-0.1
			c0,0,0-0.1-0.1-0.1c0.3,0.5,0.2,0.3,0.6,0.7c0.3,0.3,0.5,0.5,0.9,0.6c0.9,0.3,1.5,0.1,2.2-0.3c-1,0.5-1.1,0.3-1.6,0.7
			c0.5,0.3,0.9,0.1,1.4,0L153,116l-1.2,0.1l-0.1,0.6c0.1,0,0.1-0.1,0.1-0.1c0,0.1,0.1-0.2,0.4-0.2l0.3,0.1c0.4,0,1.1-0.1,1.4-0.3
			c0.6-0.3,0.5-0.3,0.9-0.8c0.3,0.5,0,0.2,0.4,0.3c0.1,0,0.2-0.1,0.3-0.1c0.2-0.1,0.2-0.1,0.3-0.2c0.2-0.1,0.3-0.3,0.4-0.5
			c0.2-0.3,0.2-0.3,0.3-0.7h-0.1l-0.2-0.1c-0.9-0.3-0.4-0.1-0.6-0.3c-0.5,0.3-0.2-0.2-0.5,0.6c0.4-1.1,0.3-2.2-0.3-3.2
			c-0.5-0.8-0.6-0.7-1.4-1.2c-1.4-0.3-1.4-0.3-2.7,0.1c-0.2-0.6-0.3-0.8-0.9-0.5l0.1,0.8c0,0.1,0,0.3,0,0.3l-0.1,0.3
			c-0.4,0.6-0.5,0.6-0.7,1.5c0.6-0.5,0.3-0.9,1-1.4C150.3,111.6,150.3,111.7,150.2,112.1z"/>
		<path class="st0 fillable" d="M95.7,103.8c1.1-0.1,3.6,0,5,0c1.8,0,1.2-0.1,1.3,0.3c-0.3,0.4-4.2,0.3-4.8,0.3c0.7,0.1,1.6,0.1,2.4,0.1
			c0.6,0,1.5-0.1,2.1,0.1c0,0,0.1,0.1,0.1,0c0,0,0.1,0,0.1,0.1h-6.5L95.7,103.8z M98.9,105h0.7h2.5c0.4-0.8,0.3-1.7,0-2.4h-7.3
			c0.2,0.3,0.6,0.5,0.6,1.1c0,0.7-0.4,0.9-0.6,1.3H98.9z"/>
		<path class="st0 fillable" d="M124.6,104.8h7.5c0.7,0,2.1,0.2,2.7-0.1l-7-0.2l5.5-0.1c0.5,0,1.4,0.1,1.6-0.2c-0.1-0.4,0.1-0.4-1.1-0.4h-9
			L124.6,104.8z"/>
		<path class="st0 fillable" d="M150.8,98.5c0-1.2-0.1-1.7,0.7-2.2c1.2-0.7,1.7,0.4,2.1,0.6c0.6,0.7-0.1,1.6-0.3,2.2c0.2-0.1,0.5-0.3,0.7-0.5
			c0.1-0.1,0.2-0.3,0.2-0.5c0.4-0.1,1.2,0.2,1.5-0.1c0.3-0.2,0,0.1,0.2-0.2c0.1-0.1,0.1-0.2,0.1-0.3c0-0.3,0-0.2-0.1-0.3
			c0,1.4-0.1,1.8-0.8,2.9c-0.3,0.4-0.2,0.5-0.5,0.7l0.3,0.1c0.4-0.2,0.4-0.3,0.6-0.7c0.6-1.1,0.9-1.3,0.9-2.7c0-0.6,0.1-0.7-0.3-1.1
			c-0.5,0.5,0.4,0-0.2,0.1h-0.1c-0.1,0.5-0.1,0.6-0.6,0.7c-0.3,0.1-0.9,0.1-1.1,0c-0.1-0.3-0.1-0.5-0.1-0.8
			c-0.2-0.9-1.2-1.4-2.4-1.2c-0.7,0.1-1.1,0.7-1.2,1.3v0.8C150.2,98.7,150.7,98.5,150.8,98.5z"/>
		<path class="st0 fillable" d="M161.1,93.3c0.2,0.2,0.1,0.2,0.4,0.3c0.2,0.1,0.3,0.1,0.4,0.2c0.4,0.1,0.5,0.3,0.9,0.4
			c-0.2-0.3-0.1-0.1,0.1-0.1c0.1,0.1,0.8,0.5,0.9,0.6h0.1h0.2c0.1,0,0.4,0.1,0.5,0.2c1.2,0.3,1.5,0.8,2.1,0.7l0.8,0.2
			c0.6,0.2,0.5,0.2,0.8,0l-0.7-0.5c0.4-0.3,0.3-0.3,0.3-0.9c-0.3,0.3-0.1-0.4-0.3,0.6l-0.8-0.2c0-0.3,0.2-0.7,0.2-0.8l-0.8-0.2
			c0.4,1.2-0.1,0.7-0.2,0.7c0,0,0.1,0.6,0.1-0.3c0-0.1,0-0.3-0.1-0.4c-0.8,0-0.7-0.1-1,0.2c-0.5-0.1-0.2,0-0.4-0.3
			c-0.5,0-0.8-0.4-1.1-0.2v0.1l0,0c-0.7-0.3-0.7-0.5-1.4-0.5l-0.5,0.1h-0.1h-0.4V93.3z"/>
		<path class="st0 fillable" d="M141.9,92.8l0.1,0.3l-1.3,0.4l-0.1-0.9c-0.5,0.1-0.2,0-0.6,0.2l-0.3,0.1c-0.3,0.1-0.2,0.1-0.3,0.2l0.2,0.9
			c-1,0.4-0.4-0.3-1.4,0.1c-0.2,0.6-0.1,0,0,0.7h-0.9c0.3,0.3,0,0.3,0.5,0.2l1.8-0.6c-0.2,0.3,0.1,0.1-0.4,0.4l-0.9,0.4
			c-0.2,0.4-0.4-0.3,0.1,0.2c0.3-0.2,0.3-0.2,0.6-0.3l0.3-0.1c0.3,0,0.1-0.2,0.2,0.1c0.4-0.1,0.2-0.1,0.5-0.2c0.1,0,0.2-0.1,0.3-0.2
			c0.3-0.1,0,0,0.2-0.2c0.2-0.1-0.1,0,0.3-0.2c0.8-0.4,0.5,0,0.6,0l0.2-0.1c0.3-0.2,2.4-1.2,2.4-1c0.3-0.2,0.3-0.1,0.3-0.5
			c-0.4-0.1-0.8-0.5-1.1-0.1c-0.5,0.6-0.1,0.1,0,0.1c0,0,0,0,0.1,0l-0.9,0.3c-0.1,0,0,0.1-0.1,0.1l0,0c0,0,0,0,0-0.1
			s-0.1,0.1,0.1-0.4L141.9,92.8z"/>
		<path class="st0 fillable" d="M105.2,122.2c0.8,0,6.2,0.1,6.4-0.1l-3.7-0.1c0.6-0.2,3.2-0.2,3.8-0.2v-0.4h-6.3L105.2,122.2z"/>
		<path class="st0 fillable" d="M136.8,95l-0.1-0.6l0.7-0.3l0.2,0.6C137.3,95,137.2,95,136.8,95z M136.8,95l0.1,0.4v0.1v0.1v0.1l0.1,0.4
			l0.9-0.3c-0.1,0.3,0.3,1.1,0.5,1.5l0.9-0.4c-0.1-0.1-0.3-0.1-0.4-0.2c-0.1,0-0.3-0.3-0.3-0.3c-0.2-0.4-0.1-0.5,0-0.9
			c-0.5-0.5-0.3,0.2-0.1-0.2l0.9-0.4c0.5-0.3,0.2-0.1,0.4-0.4l-1.8,0.6c-0.5,0.1-0.2,0.1-0.5-0.2h0.9c-0.1-0.7-0.2-0.1,0-0.7
			c1-0.3,0.3,0.3,1.4-0.1l-0.2-0.9c-0.6,0.2-2.5,1.1-2.9,1.4L136.8,95z"/>
		<path class="st0 fillable" d="M156,107.4c-0.3-0.1-0.3-0.1-0.5-0.3c-0.2-0.1,0.1,0-0.3-0.1c0,0-0.2-0.1-0.3-0.1v0.4l0.7-0.1
			c-0.1,0.8-0.2,0.6-0.6,1.4c-0.7-0.5-0.7,0.2-0.7-0.8l-0.2,0.3c0,0,0,0.1-0.1,0.1l0.3-1.1c0,0,0.1,0,0.1-0.1c0.1-0.2,0.1,0,0.2-0.5
			h-0.5c-0.6,0.1-0.5,0.2-0.7,0.8c0.1-0.1,0.1-0.1,0.2-0.3c0.2-0.4,0-0.2,0.3-0.5l-0.1,0.8c-0.1,0.4-0.4,0.5-0.6,0.7l2,1.2
			c0.7,0.2,1.1,0.5,1.9,0.7c-0.2-0.3-0.7-0.6-1.1-0.7c0.8,0.1,0.3-0.1,0.3-0.2c0-0.2,0-0.3,0.1-0.5c0-0.1,0-0.5,0-0.5
			c0.1-0.3,0.4-0.4,0.4-0.4L156,107.4z"/>
		<path class="st0 fillable" d="M195.8,113.1c-0.1-0.6,0-0.7,0.6-0.8c0.4,0.2,0.5,0.3,0.5,0.8l-0.2-0.5C196.1,113.2,196.3,112.8,195.8,113.1z
			 M195.4,112.6c0,0,0.2,1.7,1.4,1c0.2-0.1,0.8-1-0.2-1.6c0.9,0.1,0.7,0.3,1,1.1c0.2-2.9-3.7-1.6-2.5,0.4c0.4,0.7,0.7,0.5,1.3,0.6
			C195.4,113.9,195.3,113.8,195.4,112.6z"/>
		<path class="st0 fillable" d="M149.7,106.9c0.3,0.7,0.7,0.3,0.6,1.4L150,108c0,0.7,0.1,0.3-0.6,0.7c-0.7-1-0.5-1-1-1.4
			c0.1,0.6,0.3,1.1,0.7,1.5l-0.4-0.2l-0.1-0.1c-0.1,0.3,0.2,0-0.6-0.5l0.1,0.9c-0.3,0.2-0.1,0.2-0.3,0l-0.1-0.2l-0.2-0.2
			c0.2,0.8,0.3,1,1.1,0.9l2.3-1l-0.4-0.2h-0.1l0.7-0.1l-0.4-0.3c-0.4-0.4-0.2-0.4-0.3-0.9c-0.3-0.6-0.1-0.1-0.2-0.1
			c0.5-0.3,0.2-0.1,0.3,0.1c0.5,0.8-0.3-0.3,0.2,0.3l0.2,0.2c-0.1-0.5-0.1-0.7-0.5-0.9C149.8,106.4,149.7,106.9,149.7,106.9z"/>
		<path class="st0 fillable" d="M150,114.3L150,114.3c0.1,0.1,0.1,0.1,0.1,0.1c0.1,0,0.1,0.1,0.2,0.2c0.4,0.3,0.3,0.1,0.5,0.4l0.3-0.4
			c0.2-0.3,0.2,0.1,0.1-0.3c0.9,0.4,0.5,0.5,1.5,0.5c-0.5-0.5,0.1-0.2-0.7-0.4c-0.4-0.2-0.7-0.4-0.9-0.9l0.2-0.1
			c0.5-0.3,0.6-1.6,1.7,0l0.2,0.2c0.1-0.8,0.1-1.2-0.7-1.4c-0.8-0.2-1.2,0.3-1.3,0.9c-0.3-0.4-0.1-0.3-0.3,0.5l-0.8,0.3
			c-0.1-1.1-0.1-0.7,0.1-1.4c0.1-0.5,0.1-0.2,0.1-0.5c-0.3,0.1-0.1-0.3-0.3,0.3l-0.1,0.6C149.7,113.7,149.7,113.9,150,114.3z"/>
		<path class="st0 fillable" d="M97.1,112.1c0.5-0.7,0.7-0.3,1.2-0.7c-1.6,0-2.3,1.4-1.4,2.4c0.7,0.7,2.6,0.4,3.3-0.1
			c-0.4,0.2-0.7,0.2-1.2,0.3l0.5-0.8c-0.5,0.2-0.1,0.4-0.8,0.7c-0.5,0.2-0.7,0.1-1.1,0c0.8,0.1,1.3-0.2,1.3-1c-0.2,0.7-1,1-1.4,0.4
			c-0.2-0.2-0.6-1.2,0.9-1.3C97.8,111.9,97.6,111.9,97.1,112.1z"/>
		<path class="st0 fillable" d="M133.9,107l-0.6,0.3l1.1,1.6l1-0.5c-0.1-0.4-0.5-1.2-0.8-1.6C134.2,106.8,134.3,106.8,133.9,107z"/>
		<path class="st0 fillable" d="M145.3,95.6c0.5-0.3,1.3-0.8,2.2-0.8c0,0.1,0.1,0.3,0.1,0.4l0.2,0.5c0.1-0.2,0.1-0.2,0.1-0.5l-0.2-0.7l-1,0.1
			c0.4-0.1,0.7-0.3,1.2-0.3l0.2,0.5c0.6-0.7,0.6-1,1.8-1.7c-1,0-3.1,0.9-3.8,1.5C145.9,95,145.7,95.6,145.3,95.6z"/>
		<path class="st0 fillable" d="M126.8,107.5c-0.9,0.5-0.3,2,0.9,1.4c0.6-0.3,0.5-1.4-0.1-1.5c-0.2-0.1-0.2-0.1-0.4,0
			C126.7,107.5,126.8,107.5,126.8,107.5z"/>
		<path class="st0 fillable" d="M121.5,105.2c0.2,0.1-0.3,0.1,0.4,0.1c0.1,0,0.3-0.1,0.4-0.1c1.3-0.5,1.4-0.2,1.4-1.2c-0.4,0-0.8,0-1.2,0.1
			c-0.7,0-0.7-0.1-0.8,0.5c0.4,0.3,0,0.2,1.1,0.1l-0.1,0.1C121.7,105.1,121.8,104.7,121.5,105.2z"/>
		<path class="st0 fillable" d="M144.2,111.3l0.7,0.1c0.2-0.2,0.1,0.2,0.2-0.5c0.2,1.5,0,0.2-0.4,1.1c0.7,0.3,0.7-0.1,0.6,0.5l0.2-2.1
			C144.6,110.5,143.6,110.3,144.2,111.3z"/>
		<path class="st0 fillable" d="M145.8,103.4c0.1-0.2,0,0.2,0.1-0.3c0.2,0.4,0.1,0.3,0.5,0.3c0.4-0.7,0.1-0.3-0.2-0.9
			c-0.2-0.7,0.2-0.9-0.7-0.9C145.1,102.3,145.4,102.4,145.8,103.4z"/>
		<path class="st0 fillable" d="M124,108.1c0.2,0.7,0.4,0.8,0.6,1.4l0.8-0.3l-0.6-1.4L124,108.1z"/>
		<path class="st0 fillable" d="M208.4,107.9c-0.2,0.1-0.3,0-0.5,0.1l0.6,1.7l0.1-1.2c0.2-0.1,0-0.1,0.3-0.1l0.3,0.1
			c-0.1-0.7-0.6-1.3-0.8-1.8L208.4,107.9z"/>
		<path class="st0 fillable" d="M169.1,112.8c0.4,0.4,0.2,0.8,0.1,1.4c0.7-0.1,0.8-0.4,0.6-1.2c-0.1-0.6-0.3-0.7-0.9-0.9
			C169.5,112.7,169,112.4,169.1,112.8z"/>
		<path class="st0 fillable" d="M98.5,112.4c-1.6-0.3-1.2,1.5,0,0.8V112.4z"/>
		<path class="st0 fillable" d="M131.7,115.3c0.2-0.5,0.1-0.3,0.5-0.9c0.5-0.1,0.6-0.2,0.9,0.2C133,113.4,131.1,113.9,131.7,115.3z"/>
		<path class="st0 fillable" d="M154.8,111.5c0.3,0.3,0.4,0.6,0.6,1c0.1-0.9,0.2-0.8,0.4-1.5c0,0,0.1,0,0.1-0.1l-0.4-0.2l-0.1,0.6
			C154.7,111.2,154.8,111.3,154.8,111.5z"/>
		<path class="st0 fillable" d="M158.9,112.6c0.2-0.4,0.2,0.1,0.1-0.6c-0.4-0.2-0.9-0.3-0.9,0.3C158.1,113,158.6,112.7,158.9,112.6z"/>
		<path class="st0 fillable" d="M143.7,111.8c-0.2,0.3-0.1,0.4,0,0.7c0.2,0,0.4,0,0.6-0.2l0.2-0.3c-0.2-0.3,0-0.3-0.4-0.3
			C143.9,111.6,143.9,111.7,143.7,111.8z"/>
		<path class="st0 fillable" d="M146,110.1l0.2,0.4c0.4-0.1,0.9-0.2,0.7-0.8C146.4,109.5,146.2,109.7,146,110.1z"/>
		<path class="st0 fillable" d="M156.6,121.2c-0.6-0.4-1.1,0-0.8,0.6C155.9,122,156.6,121.9,156.6,121.2z"/>
		<path class="st0 fillable" d="M152,107.1c-0.5,0.4-0.5,0.6,0,0.9l0.6-0.5L152,107.1z"/>
		<path class="st0 fillable" d="M148.2,111.3l0.5,0.3c0.4-0.3,0.5-0.4,0.2-0.8C148.4,110.8,148.3,111,148.2,111.3z"/>
		<path class="st0 fillable" d="M169.3,69.6c-0.2-0.5-0.2-0.7-0.7-0.8c0.1,0.2,0.1,0.4,0.2,0.5C169,69.7,169,69.6,169.3,69.6z"/>
		<path class="st0 fillable" d="M161.3,66.1c0.6,0.1,0.6-0.5,0-0.5C161.1,66.1,161.1,65.7,161.3,66.1z"/>
		<path class="st0 fillable" d="M101.6,116.4l-0.3-0.6l-0.3,0.3c0.1,0.2-0.1,0,0.3,0.2C101.3,116.3,101.5,116.4,101.6,116.4z"/>
	</g>
</g>
</svg>
