<?xml version="1.0" encoding="utf-8"?>
<!-- Generator: Adobe Illustrator 24.0.2, SVG Export Plug-In . SVG Version: 6.00 Build 0)  -->
<svg version="1.1" id="Слой_1" xmlns="http://www.w3.org/2000/svg" xmlns:xlink="http://www.w3.org/1999/xlink" x="0px" y="0px"
	 viewBox="0 0 238.1 150.2" style="enable-background:new 0 0 238.1 150.2;" xml:space="preserve">
<style type="text/css">
	.st0{fill-rule:evenodd;clip-rule:evenodd;fill:#373435;}
</style>
<g id="Слой_x0020_1">
	<g id="_2394566742512">
		<path class="st0 fillable" d="M100.9,143.1c1-1.7-1.6-2.9-2.4-1.6C97.3,143.4,99.9,144.7,100.9,143.1z"/>
		<path class="st0 fillable" d="M106.2,136.4c-1.5-1.1-2.9-0.1-2.2,1.2C104.5,138.9,106.6,138.5,106.2,136.4z"/>
		<path class="st0 fillable" d="M114.5,36.3l0.4,1.4l1.2,0.1l0.7-0.5C116.8,35,115.7,35.5,114.5,36.3z"/>
		<path class="st0 fillable" d="M130.9,32.3c0.4,0.1,1.1,0.2,1.7,0.2c0.2-0.6,0.4-0.9,0.2-1.7c-0.7-0.5-1.3-0.4-2,0.1
			C130.8,30.9,130.9,32.3,130.9,32.3z"/>
		<path class="st0 fillable" d="M120.7,117c1,0,0.9-0.1,1.4-0.5l-0.1-1.4C120.3,114.5,119.2,115.7,120.7,117z"/>
		<path class="st0 fillable" d="M99.3,58.8c1.4-0.1,1.5-0.5,1.2-1.8l-1.3-0.2C98.6,57.8,98.5,57.9,99.3,58.8z"/>
		<path class="st0 fillable" d="M148.6,63.8c0.3-0.8,0.3-0.6,0-1.4C146.4,61.9,146.4,64.4,148.6,63.8z"/>
		<path class="st0 fillable" d="M126,20.3c-0.1,0.2-0.3-0.4-0.2,0.6c0.1,1.1,1,0.8,1.3,0.5C127.6,20.8,127.2,19.8,126,20.3z"/>
		<path class="st0 fillable" d="M110,132.7l1.1-0.2l-0.1-1.3C109.4,130.8,109.6,132,110,132.7z"/>
		<path class="st0 fillable" d="M143.1,5.5l0.1-0.9c0,0-1.3-0.8-1.4,0.4C141.8,5.2,142,6.1,143.1,5.5z"/>
		<path class="st0 fillable" d="M142,62.5c-0.1,1-0.1,1.7,1.1,1.2c0.4-0.7,0.3-0.3,0-1L142,62.5z"/>
		<path class="st0 fillable" d="M111.1,104.9L111.1,104.9l-1.2-0.1c-0.1,0.8-0.2,1.2,0.5,1.3C111.2,106.2,111,105.5,111.1,104.9z"/>
		<path class="st0 fillable" d="M136.5,21.2c0.7,0.6,0.6,0.6,1.3,0l-0.1-1l-0.9,0L136.5,21.2z"/>
		<path class="st0 fillable" d="M126.9,111.2l0.1-1.1C125.1,109.9,125.6,111.5,126.9,111.2z"/>
		<path class="st0 fillable" d="M142.2,89.9c0,0,0.3,0.4,0.7,0c0.6-0.7-0.1-0.9-0.1-0.9C142,89.2,141.8,89.1,142.2,89.9z"/>
		<path class="st0 fillable" d="M120.7,63.4C122.7,64.7,121.1,60.9,120.7,63.4z"/>
		<path class="st0 fillable" d="M115.2,90c1.3,0.1,1.8-0.8,0.1-0.9L115.2,90z"/>
	</g>
	<g id="_2394566737040">
		<path class="st0 fillable" d="M102.5,68.6c0.4,0.6,0.1,0.3,0.8,0.7l3.1,1.4c0.5-0.6,1.3-1.2,1.1-2.5c-0.1-0.8-0.7-1.7-1.4-2
			C104.2,65.2,102.7,66.8,102.5,68.6z"/>
		<path class="st0 fillable" d="M123.8,73.9c0.5,0.7,0.6,1.5,1.3,1.9c0.8,0.5,1.9,0.5,2.7,0c2-1.1,0.9-3.2,0.3-4.4l-0.7,0.4
			c0,0-0.4,0.3-0.4,0.3l-1,0.6c-0.1,0-0.1,0.1-0.2,0.1c-0.1,0-0.1,0.1-0.2,0.1c-0.1,0-0.1,0-0.2,0.1
			C124.5,73.5,124.5,73.3,123.8,73.9z"/>
		<path class="st0 fillable" d="M113,73.4c0.8,0.7,1.4,0.7,2.4,1c0.9,0.3,1.7,0.8,2.6,0.6c0.5-1,0.3-1,0.4-2c-0.3-1,0.1-0.1-0.5-0.9l-0.6-0.7
			c0-0.1-0.1-0.1-0.2-0.2c-0.4,1.1-0.8-0.6-2.6,0.4C113.5,72.1,113.5,73.1,113,73.4z"/>
		<path class="st0 fillable" d="M108.2,84.3c0.5,0.9,0.2,0.4,1,1.1c0.1,0.1,0.4,0.5,0.5,0.5c0.5,0.5,0,0.1,0.7,0.5
			C115.8,84.9,109.6,79,108.2,84.3z"/>
		<path class="st0 fillable" d="M153.4,70.6c0.7-0.6,0.4-0.6,0.5-0.8c0.3-0.5,0.2-0.4,0.4-0.8c0.3-0.5,0.6-1.1,0.7-1.9
			c-1.1-0.7-3-1.3-3.7,0.5C150.6,69.5,152,70.1,153.4,70.6z"/>
		<path class="st0 fillable" d="M129.9,69.7c0.9,0.7,2.2,1.5,3.4,0.4c1.2-1.1,0.6-2.1,0.2-3.6c-0.6,0.3,0-0.1-0.6,0.3l-0.8,0.7
			c-1.5,1,1.3-0.8-0.5,0.3C129.9,68.8,130.1,69,129.9,69.7L129.9,69.7z"/>
		<path class="st0 fillable" d="M106,81.5c0.7-1,1.2-0.3,1.6-2.4l-0.8-0.8c-0.7-0.4-1.3-0.4-2.1-0.4c-1.1,0-1.9-0.2-2.6,0.3
			c0.9,0.9,0.1-0.4,2,1.5C104.1,79.7,106,81.5,106,81.5z"/>
		<path class="st0 fillable" d="M136.3,95.3c0.8,0.7,1,0.7,1.8,0l0-1.2C136.8,93.7,136.2,93.8,136.3,95.3z"/>
		<path class="st0 fillable" d="M99.1,132.5l1-0.1c0,0,0.1,0,0.2,0c0.1-1.3-0.1-1.5-1.3-1.2L99.1,132.5L99.1,132.5z"/>
		<path class="st0 fillable" d="M93.9,63.5c1,0.2,0.3,0.3,0.9-0.1C94.6,62.1,93.7,62.3,93.9,63.5z"/>
	</g>
	<g id="_2394566736624">
		<path class="st0 fillable" d="M89.6,103.9c-1.8,0.8-4.4-4.4,1.4-4.9c7.1-0.5,4.8,2.3,5.4,4.9l0.2,0.3c1.2-1.2,0.5-4.9-1.1-5.6
			c-1.4-0.6-5.3-0.5-6.8,0.1c-3.4,1.4-3.3,7.3,5,6.2l-3.9-0.7c0.7-1.3,0.5-2.7-0.5-3.9C89.5,101.7,90,102.7,89.6,103.9L89.6,103.9z"
			/>
		<path class="st0 fillable" d="M13,128.4c0.2-0.2,0.2-0.2,0.4-0.4c0.1-0.2,0.2-0.3,0.3-0.5c2.2-4.3,3.1-7,6.2-11.7l2.7-4
			C18.5,113.6,14,124.4,13,128.4L13,128.4z"/>
		<path class="st0 fillable" d="M14.2,100.7c0.3-0.2,0.2-0.1,0.4-0.4l3.8-5.8c2.3-3.5,3.1-3.6,5.1-5.3C18.9,89.7,15.4,97.3,14.2,100.7z"/>
		<path class="st0 fillable" d="M54.7,99.2c-0.3,0.9-0.8,1.5-1,2.7c-0.3,1.7,0.2,2,0.4,3.1c0.2-3.2,1.1-5.3,3.9-7.2c1-0.7,1.9-0.9,2.3-1.4
			c-1.9,0.4-3.7,1.2-5,2.5l-0.4,0.3C54.8,99.1,54.7,99.2,54.7,99.2z"/>
		<path class="st0 fillable" d="M25.8,96.4c0.6,1,0.7,2.6,0.2,3.7c-2.2,4.3,1.6,3.2,1.1-0.8C26.9,98.1,26.3,97.1,25.8,96.4z"/>
	</g>
	<g id="_2394568400000">
		<path class="st0 fillable" d="M124.8,92.8c-0.3,0.8-0.8,1.3-0.8,2.6c1.6,4.7,7.4,0.1,4.1-2.5C126.8,91.8,125.6,92.6,124.8,92.8z"/>
		<path class="st0 fillable" d="M108,69.1c0.7,2.9,5.8,2,4.8-1.4C112,64.8,107.1,65.7,108,69.1z"/>
		<path class="st0 fillable" d="M132.6,81.4c1.6-1,1.4-1,1.9-3.1c-0.7-0.7-0.8-1.5-1.9-1.8c-1.3-0.3-2.3,0.2-2.8,1
			C128.4,79.7,130.1,81.5,132.6,81.4z"/>
		<path class="st0 fillable" d="M131.3,71.4c-1.3,0.4-2.4,1.3-1.8,3.1c0.3,1.1,1.7,2.1,3.3,1.5C135.8,74.9,134.2,70.4,131.3,71.4z"/>
		<path class="st0 fillable" d="M108,58.6c0.7,2.7,5.6,2,4.8-1.5C112.2,54.3,107,55,108,58.6z"/>
		<path class="st0 fillable" d="M141.9,71.4c-1.2,0.4-2.3,1.2-1.8,3.1c0.4,1.2,1.7,2.1,3.3,1.6C146.3,75.1,145.1,70.3,141.9,71.4z"/>
		<path class="st0 fillable" d="M114.9,50.3c-3.2,1.3-1.2,5.6,1.8,4.6C119.6,53.9,118.2,48.9,114.9,50.3z"/>
		<path class="st0 fillable" d="M120.5,103c-3.3,1-1.9,5.5,1.4,4.7C125,107,123.7,102.1,120.5,103z"/>
		<path class="st0 fillable" d="M132.6,86.7c2.4-1.3,2.3-3.5,0-4.9c-1.9-0.1-3.2,0.5-3.3,2.3C129.3,86.1,130.7,86.8,132.6,86.7z"/>
		<path class="st0 fillable" d="M115.2,108.3c-3.3,0.9-2.1,5.6,1.3,4.7C119.5,112.3,118.3,107.4,115.2,108.3z"/>
		<path class="st0 fillable" d="M128.3,87.7c-1-0.6-1.1-0.6-2.5-0.6c-4.7,2.7,0.8,7,2.8,3.8C129.4,89.7,128.8,88.6,128.3,87.7z"/>
		<path class="st0 fillable" d="M124.1,85.3c0,0,0.4,0.6,0.6,0.7c0.5,0.5,0.4,0.3,0.9,0.7c3.1,0.3,4.6-2.2,2.8-4
			C126.6,80.7,123.7,81.9,124.1,85.3z"/>
		<path class="st0 fillable" d="M125.4,76.9c-0.7,0.4-0.9,0.2-1.2,1.2c-0.8,2.4,1.6,4.3,3.6,3.1C130.3,79.6,128.5,75.3,125.4,76.9z"/>
		<path class="st0 fillable" d="M134.8,78.1c-0.2,2,0.7,3.6,2.9,3.3c2.4-0.4,1.9-2.4,1.7-4.1C136.8,76.1,136.3,76.1,134.8,78.1z"/>
		<path class="st0 fillable" d="M118.7,42.6c0.7,3,5.6,2.2,4.9-1.2C123,38.5,117.9,39.2,118.7,42.6z"/>
		<path class="st0 fillable" d="M102.7,63.9c0.8,2.9,5.7,1.9,4.8-1.4C106.7,59.7,101.7,60.3,102.7,63.9z"/>
		<path class="st0 fillable" d="M136.2,82.1c-3,1.4-1,5.8,2.1,4.4C140.9,85.4,139.4,80.5,136.2,82.1z"/>
		<path class="st0 fillable" d="M108,63.9c0.7,2.7,5.7,2,4.8-1.4C112.1,59.6,107.1,60.4,108,63.9z"/>
		<path class="st0 fillable" d="M136.6,71.4c-3.6,1.2-1.5,5.7,1.5,4.6C140.9,75.1,139.7,70.4,136.6,71.4z"/>
		<path class="st0 fillable" d="M129.9,87.9c-1.3,2.6,0.5,5,3.1,3.8c2-0.9,1.9-3.7-0.6-4.7C131.1,87.1,130.6,87.4,129.9,87.9L129.9,87.9z"/>
		<path class="st0 fillable" d="M113.3,48.1c0.6,0.8,0.7,1.5,2.3,1.6c1.4,0.1,1.9-0.7,2.5-1.4C118.9,43.8,112.9,43.4,113.3,48.1z"/>
		<path class="st0 fillable" d="M118.7,100.9c0.5,0.7,0.7,1.3,1.7,1.6c1.1,0.3,2.2-0.2,2.7-0.7c0.8-0.9,1.3-4.4-2.9-4
			C119.7,98.7,118.6,98,118.7,100.9z"/>
		<path class="st0 fillable" d="M109.6,50.3c-3.3,1.4-1.2,5.7,1.9,4.5C114.2,53.7,112.6,49.1,109.6,50.3z"/>
		<path class="st0 fillable" d="M125.8,97.8c-3.2,1-1.9,5.5,1.3,4.7C130.3,101.7,129,96.8,125.8,97.8z"/>
		<path class="st0 fillable" d="M120.4,97.2c2,0.1,2.3-0.3,3.2-1.6c0.2-2.7-1.9-4.1-3.9-2.8c-0.7,0.5-1.1,1.3-1,2.5
			C119,96.8,119.9,96.9,120.4,97.2z"/>
		<path class="st0 fillable" d="M146.8,66.3c-3,1.6-0.5,5.7,2.3,4.3C151.8,69.2,149.8,64.7,146.8,66.3z"/>
		<path class="st0 fillable" d="M113.4,58.4c0.5,2.8,5.3,2.5,4.8-1C117.8,54.5,112.8,55,113.4,58.4z"/>
		<path class="st0 fillable" d="M128.6,32.9c0.7-2.4,0.2-2.4-1-3.7c-2.5-0.5-4.3,0.9-3.4,3.2C125.2,34.8,127.4,33.7,128.6,32.9L128.6,32.9z"
			/>
		<path class="st0 fillable" d="M140.2,77.9c0.1,1.3,0.1,3.9,2.8,3.5c0.7-0.1,0.2,0,0.8-0.3l0.7-0.4c0.6-1.4,0.7-2.9-0.5-3.7
			C142.3,75.9,141.1,77.2,140.2,77.9z"/>
		<path class="st0 fillable" d="M108.7,123.3c0.9,0.2,1.9,0.6,3,0.1c1.8-1.4,1.3-4.2-1-4.4c-1.2-0.1-2.2,0.5-2.5,1.2
			C107.6,121.3,108.3,122.4,108.7,123.3z"/>
		<path class="st0 fillable" d="M118.7,36.9c0.1,2.9,4.9,3,4.8-0.3C123.5,33.4,118.6,33.7,118.7,36.9z"/>
		<path class="st0 fillable" d="M114.9,113.8c-3,1.3-1.1,5.5,1.8,4.4C119.5,117.1,118,112.4,114.9,113.8z"/>
		<path class="st0 fillable" d="M141.6,66.3c-3.1,1.7-0.6,5.5,2.1,4.2C146.4,69.3,144.4,64.7,141.6,66.3z"/>
		<path class="st0 fillable" d="M118.7,79.4c0.7,2.4,3.5,2.8,4.7,0.8c0.6-1,0.4-2-0.3-2.8c-0.8-0.9-1.9-0.8-3.3-0.7c0.5,0.7,0.3,0.6-0.1,1.4
			c0,0-0.4,0.6-0.4,0.7C118.8,79.4,119.2,78.9,118.7,79.4z"/>
		<path class="st0 fillable" d="M107.3,58.6c1.2-3-3.6-4.3-4.5-1.6C101.8,60.2,106.2,61.5,107.3,58.6z"/>
		<path class="st0 fillable" d="M117.1,70.4c0.5-0.3,0.5-0.7,1-1.6l0.4-0.6c-0.5-0.4-0.2-0.2-0.6-0.7c-0.4-0.5-0.5-1.2-1.6-1.4
			C112.5,65.4,112.1,72,117.1,70.4z"/>
		<path class="st0 fillable" d="M131.4,92.6c-3.5,0.8-2,5.3,1.1,4.5C135.3,96.4,134.3,91.8,131.4,92.6z"/>
		<path class="st0 fillable" d="M118.6,83.7c0.2,0.7,0.1,1.1,0.5,1.7l1.2,1.2c2.7-0.5,1.6-0.1,3.1-1.4c0.4-3.6-2.4-3.6-3.5-3
			c-0.6,0.3-0.5,0.4-1,1.1C118.9,83.4,118.6,83.7,118.6,83.7z"/>
		<path class="st0 fillable" d="M113.7,104.1c-1.5,4.6,5.6,5.1,4.1-0.1c0,0-0.1-0.1-0.1-0.1c0,0.1-0.1-0.1-0.2-0.2c-0.1-0.1-0.3-0.2-0.4-0.3
			c-0.5-0.3-0.5-0.3-1.2-0.4C114.7,103,114.2,103.7,113.7,104.1z"/>
		<path class="st0 fillable" d="M118.9,48.4c0.8,0.6,1.2,1.6,2.9,1.1c1.1-0.3,1.8-1.3,1.6-2.6C122.5,43.8,118.2,44.3,118.9,48.4z"/>
		<path class="st0 fillable" d="M136.4,66.3c-2.9,1-1.3,5.4,1.7,4.2C140.7,69.5,139.5,65.2,136.4,66.3z"/>
		<path class="st0 fillable" d="M147.2,71.6c-3,1.2-1.3,5.3,1.7,4.3C151.3,75,150.2,70.3,147.2,71.6z"/>
		<path class="st0 fillable" d="M120.6,108.6c-3.2,1.1-1.5,5,1.3,4.2C124.5,112,123.4,107.7,120.6,108.6z"/>
		<path class="st0 fillable" d="M114.2,40.2l-0.1,0.1c-0.4,1-0.9,2.3,0.1,3.3c0.7,0.7,2.1,0.9,3.1,0.2C118.9,42.5,118.3,39.1,114.2,40.2z"/>
		<path class="st0 fillable" d="M113.6,63.6c0.4,2.5,4.8,2.2,4.3-1C117.5,60,113.1,60.5,113.6,63.6z"/>
		<path class="st0 fillable" d="M119.4,87.9c-1.1,2.3-0.3,4,2.5,3.8c0.6-0.5,0.8-0.4,1.2-1.2c0.3-0.8,0.3-1.5-0.1-2.1
			C122,86.7,120.6,87.6,119.4,87.9L119.4,87.9z"/>
		<path class="st0 fillable" d="M136.5,87.6c-2.8,1.1-1.3,4.9,1.6,3.9C140.6,90.7,139.2,86.5,136.5,87.6z"/>
		<path class="st0 fillable" d="M109.5,114.1c-2.7,1.3-0.8,5,1.8,3.9C113.8,116.9,112.1,112.8,109.5,114.1z"/>
		<path class="st0 fillable" d="M98.2,61.3c-1,2.1-1,2.7,0.9,3.9c1.7,0,3.3-0.8,2.7-2.7C101.3,60.8,99.7,61,98.2,61.3z"/>
		<path class="st0 fillable" d="M131.3,18.9c-3,1.2-1.4,4.7,1.3,4C135.2,22.2,133.8,17.8,131.3,18.9z"/>
		<path class="st0 fillable" d="M124.4,37.1c0.4,2.5,4.6,2.2,4.3-0.7C128.3,33.7,123.9,34.2,124.4,37.1z"/>
		<path class="st0 fillable" d="M103.7,133.7c3.3,0.4,1.9-0.3,3.3-0.6c0.5-1.9-0.1-3.8-2.4-3.4C102.1,130.2,103,132.5,103.7,133.7z"/>
		<path class="st0 fillable" d="M124.8,24.8c-0.7,2.1,0,3.6,2.5,3.2c0.9-0.7,1.9-1.6,0.9-3C127.2,23.6,125.7,24.3,124.8,24.8z"/>
		<path class="st0 fillable" d="M111.8,128.2c1-2.3,0.8-1.8-0.5-3.7c-1.7,0.1-3.3,0.4-2.8,2.5C108.9,128.8,110.5,128.4,111.8,128.2
			L111.8,128.2z"/>
		<path class="st0 fillable" d="M114.9,82.6c-2.4,1.4-0.5,4.5,1.9,3.4C118.9,85,117.2,81.2,114.9,82.6z"/>
		<path class="st0 fillable" d="M125.5,103.8c-2.1,1.1-0.6,4.3,1.8,3.3C129.5,106.3,128.2,102.4,125.5,103.8z"/>
		<path class="st0 fillable" d="M109.2,49c1.8,0.1,2.5,0.4,3.1-1.4C112.9,44.4,106.7,44.4,109.2,49z"/>
		<path class="st0 fillable" d="M130.9,24.6c-2,1.2-0.5,4.3,1.9,3.2C134.8,26.9,133.4,23.2,130.9,24.6z"/>
		<path class="st0 fillable" d="M104.6,124.7c-2.3,0.5-1.6,4.3,1,3.6C107.9,127.7,107.1,124.1,104.6,124.7z"/>
		<path class="st0 fillable" d="M120.6,50.9c-0.5,0.2-0.7,0-1.1,0.8c-0.7,1.2,0.3,3.3,2.4,2.6C124,53.6,122.9,50,120.6,50.9z"/>
		<path class="st0 fillable" d="M117.3,101.3l0.3-0.4c0.2-1.4-0.1-1.6-0.9-2.5C111.9,97.7,113.9,104,117.3,101.3z"/>
		<path class="st0 fillable" d="M142.1,82.6c-2.6,0.9-1.2,4,1,3.4C145.4,85.3,144.4,81.8,142.1,82.6z"/>
		<path class="st0 fillable" d="M119.9,30.1c-0.1,0.7-0.7,0.9-0.4,1.9c0.2,0.6,0.7,1,1.4,1.1c2.2,0.2,1.6-1.9,1.4-2.9
			C121.5,29.9,120.8,29.8,119.9,30.1z"/>
		<path class="st0 fillable" d="M117.2,122.3l0.1-1.6c-1.3-2.1-3-0.7-3.1,0.2c-0.2,0.8,0.3,1.5,0.9,1.7c0.4,0.2,0.5,0.2,1,0.1L117.2,122.3
			L117.2,122.3z"/>
		<path class="st0 fillable" d="M127.9,42.6c1-2-2-2.9-2.7-1.4C124.2,43.3,127,44.4,127.9,42.6z"/>
		<path class="st0 fillable" d="M109.1,109.5c-0.1,0.5-0.4,1.4,0.1,2.1c0.4,0.5,1.4,0.7,2.1,0.3c1.1-0.8,0.8-2.9-1.4-2.6L109.1,109.5z"/>
		<path class="st0 fillable" d="M131.3,98.8c-1.9,0.8-0.7,3.5,1.2,2.7C134.2,100.8,133.1,98,131.3,98.8z"/>
		<path class="st0 fillable" d="M103.7,53.4c1.5,1.1,3.4,0.4,2.7-1.4C105.9,50.6,103.2,50.6,103.7,53.4z"/>
		<path class="st0 fillable" d="M98.3,137.9c1.7,1,3.4,0.4,2.7-1.4C100.5,135.2,98,135,98.3,137.9z"/>
		<path class="st0 fillable" d="M136.3,16.9l1.7,0.1C140.4,13.2,134.1,13.2,136.3,16.9z"/>
		<path class="st0 fillable" d="M138,11.6c1.4-1.5,0.2-3.2-1.4-2.6C135.4,9.6,135.2,12,138,11.6z"/>
		<path class="st0 fillable" d="M147.4,77.8c-1.8,0.9-0.3,3.3,1.3,2.3C150,79.4,149,77,147.4,77.8z"/>
		<path class="st0 fillable" d="M130.8,16.5c1.6,0.7,3-0.3,2.1-1.6C132.2,13.9,130.2,14.2,130.8,16.5z"/>
		<path class="st0 fillable" d="M105,122.3l1-0.2l0.2-1.2l-0.6-0.8c-1.1,0-0.8,0-1.5,0.5C103.8,122,104,121.9,105,122.3z"/>
		<path class="st0 fillable" d="M120.3,58.6c1.4,0.7,2.5-0.2,1.8-1.3C121.7,56.5,119.6,56.4,120.3,58.6z"/>
		<path class="st0 fillable" d="M154,64.1c0.6-0.9,0.6-0.9,0-1.9C151.5,61.8,151.5,64.5,154,64.1z"/>
		<path class="st0 fillable" d="M109.7,41.6c0.2,1.3,0.1,1.2,1.4,0.8l-0.2-0.9C110.2,41.3,110.4,41.2,109.7,41.6z"/>
		<path class="st0 fillable" d="M125.8,47.4c0,0.7,0.6,0.6,1.3,0.5l-0.1-1.2C125.6,46.5,126.2,46.5,125.8,47.4z"/>
	</g>
	<g id="_2394567805536">
		<path class="st0 fillable" d="M197.5,25c3.8,2.1,6.3,0.2,9.3-1.3c3.2-1.6,6.3-1.8,10-2.6c3.6-0.8,6.4-2,9-3.6l7.4-5
			c-5.9,2.4-5.7,5.3-17.1,7.4C201.7,22.5,206.7,25.7,197.5,25z"/>
		<path class="st0 fillable" d="M195.6,14.2c0.8-0.4,2.2-1.9,5.4-3.5c4.2-2.1,13.7-5.6,17.1-8.4c0.5-0.4,0.4-0.3,0.7-0.7
			c-1,0.4-1.7,1-2.8,1.6c-3.1,1.5-6.4,2.6-9.6,3.8C202.5,8.5,197.3,11.5,195.6,14.2L195.6,14.2z"/>
		<path class="st0 fillable" d="M188.7,50.9c2.6,0,4.3-1.7,5.7-3c1.2-1,2.6-3.2,2.7-5.5c-1.4,2.5-1.3,3.4-3.6,4.8
			C192,48.2,188.9,48.9,188.7,50.9z"/>
	</g>
	<g id="_2394567804416">
		<path class="st0 fillable" d="M92.3,106c0.8,3.9,0,1.2,1.3,4.8l0.1,1.2c0,0.1-0.1,0.1-0.1,0.2c-0.3,0.9-2.8-0.1-3.5-1.6
			c0.9,0.5,1.2,0.8,2.2,1.1c-0.8-1-1.9-2-3-2.5l1.6-0.1c-1.8-0.3-1.8-0.7-2.6-2.2l-0.5-0.4c0.5-0.7-0.1-0.3,0.8-0.5
			C88.7,106,92.3,106,92.3,106z M70.9,95.1c4.8,1.4,4.7-2,9.8,1.8c-1.5,0.9-4,0.5-5.8,0.5C72.4,97.2,71.7,97,70.9,95.1z M67.6,91.6
			c-0.5,0.7-0.4,0.7-1.5,1l0.9-1.7c-0.8,2.6-4,1.9-4.4,0.7c1-0.4,2-0.7,3-1l2.8-1L67.6,91.6z M75.2,88.9c1.4,0,6.8,1.2,8.1,1.8
			c2.7,1.1,4.2,2.2,5.2,5.1c-1.6,0-2.8-0.3-3.9,0c-0.5,0.2-1.1,0.5-1.7,0.4c0,0-0.1,0-0.1,0c0,0-0.1,0-0.2-0.1l-1.5-0.5
			c1.7-0.7,2.3-0.1,3.8-1.5c-1.3,0.4-2.4,0.8-3.9,0.8c0.1,0,0.2-0.2,0.2-0.1c0,0.1,0.2-0.1,0.4-0.2l1.7-0.6c0.7-0.3,1.2-0.8,1.5-1.3
			c-0.7,1.2-3.5,1.4-5.3,1.4c0.8-0.9,1.6-1.2,2.1-2.8c-0.9,0.8-1.8,1.6-3.3,2.2c-0.2-0.3,0,0,0-0.3c0-1.4,0.4,0.5,0-0.3
			c-0.9,1.2-0.9,0.1-2.5,0.8l0-0.4c0-1.4,0.6,0.5,0-0.4L74,93.1c-0.7,0.4-0.6,0.5-1.5,0.5c0.5-0.4,1.3-0.7,1.5-1.2l0.4-0.7
			c0.4-0.5,0,0.1,0.4-0.4l-2.5,1.4c-0.9,0.2-0.4,0.2-0.9-0.2l1.1-0.9c1.2-1.5,1.8-1.2,2.4-2.2C74.9,89.4,75.2,88.9,75.2,88.9z
			 M67.6,91.6c0.7-1.1,0.7-2.1,1.9-2.4c0.8-0.3,1.1-0.7,1.7-1.3c0.4-0.4,0.2-0.3,0.6-0.5c-0.5,3-1.7,3.6-2.5,4.9
			c-0.3,0.5-0.4,1.1-0.7,1.7c-0.6-0.2-1.5-0.7-1.9-1.2C67,92.2,67.1,92.2,67.6,91.6z M82.6,88.8c0.6-0.8,1.5-1.3,1.7-2.9
			c-0.7,1.1-1.4,2.8-3.2,2.6c0.7-0.7,1.4-1.1,1.7-2.4c-0.7,0.8-1.5,2.2-2.7,2.2l1.3-1.4c-1.1,0.5-1,1.1-2.3,1.3
			c0-0.1,0.1-0.2,0.1-0.2l1.2-1.5c-0.9,0.4-0.9,0.6-1.7,1.2c-0.5-0.2-0.1-0.2-0.3-0.4l-0.6-0.3c0.6-1,0.5-1,1.6-1.7
			c3.4-2,2.8-1.7,7.4-0.6c7.2,1.7,5.9-1.9,10.1,2.3c1.4,1.4,1.8,1.7,3.8,2.7c5.1,2.5,4.5,3.1,8.2,5.2c1.3,0.7,4.5,3.3,1.8,4.2
			c-0.3,0.1-0.7,0.3-1.2,0.4c0.5-0.4,0.9-0.8,1.4-1.2c-0.9-0.5-1.7,0.7-2.4-0.5l-0.1-0.2c-0.8,0.6-2.3-0.1-3.3-0.6l-1.1-0.7
			c-0.1-0.1,0.5-0.4-0.6,0c-0.7,0.2-0.4,0.2-1,0.5c0,0,0-0.2,0-0.1c0,0,0-0.1,0-0.1c0,0,0-0.2,0-0.2l-0.5-0.5c0,0,0,0-0.1-0.1
			l-0.6-0.4c0,0-0.2-0.1-0.2-0.1l-0.2-0.5c0,0,0-0.1,0-0.1c0,0-0.3-0.3,0-0.6l-1.2,0.3c0.5-0.9-0.2-0.1,0.8-0.8
			c-1.2,0.2-1.2,0.3-2.1-0.3l1.2-1.4c-1.6,0.3-4.1,0.7-5.9-0.4l-0.2-0.2c0,0-0.1-0.1-0.1-0.1l-0.7-0.4c0,0-0.1-0.1-0.1-0.1
			c0,0-0.2-0.1-0.2-0.2c0,0-0.1-0.1-0.1-0.1l-1.6-1c1-0.8,1.1-0.7,1.7-1.9c-0.7,0.7-1.2,1.4-2.5,1.7c1-0.8,1.3-1.2,1.7-2.5
			c-0.7,0.6-0.7,0.8-1.5,1.3l0.3-1.8c-0.6,1.1-0.8,2.1-2,2.4l0.8-1.8c-0.9,0.9-0.8,1.5-2.2,2l1-1.7C87,87.9,86.5,89,85.3,89l1.2-1.8
			c-0.9,0.7-1.2,1.6-2.4,1.8c0.6-0.9,1.6-1.7,1.6-3.2C85.6,86.5,84.2,88.8,82.6,88.8L82.6,88.8z M84.6,82.7c0.5-1.1,0.9-1.8,2.2-2.1
			c-0.3,0.7-0.4,0.7-0.8,1.4C85.4,82.8,85.8,82.7,84.6,82.7z M87.6,83.7c0.4-0.7,0.5-0.6,0.9-1.4c-1,0.8-0.5,1-1.8,1
			c0.4-0.9,1.4-3,2.3-3.4c6.9-2.8,6.7-4.2,12.4,0.6c1.1,0.9,1.9,1.8,2.9,2.9c1.1,1.1,2,1.8,3,2.8c1.2,1.1,5.4,4.2,7,4.9
			c-0.4-0.4-0.8-0.8-1.3-1.2c-0.2-0.1-0.4-0.3-0.7-0.5l-0.9-0.8c1.4,0.7,3.1,2.1,4.5,3c4.3,3,0.1,6-5.5,2.9
			c-2.6-1.4-1.6-1.1-2.9-2.1l-1-0.6l0.8-0.7c-0.8,0.3-0.4,0.4-1,0.1c0.8-0.5,0.9-0.7,1.2-1.7c-0.3,0.4-0.1,0.2-0.4,0.4
			c-0.6,0.5,0.1,0.1-0.7,0.5l0.7-1.7c-0.7,0.5-1.2,1.5-2.5,1.7c-2.1,0.3-4.9-2.2-6-3.7l-0.7-0.8c0,0-0.1-0.1-0.2-0.1
			c0.7-0.4,0.4,0,0.9-0.8c-0.8,0.7-1,0.5-1.1,0.4l-1.2-0.2c0.8-0.4,1.2-0.8,1.5-1.7c-0.4,0.8-1.1,1.3-2.2,1.4c0.6-0.6,1.2-1.1,1.5-2
			c-0.5,0.8-0.6,1-1.5,1.5c0.2-1.5,0.5-1.9,0.3-3.6c-0.8,0.8-0.8,2.3-2.5,2.8c0.6-1.1,1.4-1.7,1.3-3.4c-0.1,0.8-0.8,1.6-1.3,2.3
			c-0.6,0.8-0.9,1.4-2.2,1.6c0.7-1,1.4-1.5,1.5-3.2c-0.9,1.3-1.3,2.7-2.8,3.2c0.8-0.9,1.3-1.3,1.6-2.8c-1.1,1.3-1.5,2.7-3,2.6
			c0.8-0.7,1.9-1.9,1.9-3.6C90.1,81.6,88.7,83.3,87.6,83.7L87.6,83.7z M98.5,66.2c-0.9,0.8-1.7,0.9-3.4,0.6c-3-0.5-0.6,1.4-9.9,2.7
			c-2.6,0.4-4.8,0.9-7.3,1.3c-3.3,0.5-4.3-0.2-7.3-0.4c-8.8-0.6-15.5,7.7-23.9,10.2c-2.6,0.8-4.2,0.3-7.1,1.5c-2,0.9-3.7,2-5.7,2.8
			c-5.5,2.4-8.4-0.8-13.6,3.3c-6,4.6-11.1,18.8-13.2,20.3l-0.5,0.8l0,1.7c1.6-1.4,3.9-5.3,5.1-7.7c1.5-2.8,2.8-5.8,4.4-8.4
			c7-10.8,11-7.6,16.5-7.4l-1.4-0.9c2-0.7,3.2-1.7,4.8-2.2c-1.1,0.8-2.2,1.9-2.7,3.3l1.8-1.8c0.7-0.6,1.1-1,1.9-1.4
			c4.7-2.3,9.5-0.8,15.6-4.1c7.5-4.1,10.7-7.8,18.4-8.2c-9.5-2.2-12.9,8.5-27.9,10.1c-1.6,0.2-3.1,0.6-4.5,0.7
			c4.3-1.2,7.8-1.3,11.9-3.1c3.8-1.8,6.2-3.5,9.5-5.3c13.4-7.6,15.7,1,24.2-3.1c-2.5,0.3-3.6,0.5-6.3,0.3c1.9-0.5,5.1-1,7.2-1.4
			c2.3-0.4,5-1.5,6.9-1.6c-1.4,0.6-3.8,0.9-5.1,1.8c2.6-0.2,5-1.3,7.7-1.5c3.3-0.2,5.2,1,7.5,1.1c-0.5-0.3-2.2-1.3-2.7-1.6
			c1.5,0.3,3.3,1.5,4.8,2.2c1.6,0.7,3.4,1.4,5.1,2c1.8,0.7,3.2,1.5,4.9,2.2c1.6,0.6,3.8,1.1,4.7,2.3c-0.3,2.4-4.7,3-7.3,2.3
			c-1-0.3-2.9-0.8-3.2-1.6l-0.1-0.4c-0.1-0.2-1.3-0.1-0.8-1.1l-1.2,0.6c0.3-0.5,0.5-0.6,0.8-1.2c-2,1.3-2,1.8-5.6,1.4
			c-1.2-0.2-2.8-0.7-4.7-0.8l0.3-0.9c-0.6,0.6-0.1,0.2-0.8,0.6c0.4-1.4,0.2-1.2,0-1.5c-0.5,1.3-0.8,1-2.1,1.8
			c-0.9,0.6-1.1,1.1-2.1,1.6c-1.1,0.5-2.2,0.7-3,0.8c-1.7,0.2-0.3-0.3-1.4,0.2c-0.4-0.6-0.3-0.2-0.3-1.2c-0.3,1.4-0.5,1.1-0.8,1.3
			l0-2.3c-1.4,4.1-5.5,6.8-9.5,8.1c0.3-3.6-0.2-3.2-0.9-6c-0.2,3.2,1,5.2-1.2,7.9c0.6-2.8,1.1-4.1,0.6-7.2c-0.4,3.9-0.6,7.1-2.9,9.5
			c0.8-2.2,1.7-3.9,1.7-6.6c-1.2,2.7-1.1,5.5-3.3,7.8c0.6-2.3,1.6-3.4,1.7-6.3c-1.3,3.1-1.8,3.9-5.2,5.1c-2.2,0.8-6.4,1-6.8,3.4
			c1.6,2.8,5.3,0,7.4,2.5c-1.7-0.5-3.2-1.3-4.8-0.3c1.2,0,2.2,0,2.8,0.4l1,0.3c-0.4,0.3-0.5,0.3-0.8,0.6l1,0.1l-0.4,0.5
			c0,0-0.1,0.1-0.2,0.1c0,0-0.1,0.1-0.2,0.1c0,0-0.1,0.1-0.2,0.1c1.1-0.4,1.2-0.4,1.7-0.1c-1.5,0.5-2.3,1.3-3,2.5
			c0.5-0.5,3-3,4.2-2.5c-0.6,0.6-3.9,1.7-3.5,4.3c-0.4-1.4,2.3-3.9,4.7-3.8c-1.6,0.8-1.7,0.6-2.8,2c-0.9,1.3-0.8,2.4-0.4,3.5
			c0.2-2.2,1.4-3.8,3-4.5c2-0.8,5.1-0.4,7.3-0.4c-0.4,0.6-0.6,0.7-1,1.5c3.5-2.7,6.5-2.3,9.2-2.6l-3.2-0.1C84,96.4,95.4,95,98,100
			c1,1.9,0.3,3.6-1,4.5c-2.3,1.8-8.1,0.8-11.5,1.2c-1.8,0.2-4.1,0.8-5.1-0.4c-1.1-1.3-1.4-3.5-0.9-5.3l1.6-0.6
			c-1.9-0.2-2.5,0.9-2.4,2.9c0.2,2.3,1.1,2.5,1.8,3.7c-5.7,0.4-7.8,1.7-9,1.7c-2.3,2-5.4,0-7.5-0.6c0.8,0.8,2.1,1.5,3.5,1.8
			c-2.4,0.1-4.1-1.2-6.1-1.9c0.9,0.8,2.7,2.1,4.2,2.1c-2.6,0.4-4.8-1.4-6.8-2.1c0.8,0.9,1.9,1.2,2.9,2c-2.3-0.2-4-1.5-5.1-1.6
			c0.7,0.3,1.6,1,2.6,1.5c1,0.5,2.2,0.6,3,1.2c-3.4,0.6-5.9,0.3-8.4-1.2c-0.1,0.1-0.1,0.2-0.1,0.2c0,0-0.1,0.1-0.1,0.1
			c-0.4,0.2-0.2-0.1-0.6-0.5c-0.3-0.2,0-0.1-0.4-0.2l0.2,0.6c0.3,0.5-0.1,0,0.4,0.5c1.7,1.5,2.7,1.6,4.5,2c-2.8,0.3-4.4-1.4-6.6-2.1
			l2.7,1.9c-1.3-0.1-2.1-0.6-3.1-1c0.4,0.4,1.1,0.8,1.5,1.4c-1.6-0.2-2-0.9-3.2-1.4c0.3,0.3,0.6,0.6,1.1,0.9l1,0.8
			c-1.8-0.2-4.1-2.2-5.7-3c0.6,0.6,1.4,1.1,2.1,1.7l2.2,1.9c-1.8-0.3-2.8-1.3-3.9-2.2c-1-0.8-2.2-1.5-3.4-2.1l4.5,3.9
			c0,0,0.1,0.1,0.1,0.2c-2.4-1-5-3.9-7.3-4.7l1,1c0.3,0.2,0.5,0.4,0.9,0.6l5.7,3.8c-2.5,0.1-8.9-5-11.6-5.9c0.3,0.3,0,0,0.4,0.4
			l6.2,4.3c-4.5-1.2-7.8-5.2-12.8-6c-1.6-0.1-3.1,0-4.5,0.6c-4.8,1-3.2,3.7-9.3,3.6l2.3,0.5c-2.1,0.5-1.9,0.4-4.1,0.1
			c1.1,0.6,1.3,0.6,2.8,0.7c-1.6,0.7-2.8,0.3-4.4,0c1.5,1.2,2.3,1.1,4.5,0.8c-0.6,1.1-2.6,3.3-2.7,3.6l-1.2,2.5
			c-0.2,0.5,0.4,1.3-2.3,1.8c0.8,0,1.3-0.2,1.9-0.4c-0.7,1.5-1.6,1.2-2.8,2.1l2.1-0.6c-0.7,1-1.6,1.1-2.8,1.7c1.1,0,1.7-0.4,2.6-0.7
			c-0.3,1.5-2.4,1.6-4.2,2c1.2,0.3,2.6-0.1,3.7-0.5c-0.7,1-2.9,1.6-4.7,1.6l0,0.2c1.8,0.1,2.7-0.2,4.3-0.7c-0.5,1.4-2.8,1.5-4.3,1.6
			l0.1,3.5c0.6-0.1,1.6-0.2,2-0.4c1.6-0.7,5.1-9.9,5.8-11.5c1.8-3.7,5.2-8.7,9.4-10.1c-3.9,2.3-7.1,6.1-9.3,11l-5.9,14.8
			c1.1-0.9,1.8-2.6,2.4-3.8c4-8.1,5.6-17.2,14.3-21.9c1.4-0.8,3.2-1.4,4.9-0.8c-2.3,1.2-4.2,2.3-5.1,5.5c0.8-0.9,1.4-2.3,2.3-3.3
			c0.9-0.9,2.2-1.8,4.2-1.7c-1.7,1.2-5.4,3.1-6.1,6.9c0.9-2.3,4.7-7.2,7.3-6.4c-1.9,1.6-2.9,1.1-5.3,4.8c-1.2,1.8-2.7,4.9-2.4,7.6
			c-0.3-2.2,1.8-5.6,2.9-7.2c1.1-1.6,3.2-4.5,6-4.4c-2.4,1.8-3.6,1.9-6,6c-1.4,2.4-2.5,6.5-2.3,9.7c0.8-2.6,0.7-5.5,2.6-9.1
			c1.2-2.2,3.5-5.4,6.2-5.9c-1.9,1.9-3.1,1.7-5.4,6.1c-1.4,2.6-2.5,6-2.4,9.4c0.6-1.3,0.8-3.3,1.3-4.8c1.1-3.2,5.1-11,8.4-10.1
			c-0.7,1.2-2.2,1-4.3,3.9c-4.4,6.1-4.8,12-4.9,19.7c1.2-2.5,0.5-8.2,2.9-14c1.2-2.8,5.1-9.3,7.9-8.6c-0.5,1.3-5.8,2-8.3,14.1
			c-0.7,3.2-1.1,6.6-1.4,9.9c-0.2,1.6-0.3,3.2-0.6,4.9c-0.3,1.7-0.8,3.2-1,4.5c3.2-9.2,2.3-23.1,9.4-30.5c0.9-1,1.8-2.6,3.1-2.1
			c-4.4,4.3-6.1,7.8-7.5,14.5c-0.7,3.1-1.1,6.3-1.5,9.5c-0.5,3.3-1.3,6-2.1,9h0.9c3-9.9,2.7-19.4,6.1-26.2c1.1-2.2,3.2-5.5,4.8-6.3
			c2,0.5,3.2,1.3,5.8,1.6c3.2,0.3,9.7-0.4,12.6-1.6c2.3-1,2-2.1,5.4-2.4c8.1-1.5,4.2-1,10.6-2.8c2.8-0.8,11.2-1.6,11.9-1.2
			c1.4,0.7,2.4,8.2,7.9,6.3c0.5-1.8-0.7-4.5-1-6.6c3.1-0.1,5.3-0.1,5.8-2.9c1.4-7.2-8.7-6.6-9.7-7.5c-1.1-1.1-0.3-2.6-2.5-4
			c-0.6-0.4-1-0.5-1.4-0.9c2.1,0,2.7-0.8,4.4,0c1,0.5,2.2,1.5,3.4,2.1c1.4,0.7,3.5,0.9,4.2,1.3c0.9,0.6,4.5,5.4,10,6.3
			c4.3,0.7,6.1-1.6,3.7-4.5c1.9,0.3,3.4,0.9,5.4,0.1c1.6-0.6,2.8-2.2,1.2-3.9l-7.3-5.6c-0.7-0.4-0.2-0.1-0.7-0.5
			c0,0-0.3-0.4-0.5-0.5c-0.8-0.8-0.5-0.3-1-1.1c-1-0.9-1.5-1.7-2.3-2.7l-1.9-1.8c-1.8-1.9-1-0.5-2-1.5c0.7-0.5,1.5-0.4,2.6-0.3
			c0.8,0,1.4,0,2.1,0.4l1.2,0.8c0.2,2,1.9,2.9,3.8,1.9c2.5-1.3,0.6,0.1,5,0.4c0-0.1,0.1-0.2,0.2-0.1c0.3,0.5,0.6-1.2,1.7-1.9
			c0.6-0.5,0.2-0.1,0.6-0.7c0,0,0.4-0.6,0.4-0.7c0.3-0.7,0.6-0.7,0.1-1.4c-0.5-0.9,0-0.4-0.9-1c-0.8-0.5-0.6-0.1-0.9-0.8
			c-0.9,0.3-1.7-0.3-2.6-0.6c-1-0.3-1.6-0.3-2.4-1c-0.5-1.3-1.2-2.3-2.8-2.1c-1,0.1-0.8,0.5-1.9,0.1c-0.6-0.2-1.3-0.5-1.8-0.7
			l-3.1-1.4c-0.8-0.4-0.4-0.1-0.8-0.7C101.8,67.8,101.9,65.3,98.5,66.2L98.5,66.2z"/>
		<path class="st0 fillable" d="M60.7,94.2c-2.5-1.6,0-3.4,0.8-4c-2.6,0.5-4.4,4.2-0.1,4.5L60.7,94.2z"/>
	</g>
	<g id="_2394567813728">
		<path class="st0 fillable" d="M183.9,69.9c0.7-0.4,1.3-0.8,2.4-1c1.1-0.2,2.3,0,3.1,0.5c-1.8,0-3,0.2-4.3,0.8c9.2-1.4,9,5.3,3.5,4.9
			c-6.2-0.4-8.2-7.5-1.3-7.2C185.6,68.7,185,68.2,183.9,69.9z M166.7,66.9c-0.6,0.9-0.9,1-1.4,1.8c0.9-0.6,0.7-0.7,1.6-1.2
			c-0.2,0.9-0.6,1.3-1.1,1.9l-1.6,1.6c1.6-0.6,2.1-1.4,3.1-2.3c-0.4,2-2.3,2.7-3.5,4l2.6-1.3c-0.4,0.7-0.1,0.3-0.7,1
			c-0.2,0.3-0.5,0.5-0.7,0.7c-0.4,0.4-1.3,1.1-1.8,1.2c1.9-0.1,3.4-2.2,4.4-3.2c-0.5,1.6-2.5,3.8-3.7,4.5c1.3-0.3,2.4-1.6,3.2-2.2
			c-0.8,1.8-2.1,2.8-3.3,4c1.4-0.4,3.5-2.3,3.9-3.6c0,1.5-2.7,4.1-3.6,4.8c1.8-0.6,2.3-1.8,3.3-2.3c-0.4,1.3-0.6,1.1-1.1,2.2
			c0.8-0.4,1.7-1.3,2.2-2c-0.1,1.7-1.5,3.2-2.3,3.9c1.8-0.4,2.1-1.6,3.2-2.9c0,1.6-1.1,3.1-1.9,3.6c1.7-0.7,1.5-1.1,2.3-2.1
			c0.3-0.3,0.2-0.3,0.4-0.5c-0.2,1.6-0.7,1.9-1,3.1c1.4-1.3,1-1.4,1.9-3.1c0.1,1.2-0.1,2.1-0.5,3c0.7-1.1,0.7-0.6,1.3-2.5
			c0.8,1.4,0.4,2,0.5,3.5l0.8-2.2l0.5,4.2l0.4-2.2c0.3,2.1,0.1,2.3-0.2,4c0.8-1.4,0.8-1.6,0.8-3.6c0.6,2.1,0.1,3.1-1,4.7
			c0.8-0.3,1.7-1.3,1.7-2.4c0.1,2.7-1.6,2.9-3.2,3.8c2,0.2,2.5-0.3,3.4-1.3c-1.7,5.9-8.2-3.4-11.5-4.9l2.2-0.9
			c-2.9-0.3-3.3-0.2-3.8-3c-0.6-2.9-1.3-2.9-2-4.9c1.3-1.7,2.8-0.8,4.7-5.7c0,0,0-0.1,0.1-0.2l0.1-0.3c0,0,0-0.1,0-0.2
			c0.1-0.6-0.1-0.3,0.4-1c1,0.1-0.2-0.2,0.3,0.2C166.6,67.3,166.2,66.6,166.7,66.9L166.7,66.9z M185.3,63.2L183,64l3.2-0.1l-0.8,0.7
			c-0.2,0.4-1.3,0.4-2.4,1.3l2.3-0.6c-0.7,0.8-1.2,0.2-2.1,1.4c1.6-0.6,1.7-0.9,3.6-0.7c-1.6,0.5-2.8,0.4-3.6,1.8
			c1-0.5,1.6-0.9,3-0.8c-2.7,1.1-2.5,1.1-3.8,3.5c-1-3.1-4.3-6.7,0.7-7.6l-0.4,0.3C181.8,64,182.4,63.1,185.3,63.2z M175.5,61.8
			c-1.5,0.3-2.1,0.6-3.7,0c0.9,1.1,2.5,1.1,4,1c-0.9,1.1-2.5,0.8-3.8,0.6c1,0.8,1.9,0.7,3.4,0.8c-1.1,1.1-1.2,0.7-3.1,0.8l2.3,0.5
			c-0.4,0.2-0.8,0.2-1.1,0.2l0.8,0.5c-1.7,1.1,0.6,0-1.8,1.1c-1.3,0.6-1.4,0.5-4.1-0.2c1.3,1.8,5.2,1.9,7,0.6
			c-0.7,1.7-2.7,1.5-4.6,1.6c2,0.8,3.3,0.4,5-0.4c-0.7,1.6-2.5,1.2-3.9,1.9c2.2,0.1,2.4-0.1,4.2-0.8c-0.7,1.7-1.8,1-3.2,1.9
			c1.6,0.1,1.9,0,3.2-0.5c-0.7,0.9-1.7,1.1-3.2,1.1c1.8,0.3,2,0.1,3.5-0.4c-0.6,0.9-0.8,0.9-1.9,1.1l1.5,0c-0.6,0.4-1.1,0.7-1.9,0.8
			c0.6,0,0.9,0,1.4,0.3c-3.4,1.3-1.8,1.3-5.9,0.1c1,1.3,5,2.8,7.1,1.4c-0.9,1.4-1.2,0.9-2.7,1.5c1.7,0.2,2.1-0.3,3.3-0.9
			c-0.2,1-1.3,1.5-2.7,1.6c1.9,0.3,1.9-0.4,3.4-0.6c-0.4,0.8-1.2,1-2.1,1.5c1.4,0,1.6-0.2,2.5-0.7c-0.3,1.1-1,1.1-1.9,1.6
			c1.2-0.1,1.7-0.4,2.5-0.9c-0.2,1.2-0.5,1.2-1.6,1.6c1.1,0,1.2-0.3,2-0.7c-0.5,0.8-0.7,1-1.3,1.4c0.4-0.1,0.4-0.2,0.7-0.2
			c0.7-0.1,0.3-0.1,0.6,0.1c-0.6,0.7-0.9,0.8-1.3,1.3l1.5-0.7c-0.6,0.8-0.4,0.8-1.3,1.2c1.3,0.7-0.9-0.1,0.9,0.2c0,0,0.1,0,0.1,0
			c-0.4,0.2-1.4,0.9-1.8,1.2l1.9-0.6c-0.5,0.2-1.4,1.5-2.5,1.7c1,0.1,1.5-0.4,2.3-0.7c-0.5,0.9-1,1.4-2.5,1.3c-1.2-3-1-4.4-3.1-6.9
			c-1.8-2.1-4.2-3.2-4.6-5.7c-0.3-1.6-0.3-2.8-0.7-4.4c-1-3.8-2.4-3.8,0.4-7.3c1.3-1.7,1.5-2.8,2-3.3c4.2,2,0.4,0.7,5.2,1.9
			c-2.3,0.4-2.4,0.1-4.3-0.4C172.5,61.4,174,61.7,175.5,61.8z M181.6,60.6c0.8-0.3,2.1-0.4,3.1-0.8l0,0.5c0,0,0,0,0,0.1l2.6-1
			c-0.4,0.5-0.6,0.6-1.3,1c-0.6,0.3-1,0.5-1.7,0.7c1.1,0,2.1-0.5,3-0.8c-0.6,1-0.2,0.8-0.2,0.9c-1.7,1.2-4.3-0.1-6.6,2.5l-0.5-1
			l1.4-0.7c-0.6,0-0.9-0.2-0.1-0.5c-0.4,0-0.7,0-1.1-0.1l-1-0.5c-0.6-0.3-0.3,0-0.9-0.5c2.8-0.3,4-0.6,6.3-1.2L181.6,60.6z
			 M170.2,57.1c1.4-2.5,3.6-5.1,6.9-4.7c3.8,0.4,5.8,1.8,10.1,1.1c-0.4,1-2,2.9-2.9,3.5l-0.2-0.7c-0.8,0.8-1.6,1.4-2.7,1.9
			c0.7-1,1.6-1.6,2.3-2.8c-1.5,1-2.7,2.7-4.9,3.5c1.3-1.5,2.2-1.6,3.3-3.7c-1.1,1.1-2.9,3.3-5.3,3.7l3.2-3.1
			c-1.3,0.6-3.1,2.9-5.1,2.9c1.5-0.9,2.2-1.5,3.3-2.9c-1.5,0.6-2.3,2.3-4.7,2.6c1-1.2,3.4-1.9,4.5-4.2c-0.3,0.7-4.5,3.9-6.1,3.7
			c2-1.1,3.4-2.5,4.6-4c-0.7,0.8-4.2,3.5-5.7,3.8c1.3-1,3.1-2.2,3.7-3.6C173.8,55,171.6,56.6,170.2,57.1L170.2,57.1z M149,41.3
			c-0.4,2.2-5.6,5.9-7.5,6.6c-0.5,0.7-7.3,3.2-8.6,3.7c-0.3,0.4-1.6,1.2-2.1,1.7c-0.6,0.6-1.1,1.3-1.6,2.2c-1.1,2.3-1.5,3.2-2.9,4.9
			c-1.6,1.9-7.2,6.2-7.7,7.8l-0.4,0.6c-0.6,0.9-0.5,1.2-1,1.6l0,0.7c0.1,0.1,0.1,0.1,0.2,0.2l0.6,0.7c0.5,0.8,0.2,0,0.5,0.9
			c0.7,0.6,0,0.7,0.6,1.9c0.3,0.6,0.8,1.1,1.6,1.2c2.4,0.5,2.5-1,3.3-2.2c0.7-0.6,0.7-0.5,1.5-0.8c0.1,0,0.1,0,0.2-0.1
			c0.1,0,0.1-0.1,0.2-0.1c0.1,0,0.1-0.1,0.2-0.1l1-0.6c0,0,0.4-0.3,0.4-0.3l0.7-0.4c0.3-0.2,1.6-1.2,1.9-1.8c0.2-0.7,0-0.9,1.6-1.9
			c1.8-1.1-1,0.7,0.5-0.3l0.8-0.7c0.7-0.4,0-0.1,0.6-0.3c1.2-0.2,4.6-2.9,5.4-3.7c1.2-1.2,0.4-1.6,2.6-1.9c5.9-0.7,6.6-3.9,9.2-4.5
			c1.4-0.4,2.7,0.3,4,0.4c1.5,0.1,2.6-0.3,3.9-0.4c-1.4,4-1.9,6.1-3.4,10c-0.3,0.7-0.1,0.2-0.2,0.6c-0.1,0.7-0.5,1.4-0.7,1.9
			c-0.2,0.4-0.2,0.3-0.4,0.8c-0.1,0.2,0.2,0.2-0.5,0.8l0.3,2.1l-1,0.5c-0.4,0.5-0.4,0.7,0,1.1c0.4,0.4,0.6,0.3,1,0.1
			c0.4-0.2,0.1-0.1,0.4-0.4l0.5-0.7c1.3,1.8,3.8,0.2,5.2,0.8c1.2,0.8,1,4.8,2.9,7.9l3.5,2.8c0.9,0.7,2,2.3,3,3.3
			c3.1,3.3,6.4,2.8,7.3-1.2c3.3-0.8,2.9-0.6,4.5-3.3c0.6-5.7-3.5-6.6-3.6-10.7c-0.1-4.2-0.8-4.5-0.9-6.1c0-0.8,0.9-5.1,1.2-5.6
			c1.7,1.4,1.5,3.8,2.7,5.8c1,1.8,1.8,4.5,2.7,5.8c2.2,3.4,10.2,5.4,10-1.4c-0.3-0.6-0.6-1.6-1.2-2.1c-0.6-0.5-1.6-0.7-2-1.5
			c-0.4-0.7-0.3-2-0.7-2.8c-0.4-1.1-1.1-1.3-1.1-2.6c0-2.2,0.6-1.2,0.3-6.6c-0.2-2.6,0.9-3.7,3.3-3.9c0.6-0.7,2.7-1.5,5.5-4.5
			c0.4-0.4,0.9-1.4,1.3-1.7c0.7-2.2,1.5-4.1,2.2-6.5c0.6-2.1,1.3-4.2,1.9-6.3c1.5-5,2.8-7.5,8.1-8.8c4.7-1.1,9.4-1.5,13.5-3.5
			c3.9-1.9,7.9-5.6,10.2-6.7v-0.8c-1.4,0.6-2.9,1.7-4.1,2.5c-14.8,9.3-15.2,4.7-23.5,8.8c-3.7,1.8-5.6,2.6-10,1.7
			c0.4,0.5,0.5,0.2,1,1l-0.7,2.1c1.2-1.4,0.3-1.3,1.5-1.8c0,1.1-1.6,2.6-1.7,5c0.8-1.5,1.2-3.2,2.5-4.1c-1,2.2-2.1,3.5-2,6.6
			c1.1-2.3,1.1-6.1,3.8-7.3c-0.9,1.5-1.6,1.5-2.5,4.5c-0.5,1.8-0.9,3.9-0.7,5.9c0.2-3.5,2.4-10.4,5.7-11.1c-1.4,2.5-2.5,3.7-3.6,7.1
			c-2.2,6.9-0.6,16.3-14.2,17.8c-0.1-0.1,0.1-0.7-0.8-1c-0.2,0.6,0.1,0.5-0.2,1c-1.6,0.1-3.8,0-4.9-0.6l4-0.9c0-0.1,0.1-0.1,0.2,0
			l-6.6,0c1.2-1.1,2-0.5,4-0.5c3.8-0.1,7.7-1,10.7-3.1c-2.9,0.8-7,3.4-12.3,2.1c1.4-0.7-0.4-0.7,3.4-0.7c5.8,0.1,8.5-3,10.3-3.3
			c-3,1.4-7.1,3-11.5,2.6l6.9-1.5c-2.1,0.3-3.2,0.7-5.5,0.6c0.8-0.5,1-0.4,2.1-0.6c0.8-0.1,5.6-1.1,5.8-1.7c0-0.1,0.1-0.1,0.2-0.1
			c-2.4,0.5-4.1,1.4-7,1.4c0.1,0,0.1-0.1,0.2-0.1c1.5-0.8,1.7-0.2,5.1-1.3c1.7-0.6,2.9-1.5,4.1-2c-1.4,0.6-5.4,2.2-7.1,2.2
			c-1.3,0-0.6,0.1-1-0.3c1.1-0.6,2.9-0.8,4.1-1.2c1.2-0.4,2.5-1.2,3.4-1.4c-2,0.3-4.2,1.5-6.7,1.7c0.6-1.2,1.3-1,2.9-1.5
			c1-0.3,1.9-0.9,2.8-1l-4.7,1c0.4-1.2,1.1-2.4,1.6-3.7c2.4-7.4,0.7-10.9,1-13.5l1.2,1.1c0.3-0.5-0.1-0.4,0-0.8
			c0.7,0.4,1.3,0.9,2.3,0.9c-1-0.3-2.5-1.3-3-2.1c-0.8-1.3,0.2-2.8,0.8-3.9l-0.8,1.1c-0.3,0.5-0.4,0.8-0.7,1.3c-0.4,0,0,0.2-0.5-0.5
			c0.1,3.1-0.3-0.3-0.4,1.5c0,0.3,0.2,1.1,0.3,1.7c-0.2-0.7-0.7-1.1-1-1.6l0.8,2.9c-0.4-0.6-1.1-1.5-1.4-2.1
			c0.4,1.1,1.5,2.9,1.5,4.3c0-0.3-0.2-0.6-0.4-1l-0.8-0.9c0.4,1.6,1.1,2.3,1.3,4.3c-0.7-1.4-1.6-3.2-2.4-4.5c0.7,2.1,2,4.3,2,6.8
			c-0.8-1.3-0.4-2.2-2.5-5.3c0.8,2.2,1.9,4.4,2.1,7.1c-0.3-0.4-0.1,0.1-0.5-0.8l-1.8-4.8c0.3,2.4,2,5.3,1.6,8.3
			c-0.3-2.9-1.1-3.8-1.8-6.1c0.2,2.8,1.6,4.2,1.1,7.9c-0.9-1.4-0.3-5.3-1.7-7.3c0.3,2.8,1.4,6.3,0.3,9c-0.1-1.1-0.1-2.1-0.1-3.3
			l-0.2-2c0-0.1-0.1-0.3-0.1-0.4c0-0.1,0-0.1-0.1-0.2c0,2,0.1,4.3-0.2,6.4l-0.5,1.6c0.1-1.9,0.7-4.7,0-6.4c-0.6,1.6-0.4,5.2-1.2,7.2
			c0.2-2,0.6-3,0.6-5.4c-0.2,0.2-0.2,0.2-0.3,0.7c-0.8,2.2,0.2,2.4-2.2,7.1c0.6-2.3,1.3-3.9,1.4-6.8c-0.8,1.3-1.2,5.7-3.1,7.6
			c0.8-2.8,2.3-5.7,2.2-9c-0.5,3-2.8,9.3-4.7,10.5c0.8-3.1,2.3-3.4,3.6-9.2c1-4.6,1.8-6.4-1.8-9.1c0.6,1.2,1.6,2,1.9,3.9
			c-0.9-1.5-3.2-4.6-5.3-4.5c1.8,1.1,4.3,4.8,4.1,8.4c-0.1,2.7-2,7.1-3.3,9.1c-3.7,6-4.8,5.4-8.5,10.1c-0.6,0.8-1.9,3.4-2.2,3.7
			c-0.8-1-0.9-1.5-2.2-1.8c1,0.7,1.6,1.4,1.7,2.8c-0.8-1-1.2-1.6-2.2-2.2c1.4,2.7,2.8,3.8,1.5,8c-0.8,2.6-2.3,4.8-5.3,5
			c2.1-0.8,3.9-1.6,4.2-4.1c-0.2,0.8-1.7,2-2.6,2.4c-1.7,0.8-2.5,0.5-4.2,0.8l0.6,0.8c-1.1-0.1-1.3-0.2-1.8-1.2
			c0.4-2.7,3.5-1,5.3-1.8c-1.6-0.6-3.4-0.8-5,0c0.1-1.2,0-0.9,0.9-1.1c-0.8-0.3-0.8,0.6-0.4-1.2c0.4-1.6,1.8-4.6,4.1-3.8
			c0.6,0.2,0.9,0.7,1.2,1.1c0.4,0.5,0.1,0.2,0.4,0.5c-0.2-3.4-1.4-2.4-3.1-3.1c1.3-0.5,1.3-0.5,2.6,0c-0.9-1.4-2.2-1-3.5-0.3
			c0.2-1.3,0.4-1.1,0.8-1.9l0.1-0.4c0.6-2.5,1.8-5.7,4.6-2.7c-0.4-1.2-1.5-2.3-3-1.6c0.2-1.7,0.9-3.2,1.2-5.4
			c0.3-2.2,0.2-3.7,0.8-5.8c0.5-1.8,1.1-3.4,1.4-5.4c0.2-1.4,0.2-4.4-0.6-5.7c-0.5,2,0.3,3.3,0,5.3c-0.2,1.4-1,3-1.3,4.5
			c-0.7,3.3-0.2,7.4-1.2,10.4l-1.9,0l1.2,0.8c-1.4,0.1-1.8-0.2-2.8-0.7c0.9,1,1.1,0.8,2.4,1.4c-2.4,0.4-2.6-0.7-4.1-1.4
			c0.5,0.4,1.5,1.2,2,1.7c-1.7-0.3-2.3-0.9-3.7-1.3l0.7,0.7c0.3,0.3,0.5,0.4,0.7,0.6c-1.9-0.4-2.9-1.6-4.4-2.3
			c0.4,0.7,0.4,0.5,1,1.1c0.5,0.5,0.6,0.6,1,0.9c-1.4-0.5-2.8-1.4-3.9-2.1c0.6,0.6,0.9,0.7,1.3,1.5c-1.8-0.8-4.5-2.9-5.6-4.2
			c0.2,1.2,1.7,2.8,2.5,3.4c-0.1,0-0.1,0.1-0.2,0.1c0,0-0.1,0.1-0.2,0.1l-0.3,0.1c0,0-0.4-0.1-0.5-0.1c0.9,0.4,1.9,1.1,2.8,1.6
			l-3.3-0.9c0.1,0,4,1.6,4,1.6c-1.2,0.5-3.8-0.7-5-1c0.5,0.5,0.8,0.7,1.6,1l1.3,0.5c0,0,0.1,0.2,0.2,0.1c0-0.1,0.1,0.1,0.2,0.1
			c-1.6,0.1-3.8-0.4-4.8-1.2c0.8,1,2.9,1.3,3.8,1.9c-1.9,0.1-2.6-0.3-4.1-0.8c1.2,0.9,2.6,1,3.7,1.7c-2,0-2.3-0.3-3.9-0.7
			c0.9,0.7,1.8,0.8,3,1.2c-2.4,0.4-4.2-1-6-1.6c0.8,0.7,2.3,1.7,3.4,1.9c-1.6,0-4.1-1.4-5.3-2l3.4,2.4l-4.1-1.8
			c1.1,1.1,2.2,1.3,3.4,2.2c-1.4-0.2-2.4-0.9-3.6-1.3c1,1.1,1.4,0.9,2.2,1.6c-1.3-0.1-3.1-0.6-4-1.4c-0.1-0.1-0.4-0.5-0.5-0.5
			c-0.4-0.5-0.1-0.1-0.3-0.4l-0.5-0.1c0.5,0.9,1,1.6,1.4,2.3l-1.9-0.8c0.3,0.6,2.6,1.8,3.1,2c-1.5-0.2-2.6-0.9-3.8-1.4
			c1.8,2,3.1,1.4,5.4,2.5c-2,0.3-2.9-0.3-4.6-0.8c1.1,1.1,3.1,1,4.1,1.5c-2.2,0.6-3.5-0.5-5.4-1c0.5,0.4,1.1,0.8,1.9,1.1
			c1,0.4,1.7,0.4,2.5,0.9c-2.5,0.4-5.3-1-6.4-2.1c1.5,2.1,2.3,1.7,4.7,2.9c-2,0.3-3.5-0.8-4.9-1.5c0.5,0.8,1.9,1.5,2.8,1.9
			c-2,0-3.3-1.3-4.3-2.1c0.8,1.5,1.5,1.5,2.8,2.7c-1.4,0-2.7-0.6-3.2-1.3c0.4,0.9,0.7,1.4,1.7,1.9c-0.4,0.3-0.9,0.3-1.4,0.3l1.6,0.6
			c0.1,0,0.2,0.1,0.2,0.1l-2.1,0.2l1.8,0.5c-1.2,0.4-2.1,0.2-3.4,0l2.6,0.9c-2.1,0.4-2.4,0.1-4.3-0.1c1.1,0.1,1.8,0.6,4,0.6
			c-1.5,1-3.5,0.3-5,0.1c1,0.2,2.4,0.6,3.8,0.8l-0.4,0.2c-1.5,0.3-3-0.2-4.5-0.6c1.4,0.9,2.8,0.8,4.3,1.3c-2.2,0.1-2.9-0.4-4.7-0.6
			l3.9,1.1l-2.2,0c0.1,0.1-0.3,0.6,1,0.4c-1.5,0.3-2.6-0.2-3.9-0.5l1,0.6c-7.7-0.3,0.2-6.6,2.1-8.5c0.4-0.4,0.6-0.6,1-1l0.8-0.8
			c0.3-0.3,0.1-0.1,0.5-0.4l0.7,1.1c-0.5-2.5,0.9-3.2,2-4.4c1.1-1.3,1.6-2.5,2.9-3.9c0.8,1,0,2,0.8,0.7c-0.9-2.3,3.5-4,5.4-4.9
			c1.3-0.6,2.6-1.1,3.9-1.7l2.6-1.4c0.6-0.2-0.3,0.6,0.5-0.1l2.5-2.2c0.8,0.2,0.5,0,0.8,0.7c0-1.2,0.1-0.9,0.4-1.2l0.3,0.9
			c-0.1-0.9,0-1.2,0.4-1.9c0.6,0.8,0,0.9,0.7,1.9c-0.3-1.2-0.4-1.1-0.3-2.6l0.4,1c0.1,0.4,0.1,0.5,0.3,0.9c0.3,0.7,0.7,1.1,1.1,1.4
			c-1.1-1.7-1.9-3-0.5-5c5-7,5-12.9,14.8-19.2c3-1.9,6.4-5.1,8-5.5c-1.4,2.2-6.7,5.5-8.9,7.1c1.5-0.1,6.3-3.3,7.4-4.2l3.1-2.7
			c2.3-2,1.6-2,3.7-2.2l-1.4-0.4c1.5-0.4,1.6-0.6,3.4-0.9l-2.5,0.2c1.1-1.1,1.9-0.9,3.6-1.2l-2.8,0.2c1.4-2.4,3.3-1.8,4.4-2.2
			l-2.8,0.2c0.7-0.6,0.6-0.4,1.2-0.5l-0.4-0.2c0,0-0.1-0.1-0.1-0.1c-0.7-0.4-0.1,0.2-0.2-0.1c1.5-0.7,2.6-0.4,4.3-0.3
			c-1.3-0.8-2.5-0.3-3.9-0.4c0.5-0.6,1.1-1.5,1.7-2.1l6.2-5.7l-1.4,0c-0.7,0.7-1.6,1.3-2.4,1.9c-2.5,2-5.6,5.9-6.4,6.2
			c5.5-7.4,5.3-5.5,7.2-7.5l0.5-0.6c-1.5,0-1.3-0.2-2.3,0.6c-2.8,2.2-3.8,3.3-6,6.1c-2,2.5-4.6,5.5-6.8,7.5l-10.4,9
			c-0.8,0.6-1.7,1.7-2.4,2.3C155.2,30.1,150.3,40.5,149,41.3L149,41.3z"/>
		<path class="st0 fillable" d="M234.2,5.6v-1h-0.2c-0.2,1-1.3,1.4-2.8,2.4c-10.3,6.2-21,7.6-25.2,11.2c1.1-0.4,2.3-1.1,3.5-1.6
			c9.4-3.9,14.2-2.5,23.2-9.7C233.4,6.3,233.4,6,234.2,5.6L234.2,5.6z"/>
		<path class="st0 fillable" d="M169.2,54.3c0.8-0.3,4.8-5,5.8-6.1c1.3-1.5,3.2-5.7,3-8.5C177.4,44.5,169.3,51.9,169.2,54.3L169.2,54.3z"/>
		<path class="st0 fillable" d="M168.2,52c1.1-1.7,3.4-9.4-0.2-9.3c-0.3,1.6,0.9,2.1,0.8,4.4C168.8,48.9,168.2,50.3,168.2,52z"/>
		<path class="st0 fillable" d="M164.4,34.8c0-0.1,0.1-0.2,0.1-0.2c0,0,0.1-0.1,0.1-0.2c0-0.1,0.1-0.3,0.2-0.4c0.9-1.9,2.6-3.2,5-3.3
			c3.1-0.1,4.4,1.9,5.6,3.7C174.3,28.8,164.6,28.5,164.4,34.8z"/>
		<path class="st0 fillable" d="M187.7,51.1c-0.2-1-0.3-1.1-1.1-0.5C186.9,51.4,186.7,51.7,187.7,51.1z"/>
		<path class="st0 fillable" d="M168.4,55.8c0.2-1,0.3-0.3-0.2-1C167,55.1,167.3,55.8,168.4,55.8z"/>
	</g>
	<path class="st0 fillable" d="M190.9,15.4c0-0.7,0.1-0.7,0.6-1.5c2.5-3.7,6.2-5.2,10.5-6.9c3.7-1.5,12-3.5,14.5-5.5l-1.2,0
		c-3.3,1.4-6.9,2.8-10.6,3.9c-2,0.6-3.9,1.8-5.5,0.7c-0.8-0.6-1.1-1.1-2-1.2l-0.5-0.1c-0.7-0.1-0.1-0.1-0.6-0.1
		c-0.1,0-1.1,0.3-1.3,0.4c1.2,0.5,1.9,1.5,3,2.1l-0.7,0.1c-1,0.3,0.4,0.5-1.6-0.4c0.5,0.7,0.1,0.3,0.9,0.7l-0.6,0.5c0,0-0.1,0,0,0.1
		c-1-0.5-2.4-1.4-3.4-1.7c0.1,0.1,0.1,0.1,0.2,0.2l2.8,2c-0.4,0.5-1.3,1-2.9,2.9c-0.7,0.8-1.5,1.8-1.7,2.8
		C190.6,15.3,190.8,15.3,190.9,15.4L190.9,15.4z"/>
	<path class="st0 fillable" d="M104.7,115.6c0,0.3,0,1.2,0.6,0.6C105.9,115.6,105,115.6,104.7,115.6z"/>
	<path class="st0 fillable" d="M116,126.1c-1.1,0.3-0.9,0.6,0.2,0.8L116,126.1z"/>
</g>
</svg>
