<?xml version="1.0" encoding="utf-8"?>
<!-- Generator: Adobe Illustrator 26.0.1, SVG Export Plug-In . SVG Version: 6.00 Build 0)  -->
<svg version="1.1" id="Слой_1" xmlns="http://www.w3.org/2000/svg" xmlns:xlink="http://www.w3.org/1999/xlink" x="0px" y="0px"
	 viewBox="0 0 238.1 150.2" style="enable-background:new 0 0 238.1 150.2;" xml:space="preserve">
<style type="text/css">
	.st0{fill-rule:evenodd;clip-rule:evenodd;}
</style>
<g id="Слой_x0020_1">
	<g id="_1658541677072">
		<g>
			<path class="st0" d="M144.1,0c24.2,0,48.4,0,72.6,0c0.1,0.2,0.2,0.5,0.3,0.7c1.4,2.2,2.7,4.5,4.1,6.7c3,5,5.4,10.3,7.9,15.6
				c0.8,1.6,1.5,3.2,2.1,4.9c0.7,2,1.2,4,1.7,6c1.6,5.9,3.5,11.8,4.5,17.9c0.4,2.2,0.4,3,0.7,5.2c-0.2-1.1-0.1-0.8-0.4-1.8
				c-0.9-3.5-1.9-6.9-2.8-10.4c-0.7-2.4-1.4-4.9-2.3-7.2c-2.4-6.2-5.2-12.2-8.3-18c-2.9-5.4-6-10.8-9.6-15.6c-0.5-0.7-1-1.4-1.6-2.1
				L212.9,2c0.1,0.3,0.2,0.5,0.3,0.8c2.7,6.7,5.5,13.4,7.5,20.4c0.9,3,1.8,6,2.6,9c1.6,5.7,3.4,11.3,4.6,17.1c0.3,1.5,0.7,3,0.8,4.5
				c0.2,2.6,0.4,5.3,0.4,8c0.1,3,0.1,6,0,9c-0.1,2.2-0.2,4.4-0.4,6.6c-0.1,1.2-0.1,2.5-0.3,3.7c-0.3,2.3-0.7,4.5-1.2,6.8
				c-1,4.6-2,9.2-3,13.8c-0.2,1.1-0.6,2.1-0.9,3.1c0.1-0.8,0.3-1.5,0.5-2.3c1.1-5.5,2.3-10.9,3.4-16.4c0.4-1.9,0.8-3.8,0.9-5.7
				c0.2-2.6,0-5.3,0.1-7.9c0.1-2.5-0.1-5-0.4-7.5c-0.4-2.6-0.5-5.2-1-7.8c-0.6-3.2-1.2-6.4-2-9.5c-1.9-7.8-4.4-15.3-7.2-22.7
				c-0.1-0.2-0.2-0.3-0.3-0.7c0,0.3,0,0.5,0,0.6c0.6,3.1,1.1,6.3,1.6,9.4c0.3,2.1,0.6,4.2,0.8,6.4c0.2,1.4,0.2,2.9,0.3,4.3
				c0.1,1.7,0.2,3.5,0.2,5.2s-0.1,3.4-0.2,5.1c0,1.3-0.2,2.6-0.1,3.9c0.5,3.7,1.1,7.3,1.1,11.1c0,3.4,0,6.9,0,10.3
				c0,2.4-0.1,4.8-0.1,7.1c0,4,0.1,8.1,0.3,12.1c0.1,2.5,0.4,5,0.7,7.5c0.3,2.4,0.6,4.9,0.9,7.3c0.3,2,0.7,4,1.1,6
				c0.3,1.3,0.7,2.6,1,4c-0.6-1.4-1.1-2.8-1.5-4.2c-0.3-0.8-0.6-1.6-0.7-2.5c-0.6-3.3-1.1-6.7-1.6-10c-0.4-2.8-0.6-5.7-0.9-8.5
				c-0.1-0.9-0.2-1.8-0.3-2.7c-0.2,0.2-0.3,0.3-0.3,0.5c-0.7,2.6-1.4,5.2-2,7.8c-1,4.3-2.4,8.4-4.1,12.4c-0.6,1.3-1.4,2.6-1.1,4.3
				c0.1,0.8-0.3,1.7-0.5,2.5c-0.2,0.7-0.5,1.3-0.7,1.9c-0.3,1.2-0.6,2.4-0.2,3.6c1,2.6,1.7,5.2,2.2,8c0.1,0.8,0.4,1.3,1.1,1.7
				c1.2,0.7,2.4,1.5,3.6,2.3c2,1.4,3.8,2.9,5.3,5c0.8,1.2,1.8,2.3,2.6,3.5c-0.2,0-0.5,0-0.7,0c-0.4-0.7-0.9-1.3-1.3-2
				c-2-3.2-4.8-5.3-7.7-7.2c-0.8-0.5-1.6-1-2.4-1.4c-0.4-0.2-0.6-0.6-0.7-1.1c-0.6-3.1-1.3-6.2-2.5-9.1c0-0.1-0.1-0.2-0.1-0.3
				c0.2-1.1,0.3-2.1,0.5-3.2c0.2-0.7,0.4-1.4,0.7-2.1c0.4-0.9,0.2-1.8,0-2.6c0-0.2-0.2-0.3-0.3-0.4c-2-1.3-4-2.7-6.1-3.8
				c-4.2-2.2-8.6-3.7-13.1-5c-3.9-1.1-7.9-2-11.9-2.4c-1.6-0.1-3.1,0-4.5,1c-0.8,0.6-1.7,1.1-2.6,1.6c-1.4,0.7-2.7,1.4-4.2,1.8
				c-2.5,0.6-5.1,0.9-7.7,1.3c-0.5,0.1-1.1,0.1-1.6,0.2c0.3,0.3,0.6,0.5,0.9,0.6c0.7,0.4,1.4,0.7,2.1,1.2c0.5,0.3,0.5,0.7,0.1,1.2
				c-0.2,0.2-0.4,0.3-0.5,0.5c-1.2,1.1-2.6,1.6-3.9,2.3c-1.8,1-3.7,1.1-5.6,1c-2.2-0.1-4.4-0.8-6.7-1.2c-1.3-0.3-1.1-0.9-0.6-1.8
				c0.1-0.2,0.2-0.4,0.4-0.5c0.9-0.9,1.8-1.8,2.7-2.8c0.1-0.1,0.2-0.2,0.4-0.5c-1.4,0-2.6-0.2-3.8,0c-1.9,0.4-3.7,1-5.5,1.5
				c-1.1,0.3-2.1,0.6-3.1,1.1c-2.5,1.3-5.2,2.1-7.9,2.4c-3.7,0.5-7.4,0.9-11,1.3c-4.9,0.5-9.8,1.5-14.7,1.5c-0.7,0-1.4,0.2-2.1,0.6
				c-0.6,0.3-1.3,0.5-2,0.6c-0.6,0.1-1.2,0.2-1.8,0.2c-1.7,0.1-3.4,0.5-5.1,0.2c-3.7-0.5-7.4-1.1-11.1-2c-5.7-1.3-11.4-2-17.2-2.1
				c-2.7-0.1-5.3-0.2-8-0.2c-1.8,0-3.5-0.2-5.3,0.1c-2.8,0.4-5.5,1.2-8.2,1.8c-1.6,0.3-3,1-4.2,2.3c-1.6,1.8-3.2,3.5-4.8,5.3
				c-0.8,1-1.5,2.1-2.4,3c-2.5,2.5-4.8,5.1-6.8,8.1c-0.2,0.3-0.5,0.6-0.8,0.8c-1.9,1.2-3.7,2.3-5.6,3.4c-0.4,0.2-0.8,0.5-1.1,0.7
				c0.2,0.1,0.3,0.1,0.4,0.1c3.2-0.7,6.4-1.5,9.7-2.2c1.7-0.4,3.4-0.6,5.1-1.1c1.2-0.4,2.4-0.8,3.6-0.7c0.2,0,0.4,0,0.5-0.1
				c0.4-0.6,1-0.7,1.5-0.8c1.7-0.4,3.3-0.8,5-1.2c0.1,0,0.2,0,0.4-0.1c1.2-0.3,2.4-0.6,3.6-0.9c0.8-0.2,1.5-0.5,2.3-0.5
				c2.8-0.3,5.6-0.5,8.5-0.7c0.2,0,0.3,0,0.5,0c-0.1,0.2-0.1,0.2-0.2,0.2c-2.1,0.2-4.3,0.4-6.4,0.6c-1.6,0.2-3.2,0.2-4.7,0.9
				c-0.5,0.3-1.2,0.3-1.7,0.5c-1.1,0.3-2.3,0.6-3.5,0.8c-0.5,0.1-1.1,0.2-1.6,0.3c-0.8,0.2-1.5,0.5-2.3,0.8c0,0.1,0,0.1,0.1,0.2
				c1.6-0.2,3.1-0.5,4.7-0.7c1.3-0.2,2.6-0.4,3.9-0.6c0.4-0.1,0.9,0,1.3-0.1c0.5-0.1,1-0.2,1.5-0.3c0.3-0.1,0.7-0.2,1-0.2
				c0.3,0,0.6,0,1,0s0.8,0,1.1-0.1c0.4-0.1,0.8-0.3,1.2,0.2c-0.2,0.1-0.4,0.2-0.5,0.2c-1.1,0.1-2.1,0.3-3.2,0.4
				c-0.2,0-0.3,0.1-0.5,0.1c-1.8,0.6-3.7,1.1-5.5,1.7c-1,0.3-2,0.5-3,0.8c-1.1,0.3-2.1,0.6-3.2,0.9c-0.5,0.1-1.1,0.2-1.6,0.4
				c-1.3,0.5-2.5,1-3.8,1.5c-0.4,0.2-0.8,0.5-1.3,0.7c-1.1,0.3-2.2,0.5-3.3,0.9c-1.1,0.3-2.2,0.7-3.2,1.2c-0.4,0.2-0.7,0.6-1,0.9
				c-4.8,0-9.6,0-14.4,0c0.7-0.3,1.4-0.6,2.1-1c1.7-1,3.5-2.1,5.2-3.2c2-1.2,4-2.3,6-3.6c0.8-0.5,1.6-1.1,2.1-1.8
				c1.2-1.8,2.4-3.6,3.9-5.1c1.5-1.6,3.4-2.9,4.5-5l0.1-0.1c1.2-1.4,2.4-2.8,3.7-4.2c0.3-0.4,0.4-0.7,0.3-1.2
				c-0.8-3.2-1.7-6.4-2.5-9.6c-1.4-5.7-2.7-11.3-4.1-17c-0.5-2.3-1-4.5-1.4-6.8c-0.1-0.2-0.2-0.5-0.3-0.7c-0.3,2.6-0.6,5.2-0.8,7.8
				c-0.2,1.9-0.2,3.9-0.6,5.7c-0.8,3.8-1.8,7.5-2.9,11.2c-1,3.6-2.3,7.1-3.9,10.5c-0.5,1.1-1,2.2-1.5,3.4c0.1-0.6,0.4-1.2,0.6-1.7
				c0.5-1.5,1.2-2.9,1.6-4.4c1.3-5.6,2.4-11.2,3-16.9c0.2-2.5,0.4-5.1,0.5-7.7c0.1-2.5,0-4.9,0-7.4c0-0.2,0-0.4,0-0.6
				c-0.2-2.7-0.5-5.4-0.7-8.1c-0.2-2.4-0.4-4.8-0.6-7.2c0-0.2-0.1-0.4-0.3-0.8c-2.9,5.6-4.1,11.8-6.2,17.5
				c1.3-6.4,2.6-12.8,3.9-19.2c-0.7,1.3-1.4,2.6-1.9,4c-1.4,3.3-2.5,6.8-3.2,10.4c-0.9,4.1-2,8.1-2.5,12.3c-0.1,1.2-0.4,2.5-0.5,3.7
				c-0.7-7.4-0.3-14.8-0.1-22.1c0.2-7.4,1.9-14.5,3-21.8c-0.2,0.2-0.4,0.4-0.5,0.6c-1.1,1.7-2.1,3.4-3.3,5.1
				c-2.4,3.3-4.8,6.6-7.2,9.9c-1.2,1.7-2.6,3.3-3.8,5c0-0.2,0-0.4,0-0.6c0.1-0.1,0.2-0.2,0.3-0.3C2,76.7,3.6,74.4,5.1,72
				c2.5-4.2,5.1-8.5,7.4-12.8c1.6-2.9,3-6,4.5-9c0.5-0.9,0.8-1.8,0.8-2.8c0-0.9,0.1-1.9,0.2-2.8c0.2-2,0.4-4,0.6-6
				c0.2-2.7,0.3-5.4,0.4-8.2c0.1-1.1,0.2-2.3,0.2-3.4c0-0.6,0-1.3,0-2.1c-0.2,0.3-0.3,0.3-0.4,0.5c-0.9,1.3-1.8,2.7-2.8,4
				c-3.2,4.7-6.6,9.4-9.3,14.5c-2.1,4.3-4.4,8.4-6.6,12.6c0-3.1,0-6.1,0-9.2c0.2-0.3,0.3-0.6,0.5-0.8c2-4.1,3.9-8.2,5.9-12.2
				c3.4-6.6,7-13.2,10.5-19.8c1-1.9,2.4-3.6,2.4-6c0-1,0.1-2,0.2-3C19.2,5.7,19,6,18.8,6.3c-1,1.3-1.9,2.7-3,3.9
				c-3.6,4.3-7.1,8.6-11.2,12.4c-1.5,1.4-3,2.8-4.5,4.2c0-0.8,0-1.6,0-2.4c0.1-0.1,0.2-0.1,0.3-0.2c2.4-2.4,4.6-5.1,6.5-7.9
				c3-4.5,5.9-9,8.8-13.5c0.6-0.9,1.1-1.9,1.7-2.8c22.3,0,44.5,0,66.8,0c-0.2,0.3-0.5,0.5-0.7,0.8c-2,3-4.5,5.7-6.1,9.1
				c-0.8,1.8-1.7,3.6-2.5,5.5C73,20.7,71.1,26,69.1,31.3c-0.6,1.6-1.2,3.2-1.8,4.9c0.3,0.1,0.4,0.2,0.6,0.3c2.9,1.1,5.8,2.2,8.7,3.3
				c4.7,1.8,9.4,3.5,13.7,6.3c0.4,0.2,0.8,0.4,1.2,0.7c0-0.2,0.1-0.3,0.1-0.4c0-3.6-0.1-7.1-0.1-10.7c0-3,0.1-6,0.2-9
				c0.2-5.8,0.4-11.7,0.5-17.6c0.1-3,0.1-6.1,0.2-9.1c17.1,0,34.3,0,51.4,0c0,3.3,0,6.6-0.1,9.9c-0.1,5.3-0.1,10.6-0.2,15.8
				c0,3.5-0.1,7-0.2,10.5c0,0.6,0.1,1.1,0.3,1.7c0.1,0.5,0.3,1,0.4,1.5c0.5,2.4,0.9,4.8,1.3,7.4c0.2-0.1,0.4-0.2,0.5-0.3
				c2.9-1.4,5.9-2.9,8.8-4.2c3.1-1.4,6.2-2.6,9.2-3.8c0.4-0.2,0.5-0.4,0.3-0.8c-0.7-1.4-1.4-2.9-2.2-4.3c-3.3-6-6.6-12-10-17.9
				c-2.2-3.9-4.4-7.8-6.5-11.7C144.9,2.5,144.6,1.2,144.1,0L144.1,0z M181.1,61.2c-0.1-0.2-0.1-0.4-0.2-0.6
				c-0.2,0.2-0.4,0.3-0.5,0.4c-0.5,0.5-1,1-1.5,1.4c-1.8,1.4-3.7,2.8-5.5,4.3c-0.2,0.2-0.6,0.3-0.2,0.8c0.3-0.2,0.6-0.3,0.8-0.6
				c2.1-1.7,4.1-3.5,6.2-5.2C180.4,61.5,180.8,61.4,181.1,61.2c-0.1,0.1-0.2,0.3-0.3,0.4c-2.2,2.3-4.5,4.5-7.1,6.2
				c-0.5,0.3-0.7,0.7-0.7,1.4c0.1,2.6,0.2,5.3,0.2,7.9c0,2.3-0.1,4.6-0.3,6.9c-0.3,2.5-0.8,4.9-1.2,7.4c0,0.1-0.1,0.1-0.1,0.2
				c0.9-7.5,1.5-15,0.7-22.7c-1.3,0.5-2.3,1.7-3.7,1.2c0.7-0.3,1.4-0.6,2-0.9c1.6-1,1.6-1,1.6-1.5c-1.1,0.4-2.2,0.8-3.3,1.3
				c0-0.1-0.1-0.2-0.1-0.3c0.2-0.1,0.4-0.2,0.5-0.3c0.8-0.4,1.6-0.9,2.3-1.3c0.3-0.2,0.5-0.5,0.4-0.9c-0.2-1.4-0.4-2.8-0.6-4.2
				c-0.1-0.8-0.4-1.6-0.6-2.6c-0.2,0.2-0.2,0.3-0.3,0.4c-0.6,1.1-1.1,2.3-1.8,3.3c-1.4,2.1-3.2,3.7-5.6,4.2
				c-2.5,0.5-4.9,0.3-7.2-0.9c-2.7-1.5-4.6-3.7-5.4-7c-0.1-0.6-0.4-0.7-0.8-0.4c-0.8,0.7-1.6,1.5-2.4,2.3c-0.1,0.1-0.1,0.4-0.1,0.6
				c0.1,1.3,0.2,2.5,0.3,3.8c0.2,1.4,0.3,1.6,1.6,1.8c0.1,0,0.2,0,0.2,0c1,0.2,2.1,0.4,3.1,0.6c1.7,0.3,3.4,0.8,5.1,0.9
				c3.1,0.2,6.1,0.1,9.2,0.1c0.3,0,0.7,0,1,0c-0.1,0.1-0.2,0.1-0.2,0.1c-3.7,0.6-7.5,0.3-11.2,0.1c-1.1-0.1-2.1-0.3-3.2-0.5
				c-1.6-0.3-3.2-0.7-4.8-1.1c-0.7-0.2-0.8,0-0.8,0.8c0.1,2.3,0.2,4.6,0.2,6.9c0,2.7,0,5.3-0.1,8c-0.1,4.7-0.6,9.4-1.8,14
				c-0.1,0.5-0.2,1-0.4,1.6c-0.1-0.3-0.1-0.7,0-1c0.3-1.8,0.6-3.7,0.9-5.5c0.7-4.1,0.8-8.2,0.9-12.4c0.1-4-0.1-8.1-0.5-12.1
				c0-0.5-0.2-0.7-0.6-0.9c-0.8-0.4-1.6-0.7-2.4-1.2c-0.9-0.6-0.9-0.9-0.2-1.8c0.7-0.8,1.5-1.6,2.2-2.5c0.1-0.2,0.2-0.5,0.3-0.7
				c-0.1,0-0.1-0.1-0.2-0.1c-1.8,1.4-3.6,2.9-5.4,4.3c-0.1-0.2-0.1-0.3-0.1-0.3c0.2-0.2,0.3-0.4,0.5-0.5c1.5-1.4,3.1-2.8,4.6-4.2
				c0.2-0.1,0.4-0.3,0.4-0.5c0-0.8-0.1-1.7-0.1-2.5c-0.1,0-0.1,0-0.2,0c-1,1.5-1.9,2.9-2.9,4.4c-0.1,0-0.1-0.1-0.2-0.1
				c0.1-0.3,0.2-0.5,0.3-0.7c0.9-1.5,1.7-3,2.6-4.5c0.1-0.2,0.2-0.4,0.4-0.8c-1.6,0.6-3,1.1-4.4,1.7c0-0.1,0-0.1-0.1-0.2
				c0.2-0.1,0.4-0.3,0.6-0.4c1-0.6,2.1-1.2,3.1-1.8c0.4-0.2,0.6-0.5,0.5-1c-0.3-1.4-0.6-2.8-0.8-4.2c-0.1-0.6-0.3-0.7-0.8-0.4
				c-0.7,0.4-1.4,0.8-2.1,1.3c-0.3,0.2-0.5,0.5-0.6,0.9c-0.2,0.8-0.4,1.7-0.5,2.5c-1,5.5-2.3,11-3.9,16.4c-1.2,3.9-2.8,7.7-4.2,11.6
				c0,0.1-0.1,0.1-0.3,0.3c0.5-1.6,0.9-3,1.3-4.4c0.7-2.5,1.6-5,2.2-7.5c1-4.7,1.8-9.4,2.7-14c0.2-1,0.4-2,0.5-3.1
				c0-0.7-0.5-1.5,0.2-2.1c0.1-1.9,0.3-3.9,0.4-5.8c-0.2,0.7-0.3,1.4-0.5,2.1c-0.6,3.2-1.1,6.4-1.7,9.6c-0.9,4.3-1.7,8.5-2.8,12.7
				c-1,4-2.4,7.9-4.1,11.7c-0.3,0.6-0.3,1.1-0.2,1.7c0.7,2.4,1.3,4.8,2,7.2c0.6,2.2,1.2,4.5,2,6.7c0.7,2.1,1.7,4.1,2.5,6.2
				c0.4,1,0.8,2,1.2,3c-2.2-2.6-3.5-6-5.9-8.5c0.2,1.5,0.6,2.9,0.9,4.4c0.4,1.4,0.8,2.9,1.2,4.3c0.4,1.4,0.8,2.8,1.2,4.2
				c-0.2-0.1-0.2-0.1-0.3-0.3c-1-3.1-2.1-6.1-3.1-9.2c-0.5-1.5-0.8-3.1-1.1-4.6c-0.1-0.7-0.3-1.2-0.7-1.7c-0.6-0.8-1.2-1.7-1.8-2.5
				c-0.6-0.9-1.2-1.7-1.9-2.7c-2.4,4.6-5.6,8.5-8.5,12.6c0.4-0.8,0.8-1.6,1.3-2.4c2.3-4,3.8-8.3,5.1-12.8c0.1-0.2,0-0.6-0.1-0.8
				c-1.6-2.6-3.3-5.1-4.7-7.8c-1.6-2.9-2.9-6-4.4-9c-1-2.1-2-4.3-2.8-6.5c-1.2-3.2-2.3-6.5-3.4-9.8c-0.6-1.9-1.1-3.9-1.6-5.9
				c-0.4-1.6-0.8-3.2-1.2-4.8c0,1.6,0.1,3.2,0.2,4.8c0.2,2.5,0.3,5.1,0.6,7.6c0.3,3,0.5,6,1,9c0.5,3.1,1.2,6.1,2,9.2
				c1.4,5.7,3,11.4,5,16.9c0.2,0.7,0.4,1.4,0.7,2.1c0,0-0.1,0-0.1,0.1c-0.1-0.3-0.2-0.5-0.3-0.8c-1-2.3-2-4.5-3-6.8
				c-1.6-3.6-3.3-7.2-4.9-10.8c-2.7-6.3-5-12.7-7.1-19.3c-0.2-0.5-0.4-0.8-0.8-1c-1.5-0.7-2.9-1.5-4.4-2.2c-0.7-0.3-1.3-0.6-2.2-1.1
				c0.1,1.4,0.1,2.7,0.2,3.9c0,0.5,0.2,0.8,0.7,1c1.3,0.6,2.5,1.3,3.8,2c0.3,0.1,0.5,0.4,0.8,0.6c0,0.1-0.1,0.2-0.1,0.2
				c-1.6-0.7-3.1-1.3-4.7-2c-0.2,0.7-0.1,1.8,0.2,2.3c1,1.4,2,2.8,3,4.2c0.2,0.2,0.3,0.4,0.4,0.7C97,62.9,97,63,96.9,63
				c-1.1-1.3-2.2-2.6-3.3-4c0,0.8,0.2,1.6,0.2,2.4c0,1.3,0.6,2.2,1.4,3c0.3,0.3,0.6,0.6,0.8,1c0,0.1-0.1,0.1-0.1,0.2
				c-0.5-0.5-1-1-1.6-1.6c0.4,4.1,1.6,7.7,2.7,11.4c1,3.7,2.2,7.4,3.4,11.1c-0.1-0.2-0.2-0.3-0.2-0.4c-0.6-1.6-1.3-3.2-1.9-4.8
				c-1.5-4.2-2.8-8.4-3.8-12.8c-0.4-1.9-0.2-1.5-1.7-1.3c-0.3,0-0.6,0-0.9,0c0-0.1,0-0.1,0-0.2c0.6-0.2,1.2-0.4,1.7-0.6
				c-0.9-2.3-4.7-7-6-7.5c-0.1,0.2-0.2,0.4-0.3,0.6c-0.5,0.9-0.9,1.9-1.5,2.6c-0.7,0.8-1.6,2-2.7,2.9c-2.1,1.6-4.5,2.1-7,1.8
				c-3.8-0.4-6.5-2.8-8.4-6.2c-1.2-2.3-1.9-4.9-1.9-7.7c0-0.3,0.1-0.8-0.4-0.8c-0.8,0-1.2,0.2-1.3,0.8c-0.2,1-0.3,2.1-0.5,3.2
				c-0.4,2.7-0.8,5.4-0.8,8.2c0,0.2,0.1,0.6,0.3,0.7c1.8,1.5,3.8,2.6,5.9,3.4c0.9,0.3,1.8,0.5,2.6,0.8c0,0.1,0,0.2-0.1,0.3
				c-1.5-0.4-3.1-0.7-4.5-1.3c-1.4-0.6-2.8-1.6-4.2-2.4c-0.3,0.5,0.1,0.7,0.4,0.9c1.9,1.2,3.9,2.3,6.1,2.7c0.5,0.1,1,0.2,1.4,0.4
				c0,0.1,0,0.2-0.1,0.3c-1.4-0.3-2.8-0.5-4.1-1c-1.3-0.5-2.6-1.2-3.9-1.9c-0.1,0.4-0.1,0.7-0.1,0.9c-0.1,2.2-0.2,4.4-0.2,6.7
				c-0.1,5,0,10,0.4,15c0,0.4,0.1,0.8,0.3,1.1c1,1.4,2,2.8,3.2,4c2.1,2.2,4.3,4.3,6.5,6.4c0.2,0.2,0.4,0.3,0.6,0.5
				c-0.1,0.1-0.1,0.1-0.2,0.2c-3.3-3.2-7-5.9-9.9-9.6c0.3,3.2,1.3,6.1,2.2,9c0.9,3,2,5.8,3,8.7c-0.2-0.1-0.2-0.2-0.3-0.4
				c-1.2-3.1-2.4-6.1-3.6-9.2c-1-2.7-1.9-5.4-2.2-8.3c-0.1-0.7-0.3-1.3-0.7-1.8c-3.6-3.9-6-8.7-8.3-13.6c-0.3-0.7-0.7-1.5-1.1-2.3
				c-0.1,0.2-0.1,0.2-0.1,0.2c-0.5,4.2-0.7,8.5-0.3,12.7c0.5,4.3,1.5,8.4,2.9,12.4c1.5,4.2,3.3,8.2,5.8,11.8c0.3,0.5,0.6,1,0.9,1.5
				c-0.1,0.1-0.2,0.1-0.2,0.2c-2.1-2.6-4.3-5-6.3-7.7c-2-2.7-3.8-5.5-5.7-8.4c0,2.3,0,4.5,0,6.7c0,0.2,0.2,0.5,0.3,0.6
				c0.8,0.7,1.6,1.2,2.3,1.9c0.5,0.5,1.2,0.9,1.5,1.5c0.9,1.9,1.8,3.9,2.5,5.9c0.5,1.2,0.9,2.4,1.6,3.5c0.5,0.7,0.8,1.5,1.3,2.3
				c0.1,0.2,0.3,0.4,0.6,0.5c0.4,0.1,0.9,0.2,1.4,0.2c2.9,0.1,5.9,0.2,8.8,0.3c2.1,0.1,4.3,0.3,6.4,0.7c3,0.5,6,1.3,9,1.9
				c4.4,0.9,8.8,1.7,13.3,0.9c0.8-0.1,1.6-0.1,2.3-0.4c1.2-0.7,2.5-0.8,3.8-0.9c4.1-0.4,8.1-0.9,12.2-1.3c3.9-0.5,7.9-1,11.8-1.5
				c1.8-0.2,3.6-0.5,5.4-1.2c2.2-0.9,4.4-1.8,6.6-2.6c2.6-1,5.2-1.7,8-1.5c0.8,0.1,1.6,0.2,2.4,0.4c-0.9,0.8-1.6,1.4-2.3,2
				c-0.7,0.7-1.4,1.5-2,2.3c-0.4,0.5-0.3,1,0.1,1.1c0.5,0.2,0.9,0.4,1.4,0.4c1.2,0.2,2.5,0.4,3.8,0.5c1.7,0.1,3.4,0.3,5,0
				c2.2-0.5,4.2-1.6,5.9-3.2c0.3-0.3,0.3-0.5-0.1-0.7c-0.4-0.2-0.7-0.4-1.1-0.6c-0.7-0.3-1.4-0.6-2.2-0.9c-0.2-0.1-0.3-0.3-0.5-0.5
				c0.2-0.1,0.3-0.3,0.5-0.4c0.2-0.1,0.4-0.1,0.6-0.1c2.1-0.2,4.2-0.4,6.2-0.8c3.2-0.6,6.2-2,9.1-3.7c1.3-0.8,2.3-1.8,2.8-3.5
				c0.5-1.8,1.5-3.5,1.9-5.3c0.9-3.7,1.7-7.5,2.5-11.3c0.4-2.3,0.8-4.5,1-6.8c0.2-2.2,0.3-4.4,0.5-6.6c0.1-2.6,0.4-5.3-0.2-7.9
				C182.9,66.4,181.9,63.8,181.1,61.2L181.1,61.2z M64.7,48.4c0.4,0,0.7,0,1,0c1,0,1.9-0.1,2.8,0c7.4,1.5,14.7,3.1,22.1,4.6
				c0.5,0.1,1,0.3,1.6,0.4c-0.1-1.2-0.3-2.3-0.3-3.4c0-1-0.4-1.4-1.1-1.7c-5.1-2.5-10.2-5.1-15.3-7.7c-2.5-1.3-4.9-2.7-7.6-3.4
				c-0.5-0.1-0.7,0-0.9,0.6c-0.5,2.5-1.1,5-1.7,7.5C65.1,46.3,64.9,47.3,64.7,48.4z M145.5,48.4c0.3,1.7,0.5,3.2,0.8,4.6
				c0.2,1,0.2,1,1,0.7c2-0.5,4-1,5.9-1.5c4.7-1.2,9.4-2.4,14.3-2.7c0.4,0,0.6-0.2,0.4-0.7c-0.9-3.1-1.8-6.1-2.8-9.2
				c-0.1-0.5-0.4-0.5-0.8-0.3c-1.1,0.5-2.2,1.1-3.4,1.6c-3.3,1.6-6.5,3.2-9.8,4.7c-1.7,0.8-3.4,1.5-5.1,2.2
				C145.9,48,145.7,48.2,145.5,48.4L145.5,48.4z M61.7,65.5c0.2-0.8,0.2-0.8-0.2-1.1c-1.8-1.6-3.5-3.2-5.3-4.7
				c-0.5-0.5-0.6-0.4-0.8,0.2c-0.9,3.3-1.7,6.6-2.6,9.8c-0.1,0.3-0.1,0.8,0,1.1c0.8,2.2,1.6,4.4,2.5,6.6c0.6,1.5,1.1,3,1.8,4.4
				c1.1,2.1,2.4,4,3.6,6c0.3,0.5,0.7,0.9,1,1.4c0.1-0.3,0.1-0.4,0.1-0.6c-0.1-1.4-0.2-2.9-0.2-4.3c-0.1-3.8-0.1-7.6-0.1-11.4
				c0-1.9,0-3.8,0.2-5.6c0.1-0.8-0.2-1.3-0.7-1.8c-1.6-1.4-3.1-3-4.6-4.5c-0.1-0.1-0.2-0.4-0.3-0.6l0.1-0.1
				C58,62.1,59.8,63.8,61.7,65.5z M152.3,61.5c0.1,0.4,0.2,0.7,0.3,0.9c0.1,0.3,0.3,0.5,0.5,0.7c1.1,1.7,2.7,2.7,4.3,3.6
				c1.1,0.6,2.5,0.6,3.8,0.7c2.6,0.1,4.7-1.1,6.3-3.2c0.9-1.2,1.7-2.5,2.5-3.8c0.3-0.5,0.3-1,0.1-1.6c-0.1-0.3-0.1-0.7-0.1-1
				c-0.1-0.8-0.1-1.6-0.2-2.4c0-0.2-0.5-0.5-0.8-0.5c-1.3,0.1-2.7,0.2-4,0.4c-0.8,0.1-1.5,0.3-2.2,0.6c-0.2,0-0.3,0.2-0.4,0.4
				c-0.3,0.7-0.5,1.3-0.7,2c-0.2,0.5-0.3,1-0.5,1.5c-0.1,0.2-0.4,0.5-0.6,0.5c-0.2-0.1-0.4-0.4-0.5-0.7c-0.2-0.6-0.3-1.2-0.5-1.8
				c-0.3-0.7-0.7-0.9-1.4-0.6c-1.5,0.6-3,1.3-4.5,2c-0.8,0.4-1,1.1-0.6,1.9c0.1,0.3,0.1,0.5,0.2,0.9
				C152.7,61.7,152.6,61.6,152.3,61.5z M76.5,57.7c0-0.5,0-0.9,0-1.3c0-0.6-0.2-1-0.7-1.3c-0.6-0.3-1.1-0.5-1.7-0.7
				c-1.9-0.6-3.8-0.5-5.7-0.4c-0.4,0-0.7,0.2-0.8,0.7c-0.1,0.7-0.3,1.3-0.3,2c0.1,1.5,0.6,2.9,1.4,4.1c1,1.4,2.1,2.7,3.5,3.6
				c1.7,1,3.4,2,5.4,1.8c0.4,0,0.8-0.2,1.2-0.2c1.7-0.1,3.2-0.9,4.5-2c1-0.9,1.7-2,2.2-3c-0.3-0.5-0.5-0.9-0.6-1.3
				c-0.2-0.8-0.7-1.5-1.3-1.8c-1.1-0.6-2.3-1.1-3.5-1.1c-0.9,0-1.5,0.4-1.7,1.4c-0.1,0.5-0.3,0.6-0.7,0.6c-0.4,0-0.5-0.3-0.5-0.7
				c0-0.2,0-0.3-0.1-0.5C76.9,57.6,76.8,57.6,76.5,57.7L76.5,57.7z M35,54.9c-0.1,0-0.2,0-0.3,0c-0.4,2-0.8,4-1.1,5.9
				c-0.1-0.2-0.1-0.5-0.1-0.7c0.1-1,0.2-2,0.3-3c0.2-2.2,0.7-4.2,2.3-5.6c0.7-0.7,0.7-0.9-0.2-1.5c-0.1,0.2-0.3,0.3-0.4,0.5
				c-1.1,1.5-2,3-3.2,4.4c-1.4,1.6-1.8,3.5-1.8,5.7c0.1,4,0.2,8,0.4,12.1c0.1,1.7,0.4,3.3,1.2,4.8c0.6,1.1,1.1,2.2,1.6,3.4
				c0.1,0.2,0.3,0.4,0.5,0.8c0.2-1,0.3-1.7,0.5-2.4c0.5-1.7,0.3-3.3-0.4-4.9c-0.6-1.3-0.7-2.8-0.6-4.3c0.1,0.2,0.1,0.4,0.2,0.7
				c0.1,0.4,0.1,1,0.3,1.2c0.2,0.2,0.7,0,1-0.1c-0.9,1.4-0.9,2.4,0.1,3.5c0.2-1.5,0.4-2.9,0.6-4.3c0.8-5.7,1.7-11.4,2.5-17.1
				c0.2-1.2-0.2-1.8-1.2-2.4c-0.5,0.5-1,1.1-1.5,1.7c-0.4,0.5-0.5,1-0.2,1.6c0.6,1.1,1,2.2,1.5,3.3c-0.1,0.1-0.2,0.1-0.2,0.2
				c-0.3-0.5-0.6-1-0.9-1.6C35.5,56.1,35.3,55.5,35,54.9z M212.2,120.4c3-10.7,3.5-21.5,2.7-32.5c-0.5,1-1,2-1.2,3
				c-1,4.7-1.9,9.5-2.7,14.3c-0.7,4.1-1.6,8.2-1.7,12.4c0,0.3,0,0.8,0.2,0.9C210.4,119.2,211.4,119.8,212.2,120.4z M46.7,103
				c0.1,0,0.1-0.1,0.2-0.1c-0.3-1.5-0.6-3.1-0.8-4.6c-0.3-2.5-0.6-5-0.9-7.5c-0.1-0.9-0.3-1.6-1-2.1c-0.6-0.5-1.2-1.2-1.7-1.8
				c-1.9-2.4-3.7-4.9-5.6-7.3c-0.2-0.2-0.4-0.4-0.7-0.7c-0.3,1.4-0.5,2.6-0.8,3.8c-0.1,0.6,0,1,0.2,1.5c2.4,4.5,4.8,8.9,7.1,13.5
				C43.9,99.7,45.4,101.2,46.7,103z M40.3,61.9c-0.1,0.3-0.2,0.4-0.2,0.6c-1.6,4.9-2.5,10.1-3.5,15.2c-0.1,0.3,0.1,0.7,0.2,0.9
				c2,2.5,3.9,5.1,5.9,7.6c0.5,0.7,1.3,1.1,1.9,1.6c0.1-0.1,0.1-0.1,0.2-0.2c-0.1-0.6-0.2-1.2-0.4-1.7c-0.7-2-1.4-4-1.6-6.2
				c-0.2-1.2-0.3-2.5-0.7-3.6c-0.8-2.2-1.6-4.6-3.1-6.4c-0.1-0.1-0.2-0.3-0.2-0.5l0.1-0.1c1.1,0.7,1.5,2.1,2.4,3
				C41,68.7,40.6,65.4,40.3,61.9z M94.4,22.7c-0.1,0.2-0.1,0.2-0.1,0.2c-0.3,4.6-0.6,9.3-0.8,13.9c-0.2,3.3-0.2,6.6-0.3,9.9
				c0,0.6,0.2,0.9,0.7,1.2c1.9,1.1,3.8,2.4,5.7,3.5c0.1,0.1,0.2,0.1,0.4,0.1c-0.3-1-0.6-2-0.9-3c-0.6-2.3-1.4-4.5-1.8-6.9
				c-0.8-4.4-1.4-8.8-2-13.2C94.9,26.8,94.6,24.8,94.4,22.7z M177.9,52.4c-0.1-0.3-0.1-0.4-0.1-0.4c-1.1-2.5-2.1-5-3.2-7.4
				c-1.2-2.6-2.4-5.1-3.6-7.6c-0.2-0.4-0.4-0.7-0.9-0.4c-0.6,0.4-1.3,0.7-2,1c-0.3,0.1-0.4,0.3-0.3,0.7c0.3,1,0.6,1.9,0.8,2.9
				c0.6,2.4,1.2,4.8,1.7,7.2c0.2,1.1,0.2,1.2,1.3,1.3c0,0,0,0.1,0.1,0.1c-0.1,0-0.2,0.1-0.4,0.1c-0.3,0-0.7-0.1-0.6,0.5
				c0.1,0.5,0.3,0.7,0.7,0.6c0.5-0.1,1.1-0.1,1.6-0.1c0.7,0,1.4,0.1,2,0.3C175.9,51.5,176.8,51.9,177.9,52.4L177.9,52.4z M173,66.1
				c0.3-0.1,0.5-0.2,0.6-0.3c1.5-1.3,2.9-2.7,4.3-4c0.1-0.1,0.2-0.3,0.2-0.4c0.1-1.3,0.7-2.4,1.2-3.4c0.2-0.4,0.2-0.9,0.2-1.4
				c0-0.4-0.4-0.5-0.7-0.5c-0.1,0-0.2-0.1-0.3-0.2c-0.5-0.4-0.9-0.8-1.5-1.1c-1.2-0.7-2.5-1.3-3.7-1.9c-0.7-0.3-1.1-0.1-1.2,0.7
				c-0.3,1.5-0.6,3-0.3,4.6C172.3,60.8,172.6,63.4,173,66.1L173,66.1z M46.8,121c-2.4-5.8-4.6-11.6-7.5-17c-0.1,0.2-0.1,0.4-0.1,0.6
				c0.2,2.8,0.3,5.7,0.5,8.5c0.1,2.1,0.2,4.3,0.3,6.4c0,0.6,0.1,1.3,0.1,1.9c0.1,0.8,0.3,0.9,0.9,0.8c1-0.2,1.9-0.4,2.9-0.6
				C44.8,121.4,45.7,121.2,46.8,121z M85.2,54c0.1-0.1,0.1-0.1,0.2-0.2c2.6,2.6,5.3,5.1,8,7.8c-0.2-1.3-0.5-2.5-0.6-3.7
				c-0.1-1-0.4-1.7-1-2.3c-0.9-1-1.7-1.8-3-2.1c-7.8-1.7-15.5-3.7-23.4-4.4C64.7,49,64.7,49,64.7,50c0.2,0,0.4,0,0.6,0
				c1.2,0.1,2.4,0.1,3.5,0.2c2.5,0.3,4.9,1,7.3,1.9c3.5,1.3,7.1,2,10.5,3.7c0,0,0.1,0,0.1-0.1C86.1,55.1,85.7,54.5,85.2,54z
				 M60.7,48.5c0-0.1,0-0.2,0-0.3c0.6,0,1.2,0.1,1.8,0.1c0.9,0.1,1,0,1.2-1c0.5-2.8,1-5.7,1.5-8.5c0.1-0.6,0.3-1.3,0.2-1.9
				c0-0.3-0.3-0.6-0.6-0.9c0,0-0.4,0.1-0.4,0.3c-0.8,1.6-1.6,3.2-2.2,4.8C61,44,59.9,47,58.8,49.9c-0.3,0.8-0.6,1.5-0.9,2.3
				c0.2,0,0.2,0,0.3,0c1.4-1,3-1.7,4.6-2c0.5-0.1,0.5-0.6,0.5-1c0-0.5-0.3-0.5-0.6-0.6C62,48.6,61.3,48.6,60.7,48.5z M152.9,55.4
				c0.2-0.1,0.4-0.1,0.5-0.1c2.9-1.2,5.8-2,8.8-2.6c2-0.4,3.9-0.8,5.9-1.2c0.2,0,0.4-0.3,0.4-0.5c0-0.3,0-0.8-0.5-0.8
				c-0.3,0-0.5,0-0.8,0.1c-2.8,0.5-5.6,0.9-8.3,1.5c-3.5,0.8-7,1.8-10.4,2.8c-0.7,0.2-1.5,0.7-1.6,1.5c-0.1,0.9,0.1,1.9,0.2,3.1
				c2.2-1.6,4.2-3.1,6.2-4.5c0,0.1,0.1,0.1,0.1,0.2C153.2,54.9,153.1,55.1,152.9,55.4L152.9,55.4z M62.9,52.7
				c-0.4,0.2-0.7,0.2-0.9,0.4c-1.6,0.8-3.1,1.7-4.7,2.6c-1.2,0.7-1.4,1.5-0.4,2.6c1.5,1.8,3.1,3.5,4.6,5.2c0.1,0.1,0.3,0.2,0.5,0.4
				C62.3,60.1,62.6,56.5,62.9,52.7z M160.8,19.7c-0.1,0-0.1,0.1-0.2,0.1c0.1,0.2,0.1,0.4,0.2,0.6c0.6,1.5,1.3,2.9,1.9,4.4
				c1.3,3.1,2.5,6.1,3.8,9.2c0.3,0.8,0.5,1.6,0.8,2.4c0.1,0.5,0.4,0.6,0.7,0.3c0.5-0.3,1-0.6,1.5-0.8c0.7-0.4,0.7-0.4,0.3-1.2
				c-2.9-4.8-5.8-9.7-8.6-14.5C161,20.1,160.9,19.9,160.8,19.7L160.8,19.7z M141.7,49.1c0,0.1,0.1,0.1,0.1,0.2
				c0.7-0.5,1.4-0.9,2.1-1.4c0.4-0.2,0.5-0.5,0.3-1c-0.4-1.6-0.8-3.1-1.1-4.7c0-0.2-0.1-0.3-0.2-0.5h-0.1
				C142.4,44.2,142,46.6,141.7,49.1z M38.3,51.7c0.1,0,0.1,0,0.2-0.1c0.1-0.9,0.1-1.7,0.2-2.6c0.1-0.7-0.2-1.3-0.6-1.7
				c-0.1-0.1-0.4-0.1-0.5,0c-0.4,0.6-0.8,1.2-1.2,1.8c-0.1,0.1-0.1,0.5,0,0.6C37,50.4,37.6,51,38.3,51.7z M146.4,62.6
				c-0.1,0-0.1-0.1-0.2-0.1c-0.8,0.8-1.5,1.6-2.4,2.6c1,0.6,1.9,1.1,2.8,1.6c0.1-0.1,0.1-0.1,0.2-0.2
				C146.7,65.2,146.6,63.9,146.4,62.6z M36.6,142.5L36.6,142.5c-0.4,0-0.7,0.1-1.1,0c-1.2-0.1-2.3-0.1-3.4,0.6
				c-0.2,0.1-0.5,0.2-0.8,0.2c-0.8,0.2-1.6,0.4-2.4,0.6v0.1C31.6,143.6,34.1,143.1,36.6,142.5L36.6,142.5z M93.8,64.6
				c0.1-1.7-0.8-3.1-2.3-3.7C92.3,62.1,93,63.3,93.8,64.6z M66.1,32.8c0,0-0.1,0-0.1-0.1c-0.3,0.6-0.6,1.3-0.9,2
				c-0.1,0.2,0,0.6,0.1,0.7c0.4,0.3,0.5-0.1,0.5-0.4C65.9,34.2,66,33.5,66.1,32.8z"/>
			<path class="st0" d="M44.5,150.2c2.5-0.6,5-1.4,7.5-1.8c6-1,11.9-1.9,17.9-2.8c5.4-0.7,10.8-1.4,16.2-1.9
				c5.1-0.4,10.3-0.5,15.4-0.7c3.4-0.1,6.8-0.3,10.2-0.2c4.1,0.1,8.3,0.5,12.4,0.8c0.8,0.1,1.5,0.3,2.3,0.6
				c-0.7-0.1-1.4-0.1-2.1-0.1c-2.7-0.1-5.5-0.3-8.2-0.2c-2.6,0-5.2,0.3-7.8,0.5c-2.1,0.1-4.3,0-6.5,0.1c-1.2,0-2.5,0.1-3.7,0.1
				c-0.6,0-1.3-0.1-1.9-0.1c-0.4,0-0.9,0.1-1.3,0.2c-1.2,0.1-2.4,0.2-3.5,0.2c-1.7,0.1-3.3,0.2-5,0.3c-1,0.1-1.9,0.1-2.9,0.1
				c-0.7,0-1.4,0.2-2.1,0.6c-0.6,0.4-1.3,0.5-1.9,0.6c-0.5,0.1-1,0.2-1.5,0.4c-0.3,0.1-0.6,0.4-0.8,0.7c-0.3,0.4-0.2,0.8,0.3,1
				c0.8,0.4,1.6,0.6,2.4,0.6c0.9,0.1,1.7,0.7,2.5,1C69.8,150.2,57.2,150.2,44.5,150.2z"/>
			<path class="st0" d="M184.3,150.2c-0.2-0.8-0.7-1.1-1.4-1.1c-0.6,0-1.1-0.1-1.5-0.6l-0.1-0.1c-1.9-0.2-3.2-1.9-4.9-2.4
				c-0.2,0-0.3-0.1-0.5-0.1c-1.3-0.1-2.5-0.7-3.7-1.1c-1.4-0.5-2.9-0.9-4.3-1.3c-1.5-0.4-3.1-0.6-4.6-1c-3.3-0.9-6.7-1.1-10.1-1.6
				c-2.8-0.4-5.6-0.1-8.4-0.5c-0.9-0.1-1.9-0.1-2.8-0.2c-1-0.1-1.8-0.5-2.3-1.4c-0.5-0.9-1.3-1.1-2-1.3c-1.1-0.3-2.3-0.4-3.5-0.5
				c-1.7-0.1-3.5-0.2-5.2-0.3c-0.3,0-0.5-0.2-0.8-0.3c0-0.1,0-0.2,0-0.3c0.2,0,0.5-0.1,0.7-0.1c3.2,0.1,6.4,0.2,9.5,0.4
				c0.6,0,1.1,0,1.7,0.1c0.6,0.1,1.2,0.3,1.8,0.4c1,0.2,1.9,0.3,2.9,0.4c2.6,0.2,5.1,0.2,7.7,0.4c2,0.1,3.9,0.4,5.9,0.7
				c1.5,0.2,3,0.4,4.5,0.6c1,0.1,2,0.3,2.9,0.5c1.4,0.3,2.8,0.6,4.1,1.1c1.5,0.6,3,1.4,4.4,2.1c0.4,0.2,0.7,0.3,1.1,0.4
				c0.1,0,0.2,0,0.3,0.1c0.3,0.7,1,0.7,1.5,0.9c0.7,0.3,1.3,0.7,2,1c1.5,0.6,3.1,1.2,4.6,1.8c0.8,0.3,1.5,0.5,2.3,0.8
				c0.4,0.1,0.9,0.3,1.3,0.4c1.1,0.4,2.2,0.6,2.7,2.1C188.2,150.2,186.3,150.2,184.3,150.2L184.3,150.2z"/>
			<path class="st0" d="M75.2,138c-0.9,0.1-1.8,0.1-2.6,0.2c-3,0.2-6,0.2-9,0.5c-2,0.2-4.1,0.5-6.1,0.9c-0.6,0.1-1.2,0.4-1.7,0.5
				c-0.5,0.1-0.9,0.1-1.4,0.1c0-0.1,0-0.2,0-0.2c0.1-0.1,0.2-0.2,0.3-0.2c0.8-0.2,1.5-0.7,2.4-0.7c0.7,0,1.4-0.4,2.2-0.5
				c1.3-0.2,2.7-0.4,4-0.6c1.4-0.1,2.8-0.3,4.3-0.3c2,0,4,0,6.1,0.1c0.6,0,1.1,0.1,1.7,0.1C75.2,137.9,75.2,138,75.2,138L75.2,138z"
				/>
			<path class="st0" d="M88.4,67.9c-3.7,1.5-7.5,1.6-11.3,1.8C80.9,69.1,84.6,68.5,88.4,67.9z"/>
			<path class="st0" d="M81,70.3c2.9-0.6,6-1.2,8.9-1.8c0,0-0.2,0.1-0.4,0.2c-1.7,0.5-3.5,0.9-5.2,1.4C83.1,70.4,82,70.6,81,70.3z"
				/>
			<path class="st0" d="M117.5,112.1c-0.2,0-0.4,0-0.5,0c-0.7-0.1-1.5-0.2-2.2-0.4c-0.2,0-0.3-0.3-0.5-0.4c0.2-0.2,0.3-0.4,0.5-0.5
				C115.6,110.5,117,111.2,117.5,112.1L117.5,112.1z"/>
			<path class="st0" d="M124,111.1c0.1,0.1,0.4,0.2,0.5,0.4c0.1,0.5-0.3,0.6-0.7,0.6c-0.7,0-1.3,0.1-1.9,0.6c-0.1,0.1-0.3,0-0.4,0
				c0-0.2,0.1-0.4,0.2-0.5C122.2,111.5,122.9,111.1,124,111.1L124,111.1z"/>
			<path class="st0" d="M149,68.4c2.5,0.4,5.1,0.8,7.6,1.2c-2.6,0.3-5.1-0.4-7.6-1C149,68.6,149,68.5,149,68.4z"/>
		</g>
	</g>
</g>
</svg>
