<?xml version="1.0" encoding="utf-8"?>
<!-- Generator: Adobe Illustrator 26.0.1, SVG Export Plug-In . SVG Version: 6.00 Build 0)  -->
<svg version="1.1" id="Слой_1" xmlns:xodm="http://www.corel.com/coreldraw/odm/2003"
	 xmlns="http://www.w3.org/2000/svg" xmlns:xlink="http://www.w3.org/1999/xlink" x="0px" y="0px" viewBox="0 0 238.1 150.2"
	 style="enable-background:new 0 0 238.1 150.2;" xml:space="preserve">
<g id="Слой_x0020_1">
	<path d="M233,1.1c1.3,1.7,2.5,3.5,3.7,5.3l-0.2-2.8h-0.1l-0.3-0.3H236c0-0.2-0.2-0.2-0.2-0.3l-0.3-0.1V2.7
		c-0.2-0.1-0.5-0.3-0.7-0.3V2.3h-0.2V2.2l-0.8-0.3c-0.1,0-0.2,0-0.2-0.2c-0.2,0-0.1-0.1-0.3-0.1l-0.3-0.5L233,1.1
		C233,1.1,233,1.1,233,1.1z M236.8,79.2c-2.8,4.5-6.2,8.7-10.2,12.7c-10.4,10.3-22.8,17-36.7,19.5c-6.3,1.1-18.8,1.1-25.1,0
		c-13.9-2.5-26.5-9.2-36.7-19.5C114.4,78.2,107.6,62,107.6,43c0-15.7,4.9-30.1,14-42H119c-5.9,8.1-10,17.4-12.2,27.4
		c-1.4,6.7-1.5,21.6-0.2,27.8c1.4,6.6,3.6,12.8,6.4,18.5c10.3,20.7,30.1,35.3,53,39c5.6,0.9,17.1,0.9,22.7,0
		c15.1-2.5,28.8-9.4,39.8-20.5c3.1-3.1,5.9-6.5,8.4-10.1L236.8,79.2L236.8,79.2z M229.2,1.1c2.9,3.5,5.4,7.3,7.5,11.4v-2.1
		c-1.8-3.3-3.9-6.4-6.2-9.3H229.2L229.2,1.1z M236.7,35.1c-0.4,0-0.8,0-1.2,0l-6,0l-2.2-2.5c-1.2-1.3-2.3-3.1-2.5-3.9
		c-1.3-5.9-6.9-15.1-12.7-20.8c-4.2-4.2-5.6-6.5-2.5-4c6.5,5.1,13.1,14.6,15.7,22.5c0.7,2.2,1,2.5,2,2.5c1.4,0,1.4-0.2,0-4
		c-3.5-9.2-9.7-17.6-17.4-23.7h-0.9c4,3.2,8.9,8.1,11.3,11.7c2.5,3.6,6.5,11.4,7,13.9c0.6,2.7-0.8,1.1-2.2-2.5
		c-2.8-7.2-8.4-15-14.4-20.1c-1.7-1.5-3.1-2.5-3.8-2.9h-0.6c0.2,0.4,1.6,2,0.3,0.8c-0.4-0.3-0.6-0.6-0.7-0.8h-3.5
		c0.3,0.3,0.5,0.6,0.6,0.8c0.2,0.6-0.4,0.5-2.8-0.8h-1.1c0.9,0.5,1.8,1,2.5,1.5c3,1.9,3.6,2.1,2.7,0.9c-0.5-0.7-0.5-0.7,0-0.2
		c0.4,0.3,0.7,0.9,0.7,1.2c0,0.7,1.5,1.3,1,0.3c-0.3-0.5-0.2-0.5,0.2-0.1c0.3,0.3,0.9,0.4,1.3,0.3c0.9-0.3,7.6,6.4,10.2,10.2
		c2.6,3.8,4.7,8.1,6.1,12.2c0.9,2.5,1.8,4,3.4,5.8l2.3,2.4c2.4,0,4.8,0,7.2,0V35.1z M236.7,37.1c-3.1-0.1-6.2-0.1-9.3-0.2l-1.6-2.3
		c-0.9-1.3-2.1-3.8-2.7-5.6c-1.1-3.8-4.1-10-6.4-13.2c-1.8-2.6-8.3-9.5-9.7-10.2c-0.5-0.3,0.7,1.1,2.7,3c6.3,6.2,9.8,11.7,12.5,19.6
		c0.9,2.6,2.2,5.5,3.3,6.8l1.7,2.4h6.9c1,0,1.8,0,2.6,0V37.1z M236.7,39.5c-3.4-0.1-6.7-0.1-10.1-0.2l-1.6-2
		c-2.2-2.7-2.2-2.5-3.6-7.4c-1.4-4.9-4.5-10.9-7.6-15c-1.2-1.5-2-2.9-1.9-3.1c0.4-0.4-2.8-3.7-3.5-3.5c-0.3,0.1-1.9-0.9-3.6-2.2
		c-2.4-1.8-5.5-3.6-8.7-5h-1.3c5.5,2.5,12.4,6.9,12.4,8.1c0,0.8,2.4,3.1,4,3.9c2.7,1.4,8.5,11.8,10.2,18.7c0.9,3.2,2.9,5.5,4.9,8
		h7.6c1,0,2,0,2.8,0L236.7,39.5L236.7,39.5z M236.7,40.7c-1.1,0-2.5,0-4.2,0.1l-8.2,0.1l-1.4-2.1c-0.8-1.2-1.8-3.8-2.5-6.3
		c-0.6-2.3-1.7-5.6-2.5-7.4c-1.6-3.6-4.3-8-4.7-7.6c-0.1,0.1,0.2,0.8,0.7,1.6c2.6,3.7,6.4,13.1,6.4,15.8c0,1.2,2.7,5.2,3.5,6.4h4.7
		c3.6,0,4.8,0.2,5.3,0.7c0.5,0.6-0.1,0.7-5.2,0.7h-5.8l-1.5-2.1c-1-1.4-1.7-3.3-2.3-5.8c-0.9-4.1-2.4-8.5-4.1-11.8
		c-0.6-1.2-1.2-2.5-1.2-2.9c0-0.5-0.6-1.5-1.2-2.4c-0.7-1.1-0.8-1.4-0.3-1c0.6,0.5,0.8,0.5,0.8,0c0-1.1-8.5-8.9-12.1-11.2
		c-2.9-1.8-6.2-3.4-9.3-4.5h-2c0.4,0.1,0.9,0.3,1.5,0.5c4.3,1.4,8,3.3,11.5,5.8c3.7,2.6,9.1,8.2,8.7,8.9c-0.2,0.2-1.8-1-3.8-3
		C202.4,8,196,4.1,189.1,2.1c-1.2-0.3-2.2-0.8-2.6-1.1L177.3,1l0,0.2c0,1.1-0.1,1.2-2.7,1.2c-2.5,0-2.7,0-2.7-1.2l0-0.1h-9.6
		c-0.5,0.4-1.4,0.8-2.4,1.2c-3,1.2-8.5,4.4-8.1,4.8c0.1,0.1,0.8-0.2,1.6-0.7c1.6-1.1,6.7-3.7,8.2-4.1c0.6-0.2,1.1-0.1,1.1,0.1
		c0,0.6-7,4.1-8.2,4.2c-1.1,0.1-3.8,2.1-3.8,2.8c0,0.3-0.9,1.3-2,2.1c-2.7,2.1-7.4,8.3-9.6,12.9c-2.1,4.3-3.7,9.5-4.1,13.8l-0.3,2.9
		l5.2,5.2c2,0,16.7-0.1,16.7,0.3c0,0.5-16.8,0.6-19.1,0.6l-4.2-3.8l0.5-4.7c0.3-2.6,1-6.2,1.6-8.1c1.4-4.6,4.8-10.9,7.7-14.6
		c1.4-1.7,2.3-3.1,2.2-3.3c-0.6-0.5-5.3,6.2-7.5,10.7c-2.7,5.5-4.2,10.5-4.7,16.3l-0.3,4l4.6,4h5.2c4.3,0,5.3,0.1,5.3,0.7
		c0,0.6-0.9,0.7-5,0.7c-4.8,0-5.1,0-7,1.5c-1.1,0.8-2,1.5-2,1.6c0,0.6,1.8,5.9,2.7,8.2c1.6,3.9,5.5,9.7,7.9,12
		c1.9,1.8,1.8,1.7-0.6-1.3c-4.4-5.4-7.1-10.6-8.7-16.5l-0.6-2.3l1.7-1.4c1.6-1.3,1.8-1.4,6.9-1.4c3.1,0,5.2,0.2,5.2,0.5
		c0,0.3-1.6,0.5-3.8,0.5c-3.7,0-3.8,0-6,1.9c-2.6,2.3-2.6,2.2,0.2,8.2c1.1,2.3,2,4.4,2,4.8c0.1,1.1,1.9,3.8,2.4,3.8
		c0.2,0,1.1,0.6,1.9,1.3c1.2,1.2,1.4,1.2,0.9,0.3c-0.3-0.6-0.8-1.2-1-1.3c-0.3-0.1-0.5-0.7-0.5-1.2s-0.9-1.8-1.9-2.9
		c-2.2-2.3-2.9-3.6-4.6-7.9l-1.2-3l1.9-1.5c1.7-1.4,2.2-1.5,5.5-1.5c2.1,0,3.7,0.2,3.7,0.5c0,0.2-1.3,0.5-2.7,0.5
		c-2.5,0-3,0.2-4.6,1.7c-1.4,1.3-1.8,1.9-1.5,2.7c0.5,1.6,3.4,7.2,4.3,8.3c1.1,1.3,0.9,0.8-1.8-4.6l-2.3-4.6l3.6-3l6.9,0.1
		c3.8,0,6.9,0.2,6.9,0.4c0,0.5-9.5,0.4-10.8,0.4l-1.8,1.5c-1,0.9-2.2,1.8-2.6,2.1c-0.8,0.5-0.8,0.6,0,2.3c0.5,1,1,1.8,1.3,1.8
		c0.2,0,1.1,1.2,2,2.6c0.9,1.4,1.9,2.7,2.3,2.9c0.7,0.4,0.6,0.4-1.7-3.1c-0.9-1.4-1.6-2.7-1.4-3c0.1-0.2,0-1.1-0.5-1.9
		c-0.8-1.4-0.8-1.5,0.5-2.9c0.9-0.9,1.8-1.4,2.7-1.4c1.6,0,1.7,0.5,0.3,1.7c-0.6,0.5-1.4,1.5-1.9,2.2c-0.9,1.3-0.9,1.3,1.1,4.2
		c1.7,2.6,1.9,3.2,1.6,4.8l-0.3,1.8l-1.6-1.9c-2-2.4-2.2-1.7-0.1,0.8c1.2,1.5,1.4,2.1,1.1,3.5c-0.2,1.4-0.1,1.8,0.6,2
		c1.2,0.3,1.4,0.5,5.1,3.2c1.7,1.3,4.7,3.1,6.8,4.1c2.1,1,3.8,2.1,3.8,2.4c0,1.3-8.2-3-13.3-7c-2.8-2.2-3-2.3-1.7-0.9
		c2.2,2.4,8,6.1,11.9,7.8c2.9,1.2,3.9,2.1,2.5,2.1c-2.2,0-15.9-8.2-15.1-9c0.4-0.3-3.1-4-3.6-3.7c-0.5,0.3-4.2-4.8-6.5-9.1
		c-5.4-10.1-6.6-23.7-3-34.6c2-6.1,7.1-14.8,9.5-16c1.5-0.8,4-3.1,4-3.9c0-1.2,6.7-5.7,12.3-8.2l0.1,0h-1.4
		c-2.8,1.3-5.1,2.7-8.2,4.8c-2,1.4-3.8,2.5-4,2.4c-0.2-0.1-1,0.4-1.9,1.2c-0.9,0.8-0.4,0.2,1.1-1.2c2.8-2.6,6.4-5.2,10.3-7.2h-1.3
		c-3.6,2-6.9,4.5-10.5,8c-2.4,2.2-4.2,4.3-4.2,4.6c0,0.3,0.7-0.2,1.4-1.1c2.3-2.7,2.1-0.6-0.3,2.5c-5,6.5-8.3,15-9.4,23.7
		c-1.2,10.4,2.3,22.8,8.7,31.3c1.4,1.7,2.4,3.5,2.4,3.8c0,0.8,1.8,2.3,0.3,1.3c-1.9-1.4-5.7-7.1-8.1-11.8
		c-6.5-13.4-6.2-29.7,0.8-42.5c0.9-1.7,1.6-3.2,1.4-3.3c-0.5-0.4-5.1,9.8-6.2,13.7c-1.5,5.5-1.5,18,0,23.4c2.6,9.1,6.6,16,13.2,22.6
		c2.4,2.4,3.9,4.1,3.4,4.1c-1.1,0-7.4-6.2-10-9.8c-8.3-11.6-11.2-27.6-7.4-41.5c1.3-4.8,5-12.6,5.9-12.6c1.8-0.1,2-0.2,1.9-1.1
		c0-0.5,0.1-0.8,0.2-0.6c0.3,0.3,1.5-0.6,1.5-1.3c0-0.2-0.2-0.3-0.4-0.2c-0.2,0.1-0.4-0.2-0.4-0.8c0-2.2,6.9-8.4,13.2-12.3H151
		c-3.3,2-6.2,4.3-9.1,7.3c-3.1,3.1-4.5,4.2-5.8,4.3c-0.5,0.1-1.2,1.5-0.2,1c0.9-0.6,0.1,0.5-0.6,0.5c-0.7,0-1.3,1.5-0.3,1
		c0.9-0.6,0.1,0.5-0.7,0.5c-0.9,0-5,8.6-6.4,13.5c-1.3,4-1.4,5-1.4,13.5c0,8.1,0.1,9.6,1.1,13.2c2.5,9.1,7.7,17.7,14.7,24.3
		c3.9,3.7,5.8,5.1,4.9,3.5c-0.5-0.8,0.5,0.1,0.5,0.7c0,0.7,5.5,4.1,9.6,5.8c20,8.5,42.6,3.5,57.8-12.6c3.4-3.7,4.6-5.4,3.1-4.6
		c-0.9,0.4,0-0.5,0.7-0.5c0.7,0,1.3-1.5,0.4-1c-0.4,0.2-0.5,0.2-0.3-0.2c0.2-0.3,0.5-0.4,0.8-0.3c0.2,0.1,0.7-0.3,1.2-1
		c0.8-1.3,0.6-1.6-0.4-0.6c-0.3,0.3-0.5,0.5-0.4,0.4c0.1-0.2-1.8-1.6-2-1.4c0,0.1-0.7,1-1.4,2c-0.7,1-1.2,2.1-1.1,2.5
		c0.4,1-7.5,8.4-11.6,11.1c-6.5,4.2-14,6.8-21.7,7.6l-3,0.3v-2.7c0-2,0.1-2.6,0.7-2.6c0.5,0,0.7,0.5,0.7,2v2l2.8-0.3
		c6.5-0.7,14.8-3.9,20.7-8c3.3-2.2,9.7-8,9.7-8.8c0-0.3-1.9,1.3-4.3,3.6c-6.6,6.2-13.8,10-22.6,11.9c-5.8,1.3-5.9,1.3-5.9-0.7
		c0-1.8,0.7-2.3,1.1-0.7c0.2,0.9,0.5,1,2.6,0.6c3.3-0.5,9.6-2.5,12.9-4.2c3.3-1.6,7.9-4.7,8.9-5.8c0.3-0.4,1-0.8,1.4-0.8
		c0.9,0,4-2.8,4-3.7c0-0.8,4.4-6.6,7.1-9.5l2.2-2.3l9,0c2.7,0,4.8,0,6.3,0.1v-0.4c-5.5,0-14.1-0.2-15.7-0.2
		c-2.6,2.8-5.3,5.6-7.4,8.7c-1.2,1.6-2.3,2.8-2.5,2.7c-0.5-0.3-4,3.3-3.6,3.7c0.5,0.5-5.9,4.9-10.2,7c-3.6,1.8-8.5,3.4-12.6,4.1
		c-1.2,0.2-1.6,0.1-1.6-0.4c0-0.4,0.4-0.7,1.1-0.7c1.7,0,8.1-1.9,11.4-3.4c6.8-3.1,14.1-9.1,18.1-15.1c1.1-1.6,3-4,4.3-5.4l2.5-2.5
		l8.9,0c3,0,5.5,0.1,7.3,0.2v-0.3c-1.9-0.1-4.3-0.2-6.9-0.2l-9.9-0.2c-2.3,2.5-4.6,5-6.5,7.8c-5.5,8.2-13.8,14.3-23.3,17.2
		c-3.9,1.2-3.7,1.2-3.7,0.4c0-0.3,1.4-1,3-1.4c1.6-0.5,4.6-1.7,6.6-2.6c2-1,3.9-1.7,4.1-1.7c0.9,0,3.6-1.9,3.6-2.5
		c0-0.3,1.4-1.8,2.9-3.4c1.6-1.6,4.2-4.7,5.8-7c1.6-2.3,3.7-4.9,4.6-5.9l1.7-1.8h9.9c3.3,0,5.9,0,7.8,0.1v-0.6
		c-0.9,0-1.8-0.1-2.8-0.1c-4.5,0-5-0.1-4.5-0.7c0.6-0.7,4.2-0.9,7.3-0.7v-0.5c-0.8,0-1.7-0.1-2.5-0.1c-4.4,0-5.4-0.2-4.4-1.2
		c0.3-0.3,3.8-0.3,6.9-0.1v-0.6c-0.7,0-1.5-0.1-2.3-0.1c-3,0-5-0.2-5-0.5c0-0.5,3.8-0.6,7.3-0.5v-0.4l-0.2,0c-5-0.2-6.8-0.4-6.9-0.9
		c-0.2-0.5,3.6-0.6,7.2-0.5v-0.5c-1.1,0-6.9-0.2-7.2-0.9c-0.1-0.4,0.5-0.6,2-0.6c1.2,0,2.2,0.2,2.2,0.5c0,0.3,1.5,0.5,2.9,0.5v-1.9
		c-2-0.1-4.6-0.2-8.2-0.2l-11.8-0.2l-1.1-1.5c-0.8-1.2-1.1-2.5-1.3-6.2c-0.8-13.8-9.5-26-22.5-31.7c-2-0.9-4-1.6-4.4-1.6
		c-0.5,0-0.9-0.3-0.9-0.7c0-0.9,1.4-0.6,5.5,1.1c4.2,1.8,9.3,5.1,12.5,8.5c3.3,3.3,6.7,8.2,6.3,8.9c-0.3,0.5,1.1,3.4,2,4.1
		c0.9,0.7,2.1,5.2,2.6,9.8c0.4,3.3,0.7,4.3,2.1,6.2l1.6,2.3c5.9,0.1,11.7,0.2,17.6,0.4v-3.2c-1.4,0-3.2,0-5.6,0.1l-9.7,0.2l-1.8-2.2
		c-1.2-1.5-1.7-2.6-1.7-3.8c0-2.3-1.3-7.4-2.7-11c-1.4-3.4-4.5-8.9-4.9-8.5c-0.1,0.1,0.2,0.9,0.8,1.7c2.8,3.9,6.3,14,6.3,18.1
		c0,1.1,0.6,2.3,2,4l2,2.5c1.6,0,12.4-0.2,12.4,0.5c0,0.6-12.6,0.5-14.4,0.5l-1.3-1.7c-1.1-1.4-1.5-2.7-2-6.2c-0.3-2.4-1-5.6-1.4-7
		c-0.4-1.4-0.8-3.1-0.9-3.6c-0.1-1.2-1.3-3.6-1.6-3.6c-0.2,0-1.3-1.4-2.4-3.1c-4.7-7.1-12.4-12.9-20.5-15.5
		c-1.6-0.5-2.8-1.1-2.8-1.5c0-0.7,0.3-0.7,5.2,1.1c5,1.8,9.7,4.9,14.3,9.4c2.3,2.3,4.2,4.1,4.2,3.9c0-0.1-1-1.4-2.2-2.8
		c-4.3-5-12.3-10.1-18.6-12c-1.7-0.5-2.8-1.1-2.8-1.4c0-0.9,3.6,0.1,8.6,2.5c2,0.9,4.9,2.5,6.5,3.8c3.4,2.4,8.7,7.6,8.4,8.3
		c-0.2,0.7,2,4,2.7,4c0.7,0,3.6,6,4.8,9.9c0.4,1.3,0.9,3.6,1.2,5.1c0.5,3.2,1.9,4.8,3.7,7.2l9,0c2.1,0,3.8,0,5.3,0.1L236.7,40.7
		L236.7,40.7z M236.8,73.1c-9.3,18.2-27.4,31.8-47.9,35.3c-6.1,1.1-17.1,1.1-23.2,0c-25.2-4.5-45.8-23.1-52.8-47.9
		c-3.4-12.1-2.9-26.7,1.2-39.1C116.6,14,120.5,7,125.4,1h-1.3c-7.2,9.1-12,20-13.9,31.9c-0.8,4.9-0.7,15.6,0.2,21
		c1,6.3,3.6,13.8,6.8,20c7.8,15.2,22.3,27.7,38.4,33c7.4,2.5,13.1,3.4,21.7,3.4c8.6,0,14.2-0.9,21.7-3.4
		c15.7-5.2,29.9-17.2,37.8-31.9C236.8,75,236.8,73.1,236.8,73.1z M173.5,1c0.1,0.5,0.1,0.4,0.2,0H173.5z M175.5,1
		c0.2,0.3,0.3,0.4,0.4,0H175.5z M144.8,1c-9.2,7.1-16,17.3-19,28.5c-1.2,4.3-1.3,5.6-1.3,13.2c0,7.2,0.1,9,1,12.4
		c3,11.2,7.4,18.6,15.9,26.6c20.7,19.5,53.3,18.8,73.7-1.7c4.6-4.6,9.7-12.1,10.6-15.6c0.2-0.7-0.5,0.3-1.5,2.2
		c-4.3,7.8-8.9,13.3-15.1,18c-6.7,5-15.6,8.9-23.6,10.1c-7.7,1.2-18.2,0.3-25.2-2.2c-32.9-11.7-45.8-49.9-26.5-79
		c1-1.5,3.6-4.6,5.8-6.9c2-2,4.1-3.9,6.3-5.6L144.8,1L144.8,1z M147.8,1c-3.9,2.8-11.5,10-11.5,11c0,0.2,2.1-1.7,4.7-4.3
		c2.6-2.7,5.1-4.8,7.8-6.7H147.8z M170.1,7.7l0.1,6.4h8.7l0.3-12.7h5.2l0.3,12.7l3.4,0.3c9.3,0.9,15.7,6.6,15.7,14.1
		c0,3.6-1.2,6.2-3.8,8.9c-1.1,1.1-2,2.2-2,2.4c0,0.2,0.8,1,1.8,1.5c3,1.9,5.9,4.8,7.2,7.4c1.1,2,1.3,3,1.3,6.3c0,4.8-1.4,7.6-5.1,11
		c-4.1,3.7-8.3,5.4-14.7,6l-3.8,0.3l-0.3,12.3l-5.2,0L179,72.3l-8.7,0L170,84.6h-5.2l-0.3-12.3l-16.1-0.2c0.6-2.4,1.3-4.8,1.9-7.2
		h3.3c1.8,0,3.6-0.1,4.1-0.3c0.7-0.2,0.8-2.6,0.8-21.8s-0.1-21.6-0.8-21.8c-0.4-0.1-2.7-0.3-5.1-0.3h-4.3v-6.3l16.2-0.2l0.3-12.7
		h5.2L170.1,7.7L170.1,7.7L170.1,7.7z M177.3,3.2c0,0.5-4.7,1.3-5.2,0.9C172,4,172,3.6,172.2,3.3C172.6,2.7,177.3,2.6,177.3,3.2
		L177.3,3.2L177.3,3.2z M162.8,4.9c0,0.9-0.5,1.3-1.9,2c-1.1,0.5-1.9,1-1.9,1.3c0,0.5-5.1,3.3-4.7,3.6c0.1,0.1,1.1-0.3,2.1-1
		c1-0.7,2.2-1.3,2.7-1.3s1.5-0.3,2.4-0.7c1.9-0.9,1-0.3-2.6,1.9c-2.4,1.4-3.1,1.6-6.5,1.6l-3.8,0.1c0.5-0.5,2.1-2.4,2.8-2.3
		c0.8,0.2,4.2-2,3.9-2.5c-0.2-0.4,6.1-3.8,7-3.8C162.7,3.8,162.8,4.7,162.8,4.9L162.8,4.9z M177.3,5.2c0,0.2-0.5,0.5-1.2,0.5
		c-0.6,0-1.8,0.1-2.7,0.3c-1.2,0.2-1.5,0.1-1.5-0.5c0-0.6,0.5-0.8,2.7-0.8C176.1,4.7,177.3,4.9,177.3,5.2L177.3,5.2z M177.3,6.9
		c0,0.6-0.6,0.7-2.7,0.7c-2.7,0-3.7-0.8-1.3-1.1C176.3,6.1,177.3,6.2,177.3,6.9z M193,10c12.2,5.8,20,17.4,20.8,30.8
		c0.2,4,0.5,4.8,1.6,6.5c1.6,2.3,2.5,2.2,5,2.7l-1.4,0.4c-2.3,0.7-3.3,0.2-6.8-3.5c-2.5-2.6-3.1-3.6-2.5-3.7
		c0.5-0.1,0.8-0.6,0.8-1.3c0-0.9-0.2-1.2-1.2-1.2c-1.5,0-1.6-1,0-1c1,0,1.2-0.2,1.2-1.2s-0.2-1.2-1.3-1.3l-1.4-0.1l1.4-0.2
		c1-0.1,1.3-0.5,1.3-1.4s-0.2-1.2-1.3-1.2c-1,0-1.1-0.1-0.4-0.3c0.5-0.1,1.2-0.4,1.5-0.7c0.7-0.6,1.6,4.4,1.7,9.2
		c0,2.9,0.1,3.3,0.5,2.4c0.7-1.6-0.2-9.1-1.6-13.1c-3.3-10.1-11-18.2-20.9-22c-1.8-0.7-3.4-1.6-3.6-1.9C186.2,7.2,188.5,7.9,193,10
		L193,10L193,10z M177.2,8.7c-0.2,0.7-5.2,1.2-5.2,0.4c0-0.6,1.2-0.9,3.5-1C176.8,8.1,177.3,8.3,177.2,8.7z M162.8,10
		c0,0.7-3.8,2.5-4.7,2.3c-0.5-0.1,0-0.6,1.6-1.5C162.3,9.5,162.8,9.3,162.8,10L162.8,10z M187.8,9.8c-0.4,0.4-1.9-0.2-0.6-0.2
		C187.7,9.5,187.9,9.7,187.8,9.8z M177.3,11.2c0,1.2-0.1,1.2-2.7,1.2s-2.7,0-2.7-1.2c0-1.2,0.1-1.2,2.7-1.2S177.3,10.1,177.3,11.2z
		 M199.3,15.9c3.2,2.7,5.5,5.3,7.5,8.6c1.6,2.5,1.7,2.7,0.8,3c-1.4,0.3-1.3,2.1,0.1,2.5l1.1,0.4c-1.5,0.3-2.2,0.1-2.2,2
		c0,0.9,0.3,1.7,0.6,1.8c0.3,0.1,0.1,0.3-0.5,0.3c-0.9,0-1.1,0.3-1.1,1.3c0,0.9,0.2,1.2,1.1,1.3h1.1l-1.1,0.4
		c-1.4,0.6-1.5,2.4-0.1,2.4c1.3,0,1.2,1,0,1c-0.7,0-1,0.3-1,1.2c0,0.9,0.2,1.2,1.1,1.2c0.7,0,2.4,1.3,5.1,4l4.1,4.1l-2.4,0.1
		c-2,0.1-2.4,0.3-2.4,1.1c0,0.9,0.4,1,3.3,1.1l3.3,0.1l-0.2-1.3c-0.2-1.3,0.1-1.4,1.8-0.7c0.9,0.4,0.9,0.4-0.1,0.4
		c-0.6,0-1.1,0.2-1.1,0.4c0,0.2,0.5,0.7,1.1,1c1,0.5,0.9,0.5-0.9,0.5c-1.7,0-2.2,0.3-4.4,2.8c-1.4,1.5-3.1,4.1-4.1,5.6
		c-3,5.3-11.5,13.2-14.6,13.5c-1.4,0.1-4.2,1.5-4.2,2.1c0,0.2-1.1,0.7-2.4,1.2c-1.9,0.6-2.4,0.7-2.4,0.1c0-0.3,1.2-1,2.6-1.5
		c2.6-0.8,4.9-2.1,7.3-3.3l-3.6-0.2c-3.9-0.3-3.8-0.5,0.6-1.4c6.5-1.3,13-6.1,15.6-11.5c1.2-2.3,1.4-3.3,1.4-6.5
		c0-5.1-1.4-8.2-5.8-12.2c-1.7-1.6-3.4-2.9-3.6-2.9c-0.3,0,0.1-0.8,1-1.7c3.6-4,4.8-9.4,3.2-14.1c-1.6-4.8-8.1-10.1-13.3-10.9
		c-1.5-0.2-1.7-0.4-1.5-1.4l0.2-1.2C193.5,12.1,196.7,13.7,199.3,15.9L199.3,15.9L199.3,15.9z M162.8,12c0,0.2-0.5,0.5-1.1,0.5
		c-0.9,0-1-0.1-0.4-0.5C162.3,11.3,162.8,11.3,162.8,12L162.8,12z M145.1,18.1c-3.6,4.6-6.2,10.1-7.5,15.9c-1.1,4.9-1,5.4,1.2,8
		l2,2.2c0.9,0,7.1-0.1,7.1,0.5c0,0.6-7.4,0.5-8.5,0.5l-4.1-4.2l0.5-3.6c1-7.2,3.8-13.9,8.1-19.7c1.7-2.3,2.4-2.9,2.5-2.3
		C146.4,15.9,145.8,17.1,145.1,18.1L145.1,18.1L145.1,18.1L145.1,18.1z M134.8,16.8c0,0.3-0.5,1.4-1.2,2.6
		c-1.5,2.6-3.8,8.8-4.9,13.3c-1.4,5.6-1.2,16.1,0.5,22.1c2.4,9.1,6.6,16.3,13.2,22.9c2.2,2.2,4,4.4,3.9,4.8
		c-0.2,1.2-8.1-7-11.1-11.5c-3.2-4.9-5.6-10.1-7.2-15.8c-1-3.6-1.1-5.1-1.1-12.7c0-8,0.1-9,1.4-13C130.3,22.6,134.8,13.9,134.8,16.8
		L134.8,16.8z M145.2,20.7c-2,2.7-5.1,9.6-5.9,13.5l-0.8,3.8l2.4,2.4c2.3,2.3,2.5,2.4,5,2.4c1.6,0,2.5,0.2,2.3,0.5
		c-0.1,0.2-1.7,0.5-3.5,0.5c-3.1,0-3.2,0-5.3-2c-1.2-1.1-2.1-2.5-2.1-3c0-2.3,2.1-9.3,3.8-12.9c2.3-4.8,5-8.6,5.3-7.4
		C146.4,18.8,145.9,19.8,145.2,20.7L145.2,20.7L145.2,20.7z M144.3,25.9c-1.2,2.3-2.5,5.5-3,7.3l-0.9,3.3l1.9,2.1
		c1.6,1.8,2.2,2.1,3.7,2.2c1.3,0,1.8,0.3,1.8,0.8c0,0.5-0.6,0.7-2.3,0.7c-2.1,0-2.5-0.2-4.4-2.2L139,38l1-4.1
		c1.1-4.5,2.5-7.9,4.7-11.3C146.9,19.1,146.7,21.3,144.3,25.9C144.3,25.9,144.3,25.9,144.3,25.9z M147.8,22.9
		c-0.1,0.2-1.1,2.3-2.3,4.6c-2.8,5.7-3,7.3-1,9.6l1.5,1.8h5.3c4.3,0,5.3,0.1,5.3,0.7c0,0.8-2.2,1-2.7,0.2c-0.3-0.6-5.5-0.6-5.8,0
		c-0.1,0.2-1,0.5-1.9,0.5c-1.4,0-1.9-0.4-3.3-2.1l-1.7-2.1l0.8-2.6c1.5-5.2,4.4-11,5.5-11C147.7,22.5,147.9,22.7,147.8,22.9
		L147.8,22.9L147.8,22.9L147.8,22.9z M149.5,23.8c-1.6,2.5-3,5.2-3.8,7.3l-0.7,2.1l3.4,4.2c1,0,8.2-0.1,8.2,0.5
		c0,0.6-8.8,0.5-10,0.5c-0.7-0.8-3-3.2-3-4.1c0-1.2,2.4-6.9,4-9.5c0.8-1.3,1.7-2.3,2.1-2.3C150.3,22.5,150.3,22.7,149.5,23.8
		L149.5,23.8L149.5,23.8L149.5,23.8z M156.5,23.3c0,0.5-0.5,0.7-1.4,0.7c-1.2,0-1.7,0.4-2.9,2.3c-0.8,1.3-1.4,2.6-1.4,3
		c0,1.2,3.4,4.4,4.7,4.4c0.7,0,1.1,0.3,1.1,0.7c0,0.5-0.6,0.7-2.5,0.7c-2.2,0-2.8-0.2-4.1-1.5c-0.9-0.9-1.6-1.8-1.6-2.2
		c0-0.9,1.8-4.4,3.2-6.3c0.7-0.9,1.1-1.7,1-1.8c-0.4-0.4-3.1,3.8-4.2,6.3l-1,2.3l2.1,2.1c1.9,1.9,2.2,2.1,4.6,2.1
		c1.4,0,2.6,0.2,2.6,0.5c0,0.3-1.5,0.5-3.7,0.5c-3.5,0-3.8-0.1-5.3-1.5c-0.9-0.9-1.6-2-1.6-2.5c0-1.3,2.6-6.8,4.1-8.8
		c1.1-1.3,1.4-1.5,3.8-1.6C156,22.5,156.5,22.7,156.5,23.3L156.5,23.3L156.5,23.3L156.5,23.3z M153.9,28.5l0,3.6
		c-0.5-0.5-2.7-2.4-2.7-2.9c0-0.4,2.4-4.2,2.7-4.2C153.9,24.9,153.9,28.3,153.9,28.5z M155.6,25.7c0,1-1,0.9-1,0
		C154.6,24.8,155.6,24.7,155.6,25.7z M156.4,26c-0.4,0.9-0.4-1.4,0-0.9C156.5,25.2,156.5,25.7,156.4,26z M156.4,29.4
		c-0.4,0.9-0.4-1.4,0-0.9C156.5,28.6,156.5,29,156.4,29.4z M155.6,29c0,0.4-1,0.9-1,0.3C154.6,28.6,155.6,28.8,155.6,29z
		 M210.3,31.7l0.3,1.2c-0.5-0.8-1.4-2.2-1.4-3.1c0-0.6,0-0.6,0.4,0C209.8,30.1,210.1,31,210.3,31.7
		C210.3,31.7,210.3,31.7,210.3,31.7z M155.6,32.1c0,0.7-1,1.2-1,0.3C154.6,31.4,155.6,31.5,155.6,32.1z M156.4,32.7
		c-0.4,0.9-0.4-1.4,0-0.9C156.5,32,156.5,32.4,156.4,32.7z M156.5,41.5c0,0.5-0.5,0.7-1.4,0.7c-1,0-1.4-0.2-1.4-0.7
		c0-0.5,0.5-0.7,1.4-0.7C156.1,40.8,156.5,41.1,156.5,41.5z M156.5,43.2c0,0.6-2.9,0.6-2.9,0C153.6,42.6,156.5,42.6,156.5,43.2z
		 M156.5,44.7c0,0.6-3.1,0.7-2.7,0C154.2,44.1,156.5,44,156.5,44.7z M156.5,48.3c0,0.8-2.2,1-2.6,0.3c-0.4-0.6,0.2-1,1.5-1
		C156.1,47.5,156.5,47.8,156.5,48.3z M156.5,50c0,0.6-2.9,0.6-2.9,0C153.6,49.3,156.5,49.3,156.5,50z M156.5,51.9
		c0,0.6-2.3,0.6-2.7,0C153.5,51.2,156.5,51.2,156.5,51.9z M156.5,55.2c0,0.6-2.9,0.6-2.9,0C153.6,54.6,156.5,54.6,156.5,55.2z
		 M219.3,55.2l1.2,0.3l-1.3,0.3c-1.6,0.5-6.4,5.5-8.6,9.2c-3.6,5.9-11,12.1-17.9,14.8c-4,1.6-6.4,2.1-6.1,1.3c0.2-0.6,5.1-2.4,5.5-2
		c0.3,0.3,3.1-0.9,3.5-1.5c0.2-0.3,1.6-1.4,3.2-2.4c4-2.6,9.4-8.1,11.7-12.1c2.3-3.8,6.2-8.4,7-8.3C217.8,54.9,218.6,55,219.3,55.2
		L219.3,55.2z M156.5,57.2c0,0.3-1.3,0.5-2.8,0.5c-2.6,0-3,0.2-4.8,1.7l-2,1.7l0.9,1.3c0.6,0.8,0.8,1.5,0.6,1.9
		c-0.3,0.4-0.9-0.1-1.9-1.8c-0.8-1.3-1.5-2.5-1.5-2.7c0-0.2,0.5-1,1.1-1.7c1-1.3,1.2-1.4,5.8-1.4C154.7,56.7,156.5,56.9,156.5,57.2
		C156.5,57.2,156.5,57.2,156.5,57.2z M220.5,57.7c0.1,0.2-0.2,0.4-0.8,0.4c-1.3,0-5.1,4-7.8,8.2c-2.3,3.6-7.8,9.1-9.1,9.1
		c-0.5,0-1.8,0.9-2.8,1.9c-2.3,2.2-4.8,3.5-9.5,5.1c-3.9,1.3-4.1,1.3-4.1,0.5c0-0.3,0.7-0.8,1.4-1c2.8-0.5,8-2.8,11.6-5.1
		c4.3-2.8,9.1-7.6,12.2-12.2c1.2-1.9,3-4.4,4.1-5.6c1.6-1.8,2.2-2.2,3.2-2C219.7,57.2,220.4,57.5,220.5,57.7L220.5,57.7L220.5,57.7z
		 M153.9,59.2c-0.1,0.6-0.3,1.5-0.3,1.9c0,0.7-0.4,0.9-1.6,0.9c-0.9,0-1.7,0.3-1.9,0.6c-0.3,0.8-2-0.1-2.1-1.1
		c-0.2-1,3.2-3.3,4.8-3.3C154.1,58.1,154.2,58.3,153.9,59.2C153.9,59.2,153.9,59.2,153.9,59.2z M156.4,59.2c-0.4,0.9-0.4-1.4,0-0.9
		C156.5,58.4,156.5,58.9,156.4,59.2z M155.6,59.1c0,0.8-0.5,0.4-0.7,0C154.5,58.4,155.6,58.5,155.6,59.1z M217.1,74
		c0.4,0.7-7.1,7.9-11.1,10.6c-12.8,8.6-28,11.1-42.5,7c-5.3-1.5-13.6-5.4-12.9-6.1c0.3-0.3,1.8,0.2,4.2,1.4
		c3.6,1.8,9.7,3.9,13.1,4.6l1.5,0.3l0.2-5.5l0.3,4.9l2.2,0.3c4.6,0.6,4.5,0.7,4.3-3.1c-0.1-1.9,0-3.4,0-3.4c0.8,0,1.5,2.1,1.5,4.2
		c0,1.8,0.2,2.6,0.7,2.8c0.4,0.1,2.6,0,4.9-0.3c11-1.4,22.1-7.2,29.4-15.1C216.2,73.5,216.6,73.2,217.1,74
		C217.1,74,217.1,74,217.1,74z M156.7,74.3c-0.5,0,9.2,19.2-6.4,0.4c-0.6-0.7-0.1-0.8,4.8-0.7C160.1,74.2,160.2,74.2,156.7,74.3
		L156.7,74.3L156.7,74.3z M177.3,75c0,1.1-0.5,1.2-3.5,0.7c-2.9-0.5-2.4-1.6,0.8-1.6C176.9,74,177.3,74.1,177.3,75L177.3,75
		L177.3,75z M186.8,77.2c-0.1,0.8-0.2,0.2-0.2-1.1c0-1.3,0.1-1.9,0.2-1.3C186.9,75.4,186.9,76.5,186.8,77.2z M160.1,76.1
		c0.3,1.2,0,2.7-0.6,2.7c-0.6,0-5.4-3.1-5.4-3.5c0-0.2,1.3-0.4,2.8-0.4C159.6,75,159.8,75.1,160.1,76.1L160.1,76.1z M193.1,75.7
		c-0.8,0.4-2.2,1.1-3.3,1.4c-1.6,0.6-1.9,0.6-1.9,0c0-0.4,0.3-0.7,0.7-0.7c0.4,0,0.7-0.3,0.7-0.7c0-0.5,0.6-0.7,2.6-0.7l2.5,0
		L193.1,75.7L193.1,75.7z M177.3,77.2c0,0.5-0.3,0.7-1.1,0.4c-0.6-0.1-1.8-0.3-2.7-0.3c-1,0-1.6-0.2-1.6-0.6s0.8-0.5,2.7-0.4
		C176.6,76.5,177.3,76.7,177.3,77.2L177.3,77.2z M161.8,77.1c0,1-1,0.9-1,0S161.8,76.1,161.8,77.1z M162.7,77.5
		c-0.4,0.9-0.4-1.4,0-0.9C162.8,76.7,162.8,77.1,162.7,77.5z M148.3,78.6c1.8,1.6,5.2,3.8,8.2,5.3c3.7,1.9,9.1,3.7,9.4,3.1
		c0.5-0.9,1.2-0.4,1.2,0.8c0,1.1-0.1,1.2-1.3,0.9c-3.1-0.7-9.2-3.2-11.9-4.8c-3.1-1.8-3.5-2-2.9-1.1c0.4,0.9-0.5,0-0.5-0.7
		c0-0.3-0.4-0.5-0.8-0.5c-0.5,0-0.8-0.1-0.7-0.3c0-0.2-0.9-1.3-2.1-2.3c-1.8-1.6-2-1.9-1-1.6C146.6,77.4,147.7,78,148.3,78.6
		L148.3,78.6L148.3,78.6z M175.5,78.1c1,0.2,1.8,0.5,1.8,0.8c0,0.7-5,0.2-5.2-0.5C171.9,77.8,172.7,77.7,175.5,78.1
		C175.5,78.1,175.5,78.1,175.5,78.1z M177.3,80.5c0,0.8-2.1,1-4.2,0.4c-2-0.5-1.2-1.2,1.5-1.2C176.7,79.8,177.3,79.9,177.3,80.5z
		 M175.4,81.7c1.4,0,1.9,0.2,1.9,0.8c0,0.7-0.3,0.7-1.8,0.5c-1-0.1-2.2-0.3-2.7-0.3c-0.5,0-0.9-0.3-0.9-0.8c0-0.5,0.2-0.7,0.8-0.5
		C173.2,81.6,174.3,81.7,175.4,81.7L175.4,81.7L175.4,81.7z M162.4,88.1c4.9,1.7,5.7,1.6,5.7-0.2c0-0.8,0.2-1.4,0.5-1.4
		c0.6,0,0.5,3.8,0.5,4.5l-2-0.3c-5.4-0.9-15-5.1-15.3-6.6c-0.1-0.6,0.8-0.2,3.4,1.1C157.1,86.1,160.4,87.5,162.4,88.1L162.4,88.1
		L162.4,88.1z M176.1,83.6c0.6,0,1.2,0.2,1.2,0.5c0,0.2-1.2,0.5-2.7,0.5c-2.1,0-2.7-0.1-2.7-0.8c0-0.6,0.3-0.7,1.5-0.5
		C174.3,83.5,175.5,83.6,176.1,83.6L176.1,83.6z M175.6,85.6c0.2,0.4,0,0.5-1,0.3c-0.7-0.1-1.4,0-1.5,0.1c-0.4,0.8-1.6,0.5-1.4-0.3
		C172.1,84.9,175.1,84.8,175.6,85.6L175.6,85.6L175.6,85.6z M172.6,87.3c-0.3,0.1-0.9,0.1-1.2,0C170.6,87,173.3,87,172.6,87.3z
		 M173.2,88.9c0,0.4-0.5,0.8-1.1,0.9c-0.9,0.1-1.1-0.1-1.1-0.9c0-0.8,0.2-1,1.1-0.9C172.7,88.1,173.2,88.5,173.2,88.9z M175.8,88.9
		c0,0.6-2.1,0.6-1.7,0C174.4,88.4,175.8,88.2,175.8,88.9z M172.6,90.7c-0.3,0.1-0.9,0.1-1.2,0C170.6,90.4,173.3,90.4,172.6,90.7z
		 M214.7,1.1c0.1,1.3,3.8,4.9,4.8,4.5c0.9-0.3,2.3,1.4,1.9,2.4c-0.3,0.9,3.2,6,4,5.7c0.9-0.3,2.3,1.9,1.5,2.6
		c-0.7,0.7,2,6.4,2.8,6.1c0.7-0.2,2,2.3,1.2,2.5c-0.7,0.2-0.7,1.4,0.2,4.3c0.5,1.5,1,2.5,1.4,2.5c0.9,0,1,1.4-0.1,1.4
		c-0.7,0-1.2-1-2.2-4.7c-3-10.5-9.2-20.3-17.6-27.3h-0.9c9,7.4,15.6,17.5,18.3,29c0.7,2.9,1,3.5,2,3.8c1.5,0.4,2,0,1.7-1.3
		c-0.2-0.7,0-1.2,0.5-1.4c0.7-0.4,0.7-0.7-0.1-3.5c-0.6-2-1.1-3-1.7-3.1c-1-0.2-2.1-2.6-1.3-2.9c0.8-0.3,0.6-1.4-0.7-3.9
		c-0.8-1.6-1.5-2.4-2.1-2.4c-1,0-2.3-2.3-1.5-3s-2.8-5.8-3.9-5.5c-1.1,0.3-2.6-1.3-2.2-2.4c0.3-0.6-0.9-2.2-2.1-3.4
		C218.8,1.1,214.7,1.1,214.7,1.1z M135.8,1c-1.3,1.2-2.4,2.8-2.2,3.4c0.4,1.1-1.1,2.6-2.2,2.4c-1.1-0.3-4.6,4.8-3.9,5.5
		c0.7,0.7-0.5,3-1.5,3c-0.6,0-1.4,0.8-2.1,2.4c-1.3,2.5-1.5,3.7-0.7,3.9c0.8,0.2-0.3,2.7-1.3,2.9c-0.6,0.1-1.1,1.2-1.7,3.1
		c-0.8,2.7-0.8,3.1-0.1,3.4c0.9,0.5,0.4,3.5-0.5,3.5c-0.7,0-1.3,2.4-1.3,5.1c0,1.1,0.2,1.6,0.7,1.6c1,0,1,2.7,0,3.3
		c-0.7,0.4-0.7,1-0.5,3.7c0.2,2.1,0.6,3.2,1,3.2c0.9,0,1.4,2.4,0.7,3.2c-0.9,1.1,0.3,6,1.5,6.3c1.1,0.3,2,2.5,1.4,3.5
		c-0.7,1.1,1.8,6.4,2.8,6.1c1-0.4,2.5,1.9,1.7,2.7c-0.7,0.9,2.8,5.9,4,5.7c1-0.2,2.8,1.9,2.2,2.6c-0.5,0.6,4.1,5.2,4.8,4.8
		c0.8-0.5,2.9,1.1,2.6,2.1c-0.3,1.3,4.5,4.7,5.4,3.9c0.9-0.7,2.9,0.6,2.9,1.8c0,1.1,6,3.8,6.3,2.8c0.4-1,3.1,0,3.1,1.2
		c0,1.2,5.8,2.7,6.5,1.7c0.6-0.8,3.1-0.4,3.1,0.4c0,0.3,0.3,0.8,0.8,0.9c1.3,0.5,6.5,0.3,6.5-0.2c0-0.6,2.9-0.6,2.9,0
		c0,0.5,5.2,0.7,6.5,0.2c0.4-0.1,0.8-0.6,0.8-0.9c0-0.9,2.5-1.3,3.1-0.4c0.7,1,6.5-0.5,6.5-1.7c0-1.2,2.7-2.2,3.1-1.2
		c0.3,0.9,6.3-1.7,6.3-2.8c0-1.2,2-2.5,2.9-1.8c0.9,0.7,5.7-2.6,5.5-3.8c-0.2-0.9,1.8-2.6,2.6-2.2c0.8,0.5,5.4-4.2,4.8-4.9
		c-0.6-0.7,1.4-2.8,2.4-2.5c0.3,0.1,1.4-1,2.5-2.5c1.4-2,1.7-2.7,1.4-3.3c-0.7-0.8,0.6-3,1.8-2.8c0.5,0,1.2-0.9,2-2.8
		c1.2-2.7,1.2-2.8,0.3-3.5c-0.5-0.4-1.2-0.7-1.5-0.7c-0.9,0-3.1,5.1-2.8,6.3c0.4,1.2-0.6,2.9-1.4,2.5c-0.9-0.3-4.3,4.3-4,5.5
		c0.3,1-1.3,2.8-2,2.3c-0.6-0.3-5.1,4.3-4.7,4.9c0.4,0.7-1.4,2.1-2.3,1.8c-1-0.4-5.6,3-5.6,4c0,1.1-2.3,2.2-2.6,1.3
		c-0.2-0.8-6.1,2-6.1,2.9c0,0.3-0.6,0.9-1.3,1.2c-1,0.4-1.3,0.4-1.6,0c-0.3-0.5-1-0.5-3.6,0.2c-1.7,0.5-3.2,1.2-3.2,1.4
		c0,0.9-2,1.3-2.8,0.6c-0.9-0.8-6-0.5-6.7,0.4c-0.7,0.9-2.6,0.9-3.3,0c-0.7-0.9-5.7-1.2-6.7-0.4c-0.8,0.7-2.8,0.2-2.8-0.6
		c0-0.3-1.4-1-3.2-1.4c-2.6-0.7-3.3-0.7-3.6-0.2c-0.3,0.5-0.7,0.5-1.6,0c-0.7-0.3-1.3-0.9-1.3-1.2c0-0.9-5.9-3.7-6.1-2.9
		c-0.3,0.9-2.6-0.3-2.6-1.3c0-1.1-4.7-4.4-5.6-4c-0.9,0.3-2.7-1.1-2.3-1.8c0.4-0.6-4.1-5.2-4.7-4.9c-0.8,0.5-2.4-1.3-2-2.3
		c0.3-1.2-3-5.8-4-5.5c-0.8,0.3-1.8-1.4-1.4-2.5c0.4-1.3-1.9-6.3-2.9-6.3c-1,0-1.7-2-1.1-2.7c0.3-0.4,0.3-1.4-0.1-3.1
		c-0.6-2.7-1.3-3.9-1.9-3.5c-0.7,0.4-0.9-2.4-0.1-2.9c0.9-0.7,0.4-6.4-0.6-6.8c-1-0.3-0.9-3,0-3c0.4,0,0.7-0.4,0.7-1.2
		c0-0.6,0.1-2.1,0.3-3.4c0.3-1.9,0.2-2.2-0.5-2.2c-0.5,0-0.7-0.2-0.5-0.8c0.1-0.4,0.3-1.1,0.3-1.4c0-0.4,0.3-0.7,0.7-0.7
		c0.4,0,1-1,1.4-2.5c0.9-2.9,0.9-4.1,0.2-4.3c-0.8-0.2,0.5-2.7,1.2-2.5c0.8,0.3,3.3-5,2.9-6.1c-0.4-1.2,0.6-3,1.4-2.7
		c0.7,0.3,4.2-4.5,4.1-5.5c-0.2-1.1,1-2.8,1.8-2.5c1,0.4,4.8-3.3,4.8-4.5L135.8,1L135.8,1z M142,1c-24.4,20.6-26.4,57.7-3.6,80.5
		c8.1,8,18.9,13.6,29.9,15.4c20.6,3.3,41.6-5.3,53.5-22.1c2.5-3.5,6.3-10.4,5.7-10.4c-0.2,0-1.3,1.7-2.3,3.7
		c-11.9,23.1-39.8,34.4-64.8,26.3c-27.1-8.8-43-37.7-35.7-65.1c2.9-11.2,9.4-21,18.2-28.2L142,1L142,1z M131.4,1
		c1.1,0.9,2,1.1,2,0.4c0-0.1-0.1-0.2-0.3-0.4H131.4z M127.4,1c-0.7,1-0.7,1.1,0.5,2.4c1.5,1.6,2.1,1.7,3.3,0.3c0.9-1,0.9-1-0.8-2.4
		L128.2,1h0.6c0.3,0.1,0.6,0.4,1.1,0.8c1.6,1.3,0.9,2.1-1,1.2c-1.4-0.7-1.7-1.2-1.1-1.7c0.1-0.1,0.2-0.2,0.3-0.2
		C128.2,1,127.4,1,127.4,1z M227.6,2.4c0.2,0.6-0.2,1.2-1.2,1.9c-0.8,0.6-1.4,1.2-1.4,1.4c0,0.8,1.1,0.3,2.2-0.9
		c1-1.1,1.3-1.2,1.6-0.6c0.2,0.4,0.6,0.6,0.7,0.4C230,4.3,227.2,1.3,227.6,2.4L227.6,2.4L227.6,2.4z M228.3,6.7
		c-1.5,1.2-1.6,1.7-0.6,2.9c0.7,0.8,0.9,0.8,2.4-0.2c1.7-1.1,2-2.2,1.1-3.1C230.4,5.5,229.8,5.6,228.3,6.7L228.3,6.7z M230.5,7.6
		c-0.4,1.4-1.8,2.1-2.5,1.3c-0.4-0.5-0.3-0.9,0.8-1.6C230.3,6.1,230.8,6.2,230.5,7.6L230.5,7.6z M125.4,7.1
		c-0.3,0.5,0.4,1.1,0.9,0.7C127.1,7,126.2,6.1,125.4,7.1z M120.2,11.4l-0.8,1.4l1.6,1c1.8,1.1,2.9,1.3,2.6,0.4
		c-0.1-0.3-0.9-0.8-1.7-1c-1.7-0.5-1.7-0.5-1-1.9c0.5-1,0.5-1,2.2,0c2.2,1.3,2.7,0.9,0.5-0.4C121.5,9.7,121.2,9.7,120.2,11.4
		L120.2,11.4z M232.7,13.4c-2,1.1-2.5,2.1-0.7,1.6c2.2-0.6,0.6,1.8,2.9,0.7c1.4-0.6,1.5-0.9,0.4-2.2l-0.9-1L232.7,13.4
		C232.7,13.4,232.7,13.4,232.7,13.4z M235.1,14.5c0.1,0.5-0.1,0.8-0.5,0.8c-0.8,0-1.4-1.2-0.9-1.6C234.1,13.2,234.9,13.6,235.1,14.5
		L235.1,14.5z M118.4,14.6c0,0.5,3.9,2.3,4.4,1.9c0.6-0.3-0.4-1.1-1.9-1.4c-0.4-0.1-1.2-0.3-1.6-0.5
		C118.8,14.4,118.4,14.4,118.4,14.6C118.4,14.6,118.4,14.6,118.4,14.6z M117.5,17.1c-0.7,1.6-0.7,1.5,0.9,2.4c1.9,1,2.8,0.9,3.3-0.4
		c0.5-1.3,0.3-1.5-1.9-2.5C118.1,15.8,118.1,15.8,117.5,17.1L117.5,17.1z M120.6,17.5c0.9,0.3,1,1.4,0.3,1.9
		c-0.5,0.3-2.9-0.7-2.9-1.3c0-0.3,0.8-0.8,1.5-0.9C119.6,17.2,120.1,17.4,120.6,17.5z M234.4,17.1c-1.6,0.8-2.1,2.2-1,2.8
		c0.3,0.2,0.4,0.1,0.2-0.4c-0.3-0.9,0.8-1.4,1.6-0.7c0.5,0.4,0.5,0.3,0.2-0.5c-0.4-1.1,0.7-1.5,1.2-0.6v-1.1
		c-0.2-0.2-0.3-0.3-0.4-0.3C236,16.3,235.2,16.7,234.4,17.1L234.4,17.1L234.4,17.1z M116,20.9c-0.3,0.7-0.4,1.4-0.2,1.7
		c0.4,0.7,3.7,1.6,4.1,1.2c0.7-0.8,1.1-2.6,0.5-2.6c-0.3,0-0.5,0.3-0.5,0.7c0,0.5-0.5,0.7-1.7,0.7c-1.4,0-1.7-0.2-1.7-0.9
		c0-0.5,0.2-1,0.6-1.1c0.4-0.1,0.4-0.3,0-0.6C116.7,19.7,116.3,20,116,20.9L116,20.9z M235.8,20.5c-1.5,0.5-2,0.9-1.8,1.4
		c0.1,0.4,0.3,0.9,0.3,1.2c0,0.6,1.2,0.7,0.8-0.3c-0.4-0.9,0.6-1.5,1.2-0.7c0.3,0.5,0.4,0.4,0.4-0.4c0-0.2,0-0.3,0-0.4v-1.1
		C236.4,20.3,236.1,20.4,235.8,20.5L235.8,20.5z M114.7,24.9c-0.8,2.1-0.7,2.9,0.1,1.8c0.5-0.7,0.9-0.8,2-0.3
		c1.6,0.6,3.3,0.2,2.2-0.5c-0.4-0.3-1.3-0.5-2-0.5c-1,0-1.3-0.3-1.4-1.1C115.3,23.4,115.2,23.4,114.7,24.9
		C114.7,24.9,114.7,24.9,114.7,24.9z M236.5,24.1c-1.6,0.6-1.8,1.5-0.3,1.3c0.2,0,0.3,0,0.4,0V24L236.5,24.1
		C236.5,24.1,236.5,24.1,236.5,24.1z M236.7,27.2c-0.3,0.1-1.4,0.5-0.4,0.5c0.1,0,0.3,0,0.4,0V27.2z M115.5,29.6
		c2.1,0.7,3.2,0.5,2.7-0.3c-0.4-0.6-3.9-0.4-4.8-0.3L115.5,29.6C115.5,29.6,115.5,29.6,115.5,29.6z M113.2,32c0.1,1.1,0.4,1.4,2,1.7
		c2.2,0.5,2.2,0.4,2.4-1.3c0.1-1.3,0-1.4-2.2-1.5C113.1,30.7,113.1,30.7,113.2,32C113.2,32,113.2,32,113.2,32z M115.1,32.4
		c0,0.8-0.8,0.9-1.2,0.2c-0.4-0.6,0.2-1.5,0.8-1.2C114.9,31.6,115.1,32.1,115.1,32.4L115.1,32.4z M117,31.9c0,1.2-2.3,0.7-1.1-0.4
		C116.4,31,117,31.1,117,31.9z M112.2,39.9c0,1.3,0.2,1.4,1.3,1.4c0.9,0,1.4-0.3,1.5-1c0.3-1.3,1.4-0.9,1.2,0.5
		c-0.1,0.7,0,1,0.3,0.8c0.3-0.2,0.5-1,0.5-1.8c0-1.3-0.1-1.4-1.3-1.3c-1,0.1-1.4,0.4-1.5,1.2c-0.1,0.6-0.5,1.1-0.9,1.1
		c-0.5,0-0.7-0.3-0.5-1.2C113.1,38,112.2,38,112.2,39.9C112.2,39.9,112.2,39.9,112.2,39.9z M116,43.4c0,0.3-0.9,0.9-2,1.2l-2.1,0.5
		l2.4,0c2.1-0.1,2.4-0.2,2.6-1.2C117.1,42.3,116,42.6,116,43.4L116,43.4L116,43.4z M113.6,46.5c-1.3,0.3-1.7,1.3-1.1,2.3
		c0.5,0.8,4.1,1,4.3,0.2c0.1-0.3-0.2-0.6-0.8-0.6c-1.4,0-1.4-1.8,0.1-2.1c1-0.2,1-0.2-0.1-0.2C115.3,46.2,114.3,46.3,113.6,46.5
		C113.6,46.5,113.6,46.5,113.6,46.5z M114.3,48c0.4,0.6-1.2,0.6-1.2,0C113.1,47.3,114.1,47.5,114.3,48z M112.7,51.7
		c0,0.5,0.2,1.4,0.4,2.1c0.3,1.2,0.3,1.2,0.6,0.1c0.2-0.8,0.7-1.1,1.9-1.2c1.6-0.1,2.7-1.3,1.2-1.3c-0.4,0-1.2,0.3-1.8,0.6
		c-0.8,0.5-1.1,0.5-1.7-0.3C112.6,50.7,112.6,50.7,112.7,51.7C112.7,51.7,112.7,51.7,112.7,51.7z M117.5,55.6c0,1.2-0.5,1.3-1.4,0.5
		c-0.4-0.4-0.6-0.4-0.6,0.2c0,1.3-0.9,1.5-1.4,0.3l-0.5-1.1v1.1c0,1.3,0.8,1.7,2.9,1.2c1.7-0.4,2.4-1.7,1.4-2.6
		C117.6,54.7,117.5,54.9,117.5,55.6L117.5,55.6z M116.5,58.8c-0.9,0.3-1.8,0.9-1.9,1.2c-0.2,0.6,0.8,3.9,1.2,3.9c1.2,0,4-1.3,4-1.7
		c0-0.7-1-0.5-2.7,0.6c-0.9,0.6-1.1,0.6-1.3,0c-0.3-0.9-0.1-1,2-1.5c2-0.3,2.2-1.3-0.2-0.6c-2.2,0.6-3.5-0.3-1.4-1.1
		c0.7-0.2,1.5-0.5,1.7-0.5c0.2,0,0.6-0.2,0.7-0.5C119.1,58,118.6,58,116.5,58.8z M120.8,67.8c-0.4,0.2-1.2,0.5-1.8,0.5
		c-0.6,0-1.2,0.2-1.4,0.5c-0.2,0.4,0,0.4,0.7,0.2c1.2-0.3,1.4,0.6,0.4,1.6c-0.5,0.5-0.5,0.6,0.2,0.3c0.5-0.1,1-0.3,1.1-0.3
		c0.1,0,0.2-0.3,0.2-0.7c0-1,1.9-1.5,1.9-2.2C122.3,67.1,121.8,67.2,120.8,67.8L120.8,67.8L120.8,67.8z M232.4,68.3
		c0.2,0.7,3.7,2.2,4.4,1.9v-0.5c0,0-0.1,0-0.1,0c-0.3,0-1.1-0.4-1.8-1C233.5,67.7,232.1,67.4,232.4,68.3L232.4,68.3z M121,71.5
		c-1.3,1.2-1.4,1.5-1,2.4c0.6,1.3,1.3,1.4,3.2,0.2c1.6-0.9,2.2-2.4,0.6-1.5c-1.3,0.6-1.4,0.6-1.7-0.3c-0.2-0.5,0-1.1,0.5-1.4
		c0.5-0.3,0.6-0.7,0.3-0.7C122.7,70.2,121.8,70.7,121,71.5L121,71.5L121,71.5z M122,73.3c0.4,0.9-0.6,1.5-1.2,0.7
		c-0.6-1-0.5-1.4,0.2-1.4C121.4,72.6,121.8,72.9,122,73.3z M230.4,71.7c0.1,0.3,0.9,0.8,1.7,1.1c0.9,0.3,1.5,0.8,1.6,1.4
		c0.1,0.7,0.3,0.5,1-0.8c0.8-1.7,0.8-1.8,0-1.2c-0.7,0.4-1.1,0.4-2-0.2C231.4,71,230.2,70.9,230.4,71.7L230.4,71.7L230.4,71.7z
		 M229.2,74c-0.1,0.2,0,0.7,0.4,1c1.1,0.9,0.3,2-1.2,1.6c-1.2-0.3-1.2-0.3-0.3,0.4c1.8,1.3,3.5,1.4,4.3,0.3c0.4-0.6,0.6-1.3,0.3-1.5
		C232,74.8,229.4,73.5,229.2,74L229.2,74L229.2,74z M232.1,76.8c-0.5,0.8-2.8,0.8-1.2-0.8C231.6,75.4,232.6,76,232.1,76.8z
		 M123.3,75.4c-1.3,1.3-1.4,1.6-1,2.5c0.4,0.7,0.8,0.9,1.4,0.7c0.4-0.2,1.4-0.6,2.2-0.8c1.6-0.6,1.7-1.6,0.1-1.2
		c-1.5,0.4-2.1-1-0.9-1.9c0.5-0.4,0.6-0.6,0.3-0.7C125,74,124.1,74.7,123.3,75.4L123.3,75.4L123.3,75.4z M124.2,77.1
		c0,1.2-2.3,0.7-1.1-0.4C123.6,76.2,124.2,76.4,124.2,77.1z M126.8,79.7c-1.1,1.2-1.5,1.3-2.1,0.9c-0.6-0.5-0.6-0.4-0.1,0.4
		c0.3,0.5,0.9,1.3,1.3,1.6c0.6,0.5,0.7,0.5,0.4-0.2c-0.2-0.6,0.1-1.3,1.3-2.2C129.9,78.4,128.5,78,126.8,79.7
		C126.8,79.7,126.8,79.7,126.8,79.7z M226,78.6c0,0.6,3.4,3.9,3.4,3.2c0-0.3-0.2-0.7-0.5-0.8c-0.9-0.5,0-1.3,1.1-0.9
		c0.8,0.2,0.9,0.1,0.5-0.3c-0.3-0.3-1.1-0.6-1.7-0.7c-0.6,0-1.5-0.3-2-0.5C226.7,78.5,226,78.3,226,78.6L226,78.6L226,78.6z
		 M223.8,81.3c-0.9,1-0.9,1,0.8,2.4c2,1.7,2,1.7,3.2,0.4c0.9-1,0.9-1-0.8-2.4C225,80,224.9,80,223.8,81.3L223.8,81.3z M226.6,82
		c1.2,1.1,1.1,1.4-0.3,1.3c-1.4,0-2.4-0.9-2-1.6C224.8,81,225.6,81.1,226.6,82L226.6,82z M130.4,81.9c0.6,0.7-5.1,7.1,0,2.7
		c1.4-1.2,1.5-1.5,1.1-2.4c-0.3-0.6-0.8-1-1.1-1C130.1,81.2,130.1,81.4,130.4,81.9C130.4,81.9,130.4,81.9,130.4,81.9z M221.4,84.2
		c-0.9,1-0.9,1,0,0.7c1.2-0.4,2.2,0.4,2.2,1.9c0,1.4,0.5,1.4,1.7,0.2c0.9-1,0.3-1.3-0.6-0.4c-0.4,0.4-0.6,0.2-0.6-0.9
		c0-1.3-0.7-2.6-1.4-2.6C222.4,83.1,221.9,83.6,221.4,84.2L221.4,84.2z M131,85.3l-1.6,1.7l2.6,2.6l1.6-1.6c1-0.9,1.5-1.9,1.4-2.1
		c-0.2-0.3-0.9,0.2-1.7,1.1c-1.3,1.5-1.4,1.6-2.2,0.8c-0.8-0.8-0.7-0.9,0.6-2.3c0.8-0.8,1.3-1.5,1.2-1.7
		C132.7,83.8,131.8,84.4,131,85.3L131,85.3L131,85.3z M134.2,88.8l-1.4,1.7l1.2,0.9c1.2,0.9,1.2,0.9,2.5-0.3
		c1.5-1.5,1.6-2.1,0.4-3.2C135.7,86.8,135.8,86.8,134.2,88.8C134.2,88.8,134.2,88.8,134.2,88.8z M137,88.5c0.3,0.5-1.5,2.8-2.2,2.8
		c-0.4,0-0.2-2.1,0.2-2.8C135.5,87.8,136.6,87.8,137,88.5L137,88.5z M137.5,91.3l-1.3,1.9c0.6,0.6,2.6,2.5,3.3,2.5
		c0.7,0,3-2.9,2.7-3.5c-0.3-0.5-1.6,0.6-1.6,1.3c0,0.9-1.3,1.8-1.7,1.3c-0.1-0.3,0.3-1.3,1-2.2c0.7-0.9,1.1-1.7,0.8-1.7
		c-0.2,0-0.9,0.6-1.5,1.4c-1.1,1.4-2,1.9-2,1c0-0.8,2.2-3.2,1.8-3.6C138.9,89.5,138.3,90.3,137.5,91.3
		C137.5,91.3,137.5,91.3,137.5,91.3z M215.2,89.8c-0.3,0.6,2.4,3.5,2.9,4.1l2.7-1.7l-1-1c-1.9-2-1.1,1.1-3.2-0.9
		C216,89.8,215.4,89.5,215.2,89.8L215.2,89.8L215.2,89.8z M219.2,92.6c-0.4,0.5-0.7,0.5-1.2,0c-0.6-0.5-0.6-0.7,0.1-1.2
		C219.2,90.7,220,91.7,219.2,92.6L219.2,92.6L219.2,92.6z M212.3,92.2c-0.4,0.7,1.9,3.9,2.8,3.9c0.3,0,0.9-0.4,1.4-0.9
		c0.6-0.7,0.6-1,0.1-1.7c-0.5-0.7-0.8-0.8-1.6-0.4c-0.8,0.4-1.1,0.3-1.6-0.5C212.9,91.9,212.5,91.8,212.3,92.2L212.3,92.2
		L212.3,92.2z M216.1,94.2c0.1,0.2,0,0.7-0.4,1c-0.8,0.6-1.5-0.1-1-0.9C215.1,93.6,215.7,93.6,216.1,94.2L216.1,94.2z M208.6,94.4
		c0,0.1,0.5,1.1,1.2,2.2c1.4,2.1,2.1,2.4,3.3,1.1c1-1.1,0-2.6-1.4-2.2c-0.6,0.1-1.3,0-1.6-0.5C209.5,94.3,208.6,93.9,208.6,94.4
		L208.6,94.4L208.6,94.4z M213,96.6c0,0.2-0.3,0.7-0.7,1c-0.8,0.6-1.5-0.1-1-0.9C211.7,96,213,96,213,96.6L213,96.6L213,96.6z
		 M145.9,96c-0.3,0.7-0.7,1.7-1,2.2c-0.3,0.6-0.2,1,0.5,1.3c1.4,0.8,1.7,0.6,2.6-1.3c0.9-1.8,0.8-2.3-0.7-3.1
		C146.6,94.7,146.3,94.8,145.9,96L145.9,96L145.9,96z M147.5,95.9c0.5,0.5-0.2,1.6-0.9,1.3C145.7,96.9,146.5,95,147.5,95.9z
		 M147.1,98.8c-0.4,1-2.3,0.1-1.4-0.9C146.3,97.4,147.3,98.1,147.1,98.8z M149.5,97.9c-0.1,0.5-0.5,1.3-0.7,1.9
		c-0.2,0.6-0.2,1.1,0,1.1c0.2,0,0.7-0.7,1-1.4c0.5-1.2,0.8-1.4,1.6-1.2c0.7,0.2,0.9,0.1,0.7-0.3C151.8,96.9,149.8,96.9,149.5,97.9
		L149.5,97.9L149.5,97.9z M204,98.5c0,0.9,0.2,1.3,0.6,1.2c1-0.4,1.3,0.9,0.4,1.6c-0.9,0.7-0.9,0.7,0,0.5c0.5-0.1,1-0.3,1.1-0.3
		c0.4,0,0.1-1.6-0.5-2.9C204.5,96.7,204,96.7,204,98.5L204,98.5L204,98.5z M152.7,99.2c-1.3,3.3-1.2,3.6,0.9,4.2
		c1.1,0.3,2.1,0.5,2.2,0.4c0.7-0.7,1.6-3.8,1.2-4c-0.5-0.3-1.6,1.5-1.3,2.1c0.4,0.6-0.5,1.7-1.1,1.3c-0.4-0.2-0.3-0.9,0.2-2.1
		c0.4-1,0.6-1.8,0.5-2c-0.1-0.1-0.6,0.5-1,1.5c-0.4,1-1.1,1.8-1.4,1.8c-0.6,0-0.6-0.2,0-2C153.7,98.2,153.5,97.1,152.7,99.2
		L152.7,99.2L152.7,99.2z M200.8,98.4c-0.3,0.6,0.5,2.5,1.1,2.5c0.2,0,0.5,0.3,0.5,0.7c0,0.9,1.3,1.4,0.2-1.1
		C201.7,98.5,201.1,97.8,200.8,98.4z M199,99.9c0,0.5,0.3,1.2,0.7,1.5c1,0.8,0.9,1.4-0.3,1.9c-1,0.3-1.2,0.2-1.9-1.6
		c-0.9-2.2-1.2-1.3-0.3,1.1c0.5,1.3,0.7,1.5,1.8,1.3c1.9-0.5,2.2-1,1.5-3.1C199.9,99,199,98.3,199,99.9C199,99.9,199,99.9,199,99.9z
		 M193.7,100.9c-0.4,0.3,0.5,4,0.5,4.3c0,0.5,1.8,0.1,2.2-0.5c0.4-0.6-0.9-4.3-1.4-4.3C194.7,100.5,194.1,100.7,193.7,100.9
		L193.7,100.9L193.7,100.9z M165.6,102.2c-0.5,0.8-0.3,4.2,0.3,4.6c0.3,0.2,1,0.4,1.5,0.4c0.8,0,1.1-0.4,1.4-2
		c0.3-2.1-0.3-3.6-0.9-1.9c-0.4,1.4-1.6,1.3-1.8-0.3C166,102.2,165.8,101.9,165.6,102.2L165.6,102.2z M167.9,105.3
		c0.1,0.2,0.2,0.7,0,1c-0.4,0.6-1.7,0-1.7-0.8C166.2,104.7,167.4,104.6,167.9,105.3z M185.5,103.2c0,0.7,0.1,0.7,0.7,0.2
		c0.4-0.3,0.8-0.5,0.9-0.4l0.8,1.5c0.6,1.2,0.6,1.4,0,1.8c-0.4,0.2-1,0.3-1.3,0.2c-1.1-0.3-0.9,1.4,1.5,0.4c0.8-0.3,1-1.6,0.5-3.5
		C188.2,102.1,185.5,101.9,185.5,103.2C185.5,103.2,185.5,103.2,185.5,103.2z M170.7,103.2c1,0.2,1.1,1.4,0.2,1.7
		c-0.5,0.2-0.5,0.3,0,0.3c0.3,0,0.6,0.5,0.6,1c0,0.7-0.2,0.9-1.1,0.7c-0.9-0.2-1-0.1-0.6,0.3c0.3,0.3,1,0.5,1.4,0.4
		c0.7-0.1,1-0.7,1.1-2.5c0.1-2.2,0.1-2.3-1.2-2.2C170.3,103,170.1,103.1,170.7,103.2L170.7,103.2z M181.7,105.1
		c0.1,2,0.3,2.3,1.3,2.5c1.6,0.2,2.1-0.4,1.7-2.7c-0.3-1.8-0.4-2-1.7-2C181.6,102.9,181.6,102.9,181.7,105.1L181.7,105.1z M184,105
		c0,1.6-0.1,1.7-1,1.2c-1.4-0.8-1.3-2.9,0.3-2.9C183.8,103.3,184,104,184,105z M175.4,104.3c0,0.6-0.3,1-1,1c-0.7,0-1,0.3-1,1.3
		c0,1.1,0.1,1.2,1.6,1.1c1.4-0.1,1.5-0.3,1.7-2.2c0.1-1.6,0-2-0.6-2C175.6,103.3,175.4,103.9,175.4,104.3L175.4,104.3z M175.8,106.5
		c0,0.9-1.9,0.9-1.9,0C173.9,105.5,175.8,105.5,175.8,106.5z M179.7,104.3c0,0.6-0.3,1-1,1c-0.7,0-1,0.3-1,1.2c0,1,0.2,1.2,1.4,1.2
		c1.4,0,1.4-0.1,1.4-2.2c0-1.2-0.2-2.2-0.5-2.2C179.9,103.3,179.7,103.8,179.7,104.3L179.7,104.3z M180.2,106.5c0,0.9-1.9,0.9-1.9,0
		C178.2,105.5,180.2,105.5,180.2,106.5z M148.1,9.8c-1.9,1.8-2.2,2.2-0.9,1.2c3.4-2.5,4.8-3.8,4.3-3.9
		C151.1,7.1,149.6,8.3,148.1,9.8z M170.7,20.9c-0.5,0.2-0.6,2.5-0.6,9.2v8.9l7.4-0.1c7.1-0.1,7.5-0.2,9.4-1.5
		c5.7-3.8,5.1-12.3-1.2-15.5c-1.5-0.8-3-1-8.2-1.1C174.1,20.7,171,20.8,170.7,20.9L170.7,20.9L170.7,20.9z M184.9,23.5
		c2.7,1.2,4,3.3,4,6.7c0,2.4-0.1,2.7-2.1,4.7l-2.1,2.1h-4.2c-2.7,0-4.1-0.2-3.9-0.5c0.1-0.3,1.4-0.5,2.8-0.5c2.9,0,4.6-1,5.6-3.4
		c0.3-0.8,0.9-1.4,1.3-1.4c1.5,0,0.7-2.5-1.7-4.9c-2.2-2.4-2.5-2.5-5.5-2.7c-3.2-0.3-6.6,0.1-6.6,0.7c0,0.2,2.2,0.2,4.8,0.2
		c4.6-0.2,4.8-0.1,6,1.1c1.4,1.3,1.5,2.2,0.5,2.2c-0.4,0-0.7,0.4-0.7,1.2c0,1.2,0,1.2-4.7,1.3l-4.7,0l5.3,0.3
		c2.9,0.2,5.4,0.4,5.5,0.4c0.6,0.3-0.2,2.1-1.4,3.1c-2.2,1.9-7.2,1.6-7.2-0.3c0-0.2,1.6-0.4,3.6-0.4c3.2,0,3.6-0.1,3.6-0.9
		c0-0.8-0.5-0.9-4.4-1.2c-2.5-0.2-4.9-0.4-5.3-0.6c-0.5-0.1-0.9,0-0.9,0.2c0,0.3,1,0.5,2.2,0.5c1.2,0,2.2,0.2,2.2,0.5
		c0,0.5-1.6,0.7-3.5,0.6c-1.3-0.1-0.5,1.2,0.1,1c0.7-0.1,0.7,0.9-0.2,0.9c-0.8,0-1,0.8-0.3,1.1c0.2,0,0.1,0.4-0.2,0.8
		c-0.6,0.5-0.7-0.4-0.7-6.6v-7.2l5.5,0C181.7,22.5,183.3,22.7,184.9,23.5L184.9,23.5L184.9,23.5z M178,32.4
		c-0.2,0.4-0.4,0.7-0.5,0.7c-0.2,0-0.4-1.4,0.3-1.4C178,31.7,178.1,32,178,32.4L178,32.4L178,32.4z M175.4,34.1c0,0.7-1,0.6-1,0
		C174.4,33.5,175.4,33.4,175.4,34.1z M174.1,25.3c-0.8,0.1-1.1,0.6-1.2,2.5c-0.1,1.3-0.2,2.3-0.2,2.3c0.1,0.1,7.2-0.5,8.3-0.6
		l-3.9-0.1c-3.3-0.1-3.5-0.2-1.3-0.3l2.5-0.2v-1.9c0-1.8,0-1.9-1.5-1.8C175.8,25,174.6,25.2,174.1,25.3L174.1,25.3L174.1,25.3z
		 M178.7,26.9c0,1.9,0,1.9,1.7,1.9c1.6,0,1.7,0,1.7-1.9c0-1.9,0-1.9-1.7-1.9C178.8,24.9,178.7,25,178.7,26.9z M170.4,45
		c-0.4,0.3-0.3,16.9-0.3,19.4l1.2,0.3c0.7,0.1,4.8,0.2,9.1,0.1c7.5-0.1,8-0.2,10.1-1.5c7.4-4.3,6.2-15.3-2-18.1
		C186.7,44.6,170.9,44.4,170.4,45C170.4,45,170.4,45,170.4,45z M189.2,47.5c4.6,2.1,5.9,8.5,2.5,12.4c-2.4,2.7-3.9,3.1-12.3,3.1H172
		V46.6h7.6C185.9,46.6,187.5,46.7,189.2,47.5L189.2,47.5L189.2,47.5z M172.5,48c0,0.2,0.2,0.5,0.4,0.5c0.6,0,1.3-1,0.3-1
		C172.8,47.5,172.5,47.7,172.5,48C172.5,48,172.5,48,172.5,48z M180.2,47.9c5.1,0.1,6.2,0.3,7.2,1.1c1,0.8,1.1,1,0.4,1
		c-0.7,0-0.9,0.4-0.9,2.2c0,1.6,0.2,2.2,0.7,2.2s0.7,0.6,0.7,2.4c0,2.7-1,3.7-4.1,4.1l-1.9,0.3l1.4-1.3c1.1-1,1.3-1.6,1.3-3.4
		c0-1.6,0.2-2.2,0.7-2.2c0.5,0,0.7-0.5,0.7-1.9c0-1.4-0.2-1.9-0.7-1.9c-0.4,0-0.7-0.3-0.7-0.7c0-0.6-0.9-0.7-5.3-0.7
		c-3.2,0-5.3,0.2-5.3,0.5c0,0.3,2.1,0.5,5.2,0.5c2.8,0,4.8,0.1,4.3,0.3c-1.2,0.3-1.3,4-0.1,4c0.5,0,0.7,0.6,0.7,2.1
		c0,1.8-0.2,2.3-1.7,3.4c-1.4,1.1-2.1,1.3-4,1.2c-1.9-0.1-2.3-0.3-2.4-1.3c-0.2-1.2-0.2-1.2,3.8-1.1c2.7,0,4-0.6,3-1.4
		c-0.2-0.2-2.4-0.5-4.8-0.6c-2.4-0.1-3.8-0.1-3,0c1.6,0.2,1.8,1.6,0.1,1.6c-0.6,0-1.3,0.3-1.4,0.7c-0.1,0.4-0.6,0.7-1,0.7
		c-1,0-0.9,1,0,1c1,0,0.8,1,0.2,0.8c-0.3,0-0.6,0.1-0.8,0.4c-0.2,0.7,3.7,0.8,3.7,0.2c0-0.3,1.8-0.5,4.3-0.5c2.4,0,4.9-0.2,5.5-0.4
		c2.1-0.8,3.2-2.5,3.2-4.7c0-1.5,0.2-2.1,0.7-2.1s0.7-0.6,0.7-2.2c0-1.7-0.2-2.2-0.8-2.2c-0.4,0-1.4-0.5-2.2-1.2
		c-1.4-1.2-1.6-1.2-7.5-1.1l-6.1,0.1L180.2,47.9L180.2,47.9L180.2,47.9z M175.5,59.3c-0.2,0.4-0.4,0.7-0.5,0.7
		c-0.2,0-0.4-1.4,0.3-1.4C175.6,58.6,175.7,58.9,175.5,59.3L175.5,59.3L175.5,59.3z M172.6,49.4c0.4,1.2,1.6,0.2,0.4-0.4
		C172.6,48.9,172.4,49.1,172.6,49.4z M174.5,52.4c0.1,1.7,0,1.9-0.9,1.9c-0.6,0-1.1,0.2-1.1,0.4c0,0.6,8.8,0.1,9.6-0.5
		c0.3-0.3,0.6-1.2,0.5-2c-0.1-1.3-0.3-1.5-2-1.6l-1.8-0.1c0.1,0.6,0.5,3.9-0.1,3.9c-0.7,0-0.2-3.3-0.1-3.8h-4.1L174.5,52.4
		L174.5,52.4z M172.7,56.3c-0.5,0.7,0.1,1.2,0.8,0.6C174.3,56,173,55.6,172.7,56.3z M172.6,58.1c0.4,1.2,1.6,0.2,0.4-0.4
		C172.6,57.6,172.4,57.8,172.6,58.1z M203,113.8c0-0.1,0-0.1,0-0.1c-0.1,0-0.3,0.1-0.5,0.1H203z M232.7,94.5
		c-0.3,0.1-0.5,0.2-0.6,0.3h0.4L232.7,94.5L232.7,94.5L232.7,94.5z"/>
</g>
</svg>
