<?xml version="1.0" encoding="utf-8"?>
<!-- Generator: Adobe Illustrator 26.0.1, SVG Export Plug-In . SVG Version: 6.00 Build 0)  -->
<svg version="1.1" id="Слой_1" xmlns:xodm="http://www.corel.com/coreldraw/odm/2003"
	 xmlns="http://www.w3.org/2000/svg" xmlns:xlink="http://www.w3.org/1999/xlink" x="0px" y="0px" viewBox="0 0 238.1 150.2"
	 style="enable-background:new 0 0 238.1 150.2;" xml:space="preserve">
<g id="Слой_x0020_1">
	<g id="_105553199223680">
		<g>
			<path d="M210.6,70.8c-0.2,26.2-19.7,44.2-41,45.7c-12,0.8-22.7-2.6-31.9-10.4S123.1,88.3,122,76.3c-1.1-12.7,2.6-24,11.1-33.6
				c8-9,18.2-14,30.2-14.7c12.7-0.8,23.8,3.3,33.1,12.1C205.8,48.7,210.4,59.7,210.6,70.8L210.6,70.8z M145.9,83.5
				c0.1-0.3,0-0.6,0.2-0.8c0.5-0.5,1-1,1.7-1.4c0.5-0.4,1-0.8,1.7-0.7c0.1,0,0.2,0,0.3-0.1c-0.2-0.5-0.5-0.7-0.8-0.7
				c-0.8,0-1.7,0-2.5,0c-0.8,0-1.5,0.6-2.1,1c0.3,0.2,0.6,0.3,0.7,0.5C145.4,82.1,145.6,82.9,145.9,83.5c0,0.3-0.1,0.7,0.1,1
				c0.3,0.6,0.7,1.1,1,1.7c1.2,1.4,2.5,2.8,3.9,4.1c1.4,1.4,2.9,2.3,4.7,3.2c0.1-0.4,0.1-0.6-0.3-0.8c-1.9-1.1-3.6-2.3-5.3-3.8
				c-1.4-1.4-2.6-3.1-3.8-4.7C146.3,83.7,146.2,83.6,145.9,83.5z M186.5,61.4c0,0.2,0,0.4,0.1,0.6c0.2,0.5,0.4,1,0.7,1.4
				c1,2.5,1.7,5,1.8,7.8c0,0.5,0.2,1,0.4,1.5c0.4,0.8,0.8,1.4,1.2,2.1c0.2,0.4,0.5,0.5,0.8,0.4c0.5-0.1,1-0.1,1.7-0.2
				c0.1-0.3,0-0.5-0.4-0.5c-0.7,0.1-1-0.2-1.4-0.8c-0.4-0.8-1-1.4-1.4-2.2c-0.2-0.3-0.4-0.6-0.5-0.8c-0.1-0.8-0.2-1.7-0.3-2.6
				c-0.3-1.7-0.7-3.3-1.4-5c-0.1-0.2-0.2-0.3-0.4-0.4c-0.2-0.2-0.5-0.3-0.7-0.6C186.9,62.2,186.7,61.8,186.5,61.4
				c-0.1-0.3-0.4-0.7-0.3-1c0.2-0.5,0.1-0.7-0.2-1c-1.7-2.4-3.5-4.5-5.8-6.2c-2.5-1.8-5.3-3.2-8.2-3.9c-0.3-0.1-0.5-0.1-0.8-0.1
				c0,0.1-0.1,0.2-0.1,0.2c0.3,0.2,0.6,0.5,0.8,0.6c3.9,1,7.2,2.9,10,5.8c1.5,1.5,2.8,3.2,3.9,5.1C186.2,61.1,186.4,61.2,186.5,61.4
				L186.5,61.4z M196.1,84.4c0.3,0.2,0.6,0.3,0.8,0.5c0.3,0.2,0.5,0.3,0.3,0.7c-0.7,1.1-1.1,2.5-1.8,3.6c-1.4,2.5-3.2,4.6-5.1,6.8
				c-0.7,0.7-1.4,1.4-2.2,1.9c-1.7,1.2-3.2,2.6-5,3.6c-3.5,2.1-7.1,3.5-11.1,4.1c-1.8,0.3-3.7,0.4-5.5,0.5c-1,0.1-2.2,0-3.2-0.1
				c-1.1-0.1-2.3-0.2-3.3-0.4c-3.5-0.8-6.8-1.8-9.8-3.5c-2.1-1.1-4.1-2.5-5.9-4c-2.3-1.9-4.3-4.1-5.8-6.5c-1-1.7-2.1-3.3-2.9-5
				c-1.2-2.5-2.1-5.1-2.6-8c-0.3-1.5-0.5-3.1-0.5-4.5c-0.1-1.5,0-3.1,0.1-4.6c0.1-1.4,0.3-2.9,0.7-4.4c1-3.8,2.4-7.5,4.6-10.8
				c2.1-3.2,4.6-6,7.5-8.3c3.3-2.6,7.1-4.6,11.2-5.9c2.1-0.7,4.3-1.2,6.5-1.2c2.5,0,4.9-0.1,7.2,0c2.5,0.2,4.9,0.8,7.2,1.7
				c4.7,1.7,8.9,4.4,12.5,7.9c1.2,1.2,2.4,2.6,3.5,4c1.8,2.4,3.2,5,4.3,7.8c0.7,1.8,1,3.6,1.7,5.5c0.1,0.2,0.3,0.6,0.4,0.6
				c0.5,0.1,1,0,1.5,0c0-0.3,0-0.5,0-0.7c-0.7,0.1-1-0.4-1-1c-0.3-1-0.6-2.1-0.8-3.1c0-0.2,0.1-0.5,0.2-0.6c0.4-0.1,0.5-0.5,0.4-0.7
				c-0.2-0.3-0.1-1-0.8-0.8c-0.4,0.1-0.6-0.2-0.7-0.5c-0.4-0.8-0.8-1.7-1.2-2.5c-0.3-0.6-0.6-1.1,0.2-1.5c-0.1-0.2-0.2-0.4-0.3-0.5
				c-0.2-0.4-0.4-0.8-1-0.6c-0.2,0-0.5-0.2-0.6-0.3c-0.2-0.3-0.4-0.6-0.6-0.8c-0.5-0.7-1-1.4-1.4-1.9c-0.1-0.2-0.2-0.5-0.1-0.6
				c0.6-0.7-0.3-0.8-0.4-1.2c-0.1-0.4-0.4-0.1-0.7-0.1c-0.2,0-0.5,0-0.7-0.2c-0.8-0.8-1.7-1.7-2.5-2.5c-0.1-0.1-0.2-0.4-0.1-0.5
				c0.3-0.5,0-0.7-0.3-1c-0.2-0.2-0.4-0.3-0.7-0.5c-0.5,0.6-0.6,0.6-1.1,0.1c-0.8-0.6-1.7-1.1-2.6-1.8c-0.4-0.3-0.7-0.6-0.1-1
				c-0.4-0.2-0.7-0.4-1-0.6c-0.1-0.1-0.5-0.1-0.5,0c-0.3,0.5-0.8,0.3-1,0.1c-0.8-0.4-1.8-0.8-2.6-1.4c-0.5-0.2-0.8-0.5-0.5-1
				c-0.3-0.1-0.6-0.2-0.8-0.3c-0.4-0.2-0.6-0.2-0.7,0.3c0,0.1-0.4,0.2-0.6,0.2c-1-0.2-1.9-0.6-2.8-0.8c-0.7-0.1-1.1-0.4-1-1.1
				c-0.5-0.1-1-0.1-1.4-0.2c0,0.1,0,0.1,0.1,0.2c-0.3,0.2-0.6,0.6-0.8,0.6c-1.1,0-2.3-0.2-3.3-0.3c-0.2,0-0.6-0.2-0.6-0.4
				c-0.1-0.3-0.2-0.5-0.5-0.5c-0.4,0.1-0.8-0.3-1,0.4c-0.1,0.2-0.5,0.4-0.7,0.5c-1,0.1-2,0.2-3.1,0.3c-0.6,0.1-1,0-1-0.7
				c-0.5,0.1-0.8,0.1-1.2,0.2c-0.1,0-0.3,0.3-0.3,0.3c0.2,0.6-0.3,0.6-0.6,0.7c-1,0.3-1.9,0.5-2.8,0.8c-0.6,0.2-1,0.2-1.4-0.5
				c-0.4,0.1-0.7,0.3-1,0.4c-0.1,0.1-0.3,0.3-0.3,0.4c0.2,0.4-0.1,0.5-0.4,0.7c-1,0.5-2,1-3.1,1.4c-0.2,0.1-0.5-0.1-0.8-0.1
				c-0.2,0-0.5-0.1-0.6,0c-0.3,0.1-0.7,0.4-1,0.6c0.3,0.4,0.4,0.7,0,1c-1,0.7-1.9,1.4-2.8,2c-0.4,0.3-0.8,0.3-1-0.2
				c-0.4,0.3-0.8,0.7-1.1,1c0.4,0.4,0.4,0.7,0,1c-0.8,0.8-1.4,1.5-2.2,2.3c-0.2,0.2-0.6,0.6-1,0.2c0,0-0.3,0-0.4,0.1
				c-0.3,0.3-0.5,0.6-0.8,1c0.5,0.4,0.4,0.8,0.1,1.1c-0.6,0.8-1.1,1.7-1.7,2.4c-0.3,0.5-0.6,0.8-1.1,0.3c-0.3,0.5-0.5,0.8-0.7,1.1
				c0.1,0.5,0.4,0.8,0.3,1c-0.5,1.1-1,2.2-1.5,3.2c-0.1,0.3-0.3,0.5-0.6,0.3c-0.1,0-0.4,0.1-0.5,0.3c-0.2,0.3-0.3,0.7-0.4,1
				c0.7,0.5,0.8,0.5,0.6,1c-0.3,1-0.6,2.1-0.8,3.1c-0.1,0.2-0.3,0.6-0.5,0.6c-0.5,0-0.6,0.3-0.6,0.6c-0.1,0.3,0,0.6,0,0.8
				c0.6,0,0.7,0.4,0.6,0.8c-0.1,1-0.2,2-0.3,3.1c0,0.5-0.2,0.7-0.6,0.8c-0.1,0.1-0.3,0.3-0.3,0.4c-0.1,0.3,0,0.7,0,1
				c0.8-0.2,0.8,0.4,0.8,1c0.1,0.8,0.2,1.5,0.2,2.2c0,0.6,0.4,1.1-0.5,1.7c-0.2,0.1-0.1,0.8,0,1.1c0,0.1,0.3,0.2,0.4,0.3
				c0.2,0.2,0.5,0.3,0.6,0.5c0.3,1,0.6,2.2,0.8,3.2c0.1,0.4,0.1,0.5-0.2,0.8c-0.2,0.2-0.1,0.7,0,1c0.1,0.2,0.3,0.5,0.5,0.5
				c0.5,0,0.7,0.3,0.8,0.6c0.4,0.8,0.8,1.7,1.1,2.5c0.3,0.6,0.4,1-0.2,1.4c0.1,0.2,0.2,0.3,0.3,0.5c0.2,0.4,0.3,0.8,1,0.6
				c0.1-0.1,0.5,0.2,0.6,0.4c0.7,0.8,1.2,1.8,1.8,2.6c0.2,0.3,0.3,0.4,0.1,0.7c-0.4,0.6,0.3,0.8,0.4,1.1c0.1,0.1,0.4,0.2,0.4,0.2
				c0.5-0.4,0.8,0,1,0.3c0.8,0.7,1.4,1.5,2.1,2.2c0.4,0.4,0.5,0.7,0.1,1c0.3,0.3,0.6,0.5,0.8,0.7c0.1,0.1,0.3,0,0.5,0
				c0.3,0,0.7-0.1,1,0.1c0.8,0.6,1.7,1.1,2.5,1.7c0.5,0.3,0.8,0.7,0.3,1.1c0.5,0.3,0.8,0.5,1.2,0.7c0.2-0.5,0.6-0.6,1-0.4
				c1,0.5,1.8,0.8,2.8,1.4c0.3,0.1,0.6,0.4,0.6,0.6c-0.1,0.8,0.7,0.7,1,1c0.1,0,0.3-0.1,0.3-0.1c0.2-0.4,0.6-0.4,0.8-0.3
				c1,0.3,2.1,0.6,3.2,0.8c0.3,0.1,0.6,0.4,0.6,0.6c0.1,0.5,0.3,0.5,0.6,0.5c0.3,0,0.6,0,0.8,0c0,0,0-0.1-0.1-0.1
				c0.3-0.2,0.6-0.5,0.8-0.5c1,0,2,0.1,3.1,0.3c0.5,0.1,1,0.2,1,0.8c0.5,0,1,0,1.4,0c-0.1-0.5,0.1-0.7,0.6-0.8
				c1.1-0.1,2.3-0.3,3.5-0.4c0.2,0,0.6,0.2,0.6,0.4c0.3,0.7,0.7,0.1,1,0.2c0.2,0,0.4-0.3,0.6-0.5c0.2-0.2,0.3-0.5,0.5-0.6
				c0.8-0.3,1.7-0.6,2.6-0.8c0.5-0.1,1-0.5,1.4,0.3c0,0.1,0.2,0.1,0.4,0c0.4-0.1,0.7-0.2,0.8-0.3c0.1-0.4,0.2-0.8,0.4-1
				c1-0.5,2-1,3.1-1.4c0.5-0.2,1-0.3,1.2,0.3c0.2-0.1,0.4-0.2,0.5-0.3c0.4-0.2,0.7-0.4,0.6-1c0-0.1,0.1-0.4,0.2-0.4
				c1-0.7,1.9-1.4,2.8-2c0.2-0.1,0.5,0,0.8,0c0.2,0,0.4,0.1,0.5,0c0.3-0.2,0.6-0.5,0.8-0.8c-0.2-0.2-0.3-0.4-0.4-0.6
				c-0.1-0.1-0.1-0.2-0.2-0.2c1-0.8,1.9-1.7,2.8-2.6c0.4-0.4,0.7-0.4,1,0c0.2-0.2,0.3-0.5,0.5-0.6c0.3-0.3,0.5-0.6,0.2-1
				c-0.1-0.1,0-0.5,0.1-0.7c0.5-0.8,1-1.5,1.5-2.3c0.4-0.6,0.7-1.1,1.4-0.7c0.2-0.5,0.4-0.8,0.7-1.1c-0.5-0.3-0.5-0.7-0.3-1
				c0.5-1,0.8-2,1.4-2.9c0.1-0.2,0.5-0.4,0.7-0.3c0.5,0.2,0.8,0.5,1.2,0.8c0,0,0,0.2-0.1,0.3c-0.5,1-1,2-1.4,2.9
				c-0.2,0.5-0.5,0.8-1,0.6c-0.2,0.3-0.5,0.6-0.6,0.8c-0.1,0.2-0.2,0.5-0.1,0.6c0.5,0.4,0.2,0.7,0,1c-0.5,0.8-1,1.5-1.7,2.3
				c-0.3,0.4-0.5,1-1.1,0.5l-0.2,0c-0.3,0.4-0.7,0.7-1,1c-0.1,0.1,0.1,0.4,0.2,0.6c0,0.1,0,0.3-0.1,0.4c-0.8,0.8-1.5,1.7-2.3,2.4
				c-0.4,0.5-0.8,0.7-1.2,0c-0.5,0.4-0.8,0.7-1.2,1c0.3,0.8,0.3,0.8-0.3,1.1c-0.8,0.6-1.5,1-2.3,1.7c-0.5,0.4-1,0.6-1.4-0.1
				c-0.4,0.2-0.8,0.4-1,0.6c-0.1,0.1-0.3,0.3-0.2,0.4c0.2,0.5-0.1,0.7-0.5,0.8c-1,0.5-1.9,0.8-2.8,1.4c-0.6,0.3-0.8,0.2-1-0.5
				c-0.6,0.2-1,0.4-1.7,0.6c0.3,0.8-0.3,0.8-0.7,1c-1,0.3-1.9,0.5-2.8,0.8c-0.6,0.2-1,0.1-1-0.6c-0.6,0.1-1,0.2-1.5,0.2
				c-0.2,0.8-0.3,1-1.1,1c-0.8,0-1.5,0.1-2.2,0.2c-0.8,0.1-1.1,0-1.4-0.7c-0.5,0-1,0-1.5,0c-0.2,0.7-0.3,0.8-1,0.8
				c-1-0.1-2-0.1-2.9-0.3c-0.3,0-0.8-0.3-0.8-0.4c-0.1-0.5-0.4-0.5-0.7-0.6c-0.3,0-0.6-0.1-0.8-0.2c-0.4,0.8-0.6,0.8-1.4,0.5
				c-0.8-0.3-1.7-0.5-2.6-0.7c-0.8-0.2-0.8-0.3-0.8-1c-0.5-0.2-1-0.4-1.5-0.6c-0.2,0.6-0.6,0.7-1,0.4c-1-0.5-2.1-1-3.1-1.4
				c-0.2-0.1-0.2-0.4-0.3-0.6s-0.2-0.5-0.4-0.7c-0.3-0.2-0.6-0.4-0.8-0.6c-0.1,0.2-0.3,0.3-0.4,0.5c-0.4-0.2-0.7-0.3-1-0.5
				c-0.8-0.6-1.7-1.1-2.5-1.7c-0.3-0.2-0.3-0.4-0.1-0.7c0.2-0.3,0.1-0.5-0.2-0.7c-0.2-0.1-0.3-0.2-0.5-0.4c-0.3-0.2-0.5-0.5-0.8-0.1
				c-0.1,0.1-0.5,0-0.7-0.1c-1-0.8-1.9-1.8-2.8-2.6c0.1-0.2,0.1-0.2,0.1-0.2c0.1-0.3,0.3-0.8,0.2-0.8c-0.5-0.3-0.5-1.4-1.4-0.8
				c-0.1,0.1-0.5-0.2-0.6-0.4c-0.7-1-1.4-1.8-1.9-2.8c-0.1-0.2-0.2-0.6-0.2-0.6c0.7-0.5,0.1-0.8,0-1.1s-0.3-0.7-0.8-0.5
				c-0.2,0-0.5-0.2-0.6-0.5c-0.5-0.8-0.8-1.7-1.2-2.5c-0.5-0.8-0.5-0.8,0.2-1.4c-0.1-0.3-0.2-0.5-0.3-0.8c-0.1-0.4-0.2-0.7-0.8-0.6
				c-0.1,0-0.4-0.2-0.5-0.4c-0.3-1.1-0.6-2.2-1-3.3c-0.1-0.5-0.1-0.7,0.3-1c0.1-0.1,0.2-0.3,0.2-0.4c-0.1-0.4-0.2-0.8-0.3-1.2
				c-0.7,0.1-0.8-0.3-0.8-0.8c0-0.8-0.1-1.5-0.2-2.2c-0.2-1,0-1.4,0.7-1.7c0-0.5,0-1,0-1.4c-0.5-0.1-0.7-0.3-0.7-0.8
				c0.1-1,0.2-2.1,0.2-3.2c0-0.6,0.3-0.8,0.8-0.8c0.1-0.2,0.1-0.4,0.1-0.5c0-0.5,0.4-1-0.3-1.4c-0.1,0-0.2-0.3-0.1-0.5
				c0.3-1,0.6-2.1,0.8-3.2c0.2-0.6,0.4-1,1-0.7c0.2-0.5,0.4-1,0.5-1.4c-0.1-0.4-0.8-0.4-0.5-1c0.5-1,1-2.1,1.4-3.2
				c0.1-0.2,0.4-0.3,0.6-0.4c0.5-0.1,1.1-0.8,1.1-1.2c0-0.1,0-0.2-0.1-0.3c-0.4-0.3-0.3-0.6-0.1-0.8c0.6-0.8,1.2-1.7,1.7-2.5
				c0.3-0.5,0.7-0.8,1.2-0.3c0.3-0.4,0.6-0.7,0.8-1c0.1-0.1,0.1-0.4,0-0.6c-0.3-0.4-0.1-0.6,0.2-0.8c0.7-0.7,1.4-1.4,2.1-2.1
				c0.4-0.4,0.8-0.8,1.4-0.1c0.5-0.4,0.8-0.8,1.2-1c-0.4-0.6-0.4-0.8,0-1c1-0.8,2.2-1.5,3.2-2.3c0.4,0.3,0.7,0.7,1.2,0.3
				c0.4-0.3,0.8-0.5,0.8-1c0-0.1,0.1-0.4,0.3-0.4c1-0.5,2.1-1,3.2-1.5c0.3-0.2,0.6-0.1,0.8,0.2c0.1,0.2,0.5,0.2,0.7,0.2
				c0.4-0.1,0.7-0.3,1-0.5c-0.3-0.6,0.1-0.8,0.6-1c1-0.3,2-0.5,3.1-0.8c0.4-0.1,0.7-0.2,0.8,0.3c0.1,0.1,0.3,0.2,0.4,0.2
				c0.5-0.1,0.8-0.2,1.4-0.3c-0.2-0.5,0-0.8,0.5-0.8c1.1-0.1,2.3-0.2,3.5-0.3c0.5,0,0.8,0,0.8,0.6c0.6,0,1,0,1.6,0
				c-0.1-0.7,0.4-0.7,0.8-0.6c1.1,0.1,2.2,0.2,3.3,0.3c0.5,0,0.7,0.3,0.5,0.8c0.1,0,0.2,0.1,0.3,0.1c0.6,0.1,1.2,0.5,1.7-0.3
				c0.1-0.1,0.4-0.1,0.6-0.1c1,0.2,1.9,0.5,2.8,0.8c0.6,0.2,1.1,0.4,0.8,1.1c0.5,0.2,1,0.4,1.4,0.5c0.3-0.3,0.5-0.8,1-0.5
				c1,0.5,2,1,3.1,1.5c0.3,0.2,0.7,0.3,0.4,0.8c0,0.1,0,0.3,0.1,0.3c0.4,0.2,0.8,0.5,1.1,0.6c0.2,0,0.5-0.3,0.7-0.4
				c1,0.7,2,1.4,2.9,2c0.6,0.4,0.7,0.6,0.3,1.2c0.4,0.4,0.8,0.7,1.2,1c0.4-0.6,0.8-0.5,1.2,0c0.5,0.6,1.1,1,1.5,1.5
				c0.4,0.5,1.4,0.8,0.7,1.7c0,0,0,0.2,0.1,0.2c0.2,0.3,0.4,0.5,0.7,0.8c0.1,0.1,0.4,0.2,0.4,0.1c0.5-0.3,0.8,0,1,0.3
				c0.7,0.8,1.2,1.8,1.9,2.8c0.1,0.2,0.1,0.5,0,0.6c-0.6,0.4-0.2,0.7,0,1c0.1,0.3,0.3,0.5,0.5,0.7c0.7-0.2,0.8-0.2,1,0.5
				c0.5,0.8,0.8,1.8,1.2,2.6c0.3,0.6,0.3,1-0.4,1.1c0.2,0.6,0.4,1,0.6,1.7c0.7-0.4,0.8-0.1,1,0.5c0.3,1,0.6,2,0.8,3.1
				c0.1,0.2-0.1,0.7-0.3,0.8c-0.3,0.3-0.4,0.5-0.3,0.8c0,0.2,0.1,0.4,0.1,0.8c-0.8,0-1.4,0-2.1,0c-0.4,0-0.6-0.1-0.7-0.5
				c-0.3-1.4-0.6-2.8-1-4.1c-1-3.2-2.5-6.3-4.6-8.9c-1.1-1.5-2.4-2.9-3.7-4.3c-1-1-2-2.1-3.2-2.8c-1.7-1.1-3.2-2.3-5-3.2
				c-1.7-0.8-3.3-1.7-5-2.1c-2.6-0.8-5.3-1.5-8.1-1.5c-1.9,0-3.8-0.1-5.7,0.1c-1.9,0.2-3.7,0.7-5.5,1c-2.8,0.6-5.4,1.9-7.9,3.3
				c-3.6,2.1-6.7,4.7-9.2,8c-2,2.6-3.7,5.3-5,8.2c-1.7,4.1-2.5,8.2-2.5,12.6c0,1.1,0.1,2.4,0.3,3.5c0.2,1.5,0.4,3.2,0.8,4.6
				c0.7,2.8,1.7,5.4,3.2,8c1.7,3.1,3.7,5.8,6.4,8.2c1.2,1.1,2.5,2.2,3.8,3.2c2.1,1.5,4.3,2.8,6.8,3.7c1.7,0.6,3.3,1,5,1.5
				c2.2,0.7,4.5,0.8,6.8,0.8c1.7,0,3.4-0.1,5-0.4c1.8-0.3,3.6-0.7,5.3-1.1c2.5-0.7,4.6-1.8,6.9-2.9c2.8-1.5,5.3-3.5,7.3-5.8
				c1.2-1.4,2.4-2.8,3.3-4.2c1-1.7,2-3.3,2.9-5c0.2-0.4,0.5-0.8-0.3-1c-3.8,8.6-10.2,14.2-17.3,17.2c-8,3.5-16.1,3.6-24.3,0.6
				c-7.2-2.6-12.8-7.5-16.7-14c-4.4-7.4-5.6-15.4-3.7-23.8c1.7-7.3,5.3-13.4,11.2-18.1c5.8-4.7,12.5-7.3,20-7.5
				c16.1-0.3,28.7,10.8,32.2,24.2c-0.3,0-0.6,0-0.8,0c-0.5,0.1-0.7-0.2-0.8-0.6c-1.2-4.3-3.5-8-6.4-11.3c-0.2,0.2-0.4,0.4-0.5,0.5
				c0.5,0.7,1,1.2,1.4,1.8c1.7,2.3,3.2,4.7,4.1,7.5c0.4,1,0.5,1.9,1,2.8c0.8,1.1,1.7,2.1,2.6,3.2c0.1,0.2,0.4,0.3,0.7,0.3
				c1.9,0,3.8,0,5.8,0c0.7,0,1.4,0,2.1,0c-1.7-11.6-6.8-21-16.1-28c-9.3-6.9-19.9-9.5-31.3-7.7c-9.6,1.5-17.8,6.1-24.2,13.5
				c-7.8,9-11,19.6-9.8,31.3c1,9.5,4.9,17.7,11.6,24.4c8.6,8.5,19,12.5,31,12c9.4-0.4,17.7-3.8,24.8-10c5.9-5.1,10-11.3,12.2-18.8
				c-0.1,0-0.2,0-0.2,0c-3.5,0-6.9,0-10.4,0c-0.3,0-0.6,0.2-0.8,0.3c-0.8,0.6-1.5,1.2-2.2,1.9c-0.8,0.7-1.7,1.4-2.2,2.1
				c-1.4,1.9-3.1,3.8-4.9,5.3c-0.4,0.4-1,0.6-0.6,1.2c2.4-1.7,4.1-3.8,5.5-6.1c0.8-0.1,1,1,1.7,0.3c0.2,0.1,0.4,0.3,0.6,0.4
				c0.2,0.1,0.4,0.3,0.6,0.5c-4.1,5.8-9.5,9.9-16.1,12.1c-6.7,2.2-13.4,2.1-20.2-0.1c-0.1,0.2-0.1,0.3-0.2,0.5
				c3.7,1.5,11,2.8,18.7,0.7C184.7,100.6,191.8,94.2,196.1,84.4L196.1,84.4z M197.2,63.1c-1-4.1-4.2-11.3-12-17
				c-6.5-4.9-14-6.9-22.2-6.1c-6.8,0.8-13.1,3.2-18.1,7.9c-6.7,6-10.4,13.4-10.9,22.4c-0.5,8.8,2.2,16.6,8,23.2
				c2.4,2.8,5.3,5.1,8.6,6.9c0.1-0.3,0.2-0.5,0.2-0.5c-0.4-0.3-0.8-0.5-1-0.7c-0.2-0.2-0.4-0.3-0.6-0.5c-1.7-1.4-3.3-2.5-5-3.9
				c-1.8-1.7-3.2-3.6-4.6-5.6c-2.8-4.4-4.5-9.2-4.9-14.5c-0.2-3.3-0.1-6.5,0.8-9.7c0.8-2.9,1.8-5.9,3.3-8.5c1.7-2.9,3.9-5.6,6.4-7.9
				c2.2-1.9,4.5-3.5,7.1-4.7c2.3-1.1,4.6-2,7.1-2.5c1.5-0.3,3.1-0.7,4.6-0.7c3.1-0.1,6.1,0,9.1,0.7c3.2,0.7,6.2,1.8,8.9,3.5
				c1.9,1.1,3.6,2.5,5.3,3.9c1.4,1.2,2.8,2.6,3.9,4.1c2.3,2.8,4,6.2,5.1,9.7C196.5,63,196.7,63.2,197.2,63.1L197.2,63.1z
				 M172.9,51.9c-0.1,0.1-0.1,0.2-0.2,0.3c0.3,0.3,0.6,0.6,0.8,0.7c1.1,0.6,2.4,1,3.5,1.8c2.9,1.9,5.3,4.3,7.1,7.3
				c0.2,0.3,0.3,0.6,0.5,0.8c0.7,0.4,1.1,0.8,0.8,1.7c0,0.1,0.1,0.3,0.1,0.4c0.4,1.1,0.8,2.3,1,3.5c0.3,1.7,0.4,3.3,0.3,5
				c-0.1,1.7-0.4,3.5-0.8,5.1c-0.8,2.6-2,4.9-3.7,6.8c-0.8,1-1.7,1.8-2.5,2.6c-1.4,1.2-2.8,2.2-4.5,3.1c-0.4,0.2-0.7,0.4-0.7,1
				c0.2-0.1,0.4-0.1,0.5-0.1s0.2-0.1,0.3-0.1c2.2-1,4.1-2.4,5.7-4.1c1.7-1.7,3.2-3.6,4.2-5.8c0.3-0.6,0.5-1.2,1-1.7
				c1-1,2.1-1.8,3.1-2.6c0.3-0.3,0.6-0.5,1-0.5c0.4,0,1-0.1,1.1,0.1c0.5,0.5,1,0.3,1.4,0.3c0.4,0,0.4-0.2,0.3-0.5
				c-0.3,0-0.6,0.1-0.8,0.1c-0.8-0.1-1.7-0.1-2.5-0.3c-0.2,0-0.5-0.2-0.6-0.3c-0.6-0.8-1-1.7-1.5-2.5c-0.1-0.2-0.3-0.5-0.3-0.8
				c0-0.8,0-1.7,0-2.5c-0.1-0.8-0.1-1.8-0.3-2.6c-0.7-2.8-1.7-5.4-3.2-7.7c-1-1.7-2.4-2.9-3.8-4.2c-1.4-1.1-2.8-2.1-4.4-2.8
				C175,52.6,173.9,52.3,172.9,51.9L172.9,51.9z M152.5,76.3c-0.5-0.5-1-0.7-1.7-0.7c-2.4,0.1-4.7,0.1-7.1,0.1c-1.2,0-2.6,0-3.5-1.2
				c-0.1-0.1-0.2-0.1-0.3-0.2c-0.7-0.6-1.2-1-1.1-2.1c0.1-1,0.1-2,0.2-3.1c0-0.4,0.1-0.8,0.1-1c0.5-2.2,1-4.3,1.9-6.4
				c1.4-3.2,3.2-5.9,5.5-8.3c0.5-0.5,1-1,1.5-1.5c-0.8-0.1-0.8-0.1-1.4,0.5c-0.8,0.8-1.7,1.7-2.5,2.8c-2.2,2.8-4,5.9-4.9,9.5
				c-0.6,2.4-1.1,4.6-1,7.1c0,1,0,2.1,0.1,3.1c0.2,1.5,0.4,2.9,0.7,4.4c0.8,3.2,2.2,6.4,4.1,9.1c0.2,0.2,0.5,0.3,0.8,0.5
				c0-0.3,0-0.3,0-0.4c-0.1-0.3-0.3-0.5-0.4-0.8c-2.1-2.9-3.5-6.2-4.2-9.7c0-0.2,0.1-0.4,0.2-0.5c0.8-0.4,1.5-0.8,2.3-1
				c0.4-0.1,0.8,0,1.1,0c1.4,0,2.6,0,4,0C148.8,76.3,150.6,76.3,152.5,76.3L152.5,76.3z M142.8,92.9c0.5-0.5,0.2-0.8-0.1-1.1
				c-1.4-1.7-2.6-3.3-3.5-5.3c-1.5-2.9-2.6-6-3.1-9.2c-0.2-1.5-0.4-3.2-0.5-4.6c-0.1-0.8,0-1.5,0.1-2.2c0.1-1.1,0.2-2.4,0.4-3.5
				c0.4-2.5,1.2-4.7,2.3-7.1c1.2-2.8,2.9-5.4,5-7.7c0.4-0.5,0.6-0.8,0.2-1.2C131.2,63.8,133.3,82.6,142.8,92.9L142.8,92.9z
				 M159.4,51.9c-1.4,0.7-2.8,1.4-4.1,2.1c-1.9,1-3.5,2.5-5,4.1c-2.3,2.6-3.8,5.5-4.7,8.9c-0.2,0.6,0,1,0.3,1.5
				c0.8,1,1.5,1.5,2.8,1.4c0.4-0.1,0.6-0.2,0.7-0.7c-0.5,0-0.8,0-1.4,0c0.3-1,0.6-2.1,1-3.1c0.5-1.1,0.8-2.3,1.5-3.5
				c0.5-0.8,1.1-1.5,1.7-2.2c1.4-1.7,3.1-3.1,4.9-4.1c0.3-0.2,0.5-0.7,0.8-1c-0.1,0-0.1-0.1-0.2-0.1c-5.3,2.6-8.6,7.1-10,12.9
				c-1.1-0.8-1.2-1.4-0.8-2.5c0.8-2.1,1.8-4,3.2-5.8c1.7-2.2,3.7-4.1,6.1-5.4c1-0.6,2.1-1,3.2-1.5C159.1,52.6,159.5,52.4,159.4,51.9
				L159.4,51.9z M144.1,91.8c-5-5.8-7.6-12.5-7.5-20c0.2-7.6,3.1-14.2,8.1-19.9c-0.3,0-0.7-0.1-0.8,0.1c-0.7,0.7-1.2,1.4-1.8,2.2
				c-1.4,1.9-2.6,4-3.6,6.1c-0.7,1.5-1.1,3.2-1.5,4.6c-0.4,1.8-0.8,3.6-0.8,5.5c-0.1,1.4,0,2.9,0.1,4.3c0.1,2.3,0.7,4.5,1.4,6.7
				c1.1,3.7,3.1,7.1,5.6,10.2C143.4,91.9,143.7,92.1,144.1,91.8L144.1,91.8z M173.9,53.4c-0.1,0.1-0.1,0.1-0.2,0.2
				c0.2,0.3,0.4,0.7,0.8,0.8c1.9,1,3.6,2.1,5.1,3.5c1.5,1.4,2.6,2.9,3.7,4.7c1.4,2.5,2.2,5.3,2.6,8.1c0.2,2.2,0,4.3-0.6,6.4
				c-0.7,2.8-2,5.3-3.8,7.5c-1.1,1.4-2.5,2.6-4,3.7c-0.7,0.4-1.4,0.8-1.5,1.8c0.1-0.1,0.2-0.2,0.3-0.2c4-2.3,6.8-5.5,8.6-9.8
				c1-2.6,1.7-5.1,1.5-7.9c0-1-0.1-2.2-0.3-3.2c-0.3-1.4-0.8-2.8-1.1-4.2c0-0.1-0.3-0.3-0.3-0.3c-0.4,0.3-0.4-0.1-0.5-0.3
				c-0.2-0.4-0.5-0.8-0.3-1.4c0.1-0.1-0.1-0.3-0.1-0.5c-0.8-1.5-1.8-2.8-3.1-4.2C179,56.2,176.5,54.5,173.9,53.4z M142.9,89.3
				c0-0.3,0.2-0.7,0-0.8c-1.4-1.9-2.6-4-3.2-6.2c-0.7-2-1.2-4.1-1.7-6.2c-0.3-1.7-0.2-3.5-0.2-5.3c0-1.5,0.3-3.1,0.6-4.6
				c0.5-2.6,1.5-5,2.6-7.4c1.5-2.8,3.5-5.3,5.9-7.6c-0.1-0.2-0.1-0.5-0.2-0.7C137.3,58.3,132.7,75.7,142.9,89.3z M172.1,50.5
				c0.2,0.8,0.7,1,1.1,1c1.9,0.7,3.6,1.5,5.3,2.6c3.2,2.2,5.7,5,7.4,8.6c1.5,3.1,2.3,6.3,2.3,9.6c0,0.5,0,1,0.2,1.4
				c0.4,0.8,0.8,1.4,1.2,2.1c0.1,0.2,0.2,0.4,0.4,0.4c0.7,0,1.4,0,2.1,0c0.4,0,0.8-0.1,1.4-0.2c0,0,0-0.2,0-0.3
				c-0.8,0-1.5-0.1-2.3-0.1c-0.1,0-0.2-0.2-0.3-0.3c-0.6-1-1.1-1.8-1.7-2.8c-0.2-0.3-0.2-0.7-0.3-1c-0.2-1.5-0.3-3.1-0.6-4.6
				c-0.5-2.6-1.7-4.9-3.1-7.1c-1.2-2-2.9-3.8-4.7-5.3c-1.7-1.4-3.6-2.5-5.6-3.3C173.9,51,173,50.8,172.1,50.5L172.1,50.5z
				 M177.1,94.3c0.8-0.4,1.4-0.8,2.2-1.2c3.3-2,5.9-4.7,7.9-8c0.3-0.5,0.6-1,1-1.4c1-1,2-1.7,2.9-2.6c0.4-0.4,0.8-0.5,1.4-0.5
				c4.4,0,8.9,0,13.2,0c0.4,0,0.7,0,0.7-0.5c0-0.1-0.5-0.3-0.7-0.3c-2.4,0.1-4.7,0.2-7.1,0.2c-2.3,0-4.6-0.2-6.8-0.2
				c-0.3,0-0.6,0.1-0.8,0.3c-0.8,0.7-1.7,1.4-2.4,2c-0.3,0.2-0.6,0.4-0.8,0.7c-1.2,2.4-2.6,4.5-4.6,6.4c-1.7,1.7-3.5,3.1-5.5,4.1
				C177.3,93.6,176.9,93.7,177.1,94.3z M148.5,74c0-0.1,0.1-0.1,0.1-0.2c-0.1-0.1-0.2-0.1-0.3-0.2c-0.7-0.5-1.4-0.2-2-0.3
				c-1,0-1.9,0.2-2.8-0.1c-0.8-0.4-1.4-1.2-2-1.9c-0.1-0.1-0.2-0.2-0.3-0.3c-0.1-0.1-0.1-0.2-0.1-0.4c0.1-0.8,0.1-1.7,0.3-2.6
				c0.6-2.4,1.1-4.6,2.2-6.8c1.2-2.5,2.8-4.6,4.6-6.7c1-1.1,2.3-2.1,3.5-3.2c-0.4,0-0.8-0.1-1,0.1c-1,0.7-1.8,1.4-2.6,2.3
				c-1.1,1.2-2.3,2.6-3.2,4c-1.4,1.8-2.4,3.9-3.1,6c-0.7,2.1-1.1,4.3-1.4,6.4c-0.1,0.8-0.2,1.5,0.6,2.1c0.7,0.5,1,1.4,2,1.4
				C144.8,74,146.6,74,148.5,74L148.5,74z M154.2,50.5c-0.2,0.1-0.3,0.2-0.4,0.3c-1.9,1.1-3.8,2.5-5.3,4.1c-1,1-1.9,2.3-2.8,3.5
				c-1.4,1.7-2.3,3.7-2.9,5.8c-0.6,1.8-1,3.7-1.2,5.6c-0.1,0.8,0.1,1.2,0.6,1.8c0.8,1.1,2,1.5,3.3,1.3c0.4-0.1,0.7,0,1,0
				c0.5,0,0.7-0.2,0.7-0.7c-0.5,0-0.8-0.1-1.2,0c-1,0.2-1.9-0.2-2.6-1c-0.3-0.4-0.6-0.7-0.8-1c-0.1-0.2-0.3-0.4-0.3-0.6
				c0.2-1.1,0.3-2.3,0.6-3.5c0.7-2.6,1.7-5.1,3.3-7.3c1.8-2.8,4.1-5.1,6.8-6.8C153.7,51.8,154.4,51.6,154.2,50.5L154.2,50.5z
				 M143.6,74.5c-1,0.4-1.7-0.3-2.3-1c-0.4-0.4-0.8-0.8-1.1-1.1c-0.1-0.2-0.3-0.4-0.2-0.6c0.1-1.2,0.1-2.4,0.3-3.6
				c0.5-2.8,1.4-5.5,2.8-8.2c1.7-3.5,4.2-6.3,7.1-8.6c0.4-0.3,0.6-0.6,0.2-1c-1.7,1.2-3.1,2.6-4.4,4.1c-2.2,2.5-4,5.3-5,8.3
				c-0.8,2.1-1.2,4.2-1.4,6.4c-0.1,0.8-0.2,1.7-0.2,2.4c0,0.4-0.1,1.1,0.2,1.4c1,1,1.9,2.4,3.7,2c0,0,0,0,0.1,0
				C143.7,75.1,143.8,75,143.6,74.5z M148.5,70.2c-0.5,0-0.8,0-1.2-0.1c-0.3-0.1-0.7-0.2-0.8-0.4c-0.5-0.5-1-1-1.4-1.7
				c-0.2-0.3-0.4-0.5-0.2-0.8c0.2-0.6,0.4-1.2,0.6-1.8c0.8-2.9,2.5-5.4,4.4-7.7c2.6-3.1,5.8-5.1,9.6-6.4c0.4-0.1,0.7-0.5,1-0.7
				c0-0.1-0.1-0.1-0.1-0.2c-0.2,0-0.4,0-0.6,0.1c-1.4,0.6-2.9,1.1-4.4,1.9c-2.6,1.4-5,3.3-6.8,5.7c-1.5,1.9-2.8,4-3.6,6.4
				c-0.4,1.1-0.7,2.4-1,3.6c-0.2,0.7,0.5,1,0.8,1.4c0.7,1.1,1.7,1.4,2.9,1.2C148,70.8,148.4,70.8,148.5,70.2L148.5,70.2z M148,71.5
				c0-0.1-0.1-0.2-0.1-0.3c-0.6,0-1.2,0-1.8,0c-0.3,0-0.6-0.2-0.7-0.4c-0.5-0.6-1-1-1.4-1.7c-0.2-0.2-0.3-0.5-0.3-0.7
				c0-0.5,0.2-1,0.3-1.4c0.5-2.2,1.4-4.2,2.5-6.1c1.7-3.1,4-5.7,7.1-7.6c0.6-0.4,1.1-0.8,1.7-1.1c0-0.1,0-0.1-0.1-0.2
				c-0.4,0-0.8-0.1-1,0.1c-0.6,0.3-1,0.7-1.5,1c-1,0.8-2.1,1.7-3.2,2.6c-0.7,0.6-1.2,1.4-1.7,2.1c-0.8,1.2-1.7,2.4-2.4,3.7
				c-1.2,2.3-1.9,4.6-2.3,7.2c-0.1,0.5-0.2,1,0,1.4c0.8,1.1,1.7,2.2,3.5,1.9c0.3-0.1,0.7,0,1,0C147.5,71.8,147.7,71.5,148,71.5
				L148,71.5z M180,93.4c0.3,0.5,0.6,0.3,1,0c0.5-0.4,1-0.7,1.4-1c1.8-1.4,3.5-3.2,4.7-5c0.6-0.8,1-1.7,1.7-2.3
				c0.8-0.8,1.8-1.5,2.6-2.3c0.8-0.8,1.7-1.1,2.8-1c3.7,0.1,7.5,0,11.2,0c0.4,0,0.7-0.1,0.6-0.6c-0.1,0-0.1,0-0.1,0
				c-4.6,0-9.1,0-13.8,0c-0.2,0-0.4,0.1-0.5,0.3c-0.7,0.6-1.4,1.1-2.1,1.7c-0.5,0.5-1,1-1.5,1.5c-0.6,0.7-0.8,1.5-1.4,2.2
				c-1,1.2-1.9,2.4-2.9,3.5C182.6,91.3,181.3,92.2,180,93.4z M205.8,82.1c-0.2,0-0.5,0-0.7,0c-3.5,0-6.9,0-10.4,0
				c-1.4,0-2.5,0-3.3,1.1c0,0-0.1,0-0.1,0.1c-1,0.8-1.9,1.7-2.8,2.6c-0.6,0.7-1,1.4-1.5,2.1c-1.7,2.3-3.6,4.1-5.9,5.7
				c-0.4,0.3-0.5,0.6-0.4,1c0.2-0.1,0.4-0.2,0.5-0.3c2.6-1.7,4.7-3.9,6.5-6.4c0.6-0.8,1.1-1.5,1.9-2.2c1-1,2.1-1.8,3.2-2.8
				c0.4-0.3,0.7-0.5,1.1-0.5c3.7,0,7.5,0,11.2,0C205.6,82.8,205.9,82.6,205.8,82.1L205.8,82.1z M179.2,76.9
				c-0.1-0.1-0.2-0.1-0.3-0.2c-0.3,0.3-0.6,0.5-0.8,0.8c-0.8,1.9-2.1,3.6-3.7,5c-2.4,1.9-5.1,2.9-8.2,3.1c-1.9,0.1-3.7-0.4-5.4-1.1
				c-0.8-0.4-1.7-0.8-2.4-1.4c0-0.1,0.1-0.1,0.1-0.2c1.2,0.1,2.5-0.2,3.6,0.4c0.8,0.4,1.7,0.5,2.6,0.8c0.1,0,0.3,0,0.6-0.1
				c-0.2-0.1-0.3-0.2-0.3-0.3c-1.2-0.8-2.6-1.7-4.3-1.4c-0.6,0.1-1.2,0-1.8,0c-0.8,0-1.5,0-2.3,0c0.5,0.5,0.8,0.8,1.4,1
				c1.7,1,3.2,2,5,2.5c2.4,0.6,4.9,0.6,7.1-0.2c1.9-0.7,3.6-1.8,5.3-2.8c1.2-0.8,2.1-2.1,2.8-3.5C178.6,78.4,178.9,77.6,179.2,76.9
				L179.2,76.9z M188.2,52.6c0.1,0.2,0.3,0.4,0.4,0.5c0.8,1.1,1.7,2.2,2.5,3.3c1.7,2.6,2.8,5.3,3.6,8.2c0.1,0.4,0.3,0.7,0.5,1
				c0.7,0.8,1.4,1.7,2,2.6c0.2,0.3,0.5,0.4,0.8,0.4c2.3,0,4.6,0,6.8,0c0.7,0,1.4,0,2,0c0-0.2,0-0.4,0-0.6c-0.3,0-0.5,0-0.7,0
				c-2.4,0-4.7,0-7.2,0c-0.3,0-0.7-0.2-0.8-0.4c-0.7-0.8-1.4-1.7-2-2.5c-0.5-0.6-0.8-1-1-1.8c-1-3.6-2.8-6.8-5.1-9.8
				C189.4,53.1,189.2,52.3,188.2,52.6L188.2,52.6z M206.9,69c-3.1,0-6.1,0-9.2,0c-0.3,0-0.6-0.1-0.8-0.3c-0.6-0.7-1.1-1.4-1.7-2.2
				c-0.4-0.5-0.8-0.8-1-1.4c-0.7-2.6-1.7-5.1-2.9-7.4c-0.6-1-1.2-1.8-1.8-2.6c-0.1,0-0.2,0.1-0.2,0.1c0,0.3,0,0.7,0.1,1
				c0.2,0.5,0.6,0.8,0.8,1.2c1.4,2.3,2.5,4.6,3.2,7.2c0.3,0.8,0.3,1.8,1,2.6c0.7,0.7,1.2,1.5,1.8,2.3c0.1,0.2,0.4,0.2,0.6,0.2
				c1,0,1.9,0,2.9,0c2.4,0,4.7,0,7.1,0C206.9,69.4,206.9,69.3,206.9,69z M188.2,55.9c0.1,0.2,0.2,0.4,0.3,0.6
				c2.1,2.8,3.5,6.1,4.3,9.6c0.2,0.8,0.3,1.5,0.8,2.2c0.6,0.7,1.1,1.4,1.7,2.1c0.2,0.2,0.5,0.4,0.7,0.4c1.4,0,2.6,0,3.9,0
				c0.6,0,1.1,0.3,1.7-0.3c0-0.1,0.2,0,0.4,0c0.5,0,0.8,0,1.4,0c0.4,0,1-0.1,1.2,0.1c0.8,0.6,1.7,0.2,2.6,0.3c0-0.3,0-0.5-0.1-0.7
				c-3.2,0-6.3,0-9.4,0c-1,0-1.5-0.3-2-1c-0.2-0.4-0.6-0.7-0.8-1c-0.4-0.6-1-1.2-1.1-1.9c-0.8-3.3-2.1-6.4-4-9.3
				C189.3,56.5,189,55.8,188.2,55.9L188.2,55.9z M207.1,72.3c-0.3,0-0.5,0-0.7,0c-3.5,0-6.9,0-10.4,0c-1,0-2,0-2.5-1.1
				c0-0.1-0.1-0.1-0.1-0.1c-0.7-1-1.7-1.9-1.8-3.2c0-0.6-0.2-1.2-0.4-1.8c-0.4-1.8-1-3.5-1.8-5c-0.3-0.7-0.6-1.4-1.5-1.4
				c0.5,1,1,2.1,1.5,3.2c0.8,1.9,1.4,4,1.7,6.1c0.1,0.8,0.3,1.4,0.8,2c0.5,0.6,0.8,1.1,1.2,1.8c0.2,0.3,0.4,0.5,0.7,0.4
				c2.6-0.2,5.3,0.4,7.9-0.4c0.8-0.2,1.7,0,2.6,0c0.1,0,0.2,0.1,0.4,0.1c0.3,0.1,0.6,0.2,0.8,0.3c0.5,0,1,0,1.4,0
				c0.1,0,0.1,0,0.2-0.1C207.1,72.7,207.1,72.6,207.1,72.3z M183.1,93.7c0.2,0.4,0.4,0.5,0.7,0.2c1.4-1.4,2.8-2.6,4.1-4.1
				c0.6-0.7,1-1.4,1.7-2.1c1.2-1.2,2.6-2.3,3.9-3.5c0.5-0.4,1-0.6,1.5-0.6c3.3,0,6.5,0,9.9,0c0.2,0,0.4-0.2,0.7-0.3
				c-0.2-0.1-0.4-0.3-0.7-0.3c-3.6,0-7.2,0-10.8,0c-0.4,0-0.8,0.2-1.1,0.5c-0.8,0.6-1.4,1.1-2,1.8c-0.7,0.6-1.2,1.1-1.8,1.7
				c-1.1,1.4-2.3,2.8-3.5,4.2C184.8,92.2,184,93,183.1,93.7L183.1,93.7z M207.1,71.8c0-0.5-0.2-0.6-0.6-0.7c-1-0.2-1.9,0.4-2.8,0.5
				c-0.8,0-1.7,0.2-2.3-0.1c-0.6-0.3-1-0.3-1.7-0.3c-1.4,0-2.6,0-3.9,0c-0.6,0-0.8-0.2-1.1-0.6c-0.5-0.7-1-1.2-1.4-1.9
				c-0.3-0.4-0.6-0.8-0.8-1.2c-0.5-1.5-0.8-3.1-1.1-4.5c-0.6-1.9-1.4-3.6-2.6-5.1c0,0.2,0.1,0.4,0.2,0.6c0.1,0.2,0.3,0.5,0.2,0.6
				c-0.5,0.5-0.1,0.8,0.1,1.2c1.1,2.1,1.9,4.3,2.4,6.5c0.3,1.1,0.4,2.4,1.4,3.2c0.4,0.4,0.8,0.8,1,1.4c0.3,0.4,0.5,0.6,1,0.6
				c3.8,0,7.6,0,11.4,0C206.7,71.8,206.8,71.8,207.1,71.8L207.1,71.8z M173.3,93.5c0.2,0,0.3,0,0.4,0c1.4-0.7,2.9-1.4,4.3-2.1
				c2.1-1.2,4-2.8,5.5-4.7c1.2-1.5,2.3-3.2,3.2-5c0.1-0.3,0.3-0.6,0.5-0.8c0.7-0.6,1.4-1,2-1.7c0.7-0.7,1.4-1,2.5-1
				c0.5,0.1,1-0.2,1.7-0.3c0,0,0-0.2,0-0.3c-0.4,0-0.8,0-1,0c-0.1,0-0.2,0-0.3,0c-0.7,0.5-1.4,0.4-2,0.2c-0.6-0.1-0.8,0-1.2,0.4
				c-0.1,0.1-0.3,0.3-0.4,0.4c-1,0.8-1.8,1.9-2.5,3.2c-1.4,2.8-3.2,5.3-5.7,7.1c-1.5,1.2-3.2,2.3-5,3.2
				C174.4,92.5,173.7,92.6,173.3,93.5L173.3,93.5z M206.9,73.4c-0.7,0-1.4,0-1.9,0c-0.1,0-0.2,0-0.3,0.1c-0.2,0.1-0.4,0.3-0.6,0.3
				c-0.4,0-0.8,0-1.2,0c-0.7,0-1.4,0.3-1.9-0.4c0,0-0.1-0.1-0.2-0.1c-0.8,0-1.5,0-2.3,0c-1.7,0-3.3,0.1-5,0c-0.3,0-0.6-0.3-0.8-0.5
				c-0.3-0.4-0.6-0.8-0.8-1.1c-0.4-0.7-0.8-1.4-1.2-2c-0.2-0.4-0.1-0.8-0.2-1.2c-0.3-1.2-0.5-2.4-0.8-3.6c-0.3-1-0.7-1.9-1-2.8
				c-0.1,0-0.2,0-0.3,0.1c0,0.4-0.1,0.8,0,1.1c0.8,2.1,1.4,4.3,1.5,6.5c0,0.5,0.1,1,0.4,1.4c0.5,0.7,1,1.4,1.4,2.2
				c0.2,0.4,0.5,0.5,0.8,0.5c2.6,0,5,0,7.6,0c2.1,0,4.2,0,6.3,0C206.8,73.9,207.1,73.9,206.9,73.4z M157.9,91.8
				c-0.4-0.4-0.7-0.8-1-1c-0.7-0.5-1.4-0.8-2.2-1.4c-1.8-1.1-3.2-2.5-4.6-4.1c-0.3-0.3-0.5-0.6-0.8-1c0.1-0.1,0.1-0.1,0.2-0.2
				c0.2,0.1,0.4,0.2,0.5,0.3c1.4,1.7,3.1,3.3,5,4.6c0.5,0.3,1,0.6,1.7,1c-0.8-1.7-2.4-2.1-3.5-3.2c-1-1-2.2-2-2.9-3.5
				c0.4-0.4,0.8-0.7,1-1c-0.4-0.6-0.5-0.7-0.8-0.4c-0.8,0.6-1.4,1.2-2.2,1.9c1.1,1.8,2.6,3.3,4.2,4.6
				C154.1,90.1,155.9,91.1,157.9,91.8z M193.3,79c-0.5-0.1-0.8-0.1-1.4-0.1c-0.7-0.1-1.4-0.3-1.9,0.2c-0.8,0.7-1.7,1.4-2.4,2
				c-0.3,0.2-0.6,0.4-0.7,0.7c-1,2.4-2.5,4.5-4.3,6.3c-1.4,1.5-3.2,2.8-5,3.9c-0.6,0.3-1,0.7-1.7,1c0.7,0.4,1.1,0.1,1.7-0.2
				c1.5-1,3.1-2,4.3-3.2c1.5-1.4,2.9-3.1,4-4.9c0.5-0.8,0.8-1.7,1.4-2.3c1-1,2-1.8,3.1-2.6c0.2-0.2,0.5-0.3,0.8-0.3
				c0.6-0.1,1.1-0.1,1.8-0.1C193.3,79.3,193.3,79,193.3,79L193.3,79z M166.1,40.9c-7.8,0.2-14.6,2.6-20.4,7.8c0.4,0.6,0.7,0.4,1,0.1
				c2.2-1.8,4.6-3.5,7.2-4.5c1.2-0.5,2.5-1,3.7-1.4c0.6-0.2,1.1-0.5,1.7-0.7c0.1-0.1,0.3-0.1,0.4-0.1c0.8-0.1,1.7-0.1,2.4-0.1
				c1-0.1,2-0.2,2.9-0.3C165.4,41.7,166,41.7,166.1,40.9L166.1,40.9z M175,55.1c-0.1,0.1-0.2,0.2-0.2,0.2c0.3,0.3,0.6,0.8,1,1
				c1.5,1,2.8,2,4.1,3.3c1.4,1.4,2.4,2.9,3.2,4.6c1.1,2.3,1.7,4.6,1.8,7.1c0,0.4,0.2,0.7,0.4,1.1c0.1,0,0.2-0.1,0.2-0.1
				c0.2-4-1-7.6-3.2-10.9C180.4,58.7,178,56.6,175,55.1z M160.9,96.4c0-0.1,0.1-0.1,0.1-0.2c-0.2-0.2-0.5-0.4-0.7-0.6
				c-0.3-0.2-0.7-0.2-1-0.3c-2.6-1-5.3-2.1-7.5-3.8c-2.5-1.9-4.6-4.1-6.2-6.8c-0.2-0.4-0.5-0.5-1-0.3c1.7,3.2,4.1,5.9,7.1,8
				C154.6,94.3,157.6,95.7,160.9,96.4z M146.3,83.2c1,1.4,2,2.6,3.1,4c1.7,2,3.7,3.5,5.9,4.7c0.1,0.1,0.3,0,0.5,0
				c0-0.2,0-0.4-0.1-0.6c-0.2-0.2-0.4-0.3-0.7-0.5c-2.8-1.7-5-3.8-6.8-6.4c-0.3-0.4-0.3-0.8,0.1-1c0.8-0.7,1.5-1.4,2.3-2
				c-0.3-0.2-0.5-0.5-0.7-0.6c-0.6-0.1-1.2-0.1-1.8,0.4C147.7,82,147.1,82.5,146.3,83.2z M170.4,47.9c0.4,0.8,0.4,0.8,1.4,1
				c3.7,0.8,6.9,2.5,9.8,5c1.9,1.7,3.6,3.5,5,5.6c0.3,0.4,0.6,0.7,1,0.5c-2.3-3.8-5.3-6.8-9-9C175.9,49.4,173.4,48.4,170.4,47.9
				L170.4,47.9z M161.7,97.6c0-0.1,0.1-0.2,0.1-0.3c-0.2-0.2-0.5-0.5-0.7-0.6c-0.4-0.2-0.8-0.2-1.2-0.3c-1.9-0.6-3.9-1.1-5.6-2.2
				c-1.5-1-3.1-1.9-4.5-3.1c-0.8-0.7-1.7-1.5-2.5-2.4c-0.7-0.8-1.4-1.5-1.9-2.2c0,0.4-0.1,0.8,0.1,1c0.4,0.7,0.8,1.2,1.4,1.8
				c1.2,1.1,2.4,2.4,3.7,3.3c1.4,1,2.8,1.9,4.4,2.6c1.4,0.7,3.1,1.1,4.6,1.7C160.4,97.4,161.1,97.5,161.7,97.6L161.7,97.6z
				 M185.5,96.7c-0.3-0.4-0.6-0.4-1-0.1c-2.2,1.8-4.6,3.2-7.3,4.2c-3.2,1.2-6.4,2-9.9,2c-0.5,0-1,0.2-1,0.8
				c3.5-0.2,6.9-0.5,10.2-1.7C179.7,100.5,182.8,99,185.5,96.7z M177.7,77.5c-0.2,0.1-0.4,0.2-0.6,0.4c-0.2,0.1-0.4,0.3-0.5,0.5
				c-1,1.7-2.3,2.9-3.8,4c-1.8,1.2-3.9,1.8-6.1,2c-1.7,0.2-3.4-0.3-5-0.8c-0.5-0.2-1-0.2-1.5-0.3c0,0.1,0,0.1,0,0.2
				C166.4,87.1,175,84,177.7,77.5L177.7,77.5z M158.5,53.3c-1.1,0.6-2.1,1.1-3.2,1.7c-2.3,1.4-4.1,3.2-5.7,5.3
				c-1.2,1.7-2.1,3.3-2.8,5.3c-0.2,0.6-0.5,1.1,0.2,1.7c0.1-0.4,0.2-0.7,0.3-1c1-2.8,2.6-5.4,4.6-7.7c1.7-1.7,3.5-3.2,5.7-4.1
				C158.1,54.4,158.5,54.1,158.5,53.3L158.5,53.3z M184.7,95.2c-2.1,1.5-4.2,2.8-6.4,3.9c-3.2,1.4-6.4,2.3-9.9,2.6
				c-0.5,0-1.1-0.1-1.4,0.8c0.8-0.1,1.7,0,2.5-0.2c2.2-0.4,4.4-0.8,6.4-1.5c2.8-1,5.3-2.4,7.7-4C184.3,96.4,184.8,96,184.7,95.2z
				 M143,85.6c0.3-0.6,0.3-0.6,0-1.1c-1-1.8-1.7-3.6-2.2-5.6c0-0.1,0-0.4,0.1-0.5c0.8-0.5,1.7-1.2,2.8-1.1c1.2,0.1,2.5,0,3.6,0
				c-0.1-0.6-0.5-0.8-1-0.8c-1.1,0-2.4,0-3.5,0c-0.8,0-1.4,0.1-2.1,0.5c-1,0.7-1,0.6-0.8,1.7C140.8,81.1,141.7,83.5,143,85.6z
				 M184.3,70.7c0.7-3.9-5-13.1-8.5-13.8c0.5,0.6,0.8,1.1,1.2,1.7c0.7,0.7,1.4,1.2,2,1.9c2.1,2.2,3.5,4.7,4.2,7.6
				C183.4,69,183.3,70,184.3,70.7z M159.1,43.6c0-0.6-0.2-0.8-0.8-0.6c-0.4,0.2-0.8,0.3-1.2,0.4c-3.8,1.1-7.2,3.1-10.3,5.5
				c-0.4,0.3-0.6,0.6-0.3,1.1C150.3,47,154.5,44.8,159.1,43.6z M181.6,96.6c-0.3,0-0.7-0.1-0.8,0c-3.8,2.2-7.8,3.6-12.2,3.9
				c-0.4,0-0.8,0.2-0.6,0.7C171.6,101.4,178.8,99,181.6,96.6z M148.3,78.5c-0.1-0.5-0.4-0.7-0.8-0.7c-1.1,0-2.3,0.1-3.5,0
				c-0.8,0-1.4,0.2-2.1,0.6c-0.5,0.3-0.7,0.6-0.5,1.1c0.6,1.5,1.2,3.1,1.8,4.6c0.2,0.5,0.4,1,1.1,0.8c0-0.1,0-0.1,0-0.2
				c-0.7-1.5-1.4-3.2-2.1-4.6c-0.1-0.2-0.1-0.6,0-0.6c0.8-0.4,1.5-1,2.6-1C145.9,78.5,147.1,78.5,148.3,78.5z M166.4,40.9
				c0,0.1-0.1,0.2-0.1,0.3c0.1,0.2,0.3,0.5,0.4,0.5c0.5,0.1,0.8,0.1,1.4,0.2c1.4,0.1,2.6,0.2,3.8,0.5c1.4,0.3,2.8,0.7,4.2,1
				c1,0.3,1.8,0.6,2.8,1c0.2-0.2,0.2-0.5-0.3-0.6c-1-0.4-1.8-0.8-2.8-1c-1.8-0.5-3.6-0.8-5.5-1.2C169,41.1,167.7,41.1,166.4,40.9z
				 M180.8,95.4c-1.1,0.6-2.3,1.1-3.5,1.7c-2.5,1.2-5.1,1.9-7.8,2.2c-0.5,0-0.8,0.3-0.8,0.8c1.1-0.2,2.2-0.3,3.2-0.5
				c3.1-0.6,5.8-1.7,8.5-3.2C180.8,96.1,181,95.8,180.8,95.4z M160.2,44.1c-0.5,0-0.8-0.1-1.4,0c-3.1,0.8-5.9,2-8.6,3.7
				c-0.5,0.3-0.8,0.7-1.4,1c0.4,0.4,0.7,0.4,1,0.1c0.2-0.2,0.6-0.4,0.8-0.6C153.7,46.3,157,45.5,160.2,44.1z M167,42.1
				c0,0.1-0.1,0.2-0.1,0.2c0.2,0.2,0.3,0.4,0.5,0.4c0.4,0.1,0.8,0.1,1.1,0.1c1.8,0.2,3.5,0.4,5.3,1c0.8,0.3,1.8,0.6,2.6,0.8
				c0.6,0.2,1.2,0.4,1.9,0.6c0-0.1,0-0.4-0.1-0.4c-0.6-0.3-1.2-0.7-1.9-0.8c-1.9-0.6-3.8-1-5.7-1.4C169.5,42.2,168.3,42.2,167,42.1z
				 M159.4,45.1c-3.5,0.8-6.7,2.4-9.5,4.5c0.1,0.2,0.1,0.5,0.2,0.7c2.9-2.1,6.1-3.6,9.4-4.5C159.4,45.5,159.4,45.4,159.4,45.1z
				 M144.4,88c1.4,1.9,2.9,3.5,4.7,5c1.4,1,2.6,2.1,4.3,2.4c0.1,0,0.2,0,0.4,0c-0.6-0.4-1.1-0.8-1.7-1c-1.7-1-3.3-2.4-4.6-3.8
				c-0.7-0.7-1.2-1.4-1.9-2.2C145.3,88,145,87.6,144.4,88z M178,45.8c-3.2-1.8-6.7-2.4-10.2-2.6c-0.1,0.6,0.3,0.8,0.7,0.8
				c2.3,0.1,4.5,0.6,6.5,1.4c0.5,0.2,0.8,0.3,1.4,0.4c0.5,0.1,0.8,0.3,1.4,0.4c0,0.1,0,0.1,0,0.2C177.8,46.2,177.9,46,178,45.8
				L178,45.8z M184.5,78.1c-0.1-0.1-0.1-0.1-0.2-0.2c-0.6,1-1.1,1.8-1.7,2.8c-0.8,1.5-1.7,2.8-2.8,4.1c-0.7,0.8-1.4,1.5-1.9,2.3
				c-0.1,0.1,0,0.2,0,0.5C181,85,183.4,81.9,184.5,78.1L184.5,78.1z M163.3,45.4c-0.6,0.2-1,0.3-1.4,0.5c-0.3,0.1-0.7,0.2-1,0.3
				c-0.6,0.1-1.1,0-1.7,0.1c-1.1,0.3-2.4,0.7-3.5,1.1c-1,0.5-2.1,1-3.2,1.5c0,0.1,0,0.2,0,0.2c0.3,0,0.7,0.2,0.8,0.1
				c0.8-0.4,1.7-0.8,2.5-1.1c2.1-1,4.3-1.5,6.5-1.8C163,46.3,163.3,46.1,163.3,45.4z M182.6,68.2c0.2-2-3.3-7.7-5.1-8.6
				C179.2,62.4,180.9,65.2,182.6,68.2z M153.7,50.4c0.1,0,0.2,0,0.2-0.1c2.6-1.4,5.3-2.4,8-2.8c0.4-0.1,0.8-0.3,0.7-0.8
				c-3.2,0.5-6.2,1.5-8.9,3.1C153.7,50,153.7,50.2,153.7,50.4z M167,83.5c0,0.1,0,0.1,0.1,0.2c2.4,0.4,7.7-2.8,8.6-5.1
				c-0.8,0.2-1.1,0.7-1.7,1.1c-1.4,1.5-3.2,2.5-5.3,3.1C168.3,83,167.7,83.3,167,83.5z M148.9,79.4c-0.3-0.7-0.3-0.7-1-0.7
				c-0.8,0-1.7,0.1-2.4,0c-1-0.1-1.8,0.3-2.6,0.8c-0.1,0.1-0.2,0.3-0.2,0.4c0.2,0.6,0.4,1.1,0.7,1.7c0.2-0.2,0.3-0.3,0.5-0.5l0-0.1
				c-0.1-0.2-0.1-0.3-0.2-0.4C145.2,79.4,147,79.3,148.9,79.4z M178.3,96.1c-0.3-0.5-0.6-0.5-1-0.3c-2.2,1-4.5,1.8-6.9,2.2
				c-0.6,0.1-0.7,0.2-0.8,0.8C172.7,98.5,175.7,97.6,178.3,96.1z M156.3,101.7c3.2,1.5,6.4,1.7,9.9,1.7c-0.3-0.3-0.7-0.6-1-0.6
				c-1.4-0.2-2.8-0.2-4.1-0.4c-1.5-0.2-3.1-0.6-4.6-1C156.4,101.4,156.3,101.5,156.3,101.7z M186.6,57.3c0.5-0.4,0.2-0.6-0.1-0.8
				c-1.7-2-3.2-4-5.8-5c-0.6-0.2-1-0.6-1.7-0.8c3.1,2.1,5.7,4.5,7.8,7.4C186.9,57.7,186.8,57.5,186.6,57.3z M188.2,56.6
				c-1.7-2.4-3.7-4.5-6.3-6.1c0,0.2-0.1,0.4-0.1,0.6c0.7,0.1,0.8,0.7,1.1,1c1.1,1.1,2.2,2.3,3.3,3.3
				C186.8,55.9,187.1,56.9,188.2,56.6z M149.7,68c0.1,0,0.1,0,0.2,0c1.7-2.8,3.5-5.7,5.3-8.6C152.3,61.9,150.6,64.7,149.7,68z
				 M168.4,44.5c0,0.1-0.1,0.2-0.1,0.2c0.3,0.2,0.5,0.4,0.8,0.4c1.7,0.4,3.5,0.8,5.3,1.1c0.5,0.1,1,0.5,1.5,0.5c0.6,0,1,0.2,1.4,0.6
				c0.1-0.2,0.2-0.3,0.2-0.4C174.5,45.2,171.5,44.5,168.4,44.5z M144.4,91.4c2.2,2.3,4.5,4.6,7.5,5.9c0.1-0.1,0.1-0.3,0.1-0.3
				c-0.6-0.5-1-0.8-1.5-1.2c-1.4-1.1-2.6-2.2-4-3.3C145.8,92.1,145.4,91.1,144.4,91.4z M145.8,90.4c-0.3,0.6-0.1,1,0.3,1.4
				c1.1,1,2.1,2,3.2,2.8c0.8,0.7,1.8,1,2.6,1.7c0.1,0.1,0.3,0,0.4,0c0-0.1,0-0.3-0.1-0.3c-0.7-0.1-1-0.7-1.4-1
				c-1.4-1.1-2.8-2.4-4.3-3.5C146.3,91,146.1,90.7,145.8,90.4z M156.7,100.7c0.4,0.2,0.8,0.4,1.1,0.5c0.2,0.1,0.4,0.1,0.5,0.2
				c2,0.4,4,0.7,6,1c0.3,0.1,0.6,0,1,0c0-0.1,0-0.2,0.1-0.3c-0.3-0.1-0.5-0.3-0.8-0.4c-1.4-0.2-2.8-0.4-4.3-0.7
				c-1.1-0.2-2.3-0.5-3.5-0.8C156.8,100.4,156.7,100.6,156.7,100.7L156.7,100.7z M176.9,47.8c-2.6-1.4-5.3-1.9-7.9-2.2
				c0.2,0.3,0.4,0.6,0.7,0.7c1.5,0.4,3.1,0.6,4.5,1c0.8,0.3,1.7,0,2.4,0.7C176.5,48,176.8,47.9,176.9,47.8z M169.8,46.6
				c0,0.1-0.1,0.2-0.1,0.3c0.3,0.2,0.5,0.6,0.8,0.7c2.4,0.4,4.6,1.1,6.7,2.1c0.4,0.2,0.7,0.4,1,0.6c0-0.1,0.1-0.1,0.1-0.2
				c-1.4-0.7-2.4-1.9-3.9-2.2C172.9,47.4,171.3,47,169.8,46.6z M156.3,56.9c-0.8,0.6-1.5,1-2.1,1.7c-1,1-1.8,1.9-2.8,2.9
				c-0.1,0.1-0.1,0.4,0,0.5c0.2,0.1,0.4,0.1,0.6,0.1c0.1,0,0.2-0.2,0.3-0.3c0.8-1,1.7-1.9,2.6-2.8C155.5,58.4,156.2,58,156.3,56.9z
				 M160,80.5c-0.6-0.5-1.1-0.7-1.8-0.7c-1.5,0-3.2,0-4.6,0c-0.2,0-0.4,0.1-0.8,0.1c0.7,0.5,1.1,0.7,1.9,0.7c1.5,0,3.1,0,4.6,0
				C159.5,80.7,159.7,80.5,160,80.5z M151.1,99c-0.5-0.4-1-0.8-1.4-1c-1.2-1-2.5-1.9-3.7-2.8c-0.4-0.3-0.7-0.5-1.2-0.3
				c1.9,1.8,3.9,3.5,6.3,4.5C151,99.2,151.1,99,151.1,99z M199,76.8c-0.1,0-0.1,0.1-0.2,0.1c0.1,0.1,0.2,0.3,0.4,0.3
				c0.7,0.1,1.4,0.1,2,0.1c1.7,0,3.2,0,4.9,0c0.2,0,0.4,0,0.7,0c-0.1-0.3-0.1-0.5-0.1-0.6C204.2,76.8,201.6,76.8,199,76.8z
				 M177.7,94.8c-0.1,0-0.1-0.1-0.2-0.1c-0.2,0.1-0.5,0.2-0.7,0.3c-1.8,0.8-3.6,1.5-5.6,1.9c-0.3,0.1-0.6,0.4-0.8,0.6
				c0.2,0.2,0.3,0.2,0.4,0.2c2.3-0.4,4.5-1.1,6.4-2.1C177.5,95.4,177.6,95.1,177.7,94.8z M145.9,93.7c-0.1,0-0.1,0.1-0.2,0.1
				c0.2,0.3,0.3,0.7,0.5,0.8c1.2,1,2.4,2,3.7,2.8c0.5,0.4,1,0.5,1.7,0.8c0-0.1,0.1-0.3,0.1-0.3C149.5,96.5,147.7,95.1,145.9,93.7
				L145.9,93.7z M183,48.7c-0.1,0.2-0.2,0.4-0.3,0.6c0.8,0.2,0.8,0.2,1.2,0.8c0.1,0.2,0.3,0.3,0.4,0.4c0.8,0.8,1.7,1.4,2.5,2.3
				c0.4,0.4,0.7,0.5,1.4,0.3c-0.8-0.8-1.7-1.7-2.5-2.4C184.8,49.9,183.9,49.3,183,48.7z M154.1,77.3c0-0.1,0-0.2,0.1-0.3
				c-0.5-0.2-1-0.5-1.5-0.5c-1.4-0.1-2.8,0-4.2,0c-0.3,0-0.7,0.1-1,0.1c0,0.1,0,0.2,0,0.2c0.5,0.2,0.8,0.4,1.4,0.4
				C150.5,77.3,152.3,77.3,154.1,77.3z M199.2,78.2c0.6,0.1,1.1,0.3,1.7,0.3c1.8,0,3.6,0,5.4,0c0.2,0,0.4-0.2,0.5-0.4
				c-0.2-0.1-0.4-0.3-0.5-0.3c-1.9,0-3.8,0-5.6,0c-0.5,0-1,0.1-1.4,0.1C199.2,78,199.2,78.1,199.2,78.2z M164.4,101.3
				c0-0.6-0.3-0.8-0.7-0.8c-1-0.2-1.9-0.2-2.8-0.4c-1.1-0.3-2.3-0.3-3.5-0.8c-0.1,0-0.3,0.1-0.5,0.2c0,0.1,0,0.1,0.1,0.2
				c1.1,0.3,2.4,0.7,3.5,1C161.9,101,163.1,101.1,164.4,101.3z M206.5,78.7c-2.5,0.2-5-0.3-7.4,0.5c2.4,0.3,4.9,0.2,7.3,0.2
				C206.5,79.3,206.5,79,206.5,78.7z M151,78.7c0,0.1,0,0.2,0,0.3c0.6,0.1,1,0.3,1.7,0.3c1.4,0,2.6,0,3.9,0c0.5,0,1,0,1.7,0
				c-0.7-0.5-1.1-0.7-1.8-0.7C154.5,78.9,152.8,78.7,151,78.7z M180.5,75.9c-0.1-0.1-0.1-0.1-0.2-0.2c-0.2,0.3-0.5,0.5-0.7,0.8
				c-0.3,0.7-0.5,1.4-0.8,2.1c-0.5,1-1.1,1.8-1.7,2.6C178.4,81.1,180.4,77.8,180.5,75.9z M161.5,81.6c0-0.1,0-0.2,0.1-0.3
				c-0.5-0.1-0.8-0.3-1.4-0.4c-1.4,0-2.8,0-4.3,0c-0.4,0-0.8,0-1.2,0c0,0.1,0,0.1,0,0.2c0.4,0.2,0.8,0.4,1,0.4
				C157.7,81.6,159.7,81.6,161.5,81.6z M156.1,78.5c0-0.1,0-0.2,0-0.3c-0.5-0.1-1-0.3-1.5-0.4c-1.7,0-3.2,0-4.9,0
				c-0.2,0-0.3,0-0.5,0c0,0.1,0,0.2,0,0.2c0.5,0.1,1,0.3,1.5,0.4c1.2,0.1,2.6,0,3.8,0C155.2,78.5,155.6,78.5,156.1,78.5z
				 M163.6,100.1c0-0.1,0.1-0.2,0.1-0.3c-0.3-0.2-0.6-0.5-0.8-0.6c-1-0.2-2.1-0.4-3.2-0.6c-0.7-0.1-1.4,0.1-1.8-0.5c0,0-0.1,0-0.2,0
				c-0.1,0.1-0.1,0.3-0.2,0.3C159.5,99.7,161.6,99.9,163.6,100.1z M186.5,54c0.1,0,0.1,0,0.2,0c0-0.3,0-0.7-0.1-0.8
				c-1.1-1.2-2.5-2.4-3.9-3.3c-0.1-0.1-0.3,0-0.5,0.1C183.7,51.3,185.1,52.6,186.5,54z M206.9,74.6c-2.6,0-5.3,0-8,0
				c0,0.2,0,0.4,0,0.5c0.5,0,0.8,0.1,1.2,0.1c0.4,0,0.7-0.1,1-0.2c0.2,0,0.3-0.1,0.5-0.1c0.8,0,1.7,0,2.5,0c0.2,0,0.3,0.1,0.5,0.2
				c0.2,0.1,0.3,0.2,0.5,0.2c0.6,0,1.1,0,1.7,0c0.1,0,0.1,0,0.2-0.1C206.9,74.8,206.9,74.8,206.9,74.6z M149.1,68.6
				c0.1-0.3,0.2-0.6,0.3-0.8c0.4-1,0.8-2.1,1.2-3.2c0.1-0.3,0.2-0.6-0.1-0.7c-0.1,0-0.4,0.1-0.5,0.2c-0.8,1.4-1.2,2.9-1.5,4.5
				C148.6,68.6,148.8,68.6,149.1,68.6L149.1,68.6z M156.6,49.3c0.3,0.6,0.7,0.8,1,0.4c0.1-0.1,0.2-0.1,0.3-0.1c1-0.3,2.2-0.7,3.3-1
				c0.5-0.1,0.5-0.4,0.6-0.8C160.1,48.4,158.4,48.8,156.6,49.3z M191.2,90c-0.3,0.4-0.5,0.8-0.7,1c-0.4,0.5-0.8,1-1.4,1.2
				c-0.5,0.3-0.8,1-1.4,1.4c-0.5,0.4-0.5,0.5-0.2,1.2c1.2-1.4,2.4-2.8,3.5-4.2C191.6,90.4,191.5,90.1,191.2,90L191.2,90z M199,75.5
				c0,0.3,0,0.5,0,0.6c2.6,0,5.3,0,7.8,0c0-0.1,0-0.3,0-0.5c-0.2,0-0.3,0-0.4,0c-0.8,0-1.4-0.1-2.1,0.4c-1.7-0.1-3.3-0.2-5-0.3
				C199.3,75.7,199.2,75.7,199,75.5z M157,96.8c1.7,1.4,3.7,1.8,5.8,1.9c-0.2-0.3-0.5-0.5-0.8-0.6c-0.7-0.2-1.4-0.3-1.9-0.5
				C159.1,97.5,158,97.2,157,96.8z M179.6,79.9c0.6-0.1,0.8-0.4,1-0.8c0.4-1,0.7-1.8,1-2.8c0.1-0.4,0.1-0.8,0.2-1.2
				c-0.5,0.2-0.8,0.4-0.8,0.8c-0.1,0.6-0.3,1.1-0.6,1.7C180.2,78.4,180,79,179.6,79.9z M163.6,86.4c1.2,1.1,4,1,5.1,0
				C167.2,86.4,165.4,86.4,163.6,86.4z M154.7,87.4c-0.2-0.3-0.3-0.6-0.5-0.7c-0.8-1-1.8-2-2.6-3.1c-0.3-0.3-0.5-0.2-0.8,0.1
				C151.7,85.2,153.7,86.9,154.7,87.4z M183.1,74.5c-0.1,0-0.2-0.1-0.3-0.1c-0.2,0.2-0.5,0.5-0.6,0.8c-0.4,1.1-0.7,2.2-1,3.3
				c-0.1,0.2-0.1,0.4-0.2,0.7C182.9,77.9,182.7,76,183.1,74.5z M183.7,47.2c0.5,0.3,1,0.4,1.2,0.8c0.3,0.6,1,0.8,1.5,1.4
				c0.4,0.3,0.7,0.5,1.4,0.2c-1.2-1-2.5-2-3.6-2.9C184,46.9,183.9,47,183.7,47.2z M184,73.4c-0.2,0.4-0.4,0.7-0.5,1
				c-0.1,0.4-0.2,0.8-0.3,1.4c-0.2,0.8-0.3,1.4-0.5,2.2C183.7,77.7,184.5,74.8,184,73.4z M157.3,51c1-0.4,2.2-0.7,3.2-1
				c0.3-0.1,0.5-0.4,0.8-0.6c0-0.1-0.1-0.1-0.1-0.2c-0.2,0-0.4,0-0.5,0c-0.8,0.2-1.5,0.5-2.2,0.7C157.7,50.2,157.2,50.2,157.3,51z
				 M185.5,73c-0.1,0-0.2-0.1-0.3-0.1c-0.2,0.2-0.4,0.4-0.5,0.6c-0.2,1.2-0.4,2.4-0.6,3.6c0.3-0.1,0.6-0.3,0.7-0.5
				C185.1,75.5,185.3,74.3,185.5,73z M161.6,43c1-0.1,2.1-0.2,3.2-0.4c0.3,0,0.5-0.3,0.7-0.4c0-0.1-0.1-0.2-0.1-0.3
				c-1,0.1-2.2,0.3-3.2,0.3C161.6,42.4,161.5,42.7,161.6,43z M186.8,50.2c-1-0.8-2.2-1.7-3.3-2.5c-0.1,0.2-0.2,0.4-0.3,0.5
				c0.5,0.2,0.5,0.2,1.2,1c0.6,0.6,1.2,1,2,1.5C186.5,50.5,186.6,50.4,186.8,50.2z M146.5,74.5c-0.1,0.6,0.1,0.7,0.5,0.7
				c0.8,0,1.7,0,2.6,0c0.3,0,0.6,0,0.8,0c0-0.1,0-0.1,0-0.2C149.2,74.1,147.9,74.7,146.5,74.5z M160.8,44.1c1-0.1,2-0.1,2.9-0.1
				c0.5,0,0.8-0.2,1-0.8C163.3,43.3,162.1,43.3,160.8,44.1z M156.2,93.4c0,0.1-0.1,0.1-0.1,0.2c1.2,0.5,2.6,0.8,3.8,1.4
				c0-0.1,0.1-0.2,0.1-0.4C158.8,93.9,157.6,93.3,156.2,93.4z M187.2,93.9c0.7-0.7,1.2-1.4,2.1-2.3c-0.4,0-0.8-0.2-0.8-0.1
				c-0.7,0.7-1.2,1.4-1.9,2.1C186.8,93.7,187,93.9,187.2,93.9z M174.7,95.5c-0.3-0.2-0.5-0.5-0.7-0.5c-0.8,0.1-1.4,0.4-2.1,0.6
				c-0.2,0.1-0.3,0.2-0.4,0.4c-0.1,0.1-0.1,0.2,0,0.3c0,0.1,0.2,0.1,0.3,0.1C172.6,96.1,173.6,95.8,174.7,95.5z M162,45.4
				c0.8-0.3,1.7,0.2,2.1-1c-0.8,0.1-1.4,0.2-2.2,0.3C162,44.8,162,45.1,162,45.4z M174,93.9c-1.4,0.3-1.4,0.4-1.5,1
				c0.5-0.2,1-0.4,1.5-0.5C174,94.3,174,94,174,93.9z M159,93.5c-0.3-0.7-0.5-0.8-1.4-1C157.6,93,158.1,93.5,159,93.5z M156.9,51.3
				c0-0.1-0.1-0.1-0.1-0.2c-0.6,0.3-1.1,0.6-1.7,0.8c0,0.1,0.1,0.1,0.1,0.2C155.8,51.9,156.3,51.6,156.9,51.3z M172.3,80.8
				c0-0.1-0.1-0.1-0.1-0.2c-0.5,0.3-1,0.6-1.5,0.8c0,0.1,0.1,0.1,0.1,0.2C171.4,81.4,171.9,81.1,172.3,80.8z M187.9,60.2L187.9,60.2
				c0.2,0.7,0.4,1.2,0.7,1.8c0.1,0,0.1-0.1,0.2-0.1C188.3,61.4,188.2,60.8,187.9,60.2z"/>
			<path d="M148.8,107.9c-0.4,1-0.8,0.6-1.4,0.3c-0.5-0.2-0.8-0.5-1.4-0.8c0.4-0.8,0.7-1.7,1-2.5c1.8,0.8,3.6,1.7,5.3,2.6
				c0.1,0.1,0.2,0.4,0.2,0.5c-0.1,0.4-0.3,0.8-0.5,1.2c0,0.1,0.1,0.3,0.1,0.5c0.1-0.1,0.3-0.1,0.4-0.2c0.2-0.4,0.3-0.8,0.5-1.2
				c0.1-0.2,0.3-0.2,0.5-0.3c0,0.2,0.1,0.4,0,0.6c-0.1,0.5-0.3,1-0.5,1.5c0.2,0.1,0.3,0.1,0.5,0.2c0.3-0.7,0.4-1.4,1-1.9
				c0.1,0,0.2,0.1,0.2,0.1c-0.1,0.4-0.2,0.8-0.4,1.2c-0.5,1.4-0.5,1.4-1.8,0.8c-1.2-0.4-1.2-0.4-0.8-1.7c0.1-0.2,0.1-0.4,0.2-0.7
				c-0.2,0-0.4,0-0.6,0.1c0.3-0.8-0.6-0.8-1-1.1c-0.1-0.1-0.5,0.1-0.6,0.3c-0.2,0.4-0.4,0.8-0.6,1.1c-0.1,0.2-0.3,0.3-0.4,0.4
				c0-0.2-0.1-0.4-0.1-0.6C148.8,108.2,148.8,108.1,148.8,107.9z M147.3,106.2c0.4,0.2,0.8,0.4,1.1,0.6c0.1,0.1,0.3-0.1,0.5-0.1
				c-0.1-0.1-0.1-0.3-0.2-0.4c-0.2-0.2-0.5-0.2-0.7-0.4C147.6,105.6,147.4,105.7,147.3,106.2z M148.1,107.9c0.4-0.8-0.5-0.8-0.8-1
				c-0.4-0.3-0.5,0-0.6,0.3C147.3,107.5,147.7,107.6,148.1,107.9z"/>
			<path d="M158,33.1c-0.1,0.5,0.2,0.6,0.7,0.5c0.3-0.1,0.7-0.1,1-0.1c-0.4,0.8-1,0.5-1.4,0.7c0,0.2,0,0.4,0,0.6
				c0.6-0.1,1.1-0.2,1.7-0.3c-0.1-0.8-0.2-1.4-0.2-2.3c0.8-0.1,1.8-0.3,2.6-0.4c0.1,1,0.2,1.8,0.3,2.8c-0.7,0.1-1.2,0.2-1.9,0.2
				c-0.8,0.1-1.7,0.2-2.6,0.4c-0.5,0.1-0.5-0.1-0.6-0.5c-0.1-0.7-0.2-1.4-0.4-2.2c0.7-0.1,1.2-0.3,1.9-0.4c0.1,0,0.2,0.1,0.3,0.2
				c-0.1,0.1-0.2,0.3-0.3,0.3C158.8,33,158.5,33,158,33.1L158,33.1z M160.7,34.3c0.4,0,0.8,0,1.1,0c0.1,0,0.3-0.2,0.4-0.3
				c0.1-0.3,0.1-0.6,0.1-0.8c0-0.4-0.2-0.7-0.7-0.6c-0.4,0.1-0.8,0.1-1.2,0.2C160.5,33.3,160.6,33.7,160.7,34.3L160.7,34.3z"/>
			<path d="M195.8,99c0.4-0.4,0.6-0.8,0.8-1c0.1-0.1,0.3-0.1,0.5-0.1c0,0.2,0,0.4-0.1,0.5c-0.5,0.6-1,1.1-1.5,1.7
				c-0.7-1-0.2-1.9-0.5-2.8c-0.5,0.4-0.7,1.1-1.5,1c0.6-0.8,1-1.7,2-2.3c0-0.5,0.5-1,1-1.5c0.4-0.4,0.8-0.2,1.1,0.1
				c0.3,0.2,0.7,0.4,0.8,0.7c0.2,0.2,0.3,0.7,0.2,0.8c-0.2,0.4-0.5,0.8-0.8,1c-0.3,0.2-0.8,0.2-1,0c-0.5-0.2-0.8-0.5-1.4-0.8
				C195.7,97.3,195.7,98,195.8,99L195.8,99z M197.1,94.8c-0.3,0.4-0.6,0.7-0.7,1c-0.1,0.2,0,0.5,0.1,0.6c0.3,0.3,0.7,0.5,1,0.7
				c0.3-0.4,0.6-0.8,1-1.4C198,95.4,197.5,95.1,197.1,94.8z"/>
			<path d="M165.1,32.1c-0.2,0.1-0.4,0.2-0.6,0.2c-0.2,0-0.5,0-0.7,0s-0.3,0.2-0.4,0.3c0.1,0.1,0.3,0.3,0.4,0.3c0.4,0,0.8,0,1.1,0
				c0,0.7-0.5,0.5-0.8,0.5c-0.4,0-0.8,0-0.7,0.6c0.6,0,1.1,0,1.8,0c0-0.8,0-1.5,0-2.4c1,0.3,1.3,1.4,2.1,1.7
				c0.1-0.6,0.1-1.1,0.2-1.8c0.3,0.2,0.4,0.3,0.4,0.4c0,0.8,0.1,1.7,0,2.4c0,0.3-0.5,0.2-0.7-0.1c-0.4-0.5-0.8-1-1.4-1.7
				c-0.1,0.7-0.1,1.2-0.2,1.7c-0.8,0.1-1.4,0.1-1.9,0.2c-0.7,0.1-0.8,0-0.8-0.7c0-0.6-0.1-1.1-0.1-1.7c0-0.2,0.1-0.4,0.2-0.4
				c0.7,0,1.2,0,1.9,0C165,31.9,165.1,32,165.1,32.1L165.1,32.1z"/>
			<path d="M136.9,100.1c-0.5-0.5-1-1-1.5-1.4c0.4-0.5,0.4-0.5,1.5,0.7c0.7-0.3,0.2-0.7,0-1c-0.1-0.2-0.2-0.4-0.3-0.7
				c0.2,0.1,0.5,0.2,0.7,0.4c0.2,0.1,0.3,0.4,0.5,0.5c0.6-0.4,0.6-0.4,0.2-0.8c-0.2-0.2-0.4-0.5-0.6-0.7c0-0.1,0-0.2,0-0.3
				c0.1,0,0.3,0,0.3,0c0.4,0.4,0.8,1,1.2,1.2c0.8,0.6,0.5,1.4,0.5,2c0,0.3,0,0.6,0,0.8c0.6-0.2,0.8-1.1,1.5-0.8
				c0.1,0.1,0.2,0.2,0.3,0.3c-0.8,0.6-1.4,1-2.3,1.7c-0.4-0.2-0.1-0.7-0.1-1.1c0-0.5,0.1-0.8,0.1-1.4c-0.8,0.1-0.8,1-1.7,1
				c0.6-0.7,1-1.2,1.7-1.8l-0.1-0.1C138,99.1,137.5,99.6,136.9,100.1z"/>
			<path d="M168.3,32c0.2-0.1,0.4-0.2,0.6-0.2c1,0.1,2,0.2,3.1,0.3c0.5,0,0.8,0.1,1.4,0.2c0.4,0.1,0.5,0.2,0.4,0.7
				c-0.1,0.4,0.1,1-0.1,1.4c-0.1,0.3,0.1,0.8-0.5,0.8c-0.1-0.4-0.1-1-0.3-1c-0.4-0.3-0.8-0.2-1.4-0.4c0,0.3,0,0.5-0.1,0.6
				c-0.1,0.2-0.3,0.3-0.4,0.5c-0.1-0.2-0.2-0.4-0.2-0.5c0.1-0.6,0.2-1.1,0.3-1.8c-0.4,0-0.8,0-1.1,0c-0.1,0.6-0.1,1.1-0.2,1.7
				c0,0.2-0.2,0.3-0.4,0.5c-0.1-0.2-0.3-0.3-0.3-0.5c0-0.5,0.1-1,0.2-1.7c-0.4-0.1-0.7-0.2-1-0.3C168.4,32.2,168.4,32.1,168.3,32z
				 M173,33.4c0.1-0.1,0.1-0.1,0.2-0.2c-0.1-0.1-0.3-0.4-0.4-0.4c-0.4-0.1-0.8,0-1.1,0c0,0.2,0,0.5,0.1,0.5
				C172.2,33.4,172.6,33.4,173,33.4z"/>
			<path d="M126.7,70.9c0-0.4,0.1-0.8,0.1-1.2c0-0.6,0.2-0.8,0.8-0.8c0.3,0,0.6,0,1,0c0,0.7,0.1,1.4,0,1.9c-0.3,1,0,2,0,2.9
				c0,0.1-0.2,0.4-0.4,0.4c-0.7,0-1.4,0-2.1,0c-0.1,0-0.3-0.1-0.4-0.2c0.1-0.1,0.3-0.3,0.4-0.3c0.6-0.1,1.2-0.1,1.9-0.2
				c0-0.8,0-1.7,0-2.5c0-0.4,0.1-0.8,0.1-1.1c0-0.2-0.2-0.3-0.3-0.5c-0.2,0.1-0.4,0.2-0.4,0.4c-0.1,0.4,0,0.8,0,1.2
				s-0.1,0.5-0.5,0.5s-0.8,0-1.2,0c0.1-1,0.2-1.8,0.2-2.6c0.1,0,0.1,0,0.2,0c0.6,0.7-0.2,1.7,0.5,2.2
				C126.6,70.9,126.7,70.9,126.7,70.9L126.7,70.9z"/>
			<path d="M154,36.6c-1,0.4-1.9,0.8-3.1,1.1c-0.1-0.1-0.2-0.2-0.3-0.4c-0.5-0.8-0.5-0.8-1.2-0.3c-0.2,0.1-0.4,0.2-0.5,0.3
				c0.2,0.5,0.3,0.8,0.5,1.2l-0.1,0.1c-0.2-0.1-0.4-0.1-0.5-0.2c-0.4-0.7-0.7-1.4-1-2.1c0.8-0.4,1.4-0.8,2.2-1
				c0.1,0,0.4,0.1,0.5,0.2c0.3,0.5,0.5,1,0.8,1.4c-0.2-0.6-0.4-1.2-0.6-1.8c0.1-0.1,0.1-0.1,0.2-0.2c0.2,0.1,0.4,0.3,0.5,0.4
				c0.2,0.5,0.4,1,0.6,1.5c0.8-0.1,1.4-0.8,2.1-0.4C153.8,36.4,153.8,36.5,154,36.6z M148.5,36.8c0.5-0.3,1-0.5,1.4-0.7
				C149.4,35.8,148.6,36.3,148.5,36.8z"/>
			<path d="M192.8,43.7c-0.4-0.3-0.8-0.5-1.2-0.8c-0.1,0.1-0.2,0.2-0.3,0.3c0.4,0.5,0.8,0.8,1.1,1.4c0.6-0.5,1-1,1.7-1.7
				c0.5,0.5,0.8,0.8,1.4,1.4c0.1,0.1,0,0.2,0.1,0.4c-0.1,0-0.3,0-0.4-0.1c-0.2-0.1-0.3-0.3-0.5-0.5c-0.3-0.4-0.6-0.5-1-0.1
				c0,0.6,1.1,0.6,0.8,1.4c-0.4-0.3-0.7-0.6-1-1c-0.2,0.1-0.3,0.2-0.4,0.3c0.4,0.4,0.7,0.8,1,1.2c-0.1,0.1-0.1,0.1-0.2,0.2
				c-0.7-0.3-1.1-1-1.7-1.5c-0.5-0.6-1.1-1-1.8-1.4c0.6-0.6,1-1.1,1.7-1.7c0.1-0.1,0.4-0.2,0.5-0.1c0.5,0.4,0.8,0.8,1.4,1.4
				c-1,0.1-1-0.7-1.7-1c-0.4,0.2-0.5,0.5-0.1,0.8c0.3,0.2,0.5,0.5,0.8,0.8C192.9,43.5,192.8,43.6,192.8,43.7L192.8,43.7z"/>
			<path d="M190.1,102.4c1,0.3,1.2-0.8,2-1c0.4,0.4,0.7,0.8,1.1,1.1c-0.8,0.6-1.4,1.1-2.2,1.7c-0.6-0.8-1.1-1.4-1.8-2.2
				c0.8-0.6,1.4-1.1,2.1-1.7c0.2,0.6,0.2,0.6-0.4,1c-0.3,0.3-0.7,0.5-1,0.7C190,102.2,190,102.3,190.1,102.4z M191.2,103.6
				c0.4-0.3,0.7-0.7,1-1c0.1-0.1-0.1-0.3-0.2-0.5c-0.4,0.3-0.8,0.6-1.4,1C190.9,103.3,191,103.3,191.2,103.6z"/>
			<path d="M188,106.3c-0.7,0.4-1.4,0.8-2,1.1c-0.3,0.2-0.5,0.1-0.7-0.2c-0.3-0.5-0.7-1-0.8-1.7c-0.1-0.2,0-0.5,0.1-0.6
				c0.6-0.4,1.1-0.7,1.7-1c0.1-0.1,0.3,0,0.4,0c-0.1,0.1-0.1,0.3-0.2,0.3c-0.4,0.3-0.8,0.5-1.1,0.8c-0.1,0.1-0.2,0.3-0.3,0.5
				c0.2,0,0.4,0.1,0.5,0.1c0.5-0.2,1-0.5,1.4-0.8C187.3,105.4,187.8,105.8,188,106.3L188,106.3z M187.3,106.2
				c-0.1-0.2-0.2-0.4-0.3-0.5c-0.4,0.2-0.8,0.4-1,0.7c-0.1,0.1-0.1,0.3-0.2,0.5c0.1,0,0.3,0.1,0.4,0
				C186.5,106.6,186.9,106.4,187.3,106.2z"/>
			<path d="M187.6,103.9c0.2,0.4,0.4,0.5,0.8,0.2c0.4-0.3,0.8-0.6,1.4-0.8c0.1,0.1,0.2,0.3,0.3,0.4c0.8,1,0.8,1-0.4,1.7
				c-0.4,0.2-0.8,0.5-1.1,0.8c-0.6-0.8-1-1.4-1.7-2.2c0.8-0.5,1.4-1,2.1-1.4c0.1,0,0.2,0.1,0.5,0.3
				C188.7,103.1,188.2,103.5,187.6,103.9z M189.8,104.4c0-0.1-0.1-0.2-0.1-0.2c-0.7-0.2-1,0.6-1.5,0.7c0.2,0.2,0.3,0.4,0.4,0.6
				C189,105,189.4,104.7,189.8,104.4z"/>
			<path d="M142.4,41.8c-0.3-0.6-0.6-1-1-1.7c0.6-0.5,1.1-1,1.8-1.4c0.1-0.1,0.5,0,0.5,0.1c0.5,0.7,1,1.2,1.4,2
				c-0.7,0.5-1.4,1-2.1,1.4c-0.1,0.1-0.2,0-0.4,0C142.7,42.1,142.6,41.9,142.4,41.8z M143.3,40.9c-0.1-0.1-0.1-0.2-0.2-0.3
				c0.3-0.3,0.7-0.5,1-0.8c-0.1-0.1-0.2-0.1-0.4-0.2c-0.3-0.2-1.4,0.2-1.5,0.6c0,0.1,0,0.2,0.1,0.3c0.3,0.4,0.6,0.8,0.8,1.1
				c0.4-0.4,1-0.6,1.2-1.4C144.1,40.6,143.7,40.8,143.3,40.9z"/>
			<path d="M130.6,84.7c-0.1,0.2-0.2,0.4-0.3,0.5c-0.7,0.3-1.4,0.5-2,0.8c-0.1,0-0.3-0.2-0.4-0.3c-0.2-0.7-0.5-1.4-0.6-2
				c0-0.1,0.1-0.4,0.2-0.4c0.7-0.2,1.4-0.5,2-0.6c0.1,0,0.3,0.1,0.5,0.2c-0.1,0.1-0.2,0.3-0.4,0.3c-0.6,0.2-1.1,0.4-1.7,0.5
				c0.1,0.5,0.2,0.5,0.6,0.4c0.5-0.1,0.8-0.3,1.4-0.4c0.2,0,0.3,0.1,0.5,0.1c0,0.1,0,0.1,0,0.2c-0.7,0.3-1.4,0.6-1.9,0.8
				c0,0,0,0.2,0,0.5c0.8-0.2,1.4-0.5,2.1-0.7C130.5,84.7,130.6,84.7,130.6,84.7L130.6,84.7z"/>
			<path d="M144.5,103.2c-0.4,0.6-0.8,1.2-1.1,1.8c0.2,0.3,0.5,0.3,0.7-0.1c0.2-0.3,0.4-0.7,0.7-1c0.2-0.2,0.4-0.3,0.6-0.4
				c0.1,0.1,0.1,0.1,0.2,0.2c-0.2,0.4-0.5,0.8-0.7,1.1c-0.3,0.4-0.6,0.8-0.8,1.1c-0.8-0.5-1.4-1-2.2-1.5c0.5-0.7,1-1.4,1.4-2
				c0.1-0.1,0.3-0.1,0.4-0.1c0,0.2,0.1,0.4,0,0.5c-0.3,0.4-0.6,0.8-0.8,1.2c-0.1,0.1,0,0.3,0,0.4c0.2,0,0.4,0,0.5-0.1
				c0.3-0.3,0.5-0.7,0.8-1c0.1-0.2,0.4-0.3,0.6-0.4L144.5,103.2L144.5,103.2z"/>
			<path d="M135.3,46c0.6-0.7,1-1.1,1.7-1.7c0.1-0.1,0.3-0.1,0.4-0.1c0.6,0.5,1.1,1,1.7,1.5c0,0,0,0.2,0,0.3c-0.8,0-1.2-0.8-1.9-1.2
				c-0.4,0.3-0.3,0.6,0,0.8c0.3,0.3,0.6,0.5,0.8,0.8c0.3,0.3,0.3,0.5-0.1,0.6c-0.5-0.5-1-0.8-1.5-1.4c-0.1,0-0.1,0-0.2,0.1
				c0,0.2,0,0.5,0.1,0.6c0.3,0.3,0.7,0.6,1,0.8c0.1,0.1,0.1,0.4,0.2,0.6c-0.2,0-0.4,0-0.6-0.1C136.3,47,135.9,46.6,135.3,46
				L135.3,46z"/>
			<path d="M205.3,61.8c0.2,0.8,0.4,1.7,0.7,2.6c-1,0.2-1.7,0.8-2.8,0.7c0-0.1-0.1-0.2-0.1-0.2c0.3-0.2,0.6-0.4,1-0.7
				c-0.1-0.4-0.2-0.8-0.3-1.4c-0.4,0-0.8,0-1.1,0c0-0.1,0-0.1,0-0.2C203.5,62,204.4,62.2,205.3,61.8L205.3,61.8z M204.7,64
				c0.5-0.4,0.5-1.4,0.1-1.5c-0.1-0.1-0.5,0.1-0.4,0.2C204.6,63.2,204.7,63.6,204.7,64z"/>
			<path d="M154.4,33.4c0.8-0.2,1.7-0.5,2.6-0.7c0.2,0.8,0.5,1.7,0.7,2.5c0,0.1-0.1,0.3-0.2,0.4c-0.7,0.2-1.4,0.4-2,0.5
				c-0.1,0-0.4-0.2-0.5-0.4C154.8,34.9,154.6,34.3,154.4,33.4L154.4,33.4z M157,35.1c-0.3-1.5-0.3-1.5-1.8-1.2
				c-0.1,0-0.1,0.1-0.2,0.1c0.2,0.6,0.3,1,0.5,1.7C156,35.4,156.5,35.2,157,35.1z"/>
			<path d="M128.5,75c-0.4,0.1-0.8,0.2-1.4,0.2c0,0.5,0.1,1,0.1,1.5c0.4,0,0.7,0,1,0c0.1,0,0.2,0.1,0.3,0.2
				c-0.1,0.1-0.2,0.2-0.3,0.3c-0.7,0.1-1.4,0.2-2,0.3c-0.4,0.1-0.6-0.2-0.6-0.6c0-0.6-0.1-1.1-0.1-1.7c0-0.2,0.2-0.5,0.4-0.6
				c0.6-0.1,1.2-0.1,1.8-0.2c0.2,0,0.4,0.1,0.6,0.2C128.5,74.8,128.5,74.8,128.5,75z M126.6,76.9c0.3-0.2,0.3-1,0-1.5
				C126.3,75.7,126.3,75.7,126.6,76.9z"/>
			<path d="M142.3,43.1c-0.7,0.6-1.4,1.1-2,1.8c-0.6-0.7-1.2-1.4-1.9-2c0.6-0.6,1.1-1.1,1.8-1.7c0.1-0.1,0.4,0,0.5,0.1
				C141.2,41.9,141.7,42.5,142.3,43.1z M141.4,43c-1-1.4-1-1.5-2.2-0.1c0.3,0.3,0.5,0.7,0.8,0.8c0.1,0.1,0.5,0.1,0.6,0
				C140.8,43.7,141.1,43.3,141.4,43z"/>
			<path d="M173.4,109.3c0.2,1,0.3,1.8,0.5,2.6c-0.8,0.2-1.7,0.3-2.6,0.5c-0.2-0.8-0.3-1.7-0.4-2.5c0-0.1,0.1-0.3,0.3-0.4
				C171.9,109.6,172.6,109.4,173.4,109.3z M171.7,111.8c0.5-0.1,1-0.2,1.4-0.3c0-0.3,0-0.6-0.1-0.8c0-0.3-0.1-0.5-0.2-0.8
				C171.4,109.9,171.2,110.1,171.7,111.8z"/>
			<path d="M131.7,93.5c0.8-0.5,1.5-1,2.3-1.5c0.1,0.5,0.1,0.5-0.8,1.2c0.3,0.4,0.6,0.8,1,1.2c0.3-0.2,0.5-0.3,0.8-0.4
				c0.1-0.1,0.3,0,0.5,0c-0.1,0.1-0.1,0.3-0.2,0.4c-0.5,0.4-1,0.8-1.5,1c-0.3,0.2-0.5,0.2-0.7-0.2C132.6,94.7,132.2,94.2,131.7,93.5
				L131.7,93.5z M132.6,93.2c0,0.8,0.5,1.5,1,1.7C133.3,94.3,133,93.9,132.6,93.2z"/>
			<path d="M157.3,110c0.3,0.1,0.6,0.1,0.8,0.2c0.6,0.2,1,0.3,1-0.5c0-0.1,0.3-0.2,0.4-0.3c0,0.2,0.1,0.3,0.1,0.5
				c-0.1,0.8-0.3,1.4-0.4,2.3c-0.8-0.2-1.7-0.3-2.6-0.5c0.1-1,0.3-1.9,0.4-2.8C157.9,109.2,157.3,109.6,157.3,110z M158.8,111.4
				c-0.2-0.6-0.7-0.8-1.4-0.6C157.3,111.4,157.9,111.5,158.8,111.4z"/>
			<path d="M176.9,33.1c-0.2,0.8-0.4,1.7-0.6,2.4c0,0.1-0.2,0.2-0.3,0.2c-0.1,0-0.2-0.1-0.2-0.2v-0.1c0-0.3,0.2-0.8,0-1
				c-0.2-0.2-0.7-0.2-1-0.4c-0.4-0.1-0.5,0-0.6,0.3c-0.1,0.3,0,1-0.5,0.8c-0.5-0.2,0-0.6,0-1c0-0.1,0.1-0.3,0.1-0.4
				c0.4-1.4,0.4-1.4,1.7-1C175.9,32.9,176.4,33,176.9,33.1L176.9,33.1z M174.5,33.5c0.5,0.1,1,0.3,1.7,0.5
				C176.1,33.4,175.5,33.3,174.5,33.5z"/>
			<path d="M132.7,89.6c-0.1,0.2-0.2,0.4-0.4,0.5c-0.4,0.2-0.7,0.5-0.2,0.8c0.1,0.1,0.1,0.2,0.1,0.3c0.2,0.5,0.4,0.7,0.8,0.3
				c0.1-0.1,0.4,0,0.5,0c-0.1,0.2-0.1,0.4-0.3,0.5c-0.7,0.4-1.4,0.8-2,1.1c-0.4-0.8-0.8-1.4-1.2-2.3c0.8-0.5,1.5-1,2.2-1.5
				C132.6,89.4,132.7,89.5,132.7,89.6z M132.1,92.1c-0.2-0.4-0.3-0.8-0.5-1c-0.1-0.1-0.3-0.2-0.4-0.2c-0.1,0-0.2,0.3-0.2,0.3
				c0.2,0.4,0.4,0.8,0.6,1.1C131.8,92.2,132,92.2,132.1,92.1z"/>
			<path d="M133.8,52.2c0,0.2,0.1,0.4,0.2,0.7c-0.5-0.1-0.8-0.2-1.1-0.3c-0.3,0.5-0.5,0.8-0.8,1.4c0.3,0.2,0.6,0.4,0.8,0.6
				c-0.2,0.4-0.3,0.4-0.7,0.2c-0.6-0.4-1.2-0.8-1.9-1.1c0.4-0.7,0.7-1.2,1-1.8c0.1-0.1,0.4-0.2,0.5-0.2c0.5,0.1,1,0.3,1.5,0.5
				C133.5,52,133.6,52,133.8,52.2z M131,53.2c0.3,0.4,0.6,0.4,0.8-0.1c0.1-0.2,0.2-0.4,0.3-0.6c0-0.1,0-0.3-0.1-0.5
				c-0.2,0.1-0.4,0.1-0.4,0.2C131.3,52.6,131.2,52.9,131,53.2z"/>
			<path d="M182.8,107.9c-0.4,0.2-0.7,0.3-1,0.4c-0.1,0-0.3-0.1-0.4-0.1c0.1-0.1,0.1-0.2,0.2-0.4c0,0,0.1-0.1,0.2-0.1
				c0.6-0.2,1-0.5,0.6-1.1c0-0.1,0-0.2,0-0.5c0.2,0.2,0.4,0.3,0.5,0.4c0.3,0.6,0.6,1.1,0.8,1.7c0.1,0.1-0.1,0.5-0.3,0.5
				c-0.6,0.2-1.1,0.4-1.7,0.6c-0.2,0.1-0.3,0.3-0.5,0.5c-0.2-0.4-0.4-0.7-0.5-1c-0.2-0.4-0.4-0.8-0.5-1.1c0-0.2,0-0.4,0.1-0.5
				c0.1,0,0.2,0,0.3,0c0.3,0.7,0.7,1.4,1,2c0.4-0.2,0.8-0.4,1.1-0.6C183,108.4,183,108.2,182.8,107.9z"/>
			<path d="M186.8,40.6c-0.8-0.5-1.4-0.8-2-1.2c-0.1-0.1-0.2-0.3-0.2-0.4c0.4-0.7,0.8-1.4,1.4-2.1c0.7,0.4,1.4,0.8,1.9,1.1
				c0.1,0.1,0.2,0.5,0.2,0.6C187.6,39.2,187.2,39.9,186.8,40.6z M186.1,37.6c-0.3,0.6-0.6,1-0.8,1.4c0.5,0.3,1,0.6,1.4,0.8
				c0.3-0.5,0.6-1,1-1.5C187,38.1,186.5,37.8,186.1,37.6L186.1,37.6z"/>
			<path d="M200.4,90.5c0.2-0.4,0.5-0.8,0.6-1.1c0.1-0.1-0.2-0.4-0.3-0.6c-0.1-0.2-0.3-0.4-0.5-0.5c0.1-0.1,0.1-0.1,0.2-0.2
				c0.8,0.4,1.5,0.8,2.5,1.2c-0.4,0.8-0.8,1.5-1.1,2.3c-0.8-0.3-1.5-0.6-2.2-0.8c-0.1-0.1-0.2-0.3-0.3-0.4c0.2,0,0.4-0.1,0.5-0.1
				C200,90.4,200.2,90.5,200.4,90.5z M202.2,89.6c-0.6-0.2-0.8,0-1,0.8c0,0.1,0.1,0.3,0.1,0.4c0.1-0.1,0.3-0.1,0.4-0.2
				C201.8,90.4,202,90,202.2,89.6z"/>
			<path d="M195.4,48.1c0.8-0.8,0.8-1-0.4-1.9c-0.4,0.1-0.6,0.8-1.2,0.4c0.7-0.7,1.4-1.2,2.1-1.8c0.6,0.7,1.1,1.2,1.7,1.9
				c-0.6,0.6-1,1-1.7,1.5c-0.1,0.1-0.4,0.1-0.6,0.2C195.4,48.3,195.4,48.2,195.4,48.1z M195.4,45.9c0.1,0.1,0.3,0.2,0.4,0.3
				c0.2,0.2,0.4,0.8,0.8,0.5c0.5-0.4-0.2-0.6-0.3-1l-0.1-0.1C195.8,45.4,195.7,45.4,195.4,45.9z"/>
			<path d="M199.9,50.4c0.1,0,0.3,0,0.3,0.1c0.4,0.6,0.7,1.1,1,1.7c0.1,0.1-0.1,0.5-0.3,0.6c-0.3,0.3-0.7,0.5-1,0.7
				c-0.6,0.4-0.8,0.3-1.2-0.3c-0.2-0.4-0.5-0.8-0.7-1.1c-0.1-0.1-0.1-0.4,0-0.5C198.6,50.9,199.2,50.5,199.9,50.4L199.9,50.4z
				 M198.5,51.6c0.3,0.6,0.6,1,0.8,1.4c0.5-0.3,1-0.6,1.5-0.8c-0.3-0.5-0.6-0.8-0.8-1.4C199.4,51.1,199,51.3,198.5,51.6z"/>
			<path d="M167.7,110c0.2,0.8,0,1.8,0.1,2.8c-0.8,0-1.7,0-2.4,0c-0.1,0-0.3-0.2-0.3-0.4c0-0.4,0-0.8,0-1.4c0.8,0,1.5,0,2.2,0
				c0-0.5,0.1-0.8,0.1-1C167.4,109.9,167.5,109.9,167.7,110z M167,111.7c-0.5,0-1,0-1.3,0c0,0.5,0,0.5,0.4,0.5
				C167,112.2,167,112.2,167,111.7z"/>
			<path d="M177.2,108.5c0.2-0.4,0.4-0.3,0.7-0.1c0.6,0.3,1.1,0.6,1.9,0.8c-0.1-0.3-0.2-0.6-0.3-1c-0.2-0.4-0.2-0.7,0.3-0.8
				c0.2,0.5,0.3,0.8,0.5,1.4c0.1,0.4,0.3,0.8,0.4,1.2c-0.6,0.4-0.8-0.1-1.2-0.3c-0.4-0.2-0.8-0.4-1.1-0.6c-0.3,0.7,0.6,1.1,0.1,1.8
				C177.6,110.3,177.7,109.3,177.2,108.5L177.2,108.5L177.2,108.5z"/>
			<path d="M170.8,111.4c0,0.8-0.2,1-1,1c-1.7,0.1-1.7,0.1-1.7-1.5c-0.1-0.8,0.1-1,1-1.1c0.2,0,0.3,0,0.5-0.1c0.6-0.1,1,0.2,1.1,0.8
				C170.8,110.8,170.8,111.1,170.8,111.4L170.8,111.4z M168.7,112c1.5,0.2,1.7,0.1,1.4-1.2v-0.1c-0.1-0.1-0.2-0.3-0.4-0.4
				c-1-0.2-1.4,0.1-1.2,1.1C168.7,111.7,168.7,111.8,168.7,112z"/>
			<path d="M180.7,36.9c0.6,0.2,1,0.3,1.4,0.5c0.1,0.1,0.2,0.3,0.3,0.4c-0.2,0.1-0.4,0.2-0.5,0.1c-0.7-0.3-1.4-0.6-2.1-1
				c0.6-1,1.8-0.8,2.5-1.4c-1.7-0.6-1.7-0.6-1.4-1.1c0.7,0.3,1.4,0.6,2.1,0.8c0.1,0.1,0.3,0.3,0.3,0.4s-0.2,0.3-0.4,0.3
				C182.2,36.3,181.5,36.5,180.7,36.9z"/>
			<path d="M141.3,104.2c-0.6-0.6-1.2-0.8-1.5-1.4c-0.2-0.2,0.2-0.8,0.4-1.2c0.1-0.3,0.4-0.5,0.6-0.6s0.5-0.3,0.7-0.2
				c0.5,0.3,1,0.7,1.2,1c0.3,0.4,0.2,0.8-0.2,1.1C142.2,103.3,141.8,103.7,141.3,104.2z M141.3,101.3c-1,0.8-1.2,1.1-0.8,1.5
				c0.6,0.6,1,0.8,1.2,0.5c0.3-0.3,0.7-0.8,0.7-1C142.2,101.8,141.6,101.5,141.3,101.3z"/>
			<path d="M164.2,111.1c0.1-0.4,0.1-0.8,0.2-1.1c0.1,0,0.1,0,0.2-0.1c0.1,0.2,0.3,0.4,0.3,0.6c0,0.8-0.1,1.4-0.2,2.3
				c-0.8-0.1-1.8-0.1-2.8-0.2c0-0.6,0.1-1,0.1-1.7C162.9,111,163.6,111.1,164.2,111.1z M164.1,111.5c-0.5,0-1,0-1.5,0
				c0.4,0.8,1.1,0.2,1.5,0.7C164.1,111.9,164.1,111.7,164.1,111.5z"/>
			<path d="M202.1,57.4c-0.2-0.5-0.5-0.8-0.7-1.4c-0.2-0.6-0.5-0.7-1-0.4c-0.1,0.1-0.2,0.1-0.4,0.1l-0.1-0.1
				c0.1-0.2,0.2-0.4,0.4-0.5c0.7-0.3,1.2-0.6,2-1c0.2,0.5,0.5,0.8,0.7,1.4c0.6,1.1,0.6,1.1-0.6,1.7
				C202.5,57.2,202.3,57.3,202.1,57.4z M201.6,55.2c0.2,0.4,0.4,0.8,0.6,1.1c0.1,0.1,0.3,0.2,0.3,0.1c0.1-0.1,0.2-0.3,0.2-0.4
				c-0.1-0.3-0.2-0.6-0.4-0.8C202.3,54.9,202,54.9,201.6,55.2z"/>
			<path d="M177.2,108.5c0.1,0.7,0.2,1.2,0.4,1.9c0.2,0.6,0,0.8-0.5,1c-0.4,0.1-0.7,0.2-1,0.3c-0.1,0-0.3-0.1-0.4-0.2
				c0.1-0.1,0.2-0.2,0.3-0.3c0.4-0.2,0.8-0.3,1.1-0.4c-0.1-0.4-0.2-0.6-0.6-0.4c-0.3,0.2-0.7,0.3-1.1-0.2c0.5-0.2,0.8-0.4,1.4-0.6
				c0,0,0-0.2,0.1-0.5c-0.6,0.1-1.1,0.2-1.7,0.3C175.1,108.8,176.4,108.3,177.2,108.5C177.2,108.5,177.2,108.5,177.2,108.5z"/>
			<path d="M127.3,63.4c0.2,0,0.4,0,0.5,0c0.1-0.3,0.1-0.7,0.2-1c0-0.1,0.3-0.2,0.4-0.3c0,0.1,0.1,0.3,0.1,0.4
				c0,0.2-0.1,0.4-0.2,0.5c-0.1,0.3,0,0.6,0.4,0.6c0.2-0.5,0.4-1,0.6-1.5c0.1,0,0.1,0,0.2,0c0.1,0.1,0.2,0.3,0.2,0.4
				c-0.1,0.6-0.3,1.1-0.4,1.7c0,0.1-0.2,0.2-0.3,0.1c-0.7-0.2-1.4-0.3-2-0.5c-0.1,0-0.3-0.4-0.3-0.5c0.1-0.6,0.3-1,0.4-1.7
				C127.6,62,127.6,62,127.3,63.4L127.3,63.4z"/>
			<path d="M133.8,52.2c-0.1-0.1-0.3-0.2-0.4-0.3c-0.4-0.3-0.8-0.6-1.1-0.8c-0.1-0.1-0.3-0.4-0.3-0.4c0.4-0.5,0.8-1,1.1-1.5
				c0,0,0.2,0,0.4,0c-0.2,0.4-0.3,0.6-0.5,0.8c-0.1,0.1-0.2,0.3-0.3,0.4c0,0.1,0.1,0.3,0.1,0.5c0.1-0.1,0.3-0.1,0.4-0.2
				c0.2-0.2,0.3-0.4,0.4-0.6c0.1-0.1,0.3-0.1,0.5-0.2c0,0.2,0.1,0.4,0,0.5c-0.2,0.3-0.4,0.6-0.6,0.8c0.3,0.4,0.6,0.4,0.8-0.1
				c0.1-0.3,0.3-0.5,0.5-0.7c0.1-0.1,0.2-0.1,0.3-0.1c0.1,0,0.2,0.2,0.2,0.2C135.2,51,134.1,52.2,133.8,52.2L133.8,52.2z"/>
			<path d="M131.3,56.2c0.5-0.4,0.5-1.1,1-1.4c0.1,0,0.1,0.1,0.2,0.1c-0.2,0.3-0.3,0.7-0.5,1c-0.2,0.3-0.3,0.7-0.5,1
				c-0.8-0.4-1.7-0.8-2.6-1.4c0.5-0.6,0.5-1.4,1.1-1.8c0.1,0,0.2,0.1,0.3,0.1c-0.1,0.3-0.2,0.7-0.4,1c-0.1,0.3-0.3,0.6,0.2,0.8
				c0.5-0.3,0.3-1.1,1.1-1.2c-0.2,0.6-0.4,1-0.6,1.5C131,56.1,131.2,56.2,131.3,56.2L131.3,56.2z"/>
			<path d="M191.8,40.9c-0.8,1.4-0.8,1.4-2.1,0.5c-0.5-0.4-0.7-0.4-1,0.1c-0.1,0.1-0.3,0.1-0.4,0.2c0-0.2,0-0.4,0.1-0.5
				c0.4-0.5,0.7-1,1-1.4c0.2-0.3,0.5-0.4,0.8-0.1C190.7,40.1,191.2,40.5,191.8,40.9z M189.4,40.5c0.4,0.3,0.7,0.6,1,0.8
				c0.1,0.1,0.3,0,0.4,0c0-0.2,0.1-0.4,0-0.5c-0.3-0.3-0.7-0.6-1-0.8C189.7,40.2,189.6,40.4,189.4,40.5z"/>
			<path d="M180.2,34.4c-0.3,0.7-0.5,1.4-0.8,2.1c-0.1,0.4-0.4,0.4-0.7,0.3c-0.8-0.2-1.4-0.5-2.3-0.8c0.3-0.8,0.4-1.8,1-2.6
				c0.1,0,0.2,0.1,0.2,0.1c-0.2,0.7-0.4,1.4-0.6,2.1c0.3,0.1,0.5,0.1,0.7,0.2c1.2,0.4,1.2,0.4,1.7-0.8
				C179.6,34.7,179.6,34.2,180.2,34.4z"/>
			<path d="M128.1,80.5c0.2,0.5,0.4,0.8,0.5,1.4c0.6,0,0.5-0.3,0.4-0.7c-0.1-0.3-0.5-0.7,0-1c0.6,0.6,0.5,1.4,0.7,1.9
				c0,0.1-0.2,0.2-0.3,0.3c-0.7,0.2-1.4,0.3-2,0.5c-0.1,0-0.4-0.1-0.4-0.2c-0.1-0.6-0.2-1.1-0.3-1.8c0.1,0,0.1-0.1,0.2-0.1
				c0.1,0.1,0.3,0.3,0.3,0.4c0.1,0.3,0.1,0.5,0.2,0.8c0,0.1,0.2,0.2,0.3,0.3c0.1-0.1,0.3-0.3,0.3-0.4c0-0.3-0.1-0.6-0.2-0.8
				c0-0.1,0.1-0.2,0.1-0.3C128,80.7,128,80.7,128.1,80.5z"/>
			<path d="M202.6,62.3c0-0.2-0.1-0.4-0.1-0.6c-0.1-0.4-0.3-0.8-0.4-1.2c0-0.2,0.2-0.5,0.4-0.6c0.6-0.2,1.1-0.4,1.7-0.5
				c0.1,0,0.4,0,0.5,0.1c0.2,0.6,0.4,1.2,0.5,1.9c-0.7-0.3-0.5-1-1-1.4c-0.2,0.1-0.3,0.1-0.5,0.2c0.1,0.5,0.2,1,0.3,1.4
				c0,0-0.2,0.1-0.3,0.1c-0.1-0.3-0.2-0.7-0.3-0.8c-0.1-0.2-0.3-0.3-0.5-0.4c0,0.2-0.1,0.4-0.1,0.6c0,0.4,0.1,0.8,0.2,1.1
				C202.9,62.2,202.8,62.2,202.6,62.3L202.6,62.3z"/>
			<path d="M137.1,48.2c-0.6,0.8-1.1,1.4-1.7,2.1c-0.8-0.6-1.4-1.1-2.2-1.7c0-0.1,0-0.1,0-0.2c0.2,0,0.4,0,0.6,0.1
				c0.4,0.3,0.8,0.6,1.1,0.8c0.3,0.2,0.4,0.2,0.6-0.1c0.2-0.3,0.5-0.6,0.8-1c-0.5-0.6-1.4-0.8-1.7-1.5c0.1-0.1,0.1-0.1,0.2-0.2
				C135.6,47.2,136.3,47.6,137.1,48.2L137.1,48.2z"/>
			<path d="M129.8,58.7c0.4,0.2,0.7,0.3,1,0.5c-0.4,0.5-2.3-0.1-2.6-0.8c0.4,0.1,0.8,0.1,1.2,0.2c0.2-0.5,0.4-1,0.6-1.4
				c-0.4-0.2-0.7-0.5-1-0.7c0-0.1,0.1-0.2,0.1-0.2c1,0.1,1.7,0.6,2.6,1c-0.4,0.4-0.4,0.4-1.2,0.1C130.2,57.7,130,58.3,129.8,58.7z"
				/>
			<path d="M201.2,58c0.8-0.3,1.7-0.7,2.5-1c0.2,0.7,0.7,1.4,0.7,2c-0.1,0-0.2,0.1-0.3,0.1c-0.2-0.5-0.5-1-0.7-1.5
				c-0.2,0.1-0.4,0.2-0.5,0.2c-0.1,0.6,0.7,1,0.1,1.7c-0.2-0.6-0.4-1-0.6-1.4c-0.2,0.1-0.3,0.1-0.6,0.2c0.2,0.5,0.4,1,0.6,1.7
				C201.7,59.8,201.6,59.8,201.2,58z"/>
			<path d="M159.8,109.9c0.2-0.2,0.2-0.4,0.3-0.4c0.6,0,1.1,0.1,1.7,0.2c0.1,0,0.2,0.2,0.2,0.4c-0.1,0.7-0.1,1.4-0.3,2
				c0,0.1-0.3,0.3-0.4,0.3c-0.6-0.1-1.1-0.2-1.7-0.3c0-0.6,0.4-0.5,0.7-0.4c0.3,0,0.7,0.1,1,0.1c0.2-0.5-0.1-0.6-0.5-0.7
				c-0.3,0-0.6-0.1-0.8-0.2c0-0.1,0-0.2,0-0.3c0.4,0,0.8,0,1,0c0.2,0,0.4-0.1,0.5-0.2c-0.1-0.2-0.2-0.4-0.4-0.5
				C160.7,110,160.3,110,159.8,109.9z"/>
			<path d="M184.3,39.1c-0.6-0.3-1.2-0.6-1.8-0.8c-0.1,0-0.1-0.3,0-0.4c0.4-0.7,0.8-1.4,1.1-2.1c0.6,0.3,1.2,0.7,1.8,1
				c0,0.1,0,0.1-0.1,0.2c-0.6,0.3-1-0.5-1.5-0.4c-0.1,0.1-0.1,0.2-0.3,0.4c0.4,0.3,0.8,0.5,1.4,0.8c-0.8,0.4-1-0.3-1.7-0.3
				c-0.2,0.3-0.4,0.5,0.2,0.8c0.4,0.1,0.7,0.4,1,0.6C184.4,38.8,184.3,39,184.3,39.1z"/>
			<path d="M130.9,88.3c0.3-0.2,0.6-0.3,0.8-0.5c0.6,0.8-0.6,0.6-0.6,0.8c-0.1,0.5,0.8,0.8,0,1.2c-0.8,0.5-1,0.5-1.4,0
				c0.2-0.1,0.3-0.2,0.5-0.3c0.1-0.1,0.3-0.1,0.5-0.2c-0.2-0.5-0.5-1-0.7-1.4c-0.4,0.1-0.8,0.2-1.2,0.3c0.3-0.8,1-0.7,1.4-1.1
				C130.5,87.6,130.6,87.9,130.9,88.3L130.9,88.3z"/>
			<path d="M199.3,92.2c0.4,0.5,0.7,0.8,0.8,1.2c0.1,0.2,0.1,0.5,0.1,0.7c-0.2-0.1-0.5-0.2-0.6-0.4c-0.4-0.6-0.8-1.1-1-1.7
				c-0.1-0.1-0.1-0.3-0.2-0.6c1,0.1,1.8,0.1,2.6,0.2c0.1,0,0.3,0.2,0.4,0.3c-0.2,0.1-0.3,0.3-0.5,0.3
				C200.5,92.2,199.9,92.2,199.3,92.2z"/>
			<path d="M202.8,87.5c-0.1-0.6-0.2-1-0.3-1.7c0.2,0,0.4,0,0.6,0c0.2,0.8,0.3,1.7,0.5,2.4c-0.1,0-0.1,0.1-0.2,0.1
				c-0.8-0.3-1.5-0.6-2.3-1c-0.1,0-0.2-0.3-0.1-0.3c0.1-0.1,0.2-0.2,0.3-0.2C201.7,87.1,202.1,87.3,202.8,87.5z"/>
			<path d="M126.4,77.7c0.2,0.3,0.3,0.7,0.5,0.8c0.7,0,1.4,0,2.1,0c0,0,0,0.2,0,0.3c-0.7,0.1-1.4,0.2-2,0.4
				c-0.2,0.4,0.5,0.8-0.5,1.1c-0.1-0.8-0.3-1.7-0.4-2.6C126.2,77.7,126.3,77.7,126.4,77.7z"/>
			<path d="M146.2,37.8c-0.4,0-0.7,0.6-1.1,0c0.8-0.5,1.4-0.8,2.1-1.2c0.1,0,0.3,0.1,0.3,0.1c0,0.2,0,0.4-0.1,0.4
				c-0.8,0.3-0.5,0.7-0.2,1.1c0.3,0.4,0.5,0.8,0.7,1.1c-0.6,0.1-0.6,0.1-1-0.6C146.5,38.4,146.3,38.1,146.2,37.8L146.2,37.8z"/>
			<path d="M136.6,95.7c-0.6,0.5-1.1,1-1.7,1.4c0.2,0.4,0.3,0.7,0.5,1c-0.8-0.1-1.9-1.7-1.7-2.2c0.1,0,0.2,0,0.2,0.1
				c0.7,0.7,0.7,0.7,1.4,0.1c0.2-0.1,0.3-0.2,0.4-0.4c0.2-0.1,0.3-0.2,0.5-0.4C136.3,95.4,136.5,95.5,136.6,95.7L136.6,95.7z"/>
			<path d="M128.4,59c0,0.4-0.1,0.8-0.2,1.1c0.7,0.2,1.4,0.5,2,0.8c0,0.1,0,0.2-0.1,0.2c-0.8,0.2-1.4-0.4-2.2-0.5
				c-0.1,0.3-0.2,0.5-0.3,0.8c0,0.1-0.2,0.1-0.3,0.1c-0.1,0-0.2-0.2-0.2-0.3c0.3-0.8,0.5-1.4,0.8-2.2c0,0,0.1-0.1,0.2-0.1
				C128.2,59,128.3,59,128.4,59z"/>
			<path d="M198.4,47.7c0.5,0.6,1,1.1,1.4,1.7c0.1,0.1,0,0.3,0,0.5c-0.2-0.1-0.4-0.1-0.5-0.2c-0.2-0.4-0.5-0.4-0.8-0.2
				c-0.4,0.3-0.7,0.5-1,0.7c-0.2,0.1-0.4,0-0.5,0.1c0-0.1,0-0.1-0.1-0.2c0.4-0.3,0.8-0.6,1.2-0.8c0.4-0.2,0.7-0.5,0.3-1
				c-0.1-0.1-0.1-0.4-0.1-0.6C198.3,47.7,198.3,47.7,198.4,47.7L198.4,47.7z"/>
			<path d="M142.4,41.8c0.1,0.2,0.3,0.3,0.4,0.5c-0.1,0.2-0.2,0.3-0.3,0.5c-0.2-0.1-0.3-0.2-0.4-0.3c-0.5-0.6-0.8-1.1-1.4-1.7
				c0.2-0.3,0.4-0.3,0.7,0C141.8,41.2,142.2,41.5,142.4,41.8z"/>
			<path d="M144.4,38.1c0.2,0.2,0.4,0.3,0.4,0.5c0.4,0.5,0.7,1,1,1.5c0.1,0.1,0,0.3,0,0.4c-0.2,0-0.4,0-0.5-0.1
				c-0.4-0.6-0.8-1.1-1.1-1.8C144.1,38.5,144.4,38.3,144.4,38.1z"/>
			<path d="M191.9,100.7c-0.1-0.2-0.3-0.4-0.4-0.7c0-0.1,0.3-0.3,0.5-0.4c0.1,0,0.5,0.2,0.4,0.3
				C192.3,100.2,192.1,100.4,191.9,100.7C192.1,100.7,191.9,100.7,191.9,100.7z"/>
			<path d="M153.7,34.7c0.1,0.3,0.2,0.5,0.2,0.8c0,0.1-0.3,0.3-0.4,0.2c-0.2,0-0.5-0.3-0.5-0.3c0.1-0.3,0.3-0.5,0.5-0.7
				C153.7,34.6,153.7,34.6,153.7,34.7z"/>
			<path d="M139.4,44.5c-0.4,0.2-0.6,0.4-0.7,0.4c-0.1,0-0.4-0.3-0.4-0.4c0-0.2,0.3-0.4,0.4-0.4C139,44.1,139,44.3,139.4,44.5z"/>
			<path d="M188.7,39.8c-0.3,0.2-0.5,0.5-0.7,0.5s-0.4-0.3-0.4-0.4c0-0.2,0.2-0.4,0.4-0.5C188.2,39.4,188.3,39.7,188.7,39.8z"/>
		</g>
	</g>
</g>
</svg>
