<?xml version="1.0" encoding="utf-8"?>
<!-- Generator: Adobe Illustrator 26.0.1, SVG Export Plug-In . SVG Version: 6.00 Build 0)  -->
<svg version="1.1" id="Слой_1" xmlns:xodm="http://www.corel.com/coreldraw/odm/2003"
	 xmlns="http://www.w3.org/2000/svg" xmlns:xlink="http://www.w3.org/1999/xlink" x="0px" y="0px" viewBox="0 0 238.1 150.2"
	 style="enable-background:new 0 0 238.1 150.2;" xml:space="preserve">
<g id="Слой_x0020_1">
	<g id="_105553265948704">
		<g>
			<path d="M184.2,37.3c0.1-1.2,0.1-1.2,1.1-0.8c0.9,0.4,1.8,0.7,2.7,1.2c0.5,0.3,0.9,0.9,1.1,1.5c0.3,0.6,0.6,1.2,0.9,1.8
				c0.1,0.2,0.2,0.3,0.3,0.3c0.6-0.1,0.1-1.1,0.8-0.9c0.2,0.2,0.3,0.4,0.5,0.5c0.7,0.4,1.4,0.8,2.1,1.2c0.3,0.2,0.6,0.3,0.9-0.2
				c-0.3,0.5,0,0.9,0.2,1.2c0.4,0.7,0.7,1.4,0.9,2.1c0.1,0.2,0.2,0.3,0.3,0.6c0.3-0.3,0.6-0.5,0.9-0.7c0,0,0.1,0,0.1,0.1
				c-0.2,0.3-0.3,0.5-0.5,0.7c-0.3,0.3-0.4,0.6-0.3,0.9c0.3,0.9,0.1,1.8-0.6,2.6c-0.3,0.4-0.4,0.9-0.3,1.5c0.2,0.3,0.3,0.3,0.6,0.2
				c1.3-1,1.5-2.3,1.1-3.9c-0.1-0.3-0.2-0.8-0.3-1.1c0.1,0,0.1-0.1,0.2-0.2c0.6,0.4,1.1,0.9,1.7,1.4c0.6,0.5,0.7,0.6,1.3,0.1
				c-0.1,0.3-0.3,0.5-0.2,0.8c0,0.3,0.3,0.4,0.3,0.7c0.2,0.6,0.3,1.3,0.5,1.9c0,0.1,0.1,0.3,0.1,0.4c0.3-0.2,0.5-0.3,0.8-0.3
				c-0.9,0.8-0.7,1.8-0.6,2.8c0.1,0.8-0.3,1.4-0.8,2c-0.1,0.1-0.2,0.2-0.1,0.3c0.4-0.3,0.9-0.4,1.2-0.7c0.6-0.4,0.3-1.1,0.3-1.6
				c0-0.5-0.2-1-0.3-1.5c0.1,0,0.1-0.1,0.2-0.1c0.6,0.7,1.1,1.4,1.7,2.1c0.6-0.3,1-0.6,1.5-0.9c0,0,0,0,0.1,0.1
				c-0.3,0.3-0.6,0.5-0.9,0.8c-0.3,0.2-0.3,0.4-0.2,0.7c0.5,0.8,1,1.6,0.8,2.8c0.9-0.4,1.5-0.9,2.3-1.2c0,0,0,0.1,0.1,0.1
				c-0.4,0.3-0.9,0.6-1.4,0.8c-0.6,0.3-1,0.8-0.9,1.5c0,0.4-0.2,0.9-0.3,1.3c0,0.2-0.2,0.3-0.2,0.5c0,0.3,0,0.5,0.1,0.8
				c0,0,0.3,0.1,0.3,0c0.1-0.3,0.2-0.4,0.2-0.7c0-0.4,0-0.8,0-1.2c0.1,0,0.2,0,0.2,0c0.2,0.3,0.3,0.5,0.5,0.9
				c0.3,0.4,0.5,0.5,0.9,0.3c0.9-0.4,1.8-0.8,2.8-1c-0.6,0.3-1.2,0.7-1.8,0.9c-1.5,0.7-1.5,0.6-0.9,2.1c0.1,0.3,0.2,0.5,0.3,0.9
				c0.1,0.6,0.3,0.7,0.9,0.5c1-0.3,2.1-0.8,3.2-1.1c0.3-0.1,0.4-0.2,0.7-0.2c-1.3,0.5-2.7,1-4,1.6c-0.7,0.3-1,1.1-0.9,1.7
				c-0.2,0.3-0.3,0.6-0.5,0.9c-0.2,0.5,0,0.8,0.5,0.7c0.9-0.1,1.7-0.3,2.5-0.5c0.9-0.2,1.7-0.4,2.6-0.6c0,0.1,0,0.1,0,0.2
				c-1,0.3-2,0.6-3,0.9c-0.6,0.2-1.2,0.3-1.8,0.5c-0.4,0.1-0.4,0.4-0.3,0.8c0.1,0.4,0.2,0.9,0.7,0.7c-0.1,0.3-0.3,0.6-0.4,0.9
				c-0.1,0.3,0.1,0.5,0.5,0.4c0.9-0.1,1.7-0.2,2.5-0.3c1.2-0.2,2.4-0.4,3.6-0.4c-0.4,0.1-0.9,0.2-1.2,0.3c-1.6,0.3-3.3,0.6-4.9,0.9
				c-0.4,0.1-0.6,0.5-0.5,1c0.1,0.5,0.4,0.3,0.8,0.3c0.3,0,0.5-0.1,0.7-0.2c0,0.1,0,0.1,0,0.2c-0.3,0-0.5,0.1-0.9,0.1
				c-0.5,0-1.3,0.8-1.2,1.2c0,0.1,0.3,0.3,0.4,0.3c1.3-0.1,2.6-0.2,3.9-0.3c1-0.1,2.1-0.2,3.2-0.3c0.2,0,0.3,0,0.5,0.1
				c-0.4,0.1-0.9,0.2-1.3,0.2c-1.5,0.2-3.1,0.3-4.7,0.5c-0.8,0.1-1.5,0.2-2.3,0.3c-0.3,0-0.7,0.2-0.6,0.6c0.1,0.3,0.3,0.6,0.7,0.5
				c0.6,0,1.3,0,1.9,0.1c-0.7,0.1-1.4,0.3-2.1,0.3c-0.4,0-0.5,0.3-0.4,0.5c0,0.2,0.3,0.4,0.5,0.5c0.1,0.1,0.3,0,0.4,0
				c2.5,0.1,4.9,0.2,7.4,0.3c-0.4,0.1-0.9,0.2-1.3,0.2c-0.8,0-1.6,0-2.4,0c-1.4,0-2.8,0.1-4,0.2c-0.3,0-0.5,0.3-0.7,0.4
				c-0.3,0.3-0.1,0.7,0.4,0.7c0.9,0.1,1.7,0.1,2.5,0.3c-0.8,0-1.5,0-2.3,0c-0.9,0-0.9,0.1-0.9,1.1c3,0.3,5.9,0.7,8.9,1v0.1
				c-1.5-0.1-3.1-0.2-4.6-0.3c-0.1,0-0.2,0-0.3,0c-1.4-0.1-2.8-0.1-4.1-0.1c-0.6,0-0.9,0.3-0.9,0.9c1.1,0.2,2.3,0.3,3.4,0.6
				c0,0.1,0,0.1,0,0.2c-1.1-0.2-2.3-0.3-3.4-0.4c-0.3,0-0.7,0.1-1,0.3c-0.1,0-0.2,0.3-0.2,0.4c0,0.1,0.3,0.2,0.3,0.2
				c1.4,0.3,2.8,0.5,4.2,0.9c2,0.4,3.9,0.8,5.8,1.2c0.1,0,0.1,0,0.2,0.1c0,0.1,0,0.1,0,0.2c-1-0.2-2.1-0.3-3.1-0.5
				c-1.5-0.3-2.8-0.4-4.3-0.7c-0.9-0.2-2-0.3-2.9-0.3c-0.1,0-0.2,0-0.3,0c-0.2,0.1-0.3,0.2-0.5,0.3c0.2,0.2,0.3,0.4,0.4,0.5
				c1.1,0.3,2.2,0.6,3.4,0.9c0.5,0.1,1,0.3,1.5,0.5c-0.9-0.2-2-0.3-2.9-0.6c-0.6-0.1-1.2-0.3-1.8-0.4c-0.7-0.2-0.9,0-0.9,0.8
				c1.8,0.5,3.6,1.1,5.4,1.6c1.8,0.5,3.5,1,5.3,1.5c0,0.1,0,0.1-0.1,0.2c-1.4-0.3-2.7-0.7-4-1c-2.1-0.5-4.2-1-6.3-1.5
				c-0.2,0-0.3-0.1-0.4,0c-0.3,0.1-0.4,0.3-0.6,0.5c0.2,0.1,0.3,0.3,0.4,0.3c1.6,0.6,3.3,1.1,4.9,1.8c-0.6-0.2-1.2-0.3-1.7-0.4
				c-1.1-0.3-2.1-0.6-3.3-0.9c-0.3-0.1-0.5-0.1-0.7,0c-0.2,0-0.3,0.3-0.3,0.4c0,0,0.2,0.3,0.3,0.3c3,1.2,6,2.4,9.1,3.6
				c0.3,0.1,0.6,0.3,0.8,0.4c-1.1-0.3-2.2-0.7-3.4-1.1c-2.3-0.8-4.6-1.5-7-2.3c-0.4-0.2-0.9-0.1-1.2,0.3c1.5,0.8,3.1,1.5,4.6,2.1
				c0,0,0,0.1-0.1,0.1c-1.6-0.6-3.3-1.2-5-1.9c0,0.6,0.3,0.9,0.8,1.2c1.6,0.9,3.3,1.6,4.9,2.4c1.6,0.8,3.2,1.6,4.7,2.4
				c0,0.1,0,0.1-0.1,0.2c-3.1-1.4-6.2-2.8-9.4-4.1c0.1,0.8,0.4,1.3,1,1.6c0.7,0.3,1.4,0.8,2.1,1.2c-1.3-0.4-2.5-1.3-4.1-0.9
				c1.5,0.9,2.8,2.1,4.4,2.5c0.2,0.2,0.3,0.3,0.4,0.4c1.2,0.7,2.3,1.5,3.5,2.1c0.1,0.1,0.2,0.2,0.2,0.3c-1.2-0.7-2.4-1.3-3.6-2
				c-0.5-0.3-0.9-0.3-1.3,0.2c-0.4,0.5-0.9,1-1.5,1.6c1.4,1,2.8,2.1,4.1,3.1c0,0,0,0.1-0.1,0.1c-1-0.7-2.1-1.5-3.2-2.1
				c-0.3-0.3-0.7-0.6-1-0.7c-0.3-0.1-0.8,0.2-1,0.3c-0.1,0.1,0,0.5,0.1,0.7c-0.3-0.3-0.9-0.3-1.4-0.1c-0.3,0.2-0.4,0.3-0.2,0.6
				c0.7,0.6,1.4,1.2,2.1,1.7c0.1,0.1,0.3,0.1,0.3,0.2c1.2,0.1,2.4,0.1,3.6,0.1c0.2,0,0.3,0,0.6,0.2c-0.9,0.4-1.8,0.8-2.8,1.2
				c0.5,0.4,0.9,0.9,1.3,1.2c0,0,0,0.1-0.1,0.1c-0.3-0.2-0.6-0.3-0.8-0.6c-0.6-0.8-1.4-0.5-2.1-0.5c-0.9,0-1.6,0-2.5-0.1
				c-0.2,0-0.3,0-0.6-0.1c0.3,0.9,0.9,1.2,1.4,1.7c0.6,0.6,1.1,1.3,1.7,1.9c-0.1,0.1-0.1,0.1-0.2,0.2c-0.3-0.3-0.7-0.8-1-1.1
				c-0.7-0.7-1.5-1.3-2.1-2c-0.7-0.7-1.4-0.8-2.2-0.3c0.1,0.1,0.1,0.2,0.2,0.3c-0.6-0.5-1.1-0.2-1.8,0c1.5,1.8,2.8,3.5,4,5.1
				c-0.6-0.6-1.5-1.4-2.3-2.1c-0.6,0.5-1.3,1-1.9,1.7c-0.2,0.2-0.2,0.5,0,0.8c0.3,0.6,0.8,1.1,1,1.8c-0.3-0.4-0.7-0.9-1-1.4
				c-0.3-0.5-0.6-0.6-1.1-0.2c-0.5,0.4-0.9,0.8-1.5,1.1c-0.4,0.3-0.3,0.5-0.2,0.8c0.3,0.6,0.7,1.1,0.9,1.8c-0.4-0.7-0.9-1.4-1.4-2.1
				c-0.9,0.5-1.6,0.9-2.4,1.4c-0.3,0.3-0.3,0.5-0.1,0.8c0.3,0.6,0.6,1.3,0.8,2c-0.1-0.2-0.3-0.4-0.3-0.6c-0.2-0.3-0.3-0.6-0.4-0.9
				c-0.4-0.9-0.4-0.9-1.4-0.5c-0.5,0.3-1,0.4-1.5,0.7c-0.4,0.2-0.5,0.4-0.3,0.9c0.3,0.6,0.4,1.2,0.5,1.8c-0.3-0.6-0.5-1.1-0.7-1.7
				c-0.3-0.7-0.3-0.7-1-0.4c-0.6,0.2-1.2,0.3-1.7,0.5c-0.4,0.1-0.6,0.3-0.4,0.9c0.3,0.9,0.5,2,0.6,3c-0.3-0.9-0.6-1.9-0.8-2.8
				c-0.2-0.6-0.4-0.7-0.9-0.6c-0.6,0.1-1.3,0.3-1.9,0.4c-0.6,0.1-0.6,0.4-0.5,0.9c0.2,0.9,0.3,1.9,0.5,2.8c-0.1,0-0.1,0-0.2,0
				c-0.2-0.7-0.3-1.3-0.4-2c-0.1-0.4-0.1-0.9-0.3-1.3c-0.1-0.2-0.3-0.3-0.4-0.3c-0.8,0.1-1.5,0.3-2.2,0.3c-0.3,0-0.4,0.3-0.4,0.5
				c0,0.8,0,1.5-0.1,2.4c-0.1-0.8-0.2-1.5-0.3-2.2c0-0.2-0.2-0.4-0.3-0.4c-0.9,0-1.9,0-3,0c0,1.1,0,2.1,0,3.2c-0.1,0-0.2,0-0.3,0
				c0-0.9,0-1.7,0-2.5c0-0.5-0.1-0.7-0.7-0.6c-0.8,0.1-1.5,0-2.2-0.1c-0.3,0-0.4,0.1-0.5,0.4c-0.1,1.1-0.3,2.3-0.3,3.4
				c-0.1,0-0.1,0-0.2,0c0.1-0.6,0.1-1.3,0.2-1.9c0-0.6,0.1-1.2,0.1-1.8c0-0.1-0.2-0.3-0.3-0.3c-0.8-0.2-1.5-0.3-2.2-0.3
				c-0.4-0.1-0.6,0.2-0.7,0.6c-0.2,0.9-0.3,1.8-0.6,2.8c-0.1,0-0.1,0-0.2,0c0.2-0.9,0.3-1.6,0.4-2.5c0.2-0.7,0.1-0.9-0.7-1
				c-0.7-0.2-1.3-0.3-2-0.4c-0.2,0-0.4,0.2-0.5,0.3c-0.3,0.8-0.6,1.5-0.9,2.3c0.2-0.7,0.3-1.3,0.5-2c0.2-0.8,0.2-0.9-0.5-1.1
				c-0.6-0.2-1.2-0.3-1.8-0.5c-0.3-0.1-0.6,0-0.7,0.3c-0.3,1-0.8,2.1-1.3,3c0.2-0.5,0.3-1.1,0.5-1.6c0.2-0.5,0.4-1.1,0.5-1.6
				c0-0.2-0.1-0.5-0.3-0.6c-0.6-0.3-1.3-0.6-1.9-0.9c-0.4-0.2-0.7-0.2-0.9,0.3c-0.3,0.9-0.9,1.7-1.4,2.5c0.3-0.9,0.8-1.7,1.1-2.6
				c0.2-0.4,0.2-0.7-0.3-0.9c-0.6-0.3-1.2-0.7-1.8-1.1c-0.4-0.3-0.6-0.1-0.8,0.3c-0.3,0.6-0.7,1.1-1.2,1.7c0.3-0.6,0.6-1.1,0.9-1.7
				c0.1-0.2,0.2-0.6,0-0.7c-0.7-0.6-1.5-1.2-2.2-1.8c-0.6,0.8-1.1,1.5-1.6,2.1l-0.1-0.1c0.3-0.4,0.6-0.9,0.9-1.4
				c0.5-0.9,0.5-0.9-0.2-1.6c-0.4-0.4-0.9-0.9-1.4-1.5c-0.9,0.9-1.5,1.7-2.3,2.5l-0.1-0.1c0.5-0.7,1.1-1.4,1.6-2.1
				c0.7-0.9,1.4-1.8,2.1-2.7c0.3-0.3,0.1-0.4-0.2-0.5c-0.4-0.2-0.9-0.3-1.2,0.1c-0.1-0.2-0.2-0.3-0.3-0.4c-0.7-0.3-1.5,0.1-2.1,0.6
				c-0.9,0.9-1.7,1.7-2.7,2.6c-0.1-0.1-0.1-0.1-0.2-0.2c0.9-0.9,1.8-2,2.8-2.9c0-0.1-0.1-0.1-0.1-0.2c-1.5,0-2.9,0-4.4,0
				c-0.3,0-0.5,0.3-0.9,0.5c0.2-0.3,0.3-0.3,0.4-0.6c-0.9-0.4-1.7-0.9-2.5-1.2c0-0.1,0-0.1,0-0.2c0.4,0,0.9,0,1.3,0
				c0.8,0,1.6-0.1,2.4-0.1c0.6,0,1-0.3,1.5-0.8c0.5-0.5,1.1-0.9,1.6-1.5c0-0.1,0-0.2,0-0.3c-0.5-0.2-1-0.3-1.5-0.4
				c-0.1-0.2-0.1-0.4-0.3-0.5c-0.3-0.3-0.8-0.3-1.2-0.1c-1.5,0.9-2.8,1.9-4.3,2.9c0,0-0.1,0.1-0.2,0c0.4-0.3,0.8-0.7,1.2-1
				c1-0.7,2-1.5,3-2.1c0.3-0.3,0.3-0.4,0.1-0.7c-0.4-0.4-0.9-0.9-1.2-1.3c-0.3-0.4-0.8-0.3-1.2-0.2c-1,0.5-2,1.1-3,1.6
				c-0.2,0.1-0.3,0.2-0.5,0.1c1.1-0.7,2.3-1.5,3.4-2.1c0.2-0.1,0.3-0.3,0.3-0.5c0.3-0.1,0.5-0.1,0.8-0.2c1.2-0.7,2.5-1.5,3.9-2.3
				c-0.3-0.1-0.4-0.2-0.6-0.2c-1,0-1.9,0.3-2.8,0.8c-0.3,0.2-0.5,0.3-0.8,0.3c0.6-0.3,1.2-0.6,1.8-0.9c0.7-0.3,1.3-0.8,1.3-1.8
				c-3.2,1.4-6.2,2.7-9.3,4c0,0,0-0.1-0.1-0.1c0.6-0.3,1.2-0.6,1.8-0.9c2.6-1.3,5.2-2.6,7.7-3.9c0.3-0.2,0.6-0.5,0.9-0.9
				c0.1-0.1,0-0.3,0.1-0.3c-0.1,0-0.3,0-0.3,0.1c-1.5,0.6-3.1,1.2-4.6,1.7c-0.1,0-0.2,0.1-0.3,0c1.6-0.8,3.3-1.5,4.9-2.2
				c-0.3-0.6-0.8-0.5-1.3-0.3c-2.8,0.9-5.5,1.8-8.3,2.8c-0.8,0.3-1.5,0.5-2.2,0.6c1.3-0.5,2.6-1,3.8-1.5c2.1-0.8,4.1-1.5,6.1-2.3
				c0.3-0.1,0.6-0.3,0.4-0.6c-0.1-0.2-0.5-0.3-0.8-0.2c-1.7,0.4-3.4,0.9-5.2,1.4c0.9-0.3,1.6-0.6,2.5-0.9c0.8-0.3,1.6-0.5,2.4-0.9
				c0.2-0.1,0.3-0.3,0.4-0.5c-0.2-0.1-0.3-0.3-0.5-0.3c-0.9,0.2-2,0.3-2.9,0.6c-2.7,0.6-5.2,1.3-7.9,1.8c0.6-0.2,1.2-0.4,1.7-0.6
				c2.8-0.9,5.7-1.6,8.5-2.5c0.2-0.1,0.3-0.3,0.4-0.6c0.1-0.3-0.3-0.3-0.5-0.3c-1.3,0.3-2.6,0.5-3.9,0.8c-0.3,0.1-0.8,0.2-1.1,0.1
				c1.5-0.3,2.9-0.7,4.3-1.1c0.3-0.1,1-0.1,0.9-0.7c-0.1-0.5-0.7-0.3-1.1-0.3c-1.1,0.2-2.2,0.3-3.4,0.5c-1.4,0.2-2.8,0.4-4.1,0.6
				c-0.7,0.1-1.5,0.3-2.1,0.3c0-0.1,0-0.1,0-0.2c0.9-0.2,2-0.4,2.9-0.6c2.3-0.4,4.7-0.9,7.1-1.4c0.3-0.1,0.4-0.3,0.2-0.5
				c-0.4-0.5-1-0.4-1.6-0.3c-0.8,0.1-1.5,0.2-2.3,0.1c0.9-0.2,1.9-0.3,2.8-0.5c-0.2-0.7-0.3-0.9-1-0.9c-1.9,0.1-3.8,0.2-5.6,0.3
				c-1.1,0.1-2.3,0.2-3.4,0.1c1.1-0.1,2.2-0.3,3.4-0.3c1.5-0.2,3-0.3,4.5-0.6c0.3,0,0.7,0,0.9-0.1c0.5-0.1,0.6-0.3,0.3-0.7
				c-0.2-0.2-0.5-0.3-0.8-0.3c-0.8-0.1-1.6,0-2.4-0.1c0.9-0.1,1.9-0.1,2.9-0.2c0.2-0.9,0-1.1-0.9-1.1c-2.2,0-4.5-0.1-6.7-0.1
				c-0.2,0-0.3-0.1-0.5-0.2c2.6-0.1,5.2-0.2,7.8-0.3c0.2-0.9,0.3-1.1-0.9-1.2c-0.4,0-0.9,0-1.4-0.1c0-0.1,0-0.1,0-0.2
				c0.6,0,1.2,0,1.7,0c0.3,0,0.8-0.1,0.7-0.5c0-0.3-0.3-0.6-0.6-0.7c-1.7-0.3-3.5-0.4-5.2-0.6c-0.9-0.1-1.9-0.3-2.8-0.5
				c0.8,0.1,1.5,0.1,2.3,0.2c1.8,0.2,3.5,0.3,5.3,0.4c0.1,0,0.3-0.3,0.3-0.3c-0.2-0.4-0.4-0.8-0.7-1.2c0-0.3,0.1-0.7,0-1.1
				c0-0.2-0.3-0.4-0.5-0.4c-1.9-0.4-3.9-0.8-5.8-1.2c0-0.1,0-0.1,0-0.2c0.9,0.2,2,0.3,2.9,0.4c0.9,0.2,1.9,0.3,2.8,0.4
				c0.4,0.1,0.7-0.1,0.6-0.6c-0.1-0.3-0.1-0.5-0.1-0.8c0.5-0.2,0.4-0.7,0.4-1.1c0-0.3-0.4-0.3-0.8-0.4c-1.1-0.3-2.1-0.6-3.3-0.9
				c-0.4-0.1-0.8-0.3-1.1-0.5c1.5,0.3,2.8,0.7,4.3,1.1c0.3,0.1,0.6,0.2,0.9,0.1c0.4-0.1,0.6-0.7,0.2-1.1c-0.4-0.4-0.3-1-0.4-1.5
				c-0.1-0.3-0.3-0.6-0.6-0.7c-1-0.4-2.1-0.9-3.2-1.3c-0.2-0.1-0.3-0.2-0.5-0.3c1,0.3,2.1,0.7,3.1,1c1.2,0.4,1.1,0.5,1.5-0.8
				c0.1-0.4,0.3-0.9,0.4-1.4c0.1-0.3,0.1-0.5-0.3-0.8c-1-0.4-2.1-1-3-1.6c0.9,0.4,1.9,0.9,2.8,1.2c0.9,0.3,0.9,0.3,1.4-0.5
				c0.1-0.2,0.2-0.3,0.4-0.7c0.1,0.7,0.2,1.2,0.3,1.6c0,0.2,0.3,0.3,0.3,0.4c0-0.2,0.2-0.3,0.1-0.4c-0.1-0.6-0.3-1.2-0.4-1.8
				c0-0.1-0.1-0.2-0.1-0.3c0.3-0.8-0.3-1.1-0.8-1.4c-0.6-0.3-1.1-0.7-1.6-1.1c0.8,0.3,1.5,0.8,2.4,1.2c-0.1-1.1,0.3-1.9,0.9-2.8
				c0.1-0.2,0-0.5-0.2-0.6c-0.3-0.3-0.7-0.5-0.9-0.9c0.3,0.3,0.8,0.4,1.1,0.7c0.3,0.2,0.4,0.2,0.6-0.1c0.4-0.4,0.9-0.9,1.2-1.4
				c0.1-0.1,0.3-0.2,0.4-0.3c0,0.3-0.1,0.5-0.1,0.6c-0.1,0.8-0.2,1.5-0.2,2.2c0,0.2,0.1,0.4,0.3,0.5c0.5,0.3,1,0.7,1.5,1
				c0.1,0,0.2,0,0.4,0c-0.3-0.3-0.7-0.5-0.9-0.8c-0.6-0.8-0.9-1.5-0.7-2.6c0.2-0.6,0-1.3-0.5-1.8c-0.2-0.2-0.3-0.3-0.5-0.4l0.1-0.1
				c0.3,0.2,0.4,0.3,0.7,0.5c0.3,0.2,0.5,0.1,0.5-0.3c0.1-0.9,0.3-1.7,0.8-2.5c0.2-0.2-0.1-0.7-0.1-0.9c0.4,0.4,0.5,0.4,1.1-0.1
				c0.5-0.4,1-0.8,1.6-1.2c0.5-0.3,0.3-0.7,0.1-1c0.3,0.3,0.5,0.6,0.9,0.9c0.6-1.4,1.1-2.6,1.6-3.8c0.7,0,1.2-0.5,1.8-0.9
				c0.5-0.3,1.3-0.4,1.4-1.4c0.3,0.4,0.5,0.8,0.9,1.2c0.1-0.1,0.3-0.3,0.3-0.4c0.3-1.2,1-2.2,1.8-3.1c0.4-0.4,1.1-0.6,1.7-0.9
				c0.5-0.3,1.1-0.5,1.6-0.7c0.1,0,0.2,0,0.1,0c0.3,0.9,0.7,1.7,1,2.6c0.9-1,1.9-2,2.8-2.8c0.5,0,0.9,0,1.4,0c0.5-0.1,1-0.2,1.5-0.3
				c0.9-0.2,0.9-0.2,0.8-1c0.2,0.6,0.4,1,1.2,0.9c0.1,0,0.3,0.3,0.3,0.4c0,0.3-0.1,0.5-0.3,0.7c-0.5,0.4-0.4,0.9-0.3,1.5
				c0.3,2,0.8,3.9,1.2,6c0.3-0.4,0.6-0.8,0.7-1.1c0.1-0.5,0.1-1,0-1.5c0-0.5-0.1-0.9-0.1-1.5c0.1,0.6,0.3,1.2,0.3,2
				c0.7-0.7,0.9-1.5,0.9-2.2c0-1.5-0.2-3.1-0.2-4.6c0-0.5,0-1.1,0-1.6c0.3,1.9,0.4,3.7,0.7,5.6c0.1,0,0.1,0,0.2,0
				c0.9-1.9,1.9-3.7,2.9-5.8c1,2,2,3.9,2.9,5.7c0.1,0,0.1,0,0.2,0c0.4-1.8,0.3-3.6,0.8-5.4c0,0.4-0.1,0.9-0.1,1.4
				c0,0.4,0,0.9-0.1,1.4c0,0.4-0.1,0.9-0.1,1.4c0,0.4-0.1,0.9-0.1,1.4c-0.1,1,0.3,2,0.9,2.9c0.2-0.7,0.3-1.2,0.3-1.7
				c0.1,1.2-0.6,2.5,0.7,3.6c0.3-1,0.4-2,0.6-2.8c0.3-1.1,0.5-2.1,0.7-3.3c0.1-0.3-0.1-0.7-0.3-0.9c-0.1-0.3-0.3-0.4-0.3-0.6
				c0-0.3,0.2-0.6,0.3-0.6c0.7,0,0.9-0.4,0.9-1c0,0.1,0.1,0.1,0.1,0.1c0,0.9,0,0.9,1.3,1.1c0.5,0.1,1.1,0.1,1.6,0.1
				c0.3,0,0.5-0.2,0.7-0.3c-0.1,0.3,0.1,0.7,0.6,0.9c0.8,0.3,1.3,1,1.6,1.8c0.1,0.2,0.3,0.3,0.3,0.3c0.1-0.2,0.2-0.3,0.3-0.4
				C183.7,38,183.9,37.7,184.2,37.3c-0.2,0.4-0.3,0.9-0.4,1.4c-0.1,0.3-0.2,0.7,0,0.9c0.6,0.8,1.3,1.4,2,2.1c0.1,0.1,0.3,0,0.3,0
				c0-0.1,0-0.3,0-0.3c-0.1-0.6-0.3-1.1-0.3-1.7c0-0.9-0.3-1.7-0.9-2.4C184.5,36.7,184.4,36.7,184.2,37.3L184.2,37.3z M163.2,77.6
				c0,0.2-0.1,0.3-0.1,0.5c0,0.1,0.3,0.2,0.4,0.1c0.2-0.1,0.3-0.3,0.5-0.6C163.6,77.6,163.4,77.6,163.2,77.6
				c-0.3-0.2-0.4-0.3-0.7-0.4c-0.3-0.1-0.5,0.1-0.8,0.2C162.3,78.1,162.8,77.8,163.2,77.6z M137.2,79.7c-0.3-0.3-0.2-1-0.9-1
				c-0.1,0.9,0.4,2.1,1.1,2.1C137.3,80.5,137.2,80.1,137.2,79.7c0.1,0.3,0.3,0.4,0.3,0.7c0.2,0.3,0.3,0.7,0.5,1
				c0.1,0,0.2-0.1,0.3-0.1c-0.3-0.7-0.4-1.5-0.7-2.1c0-0.1-0.3-0.1-0.5-0.2C137.1,79.3,137.2,79.5,137.2,79.7z M143.7,78.7
				c0.3,0.3,0.4,0.6,0.7,0.9c0.2-0.4-0.4-2.1-1-2.7c-0.1,0.3-0.1,0.5-0.1,0.8c0,0.3,0.2,0.4,0.2,0.7c-0.3,0.9,0.4,1.5,0.8,2.2
				c0-0.2,0-0.4,0-0.6C144,79.6,143.9,79.1,143.7,78.7L143.7,78.7z M194.8,76.5c0-0.2,0.1-0.3,0.2-0.4c0.3-0.3,0.3-0.6-0.1-0.9
				c-0.6,0.4-1,1.7-0.8,2.5C194.3,77.3,194.6,76.9,194.8,76.5c-0.3,0.7-0.6,1.5-0.5,2.2c0.3-0.6,0.7-1.2,1-1.8
				c0.2-0.3,0.3-0.8-0.1-1.1C195.1,76,194.9,76.3,194.8,76.5z M141,50.9c-0.5,1.1-0.5,1.1-0.3,1.5c0.5-0.4,1.1-1.7,0.9-2.3
				C141.4,50.4,141.2,50.6,141,50.9c0.1-0.3,0.3-0.5,0.3-0.8c0.3-0.5,0.3-0.9-0.1-1.4c-0.5,0.5-0.9,2-0.6,2.3
				C140.8,51,140.8,50.9,141,50.9z M137.4,73.6c0-0.2-0.1-0.3-0.1-0.5c0-0.5-0.3-0.7-0.9-0.8c0.3,0.9,0.6,1.8,0.9,2.8
				c0,0,0.2,0,0.3,0C137.6,74.5,137.5,74.1,137.4,73.6c0.3,0.6,0.4,1.3,0.7,1.9c0.1,0.2,0.3,0.3,0.5,0.4c0.1-0.1,0.1-0.1,0.2-0.2
				c-0.3-0.7-0.4-1.3-0.7-2c-0.1-0.2-0.1-0.3-0.3-0.4c-0.1-0.1-0.2-0.2-0.3-0.3C137.5,73.3,137.4,73.5,137.4,73.6L137.4,73.6z
				 M192.4,42.3c-0.2-0.1-0.3-0.2-0.5-0.3c0.4,0.8,0.3,1.7,1.3,2.1c-0.2-0.4-0.3-0.9-0.4-1.3c0.4,0.7,0.9,1.4,1.4,2.1
				c0.6,1.2,0.3,2.5,0.3,3.8c0,0.3,0,0.4,0,0.8c1.2-0.8,1.4-2.1,0.6-3c0,0.3,0,0.7,0,1c0,0.3-0.1,0.6-0.1,0.9c-0.1,0-0.1,0-0.2,0
				c0.1-0.9,0.1-2,0.2-2.9c-0.1,0-0.2-0.1-0.4-0.1c0.3-0.7-0.7-1.1-0.2-1.8c0,0,0-0.1-0.1-0.1C193.7,43.1,193.3,42.4,192.4,42.3z
				 M177.1,36.8c-0.3,0-0.3-0.9-0.9-0.5c0.1,0.2,0.1,0.3,0.2,0.3c1.1,1.2,2.3,2.2,3.8,3c0.7,0.3,1.5,0.5,2.3,0
				c-0.2-0.2-0.3-0.3-0.4-0.3c-1-0.4-2.1-0.8-3.2-1.3C178.2,37.7,177.4,37.5,177.1,36.8c0.8,0.5,1.5,1,2.6,0.9c0.3,0,0.6,0,0.9-0.1
				c0.1-0.1,0.3,0.1,0.4,0.1c0.3,0.2,0.5,0.3,0.9,0.5c-0.3-1.2-3.3-2.1-5-1.8C177,36.5,177.1,36.6,177.1,36.8z M146.4,54.4
				L146.4,54.4c0.2-0.3,0-0.5-0.3-0.3c-0.5,0.2-0.9,0.4-1.5,0.7c-0.3,0.2-0.5,0.3-0.9,0.3c0,0.1,0,0.1,0,0.2
				c0.3,0.1,0.5,0.2,0.9,0.3c1,0.2,1.7-0.3,2.6-0.8c1.4-0.8,2.6-1.7,3.6-3c-0.2,0-0.4-0.1-0.6,0c-0.3,0.3-0.7,0.5-1,0.8
				c-0.2,0.1-0.4,0.3-0.4,0.4c-0.1,0.7-0.5,0.6-1,0.7c-0.3,0-0.7,0.2-0.9,0.2c0,0.1,0,0.1,0.1,0.2c0.3,0,0.5-0.1,0.8-0.1
				c0,0.1,0,0.1,0.1,0.2C147.2,54.1,146.9,54.3,146.4,54.4L146.4,54.4z M145.7,78.9c0.1-0.3,0.2-0.5,0.3-0.8c-0.2,0-0.3-0.1-0.6-0.2
				C145.6,78.3,144.9,78.7,145.7,78.9c-0.7,0.5-0.9,1.2-0.6,2.1c0.4,0,0.9-0.4,0.6-0.7c-0.2-0.3,0-0.4,0.1-0.5
				c0.3-0.5,0.9-1,1.1-1.6c0.5-1.1,0.3-2.3,0.2-3.5c0-0.3-0.1-0.7-0.2-0.9h-0.1c-0.3,1.4-0.7,2.8-1,4.2c0.3-0.3,0.5-0.3,0.8-0.6
				C146.2,77.9,146.4,78.5,145.7,78.9L145.7,78.9z M166.5,74.2c-0.3-0.3-0.8-0.8-1.1-1.1l-0.1,0.1c0.3,0.3,0.5,0.7,0.8,1
				C166,74.3,166.3,74.2,166.5,74.2c0.2,0.3,0.3,0.6,0.5,0.9c-0.3-0.1-0.5-0.3-0.9-0.3c0.3,0.7,0.9,0.8,1.5,1c0,0,0,0.1-0.1,0.1
				c-0.5-0.3-1.1-0.5-1.6-0.7c0.1,0.6,1.3,1.1,3.4,1.5c0,0.1,0,0.1,0,0.2c-1-0.3-2.1-0.6-3.2-0.9c0.7,0.8,1,0.9,5.2,1.1
				c0-0.1-0.1-0.2-0.1-0.3c0.3,0.1,0.4,0.1,0.5,0.1c0.4-0.6,1.4-0.7,1.7-1.5c-0.4,0.3-0.8,0.4-1.1,0.6V76c0.3-0.3,0.7-0.6,1-0.9
				c0-0.1-0.1-0.1-0.1-0.2c-0.3,0.2-0.6,0.3-0.9,0.5c0.5-0.6,1.2-1,1.5-1.8c-0.8,0.5-1.4,1.5-2.3,1.7c1.3-0.8,2.3-1.8,2.6-3.4
				c-0.2,0.3-0.3,0.5-0.4,0.9c-0.2,0.3-0.3,0.5-0.4,0.8c0.7-1.4,0.9-2.9,0.3-3.5c0,0.4,0,0.8,0,1.1c0,0.3-0.1,0.7-0.2,1
				c0.3-2.8-0.3-3.6-2.1-4.6c-1.4-0.8-2.8-0.8-4.2,0.5c-1.8,1.7-1.9,3.6-0.3,5.7c-1.1-1.1-1.5-2.5-1.2-4c-0.2,0.7-0.3,1.4-0.2,2.1
				c0.2,0.8,0.4,1.5,1,2c0.5,0.4,1.2,0.9,1.7,1.3c0,0,0,0.1-0.1,0.1C167.4,74.8,166.9,74.5,166.5,74.2L166.5,74.2z M177.5,76.1
				c0,0.1,0,0.3,0.1,0.3c0.9-0.5,1.9-3.2,2-5.2c0-0.9-0.3-2.5-0.6-2.7c0,0.2-0.1,0.3,0,0.5c0.4,1.5,0.3,3-0.2,4.4
				C178.4,74.5,177.9,75.3,177.5,76.1c0.9-1.6,1.5-3.3,1.4-5.2c-0.1-0.9,0-1.7-0.4-2.5c-0.3-0.4-0.3-0.2-0.4,0
				c-0.4-1-1.5-0.8-2.3-1.3c0,0.2,0,0.4,0.1,0.5c0.1,0.3,0.3,0.5,0.3,0.9c0.8,2.4,0.3,4.6-1.2,6.6c-1.2,1.5-2.8,2.4-4.6,2.6
				c-2.1,0.2-4-0.3-5.5-1.8c-0.5-0.5-1-1.1-1.4-1.7c-0.4-0.6-0.4-0.8-0.4-1.8c0-0.2-0.2-0.3-0.2-0.5c0-0.2,0.1-0.3,0.1-0.5
				c0-0.9-0.1-2-0.2-2.9c0,0-0.1-0.1-0.2-0.2c-1.4,0.9-2.8,1.9-3.9,3.2c0.2,0.3,0.3,0.5,0.2,0.7c-0.2,0.7-0.3,1.4,0.3,2
				c0-0.2,0.1-0.3,0.1-0.4c0.3,0.6,0.5,1.3,0.8,1.9c0.1,0,0.2-0.1,0.2-0.1c0-0.2-0.1-0.3-0.1-0.3c0.4,0.3,0.9,0.7,1.4,1
				c0.6,0.3,1.2,0.5,1.8,0.8c2.7,0.9,5.4,1.4,8.3,1c1.7-0.2,3.4-0.4,4.9-1.4c0,0.1,0.1,0.2,0.1,0.3c0.1,0.1,0.2,0.1,0.3,0.2
				C177,76.7,177.3,76.5,177.5,76.1L177.5,76.1z M176.7,65c-0.3,0.4-0.7,0.9-1,1.3c0.6,0.6,1.1-0.1,1.8-0.2
				c-0.3,0.2-0.4,0.3-0.5,0.4c-0.1,0.1-0.1,0.3,0,0.3c0.4,0.3,0.9,0.3,1.4,0c0.2-0.2,0.4-0.3,0.6-0.5c0.3-0.2,0.3-0.3-0.1-0.5
				c-0.4-0.2-0.8-0.5-1.2-0.7C177.4,65.1,177,65.1,176.7,65c-0.1-0.1-0.1-0.3-0.1-0.3c-0.7-0.3-1.5-0.6-2.1-0.9
				c-0.2-0.1-0.3-0.1-0.4-0.2c-0.5-0.2-0.9-0.7-1.5-0.3c-0.1-0.1-0.2-0.3-0.3-0.3c-0.3-0.1-0.7-0.1-1-0.1c-1.5,0-2.9-0.2-4.3,0.1
				c-2.6,0.4-4.9,1.6-7,3.2c-0.5,0.3-1,0.8-1.5,1.2c-0.2,0.1-0.3,0.3-0.4,0.3c-0.6,0.6-1.2,1.1-1.8,1.7l-0.1-0.1
				c0.3-0.4,0.8-0.8,1.1-1.2c0,0,0,0-0.1-0.1c-0.2,0.1-0.3,0.2-0.5,0.3c0.9-0.9,1.6-1.9,2.8-2.6c1.5-0.9,2.8-1.9,4.4-2.5
				c1.2-0.4,2.5-0.9,3.8-0.9c1.3-0.2,2.7-0.1,4,0c0.9,0,1.9,0.5,2.9,0.3c0.1,0,0.2,0.1,0.3,0.2c-0.1,0.1-0.2,0.1-0.3,0.2
				c0.7,0.3,1.3,0.5,2,0.8c0.3-0.3,0.5-0.2,0.9,0.2c0.6,0.4,1.3,0.9,1.9,1.3c0.2,0.1,0.3,0.3,0.5,0.3c0.2,0.1,0.3,0.1,0.4,0.2
				c0.3,0.2,0.5,0.4,0.8,0.7c0,0,0,0.1-0.1,0.3c0.2-0.1,0.3-0.1,0.5-0.2c0,0.2,0,0.3,0,0.3c0.2,0.1,0.3,0.1,0.4,0.1
				c0.1,0,0,0.3,0,0.3c-0.1,0.1-0.3,0.2-0.3,0.1c-0.7-0.4-1.1,0.3-1.6,0.4c-0.1,0-0.1,0.4-0.1,0.4c0.3,0.1,0.6,0.3,0.9,0.2
				c0.4-0.2,0.8-0.5,1.1-0.8c0.2-0.1,0.3-0.3,0.6-0.4c0.2,0.7,0.8,1.2,1.3,1.2c-0.2,0.5-1.2,1-2.1,1c0.4,0.3,0.8,0.8,1.3,0.6
				c0.6-0.2,1.1-0.4,1.6-0.7c0.1-0.1,0.2-0.3,0.2-0.4c-0.2-0.9-1.2-1.3-1.7-2.1c0,0-0.3,0.1-0.4,0.2c-0.2-0.3-0.3-0.5-0.5-0.9
				c-0.1,0-0.3,0-0.4,0c0.1,0,0.1-0.1,0.2-0.1c-0.1-0.2-0.1-0.4-0.2-0.5c-0.4-0.3-0.9-0.7-1.5-1c0.1-0.1,0.1-0.2,0.2-0.3
				c0.3,0.2,0.4,0.3,0.7,0.5c0.1,0.1,0.2,0.2,0.3,0.3c0.3,0.2,0.6,0.2,0.7,0.3c0.3,0.9,1.1,0.9,1.7,1.5c-0.2-0.5-0.3-0.9-0.5-1.4
				c-0.4-0.9-0.9-1.7-1.3-2.6c-0.6-1.3-1.3-2.5-1.9-3.8c-0.6-1.3-1.3-2.4-1.9-3.7c-0.3-0.8-0.8-1.6-1.2-2.4
				c-0.5-0.9-1.2-1.8-1.5-2.8c-0.3-0.8-0.7-1.5-1-2.2c-0.2-0.4-0.5-0.7-0.9-1.1c0.2-0.7-0.3-1.6-1.3-2.1c0.5-0.6-0.2-1-0.3-1.5
				c-0.2-0.5-0.5-1-0.8-1.5c-0.3-0.1-0.5-0.2-0.9-0.3c0.3-0.2,0.4-0.3,0.7-0.4c-0.3-0.6-0.5-1.1-0.9-1.6c-0.1-0.1-0.5-0.1-0.6,0
				c-0.3,0.5-0.6,1.1-0.9,1.7c0.3,0.1,0.4,0.1,0.7,0.2c0,0.1,0,0.2,0,0.2c-0.3,0.1-0.6,0.2-0.9,0.3c-0.2,0.3-0.3,0.5-0.4,0.8
				c-0.5,0.7-1,1.4-0.9,2.1c-0.3,0.4-0.6,0.7-0.8,1c-0.3,0.6-0.6,1.2-0.9,1.9c-0.3,0.8-0.8,1.5-1.1,2.2c-0.1,0.2-0.1,0.4-0.2,0.6
				c-0.2,0.3-0.4,0.5-0.6,0.9c-1.1,2.2-2.3,4.4-3.4,6.7c-0.5,1.1-1.4,2.1-1.4,3.4c0,0.1-0.2,0.1-0.2,0.2c-0.1,0.1-0.3,0.2-0.3,0.3
				c-0.1,0.6-0.4,1.1-0.8,1.6c-0.1,0.1-0.1,0.2-0.1,0.3c0.2,0,0.3,0,0.3,0c-0.3,0.4-0.7,0.8-1.1,1.2c0,0.1,0.1,0.1,0.1,0.2
				c0.1,0,0.2,0,0.3,0c0,0.2,0,0.3-0.1,0.4c0.3-0.2,0.5-0.3,0.7-0.4c0,0.3,0,0.5,0,0.8c0.6-0.1,1.1-0.6,1.3-1.1
				c-0.3,0.2-0.5,0.3-0.8,0.5c0-0.5-0.3-0.3-0.5-0.2c-0.1-0.2-0.1-0.3-0.2-0.4c0.2-0.1,0.3-0.3,0.6-0.5c-0.1,0.3-0.2,0.4-0.2,0.5
				l0.1,0.1c0.3-0.3,0.7-0.5,1-0.8c0,0,0.1,0.1,0.1,0.2c-0.2,0.2-0.4,0.3-0.6,0.5l0.1,0.1c0.1,0,0.2-0.1,0.3-0.1
				c0.1-0.1,0.2-0.2,0.3-0.3c-0.1,0.3-0.1,0.3-0.2,0.6c1.9-1.1,3.7-2.2,5.8-2.7c2.1-0.4,4.1-0.9,6.3-0.4c-0.1,0-0.2,0-0.3,0
				c-1.1,0-2.2-0.2-3.4,0.1c-1.3,0.3-2.8,0.3-4,1c-0.7,0.3-1.5,0.5-2.1,0.9c-1.1,0.8-2.5,1.2-3.4,2.4c0,0.1-0.1,0.1-0.2,0.1
				c-0.2,0.1-0.4,0.2-0.6,0.3c-0.2,0.2-0.3,0.4-0.5,0.6c-0.8,0.8-1.5,1.5-2.2,2.2c-0.2,0.2-0.3,0.3-0.4,0.5l0.1,0.1
				c0.3-0.2,0.5-0.3,0.8-0.5c0,0.1,0,0.2,0,0.2c-0.5,0.3-0.7,0.8-1,1.2c-0.3,0.3-0.5,0.6-0.6,1c-0.3,1.2-0.5,2.4,0.3,3.6
				c0.6,0.9,1.5,1,2.4,1.4c0.9,0.4,1.8,0.6,2.8,0.9c0.1,0,0.2,0.1,0.3,0.2c-0.2,0.1-0.3,0.1-0.5,0.3c0.3,0.2,0.5,0.3,0.8,0.3
				c0.3,0,0.4,0.1,0.5,0.3c0,0,0,0,0.1,0.1c0.1,0,0.3,0.1,0.4,0.2c0.1-0.2,0.1-0.3,0.2-0.3c0.2,0.2,0.3,0.3,0.4,0.3
				c-0.2,0.3-0.3,0.5-0.3,0.9c-0.2-0.3-0.3-0.5-0.3-0.7c-0.1-0.1-0.3-0.3-0.3-0.3c-0.7,0.3-1-0.3-1.5-0.5c-0.2-0.1-0.3-0.3-0.4-0.3
				c-0.9,0.3-1.6-0.3-2.4-0.5c-0.5-0.2-0.9-0.4-1.5-0.7c0-0.1,0-0.1,0.1-0.2c0.1,0,0.2,0.1,0.3,0.1c0.2-0.1,0.3-0.1,0.5-0.2
				c-0.1-0.2-0.1-0.3-0.3-0.5c-0.3-0.3-0.5-0.4-0.8-0.7c-0.1-0.1-0.3-0.1-0.4-0.2c0,0.1-0.1,0.1-0.1,0.2c0.4,0.3,0.9,0.7,1.3,1.1
				c-0.1,0.1-0.2,0.2-0.2,0.3c-0.3-0.6-0.6,0.1-0.7-0.1c-0.3-0.6-0.5-1.2-0.8-1.9c0.2,0.2,0.3,0.3,0.4,0.4c-0.1-1-0.3-2.1-0.3-2.9
				c-0.3,0.4-0.5,0.9-0.8,1.4c-0.6,0.9-0.8,2.1-1.5,2.9c-0.3,0.4-0.5,1-0.8,1.5c-0.1,0.3-0.1,0.6-0.2,0.9c-0.3,0.4-0.8,0.9-0.9,1.4
				c-0.2,0.5-1,0.9-0.4,1.5c-0.4,0.5-0.8,1-1.2,1.5c-0.2,0.3-0.1,0.4,0.3,0.5c0.1,0,0.3,0.1,0.3,0.2c0,0.1,0,0.1-0.1,0.2
				c-0.3,0-0.5-0.1-0.9-0.1c0.1,0.2,0.2,0.3,0.2,0.5s0,0.4,0,0.4c-0.6,0.1-0.7,0.8-1.1,1c-0.2,0.1-0.2,0.4-0.2,0.6
				c0.3,0.1,0.5,0.2,0.8,0.3c0,0.1,0,0.2,0,0.3c-0.3,0-0.5,0-0.8,0c-0.2,0-0.3,0.1-0.4,0.2c0.1,0.1,0.1,0.3,0.2,0.3
				c0.1,0.1,0.2,0.2,0.3,0.3c-0.9,0.3-1.3,1.1-1.5,1.8c0.3,0.1,0.5,0.2,0.8,0.3c0.1,0.1,0.2,0.3,0.3,0.3c0.1-0.1,0.3-0.2,0.3-0.3
				c0.3-0.2,0.4-0.3,0.8-0.5c0.1,0.3,0.1,0.4,0.1,0.4c0.1,0.2,0.3,0.3,0.4,0.3c0.1-0.1,0.2-0.3,0.3-0.3c0.2-0.2,0.4-0.3,0.7-0.4
				c0.2,0.9,0.2,0.9,0.9,0.6c-0.2-0.6,0.2-0.5,0.6-0.5c-0.1,0.5,0.3,0.6,0.7,0.5c0-0.6,0.3-0.6,0.8-0.5c0,0.1,0,0.2,0,0.2
				c0.1,0.2,0.3,0.3,0.4,0.5c0.2-0.2,0.3-0.3,0.4-0.4c0.2-0.2,0.3-0.3,0.5-0.3c0.2,0.3,0.3,0.5,0.4,0.7c0.2-0.2,0.3-0.3,0.5-0.4
				c0.1-0.1,0.3-0.2,0.3-0.2c0.1,0,0.2,0.2,0.3,0.3c0.2,0.2,0.3,0.3,0.6,0.4c0-0.1,0-0.2,0-0.3c0.2-0.2,0.4-0.4,0.6-0.3
				c0.3,0.1,0.4,0.3,0.7,0.6c0.1-0.1,0.3-0.3,0.4-0.5c0.3-0.3,0.5-0.2,0.5,0.1c0.1,0.4,0.3,0.4,0.6,0.4c8.2,0,16.3,0,24.5,0
				c0.5,0,1,0.2,1.3-0.4c0-0.1,0.2-0.1,0.3-0.1c-0.1,0.2-0.2,0.3-0.3,0.6c0.5-0.1,1.1,0.3,1.2-0.5c0.1-0.3,0.4-0.3,0.5,0.1
				c0.1,0.4,0.3,0.4,0.8,0.4c0-0.2,0.1-0.4,0.1-0.6c0.3-0.1,0.7-0.2,0.8,0.4c0,0.1,0.3,0.3,0.3,0.3c0.2,0,0.3-0.2,0.3-0.3
				c0.2-0.2,0.3-0.3,0.4-0.4c0.3,0.3,0.4,0.6,0.6,0.7c0.3,0.1,0.4-0.2,0.5-0.5c0-0.1,0.3-0.2,0.3-0.2c0.1,0,0.3,0.2,0.3,0.3
				c0,0.4,0.3,0.4,0.6,0.3c0.2-0.1,0.3-0.4,0.4-0.7c0.2,0.1,0.4,0.1,0.5,0.3c0.3,0.6,0.4,0.6,0.8,0.1c0.1-0.2,0.3-0.3,0.4-0.3
				c0.1,0,0.2,0.3,0.3,0.3c0.1,0.1,0.3,0.3,0.4,0.3c0.1,0,0.2-0.2,0.3-0.3c0.1-0.1,0.3-0.3,0.3-0.3c0.1,0.1,0.2,0.3,0.3,0.3
				c0.2,0.1,0.3,0.3,0.4,0.3c0.2,0,0.3-0.3,0.4-0.4c0.1-0.1,0.1-0.2,0.1-0.3c0.3,0,0.4-0.1,0.8-0.1c-0.3-0.5-0.6-1-0.9-1.5
				c0,0,0.1,0,0.1-0.1c-0.3-0.1-0.6-0.1-0.9-0.2c0-0.1,0-0.1,0-0.2c0.2-0.1,0.3-0.2,0.6-0.3c-0.5-0.9-0.9-1.6-1.4-2.3
				c-0.3,0-0.5-0.1-0.8-0.1c0-0.1-0.1-0.1-0.1-0.2c0.9-0.3,0.6-0.8,0.3-1.3c-0.3-0.5-0.6-1-0.9-1.5c-0.2,0-0.3,0-0.7-0.1
				c0.6-0.3,0.4-0.8,0.3-1.1c-0.5-0.9-1-1.9-1.5-2.8c-0.5-1.1-1-2.1-1.5-3.3c-0.6-1.3-1.3-2.6-2-3.8c-0.2-0.3-0.4-0.4-0.8-0.3
				c-0.3,0.2-0.5,0.2-0.9,0.3c-0.3,0.1-0.6,0.2-0.9,0.3c0.2,0.2,0.3,0.3,0.5,0.5c-0.5-0.2-0.9-0.1-1.3,0.4c0.3,0.2,0.6,0.3,0.9,0.4
				v0.1c-0.4,0-0.9,0-1.4,0c0.3,0.3,0.5,0.5,0.7,0.7c-1.1-0.3-1.1-0.3-1.3,0.2c0.3,0.1,0.6,0.2,0.9,0.3c0,0.1,0,0.2,0,0.2
				c-0.3,0-0.5,0-0.7-0.1c-0.3-0.2-0.6-0.1-0.9,0.3c0.3,0.2,0.5,0.3,0.7,0.4c-0.2,0.3-0.5,0.4-0.5,0.7s0.3,0.5,0.4,0.8
				c-0.5-0.2-0.6-1-1.4-0.5c0.1-0.2,0.1-0.3,0.2-0.3c-0.9-0.2-0.9-0.1-0.9,0.5c0.1,0,0.2,0,0.3,0c0.1,0,0.2,0,0.3-0.1
				c-0.2,0.3-0.5,0.5-0.7,0.3c-0.4-0.5-0.6-0.4-0.9,0.2c0.3,0.1,0.8,0.2,0.5,0.7c-0.6-0.3-0.8-0.1-0.7,0.3c-0.3,0-0.6,0.1-0.9,0.1
				c0.2,0.4,0.3,0.7,0.5,1c-0.1,0-0.3,0.1-0.4,0.1c0-0.1,0.1-0.1,0.1-0.2c-0.1-0.2-0.2-0.4-0.3-0.5c-0.1-0.1-0.3,0-0.5,0
				c-0.2,0.1-0.3,0.2-0.4,0.3c-0.3,0.2-0.5,0.4-0.9,0.6c-0.6,0.3-1.1,0.7-1.9,0.6c0.2-0.1,0.3-0.3,0.3-0.3c0-0.1-0.1-0.2-0.1-0.2
				c-0.3,0.1-0.6,0.2-0.9,0.3c0.1,0.2,0.2,0.3,0.3,0.6c-0.6,0.1-1.3,0.3-2.1,0.3c0.2-0.3,0.2-0.3,0.3-0.4c-0.9-0.3-1-0.3-0.9,0.3
				c-1.1-0.2-2.2-0.3-3.4-0.4c0.2-0.2,0.3-0.2,0.3-0.3c0,0-0.1-0.2-0.2-0.2c-0.4-0.1-0.9-0.2-1.3-0.3c0,0.2,0.1,0.2,0.1,0.3
				c0.1,0.1,0.2,0.1,0.2,0.2c0,0,0,0.1-0.1,0.1c-0.3-0.1-0.5-0.3-0.7-0.3c0-0.3,0-0.4,0-0.4c-0.2,0-0.5-0.1-0.5,0
				c-0.2,0.5-0.3,0.2-0.5,0.2c0-0.2,0-0.3-0.1-0.4c-0.2-0.3-1.4-0.5-1.5-0.4c-0.2-0.2-0.3-0.3-0.5-0.4c-0.3-0.3-0.6-0.4-0.9-0.6
				c0.3,0,0.5-0.1,0.8-0.1c0-0.1,0-0.3,0-0.3c-0.3,0-0.5-0.1-0.7,0c0,0,0,0.3-0.1,0.5c-0.3-0.2-0.7-0.3-0.9-0.3
				c0.3-0.1,0.5-0.1,0.9-0.2c-0.1-0.2-0.1-0.3-0.2-0.3c-0.4-0.3-0.9-0.5-1.4-0.8c-0.9-0.6-1.9-0.9-3-0.5c-0.3,0.2-0.9,0.2-1.3,0.1
				c-0.9-0.3-1-1.5-0.3-2.1c0.5-0.4,1.1-0.8,1.6-1.2c0.6-0.5,1.5-0.8,1.2-2c0.2,0.3,0.3,0.3,0.4,0.6c0.1-0.3,0.3-0.5,0.3-0.8
				c0-0.3-0.1-0.5-0.2-0.7c0.1,0,0.1,0,0.2-0.1c0.1,0.3,0.3,0.5,0.3,0.8c0.4-0.2,0.6-0.5,0.3-0.9c-0.3-0.3,0-0.5,0.2-0.7
				c0,0.3,0.1,0.7,0.1,1c0.1,0,0.1,0,0.2,0.1c0.1-0.3,0.3-0.7,0.3-1c0.1,0.2,0.2,0.3,0.3,0.4c0.8-0.2,0.4-0.9,0.6-1.4
				c0.2,0.3,0.3,0.5,0.5,0.9c0.4-0.5,0.8-0.9,1-1.3c-0.1,0.4,0,0.5,0.5,0.3c0.3-0.1,0.5-0.3,0.7-0.5c0.1-0.1,0.2-0.2,0.2-0.2
				c0.7,0.4,0.9-0.3,1.2-0.6c0,0.1,0,0.3,0.1,0.4c0.4-0.3,0.9-0.4,1.2-0.6c0,0,0.1,0.2,0.3,0.2c0.7,0.1,0.9-0.5,1.2-1.2
				c-0.1,0.4-0.1,0.7-0.1,0.9c0.9,0.2,1.1-0.6,1.5-1c-0.1,0.3-0.1,0.5-0.2,0.8c1.5,0.5,1.4-0.9,2-1.5c-0.2,0.4-0.3,0.9-0.6,1.5
				c0.3,0.1,0.6,0.2,0.9,0.1c0.3,0,0.4-0.3,0.7-0.3c-0.1,0.5,0.1,0.7,0.6,0.5c0.3-0.1,0.7-0.3,1-0.3c0,0.1-0.1,0.3-0.1,0.6
				c0.5,0,0.9-0.1,1.4-0.1c0,0,0,0.2,0,0.5c0.4-0.1,0.8-0.2,1.1-0.3C176,65.6,176.4,65.3,176.7,65L176.7,65z M188.8,105.3
				c-0.1-0.1-0.1-0.2-0.2-0.2c-0.3,0.2-0.6,0.3-0.9,0.4c-2.3,1.5-4.7,2.8-7.4,3.7c-1.8,0.6-3.7,0.9-5.6,1.2
				c-1.6,0.3-3.4,0.3-5.1,0.5c-0.6,0-1.2-0.1-1.8-0.1c-1.1-0.1-2.3-0.1-3.4-0.3c-2.5-0.6-4.9-1.2-7.3-2.1c-2.3-0.9-4.5-2-6.7-3
				c-0.1-0.1-0.3-0.1-0.3-0.2c0,0.1-0.1,0.1-0.1,0.2c0.7,0.6,1.3,1.1,2.1,1.7c-0.7-0.3-1.3-0.6-1.9-0.9c0,0.1-0.1,0.1-0.1,0.2
				c0.4,0.3,0.9,0.8,1.4,1.1v0.1c-0.6-0.3-1.1-0.6-1.7-0.9l-0.1,0.1c0.3,0.3,0.6,0.7,1,1.1c-0.5-0.3-0.9-0.4-1.3-0.5
				c-0.1,0.1-0.1,0.1-0.2,0.2c0.3,0.3,0.8,0.6,1.1,0.9c0,0.1-0.1,0.1-0.1,0.2c-0.6-0.3-1.3-0.7-1.9-1l-0.1,0.1
				c0.5,0.4,1,0.9,1.5,1.4c0,0,0,0,0,0.1c-0.6-0.3-1.3-0.7-1.9-1c0,0.1-0.1,0.1-0.1,0.2c0.5,0.4,1,0.9,1.5,1.4c0,0,0,0,0,0.1
				c-0.6-0.3-1.2-0.6-1.8-0.9c0,0.1-0.1,0.1-0.1,0.2c0.5,0.4,1,0.9,1.5,1.2c0,0,0,0,0,0.1c-0.9-0.4-1.6-0.9-2.5-1.3
				c0,0.1-0.1,0.1-0.1,0.2c1.2,0.9,2.3,2,3.6,2.8c2.7,1.7,5.6,2.9,8.7,3.9c2.5,0.7,5,1.2,7.6,1.4c1.2,0.1,2.5,0.1,3.8,0
				c0.4,0,0.9-0.1,1.4-0.1c1.8-0.2,3.6-0.3,5.3-0.5c1.8-0.3,3.5-0.8,5.2-1.3c2.2-0.7,4.4-1.6,6.4-2.9c1.5-0.9,2.8-2.1,4.3-3.1
				c0.1-0.1,0.1-0.2,0.3-0.4c-0.9,0.5-1.8,0.9-2.6,1.5c0,0,0,0,0-0.1c0.5-0.4,1-0.8,1.5-1.2c0-0.1-0.1-0.2-0.1-0.2
				c-0.6,0.3-1.1,0.5-1.7,0.8c0,0,0,0,0-0.1c0.4-0.3,0.9-0.7,1.3-1.1c0-0.1-0.1-0.1-0.1-0.2c-0.6,0.3-1.2,0.6-1.9,0.9c0,0,0,0,0-0.1
				c0.5-0.4,1-0.9,1.5-1.3l-0.1-0.1c-0.6,0.3-1.2,0.7-1.8,0.9c0-0.1-0.1-0.1-0.1-0.2c0.3-0.3,0.7-0.6,1.1-0.9l-0.1-0.1
				c-0.4,0.2-0.9,0.3-1.3,0.5c0-0.1-0.1-0.1-0.1-0.2c0.3-0.3,0.8-0.6,1.1-0.9c0-0.1-0.1-0.1-0.1-0.2c-0.6,0.3-1.2,0.6-1.8,0.9
				c0,0,0,0,0-0.1c0.5-0.4,0.9-0.8,1.5-1.2c0-0.1-0.1-0.1-0.1-0.2c-0.6,0.3-1.2,0.6-1.9,0.9C187.5,106.4,188.2,105.9,188.8,105.3
				L188.8,105.3z M198.4,92.8c-9.5-18.8-19-37.6-28.5-56.3c-0.1,0-0.2,0.1-0.3,0.1c9.3,18.6,18.6,37.2,27.9,55.8
				c-3.1,0.3-55.9,0.1-56.2-0.2c0.3-0.7,0.6-1.4,0.9-2c2.8-5.4,5.4-10.8,8.2-16.2c1.7-3.5,3.5-7.1,5.2-10.6
				c2.6-5.1,5.1-10.1,7.7-15.2c1.2-2.3,2.3-4.7,3.4-7.1c0.7-1.5,1.4-2.8,2.1-4.3c0.2-0.3,0.4-0.5,0.7-0.9c0,0,0-0.1,0.1-0.1
				c-0.1-0.1-0.2-0.3-0.4-0.4c-9.6,19.1-19.3,38.1-28.9,57.3C159.8,92.8,179.1,92.8,198.4,92.8z M159.6,104.9
				c0.2-0.2,0.4-0.3,0.5-0.4c0.5-0.9,1.2-1.5,2.1-1.9c2.4-0.9,3.8-3,5-5.2c0.2-0.3,0.4-0.8-0.2-1.2c-0.1,0.5-0.1,0.9-0.2,1.5
				c-0.2-0.3-0.3-0.3-0.3-0.5c-0.1,0.3-0.2,0.6-0.3,0.9h-0.1c0-0.4,0-0.8,0-1.2c-0.1,0-0.2,0-0.2,0c-0.2,0.6-0.3,1.2-0.4,1.9
				c0-0.4,0-0.8,0-1.1c0-0.1-0.2-0.3-0.3-0.3c-0.5,0-0.7,0.4-0.8,1c-0.1,0.6-0.2,1.2-0.3,1.8c-0.1,0-0.2,0-0.3,0
				c0.1-0.7,0.2-1.4,0.3-2.1c-0.1,0-0.2,0-0.2,0c-0.8,0.9-0.3,2.1-0.9,3c0.1-0.7,0.2-1.5,0.2-2.1c-0.7,0.7-0.4,1.7-0.9,2.5
				c0-0.4,0-0.9,0-1.2c-0.1,0-0.1,0-0.2,0c-0.2,0.7-0.3,1.4-0.4,2.1c-0.1,0-0.1,0-0.2,0c0-0.3,0-0.7,0-1h-0.1
				c-0.2,0.3-0.3,0.7-0.4,1.1c-0.1,0-0.1,0-0.2,0c0-0.2-0.1-0.3,0-0.5c0.3-1.2,1-2.2,1.8-3.2c1-1.2,2.6-1.7,4-2.3
				c0.3-0.1,0.4-0.3,0.7-0.3c-1.5-0.8-3.2,0-3.9,0.9c-0.1,0.1,0,0.3,0,0.5c-0.5,0.4-1.2,0.9-1.9,1.4c0.1,0.1,0.2,0.2,0.2,0.2
				c-0.1,0.8-1.2,0.3-1.2,1.3c0.1,0,0.2-0.1,0.3-0.1c0.1,0,0.2-0.1,0.4-0.2c-0.3,0.5-0.6,0.9-0.9,1.3c0-0.3-0.1-0.5-0.1-0.8
				C159.7,100.6,159.2,102.6,159.6,104.9L159.6,104.9z M173,96.9c-0.1,0-0.1,0-0.2,0c0,0.4,0,0.9,0,1.2h-0.1c-0.1-0.5-0.3-1-0.3-1.5
				c-0.3,0.8-0.2,1.5,0.3,2.2c0.2,0.3,0.3,0.5,0.5,0.8c0.9,1.4,2.1,2.2,3.4,2.8c0.9,0.4,1.8,1,2.3,1.9c0.1,0.2,0.3,0.3,0.4,0.6
				c0.2-0.9,0.3-1.9,0.1-2.8c-0.2-1.3-0.6-2.5-2-3c-0.3-0.1-0.6-0.4-0.9-0.7c0.2-0.1,0.3-0.1,0.3-0.2c-0.7-0.4-1.3-0.9-2-1.4
				c0.2-0.1,0.3-0.2,0.3-0.2c-1-1.5-2.3-1.6-4-1.2c0.2,0.2,0.3,0.3,0.4,0.3c0.6,0.3,1.3,0.6,1.9,0.9c2.2,0.9,3.4,2.8,4.1,5
				c0.1,0.1,0,0.3-0.1,0.4c-0.1,0-0.1,0-0.2,0c-0.2-0.3-0.3-0.8-0.4-1.1H177c0,0.3-0.1,0.8-0.1,1.1h-0.1c-0.2-0.7-0.3-1.4-0.4-2.1
				c-0.1,0-0.1,0-0.2,0c0,0.2,0,0.3,0,0.4c0,0.1,0,0.3-0.1,0.4c-0.5-0.7-0.1-1.7-0.9-2.3c0,0.8,0,1.5,0,2.1
				c-0.4-2.7-0.4-2.7-0.9-2.7c0.1,0.7,0.3,1.5,0.3,2.1c-0.1,0-0.1,0-0.2,0c-0.1-0.5-0.3-1.1-0.3-1.6c-0.1-0.8-0.3-1.3-1.1-1.3
				c0,0.5,0.1,0.9,0.1,1.5c-0.1,0-0.1,0-0.2,0C173.2,98,173.1,97.4,173,96.9z M181.5,94.6c0.6,0.1,0.7,0.1,1.5,0.9
				c1,0.9,2.1,1.4,3.4,1c0.3-0.1,0.6-0.3,0.9-0.3c1.8,0,3.5-0.7,5.2-1.3c0.5-0.2,1-0.6,1.5-0.9c-1.3-0.3-4.7-0.2-5.5,0.3
				c0.4,0.2,0.7,0.3,1,0.3c0,0.1,0,0.1,0,0.2c-1-0.3-2.1-0.9-3.3-0.3c0.1-0.3,0.3-0.5,0.3-0.8c-0.1-0.1-0.1-0.1-0.2-0.2
				c-0.3,0.3-0.7,0.6-1,0.9c0.1-0.3,0.2-0.4,0.3-0.7c-0.7,0-1.3-0.1-1.8,0C183.1,94.1,182.2,94.4,181.5,94.6z M144.9,93.8
				c0,0.1-0.1,0.2-0.1,0.3c0.4,0.3,0.9,0.8,1.4,0.9c2,0.7,4,1.3,6,1.5c1.3,0.2,2.4,0.1,3.4-0.9c0.6-0.6,1.2-1,2.1-1
				c-0.3-0.1-0.6-0.1-0.9-0.2c-0.3-0.1-0.8-0.1-1.1-0.2c-0.4-0.2-0.9-0.4-1.4-0.5c-0.3-0.1-0.6,0-0.9,0.1c0.1,0.3,0.2,0.5,0.3,0.8
				c-0.2-0.2-0.3-0.3-0.5-0.5c-0.2-0.2-0.3-0.3-0.5-0.3c0,0.1-0.1,0.1-0.1,0.2c0.1,0.2,0.2,0.4,0.3,0.7c-0.5,0.2-1,0.3-1.6,0.4V95
				c0.3-0.2,0.8-0.3,1.1-0.4c-0.3-0.2-0.7-0.3-1-0.3c-0.3,0-0.7,0.2-0.9,0.3c-0.3,0.1-0.6,0.2-0.9,0.2v-0.1c0.4-0.2,0.9-0.3,1.3-0.4
				c0-0.1,0-0.1,0-0.2C148.7,94,146.8,93.8,144.9,93.8z M176.7,37.6c-0.1,0.1-0.1,0.2-0.2,0.3c-0.3,2.1-0.6,4.2-0.9,6.3
				c-0.1,0.8-0.3,1.5,0.5,2.2c0.5-2,1-3.9,1.5-5.8c-0.3,1.9-0.7,3.7-1,5.5c-0.1,0.6-0.4,1.2,0.3,1.8c0.1-0.2,0.2-0.3,0.3-0.4
				c0.7-2.5,1.5-4.9,2.1-7.4c0.1-0.2,0-0.5-0.1-0.6C178.4,38.9,177.6,38.3,176.7,37.6L176.7,37.6z M162.7,46.2
				c0.7-0.3,0.7-0.9,0.6-1.4c-0.3-1.7-0.5-3.4-0.8-5.1c-0.1-0.7-0.3-1.3-0.3-2.1c-0.9,0.6-1.7,1.2-2.5,1.8c-0.2,0.1-0.2,0.4-0.1,0.7
				c0.6,2.3,1.3,4.6,2,6.9c0.1,0.3,0.2,0.5,0.3,0.9c0.1,0,0.1,0,0.2,0c0.1-0.3,0.4-0.6,0.3-0.9c-0.3-1.4-0.5-2.7-0.8-4
				c-0.2-0.8-0.3-1.6-0.4-2.4h0.1C161.7,42.4,162.3,44.3,162.7,46.2L162.7,46.2z M139,98.5c0,0.1-0.1,0.2-0.1,0.2
				c0.4,0.3,0.9,0.5,1.2,0.8c1.9,1.1,4,1.5,6.1,1.7c1.6,0.2,3.2,0.8,4.4,1.9c0.1,0.1,0.3,0.2,0.4,0.2c0-0.1,0.1-0.1,0.1-0.2
				c-1.7-2.1-4.1-2.5-6.6-2.7c2.3-0.3,4.4,0.3,6.4,1.4c-1.6-1.6-3.7-2-5.8-2.2c2.6-0.3,4.9,0.5,7,2.2c-0.3-0.8-0.9-1.2-1.5-1.6
				c-2-1.1-4.1-1.3-6.4-1.4c-1.2-0.1-2.5-0.2-3.7-0.3C139.9,98.7,139.5,98.6,139,98.5z M187.8,103.5c0.1-0.1,0.3-0.2,0.3-0.3
				c1.2-1.2,2.8-1.7,4.4-2c1.8-0.3,3.7-0.5,5.3-1.4c0.7-0.3,1.3-0.8,2-1.1c0-0.1-0.1-0.1-0.1-0.2c-0.2,0-0.3,0-0.4,0
				c-0.1,0-0.2,0-0.3,0.1c-1.6,0.4-3.3,0.5-5,0.5c-2.1,0-4.2,0.3-6,1.5c-0.4,0.3-1,0.6-1.2,1.5c2.1-1.9,4.5-2.5,7.1-2.3
				c-4,0.6-5.6,1.1-6.2,2.4c2.1-1.3,4.3-2,6.4-1.6c-1,0.2-2.3,0.3-3.5,0.7C189.3,101.6,187.8,102.7,187.8,103.5L187.8,103.5z
				 M134.1,71.5c0.3-0.8,0-1.6-0.8-2.3c0,0.7,0,1.4-0.2,2.1c-0.2,0.9,0,1.7,0.4,2.4c0.9,1.5,1.9,2.8,3.2,3.9
				c0.9,0.8,1.7,1.1,2.8,0.9c0.3-0.1,0.5-0.1,0.8-0.2c0-0.1,0-0.2,0.1-0.2c-0.1-0.1-0.3-0.2-0.3-0.3c-1.2-0.9-2.3-1.9-3.5-2.8
				c-0.1-0.1-0.3-0.2-0.3-0.2c-0.6,0.3-0.8-0.2-1.2-0.4c0.3,0,0.5,0.1,0.9,0.2c-1-1.2-2-2.3-2.3-4C133.7,71,133.9,71.1,134.1,71.5
				L134.1,71.5z M198.7,78.1c1.2,0.4,2.2,0.4,3.1-0.3c1.1-1,2.1-2.1,3-3.4c1.1-1.6,1.1-3.3,0.7-5.1c-0.6,0.7-0.9,1.7-0.6,2.1
				c0,0.1,0.2,0.1,0.3,0.1c-0.3,1.3-1.4,2.1-2.3,3.3c0.4-0.2,0.8-0.3,1.1-0.5c0,0.1,0.1,0.2,0.1,0.2C202,75,200.3,76.5,198.7,78.1
				L198.7,78.1z M141.4,83.6c0-0.1,0-0.1,0-0.2c-0.2-0.1-0.4-0.3-0.6-0.3c-1.6-0.6-3.3-1.4-4.6-2.6c-0.4-0.4-0.7-1-1.1-1.5
				c0.3,0,0.5,0,0.8,0c-0.3-0.9-0.4-1.2-1.2-1.6c0.1,0.5,0.1,0.9,0.2,1.5c0.2,1.3,0.7,2.4,1.5,3.3c0.3,0.3,0.5,0.5,1,0.2
				c0.1-0.1,0.4,0.1,0.7,0.1c0,0.1,0,0.1,0,0.2c-0.3,0-0.5,0-0.8,0.1c0,0.1,0,0.2,0,0.2c0,0.1,0.1,0.2,0.2,0.2c1.2,1,2.5,1.9,4,2.5
				c0.4,0.2,1,0.1,1.5-0.1c0.5-0.1,0.8-0.9,0.4-1c-0.5-0.3-1-0.4-1.5-0.5c-0.6-0.1-1.3,0-1.9,0c0-0.1,0-0.1,0-0.2
				C140.4,83.6,140.8,83.6,141.4,83.6z M138.4,70.9c-0.3-0.4-0.6-0.8-0.9-1.2c-1.3-1.5-2.5-2.9-3.2-4.8c-0.3-0.7-0.5-1.4-0.4-2.1
				c0.1,0,0.1,0,0.2,0c0.1,0.4,0.2,0.9,0.3,1.3c0.1-0.9,0.4-2-0.2-2.9c-0.2,0.4-0.3,0.9-0.4,1.2c-0.6,0.9-0.5,2-0.3,3
				c0.3,1.6,1.2,3.2,2.1,4.6c0.1,0.2,0.3,0.3,0.3,0.3C136.5,71,137.5,70.7,138.4,70.9z M192.9,61.6c0.4,1.9,1.5,4,2.7,5.3
				c0.7,0.9,1.5,1.4,2.7,1.4c0.3,0,0.5-0.2,0.3-0.5c-0.5-0.8-1.1-1.5-1.6-2.2c-0.3-0.4-0.7-0.9-1-1.3c-0.7-0.8-1.5-1.6-2.1-2.4
				C193.5,61.8,193.2,61.7,192.9,61.6z M193.6,66.7c-0.1,0.4-0.2,0.6-0.2,0.9c-0.2,1.4,0.3,2.7,0.7,4c0.3,0.9,0.6,1.7,1,2.4
				c0.4,0.7,1.1,1.1,2.1,0.9c-0.1-0.3-0.1-0.6-0.2-0.9c-0.3-1.6-1.3-3-2.1-4.5c-0.4-0.8-1.2-1.5-1.1-2.5
				C193.8,67,193.6,66.8,193.6,66.7z M200.9,82.4c0.6-0.2,1.2-0.2,1.5-0.4c0.4-0.3,0.7-0.8,0.9-1.2c0.3-0.4,0.5-0.9,0.3-1.4
				c-0.3,0.3-0.6,0.7-0.9,1c-1.1,1.3-2.6,1.9-4.1,2.4c-0.3,0.2-0.8,0.3-1.1,0.5c0,0.1,0,0.1,0.1,0.2c0.5,0,1,0,1.5,0
				c-0.3,0.1-0.7,0.2-1,0.3c-0.3,0-0.7,0.1-0.8-0.1c-0.3-0.3-0.5-0.2-0.8-0.1c-0.4,0.2-0.9,0.3-1.4,0.5c0.1,0.2,0.1,0.4,0.2,0.6
				c0.3,0.6,0.9,0.7,1.8,0.5c1.3-0.3,2.2-1.3,3.4-1.9c0.3-0.2,0.6-0.5,1-0.9C201.4,82.6,201.2,82.5,200.9,82.4z M146,61.7
				c-0.8,0.1-5.3,5.5-5.6,6.6c0.9,0.1,1.6-0.1,2.3-0.7c1.1-1,1.9-2.4,2.5-3.8C145.5,63.2,145.7,62.5,146,61.7z M137.3,62.3
				c-0.3-0.3-0.5-0.5-0.6-0.8c-0.2-0.3-0.2-0.7-0.3-1c-0.2-0.7-0.4-1.3-0.6-2l0.1-0.1c0.2,0.3,0.3,0.5,0.4,0.8
				c0.3-0.9-0.5-1.4-0.5-2.1c0.2-0.1,0.3-0.3,0.3-0.3c0.1-0.4,0.1-0.9,0.2-1.2c0.1,0,0.2,0,0.2,0c0,0.5,0,1,0,1.5
				c0.5-0.5,0.9-2.6,0.5-3.1c-1,0.4-2,2.6-1.8,3.8c0.2,1,0.4,2.1,0.5,3.2c0.1,1.6,1.3,2.1,2.7,2.7c-0.1-0.3-0.1-0.6-0.2-0.8
				c-0.4-1-0.9-2-1.4-2.9c-0.1-0.2-0.3-0.2-0.5-0.3c-0.1,0.1-0.1,0.1-0.2,0.2c0.3,0.4,0.6,0.8,0.8,1.2
				C137.2,61.3,137.2,61.7,137.3,62.3L137.3,62.3z M141.8,74.8c1.3,0,2.4-0.9,2.8-2.2c0.3-0.9,0.6-1.9,0.8-2.9
				c0.2-0.8,0.2-1.5,0.3-2.2c-0.1,0-0.1,0-0.2,0c-0.3,0.6-0.7,1.3-1.1,1.9c-0.6,1-1.2,2-1.8,3c-0.2,0.3-0.2,0.5-0.3,0.8
				c0.1,0,0.2,0.1,0.2,0.1c0.2-0.3,0.5-0.4,0.5-0.7c0-0.6,0.4-0.6,0.7-0.8c-0.1,0.2-0.3,0.3-0.3,0.4c0.2,0.4-0.2,0.5-0.4,0.7
				c-0.4,0.3-1.1,0.4-1.1,1.2C141.8,74.4,141.8,74.6,141.8,74.8z M200.6,70.9c1.6,0.1,2.7-0.4,3.4-1.7c0.9-1.7,1.9-3.4,1.6-5.4
				c0-0.3-0.2-0.6-0.2-0.9c-0.1,0-0.1,0-0.2,0c-0.3,1.1-0.6,2.2-0.9,3.4c0.3-0.3,0.5-0.6,0.8-0.9l0.1,0.1c-0.3,0.3-0.5,0.8-0.8,1.1
				c0-0.1-0.1-0.1-0.1-0.2c-0.2,0.1-0.3,0.2-0.5,0.3c-0.6,0.8-1.2,1.6-1.8,2.4C201.5,69.8,201.1,70.3,200.6,70.9L200.6,70.9z
				 M198.2,49L198.2,49c0.3,0.3,0.5,0.8,0.6,1.2c0.2,1.2,0.3,2.4,0,3.6c-0.2,0.7-0.1,1.5-0.2,2.1c0.9-0.4,1.5-1.2,1.4-1.9
				c-0.1-0.5-0.1-0.9-0.1-1.5c-0.1-0.9-0.2-1.8-0.3-2.7c0,0-0.1,0-0.2,0c-0.1,0.2-0.2,0.3-0.3,0.5c-0.1,0-0.1,0-0.2,0
				c0.3-0.7,0.3-1.3-0.2-1.8c-0.5-0.4-0.9-0.9-1.4-1.3c-0.1,0.6,0.1,1.2,0,1.6c-0.2,0.9,0.4,1.3,0.9,1.9c0.1,0,0.1,0,0.2-0.1
				C198.4,50.2,198.3,49.6,198.2,49L198.2,49z M140.4,56.1c0-0.3,0-0.5,0-0.8c-0.1-1.4-0.3-2.8-0.3-4.2c0-0.9,0.3-2,1.1-2.7
				c0.3-0.3,0.4-0.7,0.3-1.1c-0.3,0.2-0.5,0.3-0.7,0.5c-0.7,0.6-1.4,1.2-1.5,2.1c-0.2,1.3-0.3,2.7-0.3,4
				C138.9,54.9,139.5,55.8,140.4,56.1z M184,46.8c-0.1,0.1-0.1,0.1-0.2,0.2c0.1,0.1,0.1,0.3,0.3,0.3c1.5,1.1,3,2.1,4.8,2.5
				c1.3,0.3,2.1,0.2,2.5-0.7c-0.2-0.1-0.3-0.3-0.4-0.3c-0.6-0.2-1.2-0.3-1.8-0.4c-1.4-0.3-2.8-0.5-4-1.2
				C184.7,47.1,184.4,47,184,46.8z M195.9,103.4c0,0.1,0,0.1,0,0.2c-0.3,0-0.4-0.1-0.7-0.1c-1.2,0.3-2.5,0.6-3.7,0.9
				c-0.3,0.1-0.7,0.1-0.6,0.6c0.3-0.1,0.6,0,0.9-0.2c1.5-0.9,3.3-1,5-0.9c1.3,0.1,2.6,0.2,4,0.2c0.2,0,0.3-0.1,0.5-0.2
				c-1.7-0.3-3.3-0.5-4.8-0.8c-0.5-0.1-0.9-0.3-1.5-0.3c-1.7-0.1-3.2,0.4-4.6,1.3c-0.1,0.1-0.1,0.2-0.2,0.3c0,0.1,0.1,0.1,0.1,0.2
				C192,103.6,193.8,103,195.9,103.4L195.9,103.4z M138.2,103.9c0,0.1,0,0.1,0,0.2c0.2,0,0.3,0.1,0.4,0.1c0.9-0.1,1.8-0.2,2.7-0.3
				c2.1-0.1,4.3-0.2,6.2,1.1c0.2,0.1,0.3,0,0.6,0c-0.1-0.2-0.2-0.4-0.3-0.5c-1.4-0.8-2.8-1.1-4.4-1c-0.2,0-0.3,0-0.5,0
				c0.1-0.2,0.2-0.2,0.3-0.2c1.7-0.1,3.4,0.2,5,0.9c0.2,0.1,0.4,0.2,0.7,0.2c0.1-0.1,0.2-0.2,0.2-0.3c-0.2,0-0.3-0.1-0.4-0.1
				c-0.5-0.3-0.9-0.5-1.5-0.7c-1.3-0.5-2.6-0.7-3.9-0.3c-0.7,0.2-1.4,0.3-2.1,0.4C140.2,103.6,139.2,103.7,138.2,103.9L138.2,103.9z
				 M154.5,36.8c-0.1,0-0.2,0-0.3,0.1c-0.1,0.2-0.3,0.3-0.3,0.4c-0.4,0.6-0.9,1.1-0.9,2c0.1,0.7-0.2,1.3-0.3,2c0,0.2,0,0.3,0.1,0.6
				c0.2,0,0.3,0,0.5-0.1c0.9-0.5,1.1-1.5,1.8-2.3v-0.1C154.9,38.5,154.8,37.6,154.5,36.8z M192.3,73.4
				C192.3,73.4,192.3,73.4,192.3,73.4c-0.2,0.1-0.3,0.3-0.3,0.5c-0.1,1-0.2,2.1-0.1,3.2c0,0.5,0.3,1,0.5,1.5c0.3,0.5,0.8,1,1.1,1.5
				l-0.1,0.1c-0.2-0.1-0.3-0.2-0.4-0.3c0.2,0.8,0.3,1,1,1c0-0.8,0.2-1.5-0.8-2c-0.3-0.1-0.4-0.5-0.6-0.8c0.1-0.1,0.1-0.1,0.2-0.2
				c0.3,0.3,0.5,0.6,0.9,0.9c0.2-0.9-0.9-1-0.9-1.7c0.2,0.2,0.3,0.3,0.6,0.7C193,76.3,192.7,74.8,192.3,73.4z M196.7,83.1
				c0.1,0.1,0.1,0.1,0.2,0.2c0.4-0.5,0.9-0.9,1.3-1.5c0,0,0,0,0.1,0c-0.1,0.3-0.3,0.5-0.3,0.8c0.1,0,0.1,0.1,0.2,0.1
				c0.2-0.2,0.3-0.3,0.4-0.4c0.2-0.2,0.3-0.3,0.4-0.6c0.2-0.2,0.3-0.3,0.5-0.6c-0.2,0.4-0.3,0.8-0.3,1c0.1,0,0.2,0.1,0.3,0.1
				c0.3-0.7,0.7-1.3,1-2c0,0,0,0,0.1,0c-0.1,0.3-0.1,0.6-0.2,0.9h0.1c0.3-0.6,0.6-1.1,0.9-1.7c-0.9-0.7-5,2.4-5.6,4.3
				c0.3-0.2,0.5-0.4,0.7-0.6c0.2-0.3,0.3-0.5,0.6-0.8l0.1,0.1C196.9,82.7,196.8,82.8,196.7,83.1z M147,43.6c0.1,0,0.1,0.1,0.2,0.1
				c0,0.7,0,1.3,0.2,2c0.1,0.3,0.3,0.6,0.5,0.9c0.1,0.1,0.3,0.1,0.3,0.1c0.3-0.2,1.1-2,0.9-2.3c-0.4-0.7-0.6-1.4-0.5-2.1
				c0-0.1-0.1-0.3-0.1-0.3c-0.2-0.4-0.4-0.4-0.6-0.1C147.6,42.3,147.3,42.9,147,43.6z M154.9,47.1c0-0.1,0-0.2-0.1-0.3
				c-0.2,0.1-0.3,0.1-0.5,0.2c-0.6,0.3-1.1,0.6-1.6,0.8c-1.4,0.3-2.8,0.6-4.1,0.9c-0.3,0.1-0.6,0.3-1,0.3c0.7,0.9,0.9,0.9,2.4,0.7
				C151.9,49.5,153.4,48.5,154.9,47.1z M143.5,93.9c-0.8-0.3-1.3-0.2-1.7,0.1c-0.7,0.3-1.3,0.7-2,1c-0.8,0.4-1.5,0.8-2.2,1.2
				c-0.2,0.1-0.3,0.4-0.3,0.5c0.3,0.4,0.9,0.6,1.4,0.3c0.4-0.3,0.9-0.6,1.4-0.9C141.2,95.6,142.3,94.8,143.5,93.9z M195.4,93.9
				c0.2,0.2,0.3,0.3,0.4,0.3c1.4,0.9,2.7,1.8,4,2.8c0.5,0.3,1,0.3,1.5,0.1c0.1-0.1,0.3-0.2,0.3-0.3s-0.2-0.3-0.3-0.3
				c-1.4-0.8-2.8-1.6-4.3-2.4C196.7,93.8,196.2,93.6,195.4,93.9z M184.1,45.7c-0.9-0.5-1-0.5-1.4,0.4c0,0.1-0.1,0.2-0.2,0.3
				c-0.9,2.2-1.7,4.5-2.6,6.7c-0.1,0.2-0.1,0.4-0.2,0.6c0.1,0,0.2,0.1,0.2,0.1C181.3,51.1,182.7,48.5,184.1,45.7z M141.1,82.6
				c-0.3-0.4-0.4-0.8-0.7-1.2c0.6,0.6,0.9,1.5,2,1.9c-0.6-2.4-2.7-3.6-4.6-4c0.4,0.9,0.8,1.7,1.1,2.6c0.1,0,0.2-0.1,0.3-0.1
				c-0.1-0.4-0.3-0.8-0.4-1.3c1.2,1.8,1.2,1.8,1.5,1.7c-0.2-0.3-0.3-0.8-0.6-1.1C140.2,81.6,140.2,82.5,141.1,82.6z M190.6,41.2
				c-0.1,0.4-0.3,0.8-0.3,1.1c0,0.6-0.1,1.2-0.5,1.7c-0.1,0.2-0.1,0.5,0,0.8c0.3,0.6,0.5,1.3,1.3,1.5
				C192.1,45.4,191.9,42.8,190.6,41.2L190.6,41.2z M200.6,63.4c1.5-0.4,2.1-1,2.2-1.8c0.2-0.7,0.3-1.5,0.5-2.1c0.1-0.3,0-0.6,0-0.9
				c-0.3,0.3-0.5,0.7-0.8,0.8c-0.6,0.2-0.6,0.6-0.9,0.9c-0.3,0.4-0.5,0.9-0.7,1.3C200.9,62.1,200.5,62.7,200.6,63.4z M155.7,45.2
				c-1,0.4-1,0.5-0.5,1.3c0.1,0.2,0.2,0.3,0.3,0.4c0.9,1.9,1.8,3.8,2.7,5.7c0.2,0.4,0.4,0.9,0.6,1.3c0.1,0,0.2-0.1,0.3-0.1
				C158,50.9,157,48,155.7,45.2z M159.4,52.7c0.1,0,0.2,0,0.3-0.1c0-0.3,0-0.5-0.1-0.7c-0.2-0.6-0.4-1.2-0.6-1.8
				c-0.5-1.5-1-3.1-1.5-4.6c-0.1-0.2-0.3-0.4-0.4-0.5c-0.2-0.1-0.5,0.1-0.6,0.2c-0.1,0.2-0.1,0.5,0.1,0.8c0.4,1,0.9,2.1,1.4,3.1
				C158.3,50.3,158.9,51.5,159.4,52.7z M185.8,37.4c0,0.2,0,0.3,0,0.4c0.2,0.5,0.3,1,0.4,1.5c0.1,0.5,0,1,0.2,1.5
				c0.3,1.1,1.4,1.5,2.1,2.1c0.1,0,0.2,0,0.3-0.1c-0.2-0.9-1.1-1.1-1.6-1.9c0.5,0.3,0.9,0.6,1.2,0.9c0-1-0.9-1.2-1.5-2
				c0.4,0.3,0.8,0.4,1,0.6c0-0.1,0.1-0.1,0.1-0.2c-0.3-0.3-0.6-0.5-0.9-0.8c-0.3-0.3-0.5-0.6-0.7-0.9c0.1-0.1,0.2-0.2,0.3-0.3
				c0.3,0.4,0.6,0.8,1,1.3C187.8,39,186.6,37.6,185.8,37.4L185.8,37.4z M188,51.6c0.1,0.2,0.2,0.2,0.3,0.3c1.3,1.5,2.9,2.4,4.6,3.4
				c0.6,0.3,2,0.3,2.5-0.3c-1.2-0.5-2.3-1.1-3.4-1.6c-0.2-0.1-0.3,0-0.5,0c-0.3,0-0.5,0.1-0.6-0.3c0-0.2-0.2-0.3-0.3-0.4
				c-0.3-0.3-0.8-0.5-1.1-0.8C188.8,51.5,188.5,51.5,188,51.6z M179.2,52.7c0.1,0,0.2,0.1,0.3,0.1c1.1-2.5,2.1-4.9,3.3-7.4
				c-0.9-0.5-1-0.4-1.2,0.1c-0.6,1.8-1.3,3.7-1.9,5.5C179.5,51.5,179.4,52.1,179.2,52.7z M144.7,94.5c-0.3-0.3-0.6-0.4-0.9-0.2
				c-1.1,0.7-2.2,1.3-3.3,2c-0.6,0.3-1.2,0.8-1.8,1.2c0.7,0.5,1.3,0.6,1.9,0.2C142,96.7,143.3,95.6,144.7,94.5z M200.3,97.6
				c-0.2-0.2-0.3-0.3-0.3-0.3c-0.6-0.4-1.3-0.8-1.9-1.1c-1-0.6-2-1.2-3-1.8c-0.2-0.1-0.4,0-0.7,0c0.1,0.2,0.2,0.4,0.3,0.5
				c1.1,0.9,2.2,1.6,3.4,2.5C198.7,98,199.4,98.1,200.3,97.6z M160.2,51.1c0.1,0,0.2,0,0.3,0c0-0.3,0.1-0.4,0.1-0.7
				c-0.1-0.4-0.3-0.9-0.4-1.4c-0.4-1.5-0.9-2.9-1.3-4.4c-0.2-0.5-0.4-0.5-0.8-0.3c-0.5,0.3-0.2,0.8-0.1,1.1c0.4,1.3,0.9,2.5,1.5,3.8
				C159.8,49.9,160,50.5,160.2,51.1L160.2,51.1z M146.6,42.3c-0.1-0.1-0.2-0.1-0.3-0.2c-0.4,0.3-0.9,0.7-1.3,1
				c-0.6,0.6-0.7,1.4-0.5,2.4c-0.5-0.6-0.6-0.3-0.7,0c-0.1,0.4-0.2,0.8-0.3,1.1c-0.4,1.6-0.1,2.1,1,2.9c0-0.5,0-0.9,0-1.4
				c0-0.3-0.2-0.4-0.3-0.7c0,0.3-0.1,0.4-0.1,0.7H144c0-0.7,0-1.4,0-2c0,0,0,0,0.1,0c0.1,0.3,0.2,0.5,0.2,0.9
				C144.6,45.4,145.5,43.8,146.6,42.3L146.6,42.3z M159.2,40.1c-0.1,0-0.1,0-0.2,0c-0.9,0.3-1.7,0.3-2.6,0.2c-0.1,0-0.3,0.2-0.3,0.3
				c-0.1,0.5,0.9,1.8,1.3,1.7c0.6-0.2,1.1,0,1.7,0c0.4,0.1,0.6-0.3,0.5-0.6C159.4,41.1,159.2,40.6,159.2,40.1z M180.2,44.2
				c-0.1,0.2-0.2,0.3-0.3,0.4c-0.6,2-1.1,3.9-1.6,5.8c-0.1,0.2,0.1,0.4,0.1,0.6c0.1,0,0.2,0,0.3,0c0.9-2.1,1.6-4.1,2.5-6.3
				C180.8,44.7,180.6,44.5,180.2,44.2z M182.7,40.4c-0.6,0-1.2,0-1.8,0c-0.3,0-0.9-0.3-1.1-0.1c-0.3,0.3-0.3,0.8-0.3,1.2
				c0,0.3-0.1,0.6,0,0.7c0.3,0.1,0.6,0.2,0.8,0.1c0.3-0.1,0.4-0.3,0.6-0.5c-0.1,0.3-0.2,0.6,0.3,0.6
				C182.1,42.2,182.8,41.2,182.7,40.4z M142,48.1c0,1.5,0.4,2.5,1.5,3.2c0.1,0.1,0.4,0,0.5-0.1c0.3-0.3,0.1-1.4-0.3-1.6
				c-0.6-0.5-0.8-1.2-0.7-2c0-0.3,0.1-0.7,0.1-1c0-0.1-0.1-0.3-0.2-0.3c0,0-0.2,0-0.3,0.1C142.4,47.1,142.1,47.7,142,48.1z
				 M200.7,58.8c0,0.7,0.1,1.4,0.1,2.1c0.1,0,0.2,0,0.3,0c0.8-1-0.2-2.1,0-3.2c0.1,0,0.1,0,0.2,0c0.1,0.6,0.3,1.2,0.3,1.9
				c0.1,0,0.2,0,0.2,0c0.1-1-0.2-2.1-0.5-3.2c-1.2,1.1-1.5,3.6-0.9,6C201,61.1,200.3,60,200.7,58.8z M177.6,49.7c0.1,0,0.2,0,0.3,0
				c0.2-0.5,0.3-0.9,0.5-1.5c0.4-1.3,0.9-2.6,1.3-3.9c0.2-0.5-0.3-0.6-0.5-0.7c-0.1,0-0.4,0.2-0.5,0.3c-0.4,1.7-0.8,3.4-1.2,5.1
				C177.6,49.2,177.6,49.5,177.6,49.7z M143.1,59.5c0.1,0,0.1,0.1,0.2,0.1c0.5-0.3,0.5-1.1,0.9-1.5c0,0.3-0.1,0.6-0.1,0.9h0.1
				c0.2-0.3,0.4-0.6,0.7-0.9c0,0.3,0.1,0.4,0.1,0.6c0.1,0,0.1,0,0.2,0.1c0.3-0.4,0.5-0.9,0.8-1.5c0,0.3-0.1,0.4-0.1,0.6
				c0.6-0.4,1.1-0.9,1.6-1.2c0-0.1-0.1-0.1-0.1-0.2c-0.3,0.1-0.6,0.2-0.9,0.3c-0.9,0.3-1.9,0.5-2.8,0.8c-0.3,0.1-0.8,0.3-0.9,0.5
				c-0.3,0.6-0.3,1.3-0.5,2.1c0.8-0.5,0.7-1.5,1.3-2.1C143.4,58.6,143.3,59.1,143.1,59.5z M141.9,88.3c-0.2-0.3-0.3-0.5-0.4-0.6
				c-1-0.7-2.1-1.4-2.9-2.5c-0.1-0.1-0.3-0.2-0.4-0.3c0,0.2,0,0.3,0,0.3c0.4,0.9,0.7,1.7,1.2,2.5c0.3,0.5,0.9,0.9,1.5,1.3
				c0.1,0.1,0.3,0,0.4-0.1c-0.1-0.2-0.1-0.3-0.2-0.4c0-0.1-0.2-0.1-0.3-0.1c0-0.1,0.1-0.1,0.1-0.2C141.2,88.4,141.4,88.3,141.9,88.3
				z M198.2,53.5L198.2,53.5c-0.3-0.9-0.6-1.6-0.9-2.4c0.3,0.2,0.3,0.4,0.5,0.7c0.2,0.3,0.3,0.5,0.4,0.9c0.2-0.9-0.3-2-1-2.7
				c-0.9,1.1-0.2,5.2,0.9,5.8c0.5-1.3-0.5-2.3-0.8-3.5C197.7,52.7,197.9,53.2,198.2,53.5z M159.9,43.6c-0.9,0.3-0.9,0.5-0.7,1.3
				c0.3,0.9,0.6,1.7,0.9,2.6c0.3,0.8,0.5,1.5,0.8,2.3c0.5-0.3,0.4-0.8,0.3-1.2c-0.2-0.9-0.4-1.7-0.6-2.6
				C160.4,45.3,160.1,44.4,159.9,43.6L159.9,43.6z M155.9,74.8c0-0.1,0-0.1,0.1-0.2c0.1,0,0.2,0.1,0.3,0.1c0.4-0.1,0.9-0.1,1.4-0.3
				c0.3-0.2,0.4-0.5,0.4-0.9c-0.1-0.6-0.6-0.7-0.9-1c0,0-0.1,0-0.2,0c-0.4,0.3-0.9,0.3-1.4,0.7c-0.3,0.3-0.9,0.5-0.6,1.1
				C155,74.6,155.5,74.7,155.9,74.8z M188.3,50.3c-0.9-0.5-0.9-0.5-1.3,0.2c-1,1.6-2.1,3.4-3,5c-0.2,0.3-0.3,0.6-0.3,0.9
				c0,0,0.1,0,0.1,0.1C185.3,54.4,186.8,52.3,188.3,50.3L188.3,50.3z M162.1,36.3c0-0.1-0.1-0.1-0.1-0.2c-0.2,0-0.3,0.1-0.4,0.1
				c-0.6,0.1-1.3,0.3-1.9,0.3c-0.7,0-1.3,0.2-1.9,0.6c-0.6,0.5-1.3,0.9-1.5,1.9c0.7-0.3,0.8-0.9,1-1.2c0.4-0.1,0.7-0.2,0.9-0.3
				c0.3,0.3,0.8,0.3,1.2,0.1c0.6-0.2,1.2-0.3,1.8-0.6C161.6,36.9,161.8,36.6,162.1,36.3L162.1,36.3z M180.3,43.5
				c0,0.1,0,0.1-0.1,0.2c0.1,0.1,0.2,0.2,0.3,0.2c1.3,0.4,2.6,0.9,3.9,1.3c0.6,0.2,1.7-0.4,2-0.9c-0.5-0.3-2.8-0.4-3.3-0.2
				c-0.2,0.1-0.5,0.2-0.6,0C181.8,43.6,181.1,43.6,180.3,43.5L180.3,43.5z M158.6,43.7c0-0.1-0.1-0.2-0.1-0.2
				c-0.6,0.3-1.5-0.1-2,0.6c0,0-0.1,0-0.2,0c-0.3-0.1-0.7-0.2-1-0.3c-0.3,0-0.5,0-0.8,0c-0.7,0-1.4,0.1-2.1,0.1
				c0.5,0.9,1.5,1.4,2.3,1.1c1-0.3,2-0.6,2.9-0.9C158,44.1,158.3,43.9,158.6,43.7z M155.2,56.4C155.2,56.4,155.3,56.4,155.2,56.4
				c-0.1-0.4-0.3-0.8-0.4-1.1c-1-1.7-2.1-3.4-3.1-5.2c-0.2-0.3-0.5-0.3-0.8-0.1c-0.1,0.1-0.1,0.4,0,0.5c1,1.5,2.1,2.8,3.1,4.2
				C154.3,55.4,154.8,55.8,155.2,56.4z M157,55.2L157,55.2c0.1-0.1,0.1-0.3,0-0.3c-0.9-2-1.9-3.9-2.8-5.8c-0.1-0.3-0.3-0.4-0.7-0.2
				c-0.3,0.2-0.3,0.4-0.2,0.8c0.9,1.5,1.8,2.9,2.7,4.4C156.4,54.3,156.8,54.7,157,55.2L157,55.2z M181.9,54.7c0.1,0,0.2,0.1,0.3,0.1
				c0.7-1.1,1.4-2.2,2.1-3.3c0.4-0.7,0.9-1.4,1.2-2.1c0.1-0.2-0.1-0.5-0.2-0.8c-0.2,0.1-0.4,0.2-0.6,0.4c-0.7,1.3-1.4,2.6-2,4
				C182.4,53.5,182.1,54.1,181.9,54.7z M191.7,57.5c0.2,0.3,0.2,0.6,0.3,0.9c0.7,0.8,1.3,1.5,2.1,2.1c0.6,0.5,1.3,0.9,2,1.1
				c0.4,0.2,1,0.2,1.5-0.1c-0.3-0.5-0.6-0.5-1-0.3c-0.5,0.3-0.9,0-0.9-0.5c-0.2-0.1-0.3-0.2-0.6-0.3c0.3-0.1,0.4-0.2,0.6-0.3
				c-0.3-0.2-0.7-0.3-1-0.6c0,0.2,0.1,0.3,0.1,0.3l-0.1,0.1c-0.1-0.2-0.3-0.3-0.3-0.4c-0.1-0.1-0.1-0.3-0.1-0.3
				C193.4,58.7,192.6,58.1,191.7,57.5L191.7,57.5z M182.7,55.8c0.1,0,0.2,0.1,0.2,0.1c1.4-2.1,2.8-4.1,4.2-6.1
				c-0.6-0.3-0.9-0.3-1.2,0.1C184.9,51.8,183.7,53.8,182.7,55.8z M181.1,54.1c0.1,0,0.2,0,0.2,0.1c0.7-1.1,1.3-2.2,2-3.4
				c0.4-0.8,0.8-1.5,1.2-2.2c0.3-0.4-0.2-0.5-0.3-0.6c-0.1,0-0.4,0.2-0.5,0.3c-0.7,1.5-1.5,3.2-2.1,4.7
				C181.3,53.4,181.2,53.8,181.1,54.1z M202.4,59.1c0.3-0.3,0.5-0.5,0.7-0.8c0.2-0.3,0.3-0.6,0.4-0.9c0.1-0.3,0-0.5-0.1-0.8
				c-0.3-1.1-0.9-2-1.7-2.8c-0.1,0-0.2,0.1-0.3,0.1c0.2,1,0.4,2.1,0.6,3.2c0.1,0,0.2,0,0.3,0c0.1-0.3,0.2-0.8,0.3-1
				c0.2,0.4,0.3,0.9,0.5,1.4C202.3,57.7,202.6,58.5,202.4,59.1z M157.6,54.2c0.1,0,0.1-0.1,0.2-0.1c-0.1-0.2-0.1-0.4-0.2-0.6
				c-0.8-1.8-1.5-3.5-2.3-5.3c-0.1-0.3-0.2-0.6-0.6-0.4c-0.4,0.3-0.3,0.5-0.2,0.8c0.4,0.8,0.9,1.6,1.3,2.4
				C156.4,52.1,157,53.2,157.6,54.2z M147.2,57.5c-0.9,0.8-1.9,1.5-2.8,2.1c0.3,0.1,0.3,0.1,0.5,0.1c-0.3,0.1-0.5,0.1-0.8,0.2
				c-0.2,0-0.3,0.1-0.5,0.2c0.1,0.2,0.1,0.3,0.2,0.3c-0.3,0.2-0.4,0.4-0.7,0.6c-0.3,0.1-0.6,0.3-0.8,0.2c-0.5-0.2-0.8,0-1,0.3
				c0.5,0.3,1,0.2,1.5,0.1c0.9-0.1,1.4-0.7,2-1.2C145.7,59.5,146.7,58.8,147.2,57.5z M145.8,95.5c-0.3-0.4-0.7-0.3-0.9-0.1
				c-1.1,0.7-2.2,1.5-3.4,2.1c-0.2,0.1-0.3,0.3-0.5,0.5c0.9,0.4,1.5,0.2,2.1-0.4c0.1-0.1,0.3-0.2,0.3-0.3
				C144.4,96.8,145.1,96.2,145.8,95.5z M198,98.1c-0.2-0.1-0.3-0.3-0.5-0.3c-1.2-0.8-2.3-1.5-3.5-2.3c-0.2-0.2-0.5-0.2-0.7-0.2
				c-0.1,0.1-0.1,0.1-0.2,0.2c0.2,0.2,0.3,0.4,0.4,0.6c0.6,0.5,1.3,0.9,1.9,1.5C196.2,98.2,197,98.4,198,98.1z M197.1,88.3
				c0.1,0.1,0.1,0.1,0.2,0.2c0.3,0,0.6,0,0.9,0.1c-0.1,0.1-0.2,0.2-0.2,0.2c-0.1,0.2-0.3,0.3-0.3,0.4c0.2,0,0.4,0,0.5,0
				c1.4-0.7,1.8-2.1,2.4-3.3c0.1-0.1,0-0.3,0-0.4c0.1,0.1,0.1,0.2,0.2,0.2c-0.5,0.4-1,0.9-1.5,1.2c-0.5,0.3-1.1,0.7-1.7,1
				C197.3,87.9,197.2,88.1,197.1,88.3z M150.3,43c0.9-0.7,1.9-1.1,2.2-2.2c0.2-0.6,0.2-1.3-0.1-1.9c-0.6,0.5-1.1,1-1.7,1.5
				c0.5,0.2,0.8-0.5,1.3-0.5c-0.3,0.7-1.5,0.8-1.5,1.8c0.3-0.1,0.4-0.2,0.6-0.3C150.9,42.1,150.1,42.2,150.3,43z M167.9,102.7
				L167.9,102.7c-0.1,0.1-0.2,0.2-0.2,0.3c-0.1,0.9-0.3,2-0.3,2.9c-0.1,1.2-0.3,2.3-0.3,3.5c0,0.3,0,0.6,0.3,0.5
				c0.2,0,0.4-0.3,0.4-0.4c0.1-0.6,0.1-1.3,0.2-1.9c0-1.5,0-2.8,0-4.3C167.9,103.1,167.9,103,167.9,102.7L167.9,102.7z M195.4,58.2
				L195.4,58.2c0.4,0.7,0.9,1.5,1.2,2.1c0.1,0,0.1-0.1,0.2-0.1c-0.3-0.7-0.4-1.4-0.7-2c-0.1-0.3-0.3-0.5-0.6-0.6
				c-0.8-0.3-1.5-0.3-2.3-0.6c0,0.1-0.1,0.1-0.1,0.2c0.3,0.5,0.6,1,0.9,1.5c0.1,0,0.2-0.1,0.2-0.1c-0.1-0.3-0.1-0.5-0.2-0.9
				c0.3,0.5,0.6,0.9,0.8,1.4c0.1,0,0.2-0.1,0.2-0.1c-0.1-0.3-0.1-0.6-0.2-0.9c0.3,0.6,0.6,1.1,0.9,1.6c0.1,0,0.2-0.1,0.2-0.1
				C195.7,59.1,195.5,58.6,195.4,58.2L195.4,58.2z M193.8,47.2c0.1,0,0.1-0.1,0.2-0.1c0-0.8-0.7-1.2-1.1-2c0.3,0.3,0.6,0.5,0.8,0.8
				c0-1-0.9-1.5-1.4-2.2c-0.1,0.5-0.2,0.9-0.3,1.1c-0.2,0.5-0.2,1,0.2,1.5c0.5,0.7,1.1,1.3,1.6,2c0.1,0,0.1-0.1,0.2-0.1
				c-0.1-0.2-0.1-0.3-0.2-0.4c-0.4-0.6-0.9-1.2-1.3-1.9l0.1-0.1C193,46.3,193.4,46.8,193.8,47.2z M151.8,49.7
				c1.3,1.9,2.5,3.7,3.8,5.5c0.1-0.2,0.1-0.3,0-0.3c-0.9-1.6-1.8-3.4-2.7-5C152.6,49.3,152.5,49.3,151.8,49.7z M159.2,101.4
				c-0.1,0-0.1-0.1-0.2-0.1c-0.1,0-0.2,0.1-0.2,0.1c-0.9,1.7-1.7,3.4-2.6,5.2c-0.1,0.3-0.1,0.6,0.3,0.7c0.2,0,0.4-0.2,0.5-0.3
				c0.5-1.2,0.9-2.4,1.5-3.6C158.7,102.7,159,102,159.2,101.4z M173.3,102.9c-0.1,0-0.1,0-0.2,0c0,0.2,0,0.3,0,0.5
				c0.1,0.9,0.3,1.9,0.3,2.9c0.1,1,0.2,2.1,0.3,3.1c0,0.2,0.3,0.3,0.3,0.3c0.1-0.1,0.3-0.3,0.3-0.3c0.1-0.2,0-0.3,0-0.6
				c-0.2-0.9-0.3-1.9-0.6-2.8C173.8,104.9,173.6,103.9,173.3,102.9L173.3,102.9z M172.3,102.7c-0.1,0-0.1,0-0.2,0
				c0,0.1-0.1,0.2-0.1,0.3c0.1,1.3,0.2,2.6,0.3,3.9c0.1,0.9,0.1,1.6,0.2,2.5c0,0.2,0.3,0.5,0.4,0.5c0.3,0,0.3-0.3,0.3-0.7
				c-0.2-0.9-0.3-1.8-0.4-2.8C172.7,105.1,172.6,103.9,172.3,102.7z M170.1,102c-0.1,0-0.1,0-0.2,0c0,2.7,0,5.2,0,7.9
				c0.2,0,0.4,0,0.7,0C170.4,107.3,170.3,104.7,170.1,102L170.1,102z M168.9,102c-0.1,0-0.1,0-0.2,0c-0.2,2.7-0.3,5.2-0.4,7.9
				c0.3,0,0.5,0,0.8,0c0-0.4-0.1-0.9-0.1-1.3c0-2,0-4,0-6C169,102.4,169,102.2,168.9,102z M175.6,102.7c-0.1,0-0.1,0-0.2,0
				c0,0.2,0,0.3,0,0.4c0.3,1.8,0.8,3.7,1.1,5.5c0.1,0.3,0.1,0.7,0.5,0.6c0.4-0.1,0.3-0.4,0.3-0.8c-0.5-1.6-0.9-3.2-1.4-4.8
				C175.8,103.4,175.7,103,175.6,102.7L175.6,102.7z M166.6,102.5L166.6,102.5c-0.3,0.9-0.3,2-0.5,2.9c-0.2,1.2-0.4,2.3-0.6,3.5
				c-0.1,0.3-0.2,0.7,0.3,0.8c0.4,0,0.4-0.3,0.4-0.6c0.2-2,0.3-4,0.4-6C166.8,102.9,166.7,102.7,166.6,102.5z M174.5,102.7
				c-0.1,0-0.1,0-0.2,0.1c0.3,2.2,0.8,4.5,1.1,6.7c0.6,0.1,0.9,0,0.6-0.9c-0.4-1.7-0.9-3.4-1.3-5.2
				C174.7,103.2,174.6,103,174.5,102.7z M164.5,102.6c-0.1,0-0.1,0-0.2-0.1c-0.5,2.2-1,4.4-1.6,6.6c0.8,0.3,0.9-0.3,0.9-0.7
				c0.3-1.4,0.4-2.8,0.7-4.2C164.4,103.7,164.4,103.1,164.5,102.6z M156.4,39.7c1.3,0.5,4.1-0.7,4.7-2c-0.9,0.3-1.9,0.6-2.8,0.9
				c0.3,0.1,0.3,0.2,0.5,0.3c0,0.1,0,0.2,0.1,0.3C157.9,38.6,157.1,38.9,156.4,39.7z M163.5,102.8c-0.1,0-0.2,0-0.2,0
				c-0.1,0.3-0.2,0.6-0.3,0.9c-0.5,1.6-0.9,3.3-1.5,4.9c-0.1,0.4,0.1,0.6,0.3,0.6c0.1,0,0.3-0.3,0.3-0.4c0.3-1.3,0.5-2.7,0.9-4
				C163.3,104,163.4,103.4,163.5,102.8z M177,103.1c-0.1,0-0.1,0-0.2,0.1c0,0.2,0,0.3,0.1,0.4c0.3,1,0.5,2.1,0.8,3.2
				c0.2,0.5,0.3,1.1,0.4,1.6c0.1,0.3,0.3,0.5,0.5,0.3c0.2-0.1,0.3-0.4,0.2-0.6c-0.5-1.6-1-3.2-1.5-4.8
				C177.2,103.4,177,103.3,177,103.1L177,103.1z M171.1,103L171.1,103c-0.1,0.1-0.2,0.1-0.2,0.2c0,2.1,0.1,4.2,0.1,6.4
				c0,0.3,0.3,0.5,0.5,0.3c0.2-0.1,0.3-0.3,0.3-0.5c-0.2-1.6-0.3-3.3-0.6-5C171.3,104,171.2,103.6,171.1,103L171.1,103z
				 M165.8,102.9c-0.1,0-0.1,0-0.2,0c0,0.1-0.1,0.1-0.1,0.2c-0.3,1.5-0.6,3-0.9,4.6c-0.1,0.5-0.2,1.1-0.3,1.6c0,0.1,0.2,0.3,0.3,0.4
				c0.1-0.1,0.3-0.2,0.3-0.3c0.1-0.3,0.1-0.7,0.1-1.1c0.1-0.9,0.3-2,0.3-2.9C165.5,104.5,165.7,103.6,165.8,102.9z M145.1,48.2
				c1.5-1.2,2.1-2.9,1.5-4.2c-0.9,0.8-1.3,1.2-1.1,1.7c0.3-0.3,0.6-0.5,0.9-0.9c-0.5,0.9-1.4,1.5-1.5,2.4c0.1,0,0.1,0.1,0.2,0.1
				c0.4-0.5,0.9-1,1.3-1.5C146,46.6,145.3,47.3,145.1,48.2z M180.2,102.1c-0.1,0-0.1,0-0.2,0c0,0.2,0,0.3,0.1,0.4
				c0.2,0.5,0.4,1.1,0.6,1.6c0.3,1,0.8,2,1.1,3c0.1,0.3,0.3,0.4,0.7,0.3c0.3-0.2,0.3-0.3,0.1-0.6c-0.4-0.9-0.9-1.8-1.3-2.7
				C181,103.6,180.6,102.9,180.2,102.1L180.2,102.1z M181.2,101.2c-0.1,0-0.1,0.1-0.2,0.1c0.7,1.9,1.5,3.6,2.3,5.4
				c0.1,0,0.2,0,0.3-0.1c0-0.4,0.1-0.9-0.1-1.2c-0.7-1.4-1.4-2.7-2.1-4C181.4,101.4,181.3,101.3,181.2,101.2z M162,103.4
				c-0.1,0-0.2-0.1-0.2-0.1c-0.1,0.2-0.3,0.3-0.3,0.5c-0.5,1.5-0.9,2.8-1.5,4.3c0,0.1,0.1,0.4,0.2,0.4c0.2,0,0.4,0,0.6-0.1
				c0.1,0,0.1-0.3,0.2-0.3c0.3-0.9,0.4-1.9,0.7-2.8C161.7,104.6,161.9,104,162,103.4z M157.8,101.2c0,0-0.1,0-0.2,0
				c-0.1,0.1-0.2,0.2-0.3,0.3c-0.8,1.4-1.5,2.7-2.2,4c-0.1,0.1-0.1,0.3-0.1,0.3c0.1,0.2,0.2,0.4,0.3,0.6c0.2-0.2,0.3-0.3,0.4-0.4
				c0.7-1.5,1.3-2.9,1.9-4.4C157.8,101.7,157.8,101.4,157.8,101.2z M187.1,59.1c0.1,0,0.1,0.1,0.2,0.1c1.3-1.2,2.7-2.4,4-3.7
				c0.1-0.1,0.1-0.4,0-0.5c-0.2-0.2-0.3-0.3-0.6,0c-0.9,1-1.8,2-2.7,3C187.5,58.3,187.4,58.8,187.1,59.1z M147,96
				c-0.3-0.5-0.6-0.3-0.9-0.1c-0.5,0.3-0.9,0.7-1.4,1c-0.5,0.4-1,0.8-1.6,1.3c0.6,0.3,1.1,0.3,1.5-0.1C145.4,97.5,146.3,96.8,147,96
				L147,96z M186.2,58.7L186.2,58.7c0.2,0.1,0.2,0.1,0.3,0c1.2-1.2,2.4-2.5,3.6-3.8c0.1-0.1,0.1-0.3,0.2-0.5c-0.5-0.1-0.8,0.1-1,0.4
				c-0.7,0.9-1.5,1.8-2.2,2.8C186.7,57.8,186.4,58.3,186.2,58.7z M151.5,59.1c0.1,0,0.1,0,0.2-0.1c-0.2-0.3-0.3-0.5-0.4-0.7
				c-0.7-0.9-1.4-1.6-2.1-2.5c-0.3-0.3-0.6-0.6-0.9-0.9c-0.1-0.1-0.3,0-0.5,0c0,0.2,0,0.4,0.1,0.6c0.3,0.3,0.6,0.6,0.9,0.9
				C149.6,57.3,150.6,58.2,151.5,59.1L151.5,59.1z M154.2,57c-0.1-0.3-0.1-0.3-0.2-0.4c-0.8-1.2-1.5-2.4-2.3-3.6
				c-0.2-0.3-0.4-0.6-0.9-0.3C150.6,53.1,152.7,55.8,154.2,57z M184.9,57c1-1.3,2.1-2.5,3-3.7c0.3-0.3,0.3-0.7-0.1-1
				C187.2,52.8,184.9,56.4,184.9,57z M195.7,98.2c-0.5-0.4-1-0.9-1.5-1.2c-0.5-0.3-1-0.8-1.5-1.1c-0.2-0.1-0.4,0-0.6,0
				c0.1,0.2,0.1,0.4,0.3,0.5c0.3,0.3,0.8,0.7,1.2,1C194.1,97.9,194.7,98.6,195.7,98.2z M200.4,75.9c1-0.6,0.7-1.9,1.4-2.7
				c-0.2,0.6-0.3,1.3-0.4,1.9c0.1,0,0.1,0,0.2,0.1c0.5-0.9,0.8-1.8,0.9-2.8C201.5,72.4,200.3,74.4,200.4,75.9z M182.7,71
				c0.5,0.7,0.9,0.8,1.7,0.5c1.3-0.4,1.1-0.5,0.4-1.5c-0.1-0.1-0.3-0.2-0.3-0.1C183.9,70.2,183.3,70.6,182.7,71z M144.9,77.8
				c0.1-0.1,0.2-0.1,0.2-0.2c0.2-0.9-0.3-1.5-0.7-2.3c0,0-0.3,0-0.3,0.1c-0.7,0.5-0.7,1.1-0.2,1.8c0.2,0.3,0.3,0.5,0.5,0.9
				c0.2,0.3,0.3,0.6,0.3,0.9c0.1,0,0.1,0,0.2-0.1c-0.1-0.9-0.5-1.9-0.9-2.8c0.1,0,0.1-0.1,0.2-0.1C144.4,76.6,144.6,77.1,144.9,77.8
				z M149.6,43.7c0.3-1.5,0.7-3,1.1-4.6c-0.2,0.2-0.3,0.3-0.4,0.3c-0.3,0.6-0.7,1.2-0.9,1.8C149,42.1,148.7,42.9,149.6,43.7z
				 M141.8,50.9c-0.4,0.9-0.9,1.8-1.2,2.7c0.1,0,0.2,0.1,0.3,0.1c0.2-0.3,0.3-0.7,0.6-1c-0.1,0.5-0.3,0.9-0.4,1.4
				c-0.2,0.4-0.4,0.9-0.1,1.4C141.7,54.6,142.3,51.7,141.8,50.9z M137.2,59.3c0.1,0,0.2,0.1,0.3,0.1c0.1-0.5,0.3-1.1,0.3-1.6
				c0.1,0.6-0.1,1.1-0.1,1.7c0,1.2,0,1.2,0.3,1.5c0-0.1,0.1-0.1,0.1-0.2c0-0.6,0-1.2,0.2-1.9c0.3-0.8,0.1-1.6-0.7-2.4
				C137.5,57.6,137.3,58.4,137.2,59.3z M148.8,54.4c0,0.5,3.3,4,3.8,4c0-0.1,0-0.1-0.1-0.2c-0.9-1.2-2-2.4-2.8-3.6
				C149.4,54.4,149.1,54.3,148.8,54.4z M143.1,101.6c-0.7-0.6-2.6,0.2-3.2,1.5C141.1,102.5,142.5,102.9,143.1,101.6z M178.4,104.3
				c-0.1,0-0.1,0-0.2,0.1c0,0.2,0,0.3,0.1,0.4c0.3,1.1,0.7,2.2,1,3.4c0.1,0.3,0.1,0.5,0.5,0.3c0.3-0.1,0.3-0.3,0.3-0.7
				c-0.4-1-0.9-2-1.3-3C178.7,104.7,178.5,104.5,178.4,104.3z M195.8,101.6c0.2,0.2,0.3,0.3,0.4,0.5c0.7,0.7,1.6,0.6,2.5,0.9
				c0.1,0,0.2-0.1,0.2-0.2c0-0.1-0.1-0.2-0.2-0.3c-0.4-0.3-0.9-0.7-1.3-1C196.8,101.1,196.4,101.1,195.8,101.6z M153,57.4
				c0.1-0.1,0.2-0.1,0.2-0.2c-0.9-1.4-2-2.8-2.9-4.1c-0.4,0.4-0.3,0.8-0.1,1C151.1,55.2,152,56.3,153,57.4z M185.6,57.2
				c0.1,0.1,0.1,0.1,0.2,0.2c0.3-0.3,0.5-0.5,0.7-0.8c0.8-0.9,1.6-1.7,2.3-2.7c0.1-0.1,0-0.4,0-0.6c-0.2,0.1-0.4,0.1-0.5,0.3
				c-0.4,0.5-0.9,1-1.2,1.6C186.6,55.8,186.1,56.5,185.6,57.2z M158.9,104.1c-0.3,0.8-0.7,1.5-1,2.1c-0.2,0.3-0.3,0.7-0.4,1
				c0,0.2,0.2,0.4,0.3,0.6c0.2-0.1,0.4-0.2,0.4-0.3c0.2-0.5,0.3-1,0.5-1.5C158.9,105.4,159.2,104.9,158.9,104.1z M154.7,104.9
				c0.1,0,0.3,0.1,0.3,0.1c0.7-1.5,1.5-3,2.1-4.5c-0.2,0-0.3,0-0.3,0c-0.7,1.1-1.5,2.2-2.1,3.4C154.6,104.2,154.7,104.6,154.7,104.9
				z M201.5,80.9c0.1,0,0.1,0.1,0.2,0.1c0.8-0.6,1-1.5,1.1-2.3c-1.7,0.2-1.8,1.5-2.1,2.8c0.1,0,0.2,0.1,0.2,0.1
				c0.3-0.8,0.7-1.5,1.1-2.2c0,0,0.1,0,0.2,0.1C201.9,79.8,201.7,80.4,201.5,80.9z M180.1,104.5c0,0.3,0,0.3-0.1,0.4
				c-0.1,0.9,0.3,1.8,0.7,2.7c0.1,0.3,0.3,0.5,0.6,0.3c0.3-0.1,0.3-0.4,0.2-0.7c-0.3-0.8-0.7-1.5-1-2.4
				C180.4,104.9,180.3,104.8,180.1,104.5z M178.2,67.5c1.2,0.7,1.4,0.6,2.3-0.4C179.7,66.2,179.4,66.2,178.2,67.5z M138.3,64.4
				c-1-0.8-2.1-1.5-3.1-2.3C135.5,63.5,136.9,64.5,138.3,64.4z M135,71.2c-0.2,0.6,0.4,2.1,0.9,2.5c-0.1-0.5-0.2-1-0.2-1.5l0,0
				c0.3,0.8,0.5,1.5,0.8,2.3c0.1,0,0.2,0,0.2-0.1c0-0.1,0-0.2,0-0.2c-0.2-0.5-0.3-1-0.4-1.5c-0.1-0.3-0.2-0.8-0.3-0.9
				c-0.3-0.1-0.4-0.3-0.7-0.5C135.2,71.3,135.1,71.3,135,71.2L135,71.2z M159.4,94.5c0.7,0.9,3.8,1.6,4.4,1.1
				C162.3,95,160.9,95,159.4,94.5z M202.5,74.4c0.3-0.8,0.5-1.5,0.8-2.3h0.1c-0.1,0.5-0.2,0.9-0.3,1.5c0.5-0.3,0.9-1.5,0.9-2.5
				C202.9,71.7,202.2,73,202.5,74.4L202.5,74.4z M200.6,64.3c0,0.1,0.1,0.2,0.1,0.2c1.5-0.2,2.5-0.9,3.2-2.5
				C202.7,62.8,201.6,63.6,200.6,64.3z M185.8,46.4c0.4,0,0.7,0,1,0c0.5-0.1,0.8-0.4,0.9-0.9c0.1-0.5-0.3-0.4-0.6-0.6
				c-0.3-0.2-0.5-0.1-0.7,0.2C186.3,45.5,186.1,45.9,185.8,46.4z M148.5,96.3L148.5,96.3c-0.3,0-0.5,0.1-0.7,0.3
				c-0.6,0.4-1.2,0.9-1.8,1.4c-0.2,0.2-0.3,0.3-0.4,0.5c0.3,0,0.6,0,0.9,0c0.1,0,0.3-0.2,0.3-0.3c0.5-0.5,0.9-0.9,1.5-1.5
				C148.3,96.6,148.4,96.4,148.5,96.3z M179.6,69.1c0,1.2,0.1,2.3,0,3.4c-0.2,1.1-0.6,2.2-0.9,3.4C180,74.8,180.5,69.8,179.6,69.1z
				 M200.5,56.4c-0.1-0.1-0.1-0.1-0.2-0.2c-0.5,0.3-1.1,0.7-1.5,1.1c-0.2,0.2,0.1,0.7,0.1,1c0.3,0,0.6,0,0.6-0.2
				C199.9,57.8,200.2,57.1,200.5,56.4z M152.1,44.7c-0.3,0.2-0.6,0.3-0.9,0.3c-0.1,0.1-0.3,0.3-0.2,0.4c0.3,0.9,0.9,1.1,1.8,0.8
				C152.6,45.8,152.4,45.3,152.1,44.7L152.1,44.7z M203.5,63.7c-0.5,0.3-0.8,0.7-0.8,1.2c0.1,0.6,0,1.2,0,1.9c0,0.2,0,0.3,0.1,0.6
				c0.4-0.5,0.7-0.9,0.6-1.5c-0.1-0.4,0-0.9,0-1.4C203.4,64.3,203.5,64,203.5,63.7z M138.5,56.4c0.3,0.9,0.4,1.9,1.5,2.3
				C140.6,58,140.2,57.4,138.5,56.4z M142,72.3c0.1-0.2,0.1-0.3,0.1-0.3c-0.1-0.5-0.3-1,0.2-1.5c0.1-0.1-0.1-0.4-0.1-0.7
				c-0.2,0.1-0.4,0.1-0.4,0.2c-0.4,1-1.1,2-0.2,3.2c0-0.5-0.1-1-0.1-1.5h0.1C141.7,71.7,141.8,71.9,142,72.3z M182,68.1
				c-0.3,0.2-0.6,0.4-0.9,0.7c-0.1,0.1-0.3,0.3-0.2,0.5c0,0.1,0.3,0.3,0.4,0.3c0.6-0.1,1.1-0.3,1.5-0.4
				C182.5,68.7,182.3,68.4,182,68.1z M197,69.7c-0.1,0-0.2,0.1-0.3,0.1c-0.1,0.4-0.1,0.9-0.2,1.5c0.3-0.3,0.3-0.4,0.5-0.6
				c0,0.6-0.1,1.1-0.1,1.6c0.1,0,0.1,0,0.2,0c0.1-0.1,0.2-0.3,0.3-0.4c0,0.5,0,0.9,0,1.3c0.3-0.6,0.6-1.1,0.3-1.8
				C197.4,70.9,197.2,70.3,197,69.7z M181.9,100.8c0.6,1.2,1.2,2.5,1.8,3.8C184.1,103.8,183.1,101.7,181.9,100.8z M135.7,63.9
				c-0.3,0.8-0.2,2.7,0.3,3.1c0.1-0.6,0.2-1.2,0.2-1.8C136.3,64.8,136.4,64.2,135.7,63.9z M146.9,50.2c0,0.5,0.8,1.2,1.2,1.2
				c0.2,0,0.5-0.1,0.5-0.2c0.1-0.2,0-0.4-0.1-0.6c-0.3-0.3-0.8-0.5-1.2-0.7C147.2,49.9,147,50.2,146.9,50.2z M202.3,65
				c-0.5,0.3-0.5,2.4-0.1,3.2C202.7,67.9,202.7,65.5,202.3,65z M190.2,51.3c0.3,0,0.8,0.2,0.9,0.1c0.3-0.3,0.6-0.8,0.9-1.1
				c-0.2-0.1-0.4-0.3-0.5-0.3C190.9,50.2,190.3,50.3,190.2,51.3z M160.4,105.3C160.4,105.3,160.3,105.3,160.4,105.3
				c-0.5,0.8-1,1.6-1.5,2.5c-0.1,0.1,0.2,0.4,0.3,0.4c0.2,0,0.4-0.1,0.5-0.2C159.9,107.2,160.1,106.2,160.4,105.3z M190.5,96.3
				c0.3,0.8,1,1.3,1.6,1.8c0.2,0.2,0.6,0.2,0.9,0.3c0-0.1,0.1-0.2,0.1-0.2C192.3,97.4,191.5,96.8,190.5,96.3z M178.9,95
				c-0.6-0.2-3.2,0.3-3.7,0.8C176.6,96,177.8,95.7,178.9,95z M188.3,59.7c1-0.3,2.6-1.9,2.5-2.6C189.7,57.8,189.1,58.9,188.3,59.7z
				 M147.8,57.6c0.9,0.9,1.9,1.6,2.8,2.5c0.1-0.1,0.1-0.1,0.2-0.2c-0.7-0.8-1.5-1.6-2.1-2.4C148.3,57.1,148.2,57.1,147.8,57.6z
				 M136.5,64.9c-0.1,0.2-0.2,0.2-0.2,0.3c0,0.8-0.1,1.5-0.1,2.2c0,0.3,0,0.8,0.6,0.9c0-1,0-1.9,0-2.8
				C136.9,65.2,136.7,65,136.5,64.9z M149.5,96.6c-0.3,0.2-0.5,0.2-0.7,0.3c-0.4,0.3-0.9,0.7-1.2,1.1c-0.2,0.2-0.2,0.3-0.3,0.5
				c0.3,0,0.5,0.1,0.7-0.1c0.5-0.5,1-1.1,1.5-1.6C149.5,96.9,149.5,96.8,149.5,96.6L149.5,96.6z M150.2,61c-0.9-0.9-1.6-1.8-2.5-2.7
				c-0.3-0.3-0.4,0-0.5,0.3C148.2,59.4,149.2,60.1,150.2,61z M189.9,61.3c0.1,0.1,0.1,0.2,0.2,0.3c0.8-0.6,1.5-1.1,2.2-1.7
				c0.1-0.1,0.2-0.3,0.3-0.4c-0.2,0-0.4-0.1-0.5,0C191.2,60,190.5,60.7,189.9,61.3z M135.3,65.7c0-0.5-0.1-1,0.1-1.4
				c0.3-0.7,0-1-0.5-1.3C134.5,63.8,134.6,65,135.3,65.7z M191.7,58.5c0-0.1-0.1-0.2-0.1-0.3c-0.3,0-0.5-0.1-0.6,0.1
				c-0.8,0.8-1.5,1.5-2.3,2.3l0.1,0.1C189.8,60.1,190.8,59.3,191.7,58.5L191.7,58.5z M201.7,65.8c-0.7,1.1-0.3,2.2-0.3,3.3
				C202.1,68.1,201.8,67,201.7,65.8z M188.7,39.8C188.7,39.8,188.6,39.8,188.7,39.8c0.2,1.4,0.4,2.7,0.7,4c0.1-0.1,0.2-0.1,0.2-0.1
				c0-0.7-0.1-1.3,0-2C189.6,41.1,189,40.4,188.7,39.8z M190.5,62.2L190.5,62.2c0.9-0.4,1.8-1,2.7-1.5c0.1-0.1,0.1-0.3,0.2-0.4
				c-0.1,0-0.1-0.1-0.2-0.1C192,60.5,191.2,61.4,190.5,62.2L190.5,62.2z M145.7,53.5c0.1,0.1,0.2,0.1,0.3,0.2
				c0.3-0.3,0.5-0.6,0.7-0.9c0.3-0.4,0.4-0.7,0.9-0.4c-0.1,0.3-0.2,0.4-0.2,0.6c0.1,0,0.1,0.1,0.2,0.1c0.3-0.3,0.5-0.6,0.7-0.9
				c0-0.1,0-0.1-0.1-0.2c-0.4,0-0.9,0-1.3,0c-0.1,0-0.3,0.1-0.3,0.2C146.2,52.5,145.9,53,145.7,53.5z M204.2,62.9
				c-0.7,0.6-0.9,1.7-0.4,2.9C204.6,64.9,204.1,63.9,204.2,62.9z M189.4,96.6c-0.1,0.1-0.2,0.2-0.2,0.2c0.4,0.5,0.9,1.1,1.4,1.5
				c0.2,0.2,0.6,0.4,0.9-0.1C190.8,97.7,190.1,97.1,189.4,96.6z M148.5,62.2c-0.6-0.5-1.2-1.1-1.9-1.6c-0.3-0.3-0.6-0.6-1.2-0.3
				C146.4,61.2,147.4,61.7,148.5,62.2z M148.9,61.5c0-0.1,0.1-0.1,0.1-0.2c-0.7-0.7-1.5-1.4-2.1-2c-0.1-0.1-0.3,0-0.4,0
				c0,0.2,0,0.3,0.1,0.4C147.3,60.3,148.2,60.9,148.9,61.5L148.9,61.5z M146.1,102.6c1,0.7,2.4,0.5,3.3,1.4c0,0,0.1-0.1,0.2-0.2
				C148,102.7,147.1,102.4,146.1,102.6z M149,98.7c0.3,0.4,0.6,0.3,0.8,0.1c0.5-0.5,0.9-1,1.4-1.5c0.1-0.1,0.1-0.3,0.2-0.4
				c-0.1,0-0.1-0.1-0.2-0.1C150.4,97.4,149.7,98.1,149,98.7z M144.8,107.4c0.1,0.1,0.1,0.1,0.2,0.2c0.7-0.5,1.3-1,2-1.5
				c0.1-0.1,0-0.4-0.1-0.4c-0.2-0.1-0.4-0.1-0.5,0C145.8,106.2,145.3,106.8,144.8,107.4L144.8,107.4z M153.2,37.6
				c-0.1-0.1-0.1-0.1-0.2-0.2c-0.8,0.2-2,1.5-1.8,2.4C151.9,39.1,152.5,38.3,153.2,37.6z M187.9,46.2c0.5,0.1,0.9,0.2,1.4,0.2
				c0.1,0,0.2-0.3,0.2-0.4c-0.1-0.5-0.4-0.7-0.9-0.8C188.3,45.5,188.1,45.8,187.9,46.2z M185.3,46.6c0.3-0.3,0.5-0.6,0.8-0.9
				c0.1-0.2,0.1-0.3,0.2-0.5c-0.2,0-0.3,0.1-0.5,0.1c-0.3,0.1-0.5,0.1-0.7,0.2c-0.2,0.2-0.3,0.3-0.4,0.6
				C184.8,46.2,185,46.4,185.3,46.6z M204.6,61.1c-0.4,1.1-0.3,1.4,0.1,2.8c0.1-0.5,0.2-0.9,0.3-1.3C205.2,62.1,205,61.7,204.6,61.1
				z M155.7,100.4c-0.1,0-0.1-0.1-0.2-0.1c-0.5,0.7-0.9,1.4-1.5,2.1c-0.1,0.2-0.1,0.3-0.1,0.6l0.3,0.1
				C154.9,102.2,155.3,101.2,155.7,100.4L155.7,100.4z M189.4,103.7c0,0.1,0,0.2,0.1,0.3c1.1-0.4,2.2-0.9,3.4-1.3
				C191.4,102.4,190.5,103.1,189.4,103.7z M142.6,80.5c0,0.7,1.3,2.5,1.9,2.7C143.9,82.2,143.3,81.4,142.6,80.5z M152.9,45.2
				c0,0.1-0.1,0.1-0.1,0.2c0.2,0.4,0.3,1,0.9,1.1c0.2,0,0.4-0.1,0.6-0.3c0.1-0.1,0-0.4-0.2-0.5C153.7,45.4,153.3,45.4,152.9,45.2z
				 M137.5,69.1c0.1,0,0.2,0,0.2-0.1c-0.1-0.9-0.1-1.8-0.2-2.7c-0.1,0-0.1,0-0.2,0C137,67.2,137.1,68.7,137.5,69.1z M150.3,45.1
				c-0.3,0.3-0.6,0.7-0.9,1c0,0.1,0.2,0.4,0.3,0.3c0.4-0.1,0.8-0.2,1.3-0.3C150.7,45.7,150.6,45.4,150.3,45.1z M187.7,96.7
				c0.1,0.7,1.3,2.1,1.7,2.1c0.1,0,0.3,0,0.3-0.1c0-0.1,0-0.3-0.1-0.3C189,97.9,188.4,97.4,187.7,96.7z M150.2,103.6
				c-0.4-0.9-2.1-1.8-3-1.7C148.2,102.4,149.2,103,150.2,103.6z M137.1,64.7c0.3,0.3,0.4,0.8,0.7,1c0.1,0.2,0.4,0.2,0.6,0.3
				c0-0.2,0.2-0.4,0.1-0.6C138.3,64.7,137.7,64.7,137.1,64.7z M192.1,51.3c0.5,0.3,0.9,0.4,1.4,0c0.3-0.3,0.3-0.5-0.1-0.6
				C192.7,50.4,192.6,50.4,192.1,51.3z M152.5,97.2c-0.5,0-2.1,1.6-2.1,2.1C151.4,98.9,151.8,98,152.5,97.2z M155.2,99.2
				c-0.1,0-0.1-0.1-0.2-0.1c-0.5,0.7-1.1,1.4-1.6,2.1c-0.1,0.1,0,0.3,0,0.5c0.2,0,0.3,0,0.4-0.1C154.3,100.8,154.8,100,155.2,99.2z
				 M174.3,78.5L174.3,78.5c-0.3,0-0.5,0-0.8,0c0,0.1,0,0.3,0.1,0.3c0.3,0,0.5,0,0.7-0.1c0.1,0,0.2-0.1,0.3-0.1
				c0.4,0.3,0.7-0.1,1-0.3C175.2,77.9,174.7,78,174.3,78.5z M138,71.7c-1.1-0.4-2.1-0.9-3.3-1.3C135.3,71.2,137.2,72,138,71.7z
				 M138.4,61.9c0.1,0,0.2,0,0.3,0c0-1,0.1-2.1,0.1-3.2c-0.1,0-0.2,0-0.3,0C138.6,59.8,138.1,60.8,138.4,61.9z M151.7,100
				c0.1,0,0.1,0.1,0.2,0.1c0.6-0.9,1.3-1.7,1.9-2.5c-0.1,0-0.1-0.1-0.2-0.1c-0.7,0.8-1.3,1.5-2,2.2C151.6,99.7,151.7,99.9,151.7,100
				z M193.9,107.3c-0.5-0.7-0.8-1.6-1.9-1.6C192.4,106.4,193.1,107,193.9,107.3z M188.5,103.7c0.9-0.6,1.9-1.2,2.9-1.8
				C190.4,101.9,188.6,103,188.5,103.7z M146.8,51.4c-0.2-0.3-0.2-0.5-0.3-0.5c-0.3-0.1-0.5-0.1-0.8-0.1c-0.2,0-0.3,0.3-0.3,0.4
				c0.3,0.1,0.4,0.3,0.7,0.3C146.3,51.5,146.5,51.5,146.8,51.4L146.8,51.4z M145.2,76.7c0.1,0,0.2-0.1,0.3-0.1
				c-0.2-0.7-0.4-1.4-0.6-2.1c-0.1,0-0.2,0-0.3,0c-0.1,0.2-0.3,0.4-0.3,0.5C144.6,75.5,145,76,145.2,76.7z M194.7,79.4
				c0.8-0.7,1.1-1.6,0.9-2.1C194.9,77.8,194.6,78.5,194.7,79.4z M192.9,53c-0.1-1-0.9-1.5-1.9-0.9c0.2,0.3,0.3,0.6,0.5,0.9
				c0.1,0,0.1,0,0.2-0.1c0-0.3-0.1-0.5-0.1-0.8l0.1-0.1C192.1,52.4,192.4,52.7,192.9,53z M188.5,99.3c0-0.1,0-0.2,0.1-0.3
				c-0.6-0.7-1.3-1.3-1.9-2c-0.1,0.1-0.1,0.1-0.2,0.2c0.5,0.7,1,1.3,1.6,1.9C188.1,99.3,188.3,99.3,188.5,99.3z M142.7,51.5
				c-0.1,0.3-0.2,0.7-0.2,1c0,0.2,0.1,0.4,0.2,0.5c0.2,0,0.4-0.1,0.5-0.2C143.7,52.4,143.4,51.9,142.7,51.5z M183.1,40.9
				c-0.1,0-0.2,0-0.3,0.1c0,0.3,0,0.8,0.1,0.8c0.4,0.2,1,0.3,1.5,0.4c0-0.1,0.1-0.1,0.1-0.2C184.1,41.6,183.7,41.2,183.1,40.9z
				 M196.6,56.8c-0.5-0.8-0.9-0.8-1.5,0C195.5,57.3,195.7,57.3,196.6,56.8z M196.2,57.5c0.3,0.3,0.6,0.5,0.9,0.6
				c0.2,0,0.5-0.3,0.5-0.6c0-0.2-0.3-0.5-0.5-0.5C196.7,56.9,196.6,57.2,196.2,57.5z M197.2,80.1c-0.1-0.1-0.2-0.1-0.2-0.2
				c-0.5,0.8-1,1.6-1.5,2.4c0.1,0,0.1,0.1,0.2,0.1C196.5,81.9,196.7,80.9,197.2,80.1z M154.3,41.9c0,0.1,0.1,0.1,0.1,0.2
				c0.3-0.1,0.7-0.2,1-0.3c0.8-0.2,0.8-0.2,0.4-0.9C155.3,41.2,154.8,41.6,154.3,41.9z M198,62.6c-0.3-0.6-0.9-0.5-1.5,0.2
				C196.8,63.2,197.5,63.1,198,62.6z M144,56.9c-0.3-0.3-0.5-0.4-0.7-0.6c-0.3-0.3-0.6,0-0.7,0.3c-0.1,0.1,0,0.4,0.2,0.5
				C143.3,57.4,143.5,57,144,56.9z M155.5,67.6c0.7-0.1,1-0.7,1.5-1c0.2-0.2,0.1-0.4,0.1-0.7c-0.1,0-0.1-0.1-0.2-0.1
				c-0.2,0.2-0.4,0.4-0.6,0.6c0.4,0.3,0,0.3-0.2,0.5C155.9,67.2,155.6,67.4,155.5,67.6z M193.6,76.7c0.8-0.9,1-1.6,0.6-2.1
				C193.9,75.2,193.5,75.8,193.6,76.7z M142.4,63c0-0.1,0.1-0.3,0.1-0.3c-0.3-0.2-0.8-0.3-1.1-0.4c-0.1,0-0.3,0.1-0.4,0.3
				c0,0.1,0.1,0.3,0.3,0.4C141.5,62.9,142,62.9,142.4,63z M142.7,57.4c-0.3-0.2-0.5-0.3-0.8-0.6c-0.3,0.3-0.8,0.6-0.3,0.9
				C142,58.2,142.4,57.9,142.7,57.4z M200.8,71.7c0.9,0.3,2.5-0.3,2.8-0.9C202.7,71.1,201.7,71.3,200.8,71.7z M185.4,101.4
				c-0.6-0.8-1.1-1.5-1.7-2.3C183.8,100.1,184.9,101.4,185.4,101.4z M204.3,77.4c-0.1-0.1-0.2-0.1-0.3-0.2c-0.3,0.3-0.5,0.8-0.8,1.1
				c-0.1,0.1,0,0.3,0,0.4c0.2-0.1,0.3-0.1,0.4-0.2C204,78.3,204.1,77.9,204.3,77.4z M194.6,55.8c-0.5,0.1-0.9,0.2-1.3,0.3
				c-0.1,0-0.1,0.3-0.1,0.3C193.6,57,194.4,56.6,194.6,55.8L194.6,55.8z M200.8,65.9c0.7-0.2,0.6-0.9,1-1.3
				C200.6,64.8,200.5,65,200.8,65.9z M184.4,102.6c0.4-0.3-0.1-1.4-1.2-2.4C183.6,101.2,183.9,101.8,184.4,102.6z M145.2,73.6
				c-0.3,0.4-0.1,1.5,0.5,2.1C145.8,74.9,145.4,74.3,145.2,73.6z M145.7,56.4c-0.2-0.5-0.5-0.6-1.4-0.4
				C144.6,56.7,144.7,56.7,145.7,56.4z M194.7,52.1c-0.2-0.3-0.3-0.6-0.6-1.1c-0.3,0.4-0.3,0.7-0.5,0.9
				C193.8,52.1,194.2,52.4,194.7,52.1z M192.8,73.6c0.1,0,0.1,0,0.2,0c0.1-0.3,0.3-0.7,0.2-0.9c-0.1-0.3-0.3-0.8-0.8-0.8
				C192.5,72.4,192.7,73,192.8,73.6z M146.3,73.7c0.1-0.6,0.2-1.2,0.2-1.8C145.7,72.1,145.6,72.5,146.3,73.7z M187,100
				c0.1-0.1,0.2-0.2,0.3-0.2c-0.3-0.7-0.9-1.1-1.5-1.6c-0.1,0.1-0.1,0.1-0.2,0.2C186.1,98.8,186.5,99.4,187,100z M154,98.8
				c-1.6,1.6-1.5,1.4-1.3,2C153.1,100.1,153.6,99.4,154,98.8z M164.2,78.8c0.1,0,0.2,0,0.2,0c0.1-0.3,0.3-0.6,0.3-0.9
				c-0.3,0-0.7-0.1-0.9,0C163.5,78.5,164.2,78.5,164.2,78.8z M196.9,87.5c0.3-0.4,0.6-0.9,0.9-1.3C197.2,86.1,196.7,86.7,196.9,87.5
				z M196.2,51.5c-0.8,0.4-0.8,1,0.1,1.6C196.3,52.5,196.3,52,196.2,51.5z M199.5,68.2c0.3-0.3,0.5-0.4,0.6-0.7
				c0-0.1-0.2-0.3-0.3-0.5c-0.2,0.2-0.4,0.3-0.6,0.6C199.1,67.7,199.3,67.9,199.5,68.2z M140.8,77.7c0.1,0,0.2-0.1,0.2-0.1
				c-0.3-0.8-0.6-1.6-0.9-2.4c-0.1,0-0.2,0.1-0.3,0.1C140.2,76,140.5,76.8,140.8,77.7z M139.4,60.1c0.1,0,0.2,0.1,0.3,0.1
				c0.1-0.3,0.3-0.4,0.3-0.7c0-0.3-0.3-0.5-0.4-0.7c-0.1,0-0.2,0.1-0.3,0.1C139.3,59.2,139.3,59.6,139.4,60.1z M199.1,64.1
				c-0.3,0.3-0.5,0.4-0.5,0.6c0,0.2,0.3,0.4,0.4,0.4c0.2,0,0.4-0.3,0.4-0.4C199.6,64.6,199.3,64.4,199.1,64.1z M166,78.4
				c-0.8-0.3-0.9-0.3-1.3,0.4C165.6,79.1,165.8,79,166,78.4z M145.7,72.9c-0.4,0.5-0.2,1.3,0.4,1.8
				C145.9,74.1,145.8,73.6,145.7,72.9z M189.8,46.1c-0.3,0.3-0.3,0.6,0,0.8c0.3,0.2,0.5,0.6,0.9,0.1
				C190.4,46.6,190.1,46.4,189.8,46.1z M171.6,79.7c0.2-0.3,0.4-0.4,0.3-0.6c0-0.2-0.3-0.4-0.3-0.4c-0.2,0-0.3,0.3-0.5,0.3
				C171.2,79.3,171.4,79.4,171.6,79.7z M136.9,58.2c0.1,0,0.1,0,0.2,0c0.2-0.8,0.3-1.5,0.5-2.2c-0.1,0-0.2,0-0.2,0
				C137.2,56.7,136.8,57.4,136.9,58.2z M190.9,63.3c0.1,0.1,0.1,0.2,0.2,0.3c0.4-0.5,1.3-0.5,1.5-1.2c-0.1-0.1-0.1-0.1-0.2-0.2
				C191.9,62.6,191.4,63,190.9,63.3z M146.6,47.8c0.1,0,0.1,0.1,0.2,0.1c0.8-0.5,0.9-0.8,0.4-1.4C147,47,146.8,47.4,146.6,47.8z
				 M141.2,63.3c-0.5-0.4-0.7-0.4-1,0.3C140.7,64.1,140.8,64,141.2,63.3z M201.6,55.8c-0.1,0-0.2,0-0.3,0.1c0.2,0.8,0.4,1.5,0.6,2.3
				c0.1,0,0.2,0,0.2-0.1C202,57.3,201.8,56.5,201.6,55.8z M198.8,63.6c-0.3-0.3-0.4-0.7-0.9-0.3c-0.1,0.1-0.2,0.3-0.1,0.4
				C198.1,63.9,198.4,63.9,198.8,63.6z M139.6,65.3c0.1,0,0.2,0,0.2,0c0.2-0.2,0.3-0.4,0.6-0.7c-0.3-0.2-0.6-0.3-0.9-0.5
				C139.5,64.6,139.6,65,139.6,65.3z M144.5,52.5c0.3-0.3,0.6-0.4,0.9-0.7c0-0.1,0-0.1,0-0.2c-0.2-0.1-0.4-0.2-0.5-0.1
				C144.6,51.7,144.4,52,144.5,52.5z M193.4,75.8c0.3-0.7,0.4-1.3,0.7-2C193.5,74.1,193.2,75.1,193.4,75.8z M138,72.6
				c0,0.1-0.1,0.1-0.1,0.2c0.2,0.2,0.3,0.4,0.6,0.6c0.1,0.1,0.3,0.1,0.3,0.1c0-0.2,0.1-0.3,0.1-0.4C138.8,72.5,138.4,72.7,138,72.6
				L138,72.6z M140,79.3c0.3,0.5,0.8,0.6,1.4,0.3C140.9,79.1,140.4,79.3,140,79.3z M140.9,64.9c-0.1,0-0.1,0-0.2,0
				c0,0.6-0.1,1.1-0.1,1.6c0.1,0,0.2,0,0.3,0C140.9,66,140.9,65.4,140.9,64.9L140.9,64.9z M193.1,74.8c0.2-0.6,0.3-1.1,0.5-1.5
				C193,73.5,192.8,74.2,193.1,74.8z M188,42.7c-0.1,0.1-0.2,0.2-0.2,0.2c0.4,0.4,0.9,0.8,1.3,1.2c0.1-0.1,0.2-0.2,0.2-0.3
				C188.8,43.5,188.4,43.1,188,42.7z M142.1,87.4c0.1-0.1,0.2-0.1,0.3-0.2c-0.3-0.3-0.4-0.8-0.7-1.1c0,0-0.3,0.1-0.4,0.1
				C141.4,86.7,141.8,87.1,142.1,87.4z M198.4,69.4c-0.1-0.6-0.5-0.4-0.8-0.3c-0.1,0-0.2,0.3-0.1,0.3
				C197.8,69.9,198,69.6,198.4,69.4L198.4,69.4z M204,72.6c0.1,0,0.1,0,0.2,0.1c0.5-0.5,0.3-1.1,0.3-1.8
				C204.3,71.5,204.1,72.1,204,72.6z M170.9,78.9c-0.3,0-0.5,0-0.8,0c0,0.1-0.1,0.1-0.1,0.2c0.2,0.2,0.3,0.4,0.4,0.5
				C170.9,79.6,171.1,79.3,170.9,78.9z M150.1,50.9c-0.3-0.5-0.8-0.4-1.2-0.2C149.3,51.2,149.4,51.2,150.1,50.9z M186,100.6
				c0.1,0,0.2-0.1,0.3-0.1c-0.2-0.7-0.9-1-1.1-1.7c-0.1,0-0.1,0.1-0.2,0.1C185.3,99.4,185.6,99.9,186,100.6z M189.9,50.5
				c-0.4-0.1-0.9-0.2-1.1,0.2c0,0,0,0.3,0.1,0.3C189.3,51.2,189.7,51.1,189.9,50.5z M184.3,43.3c0-0.1,0.1-0.1,0.1-0.2
				c-0.3-0.3-0.8-0.6-1.2-1C183.2,42.8,183.7,43.3,184.3,43.3z M141.7,69.2c-0.4,0-0.8,0-1.1,0c0,0.1,0,0.3,0.1,0.3
				C141,69.7,141.4,69.9,141.7,69.2z M139.4,71.5c0.3,0.3,0.4,0.6,0.6,0.6c0.2,0,0.4-0.2,0.6-0.3c-0.3-0.2-0.5-0.3-0.8-0.3
				C139.8,71.5,139.7,71.5,139.4,71.5z M141.7,63.9c-0.1,0-0.2,0-0.3,0c-0.1,0.6-0.2,1.3-0.3,1.9c0.1,0,0.2,0,0.3,0
				C141.5,65.2,141.6,64.6,141.7,63.9z M198.4,71.6c0,0.5,0.3,0.6,0.6,0.5c0.2-0.1,0.3-0.3,0.4-0.5l-0.1-0.1
				C199,71.5,198.7,71.6,198.4,71.6L198.4,71.6z M155.5,77.7c0,0.1-0.1,0.2-0.1,0.3c0.7,0.3,1.3,0.4,2,0.7c0-0.1,0-0.1,0.1-0.2
				C156.9,78.2,156.2,77.9,155.5,77.7z M134.1,68.5c-0.2,0.7,0.3,1.3,0.8,1.4C134.6,69.3,134.3,68.9,134.1,68.5z M200.7,69.8
				c0.1,0,0.2,0,0.3,0c0.3-0.4,0.3-0.9-0.1-1.4C200.8,68.8,200.8,69.3,200.7,69.8L200.7,69.8z M198,58.2c-0.1,0-0.1,0-0.2,0
				c-0.1,0.2-0.3,0.4-0.3,0.5c0.1,0.3,0.3,0.4,0.5,0.6c0.1,0,0.2-0.1,0.2-0.1C198.2,58.9,198.1,58.5,198,58.2z M168.9,79
				c-0.3-0.4-0.7-0.3-1-0.1v0.3C168.3,79.4,168.6,79.2,168.9,79z M205.1,68.7c-0.1-0.1-0.2-0.1-0.3-0.2c-0.2,0.3-0.4,0.8-0.6,1.1
				c0,0,0.2,0.1,0.3,0.2C204.6,69.4,204.9,69,205.1,68.7z M197.1,65c0.1,0,0.1,0,0.2,0c-0.1-0.5-0.2-0.9-0.3-1.5
				c-0.1,0-0.2,0-0.2,0.1C196.7,64.1,196.7,64.6,197.1,65z M141.2,87.1c0-0.1,0.1-0.1,0.1-0.2c-0.4-0.9-0.7-1-1.1-0.8
				C140.5,86.5,140.8,86.8,141.2,87.1z M173,79.4c0.1-0.1,0.2-0.2,0.3-0.3c-0.2-0.2-0.3-0.3-0.5-0.5c-0.2,0.2-0.3,0.3-0.4,0.4
				C172.6,79.1,172.8,79.2,173,79.4z M199.1,74.2c-0.6-0.1-0.9-0.1-1.1,0.5C198.5,74.8,198.9,74.8,199.1,74.2z M181,42.7
				c0.3,0.7,0.6,0.8,1.1,0.5C181.8,43,181.6,42.4,181,42.7z M199.4,65.5c-0.5,0.3-0.3,0.7,0,0.9C199.9,66.2,199.9,65.8,199.4,65.5z
				 M134.7,72.5c-0.2-0.5,0.2-1.1-0.3-1.6C134.5,71.5,134.3,72,134.7,72.5z M169,79.1c0,0.1,0,0.2,0.1,0.2c0.8,0.3,0.9,0.3,0.9-0.5
				C169.6,78.8,169.2,79,169,79.1L169,79.1z M199,79.5c0-0.1,0-0.2-0.1-0.3c-0.3,0-0.5,0-0.8,0c-0.1,0-0.2,0.2-0.2,0.3
				s0.2,0.3,0.2,0.3C198.4,79.7,198.7,79.7,199,79.5z M148.3,47.1c0.1,0,0.1,0.1,0.2,0.1c0.3-0.2,0.6-0.3,0.9-0.5
				c0.1,0,0.1-0.3,0-0.3c0-0.1-0.3-0.2-0.3-0.1C148.8,46.6,148.6,46.8,148.3,47.1z M192.9,63.6c-0.5-0.2-1.5,0.5-1.5,0.9
				C191.9,64.2,192.4,63.8,192.9,63.6z M144.5,101.8c-0.8-0.3-1-0.3-1.4,0.4C143.6,102.1,144,102,144.5,101.8z M146.7,42.9
				c-0.1-0.1-0.2-0.1-0.2-0.2c-0.2,0.3-0.3,0.7-0.6,1.1C146.6,43.8,146.8,43.5,146.7,42.9z M175.5,77.9c0,0.1,0,0.1,0,0.2
				c0.2,0.1,0.3,0.3,0.4,0.3c0.3-0.1,0.5-0.3,0.7-0.3c-0.1-0.1-0.1-0.2-0.2-0.3C176.1,77.9,175.8,77.9,175.5,77.9L175.5,77.9z
				 M197.8,86.7c0.1,0.1,0.1,0.1,0.2,0.2c0.3-0.3,0.5-0.4,0.9-0.8c-0.3-0.1-0.4-0.2-0.5-0.1C198.2,86.2,198,86.5,197.8,86.7z
				 M142.7,70.8c0.1,0,0.2,0,0.3,0c-0.1-0.4-0.1-0.9-0.2-1.4c-0.1,0-0.1,0-0.2,0C142.7,69.9,142.7,70.4,142.7,70.8z M139.3,75.7
				c-0.1,0-0.1,0-0.2,0.1c0,0.5,0,0.9,0.6,1.1C139.6,76.5,139.5,76.1,139.3,75.7z M156.1,42.4c-0.7-0.1-0.9,0.5-1.3,0.8
				c0.1,0.1,0.1,0.1,0.2,0.2C155.3,43,155.6,42.8,156.1,42.4z M194.6,101.7c0,0.1,0,0.2-0.1,0.3c0.4,0.1,0.8,0.3,1.2,0.3
				c0-0.1,0.1-0.2,0.1-0.3C195.4,101.8,195,101.8,194.6,101.7z M141,70.6c-0.3-0.1-0.7-0.5-1,0.1C140.3,71,140.7,71.2,141,70.6z
				 M195.8,53.4c-0.3-0.3-0.4-0.6-0.7-0.9C194.8,53.1,195.1,53.4,195.8,53.4z M181.1,70.3c-0.1,0-0.1,0-0.2,0c0,0.6-0.1,1.3-0.1,1.9
				C181.3,71.6,181,70.9,181.1,70.3L181.1,70.3z M193.2,47.9c0.3,0.9,0.4,1.2,0.9,1C193.7,48.5,193.5,48.2,193.2,47.9z M196,70.7
				c0.1,0,0.2,0,0.3,0c0.1-0.4,0.1-0.9,0.2-1.3c-0.1,0-0.2,0-0.3,0C196.2,69.9,196.1,70.3,196,70.7z M180.5,72.2c-0.1,0-0.1,0-0.2,0
				c-0.1,0.6-0.2,1.2-0.3,1.8c0.1,0,0.2,0,0.2,0C180.3,73.4,180.4,72.8,180.5,72.2z M144.2,67.9c-0.4,0.3-0.4,0.9,0,1.3
				C144.2,68.7,144.2,68.3,144.2,67.9z M197.9,70.7c0,0.1,0.1,0.2,0.1,0.2c0.3,0,0.5-0.1,0.7-0.1c-0.1-0.2-0.1-0.4-0.2-0.7
				C198.3,70.5,198.1,70.5,197.9,70.7z M164.1,71.7C164.2,71.7,164.2,71.7,164.1,71.7c0.1-0.6,0.1-1.1,0.1-1.6h-0.1
				C164.1,70.5,164.1,71.1,164.1,71.7z M198.5,59.5c-0.1,0-0.2,0-0.3,0c0.1,0.3,0.2,0.6,0.3,0.9h0.2
				C198.6,60.1,198.5,59.9,198.5,59.5L198.5,59.5z M146.4,62.3c0,0.1-0.1,0.2-0.1,0.2c0.3,0.2,0.7,0.4,1.1,0.6l0.1-0.1
				C147,62.7,146.9,62.2,146.4,62.3L146.4,62.3z M192.1,65.3C192.1,65.3,192.1,65.4,192.1,65.3c0.4-0.1,0.8-0.2,1.1-0.4
				c0.1,0,0.1-0.2,0.2-0.3c-0.1,0-0.3-0.1-0.3,0C192.7,64.9,192.4,65.1,192.1,65.3L192.1,65.3z M157.8,42.6c-0.3,0.2-0.6,0.3-1,0.6
				C157.4,43.5,157.6,43.3,157.8,42.6z M190.5,48.5c0-0.7-0.3-0.9-0.9-0.8C189.9,47.9,190.2,48.2,190.5,48.5z M142.3,63.7
				c-0.1,0-0.2,0-0.3-0.1c-0.1,0.4-0.2,0.9-0.3,1.4c0.1,0,0.1,0,0.2,0.1C142.1,64.6,142.2,64.2,142.3,63.7z M151.3,47
				c-0.1-0.1-0.1-0.1-0.2-0.2c-0.3,0.2-0.5,0.3-0.7,0.6c-0.1,0.1,0,0.2,0,0.3h0.2C150.8,47.5,151.1,47.2,151.3,47L151.3,47z
				 M192.9,65.9c0,0.1,0.1,0.2,0.1,0.3c0.3-0.2,0.8-0.3,1.1-0.4c0-0.1-0.1-0.2-0.1-0.3C193.6,65.6,193.2,65.7,192.9,65.9z
				 M142.1,54.3C142.1,54.3,142.2,54.4,142.1,54.3c0.3-0.2,0.4-0.4,0.6-0.7c0-0.1-0.1-0.3-0.2-0.3c-0.1,0.1-0.3,0.1-0.3,0.2
				C142.2,53.8,142.2,54,142.1,54.3z M158.3,72.8c0.1,0,0.1,0,0.2,0c0-0.3,0-0.7,0-1c0-0.1-0.1-0.2-0.2-0.2
				c-0.1,0.1-0.2,0.2-0.2,0.2C158.2,72.2,158.3,72.5,158.3,72.8z M188.6,47.8c-0.3-0.4-0.5-0.8-0.9-1.2
				C187.8,47.2,188.1,47.7,188.6,47.8z M198.1,73.4c0.3,0.1,0.5,0.3,0.5,0.2c0.2-0.2,0.3-0.3,0.4-0.5c-0.1-0.1-0.1-0.1-0.2-0.2
				C198.7,73,198.5,73.2,198.1,73.4L198.1,73.4z M186.2,42.7c-0.1,0.1-0.1,0.2-0.2,0.3c0.3,0.3,0.6,0.4,0.9,0.7
				c0.1-0.1,0.1-0.2,0.2-0.2C186.8,43.1,186.5,42.9,186.2,42.7z M149.4,47.8L149.4,47.8c0.4-0.3,0.8-0.5,1.1-0.9
				c-0.1-0.1-0.1-0.1-0.2-0.2C150,47.2,149.8,47.5,149.4,47.8z M191.7,48.5c0.1-0.1,0.2-0.1,0.2-0.2c-0.3-0.3-0.5-0.5-0.8-0.9
				c-0.1,0.1-0.1,0.1-0.2,0.2C191.2,47.8,191.5,48.1,191.7,48.5z M199.5,59.8c0.1,0,0.1,0,0.2,0c0-0.3-0.1-0.6-0.1-1
				C198.9,59.2,199.3,59.5,199.5,59.8z M144.8,65.7c0.3,0.2,0.7,0.3,1.1,0.4C145.3,65.4,145.1,65.4,144.8,65.7z M194.8,80.2
				c0.1,0,0.2,0.1,0.2,0.1c0.2-0.4,0.3-0.9,0.5-1.3c-0.1,0-0.1-0.1-0.2-0.1C195.1,79.3,194.9,79.7,194.8,80.2z"/>
			<path d="M137.2,126.5c-0.7,1.7-1.4,3.4-2.1,5.1c-0.3,0.9-0.7,2-1.1,2.9c-0.1,0.2-0.3,0.3-0.5,0.3c-0.2,0-0.3-0.2-0.4-0.3
				c-0.3-1.7-0.7-3.4-1.1-5.1c-0.3-1.5-0.7-2.8-1-4.3c-0.1-0.3-0.3-0.5-0.7-0.5c-0.2,0-0.3-0.1-0.4-0.1c0-0.1,0-0.1,0-0.2
				c1.3,0,2.5,0,3.8,0c0,0.1,0,0.1,0,0.2c-0.3,0-0.4,0.1-0.7,0.1c-0.6,0-0.7,0.2-0.6,0.7c0.5,2.3,1,4.6,1.5,7c0,0.1,0.1,0.2,0.2,0.3
				c0.3-0.7,0.6-1.4,0.9-2c0.8-2,1.5-4,2.2-5.8c0-0.1,0.1-0.2,0.2-0.3c0.1-0.1,0.2-0.3,0.3-0.3c0.1,0,0.3,0.2,0.3,0.3
				c0.4,1.2,0.8,2.4,1.2,3.6c0.5,1.5,1.1,3.1,1.7,4.8c0.2-0.5,0.3-0.8,0.3-1.1c0.6-2.1,1.1-4,1.7-6.1c0.2-0.8,0.1-0.9-0.7-0.9
				c-0.2,0-0.4-0.1-0.6-0.1c0-0.1,0-0.1,0-0.2c1,0,2.1,0,3.2,0c0,0,0,0.1,0.1,0.1c-0.1,0.1-0.3,0.2-0.3,0.2c-0.4,0-0.5,0.3-0.6,0.5
				c-0.8,2.4-1.5,4.9-2.2,7.3c-0.2,0.7-0.3,1.4-0.6,2.1c-0.1,0.2-0.3,0.3-0.4,0.3c-0.2,0-0.3-0.2-0.4-0.3c-0.7-1.8-1.3-3.6-2-5.4
				C137.8,128.3,137.5,127.5,137.2,126.5C137.2,126.5,137.2,126.5,137.2,126.5L137.2,126.5z"/>
			<path d="M173.4,129.4c1.5,1.7,2.5,3.7,4.4,5.2c-0.7,0-1.3,0.1-1.9,0c-0.2,0-0.4-0.3-0.6-0.6c-1.2-1.6-2.5-3.3-3.7-4.9
				c0.6-0.1,1.3-0.2,1.9-0.3c0.8-0.3,1.3-0.9,1.4-1.6c0.1-0.9,0.1-1.7-0.8-2.2c-0.6-0.4-2.4-0.6-3-0.1c-0.3,0.3-0.3,0.9-0.3,1.3
				c0,2,0,4,0,6c0,0.5,0.1,1,0.1,1.5c0,0.6,0.3,0.7,0.8,0.7c0.2,0,0.4,0,0.7,0.2c-0.1,0.1-0.2,0.2-0.3,0.2c-1.4,0-2.7,0-4,0
				c0-0.1,0-0.2,0-0.2c0.2-0.1,0.3-0.2,0.5-0.2c0.5,0,0.9-0.1,0.9-0.8c0-2.5,0.1-5,0.1-7.5c0-0.3,0-0.8-0.2-1.1
				c-0.1-0.2-0.5-0.3-0.8-0.4c-0.2-0.1-0.4-0.1-0.6-0.2c0-0.1,0-0.2,0-0.3c0.5,0,1.1,0,1.6,0c1.2,0,2.4-0.1,3.5-0.1
				c0.9,0,1.7,0.1,2.5,0.7c1,0.9,0.8,2.3,0.1,3.1c-0.6,0.7-1.3,1.2-2.1,1.3C173.7,129.3,173.6,129.4,173.4,129.4L173.4,129.4z"/>
			<path d="M165.9,25.5c1.6,1.8,2.6,3.9,4.5,5.4c-0.7,0-1.3,0.1-1.9,0c-0.2,0-0.4-0.3-0.6-0.6c-1.2-1.5-2.4-3.2-3.6-4.7
				c0,0-0.1-0.1-0.1-0.2c0.5-0.1,1-0.1,1.5-0.2c1.8-0.3,2.2-2.2,1.5-3.5c-0.4-0.8-1.6-1-2.4-0.9c-0.4,0-0.8,0.2-1.3,0.3
				c0,0.6-0.1,1.2-0.1,1.7c0,2.1,0,4,0,6.1c0,0.4,0.1,0.8,0.1,1.2c0.1,0.4,0.3,0.4,0.7,0.4c0.3,0,0.5,0,0.7,0.1c0,0.1,0,0.2,0,0.3
				c-1.5,0-2.8,0-4.3,0c0-0.1,0-0.2,0-0.2c0.2,0,0.4-0.1,0.6-0.1c0.5,0,0.9-0.2,0.9-0.8c0-2.5,0.1-5,0.1-7.5c0-0.1,0-0.2,0-0.3
				c-0.2-1-0.2-1-1.3-1.3c-0.1,0-0.2-0.1-0.3-0.2c0-0.1,0-0.1,0.1-0.2c0.3,0,0.7,0,1.1,0c1.2,0,2.3-0.1,3.5-0.1
				c0.8,0,1.5,0.1,2.2,0.3c1.7,0.5,1.8,2.5,0.9,3.6C167.8,24.9,167,25.4,165.9,25.5L165.9,25.5z"/>
			<path d="M210.9,25.3c0.1,2.7-1.9,5.2-4.6,5.7c-2.2,0.4-4.4-0.1-5.7-2.1c-0.5-0.8-0.7-1.6-0.9-2.5c-0.2-1.5,0.1-2.8,1-4
				c0.9-1.3,2.2-1.9,3.9-2.1c1-0.1,2-0.1,2.9,0.3C209.7,21.2,211,23,210.9,25.3L210.9,25.3z M209.5,25.8c0.2-2.6-1.2-4.7-3.6-5.1
				c-1.9-0.3-3.8,0.4-4.5,2.5c-0.4,1.3-0.3,2.6,0,3.8c0.3,1.2,0.9,2.1,1.9,2.8c1.8,1.1,4.5,0.7,5.5-1.2
				C209.3,27.8,209.5,26.9,209.5,25.8L209.5,25.8z"/>
			<path d="M135.1,22.1c0,0.3,0,0.8,0,1.1c0,2.1,0.1,4.3,0.1,6.4c0,0.7,0.2,0.9,0.9,0.9c0.2,0,0.3,0.1,0.5,0.1c0,0.1,0,0.1,0,0.2
				c-1.1,0-2.3,0-3.4,0v-0.1c0.2-0.1,0.3-0.2,0.5-0.2c0.8,0,0.9-0.2,0.9-1c0-2.3,0-4.6,0-7c0-0.3,0-0.7,0-1c0-0.5-0.3-0.8-0.9-0.9
				c-0.2,0-0.3-0.1-0.6-0.1c0-0.1,0-0.2,0-0.3c0.8,0,1.6-0.1,2.3,0.1c0.3,0.1,0.7,0.6,1,0.9c1.8,2.2,3.5,4.4,5.3,6.6
				c0.3,0.4,0.8,0.9,1.1,1.3c0.1-0.1,0.1-0.1,0.1-0.1c0-2.4,0-4.9-0.1-7.3c0-0.9-0.1-1-1-1.2c-0.2,0-0.3-0.1-0.4-0.2
				c0-0.1,0-0.1,0-0.2c1.2,0,2.4,0,3.5,0c0,0,0,0.1,0.1,0.1c-0.1,0.1-0.3,0.2-0.3,0.2c-1,0.1-1,0.1-1,1.1c0,2.1-0.1,4.4-0.1,6.5
				c0,0.9,0.1,1.8,0.2,2.7c-1.4,0.2-1.9-0.9-2.5-1.7c-1.5-1.8-3-3.7-4.5-5.5c-0.5-0.6-1-1.3-1.5-1.9C135.2,22,135.1,22.1,135.1,22.1
				z"/>
			<path d="M153.7,124.2c-0.5,0.7-0.1,1.5-0.5,2.2c-0.1,0-0.2,0-0.2,0c-0.1-0.3-0.1-0.7-0.2-1c-0.1-0.2-0.3-0.4-0.4-0.4
				c-1.2-0.1-2.5-0.1-3.7-0.2c-0.1,0-0.3,0.3-0.3,0.5c0,1.2,0,2.4,0,3.7c1.1,0,2.1,0,3.3,0c0.4,0,0.3-0.4,0.3-0.8
				c0-0.3-0.1-0.6,0.4-0.5c0,1,0,2.1,0,3.1c0,0.1-0.1,0.2-0.2,0.3c-0.1-0.1-0.2-0.2-0.3-0.3c0,0,0,0,0-0.1c-0.2-1-0.1-1-1.1-1.2
				c-0.8-0.1-1.6,0-2.5,0c0,1.5,0,3,0,4.6c0.3,0,0.6,0,0.9,0c0.9,0,1.7,0,2.6,0c1,0,1.1-0.2,1.4-1.2c0.1-0.3,0-0.7,0.5-0.7
				c-0.1,0.8-0.2,1.5-0.2,2.4c-2.6,0-5.2,0-7.8,0c0-0.1,0-0.1,0-0.2c0.2-0.1,0.3-0.2,0.4-0.2c0.8-0.1,0.9-0.2,0.9-0.9c0-1,0-2,0-3
				c0-1.5,0-2.8,0-4.3c0-0.1,0-0.2,0-0.3c0-0.9-0.1-1-1.1-1.2c-0.2,0-0.3-0.1-0.4-0.2c0-0.1,0-0.1,0.1-0.2
				C148.2,124.2,150.8,124.2,153.7,124.2L153.7,124.2z"/>
			<path d="M185.9,124.2c1.1,0,2.3,0,3.4,0c0,0.1,0,0.1,0,0.2c-0.2,0.1-0.3,0.2-0.5,0.2c-0.5,0-0.8,0.2-0.9,0.7
				c0,0.8-0.1,1.5-0.1,2.3c-0.1,1.5-0.1,2.9-0.1,4.4c0,1.3-0.9,2.1-1.9,2.5c-1.6,0.8-3.4,0.6-5-0.2c-0.9-0.4-1.3-1.1-1.3-2.1
				c0-2.2-0.1-4.5-0.1-6.7c0-0.9-0.1-0.9-0.9-0.9c-0.2,0-0.3-0.1-0.5-0.1c0-0.1,0-0.1,0-0.2c1.5,0,2.8,0,4.3,0c0,0.1,0,0.1,0,0.2
				c-0.2,0-0.3,0.1-0.5,0.1c-0.9,0-0.9,0.1-0.9,1c0,1.9,0,3.9,0,5.8c0,1.5,0.5,2.3,2.1,2.6c1,0.2,2.1,0.2,3.1-0.3
				c0.8-0.3,1-1,1.1-1.7c0.1-1.3,0.1-2.6,0.1-3.9c0-0.9-0.1-1.9-0.1-2.8c0-0.6-0.3-0.7-0.8-0.7c-0.3,0-0.4-0.1-0.7-0.1
				C185.9,124.4,185.9,124.3,185.9,124.2L185.9,124.2z"/>
			<path d="M181,30.7c0.2,0,0.4-0.1,0.6-0.1c0.8,0,0.9-0.1,0.9-0.9c0-1.2,0-2.4,0-3.6c0-1.4,0-2.8,0-4.2c0-0.9-0.2-1-1-1.1
				c-0.2,0-0.3-0.1-0.5-0.1c0-0.1,0-0.1,0-0.2c0.1,0,0.2-0.1,0.2-0.1c1.7,0,3.5-0.1,5.2-0.1c0.7,0,1.4,0.2,2,0.4
				c1.3,0.5,1.5,1.7,1.1,2.8c-0.6,1.9-2.5,2.6-4.2,2.3c-0.2,0-0.3-0.3-0.6-0.4c0.7,0,1.1,0.1,1.6,0c0.7-0.1,1.2-0.4,1.5-1
				c0.5-1,0.3-2.3-0.3-3c-0.6-0.6-1.4-0.6-2.1-0.6c-0.3,0-0.8,0.1-1.1,0.2c-0.2,0.1-0.3,0.3-0.3,0.4c0,2.8,0,5.4,0,8.2
				c0,0.9,0.1,0.9,0.9,0.9c0.2,0,0.4,0.1,0.6,0.1c0,0.1,0,0.1,0,0.2C183.9,30.7,182.5,30.7,181,30.7C181,30.7,181,30.7,181,30.7
				L181,30.7z"/>
			<path d="M190.6,132.2c0,0.6-0.1,1.3,0.6,1.6c0.9,0.4,1.7,0.6,2.7,0.5c0.9-0.1,1.7-0.3,2.1-1.2c0.6-1.1,0.4-2.9-1.6-3
				c-1-0.1-2-0.3-3-0.4c-0.9-0.3-1.3-1.1-1.4-2c-0.3-2.1,1.5-3.4,3.2-3.5c1.3-0.1,2.5,0.2,3.6,0.6c-0.1,0.6-0.1,1.2-0.2,1.8
				c0,0.1-0.2,0.2-0.3,0.3c-0.1-0.1-0.2-0.2-0.2-0.3c0-0.1,0-0.2,0-0.3c-0.1-1-0.3-1.3-1.2-1.5c-0.7-0.1-1.5-0.2-2.1,0
				c-1.5,0.3-2.1,2.1-1.3,3.2c0.3,0.3,0.9,0.6,1.3,0.7c0.9,0.2,1.7,0.3,2.6,0.3c2.1,0.2,2.5,2.3,1.6,3.8c-0.8,1.3-1.9,1.9-3.4,2.1
				c-1.1,0.2-2.1-0.1-3.2-0.3c-0.3-0.1-0.4-0.3-0.4-0.6c0.1-0.5,0.1-1,0.1-1.5c0-0.1,0.1-0.2,0.2-0.3
				C190.5,132.1,190.6,132.1,190.6,132.2L190.6,132.2z"/>
			<path d="M159.8,29.6c-0.3,0.3-0.4,0.6-0.7,0.8c-2.5,1-4.9,1-7.1-0.6c-1.2-0.9-1.9-2.1-2-3.7c-0.2-1.7,0.3-3.2,1.6-4.4
				c0.9-0.9,2.1-1.3,3.4-1.5c1.5-0.2,2.9,0,4.3,0.4c0.1,0,0.3,0,0.3,0c-0.1,0.6-0.1,1.2-0.3,1.8c0,0.2-0.2,0.3-0.3,0.4
				c-0.1-0.2-0.2-0.3-0.2-0.4c0.1-0.7-0.3-1-0.8-1.3c-1.9-0.8-4.4-0.6-5.8,0.9c-0.9,1-1.1,2.2-1,3.4c0.1,1.4,0.5,2.6,1.5,3.5
				c1.1,1,2.5,1.4,4,1.2c0.9-0.1,1.9-0.3,2.7-0.9C159.8,29.5,159.8,29.6,159.8,29.6L159.8,29.6z"/>
			<path d="M158.6,126.6c0-0.9-0.1-1.6-0.1-2.4c2.9,0,5.8,0,8.8,0c-0.1,0.8-0.2,1.5-0.3,2.4c-0.2-0.3-0.3-0.3-0.3-0.4
				c-0.1-0.3,0-0.7-0.2-1c-0.1-0.2-0.3-0.4-0.4-0.4c-0.9-0.1-1.6,0-2.6,0c0,1.6,0,3.2,0,4.7c0,1.3,0,2.6,0,3.9
				c0,0.9,0.1,0.9,0.9,0.9c0.3,0,0.4,0.1,0.7,0.1c0,0.1,0,0.1,0,0.2c-1.5,0-2.9,0-4.4,0c0-0.1,0-0.1,0-0.2c0.2,0,0.3-0.1,0.6-0.1
				c0.8,0,0.9-0.2,0.9-0.9c0-1.9,0-3.8,0-5.7c0-0.9,0-1.9,0-2.9c-0.9,0-1.8,0-2.8,0c-0.2,0-0.3,0.4-0.4,0.7
				c-0.1,0.3-0.1,0.6-0.2,0.9C158.9,126.3,158.8,126.4,158.6,126.6L158.6,126.6z"/>
			<path d="M200.3,134.4c0.2,0,0.4-0.1,0.6-0.1c0.7,0,0.9-0.2,0.9-0.9c0-2.8,0-5.8,0-8.7c-0.9,0-1.9,0-2.8,0c-0.2,0-0.3,0.4-0.3,0.8
				c-0.1,0.3-0.2,0.7-0.3,1c-0.1,0-0.2,0-0.3,0c0-0.8,0-1.5,0-2.3c2.8,0,5.8,0,8.7,0c-0.1,0.8-0.1,1.5-0.2,2.3c-0.1,0-0.1,0-0.2,0
				c-0.1-0.1-0.2-0.2-0.2-0.3c-0.1-0.3-0.1-0.6-0.1-0.9c0-0.4-0.3-0.6-0.6-0.6c-0.8,0-1.6,0-2.5,0c0,1,0,2,0,2.9c0,1.9,0,3.8,0,5.7
				c0,0.9,0,0.9,0.9,1c0.2,0,0.3,0.1,0.5,0.1c0,0.1,0,0.1,0,0.2c-1.5,0-2.9,0-4.4,0C200.3,134.6,200.3,134.5,200.3,134.4z"/>
			<path d="M194,20.9c-0.9,0-1.7,0-2.5,0c-0.4,0-0.7,0.2-0.7,0.6c0,0.3-0.1,0.7-0.2,0.9c0,0.1-0.2,0.2-0.3,0.3
				c-0.1-0.9-0.1-1.5-0.2-2.3c2.9,0,5.8,0,8.8,0c-0.1,0.8-0.2,1.5-0.2,2.3c-0.1,0-0.2,0-0.3,0c-0.1-0.3-0.1-0.8-0.2-1.1
				c0-0.4-0.2-0.6-0.6-0.6c-0.8,0-1.6,0-2.5,0c0,1.5,0,3,0,4.6c0,1.4,0.1,2.8,0.1,4c0,0.9,0.1,0.9,1,1c0.2,0,0.3,0.1,0.5,0.1
				c0,0.1,0,0.1,0,0.2c-1.5,0-2.9,0-4.4,0c0-0.1,0-0.1,0-0.2c0.1-0.1,0.3-0.2,0.3-0.2c1-0.1,1.1-0.2,1.1-1.2c0-1.8,0-3.6,0-5.3
				C194,23,194,22.1,194,20.9z"/>
			<path d="M170.5,20.7c0.2-0.1,0.4-0.2,0.6-0.2c1.3-0.3,1.5-0.3,2.2,0.8c0.9,1.4,1.5,2.8,2.4,4.1c0.1,0.1,0.1,0.2,0.2,0.3
				c0.2-0.3,0.4-0.6,0.6-0.9c0.8-1.3,1.5-2.7,2.2-4c0.3-0.6,0.5-0.7,1.4-0.5c-0.8,1.1-1.6,2.3-2.4,3.5c-0.4,0.7-0.9,1.4-1.2,2.1
				c-0.2,0.3-0.2,0.6-0.2,0.9c0,0.9,0,2,0,2.9c0,0.3,0.1,0.5,0.4,0.5c0.3,0,0.6,0.1,0.9,0.2c0.1,0,0.1,0.2,0.3,0.3
				c-1.5,0-2.9,0-4.4,0c0,0,0-0.1-0.1-0.1c0.1-0.1,0.3-0.2,0.3-0.2c1.1,0.1,1-0.2,1.1-1.1c0.1-0.9,0-1.8,0-2.8c0-0.1,0-0.2-0.1-0.3
				c-0.9-1.5-1.9-3.2-3-4.7C171.7,21.3,171.1,21.1,170.5,20.7L170.5,20.7z"/>
			<path d="M128,20.4c1.4,0,2.8,0,4.1,0c0,0,0,0.1,0.1,0.1c-0.1,0.1-0.3,0.2-0.3,0.2c-1.1,0.1-1.2,0.2-1.2,1.4c0,2,0,4,0,5.8
				c0,0.7,0.1,1.4,0.1,2.1c0,0.4,0.4,0.4,0.7,0.5c0.3,0,0.4,0,0.8,0.1c-0.4,0.3-2.9,0.3-4.4,0.1c0.2-0.1,0.3-0.2,0.4-0.2
				c0.6,0,0.9-0.1,0.9-0.8c0-2.7,0.1-5.3,0.1-7.9c0-0.9,0.2-1-1-1.1C128.2,20.7,128,20.6,128,20.4C128,20.5,128,20.5,128,20.4
				L128,20.4z"/>
			<path d="M175.8,78.8c0.2,0,0.3-0.1,0.6-0.1c-0.1,0.2-0.1,0.3-0.2,0.5c0.2,0.1,0.3,0.2,0.5,0.3c-0.9,0.5-1.9,1-2.8,1.5
				c0-0.1-0.1-0.1-0.1-0.2c0.3-0.2,0.6-0.3,0.9-0.5c-0.2-0.9,1.1-0.3,1.1-1.1c-0.3,0.1-0.7,0.2-1,0.3
				C175.3,79.2,175.6,79,175.8,78.8z"/>
			<path d="M166.1,81.5c-0.7-0.2-1.4-0.3-2-0.6c-0.7-0.3-1.4-0.4-2.1-0.3c-0.2,0-0.4,0-0.2-0.3c0,0-0.2-0.3-0.3-0.3
				c-1.4-0.9-2.8-1.9-4.4-2.3c0.2-0.1,0.3-0.1,0.5-0.2c-1.3-0.4-2.7-0.4-3.6-1.4h0.1c1.2,0.9,2.8,0.8,4.1,1.4c0.9,0.5,2.1,1,2.8,1.7
				c0.3,0.3,0.9,0.1,1.1,0.6c0,0-0.1,0.1-0.3,0.2c0.2,0.1,0.3,0.4,0.6,0.2c0.1-0.1,0.6,0.2,0.9,0.3C164.4,80.6,165.3,81,166.1,81.5
				C166.1,81.3,166.1,81.4,166.1,81.5C166.1,81.5,166.1,81.5,166.1,81.5z"/>
			<path d="M172.6,61.7c-1.3-0.2-2.7-0.3-4-0.3c-1.3,0-2.6,0.3-3.9,0.5C166,61.1,170.4,61,172.6,61.7L172.6,61.7z"/>
			<path d="M174.9,61.9c0.2,0,0.4-0.1,0.7-0.1c0.3,0.6,0.9,0.8,1.5,0.9c0.3,0.1,0.4,0.2,0.6,0.3c0.4,0.3,0.9,0.6,1.3,0.9
				c0.2,0.1,0.3,0.2,0.4,0.4C177.8,63.4,176.4,62.6,174.9,61.9L174.9,61.9z"/>
			<path d="M154.3,75.4c1.4,0.3,2.8,0.5,4.1,0.8c0,0.1,0,0.2-0.1,0.2C157,76.1,155.6,75.8,154.3,75.4
				C154.3,75.6,154.3,75.5,154.3,75.4z"/>
			<path d="M153.8,72.4c-0.3-0.6,0.2-0.8,0.4-0.9c0.3-0.1,0.6,0,1,0C154.8,71.7,154.3,72.1,153.8,72.4z"/>
			<path d="M163.2,61.9c-1.1,0.5-2.1,1.1-3.3,1.6c0-0.1-0.1-0.1-0.1-0.2c1.1-0.5,2.1-1.1,3.3-1.6C163.1,61.8,163.1,61.9,163.2,61.9
				L163.2,61.9z"/>
			<path d="M164.4,80c-0.8-0.3-1.6-0.7-2.4-1c-0.3-0.2-0.6-0.3-0.8-0.6C162.3,78.9,163.4,79.4,164.4,80L164.4,80L164.4,80z"/>
			<path d="M161.7,65.6c1-0.4,2-0.9,3-1.4c0,0,0,0.1,0.1,0.1c-0.9,0.4-2,0.9-2.9,1.4C161.7,65.7,161.7,65.6,161.7,65.6L161.7,65.6z"
				/>
			<path d="M164.4,80c0.8,0.3,1.5,0.4,2.2,0.7c0.3,0.1,0.5,0.2,0.8,0.3l0,0C166.5,80.6,165.4,80.3,164.4,80L164.4,80z"/>
			<path d="M167.4,80.9c1,0.1,2,0.2,3,0.3c0,0.1,0,0.1,0,0.2C169.5,81.2,168.4,81,167.4,80.9C167.5,80.9,167.4,80.9,167.4,80.9z"/>
			<path d="M167.3,83.4c-0.6-0.2-1.2-0.3-1.8-0.4c0-0.1,0-0.2,0.1-0.2C166.2,82.9,166.8,83.1,167.3,83.4
				C167.3,83.2,167.3,83.3,167.3,83.4L167.3,83.4z"/>
			<path d="M192.8,87.2c-0.3,0.1-0.5,0.1-0.7,0.2c0-0.2,0-0.4,0-0.4c0.3-0.1,0.4-0.1,0.7-0.1C192.8,87.1,192.8,87.1,192.8,87.2z"/>
			<path d="M184.4,90.1c0.2-0.1,0.3-0.3,0.5-0.3c0.1,0,0.3,0.3,0.3,0.3l-0.1,0.1C185,90.2,184.7,90.2,184.4,90.1
				C184.5,90.2,184.5,90.2,184.4,90.1z"/>
			<path d="M166.1,81.5c0.7,0.1,1.3,0.3,2,0.3c0.2,0,0.4,0.1,0.6,0.2c0,0.1,0,0.1,0,0.2C167.8,81.9,167,81.6,166.1,81.5L166.1,81.5z
				"/>
			<path d="M194.2,90.3c-0.3,0-0.5,0-0.7,0l-0.1-0.1c0.2-0.2,0.3-0.3,0.4-0.3c0.2,0,0.3,0.2,0.5,0.3
				C194.3,90.2,194.2,90.2,194.2,90.3L194.2,90.3z"/>
			<path d="M153.3,90.1c0.2-0.1,0.3-0.3,0.5-0.3c0.2,0,0.3,0.3,0.4,0.3l-0.1,0.1c-0.3,0-0.4,0-0.7,0
				C153.4,90.2,153.4,90.2,153.3,90.1L153.3,90.1z"/>
			<path d="M170.1,41c-0.4,0-0.8,0-1.1,0C169.4,40.5,169.6,40.5,170.1,41z"/>
			<path d="M192.7,90.3c-0.3-0.1-0.5-0.1-0.7-0.2c0-0.1,0-0.3,0.1-0.3c0.3-0.3,0.5,0,0.7,0.3C192.8,90.2,192.7,90.3,192.7,90.3z"/>
			<path d="M149.7,90.3c-0.3,0-0.5,0-0.7,0l-0.1-0.1c0.2-0.2,0.3-0.3,0.4-0.3s0.3,0.2,0.5,0.3C149.7,90.2,149.7,90.2,149.7,90.3z"/>
			<path d="M187.9,90.5c-0.2-0.2-0.3-0.3-0.3-0.4c0.1-0.1,0.3-0.3,0.3-0.3c0.2,0,0.3,0.2,0.4,0.3C188.2,90.2,188,90.3,187.9,90.5z"
				/>
			<path d="M189.7,90.3c-0.2,0-0.4,0-0.8,0c0.3-0.3,0.3-0.4,0.5-0.5c0.2,0.2,0.3,0.3,0.4,0.4C189.8,90.2,189.8,90.3,189.7,90.3
				L189.7,90.3z"/>
			<path d="M190.9,86c-0.2-0.2-0.3-0.3-0.3-0.3c0.1-0.2,0.2-0.3,0.3-0.3c0.1,0,0.3,0.2,0.3,0.3C191.1,85.8,191.1,85.9,190.9,86z"/>
			<path d="M189.2,86.8c0.2,0.1,0.3,0.3,0.5,0.3c-0.1,0.1-0.3,0.3-0.3,0.3c-0.2-0.1-0.3-0.3-0.4-0.3C189.1,87,189.1,86.9,189.2,86.8
				z"/>
			<path d="M170.3,82.8c0.7-0.2,1.3-0.3,2-0.4c0,0.1,0,0.1,0,0.2C171.5,82.6,170.9,82.8,170.3,82.8
				C170.3,82.8,170.3,82.8,170.3,82.8z"/>
			<path d="M148.4,87.6c0.2,0,0.4,0,0.8,0c-0.2,0.3-0.3,0.4-0.4,0.5C148.6,88,148.5,87.8,148.4,87.6
				C148.3,87.7,148.3,87.7,148.4,87.6z"/>
			<path d="M146,86.9c0.3,0,0.4,0.1,0.7,0.1c0,0.1-0.1,0.3-0.1,0.3c-0.3,0-0.4-0.1-0.7-0.1C145.9,87.1,145.9,87,146,86.9z"/>
			<path d="M192.1,87.7c-0.2,0.1-0.3,0.3-0.4,0.3c-0.1,0-0.3-0.2-0.3-0.3c0.2-0.1,0.4-0.2,0.6-0.3C191.9,87.6,192,87.7,192.1,87.7z"
				/>
			<path d="M191.2,86.2c0.2,0,0.4-0.1,0.6-0.1c0,0.2,0,0.3,0,0.4c-0.2,0-0.4-0.1-0.6-0.1C191.2,86.4,191.2,86.3,191.2,86.2z"/>
			<path d="M193.2,88.3c-0.2-0.2-0.3-0.3-0.3-0.4c0.1-0.1,0.3-0.3,0.3-0.3c0.1,0,0.3,0.2,0.3,0.3C193.5,87.9,193.3,88.1,193.2,88.3z
				"/>
			<path d="M147.5,85.5c0.2,0,0.4,0,0.6,0c0,0,0,0.3,0,0.3c-0.2,0-0.4-0.1-0.6-0.1C147.5,85.7,147.5,85.6,147.5,85.5z"/>
			<path d="M161.4,111c0.7,0.1,0.6,0.5,0.6,0.9c0,0.3-0.1,0.7,0,1c0.3-0.5,0.5-1,0.8-1.6c0.4,0.3,0.6,0.5,0.4,1
				c-0.1,0.3,0,0.8,0.1,1.1c0.2-0.4,0.3-0.9,0.4-1.4c0.1-0.2,0.3-0.3,0.4-0.4c0,0.2,0.2,0.4,0.1,0.6c-0.3,0.9-0.5,1.8-0.9,2.7
				c-0.1,0.3-0.3,0.7-0.7,0.5c-0.4-0.2-0.3-0.5-0.3-0.9c0.1-0.3,0.1-0.8,0.1-1.1c-0.1,0-0.1,0-0.2-0.1c-0.2,0.4-0.3,0.8-0.6,1.2
				c-0.2,0.2-0.3,0.5-0.5,0.5c-0.4,0-0.4-0.4-0.3-0.7C161.1,113.4,161.2,112.2,161.4,111L161.4,111z"/>
			<path d="M157.6,111.7c0.5-0.4,0.5-1.4,1.4-1.6c-0.1,0.7-0.1,1.3-0.2,1.9c0,0,0.1,0,0.1,0.1c0.2-0.4,0.4-0.8,0.6-1.2
				c0.2-0.3,0.4-0.3,0.7-0.1c-0.5,1-1,2.1-1.5,3.2c-0.1,0.2-0.3,0.3-0.5,0.3c-0.3,0-0.4-0.2-0.3-0.5c0.2-0.5,0.2-1,0.3-1.5
				c-0.1,0-0.1-0.1-0.2-0.1c-0.3,0.4-0.6,0.9-0.9,1.4c-0.1,0.3-0.3,0.4-0.5,0.2c-0.2-0.1-0.3-0.4-0.3-0.6c0.3-1,0.5-2.1,0.9-3.1
				c0-0.2,0.3-0.3,0.3-0.3c0.1,0.2,0.2,0.3,0.2,0.5c-0.1,0.5-0.3,0.9-0.3,1.5C157.4,111.6,157.5,111.7,157.6,111.7L157.6,111.7z"/>
			<path d="M168,112.1c0.9,0,1.2,0.3,1.2,1.1c0,0.8,0,1.6,0,2.4c0,0.3,0.1,0.7-0.3,0.7c-0.2,0-0.3-0.4-0.4-0.7c-0.1-0.3,0-0.6,0-0.9
				c0-0.2-0.2-0.3-0.3-0.4c-0.1,0.2-0.3,0.3-0.3,0.4c0,0.3,0,0.6,0,0.9c0,0.2-0.2,0.3-0.3,0.4c-0.2-0.2-0.3-0.3-0.4-0.4
				c-0.1-0.5,0-1,0-1.5c0-0.5,0.1-1,0.1-1.5C167.3,112.1,167.7,112,168,112.1z"/>
			<path d="M172,116c-0.1-1.2-0.2-2.3-0.3-3.4c0-0.4,0.1-0.6,0.5-0.6c1.3,0,1.4,0.1,1.6,1.4c0.1,0.5,0.1,1,0.1,1.5c0,0.7-0.3,1-1,1
				C172.7,116,172.3,116,172,116z M173.3,114.7C173.3,114.7,173.2,114.7,173.3,114.7c-0.1-0.6-0.2-1.2-0.3-1.7
				c0-0.2-0.3-0.3-0.3-0.5c-0.1,0.2-0.2,0.3-0.2,0.5c0,0.5,0,1.1,0.1,1.6c0,0.3,0.2,0.5,0.3,0.8
				C173.1,115.2,173.2,114.9,173.3,114.7L173.3,114.7z"/>
			<path d="M153.1,111.9c-0.9-0.6,0.1-1.5-0.4-2.2c-0.3,0.4-0.4,0.9-0.7,1.1c-0.1,0.1-0.3,0.2-0.5,0.2c0-0.2-0.2-0.4-0.1-0.6
				c0.5-0.9,1.1-1.8,1.7-2.7c0.1-0.1,0.3-0.2,0.4-0.3c0.1,0.2,0.2,0.3,0.2,0.4c0,0.4-0.1,0.9-0.2,1.2c0,0.1,0,0.3,0.2,0.4
				c0.3-0.4,0.5-0.9,0.8-1.2c0.1-0.1,0.3-0.2,0.3-0.2c0.1,0.1,0.2,0.3,0.2,0.3c-0.5,1-1.1,2.1-1.6,3.1
				C153.2,111.8,153.1,111.8,153.1,111.9L153.1,111.9z"/>
			<path d="M179.9,110.4c0.4-0.2,0.9-0.3,1.3-0.4c0.2,0,0.5,0.2,0.6,0.3c0.4,0.9,0.8,1.7,1.1,2.6c0.1,0.2-0.1,0.4-0.2,0.6
				c-0.1,0.1-0.3,0.2-0.3,0.3c-0.9,0.4-1.1,0.7-1.5-0.5C180.6,112.3,180.2,111.5,179.9,110.4L179.9,110.4z M181.1,110.5
				c-0.1,0-0.1,0-0.2,0.1c0,0.2,0,0.3,0,0.5c0.2,0.7,0.4,1.3,0.7,2c0.1,0.2,0.3,0.3,0.4,0.3c0-0.2,0.2-0.3,0.1-0.5
				c-0.2-0.6-0.4-1.2-0.7-1.8C181.3,110.9,181.2,110.7,181.1,110.5z"/>
			<path d="M180.5,114.4c-0.3,0.1-0.4,0.2-0.6,0.2c-0.5-0.3-0.3-1.3-0.9-1.5c-0.1,0-0.2,0.1-0.2,0.1c0.1,0.3,0.2,0.7,0.3,1.1
				c0,0.3-0.1,0.7-0.2,0.7c-0.4,0.2-0.5-0.2-0.5-0.5c-0.2-0.9-0.4-1.7-0.6-2.6c-0.1-0.3-0.3-0.7,0.3-0.9c0.9-0.3,1.4-0.3,1.5,0.3
				C179.9,112.3,180.1,113.4,180.5,114.4z M179.2,112.2c-0.2-0.3-0.3-0.5-0.5-0.8c0,0-0.3,0.1-0.3,0.2c0.1,0.3,0.2,0.6,0.3,0.9
				C178.8,112.4,178.9,112.3,179.2,112.2z"/>
			<path d="M184.1,108.6c0.3-0.2,0.7-0.3,0.9-0.5c0.6-0.3,1.1-0.2,1.3,0.4c0.3,0.9,0.9,1.4,1.3,2.1c0.1,0.2,0.2,0.3,0.1,0.4
				c0,0.1-0.3,0.3-0.3,0.3c-0.1,0-0.3-0.1-0.3-0.3c-0.2-0.3-0.3-0.6-0.5-0.9c-0.1-0.1-0.3-0.2-0.5-0.3c0,0.2-0.1,0.4,0,0.6
				c0.1,0.3,0.3,0.5,0.3,0.8c0,0.2-0.1,0.3-0.1,0.5c-0.2-0.1-0.4-0.1-0.4-0.2C185.2,110.8,184.7,109.8,184.1,108.6z M185.9,109.4
				c-0.1-0.3-0.3-0.4-0.3-0.7c-0.1-0.1-0.2-0.1-0.3-0.2c-0.1,0.1-0.2,0.3-0.2,0.3c0.1,0.3,0.3,0.4,0.3,0.7
				C185.6,109.6,185.7,109.5,185.9,109.4z"/>
			<path d="M175.1,112.5c-0.1-0.7,0.3-0.9,0.9-1c0.6-0.2,0.9,0.1,1.1,0.7c0.2,0.7,0.4,1.3,0.5,2c0.2,0.7-0.3,1.3-0.9,1.4
				c-0.5,0.1-1.1-0.3-1.2-1C175.4,113.9,175.2,113.2,175.1,112.5z M176.9,114.4c-0.2-0.8-0.3-1.5-0.5-2.1c0-0.1-0.2-0.2-0.3-0.3
				c-0.1,0.1-0.2,0.3-0.1,0.3c0.1,0.7,0.2,1.4,0.3,2.1c0,0.2,0.3,0.3,0.3,0.4C176.7,114.7,176.8,114.6,176.9,114.4z"/>
			<path d="M166.7,113.4c-0.1,0.6-0.2,1.3-0.3,1.9c-0.2,0.6-0.8,0.9-1.4,0.6c-0.4-0.2-0.7-0.8-0.7-1.2c0.1-0.6,0.2-1.2,0.3-1.8
				c0.2-0.8,0.8-1.2,1.5-0.9c0.3,0.1,0.3,0.4,0.5,0.8C166.7,112.8,166.6,113.1,166.7,113.4C166.6,113.4,166.7,113.4,166.7,113.4z
				 M165.1,114.9c0.1,0.1,0.2,0.3,0.3,0.4c0.1-0.1,0.3-0.2,0.3-0.3c0.2-0.7,0.3-1.4,0.3-2.1c0-0.1-0.2-0.3-0.3-0.4
				c-0.1,0.1-0.3,0.2-0.3,0.3C165.4,113.4,165.3,114.1,165.1,114.9z"/>
			<path d="M183.8,109.3c-0.4,0.2-0.9,0.4-0.5,0.9c0.3,0.3,0.7,0.3,1.1,0.5c-0.1,0.2-0.2,0.3-0.3,0.3c-0.4,0.3-0.3,0.5-0.1,0.8
				c0.2,0.3,0.3,0.5,0.7,0.3c0.1-0.1,0.3,0.1,0.4,0.1c-0.1,0.1-0.2,0.3-0.2,0.3l-0.1,0.1c-1.1,0.6-1.1,0.6-1.5-0.5
				c-0.3-0.7-0.6-1.3-0.9-2c-0.1-0.3-0.3-0.6,0.1-0.9C183,109.1,183.4,108.8,183.8,109.3z"/>
			<path d="M155.4,113.1c-0.4-0.2-0.9-0.4-1.3-0.6c-0.1,0-0.1-0.3,0-0.4c0.5-1,0.9-2,1.5-3c0.1-0.1,0.3-0.2,0.4-0.1
				c0.3,0.1,0.5,0.2,0.7,0.3c0.1,0.1,0.2,0.3,0.2,0.3c0,0.1-0.3,0.2-0.3,0.2c-0.4-0.2-0.5,0.1-0.7,0.3c-0.2,0.3-0.1,0.5,0.2,0.7
				c0.1,0.1,0.1,0.3,0.2,0.3c-0.2,0-0.3,0.2-0.4,0.1c-0.5-0.3-0.6,0.2-0.8,0.5c-0.2,0.3,0,0.5,0.3,0.7c0.2,0.1,0.2,0.3,0.3,0.3
				C155.5,112.9,155.4,113,155.4,113.1z"/>
			<path d="M170.6,113.9c0,0.3,0,0.5,0,0.8c-0.1,0.5,0.1,0.9,0.7,0.9c0.1,0,0.2,0.1,0.3,0.2c-0.1,0.1-0.1,0.3-0.2,0.3
				c-0.3,0.1-0.8,0.2-1.1,0.1c-0.2,0-0.3-0.3-0.3-0.5c0-1,0-2.1,0-3.1c0-0.2,0.3-0.3,0.4-0.5c0.1,0.2,0.3,0.3,0.3,0.5
				C170.7,113.1,170.6,113.5,170.6,113.9z"/>
			<path d="M177.5,75.2c0.7-1.7,1.2-3.4,0.9-5.3C178.7,71.7,178.4,73.6,177.5,75.2z"/>
			<path d="M166.4,70.7c-0.2-1.9,1.5-3.1,3.4-2.8c1.4,0.2,2.6,1.5,2.5,2.9c-0.1,1.8-1.4,3-3.4,2.9C167.7,73.6,166.2,72.4,166.4,70.7
				z M169.5,69.5c0,0.5,0.4,0.9,0.9,0.9c0.3,0,0.9-0.5,0.9-0.9c0-0.5-0.3-0.9-0.9-0.9C169.7,68.5,169.5,68.9,169.5,69.5z"/>
			<path d="M171,67.8c-1.6-0.7-3.2-0.5-4.3,0.9c-1,1.2-0.9,2.5-0.3,3.9c-0.9-1.2-0.8-2.8,0-3.8C167.8,67.1,169.6,66.9,171,67.8z"/>
			<path d="M172.4,69.3c0.6,0.7,0.6,1.8,0.2,2.6C172.8,71,172.8,70.1,172.4,69.3z"/>
			<path d="M165.3,98c-0.1,0.5-0.2,1.1-0.3,1.6c-0.1,0-0.1,0-0.2,0c0.1-0.5,0.2-1.1,0.3-1.6C165.2,98,165.2,98,165.3,98z"/>
			<path d="M177.6,99.4c0.6,0.5,0.6,0.5,1,2.3C178.2,100.9,177.9,100.1,177.6,99.4z"/>
			<path d="M173.9,97.5c0.2,0.7,0.3,1.5,0.5,2.1c-0.1,0-0.2,0-0.3,0.1c-0.2-0.7-0.3-1.5-0.4-2.1C173.7,97.5,173.8,97.5,173.9,97.5z"
				/>
			<path d="M140.8,84.4c0.7-0.4,1.2-0.2,1.7,0.1C142.1,84.4,141.5,84.4,140.8,84.4z"/>
			<path d="M142,66.5c0.3-0.3,0.6-0.7,0.9-1c0.3-0.2,0.5-0.3,0.9-0.6C143.3,65.7,142.4,66.4,142,66.5z"/>
			<path d="M199.6,51.2c0,0.8-0.1,1.5-0.1,2.2c-0.1,0-0.2,0-0.3,0c0.1-0.8,0.1-1.5,0.2-2.2C199.5,51.2,199.5,51.2,199.6,51.2z"/>
			<path d="M139.6,51.1c0.1,0.3,0.1,0.5,0.2,0.7c0,0.4,0,0.9,0,1.4c0,0.3-0.1,0.8-0.1,1.1C139.4,53.3,139.4,52.1,139.6,51.1
				C139.5,51.1,139.6,51.1,139.6,51.1z"/>
			<path d="M187.7,48.5c0.3,0.1,0.5,0.3,0.8,0.3c0.3,0.1,0.7,0.1,1,0.2c-0.4,0.3-0.4,0.3-1.9-0.3C187.7,48.5,187.7,48.5,187.7,48.5z
				"/>
			<path d="M151.4,48.7c-0.6,0.2-1.3,0.3-1.9,0.4c0-0.1,0-0.2-0.1-0.3c0.6-0.2,1.3-0.3,1.9-0.5C151.3,48.5,151.3,48.6,151.4,48.7
				L151.4,48.7z"/>
			<path d="M194.2,55c-1.1,0.4-1.7-0.7-2.7-1c0-0.1,0.1-0.2,0.1-0.2C192.3,54.2,193.3,54.6,194.2,55z"/>
			<path d="M146.4,54.4c-0.3,0.6-1.1,0.9-1.5,0.5C145.4,54.8,145.9,54.6,146.4,54.4L146.4,54.4z"/>
		</g>
	</g>
</g>
</svg>
