<?xml version="1.0" encoding="utf-8"?>
<!-- Generator: Adobe Illustrator 26.0.1, SVG Export Plug-In . SVG Version: 6.00 Build 0)  -->
<svg version="1.1" id="Слой_1" xmlns:xodm="http://www.corel.com/coreldraw/odm/2003"
	 xmlns="http://www.w3.org/2000/svg" xmlns:xlink="http://www.w3.org/1999/xlink" x="0px" y="0px" viewBox="0 0 238.1 150.2"
	 style="enable-background:new 0 0 238.1 150.2;" xml:space="preserve">
<g id="Слой_x0020_1">
	<g id="_105553260094656">
		<g>
			<path d="M195.8,150.1c-1.6-1-3.2-2-4.9-3c2-3.3,4-6.5,6.1-10.1c2.1,3.5,4.1,6.8,6.1,10.1c-1.7,1-3.3,2-5,3
				C197.4,150.1,196.6,150.1,195.8,150.1L195.8,150.1z"/>
			<path d="M39.4,150.1c-1.6-1-3.2-2-4.9-3c2-3.3,4-6.5,6.1-10.1c2.1,3.5,4.1,6.8,6.1,10.1c-1.7,1-3.3,2-5,3
				C40.9,150.1,40.1,150.1,39.4,150.1z"/>
			<path d="M78.7,150.1c-1.6-1-3.2-2-4.9-3c2-3.3,4-6.5,6.1-10.1c2.1,3.5,4.1,6.8,6.1,10.1c-1.7,1-3.3,2-5,3
				C80.3,150.1,79.5,150.1,78.7,150.1z"/>
			<path d="M117.8,150.1c-1.6-1-3.2-2-4.9-3c2-3.3,4-6.5,6.1-10.1c2.1,3.5,4.1,6.8,6.1,10.1c-1.7,1-3.3,2-5,3
				C119.4,150.1,118.7,150.1,117.8,150.1z"/>
			<path d="M157.7,150.1c-1.6-1-3.2-2-4.9-3c2-3.3,4-6.5,6.1-10.1c2.1,3.5,4.1,6.8,6.1,10.1c-1.7,1-3.3,2-5,3
				C159.2,150.1,158.5,150.1,157.7,150.1z"/>
			<path d="M0,54.4c0.2-0.2,0.5-0.4,0.9-0.8c2.2,3.3,4.4,6.5,6.8,10C6.4,64.3,5,65,3.7,65.7c-0.7,0.4-1.3,0.8-2.1,1.1
				c-0.4,0.1-1,0-1.6,0.1C0,62.7,0,58.5,0,54.4z"/>
			<path d="M0,10.4c0.2-0.2,0.5-0.4,0.9-0.8c2.2,3.3,4.4,6.5,6.8,10C6.4,20.3,5,21,3.7,21.7c-0.7,0.4-1.3,0.8-2.1,1.1
				C1.1,23,0.5,22.9,0,22.9C0,18.7,0,14.5,0,10.4z"/>
			<path d="M0,93.2c0.2-0.2,0.5-0.4,0.9-0.8c2.2,3.3,4.4,6.5,6.8,10c-1.3,0.7-2.6,1.4-3.9,2.1c-0.7,0.4-1.3,0.8-2.1,1.1
				c-0.5,0.2-1.1,0.1-1.6,0.1C0,101.5,0,97.3,0,93.2z"/>
			<path d="M0,137.8c0.2-0.2,0.5-0.4,0.9-0.8c2.2,3.3,4.4,6.5,6.7,10c-1.8,1-3.6,2-5.4,3c-0.7,0-1.4,0-2.1,0C0,146,0,142,0,137.8z"
				/>
			<path d="M52.2,0.1c0.6,4.8,3.7,8,8.2,8.1c4.2,0,7.8-3,8.3-7.3c0-0.3,0.1-0.5,0.2-0.8c0.5,0,0.9,0,1.4,0c-0.1,4.6-3.3,8.4-7.8,9.4
				c-3.1,0.7-5.7-0.2-8.1-2c-2.4-1.8-3.6-4.3-3.6-7.4C51.2,0.1,51.7,0.1,52.2,0.1z"/>
			<path d="M211.7,0.1c0.6,4.8,3.7,8,8.2,8.1c4.2,0,7.8-3,8.3-7.3c0-0.3,0.1-0.5,0.2-0.8c0.5,0,0.9,0,1.4,0
				c-0.1,4.6-3.3,8.4-7.8,9.4c-3.1,0.7-5.7-0.2-8.1-2c-2.4-1.8-3.6-4.3-3.6-7.5C210.7,0.1,211.2,0.1,211.7,0.1z"/>
			<path d="M130.1,0.1c0.6,4.8,3.7,8,8.2,8.1c4.2,0,7.8-3,8.3-7.3c0-0.3,0.1-0.5,0.2-0.8c0.5,0,0.9,0,1.4,0
				c-0.1,4.6-3.3,8.4-7.8,9.4c-3.1,0.7-5.7-0.2-8.1-2c-2.4-1.8-3.6-4.3-3.6-7.5C129.2,0.1,129.6,0.1,130.1,0.1z"/>
			<path d="M238,105.9c-2-1.1-4.1-2.3-6.3-3.4c2.1-3.4,4.2-6.7,6.3-10C238,96.9,238,101.5,238,105.9z"/>
			<path d="M238,67.1c-2-1.1-4.1-2.3-6.3-3.4c2.1-3.4,4.2-6.7,6.3-10C238,58.1,238,62.6,238,67.1z"/>
			<path d="M238,23.1c-2-1.1-4.1-2.3-6.3-3.4c2.1-3.4,4.2-6.7,6.3-10C238,14.2,238,18.6,238,23.1z"/>
			<path d="M236.8,150.1c-1.6-1-3.2-2-4.9-3c1.1-1.8,2.2-3.6,3.3-5.3c0.9-1.5,1.9-3,2.9-4.5c0,4.3,0,8.7,0,12.9
				C237.6,150.1,237.2,150.1,236.8,150.1L236.8,150.1z"/>
			<path d="M25.9,0.1c-0.2,0.3-0.3,0.6-0.5,0.9c0.9,0.8,1.8,1.7,1.3,3.2c-0.4,1.2-1.3,1.7-2.5,1.8c-0.1,0.5,0,1.5-1.1,1
				c0-0.3-0.1-0.6-0.2-1c-0.5,0-1,0-1.6,0c-0.1,0.5,0,1.5-1.2,1c0-0.3-0.1-0.6-0.1-1c-0.7,0-1.4-0.1-2.1-0.1c0-0.4,0-0.8,0-1.3
				C18,4.4,18.4,4.4,19,4.3c0-1.4,0-2.8,0-4.2C21.3,0.1,23.6,0.1,25.9,0.1z M21.1,4.1c0.9,0,1.6,0,2.4,0c0.7,0,1.2-0.1,1.2-0.9
				c0-0.8-0.2-1.3-1.1-1.3c-0.8,0-1.6,0-2.5,0C21.1,2.7,21.1,3.3,21.1,4.1z"/>
			<path d="M103.8,0.1c-0.2,0.3-0.3,0.6-0.5,0.9c0.9,0.8,1.8,1.7,1.3,3.2c-0.4,1.2-1.3,1.7-2.6,1.8c-0.1,0.5,0,1.5-1.1,1
				c0-0.3-0.1-0.6-0.2-1c-0.5,0-1,0-1.6,0c-0.1,0.5,0,1.5-1.2,1c0-0.3-0.1-0.6-0.1-1c-0.7,0-1.4-0.1-2.1-0.1c0-0.4,0-0.8,0-1.3
				c0.4-0.1,0.7-0.1,1.3-0.2c0-1.4,0-2.8,0-4.2C99.3,0.1,101.5,0.1,103.8,0.1z M99.1,4.1c1,0,1.8,0,2.6,0c0.6,0,1-0.2,1-0.9
				c0-0.6,0-1.2-0.8-1.3c-0.9-0.1-1.8,0-2.7,0C99.1,2.7,99.1,3.3,99.1,4.1z"/>
			<path d="M181.6,0.1c-0.2,0.3-0.3,0.6-0.5,0.9c0.9,0.8,1.8,1.7,1.3,3.2c-0.4,1.2-1.3,1.7-2.5,1.8c-0.3,1.1-0.3,1.1-1.2,1.1
				c-0.1-0.3-0.1-0.7-0.2-1c-0.5,0-1,0-1.6,0c-0.1,0.5,0,1.5-1.2,1c0-0.3-0.1-0.6-0.1-1c-0.7,0-1.4-0.1-2.1-0.1c0-0.4,0-0.8,0-1.3
				c0.4-0.1,0.7-0.1,1.3-0.2c0-1.4,0-2.8,0-4.2C177,0.1,179.2,0.1,181.6,0.1L181.6,0.1z M176.8,4.1c1,0,1.8,0,2.6,0c0.7,0,1-0.3,1-1
				c0-0.7-0.2-1.2-1-1.2c-0.9,0-1.7,0-2.6,0C176.8,2.7,176.8,3.3,176.8,4.1z"/>
			<path d="M169.8,0.1c-0.6,0.6-0.5,1.2,0,1.9c2.6,3.3,5.1,6.7,7.8,10.1c0.3-0.4,0.6-0.6,0.8-0.9c2.3-3,4.6-6.1,7.1-9.2
				c0.6-0.7,0.6-1.2,0-1.9c0.4,0,0.8,0,1.2,0c0.2,0.3,0.5,0.6,0.7,1c-3.2,4.2-6.5,8.5-9.8,12.7c-3.2-4.2-6.5-8.5-9.8-12.7
				c0.3-0.3,0.5-0.7,0.7-1C169,0.1,169.4,0.1,169.8,0.1L169.8,0.1z"/>
			<path d="M92,0.1c-0.6,0.6-0.5,1.2,0,1.9c2.6,3.3,5.1,6.7,7.8,10.1c0.3-0.4,0.6-0.6,0.8-0.9c2.3-3,4.6-6.1,7.1-9.2
				c0.6-0.7,0.6-1.2,0-1.9c0.4,0,0.8,0,1.2,0c0.2,0.3,0.5,0.6,0.7,1c-3.2,4.2-6.5,8.5-9.8,12.7C96.6,9.6,93.3,5.3,90,1.1
				c0.3-0.3,0.5-0.7,0.7-1C91.2,0.1,91.6,0.1,92,0.1z"/>
			<path d="M14,0.1c-0.6,0.6-0.5,1.2,0,1.9c2.6,3.3,5.1,6.7,7.8,10.1c0.3-0.4,0.6-0.6,0.8-0.9c2.3-3,4.6-6.1,7.1-9.2
				c0.6-0.7,0.6-1.2,0-1.9c0.4,0,0.8,0,1.2,0c0.2,0.3,0.5,0.6,0.7,1c-3.2,4.2-6.5,8.5-9.8,12.7C18.5,9.5,15.3,5.2,12.1,1
				c0.3-0.3,0.5-0.7,0.7-1C13.2,0.1,13.6,0.1,14,0.1z"/>
			<path d="M224,0.1c1.5,2.3,0.5,3.9-2.6,4.4c0,0.5,0.1,1,0,1.4c0,0.2-0.4,0.4-0.6,0.7c-0.2-0.2-0.4-0.4-0.5-0.6c-0.1-0.5,0-1,0-1.5
				c-0.8-0.2-1.3-0.1-1.2,0.8c0,0.3,0,0.6,0,0.8c-0.1,0.2-0.3,0.4-0.4,0.6c-0.2-0.2-0.5-0.3-0.6-0.5c-0.1-0.5-0.1-1.1-0.1-1.7
				c-0.7,0-1.4,0-2.2,0c0-0.4,0-0.9,0.1-0.9c1.4-0.5,1-1.7,1-2.7c0-0.2,0-0.5,0-0.7C219.3,0.1,221.7,0.1,224,0.1L224,0.1z
				 M219.2,2.7c0.9,0,1.7,0.1,2.4,0c0.4-0.1,0.9-0.7,1-1.2c0-0.3-0.6-0.9-1-1c-0.7-0.2-1.5,0-2.3,0C219.2,1.3,219.2,1.9,219.2,2.7z"
				/>
			<path d="M142.4,0.1c1.5,2.3,0.5,3.9-2.6,4.4c0,0.5,0.1,1,0,1.4c0,0.2-0.4,0.4-0.6,0.7c-0.2-0.2-0.4-0.4-0.5-0.6
				c-0.1-0.5,0-1,0-1.5c-0.8-0.2-1.3-0.1-1.2,0.8c0,0.3,0,0.6,0,0.8c-0.1,0.2-0.3,0.4-0.4,0.6c-0.2-0.2-0.5-0.3-0.6-0.5
				c-0.1-0.5-0.1-1.1-0.1-1.7c-0.7,0-1.4,0-2.2,0c0-0.4,0-0.9,0.1-0.9c1.4-0.5,1-1.7,1-2.7c0-0.2,0-0.5,0-0.7
				C137.7,0.1,140.1,0.1,142.4,0.1L142.4,0.1z M137.6,0.5c0,0.8,0,1.5,0,2.3c0.8,0,1.6,0.1,2.3,0c0.4-0.1,0.9-0.7,1-1.1
				c0-0.3-0.6-0.9-1-1C139.2,0.4,138.4,0.5,137.6,0.5z"/>
			<path d="M64.5,0.1C66,2.4,65,4,61.9,4.5c0,0.5,0.1,1,0,1.4c0,0.2-0.4,0.4-0.6,0.7c-0.2-0.2-0.4-0.4-0.5-0.6c-0.1-0.5,0-1,0-1.5
				c-0.8-0.2-1.3-0.1-1.2,0.8c0,0.3,0,0.6,0,0.8c-0.1,0.2-0.3,0.4-0.4,0.6c-0.3-0.3-0.6-0.5-0.7-0.7c-0.1-0.5-0.1-1.1-0.1-1.7
				c-0.7,0-1.4,0-2.2,0c0-0.4,0-0.9,0.1-0.9c1.4-0.5,1-1.7,1-2.7c0-0.2,0-0.5,0-0.7C59.8,0.1,62.1,0.1,64.5,0.1z M59.6,2.7
				c0.9,0,1.7,0.1,2.4,0c0.4-0.1,0.9-0.7,0.9-1.1c0-0.4-0.6-1-1-1.1c-0.8-0.2-1.6,0-2.4,0C59.6,1.3,59.6,2,59.6,2.7z"/>
			<path d="M0,106.8c0.5,0,1.1,0,1.6-0.2c1.8-0.9,3.6-1.9,5.6-2.6c-2.1,2.6-4.2,5.3-6.4,8.1c-0.3-0.3-0.6-0.5-0.8-0.8
				C0,109.8,0,108.3,0,106.8z"/>
			<path d="M0,24.1c0.5,0,1.1,0,1.6-0.2C3.4,23,5.2,22,7.3,21.3c-2.1,2.6-4.2,5.3-6.4,8.1c-0.3-0.3-0.6-0.5-0.8-0.8
				C0,27,0,25.5,0,24.1z"/>
			<path d="M0,68c0.5,0,1.1,0,1.6-0.2c1.8-0.9,3.6-1.9,5.6-2.6c-2.1,2.6-4.2,5.3-6.4,8.1C0.5,73,0.3,72.8,0,72.5C0,71,0,69.5,0,68z"
				/>
			<path d="M238,29.2c-1.6-2.1-3.2-4.3-4.7-6.4c-0.4-0.5-0.7-1-0.9-1.6c1.9,1.1,3.8,2.1,5.7,3.2C238,25.9,238,27.6,238,29.2
				L238,29.2z"/>
			<path d="M238,112c-1.6-2.1-3.2-4.3-4.7-6.4c-0.4-0.5-0.7-1-0.9-1.6c1.9,1.1,3.8,2.1,5.7,3.2C238,108.7,238,110.3,238,112L238,112
				z"/>
			<path d="M238,73.2c-1.6-2.1-3.2-4.3-4.7-6.4c-0.4-0.5-0.7-1-0.9-1.6c1.9,1.1,3.8,2.1,5.7,3.2C238,69.9,238,71.5,238,73.2
				L238,73.2z"/>
			<path d="M4.3,150.1c0.9-0.6,1.8-1.1,2.8-1.7c0.1,0.1,0.1,0.1,0.2,0.2c-0.3,0.5-0.7,1-1.1,1.5C5.5,150.1,4.9,150.1,4.3,150.1
				L4.3,150.1z"/>
			<path d="M35.6,150.1c-0.3-0.5-0.6-1-0.8-1.4l0.1-0.1c0.9,0.5,1.7,1.1,2.6,1.6C36.9,150.1,36.2,150.1,35.6,150.1L35.6,150.1z"/>
			<path d="M74.9,150.1c-0.3-0.5-0.6-1-0.8-1.4l0.1-0.1c0.9,0.5,1.7,1.1,2.6,1.6C76.2,150.1,75.6,150.1,74.9,150.1L74.9,150.1z"/>
			<path d="M114,150.1c-0.3-0.5-0.6-1-0.8-1.4l0.1-0.1c0.9,0.5,1.7,1.1,2.6,1.6C115.3,150.1,114.6,150.1,114,150.1L114,150.1z"/>
			<path d="M233,150.1c-0.3-0.5-0.6-1-0.8-1.4l0.1-0.1c0.9,0.5,1.7,1.1,2.6,1.6C234.3,150.1,233.7,150.1,233,150.1L233,150.1z"/>
			<path d="M153.8,150.1c-0.3-0.5-0.6-1-0.8-1.4l0.1-0.1c0.9,0.5,1.7,1.1,2.6,1.6C155.1,150.1,154.4,150.1,153.8,150.1L153.8,150.1z
				"/>
			<path d="M192,150.1c-0.3-0.5-0.6-1-0.8-1.4l0.1-0.1c0.9,0.5,1.7,1.1,2.6,1.6C193.3,150.1,192.6,150.1,192,150.1L192,150.1z"/>
			<path d="M43.7,150.1c0.8-0.5,1.7-1.1,2.5-1.6c0.1,0,0.1,0.1,0.2,0.1c-0.3,0.5-0.5,1-0.8,1.5C44.9,150.1,44.3,150.1,43.7,150.1z"
				/>
			<path d="M83,150.1c0.8-0.5,1.7-1.1,2.5-1.6c0.1,0,0.1,0.1,0.2,0.1c-0.3,0.5-0.5,1-0.8,1.5C84.3,150.1,83.6,150.1,83,150.1z"/>
			<path d="M161.9,150.1c0.8-0.5,1.7-1.1,2.5-1.6c0.1,0,0.1,0.1,0.2,0.1c-0.3,0.5-0.5,1-0.8,1.5
				C163.2,150.1,162.5,150.1,161.9,150.1z"/>
			<path d="M200.1,150.1c0.8-0.5,1.7-1.1,2.5-1.6c0.1,0,0.1,0.1,0.2,0.1c-0.3,0.5-0.5,1-0.8,1.5
				C201.3,150.1,200.7,150.1,200.1,150.1z"/>
			<path d="M122.1,150.1c0.8-0.5,1.7-1.1,2.5-1.6c0.1,0,0.1,0.1,0.2,0.1c-0.3,0.5-0.5,1-0.8,1.5
				C123.4,150.1,122.7,150.1,122.1,150.1z"/>
			<path d="M92.8,132.7c0.6-2.2,1.2-4.3,1.8-6.7c-0.9,0.3-1.6,0.5-2.3,0.8c0-2.3,0.5-2.9,2.4-3.7c0.4-0.2,0.9-0.7,1-1.2
				c0.9-3.1,1.7-6.1,2.4-9.3c0.2-0.8,0.5-1.1,1.4-1.1c1.8,0.1,3.5,0,5.4,0c-0.8,2.9-1.5,5.6-2.3,8.7c1.1-0.4,2.1-0.7,3.2-1.1
				c-0.3,1.1-0.4,2-0.8,2.8c-0.2,0.4-0.8,0.6-1.2,0.7c-1.5,0.4-2.5,1.2-2.7,2.9c-0.1,1-0.5,1.9-0.8,3.1c3.6,0,7.3,0,11,0
				c-0.4,1.3-0.7,2.5-1,3.7c-0.1,0.2-0.5,0.4-0.7,0.4C104.1,132.7,98.6,132.7,92.8,132.7L92.8,132.7z"/>
			<path d="M177.7,128.6c3.7,0,7.3,0,11,0c-0.4,1.3-0.7,2.6-1.1,3.8c0,0.2-0.4,0.3-0.7,0.3c-5.6,0-11.2,0-16.9,0
				c0.6-2.2,1.1-4.3,1.8-6.7c-0.8,0.3-1.6,0.5-2.3,0.7c-0.2-1.9,0.5-3,2.2-3.5c0.8-0.2,1-0.7,1.2-1.4c0.9-3.4,1.8-6.8,2.7-10.3
				c2.1,0,4.2,0,6.6,0c-0.7,2.8-1.5,5.6-2.3,8.6c1.1-0.4,2.1-0.7,3.2-1.1c-0.3,1-0.4,1.9-0.8,2.7c-0.1,0.3-0.7,0.6-1.1,0.7
				c-1.7,0.4-2.7,1.3-2.9,3.1C178.4,126.6,178,127.5,177.7,128.6L177.7,128.6z"/>
			<path d="M26.8,111.5c-0.8,2.9-1.5,5.6-2.3,8.7c1.1-0.4,2.1-0.7,3-1c0.1,2.1-0.4,3-2.4,3.6c-1.1,0.4-1.7,0.9-1.9,2.1
				c-0.2,1.1-0.6,2.2-0.9,3.5c3.6,0,7.2,0,11,0c-0.4,1.4-0.7,2.7-1.1,3.9c0,0.1-0.4,0.3-0.6,0.3c-5.6,0-11.2,0-16.9,0
				c0.6-2.2,1.1-4.3,1.8-6.7c-0.9,0.3-1.6,0.5-2.5,0.8c0.3-1,0.4-1.9,0.8-2.7c0.2-0.4,1-0.7,1.5-0.9c0.8-0.2,1.1-0.6,1.3-1.4
				c0.8-3.1,1.6-6.1,2.4-9.3c0.2-0.7,0.5-1.1,1.3-1.1C23.1,111.6,24.9,111.5,26.8,111.5L26.8,111.5z"/>
			<path d="M169.4,43.8c0.3-1,0.3-1.9,0.7-2.5c0.3-0.5,1-0.8,1.5-1c0.8-0.2,1.2-0.7,1.4-1.5c0.8-3,1.6-6.1,2.4-9.2
				c0.2-0.8,0.5-1.1,1.4-1.1c1.8,0.1,3.5,0,5.4,0c-0.8,2.9-1.5,5.7-2.3,8.7c1.2-0.4,2.1-0.7,3.2-1.1c-0.3,1.1-0.4,2-0.8,2.7
				c-0.2,0.4-0.8,0.6-1.2,0.7c-1.5,0.4-2.5,1.2-2.7,2.8c-0.1,1-0.5,1.9-0.8,3.1c3.6,0,7.3,0,11,0c-0.4,1.3-0.7,2.5-1,3.7
				c-0.1,0.2-0.5,0.4-0.7,0.4c-5.5,0-11.1,0-16.5,0c-0.1,0-0.1-0.1-0.3-0.1c0.6-2.1,1.1-4.1,1.7-6.4C171,43.3,170.3,43.5,169.4,43.8
				L169.4,43.8z"/>
			<path d="M16.4,43c-0.9,0.3-1.6,0.5-2.5,0.8c0.3-1,0.4-1.9,0.8-2.7c0.2-0.4,0.9-0.7,1.4-0.9c0.9-0.2,1.3-0.7,1.5-1.5
				c0.7-3,1.6-6,2.3-9.1c0.2-0.8,0.5-1.2,1.5-1.2c1.8,0.1,3.5,0,5.4,0c-0.8,2.9-1.5,5.6-2.3,8.7c1.1-0.4,2.1-0.7,3-1
				c0.1,2.1-0.4,3-2.2,3.6c-1.2,0.4-1.9,0.9-2.1,2.3c-0.1,1.1-0.6,2.2-0.9,3.4c3.6,0,7.3,0,11,0c-0.4,1.4-0.7,2.5-1,3.7
				c-0.1,0.2-0.5,0.5-0.8,0.5c-5.5,0-11.1,0-16.8,0C15.2,47.5,15.8,45.3,16.4,43z"/>
			<path d="M105,28.5c-0.8,2.9-1.5,5.6-2.3,8.7c1.1-0.4,2.1-0.7,3.3-1.1c-0.3,1-0.4,1.9-0.8,2.6c-0.2,0.4-0.7,0.7-1.1,0.8
				c-1.7,0.3-2.6,1.3-2.8,3c-0.1,1-0.5,1.9-0.8,2.9c3.6,0,7.3,0,11,0c-0.4,1.3-0.7,2.5-1,3.7c-0.1,0.2-0.5,0.4-0.7,0.4
				c-5.5,0-11.1,0-16.9,0c0.6-2.2,1.1-4.3,1.8-6.7c-0.9,0.3-1.6,0.5-2.3,0.8c0-2.3,0.5-2.9,2.4-3.7c0.4-0.2,0.9-0.7,1-1.2
				c0.9-3,1.7-6.1,2.4-9.2c0.2-0.9,0.6-1.3,1.6-1.2C101.4,28.6,103.2,28.5,105,28.5z"/>
			<path d="M50.8,83.1c0-5.3,4.2-9.7,9.7-9.7c5.4,0,9.8,4.3,9.8,9.7s-4.3,9.8-9.8,9.8C55,92.9,50.8,88.6,50.8,83.1z M60.5,75.1
				c-4.5,0-8.2,3.6-8.3,8.2c0,4.4,3.7,8.2,8.3,8.2s8.2-3.7,8.2-8.2C68.7,78.6,65,75.1,60.5,75.1z"/>
			<path d="M148.2,83.2c0,5.3-4.4,9.8-9.8,9.7c-5.4,0-9.6-4.3-9.6-10c0-5.2,4.3-9.5,9.7-9.5C143.9,73.5,148.2,77.8,148.2,83.2z
				 M138.4,75.1c-4.5,0-8.3,3.7-8.3,8.2c0,4.4,3.7,8.1,8.3,8.1c4.5,0,8.2-3.6,8.2-8.2C146.7,78.7,142.9,75.1,138.4,75.1z"/>
			<path d="M229.6,83.2c0,5.3-4.3,9.7-9.7,9.7c-6.6,0-10-5.6-9.8-10.1c0.3-5.1,4.4-9.4,9.8-9.4C225.4,73.5,229.6,77.8,229.6,83.2z
				 M220,75.1c-4.5,0-8.3,3.6-8.3,8.2c0,4.4,3.7,8.2,8.3,8.2s8.2-3.6,8.3-8.1C228.2,78.7,224.5,75.1,220,75.1z"/>
			<path d="M203.2,19.6c-2,1.1-3.8,2.3-5.7,3.3c-0.2,0.1-0.6,0.1-0.9,0c-1.9-1.1-3.8-2.2-5.7-3.3c2-3.3,4-6.7,6.3-10.2
				C199.1,13,201.1,16.2,203.2,19.6z"/>
			<path d="M79.9,53.4c2.1,3.5,4.1,6.8,6.1,10.2c-2,1.1-3.9,2.3-5.8,3.4c-0.2,0.1-0.5,0.1-0.7,0c-1.9-1.1-3.8-2.2-5.8-3.4
				C75.8,60.3,77.7,57,79.9,53.4z"/>
			<path d="M119.1,53.4c2.1,3.5,4.1,6.8,6.1,10.2c-2,1.1-3.9,2.3-5.9,3.4c-0.2,0.1-0.5,0.1-0.7,0c-1.9-1.1-3.8-2.2-5.8-3.4
				C114.8,60.3,116.8,57,119.1,53.4z"/>
			<path d="M203.2,63.6c-2,1.1-3.8,2.3-5.7,3.3c-0.2,0.1-0.6,0.1-0.9,0c-1.9-1.1-3.8-2.2-5.7-3.3c2-3.3,4-6.7,6.3-10.2
				C199.1,56.9,201.1,60.2,203.2,63.6z"/>
			<path d="M190.8,102.4c2.1-3.4,4-6.7,6.3-10.2c2.1,3.4,4.1,6.8,6.1,10.2c-1.3,0.8-2.7,1.4-4,2.3c-1.5,1.2-2.8,1.2-4.4,0
				C193.6,103.9,192.2,103.3,190.8,102.4z"/>
			<path d="M73.7,19.6c2.1-3.4,4-6.7,6.3-10.2c2.1,3.5,4.1,6.8,6.1,10.2c-2,1.1-3.9,2.3-5.8,3.4c-0.2,0.1-0.6,0-0.8-0.1
				C77.5,21.9,75.7,20.8,73.7,19.6z"/>
			<path d="M158.9,92.3c2.1,3.5,4.1,6.8,6.1,10.2c-2,1.1-3.9,2.3-5.8,3.4c-0.2,0.1-0.6,0-0.9-0.1c-1.9-1.1-3.7-2.1-5.6-3.3
				C154.6,99,156.7,95.8,158.9,92.3z"/>
			<path d="M34.4,19.6c2.1-3.4,4-6.7,6.3-10.2c2.1,3.5,4.1,6.8,6.1,10.2c-2,1.1-3.9,2.3-5.8,3.4c-0.2,0.1-0.6,0-0.8-0.1
				C38.2,21.9,36.3,20.8,34.4,19.6z"/>
			<path d="M165,63.6c-2,1.1-3.9,2.3-5.8,3.4c-0.2,0.1-0.6,0-0.9-0.1c-1.9-1.1-3.7-2.1-5.6-3.3c2-3.3,4-6.7,6.1-10.2
				C161,56.9,163,60.3,165,63.6z"/>
			<path d="M119.1,92.3c2.1,3.5,4.1,6.8,6.1,10.2c-1.9,1.1-3.8,2.3-5.8,3.3c-0.2,0.1-0.7,0-1-0.1c-1.8-1-3.6-2.1-5.6-3.2
				C114.8,99,116.8,95.8,119.1,92.3L119.1,92.3z"/>
			<path d="M79.9,92.3c2.1,3.5,4.1,6.8,6.1,10.2c-2,1.1-3.9,2.3-5.8,3.4c-0.2,0.1-0.6,0-0.9-0.1c-1.9-1.1-3.7-2.1-5.6-3.3
				C75.7,99,77.7,95.8,79.9,92.3z"/>
			<path d="M112.8,19.6c2-3.4,4-6.7,6.3-10.2c2.1,3.4,4.1,6.8,6.1,10.2c-2,1.1-3.8,2.3-5.8,3.3c-0.2,0.1-0.7,0-1-0.1
				C116.6,21.9,114.7,20.8,112.8,19.6L112.8,19.6z"/>
			<path d="M40.6,92.3c2.1,3.5,4.1,6.8,6.1,10.2c-2,1.1-3.9,2.3-5.8,3.4c-0.2,0.1-0.6,0-0.8-0.1c-1.9-1.1-3.8-2.2-5.7-3.3
				C36.4,99,38.4,95.7,40.6,92.3z"/>
			<path d="M165,19.6c-2,1.1-3.8,2.2-5.7,3.3c-0.2,0.1-0.6,0.2-0.9,0.1c-1.9-1.1-3.8-2.2-5.8-3.4c2-3.3,4-6.7,6.1-10.2
				C161,12.9,162.9,16.2,165,19.6z"/>
			<path d="M34.4,63.6c2.1-3.4,4-6.7,6.3-10.2c2.1,3.5,4.1,6.8,6.1,10.2c-2,1.1-3.9,2.3-5.8,3.4c-0.2,0.1-0.6,0-0.9-0.1
				C38.2,65.8,36.3,64.8,34.4,63.6z"/>
			<path d="M50.2,39.8c3.2-4.1,6.5-8.3,9.8-12.5c3.3,4.2,6.5,8.3,9.8,12.5c-3.2,4.2-6.5,8.4-9.8,12.7C56.8,48.3,53.5,44,50.2,39.8z
				 M60,50.9c2.8-3.6,5.4-7.1,8.1-10.6c0.2-0.3,0.1-1-0.1-1.3c-2.3-3.1-4.8-6.2-7.3-9.3c-0.2-0.3-0.4-0.5-0.7-0.8
				c-2.3,2.9-4.4,5.7-6.7,8.6c-1.8,2.3-1.8,2.3,0,4.5C55.4,44.9,57.7,47.9,60,50.9z"/>
			<path d="M128.2,39.8c3.2-4.2,6.5-8.3,9.8-12.5c3.3,4.2,6.5,8.4,9.8,12.5c-3.2,4.2-6.5,8.5-9.8,12.7
				C134.7,48.3,131.5,44,128.2,39.8z M138,50.9c2.8-3.6,5.4-7.1,8.1-10.6c0.2-0.2,0-0.9-0.2-1.2c-1.9-2.5-3.8-4.9-5.7-7.5
				c-0.7-0.9-1.4-1.7-2.1-2.7c-2.7,3.5-5.4,7-8.1,10.4c-0.1,0.2-0.1,0.7,0,0.9C132.5,43.7,135.2,47.3,138,50.9z"/>
			<path d="M228.5,39.8c-3.2,4.2-6.5,8.5-9.8,12.7c-3.3-4.3-6.5-8.5-9.8-12.7c3.2-4.1,6.5-8.3,9.8-12.5
				C222.1,31.5,225.3,35.6,228.5,39.8z M218.8,50.9c0.3-0.4,0.5-0.6,0.7-0.9c2.3-3.1,4.7-6.1,7.1-9.3c0.5-0.7,0.6-1.1,0-1.8
				c-0.8-0.8-1.4-1.8-2.1-2.7c-1.9-2.4-3.7-4.8-5.6-7.3c-0.2,0.1-0.3,0.2-0.3,0.3c-2.6,3.3-5.1,6.7-7.8,10c-0.2,0.3-0.2,0.9,0,1.2
				c0.9,1.3,2,2.6,3,3.9C215.4,46.5,217,48.7,218.8,50.9L218.8,50.9z"/>
			<path d="M12.1,83.5c3.2-4.1,6.5-8.3,9.8-12.5c3.3,4.2,6.5,8.3,9.8,12.5c-3.2,4.2-6.5,8.4-9.8,12.7C18.5,92,15.3,87.8,12.1,83.5z
				 M21.8,94.5c0.2-0.1,0.3-0.1,0.3-0.1c2.6-3.4,5.2-6.9,7.9-10.3c0.2-0.2,0.1-0.9-0.1-1.2c-0.8-1.1-1.7-2.2-2.5-3.2
				c-1.8-2.3-3.5-4.5-5.3-6.9c-0.2,0.1-0.3,0.2-0.3,0.3c-2.6,3.3-5.1,6.7-7.8,10c-0.2,0.3-0.2,0.9,0,1.2c0.9,1.3,2,2.6,3,3.9
				C18.4,90.3,20.2,92.4,21.8,94.5L21.8,94.5z"/>
			<path d="M99.8,71c3.3,4.2,6.5,8.4,9.8,12.5c-3.2,4.2-6.5,8.4-9.8,12.7c-3.2-4.2-6.5-8.5-9.8-12.7C93.2,79.4,96.5,75.3,99.8,71z
				 M99.9,72.8c-0.2,0.1-0.3,0.2-0.3,0.3c-2.6,3.3-5.1,6.7-7.8,10c-0.2,0.2-0.2,0.9,0,1.2c1,1.4,2,2.7,3,4c1.6,2.1,3.2,4.2,4.9,6.3
				c0.2-0.2,0.4-0.4,0.5-0.5c2.5-3.3,5-6.7,7.6-9.9c0.4-0.5,0.3-0.9-0.1-1.3c-0.9-1.1-1.7-2.1-2.5-3.2
				C103.4,77.4,101.7,75.1,99.9,72.8L99.9,72.8z"/>
			<path d="M187.3,83.5c-3.2,4.2-6.5,8.5-9.8,12.7c-3.2-4.2-6.5-8.5-9.8-12.7c3.2-4.1,6.5-8.3,9.8-12.5
				C180.9,75.3,184.1,79.4,187.3,83.5z M177.5,94.6c2.8-3.6,5.4-7.2,8.1-10.6c0.2-0.2,0-0.9-0.2-1.2c-1.3-1.8-2.7-3.4-4-5.2
				c-1.3-1.6-2.5-3.2-3.8-4.9c-2.7,3.5-5.4,7-8.1,10.4c-0.2,0.2-0.2,0.8,0,1C172.1,87.6,174.8,91,177.5,94.6L177.5,94.6z"/>
			<path d="M69.8,122.3c-3.2,4.2-6.5,8.5-9.8,12.7c-3.3-4.3-6.6-8.5-9.8-12.7c3.2-4.1,6.5-8.3,9.8-12.5
				C63.3,114.1,66.4,118.2,69.8,122.3z M60,133.4c2.8-3.6,5.4-7.2,8.2-10.7c0.1-0.2,0-0.7-0.1-1c-0.8-1.1-1.7-2.2-2.5-3.2
				c-1.8-2.3-3.6-4.6-5.4-7.1c-2.7,3.5-5.4,7-8.1,10.4c-0.2,0.2-0.1,0.8,0,1C54.5,126.4,57.3,129.8,60,133.4z"/>
			<path d="M147.7,122.3c-3.2,4.2-6.5,8.5-9.8,12.7c-3.2-4.2-6.5-8.5-9.8-12.7c3.2-4.1,6.5-8.3,9.8-12.5
				C141.2,114.1,144.5,118.2,147.7,122.3z M137.9,133.3c0.2-0.1,0.3-0.2,0.4-0.3c2.6-3.4,5.2-6.8,7.8-10.2c0.2-0.2,0-0.9-0.2-1.2
				c-1.1-1.4-2.2-2.8-3.3-4.3c-1.5-1.9-3-3.8-4.6-5.8c-2.8,3.5-5.4,7-8.1,10.4c-0.2,0.2-0.1,0.8,0.1,1
				C132.6,126.4,135.2,129.9,137.9,133.3L137.9,133.3z"/>
			<path d="M218.8,135.1c-3.3-4.3-6.5-8.5-9.8-12.7c3.2-4.1,6.5-8.3,9.8-12.5c3.3,4.2,6.5,8.3,9.8,12.5
				C225.3,126.6,222.1,130.8,218.8,135.1z M218.8,111.5c-2.7,3.5-5.3,7-8.1,10.3c-0.4,0.5-0.3,0.9,0.1,1.3c2.4,3.2,4.9,6.4,7.4,9.6
				c0.2,0.2,0.3,0.5,0.5,0.9c2.4-3.1,4.5-5.9,6.7-8.7c1.9-2.5,1.9-2.5,0-4.9C223.2,117.2,221.1,114.4,218.8,111.5z"/>
			<path d="M191.2,21.1c1.6,0.9,3.2,1.8,4.8,2.8c0.6,0.4,1,0.4,1.7,0c1.6-1,3.2-1.9,5-2.7c-1.9,2.6-3.8,5.3-5.8,8.2
				c-2-2.8-3.9-5.4-5.8-8.2C191.1,21.2,191.2,21.2,191.2,21.1L191.2,21.1z"/>
			<path d="M158.8,29.3c-2-2.8-3.9-5.5-5.8-8.2c0-0.1,0.1-0.1,0.1-0.2c1.6,0.9,3.1,1.8,4.6,2.7c0.7,0.5,1.2,0.5,2,0
				c1.5-1,3.1-1.9,4.9-2.6C162.8,23.9,160.9,26.5,158.8,29.3z"/>
			<path d="M40.5,29.3c-2-2.8-3.9-5.4-5.8-8.2c0-0.1,0.1-0.1,0.1-0.2c1.6,0.9,3.2,1.8,4.8,2.8c0.7,0.4,1.1,0.4,1.8,0
				c1.6-1,3.2-1.9,4.9-2.6C44.5,23.9,42.5,26.5,40.5,29.3z"/>
			<path d="M202.8,104c-1.9,2.6-3.8,5.3-5.8,8.2c-2-2.8-3.9-5.4-5.8-8.2c0-0.1,0.1-0.1,0.1-0.2c1.6,0.9,3.2,1.8,4.8,2.8
				c0.7,0.4,1.1,0.4,1.8,0c1.6-1,3.2-1.9,4.8-2.8C202.7,103.9,202.7,103.9,202.8,104L202.8,104z"/>
			<path d="M153.1,103.9c1.6,1,3.3,2,4.9,2.9c0.3,0.2,1,0.2,1.3,0c1.7-0.9,3.3-1.9,5.2-2.7c-1.9,2.6-3.8,5.3-5.8,8.2
				c-2-2.8-3.9-5.4-5.8-8.2C153,104,153.1,103.9,153.1,103.9z"/>
			<path d="M85.8,21.3c-1.9,2.6-3.8,5.3-5.8,8.2c-2-2.8-3.9-5.4-5.8-8.2c0-0.1,0.1-0.1,0.1-0.2c1.6,0.9,3.1,1.8,4.6,2.7
				c0.7,0.5,1.2,0.5,2,0c1.5-1,3.1-1.9,4.7-2.8C85.7,21.1,85.7,21.2,85.8,21.3z"/>
			<path d="M124.8,104c-1.9,2.6-3.8,5.3-5.8,8.2c-2-2.8-3.9-5.4-5.8-8.2c0-0.1,0.1-0.1,0.1-0.2c1.6,0.9,3.2,1.8,4.8,2.8
				c0.7,0.4,1.1,0.4,1.8,0c1.6-1,3.2-1.9,4.8-2.8C124.7,103.9,124.8,104,124.8,104z"/>
			<path d="M85.8,104c-1.9,2.6-3.8,5.3-5.8,8.2c-2-2.8-3.9-5.4-5.8-8.2c0-0.1,0.1-0.1,0.1-0.2c1.4,0.8,2.8,1.5,4.2,2.4
				c1,0.7,1.8,0.8,2.9,0c1.3-1,2.8-1.7,4.3-2.5C85.7,103.9,85.7,103.9,85.8,104z"/>
			<path d="M40.5,112.1c-2-2.8-3.9-5.4-5.8-8.2c0-0.1,0.1-0.1,0.1-0.2c1.6,0.9,3.2,1.8,4.8,2.8c0.7,0.4,1.1,0.4,1.8,0
				c1.6-1,3.2-1.9,4.9-2.6C44.5,106.7,42.5,109.3,40.5,112.1z"/>
			<path d="M40.5,73.4c-2-2.8-3.9-5.4-5.8-8.2c0-0.1,0.1-0.1,0.1-0.2c1.6,0.9,3.2,1.8,4.8,2.8c0.7,0.4,1.1,0.4,1.8,0
				c1.6-1,3.2-1.9,4.9-2.6C44.5,67.8,42.5,70.5,40.5,73.4z"/>
			<path d="M79.8,73.4c-2-2.8-3.9-5.4-5.8-8.1c0-0.1,0.1-0.1,0.1-0.2c1,0.6,2.2,1.1,3.1,1.8c1.8,1.5,3.4,1.3,5.1,0
				c0.9-0.7,2-1.2,3.3-1.7C83.9,67.8,82,70.5,79.8,73.4z"/>
			<path d="M113.3,65.1c1.6,1,3.3,2,4.9,2.8c0.3,0.2,1,0.2,1.3,0c1.7-0.9,3.3-1.9,5.2-2.7c-1.9,2.6-3.8,5.3-5.8,8.2
				c-2-2.8-3.9-5.4-5.8-8.2C113.2,65.2,113.3,65.1,113.3,65.1z"/>
			<path d="M153.1,65.1c1.6,0.9,3.3,1.8,4.8,2.8c0.6,0.4,1,0.3,1.6,0c1.6-1,3.3-1.9,5-2.7c-1.9,2.6-3.8,5.3-5.8,8.2
				c-2-2.8-3.9-5.5-5.8-8.2C153,65.2,153.1,65.1,153.1,65.1L153.1,65.1z"/>
			<path d="M191.2,65c1.6,1,3.3,1.9,4.9,2.9c0.5,0.3,0.9,0.3,1.5,0c1.6-1,3.3-1.9,5.1-2.7c-1.9,2.6-3.8,5.3-5.8,8.2
				c-2-2.8-3.9-5.4-5.8-8.2C191.1,65.2,191.2,65.1,191.2,65L191.2,65z"/>
			<path d="M124.8,21.3c-1.8,2.5-3.6,5-5.4,7.7c-0.1,0.1-0.2,0.2-0.5,0.4c-1.9-2.7-3.8-5.3-5.7-8c0-0.1,0.1-0.1,0.1-0.2
				c1.2,0.7,2.4,1.2,3.5,2.1c1.5,1.1,2.7,1.2,4.2,0c1.1-0.8,2.4-1.4,3.6-2.1C124.7,21.1,124.8,21.2,124.8,21.3z"/>
			<path d="M60.8,87.7c-0.9-0.2-1.3,0-1.2,0.7c0,0.2,0.1,0.5,0,0.7c-0.1,0.3-0.3,0.5-0.5,0.7c-0.2-0.2-0.4-0.5-0.5-0.7
				c-0.1-0.4,0-0.9,0-1.4c-0.5,0-0.8,0-1.2-0.1c-0.3,0-0.7,0-1.2-0.1c0.2-0.4,0.2-0.9,0.4-0.9c0.9-0.4,0.9-1.1,0.9-1.8
				c0-1,0-1.9,0-2.9c0-0.9,0-1.6-1-2c-0.2-0.1-0.3-0.4-0.3-0.6c0-0.2,0.3-0.4,0.6-0.4c0.6,0,1.1,0,1.9,0c0-0.6-0.1-1,0-1.4
				c0.1-0.3,0.3-0.6,0.5-0.9c0.2,0.3,0.4,0.5,0.5,0.8c0.1,0.2,0,0.4,0,0.6c-0.1,0.8,0.3,0.9,1.2,0.7c0-0.4-0.1-0.9,0-1.4
				c0-0.2,0.4-0.4,0.5-0.7c0.2,0.2,0.5,0.4,0.5,0.6c0.1,0.4,0,0.9,0,1.4c0.6,0.2,1.2,0.2,1.5,0.6c0.5,0.6,1.3,1.5,1.2,2.1
				c-0.2,1.2,0.1,2.2,0.5,3.2c0.5,1.4-0.6,2.9-2.1,3c-0.3,0-0.6,0-1.1,0.1c0,0.5,0,1.1,0,1.6c0,0.2-0.3,0.4-0.5,0.6
				c-0.2-0.2-0.5-0.4-0.5-0.6C60.7,88.8,60.8,88.3,60.8,87.7L60.8,87.7z M59.6,86.1c0.9,0,1.7,0.1,2.4,0c0.4-0.1,0.9-0.7,0.9-1.1
				c0-0.4-0.5-1-0.9-1.1c-0.8-0.2-1.6,0-2.4,0C59.6,84.5,59.6,85.2,59.6,86.1z M59.6,80.1c0,1.1,0,1.8,0,2.8c1-0.3,1.8-0.5,2.6-0.8
				c0.2-0.1,0.2-1.1,0-1.1C61.5,80.7,60.7,80.5,59.6,80.1z"/>
			<path d="M136.5,87.7c-0.9,0-1.5-0.1-2.4-0.1c0.2-0.4,0.3-0.9,0.5-1c0.8-0.3,0.8-0.9,0.8-1.6c0-0.9,0-1.9,0-2.8
				c0-0.9,0.1-1.9-1.1-2.3c-0.2-0.1-0.2-0.5-0.4-0.9c0.9,0,1.7-0.1,2.5-0.1c0-0.4,0-0.9,0.1-1.3c0.1-0.3,0.4-0.6,0.6-0.9
				c0.2,0.3,0.4,0.6,0.4,0.9c0.1,0.7-0.2,1.6,1.2,1.2c0-0.5,0-1,0-1.5c0-0.2,0.3-0.4,0.5-0.6c0.2,0.2,0.5,0.4,0.5,0.6
				c0.1,0.5,0,1,0,1.6c1.5,0.1,2.7,0.9,2.6,2.3c-0.1,1.4,0.2,2.5,0.6,3.8c0.4,1.2-0.8,2.6-2.1,2.7c-0.3,0-0.7,0.1-1.2,0.1
				c0,0.6,0,1.1,0,1.6c0,0.2-0.4,0.5-0.5,0.5c-0.2-0.1-0.5-0.3-0.6-0.5c-0.1-0.5,0-1,0-1.5c-0.8-0.3-1.3-0.2-1.2,0.8
				c0,0.2,0.1,0.5,0,0.7c-0.1,0.2-0.3,0.4-0.5,0.6c-0.2-0.2-0.5-0.4-0.5-0.6C136.4,88.8,136.5,88.3,136.5,87.7L136.5,87.7z
				 M137.6,86.1c0.9,0,1.7,0.1,2.4,0c0.4-0.1,0.9-0.7,0.9-1.1c0-0.4-0.6-1-1-1c-0.8-0.2-1.6,0-2.4,0
				C137.6,84.6,137.6,85.2,137.6,86.1z M137.6,83c1.1-0.4,1.9-0.6,2.7-1c0.1-0.1,0.1-0.9-0.1-1.1c-0.7-0.8-1.7-0.5-2.6-0.4
				C137.6,81.2,137.6,81.9,137.6,83z"/>
			<path d="M215.6,87.6c0.2-1.2,1.6-1.5,1.3-2.9c-0.2-1-0.3-2.1,0-3.1c0.4-1.4-1.7-1.3-1.4-2.6c0.8,0,1.5-0.1,2.4-0.1
				c0-0.5-0.1-1,0-1.4c0.1-0.3,0.4-0.5,0.6-0.8c0.2,0.3,0.4,0.5,0.4,0.8c0.1,1.4,0.1,1.4,1.2,1.3c0-0.5,0-1,0-1.5
				c0-0.2,0.3-0.4,0.5-0.6c0.2,0.2,0.5,0.4,0.5,0.6c0.1,0.5,0,1,0,1.5c2.6,0.8,2.9,1.3,2.4,4c0,0.2,0.1,0.5,0.2,0.7
				c1.4,2.3,0.5,4-2.2,4.3c-0.1,0-0.2,0.1-0.5,0.1c0,0.5,0,1,0,1.5c0,0.2-0.3,0.4-0.5,0.6c-0.2-0.2-0.5-0.4-0.6-0.7
				c-0.1-0.4,0-0.9,0-1.4c-0.8-0.3-1.3-0.1-1.2,0.8c0,0.3,0.1,0.6,0,0.8c-0.1,0.2-0.3,0.5-0.5,0.5s-0.5-0.3-0.5-0.4
				c-0.1-0.5-0.1-1.1-0.1-1.7C217.1,87.7,216.4,87.6,215.6,87.6z M219.2,86.1c0.9,0,1.7,0.1,2.4,0c0.4-0.1,0.9-0.7,1-1.2
				c0-0.3-0.6-0.9-1-1c-0.7-0.2-1.5,0-2.3,0C219.2,84.5,219.2,85.2,219.2,86.1z M219.2,83c1.1-0.4,1.9-0.6,2.7-1
				c0.1-0.1,0.1-0.9-0.1-1.1c-0.7-0.8-1.7-0.5-2.6-0.4C219.2,81.3,219.2,81.9,219.2,83z"/>
			<path d="M59.3,44.7c-0.1,0.4-0.1,0.7-0.3,1.5c-0.5-0.5-0.9-0.9-1.2-1.2c0.1-0.1,0.1-0.2,0.2-0.3c-0.7,0-1.4-0.1-2.1-0.1
				c0-0.5,0-0.9,0-1.3c0.4-0.1,0.8-0.1,1.2-0.2c0-2.1,0-4.2,0-6.3c-0.4-0.1-0.8-0.1-1.2-0.2c0-0.4,0-0.8,0-1.3
				c0.7,0,1.4-0.1,2.1-0.1c0.1-0.4,0.2-0.7,0.2-1.1c1.1-0.4,1,0.5,1.1,1.1c0.5,0,1,0,1.5,0c0.1-0.3,0.1-0.7,0.2-1.1
				c0.3,0,0.6,0,0.9,0c-0.1,0.1-0.1,0.2-0.2,0.3c0.4,0.4,0.8,0.9,1.2,1.1c1.7,0.8,1.9,2.6,0.4,4.2c2.2,2.6,1.8,4.5-0.9,5
				c-0.5,0.6-0.8,0.9-1.1,1.3c-0.1-0.1-0.2-0.1-0.3-0.2c-0.1-0.4-0.1-0.7-0.2-1.1C60.4,44.7,59.9,44.7,59.3,44.7z M59.3,42.9
				c0.8,0,1.6,0,2.4,0c0.7,0,1.2-0.1,1.2-1c0-0.8-0.4-1.2-1.2-1.2c-0.8,0-1.5,0-2.4,0C59.3,41.5,59.3,42.1,59.3,42.9z M59.3,37
				c0,0.8,0,1.4,0,2.1c0.7,0,1.4,0,2,0c0.7,0,1-0.4,1-1.1c0-0.7-0.4-1-1-1S60,37,59.3,37z"/>
			<path d="M141.3,39.7c1,0.9,1.8,1.8,1.4,3.2c-0.4,1.2-1.3,1.8-2.6,1.8c-0.1,0.6,0,1.5-1.1,1c0-0.3-0.1-0.6-0.1-1c-0.6,0-1,0-1.6,0
				c-0.1,0.4-0.1,0.7-0.2,1.1c-0.3,0-0.6,0-0.9,0.1c-0.1-0.4-0.2-0.7-0.3-1.1c-0.7,0-1.3-0.1-2.1-0.1c0-0.4,0-0.8,0-1.3
				c0.4-0.1,0.8-0.1,1.3-0.2c0-1.1,0-2.1,0-3.2c0-1,0-2.1,0-3.1c-0.5-0.1-0.9-0.1-1.3-0.2c0-0.4,0-0.8,0-1.3c0.7,0,1.3,0,2,0
				c0.1-0.4,0.2-0.8,0.3-1.2c0.3,0,0.6,0,0.9,0c0.1,0.4,0.1,0.7,0.2,1.1c0.5,0,1,0,1.5,0c0.1-0.3,0.1-0.7,0.2-1.1
				c0.6-0.1,1.1-0.2,1.1,0.7c0,0.2,0.3,0.5,0.5,0.6C142.7,36.3,143,37.9,141.3,39.7L141.3,39.7z M137.2,42.9c0.9,0,1.7,0,2.6,0
				c0.6,0,1-0.2,1-0.9c0-0.6-0.1-1.2-0.8-1.3c-0.9-0.1-1.8,0-2.7,0C137.2,41.5,137.2,42.1,137.2,42.9z M137.2,39c0.8,0,1.4,0,2.1,0
				c0.7,0,1-0.4,1-1.1c0-0.7-0.3-1-1-1c-0.7,0-1.4,0-2.1,0C137.2,37.7,137.2,38.3,137.2,39z"/>
			<path d="M218.5,44.8c-0.5,0.6-0.8,0.9-1.2,1.3c-0.1-0.1-0.2-0.1-0.3-0.2c-0.1-0.3-0.1-0.7-0.2-1.1c-0.7,0-1.4-0.1-2.1-0.1
				c0-0.4,0-0.8,0-1.3c0.4-0.1,0.8-0.2,1.3-0.3c0-2.1,0-4.2,0-6.3c-0.4-0.1-0.8-0.1-1.2-0.2c0-0.4,0-0.9,0-1.3
				c0.7,0,1.4-0.1,2.1-0.1c0.1-0.3,0.1-0.7,0.2-1.1c0.2,0,0.4-0.1,0.5,0c0.3,0.3,0.5,0.6,0.9,1.1c0.2,0,0.7,0,1.3,0
				c0-0.3,0.1-0.6,0.2-1c0.3,0,0.6,0,1,0c0,0.4,0.1,0.7,0.1,1c2.6,1.2,3,2.7,1.3,4.6c2.3,2.5,1.8,4.4-1.3,5.1c0,0.3-0.1,0.6-0.1,1
				c-0.2,0-0.6,0.1-0.6,0.1c-0.3-0.3-0.4-0.6-0.7-1.1C219.2,44.8,218.7,44.8,218.5,44.8L218.5,44.8z M218,42.9c0.9,0,1.7,0,2.4,0
				c0.7,0,1.2-0.1,1.2-0.9c0-0.8-0.3-1.3-1.1-1.3c-0.8,0-1.6,0-2.5,0C218,41.5,218,42.1,218,42.9L218,42.9z M218,39c0.7,0,1.3,0,2,0
				c0.7,0,1.1-0.3,1.1-1c0-0.7-0.3-1.1-1.1-1c-0.6,0-1.3,0-2,0C218,37.7,218,38.3,218,39z"/>
			<path d="M24.2,88.8c-0.3,0.3-0.7,0.7-1.2,1.2c-0.1-0.8-0.2-1.1-0.2-1.5c-0.5,0-1,0-1.6,0c-0.1,0.5,0,1.5-1.2,1
				c0-0.3-0.1-0.6-0.1-1c-0.7,0-1.4-0.1-2.1-0.1c0-0.4,0-0.8,0-1.3c0.4-0.1,0.7-0.1,1.2-0.2c0-2.1,0-4.2,0-6.4
				c-0.4-0.1-0.7-0.1-1.2-0.2c0-0.4,0-0.8-0.1-1.3c0.8,0,1.4-0.1,2.2-0.1c0-0.4,0.1-0.7,0.1-1.1c0.3,0,0.6,0,1,0
				c0.1,0.4,0.1,0.7,0.2,1.1c0.5,0,1,0,1.6,0c0.1-0.6,0-1.5,0.9-0.8c0.5,0.4,0.9,1,1.4,1.2c1.6,0.9,1.7,2.5,0.3,4.2
				c0.9,0.9,1.8,1.8,1.3,3.2c-0.4,1.2-1.3,1.7-2.5,1.8C24.1,88.6,24.2,88.7,24.2,88.8L24.2,88.8z M21.2,86.7c0.8,0,1.6,0,2.4,0
				c0.7,0,1.2-0.1,1.2-1c0-0.8-0.4-1.2-1.2-1.2c-0.8,0-1.5,0-2.3,0C21.2,85.2,21.2,85.8,21.2,86.7z M21.2,80.7c0,0.8,0,1.3,0,2.1
				c0.7,0,1.4,0,2,0c0.7,0,1-0.4,1-1.1c0-0.7-0.3-1-1-1C22.6,80.7,21.9,80.7,21.2,80.7z"/>
			<path d="M103.2,83.5c1,0.9,1.7,1.7,1.3,3.1c-0.4,1.2-1.3,1.8-2.6,1.9c-0.1,0.5,0,1.5-1.1,1c0-0.3-0.1-0.6-0.2-1c-0.5,0-1,0-1.6,0
				c-0.1,0.5,0,1.4-1.1,1c0-0.3-0.1-0.6-0.1-1c-0.7,0-1.4-0.1-2.1-0.1c0-0.4,0-0.8,0-1.3c0.4-0.1,0.8-0.1,1.2-0.2c0-2.1,0-4.2,0-6.3
				c-0.4-0.1-0.8-0.1-1.3-0.2c0-0.4,0-0.8-0.1-1.3c0.8,0,1.4-0.1,2.2-0.1c0.2-0.5-0.1-1.6,1.1-1c0,0.3,0.1,0.6,0.2,1
				c0.5,0,1,0,1.6,0c0.1-0.5-0.1-1.5,0.9-0.9c0.5,0.4,0.9,1,1.4,1.3c1.3,0.7,1.7,2.2,0.9,3.5C103.6,83,103.4,83.3,103.2,83.5z
				 M99.1,84.4c0,0.8,0,1.4,0,2.2c0.9,0,1.7,0,2.5,0c0.7,0,1-0.2,1-1c0-0.7-0.2-1.2-0.9-1.2C100.9,84.4,100,84.4,99.1,84.4z
				 M99.1,82.8c0.8,0,1.4,0,2.1,0c0.7,0,1-0.3,1-1c0-0.7-0.3-1.1-1-1.1s-1.4,0-2.1,0C99.1,81.4,99.1,82,99.1,82.8z"/>
			<path d="M181.1,83.5c0.9,0.8,1.7,1.7,1.3,3.1c-0.4,1.2-1.3,1.7-2.5,1.9c-0.2,1.1-0.2,1.1-1.2,1c0-0.2,0-0.4-0.1-0.5
				c0-0.1,0-0.3-0.1-0.5c-0.5,0-1,0-1.3,0c-0.4,0.5-0.7,0.9-1,1.3c-0.1-0.1-0.2-0.1-0.3-0.2c-0.1-0.4-0.2-0.7-0.3-1.1
				c-0.7,0-1.3-0.1-2.1-0.1c0-0.4,0-0.8,0-1.3c0.4-0.1,0.8-0.1,1.2-0.2c0-2.1,0-4.2,0-6.4c-0.4-0.1-0.8-0.1-1.2-0.2
				c0-0.4,0-0.8,0-1.3c0.7,0,1.3,0,2,0c0.1-0.4,0.2-0.8,0.3-1.1c1.1-0.5,1,0.4,1.1,1c0.5,0,1,0,1.5,0c0.1-0.3,0.1-0.7,0.2-1.1
				c0.6-0.1,1.1-0.2,1.1,0.7c0,0.2,0.2,0.5,0.4,0.6C182.4,80.2,182.7,81.5,181.1,83.5L181.1,83.5z M176.8,84.4c0,0.8,0,1.4,0,2.2
				c0.8,0,1.6,0,2.4,0c0.7,0,1.2-0.1,1.2-0.9c0-0.8-0.3-1.3-1.1-1.3C178.5,84.4,177.7,84.4,176.8,84.4z M176.8,82.7
				c0.9,0,1.6,0.1,2.3,0c0.3-0.1,0.7-0.6,0.7-1c0-0.3-0.4-0.9-0.6-1c-0.8-0.1-1.6,0-2.4,0C176.8,81.5,176.8,82,176.8,82.7
				L176.8,82.7z"/>
			<path d="M62.4,127.6c-0.3,0.3-0.7,0.7-1.2,1.3c-0.1-0.8-0.2-1.1-0.3-1.5c-0.5,0-1,0-1.6,0c-0.1,0.5,0,1.4-1.1,1
				c0-0.3-0.1-0.6-0.1-1c-0.7,0-1.4-0.1-2.1-0.1c0-0.4,0-0.8,0-1.3c0.4-0.1,0.8-0.1,1.2-0.2c0-2.1,0-4.2,0-6.3
				c-0.4-0.1-0.8-0.1-1.3-0.2c0-0.4,0-0.8-0.1-1.3c0.8,0,1.4-0.1,2.2-0.1c0.1-0.6,0-1.5,1.1-1c0.1,0.3,0.1,0.6,0.2,1
				c0.5,0,1,0,1.6,0c0.1-0.6-0.1-1.5,0.9-0.9c0.5,0.4,0.9,1,1.4,1.3c1.6,0.9,1.7,2.5,0.3,4.2c0.9,0.9,1.8,1.8,1.3,3.2
				c-0.4,1.2-1.3,1.7-2.5,1.8C62.3,127.5,62.3,127.5,62.4,127.6z M59.3,123.2c0,0.8,0,1.5,0,2.2c0.9,0,1.6,0,2.4,0
				c0.7,0,1.1-0.1,1.1-1c0-0.7-0.2-1.2-1.1-1.2C61,123.2,60.2,123.2,59.3,123.2z M59.3,121.6c0.8,0,1.4,0,2.1,0c0.7,0,1-0.3,1-1
				c0-0.7-0.3-1.1-1-1.1c-0.7,0-1.4,0-2.1,0C59.3,120.2,59.3,120.8,59.3,121.6L59.3,121.6z"/>
			<path d="M141.4,122.3c0.9,0.8,1.7,1.7,1.3,3.1c-0.4,1.2-1.3,1.8-2.5,1.8c-0.2,1.1-0.2,1.1-1.2,1.1c0-0.3-0.1-0.6-0.1-1
				c-0.5,0-1,0-1.3,0c-0.4,0.5-0.7,0.9-1,1.3c-0.1-0.1-0.2-0.1-0.3-0.2c-0.1-0.4-0.2-0.7-0.3-1.1c-0.7,0-1.3-0.1-2.1-0.1
				c0-0.4,0-0.8,0-1.3c0.4-0.1,0.8-0.1,1.2-0.2c0-2.1,0-4.2,0-6.4c-0.4-0.1-0.8-0.1-1.2-0.2c0-0.4,0-0.8,0-1.3c0.7,0,1.3,0,2,0
				c0.1-0.4,0.2-0.8,0.3-1.1c1-0.4,1.1,0.3,1.1,1c0.6,0,1,0,1.6,0c0.1-0.3,0.1-0.7,0.2-1.1c0.6-0.1,1.1-0.2,1.1,0.7
				c0,0.2,0.2,0.5,0.4,0.6C142.7,119,143,120.3,141.4,122.3L141.4,122.3z M137.2,125.4c0.9,0,1.7,0,2.5,0c0.7,0,1.1-0.2,1.1-1
				c0-0.8-0.3-1.2-1.1-1.2c-0.8,0-1.6,0-2.5,0C137.2,124,137.2,124.6,137.2,125.4z M137.2,121.6c0.8,0,1.4,0,2.1,0c0.7,0,1-0.3,1-1
				c0-0.7-0.3-1.1-1-1.1c-0.7,0-1.4,0-2,0C137.2,120.3,137.2,120.8,137.2,121.6L137.2,121.6z"/>
			<path d="M221.2,127.6c-0.3,0.3-0.7,0.7-1.2,1.3c-0.1-0.8-0.2-1.1-0.3-1.5c-0.5,0-1,0-1.6,0c-0.1,0.5,0,1.4-1.1,1
				c0-0.3-0.1-0.6-0.1-1c-0.7,0-1.4-0.1-2.1-0.1c0-0.4,0-0.8-0.1-1.3c0.5-0.1,0.9-0.2,1.3-0.2c0-2.1,0-4.2,0-6.3
				c-0.4-0.1-0.8-0.1-1.3-0.2c0-0.4,0-0.8-0.1-1.3c0.8,0,1.4-0.1,2.2-0.1c0.1-0.6,0-1.5,1.1-1c0.1,0.3,0.1,0.6,0.2,1
				c0.5,0,1,0,1.6,0c0.1-0.5-0.1-1.5,0.9-0.9c0.5,0.4,0.9,1,1.4,1.3c1.6,0.9,1.7,2.5,0.3,4.2c0.9,0.9,1.8,1.8,1.3,3.2
				C223.2,126.8,222.2,127.3,221.2,127.6L221.2,127.6z M218,125.4c0.9,0,1.8,0,2.6,0c0.7,0,1-0.2,1-0.9c0-0.7-0.2-1.2-0.9-1.2
				c-0.9,0-1.8,0-2.7,0C218,124,218,124.6,218,125.4L218,125.4z M218,121.6c0.7,0,1.4,0,2,0c0.7,0,1-0.3,1-1.1c0-0.8-0.4-1-1.1-1
				c-0.6,0-1.3,0-2,0C218,120.3,218,120.9,218,121.6L218,121.6z"/>
		</g>
	</g>
</g>
</svg>
