<?xml version="1.0" encoding="utf-8"?>
<!-- Generator: Adobe Illustrator 26.0.1, SVG Export Plug-In . SVG Version: 6.00 Build 0)  -->
<svg version="1.1" id="Слой_1" xmlns:xodm="http://www.corel.com/coreldraw/odm/2003"
	 xmlns="http://www.w3.org/2000/svg" xmlns:xlink="http://www.w3.org/1999/xlink" x="0px" y="0px" viewBox="0 0 238.1 150.2"
	 style="enable-background:new 0 0 238.1 150.2;" xml:space="preserve">
<style type="text/css">
	.st0{fill:#373535;}
</style>
<g id="Слой_x0020_1">
	<g id="_105553825659072">
		<path class="st0" d="M37.7,54.3c-0.3,0-0.6,0.3-0.6,0.6c0,0.3,0.3,0.6,0.6,0.6c0.3,0,0.6-0.3,0.6-0.6C38.3,54.5,38,54.3,37.7,54.3
			z M32.1,54.3c-0.3,0-0.6,0.3-0.6,0.6c0,0.3,0.3,0.6,0.6,0.6c0.3,0,0.6-0.3,0.6-0.6C32.7,54.5,32.4,54.3,32.1,54.3z M37.7,56.1
			c-0.6,0-1.1-0.4-1.2-0.9h-3.1c-0.2,0.5-0.7,0.9-1.2,0.9c-0.7,0-1.3-0.6-1.3-1.2c0-0.7,0.6-1.2,1.3-1.2c0.6,0,1.1,0.4,1.2,0.9h3.1
			c0.2-0.5,0.7-0.9,1.2-0.9c0.7,0,1.3,0.6,1.3,1.2S38.4,56.1,37.7,56.1z"/>
		<path class="st0" d="M19.8,54.8c0-0.3-0.3-0.6-0.6-0.6c-0.3,0-0.6,0.3-0.6,0.6c0,0.3,0.3,0.6,0.6,0.6
			C19.5,55.4,19.8,55.2,19.8,54.8z M24.8,55.4c0.3,0,0.6-0.3,0.6-0.6c0-0.3-0.3-0.6-0.6-0.6c-0.3,0-0.6,0.3-0.6,0.6
			C24.2,55.2,24.5,55.4,24.8,55.4z M16.2,61.8l2.6-2.4V56c-0.5-0.2-0.9-0.6-0.9-1.2c0-0.7,0.6-1.2,1.3-1.2c0.6,0,1.1,0.4,1.2,0.9
			h3.2c0.2-0.5,0.7-0.9,1.2-0.9c0.7,0,1.3,0.6,1.3,1.2c0,0.7-0.6,1.2-1.3,1.2c-0.6,0-1.1-0.4-1.2-0.9h-3.2c-0.1,0.4-0.4,0.7-0.8,0.8
			v3.3c0,0-3.4,3.2-3.4,3.2H0v-0.8L16.2,61.8L16.2,61.8L16.2,61.8z"/>
		<path class="st0" d="M9.3,74.4c0.3,0,0.6-0.3,0.6-0.6c0-0.3-0.3-0.6-0.6-0.6c-0.3,0-0.6,0.3-0.6,0.6C8.7,74.1,8.9,74.4,9.3,74.4z
			 M9.3,72.6c0.7,0,1.3,0.6,1.3,1.2c0,0.7-0.6,1.2-1.3,1.2c-0.6,0-1.1-0.4-1.2-0.9H0v-0.8h8C8.2,72.9,8.7,72.6,9.3,72.6L9.3,72.6z"
			/>
		<path class="st0" d="M2.9,105.9c0,0.3,0.3,0.6,0.6,0.6c0.3,0,0.6-0.3,0.6-0.6c0-0.3-0.3-0.6-0.6-0.6
			C3.2,105.3,2.9,105.6,2.9,105.9z M3.9,104.7c0.5,0.2,0.9,0.6,0.9,1.2c0,0.7-0.6,1.2-1.3,1.2c-0.7,0-1.3-0.6-1.3-1.2
			c0-0.6,0.4-1,0.9-1.2v-7.1h0l-3.1-3v-0.8l3.9,3.7L3.9,104.7L3.9,104.7z"/>
		<path class="st0" d="M37.7,58.8c-0.3,0-0.6,0.3-0.6,0.6c0,0.3,0.3,0.6,0.6,0.6c0.3,0,0.6-0.3,0.6-0.6C38.3,59,38,58.8,37.7,58.8z
			 M24.8,58.8c-0.3,0-0.6,0.3-0.6,0.6c0,0.3,0.3,0.6,0.6,0.6c0.3,0,0.6-0.3,0.6-0.6C25.4,59,25.2,58.8,24.8,58.8z M37.7,60.6
			c-0.6,0-1.1-0.4-1.2-0.9H26.1c-0.2,0.5-0.7,0.9-1.2,0.9c-0.7,0-1.3-0.6-1.3-1.2c0-0.7,0.6-1.2,1.3-1.2c0.6,0,1.1,0.4,1.2,0.9h10.4
			c0.2-0.5,0.7-0.9,1.2-0.9c0.7,0,1.3,0.6,1.3,1.2C39,60,38.4,60.6,37.7,60.6z"/>
		<path class="st0" d="M37.4,68.9c0.1,0,0.2,0.1,0.3,0.1c0.3,0,0.6-0.2,0.6-0.5c0,0,0,0,0-0.1c0-0.3-0.3-0.6-0.6-0.6
			c-0.1,0-0.2,0-0.3,0.1c-0.2,0.1-0.3,0.3-0.3,0.5C37.1,68.6,37.2,68.8,37.4,68.9z M14.1,95.5c0,0.3,0.3,0.6,0.6,0.6
			c0.3,0,0.6-0.3,0.6-0.6c0-0.3-0.3-0.6-0.6-0.6C14.3,94.9,14.1,95.2,14.1,95.5z M16.9,70.1l2.3-2.2c0,0,17.3,0,17.3,0
			c0,0,0-0.1,0.1-0.1c0.2-0.4,0.7-0.7,1.2-0.7c0.4,0,0.7,0.1,0.9,0.4c0.2,0.2,0.4,0.5,0.4,0.9c0,0.6-0.4,1-0.9,1.2v6.1h-23v18.7
			c0.5,0.2,0.9,0.6,0.9,1.2c0,0.7-0.6,1.2-1.3,1.2c-0.7,0-1.3-0.6-1.3-1.2c0-0.6,0.4-1,0.9-1.2V74.9h23v-5.3
			c-0.2-0.1-0.4-0.1-0.5-0.3c0,0,0,0,0,0c0,0-0.1-0.1-0.1-0.1c0,0,0,0-0.1-0.1c-0.1-0.1-0.1-0.2-0.2-0.4H19.2c0,0-2.3,2.2-2.3,2.2H0
			v-0.8L16.9,70.1L16.9,70.1L16.9,70.1z"/>
		<path class="st0" d="M37.7,64.4c0.3,0,0.6-0.3,0.6-0.6c0-0.3-0.3-0.6-0.6-0.6c-0.3,0-0.6,0.3-0.6,0.6
			C37.1,64.2,37.4,64.4,37.7,64.4z M16.9,65.6l2.3-2.2c0,0,17.3,0,17.3,0c0.2-0.5,0.7-0.9,1.2-0.9c0.7,0,1.3,0.6,1.3,1.2
			c0,0.7-0.6,1.2-1.3,1.2c-0.6,0-1.1-0.4-1.2-0.9H19.2c0,0-2.3,2.2-2.3,2.2H0v-0.8L16.9,65.6L16.9,65.6L16.9,65.6z"/>
		<path class="st0" d="M9.3,83.3c0.3,0,0.6-0.3,0.6-0.6c0-0.3-0.3-0.6-0.6-0.6c-0.3,0-0.6,0.3-0.6,0.6C8.7,83,8.9,83.3,9.3,83.3z
			 M9.3,81.5c0.7,0,1.3,0.6,1.3,1.2c0,0.7-0.6,1.2-1.3,1.2c-0.6,0-1.1-0.4-1.2-0.9H0v-0.8h8C8.2,81.8,8.7,81.5,9.3,81.5L9.3,81.5z"
			/>
		<path class="st0" d="M9.3,78.7c0.3,0,0.6-0.3,0.6-0.6c0-0.3-0.3-0.6-0.6-0.6c-0.3,0-0.6,0.3-0.6,0.6C8.7,78.5,8.9,78.7,9.3,78.7z
			 M9.3,76.9c0.7,0,1.3,0.6,1.3,1.2c0,0.7-0.6,1.2-1.3,1.2c-0.6,0-1.1-0.4-1.2-0.9H0v-0.8h8C8.2,77.3,8.7,76.9,9.3,76.9L9.3,76.9z"
			/>
		<path class="st0" d="M9.3,87.1c0.3,0,0.6-0.3,0.6-0.6c0-0.3-0.3-0.6-0.6-0.6c-0.3,0-0.6,0.3-0.6,0.6C8.7,86.9,8.9,87.1,9.3,87.1z
			 M9.3,85.3c0.7,0,1.3,0.6,1.3,1.2c0,0.7-0.6,1.2-1.3,1.2c-0.6,0-1.1-0.4-1.2-0.9H0v-0.8h8.1C8.2,85.7,8.7,85.3,9.3,85.3L9.3,85.3z
			"/>
		<path class="st0" d="M10.6,6.4C10.3,6.4,10,6.6,10,7c0,0.3,0.3,0.6,0.6,0.6c0.3,0,0.6-0.3,0.6-0.6C11.3,6.6,11,6.4,10.6,6.4z
			 M31.3,25.4c0.3,0,0.6-0.3,0.6-0.6c0-0.3-0.3-0.6-0.6-0.6c-0.3,0-0.6,0.3-0.6,0.6C30.7,25.1,31,25.4,31.3,25.4z M11.1,8.1v16.3
			h19.1c0.2-0.5,0.7-0.9,1.2-0.9c0.7,0,1.3,0.6,1.3,1.2c0,0.7-0.6,1.2-1.3,1.2c-0.6,0-1.1-0.4-1.2-0.9H11.1c0,0-0.8,0-0.8,0V8.1
			C9.7,8,9.3,7.5,9.3,7c0-0.7,0.6-1.2,1.3-1.2C11.4,5.7,12,6.3,12,7C12,7.5,11.6,8,11.1,8.1L11.1,8.1z"/>
		<path class="st0" d="M37.7,50.9c0.3,0,0.6-0.3,0.6-0.6c0-0.3-0.3-0.6-0.6-0.6c-0.3,0-0.6,0.3-0.6,0.6
			C37.1,50.7,37.4,50.9,37.7,50.9z M14.3,54.4l4.8-4.6c0,0,17.3,0,17.3,0c0.2-0.4,0.7-0.7,1.2-0.7c0.7,0,1.3,0.6,1.3,1.2
			c0,0.7-0.6,1.2-1.3,1.2c-0.6,0-1.2-0.4-1.3-1H19.2c0,0-4.8,4.6-4.8,4.6H0v-0.8L14.3,54.4C14.3,54.4,14.3,54.4,14.3,54.4z"/>
		<path class="st0" d="M5.9,21.5c-0.3,0-0.6,0.3-0.6,0.6c0,0.3,0.3,0.6,0.6,0.6c0.3,0,0.6-0.3,0.6-0.6C6.5,21.7,6.2,21.5,5.9,21.5z
			 M5.9,23.3c-0.6,0-1.1-0.4-1.2-0.9H0v-0.8h4.7c0.2-0.5,0.7-0.9,1.2-0.9c0.7,0,1.3,0.6,1.3,1.2C7.2,22.7,6.6,23.3,5.9,23.3
			L5.9,23.3z"/>
		<path class="st0" d="M5.9,6.4C5.6,6.4,5.3,6.6,5.3,7c0,0.3,0.3,0.6,0.6,0.6c0.3,0,0.6-0.3,0.6-0.6C6.5,6.6,6.2,6.4,5.9,6.4z
			 M6.3,8.1v4.8H0v-0.8h5.5v-4C5,8,4.6,7.5,4.6,7c0-0.7,0.6-1.2,1.3-1.2c0.7,0,1.3,0.6,1.3,1.2C7.2,7.5,6.8,8,6.3,8.1L6.3,8.1z"/>
		<path class="st0" d="M5.9,16.6c-0.3,0-0.6,0.3-0.6,0.6c0,0.3,0.3,0.6,0.6,0.6c0.3,0,0.6-0.3,0.6-0.6C6.5,16.9,6.2,16.6,5.9,16.6z
			 M5.9,18.4c-0.6,0-1.1-0.4-1.2-0.9H0v-0.8h4.7C4.8,16.3,5.3,16,5.9,16c0.7,0,1.3,0.6,1.3,1.2C7.2,17.9,6.6,18.4,5.9,18.4L5.9,18.4
			z"/>
		<path class="st0" d="M8.8,145.2c0.3,0,0.6-0.3,0.6-0.6c0-0.3-0.3-0.6-0.6-0.6c-0.3,0-0.6,0.3-0.6,0.6
			C8.2,144.9,8.5,145.2,8.8,145.2z M2.9,147.8h2.3l2.6-2.5c-0.2-0.2-0.3-0.5-0.3-0.7c0-0.7,0.6-1.2,1.3-1.2c0.7,0,1.3,0.6,1.3,1.2
			c0,0.7-0.6,1.2-1.3,1.2c-0.2,0-0.4-0.1-0.6-0.2l-3,2.9H2.1v-2.1c0,0-2.1-1.9-2.1-1.9v-0.8l2.9,2.7L2.9,147.8L2.9,147.8z"/>
		<path class="st0" d="M15.4,6.4c-0.3,0-0.6,0.3-0.6,0.6c0,0.3,0.3,0.6,0.6,0.6C15.7,7.5,16,7.3,16,7C16,6.6,15.7,6.4,15.4,6.4z
			 M15.8,8.1v12.3h19v0.8h-19c0,0-0.8,0-0.8,0V8.1C14.5,8,14.1,7.5,14.1,7c0-0.7,0.6-1.2,1.3-1.2c0.7,0,1.3,0.6,1.3,1.2
			C16.7,7.5,16.3,8,15.8,8.1L15.8,8.1z"/>
		<path class="st0" d="M8.1,31.9c0,0.3,0.3,0.6,0.6,0.6c0.3,0,0.6-0.3,0.6-0.6c0-0.3-0.3-0.6-0.6-0.6C8.4,31.4,8.1,31.6,8.1,31.9z
			 M27,29.1c0.3,0,0.6-0.3,0.6-0.6c0-0.3-0.3-0.6-0.6-0.6c-0.3,0-0.6,0.3-0.6,0.6C26.4,28.9,26.7,29.1,27,29.1z M25.8,28.2
			c0.2-0.5,0.7-0.9,1.2-0.9c0.7,0,1.3,0.6,1.3,1.2c0,0.7-0.6,1.2-1.3,1.2c-0.6,0-1.1-0.4-1.2-0.9H9.1v1.8c0.5,0.2,0.9,0.6,0.9,1.2
			c0,0.7-0.6,1.2-1.3,1.2s-1.3-0.6-1.3-1.2c0-0.5,0.4-1,0.9-1.2v-2.6L25.8,28.2L25.8,28.2z"/>
		<path class="st0" d="M37.7,41.9c0.3,0,0.6-0.3,0.6-0.6c0-0.3-0.3-0.6-0.6-0.6c-0.3,0-0.6,0.3-0.6,0.6
			C37.1,41.6,37.4,41.9,37.7,41.9z M14.3,45.5l4.8-4.6c0,0,17.3,0,17.3,0c0.2-0.5,0.7-0.8,1.2-0.8c0.7,0,1.3,0.6,1.3,1.2
			c0,0.7-0.6,1.2-1.3,1.2c-0.6,0-1.1-0.4-1.2-0.9H19.2c0,0-4.8,4.6-4.8,4.6H0v-0.8L14.3,45.5L14.3,45.5L14.3,45.5z"/>
		<path class="st0" d="M37.7,46.4c0.3,0,0.6-0.3,0.6-0.6c0-0.3-0.3-0.6-0.6-0.6c-0.3,0-0.6,0.3-0.6,0.6
			C37.1,46.1,37.4,46.4,37.7,46.4z M14.3,50l4.8-4.6c0,0,17.3,0,17.3,0c0.2-0.5,0.7-0.8,1.2-0.8c0.7,0,1.3,0.6,1.3,1.2
			c0,0.7-0.6,1.2-1.3,1.2c-0.6,0-1.1-0.4-1.3-0.9H19.2c0,0-4.8,4.6-4.8,4.6H0V50L14.3,50L14.3,50L14.3,50z"/>
		<path class="st0" d="M37.7,37.4c0.3,0,0.6-0.3,0.6-0.6c0-0.3-0.3-0.6-0.6-0.6c-0.3,0-0.6,0.3-0.6,0.6
			C37.1,37.1,37.4,37.4,37.7,37.4z M19.2,36.4c0,0,17.3,0,17.3,0c0.2-0.5,0.7-0.9,1.2-0.9c0.7,0,1.3,0.6,1.3,1.2
			c0,0.7-0.6,1.2-1.3,1.2c-0.6,0-1.1-0.4-1.2-0.9H19.2c0,0-4.8,4.6-4.8,4.6v0H0V41h14.3L19.2,36.4L19.2,36.4z"/>
		<path class="st0" d="M8.7,36.2c-0.3,0-0.6,0.3-0.6,0.6c0,0.3,0.3,0.6,0.6,0.6c0.3,0,0.6-0.3,0.6-0.6C9.3,36.5,9.1,36.2,8.7,36.2z
			 M31.3,32.9c0.3,0,0.6-0.3,0.6-0.6c0-0.3-0.3-0.6-0.6-0.6c-0.3,0-0.6,0.3-0.6,0.6C30.7,32.6,31,32.9,31.3,32.9z M30.1,31.9
			c0.2-0.5,0.7-0.9,1.2-0.9c0.7,0,1.3,0.6,1.3,1.2c0,0.7-0.6,1.2-1.3,1.2c-0.6,0-1.1-0.4-1.2-0.9H19.2l-4.8,4.6H9.9
			c-0.2,0.5-0.7,0.8-1.2,0.8c-0.7,0-1.3-0.6-1.3-1.2c0-0.7,0.6-1.2,1.3-1.2c0.6,0,1.1,0.4,1.3,0.9h4.4v0l4.8-4.6
			C19.2,31.9,30.1,31.9,30.1,31.9L30.1,31.9z"/>
		<path class="st0" d="M20.2,6.4c-0.3,0-0.6,0.3-0.6,0.6c0,0.3,0.3,0.6,0.6,0.6c0.3,0,0.6-0.3,0.6-0.6C20.8,6.6,20.5,6.4,20.2,6.4z
			 M41.9,32.3c0,0.3,0.3,0.6,0.6,0.6c0.3,0,0.6-0.3,0.6-0.6c0-0.3-0.3-0.6-0.6-0.6C42.1,31.7,41.9,32,41.9,32.3z M20.6,8.1v8.1h14.5
			v0l7.8,7.3v7.6c0.5,0.2,0.9,0.6,0.9,1.2c0,0.7-0.6,1.2-1.3,1.2c-0.7,0-1.3-0.6-1.3-1.2c0-0.5,0.4-1,0.9-1.2v-7.6l-7-6.6
			c0,0-14.5,0-14.5,0c0,0-0.8,0-0.8,0V8.1C19.2,8,18.9,7.5,18.9,7c0-0.7,0.6-1.2,1.3-1.2c0.7,0,1.3,0.6,1.3,1.2
			C21.5,7.5,21.1,8,20.6,8.1L20.6,8.1z"/>
		<path class="st0" d="M37.1,32.3c0,0.2,0.1,0.4,0.3,0.5c0.1,0,0.2,0.1,0.3,0.1c0.3,0,0.6-0.2,0.6-0.5c0,0,0,0,0-0.1
			c0-0.3-0.3-0.6-0.6-0.6c-0.1,0-0.2,0-0.3,0.1C37.2,31.9,37.1,32.1,37.1,32.3z M34.8,21.2v-0.7l3.3,3.1v7.6
			c0.2,0.1,0.4,0.2,0.5,0.3c0.2,0.2,0.4,0.5,0.4,0.9c0,0.7-0.6,1.2-1.3,1.2c-0.3,0-0.7-0.1-0.9-0.3c0,0,0,0,0,0c0,0-0.1-0.1-0.1-0.1
			c0,0,0,0-0.1-0.1c-0.1-0.2-0.2-0.4-0.2-0.7c0-0.2,0.1-0.4,0.2-0.6c0.2-0.3,0.4-0.5,0.8-0.6v-7.6L34.8,21.2L34.8,21.2z"/>
		<path class="st0" d="M3.4,38c-0.3,0-0.6,0.3-0.6,0.6c0,0.3,0.3,0.6,0.6,0.6c0.3,0,0.6-0.3,0.6-0.6C4,38.2,3.7,38,3.4,38z M4,25.7
			c0-0.3-0.3-0.6-0.6-0.6s-0.6,0.3-0.6,0.6c0,0.3,0.3,0.6,0.6,0.6C3.7,26.2,4,26,4,25.7z M4.7,38.5c0,0.7-0.6,1.2-1.3,1.2
			c-0.7,0-1.3-0.6-1.3-1.2c0-0.5,0.4-1,0.9-1.2V26.8c-0.5-0.2-0.9-0.6-0.9-1.2c0-0.7,0.6-1.2,1.3-1.2c0.7,0,1.3,0.6,1.3,1.2
			c0,0.6-0.4,1-0.9,1.2v10.5C4.3,37.5,4.7,38,4.7,38.5z"/>
		<path class="st0" d="M58.9,86c0.3,0,0.6-0.3,0.6-0.6c0-0.3-0.3-0.6-0.6-0.6c-0.3,0-0.6,0.3-0.6,0.6C58.3,85.8,58.6,86,58.9,86z
			 M58.3,97.5c0,0.3,0.3,0.6,0.6,0.6c0.3,0,0.6-0.3,0.6-0.6c0-0.3-0.3-0.6-0.6-0.6C58.6,97,58.3,97.2,58.3,97.5z M57.6,85.5
			c0-0.7,0.6-1.2,1.3-1.2c0.7,0,1.3,0.6,1.3,1.2c0,0.5-0.4,1-0.9,1.2v9.7c0.5,0.2,0.9,0.6,0.9,1.2c0,0.7-0.6,1.2-1.3,1.2
			c-0.7,0-1.3-0.6-1.3-1.2c0-0.5,0.4-1,0.9-1.2v-9.7C58,86.5,57.6,86,57.6,85.5z"/>
		<path class="st0" d="M66.3,14.8c0.3,0,0.6-0.3,0.6-0.6c0-0.3-0.3-0.6-0.6-0.6c-0.3,0-0.6,0.3-0.6,0.6
			C65.7,14.6,65.9,14.8,66.3,14.8z M65.7,32.3c0,0.3,0.3,0.6,0.6,0.6c0.3,0,0.6-0.3,0.6-0.6c0-0.3-0.3-0.6-0.6-0.6
			C65.9,31.7,65.7,32,65.7,32.3z M65,14.3c0-0.7,0.6-1.2,1.3-1.2c0.7,0,1.3,0.6,1.3,1.2c0,0.6-0.4,1-0.9,1.2v15.7
			c0.5,0.2,0.9,0.6,0.9,1.2c0,0.7-0.6,1.2-1.3,1.2c-0.7,0-1.3-0.6-1.3-1.2c0-0.5,0.4-1,0.9-1.2V15.4C65.4,15.3,65,14.8,65,14.3z"/>
		<path class="st0" d="M62.9,105.4c0.3,0,0.6-0.3,0.6-0.6c0-0.3-0.3-0.6-0.6-0.6c-0.3,0-0.6,0.3-0.6,0.6
			C62.2,105.2,62.5,105.4,62.9,105.4z M62.9,103.6c0.7,0,1.3,0.6,1.3,1.2c0,0.5-0.4,1-0.9,1.2v20.9h-0.8V106
			c-0.5-0.2-0.9-0.6-0.9-1.2C61.6,104.2,62.1,103.6,62.9,103.6L62.9,103.6z"/>
		<path class="st0" d="M63.5,91.6c0-0.3-0.3-0.6-0.6-0.6c-0.3,0-0.6,0.3-0.6,0.6c0,0.3,0.3,0.6,0.6,0.6
			C63.2,92.2,63.5,91.9,63.5,91.6z M62.5,99.7v-6.9c-0.5-0.2-0.9-0.6-0.9-1.2c0-0.7,0.6-1.2,1.3-1.2c0.7,0,1.3,0.6,1.3,1.2
			c0,0.5-0.4,1-0.9,1.2v6.9l-4,3.7c0,0,0,23.5,0,23.5h-0.8v-23.5L62.5,99.7L62.5,99.7L62.5,99.7z"/>
		<path class="st0" d="M43.1,80.1c0-0.3-0.3-0.6-0.6-0.6c-0.3,0-0.6,0.3-0.6,0.6c0,0.3,0.3,0.6,0.6,0.6
			C42.8,80.6,43.1,80.4,43.1,80.1z M43.1,68.4c0-0.3-0.3-0.6-0.6-0.6c-0.3,0-0.6,0.3-0.6,0.6c0,0.3,0.3,0.6,0.6,0.6
			C42.8,68.9,43.1,68.7,43.1,68.4z M41.2,80.1c0-0.5,0.4-1,0.9-1.2v-9.4c-0.5-0.2-0.9-0.6-0.9-1.2c0-0.7,0.6-1.2,1.3-1.2
			c0.7,0,1.3,0.6,1.3,1.2c0,0.6-0.4,1-0.9,1.2v9.4c0.5,0.2,0.9,0.6,0.9,1.2c0,0.7-0.6,1.2-1.3,1.2C41.7,81.3,41.2,80.8,41.2,80.1z"
			/>
		<path class="st0" d="M54.8,102.2c0.3,0,0.6-0.3,0.6-0.6c0-0.3-0.3-0.6-0.6-0.6c-0.3,0-0.6,0.3-0.6,0.6
			C54.2,101.9,54.5,102.2,54.8,102.2z M54.2,122.5c0,0.3,0.3,0.6,0.6,0.6c0.3,0,0.6-0.3,0.6-0.6c0-0.3-0.3-0.6-0.6-0.6
			C54.5,122,54.2,122.2,54.2,122.5z M53.5,101.6c0-0.7,0.6-1.2,1.3-1.2c0.7,0,1.3,0.6,1.3,1.2c0,0.5-0.4,1-0.9,1.2v18.6
			c0.5,0.2,0.9,0.6,0.9,1.2c0,0.7-0.6,1.2-1.3,1.2c-0.7,0-1.3-0.6-1.3-1.2c0-0.5,0.4-1,0.9-1.2v-18.6
			C53.9,102.6,53.5,102.1,53.5,101.6z"/>
		<path class="st0" d="M54.8,93.9c0.3,0,0.6-0.3,0.6-0.6c0-0.3-0.3-0.6-0.6-0.6c-0.3,0-0.6,0.3-0.6,0.6
			C54.2,93.6,54.5,93.9,54.8,93.9z M62.1,68.4c0-0.3-0.3-0.6-0.6-0.6c-0.3,0-0.6,0.3-0.6,0.6c0,0.3,0.3,0.6,0.6,0.6
			C61.9,68.9,62.1,68.7,62.1,68.4z M54.4,92.2v-8.9l6.7-6.4c0,0,0-7.4,0-7.4c-0.5-0.2-0.9-0.6-0.9-1.2c0-0.7,0.6-1.2,1.3-1.2
			c0.7,0,1.3,0.6,1.3,1.2c0,0.6-0.4,1-0.9,1.2v7.4l-6.7,6.4h0v8.9c0.5,0.2,0.9,0.6,0.9,1.2c0,0.7-0.6,1.2-1.3,1.2
			c-0.7,0-1.3-0.6-1.3-1.2C53.5,92.8,53.9,92.3,54.4,92.2z"/>
		<path class="st0" d="M76.3,119.8c0.3,0,0.6-0.3,0.6-0.6c0-0.3-0.3-0.6-0.6-0.6c-0.3,0-0.6,0.3-0.6,0.6
			C75.7,119.6,76,119.8,76.3,119.8z M92.9,111.6c0.3,0,0.6-0.3,0.6-0.6c0-0.3-0.3-0.6-0.6-0.6c-0.3,0-0.6,0.3-0.6,0.6
			C92.3,111.3,92.6,111.6,92.9,111.6z M75.8,118.1v-3.4h6c0,0,4.3-4.1,4.3-4.1v0h5.6c0.2-0.5,0.7-0.9,1.2-0.9c0.7,0,1.3,0.6,1.3,1.2
			c0,0.7-0.6,1.2-1.3,1.2c-0.6,0-1.1-0.4-1.2-0.9h-5.6c0,0-4.3,4.1-4.3,4.1h-5.1v2.6c0.6,0.1,1,0.6,1,1.2c0,0.7-0.6,1.2-1.3,1.2
			c-0.7,0-1.3-0.6-1.3-1.2C75,118.7,75.3,118.3,75.8,118.1L75.8,118.1z"/>
		<path class="st0" d="M66.3,68.9c0.3,0,0.6-0.3,0.6-0.6s-0.3-0.6-0.6-0.6c-0.3,0-0.6,0.3-0.6,0.6C65.7,68.7,65.9,68.9,66.3,68.9z
			 M65.7,89.2c0,0.3,0.3,0.6,0.6,0.6c0.3,0,0.6-0.3,0.6-0.6c0-0.3-0.3-0.6-0.6-0.6C65.9,88.6,65.7,88.9,65.7,89.2z M71.2,94.5
			c0.3,0,0.6-0.3,0.6-0.6c0-0.3-0.3-0.6-0.6-0.6c-0.3,0-0.6,0.3-0.6,0.6C70.6,94.2,70.9,94.5,71.2,94.5z M65,68.4
			c0-0.7,0.6-1.2,1.3-1.2c0.7,0,1.3,0.6,1.3,1.2c0,0.6-0.4,1-0.9,1.2V88c0.5,0.2,0.9,0.6,0.9,1.2c0,0.2-0.1,0.4-0.2,0.6l3.2,3
			c0.2-0.1,0.4-0.2,0.6-0.2c0.7,0,1.3,0.6,1.3,1.2c0,0.7-0.6,1.2-1.3,1.2c-0.7,0-1.3-0.6-1.3-1.2c0-0.3,0.1-0.5,0.3-0.7l-3.1-3
			c-0.2,0.1-0.5,0.2-0.8,0.2c-0.7,0-1.3-0.6-1.3-1.2c0-0.5,0.4-1,0.9-1.2V69.5C65.4,69.4,65,68.9,65,68.4z"/>
		<path class="st0" d="M71.6,111.2c0.3,0,0.6-0.3,0.6-0.6c0-0.3-0.3-0.6-0.6-0.6s-0.6,0.3-0.6,0.6C71,110.9,71.2,111.2,71.6,111.2z
			 M71,119.3c0,0.3,0.3,0.6,0.6,0.6c0.3,0,0.6-0.3,0.6-0.6c0-0.3-0.3-0.6-0.6-0.6S71,118.9,71,119.3z M92.9,107.1
			c0.3,0,0.6-0.3,0.6-0.6c0-0.3-0.3-0.6-0.6-0.6c-0.3,0-0.6,0.3-0.6,0.6C92.3,106.8,92.6,107.1,92.9,107.1z M70.3,110.6
			c0-0.7,0.6-1.2,1.3-1.2c0.6,0,1.1,0.4,1.2,0.9h9c0,0,4.3-4.1,4.3-4.1v0h5.6c0.2-0.5,0.7-0.9,1.2-0.9c0.7,0,1.3,0.6,1.3,1.2
			s-0.6,1.2-1.3,1.2c-0.6,0-1.1-0.4-1.2-0.9h-5.6l-4.3,4.1h-9c-0.1,0.4-0.4,0.7-0.8,0.8v6.3c0.5,0.2,0.9,0.6,0.9,1.2
			c0,0.7-0.6,1.2-1.3,1.2c-0.7,0-1.3-0.6-1.3-1.2c0-0.5,0.4-1,0.9-1.2v-6.3C70.7,111.6,70.3,111.1,70.3,110.6L70.3,110.6z"/>
		<path class="st0" d="M70.4,102c0.3,0,0.6-0.3,0.6-0.6c0-0.3-0.3-0.6-0.6-0.6c-0.3,0-0.6,0.3-0.6,0.6C69.8,101.8,70,102,70.4,102z
			 M76.3,107.6c0.3,0,0.6-0.3,0.6-0.6c0-0.3-0.3-0.6-0.6-0.6c-0.3,0-0.6,0.2-0.6,0.6v0l0,0C75.7,107.4,76,107.6,76.3,107.6z
			 M70.4,100.2c0.7,0,1.3,0.6,1.3,1.2c0,0.3-0.1,0.6-0.3,0.8l4.1,3.9c0.2-0.2,0.5-0.3,0.8-0.3c0.7,0,1.3,0.6,1.3,1.2
			c0,0.7-0.6,1.2-1.3,1.2c-0.7,0-1.3-0.6-1.3-1.2c0-0.2,0.1-0.4,0.1-0.5l-4.2-4c-0.2,0.1-0.4,0.1-0.6,0.1c-0.7,0-1.3-0.6-1.3-1.2
			C69.1,100.8,69.7,100.2,70.4,100.2L70.4,100.2z"/>
		<path class="st0" d="M67,119.8c0.3,0,0.6-0.3,0.6-0.6c0-0.3-0.3-0.6-0.6-0.6c-0.3,0-0.6,0.3-0.6,0.6
			C66.3,119.6,66.6,119.8,67,119.8z M77.3,102c0,0.3,0.3,0.6,0.6,0.6c0.3,0,0.6-0.3,0.6-0.6c0-0.3-0.3-0.6-0.6-0.6
			C77.5,101.4,77.3,101.7,77.3,102L77.3,102L77.3,102C77.3,102,77.3,102,77.3,102z M66.5,118.1V96.8h6l4.6,4.3
			c0.2-0.2,0.5-0.3,0.8-0.3c0.7,0,1.3,0.6,1.3,1.2s-0.6,1.2-1.3,1.2c-0.7,0-1.3-0.6-1.3-1.2c0-0.2,0.1-0.4,0.1-0.5l-4.2-4v0h-5.1
			v20.6c0.5,0.2,0.9,0.6,0.9,1.2c0,0.7-0.6,1.2-1.3,1.2c-0.7,0-1.3-0.6-1.3-1.2C65.6,118.7,66,118.2,66.5,118.1L66.5,118.1z"/>
		<path class="st0" d="M37.4,129.6c0.3,0,0.6-0.3,0.6-0.6c0-0.3-0.3-0.6-0.6-0.6c-0.3,0-0.6,0.3-0.6,0.6
			C36.8,129.4,37.1,129.6,37.4,129.6z M40.4,110c0-0.3-0.3-0.6-0.6-0.6c-0.3,0-0.6,0.3-0.6,0.6c0,0.3,0.3,0.6,0.6,0.6
			C40.1,110.6,40.4,110.3,40.4,110z M37.4,127.8c0.3,0,0.6,0.1,0.8,0.3l1.2-1.1h0v-15.8c-0.5-0.2-0.9-0.6-0.9-1.2
			c0-0.7,0.6-1.2,1.3-1.2c0.7,0,1.3,0.6,1.3,1.2c0,0.5-0.4,1-0.9,1.2v15.8c0,0-1.6,1.5-1.6,1.5c0.1,0.2,0.2,0.4,0.2,0.6
			c0,0.7-0.6,1.2-1.3,1.2c-0.7,0-1.3-0.6-1.3-1.2C36.1,128.4,36.7,127.8,37.4,127.8L37.4,127.8z"/>
		<path class="st0" d="M4.3,142.2c0,0.3,0.3,0.6,0.6,0.6c0.3,0,0.6-0.3,0.6-0.6c0-0.3-0.3-0.6-0.6-0.6
			C4.5,141.6,4.3,141.9,4.3,142.2z M8.6,139H5.3v2.1c0.5,0.2,0.9,0.6,0.9,1.2c0,0.7-0.6,1.2-1.3,1.2c-0.7,0-1.3-0.6-1.3-1.2
			c0-0.6,0.4-1,0.9-1.2v-2.8h5v3.1H8.6V139L8.6,139z"/>
		<path class="st0" d="M20,91.3c0-0.3-0.3-0.6-0.6-0.6c-0.3,0-0.6,0.3-0.6,0.6c0,0.3,0.3,0.6,0.6,0.6C19.8,91.9,20,91.7,20,91.3z
			 M30.3,110.6c0.3,0,0.6-0.3,0.6-0.6c0-0.3-0.3-0.6-0.6-0.6c-0.3,0-0.6,0.3-0.6,0.6C29.7,110.3,30,110.6,30.3,110.6z M19,92.5
			c-0.5-0.2-0.9-0.6-0.9-1.2c0-0.7,0.6-1.2,1.3-1.2c0.7,0,1.3,0.6,1.3,1.2c0,0.5-0.4,1-0.9,1.2v7.2l9.8,9.3c0.2-0.1,0.4-0.2,0.7-0.2
			c0.7,0,1.3,0.6,1.3,1.2c0,0.7-0.6,1.2-1.3,1.2c-0.7,0-1.3-0.6-1.3-1.2c0-0.3,0.1-0.5,0.2-0.7L19,99.7L19,92.5L19,92.5z"/>
		<path class="st0" d="M3.8,131.8c0.3,0,0.6-0.3,0.6-0.6c0-0.3-0.3-0.6-0.6-0.6s-0.6,0.3-0.6,0.6C3.2,131.5,3.5,131.8,3.8,131.8z
			 M12.2,109.5c-0.3,0-0.6,0.3-0.6,0.6c0,0.3,0.3,0.6,0.6,0.6c0.3,0,0.6-0.3,0.6-0.6C12.8,109.7,12.5,109.5,12.2,109.5z M3.8,129.9
			c0.6,0,1.1,0.4,1.2,0.9h11v-5.4l3.1-2.9v-5.4h0l-6.3-6c-0.2,0.1-0.4,0.1-0.6,0.1c-0.7,0-1.3-0.6-1.3-1.2c0-0.7,0.6-1.2,1.3-1.2
			c0.7,0,1.3,0.6,1.3,1.2c0,0.3-0.1,0.6-0.3,0.8l6.7,6.3v5.4l-3.1,2.9h0v6.1H5c-0.2,0.5-0.7,0.9-1.2,0.9c-0.7,0-1.3-0.6-1.3-1.2
			C2.5,130.5,3.1,129.9,3.8,129.9L3.8,129.9z"/>
		<path class="st0" d="M8.7,105.9c0,0.3,0.3,0.6,0.6,0.6c0.3,0,0.6-0.3,0.6-0.6c0-0.3-0.3-0.6-0.6-0.6C9,105.3,8.7,105.6,8.7,105.9z
			 M1.8,89.9c-0.3,0-0.6,0.3-0.6,0.6s0.3,0.6,0.6,0.6c0.3,0,0.6-0.3,0.6-0.6S2.2,89.9,1.8,89.9z M9.7,104.7c0.5,0.2,0.9,0.6,0.9,1.2
			c0,0.7-0.6,1.2-1.3,1.2c-0.7,0-1.3-0.6-1.3-1.2c0-0.6,0.4-1,0.9-1.2v-7.1h0l-6.4-6.1c-0.2,0.1-0.4,0.2-0.7,0.2
			c-0.7,0-1.3-0.6-1.3-1.2c0-0.7,0.6-1.2,1.3-1.2c0.7,0,1.3,0.6,1.3,1.2c0,0.3-0.1,0.5-0.2,0.7l6.8,6.4L9.7,104.7L9.7,104.7z"/>
		<path class="st0" d="M6.4,109.5c-0.3,0-0.6,0.3-0.6,0.6c0,0.3,0.3,0.6,0.6,0.6c0.3,0,0.6-0.3,0.6-0.6C7,109.7,6.7,109.5,6.4,109.5
			z M7.6,127.4c-0.3,0-0.6,0.3-0.6,0.6c0,0.3,0.3,0.6,0.6,0.6c0.3,0,0.6-0.3,0.6-0.6C8.2,127.6,7.9,127.4,7.6,127.4z M14.3,122.5
			l-3.1,2.9h0v2.9H8.8c-0.2,0.5-0.7,0.9-1.2,0.9c-0.7,0-1.3-0.6-1.3-1.2c0-0.7,0.6-1.2,1.3-1.2c0.6,0,1.1,0.4,1.2,0.9h1.7v-2.2
			l3.1-2.9v-5.4h0l-6.4-6.1c-0.2,0.1-0.4,0.2-0.7,0.2c-0.7,0-1.3-0.6-1.3-1.2c0-0.7,0.6-1.2,1.3-1.2c0.7,0,1.3,0.6,1.3,1.2
			c0,0.2-0.1,0.5-0.2,0.6l6.8,6.5L14.3,122.5L14.3,122.5z"/>
		<path class="st0" d="M14.7,105.3c-0.3,0-0.6,0.3-0.6,0.6s0.3,0.6,0.6,0.6c0.3,0,0.6-0.3,0.6-0.6S15,105.3,14.7,105.3z M25.1,116.1
			l-9.7-9.2c-0.2,0.1-0.4,0.2-0.7,0.2c-0.7,0-1.3-0.6-1.3-1.2c0-0.7,0.6-1.2,1.3-1.2c0.7,0,1.3,0.6,1.3,1.2c0,0.3-0.1,0.5-0.2,0.7
			l10.1,9.6H25.1L25.1,116.1z"/>
		<path class="st0" d="M21.8,133c0.3,0,0.6-0.3,0.6-0.6c0-0.3-0.3-0.6-0.6-0.6c-0.3,0-0.6,0.3-0.6,0.6C21.2,132.7,21.5,133,21.8,133
			z M21.8,131.2c0.3,0,0.5,0.1,0.7,0.2l2.6-2.4v-12.8h0.8v12.8l-3,2.8c0.1,0.2,0.2,0.4,0.2,0.7c0,0.7-0.6,1.2-1.3,1.2
			c-0.7,0-1.3-0.6-1.3-1.2C20.5,131.7,21.1,131.2,21.8,131.2L21.8,131.2z"/>
		<path class="st0" d="M28.3,98.5c-0.3,0-0.6,0.3-0.6,0.6s0.3,0.6,0.6,0.6c0.3,0,0.6-0.3,0.6-0.6S28.7,98.5,28.3,98.5z M28.9,82.5
			c0-0.3-0.3-0.6-0.6-0.6c-0.3,0-0.6,0.3-0.6,0.6c0,0.3,0.3,0.6,0.6,0.6C28.7,83.1,28.9,82.8,28.9,82.5z M18.8,86.5
			c0,0.3,0.3,0.6,0.6,0.6c0.3,0,0.6-0.3,0.6-0.6S19.8,86,19.4,86C19.1,86,18.8,86.2,18.8,86.5z M29.6,99.1c0,0.7-0.6,1.2-1.3,1.2
			c-0.7,0-1.3-0.6-1.3-1.2c0-0.6,0.4-1,0.9-1.2V83.7c-0.5-0.2-0.9-0.6-0.9-1.2c0-0.6,0.4-1,0.9-1.2v-1.4h-8.1v5.5
			c0.5,0.2,0.9,0.6,0.9,1.2c0,0.7-0.6,1.2-1.3,1.2c-0.7,0-1.3-0.6-1.3-1.2c0-0.6,0.4-1,0.9-1.2v-6.2h9.7v2.2
			c0.5,0.2,0.9,0.6,0.9,1.2c0,0.5-0.4,1-0.9,1.2v14.2C29.3,98.1,29.6,98.5,29.6,99.1L29.6,99.1z"/>
		<path class="st0" d="M39,99.5c-0.3,0-0.6,0.3-0.6,0.6c0,0.3,0.3,0.6,0.6,0.6c0.3,0,0.6-0.3,0.6-0.6C39.6,99.8,39.3,99.5,39,99.5z
			 M39.6,84.5c0-0.3-0.3-0.6-0.6-0.6c-0.3,0-0.6,0.3-0.6,0.6c0,0.3,0.3,0.6,0.6,0.6C39.3,85.1,39.6,84.8,39.6,84.5z M40.3,100.1
			c0,0.7-0.6,1.2-1.3,1.2c-0.7,0-1.3-0.6-1.3-1.2c0-0.6,0.4-1,0.9-1.2V85.7c-0.5-0.2-0.9-0.6-0.9-1.2c0-0.7,0.6-1.2,1.3-1.2
			c0.7,0,1.3,0.6,1.3,1.2c0,0.5-0.4,1-0.9,1.2v13.3C39.9,99.1,40.3,99.6,40.3,100.1z"/>
		<path class="st0" d="M41.6,104.2c0.3,0,0.6-0.3,0.6-0.6c0-0.3-0.3-0.6-0.6-0.6c-0.3,0-0.6,0.3-0.6,0.6
			C41,103.9,41.3,104.2,41.6,104.2z M33.6,103c-0.3,0-0.6,0.3-0.6,0.6c0,0.3,0.3,0.6,0.6,0.6c0.3,0,0.6-0.3,0.6-0.6
			C34.2,103.3,34,103,33.6,103z M33.6,104.9c-0.7,0-1.3-0.6-1.3-1.2c0-0.7,0.6-1.2,1.3-1.2c0.6,0,1.1,0.4,1.2,0.9h5.5
			c0.2-0.5,0.7-0.9,1.2-0.9c0.7,0,1.3,0.6,1.3,1.2c0,0.7-0.6,1.2-1.3,1.2c-0.6,0-1.1-0.4-1.2-0.9h-5.5
			C34.7,104.5,34.2,104.9,33.6,104.9z"/>
		<path class="st0" d="M24.3,91.3c0-0.3-0.3-0.6-0.6-0.6c-0.3,0-0.6,0.3-0.6,0.6c0,0.3,0.3,0.6,0.6,0.6C24,91.9,24.3,91.7,24.3,91.3
			z M34.6,110.6c0.3,0,0.6-0.3,0.6-0.6c0-0.3-0.3-0.6-0.6-0.6c-0.3,0-0.6,0.3-0.6,0.6C34,110.3,34.2,110.6,34.6,110.6z M23.3,92.5
			c-0.5-0.2-0.9-0.6-0.9-1.2c0-0.7,0.6-1.2,1.3-1.2c0.7,0,1.3,0.6,1.3,1.2c0,0.5-0.4,1-0.9,1.2v7.2l9.8,9.3c0.2-0.1,0.4-0.2,0.7-0.2
			c0.7,0,1.3,0.6,1.3,1.2c0,0.7-0.6,1.2-1.3,1.2c-0.7,0-1.3-0.6-1.3-1.2c0-0.3,0.1-0.5,0.2-0.7l-10.2-9.6L23.3,92.5L23.3,92.5z"/>
		<path class="st0" d="M33.6,98.5c-0.3,0-0.6,0.3-0.6,0.6s0.3,0.6,0.6,0.6c0.3,0,0.6-0.3,0.6-0.6S34,98.5,33.6,98.5z M34.2,78.5
			c0-0.3-0.3-0.6-0.6-0.6c-0.3,0-0.6,0.3-0.6,0.6s0.3,0.6,0.6,0.6C34,79.1,34.2,78.8,34.2,78.5z M34.9,99.1c0,0.7-0.6,1.2-1.3,1.2
			c-0.7,0-1.3-0.6-1.3-1.2c0-0.6,0.4-1,0.9-1.2V79.7c-0.5-0.2-0.9-0.6-0.9-1.2c0-0.7,0.6-1.2,1.3-1.2c0.7,0,1.3,0.6,1.3,1.2
			c0,0.5-0.4,1-0.9,1.2v18.2C34.6,98.1,34.9,98.5,34.9,99.1z"/>
		<path class="st0" d="M209.6,63.6c-0.2,0-0.3,0.1-0.4,0.2c-0.1,0.1-0.2,0.2-0.2,0.4c0,0.2,0.2,0.5,0.4,0.5c0.1,0,0.1,0,0.2,0
			c0.1,0,0.3-0.1,0.4-0.1c0,0,0,0,0.1,0c0,0,0,0,0,0c0.1-0.1,0.2-0.2,0.2-0.4c0-0.1,0-0.1,0-0.1C210.1,63.8,209.9,63.6,209.6,63.6
			L209.6,63.6z M231.2,55.2l-7.1,6.7h-5.9l-3.1-2.9c0,0-5.1,0-5.1,0v4c0,0,0.1,0,0.1,0c0,0,0,0,0.1,0c0,0,0.1,0,0.1,0.1c0,0,0,0,0,0
			c0.1,0,0.1,0.1,0.1,0.1c0.2,0.2,0.4,0.5,0.4,0.9c0,0.7-0.6,1.2-1.3,1.2c-0.7,0-1.3-0.6-1.3-1.2c0-0.6,0.4-1,0.9-1.2v-4.8h5.9
			l3.1,2.9v0h5.9v0l7.1-6.7h6.9v0.8L231.2,55.2L231.2,55.2L231.2,55.2z"/>
		<path class="st0" d="M231.7,26.2c0.3,0,0.6-0.3,0.6-0.6c0-0.3-0.3-0.6-0.6-0.6c-0.3,0-0.6,0.3-0.6,0.6
			C231.1,26,231.3,26.2,231.7,26.2z M231.1,35.8c0,0.3,0.3,0.6,0.6,0.6c0.3,0,0.6-0.3,0.6-0.6c0-0.3-0.3-0.6-0.6-0.6
			C231.3,35.2,231.1,35.5,231.1,35.8z M230.4,25.7c0-0.7,0.6-1.2,1.3-1.2c0.7,0,1.3,0.6,1.3,1.2c0,0.6-0.4,1-0.9,1.2v7.8
			c0.5,0.2,0.9,0.6,0.9,1.2c0,0.7-0.6,1.2-1.3,1.2c-0.7,0-1.3-0.6-1.3-1.2c0-0.5,0.4-1,0.9-1.2v-7.8
			C230.8,26.7,230.4,26.2,230.4,25.7L230.4,25.7z"/>
		<path class="st0" d="M217,28.5c0.3,0,0.6-0.3,0.6-0.6c0-0.3-0.3-0.6-0.6-0.6c-0.3,0-0.6,0.3-0.6,0.6
			C216.4,28.2,216.6,28.5,217,28.5z M226.1,28.5c0.3,0,0.6-0.3,0.6-0.6c0-0.3-0.3-0.6-0.6-0.6c-0.3,0-0.6,0.3-0.6,0.6
			C225.5,28.2,225.8,28.5,226.1,28.5z M217,26.7c0.6,0,1.1,0.4,1.2,0.9h6.7c0.2-0.5,0.7-0.9,1.2-0.9c0.7,0,1.3,0.6,1.3,1.2
			c0,0.7-0.6,1.2-1.3,1.2c-0.6,0-1.1-0.4-1.2-0.9h-6.7c-0.2,0.5-0.7,0.9-1.2,0.9c-0.7,0-1.3-0.6-1.3-1.2
			C215.7,27.2,216.3,26.7,217,26.7L217,26.7z"/>
		<path class="st0" d="M217,33.8c0.3,0,0.6-0.3,0.6-0.6c0-0.3-0.3-0.6-0.6-0.6c-0.3,0-0.6,0.3-0.6,0.6
			C216.4,33.6,216.6,33.8,217,33.8z M226.1,33.8c0.3,0,0.6-0.3,0.6-0.6c0-0.3-0.3-0.6-0.6-0.6c-0.3,0-0.6,0.3-0.6,0.6
			C225.5,33.6,225.8,33.8,226.1,33.8z M217,32c0.6,0,1.1,0.4,1.2,0.9h6.7c0.2-0.5,0.7-0.9,1.2-0.9c0.7,0,1.3,0.6,1.3,1.2
			c0,0.7-0.6,1.2-1.3,1.2c-0.6,0-1.1-0.4-1.2-0.9h-6.7c-0.2,0.5-0.7,0.9-1.2,0.9c-0.7,0-1.3-0.6-1.3-1.2C215.7,32.6,216.3,32,217,32
			L217,32z"/>
		<path class="st0" d="M234.5,115.5c0-0.3-0.3-0.6-0.6-0.6c-0.3,0-0.6,0.3-0.6,0.6c0,0.3,0.3,0.6,0.6,0.6
			C234.2,116,234.5,115.8,234.5,115.5z M209.6,77.2c-0.3,0-0.6,0.3-0.6,0.6c0,0.3,0.3,0.6,0.6,0.6c0.3,0,0.6-0.3,0.6-0.6
			C210.2,77.4,210,77.2,209.6,77.2z M235.9,135.9l-2.4-2.3v-17c-0.5-0.2-0.9-0.6-0.9-1.2c0-0.6,0.4-1,0.9-1.2V95.5h0l-18.4-17.4
			c0,0-4.3,0-4.3,0c-0.2,0.5-0.7,0.9-1.2,0.9c-0.7,0-1.3-0.6-1.3-1.2c0-0.7,0.6-1.2,1.3-1.2c0.6,0,1.1,0.4,1.2,0.9h4.3l19.1,18.1
			v18.8c0.5,0.2,0.9,0.6,0.9,1.2c0,0.5-0.4,1-0.9,1.2v17h0l2.4,2.3v6.5h0l1.4,1.3v0.8l-2.2-2.1L235.9,135.9L235.9,135.9z"/>
		<path class="st0" d="M188.9,64.2c0,0.3,0.3,0.6,0.6,0.6c0.3,0,0.6-0.3,0.6-0.6c0-0.3-0.3-0.6-0.6-0.6
			C189.2,63.6,188.9,63.9,188.9,64.2z M231.2,41.8l-4-3.7c0,0-12.1,0-12.1,0c0,0-4,3.7-4,3.7h-21.2V63c0.5,0.2,0.9,0.6,0.9,1.2
			c0,0.7-0.6,1.2-1.3,1.2c-0.7,0-1.3-0.6-1.3-1.2c0-0.5,0.4-1,0.9-1.2V41.8c0,0,0-0.8,0-0.8h22.1v0l4-3.8h12.1l4,3.8v0h6.9v0.8
			L231.2,41.8L231.2,41.8L231.2,41.8z"/>
		<path class="st0" d="M236.5,26.2c0.3,0,0.6-0.3,0.6-0.6c0-0.3-0.3-0.6-0.6-0.6c-0.3,0-0.6,0.3-0.6,0.6
			C235.9,26,236.1,26.2,236.5,26.2z M235.9,38.5c0,0.3,0.3,0.6,0.6,0.6c0.3,0,0.6-0.3,0.6-0.6c0-0.3-0.3-0.6-0.6-0.6
			C236.1,38,235.9,38.2,235.9,38.5z M235.2,25.7c0-0.7,0.6-1.2,1.3-1.2c0.7,0,1.3,0.6,1.3,1.2c0,0.6-0.4,1-0.9,1.2v10.5
			c0.5,0.2,0.9,0.6,0.9,1.2c0,0.7-0.6,1.2-1.3,1.2c-0.7,0-1.3-0.6-1.3-1.2c0-0.5,0.4-1,0.9-1.2V26.8
			C235.5,26.7,235.2,26.2,235.2,25.7z"/>
		<path class="st0" d="M235.2,1.3c-0.3,0-0.6,0.3-0.6,0.6c0,0.3,0.3,0.6,0.6,0.6c0.3,0,0.6-0.3,0.6-0.6
			C235.8,1.6,235.5,1.3,235.2,1.3z M200.9,4.2c-0.3,0-0.6,0.3-0.6,0.6c0,0.3,0.3,0.6,0.6,0.6c0.3,0,0.6-0.3,0.6-0.6
			C201.5,4.5,201.2,4.2,200.9,4.2z M235.6,3.1v2.1h-33.4C202,5.7,201.5,6,200.9,6c-0.7,0-1.3-0.6-1.3-1.2c0-0.7,0.6-1.2,1.3-1.2
			c0.6,0,1.1,0.4,1.2,0.9h32.6V3.1c-0.5-0.2-0.9-0.6-0.9-1.2c0-0.7,0.6-1.2,1.3-1.2c0.7,0,1.3,0.6,1.3,1.2
			C236.5,2.4,236.1,2.9,235.6,3.1L235.6,3.1z"/>
		<path class="st0" d="M210.2,34.8c0,0.3,0.3,0.6,0.6,0.6c0.3,0,0.6-0.3,0.6-0.6c0-0.3-0.3-0.6-0.6-0.6
			C210.4,34.2,210.2,34.5,210.2,34.8z M211.2,29.5v4.1c0.5,0.2,0.9,0.6,0.9,1.2c0,0.7-0.6,1.2-1.3,1.2c-0.7,0-1.3-0.6-1.3-1.2
			c0-0.5,0.4-1,0.9-1.2v-4.1l8.3-7.8v0h19.5v0.8h-19.5L211.2,29.5L211.2,29.5z"/>
		<path class="st0" d="M182.1,2.1c-0.3,0-0.6,0.3-0.6,0.6c0,0.3,0.3,0.6,0.6,0.6c0.3,0,0.6-0.3,0.6-0.6
			C182.7,2.3,182.4,2.1,182.1,2.1z M232.8,12.9l-3.6-3.4c0,0-31.7,0-31.7,0c0,0-6.8-6.5-6.8-6.5h-7.3c-0.2,0.5-0.7,0.9-1.2,0.9
			c-0.7,0-1.3-0.6-1.3-1.2s0.6-1.2,1.3-1.2c0.6,0,1.1,0.4,1.2,0.9h7.3l6.8,6.5v0h31.7l3.6,3.4h5.3v0.8L232.8,12.9L232.8,12.9
			L232.8,12.9z"/>
		<path class="st0" d="M182.1,6.6c-0.3,0-0.6,0.3-0.6,0.6c0,0.3,0.3,0.6,0.6,0.6c0.3,0,0.6-0.3,0.6-0.6
			C182.7,6.8,182.4,6.6,182.1,6.6z M233,17.6l-3.8-3.5c0,0-31.7,0-31.7,0c0,0-6.8-6.5-6.8-6.5h-7.3c-0.2,0.5-0.7,0.9-1.2,0.9
			c-0.7,0-1.3-0.6-1.3-1.2s0.6-1.2,1.3-1.2c0.6,0,1.1,0.4,1.2,0.9h7.3l6.8,6.5v0h31.7l3.8,3.6h5.1v0.8L233,17.6L233,17.6L233,17.6z"
			/>
		<path class="st0" d="M208.7,17.4c0.3,0,0.6-0.3,0.6-0.6c0-0.3-0.3-0.6-0.6-0.6c-0.3,0-0.6,0.3-0.6,0.6
			C208.1,17.1,208.4,17.4,208.7,17.4z M208.1,25c0,0.3,0.3,0.6,0.6,0.6c0.3,0,0.6-0.3,0.6-0.6c0-0.3-0.3-0.6-0.6-0.6
			C208.4,24.4,208.1,24.6,208.1,25z M207.4,16.8c0-0.7,0.6-1.2,1.3-1.2c0.7,0,1.3,0.6,1.3,1.2c0,0.6-0.4,1-0.9,1.2v5.8
			c0.5,0.2,0.9,0.6,0.9,1.2c0,0.7-0.6,1.2-1.3,1.2c-0.7,0-1.3-0.6-1.3-1.2c0-0.5,0.4-1,0.9-1.2V18C207.8,17.8,207.4,17.4,207.4,16.8
			z"/>
		<path class="st0" d="M214.5,18.8c0,0.3,0.3,0.6,0.6,0.6c0.3,0,0.6-0.3,0.6-0.6c0-0.3-0.3-0.6-0.6-0.6
			C214.8,18.2,214.5,18.5,214.5,18.8z M227.7,19.4c0.3,0,0.6-0.3,0.6-0.6c0-0.3-0.3-0.6-0.6-0.6c-0.3,0-0.6,0.3-0.6,0.6
			C227.1,19.1,227.4,19.4,227.7,19.4z M216.4,18.4h10.1c0.2-0.5,0.7-0.9,1.2-0.9c0.7,0,1.3,0.6,1.3,1.2c0,0.7-0.6,1.2-1.3,1.2
			c-0.6,0-1.1-0.4-1.2-0.9h-10.1c-0.2,0.5-0.7,0.9-1.2,0.9c-0.7,0-1.3-0.6-1.3-1.2c0-0.7,0.6-1.2,1.3-1.2
			C215.7,17.6,216.2,17.9,216.4,18.4z"/>
		<path class="st0" d="M78.7,145.7c0.3,0,0.6-0.3,0.6-0.6c0-0.3-0.3-0.6-0.6-0.6c-0.3,0-0.6,0.3-0.6,0.6
			C78.1,145.4,78.3,145.7,78.7,145.7z M83.1,141.1c0.3,0,0.6-0.3,0.6-0.6s-0.3-0.6-0.6-0.6c-0.3,0-0.6,0.3-0.6,0.6
			S82.8,141.1,83.1,141.1z M81.6,129.3c0-0.3-0.3-0.6-0.6-0.6c-0.3,0-0.6,0.3-0.6,0.6c0,0.3,0.2,0.5,0.5,0.6h0.1
			C81.4,129.8,81.6,129.6,81.6,129.3L81.6,129.3z M78.7,143.9c0.2,0,0.5,0.1,0.7,0.2l2.8-2.7c-0.2-0.2-0.4-0.5-0.4-0.8
			c0-0.5,0.4-1,0.9-1.2v-3.5l-2.1-2v-3.4c-0.5-0.2-0.9-0.6-0.9-1.2c0-0.7,0.6-1.2,1.3-1.2c0.7,0,1.3,0.6,1.3,1.2
			c0,0.5-0.4,1-0.9,1.2v3.4h0l2.1,2v3.5c0.5,0.2,0.9,0.6,0.9,1.2c0,0.7-0.6,1.2-1.3,1.2c-0.2,0-0.3,0-0.5-0.1l-2.9,2.7
			c0.1,0.2,0.2,0.4,0.2,0.7c0,0.7-0.6,1.2-1.3,1.2c-0.7,0-1.3-0.6-1.3-1.2C77.4,144.4,78,143.9,78.7,143.9L78.7,143.9z"/>
		<path class="st0" d="M223.1,69.9c-0.3,0-0.6,0.3-0.6,0.6c0,0.3,0.3,0.6,0.6,0.6c0.3,0,0.6-0.3,0.6-0.6
			C223.7,70.1,223.4,69.9,223.1,69.9z M223.1,71.7c-0.7,0-1.3-0.6-1.3-1.2c0-0.7,0.6-1.2,1.3-1.2c0.6,0,1.1,0.4,1.2,0.9h13.8v0.8
			h-13.8C224.2,71.3,223.7,71.7,223.1,71.7L223.1,71.7z"/>
		<path class="st0" d="M229.9,78.7c0.3,0,0.6-0.3,0.6-0.6c0-0.3-0.3-0.6-0.6-0.6c-0.3,0-0.6,0.3-0.6,0.6
			C229.3,78.5,229.6,78.7,229.9,78.7z M224.7,77.8h4c0.2-0.5,0.7-0.9,1.2-0.9c0.7,0,1.3,0.6,1.3,1.2c0,0.7-0.6,1.2-1.3,1.2
			c-0.6,0-1.1-0.4-1.2-0.9h-4V77.8L224.7,77.8z"/>
		<path class="st0" d="M231,61.6c-0.3,0-0.6,0.3-0.6,0.6s0.3,0.6,0.6,0.6c0.3,0,0.6-0.3,0.6-0.6S231.4,61.6,231,61.6z M231,63.4
			c-0.7,0-1.3-0.6-1.3-1.2c0-0.7,0.6-1.2,1.3-1.2c0.6,0,1.1,0.4,1.2,0.9h5.8v0.8h-5.8C232.1,63,231.6,63.4,231,63.4L231,63.4z"/>
		<path class="st0" d="M223.1,65.4c-0.3,0-0.6,0.3-0.6,0.6c0,0.3,0.3,0.6,0.6,0.6c0.3,0,0.6-0.3,0.6-0.6
			C223.7,65.7,223.4,65.4,223.1,65.4z M223.1,67.3c-0.7,0-1.3-0.6-1.3-1.2c0-0.7,0.6-1.2,1.3-1.2c0.6,0,1.1,0.4,1.2,0.9h13.8v0.8
			h-13.8C224.2,66.9,223.7,67.3,223.1,67.3L223.1,67.3z"/>
		<path class="st0" d="M229.9,83.3c0.3,0,0.6-0.3,0.6-0.6c0-0.3-0.3-0.6-0.6-0.6c-0.3,0-0.6,0.3-0.6,0.6
			C229.3,83,229.6,83.3,229.9,83.3z M229.9,81.5c0.7,0,1.3,0.6,1.3,1.2c0,0.7-0.6,1.2-1.3,1.2c-0.6,0-1.1-0.4-1.2-0.9h-4v-0.8h4
			C228.9,81.8,229.4,81.5,229.9,81.5L229.9,81.5z"/>
		<path class="st0" d="M235.9,73.2c-0.3,0-0.6,0.3-0.6,0.6s0.3,0.6,0.6,0.6c0.3,0,0.6-0.3,0.6-0.6S236.2,73.2,235.9,73.2z
			 M235.9,75.1c-0.7,0-1.3-0.6-1.3-1.2c0-0.7,0.6-1.2,1.3-1.2c0.6,0,1.1,0.4,1.2,0.9h1v0.8h-1C236.9,74.7,236.4,75.1,235.9,75.1
			L235.9,75.1z"/>
		<path class="st0" d="M204.5,63.6c-0.3,0-0.6,0.3-0.6,0.6c0,0.3,0.3,0.6,0.6,0.6c0.3,0,0.6-0.3,0.6-0.6
			C205.1,63.9,204.8,63.6,204.5,63.6z M231.2,50.7l-7.1,6.7h-5.9l-3.1-2.9c0,0-10.2,0-10.2,0v8.5c0.5,0.2,0.8,0.6,0.8,1.1
			c0,0.7-0.6,1.2-1.3,1.2c-0.7,0-1.3-0.6-1.3-1.2c0-0.6,0.4-1.1,1-1.2v-9.2h11l3.1,2.9v0h5.9v0l7.1-6.7h6.9v0.8L231.2,50.7
			L231.2,50.7L231.2,50.7z"/>
		<path class="st0" d="M230,86c-0.3,0-0.6,0.3-0.6,0.6c0,0.3,0.3,0.6,0.6,0.6c0.3,0,0.6-0.3,0.6-0.6C230.6,86.2,230.3,86,230,86z
			 M230,87.8c-0.7,0-1.3-0.6-1.3-1.2c0-0.7,0.6-1.2,1.3-1.2c0.6,0,1.1,0.4,1.2,0.9h6.9v0.8h-6.9C231,87.4,230.5,87.8,230,87.8
			L230,87.8z"/>
		<path class="st0" d="M235.9,82.1c-0.3,0-0.6,0.3-0.6,0.6c0,0.3,0.3,0.6,0.6,0.6c0.3,0,0.6-0.3,0.6-0.6
			C236.5,82.4,236.2,82.1,235.9,82.1z M235.9,84c-0.7,0-1.3-0.6-1.3-1.2c0-0.7,0.6-1.2,1.3-1.2c0.6,0,1.1,0.4,1.2,0.9h1v0.8h-1
			C236.9,83.6,236.4,84,235.9,84L235.9,84z"/>
		<path class="st0" d="M235.9,77.6c-0.3,0-0.6,0.3-0.6,0.6c0,0.3,0.3,0.6,0.6,0.6c0.3,0,0.6-0.3,0.6-0.6
			C236.5,77.8,236.2,77.6,235.9,77.6z M235.9,79.4c-0.7,0-1.3-0.6-1.3-1.2c0-0.7,0.6-1.2,1.3-1.2c0.6,0,1.1,0.4,1.2,0.9h1v0.8h-1
			C236.9,79,236.4,79.4,235.9,79.4L235.9,79.4z"/>
		<path class="st0" d="M234.2,89.9c-0.3,0-0.6,0.3-0.6,0.6s0.3,0.6,0.6,0.6c0.3,0,0.6-0.3,0.6-0.6S234.5,89.9,234.2,89.9z
			 M234.2,91.8c-0.7,0-1.3-0.6-1.3-1.2c0-0.7,0.6-1.2,1.3-1.2c0.7,0,1.3,0.6,1.3,1.2c0,0.3-0.1,0.5-0.2,0.7l2.8,2.7v0.8l-3.3-3.1
			C234.7,91.7,234.4,91.8,234.2,91.8L234.2,91.8z"/>
		<path class="st0" d="M199,64.2c0,0.3,0.3,0.6,0.6,0.6c0.3,0,0.6-0.3,0.6-0.6c0-0.3-0.3-0.6-0.6-0.6C199.3,63.6,199,63.9,199,64.2z
			 M231.2,46.3l-7.1,6.7h-5.9l-3.1-2.9c0,0-15.1,0-15.1,0v13c0.5,0.2,0.9,0.6,0.9,1.2c0,0.7-0.6,1.2-1.3,1.2c-0.7,0-1.3-0.6-1.3-1.2
			c0-0.5,0.4-1,0.9-1.2V49.3h15.9l3.1,2.9v0h5.9v0l7.1-6.7h6.9v0.8L231.2,46.3L231.2,46.3z"/>
		<path class="st0" d="M154.7,35.7c-0.3,0-0.6,0.3-0.6,0.6s0.3,0.6,0.6,0.6c0.3,0,0.6-0.3,0.6-0.6C155.3,36,155,35.7,154.7,35.7z
			 M160.1,42c0.3,0,0.6-0.3,0.6-0.6c0-0.3-0.3-0.6-0.6-0.6c-0.3,0-0.6,0.3-0.6,0.6C159.5,41.7,159.8,42,160.1,42z M160.1,40.2
			c0.7,0,1.3,0.6,1.3,1.2c0,0.7-0.6,1.2-1.3,1.2c-0.7,0-1.3-0.6-1.3-1.2c0-0.2,0.1-0.4,0.2-0.6l-3.6-3.4c-0.2,0.1-0.4,0.2-0.7,0.2
			c-0.7,0-1.3-0.6-1.3-1.2s0.6-1.2,1.3-1.2c0.7,0,1.3,0.6,1.3,1.2c0,0.3-0.1,0.5-0.2,0.7l3.6,3.4C159.6,40.3,159.8,40.2,160.1,40.2
			L160.1,40.2z"/>
		<path class="st0" d="M116.9,52.1c-0.1-0.1-0.2-0.1-0.4-0.1c-0.3,0-0.6,0.3-0.6,0.6c0,0.3,0.3,0.6,0.6,0.6c0.1,0,0.2,0,0.2,0
			c0.2-0.1,0.4-0.3,0.4-0.5C117.2,52.4,117.1,52.2,116.9,52.1L116.9,52.1z M171,74.2c0.3,0,0.6-0.3,0.6-0.6c0-0.3-0.3-0.6-0.6-0.6
			c-0.3,0-0.6,0.3-0.6,0.6C170.4,74,170.6,74.2,171,74.2z M145,62.6L145,62.6l0,3.9h13.9c0,0,7.1,6.7,7.1,6.7h3.7
			c0.2-0.5,0.7-0.9,1.2-0.9c0.7,0,1.3,0.6,1.3,1.2c0,0.7-0.6,1.2-1.3,1.2c-0.6,0-1.1-0.4-1.2-0.9H166v0l-7.1-6.7c0,0-13.9,0-13.9,0
			h-0.8v-4.7c0,0-10.2-9.6-10.2-9.6h-16.1c-0.1,0.3-0.3,0.5-0.5,0.6c0,0,0,0,0,0c-0.1,0-0.1,0.1-0.2,0.1c-0.2,0.1-0.3,0.1-0.5,0.1
			c-0.7,0-1.3-0.6-1.3-1.2c0-0.4,0.2-0.8,0.6-1c0.2-0.1,0.5-0.2,0.7-0.2c0.6,0,1.1,0.4,1.2,0.9H134L145,62.6L145,62.6z"/>
		<path class="st0" d="M144.4,21.2c0-0.3-0.3-0.6-0.6-0.6c-0.3,0-0.6,0.3-0.6,0.6s0.3,0.6,0.6,0.6C144.1,21.8,144.4,21.5,144.4,21.2
			z M152.4,50.5c0.3,0,0.6-0.3,0.6-0.6c0-0.3-0.3-0.6-0.6-0.6c-0.3,0-0.6,0.3-0.6,0.6C151.8,50.2,152,50.5,152.4,50.5z M152.4,48.7
			c0.7,0,1.3,0.6,1.3,1.2c0,0.7-0.6,1.2-1.3,1.2c-0.7,0-1.3-0.6-1.3-1.2c0-0.2,0.1-0.4,0.2-0.6l-7.9-7.5v-0.8c0,0,0-18.7,0-18.7
			c-0.5-0.2-0.9-0.6-0.9-1.2c0-0.7,0.6-1.2,1.3-1.2c0.7,0,1.3,0.6,1.3,1.2c0,0.6-0.4,1-0.9,1.2v19.5c0,0,7.5,7.1,7.5,7.1
			C151.8,48.7,152.1,48.7,152.4,48.7L152.4,48.7z"/>
		<path class="st0" d="M119.8,25.4c-0.3,0-0.6,0.3-0.6,0.6c0,0.3,0.3,0.6,0.6,0.6c0.3,0,0.6-0.3,0.6-0.6
			C120.4,25.7,120.1,25.4,119.8,25.4z M111.2,52.6c0,0.3,0.3,0.6,0.6,0.6c0.3,0,0.6-0.3,0.6-0.6c0-0.3-0.3-0.6-0.6-0.6
			C111.5,52,111.2,52.3,111.2,52.6z M120.2,27.2V46h-0.8c0,0-5,0-5,0c0,0-2.2,2.1-2.2,2.1h0v3.4c0.5,0.2,0.9,0.6,0.9,1.2
			c0,0.7-0.6,1.2-1.3,1.2c-0.7,0-1.3-0.6-1.3-1.2c0-0.5,0.4-1,0.9-1.2V48l3-2.8h5v-18c-0.5-0.2-0.9-0.6-0.9-1.2
			c0-0.7,0.6-1.2,1.3-1.2c0.7,0,1.3,0.6,1.3,1.2C121.1,26.5,120.7,27,120.2,27.2L120.2,27.2z"/>
		<path class="st0" d="M139.5,26c0-0.3-0.3-0.6-0.6-0.6c-0.3,0-0.6,0.3-0.6,0.6c0,0.3,0.3,0.6,0.6,0.6
			C139.2,26.6,139.5,26.3,139.5,26z M152.4,57.8c0.3,0,0.6-0.3,0.6-0.6c0-0.3-0.3-0.6-0.6-0.6c-0.3,0-0.6,0.3-0.6,0.6
			C151.8,57.6,152,57.8,152.4,57.8z M151.6,56.2c0.2-0.1,0.5-0.2,0.7-0.2c0.7,0,1.3,0.6,1.3,1.2c0,0.7-0.6,1.2-1.3,1.2
			c-0.7,0-1.3-0.6-1.3-1.2c0-0.2,0.1-0.4,0.2-0.6l-12.8-12.1V27.2c-0.5-0.2-0.9-0.6-0.9-1.2c0-0.7,0.6-1.2,1.3-1.2
			c0.7,0,1.3,0.6,1.3,1.2c0,0.6-0.4,1-0.9,1.2v17.4L151.6,56.2z"/>
		<path class="st0" d="M119.8,15.6c-0.3,0-0.6,0.3-0.6,0.6c0,0.3,0.3,0.6,0.6,0.6c0.3,0,0.6-0.3,0.6-0.6
			C120.4,15.9,120.1,15.6,119.8,15.6z M106.5,52.6c0,0.3,0.3,0.6,0.6,0.6c0.3,0,0.6-0.3,0.6-0.6c0-0.3-0.3-0.6-0.6-0.6
			C106.7,52,106.5,52.3,106.5,52.6z M119.8,17.5c-0.7,0-1.3-0.6-1.3-1.2c0-0.5,0.4-1,0.9-1.2v-4h-8.9v34.1h0l-3,2.8v3.4
			c0.5,0.2,0.9,0.6,0.9,1.2c0,0.7-0.6,1.2-1.3,1.2c-0.7,0-1.3-0.6-1.3-1.2c0-0.5,0.4-1,0.9-1.2V48h0l3-2.8c0,0,0-34.9,0-34.9h10.6
			V15c0.5,0.2,0.9,0.6,0.9,1.2C121.1,16.9,120.5,17.5,119.8,17.5L119.8,17.5z"/>
		<path class="st0" d="M181.5,11.8c0,0,0,0.1,0,0.1c0,0,0,0,0.1,0.1c0,0,0,0.1,0.1,0.1c0.1,0.1,0.3,0.2,0.4,0.2
			c0.3,0,0.6-0.3,0.6-0.6c0-0.2-0.1-0.3-0.2-0.4c-0.1-0.1-0.3-0.2-0.4-0.2c-0.3,0-0.6,0.3-0.6,0.6C181.5,11.7,181.5,11.7,181.5,11.8
			L181.5,11.8z M185,64.2c0,0.3,0.3,0.6,0.6,0.6c0.3,0,0.6-0.3,0.6-0.6c0-0.3-0.3-0.6-0.6-0.6C185.3,63.6,185,63.9,185,64.2z
			 M181.8,10.5c0.1,0,0.2,0,0.3,0c0.7,0,1.3,0.6,1.3,1.2c0,0.5-0.4,1-0.9,1.2v4.9h0l3.5,3.3c0,0,0,42,0,42c0.5,0.2,0.9,0.6,0.9,1.2
			c0,0.7-0.6,1.2-1.3,1.2c-0.7,0-1.3-0.6-1.3-1.2c0-0.5,0.4-1,0.9-1.2v-42c0,0-3.5-3.3-3.5-3.3v-4.9c-0.5-0.2-0.9-0.6-0.9-1.2
			C180.8,11.1,181.2,10.6,181.8,10.5z"/>
		<path class="st0" d="M56.8,67.8c-0.3,0-0.6,0.3-0.6,0.6c0,0.3,0.3,0.6,0.6,0.6c0.3,0,0.6-0.3,0.6-0.6S57.1,67.8,56.8,67.8z
			 M57.2,69.5v7.4l-6.7,6.4h-0.8l6.7-6.4c0,0,0-7.4,0-7.4c-0.5-0.2-0.9-0.6-0.9-1.2c0-0.7,0.6-1.2,1.3-1.2c0.7,0,1.3,0.6,1.3,1.2
			C58.1,68.9,57.7,69.4,57.2,69.5L57.2,69.5z"/>
		<path class="st0" d="M52,67.8c-0.3,0-0.6,0.3-0.6,0.6c0,0.3,0.3,0.6,0.6,0.6c0.3,0,0.6-0.3,0.6-0.6S52.3,67.8,52,67.8z M52.4,69.5
			v7.4c0,0-6.7,6.4-6.7,6.4h-0.8l6.7-6.4v-7.4c-0.5-0.2-0.9-0.6-0.9-1.2c0-0.7,0.6-1.2,1.3-1.2c0.7,0,1.3,0.6,1.3,1.2
			C53.3,68.9,52.9,69.4,52.4,69.5L52.4,69.5z"/>
		<path class="st0" d="M47.2,74.4c-0.3,0-0.6,0.3-0.6,0.6c0,0.3,0.3,0.6,0.6,0.6c0.3,0,0.6-0.3,0.6-0.6
			C47.8,74.6,47.6,74.4,47.2,74.4z M47.8,68.4c0-0.3-0.3-0.6-0.6-0.6c-0.3,0-0.6,0.3-0.6,0.6c0,0.3,0.3,0.6,0.6,0.6
			C47.6,68.9,47.8,68.7,47.8,68.4z M48.5,74.9c0,0.7-0.6,1.2-1.3,1.2c-0.7,0-1.3-0.6-1.3-1.2c0-0.5,0.4-1,0.9-1.2v-4.2
			c-0.5-0.2-0.9-0.6-0.9-1.2c0-0.7,0.6-1.2,1.3-1.2c0.7,0,1.3,0.6,1.3,1.2c0,0.6-0.4,1-0.9,1.2v4.2C48.2,73.9,48.5,74.4,48.5,74.9z"
			/>
		<path class="st0" d="M104.4,41.4c-0.3,0-0.6,0.3-0.6,0.6c0,0.3,0.3,0.6,0.6,0.6c0.3,0,0.6-0.3,0.6-0.6
			C105,41.7,104.7,41.4,104.4,41.4z M70.4,32.3c0,0.3,0.3,0.6,0.6,0.6c0.3,0,0.6-0.3,0.6-0.6c0-0.3-0.3-0.6-0.6-0.6
			C70.7,31.7,70.4,32,70.4,32.3z M104.4,43.2c-0.7,0-1.3-0.6-1.3-1.2c0-0.5,0.4-1,0.9-1.2V17.5H82.7v0L71.4,28.2c0,0,0,3,0,3
			c0.5,0.2,0.9,0.6,0.9,1.2c0,0.7-0.6,1.2-1.3,1.2c-0.7,0-1.3-0.6-1.3-1.2c0-0.5,0.4-1,0.9-1.2v-3l12.1-11.5h22v24.1
			c0.5,0.2,0.9,0.6,0.9,1.2C105.7,42.7,105.1,43.2,104.4,43.2L104.4,43.2z"/>
		<path class="st0" d="M104.4,10.1c-0.3,0-0.6,0.3-0.6,0.6c0,0.3,0.3,0.6,0.6,0.6c0.3,0,0.6-0.3,0.6-0.6
			C105,10.4,104.7,10.1,104.4,10.1z M60.9,32.3c0,0.3,0.3,0.6,0.6,0.6c0.3,0,0.6-0.3,0.6-0.6c0-0.3-0.3-0.6-0.6-0.6
			C61.2,31.7,60.9,32,60.9,32.3z M104.4,11.9c-0.6,0-1.1-0.4-1.2-0.9H61.9v20.1c0.5,0.2,0.9,0.6,0.9,1.2c0,0.7-0.6,1.2-1.3,1.2
			c-0.7,0-1.3-0.6-1.3-1.2c0-0.5,0.4-1,0.9-1.2V11.1c0,0,0-0.8,0-0.8h42c0.2-0.5,0.7-0.9,1.2-0.9c0.7,0,1.3,0.6,1.3,1.2
			C105.7,11.4,105.1,11.9,104.4,11.9L104.4,11.9z"/>
		<path class="st0" d="M47.2,31.7c-0.3,0-0.6,0.3-0.6,0.6c0,0.3,0.3,0.6,0.6,0.6c0.3,0,0.6-0.3,0.6-0.6C47.8,32,47.6,31.7,47.2,31.7
			z M25.5,7c0-0.3-0.3-0.6-0.6-0.6c-0.3,0-0.6,0.3-0.6,0.6c0,0.3,0.3,0.6,0.6,0.6C25.3,7.5,25.5,7.3,25.5,7z M47.2,33.5
			c-0.7,0-1.3-0.6-1.3-1.2c0-0.5,0.4-1,0.9-1.2v-7.6L35.5,12.9v0h-11V8.1C24,8,23.6,7.5,23.6,7c0-0.7,0.6-1.2,1.3-1.2
			c0.7,0,1.3,0.6,1.3,1.2c0,0.6-0.4,1-0.9,1.2v4h10.2l12.1,11.4v0.8c0,0,0,6.8,0,6.8c0.5,0.2,0.9,0.6,0.9,1.2
			C48.5,33,48,33.5,47.2,33.5L47.2,33.5z"/>
		<path class="st0" d="M164.1,53.6c0.3,0,0.6-0.3,0.6-0.6c0-0.3-0.3-0.6-0.6-0.6c-0.3,0-0.6,0.3-0.6,0.6
			C163.5,53.3,163.8,53.6,164.1,53.6z M148.1,37.3c-0.3,0-0.6,0.3-0.6,0.6c0,0.3,0.3,0.6,0.6,0.6c0.3,0,0.6-0.3,0.6-0.6
			C148.7,37.5,148.4,37.3,148.1,37.3z M148.1,39.1c-0.7,0-1.3-0.6-1.3-1.2c0-0.7,0.6-1.2,1.3-1.2c0.7,0,1.3,0.6,1.3,1.2
			c0,0.3-0.1,0.5-0.2,0.7L163.4,52c0.2-0.1,0.5-0.2,0.7-0.2c0.7,0,1.3,0.6,1.3,1.2c0,0.7-0.6,1.2-1.3,1.2c-0.7,0-1.3-0.6-1.3-1.2
			c0-0.2,0.1-0.4,0.2-0.6l-14.2-13.4C148.6,39,148.3,39.1,148.1,39.1z"/>
		<path class="st0" d="M168.2,11.3c-0.1-0.1-0.3-0.2-0.4-0.2c-0.3,0-0.5,0.1-0.6,0.3c0,0.1,0,0.1,0,0.2c0,0.2,0.1,0.4,0.3,0.5
			c0.1,0.1,0.2,0.1,0.3,0.1c0,0,0,0,0,0c0.3,0,0.6-0.3,0.6-0.6C168.4,11.5,168.4,11.4,168.2,11.3L168.2,11.3z M138.2,16.2
			c0,0.3,0.3,0.6,0.6,0.6c0.3,0,0.6-0.3,0.6-0.6c0-0.3-0.3-0.6-0.6-0.6C138.5,15.6,138.2,15.9,138.2,16.2z M170.4,53
			c0,0.3,0.3,0.6,0.6,0.6c0.3,0,0.6-0.3,0.6-0.6c0-0.3-0.3-0.6-0.6-0.6h0C170.6,52.4,170.4,52.7,170.4,53z M168.6,12.6
			c-0.1,0.1-0.3,0.2-0.4,0.2V18h-8.7v-6.9h-20.3v4c0.4,0.1,0.7,0.4,0.8,0.8h15v6.1h13l3.3,3.1v26.8c0.5,0.2,0.9,0.6,0.9,1.2
			c0,0.7-0.6,1.2-1.3,1.2c-0.7,0-1.3-0.6-1.3-1.2c0-0.5,0.4-1,0.9-1.2V25c0,0-2.5-2.3-2.5-2.3v0h-13.8v-6.1h-14.2
			c-0.2,0.5-0.7,0.9-1.2,0.9c-0.7,0-1.3-0.6-1.3-1.2c0-0.5,0.4-1,0.9-1.2v-4.7h21.9v6.9h7v-4.4c-0.4-0.1-0.7-0.4-0.8-0.7
			c-0.1-0.1-0.1-0.3-0.1-0.4c0-0.3,0.1-0.7,0.4-0.9c0.1-0.1,0.2-0.2,0.4-0.2c0,0,0,0,0,0c0.2-0.1,0.3-0.1,0.5-0.1
			c0.4,0,0.7,0.1,0.9,0.4c0.2,0.2,0.4,0.5,0.4,0.9C169.1,12.1,168.9,12.4,168.6,12.6L168.6,12.6z"/>
		<path class="st0" d="M167.8,2.1c-0.3,0-0.6,0.3-0.6,0.6c0,0.3,0.3,0.6,0.6,0.6c0.3,0,0.6-0.3,0.6-0.6
			C168.4,2.3,168.1,2.1,167.8,2.1z M128.7,16.2c0,0.3,0.3,0.6,0.6,0.6c0.3,0,0.6-0.3,0.6-0.6c0-0.3-0.3-0.6-0.6-0.6
			C129,15.6,128.7,15.9,128.7,16.2z M167.8,3.9c-0.6,0-1.1-0.4-1.2-0.9h-36.8v12c0.5,0.2,0.9,0.6,0.9,1.2c0,0.7-0.6,1.2-1.3,1.2
			c-0.7,0-1.3-0.6-1.3-1.2c0-0.5,0.4-1,0.9-1.2V2.3h37.7c0.2-0.5,0.7-0.9,1.2-0.9c0.7,0,1.3,0.6,1.3,1.2S168.5,3.9,167.8,3.9
			L167.8,3.9z"/>
		<path class="st0" d="M167.8,6.6c-0.3,0-0.6,0.3-0.6,0.6c0,0.3,0.3,0.6,0.6,0.6c0.3,0,0.6-0.3,0.6-0.6
			C168.4,6.8,168.1,6.6,167.8,6.6z M133.5,16.2c0,0.3,0.3,0.6,0.6,0.6c0.3,0,0.6-0.3,0.6-0.6c0-0.3-0.3-0.6-0.6-0.6
			C133.8,15.6,133.5,15.9,133.5,16.2z M167.8,8.4c-0.6,0-1.1-0.4-1.2-0.9h-32.1V15c0.5,0.2,0.9,0.6,0.9,1.2c0,0.7-0.6,1.2-1.3,1.2
			c-0.7,0-1.3-0.6-1.3-1.2c0-0.5,0.4-1,0.9-1.2V6.8h32.9c0.2-0.5,0.7-0.9,1.2-0.9c0.7,0,1.3,0.6,1.3,1.2
			C169.1,7.8,168.5,8.4,167.8,8.4L167.8,8.4z"/>
		<path class="st0" d="M177.3,11.1c-0.3,0-0.6,0.3-0.6,0.6c0,0.3,0.3,0.6,0.6,0.6c0.3,0,0.6-0.3,0.6-0.6
			C177.9,11.3,177.7,11.1,177.3,11.1z M177.7,12.8v4.7h-0.8v-4.7c-0.5-0.2-0.9-0.6-0.9-1.2c0-0.7,0.6-1.2,1.3-1.2
			c0.7,0,1.3,0.6,1.3,1.2C178.6,12.2,178.3,12.7,177.7,12.8L177.7,12.8z"/>
		<path class="st0" d="M172.6,11.1c-0.3,0-0.6,0.3-0.6,0.6c0,0.3,0.3,0.6,0.6,0.6c0.3,0,0.6-0.3,0.6-0.6
			C173.2,11.3,172.9,11.1,172.6,11.1z M175.2,64.2c0,0.3,0.3,0.6,0.6,0.6c0.3,0,0.6-0.3,0.6-0.6c0-0.3-0.3-0.6-0.6-0.6
			C175.5,63.6,175.2,63.9,175.2,64.2z M173,12.8V18c0,0,3.3,3.1,3.3,3.1c0,0,0,42,0,42c0.5,0.2,0.9,0.6,0.9,1.2
			c0,0.7-0.6,1.2-1.3,1.2c-0.7,0-1.3-0.6-1.3-1.2c0-0.5,0.4-1,0.9-1.2v-42c0,0-3.2-3.1-3.2-3.1h0v-5.1c-0.5-0.2-0.9-0.6-0.9-1.2
			c0-0.7,0.6-1.2,1.3-1.2c0.7,0,1.3,0.6,1.3,1.2C173.9,12.2,173.5,12.7,173,12.8L173,12.8z"/>
		<path class="st0" d="M148.1,32.9c0.3,0,0.6-0.3,0.6-0.6c0-0.3-0.3-0.6-0.6-0.6c-0.3,0-0.6,0.3-0.6,0.6
			C147.5,32.7,147.8,32.9,148.1,32.9z M163.7,47.4c0,0.3,0.3,0.6,0.6,0.6c0.3,0,0.6-0.3,0.6-0.6c0-0.3-0.3-0.6-0.6-0.6h0
			C164,46.9,163.7,47.1,163.7,47.4z M148.1,31.1c0.6,0,1.1,0.4,1.2,0.9h15.4v14.3c0.5,0.2,0.9,0.6,0.9,1.2c0,0.7-0.6,1.2-1.3,1.2
			c-0.7,0-1.3-0.6-1.3-1.2c0-0.5,0.4-1,0.9-1.2V32.7h-14.6c-0.2,0.5-0.7,0.9-1.2,0.9c-0.7,0-1.3-0.6-1.3-1.2
			C146.8,31.7,147.4,31.1,148.1,31.1L148.1,31.1z"/>
		<path class="st0" d="M148.3,26.6c0.3,0,0.6-0.3,0.6-0.6c0-0.3-0.3-0.6-0.6-0.6c-0.3,0-0.6,0.3-0.6,0.6
			C147.7,26.3,148,26.6,148.3,26.6z M165.2,26.6c0.3,0,0.6-0.3,0.6-0.6c0-0.3-0.3-0.6-0.6-0.6c-0.3,0-0.6,0.3-0.6,0.6
			C164.6,26.3,164.9,26.6,165.2,26.6z M148.3,24.7c0.6,0,1.1,0.4,1.2,0.9H164c0.2-0.5,0.7-0.9,1.2-0.9c0.7,0,1.3,0.6,1.3,1.2
			c0,0.7-0.6,1.2-1.3,1.2c-0.6,0-1.1-0.4-1.2-0.9h-14.4c-0.2,0.5-0.7,0.9-1.2,0.9c-0.7,0-1.3-0.6-1.3-1.2
			C147,25.3,147.6,24.7,148.3,24.7L148.3,24.7z"/>
		<path class="st0" d="M171,63.6c-0.2,0-0.3,0.1-0.4,0.2c-0.1,0.1-0.2,0.2-0.2,0.4c0,0.2,0.2,0.5,0.4,0.5c0.1,0,0.1,0,0.2,0
			c0.1,0,0.3-0.1,0.4-0.1c0,0,0,0,0.1,0c0,0,0,0,0,0c0.1-0.1,0.2-0.2,0.2-0.4c0-0.1,0-0.1,0-0.1C171.5,63.8,171.3,63.6,171,63.6
			L171,63.6z M161.5,56.7c-0.3,0-0.6,0.3-0.6,0.6c0,0.3,0.3,0.6,0.6,0.6c0.3,0,0.6-0.3,0.6-0.6C162.1,56.9,161.8,56.7,161.5,56.7z
			 M171.4,63c0,0,0.1,0,0.1,0c0,0,0,0,0.1,0c0,0,0.1,0,0.1,0.1c0,0,0,0,0,0c0.1,0,0.1,0.1,0.1,0.1c0.2,0.2,0.4,0.5,0.4,0.9
			c0,0.7-0.6,1.2-1.3,1.2c-0.7,0-1.3-0.6-1.3-1.2c0-0.6,0.4-1,0.9-1.2v-5.4h-7.9c-0.2,0.5-0.7,0.9-1.2,0.9c-0.7,0-1.3-0.6-1.3-1.2
			c0-0.7,0.6-1.2,1.3-1.2c0.6,0,1.1,0.4,1.2,0.9h8.7L171.4,63L171.4,63z"/>
		<path class="st0" d="M171,68.5c-0.3,0-0.6,0.3-0.6,0.6c0,0.3,0.3,0.6,0.6,0.6c0.3,0,0.6-0.3,0.6-0.6
			C171.6,68.8,171.3,68.5,171,68.5z M134.7,26c0-0.3-0.3-0.6-0.6-0.6c-0.3,0-0.6,0.3-0.6,0.6c0,0.3,0.3,0.6,0.6,0.6
			C134.4,26.6,134.7,26.3,134.7,26z M171,70.3c-0.6,0-1.1-0.4-1.2-0.9H166l-7.2-6.8c0,0-9.2,0-9.2,0l-16-15.1V27.2
			c-0.5-0.2-0.9-0.6-0.9-1.2c0-0.7,0.6-1.2,1.3-1.2c0.7,0,1.3,0.6,1.3,1.2c0,0.6-0.4,1-0.9,1.2v20.5L149.7,62v0h9.2
			c0,0,7.2,6.8,7.2,6.8v0h3.7c0.2-0.5,0.7-0.9,1.2-0.9c0.7,0,1.3,0.6,1.3,1.2C172.3,69.8,171.7,70.3,171,70.3L171,70.3z"/>
		<path class="st0" d="M124.6,39.4c-0.3,0-0.6,0.3-0.6,0.6c0,0.3,0.3,0.6,0.6,0.6c0.3,0,0.6-0.3,0.6-0.6
			C125.2,39.7,124.9,39.4,124.6,39.4z M129.3,26.6c0.3,0,0.6-0.3,0.6-0.6c0-0.3-0.3-0.6-0.6-0.6c-0.3,0-0.6,0.3-0.6,0.6
			C128.7,26.3,129,26.6,129.3,26.6z M125,41.2v4h4v-18c-0.5-0.2-0.9-0.6-0.9-1.2c0-0.7,0.6-1.2,1.3-1.2c0.7,0,1.3,0.6,1.3,1.2
			c0,0.6-0.4,1-0.9,1.2V46h-0.8c0,0-4,0-4,0c0,0-0.8,0-0.8,0v-4.8c-0.5-0.2-0.9-0.6-0.9-1.2c0-0.7,0.6-1.2,1.3-1.2
			c0.7,0,1.3,0.6,1.3,1.2C125.9,40.6,125.5,41,125,41.2L125,41.2z"/>
		<path class="st0" d="M124.6,32.1c-0.3,0-0.6,0.3-0.6,0.6c0,0.3,0.3,0.6,0.6,0.6c0.3,0,0.6-0.3,0.6-0.6
			C125.2,32.4,124.9,32.1,124.6,32.1z M125.2,26c0-0.3-0.3-0.6-0.6-0.6c-0.3,0-0.6,0.3-0.6,0.6c0,0.3,0.3,0.6,0.6,0.6
			C124.9,26.6,125.2,26.3,125.2,26z M125.9,32.7c0,0.7-0.6,1.2-1.3,1.2c-0.7,0-1.3-0.6-1.3-1.2c0-0.5,0.4-1,0.9-1.2v-4.4
			c-0.5-0.2-0.9-0.6-0.9-1.2c0-0.7,0.6-1.2,1.3-1.2c0.7,0,1.3,0.6,1.3,1.2c0,0.6-0.4,1-0.9,1.2v4.4
			C125.5,31.7,125.9,32.2,125.9,32.7z"/>
		<path class="st0" d="M84.6,102c0,0.3,0.3,0.6,0.6,0.6c0.3,0,0.6-0.3,0.6-0.6c0-0.3-0.3-0.6-0.6-0.6
			C84.9,101.4,84.6,101.7,84.6,102z M92.9,102.6c0.3,0,0.6-0.3,0.6-0.6c0-0.3-0.3-0.6-0.6-0.6c-0.3,0-0.6,0.3-0.6,0.6
			C92.3,102.3,92.6,102.6,92.9,102.6z M86.5,101.6h5.2c0.2-0.5,0.7-0.9,1.2-0.9c0.7,0,1.3,0.6,1.3,1.2s-0.6,1.2-1.3,1.2
			c-0.6,0-1.1-0.4-1.2-0.9h-5.2c-0.2,0.5-0.7,0.9-1.2,0.9c-0.7,0-1.3-0.6-1.3-1.2s0.6-1.2,1.3-1.2C85.8,100.8,86.3,101.1,86.5,101.6
			z"/>
		<path class="st0" d="M21.8,141.1c0.3,0,0.6-0.3,0.6-0.6s-0.3-0.6-0.6-0.6c-0.3,0-0.6,0.3-0.6,0.6S21.5,141.1,21.8,141.1z
			 M20.5,140.6c0-0.7,0.6-1.2,1.3-1.2c0.7,0,1.3,0.6,1.3,1.2c0,0.5-0.4,1-0.9,1.2v8.5h-0.8v-8.5C20.9,141.6,20.5,141.1,20.5,140.6
			L20.5,140.6z"/>
		<path class="st0" d="M21.8,135.8c-0.3,0-0.6,0.3-0.6,0.6c0,0.3,0.3,0.6,0.6,0.6c0.3,0,0.6-0.3,0.6-0.6
			C22.4,136.1,22.1,135.8,21.8,135.8z M23,136.7c-0.2,0.5-0.7,0.9-1.2,0.9c-0.7,0-1.3-0.6-1.3-1.2c0-0.7,0.6-1.2,1.3-1.2
			c0.6,0,1.1,0.4,1.2,0.9h3.4v14.3h-0.8v-13.5L23,136.7L23,136.7z"/>
		<path class="st0" d="M3.8,134.6c-0.3,0-0.6,0.3-0.6,0.6c0,0.3,0.3,0.6,0.6,0.6c0.3,0,0.6-0.3,0.6-0.6
			C4.4,134.8,4.1,134.6,3.8,134.6z M12.9,141.3v-5.7H5c-0.2,0.5-0.7,0.9-1.2,0.9c-0.7,0-1.3-0.6-1.3-1.2c0-0.7,0.6-1.2,1.3-1.2
			c0.6,0,1.1,0.4,1.2,0.9h8.7v6.5h0l4.3,4c0,0,0,4.9,0,4.9h-0.8v-4.9L12.9,141.3L12.9,141.3z"/>
		<path class="st0" d="M47.2,19.5c0.3,0,0.6-0.3,0.6-0.6c0-0.3-0.3-0.6-0.6-0.6c-0.3,0-0.6,0.3-0.6,0.6
			C46.6,19.2,46.9,19.5,47.2,19.5z M35.5,7.6l10.9,10.3c0.2-0.2,0.5-0.2,0.8-0.2c0.7,0,1.3,0.6,1.3,1.2c0,0.7-0.6,1.2-1.3,1.2
			c-0.7,0-1.3-0.6-1.3-1.2c0-0.2,0.1-0.4,0.2-0.6l-10.5-10v0h-5.1c0,0-0.8,0-0.8,0V0h0.8v7.6L35.5,7.6L35.5,7.6z"/>
		<path class="st0" d="M41.4,4.1c0,0.3,0.3,0.6,0.6,0.6c0.3,0,0.6-0.3,0.6-0.6c0-0.3-0.3-0.6-0.6-0.6C41.7,3.5,41.4,3.8,41.4,4.1z
			 M43.3,4.1c0,0.7-0.6,1.2-1.3,1.2c-0.7,0-1.3-0.6-1.3-1.2c0-0.5,0.4-1,0.9-1.2V0h0.8v3C42.9,3.1,43.3,3.6,43.3,4.1L43.3,4.1z"/>
		<path class="st0" d="M30.3,116c0.3,0,0.6-0.3,0.6-0.6c0-0.3-0.3-0.6-0.6-0.6c-0.3,0-0.6,0.3-0.6,0.6C29.7,115.7,30,116,30.3,116z
			 M29,115.4c0-0.7,0.6-1.2,1.3-1.2c0.7,0,1.3,0.6,1.3,1.2c0,0.5-0.4,1-0.9,1.2v33.6h-0.8v-33.6C29.4,116.4,29,116,29,115.4
			L29,115.4z"/>
		<path class="st0" d="M8.6,141.3h0.8l4.3,4c0,0,0,4.9,0,4.9h-0.8v-4.9L8.6,141.3z"/>
		<polygon class="st0" points="58.5,126.9 59.3,126.9 52.9,133 52.9,150.2 52.1,150.2 52.1,133 		"/>
		<path class="st0" d="M209.6,83.8c0.3,0,0.6-0.3,0.6-0.6c0-0.3-0.3-0.6-0.6-0.6c-0.3,0-0.6,0.3-0.6,0.6
			C209,83.5,209.3,83.8,209.6,83.8z M226.4,125.4c0,0.3,0.3,0.6,0.6,0.6c0.3,0,0.6-0.3,0.6-0.6c0-0.3-0.3-0.5-0.6-0.6H227
			C226.7,124.9,226.4,125.1,226.4,125.4L226.4,125.4z M209.6,82c0.6,0,1.1,0.4,1.2,0.9h4.3l12.3,11.6v0.7l0,0v29.1
			c0.5,0.2,0.9,0.6,0.9,1.2c0,0.7-0.6,1.2-1.3,1.2c-0.7,0-1.3-0.6-1.3-1.2c0-0.5,0.4-1,0.9-1.2V94.5h0l-11.5-10.9c0,0-4.3,0-4.3,0
			c-0.2,0.5-0.7,0.9-1.2,0.9c-0.7,0-1.3-0.6-1.3-1.2C208.3,82.5,208.9,82,209.6,82L209.6,82z"/>
		<path class="st0" d="M85.1,145.7c0.3,0,0.6-0.3,0.6-0.6c0-0.3-0.3-0.6-0.6-0.6c-0.3,0-0.6,0.3-0.6,0.6
			C84.5,145.4,84.7,145.7,85.1,145.7z M89.5,141.1c0.3,0,0.6-0.3,0.6-0.6s-0.3-0.6-0.6-0.6c-0.3,0-0.6,0.3-0.6,0.6
			S89.2,141.1,89.5,141.1z M116.7,125.3c0.3,0,0.6-0.3,0.6-0.6c0-0.3-0.3-0.6-0.6-0.6c-0.3,0-0.6,0.3-0.6,0.6
			C116.1,125,116.4,125.3,116.7,125.3z M85.1,143.9c0.3,0,0.5,0.1,0.7,0.2l2.8-2.7c-0.2-0.2-0.4-0.5-0.4-0.8c0-0.5,0.4-1,0.9-1.2
			v-3.5c0,0-2.1-2-2.1-2h0v-9.5h28.5c0.2-0.5,0.7-0.9,1.2-0.9c0.7,0,1.3,0.6,1.3,1.2c0,0.7-0.6,1.2-1.3,1.2c-0.6,0-1.1-0.4-1.2-0.9
			H87.8v8.7l2.1,2v3.5c0.5,0.2,0.9,0.6,0.9,1.2c0,0.7-0.6,1.2-1.3,1.2c-0.2,0-0.3,0-0.5-0.1l-2.9,2.7c0.1,0.2,0.2,0.4,0.2,0.7
			c0,0.7-0.6,1.2-1.3,1.2c-0.7,0-1.3-0.6-1.3-1.2C83.8,144.4,84.4,143.9,85.1,143.9L85.1,143.9z"/>
		<polygon class="st0" points="56.1,133 62.5,126.9 63.3,126.9 56.9,133 56.9,150.2 56.1,150.2 56.1,133 		"/>
		<polygon class="st0" points="38.5,133 44.9,126.9 44.9,83.2 45.7,83.2 45.7,126.9 45.7,126.9 39.3,133 39.3,150.2 38.5,150.2 		
			"/>
		<path class="st0" d="M34.6,116c0.3,0,0.6-0.3,0.6-0.6c0-0.3-0.3-0.6-0.6-0.6c-0.3,0-0.6,0.3-0.6,0.6C34,115.7,34.2,116,34.6,116z
			 M33.3,115.4c0-0.7,0.6-1.2,1.3-1.2c0.7,0,1.3,0.6,1.3,1.2c0,0.5-0.4,1-0.9,1.2v33.6h-0.8v-33.6C33.6,116.4,33.3,116,33.3,115.4
			L33.3,115.4z"/>
		<polygon class="st0" points="49.7,126.9 49.6,126.9 49.6,83.2 50.5,83.2 50.5,126.9 44.1,133 44.1,150.2 43.3,150.2 43.3,133 		
			"/>
		<path class="st0" d="M101.2,2.4c0.3,0,0.6-0.3,0.6-0.6c0-0.3-0.3-0.6-0.6-0.6c-0.3,0-0.6,0.3-0.6,0.6
			C100.6,2.1,100.9,2.4,101.2,2.4z M100,1.4c0.2-0.5,0.7-0.9,1.2-0.9c0.7,0,1.3,0.6,1.3,1.2c0,0.7-0.6,1.2-1.3,1.2
			c-0.6,0-1.1-0.4-1.2-0.9H68.6c0,0-0.8,0-0.8,0V0h0.8v1.4L100,1.4L100,1.4z"/>
		<path class="st0" d="M209.6,96.8c0.3,0,0.6-0.3,0.6-0.6c0-0.3-0.3-0.6-0.6-0.6c-0.3,0-0.6,0.3-0.6,0.6
			C209,96.5,209.3,96.8,209.6,96.8z M215,121.4c0,0.3,0.3,0.6,0.6,0.6c0.3,0,0.6-0.3,0.6-0.6c0-0.3-0.3-0.5-0.6-0.6h-0.1
			C215.3,120.9,215,121.1,215,121.4L215,121.4z M209.6,94.9c0.6,0,1.1,0.4,1.2,0.9h2.1l3.1,2.9v21.5c0.5,0.2,0.9,0.6,0.9,1.2
			c0,0.7-0.6,1.2-1.3,1.2c-0.7,0-1.3-0.6-1.3-1.2c0-0.5,0.4-1,0.9-1.2V98.7h0l-2.3-2.1c0,0-2.1,0-2.1,0c-0.2,0.5-0.7,0.9-1.2,0.9
			c-0.7,0-1.3-0.6-1.3-1.2C208.3,95.5,208.9,94.9,209.6,94.9L209.6,94.9z"/>
		<path class="st0" d="M209.6,91.8c0.3,0,0.6-0.3,0.6-0.6c0-0.3-0.3-0.6-0.6-0.6c-0.3,0-0.6,0.3-0.6,0.6
			C209,91.5,209.3,91.8,209.6,91.8z M218.8,125.4c0,0.3,0.3,0.6,0.6,0.6c0.3,0,0.6-0.3,0.6-0.6c0-0.3-0.3-0.5-0.6-0.6h-0.1
			C219.1,124.9,218.8,125.1,218.8,125.4L218.8,125.4z M209.6,90c0.6,0,1.1,0.4,1.2,0.9h4.3l4.7,4.4v29c0.5,0.2,0.9,0.6,0.9,1.2
			c0,0.7-0.6,1.2-1.3,1.2c-0.7,0-1.3-0.6-1.3-1.2c0-0.5,0.4-1,0.9-1.2v-29h0l-3.9-3.7c0,0-4.3,0-4.3,0c-0.2,0.5-0.7,0.9-1.2,0.9
			c-0.7,0-1.3-0.6-1.3-1.2C208.3,90.5,208.9,90,209.6,90L209.6,90z"/>
		<path class="st0" d="M230.3,0.6c-0.2,0-0.4-0.1-0.6-0.2l-1.5,1.4c0,0-22.6,0-22.6,0v0L203.7,0h0.8l1.1,1.1c0,0,22.6,0,22.6,0v0
			l1-1c0,0,0-0.1-0.1-0.1h2.3C231.2,0.4,230.8,0.6,230.3,0.6L230.3,0.6z"/>
		<path class="st0" d="M124,16.2c0,0.3,0.3,0.6,0.6,0.6c0.3,0,0.6-0.3,0.6-0.6c0-0.3-0.3-0.6-0.6-0.6C124.2,15.6,124,15.9,124,16.2z
			 M125.9,16.2c0,0.7-0.6,1.2-1.3,1.2c-0.7,0-1.3-0.6-1.3-1.2c0-0.5,0.4-1,0.9-1.2V0h0.8v15C125.5,15.2,125.9,15.7,125.9,16.2
			L125.9,16.2z"/>
		<path class="st0" d="M132.6,132.1c-0.3,0-0.6,0.3-0.6,0.6c0,0.3,0.3,0.6,0.6,0.6c0.3,0,0.6-0.3,0.6-0.6
			C133.2,132.3,133,132.1,132.6,132.1z M139.4,133.2c0.3,0,0.6-0.3,0.6-0.6c0-0.3-0.3-0.6-0.6-0.6c-0.3,0-0.6,0.3-0.6,0.6
			C138.8,133,139.1,133.2,139.4,133.2z M139.4,131.4c0.7,0,1.3,0.6,1.3,1.2c0,0.7-0.6,1.2-1.3,1.2c-0.6,0-1.1-0.4-1.2-0.9h-4.3
			c-0.2,0.5-0.7,0.9-1.2,0.9c-0.7,0-1.3-0.6-1.3-1.2c0-0.7,0.6-1.2,1.3-1.2c0.6,0,1.1,0.4,1.2,0.9h4.3
			C138.4,131.8,138.9,131.4,139.4,131.4z"/>
		<path class="st0" d="M51.4,32.3c0,0.3,0.3,0.6,0.6,0.6c0.3,0,0.6-0.3,0.6-0.6c0-0.3-0.3-0.6-0.6-0.6S51.4,32,51.4,32.3z M52.4,0.8
			c0,0,0,30.3,0,30.3c0.5,0.2,0.9,0.6,0.9,1.2c0,0.7-0.6,1.2-1.3,1.2c-0.7,0-1.3-0.6-1.3-1.2c0-0.5,0.4-1,0.9-1.2V0.1L51.5,0h0.8
			l0.1,0.1L52.4,0.8L52.4,0.8z"/>
		<path class="st0" d="M47.2,12.4c-0.3,0-0.6,0.3-0.6,0.6c0,0.3,0.3,0.6,0.6,0.6c0.3,0,0.6-0.3,0.6-0.6
			C47.8,12.7,47.6,12.4,47.2,12.4z M34.9,0.8c-0.3,0-0.6,0.3-0.6,0.6c0,0.3,0.3,0.6,0.6,0.6c0.3,0,0.6-0.3,0.6-0.6
			C35.6,1.1,35.3,0.8,34.9,0.8z M47.2,14.2c-0.7,0-1.3-0.6-1.3-1.2c0-0.2,0.1-0.4,0.2-0.6l-10.5-10c-0.2,0.1-0.4,0.2-0.6,0.2
			c-0.7,0-1.3-0.6-1.3-1.2c0-0.7,0.6-1.2,1.3-1.2c0.7,0,1.3,0.6,1.3,1.2c0,0.3-0.1,0.5-0.3,0.7L46.5,12c0.2-0.2,0.5-0.2,0.8-0.2
			c0.7,0,1.3,0.6,1.3,1.2C48.5,13.7,48,14.2,47.2,14.2L47.2,14.2z"/>
		<path class="st0" d="M74.1,0.9c-0.6,0-1.1-0.4-1.3-0.9h0.8c0.1,0.1,0.3,0.2,0.5,0.2s0.4-0.1,0.5-0.2h0.8
			C75.2,0.5,74.7,0.9,74.1,0.9z"/>
		<path class="st0" d="M67.6,124.6c0-0.3-0.3-0.6-0.6-0.6c-0.3,0-0.6,0.3-0.6,0.6c0,0.3,0.3,0.6,0.6,0.6
			C67.3,125.2,67.6,124.9,67.6,124.6z M66.5,134v-8.2c-0.5-0.2-0.9-0.6-0.9-1.2c0-0.7,0.6-1.2,1.3-1.2c0.7,0,1.3,0.6,1.3,1.2
			c0,0.5-0.4,1-0.9,1.2v9h-5.1v15.5h-0.8V134L66.5,134L66.5,134z"/>
		<path class="st0" d="M56.2,32.3c0,0.3,0.3,0.6,0.6,0.6c0.3,0,0.6-0.3,0.6-0.6c0-0.3-0.3-0.6-0.6-0.6C56.4,31.7,56.2,32,56.2,32.3z
			 M58.1,32.3c0,0.7-0.6,1.2-1.3,1.2c-0.7,0-1.3-0.6-1.3-1.2c0-0.5,0.4-1,0.9-1.2V0h0.8v31.1C57.7,31.3,58.1,31.8,58.1,32.3
			L58.1,32.3z"/>
		<path class="st0" d="M119.2,6.6c0,0.3,0.3,0.6,0.6,0.6c0.3,0,0.6-0.3,0.6-0.6c0-0.3-0.3-0.6-0.6-0.6
			C119.5,6.1,119.2,6.3,119.2,6.6z M121.1,6.6c0,0.7-0.6,1.2-1.3,1.2c-0.7,0-1.3-0.6-1.3-1.2c0-0.5,0.4-1,0.9-1.2V0h0.8v5.5
			C120.7,5.6,121.1,6.1,121.1,6.6L121.1,6.6z"/>
		<polygon class="st0" points="61.9,6.6 61.9,0 62.7,0 62.7,5.9 114.5,5.9 114.5,0 115.3,0 115.3,6.6 		"/>
		<path class="st0" d="M109.6,2.4c0.3,0,0.6-0.3,0.6-0.6c0-0.3-0.3-0.6-0.6-0.6c-0.3,0-0.5,0.2-0.6,0.4v0l0,0c0,0,0,0.1,0,0.1
			C109,2.1,109.3,2.4,109.6,2.4L109.6,2.4z M109.6,0.6c0.7,0,1.3,0.6,1.3,1.2c0,0.7-0.6,1.2-1.3,1.2c-0.7,0-1.3-0.6-1.3-1.2
			c0-0.2,0.1-0.5,0.2-0.6L107.3,0h0.8l0.8,0.8C109.1,0.7,109.4,0.6,109.6,0.6L109.6,0.6z"/>
		<path class="st0" d="M46.6,7.1c0,0.3,0.3,0.6,0.6,0.6c0.3,0,0.6-0.3,0.6-0.6c0-0.3-0.3-0.6-0.6-0.6C46.9,6.5,46.6,6.8,46.6,7.1z
			 M47.6,1v5c0.5,0.2,0.9,0.6,0.9,1.2c0,0.7-0.6,1.2-1.3,1.2c-0.7,0-1.3-0.6-1.3-1.2c0-0.5,0.4-1,0.9-1.2V1c-0.5-0.1-0.8-0.5-0.9-1
			h0.7c0.1,0.2,0.3,0.4,0.6,0.4c0.3,0,0.5-0.2,0.6-0.4h0.7C48.4,0.5,48.1,0.8,47.6,1L47.6,1z"/>
		<path class="st0" d="M163.7,126c-0.3,0-0.6,0.3-0.6,0.6c0,0.3,0.3,0.6,0.6,0.6c0,0,0.1,0,0.1,0c0.3,0,0.5-0.3,0.5-0.6
			C164.3,126.2,164,126,163.7,126L163.7,126z M183.1,145.4l-4.8-4.6h0l-13.9-13.2c-0.2,0.1-0.4,0.2-0.6,0.2c-0.7,0-1.3-0.6-1.3-1.2
			c0-0.7,0.6-1.2,1.3-1.2c0.7,0,1.3,0.6,1.3,1.2c0,0.3-0.1,0.5-0.2,0.7l4.7,4.4h0l4.8,4.6h0l8.9,8.4h3c0,0,0.8,0,0.8,0v5.6h-0.8
			v-4.8L183.1,145.4L183.1,145.4z"/>
		<path class="st0" d="M184.7,143.5l-0.8-0.8c0,0-4-3.8-4-3.8h0l-4.8-4.6L162,122h0.8l13,12.3h0l8.9,8.4h8.2v7.5h-0.8v-6.7
			L184.7,143.5L184.7,143.5z"/>
		<path class="st0" d="M169.8,143.3c-0.3,0-0.6,0.3-0.6,0.6c0,0.3,0.3,0.6,0.6,0.6c0.3,0,0.6-0.3,0.6-0.6
			C170.4,143.6,170.1,143.3,169.8,143.3z M171,144.3c-0.2,0.5-0.7,0.9-1.2,0.9c-0.7,0-1.3-0.6-1.3-1.2c0-0.7,0.6-1.2,1.3-1.2
			c0.6,0,1.1,0.4,1.2,0.9h4.7v6.7H175v-6L171,144.3L171,144.3z"/>
		<path class="st0" d="M72.2,124.6c0-0.3-0.3-0.6-0.6-0.6c-0.3,0-0.6,0.3-0.6,0.6c0,0.3,0.3,0.6,0.6,0.6
			C71.9,125.2,72.2,124.9,72.2,124.6z M71.2,138.3v-12.6c-0.5-0.2-0.9-0.6-0.9-1.2c0-0.7,0.6-1.2,1.3-1.2c0.7,0,1.3,0.6,1.3,1.2
			c0,0.5-0.4,1-0.9,1.2v13.3h-5.1v11.1H66v-11.9L71.2,138.3L71.2,138.3z"/>
		<path class="st0" d="M164.1,137.3c0.3,0,0.6-0.3,0.6-0.6s-0.3-0.6-0.6-0.6c-0.3,0-0.6,0.3-0.6,0.6S163.8,137.3,164.1,137.3z
			 M162.8,136.8c0-0.7,0.6-1.2,1.3-1.2c0.7,0,1.3,0.6,1.3,1.2c0,0.6-0.4,1-0.9,1.2v12.3h-0.8v-12.3
			C163.2,137.8,162.8,137.3,162.8,136.8L162.8,136.8z"/>
		<path class="st0" d="M167.8,148.3c0.3,0,0.6-0.3,0.6-0.6c0-0.3-0.3-0.6-0.6-0.6c-0.3,0-0.6,0.3-0.6,0.6
			C167.2,148,167.5,148.3,167.8,148.3z M166.5,147.7c0-0.7,0.6-1.2,1.3-1.2c0.7,0,1.3,0.6,1.3,1.2c0,0.6-0.4,1-0.9,1.2v1.4h-0.8
			v-1.4C166.9,148.7,166.5,148.2,166.5,147.7L166.5,147.7z"/>
		<path class="st0" d="M210.2,107.5c0-0.3-0.3-0.6-0.6-0.6c-0.3,0-0.6,0.3-0.6,0.6c0,0.3,0.3,0.6,0.6,0.6
			C210,108.1,210.2,107.8,210.2,107.5z M210.1,101.1c0.1-0.1,0.1-0.2,0.1-0.3c0-0.1,0-0.2,0-0.2c-0.1-0.2-0.3-0.3-0.6-0.3
			c-0.1,0-0.3,0.1-0.4,0.1c-0.1,0.1-0.2,0.3-0.2,0.4c0,0.2,0.1,0.4,0.3,0.5c0.1,0.1,0.2,0.1,0.3,0.1
			C209.8,101.4,210,101.2,210.1,101.1L210.1,101.1z M223.7,139.3l-4.8-4.6h0l-9.7-9.2v-16.9c-0.5-0.2-0.9-0.6-0.9-1.2
			c0-0.5,0.4-1,0.9-1.2V102c-0.4-0.1-0.7-0.4-0.8-0.8c0,0,0-0.1,0-0.1c0,0,0,0,0,0c0-0.1,0-0.1,0-0.2c0-0.3,0.1-0.6,0.3-0.8
			c0.2-0.3,0.6-0.4,1-0.4c0.6,0,1.1,0.4,1.2,0.9c0,0.1,0.1,0.2,0.1,0.4c0,0.5-0.4,1-0.9,1.2c0,0,0,0-0.1,0v4.4
			c0.5,0.2,0.9,0.6,0.9,1.2c0,0.6-0.4,1-0.9,1.2v16.9h0l4.8,4.6h0l8.9,8.4h3.8v11.7h-0.8v-10.9L223.7,139.3L223.7,139.3z"/>
		<path class="st0" d="M160.1,144.5c0.3,0,0.6-0.3,0.6-0.6c0-0.3-0.3-0.6-0.6-0.6c-0.3,0-0.6,0.3-0.6,0.6
			C159.5,144.2,159.8,144.5,160.1,144.5z M158.8,143.9c0-0.7,0.6-1.2,1.3-1.2c0.7,0,1.3,0.6,1.3,1.2c0,0.5-0.4,1-0.9,1.2v5.2h-0.8
			v-5.2C159.2,144.9,158.8,144.5,158.8,143.9L158.8,143.9z"/>
		<path class="st0" d="M205.1,110.7c0-0.3-0.3-0.6-0.6-0.6c-0.3,0-0.6,0.3-0.6,0.6c0,0.3,0.3,0.6,0.6,0.6
			C204.8,111.3,205.1,111,205.1,110.7z M205.1,100.8c0-0.3-0.3-0.6-0.6-0.6c-0.3,0-0.6,0.3-0.6,0.6c0,0.3,0.3,0.6,0.6,0.6
			C204.8,101.4,205.1,101.1,205.1,100.8z M218.6,142.4l-4.8-4.6h0l-9.7-9.2c0,0,0-16.8,0-16.8c-0.5-0.2-0.9-0.6-0.9-1.2
			c0-0.5,0.4-1,0.9-1.2V102c-0.5-0.2-0.9-0.6-0.9-1.2c0-0.7,0.6-1.2,1.3-1.2c0.7,0,1.3,0.6,1.3,1.2c0,0.5-0.4,1-0.9,1.2v7.6
			c0.5,0.2,0.9,0.6,0.9,1.2c0,0.6-0.4,1-0.9,1.2v16.8h0l4.8,4.6h0l9.7,9.2h0l2.4,2.3v5.6H221v-5.6L218.6,142.4L218.6,142.4z"/>
		<path class="st0" d="M209.6,86.4c-0.3,0-0.6,0.3-0.6,0.6c0,0.3,0.3,0.6,0.6,0.6c0.3,0,0.6-0.3,0.6-0.6
			C210.2,86.6,210,86.4,209.6,86.4z M227.7,134L227.7,134l-4.8-4.6c0,0,0-34.8,0-34.8h0l-7.7-7.3c0,0-4.3,0-4.3,0
			c-0.2,0.5-0.7,0.9-1.2,0.9c-0.7,0-1.3-0.6-1.3-1.2s0.6-1.2,1.3-1.2c0.6,0,1.1,0.4,1.2,0.9h4.3l8.5,8.1v34.8l4.8,4.6l4.8,4.6h0
			v11.7h-0.8v-11.7L227.7,134L227.7,134z"/>
		<path class="st0" d="M190.1,112.1c0-0.3-0.3-0.6-0.6-0.6c-0.3,0-0.6,0.3-0.6,0.6s0.3,0.6,0.6,0.6
			C189.9,112.7,190.1,112.4,190.1,112.1z M190.1,100.8c0-0.3-0.3-0.6-0.6-0.6c-0.3,0-0.6,0.3-0.6,0.6c0,0.3,0.3,0.6,0.6,0.6
			C189.9,101.4,190.1,101.1,190.1,100.8z M198.8,138.9L198.8,138.9l-9.7-9.2v-16.5c-0.5-0.2-0.9-0.6-0.9-1.2c0-0.5,0.4-1,0.9-1.2v-9
			c-0.5-0.2-0.9-0.6-0.9-1.2c0-0.7,0.6-1.2,1.3-1.2c0.7,0,1.3,0.6,1.3,1.2c0,0.5-0.4,1-0.9,1.2v9c0.5,0.2,0.9,0.6,0.9,1.2
			c0,0.5-0.4,1-0.9,1.2v16.5h0l4.8,4.6h0l9.7,9.2c0,0,0,6.7,0,6.7h-0.8v-6.7L198.8,138.9L198.8,138.9z"/>
		<path class="st0" d="M200.2,114.5c0-0.3-0.3-0.6-0.6-0.6c-0.3,0-0.6,0.3-0.6,0.6c0,0.3,0.3,0.6,0.6,0.6
			C200,115.1,200.2,114.8,200.2,114.5z M200.2,100.8c0-0.3-0.3-0.6-0.6-0.6c-0.3,0-0.6,0.3-0.6,0.6c0,0.3,0.3,0.6,0.6,0.6
			C200,101.4,200.2,101.1,200.2,100.8z M210.4,140.1L210.4,140.1l-4.8-4.6h0l-2.4-2.3l-3.9-3.7v-13.9c-0.5-0.2-0.9-0.6-0.9-1.2
			c0-0.5,0.4-1,0.9-1.2V102c-0.5-0.2-0.9-0.6-0.9-1.2c0-0.7,0.6-1.2,1.3-1.2c0.7,0,1.3,0.6,1.3,1.2c0,0.5-0.4,1-0.9,1.2v11.4
			c0.5,0.2,0.9,0.6,0.9,1.2c0,0.5-0.4,1-0.9,1.2v13.9h0l3.9,3.7h0l2.4,2.3l9.7,9.2v5.6h-0.8v-5.6L210.4,140.1L210.4,140.1z"/>
		<path class="st0" d="M195.9,116.6c0-0.3-0.3-0.6-0.6-0.6c-0.3,0-0.6,0.3-0.6,0.6c0,0.3,0.3,0.6,0.6,0.6
			C195.6,117.1,195.9,116.9,195.9,116.6z M195.9,100.8c0-0.3-0.3-0.6-0.6-0.6c-0.3,0-0.6,0.3-0.6,0.6c0,0.3,0.3,0.6,0.6,0.6
			C195.6,101.4,195.9,101.1,195.9,100.8z M204.6,140.1L204.6,140.1l-9.7-9.2v-13.2c-0.5-0.2-0.9-0.6-0.9-1.2c0-0.5,0.4-1,0.9-1.2
			V102c-0.5-0.2-0.9-0.6-0.9-1.2c0-0.7,0.6-1.2,1.3-1.2c0.7,0,1.3,0.6,1.3,1.2c0,0.5-0.4,1-0.9,1.2v13.4c0.5,0.2,0.9,0.6,0.9,1.2
			c0,0.5-0.4,1-0.9,1.2v13.2h0l4.8,4.6h0l9.7,9.2c0,0,0,5.6,0,5.6h-0.8v-5.6L204.6,140.1L204.6,140.1z"/>
		<path class="st0" d="M170.8,125.7c-0.3,0-0.6,0.3-0.6,0.6c0,0.3,0.3,0.6,0.6,0.6c0.3,0,0.6-0.3,0.6-0.6
			C171.4,126,171.2,125.7,170.8,125.7z M193.6,140.7h-8.2l-4.8-4.6h0l-9.2-8.7c-0.2,0.1-0.4,0.2-0.6,0.2c-0.7,0-1.3-0.6-1.3-1.2
			c0-0.7,0.6-1.2,1.3-1.2c0.7,0,1.3,0.6,1.3,1.2c0,0.3-0.1,0.5-0.2,0.7l4.7,4.5h0l4.8,4.6l4,3.8h8.2l5,4.8v5.6h-0.8v-5.6
			L193.6,140.7L193.6,140.7z"/>
		<path class="st0" d="M88,147.6c-0.3,0-0.6,0.3-0.6,0.6s0.3,0.6,0.6,0.6c0.3,0,0.6-0.3,0.6-0.6C88.6,147.8,88.4,147.6,88,147.6z
			 M88,149.4c-0.7,0-1.3-0.6-1.3-1.2c0-0.7,0.6-1.2,1.3-1.2c0.7,0,1.3,0.6,1.3,1.2c0,0.2-0.1,0.5-0.2,0.7l1.5,1.4h-0.8l-1.1-1
			C88.5,149.3,88.3,149.4,88,149.4L88,149.4z"/>
		<path class="st0" d="M100,146.4c0.3,0,0.6-0.3,0.6-0.6c0-0.3-0.3-0.6-0.6-0.6c-0.3,0-0.6,0.3-0.6,0.6
			C99.4,146.2,99.7,146.4,100,146.4z M98.8,145.5c0.1-0.4,0.4-0.7,0.8-0.8v-7.4h12.2v13H111V138h-10.5v6.6c0.5,0.2,0.9,0.6,0.9,1.2
			c0,0.7-0.6,1.2-1.3,1.2c-0.6,0-1.1-0.4-1.2-0.9h-2.9v4h-0.8v-4.8L98.8,145.5L98.8,145.5z"/>
		<path class="st0" d="M81.6,147.6c-0.3,0-0.6,0.3-0.6,0.6s0.3,0.6,0.6,0.6c0.3,0,0.6-0.3,0.6-0.6C82.2,147.8,82,147.6,81.6,147.6z
			 M81.6,149.4c-0.7,0-1.3-0.6-1.3-1.2c0-0.7,0.6-1.2,1.3-1.2c0.7,0,1.3,0.6,1.3,1.2c0,0.2-0.1,0.5-0.2,0.7l1.5,1.4h-0.8l-1.1-1
			C82.1,149.3,81.9,149.4,81.6,149.4L81.6,149.4z"/>
		<path class="st0" d="M105.7,141.9c0.3,0,0.6-0.3,0.6-0.6c0-0.3-0.3-0.6-0.6-0.6c-0.3,0-0.6,0.3-0.6,0.6
			C105.1,141.7,105.4,141.9,105.7,141.9z M104.4,141.3c0-0.7,0.6-1.2,1.3-1.2c0.7,0,1.3,0.6,1.3,1.2c0,0.5-0.4,1-0.9,1.2v7.7h-0.8
			v-7.7C104.8,142.4,104.4,141.9,104.4,141.3L104.4,141.3z"/>
		<path class="st0" d="M76.3,125.2c0.3,0,0.6-0.3,0.6-0.6c0-0.3-0.3-0.6-0.6-0.6c-0.3,0-0.6,0.3-0.6,0.6
			C75.7,124.9,76,125.2,76.3,125.2z M75.8,142.8v-17.1c-0.5-0.2-0.8-0.6-0.8-1.2c0-0.7,0.6-1.2,1.3-1.2c0.7,0,1.3,0.6,1.3,1.2
			c0,0.6-0.4,1-1,1.2v17.8h-0.8c0,0-4.3,0-4.3,0v6.7h-0.8v-7.5L75.8,142.8L75.8,142.8z"/>
		<path class="st0" d="M75.7,147.6c-0.3,0-0.6,0.3-0.6,0.6s0.3,0.6,0.6,0.6c0.3,0,0.6-0.3,0.6-0.6C76.3,147.8,76.1,147.6,75.7,147.6
			z M75.7,149.4c-0.7,0-1.3-0.6-1.3-1.2c0-0.7,0.6-1.2,1.3-1.2c0.7,0,1.3,0.6,1.3,1.2c0,0.2-0.1,0.5-0.2,0.7l1.5,1.4h-0.8l-1.1-1
			C76.2,149.3,76,149.4,75.7,149.4L75.7,149.4z"/>
		<path class="st0" d="M139.2,142.6c0.3,0,0.6-0.3,0.6-0.6c0-0.3-0.3-0.6-0.6-0.6c-0.3,0-0.6,0.3-0.6,0.6
			C138.6,142.3,138.9,142.6,139.2,142.6z M138.1,142.7c-0.1-0.2-0.2-0.4-0.2-0.7c0-0.7,0.6-1.2,1.3-1.2c0.7,0,1.3,0.6,1.3,1.2
			c0,0.7-0.6,1.2-1.3,1.2c-0.2,0-0.5-0.1-0.7-0.2l-2.1,2v5.2h-0.8V145L138.1,142.7L138.1,142.7z"/>
		<path class="st0" d="M137.2,127.4c-0.3,0-0.6,0.3-0.6,0.6s0.3,0.6,0.6,0.6c0.3,0,0.6-0.3,0.6-0.6S137.5,127.4,137.2,127.4z
			 M149.6,140.1v-5.6c0,0-6.5-6.2-6.5-6.2v0h-4.7c-0.2,0.5-0.7,0.9-1.2,0.9c-0.7,0-1.3-0.6-1.3-1.2c0-0.7,0.6-1.2,1.3-1.2
			c0.6,0,1.1,0.4,1.2,0.9h4.7l7.3,7v5.6h0l4.8,4.6c0,0,0,5.6,0,5.6h-0.8v-5.6L149.6,140.1L149.6,140.1z"/>
		<path class="st0" d="M135,136.7c-0.3,0-0.6,0.3-0.6,0.6c0,0.3,0.3,0.6,0.6,0.6c0.3,0,0.6-0.3,0.6-0.6
			C135.6,137,135.3,136.7,135,136.7z M143.1,139.7l-2.2-2.1v0h-4.7c-0.2,0.5-0.7,0.9-1.2,0.9c-0.7,0-1.3-0.6-1.3-1.2
			c0-0.7,0.6-1.2,1.3-1.2c0.6,0,1.1,0.4,1.2,0.9h4.7l3,2.8v10.5h-0.8L143.1,139.7L143.1,139.7L143.1,139.7z"/>
		<path class="st0" d="M116.7,144.5c0.3,0,0.6-0.3,0.6-0.6c0-0.3-0.3-0.6-0.6-0.6c-0.3,0-0.6,0.3-0.6,0.6
			C116,144.2,116.3,144.5,116.7,144.5z M101.5,133.6c-0.3,0-0.6,0.3-0.6,0.6c0,0.3,0.3,0.6,0.6,0.6c0.3,0,0.6-0.3,0.6-0.6
			C102.2,133.9,101.9,133.6,101.5,133.6z M115.3,143.9c0-0.6,0.4-1,0.9-1.2v-8.1h-13.5c-0.2,0.5-0.7,0.9-1.2,0.9
			c-0.7,0-1.3-0.6-1.3-1.2c0-0.7,0.6-1.2,1.3-1.2c0.6,0,1.1,0.4,1.2,0.9h14.3v8.9c0.5,0.2,0.9,0.6,0.9,1.2c0,0.5-0.4,1-0.9,1.2v5.2
			h-0.8v-5.2C115.7,144.9,115.3,144.5,115.3,143.9L115.3,143.9z"/>
		<path class="st0" d="M148,145.7c0.3,0,0.6-0.3,0.6-0.6c0-0.3-0.3-0.6-0.6-0.6c-0.3,0-0.6,0.3-0.6,0.6
			C147.4,145.5,147.6,145.7,148,145.7z M146.7,145.1c0-0.7,0.6-1.2,1.3-1.2c0.7,0,1.3,0.6,1.3,1.2c0,0.6-0.4,1-0.9,1.2v3.9h-0.8
			v-3.9C147,146.2,146.7,145.7,146.7,145.1L146.7,145.1z"/>
		<path class="st0" d="M171,91.8c0.3,0,0.6-0.3,0.6-0.6c0-0.3-0.3-0.6-0.6-0.6c-0.3,0-0.6,0.3-0.6,0.6
			C170.4,91.5,170.6,91.8,171,91.8z M128.2,117.8L128.2,117.8l0-13.1l14.7-13.9h26.8c0.2-0.5,0.7-0.9,1.2-0.9c0.7,0,1.3,0.6,1.3,1.2
			c0,0.7-0.6,1.2-1.3,1.2c-0.6,0-1.1-0.4-1.2-0.9h-26.8v0L129,104.7c0,0,0,13.1,0,13.1l-7.7,7.3c0,0,0,25.2,0,25.2h-0.8v-25.2
			L128.2,117.8L128.2,117.8z"/>
		<path class="st0" d="M171,96.8c0.3,0,0.6-0.3,0.6-0.6c0-0.3-0.3-0.6-0.6-0.6c-0.3,0-0.6,0.3-0.6,0.6
			C170.4,96.5,170.6,96.8,171,96.8z M135.4,117.8v-13.1l9.4-8.9h24.9c0.2-0.5,0.7-0.9,1.2-0.9c0.7,0,1.3,0.6,1.3,1.2
			c0,0.7-0.6,1.2-1.3,1.2c-0.6,0-1.1-0.4-1.2-0.9h-24.9v0l-8.6,8.2c0,0,0,13.1,0,13.1h0l-7.7,7.3c0,0,0,25.2,0,25.2h-0.8v-25.2
			L135.4,117.8L135.4,117.8z"/>
		<path class="st0" d="M48.2,135.7c0.3,0,0.6-0.3,0.6-0.6c0-0.3-0.3-0.6-0.6-0.6c-0.3,0-0.6,0.3-0.6,0.6
			C47.6,135.4,47.8,135.7,48.2,135.7z M46.9,135.1c0-0.7,0.6-1.2,1.3-1.2c0.7,0,1.3,0.6,1.3,1.2c0,0.5-0.4,1-0.9,1.2v13.9h-0.8
			v-13.9C47.3,136.1,46.9,135.7,46.9,135.1L46.9,135.1z"/>
		<path class="st0" d="M95.6,41.3c0-0.3-0.3-0.6-0.6-0.6c-0.3,0-0.6,0.3-0.6,0.6c0,0.3,0.3,0.6,0.6,0.6
			C95.4,41.9,95.6,41.6,95.6,41.3z M87.1,40.7c-0.3,0-0.6,0.3-0.6,0.6c0,0.3,0.3,0.6,0.6,0.6c0.3,0,0.6-0.3,0.6-0.6
			C87.7,41,87.4,40.7,87.1,40.7z M93.8,41.7h-5.5c-0.2,0.5-0.7,0.9-1.2,0.9c-0.7,0-1.3-0.6-1.3-1.2c0-0.7,0.6-1.2,1.3-1.2
			c0.6,0,1.1,0.4,1.2,0.9h5.5c0.2-0.5,0.7-0.9,1.2-0.9c0.7,0,1.3,0.6,1.3,1.2c0,0.7-0.6,1.2-1.3,1.2C94.5,42.6,94,42.2,93.8,41.7z"
			/>
		<path class="st0" d="M82.5,41.3c0-0.3-0.3-0.6-0.6-0.6c-0.3,0-0.6,0.3-0.6,0.6c0,0.3,0.3,0.6,0.6,0.6
			C82.3,41.9,82.5,41.6,82.5,41.3z M75.8,40.7c-0.3,0-0.6,0.3-0.6,0.6c0,0.3,0.3,0.6,0.6,0.6c0.3,0,0.6-0.3,0.6-0.6
			C76.4,41,76.1,40.7,75.8,40.7z M80.7,41.7H77c-0.2,0.5-0.7,0.9-1.2,0.9c-0.7,0-1.3-0.6-1.3-1.2c0-0.7,0.6-1.2,1.3-1.2
			c0.6,0,1.1,0.4,1.2,0.9h3.7c0.2-0.5,0.7-0.9,1.2-0.9c0.7,0,1.3,0.6,1.3,1.2c0,0.7-0.6,1.2-1.3,1.2C81.4,42.6,80.9,42.2,80.7,41.7z
			"/>
		<path class="st0" d="M75.8,45.3c-0.3,0-0.6,0.3-0.6,0.6c0,0.3,0.3,0.6,0.6,0.6c0.3,0,0.6-0.3,0.6-0.6
			C76.4,45.5,76.1,45.3,75.8,45.3z M99.4,46.4c0.3,0,0.6-0.3,0.6-0.6c0-0.3-0.3-0.6-0.6-0.6c-0.3,0-0.6,0.3-0.6,0.6
			C98.8,46.1,99.1,46.4,99.4,46.4z M99.4,44.6c0.7,0,1.3,0.6,1.3,1.2c0,0.7-0.6,1.2-1.3,1.2c-0.6,0-1.1-0.4-1.2-0.9H77
			c-0.2,0.5-0.7,0.9-1.2,0.9c-0.7,0-1.3-0.6-1.3-1.2c0-0.7,0.6-1.2,1.3-1.2c0.6,0,1.1,0.4,1.2,0.9h21.2C98.4,45,98.9,44.6,99.4,44.6
			z"/>
		<path class="st0" d="M89.6,34.1c0,0.3,0.3,0.6,0.6,0.6c0.3,0,0.6-0.3,0.6-0.6c0-0.3-0.3-0.6-0.6-0.6
			C89.9,33.5,89.6,33.7,89.6,34.1z M83.8,25c-0.3,0-0.6,0.3-0.6,0.6c0,0.3,0.3,0.6,0.6,0.6c0.3,0,0.6-0.3,0.6-0.6
			C84.4,25.2,84.1,25,83.8,25z M85,25.9c-0.2,0.5-0.7,0.9-1.2,0.9c-0.7,0-1.3-0.6-1.3-1.2c0-0.7,0.6-1.2,1.3-1.2
			c0.6,0,1.1,0.4,1.2,0.9h5.6v7.7c0.5,0.2,0.9,0.6,0.9,1.2c0,0.7-0.6,1.2-1.3,1.2c-0.7,0-1.3-0.6-1.3-1.2c0-0.5,0.4-1,0.9-1.2v-7
			L85,25.9L85,25.9z"/>
		<path class="st0" d="M86.3,31.7c-0.3,0-0.6,0.3-0.6,0.6c0,0.3,0.3,0.6,0.6,0.6c0.3,0,0.6-0.3,0.6-0.6C86.9,32,86.6,31.7,86.3,31.7
			z M81.5,31.7c-0.3,0-0.6,0.3-0.6,0.6c0,0.3,0.3,0.6,0.6,0.6c0.3,0,0.6-0.3,0.6-0.6C82.1,32,81.9,31.7,81.5,31.7z M86.3,33.5
			c-0.6,0-1.1-0.4-1.2-0.9h-2.3c-0.2,0.5-0.7,0.9-1.2,0.9c-0.7,0-1.3-0.6-1.3-1.2c0-0.7,0.6-1.2,1.3-1.2c0.6,0,1.1,0.4,1.2,0.9H85
			c0.2-0.5,0.7-0.9,1.2-0.9c0.7,0,1.3,0.6,1.3,1.2C87.6,33,87,33.5,86.3,33.5z"/>
		<path class="st0" d="M94.7,26.1c0.3,0,0.6-0.3,0.6-0.6c0-0.3-0.3-0.6-0.6-0.6c-0.3,0-0.6,0.3-0.6,0.6
			C94.1,25.9,94.4,26.1,94.7,26.1z M94.1,34.1c0,0.3,0.3,0.6,0.6,0.6c0.3,0,0.6-0.3,0.6-0.6c0-0.3-0.3-0.6-0.6-0.6
			C94.4,33.5,94.1,33.7,94.1,34.1z M93.4,25.6c0-0.7,0.6-1.2,1.3-1.2c0.7,0,1.3,0.6,1.3,1.2c0,0.5-0.4,1-0.9,1.2v6.2
			c0.5,0.2,0.9,0.6,0.9,1.2c0,0.7-0.6,1.2-1.3,1.2c-0.7,0-1.3-0.6-1.3-1.2c0-0.5,0.4-1,0.9-1.2v-6.2C93.8,26.6,93.4,26.1,93.4,25.6z
			"/>
		<path class="st0" d="M102.3,61c-0.3,0-0.6,0.3-0.6,0.6c0,0.3,0.3,0.6,0.6,0.6c0.3,0,0.6-0.3,0.6-0.6C102.9,61.3,102.6,61,102.3,61
			z M75.8,58.8c-0.3,0-0.6,0.3-0.6,0.6c0,0.3,0.3,0.6,0.6,0.6c0.3,0,0.6-0.3,0.6-0.6C76.4,59,76.1,58.8,75.8,58.8z M102.3,62.8
			c-0.6,0-1.1-0.4-1.2-0.9h-6v0l-2.4-2.2H77c-0.2,0.5-0.7,0.9-1.2,0.9c-0.7,0-1.3-0.6-1.3-1.2c0-0.7,0.6-1.2,1.3-1.2
			c0.6,0,1.1,0.4,1.2,0.9h15.7l2.4,2.3v0h6c0.2-0.5,0.7-0.9,1.2-0.9c0.7,0,1.3,0.6,1.3,1.2C103.6,62.3,103,62.8,102.3,62.8z"/>
		<path class="st0" d="M75.5,32.8c0.1,0,0.2,0.1,0.3,0.1c0.3,0,0.6-0.2,0.6-0.5c0,0,0,0,0-0.1c0-0.3-0.3-0.6-0.6-0.6
			c-0.1,0-0.2,0-0.3,0.1c-0.2,0.1-0.3,0.3-0.3,0.5C75.2,32.5,75.3,32.7,75.5,32.8z M75.4,31.1v-3h0.8v3c0.2,0.1,0.4,0.2,0.5,0.3
			c0.2,0.2,0.4,0.5,0.4,0.9c0,0.7-0.6,1.2-1.3,1.2c-0.3,0-0.7-0.1-0.9-0.3c0,0,0,0,0,0c0,0-0.1-0.1-0.1-0.1c0,0,0,0-0.1-0.1
			c-0.1-0.2-0.2-0.4-0.2-0.7c0-0.2,0.1-0.4,0.2-0.6C74.8,31.5,75.1,31.2,75.4,31.1L75.4,31.1z"/>
		<path class="st0" d="M76.4,68.4C76.4,68.4,76.4,68.4,76.4,68.4c0-0.4-0.3-0.6-0.6-0.6c-0.1,0-0.2,0-0.3,0.1
			c-0.2,0.1-0.3,0.3-0.3,0.5c0,0.2,0.1,0.4,0.3,0.5c0.1,0,0.2,0.1,0.3,0.1C76.1,68.9,76.4,68.7,76.4,68.4z M92.9,93.6
			c0.3,0,0.6-0.3,0.6-0.6c0-0.3-0.3-0.6-0.6-0.6c-0.3,0-0.6,0.3-0.6,0.6C92.3,93.3,92.6,93.6,92.9,93.6z M91.7,92.6
			c0.2-0.5,0.7-0.9,1.2-0.9c0.7,0,1.3,0.6,1.3,1.2c0,0.7-0.6,1.2-1.3,1.2c-0.6,0-1.1-0.4-1.2-0.9h-5.6l-4.3-4.1v0h-5.6
			c0,0-0.8,0-0.8,0V69.5c-0.2-0.1-0.3-0.1-0.5-0.3c0,0,0,0,0,0c0,0-0.1-0.1-0.1-0.1c0,0,0,0-0.1-0.1c-0.1-0.2-0.2-0.4-0.2-0.7
			c0-0.2,0.1-0.4,0.2-0.6c0.2-0.4,0.7-0.7,1.2-0.7c0.4,0,0.7,0.1,0.9,0.4c0.2,0.2,0.4,0.5,0.4,0.9c0,0.6-0.4,1-0.9,1.2v19h5.6
			l4.3,4.1C86.1,92.6,91.7,92.6,91.7,92.6L91.7,92.6z"/>
		<path class="st0" d="M75.8,54.3c-0.3,0-0.6,0.3-0.6,0.6c0,0.3,0.3,0.6,0.6,0.6c0.3,0,0.6-0.3,0.6-0.6
			C76.4,54.5,76.1,54.3,75.8,54.3z M102.3,57.7c0.3,0,0.6-0.3,0.6-0.6c0-0.3-0.3-0.6-0.6-0.6c-0.3,0-0.6,0.3-0.6,0.6
			C101.7,57.4,102,57.7,102.3,57.7z M101.1,56.7c0.2-0.5,0.7-0.9,1.2-0.9c0.7,0,1.3,0.6,1.3,1.2c0,0.7-0.6,1.2-1.3,1.2
			c-0.6,0-1.1-0.4-1.2-0.9h-6v0l-2.4-2.2H77c-0.2,0.5-0.7,0.9-1.2,0.9c-0.7,0-1.3-0.6-1.3-1.2s0.6-1.2,1.3-1.2
			c0.6,0,1.1,0.4,1.2,0.9h15.7l2.4,2.3v0C95.1,56.7,101.1,56.7,101.1,56.7z"/>
		<path class="st0" d="M91.9,73.2c-0.3,0-0.6,0.3-0.6,0.6c0,0.3,0.3,0.6,0.6,0.6c0.3,0,0.6-0.3,0.6-0.6
			C92.5,73.4,92.2,73.2,91.9,73.2z M80.3,73.2c-0.3,0-0.6,0.3-0.6,0.6c0,0.3,0.3,0.6,0.6,0.6c0.3,0,0.6-0.3,0.6-0.6
			C80.9,73.4,80.6,73.2,80.3,73.2z M91.9,75c-0.6,0-1.1-0.4-1.2-0.9h-9.2c-0.2,0.5-0.7,0.9-1.2,0.9c-0.7,0-1.3-0.6-1.3-1.2
			c0-0.7,0.6-1.2,1.3-1.2c0.6,0,1.1,0.4,1.2,0.9h9.2c0.2-0.5,0.7-0.9,1.2-0.9c0.7,0,1.3,0.6,1.3,1.2C93.2,74.4,92.6,75,91.9,75z"/>
		<path class="st0" d="M71,74.4c-0.3,0-0.6,0.3-0.6,0.6c0,0.3,0.3,0.6,0.6,0.6c0.3,0,0.6-0.3,0.6-0.6C71.6,74.7,71.4,74.4,71,74.4z
			 M71.6,68.4c0-0.3-0.3-0.6-0.6-0.6c-0.3,0-0.6,0.3-0.6,0.6c0,0.3,0.3,0.6,0.6,0.6C71.4,68.9,71.6,68.7,71.6,68.4z M72.3,75
			c0,0.7-0.6,1.2-1.3,1.2c-0.7,0-1.3-0.6-1.3-1.2c0-0.5,0.4-1,0.9-1.2v-4.3c-0.5-0.2-0.9-0.6-0.9-1.2c0-0.7,0.6-1.2,1.3-1.2
			c0.7,0,1.3,0.6,1.3,1.2c0,0.6-0.4,1-0.9,1.2v4.3C72,74,72.3,74.4,72.3,75z"/>
		<path class="st0" d="M91.9,78.5c-0.3,0-0.6,0.3-0.6,0.6c0,0.3,0.3,0.6,0.6,0.6c0.3,0,0.6-0.3,0.6-0.6
			C92.5,78.8,92.2,78.5,91.9,78.5z M80.3,78.5c-0.3,0-0.6,0.3-0.6,0.6c0,0.3,0.3,0.6,0.6,0.6c0.3,0,0.6-0.3,0.6-0.6
			C80.9,78.8,80.6,78.5,80.3,78.5z M91.9,80.3c-0.6,0-1.1-0.4-1.2-0.9h-9.2c-0.2,0.5-0.7,0.9-1.2,0.9c-0.7,0-1.3-0.6-1.3-1.2
			c0-0.7,0.6-1.2,1.3-1.2c0.6,0,1.1,0.4,1.2,0.9h9.2c0.2-0.5,0.7-0.9,1.2-0.9c0.7,0,1.3,0.6,1.3,1.2C93.2,79.8,92.6,80.3,91.9,80.3z
			"/>
		<path class="st0" d="M91.9,67.8c-0.3,0-0.6,0.3-0.6,0.6c0,0.3,0.3,0.6,0.6,0.6c0.3,0,0.6-0.3,0.6-0.6C92.5,68,92.2,67.8,91.9,67.8
			z M80.3,67.8c-0.3,0-0.6,0.3-0.6,0.6c0,0.3,0.3,0.6,0.6,0.6c0.3,0,0.6-0.3,0.6-0.6C80.9,68,80.6,67.8,80.3,67.8z M91.9,69.6
			c-0.6,0-1.1-0.4-1.2-0.9h-9.2c-0.2,0.5-0.7,0.9-1.2,0.9c-0.7,0-1.3-0.6-1.3-1.2c0-0.7,0.6-1.2,1.3-1.2c0.6,0,1.1,0.4,1.2,0.9h9.2
			c0.2-0.5,0.7-0.9,1.2-0.9c0.7,0,1.3,0.6,1.3,1.2C93.2,69,92.6,69.6,91.9,69.6z"/>
		<path class="st0" d="M100.3,88.1c-0.3,0-0.6,0.3-0.6,0.6c0,0.3,0.3,0.6,0.6,0.6c0.3,0,0.6-0.3,0.6-0.6
			C100.9,88.3,100.7,88.1,100.3,88.1z M100.9,83.1c0-0.3-0.3-0.6-0.6-0.6c-0.3,0-0.6,0.3-0.6,0.6c0,0.3,0.3,0.6,0.6,0.6
			C100.7,83.7,100.9,83.4,100.9,83.1z M101.7,88.6c0,0.7-0.6,1.2-1.3,1.2c-0.7,0-1.3-0.6-1.3-1.2c0-0.5,0.4-1,0.9-1.2v-3.2
			c-0.5-0.2-0.9-0.6-0.9-1.2c0-0.7,0.6-1.2,1.3-1.2s1.3,0.6,1.3,1.2c0,0.5-0.4,1-0.9,1.2v3.2C101.3,87.6,101.7,88.1,101.7,88.6z"/>
		<path class="st0" d="M148.8,80.9c0.3,0,0.6-0.3,0.6-0.6c0-0.3-0.3-0.6-0.6-0.6c-0.3,0-0.6,0.3-0.6,0.6
			C148.2,80.6,148.5,80.9,148.8,80.9z M102.8,101.4c-0.3,0-0.6,0.3-0.6,0.6c0,0.3,0.3,0.6,0.6,0.6c0.3,0,0.6-0.3,0.6-0.6
			C103.4,101.7,103.1,101.4,102.8,101.4z M116.5,95.8l-7,6.6c0,0-5.5,0-5.5,0c-0.2,0.5-0.7,0.9-1.2,0.9c-0.7,0-1.3-0.6-1.3-1.2
			s0.6-1.2,1.3-1.2c0.6,0,1.1,0.4,1.2,0.9h5.5l7-6.6h13.4l16-15.1h1.8c0.2-0.5,0.7-0.9,1.2-0.9c0.7,0,1.3,0.6,1.3,1.2
			c0,0.7-0.6,1.2-1.3,1.2c-0.6,0-1.1-0.4-1.2-0.9h-1.8v0l-16,15.1l0,0H129l0,0L116.5,95.8L116.5,95.8L116.5,95.8z"/>
		<path class="st0" d="M99.7,25c-0.3,0-0.6,0.3-0.6,0.6c0,0.3,0.3,0.6,0.6,0.6c0.3,0,0.6-0.3,0.6-0.6C100.4,25.2,100.1,25,99.7,25z
			 M75.8,36.2c-0.3,0-0.6,0.3-0.6,0.6c0,0.3,0.3,0.6,0.6,0.6c0.3,0,0.6-0.3,0.6-0.6C76.4,36.5,76.1,36.2,75.8,36.2z M100.2,26.7
			v10.5H77c-0.2,0.5-0.7,0.9-1.2,0.9c-0.7,0-1.3-0.6-1.3-1.2c0-0.7,0.6-1.2,1.3-1.2c0.6,0,1.1,0.4,1.2,0.9h22.3v-9.7
			c-0.5-0.2-0.9-0.6-0.9-1.2c0-0.7,0.6-1.2,1.3-1.2c0.7,0,1.3,0.6,1.3,1.2C101.1,26.1,100.7,26.6,100.2,26.7L100.2,26.7z"/>
		<path class="st0" d="M116,66.2c0,0,0,0.1,0,0.1c0,0,0,0,0,0.1c0.1,0.2,0.3,0.3,0.5,0.3c0.3,0,0.6-0.3,0.6-0.6
			c0-0.2-0.1-0.3-0.2-0.4c-0.1-0.1-0.3-0.2-0.4-0.2c-0.3,0-0.6,0.3-0.6,0.6C116,66.2,116,66.2,116,66.2L116,66.2z M128,71
			c0,0.3,0.3,0.6,0.6,0.6c0.3,0,0.6-0.3,0.6-0.6s-0.3-0.6-0.6-0.6C128.3,70.4,128,70.7,128,71z M116.3,64.9c0.1,0,0.2,0,0.3,0
			c0.6,0,1.1,0.4,1.2,0.9H129v4.1c0.5,0.2,0.9,0.6,0.9,1.2c0,0.7-0.6,1.2-1.3,1.2c-0.7,0-1.3-0.6-1.3-1.2c0-0.6,0.4-1,0.9-1.2v-3.4
			h-10.4c-0.2,0.5-0.7,0.9-1.2,0.9c-0.1,0-0.2,0-0.3,0c-0.6-0.1-1-0.6-1-1.2C115.3,65.5,115.7,65,116.3,64.9L116.3,64.9z"/>
		<path class="st0" d="M91,145.7c0.3,0,0.6-0.3,0.6-0.6c0-0.3-0.3-0.6-0.6-0.6c-0.3,0-0.6,0.3-0.6,0.6
			C90.4,145.4,90.6,145.7,91,145.7z M95.4,141.1c0.3,0,0.6-0.3,0.6-0.6s-0.3-0.6-0.6-0.6c-0.3,0-0.6,0.3-0.6,0.6
			S95.1,141.1,95.4,141.1z M116.7,130.8c0.3,0,0.6-0.3,0.6-0.6c0-0.3-0.3-0.6-0.6-0.6c-0.3,0-0.6,0.3-0.6,0.6
			C116.1,130.6,116.4,130.8,116.7,130.8z M91,143.9c0.3,0,0.5,0.1,0.7,0.2l2.8-2.7c-0.2-0.2-0.4-0.5-0.4-0.8c0-0.5,0.4-1,0.9-1.2
			v-3.5l-2.1-2v-4h22.6c0.2-0.5,0.7-0.9,1.2-0.9c0.7,0,1.3,0.6,1.3,1.2c0,0.7-0.6,1.2-1.3,1.2c-0.6,0-1.1-0.4-1.2-0.9H93.7v3.2h0
			l2.1,2v3.5c0.5,0.2,0.9,0.6,0.9,1.2c0,0.7-0.6,1.2-1.3,1.2c-0.2,0-0.3,0-0.5-0.1l-2.9,2.7c0.1,0.2,0.2,0.4,0.2,0.7
			c0,0.7-0.6,1.2-1.3,1.2c-0.7,0-1.3-0.6-1.3-1.2C89.7,144.4,90.3,143.9,91,143.9L91,143.9z"/>
		<path class="st0" d="M117,76.3c-0.3,0-0.6,0.3-0.6,0.6c0,0.3,0.3,0.6,0.6,0.6c0.3,0,0.6-0.3,0.6-0.6
			C117.6,76.6,117.3,76.3,117,76.3z M123.1,71.6c0.3,0,0.6-0.3,0.6-0.6c0-0.3-0.3-0.6-0.6-0.6c-0.3,0-0.6,0.3-0.6,0.6
			C122.5,71.3,122.8,71.6,123.1,71.6z M123.1,69.8c0.7,0,1.3,0.6,1.3,1.2c0,0.7-0.6,1.2-1.3,1.2c-0.2,0-0.5-0.1-0.7-0.2l-4.4,4.2
			c0.1,0.2,0.2,0.4,0.2,0.6c0,0.7-0.6,1.2-1.3,1.2c-0.7,0-1.3-0.6-1.3-1.2s0.6-1.2,1.3-1.2c0.3,0,0.5,0.1,0.7,0.2l4.4-4.1
			c-0.1-0.2-0.2-0.4-0.2-0.7C121.8,70.3,122.4,69.8,123.1,69.8L123.1,69.8z"/>
		<path class="st0" d="M102.8,106c-0.3,0-0.6,0.3-0.6,0.6c0,0.3,0.3,0.6,0.6,0.6c0.3,0,0.6-0.3,0.6-0.6
			C103.4,106.2,103.1,106,102.8,106z M80.4,122.1c0,0.3,0.3,0.6,0.6,0.6c0.3,0,0.6-0.3,0.6-0.6c0-0.3-0.3-0.6-0.6-0.6
			C80.7,121.5,80.4,121.8,80.4,122.1z M117.7,119.3H81.4v1.6c0.5,0.2,0.9,0.6,0.9,1.2c0,0.7-0.6,1.2-1.3,1.2c-0.7,0-1.3-0.6-1.3-1.2
			c0-0.5,0.4-1,0.9-1.2v-2.4h37.9v0l3-2.9h0v-8.8H104c-0.2,0.5-0.7,0.9-1.2,0.9c-0.7,0-1.3-0.6-1.3-1.2c0-0.7,0.6-1.2,1.3-1.2
			c0.6,0,1.1,0.4,1.2,0.9h18.4v9.5l-3.8,3.6L117.7,119.3L117.7,119.3L117.7,119.3z"/>
		<path class="st0" d="M171,82.6c-0.3,0-0.6,0.3-0.6,0.6c0,0.3,0.3,0.6,0.6,0.6c0.3,0,0.6-0.3,0.6-0.6
			C171.6,82.9,171.3,82.6,171,82.6z M102.8,96.9c-0.3,0-0.6,0.3-0.6,0.6c0,0.3,0.3,0.6,0.6,0.6c0.3,0,0.6-0.3,0.6-0.6
			C103.4,97.2,103.1,96.9,102.8,96.9z M171,84.5c-0.6,0-1.1-0.4-1.2-0.9H166v0l-7-6.6h-13.2v0l-15.1,14.3h-14.2v0l-7,6.6
			c0,0-5.5,0-5.5,0c-0.2,0.5-0.7,0.9-1.2,0.9c-0.7,0-1.3-0.6-1.3-1.2c0-0.7,0.6-1.2,1.3-1.2c0.6,0,1.1,0.4,1.2,0.9h5.5l7-6.6h14.2
			l15.1-14.3H159l7,6.6h3.7c0.2-0.5,0.7-0.9,1.2-0.9c0.7,0,1.3,0.6,1.3,1.2C172.3,83.9,171.7,84.5,171,84.5L171,84.5z"/>
		<path class="st0" d="M102.7,65.7c-0.1-0.1-0.3-0.2-0.4-0.2c-0.3,0-0.5,0.1-0.6,0.3c0,0.1,0,0.1,0,0.2c0,0.2,0.1,0.4,0.3,0.5
			c0,0,0,0,0.1,0c0,0,0.1,0,0.1,0c0.1,0,0.1,0,0.2,0c0.3,0,0.6-0.3,0.6-0.6C102.9,66,102.8,65.8,102.7,65.7L102.7,65.7z M75.8,63.3
			c-0.3,0-0.6,0.3-0.6,0.6c0,0.3,0.3,0.6,0.6,0.6c0.3,0,0.6-0.3,0.6-0.6C76.4,63.5,76.1,63.3,75.8,63.3z M103.3,67
			c-0.2,0.2-0.6,0.4-1,0.4c-0.6,0-1.1-0.4-1.2-0.9h-6v0l-2.4-2.2H77c-0.2,0.5-0.7,0.9-1.2,0.9c-0.7,0-1.3-0.6-1.3-1.2
			c0-0.7,0.6-1.2,1.3-1.2c0.6,0,1.1,0.4,1.2,0.9h15.7l2.4,2.3h6c0.1-0.2,0.2-0.4,0.3-0.5c0.2-0.2,0.6-0.4,0.9-0.4
			c0.4,0,0.7,0.1,0.9,0.4c0.2,0.2,0.4,0.5,0.4,0.9C103.6,66.4,103.5,66.7,103.3,67L103.3,67z"/>
		<path class="st0" d="M97.8,114.5c-0.3,0-0.6,0.3-0.6,0.6c0,0.3,0.3,0.6,0.6,0.6c0.3,0,0.6-0.3,0.6-0.6
			C98.4,114.8,98.1,114.5,97.8,114.5z M102.8,110.5c-0.3,0-0.6,0.3-0.6,0.6c0,0.3,0.3,0.6,0.6,0.6c0.3,0,0.6-0.3,0.6-0.6
			C103.4,110.7,103.1,110.5,102.8,110.5z M104,111.4c-0.2,0.5-0.7,0.9-1.2,0.9c-0.7,0-1.3-0.6-1.3-1.2c0-0.7,0.6-1.2,1.3-1.2
			c0.6,0,1.1,0.4,1.2,0.9h11.4v4.8H99c-0.2,0.5-0.7,0.9-1.2,0.9c-0.7,0-1.3-0.6-1.3-1.2s0.6-1.2,1.3-1.2c0.6,0,1.1,0.4,1.2,0.9h15.5
			v-3.3L104,111.4L104,111.4z"/>
		<path class="st0" d="M75.8,49.8c-0.3,0-0.6,0.3-0.6,0.6c0,0.3,0.3,0.6,0.6,0.6c0.3,0,0.6-0.3,0.6-0.6C76.4,50,76.1,49.8,75.8,49.8
			z M101.9,53c0.1,0.1,0.3,0.2,0.4,0.2c0.1,0,0.2,0,0.3-0.1c0.2-0.1,0.4-0.3,0.4-0.5c0-0.2-0.1-0.3-0.2-0.4
			c-0.1-0.1-0.3-0.2-0.4-0.2c-0.2,0-0.4,0.1-0.5,0.3c0,0.1-0.1,0.2-0.1,0.3C101.7,52.7,101.8,52.9,101.9,53L101.9,53z M102.3,51.4
			c0.5,0,0.9,0.3,1.2,0.7c0.1,0.2,0.2,0.4,0.2,0.6c0,0.7-0.6,1.2-1.3,1.2c-0.6,0-1.1-0.4-1.2-0.9h-6v0l-2.4-2.2H77
			c-0.2,0.5-0.7,0.9-1.2,0.9c-0.7,0-1.3-0.6-1.3-1.2c0-0.7,0.6-1.2,1.3-1.2c0.6,0,1.1,0.4,1.2,0.9h15.7l2.4,2.3v0h6
			C101.2,51.7,101.7,51.4,102.3,51.4z"/>
		<path class="st0" d="M133,78.1c0,0.3,0.3,0.6,0.6,0.6c0.3,0,0.6-0.3,0.6-0.6c0-0.3-0.3-0.6-0.6-0.6C133.2,77.5,133,77.8,133,78.1z
			 M116.6,61c-0.3,0-0.6,0.3-0.6,0.6c0,0.3,0.3,0.6,0.6,0.6c0.3,0,0.6-0.3,0.6-0.6C117.2,61.3,116.9,61,116.6,61z M117.8,62
			c-0.2,0.5-0.7,0.9-1.2,0.9c-0.7,0-1.3-0.6-1.3-1.2c0-0.7,0.6-1.2,1.3-1.2c0.6,0,1.1,0.4,1.2,0.9H134v15.7c0.5,0.2,0.9,0.6,0.9,1.2
			c0,0.7-0.6,1.2-1.3,1.2c-0.7,0-1.3-0.6-1.3-1.2c0-0.5,0.4-1,0.9-1.2V62L117.8,62L117.8,62z"/>
		<path class="st0" d="M71.6,81.2c0-0.3-0.3-0.6-0.6-0.6c-0.3,0-0.6,0.3-0.6,0.6c0,0.3,0.3,0.6,0.6,0.6
			C71.4,81.8,71.6,81.6,71.6,81.2z M92.9,98.1c0.3,0,0.6-0.3,0.6-0.6c0-0.3-0.3-0.6-0.6-0.6c-0.3,0-0.6,0.3-0.6,0.6
			C92.3,97.8,92.6,98.1,92.9,98.1z M81.8,93.1l4.3,4.1h5.6c0.2-0.5,0.7-0.9,1.2-0.9c0.7,0,1.3,0.6,1.3,1.2c0,0.7-0.6,1.2-1.3,1.2
			c-0.6,0-1.1-0.4-1.2-0.9h-5.6c0,0-4.3-4.1-4.3-4.1v0h-6.4c0,0-4.8-4.5-4.8-4.5h0v-6.9c-0.5-0.2-0.9-0.6-0.9-1.2
			c0-0.7,0.6-1.2,1.3-1.2c0.7,0,1.3,0.6,1.3,1.2c0,0.5-0.4,1-0.9,1.2v6.9h0l4,3.7L81.8,93.1L81.8,93.1z"/>
		<path class="st0" d="M102.8,92.4c-0.3,0-0.6,0.3-0.6,0.6c0,0.3,0.3,0.6,0.6,0.6c0.3,0,0.6-0.3,0.6-0.6
			C103.4,92.7,103.1,92.4,102.8,92.4z M129.2,80.9c0-0.3-0.3-0.6-0.6-0.6c-0.3,0-0.6,0.3-0.6,0.6c0,0.3,0.3,0.6,0.6,0.6
			C128.9,81.4,129.2,81.2,129.2,80.9z M116.5,86h11.7v-4c-0.5-0.2-0.9-0.6-0.9-1.2c0-0.7,0.6-1.2,1.3-1.2c0.7,0,1.3,0.6,1.3,1.2
			c0,0.6-0.4,1-0.9,1.2v4.8h-12.5v0l-7,6.6c0,0-5.5,0-5.5,0c-0.2,0.5-0.7,0.9-1.2,0.9c-0.7,0-1.3-0.6-1.3-1.2c0-0.7,0.6-1.2,1.3-1.2
			c0.6,0,1.1,0.4,1.2,0.9h5.5L116.5,86L116.5,86z"/>
		<path class="st0" d="M171,120.2c0.3,0,0.6-0.3,0.6-0.6c0-0.3-0.3-0.6-0.6-0.6c-0.3,0-0.6,0.3-0.6,0.6
			C170.4,119.9,170.6,120.2,171,120.2z M162,119.2h7.8c0.2-0.5,0.7-0.9,1.2-0.9c0.7,0,1.3,0.6,1.3,1.2c0,0.7-0.6,1.2-1.3,1.2
			c-0.6,0-1.1-0.4-1.2-0.9h-6.9v2H162L162,119.2L162,119.2z"/>
		<path class="st0" d="M175.8,120.2c0.3,0,0.6-0.3,0.6-0.6c0-0.3-0.3-0.6-0.6-0.6c-0.3,0-0.6,0.3-0.6,0.6
			C175.2,119.9,175.5,120.2,175.8,120.2z M186.5,130.3c0.3,0,0.6-0.3,0.6-0.6c0-0.3-0.3-0.6-0.6-0.6c-0.3,0-0.6,0.3-0.6,0.6
			C185.9,130.1,186.2,130.3,186.5,130.3z M175.8,118.4c0.7,0,1.3,0.6,1.3,1.2c0,0.2-0.1,0.5-0.2,0.7l8.9,8.5
			c0.2-0.1,0.4-0.2,0.7-0.2c0.7,0,1.3,0.6,1.3,1.2c0,0.7-0.6,1.2-1.3,1.2c-0.7,0-1.3-0.6-1.3-1.2c0-0.3,0.1-0.5,0.2-0.7l-8.9-8.4
			c-0.2,0.1-0.4,0.2-0.7,0.2c-0.7,0-1.3-0.6-1.3-1.2C174.5,118.9,175.1,118.4,175.8,118.4L175.8,118.4z"/>
		<path class="st0" d="M185.6,101.4c0.3,0,0.6-0.3,0.6-0.6c0-0.3-0.3-0.6-0.6-0.6c-0.3,0-0.6,0.3-0.6,0.6
			C185,101.1,185.3,101.4,185.6,101.4z M185,109.6c0,0.3,0.3,0.6,0.6,0.6c0.3,0,0.6-0.3,0.6-0.6c0-0.3-0.3-0.6-0.6-0.6
			C185.3,109.1,185,109.3,185,109.6z M185,123.1c0,0.3,0.3,0.6,0.6,0.6c0.3,0,0.6-0.3,0.6-0.6c0-0.3-0.3-0.6-0.6-0.6
			C185.3,122.6,185,122.8,185,123.1z M184.3,100.8c0-0.7,0.6-1.2,1.3-1.2c0.7,0,1.3,0.6,1.3,1.2c0,0.5-0.4,1-0.9,1.2v6.5
			c0.5,0.2,0.9,0.6,0.9,1.2s-0.4,1-0.9,1.2V122c0.5,0.2,0.9,0.6,0.9,1.2c0,0.7-0.6,1.2-1.3,1.2c-0.7,0-1.3-0.6-1.3-1.2
			c0-0.5,0.4-1,0.9-1.2v-11.2c-0.5-0.2-0.9-0.6-0.9-1.2s0.4-1,0.9-1.2V102C184.7,101.8,184.3,101.3,184.3,100.8z"/>
		<path class="st0" d="M200.2,37.7c-0.3,0-0.6,0.3-0.6,0.6c0,0.3,0.3,0.6,0.6,0.6c0.3,0,0.6-0.3,0.6-0.6
			C200.9,38,200.6,37.7,200.2,37.7z M200.2,39.5c-0.7,0-1.3-0.6-1.3-1.2c0-0.5,0.4-1,0.9-1.2v-7.4h0.8v7.4c0.5,0.2,0.9,0.6,0.9,1.2
			C201.6,39,201,39.5,200.2,39.5L200.2,39.5z"/>
		<path class="st0" d="M181.1,120.2c0.3,0,0.6-0.3,0.6-0.6c0-0.3-0.3-0.6-0.6-0.6c-0.3,0-0.6,0.3-0.6,0.6
			C180.5,119.9,180.8,120.2,181.1,120.2z M181.1,118.4c0.7,0,1.3,0.6,1.3,1.2c0,0.7-0.6,1.2-1.3,1.2c-0.7,0-1.3-0.6-1.3-1.2
			C179.8,118.9,180.4,118.4,181.1,118.4z"/>
		<path class="st0" d="M181.1,100.2c-0.3,0-0.6,0.3-0.6,0.6c0,0.3,0.3,0.6,0.6,0.6c0.3,0,0.6-0.3,0.6-0.6
			C181.7,100.5,181.4,100.2,181.1,100.2z M180.5,114.7c0,0.3,0.3,0.6,0.6,0.6c0.3,0,0.6-0.3,0.6-0.6c0-0.3-0.3-0.6-0.6-0.6
			C180.8,114.1,180.5,114.3,180.5,114.7z M181.5,102v11.5c0.5,0.2,0.9,0.6,0.9,1.2c0,0.7-0.6,1.2-1.3,1.2c-0.7,0-1.3-0.6-1.3-1.2
			c0-0.6,0.4-1,0.9-1.2V102c-0.5-0.2-0.9-0.6-0.9-1.2c0-0.7,0.6-1.2,1.3-1.2c0.7,0,1.3,0.6,1.3,1.2C182.4,101.3,182,101.8,181.5,102
			L181.5,102z"/>
		<path class="st0" d="M180.5,64.2c0,0.3,0.3,0.6,0.6,0.6c0.3,0,0.6-0.3,0.6-0.6c0-0.3-0.3-0.6-0.6-0.6
			C180.8,63.6,180.5,63.9,180.5,64.2z M180.7,21.1l-3.8-3.6h0.8l3.8,3.6v42c0.5,0.2,0.9,0.6,0.9,1.2c0,0.7-0.6,1.2-1.3,1.2
			c-0.7,0-1.3-0.6-1.3-1.2c0-0.5,0.4-1,0.9-1.2L180.7,21.1L180.7,21.1L180.7,21.1z"/>
		<path class="st0" d="M186.3,15.9c-0.3,0-0.6,0.3-0.6,0.6c0,0.3,0.3,0.6,0.6,0.6c0.3,0,0.6-0.3,0.6-0.6
			C186.9,16.2,186.7,15.9,186.3,15.9z M186.3,17.7c-0.7,0-1.3-0.6-1.3-1.2c0-0.7,0.6-1.2,1.3-1.2c0.7,0,1.3,0.6,1.3,1.2
			c0,0.3-0.1,0.5-0.2,0.7l13.2,12.5h-0.8L187,17.6C186.8,17.7,186.6,17.7,186.3,17.7z"/>
		<path class="st0" d="M226.1,42c0.3,0,0.6-0.3,0.6-0.6c0-0.3-0.3-0.6-0.6-0.6c-0.3,0-0.6,0.3-0.6,0.6C225.5,41.7,225.8,42,226.1,42
			z M217,40.8c-0.3,0-0.6,0.3-0.6,0.6c0,0.3,0.3,0.6,0.6,0.6c0.3,0,0.6-0.3,0.6-0.6C217.6,41.1,217.3,40.8,217,40.8z M217,42.6
			c-0.7,0-1.3-0.6-1.3-1.2c0-0.7,0.6-1.2,1.3-1.2c0.6,0,1.1,0.4,1.2,0.9h6.7c0.2-0.5,0.7-0.9,1.2-0.9c0.7,0,1.3,0.6,1.3,1.2
			c0,0.7-0.6,1.2-1.3,1.2c-0.6,0-1.1-0.4-1.2-0.9h-6.7C218,42.3,217.6,42.6,217,42.6L217,42.6z"/>
		<path class="st0" d="M195.3,46.5c0.3,0,0.6-0.3,0.6-0.6c0-0.3-0.3-0.6-0.6-0.6c-0.3,0-0.6,0.3-0.6,0.6
			C194.7,46.2,195,46.5,195.3,46.5z M194.7,64.2c0,0.3,0.3,0.6,0.6,0.6c0.3,0,0.6-0.3,0.6-0.6c0-0.3-0.3-0.6-0.6-0.6
			C195,63.6,194.7,63.9,194.7,64.2z M212.4,46.5c0.3,0,0.6-0.3,0.6-0.6c0-0.3-0.3-0.6-0.6-0.6c-0.3,0-0.6,0.3-0.6,0.6
			C211.8,46.2,212.1,46.5,212.4,46.5z M221.6,46.5c0.3,0,0.6-0.3,0.6-0.6c0-0.3-0.3-0.6-0.6-0.6c-0.3,0-0.6,0.3-0.6,0.6
			C220.9,46.2,221.2,46.5,221.6,46.5z M194,45.9c0-0.7,0.6-1.2,1.3-1.2c0.6,0,1.1,0.4,1.2,0.9h14.6c0.2-0.5,0.7-0.9,1.2-0.9
			c0.6,0,1.1,0.4,1.2,0.9h6.7c0.2-0.5,0.7-0.9,1.2-0.9c0.7,0,1.3,0.6,1.3,1.2c0,0.7-0.6,1.2-1.3,1.2c-0.6,0-1.1-0.4-1.2-0.9h-6.7
			c-0.2,0.5-0.7,0.9-1.2,0.9c-0.6,0-1.1-0.4-1.2-0.9h-14.6c-0.1,0.4-0.4,0.7-0.8,0.8v16c0.5,0.2,0.9,0.6,0.9,1.2
			c0,0.7-0.6,1.2-1.3,1.2c-0.7,0-1.3-0.6-1.3-1.2c0-0.5,0.4-1,0.9-1.2V47C194.4,46.9,194,46.4,194,45.9L194,45.9z"/>
		<path class="st0" d="M209.6,69.7c0.3,0,0.6-0.3,0.6-0.6c0-0.3-0.3-0.6-0.6-0.6c-0.3,0-0.6,0.3-0.6,0.6
			C209,69.4,209.3,69.7,209.6,69.7z M209.6,67.9c0.6,0,1.1,0.4,1.2,0.9h4.3c0,0,9.6,9.1,9.6,9.1v0.7l-9.6-9h-4.3
			c-0.2,0.5-0.7,0.9-1.2,0.9c-0.7,0-1.3-0.6-1.3-1.2C208.3,68.4,208.9,67.9,209.6,67.9L209.6,67.9z"/>
		<path class="st0" d="M188.1,11.2c-0.3,0-0.6,0.3-0.6,0.6c0,0.3,0.3,0.6,0.6,0.6c0.3,0,0.6-0.3,0.6-0.6
			C188.7,11.4,188.4,11.2,188.1,11.2z M188.1,13c-0.7,0-1.3-0.6-1.3-1.2c0-0.7,0.6-1.2,1.3-1.2c0.7,0,1.3,0.6,1.3,1.2
			c0,0.3-0.1,0.5-0.2,0.7l16.9,16h-0.8l-16.5-15.6C188.5,12.9,188.3,13,188.1,13L188.1,13z"/>
		<path class="st0" d="M205,38.3c0,0.3,0.3,0.6,0.6,0.6c0.3,0,0.6-0.3,0.6-0.6c0-0.3-0.3-0.6-0.6-0.6C205.3,37.7,205,38,205,38.3z
			 M206.1,28.4v8.7c0.5,0.2,0.9,0.6,0.9,1.2c0,0.7-0.6,1.2-1.3,1.2c-0.7,0-1.3-0.6-1.3-1.2c0-0.5,0.4-1,0.9-1.2v-8.7L206.1,28.4
			L206.1,28.4z"/>
		<path class="st0" d="M178.3,127.2c0.3,0,0.6-0.3,0.6-0.6c0-0.3-0.3-0.6-0.6-0.6c-0.3,0-0.6,0.3-0.6,0.6
			C177.7,126.9,178,127.2,178.3,127.2z M186.5,134.8c0.3,0,0.6-0.3,0.6-0.6s-0.3-0.6-0.6-0.6c-0.1,0-0.2,0-0.3,0.1l0,0h0
			c-0.2,0.1-0.3,0.3-0.3,0.5C185.9,134.6,186.2,134.8,186.5,134.8L186.5,134.8z M178.3,125.4c0.7,0,1.3,0.6,1.3,1.2
			c0,0.2-0.1,0.5-0.2,0.6l6.4,6c0.2-0.1,0.5-0.2,0.8-0.2c0.7,0,1.3,0.6,1.3,1.2c0,0.7-0.6,1.2-1.3,1.2c-0.7,0-1.3-0.6-1.3-1.2
			c0-0.2,0.1-0.4,0.2-0.6l-6.4-6c-0.2,0.1-0.5,0.2-0.7,0.2c-0.7,0-1.3-0.6-1.3-1.2C177,125.9,177.6,125.4,178.3,125.4L178.3,125.4z"
			/>
		<path class="st0" d="M99.7,21.8c0.3,0,0.6-0.3,0.6-0.6c0-0.3-0.3-0.6-0.6-0.6c-0.3,0-0.6,0.3-0.6,0.6
			C99.1,21.5,99.4,21.8,99.7,21.8z M98.5,20.8c0.2-0.5,0.7-0.9,1.2-0.9c0.7,0,1.3,0.6,1.3,1.2c0,0.7-0.6,1.2-1.3,1.2
			c-0.6,0-1.1-0.4-1.2-0.9H83.1v0l-6.9,6.6h-0.8l7.7-7.3v0L98.5,20.8L98.5,20.8z"/>
		<path class="st0" d="M171.5,100.6c-0.1-0.2-0.3-0.3-0.6-0.3c-0.1,0-0.3,0.1-0.4,0.1c-0.1,0.1-0.2,0.3-0.2,0.4
			c0,0.2,0.1,0.4,0.3,0.5c0.1,0.1,0.2,0.1,0.3,0.1c0.2,0,0.4-0.1,0.5-0.3c0.1-0.1,0.1-0.2,0.1-0.3
			C171.6,100.7,171.6,100.6,171.5,100.6L171.5,100.6z M170.4,114.7c0,0.3,0.3,0.6,0.6,0.6c0.3,0,0.6-0.3,0.6-0.6
			c0-0.3-0.3-0.6-0.6-0.6C170.6,114.1,170.4,114.3,170.4,114.7z M172.3,100.8c0,0.5-0.4,1-0.9,1.2c0,0,0,0-0.1,0v11.5
			c0.5,0.2,0.9,0.6,0.9,1.2c0,0.7-0.6,1.2-1.3,1.2c-0.7,0-1.3-0.6-1.3-1.2c0-0.6,0.4-1,0.9-1.2V102c-0.4-0.1-0.7-0.4-0.8-0.8
			c0,0,0-0.1,0-0.1c0,0,0,0,0,0c0-0.1,0-0.1,0-0.2c0-0.3,0.1-0.6,0.3-0.8c0.2-0.3,0.6-0.4,1-0.4c0.6,0,1.1,0.4,1.2,0.9
			C172.3,100.5,172.3,100.7,172.3,100.8C172.3,100.8,172.3,100.8,172.3,100.8L172.3,100.8z"/>
		<path class="st0" d="M175.8,101.4c0.3,0,0.6-0.3,0.6-0.6c0-0.3-0.3-0.6-0.6-0.6c-0.3,0-0.6,0.3-0.6,0.6
			C175.2,101.1,175.5,101.4,175.8,101.4z M175.2,114.7c0,0.3,0.3,0.6,0.6,0.6c0.3,0,0.6-0.3,0.6-0.6c0-0.3-0.3-0.6-0.6-0.6
			C175.5,114.1,175.2,114.3,175.2,114.7z M174.5,100.8c0-0.7,0.6-1.2,1.3-1.2c0.7,0,1.3,0.6,1.3,1.2c0,0.5-0.4,1-0.9,1.2v11.5
			c0.5,0.2,0.9,0.6,0.9,1.2c0,0.7-0.6,1.2-1.3,1.2c-0.7,0-1.3-0.6-1.3-1.2c0-0.6,0.4-1,0.9-1.2V102
			C174.9,101.8,174.5,101.3,174.5,100.8L174.5,100.8z"/>
		<path class="st0" d="M156,80.9c0.3,0,0.6-0.3,0.6-0.6c0-0.3-0.3-0.6-0.6-0.6c-0.3,0-0.6,0.3-0.6,0.6
			C155.4,80.6,155.6,80.9,156,80.9z M171,87.5c0.3,0,0.6-0.3,0.6-0.6c0-0.3-0.3-0.6-0.6-0.6c-0.3,0-0.6,0.3-0.6,0.6
			C170.4,87.2,170.6,87.5,171,87.5z M156,79.1c0.6,0,1.1,0.4,1.2,0.9h1.8l7,6.6h3.7c0.2-0.5,0.7-0.9,1.2-0.9c0.7,0,1.3,0.6,1.3,1.2
			s-0.6,1.2-1.3,1.2c-0.6,0-1.1-0.4-1.2-0.9H166v0l-7-6.6h-1.8c-0.2,0.5-0.7,0.9-1.2,0.9c-0.7,0-1.3-0.6-1.3-1.2
			C154.7,79.6,155.3,79.1,156,79.1L156,79.1z"/>
		<path class="st0" d="M112.4,66.1c0-0.3-0.3-0.6-0.6-0.6c-0.3,0-0.6,0.3-0.6,0.6c0,0.3,0.3,0.6,0.6,0.6
			C112.2,66.7,112.4,66.4,112.4,66.1z M123.1,81.4c0.3,0,0.6-0.3,0.6-0.6c0-0.3-0.3-0.6-0.6-0.6c-0.3,0-0.6,0.3-0.6,0.6
			C122.5,81.2,122.8,81.4,123.1,81.4z M121.9,80.5c0.2-0.5,0.7-0.9,1.2-0.9c0.7,0,1.3,0.6,1.3,1.2c0,0.7-0.6,1.2-1.3,1.2
			c-0.6,0-1.1-0.4-1.2-0.9h-10.5v-14c-0.5-0.2-0.9-0.6-0.9-1.2c0-0.7,0.6-1.2,1.3-1.2c0.7,0,1.3,0.6,1.3,1.2c0,0.6-0.4,1-0.9,1.2
			v13.2L121.9,80.5L121.9,80.5z"/>
		<path class="st0" d="M107.1,66.7c0.3,0,0.6-0.3,0.6-0.6c0-0.3-0.3-0.6-0.6-0.6c-0.3,0-0.6,0.3-0.6,0.6
			C106.5,66.4,106.7,66.7,107.1,66.7z M80.3,84.4c-0.3,0-0.6,0.3-0.6,0.6s0.3,0.6,0.6,0.6c0.3,0,0.6-0.3,0.6-0.6
			S80.6,84.4,80.3,84.4z M105.8,66.1c0-0.7,0.6-1.2,1.3-1.2c0.7,0,1.3,0.6,1.3,1.2c0,0.6-0.4,1-0.9,1.2v4.7L93.2,85.4
			c0,0-11.7,0-11.7,0c-0.2,0.5-0.7,0.9-1.2,0.9c-0.7,0-1.3-0.6-1.3-1.2c0-0.7,0.6-1.2,1.3-1.2c0.6,0,1.1,0.4,1.2,0.9h11.7v0
			l13.4-12.7v-4.7C106.1,67.1,105.8,66.7,105.8,66.1L105.8,66.1z"/>
		<path class="st0" d="M107.1,88.1c-0.3,0-0.6,0.3-0.6,0.6c0,0.3,0.3,0.6,0.6,0.6c0.3,0,0.6-0.3,0.6-0.6
			C107.7,88.3,107.4,88.1,107.1,88.1z M107.7,78.1c0-0.3-0.3-0.6-0.6-0.6c-0.3,0-0.6,0.3-0.6,0.6c0,0.3,0.3,0.6,0.6,0.6
			C107.4,78.7,107.7,78.5,107.7,78.1z M108.4,88.6c0,0.7-0.6,1.2-1.3,1.2s-1.3-0.6-1.3-1.2c0-0.5,0.4-1,0.9-1.2v-8.2
			c-0.5-0.2-0.9-0.6-0.9-1.2c0-0.7,0.6-1.2,1.3-1.2c0.7,0,1.3,0.6,1.3,1.2c0,0.5-0.4,1-0.9,1.2v8.2C108,87.6,108.4,88.1,108.4,88.6z
			"/>
		<path class="st0" d="M116.6,56.5c-0.3,0-0.6,0.3-0.6,0.6c0,0.3,0.3,0.6,0.6,0.6c0.3,0,0.6-0.3,0.6-0.6
			C117.2,56.8,116.9,56.5,116.6,56.5z M171,78.3c0.3,0,0.6-0.3,0.6-0.6c0-0.3-0.3-0.6-0.6-0.6c-0.3,0-0.6,0.3-0.6,0.6
			C170.4,78.1,170.6,78.3,171,78.3z M169.7,77.4c0.2-0.5,0.7-0.9,1.2-0.9c0.7,0,1.3,0.6,1.3,1.2c0,0.7-0.6,1.2-1.3,1.2
			c-0.6,0-1.1-0.4-1.2-0.9H166l-7-6.6h-19.1v-8.5c0,0-5.9-5.6-5.9-5.6h-16.1c-0.2,0.5-0.7,0.9-1.2,0.9c-0.7,0-1.3-0.6-1.3-1.2
			c0-0.7,0.6-1.2,1.3-1.2c0.6,0,1.1,0.4,1.2,0.9H134l6.7,6.4h0v7.7H159l7,6.6v0L169.7,77.4L169.7,77.4z"/>
		<path class="st0" d="M162.2,131.1c0.3,0,0.6-0.3,0.6-0.6c0-0.3-0.3-0.6-0.6-0.6c-0.1,0-0.1,0-0.2,0l0,0h-0.1
			c-0.2,0.1-0.4,0.3-0.4,0.5C161.6,130.9,161.8,131.1,162.2,131.1z M153.6,121.9c-0.3,0-0.6,0.3-0.6,0.6c0,0.3,0.3,0.6,0.6,0.6
			c0.3,0,0.6-0.3,0.6-0.6C154.2,122.1,153.9,121.9,153.6,121.9z M153.6,123.7c-0.7,0-1.3-0.6-1.3-1.2c0-0.7,0.6-1.2,1.3-1.2
			c0.7,0,1.3,0.6,1.3,1.2c0,0.3-0.1,0.5-0.2,0.7l6.8,6.4c0.2-0.1,0.5-0.2,0.7-0.2c0.7,0,1.3,0.6,1.3,1.2c0,0.7-0.6,1.2-1.3,1.2
			c-0.7,0-1.3-0.6-1.3-1.2c0-0.2,0.1-0.4,0.2-0.6l-6.8-6.4C154.1,123.6,153.8,123.7,153.6,123.7L153.6,123.7z"/>
		<path class="st0" d="M148.4,118.3c0.3,0,0.6-0.3,0.6-0.6c0-0.3-0.3-0.6-0.6-0.6c-0.3,0-0.6,0.3-0.6,0.6
			C147.8,118,148,118.3,148.4,118.3z M155.1,138.2c0,0.3,0.3,0.6,0.6,0.6c0.3,0,0.6-0.3,0.6-0.6s-0.3-0.6-0.6-0.6
			C155.4,137.6,155.1,137.9,155.1,138.2z M148.4,116.5c0.7,0,1.3,0.6,1.3,1.2c0,0.6-0.4,1-0.9,1.2v5.3h0l7.4,7v5.9
			c0.5,0.2,0.9,0.6,0.9,1.2c0,0.7-0.6,1.2-1.3,1.2c-0.7,0-1.3-0.6-1.3-1.2c0-0.5,0.4-1,0.9-1.2v-5.9l-7.3-7v-5.3
			c-0.5-0.2-0.9-0.6-0.9-1.2C147.1,117,147.6,116.5,148.4,116.5L148.4,116.5z"/>
		<path class="st0" d="M209.6,73.1c-0.3,0-0.6,0.3-0.6,0.6c0,0.3,0.3,0.6,0.6,0.6c0.3,0,0.6-0.3,0.6-0.6
			C210.2,73.3,210,73.1,209.6,73.1z M210.9,74c-0.2,0.5-0.7,0.9-1.2,0.9c-0.7,0-1.3-0.6-1.3-1.2c0-0.7,0.6-1.2,1.3-1.2
			c0.6,0,1.1,0.4,1.2,0.9h4.3l9.6,9.1v0.7l-9.6-9C215.1,74,210.9,74,210.9,74L210.9,74z"/>
		<path class="st0" d="M162.8,107.3c-0.3,0-0.6,0.3-0.6,0.6c0,0.3,0.3,0.6,0.6,0.6c0.3,0,0.6-0.3,0.6-0.6
			C163.4,107.5,163.1,107.3,162.8,107.3z M157.1,117.1c-0.3,0-0.6,0.3-0.6,0.6c0,0.3,0.3,0.6,0.6,0.6c0.3,0,0.6-0.3,0.6-0.6
			C157.7,117.4,157.5,117.1,157.1,117.1z M163.2,109v9h-4.8c-0.2,0.5-0.7,0.9-1.2,0.9c-0.7,0-1.3-0.6-1.3-1.2c0-0.7,0.6-1.2,1.3-1.2
			c0.6,0,1.1,0.4,1.2,0.9h4V109c-0.5-0.2-0.9-0.6-0.9-1.2c0-0.7,0.6-1.2,1.3-1.2c0.7,0,1.3,0.6,1.3,1.2
			C164.1,108.4,163.7,108.9,163.2,109L163.2,109z"/>
		<path class="st0" d="M146.7,111.8c0.3,0,0.6-0.3,0.6-0.6c0-0.3-0.3-0.6-0.6-0.6c-0.3,0-0.6,0.3-0.6,0.6
			C146.1,111.5,146.4,111.8,146.7,111.8z M157.8,111.8c0.3,0,0.6-0.3,0.6-0.6c0-0.3-0.3-0.6-0.6-0.6c-0.3,0-0.6,0.3-0.6,0.6
			C157.2,111.5,157.5,111.8,157.8,111.8z M146.7,109.9c0.6,0,1.1,0.4,1.2,0.9h8.6c0.2-0.5,0.7-0.9,1.2-0.9c0.7,0,1.3,0.6,1.3,1.2
			c0,0.7-0.6,1.2-1.3,1.2c-0.6,0-1.1-0.4-1.2-0.9H148c-0.2,0.5-0.7,0.9-1.2,0.9c-0.7,0-1.3-0.6-1.3-1.2
			C145.4,110.5,146,109.9,146.7,109.9z"/>
		<path class="st0" d="M162.8,100.2c-0.3,0-0.6,0.3-0.6,0.6c0,0.3,0.3,0.6,0.6,0.6c0.3,0,0.6-0.3,0.6-0.6
			C163.4,100.5,163.1,100.2,162.8,100.2z M140.8,122.2c0,0.3,0.3,0.6,0.6,0.6c0.3,0,0.6-0.3,0.6-0.6c0-0.3-0.3-0.6-0.6-0.6
			C141.1,121.7,140.8,121.9,140.8,122.2z M162.8,102c-0.6,0-1.1-0.4-1.2-0.9h-11.9v0l-7.8,7.4c0,0,0,12.5,0,12.5
			c0.5,0.2,0.9,0.6,0.9,1.2c0,0.7-0.6,1.2-1.3,1.2c-0.7,0-1.3-0.6-1.3-1.2c0-0.5,0.4-1,0.9-1.2v-12.5l8.6-8.2h11.9
			c0.2-0.5,0.7-0.9,1.2-0.9c0.7,0,1.3,0.6,1.3,1.2C164.1,101.5,163.5,102,162.8,102L162.8,102z"/>
	</g>
</g>
</svg>
