<?xml version="1.0" encoding="UTF-8"?>
<!DOCTYPE svg PUBLIC "-//W3C//DTD SVG 1.1//EN" "http://www.w3.org/Graphics/SVG/1.1/DTD/svg11.dtd">
<!-- Creator: CorelDRAW 2018 (64-Bit) -->
<svg xmlns="http://www.w3.org/2000/svg" xml:space="preserve" width="84mm" height="53mm" version="1.1" style="shape-rendering:geometricPrecision; text-rendering:geometricPrecision; image-rendering:optimizeQuality; fill-rule:evenodd; clip-rule:evenodd"
viewBox="0 0 8400 5300"
 xmlns:xlink="http://www.w3.org/1999/xlink"
 xmlns:xodm="http://www.corel.com/coreldraw/odm/2003">
 <defs>
  <style type="text/css">
   <![CDATA[
    .fil0 {fill:#2B2A29}
    .fil1 {fill:black}
   ]]>
  </style>
 </defs>
 <g id="Слой_x0020_1">
  <metadata id="CorelCorpID_0Corel-Layer"/>
  <g id="_1833148928016">
   <g>
    <path class="fil0" d="M7832.73 1989.46c4.71,0.25 3.81,-1.13 3.81,3.04 -18.39,2.7 -83.85,43.12 -99.83,53.75 -49.98,33.27 -83.65,63.66 -126.11,103.12 -11.05,10.27 -23.97,28.14 -34.06,41.28 -73.38,95.61 -116.49,195.31 -136.68,321.75 -6.89,43.13 -12.11,96.62 -8.06,141.63 5.49,61.3 20.96,91.04 25.37,125.75l-9.55 2.21c-5.31,-15.85 -12.09,-32.06 -17.47,-49.48 -41.7,-135.07 -60.41,-262.97 -13.21,-401.63 22.62,-67.2 59.63,-131.18 105.58,-179.8 13.35,-14.11 35.47,-30.09 52.88,-41.75 68.34,-45.88 162.97,-97.79 257.33,-119.87zm-52.92 1196.77c-4.37,4.55 -5.49,13.17 1.71,17.11 1.38,-7.03 3.13,-12.4 -1.71,-17.11zm-887.82 -99.41c-2.04,-6.44 -0.42,-5.06 -5.1,-9.65 -2.32,4.25 -1,8.6 1.68,13.35l8.6 51.1c-6.01,-2.98 -6.43,-5.23 -11.23,-10.94l-51.35 -51.22c-6.79,-5.76 -15.06,-12.49 -21.29,-18.21 -2.68,-3.33 -2.81,-3.37 -6.71,-5.29 2.28,5.77 0.5,3.71 4.86,7.59l43.97 60.05c-15.15,-4.23 -29.85,-12.73 -49.08,-11.39l-6.07 24.18c-23.03,-1.44 -66.27,-15.85 -77.78,-28.9 4.86,-5.47 30.53,-17.78 39.1,-22.62 -4.68,-11.28 -7.92,-15.09 -10.89,-30.48 -5.13,-26.79 -8.18,-85.63 -9.52,-113.03 31.02,9.82 72.16,38.69 94.41,60.1 8.64,-3.94 13.72,-13.93 22.44,-17.6 11.99,9.16 27.15,24.34 37.05,35.09 5.42,5.86 30.14,35.82 33.7,37.42l17.42 -29.25c9.34,6.73 22.49,60.42 23.75,69 -3.26,2.57 -10.44,9.5 -14.12,11.23 -8.44,-8.42 -7.15,-29.35 -14.35,-39.03 -1.36,33.76 8.48,41.42 6.72,49 -1.98,8.54 -7.33,14.84 -10.08,32.91l-3.13 12.55c-7.85,-6.08 -38.29,-63.67 -43,-75.96zm1028.45 1118.26c-40.14,1.17 -188.01,-35.2 -212.44,-53.94 64.43,-25.16 192.61,-47.61 268.46,-47.61 -4.29,5.68 -16.11,11.64 -22.93,17.5 -27.94,23.97 -28.93,51.66 -33.09,84.05zm-241.5 -148.75c24.85,-15.55 119.94,-37.88 152.92,-43.9 73.22,-13.39 126.57,-16.86 198.27,-17.17l0 -14.52c-91.6,-0.92 -183.5,10.98 -278.25,36.8 -14.97,4.08 -66.57,22.7 -76,23.03l-15.62 -105.35c15.08,-3.44 56.88,-18.72 82.05,-25.36 97.06,-25.6 186.55,-40.05 287.82,-39.4l0 -13.1c-95.08,-0.65 -190.73,12.09 -291.24,39.39 -12.45,3.38 -76.25,24.74 -81.17,23.82l-11.84 -80.03c38.83,-21.52 125.87,-47.38 171.55,-57.71 70.64,-15.98 141.81,-23.3 212.7,-22.62l0 -23.73c-0.49,1.19 -1.04,2.11 -1.67,2.75 -21.06,21.33 -28.36,-43.11 -22.32,-49.55 3.39,-3.6 1.91,-1.64 6.66,0.31 6.25,2.53 0.52,1.63 9.13,1.9 3.72,0.11 6.38,0.11 8.2,0.74l0 -9.66c-15.96,4.66 -18.89,-14.75 -19.49,-25.84 -0.45,-8.67 -2.39,-26.92 -0.88,-34.55 9.02,-1.78 7.49,9.38 20.37,5.82l0 -10.49c-2.5,-0.26 -5.16,-1.1 -7.97,-2.69 -19.47,-10.97 -17.27,-67.15 -13.51,-75.22 12.27,0.09 9.96,11.94 21.48,12.64l0 -14.7c-20.19,-5.18 -19.23,-36.25 -20.6,-52.46 -1.96,-23.2 -7.63,-29.55 12.36,-39.73 2.7,3.47 5.45,5.43 8.24,6.71l0 -12.99c-5.88,-5.87 -7.59,-12.54 -8.24,-24.33 -1.26,-22.56 -0.67,-47.23 -6.01,-67.51l10.81 -12.33 3.44 1.01 0 -101.68 -2.48 2.88c-22.55,-1.64 -16.36,-37.75 -16.36,-69.29 0,-5.06 1.26,-7.85 2.47,-11.07 4.76,-0.5 11.71,1.6 16.37,4.29l0 -11.48c-11.57,-5.73 -9.82,-40.62 -10.62,-52.44 -1.04,-15.61 -3.49,-14.81 5.58,-23.86l5.04 3.12c0,-14.13 -1.85,-26.67 -2.38,-40.83 -0.32,-8.69 -6.17,-40.27 2.38,-44.84l0 -58.85c-0.65,-10.6 -1.21,-21.9 -0.25,-30.49l0.25 -0.05c0,-10.26 -0.97,-19.59 -0.97,-30.08 0,-7.85 -1.24,-55.33 0.97,-58.91l0 -41.87c-1.21,6.94 -2.47,13.71 -2.88,20.78 -0.9,15.53 -0.18,12.27 -3.76,14.57 -12.83,-7.72 9.5,-47.27 3.2,-56.41 -15.02,6.88 -7.05,50.56 -17.63,56.07 -10.81,-11.35 11.35,-43.63 4.5,-55.36 -14.63,3.99 -8.75,50.32 -18.93,54.89 -10.33,-9.79 9.86,-46.55 4.82,-54.41 -7.7,4.39 -9.14,17.45 -11.15,26.16 -5.01,21.85 0.12,26.96 -8.08,28.52 -4.84,-7.64 2.62,-32.53 5.74,-42.28 3.99,-12.58 2.39,-9.57 0.66,-12.02 -11.24,4.88 -8.54,42.03 -17.63,53.44 -7.99,-10.19 13.35,-42.45 4.8,-51.88 -10.34,7.15 -5.48,45.06 -16.24,49.5 -5.76,-12.11 14.5,-68.17 20.29,-79.11 4.63,-8.75 3.22,-9.11 14,-11.75 5.38,-1.32 4.84,-2.11 10.31,-1.59 5.4,0.51 3.73,2.47 11.01,0.65 4.91,-1.24 5.02,-3.31 8.84,-3.38 6.22,-0.13 1.76,1.87 8.13,2.66l0 -27.38c-29.72,41.47 -26.02,3.76 0,-7.88l0 -10.76c-13.06,3.2 -26.5,6.13 -40.25,7.32 -49.21,4.26 -100.87,-15.64 -97.94,-64.09 7.51,13.29 3.38,31.58 33.45,45.2 31.9,14.43 68.83,6.55 104.74,-0.24l0 -12.18c-52.52,10.24 -121.02,23.61 -128.11,-34.15 7,4.73 8.02,11.61 19.23,17.06 29.64,14.43 69.58,5.04 108.88,0.25l0 -6.17c-44.68,5.43 -92.77,16.88 -118.67,-13.17 -2.93,-3.39 -6.35,-5.96 -9.24,-10.01 -3.76,-5.31 -2.65,-7.75 -9.04,-10.72 -5.18,16.71 -12.21,27.26 -5.39,47.63 2.12,6.38 8.45,15.65 8.81,19.9 0.34,4.03 -1.51,7.63 -0.52,12.09 1.66,7.39 1.8,3.54 5.97,6.4l13.93 15.17c4.82,7.13 -0.79,2.47 7.72,6.46 4.43,2.09 5.65,4.23 8.69,5.89 8.15,4.39 31.29,11.78 42.09,14.16 -0.04,3.61 -13.01,29.38 -18.36,48.6 -3.07,11.06 -7.7,49.91 -11.94,55.78 0.82,10.63 -4.16,37.55 -5.62,50.23 -5.36,46.03 -11.23,104.87 -12.77,150.61 -2.54,74.52 -27.23,219.95 -125.94,199.54 -29.99,-6.19 -42.7,-28.9 -52.72,-56.14 -18.91,-51.44 -15.62,-76.6 -70.05,-120.8 -3.02,-2.45 -11.78,-9.52 -13.47,-12.71 -12.47,-5.02 -80.95,-73.52 -85.49,-84.73 -6.4,-2.95 -32.78,-42.34 -39.96,-53.76 -39.53,-63 -62.62,-129.09 -77.12,-206.67 -30.32,-162.09 6.84,-313.03 98.64,-447.57 27.74,-40.7 50.74,-68.68 87.73,-101.41l25.12 -22.97c31.17,-30.65 99.85,-75.92 139.18,-96.41l64.18 -29.35c6.8,-0.07 28.49,-7.72 35.75,-10.63 -3.27,-3.1 5.73,-1.75 -6.71,-2.36 -16.12,-0.79 -92.59,17.49 -106.21,21.36 -17.49,4.98 -34.33,10.42 -50.8,16.52 -13.96,5.16 -35.95,15.69 -48.25,18.73 -4.97,-11.64 -2.56,-4.92 -10.91,-12.56 2.09,-9.65 11.14,-26.83 12.15,-34.08 1.02,-7.52 -11.64,-23.57 -14.94,-30.05 9.54,-18.3 51.39,-56.45 50.82,-72.76l-13.48 -6.81c2.48,-9.33 21.66,-38.39 27.69,-48.7l13.64 -23.23c20.15,-34.46 18.37,-22.76 -38.52,-35.07 -8.32,-1.8 -15.8,-3.51 -24.31,-4.91 -8.03,-1.32 -19.65,-1.17 -27.08,-2.88 0,-33.9 1.33,-31.73 -16.27,-27.84 -10.43,2.29 -39.37,8.87 -46.64,8.75 -0.81,-7.78 -1.13,-15.96 -3.87,-21.9 -11.12,-3.02 -43.86,14.68 -55.77,18.6l-13.99 -22.11c-10.04,-0.29 -44.85,17.2 -75.78,22.45 -7.56,-11.46 -2.16,-13.71 -25.81,-3.22 -18.92,8.43 -39.33,15.1 -58.74,24.55l-28.56 16.06c-2.01,-5.41 -4.17,-11.38 -12.22,-7.52 -6.76,3.3 -31.95,28.63 -37.53,34.91 -27.78,31.34 -22.42,33.63 -38.6,56.41 -13.65,-19.34 -7.39,-18.28 -38.82,-3.96 -33.33,15.17 -92.17,64.36 -106.83,91.64 -9.88,-4.43 -8.12,-12.79 -18.41,-16.28 -7.81,2.8 -17.52,19.41 -23.03,26.43 -16.61,21.23 -27.08,38.67 -39.87,62.76 -1.55,2.88 -7.76,16.01 -8.64,17.02 -2.95,3.4 -11.78,3.92 -17.45,8.04 -2.29,8.84 -2.22,28.56 -2.92,38.91 -0.84,12.37 -9.1,20.35 -14.59,28.68 -7.43,11.24 -7.86,16.14 -23.23,19.92 -43.29,10.7 -34.31,1.65 -41.46,46.99 -2.59,16.38 -5.09,20.12 -10.74,33.65 -7.45,-3.98 -5.74,-7.65 -15.24,-8.56 -12.34,9.42 -37.77,83.81 -43.58,107.15 -9.14,-0.18 -16.61,-6.54 -24.38,-3.58 -4.86,9.55 -10.65,69 -10.65,84.06 -3.4,8.13 -2.12,-0.49 -5.25,5.99 -2.92,6.05 4.73,12.33 7.86,24.02 -7.07,-1.87 -24.44,-15.06 -26.38,-5.61 0.05,20.01 2.84,40.36 -6.71,58.93 -9.12,17.7 -20.05,20.4 -41.44,27.2 -0.5,19.83 19.42,24.83 4.34,44.64 -4.25,5.58 -5.01,5.13 -12.74,7.74 -2.05,14.36 -11.55,61.09 -9.03,72.3 -3.12,5.27 -4.54,23.12 -6.48,38.99 -4.36,34.8 -23.83,184.79 -18.7,204.33 5.8,21.95 21.22,39.91 32.26,56.95 -6.06,3.35 -3.2,-1.24 -5.41,4.77 0,54.98 -0.42,98.8 6.13,152.83 -9.35,3.56 -21.55,17.4 -26.36,25.1 1.79,6.71 7.18,10.24 12.42,13.77 -0.9,1.42 -2.21,3.31 -2.79,4.86 -3.85,10.74 22.67,51.89 20.6,70.11l-14.86 1.55c0.16,16.05 24.83,48.04 35.54,59.76 5.14,5.67 10.51,8.87 16.66,15.08 -1.94,17 -4.03,10.18 3.35,27.29 44.78,103.93 98.15,202.46 166.06,292.54 10.07,13.35 19.86,20.65 35.3,27.31 12.04,5.16 8.76,25.24 14.54,39.85 6.37,16.07 10.18,15.01 17.63,26.58l-7.59 16.05c3.97,5.09 12.43,8.69 17.74,12.99 5.54,4.52 11.19,10.01 14.66,15.76 14.83,24.56 -0.83,35.4 2.32,47.25 4.39,3.24 31.26,4.83 38.78,6.54 6.66,1.51 27.96,7.82 32.64,10.29 9.46,8.58 2.7,36.79 42.44,52.36 4.45,1.76 16,3.81 18.75,5.4 6.09,3.49 10.42,15.88 23.77,22.52 31.24,15.53 -1.89,29.64 -0.97,40.09 3.11,7.61 19.97,20.08 29.96,25.43 12.69,6.78 24.96,10.88 41.2,13.6 2.24,23.5 41.25,48.04 60.73,56.18 15.73,6.56 82.16,17.61 89.25,29.11 -4.59,2.7 -18.89,10.72 -21.5,16.77 3.56,7.93 22.81,21.57 32.38,27.02 26.44,15.08 56.38,26.31 87.87,28.18 25.22,1.51 31.45,-3.54 51.96,-7.83 3.78,40.22 0.76,35.63 33,34.26 9.14,-0.39 18.12,0.29 27.3,0.29 24.3,0.04 36.95,-5.32 44.98,-5.34l2.27 0.34 3.36 19.95c61.66,36.39 175.42,60.66 248.81,63.16 -1.71,-36.26 4.5,-58.37 23.32,-79.37 19.97,-22.29 45.25,-32.19 75.05,-30.93l0 -14.45c-94.36,-0.95 -189.15,9.22 -270.37,31.19l-68.39 21.8 -12.43 -86.67zm-303.12 -86.57c5.65,-7.75 41.68,-38.61 56.12,-39.85 11.66,11.1 15.57,25.35 41.66,33.41 6.73,2.07 15.71,2.38 19.47,4.84 -12.02,9.07 -41.51,8.68 -58.89,9.63 10.2,5.99 24.83,6.26 37.89,5.79 19.38,-0.66 20.69,-2.8 35.55,-7.72 9.25,23.21 41.46,32.84 76.03,28.06 49.37,-6.82 53.09,-32.16 70.22,-34.16l18.57 120.23c-15.38,14.18 -59.92,32.05 -86.78,36.01l4.36 -57.4c-10.44,3.94 -17.46,10.01 -30.41,14.32 -53.66,17.94 -122.23,-11.04 -128.8,-26.59 12.97,-5.45 23.68,-10.47 26.74,-24.04 -4.64,-3.26 -20.06,-6.87 -26.65,-10.08 -19.29,-9.39 -51.28,-37.48 -55.08,-52.45zm-79.02 -13.15c13.96,0.47 27.2,0.67 40.79,-0.65 9.86,-0.95 26.65,-5.21 34.15,-4.91 -24.47,32.78 -8.98,23.86 8.28,50.38 -37.18,2.7 -74.51,-19.16 -83.22,-44.82zm-49.16 -77.96c25.82,-1.1 20.21,-0.06 41.64,-7.44 18.62,18.56 32.33,16.23 35.48,24.82 -10.08,8.51 -33.49,8.15 -39.53,16.86 28.48,6.67 42.41,-8.8 59.77,-6.93 22.13,2.41 20.89,8.24 61.86,9.36 -20.46,27.2 -78.12,33.43 -116.92,24.61 -7.84,-1.76 -14.64,-4.97 -22,-6.76 -21.36,-5.2 -29.62,2.78 -41.84,-16.31 5.17,-6.91 7.65,-3.09 13.06,-16.57 3.71,-9.28 3.87,-13.69 8.48,-21.64zm371.43 13.06c-16.32,-6.24 -24.12,-9.2 -36.23,-18.35 -5.71,-4.32 -23.9,-21.76 -24.62,-27.32 25.93,-4.01 59.79,-3.51 77.89,10.73l9.88 64.2c-15.65,10.4 -39.13,21.37 -61.75,24.86 5.7,-19.02 24.61,-37.6 34.83,-54.12zm37.95 -68.48c-0.14,-7.25 4.19,-15.91 10.58,-17.74 4.9,2.91 5.63,4.49 5.72,10.38 -4.13,4.05 -10.34,7.52 -16.3,7.36zm-26.34 18.08c-5.47,-11.68 8.71,-42.88 14.48,-53.53 16.54,11.19 5.38,25.78 4.43,29.55 -2.45,9.53 -1.55,9.12 -8.46,13.72 -3.86,3.75 -7.73,9.04 -10.45,10.26zm48.53 -29.24c-16.63,-17.99 9.93,-29.9 22.54,-25.3 17.01,6.19 -2.14,29.03 -22.54,25.3zm32.24 -10.97c0.27,-7.29 6.21,-16.63 10.65,-21.24 6.66,0.87 12.78,7.69 13.35,15.8 -5.16,1.89 -17.92,6.71 -24,5.44zm-202.84 -65.79c7.27,-16.14 14.51,-26.45 35.56,-28.79 9.97,-1.11 19.34,0.83 27.49,4.91 9.27,4.63 11.18,8.68 17.38,13.3 26,-8.85 41.08,-11.14 64.94,3.76 12.74,7.97 29.47,27.75 27.33,51.46 -10.02,5.42 -9.97,6.8 -16.93,14.56 -8.2,-6.24 -9.52,-20.31 -22.44,-25.12 -7.9,16.54 -19.88,46.6 -21.88,64.83 -12.79,0.56 -25.2,-3.78 -42.15,-2.23 -14.13,1.28 -26.94,4.73 -41.51,5.29 1.81,3.26 10.81,13.39 13.98,17.2 36.59,44.14 37.35,30.86 49.32,43.13 -7.72,17.56 -27.16,43.45 -30.93,62.17 29.16,-0.58 73.23,-24.44 79.76,-24.85l3.06 23.46 -11.25 -0.38c-9.34,10.87 -12.38,17.39 -25.57,24.57 -36.58,19.88 -81.43,12.5 -103.28,-25.16 -35.71,-1.94 -57.99,-7.12 -67.17,-36.69 -4.75,-15.31 -3.74,-32.76 -0.9,-48.62 4.47,-24.75 3.6,-9.68 -11.33,-33.89 -14.52,-23.56 -16.92,-55.12 0.03,-78.31 16.31,-22.31 38.67,-30.1 76.49,-24.6zm326.47 30.32c0.38,-5.88 2.18,-9.43 5.65,-13.89 6.66,0.18 11.12,4.08 12.65,9.61 -4.69,3.51 -12.56,5.88 -18.3,4.28zm-106.1 6.95c3.6,-13.54 22.04,-23.13 38.84,-15.35 -0.84,5.23 -19.9,26.34 -24.88,31.05 -4.48,-3.45 -10.85,-10.72 -13.96,-15.7zm25.31 14.89c2.9,-11.55 24.04,-30.87 36.35,-32.29 -1.75,11.69 -2.21,-4.83 -7.65,24.52l-28.7 7.77zm145.26 -32.62c-3.69,2.16 -5.02,-0.27 -5.45,-0.41l5.45 0.41zm9.41 -2.35c-1.02,-8.08 5.19,-8.05 9.72,-5.17 -0.52,6.69 -2.75,8.3 -9.72,5.17zm-118.41 23.89c-1.57,-15.38 21.32,-34.53 41.35,-28.73 0.02,4.01 -2.3,9.42 -3.89,13.99 -2.07,6.1 -2.23,6.91 -8.9,8.87 -4.67,1.37 -23.97,6.43 -28.56,5.87zm204.64 -26.81c-1.21,-4.55 -0.49,-5.79 1.22,-8.83 7.43,-1.57 10.24,1.54 8.89,9.51l-10.11 -0.68zm-64.53 -2.55c-6.94,1.26 -7.93,2.39 -3.36,-2.87l3.36 2.87zm41.53 -10.13c7.94,0.59 16.54,4.89 15.75,14.01l-15.64 -0.93c-1.84,-5.31 -2.88,-7.07 -0.11,-13.08zm-75.37 0.41c0.65,6.87 0.84,6.44 -6.55,6.42 -1.12,-6.31 -0.02,-8.87 6.55,-6.42zm56.14 12.7c-3.42,-4.98 -4.95,-12.47 -3.89,-20.04 6.5,-0.22 16.14,11.23 14.9,20.26l-11.01 -0.22zm-38.67 -17.29c1.42,12.11 -11.98,9.84 -8.28,1.19 4.43,-2.88 3.98,-2 8.28,-1.19zm-60.58 22.02c-16.97,-21.26 -30.56,-8.51 -28.79,-22.24 6.83,-2.77 24.83,10.32 30.26,16 10.78,11.26 3.2,10.76 3.19,10.8l-4.66 -4.56zm74.11 -18.53l0.38 -5.58 -0.38 5.58zm7.7 1.06c-1.42,-5.18 -3.96,-8.35 -1.8,-13.91 12.29,-0.1 12.72,20.01 9.61,26.89 -8.55,-0.22 -5.34,-4.03 -7.81,-12.98zm-50.78 -6.37c1.59,-6.71 2.67,-5.9 8.35,-4.4 -0.07,5.95 -3.2,9.26 -8.35,4.4zm-46.78 -1.6c10.17,-8.6 31.13,10.56 32.35,24.45 -8.2,-1.83 -3.59,-0.43 -8.72,-6.85 -14.49,-18.16 -20.17,-7.88 -23.63,-17.6zm62.19 -1.64c0.23,-6.96 6.53,-12.32 11.06,-7.86 5.8,5.69 -4.24,9.18 -11.06,7.86zm19.21 -9.55c4.83,5.42 3.42,9.05 -0.28,5.09l0.28 -5.09zm-45.61 26.22c-5.87,-16.22 -17.99,-17.56 -24.92,-23.05 2.07,-8.35 16.39,-3.19 23.57,6.82 4.12,5.79 11.8,22.61 6.8,28.86 -4.03,-3.38 -3.69,-7.7 -5.45,-12.63zm4.57 -22.21c-1.73,-8.89 2.9,-11.71 9.18,-7.25l-0.16 5.18c-2.87,2.07 -3.87,3.1 -9.02,2.07zm16.99 -7.28c-4.74,-7.56 4.98,-13.07 12.14,-10.6 1.69,8.44 -5.14,13.58 -12.14,10.6zm-27.35 -4.79c-1.59,-11.95 11.85,-11.88 8.45,0.4 -3.67,0.97 -4.37,1.61 -8.45,-0.4zm48.13 -9.61c6.85,-0.11 7.21,0.81 6.53,7.99 -6.89,0.83 -9.93,-1.13 -6.53,-7.99zm-603.3 10.02c4.05,22.3 -22.13,28.45 -29.94,39.68 3.03,10.79 13.88,27.64 15.73,37.17 2.75,14.31 -4.01,29.57 -14.13,35.75 -2.41,-3.29 -8.31,-22.99 -8.92,-28.48 -1.44,-12.86 2.03,-20.74 4.28,-32.06 -24.06,3.7 -31.14,-6.75 -47.52,-15.58 7.25,-10.84 37.43,-18.32 54.9,-18.48 0,-5.87 -6.57,-15.78 -8.26,-23.84 -2.34,-11.34 -1.8,-20.55 -0.92,-31.92 13.21,5.02 32.01,22.47 34.78,37.76zm511.55 -12.7c3.6,6.32 2.21,7.16 -2.46,11.03 -19.44,16.07 -10.39,-10.06 2.46,-11.03zm-119.87 65.35c-4.21,-2.91 -23.82,-61.43 -25.37,-67.44 8.46,2.22 34.62,16.02 41.78,20.41 35.59,21.77 -4.66,55.18 -16.41,47.03zm181.53 -59.84c-0.68,-7.33 6.5,-13.52 13.34,-11.81 0.48,7.34 -5.08,13.5 -13.34,11.81zm79.21 -23.23c1.58,9.91 2.14,20.35 3.2,30.19 4.38,40.38 -16.82,24 -17.52,-37.01 5,1.33 10.7,4.21 14.32,6.82zm-33.95 6.85c1.58,7.34 6.65,20.93 2.46,27.23 -8.4,-3.35 -10.16,-29.14 -8.02,-32.88 4.69,0.83 3.42,-1.96 5.56,5.65zm-23.66 5.96c-3.13,-6.75 2.37,-10.29 10,-9.77 2.48,8.38 -1.69,13.01 -10,9.77zm-67.96 2.05c-2.38,-8.04 -0.45,-10.63 7.25,-10.08 0.72,5.98 -0.87,9.34 -7.25,10.08zm40.21 -0.16c-3.6,-8.96 2.75,-12.47 10.96,-12.06 -0.36,7.92 -3.82,11.72 -10.96,12.06zm93.94 -15.66c10.76,4.83 0.02,6.39 22.49,14.36 0.72,8.98 1.79,22.58 1.64,31.13 -0.21,11.82 -8.51,14.5 -15,5.33 -4.23,-5.98 -12.2,-44.11 -9.13,-50.82zm-147.76 11.88c-1.83,-6.84 -0.12,-12.74 7.88,-12.47 2.92,6.28 0.92,11.87 -7.88,12.47zm85.24 -27.69c3.15,4.03 4.48,5.79 0.7,10.47 -0.96,1.17 -7.11,6.3 -10.28,5.61 -8.83,-1.94 0.2,-15.72 9.58,-16.08zm-61.81 10.81c-4.91,3.55 -12.24,-0.32 -10.2,-6.8 3.33,-10.62 18.67,0.67 10.2,6.8zm79.98 -14.74c15.2,4.41 12.79,11.56 15.31,28.36 1.23,7.99 6.43,26.67 3.4,33.06 -7.28,-0.2 -6.58,-3.91 -8.33,-11.88 -3.04,-13.91 -10,-38.09 -10.38,-49.54zm-378.27 -15.06c12.66,-6.22 34.22,13.98 39.92,20.39 5.6,6.3 23.32,40.54 2.83,41.13 -28.09,0.88 -77.5,-44.46 -42.75,-61.52zm-75.95 14.56c15.49,-21.03 2.64,-22.65 40.2,-20.73 15.63,0.79 11.85,2.76 12.34,19.02 0.29,10.02 1.04,20.53 1.04,30.48 0,12.85 -20.1,13.46 -30.62,33.29l-32.8 -3.96c-4.79,-8.19 -4.05,-25.17 -4.14,-36.17 -10.31,9.47 -6.35,26.44 -6.71,38.91 -9,7.88 -24.26,16.06 -37.43,6.82 -6.86,-4.81 -23.55,-20.7 -29.2,-22.19 6.17,21.21 29.11,47.77 31.14,55.94 6.08,24.36 -36.7,14.4 -68.64,14.59 3.67,10.58 36.09,17.19 47.72,20.57 13.76,3.99 7.1,16.03 16.3,36.42 4.19,9.3 11.08,20.51 18.69,25.42l-8.02 42.84c-36.51,1.57 -70.73,-0.45 -101.3,-22.56 -5.47,-3.98 -15.41,-10.53 -17.44,-16.77 2.63,-4.57 26.99,-25.64 32.41,-30.26 -2.07,-5.19 -6.88,-8.37 -13.37,-17.1 -9.9,-13.22 -29.8,-44.82 -31.62,-60.06 6.61,-6.13 37.2,-19.79 45.33,-23.5 -2.23,-12.43 -19.9,-64.45 -18.07,-83.68 19.8,0.68 41.44,0.7 61.29,0.63 29.06,-0.13 26.83,15.42 39.33,19.45 0.85,-23.52 2.63,-24.21 24.81,-26.74 21.22,-2.41 16.92,8.4 28.76,19.34zm-361.27 64.04c0,-23.99 13.76,-40.54 25.98,-49.93 29.4,-22.64 81.48,-21.2 125.47,-25.14 10.08,-0.9 24.56,-4.28 31.18,2.03 5.92,5.65 8.46,17.12 8.55,28.24l-35.72 -20.46c-5.02,63.28 3.28,38.77 4.46,62.65 -33.95,2.27 -45.14,18.01 -67.31,24.31l7.95 5.47c22.46,9.86 35.67,23.28 52.31,24.15 -0.77,17.02 -1.19,18.96 3.67,34.76 3.6,11.64 6.28,18.41 5.42,31.72 20.29,-5 20.44,-25.01 32.83,-28.23 4.86,45.58 -54.01,68.14 -91.47,48.17 -14.4,-7.69 -15.55,-13.53 -25.16,-26.04 -21.9,-1.8 -35.43,-3.67 -47.09,-17.15 -13.54,-15.63 -8.22,-30.78 -7.5,-52 -10.85,-5.36 -23.57,-22.72 -23.57,-42.55zm748.43 -66.81c-2.18,-7.29 -2.54,-12.81 4.01,-17.13 6.53,5.11 7.47,16.01 -4.01,17.13zm-204.17 36.11c3.33,7.83 7.75,15.78 8.47,25.37 -22.97,-4.48 -33.95,-12.34 -44.13,-24.97 -7.4,-9.21 -19.8,-29.56 -22.48,-43.04 13.14,6.21 27.93,16.98 42.18,24.92 11.68,6.51 10.51,4.93 15.96,17.72zm188.75 -38.02c-4.46,-6.71 -0.79,-12.22 7.74,-13.96 2.75,6.37 0.37,16.23 -7.74,13.96zm-29.6 71.15c-0.4,-6.37 5.94,-7.61 11.26,-11.34 23.41,-16.34 40.25,-37.62 55.96,-61.1 7.51,-11.23 13.79,-28.94 18.73,-24.46 18.97,17.22 -68.75,95.71 -85.95,96.9zm-760.79 -31.02c-3.96,-7.83 -38.24,-30.81 -42.84,-65.68 57.36,17.87 60.9,18.3 125.03,18.48 -4.59,9.75 -13.87,15.12 -26.77,18.57 -18.88,5.06 -22.28,1.3 -37.86,-2.84 4.41,11.71 15.15,13.87 29.15,16.87 -2.54,8.82 -2.43,13.7 -11.1,15.87 -7.56,1.89 -15.76,0.26 -19.81,6.48 8.09,4.36 12.14,-1.47 22.92,3.12 1.58,4.69 -0.47,15.67 1.06,22.77 6.3,29.15 24.73,34.59 26.78,51.68 -11.54,0.36 -18.34,-5.99 -27.71,-10.2 -10.04,-4.5 -20.89,-5.02 -27.64,-8.06 2.41,-8.75 5.24,-4.57 15.22,-11.21 -1.73,-3.46 -2.63,-3.92 -5.38,-6.41 -10.09,-10.31 -27.1,-26.86 -31.67,-40.09 4.32,-4.67 6.21,-6.01 10.62,-9.35zm914.76 -84.37c7.65,-0.18 4.98,5.16 13.15,7.75 8.06,2.56 9.54,-2.36 15.69,-2.82 2.95,8.92 2.52,52.7 -0.39,60.38 -30.13,13.34 -29.96,-61.43 -28.45,-65.31zm-83.76 3.63c2.55,8.91 -3.28,19.16 -10.15,19.02 -10.11,-0.22 -1.78,-16.75 1.91,-20.93l8.24 1.91zm-31.34 15.19c-1.91,-4.57 0.03,-9.14 2.35,-14.61 5.54,-13.07 17.31,-6.73 8.59,8.6 -6.14,10.76 -8.95,6.78 -10.94,6.01zm101.64 33.34c-7.11,-4.35 -11.7,-48.29 -10.87,-58.91 5.69,0.04 9,2.68 13.87,4.39 0.76,10.98 1.98,20.93 3.33,31.94 0.7,5.97 5.89,30.03 -6.33,22.58zm-36.06 -77.79c5.24,-0.21 9.48,6.46 12.29,9.99 6.01,7.56 10.11,52.25 7.63,57.63 -12.22,1.32 -10.89,-19.65 -13.21,-30.75 -1.87,-8.99 -8.2,-29 -6.71,-36.87zm-31.83 11.29c-5.76,8.4 -19.79,6.24 -16.95,-8.39 1.33,-6.91 5.54,-20.17 9.39,-23.89 3.96,3.52 11.18,27.17 7.56,32.28zm-89.32 109.16c-4.01,-9.79 42.43,-121.65 47.72,-127.37 19.45,-0.15 7.47,18.42 3.01,29.65 -9.29,23.37 -18.93,46.71 -30.18,69.22 -5.63,11.3 -12.02,27.98 -20.55,28.5zm-19.56 -3.98c-5.59,-10.74 43.26,-123.32 47.04,-128.41l7.59 1.71c3.28,8.76 -6.37,25.65 -10,34.6l-26.27 66.61c-3.89,10.29 -8.44,26.41 -18.36,25.49zm122.16 -129.47c10.17,7.03 23.53,62.4 18.75,77.19 -7.67,-0.15 -7.11,-7.06 -8.91,-15.86 -1.85,-9.12 -14.34,-54.43 -9.84,-61.33zm-142.26 123.88c-5.43,-12.02 28.16,-81.37 36.59,-100.4 9.89,-22.39 8.38,-28.45 19.23,-27.34 2.45,8.21 -36,96.84 -44.75,117.32 -2.77,6.46 -3.87,10.13 -11.07,10.42zm-22.81 -4.54c-3.13,-15.22 19.47,-55.95 25.8,-70.19 4.86,-10.95 9.68,-21.8 15.13,-32.92 2.74,-5.6 11,-33 19.58,-24.66 4.68,4.57 -8.01,27.44 -10.74,33.54l-29.37 66.81c-4.71,10.56 -8.31,26.22 -20.4,27.42zm-20.93 -7.75c-5.12,-10.72 20.8,-56.21 26.47,-68.3 5.38,-11.46 10.4,-22.48 16.05,-33.65 10.2,-20.13 10.71,-29.06 20.87,-25.6 2.86,7.86 -8.67,28.33 -12.36,35.82 -5.22,10.65 -9.89,21.97 -15,33.13 -7.33,15.99 -24.19,62.85 -36.03,58.6zm241.09 -149.96c-0.23,27.39 12.74,66.65 -4.1,59.08 -12.2,-5.49 -13.55,-44.45 -12.5,-59.62l16.6 0.54zm23.36 68.2c-9.54,-8.51 -16,-47.43 -14.21,-64.09 6.98,2.14 5.25,5.23 12.63,7.95 5.72,2.12 10.72,0.84 17.05,2.07 0.92,4.91 10.71,77.42 -15.47,54.07zm-286.22 74.76c-2.14,-13.67 7,-25.86 12.45,-36.24 9.41,-17.92 42.93,-86.47 49.43,-93.8 4.03,0.54 4.98,1.66 7.25,3.91 -1.98,10.34 -25.08,54.61 -31.07,67.53 -5.09,10.99 -11.25,22.74 -16.09,33.57 -4.17,9.32 -10.22,27.03 -21.97,25.03zm164.5 -107.08c-4.56,-6.69 3.92,-36.9 10.5,-33.86 5.53,2.55 -0.25,14.48 -1.54,19.2 -2.18,7.84 -1.42,13.91 -8.96,14.66zm-184.6 99.67c-1.08,-13.66 8.66,-27.21 14.4,-37.36 14.99,-27.24 31.43,-55.07 45.47,-82.69 2.17,-4.27 6.29,-15.33 12.52,-8.66 3.38,3.62 -41.35,86.22 -49.52,101.47 -5.67,10.59 -10.52,26.46 -22.87,27.24zm181.12 -131.55c0.67,19.9 -36.69,53.53 -18.58,-6.01 6.78,0.54 4.26,1.55 8.76,3.27 4.66,1.8 5,0 9.82,2.74zm-54.1 14.61c-1.46,-7.81 1.69,-23.59 4.73,-30.59 3.06,-6.96 5,-5.92 10.17,-2.5l10.43 5.33c1.28,11.85 -0.57,25.24 -4.5,33.95 -6.46,0.52 -16.82,-3.56 -20.83,-6.19zm-145.23 106.52c-1.47,-16.18 39.63,-78.51 52.31,-100.17 4.41,-7.52 13.12,-27.4 20.62,-30.41 9.3,5.99 1.73,12.78 -10.31,34.4l-37.88 69.51c-5.57,9.76 -11.6,28.58 -24.74,26.67zm278.88 -77.16c-12.54,-1 -9.48,-7.9 -14.56,-34.58 -5.47,-28.75 -9.28,-33.32 4.38,-36.56 10.11,16.5 10.69,47.77 10.18,71.14zm-300.07 67.8c-0.99,-18.82 26.86,-53.73 35.43,-67.9 5.48,-9.09 36.67,-59.08 41.13,-61.25l6.35 2.7c-0.38,7.97 -31.4,58.65 -37.39,68.64 -11.05,18.39 -28.93,60.19 -45.52,57.81zm232 -140.67c5.81,2.84 11.75,16.43 4.32,19.02 -10.92,3.78 -8.46,-13.49 -4.32,-19.02zm-81.76 -6.87c3.38,2.1 7.92,6.39 10.06,9.71 2.07,3.22 6.62,36.48 -14.92,35.02 -13.4,-0.92 -12.38,-11.25 -10.97,-23.39 1.51,-12.92 2.93,-18.41 15.83,-21.34zm-176.08 131.53c-2.2,-13.91 10.33,-28.84 15.92,-36.28l56.39 -73.48c4.99,-6.78 6.88,-10.92 12.69,-14.14l5.42 4.59c-0.47,6.8 -49.56,80.21 -60.25,97.32 -4.69,7.54 -16.95,23.97 -30.17,21.99zm-494.02 -0.45c-49.79,0 -95.69,-8.37 -134.45,-28.18 -13.85,-7.07 -13.01,-8.15 -21.07,-18.96 -11.39,-15.32 -43.97,-58.39 -49.3,-70.79 15.17,0.85 74.28,25.21 167.95,25.21 139.68,0.02 218.17,-6.68 360.76,2.84 6.66,0.43 14.31,0.61 20.53,1.6 6.27,1.01 94.41,72.98 110.12,85.47 -10.31,-1.01 -21.66,-4.21 -33.23,-5.29 -41.58,-3.87 -105.95,-4.71 -148.79,-4.71 -89.14,0 -174.3,12.81 -272.52,12.81zm767.89 -130.94c6.55,4.81 8.39,23.27 10.55,31.24 1.98,7.3 10.02,25.24 5.49,31.7 -7.22,-4.37 -8.8,-22.45 -11.05,-30.87 -2.16,-8.05 -8.24,-26.85 -4.99,-32.07zm27.75 30.7c2.32,10.02 7.61,27.15 5.83,36.79 -7.36,-0.57 -7.59,-4.51 -9.63,-12.34l-13.01 -51.91c11.81,3.8 13.45,12.79 16.81,27.46zm-325.82 86.47c-2.34,-17.68 10.78,-28.66 18.3,-37.46l49.95 -59.11c18.8,-21.3 17.2,-26.36 27.89,-17.04 -0.69,7.74 -58.27,79.93 -67.24,91.59 -6.07,7.9 -15.19,23.43 -28.9,22.02zm269.23 -97.77c-16.84,2.36 -12.9,-15.78 -6.44,-24.35 6.03,-0.14 7.32,0.65 11.77,3.22 0.45,8.1 -1.87,16.5 -5.33,21.13zm-88.09 -32.1c6.13,17.78 0.77,10.97 -3.01,28.1 -2.3,10.48 -9.34,17.84 -20.91,10.42 -9.68,-6.22 -0.55,-17.51 3.06,-23.82 5.35,-9.3 6.08,-15.94 20.86,-14.7zm-203.79 112.78c-5.49,-10.15 12.57,-26.34 18.6,-33.11l64.4 -71.88c3.49,-4.14 9.12,-11.8 14.9,-12.33 4.39,9.86 -0.96,16 -5.08,20.57l-63.21 74.65c-4.48,5.08 -19.43,25.32 -29.61,22.1zm257.96 -89.79c-3.97,-11.46 4.3,-34.54 15.06,-21.59 4.04,4.84 1.39,10.02 -1.09,15.94 -3.28,7.8 -5.42,8.46 -13.97,5.65zm-22.76 -11.01c-2.88,-8.54 1.24,-21.59 8.82,-26.09l10.53 9.56c-0.2,14.21 -5.46,20.53 -19.35,16.53zm-54.08 -13.35c-3.68,22.04 -24.91,33.2 -37.56,18.41 -6.92,-8.12 2.86,-16.23 7.15,-21.7 7.88,-10.13 6.2,-9.54 22.76,-9.48l7.65 12.77zm-205.85 96.97c-3.52,-13.43 14.9,-27.16 20.21,-32.63 16.01,-16.55 52.56,-47.12 71.29,-65 6.3,-6 6.75,-11.16 16.01,-4.14 -1.28,7.09 -41.69,46.87 -49.48,55.65 -11.35,12.81 -40.27,48.1 -58.03,46.12zm310.17 -97.11c-13.19,-6.32 -4.91,-25.39 1.46,-25.18 7.75,0.27 12.18,19.92 -1.46,25.18zm-60.91 -25.84c4.66,3.94 0.52,0.39 3.75,4.66 6.17,8.17 6.47,5 4.67,12 -1.67,6.55 -6.29,12.34 -13.26,12.27 -18.33,-0.18 -4.08,-24.22 4.84,-28.93zm-270.31 105.58c-3.08,-14.27 14.81,-27.06 21.05,-32.28 10.24,-9.01 79.37,-72.49 87.34,-74.27 3.67,3.58 4.09,5.74 4.88,10.92l-54.09 51.78c-14.93,13.93 -40.5,44.11 -59.18,43.85zm170.9 -110.46c7.14,-3.56 26.31,2.45 26.72,11.81 0.16,3.86 -14.32,20.26 -17.45,23.55 -8.08,8.53 -23.9,-2.92 -25.27,-9.68 -1.27,-6.3 11.11,-23.23 16,-25.68zm274.09 -9.41c6.41,-2.84 4.46,-4.14 11.93,-4.95 8.91,15.39 9.61,8.3 25.28,15.98l5 53.3c1.73,36.65 -21.26,24.63 -30.23,15.33 -6.8,-7.09 -6.51,-11.66 -7.53,-23.27 -1.48,-16.53 -4.97,-40.72 -4.45,-56.39zm-125.36 13.03c-0.21,8.96 -5.9,22.42 -16.61,15.42 -8.88,-5.83 -0.88,-20.78 5.76,-24.15 5.56,1.77 7.85,4.72 10.85,8.73zm-60.58 0c-8.93,21.2 -22.2,24.33 -27.19,16.05 -6.44,-10.71 10.73,-26.43 16.02,-28.75 5.12,2.16 9.57,9.33 11.17,12.7zm-281.4 89.17c-2.07,-13.24 16.03,-26.5 22.78,-31.99l75.2 -61.12c5.25,-3.91 15.4,-4.45 20.67,0.74 -2.84,6.89 -45.13,40.23 -56.12,50.34 -12.33,11.34 -46.66,43.87 -62.53,42.03zm313.84 -84.38c-20.12,0.5 -7.45,-20.62 -2.32,-23.13 6.23,-3.02 11.12,2.16 9.19,9.38 -0.59,2.18 -6.13,12.7 -6.87,13.75zm40.16 -26c6.64,20.69 -12.72,17.12 -9.25,4.35 1.51,-5.54 3.01,-4.84 9.25,-4.35zm-97.99 8.38c-3.47,6.41 -8.83,14.61 -15.67,16.46 -32.79,8.86 -7.58,-58.35 15.67,-16.46zm-100.78 -12.51c7.04,-5.77 9.99,-0.55 16.32,2.11 5.09,2.16 11.84,1.67 14.05,6.84 2.76,6.44 -12.05,22.63 -15.44,25.33 -10.61,8.39 -23.62,0.2 -27.74,-7.83 -6.71,-13.09 8.4,-22.83 12.81,-26.45zm302.36 12.51c2.79,9.72 3.31,28.79 4.37,40.12 1.4,14.89 4.07,29.57 -8.98,34.82 -13.96,-3.47 -15.8,-20.76 -17.27,-36.4 -1.12,-11.8 -5.15,-37.23 -4,-47.12l5.24 -3.93c4.14,1.37 11.97,8.37 20.64,12.51zm-476.79 77.95c-1.42,-19.24 66.58,-59.97 85.08,-72.3 9.82,-6.53 26.45,-21.32 31.21,-16.79 6.5,6.17 -6.2,12.96 -8.87,15.08l-72.91 58.53c-6.92,5.67 -22.95,17.01 -34.51,15.48zm303.6 -72.8c-4.4,-10.67 0.63,-20.44 8.59,-25.32l10.9 6.86c-0.36,13.08 -6.87,20.92 -19.49,18.46zm55.15 -29.33c5.01,8.8 0.88,23.75 -9.46,20.38 -10.15,-3.31 -0.72,-20.15 9.46,-20.38zm-115.98 -7.65c1.15,11.79 7.07,11.1 -0.52,21.5 -13.97,19.11 -31.53,6.43 -27.23,-8.01 1.17,-3.95 9,-13.26 11.88,-16.44l15.87 2.95zm-267.13 87.47c-1.26,-7.49 5.6,-12.69 9.54,-16.83 7.32,-7.72 95.87,-63.1 96.95,-63.44 2.75,-0.83 14.86,2.97 17.93,5.4 -2.84,4.84 -49.75,35.95 -58.55,42.19 -11.69,8.28 -45.86,35.75 -65.87,32.68zm454.8 -76.46c9.52,11.3 13.21,7.15 14.39,25.37 1.05,16.32 5.81,43.62 -2.82,48.89 -23.41,11.68 -26.25,-56.84 -29.11,-76.18 3.32,-2.38 7.14,-4.84 11.19,-5.91 3.07,3.12 3.81,4.81 6.35,7.83zm-125.74 -3.22c-2.81,5.02 -6.84,11.23 -12.54,13.96 -7,3.35 -14.25,1.95 -13.57,-7.27 0.98,-12.97 20.5,-25.49 26.11,-6.69zm-698.19 101.84c-49.37,0 -106.48,-3.04 -150.8,-15.27 -32.75,-9.05 -32.14,-11.41 -47.45,-35.83 -6.96,-11.06 -25.17,-41.81 -29.33,-52.7 9.27,1.49 48.8,13.55 72.08,18.06 135.76,26.28 277.85,10.3 415.84,28.15 64.6,8.35 45.85,3.67 87.61,45.43 2.85,2.82 19.4,18.91 21.31,20.04l-84.54 -6.42c-94.57,-4.44 -190,-1.46 -284.72,-1.46zm567.51 -113.1c3.02,8.76 1.27,10.31 -4.32,14.97 -7.07,5.86 -28.63,26.9 -42.97,8.22 -11.26,-14.66 5.56,-21.7 13.86,-26.05 8.13,-4.3 7.53,-5.94 16.98,-1.62 7.72,3.54 9.48,0.99 16.45,4.48zm171.33 -2.74c5.59,9.86 -4.32,26.36 -15.26,21.7 -10.53,-4.48 1.8,-23.87 15.26,-21.7zm-393.42 70.84c-3.44,-15 40.64,-36.74 55.7,-45.29 9.97,-5.63 59.65,-35.12 67.66,-35.86l2.01 15.78c-20.35,12.17 -39.28,23.92 -59.73,36.38 -12.53,7.65 -46.37,32.21 -65.64,28.99zm423.36 -75.26c12.2,0.75 16.68,-4 23.43,6.89 11.13,17.99 17.02,71.54 14.3,76.22 -10.26,17.74 -36.47,-73.81 -37.73,-83.11zm-159.94 -11.48c4.93,14.95 8.69,11.58 -2.88,23.46 -20.77,21.32 -41.1,-0.14 -25.82,-19.42 6.82,-8.61 15.54,-5.79 28.7,-4.04zm70.58 10.67c-5.57,15.63 -36.97,29.65 -33.3,6.73 1.1,-6.97 10.35,-16.29 15.62,-18.56 7.18,-3.09 13.91,6.07 17.68,11.83zm25.12 10.52c-2.03,-11.24 8.57,-22.96 15.24,-24.67 12.85,11.93 9.99,15.35 -1.08,24.33 -5.99,4.89 -9.06,3.55 -14.16,0.34zm196.4 -80.09c6.51,2.61 4.35,4.72 10.54,9.34 17.21,12.87 13.84,1.86 16.31,37.95 1.31,18.91 9.53,55.65 -8.71,61.21 -31.96,9.77 -27.01,-60.38 -26.56,-79.02 0.25,-12.22 -1.75,-22.35 8.42,-29.48zm-393.66 39c6.48,-2.38 7.36,3.27 14.4,5.97 7.64,2.93 12.56,2.63 14.99,9.25 3.83,10.47 -4.88,12.68 -24.26,22.67 -26.5,13.69 -47.97,-22.29 -5.13,-37.89zm341.86 -27.16c0,-7.61 0.12,-15.7 13.31,-20.06 6.39,4.27 2.45,4.18 8.46,8.39 4.16,2.93 7.68,3.04 9.9,6.13 3,4.25 8.15,87.47 6.22,90.72 -4.21,7.13 -27.01,6.79 -33.34,-23.82 -3.82,-18.35 -4.55,-41.1 -4.55,-61.36zm-521.79 109.02c0.72,-10.43 18.79,-21.95 27.69,-26.5 23.75,-12.13 47.54,-25.26 71.08,-37.93 8.24,-4.43 25.44,-18.35 33.95,-2.91 -3.49,5.45 -24.11,15 -31.9,19.36 -17.13,9.55 -88.78,53.08 -100.82,47.98zm295.76 -52.82c-4.56,-14.18 1.62,-21.97 10.58,-28.47 14.44,-10.45 20.53,-1.67 21.88,14.11 -10.01,7.12 -12.62,18.57 -32.46,14.36zm91.28 -19.33c-2.67,5.35 -17.66,29.03 -28.33,17.69 -9.69,-10.29 7.96,-23.32 14.22,-30.52 3.85,1.59 11.73,9.38 14.11,12.83zm-133.68 -19.81c2.56,14.14 4.43,19.18 -4.51,28.52 -16.25,17.02 -45.08,-4.17 -22.91,-22.89 9.54,-8.08 12.69,-11.57 27.42,-5.63zm-139.12 8.06c-5.25,4.43 -25.01,14.43 -32.68,18.28 -12.79,6.41 -102.18,60.87 -105.44,41.5 -1.62,-9.7 51.27,-32.34 63.56,-38.49 13.2,-6.59 57.27,-31.81 69.14,-31.94l5.42 10.65zm401.14 49.97c-6.85,3.58 -15.9,-10.04 -18.98,-15.47 -10.06,-17.82 -12.65,-43.73 -13.24,-64.44 -0.45,-15.42 0.63,-20.56 13.47,-24.74 4.73,3.6 3.89,4.25 8.89,7.9 11.12,8.13 7.47,11.95 9.43,38.87l3.49 45.39c0.68,13.98 -2.36,11.86 -3.06,12.49zm-213.31 -71.43c0.22,4.66 1.06,14.45 -0.39,17.74 -3.28,7.36 -26.4,24.2 -35.11,5.13 -7.74,-16.97 15.4,-37.18 35.5,-22.87zm67.35 12.38c-2.99,9.46 -24.45,29.97 -34.47,15.78 -8.66,-12.28 16.03,-30.12 23.66,-31.35 2.25,2.65 9.48,11.64 10.81,15.57zm-532.92 -6.41c-0.06,-6.42 11.13,-29.17 14.53,-36.45 19.28,-41.05 13.05,-6.14 59.74,59.72 -7.57,-0.72 -69.96,-19.8 -74.27,-23.27zm385.5 -21.9c2.77,7.11 2.12,8.1 5.9,15.01 6.52,11.91 -17.95,24.51 -29.47,19.72 -9.73,-4.05 -14.68,-17.13 -5.15,-26 5.08,-4.71 19.94,-11.03 28.72,-8.73zm-265.13 72.59c-0.57,-10.37 21.16,-20.64 29.56,-23.83 21.24,-8.09 109.98,-44.73 119.07,-44.21l0.16 10.93c-8.26,6.71 -57.6,27.11 -71.38,32.98 -18.79,8.02 -55.15,29.51 -77.41,24.13zm470.2 -87.56c0,-9.91 -0.13,-23.28 3.46,-30.51 5.02,2.32 5.41,6.55 8.24,11.35 4.33,7.41 2.77,3.87 2.77,14.34 0,14.47 1.72,30.35 4.12,44.32 2.08,12.3 8.56,28.14 2.16,36.51 -20.32,1.72 -20.75,-57.1 -20.75,-76.01zm-273.28 1.87c3.53,7.13 3.42,14.24 10,19.98 5.94,5.16 12.56,5.05 14.34,14.3 2.81,14.65 -21.03,20.8 -35.1,18.95 -11.19,-1.48 -13.21,-4.72 -17.74,-12.38 -13.93,-23.61 -10.71,-29.35 6.6,-33.78 8.35,-2.14 13.98,-6.45 21.9,-7.07zm296.58 -9.89c4.23,-2.27 8.28,-4.75 12.33,-2.9 18.35,8.46 11.84,19.43 13.44,39.82 0.99,12.56 9.37,54.55 7.57,60.71 -19.09,6.3 -23.96,-20.42 -27.56,-36.29 -4.25,-18.7 -7.13,-41.75 -5.78,-61.34zm-134.82 48.29c-4.91,-18.62 11.69,-29.76 22.38,-36.6 4.21,3.22 10.67,11.66 12.92,17.17 -2.95,5.07 -10.4,12.92 -14.34,16.23 -8.06,6.76 -12.05,7.7 -20.96,3.2zm-33.56 -22.31c-6.96,4.07 -21.52,15.42 -32.22,14.68 -12.64,-0.88 -22.6,-14.63 -14.29,-27.62 2.99,-4.71 23.1,-17.09 29.69,-15.53 13.37,9.83 18.3,9.85 16.82,28.47zm-347.3 43.76c0.66,-15.12 59.8,-31.6 77.47,-37.89l65.19 -23.29c7.42,-1.69 15.86,4.1 18.14,9.09l-76.88 30.12c-19.08,7.3 -62.58,29.22 -83.92,21.97zm661.34 -139.56c1.99,0.67 15.76,8.39 17.4,15.5 2.26,9.78 2.21,31.84 2.21,43.09 0,48.87 -28.83,36.11 -32.46,24.27 -3.2,-10.47 1.21,-59.66 1.71,-74.44l11.14 -8.42zm-378.24 81.04c-8.67,8.43 -39.31,16.9 -49.97,4.95 -15.96,-17.92 4.99,-33.45 24.22,-34.38 5.06,4.93 5.63,10.87 11.07,16.75 4.26,4.64 12.23,7.13 14.68,12.68zm78.16 9.79c-2.5,-10.88 -0.3,-17.25 6.3,-23.01 4.21,-3.69 13.78,-10.24 21.04,-10.44 2.26,3.57 7.21,9.63 8.18,14.04 -2.28,3.36 -9.84,10.18 -14.39,14.39 -5.92,5.51 -11.37,7.94 -21.13,5.02zm-217.32 -23.73c-25.5,7.14 -53.89,18.68 -79.83,27.48 -6.61,2.25 -84.47,34.02 -80.02,14.68 3.6,-15.73 54.19,-28.22 72.98,-34.4 14.61,-4.81 68.91,-23.74 81.19,-23.77l5.68 16.01zm-108.57 151.36l-84.17 -9.79c-136.9,-11.75 -304.36,1.39 -426.77,-37.62 -19.7,-6.26 -23.6,-6.28 -29.24,-17.29 -7.86,-15.42 -40.66,-86.86 -42.08,-96.09 76.04,48.87 204.69,56.27 308.49,64.09 65.97,4.99 141.41,9.23 204.21,28.04 17.79,5.32 19.07,5.74 28.75,17.67 13.87,17.14 28.86,34.29 40.81,50.99zm183.35 -155.07c-9.54,11.09 -42.93,18.59 -56.8,5.71 -4.99,-4.66 -12.81,-18.25 -6.54,-27.53 3.26,-4.81 22.51,-8.78 29.37,-8.15 4.73,8.06 5.54,14.95 13.22,19.02 9.24,4.87 18.54,-0.74 20.75,10.95zm106.2 -19.56c-0.9,12.02 0.97,13.52 -7.4,18.84 -38.41,24.37 -75.52,-25.56 -23.75,-35.24 17.99,-3.37 8.64,11.04 31.15,16.4zm59.2 7.13c-4.77,2.2 -23.52,10.76 -28.13,11.89 -13.75,3.35 -21.75,-8.22 -14.86,-19.91 5.25,-8.93 40.23,-30.31 42.99,8.02zm-495.92 -8.4c2.85,-6.37 6.57,-10.31 9.86,-17.89 2.72,-6.19 4.66,-12.92 6.03,-19.59 4.46,4.14 21.31,41.69 22.82,47.01 -14.22,0.35 -30.09,-1.47 -38.71,-9.53zm71.04 30.46c3.04,-21.14 100.83,-32.26 130.42,-37.43 17.75,-3.09 33.21,-9.95 42.42,3.76 -3.88,4.18 -12.63,5.28 -20.99,7.69l-63.74 18.03c-19.7,5.59 -70.93,24.29 -88.11,7.95zm670.03 -77.1c3.4,1.58 11.43,8.11 14.58,11.37 0,0.02 4.42,96.17 -28.31,77.93 -14.32,-7.99 -5.23,-24.87 -1.56,-40.56 3.11,-13.31 5.13,-34.06 8.65,-45.43l6.64 -3.31zm-923.05 70.05c-5.36,-30.27 -10.31,-39.46 -1.98,-71.54 12.7,5.86 30.41,28.35 36.22,43.92 2.32,6.22 3.26,15.02 5.51,19.97 10.22,-7.79 14.32,-17.78 39.26,-21.25 -6.75,61.32 -66.56,82.35 -112.48,48.26 -8,-5.94 -27.74,-22.78 -30.87,-30.32 43.7,-4.34 34.45,4.51 64.34,10.96zm559.12 -39.75c-7.36,28.95 -53.02,19.79 -60.85,13.13 -12.02,-10.18 -14.56,-42.87 31.99,-41.74 6.15,16.77 11.88,22.87 28.86,28.61zm-318.77 10.38c5.78,-15.51 56.39,-17.67 76.4,-19.72 28.32,-2.91 60.71,-6.87 89.97,-5.92 2.66,3.44 3.94,3.98 5.22,9.16 -7,4.25 -71.92,13.03 -85.94,15.31 -20.62,3.38 -71.54,14.65 -85.65,1.17zm422.84 -16.34c-73.05,30.5 -60.81,-26.91 -6.13,-17.65 2.09,3.26 5.86,12.72 6.13,17.65zm243.94 -19.66c0.59,13.71 -8.94,61.93 -18.66,73.12 -4.57,5.26 -13.31,7.9 -19.13,1.71 -9.73,-10.36 0.02,-36.08 2.99,-48.69 3.96,-16.77 4.01,-35.5 18.66,-39.87 4.01,0.39 3.62,7.3 16.14,13.73zm-423.49 -1.32c-6.39,17.44 -4.61,23.27 -26.13,25.55 -17.11,1.8 -30.04,1.59 -33.34,-15.34 -3.72,-19.15 11.48,-19.29 26.04,-22.77 15.96,-3.79 16.35,1.23 26.52,8.39 3.26,2.25 3.33,1.04 6.91,4.17zm113.81 1.6c2.03,28.54 -54.07,22.86 -54.04,-4.87 0,-13.95 14.04,-22.8 29.93,-17.58 11.57,3.8 -0.31,9.86 24.11,22.45zm275.28 -8.02c-1.93,12.2 -11.23,60.13 -19.02,68.5 -3.66,3.94 -13.57,8.87 -20.34,3.54 -8.58,-6.74 3.96,-33.12 7.56,-42.08 5.6,-13.98 9.3,-28.41 14.34,-41.4 4.97,0.84 13.62,7.9 17.46,11.44zm-25.5 -11.21c-0.92,12.04 -10.31,33.18 -14.95,44.05 -6.14,14.34 -14.36,38.11 -26.45,26.79 -11.72,-10.98 9.3,-45.49 18.4,-62.22 3.64,-6.68 6.07,-14.04 12.24,-17.27l10.76 8.65zm-628.97 12.83c7.73,-19.65 69.42,-15.26 92.41,-15.28 20.59,-0.01 87.03,-4.01 99.13,7.25 -1.14,10.73 -4.52,12.47 -15.69,13.05 -26.74,1.38 -53.52,3.2 -80.24,4.91 -29.72,1.93 -76.63,9 -95.61,-9.93zm-322.21 -47.66c-0.34,-24.87 -3.63,-39.9 7.76,-61.11 7.48,-13.93 20.1,-25.87 39.82,-29.15 53.83,-8.94 80.8,48.91 84.89,52.42 5.05,-10.4 5.95,-17.26 16.35,-21.56 21.63,-8.94 52.17,11.55 53.57,57.36 6.48,4.84 13.68,6.62 20.48,12.2 20.44,16.81 31.29,44.79 25.78,72.05 -4.01,19.86 -14.79,28.59 -28.54,37.06 -8.24,5.06 -36.18,19.42 -45.66,19.26 0,-6.73 4.44,-9.76 7.28,-15.96 4.05,-8.82 6.57,-22.68 11.27,-33.56 2.43,-5.62 5.31,-9.95 6.26,-14.94 -10.45,5.65 -37.12,13.97 -49.36,18.3 -24.02,-41.04 -23.24,-29.96 -39.71,-49.68 -3.42,-4.08 -8.94,-12.39 -12.86,-15.92 -9.95,50.52 -4.52,36.62 -8.08,75.14 -27.67,-3.42 -41.89,-1.49 -69.11,0.02l39.29 47.59c-18.85,4.55 -59.45,-5.6 -71.7,-14.86 -28.7,-21.69 -13.49,-50.65 -12.92,-66.16 -35.12,-29.86 -24.88,-63.93 -5.07,-73 12.86,-5.89 20.73,0.03 30.26,4.5zm894.32 91.99c-5.92,-10.4 25.62,-70.96 37.52,-71.07 -0.09,4.99 -14.13,30.77 -17.71,37.39 -8.01,14.85 -10.85,32.3 -19.81,33.68zm-253 -60.36c-5.26,10.34 -31.38,17.11 -46.42,10.54 -21.51,-9.39 -29.77,-50.06 1.45,-54.7 14.04,-2.07 15.82,0.04 17.67,11.32 4.03,24.52 21.36,23.52 27.3,32.84zm-328.94 -28.86c16.72,-14.18 112.28,-1.07 142.35,1.63 35.52,3.19 34.96,-0.16 36.78,16.04 -27.62,3.23 -70.11,0.07 -99.33,0.09 -10.25,0 -77.67,3.86 -79.8,-17.76zm744.55 -30.16c1.94,13.01 3.74,84.69 -17.71,69.35 -8.62,-6.18 -3.8,-27.26 -2.75,-38.06 1.04,-10.85 0.45,-31.4 4.96,-39.6 5.69,1.99 3.35,2.32 7.94,4.8 2.52,1.37 5.81,2.43 7.56,3.51zm-371.24 36.56c-5.51,14.49 -21.52,15.04 -37.98,8.82 -28.7,-10.85 -33.38,-51.55 15.74,-38.18 11.73,3.2 8.06,3.65 11.23,14.46 2.19,7.47 7.19,8.68 11.01,14.9zm-159.13 -23.21c11.37,-2.68 45.45,-5.18 36.47,12.81 -10.78,21.61 13.6,28.83 -13.64,31.44 -42.43,4.08 -65.5,-34.14 -22.83,-44.25zm190.02 23.99c-38.18,-4.79 -34.44,-43.87 -5.3,-36.19 6.96,1.82 15.58,5.11 23.01,7.61 11.93,4 10.4,4 13.48,16.93 2.8,11.81 12.48,38.87 9.17,49.36 -17.45,3.38 -52.09,1.67 -60.01,-11.5 -13.69,-22.72 44.3,-21.9 47.94,-23.77 -5.69,-5.76 -11.32,-0.32 -28.29,-2.44zm-470.25 -89c1.4,-3.31 2.7,-5.9 4.77,-8.71l3.31 7.24c11.78,38.21 14.88,51.19 30.73,94.17 9.21,25.01 8.17,23.56 -2.57,49.41 -7.11,17.08 -22.53,38.94 -20.71,44.46 9.19,4.39 35.07,5.54 47.59,6.98 2.92,11.83 -6.68,26.29 -11.97,32.43 -19.36,22.38 -18.38,16.61 -69.61,10.33 -16.86,-2.05 -31.02,-0.9 -35.47,-8.62 2.25,-7.06 15.86,-9.04 22.21,-12.31 41.98,-21.66 60.19,-73.9 39.12,-115.3 -12.4,-24.29 -24.93,-24.81 -36.15,-32.69l28.75 -67.39zm785.24 48.4c0,12.45 -2.86,29.98 -4.22,43.56 -1.14,11.54 -3.06,33.44 -18.25,26.96 -11.26,-4.81 -4.86,-27.57 -2.63,-38.47 2.09,-10.29 5.67,-30.52 9.38,-38.24 8.35,2.07 1.44,4.39 15.72,6.19zm-52.81 -14.3c3.84,15.06 -14.37,77.76 -29.63,63.17 -9.9,-9.46 10.58,-40.27 16.93,-52.45 4.08,-7.82 3.49,-11.98 12.7,-10.72zm27.98 7.11c-1.02,11.33 -5.29,30.62 -7.81,43.2 -2.19,10.94 -6.15,30.8 -19.05,26.79 -12.22,-3.8 -4.54,-25.84 -1.3,-36.2 2.52,-7.99 7.72,-33.43 9.94,-37.86 9.41,0.86 1.18,5.18 18.22,4.07zm-710.78 -4.75c23.98,-13.99 68.46,-1.44 98.18,3.56 33.27,5.61 66.81,11.93 99.71,17.04 -0.63,5.18 -3.8,10.52 -6.27,17.42 -9.71,0.97 -88.78,-6.93 -105.01,-8.41 -25.62,-2.3 -86.22,-1.89 -86.61,-29.61zm571.78 222.25c16.76,17.06 17.89,8.44 17.66,30.17 -8.91,-2.95 -40.33,-39.06 -48.33,-49.17 -47.6,-60.17 -59.08,-95.06 -76.62,-168.64 -3.13,-13.22 -7.59,-25.17 -10.92,-37.57 10.58,8.12 20.91,54.69 26.14,72.03 16.31,54.27 52.67,113.05 92.07,153.18zm180.78 -233c0,-5.41 0.18,-56.06 2.76,-58.91 1.65,-1.81 9.66,1.6 11.91,3.31 2.12,15.15 3.88,35.52 4.21,50.82 0.65,29.43 -18.88,22.94 -18.88,4.78zm-425.47 24.04c-10.52,16.16 -52.39,4.12 -59.93,-13.74 -4.66,-10.98 -8.26,-38.06 19.83,-34.68 28.36,3.44 9.77,12.2 25.28,34.32 4.75,6.8 11.73,8.67 14.82,14.1zm-759.31 -7.41c3.72,-7.63 -0.13,-10.17 7.43,-18.14 9.99,-0.25 21.61,4.99 28.41,9.99 7.96,5.83 9.47,10.45 15.98,20.15 8.8,-2.27 2.93,-2.97 10.11,-7.9 6.77,3.13 24.83,14.72 27.57,19.34 -2.66,4.48 -4.84,4.75 -8.26,9.7 -2.48,3.62 -3.51,7.34 -6.48,11.09 -6.3,-3.03 -17.22,-16.68 -32.33,-19.54 5.58,15.18 18.46,23.96 22,41.27 -8.51,-2.66 -60.62,-36.09 -90.77,-39.17 0.92,6.62 -0.11,3.42 4.91,7.88l19.14 17.76c21.36,19.06 62.64,46.89 73.99,70.62 -16.68,1.3 -34.62,0.92 -50.79,-0.44 -23.52,-2 -22.93,-0.26 -38.04,-12.1 -9.61,-7.55 -44.37,-38.61 -45.34,-52.25l14.12 -2.36c0.81,-3.95 -16.08,-62.7 -18.55,-70.06 14.41,-0.15 25.23,1.49 37.93,5.09 7.2,2.03 25.12,9.73 28.97,9.07zm693.19 10.44c-26.99,5.61 -63.39,-5.02 -70.43,-25.09 -11.78,-33.66 32.03,-34.17 57.02,-19.9 1.79,8.03 0.74,17.87 3.57,26.45 2.91,8.84 7,12.6 9.84,18.54zm125.23 -41.84c16.72,-9.73 11.68,-11.05 39.05,6.35 14.95,9.52 25.17,11.63 22.04,37.34 -10.76,1.29 -29.96,-10.08 -38.24,-14.79 -15.69,-8.94 -21.48,-7.9 -22.85,-28.9zm-1.36 35.65c-35.33,13.24 -82.47,-24.85 -63.5,-45.82 11.19,-12.36 32.42,2.06 41.31,8.64 10.15,7.52 5.52,8.44 10.81,19.54 7.06,14.77 10.49,8.26 11.38,17.64zm341.04 -12.65c-4,-9.99 -0.59,-34.1 0.07,-46.66 1.06,-20.13 -2.95,-27.24 20.91,-16.1 0.88,10.56 0.34,31.72 -0.65,42.42 -1.44,15.35 -3.9,26.44 -20.33,20.34zm-633.44 -38.11l80.24 25.6c3.79,2.07 10.31,17.27 12.12,22.51 -36.56,-3.02 -75.84,-16.25 -113.19,-22.62 -17.74,-3.02 -41.35,-4.42 -57.08,-10.18 -11.13,-4.09 -12.93,-6.87 -19.91,-13.68 -6.01,-5.86 -14.71,-8.49 -15.15,-18.24 24.88,-15.1 88.59,8.58 112.97,16.61zm624.19 -33.83c6.1,9.23 1.67,27.56 0.5,40.21 -0.88,9.47 -0.28,36.06 -13.26,28.31 -7.54,-4.54 -1.69,-27.23 -0.45,-37.21 1.59,-12.87 -0.18,-31.27 13.21,-31.31zm-23.3 -1.51c13.15,-9.54 0.81,62.42 -6.24,64.83 -14.31,4.86 -2.2,-35.04 0.7,-49.81 2.37,-12.16 1.04,-11.77 5.54,-15.02zm-254.17 55.47c-7.87,-0.16 -29.35,-19.5 -35.02,-25.66 -4.66,-5.07 -30.69,-24.23 -17.58,-36.61 7.25,-6.84 14.54,1.44 18.59,5.14 14.86,13.62 34.91,33.36 34.01,57.13zm-605.85 -54.1c14.86,-18.12 15.13,-22.82 34.72,-10.94 5.62,3.4 15.57,5.02 22.57,7.93 15.63,6.55 49.32,22.22 47.1,41.13 -1.65,14.02 -11.19,31.26 -15.8,42.05 -2.84,-2.08 -0.86,-0.07 -3.58,-3.52 -5.3,-6.77 -4.67,-9.74 -16.71,-20.19 -7.38,-6.41 -17.71,-12.15 -29.24,-14.05 0.27,-10.84 2.59,-37.99 -0.7,-45.51 -6.3,0.23 -5.8,0.68 -7.04,7.31l-4.93 36.56c-3.69,2.18 -9.25,3.87 -12.74,6.24 -4.95,3.35 -5.25,5.13 -10.85,7.27 -5.72,-8.76 -22.65,-19.58 -30.71,-28.9 0.88,-8.85 4.5,-15.47 8.53,-21.01 6.78,-9.32 7.99,-4.52 19.38,-4.37zm482.25 23.76c-10.09,14.83 -31.25,4.11 -42.62,-3.61 -9.42,-6.37 -23.52,-25.17 -14.87,-41.37 8.26,-15.4 31.06,-12.43 35.63,4.77 2.9,10.89 1.29,14.56 7.9,23.95 4.84,6.87 10.58,9.46 13.96,16.26zm424.88 -101.23c14.26,-0.61 9.91,8.07 10.97,35.86 0.4,10.37 4.81,38.01 -6.22,39.66 -14.85,2.22 -9.86,-22.56 -9.31,-33.59 0.71,-13.44 -0.63,-32.53 4.56,-41.93zm-366.89 118.15c-10.18,-3.78 -32.82,-19.18 -43.83,-25.95 -9.57,-5.88 -13.15,-7.57 -17.99,-17.36 -9.54,-19.36 2.25,-38.81 25.46,-20.59 37.07,29.14 29.78,11.2 35.41,33.31 2.37,9.28 9.18,19.11 10.11,23.3 -3.4,3.44 -5.97,4.64 -9.16,7.29zm-112.53 -9.03c-11.87,6.71 -49.35,-11.72 -61.23,-18.5 -37.44,-21.36 -30.21,-84.32 10.31,-58.34 8.59,5.51 18.21,11.74 25.3,18.02 7.02,6.17 5.47,24.18 9.43,33.75 4.66,11.21 14.11,18.8 16.19,25.07zm468.71 -100.86c0,7.4 0.41,57.98 -3.99,62.26 -18.25,17.78 -5.13,-68.99 -4.85,-69.42 4.38,-6.33 8.84,0.56 8.84,7.16zm-948.5 29.3l19.42 7.48 -15.96 50.22 -15.19 -3.8 11.73 -53.9zm-48.22 -10.85c11.14,3.2 25.05,18.46 28.14,24.84 3.17,6.52 -2.05,33.49 -4.84,42.18l-17.31 1.35 -5.99 -68.37zm444.07 75.44c5.13,2.75 1.88,0 4.86,3.89l-12.18 16.95c-14.46,-3.58 -37.59,-13.8 -53.44,-19.4 -24.42,-8.6 -96.5,-28.68 -110.96,-36.49 -9.61,-5.2 -39.32,-25.69 -38.11,-33.12 1.99,-12.1 52.52,3.61 60.02,6.49 50.06,19.11 99.92,41.55 149.81,61.68zm526.7 -32.64c-4.26,-7 -0.07,-28.93 0.58,-38.47 0.54,-7.86 -1.28,-30.08 5.85,-33.64 8.63,4.85 1.44,39.71 0.63,57.75 -0.08,1.71 -0.49,9.41 -0.94,10.55 -2.55,6.33 1.4,3.4 -6.12,3.81zm71.15 6.3c-19.6,3.92 -15.17,-17.18 -15.51,-33.88 -0.56,-26.81 -4.7,-36.11 5.29,-42.56 14.27,4.07 11.06,17.96 12.13,35.36 0.84,13.93 4.19,32.21 -1.91,41.08zm-401.38 -10.85c-6.15,-2.74 -47.01,-37.01 -53.44,-46.57 -12.34,-18.37 -0.41,-39.15 19.87,-15.04 9.64,11.48 42.84,45.45 44.95,52.99 -3.05,4.45 -6.64,5.51 -11.38,8.62zm317.73 3.56c-5.06,-6.22 0.84,-44.87 1.6,-57.07 1.13,-19.02 0.04,-12.74 4.5,-15.21 6.37,5.83 1.24,28.6 0.7,37.65 -1.04,17.84 0.9,32.78 -6.8,34.63zm-375.38 -33.02c-4.89,3.89 -6.87,2.65 -12.2,5.56 -13.56,7.45 -12.79,-0.79 -22.76,-7.5 -4.33,-2.91 -6.89,-4.03 -10.83,-6.8 -40.05,-28.2 -21.43,-65.39 1.75,-53.01 9.1,4.88 11.08,13.25 17.97,17.26 12.02,7.02 11.41,3.94 15.87,19.3 3.44,11.83 10.71,15.68 10.2,25.19zm415.29 -40.46c-5.06,-7.95 0.36,-55.58 1.11,-70.34 0.49,-9.82 -2.34,-17.16 6.75,-17.86 3.22,3.99 2.66,6.31 2.56,11.58l-1.01 36.93c-0.7,23.87 3.02,40.21 -9.41,39.69zm47.73 -85.2c-0.32,14.41 1.41,30.89 2.23,45.58 0.54,9.46 6.63,38.5 -5.21,38.77 -13.01,0.29 -7.99,-28.12 -8.28,-38.84 -0.32,-11.3 -2.02,-36.14 0.76,-45.6l10.5 0.09zm-29.22 0.29c2.43,-0.97 7.97,0.72 10.53,1.22l0.93 56.82c0.11,12.08 1.5,20.16 -2.84,27.07 -8.89,0.45 -10.51,-2.27 -10.51,-11.03l1.89 -74.08zm-489.56 126.99c-2.52,2.67 -13.62,7.8 -17.61,7.24 -2.47,-0.34 -37.61,-27.19 -41.5,-30.3 -55.6,-44.46 -16.71,-96.57 6.19,-70.32 3.73,4.25 7.88,8.4 11.32,12.74 9.88,12.41 7.04,6.73 12.31,11.64 6.17,5.74 2.34,28.2 8.33,41.44 9.27,20.44 19.4,15.56 20.96,27.56zm-87.07 46.19c-24.09,-5.52 -156.9,-61.59 -176.22,-75.08 -10.73,-7.49 -40.83,-29.22 -40.02,-43.2 23.88,-8.46 51.48,3.13 69.02,12.52l110.7 59.34c10.92,6.1 22.13,9.77 24.79,17.15 5.7,15.87 1.28,9.37 11.73,29.27zm532.33 -176.82c6.14,3.19 3.6,10.75 2.81,21.67 -1.01,13.6 -0.34,63.75 -8.75,61.77 -7.03,-1.68 -0.93,-33.18 -0.26,-40.95 0.8,-9.29 0.61,-37.36 6.2,-42.49zm-439.34 13.08c9.16,-4.85 15.49,4.79 19.2,10.26l25.89 36.6c10.29,14.72 11.37,14.29 1.73,16.26 -12.69,2.61 -14.32,2.04 -22.46,-6.74 -8.25,-8.95 -45.93,-44.97 -24.36,-56.38zm450.55 72.79c-9.46,-5.04 -3.74,-29.57 -3.11,-40.2 0.9,-14.72 1.35,-29.13 2.73,-44.62l9.72 1.33c1.84,9.61 -1.22,33.65 -2.01,44.84 -1.17,16.89 0.64,34.89 -7.33,38.65zm53.44 -109.15c0,-13.15 -1.35,-57.34 2.29,-65.71 7.21,1.26 6.44,1.65 6.44,9.61l0 60.92c0,8.26 1.08,11.41 -4.46,14.68 -5.92,-3.61 -4.27,-4.37 -4.27,-19.5zm-15.49 0c0,-11.41 0.34,-23.8 0.72,-35.25 0.61,-18.68 -3.02,-25.75 4.61,-29.13 3.65,3.63 2.88,2.66 2.88,9.88l0 65.73c0,5.45 -0.29,6.15 -2.88,8.69 -7,-2.65 -5.33,-1.66 -5.33,-19.92zm-498.75 74.24c-20.32,1.76 -13.57,7.27 -29.77,-6.89 -20.35,-17.78 -49.22,-55.1 -29.29,-81.62 14.41,-1.24 15.8,6.8 21.22,16 18.15,30.84 29.45,22.08 29,44.78 -0.34,17.02 5.11,16.36 8.84,27.73zm-84.5 60.42c-3.33,4.86 -4.05,2.54 -7.13,7 -2.55,3.69 -0.91,4.34 -3.85,8.37 -6.38,-0.7 -154.9,-82.3 -172.3,-96.39 -8.87,-7.2 -42.07,-40.05 -36.6,-49.3 4.37,-7.42 30.82,0 37,2.46 15.61,6.25 112.51,76.27 132.53,90.33 7.56,5.31 47.81,31.65 50.35,37.53zm560.34 -117.93c-13.42,1.75 -8.52,-14.64 -6.83,-39.2l1.53 -23.99c0.63,-9.61 -1.64,-17.54 6.29,-18.84 3.01,3.69 2.36,1.95 2.36,7.6 0.04,15.6 -0.5,62.41 -3.35,74.43zm-780.9 188.34c-8.71,-2.68 -23.72,-11.88 -33.43,-16.52 -88.71,-42.14 -156.29,-61.75 -254.03,-87.57 -64.87,-17.15 -169.08,-36.85 -189.22,-104.04 -4.53,-15.11 -2.91,-75.46 3.35,-88.44 8.89,7.87 13.78,14.79 25.1,23.14 96.71,71.37 293.54,97.83 408.68,168.42 18.01,11.05 21.97,11.37 24.27,24.15l7.54 40.55c2.18,11.21 7.41,29.73 7.74,40.31zm793.12 -186.64c-8,-3.39 -4.55,-14.13 -4.23,-23.23l1.84 -52.89c1.06,-8.6 7.48,-11.35 7.48,1.59l-0.86 41.63c-0.16,8.95 2.77,27.28 -4.23,32.9zm-33.66 -3.05c-7.88,-3.25 -6.07,-7.64 -4.93,-17.43 1.45,-12.43 3.99,-59.92 9.28,-62.55 8.67,-4.33 5.49,13.14 5.08,18.16l-2.72 44.86c-0.52,9.75 0.95,13.55 -6.71,16.96zm-495.9 -93.25c10.55,-6.45 18.59,29.18 29.06,50.99 14.14,29.49 34.01,51.06 16.47,51.3 -20.64,0.27 -78.83,-82 -45.53,-102.29zm-83.22 131.18c44.52,35.52 26.06,24.06 35.2,46.61 2.79,6.85 6.44,11.15 8.53,17.56 -12.13,-2.11 -188.36,-131.12 -212.68,-164.51 -5.08,-6.99 -16.65,-26.8 -12.92,-38.87 35.34,-4.12 65.31,35.79 82.61,50.89 33.55,29.23 64.38,60.49 99.26,88.32zm-199.5 47.09c-8.16,-3.72 -19.29,-13.55 -28.87,-19.16 -59.1,-34.67 -166.7,-65.75 -233.01,-87.61 -56.46,-18.59 -143.57,-49.05 -181.82,-92.25 -12.25,-13.84 -10.06,-13.21 -7.88,-36.11 1.33,-13.86 2.66,-27.05 5.05,-40.54 2.15,0.5 19.83,17 24.04,20.15 59.63,44.46 147.35,74.37 218.5,97.31 54.66,17.6 142.18,49.46 187.07,83.86 14.95,11.45 12.87,6.73 14.05,30 0.76,14.99 2.78,30.08 2.87,44.35zm245.26 -55.51c-3.22,3.94 -4.66,3.37 -7.41,7.51 -2.79,4.17 -1.96,6.02 -4.3,10.27 -8.14,-2.23 -117.26,-100.4 -138.98,-124.06 -16.48,-17.91 -62.53,-68.45 -61.2,-93.96 30.32,-4.93 73.06,54.5 86.93,68.19l124.96 132.05zm532.26 -225.13c-1.49,-7.9 7.29,-14.68 15.47,-15.2 0.17,8.22 -7.32,15.4 -15.47,15.2zm14.39 6.41c-2.34,-9.47 9.58,-19.53 20.26,-20.21 -0.55,3.37 -10.59,21.36 -20.26,20.21zm-28.68 -12.69c0.11,-6.66 6.61,-13.89 14.36,-11.26 0.74,7.41 -6.28,13.12 -14.36,11.26zm46.7 14.09c-3.23,-10.94 16.44,-24.29 28.41,-26.4 -1.51,7.02 -1.21,3.62 -5.98,8.95 -8.74,9.7 -11.55,19.23 -22.43,17.45zm-60.17 -20.01c-0.33,-7.9 4.37,-12.18 12.59,-10.85 0.52,8.41 -3.78,11.95 -12.59,10.85zm-11.43 -11.15c0.54,-8.15 4.61,-8.75 11.84,-6.97 -0.95,7.27 -4.19,11.25 -11.84,6.97zm-11.57 -16.63c7.54,-3.44 9.73,-1.51 10.78,5.4 -5.49,4.89 -12.45,2.91 -10.78,-5.4zm-460.09 -26.11c3.19,4.39 3.24,8.24 3.91,13.71 7.81,64.53 26.39,128.67 51.69,187.19 34.17,78.99 66.78,110.67 117.82,167.53 24.81,27.62 60.48,52.69 81.89,76.83 32.93,37.14 30.53,95.17 58.71,130.45 34.06,42.67 79.44,19.91 95.11,18.21 -3.34,7.87 -10.11,15.62 -14.5,25.82 -9.14,21.27 -11.19,42.36 -10.96,65.91 0.13,11.23 5.78,31.49 -7.77,20.75 -19.56,-15.49 -51.53,-58.24 -67.17,-86.85 -28.48,-52.02 -32.53,-114.55 -69.29,-163.2 -12.67,-16.77 -23.01,-25.79 -36.71,-40.29 -48.47,-51.26 -94.39,-101.12 -135.47,-173.81 -29.27,-51.79 -68.14,-172 -67.26,-242.25zm-31.16 226.77c5.81,8.17 7.95,8.26 6.76,19.94 -0.68,6.53 2.52,19.66 1.19,23.19 -7.52,-10.58 -31.38,-34.44 -40.84,-45.54l-41.98 -44.59c-23.57,-25.48 -65.01,-64.99 -80.54,-90.93 -9.64,-16.13 -31.06,-61.36 -29.62,-84.48 39.52,4.91 87.4,83.31 112.66,119.98l72.37 102.43zm-87.41 -146.68c-16.16,-23.5 -33.99,-49.61 -45.49,-79.51 -8.38,-21.77 -23.57,-82.03 -14.36,-106.2 27.37,13.93 39.64,47.68 48.85,73.16 21,57.94 47.25,115.18 78.98,168.02 7.03,11.75 44.64,69.33 46.81,77.1l-0.82 0.92c-10.26,10.56 -3.98,7.58 -9.27,12.15 -9.84,-5.9 -90.92,-125.61 -104.7,-145.64zm35.77 -377.12l8.15 0.09c22.74,32.96 11.51,208.09 17.6,263.46 6.11,55.7 21.57,119.44 42.33,170.09 9.09,22.18 15.84,25.76 12.87,54.32 -4.03,-1.96 -49.46,-85.33 -55.89,-98.05 -46.67,-92.61 -87.19,-204.89 -60.98,-312.04 8.5,-34.7 14.56,-37.71 21.11,-57.11l14.81 -20.76zm-45.04 28.12c3.31,7.36 0.02,7.69 -7.79,21.63l-33.76 59.76c-5.57,0.18 -37.58,14.07 -57.84,-8.62 44.37,-7.54 43.68,-26.31 51.94,-36.37 9.79,-11.94 17.49,-3.68 24.73,-18.48 6.13,-12.52 7.82,-18.26 22.72,-17.92zm-54.68 107.32c-0.34,5.93 -23.81,58.33 -25.33,59.8 -3.91,3.75 -49.05,7.56 -51.77,7.29 -1.17,-5.38 -1.6,-12.59 -4.73,-16.89 1.06,-5.85 -0.53,-12.19 -2.54,-17.55 -11.89,0.87 -57.45,32.55 -74.03,38.98 -4.21,-3.06 -16.39,-18.05 -18.26,-24.4l17.22 -20.28c17.06,-21.48 27.6,-45.31 39.35,-70.97 5.65,-0.05 15.76,-1.35 20.35,1.48 5.4,18.66 1.82,31.29 -0.11,49.91 15.64,-3.6 27.19,-11.32 47.9,-14.43 30.77,-4.62 41.57,5.81 51.95,7.06zm-97.78 52.91l5.71 36.01 55.67 -6.95c1.35,12.62 -13.42,49.3 -17.65,64.63 -12.4,44.86 -22.08,88.94 -27.93,135.17 -1.26,9.91 -5.94,70.73 -7.68,73.75 -6.39,-42.35 -36.38,-68.48 -72.21,-88.18 10.31,-6.15 25.98,-7.07 32.34,-16.64 -18.79,-2.58 -44.32,2.59 -61.99,-1.48 0.16,-6.1 0.31,-4.01 5.61,-8.28 24.65,-19.88 88.87,-73.95 94.61,-96.76 -22.44,12.32 -85.59,71.66 -115.37,82.44 1.87,-15.55 25.91,-54.52 23.48,-88.9 -6.6,9.17 -13.75,47.86 -30.03,60.42 0.56,-11.91 2.66,-22.58 3.08,-35.47 1.02,-31.72 1.51,-68.77 29.31,-86.82 4.5,5.06 5.04,15.12 9.82,24.39l73.23 -47.33zm5.37 313.34c6.91,15.33 3.72,43.79 3.56,63.3 -13.37,-7.6 -19.04,-17.31 -54.09,-35.48 -51.26,-26.6 -134.59,-52.13 -190.51,-72.48 -66.36,-24.17 -123.35,-44.05 -175.65,-87.18 -28.02,-23.07 -18.55,-27.94 -15.39,-62.69l7.24 -56.5c7.54,6.37 13.15,14.22 19.86,20.91 67.39,67.17 213.74,95.17 313.48,153.12 19.31,11.23 34.37,21.24 50.53,34.37 15.74,12.79 39.89,41.89 40.97,42.63zm599.86 320.17c-0.31,-7.31 0.5,-9.75 3.81,-14.38 12.54,-17.56 10.47,-6.71 21.29,-12.34 4.04,-2.09 4.15,-4.48 11.15,-3.8 6.89,0.69 6.55,3.69 9.61,5.28 6.33,3.25 17.62,-2.78 15.02,13.51 -3.31,20.67 -0.21,16.41 -16.55,24.5 -14.86,-9.46 4.77,-18.96 -10.29,-25.55 -1.35,7.67 4.3,19.69 -10.1,16.36 -7,-1.62 -3.25,-3.65 -10.29,-4.86 -6.35,-1.06 -7.52,1.41 -13.65,1.28zm69.36 -25.05c-3.55,-4.51 -6.6,-6.74 -9.83,-11.39 7.18,-21.26 46.68,-20.2 42.06,2.43 -7.85,-0.97 -9.58,-2.32 -17.17,1.12 -6.5,-5.94 1.67,-3.85 -6.42,-6.25 -4.32,8.32 6.31,9.49 -8.64,14.09zm-71.94 -1.87l-7.47 -4.06c10.82,-19.62 32.93,-16.95 38.6,-11.84 -2.81,5.97 -8.91,6.6 -14.93,6.85 -9.9,0.4 -10.03,4.32 -16.2,9.05zm56.52 -20.69c-3.89,-5.97 0.75,-4.26 -4.52,-8.98 -8.96,9.07 4.84,10.45 -1.87,19.69 -8.78,-3.46 -6.73,-4.79 -11.53,-12.17 -3.89,-5.95 -5.9,-7.59 0.92,-13.91 10.63,-9.86 27.04,-6.46 33.25,4.47 -7.34,3.14 -10.75,6.96 -16.25,10.9zm61.09 8.49l-7.51 -10.83c-4.68,-6.24 -5.92,-4.5 -10.6,-8.91 3.98,-11.71 10.93,-14.1 24.84,-12 12.7,1.93 17,7.65 16.96,21.61l-18.8 4.5c0.02,-7.23 1.73,-12.63 -1.84,-17.44 -5.66,3.44 -3.2,16.31 -3.05,23.07zm-51.23 -38.76c4.73,-19.12 31.07,-19.77 42.3,-5.03 -2.79,3.63 -8.38,5.84 -12.43,9.25 -5.92,4.98 -5.15,10.09 -9.18,12.7 0.56,-5.09 1.8,-11.75 -1.69,-16.07 -2.54,3.08 -2.54,7.52 -3.2,11.39l-15.8 -12.24zm46.6 -16.26c5.9,-10.62 32.64,-16.14 38.58,5.49 -9.16,3.96 -10.44,8.45 -17.54,11.1 0.95,-7.07 2.14,-16.32 -2.15,-19.29 -4.93,5.6 -1.16,8.06 -2.8,16.07 -7.31,2.54 -11.46,-2.79 -16.09,-13.37zm-25.67 -8.01c0.57,-11.05 11.65,-14.52 21.61,-9.03 0.89,10.67 -10.94,12.86 -21.61,9.03zm30.73 -11.69c-0.58,-14.29 22.33,-16 28.27,-8.84 5.18,6.26 1.97,11.54 -7.04,10.26 -8.06,-1.15 -15.08,0.32 -21.23,-1.42zm-21.54 -7.85c-0.77,-13.37 11.97,-17.92 24.2,-14.07 0.16,6.39 -2.86,7.76 -7.57,11.66 -6.41,5.34 -7.2,3.56 -16.63,2.41zm30.35 -20.55c4.09,-6.96 11.57,-9.21 20.95,-4.77 -2.18,7.58 -15.44,19.13 -20.95,4.77zm-25.35 -7.99c-0.95,6.07 -3.15,7.62 -6.49,10.3 -4.41,-3.53 -4.93,-3.48 -5.22,-12.13 4.98,-0.47 8.1,0.45 11.71,1.83zm5.29 -4.84c2.74,-9.5 15.96,-13.81 22.49,-3.18 -1.87,6.22 -11.89,16.91 -22.49,3.18zm-30.6 -6.4c-7.4,-15.75 25.4,-20.55 23.06,-0.52l-23.06 0.52zm75.1 -9.63c-0.97,5.26 -5.22,10.02 -9.79,12.89 -5.25,-1.95 -9.73,-8.66 -11.24,-13.18 7.32,-5.29 13.2,-6.91 21.03,0.29zm-20.55 -13.37c-2.01,5.71 -0.63,2.7 -5.09,7.24 -16.73,16.95 -36.06,-2.97 -12.24,-9.32 8.62,-2.29 11.39,-0.74 17.33,2.08zm-75.25 9.72c-2.91,-14.68 11.02,-15.42 22.4,-12.65 -1.16,7.97 -3.22,5.24 -9.35,10.69 -5.9,5.23 -5.6,6.06 -13.05,1.96zm30.41 -21.45c6.89,-3.81 10.83,-1.91 15.66,0.63 -0.29,14.83 -18.65,17.04 -15.66,-0.63zm44.9 1.06c4.1,-9.86 16.64,-8.72 22.23,-1.6 -1.13,5.33 -5.56,8.96 -9.93,11.77 -4.32,-2.25 -10.7,-5.6 -12.3,-10.17zm-87.09 12.04c-13.01,-2.84 -5.4,-21.29 11.23,-13.64 -2.85,4.5 -3.17,2.25 -6.57,6.26 -2.04,2.38 -2.13,4.09 -4.66,7.38zm79.98 -24.72c4.66,16.95 -17.42,15.81 -19.36,1.08 4.95,-3.64 13.11,-3.49 19.36,-1.08zm-56.39 3.07c4.15,-5.52 10.49,-7.7 17.72,-2.96 -1.39,7.62 -16.01,18.42 -17.72,2.96zm-24.4 -2.48c1.69,-7.27 8.9,-7.88 16.28,-5.18 -2.68,7.74 -5.94,7.38 -16.28,5.18zm108.55 -3.94c-5.76,3.29 -2.3,1.08 -9.84,0.67 -4.18,-0.15 -6.89,0.93 -11.48,1.2 1.91,-11.21 18.28,-12.52 21.32,-1.87zm-63.08 -8.31c3.88,-3.89 12.39,-1.53 16.51,0.11 -0.34,1.36 1.37,6.47 -11.47,8.16 -3.5,-3.38 -4.23,-2.28 -5.04,-8.27zm-21.61 2.91c1.04,-8.18 12.41,-12.41 14.25,-0.59 -5.13,0.83 -8.71,2.03 -14.25,0.59zm45.43 -5.83c1.48,-9.68 11.01,-8.06 14.75,-6.35 5.29,2.41 2.07,1.26 3.96,3.17 -5.25,7.84 -12.84,12.23 -18.71,3.18zm42.05 -4.64c1.12,-1.19 7.14,-0.31 10.76,-3.36 1.13,-18.52 -21.03,-1.52 -23.5,0.1 -17.52,-7.46 -14.75,-8.74 -33.79,-1.9 -8.04,2.88 -7.72,-2.5 -18.44,0.64 -7.11,2.09 -0.11,2.15 -8.1,1.97 -21.12,-0.51 -9.59,-1.61 -23.21,7 -5.08,3.22 -10.06,1.63 -15.6,5.16 -4.52,2.88 -13.35,22.51 -12.9,30.68l24.59 18.13c3.01,1.25 5.91,1.57 8.37,2.79 2.68,1.34 26.92,17.39 27.26,26.8 0.86,23.96 -15.49,40.77 -34.56,51.49 -7.02,3.94 -7.02,5.56 -11.48,9.36l-25.66 17.6c-11.52,11.24 -28.31,6.31 -38.44,32.06 -1.51,3.85 -0.37,6.03 1.66,9.43 5.38,-0.45 7.72,-2.56 13.84,-0.72 0.72,4.19 -2.11,12.29 -3.57,17.99 -2.86,11.27 -3.99,3.6 -0.54,15.84 4.86,-3.26 21.07,-4.92 25.05,-3.94 6.32,1.54 1.82,1.89 11.7,3.09 24.25,3.02 -2.45,20.37 3.56,41.26l10.04 1.58c-6.42,-22.85 7.32,-27.89 12.9,-35.5 3.22,-4.39 1.98,-4.98 9.68,-4.59 14.97,0.78 6.42,-3.7 21,0.99 3.83,1.24 2.81,0.58 6.71,1.51 10.13,2.42 7.2,9.27 19.97,13.21l3.26 -7.12c-4.05,-6.43 -5.42,-4.02 -9.9,-9.63 1.1,-10.76 5.44,-6.69 9.18,-16.03l-4.23 -0.87c-8.94,-1.45 -0.93,-1.36 -8.42,-4.64 -4.07,6.62 3.02,5.2 -1.08,15.87 -7.59,2.32 -22.42,-2.05 -30.12,-4.78 -3.65,-14.45 11.8,-22.5 21.57,-29.66 19.38,-0.07 27.48,7.34 42.68,16.97l2.22 -11.98c-8.55,-4.72 -6.77,-1.75 -14.58,-4.59 0.83,-13.77 8.33,-13.21 21.83,-14.07 7.16,-20.48 5.09,-17.89 2.21,-26.16 -4.46,-12.74 5.6,-7.53 7.97,-20.8 3.87,-21.78 -3.63,-9.59 1.66,-24.08 1.33,-3.69 2.37,-10.02 1.37,-14.32 -1.75,-7.45 -3.89,-2.11 -6.25,-9.95 2.81,-2.22 6.73,-3.42 7.47,-6.41 0.11,-17.38 -2.14,-5.16 -7.11,-14.45 4.52,-9.24 8.13,-0.66 8.93,-12.75 0.75,-11.54 -7.13,-8.53 -4.63,-15.17 2.09,-5.56 7.79,-2.66 5.87,-13.03 -2.92,-15.71 -0.27,-1.47 1.85,-15.15 -0.57,-6.24 -8.02,-8.08 -9.05,-15.87zm-133.01 -357.63c-28.35,-19 -159.09,-122.99 -189.5,-147.15 -3.51,-2.79 -55.02,-44.7 -59.23,-45.43 -6.81,-1.17 4.17,-0.8 -2.65,-0.04 -19.88,2.18 18.1,26.52 20.89,28.77l218.89 171.4 -232.13 -166.24c-5.99,-4.28 -10.49,-10.41 -18.32,-7.32 -8.06,6.77 11.43,17.27 19.9,23.43 28.79,20.94 57.85,41.6 86.75,62.38 27.22,19.58 93.06,65.1 115.12,83.24 -10.28,-4.54 -153.2,-98.96 -170.25,-109.94 -14.24,-9.16 -28.76,-18.34 -42.85,-27.69 -6.06,-4.03 -8.44,-8.39 -17.04,-6.08 -3.81,8.83 1.52,10.58 8.37,14.77 79.01,51.42 157.89,102.96 237.04,154.16 6.57,4.23 11.56,9.85 20.57,8.7 0.97,-2.09 1.64,-5.67 2.39,-7.08 2.74,-4.98 1.3,0.42 4.03,-5.47 4.81,-10.31 -4.75,-1.9 7.04,-8.96l-0.16 -8.81c6.1,0.81 3.87,1.24 8.67,-1.66 0.47,-8.69 1.04,-7.41 -11.8,-17.06 -5.69,-4.28 -11.59,-9.12 -16.81,-13.67 -49.63,-43.19 -111.27,-90.63 -161.97,-134.64l-65.91 -54.65c-11.32,-6.08 -13.97,3.69 -4.9,11.68l243.86 203.36zm-36.74 73.75c-11.41,-2.19 -198.79,-82.3 -233.48,-96.84 -6.75,-2.84 -10.79,-5.95 -15.6,-1.42 -4.21,10.33 12.67,13.21 22.26,17.29 69.76,29.85 140.13,58.75 210.12,88.11 -9.82,-1.74 -182.88,-65.2 -210.23,-75.32 -11.42,-4.22 -25.14,-13.45 -24.85,2.96 7.58,5.18 42.83,16.24 55.58,20.89l56.48 20.44c18.29,6.4 104.76,36.04 111.94,42.06 -10.15,-5.12 -167.88,-55.13 -196.74,-64.72 -10.06,-3.34 -21.34,-10.61 -25.22,0.04 0.09,6.33 15.27,9.25 23.03,11.87l190.82 62.82c-12.13,-1.13 -39.93,-10.15 -53.82,-13.95l-134.7 -36.94c-7.36,-1.96 -24.65,-9.48 -25.82,0.45 -0.97,8.17 15.01,9.05 22.33,11.09l27.75 7.57c21.23,5.71 152.22,40.58 161.48,44.93 -24.79,-1.73 -201.21,-47.63 -208.07,-41.38 -10.83,9.91 14.65,12.61 19.7,13.69 32,6.8 209.37,46.96 213.76,43.98 2.07,-1.91 0.87,1.62 2.32,-3.71 1.48,-5.38 -1.47,-1.06 1.84,-8.39 1.67,-3.7 2.97,-7.53 4.55,-11.71 4.19,-8.91 -0.36,-7.95 -1.56,-9l5.95 -2.08c0.87,-6.62 1.64,-3.66 -1.13,-8.71 9.05,-5.51 7.2,-7.95 1.31,-14.02 4.25,-0.29 6.39,-0.81 8.87,-2.28 1.12,-4.39 0.36,-6.14 -0.75,-9.18l7.68 -1.35c1.98,-5.52 0.38,-6.42 1.57,-8.92 3.07,-6.54 14.25,-4.9 -9.42,-18.47l-216.35 -116.95c-8.61,-4.81 -26.75,-17.46 -34.85,-14.02 -2.39,8.53 1.94,9.81 8.3,13.26l14.53 7.88c33.81,17.89 188.45,100.3 207.54,112.97 -11.7,-3.75 -97.47,-47.85 -115.9,-57.08l-109.36 -54.73c-6.31,-2.04 -4.82,-2.04 -9.21,0.95 -7.04,8.31 12.9,14.97 25.08,20.64l99.47 49.69c15.27,7.62 119.53,58.28 130.92,66.13 -8.69,-2.27 -202.63,-94.52 -228.57,-106.38 -17.45,-7.97 -28.54,-17.36 -28.02,-0.41 12.33,7.57 201.82,95.33 240.57,113.27 3.62,1.69 4.86,2.57 7.9,4.98zm-39.62 392.97c-0.05,-6.73 -3.29,-16.26 -2.1,-19.57 1.83,-5.08 7.44,-8.78 14.35,-4.82 11.14,6.36 5.85,25.91 -12.25,24.39zm31.65 -29.22c9.66,-5.75 25.3,3.8 8.53,13.62 -5.34,3.15 -10.56,8.53 -13.41,0.87 -2.89,-7.79 0.94,-12.15 4.88,-14.49zm-67.6 0.13c-1.19,-15.53 20.33,-15.44 30.1,-4.81 -0.82,4.07 -2.61,6.01 -4.62,9.22 -5,-0.94 -6.32,-2.65 -12.49,-3.39 -6.15,-0.7 -8.17,0.96 -12.99,-1.02zm36.62 -9.63c2.44,-12.25 22.24,-13.8 26.45,-1.58 -6.16,10.2 -17.38,4.86 -26.45,1.58zm59.9 14.43c-3.87,-3.02 -1.28,-0.48 -3.69,-4.5 -7.97,-13.29 -7.33,-6.24 -10.46,-13.11 7.11,-13.07 27.55,1.11 14.15,17.61zm-131.43 -17.68c3.06,-14.17 18.77,-19.51 26.35,-8.75 4.82,6.89 3.4,11.37 -5.44,9.12 -10.7,-2.75 -10.18,-1.47 -20.91,-0.37zm38.94 -7.51c3.91,-11.89 25.39,-14.81 28.11,-2.05 -7.29,7.11 -4.7,0.67 -28.11,2.05zm58.8 -8.58c5.04,-5.49 15.1,-3.38 20.3,0.04 -1.64,3.72 -7.7,8.47 -10.85,11.58 -4.32,-2.32 -8.8,-5.23 -9.45,-11.62zm-25.44 -6.3c2.63,-9.55 14.2,-10.87 22.4,-4.8 -2.12,10.94 -16.25,16.05 -22.4,4.8zm-52.63 -1.6c1.28,-12.52 16.61,-13.06 21.84,-1.6 -2.39,4.26 -4.17,4.37 -8.08,7.25 -5.2,-1.96 -8.22,-3.6 -13.76,-5.65zm-12 -1.6c-1.78,2.72 -7.22,6.08 -11.1,7.77 -3.46,-3.02 -7.72,-5.27 -9.34,-9.37 7.05,-8.8 16.23,-6.05 20.44,1.6zm97.36 -2.72c-4.05,-10.83 5.2,-9.8 11.98,-7.34 1.62,8.71 -2.79,9.32 -11.98,7.34zm-58.32 -8.24c7.56,-4.44 13.01,-4.19 20.98,-0.97 -1.15,10.26 -5.36,11.61 -16.3,11.19l-4.68 -10.22zm-67.33 -8.69c1.96,3.87 2.72,6.75 1.5,12.07 -5.26,-1.31 -11.77,-4.62 -16.88,-6.85 4.07,-7.45 8.15,-7.16 15.38,-5.22zm95.96 4.86c-0.41,-14.09 20.39,-10.71 24.02,-5.99 4.37,5.66 -0.56,8.36 -7.41,7.23 -6.59,-1.08 -9.48,-0.97 -16.61,-1.24zm-72.62 -4.91c5.92,-5.62 16.57,-2.68 22.62,0.27l-13.17 8.4c-4.48,-5.92 -6.1,-3.37 -9.45,-8.67zm105.75 -1.15c2.05,-11.72 18.26,-9.4 15.08,5.12 -5.74,-0.3 -11.84,-2.12 -15.08,-5.12zm-72.71 1.18c2.23,-8.72 11.28,-11.15 19.41,-4.39 -2.32,1.77 -5.22,2.02 -9.55,4.18 -5.53,2.75 -3.96,3.83 -9.86,0.21zm-50.62 -7.41c-7.48,-2.81 -6.71,0.81 -8.28,-7.2 3.04,-2.46 21.88,-5.72 16.99,12.49 -3.85,-0.99 -3.15,-3.2 -8.71,-5.29zm22.08 -4.98c5.56,-9.13 18.71,-6.45 20.58,1.6 -4.08,2.17 -16.87,-0.13 -20.58,-1.6zm89.68 -0.8c-6.03,-1.35 -2.65,1.07 -7.13,-2.41 0.43,-4.03 17.62,-7.01 15.06,4.14 -5.22,0.04 -1.82,-0.36 -7.93,-1.73zm-40.51 -2.26c5.96,-4.75 13.48,-4.9 17.98,1.72l-10.29 5.67 -7.69 -7.39zm-115.12 6.24l13.86 3.09c-0.25,4.79 -6.43,9.51 6.21,17.64 13.09,8.47 5.3,4.87 12.9,12.95 5.9,3.85 9.62,0.8 14.34,7.94 5.7,8.65 -0.79,6.91 8.04,14.45 7.63,6.51 4.53,5.61 15.8,6.87 7.3,0.81 9.39,3.6 12.88,7.47 -1.08,7.81 -7.84,10.58 6.53,11.64 6.45,-6.12 18.86,-3.2 23.93,1.46 10.62,9.75 1.93,14.77 -2.24,23.24l24.02 -4.96c9.19,-2.43 9.59,-6.28 19.48,-9.3 20.98,-6.41 51.79,-15.93 45.33,-37.59 -2.58,-8.62 -9.32,-9.84 -14.14,-14.95 -11.07,-11.79 -5.01,-30.76 6.4,-35.13 -1.46,-2.16 -2.36,-3.92 -4.3,-5.61 -3.45,-3.04 -1.06,0.97 -4.07,-4 4.34,-7.64 13.09,-7 17.13,1.37 8.03,-4.93 3.85,-0.77 9.5,-7.05 8.3,-9.25 8.66,2.23 20.55,-3.94 -9.84,-4.86 -12.18,-7.97 -23.01,-3.26 -10.83,4.71 -14.23,-0.23 -24.8,3.92 -15.63,6.16 -8.49,-0.23 -21.79,-2.61 -12.63,-2.28 -13.47,3.12 -22.29,6.1 -9.03,-6.89 -15.94,-11.3 -28.03,-4.85 -9.92,5.27 -2.76,2.55 -12.42,1.11 -9.32,-1.37 -6.31,2.18 -15.9,-0.03 -21.54,-4.93 -16.72,6.11 -29.35,3.63 -22.26,-4.39 -17.53,-1.39 -29.73,7.49 -10.34,1.07 -20.47,-7.99 -24.83,2.91zm266.02 -441.7c-0.8,-2.66 -46.71,-64.92 -53.59,-74.49l-149.49 -208.02c-6.08,-8.73 -7.72,-16.72 -19.02,-14.9 -3.34,10.15 14.27,28.81 23.79,42.18l86.42 120.41c19.72,26.68 37.83,54 57.6,80.25l42.79 59.77c6.17,8.69 11.21,19.52 17.2,19.11 2.64,-0.2 3.71,-2.77 10.78,-6.64 11.66,-6.4 0.72,-13.58 -11.84,-33.38 -65.5,-102.77 -133.44,-204.65 -200.03,-306.78 -4.34,-4.12 -10.24,-5.15 -10.85,2.52 -0.42,4.91 36.63,59.11 40.9,65.48 55.52,83.32 110.42,171.31 165.34,254.49zm-40.99 51.95l-95.12 -84.01c-10.79,-9.59 -22.29,-19.49 -32.02,-28.94 -10.4,-10.09 -21.42,-18.37 -31.33,-27.97 -22.67,-21.99 -58.24,-50.76 -79.57,-71.13 -4.06,-3.89 -11.22,-15.01 -17.74,-8.39 -6.91,7.06 4.79,12.15 17.62,24.56 65.96,59.13 132.19,117.95 198.25,176.91l25.1 22.96c6.82,5.65 9.03,12.85 19.74,11.97 7.5,-10.94 -0.87,-4.37 11.66,-10.31 0.61,-11.73 -0.45,-6.52 -13.08,-19.97 -5.51,-5.87 -10.58,-10.03 -16.49,-15.59l-130.97 -125.52c-13.15,-12.59 -90.67,-91.98 -100.46,-92 -8.33,9.18 1.59,12.53 21.47,33.13 10.36,10.76 21.81,19.49 32.39,30.14l79.22 76.27c26.79,25.62 52.42,51.95 80.22,76.92 5.38,4.82 9.53,10.56 14.93,15.48 5.04,4.62 12.42,10.67 16.18,15.49zm214.78 -92.72l7.76 -0.18c3.45,-8.13 -22.21,-478.62 -26.88,-486.81 -13.23,-1.04 -9.34,8.78 -8.55,21.49l5.22 93.56c3.38,55.26 17.47,362.28 22.45,371.94zm-15.81 1.35l7.63 0.16c4.67,-9.55 -19.2,-215.54 -22.05,-243.65l-21.73 -213.97c-0.69,-6.89 0.74,-25.08 -7.38,-26.04 -10.87,-1.31 -5.34,18.61 -4.7,25.21 7.65,76.33 43.93,450.52 48.23,458.29zm-23.81 6.66c4.43,-8.68 -14.79,-101.92 -17.69,-118.69 -6.51,-37.68 -58.94,-349.98 -64.66,-358.48 -13.98,-1.38 -8.24,11.54 -6.43,22.03l75.54 431.44c2.12,12.09 0.16,25.24 13.24,23.7zm4.52 -3.28c15.45,2.99 9.75,-10.22 8.08,-22.42 -15.24,-112.37 -29.3,-225.04 -43.91,-337.52 -1.81,-14.3 -13.19,-118.81 -18.08,-122.1 -12.67,-8.53 -7.76,15.93 -6.96,22.01l27.99 215.74c4.09,30.77 28.74,237.15 32.88,244.29zm-124.28 -462.73c-5.98,4.7 -1.3,14.66 1.8,28.97l88.6 419.74c1.22,5.76 3.58,30.95 13.58,21.2 4.75,-4.62 -7.59,-51.37 -9.48,-60.28l-82.27 -389.59c-1.56,-7.52 -3.13,-27.17 -12.23,-20.04zm82.91 475.79c3.38,-9.75 -10.4,-43.23 -14.2,-54.89l-17.86 -54.74c-8.98,-27.47 -101.16,-316.55 -107.1,-328.52l-7.97 0.56c-3.85,9 10.35,42.86 13.86,54.14 40.48,125.14 81.59,250.18 121.4,375.54 2.33,7.86 2.6,9.34 11.87,7.91zm-252.1 242.79c-23.77,-0.83 -170.58,-15.53 -179.54,-10.96 -0.84,1.22 -2.16,-0.95 -1.65,5.25 0.3,3.49 0.79,3.4 3.2,4.63l160.53 12.09c11.99,0.83 54.02,6.42 58.18,1.24 4.49,-5.63 -1.84,-3.9 0.07,-12.54 1.01,-4.5 1.87,0.54 0.68,-6.86 -6.31,-3.5 -218.72,-25.22 -224.12,-23.01 -4.09,1.66 -6.16,5.49 -1.6,9.61 3.63,3.29 118.37,13.19 131.73,14.43 13.36,1.26 42.8,2.99 52.52,6.12zm79.37 -661.31c-5.65,3.17 -4.75,4.86 -1.97,12.29 48.91,129.93 97.01,260.51 144.71,390.92 2.17,5.92 6.13,25.12 14.53,20.75 8.07,-4.16 -2.26,-22.1 -4.39,-27.93l-139.25 -376.7c-2.48,-6.79 -5.54,-23.88 -13.63,-19.33zm146.89 431.14c3.33,-9.72 -12.81,-40.7 -17.27,-51.86 -34.67,-86.62 -70.73,-172.88 -106.11,-259.25 -6.04,-15.25 -37.87,-96.53 -43.02,-102.29 -15.83,0.24 -6.19,13.52 -2.55,22.85l10.74 26.11 146.18 357.22c2.73,7.07 2.6,9.02 12.03,7.22zm-200.37 -391.57c-7.95,3.54 -1.4,12.54 4.98,25.82l163.8 352.25c2.71,6.03 7.61,25 16.57,19.76 7.75,-4.53 -3.73,-21.07 -6.46,-26.67l-163.65 -352.27c-2.99,-6.49 -7.48,-22.36 -15.24,-18.89zm-29.45 28.9c-5.21,5.21 15.87,38.61 21.16,48.76 49.58,95.18 100.96,189.84 151.3,284.65 9.37,17.38 21.43,49.99 30.44,40.99 5.22,-5.2 -5.02,-19.06 -8.24,-24.78 -28.95,-51.24 -58.83,-112.98 -88.45,-166.36 -25.55,-46.03 -50.2,-96.19 -75.63,-142.31 -8.42,-15.26 -21.48,-50.11 -30.58,-40.95zm-24.08 23.87c-6.46,5.69 5.34,18.82 8.69,24.51l187.33 317.54c2.46,4.21 9.75,23.81 17.79,16.05 5.55,-5.34 -5.18,-18.55 -8.36,-23.85l-187.38 -317.5c-3.42,-6.17 -10.6,-23.33 -18.07,-16.75zm-141.71 594.7c-1.77,1.26 -3.3,-4.82 -2.02,7.45 9.72,4.48 112.94,5.18 133.15,5.18l-0.09 1.73c-19.18,0 -120.28,-3.94 -129.62,0.63l-0.53 8.13c5.89,2.46 72.39,3.38 127.74,3.8 -7.52,0.03 -116.22,-0.17 -120.48,1.67 -7.78,3.38 -4.86,11.41 7.46,11.41l187.56 0c9.52,0 10.6,-3.57 8.5,-11.09 -2.36,-0.81 -10.11,-1.31 -21.2,-1.63l6.34 0.03c10.31,0.09 15.02,1.73 14.19,-8.58 -0.83,-12.96 4.63,-12.15 -2.57,-14.36 4.5,-17.45 8.96,-13.39 -42.12,-15.89 -50.64,-2.28 -101.7,-3.85 -152.26,-6.84 -12.99,-0.79 -22.58,-4.6 -20.21,10.39 14.31,3.56 45.92,2.5 63.37,3.76 -6.24,6.55 -40.61,0.14 -51.26,1.63 -7.59,1.08 -3.09,-1.27 -5.95,2.58zm83.59 -515.1c-7.93,6.55 12.9,26.65 23.23,39.72l197.19 248.46c3.33,4.05 12.25,20.21 19.13,12.65 5.23,-5.75 -6.52,-16.39 -9.68,-20.44 -35.24,-44.82 -71.04,-89.31 -106.49,-133.97 -30.07,-38.1 -60.01,-76.91 -90.76,-114.44 -9.77,-11.91 -25.53,-37.84 -32.62,-31.98zm-32.42 49.59c-5.85,6.05 6.24,14.34 9.82,18.34l48.26 51.15c5.2,5.78 11.01,10.08 16.14,15.89 30.55,34.68 81.01,83.76 113.68,118.81l48.39 50.98c3.11,3.51 12.91,18.1 19.72,10.58 5.95,-6.62 -15.19,-22.37 -26.92,-35.41l-64.13 -67.32c-12.2,-10.92 -21.14,-23.28 -32.71,-34.63l-113.27 -117.59c-4.55,-4.21 -12.38,-17.58 -18.98,-10.8zm141.64 1689.28c-5.22,-31.05 28.11,-34.58 34.13,8.35 4.16,29.67 -27.2,32.79 -34.13,-8.35zm8.84 -26.25c-44.14,13.32 -23.22,71.09 16.59,60.53 39.74,-10.58 26.12,-73.43 -16.59,-60.53zm100.83 27.87l21.45 -57 -46.78 8.87c0.32,6.3 0.46,13.64 2.98,17.44 4.41,-8.62 1.91,-17.46 25.23,-18.66l-22.47 61.57 53.99 -10.31 -1.51 -21.68c-6.13,2.62 1.46,15.11 -20.83,21.73 -12.89,3.85 -10.3,1.35 -12.06,-1.96zm207.12 -38.22l-9.23 -11.49c2.93,-3.1 5.92,-5.83 9.23,-8.57l0 -6.08c-5.67,5.92 -17.89,15.6 -23.09,18.44l0.09 -23.39c4.25,-1.92 4.07,-0.3 6.19,-3.9l-29.25 0.18c1.33,3.6 2.21,1.54 7.03,4.24 0.7,5.42 2.18,44.7 -0.11,50.51l-3.94 5.99 26.83 -0.14c-2.43,-5.76 -8.71,3.87 -6.6,-27.73 6.33,3.49 7.74,7.5 12.65,13.24 6.98,8.12 8.02,6.99 2.21,14.15l7.99 0.01 0 -25.46zm0 -35.28l-3.09 -0.05 3.09 0.05zm-1155.65 -1231.89c-3.57,-18.1 -1.23,-40.93 9.19,-54.74 5.87,3.1 17.37,18.57 21.97,26.94 10.78,19.65 6.84,28.43 10.08,37.59 18.86,-2 -7.97,-28.16 87.05,-33.51 -4.23,10.19 -15.51,22.3 -23.1,28.76 -21.67,18.42 -30.99,23.28 -50.1,13.56 -10.56,-5.36 -7.91,-2.51 -19.36,-4.93 -7.75,-1.63 -28.43,-10.59 -35.73,-13.67zm-72.55 -127.84c5.23,-10.17 1.91,-20.95 16.37,-39.71 15.87,-20.62 48.28,-38.69 74.42,-30.05 17.67,5.81 19.38,12.47 27.82,26.66 25.82,-3.52 38.06,-6.74 55.76,9.81 18.8,17.6 12.15,30.16 11.28,55.67 22.01,0.76 33.9,9.45 41.37,24.69 24.24,49.43 -4.25,113.45 -64.54,110.85 5.34,-8.65 28.54,-13.18 49.97,-59.43 -7.06,-1.35 -44.83,-0.7 -52.65,0.34 -29.75,3.93 -30.68,13.7 -39.57,14.9 -11.37,-26.77 -22.76,-40.19 -41.69,-60.26 -7.29,8.26 -18.44,54.31 -19.76,66.38 -17.07,-0.34 -67.24,-30.89 -81.72,-48.78 -22.46,-27.73 -33.52,-76.47 22.94,-71.07zm-33.58 -28.81c12.72,-9.41 15.68,-10.53 30.14,-1.62 -1.55,4.1 -2.46,3.69 -3.81,8.78 -1.53,5.6 0.36,7.11 -3.98,9.34l-15.85 -0.41 -6.5 -16.09zm26.69 -19.14c1.85,-7.22 8.11,-8.84 15.06,-23.94 4.42,-9.62 6.17,-19.41 6.37,-30.89 11.37,2.52 23.12,15.62 22.17,30.91l-28.78 23.93c-6.85,4.34 -6.94,1.5 -14.82,-0.01zm241.59 -119.7c9.31,-0.99 34.01,19.69 44.46,24.87 -17.2,10.98 -45.59,-4.46 -44.46,-24.87zm60.03 -12.09c3.67,-28.23 4.41,-29.25 19.16,-52.9 4.09,-4.82 -0.11,-1.85 5.85,-4.86 8.4,22.42 21.9,33.4 22,63.7 19.31,-4.34 42.4,-13.24 59.76,2.3 -2.11,1.12 -17.35,4.36 -22.92,6.64 -24.11,9.83 -41.26,23.25 -64.08,15.39 -14.84,-5.11 -20.74,5.99 -45.02,-9.39 -6.6,-4.2 -10.7,-7.53 -17.29,-11.54 -7.29,-4.44 -13.62,-5.43 -20.29,-9.1 9.24,-18 29.11,-20.1 48.31,-7.67 5.43,3.53 7.79,7.52 14.52,7.43zm-232.22 -15.06c3.33,-4.33 4.1,-9.21 5.54,-14.59 8.55,-31.65 17.06,-56.16 28.28,-87.14 5.08,-13.93 3.75,-9.36 6.72,-11.5 5.48,8.94 13.8,19.29 20.44,29.1l36.07 60.11c3.62,7 12.92,25.93 16.93,30.95l39.88 -19.86 -1.84 100.92c13.17,-2.41 66.9,-19.94 74.06,-16.7 1.86,4.07 1.01,4.41 -1.51,9.9 -9.3,20.24 -20.17,38.16 -34.2,55.54 -11.12,13.79 -39.21,45.53 -50.89,52.94 -4.48,-8.37 -5.34,-19.45 -10.9,-28.81 -8.42,-14.16 -10.22,-9.79 -19.53,-18.93 -0.12,-13.15 13.36,-38.41 13.55,-48.81 -1.54,2.34 -7.01,7.14 -9.82,10.92 -9.5,12.85 -21.83,39.26 -30.73,34.2 -6,-7.52 -3.28,-25.67 -3.44,-38 -0.36,-27.58 -8.1,-81.29 -22.06,-100.45 -1.48,23.51 7.72,110.06 -5.24,123.02 -17.76,-2.81 -20.44,-38.94 -39.22,-40.85 0.43,12.06 4.53,13.03 3.54,25.98 -4.03,0.45 -8.26,-0.03 -12.11,0.63 -5.48,0.96 -3.16,2.18 -9.86,2.61 -4.13,-8.11 -5.65,-16.64 -10.88,-25.8 -4.97,-8.69 -10.83,-14.12 -14.95,-22.33l12.21 2.72c1.95,-9.23 -6.31,-45.85 -3,-76.8 5.54,-0.41 16.07,8.19 22.96,11.03zm210.07 -136.62c0,-31.67 9.03,-48.71 31.49,-58.68 42.24,-18.73 98.11,6.64 124.42,41.84 16.63,22.22 17.38,35.55 22.19,66.16 17.02,6.8 18.19,2.48 30.84,15.42 28.07,28.7 18.26,73.05 -7.45,96.35 -18.3,16.59 -15.89,5.33 -24.26,22.23 -10.63,21.46 -30.42,35.23 -55.44,36.43 -22.05,1.06 -18.38,-7.75 -27.27,-17.67 -12.04,2.4 -23.75,5.49 -28.54,-5.27 5.79,-3.27 14.56,-4.62 21.21,-7.34 31.04,-12.74 24.89,-20.5 61.74,-16.82 -9.47,-29.37 -33.04,-33.33 -68.83,-34.41l-21.03 -50.22c-1.82,-6.17 -2.07,-14.9 -4.62,-19.36 -7.42,4.43 -19.81,19.88 -25.57,28.85 -13.32,20.8 -11.07,28.89 -16.12,38.3 -25.63,-9.35 -19.53,-9.91 -50.44,-7.55l-0.43 -27.55c-8.82,1.85 -56.45,27.6 -47.32,2.86 2.71,-7.41 13.51,-17.87 16.32,-22.38 3.2,-5.17 3.36,-30.81 7.64,-42.02 9.67,-25.3 31.02,-32.78 61.47,-39.17zm-54.57 -110.44c4.17,3.51 12.73,16.25 16.51,21.39 8.35,11.45 30.29,36.49 28.67,45.81 -10.98,63.3 -23.9,2.59 -43.84,-13.82 1.08,11.16 11.39,48.75 6.75,55.1 -7.32,9.97 -28.68,-7.18 -48.56,-10.29 4.82,10.32 18.82,20.4 24.04,31.11 -23.25,52.7 -2.81,41 -18.05,63.26 -3.02,4.43 -6.39,11.16 -10.4,14.68 -2.93,-3.63 -7.2,-14.68 -9.86,-19.95l-35.5 -56.39c10.56,-17.99 16.7,-9.84 17.33,-30.43 0.41,-14.32 0.75,-29.44 1.87,-43.97 7.37,-3.28 31.43,-4.29 41.65,-4.93l29.39 -51.57zm497.42 39.22c-0.61,-40.28 35.71,-42.73 43.63,-31.76l-43.63 31.76zm-292.07 25.95c6.55,-9.47 65.93,-69.06 75.79,-74.39l14.66 30.27c17.13,-0.9 28.25,-6.51 43.91,-10.45 29.67,-7.45 42.28,-7.51 69.42,-4.75l-8.37 26.82c19.11,2.5 70.62,7.29 82.91,16.47 -0.07,0.07 -59.95,53.58 -72.08,66.91 -7.05,7.78 -14.39,16.23 -21.32,23.58 -30.03,31.72 -54.16,68.17 -79.26,103.76 -22.12,1.62 -22.78,-27.51 -22.04,-46.22 0.52,-12.8 -1.73,-19.92 9.84,-23.74 8.29,-2.73 19.59,-3.54 24.99,-8.85 -12.05,-4.77 -19.97,-7.34 -32.73,-9.28 -5.38,-0.83 -6.57,-0.94 -9.14,-3.57 33.88,-23.57 72.3,-43.45 108.46,-63.51 2.22,-1.64 1.41,-1.01 2.9,-2.61 -22.63,1.11 -60.19,10.9 -82.1,16.79 -28.74,7.72 -65.1,24.25 -72.32,26.03 3.08,-7.07 73.11,-79.47 74.17,-79.83 -14.03,5.52 -70.53,50.34 -82.44,54.03 -5.37,-15.69 -19.63,-26.41 -25.25,-37.46zm104.36 -64.74c-0.84,-17.69 2.65,-22.96 30.16,-32.8 2.97,4.19 4.21,11.12 4.71,17.07 -12.11,5.92 -20.65,11.19 -34.87,15.73zm73.79 -21.68l-20.08 3.04c-2.05,-5.47 -8.31,-18.16 -8.02,-23.03 4.14,0.16 8.51,6.38 13.47,10.07 4.72,3.49 10.39,5.87 14.63,9.92zm163.69 -0.85c13.35,-17.54 17.63,-28.93 19.77,-58.35l24.26 1.76c-2.11,8.87 -4.63,7.96 -2.83,18.99 7.02,4.42 20.93,4.94 28.59,9.44 -9.68,9.36 -51.53,27.39 -69.79,28.16zm-291.38 -107.56c3.68,3.78 4.48,4.41 7.03,8.98 27.98,50.43 16,30.91 44.23,52.79 -4.48,14.65 -32.32,11.39 -47.29,9.54l-3.97 -71.31zm177.71 116.99c-12.09,-3.38 -40.34,-14.14 -48.65,-20.08 -24.22,-17.29 -19.13,-36.8 -23.73,-42.01 -4.84,-5.47 -11.39,-6.19 -17.98,-15.75 -14.1,-20.44 -2.66,-60.67 9.54,-74.76 10.25,8.29 14.43,28.79 15.33,47.02 5.74,-0.08 22.31,-8.41 33.34,-9.86 16.64,-2.22 23.91,0.19 39.32,-5.11 -1.17,13.53 -11.75,29.25 -18.72,36.85 -10.33,11.24 -17.32,13.35 -32.26,22.07 3.42,6.19 20.08,14.11 29.4,23.36 8.39,8.31 14.34,21.05 14.41,38.27zm-199.31 -123.51c-0.75,-45.68 -9.59,-52.59 9.67,-62.04 2.86,12.49 11.33,21.88 10.76,35.74 -1.19,28.14 2.96,26.68 -20.43,26.3zm-141.23 4.21c3.22,-1.74 43.42,-46.89 56.88,-58.6 9.75,-8.47 52.58,-45.56 69.74,-45.49 1.53,15.73 -0.32,47.09 -1.17,63.95 -0.66,13.3 -5.9,50.9 -3.24,60.75 9.02,1.56 18.79,-4.81 26.89,-7.63 8.35,15.27 -3.96,74.74 -0.96,79.42 6.26,4.77 17.73,5.87 26.49,8.33 -4.25,6.68 -32.97,32.14 -39.89,40.36l-37.23 44.16 -35.48 -19.64c2.37,-5.93 40.23,-52.63 44.26,-53.96 -10.13,0.69 -58.69,37.54 -65.23,39.66 5.92,-32.82 29.32,-102.15 29.48,-104.54 -11.37,5.09 -57.94,87.86 -67.85,104.83l-2.7 -63.68c-12.08,14.2 -13.82,65.51 -20.39,76.08 -2.2,3.49 -10.08,13.92 -12.83,16.32 -9.34,-8.88 -18.08,-20.64 -27.67,-31.26 -27.19,-30.05 -24.37,-24.4 -23.7,-51.55 7.88,0.83 11.28,4.73 15.37,7.74 7.68,-19.9 18.76,-82.56 34.09,-100.37 5.47,-6.35 14.61,-19.81 21.13,-24.38l14.01 19.5zm250.61 -92.95c12.73,-23.39 46.73,-39.04 71.53,-20.78 16.78,12.38 7.57,-0.74 48.24,-2.77 53.19,-2.65 91.2,32.22 84.22,86.89 -1.87,14.63 -6.69,22.69 -9.3,34.11 -2.05,8.98 7,8.51 12.72,27.82 3.67,12.33 2.77,26.56 -0.09,39.12 -6.87,30.14 -28.64,34.22 -44.37,42.32 -5.54,2.86 -2.03,-1.55 -5.07,6.12 -7.42,18.67 -11.54,36.97 -36.53,38.36 -5.2,0.29 -35.9,-1.68 -39.8,-2.77 -2.95,-21.27 14.79,-19.92 16.46,-36.75 1.55,-15.65 -1.56,-31.07 -10.99,-42.75 -5.69,-7.03 -12.54,-10.25 -18.88,-16.7 4.56,-5.75 11.05,-9.55 16.34,-15.99 12.44,-15.15 28.27,-42.12 28.52,-62.4 -13.53,7.36 -18.44,8.56 -36.02,11.33 -9.79,1.53 -34.08,7.67 -40.49,7.71 -6.49,-21.96 -15.49,-46.86 -29,-59.94 -8.8,13.17 -19.16,37.95 -23.28,52.92 -7.83,28.59 4.03,45.75 6.24,54.57l-0.4 5.69c-7.72,7.25 -56.89,-19.98 -59.81,-77.19 -1.15,-22.5 6.32,-39.81 17.94,-51.36 13.89,-13.76 27.57,-16.59 51.82,-17.56zm126.91 -42.26c15.82,-44.47 45.63,-66.45 83.2,-87.13 29.08,-15.99 23.66,-12.27 24.76,11.66 15.58,-2.16 46.39,-15.26 61.88,-12.83 2.54,7.85 0.61,19.83 0.38,28.4 19.39,0.46 83.94,5.09 99.86,12.32 -0.59,7.77 -20.84,37.39 -25.97,46.08 -5.38,9.07 -24.77,38.69 -26.21,45.29 4.69,3.87 9.55,6.91 13.15,11.23 -2.12,9.84 -44.44,57.88 -53.24,67.33 2.05,9.23 11.55,12.45 14.3,22.44 -4.78,3.6 -17.9,5.92 -23.67,7.54 -26.81,7.5 -45.01,11.8 -75.27,14.34 -3.62,-21.86 -13.6,-19.6 -9.64,-33.49 3.4,-11.96 4.62,-26.72 7.97,-37.51l46.38 -0.29c-25.91,-15.98 -46.87,1.91 -51.31,-34.82 -1.12,-9.14 4.57,-10.24 11.48,-14.18 14.17,-8.04 60.94,-33.41 70.51,-41.4l-84.39 34.15c-9.25,-4.86 -12.75,-12.9 -21.46,-18.77 1.18,-13.74 10.9,-30.1 11.08,-41.27 -1.8,3.56 -20.58,28.82 -23.28,31.27 -8.82,0.43 -15.6,-4.53 -23.95,-6.69 -9.74,-2.5 -17.11,-2.02 -26.56,-3.67zm-40.86 -61.88c6.55,-0.36 39.51,-15.51 49.44,-19.45 8.78,-3.49 20.73,-11.79 20.98,1.47 0.31,16.61 0.62,16.41 -8.8,24.98 -7.52,6.82 -30.4,38.05 -37.01,49.59 -3.4,5.93 -1.69,6.19 -8.62,8.99 -7.64,3.1 -31.2,14.16 -22.9,-1.96 9.17,-17.9 29.63,-44.5 31.11,-48.09 -14.94,5.32 -29.53,23.1 -37.79,36.43 -13.73,22.19 -20.62,1.13 -53.99,18.14 -24.6,12.54 -18.86,19.32 -28.04,19 2.38,-13.39 40.22,-53.78 46.96,-61.7 -14.19,3.8 -49.82,43.17 -59.63,54.97 -8.38,10.09 -2.42,7.58 -17.65,11.03 -20.4,4.62 -35.01,21.3 -41.83,42.25l-0.61 -38c-0.09,-12.08 1.42,-13.7 10.36,-21.74l37.48 -41.08c19.52,4.16 0.83,12.62 27.67,-7.57 19.76,-14.85 63.11,-37.12 86.5,-43.4 1.64,6.35 1.78,11.03 6.37,16.14zm493.39 1043.64c5.24,-26.02 7.11,-47.88 17.71,-74.04 2.86,-7.04 7.07,-13.68 9.33,-20.69 -11.57,-7.81 -25.62,-5.69 -50.81,-22.33 -7.41,-7.63 -14.21,-15.87 -22.15,-22.78 -8.69,-7.52 -1.74,-13.68 -4.37,-21.27 -2.23,-6.48 -7.09,-11.68 -9.43,-21.38 -3.27,-13.62 -0.23,-42.84 11.98,-46.92 5.33,0.12 5.74,9.89 17.01,21.5 4.3,4.43 14.93,11.05 23.77,14.36 27.6,10.38 60.71,1.47 94.12,-2.81l0 -137.16c-94.46,2.79 -177.45,52.47 -227.83,131.48 -32.55,51.08 -50.49,120.75 -42.45,183.53 22.76,-0.27 72.3,-34.62 96.68,-22.96 28.34,13.56 57,28.88 86.44,41.47zm-42.45 -1206.91c10.57,-2.23 36.94,-0.85 49.23,-0.85l24.17 0.11c10.13,-0.13 10.42,-2.68 15.58,-7.97 13.06,-13.43 27.73,-26.72 40.63,-40.2l0 -38.18c-15.55,16.32 -33.52,32.82 -49.41,48.74 -14.07,14.13 -10.71,10.29 -47,10.29l-59.93 0 0.01 87.11c0.06,12.25 -3.32,13.08 -9.24,18.89 -9.45,9.32 -53.95,51.66 -58.25,59.54 3.96,6.55 48.35,49.61 57.49,58.7 13.69,13.6 9.93,10.22 9.93,47.1 0,16.66 -1.58,43.53 0.58,58.95l86.76 -0.11c12.11,0.05 13.12,4.55 18.89,10.33 16.58,16.66 33.8,33 50.17,49.77l-40.81 -79.95c-6.08,-6.33 -5.02,-7.32 -17.04,-7.32 -16.89,0.02 -59.99,1.17 -71.56,-0.41 -0.86,-15.66 -0.2,-33.06 -0.2,-48.89 0,-27.64 3.5,-27.82 -8.72,-39.84l-47.25 -48.33c2.86,-5.81 40.16,-41.65 47.97,-49.21 5.49,-5.31 7.99,-5.52 8.11,-16.39l-0.11 -71.88zm-370.28 1263.41l13.51 23.72c10.26,-2 72.07,-40.76 79.21,-41.79 6.68,-0.93 87.09,17.96 100.48,20.91l146.69 36.12c26.08,7.12 32.48,12.97 48.62,7.82 -8.29,-4.86 -20.76,-8.35 -30.35,-11.68 -46.01,-15.97 -29.39,-9.26 -32.64,-50.66 -9.22,-3.26 -41.85,14.48 -67.14,17.38 0.87,-14.6 5.22,-19.04 6.81,-30.59 -12.35,4.12 -40.67,17.45 -52.65,18.23 -7.76,0.5 -50.2,-11.84 -55.93,-15.33 42.31,-12.65 86.21,-28.63 129.18,-42.5 8.6,-2.78 24.06,-9.16 31.68,-10.42 11.63,-1.95 72.95,34.56 90.82,38.45 2.41,-4.3 2.12,-6.14 2.62,-11.5 -3.94,-3.72 -90.18,-45.16 -95.59,-45.65 -9.99,-0.9 -158.24,52.7 -186.77,62.57 -21.36,7.12 -33.33,-12.85 -56.7,-0.67l-71.85 35.59zm499.89 -1036.02c-82.64,-29.72 -85.02,-153.57 0,-184.41l0 -21.88c-107.76,3.44 -154.29,153.88 -49.34,213.58 14.07,8.01 31.58,12.35 49.34,13.14l0 -20.43zm-110.96 2071.46c3.13,3.96 2.75,0.86 7.84,4.46l3.82 51.23 -7.98 4.17 52.2 -2.91 1.39 -19.16c-5.44,4.51 -7.58,20.56 -29.35,15.78l-2.84 -23.31c12.94,0.94 8.24,7.36 14.9,12.4 0.54,-7.07 0.25,-26.57 -2.99,-31.22 -4.59,7.88 0.76,12.8 -11.23,14.13 -1.35,-3.49 -2.39,-12.76 -2.21,-16.74 0.38,-8.65 -0.63,-2.77 1.47,-5.57 3.62,-2.04 11.65,-2.31 16.31,0 6.96,3.42 3.41,7.77 10.11,11.1l-1.23 -16.79c-8.11,-2.52 -39.51,1.46 -50.21,2.43zm-133.53 43.31c-4.07,-2.92 -5.83,-3.19 -12.08,-1.57 -0.37,-12.29 2.76,-9.1 6.03,-16.95 -8.67,1.98 -14.7,12.06 -10.4,23.88 3.33,9.09 19.43,10.38 16.45,-5.36zm-235.14 -1045.86l7.47 12.09 24.87 -21.84 -32.34 9.75zm330.88 1038.48c10.58,-0.14 17.15,0.97 17.83,11.84 0.58,9.61 -4.66,12.87 -14.36,12.69l-3.47 -24.53zm-0.81 -4.08l-3.06 -22.39c12.67,-1.53 17.29,3.24 15.71,15.84 -5.36,5.29 -4.21,5.05 -12.65,6.55zm-25.39 -22.6l7.74 2.95 7.12 51.41 -7.64 4.12c4.42,0.63 59.93,0.57 52.74,-25.63 -2,-7.25 -7.38,-8.72 -16,-11.26 15.1,-6.75 11.95,-23.3 -0.92,-26.45 -8.94,-2.18 -35.91,1.21 -43.04,4.86zm-30.17 -721.03c2.3,12.45 9.28,6.68 11.46,14.13l1.06 5.88c7.09,-2.86 6.01,-1.74 4.48,-9.99 -0.94,-5.05 -0.56,-6.78 -2.88,-10.93l-4.8 5.36c-5.76,-3.17 -1.24,-2.23 -9.32,-4.45zm-255.15 -263.96c1.39,5.54 1.6,5.62 6.35,8.03 4.57,-3.15 7.94,-7.06 10.91,-11.43l-17.26 3.4z"/>
   </g>
   <g id="Слой_x0020_1_0">
    <path class="fil1" d="M6357.64 1433.87c-10.58,3.53 0,0 -7.06,7.06 -3.53,3.53 -14.11,14.11 -17.64,21.17 -24.7,31.75 -45.86,63.5 -70.56,91.73 -17.64,24.7 -31.75,45.86 -49.39,70.56 -24.7,38.81 -45.86,74.09 -70.56,112.89l-3.53 3.53c-24.7,42.34 -49.39,95.25 -70.56,130.53 -3.53,10.58 -10.58,24.7 -17.64,35.28l-21.17 42.34c-3.53,10.58 -7.06,24.7 -14.11,35.28 0,3.53 -3.53,7.06 -3.53,7.06 -17.64,45.86 -35.28,88.2 -52.92,137.59l-3.53 7.06c-10.58,35.28 -21.17,70.56 -31.75,105.84l-31.75 134.06c-3.53,17.64 -7.06,24.7 -10.58,49.39l-21.17 112.89c0,3.53 0,-3.53 -3.53,7.06l0 28.22c-3.53,14.11 -7.06,7.06 -3.53,35.28 0,14.11 -3.53,21.17 -7.06,35.28 0,17.64 3.53,45.86 -3.53,56.45 0,3.53 0,-3.53 -3.53,7.06 0,3.53 0,7.06 0,10.58 0,52.92 -3.53,257.54 0,278.71 3.53,21.17 0,0 3.53,14.11 3.53,17.64 -3.53,38.81 0,59.97l3.53 14.11c0,7.06 0,14.11 0,21.17l3.53 17.64c3.53,10.58 0,24.7 3.53,38.81 3.53,14.11 3.53,-3.53 3.53,14.11 0,7.06 0,14.11 0,17.64 3.53,17.64 3.53,-3.53 3.53,14.11 0,7.06 0,14.11 0,21.17 3.53,17.64 3.53,-7.06 3.53,14.11 0,7.06 0,14.11 0,17.64 3.53,17.64 3.53,-3.53 3.53,14.11l17.64 91.73c3.53,10.58 10.58,28.22 10.58,38.81 0,17.64 0,7.06 3.53,14.11 3.53,17.64 10.58,31.75 14.11,49.39 3.53,10.58 3.53,17.64 7.06,28.22 21.17,59.97 42.34,116.42 63.5,176.4 3.53,7.06 3.53,14.11 7.06,17.64 7.06,14.11 14.11,31.75 21.17,49.39 3.53,10.58 7.06,21.17 14.11,31.75l7.06 14.11c24.7,52.92 38.81,74.09 59.97,116.42 0,0 0,3.53 3.53,3.53l56.45 95.25c7.06,14.11 17.64,28.22 28.22,45.86l119.95 165.81 3.53 3.53c7.06,14.11 14.11,14.11 24.7,31.75 7.06,10.58 21.17,21.17 28.22,31.75 10.58,21.17 35.28,35.28 49.39,56.45 3.53,3.53 3.53,7.06 7.06,7.06 24.7,24.7 119.95,127.01 141.12,137.59l112.89 98.78 3.53 3.53 102.31 77.61 10.58 7.06c3.53,3.53 7.06,3.53 10.58,7.06 21.17,14.11 42.34,28.22 63.5,42.34 10.58,7.06 24.7,17.64 38.81,21.17l52.92 28.22c7.06,3.53 14.11,10.58 17.64,14.11 17.64,7.06 35.28,17.64 52.92,24.7l42.34 24.7c3.53,0 3.53,0 7.06,3.53l88.2 42.34c14.11,7.06 24.7,10.58 38.81,17.64 24.7,10.58 49.39,21.17 77.61,28.22 42.34,14.11 81.14,28.22 123.48,42.34 35.28,10.58 70.56,21.17 105.84,28.22 17.64,3.53 31.75,7.06 52.92,10.58l102.31 21.17c24.7,3.53 0,3.53 24.7,7.06l28.22 3.53c10.58,3.53 17.64,0 28.22,0 17.64,3.53 -3.53,3.53 24.7,7.06 14.11,0 28.22,0 38.81,3.53 14.11,3.53 31.75,0 45.86,3.53 24.7,3.53 0,3.53 21.17,7.06 28.22,3.53 56.45,-7.06 81.14,3.53 21.17,7.06 67.03,3.53 91.73,3.53l0 -762.03 -31.77 -0.06c-14.11,0 -24.7,-7.06 -38.81,-7.06 -21.17,0 -52.92,3.53 -70.56,-3.53 -7.06,-3.53 0,0 -10.58,-3.53l-38.81 -3.53c-3.53,0 3.53,0 -7.06,-3.53 -14.11,-3.53 -17.64,0 -38.81,-3.53l-21.17 0c-17.64,-3.53 0,-3.53 -14.11,-3.53l-21.17 -3.53c-7.06,-3.53 3.53,0 -7.06,-3.53 -10.58,-3.53 -10.58,0 -21.17,-3.53 -45.86,-10.58 -91.73,-24.7 -134.06,-38.81 -14.11,-3.53 -28.22,-10.58 -42.34,-17.64 -17.64,-7.06 -31.75,-10.58 -49.39,-17.64 -14.11,-3.53 -28.22,-14.11 -42.34,-17.64 -10.58,-3.53 -21.17,-7.06 -31.75,-14.11 -31.75,-17.64 -63.5,-35.28 -98.78,-52.92l-59.97 -35.28c-7.06,-3.53 -10.58,-7.06 -14.11,-10.58 -21.17,-14.11 -38.81,-28.22 -59.97,-42.34 -10.58,-7.06 -21.17,-17.64 -31.75,-24.7 -7.06,-3.53 -14.11,-10.58 -17.64,-14.11l-28.22 -24.7c-7.06,-7.06 0,0 -7.06,-7.06 -3.53,-3.53 -7.06,-3.53 -10.58,-7.06 -7.06,-7.06 -127.01,-119.95 -134.06,-134.06l-28.22 -35.28c-7.06,-14.11 -17.64,-21.17 -24.7,-35.28l-21.17 -28.22c-3.53,-3.53 0,0 -7.06,-7.06l-88.2 -137.59c-10.58,-21.17 -24.7,-45.86 -35.28,-67.03l0 -3.53c-3.53,-14.11 -10.58,-28.22 -17.64,-38.81 -10.58,-21.17 -24.7,-45.86 -31.75,-70.56 -3.53,-14.11 -10.58,-24.7 -14.11,-38.81 -7.06,-21.17 -14.11,-42.34 -21.17,-63.5 -3.53,-10.58 -3.53,-21.17 -7.06,-28.22l-24.7 -105.84c-3.53,-21.17 0,0 -3.53,-14.11l-3.53 -31.75c-3.53,-7.06 0,0 -3.53,-10.58l-3.53 -28.22c-3.53,-10.58 0,-21.17 -3.53,-31.75 0,-3.53 -3.53,-3.53 -3.53,-7.06 -7.06,-17.64 0,-38.81 -3.53,-56.45 0,-3.53 -3.53,-10.58 -3.53,-14.11 0,-14.11 0,-31.75 0,-45.86l0 -130.53c0,-14.11 0,-24.7 3.53,-35.28 7.06,-17.64 0,-35.28 3.53,-52.92 3.53,-14.11 7.06,-7.06 7.06,-28.22 0,-17.64 3.53,-21.17 7.06,-38.81l3.53 -17.64c3.53,-10.58 0,-21.17 3.53,-31.75 3.53,-7.06 3.53,-14.11 3.53,-17.64l14.11 -63.5 0 -3.53c10.58,-38.81 24.7,-81.14 35.28,-119.95l14.11 -35.28c7.06,-17.64 14.11,-35.28 21.17,-56.45 14.11,-28.22 31.75,-59.97 45.86,-88.2 3.53,-10.58 10.58,-21.17 17.64,-31.75 21.17,-31.75 42.34,-67.03 59.97,-98.78l116.42 -148.17c0,0 3.53,-3.53 3.53,-7.06l127.01 -123.48c14.11,-10.58 21.17,-24.7 38.81,-35.28 10.58,-7.06 14.11,-14.11 24.7,-21.17 17.64,-10.58 35.28,-28.22 52.92,-38.81 17.64,-10.58 38.81,-24.7 56.45,-35.28l3.53 -3.53 59.97 -35.28c21.17,-10.58 42.34,-21.17 59.97,-35.28 21.17,-10.58 52.92,-21.17 63.5,-28.22l10.58 -7.06 179.92 -63.5c3.53,0 3.53,0 10.58,0 14.11,-3.53 31.75,-10.58 45.86,-14.11l88.2 -17.64c10.58,-3.53 17.64,0 35.28,-7.06 10.58,-3.53 21.17,0 28.22,-3.53 21.17,-3.53 3.53,-3.53 42.34,-3.53 0,0 10.58,0 10.58,0 7.06,-3.53 3.53,3.53 7.06,-3.53l127.01 -7.06c7.06,-7.06 3.53,0 7.06,-7.06l0 -747.92c-14.11,-3.53 3.53,0 -10.58,-3.53 -3.53,0 -7.06,0 -14.11,0l-3704.33 0c-10.58,0 -17.64,0 -28.22,0 -3.53,0 -14.11,0 -14.11,0 -17.64,3.53 -7.06,-3.53 -10.58,7.06 -7.06,3.53 -3.53,0 -3.53,7.06l0 740.87c3.53,7.06 0,7.06 7.06,7.06 3.53,7.06 0,7.06 24.7,7.06 158.76,-3.53 338.68,0 497.44,0l1587.58 0.05c-3.53,7.06 -3.53,10.58 -10.58,10.58l-14.12 -3.53 0 0z"/>
   </g>
  </g>
 </g>
</svg>
