<?xml version="1.0" encoding="utf-8"?>
<!-- Generator: Adobe Illustrator 24.0.2, SVG Export Plug-In . SVG Version: 6.00 Build 0)  -->
<svg version="1.1" id="Слой_1" xmlns="http://www.w3.org/2000/svg" xmlns:xlink="http://www.w3.org/1999/xlink" x="0px" y="0px"
	 viewBox="0 0 238.1 150.2" style="enable-background:new 0 0 238.1 150.2;" xml:space="preserve">
<style type="text/css">
	.st0{fill-rule:evenodd;clip-rule:evenodd;fill:#373435;}
</style>
<g id="Слой_x0020_1">
	<path class="st0" d="M21.3,15.4c0.2-0.8-0.5-1-1-1.4c-0.3-0.2-1.3-1-1.6-0.5c-0.3,0.5,0.7,1,1,1.2C20.1,15,20.7,15.7,21.3,15.4z
		 M209.6,33.7c0.7-0.6,0.4-2.9,0.4-4c0-0.7,0-1.5,0-2.2c0-0.9,0.2-1.4-0.5-1.7c-0.8,0.4-0.5,2.5-0.5,4c0,0.8,0,1.5,0,2.3
		C209,33,208.8,33.6,209.6,33.7z M116.5,114.4c0.8-0.3,2.6,0.2,3.4,0.4c1.5,0.4,1.9,0.5,3.5,0.7l3.8,0.5c1.3,0.3,2.2,1.5,0.8,2.1
		c-1.2,0.5-5.6,1.1-7.2,0.5c-1.5-0.5-2.1-1.7-3.5-2.8C116.9,115.4,116.4,115,116.5,114.4L116.5,114.4z M99.1,104.6
		c0.5,0.2,4,2.5,4.6,2.9c2.7,2,3.2,1,6.3,4.9c1.7,2.2,1.9,2,4.1,3.4c0.8,0.5,1.9,0.9,1.7,1.9c-1.3,0.5-4.5-0.6-5.7-1
		c-1.9-0.6-3.3-1.4-4.8-2.3c-4.5-2.6-2.6-4.6-6.3-6.1c-0.6-0.2-0.8-0.3-1.1-0.8c-0.8-0.4-0.6-1.6-0.5-2.2
		C97.8,104.1,98.8,104.2,99.1,104.6z M139.6,111.2c-0.3,0.4-0.9,0.7-1.4,1c-2.5,1.6-7,2.3-9.7,2.1c-5.6-0.4-6.6-0.3-12-2.3
		c-1.2-0.4-2.2-1-3.4-1.4c-0.6-0.2-1.8-0.7-2.3-1.2c-0.7-0.7-0.2-0.8-0.2-0.8c0.7-0.4,2.4,0.6,3.1,0.9c1.6,0.7,8.5,2.4,10.3,2.5
		c1.3,0.1,2.9-0.1,4.2,0c2.8,0.4,6.3-0.5,8.9-1.6c0.6-0.3,0.9-0.6,1.5-0.8c0.3-0.6,1.8-1.1,2.4-4c0.7-3.4-1.4-3.5-0.6-5.2
		c1.4-0.4,6,0.1,3.7,5.1c-0.9,2-2.1,3.8-3.8,5.1L139.6,111.2L139.6,111.2z M139,105.9c-1.4,4.4-8.7,5.2-12.5,4.6
		c-2-0.3-1.6-2.8-5.1-3.3c-1.3-0.2-2.6,0.1-3.5-0.8c-0.5-0.5-0.4-0.9-0.4-1.7c-0.1-0.8-0.4-0.9-0.6-1.5c-0.3-0.1-1.2-0.8-1.7-1.2
		c-0.6-0.5-1.4-0.8-1.1-1.8c0.4-0.2,3.7-0.4,4.3-0.4c1.5,0,3,0.3,4.5,0.1c1.4-0.2,3-0.2,4.4-0.4c1.5-0.2,2.1,1,2.8,1.8
		c0.6,0.7,1.9,1.7,3.2,1.3c1.4-0.4,1.8-1.5,2.8-1.9C138.5,99.9,140.2,103.8,139,105.9z M110.1,100.1c0.7,0,2.4,1.8,3,2.3
		c1.6,1.2,2.4,1.2,2.4,3.1c0.1,1.6,1.3,2.2,0.7,2.7c-0.5,0.5-3.8-0.9-4-1.1c-0.7-0.2-1.5-0.6-2.1-0.9c-2.9-1.2-8.2-4.4-10.7-6.4
		c-0.9-0.7-1.3-0.9-1.2-1.6c1.3-0.5,4,0.6,5.9,0.8c0.6,0.1,1.1,0.1,1.7,0.1c0.7,0,0.8,0.1,1.4,0.1
		C108.3,99.3,109.5,99.4,110.1,100.1L110.1,100.1z M133.6,94.8c1.2-0.4,2.7,1.5,2.3,2.8c-0.2,0.6-1.1,1-1.4,1.4
		c-0.4,0.4-0.7,1.2-1.3,1.4c-2.1,1-3.6-2.3-1.4-4.5C132.7,95.2,132.4,95.2,133.6,94.8L133.6,94.8z M121.4,96.5
		c-1.6,0.6-2.8-2.9-2.2-4.3c0.2-0.6,1-1.9,1.6-1.9C121.8,90.4,121.5,95.5,121.4,96.5z M104.3,96.1c-0.5-1-1.1-9.9,1.2-6.3
		c1.9,3.1,1.6,3.2,0.3,5.3C105.4,95.7,105.3,96.3,104.3,96.1z M151.8,89.3c-1.4-1.5-2-1.7-3.8-2.6c-0.7-0.4-1.7-0.7-1.6-1.6
		c1.2-0.8,4.2,0.7,4.9,1.3c0.6,0.5,1.2,0.9,1.8,1.4C155.2,89.7,153.8,91.4,151.8,89.3z M81.9,90.3c1,0.8,0.7,2.4,0.6,3.5
		c-0.1,1.2-0.7,2.7-0.2,3.7c0.7,0.1,0.6-0.1,1-0.4c0.7-2.2,0.6-4.1,0.8-4.5c0.6-1.5,2.5,0.3,3,0.9c0.1,0.1,4.8,4.8,4.9,5.2l0.7,0.6
		c0.3,0.3,0.4,0.4,0.7,0.6c5,5.2-0.3,7,3.5,9.2c0.6,0.4,2.7,0.9,3.1,2.1c1.4,1,0.4,4.5,13.2,8c2.8,0.8,4.2,1.3,7.3,1.2
		c1,0,3.4-0.2,4.1,0.1c0.2,1.1-0.4,1.2-2.2,1.5c-1.3,0.2-2.2,0.1-3.5,0.2c-2.4,0.2-4.8,0.3-7,0c-2-0.3-4.5-0.7-6.3-1.1
		c-0.6-0.1-5.1-1.3-5.7-1.9c-0.8,0-5-2.7-5.9-3.6c-0.6-0.6-1.1-1.3-0.3-2.2c3.7-4.5-4-4.3-5.1-5.8c-1-0.2-3.1-3-4.2-2.1
		c-0.8,1.2,3.2,3.6,4.4,4c0.7,0.3,2.6,0.7,3.1,1.1c0.6,0.5,0.3,1.1,0,1.5c-1.4,2.1-1.6,1.9-3.6,0.4c-2.2-1.8-2.3-1.6-4.5-4l-2-2.3
		c-0.2-0.1,0,0-0.2-0.1c0,0-0.1-0.1-0.1-0.1c-1.9-1.6-5.9-8.3-6.5-10.2l-1.3-3.2c-0.3-1.1-0.8-2.2-1.1-3.4c-0.2-0.6-0.3-1.2-0.4-1.9
		c-0.2-1.1-0.9-2.5-0.3-3.6c0.2-0.4,0.9-0.8,1.5-0.4c1,0.6,0.1,2,1.3,2.7c1.6,0.9,2.7-0.7,5.8,2.2C80.8,88.5,81.9,89.7,81.9,90.3
		L81.9,90.3z M104.4,78.4c0.7,0,1,0.7,1.4,1.2c1.6,2.7,1,2.8-0.3,5.1c-0.2,0.4-0.9,1.3-1.3,0.3c-0.3-0.7-0.2-3.8-0.2-4.7
		C103.9,79.2,103.8,79,104.4,78.4z M138.5,85.4c-0.2,0.2-1.3,0.4-1.7,0.3c-0.3,0.3-2.1,1.1-3,1.6c-0.9,0.5-1.6,1.9-2.6,1.5
		c-0.7-0.8-0.5-5.2-0.6-6.7l0-13.8c0-1.3-0.3-3.6,0.5-4.1c0.7-0.4,1.7,0.5,2.1,1c0.4,0,0.6,0.3,0.8,0.5c0.5,0.1,1.1,0.7,1.6,0.9
		c0.5,0.3,1.1,0.5,1.7,0.6c1.6,0.5,2.2,0.2,2.5,2.3l-0.1,0c0.4,0.6,0.1,12,0,12.8C139.8,83.9,139.9,85,138.5,85.4L138.5,85.4z
		 M120.5,85.3c-0.5-0.7-1.3-1.9-1.3-3.1c0-1.2,0.5-2.5,1.1-3.2c0.5-0.5,1-0.3,1.1,0.4c0.2,1.2-0.2,1.9,0.1,4c0.1,0.7,0,1.3-0.3,1.7
		L120.5,85.3L120.5,85.3z M68,71.3c0-0.7,0-1,0.3-1.5c0.9-0.2,1,0,1.4,0.5c1.9,2,4.6,2,4.1,5.1c-0.2,1,0.2,2.2,0.1,3.4
		c-0.3,2-2.5,2.5-3.8,3.7c-0.4,0.4-1.9,1.7-2.1,0.1c-0.2-1.7-0.2-7.8-0.2-9.5C67.8,73.1,68,71.3,68,71.3z M103.9,69.2
		c0-0.8,0-0.9,0.4-1.4c0.9,0,1.1,0.7,1.6,1.3c0.4,0.6,0.9,1.2,0.9,2.1c0,1.8-2.7,5.3-2.7,2.3c0-1.5-0.1-1.1-0.2-2.2V69.2z
		 M120.9,73.7c-1-0.1-2-1.8-1.8-3c0.1-1.1,0.8-3,2.1-2.8c0.3,0.7,0.3,2.1,0.2,3C121.2,71.9,121.4,73.1,120.9,73.7z M76,69.5
		c0.6,0.2,0.5,0.9,0.4,1.4c-0.1,1.3,0.2,2.1,0.1,3.3l-0.1,5.6c0,1.3,0.4,2.5-0.3,3.6l-0.8-0.1l0-6.4c0-1.2-0.2-2.4-0.1-3.5
		c0-0.6,0.3-0.9,0.3-1.5C75.6,71.5,74.7,69.1,76,69.5z M145.6,70.1c-0.2,1.4-0.7,1.5-1.1,4.2c-0.2,1.6-0.8,2.5-0.8,4.3
		c0,0.9,0,1.7-0.1,2.6c-0.1,0.5-0.1,1.9-0.1,2.4c0.1,1.3,0.5,3.9-1.2,3.8c-0.7-0.5-0.6-1.1-0.6-2.2c0-0.9-0.1-1.7-0.1-2.6
		c0-1.8,0-3.6,0-5.4l-0.2-9.5c0-1.1,0-0.9,0.2-1.1c-0.2-1.1,1-1.6,2-1.7c0.8-0.1,2.4-0.6,2.9-0.3C147.7,65.4,145.7,69.9,145.6,70.1
		L145.6,70.1z M66.2,69.3c0,1.1,0.2,2,0.1,3c-0.3,3.1,0,16.7-0.3,17.7c-0.3,1-1.3,1-1.7,0.1c-0.5-1-0.3-9.8-0.3-11.7
		c0-2.8,0.3-9.3,0-11.7c-0.2-1.3-0.1-4.1,1-4.6c1.6,0.1,1.1,1.9,1,3.1C66,66.4,66.3,67.9,66.2,69.3z M84.8,66.3
		c-0.1,1.1-0.4,8.2,2.1,7.3c0.3-0.8-0.3-1.9-0.4-2.8c-0.3-1.8-0.2-4.5,0.6-6.1c0.3-0.5,0.8-1.7,1.4-2c0.1-0.3,0.6-0.8,0.9-1
		c0.4-0.4,2.2-1.6,2.8-1.9c1.1-0.7,1.9-1.1,3.1-1.7c1.2-0.6,6.8-3,6.9-0.4c0.2,0.2,0.1-0.2,0.1,0.4l0,1.7c0,0.7,0,1.4,0.1,2.1
		c0.2,1.6,0.1,8.8-0.1,10.8c0,0.7,0.1,1.5,0,2.2c0.3,0.3,0.2,0.8,0.2,1.3L102.4,93c0,1.7,0.5,3.8-1.6,3.6c-1.5-0.1-5.4-0.8-3.9-3.1
		c2.8-4.3,1.4-6,1.3-8.1c-0.2-0.4-0.4-1.3-0.7-1.8c-0.3-0.6-0.7-1-1-1.5l-1-1c-0.5-0.4-0.6-0.6-1.1-1c-0.8-0.6-1.6-1.6-2.7-1
		c-0.3,1.5,2.2,2.1,2.6,3.2c0.4,0.2,0.5,0.3,0.8,0.7c0.3,0.4,0.5,0.6,0.6,0.9c0.3,0.3,0.4,0.5,0.4,1c0.5,0.5,0.9,3,0.9,3.6
		c0,1.1-0.4,2.6-0.9,3.5c-1.6,2.9-5.3,1.8-6.2,0.9c-0.5,0-0.3-0.1-1-0.5c-0.7-0.4-2.4-1.1-2.8-1.7c-0.6,0-4.2-2.9-4.4-3.3
		c-0.4-0.1-0.8-0.5-1.1-0.9c-0.7-0.8-2.1-1.4-2.6-3.3c-0.4-1.5-0.2-5.7-0.2-7.6c0-2.4-0.4-5.5,0.8-7.2c0.5-0.8,3.4-3.3,4.2-3.7
		c0.1-0.3,0.5-0.5,0.9-0.7C86.2,62.6,84.9,66.3,84.8,66.3z M161.5,81.1c-0.3,1.4-0.3,2.9-0.6,4.4c-0.2,0.8-0.8,3.4-1.1,3.7
		c-0.1,1.1-1.9,6-2.5,6.7c-0.6,1.9-3.2,5.7-4.4,7.3c-0.4,0.6-1.1,2-2.1,1.5c-0.3-0.7,0.4-3.2,0-4.9c-0.5-1.7-1.4-2-2.5-2.9
		c-0.9-0.7-1.9-2.7,0.1-3.1c1.6-0.3,2.9-0.4,4.5-0.9c0.4-0.3,0.9-0.4,1.4-0.9c2.4-2.1,1.8-1.5,3-3.7c0.1-1.2,1.2-2.8-0.7-4.5
		c-1.2-1.1-1.9-0.9-1.9-2.8c0-0.3,0-0.5,0.1-0.7c0.1-0.4,0.1-0.3,0.3-0.4c0-0.7,1.4-3,1.7-4c0.9-2.4,1.7-7.6,1.4-10.1
		c-0.2-1.1-0.7-4.1-0.1-5c1.3,0.1,1.6,2.9,2,4.1c0.5,1.4,1.8,9,1.8,10.5L161.5,81.1L161.5,81.1z M129.4,62.7
		c0.1,0.2,0.1,12.4-0.1,13.3c0.2,0.3,0.1,0.4,0.1,0.9l-0.1,6.3c0,1.6-0.2,2.4,0,4c0,0.4,0.1,4.1-0.1,4c0,0.8-0.1,1.9,0,2.7
		c0.1,0.9,0.3,1.4,0.1,2.4c-0.3,2.2-1.3,1.7-3.2,1.6c-3.6-0.3-2.9-1.4-2.9-7.3c0-1.2-0.2-2.2-0.2-3.3c0-1.3,0.2-2.3,0.2-3.5
		c0-1.2,0-2.4,0-3.6c0-0.7-0.2-3,0.1-3.4l0-8.9c0-1.5,0-3,0-4.5c0-1.7-0.3-4.9-0.1-6.6c0.2-2.2,3.8-2,4.9-1.7
		C130.1,55.6,129.2,59.2,129.4,62.7L129.4,62.7z M104.1,58.2c0-3.6,2.5,0.6,2.6,1.7c0.1,1.1-0.3,1.8-0.8,2.7
		c-0.4,0.7-0.8,1.9-1.7,1.7c-0.3-0.4-0.2-0.4-0.2-1C103.9,63.4,104.1,58.2,104.1,58.2z M121.2,62.8c-1,0.1-1.4-0.7-1.8-1.5
		c-1-2.4,0.7-4.6,1.4-4.7c1.3-0.2,0.6,1.7,0.6,2.5C121.4,60.4,121.6,62.1,121.2,62.8L121.2,62.8z M118.1,56.8c0,1-1.5,2.7-0.2,5.5
		c1.1,2.2,2,2.2,0.7,4.8c-1.7,3.3-1.9,4.7-0.1,7.6c0.3,0.5,1.1,1.8,0.7,2.3c-0.2,0.9-0.9,2-1.2,2.4c-0.1,0.2-0.6,1.7-0.7,1.8
		c-0.1,2.7,0.4,2.7,1.2,4.6c1,2.2,0.3,2.3-0.3,4.3c-0.4,0.9-0.8,1.8-0.8,2.8c-0.1,1.2,0.5,2.2,0.6,3c0.2,0.2,0-0.3,0.3,0.4
		c0.1,0.2,0.1,0.3,0,0.5c-0.1,0.5-0.1,0.6-0.5,0.6c-0.2,0.2,0,0.1-0.3,0.2c-0.4,0.1-1.7,0-2.6,0.1c-1.9,0.3-3.9,0.2-5.8,0.1
		c-1.1-0.1-1.7,0-2.1-0.8c-0.1-1.7,2-2.7,1.3-5.5c-0.2-0.5-0.4-0.9-0.7-1.4c-0.3-0.5-0.6-0.8-0.8-1.4c-0.5-0.4-0.4-2-0.1-2.6
		c0.1-0.3,0.4-0.8,0.6-1.1l0.4-0.7c0.1-0.1,0.1-0.2,0.1-0.2c0.4-1,0.9-1.5,0.7-2.9l-0.3-0.9c-0.3-0.3-1.5-2.4-1.7-2.9
		c-0.3-1.3,0.1-2.1,0.5-3.1l1.3-2.4c0-0.7,0.2-0.7,0.1-1.4c-0.1-0.6-0.2-0.8-0.4-1.3c-0.3-0.7-1-1.6-1.1-2.2c-0.7-0.7-0.6-2.2-0.1-3
		c0.5-0.9,1-1.3,1.4-2.3c1.3-2.9-1.2-4.2-1.2-5.4c0-1.1,1.7-1,2.5-1.2c1.5-0.3,5.5-0.3,7.2-0.2C118.7,55.1,118.4,56.4,118.1,56.8
		L118.1,56.8z M94.6,52.2c1.1-0.4,5.8,0.3,5.8,0.3c0.4,0.2,0.4,0.8,0.2,1.2c-0.5,1.2-1.9,1.6-2.9,1.9c-6.1,1.8-6.1,1.6-11.1,4.8
		c-2.3,1.5-3.1,0.8-1.3-1.6c1.6-2.2,3-1.5,4.5-1.9c0.7-0.2,1.4-0.8,1.8-1.4C93,53.5,92.4,53,94.6,52.2z M125.4,49.8
		c0.4,0.1,0.6,0.4,1.1,0.6c1.9,0.8,3.9,0,7.2,1.3c0.4,0.2,1.9,0.8,2.2,1.2c1.6,0.3,4.6,3.7,5.5,4.7c0.7,0.9,2.9,3.8,2.5,5
		c-0.2,0.7-0.8,0.9-1.6,0.9c-2.3,0.1-1.9,1.4-3,2.1c-1.1,0.7-2.9-0.4-3.8-0.9c-2-1-4.7-3.7-4.4-5.7c-0.6-0.6-0.2-3.2-0.4-4.1
		c-0.3-1.3-1.2-1.5-2.8-1.7c-1.4-0.2-2.9,0-4.2,0.1l-4.1-0.1c-0.3,0.2-0.4,0.1-1.1,0.1l-3.6-0.1c-1.7-0.2-2.9,0.1-4.5,0.1
		c-0.3,0.3-1.1,0.1-1.9,0.2c-1.2,0.2-4.3,0.6-5.2,0.1c-0.3-1.3,0.7-2.4,1.3-3.2l2.2-2.2c1.2-1.3,3.6-2.7,5-3.7
		c2.3-1.5,3.5-2,6.5-2.4c1.7-0.2,2.1-0.2,3.8,0c0.7,0.1,3.4,0.3,3.7,0.7c1-0.1,2.5,0.7,2.5,1.9c-0.5,0.9-1.9,0.9-2.8,1.8
		C124.1,48.3,125,48.9,125.4,49.8L125.4,49.8z M132.1,34c0.9,0,4.1,2.1,5,2.8c0.7,0.6,1.6,1.1,2.3,1.7c0.5,0.4,1.6,1.3,1.9,2
		c0.3,0.2,0.4,0.3,0.7,0.7l4,5.2c0.4,0,0.5,0.2,0.8,0.1c0.7-0.3-0.1-1.4,0.1-2.4c0.9-0.1,1.7,1,2.1,1.5c0.5,0.7,1,1.3,1.5,2.1
		c0.9,1.6,2,2.9,2.6,4.7l1.5,4c0.3,0.8,0.4,1.5,0.6,2.3c0.2,0.8,0.5,1.4,0.6,2.3c0.2,0.5,0.3,1.5,0.2,2l0.5,2.4
		c0.2,2.2,0.1,5.5-0.3,7.4c-1,4-1.4,3.5-2.3,5.9c-0.1,0.3-0.6,1.7-0.7,1.8c-0.2,0.8-0.2,1.2-0.1,2.2c0.3,0.3,0.4,0.7,0.7,1.2
		c0.8,0.9,2.9,1.8,2.1,3.1c-0.9,1-1.8-0.5-2.3-0.9l-2.1-1.5c-1.1-0.4-1.6-0.8-2.8-1.1c-1-0.2-2.2-0.3-2.9-1
		c-0.6-0.6-1.7-4.1,1.3-5.2c0-0.2,0.6-0.5,0.9-0.7c0.4-0.3,0.7-0.5,1-0.8c1.1-0.9,4.1-4.9,4-6.6l-0.1-0.2c-1.1-0.1-1.4,0.6-1.9,1.5
		c-0.7,1.2-3.8,6.1-5.1,4.3c-0.4-0.6,0.3-2.4,0.5-3.2c0.2-0.6,0.2-0.6,0.4-0.9c0-0.5,0.9-3.2,1.1-3.9c0.2-0.6,1.7-2.7,1.9-2.9
		c0.1-0.6,0.3-1,0.5-1.5c0.1-0.4,0.2-1,0.3-1.6c0.2-1.9,0.2-1.5-0.3-3.1c-0.4,0-0.5,0.2-0.7,0.4c0,0,0,0.1-0.1,0.1
		c0,0,0,0.1-0.1,0.1c0,0.3-0.2,2.4-0.3,2.9c-0.5,1.9-3.2,1.3-4,0.3c-0.3-0.3-0.9-1.7-0.9-2.1c-0.5-0.3-1.1-1.4-1.4-1.9
		c-0.5-0.7-0.8-1.1-1.3-1.8c-1.3-1.7-2.9-2.1-2.8-3.4c0.8-0.5,1.1-0.1,1.8-0.3c0.7-0.2,0.7-0.5,1.1-0.8c0.6-1.4-0.1-2.2-0.7-3.2
		c-0.5-0.8-1.3-2-1.9-2.5c-1.4-1.2-2.8-2.3-4.4-3.2l-0.5-0.4c0,0,0,0-0.1-0.1c-0.8-0.3-1.3-0.7-2-1c-0.9-0.4-1.2-0.5-2-1
		c0-0.7-0.1-0.7,0.2-1.3c0.5-1.4-0.2-1.5-0.9-2.5c-0.7-0.3-1.2-0.7-1.9-1c-1.5-0.7-2.6-0.8-3.9-1.3c-2.2-0.8-3.5,0.2-0.5,1.5
		l0.3,0.1c0.7,0,1.6,0.5,2.4,0.7c3.6,1.2,0.7,1.8,1.3,3.6c0.2,0.8,1,1.2,1.4,1.6c2.2,0.3,5.3,2.1,7,3.3c1.4,1,3,2.2,3.9,3.8
		c0.5,0.8,0.5,1.1-0.1,1.7c-1.4,0.1-1.7-0.7-3.3-0.2c-1.1,0.4-2.1,0.6-3.3,0.3c-1.6-0.4-1.7-0.3-3.2-0.5c-0.9-0.1-2.6,0-2.8-1
		c-0.1-1.1,1.3-1.1,2.1-1.5c2-1.1,2.2-2.7,0.2-4.3c-1.4-1-1.1-0.6-2.3-1c-0.3-0.1-0.1,0-0.2-0.1c-1.2-0.1-2.3-0.5-3.4-0.6
		c-0.5,0-3.2-0.4-3.3-0.5c-2.1-0.2-4,0.2-5.9,0.6c-0.4,0.2-1.5,0.3-2,0.4c-0.9,0.2-1.2,0.3-1.9-0.1c-0.1-0.8,0.4-0.8,0.8-2.5
		l-1.1-1.4c-0.5-0.3-1-0.6-1.6-0.6c-0.8,0-2.9,0.7-3.8,1c-0.7,0.2-2,0.6-1.5,1.4c0.6,0.8,3.4-0.1,4.1-0.3c1.2-0.3,1-0.2,1.2,0
		c1.4,1.2-2.4,1-3.4,2.6c-1.5,2.2,1.3,3.8,1.7,4.1c0,1-0.6,1.2-1.4,1.7c-1.6,1-4.5,3.3-6,3.3c-0.8,0.7-4.4-0.8-7.1,1.6
		c-0.5,0.4-0.6,0.8-1,1.2c-0.3,0.3-0.1,0.1-0.3,0.3c-0.6,1.2-1.5,1.5-3.1,1.9c-0.9,0.2-1.1,0.3-1.8,0.8c-0.5,0.4-0.8,0.9-1.3,1.2
		c-0.1,0.4-0.3,0.5-0.6,0.8c-1.3,1.3-2.6,3.9-3.4,5.6c-1.2,2.2-1.7,2.9-3.8,3.1c-4.9,0.4-2,2.4-3.6,3.3c-0.9,0.4-1.5-0.3-1.7-1
		c-0.2-0.8,0.1-1.6,0.3-2.4c1-4.4,1-4.3,3.2-8.3c0.6-1.1,1.4-2.4,2.2-3.5c0.7-1.1,1.7-2.3,2.5-3.1c0.8-0.8,3.5-3.3,4.5-4
		c1.4-1,3.9-2.9,5.5-3c0,1.3-0.7,1.2-0.6,2.9l0.2,0.4c0.4,0.9,1.2,1.7,2.3,1.2c0.9-0.3,2.6-2.7,3.3-3.5c0.8-1.1,2.8-2.7,2.8-3.9
		l-0.5-0.1c-0.6,0.5-0.3-0.1-1.8,1.3c-0.5,0.5-0.9,1.1-2,1c-0.6-0.9-0.8-1.6-2.2-1.7c-2-0.2-3.8,1.3-5.3,2.3
		c-1.3,0.8-1.4,1.3-2.3,0.8c0-1.4,3.2-3.4,4-3.9c0.8-0.5,1.4-1.2,2.1-1.9c2-1.8,5.4-3.1,8-4c2-0.6,4.1-1.5,6.5-1.5l2.3-0.2
		c0.9-0.1,1.8-0.3,2.7-0.4c0.9-0.1,5-0.1,6,0.1c1,0.1,1.8,0.4,2.4-0.4c-0.3-1-1.1-0.7-1.7-1.5c0.1-0.4,0.2-0.5,0.7-0.6
		c1.8-0.3,3.9-0.1,5.7,0.2c2.1,0.4,7.8,1.5,9.5,2.5L132.1,34L132.1,34z M100.4,32.3c-0.3,0.3-0.8,0.3-1.2,0.5
		c-2.5,0.8-4.9,2.1-7,3.5c-3.2,2.1-4,2.3-6.9,5.1c-1.6,1.6-2.8,2.9-4.6,4.4c-2.3,2-2.7,3.6-3.7,5.3c-0.3,0.5-2,3.2-2.4,3.5
		c0,0.6-1,2.2-1.3,2.9c-0.8,1.7-2.5,6.3-2.7,8.2c-0.3,1.8-1.3,1.6-1.9,0.4c-1.2-2.7-0.6-3.6-1.1-4.7c-0.4-1-1.3-1.2-2.7-1
		c-2,0.3-1.7,1.2-2.1,1.6c-0.2,2.8,0,5.9,0,8.7l0,17.1c0,1.2-0.2,3.1,0.3,4c0.6,1,2.2,1.2,3.3,1c1.6-0.5,1.5-1.7,1.7-3.4
		c0.1-0.9,0.3-1.2,0.6-2c0.3-0.8,0.4-1.2,1.4-1.2c0.4,0.6,0.4,0.5,0.5,1.4c0.5,3.1,0.4,1.8,1.3,4.4c0.8,2.4,2.3,5.7,3.6,8
		c0.3,0.5,0.4,0.7,0.7,1.2c0.3,0.4,0.5,0.7,0.8,1.2c0.3,0.4,0.5,0.7,0.7,1.2c0.3,0.5,0.5,0.7,0.8,1.1c0.5,0.7,1.6,1.6,1.7,2.1
		c0.7,0.4,2.5,2.9,4.3,4.3c0.3,0.3,0.4,0.4,0.8,0.7c1.3,1,2,2.2,3.9,3.3c0.7,0.4,3.2,1.8,3.4,2.3c0.5,0.1,1.1,0.6,1.6,0.8l4.9,2.3
		c0.8,0.3,4.3,1.3,4.6,1.5c0.8,0.1,4.5,1.2,7.2,1.5c0.6,0.1,2.1,0.1,2.6,0.2c1.9,0.2,6.4,0.1,8.2-0.1c1.1-0.1,6.2-1,7.1-1.4
		c1.6-0.7,4.8-1.8,3.9-4.3c-1.1-3,0.8-1.9,2.7-2.6c0.7-0.2,1.1-0.5,1.7-0.6c0.1-0.1,1.8-0.9,2.2-1.1c0.4-0.2,0.8-0.3,1.1-0.5
		c0.4-0.2,0.8-0.5,1.2-0.7c0.1-0.2,0.3-0.3,0.6-0.6c0.3-0.3,0.5-0.5,0.8-0.8c0.4-0.4,1-1.3,1.4-1.6c0.1-0.8,1-1.3,1.5-4.2l0.2-0.7
		c-0.2-3,0.9-4.9-2.5-5.2c-1.5-0.1-2.9-0.9-4.1-1.7c-0.6-0.4-0.7-0.6-1.3-0.8c-0.1-0.3-0.3-0.4-0.6-0.7c-0.9-0.9-0.9-2-1.7-2.6
		c-1.6-1.2-2.9,1-4.3,0.2c-0.2-0.8,0.3-1.9,0.8-2.5c0.2-0.2,0-0.1,0.2-0.2c0.2-1.1,3.1-2.6,4-3c3-1.4,2.6,0,4.5,1.4l2.3,0.1
		c0.1-0.1,0.4-0.2,0.7-0.3c1.8-0.7,1.6-2.3,4.8-0.2c0.6,0.4,1.9,1.3,1.8,2.1c-0.1,1.1-2.9,0.8-2.9,0.8c-0.4,0.4-1.6,0.4-2.2,1.6
		c-0.9,1.8,0.4,3.7,1.8,4.9c0.4,0.3,0.7,0.5,1,0.8c0.3,0.3,0.5,0.7,0.7,0.9c0.4,1.4,0.4,1.6,0.2,3.2l-0.6,3.1c0,0.8,0.7,2,1.7,1.9
		c0.9-0.1,1.7-1.2,2.3-1.5l3.2-4.7c0.1-0.4,0.8-1.3,1.2-2.1c0.2-0.4,0.4-0.8,0.6-1.1c0.1-0.2,0.2-0.4,0.3-0.6l0.4-0.6
		c0-0.5,1.8-4.2,2.2-5.3l0.4-0.8c-0.1-0.2,0.5-2.5,0.6-2.9c0.3-1.6,0.7-3.4,1-5c0.1-0.7,0.3-2,0.4-2.6c0.1-0.9,0.3-1.9,0.3-2.8
		c0-1.1,0-2.2,0-3.3c0-1.4-0.1-1.9-0.3-3.1c-0.4-2-0.6-3.9-0.9-6c-0.2-0.5-0.5-1.6-0.5-2.1c-0.1-0.1-0.1-0.1-0.2-0.3
		c0,0-0.1-0.3-0.1-0.3c-1.2-3.9-2.3-7-4.4-10.6l-2.1-3.1c-0.6-0.3-2.4-3.3-4-4.8c-0.3-0.3-1-1.3-1.3-1.3c-0.4-0.6-1.5-1.5-2.2-2.2
		c-0.7-0.7-1.3-1.2-2.2-1.9c-0.8-0.6-1.6-1.1-2.5-1.6c-0.6-0.4-2.1-1.3-2.5-1.6c-0.7-0.3-1.9-1.1-2.8-1.5c-0.5-0.2-2.5-1.1-2.8-1.4
		c-0.9-0.2-1.8-0.7-2.7-1c-0.6-0.2-2.3-0.8-2.6-0.9c-1.2-0.2-2.7-0.5-3.9-0.8c-1.3-0.3-2.6-0.4-3.9-0.6c-2.1-0.4-9.6-0.4-11.7,0
		l-7.1,1.9C102,31.8,100.9,32.3,100.4,32.3L100.4,32.3z M183.5,76.9c-0.4-1.8,2.2-3.2,2.2-0.5c0,0.9,0.3,2-0.8,1.9
		C184.1,78.3,183.7,77.5,183.5,76.9z M171.8,74.7c-0.1-0.8,0.8-2.2,1.3-2.7c3.1-3.6,8.2-2.3,8.4-2c1.2,0.5,0.9,1.9,0.9,3.6
		c0,1.6-0.7,2-0.3,3.8c0.6,3.3,1.4,5.2-1.9,5.9c-1.2,0.3-2.8,0.1-4-0.2c-1.8-0.5-4-2.9-4.5-4.4c-0.2-0.6,0-1.4-0.1-2.1
		C171.6,76,171.3,75.1,171.8,74.7z M168.3,75.7c0.6,0.3,0.5,1.3-0.1,1.9c-0.3,0.4-1,1-0.7,1.7c0.6,1.3,3,0.5,2.3,2.9
		c-0.8,2.6,1.6,1.4,2.6,2.1c0.9,0.6-0.1,3.2,2.4,2.6c2.1-1.6,2.6,0.5,3.3,0.9c1.6,0.9,1.7-2.1,3.6-1.4c0.7,0.2,1.1,0.9,2,0.4
		c0.8-0.4,0.6-1,0.9-1.9c0.5-1.6,3.5,0.1,3.2-2.2c-0.1-1.2-0.6-1.9,0.6-2.4c0.8-0.4,2-0.6,1.5-1.9c-0.3-0.8-1.4-0.9-1.1-2.3
		c0.2-0.8,1.4-1.1,1-2.2c-0.3-0.9-1.4-0.8-2-1.5c-0.7-1,0.6-1.6,0-2.7c-0.6-1-1.7-0.4-2.6-0.8c-0.7-0.3-0.8-1.8-1-2.5
		c-0.4-0.2-0.8-0.5-1.5-0.3c-0.5,0.2-0.8,0.6-1.4,0.7c-1.3,0.2-1.4-1.4-2.3-1.7c-1.3-0.4-1.4,1.5-2.5,1.6c-1.2,0.1-2.1-1.3-3.1-0.3
		c-0.4,0.4-0.3,1-0.5,1.7c-0.6,2-4-0.3-3.1,2.7c0.6,1.8-0.4,1.8-1.5,2.4C166.8,74,167.9,74.9,168.3,75.7L168.3,75.7z M157.5,38.6
		c0,5.7-8.2-2.8-2-2.7C157.1,36,157.5,37.1,157.5,38.6z M152,38.9c0.8,1.2,0.9,1.4,1.9,2.2c2.7,2,3.6,0.6,3.6,4.7
		c0,1.1-0.1,3,0.1,4.1c0.2,0.4,0.3,0.6,0.5,0.9c1.5-0.4,0.6-6.7,1-8.4c-0.4-0.7-0.1-3.1-0.1-4.1c0-0.7,0-1.5-0.1-2.1
		c-0.1-0.7-0.5-1-0.8-1.3c-1.7-0.4-1.7-0.3-3.7-0.3h-7.4c-1.2,0-2.5-0.2-3.3,0.5c0,1.1,1,1.2,2,1c0.7-0.1,2.4-0.1,3.1-0.1
		C150.8,36.2,151.3,37.1,152,38.9L152,38.9z M81.3,115.6c0,1.6-1.7,1.6-2.9,1.4c-1.5-0.3-1.5-1.5-1.5-3
		C76.9,110.5,81.3,113.8,81.3,115.6z M75.5,112.5c0.2,2-0.4,3.4,0.2,5.3c0.4,0.1,0.1,0,0.1,0.3c0.8,0.5,1.1,0.8,2.5,0.7
		c1-0.1,2.1-0.1,3.1,0c1.9,0.3,4.5-0.4,6.3,0l0.6-0.3c1.1-0.5,0.6-1.3-1.2-1.4c-1,0-1.9,0.1-2.7-0.2c-0.8-0.3-1.2-0.7-1.5-1.5
		l-1-2.1c-0.3-0.1-0.6-0.5-0.9-0.8c-1.9-1.3-2.2-1.3-3.1-1.9c-2-1.4-0.5-3.2-1.5-5.1c-0.6,0.1-0.7,0.5-0.8,1.2L75.5,112.5
		L75.5,112.5z M168.8,97.4l1.3,1c1.6,1.1,1.1,1.6,2,2.3c1.2,0.9,2-1.1,2.5-1.6c0.3-0.4,0.9-0.6,1.4-0.9c1.9-1.2-0.2-1.8-0.7-2.4
		c-0.4-0.1-0.1,0.1-0.5-0.3c0,0-0.3-0.4-0.4-0.4c-0.3-0.3-1.3-2.8-2.6-1.1c-0.6,0.8-0.6,1.3-1.4,1.8C169.5,96.4,169.2,96,168.8,97.4
		L168.8,97.4z M169.1,56.4c3.2,2,2.8,3.8,4.2,3.2c0.1,0,0.2-0.1,0.3-0.2c0,0,0.1-0.1,0.1-0.1c0,0,0.1,0,0.1,0l0.1-0.1
		c0.3-0.8,0.6-1.4,1.2-1.7c0.7-0.5,1.4-0.6,1.6-1.3c0.7-0.7-1.4-1-2.8-3.2c-1.4-2.3-2.5,0.8-3.1,1.4C169.8,55,168.7,55.1,169.1,56.4
		L169.1,56.4z M67.5,50.7c0.5,0.4,0.8,1.7,0.5,2.6c-0.4,1.1-1.2,1.6-0.2,2.4c0.9,0.2,1.7-1.8,1.9-2.6c0.1-0.5,0-0.9,0.2-1.4
		c-0.8-0.5-1.2-2.6-0.7-4.2c1.1-3.7-0.1-2.7-0.1-4.2c-0.2-0.2-0.3-0.2-0.2-1.1c0-0.4,0.1-0.7,0.3-1.1c0.3-0.8,0.6-1.2,0.3-2
		c-0.8-0.2-1,0.2-1.4,0.6c-1.4,1.6-1.4,2.9-0.5,4.5C69.3,47.2,66.4,46.6,67.5,50.7z M62.8,41.7c0.1,0.9-0.2,0.9,0.3,1.9
		c1.5,3.4,0.2,3.1-0.2,5.1c-0.3,1.6,0.7,2.3,0.8,3.6c0.1,1.8-0.9,2-0.4,3.6c1.4-0.4,1.9-1.8,2.2-3.1c0-1.9-0.9-2.2-1-3.5
		c-0.1-1.6,0.8-1.4,1-3.3c0.2-1.6-0.7-2.2-0.9-3.3c-0.3-1.6,1-2.4,0.2-3.2C63.6,39.4,63.4,41.1,62.8,41.7z M162.4,110.5
		c-0.1,1.2,0.6,1.5,1.2,2c0.8,0.7,0.8,1.3,1.7,1.5c0.7,0.6,1.6-0.7,2-1.1c0.8-0.8,1.7-0.8,1.6-2.1c-0.1-0.1-0.3-0.5-0.5-0.7
		c-0.5-0.5-2.1-2-2.5-2.1c-1.1-0.2-1.3,0.7-1.9,1.2c-0.3,0.3-0.5,0.4-0.9,0.7C162.8,110,162.5,110.4,162.4,110.5z M166.2,39.2
		l-0.8-0.1c-1,0.4-0.8,0.8-1.5,1.4c-1.3,1.3-2.3,1.1-0.1,3.3c1.4,1.3,1.5,2.4,3.3,0.3c0.4-0.5,1.3-1.1,1.5-1.6c0.4-1-0.6-1.4-1-1.8
		C167.1,40.2,166.6,39.6,166.2,39.2L166.2,39.2z M54.4,66.3c-0.2-1.2,0.7-1,1.2-0.6C55.8,66.7,55.1,66.8,54.4,66.3z M54.4,68.3
		c1.6,0,1.3-0.1,2.8-0.7c3.2-1.3,1.5-2.9-1-3.8c-1.6-0.5-3.3-0.1-3.9,1.2C51.7,66.6,53,68.3,54.4,68.3z M182.2,45.5
		c0.4-0.8,1.3-1.2,0.5-2.4c-0.3-0.5-0.5-0.6-0.9-0.9c-0.3-0.3-0.8-0.5-1.1-0.8c-1.8,0.4-3.2,2.1-2.3,3.3c0.2,0.3,1.2,1.4,1.5,1.5
		c0.5,0.2,0.9,0,1.2-0.2C181.8,45.8,181.8,45.5,182.2,45.5z M53.9,10.4c0.2-0.4,0.9-1,1.2-1.2c0.2,0.2,1.1,1.1,1.2,1.2
		c-0.1,0.2-0.9,1.1-1.2,1.3C54.8,11.4,54.1,10.6,53.9,10.4z M54.3,7.6c0.1,0.8-0.3,1.3-0.8,1.6c-0.6,0.5-1,0.4-1.6,0.8
		c-0.1,1.5,2,0.4,2.4,2.8c0.1,0.3,0.3,0.8,0.4,1c1.3,0.1,0.8-1,1.5-2c0.5-0.7,1.4-1,2.1-1.3l0-0.6c-0.8-0.6-1.9-0.6-2.3-1.8
		c-0.2-0.5-0.2-1.3-0.6-1.5C54.7,6.4,54.6,7.3,54.3,7.6z M26.7,33.4c0.5,0.4,0.3,0.4,0.9,0c0.1-1.3,0.2-6.7-0.1-7.5
		c-0.8-0.3-0.9,0.3-0.8,1.2C26.7,29.2,26.5,31.4,26.7,33.4z M26.3,116.7l0,6c0,0.3-0.1,0.7,0,1c0.1,0.1,0.1,0.2,0.3,0.3
		c0,0,0.2,0.1,0.4,0c0.5-0.6,0.2-6.1,0.2-7.3C26.9,116,26.5,116,26.3,116.7L26.3,116.7z M220.2,98c-0.7,0.2-1.2-0.1-1.4,0.6
		c0.3,0.9,0.8,0.2,1.4,0.7c0.4,0.7-0.1,1.4,0.8,1.4c0.5-0.5,0.2-0.8,0.4-1.4c0.7-0.3,1,0,1.5-0.4c0-1.1-0.7-0.4-1.5-0.9
		c-0.2-0.5,0.1-1.5-0.6-1.4C220.2,96.6,220.4,97.3,220.2,98L220.2,98z M15,50.7c-0.5,0.3-1.3-0.2-1.3,0.8c0.6,0.5,0.7,0.1,1.2,0.3
		c1,0.5-0.1,0.9,0.9,1.5c1.3-0.4-0.4-1.3,1.4-1.6c0.4-0.1,0.5-0.1,0.7-0.3c0-0.9-0.7-0.6-1.5-0.8c-0.2-0.6,0-0.9-0.4-1.5l-0.4,0
		C15.1,49.9,15.5,50.5,15,50.7z M205.6,141.9l0.4-1c0.1-0.6,0.5-1.4,0.8-2c0.3-0.7,0.7-1.3-0.1-1.6c-0.5,0.2-0.6,0.6-0.8,1.1
		c-0.4,0.9-1.7,3.6-1.2,4.1C205.2,142.8,205.4,142.2,205.6,141.9L205.6,141.9z M206.6,104.7c0.8,0.6,0.8,1,1.2,1
		c0.4-0.2,1-0.9,1.2-1.3c-0.1-0.6-0.2-0.4-0.5-0.8c-0.2-0.3-0.3-0.6-0.8-0.5c-0.3,0.1-0.5,0.4-0.7,0.6
		C206.5,104.2,206.6,104,206.6,104.7L206.6,104.7z M27.8,45c-0.2,0.6-0.1,0.6,0,1.1c0.4,0.2,0,0,0.3,0.2c0.1,0.1,0.2,0.2,0.3,0.3
		c0.6,0.6,0.7,0.3,1.2-0.3c0.7-0.8,0.7-0.6,0-1.4C28.5,43.5,28.7,44.5,27.8,45z M12.6,145.1c0.3-0.6,0.9-0.6,0.3-1.3
		c-0.4-0.6-0.6-0.8-1.1-0.9c-0.4,0.3-1,0.9-1.1,1.5l0.8,0.9C12.1,145.8,12.2,145.5,12.6,145.1L12.6,145.1z M224,143
		c-0.1,0.1-0.8,0.9-0.8,0.9c-0.4,0.6,0,0.7,0.4,1.1c0.3,0.4,0.5,0.9,1.1,0.3c0.2-0.2,0.8-0.8,0.8-1.1
		C225.4,144.2,224.9,143.1,224,143z M223,5.7c0.2,0.4,0.7,1.1,1.2,1.2c0.6-0.2,0.3-0.1,0.7-0.5c0.8-1,0.5-0.8,0-1.4
		c-0.2-0.3-0.2-0.6-0.7-0.6C223.8,4.3,223.1,5.3,223,5.7z M73.4,8.1c1,0.1,0.4,0.5,1.1,0.9c0.7-0.2,0.3-0.3,0.8-0.8
		c0.5-0.4,0.5-0.2,0.5-0.8c-1.2-0.4-0.5-0.8-1.3-1c-0.6,0.3-0.2,0.4-0.7,0.8C73.4,7.5,73.2,7.2,73.4,8.1z M20,129.7l0-0.3
		c-0.1-0.6-0.9-0.6-1.4-0.7c-0.9-0.2-1.5-0.5-1.8,0.3l0.5,0.4C17.9,129.6,19.3,129.9,20,129.7z M32.7,15.2c0.7,0.1,3.1-1.4,2.5-2
		c-0.4-0.4-1.3,0.4-1.6,0.6C33.1,14.2,32.4,14.3,32.7,15.2z M20,132.4L20,132.4l-0.1-0.6c-0.7-0.3-4,0.1-2.9,1
		C17.7,133.2,19.3,132.6,20,132.4z M19.1,136.5c0.6-0.7,2.1-0.8,1.9-2c-0.9-0.1-1.3,0.5-2,0.9c-0.2,0.1-0.6,0.2-0.7,0.6
		C18.1,136.7,18.6,136.6,19.1,136.5L19.1,136.5z M21.1,122.4c-0.1,0.8,1.3,3.3,2,2.6c0.4-0.4-0.4-1.2-0.6-1.5
		C22.1,122.8,21.9,122.3,21.1,122.4L21.1,122.4z M153.6,65.7c0.6-0.2,0.6-0.3,0.4-0.9l-0.5-0.1C153.2,65.3,153.2,65.4,153.6,65.7z
		 M155.7,117.1c-2.3,0-3.2-1.1-2.2-2.5c0.5-0.7,2-2.1,3.4-2c0.3,0.4,0.6,0.5,0.6,1.2C157.7,115.1,157.5,117.1,155.7,117.1z
		 M154.4,111.3c-1.1,1.4-0.9-0.1-2.6,3.1l-0.1,0.1c-0.1,1.2-1,2.6-2.3,2.3c-0.5,0.4-2.5,0.2-3.1,0.2c-1.5-0.1-7.7,0.2-9.4,0
		c-2.6-0.3-3.1,2,0.6,1.8l8.3,0c0.9-0.5,6.1,0,7.6,0l4,0.1c0.2-0.1,0.6-0.3,0.8-0.5c0.2-0.1,0.2-0.3,0.3-0.5
		c0.1-0.1,0.1-0.2,0.1-0.3c0.1-0.2,0-0.1,0.2-0.2c-0.5-1.7,0.4-4.7,0.2-6.5c-0.3-2.3,0-4.4-0.1-6.7c-0.1-0.4-0.2-0.7-0.1-1.1
		c-0.3-0.3-0.3-0.4-0.6-0.6c-0.9,0.2-0.8,1.4-0.8,2.4c0,2.1,0.4,4.6-0.9,5.6C156.2,110.8,154.7,111.3,154.4,111.3z M79.1,36
		c2.6,0,3.5,2.1-0.1,4.2c-1.7,1-2.2,0.1-2.2-1.6C76.9,36.1,77.4,36,79.1,36z M75.6,35.2c0,0.5-0.2,0.6-0.1,1.2
		c0,0.5,0.1,0.9,0.1,1.5c0,0.8,0.1,2.1-0.1,2.8c-0.1,1.3-0.1,2.6-0.2,3.8c-0.1,1.4-0.1,2.6,0.6,3.5c2.2,0.1,0.2-3.3,1.3-4.7
		c0.5-0.7,1.2-0.8,2-1.2c2.4-1.1,3.2-4.1,4.3-5.3c1.4-1.4,5-0.1,5.1-1.1c0.5-0.3,0.6-0.6,0-1c-0.3-0.2-0.9-0.2-1.1-0.3
		c-1.2-0.1-2.2,0.1-3.3,0C83,34.4,77,34,76.1,34.7L75.6,35.2z M214.5,20c-1,5.9-9.3,3.5-8.1-1.9c0.5-2,2.5-3.8,5-3.3
		C214,15.2,214.9,17.8,214.5,20L214.5,20z M208.1,23.9c-2,0-3.7-2.5-3.8-4.7c-0.1-2.3,1.6-4.8,3.8-5l-0.5,0.5
		c-2.3,1.7-3,4.9-1.3,7.4c0.3,0.4,0.6,0.8,0.9,1C207.4,23.2,207.9,23.6,208.1,23.9z M215.1,21.6c0.4-1.7,0.8-2.4,0.2-4.4
		c-0.2-0.6-0.5-1.2-0.9-1.7c-0.4-0.6-0.9-0.9-1.3-1.5c-0.3-0.1-0.1,0-0.4-0.2c-0.5-0.3-0.4-0.3-1.2-0.6c-2-0.7-4.2-0.4-5.8,0.9
		c-4.6,3.5-2.3,10.7,3.3,11.1C213.1,25.5,214.4,22.4,215.1,21.6z M23.6,134.7c-1.7-0.6-2.7-3.7-1.4-6.3c0.9-1.7,2.7-2.2,4.5-1.7
		c0.3,0.1,0.5,0.2,0.8,0.3l0.6,0.5c0.8,0.2,1.4,1.6,1.6,2.4c0.3,1.3-0.1,2.5-0.6,3.4C28.3,134.8,25.4,136,23.6,134.7L23.6,134.7z
		 M28.1,135.7c0.2-0.4,2.5-1.4,2.8-4.6c0.2-3.3-2-4-2.5-5.1c2.6,0.4,5.1,4.8,2.3,8.1C30.2,134.8,29,135.8,28.1,135.7L28.1,135.7z
		 M23.8,136.4c0.7,0,1.4,0.6,2.6,0.6c1.4,0.1,1.8-0.2,2.9-0.6c1.7-1,3.3-2.4,3.5-5.1c0.3-3.9-2.6-5.5-2.8-5.8
		c-0.4-0.1-0.7-0.3-1-0.5c-1.9-0.4-3.3-0.6-5,0.2c-3.9,1.8-4.9,7.4-1.2,10.4C23.2,135.9,23.6,136.1,23.8,136.4z M22.5,16.8
		c0.7-2.1,3.6-2.9,6-1.2c1.7,1.2,2.1,3.6,1.1,5.5c-0.3,0.6-0.4,0.5-0.6,0.7c-0.1,0.4-0.5,0.7-0.9,0.9c-1.4,1-3.6,0.8-4.8-0.1
		C21.7,21.3,21.7,17.6,22.5,16.8z M28.5,14.2c2.9,0.5,5.2,4.7,2.6,8.2c-0.3,0.3-1.9,1.8-2.6,1.5c0.7-0.7,1.3-1,1.9-1.8
		c0.5-0.7,0.9-1.8,0.9-2.9C31.3,15.8,28.9,14.9,28.5,14.2z M25.6,13c-0.5,0.2-0.9,0.3-1.4,0.6c-0.5,0.3-0.8,0.5-1.2,0.8
		c-2.6,2.1-3.1,7,0.4,9.6c2.7,2,6.5,1.5,8.6-1.4c0.2-0.3,0.5-0.8,0.7-1.1c0.2-1.2,0.7-1.5,0.4-3.5C32.7,14.8,29.9,12.5,25.6,13z
		 M206.4,131.4c-0.7-5.4,7.8-7.1,8.2-1C215.1,136.7,207.1,136.7,206.4,131.4z M208.2,135.7c-1.9,0.3-5.8-4-2.7-8
		c0.5-0.7,1.5-1.6,2.7-1.7c-0.3,0.4-0.7,0.6-1,0.9C204.5,129.3,204.8,133.5,208.2,135.7L208.2,135.7z M212.8,136.2
		c0.1-0.2,1.3-1.2,1.4-1.2c0.6-1.3,1.5-1.8,1.4-4.4c-0.1-1.8-0.9-3.1-1.8-4c-3.5-3.6-9.5-1.6-10.4,3.4c-0.3,1.7,0.2,3.4,1.1,4.6
		c0.8,1.1,2,1.9,3.5,2.3C210.1,137.4,211.2,136.7,212.8,136.2L212.8,136.2z M51.7,76.9c-0.2-0.9,0.7-1.5,1.6-1.6
		c0.9,0,2.2,0.3,2.5,0.9C56.7,78,52,78.2,51.7,76.9z M50.9,74.4c-0.3,0.7-1,1.3-0.9,2.3c0.1,0.9,0.7,1.6,1.2,2.1
		c1.1,1.3,2.8,0.7,4.4,0.1c1.1-0.4,3.6-1.3,3.3-2.6c-0.3-1.1-2.6-1.7-3.6-2.3c-0.7-0.3-1.5-0.7-2.4-0.6c-0.4,0-0.8,0.2-1.1,0.4
		C51.8,73.8,50.9,74.4,50.9,74.4z M62.9,111.3c0.3,1,0.8,1.5,1.1,2.3c0.6,0.1-0.5-0.2,0.2,0.1c0.8,0.3,1.2-0.1,1-0.9
		c-0.2-0.8-0.6-0.9-0.7-2c-0.1-1.6,1.2-2,0.9-4.1c-0.2-1.2-1.4-2.1-0.7-4c1.3-3.4,0.6-2,0.3-4c-0.4-0.3-0.4-0.5-0.7-0.9
		c-0.3-0.3-0.6-0.5-1.1-0.3c-0.2,1.4,0.7,2,0.4,3.8c-0.2,1.1-1.1,2-0.8,3.3c0.3,1.3,1.1,1.6,0.8,3.4
		C63.5,109.2,62.7,109.9,62.9,111.3L62.9,111.3z M67.6,97.8c-0.3,1.7,1.6,1.9,0.1,4.4c-0.7,1.2-0.9,1.8-0.2,3.2
		c0.2,0.4,0.3,0.5,0.5,0.8c0.9,1.7-0.6,2.9-0.9,4.3c-0.2,1.2,1,3.3,2,3.4c0.4-0.3,0.5-0.3,0.4-1c-0.1-0.6-1-1.7-0.3-3.5
		c1-2.6,0.5-2.3-0.1-4.3c-1-3.2,1.9-3.3,0.2-6.5c-0.3-0.6-0.7-1.2-1.5-1.2C67.8,97.5,67.6,97.8,67.6,97.8z M55.5,86.9
		c0,0.4,0,0.7-0.4,0.8c-0.4,0-0.5-0.2-0.6-0.3C54.6,86.6,55.1,86.6,55.5,86.9z M54,84.9c-0.1,0.1-1.1,0.5-1.5,1.2
		c-0.4,0.8-0.4,1.6,0.2,2.2c0.8,1.1,2.1,1.4,3.6,0.9c1.3-0.5,2.7-0.8,2.8-2.3c-0.3-0.3-0.4-0.7-0.8-1c-0.3-0.2-0.8-0.4-1.2-0.6
		C55.9,84.8,55.2,84.7,54,84.9z M191.5,45.4l1.1-1.2c0.5,0.2,0.4,0.2,0.7,0.6c0.2,0.3,0.3,0.3,0.6,0.7c-0.2,0.5-0.2,0.3-0.5,0.7
		c-0.2,0.2-0.3,0.4-0.5,0.6C192.2,46.5,191.8,45.8,191.5,45.4z M190.6,44.6c-0.2,0.1-2.4,0.7-0.2,1.5l0.7,0.4c0.3,0.3,0.1,0,0.2,0.3
		c0.4,0.2,0.2,0,0.4,0.4c0.1,0.2,0.2,0.4,0.2,0.7c0.2,0.6,0.1,0.6,0.5,1.1c1.1,0,0.7-0.9,1.2-1.8c0.3-0.5,1-1.2,1.8-1.1
		c0.2-0.3,0.6-0.5,0.3-1c-0.2-0.2-0.3-0.2-0.5-0.3c-0.5-0.2-0.1,0-0.4-0.2c-1.7-0.2-1.2-2.9-2.2-2.8C191.5,42.3,192.3,44,190.6,44.6
		L190.6,44.6z M191.6,104.5c0.2-0.4,0.9-1,1.2-1.2c0.2,0.1,1.1,1.1,1.1,1.2c-0.1,0.4-0.9,1.1-1.1,1.3
		C192.5,105.6,191.7,104.8,191.6,104.5z M192.1,101.8c-0.9,2.8-2.7,1.8-2.6,2.8c0.4,0.7,1.3,0.5,2,1.4c0.7,0.9,0.3,2,1.2,2.2
		c0.9-0.4,0.5-1.4,1.1-2.2c0.6-0.8,1.8-0.8,2.1-1.4c-0.1-0.8-1.2-0.8-1.9-1.4c-0.7-0.8-0.5-2.1-1.3-2.3
		C192.3,101,192.2,101.2,192.1,101.8z M53.6,139.5l1.2-1.2c0.3,0.1,1,0.9,1.2,1.2c-0.1,0.3-1,1.2-1.2,1.3L53.6,139.5z M53.1,138.4
		c-0.2,0.2,0,0.1-0.2,0.2c-0.6,0.5-1.6,0.2-1.2,1.3c1.8,0.6,2.2,0.8,2.6,3c1.4,0.6,1-0.8,1.6-1.8c0.8-1.2,1.9-0.7,2.2-1.7
		c-0.5-1-2.4-0.5-2.4-2.5c-0.4-0.5,0-0.7-0.7-1.1c-0.9,0.1-0.7,0.6-0.9,1.4C53.8,137.8,53.5,138.3,53.1,138.4z M181.5,9.1l1.1,1.3
		c-0.2,0.4-0.8,1.1-1.1,1.3c-0.3-0.1-1.1-1-1.2-1.3L181.5,9.1z M178.2,10.1c-0.1,1.1,1.2,0.9,1.9,1.7c0.7,0.8,0.3,2.1,1.4,2.2
		c0.7-0.5,0.5-1.5,1.1-2.2c0.7-0.8,1.9-0.6,1.9-1.5c-0.4-0.6-1.3-0.5-1.9-1.2c-0.5-0.6-0.6-2.1-1.1-2.2c-0.9-0.2-0.7,1.3-1.3,2
		C179.4,9.9,179.1,9.5,178.2,10.1L178.2,10.1z M42.7,45.4c0.2-0.4,0.7-0.9,1.1-1.2c0.3,0.2,1.1,1,1.2,1.2c-0.1,0.3-0.9,1.1-1.2,1.3
		C43.5,46.4,42.9,45.9,42.7,45.4z M40.6,45.2l0.1,0.6c0.8,0.3,1.5,0.5,2,1.2c0.6,0.7,0.4,1.7,1,2.1c0.9,0,0.7-0.8,1.1-1.6
		c0.3-0.6,0.8-1.2,1.5-1.2c0,0,0.1,0,0.1-0.1l0.2-0.1c0.2-0.1,1-0.5,0.3-1.1c-0.4-0.4-0.9-0.1-1.5-0.8c-0.2-0.1,0,0.1-0.3-0.2
		c-0.2-0.2-0.4-0.7-0.5-1c-0.2-0.7-0.1-1.2-0.9-1.2c-0.7,0.5-0.5,1.4-1.1,2.2C42,44.8,41.4,44.7,40.6,45.2z M181.5,138.3
		c0.3,0.1,1.1,1.1,1.2,1.2c-0.1,0.3-0.8,1.1-1.2,1.3c-0.3-0.2-1-1-1.2-1.3L181.5,138.3z M178.6,138.9c-1.2,1.9,1.4,0.4,2.1,3.1
		c0.2,0.8,0.2,1.2,1,1.2c0.8-1.4,0.5-2.4,2-2.9c2.5-0.9-0.4-1.3-1.1-2.2c-0.6-0.8-0.3-1.8-1.2-2.1C180.5,136,180.9,139,178.6,138.9z
		 M183,109.9c-0.1-0.5,0.3-0.7,0-1c-0.3-0.8-1.6-2.1-2.6-2c-0.5,0.1-2.3,1.3-2.3,2.2c0,0.6,1.4,2.3,2.1,2.4
		C181.5,111.9,182.3,110.4,183,109.9z M54,31.1c-0.1,0.2,0.1,0-0.2,0.3c-0.2,0.2,0,0-0.3,0.2c-1.4,0.8,0.2,1.1,0.6,1.6
		c0.4,0.6,0.2,1.2,1.2,1.1c0.4-0.6,0.3-1,1-1.5c0.5-0.3,0.9-0.4,0.6-1l-0.2-0.2c0,0,0,0-0.1-0.1c-1.3-0.3-0.8-0.9-1.4-1.6l-0.5,0
		C54.2,30.5,54.5,30.7,54,31.1z M192.6,121.9c-0.1-0.1-0.6-0.3-0.7-0.4c-0.6-0.2-0.4-0.2-0.7-0.8c-0.2-0.5-0.3-0.6-0.9-0.6
		c-0.5,0.5-0.3,0.8-0.7,1.3c-0.5,0.5-0.9,0.2-1,1c0.4,0.6,0.7,0.3,1.1,0.9c0.4,0.6,0.1,0.9,0.9,1.2c0.8-0.4,0.4-0.8,0.9-1.3
		C192.1,122.5,192.7,122.9,192.6,121.9z M181.4,34.3c0.9,0.1,0.7-0.4,1.1-1c0.4-0.6,0.8-0.3,1.2-1.1c-0.4-0.9-0.9-0.3-1.4-1.5
		c-0.7-1.8-1.4,0.4-1.4,0.4c-0.3,0.5-1.9,0.9-0.9,1.6c0.5,0.3,0.5,0.1,0.9,0.7C181.1,33.7,181,33.9,181.4,34.3z M43.9,27.5
		c0.2,1,0.3,0.6,0.9,1.1c0.3,0.2,1,2.4,1.7,0.8c0.3-0.8,0.2-0.6,0.5-0.7c0.2-0.3,0,0,0.3-0.3c1.4-1.1-0.2-1-0.6-1.7
		c-0.4-0.6-0.1-0.9-0.9-1.2c-0.7,0.3-0.3,0.5-0.8,1.2C44.9,27.1,44.4,27.2,43.9,27.5z M9.9,121.1c-0.4,0.8-0.9,0.4-1,1
		c-0.1,0.8,0.7,0.6,1.1,1.2c0.3,0.5,0.1,0.9,0.8,1.1c0.7-0.4,0.5-0.8,0.8-1.3c0.5-0.7,1.1-0.1,1.1-1.2c-1.7-0.8-1-1.6-1.7-1.9
		c-0.6-0.2-0.7,0.3-0.9,0.7c0,0-0.1,0.1-0.1,0.2C9.9,121.1,10.1,121,9.9,121.1L9.9,121.1z M209.1,116.5c-0.1,1.2-0.2,6.6,0.1,7.4
		l0.6,0c0.4-0.8,0.2-6,0.2-7.3l-0.4-0.5L209.1,116.5L209.1,116.5z M209.8,145.6l0.1-0.2c0.1-1.1,0.1-5.1,0.1-6.6
		c0-0.9-0.4-1.4-0.8-1c-0.4,0.3-0.2,3.4-0.2,4.1C209,144.2,208.6,145.6,209.8,145.6L209.8,145.6z M26.7,4.5
		c-0.2,1.3-0.3,6.6,0.1,7.7c1,0,0.8-0.5,0.8-1.4c-0.1-1.5,0.2-5.5-0.2-6.3L26.7,4.5z M26.9,137.7c-0.9,0.1-0.6,0.7-0.6,1.6l0,4.5
		c0,0.8-0.2,1.4,0.5,1.7c0.8-0.6,0.4-2.7,0.4-3.9C27.2,140.2,27.5,138.4,26.9,137.7z M187.4,133c1,0.8,0.2,0.2,1.5,0.5
		c0.2,0.9-0.2,1.5,0.9,1.4c0.1-0.2,0.1-0.4,0.2-0.8c0.2-1.3,0.7-0.4,1.6-1c0.1-1-0.6-0.6-1.4-0.9c-0.3-0.7,0-0.9-0.5-1.5
		c-0.9,0-0.6,0.7-0.7,1.5C188.1,132.5,187.6,132,187.4,133z M223.2,109.7c-0.7,0.2-1.6-0.1-1.5,0.8c0.7,0.5,0.8,0.1,1.4,0.4
		c0.2,0.6,0,1.1,0.5,1.4c0.9-0.2,0.3-0.8,0.7-1.5c0.7-0.4,1.4,0.2,1.4-0.8c-0.6-0.5-0.8-0.1-1.3-0.4c-0.4-0.3-0.2-0.8-0.4-1.4
		l-0.6,0L223.2,109.7L223.2,109.7z M12.2,38.8c-0.1,0.6-0.7,0-1.4,0.6c-0.1,1.1,0.9,0.3,1.4,1c0.4,0.6-0.3,1.3,0.8,1.4
		c0.4-0.6,0.1-1,0.5-1.4c0.8-0.5,1.4,0.3,1.4-1L13.5,39c-0.5-0.7,0-0.9-0.5-1.5C12.1,37.5,12.7,38.3,12.2,38.8z M47.1,134.9
		c0.1-0.3,0.2-1,0.3-1.4l1.4-0.3c0.4-1-0.8-0.6-1.4-1c-0.2-0.6,0.1-0.9-0.4-1.4c-0.9,0-0.5,0.7-0.8,1.4c-0.6,0.4-0.9-0.1-1.5,0.5
		c0.1,0.9,0.8,0.5,1.5,0.8C46.4,134.4,45.9,134.9,47.1,134.9z M14.9,97.8c-0.3,0.4-0.9,0.4-1.3,0.3c-0.3,0.5-0.2,0.2-0.2,0.8
		c0.8,0.3,1.1,0,1.4,0.5c0.3,0.5-0.2,1.3,0.8,1.2c0.5-0.5,0.1-0.8,0.5-1.4c0.7-0.3,1.1,0.2,1.4-0.6C17.2,98,16.8,98.2,16,98
		c-0.2-0.4-0.3-1.1-0.4-1.5L15,96.6C15,96.6,14.9,97.8,14.9,97.8z M204.6,7.4c-0.1,1,0.6,2.2,0.9,3c0.3,0.6,0.7,2.6,1.5,2.1
		c0.5-0.7-0.5-2.1-0.7-2.8C205.8,9,205.7,7.1,204.6,7.4z M19.3,21.9c-0.6,0.3-1.4,0.6-2.1,0.9c-0.7,0.3-2,0.6-1.5,1.3
		c0.8,0.5,2.1-0.7,3-0.8c0.5-0.6,2.4-0.7,2-1.6c-0.3-0.3-0.2-0.3-0.7-0.1C19.7,21.6,19.6,21.7,19.3,21.9z M199.5,127.4
		c0.8,0.2,2.9,1.4,3.5,1.1c0.5-0.8-0.7-1.1-1.3-1.3c-0.7-0.2-1.4-0.6-2.1-0.9c-0.5-0.1-0.8-0.4-1.2-0.4c0,0-0.3,0-0.4,0.1
		C197.7,127.1,198.9,127,199.5,127.4L199.5,127.4z M36,27.9c0.2-0.8-0.9-1.5-1.8-2.4c-0.8-0.8-1.9-2.2-2.3-1.5
		c-0.3,0.5,0.3,1,0.6,1.2l2.2,2.2C35.1,27.7,35.3,28.2,36,27.9z M21.8,142.5c0.7-0.2,0.8-0.5,1.1-1.2c0.2-0.5,0.4-1,0.6-1.5
		c0.5-1.3,1.5-2.7,0.2-2.6c-0.4,0.7-0.9,1.8-1.2,2.6C22,140.7,21.4,141.6,21.8,142.5z M29.5,12.6c0.7,0.2,0.8-0.2,1-0.8
		c0.3-0.8,1.8-3.9,1.4-4.3c-0.7-0.7-1.2,1.1-1.5,2.1C30.1,10.3,29.2,11.8,29.5,12.6z M23.4,121.1c-0.2-0.2-0.5-1.1-0.5-1.5
		c-0.3-0.2-0.3-0.4-0.7-0.4c-0.9,0.2,0.5,2.7,1,4.1c0.2,0.7,0.3,1.2,1.1,1.1C24.6,123.5,23.6,122.1,23.4,121.1z M33.5,16.5
		c0.7,0.2,2.1-0.6,2.8-0.9c0.6-0.3,2.9-0.9,2.2-1.7c-0.4-0.4-3.5,1.2-4.3,1.5C33.6,15.7,33.2,15.8,33.5,16.5z M201.2,133.9
		c-0.6,0.2-1.6,0.7-2.2,0.9c-0.8,0.3-1.9,1-0.2,1.3c0.6-0.6,5-1.7,4.3-2.6c-0.3-0.4-0.5-0.2-1,0
		C201.8,133.6,201.5,133.8,201.2,133.9z M23.1,27.3c0,1-1.3,2.4-0.8,3.4c0.8,0.1,1-0.8,1.2-1.6c0.2-0.5,0.6-1.7,0.9-2.1
		c0.1-0.5,0.5-1.2,0.1-1.6C23.9,25,23.7,26.8,23.1,27.3z M18.1,10.1c0.2,1,1.3,1.8,1.9,2.4c0.3,0.3,0.8,0.8,1,1
		c0.4,0.4,0.7,1,1.3,0.5c0.2-0.8-0.7-1.3-1.7-2.3C19.4,10.6,19.1,9.9,18.1,10.1z M17.8,139.2c0,0.5-0.1,0.2,0.1,0.6l0.8-0.1
		c0.3-0.8,3.8-3.2,3.2-3.9c0,0-0.1-0.4-0.7,0C20.7,136.1,18.3,138.9,17.8,139.2L17.8,139.2z M20.1,128.4l0.4-0.3
		c-0.3-0.9-1.2-0.7-1.7-1.2c-1.1-0.3-2.7-1.4-3.6-1.1c0,0.8,0.2,0.8,0.8,1C16.9,127.2,19.5,128.4,20.1,128.4z M201.9,26
		c-0.3,0.3-1.7,1.4-1.2,1.9c0.7,0.7,2.1-1.8,3-2.2c0.4-0.7,1.1-0.8,1.1-1.3C204.8,22.6,202,25.8,201.9,26z M216.3,123.3l-0.6,0.7
		c-0.2,0.2-0.4,0.4-0.6,0.6c-0.3,0.3-1,0.8-0.8,1.4c0.7,0.7,1.9-1.5,2.8-1.9c0.2-0.7,1.3-1,1.3-1.8
		C218.4,121,216.6,123.1,216.3,123.3L216.3,123.3z M220.3,135.9l0.8-0.1c0.2-0.9-0.9-1.1-1.8-1.4c-0.5-0.2-1.9-0.7-2.2-0.9
		c-0.5-0.1-1.9-0.4-1.1,0.6c0.1,0.1,1.1,0.6,1.4,0.7C218.1,134.9,219.9,135.4,220.3,135.9L220.3,135.9z M20.4,133.9l0-0.5
		c-0.6-0.2-1-0.1-1.7,0.2l-2.8,1.1c-1.1,0.4-1,1.3,0,1.1l1.9-0.8c0.5-0.2,0.8-0.3,1.3-0.5C19.6,134.3,20,134,20.4,133.9L20.4,133.9z
		 M17.9,122c-0.2,0.9,0.7,1.3,1.7,2.4c0.5,0.5,1.8,2.2,2.3,1.6c0.5-0.5-0.9-1.6-1.6-2.3c-0.4-0.4-0.7-0.7-1-1
		C18.8,122.2,18.6,121.8,17.9,122z M29.6,139.2c0.4,1,1,2.8,1.7,3.3c1-0.1,0.2-1.2,0.1-1.8c-0.3-0.3-0.6-1.4-0.8-1.9l-0.8-1.7
		l-0.6,0.1C28.9,138.1,29.4,138.6,29.6,139.2z M19.6,25.8c-0.1,0.1,0,0.1-0.1,0.2c-0.5,0.7-1.8,1.4-1.2,2c0.5,0.4,1.5-0.9,2.1-1.5
		c0,0,0.1-0.1,0.1-0.1c0.2-0.1,0-0.1,0.2-0.1c0.2-0.4,0.7-0.9,1-1.1c0.5-0.5,1-0.9,0.4-1.2C21.5,23.4,20.6,25.3,19.6,25.8z
		 M34.1,12.8c0.4-0.6,0.7-0.9,1.3-1.4c0.4-0.4,1.4-1.4-0.1-1.3c-0.3,0.5-1.2,1.2-1.8,1.9c-1.1,1.1-1.8,1.5-1.6,2.3
		C32.9,14.6,33.3,13,34.1,12.8z M62.9,141.3c-0.1,0.4-0.1,0.5,0,0.7l0.4,0.4c0.9,1.1,0.9,0,1.4-0.2l0.3-0.4c0.2-0.4,0.1-0.5-0.2-0.8
		C64.3,140.3,63.8,139.7,62.9,141.3z M171,141.8c0.4,0.3,0.5,0.3,0.7,0.8c0.3,0.2,0.5,0.5,1,0c1.2-1.3,0.7-1.1-0.3-2.4
		C171.7,140.4,171.2,141.1,171,141.8L171,141.8z M175.6,134.8c0.7-0.1,0.3-0.2,0.7-0.6c0.4-0.5,0.4-0.1,0.7-0.7
		c-0.1-0.7-0.3-0.3-0.7-0.7c-0.4-0.4,0-0.5-0.7-0.7c-0.6,0.4-0.2,0.3-0.6,0.7c-0.2,0.2-0.6,0.2-0.7,0.6c-0.1,0.4,0.3,0.4,0.6,0.6
		C175.4,134.4,175,134.5,175.6,134.8L175.6,134.8z M207.1,44.5c-0.1,0.6-0.4,0.2-0.6,1c0.1,0.2,0.7,1,0.8,1.1
		c0.3,0.2,0.3,0.3,0.7,0.1l0.5-0.5c0.4-0.7,0.6-0.7,0-1.4C207.9,44.1,208,44,207.1,44.5z M60.9,134.7c0.4-0.9,0.4-0.6,1.1-1.2
		c-0.2-0.8-0.2-0.3-0.7-0.8c-0.5-0.5,0-0.4-0.8-0.7c-1,1.7-0.9,0.5-1.2,1.5c0.4,0.6,0.4,0.2,0.7,0.6
		C60.4,134.6,60.1,134.7,60.9,134.7z M64.4,9.7c0.4-0.2,1-0.9,1.1-1.3c-0.1-0.3-0.5-0.9-0.7-1.1c-0.6-0.6-0.8-0.1-1.1,0.3
		c-0.3,0.4-0.7,0.6-0.3,1.2C63.5,9,64.1,9.6,64.4,9.7z M36.3,37.5l0.4,0.6c0.8,0,0.5-0.2,0.9-0.6c0.5-0.4,0.5,0,0.7-0.8
		c-1.6-1.1-0.5-0.7-1.3-1.1c-0.7,0.3-0.2,0.2-0.7,0.7c-0.4,0.5-0.4,0-0.7,0.7C35.8,37.3,36,37.2,36.3,37.5z M200,38
		c0.3-1.2,0.7-0.4,0.9-1.2c-0.2-0.6-0.3-0.3-0.6-0.6c-0.5-0.5,0.1-0.6-0.9-0.7c-0.2,0.3-0.2,0.5-0.5,0.7c-0.5,0.4-0.4-0.1-0.6,0.6
		c0,0.5,0.3,0,1.1,1.3C199.7,38.1,199.9,38,200,38z M174.2,16.5c0.3,0.6,0.3,0.2,0.7,0.6c0.4,0.4,0,0.4,0.6,0.7
		c0.7-0.3,0.2-0.2,0.7-0.7c0.5-0.5,0.4,0,0.7-0.7c-0.2-0.7-0.2-0.2-0.7-0.7c-0.4-0.4,0-0.4-0.7-0.7c-0.6,0.3-0.2,0.3-0.6,0.7
		C174.5,16.3,174.5,15.9,174.2,16.5L174.2,16.5z M42,5.4c0.2,0,0,0,0.3,0.1c0.1,0.1,0.2,0.1,0.2,0.1C43,5.9,42.9,7,43.7,6.2
		c0.4-0.4-0.1-0.1,0.5-0.6c0.4-0.3,0.3,0.1,0.5-0.5c-0.3-0.7-0.3-0.2-0.7-0.7C43.4,3.9,44,4,43.1,3.8c-0.4,0.4-0.2,0.5-0.6,0.8
		C42.1,4.9,41.9,4.6,42,5.4z M60.9,17.8c0.7-0.2,0.3-0.3,0.7-0.7c0.3-0.3,0.5,0,0.6-0.6c-0.2-0.7-0.3-0.2-0.7-0.7
		c-0.3-0.4-0.1-0.5-0.7-0.7c-0.5,0.3-0.3,0.4-0.6,0.7c-0.4,0.3-0.4,0.1-0.6,0.6c0.5,0.7,0.3,0.3,0.6,0.6
		C60.7,17.5,60.3,17.5,60.9,17.8z M43.3,146.1c0.1-1.2,0.6-0.5,0.9-1.4c-0.3-0.7-0.2-0.1-0.7-0.7c-0.3-0.3,0-0.3-0.5-0.7
		c-0.6,0.2-0.3,0.4-0.7,0.7c-0.4,0.4-0.3,0-0.6,0.6c0.2,0.6,0.2,0.3,0.6,0.6c0.3,0.2,0.2,0.4,0.4,0.7L43.3,146.1L43.3,146.1z
		 M160.7,7.7c0.2,0.7,0.1,0.2,0.6,0.6c0.4,0.4,0.1,0.5,0.6,0.7c0.6-0.2,0.3-0.3,0.6-0.6c0.4-0.5,0.5,0,0.7-0.7
		c-0.3-0.6-0.4-0.2-0.7-0.6c-0.2-0.3-0.2-0.6-0.6-0.6c-0.5,0-0.3,0.3-0.6,0.6C161,7.5,161,7.1,160.7,7.7z M72.9,142.3
		c0.4,0.5,0.3,0.1,0.7,0.5c0.3,0.4,0,0.4,0.5,0.7c0.7-0.1,0.3-0.2,0.7-0.6c0.3-0.4,0.4-0.1,0.7-0.7c-0.2-0.5-0.3-0.3-0.6-0.6
		c-0.5-0.5,0-0.5-0.8-0.7c-0.2,0.3-0.3,0.6-0.5,0.7C73.1,142,73,141.6,72.9,142.3z M24.9,28.2c0.1,0.4,0.1,0.7,0.5,0.8
		c0.4,0.1,0.5-0.2,0.5-0.5c0.2-0.7,0.6-2,0.2-2.7c-0.8-0.5-0.9,1.2-0.9,1.5L24.9,28.2z M36.7,21.1c0.7-0.5,0.1-0.8-0.3-1
		C35.7,20,34.5,19.6,34,20c-0.4,0.8,0.5,0.8,1,0.9C35.7,21,36,21.1,36.7,21.1z M17.4,21.4c0.8,0.1,1.5-0.1,2.3-0.3
		c1-0.2,1.2-1.1-0.4-1C18.6,20.4,16.8,20.3,17.4,21.4z M33,22.7c-0.2,0.2-0.2-0.3-0.2,0.4c0,0.4,0.5,0.6,1,0.9
		c0.3,0.2,1.3,1.1,1.7,0.6c0.5-0.5-0.5-1-0.9-1.3C34.3,23.2,33.4,22.4,33,22.7z M203.8,26c-0.1,0.3-0.8,1.4,0.1,1.3
		c0.3,0,0.4-0.1,0.7-0.5c0.2-0.4,0.4-0.7,0.7-1c0.3-0.4,0.5-0.6,0.3-1.2C204.5,24.4,204.6,25.4,203.8,26z M203.8,15.1
		c0.4-1-1-1.2-1.5-1.9c-0.5-0.1-0.9-0.5-1.1,0.1c-0.1,0.5,0.4,0.7,0.6,0.9C202.4,14.6,203.1,15.4,203.8,15.1z M203.8,139.3
		L203.8,139.3c0.9,0.1,1-0.4,1.4-1c0.3-0.5,0.8-1,0.6-1.6C205.2,136,203.8,138.4,203.8,139.3L203.8,139.3z M219.3,17.1L219.3,17.1
		c-0.8-0.1-1.2,0-1.9,0.1c-0.7,0.1-1.2,0.1-1.2,0.9c0.6,0.4,1,0.1,1.7,0C218.8,17.9,219.4,18,219.3,17.1z M30.6,125.3
		c0.9,0.2,0.9-0.2,1.3-0.8c0.4-0.5,0.9-0.9,0.8-1.8l-0.4-0.1c-0.4,0.2-0.8,0.7-1,1.1C30.9,124.2,30.5,124.5,30.6,125.3z M19.2,24
		c-0.4,0.4-0.6,0.4-0.3,1c0.8,0,0.8-0.1,1.7-0.8c0.4-0.3,1.2-0.6,0.9-1.3C20.8,22.6,19.9,23.6,19.2,24z M33.1,27.3L33.1,27.3
		c0.1-0.7-0.3-1-0.7-1.6C32,25,31.8,24.5,31,24.6c-0.2,0.7,0.2,1.1,0.6,1.6C32,26.9,32.1,27.4,33.1,27.3z M28.7,28.9L28.7,28.9
		c0.6,0,0.4,0,0.7-0.1c0.1-0.7-0.2-3.6-1.1-2.9c-0.2,0.2-0.1-0.1-0.1,0.3C28.1,26.8,28.6,28.4,28.7,28.9z M42.4,104.5
		c0.2-0.3,0.8-1.1,1.2-1.2c0.3,0.2,1,0.9,1.1,1.3c-0.1,0.2-0.1,0.1-0.2,0.2c0,0-0.1,0.1-0.1,0.1l-0.7,0.8
		C43.2,105.6,42.5,104.8,42.4,104.5z M43,101.1c-0.1,0.4-0.2,0.9-0.3,1.3c-0.1,0.3-0.3,0.5-0.4,0.8c-0.4,0.2-0.8,0.5-1.3,0.7
		c-0.6,0.2-0.8,0.3-0.7,0.9c0.2,0.4,0.4,0.3,0.9,0.5c0.6,0.2,0.6,0.3,0.9,0.6c0.8,0.9,0.4,2.4,1.6,2.2c0.6-0.6,0.2-1.4,0.9-1.9
		c0.3-1.3,2.1-0.6,2-1.8c-0.2-0.4-0.4-0.4-0.9-0.6c-0.4-0.1-0.3,0-0.5-0.2c-0.3-0.2-0.2-0.2-0.3-0.4c-0.6-0.4-0.6-0.7-0.8-1.6
		c-0.1-0.3-0.1-0.6-0.5-0.7C43.2,100.8,43.2,101.1,43,101.1z M225.5,25.5c-1.1,0.1-0.3,1-1.6,1.6c-1.4,0.7,0.2,1.2,0.5,1.6
		c0.3,0.3,0.8,2.3,1.5,0.7c0.2-0.5,0.2-0.6,0.6-0.9c0.5-0.3,0.6-0.1,0.8-0.8c-0.4-0.8-0.7-0.3-1.1-1
		C225.8,26.1,226.1,25.9,225.5,25.5L225.5,25.5z M35.6,94.2c-0.4,0.5-0.4,0.1-0.9,0.7c0.1,1.1,0.5,0.4,1.1,1.1
		c0.4,0.5,0.1,0.7,0.7,1.3c0.5,0,0.6-0.2,0.8-0.4c0-1.1,0.7-1,1.3-1.5c0.1-1-0.3-0.6-0.8-1.2c-0.7-0.1-0.1-1.1-1.2-1.2
		c-0.5,0-0.5,0.7-0.7,1C35.7,94.3,35.9,94.1,35.6,94.2z M9.9,28.5c0.3,0.1,0.1-0.2,0.4,0.2c0.2,0.3,0.1,0.1,0.1,0.5
		c0.2,0.2,0.4,0.8,0.8,0.7c0.8-0.4,0.3-0.6,0.8-1.2c0.4-0.5,0.8-0.3,1.1-0.9c-0.2-0.8-0.6-0.5-1.1-1c-0.4-0.5-0.1-1-0.9-1.3
		c-1,0.2-0.4,1-1.3,1.5c-0.3,0.2-0.7,0.2-0.7,0.7C9.2,28.2,9.6,28.2,9.9,28.5z M182.4,119.2c0-0.8,0.7-0.7,1.2-1.3
		c0-1-0.3-0.5-0.9-1c-0.3-0.3-0.5-1-0.7-1.3l-0.7,0c-0.2,0.4-0.3,0.9-0.6,1.2c-0.4,0.4-0.8,0.2-1,0.9c0.1,0.7,0.5,0.5,1,1
		c0.4,0.4,0.5,2.2,1.5,0.8C182.4,119.3,182.2,119.4,182.4,119.2z M36.1,53.8c-0.4,0.6-0.7,0.3-1,0.8c0,0.9,0.5,0.5,1,1
		c0.5,0.5,0.2,0.9,0.8,1.3c0.9,0,0.6-0.5,1-1.1c0.4-0.7,0.9-0.3,1.1-1.1c0-0.8-0.9,0.1-1.5-2c-0.4-0.2-0.6-0.4-1,0.2
		c-0.1,0.2-0.1,0.4-0.2,0.6C36.1,53.9,36.3,53.7,36.1,53.8z M52.6,117.4c0,1.1,0.5,0.6,1,1.2c0.6,0.6,0,1.1,1.1,1.3
		c0.5-0.6,0.3-0.7,0.7-1.2c0.5-0.6,0.9-0.2,1.1-1.1c-0.4-0.8-0.8-0.3-1-1c-0.7-0.6,0-1.1-1.3-1.1C53.9,116.3,53.5,117.4,52.6,117.4
		L52.6,117.4z M211.9,41.3c0.3,0.4,0,0.2,0.6,0.6c1.2,0.7,0.6,1.7,1.4,1.6c0.5-0.1,0.5-0.7,0.8-1.2c0.5-0.6,0.9-0.2,1.1-1.1
		c-0.4-0.8-0.6-0.4-1.1-0.9c-0.3-0.4-0.3-0.8-0.6-1.2c-1.2,0.1-0.6,0.4-1.1,1.2C212.6,40.9,212.1,40.4,211.9,41.3L211.9,41.3z
		 M21.1,40.7c-0.8,1.2,0.2,0.8,0.8,1.6c0.6,0.7,0.2,1.7,1.4,0.8c0.5-1.8,1.6-1.1,1.4-1.9c-0.4-0.8-0.8-0.4-1.2-1
		c-0.4-0.7,0-1.2-1.2-1.1C21.9,39.9,22.2,40.4,21.1,40.7z M43.6,122c0.1,1,0.7,0.5,1.2,1.3c0.2,0.4,0.3,0.7,0.5,1.1
		c1-0.1,0.7-0.6,1.1-1.2c0.4-0.6,0.9-0.3,1.1-1c-0.2-0.8-0.7-0.5-1.1-1c-0.3-0.4-0.3-0.7-0.7-1.2c-1.1,0.1-0.6,0.5-1.1,1.2
		C44.6,121.4,43.9,121.7,43.6,122L43.6,122z M213.6,110.9c1,0,0.6-0.5,1.1-1.1c0.5-0.7,0.8-0.2,1.2-1c-0.3-0.8-0.5-0.4-1-0.9
		c-0.3-0.3-0.4-0.9-0.7-1.3c-1,0.1-0.6,0.4-1,1.1c-0.3,0.5-1,0.5-1.1,0.9c-0.2,0.6,0.6,0.7,0.9,1
		C213.3,109.9,213.2,110.4,213.6,110.9L213.6,110.9z M189,27.2c-0.6,0.8-0.6,0.7,0.3,1.3c0.4,0.3,0.9,0.9,0.9,1.4
		c1.2,0.1,0.8-0.5,1.3-1.1c0.4-0.6,0.9-0.2,1.1-1.1c-0.4-0.7-0.7-0.4-1.1-0.9c-0.4-0.5-0.1-0.9-0.8-1.3
		C189.5,25.7,190.5,26.7,189,27.2z M223.5,122c-0.1,0.8,0.6,0.6,1,1.1c0.6,0.7,0,1,1,1.3c0.7-0.4,0.4-0.7,0.8-1.2
		c0.4-0.6,0.8-0.3,1.1-1c-0.3-0.8-0.8-0.3-1.5-1.8c-0.5-1.1-1,0-1.2,0.5C224.3,121.7,223.8,121.4,223.5,122L223.5,122z M20.4,108.9
		c0.7,0.6,0.9,0.3,1.2,1.1c0.2,0.5,0.6,1.4,1.2,0.6c0.4-0.5-0.1-0.8,1-1.4c0.9-0.5,0.5-0.7,0.1-1.3c-1-0.1-0.5-1.1-1.4-1.5
		c-0.7,0.2-0.5,0.5-0.8,1c-0.2,0.4-0.7,0.6-1.1,0.8C20.5,108.3,20.4,108.9,20.4,108.9z M197.6,54.4c-0.1,1,0.1,0.7,0.8,1.2
		c0.3,0.2,0.6,1,0.8,1.4c1.1,0,0.7-0.5,1.2-1.1c0.4-0.5,0.9-0.3,1.1-1c-0.2-0.5-0.8-0.6-1.1-0.9c-0.3-0.4-0.3-0.7-0.7-1.2
		C198.3,52.6,199.7,53.6,197.6,54.4L197.6,54.4z M198.9,96.9l0.9,0.4c0.2-0.3,0.5-1.1,0.6-1.3c0.4-0.5,0.9-0.2,1-1
		c-0.3-0.7-0.5-0.4-1.1-1c-0.4-0.6-0.1-1.2-1.1-1.1c-0.5,0.5-0.3,0.7-0.7,1.2c-0.3,0.4-0.7,0.3-1.1,0.9
		C197.8,96.1,199,95.6,198.9,96.9L198.9,96.9z M223.7,19.5l0.4-0.4c-0.2-0.5-0.1-0.3-0.4-0.5c-1.2-0.1-2.7-0.1-4-0.1
		c-0.7,0-3.3-0.3-3.4,0.4c-0.1,0.8,2.5,0.6,3.3,0.6C221,19.5,222.3,19.5,223.7,19.5z M37.5,131.4c0.8,0,1.8,0,2.6,0
		c0.4,0,1,0,1.1-0.3c0.3-0.5-0.2-0.6-0.6-0.7c-1.4,0-6.1-0.2-7,0.1c-0.2,0.9,0.4,0.9,1.3,0.9C35.8,131.4,36.6,131.4,37.5,131.4
		L37.5,131.4z M12.2,130.7c-0.2,0.7,0.6,0.7,1.2,0.7c0.7,0,1.5,0,2.2,0c1.2,0,3.2,0.1,4.2-0.1c0-0.1,0.1-0.4,0.1-0.7l-0.5-0.2
		l-6.6,0.1C12.7,130.4,12.2,130.7,12.2,130.7z M190.1,17.7c0.7-0.2,1.4,0.1,1.5-0.8c-0.7-0.6-1-0.1-1.4-0.6c-0.3-0.4,0-0.8-0.4-1.3
		l-0.4,0c-0.5,0.7-0.1,1.3-0.6,1.4l-0.4,0.1c-0.1,0-1,0-0.9,0.6c0.4,0.6,0.9,0.4,1.5,0.5c0.2,0.6,0,1,0.5,1.5
		C190.1,19.1,189.8,18.4,190.1,17.7L190.1,17.7z M45,17.3c0.7,0.3,0.9,0.2,1.5,0.4c0.1,0.5,0.2,1,0.2,1.4l0.5,0.1
		c0.5-0.7,0.2-0.8,0.5-1.5c0.7-0.3,1,0.1,1.5-0.6c-0.1-0.5-0.1-0.4-0.5-0.6c-0.6-0.1-0.8,0.1-1-0.4c-0.1-0.4,0-0.8-0.2-1.1
		c-0.8-0.8-0.8,1.1-1,1.3C45.7,16.8,45.1,16.2,45,17.3z M11.9,109.5c-0.3,0.8-1.5,0.1-1.4,0.9c0,0.6,1,0.4,1.5,0.6
		c0.2,0.5,0.2,0.6,0.1,1.2c1.3,0.9,0.8-0.7,1.2-1.2c0.8-0.4,1.3,0.3,1.4-0.8c-0.2,0-0.2-0.1-0.5-0.2l-0.7-0.2c0,0-0.1,0-0.1-0.1
		c-0.7-0.1,0.3-1.3-1-1.4C12,108.7,12,109.3,11.9,109.5z M204.7,135.7c-0.8-0.1-1,0.3-1.4,0.7c-0.7,0.7-3.2,2.8-2.6,3.3
		c0.5,0.5,2-1.4,2.3-1.7C203.5,137.6,204.9,136.6,204.7,135.7z M216.8,11l-0.4,0.3c-0.4,0.6-0.8,0.9-1.3,1.4
		c-0.4,0.4-1.3,0.9-0.7,1.5c0.5,0.4,1.5-0.8,2.1-1.5l1.5-1.5c0.1-0.1,0.1-0.2,0.3-0.3l0.3-0.3l-0.1-0.6
		C217.5,10,217.3,10.5,216.8,11z M35.1,135.1c0.9,0.1,1.8,1,3,1c0.7-0.9-0.9-1.2-1.7-1.6c-0.5-0.2-2.2-0.9-2.4-1.1
		c-1.3-0.2-1.2,0.5-0.5,0.9C34.2,134.7,34.8,134.7,35.1,135.1L35.1,135.1z M36.7,126.2c-0.6,0.6-4.4,1.4-3.5,2.2
		c0.5,0.5,3-1,4.4-1.4l0.7-0.4C38.4,125.3,37.5,126.2,36.7,126.2z M31.6,126.1c0.7,0,1.4-0.9,2.3-1.8c0.3-0.3,0.7-0.7,1-1
		c0.4-0.5,0.8-0.6,0.6-1.3c-0.7-0.2-1,0.3-1.4,0.7l-2.2,2.2C31.5,125.3,31.2,125.5,31.6,126.1z M30.6,120.5l-1.1,2.4
		c-0.1,0.6-0.4,0.8-0.3,1.6c1,0.3,1.2-1.2,1.6-2.1c0.3-0.7,1.2-2.4,0.9-3C30.9,119.3,30.9,119.8,30.6,120.5L30.6,120.5z M212.8,28.9
		c0.2,0.2,0.8,2.4,1.4,1.7l0.1-0.2c0.1-0.8-0.5-1.2-0.5-2l-0.3-0.5c-0.1-0.2-0.1-0.3-0.2-0.5c-0.1-0.4-0.2-0.6-0.4-0.9
		c-0.2-0.6-0.4-1.4-1.1-1.1C211.5,26.2,212.6,28,212.8,28.9L212.8,28.9z M213.2,120.3c-0.2,1-1.6,3.4-1.3,4.2c1.2,0.3,1-1.5,1.7-2.3
		c0-0.8,1.2-2.3,0.6-2.9C213.4,119,213.6,119.8,213.2,120.3L213.2,120.3z M22.2,7.5C21.8,7.9,21.9,8,22.3,9c0.2,0.4,0.4,1,0.6,1.4
		c0.2,0.5,0.9,2.9,1.6,2.2c0.4-0.4-0.6-2.3-0.8-2.8C23.5,9.3,22.8,7.1,22.2,7.5z M218.5,16c0.6-0.5,2.7-0.6,2.6-1.7
		c-0.4-0.2-0.7-0.1-1.1-0.1c-0.3,0.3-0.6,0.4-1.1,0.6c-0.8,0.3-3.4,1.1-3,1.8C216.5,17,217.7,16.1,218.5,16L218.5,16z M205.3,27.3
		c0,1-1.3,2.4-0.8,3.3c0.8,0.1,0.9-0.7,1.2-1.4c0.2-0.5,0.5-1.5,0.8-1.8c0.2-0.8,0.7-1.2,0.4-2C205.7,25.3,206,26.6,205.3,27.3
		L205.3,27.3z M19.1,16.4c0.7,0.1,0.9,0.5,1.6,0.2c0.1-0.8-0.5-0.9-1.2-1.2c-0.5-0.2-1.3-0.4-1.7-0.8c-0.5,0-1.1-0.3-1.6-0.5
		c-0.5,0-1,0.2-0.6,0.7C15.9,15.3,18.7,16,19.1,16.4z M33.5,22.1c0.2,0,2.5,1,2.7,1.2c0.7,0.2,1.9,0.9,2.4,0.5
		c0.6-0.9-1.2-1-1.7-1.4c-0.6-0.1-1.3-0.5-2-0.7C34.2,21.4,33.4,20.8,33.5,22.1z M212.3,139c0.4,0.1,1.2,4,2.1,3.4
		c0.5-0.5-0.4-2.1-0.7-2.6c-0.4-0.9-0.8-1.8-1.2-2.5l-0.6,0C211.8,137.8,212.2,138.4,212.3,139z M204.6,120.9c0.5,0.4,0.7,1.3,1,2
		c0.3,0.6,0.5,1.6,1.3,1.6c0.4-0.6,0.1-0.6,0-1.3c-0.3-0.4-0.7-1.5-1-2.2c-0.4-0.8-0.6-2-1.4-1.7C204.1,120,204.6,120.3,204.6,120.9
		z M201,23.1c0.4-0.4,1.1-0.5,1.7-0.8c0.7-0.3,0.7-1.1-0.2-1l-3.9,1.5c-0.6,0.2-0.9,0.3-0.7,1C199,24.3,199.9,23.1,201,23.1z
		 M30.6,28.7c0.3,0.4,0.4,1.2,0.7,1.6c0.6,0.8,1,0.3,0.7-0.8c-0.4-0.5-0.7-1.5-1-2.3c-0.1-0.4-0.6-1.7-1-1.8c-0.2,0-0.5-0.2-0.5,0.5
		c0,0.3,0,0.2,0.1,0.4C29.9,26.9,30.4,27.9,30.6,28.7z M32.5,137.5c0.5,0.3,1.1,0.9,1.4,1.5c0.7,0.3,0.7,1,1.6,0.9
		c0.4-0.9-0.9-1.5-1.3-2.1c-1.1-0.7-1.6-2.2-2.7-2C31.3,136.6,32.1,136.8,32.5,137.5L32.5,137.5z M216.8,127.3
		c-0.6,0.2-1.2,0.3-0.9,1c0.7,0.3,1.8-0.5,2.5-0.7c0.6-0.2,1-0.4,1.5-0.6c1.8-0.8,0.9-1.2,0.9-1.2L216.8,127.3L216.8,127.3z
		 M27.3,104.1c-0.1,1,1.1,1.7,1.2,1.7c0.2,0,0.4-0.4,0.8-0.7c0,0,0.1-0.1,0.1-0.1c0,0,0.1,0,0.1-0.1c0,0,0-0.1,0-0.1
		c0.2-0.5,0.2-0.5-0.2-1C28,102.3,28.4,103.4,27.3,104.1z M12.4,6.9c0.7-0.2,1.2-1.2,1.2-1.3c-0.1-0.2-0.6-0.9-0.8-1.1
		c-0.5-0.5-0.7-0.1-1,0.3C11.5,5.2,11,5.4,11.3,6C11.5,6.3,12,6.8,12.4,6.9z M171.5,9.1c0.1,0,0,0,0.2,0.2c0.1,0.1,0,0.1,0.2,0.2
		c0.3,0.3,0.1,0.1,0.6,0.3c0.9-1.5,1.4-1,0.5-2c-0.4-0.4-0.2-0.4-0.7-0.7c-0.4,0.2-0.3,0.1-0.5,0.4c-0.1,0.1-0.3,0.4-0.4,0.5
		c-0.3,0.3-0.4,0.4-0.1,0.9L171.5,9.1C171.4,9.1,171.4,9.1,171.5,9.1L171.5,9.1z M192,5.1c0.2,0.7,0.2,0.2,0.7,0.6
		c0.4,0.4,0,0.4,0.6,0.7c0.7-0.3,0.2-0.3,0.7-0.7c0.4-0.4,0.4,0,0.7-0.7c-0.3-0.7-0.3-0.2-0.7-0.6c-0.3-0.4,0-0.4-0.6-0.7
		c-0.6,0.3-0.3,0.3-0.6,0.7C192.3,4.9,192.2,4.5,192,5.1z M163.2,142.6c0.1-0.6,0.2-0.5-0.4-0.9c-0.7-0.4-0.1-0.6-0.9-0.8
		c-0.5,0.3-0.2,0.3-0.6,0.7c-0.4,0.4-0.3,0-0.6,0.6c0.3,0.7,0.2,0.2,0.7,0.7c0.3,0.3,0,0.4,0.5,0.6C162.9,143.3,162,143,163.2,142.6
		z M179.6,81.6c0.3-0.6,0.5-0.9,0.3-1.7c-0.1-0.5-0.5-1.2-1.1-0.8C178,79.6,178,81.6,179.6,81.6z M178.2,73.2
		c0.3,0.2,0.5,0.8,0.8,0.8c1.1-0.2,0.9-1.3,0.7-2.4C178.4,71.2,178.4,72.3,178.2,73.2L178.2,73.2z M217.4,132.9
		c0.7-0.1,1.2,0.3,1.9,0c0.4-0.8-0.7-0.8-1.1-1c-0.8-0.1-1.2-0.4-1.9-0.1c-0.2,0.8,0,0.7,0.9,1L217.4,132.9L217.4,132.9z
		 M34.5,133.1c0.8-0.1,1.4,0.5,2,0c0.4-0.9-1-0.8-1.7-1.1c-0.4,0-1.1-0.3-1.4,0.1C33.2,132.7,34.1,132.9,34.5,133.1
		C34.4,133.1,34.5,133.1,34.5,133.1z M18.6,125c-0.4,0.5,0.2,0.9,0.8,1.3c0.3,0.2,1.3,1.1,1.7,0.6c0.5-0.5-0.4-1-0.9-1.3
		C19.9,125.4,19,124.6,18.6,125L18.6,125z M28.1,121.8c-0.1,0.7-0.7,2.4,0.3,2.3c0.6-0.4,0.9-2.2,0.7-3.1
		C28.4,120.8,28.2,121.2,28.1,121.8L28.1,121.8z M199.7,133.3c0.8,0.1,1.4-0.1,2.2-0.3c0.9-0.2,1.2-0.4,0.7-1.1
		c-0.7,0.1-1.3,0.2-1.9,0.4C199.8,132.4,199.6,132.5,199.7,133.3L199.7,133.3z M33.9,17.9c0.5,0.2,3.6-0.1,3-1
		c-0.3-0.5-1.4,0-1.9,0.1C34.3,17,33.7,17,33.9,17.9z M215.1,22.9c-0.6,0.5,0.6,1.1,0.9,1.4c0.6,0.4,1,0.9,1.7,0.6
		C217.9,24,215.5,22.6,215.1,22.9z M203.9,134.8c-0.8-0.1-1.2,0.3-1.7,0.7c-0.3,0.2-1.4,0.9-0.8,1.3c0.5,0.3,1.3-0.4,1.7-0.7
		C203.6,135.8,204.1,135.6,203.9,134.8z M25.9,12.3c0.4-0.7-0.2-3.8-1-3c-0.4,0.4,0,1.4,0.1,1.9C25.1,11.9,25.2,12.5,25.9,12.3z
		 M213.5,136.5c-0.6,0.3,0.2,1.3,0.5,1.6c0.4,0.6,0.6,1.2,1.4,1.1C215.7,138.5,214.2,136.1,213.5,136.5L213.5,136.5z M24.5,140.7
		c0.8,0,0.8-0.5,0.9-1.1c0.1-0.6,0.5-1.7,0-1.9C24.5,137.2,24.3,140.1,24.5,140.7L24.5,140.7z M210.9,121.1c-0.6,0.5-1,4.1,0.1,2.9
		C211.3,123.7,212.1,120.1,210.9,121.1z M22.9,136.5c-0.8-0.3-1,0.4-1.4,0.9c-0.3,0.4-1.1,1.2-0.6,1.6
		C21.4,139.7,23.1,137.2,22.9,136.5z M21.8,26.1c-0.1,0.6-0.6,0.6-0.3,1.4c0.9,0.1,0.6-0.4,1.1-0.6c0.4-1.1,1.2-1.6,0.8-2
		C22.6,24.3,22.5,25.7,21.8,26.1z M208.5,12.2c0.1-0.8,0.2-0.5,0-1.5c-0.1-0.5-0.3-1.1-0.3-1.5c-1.1-0.4-0.9,0.6-0.7,1.4
		C207.7,11.6,207.6,12.2,208.5,12.2z M219.4,21.2c-0.3-1.2-1.1-0.7-2-1.1c-1.6-0.2-1.6,0.6-0.6,0.9
		C217.7,21.3,218.7,21.6,219.4,21.2z M35,136.8c0-1-0.6-1-1.3-1.6c-0.5-0.2-0.6-0.6-1.3-0.5c-0.3,0.8,0.3,1,0.8,1.3
		C33.8,136.4,34,136.9,35,136.8z M30.7,13.3c0.8,0.2,1-0.5,1.4-1c0.3-0.4,1-1.3,0.5-1.6C32,10.2,30.5,12.6,30.7,13.3z M205.6,13.4
		l0.3-0.3c0-0.6-0.4-1-0.7-1.5c-0.3-0.5-0.6-1.2-1.4-1C203.7,11.4,204.9,13.3,205.6,13.4z M175.7,77.2c0.5-0.6,0.6-1.2-0.1-1.6
		C174.6,75.8,174.3,77.3,175.7,77.2z M12.6,18.7c0.1,0.2,0.1,0.1-0.1,0.1l0.1,0.5c0.8,0.4,2.2,0.2,3.3,0.2c1.2,0,2.6,0.1,3.8,0
		c0.6-0.1,0.6-0.1,0.6-0.7C19.4,18.3,13.9,18.5,12.6,18.7z M35.5,19.5c1.6-0.1,5.6,0.3,6.2-0.3l-0.1-0.5c-0.7-0.3-3-0.2-3.9-0.2
		c-1.1,0-2.9-0.3-3.7,0.3C33.9,19.7,34.7,19.6,35.5,19.5z M202.6,130.7c-0.5-0.7-2.6-0.3-3.6-0.3c-1.3,0-2.6,0-3.9,0
		c-0.3,0.3-0.3,0.1-0.2,0.7c0.7,0.4,4.8,0.2,6.2,0.2C202,131.4,202.6,131.5,202.6,130.7L202.6,130.7z M218.6,131.4l4.6,0
		c0.7,0,0.9-0.1,0.9-0.8c-0.8-0.4-5.7-0.3-6.9-0.2l-0.7,0.1C215.9,131.7,217.6,131.4,218.6,131.4L218.6,131.4z M209.1,12.1l0.6,0
		c0.5-0.9,0.3-2.9,0.3-4.1c0-2.3,0.4-3.7-0.8-3.7c0,0.3-0.2-0.1-0.2,1.6C209,7.5,208.8,11.1,209.1,12.1z M24.7,121
		c-0.1,0.7,0,1.2,0.2,2c0.1,0.8,0.1,1.1,0.9,1.2l0.2-0.7c-0.1-0.9-0.3-2-0.6-2.6C25.3,120.9,24.7,121,24.7,121z M200.8,20
		c-0.6,0.2-1.4,0.1-1.2,1c0.7,0.4,1.2-0.1,1.8,0.1l1-0.4c0.3-0.2,0.3-0.3,0.2-0.7C202.1,19.6,201.6,19.9,200.8,20z M207.5,140.8
		c0.5,0.1,0.2,0.2,0.7-0.1c0.4-0.8,0.7-2.4,0.4-3c-0.8-0.1-0.8,0.4-0.9,1.2C207.5,139.6,207.4,140,207.5,140.8z M194.9,18.7
		c0,0.4,0,0.4,0.2,0.7c1.5,0.1,3,0.1,4.5,0.1c0.9,0,3.9,0.4,2.8-0.9C201.1,18.4,195.9,18.4,194.9,18.7L194.9,18.7z M208.3,27.3
		c-0.1-0.6,0-1-0.1-1.6c-0.5,0-0.6-0.1-0.8,0.6c-0.2,0.6-0.7,2.7,0.1,2.6C208.3,28.6,207.9,27.8,208.3,27.3z M218.7,51.4
		c0.6,0.7,1.1,0.1,1.5,0.6c0.4,0.5-0.2,1.2,0.7,1.4c0.5-0.4,0.3-0.8,0.5-1.5c0.8-0.2,1.6,0.1,1.4-0.9l-1.4-0.3
		c-0.3-0.8,0.1-1.2-0.6-1.4c-0.7,0-0.3,1.1-0.7,1.4C219.5,51.1,218.9,50.5,218.7,51.4L218.7,51.4z M221.6,39.3
		c0,1.1,0.7,0.5,1.4,0.9c0.3,0.6,0,0.9,0.5,1.4c0.8,0,0.6-0.7,0.7-1.5c0.8-0.2,1.4,0.1,1.5-0.7c-0.4-0.7-0.7-0.2-1.5-0.6
		c-0.1-0.9,0.2-1.3-0.7-1.4c-0.6,0.6-0.1,0.8-0.5,1.5C222.4,39.2,222.3,39,221.6,39.3L221.6,39.3z M202.9,123.4
		c-0.2-0.1,0.1,0.1-0.3-0.2l-0.7-0.7c-0.4-0.4-0.5-0.5-1.2-0.7c-0.4,0.8,0.5,1.3,1.6,2.5c0.6,0.6,1.9,2.3,2.4,1.7
		C205.3,125.4,203.3,124.2,202.9,123.4L202.9,123.4z M219.3,23.8c0,0,1.9,0.9,1.6-0.2c-0.1-0.4-0.7-0.4-1-0.7
		c-1.2-0.3-3-1.6-4.2-1.4c0.1,0.5-0.1,0.6,0.5,0.9c0.3,0.2,0.7,0.3,1.1,0.5C217.8,23.1,218.9,23.6,219.3,23.8z M202.9,16.7
		c0.1-0.1,0.2-0.2,0.3-0.4c-0.1-0.3-0.1-0.4-0.2-0.6c-0.6-0.1-2.8-1.2-3.7-1.6c-0.6-0.3-1-0.4-1.2,0
		C197.5,14.9,202.2,16.4,202.9,16.7z M213.8,7.7l-1.8,4.1c-0.2,0.6,0,1.3,0.6,0.9c0.2-0.2,1.6-3.4,1.9-4.1
		C214.7,7.8,214.5,7,213.8,7.7L213.8,7.7z M215.5,25.8c0.2,0.2,0.4,0.4,0.7,0.7c0.3,0.3,0.6,0.5,0.6,0.8c0.5,0.3,0.9,1,1.4,0.6
		c0.2-0.2,0.3-0.1,0.1-0.6c-0.1-0.2-0.3-0.3-0.4-0.5c-0.6-0.5-1.2-1.2-1.7-1.7c-0.5-0.5-1.2-1.6-1.9-1.2
		C214,24.7,215.1,25.2,215.5,25.8L215.5,25.8z M199.7,114.5c0.7-0.3,0.2-0.2,0.6-0.7c0.3-0.4,0.4-0.1,0.7-0.6
		c-0.1-0.6,0.1-0.2-0.4-0.5c-0.5-0.4-0.1-0.1-0.5-0.5c-0.6-0.8-0.7,0-1,0.3c-0.3,0.3-1.1,0.4-0.5,1c0.3,0.3,0.2,0,0.6,0.5
		C199.5,114.4,199.2,114.2,199.7,114.5L199.7,114.5z M193.3,146.1c0.7-0.2,0.3-0.3,0.8-0.7c0.3-0.2,0.5-0.2,0.6-0.6
		c-0.3-0.7-0.3-0.2-0.7-0.7c-0.4-0.5,0.1-0.5-0.7-0.6c-0.6,0.3-0.1,0.3-0.6,0.7c-0.5,0.4-0.4-0.1-0.6,0.6c0.2,0.7,0.3,0.3,0.7,0.7
		C193,145.8,192.8,145.8,193.3,146.1L193.3,146.1z M37.2,113.8c0.4-0.3,0.4-0.1,0.7-0.6c-0.2-0.6-0.2-0.3-0.6-0.6
		c-0.4-0.3-0.1-0.3-0.5-0.7l-0.4-0.1c-0.7,1.4-0.7,0.5-1.1,1.3c0.2,0.7,0.2,0.3,0.6,0.7c0.4,0.4,0.1,0.5,0.7,0.7
		C36.9,114.3,36.9,114.1,37.2,113.8L37.2,113.8z M207.2,122.9l0.1,0.2c0.2,0.4,0.2,1.1,0.7,1.1c0.6-0.2,0.4-0.6,0.3-1.3
		c0-0.4-0.1-0.9-0.3-1.3c-0.2-0.6-0.3-0.7-0.8-0.5C206.8,121.7,207.4,122.1,207.2,122.9L207.2,122.9z M202.8,129.8
		c-0.1-0.7-0.7-0.6-1.4-0.8c-0.6-0.1-1.8-0.5-1.8,0.2c0,0.6,0.9,0.6,1.5,0.7C201.9,130.1,202.3,130.4,202.8,129.8z M202.5,18
		c0.3-0.5,0.4-0.4-0.1-1c-0.8,0.1-1.9-0.6-2.7-0.2C199.3,17.8,201.7,18,202.5,18z M211.5,28.7c0-1.1-0.2-2.1-0.6-3
		c-0.8,0.3-0.9,0.1-0.6,1.3c0.1,0.7,0.2,1.4,0.5,1.9C211.4,29,211.2,29.1,211.5,28.7z M214.3,27.5c0.3,0,0.7,0.2,0.8-0.3
		c0-0.4,0-0.2-0.1-0.5c-0.2-0.4-0.1-0.1-0.2-0.5c-0.4-0.3-0.4-0.5-0.7-0.9c-0.2-0.3-0.3-0.5-0.6-0.5C212.2,24.8,214.1,27,214.3,27.5
		z M35.1,126l0.1-0.7c-0.7-0.3-1.8,0.5-2.5,1c-0.5,0.4-0.5,0.9,0.1,0.9c0.3,0,0.2,0,0.4-0.1C33.6,127.1,34.5,126.3,35.1,126
		L35.1,126z M31.8,139.4c0.9-0.1,0.6-0.3,0.6-1c-0.7-0.4-1-2.1-1.9-1.8C29.8,137.2,31.5,139.1,31.8,139.4z M33.5,129.9
		c0.6,0.5,1,0.2,1.8,0.1c0.7-0.1,1.5-0.1,1.3-1c-0.7-0.3-1.1-0.1-1.8,0C34,129.1,33.5,129,33.5,129.9z M18.2,18
		c0.9,0.2,1.7,0.5,2.2-0.1c-0.1-0.4-0.2-0.5-0.5-0.6l-0.6-0.1c-0.4-0.1-0.1,0-0.3-0.1c-0.7,0.2-1-0.3-1.6,0.2
		C16.9,17.8,17.7,17.9,18.2,18z M213.4,13.5c0.7,0,0.8-0.4,1.2-0.8c0.3-0.4,0.7-1,0.8-1.3l0.1-0.5c-0.2-0.1-0.3-0.1-0.4-0.2
		c-0.6,0.2-0.7,0.6-1.2,1.2C213.5,12.5,213,12.9,213.4,13.5L213.4,13.5z M27.9,140.7c0.5,0.3,0.3,0.3,0.8,0l0-1.1
		c-0.2-0.4-0.1-1.3-0.6-2C26.9,137.6,27.8,139.8,27.9,140.7z M29,9.1c-0.8,0-0.8,0.5-0.9,1.3c-0.1,0.6-0.5,1.7,0.2,1.8
		C29,12.5,29.3,9.7,29,9.1z M216.2,126.7c0.8-0.6,1.6-0.8,1.5-1.8l-0.1,0c-0.7-0.1-1.1,0.4-1.7,0.8c-1.7,1.1-0.9,1.5-0.3,1.4
		C215.9,127,216.1,126.8,216.2,126.7L216.2,126.7z M216.3,129.7c0.6,0.2,1.1,0,1.8-0.1c0.7-0.1,1.3-0.1,1.3-0.9
		c-0.6-0.4-1-0.2-1.8,0C216.8,128.9,216.1,128.8,216.3,129.7L216.3,129.7z M200.9,125.8c0.3,0.2,3.1,2.5,2.9,1.1
		c-0.1-0.4-0.3-0.5-0.7-0.7c-0.3-0.2-0.9-0.5-1.1-0.8C201.2,125.2,201.2,125,200.9,125.8L200.9,125.8z M213.8,123.3
		c-0.3,0.7-1,1.2-0.6,1.9c0.6,0.2,0.9-0.4,1.2-0.9c0.3-0.6,0.8-1,0.8-1.7C214.2,122.2,214.4,122.9,213.8,123.3L213.8,123.3z
		 M203.7,122.7c-0.5,0.4,1.3,3.1,1.9,2.5c0.4-0.4-0.4-1.3-0.6-1.6C204.7,123.2,204.2,122.2,203.7,122.7L203.7,122.7z M211.3,140.8
		c0.8,0,0.6-0.4,0.7-1c-0.4-0.5-0.3-2.6-1.2-2c0,0,0,0.1-0.1,0.1l-0.1,0.3C210.5,138.5,210.8,140.2,211.3,140.8z M215.2,15.4
		c0.8,0.1,1.2-0.3,1.7-0.7c0.4-0.2,1.4-0.8,0.9-1.3c-0.4-0.4-1.2,0.3-1.5,0.5C215.6,14.4,215.1,14.4,215.2,15.4L215.2,15.4z
		 M214.3,135.8c-0.5,0.5,0.9,1.5,1.7,2.3c0.9,1,1.6,1.9,2.4,1.7c0.2-0.7-0.3-1.1-0.6-1.4l-2.1-2.1
		C215.4,136.1,214.8,135.3,214.3,135.8L214.3,135.8z M202.6,12.9c0.5,0.3,0.6,0.5,1,0.9c0.4,0.4,0.6,0.5,1.1,0.4
		c0.2-1.2-1.9-2.1-2.6-3.4c-0.7-0.3-0.4-0.9-1.4-0.7C200.2,11.2,202.2,12,202.6,12.9z M23.1,13.4c0.6-0.4-0.2-1.2-0.5-1.6
		c-0.5-0.6-0.5-1.2-1.4-1.1c-0.3,0.6,0.2,1.1,0.5,1.6C22,12.7,22.5,13.8,23.1,13.4z M210.7,12.3c0.9,0,0.8-0.5,0.9-1.3
		c0.1-0.4,0.5-1.6,0-1.8C210.7,8.9,210.3,11.7,210.7,12.3z M215.2,135.2c0.3,0.2,0.9,0.6,1.3,0.8c0.6,0.4,0.6,0.6,1.4,0.5
		c0.1-1-0.4-1-1-1.4c-0.5-0.3-0.9-0.8-1.7-0.6L215.2,135.2L215.2,135.2z M88.7,76.3c0-0.4-0.4-1-0.8-0.6C87.6,76,88,76.4,88.7,76.3z
		 M201.4,23.7c-0.2,0.6-0.5,0.2-0.3,1c0.7,0,1.2-0.4,1.7-0.7c0.5-0.3,1.1-0.6,0.9-1.2C203.1,22.3,202.1,23.4,201.4,23.7z"/>
</g>
</svg>
