<?xml version="1.0" encoding="utf-8"?>
<!-- Generator: Adobe Illustrator 26.0.1, SVG Export Plug-In . SVG Version: 6.00 Build 0)  -->
<svg version="1.1" id="Слой_1" xmlns:xodm="http://www.corel.com/coreldraw/odm/2003"
	 xmlns="http://www.w3.org/2000/svg" xmlns:xlink="http://www.w3.org/1999/xlink" x="0px" y="0px" viewBox="0 0 238.1 150.2"
	 style="enable-background:new 0 0 238.1 150.2;" xml:space="preserve">
<style type="text/css">
	.st0{fill-rule:evenodd;clip-rule:evenodd;fill:#2B2A29;}
	.st1{fill:#2B2A29;}
</style>
<g id="Слой_x0020_1">
	<g id="_1833715458160">
		<g id="_394682152">
			<path class="st0" d="M20.2,129.7c0,0,1.2-0.1,1.5,0.4c0.3,0.5-0.1,1.6-0.1,1.6s0.3-0.1,0.8-0.1c0-0.6,0-1.6,0.1-2.2
				c0.2-0.9,0.7-1.5,1.6-2.2c0.9-0.7,2.7-1.2,3-1.1c0.3,0.1,0.2-0.8-0.3-1.4c-0.6-0.6-1.3-0.1-1.4-0.1c0,0,0.5-0.8-0.1-1.4
				c-0.6-0.6-1.5-0.6-1.4-0.3c0.1,0.3-0.4,2.1-1.1,3c-0.7,0.9-1.3,1.4-2.2,1.6c-0.6,0.1-1.6,0.1-2.2,0.1c0,0.5-0.1,0.8-0.1,0.8
				s1.1-0.4,1.6-0.1C20.4,128.5,20.2,129.7,20.2,129.7L20.2,129.7z M76,142.6c0.8-0.1,2.3-0.2,3-0.6c1-0.6,1.9-1.3,1.9-1.3
				s1.2-0.1,1.3,0.9c0.1,1-0.1,1.3-0.3,1.3c-0.2,0-0.5,0-0.5,0s0.2-0.9-0.7-1c-0.9-0.1-1.1,0.8-0.4,1.4c0.7,0.6,1.9,1.2,2.7,0
				s0.2-2.7,0.2-3c0-0.4-0.5,0.3-1.1-0.1c-0.6-0.4-0.5-1.1-0.2-1.5c0.3-0.4,1.3,0.2,1.3,0.2s-0.6-1,0.5-2.1c1.1-1.1,1.7-0.5,2.5-0.2
				c0.8,0.4,1.1,1.1,0.8,2.1c-0.2,0.9-1.4,0.6-1.4,0.6s0.5-0.7,0.2-1.4c-0.3-0.7-1.2-0.6-1.7,0.2c-0.6,0.7,0,1.7,0.6,2
				c0.6,0.3,1.6,0.4,2.3-0.1c0.7-0.5,1.3-1.3,1.1-2.8c-0.2-1.5-1.1-2-2.3-2.3c-1.2-0.2-2.2,0.3-3,1c-0.7,0.7-1.3,1.4-1.3,1.4
				s0.2-1.6-1-2.9c-1.2-1.3-4.2-1-4.2-1s0.1-0.8-0.5-0.9c-0.6-0.1-0.9,0.9-1.3,1.3c-0.4,0.4-0.9,0.7-1.5,0.6
				c-0.6-0.2-0.8-0.5-0.8-0.5s1.6-0.3,1.4-1.2c-0.2-0.9-1-1.6-1.7-1.2c-0.8,0.4-0.9,2.4-0.1,3.5c0.8,1.1,1.4,0.9,2,0.9
				c0.6,0,1-0.2,1-0.2s-0.7,2,0.6,2.8c1.3,0.8,2.4,0.7,3.1-0.2c0.6-0.9-0.4-2-0.4-2s0.5,1.5-0.4,1.9c-0.9,0.4-2.2,0-2.1-1.5
				c0.1-1.5,1.4-2.4,3-2c1.5,0.3,2.6,1.3,2.3,3.2c-0.2,1.9-1.4,3.1-2.7,3.7c-0.7,0.4-1.6,0.6-2.2,0.6c0-1-0.3-1.9-1.3-2.5
				c-1.3-0.8-2.1-0.5-3.3,0.3c-1.2,0.8-1.7,2-2.4,2.1c-0.5,0.1-1.1-0.1-1.4-0.3c1.2-0.4,2.1-0.9,2.8-2.5c0.9-2,1.4-3.9,0.5-5.6
				c-0.9-1.7-2.7-2.7-3.9-2.6c-1.1,0-1.9,0.1-1.9,0.1s1-1.3-0.2-1.4c-1.2-0.1-2,1.2-3.2,1.7s-2.6,0.5-3.1-0.9
				c-0.5-1.4,0.2-2.2,0.8-2.4c0.7-0.2,1.1,0,1.2,0.3c0,0.4-0.3,0.4-0.3,0.4s-0.7-0.5-1-0.2c-0.2,0.4-0.3,1.6,0.7,1.7
				c0.9,0.1,1.4-0.4,1.5-1.6c0.1-1.2-0.9-1.3-1.6-1.4c-0.7,0-2.1,0.5-2,2.2c0.1,1.8,0.8,2.3,2.1,2.7c1.3,0.4,2.7,0.1,2.7,0.1
				s-1,1.9-0.3,3.4c0.7,1.4,2,2.6,3.4,2.4c1.4-0.2,2-1.4,1.9-2.6c-0.1-1.2-0.8-1.7-1.5-1.7c-0.6,0-0.8,0.6-0.9,0.9
				c-0.3,0-0.6,0-0.6,0s0-1.1,1-1.3c1-0.2,1.9,0.3,2.3,1.4c0.4,1,0.4,1.9-0.1,2.8c-0.5,0.9-1.4,1.7-3,1.5c-1.5-0.1-3-0.6-4.7-1.9
				c-0.9-0.7-1.7-1.3-2.2-1.7c-0.2-1.4-0.9-1.8-1.3-2.1c-0.5-0.4-0.9-0.1-0.9-0.1s-0.4-0.5-0.8-1c-0.5-0.5-1.4-1-1.4-1
				s1.3,0.1,2.5,0.3c1.2,0.2,2.5,0.5,2.5,0.5s-2.4-1.2-4.8-1.4c-1.8-0.2-4.8-0.2-6.3-0.2c0.1-0.3,0-0.6,0.2-0.8
				c0.2-0.2,3.4,0.2,4.6-0.6c1.1-0.8,0.4-1.9-0.6-2c-1-0.1-1,0.5-1.1,0.8c0,0.3,0.6,0.2,0.7,0.3c0.2,0.1-0.1,0.6-0.9,0.6
				c-0.8,0-1.6-0.1-3.2-0.5c-1.5-0.4-2.9,0.6-3.2,1.6c-0.3,1,1,1.7,1,1.7s-0.5,0.5-0.9,1.1s-0.6,1.8-0.6,1.8s-1.9-1.2-2.2,0
				c-0.3,1.2,1.9,1.2,1.9,1.2s-0.1,0.6,0,1.6c0.1,1,0.5,2.1,1.5,3.3c1,1.1,1.9,1.4,3,1.3c1.1-0.1,1.8-1.4,1.5-2.4
				c-0.4-1-1.4-1.7-2-1.6c-0.6,0.1-0.8,1.1-0.3,1.8c0.5,0.7,1.4,0.4,1.4,0.4s0,0.9-1.2,1c-1.1,0.1-1.9-0.8-2.5-2.2
				c-0.6-1.4-0.6-2.9,0-4.2c0.6-1.3,1.5-1.7,2.1-1.8c0.6-0.1,1.8-0.2,2.4-0.1c0.6,0.1,0.8,0.3,1,0.6c0.1,0.2,0.1,1.1-0.3,1.3
				c-0.4,0.2-0.9,0.1-0.9,0.1s0.2-0.4,0.2-0.8c0-0.4,0-0.6-0.7-0.6c-0.7,0.1-1.2,0.7-0.9,1.6c0.3,0.8,1.1,0.8,1.7,0.4
				c0.5-0.4,1.2-0.1,1.9,0.2c0.7,0.4,1.6,0.5,2.4-0.1s0.5-2-0.3-2.6c-0.8-0.7-1.4,0.1-1.2,0.9c0.2,0.8,1.2,0.7,1.2,0.7
				s-0.5,0.6-1.3,0.6c-0.7,0-1.1-0.8-1.1-0.8s0.2-0.3,0.4-0.6c0.2-0.3,0.2-1.3-0.4-1.5c-0.6-0.3-0.9,0.5-0.9,0.5s-0.6-0.3-1.5-0.4
				c-0.9,0-2.1,0-2.1,0s0.8-0.6,1.1-1.1c0,0,0-0.1,0-0.1c1.2,0,3.4,0,4.8,0.3c2.1,0.5,3.4,2.6,3.4,2.6s-0.9,0.4-0.5,1.7
				c0.4,1.3,1.6,1.6,1.3,3.4c-0.2,1.4-0.9,2-1.6,2c-0.1-0.1-0.2-0.3-0.3-0.3c-0.7-0.6-1.8-0.5-2.2-0.3h0c-0.1-0.3-0.3-1-0.3-1.6
				c-0.1-0.8,0-1.4,1-1.9c1-0.4,1.9,0,2,0.8c0.1,0.8-0.3,1.6-0.9,1.6c-0.6,0-0.5-0.5-0.5-0.5s0.8-0.6,0.6-1.1
				c-0.2-0.5-0.7-0.5-1.2-0.1c-0.5,0.4-0.2,1.7,0.4,2c0.7,0.4,1.4,0.2,1.9-1c0.5-1.2-0.2-2.5-1.6-2.5c-1.4,0-2.2,0.9-2.2,1.9
				c0,0.8,0.4,1.8,0.6,2.2c-0.3,0.1-0.6,0.3-0.6,0.3s0.1-0.7-0.1-1.5c-0.2-0.8-1.3-1.2-1.3-1.2s0.8,0.8,0.7,1.7
				c-0.1,0.9,0,1.6-1.3,2.4c-1.3,0.7-2.7,0.7-3.8,0.1c-1.1-0.6-3.2-3.7-4.6-4.9c-1.4-1.2-3-2.5-4.4-2.7c-0.2,0-0.3,0-0.4-0.1l0-0.3
				c0.3-1.4,0.2-2.7,0.2-2.7s0.9,2.1,2.7,1.6c1.8-0.4,2.2-1.5,1.9-2.8c-0.3-1.4-2-1.6-2.8-1c-0.8,0.5-0.6,1.7-0.1,2.1
				c0.5,0.4,1.4,0.3,1.6,0c0.2-0.3,0-1-0.4-0.9c-0.4,0.1-0.7,0.4-0.7,0.4s-0.6-0.6,0-1c0.6-0.5,1.3-0.4,1.7,0.1
				c0.4,0.6,0.6,1.8-0.4,2.3c-1,0.5-1.8,0.2-2.3-0.4c-0.5-0.6-0.6-0.7-0.6-1.8c0-1.1-0.2-2.3-1.2-2.4c-1-0.1-1.7,0.9-1.7,0.9
				s-1.5-1.7-2.6-2.2c-1-0.5-3.3-0.5-3.3-0.5s0.3-1-0.2-1.6c-0.5-0.5-1-0.7-1-0.7s0.7-0.8,1.2-1.1c0.6-0.4,1.1-0.4,1.1-0.4
				s-0.1,1.3-0.1,1.7c0.1,0.5,0.5,0.7,1.4,0.3c0.9-0.4,1.6-1,2.5-0.5c0.9,0.5,0.6,2.2,0.6,2.2s0.9-1.7,0.2-2.6c-0.7-0.9-1.7-1-2.3-1
				c-0.6,0-1.1,0-1.1-0.4c0-0.4,0.8-1.1,0.9-2c0.1-0.9,0-1.4,0-1.4s-0.5-0.2-1.4,0c-0.9,0.1-1.5,1-2,0.9c-0.4,0-0.4-0.5-0.4-1.1
				c0-0.6-0.2-1.7-1-2.3c-0.9-0.7-2.6,0.2-2.6,0.2s1.8-0.2,2.2,0.6c0.5,0.9-0.1,1.6-0.5,2.5c-0.4,0.9-0.2,1.3,0.3,1.4
				c0.5,0.1,1.7-0.1,1.7-0.1s0,0.5-0.4,1.1c-0.4,0.6-1.1,1.2-1.1,1.2s-0.1-0.5-0.7-1c-0.5-0.5-1.6-0.2-1.6-0.2s0-2.2-0.5-3.3
				c-0.5-1-2.2-2.6-2.2-2.6s1-0.7,0.9-1.7c-0.1-1-1.3-1.1-2.4-1.2c-1.1,0-1.2-0.1-1.8-0.6c-0.6-0.5-0.9-1.3-0.4-2.3
				c0.5-1,1.7-0.8,2.3-0.4c0.6,0.4,0.6,1.1,0.1,1.7s-1,0-1,0s0.3-0.3,0.4-0.7c0.1-0.4-0.6-0.6-0.9-0.4c-0.3,0.2-0.4,1.1,0,1.6
				c0.4,0.5,1.5,0.7,2.1-0.1c0.5-0.8,0.3-2.5-1-2.8c-1.4-0.3-2.4,0.1-2.8,1.9s1.6,2.7,1.6,2.7s-1.2-0.1-2.7,0.2l-0.3,0
				c0-0.1,0-0.3-0.1-0.4c-0.2-1.4-1.4-3-2.7-4.4c-1.2-1.4-4.3-3.4-4.9-4.6c-0.6-1.1-0.7-2.5,0.1-3.8C8.7,99,9.3,99,10.3,99
				c0.9-0.1,1.7,0.7,1.7,0.7s-0.4-1.1-1.2-1.3c-0.8-0.2-1.5-0.1-1.5-0.1s0.2-0.3,0.4-0.7c0.1-0.4,0.3-1.4-0.3-2.2
				c-0.6-0.7-2.6-0.9-3.4-0.6c-0.8,0.3-1.1,1.4-0.7,2c0.4,0.6,1,0.8,1.6,0.5c0.6-0.3,0.6-1.3,0.6-1.3s0.4-0.2,0.8-0.1
				c0.4,0.1,1.1,0,1.1,1.2c-0.1,1.1-0.7,1.3-0.7,1.3s0.1-0.4,0.1-0.8c-0.1-0.4-0.7-0.6-1.3,0c-0.7,0.6-1,1.4-0.9,1.9
				c0.1,0.5,0.8,0.3,0.8,0.3s-0.7,0.9-0.9,2.6c-0.2,1.7,0.6,3,0.6,3s-1.3,0-1.7,1c-0.4,1,0.1,1.8,0.1,1.8s0.1-0.9,0.5-1.5
				c0.3-0.6,0.9-0.6,1.5-0.4c0.6,0.2,0.4,0.6,1,1.3c0.6,0.7,1.6,0.7,1.6,0.7s-1.5,0.5-1.8,1.5c-0.4,1-0.6,1.8,0.4,2.9
				c1,1.1,2.4,0.3,2.4,0.3s-1.5,0-1.8-1.5c-0.3-1.5,0.6-2.4,2.4-2.1c1.8,0.3,2.5,1.8,3.2,3.4c0.1,0.3,0.2,0.5,0.2,0.8
				c-1,0.2-1.8,0.5-3.2,1.4c-0.8-0.4-1.7-0.4-3-0.1c-1.7,0.4-3,2.8-2.9,3.1c0.1,0.3,0.5,0.1,0.9,0.3c0.4,0.2,0.5,0.3,0.5,1
				c-0.1,0.7-0.7,0.3-1.5,0.9c-0.7,0.6-0.8,1.7-0.4,2.7c0.4,0.9,1.5,1.1,2.1,0.9c0.6-0.2,1-1.3,0.6-1.8c-0.5-0.4-1.2-0.4-1.4,0.2
				c-0.2,0.6,0.5,0.9,0.5,0.9s-0.6,0.1-1-0.4c-0.4-0.5-0.3-1.5,0.5-1.8c0.8-0.3,1.5-0.2,2.1,0.7c0.6,0.9,0.6,2,0.6,2
				s0.2-0.4,0.2-1.1c0-0.7,0-1.3-0.4-2.3c-0.1-0.3-0.2-0.5-0.3-0.7c0.3-0.5,0.7-1.3,1.4-2.2c0.4-0.6,0.8-1,1.2-1.4
				c0.1,0.1,0.3,0.2,0.4,0.4c0.8,0.8,0.4,2,0.4,2s-0.5-0.6-1-0.6c-0.5,0-0.7,0.6-0.5,1.1c0.2,0.5,1.2,1,1.9,0.3
				c0.7-0.7,0.7-2.5-0.3-3.5c-0.1-0.1-0.1-0.2-0.2-0.2c0.6-0.4,1.1-0.7,1.8-0.9c0.3-0.1,0.6-0.2,0.9-0.2c0,1.3-0.3,2.6-0.3,2.6
				s0.5-0.6,0.6-1.3c0.1-0.4,0.2-0.8,0.2-1.4c1.1-0.1,2.3,0,3.5,0.5c1.7,0.7,2.9,1.9,3.8,3.8c0.9,1.8,0.4,3.5,0.4,3.5
				s-0.6-1.9-1.1-2.8c-0.5-0.8-1.5-0.6-1.5-0.6s0.4-0.3,0.6-0.6c0.2-0.3,0.1-0.8-0.5-0.9c-0.6-0.1-1,0.5-0.7,1.3
				c0.2,0.8,1.1,1.1,1.9,1.9c0.8,0.8,1,1.9,0.8,3.2c-0.2,1.3-0.8,2.2-1.9,2.9c-0.7,0.5-1.9,0.8-2.5,0.9c0-0.1,0-0.1,0-0.2
				c0-0.6,0-1.2,0-1.2l1.5,0c0,0,0-0.5-0.5-1.2s-1.4-1.3-2.4-1.8c-1-0.6-1.7-1.5-1.6-2.7c0.2-1.1,1-1.8,2.1-1.8
				c1.1-0.1,1.9,0.6,2.1,1.3c0.2,0.7,0,1.4-0.8,1.7c-0.8,0.3-1.2-0.1-1.2-0.1s1.2-0.6,0.9-1.3c-0.3-0.7-1.4-0.6-1.8,0.2
				c-0.4,0.8,0.2,1.7,1.3,1.9c1,0.1,2.2-0.8,2.2-1.9c0-1.1-0.6-1.7-2-2.2c-1.4-0.4-2.5,0.3-3,1c-0.5,0.7-0.7,1.8-0.3,2.8
				c0.3,1,2.1,2.4,2.1,2.4s-0.6,0.3-1.2,0.2c-0.6-0.1-1-0.5-1-0.5s0.4,1.2,1.2,1.5c0.8,0.3,1.9-0.2,1.9-0.2s-0.4,0.7-0.7,1
				c-0.4,0.3-0.9,0.6-1.1,0.4c-0.2-0.2-1.4-1.3-2.7-2.2c-1.3-0.9-2.4-1-2.8-0.7c-0.4,0.3-0.1,1-0.7,1.1c-0.5,0-0.5-0.6-0.9-0.8
				c-0.3-0.2-1-0.1-1.6,0.3c-0.6,0.4-1.4,1.2-1.6,2.1c-0.2,1,0,2.1,0.2,2.7c0.2,0.6,0.1,1,0.1,1s-0.6,0.8-0.3,1.2
				c0.3,0.4,1,0.8,1.3,1.1c0.3,0.3,0.2,0.7-0.3,1c-0.4,0.3-0.6,0-0.6,0s0.3-0.6,0-0.7c-0.3-0.1-0.7-0.2-0.8,0.3
				c-0.1,0.5,0.1,0.9,0.5,1.1c0.4,0.1,1.1,0.1,1.6-0.4c0.5-0.5,0.3-1.2,0.3-1.2s0.7,0,1.2,0.3c0.4,0.3,0.9,0.6,0.9,0.6l0-0.7
				c0,0,0.7,0.4,1.2,0.5c0.5,0.1,1.7,0,2.1-0.4c0.5-0.3,0.4-0.8,0.4-1.1c0-0.2,0.1,0,0.4-0.1c0.3,0,0.6-0.3,0.8-1.2
				c0.2-0.9,0.1-1.7-0.7-2.1c-0.8-0.4-1.5-0.3-2,0.3c-0.4,0.6-0.2,1.4-0.2,1.4s0.1-0.4,0.3-0.7c0.1-0.3,0.2-0.5,0.9-0.6
				c0.7,0,1.1,0.3,1.3,1.1c0.1,0.7,0,1-0.4,1.3c-0.3,0.4-0.6,0.2-0.8,0.4c-0.2,0.2-0.1,0.3-0.4,0.7c-0.3,0.4-2,0.6-2.8-0.2
				c-0.8-0.8-0.8-2-0.5-3.2c0.3-1.2,1-1.3,1.5-1.7c0.4-0.4,0.5-1,0.2-1.2c-0.3-0.2-0.5-0.1-1.1,0.4c-0.7,0.5-1.3,1.2-1.5,2.8
				c-0.1,1.6,0.7,3,0.7,3s-0.5-0.1-1-0.3c-0.4-0.2-0.6-0.5-0.8-1c-0.2-0.5-0.2-1-0.3-1.2c-0.2-0.3-0.4,0-0.4,0s-0.2-0.7-0.2-2.1
				c0-1.3,0.9-2.6,1.6-2.9c0.7-0.3,0.7,0.3,0.9,0.7c0.3,0.3,0.8,0.5,1.3,0.3c0.6-0.1,1-0.8,1.1-0.9c0.2-0.2,0.8,0,1.6,0.6
				c0.8,0.5,1.6,1.4,1.6,1.4s-0.3-0.1-1-0.1c-0.6,0-1.4,0-2,0.3c-0.6,0.3-1.2,1.2-1.3,1.8c-0.1,0.6,0,1.4,0.3,2
				c0.3,0.6,0.6,0.9,1.2,0.8c0.6,0,1-0.2,1.3-0.7c0.3-0.4,0.2-1.2-0.1-1.4c-0.3-0.2-0.8,0.2-0.8,0.6c0,0.4,0.2,0.5,0.2,0.5
				s0.1,0.2-0.1,0.3c-0.2,0.1-0.4,0-0.7-0.2c-0.3-0.2-0.6-0.7-0.5-1.4c0.1-0.7,0.3-1.1,0.8-1.5c0.4-0.3,1.3-0.4,2.6-0.4
				c1.3,0,2.2,0.2,2.6,0.7c0.3,0.6,0.4,1.3,0.4,1.3s-1,0.1-1.5,0.7c-0.5,0.6-0.6,1.4-0.6,1.4s0.2,0.1,0.6,0.2c0.3,0,0.8,0,0.8,0
				s-0.4,0.8-0.8,1.3s-1.2,1.1-1.2,1.1s0-0.5-0.1-1.1c-0.2-0.6-0.8-0.8-0.8-0.8s0.3,0.6,0.2,1.3c0,0.7-0.2,1.3-0.9,2.4
				c-0.7,1-2.2,1.9-2.2,1.9s0.1-1.2,0-2.1c-0.1-1-0.8-1.9-0.8-1.9s0.2,1.5,0.2,2.6c0,1-0.1,1.9-0.9,2.3c-0.8,0.4-1.5,0.2-1.8,0
				c-0.4-0.3-0.6-0.9-0.5-1.4c0.1-0.5,0.8-0.5,0.8-0.5s0.1,0.3,0.2,0.5c0.2,0.2,0.4,0.3,0.7,0.1c0.4-0.1,0.4-0.7,0.2-1
				c-0.2-0.3-1-1-2-0.4c-1,0.6-1,1.6-0.8,2.4c0.2,0.8,0.8,1.3,1,2c0.2,0.7,0.1,1-0.2,1.4c-0.3,0.4-0.7,0.6-1,0.6s-0.7-0.3-0.8-0.7
				c0-0.4,0.5-0.5,0.5-0.5s-0.1,0.5,0.1,0.6c0.2,0.1,0.5,0.1,0.6-0.2c0.1-0.3,0-0.9-0.4-1.2c-0.5-0.3-1.2-0.1-1.5,0.6
				c-0.3,0.7,0.1,1.5,0.8,1.8c0.7,0.3,1.3-0.2,1.3-0.1c0,0-0.4,0.6-0.1,1.3c0.3,0.7,1.1,1.1,1.8,0.8c0.7-0.3,0.9-1,0.6-1.5
				c-0.3-0.5-1-0.6-1.2-0.4c-0.3,0.1-0.3,0.4-0.2,0.6c0.1,0.2,0.6,0.1,0.6,0.1s-0.2,0.5-0.5,0.5c-0.4,0-0.7-0.5-0.7-0.8
				c0-0.3,0.2-0.7,0.6-1c0.4-0.3,0.7-0.4,1.4-0.2c0.7,0.2,1.2,0.8,2,1c0.8,0.2,1.8,0.2,2.4-0.8c0.6-1-0.1-1.8-0.4-2
				c-0.3-0.2-0.8-0.1-1,0.2c-0.1,0.4-0.1,0.6,0.1,0.7c0.2,0.2,0.5,0.2,0.5,0.2s0,0.6-0.5,0.8c-0.5,0.1-1.1-0.1-1.4-0.5
				c-0.3-0.4-0.4-1,0-1.8c0.4-0.8,1.3-0.9,2.3-0.9c1,0,2.6,0.2,2.6,0.2s-0.9-0.7-1.9-0.8c-1-0.1-2.1,0-2.1,0s0.8-1.5,1.9-2.2
				c1-0.7,1.7-0.8,2.4-0.9c0.7,0,1.3,0.2,1.3,0.2s-0.2-0.7-0.8-0.8c-0.6-0.2-1.1-0.1-1.1-0.1s0.6-0.8,1.1-1.2
				c0.5-0.4,1.3-0.8,1.3-0.8s0,0.5,0,0.8c0,0.3,0.2,0.6,0.2,0.6s0.8-0.1,1.4-0.6c0.6-0.5,0.7-1.5,0.7-1.5s0.7,0,1.3,0.4
				c0.6,0.3,0.8,1.3,0.7,2.6c0,1.3,0,2.1-0.4,2.6c-0.3,0.4-0.7,0.7-1.5,0.8c-0.7,0.1-1.2-0.2-1.4-0.5c-0.2-0.3-0.3-0.6-0.2-0.7
				c0.1-0.2,0.3-0.1,0.3-0.1s0.1,0.3,0.5,0.2c0.4,0,0.8-0.5,0.6-0.8c-0.2-0.3-1-0.4-1.4-0.1c-0.4,0.3-0.6,0.7-0.7,1.3
				c0,0.6,0.3,0.9,0.8,1.2c0.6,0.3,1.3,0.4,2,0.3c0.6-0.1,1.5-0.7,1.8-1.3c0.3-0.6,0.3-1.3,0.3-2c0-0.6-0.1-1-0.1-1s0.9,0.8,1.4,1.6
				c0.5,0.8,0.7,1.4,0.6,1.6c-0.2,0.2-0.8,0.6-0.9,1.1c-0.1,0.6,0,1,0.3,1.3c0.3,0.3,0.9,0.2,0.7,0.9c-0.3,0.7-1.6,1.6-2.9,1.6
				s-2.1-0.2-2.1-0.2s0.3-0.3,0-0.4c-0.3-0.2-0.7-0.1-1.2-0.3c-0.5-0.2-0.8-0.4-1-0.8c-0.2-0.4-0.3-1-0.3-1s1.4,0.8,3,0.7
				c1.6-0.1,2.2-0.8,2.8-1.5c0.5-0.7,0.6-0.9,0.4-1.1c-0.2-0.3-0.8-0.2-1.2,0.2c-0.4,0.4-0.5,1.2-1.7,1.5c-1.2,0.3-2.4,0.3-3.2-0.5
				c-0.8-0.8-0.6-2.5-0.2-2.8s0.5-0.2,0.7-0.4c0.2-0.2,0.1-0.4,0.4-0.8c0.4-0.3,0.6-0.5,1.3-0.4c0.7,0.1,1.1,0.6,1.1,1.3
				c0,0.7-0.3,0.8-0.6,0.9c-0.3,0.1-0.7,0.3-0.7,0.3s0.8,0.2,1.4-0.2c0.6-0.4,0.7-1.2,0.3-2c-0.4-0.8-1.2-0.9-2.1-0.7
				c-0.9,0.2-1.1,0.5-1.2,0.8c0,0.3,0.1,0.4-0.1,0.4c-0.2,0-0.7-0.1-1.1,0.4c-0.3,0.5-0.5,1.6-0.4,2.1c0.1,0.5,0.5,1.2,0.5,1.2
				l-0.7,0c0,0,0.3,0.4,0.6,0.9c0.3,0.4,0.3,1.2,0.3,1.2s-0.7-0.2-1.2,0.3c-0.5,0.5-0.5,1.2-0.4,1.6c0.1,0.4,0.6,0.6,1.1,0.5
				c0.5-0.1,0.4-0.5,0.3-0.8s-0.7,0-0.7,0s-0.3-0.2,0-0.6c0.3-0.4,0.7-0.5,1-0.3c0.3,0.3,0.7,0.9,1.1,1.3c0.4,0.3,1.2-0.3,1.2-0.3
				s0.4-0.1,1,0.1c0.6,0.2,1.7,0.5,2.7,0.2c1-0.2,1.7-1,2.1-1.6s0.5-1.3,0.3-1.6c-0.2-0.3-0.9-0.4-0.8-0.9c0-0.5,0.8-0.3,1.1-0.7
				c0.3-0.4,0.2-1.5-0.7-2.8c-0.9-1.3-2-2.5-2.2-2.7c-0.2-0.2,0-0.7,0.4-1.1c0.3-0.4,1-0.7,1-0.7s-0.5,1.1-0.2,1.9
				c0.3,0.8,1.5,1.2,1.5,1.2s-0.3-0.5-0.5-1s0.2-1.2,0.2-1.2s1.4,1.7,2.4,2.1c1,0.3,2.1,0.2,2.8-0.3c0.7-0.5,1.4-1.6,1-3
				c-0.4-1.4-1.1-2-2.2-2c-1.1,0-2,1.1-1.9,2.2c0.1,1,1,1.7,1.9,1.3c0.8-0.4,1-1.5,0.2-1.8c-0.7-0.3-1.3,0.9-1.3,0.9
				s-0.4-0.4-0.1-1.2c0.3-0.8,1-1,1.7-0.8c0.7,0.2,1.4,0.9,1.3,2.1c-0.1,1.1-0.7,1.9-1.8,2.1c-1.1,0.2-2.1-0.6-2.7-1.6
				c-0.6-1-1.2-1.9-1.8-2.4c-0.7-0.5-1.2-0.5-1.2-0.5l0,1.5c0,0-0.6,0-1.2,0c-0.1,0-0.1,0-0.2,0c0.1-0.6,0.4-1.8,0.9-2.5
				c0.7-1.1,1.5-1.8,2.9-1.9c1.3-0.2,2.5,0.1,3.2,0.8c0.8,0.8,1.1,1.6,1.9,1.9c0.8,0.2,1.4-0.2,1.3-0.7c-0.1-0.6-0.6-0.7-0.9-0.5
				c-0.3,0.2-0.6,0.6-0.6,0.6s0.3-0.9-0.6-1.5s-2.8-1.1-2.8-1.1s1.7-0.6,3.5,0.4c1.8,0.9,3.1,2.2,3.8,3.8c0.5,1.2,0.6,2.4,0.5,3.5
				c-0.6,0-1,0.1-1.4,0.2c-0.6,0.1-1.3,0.6-1.3,0.6s1.3-0.4,2.6-0.3c-0.1,0.3-0.1,0.6-0.2,0.9c-0.2,0.7-0.5,1.3-0.9,1.8
				c-0.1-0.1-0.1-0.1-0.2-0.2c-1.1-0.9-2.8-1-3.5-0.3c-0.7,0.7-0.2,1.7,0.3,1.9c0.5,0.2,1.1,0,1.1-0.5c0-0.5-0.6-1-0.6-1
				s1.2-0.4,2,0.4c0.1,0.1,0.3,0.3,0.4,0.4c-0.4,0.4-0.9,0.8-1.4,1.2c-0.9,0.7-1.7,1.1-2.2,1.4c-0.2-0.1-0.4-0.3-0.7-0.3
				c-1.1-0.4-1.6-0.4-2.3-0.4c-0.7,0-1.1,0.2-1.1,0.2s1,0,2,0.6c0.9,0.6,1.1,1.3,0.7,2.1c-0.3,0.8-1.3,0.9-1.8,0.5
				c-0.5-0.4-0.4-1-0.4-1s0.3,0.7,0.9,0.5c0.6-0.2,0.6-0.9,0.2-1.4c-0.4-0.5-1.5,0-1.8,0.6c-0.2,0.6-0.1,1.7,0.9,2.1
				c0.9,0.4,2.1,0.3,2.7-0.4c0.6-0.7,0.2-1.4,0.9-1.5c0.7-0.1,0.8,0.1,1,0.5c0.2,0.4,0,0.8,0.3,0.9c0.3,0.1,2.7-1.1,3.1-2.9
				c0.3-1.3,0.4-2.2-0.1-3c1-1.4,1.2-2.2,1.4-3.2c0.3,0,0.6,0.1,0.8,0.2c1.6,0.7,3.1,1.3,3.4,3.2c0.3,1.8-0.7,2.7-2.1,2.4
				c-1.5-0.3-1.5-1.8-1.5-1.8s-0.8,1.5,0.3,2.4c1.1,1,1.9,0.8,2.9,0.4c1-0.4,1.5-1.8,1.5-1.8s0,1,0.7,1.6c0.7,0.6,1.1,0.4,1.3,1
				c0.2,0.6,0.2,1.1-0.4,1.5c-0.6,0.3-1.5,0.5-1.5,0.5s0.8,0.5,1.8,0.1c1-0.4,1-1.7,1-1.7s1.3,0.8,3,0.6c1.7-0.2,2.6-0.9,2.6-0.9
				s-0.2,0.7,0.3,0.8c0.5,0.1,1.4-0.3,1.9-0.9c0.6-0.7,0.4-1.3,0-1.3c-0.4-0.1-0.8,0.1-0.8,0.1s0.1-0.6,1.3-0.7
				c1.1-0.1,1.1,0.6,1.2,1.1c0.1,0.4-0.1,0.8-0.1,0.8s-1,0-1.3,0.6c-0.3,0.6-0.1,1.2,0.5,1.6c0.6,0.4,1.7,0,2-0.7
				c0.2-0.6,0.2-1.8-0.1-2.6c0.4-0.1,1.3-0.3,2-0.9c0.8-0.7,1.1-1.5,1.2-2.7c1,1.2,3.1,3.6,4.3,4c0.9,0.3,1.6,0.5,2.3,0.6
				c-0.1,0.4-0.3,1,0,1.6c0.5,0.9,2.1,1.4,3.6,0.1c1.5-1.3,2.7-3.3,3.9-3.7c1.2-0.4,2,0.3,2.2,0.8c0.3,0.6,0.2,1.7,0,2.2
				c-0.2,0.5-0.7,0.7-0.7,0.7s0.2-1.4-0.3-1.9c-0.5-0.6-1.9-0.5-2.2,0.7c-0.3,1.2,0.6,2.3,2,2.3c1.4,0,2.2-0.8,2.5-2.2
				C75.9,142.9,76,142.7,76,142.6L76,142.6L76,142.6z M58.2,136.1c0.9,0.9,2.6,2.5,4.1,3.3c2.1,1,3.8,1.7,5.4,0.1
				c1.6-1.6,1.5-3.9,1.1-5.3c-0.4-1.4-2.2-1.5-3.5-1.1c-1.3,0.4-1.3,2-0.8,2.9c0.5,0.9,1.6,0.9,1.8,0.1c0.1-0.8-0.1-1-0.5-1.1
				c-0.1,0-0.1,0-0.2,0c0.1-0.3,0.2-0.6,0.5-0.6c0.6,0,1.4,0.6,1.4,1.5c0,0.9-0.6,1.7-1.7,1.8c-1.1,0.1-2.6-1-2.6-2.5
				c0-1.5,0.1-2.8,1.5-3.1c1.4-0.3,2.8-0.5,4.3,0.6c1.5,1.1,1.9,2.1,1.6,4.1c-0.3,2-0.9,3.3-2,4.1c-1,0.8-2.5,1.1-4,0.9
				c-1.5-0.2-3.2-1.5-4.5-2.9c-0.6-0.7-1.4-1.4-1.9-1.9c0-0.2,0-0.4,0-0.6C58.2,136.2,58.2,136.2,58.2,136.1L58.2,136.1L58.2,136.1z
				 M11.2,115.6c-0.5-0.1-1.1-0.1-1.8,0.3c-1.2,0.7-1.4,1.4-1.3,2.2c0.1,0.4,0.4,0.7,0.7,1.2C9.2,118.4,9.9,116.7,11.2,115.6z
				 M34.3,138.7c0.1,0.5,0.1,1.1-0.3,1.8c-0.7,1.2-1.4,1.4-2.2,1.3c-0.4-0.1-0.7-0.4-1.2-0.7C31.5,140.7,33.1,139.9,34.3,138.7z"/>
			<path class="st0" d="M7.6,92.6c0,0-0.9-0.1-1.1-1.1c-0.2-1,0.5-2.1,1.3-1.9c0.8,0.2,0.8,0.9,0.7,1.2c-0.1,0.4-0.4,0.5-0.7,0.5
				c-0.3,0-0.6-0.3-0.6-0.3s-0.3,0.7,0.6,0.8c0.9,0.1,1.7-0.6,1.5-2c-0.2-1.4-1.4-1.3-2-1.4c-0.6-0.1-0.9,0-0.9,0s0.1,0.9-0.7,0.9
				c-0.8,0-0.8-0.6-0.7-1c0.1-0.4,0.8-0.7,0.8-0.7s-0.7-0.6-0.7-1.9c0.1-1.3,0.6-2.4,1.4-3.3c0.8-0.9,2.1-1.8,2.1-1.8
				s-2,0.6-2.5,0.9c-0.5,0.4-0.5,1.2-0.5,1.2s-0.2-0.4-0.2-0.8c0-0.4,0.2-0.6,0.2-0.6s-0.3,0.2-0.6-0.2c-0.2-0.4-0.2-0.6-0.2-0.6
				s0.2-0.2,0.6-0.2c0.4,0,0.5,0.4,0.5,0.4s0-0.4,0.2-0.7c0.2-0.3,0.7-0.3,0.7-0.3s-0.3,0.4-0.4,0.7c-0.1,0.2-0.1,0.4-0.1,0.4
				s0.7-0.4,1.4-0.6c0.7-0.3,1.4-0.5,2-1.3c0.5-0.7,0.8-2,0.8-2s0,1.5-0.3,2.3c-0.3,0.8-0.6,0.9-0.3,1.3c0.2,0.4,0.9,0.6,0.9,0.6
				s-0.3,0.4-0.8,0.2c-0.5-0.1-0.7-0.7-0.7-0.7s-1.1,0.6-2.1,1.6c-1,1-1.6,2.3-1.5,3.4c0.1,1.1,1.2,1.8,2.2,1.7c1.1,0,2.2-0.8,2-1.9
				c-0.2-1.1-0.6-1.3-1.1-1.3c-0.6,0-1.4,0.6-1.5,1.2c-0.1,0.6,0.4,1.1,0.8,1c0.5-0.1,0.4-0.7,0.2-0.8C8.3,85.3,8,85.3,8,85.3
				s0.4-0.2,0.7,0.1c0.3,0.3,0.4,1.1-0.3,1.4C7.7,87,7,86.7,6.8,86.2c-0.1-0.5-0.1-1.3,0.5-2s1.4-0.7,1.4-0.7s0.2-0.5-0.1-0.6
				C8.4,82.8,7.8,83,7.8,83s0-0.5,0.4-0.6c0.4-0.1,0.7,0,0.7,0s-0.1-0.2,0-0.5c0.1-0.3,0.4-0.5,0.4-0.5s0.4,0.4,0.4,0.7
				c0.1,0.3,0,0.6,0,0.6s0.2-0.2,0.5-0.1c0.3,0.1,0.5,0.5,0.5,0.5s-0.5,0-0.8,0.2c-0.3,0.2-0.3,0.6-0.3,0.6s1.1,0.4,1,1.8
				c-0.1,1.4-1.3,2.2-1.3,2.2s1.3,0.7,1.2,2.4c-0.2,1.6-0.6,1.8-1.1,2.2c-0.6,0.3-1,0.3-1,0.3s-0.2,0.5,0.1,0.7s0.8,0.2,0.8,0.2
				s-0.6,0.4-1.2,0.2C7.5,93.4,7.6,92.6,7.6,92.6C7.6,92.6,7.6,92.6,7.6,92.6z M9,91.9c0,0,0.6-0.7,0.7-1.4c0.1-0.7-0.2-1.5-0.8-1.9
				c-0.6-0.4-2-0.8-2-0.8s2.2,0,2.9,1.1C10.5,89.8,10.4,91.3,9,91.9z"/>
			<path class="st0" d="M20.2,20.6c0,0,1.2,0.1,1.5-0.4c0.3-0.5-0.1-1.6-0.1-1.6s0.3,0.1,0.8,0.1c0,0.6,0,1.6,0.1,2.2
				c0.2,0.9,0.7,1.5,1.6,2.2c0.9,0.7,2.7,1.2,3,1.1c0.3-0.1,0.2,0.8-0.3,1.4c-0.6,0.6-1.3,0.1-1.4,0.1c0,0,0.5,0.8-0.1,1.4
				c-0.6,0.6-1.5,0.6-1.4,0.3c0.1-0.3-0.4-2.1-1.1-3c-0.7-0.9-1.3-1.4-2.2-1.6c-0.6-0.1-1.6-0.1-2.2-0.1c0-0.5-0.1-0.8-0.1-0.8
				s1.1,0.4,1.6,0.1C20.4,21.7,20.2,20.6,20.2,20.6z M76,7.7c0.8,0.1,2.3,0.2,3,0.6c1,0.6,1.9,1.3,1.9,1.3s1.2,0.1,1.3-0.9
				c0.1-1-0.1-1.3-0.3-1.3c-0.2,0-0.5,0-0.5,0s0.2,0.9-0.7,1c-0.9,0.1-1.1-0.8-0.4-1.4c0.7-0.6,1.9-1.2,2.7,0c0.8,1.2,0.2,2.7,0.2,3
				c0,0.4-0.5-0.3-1.1,0.1c-0.6,0.4-0.5,1.1-0.2,1.5c0.3,0.4,1.3-0.2,1.3-0.2s-0.6,1,0.5,2.1c1.1,1.1,1.7,0.5,2.5,0.2
				c0.8-0.4,1.1-1.1,0.8-2.1c-0.2-0.9-1.4-0.6-1.4-0.6s0.5,0.7,0.2,1.4c-0.3,0.7-1.2,0.6-1.7-0.2c-0.6-0.7,0-1.7,0.6-2
				c0.6-0.3,1.6-0.4,2.3,0.1c0.7,0.5,1.3,1.3,1.1,2.8c-0.2,1.5-1.1,2-2.3,2.3c-1.2,0.2-2.2-0.3-3-1c-0.7-0.7-1.3-1.4-1.3-1.4
				s0.2,1.6-1,2.9c-1.2,1.3-4.2,1-4.2,1s0.1,0.8-0.5,0.9c-0.6,0.1-0.9-0.9-1.3-1.3c-0.4-0.4-0.9-0.7-1.5-0.6
				c-0.6,0.2-0.8,0.5-0.8,0.5s1.6,0.3,1.4,1.2c-0.2,0.9-1,1.6-1.7,1.2c-0.8-0.4-0.9-2.4-0.1-3.5c0.8-1.1,1.4-0.9,2-0.9
				c0.6,0,1,0.2,1,0.2s-0.7-2,0.6-2.8c1.3-0.8,2.4-0.7,3.1,0.2c0.6,0.9-0.4,2-0.4,2s0.5-1.5-0.4-1.9c-0.9-0.4-2.2,0-2.1,1.5
				c0.1,1.5,1.4,2.4,3,2c1.5-0.3,2.6-1.3,2.3-3.2c-0.2-1.9-1.4-3.1-2.7-3.7c-0.7-0.4-1.6-0.6-2.2-0.6c0,1-0.3,1.9-1.3,2.5
				c-1.3,0.8-2.1,0.5-3.3-0.3c-1.2-0.8-1.7-2-2.4-2.1C68.6,8,68,8.2,67.6,8.4c1.2,0.4,2.1,0.9,2.8,2.5c0.9,2,1.4,3.9,0.5,5.6
				c-0.9,1.7-2.7,2.7-3.9,2.6c-1.1,0-1.9-0.1-1.9-0.1s1,1.3-0.2,1.4c-1.2,0.1-2-1.2-3.2-1.7s-2.6-0.5-3.1,0.9
				c-0.5,1.4,0.2,2.2,0.8,2.4c0.7,0.2,1.1,0,1.2-0.3c0-0.4-0.3-0.4-0.3-0.4s-0.7,0.5-1,0.2c-0.2-0.4-0.3-1.6,0.7-1.7
				c0.9-0.1,1.4,0.4,1.5,1.6c0.1,1.2-0.9,1.3-1.6,1.4c-0.7,0-2.1-0.5-2-2.2c0.1-1.8,0.8-2.3,2.1-2.7c1.3-0.4,2.7-0.1,2.7-0.1
				s-1-1.9-0.3-3.4c0.7-1.4,2-2.6,3.4-2.4c1.4,0.2,2,1.4,1.9,2.6c-0.1,1.2-0.8,1.7-1.5,1.7c-0.6,0-0.8-0.6-0.9-0.9
				c-0.3,0-0.6,0-0.6,0s0,1.1,1,1.3c1,0.2,1.9-0.3,2.3-1.4c0.4-1,0.4-1.9-0.1-2.8c-0.5-0.9-1.4-1.7-3-1.5c-1.5,0.1-3,0.6-4.7,1.9
				c-0.9,0.7-1.7,1.3-2.2,1.7c-0.2,1.4-0.9,1.8-1.3,2.1c-0.5,0.4-0.9,0.1-0.9,0.1s-0.4,0.5-0.8,1c-0.5,0.5-1.4,1-1.4,1
				s1.3-0.1,2.5-0.3c1.2-0.2,2.5-0.5,2.5-0.5s-2.4,1.2-4.8,1.4c-1.8,0.2-4.8,0.2-6.3,0.2c0.1,0.3,0,0.6,0.2,0.8
				c0.2,0.2,3.4-0.2,4.6,0.6c1.1,0.8,0.4,1.9-0.6,2c-1,0.1-1-0.5-1.1-0.8c0-0.3,0.6-0.2,0.7-0.3c0.2-0.1-0.1-0.6-0.9-0.6
				c-0.8,0-1.6,0.1-3.2,0.5c-1.5,0.4-2.9-0.6-3.2-1.6c-0.3-1,1-1.7,1-1.7s-0.5-0.5-0.9-1.1c-0.4-0.7-0.6-1.8-0.6-1.8s-1.9,1.2-2.2,0
				c-0.3-1.2,1.9-1.2,1.9-1.2s-0.1-0.6,0-1.6c0.1-1,0.5-2.1,1.5-3.3c1-1.1,1.9-1.4,3-1.3c1.1,0.1,1.8,1.4,1.5,2.4
				c-0.4,1-1.4,1.7-2,1.6c-0.6-0.1-0.8-1.1-0.3-1.8c0.5-0.7,1.4-0.4,1.4-0.4s0-0.9-1.2-1c-1.1-0.1-1.9,0.8-2.5,2.2
				c-0.6,1.4-0.6,2.9,0,4.2c0.6,1.3,1.5,1.7,2.1,1.8c0.6,0.1,1.8,0.2,2.4,0.1c0.6-0.1,0.8-0.3,1-0.6c0.1-0.2,0.1-1.1-0.3-1.3
				c-0.4-0.2-0.9-0.1-0.9-0.1s0.2,0.4,0.2,0.8c0,0.4,0,0.6-0.7,0.6c-0.7-0.1-1.2-0.7-0.9-1.6c0.3-0.8,1.1-0.8,1.7-0.4
				c0.5,0.4,1.2,0.1,1.9-0.2c0.7-0.4,1.6-0.5,2.4,0.1c0.8,0.6,0.5,2-0.3,2.6c-0.8,0.7-1.4-0.1-1.2-0.9c0.2-0.8,1.2-0.7,1.2-0.7
				s-0.5-0.6-1.3-0.6c-0.7,0-1.1,0.8-1.1,0.8s0.2,0.3,0.4,0.6c0.2,0.3,0.2,1.3-0.4,1.5c-0.6,0.3-0.9-0.5-0.9-0.5s-0.6,0.3-1.5,0.4
				c-0.9,0-2.1,0-2.1,0s0.8,0.6,1.1,1.1c0,0,0,0.1,0,0.1c1.2,0,3.4,0,4.8-0.3c2.1-0.5,3.4-2.6,3.4-2.6s-0.9-0.4-0.5-1.7
				c0.4-1.3,1.6-1.6,1.3-3.4c-0.2-1.4-0.9-2-1.6-2c-0.1,0.1-0.2,0.3-0.3,0.3c-0.7,0.6-1.8,0.5-2.2,0.3h0c-0.1,0.3-0.3,1-0.3,1.6
				c-0.1,0.8,0,1.4,1,1.9c1,0.4,1.9,0,2-0.8c0.1-0.8-0.3-1.6-0.9-1.6c-0.6,0-0.5,0.5-0.5,0.5s0.8,0.6,0.6,1.1
				c-0.2,0.5-0.7,0.5-1.2,0.1c-0.5-0.4-0.2-1.7,0.4-2c0.7-0.4,1.4-0.2,1.9,1c0.5,1.2-0.2,2.5-1.6,2.5c-1.4,0-2.2-0.9-2.2-1.9
				c0-0.8,0.4-1.8,0.6-2.2c-0.3-0.1-0.6-0.3-0.6-0.3s0.1,0.7-0.1,1.5c-0.2,0.8-1.3,1.2-1.3,1.2s0.8-0.8,0.7-1.7
				c-0.1-0.9,0-1.6-1.3-2.4c-1.3-0.7-2.7-0.7-3.8-0.1c-1.1,0.6-3.2,3.7-4.6,4.9c-1.4,1.2-3,2.5-4.4,2.7c-0.2,0-0.3,0-0.4,0.1l0,0.3
				c0.3,1.4,0.2,2.7,0.2,2.7s0.9-2.1,2.7-1.6c1.8,0.4,2.2,1.5,1.9,2.8c-0.3,1.4-2,1.6-2.8,1c-0.8-0.5-0.6-1.7-0.1-2.1
				c0.5-0.4,1.4-0.3,1.6,0c0.2,0.3,0,1-0.4,0.9c-0.4-0.1-0.7-0.4-0.7-0.4s-0.6,0.6,0,1c0.6,0.5,1.3,0.4,1.7-0.1
				c0.4-0.6,0.6-1.8-0.4-2.3c-1-0.5-1.8-0.2-2.3,0.4c-0.5,0.6-0.6,0.7-0.6,1.8c0,1.1-0.2,2.3-1.2,2.4c-1,0.1-1.7-0.9-1.7-0.9
				s-1.5,1.7-2.6,2.2c-1,0.5-3.3,0.5-3.3,0.5s0.3,1-0.2,1.6c-0.5,0.5-1,0.7-1,0.7s0.7,0.8,1.2,1.1c0.6,0.4,1.1,0.4,1.1,0.4
				s-0.1-1.3-0.1-1.7c0.1-0.5,0.5-0.7,1.4-0.3c0.9,0.4,1.6,1,2.5,0.5c0.9-0.5,0.6-2.2,0.6-2.2s0.9,1.7,0.2,2.6c-0.7,0.9-1.7,1-2.3,1
				c-0.6,0-1.1,0-1.1,0.4c0,0.4,0.8,1.1,0.9,2c0.1,0.9,0,1.4,0,1.4s-0.5,0.2-1.4,0c-0.9-0.1-1.5-1-2-0.9c-0.4,0-0.4,0.5-0.4,1.1
				c0,0.6-0.2,1.7-1,2.3c-0.9,0.7-2.6-0.2-2.6-0.2s1.8,0.2,2.2-0.6c0.5-0.9-0.1-1.6-0.5-2.5c-0.4-0.9-0.2-1.3,0.3-1.4
				c0.5-0.1,1.7,0.1,1.7,0.1s0-0.5-0.4-1.1c-0.4-0.6-1.1-1.2-1.1-1.2s-0.1,0.5-0.7,1c-0.5,0.5-1.6,0.2-1.6,0.2s0,2.2-0.5,3.3
				c-0.5,1-2.2,2.6-2.2,2.6s1,0.7,0.9,1.7c-0.1,1-1.3,1.1-2.4,1.2c-1.1,0-1.2,0.1-1.8,0.6c-0.6,0.5-0.9,1.3-0.4,2.3
				c0.5,1,1.7,0.8,2.3,0.4c0.6-0.4,0.6-1.1,0.1-1.7c-0.5-0.6-1,0-1,0s0.3,0.3,0.4,0.7c0.1,0.4-0.6,0.6-0.9,0.4
				c-0.3-0.2-0.4-1.1,0-1.6c0.4-0.5,1.5-0.7,2.1,0.1c0.5,0.8,0.3,2.5-1,2.8c-1.4,0.3-2.4-0.1-2.8-1.9c-0.4-1.8,1.6-2.7,1.6-2.7
				s-1.2,0.1-2.7-0.2l-0.3,0c0,0.1,0,0.3-0.1,0.4c-0.2,1.4-1.4,3-2.7,4.4c-1.2,1.4-4.3,3.4-4.9,4.6c-0.6,1.1-0.7,2.5,0.1,3.8
				c0.7,1.3,1.4,1.2,2.4,1.3c0.9,0.1,1.7-0.7,1.7-0.7s-0.4,1.1-1.2,1.3C10,52.1,9.3,52,9.3,52s0.2,0.3,0.4,0.7
				c0.1,0.4,0.3,1.4-0.3,2.2c-0.6,0.7-2.6,0.9-3.4,0.6c-0.8-0.3-1.1-1.4-0.7-2c0.4-0.6,1-0.8,1.6-0.5c0.6,0.3,0.6,1.3,0.6,1.3
				s0.4,0.2,0.8,0.1c0.4-0.1,1.1,0,1.1-1.2C9.2,52.1,8.6,52,8.6,52s0.1,0.4,0.1,0.8c-0.1,0.4-0.7,0.6-1.3,0s-1-1.4-0.9-1.9
				c0.1-0.5,0.8-0.3,0.8-0.3s-0.7-0.9-0.9-2.6c-0.2-1.7,0.6-3,0.6-3s-1.3,0-1.7-1c-0.4-1,0.1-1.8,0.1-1.8S5.7,43,6,43.6
				c0.3,0.6,0.9,0.6,1.5,0.4c0.6-0.2,0.4-0.6,1-1.3C9,42,10,42,10,42s-1.5-0.5-1.8-1.5c-0.4-1-0.6-1.8,0.4-2.9
				c1-1.1,2.4-0.3,2.4-0.3s-1.5,0-1.8,1.5c-0.3,1.5,0.6,2.4,2.4,2.1c1.8-0.3,2.5-1.8,3.2-3.4c0.1-0.3,0.2-0.5,0.2-0.8
				c-1-0.2-1.8-0.5-3.2-1.4c-0.8,0.4-1.7,0.4-3,0.1c-1.7-0.4-3-2.8-2.9-3.1c0.1-0.3,0.5-0.1,0.9-0.3c0.4-0.2,0.5-0.3,0.5-1
				c-0.1-0.7-0.7-0.3-1.5-0.9c-0.7-0.6-0.8-1.7-0.4-2.7c0.4-0.9,1.5-1.1,2.1-0.9c0.6,0.2,1,1.3,0.6,1.8c-0.5,0.4-1.2,0.4-1.4-0.2
				c-0.2-0.6,0.5-0.9,0.5-0.9s-0.6-0.1-1,0.4C6,28,6.1,29,6.9,29.3c0.8,0.3,1.5,0.2,2.1-0.7c0.6-0.9,0.6-2,0.6-2s0.2,0.4,0.2,1.1
				c0,0.7,0,1.3-0.4,2.3c-0.1,0.3-0.2,0.5-0.3,0.7c0.3,0.5,0.7,1.3,1.4,2.2c0.4,0.6,0.8,1,1.2,1.4c0.1-0.1,0.3-0.2,0.4-0.4
				c0.8-0.8,0.4-2,0.4-2s-0.5,0.6-1,0.6c-0.5,0-0.7-0.6-0.5-1.1c0.2-0.5,1.2-1,1.9-0.3c0.7,0.7,0.7,2.5-0.3,3.5
				c-0.1,0.1-0.1,0.2-0.2,0.2c0.6,0.4,1.1,0.7,1.8,0.9c0.3,0.1,0.6,0.2,0.9,0.2c0-1.3-0.3-2.6-0.3-2.6s0.5,0.6,0.6,1.3
				c0.1,0.4,0.2,0.8,0.2,1.4c1.1,0.1,2.3,0,3.5-0.5c1.7-0.7,2.9-1.9,3.8-3.8c0.9-1.8,0.4-3.5,0.4-3.5s-0.6,1.9-1.1,2.8
				c-0.5,0.8-1.5,0.6-1.5,0.6s0.4,0.3,0.6,0.6c0.2,0.3,0.1,0.8-0.5,0.9c-0.6,0.1-1-0.5-0.7-1.3c0.2-0.8,1.1-1.1,1.9-1.9
				c0.8-0.8,1-1.9,0.8-3.2c-0.2-1.3-0.8-2.2-1.9-2.9c-0.7-0.5-1.9-0.8-2.5-0.9c0,0.1,0,0.1,0,0.2c0,0.6,0,1.2,0,1.2l1.5,0
				c0,0,0,0.5-0.5,1.2s-1.4,1.3-2.4,1.8c-1,0.6-1.7,1.5-1.6,2.7c0.2,1.1,1,1.8,2.1,1.8c1.1,0.1,1.9-0.6,2.1-1.3
				c0.2-0.7,0-1.4-0.8-1.7c-0.8-0.3-1.2,0.1-1.2,0.1s1.2,0.6,0.9,1.3c-0.3,0.7-1.4,0.6-1.8-0.2c-0.4-0.8,0.2-1.7,1.3-1.9
				c1-0.1,2.2,0.8,2.2,1.9c0,1.1-0.6,1.7-2,2.2c-1.4,0.4-2.5-0.3-3-1c-0.5-0.7-0.7-1.8-0.3-2.8c0.3-1,2.1-2.4,2.1-2.4
				s-0.6-0.3-1.2-0.2c-0.6,0.1-1,0.5-1,0.5s0.4-1.2,1.2-1.5c0.8-0.3,1.9,0.2,1.9,0.2s-0.4-0.7-0.7-1c-0.4-0.3-0.9-0.6-1.1-0.4
				c-0.2,0.2-1.4,1.3-2.7,2.2c-1.3,0.9-2.4,1-2.8,0.7c-0.4-0.3-0.1-1-0.7-1.1c-0.5,0-0.5,0.6-0.9,0.8c-0.3,0.2-1,0.1-1.6-0.3
				c-0.6-0.4-1.4-1.2-1.6-2.1c-0.2-1,0-2.1,0.2-2.7c0.2-0.6,0.1-1,0.1-1s-0.6-0.8-0.3-1.2c0.3-0.4,1-0.8,1.3-1.1
				c0.3-0.3,0.2-0.7-0.3-1c-0.4-0.3-0.6,0-0.6,0s0.3,0.6,0,0.7c-0.3,0.1-0.7,0.2-0.8-0.3c-0.1-0.5,0.1-0.9,0.5-1.1
				C6.2,16,6.9,16,7.4,16.5c0.5,0.5,0.3,1.2,0.3,1.2s0.7,0,1.2-0.3c0.4-0.3,0.9-0.6,0.9-0.6l0,0.7c0,0,0.7-0.4,1.2-0.5
				c0.5-0.1,1.7,0,2.1,0.4c0.5,0.3,0.4,0.8,0.4,1.1c0,0.2,0.1,0,0.4,0.1c0.3,0,0.6,0.3,0.8,1.2c0.2,0.9,0.1,1.7-0.7,2.1
				c-0.8,0.4-1.5,0.3-2-0.3c-0.4-0.6-0.2-1.4-0.2-1.4s0.1,0.4,0.3,0.7c0.1,0.3,0.2,0.5,0.9,0.6c0.7,0,1.1-0.3,1.3-1.1
				c0.1-0.7,0-1-0.4-1.3c-0.3-0.4-0.6-0.2-0.8-0.4c-0.2-0.2-0.1-0.3-0.4-0.7c-0.3-0.4-2-0.6-2.8,0.2c-0.8,0.8-0.8,2-0.5,3.2
				c0.3,1.2,1,1.3,1.5,1.7c0.4,0.4,0.5,1,0.2,1.2c-0.3,0.2-0.5,0.1-1.1-0.4c-0.7-0.5-1.3-1.2-1.5-2.8c-0.1-1.6,0.7-3,0.7-3
				s-0.5,0.1-1,0.3c-0.4,0.2-0.6,0.5-0.8,1c-0.2,0.5-0.2,1-0.3,1.2c-0.2,0.3-0.4,0-0.4,0s-0.2,0.7-0.2,2.1c0,1.3,0.9,2.6,1.6,2.9
				c0.7,0.3,0.7-0.3,0.9-0.7c0.3-0.3,0.8-0.5,1.3-0.3c0.6,0.1,1,0.8,1.1,0.9c0.2,0.2,0.8,0,1.6-0.6c0.8-0.5,1.6-1.4,1.6-1.4
				s-0.3,0.1-1,0.1c-0.6,0-1.4,0-2-0.3c-0.6-0.3-1.2-1.2-1.3-1.8c-0.1-0.6,0-1.4,0.3-2c0.3-0.6,0.6-0.9,1.2-0.8c0.6,0,1,0.2,1.3,0.7
				c0.3,0.4,0.2,1.2-0.1,1.4c-0.3,0.2-0.8-0.2-0.8-0.6c0-0.4,0.2-0.5,0.2-0.5s0.1-0.2-0.1-0.3c-0.2-0.1-0.4,0-0.7,0.2
				c-0.3,0.2-0.6,0.7-0.5,1.4c0.1,0.7,0.3,1.1,0.8,1.5c0.4,0.3,1.3,0.4,2.6,0.4c1.3,0,2.2-0.2,2.6-0.7c0.3-0.6,0.4-1.3,0.4-1.3
				s-1-0.1-1.5-0.7c-0.5-0.6-0.6-1.4-0.6-1.4s0.2-0.1,0.6-0.2c0.3,0,0.8,0,0.8,0s-0.4-0.8-0.8-1.3c-0.4-0.5-1.2-1.1-1.2-1.1
				s0,0.5-0.1,1.1c-0.2,0.6-0.8,0.8-0.8,0.8s0.3-0.6,0.2-1.3c0-0.7-0.2-1.3-0.9-2.4c-0.7-1-2.2-1.9-2.2-1.9s0.1,1.2,0,2.1
				c-0.1,1-0.8,1.9-0.8,1.9s0.2-1.5,0.2-2.6c0-1-0.1-1.9-0.9-2.3c-0.8-0.4-1.5-0.2-1.8,0c-0.4,0.3-0.6,0.9-0.5,1.4
				c0.1,0.5,0.8,0.5,0.8,0.5s0.1-0.3,0.2-0.5c0.2-0.2,0.4-0.3,0.7-0.1c0.4,0.1,0.4,0.7,0.2,1c-0.2,0.3-1,1-2,0.4
				c-1-0.6-1-1.6-0.8-2.4c0.2-0.8,0.8-1.3,1-2c0.2-0.7,0.1-1-0.2-1.4c-0.3-0.4-0.7-0.6-1-0.6c-0.3,0-0.7,0.3-0.8,0.7
				C5.6,8.8,6.1,9,6.1,9S6,8.4,6.2,8.3c0.2-0.1,0.5-0.1,0.6,0.2c0.1,0.3,0,0.9-0.4,1.2C6,10,5.2,9.9,4.9,9.1C4.6,8.4,5,7.6,5.7,7.3
				C6.4,7,7,7.4,7,7.4c0,0-0.4-0.6-0.1-1.3C7.2,5.4,8,5,8.7,5.3c0.7,0.3,0.9,1,0.6,1.5c-0.3,0.5-1,0.6-1.2,0.4
				C7.9,7.1,7.8,6.8,7.9,6.6c0.1-0.2,0.6-0.1,0.6-0.1S8.4,5.9,8,6C7.7,6,7.3,6.4,7.3,6.8c0,0.3,0.2,0.7,0.6,1C8.4,8,8.7,8.1,9.4,7.9
				c0.7-0.2,1.2-0.8,2-1c0.8-0.2,1.8-0.2,2.4,0.8c0.6,1-0.1,1.8-0.4,2c-0.3,0.2-0.8,0.1-1-0.2c-0.1-0.4-0.1-0.6,0.1-0.7
				c0.2-0.2,0.5-0.2,0.5-0.2s0-0.6-0.5-0.8c-0.5-0.1-1.1,0.1-1.4,0.5c-0.3,0.4-0.4,1,0,1.8c0.4,0.8,1.3,0.9,2.3,0.9
				c1,0,2.6-0.2,2.6-0.2s-0.9,0.7-1.9,0.8c-1,0.1-2.1,0-2.1,0s0.8,1.5,1.9,2.2c1,0.7,1.7,0.8,2.4,0.9c0.7,0,1.3-0.2,1.3-0.2
				s-0.2,0.7-0.8,0.8c-0.6,0.2-1.1,0.1-1.1,0.1s0.6,0.8,1.1,1.2c0.5,0.4,1.3,0.8,1.3,0.8s0-0.5,0-0.8s0.2-0.6,0.2-0.6
				s0.8,0.1,1.4,0.6c0.6,0.5,0.7,1.5,0.7,1.5s0.7,0,1.3-0.4c0.6-0.3,0.8-1.3,0.7-2.6c0-1.3,0-2.1-0.4-2.6c-0.3-0.4-0.7-0.7-1.5-0.8
				c-0.7-0.1-1.2,0.2-1.4,0.5c-0.2,0.3-0.3,0.6-0.2,0.7c0.1,0.2,0.3,0.1,0.3,0.1s0.1-0.3,0.5-0.2c0.4,0,0.8,0.5,0.6,0.8
				c-0.2,0.3-1,0.4-1.4,0.1c-0.4-0.3-0.6-0.7-0.7-1.3c0-0.6,0.3-0.9,0.8-1.2c0.6-0.3,1.3-0.4,2-0.3c0.6,0.1,1.5,0.7,1.8,1.3
				c0.3,0.6,0.3,1.3,0.3,2c0,0.6-0.1,1-0.1,1s0.9-0.8,1.4-1.6c0.5-0.8,0.7-1.4,0.6-1.6c-0.2-0.2-0.8-0.6-0.9-1.1
				c-0.1-0.6,0-1,0.3-1.3c0.3-0.3,0.9-0.2,0.7-0.9c-0.3-0.7-1.6-1.6-2.9-1.6c-1.3,0-2.1,0.2-2.1,0.2s0.3,0.3,0,0.4
				c-0.3,0.2-0.7,0.1-1.2,0.3c-0.5,0.2-0.8,0.4-1,0.8c-0.2,0.4-0.3,1-0.3,1s1.4-0.8,3-0.7c1.6,0.1,2.2,0.8,2.8,1.5
				c0.5,0.7,0.6,0.9,0.4,1.1c-0.2,0.3-0.8,0.2-1.2-0.2c-0.4-0.4-0.5-1.2-1.7-1.5c-1.2-0.3-2.4-0.3-3.2,0.5c-0.8,0.8-0.6,2.5-0.2,2.8
				c0.4,0.3,0.5,0.2,0.7,0.4c0.2,0.2,0.1,0.4,0.4,0.8c0.4,0.3,0.6,0.5,1.3,0.4c0.7-0.1,1.1-0.6,1.1-1.3c0-0.7-0.3-0.8-0.6-0.9
				c-0.3-0.1-0.7-0.3-0.7-0.3s0.8-0.2,1.4,0.2c0.6,0.4,0.7,1.2,0.3,2c-0.4,0.8-1.2,0.9-2.1,0.7c-0.9-0.2-1.1-0.5-1.2-0.8
				c0-0.3,0.1-0.4-0.1-0.4c-0.2,0-0.7,0.1-1.1-0.4c-0.3-0.5-0.5-1.6-0.4-2.1c0.1-0.5,0.5-1.2,0.5-1.2l-0.7,0c0,0,0.3-0.4,0.6-0.9
				c0.3-0.4,0.3-1.2,0.3-1.2s-0.7,0.2-1.2-0.3c-0.5-0.5-0.5-1.2-0.4-1.6c0.1-0.4,0.6-0.6,1.1-0.5c0.5,0.1,0.4,0.5,0.3,0.8
				c-0.1,0.3-0.7,0-0.7,0s-0.3,0.2,0,0.6c0.3,0.4,0.7,0.5,1,0.3c0.3-0.3,0.7-0.9,1.1-1.3c0.4-0.3,1.2,0.3,1.2,0.3s0.4,0.1,1-0.1
				C21.3,6,22.4,5.7,23.4,6c1,0.2,1.7,1,2.1,1.6c0.4,0.6,0.5,1.3,0.3,1.6c-0.2,0.3-0.9,0.4-0.8,0.9c0,0.5,0.8,0.3,1.1,0.7
				c0.3,0.4,0.2,1.5-0.7,2.8c-0.9,1.3-2,2.5-2.2,2.7c-0.2,0.2,0,0.7,0.4,1.1c0.3,0.4,1,0.7,1,0.7s-0.5-1.1-0.2-1.9
				c0.3-0.8,1.5-1.2,1.5-1.2s-0.3,0.5-0.5,1s0.2,1.2,0.2,1.2S27,15.4,28,15c1-0.3,2.1-0.2,2.8,0.3c0.7,0.5,1.4,1.6,1,3
				c-0.4,1.4-1.1,2-2.2,2c-1.1,0-2-1.1-1.9-2.2c0.1-1,1-1.7,1.9-1.3c0.8,0.4,1,1.5,0.2,1.8c-0.7,0.3-1.3-0.9-1.3-0.9
				s-0.4,0.4-0.1,1.2c0.3,0.8,1,1,1.7,0.8c0.7-0.2,1.4-0.9,1.3-2.1c-0.1-1.1-0.7-1.9-1.8-2.1c-1.1-0.2-2.1,0.6-2.7,1.6
				c-0.6,1-1.2,1.9-1.8,2.4c-0.7,0.5-1.2,0.5-1.2,0.5l0-1.5c0,0-0.6,0-1.2,0c-0.1,0-0.1,0-0.2,0c0.1,0.6,0.4,1.8,0.9,2.5
				c0.7,1.1,1.5,1.8,2.9,1.9c1.3,0.2,2.5-0.1,3.2-0.8s1.1-1.6,1.9-1.9c0.8-0.2,1.4,0.2,1.3,0.7c-0.1,0.6-0.6,0.7-0.9,0.5
				c-0.3-0.2-0.6-0.6-0.6-0.6s0.3,0.9-0.6,1.5c-0.8,0.5-2.8,1.1-2.8,1.1s1.7,0.6,3.5-0.4c1.8-0.9,3.1-2.2,3.8-3.8
				c0.5-1.2,0.6-2.4,0.5-3.5c-0.6,0-1-0.1-1.4-0.2c-0.6-0.1-1.3-0.6-1.3-0.6s1.3,0.4,2.6,0.3c-0.1-0.3-0.1-0.6-0.2-0.9
				c-0.2-0.7-0.5-1.3-0.9-1.8c-0.1,0.1-0.1,0.1-0.2,0.2c-1.1,0.9-2.8,1-3.5,0.3c-0.7-0.7-0.2-1.7,0.3-1.9c0.5-0.2,1.1,0,1.1,0.5
				c0,0.5-0.6,1-0.6,1s1.2,0.4,2-0.4c0.1-0.1,0.3-0.3,0.4-0.4c-0.4-0.4-0.9-0.8-1.4-1.2c-0.9-0.7-1.7-1.1-2.2-1.4
				c-0.2,0.1-0.4,0.3-0.7,0.3c-1.1,0.4-1.6,0.4-2.3,0.4c-0.7,0-1.1-0.2-1.1-0.2s1,0,2-0.6c0.9-0.6,1.1-1.3,0.7-2.1
				c-0.3-0.8-1.3-0.9-1.8-0.5c-0.5,0.4-0.4,1-0.4,1s0.3-0.7,0.9-0.5c0.6,0.2,0.6,0.9,0.2,1.4c-0.4,0.5-1.5,0-1.8-0.6
				c-0.2-0.6-0.1-1.7,0.9-2.1c0.9-0.4,2.1-0.3,2.7,0.4c0.6,0.7,0.2,1.4,0.9,1.5c0.7,0.1,0.8-0.1,1-0.5c0.2-0.4,0-0.8,0.3-0.9
				c0.3-0.1,2.7,1.1,3.1,2.9c0.3,1.3,0.4,2.2-0.1,3c1,1.4,1.2,2.2,1.4,3.2c0.3,0,0.6-0.1,0.8-0.2c1.6-0.7,3.1-1.3,3.4-3.2
				c0.3-1.8-0.7-2.7-2.1-2.4c-1.5,0.3-1.5,1.8-1.5,1.8S36,10,37.2,9c1.1-1,1.9-0.8,2.9-0.4c1,0.4,1.5,1.8,1.5,1.8s0-1,0.7-1.6
				c0.7-0.6,1.1-0.4,1.3-1c0.2-0.6,0.2-1.1-0.4-1.5c-0.6-0.3-1.5-0.5-1.5-0.5s0.8-0.5,1.8-0.1c1,0.4,1,1.7,1,1.7s1.3-0.8,3-0.6
				c1.7,0.2,2.6,0.9,2.6,0.9s-0.2-0.7,0.3-0.8c0.5-0.1,1.4,0.3,1.9,0.9c0.6,0.7,0.4,1.3,0,1.3C51.9,9.1,51.6,9,51.6,9
				s0.1,0.6,1.3,0.7C54,9.7,53.9,9.1,54,8.6c0.1-0.4-0.1-0.8-0.1-0.8s-1,0-1.3-0.6c-0.3-0.6-0.1-1.2,0.5-1.6c0.6-0.4,1.7,0,2,0.7
				c0.2,0.6,0.2,1.8-0.1,2.6c0.4,0.1,1.3,0.3,2,0.9c0.8,0.7,1.1,1.5,1.2,2.7c1-1.2,3.1-3.6,4.3-4C63.3,8.3,64.1,8,64.8,8
				c-0.1-0.4-0.3-1,0-1.6c0.5-0.9,2.1-1.4,3.6-0.1c1.5,1.3,2.7,3.3,3.9,3.7c1.2,0.4,2-0.3,2.2-0.8c0.3-0.6,0.2-1.7,0-2.2
				c-0.2-0.5-0.7-0.7-0.7-0.7s0.2,1.4-0.3,1.9c-0.5,0.6-1.9,0.5-2.2-0.7C71.1,6.1,72,5,73.4,5c1.4,0,2.2,0.8,2.5,2.2
				C75.9,7.4,76,7.5,76,7.7L76,7.7L76,7.7z M58.2,14.1c0.9-0.9,2.6-2.5,4.1-3.3c2.1-1,3.8-1.7,5.4-0.1c1.6,1.6,1.5,3.9,1.1,5.3
				c-0.4,1.4-2.2,1.5-3.5,1.1c-1.3-0.4-1.3-2-0.8-2.9c0.5-0.9,1.6-0.9,1.8-0.1s-0.1,1-0.5,1.1c-0.1,0-0.1,0-0.2,0
				c0.1,0.3,0.2,0.6,0.5,0.6c0.6,0,1.4-0.6,1.4-1.5c0-0.9-0.6-1.7-1.7-1.8c-1.1-0.1-2.6,1-2.6,2.5c0,1.5,0.1,2.8,1.5,3.1
				c1.4,0.3,2.8,0.5,4.3-0.6c1.5-1.1,1.9-2.1,1.6-4.1c-0.3-2-0.9-3.3-2-4.1c-1-0.8-2.5-1.1-4-0.9c-1.5,0.2-3.2,1.5-4.5,2.9
				c-0.6,0.7-1.4,1.4-1.9,1.9c0,0.2,0,0.4,0,0.6C58.2,14,58.2,14,58.2,14.1L58.2,14.1z M11.2,34.6c-0.5,0.1-1.1,0.1-1.8-0.3
				c-1.2-0.7-1.4-1.4-1.3-2.2c0.1-0.4,0.4-0.7,0.7-1.2C9.2,31.8,9.9,33.5,11.2,34.6z M34.3,11.5c0.1-0.5,0.1-1.1-0.3-1.8
				c-0.7-1.2-1.4-1.4-2.2-1.3c-0.4,0.1-0.7,0.4-1.2,0.7C31.5,9.6,33.1,10.3,34.3,11.5z"/>
			<path class="st0" d="M7.6,57.6c0,0-0.9,0.1-1.1,1.1c-0.2,1,0.5,2.1,1.3,1.9c0.8-0.2,0.8-0.9,0.7-1.2c-0.1-0.4-0.4-0.5-0.7-0.5
				c-0.3,0-0.6,0.3-0.6,0.3s-0.3-0.7,0.6-0.8c0.9-0.1,1.7,0.6,1.5,2c-0.2,1.4-1.4,1.3-2,1.4c-0.6,0.1-0.9,0-0.9,0s0.1-0.9-0.7-0.9
				c-0.8,0-0.8,0.6-0.7,1c0.1,0.4,0.8,0.7,0.8,0.7s-0.7,0.6-0.7,1.9c0.1,1.3,0.6,2.4,1.4,3.3c0.8,0.9,2.1,1.8,2.1,1.8
				s-2-0.6-2.5-0.9c-0.5-0.4-0.5-1.2-0.5-1.2S5.5,68,5.5,68.3c0,0.4,0.2,0.6,0.2,0.6s-0.3-0.2-0.6,0.2c-0.2,0.4-0.2,0.6-0.2,0.6
				s0.2,0.2,0.6,0.2c0.4,0,0.5-0.4,0.5-0.4s0,0.4,0.2,0.7c0.2,0.3,0.7,0.3,0.7,0.3s-0.3-0.4-0.4-0.7c-0.1-0.2-0.1-0.4-0.1-0.4
				s0.7,0.4,1.4,0.6c0.7,0.3,1.4,0.5,2,1.3c0.5,0.7,0.8,2,0.8,2s0-1.5-0.3-2.3s-0.6-0.9-0.3-1.3c0.2-0.4,0.9-0.6,0.9-0.6
				s-0.3-0.4-0.8-0.2c-0.5,0.1-0.7,0.7-0.7,0.7S8.2,69,7.3,68c-1-1-1.6-2.3-1.5-3.4c0.1-1.1,1.2-1.8,2.2-1.7c1.1,0,2.2,0.8,2,1.9
				C9.9,65.9,9.5,66,8.9,66c-0.6,0-1.4-0.6-1.5-1.2c-0.1-0.6,0.4-1.1,0.8-1c0.5,0.1,0.4,0.7,0.2,0.8C8.3,64.9,8,65,8,65
				s0.4,0.2,0.7-0.1c0.3-0.3,0.4-1.1-0.3-1.4C7.7,63.2,7,63.6,6.8,64c-0.1,0.5-0.1,1.3,0.5,2c0.7,0.6,1.4,0.7,1.4,0.7
				s0.2,0.5-0.1,0.6c-0.3,0.1-0.9-0.1-0.9-0.1s0,0.5,0.4,0.6c0.4,0.1,0.7,0,0.7,0S8.8,68,9,68.4c0.1,0.3,0.4,0.5,0.4,0.5
				s0.4-0.4,0.4-0.7c0.1-0.3,0-0.6,0-0.6s0.2,0.2,0.5,0.1c0.3-0.1,0.5-0.5,0.5-0.5s-0.5,0-0.8-0.2c-0.3-0.2-0.3-0.6-0.3-0.6
				s1.1-0.4,1-1.8c-0.1-1.4-1.3-2.2-1.3-2.2s1.3-0.7,1.2-2.4c-0.2-1.6-0.6-1.8-1.1-2.2c-0.6-0.3-1-0.3-1-0.3S8.2,57,8.5,56.9
				c0.3-0.2,0.8-0.2,0.8-0.2s-0.6-0.4-1.2-0.2C7.5,56.8,7.6,57.7,7.6,57.6L7.6,57.6L7.6,57.6z M9,58.4c0,0,0.6,0.7,0.7,1.4
				c0.1,0.7-0.2,1.5-0.8,1.9c-0.6,0.4-2,0.8-2,0.8s2.2,0,2.9-1.1C10.5,60.4,10.4,59,9,58.4z"/>
			<path class="st0" d="M217.9,129.7c0,0-1.2-0.1-1.5,0.4c-0.3,0.5,0.1,1.6,0.1,1.6s-0.3-0.1-0.8-0.1c0-0.6,0-1.6-0.1-2.2
				c-0.2-0.9-0.7-1.5-1.6-2.2c-0.9-0.7-2.7-1.2-3-1.1c-0.3,0.1-0.2-0.8,0.3-1.4c0.6-0.6,1.3-0.1,1.4-0.1c0,0-0.5-0.8,0.1-1.4
				c0.6-0.6,1.5-0.6,1.4-0.3c-0.1,0.3,0.4,2.1,1.1,3c0.7,0.9,1.3,1.4,2.2,1.6c0.6,0.1,1.6,0.1,2.2,0.1c0,0.5,0.1,0.8,0.1,0.8
				s-1.1-0.4-1.6-0.1C217.8,128.5,217.9,129.7,217.9,129.7L217.9,129.7z M162.1,142.6c-0.8-0.1-2.3-0.2-3-0.6
				c-1-0.6-1.9-1.3-1.9-1.3s-1.2-0.1-1.3,0.9c-0.1,1,0.1,1.3,0.3,1.3c0.2,0,0.5,0,0.5,0s-0.2-0.9,0.7-1c0.9-0.1,1.1,0.8,0.4,1.4
				c-0.7,0.6-1.9,1.2-2.7,0c-0.8-1.2-0.2-2.7-0.2-3c0-0.4,0.5,0.3,1.1-0.1c0.6-0.4,0.5-1.1,0.2-1.5c-0.3-0.4-1.3,0.2-1.3,0.2
				s0.6-1-0.5-2.1c-1.1-1.1-1.7-0.5-2.5-0.2c-0.8,0.4-1.1,1.1-0.8,2.1c0.2,0.9,1.4,0.6,1.4,0.6s-0.5-0.7-0.2-1.4
				c0.3-0.7,1.2-0.6,1.7,0.2c0.6,0.7,0,1.7-0.6,2c-0.6,0.3-1.6,0.4-2.3-0.1c-0.7-0.5-1.3-1.3-1.1-2.8c0.2-1.5,1.1-2,2.3-2.3
				c1.2-0.2,2.2,0.3,3,1c0.7,0.7,1.3,1.4,1.3,1.4s-0.2-1.6,1-2.9c1.2-1.3,4.2-1,4.2-1s-0.1-0.8,0.5-0.9c0.6-0.1,0.9,0.9,1.3,1.3
				c0.4,0.4,0.9,0.7,1.5,0.6c0.6-0.2,0.8-0.5,0.8-0.5s-1.6-0.3-1.4-1.2c0.2-0.9,1-1.6,1.7-1.2c0.8,0.4,0.9,2.4,0.1,3.5
				c-0.8,1.1-1.4,0.9-2,0.9c-0.6,0-1-0.2-1-0.2s0.7,2-0.6,2.8c-1.3,0.8-2.4,0.7-3.1-0.2c-0.6-0.9,0.4-2,0.4-2s-0.5,1.5,0.4,1.9
				c0.9,0.4,2.2,0,2.1-1.5c-0.1-1.5-1.4-2.4-2.9-2c-1.5,0.3-2.6,1.3-2.3,3.2c0.2,1.9,1.4,3.1,2.7,3.7c0.7,0.4,1.6,0.6,2.2,0.6
				c0-1,0.3-1.9,1.3-2.5c1.3-0.8,2.1-0.5,3.3,0.3c1.2,0.8,1.7,2,2.4,2.1c0.5,0.1,1.1-0.1,1.4-0.3c-1.2-0.4-2.1-0.9-2.8-2.5
				c-0.9-2-1.4-3.9-0.5-5.6c0.9-1.7,2.7-2.7,3.9-2.6c1.1,0,1.9,0.1,1.9,0.1s-1-1.3,0.2-1.4c1.2-0.1,2,1.2,3.2,1.7
				c1.2,0.5,2.6,0.5,3.1-0.9c0.5-1.4-0.2-2.2-0.8-2.4c-0.7-0.2-1.1,0-1.2,0.3c0,0.4,0.3,0.4,0.3,0.4s0.7-0.5,1-0.2
				c0.2,0.4,0.3,1.6-0.7,1.7c-0.9,0.1-1.4-0.4-1.5-1.6c-0.1-1.2,0.9-1.3,1.6-1.4c0.7,0,2.1,0.5,2,2.2c-0.1,1.8-0.8,2.3-2.1,2.7
				c-1.3,0.4-2.7,0.1-2.7,0.1s1,1.9,0.3,3.4c-0.7,1.4-2,2.6-3.4,2.4c-1.4-0.2-2-1.4-1.9-2.6c0.1-1.2,0.8-1.7,1.5-1.7
				c0.6,0,0.8,0.6,0.9,0.9c0.3,0,0.6,0,0.6,0s0-1.1-1-1.3c-1-0.2-1.9,0.3-2.3,1.4s-0.4,1.9,0.1,2.8c0.5,0.9,1.4,1.7,3,1.5
				s3-0.6,4.7-1.9c0.9-0.7,1.7-1.3,2.2-1.7c0.2-1.4,0.9-1.8,1.3-2.1c0.5-0.4,0.9-0.1,0.9-0.1s0.4-0.5,0.8-1c0.5-0.5,1.4-1,1.4-1
				s-1.3,0.1-2.5,0.3c-1.2,0.2-2.5,0.5-2.5,0.5s2.4-1.2,4.8-1.4c1.8-0.2,4.8-0.2,6.3-0.2c-0.1-0.3,0-0.6-0.2-0.8
				c-0.2-0.2-3.4,0.2-4.6-0.6c-1.1-0.8-0.4-1.9,0.6-2c1-0.1,1,0.5,1.1,0.8c0,0.3-0.6,0.2-0.7,0.3c-0.2,0.1,0.1,0.6,0.9,0.6
				c0.8,0,1.6-0.1,3.2-0.5c1.5-0.4,2.9,0.6,3.2,1.6c0.3,1-1,1.7-1,1.7s0.5,0.5,0.9,1.1s0.6,1.8,0.6,1.8s1.9-1.2,2.2,0
				c0.3,1.2-1.9,1.2-1.9,1.2s0.1,0.6,0,1.6c-0.1,1-0.5,2.1-1.5,3.3c-1,1.1-1.9,1.4-3,1.3c-1.1-0.1-1.8-1.4-1.5-2.4
				c0.4-1,1.4-1.7,2-1.6c0.6,0.1,0.8,1.1,0.3,1.8c-0.5,0.7-1.4,0.4-1.4,0.4s0,0.9,1.2,1c1.1,0.1,1.9-0.8,2.5-2.2
				c0.6-1.4,0.6-2.9,0-4.2c-0.6-1.3-1.5-1.7-2.1-1.8c-0.6-0.1-1.8-0.2-2.4-0.1c-0.6,0.1-0.8,0.3-1,0.6s-0.1,1.1,0.3,1.3
				c0.4,0.2,0.9,0.1,0.9,0.1s-0.2-0.4-0.2-0.8c0-0.4,0-0.6,0.7-0.6c0.7,0.1,1.2,0.7,0.9,1.6c-0.3,0.8-1.1,0.8-1.7,0.4
				c-0.5-0.4-1.2-0.1-1.9,0.2c-0.7,0.4-1.6,0.5-2.4-0.1s-0.5-2,0.3-2.6c0.8-0.7,1.4,0.1,1.2,0.9c-0.2,0.8-1.2,0.7-1.2,0.7
				s0.5,0.6,1.3,0.6c0.7,0,1.1-0.8,1.1-0.8s-0.2-0.3-0.4-0.6c-0.2-0.3-0.2-1.3,0.4-1.5c0.6-0.3,0.9,0.5,0.9,0.5s0.6-0.3,1.5-0.4
				c0.9,0,2.1,0,2.1,0s-0.8-0.6-1.1-1.1c0,0,0-0.1,0-0.1c-1.2,0-3.4,0-4.8,0.3c-2.1,0.5-3.4,2.6-3.4,2.6s0.9,0.4,0.5,1.7
				c-0.4,1.3-1.6,1.6-1.3,3.4c0.2,1.4,0.9,2,1.6,2c0.1-0.1,0.2-0.3,0.3-0.3c0.7-0.6,1.8-0.5,2.2-0.3h0c0.1-0.3,0.3-1,0.3-1.6
				c0.1-0.8,0-1.4-1-1.9c-1-0.4-1.9,0-2,0.8c-0.1,0.8,0.3,1.6,0.9,1.6c0.6,0,0.5-0.5,0.5-0.5s-0.8-0.6-0.6-1.1
				c0.2-0.5,0.7-0.5,1.2-0.1c0.5,0.4,0.2,1.7-0.4,2c-0.7,0.4-1.4,0.2-1.9-1c-0.5-1.2,0.2-2.5,1.6-2.5s2.2,0.9,2.2,1.9
				c0,0.8-0.4,1.8-0.6,2.2c0.3,0.1,0.6,0.3,0.6,0.3s-0.1-0.7,0.1-1.5c0.2-0.8,1.3-1.2,1.3-1.2s-0.8,0.8-0.7,1.7
				c0.1,0.9,0,1.6,1.3,2.4c1.3,0.7,2.7,0.7,3.8,0.1c1.1-0.6,3.2-3.7,4.6-4.9s3-2.5,4.4-2.7c0.2,0,0.3,0,0.4-0.1l0-0.3
				c-0.3-1.4-0.2-2.7-0.2-2.7s-0.9,2.1-2.7,1.6c-1.8-0.4-2.2-1.5-1.9-2.8c0.3-1.4,2-1.6,2.8-1c0.8,0.5,0.6,1.7,0.1,2.1
				c-0.5,0.4-1.4,0.3-1.6,0c-0.2-0.3,0-1,0.4-0.9c0.4,0.1,0.7,0.4,0.7,0.4s0.6-0.6,0-1c-0.6-0.5-1.3-0.4-1.7,0.1
				c-0.4,0.6-0.6,1.8,0.4,2.3c1,0.5,1.8,0.2,2.3-0.4c0.5-0.6,0.6-0.7,0.6-1.8c0-1.1,0.2-2.3,1.2-2.4c1-0.1,1.7,0.9,1.7,0.9
				s1.5-1.7,2.6-2.2c1-0.5,3.3-0.5,3.3-0.5s-0.3-1,0.2-1.6c0.5-0.5,1-0.7,1-0.7s-0.7-0.8-1.2-1.1c-0.6-0.4-1.1-0.4-1.1-0.4
				s0.1,1.3,0.1,1.7c-0.1,0.5-0.5,0.7-1.4,0.3c-0.9-0.4-1.6-1-2.5-0.5c-0.9,0.5-0.6,2.2-0.6,2.2s-0.9-1.7-0.2-2.6
				c0.7-0.9,1.7-1,2.3-1c0.6,0,1.1,0,1.1-0.4c0-0.4-0.8-1.1-0.9-2c-0.1-0.9,0-1.4,0-1.4s0.5-0.2,1.4,0c0.9,0.1,1.5,1,2,0.9
				c0.4,0,0.4-0.5,0.4-1.1c0-0.6,0.2-1.7,1-2.3c0.9-0.7,2.6,0.2,2.6,0.2s-1.8-0.2-2.2,0.6c-0.5,0.9,0.1,1.6,0.5,2.5
				c0.4,0.9,0.2,1.3-0.3,1.4c-0.5,0.1-1.7-0.1-1.7-0.1s0,0.5,0.4,1.1c0.4,0.6,1.1,1.2,1.1,1.2s0.1-0.5,0.7-1
				c0.5-0.5,1.6-0.2,1.6-0.2s0-2.2,0.5-3.3c0.5-1,2.2-2.6,2.2-2.6s-1-0.7-0.9-1.7c0.1-1,1.3-1.1,2.4-1.2c1.1,0,1.2-0.1,1.8-0.6
				c0.6-0.5,0.9-1.3,0.4-2.3c-0.5-1-1.7-0.8-2.3-0.4c-0.6,0.4-0.6,1.1-0.1,1.7c0.5,0.6,1,0,1,0s-0.3-0.3-0.4-0.7
				c-0.1-0.4,0.6-0.6,0.9-0.4c0.3,0.2,0.4,1.1,0,1.6c-0.4,0.5-1.5,0.7-2.1-0.1c-0.5-0.8-0.3-2.5,1-2.8c1.4-0.3,2.4,0.1,2.8,1.9
				s-1.6,2.7-1.6,2.7s1.2-0.1,2.7,0.2l0.3,0c0-0.1,0-0.3,0.1-0.4c0.2-1.4,1.4-3,2.7-4.4c1.2-1.4,4.3-3.4,4.9-4.6
				c0.6-1.1,0.7-2.5-0.1-3.8c-0.7-1.3-1.4-1.2-2.4-1.3c-0.9-0.1-1.7,0.7-1.7,0.7s0.4-1.1,1.2-1.3c0.8-0.2,1.5-0.1,1.5-0.1
				s-0.2-0.3-0.4-0.7c-0.1-0.4-0.3-1.4,0.3-2.2c0.6-0.7,2.6-0.9,3.4-0.6c0.8,0.3,1.1,1.4,0.7,2c-0.4,0.6-1,0.8-1.6,0.5
				c-0.6-0.3-0.6-1.3-0.6-1.3s-0.4-0.2-0.8-0.1c-0.4,0.1-1.1,0-1.1,1.2c0.1,1.1,0.7,1.3,0.7,1.3s-0.1-0.4-0.1-0.8
				c0.1-0.4,0.7-0.6,1.3,0c0.7,0.6,1,1.4,0.9,1.9s-0.8,0.3-0.8,0.3s0.7,0.9,0.9,2.6c0.2,1.7-0.6,3-0.6,3s1.3,0,1.7,1
				c0.4,1-0.1,1.8-0.1,1.8s-0.1-0.9-0.5-1.5c-0.3-0.6-0.9-0.6-1.5-0.4c-0.6,0.2-0.4,0.6-1,1.3c-0.6,0.7-1.6,0.7-1.6,0.7
				s1.5,0.5,1.8,1.5c0.4,1,0.6,1.8-0.4,2.9c-1,1.1-2.4,0.3-2.4,0.3s1.5,0,1.8-1.5c0.3-1.5-0.6-2.4-2.4-2.1c-1.8,0.3-2.5,1.8-3.2,3.4
				c-0.1,0.3-0.2,0.5-0.2,0.8c1,0.2,1.8,0.5,3.2,1.4c0.8-0.4,1.7-0.4,3-0.1c1.7,0.4,3,2.8,2.9,3.1c-0.1,0.3-0.5,0.1-0.9,0.3
				c-0.4,0.2-0.5,0.3-0.5,1c0.1,0.7,0.7,0.3,1.5,0.9c0.7,0.6,0.8,1.7,0.4,2.7c-0.4,0.9-1.5,1.1-2.1,0.9c-0.6-0.2-1-1.3-0.6-1.8
				c0.5-0.4,1.2-0.4,1.4,0.2c0.2,0.6-0.5,0.9-0.5,0.9s0.6,0.1,1-0.4c0.4-0.5,0.3-1.5-0.5-1.8c-0.8-0.3-1.5-0.2-2.1,0.7
				c-0.6,0.9-0.6,2-0.6,2s-0.2-0.4-0.2-1.1c0-0.7,0-1.3,0.4-2.3c0.1-0.3,0.2-0.5,0.3-0.7c-0.3-0.5-0.7-1.3-1.4-2.2
				c-0.4-0.6-0.8-1-1.2-1.4c-0.1,0.1-0.3,0.2-0.4,0.4c-0.8,0.8-0.4,2-0.4,2s0.5-0.6,1-0.6c0.5,0,0.7,0.6,0.5,1.1
				c-0.2,0.5-1.2,1-1.9,0.3c-0.7-0.7-0.7-2.5,0.3-3.5c0.1-0.1,0.1-0.2,0.2-0.2c-0.6-0.4-1.1-0.7-1.8-0.9c-0.3-0.1-0.6-0.2-0.9-0.2
				c0,1.3,0.3,2.6,0.3,2.6s-0.5-0.6-0.6-1.3c-0.1-0.4-0.2-0.8-0.2-1.4c-1.1-0.1-2.3,0-3.5,0.5c-1.7,0.7-2.9,1.9-3.8,3.8
				c-0.9,1.8-0.4,3.5-0.4,3.5s0.6-1.9,1.1-2.8c0.5-0.8,1.5-0.6,1.5-0.6s-0.4-0.3-0.6-0.6c-0.2-0.3-0.1-0.8,0.5-0.9
				c0.6-0.1,1,0.5,0.7,1.3c-0.2,0.8-1.1,1.1-1.9,1.9c-0.8,0.8-1,1.9-0.8,3.2c0.2,1.3,0.8,2.2,1.9,2.9c0.7,0.5,1.9,0.8,2.5,0.9
				c0-0.1,0-0.1,0-0.2c0-0.6,0-1.2,0-1.2l-1.5,0c0,0,0-0.5,0.5-1.2s1.4-1.3,2.4-1.8c1-0.6,1.7-1.5,1.6-2.7c-0.2-1.1-1-1.8-2.1-1.8
				c-1.1-0.1-1.9,0.6-2.1,1.3c-0.2,0.7,0,1.4,0.8,1.7c0.8,0.3,1.2-0.1,1.2-0.1s-1.2-0.6-0.9-1.3c0.3-0.7,1.4-0.6,1.8,0.2
				c0.4,0.8-0.2,1.7-1.3,1.9c-1,0.1-2.2-0.8-2.2-1.9c0-1.1,0.6-1.7,2-2.2c1.4-0.4,2.5,0.3,3,1c0.5,0.7,0.7,1.8,0.3,2.8
				c-0.3,1-2.1,2.4-2.1,2.4s0.6,0.3,1.2,0.2c0.6-0.1,1-0.5,1-0.5s-0.4,1.2-1.2,1.5c-0.8,0.3-1.9-0.2-1.9-0.2s0.4,0.7,0.7,1
				c0.4,0.3,0.9,0.6,1.1,0.4c0.2-0.2,1.4-1.3,2.7-2.2c1.3-0.9,2.4-1,2.8-0.7c0.4,0.3,0.1,1,0.7,1.1c0.5,0,0.5-0.6,0.9-0.8
				c0.3-0.2,1-0.1,1.6,0.3c0.6,0.4,1.4,1.2,1.6,2.1c0.2,1,0,2.1-0.2,2.7c-0.2,0.6-0.1,1-0.1,1s0.6,0.8,0.3,1.2
				c-0.3,0.4-1,0.8-1.3,1.1c-0.3,0.3-0.2,0.7,0.3,1s0.6,0,0.6,0s-0.3-0.6,0-0.7c0.3-0.1,0.7-0.2,0.8,0.3c0.1,0.5-0.1,0.9-0.5,1.1
				c-0.4,0.1-1.1,0.1-1.6-0.4c-0.5-0.5-0.3-1.2-0.3-1.2s-0.7,0-1.2,0.3c-0.4,0.3-0.9,0.6-0.9,0.6l0-0.7c0,0-0.7,0.4-1.2,0.5
				c-0.5,0.1-1.7,0-2.1-0.4c-0.5-0.3-0.4-0.8-0.4-1.1c0-0.2-0.1,0-0.4-0.1c-0.3,0-0.6-0.3-0.8-1.2c-0.2-0.9-0.1-1.7,0.7-2.1
				c0.8-0.4,1.5-0.3,2,0.3c0.4,0.6,0.2,1.4,0.2,1.4s-0.1-0.4-0.3-0.7c-0.1-0.3-0.2-0.5-0.9-0.6c-0.7,0-1.1,0.3-1.3,1.1
				c-0.1,0.7,0,1,0.4,1.3c0.3,0.4,0.6,0.2,0.8,0.4c0.2,0.2,0.1,0.3,0.4,0.7c0.3,0.4,2,0.6,2.8-0.2c0.8-0.8,0.8-2,0.5-3.2
				c-0.3-1.2-1-1.3-1.5-1.7c-0.4-0.4-0.5-1-0.2-1.2c0.3-0.2,0.5-0.1,1.1,0.4c0.7,0.5,1.3,1.2,1.5,2.8c0.1,1.6-0.7,3-0.7,3
				s0.5-0.1,1-0.3c0.4-0.2,0.6-0.5,0.8-1c0.2-0.5,0.2-1,0.3-1.2c0.2-0.3,0.4,0,0.4,0s0.2-0.7,0.2-2.1c0-1.3-0.9-2.6-1.6-2.9
				c-0.7-0.3-0.7,0.3-0.9,0.7c-0.3,0.3-0.8,0.5-1.3,0.3c-0.6-0.1-1-0.8-1.1-0.9c-0.2-0.2-0.8,0-1.6,0.6c-0.8,0.5-1.6,1.4-1.6,1.4
				s0.3-0.1,1-0.1c0.6,0,1.4,0,2,0.3c0.6,0.3,1.2,1.2,1.3,1.8c0.1,0.6,0,1.4-0.3,2c-0.3,0.6-0.6,0.9-1.2,0.8c-0.6,0-1-0.2-1.3-0.7
				c-0.3-0.4-0.2-1.2,0.1-1.4c0.3-0.2,0.8,0.2,0.8,0.6c0,0.4-0.2,0.5-0.2,0.5s-0.1,0.2,0.1,0.3c0.2,0.1,0.4,0,0.7-0.2
				c0.3-0.2,0.6-0.7,0.5-1.4c-0.1-0.7-0.3-1.1-0.8-1.5c-0.4-0.3-1.3-0.4-2.6-0.4c-1.3,0-2.2,0.2-2.6,0.7c-0.3,0.6-0.4,1.3-0.4,1.3
				s1,0.1,1.5,0.7c0.5,0.6,0.6,1.4,0.6,1.4s-0.2,0.1-0.6,0.2c-0.3,0-0.8,0-0.8,0s0.4,0.8,0.8,1.3c0.4,0.5,1.2,1.1,1.2,1.1
				s0-0.5,0.1-1.1c0.2-0.6,0.8-0.8,0.8-0.8s-0.3,0.6-0.2,1.3c0,0.7,0.2,1.3,0.9,2.4s2.2,1.9,2.2,1.9s-0.1-1.2,0-2.1
				c0.1-1,0.8-1.9,0.8-1.9s-0.2,1.5-0.2,2.6c0,1,0.1,1.9,0.9,2.3c0.8,0.4,1.5,0.2,1.8,0c0.4-0.3,0.6-0.9,0.5-1.4
				c-0.1-0.5-0.8-0.5-0.8-0.5s-0.1,0.3-0.2,0.5c-0.2,0.2-0.4,0.3-0.7,0.1c-0.4-0.1-0.4-0.7-0.2-1c0.2-0.3,1-1,2-0.4
				c1,0.6,1,1.6,0.8,2.4c-0.2,0.8-0.8,1.3-1,2c-0.2,0.7-0.1,1,0.2,1.4c0.3,0.4,0.7,0.6,1,0.6c0.3,0,0.7-0.3,0.8-0.7
				c0-0.4-0.5-0.5-0.5-0.5s0.1,0.5-0.1,0.6c-0.2,0.1-0.5,0.1-0.6-0.2s0-0.9,0.4-1.2c0.5-0.3,1.2-0.1,1.5,0.6
				c0.3,0.7-0.1,1.5-0.8,1.8c-0.7,0.3-1.3-0.2-1.3-0.1c0,0,0.4,0.6,0.1,1.3c-0.3,0.7-1.1,1.1-1.8,0.8c-0.7-0.3-0.9-1-0.6-1.5
				c0.3-0.5,1-0.6,1.2-0.4c0.3,0.1,0.3,0.4,0.2,0.6c-0.1,0.2-0.6,0.1-0.6,0.1s0.2,0.5,0.5,0.5c0.4,0,0.7-0.5,0.7-0.8
				c0-0.3-0.2-0.7-0.6-1c-0.4-0.3-0.7-0.4-1.4-0.2c-0.7,0.2-1.2,0.8-2,1c-0.8,0.2-1.8,0.2-2.4-0.8c-0.6-1,0.1-1.8,0.4-2
				c0.3-0.2,0.8-0.1,1,0.2c0.1,0.4,0.1,0.6-0.1,0.7c-0.2,0.2-0.5,0.2-0.5,0.2s0,0.6,0.5,0.8c0.5,0.1,1.1-0.1,1.4-0.5
				c0.3-0.4,0.4-1,0-1.8c-0.4-0.8-1.3-0.9-2.3-0.9c-1,0-2.6,0.2-2.6,0.2s0.9-0.7,1.9-0.8c1-0.1,2.1,0,2.1,0s-0.8-1.5-1.9-2.2
				c-1-0.7-1.7-0.8-2.4-0.9c-0.7,0-1.3,0.2-1.3,0.2s0.2-0.7,0.8-0.8c0.6-0.2,1.1-0.1,1.1-0.1s-0.6-0.8-1.1-1.2
				c-0.5-0.4-1.3-0.8-1.3-0.8s0,0.5,0,0.8c0,0.3-0.2,0.6-0.2,0.6s-0.8-0.1-1.4-0.6c-0.6-0.5-0.7-1.5-0.7-1.5s-0.7,0-1.3,0.4
				c-0.6,0.3-0.8,1.3-0.7,2.6c0,1.3,0,2.1,0.4,2.6c0.3,0.4,0.7,0.7,1.5,0.8c0.7,0.1,1.2-0.2,1.4-0.5c0.2-0.3,0.3-0.6,0.2-0.7
				c-0.1-0.2-0.3-0.1-0.3-0.1s-0.1,0.3-0.5,0.2c-0.4,0-0.8-0.5-0.6-0.8c0.2-0.3,1-0.4,1.4-0.1c0.4,0.3,0.6,0.7,0.7,1.3
				c0,0.6-0.3,0.9-0.8,1.2c-0.6,0.3-1.3,0.4-2,0.3c-0.6-0.1-1.5-0.7-1.8-1.3c-0.3-0.6-0.3-1.3-0.3-2c0-0.6,0.1-1,0.1-1
				s-0.9,0.8-1.4,1.6c-0.5,0.8-0.7,1.4-0.6,1.6c0.2,0.2,0.8,0.6,0.9,1.1s0,1-0.3,1.3c-0.3,0.3-0.9,0.2-0.7,0.9
				c0.3,0.7,1.6,1.6,2.9,1.6c1.3,0,2.1-0.2,2.1-0.2s-0.3-0.3,0-0.4c0.3-0.2,0.7-0.1,1.2-0.3c0.5-0.2,0.8-0.4,1-0.8s0.3-1,0.3-1
				s-1.4,0.8-3,0.7c-1.6-0.1-2.2-0.8-2.8-1.5c-0.5-0.7-0.6-0.9-0.4-1.1c0.2-0.3,0.8-0.2,1.2,0.2c0.4,0.4,0.5,1.2,1.7,1.5
				c1.2,0.3,2.4,0.3,3.2-0.5c0.8-0.8,0.6-2.5,0.2-2.8s-0.5-0.2-0.7-0.4c-0.2-0.2-0.1-0.4-0.4-0.8c-0.4-0.3-0.6-0.5-1.3-0.4
				c-0.7,0.1-1.1,0.6-1.1,1.3c0,0.7,0.3,0.8,0.6,0.9c0.3,0.1,0.7,0.3,0.7,0.3s-0.8,0.2-1.4-0.2c-0.6-0.4-0.7-1.2-0.3-2
				c0.4-0.8,1.2-0.9,2.1-0.7c0.9,0.2,1.1,0.5,1.2,0.8c0,0.3-0.1,0.4,0.1,0.4c0.2,0,0.7-0.1,1.1,0.4c0.3,0.5,0.5,1.6,0.4,2.1
				c-0.1,0.5-0.5,1.2-0.5,1.2l0.7,0c0,0-0.3,0.4-0.6,0.9c-0.3,0.4-0.3,1.2-0.3,1.2s0.7-0.2,1.2,0.3c0.5,0.5,0.5,1.2,0.4,1.6
				c-0.1,0.4-0.6,0.6-1.1,0.5c-0.5-0.1-0.4-0.5-0.3-0.8s0.7,0,0.7,0s0.3-0.2,0-0.6c-0.3-0.4-0.7-0.5-1-0.3c-0.3,0.3-0.7,0.9-1.1,1.3
				c-0.4,0.3-1.2-0.3-1.2-0.3s-0.4-0.1-1,0.1c-0.6,0.2-1.7,0.5-2.7,0.2c-1-0.2-1.7-1-2.1-1.6c-0.4-0.6-0.5-1.3-0.3-1.6
				c0.2-0.3,0.9-0.4,0.8-0.9c0-0.5-0.8-0.3-1.1-0.7c-0.3-0.4-0.2-1.5,0.7-2.8c0.9-1.3,2-2.5,2.2-2.7c0.2-0.2,0-0.7-0.4-1.1
				c-0.3-0.4-1-0.7-1-0.7s0.5,1.1,0.2,1.9c-0.3,0.8-1.5,1.2-1.5,1.2s0.3-0.5,0.5-1c0.1-0.6-0.2-1.2-0.2-1.2s-1.4,1.7-2.4,2.1
				c-1,0.3-2.1,0.2-2.8-0.3s-1.4-1.6-1-3c0.4-1.4,1.1-2,2.2-2c1.1,0,2,1.1,1.9,2.2c-0.1,1-1,1.7-1.9,1.3c-0.8-0.4-1-1.5-0.2-1.8
				c0.7-0.3,1.3,0.9,1.3,0.9s0.4-0.4,0.1-1.2c-0.3-0.8-1-1-1.7-0.8c-0.7,0.2-1.4,0.9-1.3,2.1c0.1,1.1,0.7,1.9,1.8,2.1
				c1.1,0.2,2.1-0.6,2.7-1.6c0.6-1,1.2-1.9,1.8-2.4c0.7-0.5,1.2-0.5,1.2-0.5l0,1.5c0,0,0.6,0,1.2,0c0.1,0,0.1,0,0.2,0
				c-0.1-0.6-0.4-1.8-0.9-2.5c-0.7-1.1-1.5-1.8-2.9-1.9c-1.3-0.2-2.5,0.1-3.2,0.8c-0.8,0.8-1.1,1.6-1.9,1.9
				c-0.8,0.2-1.4-0.2-1.3-0.7c0.1-0.6,0.6-0.7,0.9-0.5c0.3,0.2,0.6,0.6,0.6,0.6s-0.3-0.9,0.6-1.5c0.8-0.5,2.8-1.1,2.8-1.1
				s-1.7-0.6-3.5,0.4c-1.8,0.9-3.1,2.2-3.8,3.8c-0.5,1.2-0.6,2.4-0.5,3.5c0.6,0,1,0.1,1.4,0.2c0.6,0.1,1.3,0.6,1.3,0.6
				s-1.3-0.4-2.6-0.3c0.1,0.3,0.1,0.6,0.2,0.9c0.2,0.7,0.5,1.3,0.9,1.8c0.1-0.1,0.1-0.1,0.2-0.2c1.1-0.9,2.8-1,3.5-0.3
				c0.7,0.7,0.2,1.7-0.3,1.9c-0.5,0.2-1.1,0-1.1-0.5c0-0.5,0.6-1,0.6-1s-1.2-0.4-2,0.4c-0.1,0.1-0.3,0.3-0.4,0.4
				c0.4,0.4,0.9,0.8,1.4,1.2c0.9,0.7,1.7,1.1,2.2,1.4c0.2-0.1,0.4-0.3,0.7-0.3c1.1-0.4,1.6-0.4,2.3-0.4c0.7,0,1.1,0.2,1.1,0.2
				s-1,0-2,0.6c-0.9,0.6-1.1,1.3-0.7,2.1c0.3,0.8,1.3,0.9,1.8,0.5c0.5-0.4,0.4-1,0.4-1s-0.3,0.7-0.9,0.5c-0.6-0.2-0.6-0.9-0.2-1.4
				c0.4-0.5,1.5,0,1.8,0.6c0.2,0.6,0.1,1.7-0.9,2.1c-0.9,0.4-2.1,0.3-2.7-0.4c-0.6-0.7-0.2-1.4-0.9-1.5c-0.7-0.1-0.8,0.1-1,0.5
				c-0.2,0.4,0,0.8-0.3,0.9c-0.3,0.1-2.7-1.1-3.1-2.9c-0.3-1.3-0.4-2.2,0.1-3c-1-1.4-1.2-2.2-1.4-3.2c-0.3,0-0.6,0.1-0.8,0.2
				c-1.6,0.7-3.1,1.3-3.4,3.2c-0.3,1.8,0.7,2.7,2.1,2.4c1.5-0.3,1.5-1.8,1.5-1.8s0.8,1.5-0.3,2.4c-1.1,1-1.9,0.8-2.9,0.4
				c-1-0.4-1.5-1.8-1.5-1.8s0,1-0.7,1.6c-0.7,0.6-1.1,0.4-1.3,1c-0.2,0.6-0.2,1.1,0.4,1.5c0.6,0.3,1.5,0.5,1.5,0.5s-0.8,0.5-1.8,0.1
				c-1-0.4-1-1.7-1-1.7s-1.3,0.8-3,0.6c-1.7-0.2-2.6-0.9-2.6-0.9s0.2,0.7-0.3,0.8c-0.5,0.1-1.4-0.3-1.9-0.9c-0.6-0.7-0.4-1.3,0-1.3
				c0.4-0.1,0.8,0.1,0.8,0.1s-0.1-0.6-1.3-0.7c-1.1-0.1-1.1,0.6-1.2,1.1c-0.1,0.4,0.1,0.8,0.1,0.8s1,0,1.3,0.6
				c0.3,0.6,0.1,1.2-0.5,1.6c-0.6,0.4-1.7,0-2-0.7c-0.2-0.6-0.2-1.8,0.1-2.6c-0.4-0.1-1.3-0.3-2-0.9c-0.8-0.7-1.1-1.5-1.2-2.7
				c-1,1.2-3.1,3.6-4.3,4c-0.9,0.3-1.6,0.5-2.3,0.6c0.1,0.4,0.3,1,0,1.6c-0.5,0.9-2.1,1.4-3.6,0.1c-1.5-1.3-2.7-3.3-3.9-3.7
				c-1.2-0.4-2,0.3-2.2,0.8c-0.3,0.6-0.2,1.7,0,2.2c0.2,0.5,0.7,0.7,0.7,0.7s-0.2-1.4,0.3-1.9c0.5-0.6,1.9-0.5,2.2,0.7
				c0.3,1.2-0.6,2.3-2,2.3c-1.4,0-2.2-0.8-2.5-2.2C162.2,142.9,162.2,142.7,162.1,142.6L162.1,142.6L162.1,142.6z M180,136.1
				c-0.9,0.9-2.6,2.5-4.1,3.3c-2.1,1-3.8,1.7-5.4,0.1c-1.6-1.6-1.5-3.9-1.1-5.3c0.4-1.4,2.2-1.5,3.5-1.1c1.3,0.4,1.3,2,0.8,2.9
				c-0.5,0.9-1.6,0.9-1.8,0.1c-0.1-0.8,0.1-1,0.5-1.1c0.1,0,0.1,0,0.2,0c-0.1-0.3-0.2-0.6-0.5-0.6c-0.6,0-1.4,0.6-1.4,1.5
				c0,0.9,0.6,1.7,1.7,1.8c1.1,0.1,2.6-1,2.6-2.5c0-1.5-0.1-2.8-1.5-3.1s-2.8-0.5-4.3,0.6c-1.5,1.1-1.9,2.1-1.6,4.1
				c0.3,2,0.9,3.3,2,4.1c1,0.8,2.5,1.1,4,0.9c1.5-0.2,3.2-1.5,4.5-2.9c0.6-0.7,1.4-1.4,1.9-1.9c0-0.2,0-0.4,0-0.6
				C179.9,136.2,179.9,136.2,180,136.1L180,136.1L180,136.1z M227,115.6c0.5-0.1,1.1-0.1,1.8,0.3c1.2,0.7,1.4,1.4,1.3,2.2
				c-0.1,0.4-0.4,0.7-0.7,1.2C228.9,118.4,228.2,116.7,227,115.6z M203.9,138.7c-0.1,0.5-0.1,1.1,0.3,1.8c0.7,1.2,1.4,1.4,2.2,1.3
				c0.4-0.1,0.7-0.4,1.2-0.7C206.7,140.7,205,139.9,203.9,138.7z"/>
			<path class="st0" d="M230.5,92.6c0,0,0.9-0.1,1.1-1.1c0.2-1-0.5-2.1-1.3-1.9c-0.8,0.2-0.8,0.9-0.7,1.2c0.1,0.4,0.4,0.5,0.7,0.5
				c0.3,0,0.6-0.3,0.6-0.3s0.3,0.7-0.6,0.8c-0.9,0.1-1.7-0.6-1.5-2c0.2-1.4,1.4-1.3,2-1.4c0.6-0.1,0.9,0,0.9,0s-0.1,0.9,0.7,0.9
				c0.8,0,0.8-0.6,0.7-1c-0.1-0.4-0.8-0.7-0.8-0.7s0.7-0.6,0.7-1.9c-0.1-1.3-0.6-2.4-1.4-3.3c-0.8-0.9-2.1-1.8-2.1-1.8
				s2,0.6,2.5,0.9c0.5,0.4,0.5,1.2,0.5,1.2s0.2-0.4,0.2-0.8c0-0.4-0.2-0.6-0.2-0.6s0.3,0.2,0.6-0.2c0.2-0.4,0.2-0.6,0.2-0.6
				s-0.2-0.2-0.6-0.2c-0.4,0-0.5,0.4-0.5,0.4s0-0.4-0.2-0.7c-0.2-0.3-0.7-0.3-0.7-0.3s0.3,0.4,0.4,0.7s0.1,0.4,0.1,0.4
				s-0.7-0.4-1.4-0.6c-0.7-0.3-1.4-0.5-2-1.3c-0.5-0.7-0.8-2-0.8-2s0,1.5,0.3,2.3c0.3,0.8,0.6,0.9,0.3,1.3s-0.9,0.6-0.9,0.6
				s0.3,0.4,0.8,0.2c0.5-0.1,0.7-0.7,0.7-0.7s1.1,0.6,2.1,1.6c1,1,1.6,2.3,1.5,3.4c-0.1,1.1-1.2,1.8-2.2,1.7c-1.1,0-2.2-0.8-2-1.9
				c0.2-1.1,0.6-1.3,1.1-1.3c0.6,0,1.4,0.6,1.5,1.2c0.1,0.6-0.4,1.1-0.8,1c-0.5-0.1-0.4-0.7-0.2-0.8c0.1-0.2,0.4-0.3,0.4-0.3
				s-0.4-0.2-0.7,0.1c-0.3,0.3-0.4,1.1,0.3,1.4c0.7,0.3,1.5-0.1,1.6-0.6c0.1-0.5,0.1-1.3-0.5-2c-0.7-0.6-1.4-0.7-1.4-0.7
				s-0.2-0.5,0.1-0.6c0.3-0.1,0.9,0.1,0.9,0.1s0-0.5-0.4-0.6c-0.4-0.1-0.7,0-0.7,0s0.1-0.2,0-0.5c-0.1-0.3-0.4-0.5-0.4-0.5
				s-0.4,0.4-0.4,0.7c-0.1,0.3,0,0.6,0,0.6s-0.2-0.2-0.5-0.1s-0.5,0.5-0.5,0.5s0.5,0,0.8,0.2c0.3,0.2,0.3,0.6,0.3,0.6
				s-1.1,0.4-1,1.8c0.1,1.4,1.3,2.2,1.3,2.2s-1.3,0.7-1.2,2.4c0.2,1.6,0.6,1.8,1.1,2.2c0.6,0.3,1,0.3,1,0.3s0.2,0.5-0.1,0.7
				c-0.3,0.2-0.8,0.2-0.8,0.2s0.6,0.4,1.2,0.2C230.7,93.4,230.5,92.6,230.5,92.6L230.5,92.6L230.5,92.6z M229.1,91.9
				c0,0-0.6-0.7-0.7-1.4c-0.1-0.7,0.2-1.5,0.8-1.9c0.6-0.4,2-0.8,2-0.8s-2.2,0-2.9,1.1C227.6,89.8,227.7,91.3,229.1,91.9z"/>
			<path class="st0" d="M217.9,20.6c0,0-1.2,0.1-1.5-0.4c-0.3-0.5,0.1-1.6,0.1-1.6s-0.3,0.1-0.8,0.1c0,0.6,0,1.6-0.1,2.2
				c-0.2,0.9-0.7,1.5-1.6,2.2c-0.9,0.7-2.7,1.2-3,1.1c-0.3-0.1-0.2,0.8,0.3,1.4c0.6,0.6,1.3,0.1,1.4,0.1c0,0-0.5,0.8,0.1,1.4
				s1.5,0.6,1.4,0.3c-0.1-0.3,0.4-2.1,1.1-3c0.7-0.9,1.3-1.4,2.2-1.6c0.6-0.1,1.6-0.1,2.2-0.1c0-0.5,0.1-0.8,0.1-0.8
				s-1.1,0.4-1.6,0.1C217.8,21.7,217.9,20.6,217.9,20.6z M162.1,7.7c-0.8,0.1-2.3,0.2-3,0.6c-1,0.6-1.9,1.3-1.9,1.3
				s-1.2,0.1-1.3-0.9c-0.1-1,0.1-1.3,0.3-1.3c0.2,0,0.5,0,0.5,0s-0.2,0.9,0.7,1c0.9,0.1,1.1-0.8,0.4-1.4c-0.7-0.6-1.9-1.2-2.7,0
				c-0.8,1.2-0.2,2.7-0.2,3c0,0.4,0.5-0.3,1.1,0.1c0.6,0.4,0.5,1.1,0.2,1.5c-0.3,0.4-1.3-0.2-1.3-0.2s0.6,1-0.5,2.1
				c-1.1,1.1-1.7,0.5-2.5,0.2c-0.8-0.4-1.1-1.1-0.8-2.1c0.2-0.9,1.4-0.6,1.4-0.6s-0.5,0.7-0.2,1.4c0.3,0.7,1.2,0.6,1.7-0.2
				c0.6-0.7,0-1.7-0.6-2c-0.6-0.3-1.6-0.4-2.3,0.1c-0.7,0.5-1.3,1.3-1.1,2.8c0.2,1.5,1.1,2,2.3,2.3c1.2,0.2,2.2-0.3,3-1
				c0.7-0.7,1.3-1.4,1.3-1.4s-0.2,1.6,1,2.9c1.2,1.3,4.2,1,4.2,1s-0.1,0.8,0.5,0.9c0.6,0.1,0.9-0.9,1.3-1.3c0.4-0.4,0.9-0.7,1.5-0.6
				c0.6,0.2,0.8,0.5,0.8,0.5s-1.6,0.3-1.4,1.2c0.2,0.9,1,1.6,1.7,1.2c0.8-0.4,0.9-2.4,0.1-3.5c-0.8-1.1-1.4-0.9-2-0.9
				c-0.6,0-1,0.2-1,0.2s0.7-2-0.6-2.8c-1.3-0.8-2.4-0.7-3.1,0.2c-0.6,0.9,0.4,2,0.4,2s-0.5-1.5,0.4-1.9c0.9-0.4,2.2,0,2.1,1.5
				c-0.1,1.5-1.4,2.4-2.9,2c-1.5-0.3-2.6-1.3-2.3-3.2c0.2-1.9,1.4-3.1,2.7-3.7c0.7-0.4,1.6-0.6,2.2-0.6c0,1,0.3,1.9,1.3,2.5
				c1.3,0.8,2.1,0.5,3.3-0.3c1.2-0.8,1.7-2,2.4-2.1c0.5-0.1,1.1,0.1,1.4,0.3c-1.2,0.4-2.1,0.9-2.8,2.5c-0.9,2-1.4,3.9-0.5,5.6
				c0.9,1.7,2.7,2.7,3.9,2.6c1.1,0,1.9-0.1,1.9-0.1s-1,1.3,0.2,1.4c1.2,0.1,2-1.2,3.2-1.7c1.2-0.5,2.6-0.5,3.1,0.9
				c0.5,1.4-0.2,2.2-0.8,2.4c-0.7,0.2-1.1,0-1.2-0.3c0-0.4,0.3-0.4,0.3-0.4s0.7,0.5,1,0.2c0.2-0.4,0.3-1.6-0.7-1.7
				c-0.9-0.1-1.4,0.4-1.5,1.6c-0.1,1.2,0.9,1.3,1.6,1.4c0.7,0,2.1-0.5,2-2.2c-0.1-1.8-0.8-2.3-2.1-2.7c-1.3-0.4-2.7-0.1-2.7-0.1
				s1-1.9,0.3-3.4c-0.7-1.4-2-2.6-3.4-2.4c-1.4,0.2-2,1.4-1.9,2.6c0.1,1.2,0.8,1.7,1.5,1.7c0.6,0,0.8-0.6,0.9-0.9c0.3,0,0.6,0,0.6,0
				s0,1.1-1,1.3c-1,0.2-1.9-0.3-2.3-1.4c-0.4-1-0.4-1.9,0.1-2.8c0.5-0.9,1.4-1.7,3-1.5c1.5,0.1,3,0.6,4.7,1.9
				c0.9,0.7,1.7,1.3,2.2,1.7c0.2,1.4,0.9,1.8,1.3,2.1c0.5,0.4,0.9,0.1,0.9,0.1s0.4,0.5,0.8,1c0.5,0.5,1.4,1,1.4,1s-1.3-0.1-2.5-0.3
				c-1.2-0.2-2.5-0.5-2.5-0.5s2.4,1.2,4.8,1.4c1.8,0.2,4.8,0.2,6.3,0.2c-0.1,0.3,0,0.6-0.2,0.8c-0.2,0.2-3.4-0.2-4.6,0.6
				c-1.1,0.8-0.4,1.9,0.6,2c1,0.1,1-0.5,1.1-0.8c0-0.3-0.6-0.2-0.7-0.3c-0.2-0.1,0.1-0.6,0.9-0.6c0.8,0,1.6,0.1,3.2,0.5
				c1.5,0.4,2.9-0.6,3.2-1.6c0.3-1-1-1.7-1-1.7s0.5-0.5,0.9-1.1c0.4-0.7,0.6-1.8,0.6-1.8s1.9,1.2,2.2,0c0.3-1.2-1.9-1.2-1.9-1.2
				s0.1-0.6,0-1.6c-0.1-1-0.5-2.1-1.5-3.3c-1-1.1-1.9-1.4-3-1.3c-1.1,0.1-1.8,1.4-1.5,2.4c0.4,1,1.4,1.7,2,1.6
				c0.6-0.1,0.8-1.1,0.3-1.8c-0.5-0.7-1.4-0.4-1.4-0.4s0-0.9,1.2-1c1.1-0.1,1.9,0.8,2.5,2.2c0.6,1.4,0.6,2.9,0,4.2
				c-0.6,1.3-1.5,1.7-2.1,1.8c-0.6,0.1-1.8,0.2-2.4,0.1c-0.6-0.1-0.8-0.3-1-0.6c-0.1-0.2-0.1-1.1,0.3-1.3c0.4-0.2,0.9-0.1,0.9-0.1
				s-0.2,0.4-0.2,0.8c0,0.4,0,0.6,0.7,0.6c0.7-0.1,1.2-0.7,0.9-1.6c-0.3-0.8-1.1-0.8-1.7-0.4c-0.5,0.4-1.2,0.1-1.9-0.2
				c-0.7-0.4-1.6-0.5-2.4,0.1c-0.8,0.6-0.5,2,0.3,2.6c0.8,0.7,1.4-0.1,1.2-0.9c-0.2-0.8-1.2-0.7-1.2-0.7s0.5-0.6,1.3-0.6
				c0.7,0,1.1,0.8,1.1,0.8s-0.2,0.3-0.4,0.6c-0.2,0.3-0.2,1.3,0.4,1.5c0.6,0.3,0.9-0.5,0.9-0.5s0.6,0.3,1.5,0.4c0.9,0,2.1,0,2.1,0
				s-0.8,0.6-1.1,1.1c0,0,0,0.1,0,0.1c-1.2,0-3.4,0-4.8-0.3c-2.1-0.5-3.4-2.6-3.4-2.6s0.9-0.4,0.5-1.7c-0.4-1.3-1.6-1.6-1.3-3.4
				c0.2-1.4,0.9-2,1.6-2c0.1,0.1,0.2,0.3,0.3,0.3c0.7,0.6,1.8,0.5,2.2,0.3h0c0.1,0.3,0.3,1,0.3,1.6c0.1,0.8,0,1.4-1,1.9
				c-1,0.4-1.9,0-2-0.8c-0.1-0.8,0.3-1.6,0.9-1.6c0.6,0,0.5,0.5,0.5,0.5s-0.8,0.6-0.6,1.1c0.2,0.5,0.7,0.5,1.2,0.1
				c0.5-0.4,0.2-1.7-0.4-2c-0.7-0.4-1.4-0.2-1.9,1c-0.5,1.2,0.2,2.5,1.6,2.5c1.4,0,2.2-0.9,2.2-1.9c0-0.8-0.4-1.8-0.6-2.2
				c0.3-0.1,0.6-0.3,0.6-0.3s-0.1,0.7,0.1,1.5c0.2,0.8,1.3,1.2,1.3,1.2s-0.8-0.8-0.7-1.7c0.1-0.9,0-1.6,1.3-2.4
				c1.3-0.7,2.7-0.7,3.8-0.1c1.1,0.6,3.2,3.7,4.6,4.9s3,2.5,4.4,2.7c0.2,0,0.3,0,0.4,0.1l0,0.3c-0.3,1.4-0.2,2.7-0.2,2.7
				s-0.9-2.1-2.7-1.6c-1.8,0.4-2.2,1.5-1.9,2.8c0.3,1.4,2,1.6,2.8,1c0.8-0.5,0.6-1.7,0.1-2.1c-0.5-0.4-1.4-0.3-1.6,0
				c-0.2,0.3,0,1,0.4,0.9c0.4-0.1,0.7-0.4,0.7-0.4s0.6,0.6,0,1c-0.6,0.5-1.3,0.4-1.7-0.1c-0.4-0.6-0.6-1.8,0.4-2.3
				c1-0.5,1.8-0.2,2.3,0.4c0.5,0.6,0.6,0.7,0.6,1.8c0,1.1,0.2,2.3,1.2,2.4c1,0.1,1.7-0.9,1.7-0.9s1.5,1.7,2.6,2.2
				c1,0.5,3.3,0.5,3.3,0.5s-0.3,1,0.2,1.6c0.5,0.5,1,0.7,1,0.7s-0.7,0.8-1.2,1.1c-0.6,0.4-1.1,0.4-1.1,0.4s0.1-1.3,0.1-1.7
				c-0.1-0.5-0.5-0.7-1.4-0.3c-0.9,0.4-1.6,1-2.5,0.5c-0.9-0.5-0.6-2.2-0.6-2.2s-0.9,1.7-0.2,2.6c0.7,0.9,1.7,1,2.3,1
				c0.6,0,1.1,0,1.1,0.4c0,0.4-0.8,1.1-0.9,2c-0.1,0.9,0,1.4,0,1.4s0.5,0.2,1.4,0c0.9-0.1,1.5-1,2-0.9c0.4,0,0.4,0.5,0.4,1.1
				c0,0.6,0.2,1.7,1,2.3c0.9,0.7,2.6-0.2,2.6-0.2s-1.8,0.2-2.2-0.6c-0.5-0.9,0.1-1.6,0.5-2.5c0.4-0.9,0.2-1.3-0.3-1.4
				c-0.5-0.1-1.7,0.1-1.7,0.1s0-0.5,0.4-1.1c0.4-0.6,1.1-1.2,1.1-1.2s0.1,0.5,0.7,1c0.5,0.5,1.6,0.2,1.6,0.2s0,2.2,0.5,3.3
				c0.5,1,2.2,2.6,2.2,2.6s-1,0.7-0.9,1.7c0.1,1,1.3,1.1,2.4,1.2c1.1,0,1.2,0.1,1.8,0.6c0.6,0.5,0.9,1.3,0.4,2.3
				c-0.5,1-1.7,0.8-2.3,0.4c-0.6-0.4-0.6-1.1-0.1-1.7c0.5-0.6,1,0,1,0s-0.3,0.3-0.4,0.7c-0.1,0.4,0.6,0.6,0.9,0.4
				c0.3-0.2,0.4-1.1,0-1.6c-0.4-0.5-1.5-0.7-2.1,0.1c-0.5,0.8-0.3,2.5,1,2.8c1.4,0.3,2.4-0.1,2.8-1.9c0.4-1.8-1.6-2.7-1.6-2.7
				s1.2,0.1,2.7-0.2l0.3,0c0,0.1,0,0.3,0.1,0.4c0.2,1.4,1.4,3,2.7,4.4c1.2,1.4,4.3,3.4,4.9,4.6c0.6,1.1,0.7,2.5-0.1,3.8
				c-0.7,1.3-1.4,1.2-2.4,1.3c-0.9,0.1-1.7-0.7-1.7-0.7s0.4,1.1,1.2,1.3c0.8,0.2,1.5,0.1,1.5,0.1s-0.2,0.3-0.4,0.7
				c-0.1,0.4-0.3,1.4,0.3,2.2c0.6,0.7,2.6,0.9,3.4,0.6c0.8-0.3,1.1-1.4,0.7-2c-0.4-0.6-1-0.8-1.6-0.5c-0.6,0.3-0.6,1.3-0.6,1.3
				s-0.4,0.2-0.8,0.1c-0.4-0.1-1.1,0-1.1-1.2c0.1-1.1,0.7-1.3,0.7-1.3s-0.1,0.4-0.1,0.8c0.1,0.4,0.7,0.6,1.3,0
				c0.7-0.6,1-1.4,0.9-1.9c-0.1-0.5-0.8-0.3-0.8-0.3s0.7-0.9,0.9-2.6c0.2-1.7-0.6-3-0.6-3s1.3,0,1.7-1c0.4-1-0.1-1.8-0.1-1.8
				s-0.1,0.9-0.5,1.5c-0.3,0.6-0.9,0.6-1.5,0.4c-0.6-0.2-0.4-0.6-1-1.3c-0.6-0.7-1.6-0.7-1.6-0.7s1.5-0.5,1.8-1.5
				c0.4-1,0.6-1.8-0.4-2.9c-1-1.1-2.4-0.3-2.4-0.3s1.5,0,1.8,1.5c0.3,1.5-0.6,2.4-2.4,2.1c-1.8-0.3-2.5-1.8-3.2-3.4
				c-0.1-0.3-0.2-0.5-0.2-0.8c1-0.2,1.8-0.5,3.2-1.4c0.8,0.4,1.7,0.4,3,0.1c1.7-0.4,3-2.8,2.9-3.1c-0.1-0.3-0.5-0.1-0.9-0.3
				c-0.4-0.2-0.5-0.3-0.5-1c0.1-0.7,0.7-0.3,1.5-0.9c0.7-0.6,0.8-1.7,0.4-2.7c-0.4-0.9-1.5-1.1-2.1-0.9c-0.6,0.2-1,1.3-0.6,1.8
				c0.5,0.4,1.2,0.4,1.4-0.2c0.2-0.6-0.5-0.9-0.5-0.9s0.6-0.1,1,0.4c0.4,0.5,0.3,1.5-0.5,1.8c-0.8,0.3-1.5,0.2-2.1-0.7
				c-0.6-0.9-0.6-2-0.6-2s-0.2,0.4-0.2,1.1c0,0.7,0,1.3,0.4,2.3c0.1,0.3,0.2,0.5,0.3,0.7c-0.3,0.5-0.7,1.3-1.4,2.2
				c-0.4,0.6-0.8,1-1.2,1.4c-0.1-0.1-0.3-0.2-0.4-0.4c-0.8-0.8-0.4-2-0.4-2s0.5,0.6,1,0.6c0.5,0,0.7-0.6,0.5-1.1
				c-0.2-0.5-1.2-1-1.9-0.3c-0.7,0.7-0.7,2.5,0.3,3.5c0.1,0.1,0.1,0.2,0.2,0.2c-0.6,0.4-1.1,0.7-1.8,0.9c-0.3,0.1-0.6,0.2-0.9,0.2
				c0-1.3,0.3-2.6,0.3-2.6s-0.5,0.6-0.6,1.3c-0.1,0.4-0.2,0.8-0.2,1.4c-1.1,0.1-2.3,0-3.5-0.5c-1.7-0.7-2.9-1.9-3.8-3.8
				c-0.9-1.8-0.4-3.5-0.4-3.5s0.6,1.9,1.1,2.8c0.5,0.8,1.5,0.6,1.5,0.6s-0.4,0.3-0.6,0.6c-0.2,0.3-0.1,0.8,0.5,0.9
				c0.6,0.1,1-0.5,0.7-1.3c-0.2-0.8-1.1-1.1-1.9-1.9c-0.8-0.8-1-1.9-0.8-3.2c0.2-1.3,0.8-2.2,1.9-2.9c0.7-0.5,1.9-0.8,2.5-0.9
				c0,0.1,0,0.1,0,0.2c0,0.6,0,1.2,0,1.2l-1.5,0c0,0,0,0.5,0.5,1.2s1.4,1.3,2.4,1.8c1,0.6,1.7,1.5,1.6,2.7c-0.2,1.1-1,1.8-2.1,1.8
				c-1.1,0.1-1.9-0.6-2.1-1.3c-0.2-0.7,0-1.4,0.8-1.7c0.8-0.3,1.2,0.1,1.2,0.1s-1.2,0.6-0.9,1.3c0.3,0.7,1.4,0.6,1.8-0.2
				c0.4-0.8-0.2-1.7-1.3-1.9c-1-0.1-2.2,0.8-2.2,1.9c0,1.1,0.6,1.7,2,2.2c1.4,0.4,2.5-0.3,3-1c0.5-0.7,0.7-1.8,0.3-2.8
				c-0.3-1-2.1-2.4-2.1-2.4s0.6-0.3,1.2-0.2c0.6,0.1,1,0.5,1,0.5s-0.4-1.2-1.2-1.5c-0.8-0.3-1.9,0.2-1.9,0.2s0.4-0.7,0.7-1
				c0.4-0.3,0.9-0.6,1.1-0.4c0.2,0.2,1.4,1.3,2.7,2.2c1.3,0.9,2.4,1,2.8,0.7c0.4-0.3,0.1-1,0.7-1.1c0.5,0,0.5,0.6,0.9,0.8
				c0.3,0.2,1,0.1,1.6-0.3c0.6-0.4,1.4-1.2,1.6-2.1c0.2-1,0-2.1-0.2-2.7c-0.2-0.6-0.1-1-0.1-1s0.6-0.8,0.3-1.2
				c-0.3-0.4-1-0.8-1.3-1.1c-0.3-0.3-0.2-0.7,0.3-1c0.4-0.3,0.6,0,0.6,0s-0.3,0.6,0,0.7c0.3,0.1,0.7,0.2,0.8-0.3
				c0.1-0.5-0.1-0.9-0.5-1.1c-0.4-0.1-1.1-0.1-1.6,0.4c-0.5,0.5-0.3,1.2-0.3,1.2s-0.7,0-1.2-0.3c-0.4-0.3-0.9-0.6-0.9-0.6l0,0.7
				c0,0-0.7-0.4-1.2-0.5c-0.5-0.1-1.7,0-2.1,0.4c-0.5,0.3-0.4,0.8-0.4,1.1c0,0.2-0.1,0-0.4,0.1c-0.3,0-0.6,0.3-0.8,1.2
				c-0.2,0.9-0.1,1.7,0.7,2.1c0.8,0.4,1.5,0.3,2-0.3c0.4-0.6,0.2-1.4,0.2-1.4s-0.1,0.4-0.3,0.7c-0.1,0.3-0.2,0.5-0.9,0.6
				c-0.7,0-1.1-0.3-1.3-1.1c-0.1-0.7,0-1,0.4-1.3c0.3-0.4,0.6-0.2,0.8-0.4c0.2-0.2,0.1-0.3,0.4-0.7c0.3-0.4,2-0.6,2.8,0.2
				c0.8,0.8,0.8,2,0.5,3.2c-0.3,1.2-1,1.3-1.5,1.7c-0.4,0.4-0.5,1-0.2,1.2c0.3,0.2,0.5,0.1,1.1-0.4c0.7-0.5,1.3-1.2,1.5-2.8
				c0.1-1.6-0.7-3-0.7-3s0.5,0.1,1,0.3c0.4,0.2,0.6,0.5,0.8,1c0.2,0.5,0.2,1,0.3,1.2c0.2,0.3,0.4,0,0.4,0s0.2,0.7,0.2,2.1
				c0,1.3-0.9,2.6-1.6,2.9c-0.7,0.3-0.7-0.3-0.9-0.7c-0.3-0.3-0.8-0.5-1.3-0.3c-0.6,0.1-1,0.8-1.1,0.9c-0.2,0.2-0.8,0-1.6-0.6
				c-0.8-0.5-1.6-1.4-1.6-1.4s0.3,0.1,1,0.1c0.6,0,1.4,0,2-0.3c0.6-0.3,1.2-1.2,1.3-1.8c0.1-0.6,0-1.4-0.3-2
				c-0.3-0.6-0.6-0.9-1.2-0.8c-0.6,0-1,0.2-1.3,0.7c-0.3,0.4-0.2,1.2,0.1,1.4c0.3,0.2,0.8-0.2,0.8-0.6c0-0.4-0.2-0.5-0.2-0.5
				s-0.1-0.2,0.1-0.3c0.2-0.1,0.4,0,0.7,0.2c0.3,0.2,0.6,0.7,0.5,1.4c-0.1,0.7-0.3,1.1-0.8,1.5c-0.4,0.3-1.3,0.4-2.6,0.4
				c-1.3,0-2.2-0.2-2.6-0.7c-0.3-0.6-0.4-1.3-0.4-1.3s1-0.1,1.5-0.7c0.5-0.6,0.6-1.4,0.6-1.4s-0.2-0.1-0.6-0.2c-0.3,0-0.8,0-0.8,0
				s0.4-0.8,0.8-1.3c0.4-0.5,1.2-1.1,1.2-1.1s0,0.5,0.1,1.1c0.2,0.6,0.8,0.8,0.8,0.8s-0.3-0.6-0.2-1.3c0-0.7,0.2-1.3,0.9-2.4
				c0.7-1,2.2-1.9,2.2-1.9s-0.1,1.2,0,2.1c0.1,1,0.8,1.9,0.8,1.9s-0.2-1.5-0.2-2.6c0-1,0.1-1.9,0.9-2.3c0.8-0.4,1.5-0.2,1.8,0
				c0.4,0.3,0.6,0.9,0.5,1.4c-0.1,0.5-0.8,0.5-0.8,0.5s-0.1-0.3-0.2-0.5c-0.2-0.2-0.4-0.3-0.7-0.1c-0.4,0.1-0.4,0.7-0.2,1
				c0.2,0.3,1,1,2,0.4c1-0.6,1-1.6,0.8-2.4c-0.2-0.8-0.8-1.3-1-2c-0.2-0.7-0.1-1,0.2-1.4c0.3-0.4,0.7-0.6,1-0.6
				c0.3,0,0.7,0.3,0.8,0.7c0,0.4-0.5,0.5-0.5,0.5s0.1-0.5-0.1-0.6c-0.2-0.1-0.5-0.1-0.6,0.2c-0.1,0.3,0,0.9,0.4,1.2
				c0.5,0.3,1.2,0.1,1.5-0.6c0.3-0.7-0.1-1.5-0.8-1.8c-0.7-0.3-1.3,0.2-1.3,0.1c0,0,0.4-0.6,0.1-1.3c-0.3-0.7-1.1-1.1-1.8-0.8
				c-0.7,0.3-0.9,1-0.6,1.5c0.3,0.5,1,0.6,1.2,0.4c0.3-0.1,0.3-0.4,0.2-0.6c-0.1-0.2-0.6-0.1-0.6-0.1s0.2-0.5,0.5-0.5
				c0.4,0,0.7,0.5,0.7,0.8c0,0.3-0.2,0.7-0.6,1c-0.4,0.3-0.7,0.4-1.4,0.2c-0.7-0.2-1.2-0.8-2-1c-0.8-0.2-1.8-0.2-2.4,0.8
				c-0.6,1,0.1,1.8,0.4,2c0.3,0.2,0.8,0.1,1-0.2c0.1-0.4,0.1-0.6-0.1-0.7c-0.2-0.2-0.5-0.2-0.5-0.2s0-0.6,0.5-0.8
				c0.5-0.1,1.1,0.1,1.4,0.5c0.3,0.4,0.4,1,0,1.8c-0.4,0.8-1.3,0.9-2.3,0.9c-1,0-2.6-0.2-2.6-0.2s0.9,0.7,1.9,0.8c1,0.1,2.1,0,2.1,0
				s-0.8,1.5-1.9,2.2c-1,0.7-1.7,0.8-2.4,0.9c-0.7,0-1.3-0.2-1.3-0.2s0.2,0.7,0.8,0.8c0.6,0.2,1.1,0.1,1.1,0.1s-0.6,0.8-1.1,1.2
				c-0.5,0.4-1.3,0.8-1.3,0.8s0-0.5,0-0.8s-0.2-0.6-0.2-0.6s-0.8,0.1-1.4,0.6c-0.6,0.5-0.7,1.5-0.7,1.5s-0.7,0-1.3-0.4
				c-0.6-0.3-0.8-1.3-0.7-2.6c0-1.3,0-2.1,0.4-2.6c0.3-0.4,0.7-0.7,1.5-0.8c0.7-0.1,1.2,0.2,1.4,0.5c0.2,0.3,0.3,0.6,0.2,0.7
				c-0.1,0.2-0.3,0.1-0.3,0.1s-0.1-0.3-0.5-0.2s-0.8,0.5-0.6,0.8c0.2,0.3,1,0.4,1.4,0.1c0.4-0.3,0.6-0.7,0.7-1.3
				c0-0.6-0.3-0.9-0.8-1.2c-0.6-0.3-1.3-0.4-2-0.3c-0.6,0.1-1.5,0.7-1.8,1.3c-0.3,0.6-0.3,1.3-0.3,2c0,0.6,0.1,1,0.1,1
				s-0.9-0.8-1.4-1.6c-0.5-0.8-0.7-1.4-0.6-1.6c0.2-0.2,0.8-0.6,0.9-1.1s0-1-0.3-1.3c-0.3-0.3-0.9-0.2-0.7-0.9
				c0.3-0.7,1.6-1.6,2.9-1.6c1.3,0,2.1,0.2,2.1,0.2s-0.3,0.3,0,0.4c0.3,0.2,0.7,0.1,1.2,0.3c0.5,0.2,0.8,0.4,1,0.8
				c0.2,0.4,0.3,1,0.3,1s-1.4-0.8-3-0.7c-1.6,0.1-2.2,0.8-2.8,1.5c-0.5,0.7-0.6,0.9-0.4,1.1c0.2,0.3,0.8,0.2,1.2-0.2
				c0.4-0.4,0.5-1.2,1.7-1.5c1.2-0.3,2.4-0.3,3.2,0.5c0.8,0.8,0.6,2.5,0.2,2.8c-0.4,0.3-0.5,0.2-0.7,0.4c-0.2,0.2-0.1,0.4-0.4,0.8
				c-0.4,0.3-0.6,0.5-1.3,0.4c-0.7-0.1-1.1-0.6-1.1-1.3c0-0.7,0.3-0.8,0.6-0.9c0.3-0.1,0.7-0.3,0.7-0.3s-0.8-0.2-1.4,0.2
				c-0.6,0.4-0.7,1.2-0.3,2c0.4,0.8,1.2,0.9,2.1,0.7c0.9-0.2,1.1-0.5,1.2-0.8c0-0.3-0.1-0.4,0.1-0.4c0.2,0,0.7,0.1,1.1-0.4
				c0.3-0.5,0.5-1.6,0.4-2.1c-0.1-0.5-0.5-1.2-0.5-1.2l0.7,0c0,0-0.3-0.4-0.6-0.9c-0.3-0.4-0.3-1.2-0.3-1.2s0.7,0.2,1.2-0.3
				c0.5-0.5,0.5-1.2,0.4-1.6c-0.1-0.4-0.6-0.6-1.1-0.5c-0.5,0.1-0.4,0.5-0.3,0.8c0.1,0.3,0.7,0,0.7,0s0.3,0.2,0,0.6
				c-0.3,0.4-0.7,0.5-1,0.3c-0.3-0.3-0.7-0.9-1.1-1.3c-0.4-0.3-1.2,0.3-1.2,0.3s-0.4,0.1-1-0.1c-0.6-0.2-1.7-0.5-2.7-0.2
				c-1,0.2-1.7,1-2.1,1.6c-0.4,0.6-0.5,1.3-0.3,1.6c0.2,0.3,0.9,0.4,0.8,0.9c0,0.5-0.8,0.3-1.1,0.7c-0.3,0.4-0.2,1.5,0.7,2.8
				c0.9,1.3,2,2.5,2.2,2.7c0.2,0.2,0,0.7-0.4,1.1c-0.3,0.4-1,0.7-1,0.7s0.5-1.1,0.2-1.9c-0.3-0.8-1.5-1.2-1.5-1.2s0.3,0.5,0.5,1
				c0.1,0.6-0.2,1.2-0.2,1.2s-1.4-1.7-2.4-2.1c-1-0.3-2.1-0.2-2.8,0.3c-0.7,0.5-1.4,1.6-1,3c0.4,1.4,1.1,2,2.2,2
				c1.1,0,2-1.1,1.9-2.2c-0.1-1-1-1.7-1.9-1.3c-0.8,0.4-1,1.5-0.2,1.8c0.7,0.3,1.3-0.9,1.3-0.9s0.4,0.4,0.1,1.2
				c-0.3,0.8-1,1-1.7,0.8c-0.7-0.2-1.4-0.9-1.3-2.1c0.1-1.1,0.7-1.9,1.8-2.1c1.1-0.2,2.1,0.6,2.7,1.6c0.6,1,1.2,1.9,1.8,2.4
				c0.7,0.5,1.2,0.5,1.2,0.5l0-1.5c0,0,0.6,0,1.2,0c0.1,0,0.1,0,0.2,0c-0.1,0.6-0.4,1.8-0.9,2.5c-0.7,1.1-1.5,1.8-2.9,1.9
				c-1.3,0.2-2.5-0.1-3.2-0.8c-0.8-0.8-1.1-1.6-1.9-1.9c-0.8-0.2-1.4,0.2-1.3,0.7c0.1,0.6,0.6,0.7,0.9,0.5c0.3-0.2,0.6-0.6,0.6-0.6
				s-0.3,0.9,0.6,1.5c0.8,0.5,2.8,1.1,2.8,1.1s-1.7,0.6-3.5-0.4c-1.8-0.9-3.1-2.2-3.8-3.8c-0.5-1.2-0.6-2.4-0.5-3.5
				c0.6,0,1-0.1,1.4-0.2c0.6-0.1,1.3-0.6,1.3-0.6s-1.3,0.4-2.6,0.3c0.1-0.3,0.1-0.6,0.2-0.9c0.2-0.7,0.5-1.3,0.9-1.8
				c0.1,0.1,0.1,0.1,0.2,0.2c1.1,0.9,2.8,1,3.5,0.3c0.7-0.7,0.2-1.7-0.3-1.9c-0.5-0.2-1.1,0-1.1,0.5c0,0.5,0.6,1,0.6,1
				s-1.2,0.4-2-0.4c-0.1-0.1-0.3-0.3-0.4-0.4c0.4-0.4,0.9-0.8,1.4-1.2c0.9-0.7,1.7-1.1,2.2-1.4c0.2,0.1,0.4,0.3,0.7,0.3
				c1.1,0.4,1.6,0.4,2.3,0.4c0.7,0,1.1-0.2,1.1-0.2s-1,0-2-0.6c-0.9-0.6-1.1-1.3-0.7-2.1c0.3-0.8,1.3-0.9,1.8-0.5
				c0.5,0.4,0.4,1,0.4,1s-0.3-0.7-0.9-0.5c-0.6,0.2-0.6,0.9-0.2,1.4c0.4,0.5,1.5,0,1.8-0.6c0.2-0.6,0.1-1.7-0.9-2.1
				c-0.9-0.4-2.1-0.3-2.7,0.4c-0.6,0.7-0.2,1.4-0.9,1.5c-0.7,0.1-0.8-0.1-1-0.5c-0.2-0.4,0-0.8-0.3-0.9c-0.3-0.1-2.7,1.1-3.1,2.9
				c-0.3,1.3-0.4,2.2,0.1,3c-1,1.4-1.2,2.2-1.4,3.2c-0.3,0-0.6-0.1-0.8-0.2c-1.6-0.7-3.1-1.3-3.4-3.2c-0.3-1.8,0.7-2.7,2.1-2.4
				c1.5,0.3,1.5,1.8,1.5,1.8S202.1,10,201,9c-1.1-1-1.9-0.8-2.9-0.4c-1,0.4-1.5,1.8-1.5,1.8s0-1-0.7-1.6c-0.7-0.6-1.1-0.4-1.3-1
				c-0.2-0.6-0.2-1.1,0.4-1.5c0.6-0.3,1.5-0.5,1.5-0.5s-0.8-0.5-1.8-0.1c-1,0.4-1,1.7-1,1.7s-1.3-0.8-3-0.6C188.9,7,188,7.7,188,7.7
				s0.2-0.7-0.3-0.8s-1.4,0.3-1.9,0.9c-0.6,0.7-0.4,1.3,0,1.3c0.4,0.1,0.8-0.1,0.8-0.1s-0.1,0.6-1.3,0.7c-1.1,0.1-1.1-0.6-1.2-1.1
				c-0.1-0.4,0.1-0.8,0.1-0.8s1,0,1.3-0.6c0.3-0.6,0.1-1.2-0.5-1.6c-0.6-0.4-1.7,0-2,0.7c-0.2,0.6-0.2,1.8,0.1,2.6
				c-0.4,0.1-1.3,0.3-2,0.9c-0.8,0.7-1.1,1.5-1.2,2.7c-1-1.2-3.1-3.6-4.3-4c-0.9-0.3-1.6-0.5-2.3-0.6c0.1-0.4,0.3-1,0-1.6
				c-0.5-0.9-2.1-1.4-3.6-0.1c-1.5,1.3-2.7,3.3-3.9,3.7c-1.2,0.4-2-0.3-2.2-0.8c-0.3-0.6-0.2-1.7,0-2.2c0.2-0.5,0.7-0.7,0.7-0.7
				s-0.2,1.4,0.3,1.9c0.5,0.6,1.9,0.5,2.2-0.7c0.3-1.2-0.6-2.3-2-2.3c-1.4,0-2.2,0.8-2.5,2.2C162.2,7.4,162.2,7.5,162.1,7.7
				L162.1,7.7L162.1,7.7z M180,14.1c-0.9-0.9-2.6-2.5-4.1-3.3c-2.1-1-3.8-1.7-5.4-0.1c-1.6,1.6-1.5,3.9-1.1,5.3
				c0.4,1.4,2.2,1.5,3.5,1.1c1.3-0.4,1.3-2,0.8-2.9c-0.5-0.9-1.6-0.9-1.8-0.1s0.1,1,0.5,1.1c0.1,0,0.1,0,0.2,0
				c-0.1,0.3-0.2,0.6-0.5,0.6c-0.6,0-1.4-0.6-1.4-1.5c0-0.9,0.6-1.7,1.7-1.8c1.1-0.1,2.6,1,2.6,2.5c0,1.5-0.1,2.8-1.5,3.1
				c-1.4,0.3-2.8,0.5-4.3-0.6c-1.5-1.1-1.9-2.1-1.6-4.1c0.3-2,0.9-3.3,2-4.1c1-0.8,2.5-1.1,4-0.9c1.5,0.2,3.2,1.5,4.5,2.9
				c0.6,0.7,1.4,1.4,1.9,1.9c0,0.2,0,0.4,0,0.6C179.9,14,179.9,14,180,14.1L180,14.1L180,14.1z M227,34.6c0.5,0.1,1.1,0.1,1.8-0.3
				c1.2-0.7,1.4-1.4,1.3-2.2c-0.1-0.4-0.4-0.7-0.7-1.2C228.9,31.8,228.2,33.5,227,34.6z M203.9,11.5c-0.1-0.5-0.1-1.1,0.3-1.8
				c0.7-1.2,1.4-1.4,2.2-1.3c0.4,0.1,0.7,0.4,1.2,0.7C206.7,9.6,205,10.3,203.9,11.5z"/>
			<path class="st0" d="M230.5,57.6c0,0,0.9,0.1,1.1,1.1c0.2,1-0.5,2.1-1.3,1.9c-0.8-0.2-0.8-0.9-0.7-1.2c0.1-0.4,0.4-0.5,0.7-0.5
				c0.3,0,0.6,0.3,0.6,0.3s0.3-0.7-0.6-0.8c-0.9-0.1-1.7,0.6-1.5,2c0.2,1.4,1.4,1.3,2,1.4c0.6,0.1,0.9,0,0.9,0s-0.1-0.9,0.7-0.9
				c0.8,0,0.8,0.6,0.7,1c-0.1,0.4-0.8,0.7-0.8,0.7s0.7,0.6,0.7,1.9c-0.1,1.3-0.6,2.4-1.4,3.3c-0.8,0.9-2.1,1.8-2.1,1.8
				s2-0.6,2.5-0.9c0.5-0.4,0.5-1.2,0.5-1.2s0.2,0.4,0.2,0.8c0,0.4-0.2,0.6-0.2,0.6s0.3-0.2,0.6,0.2c0.2,0.4,0.2,0.6,0.2,0.6
				s-0.2,0.2-0.6,0.2c-0.4,0-0.5-0.4-0.5-0.4s0,0.4-0.2,0.7s-0.7,0.3-0.7,0.3s0.3-0.4,0.4-0.7c0.1-0.2,0.1-0.4,0.1-0.4
				s-0.7,0.4-1.4,0.6c-0.7,0.3-1.4,0.5-2,1.3c-0.5,0.7-0.8,2-0.8,2s0-1.5,0.3-2.3c0.3-0.8,0.6-0.9,0.3-1.3c-0.2-0.4-0.9-0.6-0.9-0.6
				s0.3-0.4,0.8-0.2c0.5,0.1,0.7,0.7,0.7,0.7s1.1-0.6,2.1-1.6c1-1,1.6-2.3,1.5-3.4c-0.1-1.1-1.2-1.8-2.2-1.7c-1.1,0-2.2,0.8-2,1.9
				c0.2,1.1,0.6,1.3,1.1,1.3c0.6,0,1.4-0.6,1.5-1.2c0.1-0.6-0.4-1.1-0.8-1c-0.5,0.1-0.4,0.7-0.2,0.8c0.1,0.2,0.4,0.3,0.4,0.3
				s-0.4,0.2-0.7-0.1c-0.3-0.3-0.4-1.1,0.3-1.4c0.7-0.3,1.5,0.1,1.6,0.6c0.1,0.5,0.1,1.3-0.5,2c-0.7,0.6-1.4,0.7-1.4,0.7
				s-0.2,0.5,0.1,0.6c0.3,0.1,0.9-0.1,0.9-0.1s0,0.5-0.4,0.6c-0.4,0.1-0.7,0-0.7,0s0.1,0.2,0,0.5c-0.1,0.3-0.4,0.5-0.4,0.5
				s-0.4-0.4-0.4-0.7c-0.1-0.3,0-0.6,0-0.6s-0.2,0.2-0.5,0.1c-0.3-0.1-0.5-0.5-0.5-0.5s0.5,0,0.8-0.2c0.3-0.2,0.3-0.6,0.3-0.6
				s-1.1-0.4-1-1.8c0.1-1.4,1.3-2.2,1.3-2.2s-1.3-0.7-1.2-2.4c0.2-1.6,0.6-1.8,1.1-2.2c0.6-0.3,1-0.3,1-0.3s0.2-0.5-0.1-0.7
				c-0.3-0.2-0.8-0.2-0.8-0.2s0.6-0.4,1.2-0.2C230.7,56.8,230.5,57.7,230.5,57.6L230.5,57.6L230.5,57.6z M229.1,58.4
				c0,0-0.6,0.7-0.7,1.4c-0.1,0.7,0.2,1.5,0.8,1.9c0.6,0.4,2,0.8,2,0.8s-2.2,0-2.9-1.1C227.6,60.4,227.7,59,229.1,58.4z"/>
		</g>
		<path class="st1" d="M100.4,53.8c0,0.6-0.6,1-1.7,1.4c-1.1,0.4-2.4,0.6-4,0.6c-1.6,0-3.6-0.2-6-0.7c-1.3,0.7-2.4,1.6-3.5,2.9
			c-1,1.3-2.2,3.1-3.4,5.5c-1.2,2.4-2.1,3.9-2.6,4.7C78.7,69,78,69.7,77,70.5c-2.6,1.9-5.2,2.9-8,2.9c-1.5,0-2.7-0.3-3.6-0.9
			C64.4,71.8,64,71,64,70c0-0.5,0.1-0.9,0.4-1.3c0.3-0.4,0.7-0.5,1.1-0.5c0.7,0,1,0.3,1,1c0,0.3-0.1,0.6-0.3,0.8
			c-0.2,0.2-0.4,0.4-0.7,0.4c-0.5,0-0.7-0.2-0.7-0.7c0-0.2,0-0.4-0.1-0.4c-0.2,0-0.3,0.3-0.3,0.8c0,0.8,0.4,1.5,1.3,2.1
			c0.8,0.6,1.9,0.9,3.1,0.9c2.7,0,5.2-1.2,7.4-3.7c1-1.1,2.3-3.1,3.9-5.7c2.6-4.3,5.4-7.1,8.3-8.5c-0.6-0.1-1.4-0.3-2.5-0.5
			c-2.6-0.6-4.6-0.8-6-0.8c-0.1,0-0.6,0-1.3,0.1c0.5,0.9,0.7,1.9,0.7,3.1c0,2.2-0.8,4.4-2.6,6.3c-1.7,2-3.5,3-5.5,3
			c-0.8,0-1.5-0.3-2-0.8c-0.5-0.5-0.8-1.2-0.8-2.1c0-1.2,0.4-2.5,1.3-3.9c0.9-1.4,2-2.7,3.4-3.7c1.4-1.1,2.9-1.8,4.6-2.2
			c-0.8-1.1-2-1.6-3.5-1.6c-1.3,0-2.5,0.4-3.8,1.1c-1.3,0.7-2.4,1.7-3.4,3c-0.1,0.2-0.2,0.3-0.3,0.3c-0.1,0-0.1,0-0.1-0.1
			c0-0.2,0.4-0.7,1.3-1.5c2-2,4.1-3,6.3-3c1.7,0,3,0.6,3.9,1.8c1.2-0.4,2.7-0.5,4.3-0.5c0.8,0,1.6,0.1,2.3,0.1
			c0.7,0.1,2.5,0.5,5.3,1c2.4-1,4.6-1.5,6.8-1.5C99.3,52.5,100.4,53,100.4,53.8C100.4,53.8,100.4,53.8,100.4,53.8z M100.2,53.9
			c0-0.3-0.3-0.6-0.9-0.8c-0.6-0.2-1.3-0.3-2.2-0.3c-2.2,0-4.3,0.5-6.4,1.4c0.3,0,0.9,0.2,2,0.4c1.6,0.3,3.1,0.5,4.3,0.5
			c0.8,0,1.5-0.1,2.1-0.3C99.8,54.4,100.1,54.2,100.2,53.9C100.1,53.9,100.2,53.9,100.2,53.9z M78.7,56.1c0-0.8-0.2-1.6-0.6-2.3
			c-2.3,0.4-4.4,1.6-6.4,3.5c-2,2-3,3.9-3,5.9c0,0.7,0.2,1.4,0.7,1.9c0.5,0.5,1,0.7,1.7,0.7c1.7,0,3.4-1.1,5.1-3.2
			C77.9,60.5,78.7,58.4,78.7,56.1C78.7,56.1,78.7,56.1,78.7,56.1z"/>
		<path id="_1" class="st1" d="M92.7,67.8c0,0.1-0.1,0.2-0.1,0.3L91.8,69c-1.9,2.7-3.4,4-4.3,4c-0.5,0-0.9-0.2-1.2-0.5
			c-0.3-0.4-0.5-0.8-0.5-1.3c0-0.7,0.4-1.7,1.2-2.8c1.2-1.8,1.8-2.9,1.8-3.2c0-0.4-0.2-0.6-0.6-0.6c-0.6,0-1.4,0.6-2.5,1.8
			c-1,1.2-2.4,3.4-4.2,6.6c-0.3-0.1-0.6-0.1-0.8-0.1c-0.2,0-0.5,0-0.9,0.1l2.3-4.1c0.3-0.6,0.8-1.4,1.4-2.6c0.3-0.6,1.4-2.3,3.1-5.3
			l2.3-4c0.3,0.1,0.6,0.1,0.8,0.1c0.4,0,0.8,0,1.2-0.1c-1.1,1.7-2.6,4.3-4.8,7.7c-0.1,0.1-0.8,1.4-2.4,4c1.9-2.9,3.4-4.3,4.6-4.3
			c0.4,0,0.8,0.2,1.1,0.6c0.3,0.4,0.5,0.8,0.5,1.4c0,0.7-0.4,1.7-1.4,3.1c-1,1.5-1.5,2.4-1.5,2.8c0,0.4,0.2,0.7,0.7,0.7
			c0.8,0,2.1-1.3,4-3.9l0.5-0.7l0.3-0.3C92.5,67.8,92.6,67.7,92.7,67.8C92.7,67.7,92.7,67.8,92.7,67.8
			C92.7,67.8,92.7,67.8,92.7,67.8z"/>
		<path id="_2" class="st1" d="M100.4,67.9c0,0-0.1,0.2-0.3,0.4l-0.7,0.8C97.4,71.7,95.5,73,94,73c-0.7,0-1.3-0.3-1.8-0.8
			c-0.5-0.5-0.7-1.2-0.7-1.9c0-1.8,1.3-3.5,3.8-4.9c1.4-0.7,2.4-1.1,3.3-1.1c0.4,0,0.7,0.1,0.9,0.3c0.3,0.2,0.4,0.5,0.4,0.8
			c0,0.7-0.5,1.4-1.4,1.9c-1,0.5-2.6,1-4.8,1.4c-0.7,1.1-1,1.9-1,2.6c0,0.9,0.5,1.3,1.4,1.3c1.6,0,3.6-1.6,5.9-4.7
			C100.2,67.9,100.3,67.8,100.4,67.9C100.4,67.8,100.4,67.8,100.4,67.9L100.4,67.9L100.4,67.9z M99.1,65c0-0.3-0.2-0.5-0.5-0.5
			c-0.5,0-1.3,0.4-2.1,1.1c-0.9,0.7-1.8,1.7-2.6,2.9c1.5-0.4,2.7-0.9,3.7-1.6C98.6,66.3,99.1,65.6,99.1,65L99.1,65L99.1,65z"/>
		<path id="_3" class="st1" d="M214.9,61.9c0,0.4-0.6,1.2-1.9,2.4c-0.1,0.3-0.1,0.6-0.1,0.8c0,0.6,0.3,1.5,0.8,2.8
			c0.3,0.6,0.4,1.2,0.4,1.6c0,0.9-0.4,1.7-1.3,2.4c-0.9,0.7-2,1-3.2,1c-0.7,0-1.3-0.2-1.7-0.6c-0.4-0.4-0.6-0.9-0.6-1.6
			c0-0.8,0.3-1.5,0.8-2.2c0.5-0.7,1.1-1.1,1.7-1.1c0.1,0,0.2,0,0.3,0.1l1.2-1.5c0.4-0.4,0.9-1,1.5-1.8c0.2-0.7,0.4-1.3,0.8-1.8
			c0.4-0.5,0.7-0.8,1.1-0.8C214.8,61.6,214.9,61.7,214.9,61.9L214.9,61.9L214.9,61.9z M212.8,67.9c0-0.3,0-0.6,0-0.9
			c0-0.3,0-0.7,0-1.3c0-0.5,0-0.8,0.1-1.1c-0.6,0.7-1.4,1.7-2.5,3.1c0.2,0.2,0.3,0.4,0.3,0.6c0,0.6-0.5,1-1.5,1.2
			c-0.4,0.1-0.7,0.3-1,0.7c-0.3,0.3-0.4,0.7-0.4,1.1c0,0.4,0.1,0.7,0.4,1c0.3,0.3,0.7,0.4,1.1,0.4c0.9,0,1.7-0.5,2.4-1.5
			C212.4,70.2,212.8,69.1,212.8,67.9L212.8,67.9z"/>
		<path id="_4" class="st1" d="M141.3,56.7c0,0.5-0.1,1.1-0.2,1.7c-0.1,0.6-0.3,1-0.4,1c-0.1,0-0.1-0.1-0.1-0.1c0,0,0-0.1,0-0.1
			c0.3-0.7,0.4-1.5,0.4-2.3c0-1.3-0.4-2.3-1.1-3.1c-0.8-0.8-1.8-1.2-3-1.2c-1.7,0-3.4,0.6-5.2,1.7c1.4,1.1,2.1,2.3,2.1,3.7
			c0,2.3-1.5,3.6-4.6,4.1c2.5,0.9,3.8,2.5,3.8,4.9c0,1.8-0.7,3.3-2.2,4.6s-3.2,2-5.3,2c-1,0-1.7-0.2-2.3-0.7c-0.6-0.5-0.8-1.2-0.8-2
			c0-1.3,0.6-2.6,1.8-3.9c1.2-1.3,2.4-1.9,3.6-1.9c0.7,0,1.2,0.2,1.7,0.6c0.4,0.4,0.6,1,0.6,1.6c0,0.4-0.1,0.9-0.4,1.5
			c-0.2,0.6-0.4,0.9-0.6,0.9c-0.1,0-0.2,0-0.2-0.1c0,0,0-0.1,0.1-0.2c0.5-0.8,0.8-1.5,0.8-2.1c0-0.6-0.2-1.1-0.6-1.4
			c-0.4-0.4-0.9-0.5-1.5-0.5c-1.1,0-2.3,0.6-3.4,1.8c-1.1,1.2-1.7,2.5-1.7,3.7c0,0.7,0.2,1.2,0.7,1.7c0.5,0.4,1,0.7,1.7,0.7
			c1.6,0,3-0.8,4.3-2.3c1.3-1.5,1.9-3.2,1.9-5c0-1.7-0.8-2.9-2.4-3.7l-0.9,0.1c-0.2,0-0.5,0-0.7,0c-0.8,0-1.2-0.1-1.2-0.4
			c0-0.2,0.3-0.3,1-0.3c0.5,0,1.1,0.1,1.8,0.3c1.1-0.3,1.9-0.9,2.5-1.7c0.6-0.8,0.9-1.8,0.9-2.8c0-1-0.4-2-1.2-2.8
			c-2.2,1.7-4.3,4.6-6.3,8.7c-1.2,2.5-2.3,4.3-3.3,5.5c-1,1.1-2.4,2.1-4.2,3c-2.1,1-4,1.6-5.7,1.6c-1.4,0-2.5-0.3-3.4-0.9
			c-0.9-0.6-1.4-1.4-1.4-2.4c0-0.5,0.2-1,0.5-1.4c0.3-0.4,0.7-0.6,1.1-0.6c0.6,0,0.9,0.3,0.9,1c0,0.3-0.1,0.6-0.3,0.9
			c-0.2,0.2-0.5,0.4-0.8,0.4c-0.5,0-0.8-0.3-0.8-0.8c0-0.2,0-0.3-0.1-0.3c-0.2,0-0.2,0.3-0.2,0.8c0,0.8,0.4,1.6,1.3,2.1
			c0.8,0.6,1.9,0.8,3.2,0.8c2.2,0,4.3-0.8,6.1-2.5c0.8-0.7,1.5-1.5,2.1-2.2c0.6-0.8,1.9-2.8,4-6c1-1.5,2.2-3.1,3.6-4.6
			c1.4-1.6,2.6-2.7,3.6-3.4c-1.6-1.4-4-2-7-2c-4.3,0-8.1,1.6-11.3,4.7c-2.6,2.6-3.9,5-3.9,7.2c0,1.1,0.4,2.1,1.1,2.7
			c0.7,0.7,1.7,1,3,1c2.1,0,4.2-1,6.4-3c2.2-2,3.3-3.9,3.3-5.8c0-1.5-0.8-2.2-2.3-2.2c-1.5,0-3.2,0.8-4.9,2.5
			c-1.7,1.7-2.6,3.3-2.6,4.8c0,0.4,0.1,0.7,0.4,1c0.2,0.3,0.5,0.4,0.8,0.4c0.2,0,0.3,0.1,0.3,0.1c0,0.1-0.1,0.1-0.3,0.1
			c-0.5,0-0.9-0.2-1.2-0.7c-0.3-0.4-0.5-1-0.5-1.6c0-1.6,0.9-3.1,2.6-4.6c1.7-1.5,3.5-2.3,5.4-2.3c1.8,0,2.6,0.8,2.6,2.4
			c0,2-1.1,4-3.4,6c-2.2,2-4.4,3-6.6,3c-1.4,0-2.6-0.4-3.4-1.3c-0.8-0.8-1.3-2-1.3-3.4c0-2.9,1.6-5.5,4.9-7.9
			c3.3-2.4,6.9-3.6,10.8-3.6c3,0,5.5,0.7,7.6,2c1.9-1.2,3.7-1.7,5.4-1.7c1.4,0,2.5,0.4,3.3,1.2C140.9,54.3,141.3,55.4,141.3,56.7
			L141.3,56.7L141.3,56.7z"/>
		<path id="_5" class="st1" d="M140.2,61.5c0,0.4-0.1,0.7-0.5,1c-0.3,0.3-0.6,0.5-1,0.5c-0.5,0-0.7-0.2-0.7-0.7c0-0.3,0.2-0.7,0.5-1
			c0.3-0.3,0.7-0.5,1-0.5C140,60.8,140.2,61.1,140.2,61.5L140.2,61.5L140.2,61.5z M140.4,67.8c0,0-0.1,0.1-0.2,0.2l-0.7,0.9
			c-1.9,2.7-3.4,4-4.4,4c-0.5,0-0.9-0.2-1.2-0.5c-0.3-0.3-0.5-0.8-0.5-1.3c0-0.6,0.4-1.5,1.1-2.7l2.4-4.1c0.3,0.1,0.6,0.1,0.7,0.1
			c0.3,0,0.7,0,1.2-0.1l-3.5,5.7c-0.5,0.8-0.8,1.5-0.8,1.9c0,0.5,0.2,0.7,0.7,0.7c0.9,0,2.5-1.6,4.8-4.9c0.1-0.1,0.1-0.2,0.1-0.2
			C140.4,67.7,140.4,67.7,140.4,67.8L140.4,67.8z"/>
		<path id="_6" class="st1" d="M148.5,57c-4.3,7.2-6.8,11.4-7.5,12.6c-0.7,1.3-1.1,2.1-1.1,2.5c0,0.5,0.2,0.7,0.6,0.7
			c0.9,0,2.4-1.6,4.7-4.9c0.1-0.1,0.1-0.2,0.2-0.2c0,0,0.1,0,0.1,0.1c0,0.1-0.1,0.1-0.2,0.2l-0.7,0.9c-1.9,2.7-3.4,4-4.3,4
			c-0.4,0-0.8-0.2-1.1-0.5c-0.3-0.3-0.4-0.8-0.4-1.3c0-0.6,0.1-1.1,0.4-1.6c0.3-0.5,1.1-2,2.7-4.6c1.8-3.1,3.4-5.7,4.7-8
			c0.3,0.1,0.6,0.1,0.8,0.1C147.8,57.2,148.2,57.1,148.5,57L148.5,57L148.5,57z"/>
		<path id="_7" class="st1" d="M153.5,57c-4.3,7.2-6.8,11.4-7.5,12.6c-0.7,1.3-1.1,2.1-1.1,2.5c0,0.5,0.2,0.7,0.6,0.7
			c0.9,0,2.4-1.6,4.7-4.9c0.1-0.1,0.1-0.2,0.2-0.2c0,0,0.1,0,0.1,0.1c0,0.1-0.1,0.1-0.2,0.2l-0.7,0.9c-1.9,2.7-3.4,4-4.3,4
			c-0.4,0-0.8-0.2-1.1-0.5c-0.3-0.3-0.4-0.8-0.4-1.3c0-0.6,0.1-1.1,0.4-1.6c0.3-0.5,1.1-2,2.7-4.6c1.8-3.1,3.4-5.7,4.7-8
			c0.3,0.1,0.6,0.1,0.8,0.1C152.9,57.2,153.2,57.1,153.5,57C153.5,57,153.5,57,153.5,57z"/>
		<path id="_8" class="st1" d="M155.5,61.5c0,0.4-0.1,0.7-0.5,1c-0.3,0.3-0.6,0.5-1,0.5c-0.5,0-0.7-0.2-0.7-0.7c0-0.3,0.2-0.7,0.5-1
			c0.3-0.3,0.7-0.5,1-0.5C155.3,60.8,155.5,61.1,155.5,61.5C155.5,61.5,155.5,61.5,155.5,61.5z M155.7,67.8c0,0-0.1,0.1-0.2,0.2
			l-0.7,0.9c-1.9,2.7-3.4,4-4.4,4c-0.5,0-0.9-0.2-1.2-0.5c-0.3-0.3-0.5-0.8-0.5-1.3c0-0.6,0.4-1.5,1.1-2.7l2.4-4.1
			c0.3,0.1,0.6,0.1,0.7,0.1c0.3,0,0.7,0,1.2-0.1l-3.5,5.7c-0.5,0.8-0.8,1.5-0.8,1.9c0,0.5,0.2,0.7,0.7,0.7c0.9,0,2.5-1.6,4.8-4.9
			c0.1-0.1,0.1-0.2,0.1-0.2C155.7,67.7,155.7,67.7,155.7,67.8L155.7,67.8z"/>
		<path id="_9" class="st1" d="M164.9,67.8c0,0.2-0.3,0.5-0.9,1.1c-0.9,0.9-1.7,1.4-2.5,1.4c-0.3,0-0.6-0.1-0.8-0.2
			c-1.4,1.9-2.6,2.9-3.8,2.9c-0.6,0-1.1-0.3-1.6-0.8c-0.4-0.5-0.7-1.1-0.7-1.8c0-1.6,1-3.1,3.1-4.5c1.5-1,2.7-1.5,3.6-1.5
			c0.9,0,1.3,0.5,1.3,1.4c0,1.2-0.6,2.6-1.9,4.2c0.2,0.1,0.4,0.2,0.7,0.2c0.5,0,1-0.2,1.6-0.6c0.6-0.4,1.1-0.9,1.5-1.5
			C164.6,67.9,164.7,67.8,164.9,67.8C164.8,67.8,164.8,67.8,164.9,67.8L164.9,67.8L164.9,67.8z M162.4,65.8c0-0.8-0.4-1.2-1.1-1.2
			c-0.9,0-2.1,0.9-3.4,2.7c-1.3,1.8-2,3.3-2,4.5c0,0.7,0.3,1.1,1,1.1c1.1,0,2.3-0.9,3.6-2.7c-0.3-0.3-0.4-0.7-0.4-1
			c0-0.5,0.2-1,0.6-1.5c0.4-0.5,0.8-0.8,1.2-0.8c0.2,0,0.3,0.1,0.3,0.3C162.3,66.6,162.4,66.2,162.4,65.8L162.4,65.8L162.4,65.8z"/>
		<path id="_10" class="st1" d="M177.2,67.8c0,0.2-0.7,1.2-2.2,3c-1.2,1.5-2.2,2.2-2.9,2.2c-0.5,0-0.8-0.2-1.2-0.5
			c-0.3-0.4-0.5-0.8-0.5-1.3c0-0.5,0.1-0.9,0.3-1.3c0.2-0.4,0.7-1.2,1.5-2.3c0.8-1.2,1.2-2,1.2-2.3c0-0.4-0.2-0.6-0.7-0.6
			c-1.5,0-3.8,2.8-6.9,8.3c-0.5,0-0.8-0.1-0.9-0.1c-0.4,0-0.7,0-1,0.1l2.4-3.8c1.4-2.2,2-3.5,2-4.1c0-0.3-0.1-0.5-0.4-0.5
			c-0.5,0-1.5,1.1-3.1,3.3c-0.1,0.1-0.2,0.2-0.2,0.2c-0.1,0-0.1,0-0.1-0.1c0-0.1,0-0.1,0.1-0.1l0.3-0.4c1.6-2.1,2.6-3.2,3.1-3.2
			c0.4,0,0.6,0.2,0.9,0.5c0.2,0.3,0.4,0.7,0.4,1.1c0,0.7-0.4,1.6-1.1,2.7c1.2-1.7,2.1-2.8,2.8-3.4c0.7-0.6,1.2-0.9,1.8-0.9
			c0.4,0,0.8,0.2,1.1,0.6c0.3,0.4,0.5,0.8,0.5,1.4c0,0.7-0.5,1.7-1.4,3.1c-1,1.4-1.4,2.4-1.4,2.8c0,0.4,0.2,0.6,0.6,0.6
			c0.9,0,2.5-1.6,4.7-4.9c0.1-0.1,0.1-0.2,0.1-0.2C177.1,67.7,177.1,67.8,177.2,67.8L177.2,67.8L177.2,67.8z"/>
		<path id="_11" class="st1" d="M187.9,67.8c0,0.2-0.7,1.2-2.2,3c-1.2,1.5-2.1,2.2-2.8,2.2c-0.5,0-0.8-0.2-1.1-0.5
			c-0.3-0.4-0.4-0.8-0.4-1.3c0-0.6,0.2-1.1,0.5-1.8c-1,1.4-1.8,2.4-2.3,2.9c-0.5,0.5-1.1,0.8-1.6,0.8c-0.5,0-1-0.2-1.4-0.7
			c-0.4-0.5-0.6-1.1-0.6-1.8c0-2,1.4-3.7,4.2-5.2c1.2-0.7,2.2-1,2.9-1c0.6,0,1,0.3,1,0.9c0,0.2,0,0.4-0.1,0.7l0.8-1.5
			c0.3,0.1,0.6,0.1,0.8,0.1c0.3,0,0.6,0,1.1-0.1l-2.7,4.5c-0.9,1.6-1.4,2.6-1.4,3.1c0,0.5,0.2,0.7,0.6,0.7c0.4,0,1.1-0.5,2-1.4
			c0.9-0.9,1.8-2.1,2.7-3.5C187.7,67.8,187.8,67.7,187.9,67.8C187.9,67.7,187.9,67.8,187.9,67.8L187.9,67.8L187.9,67.8z M183.7,65.3
			c0-0.5-0.2-0.8-0.7-0.8c-0.9,0-2.2,0.9-3.7,2.8c-1.5,1.8-2.3,3.3-2.3,4.5c0,0.7,0.3,1,0.9,1c0.7,0,1.9-1.2,3.7-3.5
			C183,67.3,183.7,66,183.7,65.3L183.7,65.3L183.7,65.3z"/>
		<path id="_12" class="st1" d="M193,61.5c0,0.4-0.1,0.7-0.5,1c-0.3,0.3-0.6,0.5-1,0.5c-0.5,0-0.7-0.2-0.7-0.7c0-0.3,0.2-0.7,0.5-1
			c0.3-0.3,0.7-0.5,1-0.5C192.8,60.8,193,61.1,193,61.5C193,61.5,193,61.5,193,61.5z M193.2,67.8c0,0-0.1,0.1-0.2,0.2l-0.7,0.9
			c-1.9,2.7-3.4,4-4.4,4c-0.5,0-0.9-0.2-1.2-0.5c-0.3-0.3-0.5-0.8-0.5-1.3c0-0.6,0.4-1.5,1.1-2.7l2.4-4.1c0.3,0.1,0.6,0.1,0.7,0.1
			c0.3,0,0.7,0,1.2-0.1l-3.5,5.7c-0.5,0.8-0.8,1.5-0.8,1.9c0,0.5,0.2,0.7,0.7,0.7c0.9,0,2.5-1.6,4.8-4.9c0.1-0.1,0.1-0.2,0.1-0.2
			C193.2,67.7,193.2,67.7,193.2,67.8L193.2,67.8z"/>
		<path id="_13" class="st1" d="M202,67.9c0,0.1-0.3,0.5-0.9,1.1c-0.8,0.9-1.5,1.3-2.2,1.3c-0.8,0-1.2-0.4-1.2-1.4
			c0-0.3,0.1-0.7,0.2-1.1c-0.6,0.6-1.2,1.1-1.6,1.7c-0.4,0.6-1.1,1.7-2.1,3.4c-0.5,0-0.9-0.1-1-0.1c0,0-0.4,0-0.9,0.1l2.5-4.1
			c1.3-2.1,1.9-3.3,1.9-3.8c0-0.3-0.1-0.4-0.4-0.4c-0.6,0-1.6,1.1-3.1,3.3c-0.1,0.1-0.2,0.2-0.2,0.2c0,0-0.1,0-0.1-0.1
			c0-0.1,0-0.1,0.1-0.1l0.3-0.4c1.6-2.1,2.6-3.2,3.2-3.2c0.8,0,1.2,0.5,1.2,1.6c0,0.8-0.4,1.8-1.3,3.1c0.5-0.6,1-1.1,1.5-1.5
			c0.4-0.9,0.9-1.7,1.4-2.3c0.6-0.6,1.1-0.9,1.6-0.9c0.3,0,0.5,0.1,0.5,0.4c0,0.5-0.7,1.2-2.1,2.1c-0.2,0.1-0.6,0.4-1,0.6l-0.2,0.2
			c-0.1,0.5-0.2,0.9-0.2,1.2c0,0.9,0.3,1.3,1,1.3c0.8,0,1.7-0.7,2.6-2c0.2-0.2,0.3-0.3,0.4-0.3C202,67.8,202,67.8,202,67.9L202,67.9
			L202,67.9z"/>
		<path id="_14" class="st1" d="M209.7,67.9c0,0-0.1,0.2-0.3,0.4l-0.7,0.8c-2.1,2.6-3.9,3.9-5.4,3.9c-0.7,0-1.3-0.3-1.8-0.8
			c-0.5-0.5-0.7-1.2-0.7-1.9c0-1.8,1.3-3.5,3.8-4.9c1.4-0.7,2.4-1.1,3.3-1.1c0.4,0,0.7,0.1,0.9,0.3c0.3,0.2,0.4,0.5,0.4,0.8
			c0,0.7-0.5,1.4-1.4,1.9c-1,0.5-2.6,1-4.8,1.4c-0.7,1.1-1,1.9-1,2.6c0,0.9,0.5,1.3,1.4,1.3c1.6,0,3.6-1.6,5.9-4.7
			C209.4,67.9,209.5,67.8,209.7,67.9C209.7,67.8,209.7,67.8,209.7,67.9L209.7,67.9L209.7,67.9z M208.4,65c0-0.3-0.2-0.5-0.5-0.5
			c-0.5,0-1.3,0.4-2.1,1.1c-0.9,0.7-1.8,1.7-2.6,2.9c1.5-0.4,2.7-0.9,3.7-1.6C207.9,66.3,208.4,65.6,208.4,65L208.4,65L208.4,65z"/>
		<path id="_15" class="st1" d="M142.6,87.4c0,0.7-0.5,1.4-1.4,2.1c0.8,1.2,1.3,2.4,1.3,3.4c0,0.3-0.1,0.4-0.2,0.4
			c-0.1,0-0.2-0.2-0.2-0.5c0-1-0.4-2.1-1.1-3.1c-1.5,1.1-3.5,2.1-6,2.9c-2.5,0.8-4.8,1.2-6.8,1.2c-0.3,0-0.5,0-0.7,0
			c-1.6,2.3-2.4,4.5-2.4,6.6c0,1.4,0.4,2.6,1.3,3.4c0.9,0.8,2.1,1.3,3.7,1.3c2.9,0,5.5-1.4,7.8-4.2c1.4-1.7,2.1-3.3,2.1-4.8
			c0-0.8-0.2-1.4-0.7-1.9c-0.5-0.5-1.1-0.7-1.9-0.7c-1.3,0-2.6,0.7-4.1,2c-1.5,1.3-2.2,2.6-2.2,3.8c0,0.1,0,0.1,0.1,0.1
			c0.1,0,0.1,0,0.1-0.1c0.3-0.2,0.5-0.4,0.8-0.4c0.5,0,0.8,0.3,0.8,0.8c0,0.8-0.4,1.1-1.1,1.1c-0.7,0-1-0.4-1-1.2
			c0-1.5,0.7-2.9,2.2-4.4c1.5-1.4,3-2.1,4.5-2.1c2,0,2.9,1.1,2.9,3.2c0,2.2-1.1,4.3-3.2,6.1c-2.1,1.8-4.5,2.8-7.1,2.8
			c-1.8,0-3.3-0.6-4.6-1.8c-1.2-1.2-1.8-2.7-1.8-4.5c0-1.7,0.6-3.5,1.8-5.4c-4.4-0.8-6.6-2.6-6.6-5.2c0-1.6,0.8-2.9,2.5-4
			c1.7-1.1,3.7-1.6,6.2-1.6c3.4,0,6.9,1.1,10.4,3.4c0.6-0.1,1.2-0.2,1.9-0.2C141.6,85.9,142.6,86.4,142.6,87.4z M142.4,87.4
			c0-0.8-0.8-1.3-2.5-1.3c-0.5,0-1.1,0.1-1.8,0.2c1.2,0.8,2.2,1.8,3,2.9C142,88.6,142.4,88,142.4,87.4
			C142.4,87.4,142.4,87.4,142.4,87.4z M140.9,89.5c-0.8-1.1-1.8-2.1-3.2-3c-1.9,0.5-3.8,1.4-5.6,2.7c-1.8,1.3-3.3,2.7-4.5,4.4
			c2.1,0,4.5-0.4,7.1-1.2C137.3,91.5,139.4,90.6,140.9,89.5C140.9,89.5,140.9,89.5,140.9,89.5z M137.3,86.2
			c-3.1-1.8-6.4-2.7-9.9-2.7c-2.2,0-4.1,0.5-5.7,1.5c-1.6,1-2.4,2.2-2.4,3.6c0,2.4,2.1,4,6.2,4.7C128,89.8,132,87.4,137.3,86.2z"/>
		<path id="_16" class="st1" d="M149.1,88.8c-4.3,7.2-6.8,11.4-7.5,12.6c-0.7,1.3-1.1,2.1-1.1,2.5c0,0.5,0.2,0.7,0.6,0.7
			c0.9,0,2.4-1.6,4.7-4.9c0.1-0.1,0.1-0.2,0.2-0.2c0,0,0.1,0,0.1,0.1c0,0.1-0.1,0.1-0.2,0.2l-0.7,0.9c-1.9,2.7-3.4,4-4.3,4
			c-0.4,0-0.8-0.2-1.1-0.5c-0.3-0.3-0.4-0.8-0.4-1.3c0-0.6,0.1-1.1,0.4-1.6c0.3-0.5,1.1-2,2.7-4.6c1.8-3.1,3.4-5.7,4.7-8
			c0.3,0.1,0.6,0.1,0.8,0.1C148.5,89,148.8,88.9,149.1,88.8L149.1,88.8L149.1,88.8z"/>
		<path id="_17" class="st1" d="M155.9,99.6c0,0.2-0.7,1.2-2.2,3c-1.2,1.5-2.2,2.2-2.9,2.2c-0.4,0-0.8-0.2-1.1-0.5
			c-0.3-0.4-0.5-0.8-0.5-1.3c0-0.4,0.2-1,0.6-1.7l-0.3,0.4c-0.9,1.2-1.6,2-2.1,2.4c-0.5,0.5-0.9,0.7-1.4,0.7c-0.4,0-0.8-0.2-1.1-0.5
			c-0.3-0.4-0.5-0.8-0.5-1.3c0-0.6,0.2-1.3,0.7-2l2.8-4.7c0.3,0.1,0.6,0.1,0.8,0.1c0.2,0,0.5,0,1-0.1l-3.6,6
			c-0.4,0.6-0.6,1.1-0.6,1.6c0,0.5,0.2,0.7,0.6,0.7c1,0,2.7-1.9,5-5.8l1.5-2.5c0.3,0.1,0.6,0.1,0.8,0.1c0.3,0,0.6,0,1.1-0.1l-2.5,4
			c-1.2,1.9-1.8,3.1-1.8,3.7c0,0.4,0.2,0.7,0.6,0.7c0.8,0,2.1-1.3,4-3.9l0.5-0.7l0.3-0.3C155.8,99.6,155.8,99.6,155.9,99.6
			C155.9,99.6,155.9,99.6,155.9,99.6L155.9,99.6L155.9,99.6z"/>
		<path id="_18" class="st1" d="M164.2,89l-6.9,10.9c1.1-1.5,1.9-2.5,2.4-3c0.5-0.5,1-0.7,1.5-0.7c0.6,0,1,0.2,1.4,0.7
			c0.4,0.5,0.5,1.1,0.5,1.8c0,1.5-1,3.1-2.9,4.5c-1.5,1.1-2.8,1.7-3.9,1.7c-0.5,0-1-0.2-1.3-0.6c-0.3-0.4-0.5-0.9-0.5-1.6
			c0-0.8,0.5-1.9,1.5-3.5l6.3-10.2c0.3,0.1,0.6,0.1,0.9,0.1C163.5,89.1,163.8,89.1,164.2,89L164.2,89z M162.1,97.4
			c0-0.7-0.3-1-0.9-1c-0.7,0-2,1.2-3.8,3.7c-1.3,1.8-2,3.1-2,3.7c0,0.5,0.3,0.8,0.8,0.8c0.9,0,2.1-0.9,3.6-2.8
			C161.3,100,162.1,98.5,162.1,97.4L162.1,97.4L162.1,97.4z"/>
	</g>
</g>
</svg>
