<?xml version="1.0" encoding="utf-8"?>
<!-- Generator: Adobe Illustrator 26.0.1, SVG Export Plug-In . SVG Version: 6.00 Build 0)  -->
<svg version="1.1" id="Слой_1" xmlns:xodm="http://www.corel.com/coreldraw/odm/2003"
	 xmlns="http://www.w3.org/2000/svg" xmlns:xlink="http://www.w3.org/1999/xlink" x="0px" y="0px" viewBox="0 0 238.1 150.2"
	 style="enable-background:new 0 0 238.1 150.2;" xml:space="preserve">
<g id="Слой_x0020_1">
	<path d="M232.6,146.5c-75.9,0-151.7,0-227.5,0c0-47.5,0-95,0-142.7c0.3,0,0.7,0,1,0c37.6,0,75.4,0,113,0c1.5,0,3.2-0.1,4.7-0.1
		c1.6,0,3.4,0,4.9,0c34.4,0,68.8,0,103.2,0c1,0,1,0,1,1c0,6.6,0,13.4,0,20.1c0,2.8,0,5.5,0,8.3c0,3,0,5.9,0,8.8
		c0,3.3,0.1,6.3,0.1,9.6c0,1.9-0.1,3.9-0.1,5.8c0,2.9,0,5.8,0,8.6c0,6.8,0,13.7,0,20.5c0,19.8-0.1,39.6-0.1,59.4
		C232.6,146,232.6,146.3,232.6,146.5L232.6,146.5z M90.8,64.9c-1.5-0.6-1.3-2-0.7-3c0.3-0.4,0.7-0.3,1,0.2c0.4,0.6,0.8,1.2,0.4,1.8
		C91.3,64.3,91,64.6,90.8,64.9z M148,67.6c-0.3,0.6-0.7,1.1-1.1,1.5c-0.2,0.3-0.9-0.1-1.2-0.6c-0.4-0.7,0-2,1-2.4
		C147.5,66.2,147.9,66.7,148,67.6z M115.1,64.3c-0.2,0.5-0.4,1.1-0.6,1.5c-0.3,0.5-0.8,0.5-1.1,0.2c-0.3-0.4-0.6-0.9-0.6-1.3
		c0-0.7,0.5-1.3,1.2-1.6C114.5,62.7,115.1,63.2,115.1,64.3z M106.2,72.5c-0.7,1.2-1.2,2.4-1.9,3.6c-0.8,1.2-1.9,2-3.3,2.3
		c-1.1,0.3-2.4-0.4-3.2-1.6c-0.8-1.3-1.2-2.9-1.2-4.4c0-0.4-0.1-0.8-0.3-1.2c-0.3,1-0.7,2-1,3.1c-0.4,1.5-0.9,3.2-1.7,4.5
		c-0.5,0.8-1,1.5-1.5,2.1c-0.7,0.7-1.7,0.3-1.9-0.7s-0.3-1.9-0.5-2.9c-0.1-1-0.3-2-0.4-3.2c-0.1,0.3-0.2,0.6-0.3,0.9
		c-0.6,1.5-1.2,3.1-1.8,4.5c-0.3,0.5-0.8,1-1.3,1.2c-0.5,0.2-1.1-0.1-1.3-0.7c-0.6-1.2-1-2.3-1-3.6c-0.1-3-0.4-5.8-0.6-8.7
		c-0.4,0.9-0.8,1.7-1.2,2.7c-0.5,1.2-0.9,2.4-1.3,3.6c-0.3,0.8-0.5,1.5-0.9,2.2c-0.1,0.3-0.5,0.5-0.7,0.7c-0.2-0.2-0.4-0.5-0.5-0.7
		c-0.2-1.2-0.4-2.3-0.4-3.5c-0.2-3-0.3-5.8-0.4-8.7c-0.1-3.1-0.1-6-0.2-9c0-0.3-0.1-0.6-0.3-0.8c-0.5,2-1,4-1.5,6
		c-0.6,2.2-1.2,4.4-1.9,6.5c-0.8,2.6-1.7,5.1-2.6,7.6c-1.1,2.9-2.2,5.8-3.4,8.6c-0.7,1.7-1.4,3.4-2.1,4.9c-1.1,2.4-2.2,4.8-3.4,7.2
		c-0.9,1.6-1.7,3.3-2.7,4.8c-0.1,0.2-0.5,0.3-0.7,0.5c-0.1-0.3-0.3-0.7-0.2-0.9c0.5-1.1,1.1-2.2,1.5-3.3c0.6-1.2,1.2-2.2,1.7-3.4
		c0.8-1.6,1.6-3.4,2.4-4.9c0.8-1.6,1.4-3.3,2.1-4.8c0.8-1.8,1.5-3.6,2.2-5.4c0.3-0.8,0.6-1.4,0.9-2.2c0.7-2,1.4-4.1,2.1-6.1
		c0.8-2.3,1.3-4.6,2-6.9c0.4-1.3,0.9-2.7,1.2-4c0.4-1.6,0.8-3.2,1.2-4.7c0.4-1.6,0.8-3.3,1-4.8c0.3-1.8,0.5-3.7,0.7-5.6
		c0.2-2.3,0.4-4.7,0.6-6.9c0.1-1,0.4-2,0.4-3c-0.1-1.8,0.4-3.6,0.6-5.2c0.2-1.2,0.5-2.5,0.7-3.7c0.2-1.1,0.3-2.1,0.5-3.2
		c0.1-0.4,0.1-0.8,0.6-0.6c0.4,0.1,0.8,0.3,0.6,1c-0.2,0.8-0.1,1.6-0.2,2.5c-0.2,2.6-0.4,5-0.6,7.6c-0.2,2.1-0.5,4.2-0.7,6.2
		c-0.2,1.2-0.4,2.4-0.6,3.6c-0.2,1.5-0.5,3-0.7,4.5c-0.7,4.7-0.4,9.5-0.4,14.2c0,1.9,0.1,3.7,0.1,5.6c0.1,1.7,0.2,3.6,0.3,5.2
		c0.1,0.8,0.2,1.5,0.3,2.4c0.6-1.3,1.2-2.6,1.6-3.8c0.8-2,1.5-4.1,2.3-6c0.1-0.3,0.5-0.6,0.8-0.6c0.5,0,0.5,0.5,0.5,0.9
		c0,3.2,0.1,6.2,0.2,9.4c0.1,1.7,0.2,3.6,0.4,5.2c0.1,0.8,0.5,0.9,1.1,0.4c1.1-1,1.5-2.2,1.9-3.6c0.4-1.4,0.7-3,1.1-4.4
		c0.2-0.8,0.4-1.5,0.5-2.4c0.1-0.4,0.3-0.6,0.7-0.5c0.2,0.1,0.5,0.4,0.5,0.6C91,71.9,91,75,91,78c0,0.4,0.1,0.7,0.1,1.1
		c0.1,0.2,0.2,0.6,0.4,0.6c0.3,0,0.7-0.1,0.8-0.3c0.4-0.7,0.7-1.3,1-2.1c1-2.7,2-5.2,2.5-8c0.3-1.6,0.5-3.3,0.6-4.8
		c0.2-2,0.4-4.1,0.5-6c0.1-1.4,0.2-3,0.4-4.4s0.4-3,0.5-4.4c0.1-0.9,0.2-1.8,0.3-2.7c0.1-0.8,0.2-1.4,0.3-2.2
		c0.1-0.2,0.4-0.4,0.6-0.6c0.2,0.2,0.5,0.4,0.5,0.6c-0.1,0.8-0.2,1.5-0.3,2.3c0,0.1-0.1,0.2-0.1,0.3c0,0.8,0,1.5,0,2.2
		c-0.1,2.2-0.3,4.5-0.4,6.6c-0.1,1.7-0.4,3.4-0.6,4.9c-0.2,1.9-0.2,3.7-0.3,5.6c0,1.5,0,3.1,0,4.6c0,1.7,0.4,3.4,1.2,4.8
		c0.8,1.4,2.2,1.5,3.4,0.6c1.7-1.5,2.6-3.6,3.1-5.8c0.3-1.6,0.6-3.3,0.7-4.8c0.2-2.2,0.2-4.4,0.3-6.5c0.1-2.7,0.3-5.4,0.5-8.1
		c0-0.3,0.4-0.8,0.6-0.8c0.4,0,0.5,0.4,0.5,0.9c0,1.3,0,2.8,0,4.1c-0.1,3-0.3,5.9-0.4,8.7c0,1.1,0,2.1,0,3.2c0,0.6,0,1.2,0,1.8
		c0.1,1.3,0.3,2.8,0.3,4.1c0,0.9,0.2,1.5,0.5,2.3c0.3,0.7,0.7,0.8,1.3,0.3c1-0.7,1.3-1.8,1.8-2.8c0.7-1.3,1.3-2.8,2-4.2
		c0.2-0.3,0.6-0.5,0.9-0.8c0.2,0.3,0.4,0.7,0.5,1c0.2,1.3,0.3,2.8,0.7,4.1c0.3,1.3,1.9,2.1,3.2,1.5c0.2-0.1,0.4-0.3,0.5-0.5
		c0.6-2.5,0.7-3,2.1-4.4c0.4,0.5,0.7,0.3,1.1-0.1c0.4-0.5,0.9-1,1.3-1.2c0.4-0.2,1.6,0.3,2,0.9c0.1,0.3,0.3,0.5,0.6,0.8
		c0.3-0.5,0.5-0.9,0.7-1.2c0.2-0.3,0.5-0.5,0.8-0.7c0.1,0.1,0.1,0.1,0.2,0.2c-0.1,1-0.1,1.9-0.2,2.9c0,1.1,0.5,1.5,1.3,1.4
		c0.1,0,0.3-0.1,0.4-0.2c1.2-0.8,1.8-1.9,2.4-3.3c0.1-0.3,0.3-0.7,0.5-1c0.1-0.1,0.4-0.3,0.5-0.3c0.1,0,0.4,0.3,0.3,0.5
		c0,0.6-0.1,1.1-0.2,1.6c-0.2,1.2-0.6,2.5-0.7,3.8c-0.1,0.7,0,1.3,0.1,2c0.1,0.5,1.1,1,1.5,0.7c1.2-0.7,2.2-1.4,3-2.7
		c0.6-1,1.4-1.8,2.6-2c0.7-0.1,1.4-0.1,2,0.5c0.9,0.7,0.4,1.3,0.3,2c0,0.5-0.2,1.1-0.2,1.5c0,0.3,0.1,0.7,0.3,0.8
		c0.2,0.1,0.6,0,0.8-0.2c1-1.2,1.9-2.3,2.8-3.6c0.4-0.6,0.6-1.2,0.9-1.8c0.1-0.1,0.4-0.3,0.5-0.3c0.2,0.1,0.4,0.4,0.3,0.5
		c-0.1,0.8-0.3,1.4-0.5,2.1c-0.1,0.6-0.1,1.2-0.1,1.8c0,0.3,0.3,0.8,0.6,0.9c0.4,0.1,0.9,0,1.2-0.3c1-1,1.8-1.9,2.6-3
		c0.3-0.3,0.5-0.8,0-1.2c-0.5-0.4-0.3-1-0.1-1.3c0.2-0.3,0.7-0.8,1.1-0.9c0.3-0.1,1,0,1.2,0.3c0.2,0.5,0.2,1.1,0.1,1.5
		c0.8,0.9,1.8-0.3,2.8,0.3c-0.3,0.4-0.5,0.8-0.8,1.2c-0.4,0.8-0.9,1.4-1.2,2.2c-0.3,0.6-0.1,0.9,0.6,0.9c0.6,0,1.2-0.2,1.7-0.3
		c0.2,0,0.3-0.3,0.4-0.5c0.4-1,0.7-1.9,1.2-2.9c0.4-0.8,1-1.3,1.5-2c0.3-0.4,0.6-0.2,0.9,0.1c0.9,1.1,0.7,2.3-0.2,3.2
		c-0.7,0.7-1.4,1.2-2.1,1.8c-0.2,0.1-0.2,0.4-0.4,0.6c1.1,0.1,1.9-0.5,2.6-1.1c1-0.9,1.7-1.8,2.6-2.9c0.3-0.3,0.4-0.9,0.6-1.2
		c0.2-0.3,0.6-0.5,1-0.8c0.1,0.4,0.3,0.7,0.3,1.1c0,0.7-0.2,1.3-0.2,2c0,1.2-0.5,2.1-1.3,2.9c-0.4,0.3-0.3,0.4,0,0.7
		c1,0.8,1.9,0.6,2.9,0.1c1.5-0.7,2.9-1.6,3.9-2.9c0.1-0.1,0.2-0.1,0.3-0.1c-0.4,1.1-1.1,1.8-1.9,2.6s-2,1.2-3.1,1.6
		c-1.1,0.4-3-0.2-3.6-1.2c-0.4-0.6-0.2-1.1,0.5-1.4c1-0.5,1.3-1.2,1.2-2.2c-0.8,0.7-1.4,1.4-2.2,2c-1,0.7-2.1,1.3-3.2,1.9
		c-0.4,0.2-0.9,0.1-1.1-0.4c-0.2-0.4-0.4-0.5-0.8-0.3c-0.5,0.2-1.1,0.3-1.5,0.4c-0.6,0.1-1.2,0-1.5-0.6c-0.2-0.4-0.2-1,0-1.4
		c0.3-0.8,0.7-1.4,1.1-2.3c-0.9,0-1.5-0.2-2.1,0.8c-1,1.6-2.3,3.1-4.1,3.9c-1,0.5-2-0.1-2.2-1.2c-0.1-0.4-0.2-0.8-0.3-1.2
		c-0.4,0.5-0.8,1-1.2,1.3c-0.4,0.5-0.8,0.9-1.2,1.2c-0.8,0.7-1.8,0.5-2.4-0.4c-0.1-0.2-0.2-0.4-0.4-0.7c-0.3,0.2-0.6,0.4-0.8,0.7
		c-0.6,0.6-1.3,0.8-2.1,0.5c-0.3-0.1-0.5-0.6-0.7-0.9c-0.1-0.2-0.2-0.6-0.3-0.8c-0.8,0.6-1.6,1.1-2.4,1.7c-1.3,1.2-3.1-0.2-3.2-1.8
		c0-1,0-1.9,0-3c-0.6,0.5-1.2,1-1.7,1.4c-1.1,0.8-2.1,0.4-2.5-1c-0.2-0.6-0.3-1.2-0.5-1.9c-0.2,0.5-0.4,0.8-0.5,1.2
		c-0.4,2-1.5,3.6-3,4.8c-1.2,1-3,1.2-3.7-0.8c-0.2-0.5-0.5-0.5-0.9-0.4c-1.1,0.2-2,0-2.9-0.9c-0.8-0.9-1-1.8-1.3-2.8
		c-0.1-0.3-0.2-0.5-0.4-0.9c-0.4,0.7-0.7,1.3-1,1.9c-0.9,1.3-1.5,2.8-2.9,3.6c-0.7,0.4-1,0.4-1.5-0.3c-0.8-1.1-1.2-2.2-1.2-3.6
		C106.3,73,106.2,72.7,106.2,72.5L106.2,72.5z M120.6,71.5c-0.8,1.2-1.3,2.5-1.3,3.9c0,1,0.4,1.3,1.2,1.3c1.5,0,2.7-1.1,3.1-2.9
		c-0.8,0.5-1.5,0.5-2-0.3C121.2,72.9,121,72.2,120.6,71.5L120.6,71.5z M139.3,72.9c-1.4-0.2-2.6,1.5-2.3,3.1
		c0.1,0.6,0.5,0.7,1.1,0.4c1.1-0.5,1.5-1.6,2-2.6C140.3,73.3,139.9,72.9,139.3,72.9z M124,72.3c0.6-1.1,0.3-1.9-0.4-2.5
		c-0.4-0.3-0.9,0-1.2,0.4c-0.4,0.6-0.7,1.9-0.3,2.3C122.8,73.2,123.5,72.4,124,72.3z M158.5,71.8c-0.5,0.9-1,1.7-1.4,2.6
		C158.2,74,158.6,73.2,158.5,71.8z M190.6,75.2c1.2,0.3,2.1-0.4,2.8-1.1c0.9-0.9,1.7-1.9,2.5-2.9c0.7-0.9,1.2-1.7,1.9-2.6
		c0.2-0.2,0.5-0.3,0.7-0.4c0.1,0.3,0.4,0.7,0.3,0.9c-0.4,0.9-0.9,1.7-1.2,2.7c-0.1,0.2-0.1,0.3-0.2,0.5c0.1,0.1,0.2,0.1,0.2,0.2
		c0.6-0.7,1.2-1.4,1.8-2.1c0.3-0.4,0.6-0.8,1-1.1c0.2-0.2,0.8-0.1,0.9,0c0.2,0.4,0.4,0.9,0.3,1.2c0,0.8-0.2,1.5-0.3,2.3
		c0.1,0.1,0.2,0.1,0.3,0.2c0.7-0.8,1.4-1.5,2.1-2.4c1.1-1.3,2.1-2.6,3.1-3.9c1.2-1.5,2.3-3.2,3.5-4.7c0.5-0.7,0.9-1.4,1.2-2.1
		c0.5-0.9,1.1-1.6,1.5-2.5c0.4-0.8,0.8-1.5,1.2-2.2c0.2-0.4,0.5-0.8,0.7-1.2c0.2-0.4,0.5-0.5,0.8-0.2c0.3,0.2,0.4,0.5,0.2,0.9
		c-0.7,1.2-1.2,2.3-1.9,3.5c-0.8,1.3-1.6,2.7-2.5,4c-1,1.4-1.8,3-2.8,4.4c-0.2,0.3-0.4,0.6-0.6,0.9c0.6,0.2,1.1,0.3,1.4,0.5
		c0.7,0.4,1,1,0.7,1.6c-0.3,0.7-0.7,1.3-1.1,2.1c0.4,0.1,0.8,0.7,1.2,0.1c0.1-0.1,0.2-0.1,0.3-0.1c1.4,0,3-0.2,4.4,0.1
		c1.2,0.2,2.3,0,3.4,0.3c1.2,0.3,2.3,0.1,3.4,0.8c0.5,0.3,1.3,0.3,1.8,0.7c0.3,0.2,0.6,0.6,0.6,0.9c0,0.4-0.3,1-0.6,1.1
		c-1.2,0.6-2.4,1.1-3.6,1.3c-1.3,0.4-2.8,0.7-4.1,1c-1.5,0.4-3.2,0.8-4.7,1.1c-1.4,0.3-2.8,0.5-4.2,0.7c-1.4,0.2-2.8,0.5-4.2,0.8
		c-1.2,0.2-2.6,0.4-3.8,0.6c-2.3,0.3-4.6,0.6-6.8,0.9c-2.5,0.3-5,0.4-7.5,0.8c-0.7,0.1-1.4,0.6-1.9,1.1c-1.4,1.3-2.7,2.9-4,4.2
		c-1.5,1.4-3.1,3-4.7,4.2c-1.4,1.2-3,2.2-4.6,3.1c-1.9,1-3.6-0.3-3.7-2.6c-0.1-1.8,0.4-3.5,1-5.1c0.3-1.1,0.7-2.1,1.1-3.2
		c-1.3,0.1-2.6,0.2-3.9,0.3c-1.1,0.1-2.1,0.3-3.2,0.4c-2.5,0.3-4.8,0.5-7.3,0.8c-1.8,0.2-3.6,0.6-5.2,0.9c-0.9,0.1-1.7,0.2-2.5,0.3
		c-2.5,0.3-4.8,0.6-7.3,0.9c-1.6,0.2-3.3,0.6-4.8,0.9c-1,0.2-2,0.2-3.1,0.3c-0.7,0.1-1.2,0.2-1.9,0.3c-2.5,0.4-5,0.8-7.5,1.2
		c-1.9,0.3-3.7,0.8-5.6,1.1c-2,0.4-4,0.7-6,1c-1,0.2-2,0.3-3,0.5c-1.3,0.3-2.6,0.6-3.8,0.9c-1.1,0.2-2.2,0.4-3.3,0.6
		c-1.2,0.2-2.6,0.5-3.8,0.7c-1.2,0.2-2.3,0.3-3.5,0.6c-2,0.5-4,1-6,1.4c-1.6,0.4-3.4,0.8-5,1.2c-1.7,0.4-3.6,0.8-5.2,1.2
		c-1.2,0.3-2.4,0.8-3.6,1.1c-1.7,0.5-3.4,1-5,1.5c-1.1,0.4-2.2,0.9-3.3,1.2c-0.1,0-0.2,0.2-0.2,0.2c-1,0-1.6,0.9-2.4,1.2
		c-0.3,0.2-0.4,0.6-0.5,1c1,0.8,1.9,1.2,3,1.3c0.7,0.1,1.3,0.3,2,0.5c0.5,0.1,1.1,0.3,1.5,0.4c1.2,0.2,2.6,0.4,3.8,0.6
		c2,0.3,3.9,0.6,5.9,0.9c0.9,0.1,1.8,0.2,2.7,0.3c1.4,0.2,2.9,0.4,4.3,0.6l0.1,0c1.5,0.1,3.1,0.2,4.6,0.3c1.5,0.1,3,0.4,4.5,0.6
		c1.5,0.2,3.1,0.2,4.6,0.3s3.1,0.4,4.6,0.6c0.3,0,0.6,0,0.9,0c2,0.2,4.1,0.3,6,0.5c0.7,0,1.2,0.1,1.9,0.1c1.9,0.1,3.8,0.2,5.7,0.3
		c1.5,0.1,3,0.2,4.5,0.3c2.2,0.2,4.3,0.4,6.4,0.6c0.2,0,0.4,0,0.7,0c2.1,0.1,4.1,0,6.1,0.4c1.3,0.2,2.7,0.1,4,0.2
		c2.7,0.2,5.2,0.4,7.9,0.6c1.2,0.1,2.4,0.2,3.6,0.3c2.6,0.3,5,0.6,7.6,0.9c0.8,0.1,1.6,0.2,2.4,0.3c0.6,0.1,1.2,0.3,1.9,0.6
		c-0.7,0-1.3,0-2.1,0c-1.1-0.1-2.2-0.2-3.3-0.3c-2.4-0.1-4.8-0.2-7.2-0.3c-1.6-0.1-3.2-0.2-4.7-0.3c-2.6-0.2-5.1-0.4-7.6-0.6
		c-1.3-0.1-2.7-0.1-4-0.2c-1.8-0.1-3.6-0.3-5.3-0.4c-0.4,0-0.8,0-1.2,0c-2.4-0.2-4.8-0.4-7.2-0.6c-1.2-0.1-2.3-0.1-3.5-0.2
		c-2.5-0.1-4.8-0.3-7.3-0.5c-1.2-0.1-2.5-0.2-3.6-0.3c-1.9-0.2-3.8-0.4-5.7-0.6c-1.4-0.1-2.8-0.2-4.2-0.3c-1.5-0.2-3.2-0.4-4.7-0.6
		c-0.3,0-0.5,0-0.8,0c-2-0.2-4-0.4-6-0.6c-1.1-0.1-2.2-0.2-3.3-0.3c-1.2-0.1-2.3-0.4-3.4-0.5c-0.9-0.1-1.7-0.2-2.6-0.3
		c-2.3-0.3-4.6-0.5-6.7-0.9c-2-0.4-3.9-1.1-5.8-1.7c-0.7-0.2-1.3-0.7-1.7-1.2c-0.6-0.8-0.2-1.9,0.7-2.4c1.3-0.8,2.8-1.5,4.1-2.3
		c0.5-0.2,1-0.2,1.4-0.4c0.5-0.2,1-0.5,1.4-0.6c1-0.3,1.9-0.6,2.9-0.9c0.8-0.2,1.6-0.5,2.4-0.8c1-0.3,1.9-0.5,2.9-0.8
		c1-0.3,1.8-0.6,2.7-0.8c0.6-0.2,1.2-0.2,1.7-0.4c0.4-0.1,0.8-0.2,1.2-0.3c1-0.2,1.9-0.4,2.8-0.6c1-0.3,2-0.6,3-0.8
		c0.7-0.2,1.3-0.2,1.9-0.4c0.9-0.2,1.6-0.4,2.5-0.6c0.5-0.1,1-0.2,1.4-0.3c0.7-0.1,1.4-0.2,2.1-0.4c0.6-0.1,1.2-0.2,1.8-0.3
		c1.8-0.4,3.6-0.8,5.5-1.2c0.9-0.2,1.6-0.2,2.5-0.3c1.2-0.2,2.3-0.5,3.5-0.7c1-0.2,2-0.3,3-0.5c0.8-0.1,1.6-0.4,2.4-0.5
		c1.5-0.3,3-0.5,4.5-0.7c0.5-0.1,1.1-0.2,1.5-0.3c0.7-0.1,1.3-0.2,2-0.3c0.5-0.1,0.9-0.2,1.3-0.3c1.6-0.3,3.3-0.6,4.8-0.9
		c1.2-0.2,2.2-0.3,3.4-0.5c0.6-0.1,1.2,0,1.7,0l0.1-0.1c0.2-0.1,0.5-0.4,0.7-0.4c2.4-0.3,4.7-0.6,7.1-0.9c1.4-0.2,2.9-0.4,4.4-0.6
		c1.7-0.3,3.5-0.6,5.2-0.9l0.1,0c1.2-0.1,2.4-0.2,3.6-0.3c1.1-0.1,2.1-0.4,3.2-0.5c0.9-0.1,1.7-0.3,2.5-0.3c1.2-0.1,2.4-0.2,3.6-0.3
		c1.5-0.1,3-0.2,4.5-0.4c0.4,0,0.8-0.3,1-0.9c0.8-2.2,1.6-4.4,2.6-6.4c0.7-1.6,1.3-3.2,2.1-4.7c0.8-1.6,1.5-3.2,2.4-4.7
		c0.6-1.2,1.2-2.5,1.8-3.6c0.8-1.4,1.6-2.9,2.4-4.2c0.8-1.2,1.4-2.6,2.2-3.8c1.2-1.9,2.3-3.7,3.6-5.6c1.2-1.8,2.4-3.7,3.6-5.5
		c0.9-1.2,1.7-2.4,2.6-3.6c1.2-1.6,2.3-3.3,3.6-4.8c1-1.2,2-2.4,3-3.6c1.5-2,3.3-3.9,5.1-5.6c0.9-0.9,1.7-1.7,2.8-2.5
		c0.6-0.5,1.3-0.7,2-1c0.7-0.2,1.6,0.7,1.7,1.4c0.2,1.6-0.5,3.1-1,4.6c-0.7,2-1.3,4-2.2,6c-0.8,1.8-1.6,3.6-2.4,5.3
		c-0.7,1.3-1.2,2.8-1.9,4.1c-0.5,1-1.1,1.9-1.5,2.9c-0.6,1.2-1.2,2.3-1.8,3.5c-1.1,2-2.2,4-3.3,6c-0.9,1.6-1.6,3.2-2.5,4.7
		c-0.1,0.2-0.1,0.3-0.2,0.5c-0.3,0.4-0.6,0.6-1,0.3c-0.3-0.3-0.6-0.7-0.3-1.1c0.8-1.4,1.5-2.8,2.3-4.2c0.5-1,1-1.9,1.5-2.9
		c1.1-1.8,2.1-3.7,3.1-5.5c0.5-1,1-2,1.4-3c0.3-0.5,0.6-1,0.9-1.5c0.9-1.8,1.6-3.7,2.5-5.6c0.7-1.5,1.3-3.1,2-4.6
		c0.4-0.9,0.7-1.8,1.1-2.8c0.5-1.2,1-2.2,1.2-3.4c0.3-0.9,1-1.7,0.7-2.7c0-0.2-0.1-0.4-0.2-0.7c-0.2,0.1-0.4,0.2-0.5,0.3
		c-1.9,1.3-3.6,3.1-5,4.8c-1.5,1.7-3.2,3.4-4.6,5c-1.6,2-3.2,4-4.7,6c-1.2,1.6-2.4,3.3-3.6,4.9c-0.9,1.2-1.7,2.6-2.6,3.9
		c-1.2,1.7-2.2,3.5-3.3,5.1c-0.8,1.2-1.4,2.5-2.1,3.7c-1.3,2.4-2.6,4.7-3.9,7.2c-0.7,1.2-1.2,2.5-1.9,3.7c-0.7,1.4-1.4,2.9-2.1,4.4
		c-1.2,2.6-2.2,5.2-3.4,7.8c-0.2,0.5-0.4,0.9-0.6,1.3c-0.1,0.2-0.1,0.5,0,0.6c0.1,0.1,0.4,0.1,0.6,0c0.4-0.1,0.7-0.2,1.1-0.2
		c1.6-0.2,3.3-0.4,4.8-0.6c0.1,0,0.1,0,0.2,0c1.5-0.1,3.2-0.2,4.7-0.3c1.2-0.1,2-0.7,2.8-1.6c0.9-1.2,1.9-2.2,2.8-3.4
		c1.2-1.4,2.3-3.1,3.4-4.6c0.9-1.2,1.8-2.5,2.6-3.8c0.9-1.4,1.7-3,2.6-4.4c0.2-0.3,0.6-0.6,1-0.8c0.1-0.1,0.5,0.1,0.5,0.2
		c0.1,0.4,0.2,0.8,0,1.1c-0.5,1-1.1,1.9-1.6,2.9c-1.1,1.5-2.1,3.2-3.1,4.7c-0.4,0.6-0.9,1.2-1.2,1.8
		C190.6,73.9,190.7,74.5,190.6,75.2L190.6,75.2z M222.3,74.4c0-0.1,0-0.2,0-0.2c-0.6-0.2-1.2-0.3-1.7-0.5c-1.5-0.3-3.1-0.8-4.7-0.6
		c0,0,0,0-0.1,0c-1.6,0-3.4,0-4.9,0.1c-1.5,0.1-3.1,0.3-4.6,0.5c-0.6,0-0.9-0.2-0.9-0.9c-0.1-1.2,0.5-2.1,1.1-3
		c0.1-0.2,0.7-0.2,0.9-0.1c0.2,0.1,0.4,0.5,0.1,0.8c-0.3,0.4-0.5,0.9-0.7,1.2c0.1,0,0.1,0.1,0.2,0.1c0.9-1,1.7-1.7,2-3.1
		c-1.2-0.4-2-0.1-2.8,0.7c-0.6,0.6-1.1,1.3-1.6,1.9c-0.8,0.9-1.6,1.6-2.6,2.4c-0.3,0.3-1,0.3-1.3,0.2c-0.3-0.1-0.4-0.8-0.5-1.2
		c-0.1-0.3,0-0.7,0-1.2c-1,0.9-1.8,1.6-2.7,2.4c-0.5,0.5-0.9,0.4-1.2-0.1c-0.3-0.3-0.5-0.4-0.9,0c-0.3,0.4-0.7,0.8-1.1,1.1
		c-0.9,0.5-1.6,1-2.6,1.2c-1.1,0.3-1.9-0.1-2.5-1.2c-1.5,1.9-3,3.6-4.5,5.4c0,0.1,0.1,0.1,0.1,0.2c1-0.1,2-0.3,3-0.4
		c1.5-0.1,3.1-0.2,4.6-0.3c0.1,0,0.1,0,0.2,0c1.1-0.2,2-0.4,3.1-0.6c1.2-0.2,2.4-0.2,3.6-0.3l0.1,0c1-0.2,1.9-0.4,2.9-0.6
		c0.2,0,0.4,0,0.7,0c0.9-0.2,1.7-0.4,2.7-0.6c0.9-0.1,1.7-0.2,2.6-0.3c0.1,0,0.2-0.1,0.3-0.1c0.6-0.2,1.2-0.4,1.7-0.5
		c0.9-0.2,1.6-0.2,2.5-0.3c0.5-0.1,1-0.2,1.4-0.3c0.6-0.2,1.1-0.4,1.6-0.5c0.6-0.1,1.1-0.2,1.6-0.3c1.1-0.3,2.1-0.6,3.3-0.9
		C221.1,74.8,221.7,74.6,222.3,74.4L222.3,74.4z M181.1,82.7c0-0.1-0.1-0.1-0.1-0.2c-0.7,0-1.4,0.1-2.1,0.1
		c-1.2,0.1-2.5,0.2-3.6,0.3c-1.7,0.2-3.5,0.4-5.2,0.6c-0.7,0-1,0.3-1.2,0.9c-0.5,1.9-1.1,3.7-1.4,5.6c-0.2,0.8-0.1,1.7-0.1,2.5
		c0,0.6,0.6,0.9,1,0.8c0.6-0.1,1.1-0.4,1.5-0.7c1.5-1.1,3.1-2.1,4.5-3.3c1.6-1.4,3.3-3.1,4.7-4.6C180,84.1,180.6,83.4,181.1,82.7z
		 M17.5,10.4c0.2,3.5-3.1,6.6-6.3,6.5c0-2.2,0-4.3,0-6.5C13.3,10.4,15.4,10.4,17.5,10.4z M219.9,140.3c0.6-4,2.6-6.2,6.5-6.6
		c0,2.2,0,4.4,0,6.6C224.3,140.3,222.1,140.3,219.9,140.3z M17.5,140.3c-2.2,0-4.3,0-6.4,0c0-2.2,0-4.5,0-6.6
		C14.1,133.4,17.7,136.4,17.5,140.3z M226.4,10.2c0,2.4,0,4.6,0,6.8c-1.3-0.1-2.5-0.5-3.6-1.2c-1.8-1.2-2.7-3.1-2.9-5.1
		c0-0.2,0.3-0.5,0.4-0.5C222.4,10.1,224.4,10.2,226.4,10.2z M11.2,131.3c0-0.4,0-0.7,0-1c0-16.1,0-32.3,0-48.4c0-20.6,0-41.3,0-61.8
		c0-0.6,0.1-1,0.7-1.2c0.2-0.1,0.5,0.1,0.8,0.1c2.1-0.5,3.8-1.5,5.1-3.3c1.2-1.4,2-3.2,2.2-5.1c0-0.2,0.3-0.4,0.4-0.4
		c0.2-0.1,0.4,0,0.7,0c33.5,0,67,0,100.5,0c31.8,0,63.5-0.1,95.3-0.1c1.1,0,1,0,1.2,1.1c0.3,1.2,0.7,2.4,1.3,3.4
		c0.7,1.2,1.6,2.1,2.6,3c0.8,0.6,1.7,0.9,2.6,1.2c0.7,0.3,1.3,0.4,2,0.6c0,37.2,0,74.6,0,111.8c-1.2,0.4-2.4,0.7-3.6,1.2
		c-2.8,1.4-4.4,3.8-5.1,6.8c0,0.2,0,0.3,0,0.5c0,0.4-0.2,0.7-0.7,0.7c-0.1,0-0.3,0-0.4,0c-65.3,0-130.6,0-195.9,0
		c-0.2,0-0.4,0.1-0.6,0c-0.2-0.1-0.5-0.3-0.5-0.5c-0.3-3.7-3.6-7.4-7-8.3C12.1,131.5,11.7,131.4,11.2,131.3z M12.3,20.4
		c0,0.3,0,0.5,0,0.8c0,36,0,72,0,108.1c0,0.2-0.1,0.4,0,0.5c0.1,0.2,0.2,0.4,0.4,0.5c1.2,0.5,2.4,0.9,3.4,1.5c2.4,1.5,4,3.7,4.7,6.5
		c0.2,0.7,0.5,0.8,1.1,0.8c64.6,0,129.2,0,193.9,0c0.1,0,0.2,0,0.4,0c0.4,0.1,0.5-0.2,0.6-0.5c1.2-4.2,3.7-6.9,7.7-8.2
		c0.7-0.2,0.8-0.5,0.8-1.1c0-36,0-71.9,0-108c0-0.1,0-0.2,0-0.3c0.1-0.5-0.2-0.6-0.6-0.8c-1.2-0.5-2.3-0.8-3.3-1.4
		c-2.3-1.5-4-3.7-4.7-6.4c-0.2-0.7-0.4-0.9-1.1-0.9c-64.6,0-129.3,0-193.9,0c-0.3,0-0.5,0-0.8,0C19.9,16.3,17,19.2,12.3,20.4
		L12.3,20.4z M6.7,144.8c74.8,0,149.5,0,224.2,0c0-46.4,0-92.7,0-139.1c-74.7,0-149.4,0-224.2,0C6.7,52.1,6.7,98.4,6.7,144.8z"/>
</g>
</svg>
