<?xml version="1.0" encoding="utf-8"?>
<!-- Generator: Adobe Illustrator 26.0.1, SVG Export Plug-In . SVG Version: 6.00 Build 0)  -->
<svg version="1.1" id="Слой_1" xmlns:xodm="http://www.corel.com/coreldraw/odm/2003"
	 xmlns="http://www.w3.org/2000/svg" xmlns:xlink="http://www.w3.org/1999/xlink" x="0px" y="0px" viewBox="0 0 238.1 150.2"
	 style="enable-background:new 0 0 238.1 150.2;" xml:space="preserve">
<g id="Слой_x0020_1">
	<g id="_105553261373952">
		<g id="Layer_x0020_1">
			<g id="_105553145178560">
				<path d="M181.7,25.9c-2.8,1.4-5.5,2.8-6,3c-0.6,0.2-1,0.6-1,0.6s0.6,0.6,1.5,1c1,0.6,1.5,1,1.4,1.1c-0.1,0.1-0.6,0.9-1.1,1.7
					c-0.9,1.4-2.6,4-5.7,8.8c-0.6,0.9-1.6,2.5-2.4,3.6c-0.6,1-2.4,3.6-3.8,5.8c-2.4,3.6-3.3,5-6.3,9.7c-0.6,1.1-2.9,4.3-4.7,7.2
					c-1.8,2.9-3.9,6-4.5,7c-2.8,4.2-3.4,5.4-4,6.3c-0.4,0.6-0.6,0.9-0.6,0.9c-0.1,0-0.6-0.8-1.3-1.8c-2-3-5.4-8.2-5.9-9.1
					c-0.4-0.5-1.5-2.3-2.5-3.9c-1-1.6-2.8-4.1-3.5-5.5c-5.5-8.7-17.7-27.3-18-27.3c0,0-0.1,19.1-0.1,42.5v42.5l3,0h3V87.6
					c0-18.2,0.1-32.3,0.1-32.3c0.1,0,0.8,0.9,1.5,2.1c0.8,1.1,2.3,3.4,3.3,5.1c1,1.6,2.6,4,3.4,5.4c0.8,1.3,2.1,3.4,3,4.7
					c0.8,1.3,1.8,2.9,2.4,3.6c0.5,0.8,1.5,2.3,2.3,3.4c3,4.5,3.6,5.7,4.8,7.4c0.6,1,1.8,2.9,2.8,4.2c0.8,1.3,1.6,2.4,1.6,2.5
					c0.1,0.4,0.2,0.2,0.6-0.2c0.1-0.2,0.9-1.4,1.6-2.5c0.8-1.1,2.5-3.9,4-6.2c1.5-2.3,3-4.8,3.6-5.7c0.6-0.9,1.4-2.1,1.8-2.9
					c0.5-0.6,1.5-2.3,2.3-3.5c0.8-1.3,1.8-2.8,2.1-3.4c0.8-1.1,2.8-4.1,5-7.8c0.6-1.1,1.8-2.8,2.4-3.6c1-1.7,2.5-3.9,4.5-6.9
					c0.6-1,1.9-3,3-4.4c0.9-1.5,2.3-3.4,2.9-4.4c0.6-1,1.9-3,3-4.5l1.8-2.9l0.6,0.5c0.4,0.2,1.1,0.6,1.6,1.1l0.9,0.6l0.1-0.5
					c0.2-0.6,1-13.2,0.9-13.2C186.7,23.4,184.4,24.5,181.7,25.9L181.7,25.9L181.7,25.9z"/>
				<path d="M174.8,57.4c-0.6,1-3.6,5.5-4.8,7.3l-0.4,0.6v27.4v27.4h3h3V88.3c0-17.6,0-31.9,0-31.9C175.4,56.2,175,56.7,174.8,57.4
					L174.8,57.4L174.8,57.4z"/>
				<path d="M124.8,97.7v21.8h1.6h1.6v-16.5c0-9.1,0-16.5,0.1-16.5c0.1,0,0.9,1.1,1.8,2.6c0.9,1.5,2.4,3.8,3.3,5.1
					c0.9,1.4,2.3,3.5,3,4.8c2.3,3.6,4,6.2,5.9,9.2l1.8,2.9l1.6-2.5c0.9-1.4,2.1-3.3,2.8-4.2c0.6-1,1.6-2.5,2.1-3.4
					c0.6-0.9,1.4-2.1,1.7-2.8c0.4-0.6,1.1-1.7,1.6-2.5c0.5-0.8,1.4-2,1.9-3c0.6-0.8,1.6-2.5,2.4-3.6c0.6-1.1,1.5-2.1,1.5-2.4
					c0.1-0.2,0.2-0.4,0.4-0.4c0.2,0,0.1,6,0.1,16.5v16.5l1.6,0h1.6V97.7c0-12.7-0.1-21.8-0.1-21.8c-0.1,0-0.1,0.1-0.2,0.2
					c-0.1,0.2-1,1.7-4.1,6.4c-0.8,1.3-2,3-2.6,4.1c-0.6,1-2,3-3,4.8c-1.1,1.7-3.5,5.5-5.5,8.4l-3.5,5.4l-0.4-0.4
					c-0.1-0.2-0.4-0.5-0.5-0.6c-0.9-1.5-2.6-4-3.9-5.9c-0.9-1.4-2.6-4-3.8-5.8c-1.3-1.9-3-4.5-3.9-5.9c-3.5-5.5-4.7-7.2-5.8-8.9
					c-0.6-0.9-1.1-1.7-1.3-1.7C125,76,124.8,85.8,124.8,97.7L124.8,97.7L124.8,97.7z"/>
				<path d="M65,128c-0.1,0.8-0.2,2.5-0.4,3.8c-0.4,3.4-0.5,4.2-0.8,4.4c-0.2,0.1,0,0.1,0.6,0.1c0.6,0,0.9,0,0.6-0.1
					c-0.2-0.1-0.2-0.4-0.2-0.9c0-0.6,0.4-5.5,0.5-6c0-0.1,0.8,1.5,1.8,3.4c1.1,2.4,1.8,3.6,1.9,3.5c0.1-0.1,0.9-1.7,1.8-3.6
					c0.9-1.9,1.7-3.5,1.7-3.5c0.1-0.1,0.2,1.3,0.4,2.9c0.1,1.6,0.2,3.2,0.4,3.4c0.1,0.4,0,0.6-0.1,0.8c-0.2,0.2-0.2,0.2,0.8,0.2
					c0.9,0,1,0,0.8-0.2c-0.1-0.1-0.2-0.5-0.4-0.6c-0.1-0.5-0.9-8.5-0.9-8.8c0-0.2-0.4,0.5-1.1,2.1c-0.5,0.9-1.1,2.5-1.7,3.6
					c-0.5,1-1,2-1,2.3c-0.1,0.4-0.4,0-2.3-3.9c-1.1-2.3-2-4.2-2.1-4.2C65.2,126.4,65.1,127.1,65,128L65,128L65,128z"/>
				<path d="M104.5,126.6c-2.5,0.4-4.1,2.4-3.9,5.3c0.1,2.6,1.5,4.1,3.9,4.5c1.1,0.2,2.1,0.1,3.2-0.4c1.1-0.6,1.7-1,2.3-1.9
					c1.4-2.6,0.6-5.8-1.9-6.9c-0.6-0.4-2.3-0.6-2.6-0.6C105.4,126.5,105,126.5,104.5,126.6L104.5,126.6L104.5,126.6z M107.3,127.3
					c0.6,0.4,0.9,0.6,1.5,1.3c0.6,1,0.8,1.7,0.8,3.2c0,1.1-0.5,2.4-1,3c-1.1,1.3-3.4,1.6-5,0.6c-1.3-0.8-1.9-2.9-1.7-4.8
					c0.3-1.9,0.8-3,1.9-3.5C104.7,126.8,106,126.8,107.3,127.3L107.3,127.3L107.3,127.3z"/>
				<path d="M112,131.1c0,4.4,0,4.7-0.4,5l-0.4,0.4h1c0.9,0,0.9,0,0.6-0.2c-0.3-0.2-0.2-0.5-0.4-4.1c0-2.1-0.1-3.9,0-4
					c0-0.1,1.1,1.1,3,3.2c0.5,0.6,0.8,1,0.9,1c0,0,0.9,1,1.8,2c0.9,1.1,1.8,1.9,1.8,1.9c0.1,0,0.1-2.1,0.1-4.7v-4.7l0.4-0.1
					c0.2-0.1,0-0.1-0.8-0.1c-0.9,0-1.1,0-0.8,0.1c0.2,0.1,0.5,0.2,0.5,0.5c0,0.2,0.1,1.9,0,4v3.6l-3.5-4c-1.9-2.1-3.6-4.1-3.8-4.3
					C112,126.4,112,126.6,112,131.1L112,131.1L112,131.1z"/>
				<path d="M166.7,126.6c0,0.4-0.9,8.3-1,8.8c0,0.2-0.2,0.5-0.4,0.6c-0.2,0.2-0.1,0.2,0.6,0.2c0.8,0,0.9,0,0.6-0.2
					c-0.1-0.1-0.2-0.5-0.2-0.6c0-0.6,0.5-5.8,0.5-6.2c0-0.1,0.8,1.5,1.8,3.4l1.8,3.6l0.2-0.4c0.1-0.2,0.2-0.5,0.2-0.5
					c0-0.1,0.4-0.9,0.9-1.9c0.5-1,1.1-2.5,1.6-3.3c0.4-0.8,0.6-1.4,0.6-1.3c0,0.2,0.6,6.5,0.6,6.7c0,0-0.1,0.2-0.2,0.4
					c-0.2,0.2-0.1,0.2,0.8,0.2c1,0,1,0,0.8-0.4c-0.4-0.4-0.4-0.2-0.9-5.3c-0.2-2.4-0.5-4.3-0.5-4.3s-0.2,0.4-0.5,0.6
					c-0.2,0.5-0.6,1.4-1,2c-0.4,0.6-1,2.3-1.6,3.4c-0.6,1.1-1,2-1,2s-1-1.8-2.1-4.1c-1.1-2.3-2-4.2-2.1-4.2
					C166.4,125.9,166.7,126.5,166.7,126.6L166.7,126.6z"/>
				<path d="M185.2,131.2c0,4.5-0.1,4.8-0.4,5c-0.2,0.2-0.2,0.2,0.6,0.2l1,0l-0.4-0.4c-0.2-0.2-0.4-0.5-0.4-4.2v-3.9l1.6,1.8
					c0.8,1,1.7,2,2,2.4c0.2,0.4,1.3,1.4,2.1,2.5c0.9,1,1.7,1.9,1.8,1.8c0.1,0,0.1-2,0.1-4.7c0-3.9,0-4.5,0.2-4.8
					c0.2-0.2,0.1-0.2-0.8-0.2c-0.8,0-0.9,0-0.6,0.2c0.1,0.1,0.4,0.2,0.4,0.4c0.1,0.1,0.1,1.9,0.1,4v3.9l-0.6-0.6
					c-0.4-0.4-1-1.1-1.5-1.7c-0.6-0.6-1.8-2.1-3-3.4c-1.1-1.3-2.1-2.4-2.3-2.6l-0.4-0.4L185.2,131.2L185.2,131.2L185.2,131.2
					L185.2,131.2z"/>
				<path d="M208.7,126.6c-0.4,0.1-0.8,0.4-1,0.6c-0.5,0.4-0.5,0.6-0.5,1.3c0,1.1,0.4,1.8,1.9,3.3c1.5,1.5,1.7,1.8,1.6,3
					c-0.1,0.6-0.2,0.8-0.6,1.1c-0.5,0.4-0.6,0.5-1.5,0.4c-1-0.1-1.4-0.4-1.7-1.3l-0.2-0.6v0.8c0,0.5,0,0.9,0.1,1
					c0.2,0.4,1.6,0.5,2.5,0.4c1.5-0.2,2.1-1.1,2.1-2.5c0-1.5-0.4-1.9-2.5-3.5c-1.8-1.4-1.7-3.4,0.4-3.4c0.8,0,1.7,0.5,1.7,0.9
					c0,0.1,0,0.2,0.1,0.2c0.1,0,0.1-0.2,0.1-0.6c0-0.5-0.1-0.6-0.2-0.8C210.8,126.5,209.3,126.4,208.7,126.6L208.7,126.6
					L208.7,126.6z"/>
				<path d="M77.7,126.8c0.2,0.1,0.5,0.4,0.5,0.5c0.1,0.1,0.1,2,0.1,4.1c0,3.8-0.1,4.5-0.5,4.8c-0.1,0.1,0.4,0.1,1,0.1
					c0.6,0,1.1,0,1-0.1c-0.6-0.2-0.6-0.5-0.6-4.8c0-4.2,0-4.2,0.4-4.4c0.4-0.2,0.2-0.2-0.6-0.2c-0.6,0-1.1,0-1.4-0.1
					C77.4,126.6,77.4,126.6,77.7,126.8C77.7,126.8,77.7,126.8,77.7,126.8z"/>
				<path d="M97.6,126.9l0.5,0.4v4.2c0,4.1,0,4.3-0.4,4.5l-0.4,0.4h1.1c1,0,1.1,0,0.8-0.2c-0.2-0.2-0.4-0.5-0.4-4.5
					c0-4.3,0-4.3,0.2-4.5c0.4-0.2,0.4-0.2-0.6-0.2c-0.6,0-1.1,0-1.3-0.1C97.1,126.6,97.1,126.6,97.6,126.9
					C97.6,126.9,97.6,126.9,97.6,126.9z"/>
				<path d="M126.6,127c-0.1,0.2-0.8,2.1-1.5,4.2c-1.6,4.3-1.8,4.8-2.1,5c-0.2,0.1-0.2,0.1,0.2,0.2c0.4,0,0.8,0.1,1,0.1
					c0.5,0.1,0.5,0.1,0.2-0.2c-0.2-0.4-0.2-0.5,0.2-1.9l0.5-1.5l1.6,0h1.6l0.6,1.6c0.5,1,0.6,1.7,0.6,1.9c-0.1,0.4,0,0.4,1.1,0.4
					c1.1,0,1.1,0,0.8-0.2c-0.6-0.2-0.8-0.5-1.1-1.4c-1.5-3.9-3.2-8.1-3.3-8.2C126.9,126.6,126.7,126.8,126.6,127L126.6,127
					L126.6,127z M127.4,130.2c0.4,1,0.6,1.8,0.6,1.9c0,0.1-2.4,0.1-2.5,0c-0.1-0.1,1.1-3.8,1.3-3.8
					C126.6,128.3,127,129.2,127.4,130.2L127.4,130.2z"/>
				<path d="M133.3,126.9c0.2,0.1,0.5,0.4,0.6,0.5c0,0.2,0,5.5,0,7.8c0,0.5-0.1,0.8-0.2,1c-0.2,0.2-0.1,0.2,1,0.2c1,0,1.1,0,0.9-0.2
					c-0.1-0.1-0.4-0.2-0.4-0.4c-0.1-0.1-0.1-2-0.1-4.3c0-4.3,0-4.3,0.4-4.4c0.4-0.2,0.4-0.2-0.6-0.2c-0.5,0-1.1,0-1.4-0.1l-0.5-0.1
					L133.3,126.9L133.3,126.9L133.3,126.9L133.3,126.9z"/>
				<path d="M150.4,126.8c-2,0-2.3,0.1-1.9,0.2l0.4,0.2v4.4c0,2.6-0.1,4.5-0.2,4.5c-0.1,0-0.1,0.1-0.1,0.1c0,0.1,4.5,0.1,4.7-0.1
					c0.1-0.1,0.1-0.5,0.2-0.8c0.1-0.6,0.1-0.6-0.1-0.2c-0.2,0.6-1,0.8-1.9,0.8c-0.6,0-0.9-0.1-1.1-0.4c-0.2-0.2-0.4-0.5-0.2-2.3
					v-1.8h1c1,0,1.6,0.1,1.6,0.6c0,0.1,0.1-0.1,0.2-0.5c0.2-0.8,0.2-0.9-0.1-0.6c-0.1,0.1-0.6,0.1-1.5,0.1l-1.3,0v-1.8v-1.8l0.6-0.1
					c1.1-0.1,1.8,0,2.1,0.6l0.2,0.5v-0.5c0-0.2,0-0.6,0.1-0.8c0.1-0.2,0-0.4-0.1-0.4C152.9,126.6,151.7,126.6,150.4,126.8
					L150.4,126.8L150.4,126.8z"/>
				<path d="M179.3,126.9c0.2,0.1,0.6,0.4,0.6,0.6c0,0.2,0.1,2.1,0,4.4c0,3.9-0.1,4.1-0.4,4.3c-0.2,0.2-0.1,0.2,0.9,0.2
					c1,0,1.1,0,0.9-0.2c-0.1-0.1-0.4-0.2-0.4-0.4c-0.1-0.1-0.1-2-0.1-4.3c0-4.2,0-4.2,0.4-4.4c0.4-0.2,0.4-0.2-0.6-0.2
					C180.2,126.9,179.6,126.9,179.3,126.9l-0.5-0.2L179.3,126.9L179.3,126.9L179.3,126.9L179.3,126.9z"/>
				<path d="M197.8,126.8c-1.4,0.1-1.5,0.1-1.1,0.2c0.4,0.2,0.4,0.2,0.4,4.5c0,3.5,0,4.3-0.2,4.5c-0.2,0.2-0.1,0.2,0.9,0.4
					c2.3,0.2,4.1,0,5.3-0.6c0.8-0.4,1.7-1.1,2.3-2c0.4-0.6,0.4-0.8,0.4-2.3c0-1.4,0-1.6-0.4-2.3c-0.5-0.9-1.3-1.6-2.3-2
					c-0.8-0.4-2.5-0.6-3.3-0.6C199.4,126.6,198.5,126.6,197.8,126.8L197.8,126.8L197.8,126.8L197.8,126.8z M201.8,127.5
					c1.7,0.6,2.6,1.9,2.8,4c0.1,2-0.6,3.4-2.1,4.2c-0.8,0.4-1,0.5-2.4,0.5c-1.3,0-1.5,0-1.7-0.2c-0.2-0.4-0.4-2.5-0.4-5.9
					c0-2.3,0-2.4,0.4-2.6C198.8,126.9,200.7,127.1,201.8,127.5L201.8,127.5L201.8,127.5L201.8,127.5z"/>
				<path d="M213.1,126.8c0,0.1,0.1,0.1,0.2,0.1c0.5,0,0.6,0.6,0.5,4.8c-0.1,2.8-0.1,4.2-0.2,4.4c-0.1,0.1,0.2,0.2,2.1,0.2
					c1.3,0,2.4-0.1,2.4-0.1c0-0.1,0.1-0.5,0.1-0.8l0.1-0.6l-0.2,0.5c-0.2,0.6-0.8,0.8-1.9,0.8c-1.4,0-1.4,0-1.4-2.5v-2.1h0.9
					c1,0,1.6,0.1,1.6,0.6c0,0.6,0.1,0.2,0.2-0.6c0.1-0.6,0.1-0.8-0.1-0.6c-0.1,0.1-0.6,0.2-1.5,0.2l-1.2,0v-1.9
					c0-2.1-0.1-1.9,1.4-1.9c1.1,0,1.4,0.1,1.5,0.6c0.2,0.5,0.2,0.5,0.4-0.5l0.1-0.6l-2.5,0C214,126.6,213.1,126.6,213.1,126.8
					L213.1,126.8L213.1,126.8z"/>
				<path d="M219.9,127c0,0.2-0.1,0.6-0.1,0.8l-0.1,0.5l0.2-0.4c0.5-0.6,0.8-0.6,2.1-0.6h1.3v4.3v4.3l-0.4,0.2
					c-0.4,0.2-0.4,0.2,1,0.2c0.8,0,1.3,0,1.1-0.1c-0.6-0.2-0.8-0.5-0.8-4.9v-4.1l1.3,0c1.3,0,1.3,0,1.7,0.5c0.2,0.2,0.5,0.5,0.5,0.5
					s0.1-0.4,0.1-0.6l0-0.7h-3.9h-4V127L219.9,127L219.9,127L219.9,127z"/>
				<path d="M82.3,126.9c0.2,0.1,0.4,0.2,0.5,0.5c0,0.2,0.1,2.1,0,4.3c0,3.6-0.1,4-0.4,4.3l-0.2,0.4l2.6,0c2.6,0,2.6,0,2.9-0.4
					c0.1-0.2,0.2-0.6,0.2-0.8l-0.1-0.5l-0.1,0.4c-0.4,0.6-0.6,0.9-1.9,0.9c-1.6,0-1.7,0-1.7-2.1c0-0.9,0-2.9,0-4.2
					c0.1-2.5,0.1-2.5,0.5-2.8c0.4-0.1,0.2-0.2-0.9-0.2C82.3,126.8,82.1,126.8,82.3,126.9L82.3,126.9L82.3,126.9z"/>
				<path d="M90,127c0.4,0.2,0.4,0.4,0.2,4.5c0,4.1-0.1,4.3-0.4,4.5c-0.2,0.2,0,0.2,2.3,0.2c3,0,3,0,3-1v-0.6l-0.4,0.5
					c-0.4,0.6-0.6,0.8-1.9,0.8c-1.8,0-1.7,0.2-1.7-4.5c0-2.1,0.1-4.1,0.1-4.3c0.1-0.1,0.2-0.2,0.5-0.4c0.2-0.1,0.1-0.1-0.9-0.1
					C89.8,126.8,89.8,126.8,90,127z"/>
				<path d="M137.8,126.9l0.4,0.1v4.3c0,2.8-0.1,4.4-0.1,4.7c-0.1,0.2-0.1,0.2,0.8,0.2h1l-0.4-0.4c-0.2-0.2-0.4-0.6-0.4-1.9
					c0-0.9,0-1.7,0.1-1.7c0,0,0.5,0,0.9,0l0.8,0.1l1.4,1.7c1.5,1.9,1.9,2.3,3.4,2.4l0.9,0.1l-0.8-0.4c-0.8-0.4-0.9-0.4-2.9-2.8
					L142,132l0.6-0.6c0.6-0.6,1-1.5,1-2.4c0-1-0.4-1.6-1.3-2c-0.6-0.2-0.9-0.4-2.8-0.4C137.9,126.8,137.6,126.8,137.8,126.9
					L137.8,126.9L137.8,126.9z M141.4,127.3c0.8,0.4,1.1,1,1.1,2.1c0,1.6-0.6,2.4-2,2.4c-1.3,0-1.3,0.1-1.3-2.4c0-1.3,0-2.3,0.1-2.4
					C139.6,127,140.8,127.1,141.4,127.3L141.4,127.3L141.4,127.3z"/>
			</g>
		</g>
	</g>
</g>
</svg>
