<?xml version="1.0" encoding="utf-8"?>
<!-- Generator: Adobe Illustrator 26.0.1, SVG Export Plug-In . SVG Version: 6.00 Build 0)  -->
<svg version="1.1" id="Слой_1" xmlns:xodm="http://www.corel.com/coreldraw/odm/2003"
	 xmlns="http://www.w3.org/2000/svg" xmlns:xlink="http://www.w3.org/1999/xlink" x="0px" y="0px" viewBox="0 0 238.1 150.2"
	 style="enable-background:new 0 0 238.1 150.2;" xml:space="preserve">
<style type="text/css">
	.st0{fill-rule:evenodd;clip-rule:evenodd;}
</style>
<g id="Слой_x0020_1">
	<g id="_105553256176192">
		<path class="st0" d="M88.1,106.5c-1.8,0.8-4.4-4.4,1.4-4.9c7.1-0.5,4.8,2.3,5.4,4.9l0.2,0.3c1.2-1.2,0.5-4.9-1.1-5.6
			c-1.4-0.6-5.3-0.5-6.8,0.1c-3.4,1.4-3.3,7.3,5,6.2l-3.9-0.7c0.7-1.3,0.5-2.7-0.5-3.9C88,104.3,88.5,105.3,88.1,106.5L88.1,106.5z
			 M189.8,17.6c0-0.7,0.1-0.7,0.6-1.5c2.5-3.7,6.2-5.2,10.5-6.9c3.7-1.5,12.1-3.5,14.6-5.5h-1.2c-3.3,1.4-6.9,2.8-10.6,3.9
			c-2,0.6-3.9,1.8-5.5,0.7c-0.8-0.6-1.1-1.1-2-1.2l-0.5-0.1c-0.7-0.1-0.1-0.1-0.6-0.1c-0.1,0-1.1,0.3-1.3,0.4c1.2,0.5,1.9,1.5,3,2.1
			L196,9.5c-1,0.3,0.4,0.5-1.6-0.4c0.5,0.7,0.1,0.3,0.9,0.7l-0.6,0.5c0,0-0.1,0,0,0.1c-1-0.5-2.4-1.4-3.4-1.7
			c0.1,0.1,0.1,0.1,0.2,0.2l2.8,2c-0.4,0.5-1.3,1-2.9,2.9c-0.7,0.8-1.5,1.8-1.7,2.8C189.5,17.5,189.7,17.5,189.8,17.6L189.8,17.6z
			 M163.2,37.1c0-0.1,0.1-0.2,0.1-0.2s0.1-0.1,0.1-0.2s0.1-0.3,0.2-0.4c0.9-1.9,2.6-3.2,5-3.3c3.1-0.1,4.4,1.9,5.6,3.7
			C173.1,31,163.4,30.7,163.2,37.1z M167,54.3c1.1-1.7,3.4-9.4-0.2-9.3c-0.3,1.6,0.9,2.1,0.8,4.4C167.6,51.2,167,52.6,167,54.3z
			 M168,56.7c0.8-0.3,4.8-5,5.8-6.1c1.3-1.5,3.2-5.7,3-8.5C176.2,46.8,168.1,54.2,168,56.7L168,56.7z M233.3,7.7v-1l-0.2,0
			c-0.2,1-1.3,1.4-2.8,2.4c-10.3,6.2-21.1,7.6-25.3,11.2c1.1-0.4,2.3-1.1,3.5-1.6c9.4-3.9,14.3-2.5,23.3-9.7
			C232.5,8.4,232.5,8.1,233.3,7.7z M191.3,75.4c-0.1,1.2-1.5,2.3-3.8,2.1c-1.3-0.1-2.4-0.5-3.3-1l-0.5,0.1c2.8,2,7.4,2.6,8.3-1.3
			L191.3,75.4L191.3,75.4z M164,80.1c-0.4,0.4-0.9,0.8-1.1,1c0.9-0.3,1.4-0.7,1.9-1.2C164.8,79.9,164,80.1,164,80.1z M165.8,79.7
			c-0.2,0.4-0.4,0.5-0.7,1.2c0.6-0.3,1.2-0.9,1.7-1.4C166.5,79.6,166.2,79.6,165.8,79.7L165.8,79.7z M167.2,79.4
			c-0.3,1.5-1.5,2.8-2.2,3.4c1.8-0.4,2.1-1.6,3.2-2.9c0,1.6-1.1,3.1-1.9,3.6c1.7-0.7,1.5-1.1,2.3-2.1c0.3-0.3,0.2-0.3,0.4-0.5
			c-0.2,1.6-0.7,1.9-1,3.1c1.4-1.3,1-1.4,1.9-3.1c0.1,1.2-0.1,2.1-0.5,3c0.7-1.1,0.7-0.6,1.3-2.5c0.8,1.4,0.4,2,0.5,3.5l0.8-2.2
			l0.5,4.2l0.4-2.2c0.3,2.1,0.1,2.3-0.2,4c0.8-1.4,0.8-1.6,0.8-3.6c0.6,2.1,0.1,3.1-1,4.7c0.8-0.3,1.7-1.3,1.7-2.4
			c0.1,2.7-1.6,2.9-3.2,3.8c2,0.2,2.5-0.3,3.4-1.3c-1.7,5.9-8.2-3.4-11.5-4.9l2.2-0.9c-2.9-0.3-3.3-0.2-3.8-3c0-0.2-0.1-0.4-0.1-0.6
			l-1,0.2c0.3,1.2,0.7,2.4,1.4,3.5l3.5,2.8c0.9,0.7,2,2.3,3,3.3c3.1,3.3,6.4,2.8,7.3-1.2c3.3-0.8,2.9-0.6,4.5-3.3
			c0.5-4.3-1.8-5.9-2.9-8.2c-1.7,0.3-3.5,0.6-5.2,0.9c1.3,0.3,2.7,0.3,3.7-0.4c-0.9,1.4-1.2,0.9-2.7,1.5c1.7,0.2,2.1-0.3,3.3-0.9
			c-0.2,1-1.3,1.5-2.7,1.6c1.9,0.3,1.9-0.4,3.4-0.6c-0.4,0.8-1.2,1-2.1,1.5c1.4,0,1.6-0.2,2.5-0.7c-0.3,1.1-1,1.1-1.9,1.6
			c1.2-0.1,1.7-0.4,2.5-0.9c-0.2,1.2-0.5,1.2-1.6,1.6c1.1,0,1.2-0.3,2-0.7c-0.5,0.8-0.7,1-1.3,1.4c0.4-0.1,0.4-0.2,0.7-0.2
			c0.7-0.1,0.3-0.1,0.6,0.1c-0.6,0.7-0.9,0.8-1.3,1.3l1.5-0.7c-0.6,0.8-0.4,0.8-1.3,1.2c1.3,0.7-0.9-0.1,0.9,0.2h0.1
			c-0.4,0.2-1.4,0.9-1.8,1.2l1.9-0.6c-0.5,0.2-1.4,1.5-2.5,1.7c1,0.1,1.5-0.4,2.3-0.7c-0.5,0.9-1,1.4-2.5,1.3c-1.2-3-1-4.4-3.1-6.9
			c-0.9-1-1.8-1.8-2.7-2.6C168.9,79.1,168.1,79.3,167.2,79.4L167.2,79.4z M163.1,72.4c0.3-0.5,0.6-1.1,0.9-1.9c0,0,0-0.1,0.1-0.2
			l0-0.1l0,0l0.1-0.3v0c0.1-0.4,0-0.4,0.1-0.6c0.4-2.8,0.6-4.3,1.8-7.4c0.2-0.4,1.1-1.9,1.6-2.8l1.7-0.3c1.4-2.3,3.5-4.3,6.5-4
			c3.5,0.4,5.4,1.6,9,1.2l2.8-0.5c0.2-0.3,4.4-1.2,8.6-5.7c1.6-1.6,2.7-6.3,3.3-8.5c0.6-2.1,1.3-4.2,1.9-6.3c1.5-5,2.8-7.5,8.1-8.8
			c4.7-1.1,9.4-1.5,13.6-3.5c3.9-1.9,7.9-5.6,10.2-6.7v-0.8c-1.4,0.6-2.9,1.7-4.1,2.5c-14.9,9.3-15.3,4.7-23.6,8.8
			c-3.7,1.8-5.6,2.6-10,1.7c0.4,0.5,0.5,0.2,1,1l-0.7,2.1c1.2-1.4,0.3-1.3,1.5-1.8c0,1.1-1.6,2.6-1.7,5c0.8-1.5,1.2-3.2,2.5-4.1
			c-1,2.2-2.1,3.5-2,6.6c1.1-2.3,1.1-6.1,3.8-7.3c-0.9,1.5-1.6,1.5-2.5,4.5c-0.5,1.8-0.9,3.9-0.7,5.9c0.2-3.5,2.4-10.4,5.7-11.1
			c-1.4,2.5-2.5,3.7-3.6,7.1c-2.2,6.9-0.6,16.4-14.3,17.9c-0.5,0-0.6,0-1,0c-1.6,0.1-3.8,0-4.9-0.6l4-0.9c0-0.1,0.1-0.1,0.2,0h-6.6
			c1.2-1.1,2-0.5,4-0.5c3.8-0.1,7.7-1,10.7-3.1c-2.9,0.8-7,3.4-12.4,2.1c1.4-0.7-0.4-0.7,3.4-0.7c5.8,0.1,8.5-3,10.3-3.3
			c-3,1.4-7.1,3-11.5,2.6l6.9-1.5c-2.1,0.3-3.2,0.7-5.5,0.6c0.8-0.5,1-0.4,2.1-0.6c0.8-0.1,5.6-1.1,5.8-1.7c0-0.1,0.1-0.1,0.2-0.1
			c-2.4,0.5-4.1,1.4-7,1.4c0.1,0,0.1-0.1,0.2-0.1c1.5-0.8,1.7-0.2,5.1-1.3c1.7-0.6,2.9-1.5,4.1-2c-1.4,0.6-5.4,2.2-7.1,2.2
			c-1.3,0-0.6,0.1-1-0.3c1.1-0.6,2.9-0.8,4.1-1.2c1.2-0.4,2.5-1.2,3.4-1.4c-2,0.3-4.2,1.5-6.7,1.7c0.6-1.2,1.3-1,2.9-1.5
			c1-0.3,1.9-0.9,2.8-1l-4.7,1c0.4-1.2,1.1-2.4,1.6-3.7c2.4-7.4,0.7-10.9,1-13.6l1.2,1.1c0.3-0.5-0.1-0.4,0-0.8
			c0.7,0.4,1.3,0.9,2.3,0.9c-1-0.3-2.5-1.3-3-2.1c-0.8-1.3,0.2-2.8,0.8-3.9l-0.8,1.1c-0.3,0.5-0.4,0.8-0.7,1.3c-0.4,0,0,0.2-0.5-0.5
			c0.1,3.1-0.3-0.3-0.4,1.5c0,0.3,0.2,1.1,0.3,1.7c-0.2-0.7-0.7-1.1-1-1.6l0.8,2.9c-0.4-0.6-1.1-1.5-1.4-2.1
			c0.4,1.1,1.5,2.9,1.5,4.3c0-0.3-0.2-0.6-0.4-1l-0.8-0.9c0.4,1.6,1.1,2.3,1.3,4.3c-0.7-1.4-1.6-3.2-2.4-4.5c0.7,2.1,2,4.3,2,6.8
			c-0.8-1.3-0.4-2.2-2.5-5.3c0.8,2.2,1.9,4.4,2.1,7.1c-0.3-0.4-0.1,0.1-0.5-0.8l-1.8-4.8c0.3,2.4,2,5.3,1.6,8.3
			c-0.3-2.9-1.1-3.8-1.8-6.1c0.2,2.8,1.6,4.2,1.1,7.9c-0.9-1.4-0.3-5.3-1.7-7.3c0.3,2.8,1.4,6.3,0.3,9c-0.1-1.1-0.1-2.1-0.1-3.3
			l-0.2-2c0-0.1-0.1-0.3-0.1-0.4c0-0.1,0-0.1-0.1-0.2c0,2,0.1,4.3-0.2,6.4l-0.5,1.6c0.1-1.9,0.7-4.7,0-6.4c-0.6,1.6-0.4,5.2-1.2,7.2
			c0.2-2,0.6-3,0.6-5.4c-0.2,0.2-0.2,0.2-0.3,0.7c-0.8,2.2,0.2,2.4-2.2,7.1c0.6-2.3,1.3-3.9,1.4-6.8c-0.8,1.3-1.2,5.7-3.1,7.6
			c0.8-2.8,2.3-5.7,2.2-9c-0.5,3-2.8,9.3-4.7,10.5c0.8-3.1,2.3-3.4,3.6-9.2c1-4.6,1.8-6.4-1.8-9.1c0.6,1.2,1.6,2,1.9,3.9
			c-0.9-1.5-3.2-4.6-5.3-4.5c1.8,1.1,4.3,4.8,4.1,8.4c-0.1,2.7-2,7.1-3.3,9.1c-3.7,6-4.8,5.4-8.5,10.1c-0.6,0.8-1.9,3.4-2.2,3.7
			c-0.8-1-0.9-1.5-2.2-1.8c1,0.7,1.6,1.4,1.7,2.8c-0.8-1-1.2-1.6-2.2-2.2c1.4,2.7,2.8,3.8,1.5,8c-0.8,2.6-2.3,4.8-5.3,5
			c2.1-0.8,3.9-1.6,4.2-4.1c-0.2,0.8-1.7,2-2.6,2.4c-1.7,0.8-2.5,0.5-4.2,0.8l0.6,0.8c-1.1-0.1-1.3-0.2-1.8-1.2
			c0.4-2.7,3.5-1,5.3-1.8c-1.6-0.6-3.4-0.8-5,0c0-0.2,0.4-1.7,0.5-2.3c0.4-1.6,1.8-4.6,4.1-3.8c0.6,0.2,0.9,0.7,1.2,1.1
			c0.4,0.5,0.1,0.2,0.4,0.5c-0.2-3.4-1.4-2.4-3.1-3.1c1.3-0.5,1.3-0.5,2.6,0c-0.9-1.4-2.2-1-3.5-0.3c0.2-1.3,0.4-1.1,0.8-1.9
			l0.1-0.4c0.6-2.5,1.8-5.7,4.6-2.7c-0.4-1.2-1.5-2.3-3-1.6c0.2-1.7,0.9-3.2,1.2-5.4c0.3-2.2,0.2-3.7,0.8-5.8
			c0.5-1.8,1.1-3.4,1.4-5.4c0.2-1.4,0.2-4.4-0.6-5.7c-0.5,2,0.3,3.3,0,5.3c-0.2,1.4-1,3-1.3,4.5c-0.7,3.3-0.2,7.4-1.2,10.4H158
			l1.2,0.8c-1.4,0.1-1.8-0.2-2.8-0.7c0.9,1,1.1,0.8,2.4,1.4c-2.4,0.4-2.6-0.7-4.1-1.4c0.5,0.4,1.5,1.2,2,1.7
			c-1.7-0.3-2.3-0.9-3.7-1.3l0.7,0.7c0.3,0.3,0.5,0.4,0.7,0.6c-1.9-0.4-2.9-1.6-4.4-2.3c0.4,0.7,0.4,0.5,1,1.1
			c0.5,0.5,0.6,0.6,1,0.9c-1.4-0.5-2.8-1.4-3.9-2.1c0.6,0.6,0.9,0.7,1.3,1.5c-1.8-0.8-4.5-2.9-5.6-4.2c0.2,1.2,1.7,2.8,2.5,3.4
			c-0.1,0-0.1,0.1-0.2,0.1c0,0-0.1,0.1-0.2,0.1l-0.3,0.1c0,0-0.4-0.1-0.5-0.1c0.9,0.4,1.9,1.1,2.8,1.6l-3.3-0.9c0.1,0,4,1.6,4,1.6
			c-1.2,0.5-3.8-0.7-5-1c0.5,0.5,0.8,0.7,1.6,1l1.3,0.5c0,0,0.1,0.2,0.2,0.1c0-0.1,0.1,0.1,0.2,0.1c-1.6,0.1-3.8-0.4-4.8-1.2
			c0.8,1,2.9,1.3,3.8,1.9c-1.9,0.1-2.6-0.3-4.1-0.8c1.2,0.9,2.6,1,3.7,1.7c-2,0-2.3-0.3-3.9-0.7c0.9,0.7,1.8,0.8,3,1.2
			c-2.4,0.4-4.2-1-6-1.6c0.8,0.7,2.3,1.7,3.4,1.9c-1.6,0-4.1-1.4-5.3-2l3.4,2.4l-4.1-1.8c1.1,1.1,2.2,1.3,3.4,2.2
			c-1.4-0.2-2.4-0.9-3.6-1.3c1,1.1,1.4,0.9,2.2,1.6c-1.3-0.1-3.1-0.6-4-1.4c-0.1-0.1-0.4-0.5-0.5-0.5c-0.4-0.5-0.1-0.1-0.3-0.4
			l-0.5-0.1c0.5,0.9,1,1.6,1.4,2.3l-1.9-0.8c0.3,0.6,2.6,1.8,3.1,2c-1.5-0.2-2.6-0.9-3.8-1.4c1.8,2,3.1,1.4,5.4,2.5
			c-2,0.3-2.9-0.3-4.6-0.8c0.9,0.9,2.5,1,3.5,1.3l2.7-0.5c0.3-0.6,0.4-0.8,1.9-1c5.9-0.7,6.6-3.9,9.2-4.5c1.4-0.4,2.7,0.3,4,0.4
			c1.5,0.1,2.6-0.3,3.9-0.4c-0.3,0.8-0.5,1.5-0.8,2.3l0.1,0c-0.7,2.6-1.2,5.1-2.1,7.1c-2.1,4.4-2.7,7.7,1,8.2l0,0
			c1.5,0.1,2.9-0.3,4.1-0.8C161.2,74.6,162.4,73.6,163.1,72.4L163.1,72.4z M176.2,57.5c0.2-0.3,0.4-0.6,0.6-1
			c-0.1,0.2-0.5,0.6-1,1.1L176.2,57.5z M173.8,58c0.6-0.5,1.1-1.1,1.5-1.7c-0.3,0.4-1.2,1.1-2.2,1.8C173.2,58.1,173.8,58,173.8,58z
			 M171.9,58.3c0.6-0.6,1.2-1.2,1.5-1.8c-0.4,0.5-1.4,1.4-2.4,2L171.9,58.3L171.9,58.3z M147.7,43.6c-0.4,2.2-5.6,5.9-7.5,6.6
			c-0.5,0.7-7.3,3.2-8.6,3.7c-0.3,0.4-1.6,1.2-2.1,1.7c-0.6,0.6-1.1,1.3-1.6,2.2c-1.1,2.3-1.5,3.2-2.9,4.9c-0.9,1.1-3.1,3-5,4.7
			l1.2-0.2c0.7-0.6,1.3-1.2,1.6-1.5c0.4-0.4,0.6-0.6,1-1l0.8-0.8c0.3-0.3,0.1-0.1,0.5-0.4l0.7,1.1c-0.5-2.5,0.9-3.2,2-4.4
			c1.1-1.3,1.6-2.5,2.9-3.9c0.8,1,0,2,0.8,0.7c-0.9-2.3,3.5-4,5.4-4.9c1.3-0.6,2.6-1.1,3.9-1.7l2.6-1.4c0.6-0.2-0.3,0.6,0.5-0.1
			l2.5-2.2c0.8,0.2,0.5,0,0.8,0.7c0-1.2,0.1-0.9,0.4-1.2L148,47c-0.1-0.9,0-1.2,0.4-1.9c0.6,0.8,0,0.9,0.7,1.9
			c-0.3-1.2-0.4-1.1-0.3-2.6l0.4,1c0.1,0.4,0.1,0.5,0.3,0.9c0.3,0.7,0.7,1.1,1.1,1.4c-1.1-1.7-1.9-3-0.5-5c5-7,5-13,14.9-19.3
			c3-1.9,6.4-5.1,8-5.5c-1.4,2.2-6.7,5.5-8.9,7.1c1.5-0.1,6.3-3.3,7.4-4.2l3.1-2.7c2.3-2,1.6-2,3.7-2.2l-1.4-0.4
			c1.5-0.4,1.6-0.6,3.4-0.9l-2.5,0.2c1.1-1.1,1.9-0.9,3.6-1.2l-2.8,0.2c1.4-2.4,3.3-1.8,4.4-2.2l-2.8,0.2c0.7-0.6,0.6-0.4,1.2-0.5
			l-0.4-0.2L181,11c-0.7-0.4-0.1,0.2-0.2-0.1c1.5-0.7,2.6-0.4,4.3-0.3c-1.3-0.8-2.5-0.3-3.9-0.4c0.5-0.6,1.1-1.5,1.7-2.1l6.2-5.7
			h-1.4c-0.7,0.7-1.6,1.3-2.4,1.9c-2.5,2-5.6,5.9-6.4,6.2c5.5-7.4,5.3-5.5,7.2-7.5l0.5-0.6c-1.5,0-1.3-0.2-2.3,0.6
			c-2.8,2.2-3.8,3.3-6,6.1c-2,2.5-4.6,5.5-6.8,7.5l-10.4,9c-0.8,0.6-1.7,1.7-2.4,2.3C154,32.3,149,42.8,147.7,43.6L147.7,43.6z
			 M118,69.5c-0.4,0.5-0.7,0.8-0.8,1.1l-0.4,0.6c-1.8,2.8,0.1,4.4,2.5,5l-0.9-1.7l-0.1-0.7c-1.4-0.6-1.2-1.8-0.3-3.1L118,69.5z
			 M134.1,65c-1.1-0.2-2-0.8-3.2-1.1c0.5,0.4,1.1,0.8,1.9,1.1c0.1,0.1,0.3,0.1,0.4,0.1L134.1,65L134.1,65z M131.5,65.4
			c-1.2-0.4-2.1-1.1-2.7-1.6c0.7,1,1.3,1.4,1.9,1.8L131.5,65.4L131.5,65.4z M129.7,65.7c-0.4-0.2-0.7-0.4-1-0.5
			c0.1,0.2,0.3,0.4,0.6,0.6C129.2,65.8,129.7,65.7,129.7,65.7z M128.4,66c-0.5-0.3-0.9-0.7-1.2-1c0.3,0.5,0.5,0.8,0.8,1.1L128.4,66z
			 M59.1,96.7c-2.5-1.6,0-3.4,0.8-4c-2.6,0.5-4.4,4.2-0.1,4.5L59.1,96.7z M90.8,108.6c0.8,3.9,0,1.2,1.3,4.8l0.1,1.2
			c0,0.1-0.1,0.1-0.1,0.2c-0.3,0.9-2.8-0.1-3.5-1.6c0.9,0.5,1.2,0.8,2.2,1.1c-0.8-1-1.9-2-3-2.5l1.6-0.1c-1.8-0.3-1.8-0.7-2.6-2.2
			l-0.5-0.4c0.5-0.7-0.1-0.3,0.8-0.5C87.2,108.6,90.8,108.6,90.8,108.6z M69.3,97.6c4.8,1.4,4.7-2,9.8,1.8c-1.5,0.9-4,0.5-5.8,0.5
			C70.8,99.7,70.1,99.5,69.3,97.6z M66,94.1c-0.5,0.7-0.4,0.7-1.5,1l0.9-1.7c-0.8,2.6-4,1.9-4.4,0.7c1-0.4,2-0.7,3-1l2.8-1
			C66.8,92.1,66,94.1,66,94.1z M73.6,91.4c1.4,0,6.8,1.2,8.1,1.8c2.7,1.1,4.2,2.2,5.2,5.1c-1.6,0-2.8-0.3-3.9,0
			c-0.5,0.2-1.1,0.5-1.7,0.4h-0.1c0,0-0.1,0-0.2-0.1l-1.5-0.5c1.7-0.7,2.3-0.1,3.8-1.5c-1.3,0.4-2.4,0.8-3.9,0.8
			c0.1,0,0.2-0.2,0.2-0.1c0,0.1,0.2-0.1,0.4-0.2l1.7-0.6c0.7-0.3,1.2-0.8,1.5-1.3c-0.7,1.2-3.5,1.4-5.3,1.4c0.8-0.9,1.6-1.2,2.1-2.8
			c-0.9,0.8-1.8,1.6-3.3,2.2c-0.2-0.3,0,0,0-0.3c0-1.4,0.4,0.5,0-0.3c-0.9,1.2-0.9,0.1-2.5,0.8v-0.4c0-1.4,0.6,0.5,0-0.4l-1.8,0.2
			c-0.7,0.4-0.6,0.5-1.5,0.5c0.5-0.4,1.3-0.7,1.5-1.2l0.4-0.7c0.4-0.5,0,0.1,0.4-0.4l-2.5,1.4c-0.9,0.2-0.4,0.2-0.9-0.2l1.1-0.9
			c1.2-1.5,1.8-1.2,2.4-2.2C73.3,91.9,73.6,91.4,73.6,91.4L73.6,91.4z M66,94.1c0.7-1.1,0.7-2.1,1.9-2.4c0.8-0.3,1.1-0.7,1.7-1.3
			c0.4-0.4,0.2-0.3,0.6-0.5c-0.5,3-1.7,3.6-2.5,4.9c-0.3,0.5-0.4,1.1-0.7,1.7c-0.6-0.2-1.5-0.7-1.9-1.2C65.4,94.7,65.5,94.7,66,94.1
			z M81,91.3c0.6-0.8,1.5-1.3,1.7-2.9c-0.7,1.1-1.4,2.8-3.2,2.6c0.7-0.7,1.4-1.1,1.7-2.4c-0.7,0.8-1.5,2.2-2.7,2.2l1.3-1.4
			c-1.1,0.5-1,1.1-2.3,1.3c0-0.1,0.1-0.2,0.1-0.2l1.2-1.5c-0.9,0.4-0.9,0.6-1.7,1.2C76.6,90,77,90,76.8,89.8l-0.6-0.3
			c0.6-1,0.5-1,1.6-1.7c3.4-2,2.8-1.7,7.4-0.6c7.2,1.7,5.9-1.9,10.1,2.3c1.4,1.4,1.8,1.7,3.8,2.7c5.1,2.5,4.5,3.1,8.2,5.2
			c1.3,0.7,4.5,3.3,1.8,4.2c-0.3,0.1-0.7,0.3-1.2,0.4c0.5-0.4,0.9-0.8,1.4-1.2c-0.9-0.5-1.7,0.7-2.4-0.5l-0.1-0.2
			c-0.8,0.6-2.3-0.1-3.3-0.6l-1.1-0.7c-0.1-0.1,0.5-0.4-0.6,0c-0.7,0.2-0.4,0.2-1,0.5c0,0,0-0.2,0-0.1v-0.1v-0.2l-0.5-0.5
			c0,0,0,0-0.1-0.1l-0.6-0.4l-0.2-0.1l-0.2-0.5v-0.1c0,0-0.3-0.3,0-0.6l-1.2,0.3c0.5-0.9-0.2-0.1,0.8-0.8c-1.2,0.2-1.2,0.3-2.1-0.3
			l1.2-1.4c-1.6,0.3-4.1,0.7-5.9-0.4l-0.2-0.2l-0.1-0.1l-0.7-0.4L91,93.2c0,0-0.2-0.1-0.2-0.2l-0.1-0.1l-1.6-1
			c1-0.8,1.1-0.7,1.7-1.9c-0.7,0.7-1.2,1.4-2.5,1.7c1-0.8,1.3-1.2,1.7-2.5c-0.7,0.6-0.7,0.8-1.5,1.3l0.3-1.8c-0.6,1.1-0.8,2.1-2,2.4
			l0.8-1.8c-0.9,0.9-0.8,1.5-2.2,2l1-1.7c-0.9,0.8-1.4,1.9-2.6,1.9l1.2-1.8c-0.9,0.7-1.2,1.6-2.4,1.8c0.6-0.9,1.6-1.7,1.6-3.2
			C84.1,89,82.7,91.3,81,91.3L81,91.3z M83.1,85.2c0.5-1.1,0.9-1.8,2.2-2.1c-0.3,0.7-0.4,0.7-0.8,1.4C83.9,85.3,84.3,85.2,83.1,85.2
			z M86.1,86.2c0.4-0.7,0.5-0.6,0.9-1.4c-1,0.8-0.5,1-1.8,1c0.4-0.9,1.4-3,2.3-3.4c6.9-2.8,6.7-4.2,12.5,0.6
			c1.1,0.9,1.9,1.8,2.9,2.9c1.1,1.1,2,1.8,3,2.8c1.2,1.1,5.4,4.2,7,4.9c-0.4-0.4-0.8-0.8-1.3-1.2c-0.2-0.1-0.4-0.3-0.7-0.5l-0.9-0.8
			c1.4,0.7,3.1,2.1,4.5,3c4.3,3,0.1,6-5.5,2.9c-2.6-1.4-1.6-1.1-2.9-2.1l-1-0.6l0.8-0.7c-0.8,0.3-0.4,0.4-1,0.1
			c0.8-0.5,0.9-0.7,1.2-1.7c-0.3,0.4-0.1,0.2-0.4,0.4c-0.6,0.5,0.1,0.1-0.7,0.5l0.7-1.7c-0.7,0.5-1.2,1.5-2.5,1.7
			c-2.1,0.3-4.9-2.2-6-3.7l-0.7-0.8c0,0-0.1-0.1-0.2-0.1c0.7-0.4,0.4,0,0.9-0.8c-0.8,0.7-1,0.5-1.1,0.4l-1.2-0.2
			c0.8-0.4,1.2-0.8,1.5-1.7c-0.4,0.8-1.1,1.3-2.2,1.4c0.6-0.6,1.2-1.1,1.5-2c-0.5,0.8-0.6,1-1.5,1.5c0.2-1.5,0.5-1.9,0.3-3.6
			c-0.8,0.8-0.8,2.3-2.5,2.8c0.6-1.1,1.4-1.7,1.3-3.4c-0.1,0.8-0.8,1.6-1.3,2.3c-0.6,0.8-0.9,1.4-2.2,1.6c0.7-1,1.4-1.5,1.5-3.2
			c-0.9,1.3-1.3,2.7-2.8,3.2c0.8-0.9,1.3-1.3,1.6-2.8c-1.1,1.3-1.5,2.7-3,2.6c0.8-0.7,1.9-1.9,1.9-3.6
			C88.6,84.1,87.2,85.8,86.1,86.2L86.1,86.2z M83.7,71.9c-2.6,0.4-4.8,0.9-7.3,1.3C73,73.7,72,73,69,72.8c-8.8-0.6-15.6,7.7-24,10.2
			c-2.6,0.8-4.2,0.3-7.1,1.5c-2,0.9-3.7,2-5.7,2.8c-5.5,2.4-8.4-0.8-13.7,3.3c-6,4.6-11.1,18.9-13.3,20.4l-0.5,0.8v1.7
			c1.6-1.4,3.9-5.3,5.1-7.7c1.5-2.8,2.8-5.8,4.4-8.4c7-10.8,11-7.6,16.6-7.4l-1.4-0.9c2-0.7,3.2-1.7,4.8-2.2
			c-1.1,0.8-2.2,1.9-2.7,3.3l1.8-1.8c0.7-0.6,1.1-1,1.9-1.4c4.7-2.3,9.5-0.8,15.7-4.1c7.5-4.1,10.7-7.8,18.5-8.2
			c-9.5-2.2-13,8.5-28,10.1c-1.6,0.2-3.1,0.6-4.5,0.7c4.3-1.2,7.8-1.3,12-3.1c3.8-1.8,6.2-3.5,9.5-5.3c13.5-7.6,15.8,1,24.3-3.1
			c-2.5,0.3-3.6,0.5-6.3,0.3c1.9-0.5,5.1-1,7.2-1.4c2.3-0.4,5-1.5,6.9-1.6c-1.4,0.6-3.8,0.9-5.1,1.8c2.6-0.2,5-1.3,7.7-1.5
			c3.3-0.2,5.2,1,7.5,1.1c-0.5-0.3-2.2-1.3-2.7-1.6c1.5,0.3,3.3,1.5,4.8,2.2c1.6,0.7,3.4,1.4,5.1,2c1.8,0.7,3.2,1.5,4.9,2.2
			c1.6,0.6,3.8,1.1,4.7,2.3c-0.3,2.4-4.7,3-7.3,2.3c-1-0.3-2.9-0.8-3.2-1.6l-0.1-0.4c-0.1-0.2-1.3-0.1-0.8-1.1l-1.2,0.6
			c0.3-0.5,0.5-0.6,0.8-1.2c-2,1.3-2,1.8-5.6,1.4c-1.2-0.2-2.8-0.7-4.7-0.8l0.3-0.9c-0.6,0.6-0.1,0.2-0.8,0.6c0.4-1.4,0.2-1.2,0-1.5
			c-0.5,1.3-0.8,1-2.1,1.8c-0.9,0.6-1.1,1.1-2.1,1.6c-1.1,0.5-2.2,0.7-3,0.8c-1.7,0.2-0.3-0.3-1.4,0.2c-0.4-0.6-0.3-0.2-0.3-1.2
			c-0.3,1.4-0.5,1.1-0.8,1.3v-2.3c-1.4,4.1-5.5,6.8-9.5,8.1c0.3-3.6-0.2-3.2-0.9-6c-0.2,3.2,1,5.2-1.2,7.9c0.6-2.8,1.1-4.1,0.6-7.2
			c-0.4,3.9-0.6,7.1-2.9,9.5c0.8-2.2,1.7-3.9,1.7-6.6c-1.2,2.7-1.1,5.5-3.3,7.8c0.6-2.3,1.6-3.4,1.7-6.3c-1.3,3.1-1.8,3.9-5.2,5.1
			c-2.2,0.8-6.4,1-6.8,3.4c1.6,2.8,5.3,0,7.4,2.5c-1.7-0.5-3.2-1.3-4.8-0.3c1.2,0,2.2,0,2.8,0.4l1,0.3c-0.4,0.3-0.5,0.3-0.8,0.6
			l1,0.1l-0.4,0.5c0,0-0.1,0.1-0.2,0.1c0,0-0.1,0.1-0.2,0.1c0,0-0.1,0.1-0.2,0.1c1.1-0.4,1.2-0.4,1.7-0.1c-1.5,0.5-2.3,1.3-3,2.5
			c0.5-0.5,3-3,4.2-2.5c-0.6,0.6-3.9,1.7-3.5,4.3c-0.4-1.4,2.3-3.9,4.7-3.8c-1.6,0.8-1.7,0.6-2.8,2c-0.9,1.3-0.8,2.4-0.4,3.5
			c0.2-2.2,1.4-3.8,3-4.5c2-0.8,5.1-0.4,7.3-0.4c-0.4,0.6-0.6,0.7-1,1.5c3.5-2.7,6.5-2.3,9.2-2.6L81,99.3c1.4-0.4,12.9-1.8,15.5,3.2
			c1,1.9,0.3,3.6-1,4.5c-2.3,1.8-8.1,0.8-11.5,1.2c-1.8,0.2-4.1,0.8-5.1-0.4c-1.1-1.3-1.4-3.5-0.9-5.3l1.6-0.6
			c-1.9-0.2-2.5,0.9-2.4,2.9c0.2,2.3,1.1,2.5,1.8,3.7c-5.7,0.4-7.8,1.7-9,1.7c-2.3,2-5.4,0-7.5-0.6c0.8,0.8,2.1,1.5,3.5,1.8
			c-2.4,0.1-4.1-1.2-6.1-1.9c0.9,0.8,2.7,2.1,4.2,2.1c-2.6,0.4-4.8-1.4-6.8-2.1c0.8,0.9,1.9,1.2,2.9,2c-2.3-0.2-4-1.5-5.1-1.6
			c0.7,0.3,1.6,1,2.6,1.5c1,0.5,2.2,0.6,3,1.2c-3.4,0.6-5.9,0.3-8.4-1.2c-0.1,0.1-0.1,0.2-0.1,0.2l-0.1,0.1
			c-0.4,0.2-0.2-0.1-0.6-0.5c-0.3-0.2,0-0.1-0.4-0.2l0.2,0.6c0.3,0.5-0.1,0,0.4,0.5c1.7,1.5,2.7,1.6,4.5,2c-2.8,0.3-4.4-1.4-6.6-2.1
			l2.7,1.9c-1.3-0.1-2.1-0.6-3.1-1c0.4,0.4,1.1,0.8,1.5,1.4c-1.6-0.2-2-0.9-3.2-1.4c0.3,0.3,0.6,0.6,1.1,0.9l1,0.8
			c-1.8-0.2-4.1-2.2-5.7-3c0.6,0.6,1.4,1.1,2.1,1.7l2.2,1.9c-1.8-0.3-2.8-1.3-3.9-2.2c-1-0.8-2.2-1.5-3.4-2.1l4.5,3.9
			c0,0,0.1,0.1,0.1,0.2c-2.4-1-5-3.9-7.3-4.7l1,1c0.3,0.2,0.5,0.4,0.9,0.6l5.7,3.8c-2.5,0.1-8.9-5-11.6-5.9c0.3,0.3,0,0,0.4,0.4
			l6.2,4.3c-4.5-1.2-7.8-5.2-12.9-6c-1.6-0.1-3.1,0-4.5,0.6c-4.8,1-3.2,3.7-9.3,3.6l2.3,0.5c-2.1,0.5-1.9,0.4-4.1,0.1
			c1.1,0.6,1.3,0.6,2.8,0.7c-1.6,0.7-2.8,0.3-4.4,0c1.5,1.2,2.3,1.1,4.5,0.8c-0.6,1.1-2.6,3.3-2.7,3.6l-1.2,2.5
			c-0.2,0.5,0.4,1.3-2.3,1.8c0.8,0,1.3-0.2,1.9-0.4c-0.7,1.5-1.6,1.2-2.8,2.1l2.1-0.6c-0.7,1-1.6,1.1-2.8,1.7c1.1,0,1.7-0.4,2.6-0.7
			c-0.3,1.5-2.4,1.6-4.2,2c1.2,0.3,2.6-0.1,3.7-0.5c-0.7,1-2.9,1.6-4.7,1.6v0.2c1.8,0.1,2.7-0.2,4.3-0.7c-0.5,1.4-2.8,1.5-4.3,1.6
			l0.1,3.5c0.6-0.1,1.6-0.2,2-0.4c1.6-0.7,5.1-9.9,5.8-11.5c1.8-3.7,5.2-8.7,9.4-10.1c-3.9,2.3-7.1,6.1-9.3,11l-5.9,14.9
			c1.1-0.9,1.8-2.6,2.4-3.8c4-8.1,5.6-17.3,14.4-22c1.4-0.8,3.2-1.4,4.9-0.8c-2.3,1.2-4.2,2.3-5.1,5.5c0.8-0.9,1.4-2.3,2.3-3.3
			c0.9-0.9,2.2-1.8,4.2-1.7c-1.7,1.2-5.4,3.1-6.1,6.9c0.9-2.3,4.7-7.2,7.3-6.4c-1.9,1.6-2.9,1.1-5.3,4.8c-1.2,1.8-2.7,4.9-2.4,7.6
			c-0.3-2.2,1.8-5.6,2.9-7.2c1.1-1.6,3.2-4.5,6-4.4c-2.4,1.8-3.6,1.9-6,6c-1.4,2.4-2.5,6.5-2.3,9.7c0.8-2.6,0.7-5.5,2.6-9.1
			c1.2-2.2,3.5-5.4,6.2-5.9c-1.9,1.9-3.1,1.7-5.4,6.1c-1.4,2.6-2.5,6-2.4,9.4c0.6-1.3,0.8-3.3,1.3-4.8c1.1-3.2,5.1-11,8.4-10.1
			c-0.7,1.2-2.2,1-4.3,3.9c-4.4,6.1-4.8,12.1-4.9,19.8c1.2-2.5,0.5-8.2,2.9-14.1c1.2-2.8,5.1-9.3,7.9-8.6c-0.5,1.3-5.8,2-8.3,14.2
			c-0.7,3.2-1.1,6.6-1.4,9.9c-0.2,1.6-0.3,3.2-0.6,4.9c-0.3,1.7-0.8,3.2-1,4.5c3.2-9.2,2.3-23.2,9.4-30.6c0.9-1,1.8-2.6,3.1-2.1
			c-4.4,4.3-6.1,7.8-7.5,14.6c-0.7,3.1-1.1,6.3-1.5,9.5c-0.5,3.3-1.3,6-2.1,9l0.9,0c3-9.9,2.7-19.5,6.1-26.3
			c1.1-2.2,3.2-5.5,4.8-6.3c2,0.5,3.2,1.3,5.8,1.6c3.2,0.3,9.7-0.4,12.7-1.6c2.3-1,2-2.1,5.4-2.4c8.1-1.5,4.2-1,10.6-2.8
			c2.8-0.8,11.2-1.6,12-1.2c1.4,0.7,2.4,8.2,7.9,6.3c0.5-1.8-0.7-4.5-1-6.6c3.1-0.1,5.3-0.1,5.8-2.9c1.4-7.2-8.7-6.6-9.7-7.5
			c-1.1-1.1-0.3-2.6-2.5-4c-0.6-0.4-1-0.5-1.4-0.9c2.1,0,2.7-0.8,4.4,0c1,0.5,2.2,1.5,3.4,2.1c1.4,0.7,3.5,0.9,4.2,1.3
			c0.9,0.6,4.5,5.4,10,6.3c4.3,0.7,6.1-1.6,3.7-4.5c1.9,0.3,3.4,0.9,5.4,0.1c1.6-0.6,2.8-2.2,1.2-3.9l-7.3-5.6
			c-0.7-0.4-0.2-0.1-0.7-0.5c0,0-0.3-0.4-0.5-0.5c-0.8-0.8-0.5-0.3-1-1.1c-1-0.9-1.5-1.7-2.3-2.7l-1.9-1.8c-1.8-1.9-1-0.5-2-1.5
			c0.7-0.5,1.5-0.4,2.6-0.3c0.8,0,1.4,0,2.1,0.4c3.8,2.5,9,3.6,12,1.1c1.4-1.1,1.9-2.7,0.2-3.8c-1.1-0.7-2.2-1-3.5-1.4
			c-1-0.3-1.6-0.3-2.4-1c-1.9-0.9-3-1.4-4.7-2c-0.6-0.2-1.3-0.5-1.8-0.7l-3.1-1.4C93.9,67.9,92.4,70,83.7,71.9L83.7,71.9z
			 M187.6,53.2c2.6,0,4.3-1.7,5.7-3c1.2-1,2.6-3.2,2.7-5.5c-1.4,2.5-1.3,3.4-3.6,4.8C190.9,50.5,187.8,51.2,187.6,53.2L187.6,53.2z
			 M194.5,16.4c0.8-0.4,2.2-1.9,5.4-3.5c4.2-2.1,13.8-5.6,17.2-8.4c0.5-0.4,0.4-0.3,0.7-0.7c-1,0.4-1.7,1-2.8,1.6
			c-3.1,1.5-6.4,2.6-9.6,3.8C201.5,10.7,196.2,13.7,194.5,16.4L194.5,16.4z M196.4,27.2c3.8,2.1,6.3,0.2,9.3-1.3
			c3.2-1.6,6.3-1.8,10-2.6c3.6-0.8,6.4-2,9-3.6l7.4-5c-5.9,2.4-5.7,5.3-17.2,7.4C200.6,24.7,205.7,27.9,196.4,27.2z M24,98.9
			c0.6,1,0.7,2.6,0.2,3.7c-2.2,4.3,1.6,3.2,1.1-0.8C25.1,100.6,24.5,99.6,24,98.9z M53,101.7c-0.3,0.9-0.8,1.5-1,2.7
			c-0.3,1.7,0.2,2,0.4,3.1c0.2-3.2,1.1-5.3,3.9-7.2c1-0.7,1.9-0.9,2.3-1.4c-1.9,0.4-3.7,1.2-5,2.5l-0.4,0.3
			C53.1,101.6,53,101.7,53,101.7z M12.4,103.2c0.3-0.2,0.2-0.1,0.4-0.4l3.8-5.8c2.3-3.5,3.1-3.6,5.1-5.3
			C17.1,92.2,13.6,99.8,12.4,103.2z M11.2,131.1c0.2-0.2,0.2-0.2,0.4-0.4c0.1-0.2,0.2-0.3,0.3-0.5c2.2-4.3,3.1-7,6.2-11.7l2.7-4
			C16.7,116.2,12.2,127,11.2,131.1z"/>
		<path d="M188.5,55.8l-0.3-0.4l-1,0.2L167.7,59c-0.1,0.2-0.2,0.3-0.3,0.5l20.1-3.6l10,11.9l-27.2,5l-0.5-0.6l23.6-4.3
			c1.3-0.2,2-0.9,1.6-1.4l-7.5-9c-0.4-0.5-1.8-0.7-3-0.5L167,60.2c-0.4,0.6-0.7,1.1-0.8,1.5l3-0.5l0,0.1l0.1,0.1l0.1,0.1l0.4,0l0,0
			l0.1,0.1l-0.3,0.1l-0.1,0l-1,0.2l-0.2,0l-0.2,0l-0.2,0L167,62l-0.2,0l-0.2,0l-0.2,0l-0.3,0.1l-0.1,0c0,0.1-0.1,0.3-0.1,0.4
			l0.5,0.6l-0.6,0.1l-0.1,0c0,0.1-0.1,0.2-0.1,0.3c0,0,0.1,0,0.1-0.1c0.1,0,0.3-0.1,0.5-0.1c0.3-0.1,0.4-0.1,0.6-0.1
			c0.1,0,0.2,0,0.3,0c0,0,0.1,0.1,0.2,0.2c0.1,0.1,0.1,0.2,0.1,0.2c0,0,0,0.1-0.1,0.1c-0.1,0-0.3,0.1-0.5,0.1
			c-0.3,0.1-0.4,0.1-0.6,0.1c-0.1,0-0.2,0-0.3,0c0,0-0.1-0.1-0.2-0.2c-0.1-0.1-0.1-0.1-0.1-0.2c0,0.1-0.1,0.2-0.1,0.3
			c0,0,0.1,0.1,0.1,0.1c0.1,0.1,0.3,0.1,0.5,0.1c0.2,0,0.4,0,0.7-0.1c0.3-0.1,0.5-0.1,0.7-0.2l0,0l0.4-0.1l0.6-0.1l0.4-0.1l-0.1-0.1
			l0-0.1l0.1,0l0.4-0.1l-0.1-0.1l-0.1-0.1l0.1,0l-0.1-0.1l-0.1-0.1l0.1,0l0.3-0.1l0.2,0l0,0.6l0,0.2l0.5-0.1l0.6-0.1l0.3-0.1l0,0
			l0,0l0.3-0.1l0.4-0.1l0.2,0l0.1,0l0.3-0.1l0.2,0l0.4-0.1l0.3-0.1l0.3-0.1l0.4-0.1l0.1,0l0.3-0.1l0.1,0l1.1-0.2l0.1,0l0.3-0.1
			l0.1,0l0.5-0.1l0.4-0.1l0.4-0.1l0.1,0l0.2-0.1l0.3-0.1l0.3-0.1l0.4-0.1l0,0l0,0c0.2,0,0.4,0,0.7-0.1c0.1,0,0.2,0,0.3-0.1
			c0,0,0,0,0.1,0l0.2-0.1l0.6-0.1l0.3-0.1l0,0l0,0l0.3-0.1l0.6-0.1l0.5-0.1l-0.3-0.2l-0.8-0.5l0.3-0.1c0.1,0,0.1,0,0.2,0
			c0.1,0,0.3,0,0.4-0.1c0.2,0,0.3-0.1,0.4-0.1c0.1-0.1,0.3-0.1,0.3-0.2c0.1-0.1,0-0.2,0-0.3c0-0.1-0.1-0.1-0.2-0.2l-0.1-0.1
			l-0.1-0.1l-0.1-0.1l-0.3,0c-0.1,0-0.2,0-0.3,0c-0.1,0-0.3,0-0.4,0.1c-0.2,0-0.3,0.1-0.4,0.1c0,0-0.1,0-0.1,0l0,0l-0.4,0.1
			l-1.1,0.2l-0.2,0l-0.2,0l-0.2,0l-1.3,0.2l-0.1,0l-0.2,0l-0.1,0l-0.8,0.2l-0.1,0l-0.2,0l-0.1,0l-0.3,0.1l0-0.1l0-0.1l-0.1-0.1
			l-0.1-0.1l0-0.1l10.7-1.9c0.4-0.1,0.9-0.1,1.2,0l-0.3,0.1l0.7,0l0,0l0.1,0.1l-0.5,0.2l0.7,0l0.1,0.1l-0.5,0.2l0.7,0l0.1,0.1
			l-0.5,0.2l0.7,0l0.1,0.1l-0.5,0.2l0.7,0l0.1,0.1l-0.5,0.2l0.7,0l0.1,0.1l-0.5,0.2l0.7,0l0.1,0.1l-0.5,0.2l0.7,0l0.1,0.1l-0.5,0.2
			l0.7,0l0.1,0.1l-0.5,0.2l0.7,0l0.1,0.1l-0.5,0.2l0.7,0l0.1,0.1l-0.5,0.2l0.7,0L191,63l-0.5,0.2l0.7,0l0.1,0.1l-0.5,0.3l0.7,0
			l0.1,0.1l-0.5,0.3l0.7,0l0.1,0.1l-0.5,0.3l0.7,0l0.1,0.1l-0.5,0.3l0.7,0l0.1,0.1l-0.5,0.3l0.7,0l0.1,0.1c0,0,0,0,0,0.1l-0.5,0.3
			l0.5,0c-0.1,0.2-0.4,0.4-0.9,0.5l-23.7,4.6l-2.5-2.7c0-0.1,0-0.2,0-0.3c0-0.1,0-0.1,0-0.2c0-0.1,0-0.1-0.1-0.2
			c-0.1-0.1-0.1-0.3-0.2-0.4l-0.1-0.2l-0.1-0.2l0-0.1l0-0.1l-0.1-0.2c-0.2-0.2-0.4-0.5-0.6-0.7c0,0.1,0,0.2-0.1,0.3
			c0.1,0.1,0.2,0.3,0.4,0.4l0.1,0.2l0,0.1l0,0.1l0.1,0.2l0.1,0.2c0,0.1,0.1,0.3,0.1,0.4c0,0,0,0.1,0,0.1l-1-1.1
			c-0.1,0.3-0.1,0.6-0.2,0.9l5.3,5.8l0.5,4.9l-11.2,2.2l-0.6-4.6c-0.3,0.1-0.5,0.1-0.8,0.2l0,0.3c-3.1,0.6-6.1,1.1-9.1,1.6
			c-4.2,0.8-8.2,1.4-11.5,2c-3.4,0.6-6.2,1.1-8.2,1.4c-2,0.3-3.1,0.5-3.1,0.5s1.2-0.2,3.1-0.6c2-0.4,4.7-0.9,8.1-1.5
			c3.4-0.6,7.3-1.4,11.5-2.1c2.3-0.4,4.6-0.8,7-1.3c-0.6-0.1-1.2-0.3-1.6-0.5L125.6,81L119,68.1l28.9-5.1l0.4,0.5L123,68
			c-1.3,0.2-2.2,0.9-1.9,1.4l5,9.7c0.3,0.6,1.7,0.9,3.1,0.6l24.3-4.4c-0.1-0.2-0.2-0.3-0.3-0.5c-0.4,0-0.9,0-1.4-0.1
			c-0.6-0.1-1.3-0.1-1.9-0.2l-0.4,0.1c-0.5,0-1.1-0.2-1.7-0.3c-0.4-0.1-0.9-0.2-1.2-0.4c-0.2-0.1-0.4-0.2-0.6-0.2
			c-0.1,0-0.2-0.1-0.3-0.1c-0.1,0-0.2-0.1-0.3-0.1c-0.4-0.2-0.7-0.3-1-0.5c-0.1-0.1-0.2-0.1-0.2-0.2l-0.1-0.1l-0.1-0.1
			c-0.1-0.1-0.2-0.1-0.2-0.2c-0.1-0.1-0.1-0.1-0.2-0.2c-0.1-0.1-0.1-0.1-0.2-0.2c-0.1-0.1-0.1-0.1-0.2-0.2c-0.1-0.1-0.2-0.2-0.3-0.3
			l-0.2-0.2l-0.1-0.2l-0.1-0.1l0-0.1l-0.1-0.2c-0.1-0.3-0.3-0.5-0.3-0.8c0-0.1-0.1-0.3-0.1-0.4c0-0.1,0-0.1,0-0.2c0-0.1,0-0.1,0-0.2
			c0-0.1,0-0.1,0-0.2c0-0.1,0-0.1,0-0.2l0-0.1l0-0.1c0-0.1,0-0.1,0-0.2c0-0.3,0.1-0.5,0.2-0.7c0-0.1,0.1-0.1,0.1-0.2
			c0-0.1,0.1-0.1,0.1-0.2c0.1-0.1,0.1-0.2,0.2-0.4c0.2-0.2,0.4-0.5,0.6-0.7c0.3-0.3,0.6-0.6,1-0.8l0.3-0.1c0.1,0,0.2-0.1,0.2-0.2
			c0.2-0.2,0.6-0.4,0.9-0.5c0.3-0.2,0.6-0.3,1-0.5c0.7-0.3,1.3-0.5,2.1-0.7l0.1,0.1c-0.7,0.2-1.4,0.4-2,0.7
			c-0.3,0.1-0.7,0.3-0.9,0.5c-0.3,0.2-0.6,0.3-0.8,0.5c-0.5,0.4-0.9,0.7-1.3,1.1c-0.7,0.7-1.1,1.6-1.1,2.3c0,0.8,0.3,1.5,0.7,2.2
			c0.5,0.7,1.3,1.3,2.2,1.8c0.9,0.5,2,0.9,3.1,1.2c0.6,0.1,1.2,0.3,1.7,0.4c0.6,0.1,1.1,0.2,1.7,0.2c0.5,0,0.9,0.1,1.3,0.1
			c0,0,0-0.1,0-0.1l0,0c-0.1,0-0.1,0-0.1,0s0,0,0.1,0l0,0c-0.1-0.3-0.2-0.7-0.2-1.2c-0.2,0-0.3,0-0.5,0c-0.3,0-0.5-0.1-0.8-0.1
			c-0.2-0.1-0.5-0.1-0.7-0.1c-0.2-0.1-0.4-0.1-0.5-0.1c-0.2,0-0.3-0.1-0.4-0.1c-0.2-0.1-0.3-0.1-0.3-0.1s0.2,0,0.4,0
			c0.3,0,0.6,0.1,1.1,0.1c0.4,0,0.9,0.1,1.4,0.1c-0.2-0.1-0.4-0.1-0.6-0.1c-0.6-0.1-1.1-0.2-1.5-0.2c-0.8-0.1-1.3-0.3-1.3-0.3
			s0.2,0,0.4,0.1c0.3,0,0.6,0.1,1.1,0.2c0.2,0,0.5,0.1,0.7,0.1c0.3,0,0.5,0.1,0.8,0.1c0.3,0,0.6,0.1,0.9,0.1l0,0c0-0.1,0-0.2,0-0.3
			c-1.3-0.2-2.8-0.5-3.5-0.8l-0.2-0.5c0.1,0.1,0.2,0.1,0.4,0.2c0.4,0.2,0.9,0.4,0.9,0.4s-0.4-0.2-0.7-0.4c-0.2-0.2-0.4-0.3-0.5-0.4
			c0,0,0,0,0.1,0c0.1,0,0.1-0.1,0.1-0.1c0,0,0-0.1,0.1-0.1c0,0,0,0,0-0.1c0,0,0-0.1,0-0.1s0,0-0.1,0c0,0,0,0-0.1,0
			c0,0-0.1,0-0.1,0.1c0,0-0.1,0-0.1,0.1c0,0-0.1,0-0.1,0l0,0l0,0c0,0,0,0,0,0l-0.1,0l0,0l0,0c0,0-0.1,0-0.1,0
			c-0.2-0.1-0.4-0.2-0.6-0.2c0-0.1-0.1-0.1-0.1-0.2c0.3,0.2,0.9,0.1,1,0c0,0-0.5,0.2-0.6-0.4c0,0,0-0.1,0-0.1c0.1,0,0.1-0.1,0.1-0.1
			s0.2-0.7,0.2-1.5c0-0.8-0.6-1.1-0.6-1.5c0-0.4,0.1-0.8,1.8-1.3l1,1.3c-0.1,0-0.1,0-0.1,0.1c-0.1,0-0.1,0-0.1,0.1c0,0,0,0,0,0
			s0,0,0.1,0c0,0,0.1,0,0.2-0.1c0,0,0.1,0,0.1-0.1l0.2,0.2c-0.1,0-0.2,0.1-0.3,0.1c-0.1,0-0.1,0-0.1,0.1c0,0-0.1,0-0.1,0s0,0,0.1,0
			c0,0,0.1,0,0.2-0.1c0.1,0,0.1-0.1,0.3-0.1l0.4,0.5c-0.1,0-0.1,0-0.1,0.1c-0.2,0.1-0.4,0.2-0.5,0.2c-0.1,0.1-0.2,0.2-0.2,0.2
			c0,0,0,0.1,0,0.1s0,0,0.1-0.1c0.1,0,0.2-0.1,0.4-0.1c0.1-0.1,0.3-0.1,0.5-0.2l0,0l0.1,0.1c-0.1,0-0.1,0.1-0.2,0.1
			c-0.1,0-0.1,0.1-0.2,0.1c0,0-0.1,0.1-0.1,0.1c-0.1,0.1-0.1,0.1-0.1,0.2c0,0,0,0.1,0,0.1s0,0,0.1,0c0.1,0,0.1-0.1,0.3-0.1
			c0,0,0.1,0,0.2-0.1c0.1,0,0.1-0.1,0.2-0.1c0,0,0.1,0,0.1,0l0.1,0.1c-0.1,0.1-0.3,0.2-0.4,0.2c0.2,0.1,0.4,0.1,0.7,0.1l1.3,1.7
			c0.1-0.2,0.2-0.5,0.3-0.7l-5.1-6.5l7.7-1.3c0.1-0.3,0.1-0.5,0.2-0.8l-38,6.7l-1,0.2l0.7,6.7l7,13.6c0,0,14.2-2.9,33.1-6.6
			l12.6-2.4c17.6-3.3,28.3-4.7,28.3-4.7l-0.6-6.1l-0.4-0.5L188.5,55.8L188.5,55.8z M163.1,74.8c0.3,0,0.7-0.1,1-0.1
			c0.3-0.1,0.7-0.1,1-0.2c0.3-0.1,0.6-0.1,1-0.2c0.6-0.1,1.2-0.2,1.7-0.4c1-0.2,1.6-0.4,1.6-0.4s-0.7,0-1.6,0.1
			c-0.5,0-1.1,0.1-1.7,0.2c-0.3,0-0.6,0.1-1,0.1c-0.3,0-0.7,0.1-1,0.1c-0.3,0.1-0.7,0.1-1,0.2c-0.3,0.1-0.6,0.1-1,0.2
			c-0.5,0.1-0.9,0.2-1.3,0.3c-0.2,0.1-0.4,0.3-0.6,0.4c0.1,0,0.2,0,0.2,0c0.5,0,1.1-0.1,1.7-0.2C162.5,74.9,162.8,74.9,163.1,74.8z
			 M171.1,70.2c0,0.1,7.6-1.2,7.5-1.4C178.6,68.8,171,70.1,171.1,70.2z M169.7,70c0.2,0.2,9.7-1.7,9.7-1.7
			C179.3,68.1,169.7,70,169.7,70z M144.9,74.1c0-0.1-3.4,0.6-3.3,0.6C141.6,74.8,144.9,74.2,144.9,74.1z M130.7,76.5
			c0.1,0.2,8.6-1.5,8.6-1.6C139.1,74.8,130.6,76.4,130.7,76.5z M129.2,76.2c0.1,0.2,10.9-1.9,10.9-2
			C140.1,74.1,129.1,76.1,129.2,76.2z M127.6,75.6c0.1,0.2,13.5-2.4,13.5-2.4C141.1,73,127.6,75.5,127.6,75.6z M139.2,73.1
			c-0.1-0.1-10,1.7-10,1.8C129.3,75,139.2,73.2,139.2,73.1L139.2,73.1z M180,60.9l0.1,0.3l0.3-0.1L180,60.9L180,60.9z M176,61.8
			c0,0,0.1,0,0.1,0c0,0,0,0,0,0c0,0,0,0,0,0c0,0,0,0,0,0l0,0c0,0-0.1,0-0.1,0l-0.1,0l0.1,0.1L176,61.8L176,61.8z M170.2,62.7l0,0.3
			l0.3-0.1L170.2,62.7z M166.2,63.5c0,0.1,0.1,0.1,0.1,0.1c0,0,0,0,0.1,0s0.1,0,0.1,0c0.1,0,0.1,0,0.1,0c0,0,0,0,0,0
			c0,0,0-0.1-0.1-0.1c0-0.1-0.1-0.1-0.1-0.1c0,0,0,0-0.1,0c0,0-0.1,0-0.1,0c-0.1,0-0.1,0-0.1,0c0,0,0,0,0,0
			C166.1,63.4,166.1,63.5,166.2,63.5L166.2,63.5z M176.4,60.7l0,0.3l0.3-0.1L176.4,60.7L176.4,60.7z M171.1,61.7
			C171.1,61.6,171.1,61.6,171.1,61.7c-0.1,0-0.2,0-0.2,0l-0.1,0l0.3,0.4l0.1,0c0.1,0,0.1,0,0.1-0.1c0,0,0,0,0,0c0,0,0-0.1-0.1-0.1
			C171.2,61.7,171.1,61.7,171.1,61.7L171.1,61.7z M133.8,73.3c1.9-0.3,3-1.2,2.6-2c-0.5-0.7-2.3-1.1-4.1-0.8c-1.9,0.3-3,1.2-2.6,2
			C130.1,73.3,132,73.7,133.8,73.3z M134.9,72.6c0.1,0,0.2-0.1,0.2-0.2c0,0,0.1-0.1,0.1-0.1c0,0,0-0.1,0.1-0.1c0,0,0-0.1,0-0.1
			c0,0,0-0.1,0-0.1c0,0,0,0,0-0.1c0,0,0,0,0-0.1c0,0-0.1-0.1-0.1-0.1c-0.1-0.1-0.1-0.1-0.1-0.1s0,0,0,0c0,0,0,0,0,0.1c0,0,0,0,0,0.1
			c0,0,0,0,0,0.1c0,0-0.1,0.1-0.1,0.2c0,0-0.1,0-0.1,0.1c-0.1-0.1-0.2-0.4-0.2-0.4c0-0.1-0.2-0.2-0.4-0.1c-0.2,0-0.5,0.1-0.5,0.1
			s0.2-0.1,0.6-0.2c0.4-0.1,1.4,0.1,1.4,0.1s-0.1-0.3-0.9-0.5c-0.8-0.2-1.1-0.2-1.2-0.1c-0.1,0.1,0.1,0.1-0.1,0.2
			c-0.2,0-0.3,0.1-0.4,0c-0.1-0.1,0-0.2-0.4-0.2c-0.4,0.1-0.5,0.2-0.4,0.2c0.1,0,0.3,0,0.3,0l0,0l0,0c0,0.1-0.1,0.1-0.3,0.1
			c-0.2,0,0-0.1-0.2-0.1c-0.2-0.1-0.5,0-0.9,0.5c-0.4,0.4-0.3,0.7-0.3,0.7s0.7-0.4,1.1-0.5c0.4-0.1,0.7,0,0.7,0s-0.3,0.1-0.5,0.1
			c-0.2,0-0.3,0.1-0.2,0.2c0,0.1,0.2,0.3,0.2,0.5c-0.1,0-0.2,0-0.2-0.1c-0.1,0-0.2-0.1-0.3-0.1c0,0-0.1,0-0.1,0c0,0,0,0-0.1,0
			c0,0-0.1-0.1-0.1-0.1c0,0,0,0,0,0s0,0,0,0s0,0,0,0.1c0,0,0,0,0,0.1s0,0,0,0.1c0,0,0,0,0.1,0.1c0,0,0.1,0.1,0.1,0.1
			c0,0,0.1,0.1,0.2,0.1c0.1,0,0.1,0.1,0.2,0.1c0.1,0,0.2,0.1,0.3,0.1c-0.8-0.1-1.4-0.3-1.6-0.7c-0.3-0.6,0.6-1.3,1.9-1.5
			c1.4-0.2,2.8,0,3.1,0.6C135.8,71.8,135.5,72.3,134.9,72.6L134.9,72.6z M129.9,72.2c0,0,0-0.1,0-0.2c0.1-0.2,0.2-0.4,0.4-0.6
			c0.2-0.2,0.6-0.4,1-0.5c0.4-0.1,0.8-0.2,1.2-0.3c0.4,0,0.9-0.1,1.2,0c0.4,0,0.7,0.1,1,0.1c0.3,0,0.5,0.1,0.7,0.2
			c0.1,0,0.2,0.1,0.2,0.1c0,0,0.1,0.1,0.1,0.1c0,0,0,0.1,0.1,0.1c0,0,0,0.1,0,0.1c0,0,0,0.1,0,0.1s0,0,0-0.1c0,0,0,0-0.1-0.1
			s-0.1-0.1-0.1-0.1c0,0-0.1-0.1-0.2-0.1c-0.1,0-0.1-0.1-0.2-0.1c-0.2-0.1-0.4-0.2-0.7-0.2c-0.3,0-0.6-0.1-1-0.1
			c-0.3,0-0.8,0-1.1,0.1c-0.4,0.1-0.8,0.2-1.1,0.3c-0.4,0.1-0.7,0.3-0.9,0.5c-0.2,0.2-0.4,0.4-0.4,0.5c0,0.1,0.1,0.1,0.1,0.2
			c0,0,0,0.1,0,0.1c0,0,0,0.1,0.1,0.1c0,0,0,0.1,0.1,0.1c0.1,0.1,0.3,0.3,0.5,0.4c0.2,0.1,0.5,0.2,0.8,0.2c0.3,0,0.6,0.1,0.8,0.1
			c0.1,0,0.3,0,0.4,0c0.1,0,0.2,0,0.3,0c0.1,0,0.2,0,0.3,0c0.1,0,0.1,0,0.2,0c0.1,0,0.1,0,0.1,0s0,0-0.1,0c0,0-0.1,0-0.2,0
			c-0.1,0-0.1,0-0.3,0c-0.1,0-0.2,0-0.3,0c-0.1,0-0.3,0-0.4,0c-0.3,0-0.6,0-0.9-0.1c-0.3,0-0.6-0.1-0.9-0.2
			c-0.3-0.1-0.5-0.3-0.6-0.4c0,0-0.1-0.1-0.1-0.1C130,72.3,130,72.3,129.9,72.2C129.9,72.3,129.9,72.2,129.9,72.2L129.9,72.2z
			 M133.9,73.5c2.1-0.4,3.4-1.4,2.9-2.3c-0.5-0.9-2.6-1.3-4.7-0.9c-2.1,0.4-3.4,1.4-2.9,2.3C129.7,73.5,131.8,73.9,133.9,73.5z
			 M132.2,70.5c1.9-0.3,3.8,0,4.3,0.8c0.5,0.8-0.7,1.7-2.7,2.1c-1.9,0.3-3.9,0-4.3-0.8C129.1,71.7,130.3,70.8,132.2,70.5L132.2,70.5
			z M190.2,66.9c1.4-0.3,1.9-0.6,1.6-0.9c-0.3-0.3-1.1-0.5-2.5-0.2c-1.4,0.3-1.9,0.6-1.6,0.9C188,67,188.8,67.1,190.2,66.9
			L190.2,66.9z M189.4,65.8c0.1,0,0.4,0,0.7,0.4c0.3,0.4,0.2,0.5,0,0.5c-0.1,0-0.4,0-0.7-0.4C189.1,66,189.2,65.9,189.4,65.8
			L189.4,65.8z M183.4,67.5c0.3,0.4,1.1,0.5,2.5,0.2c1.4-0.3,1.9-0.6,1.6-0.9c-0.3-0.4-1.1-0.5-2.5-0.2
			C183.6,66.8,183.1,67.1,183.4,67.5z M185.1,66.6c0.1,0,0.4,0,0.7,0.4c0.3,0.4,0.2,0.5,0,0.5c-0.1,0-0.4,0-0.7-0.4
			C184.8,66.8,184.9,66.7,185.1,66.6z M183.4,67.8c-0.1-0.1-0.7-0.9-0.7-0.9l-1.2,0.2c0,0-0.2,0.3-0.9,0.4c0,0,0.7-0.1,0.8,0.1
			c0.2,0.2,0.2,0.3,0.3,0.4c0.1,0.1-0.4,0.4-0.4,0.4l2.9-0.5C184.2,67.9,183.5,68,183.4,67.8L183.4,67.8z M183.3,66.3L183,66
			l0.4-0.1l0,0l0.5,0.3l0.3-0.1l-0.6-0.3c0.1,0,0.1-0.1,0.1-0.1c0,0,0-0.1-0.1-0.2c0-0.1-0.1-0.1-0.2-0.1c0,0-0.1-0.1-0.2-0.1
			c-0.1,0-0.2,0-0.4,0l-0.7,0.1l0.7,0.9L183.3,66.3L183.3,66.3z M183,65.5c0.1,0,0.1,0,0.2,0c0,0,0.1,0,0.1,0c0,0,0,0.1,0.1,0.1
			c0,0,0,0.1,0,0.1c0,0,0,0,0,0.1c0,0-0.1,0-0.2,0.1l-0.3,0.1l-0.3-0.3L183,65.5L183,65.5z M181,66.2c0,0.1,0.1,0.1,0.1,0.2
			s0.1,0.1,0.1,0.1c0.1,0,0.1,0.1,0.2,0.1c0.1,0,0.2,0,0.2,0c0.1,0,0.2,0,0.3,0c0.2,0,0.3-0.1,0.4-0.1c0.1,0,0.1-0.1,0.1-0.1
			c0,0,0-0.1-0.1-0.2c0-0.1-0.1-0.1-0.2-0.1c-0.1,0-0.2,0-0.2-0.1c-0.1,0-0.2,0-0.3,0c-0.1,0-0.2,0.1-0.3,0.1c0,0-0.1,0-0.1,0.1
			c-0.1-0.1-0.1-0.2-0.1-0.2c0,0,0-0.1,0.1-0.1c0,0,0.1-0.1,0.3-0.1c0.1,0,0.3,0,0.4,0l-0.1-0.1c-0.1,0-0.1,0-0.3,0
			c-0.1,0-0.2,0-0.2,0c-0.2,0-0.3,0.1-0.4,0.1c-0.1,0-0.1,0.1-0.1,0.2c0,0,0,0.1,0,0.1C180.9,66.1,181,66.2,181,66.2z M181.5,66.2
			c0,0,0.1,0,0.2-0.1c0.1,0,0.2,0,0.2,0s0.1,0,0.1,0c0,0,0.1,0.1,0.1,0.1c0,0,0,0.1,0,0.1c0,0,0,0-0.1,0c0,0-0.1,0-0.2,0.1
			c-0.1,0-0.1,0-0.2,0c0,0-0.1,0-0.1,0c0,0-0.1-0.1-0.1-0.1C181.4,66.2,181.4,66.2,181.5,66.2C181.4,66.2,181.4,66.2,181.5,66.2z
			 M180.4,66.3c0.1,0,0.1-0.1,0.2-0.1c0,0,0-0.1-0.1-0.1c0-0.1-0.1-0.1-0.2-0.1c-0.1,0-0.2,0-0.3,0c-0.1,0-0.2,0-0.4,0
			c-0.1,0-0.1,0-0.3,0.1c-0.1,0-0.2,0.1-0.2,0.1l0.1,0.1c0.1-0.1,0.3-0.1,0.4-0.1c0.1,0,0.2,0,0.2,0c0.1,0,0.1,0,0.2,0
			c0,0,0.1,0,0.1,0.1s0,0.1,0,0.1c0,0-0.1,0-0.2,0.1l-0.3,0.1l0.1,0.1l0.3-0.1c0.1,0,0.2,0,0.3,0c0.1,0,0.1,0.1,0.2,0.1
			c0,0,0,0.1,0,0.1c0,0,0,0-0.1,0s-0.1,0-0.2,0.1c-0.1,0-0.3,0.1-0.5,0.1l0.1,0.1c0.1,0,0.2,0,0.3,0c0.1,0,0.2,0,0.3,0
			c0.2,0,0.3-0.1,0.4-0.1c0.1,0,0.1-0.1,0.1-0.1c0,0,0-0.1-0.1-0.1c0-0.1-0.1-0.1-0.2-0.1C180.6,66.3,180.5,66.3,180.4,66.3
			L180.4,66.3z M178.7,66.3l0.6,0.8l0.3-0.1l-0.7-0.9l-0.2,0l-0.3,0.2l0.1,0.1L178.7,66.3z M177.3,66.5c0,0,0.1-0.1,0.3-0.1
			c0.1,0,0.3,0,0.4,0l-0.1-0.1c-0.1,0-0.1,0-0.3,0c-0.1,0-0.2,0-0.2,0c-0.2,0-0.3,0.1-0.4,0.1c-0.1,0-0.1,0.1-0.1,0.2
			c0,0,0,0.1,0,0.1c0,0,0.1,0.1,0.1,0.2c0,0.1,0.1,0.1,0.1,0.2c0,0,0.1,0.1,0.1,0.1c0.1,0,0.1,0.1,0.2,0.1c0.1,0,0.2,0,0.2,0
			c0.1,0,0.2,0,0.3,0c0.2,0,0.3-0.1,0.4-0.1c0.1,0,0.1-0.1,0.1-0.1c0,0,0-0.1-0.1-0.2c0-0.1-0.1-0.1-0.2-0.1c-0.1,0-0.2-0.1-0.2-0.1
			c-0.1,0-0.2,0-0.3,0c-0.1,0-0.2,0.1-0.3,0.1c0,0-0.1,0-0.1,0.1c-0.1-0.1-0.1-0.2-0.1-0.2C177.3,66.6,177.3,66.5,177.3,66.5
			L177.3,66.5z M177.6,66.9c0,0,0.1,0,0.2-0.1c0.1,0,0.2,0,0.2,0s0.1,0,0.1,0c0,0,0.1,0.1,0.1,0.1c0,0,0,0.1,0,0.1c0,0,0,0-0.1,0
			c0,0-0.1,0-0.2,0.1c-0.1,0-0.1,0-0.2,0c0,0-0.1,0-0.1,0c0,0-0.1-0.1-0.1-0.1C177.5,67,177.5,66.9,177.6,66.9
			C177.5,66.9,177.5,66.9,177.6,66.9L177.6,66.9z M176.4,66.6l-1,0.2l0.3,0.5c0.1-0.1,0.3-0.1,0.4-0.1c0.1,0,0.2,0,0.3,0
			c0.1,0,0.1,0,0.2,0c0,0,0.1,0.1,0.1,0.1c0,0,0,0.1,0,0.1s0,0-0.1,0.1c0,0-0.1,0-0.2,0.1c-0.1,0-0.3,0.1-0.5,0.1l0.1,0.1
			c0.1,0,0.2,0,0.3,0c0.1,0,0.2,0,0.3,0c0.2,0,0.3-0.1,0.4-0.1s0.1-0.1,0.1-0.1c0,0,0-0.1-0.1-0.2c0-0.1-0.1-0.1-0.2-0.1
			c0,0-0.1-0.1-0.2-0.1c-0.1,0-0.2,0-0.4,0c-0.1,0-0.2,0.1-0.3,0.1l-0.2-0.2l0.7-0.1L176.4,66.6L176.4,66.6z M175.2,67
			c0-0.1-0.1-0.1-0.2-0.1c-0.1,0-0.2,0-0.3,0c-0.1,0-0.2,0-0.4,0c-0.1,0-0.3,0.1-0.4,0.1c-0.1,0-0.1,0.1-0.1,0.1c0,0,0,0.1,0.1,0.1
			c0,0.1,0.1,0.1,0.2,0.1c0.1,0,0.2,0,0.3,0c-0.1,0-0.1,0-0.1,0.1c0,0,0,0-0.1,0.1c0,0,0,0.1,0,0.1c0,0.1,0.1,0.1,0.2,0.1
			c0.1,0,0.2,0.1,0.3,0c0.1,0,0.3,0,0.4,0c0.2,0,0.3-0.1,0.4-0.1c0.1,0,0.1-0.1,0.1-0.1c0,0,0-0.1-0.1-0.1c0,0-0.1-0.1-0.1-0.1
			c0,0-0.1,0-0.2-0.1c0,0-0.1,0-0.2,0C175.1,67.2,175.1,67.2,175.2,67C175.2,67.2,175.2,67.1,175.2,67z M174.3,67.3
			c0,0-0.1,0-0.1-0.1c0,0,0-0.1,0-0.1s0,0,0.1,0c0,0,0.1,0,0.2-0.1c0.1,0,0.2,0,0.2,0c0,0,0.1,0,0.1,0c0,0,0.1,0,0.1,0.1
			c0,0,0,0.1,0,0.1c0,0,0,0-0.1,0c0,0-0.1,0-0.2,0.1c-0.1,0-0.1,0-0.2,0C174.4,67.4,174.3,67.3,174.3,67.3L174.3,67.3z M175.1,67.4
			c0,0,0.1,0,0.1,0.1c0,0,0,0.1,0,0.1c0,0,0,0-0.1,0c0,0-0.1,0-0.2,0.1c-0.1,0-0.2,0-0.2,0c0,0-0.1,0-0.1,0c0,0-0.1,0-0.1-0.1
			c0,0,0-0.1,0-0.1c0,0,0,0,0.1,0s0.1,0,0.2-0.1c0.1,0,0.2,0,0.2,0C175,67.4,175.1,67.4,175.1,67.4L175.1,67.4z M173.5,68
			c0,0-0.1,0.1-0.3,0.1c-0.1,0-0.3,0-0.4,0l0.1,0.1c0.1,0,0.1,0,0.3,0c0.1,0,0.2,0,0.3,0c0.2,0,0.3-0.1,0.4-0.1
			c0.1,0,0.1-0.1,0.1-0.2c0,0,0-0.1-0.1-0.1c0,0-0.1-0.1-0.1-0.2c0-0.1-0.1-0.1-0.1-0.2c0,0-0.1-0.1-0.1-0.1c0,0-0.1-0.1-0.2-0.1
			c-0.1,0-0.2,0-0.2,0c-0.1,0-0.2,0-0.3,0c-0.2,0-0.3,0.1-0.4,0.1c-0.1,0-0.1,0.1-0.1,0.1c0,0,0,0.1,0.1,0.2c0,0.1,0.1,0.1,0.2,0.1
			c0.1,0,0.2,0.1,0.2,0.1c0.1,0,0.2,0,0.3,0c0.1,0,0.2-0.1,0.3-0.1c0,0,0.1,0,0.1-0.1c0.1,0.1,0.1,0.2,0.1,0.2
			C173.6,67.9,173.5,67.9,173.5,68L173.5,68z M173.3,67.6c0,0-0.1,0-0.2,0.1c-0.1,0-0.2,0-0.2,0s-0.1,0-0.1,0c0,0-0.1-0.1-0.1-0.1
			c0,0,0-0.1,0-0.1c0,0,0,0,0.1,0s0.1,0,0.2-0.1c0.1,0,0.1,0,0.2,0c0,0,0.1,0,0.1,0c0,0,0.1,0.1,0.1,0.1
			C173.3,67.5,173.3,67.6,173.3,67.6C173.3,67.6,173.3,67.6,173.3,67.6L173.3,67.6z M172.5,68.2l-0.1-0.1l-0.9,0.2l0.3-0.8l0-0.1
			l-1.2,0.2l0,0.1l0.9-0.2l-0.4,0.8l0.1,0.1C171.3,68.5,172.5,68.2,172.5,68.2z M169.8,68.7l0.7-0.1c0.2,0,0.3-0.1,0.4-0.2
			c0.1,0,0.1-0.1,0-0.2c0-0.1-0.1-0.1-0.2-0.1c-0.1,0-0.2,0-0.3,0c0.1,0,0.2-0.1,0.2-0.1s0-0.1,0-0.1c0-0.1-0.1-0.1-0.2-0.1
			c-0.1,0-0.3,0-0.5,0l-0.7,0.1L169.8,68.7L169.8,68.7z M170.4,68.2c0.1,0,0.1,0.1,0.2,0.1c0,0,0,0.1,0,0.1c0,0,0,0-0.1,0
			c0,0-0.1,0-0.2,0.1l-0.3,0.1l-0.2-0.3l0.3-0.1C170.3,68.2,170.3,68.2,170.4,68.2z M169.9,67.9c0.1,0,0.1,0,0.2,0c0,0,0.1,0,0.1,0
			c0,0,0,0,0.1,0.1c0,0,0,0.1,0,0.1c0,0-0.1,0-0.2,0.1l-0.3,0.1l-0.2-0.3L169.9,67.9z M127.7,71.6l-0.1-0.2l0.2,0l0-0.1l-0.2,0
			l-0.2-0.3l-0.2,0l0.1,0.3l-0.5,0.1l0.2-0.7l-0.3,0l-0.2,0.7l0,0.1l0.9-0.2l0.1,0.2C127.3,71.7,127.7,71.6,127.7,71.6z M125.3,71.5
			l-0.2-0.3l0.7-0.1l0-0.1l-1.1,0.2l0.5,0.9l0.3,0l-0.2-0.4l0.7-0.1l-0.1-0.1L125.3,71.5L125.3,71.5z M137.9,68.4l0.3-0.1L138,68
			l0.4-0.1l0,0l0.5,0.3l0.3-0.1l-0.5-0.3c0.1,0,0.1-0.1,0.1-0.1c0,0,0-0.1-0.1-0.2c0-0.1-0.1-0.1-0.1-0.1s-0.1-0.1-0.2-0.1
			c-0.1,0-0.2,0-0.4,0l-0.7,0.1L137.9,68.4L137.9,68.4z M138.1,67.5c0.1,0,0.1,0,0.2,0c0,0,0.1,0,0.1,0c0,0,0,0.1,0.1,0.1
			s0,0.1,0,0.1c0,0,0,0-0.1,0.1c0,0-0.1,0-0.2,0.1l-0.3,0.1l-0.2-0.3L138.1,67.5L138.1,67.5z M135.9,68.1c0,0,0,0.1,0.1,0.2
			c0,0.1,0.1,0.1,0.1,0.2c0,0,0,0.1,0.1,0.1c0,0,0.1,0.1,0.2,0.1c0.1,0,0.2,0,0.2,0c0.1,0,0.2,0,0.3,0c0.2,0,0.3-0.1,0.4-0.1
			c0.1,0,0.1-0.1,0.1-0.1c0,0,0-0.1-0.1-0.2s-0.1-0.1-0.2-0.1c0,0-0.1,0-0.2-0.1c-0.1,0-0.2,0-0.3,0c-0.1,0-0.2,0.1-0.3,0.1
			c0,0-0.1,0-0.1,0.1c0-0.1-0.1-0.2-0.1-0.2c0,0,0-0.1,0.1-0.1c0,0,0.1-0.1,0.3-0.1c0.1,0,0.3,0,0.4,0l0-0.1c-0.1,0-0.1,0-0.3,0
			c-0.1,0-0.2,0-0.3,0c-0.2,0-0.3,0.1-0.4,0.1c-0.1,0-0.1,0.1-0.1,0.2C135.9,68,135.9,68,135.9,68.1L135.9,68.1z M136.5,68.2
			c0,0,0.1,0,0.2-0.1c0.1,0,0.2,0,0.2,0c0,0,0.1,0,0.1,0c0,0,0,0.1,0.1,0.1c0,0,0,0.1,0,0.1c0,0,0,0-0.1,0c0,0-0.1,0-0.2,0.1
			c-0.1,0-0.1,0-0.2,0c0,0-0.1,0-0.1,0c0,0-0.1-0.1-0.1-0.1C136.4,68.3,136.4,68.2,136.5,68.2C136.4,68.2,136.4,68.2,136.5,68.2z
			 M135.4,68.7c0,0-0.1,0-0.2,0.1c-0.1,0-0.3,0.1-0.5,0.1l0,0.1c0.1,0,0.2,0,0.3,0c0.1,0,0.2,0,0.3,0c0.2,0,0.3-0.1,0.4-0.1
			c0.1,0,0.1-0.1,0.1-0.1c0,0,0-0.1,0-0.1c0-0.1-0.1-0.1-0.2-0.1c-0.1,0-0.2,0-0.3,0c0.1,0,0.1-0.1,0.2-0.1c0,0,0-0.1,0-0.1
			c0-0.1-0.1-0.1-0.1-0.1c-0.1,0-0.2,0-0.2-0.1c-0.1,0-0.2,0-0.4,0c-0.1,0-0.2,0-0.3,0.1c-0.1,0-0.1,0-0.2,0l0,0.1
			c0.1-0.1,0.3-0.1,0.4-0.1c0.1,0,0.2,0,0.2,0s0.1,0,0.2,0c0,0,0.1,0,0.1,0.1c0,0.1,0,0.1,0,0.1c0,0-0.1,0-0.2,0.1l-0.3,0l0,0.1
			l0.3-0.1c0.1,0,0.2,0,0.3,0c0,0,0.1,0.1,0.1,0.1c0,0,0,0.1,0,0.1C135.5,68.7,135.5,68.7,135.4,68.7L135.4,68.7z M133.7,68.3
			l0.5,0.7l0.3-0.1l-0.5-0.9l-0.2,0l-0.4,0.1l0.1,0.1C133.4,68.5,133.7,68.3,133.7,68.3z M132.4,68.5c0,0,0.1-0.1,0.3-0.1
			c0.1,0,0.3,0,0.4,0l0-0.1c-0.1,0-0.1,0-0.3,0c-0.1,0-0.2,0-0.3,0c-0.2,0-0.3,0.1-0.4,0.1c-0.1,0-0.1,0.1-0.1,0.2c0,0,0,0.1,0,0.1
			c0,0,0,0.1,0.1,0.2c0,0.1,0.1,0.1,0.1,0.2c0,0,0,0.1,0.1,0.1c0,0,0.1,0.1,0.2,0.1c0.1,0,0.2,0,0.2,0c0.1,0,0.2,0,0.3,0
			c0.2,0,0.3-0.1,0.4-0.1c0.1,0,0.1-0.1,0.1-0.1c0,0,0-0.1-0.1-0.2c0-0.1-0.1-0.1-0.2-0.1c0,0-0.1,0-0.2-0.1c-0.1,0-0.2,0-0.3,0
			c-0.1,0-0.2,0.1-0.3,0.1c0,0-0.1,0-0.1,0.1c0-0.1-0.1-0.2-0.1-0.2C132.3,68.6,132.3,68.6,132.4,68.5z M132.5,68.9
			c0,0,0.1,0,0.2-0.1c0.1,0,0.2,0,0.2,0c0,0,0.1,0,0.1,0s0,0.1,0.1,0.1c0,0,0,0.1,0,0.1c0,0,0,0-0.1,0c0,0-0.1,0-0.2,0.1
			c-0.1,0-0.1,0-0.2,0c0,0-0.1,0-0.1,0c0,0-0.1-0.1-0.1-0.1C132.5,69,132.5,68.9,132.5,68.9C132.5,68.9,132.5,68.9,132.5,68.9z
			 M131.1,69.1c0.1,0,0.2,0,0.3,0c0.1,0,0.1,0,0.2,0s0.1,0.1,0.1,0.1c0,0,0,0.1,0,0.1c0,0,0,0-0.1,0.1c0,0-0.1,0.1-0.2,0.1
			c-0.1,0-0.3,0.1-0.5,0.1l0,0.1c0.1,0,0.2,0,0.3,0c0.1,0,0.2,0,0.3,0c0.2,0,0.3-0.1,0.4-0.1c0.1,0,0.1-0.1,0.1-0.1
			c0,0,0-0.1-0.1-0.2c0-0.1-0.1-0.1-0.1-0.1s-0.1-0.1-0.2-0.1c-0.1,0-0.2,0-0.4,0c-0.1,0-0.2,0.1-0.3,0.1l-0.1-0.3l0.7-0.1l0-0.1
			l-1,0.2l0.3,0.5C130.8,69.2,130.9,69.1,131.1,69.1L131.1,69.1z M129,69.4c0.1,0,0.2,0,0.3,0c-0.1,0-0.1,0-0.1,0.1
			c0,0-0.1,0-0.1,0.1c0,0,0,0.1,0,0.1c0,0.1,0.1,0.1,0.1,0.1c0,0,0.2,0.1,0.2,0.1c0.1,0,0.3,0,0.4,0c0.2,0,0.3-0.1,0.4-0.1
			c0.1,0,0.1-0.1,0.1-0.1c0,0,0-0.1,0-0.1c0,0,0-0.1-0.1-0.1c0,0-0.1,0-0.1-0.1c0,0-0.1,0-0.2,0c0.1,0,0.1-0.1,0.2-0.1
			c0,0,0-0.1,0-0.1c0-0.1-0.1-0.1-0.1-0.1c-0.1,0-0.1,0-0.2,0c-0.1,0-0.2,0-0.4,0c-0.1,0-0.3,0.1-0.4,0.1c-0.1,0-0.1,0.1-0.2,0.1
			c0,0,0,0.1,0,0.1C128.9,69.3,128.9,69.4,129,69.4z M130,69.4c0,0,0,0,0.1,0.1c0,0,0,0.1,0,0.1c0,0,0,0-0.1,0c0,0-0.1,0-0.2,0.1
			c-0.1,0-0.2,0-0.2,0c0,0-0.1,0-0.1,0s-0.1,0-0.1-0.1c0,0,0-0.1,0-0.1c0,0,0,0,0.1,0c0,0,0.1,0,0.2-0.1c0.1,0,0.2,0,0.2,0
			C129.9,69.4,129.9,69.4,130,69.4L130,69.4z M129.1,69.1C129.1,69.1,129.2,69.1,129.1,69.1c0.1,0,0.2-0.1,0.3-0.1
			c0.1,0,0.2,0,0.2,0c0,0,0.1,0,0.1,0c0,0,0,0,0.1,0.1c0,0,0,0.1,0,0.1c0,0,0,0-0.1,0s-0.1,0-0.2,0.1c-0.1,0-0.1,0-0.2,0
			c0,0-0.1,0-0.1,0C129.2,69.3,129.2,69.3,129.1,69.1C129.1,69.2,129.1,69.2,129.1,69.1z M127.4,69.8c0,0,0.1,0,0.2,0.1
			c0.1,0,0.2,0,0.3,0c0.1,0,0.2-0.1,0.3-0.1c0,0,0.1,0,0.1-0.1c0,0.1,0.1,0.2,0.1,0.2c0,0,0,0.1-0.1,0.1c-0.1,0-0.1,0.1-0.3,0.1
			c-0.1,0-0.3,0-0.4,0l0,0.1c0.1,0,0.1,0,0.3,0c0.1,0,0.2,0,0.3,0c0.2,0,0.3-0.1,0.4-0.1c0.1,0,0.1-0.1,0.2-0.2c0,0,0-0.1,0-0.1
			c0,0,0-0.1-0.1-0.2c0-0.1-0.1-0.1-0.1-0.2c0,0-0.1-0.1-0.1-0.1c0,0-0.1-0.1-0.2-0.1c-0.1,0-0.1,0-0.2,0c-0.1,0-0.2,0-0.3,0
			c-0.2,0-0.3,0.1-0.4,0.1c-0.1,0-0.1,0.1-0.1,0.1c0,0,0,0.1,0.1,0.2C127.3,69.7,127.3,69.8,127.4,69.8L127.4,69.8z M127.5,69.4
			C127.5,69.4,127.5,69.4,127.5,69.4c0.1,0,0.2-0.1,0.3-0.1c0.1,0,0.1,0,0.2,0c0,0,0.1,0,0.1,0c0,0,0.1,0.1,0.1,0.1c0,0,0,0.1,0,0.1
			c0,0,0,0-0.1,0c0,0-0.1,0-0.2,0.1s-0.2,0-0.2,0c0,0-0.1,0-0.1,0c0,0,0-0.1-0.1-0.1C127.5,69.5,127.5,69.4,127.5,69.4z M127.3,70.1
			l-0.9,0.2l0.5-0.8l0-0.1l-1.2,0.2l0,0.1l0.8-0.2l-0.5,0.8l0,0.1l1.3-0.2C127.4,70.3,127.3,70.1,127.3,70.1z M125.7,70.5
			c0.1,0,0.1-0.1,0-0.2c0-0.1-0.1-0.1-0.2-0.1c-0.1,0-0.2,0-0.3,0c0.1,0,0.2-0.1,0.2-0.1c0,0,0-0.1,0-0.2c0-0.1-0.1-0.1-0.2-0.1
			c-0.2-0.1-0.3,0-0.5,0l-0.7,0.1l0.5,0.9l0.7-0.1C125.5,70.6,125.6,70.5,125.7,70.5L125.7,70.5z M124.5,69.9l0.3-0.1
			c0.1,0,0.1,0,0.2,0c0,0,0.1,0,0.1,0c0,0,0,0,0.1,0.1c0,0,0,0.1,0,0.1c0,0-0.1,0-0.2,0.1l-0.3,0.1L124.5,69.9z M124.8,70.6
			l-0.1-0.3l0.3-0.1c0.1,0,0.2,0,0.3,0c0.1,0,0.1,0.1,0.1,0.1c0,0,0,0.1,0,0.1c0,0,0,0-0.1,0c0,0-0.1,0-0.2,0.1
			C125.2,70.5,124.8,70.6,124.8,70.6z M176.9,64.9c0.2,0.2,0.3,0.5,0.7,0.6c0.6,0.3,1.6,0.1,2.3-0.1c1.1-0.4,0.3-1,0-1.4
			c-0.3-0.4-0.6-0.9-1.1-1.3c-0.5-0.4-1.4-0.4-2.3-0.2c-1,0.2-0.9,0.7-0.7,1C176.3,64,176.6,64.5,176.9,64.9z M176.9,62.8
			c0.7-0.2,1.1,0.1,1.2,0.3c0.3,0.4,0.6,0.7,0.9,1.1c0.2,0.2,0.9,0.9,0.1,1c-1,0.2-1.2-0.4-1.4-0.7c-0.3-0.4-0.6-0.8-0.9-1.1
			C176.7,63.2,176.5,63,176.9,62.8z M173.1,65.6c0.2,0.2,0.3,0.5,0.7,0.6c0.6,0.3,1.6,0.2,2.3-0.1c1.1-0.4,0.3-1,0-1.4
			c-0.3-0.4-0.5-0.9-1.1-1.3c-0.5-0.4-1.4-0.4-2.3-0.2c-1,0.2-0.9,0.7-0.7,1C172.5,64.7,172.8,65.1,173.1,65.6z M173.2,63.5
			c0.7-0.2,1.1,0.1,1.2,0.3c0.3,0.4,0.6,0.7,0.9,1.1c0.2,0.2,0.9,0.9,0.1,1c-1,0.2-1.2-0.4-1.4-0.7c-0.3-0.4-0.6-0.8-0.9-1.1
			C173,63.9,172.7,63.6,173.2,63.5z M170.1,64.3c0.4,0.5,0.7,1,1.1,1.5c0.2,0.3,0.4,0.5,0.6,0.8c0,0.1,0.1,0.3,0.3,0.3
			c0.1,0,0.8-0.1,0.9-0.2c0,0,0,0,0-0.1c0-0.2-0.3-0.4-0.4-0.6c-0.4-0.6-0.9-1.2-1.3-1.8c-0.1-0.2-0.3-0.4-0.4-0.6
			c0,0,0-0.1-0.1-0.1c-0.1,0-0.6,0.1-0.7,0.1c0,0.1-0.2,0.2-0.3,0.4c-0.1,0.1-0.5,0.2-0.6,0.2c-0.1,0.1,0.1,0.2,0.1,0.3
			C169.6,64.5,170,64.4,170.1,64.3z M195.7,67.6l-0.4-0.5c-0.1,0.3-0.4,0.5-0.8,0.8L195.7,67.6L195.7,67.6z M191,67.7
			c0,0-0.1,0-0.1,0l-0.1,0l0.1,0.1l0.1,0C191,67.8,191,67.8,191,67.7C191.1,67.7,191.1,67.7,191,67.7C191,67.7,191,67.6,191,67.7
			L191,67.7z M189.3,68.2l0.1,0l-0.2-0.1L189.3,68.2z M180.7,69.9c0.1,0,0.1-0.1,0.1-0.1c0,0,0-0.1-0.1-0.1c0-0.1-0.1-0.1-0.2-0.1
			c0,0-0.1,0-0.2,0l-0.1,0l0.2,0.3L180.7,69.9z M120.9,68.9c0.2-0.3,0.5-0.5,1-0.7l-1.3,0.2L120.9,68.9L120.9,68.9z M128,80
			c-0.6,0-1.2-0.1-1.6-0.3l0.3,0.6L128,80z M184.9,68.8c-0.1,0-0.2,0-0.3,0c-0.1,0-0.1,0.1-0.2,0.1c0,0,0,0.1,0,0.1
			c0,0.1,0.1,0.1,0.2,0.1c0.1,0,0.2,0,0.3,0c0.1,0,0.1-0.1,0.2-0.1c0,0,0-0.1,0-0.1C185,68.8,185,68.8,184.9,68.8z M183.1,69.1
			c0,0-0.1,0-0.2,0l-0.1,0l0.2,0.3l0.1,0c0.1,0,0.1-0.1,0.1-0.1c0,0,0-0.1-0.1-0.1C183.3,69.2,183.2,69.1,183.1,69.1z M186.7,56.7
			l-1.2,0.2c0.6,0,1.2,0.1,1.6,0.3L186.7,56.7z M136.2,66.6c0.2,0,0.4-0.2,0.3-0.4c-0.1-0.3-0.4-0.3-0.7-0.2c-0.2,0-0.4,0.2-0.3,0.4
			C135.7,66.6,136,66.7,136.2,66.6z M177.7,70.1C177.7,70.1,177.7,70.1,177.7,70.1c-0.1,0-0.2,0-0.2,0l-0.1,0l0.1,0.1l0.1,0
			C177.6,70.2,177.7,70.2,177.7,70.1C177.7,70.2,177.7,70.2,177.7,70.1z M176.2,59.5c0.2,0,0.4-0.2,0.2-0.4
			c-0.2-0.2-0.5-0.3-0.7-0.2c-0.2,0-0.4,0.2-0.2,0.4C175.7,59.6,176,59.6,176.2,59.5z M182.1,58.5c0.2,0,0.4-0.2,0.2-0.4
			c-0.2-0.2-0.5-0.3-0.7-0.2c-0.2,0-0.4,0.2-0.2,0.4C181.6,58.5,181.9,58.5,182.1,58.5z M130.2,67.7c0.2,0,0.4-0.2,0.3-0.4
			c-0.1-0.3-0.4-0.3-0.7-0.2c-0.2,0-0.4,0.2-0.3,0.4C129.6,67.7,129.9,67.7,130.2,67.7z M176.1,70.7c0.1,0,0.1-0.1,0.1-0.1
			c0,0,0-0.1-0.1-0.1c0-0.1-0.1-0.1-0.2-0.1c0,0-0.1,0-0.2,0l-0.1,0l0.2,0.3L176.1,70.7z M140.1,76.2c-0.2-0.3-0.4-0.5-0.6-0.5
			c0.9-0.1,1.9-0.2,2.1,0.2c0.2,0.4-0.6,0.7-1.5,0.9C140.3,76.7,140.3,76.5,140.1,76.2z M138.8,76.5c0.2,0.3,0.4,0.5,0.6,0.5
			c-0.9,0.1-1.9,0.2-2.1-0.2c-0.2-0.4,0.6-0.7,1.5-0.9C138.6,75.9,138.6,76.1,138.8,76.5z M139.2,76.5
			C139.2,76.5,139.2,76.5,139.2,76.5c-0.3-0.4-0.1-0.6,0.1-0.7c0,0,0,0,0.1,0c0.2,0.1,0.3,0.2,0.5,0.4c0,0,0,0.1,0,0.1L139.2,76.5
			L139.2,76.5z M141.3,75.6c-0.5-0.1-1.2-0.1-2.3,0.1c-1.7,0.3-2.3,0.7-2,1.1c0,0,0,0.1,0,0.1l-0.1,0l0,0c-0.1-0.2-0.3-0.3-0.7-0.4
			c-0.5-0.1-1.2-0.1-2.3,0.1c-1.7,0.3-2.3,0.7-2,1.1c0,0,0,0.1,0,0.1l-0.1,0c-0.1-0.3-0.4-0.7-0.4-0.7l-0.1,0c0,0,0-0.1,0-0.1
			l-1.4,0.3c0,0-0.3,0.3-1.2,0.5c0,0,0.1,0,0.3,0c0,0-0.1,0-0.2,0c0,0,0.3,0,0.5,0c0.1,0,0.2,0.1,0.2,0.2s0.1,0.1,0.1,0.2l-1.5,0.4
			c-0.4,0.1-0.9,0-1.2,0l0.5-0.3l-1.1-0.1l0.8-0.4l-1.1-0.1l0.8-0.4l-1.1-0.1l0.8-0.4l-1.1-0.1l0.8-0.4l-1.1-0.1l0.8-0.4l-1.1-0.1
			l0.7-0.3l-1.1-0.1l0.8-0.4l-1.1-0.1l0.8-0.4l-1.1-0.1l0.8-0.4l-1.1-0.1l0.8-0.4l-1.1,0l0.8-0.4l-1.1,0l0.8-0.4l-1-0.1l0.8-0.4
			l-1.1,0l0.8-0.4l-1-0.1l0.8-0.4l-1-0.1l0.8-0.4l-1-0.1l0.8-0.4l-1-0.1l0.8-0.4l-0.7-0.1c0.2-0.2,0.5-0.3,0.9-0.4l20.3-3.6
			c-0.3,0.2-0.6,0.4-0.9,0.7c-0.2,0.2-0.4,0.5-0.6,0.7c-0.2,0.2-0.3,0.5-0.5,0.7c-0.1,0.2-0.2,0.5-0.3,0.8c0,0.3-0.1,0.5-0.1,0.8
			c0,0.1,0,0.1,0,0.2c0,0.1,0,0.1,0,0.2c0.1,0.1,0.1,0.3,0.1,0.4c0.1,0.3,0.2,0.5,0.3,0.8l0.1,0.2l0,0.1l0.1,0.1l0.1,0.2l0.2,0.2
			c0.1,0.1,0.2,0.2,0.3,0.3c0.1,0.1,0.1,0.1,0.2,0.2c0.1,0.1,0.1,0.1,0.2,0.2c0.3,0.2,0.6,0.4,0.9,0.6c0.4,0.2,0.7,0.4,1.1,0.6
			c0.8,0.3,1.6,0.6,2.5,0.8c0.5,0.1,1,0.2,1.5,0.3l-7.1,1.3l0,0C141.9,75.7,141.7,75.6,141.3,75.6L141.3,75.6z M135,77.1
			c-0.2-0.3-0.4-0.5-0.6-0.5c0.9-0.1,1.9-0.2,2.1,0.2c0.2,0.4-0.6,0.7-1.5,0.9C135.1,77.7,135.2,77.5,135,77.1z M133.6,77.4
			c0.2,0.3,0.4,0.5,0.6,0.5c-0.9,0.1-1.9,0.2-2.1-0.2c-0.2-0.4,0.6-0.7,1.5-0.9C133.5,76.9,133.5,77.1,133.6,77.4z M134.1,77.4
			C134.1,77.4,134.1,77.4,134.1,77.4c-0.2-0.4-0.1-0.6,0.1-0.7c0,0,0,0,0.1,0c0.2,0.1,0.3,0.2,0.5,0.4c0,0,0,0.1,0,0.1L134.1,77.4z
			 M130.1,78.4l-0.2-0.5c0-0.1-0.2-0.2-0.4-0.2c0.3-0.1,0.5-0.2,0.6-0.3l1-0.2c0.1,0.3,0.4,0.8,0.5,0.9c0,0.1,0.1,0.1,0.2,0.2
			l-1.8,0.3C130.1,78.6,130.1,78.5,130.1,78.4z M129.7,67c2-0.3,3-0.3,3.1-0.1c0.1,0.3-0.7,0.6-2.6,0.9c-2,0.3-3,0.3-3.1,0.1
			C127,67.6,127.8,67.3,129.7,67z M126.9,68.2c0,0.1,0.9,0,0.9,0l-4,0.7c0,0,0.8-0.3,0.8-0.3c0-0.1-0.1-0.1-0.1-0.3
			c-0.1-0.1-1-0.1-1-0.1c1-0.2,1.5-0.4,1.5-0.4l1.7-0.3C126.6,67.5,126.8,68.1,126.9,68.2L126.9,68.2z M135.8,65.9
			c2-0.3,3-0.3,3.1-0.1s-0.6,0.6-2.6,0.9c-2,0.3-3,0.3-3.1,0.1C133,66.6,133.8,66.3,135.8,65.9z M179.5,60.2l0.6-0.1l0.1,0.1
			l-0.6,0.1l0.1,0.1l0.7-0.1l0.1,0.1l-1.3,0.2l-0.5-0.6l1.3-0.2l0.1,0.1l-0.7,0.1C179.5,60.1,179.5,60.2,179.5,60.2z M181,59.9
			C181,59.9,181,59.9,181,59.9C181,59.9,181,59.9,181,59.9c0.1,0,0.1,0,0.2,0l0.3,0c0.1,0,0.1,0,0.2,0c0.1,0,0.1,0,0.2,0
			c0,0,0.1,0.1,0.2,0.1c0,0.1,0,0.1,0,0.1c0,0-0.1,0.1-0.2,0.1c-0.1,0-0.2,0.1-0.3,0.1c-0.1,0-0.2,0-0.3,0.1c-0.1,0-0.2,0-0.3,0
			l-0.1-0.1c0.2,0,0.4,0,0.5-0.1c0.1,0,0.1,0,0.1,0c0,0,0,0,0.1,0l0,0c0,0,0,0,0,0l0,0c0,0,0,0-0.1,0c0,0-0.1,0-0.1,0l-0.3,0
			c-0.1,0-0.2,0-0.2,0c-0.1,0-0.1-0.1-0.2-0.1c0-0.1,0-0.1,0-0.1c0,0,0.1-0.1,0.2-0.1c0.1,0,0.2-0.1,0.3-0.1c0.1,0,0.2,0,0.3-0.1
			c0.1,0,0.2,0,0.3,0l0.1,0.1c-0.1,0-0.1,0-0.2,0c-0.1,0-0.2,0-0.3,0C181.1,59.8,181,59.9,181,59.9C181,59.9,181,59.9,181,59.9
			L181,59.9z M180.1,61.5l-0.6,0.1l0-0.8l0.8-0.2l1,0.6l-0.6,0.1l-0.1-0.1l-0.5,0.1C180.1,61.3,180.1,61.5,180.1,61.5z M179.1,61.2
			c-0.1,0-0.1,0.1-0.2,0.1c0,0,0,0,0,0c0,0,0,0,0,0C178.9,61.3,178.9,61.3,179.1,61.2z M178.8,60.9l0.1,0.1c-0.2,0-0.3,0-0.3,0
			c-0.1,0-0.2,0-0.2,0.1c0,0,0,0,0,0c0,0,0,0.1,0.1,0.1c0,0.1,0.1,0.1,0.1,0.1c0,0,0.1,0,0.1,0c0,0,0.1,0,0.2,0
			c0.1,0,0.2-0.1,0.3-0.1l0.1,0.1c0,0-0.1,0-0.2,0.1c-0.1,0-0.2,0-0.3,0.1c-0.2,0-0.4,0.1-0.5,0.1c-0.1,0-0.2,0-0.3,0
			c-0.1,0-0.1-0.1-0.2-0.2c-0.1-0.1-0.1-0.2-0.1-0.2c0,0,0-0.1,0.1-0.1c0.1,0,0.3-0.1,0.5-0.1c0.1,0,0.1,0,0.3,0
			C178.7,61,178.8,61,178.8,60.9L178.8,60.9z M177.9,61.8l-0.6,0.1l-0.5-0.7l0.6-0.1L177.9,61.8z M178.6,60.9L178,61l-0.4-0.5
			l-0.4,0.1l-0.1-0.2l1.4-0.3l0.1,0.2l-0.4,0.1L178.6,60.9L178.6,60.9z M177.7,61l-0.6,0.1L177,61l-0.5,0.1l0,0.1l-0.6,0.1l0-0.8
			l0.8-0.2C176.7,60.4,177.7,61,177.7,61z M175.9,61.5c0.1,0,0.3,0,0.4,0c0.1,0,0.2,0,0.2,0.1c0,0,0.1,0.1,0.1,0.1
			c0,0,0,0.1,0.1,0.1c0,0,0,0.1-0.1,0.1L177,62l-0.6,0.1l-0.4-0.2l-0.1,0l0.2,0.2l-0.6,0.1l-0.5-0.7L175.9,61.5L175.9,61.5z
			 M172.9,62.7l-0.4,0.1l-0.5-0.3l0,0l0.3,0.4l-0.6,0.1l-0.5-0.7l0.8-0.2l0.4,0.3l0,0l0-0.3l0.8-0.2l0.5,0.7l-0.6,0.1l-0.3-0.4l0,0
			L172.9,62.7L172.9,62.7z M170.3,63.2l-0.6,0.1l0-0.8l0.8-0.2l1,0.6l-0.6,0.1l-0.1-0.1l-0.5,0.1C170.3,63,170.3,63.2,170.3,63.2z
			 M169.3,62l0.6-0.1l0.1,0.1l-0.6,0.1l0.1,0.1l0.7-0.1l0.1,0.2l-1.3,0.2l-0.5-0.7l1.3-0.2l0.1,0.2L169.3,62L169.3,62L169.3,62z
			 M172.2,60.7l0.6-0.1l0.3,0.4l-0.6,0.1l-0.1-0.1L172,61l0.1,0.1l-0.6,0.1l-0.3-0.4l0.6-0.1l0.1,0.1l0.3-0.1L172.2,60.7z
			 M173.2,61.3C173.2,61.3,173.2,61.3,173.2,61.3C173.3,61.3,173.3,61.3,173.2,61.3c0.1,0,0.1,0,0.2,0l0.3,0c0.1,0,0.1,0,0.2,0
			c0.1,0,0.1,0,0.2,0c0,0,0.1,0.1,0.2,0.1c0,0.1,0,0.1,0,0.1c0,0-0.1,0.1-0.2,0.1c-0.1,0-0.2,0.1-0.3,0.1c-0.1,0-0.2,0-0.3,0.1
			c-0.1,0-0.2,0-0.3,0l-0.1-0.1c0.2,0,0.4-0.1,0.5-0.1c0.1,0,0.1,0,0.1,0s0,0,0.1,0l0,0c0,0,0,0,0,0l0,0c0,0,0,0-0.1,0
			c0,0-0.1,0-0.1,0l-0.3,0c-0.1,0-0.2,0-0.2,0c-0.1,0-0.1-0.1-0.2-0.1c0-0.1,0-0.1,0-0.1c0,0,0.1-0.1,0.2-0.1c0.1,0,0.2-0.1,0.3-0.1
			c0.1,0,0.2,0,0.3-0.1c0.1,0,0.2,0,0.3,0l0.1,0.1c-0.1,0-0.1,0-0.3,0c-0.1,0-0.2,0-0.3,0C173.3,61.2,173.3,61.2,173.2,61.3
			C173.2,61.2,173.2,61.3,173.2,61.3L173.2,61.3z M172.2,61.6c-0.1-0.1-0.2-0.2-0.2-0.2l0,0l0.3-0.1c0,0,0,0.1,0.1,0.1
			c0,0.1,0.1,0.1,0.2,0.2l0.1,0.1l0.1,0.1l-0.3,0.1l0,0C172.3,61.8,172.3,61.7,172.2,61.6z M171.6,61.5c0,0,0.1,0.1,0.2,0.2
			c0.1,0.1,0.1,0.2,0.1,0.2c0,0,0,0.1-0.1,0.1c-0.1,0-0.3,0.1-0.6,0.1l-0.6,0.1l-0.5-0.7l0.6-0.1c0.3-0.1,0.4-0.1,0.6-0.1
			C171.4,61.4,171.6,61.4,171.6,61.5L171.6,61.5z M173.5,61.9l1.3-0.2l0.1,0.2l-0.7,0.1l0.1,0.1l0.6-0.1L175,62l-0.6,0.1l0.1,0.1
			l0.7-0.1l0.1,0.2l-1.3,0.2L173.5,61.9L173.5,61.9z M175.5,61.4l-0.6,0.1l-0.4-0.5l-0.4,0.1l-0.1-0.2l1.4-0.3l0.1,0.2l-0.4,0.1
			L175.5,61.4L175.5,61.4z M173.4,60.9l-0.3-0.4l1.3-0.2l0.1,0.1l-0.7,0.1l0,0.1l0.6-0.1l0.1,0.1l-0.6,0.1l0,0.1l0.7-0.1l0.1,0.1
			L173.4,60.9L173.4,60.9z M173.2,59.7c-0.2-0.2,0.6-0.5,2.5-0.9c1.9-0.3,2.9-0.3,3-0.1c0.2,0.2-0.6,0.5-2.4,0.9
			C174.4,59.9,173.4,60,173.2,59.7z M174,60l-3.9,0.7c0,0,0.8-0.3,0.7-0.3s-0.1-0.1-0.2-0.3c-0.1-0.1-1-0.1-1-0.1
			c1-0.2,1.4-0.4,1.4-0.4l1.6-0.3c0,0,0.4,0.5,0.4,0.6C173.2,60.1,174,60,174,60z M171.1,60.8l0.1,0.1l-0.4,0.1l0.2,0.3l-0.6,0.1
			l-0.2-0.3l-0.4,0.1l-0.1-0.1C169.7,61.1,171.1,60.8,171.1,60.8z M168.3,63.6l-0.6,0.1l-0.5-0.7l1.2-0.2l0.1,0.2l-0.6,0.1l0.1,0.1
			l0.6-0.1l0.1,0.2l-0.6,0.1L168.3,63.6L168.3,63.6z M168.4,62.7l-0.6,0.1l-0.4-0.5l-0.4,0.1l-0.1-0.2l1.4-0.3l0.1,0.2l-0.4,0.1
			L168.4,62.7L168.4,62.7z M167.2,62.9l-0.6,0.1l-0.5-0.7l0.6-0.1L167.2,62.9z M181.5,57.8c1.9-0.3,2.9-0.3,3-0.1
			c0.2,0.2-0.5,0.5-2.4,0.9c-1.9,0.3-2.9,0.3-3.1,0.1C178.9,58.5,179.6,58.2,181.5,57.8z M191.9,68L191.9,68
			C191.9,68,191.8,68,191.9,68l-0.4,0.1c0,0,0,0-0.1,0l0,0L191,68l-0.1,0l0.1,0.1l0,0c0,0,0,0-0.1,0l-0.3,0.1c0,0-0.1,0-0.1,0
			c0,0,0,0-0.1,0l-0.4-0.5l0,0c0,0,0,0,0.1,0l0.6-0.1c0.2-0.1,0.4,0,0.5-0.1c0.1,0,0.2,0.1,0.3,0.1c0,0,0,0.1,0,0.1
			c0,0-0.1,0.1-0.1,0.1L191.9,68C191.9,67.9,191.9,68,191.9,68z M190.3,68.2C190.3,68.2,190.3,68.2,190.3,68.2
			C190.4,68.3,190.4,68.3,190.3,68.2l-0.4,0.1c0,0-0.1,0-0.1,0l-0.1-0.1l-0.4,0.1l0,0.1c0,0,0,0-0.1,0l-0.4,0.1c0,0,0,0-0.1,0
			c0,0,0,0,0,0l0.1-0.6c0,0,0,0,0,0c0,0,0,0,0.1,0l0.3-0.1c0,0,0.1,0,0.1,0c0,0,0,0,0.1,0L190.3,68.2L190.3,68.2z M185.7,68.5
			L185.7,68.5c0,0,0,0,0.1-0.1l0.3-0.1c0,0,0.1,0,0.1,0c0,0,0,0,0.1,0l0.3,0.4l0.5-0.1c0,0,0.1,0,0.1,0c0,0,0,0,0,0l0,0c0,0,0,0,0,0
			s0,0-0.1,0l-0.9,0.2c0,0-0.1,0-0.1,0c0,0,0,0-0.1,0L185.7,68.5z M185.6,69c-0.1,0.1-0.3,0.1-0.5,0.2c-0.3,0.1-0.5,0-0.7,0
			c-0.2,0-0.3-0.1-0.4-0.2c-0.1-0.1-0.1-0.2,0-0.3c0.1-0.1,0.3-0.1,0.5-0.2c0.3-0.1,0.5,0,0.7,0c0.2,0,0.3,0.1,0.4,0.2
			C185.7,68.9,185.7,69,185.6,69z M187,68.2L187,68.2c0,0,0,0,0.1-0.1l0.3-0.1c0,0,0.1,0,0.1,0c0,0,0,0,0.1,0l0.3,0.4l0.5-0.1
			c0,0,0.1,0,0.1,0c0,0,0,0,0,0l0,0c0,0,0,0,0,0s0,0-0.1,0l-0.9,0.2c0,0-0.1,0-0.1,0c0,0,0,0-0.1,0L187,68.2L187,68.2z M192.3,67.4
			L192.3,67.4c0.1,0,0.1,0,0.1,0c0,0,0.1,0,0.1,0c0.1,0,0.2,0,0.3,0c0.1,0,0.2,0,0.2,0c0,0,0.1,0,0.1,0.1c0,0.1,0,0.1-0.1,0.2
			c-0.1,0-0.2,0.1-0.4,0.1c-0.1,0-0.3,0-0.4,0c-0.1,0-0.2,0-0.3,0c0,0-0.1,0-0.1,0c0,0,0,0,0,0l0.1-0.1l0,0l0,0c0.1,0,0.1,0,0.2,0
			c0.1,0,0.1,0,0.2,0c0.1,0,0.1,0,0.1,0c0,0,0,0,0,0c0,0,0,0-0.1,0C192.5,67.5,192.4,67.5,192.3,67.4c-0.2,0.1-0.3,0-0.4,0
			c-0.1,0-0.2-0.1-0.2-0.1c0-0.1,0-0.1,0.1-0.2c0.1,0,0.2-0.1,0.4-0.1c0.1,0,0.3,0,0.3,0c0.1,0,0.2,0,0.3,0c0,0,0.1,0,0.1,0
			c0,0,0,0,0,0l-0.1,0.1c0,0,0,0,0,0l0,0c0,0-0.1,0-0.1,0c0,0-0.1,0-0.1,0C192.4,67.4,192.3,67.4,192.3,67.4L192.3,67.4L192.3,67.4z
			 M183.8,69.4c-0.1,0.1-0.3,0.1-0.5,0.2l-0.5,0.1c0,0-0.1,0-0.1,0c0,0,0,0-0.1,0l-0.4-0.5l0,0c0,0,0,0,0.1,0l0.5-0.1
			c0.5-0.1,0.9,0,1,0.2C183.9,69.2,183.9,69.3,183.8,69.4z M177.7,70.5L177.7,70.5c0,0,0,0-0.1,0.1l-0.3,0.1c0,0-0.1,0-0.1,0
			c0,0,0,0,0,0l-0.4-0.5l0,0c0,0,0,0,0.1,0l0.6-0.1c0.2-0.1,0.4,0,0.5-0.1c0.1,0,0.2,0.1,0.3,0.1c0,0,0,0.1,0,0.1
			c0,0-0.1,0.1-0.1,0.1l0.4,0.2c0,0,0,0,0,0c0,0,0,0,0,0l0,0l-0.4,0.1c0,0,0,0-0.1,0l0,0l-0.3-0.1l-0.1,0L177.7,70.5L177.7,70.5z
			 M178.3,69.8L178.3,69.8c0,0,0,0,0.1-0.1l0.9-0.2c0,0,0.1,0,0.1,0c0,0,0,0,0,0l0,0c0,0,0,0,0,0s0,0-0.1,0l-0.5,0.1l0,0.1l0.3-0.1
			c0,0,0.1,0,0.1,0c0,0,0,0,0,0l0,0c0,0,0,0,0,0s0,0-0.1,0l-0.3,0.1l0,0.1l0.5-0.1c0,0,0.1,0,0.1,0c0,0,0,0,0,0l0,0c0,0,0,0,0,0
			s0,0-0.1,0l-0.9,0.2c0,0-0.1,0-0.1,0s0,0-0.1,0L178.3,69.8L178.3,69.8z M179.8,69.6L179.8,69.6c0,0,0,0,0.1-0.1l0.5-0.1
			c0.5-0.1,0.9,0,1,0.2c0.1,0.1,0.1,0.2,0,0.3c-0.1,0.1-0.3,0.1-0.5,0.2l-0.5,0.1c0,0-0.1,0-0.1,0c0,0,0,0-0.1,0L179.8,69.6
			L179.8,69.6z M174.3,71.1L174.3,71.1c0,0,0,0-0.1,0.1l-0.3,0.1c0,0-0.1,0-0.1,0c0,0,0,0,0,0l-0.4-0.5l0,0c0,0,0,0,0.1,0l0.2,0
			c0,0,0.1,0,0.1,0c0,0,0,0,0.1,0l0.6,0.2l-0.2-0.2l0,0c0,0,0,0,0.1,0l0.3-0.1c0,0,0.1,0,0.1,0c0,0,0,0,0,0l0.4,0.5l0,0
			c0,0,0,0-0.1,0l-0.2,0c0,0-0.1,0-0.1,0c0,0,0,0-0.1,0l-0.6-0.2L174.3,71.1L174.3,71.1z M175.1,70.4L175.1,70.4c0,0,0,0,0.1-0.1
			l0.5-0.1c0.6-0.1,0.9-0.1,1,0.2c0.1,0.1,0.1,0.2,0,0.3c-0.1,0.1-0.3,0.1-0.5,0.2l-0.5,0.1c0,0-0.1,0-0.1,0c0,0,0,0,0,0L175.1,70.4
			L175.1,70.4z M170.8,71.8L170.8,71.8c0,0,0,0-0.1,0.1l-0.3,0.1c0,0-0.1,0-0.1,0c0,0,0,0,0,0l-0.4-0.5l0,0c0,0,0,0,0.1,0l0.3-0.1
			c0,0,0.1,0,0.1,0s0,0,0,0l0.1,0.2l0.4-0.1l-0.1-0.2l0,0c0,0,0,0,0.1,0l0.3-0.1c0,0,0.1,0,0.1,0c0,0,0,0,0,0l0.4,0.5l0,0
			c0,0,0,0-0.1,0l-0.3,0.1c0,0-0.1,0-0.1,0c0,0,0,0,0,0l-0.1-0.2l-0.4,0.1L170.8,71.8z M171.7,71L171.7,71c0,0,0,0,0.1-0.1l0.3-0.1
			c0,0,0.1,0,0.1,0c0,0,0,0,0,0l0.3,0.4c0,0,0,0,0.1,0.1c0,0,0.1,0,0.1,0c0.1,0,0.1,0,0.1-0.1c0,0,0,0,0-0.1l-0.3-0.4l0,0
			c0,0,0,0,0.1,0l0.3-0.1c0,0,0.1,0,0.1,0s0,0,0,0l0.3,0.4c0,0,0,0.1,0,0.1c0,0-0.1,0.1-0.2,0.1c-0.1,0-0.2,0.1-0.4,0.1
			c-0.1,0-0.3,0-0.4,0c-0.1,0-0.2,0-0.3,0c-0.1,0-0.2-0.1-0.2-0.1L171.7,71L171.7,71z M144.1,70.5c0.1,0.1,0.1,0.2,0,0.3
			c0-0.1-0.1-0.2-0.2-0.2c-1.5-2.5,0.7-5.1,4.9-6.3l0.1,0.1c-0.2,0.1-0.5,0.2-0.7,0.2c-0.5,0.2-1,0.4-1.4,0.6
			c-0.4,0.2-0.7,0.4-1,0.6c-0.1,0.1-0.2,0.2-0.3,0.3c-0.1,0.1-0.2,0.2-0.2,0.2c-0.1,0.1-0.2,0.3-0.3,0.3c-0.1,0.1-0.1,0.1-0.1,0.1
			s0,0,0.1-0.1c0,0,0.1-0.1,0.1-0.1c0.1,0,0.1-0.1,0.2-0.2c0.1-0.1,0.2-0.1,0.3-0.2c0.1-0.1,0.2-0.2,0.4-0.3c0.1,0,0.1-0.1,0.2-0.1
			c0.1,0,0.1-0.1,0.3-0.1c0.1,0,0.2-0.1,0.3-0.1c0.1,0,0.2-0.1,0.3-0.1c0.4-0.2,0.9-0.4,1.4-0.6c0.2-0.1,0.4-0.1,0.6-0.2l0.6,0.8
			c-0.9,0.2-1.8,0.5-2.5,0.8c-1.7,0.8-1.1,1-1.8,1.4c-0.7,0.3-0.4,0.7-0.7,1.1c-0.2,0.3-0.3,0.5-0.3,0.9
			C144.3,69.9,143.9,70.3,144.1,70.5L144.1,70.5z M152.2,68.5c-0.1,0-0.1,0-0.2,0C152,68.5,152.1,68.5,152.2,68.5L152.2,68.5z
			 M153.3,71.5c-0.3,0-0.5-0.1-0.7-0.1c-0.3,0-0.5-0.1-0.7-0.2c-0.1,0-0.2-0.1-0.2-0.1c-0.1,0-0.1-0.1-0.2-0.1
			c-0.2-0.2-0.3-0.3-0.5-0.5c-0.1-0.1-0.1-0.1-0.2-0.1c0,0-0.1,0-0.1,0l0,0c0,0,0,0.1,0.1,0.1c0,0.1,0.1,0.1,0.2,0.2
			c0.1,0.1,0.2,0.2,0.3,0.3c0,0,0.1,0.1,0.2,0.1c0.1,0.1,0.2,0.1,0.3,0.2c0.2,0.1,0.5,0.1,0.7,0.2c0.3,0.1,0.6,0.2,0.9,0.2
			C153.3,71.6,153.3,71.5,153.3,71.5L153.3,71.5z M153.2,71.8c-0.2,0-0.4-0.1-0.6-0.1c-0.2-0.1-0.3-0.1-0.3-0.1s0.1,0,0.3,0.1
			C152.8,71.7,153,71.8,153.2,71.8L153.2,71.8z M170.7,75.2c0.8-0.1,1.5-0.3,2.2-0.4c2.3-0.4,4.3-0.7,5.7-0.9
			c1.4-0.2,2.2-0.3,2.2-0.3s-0.8,0.2-2.1,0.4c-1.4,0.3-3.3,0.7-5.7,1.1c-0.7,0.1-1.5,0.3-2.3,0.4L170.7,75.2
			C170.7,75.2,170.7,75.2,170.7,75.2z M132.8,82.2c1.4-0.3,3.3-0.7,5.7-1.1c2.3-0.5,5.1-1,8-1.5c2.9-0.6,6.1-1.1,9.2-1.7
			c0.7-0.1,1.5-0.3,2.3-0.4l0,0.5c-0.7,0.1-1.5,0.3-2.2,0.4c-3.2,0.6-6.3,1.1-9.2,1.6s-5.7,1-8.1,1.4
			C136.2,81.7,134.2,82,132.8,82.2c-1.3,0.3-2.1,0.4-2.1,0.4S131.4,82.5,132.8,82.2L132.8,82.2z M147.8,80.9
			c1.4-0.3,3.3-0.7,5.7-1.1c1.4-0.3,3-0.6,4.6-0.9l0,0.4c-1.6,0.3-3.2,0.5-4.6,0.8c-2.3,0.4-4.3,0.7-5.7,0.9
			c-1.4,0.2-2.2,0.3-2.2,0.3S146.5,81.1,147.8,80.9L147.8,80.9z M170.8,76.5c3.1-0.5,6.2-1.1,9.1-1.6c2.9-0.5,5.7-1,8.1-1.4
			c2.3-0.4,4.3-0.7,5.7-0.9c1.4-0.2,2.2-0.3,2.2-0.3s-0.8,0.2-2.1,0.4c-1.4,0.3-3.3,0.7-5.7,1.1c-2.3,0.5-5.1,1-8,1.5
			c-2.9,0.5-6,1.1-9.1,1.7L170.8,76.5L170.8,76.5z M194.8,69.5c-2,0.4-4.7,0.9-8.1,1.5c-3.4,0.6-7.3,1.4-11.5,2.1
			c-1.5,0.3-3,0.6-4.6,0.8l0-0.4c1.5-0.3,3-0.5,4.5-0.8c4.2-0.8,8.2-1.4,11.5-2c3.4-0.6,6.2-1.1,8.2-1.4c2-0.3,3.1-0.5,3.1-0.5
			S196.7,69.1,194.8,69.5z M118.1,68.5l3.3,6.5l-3-5.2l5.6,11.2l-5.5-9.7l5.5,11.2l-5.4-9.7l5.5,11.1l-5.3-9.7l4.9,10.1l-5.1-9.8
			C118.7,74.4,118.1,68.5,118.1,68.5z M149,82.3c-2.1,0.4-4.2,0.8-6.1,1.2c-2,0.4-3.8,0.8-5.5,1.1c-3.4,0.7-6.2,1.3-8.2,1.7
			c-2,0.4-3.1,0.6-3.1,0.6s1.1-0.3,3.1-0.8c1-0.2,2.2-0.5,3.5-0.8c1.4-0.3,2.9-0.7,4.6-1.1c1.7-0.4,3.5-0.8,5.5-1.2
			c2-0.4,4-0.9,6.1-1.3c2.1-0.4,4.3-0.9,6.6-1.3c0.9-0.2,1.9-0.4,2.8-0.5l0,0.5c-0.9,0.2-1.9,0.3-2.8,0.5
			C153.3,81.4,151.1,81.9,149,82.3L149,82.3z M195.7,74c-1,0.2-2.2,0.4-3.6,0.6c-1.4,0.2-3,0.5-4.7,0.8c-1.7,0.3-3.6,0.6-5.5,0.9
			c-2,0.3-4,0.7-6.2,1.1c-1.5,0.3-3.1,0.5-4.7,0.8l0-0.5c1.6-0.3,3.1-0.5,4.6-0.8c2.2-0.4,4.2-0.7,6.2-1s3.8-0.6,5.5-0.8
			c3.4-0.5,6.3-0.9,8.3-1.2c2-0.3,3.2-0.4,3.2-0.4S197.6,73.8,195.7,74L195.7,74z"/>
	</g>
</g>
</svg>
