<?xml version="1.0" encoding="utf-8"?>
<!-- Generator: Adobe Illustrator 26.0.1, SVG Export Plug-In . SVG Version: 6.00 Build 0)  -->
<svg version="1.1" id="Слой_1" xmlns:xodm="http://www.corel.com/coreldraw/odm/2003"
	 xmlns="http://www.w3.org/2000/svg" xmlns:xlink="http://www.w3.org/1999/xlink" x="0px" y="0px" viewBox="0 0 238.1 150.2"
	 style="enable-background:new 0 0 238.1 150.2;" xml:space="preserve">
<g id="Слой_x0020_1">
	<g id="_105553255210048">
		<g>
			<path d="M141.7,73.1c0-1.1,0.1-2.2,0-3.2c-0.1-1-0.8-1.6-1.6-2.2c-0.1-0.1-0.3-0.1-0.6-0.1c1.1,1.9,2.1,3.8,0.9,6
				c0.4,0,0.8,0,1.1,0c2-0.1,3.9,0.1,5.8,0.6c0.5,0.1,1,0.3,1.6,0.6c0.3,0.2,0.6,0.4,0.3,0.9c-0.1,0.3-0.1,0.6-0.3,0.9
				c-0.3,1.1-1,1.5-2.1,1.1c0-0.5,0-1,0-1.5c0-0.6-0.3-1-1-0.8c-0.6,0.2-1.1,0.4-1.6,0.8c-1.8,1.4-3.5,2.9-5.2,4.3
				c-1.4,1.1-2,2.6-2.3,4.3c-0.3,1.6-0.6,3.3-1.4,4.8c-0.1,0.1-0.1,0.3-0.1,0.4c0.4,0.1,0.9,0.2,1.4,0.2c0.7,0.1,1.4,0.1,2.1,0.1
				c1,0.1,1.6-0.3,1.8-1.1c0.3-0.6,0.3-1.3,0.3-1.8c-0.1-0.9-1-1.1-1.8-1.2c-0.1,0-0.2,0-0.3,0c-1.2,0-1.6-0.3-1.4-1.6
				c0.3-2.3,3-4.8,5.5-4.6c2.3,0.3,3.8,1.6,5,3.3c0.9,1.4,0.3,2.8-0.4,4c-0.4,0.8-1.1,1.5-1.6,2.2c0.3,0.9,1.1,1.2,2.1,1.4
				c0.3,0.1,0.9,0.1,1.1,0.3c0.3,0.1,0.6,0.4,0.7,0.7c0.1,0.2-0.3,0.5-0.5,0.8c-0.1,0.1-0.3,0.2-0.3,0.3c0.5,0.8,2,1.4,2.8,1.2
				c0.5-0.1,1-0.2,1.6-0.3c1.1-0.1,1.8,0.1,2.1,1.7c0.1,0.6,0.1,1.1,0,1.7c0,0.2-0.2,0.4-0.3,0.5c-0.1,0.1-0.4-0.1-0.6-0.2
				c-0.3-0.3-0.5-0.8-0.9-1.2c-0.3,0.9,0.6,2.1-0.9,2.5c-0.6-1.5-2-1.9-3.4-2.2c-0.6-0.1-1.2-0.1-1.8,0c-0.6,0.1-0.9,0.6-0.9,1.1
				c0,0.5,0.3,1,0.9,1.1c1.9,0.5,3.8,1,5.7,1.4c1.5,0.3,2.9,0.5,4.4,0.8c0.9,0.1,1.7,0.3,2.6,0.3c4.2,0.1,8.5,0.3,12.6,0.3
				c2.5,0,5-0.3,7.5-0.5c3.6-0.3,7.2-1,10.6-2c0.3-0.1,0.6-0.2,0.9-0.3c0.8-0.3,1.1-0.8,1-1.5c-0.1-0.6-0.8-1.1-1.5-1.1
				c-1.9,0.1-3.6,0.6-4.6,2.5c-0.9-0.4-1.1-0.2-0.6-2.6c-0.6-0.1-0.5,0.4-0.8,0.7c-0.3,0.3-0.4,0.6-0.7,0.9
				c-0.5-0.3-0.7-0.7-0.6-1.3c0.1-0.6,0.1-1.1,0.3-1.7c0.2-0.6,0.6-1,1.2-1c0.6,0.1,1.4,0.1,2,0.1c1.2,0.1,2.2-0.3,3-1.1
				c-0.2-0.2-0.3-0.3-0.6-0.5c-0.6-0.4-0.6-0.9,0.1-1.1c0.7-0.3,1.4-0.4,2.1-0.5c0.8-0.1,1-0.9,1.6-1.1c-0.1-0.1-0.1-0.3-0.2-0.3
				c-0.9-0.8-1.6-1.6-2-2.8c-0.6-1.5-0.6-2.9,0.4-4.1c1.2-1.4,2.7-2.3,4.5-2.4c1.8-0.1,3.3,0.9,4.3,2.2c0.6,0.9,1.1,1.7,1,2.9
				c-0.1,0.8-0.3,0.9-1,1c-0.9,0.1-1.7,0.1-2.3,1c-0.5,0.9-0.3,1.8,0.2,2.6c0.4,0.7,1.2,1,2,0.9c1-0.1,2-0.3,3-0.3
				c0.1,0,0.2-0.1,0.3-0.2c-1.3-1.8-1.2-4.1-1.8-6.1c-0.5-1.8-1.6-3.1-2.9-4.3c-1.6-1.4-3.3-2.7-5-4c-0.3-0.3-0.9-0.4-1.2-0.3
				c-0.6,0.1-0.9,0.6-0.8,1.4c0.1,0.3,0.1,0.6,0.1,1c-0.3,0-0.9,0.1-1.2-0.1c-0.6-0.2-1.3-1.9-1.1-2.6c0.1-0.1,0.2-0.3,0.3-0.3
				c1.5-0.6,2.9-1.1,4.6-1.1c1.3-0.1,2.6-0.1,4-0.2c-1.5-2.1-0.1-4,0.6-5.9c-1.4,0.3-2,1.6-2.1,2.7c-0.1,0.9,0,1.8,0,2.8
				c-1.1,0-2.1,0-3.1,0c-1.6,0.1-3,0.3-4.5,1.1c-0.9,0.3-1,0.8-0.8,1.6c0.3,1.3,0.1,2.5-0.2,3.7c-0.3,1.6-0.7,1.6-2.2,1
				c-0.1-0.1-0.3-0.1-0.5-0.3c0.3-0.3,0.6-0.8,1-1.1c-0.5-0.2-1.1-0.2-1.4-0.5c-0.3-0.3-0.1-1,0.5-1.4c-0.6-0.5-0.5-1,0.1-1.4
				c0.4-0.3,0.3-0.9,0.1-1.3c0-0.1-0.1-0.1-0.1-0.1c-1.1-1.3-0.7-1.6,0.6-2.3c1.8-1.1,3.8-2.1,5.5-3.1c0.6-0.3,1-1,1.5-1.5
				c0.1-0.1,0.1-0.3,0.1-0.6c-0.1-0.1-0.3-0.1-0.3-0.2c-0.3,0.3-0.5,0.6-0.7,1c-0.6,1-1.6,1.4-2.8,1.4c-0.1,0-0.4-0.3-0.4-0.4
				c0.3-1.6,0.4-3.3,1-4.8c0.4-1.3,1.7-1.7,3-2c1-0.2,1.8-0.4,2.9-0.6c0.1,0,0.2-0.1,0.3-0.3c-0.2-0.1-0.3-0.3-0.4-0.3
				c-0.4,0-1,0.1-1.4,0.1c-0.2,0-0.5-0.1-0.6-0.2c-0.1-0.2,0-0.5,0.1-0.6c0.9-0.8,1.8-1.3,3-1.4c1.6-0.2,3.4-0.3,4.8-1.2
				c0.6-0.3,1.1-1,1.7-1.6c0.1-0.1,0.1-0.4,0.1-0.6c-0.2,0.1-0.4,0.1-0.6,0.2c-0.3,0.2-0.5,0.4-0.8,0.7c-0.7,0.6-1.5,1.1-2.4,1
				c-0.3-0.1-0.7,0.1-1.1,0.1c-0.5,0.2-1.1,0.3-1.5-0.1c-0.3-0.5-0.3-1.1-0.1-1.6c0.1-0.2,0.2-0.3,0.3-0.4c0.1,0,0.1,0,0.2,0.1
				c0.3,0.3,0.7,0.9,1.2,0.5c0.6-0.4,1.2-1,1.8-1.6c0.1-0.1-0.3-0.6-0.4-0.6c-0.7-0.1-1.4-0.3-2.1-0.1c-0.4,0.1-0.9,0.6-1.3,1
				c-0.6-0.3-1-0.9-1-1.6c0.1-0.3-0.3-0.9-0.3-1.3c-0.3-0.7-0.1-1,0.6-1c1.1,0.1,1.9-0.3,2.7-1.1c0.3-0.3,1-0.4,1.4-0.6
				c0.6-0.1,1.1-0.1,1.6-0.3c0.8-0.3,1.1-0.9,1.4-1.6c0.8,1.3,0.1,2.5-1.3,2.8c-0.9,0.1-1.7,0.3-2.6,0.6c-0.6,0.2-1,0.6-0.7,1.4
				c0.3-0.1,0.5,0,0.8-0.1c0.9-0.5,1.7-0.9,2.8-1.1c1.4-0.3,1.8-0.7,2.4-2.1c1.3,0.4,2.4,0,3.5-0.6c0.1,0.7-0.3,1.6-1.2,2.2
				c-0.9,0.5-1.6,1.1-2.4,1.6c-0.1,0.1-0.2,0.2-0.3,0.3c0,0.1,0.1,0.1,0.1,0.2c0.5-0.2,1-0.3,1.6-0.5c0.6-0.2,1.1-0.5,1.7-0.7
				c0.6-0.3,1.1,0.1,1.1,0.8c0.1,1.4,0.6,2.4,1.6,3.4c0.3,0.3,0.6,0.9,1,1.3c-0.3,0.1-0.5,0.1-0.6,0.3c-0.2,0.2-0.5,0.6-0.4,0.7
				c0.4,1-0.1,2.1-0.2,3c0,0.1-0.1,0.1-0.1,0.2c0,0.4-0.1,0.9,0,1.3c0.3,0.6,0.8,0,1.1,0.1c0.1,0.1,0.3,0,0.4,0
				c0.4,0.1,0.6,0.4,0.3,0.7c-0.5,0.4-1.1,0.8-1.6,1.1c-0.3,0.2-0.6,0.2-1,0.3c0.9,1.4,0.4,2.8-0.1,4.1c-0.6-0.5-0.6-1.5-1.6-2.1
				c0.5,1.8,0.1,3.3-1,4.6c-0.2-0.9-0.3-1.7-0.6-2.6c-0.1,0-0.2,0-0.3,0c-0.5,1.7-1,3.5-1.6,5.3c-0.9-0.9-0.1-2.2-1.1-3
				c-0.3,0.9-0.3,1.6-0.2,2.4c0.3,1.4,1.3,2.3,2.3,3.1c1.1,0.9,2.3,1.6,3.5,2.6c0.8,0.6,1,1.6,1.1,2.6c0,0.6,0,1.2,0,1.8
				c0,0.9,0.3,1.5,1,1.6c0.7,0.3,1.6-0.1,2.2-0.6c0.6-0.8,0.5-2.3-0.2-3.2c-0.7-0.9-1.6-1.4-2.7-2c-1.6-1-2.8-2.3-3.3-4.1
				c-0.3-1.5,0.3-2.8,1.3-3.8c1.4-1.4,2.8-2.7,4.1-4.1c0.1-0.1,0.1-0.1,0.2-0.1c0.3,1.1,0.5,2.2,0.2,3.4c-0.3,0.9-0.9,1.6-1.6,2.1
				c-0.3,0.3-0.6,0.4-1,0.7c-1.5,0.9-1.5,2.6-0.3,3.5c1,0.9,2.2,1.6,3.3,2.4c0.9,0.6,1.8,1.1,2.1,2.3c0.1,0.6,0,1.3-0.1,1.9
				c0.3,0.1,0.7,0.1,1,0.1c-0.3,0.5-0.9,1-1,1.6c-0.4,1.5-2.3,1.8-3.4,1.6c-0.5-0.1-1-0.3-1.5-0.3c-0.3-0.1-0.6,0-0.9,0.2
				c-0.1,0.1,0,0.5,0.1,0.8c0.4,0.7,0.9,1.4,1.4,2.2c3-1.7,6.1-3.5,9.2-5.1c0.1,0,0.1,0.1,0.1,0.1c-0.3,0.6-0.4,1.2-0.7,1.8
				c-1.2,2.9-2.4,5.7-3.6,8.5c-0.3,0.6-0.1,1,0.4,1.4c0.9,0.6,1.7,1.3,2.6,2c-2.3,1.1-4.5,2.2-6.7,3.2c-0.3,0.1-0.6,0.3-1.1,0
				c-0.3-0.3-0.7,0-1,0.3c-0.3,0.3-0.4,0.8-0.7,1.2c-0.8-0.7-1.4-0.4-2.1,0.3c-0.3,0.3-0.8,0.6-1.2,0.1c-0.3-0.4-0.7-0.3-1,0.1
				c-0.2,0.2-0.3,0.4-0.5,0.7c-0.1-0.2-0.3-0.3-0.3-0.5c-0.3-0.4-0.7-0.7-1.2-0.1c-0.3,0.3-0.7,0.2-1-0.1c-0.3-0.3-0.5-0.4-0.9-0.1
				c-0.1,0.1-0.5,0.1-0.8,0c-0.6-0.2-0.9-0.1-0.9,0.6c0.2,1.2,0.3,2.5,0.7,3.7c0.5,1.6,0,2.3-1.2,3c-4.1,2.5-8.6,3.8-13.1,4.8
				c-2.6,0.6-5.2,0.9-7.7,1.2c-2.6,0.3-5.3,0.4-8,0.5c-2.3,0.1-4.6,0.1-6.9,0c-2-0.1-4-0.3-5.9-0.6c-2.3-0.3-4.8-0.7-7-1.2
				c-3.9-0.9-7.7-2.1-11.4-3.9c-0.7-0.3-1.4-0.8-1.9-1.2c-0.8-0.6-0.8-1.4-0.6-2.3c0.3-1.2,0.6-2.3,0.9-3.5c0.2-1,0-1.1-1-0.9
				c-0.1,0-0.1,0.1-0.2,0c-0.6-0.3-1.3-0.2-1.8,0.2c-0.1,0.1-0.3-0.1-0.5-0.1c-0.2-0.1-0.3-0.3-0.3-0.5c-0.3,0.4-0.7,0.8-1,1.1
				c-0.2-0.3-0.3-0.4-0.5-0.7c-0.3-0.3-0.6-0.5-1-0.1c-0.3,0.5-0.8,0.3-1.1,0.1c-0.1-0.1-0.1-0.1-0.1-0.1c-1-0.9-1-0.9-2-0.3
				c-0.2-0.3-0.3-0.6-0.5-1c-0.3-0.4-0.6-1-1.3-0.5c-0.2,0.1-0.6,0-0.9-0.1c-2.2-1-4.5-2.1-6.7-3.2c0.9-0.6,1.6-1.3,2.4-1.9
				c0.9-0.6,0.9-0.7,0.4-1.6c-1.2-2.9-2.3-5.8-3.5-8.6c-0.2-0.5-0.4-1-0.7-1.6c1.1,0.6,2.1,1.1,2.9,1.6c2,1.1,3.9,2.2,5.8,3.3
				c0.4,0.3,0.8,0.3,1-0.3c0.3-0.6,0.8-1.2,1.1-1.8c0.3-0.4,0.1-0.7-0.3-0.7c-0.4,0-0.9,0.1-1.3,0.3c-0.9,0.3-1.6,0.3-2.5,0
				c-0.8-0.3-1.2-0.6-1.5-1.4c-0.3-0.6-0.8-1.1-1.1-1.6c0.3-0.1,0.8-0.1,1.2-0.2c-0.6-2.2,0.4-3.1,1.7-4.1c1.3-0.9,2.5-1.8,3.7-2.9
				c1-0.9,1-2.1,0-3c-0.5-0.5-1.1-0.9-1.8-1.3c-1-0.5-1.4-2-1.3-3c0.1-0.8,0.1-1.6,0.2-2.3c0.3,0.3,0.5,0.4,0.8,0.6
				c1.2,1.1,2.4,2.3,3.6,3.5c1.8,1.6,1.6,4.1,0.3,5.8c-1,1.4-2.2,2.2-3.6,3c-1.3,0.7-2.1,2.3-1.9,3.5c0.1,0.9,1.1,1.5,2.3,1.4
				c0.7-0.1,1.2-0.7,1.3-1.6c0-0.9,0-1.6,0.1-2.5c0.1-1.5,1.1-2.3,2.2-3c1.1-0.7,2.2-1.4,3.1-2.3c1.4-1.2,1.9-2.9,1.4-4.8
				c-0.4,0.3-0.5,0.9-0.6,1.4c-0.1,0.6-0.1,1.2-0.6,1.6c-0.1,0.1-0.1,0.1-0.3,0.2c0.3-2.1-1.1-3.5-1.1-5.5c-0.9,0.7-0.7,1.6-0.9,2.5
				c-1-0.3-1.4-1.9-1.3-4.3c-0.3,0.3-0.5,0.6-0.7,0.9c-0.2,0.3-0.3,0.7-0.4,1.1c-0.8-1.1-1.1-2.9-0.3-4.2c-0.3-0.1-0.8-0.2-1.1-0.3
				c-0.5-0.3-1.1-0.6-1.6-1c-0.3-0.3-0.2-0.8,0.3-0.9c0.3-0.1,0.7-0.1,1.1,0c0.6,0.1,0.8-0.3,0.6-0.8c-0.1-0.7-0.3-1.4-0.3-2.1
				c-0.1-0.5-0.1-1,0.1-1.6c0.1-0.5,0.1-0.8-0.4-0.9c-0.1-0.1-0.3-0.1-0.6-0.3c0.5-0.6,0.9-1.2,1.4-1.7c0.6-0.6,1.1-1.3,1.1-2.2
				c0-1.2,0.6-1.9,1.9-1.3c0.9,0.4,1.7,0.8,2.6,1.1c0.1-0.1,0.1-0.1,0.1-0.1c-0.1-0.1-0.1-0.3-0.2-0.3c-0.6-0.4-1.3-0.9-1.9-1.3
				c-1-0.6-1.6-1.4-1.9-2.7c0.6,0.3,1.3,0.6,1.8,0.7c0.6,0.1,1.3,0,2,0c0.5,1.2,1.6,1.9,2.9,2.2c0.9,0.1,1.6,0.6,2.3,1
				c0.2,0.1,0.4,0,0.7,0c-0.1-0.3,0-0.8-0.2-0.9c-0.6-0.3-1.2-0.5-1.8-0.6c-0.6-0.1-1.1-0.1-1.7-0.3c-1.4-0.3-1.7-2.1-1-2.9
				c0.1,0.2,0.2,0.4,0.3,0.6c0.4,0.9,1.1,1.3,2.1,1.3c1.1,0,2.1,0.3,2.9,1.2c0.3,0.3,0.9,0.4,1.4,0.6c0.3,0.1,0.6,0,0.9,0
				c0.4,0,0.6,0.3,0.5,0.6c-0.1,0.8-0.3,1.6-0.5,2.3c-0.1,0.3-0.4,0.8-0.9,1c-0.3,0.2-0.6,0.1-0.8-0.3c-0.5-1-0.5-1-1.6-0.9
				c-0.1,0-0.1,0-0.1,0c-0.5,0-1-0.1-1.2,0.6c-0.3,0.6,0.3,0.8,0.7,1.1c0.2,0.2,0.4,0.3,0.7,0.5c0.3,0.3,0.7,0.3,1.1-0.1
				c0.6-0.5,1-0.3,1.1,0.4c0.2,0.8-0.1,1.5-0.9,1.6c-0.2,0.1-0.3,0-0.6,0c-0.8-0.1-1.5-0.3-2.2-0.3c-1.4,0-2-0.6-2.6-1.3
				c-0.4-0.3-0.6-0.4-0.9-0.2c0.8,1.6,2.1,2.2,3.6,2.6c1.2,0.3,2.5,0.4,3.7,0.9c0.6,0.2,1.3,0.5,1.8,0.9c0.3,0.2,0.5,0.6,0.8,1
				c-0.9,0.4-1.6,0.2-2.6,0.2c0.2,0.2,0.3,0.4,0.5,0.4c1,0.3,2,0.5,3,0.8c0.8,0.2,1.6,0.3,2.2,1c0.9,0.9,1,1.8,1.1,2.9
				c0.1,0.9,0.2,1.7,0.3,2.6c0.1,0.5-0.2,0.9-0.6,0.7c-1.1-0.3-2.2-0.5-2.8-1.8c-0.1-0.2-0.3-0.3-0.6-0.3c-0.1,0.1-0.1,0.1-0.2,0.2
				c0.1,0.3,0.3,0.6,0.4,0.9c0.8,1,2,1.5,3,2.1c1.5,0.8,2.9,1.6,4.3,2.4c0.6,0.3,0.6,0.9,0.3,1.4c-0.1,0.1-0.1,0.2-0.3,0.3
				c-0.7,0.9-0.8,1,0.1,1.7c0.5,0.5,0.1,0.8-0.1,1.1c0.1,0,0.1,0,0.2,0c0.1,0.4,0.3,0.9,0.2,1.3c-0.2,0.7-0.9,0.3-1.5,0.5
				c0.3,0.3,0.4,0.5,0.7,0.7c0.3,0.3,0.4,0.6,0,0.9c-1,0.7-2.2,0.6-2.4-1.1c-0.1-0.9-0.2-1.8-0.3-2.8c0-0.3,0-0.6,0.1-1
				c0.3-0.5,0.1-1-0.3-1.2c-1-0.4-1.9-0.9-2.9-1C144.8,73,143.3,73.1,141.7,73.1C141.9,73.1,141.8,73.1,141.7,73.1L141.7,73.1z
				 M199,99.6c-19.5,6-39,6.1-58.5,0c0.1,0.7,0.2,1.3,0.3,1.8c0.1,1.7-0.1,3.4-0.5,5c-0.3,1.6,0,1.6,1.1,2.1c2.7,1,5.4,1.9,8.2,2.7
				c2.6,0.7,5.3,1.2,8,1.7c1.8,0.3,3.7,0.5,5.5,0.6c1.1,0.1,2.2,0.1,3.3,0.1c2.5,0,5,0.1,7.4,0c2.3-0.1,4.8-0.3,7.1-0.6
				c2.3-0.3,4.7-0.7,7-1.2c2.1-0.4,4.1-1,6.1-1.6c1.7-0.6,3.3-1.3,5-2c0.5-0.2,0.6-0.6,0.4-1.1c-0.3-1.6-0.6-3.1-0.7-4.8
				C198.6,101.5,198.9,100.7,199,99.6L199,99.6z M201.4,92.7c0,0.1,0,0.1,0,0.2c0.4,0.3,0.9,0.6,1.3,1c0.9,0.7,1.4,1.8,0.6,2.9
				c-0.6,1-1.3,2-2,3c0.5,0.1,1.1,0.1,1.6,0.2c0.5,0.1,0.9-0.1,1.1-0.6c0.3-0.6,0.8-0.9,1.4-0.9c0.5,0,1,0.1,1.6,0
				c0.9-0.1,1.6-0.3,2.2-1.1c0.7-1,0.8-2.1,0.4-3.3c-0.3-1.4-1.6-2.3-2.9-2.2C205,92.1,203.2,92.4,201.4,92.7L201.4,92.7z M138,92.9
				c-1.5-0.3-2.9-0.5-4.2-0.9c-2.2-0.4-3.8,0.3-4.1,2.3c-0.3,1.7,0.1,3.5,2.3,4.1c0.6,0.1,1.4,0.1,2.1,0.1c0.6,0,1.1,0.3,1.4,0.9
				c0.2,0.4,0.6,0.7,1.1,0.6c0.6-0.1,1.1-0.2,1.7-0.3c-0.6-0.7-1.3-1.3-1.7-2c-1.1-1.8-1.1-3,0.8-4.3
				C137.5,93.2,137.8,93.1,138,92.9L138,92.9z M196,97.8C196.1,97.9,196.1,97.9,196,97.8c0.7-0.1,1.2-0.3,1.8-0.5
				c1.1-0.5,2.2-1,3.3-1.6c0.4-0.2,0.5-0.6,0-0.8c-0.3-0.1-0.6-0.3-0.9-0.3c-1.2-0.5-2.5-1-3.8-1.6C196.7,94.9,196.9,96.4,196,97.8z
				 M142.7,93.3c-1.5,0.6-3,1.2-4.5,1.8c-0.5,0.2-0.5,0.4-0.1,0.8c1.6,1,3.3,1.6,5,2.1c-0.2-0.8-0.3-1.6-0.4-2.2
				C142.6,94.9,142.7,94.1,142.7,93.3L142.7,93.3z M217.6,87.9C217.5,87.9,217.5,87.9,217.6,87.9c-1.4,0.5-2.7,1-3.9,1.7
				c-0.2,0.1-0.3,0.4-0.3,0.6c0.1,0.9,0.2,1.6,0.3,2.4c0,0.4,0.1,0.9,0.6,0.9c0.5,0,0.9,0.1,1.1-0.5c0.3-0.9,0.8-1.6,1.1-2.4
				C216.8,89.7,217.1,88.8,217.6,87.9z M122,87.9C122,87.9,122,87.9,122,87.9c0.7,1.9,1.5,3.7,2.3,5.5c0.1,0.1,0.3,0.3,0.6,0.2
				c0.3-0.1,0.9-0.1,0.9-0.7c0.1-1,0.1-1.9,0.1-2.9c0-0.1-0.1-0.3-0.3-0.4C124.5,89,123.3,88.4,122,87.9L122,87.9z M216,96.8
				c-0.3-0.8-0.9-1.1-1.4-1.3c-0.4-0.1-1.1-0.3-1.5,0.3c-0.3,0.8-0.4,1.6-0.3,2.6C213.9,97.8,214.9,97.3,216,96.8z M123.5,96.7
				c1,0.5,2.1,1,3,1.5c0.4-0.9,0.1-2.3-0.6-2.7C125.2,95.1,124.2,95.6,123.5,96.7z M194.4,93.7c-0.1,0-0.2,0-0.3,0
				c-0.4,0.5-1,1-1.4,1.5c-0.1,0.1-0.1,0.3-0.1,0.3c0.4,0.3,0.9,0.5,1.4,0.7c0.3,0.1,0.6-0.1,0.6-0.4
				C194.6,95,194.5,94.3,194.4,93.7L194.4,93.7z M145.3,93.7c-0.1,0-0.2,0-0.3,0.1c-0.1,0.6-0.1,1.3-0.2,1.9
				c-0.1,0.6,0.3,0.6,0.7,0.5c0.4-0.2,0.9-0.4,1.4-0.7C146.3,94.8,145.8,94.2,145.3,93.7L145.3,93.7z"/>
			<path d="M179.6,52.4c-1.5-0.3-2.9-0.6-4.4-0.9c-0.6-0.1-1.2-0.2-1.8-0.2c-2.1,0-4.2-0.1-6.3,0c-2.2,0.1-4.3,0.6-6.5,0.9
				c-0.6,0.1-1-0.2-1.1-0.8c-0.5-1.6-1.5-2.7-3.1-3c-0.3-0.1-0.4-0.3-0.7-0.3c0.5-0.9,1.3-0.4,2-0.4c0.1-0.7,0.2-1.4,0.3-2
				c0.2-1.2,1-1.8,2.2-1.6c0.3,0.1,0.4,0,0.9,0.1c-0.3-0.5-0.6-1-0.9-1.4c0.9-0.3,1.1,0.3,1.7,0.7c0.3-0.4,0.2-1.4,1.1-1.5
				c0.1,0.3,0.1,0.7,0.2,1.1c0.3-0.5,0.8-1,1.1-1.6c0.9-1.2,1.5-1.4,2.9-0.9c0.3,0.1,0.6,0.2,1,0.2c-0.2-0.3-0.3-0.6-0.6-0.9
				c-0.3-0.3-0.4-0.5-0.7-0.9c0.9-0.2,1.4,0.3,2.2,0.7c-0.3-0.8-0.6-1.4-0.9-2.1c0.8-0.3,1.1,0.1,1.4,0.6c0.5-0.3,1-0.6,1.4-1
				c0.1,0.1,0.1,0.1,0.2,0.2c-0.3,0.7-0.5,1.4-0.9,2.2c0.4-0.2,0.7-0.3,1-0.5c0.3-0.1,0.7-0.2,1-0.3c0,0.1,0.1,0.1,0.1,0.1
				c-0.3,0.5-0.8,1-1.4,1.7c2.9-1.3,4.1,0.1,5.1,2.5c0.1-0.6,0.2-1,0.3-1.5c0.1,0,0.2-0.1,0.3-0.1c0.1,0.3,0.3,0.6,0.4,0.9
				c0.3,0.7,0.3,0.7,0.9,0.3c0.3-0.2,0.6-0.3,1-0.5c0.1,0.1,0.1,0.1,0.1,0.1c-0.3,0.4-0.4,0.9-0.7,1.4c0.6,0,1.1,0,1.6,0
				c0.6,0,1.1,0.3,1.2,0.9c0.2,0.7,0.4,1.4,0.5,2.1c0.1,0.5,0.3,0.6,0.7,0.6c0.3,0,0.8,0.1,1.1,0.2c0,0.1,0,0.2,0,0.3
				c-0.3,0.1-0.5,0.3-0.8,0.3C181.1,49,180.1,50.3,179.6,52.4L179.6,52.4z M164.8,48.2c-0.1,0-0.2-0.1-0.3-0.1
				c0-0.2-0.1-0.3-0.1-0.5c0.1-0.5,0.3-1,0.3-1.5c0-0.2-0.1-0.4-0.2-0.7c-0.2,0.1-0.4,0.2-0.6,0.3c-0.1,0.1-0.1,0.2-0.1,0.3
				c-0.3,1.6,0.3,3,1.3,4.1c0.7,0.9,1.7,0.5,2.6,0.1c0.7-0.3,1.2-1.1,1.2-1.9c-0.1-1-0.9-1.4-1.7-1.1c-0.6,0.2-0.5,0.6-0.5,1
				c0,0.4,0.3,0.4,0.6,0.5c0.3,0.1,0.5,0.2,0.8,0.3c-0.4,0.7-0.6,0.9-1.1,0.7c-0.3-0.1-1.1-0.9-1.1-1.4c-0.1-1.6,1-2.3,2.6-2.1
				c0.3,0.1,0.6,0,0.7-0.2c0.3-0.3,0.2-1.4-0.2-1.8c-0.4-0.5-0.8,0.1-1.3,0.1c0.3,0.3,0.5,0.6,0.8,0.9c-0.5,0.3-1,0.5-1.4,0.1
				c-0.3-0.3-0.5-0.9-0.2-1.4c0.3-0.4,0.7-0.8,1-1.1c0.3-0.3,0.3-0.6,0-0.9c-1.2-0.6-2.2-0.9-3.3,0.3c-0.8,0.9-0.6,1.6,0.5,1.8
				c0.5,0.1,0.9,0.4,0.7,1C165.5,46.4,165.2,47.2,164.8,48.2L164.8,48.2z M170.8,45.2c0.1-0.1,0.3-0.2,0.3-0.3
				c0.2-0.2,0.6-0.3,0.3-0.7c-0.3-0.3-0.7-0.3-1,0c-0.2,0.3-0.3,0.7-0.3,1.1c-0.1,0.8,0.3,1.1,1.1,0.9c1.1-0.3,1.9,0.2,2.2,1.4
				c0.3,1.1-0.4,2.1-1.5,2.2c-0.4,0-0.6-0.2-0.7-0.6c-0.1-0.4,0.3-0.4,0.6-0.4c0.3-0.1,0.7-0.1,0.7-0.6c0.1-0.6-0.3-0.9-0.8-0.9
				c-0.7-0.1-1.2,0.3-1.4,0.9c-0.1,0.9,0.3,1.7,1,2.1c1.1,0.5,2.1,0.5,2.8-0.1c0.9-0.9,1.1-1.8,1.4-2.9c0.2-1,0-1.5-1.1-2
				c0.1,1,0.2,1.9,0.3,2.9c-0.9-0.6-1-1.5-1.3-2.2c-0.3-1,0-1.6,1-1.6c0.5-0.1,0.9-0.3,0.7-1c-0.1-0.8-1-1.6-1.7-1.6
				c-1-0.1-1.8,0-2.6,0.9c0.3,0.3,0.9,0.6,1.1,1c0.4,0.5,0.5,1.2,0.2,1.6C172,45.8,171.7,45.8,170.8,45.2z M176.9,48.8
				c-0.3-0.8,0.2-1,0.6-1.4c0.3-0.3,0.7-0.6,1-1c0.1-0.1,0.1-0.3,0-0.5c-0.1-0.1-0.3-0.2-0.3-0.1c-0.3,0.2-0.9,0.3-1.1,0.8
				c-0.7,1-1,2.1-0.9,3.3c0.1,0.9,0.7,1.5,1.6,1.2c2.4-0.6,3.8-3.5,3-5.6c-0.3-0.9-1.1-1-1.8-0.3c0.3,0.6,0.8,1.3,0.3,1.8
				C178.5,47.7,177.6,48.2,176.9,48.8z M160.4,45.1c-1.1-0.5-1.8,0.1-1.6,1c0.1,0.3,0,0.9,0,1.2c0.2,1.9,0.6,2.9,2.6,3.7
				c1,0.3,1.8-0.1,1.7-1.2c-0.1-1-0.3-1.9-0.6-2.9c-0.1-0.3-0.6-0.8-1-1c-0.1-0.1-0.5,0.1-0.9,0.2c0.1,0.3,0.1,0.6,0.3,0.8
				c0.2,0.2,0.5,0.3,0.8,0.5c0.6,0.3,0.9,0.7,0.6,1.5c-0.7-0.4-1.4-0.8-2.1-1.3c-0.3-0.2-0.3-0.8-0.3-1.1
				C160,45.9,160.3,45.5,160.4,45.1z"/>
			<path d="M154.9,58.1c9.9,0,19.8,0,29.7,0c0,0.3,0,0.5,0,0.8c0,8,0,15.8,0,23.9c0,2.1-0.3,4.1-1.5,5.9c-1,1.6-2.6,2.7-4.5,3.2
				c-2,0.6-4.1,1-5.9,2.1c-1.3,0.8-2.2,1.8-2.9,3.1c-0.5-0.6-0.9-1.2-1.4-1.7c-1.5-1.6-3.3-2.2-5.4-2.9c-1.4-0.3-2.7-0.8-4-1.4
				c-1.8-0.8-3-2.3-3.6-4.2c-0.5-1.5-0.7-2.9-0.7-4.5c0-7.8,0-15.6,0-23.4C154.9,58.6,154.9,58.4,154.9,58.1z M155.6,59.1
				c0,0.2-0.1,0.3-0.1,0.3c0.1,8.2,0.1,16.5,0.1,24.8c0,1.6,0.6,3,1.6,4.3c1.2,1.6,2.9,2.1,4.8,2.6c2.9,0.8,5.8,1.6,7.5,4.3
				c0.6-0.6,1.3-1.3,1.9-1.8c1.8-1.5,4.1-1.9,6.4-2.6c1.5-0.3,2.9-1,3.9-2.1c1.4-1.6,1.8-3.5,1.9-5.5c0.1-7,0-14,0-20.9
				c0-1.1,0-2.2,0-3.3C174.4,59.1,165.1,59.1,155.6,59.1L155.6,59.1z"/>
			<path d="M157.3,56.7c-0.1-0.3-0.3-0.7-0.4-1.1c-0.2,0.3-0.3,0.7-0.6,1c-0.3,0.6-0.6,0.7-1.1,0.2c-0.3-0.3-0.5-0.5-0.9-0.6
				c-0.3-0.1-0.7-0.2-1-0.1c-0.2,0.1-0.3,0.5-0.3,0.8c0.1,0.7-0.1,1.1-1,1c0.1,0.8,0.3,1.4,0.4,2.2c-1.5-0.5-1.4-1.8-1.6-2.9
				c-0.4,0.4-0.6,1-0.4,1.5c0.3,0.6,0.7,1.3,1.2,1.8c0.8,0.8,0.9,1.1,0.6,2.1c-0.3,1.2-1.1,2.3-1.9,3.3c-0.1,0.2-0.3,0.3-0.6,0.6
				c-0.2-2.2-0.7-4.2-3.2-5.3c0.4-0.3,0.9-0.6,1.2-1c1.2-1.1,1.3-2.6,0.4-4c-0.1-0.1-0.1-0.2-0.2-0.3c-0.3-0.7-0.3-0.9,0.5-1
				c1-0.1,1.9-0.4,2.6-1.2c0.3-0.3,0.6-0.4,1-0.4c1.5-0.1,2.9-0.1,4.4-0.1c0.9,0,1.8,0.5,1.8,1.2C158.8,55.3,158.5,56.4,157.3,56.7z
				"/>
			<path d="M189.5,66.2c-1.1-1.3-2.1-2.5-2.5-4.1c-0.2-0.9-0.1-1.1,0.6-1.6c0.9-0.6,1.5-1.5,1.3-2.6c-0.1-0.3-0.2-0.5-0.3-0.8
				c-0.4,1-0.3,2.2-1.6,2.9c0.1-0.7,0.2-1.4,0.3-2.1c-0.6-0.1-0.9-0.3-0.9-1c0-0.3-0.2-0.9-0.4-1c-0.3-0.1-0.8,0.1-1.1,0.3
				c-0.4,0.3-0.8,0.6-1.2,1.1c-0.3-0.6-0.7-1.1-1.1-1.8c-0.1,0.3-0.2,0.6-0.3,1c-0.1,0.3-0.2,0.3-0.4,0.1c-0.6-0.3-1-1.4-0.9-2.2
				c0.1-0.8,0.8-1,1.4-1.1c1-0.1,2-0.1,2.9,0c0.8,0,1.6,0.1,2.2,0.1c0.3,0.1,0.6,0.3,0.9,0.5c0.5,0.8,1.3,0.9,2.1,1.1
				c0.3,0.1,0.6,0.3,0.9,0.3c-0.1,0.3-0.2,0.6-0.3,0.9c-0.9,1.3-0.7,3,0.4,4.2c0.3,0.3,0.6,0.6,1,0.9
				C190.3,62.2,189.6,64,189.5,66.2L189.5,66.2z"/>
			<path d="M178.2,55.9c-1-0.1-1.9-0.2-2.9-0.3c-0.6-0.1-1.3-0.2-1.9-0.2c-2-0.1-4-0.2-6-0.1c-1.7,0.1-3.5,0.4-5.3,0.6
				c-0.4,0.1-1,0.3-1.1-0.6c0.7-0.1,1.4-0.3,2.1-0.3c2.6-0.2,5.1-0.4,7.7-0.5c2.3-0.1,4.8,0.3,7.1,0.9c0.2,0.1,0.3,0.3,0.5,0.4
				C178.2,55.7,178.2,55.8,178.2,55.9z"/>
			<path d="M143.1,55.1c0.3-0.1,0.6-0.2,0.9-0.3c1-0.3,1-0.3,0.6-1.3c-0.3-0.9-0.3-1.6,0.3-2.1c0.9-0.7,2.1-0.3,2.2,0.8
				c0.3,1.3-0.2,2.2-1.5,2.6c-0.8,0.3-1.6,0.3-2.3,0.4C143.1,55.2,143.1,55.2,143.1,55.1L143.1,55.1z"/>
			<path d="M196.2,55c-1,0.3-1.6,0-2.3-0.3c-1.4-0.6-1.6-1.9-1.2-2.8c0.3-0.6,1-1,1.6-0.8c0.8,0.3,1.1,0.9,0.9,1.6
				c-0.1,0.3-0.2,0.6-0.3,0.9c-0.3,0.5-0.1,0.9,0.4,1C195.5,54.8,195.8,54.9,196.2,55L196.2,55z"/>
			<path d="M160.7,54.6c-0.3-0.6-0.4-1-0.6-1.6c1-0.2,1.8-0.3,2.9-0.6c0.3-0.1,0.6,0,0.6,0.5c0,1.1,0.1,1.1-1.1,1.4
				C161.8,54.4,161.2,54.4,160.7,54.6z"/>
			<path d="M168.6,52L168.6,52c0.1,1.6,0.1,1.6-1.7,1.7c-0.3,0-0.7,0-1.1,0c-0.1-0.5-0.1-1.1-0.2-1.7C166.6,52,167.5,52,168.6,52
				L168.6,52z"/>
			<path d="M173.7,53.8c-1-0.1-1.9-0.1-2.9-0.2c0-0.5,0-1.1,0-1.6c1,0,1.9,0,2.9,0C173.7,52.7,173.7,53.2,173.7,53.8z"/>
			<path d="M176,52.5c1.1,0.3,2.1,0.4,3.2,0.7c-0.1,0.3-0.3,0.8-0.4,1c-0.1,0.2-0.3,0.3-0.6,0.3c-0.6-0.1-1.3-0.2-1.9-0.3
				c-0.1-0.1-0.3-0.3-0.3-0.4C175.9,53.3,175.9,52.8,176,52.5L176,52.5z"/>
			<path d="M169.8,34.9c0.7,0.9,0.8,1.6,0.3,2.4c-0.2,0.3-0.3,0.3-0.5,0C168.8,36.7,168.9,35.8,169.8,34.9z"/>
			<path d="M161.5,42.6c-0.3-0.3-0.5-0.8-0.7-1.2c-0.1-0.1,0.1-0.3,0.2-0.6c0.2,0.1,0.5,0.1,0.6,0.3c0.2,0.4,0.3,1,0.3,1.5
				C161.7,42.5,161.6,42.5,161.5,42.6z"/>
			<path d="M169.8,52c0.8,0.9,0.8,0.9-0.1,1.6C168.8,52.9,168.8,52.6,169.8,52z"/>
			<path d="M164.6,53.9c-0.8-0.5-0.9-0.8-0.6-1.2c0.2-0.3,0.4-0.5,0.9-0.1C165.2,53,165.2,53.1,164.6,53.9z"/>
			<path d="M174.7,53.9c-0.2-0.3-0.4-0.6-0.6-0.9c0.3-0.2,0.4-0.9,1-0.3C175.5,53,175.5,53.2,174.7,53.9z"/>
			<path d="M178,42.5c-0.6-0.6-0.4-1.1,0-1.6c0.1-0.1,0.3-0.1,0.4-0.1c0.1,0,0.1,0.3,0.1,0.3C178.4,41.7,178.2,42,178,42.5z"/>
			<path d="M172.9,106.8c-0.5,0.9-1.1,1.8-1.6,2.6c0,0.1,0.1,0.1,0.1,0.2c0.3-0.2,0.9-0.3,1.1-0.5c0.4-0.4,0.9-1,1.2-1.5
				c0.5-0.9,1-1.1,2.1-0.9c-0.3,0.4-0.6,0.9-0.9,1.4c-0.3,0.4-0.5,0.9-0.9,1.3c0.1,0.1,0.1,0.1,0.1,0.2c0.3-0.1,0.6-0.2,0.9-0.3
				c0.6-0.6,1.2-1.3,1.7-2c0.5-0.6,1-1,1.8-0.8c0,0.1,0,0.3,0.1,0.5c0.8-0.3,1.4-1,2.2-0.6c-0.1,0.3-0.3,0.7-0.3,1
				c0.6,0.3,0.9,0.3,1.1-0.3c0.3-0.9,1.1-1,2-0.6c-0.6,0.9-1.1,1.6-1.7,2.5c0.6,0.3,1-0.1,1.3-0.3c0.5-0.5,1-1.1,1.5-1.6
				c0.4-0.6,1-0.9,1.9-0.6c-0.5,0.9-1,1.6-1.5,2.5c0.1,0.1,0.1,0.1,0.1,0.1c0.9-0.6,1.6-1.1,2.4-1.6l0.1,0.1
				c-0.2,0.2-0.3,0.4-0.6,0.6c-1.5,1.1-3,2.2-4.5,3.4c-1.4,1.1-2.9,1.1-4.6,0.8c-0.6-0.1-0.9-0.5-0.8-1.1c0.1-0.5,0.6-1,1.3-1
				c0.3,0,0.6,0,1,0.1c-0.4,0.3-1,0.5-0.9,1.1c0.1,0.5,0.3,0.7,0.8,0.8c0.9,0.1,1.6-0.3,2.1-0.9c0.4-0.4,1-1,1.4-1.6
				c-0.3,0-0.5-0.1-0.7,0c-1,0.2-1.3,0-1.3-1c0-0.1,0-0.3-0.1-0.3c-1,0.3-1.5-0.1-1.9-1c-0.6,0.6-1.3,1.2-1.8,1.8
				c-0.3,0.5-0.9,0.7-1.6,0.7c-0.3,0-0.9,0-1.1,0.1c-0.9,0.3-1.4,0.1-1.8-0.6c-1.9,1-2.1,1.1-2.9,0.1c-0.5,0.3-1,0.5-1.6,0.8
				c-0.6,0.3-1.2,0.2-1.7-0.2c-0.3-0.3-0.6-0.3-1-0.1c-0.9,0.4-1.7,0.6-2.6-0.1c-0.1-0.1-0.3,0-0.5,0.1c-0.3,0.1-0.5,0.3-0.8,0.3
				c-0.9,0.3-1.1,0.2-1.6-0.6c-0.4,0.2-0.9,0.3-1.4,0.6c-0.9,0.3-1.1,0.1-1.6-1c-0.7,0.7-1.4,1.4-2.1,2c-0.3,0.3-0.9,0.5-1.3,0.8
				c-0.1,0.1-0.3-0.1-0.3-0.3c-0.1-1.6-0.9-1.6-2.3-1.4c-0.7,0.1-1.4,0.2-2.1-0.3c0.2-0.1,0.3-0.1,0.5-0.2c0.2,0,0.4-0.1,0.6,0
				c2.3,0.3,3.3-1.2,4.3-2.8c0.1-0.1,0-0.3-0.1-0.5c-0.2-0.2-0.4-0.3-0.6-0.5c0.1-0.1,0.1-0.1,0.1-0.1c0.1,0.1,0.2,0.1,0.3,0.2
				c0.3,0.3,0.6,0.3,1-0.1c0.7-0.9,1.5-1.6,2.6-1.8c0.8-0.1,1.6-0.1,2.4-0.1c0.6,0,0.8,0.4,0.9,0.9c0.1,0.5-0.2,0.9-0.7,1
				c-1,0.3-2.1,0.4-3.1,0.7c-0.3,0.1-0.9,0.3-1.1,0.6c-0.7,1-1.6,1.8-2.9,2.4c0.3,0.1,0.6,0.3,0.9,0.3c0.3,0.1,0.6,0.3,0.9,0.3
				c0.1,0.1,0.3,0,0.4-0.1c1.1-0.9,2.2-1.8,3.2-2.9c0.5-0.5,1-0.6,1.8-0.4c-0.6,0.9-1.1,1.7-1.6,2.6c0,0.1,0.1,0.1,0.1,0.2
				c0.3-0.1,0.7-0.1,0.9-0.3c0.4-0.3,0.9-0.9,1.2-1.4c0.6-1,1.1-1.2,2.3-0.9c-0.6,0.9-1.2,1.7-1.8,2.6c0.1,0.1,0.1,0.1,0.2,0.2
				c0.6-0.3,1.1-0.6,1.6-1c0.8-0.5,1.5-1.1,2.2-1.6c0.6-0.4,1.4-0.7,2-0.1c0.4,0.3,0.8,0.1,1.1-0.1c0.9-0.3,1.4-0.3,1.8,0.6
				c-0.3,0.2-0.7,0.4-1.1,0.6c-0.1-0.1-0.1-0.1-0.2-0.1c0.1-0.3,0.1-0.5,0.2-0.9c-0.3,0.1-0.5,0.1-0.6,0.2c-0.3,0.3-0.8,0.8-1,1.1
				c-0.1,0.2-0.1,0.6,0.1,0.9c0.1,0.1,0.6,0.2,0.9,0.1c0.7-0.4,1.4-0.9,2-1.4c0.1-0.1,0.2-0.3,0.3-0.3
				C171.5,106.7,171.8,106.6,172.9,106.8L172.9,106.8z M156.9,106.4c1,0.1,1.8-0.1,2.6-0.6c0.3-0.3,0.7-0.7,0.3-1.1
				c-0.3-0.3-0.7-0.3-1.1-0.2C157.7,104.6,157.3,105.4,156.9,106.4z M164,109.6c0.6,0.3,1.2,0.2,1.7-0.2c0.6-0.3,1.1-1,1-1.7
				c-0.1-0.5-0.4-0.4-0.8-0.3c-0.5,0.3-1,0.6-1.6,1C164.9,109,164.5,109.4,164,109.6z"/>
			<path d="M153.8,105.6c-0.3-0.3-0.3-0.6-0.1-1c0.3-0.4,0.8-0.5,1.3-0.3c-0.3,0.1-0.7,0.1-0.9,0.3
				C153.9,104.9,153.9,105.2,153.8,105.6z"/>
			<path d="M163.3,75.8c0.6-2.2,1.3-4.5,1.9-6.7c0.1-0.4,0.3-1,0.3-1.4c0.2-1,0.2-1.1-0.9-1.4c-0.1-0.1-0.3-0.1-0.4-0.1
				c-0.1-0.9-0.1-0.9,0.8-0.9c1.9,0,3.8,0,5.7,0c2.4-0.1,4.8-0.2,7.3-0.3c1.1,0,2.3,0.3,3.3,0.9c1.1,0.7,2.1,2.9,1.7,4.3
				c-0.3,1.2-0.6,2.5-1.8,3.1c-0.6,0.3-1.3,0.4-1.9,0.6c-0.8,0.1-1.6,0.1-2.3,0.2c-0.1,0-0.3,0.2-0.3,0.3c0,1.2-0.1,2.5,0,3.7
				c0.1,0.9,0.5,1.1,1.4,1.1c0.1,0,0.3,0,0.5,0c0,0.2,0.1,0.3,0.1,0.3s0,0.2,0,0.3c-3.5,0-6.8,0-10.2,0c-0.1-0.4-0.1-0.8,0.3-0.9
				c0.5-0.2,0.7-0.6,0.7-1.1c0-3.4,0-6.7,0-10.1c0-0.3,0-0.6-0.2-0.8c-0.3-0.3-0.6-0.7-1-0.9c-0.4-0.2-0.9,0.1-1,0.6
				c-0.4,1.1-0.9,2.2-1.3,3.3c-1,3.3-1.8,6.5-2.9,9.7c-0.1,0.2-0.3,0.4-0.6,0.4c-0.3-0.1-0.6-0.3-0.7-0.5c-0.5-1.6-1-3-1.5-4.7
				c-0.9-2.6-1.6-5.2-2.5-7.8c-0.2-0.7-0.7-1.1-1.4-1.2c0-0.3,0-0.4,0-0.7c1.8,0,3.6,0,5.4,0c0.1,0.4,0.1,0.7-0.5,0.8
				c-1,0.2-1.2,0.6-0.9,1.7c0.8,2.4,1.5,4.8,2.2,7.3c0.1,0.3,0.2,0.4,0.3,0.7C163.2,75.8,163.2,75.8,163.3,75.8L163.3,75.8z
				 M174,72.7L174,72.7c0-1.8,0.1-3.5,0-5.4c0-0.9-0.6-1.4-1.4-1.4c-0.8,0.1-1.4,0.6-1.4,1.5c0,3.5,0,7.2,0,10.6
				c0,0.4,0.2,0.8,0.7,0.9c0.3,0.1,0.7,0.1,1,0.1c0.7,0,1-0.3,1-1C174.1,76.4,174,74.5,174,72.7L174,72.7z M177.6,65.9
				c-0.3,0.1-1.1-0.2-1.1,0.6c-0.1,1.9-0.1,3.8,0,5.8c0,0.3,0.3,0.8,0.6,0.8c0.9,0.1,1.7,0.1,2.3-0.7c1.1-1.4,1.2-2.9,0.6-4.5
				C179.7,66.4,179,65.9,177.6,65.9L177.6,65.9z"/>
		</g>
	</g>
</g>
</svg>
