<?xml version="1.0" encoding="utf-8"?>
<!-- Generator: Adobe Illustrator 26.0.1, SVG Export Plug-In . SVG Version: 6.00 Build 0)  -->
<svg version="1.1" id="Слой_1" xmlns="http://www.w3.org/2000/svg" xmlns:xlink="http://www.w3.org/1999/xlink" x="0px" y="0px"
	 viewBox="0 0 238.1 150.2" style="enable-background:new 0 0 238.1 150.2;" xml:space="preserve">
<style type="text/css">
	.st0{fill-rule:evenodd;clip-rule:evenodd;fill:#373435;}
</style>
<g id="Слой_x0020_1">
	<path class="st0" d="M238,137.3v-0.5v-0.4c-0.5-0.6,0-0.1-0.6-0.5l-0.4,0.6c-1.7-0.8,0.2-1.6,1-2v-0.8c-2.1,1.1-2.2,1.5-4.3-0.1
		c0-0.8,0.6-1-0.5-1.5c-0.7,0.7-0.5,0.7-0.1,1.4c1.2,0.7,0.1,1,2.9,1.6c-0.3,1.2-0.2,1.8,1.2,1.9c0,0.9-0.1,1.1,0.7,1.5L238,137.3
		L238,137.3z M19.3,133.9l0.3,0.5l0.2-0.5c0.1-0.6,0.3-1.2,0.7-1.6c0.4-1,0.6-0.7,1.3-1.4c-0.7-0.5-0.5-0.4-1.4-0.4l-0.5-2
		c-0.8,0.3-0.8,1.2-0.8,2c-1,0.2-0.7-0.1-1.5,0.5C18.3,131.9,19.1,132.6,19.3,133.9L19.3,133.9z M134.6,76.1l-0.4-0.5l-0.3,0.5
		l-0.2,0.1l0.2,0.5c1.2,1.5,1.2,1.6,3.2,2c-0.5,1-0.2,1.3,0.6,1.8c0.9,0.5,0.3-0.3,0.7,0.7c0.3,0.7,0,0.6,0.6,0.9
		c0.7-0.5,0.6-0.7,0.7-1.5c1.4-0.2,1.6-0.7,1.1-1.9c1.7-0.1,3.4-1.2,3.3-2.9c-1.9-0.5,0,0.9-1.5,1.9c-1.1,0.7-2,0.6-3.1,0
		c0-1.4,0.5-0.7,0-3c0.8-0.3,0.9-0.3,1.6,0.1c0.2,0.9-0.4,0.2,0,1.4c1.3,0.3,1.4-0.3,1.1-1.4c1.1,0.2,1.1,0.1,2.2-0.2
		c0.5-0.8,1.2-1.4,1-2.6c-0.4-2.3-4.1-3.2-5.9-0.5c-0.5,0.8-0.5,1.2-0.7,0.5c1.5-1.8,0.7-1.1,2.7-2.3c-0.7-0.4-0.9-0.3-1.8-0.3
		l-0.5-1.2c-0.9-0.1-0.8,0.4-1.1,1.2c-0.7,0-1.4-0.2-1.8,0.5c-1.8,0.1-3.6,0.1-3.9,2.3c-0.3,2,1.3,2.8,3.2,2.6
		c-0.2,1-0.3,1.6,1.1,1.4c0.3-0.5-0.6-2.4,1.6-1.5c-0.3,2-0.4,0.8,0.2,2.8c-1.2,1.1-4,0.5-3.8-0.9l0.3-0.4L134.6,76.1L134.6,76.1z
		 M104.2,75.8l-0.5-0.1l-0.2,0.4l-0.3,0.1l0.2,0.4c0.2,1.5-2.5,1.8-3.6,1c-0.1-0.7,0.2-0.7,0.3-1.5c0-0.8-0.2-0.8-0.3-1.5
		c2.2-1.1,1.4,1,1.5,1.4c1.4,0.7,1.2-0.4,1.2-1.3c1.3,0.1,2.2,0.1,2.9-1.1c0.9-1.5-0.1-2.3-0.7-3.4c-1.3-0.2-1.7-0.8-3.3-0.2
		c-1.2,0.5-1.4,1.2-2.1,1.9c0.3-1.3,1.3-1.6,2.4-2.3c-0.8-0.4-0.8-0.3-1.6-0.3c-0.3-0.8-0.1-1-0.9-1.3c-0.6,0.6-0.5,0.5-0.7,1.3
		c-0.8,0-1-0.1-1.7,0.3c3.1,1.9,0.9,0.5,2.7,2.3c-0.3,1.2-0.2-0.4-1.7-1.5c-0.9-0.7-2.3-0.9-3.4-0.4c-2.3,1-2.2,3.9,0.3,4.8l1.3-0.1
		c0.1,0.5-0.6,1.8,1.1,1.4c0.4-1.3-0.3-0.4,0-1.4c0.8-0.3,0.8-0.3,1.6-0.1c-0.5,1.6-0.5,1.3,0.1,2.8c-0.9,0.7-2.1,0.8-3.1,0.2
		c-1.6-1,0.3-2.4-1.6-2c-0.1,1.7,1.5,2.8,3.3,2.9c-0.3,1.3-0.4,1.7,1.1,1.9c0.1,0.8-0.1,1,0.6,1.5c1.2-0.5,0-0.8,1.2-1.6
		c0.8-0.5,1.4-0.6,0.7-1.8c1.6-0.3,2.4-0.6,3.1-2.1c0.4-0.2,0.2-0.3,0.2-0.9L104.2,75.8L104.2,75.8z M44.7,20.5
		c0.5-0.4,0.4-0.5,0-0.8l-0.2-0.6l-0.4,0.5l-0.3,0.1l0.2,0.4c0.3,1.5-2.3,1.7-3.6,1.1c-0.1-1.5,0.6-0.9-0.1-3.1c3,0,1.2,0.5,1.7,1.6
		c1.3,0.3,1.2-0.3,1.2-1.3c1.1,0,1.3,0.2,2.3-0.5c1.5-1.4,1.1-3.5-0.8-4.3c-2.5-1-3.5,0.9-4.7,1.9c0.3-1.3,1.3-1.6,2.4-2.3
		c-0.8-0.4-0.8-0.3-1.7-0.3c-0.2-0.8-0.2-1-0.9-1.3c-0.6,0.5-0.6,0.5-0.7,1.3c-0.9,0-1-0.1-1.8,0.3c3.6,2.2,0.9,0.4,2.7,2.3
		c-0.2,0.8,0,0.4-0.3,0.3c-2.5-5.8-10.1,0.2-4.4,2.7l1.1-0.1c0.4,0.7-0.1,1.7,1.3,1.4c0.3-1.3-0.3-0.4,0-1.4c0.8-0.3,0.9-0.4,1.7,0
		c-0.3,0.8-0.6,1.8,0.1,2.4v0.6c-1.1,0.3-1.9,0.7-3,0c-1.8-1.1,0.5-1.8-1.5-2.1c-0.2,1.2-0.4,0.9,0.6,1.9c0.8,0.8,1.4,0.9,2.4,1.1
		c-0.2,1.3-0.4,1.7,1.2,1.9c0.2,0.8,0,1,0.7,1.5c0.8-0.3,0.7-0.8,0.8-1.5l0.7,0.1c0.5-0.8,0.8-0.9,0.4-1.9c1.4-0.2,1.3-0.2,2.4-1
		l0.4-0.3C44.6,20.5,44.3,20.7,44.7,20.5z M163.7,57.8c0.6-0.4-0.1-0.8-0.5-1.1c-0.3,0.7-0.5,0.6-0.1,1.1c-0.4,1.8-2.3,1.7-3.8,1.1
		c0-0.7,0.3-0.8,0.3-1.5s-0.2-0.9-0.3-1.4c0.8-0.3,0.8-0.3,1.6,0.1c0.3,1-0.5,0.2,0,1.4c1.5,0.6,0.9-0.8,1.3-1.4l1.2,0.1
		c1.6-0.7,2.5-1.8,1.6-3.6s-2.4-1.5-4-1.4l0.2-0.4l-1.6-0.2l-0.6-1.3c-1,0.4-0.7,0.6-1.1,1.3c-1.1,0-1-0.1-1.9,0.4
		c-3.3,0.4-4.5,1.1-3.2,4.5c1.3,0.5,1,0.7,2.6,0.6c0,0.7-0.2,1.1,0.5,1.5l0.7-0.1c0.2-0.8-0.8-2.1,1.6-1.5c-0.4,1-0.6,1.9,0.2,2.7
		c-0.8,0.7-2.4,1.1-2.9,0.3c-1.9-0.9-0.2-0.8-1.1-2.1c-0.7,0.1-0.2-0.1-0.7,0.4c-0.1,1.3,1.8,2.5,3.2,2.6c-0.3,1.2-0.3,1.8,1.2,1.9
		l-0.1,0.7l0.4,0.4l0.4,0.6l0.6-0.7c0.4-0.5,0.3-0.2,0.4-0.9c1.4-0.1,1.3-0.9,1-1.9C161.9,59.8,163.5,59,163.7,57.8L163.7,57.8z
		 M38.7,136.5c-1.4-1.1,0.3-1.6,1.2-2c0.9,0.7,1.9,0.5,1.4,1.9c-0.9,0.4-0.6,0-0.9-0.5l-0.5,0.6l-0.5-0.6
		C38.7,136.6,39.5,136.2,38.7,136.5L38.7,136.5z M35.2,129.3c0.5,0.1,0.8-0.5,1.4-0.3c0.2,0.7,0,1-0.5,1.4c-2.4,0.4-2.5-3-0.2-3.3
		c2.8-0.5,2.9,2.1,3.9,2.9c0.7-0.5,0.7-3.1,3.6-2.9c2.6,0.1,2.5,3.7,0.1,3.4c-0.5-0.4-0.7-0.9-0.5-1.5c0.6-0.1,1,0.6,1.4,0.1
		c-0.4-1.5-1.7-1.1-2.2,0.5c-0.4,1.4-1.3,0.9-2.6,0.9c-1.9,0.1-1.6,0.1-2.3-1.4C36.7,127.8,35.2,127.7,35.2,129.3z M36.4,132.4
		c0.6,0.6,0.1,0.4,1,0.3c0.8-1.1-0.1-0.5,0.1-1.5c0.9-0.3,0.7-0.3,1.6-0.1c-0.1,0.8-0.3,0.9-0.2,1.7c0.1,0.4,0.4,0.9,0.4,1.2
		c-0.9,0.6-2,0.8-3,0.3c-2.1-1.1,0.5-1.8-1.6-2.2c-0.3,1.8,1.3,2.8,3.1,3c-0.4,1.3-0.4,1.7,1.1,1.9c0.1,0.7,0,1.2,0.9,1.5l0.4-0.7
		l-0.3-0.3c-0.6,0-0.1-0.2-0.7,0.2l0.1-0.9c0.9,0.2,0.3-0.2,0.9,0.5l0.3-0.3c1.3-0.1,1.4-0.8,1-1.8c2-0.3,2.2-1.1,2.8-1.3l0.4-0.8
		c0.5-0.3,0.2-0.4,0-0.9l-0.5-0.1l-0.2,0.4l-0.3,0.2l0.3,0.4c0.2,1.4-2.5,2-3.7,0.9c0.6-1.9,0.3-1,0.1-2.8c0.7-0.4,0.9-0.3,1.6,0.1
		c0.2,0.9-0.6,0.2,0,1.4c1.4,0.3,1.1-0.5,1.1-1.4l1.6-0.1c2-0.8,2.1-3.3,0.4-4.4c-2.6-1.7-4,0.8-5,1.1c0.3-1,1.4-1.1,2-1.9l-1.5-0.2
		c-0.8-1.6-0.8-1.8-1.7,0l-1.6,0.3c0.7,0.7,2.3,0.9,2.5,2.6c-0.8-0.6-0.8-1.5-2.1-2.1c-4.3-2.1-6.9,5-1.3,4.7L36.4,132.4L36.4,132.4
		z M177.5,80.1c-1.8-0.9,0.3-1.6,1-2c0.9,0.5,1.5,0.5,1.6,1.5l-0.7,0.6l-0.2-0.7l-0.7,0.5c-0.4-0.6-0.1-0.3-0.6-0.5
		C177.6,80.2,178.3,79.7,177.5,80.1L177.5,80.1z M175.4,72.6c0.8,3.2-4.6,0.3-1.5-1.6c2.8-1.7,4.1,1.9,4.7,2.3c0.9-0.5,1-3,3.8-2.6
		c2.2,0.3,2.3,3.4,0.1,3.4c-0.6-0.4-0.9-0.8-0.7-1.5c0.6-0.2,0.8,0.5,1.5,0.2c0.1-0.8-0.5-1-1.2-1.1c-2,1,0.4,2.4-3.5,2.3
		c-4-0.1-0.9-1.2-3.2-2.3c-0.7,0.1-1.3,0.2-1.2,1.2C174,72.9,175.4,72.6,175.4,72.6z M172.3,74c1.8,1.1,0.9,0.7,2.9,0.9
		c0,1-0.4,1.6,1.1,1.4c0.7-1-0.1-0.6,0-1.4c0.7-0.4,0.9-0.6,1.6-0.1c0,0.6-0.2,0.8-0.2,1.5s0.3,0.7,0.4,1.3
		c-0.8,0.7-1.9,0.7-2.8,0.3c-2-0.9,0.2-1.6-1.4-2.2c-0.7,0.5-0.6,0.7-0.1,1.3c0.8,1.3,1.3,1.5,2.9,1.7c-0.4,1.3-0.2,1.7,1.2,1.9
		c0.1,0.9,0,1,0.7,1.6c1.1-0.7,0.3-1.2,1.1-1.6c1.1-0.6,1.2-0.4,0.8-1.9c1.7-0.3,3.1-1,3.3-2.8l-0.8-0.3c-0.6,1.3,0.6,1.4-1,2.2
		c-0.9,0.5-2,0.4-2.8-0.2c0-0.5,0.2-0.6,0.3-1.2c0.1-0.9-0.2-1-0.2-1.7c0.8-0.3,0.8-0.2,1.6,0c0.2,1.1-0.3,0.2-0.1,1.4l1,0.1
		c0.4-0.7,0.3-0.7,0.3-1.4l2-0.2c0.6-0.8,1.3-0.9,1.2-2.3c0-1-0.6-1.8-1.5-2.3c-2.5-1.2-3.9,0.7-5,2.2c-1.1-1.4-1.9-2.9-4.2-2.4
		C171.7,70.4,172.1,72.3,172.3,74L172.3,74z M58.8,80.1c-2.3-0.5,0.2-1.7,0.8-2c1,0.5,1.7,0.5,1.5,1.7l-0.7,0.4l-0.2-0.7L59.6,80
		l-0.5-0.6L58.8,80.1z M56.4,72.6c0.7,3.3-4.6,0.3-1.5-1.6c2.9-1.8,4.1,2,4.7,2.3c0.9-0.5,1.1-3,3.8-2.6c2.2,0.3,2.4,3.4,0.1,3.4
		c-0.6-0.4-0.9-0.8-0.7-1.6l1.4,0.2c0.1-0.8-0.5-1-1.2-1.1c-2.3,1.1,0.8,2.3-3.4,2.3c-4.1,0-1.1-1.2-3.4-2.3
		c-0.8,0.1-1.3,0.2-1.2,1.2C55,72.9,56.4,72.6,56.4,72.6z M54.2,74.7l2,0.2c0,0.7-0.2,0.7,0.2,1.4h1c0.2-1.3-0.3-0.4-0.1-1.5
		c0.7-0.2,0.9-0.3,1.6,0c-0.1,0.7-0.3,0.7-0.2,1.5c0,0.7,0.4,0.9,0.3,1.4c-0.8,0.6-1.9,0.7-2.8,0.2c-1.6-0.8-0.4-0.9-1-2.1
		c-0.7,0-0.1-0.1-0.8,0.2c0.2,1.6,1.6,2.5,3.3,2.8c-0.4,1.2-0.3,1.8,1.2,1.9c0,0.9-0.1,1,0.7,1.6c1.1-0.7,0-0.8,1.2-1.6
		c1-0.6,1.2-0.5,0.7-1.8c1.6-0.3,2-0.4,2.9-1.7c0.5-0.6,0.6-0.8-0.1-1.3c-1.5,0.6,0.5,1.2-1.2,2.1c-0.9,0.5-2.2,0.5-3-0.2
		c0.4-2,0.4-0.8,0.1-2.8c0.7-0.3,1-0.3,1.6,0.1c0.2,1-0.5,0.6,0.1,1.4l0.8,0.1c0.6-0.8,0.3-0.6,0.3-1.5c1.8-0.1,2.5,0.1,3.2-1.8
		c0.2-1.7-0.9-3.2-2.8-3.2c-2.1-0.1-2.7,1.2-3.7,2.5c-1.2-1.5-2.5-3.3-4.9-2.3c-0.9,0.4-1.5,1.2-1.6,2.2
		C52.9,73.7,53.6,73.9,54.2,74.7L54.2,74.7z M39.4,99.3c0.7-0.1,0.3-0.1,0.6,0.2C39.4,99.9,39.8,99.7,39.4,99.3z M39.1,98.8
		c-0.8,0-0.3,0.2-0.8-0.2c-0.4-1.2,0.5-1.3,1.5-1.7c1.1,0.4,1.9,0.5,1.5,1.7l-0.8,0.3c-0.2-0.6,0.2,0-0.2-0.7l-0.6,0.6l-0.5-0.6
		C38.8,98.9,39.2,98.4,39.1,98.8z M35.1,91.5l1.5-0.1c0.2,0.8-0.1,1.1-0.7,1.4c-2.4,0.1-2.3-3-0.1-3.3c2.9-0.5,2.9,2,3.9,2.7
		c0.9-0.4,0.9-3,3.8-2.7c2.6,0.2,2.2,4-0.2,3.3c-0.4-0.5-0.6-0.9-0.3-1.5l1.2,0.5c0.3-0.9-0.3-1.1-1.1-1.2c-2,1.1,0.5,2.7-4.3,2.4
		C37.1,92.7,36.5,88.4,35.1,91.5z M33.3,92c0.5,1.6,1.5,1.7,3,1.6c0.1,0.9-0.2,1.7,1.2,1.4c0.5-0.9-0.1-0.4-0.1-1.4
		c0.7-0.3,0.8-0.3,1.5-0.2c0,0.7-0.2,0.7-0.2,1.4c0,0.9,0.3,0.8,0.4,1.5c-1,0.7-2,0.7-3.1,0.1c-1.7-1,0.5-1.6-1.3-2.1
		c-0.4,1.2-0.5,0.8,0.6,2c0.7,0.8,1.4,0.9,2.4,1.1c-0.2,0.9-0.5,1.2,0.5,1.7c0.9,0.5,0.3-0.3,0.7,0.7c0.2,0.5,0.1,0.5,0.5,1.1
		c1.3-0.6,0.2-0.9,1.3-1.6c0.8-0.6,1.4-0.5,0.7-1.9c2.2-0.4,1.8-0.4,3.1-1.8c0.4-0.7,0.4-1-0.4-1.2c-1,0.9,0.6,1.4-1.2,2.2
		c-0.9,0.4-2,0.3-2.8-0.3c0.1-0.6,0.4-0.7,0.4-1.3c0.1-0.9-0.3-0.9-0.2-1.6c0.8-0.2,0.9-0.2,1.6,0.2c-0.1,0.8-0.4,0.4-0.1,1.3l1,0.2
		l0.3-1.3c0.9-0.2,1.3-0.2,2.4-0.6c0.4-1,1-1.4,0.6-2.7c-0.2-0.7-1.1-1.6-1.8-1.8c-2.7-0.7-3.4,1-4.6,2.4
		C36.7,86.2,32.3,89.5,33.3,92L33.3,92z M118,23.7c-1.8-1,0.4-1.6,1-2.1c0.8,0.5,2.7,1.1,1,2c-0.8-0.4,0.1,0.2-0.4-0.6l-0.6,0.5
		c-0.4-0.6-0.1-0.3-0.6-0.5C118.1,23.8,118.8,23.3,118,23.7L118,23.7z M119.1,19.1c0.3,0.7,0.4,0.7,0,1.4
		C118.7,19.8,118.7,19.8,119.1,19.1z M115.9,16.2c0.7,3.2-4.6,0.3-1.5-1.6c2.8-1.8,4.1,2,4.7,2.3c0.9-0.5,1-3,3.8-2.6
		c2.2,0.3,2.4,3.4,0.1,3.4c-0.7-0.4-0.9-0.7-0.7-1.5l1.4,0.2c0.1-0.8-0.5-1-1.2-1.1c-2.3,1.1,0.8,2.3-3.4,2.3
		c-4.1,0-1.1-1.2-3.4-2.3c-0.8,0.1-1.3,0.3-1.2,1.2L115.9,16.2L115.9,16.2z M113.7,18.3l2,0.2c0,0.8-0.2,0.7,0.3,1.4h0.9
		c0.2-1.3-0.4-0.5,0-1.5c0.7-0.3,0.8-0.4,1.5,0c-0.1,1.7-0.5,0.9,0.2,2.8c-0.9,0.6-1.9,0.8-2.9,0.3c-2.2-1.1,0.5-1.6-1.6-2.2
		c-0.5,1.8,1.3,2.7,3,3c-0.3,1.3-0.3,1.7,1.2,1.9c0,0.8,0,1.1,0.7,1.5c0.7-0.4,0.6-0.8,0.7-1.5c1.5-0.2,1.5-0.7,1.2-1.9
		c2.7-0.5,2.4-1.6,3.2-1.8c0-0.4,0.1-1.5-0.7-1.1c-0.6,0.4-0.2,0.8-0.2,1.4c-1.2,1-2.4,1.5-3.8,0.4c0.5-1.2,0.7-1.5,0-2.8
		c0.9-0.3,0.8-0.3,1.7,0c0.4,1.2-0.4,0,0,1.4l0.9,0.1c0.5-0.7,0.3-0.7,0.3-1.5c1.2,0.3,1.5-0.1,2.5-0.4c0.5-1.6,1.5-3.7-1.3-4.5
		c-2.5-0.7-3.4,0.9-4.6,2.4c-1.2-1.5-2.3-3.3-4.9-2.3c-0.9,0.4-1.5,1.2-1.7,2.2C112.3,17.5,113.2,17.6,113.7,18.3L113.7,18.3z
		 M118,136.5c-1.7-0.9,0.3-1.6,1-2.1c0.9,0.4,2.6,1.1,1,2.1c-0.8-0.4,0.1,0.2-0.4-0.6l-0.6,0.5l-0.5-0.6
		C118.1,136.6,118.8,136.1,118,136.5L118,136.5z M119.3,129.9c0.3-2,3-3.9,4.7-2.3c2.6,2.4-3.2,4.4-1.7,1.3l1.1,0.6
		c0.8-1-0.2-1.6-1.2-1.3c-1.2,0.4-0.6,1.2-0.9,2c-1,0.3-3.4,0.3-4.5,0c-0.4-0.8,0.2-1.6-0.9-2c-1-0.4-2.1,0.3-1.3,1.2l1.1-0.7
		c1.5,3.2-4.3,1.3-1.7-1.2c1.7-1.6,4.4,0.3,4.7,2.3l0.3,0.5L119.3,129.9L119.3,129.9z M113.7,131.1l2,0.2c0.1,1-0.3,1.5,1.1,1.4
		c0.7-1-0.4-0.7,0.1-1.4c0.3-0.5,1.1-0.4,1.5-0.1c0,1.8-0.4,0.8,0.2,2.8c-0.8,0.7-2.1,0.7-3,0.2c-1.7-1,0.3-2.3-1.5-2l-0.2,1.1
		c0.7,0.1,0.6,1.4,3.2,1.8c-0.3,1.3-0.3,1.7,1.2,1.9c0,0.8,0,1.1,0.7,1.6c0.7-0.4,0.6-0.7,0.7-1.6c1.3-0.2,1.6-0.7,1.2-1.9
		c2.5-0.5,2.7-1.8,3.2-1.9l-0.1-1.1c-1.3-0.2-0.8,0.6-0.8,1.4c-1,1-2.7,1.5-3.8,0.4c0.5-2,0.3-1,0.2-2.8c0.7-0.4,1.1-0.3,1.7,0.2
		c-0.2,0.8-0.6,0.5,0,1.3c1.4,0.2,1-0.4,1.1-1.4l2-0.2c1.4-1.4,2-3.6-0.4-4.6c-2.5-1-3.7,0.8-4.9,2.3c-1.2-1.5-2.5-3.4-5-2.2
		c-0.9,0.4-1.5,1.3-1.5,2.3C112.4,130.2,113.1,130.4,113.7,131.1z M217.8,81.2c0.1-0.6-0.1-0.4,0.4-0.7l0.5,0.3
		C218.1,81,218.2,80.8,217.8,81.2z M217.2,80.1l-0.7-0.5c0.2-1.2,0.7-0.9,1.6-1.6c0.9,0.4,2.1,0.8,1.4,2c-1,0-0.4,0.4-0.8-0.5
		l-0.6,0.5l-0.5-0.6C217.2,80.1,217.8,79.9,217.2,80.1z M218.3,75.3c0.2,0.9,0.4,0.9-0.1,1.6C217.9,76.2,217.9,76,218.3,75.3z
		 M213.8,76.4c-0.5,0.3-0.1,0.3-0.6,0l0.1-0.1C213.4,76.6,213.3,76.1,213.8,76.4z M215.1,72.6c0.8,3.1-4.7,0.4-1.6-1.6
		c2.9-1.9,4,1.9,4.7,2.5c0.7-0.4,0.8-3.2,3.8-2.9c2.4,0.3,2.3,3.8-0.1,3.4c-0.5-0.4-0.7-0.9-0.5-1.5c0.6-0.2,0.9,0.7,1.4,0.2
		c-0.2-1.1-1.3-1.4-2-0.3c-0.5,0.9-0.1,1.6-1.6,1.6c-5.5,0-1.9-1.1-4.4-2.3c-0.7,0.1-1.1,0.3-1.2,1C214,73.2,214.4,72.3,215.1,72.6z
		 M212.1,74.2c1.4,0.6,1,0.8,2.8,0.7c-0.1,1.1-0.2,1.6,1.2,1.3c0.4-1.3-0.3-0.3-0.1-1.4c0.8-0.3,0.9-0.4,1.7,0
		c-0.5,1.5-0.5,1.3,0.2,2.8c-1.6,1-2.6,0.6-3.9-0.4c0.1-0.8,0.5-1-0.5-1.5c-0.4,0.6-0.3,0.3-0.3,1.1c1.2,1.3,1.2,1.8,3.3,2
		c-0.2,1.2-0.3,1.8,1.2,1.9l0.5,1.6c0.7-0.4,0.5-0.2,0.8-0.8c0.5-1-0.2-0.3,0.6-0.8c1.1-0.7,1.1-0.5,0.7-1.9
		c1.6-0.3,4.8-2.3,2.5-3.1c-0.6,1.5,0.5,1.4-0.9,2.2c-1,0.6-2.3,0.6-3.1-0.2c0.5-2,0.3-0.9,0.1-2.8c0.8-0.4,1-0.3,1.7,0.2
		c-0.2,0.7-0.5,0.5-0.1,1.3c1.7,0.3,0.9-0.7,1.1-1.4l1.1,0.1c2.3-0.7,2.9-3.1,1-4.5c-2.6-1.9-4.1,0.5-5.3,1.5
		c0.3-1.3,1.4-1.7,2.4-2.3c-0.7-0.4-0.8-0.3-1.7-0.3c-0.2-0.8-0.2-1-0.9-1.3c-0.6,0.5-0.5,0.5-0.7,1.3c-0.8,0-1-0.1-1.7,0.3
		c3.1,2,0.7,0.1,2.7,2.3c-0.2,0.8,0,0.4-0.3,0.3c-0.7-1.6-2.2-2.7-4.2-2.3c-0.8,0.2-1.6,0.8-2,1.5C211.3,72.7,211.9,73.1,212.1,74.2
		z M98.8,43.6c0-0.2-0.1-0.5,0.1-0.7c0.6-0.6,0.7,0.1,0.7,0.1s-0.1,0-0.1,0.1s-0.1,0.1-0.1,0.1l-0.1,0.1
		C98.9,43.5,99.1,42.9,98.8,43.6z M98.1,42.5c-1.6-0.9,0.3-1.6,1-2c0.8,0.3,2.9,1.2,1,2c-0.7-0.3,0.1,0.1-0.4-0.6l-0.6,0.6l-0.5-0.6
		C98.2,42.7,98.9,42.2,98.1,42.5z M99.3,39.5c-0.4-0.7-0.4-1,0-1.7C99.5,38.7,99.6,38.5,99.3,39.5z M96.1,35.1
		c0.7,3-4.9,0.2-1.5-1.6c3.1-1.6,3.7,1.8,4.6,2.5c0.8-0.4,0.7-2.9,3.6-2.8c2.4,0.1,2.7,3.2,0.4,3.4c-0.7-0.3-0.9-0.6-0.9-1.4
		l1.5-0.1c-0.1-0.8-0.5-0.9-1.3-1c-2.2,1.2,0.9,2.3-3.6,2.3c-4,0-0.9-1-3.1-2.3c-0.8,0-1.2,0.1-1.4,0.9
		C95.1,35.5,95.4,34.8,96.1,35.1z M92.8,34.1c-0.2,2.4,0.6,3.4,3.2,3.2c-0.1,1-0.3,1.6,1.1,1.5c0.3-1.1-0.1-0.6,0-1.4
		c0.7-0.4,0.8-0.4,1.6-0.2c-0.1,0.6-0.3,0.7-0.3,1.4c0,0.9,0.3,0.8,0.4,1.5c-1,0.7-1.9,0.7-3,0.2c-1.9-0.9,0.1-0.9-1-2.1l-0.6,0.4
		C94,40,96.1,41,97.4,41.2c-0.3,1.2-0.2,1.7,1.2,1.9l0.4,1.6c1.6-0.7,0.1-0.8,1.4-1.7c0.9-0.6,1.3-0.4,0.7-1.9
		c1.7-0.3,3.3-1.1,3.3-2.8c-0.8-0.3-0.1-0.2-0.8,0c-0.6,1.2,0.7,1.1-0.8,2c-1,0.6-2.1,0.5-3-0.1c0.1-0.5,0.3-0.7,0.4-1.3
		c0.1-0.9-0.3-0.9-0.2-1.6c2.4-0.6,1.3,0.8,1.5,1.4l1,0.2c0.4-0.8,0.2-0.7,0.2-1.5c2.4,0.2,3.3-0.7,3.2-3c-0.7-1.5-1.7-2.2-3.5-2
		c-2,0.3-2.1,1.6-3,2.5c-0.8-1.1-1.3-2.2-2.9-2.4C94,31.9,93.8,32.9,92.8,34.1L92.8,34.1z M58.5,42.5c-1.5-1,0.2-1.6,1.1-2.1
		c0.6,0.5,3,1.7,0.7,2.1l-0.1-0.6c-0.6,0.3-0.3,0-0.7,0.5L59,41.8C58.7,42.6,59.3,42.1,58.5,42.5z M59.6,38c0.3,0.7,0.3,0.6,0,1.3
		C59.2,38.6,59.2,38.7,59.6,38z M59.8,35.8c0.4-1.8,2.6-3.7,4.5-2.4c3.3,2.1-3.1,4.8-1.5,1.4l1.2,0.5c0.5-1-0.4-1.4-1.3-1.1
		c-1,0.4-0.7,1.2-1,2c-1.1,0.4-3.2,0.4-4.3-0.1c-0.6-0.8-0.1-1.5-1.1-1.8c-0.9-0.3-1.7,0.1-1.3,1.2l1.2-0.6c1.5,3.3-4.6,0.9-1.7-1.4
		c1.9-1.5,4.3,0.5,4.7,2.4l0.3,0.5L59.8,35.8z M54.4,37.2l1.8,0.1c0,1-0.3,1.5,1.1,1.4c0.5-0.8-0.9-2.2,1.6-1.6
		c0.1,0.6-0.2,0.7-0.2,1.4c0,0.8,0.2,0.8,0.3,1.5c-0.9,0.7-2.1,0.7-3.1,0c-1.3-1,0.2-2.2-1.4-1.9c-0.3,1.9,1.5,2.6,3.2,3
		c-0.3,1-0.4,2,1.1,1.8c0.1,0.9,0,1,0.7,1.6c0.8-0.6,0.6-0.7,0.7-1.6c1.4-0.1,1.5-0.7,1.1-1.9c1.7-0.3,3.5-1.1,3.1-3
		c-1.7-0.3-0.1,1.1-1.3,2c-1.1,0.8-2.2,0.5-3.2-0.1c0.1-0.6,0.3-0.6,0.4-1.3c0.1-0.9-0.3-1-0.2-1.6c2.5-0.5,1.2,0.7,1.5,1.5l0.8,0.1
		c0.6-0.7,0.3-0.6,0.3-1.5c1.3,0.1,1,0.1,2.3-0.4c0.5-0.9,1.1-1,0.9-2.4c-0.1-0.9-0.9-1.8-1.7-2.1c-2.5-0.9-3.6,0.9-4.8,2.3
		c-1.1-1.5-2.6-3.5-5.1-2.2C52.1,33.9,52.9,35.8,54.4,37.2L54.4,37.2z M118.3,98.9c-2.2-0.6-0.1-1.6,0.7-2c0.8,0.4,3,1.4,0.8,2
		l-0.1-0.6l-0.7,0.5l-0.5-0.6L118.3,98.9z M119,94.3c0.4,0.7,0.3,0.7,0,1.4C118.7,95,118.7,95,119,94.3z M114.5,91.6
		c0.6,0,0.9-0.4,1.5,0c0,0.7-0.3,1-1,1.3c-2.3-0.3-1.9-3.3,0.4-3.4c2.7-0.2,2.7,2.2,3.6,2.7c1-0.5,0.9-2.9,3.7-2.7
		c2.3,0.2,2.7,3.1,0.4,3.4c-0.7-0.3-1-0.6-1-1.3c0.6-0.5,1,0.3,1.5-0.2c-0.1-0.8-0.5-0.9-1.2-1c-2.6,1.1,1.5,2.4-4.4,2.3
		c-1.7,0-1.1-0.6-1.6-1.6C116,90.2,114.8,90.4,114.5,91.6z M113.2,93.2c1.2,0.4,1.2,0.6,2.5,0.4c-0.1,0.9-0.2,1.8,1.1,1.4
		c0.4-1-1-1.9,1.7-1.5c-0.7,1.6-0.3,1.7,0,2.9c-1,0.7-2.5,0.9-3.4-0.1s0.1-0.4-0.3-1.4s-0.8,0-0.9,0.7c1.5,1.4,1,1.6,3.3,2
		c-0.4,1-0.3,2,1.1,1.8c0.1,1,0,1,0.7,1.6c0.7-0.6,0.7-0.7,0.7-1.6c1.5,0.2,1.5-0.8,1.2-1.8c1.6-0.4,3.9-1.3,2.9-3.1
		c-0.9,0.4-0.5,0.9-0.6,1.6c-1.4,0.9-2,1.5-3.7,0.4c0.8-3,0-1.7,0.2-2.9c2.3-0.6,1.2,0.7,1.5,1.5l0.8,0.1c0.6-0.8,0.3-0.6,0.3-1.5
		c1.7,0.1,1.1,0,2.5-0.5c0.3-1.1,1-1.1,0.6-2.6c-0.5-1.6-3.6-3.9-6.5,0.6c-1.3-2-1.1-1.2-2.4-2.5c1.5,0.1,1.7,1,2.4,1.9
		c0.5-0.6,0.5-1,1.1-1.4c0.5-0.4,1-0.5,1.5-0.8l-1.8-0.3c-0.2-0.7-0.2-0.8-0.8-1.3c-0.7,0.5-0.6,0.6-0.8,1.3l-1.6,0.1v0.4
		c-1.5,0-2.6-0.2-3.6,1.1C111.8,91.4,112.9,92.1,113.2,93.2L113.2,93.2z M177.8,42.5l-0.8-0.2c-0.5-1.2,0.6-1.4,1.6-1.9
		c0.4,0.4,3.1,1.5,0.7,2.1l-0.1-0.6c-0.7,0.3-0.3,0-0.7,0.5l-0.5-0.6L177.8,42.5L177.8,42.5z M178.5,37.9c0.3,0.7,0.3,0.7,0,1.4
		C178.2,38.6,178.2,38.6,178.5,37.9z M174,35.1h1.5c0,0.9-0.3,1.1-1,1.4c-2.3-0.3-1.9-3.2,0.3-3.5c2.6-0.3,2.8,2.1,3.8,2.6
		c1.1-0.5,0.9-2.7,3.7-2.5c2.3,0.2,2.7,3.1,0.4,3.4c-0.7-0.3-1-0.6-1-1.3h1.5c-0.1-0.9-0.5-1-1.2-1.1c-2.5,1.1,1.3,2.4-4.1,2.4
		c-1.5,0-1.4-0.3-1.9-1.4C175.5,33.7,174.5,33.9,174,35.1L174,35.1z M172.5,36.6c1.6,0.6,0.7,0.8,2.7,0.7c0,0.8-0.2,0.7,0.3,1.4h0.9
		c0.3-0.9-1-2,1.5-1.6c0.1,0.6-0.2,0.7-0.2,1.5c0,1,0.3,0.8,0.4,1.5c-1.1,0.6-2.1,0.9-3.2,0c-1.3-1,0.3-2.2-1.4-1.9
		c-0.3,1.9,1.5,2.6,3.1,3c-0.4,1.4-0.2,1.6,1.2,1.9c0.1,0.9,0,0.9,0.7,1.5c1.2-0.9,0.1-0.9,1.2-1.6c1-0.6,1.1-0.5,0.7-1.8
		c1.7-0.4,3.5-1.1,3.2-3c-0.7-0.2-0.8,0.2-0.8,0.8c0,0.5,0.5,0.5-0.5,1.2c-1.1,0.7-2.2,0.6-3.2-0.1c0.8-3.1,0.1-1.5,0.2-2.9
		c2.4-0.5,1.3,0.8,1.5,1.5c1.4,0.4,1.2-0.4,1.2-1.4h1.8c0.8-0.7,1.4-0.8,1.4-2.2c0-1-0.5-2-1.5-2.5c-2.5-1.3-3.9,0.7-5.1,2.2
		c-1.1-1.5-2-3-4.5-2.4C171.6,32.9,172,35,172.5,36.6L172.5,36.6z M158.3,137.6c0.1-0.8,0.1-1,0.8-0.4
		C158.9,137.3,158.4,137.5,158.3,137.6z M158.8,136.3l-0.5-0.5c-0.7,1-0.1,0.6-0.8,0.6c-1-1.2,0.3-1.3,1.3-1.9
		c0.9,0.4,1.9,0.6,1.5,1.8c-0.9,0.4-0.6,0-0.9-0.5L158.8,136.3z M154.3,132.8c-0.5,0.3-0.1,0.4-0.5,0l0.1-0.1h0.1
		C154.4,132.7,154.1,132.7,154.3,132.8L154.3,132.8z M155.6,129c0.8,3-4.8,0.5-1.6-1.6c2.9-1.9,4,1.9,4.7,2.5
		c0.7-0.5,0.8-3.2,3.8-2.9c2.5,0.3,2.3,3.7-0.1,3.4c-0.6-0.5-0.7-0.9-0.5-1.6c0.6-0.2,0.7,0.7,1.3,0.3c0.1-0.8-0.4-1.1-1.2-1.1
		c-2.1,1.2,0.5,2.6-4.4,2.3c-1.5-0.1-1.1-0.9-1.6-1.7c-0.6-1-1.8-0.7-2,0.3C154.5,129.5,154.9,128.8,155.6,129L155.6,129z
		 M153,130.9c1.1,0.4,1.1,0.4,2.3,0.4c0,1-0.1,1.7,1.2,1.3c0.4-1.4-0.4-0.3,0-1.4c0.9-0.3,0.7-0.3,1.6-0.1c-0.2,1.1-0.5,1.8,0.2,2.9
		c-0.8,0.7-2,0.8-3,0.3c-2.1-1.1,0.4-1.4-1.4-2.2c-0.5,0.6-0.4,0.6-0.3,1.3c1,0.3,0.5,1.3,3.3,1.7c-0.7,1.1-0.1,1.7,1.1,1.9
		c0.1,0.8,0,1.2,0.8,1.5c1.1-1.1-0.3-0.7,1.1-1.6c1-0.6,1-0.6,0.6-1.8c1.9-0.3,2.2-0.6,3.2-2.1l0.3-0.5h-0.3l-0.3-0.5l-0.4,0.5
		l-0.3,0.2l0.3,0.5c0.2,1.4-2.4,1.9-3.6,1c0-0.7,0.2-0.7,0.3-1.5c0-0.7-0.2-0.9-0.2-1.5c0.7-0.3,0.9-0.2,1.6,0.1
		c0.2,0.8-0.6,0.3,0,1.4c1.3,0.2,1-0.4,1.2-1.3c1.7-0.2,2.2,0.1,3-1.7c0.4-1.7-0.6-3.2-2.4-3.4c-2.5-0.3-2.8,1.2-3.9,2.1
		c0.3-1.3,1.3-1.7,2.4-2.3c-0.8-0.4-0.8-0.3-1.6-0.3l-0.8-1.3c-0.9,0.3-0.7,0.6-1,1.3c-0.8,0-1-0.1-1.7,0.3c0.5,0.3,1.2,0.6,1.7,1
		c0.4,0.4,0.5,0.9,1,1.4l-0.1,0.5c-1.1-1.5-2.1-3.3-4.7-2.5C151.6,127.2,152,129.2,153,130.9z M98.8,81.2c0-0.8,0.1-1,0.8-0.4
		C99.3,80.9,98.9,81,98.8,81.2z M98.2,80.1c-1.6-1,0.3-1.7,1.2-2c0.8,0.6,2.1,0.7,1.3,1.9c-1,0-0.5,0.4-0.8-0.5L99.2,80l-0.4-0.6
		C98.2,80.1,98.8,79.9,98.2,80.1z M99.2,77c-0.3-0.7-0.3-0.8-0.1-1.5C99.5,75.9,99.6,76.5,99.2,77z M94.8,76.4c-0.4,0.3,0,0.4-0.5,0
		l0.1-0.1C94.4,76.4,94.8,76.4,94.8,76.4z M96.1,72.6c0.9,3.2-4.7,0.4-1.6-1.6c3-1.9,4,1.9,4.7,2.5c0.7-0.5,0.8-3.2,3.8-2.9
		c2.4,0.3,2.3,3.7-0.1,3.4c-0.6-0.4-0.7-0.8-0.5-1.5c0.6-0.2,0.7,0.7,1.3,0.3c0.1-0.8-0.3-1-1-1.1c-2.3,0.9,0.6,2.3-3.7,2.3
		c-3.5,0-1.1-1.3-3.2-2.3c-0.7,0.1-1.3,0.3-1.2,1.2L96.1,72.6L96.1,72.6z M137.9,42.5l-0.6-0.2c-0.3-1.3,0.5-1.3,1.6-1.8
		c0.4,0.2,1.2,0.5,1.4,0.9c0.5,0.8,0,1.1-0.8,1.1c0-0.4,0.2,0-0.1-0.6l-0.5,0.5l-0.5-0.6C137.9,42.7,138.6,42.2,137.9,42.5z
		 M138.8,39.5c-0.3-0.9-0.3-0.8,0-1.7C139.2,38.4,139.2,38.9,138.8,39.5z M134.4,35.2c0.5,0.1,0.9-0.4,1.5,0c0,0.7-0.3,1-0.9,1.3
		c-2.3-0.2-2-3.3,0.4-3.4c2.9-0.1,2.8,2.4,3.6,2.8c1-0.8,0.9-3.1,3.7-2.8c2.4,0.2,2.5,3.5,0.1,3.4c-0.6-0.4-0.9-0.7-0.7-1.4l1.6,0.1
		c-0.1-0.9-0.6-1.1-1.4-1.1c-2.4,1.4,1.5,2.3-4.2,2.4c-1.6,0-1.2-0.8-1.7-1.7C135.7,33.7,134.7,34,134.4,35.2L134.4,35.2z
		 M135.5,38.6c2,0.5,1-0.6,1.1-1.3c0.7-0.3,0.7-0.4,1.5-0.2c0.2,0.6-0.2,0.7-0.2,1.5c0,0.6,0.3,1,0.4,1.6c-1.7,0.9-2.7,0.6-3.8-0.7
		l0.2-0.7c-0.1-0.7-0.2-0.5-0.7-0.6c-1.1,1.5,1.6,2.7,3,3c-0.4,0.9-0.5,1.2,0.4,1.8l0.7,0.2l0.2,0.7l0.5,0.8
		c0.7-0.5,0.7-0.8,0.8-1.6c1.5-0.3,1.4-0.7,1.2-1.9c1.2-0.2,3.9-1.4,3.1-2.9l-0.4-0.2c-1.2,1.3,0.9,1.3-1.2,2.2
		c-1.1,0.5-1.9,0.4-2.9-0.2c0.1-0.6,0.4-0.8,0.4-1.5c0-0.8-0.3-0.9-0.3-1.4c0.8-0.3,0.9-0.2,1.6,0.1c0,0.8-0.4,0.3-0.1,1.4
		c1.4,0.2,1.2-0.4,1.1-1.4c1,0.1,0.8,0.2,1.9-0.1c1.5-1.3,2-3.3,0.2-4.4c-2.4-1.5-3.8,0.3-5.1,1.4c0.3-1.1,1.4-1.6,2.4-2l-1.8-0.4
		c-0.3-0.6-0.2-0.8-0.8-1.3c-0.5,0.4-0.7,0.9-1,1.4l-1.3,0.1c-0.3,0.1-0.3,0.1-0.3,0.2c1.4,0.6,1.8,0.7,2.5,2.2l0.3-0.2l-0.2,0.7
		c-0.7-0.9-0.8-1.6-2.1-2.2c-4.3-2.1-7.1,5-1.2,4.7C135.6,37.3,135.5,38.6,135.5,38.6z M98.8,118.8c0.1-0.9,0.1-1,0.8-0.5
		C99.1,118.6,99.3,118.5,98.8,118.8z M98.2,117.7c-1.6-1.1,0.3-1.5,1-2.1c0.9,0.4,2.6,0.9,1.2,2c-0.7-0.2-0.2,0.2-0.6-0.6
		c-0.7,0.6-0.4,0.7-1,0C98.3,117.8,98.8,117.5,98.2,117.7L98.2,117.7z M96.1,110.2c0.9,3.4-4.8,0.3-1.5-1.5c3.1-1.7,3.8,1.7,4.7,2.5
		c0.6-0.3,1.1-3.4,3.9-2.9c2.2,0.4,2.2,3.7-0.2,3.4c-0.5-0.4-0.7-0.8-0.5-1.5c0.7-0.3,1,0.6,1.5,0.1c-0.1-0.8-0.5-0.9-1.3-1
		c-1.8,1.1,0.3,2.4-3.4,2.4c-3.4,0-1.5-1.5-3.4-2.4c-0.7,0.1-1.3,0.3-1.1,1.2C94.7,110.5,96.1,110.2,96.1,110.2z M93.8,112.3
		c1.2,0.3,0.9,0.2,2,0.2c0.1,0.9-0.1,1.6,1.1,1.4c0.6-1.3-0.3-0.4,0.1-1.5c0.8-0.3,0.7-0.3,1.5-0.1c0,0.7-0.3,0.8-0.2,1.5
		c0,0.8,0.4,0.8,0.4,1.5c-1,0.7-2.2,0.7-3.2,0c-1.4-0.9,0.4-2.3-1.4-1.9c-0.2,2,1.7,2.4,3.1,3c-0.1,1.1-0.3,1.6,1.2,1.8l0.5,1.7
		c0.8-0.5,0.9-0.7,0.9-1.6c1.2-0.5,1.7-0.3,1.2-2c1.5-0.2,2.7-0.7,3.2-2.1l0.3-0.4l-0.4-0.2l0.1-0.1l-0.4-0.3l-0.3,0.4l-0.3,0.1
		l0.2,0.5c0.2,0.5-0.8,2.2-3.7,1c0-0.7,0.3-0.9,0.3-1.5c0-0.7-0.3-0.9-0.3-1.5c0.5-0.1,1.3-0.3,1.6,0.2c0.4,0.7-0.8,0.3,0.1,1.4
		c0.5,0,0.5,0.1,0.8-0.3c0.3-0.5,0-0.1,0.2-0.7l1.4-0.4c4.9-3-1.9-8.2-4.9-2.4l-0.5-1.1l0.5,0.5c1.3-2,1.1-1.1,2.6-2.3l-1.8-0.2
		c-0.2-0.6-0.2-0.8-0.7-1.3c-0.8,0.3-0.6,0.6-1,1.3l-1.7,0.1c0.8,0.7,1.7,0.7,2.1,1.8c-1.1-0.5-2.5-2.6-4.8-1.1
		C91.9,109.2,92.6,110.9,93.8,112.3L93.8,112.3z M19,42.5c-2-0.7,0.3-1.6,1-2c0.3,0.2,1.2,0.6,1.4,0.9c0.5,0.7,0,1.1-0.8,1.1
		c0-0.5,0.3,0.1-0.2-0.6l-0.5,0.5l-0.5-0.6C19,42.7,19.7,42.2,19,42.5z M20,39.4c-0.5-0.7-0.5-0.9,0-1.5
		C20.2,38.7,20.1,38.7,20,39.4z M16.8,35.2c0,3.4-4.8-0.6-1.4-1.9c3.2-1.2,3.8,2.3,4.5,2.6c0.9-0.7,1-3.3,3.9-2.8
		c2.2,0.4,2.3,3.5-0.1,3.3C23.1,36,22.8,35.7,23,35c0.7-0.3,1,0.4,1.6-0.1C24.5,34.1,24,34,23.2,34c-2.3,1.4,1.2,2.2-3.2,2.3
		c-4,0.1-1.4-1.2-3.4-2.3c-0.7,0.1-1.1,0.2-1.2,1.1C15.3,35.1,16.8,35.2,16.8,35.2z M13.5,35.4c0.4,1.8,1.4,1.9,3.1,1.8
		c0,0.7-0.2,0.7,0.2,1.4h1c0.3-1.1-0.2-0.5-0.1-1.3c0.7-0.4,0.8-0.4,1.6-0.2c0.1,0.6-0.2,0.7-0.2,1.4c0,0.8,0.3,0.8,0.4,1.5
		c-1.2,0.9-3.6,0.6-3.8-0.9c0.5-0.3,0.5-0.3,0.1-0.6c-0.4-0.6,0.1-0.3-0.7-0.4c-0.4,0.6-0.3,0.5-0.2,1.2l1.5,1.4l1.8,0.4
		c-0.4,0.8-0.5,1.2,0.4,1.8h0.7c0.9,1-0.4-0.7,1.2,0.1v0.7c-0.4-0.5-0.2-0.4-0.9-0.1l0.1,0.7l0.4,0.3l0.6-0.3l0.1-1.1
		c1.1-0.8,1.5-0.2,1.2-2.1c1.8-0.3,2.1-0.7,3.2-2.1c0.6,0.1-0.2-0.6-0.2-0.6v-0.1c-0.7-0.4-0.7,0-0.8,0.6c0,0.6,0.4,0.6-0.5,1.2
		c-1.1,0.8-2.1,0.6-3.2,0c0.1-0.6,0.4-0.8,0.4-1.5s-1-2.2,1.4-1.3c0,0.9-0.5,0.3-0.1,1.4c1.3,0.3,1-0.7,1.3-1.4l1.3,0.1
		c1.7-1,2.6-3.1,0.6-4.5c-2.5-1.8-3.9,0.4-5.2,1.3c0.4-1.4,1.6-1.5,2.3-2.1l-1.7-0.2c-0.3-0.7-0.2-0.8-0.8-1.3
		c-0.5,0.4-0.7,0.9-1,1.4c-0.9,0-1.1-0.1-1.6,0.3c1.2,0.7,1.9,0.8,2.5,2.2l0.3-0.2L20,35c-1-1.2-1.4-2.6-3.7-2.6
		C14.6,32.3,13,33.8,13.5,35.4z M196.9,23.5c-0.5-1.5,0.5-1.2,1.5-1.9c0.8,0.6,2.3,0.8,1.2,2c-0.8,0-0.2,0.5-0.8-0.6l-0.5,0.5
		l-0.5-0.5C197.5,23.5,197.8,23.9,196.9,23.5z M195.2,16.1c0.4,1.1-0.6,2.2-1.7,1.3c-1-0.7-0.9-2.2,0.2-2.8c3.1-1.7,4.1,2.3,4.7,2.6
		c0.9-0.8,1-3.3,3.9-2.9c2.2,0.3,2.3,3.5-0.1,3.4c-0.6-0.4-0.8-0.6-0.7-1.3c0.6-0.5,1.1,0.4,1.5-0.1c-0.1-0.7-0.5-0.8-1.1-0.9
		c-2,0.9,0.2,2.4-3.4,2.4c-4.1-0.1-1.2-1.5-3.6-2.3c-0.6,0.2-1.1,0.4-1,1.1C194.4,16.7,194.6,15.9,195.2,16.1z M192.5,14.2
		c-1.2,2.4-0.6,4.6,2.6,4.2c-0.1,1-0.3,1.6,1.1,1.4c0.4-0.8-0.8-2.1,1.5-1.6c0.2,0.6-0.2,0.7-0.2,1.5c0,0.7,0.4,0.9,0.4,1.4
		c-1.3,0.9-4,0.4-3.7-1l0.2-0.4l-0.3-0.1l-0.4-0.5l-0.3,0.5l-0.2,0.5l0.2,0.1c0.9,1.1,1,1.4,2.5,1.9l0.7,0.1c-0.5,1.1-0.2,2,1.2,1.7
		l0.1,0.9c0.2,0.7,0.1,0.7,0.8,0.8l0.5-1.5c1.5-0.2,1.3-0.7,1.1-1.9c1.7-0.2,3.3-1.2,3.2-2.9c-1.9-0.5,0,0.9-1.5,1.9
		c-1.1,0.7-2,0.4-3.1,0.1c0.1-1.3,0.8-1.3,0-3c0.9-0.4,0.9-0.3,1.8,0.1c-0.1,0.9-0.4,0.2-0.1,1.3c0.6,0.1,0.7,0.4,1.1-0.2
		c0.2-0.4,0.1-0.3,0.2-0.7c0.1-0.4,0-0.3,0.1-0.5l1.1,0.1c4.4-1.9,0.7-6.8-2.9-4.5c-1.7,1.1-1.5,2.8-1.8,1.6c1.8-2-0.4-0.3,2.7-2.3
		c-0.7-0.4-0.9-0.3-1.7-0.3c-0.2-0.8-0.1-0.8-0.7-1.3c-0.7,0.4-0.7,0.5-0.9,1.3c-0.7,0-1.5-0.2-1.8,0.5c-0.7,0-1.2-0.1-1.9,0.1
		C193.1,13.8,193,14.2,192.5,14.2z M198,24.5l0.3-0.5c0.5,0.4,0.3,0.1,0.4,0.7L198,24.5L198,24.5z M198.3,15.6
		c-0.4-0.4-0.6-0.8-1.2-1.2c-0.6-0.5-0.9-0.5-1.3-0.9C196.9,13.5,198.1,14.5,198.3,15.6z M19.5,80.7c0.8-0.5,0.8-0.3,0.8,0.5
		c-0.2-0.3,0.3,0.2-0.2-0.2C20,81,20,81,20,81l-0.3-0.2C19.6,80.8,19.6,80.7,19.5,80.7z M18.8,80.1c-1.7-0.8,0.4-1.7,1.1-2
		c0.8,0.5,2.5,1,1,2c-0.7-0.3,0,0.1-0.5-0.6L19.9,80l-0.5-0.5C19,80.1,19.4,79.9,18.8,80.1z M24.3,76.5c0.1-0.1-0.5-0.5,0.6,0
		C24.4,76.8,24.9,76.8,24.3,76.5z M19.9,75.5c0.3,0.8,0.3,0.8,0,1.6C19.6,76.4,19.6,76,19.9,75.5z M16.6,72.5c0.6,1-0.5,2.2-1.6,1.4
		c-1-0.7-0.9-2.2,0.3-2.8c3.1-1.7,4.2,2.3,4.6,2.6c0.9-0.7,1-3.3,3.9-2.9c2.2,0.3,2.3,3.5-0.1,3.4c-0.6-0.4-0.9-0.7-0.7-1.4
		c0.7-0.3,1,0.6,1.5,0.1c-0.1-0.7-0.5-0.9-1.2-1c-2.2,1,0.5,2.3-3.5,2.3c-3.7,0-1.2-1.4-3.4-2.3c-0.7,0.1-1.3,0.3-1.1,1.1
		C15.9,73.2,16,72.4,16.6,72.5z M15.4,74.9l1.2-0.1c0.1,0.9-0.5,1.7,1.1,1.4c0.4-0.8,0.1-0.6-0.1-1.3c0.7-0.4,0.9-0.6,1.7-0.2
		c-0.2,1.7-0.5,1,0.2,2.8c-1.2,1-3.7,0.7-3.9-0.9h0.1l-0.1-0.1c0.5-0.4,0.2-0.7-0.3-1c-0.6,0.4-0.7,0.6-0.3,1l-0.1,0.2l0.7,0.7
		c1.2,1.3,1.5,0.7,2.6,1.3c-0.4,0.7-0.2,0.6-0.1,1.4c2.4,1.1,0.6,0.7,1.9,1.9c0.9-0.3,0.7-0.7,0.9-1.5c1.6-0.3,1.4-0.6,1.2-1.9
		c2.2-0.4,1.9-0.5,3.2-2c0-0.7,0.1-0.5-0.4-1c-1.7,0.7,0.5,1.1-1.3,2.1c-1.1,0.6-1.9,0.3-3,0c0.1-1.4,0.8-1.1,0-3
		c0.9-0.4,0.8-0.3,1.7,0c0.2,1.1-0.4,0.1-0.1,1.4l1,0.1c0.3-0.6,0.3-0.8,0.2-1.4c1.9,0.1,1.1-0.1,2.6-0.5c0.3-1.1,1-1.3,0.5-2.7
		c-0.3-1.1-3.4-4.1-6.5,0.8L19.8,72c1.9-2-0.4-0.4,2.7-2.3c-0.7-0.4-0.9-0.3-1.7-0.3c-0.2-0.8-0.1-0.7-0.7-1.3
		c-0.8,0.4-0.7,0.5-0.9,1.3c-0.9,0-0.9-0.1-1.7,0.3c1,0.6,2.1,1.1,2.4,2.3c-1.2-1.3-2.9-3.2-5.2-1.6C12.6,71.7,13,74.2,15.4,74.9
		L15.4,74.9z M77.9,23.5c-0.4-1.3,0.4-1.4,1.6-1.9c0.8,0.6,2.5,0.9,1,2.1c-0.9-0.6-0.1,0-0.4-0.6c-0.6,0.2-0.2-0.1-0.6,0.5L78.9,23
		C78.5,23.6,78.9,23.8,77.9,23.5z M79.3,20.6L79.2,19C79.7,19.5,79.8,20.2,79.3,20.6z M83.8,20.1h0.6C84,20.4,84.4,20.5,83.8,20.1z
		 M76.3,16.3c0.8,3.4-5-0.1-1.4-1.7c3.1-1.4,3.9,2.3,4.5,2.6c0.9-0.8,1-3.3,3.9-2.9c2.2,0.3,2.3,3.5-0.1,3.4
		c-0.6-0.4-0.8-0.7-0.7-1.4c0.6-0.3,1,0.6,1.5,0.1c-0.1-0.7-0.5-0.9-1.2-1c-2.1,1,0.3,2.3-3.4,2.3c-3.9,0-1.3-1.1-3.4-2.3
		c-0.7,0.1-1.1,0.2-1.2,1.1C74.8,16.4,76.3,16.3,76.3,16.3z M72.9,15.4c-0.1,2.2,0.8,3.3,3.2,3c-0.1,1-0.2,1.7,1.1,1.4
		c0.6-1-0.2-0.5,0-1.4c0.7-0.4,0.9-0.4,1.6-0.1c-0.2,1.8-0.4,0.8,0.2,2.8c-1,1-4,0.6-3.8-0.9l0.3-0.2l-0.2-0.3l-0.5-0.5l-0.4,0.5
		l-0.2,0.1l0.2,0.5c0.7,1.3,1.6,1.8,3.1,2c-0.1,1.5-0.4,1.1,0.8,1.9c1.3,0.8-0.1,0.7,1.2,1.6c0.7-0.6,0.6-0.7,0.7-1.6
		c1.3-0.1,1.6-0.7,1.1-1.9c1.9-0.2,1.5-0.4,2.8-1.3c0.4-0.7,1-1,0.2-1.8c-1.7,0.6,0.6,1.1-1.3,2.1c-1.1,0.6-1.9,0.5-3,0
		c0-1.5,0.6-0.7,0-3c0.8-0.3,0.9-0.3,1.7,0.1c0.2,1-0.4,0.2,0,1.4c1.4,0.3,1.2-0.3,1.2-1.3c2.8-0.2,3.6-1,2.8-3.8
		c-1.3-0.8-1.6-1.7-3.6-1.1c-1.4,0.4-2,1.4-2.7,2.5c-0.9-1.1-0.9-2.1-2.9-2.5C74.4,13.1,73.9,14.1,72.9,15.4z M217.8,118.8
		c0.1-0.9,0.1-0.9,0.8-0.4L217.8,118.8z M218.2,115.6c0.8,0.4,2.5,1,1.2,2c-0.7-0.2-0.2,0.2-0.6-0.6l-0.6,0.6
		c-0.5-0.8,0-0.3-0.6-0.5c-0.2,0.6,0.4,0.2-0.4,0.6C215.5,116.7,217.5,116.1,218.2,115.6L218.2,115.6z M218.2,114.6
		c-0.3-0.7-0.3-0.8,0-1.5C218.5,113.5,218.6,114.1,218.2,114.6z M215.1,110.2c0.9,3.3-4.7,0.4-1.6-1.6c1-0.6,2.2-0.4,3.1,0.2
		c1.1,0.8,1,1.7,1.6,2.3c0.7-0.4,1-3.2,3.8-2.9c2.4,0.3,2.4,3.8,0,3.4c-0.5-0.4-0.7-0.8-0.5-1.5c0.7-0.2,1,0.6,1.4,0.1
		c-0.1-0.8-0.5-0.9-1.3-1c-1.8,1.1,0.3,2.3-3.4,2.4c-3.4,0-1.5-1.5-3.4-2.3c-0.7,0.1-1.2,0.2-1.2,1
		C214.1,110.9,214.4,109.9,215.1,110.2L215.1,110.2z M213.1,112.4l1.8,0.1c-0.1,0.7-0.2,0.8,0.3,1.4c2.6,0.2-1.2-2.2,2.4-1.6
		c-0.5,3.4,0.2,1.6,0.1,3c-0.9,0.6-1.9,0.7-2.9,0.1c-1.9-1,0.2-1.1-1.2-2.2c-0.8,0.4-0.6,0.7-0.3,1.4c1.1,0.5,0.3,1,3,1.7
		c-0.2,1.2-0.3,1.7,1.2,1.8l0.5,1.7c0.8-0.4,0.8-0.8,0.9-1.5c1.2-0.5,1.7-0.3,1.2-2c1.4-0.2,2.6-0.8,3.2-2l0.2-0.4l-0.3-0.1
		l-0.1-0.4c-0.7,0.2-0.3-0.1-0.6,0.4l-0.3,0.1l0.2,0.5c0.1,1.6-2.4,1.6-3.8,0.9c0.7-2,0.3-1.2,0.2-2.9c0.8-0.3,0.8-0.3,1.6,0.1
		c0.3,0.9-0.5,0.2-0.1,1.4c1.3,0.5,1.1-0.5,1.2-1.3h1.3c2.4-0.8,2.5-3.7,0.4-4.7c-2.6-1.3-3.9,0.6-5.1,2.2c-1.1-1.5-2.5-3.4-4.9-2.3
		c-0.9,0.4-1.6,1.3-1.6,2.2C211.6,111.5,212.3,111.7,213.1,112.4L213.1,112.4z M38.7,61.2c-1.7-0.8,0.4-1.6,1-2
		c0.8,0.4,2.6,0.9,1.1,2c-0.7-0.2-0.2,0.2-0.6-0.7l-0.6,0.6l-0.4-0.6C38.8,61.3,39.3,61,38.7,61.2z M39.7,58.2
		c-0.3-0.7-0.4-1,0.1-1.5C40,57.4,40.1,57.5,39.7,58.2z M36.6,53.8c0.9,3.2-4.8,0.4-1.6-1.6c2.9-1.8,4,1.9,4.7,2.5
		c0.7-0.4,0.9-3,3.6-2.9c2.5,0.1,2.7,3.5,0.3,3.4c-0.6-0.4-0.9-0.8-0.7-1.5l1.4,0.1c-0.1-0.7-0.5-0.9-1.2-1c-2,1.2,0.5,2.4-3.8,2.3
		c-3.7,0-0.7-1-2.8-2.3c-0.8,0-1.3,0.1-1.4,1C35.6,54.4,35.9,53.5,36.6,53.8z M34.7,56.1h1.5c0.3,0.5,0,0.8,0.5,1.5
		c1.7,0.1,0.8-0.7,0.8-1.1c0-0.8,0.8-0.7,1.7-0.5c-0.7,1.7,0.1,2,0,2.9c-1,0.6-1.8,0.7-2.8,0.1c-1.8-1-0.1-1-1-2.1
		c-0.6,0.1-0.2-0.1-0.8,0.4c0.4,1.5,1.8,2.6,3.4,2.6c-0.5,1.2-0.3,1.8,1.1,1.9c0.1,0.8,0,1,0.7,1.6c0.6-0.5,0.7-0.7,0.7-1.5
		c2.1-0.8,0.9-0.5,1.4-2.1c1.2,0,2.7-0.9,2.8-2c0.2-0.2,0.3,0.3,0.2-0.4l-0.4-0.6c-0.8,0.6-0.5,1-0.5,1.8c-1.1,0-1,1.6-3.7,0.4
		c0-0.6,0.3-0.9,0.3-1.6c0-0.7-0.2-0.8-0.3-1.4c2.4-0.8,1.3,0.8,1.6,1.4c1.2,0.5,1.2-0.5,1.1-1.3c2.1,0,1.1-0.1,2.7-0.6
		c0.2-1,1-1.2,0.3-2.8c-0.9-2.2-4.6-2.6-6.3,0.9l-0.3-0.7l0.3,0.2c0.6-1.6,1.3-1.4,2.5-2.3l-1.8-0.3L40,49.2
		c-0.9,0.3-0.8,0.7-1.1,1.3c-0.8,0-0.9-0.1-1.7,0.2c0.9,0.7,2,0.8,2.3,2.1c-1.3-1.1-2.8-2.9-5-1.4c-0.8,0.5-1.3,1.4-1.3,2.4
		C33.3,55.4,33.9,55.4,34.7,56.1z M157.6,23.7c-1.6-1.1,0.2-1.5,1-2.1c0.9,0.5,1.9,0.7,1.5,1.9c-1,0.3-0.6,0.1-0.9-0.5l-0.6,0.5
		c-0.5-0.6-0.1-0.3-0.7-0.5C157.8,23.7,158.4,23.2,157.6,23.7z M154.2,16.5l1.4-0.4c0.2,0.8,0,1.2-0.6,1.5c-2.4,0.1-2.3-3.1-0.1-3.4
		c2.9-0.4,3,2.1,3.9,2.9c0.7-0.5,0.7-3.1,3.6-2.9c2.6,0.1,2.5,3.8,0.1,3.4c-0.5-0.4-0.7-0.8-0.5-1.5l1.3,0.4c0.1-0.8-0.3-1.1-1-1.2
		c-2.5,0.9,0.9,2.6-4.6,2.3c-1.4-0.1-1.1-0.9-1.6-1.7C155.5,15.1,154.3,15.1,154.2,16.5L154.2,16.5z M152.3,15.2
		c-0.3,2.5,0.6,3.2,3,3.3c0,1-0.1,1.7,1.2,1.3c0.4-1.3-0.3-0.4,0-1.4c0.8-0.3,0.9-0.4,1.6-0.1c-0.4,1.6-0.5,1.3,0.2,2.8
		c-0.9,0.7-1.9,0.8-3,0.3c-1.9-1,0-1.2-1.2-2.2c-1,0.5-0.7,0.9,0,1.5c0.6,1.1,1.5,1.4,2.7,1.5c-0.2,1.2-0.4,1.8,1.2,1.9
		c0.1,0.8,0,1.2,0.8,1.6l0.5-0.8l0.2-0.8c1.4,0,1.5-0.7,1.1-1.8c1.5-0.2,2.5-0.7,3.1-2l0.2-0.5l-0.2-0.1l-0.4-0.5l-0.5,0.5
		c0,0-0.6,0.5,0,0.6c0.2,1.5-2.3,1.8-3.7,1.1c0-0.7,0.2-0.8,0.3-1.5c0-0.8-0.2-0.8-0.3-1.4c0.8-0.3,0.9-0.3,1.6,0.1
		c0.2,0.8-0.6,0.3,0,1.4c1.3,0.2,1.2-0.4,1.1-1.4c1.4,0.1,1.2,0.2,2.4-0.4c0.4-0.9,1-1.1,0.8-2.4c-0.2-0.9-0.8-1.6-1.7-2
		c-2.5-1-3.4,0.7-4.7,1.9c0.2-1.3,1.4-1.7,2.4-2.3c-0.7-0.4-0.9-0.3-1.7-0.3c-0.2-0.7-0.2-0.8-0.7-1.3c-0.9,0.3-0.6,0.6-1,1.3
		l-1.6,0.1c0.3,0.6,1,0.6,1.5,1.1c0.6,0.5,0.6,0.9,1.1,1.4c-0.2,0.6,0.1,0.4-0.3,0.3c-0.4-1.1-1.5-2.2-2.8-2.4
		C153.7,13.2,153.3,14,152.3,15.2L152.3,15.2z M158.9,24.5l-0.6,0.2c0.1-0.6-0.1-0.3,0.4-0.7l0.4,0.3L158.9,24.5z M137.8,117.6
		c-1.4-1.1,0.3-1.6,1.2-2c0.9,0.6,2.4,0.9,1,2c-0.6-0.3,0,0.2-0.6-0.7c-0.6,0.6-0.4,0.6-1,0C137.9,117.9,138.5,117.5,137.8,117.6
		L137.8,117.6z M138.9,113c0.3,0.8,0.3,0.9-0.1,1.7C138.6,113.9,138.6,113.6,138.9,113z M135.7,110.2c0.9,3.2-5.1,0.2-1.4-1.6
		c3.2-1.6,3.9,2.2,4.5,2.5c0.9-0.8,1.1-3.3,3.9-2.9c2.2,0.3,2.3,3.4-0.1,3.4c-0.6-0.4-0.8-0.8-0.7-1.5c0.7-0.3,1,0.6,1.5,0.1
		c-0.1-0.7-0.5-0.9-1.2-1c-1.9,0.9,0.1,2.4-3.6,2.3c-3.9-0.1-1.2-1.2-3.2-2.3c-0.7,0.1-1.1,0.2-1.2,1.1L135.7,110.2z M134,112.5h1.5
		c-0.1,0.8-0.2,1.6,1,1.4c0.7-0.4-0.8-2.4,1.7-1.6c-0.4,2.1,0,1.5,0,2.9c-1.6,0.9-4.1,0.2-3.6-1l0.2-0.5l-0.3-0.1l-0.2-0.4l-0.4,0.1
		h-0.3c-0.1,0.7-0.2,0.4,0.1,0.9c0.5,1.2,1.7,2,3.2,2c-0.3,1-0.5,1.8,0.9,1.9c0,0.7,0,0.5,0.4,0.9l0.5,0.8c0.8-0.6,0.6-0.8,0.7-1.6
		c1.5-0.2,1.3-0.7,1.2-1.8c1.5-0.6,2.8-0.8,3.3-2.7c-0.7-0.5-0.1-0.3-0.8-0.3c-1,1.1,0.8,1.2-1,2.1c-1.3,0.7-1.8,0.2-3-0.1
		c0.2-0.6,0.5-0.8,0.5-1.5c0-1.1-0.3-1-0.4-1.3c0.5-0.3,1.2-0.6,1.6,0c0.7,0.7-0.5,0.1,0.1,1.4c1.3,0.2,1.1-0.5,1.1-1.4
		c1.1,0,0.8,0.1,2-0.2c1.4-1.6,1.8-3.8-0.7-4.7c-2.5-0.9-3.6,0.9-4.7,2.4c-1.2-1.5-2.3-3.4-4.9-2.3
		C131.7,108.7,131.8,111.2,134,112.5L134,112.5z M197.3,61.3c-1.5-1.1,0.3-1.6,1.2-2c0.8,0.4,2.5,1.2,1,2c-0.6-0.2-0.1,0.1-0.6-0.6
		c-0.6,0.6-0.4,0.6-1.1,0C197.4,61.5,198,61.1,197.3,61.3z M198.3,58.2c-0.2-0.8-0.3-0.9,0.1-1.6C198.6,57.1,198.8,57.9,198.3,58.2z
		 M193.9,54.1l1.3-0.4c0.2,0.8,0,1.2-0.6,1.6c-2.5,0-2.2-3.2,0.1-3.4c2.7-0.3,2.7,1.9,3.7,2.9c0.6-0.3,1-3.1,3.7-2.9
		c2.5,0.2,2.5,3.7-0.1,3.4c-0.5-0.5-0.7-0.8-0.5-1.4c0.7-0.3,1,0.7,1.5,0.1c-0.1-0.8-0.5-0.9-1.2-1c-2.2,1,0.8,2.4-4.5,2.3
		c-1.6,0-1.1-0.7-1.5-1.7C195.3,52.6,194.1,52.6,193.9,54.1L193.9,54.1z M192.6,55.7c1.4,0.4,0.8,0.4,2.5,0.4
		c-0.1,0.9-0.2,1.8,1.1,1.3c0.3-0.7-0.9-2.2,1.6-1.5c-0.1,0.5-0.3,0.8-0.3,1.4c0,0.8,0.3,0.7,0.3,1.5c-0.9,0.6-1.9,0.6-2.9,0.1
		c-1.6-0.9,0-1.2-1.2-2.2l-0.7,0.6c0.8,1.5,1.6,2.3,3.4,2.4c-0.2,0.8-0.5,1.4,0.5,1.8c1.1,0.7,0,0.1,0.8,1l0.5,0.8
		c0.7-0.6,0.6-0.9,0.8-1.7c1.4-0.2,1.5-0.7,1.1-1.9c1.4,0,3-1,3.3-2.3l-0.3-0.8c-0.7,0.2-0.6,0.2-0.8,0.8c0.5,1.8-2.2,2.3-3.6,1.3
		c0.1-0.6,0.3-0.7,0.4-1.3c0.1-0.8-0.2-1-0.2-1.7c2.5-0.5,1.2,0.7,1.6,1.6c1.4,0.3,0.9-0.8,1.3-1.4h1.5c0.8-0.7,1.4-0.6,1.5-1.9
		c0.1-1.1-0.4-2.1-1.2-2.6c-2.3-1.4-3.7,0.3-5,1.4c0.3-1.3,1.4-1.4,2.3-2.1c-0.7-0.3-0.9-0.2-1.7-0.2c-0.4-0.7-0.1-1-1-1.3l-0.7,1.3
		l-1.7,0.2c1.2,0.9,1.9,0.7,2.5,2.4l0.3-0.2l-0.3,0.7c-2.2-4-5.7-2.8-6.4-0.8C191.5,54.2,192.1,54.7,192.6,55.7L192.6,55.7z
		 M138.5,80.8c0.6-0.7,0.8-0.2,0.8,0.5L138.5,80.8z M137.5,80c-0.7-1.2,0.6-1.5,1.4-2c0.7,0.5,2.7,1,1,2c-0.7-0.2,0,0.1-0.5-0.7
		l-0.5,0.6l-0.6-0.5C138,80.1,138.4,80,137.5,80z M143.3,76.5c0,0-0.4-0.5,0.5,0C143.4,76.8,143.8,76.8,143.3,76.5z M138.8,77
		c-0.2-0.8-0.3-0.9,0.1-1.6C139.2,76.1,139.3,76.5,138.8,77z M134.4,72.7l1.4-0.2c0.1,0.8,0,1.2-0.7,1.6c-2.4,0-2.2-3.2,0.1-3.4
		c2.9-0.3,3,2.4,3.8,2.8c0.9-0.6,1-3.2,3.9-2.7c2.2,0.3,2.3,3.5-0.1,3.4c-0.6-0.4-0.8-0.7-0.7-1.4c0.6-0.3,1,0.6,1.5,0.1
		c-0.1-0.7-0.5-0.9-1.2-1c-2.2,1.1,0.6,2.5-4.4,2.3C135.9,74,136,69.6,134.4,72.7L134.4,72.7z M138.8,72c-0.5-0.4-0.5-0.8-1.1-1.3
		c-0.5-0.4-0.9-0.4-1.4-0.9C137.5,69.9,138.6,70.9,138.8,72z M18.8,117.7c-1.4-1.1,0.3-1.6,1.2-2c0.6,0.4,2.7,1.1,1,2
		c-0.6-0.2-0.1,0-0.6-0.6l-0.4,0.5l-0.6-0.6C19,117.9,19.5,117.5,18.8,117.7z M19.9,114.6c-0.2-0.9-0.2-0.7,0-1.6
		C20.2,113.4,20.3,114.3,19.9,114.6z M15.4,110.4c0.5,0,0.7-0.5,1.4-0.3c0.2,0.7,0,1-0.5,1.4c-2.4,0.4-2.4-3.1,0-3.4
		c2.7-0.3,3.1,2.5,3.8,2.9c0.9-0.8,1.1-3.3,3.8-2.9c2.3,0.3,2.3,3.7-0.2,3.3c-0.5-0.4-0.7-0.7-0.5-1.4c0.6-0.3,0.8,0.5,1.4,0.2
		c0.1-0.8-0.4-1-1.1-1.1c-2,1,0.3,2.4-3.7,2.3c-3.6,0-1.1-2.6-3.8-2.2C15.5,109.9,15.5,109.8,15.4,110.4z M13.7,111.4
		c0.9,1.2,1.3,1.2,2.8,1.2c0.1,0.8-0.1,1.6,1.1,1.4c0.8-1.1-0.2-0.6,0.1-1.5c0.8-0.4,0.8-0.4,1.6-0.1c-0.6,3.2,0.1,1.5,0,2.9
		c-1.5,0.9-4,0.2-3.6-1c0.7-0.2-0.1-0.6-0.1-0.7l-0.3-0.4l-0.4,0.5h-0.2l0.2,0.6c0.6,1.2,1.7,1.9,3.2,2c-0.2,0.9-0.6,1.6,0.7,1.8
		c0.7,0.7-0.2,0.6,0.8,1.4l0.4,0.3l0.7-1.6c1.7-0.2,1.1-0.8,1.2-1.9c1.6-0.2,1.7-0.5,2.7-1.4c0.2-0.5,1-1.5-0.2-1.5
		c-1,1,0.7,1.1-1,2.1c-1,0.5-2,0.4-2.9-0.1c0.1-1.1,0.7-1.2,0.1-2.5c-0.2-0.4-0.2-0.2-0.1-0.3c0.1-0.3,0.6-0.3,1-0.3
		c1.9,0.2,0,0.8,0.8,1.6c1,0.9,1.1-1,1-1.4h1.8c0.7-0.7,1.4-0.7,1.4-2.3c0-2.3-3.7-4.7-6.5-0.1l-0.1-0.5c0.5-0.5,0.6-0.9,1.1-1.3
		c0.5-0.5,1.1-0.6,1.6-1l-1.7-0.3c-0.4-0.7-0.1-0.9-1-1.3l-0.8,1.3l-1.7,0.2c1,0.9,2.2,0.9,2.4,2.4c-1.2-1.2-2-2.5-4.2-2.1
		C13.8,107.9,12.8,109.7,13.7,111.4z M78.3,61.3c-1.3-1.1,0.2-1.6,1.2-2c0.8,0.4,1.6,0.6,1.5,1.6l-0.5,0.5c-0.6-0.3,0,0.2-0.6-0.7
		c-0.7,0.7-0.4,0.5-1,0C78.5,61.5,79,61.1,78.3,61.3z M79.3,58.3c-0.3-0.9-0.3-0.8,0-1.7C79.8,57.3,79.7,57.6,79.3,58.3z M76.2,53.8
		c1,3.6-5.1,0-1.3-1.7c3-1.4,3.9,2.4,4.5,2.7c0.9-0.8,1.1-3.3,3.8-2.9c2.3,0.4,2.3,3.7-0.2,3.3c-0.5-0.4-0.7-0.8-0.5-1.4
		c0.7-0.3,1,0.7,1.5,0.1c-0.1-0.8-0.5-0.9-1.2-1c-1.9,0.9,0.1,2.4-3.5,2.3c-4.1-0.1-1-1.2-3.2-2.3c-0.7,0.1-1.2,0.2-1.2,1.1
		L76.2,53.8z M74.5,56.1h1.3c0.6,0.7-0.2,0.3,0.4,1.1c0.3,0.5,0.6,0.3,1,0.2c0.2-0.6-0.8-2.3,1.6-1.5c-0.1,0.6-0.3,0.8-0.3,1.4
		c0,0.7,0.3,0.8,0.3,1.5c-1,0.6-1.9,0.7-2.9,0.1c-1.5-0.9-0.1-1-1.1-2.2c-1.8,0.7,0.8,2.9,2.7,3c-0.2,0.9-0.6,1.4,0.6,1.8
		c0.9,0.7,0.1,0.3,0.8,1c0.1,0.5-0.1,0.3,0.5,0.8l0.6-0.7c0.4,0.2,0.3,0.3,0.2-0.1l-0.1-0.7c1.3-0.6,1.6-0.3,1.2-2
		c1.6-0.3,2.9-1.1,3.3-2.6c-0.7-0.4-0.2-0.3-0.8-0.3c-0.9,1.1,0.6,1.2-1,2.1c-1,0.6-2,0.3-3-0.2c0.1-0.5,0.4-0.6,0.4-1.3
		c0.1-0.9-0.2-1-0.2-1.7c0.8-0.2,0.7-0.2,1.5,0.1c0.4,1.1-0.5,0.2,0.1,1.5l0.8,0.1c0.4-0.6,0.3-0.8,0.3-1.4c1.3,0,2.5-0.1,3-1.5
		c0.7-2.1-0.6-2.2-1.1-3.4c-3.2-0.2-3.4-0.5-5.3,2.3c-1.1-1.8-1-1.2-2.2-2.4c1.2,0.2,1.7,1.1,2.3,1.9c0.9-1.8,1.1-1.3,2.5-2.3
		l-1.7-0.3c-0.4-0.6-0.3-0.9-1-1.3l-0.8,1.3L77,50.7c0,0.3,0,0.3,0.2,0.5c-1.6-0.1-3.1-0.4-4,1.2C72.2,54.2,73.2,55.2,74.5,56.1
		L74.5,56.1z M158.7,59.2c0.9,0.4,2.6,0.9,1.2,2c-0.7-0.2-0.2,0.2-0.5-0.6l-0.6,0.6c-0.6-0.8,0-0.3-0.7-0.5
		c-0.2,0.6,0.4,0.2-0.4,0.6C156.1,60.3,157.9,59.7,158.7,59.2z M158.8,56.6c0.2,0.9,0.3,0.7,0,1.6C158.4,57.7,158.4,57.2,158.8,56.6
		z M155.6,53.8c0.9,3.3-4.7,0.3-1.6-1.6c2.9-1.7,3.9,1.8,4.7,2.5c0.7-0.4,0.9-3.2,3.8-2.9c2.4,0.3,2.4,3.8-0.1,3.4
		c-0.5-0.4-0.7-0.8-0.5-1.5l1.4,0.2c-0.1-0.8-0.5-0.9-1.2-1c-2.2,1.1,0.8,2.2-3.2,2.3c-3.7,0.1-1.6-1.4-3.5-2.3
		c-0.7,0.1-1.1,0.2-1.2,1C154.6,54.4,154.9,53.5,155.6,53.8z M160.9,51.2c-0.5,0.5-0.9,0.5-1.3,1.1c-0.4,0.5-0.6,0.9-0.9,1.4
		c-0.6-0.9-0.9-1.7-2-2.2c-0.1-0.1-0.3-0.1-0.4-0.2c-0.2-0.1-0.2-0.1-0.3-0.3c1.4,0.1,2.2,1,2.8,2.1
		C159.2,52.2,159.6,51.3,160.9,51.2L160.9,51.2z M197.4,98.9c-2.2-0.7,0.7-1.7,1-2.1c0.9,0.7,2,0.6,1.3,2H199c0-0.5,0.2,0.1-0.2-0.6
		l-0.5,0.6l-0.6-0.6C197.4,99,198.2,98.5,197.4,98.9L197.4,98.9z M198.3,95.8c-0.2-0.9-0.3-0.8,0.1-1.5
		C198.7,95,198.7,95.2,198.3,95.8z M199.4,90.6c3.9-3.8,6.4,2.8,2.5,2.2c-0.7-0.6-0.8-1-0.2-1.7c0.7,0.5-0.1,0.5,0.9,0.8
		c0.9-0.8-0.1-1.6-1.1-1.3c-1.1,0.3-0.9,1.3-1,2.1c-2.8,0-1.5,0.4-2.8,0.2c-0.6-0.5-1.1-0.2-1.8-0.2c-0.1-0.8,0.2-1.7-0.9-2.1
		c-1-0.4-1.8,0-1.4,1.1c1.4,0.2,0.3-0.3,1.2-0.6c1,1.2-0.4,2.3-1.6,1.4c-0.9-0.7-0.7-2.1,0.2-2.7c2.6-1.7,4,1.5,4.7,2.8
		C198.3,92.6,199.4,90.6,199.4,90.6z M197.6,93.3c0.2,0.8-0.2,0.7-0.2,1.6c0,0.7,0.3,1,0.4,1.6c-1,0.6-2.1,0.7-3.1,0
		c-1.5-1.1,0.6-1.9-1.4-1.9c-0.1,1.1-0.1,1,0.8,2c0.7,0.8,1.4,0.8,2.4,1c-0.5,0.8-0.4,1.3,0.4,1.7c1.1,0.7,0.3,0,0.9,0.9l0.4,0.9
		c0.9-0.4,0.8-0.8,0.9-1.6c1.5-0.3,1.4-0.6,1.1-1.9c1.7-0.3,3.3-1.1,3.2-2.9c-1.7-0.4-0.1,1.1-1.3,1.9c-1.1,0.7-2.1,0.7-3.2,0
		c0.1-0.6,0.4-0.8,0.4-1.5c0-0.8-0.2-0.7-0.1-1.5c0.8-0.1,0.8-0.1,1.5,0.2c0.1,0.9-0.7,0.6,0.1,1.5c1.3,0,1-0.5,1-1.4l1.8-0.1
		c0.4-0.7,1.2-0.8,1.3-1.9c0.1-0.9-0.3-1.9-1-2.4c-1.8-1.2-3.7-0.4-4.9,0.9l-0.6,1.1c-0.6-0.8-0.5-1.2-1.6-1.9
		c-1.9-1.4-4.3-0.5-4.9,1.2c-0.4,1.2,0.2,1.8,0.6,2.7c1.3,0.4,1,0.6,2.5,0.4c-0.1,0.6-0.3,1.6,0.6,1.5c1-0.1,0.3-1,0.3-1.4
		L197.6,93.3L197.6,93.3z M135.8,148c0,3.4-4.9-0.7-1.2-2c2.9-1,3.7,2.4,4.3,2.7c1-0.8,1-3.3,3.9-2.8c2.2,0.3,2.3,3.4-0.1,3.3
		c-0.6-0.4-0.9-0.7-0.7-1.4c0.7-0.3,1,0.5,1.6,0c-0.1-0.8-0.6-1-1.4-0.9c-2.4,1.4,1.3,2.2-3.4,2.3c-4.3,0-0.9-1.1-3.2-2.3
		c-0.7,0.1-1.1,0.2-1.2,0.9C134.8,148.3,135.2,147.5,135.8,148L135.8,148z M134.1,150.2h2.5c0.5-0.5,0.7-0.4,1.4-0.3l0.2,0.3h1.1
		c0.3-0.7,1.2-0.5,1.6,0h2.4c1.5-0.9,2.3-1.3,1.8-3.4c-0.5-0.9-0.4-0.9-1.3-1.4c-1.3-0.6-1.4-0.3-2.7-0.3l-1.5-0.5
		c-0.3-0.5-0.4-1-0.8-1.4c-0.5,0.4-0.7,0.9-1,1.4l-1.4,0.1c-0.2,0.3-0.4-0.2,0,0.4c-1.7,0-3.1-0.3-3.9,1.6
		C131.6,148.7,133,149.3,134.1,150.2L134.1,150.2z M141.2,145.1c-0.6,0.7-1.3,0.4-2.3,2.5c-0.3-0.2-0.6-1-1.1-1.4
		c-0.6-0.6-1-0.6-1.4-1.1c1.4,0.2,1.8,1.1,2.4,2C139.4,146.2,140.2,145.2,141.2,145.1L141.2,145.1z M16.9,148c0,3.4-4.9-0.7-1.2-2
		c2.9-1,3.7,2.4,4.3,2.7c0.9-0.8,1-3.3,3.9-2.8c2.2,0.4,2.3,3.5-0.1,3.3c-0.6-0.4-0.9-0.7-0.7-1.4c0.7-0.3,1,0.4,1.6,0
		c-0.1-0.7-0.5-0.9-1.2-1c-2.2,0.9,0.6,2.4-3.4,2.3c-4.2-0.1-1.3-1.1-3.4-2.3c-0.7,0.1-1.1,0.2-1.2,0.9
		C15.8,148.3,16.2,147.5,16.9,148L16.9,148z M15.1,150.2h2.5h1.7h1H22h2.5c0.9-0.6,1.8-1,1.8-2.3c0.1-2.5-3.6-4.9-6.5-0.3
		c-0.6-0.6-0.6-1.2-1.8-2c-2.2-1.4-5,0.1-4.7,2.5C13.5,149.4,14.3,149.5,15.1,150.2z M99.2,148.7c0.4-0.2,1.6-3.9,4.5-2.7
		c3.3,1.5-1.4,5.3-1.4,1.9c0.6-0.5,1,0.3,1.5-0.2c-0.1-0.7-0.5-0.9-1.2-0.9c-2.5,1.3,1.3,2.2-3.4,2.3c-4.2,0.1-1-1-3.2-2.3
		c-0.8,0-1.3,0.1-1.4,0.9c0.5,0.5,0.8-0.3,1.6,0c0.2,0.7-0.2,1-0.7,1.4c-2.5,0.1-2.3-3.1,0.1-3.3C98.3,145.6,98.2,147.9,99.2,148.7z
		 M94.6,150.2H97c0.4-0.5,1.3-0.6,1.7,0h1h1.8h2.4c1.3-0.8,2.5-1.6,1.7-3.5c-0.8-1.7-2.2-1.6-3.9-1.6c0.1-0.4,0.1-0.1,0-0.4
		l-1.4-0.1c-0.3-0.5-0.5-1-1-1.4c-0.5,0.4-0.6,0.9-0.8,1.3l-1.7,0.3c0.9,0.9,1.5,0.4,2.5,2.3c0.7-0.8,1.1-1.7,2.4-2
		c-0.4,0.5-1,0.6-1.5,1.2c-0.4,0.5-0.6,0.9-0.9,1.3c-2.4-4.4-7-2.6-6.5,0.6C92.9,149.4,93.8,149.7,94.6,150.2L94.6,150.2z M56.5,148
		c0,3.2-4.6-0.3-1.5-1.8c3-1.5,3.8,1.9,4.6,2.4c0.9-0.5,0.9-2.9,3.7-2.7c2.3,0.2,2.7,3.1,0.4,3.4c-0.7-0.3-1-0.6-1-1.3
		c0.6-0.5,1,0.4,1.6-0.1c-0.1-0.8-0.5-0.9-1.2-1c-2.3,1,0.8,2.3-3.2,2.3c-4.5,0-1.3-1.1-3.6-2.3c-0.7,0.1-1.1,0.2-1.2,1
		C55.5,148.3,55.9,147.5,56.5,148L56.5,148z M54.7,150.2h2.6c0.5-0.5,1.2-0.6,1.7,0h1h1.8h2.4c0.9-0.6,1.7-0.9,1.9-2.2
		c0.1-1.1-0.4-2-1.4-2.5c-2.5-1.5-4,0.6-5.2,2.1c-1.2-1.6-2.7-3.6-5.2-2.1c-0.9,0.5-1.4,1.6-1.3,2.6
		C53.1,149.2,54.1,149.5,54.7,150.2L54.7,150.2z M213.6,147.9l1.5-0.1c0.1,0.8-0.1,1-0.7,1.4c-2.4,0.2-2.3-3-0.1-3.3
		c2.9-0.5,2.9,2.1,3.9,2.8c0.8-0.4,0.7-2.8,3.4-2.8c2.5,0,3,3.2,0.6,3.4c-0.7-0.3-0.9-0.6-0.9-1.3c0.6-0.5,1,0.3,1.5-0.2
		c-0.1-0.7-0.5-0.9-1.2-0.9c-2.3,1.3,1.3,2.4-4.6,2.3c-1.6,0-0.9-0.7-1.4-1.7C215,146.4,214.1,146.9,213.6,147.9L213.6,147.9z
		 M213.5,150.2h2.5h1.7h1.1c0.6-0.6,1.2-0.5,1.7,0h2.6c1-0.7,1.7-0.9,1.8-2.3c0.1-1-0.5-2-1.5-2.5c-2.7-1.4-3.9,0.9-5,2.2
		c-3.2-4.8-6.8-2-6.5,0.5C211.8,149.2,212.7,149.6,213.5,150.2L213.5,150.2z M173.9,147.9c0.4,0.2,0.9-0.4,1.5,0.1
		c0,0.7-0.3,1-1,1.3c-2.3-0.3-1.9-3.3,0.4-3.4c2.8-0.2,2.7,2.2,3.6,2.7c1-0.6,0.9-2.9,3.7-2.7c2.3,0.2,2.7,3.1,0.4,3.4
		c-0.7-0.3-1-0.6-1-1.3c0.7-0.5,1,0.3,1.6-0.1c-0.1-0.8-0.5-0.9-1.2-1c-2.2,0.9,0.8,2.5-4,2.4c-1.4,0-1.6-0.7-2.1-1.7
		C175.3,146.5,174.4,146.8,173.9,147.9L173.9,147.9z M173.9,150.2h2.5h1.7h1h1.8h2.6c0.8-0.7,1.7-1.1,1.7-2.3c0-1-0.5-2-1.5-2.5
		c-2.6-1.3-3.9,0.7-5.1,2.2c-1.2-1.5-2.7-3.6-5.2-2.1c-1,0.6-1.5,1.4-1.3,2.6C172.2,149.3,172.9,149.6,173.9,150.2z M0.1,15.9v1.3
		c0.6-0.8,0.6-1.7,1.6-2.5c2.6-2,5.3,1.2,3.1,2.6c-1.3,0.8-2.4-0.4-1.4-1.6c0.7,0.4,0.1,0.9,0.9,0.8c0.6-0.1,0.6-0.9,0-1.2
		c-1.8-0.8-1.8,1.3-2,2c-1.2,0.1-0.8-0.1-2.2,0.3v3.8c0.6,0.5,2.8,1.2,1,2.1c-0.4-0.2-0.2,0-0.4-0.6c-0.6,0.4-0.1-0.1-0.6,0.5V24
		v0.4v1.3c0.6-0.4,0.8-0.8,0.7-1.6C2.4,24,2.2,23.6,2,22.3c1.6-0.3,3.6-1.2,3-3c-2,0.5,0.4,1.1-1.5,2.1c-1,0.5-2.1,0.4-3-0.2
		c0.6-1.7,0.5-1.1,0.1-2.8c0.8-0.3,1.1-0.3,1.8,0.2c-0.2,0.7-0.4,0.2-0.2,1.2l1,0.2c0.5-0.7,0.3-0.6,0.3-1.4l2-0.2
		c0.5-0.8,1.2-1,1.1-2.4c-0.1-1-0.7-1.9-1.5-2.3C2.6,12.6,1.2,14.4,0.1,15.9z M0.1,53.6v1.2c0.9-1.2,2.2-4.3,4.8-2.5
		C5.8,53,6,54.4,4.9,55c-1.2,0.7-2.4-0.3-1.5-1.5c0.9,0.5,0,0.7,1.1,0.8c1.2-1.4-2.2-2.7-2.1,0.9c-1.3-0.1-1-0.3-2.4,0.2v3.9
		c1,0.5,2,0.6,1.4,1.9l-0.7,0.1l-0.1-0.7c-0.5,0.3-0.3,0.2-0.6,0.5v0.5V62v1.3c0.7-0.5,0.7-0.8,0.7-1.6c1.5-0.1,1.4-0.6,1.3-1.9
		c1.9-0.4,1.5-0.7,2.6-1.1c0.4-0.9,1.2-1.2,0.2-1.9c-1.1,0.6-0.3,0.8-0.5,1.6C3.2,59.6,2,59.6,0.6,59c0-0.8,0.3-0.8,0.3-1.6
		c0-0.7-0.2-0.9-0.2-1.5C3,55.4,2.1,56.6,2.1,57c0.1,0.9,1.4,1,1.2-1c1.6,0.1,1.7,0.1,2.8-0.9c1.2-1.7-0.1-3.7-1.9-4
		C1.8,50.7,1.2,52.2,0.1,53.6L0.1,53.6z M233.5,18.5l1-0.1c0.3,0.8-0.2,0.6,0.4,1.4l0.8,0.1c0.5-0.9,0-0.7-0.1-1.3
		c0.7-0.6,0.8-0.6,1.7-0.3c-0.2,1.8-0.5,0.9,0.2,2.8c-0.8,0.7-1.9,0.8-2.9,0.3c-2.1-1,0.5-1.6-1.6-2.2l-0.2,0.2
		c-0.2,1.7,1.7,2.6,3.2,2.8c-0.3,1.3-0.4,1.7,1.2,1.9c0.1,0.8,0,1.1,0.7,1.5v-1.3l-0.3,0.3c0-0.8-0.2-0.2,0.3-0.8v-0.4
		c-0.3-0.4-0.2-0.2-0.6-0.5c-0.1,0.5,0,0.4-0.4,0.6l-0.5-0.2c-0.4-1.1,0.6-1.4,1.5-1.8v-3.8c-0.9-0.7-1.3-0.3-2.3-0.4
		c-0.2-1,0.3-1.3-0.8-2.1c-1.1-0.2-2.5,0.3-1.2,1.3c1.1-0.4,0.1-0.4,0.8-0.8c1.1,1.2-0.1,2.3-1.3,1.6c-1.1-0.7-1-1.9-0.1-2.7
		c2.7-2.2,4.8,2.5,4.8,2.5V16c-1.1-1.5-2.8-3.6-5.3-2.1C230.9,15,231,17.9,233.5,18.5z M0.1,128.7v1.3c0.6-0.9,0.6-1.6,1.8-2.4
		c2.7-1.9,5.2,1.6,2.9,2.7c-1.2,0.6-2.2-0.6-1.3-1.7c0.8,0.4,0,0.6,0.9,0.8c1.2-0.6,0-1.6-1.1-1.2c-1.1,0.4-0.7,1.4-0.9,2.1
		c-1.4,0-0.8-0.2-2.3,0.2v3.8l1.6,0.9c0.1,0.8,0.2,0.6-0.3,1.2c-0.7-0.2-0.1,0-0.5-0.2c-1.2-0.9,0.7,0.1-0.4-0.3l-0.4,0.5v0.4v0.5
		v1.3c0.6-0.4,0.4-0.3,0.6-1c0.6-1.5,1.8-0.2,1.3-2.5c2.3-0.5,1.4-0.5,2.9-1.5c0.4-0.8,0.7-1-0.1-1.6c-1.5,0.6,0.5,1.1-1.2,2.1
		c-0.9,0.5-2.2,0.5-3-0.2c0.5-2,0.2-1.1,0.2-2.8c0.7-0.4,0.9-0.3,1.6,0.1c0.1,0.8-0.7,0.4,0,1.4l0.8,0.1c0.5-0.7,0.2-0.5,0.4-1.4
		c1.4-0.3-0.2,0.3,2.5-0.6c0.4-1,0.9-1.5,0.5-2.7c-0.3-0.9-1-1.5-1.8-1.8C2.3,125.7,1.1,127.3,0.1,128.7L0.1,128.7z M232.8,93.6
		l1.9,0.1c0,0.8-0.2,1.8,1.1,1.3c0.5-1.1-0.2-0.3,0-1.3c0.7-0.4,0.7-0.3,1.5-0.2c0,1-0.7,1.8,0.3,2.7c0.6-1.1-0.2-0.7,0.4-1.8v-1.3
		c-1.1-0.8-1.1-0.4-2.3-0.4c-0.1-0.7,0.2-1.5-0.8-2c-0.8-0.4-2.2,0.1-1.4,1.2c1.2,0,0.3-0.3,1.1-0.7c1,1.2-0.3,2.3-1.5,1.5
		c-2-1.2,0.6-4.7,3.3-2.5c1.2,1,1,1.4,1.6,2.5V87c-0.6,0.4-0.6,0.6-0.9,1.2l-1.7,0.2c0.5,0.8,2,0.6,2.3,2.3c-1.2-0.8-2.4-3-5-1.5
		c-0.8,0.5-1.3,1.3-1.3,2.2C231.4,92.5,232.1,92.9,232.8,93.6z M0.1,92.3c0.8-1.1,2.4-4.4,4.9-2.4c0.9,0.7,0.9,2.1,0,2.7
		c-1.2,0.7-2.6-0.3-1.5-1.5c0.8,0.5-0.2,0.8,1,0.7c0.8-1-0.4-1.5-1.2-1.2c-1.1,0.4-0.9,1.3-0.9,2.1c-1.2,0.1-0.8-0.2-2.3,0.3v1
		c0.1,0,0.2-0.1,0.3-0.1c-0.6,0.9,0.4,1.2-0.3,1.9V97c0.7,0.4,3,1.5,0.7,2.1l-0.1-0.7c-0.6,0.3-0.1,0-0.6,0.5v0.5v0.4v1.3
		c0.7-0.5,0.6-0.8,0.8-1.5c1.4-0.2,1.5-0.7,1.1-1.9c2.7-0.6,2.2-1.3,3.1-1.7c0.2-1,0.4-1-0.4-1.5c-1,0.7-0.3,0.7-0.4,1.6
		c-1.2,1.1-2.3,1.3-3.8,0.4c0.2-0.9,0.9-1.9-0.1-2.7c0.6-0.3,0.8-0.6,1.8-0.1c0.1,0.7-0.7,1.2,0.3,1.5s0.8-0.9,0.8-1.5
		c2.2,0.3,1.8-0.3,3.1-1.2c0-1.6,0.1-3.2-2-3.7c-2.5-0.6-3,1-4.2,1.8c0.3-1.7,1.8-1.5,2.3-2.2l-1.7-0.3c-0.4-0.8-0.1-0.7-0.9-1.3
		L0.1,92.3L0.1,92.3z M231.9,130.3c0.9,1.2,1.5,0.9,2.8,1.1c0,0.8-0.2,0.7,0.3,1.4h0.9c0.3-1.3-0.3-0.6-0.2-1.4
		c0.8-0.4,0.8-0.4,1.6-0.1c-0.1,1-0.7,1.7,0.3,2.6c0.7-1.1-0.3-0.8,0.4-1.8v-1.3c-1.4-0.8-1.1-0.3-2.3-0.4c-0.1-0.8,0.2-1.8-1-2.1
		c-1.1-0.3-2.1,0.7-0.9,1.3c0.9-0.3,0.1-0.4,0.9-0.8c1,1.2-0.2,2.3-1.4,1.6c-1.1-0.7-1-2-0.1-2.7c1-0.8,2.3-0.6,3.2,0.1
		c1.3,1,1,1.5,1.7,2.5V129c-1-1.4-2-2.8-4.2-2.4C231.7,126.7,231.1,128.5,231.9,130.3L231.9,130.3z M231.6,54.9
		c1.6,1,0.5,1.2,3.1,1.2c0,0.9-0.3,0.8,0.4,1.4l0.7-0.1c0.6-1.2-0.3-0.5,0.1-1.5c0.8-0.3,0.7-0.3,1.5,0c0,1-0.7,1.8,0.3,2.6
		c0.7-1.1-0.3-0.6,0.4-1.8v-1.3c-1-0.7-1.2-0.4-2.4-0.3c0-3.6-3.2-2.3-2.1-0.9c1.1-0.1,0.5-0.3,0.8-0.9c0.9,0.4,0.8,0.9,0.3,1.7
		c-2.3,1.1-3.2-2.4-0.8-3.1c2.6-0.8,3.3,1.7,4.1,2.9v-1.3c-1-1.3-1.5-2.8-4-2.5C231.4,51.4,231.6,53.2,231.6,54.9L231.6,54.9z
		 M217.1,42.5c-1.6-0.9,0.5-1.6,1-2c0.8,0.3,3,1.2,1,2c-0.7-0.3,0.1,0.2-0.4-0.7c-0.6,0.4-0.1,0.1-0.6,0.5l-0.5-0.5
		C217.2,42.6,217.8,42.1,217.1,42.5z M217.4,36.9c0.2,0.8-0.1,0.7-0.1,1.6c0,0.9,0.3,0.9,0.3,1.5c-1,0.6-1.8,0.8-2.9,0.2
		c-1.8-1,0.2-0.9-1.1-2.2l-0.4,0.3c-0.4,0.4-0.2-0.1-0.3,0.6l0.5,0.3l0.4,0.9c0.9,0.3,0.8,0.6,2.5,0.9c-0.3,1.3-0.3,1.7,1.2,1.9
		c0.1,0.8,0,1.3,0.8,1.6l0.5-0.8c0.7-1-0.4-0.3,0.8-0.9c0.9-0.6,0.7-0.9,0.4-1.8c1.1-0.2,1.7-0.2,2.4-1.1c0.7-0.8,1.3-1.3,0.4-2
		c-1.6,1,0.7,1-1.2,2.1c-1.1,0.7-2,0.4-3.1-0.1c0.6-1.9,0.1-2.4,0.2-2.9c0.9-0.2,1.3-0.2,1.7,0.5c-0.8,0.7-0.3,1.2,0.7,1
		c0.3-0.7,0.3-0.7,0.1-1.5c1.7,0.2,2.8-0.1,3.2-1.8s-1.1-3.2-2.8-3.2c-2.3,0-2.6,1.3-3.6,2.5c-1-1.5-2-2.9-4.3-2.5
		c-2.7,0.5-2.1,2.6-1.8,4.2c1.2,0.6,1.2,0.8,2.7,0.7c0,1-0.1,1.6,1.2,1.4c0.4-1.1-0.1-0.5-0.1-1.4H217.4L217.4,36.9z M220.6,36
		c-0.4,0.6-0.1,0.1-1.4,0.3c-0.7,0.1-0.5,0.3-1.4,0.3c-0.6-0.7-1.2-0.3-2-0.3c0-0.8,0.3-1.8-0.9-2.1c-1-0.3-2.1,0.5-1.1,1.3
		c1.2-0.2,0.1-0.4,0.9-0.8c0.6,0.6,0.5,0.9,0,1.6c-2.6,0.8-2.9-2.7-0.5-3.2c2.3-0.5,3.3,1.5,3.9,3.1c0.6-1,0.4-1.5,1.6-2.5
		c2.8-2.2,5.3,1.3,3.3,2.5c-1.3,0.7-2.5-0.3-1.5-1.5c1,0.3-0.3,0.9,1.3,0.7C223.3,33.4,220.2,33.8,220.6,36L220.6,36z M59.2,5.7
		c0.2-0.9,0-0.2,0.4-0.5l0.5,0.4c-0.3,0.2-0.1,0.2-0.7,0.1H59.2z M58.1,4.7c-0.5-1.2,0.6-1.4,1.4-1.8c0.7,0.3,2.8,1.3,1,2
		C59.8,4.5,60.4,5,60,4.2l-0.5,0.6l-0.6-0.6l-0.2,0.7C58.7,4.9,58.1,4.7,58.1,4.7z M59.6,1.7c-0.3-0.7-0.3-0.7,0-1.4
		C59.9,1,59.9,1,59.6,1.7z M54.5,0.5c-0.2,1.1,0,1.2,0.9,2.1c0.7,0.6,1.4,0.7,2.3,0.9c-0.3,1-0.3,1.1,0.4,1.8h0.8
		c0,0.8,0,1.2,0.7,1.6c0.7-0.4,0.6-0.8,0.7-1.6c1.8-0.3,1.3-0.8,1.2-1.9c2.7-0.3,1.9-1.2,3.3-1.9V0.6c-0.7-0.4-0.2-0.3-0.9-0.2
		c-0.7,1.2,0.8,1.3-1,2.1c-1.2,0.7-1.8,0.5-2.9,0c0.2-1.2,0.5-0.8,0.3-2.4h-1.6c-0.1,0.8-0.2,1.8,0.4,2.2c-0.8,0.9-2.1,1-3.2,0.4
		C54.4,1.7,56.4,0.3,54.5,0.5z M177.5,4.9c-2-0.8,0.6-1.8,1-2.1c0.6,0.5,2.6,1,1.2,2.1c-0.8-0.2-0.1,0.2-0.7-0.7l-0.5,0.6l-0.6-0.5
		C177.6,5.1,178.2,4.6,177.5,4.9L177.5,4.9z M173.4,1.6c1.8,1.2,0.4,1.3,3.3,1.9c-0.4,1.2-0.2,1.7,1.2,1.8c0,0.8,0,1.1,0.7,1.6
		c0.7-0.4,0.6-0.8,0.7-1.6c1.7-0.3,1.3-0.8,1.2-1.9c1.8-0.3,3.4-1.2,3.2-3c-2-0.2,0,1.1-1.4,2c-1,0.7-2.1,0.5-3.1,0
		c0.1-1,0.4-1.1,0.2-2.5h-1.6c-0.2,1.2-0.2,1.3,0.4,2.3c-1.2,1-2.7,0.8-3.8-0.3c-0.2-0.8,0.4-0.8-0.1-1.4
		C173.5-0.1,173.4,1.2,173.4,1.6L173.4,1.6z M137.8,4.8c-1.4-1.1,0.3-1.6,1.2-2c0.8,0.4,1.4,0.5,1.6,1.4L140,4.8
		c-0.6-0.2-0.1,0.1-0.6-0.7l-0.5,0.6l-0.6-0.6C138,5,138.4,4.7,137.8,4.8L137.8,4.8z M143.3,1.2c0,0,0.1-0.3,0.3,0
		C143.9,1.7,143.4,1.4,143.3,1.2z M133.8,1.6c1,1.2,1.4,1.8,3.2,1.9c-0.2,0.9-0.5,1.9,1,1.8c0.1,0.7-0.1,0.4,0.4,0.9
		c0.2,0.6,0,0.4,0.6,0.8c0.7-0.6,0.6-0.8,0.7-1.6c1.5-0.2,1.4-0.6,1.2-1.8c0.7-0.2,1.5-0.3,2.1-0.9c0.5-0.5,1.1-1.1,1-1.8
		c-0.4-0.5-0.1-0.4-0.8-0.3c-0.2,0.5-0.1,0.9-0.1,1.4c-1.1,1.2-2.3,1.4-3.7,0.6c0-1,0.5-0.8,0.3-2.5h-1.6c-0.2,1.5,0.2,1.6,0.2,2.5
		c-1.2,0.7-3.8,0.5-3.6-1l0.2-0.5L134.6,1l-0.3-0.5l-0.4,0.3v0.1L133.6,1l0.1,0.4L133.8,1.6L133.8,1.6z M19.2,4.9
		c-0.8-0.1-1.2-0.5-0.7-1.2C18.6,3.4,19.6,3,20,2.8c0.8,0.6,1.4,0.4,1.6,1.4L21,4.9c-0.7-0.3-0.2,0-0.6-0.7c-0.7,0.6-0.4,0.5-1,0
		C19.4,4.2,19.2,4.9,19.2,4.9z M19.8,1.8C19.6,1,19.5,1,19.9,0.4C20.2,1,20.2,1.2,19.8,1.8z M14.9,1.6c0.8,1.2,1.5,1.8,3.1,1.9
		c-0.2,0.9-0.5,1.4,0.5,1.8c1,0.7,0.1,0.2,0.8,1l0.5,0.8c0.7-0.6,0.6-0.9,0.7-1.7c1.4-0.1,1.5-0.7,1.2-1.8c0.9-0.2,1.3-0.3,2.1-0.8
		c0.7-0.7,1.8-1.6,0.6-2.2c-1.3,1.1,0.7,1.1-1.2,2.2c-1,0.6-1.9,0.4-2.9-0.1c0.1-1,0.5-1,0.3-2.5H19c-0.1,0.9-0.3,1.5,0.4,2.3
		c-1.5,1.3-4,0.4-3.8-0.7c0.7-0.3,0-0.7,0-0.7l-0.4-0.5L14.8,1l-0.4,0.3C14.6,1.2,14.9,1.6,14.9,1.6z M216.6,4.3c0.2-1,1-1,1.7-1.5
		c0.8,0.6,2.2,0.7,1.2,2c-0.9,0.1-0.3,0.3-0.7-0.6c-0.7,0.6-0.4,0.7-1.1,0c-0.4,0.7,0.1,0.4-0.6,0.7L216.6,4.3L216.6,4.3z M217.9,7
		c0.7-0.1,0.6-0.2,0.8-0.7c0.5-0.3,0.4-0.4,0.4-0.9c1.4-0.1,1.2-0.9,1-1.9c1.7-0.1,2.3-0.6,3.1-1.9h0.2l0.1-0.5L223.2,1l-0.3-0.5
		L222.4,1c-0.8,0,0.1,0.6,0.1,0.6c-0.7,1.8-2.4,1.6-3.9,0.9c0.4-0.9,0.5-1.4,0.4-2.4h-0.8l0,0c-0.3,0.7-0.5,1,0,1.7
		c0.3-1,0.3-0.8,0-1.7l0,0l0,0L217.9,7L217.9,7z M218.2,0h-0.8c-0.2,1.4,0.2,1.6,0.3,2.5c-1.5,0.8-2.7,0.6-3.7-0.6
		c0-0.7,0.3-0.8-0.3-1.5c-1.4,0.9,0.4,2.6,2.7,3.1c-0.3,1.2-0.3,1.8,1.2,1.8l0.4,1.6L218.2,0L218.2,0z M238,77.8v-5.7
		c-0.5,0.5-0.6,1.1-0.7,2c-0.9,0-0.8-0.1-1.5,0.4c0.5,0.6,0.7,0.5,1.3,1.4C237.5,76.5,237.7,77.3,238,77.8z M199.6,0H197
		c0.6,1.2,0.9,1.4,1.3,2.8C198.7,1.5,199.2,1.1,199.6,0z M80.7,0h-2.6c0.7,1.2,0.9,1.5,1.3,2.8C79.7,1.5,80.2,1.2,80.7,0z
		 M236.2,150.2h1.8v-2.8c-0.6,0.5-0.6,1.2-0.7,2l-1.4,0.3L236.2,150.2z M238,2.7V0h-1.3c0.3,0.5,0.6,0.7,0.8,1.3
		C237.8,1.8,237.8,2.3,238,2.7z M221.6,0h-1.2c-0.2,0.6-0.3,0.3,0,1C221.4,1.4,221.6,0.9,221.6,0z M17.7,0h-1.2c0,0.9,0.2,1.4,1.2,1
		C18,0.4,17.9,0.7,17.7,0z M136.7,0h-1.2c0,0.8,0.2,1.4,1.2,0.9C137,0.4,136.9,0.7,136.7,0z M102.6,0h-1.1
		C100.9,1.5,102.6,1.7,102.6,0z M196.9,136.3c-0.5-1.3,0.5-1.3,1.5-1.9c0.8,0.5,2.2,0.7,1.3,1.9c-0.8,0-0.2,0.5-0.8-0.5l-0.5,0.5
		l-0.5-0.6C197.6,136.3,197.7,136.6,196.9,136.3L196.9,136.3z M198.4,131.8c0.3,0.8,0.4,0.9,0,1.6
		C198.2,132.9,198,132.3,198.4,131.8z M195.2,128.9c0.4,1.1-0.6,2.1-1.7,1.3c-1-0.7-0.9-2.2,0.2-2.8c3-1.7,4.1,2.2,4.7,2.5
		c0.9-0.7,1.1-3.4,4-2.7c2.2,0.5,2,3.7-0.4,3.3c-0.5-0.4-0.7-0.7-0.5-1.4c0.6-0.3,0.9,0.7,1.5,0.1c-0.1-0.8-0.5-0.9-1.2-1
		c-2.4,1.1,0.9,2.3-4.2,2.3c-1.5,0-1.3-0.5-1.7-1.5c-0.5-1.3-1.7-1.1-2,0C194.2,129.5,194.5,128.8,195.2,128.9L195.2,128.9z
		 M194.7,131.3l0.4-0.1c-0.2,1-0.1,1.7,1.1,1.4c0.5-1.1-0.2-0.5,0-1.3c0.7-0.4,0.9-0.5,1.6-0.1c-0.1,1.5-0.6,1,0.2,2.8
		c-1.4,0.9-4.1,0.6-3.8-0.9l0.3-0.4l-0.3-0.2l-0.1-0.4h-0.5l-0.1,0.4c0,0-0.7,0.4,0,0.6c1,1.4,1.4,1.7,3.2,2c-0.4,1-0.3,1.8,1,1.8
		c0,0.4-0.2,0.8,0.3,0.8l0.4,0.8c0.9-0.3,0.8-0.7,0.9-1.6c1.4-0.2,1.6-0.7,1.1-1.9c1.7-0.1,3.4-1.1,3.3-2.9c-1-0.2-0.9,0-0.9,0.8
		c0,0.5,0.4,0.5-0.6,1.1c-1,0.7-2,0.5-3.1,0.1c0-0.9,0.6-1.5,0.1-2.6L199,131l1.6,0.1c0.3,1.1-0.5,0.1,0,1.5
		c1.4,0.4,1.2-0.3,1.2-1.3c1.7,0,2.2,0,3-1.5c0.6-1.9-0.7-3.6-2.8-3.6c-3.5,0-3.3,3.8-3.7,2.1c0.5-0.6,0.5-1,1.1-1.5
		c0.4-0.3,1.1-0.6,1.5-0.9c-0.6-0.4-0.9-0.3-1.7-0.3c-0.2-0.8-0.2-0.8-0.7-1.3c-0.7,0.3-0.7,0.5-0.9,1.3c-0.9,0-0.9-0.1-1.7,0.3
		c1.1,0.7,2.1,1,2.4,2.3c-0.8-0.8-1-1.5-2.3-1.9c-1.1-0.4-2.3-0.2-3.2,0.5C190.9,128.5,191.8,131.4,194.7,131.3L194.7,131.3z
		 M77.8,136.2c-0.1-1.2,0.6-1.3,1.6-1.7c0.8,0.5,2.5,1,1,2c-0.9-0.5-0.1,0-0.5-0.6c-0.5,0.1-0.1-0.1-0.6,0.4l-0.6-0.5
		C78.5,136.4,78.7,136.8,77.8,136.2L77.8,136.2z M79.3,133.5c-0.2-0.9-0.2-0.8,0-1.7C79.6,132.3,79.8,133,79.3,133.5z M76.2,128.9
		c1.1,3.5-4.8,0.3-1.4-1.5c3.1-1.7,4.1,2.2,4.6,2.6c0.9-0.8,1-3.3,3.9-2.9c2.2,0.3,2.3,3.5-0.1,3.4c-0.6-0.4-0.8-0.7-0.7-1.4h1.6
		c-0.3-0.7-0.6-0.8-1.4-0.8c-1.9,1.3,0.4,2.3-3.4,2.3c-3.6,0-1.2-1.2-3.2-2.3c-0.7,0-1.3,0.3-1.2,1.2L76.2,128.9L76.2,128.9z
		 M72.9,128.4c0,2.3,0.9,3,3.2,2.9c0,1-0.3,1.6,1.1,1.4c0.6-1-0.2-0.5,0-1.4c0.7-0.4,0.9-0.4,1.6-0.1c-0.2,1.8-0.5,0.9,0.2,2.8
		c-1.2,1.1-4.1,0.5-3.8-0.9c0.3-0.3,0.4-0.3,0-0.5l-0.4-0.5l-0.4,0.5H74l0.3,0.6c1.1,1.5,1.3,1.7,3.2,2c-0.6,1.1-0.1,1.7,1.1,1.8
		c-0.1,0.2-0.4,0.8,0.2,0.8l0.4,0.8c0.9-0.3,0.7-0.7,0.9-1.5c1.3-0.2,1.6-0.7,1.1-1.9c1.6-0.1,3.8-1.3,3.1-3c-2,0.5,0.5,1-1.4,2.1
		c-1.1,0.7-1.9,0.4-3,0c0-1.2,0.6-1,0.2-2.7v-0.4l1.5,0.2c0.3,1.2-0.4,0-0.1,1.5c1.4,0.3,1.2-0.3,1.2-1.4c1.4,0.1,1.4-0.1,2.6-0.5
		c0.4-1.1,1-1.5,0.4-2.9c-0.5-1.3-3.8-3.6-6.4,1l-0.1-0.5c0.4-0.5,0.6-1,1.1-1.5c0.5-0.4,1-0.6,1.5-0.9c-0.7-0.4-0.8-0.3-1.6-0.3
		c-0.4-0.7-0.1-0.6-0.8-1.3c-0.7,0.3-0.7,0.5-0.9,1.3c-0.9,0-0.9-0.1-1.7,0.3c1,0.6,2.1,1.1,2.4,2.4c-1-0.9-1.1-2.1-3.3-2.2
		C74.2,126.2,73.5,127,72.9,128.4L72.9,128.4z M36.6,16.2c0.3,1.1-0.8,2-1.9,1.1c-0.9-0.7-0.8-2.1,0.2-2.7c3-1.8,4,1.8,4.8,2.6
		c0.7-0.4,0.8-3.2,3.8-2.9c2.4,0.2,2.3,3.8-0.1,3.4c-0.6-0.5-0.7-0.9-0.5-1.6c0.6-0.2,0.7,0.7,1.3,0.3c0.1-0.8-0.5-1-1.2-1.1
		c-2.2,1.2,0.7,2.2-3.4,2.2c-3.6,0-1.3-1-3.2-2.2c-0.7,0-1.2,0.1-1.4,0.9C35.5,16.7,35.9,16,36.6,16.2z M158.8,92.5
		c0.3-2,2.8-4.2,4.8-2.7c0.9,0.7,1,2.2,0,2.8c-1.3,0.8-2.4-0.4-1.5-1.5c0.9,0.4-0.2,0.6,1,0.7c0.9-1-0.3-1.6-1.2-1.2
		c-1,0.4-0.8,1.3-0.9,2.1l-2,0.1L158.8,92.5z M158.3,92.9c-0.9-0.4-1.1-0.3-2-0.1c0-0.8,0.3-1.8-0.9-2.2c-0.9-0.3-2.1,0.5-1.1,1.3
		c1-0.3,0.2-0.3,0.9-0.8c0.6,0.6,0.6,1,0,1.6c-2.5,0.8-2.9-2.8-0.5-3.2c2.2-0.4,3.4,1.4,3.9,3.1C158.6,93,158.8,92.9,158.3,92.9
		L158.3,92.9z M154.2,93.7l1.2-0.1c0.3,0.6-0.4,1.8,1.1,1.4c0.5-1.2-0.1-0.4,0-1.4c0.8-0.3,0.9-0.3,1.7-0.1
		c-0.2,0.7-0.6,1.5-0.1,2.2l0.2,0.8c-1.5,0.8-3.4,0.6-3.9-1c0.8-0.2,0.1-0.9-0.5-1l-0.2,0.5c-0.4,0.3,0.4,2,3.1,2.6
		c-0.3,1.3-0.3,1.6,1.2,1.9c0.1,0.7,0.1,1.1,0.7,1.6c0.5-0.3,0.4-0.1,0.6-0.7c0.3-0.4,0.3-0.5,0.4-0.7c0.2-0.2,0.2,0,0.6-0.4
		l0.5-0.3c0.1-0.8,0.2-0.6-0.2-1.4c1.7-0.4,3.3-1,3.3-2.9c-0.8-0.3-0.2-0.2-0.9-0.1c-0.3,1,0.5,1.5-1,2.2c-1,0.5-2,0.3-2.8-0.3
		c0.6-1.4,0.6-1.6,0.1-2.9c0.7-0.1,1-0.1,1.8,0.2c0,0.6-0.9,1.7,0.8,1.4c0.4-0.6,0.2-0.6,0.3-1.4l1.7-0.1c0.7-0.7,1.4-0.7,1.5-2.2
		c0-1-0.6-2-1.5-2.5c-2.8-1.4-3.9,1.1-5,2.2C154.5,84.9,149.2,91.9,154.2,93.7L154.2,93.7z M158.7,95.8c-0.5-0.8-0.1-1,0-1.7
		C158.9,94.5,159.2,95.6,158.7,95.8z M56.4,110.4c0.2,1.1-1.2,1.9-2.1,0.8c-0.7-0.9-0.3-2.1,0.7-2.6c2.9-1.5,3.9,2.1,4.5,2.5
		c0.8-0.5,1-3.1,3.8-2.7c2.2,0.3,2.4,3.4,0.1,3.4c-0.6-0.4-0.9-0.8-0.7-1.5c0.7-0.2,0.8,0.5,1.4,0.2c0.1-0.8-0.5-1-1.2-1.1
		c-1.9,1,0.3,2.5-3.7,2.3c-4-0.1-0.6-1.3-3-2.3c-0.7,0.1-1.1,0.2-1.2,1C55.4,110.7,55.7,110,56.4,110.4L56.4,110.4z M56.2,112.5
		c-0.1,1.9,1.1,1.9,1.2,1c0-0.3-1.1-1.6,1.5-1.1c-0.2,0.8-0.6,1.8,0,2.3v0.7c-1.4,0.6-2.5,0.5-3.6-0.5c-0.2-1.1,0.4-0.4-0.3-1.8
		c-1.2,0.8-0.6,1.3,0.1,2.1c1,1.1,1.2,0.7,2.4,1.1c-0.2,1.2-0.3,1.7,1.2,1.8c0.1,0.8,0,1.1,0.7,1.6c0.6-0.3,0.7-0.7,0.7-1.4
		c1.4-0.6,1.4-0.4,1.3-2c2-0.5,4.3-2.1,2.5-3.2c-0.7,1.4-0.1,0.7-0.3,1.8c-1,1-2.3,1.2-3.6,0.5c0-0.8,0.3-0.7,0.3-1.5
		c0-0.7-0.2-1-0.2-1.6c0.7,0,1.1,0,1.7,0.4c-0.1,0.4-0.7,0.9,0,1.3c1,0.6,1-0.9,0.9-1.4c5.6,0.2,3.1-6.6-1.1-4.7
		c-1.6,0.7-1.4,1.4-2.2,2.1c-0.8-0.8-0.7-1.5-2.2-2.1C53,105.9,50.8,112.8,56.2,112.5z M59.3,114.5v-1.3l0.5,0.2v0.9L59.3,114.5
		L59.3,114.5z M116,54c0,3.2-4.6-0.4-1.4-1.9c2.9-1.3,3.7,1.9,4.5,2.3c0.9-0.4,1.1-3.1,4-2.6c2.3,0.4,2,3.9-0.4,3.3
		c-0.5-0.5-0.6-0.9-0.3-1.6l1.2,0.5c0.3-0.8-0.4-1.1-1.1-1.1c-1.7,0.8,0,2.4-3.4,2.4c-3.3,0-1.6-1.5-3.4-2.4
		c-0.7,0.1-1.2,0.2-1.3,1.1H116L116,54z M113.6,55.9l2.2,0.3c0,0.4-0.2,1.6,0.8,1.4c1-0.3,0.1-0.8,0.4-1.5l1.5-0.2
		c-0.1,0.7-0.6,2,0,2.4l0.1,0.8c-1.6,0.8-2.5,0.5-3.7-0.6c0-0.6,0.2-0.8-0.1-1.5c-0.6,0-0.4-0.1-0.8,0.2c0.2,1.8,1.7,2.4,3.3,2.8
		c-0.4,1.2-0.2,1.7,1.2,1.8c0.1,0.7,0,1.2,0.7,1.6c0.7-0.6,0.6-0.7,0.7-1.6c1.4-0.2,1.5-0.6,1.2-1.8c1.5-0.5,3.5-1.1,3.2-3
		c-1.3-0.2-0.9,0.7-0.8,1.4c-1.1,1.1-2.4,1.4-3.8,0.5c0.4-2,0.4-1,0.1-3.1c2.7,0.1,1.2,0.4,1.5,1.4c0.2,0.8,1.4,0.6,1.1-1.1
		c0.8,0.1,1,0.1,1.8-0.1c2.2-0.9,1.7-3.7-0.1-4.6c-2.6-1.3-3.8,0.9-5,2.2c-1.2-1.2-2.2-3.5-5-2.2c-0.8,0.4-1.4,1.2-1.6,2
		C112.3,54.9,113,54.9,113.6,55.9z M118.8,58.1v-1.3l0.5,0.2C119.3,57.7,119.5,58,118.8,58.1L118.8,58.1z M178.8,111
		c0.3-1.9,2.7-3.7,4.6-2.4c0.9,0.6,1,2.1,0.1,2.7c-1,0.8-2.4,0.1-1.8-1.2l1.3,0.5c0.5-1.2-0.6-1.6-1.5-1.1c-1,0.5-0.4,1.2-0.8,2
		c-0.8,0.2-3.8,0.2-4.6,0c-0.3-0.7,0.1-0.8-0.4-1.7c-1.3-0.9-2.6-0.2-1.8,0.8l1.1-0.7c1.7,3.3-4.4,1.3-1.6-1.2
		c1.7-1.5,4.4,0.4,4.7,2.3l0.3,0.5L178.8,111L178.8,111z M173.8,112.5l1.3-0.1c0.1,0.5-0.2,0.7,0.2,1.3c0.3,0.4,0.9,0.3,1-0.2
		c0.4-1.1-0.7-0.4-0.1-1.1c0.4-0.4,1.1-0.3,1.6-0.2c-0.1,0.9-0.6,2,0.3,2.7c-0.8,0.9-1.9,1-3,0.4c-1.9-0.9,0.3-2.2-1.6-2.2l-0.2,0.9
		c1.7,1.7,1,1.4,3.3,2.1c-0.3,1.2-0.2,1.7,1.2,1.8c0.1,0.7,0,1.1,0.7,1.6c0.7-0.6,0.6-0.7,0.7-1.6c1.5-0.2,1.4-0.6,1.2-1.9
		c2.1-0.7,1.8-0.4,3.3-2.1l-0.3-1c-1.9,0.7,0.5,1.2-1.3,2.2c-1.1,0.6-1.9,0.4-2.9,0c0-1.7,0.6,0.3,0-3.2c2.8,0.1,1.4,0.4,1.5,1.2
		c0.1,0.5,0.5,0.8,1,0.4c0.6-0.5,0.2-0.8,0.4-1.4l1.5,0.1c0.8-0.7,1.6-0.9,1.6-2.2c0.1-1-0.5-2-1.4-2.5c-2.6-1.5-3.9,0.9-5.1,2.1
		c-0.8-0.7-0.5-1.3-1.9-2C173.1,106,169.8,110.5,173.8,112.5L173.8,112.5z M178.3,114.5v-1.3c0.6,0.3,0.5,0,0.5,1.1L178.3,114.5z
		 M74.8,91.6l1.4-0.3c0.2,0.8,0,1.1-0.5,1.6c-2.4,0.4-2.5-3.1-0.1-3.3c3-0.3,3,2.4,3.8,2.8c0.9-0.8,0.9-3.1,3.7-2.8
		c2.3,0.2,2.6,3.5,0.1,3.4c-0.6-0.4-0.9-0.7-0.7-1.4l1.6,0.1c-0.1-0.9-0.6-1.1-1.4-1.1c-2.4,1.4,1.6,2.3-4.2,2.4
		C76.5,92.9,76.2,88.2,74.8,91.6L74.8,91.6z M73.8,93.4c1.3,0.3,0.9,0.3,2.3,0.3c0,0.6-0.1,0.8,0.2,1.4l0.9,0.1
		c0.6-1.1-0.1-0.5,0-1.4c0.8-0.4,0.8-0.4,1.6-0.2c0.1,0.7-0.6,1.8,0.1,2.4c0,1.6-2.3,1-2.7,0.8c-1.6-0.7-0.6-1.2-1.1-2.1
		c-0.8-0.2-0.1-0.2-0.9,0c0,2,1.9,2.6,3.3,2.9c-0.3,0.8-0.3,0.6-0.2,1.4l0.5,0.2c0.5,0.5,0.2,0.1,0.6,0.4c0.2,0.2,0.1,0.2,0.3,0.6
		l0.4,0.8c0.9-0.2,0.8-0.8,0.9-1.5c1.2-0.3,1.7-0.7,1.1-1.9c1.1-0.2,1.5-0.1,2.4-1c1.2-1.2,1-0.9,0.7-2.1l-0.6,0.2
		c-0.4,1.2,0.7,1.3-0.9,2c-1.1,0.5-1.8,0.4-2.8-0.2c0.4-1.9,0.4-1.1,0.1-3.1l1.6,0.2c0,1.1-0.6,0.4-0.1,1.5c1.6,0.4,0.8-0.8,1.3-1.4
		l1.1,0.1c5.1-2.4-0.9-8.5-4.6-2.6c-1.1-0.9-1.8-3.4-4.8-2.3c-0.7,0.3-1.6,1.2-1.7,1.9C72.6,92.2,73.2,92.5,73.8,93.4z M79.2,95.8
		v-1.6c0.3,0.2,0.6,0.1,0.5,0.9C79.6,95.7,79.5,95.6,79.2,95.8z M68.8,45.9l-1.4,0.2c0.1,0.5,1.6,1.7,2.1,3.6
		c1.1-2.4,0.4-1.4,2.2-3.4c-0.7-0.4-0.8-0.3-1.5-0.5C70,45.1,70,44.4,69.4,44C68.9,44.7,68.9,45.2,68.8,45.9z M176.3,130.8
		c0.5,1.2,1.3,1.6,1.9,3.5c0.9-1.6,0.5-2.1,2.3-3.3c-0.5-0.6-0.8-0.4-1.5-0.5c-0.1-0.8-0.1-1.4-0.7-2c-0.5,0.6-0.6,1.1-0.7,2
		L176.3,130.8z M227.5,102.3c-0.7,0.1-0.9,0-1.5,0.5c1.7,2,1.1,1,2.2,3.5c0.7-2.9,1.9-2.8,2-3.6l-1.4-0.3c-0.1-0.8-0.2-1.3-0.7-2
		C227.6,101,227.6,101.4,227.5,102.3L227.5,102.3z M146.7,140.3c1.8,1.9,1.1,1.4,2.1,3.2c0.3-0.6,0.4-1.3,0.8-1.9
		c0.5-0.7,0.9-0.7,1.2-1.4c-0.6-0.4-0.6-0.3-1.4-0.3c-0.1-0.8-0.2-1.4-0.7-2c-0.6,0.6-0.6,1.2-0.7,2.1
		C147.2,140,147.3,139.9,146.7,140.3L146.7,140.3z M168,45.9c-0.8,0.1-0.9,0-1.5,0.5c0.4,0.5,1,0.8,1.4,1.4c0.5,0.8,0.5,1.4,0.8,2
		c0.5-1.8,2-3.3,2-3.5c-0.6-0.3-0.7-0.3-1.4-0.3c-0.1-0.7-0.2-1.4-0.7-2.1C168.1,44.6,168.1,45,168,45.9L168,45.9z M9.2,64.8
		c-0.7,0-0.6-0.1-1.3,0.3c0.1,0.5,1.5,1.5,2,3.5c0.3-0.6,0.4-1.2,0.9-2c0.3-0.5,1.1-1.1,1.3-1.5c-0.6-0.4-0.7-0.3-1.4-0.4
		c-0.1-0.7-0.1-1.5-0.7-2C9.9,62.7,9.2,64.8,9.2,64.8z M39,36.6c-0.7,0-0.7-0.1-1.3,0.3c0.2,0.5,1,1,1.3,1.6c0.4,0.7,0.5,1.4,0.8,2
		c0.6-2.3,1.9-3,2-3.5c-0.6-0.4-0.7-0.3-1.4-0.4c-0.1-0.7-0.1-1.6-0.7-2C39.7,34.5,39,36.6,39,36.6z M177.7,93l-1.4,0.2
		c0.5,1.2,0.9,0.4,2,3.7c0.7-2.5,1.8-2.7,2.2-3.6c-0.6-0.3-0.7-0.3-1.4-0.3c-0.1-0.8-0.2-1.4-0.7-2C177.8,91.6,177.8,92.1,177.7,93z
		 M227.5,8.3c-0.7,0.1-0.8,0-1.4,0.4c0.1,0.3,1.5,1.4,2,3.5c0.2-0.6,0.5-1.4,0.8-2c0.4-0.7,1.1-1.1,1.3-1.6
		c-0.6-0.4-0.6-0.3-1.4-0.3l-0.5-2.1C227.5,6.9,227.5,7.4,227.5,8.3L227.5,8.3z M78.7,36.5c-0.7,0.1-0.8,0-1.4,0.3
		c0.2,0.6,1.5,1.2,2,3.5c0.3-0.6,0.4-1.3,0.8-2s1.1-1.1,1.3-1.6c-0.6-0.4-0.7-0.3-1.3-0.3l-0.6-2.1C78.8,35.1,78.8,35.7,78.7,36.5z
		 M119.3,115.1c0.3-2,1.4-2,1.9-3.1c-0.7-0.4-0.6-0.3-1.5-0.3c-0.1-0.9-0.1-1.3-0.7-2c-0.6,0.8-0.5,1.2-0.7,2.1
		c-0.8,0-0.7-0.1-1.4,0.3c0,0.3,1.6,1.5,1.9,3.1l0.1,0.6L119.3,115.1z M8.1,83.6L7.9,84c1.4,1.1,1.6,1.8,2.2,3.5
		c0.1-0.8,0.4-1.8,1-2.2c0.2-0.9,0.5-0.7,1.1-1.4c-0.7-0.5-0.8-0.2-1.5-0.6c0-0.7-0.1-1.3-0.6-1.8c-0.6,0.8-0.5,1.2-0.7,2.1
		C9.2,83.6,8.1,83.6,8.1,83.6z M68.7,64.8c-0.7,0-0.6-0.1-1.3,0.3c0.1,0.4,1.5,1.6,2,3.5c0.3-0.6,0.4-1.2,0.8-2
		c0.3-0.5,1.2-1.1,1.3-1.5c-0.6-0.5-0.6-0.3-1.4-0.4c-0.1-0.8-0.1-1.5-0.7-2C69.4,62.7,68.7,64.8,68.7,64.8z M188.8,105.3
		c0.4-1.6,1.5-2,1.7-2.6c-0.8-0.5-0.7-0.2-1.4-0.5c-0.1-0.8-0.1-1.2-0.6-1.9c-0.5,1-0.5,0.9-0.7,2.1c-0.9,0.1-0.7-0.1-1.4,0.4
		c1.5,1.4,1.5,1.4,2.2,3.4L188.8,105.3z M168,26.9c-0.8,0.5-0.6,0.1-1.5,0.6c0.5,0.8,1.4,0.7,2.1,3.5c1.3-3.7,1.6-2.4,2.1-3.6
		c-0.8-0.5-0.7-0.2-1.4-0.4l-0.5-2C168.1,25.7,168.1,26,168,26.9L168,26.9z M68.7,27.1c-0.7,0.2-0.6-0.1-1.3,0.4
		c0.5,1.2,0.9,0,2.1,3.6c0.6-2.8,1.5-2.6,2.1-3.5c-0.7-0.5-0.6-0.3-1.5-0.4c-0.1-0.9-0.1-1.5-0.8-2.1C69.4,25.1,68.7,27.1,68.7,27.1
		z M227.5,45.9c-0.7,0.1-0.9,0-1.5,0.5c0.5,0.5,0.9,0.7,1.3,1.4c0.4,0.6,0.5,1.5,0.8,2.1c0.4-2,1.9-3.2,2-3.6l-1.4-0.3
		c-0.1-0.7-0.3-1.4-0.7-2C227.6,44.5,227.6,45.1,227.5,45.9z M128.2,121.2l-1.3,0.2c0.2,0.7,1.6,1.5,2,3.6c0.3-0.6,0.4-1.2,0.9-1.9
		c0.3-0.5,1.1-1.1,1.3-1.5c-0.7-0.5-0.6-0.3-1.4-0.4c-0.1-0.8-0.1-1.5-0.7-2L128.2,121.2L128.2,121.2z M89.6,87
		c0.1-1.8,1.2-1.9,1.8-3.1L90,83.5c-0.1-0.9-0.1-1.3-0.7-2c-0.6,0.8-0.5,1.2-0.7,2.1c-0.8,0-0.7-0.1-1.4,0.3c0,0.5,1.8,1.5,1.8,3.1
		l0.2,0.6C89.2,87.6,89.6,87,89.6,87z M108.5,26.9c-0.8,0.5-0.6,0-1.5,0.6c0.3,0.4,0.9,0.7,1.3,1.4c0.5,0.8,0.6,1.3,0.8,2.1
		c1.4-3.8,1.5-2.3,2.2-3.6c-0.7-0.5-0.6-0.4-1.4-0.3l-0.6-2.1C108.6,25.7,108.6,26.1,108.5,26.9z M138.8,58.8c0.2-2,1.5-2.1,2-3.1
		c-0.9-0.6-0.7-0.2-1.4-0.4c-0.1-0.9-0.1-1.2-0.6-2c-0.6,0.6-0.6,1.2-0.7,2c-0.8,0.1-0.8-0.1-1.4,0.4c0.6,1,1.7,1.6,1.7,3.1l0.2,0.5
		C138.5,59.3,138.8,58.8,138.8,58.8z M98.3,93L97,93.2c0.3,1.1,1,0.6,1.9,3.7c1.6-4.1,1.9-2.4,2.3-3.5c-0.7-0.4-0.6-0.3-1.4-0.4
		c-0.1-0.8-0.1-1.6-0.7-2C98.5,91.6,98.5,92.2,98.3,93z M58.7,93c-0.8,0-0.7-0.1-1.4,0.3c0.2,0.5,0.8,1,1.1,1.6
		c0.4,0.6,0.6,1.4,0.8,2c0.6-2.5,1.9-2.8,2.2-3.6L60,93c-0.1-0.8-0.1-1.4-0.7-2C58.8,91.6,58.8,92.1,58.7,93z M177.7,17.7l-1.4,0.2
		c0,0.7,0.6,0.8,1,1.5c0.4,0.6,0.6,1.3,0.8,2c1.1-2,0.2-1.6,2.3-3.3c-0.5-0.5-0.7-0.4-1.5-0.5c-0.1-0.9-0.1-1.4-0.7-2
		C177.8,16.4,177.8,16.9,177.7,17.7z M57.6,130.6l-0.4,0.4c1.3,1.4,1.4,1.6,2,3.4c0.3-0.6,0.5-2.1,1.2-2.3c0.5-0.9,0.5-0.5,1.1-1.1
		c-0.7-0.6-0.5-0.4-1.5-0.4c-0.1-0.9-0.1-1.3-0.7-2c-0.6,0.9-0.4,1.3-0.8,2.1L57.6,130.6z M217.3,55.4c-0.8,0-0.7-0.1-1.4,0.3
		c0.2,0.5,0.9,1,1.2,1.6c0.4,0.7,0.6,1.5,0.8,1.9c0.2-0.6,0.4-1.4,0.8-2c0.4-0.6,1.2-0.9,1.4-1.4c-0.8-0.6-0.7-0.1-1.5-0.6
		c-0.1-0.7-0.2-1.4-0.7-1.7C217.5,54,217.5,54.7,217.3,55.4z M9.2,27.2c-0.8,0-0.7-0.1-1.3,0.3c0.2,0.4,0.9,0.9,1.3,1.5
		c0.4,0.6,0.6,1.4,0.8,2.1c1-3.4,1.3-2.4,2.1-3.5c-0.8-0.6-0.7-0.1-1.5-0.6c-0.1-0.8-0.2-1.3-0.7-1.8L9.2,27.2z M19,17.7
		c-0.8,0.2-0.7-0.1-1.4,0.4c0.1,0.5,0.7,0.9,1,1.3c0.4,0.6,0.6,1.4,0.9,1.9c0.4-0.5,0.5-1.2,0.9-1.7c0.5-0.8,1-0.8,1.4-1.4
		c-0.5-0.6-0.5-0.3-1.3-0.5c-0.3-0.7-0.2-1.4-0.7-1.9C19.2,16.2,19.2,17,19,17.7z M149.1,30.6c0.1-1.9,1.2-2,1.8-3.1l-1.4-0.5
		c-0.2-0.7-0.1-1.3-0.7-1.9c-0.6,0.5-0.5,1.3-0.7,2l-1.4,0.2c0.1,0.7,1.8,1.5,1.8,3.3l0.2,0.5L149.1,30.6z M69.9,82.8
		c0-0.6,0-0.8-0.5-1.3c-0.5,0.8-0.5,1.2-0.7,2.1c-0.8,0-0.7-0.1-1.3,0.3c0.6,1.2,1.5,1.1,2,3.4c1-1.3,0.5-2,2.3-3.3l-0.5-0.4
		c-0.6-0.3,0.1-0.2-0.9-0.2C70.3,83.5,69.9,82.8,69.9,82.8z M208.5,30.6c0.1-1.9,1.4-2.1,1.8-3.1c-0.7-0.4-0.6-0.3-1.4-0.3
		c-0.1-0.8-0.1-1.3-0.7-2c-0.6,0.7-0.5,1.2-0.7,2.1c-0.8,0-0.7-0.1-1.4,0.3c0.9,0.9,1.9,1.7,1.8,3.1l0.2,0.5
		C208.2,31.2,208.5,30.6,208.5,30.6z M149,49.4c0.1-1.5,1-2.2,1.9-3.1c-0.7-0.5-0.6-0.4-1.5-0.4c-0.1-0.9-0.2-1.4-0.7-2
		c-0.6,0.7-0.6,1.1-0.7,2c-0.9,0.1-0.8-0.1-1.5,0.4c0.9,1,1.7,1.3,1.9,3.1l0.2,0.5L149,49.4z M49,64.7l-1.4,0.2
		c0.2,0.7,0.8,0.9,1.3,1.7c0.4,0.7,0.5,1.4,0.9,1.9c0.4-1.9,1.9-2.9,2-3.5l-1.4-0.3l-0.6-2.1C49.1,63.3,49.1,63.9,49,64.7z
		 M227.5,64.7c-0.7,0.1-0.9,0-1.4,0.4c0.1,0.4,0.9,0.9,1.2,1.4c0.5,0.8,0.6,1.5,0.9,2.1c0.4-2.2,1.7-2.6,2-3.5l-1.4-0.3l-0.6-2.1
		C227.6,63.3,227.5,63.9,227.5,64.7L227.5,64.7z M168,102.3l-1.5,0.3c0.2,0.6,1,1.1,1.3,1.6c0.4,0.6,0.6,1.4,0.8,2
		c1-3.2,1.8-2.6,2.1-3.6c-0.6-0.3-0.7-0.3-1.4-0.3c-0.2-0.9-0.2-1.3-0.7-2.1C168.1,100.9,168,101.5,168,102.3z M89.6,30.6
		c0-1.8,1.3-2,1.8-3.2L90,27.1c-0.1-0.8-0.1-1.3-0.7-2c-0.6,0.7-0.5,1.2-0.7,2.1c-0.8,0-0.7-0.1-1.4,0.4c0.9,1,1.9,1.5,1.8,3.1
		l0.2,0.5C89.3,31.2,89.6,30.6,89.6,30.6z M227.5,121.1c-0.7,0.1-0.9,0-1.4,0.3c0.4,1.1,0.9-0.2,2.1,3.6c1-3.4,1.8-2.6,2.1-3.6
		c-0.7-0.4-0.6-0.3-1.4-0.3l-0.5-2.1C227.6,119.7,227.5,120.3,227.5,121.1L227.5,121.1z M227.5,26.9c-0.8,0.5-0.6,0-1.5,0.6
		c0.7,0.9,1.3,0.5,2.1,3.5c1-3.3,1.5-2.4,2.1-3.6c-0.8-0.6-0.7-0.2-1.5-0.4l-0.5-2C227.6,25.7,227.6,26.1,227.5,26.9z M128.3,102.4
		c-0.9,0-0.8-0.1-1.4,0.4c1.6,1.7,1.3,1.1,2.1,3.5c0.3-0.7,0.4-1.4,0.8-2.1c0.3-0.5,1.2-1,1.3-1.5l-1.4-0.4c-0.1-0.9-0.1-1.3-0.7-2
		C128.6,100.9,128.4,101.6,128.3,102.4L128.3,102.4z M58.7,55.4c-0.7,0-0.7-0.1-1.4,0.2c0.6,1.3,0.7,0.1,1.9,3.5
		c0.3-0.6,0.4-1.3,0.8-2c0.5-0.8,0.8-0.7,1.4-1.4c-0.5-0.4-0.9-0.4-1.4-0.5c-0.1-0.8-0.1-1.4-0.7-1.9C58.8,54,58.8,54.6,58.7,55.4z
		 M197.7,74.1c-0.7,0.1-0.9,0-1.5,0.5c1.7,1.8,1.2,1.2,2.1,3.5c1-3.3,1.8-2.6,2.1-3.6l-1.4-0.3l-0.6-2.1
		C197.9,72.7,197.8,73.3,197.7,74.1z M89.5,49.4c0.3-1.7,0.9-2,1.9-3c-0.7-0.5-0.5-0.4-1.5-0.4c-0.1-0.9-0.1-1.3-0.7-2
		c-0.6,0.8-0.6,1.1-0.7,2c-0.7,0-0.9,0-1.5,0.5c1.1,0.9,1.7,1.6,2,3l0.1,0.5C89.2,49.9,89.5,49.4,89.5,49.4z M67.4,140.2
		c0.4,1,1.3,0.6,2.1,3.6c0.3-0.6,0.5-1.4,0.9-2.1c0.3-0.6,1-0.9,1.3-1.4c-0.8-0.6-0.7-0.1-1.5-0.6c-0.1-0.8-0.2-1.3-0.8-1.8
		l-0.6,2.1L67.4,140.2L67.4,140.2z M28,140l-0.2,0.4c1,0.9,1.7,1.5,1.8,3l0.3,0.6l0.2-0.6c0.2-1.9,1.4-2,1.9-3.1
		c-0.5-0.3-0.9-0.3-1.4-0.3l-0.4-1.9c-1.1,0.2-0.6,1.2-1.1,2L28,140z M9.3,102.4c-0.8,0-0.8-0.1-1.4,0.4c1.3,1.5,1.5,1.3,2.1,3.5
		c0.3-0.7,0.4-1.4,0.8-2c0.3-0.5,1.2-1.1,1.3-1.5l-1.5-0.4c0-0.9-0.1-1.3-0.6-2C9.5,100.9,9.4,101.5,9.3,102.4z M37.8,111.8
		l-0.3,0.4c1.4,1,1.7,1.7,2.2,3.3c0.4-0.9,0.7-2.6,1.7-2.9l0.4-0.6c-0.7-0.5-0.6-0.4-1.5-0.3c-0.1-0.8-0.1-1.5-0.7-2.1
		c-0.6,0.9-0.4,1.6-0.9,2.1L37.8,111.8L37.8,111.8z M149.1,86.9c0.2-1.2,1-2.2,1.9-2.9c-0.6-0.4-0.7-0.4-1.5-0.4
		c-0.1-0.9-0.1-1.3-0.7-2c-0.6,0.8-0.5,1.2-0.7,2.1c-0.8,0-0.7-0.1-1.4,0.3c0,0.3,1.6,1.4,1.8,3l0.2,0.5L149.1,86.9z M98.3,17.5
		c-0.6,0.4-0.5,0-1.3,0.5c0.1,0.5,0.8,1,1.1,1.5c0.5,0.8,0.5,1.3,0.8,2c0.8-2.3,0.6-1.8,2.3-3.4c-0.6-0.4-0.8-0.4-1.5-0.5
		c-0.1-0.8-0.1-1.5-0.7-2L98.3,17.5z M108.5,8.3c-0.7,0.1-0.8-0.1-1.4,0.4c0.1,0.4,0.9,0.9,1.2,1.4c0.5,0.7,0.6,1.5,0.9,2.1
		c0.5-2.2,1.8-2.8,2-3.5l-1.5-0.3l-0.5-2C108.6,6.8,108.6,7.5,108.5,8.3z M9.2,8.4c-0.6,0-0.7-0.1-1.3,0.3C8,9.2,8.7,9.6,9.2,10.3
		c0.3,0.6,0.6,1.4,0.8,2c0.8-3.2,1.8-2.6,2-3.5c-0.6-0.4-0.7-0.3-1.4-0.4c-0.1-0.8-0.1-1.6-0.8-2L9.2,8.4z M49,45.9
		c-0.7,0.1-0.9,0-1.5,0.5c1.3,1.5,1.5,1.1,2.1,3.4c0.3-0.5,0.5-1.3,0.9-2c0.3-0.6,1.2-1.1,1.3-1.6l-1.4-0.3c-0.1-0.8-0.2-1.3-0.7-2
		C49.1,44.6,49.1,45.1,49,45.9z M30,49.4c0.3-1.7,1-2,2-3c-0.7-0.5-0.5-0.4-1.5-0.4c-0.1-0.9-0.1-1.4-0.7-2c-0.5,0.6-0.6,1.1-0.7,2
		c-0.9,0-0.8-0.1-1.5,0.4c1,1.1,1.7,1.3,1.9,3.1l0.2,0.5L30,49.4z M89.5,105.8c0.2-1.6,0.9-2,2-3c-0.6-0.5-0.8-0.4-1.5-0.5
		c-0.1-0.9-0.1-1.3-0.7-2c-0.5,0.7-0.6,1.2-0.7,2c-0.9,0-0.8-0.1-1.5,0.4c0.9,1,1.7,1.5,1.9,3l0.1,0.6
		C89.2,106.3,89.5,105.8,89.5,105.8z M7.9,140.2c0.6,1,1.3,0.7,2.2,3.6c0.7-2.8,1.6-2.7,2.1-3.5c-0.8-0.6-0.7-0.1-1.5-0.6
		c-0.1-0.8-0.1-1.3-0.8-1.8L9.2,140L7.9,140.2z M149,105.8c0.2-1.6,1-2,1.9-3c-0.7-0.5-0.5-0.4-1.5-0.4c-0.1-0.9-0.1-1.3-0.7-2
		c-0.5,0.7-0.6,1.2-0.7,2c-0.7,0-0.9,0-1.5,0.5c1.1,1,1.8,1.4,2,3l0.1,0.6C148.7,106.3,149,105.8,149,105.8z M208.5,87
		c0.1-1.8,1.3-2,1.9-3.1c-0.7-0.4-0.6-0.3-1.4-0.3c-0.1-0.9-0.1-1.4-0.7-2.1c-0.6,0.7-0.5,1.1-0.7,2.1l-1.4,0.1
		c0.5,1.2,1.8,1.5,1.8,3.3l0.2,0.6L208.5,87L208.5,87z M158,74.2c-0.9,0-0.8-0.1-1.5,0.4c1.2,1.1,1.7,1.6,2.1,3.4
		c0.4-0.6,0.5-1.3,0.9-2c0.4-0.6,0.9-0.9,1.4-1.4c-0.8-0.5-0.7-0.2-1.5-0.5c-0.1-0.7-0.1-1.4-0.7-1.8
		C158.2,72.9,158.1,73.3,158,74.2z M168,83.6c-0.8,0.1-0.8-0.1-1.5,0.3c0.5,0.8,1.3,0.6,2.1,3.6c0.7-2.8,1.6-2.6,2.1-3.6
		c-0.6-0.4-0.6-0.4-1.3-0.3l-0.6-2.2C168,82.1,168.1,82.6,168,83.6z M177.6,55.4c-0.8,0-0.7-0.1-1.3,0.2c0.5,1.1,0.9,0.5,1.9,3.5
		c0.3-0.7,0.4-1.2,0.8-2.1c0.6-1,0.8-0.6,1.4-1.4c-0.5-0.4-0.9-0.4-1.4-0.4c-0.1-0.8-0.1-1.4-0.7-2
		C177.7,54.1,177.8,54.5,177.6,55.4z M126.9,140.2c0.5,1.2,1.2,0.5,2.1,3.7c0.2-0.8,0.4-1.5,0.8-2.2c0.3-0.6,1-0.9,1.3-1.4
		c-0.8-0.6-0.7-0.2-1.5-0.6c-0.1-0.8-0.1-1.3-0.8-1.9l-0.6,2.1L126.9,140.2L126.9,140.2z M157.9,111.8c-0.8,0-0.7-0.1-1.3,0.3
		c0.5,0.8,1.5,1,2.1,3.6c0.7-2.9,1.5-2.6,2.1-3.5c-0.7-0.6-0.6-0.2-1.5-0.5c-0.1-0.8-0.1-1.4-0.7-1.9L157.9,111.8z M170.6,140.1
		l-1.3-0.1l-0.2-1.3c-0.3-0.5-0.1-0.5-0.6-0.7c-0.4,0.8-0.5,1.1-0.6,2c-0.8,0.1-0.8-0.1-1.5,0.4c0.3,0.5,0.8,0.6,1.3,1.5
		c0.3,0.6,0.5,1.4,0.8,2c0.2-0.8,0.4-1.5,0.9-2.2C170,140.9,170.7,140.7,170.6,140.1L170.6,140.1z M49,8.3l-1.4,0.2
		c0.4,1.1,0.4,0.3,1.3,1.7c0.4,0.7,0.5,1.4,0.9,2c0.4-2,1.9-3,2-3.5l-1.4-0.4l-0.5-2C49.1,6.8,49.1,7.5,49,8.3z M197.7,36.5
		c-0.7,0.1-0.8-0.1-1.4,0.4c0.3,0.8,1.3,0.4,2,3.5c0.3-0.6,0.4-1.4,0.8-2c0.3-0.6,1.2-1.1,1.3-1.6c-0.7-0.4-0.6-0.3-1.4-0.3
		l-0.5-2.1C197.8,35,197.8,35.7,197.7,36.5z M187.7,8.4l-1.3,0.2c0.1,0.4,1.6,1.8,2,3.6c0.5-0.8,0.4-1.6,1.5-2.7l0.6-0.9l-1.4-0.2
		c-0.1-0.9-0.1-1.6-0.8-2C188.3,6.3,187.7,8.4,187.7,8.4z M68.8,102.4c-0.6,0-0.8,0-1.4,0.3c0.2,0.8,1.2,0.6,2.1,3.6
		c0.3-0.7,0.4-1.4,0.8-2.1c0.3-0.5,1.1-1,1.3-1.5l-1.5-0.4c-0.1-0.8-0.1-1.3-0.7-2C69,101,68.9,101.5,68.8,102.4z M19,55.4
		c-0.8,0.1-0.8-0.1-1.4,0.4c0.2,0.5,0.8,0.9,1.1,1.3c0.4,0.6,0.4,1.2,0.9,1.7c0.4-0.5,0.4-1.1,0.9-1.7c0.4-0.5,1.1-0.8,1.4-1.3
		c-0.8-0.7-0.5-0.1-1.4-0.5c-0.1-0.7-0.1-1.3-0.6-1.9C19,54,19.2,54.5,19,55.4z M138.7,96.4c0.3-2.3,1.8-2.4,2-3.2l-1.4-0.3
		c-0.1-0.8-0.2-1.4-0.7-2c-0.6,0.6-0.6,1.2-0.7,2c-0.7,0.1-0.8,0-1.4,0.4c0.3,0.9,1.6,1.3,1.7,3.2l0.1,0.5
		C138.5,97,138.7,96.4,138.7,96.4z M68.7,8.4l-1.3,0.2c0.2,1.1,1.1,0.4,2.1,3.7c0.2-0.8,0.3-1.3,0.8-2.1c0.3-0.5,1.2-1.1,1.3-1.5
		C71,8.2,71,8.4,70.2,8.3c-0.1-0.8-0.1-1.6-0.8-2C69.4,6.3,68.7,8.4,68.7,8.4z M186.3,27.4c0.3,0.7,0.9,0.8,1.4,1.7
		c0.4,0.6,0.6,1.3,0.8,2c0.2-0.8,0.3-1.7,1-2.2c0.1-0.9,0.5-0.7,1.1-1.3l-1-0.4c-0.1,0-0.1,0-0.2-0.1l-0.3-0.1
		c-0.1-0.8-0.1-1.2-0.7-1.8c-0.5,0.7-0.5,1.2-0.7,2.1L186.3,27.4L186.3,27.4z M49,83.6c-0.8,0.1-0.8-0.1-1.5,0.3
		c0.4,0.6,0.8,0.6,1.3,1.4c0.4,0.7,0.5,1.4,1,1.9c0.5-2.3,1-2,2-3.4c-0.5-0.3-0.9-0.3-1.5-0.3l-0.5-2.1C49,82.2,49.1,82.6,49,83.6z
		 M128.2,8.4l-1.3,0.2c0.2,1,1.1,0.4,2,3.6c0.3-0.6,0.4-1.3,0.8-2c0.3-0.6,1.2-1.1,1.3-1.5c-0.6-0.4-0.7-0.3-1.4-0.3
		c-0.1-0.7-0.1-1.6-0.8-2L128.2,8.4z M108.5,83.3c-0.8,0.5-0.6,0-1.5,0.6c0.3,0.5,0.8,0.7,1.3,1.4c0.4,0.7,0.6,1.4,1,2
		c0.4-2.2,0.9-2,2-3.4c-0.9-0.5-0.7-0.2-1.5-0.4l-0.5-2C108.6,82.1,108.6,82.5,108.5,83.3L108.5,83.3z M207.8,101.6l-0.2,0.8
		c-0.9,0-0.8-0.1-1.5,0.4c0.9,1,1.7,1.4,1.9,3l0.1,0.6l0.3-0.5l0.4-1.1c0.7-1.8,1.3-1,1.4-2.2l-1.4-0.1c-0.1-0.9-0.1-1.3-0.8-2.1
		L207.8,101.6L207.8,101.6z M107,140.3c0.3,0.5,1,0.9,1.4,1.6c0.3,0.6,0.6,1.5,0.8,1.9c1.1-3.4,1.5-2.3,2.1-3.5
		c-0.6-0.4-0.6-0.4-1.3-0.3l-0.6-2.1c-0.6,0.5-0.7,1.2-0.8,2C108.5,139.9,107,140.3,107,140.3z M48.9,27.1c-0.7,0.1-0.7-0.1-1.4,0.4
		c0.5,0.8,1.5,0.9,2.1,3.5c1-3.2,1.6-2.6,2.2-3.6c-0.6-0.4-0.7-0.3-1.4-0.4c-0.1-0.9-0.1-1.3-0.7-2.1C49.6,25.1,48.9,27.1,48.9,27.1
		z M206.2,140.3c2.4,2.9,1.1,1.8,2.1,3.3c0.3-0.5,0.5-1.3,0.9-1.9c0.4-0.6,0.9-0.8,1.2-1.4c-0.7-0.5-0.6-0.3-1.4-0.4
		c-0.1-0.8-0.1-1.4-0.7-2c-0.6,0.6-0.5,1.2-0.7,2C206.8,140,206.9,139.8,206.2,140.3L206.2,140.3z M186.3,140.6
		c1.3,0.4,1.7,2,2.1,3.2c0.3-0.6,0.4-1.4,0.9-2.2c0.5-0.7,1.2-0.9,1.2-1.5l-1.4-0.2c-0.1-0.9-0.1-1.4-0.7-2
		c-0.5,0.8-0.5,1.3-0.7,2.1C186.9,140,186.5,139.8,186.3,140.6L186.3,140.6z M108.5,102.2l-1.5,0.4c0.1,0.6,0.9,1,1.3,1.6
		s0.6,1.4,0.8,2c0.2-0.7,0.4-1.4,0.8-2c0.3-0.6,1.2-1.1,1.3-1.5l-1.4-0.3l-0.6-2.1C108.6,100.9,108.6,101.4,108.5,102.2z
		 M47.5,140.3c0.4,0.6,0.9,0.7,1.4,1.6c0.3,0.6,0.6,1.6,0.8,1.9c1.3-3.8,1.5-2.2,2.1-3.5c-0.6-0.4-0.6-0.4-1.3-0.3l-0.7-2.1
		c-0.7,0.5-0.7,1.2-0.8,2L47.5,140.3L47.5,140.3z M128.3,45.9c-0.8,0-0.7-0.1-1.4,0.4c1.5,1.7,1.4,1.1,2.1,3.5
		c0.3-0.6,0.4-1.3,0.7-1.9c0.4-0.8,0.9-0.9,1.4-1.5c-0.9-0.6-0.7-0.2-1.5-0.6l-0.5-1.9C128.5,44.6,128.4,45.1,128.3,45.9z
		 M29.1,83.6c-0.8,0-0.8-0.2-1.4,0.4c0.4,0.5,0.9,0.7,1.3,1.3c0.4,0.6,0.6,1.4,0.9,1.9c0.3-0.5,0.4-1.2,0.8-1.8c0.4-0.7,1-1,1.3-1.6
		l-1.4-0.4c-0.1-0.8-0.1-1.3-0.7-1.9C29.2,82.2,29.3,82.7,29.1,83.6z M30.1,30.6c0-1.7,1.3-2.1,1.8-3.2l-1.4-0.3
		c-0.1-0.8-0.1-1.4-0.7-1.9c-0.5,0.6-0.6,1.2-0.7,2.1c-0.8,0-0.7-0.1-1.4,0.2c0.4,1,1.8,1.4,1.8,3.2l0.2,0.5
		C29.7,31.2,30.1,30.6,30.1,30.6z M187.7,64.8l-1.3,0.2c0.1,0.6,1.5,1.6,2,3.6c0.6-0.9,0.3-1.5,1.5-2.7l0.5-0.7c0,0,0-0.1,0.1-0.2
		l-1.4-0.3c-0.1-0.8-0.1-1.5-0.7-2L187.7,64.8L187.7,64.8z M187.7,45.9c-0.9,0-0.8-0.1-1.4,0.4c1.4,1.5,1.5,1.2,2.1,3.4
		c0.3-0.7,0.4-1.3,0.8-2c0.3-0.5,1.1-1.1,1.3-1.5l-1.4-0.4c-0.1-0.8-0.1-1.5-0.7-1.9C188,44.6,187.9,45.3,187.7,45.9L187.7,45.9z
		 M157.9,36.6l-1.3,0.2c0.2,0.6,0.9,0.9,1.3,1.7c0.4,0.7,0.5,1.3,0.8,1.9c0.9-3.2,1.8-2.6,2-3.5c-0.6-0.4-0.7-0.3-1.4-0.4
		c-0.1-0.7-0.2-1.5-0.7-2L157.9,36.6z M129.5,82.8c-0.1-0.6-0.1-0.8-0.5-1.3c-0.5,0.7-0.5,1.1-0.6,2c-0.7,0.2-0.6-0.1-1.4,0.4
		c0.9,1.4,1.5,1,2,3.4l0.1-0.2c0.1,0.1,0.4-1.7,2.2-3.1l-0.4-0.4c-0.6-0.3,0.1-0.3-0.9-0.2L129.5,82.8L129.5,82.8z M30,105.8
		c0.2-1.7,1-2,1.9-3c-0.7-0.6-0.5-0.4-1.5-0.4c-0.1-0.9-0.2-1.3-0.7-2c-0.6,0.7-0.6,1.1-0.7,2l-1.4,0.1c0.1,1,1.6,1.1,1.8,3.3
		l0.2,0.5L30,105.8z M208.5,49.4c0.1-0.6,0.4-1.2,0.7-1.8c0.6-0.8,1-0.7,1.1-1.4l-1.4-0.3c-0.1-0.9-0.1-1.3-0.7-2
		c-0.6,0.6-0.6,1.1-0.7,2c-0.9,0-0.7-0.1-1.5,0.4c0.9,1,1.8,1.5,1.9,3.1l0.1,0.5C208.2,49.9,208.5,49.4,208.5,49.4z M78.7,111.8
		c-0.8,0-0.8-0.1-1.4,0.4c0.3,0.4,0.9,0.8,1.3,1.4c0.4,0.7,0.6,1.3,0.8,2.1c0.1-0.5,0.5-1.5,0.8-2c0.4-0.7,1.1-1,1.4-1.6
		c-0.7-0.4-0.6-0.3-1.4-0.4l-0.5-2.1C78.8,110.4,78.8,110.8,78.7,111.8z M78.8,74l-1.6,0.5c1.3,1.7,1.6,1.1,2.1,3.5
		c0.3-0.6,0.5-1.4,0.8-2c0.4-0.6,1.2-1.1,1.3-1.6L80,74.1l-0.5-2C78.8,72.7,78.9,73.1,78.8,74z M11.9,121.9c0.5-0.9-0.3-0.7-1.2-0.8
		c-0.1-1-0.1-1.3-0.7-2.1c-0.3,0.8-0.5,1.3-0.6,2.2L8,121.3c0.4,1.1,1.2,0.5,2.1,3.6C10.5,123.9,10.6,122.5,11.9,121.9L11.9,121.9z
		 M138,17.5c-0.4,0.3-0.7,0.1-1.3,0.5c0,0.3,0.7,0.9,1,1.3c0.4,0.7,0.6,1.4,0.9,1.9c0.3-0.6,0.4-1.2,0.8-1.8
		c0.5-0.8,0.9-0.8,1.4-1.4c-0.7-0.5-0.5-0.4-1.4-0.4c-0.1-0.9-0.1-1.3-0.7-2.1C138.7,15.7,138,17.5,138,17.5z M39,74.1l-1.4,0.2
		c0.3,1.1,1,0.2,2.1,3.7c0.8-2.3,0.5-1.7,2.1-3.5c-0.6-0.4-0.8-0.3-1.5-0.5L40,72.2C39.1,72.6,39.2,73.3,39,74.1z M217,132.3
		c0.5,0.8,0.4,1.3,0.9,1.9c1-3.1,1.4-2.4,2.3-3.3c-0.8-0.6-0.7-0.2-1.5-0.6c0-0.4,0-0.7-0.2-1.1c0-0.1-0.1-0.3-0.2-0.4
		c-0.3-0.4,0-0.1-0.3-0.3c-0.5,0.7-0.5,1.1-0.6,1.9l-1.4,0.3C216.2,131.4,216.7,131.8,217,132.3L217,132.3z M217.2,93l-1.3,0.2
		c0.2,0.9,1.5,1.6,1.9,3.7c0.3-0.7,0.4-1.4,0.8-2c0.6-0.9,1.2-0.9,1.4-1.6l-1.4-0.3c-0.1-0.8-0.1-1.6-0.7-2L217.2,93L217.2,93z
		 M227.4,83.6c-0.8,0-0.8-0.1-1.5,0.3c0.4,0.5,0.8,0.6,1.3,1.4c0.4,0.7,0.6,1.3,0.8,2.1c0.8-2.9,1.6-2.6,2.1-3.6
		c-0.8-0.6-0.7-0.2-1.4-0.4l-0.5-2C227.5,82.1,227.6,82.6,227.4,83.6L227.4,83.6z M9.3,45.9l-1.4,0.2c0.1,0.5,0.9,1,1.2,1.5
		c0.4,0.7,0.7,1.4,0.9,2.1c0.3-0.7,0.4-1.3,0.8-2c0.3-0.5,1.1-1.1,1.3-1.5l-1.4-0.4c-0.1-0.8-0.1-1.3-0.7-2
		C9.6,44.5,9.4,45.2,9.3,45.9z M29.6,124.6l0.5-0.1c0.1-0.8,0.6-2,1.3-2.3l0.6-0.8l-1.5-0.4l-0.1-1l-0.5-1c-0.6,0.7-0.6,1.2-0.7,2.1
		c-0.7,0-0.7,0-1.4,0.3C28.1,122.4,29.4,122.7,29.6,124.6L29.6,124.6z M100.7,55.4h-1.1l-0.1-0.8c-0.1-0.6,0-0.8-0.5-1.2
		c-0.5,0.7-0.5,1.2-0.7,2.1c-0.8,0-0.7-0.2-1.3,0.3c0.2,0.5,0.8,1,1.2,1.5c0.3,0.6,0.6,1.4,0.8,1.9c0.5-1.8,0.8-2.3,2.3-3.3
		L100.7,55.4z M226.3,140l-0.4,0.4c1.2,1,1.8,1.9,2.1,3.5c0.6-1.7,0.7-2.4,2.2-3.5l-0.7-0.4l-0.8,0.1c-0.2-0.7-0.3-1.4-0.7-2.1
		c-0.7,0.7-0.5,1.3-0.8,2.1L226.3,140z M108.5,45.9l-1.5,0.3c0.2,0.6,1,1,1.3,1.6c0.4,0.7,0.5,1.4,0.8,2.1c0.8-3,1.9-2.7,2-3.6
		l-1.4-0.3c-0.2-1-0.1-1.1-0.7-2C108.6,44.6,108.6,45,108.5,45.9z M138.8,133.9c0.1-1.7,1-2,2-3c-0.7-0.5-0.6-0.4-1.5-0.4
		c-0.1-0.9-0.1-1.4-0.8-2.1l-0.5,2l-1.5,0.4c0.1,0.7,1.6,1.5,1.7,3.1l0.3,0.6L138.8,133.9L138.8,133.9z M168,64.7
		c-0.8,0.1-0.8-0.1-1.4,0.4c0.1,0.4,0.9,0.9,1.2,1.4c0.5,0.8,0.6,1.4,0.9,2.1c0.7-3,1.8-2.6,2-3.5c-0.6-0.4-0.5-0.3-1.3-0.3
		l-0.6-2.1C168,63.3,168.1,63.9,168,64.7L168,64.7z M89.5,143.2c0.3-1.4,0.9-2,1.9-2.8c-0.6-0.4-0.8-0.4-1.5-0.4
		c-0.1-0.8-0.1-1.4-0.7-2c-0.6,0.6-0.6,1.2-0.7,2.1c-3.2,0-0.1,0.3,0.5,3.3l0.3,0.5L89.5,143.2L89.5,143.2z M128.2,64.8l-1.3,0.2
		c0.3,1.2,1.1,0.3,2,3.6c0.3-0.6,0.4-1.3,0.8-2c0.3-0.5,1.1-1.1,1.3-1.5c-0.6-0.4-0.6-0.3-1.4-0.4c-0.1-0.8-0.1-1.5-0.7-2
		C128.9,62.7,128.2,64.8,128.2,64.8z M58.7,17.7l-1.3,0.2c0,0.9,1.2,0.9,1.8,3.6c0.4-0.6,0.5-1.3,0.9-2c0.5-0.8,0.9-0.8,1.5-1.4
		c-0.7-0.6-0.5-0.4-1.5-0.4c-0.1-0.9-0.1-1.4-0.7-2C58.8,16.4,58.8,16.9,58.7,17.7z M206.2,121.9c1,0.1,1.7,1.6,1.8,2.6l0.2,0.6
		l0.3-0.5c0.2-1.4,0.9-2.1,1.9-2.9l-0.3-0.4h-1c-0.4-0.7-0.1-1.3-0.8-2.1c-0.6,0.7-0.6,1.2-0.7,2C206.7,121.2,206.3,121,206.2,121.9
		z M48.6,103.8l1,2.4c0.2-1,0.6-2,1.4-2.8c0.6-0.6,0.6-0.2,0.7-0.8l-1.4-0.3l-0.5-1.8c-0.7-0.4-0.8,1.1-0.8,1.6
		c-0.8,0.4-0.6-0.1-1.4,0.5C47.6,102.7,48.6,103.8,48.6,103.8z M118.4,74.1l-1.4,0.2c0.1,0.6,0.6,0.8,1.1,1.5
		c0.4,0.7,0.6,1.4,0.9,1.9c0.3-0.5,0.4-1.1,0.9-1.8c0.9-1.4,1-0.7,1.2-1.6l-1.3-0.3c-0.1-0.8-0.1-1.4-0.7-2
		C118.5,72.8,118.5,73.2,118.4,74.1L118.4,74.1z M108.5,121.1l-1.5,0.2c0.1,0.5,0.9,1,1.3,1.5c0.5,0.7,0.5,1.5,0.9,2.1
		c0.4-2.2,1.7-2.7,2-3.5l-1.4-0.3l-0.5-2C108.6,119.7,108.6,120.2,108.5,121.1z M168,121.1c-0.7,0.1-0.8-0.1-1.4,0.4
		c0.3,0.9,1.2,0.3,2.1,3.5c0.2-0.6,0.4-1.4,0.8-2c0.4-0.7,1.1-1,1.3-1.6l-1.4-0.3l-0.6-2.1C168,119.7,168.1,120.3,168,121.1
		L168,121.1z M19,92.9c-0.7,0.1-0.8,0-1.4,0.4c0.1,0.4,0.8,0.9,1.1,1.3c0.4,0.7,0.5,1.3,0.9,1.9c0.7-1,0.3-1.6,1.5-2.5
		c0.2-0.2,0.6-0.3,0.7-0.9L20.4,93l-0.6-2.1C19.1,91.5,19.2,92,19,92.9z M49,121.1c-0.7,0.1-0.9-0.1-1.4,0.3
		c0.3,0.9,1.3,0.4,2.1,3.5c0.2-0.6,0.4-1.3,0.8-2c0.4-0.8,1.1-1,1.3-1.6l-1.4-0.3l-0.6-2.1C49.1,119.6,49.1,120.4,49,121.1z
		 M187.7,83.6c-0.8,0-0.7-0.1-1.3,0.3c0.4,0.8,1.5,0.8,2,3.4l0.5-1c0.2-0.4,0.2-0.5,0.4-0.9c0.5-0.9,0.7-0.8,1.3-1.4
		c-0.6-0.4-1-0.3-1.5-0.6c0-0.4,0-0.6-0.1-0.9c-0.2-0.6-0.3-0.6-0.6-0.8L187.7,83.6L187.7,83.6z M217.3,17.7l-1.4,0.2
		c0.1,0.5,0.8,1.1,1.1,1.6c0.4,0.6,0.7,1.6,0.9,1.8c0.2-0.6,0.5-1.4,0.8-1.9c0.5-0.8,1.2-0.8,1.4-1.4l-1.4-0.4
		c-0.1-0.8-0.2-1.5-0.6-1.9C217.4,16.3,217.4,17,217.3,17.7L217.3,17.7z M88.6,8.4l-1.4,0.2c0.1,0.3,0,0.2,0.2,0.4
		c2.2,2.6,0.8,1.3,1.8,3c0.3-0.5,0.4-1.2,0.8-1.8l1-1.1L91.1,9l0.1-0.2l0.1-0.1L90,8.3c-0.1-0.8-0.2-1.4-0.7-2
		C88.8,7,88.7,7.5,88.6,8.4z M108.5,64.7c-0.7,0.1-0.8,0-1.4,0.4c0.1,0.4,0.9,0.9,1.2,1.4c0.5,0.7,0.5,1.5,0.9,2.1
		c0.2-0.7,0.4-1.5,0.8-2c0.4-0.7,1-0.9,1.2-1.5l-1.4-0.3l-0.5-2.1C108.6,63.3,108.6,63.8,108.5,64.7z M187.7,121.2l-1.3,0.2
		c0.2,0.8,1.5,1.4,2,3.6c0.6-1,0.2-1.4,1.5-2.7l0.6-0.9l-1.4-0.2c0-0.7-0.2-1.6-0.7-2L187.7,121.2L187.7,121.2z M68.7,121.2
		l-1.3,0.2c0.2,0.8,1.6,1.5,2,3.6c0.6-1,0.3-1.6,1.5-2.7l0.6-0.9l-1.4-0.3c-0.1-0.8-0.1-1.5-0.7-2L68.7,121.2L68.7,121.2z M97,130.8
		c0.2,0.3,0,0.2,0.4,0.7c1.3,1.5,1.3,2.8,1.4,2.6c0,0,0,0.1,0.1,0.1c0.2-0.7,0.4-1.4,0.8-2c0.5-0.9,0.8-0.7,1.4-1.3
		c-0.7-0.5-0.7-0.3-1.4-0.5l-0.7-1.9c-0.6,0.6-0.6,1.2-0.7,2C98.3,130.5,97,130.8,97,130.8z M207.6,8.4l-1.4,0.2
		c0.2,0.7,0.6,0.7,1.2,1.5c0.4,0.6,0.6,1.4,0.9,1.9c0.5-0.9,0.5-1.6,1.4-2.6c0.2-0.2,0.2-0.1,0.3-0.3l0.1-0.1l0.1-0.2
		c0,0,0-0.1,0.1-0.1L209,8.3c-0.1-0.7-0.2-1.4-0.7-2C207.8,6.9,207.7,7.6,207.6,8.4z M149,124.5c0.2-1.8,1.2-2.1,1.8-3l0.1-0.1
		l-1.4-0.3c-0.1-0.9-0.1-1.3-0.7-2c-0.6,0.8-0.5,1.1-0.7,2.1l-1.4,0.2c0.4,1.2,1.7,1.2,1.8,3.2l0.2,0.5L149,124.5z M29.1,8.4
		l-1.4,0.2c0.2,0.7,0.6,0.8,1.2,1.5c0.5,0.7,0.5,1.3,0.9,1.9c0.5-0.8,0.5-1.6,1.4-2.6l0.6-0.8l-1.4-0.3c-0.1-0.8-0.2-1.4-0.7-2
		C29.3,7,29.2,7.5,29.1,8.4z M149,11.7c0.1-0.9,0.5-1.7,1.2-2.4l0.4-0.4l0.1-0.1l0.1-0.1l0.1-0.1l-1.3-0.3c-0.1-0.8-0.2-1.4-0.7-2
		c-0.5,0.6-0.6,1.2-0.7,2l-1.4,0.2c0.1,0.7,0.6,0.6,1.1,1.4c0.4,0.6,0.7,1.1,0.7,1.8l0.2,0.5C148.7,12.2,149,11.7,149,11.7z
		 M89.5,68.1c0.2-1.7,1.2-2.2,1.6-2.7l0.2-0.4L90,64.7c-0.1-0.9-0.1-1.3-0.7-2c-0.6,0.7-0.5,1.1-0.7,2l-1.4,0.2
		c0.3,1,1.6,1.1,1.8,3.2l0.2,0.5C89.3,68.6,89.5,68.1,89.5,68.1z M30,68.1c0.3-1.6,0.9-1.9,1.5-2.6l0.1-0.1l0.2-0.4l-1.4-0.3
		c-0.1-0.8-0.1-1.4-0.7-2c-0.5,0.6-0.6,1.2-0.7,2l-1.4,0.1c0.2,0.6,0.6,0.7,1.1,1.4c0.4,0.6,0.6,1.1,0.8,1.8l0.2,0.5L30,68.1
		L30,68.1z M89.6,124.5c0.1-1,0.5-1.7,1.2-2.4c0.5-0.5,0.5-0.3,0.6-0.8L90,121c-0.1-0.8-0.1-1.3-0.7-2c-0.6,0.7-0.6,1.1-0.7,2
		l-1.4,0.2l0.5,0.8c0.3,0.3,0.3,0.2,0.6,0.6c0.5,0.6,0.7,1.1,0.7,1.9l0.2,0.6L89.6,124.5L89.6,124.5z M119.3,40
		c0-0.7,0.2-1.1,0.6-1.7c0.5-0.8,0.6-0.6,1.1-1.3l0.1-0.1l-1.4-0.3c-0.1-0.8-0.2-1.4-0.7-2c-0.5,0.6-0.6,1.2-0.7,2l-1.4,0.2
		c0.1,0.4,0,0.2,0.2,0.4c0.5,0.6,1.6,1.2,1.5,2.8l0.2,0.6L119.3,40L119.3,40z M149,68.1c0.2-1,0.5-1.6,1.2-2.3l0.6-0.8l-1.4-0.3
		c-0.1-0.8-0.1-1.4-0.7-2c-0.6,0.5-0.6,1.2-0.7,2l-1.4,0.1c0.2,0.7,0.6,0.7,1.1,1.4c0.4,0.6,0.6,1.1,0.7,1.8l0.2,0.5
		C148.7,68.6,149,68.1,149,68.1z M208.5,68.1c0.3-1.7,1.2-2.2,1.7-2.8l-1.2-0.5c-0.1-0.8-0.1-1.4-0.7-2c-0.6,0.5-0.6,1.2-0.7,2
		l-1.4,0.2c0.2,0.6,0.6,0.7,1.1,1.4c0.4,0.6,0.6,1.1,0.7,1.8l0.2,0.5C208.2,68.6,208.5,68.1,208.5,68.1z M177.6,69.4
		c-0.9,0.1-0.8-0.2-1.6,0.3c1.6,1.2,1,0.5,2.5,2.1c1.4-1.6,0.8-1,2.5-2.1c-0.7-0.5-0.7-0.2-1.6-0.3c-0.3-0.7-0.2-0.9-0.9-1.3
		C177.7,68.6,178,68.6,177.6,69.4z M58.8,107c-0.9,0-1-0.1-1.8,0.3c1.4,1,1.3,0.6,2.6,2.2c1.2-1.5,1.1-1.2,2.6-2.1
		c-0.8-0.4-0.9-0.3-1.7-0.3c-0.2-0.8-0.1-0.8-0.8-1.4C58.9,106.2,58.9,106.1,58.8,107z M177.7,107c-0.9,0-1-0.1-1.8,0.2
		c1.6,1,1.3,0.6,2.6,2.2c1.2-1.6,1.2-1.2,2.6-2.2c-0.8-0.4-0.9-0.3-1.8-0.3c-0.2-0.8-0.1-0.8-0.8-1.4
		C178,106.1,177.9,106.3,177.7,107z M58.7,69.4c-0.9,0.1-0.9-0.2-1.6,0.3c1.6,1.2,1.1,0.6,2.5,2.1c0.4-0.4,0.5-0.8,1-1.2
		c0.5-0.5,1-0.5,1.5-0.9c-0.7-0.5-0.7-0.2-1.6-0.3c-0.3-0.7-0.2-0.9-0.9-1.3C58.8,68.6,59,68.7,58.7,69.4z M138,106.9
		c-0.8,0.1-1-0.1-1.7,0.3c0.4,0.3,1,0.5,1.5,0.9c0.6,0.5,0.6,0.9,1.1,1.4c1.4-1.9,1.2-1.1,2.5-2.2c-0.7-0.4-0.8-0.2-1.6-0.2
		c-0.4-0.7-0.1-0.7-0.9-1.3C138.2,106.1,138.3,106.2,138,106.9z M118.2,13c-0.9,0.1-0.9-0.2-1.6,0.3c1.6,1.2,1.1,0.5,2.5,2.1
		c0.4-0.4,0.5-0.8,1-1.2c0.5-0.5,1-0.5,1.5-0.9c-0.7-0.4-0.7-0.2-1.6-0.3c-0.3-0.7-0.2-0.9-0.9-1.3C118.3,12.2,118.6,12.2,118.2,13z
		 M217.3,31.7l-1.8,0.2c1.3,0.9,1.8,0.8,2.7,2.3c0.8-1,1.2-1.6,2.7-2.2c-0.8-0.4-0.9-0.3-1.8-0.4c-0.2-0.7-0.2-0.9-0.8-1.4
		L217.3,31.7z M215.6,144.8c1.3,0.8,1.8,0.7,2.6,2.3c2.4-2.8,1.5-1.2,2.6-2.3l-1.7-0.1c-0.3-0.5-0.4-1-1-1.4
		c-0.6,0.5-0.5,0.6-0.8,1.3L215.6,144.8z M98.3,31.7l-1.6,0.2c0.3,0.5,1.6,1,2.5,2.3c0.4-0.4,0.5-0.8,1-1.3c0.4-0.4,1.2-0.5,1.5-0.9
		l-1.7-0.3c-0.2-0.6-0.2-1-0.9-1.2C98.4,31,98.8,31,98.3,31.7z M78.4,88.2l-1.5,0.1c0.3,0.5,1,0.6,1.4,1c0.7,0.5,0.7,0.9,1.2,1.3
		c1.2-1.8,1.7-1.4,2.6-2.2l-1.7-0.3c-0.4-0.6-0.2-0.8-0.8-1.3C78.5,87.6,79,87.4,78.4,88.2z M119.1,128.2c0.4-0.5,0.5-0.8,1.1-1.3
		c0.6-0.4,1-0.5,1.4-0.8c-0.7-0.5-0.7-0.2-1.6-0.3c-0.4-0.7-0.2-0.9-0.9-1.3c-0.7,0.4-0.5,0.6-0.9,1.3c-0.8,0.1-0.9-0.2-1.6,0.3
		c0.5,0.4,1,0.5,1.5,0.9C118.5,127.4,118.7,127.8,119.1,128.2L119.1,128.2z M157.9,88.2l-1.8,0.2c1.3,0.9,1.8,0.7,2.7,2.3
		c2-2.6,1.1-1,2.6-2.3l-1.8-0.3c-0.2-0.7-0.2-0.8-0.8-1.3C158.1,87.4,158.1,87.4,157.9,88.2L157.9,88.2z M118.2,50.6
		c-0.9-0.1-1-0.2-1.8,0.3c1.7,1,1.4,0.6,2.6,2.2c1.1-1.5,0.9-1.3,2.6-2.1c-0.7-0.4-0.9-0.3-1.8-0.3l-0.7-1.4
		C118.5,49.8,118.5,49.8,118.2,50.6z M217.3,107l-1.7,0.2c1.6,1.3,1.1,0.3,2.6,2.3c0.4-0.4,0.4-0.9,1-1.3c0.5-0.4,1-0.4,1.5-1
		c-0.8-0.4-0.7-0.1-1.6-0.3l-0.7-1.3C217.3,106.3,217.8,106.2,217.3,107z M38.8,88.2l-1.6,0.2c0.4,0.6,1.5,0.9,2.5,2.3
		c0.4-0.4,0.6-0.9,1-1.3s1.2-0.5,1.5-0.9l-1.5-0.3c-0.3-0.5-0.4-1-1-1.3C39.7,86.9,38.8,88.2,38.8,88.2z M197.4,88.2l-1.6,0.1
		c0.3,0.5,0.9,0.5,1.4,1c0.6,0.5,0.7,0.9,1.1,1.4c1-1.6,2.1-1.7,2.5-2.2l-1.6-0.3l-0.8-1.3C197.5,87.6,198,87.4,197.4,88.2z
		 M78.5,13l-1.7,0.2c0.2,0.4,1,0.6,1.4,0.9c0.6,0.5,0.8,1,1.2,1.4c0.4-0.5,0.4-0.9,1.1-1.3c0.5-0.4,1.1-0.5,1.4-0.9L80.3,13
		c-0.5-0.6-0.1-0.7-0.9-1.3C78.6,12.1,78.8,12.2,78.5,13L78.5,13z M58.7,31.8l-1.8,0.1c0.4,0.4,0.9,0.5,1.5,0.9
		c0.6,0.4,0.7,0.8,1.1,1.4c1.4-1.7,0.5-1,2.6-2.1c-0.7-0.4-1-0.3-1.8-0.3c-0.3-0.9-0.2-0.7-0.8-1.4C59.1,30.9,58.9,31,58.7,31.8z
		 M177.7,31.8c-0.8,0-1.1-0.1-1.8,0.3c2.1,1.1,1.2,0.5,2.6,2.1c0.5-0.6,0.5-1,1.1-1.4c0.5-0.4,1-0.5,1.5-0.8l-1.8-0.2
		c-0.2-0.8-0.2-0.7-0.8-1.4C178.1,30.9,177.9,31,177.7,31.8L177.7,31.8z M17.3,144.8c0.4,0.4,1,0.5,1.6,1s0.7,0.9,1,1.3
		c0.8-1.4,1.3-1.5,2.6-2.3l-1.8-0.2c-0.3-0.7-0.2-0.9-0.8-1.3c-0.6,0.4-0.7,0.9-1,1.3L17.3,144.8L17.3,144.8z M175.9,144.8
		c0.4,0.4,0.9,0.5,1.5,0.8c0.7,0.5,0.7,0.8,1.1,1.4c1.4-1.8,0.9-1.1,2.6-2.3l-1.7-0.3l-0.9-1.3c-0.7,0.7-0.6,0.5-0.8,1.3
		L175.9,144.8L175.9,144.8z M57,144.8c0.4,0.3,1,0.5,1.5,0.8c0.7,0.5,0.6,0.8,1.1,1.4c0.5-0.6,0.5-0.9,1.1-1.4
		c0.5-0.4,1.1-0.5,1.5-0.9l-1.8-0.2c-0.3-0.9-0.2-0.7-0.8-1.3c-0.6,0.6-0.6,0.6-0.8,1.3L57,144.8z M37.9,150.2h3.6l0.3-0.5
		c-0.7-0.4-0.6-0.3-1.4-0.4c-0.1-0.8-0.1-1.5-0.8-2l-0.6,2.1c-0.8,0-0.7-0.1-1.4,0.3C37.6,149.7,37.9,150.2,37.9,150.2z
		 M156.9,150.2h3.6l0.3-0.5c-0.7-0.4-0.6-0.3-1.4-0.4c-0.1-0.8-0.1-1.5-0.8-2.1l-0.6,2.1c-0.8,0-0.7-0.1-1.4,0.3L156.9,150.2
		L156.9,150.2z M117.3,150.2h3.6l0.2-0.7l-1.4-0.2c-0.1-0.8-0.1-1.5-0.7-2c-0.6,0.6-0.6,1.2-0.7,2l-1.4,0.3L117.3,150.2L117.3,150.2
		z M196.6,150.2h3.6l0.3-0.5c-0.7-0.4-0.6-0.3-1.3-0.3l-0.7-2.1c-0.7,0.5-0.7,1.2-0.7,2l-1.5,0.4L196.6,150.2L196.6,150.2z
		 M77.6,150.2h3.6l0.3-0.5c-0.6-0.4-0.6-0.3-1.3-0.3l-0.7-2.1c-0.6,0.6-0.6,1.2-0.7,2l-1.5,0.4L77.6,150.2L77.6,150.2z M238,115.3
		v-5.5c-0.6,0.6-0.5,1.2-0.7,2c-0.9,0-0.8-0.1-1.5,0.4C237.3,113.3,237.2,114,238,115.3z M0.1,77.8c0.9-1.5,0.5-2.1,2.3-3.2
		c-0.8-0.4-0.7-0.4-1.6-0.5c-0.1-0.8-0.1-1.4-0.7-2C0.1,72.2,0.1,77.8,0.1,77.8z M0.1,115.2c0.7-1.1,0.9-2.1,2.2-3.1
		c-0.6-0.4-0.7-0.4-1.5-0.5c-0.1-0.8-0.2-1.4-0.7-1.9C0.1,109.8,0.1,115.2,0.1,115.2z M0.1,40c1-1.5-0.3-0.4,1.8-2.7l0.2-0.4v-0.1
		l-1.4-0.3c-0.1-0.7-0.1-1.5-0.7-2C0.1,34.5,0.1,40,0.1,40z M238,40v-5.5c-0.6,0.6-0.6,1.2-0.7,2l-1.4,0.2c0.2,1,0.6,0.2,1.7,2.7
		l0.2,0.4C238,39.9,238,40,238,40z M238,53v-3.7c-0.7,0.5-0.6,0.5-0.8,1.3c-0.8,0-1.1-0.1-1.8,0.3C237.2,51.9,236.7,51.5,238,53z
		 M0.1,53c1.3-1.5,0.9-1.1,2.6-2.1c-0.7-0.3-1-0.3-1.8-0.3c-0.2-0.8-0.1-0.9-0.8-1.3C0.1,49.3,0.1,53,0.1,53z M0.1,128.2
		c1.3-1.6,0.9-1,2.5-2.1c-0.7-0.4-0.8-0.3-1.6-0.3c-0.3-0.7-0.3-1-0.9-1.3L0.1,128.2L0.1,128.2z M238,15.4v-3.7
		c-0.6,0.4-0.6,0.7-0.9,1.4c-0.8-0.1-0.9-0.1-1.6,0.2C237.2,14.3,236.7,14,238,15.4z M0.1,15.4c1.3-1.5,0.8-1.1,2.5-2.1
		C1.9,12.9,1.8,13,1,13c-0.2-0.7-0.3-1-0.9-1.4C0.1,11.7,0.1,15.4,0.1,15.4z M238,128.2v-3.7c-0.7,0.4-0.6,0.6-0.9,1.3
		c-0.8,0-0.9-0.1-1.6,0.3C237.1,127.1,236.9,126.7,238,128.2L238,128.2z M41,0h-2.5c0.5,1.1,0.8,1.3,1.2,2.7C40.2,1.8,40.3,1.2,41,0
		z M160,0h-2.6c0.5,1.1,0.9,1.3,1.2,2.8C159.2,1.7,159.2,1.2,160,0z M0.1,2.5c0.2-0.4,1-1.9,1.3-2.4H0.1V2.5z M181.9,0h-1.2
		C180.3,1.5,181.9,1.8,181.9,0z M57.4,0h-1.2C56.3,1.8,57.8,1.4,57.4,0z M98.8,6c0.2-0.9,0.1-1,0.8-0.4L98.8,6z M98.2,4.9
		c-1.6-1,0.4-1.6,1.1-2c0.8,0.6,2.5,0.9,1,2c-0.7-0.2-0.2,0.2-0.7-0.7l-0.5,0.6l-0.4-0.5C98.3,4.9,98.8,4.6,98.2,4.9z M94.6,1.3
		c-0.4-0.4-0.3,0.1,0.1-0.1C94.9,1,94.9,1.1,94.6,1.3C94.4,1.5,94.8,1.5,94.6,1.3z M94.7,0.3c-1.2,0.7-0.6,1.2,0.1,2
		c0.7,0.9,1.4,0.8,2.4,1.2C97,4.7,97,5.2,98.4,5.3c0.1,0.8,0.1,1,0.7,1.6c0.7-0.5,0.7-0.7,0.7-1.5c1.4-0.5,1.5-0.3,1.3-2
		c1.6-0.3,2.2-0.5,3-1.9l0.4-0.4l-0.3-0.4c-0.2-0.3-0.1-0.1-0.1-0.4c-0.5,0-0.5,0-0.7,0.4L103.1,1l0.4,0.3c-0.5,1.6-2.4,1.8-3.7,1
		c0-1,0.5-1,0.2-2.5h-1.6c-0.2,1.2-0.2,1.3,0.4,2.3c-1.5,1-2.7,0.8-3.8-0.4C95,1.2,95.2,1,94.7,0.3z M59.5,117.6L59,117
		c-0.4,0.9,0.3,0.4-0.5,0.7l-0.4-0.2c-0.5-1.2,0.5-1.4,1.5-1.8c0.8,0.4,3,1.7,0.8,2l-0.2-0.7L59.5,117.6L59.5,117.6z M119.1,61.6
		l0.3,0.5c-0.5,0.2-0.6,0.1-0.8,0C119,61.3,118.6,61.9,119.1,61.6L119.1,61.6z M118,61.3c-1.9-0.7,0.4-1.7,1-2c0.7,0.3,2.8,1.4,1,2
		c-0.7-0.4-0.1,0.2-0.5-0.7l-0.5,0.6l-0.6-0.5C118.1,61.4,118.7,61,118,61.3z M177.5,117.7c-1.8-0.7,0.4-1.7,1-2
		c0.8,0.4,2.5,1,1.2,1.9c-0.9,0-0.1,0.3-0.7-0.6c-0.8,0.9-0.1,0.6-1.1,0C177.6,117.9,178.3,117.4,177.5,117.7L177.5,117.7z
		 M79.4,96.9c0.9,0.5,1.9,0.6,1.5,1.9l-0.8,0.1c-0.1-0.6,0.2,0.1-0.2-0.6l-0.5,0.6l-0.6-0.6c-0.4,0.7,0,0.1-0.2,0.6
		c-0.7-0.1-1.2-0.4-0.8-1.1C78.1,97.4,79,97.1,79.4,96.9z M39.4,24.7c0.1-1.1,0-0.4,0.3-0.7l0.5,0.3C39.7,24.6,39.5,24.5,39.4,24.7z
		 M39.8,23.5L39.3,23c-0.6,1,0,0.6-0.8,0.6c-1-1.2,0.4-1.4,1.2-2c1.1,0.5,1.7,0.6,1.6,1.8c-1,0.6-0.7,0.1-1-0.4L39.8,23.5z
		 M157.6,98.9c-1.6-0.9,0.4-1.6,1-2c2.8,1.1,1.7,1.9,0.8,2c-0.2-0.5,0.2,0.1-0.3-0.7l-0.5,0.6l-0.5-0.6
		C157.8,99,158.3,98.5,157.6,98.9z M235,59.7l1.1,0.2c-0.3,1.2-0.4,1.8,1.2,1.9c0,0.8,0,1.2,0.7,1.6v-1.3v-0.4v-0.5
		c-0.6-0.7,0-0.2-0.7-0.6l-0.1,0.6c-0.7-0.1-1.1-0.4-0.7-1.2c0.2-0.3,1.1-0.6,1.5-0.8v-0.9c-0.8,0.5-1,1-2.3,1
		c-0.8,0-1.5-0.4-1.9-0.9c-0.2-0.8,0.6-1-0.5-1.6C232.1,57.8,234,59.3,235,59.7z M238,101v-2.2l-0.7-0.5l-0.1,0.7
		c-2.1-0.6-0.1-1.6,0.8-2v-1c-0.9,0.5-0.9,1.1-2.5,1c-0.8-0.1-1.7-0.6-1.8-1.3c0.5-0.5,0.3-0.6-0.1-0.9l-0.5-0.3
		c-0.4,0.6-0.3,0.1-0.4,0.9c0.9,1.4,1.6,1.8,3.3,2.2c-0.3,1-0.4,2,1.1,1.8C237.4,100.2,237.3,100.4,238,101L238,101z M197.8,111.1
		l-0.1,0.7c-0.8,0-0.8-0.1-1.5,0.3c1.2,1.4,1.6,1.2,2.1,3.5l0.4-0.8c0.5-1.9,1.2-1.6,1.8-2.6c-0.7-0.5-0.6-0.4-1.4-0.4
		c-0.1-0.7-0.1-1.6-0.8-2L197.8,111.1L197.8,111.1z M128.2,27.2c-0.8,0-0.7-0.1-1.4,0.3c0.6,1,1.1,0.3,2.2,3.6
		c0.8-3.1,1.6-2.7,2.1-3.5c-0.4-0.3-0.2-0.2-0.6-0.3c-0.7-0.2-0.1,0.1-0.8-0.3c0-0.8-0.1-1.3-0.7-1.8
		C128.9,25.1,128.2,27.2,128.2,27.2z M168,8.3c-0.8,0.1-0.8-0.1-1.4,0.4c0.2,0.8,1.3,0.5,2,3.5c0.3-0.6,0.4-1.4,0.8-2
		c0.4-0.7,1.2-1.1,1.3-1.6l-1.4-0.4l-0.5-2C168.1,6.8,168.1,7.5,168,8.3z M62.9,0h-1.2c-0.3,0.7-0.3,0.4,0.1,1
		C62.8,1.4,62.9,0.8,62.9,0z M119.3,2.4c0.1-0.9,0.6-1.6,1.1-2.3h-2.5c0.4,0.8,0.9,1.3,1.1,2.3l0.2,0.5C119,2.9,119.3,2.4,119.3,2.4
		z M0.1,150.2h1.8l0.3-0.6l-1.4-0.2c-0.1-0.8-0.1-1.5-0.7-2C0.1,147.3,0.1,150.2,0.1,150.2z M216,0h-1.2c0,0.9,0.2,1.5,1.2,0.9V0z
		 M23.3,0h-1.2L22,1c0.7,0.3,0.4,0.3,1.1,0L23.3,0z M176.3,0h-1.2l0.2,1h0.9C176.7,0.4,176.6,0.7,176.3,0L176.3,0z M142.3,0h-1.2
		L141,1c0.7,0.3,0.4,0.3,1.1,0L142.3,0z M97,0h-1.2L96,1c0.7,0.3,0.4,0.3,1.1,0L97,0z M133.7,1.5L133.7,1.5L133.7,1.5z M123.4,132.8
		c0.5,0.4,0.5,0.6,0.4-0.2c-0.1,0-0.1,0.1-0.2,0.1L123.4,132.8C123.5,132.7,123.5,132.8,123.4,132.8z M233.7,20
		c-0.9-0.4-0.4,0-0.5,0C233.7,20.5,233.3,20.4,233.7,20z M4.9,95H4.4c0,0-0.2,0.3,0.2,0.4C5.3,95.6,4.9,95,4.9,95z M123.4,95
		c0.2,0.5-0.3,0.2,0.4,0.5C124,94.7,124.1,95.3,123.4,95z M84.3,132.8c-0.6-0.4-0.4,0-0.5,0.1C84.3,133.3,84,133.2,84.3,132.8z
		 M154.3,20c-0.8-0.5-0.5,0-0.5,0C154.2,20.4,153.9,20.3,154.3,20z M222.6,76.5c0.5,0.2,0.1,0.2,0.6,0c-0.1,0-0.1-0.1-0.2-0.1
		L222.6,76.5L222.6,76.5z M39.8,94.1c-0.4,0.8-0.4,0.9-0.1,1.7C40.2,95.1,40,95,39.8,94.1z M59.6,75.5c-0.4,0.7-0.3,0.8,0,1.4
		C59.9,76.3,59.9,76.1,59.6,75.5z M179,43.2l-0.4-0.4c-0.4,0.3-0.3,0.1-0.4,0.6c0,0,0.4-0.1,0.5-0.1C179.2,43.2,178.3,43.6,179,43.2
		z M158.7,131.9c-0.2,0.7-0.2,0.7,0,1.4C159.1,132.7,159.1,132.5,158.7,131.9z M178.5,76.8c0.3-0.7,0.3-0.6,0-1.3
		C178.2,76.3,178.2,76.1,178.5,76.8z M198.3,20.8c0.3-0.8,0.4-0.8,0.1-1.7C197.9,19.8,198.1,19.9,198.3,20.8z M118.8,136.9
		c0.4,0.6-0.1,0.2,0.7,0.6C119.3,136.7,119.5,137.1,118.8,136.9z M59.9,81.1c-0.1-0.8,0.1-0.4-0.7-0.5L59.9,81.1z M99.3,112.9
		c-0.3,0.8-0.4,0.9-0.1,1.7C99.6,113.9,99.5,113.7,99.3,112.9z M118.7,99.9c0.1-0.2,0.3-0.2,0.8,0l-0.5-0.6L118.7,99.9L118.7,99.9z
		 M39.8,131.8c-0.4,0.6-0.4,0.8-0.1,1.5C40.1,132.7,40,132.7,39.8,131.8z M138.8,1.8c0.4-0.6,0.4-1,0-1.6
		C138.6,1.1,138.6,0.9,138.8,1.8z M178.5,1.7c0.3-0.7,0.3-0.7,0-1.4C178.2,1,178.2,1,178.5,1.7z M119.1,133.2c0.3-0.7,0.3-0.6,0-1.3
		C118.7,132.7,118.7,132.5,119.1,133.2z M218.2,39.4c0.5-0.7,0.3-0.8,0.1-1.6C217.9,38.4,217.9,38.7,218.2,39.4z M158.7,19.1
		c-0.2,0.6-0.4,1,0.1,1.5C159,19.8,159.1,19.7,158.7,19.1z M178.3,80.5c0.3,0.4-0.2,0.2,0.6,0.5C178.7,80.3,179.1,80.7,178.3,80.5z
		 M60,118.5l-0.2-0.4c-0.7,0.1-0.5-0.4-0.6,0.7C59.6,118.2,59.8,119,60,118.5C59.9,118.5,60,118.5,60,118.5z M179,5.6l-0.5-0.4
		c-0.3,0.2-0.4-0.3-0.4,0.7C178.5,5.6,178.3,6,179,5.6z M40.1,61.9c-0.8-0.5-0.6-0.6-0.8,0.4L40.1,61.9z M59.8,43.3l-0.2-0.5
		c-0.5,0.4-0.3,0.1-0.3,0.8C59.2,43.6,59.8,43.3,59.8,43.3z M79.8,24.7c0-0.7,0.2-0.4-0.4-0.7L79,24.4
		C79.7,25.2,78.9,23.9,79.8,24.7z M119.5,24.6c-0.3-0.7,0.1-0.3-0.7-0.5l-0.1,0.5H119.5z M178.2,118.5c0.4,0.2-0.2,0.1,0.4,0.1
		c0.5,0,0.1,0.1,0.4-0.1l-0.3-0.5C178.2,118.3,178.3,118.1,178.2,118.5z M173.7,114c0.2,0.3,0.6,0.6,0.2,0
		C173.7,113.7,173.7,114,173.7,114z M54.7,114c0.1,0.3,0.6,0.6,0.2,0C54.8,113.8,54.7,113.9,54.7,114z M154.3,57.7
		c0.2-0.2-0.4-0.3-0.4-0.1C153.7,57.7,153.9,58,154.3,57.7z M83.8,57.6c0.2,0.4-0.4,0,0.2,0.1L83.8,57.6z M94.7,114.1
		c0.2-0.2-0.4-0.2-0.4-0.1C94.3,114.1,94.4,114.4,94.7,114.1z M143.3,114c0.1,0.3-0.2,0.1,0.2,0.1
		C143.8,114.1,143.1,113.6,143.3,114z M54.7,1.2c0.1,0.2,0.6,0.5,0.3,0C54.8,0.9,54.7,1.1,54.7,1.2z M183.3,1.1
		c-0.5,0.3-0.4-0.3-0.1,0.1c0.2,0.2-0.2,0.2,0,0C183.5,1.1,183.4,1,183.3,1.1z M24.3,114c0.2,0.4-0.4,0,0.2,0.1h0.1
		C24.5,113.8,24.2,113.9,24.3,114z"/>
</g>
</svg>
