<?xml version="1.0" encoding="utf-8"?>
<!-- Generator: Adobe Illustrator 26.0.1, SVG Export Plug-In . SVG Version: 6.00 Build 0)  -->
<svg version="1.1" id="Слой_1" xmlns:xodm="http://www.corel.com/coreldraw/odm/2003"
	 xmlns="http://www.w3.org/2000/svg" xmlns:xlink="http://www.w3.org/1999/xlink" x="0px" y="0px" viewBox="0 0 238.1 150.2"
	 style="enable-background:new 0 0 238.1 150.2;" xml:space="preserve">
<style type="text/css">
	.st0{fill-rule:evenodd;clip-rule:evenodd;fill:#2B2A29;}
	.st1{fill:none;}
</style>
<g id="Слой_x0020_1">
	<g id="_2174008865584">
		<g id="_2251061767264">
			<path class="st0" d="M117.9,65.9l-0.7-1.5c0.2,0.8-0.1,0,0.2,0.9C117.8,66.2,117.5,65.4,117.9,65.9z"/>
			<path class="st0" d="M95.6,74l0.9-0.7C95.7,73.7,95.9,73.6,95.6,74z"/>
			<path class="st0" d="M179.9,86.2l1-0.6c-0.1,0-0.3-0.1-0.3,0.1L179.9,86.2z"/>
		</g>
		<g id="_2251061767600">
			<path class="st0" d="M157.1,61.2c0.4,0.3,0.3,0.3,0.8,0c-0.1,0-0.2-0.2-0.2-0.2c0,0.1-0.2-0.1-0.2-0.1L157.1,61.2L157.1,61.2z"/>
			<path class="st0" d="M159.2,50.9c0.1-0.1,0.2-0.2,0.2-0.2c0,0,0.1-0.1,0.2-0.2c0.3-0.5,0.1,0,0.3-0.8c-0.1,0.1-0.2,0.1-0.2,0.2
				c0,0.1-0.1,0.2-0.2,0.2C159.2,50.7,159.4,50.3,159.2,50.9L159.2,50.9L159.2,50.9z"/>
		</g>
		<g id="_2251061768224">
			<path class="st0" d="M196.1,36.3c0.5-0.5,0.4,0.7,0.4-0.8c-1.8,0-0.2-0.1-0.9,0.4C196.3,35.9,196.1,35.7,196.1,36.3L196.1,36.3z"
				/>
			<path class="st0" d="M170.9,41.6c0.3,0.3-0.6,0.6,0.9,0.2c-0.6-0.9,0.3-0.2-0.7-0.4L170.9,41.6z"/>
		</g>
		<g id="_2251061768560">
			<path class="st0" d="M146.5,54.2c0.9-0.5,0.6,0.1,0.6-1C146.1,53.7,146.6,53.2,146.5,54.2z"/>
			<path class="st0" d="M162.6,36.5c0.3,0.2-0.7,1.1,0.9,0c-0.1,0-0.2-0.3-0.2-0.2L162.6,36.5L162.6,36.5z"/>
		</g>
		<g id="_2251061770240">
			<polygon class="st0" points="83.4,77.1 84.1,76.8 84.1,76.3 83.5,76.3 			"/>
			<path class="st0" d="M210.9,81.4c0.8,0.7-0.8,0.2,0.7,0.8C211.4,81.1,212.1,81.7,210.9,81.4z"/>
		</g>
		<g id="_2251061769472">
			<path class="st0" d="M64.7,81.6l-0.8-0.1c-0.1,0.7,0,0.5,0.2,0.9L64.7,81.6C64.7,81.6,64.7,81.6,64.7,81.6z"/>
			<path class="st0" d="M181.7,58.8h0.7c0.1-1.3,0.1-0.4-0.3-0.7L181.7,58.8z"/>
		</g>
		<g id="_2251061769088">
			<path class="st0" d="M196.7,45c-0.3-1,0-0.7-0.8-0.8C196,44.9,195.4,44.7,196.7,45z"/>
			<path class="st0" d="M149.7,91.2c0.1,0,0.2-0.1,0.2-0.1c0,0.1,0.2-0.1,0.2-0.1c0.5-0.3,0.2-0.1,0.6-0.5L149.7,91.2L149.7,91.2
				L149.7,91.2z"/>
		</g>
		<g id="_2251061772304">
			<path class="st0" d="M58.6,87.2c0.2-0.1,0.8-0.2,1-0.2c0.8-0.4,0.4-0.3,0.7-0.6c-0.5,0.2-0.7,0.2-1,0.3
				C58.6,87,59.1,86.7,58.6,87.2C58.6,87.2,58.6,87.2,58.6,87.2z"/>
			<path class="st0" d="M178.3,87.3c-0.6-0.3-0.6,0.5-0.3-0.6c-0.4,0.4-0.3-0.3-0.5,1C179,87.7,177.8,87.9,178.3,87.3L178.3,87.3
				L178.3,87.3z"/>
			<path class="st0" d="M169.5,13.1c0.6-0.4,0.5,0.5,0.5-0.7c-0.6,0-0.2-0.2-0.6,0l-0.5,0.3C169.9,12.7,169.4,12.6,169.5,13.1
				C169.5,13.1,169.5,13.1,169.5,13.1z"/>
			<path class="st0" d="M198.1,72.9l1.5-0.8c-0.4,0.1-0.4-0.1-0.9,0.2C197.9,72.7,198.4,72.4,198.1,72.9L198.1,72.9L198.1,72.9z"/>
		</g>
		<g id="_2251061773408">
			<path class="st0" d="M199.8,76.3c0.7-0.3,0.4,0.5,0.6-0.9C199.5,75.6,199.3,75.4,199.8,76.3z"/>
			<path class="st0" d="M76.8,59c1-0.3,0.6-0.1,1-0.6L76.8,59z"/>
		</g>
		<g id="_2251061774368">
			<path class="st0" d="M148.7,94.4c1-0.3,0.7,0.1,0.9-0.9C148.5,93.7,148.9,93.4,148.7,94.4z"/>
			<path class="st0" d="M163.1,16.2l-0.1-0.2L162,16C162.3,16.8,162.2,16.9,163.1,16.2C163.1,16.2,163.1,16.2,163.1,16.2z"/>
			<path class="st0" d="M99.1,68.3l1.1,0.3l0.4-1.6c-0.2,0.3-0.4,0-0.3,1.3C99.9,68.2,99.9,68,99.1,68.3L99.1,68.3z"/>
			<path class="st0" d="M148.2,20.3c0.5-0.3,0.4,0.6,0.4-0.9l-0.7,0.5L148.2,20.3L148.2,20.3L148.2,20.3z"/>
		</g>
		<g id="_2251061777488">
			<path class="st0" d="M133.1,100.7c1.1-0.6,0.9,0.2,0.8-1.1C132.5,100.3,133.4,99.9,133.1,100.7z"/>
			<path class="st0" d="M144.1,36.2c0.4-0.5,0.4,0.8,0.3-0.4c-0.1-0.8,0.2,0-0.3-0.6C143.6,35.9,143.3,35.4,144.1,36.2z"/>
		</g>
		<g id="_2251061776576">
			<path class="st0" d="M211.5,56.3l2.2-0.4c0.1,0,0.2,0,0.2-0.1c0-0.1,0.1-0.1,0.2-0.1c-0.5,0.1-0.9,0.1-1.5,0.2
				c-0.1,0-0.4,0.1-0.5,0.1C211.3,56.3,211.8,56.1,211.5,56.3z"/>
			<path class="st0" d="M202.3,38.4c0.4-0.1,0.8-0.1,1.2-0.2c1.6-0.4,0.3-0.1,0.9-0.4C203.1,37.9,203.3,37.7,202.3,38.4L202.3,38.4z
				"/>
		</g>
		<g id="_2251061776912">
			<path class="st0" d="M167.8,43.6c0.1-0.7,0.3-0.5-0.4-0.5l-0.6,0.4C167.2,43.7,165.9,44.2,167.8,43.6z"/>
			<path class="st0" d="M176.9,39c-0.7,0-0.6,0.2-0.6-0.5c-0.4,0.4-0.4-0.5-0.3,0.7C177.8,39.6,176.2,39.4,176.9,39
				C176.9,39,176.9,39,176.9,39z"/>
			<path class="st0" d="M103.2,63.6l-0.5-0.3l-0.4,0.6C104.1,64.2,102.5,64,103.2,63.6L103.2,63.6z"/>
			<path class="st0" d="M166.8,21.3c0.2,0.8-0.6,0.4,0.5,0.7l-0.1-0.8l0.9,0.2c-0.4-0.2,0.1-0.2-0.6-0.2
				C167.6,21.2,167,21.3,166.8,21.3L166.8,21.3z"/>
		</g>
		<g id="_2251061779264">
			<path class="st0" d="M167.4,17.1c0.4-0.1,0.4,0,0.8-0.3c0.4-0.3,0.2-0.1,0.5-0.4C168.1,16.2,167.6,16.2,167.4,17.1z"/>
			<path class="st0" d="M163.9,33.2c-0.2-1.1,0.2-0.4-0.8-0.8C163.5,33.4,163,32.9,163.9,33.2z"/>
		</g>
		<g id="_2251061779936">
			<polygon class="st0" points="160.6,41.4 161.2,40.8 160.5,40.1 160.1,40.1 			"/>
			<path class="st0" d="M143.3,43.1c0.5,0.4-0.8,1.1,0.7,0.4c0.8-0.4,0.1,0.1,0.4-0.6L143.3,43.1L143.3,43.1L143.3,43.1z"/>
			<path class="st0" d="M139.9,92.4l-0.6,0l0-0.6c-0.3,0.4-0.5-0.6-0.3,0.9C140.5,92.8,139.5,92.8,139.9,92.4z"/>
			<path class="st0" d="M195.8,39.3h0.8C195.4,38.4,196.2,39.1,195.8,39.3z"/>
		</g>
		<g id="_2251061778592">
			<path class="st0" d="M131.4,66.7c1.4-0.2,0.5,0.3,1-0.6c0,0,0.2-0.5-0.5-0.2C131.3,66.2,131.5,65.3,131.4,66.7L131.4,66.7z"/>
			<polygon class="st0" points="202.2,72.3 203.3,72.4 202.7,71.8 			"/>
		</g>
		<g id="_2251061780080">
			<path class="st0" d="M133.6,31.6c0.4,0.2-0.5,0.6,0.6,0.2c0.7-0.3,0.1,0.1,0.5-0.5c-0.2-0.1,0.3-0.6-0.7-0.2L133.6,31.6
				L133.6,31.6L133.6,31.6z"/>
			<path class="st0" d="M136.8,95.2c-1,0.5-0.5-0.6-0.8,1.1C136,96.2,136.5,96.6,136.8,95.2z"/>
		</g>
		<g id="_2251061783632">
			<path class="st0" d="M88.2,107.8l1.2,0.3l-0.1-1.1c-0.6,0.3-0.3,0.1-0.7,0.4c-0.1,0-0.2,0.3-0.2,0.2
				C88.4,107.5,88.3,107.7,88.2,107.8C88.2,107.8,88.2,107.8,88.2,107.8z"/>
			<path class="st0" d="M67.7,73.2l0.7-0.5l-0.1-1.1c-0.1,0.2-0.2,0.3-0.4,0.7C67.8,72.6,67.7,73,67.7,73.2L67.7,73.2z"/>
			<path class="st0" d="M77.6,89.8l1.9-0.8c0-0.1,0.1-0.1,0.2-0.2C78.1,89.3,78.3,89.2,77.6,89.8z"/>
			<path class="st0" d="M129.1,73.2c0.2-0.2,0.3-0.3,0.5-0.6c0.3-0.4,0.3-0.4,0.5-0.9C128.2,73.7,130,71.2,129.1,73.2z"/>
			<path class="st0" d="M199.4,40.1l0.9-1.2c-0.3,0.3-0.2,0.1-0.6,0.6C199.5,39.8,199.5,39.8,199.4,40.1L199.4,40.1z"/>
			<path class="st0" d="M144.5,71.8l0.7-2.7L144.5,71.8z"/>
		</g>
		<g id="_2251061780848">
			<path class="st0" d="M96.7,75.5c0.6,0.5-0.8,0.7,0.9,0.4l0.3-1.1L96.7,75.5C96.7,75.5,96.7,75.5,96.7,75.5z"/>
			<path class="st0" d="M203.7,61.8c0.4-0.1,0.9-0.1,1.4-0.2c0.2,0,0.3-0.1,0.5-0.1c0.9-0.4,0.3-0.1,0.7-0.4
				C204.9,61.2,204.5,61.2,203.7,61.8z"/>
			<path class="st0" d="M140.1,44.6l0.9-1.1C140,44,140.4,43.7,140.1,44.6z"/>
		</g>
		<g id="_2251061783920">
			<path class="st0" d="M215.2,55.9c0.7,0.6-0.9,0.4,0.9,0.5l-0.2-1.7l-0.5,0.8c0,0-0.1,0.1-0.1,0.2
				C215.2,55.8,215.2,55.8,215.2,55.9L215.2,55.9L215.2,55.9z"/>
			<path class="st0" d="M50.9,93.5c1-0.1,0.9-0.1,1.2-1C50.6,92.9,51.3,92.5,50.9,93.5z"/>
			<polygon class="st0" points="143.4,34.8 144.2,34.4 144.1,32.8 			"/>
			<path class="st0" d="M213.3,36.2c-0.1-0.1-0.2-0.2-0.2-0.2c-0.1,0.2-0.3-0.2-0.4-0.3c-0.3-0.2-0.3-0.2-0.7-0.4l0.5,1.2
				L213.3,36.2L213.3,36.2L213.3,36.2z"/>
			<path class="st0" d="M98.1,73.9c0.2-0.2,0.2-0.2,0.4-0.6c0.2-0.3,0.2-0.5,0.3-0.8c-0.3,0.3-0.2,0.1-0.5,0.6
				C98.1,73.4,98.2,73.2,98.1,73.9L98.1,73.9z"/>
		</g>
		<g id="_2251061743408">
			<path class="st0" d="M135.4,61.9c0.5-0.3,0.8-0.4,1.1-0.5l-0.4,1.4c0.9-0.8,0.7-0.6,0.7-1.9c-0.7,0.4-0.2,0-0.7,0.4L135.4,61.9
				L135.4,61.9L135.4,61.9z"/>
			<path class="st0" d="M150.5,92.4l0.4-1c-2,0.4-0.4,0.1-1.1-0.2c-0.4,0.7-0.4-1.1-0.4,0.9C151.3,91.5,149.9,91.8,150.5,92.4
				C150.5,92.4,150.5,92.4,150.5,92.4z"/>
			<path class="st0" d="M76.3,79.7c-0.9-0.1-0.4,0.2-0.7-0.2l0.1-0.8c-0.4,0.4-0.1-0.1-0.4,0.6c-0.4,0.9-0.1,0.2-0.2,1.1
				C75.8,80.1,75.6,80.4,76.3,79.7C76.3,79.7,76.3,79.7,76.3,79.7z"/>
			<path class="st0" d="M76.6,72.6c0.4-0.4,0.1,0.2,0.4-0.6c0.1-0.2,0.1-0.5,0.2-0.7c0.1-0.4,0.1-0.9,0.2-1.4
				c-0.4,0.6-0.2,0.2-0.5,1.1C76.8,71.6,76.7,72.1,76.6,72.6L76.6,72.6z"/>
			<polygon class="st0" points="157.1,50.1 158.1,49.1 157.4,49.2 			"/>
		</g>
		<g id="_2251061747248">
			<path class="st0" d="M108.8,54.6c0,1.9-0.2,0.5,0.7,1l0.4-0.8l-0.7-0.4C109.2,54.4,108.8,54.6,108.8,54.6z"/>
			<path class="st0" d="M117.6,67.4l0.6-0.3c0.1,0.1,0.6,0.4,0.7,0.5c-0.3-0.7-0.4-0.6-0.9-1l-1.2,0.1v0.2
				C118.4,66.8,117.4,66.7,117.6,67.4L117.6,67.4L117.6,67.4z"/>
			<path class="st0" d="M180.8,65.8l0.8-0.7C180.7,65.5,181.1,65.4,180.8,65.8z"/>
		</g>
		<g id="_2251061748448">
			<path class="st0" d="M187.2,83.9c0-1.2,0.1-1.7-0.3-2.8c-1.5-0.1-0.2-0.1-0.7,0.5c1,0.2,0.3-0.6,0.7,0.9L187.2,83.9L187.2,83.9
				L187.2,83.9z"/>
			<path class="st0" d="M134.7,54.1l1.7-0.5c-0.5,0.1-0.5,0-1,0.2C135,53.9,134.9,54,134.7,54.1L134.7,54.1L134.7,54.1z"/>
			<path class="st0" d="M225.9,61.6l0.8-0.7C225.9,61.2,226.2,61.1,225.9,61.6z"/>
		</g>
		<g id="_2251061749792">
			<path class="st0" d="M143.4,66.6c0.1,0.9-0.1,0.5,0.6,0.7l0.7,0.1l0.1,0l0.1-1.1l-0.6,0.5L143.4,66.6L143.4,66.6L143.4,66.6z"/>
			<path class="st0" d="M163.5,44.3c0.5-1,0.2-0.5-0.5-0.9C162.9,44.6,162.8,44,163.5,44.3z"/>
		</g>
		<g id="_2251061747056">
			<path class="st0" d="M207.7,70.6c0.6-0.7,0.5-0.5,1.7-0.8c0.4,0.8,0.6,0.6,0.7,0.9l-0.4-1.1C208.5,69.5,208,69.6,207.7,70.6
				L207.7,70.6z"/>
			<path class="st0" d="M209,58c-0.5,0-0.3,0-0.8-0.2l0,1.4C209.1,58.6,208.8,58.8,209,58L209,58z"/>
			<path class="st0" d="M103.9,82.2c-1.1,0.4-0.4,0.3-0.6-0.3c-0.5,0.8-0.3-1-0.4,0.9C104.2,82.6,103.4,82.9,103.9,82.2z"/>
			<path class="st0" d="M211.5,79.5c-1.4,0.3-0.7-0.2-0.8,0.7C211.6,80,211.1,80.4,211.5,79.5z"/>
			<path class="st0" d="M161.6,51.4c0.3-0.3,0.3-0.1,0.5-0.6c0.4-0.7,0.1-0.1,0.3-0.8c-0.3,0.3-0.3,0.1-0.5,0.6
				C161.5,51.4,161.8,50.9,161.6,51.4L161.6,51.4L161.6,51.4z"/>
		</g>
		<g id="_2251061751712">
			<path class="st0" d="M208.5,34.4l0.8,1.2l0.8-0.3c-0.7-0.9,0.2-0.3-1-0.4l0.4-0.8L208.5,34.4L208.5,34.4L208.5,34.4z"/>
			<path class="st0" d="M191.8,33.5c0.1,0.1-0.4,0.6,0.5,0.1c0.5-0.2,0.2,0.2,0.3-0.6C192.2,33.1,191.9,33,191.8,33.5L191.8,33.5
				L191.8,33.5z"/>
		</g>
		<g id="_2251061752432">
			<path class="st0" d="M162,39.8c0.7-1,0.4-0.4,0.7-1.5l-1.1,0.1L162,39.8L162,39.8L162,39.8z"/>
			<path class="st0" d="M134.2,74.4l0-1c-0.2,0-0.5,0-0.7,0c-0.1,0-0.2,0.1-0.3,0.1c-0.1,0-0.2,0.1-0.2,0.1L134.2,74.4L134.2,74.4
				L134.2,74.4z"/>
			<path class="st0" d="M170.2,74.6c0.4,0.3-0.1,0.9,1,0c-0.4-0.4,0.2-0.2-0.6-0.3L170.2,74.6L170.2,74.6z"/>
		</g>
		<g id="_2251061755744">
			<path class="st0" d="M229.7,35.3c0.4-0.4,0.4,0.3,0.4-0.8c-1.1-0.2-1.5-0.3-2.6,0.2l2,0L229.7,35.3L229.7,35.3L229.7,35.3z"/>
			<path class="st0" d="M81.5,101.2c0.3-1.2-0.1-0.7-0.1-0.8c-0.1,0.1-0.5,0.3-0.6,0.7c-0.4,1.4,0.1,0.6,0.3,0.9
				C81.1,102,81.4,101.4,81.5,101.2L81.5,101.2z"/>
			<path class="st0" d="M83.8,104.4l0.7-1C83.9,103.8,84.1,103.4,83.8,104.4z"/>
		</g>
		<g id="_2251061755024">
			<polygon class="st0" points="181.4,59.8 182.5,60.1 182.4,58.8 181.7,58.8 			"/>
			<path class="st0" d="M65.8,73.7c-1.3,0.5-0.7-0.1-0.8,0.7C65.9,74.3,65.3,74.8,65.8,73.7z"/>
		</g>
		<g id="_2251061753488">
			<path class="st0" d="M197.6,73.3l-0.7,0.6l0.2,0.4l1.1-0.2c-0.4-1.1-0.4,0.1-0.1-1.3C197.6,73,197.9,72.5,197.6,73.3L197.6,73.3
				L197.6,73.3z"/>
			<path class="st0" d="M64.1,129.6l-0.4-3.3c-0.8,0.2-0.3-0.1-0.5,0.6c0.6-0.2,0.1-0.3,0.5,0C63.7,128.1,63.5,128.8,64.1,129.6
				L64.1,129.6z"/>
			<path class="st0" d="M226.7,60.6c0.4-0.5,0.4,0,0.4-0.9c0-0.4-0.1-0.4-0.3-0.7c-1.3-0.2-0.4-0.2-0.5,0.4c1-0.4,0.3-0.2,0.5,0.3
				L226.7,60.6L226.7,60.6z"/>
			<path class="st0" d="M205,57.9c-1.1,0.9-1-0.5-1.6,0.4c1.2,0.3,0.2,0.2,1.3,0.4L205,57.9C205,57.9,205,57.9,205,57.9z"/>
			<path class="st0" d="M145.7,56.6l0.6-0.3c-0.4-0.5,0.8-0.4-0.8-0.4L145.7,56.6L145.7,56.6L145.7,56.6z"/>
			<path class="st0" d="M141,50.6l0.9-0.6L141,50.6z"/>
		</g>
		<g id="_2251061758336">
			<path class="st0" d="M128.9,71.5c1-0.9,0.3-0.6,1.6-0.9l-0.3,1c0.5-0.4,0.3,0.7,0.6-0.9c0,0,0-0.8-1.2-0.2
				C129.1,70.7,129.1,71,128.9,71.5z"/>
			<path class="st0" d="M69.8,67l0.1-0.5c0-0.1,0.1-0.2,0.1-0.2l0.3-0.5l-0.9,0.5C69.4,67.6,69.3,66.7,69.8,67L69.8,67z"/>
		</g>
		<g id="_2251061758864">
			<path class="st0" d="M195.7,35.9c-0.8,0-0.2-0.8-0.5-2c-1,0.1-0.1-0.1-0.6,0.4l0.4,0.1l-0.1,1.9C196.5,36.4,195,36.3,195.7,35.9
				L195.7,35.9z"/>
			<path class="st0" d="M45.9,103.4c0.1-0.1,0.1-0.1,0.2-0.2l0.7-1c0-0.1,0.1-0.1,0.2-0.2l-0.9,0.3L45.9,103.4
				C45.9,103.4,45.9,103.4,45.9,103.4z"/>
			<path class="st0" d="M133.8,50.7c1.5,0,0.5,0.2,1.1-0.8C133.4,50.5,134.4,49.9,133.8,50.7z"/>
			<path class="st0" d="M135.6,31.9l0.3-0.9l-0.3-0.7c-0.9,0.6-0.3-0.4-0.2,0.5C135.4,31,135.6,31.8,135.6,31.9L135.6,31.9
				L135.6,31.9z"/>
			<path class="st0" d="M93.9,102.9l0.7-0.7C93.8,102.7,94.1,102.5,93.9,102.9z"/>
		</g>
		<g id="_2251061762080">
			<path class="st0" d="M125.5,52.6c0.6,0.7,0.7,0.6,1.6,0.1c-0.1-0.1-0.1-0.2-0.1-0.2c0,0-0.1-0.2-0.2-0.2c0-0.1-0.3-0.3-0.4-0.4
				C126.4,51.9,125.5,52.6,125.5,52.6z"/>
			<path class="st0" d="M53.7,114.2c0.8-0.4,0.4,0.7,1-1C53.6,113.5,53.9,113.1,53.7,114.2z"/>
			<path class="st0" d="M56.8,86.7l0.9-0.3L57.4,87c0.4-0.4,0.4,0.3,0.4-0.8C56.6,86.1,57.4,85.8,56.8,86.7L56.8,86.7z"/>
		</g>
		<g id="_2251000714176">
			<path class="st0" d="M115.8,64.5l-0.5-4.9c0-0.2-0.1-0.2-0.1-0.3c0.1,1.1,0.2,1.6,0.2,2.7C115.4,63.1,115.3,63.7,115.8,64.5
				C115.8,64.5,115.8,64.5,115.8,64.5z"/>
			<path class="st0" d="M192.9,60.6l-0.4-0.5c-0.3,0.6-0.4-0.8-0.3,0.8c0,0.6,0.2,0.6,0.3,0.7L192.9,60.6L192.9,60.6z"/>
			<path class="st0" d="M117.8,106.8c-0.3-0.4-0.2-0.3-0.6-0.6c0,0-0.2,0-0.2-0.2c0-0.1-0.1-0.1-0.2-0.2
				C117.4,106.8,117.1,106.4,117.8,106.8L117.8,106.8z"/>
		</g>
		<g id="_2251000715664">
			<path class="st0" d="M133.7,75.4c0.3-0.3,0.3,0.5,0.5-1l-1.2-0.7l-0.1,0.9c0.6,0.3,0.3,0.2,0.8-0.1L133.7,75.4L133.7,75.4
				L133.7,75.4z"/>
			<path class="st0" d="M83.4,88.3c0.4-0.5,0.5,0.6,0.3-0.9c-1.9-0.7-0.6-0.1-1.1,0.3h0.8L83.4,88.3z"/>
			<path class="st0" d="M103.9,98.6c0.6,0.4,0.4,0.3,1.1-0.2C104.2,98,104.5,97.8,103.9,98.6z"/>
			<path class="st0" d="M176.9,37.3c1.1-1.2,0.1-0.4,0-0.7C176.7,37,176.1,36.2,176.9,37.3z"/>
		</g>
		<g id="_2251000718736">
			<path class="st0" d="M159.5,57.1c0.3-0.3,0.3-0.1,0.5-0.6c0.1-0.4,0.1-0.9,0.1-1.3l-1,0.2C159.5,56.2,159.6,55.9,159.5,57.1
				L159.5,57.1z"/>
			<path class="st0" d="M206.1,49.5l-0.5,0l0.1-0.5c-0.6,0.3-0.4-0.4-0.5,0.6c0.7,0.3-1,0.4,0.4,0.2
				C206.1,49.7,205.8,49.8,206.1,49.5C206.1,49.5,206.1,49.5,206.1,49.5z"/>
			<path class="st0" d="M114.2,95.9l0.7-0.3l0.2,0.5c0.2-0.3,0.8,0.6,0-0.9L114.2,95.9L114.2,95.9z"/>
		</g>
		<g id="_2251000717824">
			<path class="st0" d="M143.7,68.1c1.1,0.2,0.3-0.1,1.1,0.3c0.6,0.3,0.3,0,0.5,0.7l0.3-0.6c-0.6-0.4-0.7-0.2-1-1l-0.7-0.1
				L143.7,68.1L143.7,68.1L143.7,68.1z"/>
			<path class="st0" d="M77.9,79.1c0.5-0.4,0.3-0.2,0.8-0.5c0.4-0.2,0.1,0.9,0.6-0.3c0.1-0.1,0.2-0.1,0.3-0.2l-1.4-0.1L77.9,79.1
				C77.9,79.1,77.9,79.1,77.9,79.1z"/>
			<path class="st0" d="M103.1,81.8c0.5-0.4,0.2,0.2,0.6-0.8c0.3-0.6,0.1-0.2,0.2-0.9L103.1,81.8L103.1,81.8z"/>
		</g>
		<g id="_2251000721472">
			<path class="st0" d="M54.9,106.7c0.2,0.7-0.5,0.6,0.7,0.5l0.7-0.3l-0.1-0.7C55.3,106.3,55.5,106.2,54.9,106.7
				C54.9,106.7,54.9,106.7,54.9,106.7z"/>
			<path class="st0" d="M117.6,67.4c-0.2-0.7,0.8-0.6-0.8-0.5l-0.2,0.9L117.6,67.4L117.6,67.4L117.6,67.4z"/>
			<polygon class="st0" points="223.4,61.8 223.6,61.8 223.9,61.1 223.1,61.2 			"/>
		</g>
		<g id="_2251000725072">
			<path class="st0" d="M162.4,87.7l1.2-0.3c-0.3-0.7-0.5-0.5-0.7-1.4c-0.2,0.3-0.3,0.2-0.4,0.8C162.5,86.8,162.4,87.6,162.4,87.7
				L162.4,87.7L162.4,87.7z"/>
			<path class="st0" d="M206.7,37.5c1.3-0.1,1.3-0.1,1.7-1.3l-1.5,1.2C206.9,37.4,206.8,37.4,206.7,37.5
				C206.7,37.5,206.7,37.5,206.7,37.5z"/>
			<path class="st0" d="M104.5,78.1c0.3-0.3,0.2,0,0.4-0.6c0.1-0.4,0.1-0.5,0.2-0.9c-0.2,0.2-0.2,0.2-0.4,0.6
				C104.4,77.9,104.7,77.2,104.5,78.1L104.5,78.1z"/>
		</g>
		<g id="_2251000724496">
			<path class="st0" d="M196.9,73.9l0.7-0.6c-0.6-0.2-0.7-0.4-1-0.4c-1.1-0.1-0.8,0.2-1.1,0.5C196.9,73.5,195.7,73.4,196.9,73.9
				L196.9,73.9z"/>
			<path class="st0" d="M129.1,95.4l-0.9-0.1c0.2,0.8-0.3,0.4,0.3,0.8C129,95.9,128.9,96,129.1,95.4L129.1,95.4z"/>
		</g>
		<g id="_2251000728624">
			<path class="st0" d="M57.9,117.2c0.6-0.6,0.2,0,0.5-0.9c0.1-0.2,0-0.5-0.1-0.7l-1-0.2L57.9,117.2
				C57.9,117.2,57.9,117.2,57.9,117.2z"/>
			<path class="st0" d="M157.9,54.6c0.3,0.5-0.5,1.1,0.7,0.1l0.9-0.6L157.9,54.6L157.9,54.6z"/>
			<polygon class="st0" points="137,94.7 137.7,94.6 137.6,94.2 136.9,94 			"/>
		</g>
		<g id="_2251000731552">
			<path class="st0" d="M228.1,38l0,0.3l0.1,0.8c0.1-0.1,0.2-0.3,0.2-0.3l0.6-1.4c-0.1-1.2,0.1-0.3-0.5-0.6L228.1,38
				C228.1,38,228.1,38,228.1,38z"/>
			<path class="st0" d="M192.6,76.6c0.9,0,0.3,0.2,0.8-0.4L192.6,76.6z"/>
		</g>
		<g id="_2251000732128">
			<path class="st0" d="M223.9,61.1l-0.3,0.7c1.1-0.4,0.6-0.3,1.7-0.1c-0.3-0.8-0.3-0.4-0.1-1.1C224,60.8,224.7,60.2,223.9,61.1
				C223.9,61.1,223.9,61.1,223.9,61.1z"/>
			<path class="st0" d="M157.5,55.7c1.5-0.6,0.6-0.2,1-0.9c-1.1,0.9-0.4,0.4-0.7-0.1l0.1-0.1C157.4,54.6,157.6,54.9,157.5,55.7
				L157.5,55.7z"/>
			<path class="st0" d="M79.3,100.4c0.1-0.1,0.1-0.2,0.2-0.2l0.4-0.3c0.4-0.3-0.6-0.8,0.5-0.1c-0.4-0.8,0.6-0.5-0.5-0.7
				c-0.3,0.4-0.2,0.1-0.4,0.7C79.4,99.9,79.3,100.3,79.3,100.4C79.3,100.4,79.3,100.4,79.3,100.4z"/>
			<path class="st0" d="M65.8,123.9c0.7-0.4,0.4-0.3,0.7-0.8L65.8,123.9z"/>
		</g>
		<g id="_2251000734576">
			<path class="st0" d="M81.6,98.6c0.2-0.3,0.2,0.2,0.5-0.9c0.1-0.5,0.1-0.8,0.1-1.3l-1,0.1c0.4,1.3,0,0,0.5,1.2L81.6,98.6
				C81.6,98.6,81.6,98.6,81.6,98.6z"/>
			<path class="st0" d="M152.6,49.8c0.9-0.2,0.5,0.2,0.6-0.7C152.3,49.4,152.7,48.8,152.6,49.8z"/>
		</g>
		<g id="_2251000738800">
			<path class="st0" d="M79.4,66.8L79,66.3c-0.3,0.4-0.1-0.5-0.5,0.9c-0.1,0.5-0.1,0.9-0.1,1.4c0.5-0.5,0.2,0.2,0.7-0.8
				C79.3,67.4,79.3,67.2,79.4,66.8C79.4,66.8,79.4,66.8,79.4,66.8z"/>
			<path class="st0" d="M135.7,49.3c-1.2-0.1-0.4,0.3-1.1-0.3c-1.5-0.3-0.4-0.2-0.8,0.3c1.4,0.2,0.4-0.3,1.1,0.4
				C136.6,49.7,135.1,49.7,135.7,49.3C135.7,49.3,135.7,49.3,135.7,49.3z"/>
			<path class="st0" d="M47.5,100c-0.1-0.1-0.2-0.1-0.2-0.2c0,0-0.1-0.1-0.2-0.2l-0.2-0.3c0-0.1,0-0.1,0-0.2l-0.8,1L47.5,100
				C47.5,100,47.5,100,47.5,100z"/>
			<path class="st0" d="M142.9,68.7c0.7-0.3,0.2,0.3,0.8-0.6c-0.4-0.7-0.2-0.1-0.7-0.4C143,67.7,142.9,68.7,142.9,68.7z"/>
			<path class="st0" d="M62,97.4c0.3-0.4,0.3,0.5,0.5-1c-1.5,0.1,0.8-0.3-0.6,0.1l-0.4,0.3l0.7-0.1L62,97.4L62,97.4z"/>
			<path class="st0" d="M151.2,86.1c1.1-0.5,0.6,0.1,0.8-0.9C150.4,85.8,152.4,85.2,151.2,86.1z"/>
		</g>
		<g id="_2251000739712">
			<path class="st0" d="M72.3,93.3c0.4,0.6-0.8,0,0.5,0.5c0.9,0.4,0.1,0.1,0.9-0.1c-0.3-0.5-0.5-0.6-0.9-0.9l0.2-0.9
				C72.3,92.3,72.6,92.2,72.3,93.3z"/>
			<path class="st0" d="M80.5,61.2l0.7-0.3l0.2-0.8C80.7,60.7,81,60.3,80.5,61.2L80.5,61.2z"/>
			<path class="st0" d="M214.8,78.8c1.3,0.7,0.3,0.2,0.7,0c-0.1,0-0.2-0.1-0.2-0.2C213.8,78.2,215.1,78.5,214.8,78.8L214.8,78.8z"/>
			<path class="st0" d="M167.8,43.6c0.4-0.4,0.4,0.6,0.4-0.8l-0.8,0.3C168.1,43.1,168,42.9,167.8,43.6L167.8,43.6z"/>
		</g>
		<g id="_2251000743312">
			<path class="st0" d="M198.2,74.1l-1.1,0.2l-0.6,0.5c0.6,0.4,0.9,0.1,2.2,0.1L198.2,74.1L198.2,74.1L198.2,74.1z"/>
			<path class="st0" d="M56.8,86.7l-0.3,0.8c1.1-0.3,0.4,0.3,0.9-0.5l0.2-0.7C57.6,86.3,56.8,86.7,56.8,86.7z"/>
		</g>
		<g id="_2251000745232">
			<path class="st0" d="M203.2,71.2l1.3-0.2l0.2,2.8l0,0.5c0.4-0.9,0.3-2.7-0.1-3.7L203.2,71.2z"/>
			<path class="st0" d="M154.9,73.3c0.1-0.1,0.1-0.2,0.2-0.2c0,0,0.1-0.1,0.1-0.2c0.2-0.3,0.2-0.4,0.3-0.7c-1.4,0-0.7,0-1.1,0.2
				C154.1,73.3,154,72.6,154.9,73.3L154.9,73.3L154.9,73.3z"/>
			<path class="st0" d="M87.5,105l0.5-1.6c-0.2,0.3-0.1-0.1-0.4,0.7C87.4,104.7,87.6,104,87.5,105z"/>
			<polygon class="st0" points="155.2,64.2 156,63.8 155.1,63.9 			"/>
		</g>
		<g id="_2251000680960">
			<path class="st0" d="M153.4,101.9l-0.9-0.1c-0.1-0.5-0.1-1-0.2-1.4c-0.2-1,0.3-1.2-0.5-1.3l0.6,3.1
				C152.3,102.2,152.3,102.8,153.4,101.9z"/>
			<path class="st0" d="M198.6,37.1c1.2-0.2,0.2,0.3,0.8-0.8C198,36.9,199.2,36.2,198.6,37.1z"/>
		</g>
		<g id="_2251000683072">
			<path class="st0" d="M62.5,85.4c1.3-0.2,2.2,0,2.7-1.1c-0.7,0.2-1.2,0.2-1.7,0.4C61.9,85.2,62.9,84.9,62.5,85.4L62.5,85.4z"/>
			<path class="st0" d="M186.1,40.3l0.7-0.4c-0.1,0-0.2-0.2-0.2-0.1l-0.7-0.5c-0.4,0.3-0.5-0.4-0.3,0.5
				C186.5,40.1,185.7,39.7,186.1,40.3L186.1,40.3z"/>
			<path class="st0" d="M196.2,48.4c-1.1,0.1-0.5,0.2-0.7-0.4c-0.4,0.4-0.5-0.6-0.3,0.7C195.8,48.7,195,49.1,196.2,48.4L196.2,48.4
				L196.2,48.4z"/>
			<path class="st0" d="M125.7,106.6l1-0.6C125.1,106.3,126.1,106,125.7,106.6z"/>
		</g>
		<g id="_2251000686528">
			<path class="st0" d="M155.1,63.9l0.9-0.1c1.5-0.1,0.2,0.1,0.8-0.5l-1.3-0.3l0.3-0.8C154.9,62.6,155.2,63.1,155.1,63.9L155.1,63.9
				z"/>
			<path class="st0" d="M193.7,52.5c0.6-1.1,0.5-1.4,0.5-2.8C193.6,50.6,193.7,51.3,193.7,52.5z"/>
			<path class="st0" d="M81,88.5c0.9-0.2,0.8,0,1.6-0.8C81.8,87.9,81.3,87.8,81,88.5z"/>
			<line class="st1" x1="129.8" y1="103.8" x2="129.8" y2="103.8"/>
		</g>
		<g id="_2251000688592">
			<path class="st0" d="M164.5,79.4l1.7-0.8c0-0.1,0.1-0.1,0.2-0.1c-0.3-0.2-0.1-0.2-0.6-0.2c-0.6,0-0.3,0-0.7,0.2l0-0.6
				C164.3,78.1,164.5,78.5,164.5,79.4L164.5,79.4L164.5,79.4z"/>
			<path class="st0" d="M97.5,56.7c1-0.2,0.3-0.2,0.6,0.3c0.1-0.1,0.2-0.2,0.2-0.2c0,0,0.1-0.2,0.2-0.2c0.3-0.7,0.1,0.1,0.2-0.8
				l-1.3,0.4C97,56.9,97.2,56.3,97.5,56.7L97.5,56.7z"/>
			<path class="st0" d="M51.8,91.4c0.4-0.3,0.1,0,0.6-0.5c0.3-0.3,0.2-0.2,0.5-0.6l-0.7,0.4L51.8,91.4
				C51.8,91.4,51.8,91.4,51.8,91.4z"/>
		</g>
		<g id="_2251000688448">
			<path class="st0" d="M67.3,76.8c0.5-0.7,0.4-0.7,0.5-1.6c-1.6-1-0.8-0.1-1.3-1c-0.5,0.5-0.8-0.8-0.4,0.7l1.2,0.6
				C67.3,75.5,67.3,76.8,67.3,76.8z"/>
			<path class="st0" d="M221.8,61.2c0.9,0.1,0.8,0.2,1.6,0.5l-0.3-0.6l0.8-0.1c-0.1,0-0.2-0.1-0.2-0.1l-0.4-0.2
				c-0.1,0-0.3-0.2-0.4-0.2c0.3-0.6-0.2-0.1,0.5-0.9C222.4,60.4,222.5,60.4,221.8,61.2C221.8,61.2,221.8,61.2,221.8,61.2z"/>
			<path class="st0" d="M219,34.4l-0.1-0.8c0.4,0.2,0.5,0.1,0.8,0.4l-0.7-0.6c-1.1,1.1-1,0.2-0.8,1.5L219,34.4L219,34.4z"/>
			<path class="st0" d="M216.1,44.6l-1.2,0.5c0.1,1.1-0.1,0.3,0.4,0.6l0.5-0.6C215.9,44.9,216,44.7,216.1,44.6L216.1,44.6z"/>
		</g>
		<g id="_2251000693104">
			<path class="st0" d="M67,122.7c0.9,0.3,0.2-0.2,0.9,0.7c0.5-2-0.5-0.5-0.4-2.6c-0.5,0.5-0.1-0.6-0.5,0.9
				C67,121.8,67,122.7,67,122.7C67,122.7,67,122.7,67,122.7z"/>
			<path class="st0" d="M164,24.7l1.2-0.4c-0.6-1.3,0.6,0.9-0.4-0.4c-0.4-0.6-0.2,0.1-0.4-0.7l-0.7,0.6L164,24.7L164,24.7L164,24.7z
				"/>
			<path class="st0" d="M209,58c0.5-0.3,0.2,0,0.6-0.7c0.1-0.2,0.2-0.6,0.2-0.8C208.9,57.2,209.4,56.6,209,58L209,58L209,58z"/>
			<path class="st0" d="M201.9,62.1l-0.7,0.1l0.1-0.7c-0.3,0.3-0.3-0.4-0.5,1L201.9,62.1L201.9,62.1z"/>
		</g>
		<g id="_2251000694544">
			<path class="st0" d="M86.4,73.3c0.2-0.2,0.5,0.2,0.4-1c-0.1-0.9-0.1,0.1-0.4-1.1c-0.1,0.1-0.7,0.3-0.7,0.4L86.4,73.3
				C86.4,73.3,86.4,73.3,86.4,73.3z"/>
			<path class="st0" d="M207.4,46.3c-1.2,0.2-0.4-0.1-0.7,0.6c0,0.1,0.1,0.1,0.1,0.2c0.1,0.5,0.4,0.7,0.9,0.8
				C207.9,47.5,208.2,48,207.4,46.3L207.4,46.3L207.4,46.3z"/>
		</g>
		<g id="_2251000698000">
			<path class="st0" d="M173.4,41.2c0.3-0.2,0.7-0.5,1-0.7c0.4-0.3,0,0.1,0.3-0.3c0.6-0.6,0,0,0.5-0.5l-1.7-0.1
				C173.5,40.7,173.5,40.5,173.4,41.2z"/>
			<path class="st0" d="M98.5,98.5c0.3,0.6-0.9,0.7,0.5,0.5c0.2-1.7-0.2-1.7-0.3-2.4C97.7,97.6,99.1,97.4,98.5,98.5
				C98.5,98.5,98.5,98.5,98.5,98.5z"/>
			<path class="st0" d="M227.5,38.5l0.7-0.3l0-0.3l-0.4,0C227.2,38.1,227.8,38,227.5,38.5C227.5,38.5,227.5,38.5,227.5,38.5z"/>
		</g>
		<g id="_2251000697136">
			<path class="st0" d="M163.4,84.3l0.5-0.3l-0.1-0.6l0.5,0c-0.1-0.1-0.2-0.4-0.3-0.5l0.1-1.3C163.3,82,163.2,83.6,163.4,84.3
				C163.4,84.3,163.4,84.3,163.4,84.3z"/>
			<path class="st0" d="M105.3,75.2c0.6,0.4,0.3-0.6,0.4,0.9c0,0.4-0.1,1.1-0.1,1.6l0.4-2.2c0-0.3,0-1,0-1.2
				c-0.2-0.7-0.1-0.3-0.5-0.6L105.3,75.2C105.3,75.2,105.3,75.2,105.3,75.2z"/>
			<path class="st0" d="M144.5,59.5c0.7-0.6,0.4-0.4,0.7-1.5c0.1-0.6,0.3-1.1,0.4-1.5C144.8,56.9,144.6,58.7,144.5,59.5L144.5,59.5z
				"/>
			<path class="st0" d="M191.6,35.6l-0.4-0.3c-0.6,0.3-0.2-0.6-0.6,0.6C192.2,35.9,191.2,35.8,191.6,35.6L191.6,35.6z"/>
			<path class="st0" d="M54,89.6c1.4-0.4,0.9-0.1,1.4-0.9c-0.3,0.2-0.7,0.4-0.8,0.5C53.8,89.7,54.4,89.2,54,89.6L54,89.6z"/>
		</g>
		<g id="_2251000702224">
			<path class="st0" d="M190.3,35.3c1.4-0.7,0.7-0.2,0.9,0c0.2-0.1,0.5-0.2,0.6-0.3c1.2,0.1,0-0.2,0.4,0.5l1.2-0.9
				C192.3,34.6,191.3,33.9,190.3,35.3L190.3,35.3z"/>
			<path class="st0" d="M45.4,105.3c-0.3-0.9,0.1-0.4-0.3-0.8c-0.3,0.2-0.5,0.2-0.8,0.5c0.4,0.4-0.3,0.1,0.5,0.3
				C44.8,105.3,45.4,105.3,45.4,105.3C45.4,105.3,45.4,105.3,45.4,105.3z"/>
			<path class="st0" d="M205,57.9c0.2,0,1-0.2,1.2-0.2c1.2-0.4,0.5-0.2,0.9-0.5c-0.4,0.1-0.8,0.1-1.1,0.2c-0.1,0-0.4,0.1-0.5,0.1
				C205,57.7,205.2,57.7,205,57.9L205,57.9z"/>
			<path class="st0" d="M220.5,48.1l0.8-0.5c-0.5-0.5,0.6-0.4-0.6-0.4c-1.5,0-0.1-0.1-0.7,0.3l0.9,0L220.5,48.1L220.5,48.1z"/>
			<path class="st0" d="M215.8,54.7c0.2-0.2,0.5-0.4,0.9-0.9l-0.6,0.2L215.8,54.7L215.8,54.7L215.8,54.7z"/>
		</g>
		<g id="_2251000706160">
			<path class="st0" d="M178.7,82.7l0.7-2.1l-0.7,1l-1.1-0.6C177.4,82.2,177.5,81.7,178.7,82.7L178.7,82.7L178.7,82.7z"/>
			<path class="st0" d="M56.2,106.2l0.1,0.7l2.1-0.4c0.5,1.1,0.1,0.2,0.5,0.6c-0.4-0.7,0-0.2-0.5-0.7c-0.5-0.5-0.1,0-0.6-0.6
				L56.2,106.2C56.2,106.2,56.2,106.2,56.2,106.2z"/>
			<path class="st0" d="M101.4,62.4c0.3-0.7-0.6-0.4,0.6-0.6l0.5,1.4c0,0,0.1,0.1,0.2,0.2l0.3-0.6c-1.5-1.1,0.4-1.5-1.8-1.1
				C100.5,63.1,101,61.8,101.4,62.4C101.4,62.4,101.4,62.4,101.4,62.4z"/>
			<path class="st0" d="M150.7,86.7l0.8,0.3l-0.2,1.2c0.6-0.8,0.6-0.6,0.4-1.7L150.7,86.7L150.7,86.7L150.7,86.7z"/>
			<path class="st0" d="M195.8,51.9c0.2-0.3,0.2-0.1,0.4-0.7c0.2-0.4,0.1-0.4,0.3-0.8C195.8,50.9,196,51,195.8,51.9z"/>
			<path class="st0" d="M106,61.1c0.6-0.5,0.5-0.5,0.9-1C106.2,60.6,106.4,60.4,106,61.1z"/>
			<path class="st0" d="M57.9,87.7l0.8-0.5C58.2,87.3,58.3,87.2,57.9,87.7z"/>
		</g>
		<g id="_2251000710240">
			<path class="st0" d="M71.2,98.9c0.7,0.8,0.5,0.5,0.6,2.1c0.2-0.3,0.1-0.1,0.3-0.7c0.1-0.3,0-0.4,0.2-0.8c0.2-0.6,0.1-0.3,0.5-1
				c-0.4-0.4,0.5-0.5-0.5-0.3C71.7,98.9,72,98.6,71.2,98.9C71.2,98.9,71.2,98.9,71.2,98.9z"/>
			<polygon class="st0" points="144.8,67.5 145.4,67.6 145.3,66.9 145.9,66.8 145.9,66.3 144.9,66.3 			"/>
		</g>
		<g id="_2251204859440">
			<path class="st0" d="M207,71.7c-0.1,1.1,0.1,1.3,0,2.2c0,0.4-0.1,1.3-0.2,1.8c0.6-0.8,0.1-0.6,0.4-1.5c0.4-1.1-0.2-0.2,0.8-0.9
				c-0.2-0.4-0.3-0.4-0.4-0.6c0-0.1-0.1-0.2-0.1-0.2c-0.3-0.5-0.2-0.5,0.3-1.9L207,71.7L207,71.7L207,71.7z"/>
			<path class="st0" d="M167.8,22.3c0-0.5,0.1-0.4-0.5-0.3c-1.1-0.3-0.2,0.1-0.5-0.7c-0.7,0.6-0.5,0.4-0.9,1L167.8,22.3L167.8,22.3z
				"/>
			<path class="st0" d="M136.3,48.7c0.6,0,0.5,0.2,0.6-0.3c-0.3-0.4-0.1-0.3-0.7-0.6L136.3,48.7C136.3,48.7,136.3,48.7,136.3,48.7z"
				/>
			<path class="st0" d="M149.3,50.5c-0.6,0-0.5,0.2-0.4-0.4L149.3,50.5z"/>
		</g>
		<g id="_2251204859776">
			<path class="st0" d="M154,76.8c0.4-0.6,0.2,0.7,0.4-0.7c0.1-0.6,0-0.5-0.2-0.9l0.7-0.6l0.1-1.2C153.1,74.8,154,74.7,154,76.8
				L154,76.8z"/>
			<path class="st0" d="M100.6,67c0.1-0.2,0.2-0.2,0.3-0.7c0.1-0.4,0-0.5,0.3-1.1l-1,0.5C100.4,66.4,100.4,66.3,100.6,67
				C100.6,67,100.6,67,100.6,67z"/>
			<path class="st0" d="M121.6,79.9l0.7-0.8L121.6,79.9z"/>
		</g>
		<g id="_2251204860832">
			<path class="st0" d="M70.7,103.5c0.6-1,0.7-2.2,0.8-3.6C70.4,101,70.2,102.6,70.7,103.5z"/>
			<path class="st0" d="M92.9,103.6c0.7,0.7-0.1,0.1,0.9,0.6l0.1-1.3c-0.5,0.2-0.2,0-0.6,0.3c0,0-0.1,0.2-0.2,0.2
				C93.1,103.4,93,103.6,92.9,103.6C92.9,103.6,92.9,103.6,92.9,103.6z"/>
		</g>
		<g id="_2251204864336">
			<path class="st0" d="M153.8,99.9l0.5-1.3c0.1,1.2,0,2.5,0.6,3.3c0-1.1,0-3.2-0.5-4C153.6,98.5,153.8,98.8,153.8,99.9L153.8,99.9z
				"/>
			<path class="st0" d="M97.8,98.7l0.7-0.2c-0.2-0.5,0-0.3-0.5-0.6L97.8,98.7z"/>
		</g>
		<g id="_2251204864720">
			<path class="st0" d="M125.9,89.6l-0.3-0.5h-0.4c-0.1,1.4-0.2,2.6,0.3,3.7C126.1,91.9,125.8,90.7,125.9,89.6L125.9,89.6z"/>
			<path class="st0" d="M135.5,30.4c0.7-0.5,0.3,0.6,0.8-1.1l-1.2-0.2L135.5,30.4L135.5,30.4L135.5,30.4z"/>
			<path class="st0" d="M208.3,36l1-0.4l-0.8-1.2l-0.6,0.5l0.8,0.5C207.6,35.4,208.8,35.3,208.3,36z"/>
			<polygon class="st0" points="77.6,79.1 77.9,79.1 78.2,78.1 77.5,77.7 			"/>
			<polygon class="st0" points="102.7,63.3 103.2,63.6 103.6,62.8 102.9,62.7 			"/>
		</g>
		<g id="_2251204863328">
			<path class="st0" d="M213,73.6l1.1,0l0.1-2.3c-1-0.3-0.3,0.4-0.8-0.6C213,72,212.7,72.1,213,73.6C213,73.6,213,73.6,213,73.6z"/>
			<path class="st0" d="M48.1,98.1c1,0.3,1.1,0,1.6-0.7c-0.4-0.2,0.1-0.5-1.3,0.1l0.1-0.9c-0.5,0.5-0.1,0-0.4,0.8
				C48.1,97.5,48.1,98,48.1,98.1C48.1,98.1,48.1,98.1,48.1,98.1z"/>
			<path class="st0" d="M158.6,53.6c0.6-0.5,0.2,0.2,0.2-0.6c0-0.1-0.1-0.9-0.2-1c-0.4,0.4-0.5-0.4-0.5,1c0,1.2-0.3-0.5,0.1,0.3
				L158.6,53.6C158.6,53.6,158.6,53.6,158.6,53.6z"/>
		</g>
		<g id="_2251204867648">
			<path class="st0" d="M211,76.3c0.5-0.6,0.2-2.1,0.4-4l1-0.2l-0.1-0.7l-0.8,0.3l-0.1-1.4C210.6,70.9,210.9,75,211,76.3L211,76.3z"
				/>
			<path class="st0" d="M81,88.5c-1.9-0.1-0.5-0.1-1,0.3c1.1,0.5,0.1,0.3,1.4,0.3L81,88.5z"/>
			<path class="st0" d="M53.3,101.3c0.4,0.3-0.1,0.2,0.6,0.1c0.3-0.1,0.2,0,0.4-0.3C54.3,101.1,53.3,101.3,53.3,101.3z"/>
		</g>
		<g id="_2251204865296">
			<path class="st0" d="M90.5,108.4c0.9,0.9-0.1,2.8,0.7,4.2c0.1-1.2,0-6.5-0.4-7.2C90,106.5,90.3,107.1,90.5,108.4z"/>
			<path class="st0" d="M121,72.9c-0.9,0-0.3,0.2-0.7-0.2c0.3-0.9,0.5-1.5-0.4-2.1l0.1,2.8C121.7,73.3,120.5,73.3,121,72.9L121,72.9
				L121,72.9z"/>
			<path class="st0" d="M49.5,95.9c0.8-0.5,0.5,0,0.9-0.9c-0.1,0-0.2,0-0.2,0c-1.6-0.3-0.2,0.6-1.1-0.4c-0.2,0.2-0.4,0.4-0.7,0.7
				c0.3,0.2-0.9,1,1.2,0.1L49.5,95.9C49.5,95.9,49.5,95.9,49.5,95.9z"/>
			<path class="st0" d="M162.6,15.5l1-0.5c-0.3,1,0.1,0.2-0.5,1l0.1,0.2l1.5-1c-1.3-0.3-0.3-0.3-1.7-0.6
				C162.4,15,162.8,14.5,162.6,15.5C162.6,15.5,162.6,15.5,162.6,15.5z"/>
			<path class="st0" d="M126.4,51.9c0.1,0.1,0.3,0.3,0.4,0.4c0,0,0.1,0.2,0.2,0.2c0,0,0.1,0.1,0.1,0.2l2-0.5L126.4,51.9L126.4,51.9z
				"/>
			<path class="st0" d="M121.2,109.3c0.6-0.5,0.1,0,0.6-0.6c0-0.1,0.3-0.7,0.3-0.8C121.3,108.5,121.8,108,121.2,109.3z"/>
		</g>
		<g id="_2251204842160">
			<path class="st0" d="M125.2,89h0.4l0.1-3.1l0.7,0l0.1-0.9c-0.3,0-0.6,0.3-0.8,0.1c0-0.1-0.1-0.1-0.2-0.2l0.2-2.3
				c-0.6,1.1-0.5,1.7-0.6,2.9C125.3,86.8,125.2,87.8,125.2,89L125.2,89L125.2,89z"/>
			<path class="st0" d="M96.4,71.5c0.4-0.4,0.5,0.2,0.6-1.4l-1.1-0.4c0.1,0.1,0.1,0.1,0.2,0.2L96.4,71.5
				C96.4,71.5,96.4,71.5,96.4,71.5z"/>
			<path class="st0" d="M93.2,82.9c0.6-1,0.6-1.9,0.7-3c-0.1,0.2-0.1,0-0.4,0.8c-0.1,0.2-0.1,0.5-0.1,0.7
				C93.2,81.9,93.2,82.3,93.2,82.9z"/>
			<path class="st0" d="M55.6,107.2c-1.2,0.1-0.5,0.2-0.7-0.5c-0.4,0.6-0.4-0.6-0.3,0.7C54.9,107.4,54.9,107.6,55.6,107.2z"/>
			<path class="st0" d="M92.3,61.6c0.8-0.5,0.5-0.3,0.9-1C92.6,61.1,92.7,61.1,92.3,61.6z"/>
		</g>
		<g id="_2251204841920">
			<path class="st0" d="M64.2,133.2c0.6,0.5-0.8,0.5,0.9,0.4c-0.1-7.7-0.4-4.2,0.7-6.6c-0.6,0.3-0.2-0.3-0.5,0.3
				c-0.1-2.2,0.4-0.8-0.6-1c0,1.2-0.1,2.4,0,3.6C64.7,132.6,65.1,132.9,64.2,133.2L64.2,133.2L64.2,133.2z"/>
			<path class="st0" d="M75.3,91.2l1.3-1.1c0-0.1,0.1-0.1,0.2-0.2l-1.7,0.6C74.5,91.9,74.9,90.7,75.3,91.2L75.3,91.2z"/>
			<path class="st0" d="M61.6,127.7l0.6-0.4c0,1.5-0.2,0.7,0.5,1.4c-0.2-1,0-1.1-0.5-1.7C61.2,127.6,62,127,61.6,127.7z"/>
			<path class="st0" d="M98.3,69.4L98,68.7c1.8,0.1,0.9-0.1,1.1-0.4c-0.1,0-0.7,0.1-0.7,0.1c-1,0.3-0.2,0-0.7,0.3
				C98,69.8,97.6,69.1,98.3,69.4L98.3,69.4z"/>
			<path class="st0" d="M166.6,71l0.5-2.1c-0.1,0.1-0.2,0-0.5,1C166.5,70.8,166.7,70.4,166.6,71L166.6,71z"/>
		</g>
		<g id="_2251204846768">
			<path class="st0" d="M180.2,71.9c0.5-0.3,0.3,0.5,0.7-1c0.1-0.4,0-1.1,0-1.5c-0.1-1.3-0.3-1.1-0.3-2.6c-1.3,1.8-1.6,1-1.1,3.9
				l0.9-1.6L180.2,71.9L180.2,71.9L180.2,71.9z"/>
			<path class="st0" d="M132.7,53.6c0.2,0,1.5-0.4,1.6-0.4c0.8-0.4,0.4,0.1,0.7-0.9C133.4,52.8,133.3,52.1,132.7,53.6z"/>
			<path class="st0" d="M225.6,60.6c0.9,0,0.7-0.4,0.7-1.2c-1.1-0.6-1-0.3-1.2-0.3C225.2,59.9,225.4,60,225.6,60.6L225.6,60.6
				L225.6,60.6z"/>
		</g>
		<g id="_2251204844512">
			<path class="st0" d="M168.6,64.1l0.7-0.3l0.2,3.6c1-0.7,0.2-5.3,0.1-6.6C169,61.6,168.7,62.9,168.6,64.1
				C168.6,64.1,168.6,64.1,168.6,64.1z"/>
			<path class="st0" d="M71.2,98.9c0.8-0.4,0.5-0.1,1.1-0.7c1.1-0.1,0.1-0.1,0.5,0.3l0.3-0.6l-0.9-0.3l-0.1-1.3
				c-0.5,0.6-0.3,0.2-0.5,1.3C71.4,98.2,71.4,98.3,71.2,98.9z"/>
		</g>
		<g id="_2251204843888">
			<path class="st0" d="M213,76.1c-0.3,2.7-0.1,3.7-0.1,6.1c0,1.6,0,1.4-0.6,2c-0.2,1.1-0.3,1,0.5,1.8l0.4-5.9
				c0-1.9,0.2-1.5,0.5-1.7l0-0.9c0.7,0.8,0.3,0.2,0.3,1.1l1.6-1.8c-1-0.4-0.3-0.1-1.2-0.9C213.3,76.2,214.2,76,213,76.1
				C213,76.1,213,76.1,213,76.1z"/>
			<path class="st0" d="M166,73.3c0.6-0.8,0.2-0.8,1.1-1.3l0-0.4c-0.4-0.2,0,0.9-0.2,0c0,0-0.1,0,0,0l-0.2-0.5L166,73.3L166,73.3
				L166,73.3z"/>
			<polygon class="st0" points="136.4,94.4 137,94.7 136.9,94 137.6,94.2 137.1,93.4 			"/>
			<path class="st0" d="M134.3,27.4c0.5,0.3,0.5,0.3,0.9,0C134.1,26.7,134.5,27.3,134.3,27.4z"/>
		</g>
		<g id="_2251204846960">
			<path class="st0" d="M146.2,64.3c0,0.9,0.3,1.2-0.5,1.6l0.2,0.3l0,0.5l-0.1,0.8l-0.4,0l-0.6-0.1l-0.1,0c0.3,0.8,0.4,0.6,1,1
				l-0.3,0.6l-0.7,2.7c-0.1,1.7-0.7,3.5-1,5.3c-0.3,1.8-0.7,3.4-1,5.3c-0.7,3.9-1.1,6.6-3.2,9.5l0,0.6l0.6,0c1.3-0.9,7.7-8,9.7-9.6
				l0.6-0.4c0.6-1.5,1.4-2.4,1.9-4c0.4-1.6,0.5-3.6,1.1-4.6l0.3-0.7c-0.4-0.9,1.3-7.7,1.8-8.7l0-0.3c0-0.8-0.2-1.3,0.6-1.7l0.6-3.6
				l-0.2-1.1c0,0-0.1-0.1-0.1-0.1c0,0-0.1-0.1-0.1-0.1l-0.4-2.8c-0.8,0.4-1.1-0.1-2.6,0.4l0.3-1c0.2-1,0.6,0.1,0-0.4
				c-1.3,0.3-3.8,2.9-4.7,4.4C147.3,60,147.1,62.8,146.2,64.3L146.2,64.3L146.2,64.3z"/>
			<path class="st0" d="M164.6,15.2l-1.5,1c-0.9,0.7-0.8,0.6-1.2-0.1l1.1-0.1c0.6-0.8,0.2,0,0.5-1l-1,0.5c-1.7,0.2-1.3,1.5-2.8,2.7
				c-1.3,1-2.4,1.3-3,3.1c-2.8,7.8-4.1,18.2-5.9,24.2c-0.3,1.1-1.3,3.8-1.3,4.5l0,0.2c1.2-0.2,3.8-2.5,5-3.3
				c2.4-1.6,4.8-3.1,6.1-5.4l-0.6-1.2l0.4-1c0-0.1-0.2-0.1-0.3-0.2l0.5-0.8l3.3-13.5l-0.2-1l0.7-0.6c1.6-5.2,1.9-6.8,5-10
				c-0.1-0.5,0.4-0.4-0.6-0.4l-0.4,0C167.7,13.7,165.6,14.3,164.6,15.2L164.6,15.2L164.6,15.2z"/>
			<path class="st0" d="M136.3,29.3c-0.5,1.7-0.1,0.6-0.8,1.1l0,0l0.3,0.7l-0.3,0.9c-1,3.4-1.8,6.8-2.7,10.2
				c-0.6,2.1-3.1,8.8-3.1,9.9c1-0.4,3.4-2.1,4-2.7c0.5-0.5-0.7-0.6,0.8-0.3c0.7,0.6-0.1,0.2,1.1,0.3l0.6-0.6l-0.1-0.9
				c0.6-0.9,3.2-2.4,4-3.2c0.3-0.9-0.1-0.6,0.9-1.1l2.4-8.8l0.7-2c0.4-3.4,3-9.3,4.1-12.5l-0.2-0.4
				C144.3,22.2,138.1,26.6,136.3,29.3L136.3,29.3L136.3,29.3z"/>
		</g>
		<g id="_2251204848112">
			<path class="st0" d="M70.7,103.5c-0.5-0.9-0.3-2.5,0.8-3.6C71.4,101.2,71.3,102.5,70.7,103.5z M81.1,102
				c-0.2-0.2-0.6,0.6-0.3-0.9c0.1-0.4,0.5-0.6,0.6-0.7c0,0.1,0.4-0.4,0.1,0.8C81.4,101.4,81.1,102,81.1,102L81.1,102z M50.9,93.5
				c0.3-1-0.3-0.6,1.2-1C51.8,93.3,51.9,93.3,50.9,93.5z M93.2,82.9c0-0.5,0.1-1,0.1-1.5c0-0.2,0.1-0.5,0.1-0.7
				c0.2-0.8,0.3-0.6,0.4-0.8c0.2-3.7,0.8-4.1,2.6-3.6c0.5,1.7-3.4,12.3-4.4,13.5L93.2,82.9C93.2,82.9,93.2,82.9,93.2,82.9z
				 M103.9,82.2c-0.5,0.7,0.3,0.4-1.1,0.6c0.1-1.9-0.1-0.2,0.4-0.9l-0.1-0.1l0.8-1.7l0.6-2c0.2-0.9-0.1-0.2,0.2-0.8
				c0.2-0.4,0.2-0.4,0.4-0.6l0.2-1.5l0.3-1.5c0.3,0.3,0.3-0.1,0.5,0.6c0.1,0.2,0,0.9,0,1.2l-0.4,2.2l0,3.9L103.9,82.2L103.9,82.2
				L103.9,82.2z M141.9,50l-0.9,0.6c-1.5,1.1-2.8,2-4.6,2.9l-1.7,0.5c-1.2,0.1-4.5,0.4-5.4-0.7l-0.2-0.4c-0.2-0.5-0.3,0.1-0.1-0.8
				l-2,0.5c-0.8,0.5-1,0.6-1.6-0.1c-1.5,0.1-2,0.7-2.7,1.7c-0.6,0.8-0.9,1.7-1.8,2.2c-0.4,1.3-1.6,2.6-2.6,3.7
				c-1.6,2-1.6,1.3-1.1,4.2l0.7,1.5l0.1,0.7c0.5,0.4,0.5,0.4,0.9,1l1,3c0.9,0.5,0.6,1.2,0.4,2.1c0.4,0.4-0.2,0.2,0.7,0.2
				c1.2-0.5,6.2-4.2,7.6-5.1l-0.1-2.4c2.6-0.7,5.3-2.4,7-3.6l0.7-0.7c0.6-0.4,0.1,0,0.7-0.4c-0.1,1.3,0.1,1.1-0.7,1.9
				c0.3,1.4-1.7,8.6-2,10.7l0,1c-0.2,1.5-0.2,0.6-0.5,1c-0.6,3.6-3.3,17.9-4.6,20c-0.3,0.6-0.1,0.4-0.6,0.7
				c-0.5-0.4-0.1,0.1-0.3-0.8c-0.6-0.7-0.9-0.9-1.1-2.3c-0.4-0.4-0.2,0.4-0.5-1.1l-0.4-4.6c0,0.1-0.1,0.1-0.1,0.2l-0.5,1.1
				c0,0-0.1,0.1-0.1,0.2l0.2,0.7c-0.1,1.2,0.2,2.4-0.4,3.2c-0.6-1.1-0.4-2.3-0.3-3.7c-0.1-1.3,0.1-2.3,0.1-3.5
				c0-1.2-0.1-1.8,0.6-2.9c0-3,2-7.7,3.2-9.5c0.9-2-0.9,0.6,1-1.4l0.1-0.2l0.3-1c-1.3,0.3-0.7,0.1-1.6,0.9c-1,0.6-5.6,6.3-6.6,7.6
				l-0.7,0.8c-0.7,0.7-1.6,1.8-2.2,2.5c-0.6,0.8-1.2,2.3-2,2.6l-1.5-18.8l-0.1-1.7c-0.5-0.8-0.5-1.5-0.5-2.5c0-1.1-0.1-1.5-0.2-2.7
				l-0.7-4.7c-0.7,0-1,0.1-1.7,0.5L112,56c-1.2,1.1-3.9,3.5-5.1,4.1c-0.4,0.5-0.3,0.5-0.9,1c-0.9,0.4-1.4,1.3-2.5,1.7l-0.3,0.8
				c-0.7,0.4,0.9,0.6-0.9,0.3l0.4-0.6c-0.1-0.1-0.1-0.1-0.2-0.2l-0.5-1.4c-1.1,0.2-0.2-0.1-0.6,0.6l0-0.1c0.2,0.3,0.2,0.2,0.4,0.7
				c0.2,0.4,0.1,0.3,0.2,0.7l-0.6,0.4l-0.3,1.2c-0.2,0.6-0.2,0.7-0.3,1.1c-0.1,0.5-0.2,0.5-0.3,0.7l-0.4,1.6l-1.1-0.3
				c-0.2,0.3,0.7,0.5-1.1,0.4l0.2,0.6l1.1,1.3l-0.6,1.8c-0.1,0.3-0.1,0.5-0.3,0.8c-0.2,0.5-0.3,0.4-0.4,0.6l-0.3,0.9l-0.3,1.1
				c-1.7,0.3-0.2,0.1-0.9-0.4c-0.6-0.5-0.8-0.1-2,0.1c0.2-1.3,0.1-0.9,0.9-1.6c0.3-0.4,0.1-0.3,0.9-0.7l-0.1-1.8l-0.3-1.5
				c0-0.1-0.1-0.2-0.2-0.2c0.7-2.3,1.4-4.6,2.1-6.9c0.6-2,2.1-4.9,2.3-6.6c-0.8-0.3-0.7-0.3-1.6-0.5c-0.1,0.9,0.1,0.1-0.2,0.8
				c0,0.1-0.1,0.3-0.2,0.2c0,0-0.1,0.1-0.2,0.2l-0.6,0.3c-0.8,0.6-3.7,3.1-4.3,3.3c-0.4,0.8-0.1,0.5-0.9,1c-2.3,1.3-4.2,4.3-4.7,7
				c-0.5,2.5-0.9,1.8-1.3,2.6c0.3,1.2,0.3,0.2,0.4,1.1c0.1,1.2-0.2,0.9-0.4,1l0,1.5l-0.2,0.9l-1.2,0.1c-0.4,1.4,0.1,0.6-0.8,1
				l-0.7,0.3c-1.7,0.6-3.2-0.2-3.9,1.1c-0.1,0.1-0.2,0-0.3,0.2c-0.5,1.1-0.1,0-0.6,0.3c-0.5,0.2-0.3,0-0.8,0.5l-0.2,0l-1.3,0.5
				c-0.7,0.7-0.5,0.5-1.2,0.6c0.1-0.9-0.2-0.2,0.2-1.1c0.3-0.7,0-0.2,0.4-0.6l0.9-6c0.1-0.5,0.2-1.1,0.3-1.6
				c0.3-0.9,0.1-0.5,0.5-1.1l1.6-5.7c0.3,1.5-0.1,0.5,0,2.1l0.4,0.5l0.9-5.6c0.1-0.7-0.2-0.5,0.6-1.4l0.5-0.3l0.6-2.9
				c-2.7,0.1-2.3,0.6-4.3,1.8c-0.4,0.5,0,0.3-1,0.6c-0.8,1.1-2.7,2.4-3.5,3.2c-1.2,1.3-2.4,1.6-2.9,3.6l-0.3,0.5
				c0,0.1-0.1,0.2-0.1,0.2L69.8,67c-0.1,2-0.7,3.3-1.6,4.6l0.1,1.1l-0.7,0.5c-0.8,1,0.3,0.6-1.2,1c0.5,0.9-0.3,0,1.3,1
				c-0.1,0.9,0,0.9-0.5,1.6l-1.1,4.5c0,0-0.1,0.9-0.1,1c-0.4,1.2-0.3,0.6-0.5,0.9l-0.3,1.1c-0.5,1.1-1.4,0.9-2.7,1.1l-2.1,0.9
				c-0.3,0.4,0.1,0.3-0.7,0.6c-0.2,0.1-0.8,0.2-1,0.2l-0.8,0.5l-2.5,1c-0.5,0.8,0,0.6-1.4,0.9c-0.6,0.1-0.9,0.4-1.2,0.6
				c-0.3,0.4-0.1,0.3-0.5,0.6c-0.5,0.5-0.2,0.2-0.6,0.5c-0.5,1-0.5,0.6-1.4,1.5c-0.5,0.4-1,1.2-1.3,1.6c0.9,0.9-0.4,0.1,1.1,0.4
				c0,0,0.1,0,0.2,0c-0.4,0.9-0.1,0.5-0.9,0.9l-1,0.8l-0.1,0.9c1.3-0.6,0.9-0.4,1.3-0.1c-0.5,0.7-0.6,1-1.6,0.7
				c-0.3,0.3-0.9,0.7-1.2,1.1c0,0.1,0,0.1,0,0.2l0.2,0.3c0,0,0.1,0.1,0.2,0.2c0,0,0.1,0.1,0.2,0.2l-0.5,2.1
				c-0.1,0.1-0.1,0.1-0.2,0.2l-0.7,1c0,0-0.1,0.1-0.2,0.2c-0.7,0.4-0.6,0.3-0.8,1c0.4,0.5,0-0.1,0.3,0.8c0.3,0.8-0.1,0.3,0.6,0.6
				c-0.1-1.7-0.6-1.7,0.9-2.2l0,1.7l-0.1,0.8l0.7-0.1c1.5-0.3,0.7-0.5,1.2-1.6c0.4-0.9,3.4-3.7,4.4-3.2l1-0.2c0.3-1.4,2-1.9,3.3-2.5
				c1.4-0.6,2.7-1.3,3.9-1.8l0.4-0.3c1.5-0.4-0.8,0,0.6-0.1c-0.2,1.5-0.1,0.6-0.5,1c0,1.4-0.7,4-1.1,5.5c-0.4,1.6-0.2,1.1-1.5,1.8
				c-0.8,0.5-1,0.8-1.7,1.2c0.5,0.6,0.1,0.1,0.6,0.6c0.5,0.5,0.1,0,0.5,0.7c0.8-0.1,0.4-0.1,1.2-0.2c0,0.5,0.2,0.1,0,0.9
				c-0.2,0.7-0.1,0.2-0.4,0.6l-1.3,7.2c0.1,0.2,0.2,0.5,0.1,0.7c-0.2,0.9,0.2,0.4-0.5,0.9c-0.5,1.9-2.5,13.1-2.3,14.8
				c2.2,0,4.4-3.5,6-4.2c0.4-0.8-0.4-0.2,0.6-0.7c0.5,0.6,0.3,0.7,0.5,1.7c0.6-0.4-0.2,0.8,0.3-0.5c0.3-1-0.2,1,0.1-0.4
				c0-0.2,0-0.6,0.1-0.9c0.3-0.7-0.2-0.5,0.5-0.6l0.4,3.3l0.1,3.6c0.9-0.3,0.4-0.6,0.4-3.3c0-1.2,0-2.4,0-3.6c1,0.2,0.5-1.1,0.6,1
				c0.3-0.6-0.1,0.1,0.5-0.3l0-3.2l0.7-0.8l0.4-0.4c0,0,0.1-1,0.1-1c0.4-1.5,0-0.4,0.5-0.9c0.1-3.1,1.5-6.8,2.1-9.9
				c0.5-2.5,2.7-7.3,2.2-9.8c-0.1-1.6,0.1-1.4-0.6-2.1c0.2-0.6,0.2-0.8,0.4-1.4c0.3-1.1,0-0.7,0.5-1.3l0.2-3c0.3-1.1,0-0.9,0.6-1.3
				c0.2-0.3-0.5-0.5,1.3-0.5c1.8-0.1,0.6,0.4,1-0.2c-0.4-0.5-0.8,0.7-0.2-0.7l1.7-0.6l0.8-0.1c0.7-0.6,0.5-0.5,2.1-0.9l0.3,0
				c0.5-0.4-0.8-0.5,1-0.3c0.3-0.7,0.8-0.6,1.6-0.8l0.1,0c0.5-0.4-0.9-1,1.1-0.3c0.1,1.5,0,0.4-0.3,0.9l-0.4,3.8c0,1,0.1,1-0.5,1.5
				l-0.4,2.8c0,0.5,0.1,0.8-0.1,1.3c-0.3,1.2-0.2,0.6-0.5,0.9l0.1,1.2l-1.2-0.1c-1.1-0.7-0.1-0.2-0.5,0.1l-0.4,0.3
				c0,0-0.1,0.2-0.2,0.2l-0.2,0.9l1.8,1.4l0.1,3.8c1.2-0.3,0.8-0.1,1.7-1.2c0.5-0.6,0.5-0.8,1.1-1c0.4-1,0.1-0.6,0.7-1
				c1.2-1.6,2.8-2.9,4.2-4.7c0.4-0.6-0.4-0.5,0.8-0.5c0,1.7,0,0.5-0.4,0.9l-1.1,4.1l-0.5,1.6c-0.4,1.5-0.5,1.5-0.4,3.3l1.2-0.5
				c0.1-0.1,0.1-0.3,0.2-0.2c0,0.1,0.1-0.2,0.2-0.2c0.5-0.3,0.1-0.1,0.7-0.4l0.6-0.5c0.1,1.4-0.2,1.4,0.6,1.9
				c-0.2-1.3-0.5-1.9,0.3-3c0.4,0.7,0.4,5.9,0.4,7.2c-0.2,1.1-0.3,1,0.2,1.7c0.6-0.9,0.3-7.9,0.4-9.7l1.1-1c0-0.1,0.1-0.3,0.1-0.2
				c0,0.1,0.1-0.2,0.2-0.2c0.5-0.3,0.1-0.1,0.6-0.3c0.2-0.4-0.1-0.3,0.7-0.7c0.8-1.2,2.7-1.7,3.2-3.5L98,98c0.5,0.2,0.2,0,0.5,0.6
				c0.6-1.1-0.8-1,0.2-1.9c0.8-3.1,0.3-2.5,2.9-3.9c1.4-0.7,3.3-1.9,4.6-2.3c0.3,2.7-0.1,4.8-0.2,7.3c-0.1,2.1,0.5,4.5,0.7,6.6
				c2.4-4.1,2.1-1,3.9-4.2c1.2-2.2,3.4-2.9,3.6-4.3l0.9-0.7c0.9,1.5,0.2,0.6,0,0.9c-0.4,4.8,0,6,1.7,9.8c0.1,0.1,0.2,0,0.2,0.2
				c0,0.1,0.2,0.1,0.2,0.2c0.3,0.3,0.2,0.2,0.6,0.6l1.6,1.2l0.1,1.8c0,0.1,0.1,0.2,0.1,0.2l0.6-0.3c0-0.1,0-0.2,0.1-0.2
				c0-0.2,0.1-0.8,0.1-1c0.3-0.7-0.5-0.5,0.6-0.5l0.5,1.3l-0.1,0c0.5-1.3,0.1-0.7,0.9-1.4c1.5-0.1,2.2-0.6,3.5-1.3
				c0.4-0.5-0.5-0.2,1-0.6c2-2.1,3.4-3.2,5.3-5.5c1.7-2.1,2.7-3.9,4.5-6l0.8-1c1.5-5.2,2-3.6,3.4-12c0.3-1.5,2.5-11.6,2.4-12.6l0-1
				c0.6,0.3,0.4-0.2,0.7,0.4l0.3-0.8c-0.7-0.2-0.5,0.1-0.6-0.7l1.1-7.1c0.2-0.9,0.3-2.7,1.1-3l0.1,0.1l-0.2-0.7
				c0.2-2.1,1.9-7.6,1.3-9.2c-1.3-0.1-2,0.8-2.7,1.4C143.3,48.8,142.5,49.3,141.9,50L141.9,50L141.9,50z"/>
			<path class="st0" d="M151.2,86.1c1.2-0.9-0.8-0.3,0.8-0.9C151.7,86.2,152.3,85.6,151.2,86.1z M209.5,34.1l-0.4,0.8
				c1.2,0.1,0.3-0.4,1,0.4l-0.8,0.3l-1,0.4l0.1,0.2c-0.4,1.2-0.4,1.2-1.7,1.3c-1.2,0-1.5-0.2-2.2,0.3c-0.6,0.4,0.7,0-0.9,0.4
				c-0.4,0.1-0.8,0.1-1.2,0.2l-2.1,0.6l-0.9,1.2c-0.4,1.6-3,6.4-3.8,7.9c0.2,0.6-0.5,0.5,0.7,0.4c1.1,0.1,0.5,0,0.9,0.3l-0.6,1.8
				c-0.1,0.4-0.1,0.4-0.3,0.8c-0.2,0.6-0.2,0.4-0.4,0.7l-1.2,3.3c-0.2,0.7-0.1,0.6-0.3,1.1c-0.2,0.5-0.2,0.2-0.5,0.5l-1,3.7l-0.4,1
				c-0.1-0.1-0.2-0.1-0.3-0.7c-0.1-1.5,0-0.2,0.3-0.8l0.3-2.9l0.5-0.1c0.3-1.3,0.3-0.6,0.3-1.8c-0.3-0.5,0.1,0.1,0.2-1
				c0-0.3-0.1-1.1-0.1-1.8c0-1.2-0.1-1.9,0.5-2.8c0.5-0.5,0.4-5.7,0.5-7.1c0.2-2.6-0.2-4.8,1.4-6.3c0-0.6,0.2-0.5-0.5-0.5l0,0
				c-0.6,0.4,0.8,0.6-0.8,0.3l0.1-1.9l-0.4-0.1l-1.1,0.3l-1.2,0.9l-0.6,0.1c-0.4,0.3,0.6,0.3-1,0.4c0.4-1.2,0-0.4,0.6-0.6
				c-0.2-0.3,0.5-0.7-0.9,0l-0.6-0.1c0,2.2,0.6,1.3-1,2.7c-1.9,1.6-1.1,0.5-2.8,1.3l0.7,0.5c0-0.1,0.1,0.1,0.2,0.1l-0.7,0.4
				c-0.9,0.7-3,2.4-3.7,3.3l-2.3,4.1c0-0.1-0.1,0.1-0.2,0.2l0.1-10.5l-2.4,1c-0.3,0.5-0.2,0.4-0.6,0.8c-0.7,0.3,0.9,0.6-0.9,0.3
				c-0.1-1.2-0.1-0.3,0.3-0.7c0.4-0.5,0.5-0.6-0.4-0.5c-0.1,0.4-0.7,1.3-0.9,1.7c-0.5,0.6,0.2-0.1-0.5,0.5c-0.4,0.4,0,0-0.3,0.3
				c-0.2,0.2-0.7,0.5-1,0.7c-0.5,0.2-0.6,0.2-1.1,0.3c-0.5,1-0.3,0.6-1.3,1.2c-2.1,1.6-7.4,4.7-8.5,7.4c-0.2,0.6,0.1,0.1-0.3,0.8
				c-0.3,0.4-0.2,0.3-0.5,0.6l-1.4,3.7c0,0.4,0,0.9-0.1,1.3c-0.2,0.6-0.2,0.4-0.5,0.6c-0.8,2.5-4,13.1-4.1,15.2
				c-0.1,0.3-0.1,0.4-0.3,0.7c0,0-0.1,0.2-0.1,0.2c0,0-0.1,0.1-0.2,0.2l0.1,0l-0.1,1.2l-0.7,0.6c0.2,0.4,0.3,0.3,0.2,0.9
				c-0.1,1.4,0.1,0.1-0.4,0.7l-2,8l-1.2,0.1l-0.7,1l0.6,0.8l1-0.2c0.2,1.1,0.2,0.9-0.4,1.7l-0.5,2.3c-0.3,0.3-0.1,0.2-0.6,0.5
				c0,0-0.2,0.1-0.2,0.1c0-0.1-0.2,0-0.2,0.1c0.7,0.3-0.9,0.6,1.1,0.2l-0.4,1l-1.2,6.1l0,1.1l1.5-0.2l1-0.2c0.8,0.1,0.3,0.2,0.5,1.3
				c0.1,0.4,0.1,0.9,0.2,1.4l0.9,0.1l0.4-2c0-1.2-0.2-1.4,0.6-2c0.4,0.8,0.4,2.9,0.5,4l0.4,0c0.3-1.8,0-4.8,0.9-6.1
				c0.9,1.2-0.1,1.4,0.6,2.6c1.4-1.6-1.3-2.1,2.7-5.7c2-1.8,2.4-1.8,2.9-5.1c0-0.1,0.1-0.9,0.1-1c0.1-0.5,0.2-0.5,0.4-0.8l0.5-1.7
				c-0.2-0.7-0.1-2.3,0.8-2.7l0.3-2.2c0.1-0.9-0.2-1.4,0.6-1.6c-0.4-1.2,0.6-3.3,0.9-4.5l0.7-2.4c0-0.6-0.2-0.1,0.1-1.1
				c0.2-1,0.4-0.8,0.5-1l1.4-4.8c0.1-1.3,0.4-2.5,1-3.3c0.1,1.4,0.9,5.9-0.1,6.6l0.4,4.7c1.5-0.9,3.4-3.4,4.7-4l0.1,2.7l0.8,0.3
				c-0.1-5.4-0.3-3.5,2.4-6.3c1.4-1.5,2.5-4.2,3.5-5.1l0.3-0.9l0.4-0.7c0.5,0.2,0.4-0.7,0.3,0.7l0,1.3c-0.1,0.2-0.9,4.6-0.9,5
				l-0.8,0.7l-0.2,1c-0.1,1.5,0.1,1.3,0.3,2.6c0,0.4,0.1,1.1,0,1.5c-0.4,1.5-0.2,0.7-0.7,1c-0.3,0.6-0.4,0.4,0,1.2
				c0,0,0.1,0.1,0.1,0.1c0.7,1.4-0.7,4.8-0.9,7.3l-0.7,2.1c-0.2,1.2-0.1-0.2-0.4,0.8c-0.3,1.3,0-0.1-0.1,1c-0.1,0.9-0.3,1.3-0.3,2.2
				c-0.3,1-0.2,0.3,0.3,0.6l1.6-1.2l0.7-0.5c0.1-0.1,0.2-0.1,0.3-0.1c0.8-0.9,4-2.7,5.4-4c0.6-0.6-0.8-0.6,0.7-0.5
				c0.4,1,0.3,1.6,0.3,2.8c-0.1,1.2-0.3,3.4,0.4,4.2c0.5-1,0.2-5,0.2-6.4l0.4-1.7c0.2,0.4,0.2-0.3,0.3,1c0,0.1,0,1,0,1.1
				c1.2-0.6,0.4,0.2,0.7-1.1c0,0,0.1-1,0.1-1.2c0.2-1.3,0.3-0.8,0.6-1.9c0.6-2.2-0.2-2.9,2.3-3.1c0.4-0.4-0.2-0.1,0.7-0.6
				c0.4-0.2,0.5-0.2,0.9-0.3l1.6-0.4c0.3-0.4,0-0.6,1.1-0.5c0.3,0,0.4,0.2,1,0.4c0.3-0.8,0-0.4,0.5-0.5c0.3-0.5-0.2-0.2,0.6-0.6
				c0.4-0.2,0.5-0.1,0.9-0.2c1.2,0,2.3-0.6,3.7-0.9l1.4-0.6c0.4,1,0.5,2.8,0.1,3.7l0,0.2l0.9,0.6c0,0.9-0.2,2,0.3,2.3l-0.2-0.3
				c-0.9-4.2,1.1-4.9,1.2-5.2c0-0.1,0.1-0.1,0.1-0.2l0.7-1.1c0.3-1.1,0.8-1.1,2.1-1l0.4,1.1l0.1,5.3l0.6,0.3c0-1.3-0.4-5.4,0.5-6
				c0-0.8-0.2,0,0.1-0.8c0.1-0.4,0.2-0.3,0.4-0.4c0.5,0.8,0.3,1.2,0.4,2.3l0.1,0.7c-0.2,1.3-0.1,2.1-0.1,3.4c0,1.8-0.4,1.8-0.6,2.8
				c-0.3,2.4,1.2-0.2,0.6,5.8c0.6-0.6,0.6-0.4,0.6-2c0-2.4-0.2-3.4,0.1-6.1l-0.1-2.5c-0.2-1.5,0-1.5,0.3-2.9
				c0.5,1.1-0.1,0.3,0.8,0.6c0-1.5,0-2.1,1.2-2.8c1.2-0.8,1-0.6,1.9-1.7c1.2-1.4,2.4-2.6,3.3-3.9c0.2-0.4,0.1-0.3,0.4-0.6
				c0.3-0.4,0.2-0.2,0.6-0.5l0.4-0.5c0.7-0.9,0.5-0.9,1.5-1.6l0.4-1.2c-4-0.7-13.3,2.4-17.6,2.6c-0.4,0.3,0.3,0-0.7,0.4
				c-0.2,0.1-0.3,0.1-0.5,0.1c-0.4,0.1-0.9,0.1-1.4,0.2l-1.8,0.2l-1.1,0.4c0.2-1.4,0.2-0.7,0.5-1l1.3-3.2l0.7,0
				c0.6-0.9,0.5,0.5,1.6-0.4c0.2-0.2,0-0.2,0.5-0.4c0.1,0,0.4-0.1,0.5-0.1c0.4-0.1,0.8-0.1,1.1-0.2l1-0.1l0.1,0.7
				c0.5,0.2,0.2,0.2,0.8,0.2c0.4-1.3-0.1-0.8,0.8-1.5l1.7-0.2c0.3-0.2-0.2-0.1,0.7-0.4c0.1,0,0.4-0.1,0.5-0.1
				c0.5-0.1,0.9-0.1,1.5-0.2c1,0,0.4-0.2,1,0.3c0-0.1,0.1-0.1,0.1-0.2c0,0,0.1-0.1,0.1-0.2l0.5-0.8l0.4-0.6l0.6-0.2
				c0.2-1.4,3.2-4.2,3.8-5.8l0.3-0.6l-0.9,0l-13.8,2.1c-0.3,0.2,0,0.2-0.6,0.3c-1.4,0.2,0.3,0.2-0.4-0.2c0.2-1.1-0.1-0.3,0.5-0.6
				l1-2c0.3-0.7-0.5-0.4,0.7-0.6l7.5-1.2l1.2-0.5c1.2,0.1,6.7-0.6,7.6-1.2c0.6-0.4,3.3-4.1,3.8-4.8c0.3-0.6-0.3-0.5,0.3-0.6l0.4,0
				l0.5-1.2c0.6,0.3,0.4-0.6,0.5,0.6c0.2,0.2-0.2,0.4,0.1,0l0.5-2.1l-0.2-0.6l-2,0l-7.2,0.7l-7.2,0.8l-0.8,0.3l-0.5-1.2l-0.1-0.1
				c-1.3-0.3-0.5,0-1.1-0.7c-0.6-0.4-0.2,0.1-0.7-0.8L209.5,34.1L209.5,34.1L209.5,34.1z"/>
		</g>
		<path class="st0" d="M158.1,49.1l-0.9,1c-1,0.4-3.4,2.6-3.8,3.4c0.6,0.5,0.2-0.6,0,0.4l-0.3,1c1.6-0.5,1.8,0,2.6-0.4l0.4,2.8
			c0,0,0.1,0.1,0.1,0.1c0,0,0.1,0.1,0.1,0.1l0.2,1.1c0.7-0.6,0.8-2,1.2-2.9c0-0.8-0.2-1,0.4-1.2l0.6-0.9l-0.3-0.3
			c-0.4-0.9-0.1,0.8-0.1-0.3c-0.1-1.4,0.1-0.6,0.5-1l0.5-1.1c0.2-0.7,0-0.2,0.3-0.8c0-0.1,0.1-0.1,0.2-0.2c0-0.1,0.1-0.1,0.2-0.2
			l1.4-1.9c-0.2-0.4,0.4-0.3-0.6-0.3C159,47.7,159.5,48.4,158.1,49.1L158.1,49.1L158.1,49.1z"/>
		<path class="st0" d="M205.7,77.2c0.6-0.5,0.3-2.3,0.4-3.3c0.4,0.9,0.3,0.9,0.3,2l0.5-0.2c0.1-0.5,0.2-1.4,0.2-1.8
			c0-0.9-0.1-1.1,0-2.2c0,0.1-0.1,0.1-0.1,0.2C206.8,72.3,204.7,73,205.7,77.2z"/>
		<path class="st0" d="M205.9,77.5c-0.6-0.3-0.3-1.5-0.3-2.3l-0.9-0.6l0,0.7l0.6,0.2c0,1.6-0.3,6.1,0.3,7.3L205.9,77.5L205.9,77.5z"
			/>
		<path class="st0" d="M175.5,71.2l-0.8-0.3c0,1.3-0.3,3.4,0.4,4.3C175.7,74.2,175.4,72.4,175.5,71.2L175.5,71.2L175.5,71.2z"/>
		<path class="st0" d="M160.1,40.1h0.4l1.5-0.3l-0.4-1.4l-0.4,0.3c-0.9,0,0.1,0.2-0.4-0.5l-0.5,0.8c0.1,0.1,0.3,0,0.3,0.2
			L160.1,40.1L160.1,40.1z"/>
		<path class="st0" d="M192.2,74.8l0.6,0.4l2,0c-0.6-1.1-0.6-0.1-1-1.3c-0.5,0.1-0.5,0.1-0.9,0.3C192,74.7,192.6,74.3,192.2,74.8
			L192.2,74.8z"/>
		<path class="st0" d="M225.6,60.6l-0.4,0.1c-0.2,0.7-0.3,0.3,0.1,1.1c0.4,0,0.3,0,0.6-0.1c0.3-0.5,0-0.4,0.8-0.7l0-0.3l0.1-0.9
			c-0.3-0.5,0.5-0.6-0.5-0.3C226.3,60.1,226.6,60.6,225.6,60.6C225.6,60.6,225.6,60.6,225.6,60.6z"/>
		<path class="st0" d="M82.5,93.6c0.6-0.5,0.5-0.5,0.5-1.5l-1.4,0C82.2,94,82,92.2,82.5,93.6C82.5,93.6,82.5,93.6,82.5,93.6z"/>
		<path class="st0" d="M170.9,41.6c0,0.1-0.1,0.1-0.1,0.2c0,0.1,0,0.1,0,0.2c0,0.4,0,0.1,0.1,0.8c1-0.6,0.8-0.2,1.3-1.2
			c-0.1-0.9,0.1-0.1-0.5-0.5l-0.7,0.3c1,0.2,0.2-0.5,0.7,0.4C170.3,42.1,171.2,41.8,170.9,41.6L170.9,41.6L170.9,41.6z"/>
		<path class="st0" d="M219,34.4c0.3,0.3,0.2,0.1,0.3,0.6h1.1l-0.7-1c-0.3-0.3-0.4-0.1-0.8-0.4L219,34.4z"/>
		<path class="st0" d="M203.3,72.4l-1.1-0.1l-0.2,0.8C203.2,73.1,203.2,73.5,203.3,72.4z"/>
		<path class="st0" d="M150.7,99.4l-1.5,0.2l0-1.1c-0.7,1-0.3,1.1-0.3,1.3C150.9,100.2,150.6,99.5,150.7,99.4
			C150.7,99.4,150.7,99.4,150.7,99.4z"/>
		<path class="st0" d="M58.9,107.1c0.5,0.6,0.7,0.4,0.7,1.2c0.3-0.4,0.2,0.1,0.4-0.6c0.2-0.7,0-0.3,0-0.9
			C59.3,107,59.7,107,58.9,107.1C58.9,107.1,58.9,107.1,58.9,107.1z"/>
		<path class="st0" d="M80.3,61.2l0.2,0c0.5-0.9,0.2-0.5,0.9-1l0-0.7L81,59.8C80.1,60.7,80.4,60.5,80.3,61.2z"/>
		<path class="st0" d="M112.3,53.9l-0.2,0c-0.9,0.3-0.8-0.7-0.7,0.7l0.4,0.2C113,54.4,112.1,55.1,112.3,53.9z"/>
		<path class="st0" d="M145.7,66c0.8-0.4,0.5-0.7,0.5-1.6l-0.7,0.5C145.5,65.9,145.8,64.3,145.7,66L145.7,66z"/>
		<path class="st0" d="M92.2,106.1c0.7-0.4,0.2,0.2,0.7-0.5c-0.2-1.1,0.2-0.5-0.7-0.9L92.2,106.1z"/>
		<path class="st0" d="M167.3,22c0.6-0.1,0.5-0.2,0.5,0.3l0.5-0.3l-0.2-0.6l-0.9-0.2L167.3,22L167.3,22z"/>
		<path class="st0" d="M80.7,92.2c1.2-1.6,0.1-1.1,0-1.3c-0.2,0.3-0.2,0.1-0.3,0.7C80.4,92.4,80.5,91.8,80.7,92.2L80.7,92.2z"/>
		<path class="st0" d="M80.4,89.5c-0.9-0.1-0.4,0.3-0.6,0.7l1.2-0.1C80.9,89.8,81.4,89.6,80.4,89.5L80.4,89.5z"/>
		<path class="st0" d="M101.4,64.1l0.6-0.4c-0.2-0.4-0.1-0.4-0.2-0.7c-0.2-0.5-0.2-0.4-0.4-0.7L101.4,64.1
			C101.4,64.1,101.4,64.1,101.4,64.1z"/>
		<path class="st0" d="M210.7,34.5c0.6,0.7-0.1,0.4,1.1,0.7l-0.2-0.8L210.7,34.5C210.7,34.5,210.7,34.5,210.7,34.5z"/>
		<path class="st0" d="M220.5,62.8l0.9-0.1l0.1-1c-0.4,0.3-0.2,0.1-0.6,0.5C220.6,62.6,220.7,62.5,220.5,62.8
			C220.5,62.8,220.5,62.8,220.5,62.8z"/>
		<polygon class="st0" points="85,75.8 86.1,75.7 86.4,74.8 		"/>
		<path class="st0" d="M230.5,59.3c0.6-0.9,0.2-0.5,0-0.9C229.4,58.8,229.6,58.9,230.5,59.3z"/>
		<path class="st0" d="M63.8,81.5l0.8,0.1l0.1-0.8c0-0.1-0.1-0.1-0.2-0.3C64.5,80.5,63.8,81.5,63.8,81.5z"/>
		<path class="st0" d="M47.6,106.1l-0.7,0.1l0.1-0.8c-0.3,0.5-0.7-0.8-0.2,1C48.3,106.6,47.3,106.5,47.6,106.1
			C47.6,106.1,47.6,106.1,47.6,106.1z"/>
		<path class="st0" d="M89.2,99.2c0.4-0.5,0.4,0.7,0.4-0.9c-1.2,0-0.5-0.1-0.8,0.5l0.5-0.1L89.2,99.2L89.2,99.2z"/>
		<path class="st0" d="M146.5,28.6c1-1.3,0.2-0.5,0-0.8C146.5,27.9,145.3,27.6,146.5,28.6z"/>
		<path class="st0" d="M121.4,109.3l-0.5-1.3c-1.1,0-0.3-0.1-0.6,0.5l0.7-0.3C120.8,110.1,120.9,108.8,121.4,109.3L121.4,109.3
			L121.4,109.3z"/>
		<path class="st0" d="M81,98.2C80.5,96.6,79.1,98.2,81,98.2z"/>
		<path class="st0" d="M82.5,74c0.9-0.4,0.6,0.2,0.6-0.8C82.2,73.3,82.6,72.8,82.5,74z"/>
		<path class="st0" d="M161.3,47.8c0.5-0.4,0.2,0.5,0.5-0.7c-1.3,0-0.7,0.1-1.1,0.4C161.7,47.5,161.1,47.4,161.3,47.8L161.3,47.8z"
			/>
		<path class="st0" d="M129.5,86.1l0.6,0c-0.1-1,0.3-0.2-0.3-0.8C129.3,85.8,129.1,84.7,129.5,86.1
			C129.5,86.1,129.5,86.1,129.5,86.1z"/>
		<path class="st0" d="M84.2,76.2c0.4-0.7,0.3,0.9,0.3-0.9c-1.3,0.1-0.4-0.1-0.7,0.4C84.3,75.7,84.2,75.6,84.2,76.2z"/>
		<path class="st0" d="M217.4,70.9c-0.4,0.6-0.2,0.3,0,0.8C218.6,70.4,217.5,71,217.4,70.9z"/>
		<polygon class="st0" points="145.4,67.6 145.8,67.5 145.9,66.8 145.3,66.9 		"/>
		<path class="st0" d="M153.1,73.7c0.3-0.1,1.8-0.9,0.3-0.7L153.1,73.7z"/>
		<path class="st0" d="M83.5,76.3l0.7,0l0-0.1c0-0.6,0.2-0.5-0.4-0.4L83.5,76.3z"/>
		<path class="st0" d="M63.8,83.3c-1.5-0.8-0.1-0.2-0.6,0.1c0.1,0.7,0.5,0.2,0.7,0.1C63.9,83.4,63.9,83.3,63.8,83.3z"/>
		<path class="st0" d="M149.3,50.5l0.2-0.4l0-0.2l-0.6,0.2C148.8,50.7,148.7,50.6,149.3,50.5L149.3,50.5z"/>
		<path class="st0" d="M213.8,78.3l0.3,0.2c0.1-0.9,0.5-0.3-0.3-1.1L213.8,78.3L213.8,78.3z"/>
		<path class="st0" d="M211,76.3l-0.6-0.3C210.5,76.3,211.3,77.5,211,76.3z"/>
		<path class="st0" d="M126.5,85.9l0.4-0.4c-0.2-0.6,0.4-0.2-0.3-0.5C126.6,85,126.5,85.9,126.5,85.9z"/>
		<path class="st0" d="M206.6,79.7c0.4,0.1-0.5,0.8,0.8,0c-0.1-0.1-0.1-0.2-0.2-0.2C205.2,78.8,207.6,79,206.6,79.7z"/>
		<path class="st0" d="M174.8,38.8c0.4-0.7,0.5,1.1,0.2-0.4c0,0,0-0.2-0.1-0.2c0,0-0.1-0.1-0.1-0.2c-0.5,0.7-0.6-1.1-0.3,0.4
			C174.9,39.8,173.8,38.4,174.8,38.8L174.8,38.8L174.8,38.8z"/>
		<polygon class="st0" points="163.9,84 164.3,83.4 163.8,83.4 		"/>
		<path class="st0" d="M92.2,106.1c0.4,0.3-0.1,0.3,0.5,0c0.3-0.1,0.2-0.1,0.2-0.4C92.5,106.2,92.9,105.7,92.2,106.1z"/>
	</g>
</g>
</svg>
