<?xml version="1.0" encoding="utf-8"?>
<!-- Generator: Adobe Illustrator 26.0.1, SVG Export Plug-In . SVG Version: 6.00 Build 0)  -->
<svg version="1.1"
	 id="Слой_1" shape-rendering="geometricPrecision" image-rendering="optimizeQuality" text-rendering="geometricPrecision" xmlns:xodm="http://www.corel.com/coreldraw/odm/2003"
	 xmlns="http://www.w3.org/2000/svg" xmlns:xlink="http://www.w3.org/1999/xlink" x="0px" y="0px" viewBox="0 0 238.1 150.2"
	 style="enable-background:new 0 0 238.1 150.2;" xml:space="preserve">
<style type="text/css">
	.st0{fill-rule:evenodd;clip-rule:evenodd;}
</style>
<g id="Layer_x0020_1">
	<g>
		<path class="st0" d="M56.8,45.2c-0.1,0.1-0.1,0.7,0,1.2l0.1,0.9H143h86.1v-1.2V45H143C70,44.9,56.9,44.9,56.8,45.2L56.8,45.2z
			 M64,50c-3.3,1-5.3,2.9-6.5,6.1c-1.5,4.1-0.9,7.4,2,10.6c1.5,1.6,2.4,2.1,8.7,4.1c3.5,1.1,3.7,1.2,4.3,2.5c0.3,0.6,0.4,1,0.3,2.2
			c-0.1,1.9-0.9,3.1-2.4,3.9c-1,0.5-1.3,0.5-2.9,0.5c-2.7,0-4.7-0.8-6.3-2.6c-0.5-0.5-1.4-2.4-1.8-3.6c-0.1-0.4-0.3-0.9-0.4-1
			c-0.2-0.3-1.2-0.3-1.4-0.1c-0.1,0.1-0.2,1.5-0.3,3.2c-0.1,1.6-0.3,4-0.4,5.2c-0.3,2.7-0.2,2.9,1.1,2.2l0.8-0.4l2,0.3
			c5.7,0.9,6.4,0.9,8.9,0.7c2.8-0.3,3.9-0.6,5.3-1.3c3-1.7,4.1-2.8,5.4-5.5l0.8-1.7v-2.9c0-2.9,0-3-0.6-4.2
			c-0.9-1.9-2.2-3.2-4.4-4.2c-1-0.5-2.3-1-2.9-1.2c-2.7-0.9-7.1-2.6-7.5-3c-1-0.9-1.1-3-0.2-4.3c0.5-0.8,2.3-1.7,3.5-1.8
			c1.1-0.1,2.6,0.3,3.6,0.8c1,0.6,3.2,2.5,3.6,3.3c0.4,0.7,0.9,0.8,1,0.3c0.1-0.2,0.2-1.2,0.4-2.3c0.2-1.1,0.4-2.3,0.5-2.8
			c0.4-1.9,0.4-2.1,0.2-2.2c-0.1-0.1-0.4,0-0.7,0.2c-0.7,0.4-1.1,0.4-3.1-0.2c-2.9-0.9-3.5-1-6.5-1C65.9,49.6,64.9,49.7,64,50L64,50
			L64,50z M167.5,50.5c-0.8,0.1-2.4,0.6-3.2,1.1c-1.1,0.5-3.1,2.3-3.4,3c-0.2,0.3-0.5,0.8-0.7,1c-0.3,0.4-0.4,0.8-0.4,7.2v6.8l0.5,1
			c0.5,1.1,2.2,3.3,2.5,3.3c0.1,0,0.3,0.2,0.6,0.5c0.4,0.4,2.5,1.6,3.6,1.9c1.4,0.5,15.5,0.8,16,0.3c0.1-0.1,0.3-0.1,0.4,0
			c0.1,0.1,4,0.2,8.7,0.3c4.7,0.1,8.7,0.2,9,0.2c0.6,0.1,0.6,0,1.2-2.3c0.4-1.5,1.6-5.8,1.9-6.6c0.2-0.5,0.2-0.7,0-0.9
			c-0.4-0.5-0.7-0.3-1.5,1.3c-1.5,2.9-3.3,4.5-5.7,5.1s-4,0-4.6-1.7c-0.2-0.7-0.3-1.8-0.2-5.4l0.1-4.5l1.5-0.1c1.2,0,1.7,0,2.2,0.3
			c0.9,0.5,1.8,1.6,2.1,2.5c0.3,0.9,0.8,1.3,1.2,0.8c0.2-0.3,0.1-1.7-1-8.7c-0.1-0.5-0.2-0.9-0.4-0.9c-0.4-0.1-0.8,0.5-0.9,1.3
			c-0.2,1.2-0.9,1.6-3.1,1.6h-1.7V57c0-2.5,0.3-3.1,1.8-3.4c0.7-0.1,1.3-0.2,2.1,0c2.8,0.5,4.2,1.9,5.6,5.1c0.2,0.4,0.4,0.7,0.6,0.7
			c0.6,0,0.7-0.6,0.3-2.5c-0.2-1-0.5-2.7-0.7-3.8c-0.5-2.7-0.6-2.9-1.2-2.7c-0.3,0.1-4.2,0.2-8.8,0.2c-8.8,0.1-8.7,0.1-8.2,1
			c0.1,0.2,0.3,0.4,0.5,0.4c0.1,0,0.4,0.2,0.6,0.4c0.4,0.4,0.4,0.9,0.4,11c0,11.7,0.1,11.2-1.3,11.9c-0.6,0.3-0.7,0.3-1.1,0
			c-1-0.6-1-1-1-6.4c0-5.5,0.1-5.9,1.2-6.7c0.7-0.5,0.9-0.9,0.5-1.2c-0.2-0.1-2-0.2-5-0.2c-4,0-4.8,0-5,0.3
			c-0.3,0.4-0.1,0.8,0.6,1.1c1.1,0.4,1.1,0.9,1.1,5.5c-0.1,4.5-0.2,5.2-1.2,5.7c-1.3,0.6-3.6,0-4.6-1.1c-1.4-1.6-2.6-4.3-3-7.1
			c-0.3-1.8-0.3-2.2,0-4c0.3-2,0.9-4,1.4-5c0.2-0.3,0.6-0.9,1.1-1.4c0.8-0.9,2.1-1.4,3.5-1.4c0.8,0,2.7,0.6,3.7,1.1
			c0.7,0.3,2.1,2,2.8,3.3c0.7,1.2,0.9,1.3,1.2,1c0.2-0.2,0.2-0.5,0.2-1.4c-0.6-5.5-0.7-6.8-0.9-7c-0.1-0.1-0.4-0.1-0.7,0.2
			c-0.4,0.3-0.8,0.3-1.9,0.2c-0.8-0.1-1.7-0.2-2-0.3C173.7,50.5,168.6,50.3,167.5,50.5L167.5,50.5L167.5,50.5z M79.2,50.9
			c-0.1,0.2-0.2,0.9-0.3,1.4c-0.1,0.6-0.3,1.8-0.5,2.9c-0.4,2.3-0.5,4.1-0.1,4.2c0.2,0.1,0.5-0.5,0.9-1.3c1-2.2,2.9-3.9,4.5-3.9h0.7
			v9.9V74l-0.6,0.7c-0.3,0.4-0.8,0.7-0.9,0.7c-0.6,0-1.1,1-0.6,1.3c0.3,0.2,10.2,0.3,11,0.1c0.5-0.1,0.6-0.2,0.6-0.6
			c0-0.3-0.2-0.5-0.3-0.6c-0.2-0.1-0.5-0.2-0.7-0.3c-0.6-0.3-1-1.1-1.2-2.2S91.4,55,91.6,54.5c0.3-0.8,2.5,0,3.8,1.4
			c0.4,0.4,1,1.4,1.4,2.3c0.6,1.4,0.8,1.5,1.1,1.3c0.3-0.2,0.4-0.3,0.3-0.7c-0.1-0.3-0.2-1.1-0.3-1.8c-0.1-0.7-0.3-2.1-0.5-3.1
			s-0.3-2.1-0.3-2.4c0-0.8-0.4-1-1.3-0.8c-0.9,0.3-15.5,0.2-16.1-0.1C79.5,50.6,79.3,50.6,79.2,50.9L79.2,50.9L79.2,50.9z M203,51
			c-0.4,0.6-0.3,1,0.4,1.3s1.2,1.1,1.4,2.3s0.2,24.7,0,25.6c-0.2,1-0.8,1.7-1.4,1.9c-0.4,0.1-0.6,0.3-0.7,0.6
			c-0.3,1.1-0.3,1.1,6.3,1.2c6.7,0.1,7.1,0,7.1-0.9c0-0.5-0.1-0.6-0.8-1c-1.7-0.8-1.7-1.2-1.5-12.7c0-0.1,0.3-0.3,0.6-0.4
			c0.7-0.3,0.7-0.3,1.8,1.5c2.1,3.5,4.4,8.8,4.5,10.3c0.1,1,0.1,1-0.8,1.4c-0.9,0.5-1.1,1.1-0.6,1.6c0.2,0.1,2.6,0.2,6.8,0.2
			c5.8,0,6.6,0,6.9-0.3c0.2-0.2,0.3-0.4,0.2-0.6s-0.1-0.3-0.1-0.4c0,0-0.3-0.2-0.7-0.5c-0.4-0.2-0.9-0.6-1-0.8
			c-0.2-0.2-0.8-1.9-1.4-3.6c-1.4-3.8-3.9-9-5.9-12.2c-0.2-0.4-0.4-0.7-0.4-0.8c0-0.1,1.7-1.6,1.8-1.6c0.2,0,1.8-1.7,2.5-2.7
			s1.4-3.2,1.4-4.2c0-0.6-0.5-2.5-0.8-3c-0.3-0.6-1.1-1.3-2-1.8c-1.5-0.8-2.9-0.9-13.3-0.9h-9.8L203,51L203,51L203,51z M97.7,51.2
			c-0.3,0.4-0.1,0.8,0.5,1.1c1,0.5,1,0.4,1,11.6c0,11.4,0,11-1.2,11.6c-0.3,0.1-0.6,0.4-0.6,0.5c-0.1,0.8,0.1,0.8,5.3,0.8
			c2.8,0,5.1,0,5.2-0.1c0.4-0.3,0.2-0.9-0.6-1.3c-0.5-0.3-0.8-0.7-1-1.1c-0.1-0.4-0.2-2.2-0.2-4.7c0-3.9,0-4.1,0.4-4.4
			s0.5-0.3,1.3,1c0.5,0.7,1.2,2.1,1.7,3.2c0.5,1,1,2,1.1,2.2c0.4,0.7,0.9,2.4,0.9,3c0,0.4-0.2,0.7-0.6,0.9c-0.7,0.4-0.9,1.1-0.4,1.2
			c0.6,0.2,13.7,0.2,14-0.1c0.3-0.3,0-1.1-0.4-1.2c-0.2-0.1-0.5-0.3-0.7-0.6c-0.3-0.5-0.3-0.7-0.1-1.7c0.3-1.3,1.5-5.5,1.7-5.8
			c0.1-0.1,0.5-0.2,1.1-0.1c2.1,0.3,3.5,1.1,4.9,3c1.7,2.2,1.8,4.3,0.4,5.2c-0.4,0.3-0.6,0.5-0.6,0.9s0.1,0.6,0.3,0.6
			c3.1,0.1,14.9,0,15-0.1c0.4-0.2,0.2-0.9-0.4-1.3c-0.3-0.2-0.7-0.7-0.8-1.1c-0.1-0.5-0.2-3.6-0.2-9.3l0.1-8.6l0.9,1.2
			c1.7,2.3,3.7,5.1,5.3,7.4c0.9,1.2,2,2.8,2.5,3.4c1.6,2.1,2.2,3.3,2.2,4.8c0,1.4-0.2,1.8-1,2.2c-0.6,0.3-0.7,0.5-0.4,1
			c0.3,0.3,0.5,0.4,3.3,0.4c1.7,0,3.1-0.1,3.2-0.2c0.4-0.2,0.2-0.7-0.7-1.5l-0.9-0.9l0.1-10.6l0.1-10.6l0.8-0.7
			c0.9-0.8,1.1-1.3,0.4-1.5c-0.2-0.1-1.7-0.1-3.2-0.1c-2.5,0-2.8,0.1-3,0.4c-0.2,0.3-0.1,0.5,0.7,1.1l0.9,0.8v3.3
			c0,1.8-0.1,3.3-0.1,3.3c-0.1,0-0.3-0.2-0.5-0.5s-1.1-1.7-2-3.1c-1.8-2.7-2-3.3-1.3-3.9c0.2-0.2,0.4-0.5,0.3-0.9l-0.1-0.5l-6-0.1
			c-6.9-0.1-7.3,0-5.9,1.3c1.2,1.1,1.2,0.9,1.1,11.3c0,5.2-0.1,9.8-0.2,10.3c-0.1,0.4-0.3,0.9-0.5,1.1c-0.3,0.3-0.3,0.2-0.6-0.5
			c-0.2-0.4-0.5-1.4-0.7-2.1c-0.2-0.8-0.5-1.9-0.7-2.5c-0.9-3.1-1.1-3.9-2-6.9c-0.5-1.8-1-3.7-1.2-4.3s-0.4-1.4-0.5-1.8
			c-0.1-0.4-0.3-1.3-0.6-1.9c-0.5-1.5-0.5-2.1-0.1-2.3c0.2-0.1,0.3-0.4,0.2-0.8l-0.1-0.7l-4.6-0.1c-4,0-4.6,0-4.9,0.3
			c-0.2,0.3-0.2,0.4,0.2,1.1c0.3,0.5,0.4,0.9,0.3,1.3c-0.1,0.4-2.2,7.1-2.8,8.9c-0.7,2.1-1.8,5.4-2.5,7.6c-0.5,1.4-0.9,2.7-1.1,2.9
			c-0.3,0.4-0.2,0.5-0.9-1.4c-0.4-1.2-0.6-1.7-1.4-3.6c-0.4-0.9-2.6-4.7-3.2-5.6c-0.3-0.4-0.3-0.5,0.5-1.1c1.4-1.2,2.9-2.8,3.3-3.6
			C118,57,118.2,55,118,54c-0.2-0.9-1.1-1.9-2.2-2.5c-0.9-0.4-1.1-0.4-9.4-0.5C99,50.9,97.9,51,97.7,51.2L97.7,51.2L97.7,51.2z
			 M109.6,54.4c1,0.5,1.3,1.1,1.2,2.6c-0.1,1-0.2,1.5-0.8,2.3c-0.7,1.1-1.1,1.5-2.5,2.3c-1.6,0.9-1.5,1-1.5-2.8
			c0-3.5,0.1-4.1,0.9-4.5C107.5,54,108.9,54,109.6,54.4L109.6,54.4z M218.3,54.9c0.7,0.4,1.3,1.1,1.6,1.9c0.3,0.9,0,2.7-0.6,3.8
			c-0.8,1.5-3.3,3.6-4.5,4c-0.2,0.1-0.5,0.2-0.7,0.2c-0.3,0.1-0.3-0.1-0.3-4.2c0-4.8,0.1-5.4,0.9-5.8
			C215.7,54.4,217.3,54.4,218.3,54.9L218.3,54.9L218.3,54.9z M128.3,58.8c0.7,2.1,1.6,5.9,1.4,5.9c0,0-0.6-0.3-1.2-0.6
			c-0.6-0.3-1.4-0.6-1.8-0.7c-0.6-0.1-0.6-0.2-0.5-0.7c0.1-0.3,0.3-1.3,0.6-2.1c0.3-0.8,0.5-1.6,0.5-1.8c0-0.5,0.4-1.4,0.6-1.2
			C127.9,57.8,128.1,58.3,128.3,58.8L128.3,58.8z M102.6,81.6c-0.3,0.2-1.6,0.3-8.1,0.2c-4.2,0-7.9-0.1-8.1-0.2
			c-0.3-0.1-0.4-0.1-0.5,0.2c-0.1,0.3-0.5,2.8-0.8,4.4c0,0.3-0.2,1-0.3,1.7c-0.1,0.6-0.3,1.5-0.3,1.8c-0.1,0.5,0,0.7,0.2,0.8
			c0.4,0.2,0.7-0.2,1.2-1.3c0.2-0.5,0.5-1.1,0.8-1.5c0.8-1.2,3-2.6,4.1-2.6c0.5,0,0.6,1.1,0.5,10.8c-0.1,10.3,0,10-1.6,10.7
			c-0.6,0.3-0.8,0.5-0.8,0.8v0.5h5.8h5.8v-0.6c0-0.5-0.1-0.6-0.6-0.7c-0.7-0.2-1.2-0.7-1.6-1.7c-0.4-1.1-0.4-19.7,0-19.9
			c0.2-0.1,0.7,0,1.3,0.2c1.1,0.4,2.9,2,3.4,3.1c0.7,1.6,0.9,1.9,1.2,2c0.5,0.1,0.6-0.4,0.2-2.2c-0.2-0.9-0.4-2.3-0.5-3.1
			c-0.2-1.7-0.6-3.2-0.9-3.5C103.1,81.4,102.9,81.4,102.6,81.6L102.6,81.6z M167.8,82.1c-2.1,0.5-3.8,1.4-5.1,2.8
			c-0.6,0.6-1.8,2.5-1.8,2.8c0,0.2,0,3.2-0.1,6.7c0,7.3-0.1,7,1.7,9.4c1.1,1.4,2.7,2.8,3.7,3.3c0.3,0.1,0.9,0.4,1.2,0.5
			c1.3,0.6,4.3,0.8,10.3,0.8c5.9,0,6.3,0,6.3-0.7c0-0.1-0.4-0.6-0.8-1l-0.8-0.7v-5.2c0-4.9,0-5.3,0.4-5.9c0.2-0.4,0.6-0.7,0.9-0.9
			c0.5-0.2,0.8-0.8,0.6-1.1c-0.2-0.3-10.2-0.3-10.3,0c-0.2,0.4,0.1,1,0.8,1.2c1,0.3,1.1,0.8,1.1,5c0,5.5-0.3,6.4-2.6,6.4
			c-1.4,0-2.2-0.4-3.3-1.5c-2.1-2.1-3.5-6.9-3-10.5c0.5-3.9,1.8-6.7,3.5-7.6c1.1-0.6,2.5-0.7,3.6-0.5c1.5,0.4,3.3,1.2,3.9,1.9
			c0.6,0.6,1.6,2.2,2.2,3.2c0.3,0.6,0.4,0.6,0.7,0.3c0.3-0.3,0.3-0.5,0.1-2.1c-0.1-1-0.2-2.2-0.2-2.8c0-1.4-0.4-3.8-0.7-3.8
			c-0.1,0-0.5,0.2-0.9,0.4c-0.7,0.3-0.8,0.3-2.4,0c-0.9-0.2-2.1-0.4-2.6-0.5C172.3,81.6,169.4,81.7,167.8,82.1L167.8,82.1
			L167.8,82.1z M190.5,83c-2.2,0.9-2.2,0.9-3.5,2.3c-1.5,1.7-2.1,3-2.2,5.2c-0.1,2.2,0.2,3.3,1.4,4.9c1,1.2,2.5,2,5.6,3.1
			c0.9,0.3,1.6,0.6,1.8,0.7c0.1,0.1,0.5,0.2,0.9,0.4c1.6,0.5,2.3,2.2,1.7,3.8c-0.5,1.2-0.7,1.5-1.7,1.9c-2.5,1.1-4.9,0.4-7.2-1.8
			c-1-1-1.7-2.3-2.2-3.9c-0.3-1-0.6-1.4-1.1-1.2c-0.3,0.1-0.3,0.3-0.2,1.2c0.1,0.6,0.2,2.9,0.4,5s0.3,3.9,0.3,3.9
			c2.5,0,3.8,0.1,4.7,0.3c0.7,0.2,2.2,0.3,4,0.3c2.8,0,3,0,4.5-0.6c1.9-0.7,2.5-1.1,3.9-2.5c2-1.9,2.7-4.4,2.3-7.5
			c-0.3-2.1-2.3-4.6-4.2-5.1c-1.3-0.4-5.8-2.2-6.4-2.6c-0.4-0.2-0.8-0.7-1-1.1c-0.4-0.7-0.4-0.8-0.1-1.7c0.2-0.5,0.5-1.2,0.7-1.4
			c1.2-1.1,4.3-0.5,6,1.2c0.3,0.3,0.9,1.1,1.2,1.7c0.7,1.4,1.1,1.7,1.5,1.4c0.2-0.2,0.2-0.7,0-3c-0.1-1.5-0.3-3.2-0.4-3.8
			c-0.1-0.6-0.2-1.1-0.3-1.2s-0.5,0-1,0.2s-1,0.4-1.2,0.3c-2.1-0.7-3.2-0.9-4.9-0.9C192.3,82.3,191.9,82.4,190.5,83L190.5,83
			L190.5,83z M104.6,83.2c-0.5,0.5-0.4,0.8,0.3,1.1c1.3,0.7,1.3,0.4,1.3,10.4c0.1,10.4,0,10.9-1.2,12c-0.8,0.8-0.9,0.9-0.4,1.4
			c0.3,0.3,1,0.3,5.1,0.3c3.5,0,4.9-0.1,5.1-0.2c0.4-0.4,0.3-0.9-0.4-1.2c-1.3-0.5-1.3-0.7-1.2-7.9l0.1-6.4h2.9h2.9l0.1,6.2
			c0,3.4,0,6.5-0.1,6.8c-0.1,0.4-0.4,0.8-0.8,1.1c-0.9,0.6-1,0.9-0.7,1.3c0.3,0.3,1,0.3,5.1,0.3c2.6,0,4.9-0.1,5.1-0.1
			c0.6-0.2,0.4-1-0.4-1.4c-0.5-0.3-0.7-0.6-0.8-1.1c-0.1-0.4-0.2-5-0.2-10.3c0-8.7,0-9.6,0.3-10.2c0.2-0.3,0.6-0.7,0.9-0.9
			c0.6-0.3,0.8-0.8,0.4-1.2c-0.2-0.2-1.1-0.3-5-0.3c-2.9,0-4.9,0.1-5.1,0.2c-0.6,0.3-0.5,0.9,0.3,1.3c0.9,0.5,1.1,1.1,1,3.3
			l-0.1,1.9h-2.9h-2.9v-1.9c0-2.1,0.3-2.8,1.2-3.3c0.7-0.4,0.8-0.8,0.5-1.3c-0.2-0.2-1.1-0.3-5.1-0.3
			C105.3,82.9,104.9,82.9,104.6,83.2L104.6,83.2z M129.3,83.1c-0.7,0.3-0.6,0.9,0.3,1.3c0.5,0.2,0.8,0.5,1,1s0.2,3.4,0.2,10.2
			c0,10.5,0,10.5-1.2,11.2c-0.7,0.4-0.9,0.9-0.6,1.3c0.2,0.2,1,0.3,5.3,0.2l5.1-0.1l0.1-0.5c0-0.4-0.1-0.6-0.5-0.8
			c-1.2-0.6-1.2-0.7-1.1-11.4c0.1-10.6,0-10.5,1.2-11.1c0.7-0.4,0.8-0.8,0.4-1.2c-0.3-0.3-0.9-0.3-5-0.3
			C131.8,82.9,129.5,83,129.3,83.1L129.3,83.1L129.3,83.1z M140.8,83c-0.4,0.2-0.3,1.2,0.2,1.3c0.2,0.1,0.6,0.4,0.8,0.7
			c0.4,0.6,0.4,1.1,0.4,10.2c0,10.6,0,10.9-1.1,11.6c-0.8,0.5-0.9,0.8-0.5,1.2c0.3,0.3,0.8,0.3,2.9,0.3c3.6,0,4.1-0.3,2.6-1.8
			l-0.8-0.8V97c0-5.3,0.1-8.7,0.2-8.7c0.2,0,1.2,1.2,1.2,1.4c0,0.1,0.4,0.6,0.8,1.1c0.4,0.5,0.8,1,0.8,1.1s0.2,0.4,0.5,0.8
			c1.9,2.3,2.4,3.1,2.4,3.2s0.2,0.4,0.5,0.6c0.3,0.3,0.5,0.5,0.5,0.6s0.5,0.8,1.1,1.6c2.8,3.6,3.2,4.4,3.2,6.1c0,1-0.2,1.5-1,1.9
			c-0.7,0.3-0.8,1-0.2,1.3c0.5,0.3,5.9,0.3,6.2,0c0.4-0.4,0.3-0.9-0.4-1.3c-0.4-0.3-0.7-0.6-0.8-0.8c-0.2-0.4-0.3-17.8-0.1-19.5
			c0.1-1.1,0.2-1.3,0.9-2c0.8-0.7,0.9-1.1,0.5-1.5c-0.2-0.2-5.5-0.3-6.1-0.1c-0.2,0.1-0.3,0.3-0.3,0.7c0,0.4,0.1,0.6,0.6,0.8
			c1,0.4,1.2,1.1,1.3,4c0,1.4,0,2.8-0.1,3c-0.2,0.5-0.2,0.5-0.8-0.4c-0.4-0.5-0.8-1.1-1-1.4s-0.7-1.1-1.2-1.7
			c-0.9-1.2-1.5-2.2-1.5-2.7c0-0.2,0.2-0.5,0.4-0.7c0.3-0.3,0.4-0.6,0.3-0.9l-0.1-0.6h-5.9C143.7,82.9,140.9,83,140.8,83L140.8,83
			L140.8,83z M56.9,87.3c-0.1,0.1-0.1,0.5-0.1,1.1c0,1.6-0.8,1.5,13.1,1.5c8.1,0,12.4-0.1,12.6-0.2c0.3-0.2,0.4-0.4,0.4-1.1
			c0-0.5-0.1-1-0.2-1.2c-0.2-0.2-3.3-0.2-12.9-0.2C62.7,87.2,56.9,87.2,56.9,87.3L56.9,87.3z M202.9,87.7c-0.3,0.8-0.2,1.4,0.2,1.8
			s0.6,0.4,14.8,0.4c16.4,0,15.3,0.1,15.2-1.6l-0.1-1l-15-0.1h-15C203.1,87.2,202.9,87.7,202.9,87.7z"/>
	</g>
</g>
</svg>
