<?xml version="1.0" encoding="utf-8"?>
<!-- Generator: Adobe Illustrator 24.0.2, SVG Export Plug-In . SVG Version: 6.00 Build 0)  -->
<svg version="1.1" id="Слой_1" xmlns="http://www.w3.org/2000/svg" xmlns:xlink="http://www.w3.org/1999/xlink" x="0px" y="0px"
	 viewBox="0 0 238.1 150.2" style="enable-background:new 0 0 238.1 150.2;" xml:space="preserve">
<g>
	<path class="fillable" d="M63.7,78.4c4.2,2.9,8.9,5.8,13.3,9.1c7.8,5.9,15.4,12.1,23,18.2c7.9,6.4,16.4,11.8,26.4,14c7.9,1.8,15.1,0.2,20.9-5.8
		c6.7-6.9,7-18.2,0.8-25.6c-1.6-1.9-3.3-3.7-5.6-6.2c1.8-0.2,2.9-0.6,3.9-0.4c7.8,1.3,15.2,3.9,21.9,8.2c0.8,0.5,1.6,0.8,2.8,1.5
		c0-8.8,0-17.4,0-26c-3.2,2-6.4,3.9-9.6,5.8c-4.7,2.9-10,3.6-15.4,4.1c-1,0.1-2.1-0.5-3.2-0.8c-0.1-0.3-0.2-0.6-0.3-1
		c1.2-1,2.4-1.9,3.5-3c6.2-6.5,7.8-15.9,4.1-23.6c-3.2-6.5-12.2-11.1-20.3-10.6c-9.3,0.6-17,4.8-24.2,10.2
		C97.3,53.1,89.1,60,80.6,66.5C75.1,70.7,69.2,74.5,63.7,78.4z M138.4,82.7c1.9,2.1,3.6,3.9,5.1,5.9c4.4,5.3,6.3,11.4,4,18.1
		c-2.1,6.2-7.3,8.7-13.4,9.6c-5.9,0.9-11.3-0.6-16.7-2.9c-7.8-3.3-13.7-9.3-20.3-14.3c-8.8-6.6-17.9-13-26.8-19.5
		c-0.6-0.4-1.3-0.6-2.3-1.1c1.6-1.1,2.2-1.5,2.8-1.9c4.2-2.8,8.6-5.3,12.7-8.3c9.7-7.2,19.2-14.8,29-21.7c5.7-4.1,12.3-6.2,19.5-6
		c13.3,0.5,20.4,13,13.5,24.4c-2,3.2-4.9,5.9-7.6,9c1.2,1.3,2.6,2.9,4.2,4.6C140.8,80.2,139.5,81.6,138.4,82.7z M168.1,85
		c-5.7-2.3-10.9-4.4-16.2-6.5c5.4-2.1,10.7-4.2,16.2-6.4C168.1,76.6,168.1,80.7,168.1,85z"/>
	<path class="fillable" d="M183.8,134.4c1.6-0.3,2.8-0.5,3.5-0.6c0,1.6-0.5,3.3,0.1,4.3c1.1,1.7,3.1,1.5,4.7,0.6c2.9-1.5,5.7-3.2,9.1-5.1
		c-3.1-2.1-5.9-4.1-8.8-5.9c-1.6-1-3.6-0.9-4.7,0.8c-0.6,0.9-0.3,2.5-0.4,4c-0.7-0.2-2-0.7-3.5-1.2
		C183.8,132.3,183.8,133.3,183.8,134.4z"/>
	<path class="fillable" d="M48.6,17c-0.1-1.7,0.3-3.5-0.4-4.5c-1.3-1.7-3.3-1.2-5-0.3c-2.7,1.5-5.4,3.1-8.7,4.9c3.5,2.2,6.4,4.1,9.5,5.8
		c1.6,0.9,3.5,0.5,4.4-1.1c0.5-0.9,0.1-2.3,0.1-3.8c0.8,0.3,2,0.7,3.4,1.2c0-1,0-2,0-3.1C50.6,16.6,49.4,16.8,48.6,17z"/>
	<path class="fillable" d="M205.5,126.3c0,1.6,0,3.3,0,5.5c1.5-1.3,3.2-2.6,4.3-0.7c0.6,1.1-0.1,3-0.2,4.5c-1.3-0.1-2.5-0.3-4.1-0.5
		c0,1.1,0,2.8,0,3.8c4.7-0.9,9.1-1.8,13.6-2.7c2-0.4,4-0.5,5.9-1.1c0.9-0.2,1.6-1.1,2.4-1.7c-0.8-0.6-1.4-1.5-2.3-1.7
		c-4.9-1.2-9.9-2.2-14.8-3.4C208.7,128,207.3,127.1,205.5,126.3z M212.6,135.2c0-1.6,0-2.6,0-3.9c3.1,0.7,5.9,1.3,8.7,1.9
		c0,0.2,0,0.3,0,0.5C218.4,134.2,215.6,134.7,212.6,135.2z"/>
	<path class="fillable" d="M30.8,24.1c0-1.2,0-2.9,0-4.1c-1.5,0-2.8,0-4.1,0c0.1-1.5,0.1-3,0.2-4.6c1.1,0.1,2.3,0.2,3.8,0.4c0-1.3,0-3,0-5.5
		c-3,3.9-7,2.9-10.4,4c-2.7,0.8-5.5,1-8.3,1.7c-0.8,0.2-1.5,1-2.2,1.6c0.7,0.6,1.3,1.4,2.1,1.6c3.9,1,7.9,1.8,11.9,2.8
		C26.1,22.6,28.3,23.4,30.8,24.1z M23.9,19.7c-2.9-0.6-5.6-1.2-8.3-1.8c0-0.2,0-0.4,0-0.5c2.7-0.5,5.4-1,8.2-1.5
		C23.9,17.3,23.9,18.3,23.9,19.7z"/>
	<path class="fillable" d="M135.1,82.9c1.7-1.2,3.4-2.5,5.3-3.8c-2-2.2-3.5-3.9-5.2-5.7c2.1-1.7,4.4-3.1,5.8-5.1c2.2-3.1,4.7-6.4,5.5-10
		c1.9-9.2-6.5-17.1-16.4-16.4c-7.4,0.5-13.8,3.5-19.6,7.7c-7.4,5.3-14.5,11.2-21.7,16.7c-5.2,4-10.5,7.8-15.9,11.9
		c0.5,0.5,0.9,1.2,1.6,1.6C83,86.4,91.5,93,100.2,99.4c5.4,4,10.7,8.2,16.6,11.4c4.1,2.2,9,3.4,13.7,4c7.3,0.9,13.7-3.3,15.9-9.8
		c1.9-5.3-0.1-10-3.2-14.2c-2.1-2.8-4.4-5.4-6.6-8.1C136.1,82.8,135.6,82.8,135.1,82.9z M95.4,69.5c0.5-1.6,0.4-3.8,1.5-4.7
		c7.3-6.1,14.5-12.3,23.3-16.4c4.6-2.1,9.4-3.2,14.5-1.9c6.4,1.6,9.4,6.7,7.5,13.1c-1.1,3.6-3.3,6.4-6.3,8.5c-2,1.4-4.2,2.6-6.4,4
		c1.7,1.8,3.2,3.5,4.9,5c1.3,1.2,1.3,2,0,3.1c-1.6,1.3-3,2.8-4.7,4.5c1.2,0.8,2.1,1.3,2.9,1.9c3.6,2.3,6.9,4.9,9,8.8
		c3.5,6.5,0.3,14.4-6.7,15.2c-3.9,0.5-8.2,0-11.9-1.2c-9.1-2.9-15.9-9.4-23.2-15.3c-2.4-1.9-5.1-3.6-3.4-7.4
		c-6.3,1.1-7.2,0.6-7.2-4.1c-3.6-0.8-7.5-1.3-11-5.1c4-1.5,7.4-2.7,10.9-4C88.7,69.8,89.6,69.3,95.4,69.5z"/>
	<path class="fillable" d="M166.7,82.7c0-3,0-5.5,0-8.3c-3.4,1.4-6.6,2.7-10.2,4.1C160,80,163.1,81.3,166.7,82.7z"/>
	<path class="fillable" d="M127.7,105.5c-0.5-5.5,0.4-7.7,3.9-8.9c2.5-0.9,4.9-0.3,6.6,1.6c1.5,1.7,1.6,3.7,0.3,5.6c-1.3,2-4.6,2.2-5.9,0.2
		c-0.5-0.7-0.6-2-0.4-2.8c0.2-0.6,1.3-1,2.1-1.3c0.2-0.1,0.7,0.6,1,1c-0.6,0.4-1.2,0.9-2.5,1.8c1.4,0.4,2.9,1.2,3.3,0.8
		c0.9-0.7,1.8-2.4,1.5-3.2c-0.5-1.1-1.9-2.2-3.2-2.6c-2-0.6-4,0.3-4.9,2.2c-0.6,1.2-0.7,3.1-0.2,4.3c1.4,3.1,4.7,4.4,7.9,3.4
		c2.9-0.9,5-4.2,4.5-7.7c-0.7-4.9-3.9-8.1-7.6-10.8c-2-1.4-4.2-2.6-6.7-4.1c1.7-1.7,3-3.4,4.7-4.8c1.6-1.3,1.3-2.1,0-3.3
		c-1.7-1.6-3.3-3.4-5.3-5.5c1.1-0.5,1.9-0.9,2.6-1.3c4.8-2.3,9-5.1,11.1-10.3c1.1-2.8,1.2-5.6-0.4-8.2c-1.5-2.5-4.5-3.4-7.6-2.3
		c-3,1.1-4.5,3.6-4,6.5c0.4,2.1,1.9,3.4,3.8,3.4c1.6,0,3.5-0.7,4.5-1.7c1.3-1.3,0.9-3.3-0.9-4.2c-1.5-0.8-2.6-0.2-3,1.4
		c0.8,0.6,1.5,1.1,2.2,1.5c-0.4,0.4-0.9,1.1-1.1,1c-0.9-0.5-2.2-1-2.4-1.7c-0.6-1.9,0.6-3.2,2.4-3.7c2.1-0.6,4.4,1,4.6,3.2
		c0.4,3.1-1.4,5.3-4.6,5.8c-3.3,0.5-6.3-1.6-6.9-4.6c-0.6-3.5,0.6-5.7,4.7-8.8c-1.3,0-2.7-0.1-4,0c-7,0.9-12.5,4.9-18,8.7
		c-2,1.4-4,3-5.9,4.6c-3.5,3-3.7,6.5-0.4,9.9c3.7,3.8,8.5,5.6,13.6,6.3c3.8,0.5,7.7,0.2,11.5,0.4c0.6,0,1.2,0.4,1.6,0.7
		c0.2,0.2,0.1,1-0.1,1.2c-0.4,0.3-1,0.5-1.4,0.5c-7.3-1.1-14.2,0.5-20.7,3.4c-2,0.9-3.8,2.6-5.2,4.4c-1.9,2.3-1.8,5.1,0.2,7.1
		c7.5,7.3,15.8,13.4,26.5,15c0.8,0.1,1.6,0,2.7,0C130.6,108,129.1,106.7,127.7,105.5c0.1,0.8,0.3,1.6,0.7,3.2
		c-2.6-1-4.7-1.8-6.8-2.5c0.1-0.3,0.2-0.7,0.2-1c1.3,0,2.5,0,3.8,0C126.2,105.2,126.9,105.4,127.7,105.5z M138,61.6
		c0.2,0.2,0.3,0.4,0.5,0.6c-2.1,1.9-4.2,3.7-6.3,5.6c-0.1-0.2-0.3-0.3-0.4-0.5c0.4-1.5,0.9-3.1,1.4-4.9
		C134.5,62.2,136.2,61.9,138,61.6z M131.7,89.8c0.2-0.2,0.3-0.3,0.5-0.5c2,1.8,4.1,3.6,6.1,5.4c-0.2,0.2-0.3,0.4-0.5,0.6
		c-1.8-0.3-3.6-0.6-4.8-0.8C132.5,92.6,132.1,91.2,131.7,89.8z M127.9,48.4c-1.3,3.5-1.6,3.5-8,2.9
		C123.1,50.1,125.5,49.3,127.9,48.4z"/>
	<path class="fillable" d="M81.7,78.3c8.5,4.2,17,1.8,25.5,0.2C98.7,76.9,90.2,73.4,81.7,78.3z"/>
	<path class="fillable" d="M99.7,64.6c-2.8,1.8-3.2,3.5-1.2,6c3.3,4,7.7,6.1,12.8,6.8C106.2,74.4,99.9,72.4,99.7,64.6z"/>
	<path class="fillable" d="M100,91.9c0.4-7.5,5.9-9.8,11.9-12.1c-5.5,0.1-10.7,2.8-13.4,6.9C96.9,89.2,97,90.1,100,91.9z"/>
	<path class="fillable" d="M100.2,74.1c-2.3-1.1-4.5-2.4-6.8-3.3c-0.6-0.2-1.6,0.7-2.5,1.1c0.6,0.6,1,1.6,1.7,1.8c2.4,0.7,4.8,1,7.2,1.5
		C100,74.9,100.1,74.5,100.2,74.1z"/>
	<path class="fillable" d="M101.2,81.5c-3.9,0.8-7.4,0.3-10.3,2.9C93.5,86.2,96.7,85.3,101.2,81.5z"/>
</g>
</svg>
