<?xml version="1.0" encoding="utf-8"?>
<!-- Generator: Adobe Illustrator 24.0.2, SVG Export Plug-In . SVG Version: 6.00 Build 0)  -->
<svg version="1.1"
	 id="Слой_1" image-rendering="optimizeQuality" shape-rendering="geometricPrecision" text-rendering="geometricPrecision" xmlns:xodm="http://www.corel.com/coreldraw/odm/2003"
	 xmlns="http://www.w3.org/2000/svg" xmlns:xlink="http://www.w3.org/1999/xlink" x="0px" y="0px" viewBox="0 0 238.1 150.2"
	 style="enable-background:new 0 0 238.1 150.2;" xml:space="preserve">
<style type="text/css">
	.st0{fill-rule:evenodd;clip-rule:evenodd;fill:#191919;}
</style>
<g id="Layer_x0020_1">
	<g>
		<path class="st0" d="M146.8,39.9C146.8,39.9,146.8,39.7,146.8,39.9l-0.2,0.2l0,0l0,0l0,0l-0.9,1.3l0,0l0,0l-0.6,0.9l0,0l-0.7,1.1
			l0,0l-0.2,0.4l0,0l-0.7,1.5l0,0l0,0l0,0l0,0l0,0c0,0.2,0,0,0,0l0,0v0.2l0,0l-0.2,0.4l0,0l0,0l0,0l0,0l-0.2,0.6l0,0l0,0l0,0l0,0
			l0,0l-0.2,0.4l0,0l0,0l0,0l0,0l-0.6,1.5l0,0l-0.2,0.4l0,0l0,0l0,0l-0.4,1.1l0,0V50c0,0,0,0,0,0.2l-0.6,1.9c0,0.2-0.2,0.4-0.2,0.7
			l-0.4,1.7l0,0v0.4c0,0.2,0,0,0,0.6c0,0.2,0,0.4,0,0.6c0,0.2,0,0.6,0,0.7l0,0V57c0,0.7,0,3.7,0,3.9c0,0.4,0,0,0,0.2s0,0.6,0,0.7V62
			c0,0,0,0.2,0,0.4v0.2c0,0.2,0,0.4,0,0.6c0,0.2,0,0,0,0.2v0.2c0,0.2,0,0,0,0.2v0.2c0,0.2,0,0,0,0.2v0.2c0,0.2,0,0,0,0.2l0.2,1.3
			l0,0c0,0.2,0.2,0.4,0.2,0.6c0,0.2,0,0,0,0.2l0.2,0.6l0,0v0.4l0,0l0.2,0.6l0,0l0.7,1.9l0,0v0.2l0,0l0,0l0.4,0.6l0,0l0.2,0.4l0,0
			l0,0l0.2,0.2l0,0l0.2,0.6l0,0l0.2,0.2l0,0l0,0c0,0.2,0-0.2,0,0l0,0c0,0.2,0-0.2,0,0l0.2,0.6l0,0l0,0l0.7,1.3l0,0l0.4,0.6l0,0
			l1.7,2.4l0,0c0.2,0.2,0.2,0.2,0.4,0.4c0.2,0.2,0.4,0.4,0.4,0.4c0.2,0.4,0.6,0.6,0.7,0.7c0,0,0,0,0,0.2c0.4,0.4,1.7,1.9,2.1,2.1
			l1.7,1.3l0,0l0,0L153,83l0,0h0.2h0.2l0,0l0.6,0.4l0,0l0,0l0.4,0.2l0,0l0.4,0.2l0,0l0,0l0,0l0.7,0.4l0,0l0.2,0.2l0,0l0.7,0.4l0,0
			l0.6,0.4c0,0,0,0,0.2,0l1.3,0.6l0,0l0.4,0.2l0,0h0.2l0,0l0.7,0.4l0,0l1.7,0.6l0,0l0,0l0,0l0.9,0.2l0,0l0,0l0.4,0.2
			c0.2,0,0.6,0,0.7,0.2l1.5,0.2c0.4,0,0,0,0.4,0h0.4c0.2,0,0.2,0,0.4,0c0.2,0,0,0,0.4,0c0.2,0,0.4,0,0.6,0c0.2,0,0.4,0,0.6,0
			c0.4,0,0,0,0.4,0s0.7,0,1.1,0l0,0l0,0c0.2,0,0.9,0,1.3,0V76.6H170c0,0,0,0-0.2,0c-0.2,0-0.2,0-0.4,0c-0.4,0-0.7,0-0.9,0
			c0,0,0,0-0.2,0h-0.6l0,0c-0.2,0-0.2,0-0.6,0h-0.4c-0.2,0,0,0-0.2,0h-0.4c-0.2,0,0,0-0.2,0c-0.2,0-0.2,0-0.4,0l-0.7-0.2l0,0
			l-0.6-0.2l0,0l-0.6-0.2c0,0,0,0-0.2,0l-0.4-0.2l0,0l0,0l-0.7-0.2l0,0l-0.4-0.2l0,0l0,0l0,0l0,0l-0.4-0.2c0,0,0,0-0.2,0l-1.3-0.7
			l0,0l-0.9-0.6c0,0,0,0-0.2,0l0,0l0,0l0,0l-0.6-0.4l0,0l-0.2-0.2l0,0l0,0l0,0l0,0c0,0-0.2-0.2-0.4-0.4l-0.2-0.2l0,0l-0.4-0.4l0,0
			l0,0l0,0l0,0c-0.2,0-1.9-1.7-1.9-1.9l-0.4-0.6l0,0c0-0.2-0.2-0.2-0.4-0.4l0,0l-0.4-0.4l0,0l-1.3-2.1l0,0v-0.2l0,0l0,0v-0.2l0,0
			l-0.4-0.6l0,0l-0.2-0.6l0,0l0,0l-0.2-0.6l0,0l-0.2-0.4l0,0c0,0,0,0,0-0.2l-0.2-0.4l0,0l-0.2-0.7l0,0c0,0,0,0,0-0.2V63l0,0l0,0l0,0
			l-0.4-1.5c0-0.4,0,0,0-0.2v-0.4c0,0,0,0,0-0.2v-0.4c0,0,0,0,0-0.2s0-0.2,0-0.4l0,0l0,0c0-0.2,0-0.6,0-0.7l0,0v-0.2
			c0-0.2,0-0.4,0-0.7v-1.9c0-0.2,0-0.4,0-0.6c0-0.2,0-0.6,0-0.7s0-0.2,0-0.4c0-0.2,0-0.4,0-0.6v-0.2c0-0.2,0-0.4,0-0.4l0,0v-0.2l0,0
			l0.2-0.9l0,0l0.6-1.7l0,0l0.2-0.6c0,0,0,0,0-0.2l0.2-0.6l0,0l0.6-1.1l0,0l0,0l0.2-0.4l0,0l0.9-1.3l0,0l1.7-2.1l0,0l0,0l0,0
			l1.9-1.9c0.2-0.2,0.4-0.4,0.4-0.4l0,0c0.2,0,0.2-0.2,0.4-0.2l0,0c0.2-0.2,0.6-0.4,0.7-0.6l0,0l0.7-0.6l0,0l0,0l0.9-0.6l0,0
			l0.2-0.2l0,0l0.6-0.4l0,0l0,0l0,0l0.7-0.4c0.2,0,0,0,0,0s0,0,0.2,0l0,0l0,0l2.6-0.9c0,0,0,0,0.2,0l0.6-0.2l0,0l1.3-0.2
			c0.2,0,0.2,0,0.6,0c0.2,0,0.4,0,0.4,0c0.4,0,0,0,0.6,0h0.2c0.2,0,0,0,0,0h1.9c0.2,0,0,0,0-0.2V27.2c-0.2,0,0,0-0.2,0h-0.2h-52.8
			c-0.2,0-0.2,0-0.4,0h-0.2c-0.2,0-0.2,0-0.2,0c-0.2,0,0,0,0,0v10.5c0,0.2,0,0,0,0.2s0,0,0.4,0c2.2,0,4.9,0,7.1,0h22.6
			C147,39.6,147,39.6,146.8,39.9L146.8,39.9L146.8,39.9z M112.9,109.2c0,0,0-0.2,0.2-0.2v-0.2c0-0.2,0-0.2,0.2-0.2h0.6
			c0,0.2,0,0,0,0.2l0.9,2.1l0,0l0,0c0,0.2,0,0,0,0l0.2,0.4l0,0l0.2,0.4l0,0l0.4,0.9l0,0l0,0c0,0.2,0,0,0,0v0.2l0,0v0.2l0,0l0.4,0.7
			l0,0l0.6,1.3l0,0l0,0l0.2,0.4c0,0.2,0.2,0.2,0.2,0.4c0.2,0,0,0,0,0h-7.1l0.2-0.2l0,0l0.2-0.6l0,0l1.3-2.8l0,0l0.2-0.4
			c0-0.2,0,0,0,0l0.2-0.4l0,0l0.2-0.6l0,0l0.2-0.4l0,0l0,0l0.4-0.7l0,0c0,0,0,0,0-0.2v-0.2l0,0L112.9,109.2L112.9,109.2z
			 M192.7,108.6c0.6,0,11.8,0,12,0l0,0c0.2,0,0.4,0,0.6,0.2c0.2,0,0.2,0,0.2,0.2c0.4,0.4,0.2,0.2,0.4,0.4c0.2,0.2,0,0,0.2,0.2
			l0.2,0.7c0,0.2,0,0.4,0,0.6c0,0,0,0.2,0,0.4c0,0,0,0,0,0.2l0,0L206,112l0,0l-0.2,0.2c-0.4,0.4-0.4,0.4-1.1,0.6
			c-0.4,0.2-0.2,0-0.4,0c-0.2,0,0,0-0.2,0h-0.9c-0.2,0-0.4,0-0.6,0c-0.4,0-0.2,0-0.6,0s-0.7,0-1.1,0c-3,0-5.8,0-8.8,0L192.7,108.6
			L192.7,108.6L192.7,108.6z M78.3,115.9c0,0.2-0.2,0.2,0.4,0.2c0,0.2,0,0,0.2,0h0.2c0.4,0,0,0,0.4,0h11.2c0.2,0,0.4,0,0.6,0
			l0.6,0.2c0.2,0,0.4,0.2,0.4,0.2s0,0,0.2,0.2c0,0,0,0,0.2,0.2v0.2h0.2v0.2c0,0,0.2,0,0.2,0.2c0.2,0.6,0.2,0.4,0.2,1.1
			c0,0.2,0,0.2,0,0.4v0.2l0,0v0.2c0,0,0,0,0,0.2l-0.2,0.2l0,0c0,0.2,0,0-0.2,0.2v0.2l-0.2,0.2c-0.2,0,0,0.2-0.2,0.2l-0.4,0.2l0,0
			c-0.2,0-0.2,0-0.4,0s-2.2,0-2.6,0c-4.7,0-9.2,0-13.8,0v3.4c0,0.2,0,0.2,0,0.2s0,0,0.2,0h15.5c0.2,0,0.4,0,0.6,0l0,0h0.2
			c0.2,0,0.7,0,1.1,0h0.4c0.2,0,0.2,0,0.4,0c0,0,0,0,0.2,0s0,0,0,0c0.2,0,0,0,0,0l1.7-0.6c0.2-0.2,0.2,0,0.4-0.2
			c0.4-0.2,0.4-0.2,0.7-0.6l0.2-0.2c0.2,0,0.2,0,0.2-0.2l0.6-0.9l0,0l0.6-1.7c0-0.4,0-0.4,0-0.7c0-0.2,0-0.6,0-0.7l0,0
			c-0.2-0.4,0-0.6-0.2-0.9c0-0.2,0-0.6-0.2-0.9l-0.7-1.3c-0.2-0.2-0.6-0.6-0.7-0.7l-0.6-0.4l0,0l0,0c-0.4-0.4-0.4-0.2-0.7-0.4h-0.2
			l0,0l0,0l-0.9-0.2c-0.2,0-0.2,0-0.2,0l0,0c-0.2,0-0.4,0-0.6,0c-0.2,0-0.4,0-0.7,0c-0.4,0,0,0-0.9,0h-9.9c-0.2,0-0.4,0-0.7-0.2
			l-0.6-0.2c-0.2-0.2-0.4-0.4-0.6-0.6l0,0l0,0l0,0l0,0c-0.2-0.2,0-0.4-0.2-0.6l0.2-1.5l0.2-0.2v-0.2c0.2,0,0,0,0.2-0.2l0,0l0.4-0.2
			c0.2,0,0.4-0.2,0.6-0.2c0.2,0,0,0,0.6,0c5.1,0,10.3,0,15.3,0v-3.4c0-0.2,0-0.2,0-0.2H80.9v0.2c-0.2,0-0.4,0-0.6,0l-1.1,0.2l0,0
			l0,0l-1.1,0.4l0,0l-0.4,0.2l0,0h-0.2l0,0l-0.4,0.4l0,0l-0.4,0.2c-0.4,0.4-0.4,0.4-0.6,0.6c0,0-0.2,0.2-0.2,0.4l0,0l-0.2,0.4l0,0
			l0,0l-0.2,0.7l0,0c0,0,0,0,0,0.2c0,0.2,0,0,0,0.2c0,0.2,0,0.2,0,0.4s0,0,0,0.2s0,0.4,0,0.4c0,0.4,0,0,0,0.2s0,0.9,0,1.1l0,0
			c0,0.2,0,0.4,0,0.6c0,0.2,0,0.2,0,0.2s0,0,0,0.2l0,0l0,0v0.4l0,0v0.2l0,0l0.6,1.1l0,0l0.2,0.2l0,0c0.2,0.2,0.2,0.4,0.6,0.6
			l0.2,0.2c0.2,0,0,0,0,0h0.2l0,0l0,0l0,0l1.5,0.7h0.2c0.2,0,0,0,0,0C78.1,115.9,78.1,115.9,78.3,115.9L78.3,115.9z M165.2,116.3
			h15.2v-3.6l0,0H165v-4.1h17v-3.6h-20.8c-0.2,0-0.2,0-0.4,0h-0.2c-0.2,0-0.2,0,0,0c-0.2,0-0.2-0.2-0.2,0.6c0,6.2,0,12.5,0,18.7
			c0.2,0,0,0,0.2,0c0,0,0,0,0.2,0c0.6,0,4.5,0,5.1,0c5.4,0,10.7,0,16.1,0v-3.6h-16.8c-0.2,0-0.2,0.2-0.2-0.4L165.2,116.3
			L165.2,116.3z M179.9,113.3L179.9,113.3L179.9,113.3L179.9,113.3L179.9,113.3L179.9,113.3L179.9,113.3L179.9,113.3L179.9,113.3
			L179.9,113.3L179.9,113.3z M108.1,120c0,0,0.2-0.2,0.2-0.4h10.7c0,0.2,0,0.4,0.2,0.4l0.4,0.7l0,0l0.2,0.6l0,0l0,0l0.2,0.2
			c0,0,0,0,0,0.2l0.4,0.7l0,0l0,0l0,0l0.2,0.4l0,0l0.2,0.2l0,0l0.2,0.6l0,0v0.2l0,0c0.6,0,3.9,0,4.5,0c0.2,0,0,0,0.2,0
			c0-0.2,0,0,0-0.2l0,0l-0.9-2.1l-0.2-0.2l0,0l-0.2-0.6l0,0l-0.4-0.9l0,0l0,0l-0.2-0.6l0,0l-0.2-0.4l0,0v-0.2l0,0l-0.4-0.9l0,0l0,0
			l-0.2-0.4l0,0l-0.2-0.2V117l0,0l-0.2-0.4l0,0l0,0l-0.2-0.4l0,0l-0.6-1.1c0,0,0,0,0-0.2l-0.2-0.4l0,0l-0.2-0.4l0,0l-0.4-0.7l0,0
			l-0.6-1.1l0,0l-0.2-0.6l0,0l-0.2-0.2l0,0l-0.2-0.6l0,0l0,0l0,0l-0.2-0.4l0,0l0,0l0,0v-0.2l0,0v-0.2c0-0.2,0,0,0,0l-0.2-0.2l0,0
			l-0.2-0.4l0,0l-0.6-1.1l0,0l0,0l-0.4-0.9l0,0l-0.6-1.1l0,0l0,0l-0.4-0.9h-6.7l0,0l-0.2,0.2l0,0l-0.7,1.9l0,0l-0.7,1.7l0,0
			l-0.4,0.9l0,0l-0.4,0.9l0,0l0,0l-0.4,0.7l0,0l0,0l0,0l-0.2,0.4l0,0l-0.2,0.4l0,0l0,0l-0.2,0.2l0,0l0,0v0.2l0,0l-0.4,0.7l0,0l0,0
			l0,0v0.2l0,0v0.2l0,0l-0.6,1.3l0,0l-0.7,1.7l0,0l-0.2,0.4l0,0v0.2l0,0l0,0l-0.6,1.3l0,0l0,0l0,0l-0.2,0.6l0,0l-0.4,0.9l0,0
			l-0.4,0.9l0,0l-0.4,0.9l0,0l-0.2,0.7h4.7c0-0.2,0,0,0-0.2l0.7-1.7l0,0l0.4-0.7l0,0l0.2-0.2l0,0l0.4-0.9l0,0L108.1,120L108.1,120z
			 M192.7,116.3h8.2c0,0.2,0,0,0,0.2l0.4,0.6l0,0l0.4,0.6l0,0l0.6,0.9l0,0l0.2,0.4l0,0l0.6,0.9l0,0l0.7,1.3l0,0l0,0l0,0l1.7,2.8l0,0
			h5.1c0-0.2,0-0.2,0-0.2c0-0.2-0.2-0.2-0.2-0.4l-0.2-0.4l-0.2,0.2l0.2-0.2l0,0l0,0l0,0l-0.2-0.4l0,0l-0.9-1.3l0,0l-0.6-0.9l0,0
			l-0.2-0.4l0,0l-0.4-0.7l0,0l-0.2-0.4l0,0l-0.2-0.4l0,0l-0.2-0.4l0,0V118l0,0l0,0l-0.7-1.1l0,0c0,0-0.2-0.2-0.2-0.4l0,0
			c0,0,0-0.2,0.2-0.2c0.2,0,0.2,0,0.4,0l0,0c0,0,0,0,0.2,0l0.7-0.2l0,0l0,0h0.2l0,0l1.5-0.7c0.2,0,0.2-0.2,0.4-0.4l0.6-0.6
			c0.2-0.2,0.2-0.2,0.2-0.4l0.2-0.4l0,0l0.4-0.9c0.2-0.7,0.2-0.9,0.2-1.1s0-0.2,0-0.4s0-0.7,0-0.9c0-0.2,0-0.2,0-0.4
			c0-0.6,0-0.4-0.2-0.9v-0.2l0,0l0,0l0,0c0,0,0,0,0-0.2l0,0l-0.4-0.7l0,0l0,0l0,0l0,0l0,0l0,0l-0.2-0.4c-0.2-0.2,0-0.2-0.4-0.6
			c-0.2-0.2-0.2-0.2-0.4-0.4l0,0l-0.4-0.2l0,0l0,0l0,0l-0.2-0.2l0,0c0,0,0,0-0.2,0l-1.5-0.6l0,0h-0.6c-0.2,0-0.6,0-0.7,0
			c-0.2,0,0,0-0.4,0h-8c-2.8,0-5.6,0-8.4,0v19.3c0.2,0,4.1,0,4.3,0l0,0l0,0v-7.5C192.7,116.1,192.5,116.3,192.7,116.3L192.7,116.3z
			 M131.1,105.1c-0.2,0-0.2,0-0.2,0.2v18.9c0.4,0.2,0,0,0.7,0h16.1c0.9,0,0.4,0,0.7,0c0.2,0,0.6,0,0.7,0c0.4,0,0,0,0.4,0l0.7-0.2
			l0,0l1.1-0.4l0,0l0.9-0.6l0,0l0,0l0,0l0.7-0.7l0,0l0,0l0.4-0.6l0.4-0.9l0,0v-0.2c0,0,0,0,0-0.2s0,0,0-0.2s0-0.4,0-0.4
			c0-0.2,0-0.9,0-1.3c0-0.2,0-0.4,0-0.7l-0.6-1.7c0,0,0,0,0-0.2l-0.2-0.4c-0.2-0.2-0.4-0.4-0.6-0.6l0,0l-0.7-0.6
			c0.2,0,0.2,0,0.4-0.2l0.2-0.2l0.6-0.6c0-0.2,0.2-0.2,0.2-0.4v-0.2l0,0l0,0l0.2-0.4c0-0.2,0-0.2,0-0.2V112c0-0.2,0-0.7,0.2-0.9
			c0-0.2,0-0.2,0-0.2c0-0.2,0-0.2,0-0.6c0-0.4,0-0.4,0-0.7v-0.2l0,0l-0.2-0.6c0-0.2,0,0,0,0l-0.2-0.4l0,0l-0.2-0.2l0,0l0,0l0,0
			l-0.9-1.1l0,0l-0.4-0.2l0,0l-1.9-0.7l-0.9-0.2c-0.2,0-0.6,0-0.9,0c-0.2,0-0.2,0-0.2,0c-5.4,0-10.9,0-16.3,0
			C130.9,105.1,131.1,104.9,131.1,105.1L131.1,105.1z M179.9,113.3C179.9,113.1,179.9,113.3,179.9,113.3c0.2,0.2,0.2,1.9,0,2.4
			c0,0.2-0.2,0.2,0.2,0.2c0.2-0.2,0-2.4,0-2.8l0,0l0,0l0,0l0,0c0,0,0,0,0-0.2c-0.2,0,0,0,0,0c0-0.2,0,0,0-0.2L179.9,113.3
			L179.9,113.3z M135.4,120.6v-4.5c0.7,0,12.2,0,12.4,0c0.4,0.2,0.2,0,0.6,0.2l0,0l0.4,0.2c0.4,0.2,0.2,0,0.4,0.4c0,0,0,0,0.2,0.2
			l0.2,0.6c0.2,0.7,0.2,0.6,0.2,1.5c0,0.2,0,0.2,0,0.2l0,0v0.2c0,0,0,0,0,0.2l0,0l0,0v0.2l0,0l-0.2,0.2c-0.2,0.2-0.2,0.4-0.6,0.4
			c-0.6,0.2-0.4,0.2-0.7,0.2l0,0C147.9,120.8,136.2,120.6,135.4,120.6L135.4,120.6z M135.4,112.7v-4.1c3.9,0,8,0,12,0
			c0.4,0,0.2,0,0.4,0c0.4,0,0,0,0.6,0.2l0.6,0.4c0.2,0,0,0,0.2,0.2l0.2,0.2c0.2,0.4,0,0.2,0.2,0.4c0,0.2,0,0,0,0l0,0v0.6
			c0,0.4,0,0,0,0.4c0,0.2,0,0.2-0.2,0.2l0,0l0,0l-0.2,0.4l0,0l-0.9,0.6l0,0h-0.2c-0.2,0-0.2,0-0.4,0L135.4,112.7L135.4,112.7z"/>
	</g>
</g>
</svg>
