<?xml version="1.0" encoding="utf-8"?>
<!-- Generator: Adobe Illustrator 24.0.2, SVG Export Plug-In . SVG Version: 6.00 Build 0)  -->
<svg version="1.1" id="Слой_1" xmlns="http://www.w3.org/2000/svg" xmlns:xlink="http://www.w3.org/1999/xlink" x="0px" y="0px"
	 viewBox="0 0 238.1 150.2" style="enable-background:new 0 0 238.1 150.2;" xml:space="preserve">
<g>
	<path class="st0" d="M170.9,67.5c-0.4-0.5-1-0.7-1.5-0.9c-0.4-0.2-0.4-0.6-0.7-0.7c-0.4-0.1-1,0.6-1.5,0.5c-0.5-0.2-0.5-1.1-0.9-1.2
		c-0.4-0.1-1.2,0.6-1.6,0.4c-0.4-0.1-0.5-1.1-0.8-1.2c-0.4-0.1-1.2,0.6-1.6,0.5c-0.4-0.1-0.4-1.1-0.8-1.2c-0.4-0.1-1.2,0.6-1.6,0.5
		c-0.4-0.1-0.4-1.1-0.8-1.2c-0.4-0.1-1.2,0.6-1.6,0.4c-0.4-0.1-0.5-1.1-0.9-1.2c-0.4-0.1-1.1,0.5-1.7,0.4c-4.1-0.4-5.6-2.9-5.9-2.2
		c-0.3,0.7,0.8,2.5,2.2,3.1c1.1,0.5,13.2,3.8,13.5,4c0.3,0.2,1.1,0.5,0.8,0.9c-0.4,0.6-1.6,0-1.9-0.2c-0.3-0.2-0.2-0.3-0.5-0.4
		c-0.7-0.2-1,1-1.7,0.9c-0.6-0.1-0.6-1.4-1.2-1.5c-0.7-0.2-1,1-1.7,0.9c-0.6-0.1-0.6-1.4-1.2-1.5c-0.7-0.2-1,1-1.7,0.9
		c-0.6-0.1-0.6-1.4-1.2-1.5c-0.6-0.2-1.1,1-1.7,0.9c-0.6-0.1-0.7-1.4-1.2-1.5c-0.5-0.1-1,0.5-1.7,0.6c0,0-2.1,0.6-5.5-2.9
		c-3.3-3.5-4.7-4.2-6.6-2.7c-3.1,2.3-5,0.8-5.6,0.1c-0.7-0.8,0-1.5,0-1.5s1,1.5,2.2,1.6c2,0.1,3.5-2.7,6.9-2.7
		c4.4-0.2,5.5,1.4,6.7,1.5c1.1,0.1,1.5-0.1,2.2-0.5h0c0.6-0.2,1.2,1,1.8,0.7c0.7-0.3,0.2-1.5,0.9-1.7c0.7-0.2,1.1,1,1.8,0.7
		c0.7-0.2,0.2-1.5,0.9-1.7c0.7-0.2,1.1,1,1.8,0.7c0.7-0.3,0.2-1.5,0.9-1.7c0.7-0.2,1.2,1,1.8,0.7c0.6-0.2,0.3-1.5,0.9-1.7
		c0.7-0.2,1.1,1,1.8,0.7c0.6-0.2,0.3-1.5,0.9-1.7c0.6-0.2,1.2,1,1.8,0.7c0.6-0.2,0.2-1.5,0.9-1.7c0.7-0.2,1.2,0.9,1.8,0.7
		c0.6-0.2,0.2-1.2,1-1.7c0,0,1.1-0.4,1.1-1.2c0-0.1-0.2-1.9-2.1-2.3c-1.8-0.4-16,3.6-16.2,3.3c-1.3-2.6-3-1.9-3.2-1.8
		c-0.3,0.1-1.8,0.7-3.6,0.1c-3.5-1.6-6.2,2.4-8.1,1.9c-1.7-0.5-3.1-0.2-3.8,0c-0.7,0.2-1.7,1.1-4,0.3c-17.7-6.1-31.6-0.8-31.6-0.8
		c-7.8,2.6-8.8,0-8.8,0s-2.6-3.5,15.5-7.7c26-6,26.8-15.9,26.5-16.5c-0.4-0.9-0.6,0.2-1.4,1.1c-0.7,0.8-1.6,0.4-1.6,0.4
		c-0.8-0.4-1.3,0.5-1.3,0.5s-1.1,1.6-2,0.7c-0.9-0.9-2.1,1.1-2.5,1.2c-0.5,0.1-0.8-0.2-1.5-0.5c-1.1-0.5-2.2,1.5-2.8,1.6
		c-0.9,0.2-1.5-1.1-2.3-0.5c-2.3,1.6-2.7,1.8-3.3,1.2c-0.5-0.5-0.5-1-2.1,0.5c-1.3,1.3-1.9,1.5-2.5,0.7c-0.5-0.8-0.4-1.9-2.7,0.3
		c-1.1,1-1.6,1.1-2.2,0.6c-0.5-0.3-0.5-2-2.1-0.5c-1.5,1.4-2.5,2-3,0.7c-0.5-1.4-2.2,0.2-2.6,0.6c-0.4,0.4-1.3,1.4-1.9,0.3
		c-0.6-1-2.1,0.5-3,1.5c-0.7,0.8-1.2,0.2-2-0.3c-0.8-0.6-3.3,2.9-3.5,3.1c-0.2,0.2-0.4,0-1-0.5c-0.9-0.7-3.2,3.3-3.6,3.6
		c0,0-0.2,0.4-0.8-0.3c-0.9-0.9-5.7,5.5-7.5,12.6c-2.3,9.2,1.4,16.2,1.4,16.2s1.1,0,1.6-0.7l0.7-1.6c0.6-1.4,1.5-0.9,1.5-0.9
		l-2.3,6.7c-0.4,0.9-0.1,2.1,0.7,3.3c0.7,1.2,1.3,2,1.9,2.6c1.8,1.7,1.7-0.3,1.7-0.6c0.2-1.1,1.4-0.3,2.4,0.3c1.7,1,1.5-1.2,1.9-1.9
		c0.3-0.5,1.1-0.5,2,0.2c0.7,0.6,1.4-1.4,1.4-1.4c0.9-4.3-1.2-4.8-2.4-4.9l-2.3-0.1c0,0,0.2-0.7,0.4-1.3l0.1-0.4
		c2.5-6.3-1.7-7.5-3-7.4c-1.4,0.1-1.3-0.8-1.3-0.8s7.6-1.5,6.2,6.6c0,0-0.3,1.4-0.4,2.1l2.1,0.2c1.8,0.2,2.1,2.4,2.1,2.4
		s6.6,1.7,10.4,1.1c0,0,1.7-0.4,2.1-1.4c0,0,2.4-5.7,9.5-6c0,0,0.2,0.7-0.9,1.1c-1.4,0.5-5.9,0.8-6.8,6v0c-0.1,0.9,0.1,2.7,2,3.5
		c1.6,0.7,2.1,3.6,2.5,4.4c0.9,2.2,2.3,0.1,2.3,0.1s0.9-1.8,1.6-0.8c1.3,1.7,1.9,0.8,2.1-0.2c0.3-1.1,0.8-1.6,2.1-0.2
		c0.6,0.6,1.7,0.1,1.8-0.9c0.2-2.3,1.8-0.5,2-0.4c0.3,0.1,1.9-0.3,1-2.8c0,0-1.2-2.4-6.7-3.5c-1.3-0.2-1.1-1.2-1.1-1.2l1.2,0.2
		c0.4,0.1,3.5,0.4,3.9,0.5c13.4,1.3,23.5-3.2,23.8-3.5c10.4,2,24.5,1.3,27.1,0.4C171,69.5,171.2,67.9,170.9,67.5z M149.5,50.9
		c0.2-0.3,0.4-0.5,0.6-0.6c0.8-0.5,1.3,1,1.2,1c0,0,0,0,0,0v0c-0.1,0.1-1.7,0.5-1.8,0.4C149.1,51.5,149.5,50.9,149.5,50.9z
		 M143.6,51.4c0,0,0.2-0.3,0.6-0.4c0.4-0.1,1-0.2,1.7,0.3c0.9,0.6,0.9,1,0.9,1c0,0-0.1,0-0.1,0c-0.6,0.2-3.3,0.6-3.3,0.6
		C142.9,52,143.6,51.4,143.6,51.4z M94.6,38.7c0.4,0.3,0,2.3-0.3,2l-2.3-1.2C92.1,39.5,94.2,38.4,94.6,38.7z M91,39.9
		c0.4,0.3,0,2.3-0.3,2l-2.3-1.2C88.4,40.7,90.5,39.6,91,39.9z M89.7,43.8c0.4,0.3,0,2.3-0.3,2l-2.3-1.2
		C87.1,44.6,89.2,43.4,89.7,43.8z M87.5,48.9l-2.3-1.2c0,0,2.1-1.1,2.6-0.8C88.3,47.2,87.8,49.2,87.5,48.9z M87.1,52.8l-2.3-1.2
		c0,0,2.1-1.1,2.5-0.8C87.8,51.1,87.4,53,87.1,52.8z M87.1,41.3c0.4,0.3,0,2.3-0.3,2l-2.3-1.2C84.5,42.1,86.6,41,87.1,41.3z
		 M85.1,44.3c0.4,0.3,0,2.3-0.3,2l-2.3-1.2C82.5,45.1,84.7,43.9,85.1,44.3z M81.1,49c0,0,2.1-1.1,2.5-0.8c0.4,0.3,0,2.3-0.3,2
		L81.1,49z M82.8,53.9l-2.3-1.2c0,0,2.1-1.1,2.5-0.8C83.5,52.2,83.1,54.1,82.8,53.9z M81.2,45.6c0.4,0.3,0,2.3-0.3,2l-2.3-1.2
		C78.6,46.4,80.7,45.3,81.2,45.6z M79.1,49.6c0.4,0.3,0,2.3-0.3,2l-2.3-1.2C76.6,50.4,78.7,49.3,79.1,49.6z M76.2,54.3
		c0,0,2.1-1.1,2.5-0.8c0.5,0.3,0,2.3-0.3,2L76.2,54.3z M80.2,58.7L78,57.5c0,0,2.1-1.1,2.6-0.8C81,57,80.5,59,80.2,58.7z M83.5,61.3
		l-2.3-1.2c0,0,2.1-1.1,2.6-0.8C84.2,59.6,83.8,61.6,83.5,61.3z M84.5,57.2L82.2,56c0,0,2.1-1.1,2.6-0.8
		C85.2,55.5,84.8,57.5,84.5,57.2z M87.5,63.1l-2.3-1.2c0,0,2.1-1.1,2.5-0.8C88.2,61.4,87.8,63.4,87.5,63.1z M88.6,59.3l-2.3-1.2
		c0,0,2.1-1.1,2.5-0.8C89.3,57.6,88.9,59.6,88.6,59.3z M89.3,55.7L87,54.5c0,0,2.1-1.1,2.6-0.8C90.1,54.1,89.6,56,89.3,55.7z
		 M92.5,62.6l-2.3-1.2c0,0,2.1-1.1,2.6-0.8S92.8,62.9,92.5,62.6z M93.5,58.9l-2.3-1.2c0,0,2.1-1.1,2.6-0.8
		C94.2,57.2,93.8,59.1,93.5,58.9z M94.3,54.9L92,53.7c0,0,2.1-1.1,2.6-0.8C95,53.2,94.6,55.2,94.3,54.9z M97.5,61.9l-2.3-1.2
		c0,0,2.1-1.1,2.6-0.8C98.2,60.2,97.8,62.2,97.5,61.9z M98.2,57.9L96,56.7c0,0,2.1-1.1,2.5-0.8C99,56.2,98.5,58.2,98.2,57.9z
		 M99,53.8l-2.3-1.2c0,0,2.1-1.1,2.5-0.8C99.7,52.1,99.3,54.1,99,53.8z M102.4,60.3l-2.3-1.2c0,0,2.1-1.1,2.5-0.8
		C103.1,58.7,102.7,60.6,102.4,60.3z M103,56.4l-2.3-1.2c0,0,2.1-1.1,2.5-0.8C103.8,54.7,103.3,56.7,103,56.4z M103.8,52.5l-2.3-1.2
		c0,0,2.1-1.1,2.6-0.8C104.5,50.8,104.1,52.8,103.8,52.5z M107.3,59.5l-2.3-1.2c0,0,2.1-1.1,2.5-0.8C108,57.8,107.6,59.8,107.3,59.5
		z M107.9,55.8l-2.3-1.2c0,0,2.1-1.2,2.5-0.8C108.6,54.1,108.2,56.1,107.9,55.8z M108.6,51.8l-2.3-1.2c0,0,2.1-1.2,2.6-0.8
		C109.4,50.2,109,52.1,108.6,51.8z M111.8,59.6l-2.3-1.2c0,0,2.1-1.1,2.5-0.8C112.5,57.9,112.1,59.8,111.8,59.6z M112.5,55.6
		l-2.3-1.2c0,0,2.1-1.1,2.6-0.8C113.3,53.9,112.8,55.9,112.5,55.6z M113.4,51.6l-2.3-1.2c0,0,2.1-1.1,2.6-0.8
		C114.1,50,113.7,51.9,113.4,51.6z M116.5,59.6l-2.3-1.2c0,0,2.1-1.1,2.5-0.8C117.2,57.9,116.8,59.8,116.5,59.6z M117.2,55.8
		l-2.3-1.2c0,0,2.1-1.1,2.5-0.8C117.9,54.1,117.5,56.1,117.2,55.8z M118.1,52l-2.3-1.2c0,0,2.1-1.1,2.5-0.8
		C118.8,50.3,118.4,52.3,118.1,52z M120.9,60.1l-2.3-1.2c0,0,2.1-1.1,2.6-0.8C121.7,58.4,121.2,60.4,120.9,60.1z M121.7,56.5
		l-2.3-1.2c0,0,2.1-1.1,2.5-0.8C122.5,54.8,122,56.8,121.7,56.5z M122.6,52.8l-2.3-1.2c0,0,2.1-1.1,2.6-0.8
		C123.3,51.1,122.9,53,122.6,52.8z M126.1,57.3l-2.3-1.2c0,0,2.1-1.1,2.6-0.8C126.8,55.6,126.4,57.6,126.1,57.3z"/>
	<path class="st0" d="M66.7,91.5c-0.5-1.3-1.4-1.8-3-1.8c-0.2,0-7.7,0-7.7,0l-11.3,30.6h5.5c0.5,0,0.9,0,1.3-0.2c1.1-0.5,1.6-1.7,1.7-2.1
		c0,0,1.5-4.3,1.6-4.5c0.8,0,10.7,0,11.3,0c0.2,0.7,2.3,6.9,2.3,6.9h7.4l-4.7-14.9L66.7,91.5z M64.4,107.2c-1.1,0-7.2,0-7.6,0
		c0.8-2.3,2.9-8,3.7-10.3C61.3,99.2,64.4,107.1,64.4,107.2z"/>
	<path class="st0" d="M120,89.5c-8.8,0-15.1,6.6-15.1,15.6c0,8.9,6.5,15.6,15.1,15.6s15.4-6.8,15.4-15.6C135.4,96.3,128.6,89.5,120,89.5z
		 M120.2,113.8c-4.5,0-8-3.9-8-8.8c0-4.9,3.4-8.6,8-8.6c4.5,0,7.8,3.6,7.8,8.6C128,110.1,124.7,113.8,120.2,113.8z"/>
	<path class="st0" d="M155.2,102.4l-0.3-0.1c0,0-2.9-0.9-2.9-0.9l-0.4-0.2c-2.3-0.8-4-1.6-4-2.9c0,0,0-0.1,0-0.1c0.2-2.3,4.4-2.3,4.5-2.3
		c2.3,0,4.1,0.4,6.3,1.3l0,0l0.1,0c0.5,0.1,1,0.1,1.3,0l0.6-0.2c0.9-0.5,1.8-3.1,2.1-4.2l0.1-0.4l-0.3-0.2c-0.1-0.1-0.8-0.6-3.1-1.5
		c-2.4-0.9-5.9-1.1-5.9-1.1l-1.7,0c-8.8,0-12.2,5.5-12.3,9.1c-0.1,3.7,2,5.5,5.1,7.2c1.3,0.7,3.7,1.4,5.5,1.9c0,0,1.8,0.5,1.8,0.5
		c3.3,1,4.6,2.2,4.3,4c-0.1,0.6-1.2,1.6-3.7,1.6c-1.9,0-3.7-0.3-5.5-0.9c-0.9-0.3-1.8-0.8-2.7-1.4l0,0l-0.1,0
		c-0.5-0.2-1-0.3-1.4-0.2l-0.7,0.2c-1,0.4-2.4,3-3,4l-0.2,0.4l0.4,0.3c0.1,0,1.6,1.3,3,2.1c1.6,0.9,3.3,1.5,5.4,1.9
		c0.8,0.2,2.2,0.3,4.3,0.3c6.9,0,11.8-3.5,12.4-8.6C164.5,107.4,161.7,104.3,155.2,102.4z"/>
	<path class="st0" d="M169.9,89.8c-0.3,0-1.8,0-2.6,0.8c-0.4,0.4-0.6,0.8-0.6,1.4l0,4.9c0,0,8.3,0,9.4,0c0,1.1,0,23.6,0,23.6l7.7,0
		c0,0,0-22.4,0-23.5c1,0,6,0,6,0c0.3,0,1.8,0,2.6-0.8c0.4-0.4,0.6-0.8,0.6-1.4v-4.8L169.9,89.8L169.9,89.8z"/>
	<path class="st0" d="M38.5,113.4c0,0-6.4,0-8.6,0c0-1.1,0-20.9,0-20.9c0-0.9-0.3-1.6-0.8-2c-0.8-0.8-2.1-0.8-2.5-0.8l-4.5,0l0,30.6h19.2l0-4.9
		C41.2,114.9,41,113.4,38.5,113.4z"/>
	<path class="st0" d="M93.3,96.3c1.9-0.1,3.4,0,4.9,0.4c0.8,0.3,1.5,0.3,2.1,0.1l0.6-0.3c0.9-0.5,1.5-3.2,1.8-4.8l0.1-0.4l-0.3-0.2
		c-0.1-0.1-0.3-0.2-3.1-1c-2.5-0.7-4.8-0.8-5.9-0.8h-0.1c-6.3,0-15.9,4.2-16.2,15.7v0.1C77.4,116.8,87,121,93.3,121l0.1,0
		c1.1,0,3.4-0.1,5.9-0.8c2.8-0.7,3-0.9,3.1-1l0.3-0.2l-0.1-0.4c-0.3-1.6-0.9-4.2-1.8-4.8v0l-0.6-0.3c-0.6-0.2-1.3-0.1-2.1,0.2
		c-1.5,0.4-3,0.5-4.9,0.4c-4.8-0.5-7.7-3.7-7.9-9C85.6,100,88.5,96.7,93.3,96.3z"/>
	<path class="st0" d="M215.6,120.3c1.2,0,3.2-0.7,3.2-3.1l0-3.8l-13.5,0c0,0,0-4.4,0-5.1c1.1,0,11.1,0,11.1,0l0-7.1c0,0-10,0-11.1,0
		c0-0.8,0-3.6,0-4.4c1.1,0,10.2,0,10.2,0c0.3,0,1.8,0,2.6-0.8c0.6-0.6,0.6-1.6,0.6-2.2v-4h-21.2l0,30.6L215.6,120.3z"/>
</g>
</svg>
