<?xml version="1.0" encoding="utf-8"?>
<!-- Generator: Adobe Illustrator 24.0.2, SVG Export Plug-In . SVG Version: 6.00 Build 0)  -->
<svg version="1.1" id="Слой_1" xmlns="http://www.w3.org/2000/svg" xmlns:xlink="http://www.w3.org/1999/xlink" x="0px" y="0px"
	 viewBox="0 0 238.1 150.2" style="enable-background:new 0 0 238.1 150.2;" xml:space="preserve">
<style type="text/css">
	.st0{fill-rule:evenodd;clip-rule:evenodd;fill:#4B4B4D;}
</style>
<g id="Слой_x0020_1">
	<path class="st0" d="M192.6,24.3c-0.9,0.1-1.5,0.6-0.9,1.6L192.6,24.3z M26.3,59.7c-0.5,0.8,0.3,0.3-0.8,0.6
		c-0.2-0.8-0.6-0.6,0.5-1.2c0.1-0.4,0.1-0.5,0.2-0.9c0.2-1.1-0.2-0.4,0.4-1.2C27.7,57.8,27.3,59,26.3,59.7z M19.2,56.9
		c0.3,0.7,0,0.9,0.3,1.8c0.3,0.7,0.5,0.4,0.6,1.3C19.1,60.3,17.2,57.9,19.2,56.9z M20.4,57.3l1.7-0.3c-0.2,0.9,0.2,0.4-0.2,0.9
		c0.4,0.4,0.1,1.5,0,1.9c0-0.6-0.5-0.8-1.1-1.3l0.2-0.6L20.4,58C20.4,58,20.4,57.3,20.4,57.3z M23.4,57.3c0.8-0.5,0.7-0.4,1.6-0.2
		l0.4,1.2h-0.6l-1.2,1.3c-0.3-1-0.3-0.9,0-1.9C23.2,57.6,23.2,58.1,23.4,57.3z M26.2,60.6c3.1-2.2,1.9-5.4-2.8-4.2
		c-0.6-1.4-0.3-0.9,0.1-1.9c-1.1-0.5,0-0.2-1-0.7c-0.3,0.9,0.3,0.4-0.5,0.8c0.7,1.4,0.9,2.1-1.6,1.6c-1.5-0.3-4.9,1.6-1.1,4.5
		c0.5,1.2,0.9,0.9,0.1,2l0.8,0.3c1.2,0.1,4.7,0.1,5.7-0.1C25.7,60.9,25.5,62.4,26.2,60.6z M25.4,76.3l-0.5,0.5
		c0-1.3,0.6-2.8,0.4-4.1c-1.1-0.2-0.4-0.3-1.4,0.3c0,1.3,0.2,0,0.3,1l-0.7,0.7c-0.9-1.6,0.5-2.1-0.7-3.2c-1,1.1,0,1.7-0.6,3.1
		l-0.4,0c0,0-0.2-0.4-0.2-0.4c-0.1-0.4-0.1-0.1,0-0.4c0-0.4,0.7,0.1,0-0.9l-1.2-0.2c-0.3,1.3-0.2,1.5,0.3,2.6l-0.7,0
		c-0.5-1.1-0.2-1.8-0.8-2.5c-0.7,0.8-0.1,1.2-0.1,2.5c-0.4,0.2-0.1,0.1-0.6,0.2l-0.2-0.1c-0.3-0.4-0.1-0.1-0.4-0.5
		c0-0.1-0.2-0.4-0.2-0.4l-0.3,0.4c0.5,0.9,0,0.4,0.2,1.4c0.1,0.5,0.4,1.1,0.6,1.7c0.6-0.1,0.3,1,0.6,1.7c2,0.7,6,0.5,7.9-0.1
		c0.4-1.1,0.1-1,0.8-2.2c0.6-1,0.6-1,0.6-2.2l0.7-0.8l-1.3-0.4l-0.1,1.3c-1,0.8-0.2,0.8-0.9,1.9c-0.2-0.6,0.3-0.2,0.2-1.8
		c0-0.7-0.1-0.4,0-1.2c0.1-1,0.3-0.2,0-1.4C25.9,73.1,25.2,75.5,25.4,76.3z M19.4,79.2c1.7-0.8,4.7-0.6,6.6-0.1
		C24.8,79.7,20.6,79.7,19.4,79.2z M50.9,58.5c0.2-1.3,0.7-0.8,0.3-2.1l-0.8,0.4l-0.2-0.6l-1.1,0c-0.8,1.3,0,0.5-1.3,0.4
		c0,1.2,0.1,0.6,0.2,1.1c0.1,0.7,0.4,0.3-0.2,0.7l-0.7-1c-0.9,1.1-0.3,0.8-1.5,1.1l-0.2,1.5l0.1,0.4c0.6-0.2-0.1,0.9,0.5,1.9
		c1.9,0.5,5.5,0.5,7.4-0.1c0.4-0.9-0.2-1,0.4-2.5l0.1-0.3l0.2-1.1c-1.6,0.3-0.9,0.4-1.8-0.8C52.3,57.3,50.9,58.5,50.9,58.5z
		 M39.8,59.7c-0.5,0.8,0.3,0.3-0.8,0.6c-0.2-0.8-0.6-0.6,0.5-1.2c0.1-0.4,0.1-0.5,0.2-0.9c0.2-1.1-0.2-0.4,0.4-1.2
		C41.2,57.8,40.8,59,39.8,59.7z M32.8,56.9c0.3,0.7,0,0.9,0.3,1.8c0.3,0.7,0.5,0.4,0.6,1.3C32.6,60.3,30.7,57.9,32.8,56.9z
		 M33.9,57.3l1.7-0.3c-0.2,0.9,0.2,0.4-0.2,0.9c0.4,0.4,0.1,1.5,0,1.9c0-0.6-0.5-0.8-1.1-1.3l0.2-0.6L33.9,58
		C33.9,58,33.9,57.3,33.9,57.3z M36.9,57.3c0.8-0.5,0.7-0.4,1.6-0.2l0.4,1.2h-0.6l-1.2,1.3c-0.3-1-0.3-0.9,0-1.9
		C36.7,57.6,36.7,58.1,36.9,57.3z M39.7,60.6c3.1-2.2,1.9-5.4-2.8-4.2c-0.6-1.4-0.3-0.9,0.1-1.9c-1.1-0.5,0-0.2-1-0.7
		c-0.3,0.9,0.3,0.4-0.5,0.8c0.7,1.4,0.9,2.1-1.6,1.6c-1.5-0.3-4.9,1.6-1.1,4.5c0.5,1.2,0.9,0.9,0.1,2l0.8,0.3
		c1.2,0.1,4.7,0.1,5.7-0.1C39.2,60.9,39,62.4,39.7,60.6z M50.3,56.1l-0.2-1l-0.6-0.2c-0.5,0.5-0.7,0.6-0.5,1.2L50.3,56.1z
		 M38.9,76.3l-0.5,0.5c0-1.3,0.6-2.8,0.4-4.1c-1.1-0.2-0.4-0.3-1.4,0.3c0,1.3,0.2,0,0.3,1L37,74.7c-0.9-1.6,0.5-2.1-0.7-3.2
		c-1,1.1,0,1.7-0.6,3.1l-0.4,0c0,0-0.2-0.4-0.2-0.4c-0.1-0.4-0.1-0.1,0-0.4c0-0.4,0.7,0.1,0-0.9l-1.2-0.2c-0.3,1.3-0.2,1.5,0.3,2.6
		l-0.7,0c-0.5-1.1-0.2-1.8-0.8-2.5c-0.7,0.8-0.1,1.2-0.1,2.5c-0.4,0.2-0.1,0.1-0.6,0.2l-0.2-0.1c-0.3-0.4-0.1-0.1-0.4-0.5
		c0-0.1-0.2-0.4-0.2-0.4l-0.3,0.4c0.5,0.9,0,0.4,0.2,1.4c0.1,0.5,0.4,1.1,0.6,1.7c0.6-0.1,0.3,1,0.6,1.7c2,0.7,6,0.5,7.9-0.1
		c0.4-1.1,0.1-1,0.8-2.2c0.6-1,0.6-1,0.6-2.2l0.7-0.8l-1.3-0.4l-0.1,1.3c-1,0.8-0.2,0.8-0.9,1.9c-0.2-0.6,0.3-0.2,0.2-1.8
		c0-0.7-0.1-0.4,0-1.2c0.1-1,0.3-0.2,0-1.4C39.5,73.1,38.7,75.5,38.9,76.3z M49.9,76.4c-0.3-0.7-0.4-0.9,0-1.8
		C50.5,75.8,50.4,75.3,49.9,76.4c1.3,0.7,0.7,0,0.9,0.7c-0.8,0.4-1.2,0.4-1.6,0L49.9,76.4z M46.2,74.5l0.8,0.6c-0.3,1-0.3,1-1.3,1
		c-0.7-1,0.2-2.1-1.6-2l0.8,2c1.1,0.9,0.9,1.6,1.1,2.8c2.4,0.3,5.4,0.4,7.8,0c0.2-0.3,0.4-2.5,1.7-3.6c-0.3-0.9-0.1-0.4,0.1-0.4
		c-0.1-0.7,0.6-0.3-0.5-0.6C53.9,75,55,74.8,54.3,76c-0.9,0.2-0.5,0.3-1.3-0.2c-0.3-1.9,2-0.9,0.1-2.9c-1.9,0.7-0.5,1.1-1.3,2.4
		c-1.4-0.2-1.9-0.7-1.3-2c0.4-1,0.5-1.1-0.8-1.8c-1.4,1.6-0.7,0.8-0.4,2.1c0.3,1.3-0.2,1.7-1.4,1.7c-0.7-1.2,0-1-0.2-1.5
		c-0.3-1-0.2-0.8-1.3-0.9C46,73.8,45.9,73.4,46.2,74.5z M32.9,79.2c1.7-0.8,4.7-0.6,6.6-0.1C38.4,79.7,34.2,79.7,32.9,79.2z
		 M50.9,23.5c0.2-1.3,0.7-0.8,0.3-2.1l-0.8,0.4l-0.2-0.6l-1.1,0c-0.8,1.3,0,0.5-1.3,0.4c0,1.2,0.1,0.6,0.2,1.1
		c0.1,0.7,0.4,0.3-0.2,0.7l-0.7-1c-0.9,1.1-0.3,0.8-1.5,1.1l-0.2,1.5l0.1,0.4c0.6-0.2-0.1,0.9,0.5,1.9c1.9,0.5,5.5,0.5,7.4-0.1
		c0.4-0.9-0.2-1,0.4-2.5l0.1-0.3l0.2-1.1c-1.6,0.3-0.9,0.4-1.8-0.8C52.3,22.4,50.9,23.5,50.9,23.5z M41.4,7.7l0.1-0.5
		c0.1-1.2,0.4-1.5,0.2-2.8c-1.1,0.4-0.5,0.2-1,0.9c-0.8,1-0.1,0.1-1,0.8l-0.6-1.9c-0.6-0.1-0.3-0.1-0.4-0.1c0,0-0.1,0-0.1,0
		c-0.9-0.4,0.4-0.2-0.4-0.2l-0.5,1.3l-0.5-1.1c0-0.8-0.1-0.8-0.9-1.2c-0.8,0.3-1,0.5-1.2,1.4l-0.5,0.2l0.1-0.3L34,3.7
		c-0.6,0.8-0.2,0.1-1.1,0.7l-0.1,1.7c-1.2-0.7-0.1,0.5-1-0.7c-0.5-0.8-0.1-0.5-0.8-1c-0.5,0.9-0.1,1.7,0,2.8l1.5,0.3
		c-0.3,0.8,0.2-0.4-1.5,0.2l0.3,2c0.6,0,2.3,0.5,3.2,0.5c1.6,0.1,3,0,4.6-0.1l2.2-0.5C41.3,9.7,41.4,7.7,41.4,7.7z M59.3,94.1
		l0.6,1.4l0.8,1c2.4-0.3,4.5,0.6,7.4-0.4l0.3-1c0.5-0.5,0.3-0.3,0.5-1.1l0.9-1.8c0-0.1,0.2-0.3,0.2-0.4l0.2-0.4l0.4-1.8
		c-1,0.3-1.4,0.9-1.5,1c-0.7,0.5-0.5-0.1-1.6,0.6c0.5,0.9,1.3,1.2,1.2,1.7c-1,0.8-1.4-0.2-2.1-0.2c-0.7,0-1.1,0.8-2-0.5
		c0.5-0.3,1,0.1,1.9-1c-1.4-1.2-1.2-1.5-2.3-2.8l-0.6,0.5c-0.8,1.4-0.8,1.2-1.7,2.3c0.8,1,1.2,0.7,1.8,1c-1.2,1.4-1.2,0.4-2,0.5
		c-0.8,0.1-0.9,1.1-2.1,0.2c0.2-1.2-0.2,0.4,1.3-1.7l-3.2-1.7C57.9,91.4,59.2,93,59.3,94.1L59.3,94.1z M107.7,127.4
		c-0.2-0.6,0,0,0-0.6l0.1-1.2c0.2-0.6,0.4,0-0.1-1.1l0.6-0.2c-0.8-0.9-0.2-0.3-0.2-1c-0.1-1-0.3,0-0.1-1.4c-1.8,0-0.5,0.2-1-1
		l-0.8,0.9l-0.6-1.3l-0.6,1.2l-1-0.6c-0.5,1.3,0.6,0.3-1,1.1c0.9,0.9,0.3,0.4,0.1,1l-0.1,0.2c-0.1,0.6,0-0.4,0,0.4c0,0,0,0.1,0,0.1
		l0.4,1.1c-0.3,0.3-0.7,0.1,0.4,0.2c0.1,0,1.7-0.7,2-0.8c0.6-0.2,0.1-0.1,0.8,0.1c0.7,0.2,0.5,0.1,1.2,0.1L107.7,127.4L107.7,127.4z
		 M26.1,111.3c1.4-0.9,0.4-2.8,0.1-4.1c-1.2-0.1-0.4-0.2-1.8-0.4l-0.1-0.1c-0.5,0.6-0.3-0.2-0.4,1l-0.8-0.1
		c-0.8,0.4-0.5,0.6-0.6,1.8c-0.7-1.7-0.9,1-1-1.6c-3.2-0.8-0.1-0.2-1.9-1.1c-1.6,0.3-2.2,0.9-2.4,2.5l0.3,1.5
		c0.2,0.8,0.5,0.8,0.7,1.4c0.1,0.4,0,1,0.2,1.9c1.3,0.3,2.7,0.1,4,0.1c1.2,0,3.4,0.4,3.4-0.8l-0.2-0.8L26.1,111.3L26.1,111.3z
		 M32.1,109.2l-0.1,2.5c-0.2,0.2-0.2-0.5-0.3,0.6c1.4,1,3.6,1,5.3,0.9l3-0.8l-0.1-0.9l0-0.7l-0.8-0.1c0.1,0.1,0.1,0.2,0.1,0.1
		l-7.3,0.9l2.8-1.3C34.8,110.4,32.1,109.2,32.1,109.2z M37.3,109.6l0-0.8l0,1.1l-1.1-0.2l-0.8-0.2c-0.6,1.4-0.5,0.8-1,0.9
		c0,0-0.1,0-0.1,0c0,0-0.1,0-0.1,0l-0.4,0.2c-1.6,0.1,0.3-0.1-1.9,1.1L37.3,109.6z M37.3,108.8l-1.3-2.2l-0.1,2.7l-0.3-2.7l-1.5,2.7
		c-0.1-0.4-0.8-1.9-0.9-2l-1.2,2C32.1,109.2,37.3,108.8,37.3,108.8z M17.3,6.7c-0.2,1.5-0.1,2,0.3,3.4c0.8,0.1,0.9-0.1,2-0.3
		c2.1-0.3,5.7-0.1,7.6,0.4l0-1.7L27,8.1c0.4-0.5,0.2-0.5,0.1-1.4c0.4-0.6,0.8-3,0.5-3.5c-1.1-0.3,0,2.8-1.9,2.3
		C24.9,4.3,26.1,4.5,25,3c-1.7,0.8,0.2,2.9-1.9,2.5c-0.6-0.9-0.3-0.8-0.2-1.7c0-1.3-0.2-0.5-0.3-1.5c-1.9,0.2-0.4,2.1-1.3,3.3
		c-2.1,0-0.1-1.3-1.7-2.6c-1.3,1.4,0.2,1.2-0.8,2.6c-1.2,0-0.9-0.1-1.1-1.1c-0.3-1.2-0.1-0.5-0.8-1.4C16.7,3.8,16.9,6.1,17.3,6.7z
		 M169.8,9.5c2.6-0.6,5.8-0.6,8.4-0.1c-1,0.7-2.8,0.5-4.2,0.5C172.7,9.9,170.8,10.1,169.8,9.5z M169.2,9.2c0.6,1.3,2.3,1.1,4.6,1.2
		c1.6,0,3.6,0.1,5.1-0.6l0.1-2.4c0.2-0.3,0.3-0.9,0.5-1.4c0.4-1.2,0.6-0.9,0-1.2c-0.2,0.4-0.8,0.7-1.1,1.2c-0.5,0.7-0.4,0.9-0.8,1.6
		c-0.4,0.7-0.1,0.7-0.4,0l0.4-2.9c-1.5-0.2-1.8,1.9-1.8,3.1c-0.8,0.3-0.3,0.2-0.5-0.4c0.5-1.5,0.4-3.5-1.2-4.2
		c-1.8,0.8-1.5,2.6-1.2,4.2c-0.4,0.8,0,0.6-0.4,0.3c-0.2-1.1-0.4-2.9-1.6-3.2c-0.6,1.1,0.3,2.7-0.1,3.6c-0.7-1.3-0.8-2.7-2.4-3.3
		C168.4,6.2,169.3,6.8,169.2,9.2L169.2,9.2z M183.8,8.9c0.8-0.7-0.3-0.2,0.8-0.7l0.5,1.1c-0.5,0.2-1.6,0.3-2.2,0.2l0.2-1L183.8,8.9z
		 M187.8,8.8c0.6-2.1,0.6-0.4,0.5-2.8c0-1.2,0.2-1.7,1-2.3c1.1,0.7,1.4,1.3,0.9,2.7c-0.8,2.1,0,1.2-0.4,2.9c-0.3,0-0.9-0.1-1.1-0.2
		L187.8,8.8L187.8,8.8z M182.7,7.7c-0.5-1.3-0.4-1.7,0.7-2.5c0.4,0.7,0.6,0.8,0.5,2.2L183,6.6L182.7,7.7z M185.5,9.2
		c-0.1-1,0.1-1.3,0.1-1.8c-0.1-0.8-1.9-2.4,0.7-3.9c0.9,0.8,0.9,1.4,0.8,2.6c-0.1,2.2,0.4,0.9,0.4,2.7L185.5,9.2z M182.5,5.2
		c-1.7,3.1,0.3,3.8,0.9,5.1c0.2,0.4,0.3,1.2,0.6,1.7l6.6,0l1-0.1c0.2-1.7,1.1-2.1,1.8-3.5c0.6-1.4,0.4-2.9-1.2-3.2
		c0.6,1,1,0.9,0.6,2.4c-0.1-1.1,0.1-0.8-0.5-1c-0.8,0.8-0.7,0.8-0.8,1.9c0.5,0.1,0.1,0,0.6,0c1.2-0.1-0.6-0.3,0.4,0l-0.1,1
		c-0.7,0-1.6-0.1-2.1-0.5c0.4-0.7,0.9-0.9,1.2-1.7c1.1-4-1.5-3.7-3.3-4.5c0.1-0.6,0.6-2-0.6-1.8c-1,0.2-0.4,1.2-0.4,1.9
		C181.9,4.3,184.8,5.4,182.5,5.2z M210.2,110.6l0,1.4l11.5,0l0-2.1l0.2-2.5l-1.3,0.7c0,1.9,0.7,0.5,0.5,1.9
		c-0.8,0.5-1.4,0.7-2.2,0.1c-0.8-0.7-0.1-0.6,0.4-1.2c-0.1-0.9-0.2-0.4-0.3-0.8c-0.2-1.1,0.6-1.8-1.2-2.1l0.1,2.8l-1.2-0.8
		c0.3-1.8,0.4,1.5,0.3-2.3c0-0.9,0.2-1-0.4-1.4c-0.9-0.6-1.5-0.1-1.7,0.8c0,0.2,0,0.5-0.1,0.7c0,0.1,0,0.1,0,0.2
		c-0.1,1.2-0.6,0.9,0.2,1.2c0.4,0.8,0.3,1.2-0.9,1.3c0-1,0.1-1.9-0.3-2.7c-1.7,0.7-0.6,1.3-0.9,2.1c-0.1,0.3-0.6-0.1-0.3,0.9
		c0.2,0.7,0.3-0.2,0.5,0.9c-1,0.9-1.7,0.9-2.7-0.1c0.3-1,0.3,0.1,0.7-1.2c-0.6-1.1-0.4,0-0.6-1c-0.8,0.1-0.1-0.5-0.8,0.2
		L210.2,110.6L210.2,110.6z M170.3,60l0.3,1.8c1.7,0.1,7.4,0.2,8.7-0.2l0.1-1.6c0.2-0.4-0.2,0.2,0-0.8c0.1-0.4,0.3-0.7,0.5-1.1
		c0.4-0.8,0.7-1.5,1.4-2.1l0.1-1.1c-0.6,0.1-1.2,0.7-1.6,1.4c-0.5-0.6-0.6-0.6-1.4-0.3l0,0.6c0.9,0.3,0.3-0.2,1,0.5
		c-0.8,1.2,0,0.2-1.1,0.7c0.9,1.1,0.7-0.3,0.9,1.3c-0.5-0.1-1-0.1-1.2-0.9c-0.4-1.4,0.6-0.3-0.2-1.5c-0.4,0.6-0.5,2.6-3,2.5
		c-2.5-0.1-2.3-2-2.8-2.4c-1,0.5,0.1,0.2-0.2,1.4c-0.2,0.7-0.5,0.7-1.1,0.8c0.1-1.4,0-0.1,0.8-1.3c-1-0.6-0.8,0.2-1-0.9
		c0.9-0.5,0.8,0.6,0.8-0.7c-1.2-1.1-0.5,0.3-1.7-0.3c-0.8-0.5-0.3-0.7-1.3-0.9l0.2,1.2C169.3,56.8,170.9,59.3,170.3,60z M102,25.9
		c0.3,2.8,0.7,2.5,2,2.7c1.2,0.1,2.9,0.3,3.9-0.3l-4.8-0.1c2.3-0.9,4.6,0.1,5.6-0.1l0-1.3c0.2-0.2,0.2,0.4,0.3-0.7l0.8-0.5
		c0.2-0.7,0-0.8,0-1.5c0.4,0,0.8-0.4,1-0.9c0.7-1.5-1.6-2.4-2.1-1.3l1.2,0.8c-2.2,3.8-0.2,1.1-0.8,2.7l-1.1,0
		c-0.1-1.1,0.7-0.7,0.5-2.1l-0.3-2.1c-1.2,0.1-0.4,0.2-0.9,0c-0.5-0.2-0.1,0-0.8-0.5l-0.3,0.6c0-0.2,0-0.4,0.1-0.8
		c-0.9-0.5-0.2-0.4-1.4,0l0,0.6c-0.8-0.2-2.1,0.1-2,1.6c0.1,1.3,0.6,0.6-0.1,1l-0.3,0.2c-0.2,0.3,0,0.6-0.3,0l-0.8-1
		c0.7-0.6,0.7-0.2,1.2-1c-0.4-0.6,0.2-0.2-0.6-0.4c-0.3,0.2-0.9,0.1-1.4,0.7c-0.6,0.8-0.1,1.1,0.3,1.6c-0.1,0.5,0.1,0.5,0.5,1
		l-0.5,0.6l0.5,0.2C101.4,25.5,102,25.9,102,25.9z M165.4,128.6c1.8,1,0.3,0,1.4,1.5c0.6-0.6,1-1.4,0.9-2.4
		c-0.2-1.4-1.1-1.1-1.9-1.7c1.1-0.3,0.9-1.1,0.6-2.1c-0.3,0.1-0.3,0.1-0.5,0.3c-0.8,0.5-1.1,0.4-1.3,1.3c-0.6,0.4-0.2,0.2-0.9,0.4
		c-0.4-0.7-0.9-0.8-1.7-0.8c0.4-1.3-0.5-0.2,0.3-1.6l0.8,0.9l0.6-0.7c-0.6-0.8-0.8-0.8-1.7-0.5l-0.1-0.4c0.4-0.9-0.3-1.3-1-1.5
		l0,0.7c-0.7,0.6-0.3,0.9-0.7,1L159,123l-0.2,1.3c1.6,0.4,0.3-0.6,1.5-0.3c0.3,0.8-0.2,0.1,0.1,1.2c-0.8,0.1-1.5,0.1-1.7,0.8
		l-0.8,0.5c0-1.4-1-2.2-1.9-2.4c-0.3,1.2-0.3,1.9,0.9,2.4c-2.6,0.1-2.6,2.2-1.2,3.6l0.3-0.7c0.5-0.4-0.1-0.1,0.5-0.4
		c0,0,0.6-0.2,0.7-0.2l0.1,1.6l3.1-0.1l0.4,0.4l0.9-0.3l3.6-0.1L165.4,128.6L165.4,128.6z M11.8,5.2l0.3-0.5C11.1,4.1,11.5,4,11,5
		L11.8,5.2z M34.2,143.2c0.1-0.8-0.3-1.4-0.9-1.8c-0.4,0.5-0.9,1.4-0.2,1.8c-0.1,1.6,0.8,1.6-0.1,2.4l-1.4-2.3
		c-0.2-0.9,0.1-1.9-0.9-2.5c-0.5,0.9,1.3,5.7,1.7,6.6l7.7,0c0.2-0.6,0-0.4,0.4-1.2c0.5-1.3,0.6-2.3,0.9-3.6c0.2-0.9,0.5-1.1,0-1.8
		c-1.4,1.1,0.3,1.2-1.5,3.6c-0.7,0.9-0.1,0.6-0.4,1c-1.1-0.5-0.2-1-0.3-2.4l0.3-0.2c-0.1-0.9-0.1-1-0.7-1.6c-0.6,0.6-1.2,1.3-0.6,2
		c-0.9,1.4,0.6,0.6-0.5,2.2c-0.7,0-0.2,0.2-0.4-0.4c0.4-0.9-0.6-1.3-0.9-2.6l0.6-0.8c0.6-0.6,0.5-0.6,0.4-1.7
		c-0.8-0.2-1.3-0.2-2.2-0.1l-0.7,0.2l0.2,1.4l1,1.2c-0.3,1.2-0.9,1.2-0.8,2.3c0,0.9,0.4,0.5-0.3,0.5C34,144.6,34.4,144.5,34.2,143.2
		L34.2,143.2z M74.1,90.7L73,90.7c0,1.3,0.4,1.9,0.7,3.2c0.1,0.3,0.1,0.4,0.3,0.7l0,1.3l7.5,0.1l0.1-1.4c0.3-0.3,0.1-0.2,0.3-0.7
		c0.2-1.2,0.7-1.8,0.7-3.2l-1.1-0.1L81,90.2l-0.5-1l-1.2,0.4l-0.2,0.9l-0.7,0.1c0-0.8-0.2-0.6-0.2-1c-0.1-1.3,0.4-1-0.1-1.8
		c-0.3-0.6-0.2-0.3-0.5-0.6c-0.3,0.3,0,0-0.4,0.5c0,0.1-0.2,0.4-0.3,0.4c-0.3,1.2-0.1,0,0.1,0.8c0.2,1.1-0.1,0.6-0.2,1.9l-0.2,0.1
		l-0.2,3c-1.5,0.2-1.7-1.1-1.8-2.5l1.9-0.6l-0.5-0.4c-0.2-0.9-0.2-0.9-1.2-1.3L74.5,90C74,90.3,74.2,89.4,74.1,90.7L74.1,90.7z
		 M39.5,24.1c0.1-0.4,0.1-0.5,0.2-0.9c0.2-1.1-0.2-0.4,0.4-1.2c1.2,0.8,0.7,2-0.2,2.7C39.9,24.4,40,24.4,39.5,24.1z M32.8,22
		c0.3,0.7,0,0.9,0.3,1.8c0.3,0.7,0.5,0.4,0.6,1.3C32.6,25.3,30.7,23,32.8,22z M33.9,22.3l1.7-0.3c-0.2,0.9,0.2,0.4-0.2,0.9l-0.9,0
		L33.9,23C33.9,23,33.9,22.3,33.9,22.3z M39.7,25.6c3.1-2.2,1.9-5.4-2.8-4.2c-0.6-1.4-0.3-0.9,0.1-1.9c-1.1-0.5,0-0.2-1-0.7
		c-0.3,0.9,0.3,0.4-0.5,0.8c0.7,1.4,0.9,2.1-1.6,1.6c-1.5-0.3-4.9,1.6-1.1,4.5c0.5,1.2,0.9,0.9,0.1,2l0.8,0.3
		c1.2,0.1,4.7,0.1,5.7-0.1C39.2,25.9,39,27.4,39.7,25.6z M47.9,94.5c-0.7-1.2-1.5-1.5-1.1-3l1.1,0.1l0.8,3.1L48.5,95
		C48.5,95,47.9,94.5,47.9,94.5z M50.7,94.6l0.8-3.1l1.1,0.1c0.5,1.7-0.6,2.3-1.6,3.4L50.6,95C50.6,95,50.7,94.6,50.7,94.6z
		 M53.9,95.1c1.6-0.6,1.4-2.2,2.2-3.1l-0.4-0.5l-1.4,0.4l-0.3-1.7c-0.7,0.3-2.2,0.8-2.9,0.6c-0.8-1.8,0.4-0.8-0.5-2.4L49.6,88
		c-2,1.5,0.1,1.1-1.4,2.9l-2.7-0.7l-0.4,1.7l-1.4-0.4c-0.2,1.7,0.3,2.7,1.7,3.6l0.4,1.2c2.1,0.5,5.5,0.6,7.5,0L53.9,95.1L53.9,95.1z
		 M39.6,127.1c0.1-0.9,0.1-0.9,1-1.2C40.5,126.7,40.5,126.9,39.6,127.1z M35.6,125.9c0-1,0.3-1,1-1c0.5,0.9,0.6,1.5-0.2,2.2
		C35.7,126.8,35.5,126.7,35.6,125.9z M32,125.9c0.9,0.2,0.8,0.2,0.9,1.2C31.9,126.9,32,126.8,32,125.9z M30,124.9
		c2.5,1.7,1.2,3.6,1.5,5.2c1.5,0.4,6.6,0.7,7.8,0.1c-2.5-0.3-4.7,0.2-7.3-0.4c1.4-0.4,7.4-0.6,7.8,0c0,0,0,0.1,0,0.1l0,0.2
		c0,0,0,0.1,0,0.1c0,0,0,0.1,0,0.1l1.4-0.4c-0.6-2-0.6-2.5,0.1-3.6c1.9-3.1,1.8-0.5,2.2-2.4c-1.7-1.1-1,1.4-3.5,1.2
		c-0.4-2.1,1.2-0.3,0.5-2.5c-1.3-0.5-1.1-0.2-1.6,0.6c-0.5,1,0,0.4-1.1,1.2c-1.3-0.5-0.1-0.7-1.6-0.8c-1.3-0.1-0.5,0.1-1.5,0.8
		c-1.8-1-0.7-1.1-1.8-2.1c-0.8,0.1-1.5,0.3-1.1,1.2c0.5,1.1,0.9-0.1,0.7,1.5c-1.5,0.4-1.9-0.9-2.9-1.6l-0.6,0.7
		C29.6,124.9,29.5,124.4,30,124.9L30,124.9z M50.3,21.1l-0.2-1l-0.6-0.2c-0.5,0.5-0.7,0.6-0.5,1.2L50.3,21.1z M101.3,61.5
		c0.2,0.2,0.9,0.3,1.8,0.4c-0.8,0-1.5,0.1-1.8,0.3c0.5,1.1,1.1,0.6,4.1,0.6c1.4,0,3.5,0.4,4.6-0.3c-0.3-0.5-0.6-0.6-1.2-0.7
		c0.5,0,0.9-0.1,1.2-0.2c-0.4-1-0.2-0.8-1.8-0.7l-6.1,0C100.6,61.2,101.6,61.2,101.3,61.5z M38.9,41.4l-0.5,0.5
		c0-1.3,0.6-2.8,0.4-4.1c-1.1-0.2-0.4-0.3-1.4,0.3c0,1.3,0.2,0,0.3,1L37,39.7c-0.9-1.6,0.5-2.1-0.7-3.2c-1,1.1,0,1.7-0.6,3.1l-0.4,0
		c0,0-0.2-0.4-0.2-0.4c-0.1-0.4-0.1-0.1,0-0.4c0-0.4,0.7,0.1,0-0.9l-1.2-0.2c-0.3,1.3-0.2,1.5,0.3,2.6l-0.7,0
		c-0.5-1.1-0.2-1.8-0.8-2.5c-0.7,0.8-0.1,1.2-0.1,2.5c-0.4,0.2-0.1,0.1-0.6,0.2l-0.2-0.1l0-1.4l-1.3,0.2c0,1.1-0.1,0.2,0.4,0.6
		c0.5,0.9,0,0.4,0.2,1.4c0.1,0.5,0.4,1.1,0.6,1.7c0.6-0.1,0.3,1,0.6,1.7c2,0.7,6,0.5,7.9-0.1c0.4-1.1,0.1-1,0.8-2.2
		c0.6-1,0.6-1,0.6-2.2l0.7-0.8l-1.3-0.4l-0.1,1.3c-1,0.8-0.2,0.8-0.9,1.9c-0.2-0.6,0.3-0.2,0.2-1.8c0-0.7-0.1-0.4,0-1.2
		c0.1-1,0.3-0.2,0-1.4C39.5,38.1,38.7,40.5,38.9,41.4z M106,42c0.7,0.7,0.7,1.1,0,1.8C105.1,43.4,105,42.5,106,42z M108.1,43.5
		c-0.7-0.8-0.6-0.9,0.5-1C108.8,44.1,108.4,43.1,108.1,43.5z M103.1,42.5l0.9,0l0.1,0.9C102.9,43.5,103.1,43.4,103.1,42.5z
		 M109.9,44.3l-0.1-1.7l0.6-0.3c0-1.4,0.2-0.4-0.3-1.1l-8.9,0c0,1.5,0.2,0.5,0.5,1.4C102.4,44.3,99.1,44.5,109.9,44.3z M106.8,59.9
		c-0.3-0.8-0.3-2.1,0-3C108.9,56.5,108.5,59.5,106.8,59.9z M104.3,56.8c0.4,0.7,0.3,0.4,0.4,1.5c0,1,0.1,1-0.4,1.7
		C103.1,59.4,102.4,57.2,104.3,56.8z M105.4,56.2c0-0.4,0.2-0.5,0.4,0C106,57,105.4,56.6,105.4,56.2z M101.5,60.2
		c0.1,0.6,7,0.3,8,0.3l0.5-0.2l-0.5-0.8l1-0.3l-0.5-1.1l0.9-0.9c-0.2-0.4-1-1.7-1.3-2.1c-1.2,0.3-0.9,0.5-2.1-0.1
		c-0.9,0.9,0,0.5-1,0.7l-0.5-1.2l0.1-0.7c1.3-0.1,1,0.2,1.2-0.8c-0.7-0.4-0.2-0.2-1.2-0.2c0.1-1.4,0.2-0.4-0.2-1.2l-0.7,0.1l0.2,0.9
		L104,53l0.3,0.7c0,0,0.5,0.3,0.5,0.3l-0.3,1.8l-0.7-0.5l-0.4,0.2l-1.1-0.1c-0.9-0.3-0.4,0-0.6,0.1l-0.9,1.3l-0.2,0.7l0.5,0.7
		l-0.1,1l0.8,0.4l0.4-1L101.5,60.2L101.5,60.2z M95.7,40.6c0.4,0.9,0.4,0.7-0.3,1.1C94.6,40.9,94.9,41,95.7,40.6z M87.5,40.5
		c0.9,0.7,0.9,0.8,0,1.2C87.1,41.1,86.9,41.3,87.5,40.5z M86.7,39.5c-0.6,1.3-0.2,1.7-0.1,3.1c0.1,0.8,0,1.2,0.4,1.7
		c0.5,1.3,6,0.8,7.3,0.7c0.9-0.2,1.1,0,1.8-0.6l0-1.5l0.5-2.9l-1.4-1L93.7,42c-1.2-0.8-0.9-1.3-0.2-2.4c-0.2-1-0.4,0,0.1-1.3
		l-2.2-2.1l-2.1,2c0.5,1.2,0.3,0.5,0.1,1.3c0.1,0.1,0.6,1.3,0.6,1.3c0.1,0.5-0.2,0.7-0.8,1l-1.3-2.5L86.7,39.5z M121.3,24.9
		c0.2-1,0.5-0.8,0.7-1.7c0.3-0.9,0-1,0.4-1.7C124,22.5,122.8,24.7,121.3,24.9z M114,23.4c-0.4-1.1-0.1-1.7,0.9-1.8
		c-0.2,2.4,0.5,1.6,0.9,3.3C114.8,24.9,114.4,24.5,114,23.4z M120.7,24.2c-1-0.2-0.1-0.3-1.5-0.4l-0.3-0.1l1.3-0.5L119,22
		C120.1,20.7,122,21.4,120.7,24.2L120.7,24.2z M116.3,24.2c-1.2-2.3,0.3-3.6,1.6-2.3c-0.1,0.7-0.4,0.7-1.2,1.3l1,0.6
		C116.4,23.8,117.4,24,116.3,24.2L116.3,24.2z M117.2,20.2c-1.2,0.8-1.2,0.4-2.4,0.5c-0.8,0.1-1.4,0.4-1.6,1.2
		c-0.4,1.3,0.8,3,1.8,3.6l0.1,1.2c1.1,0.2,6,0.2,7-0.1l0.1-1.3c1.4-0.6,1.9-2.1,1.8-3.6c-1.2-1.6-1.2-0.9-3-1.1
		c-2.5-0.3-2.3-1.3-2.5-1.7l-0.3,1.1C118.1,20.1,117.2,20.2,117.2,20.2z M92.9,128.3c1.1-0.6,0.2-0.4,1.1,0
		C93.1,129.5,93.4,128.7,92.9,128.3z M86,124.5c0.4,0.4,0.3,0.2,0.6,0.9c1.3-0.2,2.5-0.4,3.1,1c-1.2-0.2-0.6-1.4-2-0.4
		c-2.3,1.5-1.3,2.3-1.1,3c0.4,1.1,0,0.7,0.1,1.7l0.8,0.1c1.1,0.7,6.5,0.7,7.5,0l0.8-0.1c0.2-1-0.2-0.5,0.3-2c0.4-1,0.4-1.1-0.1-2
		c-1-0.3-0.2-1-1.5-0.9c-1.4,0.2,0.2,0.6-1.6,0.7c0.5-1.6,1.9-1.1,3.3-1c0.2-0.9,0.4-0.8,0.2-1.7c-1.8-0.9-3.1-0.3-3.7,1.5
		c-0.5,1.3,0.1,0.9-0.8,1.2c-1-1.6,0.6-3.2,1.4-4.2l-2.1-1.3c-1.5,1.5-0.7,0.4-1.8,1.3c0.7,1,2.3,2.6,1.4,4.2
		c-0.9-0.3-0.4,0.1-0.8-1.1c-0.8-2.2-2.1-2.1-3.7-1.7L86,124.5L86,124.5z M184.8,94.7c2-0.7,5.9-0.5,8-0.1c-1,1.1-4.9,0.8-6.5,0.6
		C184.6,95.1,184.9,94.9,184.8,94.7z M187.4,91.7l0.7,0.9l-1.1-0.1L187.4,91.7z M183.3,91.1c-0.3,1.3-0.6,1.1,0.1,2.2
		c0.7,1.2,0.2,1.2,0.8,2c2.1,0.8,7.1,0.8,9.1-0.1c0.5-2.3,0.6-1.5,0-2.2c0.9-0.2,0,0.5,1.1-0.2l-0.1-1.1c-0.4-0.5-0.2-0.5-0.8,0
		l-0.7-1.6l-0.8,1L191,89c-0.6,0.1-0.2-0.1-0.8,0.6l-1.6-2.7l-1.4,2.7c-0.7-0.8-0.2-0.5-0.9-0.6l-1,2.2l-0.8-1.2l-0.7,1.7
		L183.3,91.1L183.3,91.1z M187.5,36.1c0,2.2,1.2,0.2,0.1,2.9c-0.3,0.8-0.5,1.6-1.3,2c-0.5-1.1,0.1-1.2-0.8-1.6
		c-0.6,0.7-0.2,0.8-0.4,1.8l-1.6-0.8l0.2,1.6c1.1,2.5,0.3,1.6,0.1,1.7c-0.5,0.3-0.2-0.1-0.4,0.3c1.6,1.5,7.4,1.3,9.4,0.5
		c0.7-0.3,0.7-0.3,0.8-0.7l-3.5,0.1c-1.4-0.1-0.7,0.3-1.3-0.5c0.3-0.9,0.2-0.1,0.8-1.1c-0.4-0.7-0.5-0.9-1.3-1.1l-1,1.2
		c0.5,0.9,0.3,0,0.9,1.2c-0.3,0.4,0.5,0.3-0.7,0.3c-1.4,0-0.8-0.2-1.1-0.5c0.5-0.3,0.3,0.3,0.4-0.9c-0.5,0-1.7-0.1-0.8,0.6
		c-0.6,0.9,0.1,0.2-1.3,0.8c-0.4-0.6-0.8-1.1-0.2-2c3,1.1,2.8-1.1,4-2.6c1,2.2,1.5,3.8,4.3,2.4l-0.1,1.4c0.1-0.1,0.6-1,0.6-1
		c0.6-1.8,0.2-1.1-0.4-1.4c-0.2,0.6-0.4,0.6-1.1,0.6c-0.1-1,0.2-1.1-0.5-1.8c-0.8,0.4-0.2,0.5-0.8,1.5c-0.7-0.4-1-1.2-1.3-2
		c-0.9-2.1-0.3-1.1,0.4-2.1l-1.1-1.6L187.5,36.1L187.5,36.1z M100.7,9.5c1.7-0.9,7.2-0.9,8.9,0C108.6,10.5,101.7,10.6,100.7,9.5z
		 M108.1,10.5c1.1-0.2,1.9-0.2,2.6-1c-0.7-0.9-0.7-0.4-1.6-1l1.5,0.2c0.5-0.9,0.8-2.7,0.8-3.7c-0.8,0.6-0.8,0.8-0.9,1.8
		c-0.2-0.1-0.6-0.4-0.7-0.5c-0.5-0.2,0.4-0.6-0.7,0c-1.1,0.7-0.2,0.4-0.3,1.2C108,6.3,109.6,6,108.3,4c-0.8,0.8-1.1,1.4-0.8,2.4
		c-1.1-0.3-0.1-0.4-1.1-0.6l-0.9,0.6c0.4,0.9,0.5,0.3,0.3,1c-0.7-1.3-0.2-0.8-0.1-1.8c0.1-1-0.5-1.2-0.3-2.4c-1.1,0-1.1,2.2-0.9,2.9
		c-1.3-0.1-0.8-0.2-2,0.3c0.1-1.2,0-1.4-0.8-2.4c-0.6,0.9-0.7,1.3-0.3,2.4c-1.7,0-0.4-0.7-1.8,0.6c-0.5-1.1,0-0.9-1.2-2.2l0.7,3.8
		c2.5-0.2,7.8-1.4,9.9-0.2c-2.1,0.1-8.3-0.9-9.6,1C100.6,11.1,106.3,10.6,108.1,10.5z M224.5,107.5c-0.4,1.1-0.1,2.1,0.5,3.1
		l-0.1,1.5c1.8,1,7.9,1.2,9.7,0.2c0.3-0.4,0.2-1.3,0.6-2.3c0.4-1.2,0.6-1.4,0.2-2.5c-1.2,0-1.7-0.5-3.1-0.4l-0.5-0.8l-1.3-0.3
		c0.3-0.9,0.2-0.8-0.4-1.6c-0.9,0.5-1.3,0.8-0.5,1.6l-1.6,0.3l-0.1,2.2c-0.3-1,0.1-0.7-0.7-1.6c-0.9,0.1-0.7-0.1-1.2,0.5
		C226.1,107.4,224.5,107.5,224.5,107.5z M226,110.1c-0.4-0.9-0.2-0.1-0.2-1l1.2-0.1l0,1.2L226,110.1z M194.7,58.3l0.1-1.4l-1.4,1.8
		c-0.3-2,0.4-1,0.8-2.7l-0.6-0.7l-1,0.8c0.2,1,0.4,1.2-0.3,2.1l-0.2,0c0.2-1.5,0.6-3-0.5-4.2c-0.7,0.3-0.9,0.6-1.4,1.3
		c0.7,1.2,0.7,1.5,0.4,3l-1.1-5.2l-0.9,5.3c-0.3-1.8-0.3-1.6,0.5-3.1c-0.4-0.6-0.7-1.1-1.4-1.3c-1.3,1.8-0.2,3.1-0.7,4.4
		c-1.3-2.1,0.8-1.5-1.4-3.1l-0.5,0.8c0.4,1.7,1,0.6,0.8,2.6l-1.3-1.8l0.3,2.7l0.1,0.8l0,0.3c0.6,1.7,7.6,1.2,9.2,0.5
		C194.5,60.6,194.7,59,194.7,58.3L194.7,58.3z M163.6,74.3c0.8-0.5,0.6-0.2,0.4-1.1C162.8,73.1,162.6,73.6,163.6,74.3z M40,110.9
		l-0.2-0.6c0-0.5,0.3-0.9-0.2-1l-0.3,0.9C39.3,110.2,40,110.9,40,110.9z M81.2,22l0.2-0.5l0.3-1.4L79.6,20l-0.3,2.4l0.1,0.8
		l-1.3-0.3l-0.1-2l0.1-0.8L77,20.1l-0.8,0.1l0,0.6c0,2.9,0.2,2-0.5,2.3c-0.7-0.3-0.4,0-0.6-1.3c-0.1-0.5-0.1-1.1-0.1-1.6l-2-0.1
		c-0.1,1.1,0.7,3.6,0.9,4.9c-0.7,0.6-0.3,0-1,0.7c0.7,0.8,0.2-0.3,0.8,0.8c-0.7,1.2-0.7,0-0.7,1.1l4.5,0.1l4,0
		c-0.1-1.2-0.1,0.1-0.7-1.2l0.7-0.8c-1.1-1.3-0.8,0.3-0.7-2.3l0.3-1.2C81.2,22.3,81.2,22,81.2,22z M21.7,106.4
		c0.2,1.3-0.7,0.6,0.4,1.2c0.6-1.4-0.3-0.8,1-2.1l-1.1-1.1l-1.2,1.1L21.7,106.4z M36.7,121.7c-0.2-0.8,0.5-0.2-0.2-1.4
		c-1.3,0.1-0.8,0.2-0.8,1c-0.1,1.1-0.6,0.5-0.1,2l1.2-0.1C37.6,122.1,36.9,122.4,36.7,121.7z M78.6,6.1l0.5,0
		c-0.2-0.9-0.8-1.9-1.6-2.3C76.8,4.3,76.1,5.2,76,6l0.5,0.1l0,0.5c-1-1.1-0.7-0.3-1.5-0.2c-0.1-1.1,0.6,0.4,0.5-1.3
		C74,4,74.9,5.8,73.8,4.4c-1,0.1-0.8-0.2-1.5,0.4c0,1.1,0.2,0.6,0.9,0.7l0.6,1.4c0.3,1.3-0.5,0.7-0.1,1.2c0.3,1.4-0.3,1.2,0,1.9
		l2,0.1l5.1,0l0.8-0.2l-0.3-1.7c0.3-0.4,0.1,0.4,0-0.3c-0.1-0.4-0.3-1.3,0.6-2.1c0.7-0.7,0.3,0.6,0.9-0.7c-0.4-0.5-0.4-0.5-1.1-0.5
		c-1,0-0.6-0.1-0.9,0.7l-0.3-0.4l-1,0.5c-0.1,1.6,0.5,0.1,0.6,1.3c-0.8-0.1-0.7-0.8-1.4,0.1L78.6,6.1L78.6,6.1z M66.2,113.5
		c-0.9-0.4-1,0-2.2,0c-1,0-1.6-0.3-2.5-0.2c0,1.4,0.4,1.3,2,1.4C65,114.8,66,114.9,66.2,113.5z M25.8,42.8c0.6-0.5,1.2-1.4,1.3-2.2
		c0.1-1.5-0.4-2-1.7-2.4l-0.6,0.6l-0.4,0c-1-0.1-1.5-0.1-2.2,0.7l-0.7,0c-0.5-0.9-1.1-0.8-2.1-0.8l-0.3-0.1
		c-0.7-0.9-0.6-0.2-1.7-0.4c-0.2,1.1,0,0.5-0.4,0.8c-0.4,2.2-0.1,2.2,1.2,3.8l0.1,0.4l0.2,1.3l7,0C26,44.4,25.8,43.6,25.8,42.8z
		 M62.2,6.5c0.4,0.6,0.4,0.2,0.1,0.9C61.7,6.9,61.7,7,62.2,6.5z M58.3,7.2l0,0.6c0.1,0.9,0,1,0.4,1.7l0,0.6c0.3,0.7,1.9,0.4,2.7,0.4
		l7,0C68.7,9,69,9.3,68.7,7.9l0.2-0.8c1.2-0.3,1-1.5,0.8-2.6l-1.3,0.9l-1-1L67.2,4l-0.1-0.4c-1,0.3-0.8,0.4-1.3,1.1l-1.2-1
		c0,0-0.1-0.1-0.1-0.1c0,0-0.1-0.2-0.1-0.2c-0.4-0.6,0.4,0-0.4-0.5l-0.4-0.5c-1.2,1.2-0.4,0.6-0.8,1.3c-0.2,0.4-0.5,0.1-0.9,1
		c-1.5-0.4,0-0.1-1.4-1.1L59,5.3c-1.4-0.5,0.1-0.3-1.3-0.9C57.3,5.4,57.4,6.5,58.3,7.2L58.3,7.2z M59.7,141.8
		c-0.4,0.9,0.1,2.2,0.3,3.4c1,0,2-0.4,3.3-0.4c1.6,0,2.4,0.4,3.6,0.4l0.7-3.3c-1.4,0.2-0.5,0-1.3,0.9c-0.6,0.7-0.5,0.6-1.4,0.5
		c-1.5-1.7-0.2-2.4-1.6-3c-0.3,0.7-0.4,2.5-1.2,2.9C61.1,143.9,60.6,142.4,59.7,141.8L59.7,141.8z M59.9,107.8
		c1.2,1.2,1.2,3.6,1.7,5.3c1.7,0.4,3.1,0.7,4.7-0.2c0.3-1.2,0.3-2.9,1-3.6l0.5-2.1c-2.5,3.6-1.9,3.6-2.7,4.8
		c-0.9-1.5-0.4-4.3-1.2-5.7c-0.7,1.4-0.8,4-1.1,5.7c-0.7-0.9-1.5-3.1-2.6-4.6L59.9,107.8L59.9,107.8z M66.2,42.4
		c0.7-0.7,0.3-0.3,0.7,0C66.5,42.7,67,43.1,66.2,42.4z M61.8,42.8c-0.5-0.8-0.4-0.2,0-0.8l0.2,0.4C62.1,43.3,62.1,42.3,61.8,42.8z
		 M64.3,41.6C65.6,43.7,61.9,42.2,64.3,41.6z M63.5,37.1l-0.4,0.6c0.1,0.1,1.9,1.9-0.3,3.9c-2-0.4-1.1-1.8-1.4-2.8l-0.9-0.4l-0.6,1
		c0.8,0.7,1.7,1.3,0.9,2.7c-2.6,0.3,0.4-1.1-1.9-1.7c0.1,1.4,0.6,1.9,1.1,3c-0.5,0.3,0.1,0.8,0.5,1.1c1.8-0.1,3-0.4,5.2-0.4l2.4,0.3
		c0.4-0.4,0.8-0.8,0.4-1.1c0.5-1.2,1-1.3,1-2.9c-2.4,0.7,0.7,1.6-1.7,1.6c-0.5-0.9-0.4-1.4,0.1-2.1c0.6-0.9,1-0.1,0.2-1.5
		c-2,0.4-0.7,0.3-0.9,1.7c-0.2,1-0.8,1.3-1.7,1.4c-1.4-1.6-1.2-2.8-0.2-4C64,36.8,64.5,36.7,63.5,37.1L63.5,37.1z M49.8,142.5
		c0.8,0.4,0.4-0.1,0.6,0.8C49.7,143.2,49.3,143.5,49.8,142.5z M47.7,143.7c-1.3,0.2-0.4-0.1-1.1,0.9c-0.8-1,0.9-0.2,0.3-2.5
		c-0.1-0.1-2.5-1.3-2.7-1.3c0,0.5-0.1,0.5,0.1,1.1c0.4,1,0.3,0.4,0.5,0.7c0.6,0.9,0.1,0.6,0.1,1.9l0.9,0.4l-0.3,2.5
		c1.2,0.3,7.3,0.2,8.8,0.1c-0.2-1.1-0.1-0.3-0.1-1.3c0-0.8,0.5,0.1-0.3-0.9l1.1-1c-0.6-2.7,0.5-0.7,0.8-3.5c-1.3,0.1,0,0-2,0.9
		c-0.9,0.4-1.2,0.7-0.8,1.8c-0.1,0-0.3,0.1-0.3,0.1c-1.4,0.8,0,0.4-1.2,0.9c0.7-1.8,1.6-0.9-0.2-3.2c-1.7-2.1-1.9-0.6-3,0.3
		C47.5,142.5,47.4,142.1,47.7,143.7l0.5,1C48.7,144,48.5,144.1,47.7,143.7L47.7,143.7z M60.1,73.9l-0.9-0.3l0,2.9
		c0.2,1.1-0.2,0.6,0.1,1.8l0.2,0.3c0.2,2.3,7.4,1.6,8.9,0.6l-0.2-0.9c0.6-0.6,1-4.2,1-5.3l-1.4,0.5c-0.1,2,0.8,0.1,0.4,1.7
		C68.1,76.1,67.6,76,67,76c0-1.2,0,0.1,0.4-0.7c0.1-0.3,0.6-0.1,0-0.9c-0.5-0.8-1.1-0.5-2-0.2c-0.2,1.2-0.4,0.6,0.4,1.4
		c-0.7,0-1.2-0.1-1.2-0.9c0-1.6,0.4,0.1,0.7-1.5c-0.5-0.4-0.8-0.7-1.5-0.9l-1,0.9c0.1,0.3,2,2.6-0.8,2.5c0.9-1.2,0.5-1.5-1-1.8l-1,1
		c0.6,1.4,0.4,0,0.9,1c-0.6,0.3-0.7,0.4-1.2-0.3C59.2,74.8,59.7,74.8,60.1,73.9L60.1,73.9z M69.3,123c-1.1,0.3-0.8,0.5-1.5,0.8
		c-1.2,0.4-0.8-0.3-1.5,0.6l0.2,0.3c0,0,0.1,0.1,0.1,0.1l0.8,0.2c-0.4,1.5-0.5,0.6-0.2,1.1c0,0,1-0.1,0,1.2c-1.3,0-0.6-0.9-1.7-1.7
		l-0.2,1.5c-2.1,0.1-1.5-1.5-0.2-2.6c0.7-0.5,0.5,0,0.7-0.6l-2.5-1.4c-1.2,0.5-0.5,0.5-1.1,0.9c-0.7,0.5-0.3-0.3-1.2,0.6
		c0.2,0.7-0.2-0.1,0.6,0.6l0.9,0.9c0.6,1.1,0.3,1.5-0.8,1.8c-0.8-1.1,0.1-0.6-0.6-1.7c-0.6,0.8-0.4,1.8-1.6,1.7
		c-0.9-1.2,0-0.9,0.1-1.3c0.2-0.4,0.1,0,0-0.5c-0.1-0.7-0.3,0.6-0.1-0.7c0.9,0,0.3,0,1,0.5c0.2-1.6-0.2-1.3-1.3-1.4
		c-1-0.1-0.5-0.5-1.8-0.9l1.6,5.8c2.2,0.2,1.2-0.4,2.5-0.1c1.7,0.4,0.8,0.2,1.7-0.8c0.8,1.3,0.4,1,1.9,0.7c0.9-0.2,0.4,0.3,2.3,0.2
		L69.3,123L69.3,123z M18.3,95.5c0.9-1.1,5.7-1,6.7,0C23.8,96.5,19.4,96.5,18.3,95.5z M20.5,91.2c1.1,0.7,0.4,0.3,0.6,0.8
		c-1.1,0.4-1.6,0.2-1.6-1C20.4,90.9,19.7,90.7,20.5,91.2z M21.8,90.8c-0.4-0.6-0.4-0.1,0-0.7C22.1,90.7,22.3,90,21.8,90.8z
		 M16.8,92.1c-1.1,0.1-0.3-0.2-1,0.3c0.4,1.2,0.7,0.6,1.4,1.5c1.1,1.4-1.1,2.5,3.8,2.7c6.7,0,3.5-1.6,5.2-2.9
		c1.1-0.8,1.5-0.1,1.5-1.6c-1.8,0-0.7,1.5-2.3,0.3c0.5-1.1-0.1,0.4,1.2-1c-0.3-1.4,0-1-1-1c0.2-0.8,0.2-0.5,0.3-0.7
		c0.1-0.4,0.2,0.1,0-0.4c-1.5,0.3-0.4,0.4-1.5,1.2c-2.1-0.4,0.2-0.9-1.8-0.8c0.4-1.3,0.1,0.1,0.4-1l-1.2-0.9c-1,0.6-0.2,0.5-1.3,0.8
		c0.4,1.2,0.1-0.2,0.5,1.1c-1.8,0-0.3,0.1-1.1,0.5c0,0,0.2,0.6-0.8,0.2c-0.8-0.3-0.3-1.1-1.4-1c-0.3,0.7-0.5,0.1,0.4,0.8l-0.8,0.4
		c-1.3,1.2,0.9,1.6,0.9,1.6c-0.5,0.7-0.3,0.6-1.2,0.7L16.8,92.1L16.8,92.1z M81.9,76.7c-0.2-1.2-0.4-1.2,0.2-2.2
		c2.4,0.5,0.6,3-0.4,3.6C81.1,77.2,81.4,77.5,81.9,76.7z M74.4,74.4c0.2,1.1,0,1.1,0.1,1.9c0.1,1.4,0.6,0.2,0.2,1.8
		C73.6,77.5,71.7,74.5,74.4,74.4z M78.8,76.1c0.3-1.2,0.3-2.4,1.7-2.1c0.9,1.2,0.2,1.3-0.6,2.2c0.2,1.2,0.5,0.5,0.4,1.8l-0.9,0.4
		C80.1,77.1,79.3,77,78.8,76.1z M75.5,74.4c0.6-1.8,2.6,0.7,1.7,2.2l-0.9,1.6c-0.9-1.2-0.1-0.7,0.1-2C75.9,75.5,75.2,75.3,75.5,74.4
		z M74.2,73.4c-3.2,0.2-2,3-0.3,4.8c0.8,0.9,0.5,0.9,1.1,1.7l6.4,0c0.7-1.2,0.3-0.9,1.4-2.1c0.7-0.8,0.8-1.5,1.4-2.3
		c-0.7-2.4,0-1.6-2.3-2.2c-1.7-0.5-1.1-1.1-3.3-0.2c0.2-1.3,0,0.2,0.6-1c-1.9-1.2,0-0.3-0.9-1.8c-1.2,0.5-0.2,0-0.5,0.8
		c-0.9,2.1-0.3,1.5-0.4,1.9C75,72.2,75.7,73.2,74.2,73.4z M113.5,92.3c0.1,0.5,0.1,0.8,0.1,1c0.5,4.1,0.1,0.5-0.1,2.5
		c1.2,0.4,9.5,0.3,11,0.1c0-1.1-0.3-0.2-0.2-1.6c0-0.3,0.1-1.1,0.2-1.4c0.3-2.1,0.9-2.7-0.1-3.4c-0.4,2.4-0.5,0.9-1.2,2
		c0.8,1.8,0.6-0.8,0.8,0.8l-1,0.3c-1-1.8-0.6-2-1.1-2.7c-0.8,0.5-0.3-0.2-0.5,0.7c-0.6,0.8,0.2,0.2-0.8,1.2l-0.9-0.6
		c0.1-0.9,0.2-0.5-0.2-1.3l-0.6-0.7c-0.5,0.7-0.6,0.7-0.5,1.6c0,0.1-0.1,0.1-0.2,0.2c-1.2,1.5-0.1,0.6-0.8,1.5
		c-0.1-0.1-0.2-0.4-0.3-0.6c-0.2-0.5-0.1-0.2-0.3-0.5c-0.3-0.6,0.1-0.3-0.4-1.2l-0.6-0.2c-0.4,0.9-0.1,0.9-0.6,1.8
		c-0.5,1.1-0.6,0.8-1.1,0.7c0.4-1.4,0.6,0.6,0.6-1.1c-0.9-0.9,0-0.1-0.9-0.3c0-1.3,0-0.8-0.7-1.6C113.2,89.3,113.5,92.3,113.5,92.3z
		 M188.6,144.9c1.3,0.9,1,1.2,1,1.6c-0.8-0.3-0.1,0-1-0.8l-0.5,0.7c-2.2-0.8-0.1,0.3-1.5-0.4l0.7-0.6l0.7,0.5L188.6,144.9
		L188.6,144.9z M186.7,143.2l-0.5,0.5l-0.5-1.5l-0.3,1.3c-0.1-0.9,0.1-1-0.4-1.8l-1,0.4c-0.2,1.1,0.2-0.1,0.1,0.8c0,0.7-0.2,0-0.2,1
		c0,0.9,0.6,1.1,0.3,2.4c2.4,0.8,6.3,0.9,8.6,0.1l0.6-3.2c-1-0.6,1.1-1.4-1.2-1.4c-0.3,0.8-0.1,1.6-0.4,2.1l-0.6-1.7l-0.4,1.5
		c-1.1-1.5,0.1-0.6-0.5-1.7c-1.8,0.2,0,0.1-0.9,1.4c-1.2-1.2-0.1-1.9-0.9-3.6c-0.6,1.6,0,1.8-0.6,3.4c-0.7,0.1-0.2,0.3-0.6-0.3
		l0.3-0.9l-1.2,0.1L186.7,143.2L186.7,143.2z M80.1,56.5c0.3,1.1,0.3,0.4,0.1,1.2l-0.9,0.2l0-1.2C79.4,56.7,80.1,56.5,80.1,56.5z
		 M77.4,54.7l0.1,0.9c0,0-0.2-0.2-1.4,0.6c0.3,1,0.7-0.2,0.5,1.7l-1-0.3c0-1,0.8-0.6-0.4-1.6c-1.6,1.4,0.4,0.8-0.2,2.2
		c-1.9-0.3-0.5-1.3-1.8-2.2c-0.9,1.7,0.7,1.7,1,3.2c0.2,1.4-0.1,2.4,0.2,3c1.7,0.6,5.9,0.8,7.4-0.3c-0.1-0.7-0.2-1.6-0.1-2.5
		c0.4-0.8,0-0.6,0.9-1.1c0.4-1.1,0.9-1.1,0.4-2.3c-1.4,0.9,0,2.2-2,2.1c-0.3-2.1,1.1,0.2,0.3-1.9c-0.9-0.3-0.1-0.2-1.1,0.2l-0.8-1.1
		l-0.8,0.5c0.4-1.1,0.5-0.6-0.3-1.6L77.4,54.7z M157.7,7.9c0.5,0.7,0.5,0.1,0,0.9C157.3,8.1,157,8.6,157.7,7.9z M156.5,8
		c0.5,0.5,0.4,0.2,0.2,0.7C156.5,8.7,155.7,8.9,156.5,8z M159,8.7l-0.1-1l0.9-0.3l0.1,1.3L159,8.7L159,8.7z M160.1,6.9
		c-0.6-1.6,0.5-3.8-0.8-4.4c-1,1.8,0.5,3-0.8,4.5c-0.6-1.3,0.6-1.7-0.5-3.1c-1.4,1.5,0.5,2.5-0.7,3.3c-1-1.4,0.4-2.1-1.1-2.4
		c-0.7,1.3,0.5,1.3-0.2,2.5c-1.9-0.8-0.4-1.8-2.1-3.2c-0.8,1,0.1,1.5,0.3,2.5c0.2,1-0.4,2.9,0.3,3.6c0.6,0.7,1.1,0.6,2.2,0.7
		c1,0.1,1.9,0.1,2.9,0.1c1.5,0,4,0,5.2-0.8c0.1-1-0.1-2.6,0-3.4c0.1-0.6,0.3-0.6,0.5-1.5c0.2-0.8,0-0.7,0.2-1.2
		c-2.2,0.4-0.4,2.5-2.4,3c-0.3-1.3,0.8-1.7-0.4-2.4c-1.1,0.9,0.1,1.3-0.8,2.4c-1.2-0.3,0.6-1.7-0.7-3.3c-1,1-0.6,1.7-0.4,3
		L160.1,6.9L160.1,6.9z M119,42.5c0.3,0.6,0.3,0.2,0,0.7C118.6,42.7,118.5,43.1,119,42.5z M114.7,41.7c0.1,0.6,0,1.8,0.1,2.1
		c2.8,0.1,5.7,0.3,8.4,0l0-1.9l1.9-2.7c-1.8,0-0.8,0.5-1.7,1.6l-1.2-0.2c-0.1-1.1,1.8-2.6-0.6-2.2l-0.4,1.7
		c-2.6,0.1-1.3-1.3-1.4-2.5c-0.9-0.5-0.7-0.6-1.6,0c-0.1,1.1,0.9,1.9-0.2,2.5c-1.6,0.7-1.1-0.8-1.5-1.6c-0.7-0.1-1.4-0.3-1.3,0.6
		c0.1,1.3,0.7-0.2,0.7,1.5c-2.4,1.4-0.8-1.9-2.9-1.3C113.5,39.9,113.9,41.2,114.7,41.7L114.7,41.7z M128.9,10.2
		c1.4-0.7,5.9-0.6,7.4,0C135,10.9,130.2,10.9,128.9,10.2z M128.4,8.9l-0.1,1.5c1.5,0.7,3.2,0.6,4.8,0.6c1.3,0,3.9,0.2,3.9-1.5
		l0.1-0.4c0.3-1.3,0.6-1.6,0.2-2.6L136.1,7c0-0.8,0.1-0.7-0.2-1.3l-0.8,1.1l-0.4-2L134,6.3l-0.6,0l-0.3-0.2l0-0.9l0.7-0.8l-0.1-0.9
		c-0.8,0.3-0.1,0.1-0.8,0.9l-0.3-1.5c-0.8,0.9-0.5,0.2-1.2,1c0.4,0.9,0.7,1.2,0.6,2.3l-0.1,0.1c-0.4,0.5-0.1-0.3-0.5,0.7
		c-0.2-1-0.1-1.6-0.8-2.3l-0.2,1.5l-0.8,0.2l0-0.5l-0.2-0.6L129,7l-1.2-0.5C127.7,7.4,127.8,8.4,128.4,8.9z M189.8,73.6l0.4,1.4l0,0
		l-2.3-4.3c0.4,1.2,0.5,0.1,0.5,1.6c0,0-0.1-0.1-0.1,0c0,0-0.1,0-0.1,0l-0.8,0c-3.2,0.8-3.4,1.4-3.1,3.1c0.4,0.7,0.5,0.8,0.9,1.4
		c0.9,1.2,0.1,0.6,0.7,1.6c2.4,0.4,3.2,0.4,5.6,0l1.2-2.2c0.8-0.5,1-1.6,0.5-2.5c-0.7-0.7-2.4-1-3.3-1.5c-0.9,0.8-0.1,0-0.4,1l0,0.5
		C189.4,73.6,189.8,73.6,189.8,73.6z M98.9,126.8c-0.7,0.8-0.4,0-0.6,0.8c0.8,0.5,0.7,0.4,1.5,0c0.3,1,0.1,0.9,1,1.2
		c0.7-1.2-0.1-0.6-0.3-0.7l1.6,0.1l-0.3,1.2c-0.9,0.7-0.9,0.8-0.7,1.9c1.4,0.1,7.6,0.3,8.7-0.1c0.1-1,0.1-1.3-0.7-1.9
		c-0.2-1.1-0.6-1.3,0.7-1.8l0.1,0.3c0.2,0.9-0.1,0.5,0.4,0.9c1-0.4,0.6-0.2,0.8-1.4c0.8,0.7,0.8,0.9,1.6-0.1l-0.7-0.5
		c-1.3-0.6-3.1-1.9-3.9,0.5c-0.3,0.4-0.2,0.6-0.3,0.1c-0.7-0.2-1.4,0-2,0.3l-0.2,0.1c-0.6,0.3-0.1,0.1-0.2,0.3l0.2-0.3l0.7-0.9
		c0.5,0,0,0.2,0.6-0.2c-0.5-0.3-1.1-0.8-1.2-1.3c0-0.1,0-0.1-0.1-0.1c-0.6,0.2-0.4,0.2-0.5,0.3c-0.1,0.1,0.2-0.1-0.3,0.5
		c-0.4,0.4-0.6,0.5-1.2,0.8l0.1-1.6l-0.8,2.6C102.5,124.6,99.8,126.6,98.9,126.8L98.9,126.8z M201.8,7c-0.5-0.9-0.4-0.2-0.1-0.9
		C202.8,5.9,203,6.7,201.8,7z M203.2,6.5c0-1.1-0.7-2.8-1.2-3.6c-0.3,0.5-0.5,1-0.5,1.7L200,4.4c-0.3-0.8-0.7-0.9-1.4-0.4
		c0.3,0.7,0,0.2,1.1,0.4c0.2,1.2-0.3,1.6-0.4,2.8c-0.8,0-0.6,0.2-0.5-0.7c0.2-0.6,0.3-0.8,0.2-1.4c-0.5,0.2-1.9,2.2-1.9,2.4
		c-0.3,0.8-0.6,1.5-0.4,2.4c1.9,0.9,9.9,1.4,10.9-0.3l0-0.7c-0.1-0.3-0.2-0.7-0.3-0.9c-0.2-0.6,0.3-0.1-0.3-0.6
		c-0.1-0.3-1.3-2.1-1.8-2.3c-0.1,0.7,0,1.3,0.6,1.9c-0.4,0.2-0.4,0.1-0.8,0.3l-0.5-2.2l0-0.6c1.2-0.1,0.8,0.3,1.1-0.5
		c-1.2-0.9-0.6,0-2.7,0.7l0.5,0.8c0,0.1,0.1,0.1,0.1,0.2C203.7,6.3,203.9,6.1,203.2,6.5L203.2,6.5z M221.2,59l0-0.8l-0.8-0.9
		l-0.9,0.5c0.4-0.9,0.2-1.1,0-2.1c-0.6,0.2-0.9,0.6-1,1.4l-1.7-0.1c-0.3-1.1,0.1-1.2-0.7-2.9c-1.9,1.5-0.3,2.7-0.5,3.6l-0.9-1
		l-0.5,0.9c-0.4-0.5-0.3-1.1-1.4-2.1c-0.4,0.7-0.2,0.7-0.5,1.2c-0.5,0.8,0.1-0.1-0.8,0.8c-0.3,0.6,0,0.8-0.6,0.9
		c0.1,0.9,0,0.8,0.8,1l0.2,2.1c1.8,0.7,6.9,0.9,8.4-0.1c0.2-0.6,0.1-0.9,0.1-1.3C220.6,59.1,220.3,60.1,221.2,59L221.2,59z
		 M25.5,142l-0.5,0.3c-0.3-0.8,0.2,0,0-0.8c-0.8,0-1.2-0.1-0.7,0.7c-1-0.3-0.2-0.4-1,0.1c0.2,1.1-0.2,1,0.8,0.6l0,0.5
		c-0.6,0.1-0.8,0-1.3-0.5c0.3-1.7-0.2-0.2-0.3-1.6l1.2,0.3l0-1.4l-1.2,0.4l0.5-1.1l-1.6-0.1l0.5,1.1c-1.1-0.2-0.3-0.2-1.3-0.2l0,1.5
		l1.1-0.6c0.4,1.7-0.5-0.1-0.2,1.8l-1.2,0.6l-0.3-0.6c1-0.4,0.3,0.6,0.9-0.4c-0.8-1.3,0.2,0.2-0.6-0.5c-0.7-0.6,0.6,0.1-0.5-0.6
		c-0.7,0.3-0.3,0.3-0.5,0.9l-0.3-0.2c-1-0.1-0.4,0.1-1.2-0.4l-0.6,0.3c0.6,3.9,0.7,4.7,4.9,4.6c4.3,0,4.4-0.6,4.9-4.6l-0.6-0.3
		L25.5,142L25.5,142z M234.9,57l0-0.9c-1.3,0.1-0.3,0-1.2-0.2c-0.4-0.1-0.9-0.1-1.5-0.2l0,0.5c-0.5,0.6-0.2,0-0.3,1
		c0,0.3,0,0.9-0.1,1.2c-1.1-1.3,0.7-2.4-0.7-3c-1,0-1.3-0.2-2.2,0.2c-0.8,1.2,0.5,2-0.6,2.6c0.1-0.6,0.2-0.6,0.1-1.3
		c-0.1-1.4,0.2-0.3-0.4-1c-0.9-0.4-1.9,0-2.7,0.5l0.1,0.5l0.3,1.5c-0.1,3.2-0.1,3.3,3.2,3.5c1.1,0.1,2.2,0,3.3,0c1.1-0.1,2,0,2.4-1
		l0-0.6L234.9,57L234.9,57z M77.7,122.2c0.4-1.1,0.3-1-0.8-1.7C76.1,121.5,75.7,122.2,77.7,122.2z M104.1,73.6l0.2-0.1l-1.2-0.2l0,2
		c0.2-0.9,0-0.6,0.6-1.1c0.8,0.5,0.5,0.7,0.8,1.4C104.7,74.5,104.8,74.5,104.1,73.6L104.1,73.6z M190.7,43.6
		c0.9-0.4,0.6-0.4,0.6-0.9l-0.7-0.2C190.4,43,190.2,42.9,190.7,43.6z M49.8,111.3c-0.6-0.4-0.7-0.9-0.7-1.7c0-0.2,0.1-0.9,0.2-1
		c0.5-1,0.5-0.4,0.8-0.6C50.2,109,50.4,110.5,49.8,111.3z M48.5,111.8c-1.3,0.2-2.4-0.1-2.8-1.5c-0.5-2,0.8-2.3,2.4-1.6L48.5,111.8z
		 M52.4,111.7c0-0.4,0.3-2.6,0.4-2.8c0.3-0.7,1.6-1,2.2-0.3C55.6,109.4,55.4,112.4,52.4,111.7z M49.1,104.7c0,0.8,0.4,1.8,0.8,2.2
		l-1.4,1.1c-3.2-2-4.2,0.8-3.2,3.7c-0.8-0.3-0.2-0.8-1.1-0.1c0.3,0.5,1.2,1,1.8,1.5l-0.1,1.4l1.6,0.1l7.5,0l-0.1-1.6
		c0.7-0.2,1.6-0.9,1.9-1.4c-1.2-0.5-0.3-0.1-1.2,0.2c1.2-1.9,0.7-2.7-0.3-4.3c-1.6,0-1.3-0.2-2.8,0.5l-1.5-1.2
		c0.5-0.3,0.6-1,0.9-1.7c-0.7-0.5-0.7-0.4-1.3-1C49.6,104.5,50.4,104.7,49.1,104.7z M75.2,144.3l-0.1,0.8l-1,0.1
		C74.3,144.5,74.5,144.4,75.2,144.3z M79.1,144.3c0.8,0,0.9,0.2,1.1,0.9l-1,0L79.1,144.3z M76.1,144.1c0.8-0.1,1.7-0.1,2.3,0.2
		c-0.2,1.1-0.2,0.8-1.2,1.5C76.3,145,75.8,145.1,76.1,144.1z M76.2,142.9c-2.4-0.6-1.5-1.6-2-2.4c-0.7,0.1-1.2,0.4-1.5,1
		c0.7,1.3,1.5-0.6,1.2,2c-2.4-0.1-1.5-1.3-2.5-1.7c-0.5,0.3-0.9,1-0.9,1.6c1.4,0.4,1-0.6,2,1c1.4,2.2-0.1,0.9,0.5,2.7
		c1.8,0.4,6.6,0.6,8.3-0.1c0.6-1.7-1.1-0.2,1.2-3.6c1.1-0.1,0.3,0.5,1.4-0.2c-0.3-0.7-0.4-1.2-1.1-1.5c-0.8,1-0.1,1.6-2.3,1.7
		c-0.3-1.9,0.4-1,1.2-2c-0.3-0.5-0.7-0.8-1.4-1c-0.2,0.3-0.3,2.5-2.1,2.4c-1.2-1.8-0.1-0.8,0.1-2.3c-0.4-0.3-2-0.5-2.1,0.2
		C76.1,141.9,77.5,140.7,76.2,142.9L76.2,142.9z M4.2,43.1l0.6,0.1l0.1,1c1.6,0.8,5.4,0.8,7,0.1l0.4-1.3c1.3-0.3,1.4-2.6,1.5-3.8
		l-1.1,1.1l-0.2-2.3L11.2,40l-0.3-3.2l-0.8,1.2c-0.2,0.5-0.3,0.8-0.5,1.2l-1.1-3.7l-1,3.7l-1.3-2.6l-0.4,3.1
		c-0.6-0.6-0.8-1.5-1.4-1.8l-0.1,2.3l-1.2-1C3.4,41.4,3.3,41.1,4.2,43.1z M74.2,107.7l-2.3-0.6c0.4,0.9,1.3,1.4,1.4,2.5
		c0.8,0.6,0.5,0.8,1.1,1.6l1.4-0.1c-0.6,0.1-1.1,0.2-1.5,0.7c0.9,0.8,0.7,0.3,3.4,0.3c1.3,0,2.6,0.1,3.9,0l-0.1-0.1
		c-0.3-1.1-0.8-0.9-3.6-0.9c-0.5,0-1,0-1.5,0l0.7,0l0.7-1.5l0.8,1.4l3.3,0.2c0.1-1.5,1.5-2.8,2.1-4c-1.3,0-1.2,0.4-2.3,0.6l-0.6-0.6
		c-0.5-0.3-0.1-0.4-0.8,0.1l-0.9-0.3c-1,0.2-0.8,0.5-1.6,1c-0.8-0.6-0.6-0.9-1.6-1l-0.8,0.4c-0.6-0.5-0.4-0.5-0.9-0.3
		C74.8,107,74.2,107.7,74.2,107.7z M3.7,78.9c2.2,0.6,5.6,0.4,7.9,0.3l1.3-0.3l0.3-0.4c0.3-0.5,0,0,0.2-0.3c0.5-0.8,2.5-4.5-0.3-3.8
		l0,0l-0.6-0.9L11.5,74l-0.3-0.9l-0.8-0.6l-0.6,0.7l-0.4-0.2l-0.8-1.2c-0.9,0.4-0.7,0.5-1.4,1.3l-1-0.6L5.4,74l-1.1-0.6l-0.6,1.1
		c-1.7-0.6-1.8,0.1-1.2,1.8c0.3,0.4,0.3,0.7,0.6,1.2c0,0,0.4,0.7,0.4,0.7C3.7,78.9,3.2,78.3,3.7,78.9z M103.1,38.5
		c-0.8-0.4-0.4-0.8-0.8-1.4c-0.4,0.9-0.8,1.8-0.7,2.8c1.1,0.3,0.9,0.4,1.6-0.6l0.5,0.8c0.9-0.2,0.9-0.4,0.9-0.4
		c1.2-0.4,0.2,0.2,1.5,0.2l0.6-0.2c0.9-0.1-0.4,0.5,1.7,0c1.1-0.2,0.4,0.4,1.8,0.2c0.1-1-0.2-2.1-0.8-3c-0.6,0.9,0.1-0.2-0.3,1.1
		l-0.2,0.4c-1.1-0.7-0.4-0.8-1.3-1.7c-0.8,1.3,0.3,1-0.8,1.6c-1.2-0.7,0.1-0.6-1-1.6c-0.9,1.2,0.1,1.1-1.1,1.6
		c-0.7-0.9-0.1-0.6-0.5-1.5C103,37.3,104.1,37.5,103.1,38.5L103.1,38.5z M62.3,138.9l0.5,1.2l1.3,0l0.5-1.3l-1.1-0.9L62.3,138.9z
		 M142.1,23l1.1,1.2l-1.2-0.9c0.2,0.8,0.4,1,0.1,1.8c0.1,0.6,0.2,1.7,0.4,2.1c2,0.2,5.9,0.5,7.7-0.1l0.7-3.1c0.2-0.7,0-0.2,0.2-0.4
		c0.7-1.3,0.1,0.6,0.3-0.4l-0.9-0.4l0.7-1.6l-1.8,0.9c-0.4-0.8,0.2-0.3-0.2-1.3c-0.5,1.3,0,1.1-1.7,1c-0.1-1.6-0.1,0,0.3-1.1
		c-0.5,0.1-0.5,0.2-1.1-0.1l-0.4-1.3l-0.6,1.9l-0.7-0.7c-0.1,0.2,0,0.3,0,0.4c0,0.3,0,0.4,0.1,0.7c-1.2-0.6-0.4-0.6-0.9-0.2
		c-0.7,0.7,0.6,0.2-0.3,0.2c-0.8-0.9-0.1-0.1-0.4-0.9l-0.5,1.3l-1.3-0.7L142.1,23L142.1,23z M146.6,8.2c-0.4-0.8,0-0.4,0.2-1.5
		c0.3-1.2-0.2-1.4,1.2-1.2C148.5,6.5,148,8.8,146.6,8.2L146.6,8.2z M141.7,8.5c-0.4-0.8-0.5-0.8-0.2-1.6
		C142.1,7.3,142.1,8,141.7,8.5z M144.1,5.4c0.2,1,0.6,2.1,0.8,2.9C143.2,8.8,141.7,5.8,144.1,5.4z M150,7.2l-0.5,1.5
		c-0.6-1.3,0.1-0.1-0.3-1.3l-0.9,1.5c-0.1-0.8,0.2-1.8,0.9-2.3c0.4,0.7-0.6,0.4,0.7,0.7C149.8,7.1,149.9,7.1,150,7.2z M145,5
		c0.2,1,0,1.4,0.6,2.2c0.6-0.7,0.5-1.2,0.7-2c0.7,1-0.1,2.3-0.7,2.8C144.9,7.3,144.3,5.9,145,5z M141.1,10.1c1,0.6,0.4,0.5,1.1,1
		c3.5-0.9,4.2-0.1,7.2-0.1c0.5-0.9-0.1-0.3,0.8-0.8c-0.1-1.5-0.5-0.1,0-1.7c0.7-2.2,0-2.1-1.2-2.7c-0.7-0.4-0.5-0.4-1.4-0.8
		c-2.4-1.1-0.6-1.6-2-2.5c-0.8,1-0.1,1.4-1.1,2.1c-1.2,0.9-4,1.2-3.7,3.2c0.1,0.4,0.4,0.8,0.4,1.2C141.3,9.9,141.1,9,141.1,10.1z
		 M173.1,37.9c0.3,1.2,0.1-0.1,0.6,0.9c-0.9,0.5,0-0.2-1,0.3c-0.2,0.8-0.5,0.7,0,1.3c0.5,0.8,0.8,0.2,1.1,0.9
		c-2.1,0.4-0.4-1.1-2.2,0.2c0.3-1.6-0.1-1.5-1.2-1.6l0.4-0.8l-1.5-0.7c0,1.3,0.3,2.2,1.4,2.6c-0.7,0.9,0,1.3-0.3,2.7
		c1.9,0.7,6.3,0.6,8.3,0.1c0-1.1,0.3-2-0.2-2.8c1-0.4,1.5-1.5,1.4-2.6l-1.3,0.6l0.2,1c-1.1-0.2-0.7-0.2-1.6,0.6
		c-0.9,0.9-0.9,1.2-1.9,0.5c0.5-0.2,1.2-0.2,1.4-1c0.2-1.1-0.6-1-1.2-1.3c0.4-1,0.2,0.2,0.6-0.9l-1.5-1.1
		C173.7,37.3,174.2,37.4,173.1,37.9z M216.6,91c0,1-0.1,0.7-0.8,1.5C214.4,91.3,214.8,90.2,216.6,91z M209.9,91.3
		c0.1,0.4,0.8,2.3,1,2.7c1.6,0,3.2-0.4,4.9-0.4c1.6,0,3.3,0.4,4.9,0.4c0.4-1.1,0.1-1.2,0.8-1.9c0-0.3,0.1-0.5-0.1-0.8
		c-1,0.3,0,0.6-1.5,0.9c-0.9-1.7,0.6-1.3-0.7-2.2c-1.2,0.7-0.6,2-1.4,2c-1.1-1.6,1.3-1.2-1.5-2.4c0.3-1.1,0.2-1.3-0.3-2.2l-0.5,1.2
		c-0.1,0.8-0.2,0.2,0.1,0.9c-0.8,0.4-0.7-0.2-1.2,0.7c-0.3,0.5-0.2,1.1-0.4,1.4c-1.1-1.2-0.2-1.2-1.4-1.8c-1.1,1.1,0.4,0.7-0.7,2.3
		C210.1,91.8,211.3,91.7,209.9,91.3L209.9,91.3z M201.5,90.9c0.5-0.2,0.9-0.3,1.5,0c-0.1,0.8-0.1,0.9-0.8,1.2
		C201.5,91.6,201.6,91.9,201.5,90.9z M197,91.7c0,1.4,0.2,0.9,0.5,2.2c0.6,0.8,0.3,0.7,0.4,1.7c3.2,0.4,5.3,0.6,8.5,0
		c0.1-1.5-0.1-0.9,0.4-2.2l0.5-1.6l-0.3-0.1l0.1-1.3c-1.3,0-1,0.1-0.8,1.2l-0.4,0.5c-1-1.8-0.2-2.5-0.9-3.6
		c-0.8,1.1,0.4,3.1-1.2,3.6c-0.5-0.8,0-2.3,0.2-3.1c-1,0.5,0,0.5-1.3,0.7l-0.4-2.5c-1,0.5,0.1,1.1-0.9,2.7l-1.1-0.9
		c0.3,1.1,0.6,2,0.2,3.1c-1.4-1.5-0.3-2-1-3.1c-0.5,0.5-0.5,2.4-0.9,3.4c-1.2-1.3-0.2-1.3-0.7-1.7C197,89.6,197.5,91.3,197,91.7
		L197,91.7z M193.2,110.7l-0.1-1.9c0.8-0.6,0.8-0.2,1-1.2c-0.6-0.5-0.9-0.6-1.6-0.4c-0.1,1,0.6,1.7-0.9,1.8
		c-0.1-1.5,0.8-0.5,0.1-1.6c-1.1,0.4,0,0.1-1,1.2l-0.3-1.1c-0.6,0.7-0.4,0.4-1.2,0.3l-0.4-1.2c0.4-0.6,0-0.2,0.9-0.7l-0.1-1l-1.2-1
		c-2.4,2.3-0.6,1.5-0.4,2.8c0.2,1.2-1,1.1-1.1,1.1c-1.4,0.4-0.2,0.6-1,0.7c-0.8-1.1,0.4-0.7-0.9-1.1c-0.5,1,0.1,0.2,0.1,1.4
		l-0.6-0.2l-0.4-0.4l0-1.1c-0.9,0.1-1,0-1.7,0.5c0.2,0.7,0,0.6,0.7,0.9c0.8,1.2,0.2,2,0.5,3.4c1.5,0.9,8.1,0.9,9.6,0L193.2,110.7
		L193.2,110.7z M192.6,128.1l-0.7-0.8c0.9-1.1,2.6-1.6,1.2-3.4c-1.2-0.8-0.7,0.1-1.9-0.7c-1.2-0.7-0.5-0.5-2-0.4
		c0.3-0.7,0.4-0.5-0.1-1.1c-1,0.6,0.1,0.4-1.5,1.1c-3,1.3-4.6,1.2-1.5,4.3c-0.5,1.3-0.9,0.1-0.8,2l0.1,0.9l7.2-0.1
		C192.9,128.9,193,128.8,192.6,128.1L192.6,128.1z M198.6,72l0,1.9c-0.8,0.3,0.6,0.3-1-0.3c0,1.1,0.2,2.5,1.3,2.9c0,1,0,0.8-0.2,1.5
		c2,0.7,5.6,0.9,7.4,0c-0.2-1.2-0.6-0.5,0.4-1.8c0.7-0.9,0.8-1.6,0.7-2.7l-0.9,0.8l-0.1-2c-0.8,0.4-0.8,1-1.3,1.6l-0.5-2.6l-1,2.4
		l-1.2-3.4l-0.4,1.6l-0.5,1.3l-1-1.9l-0.5,2.5L198.6,72L198.6,72z M233.1,73.1c-0.3,0.8-0.3,0.2,0,0.9c0.7-0.1,0,0.1,0.5-0.2
		c0.1,0,0.2-0.2,0.3-0.2c0.3-0.2,0.1-0.2,0.6-0.4l-1.1,1.4c-2.5-1.2-1.3,0.1-2.5-0.8c0.3-1.1-0.1,0.3,0.8-0.3c0.6-0.4,0.5,0,0.3-1.1
		c-1.7-0.5-0.9,0.3-2,0.3c-0.7,0-0.4-0.4-1.7-0.4l-0.8-0.2l0.1-0.1c-0.4-1.4,0-0.6-1-1c0,0.1-0.1,0.2-0.1,0.2c0,0.1-0.1,0.2-0.1,0.2
		c0,0.1,0,0.2,0,0.2c-0.1,0.5,0.2,0.4-0.1,1.1l-0.9-0.5c-1.6-0.2-0.7-0.1-1.1,0.2l2.2,3c0.1,1,0.2,0.9,0.3,1.7
		c1.2,0.5,2.7,0.4,4,0.3c2.1,0,2.7,0.2,2.8-1.9l2.3-3.3l-0.7-0.2L233.1,73.1c0.8-1.4,0.4-1.5,0.3-1.9c-0.6,0.4-1,0.9-1.1,1.6
		L233.1,73.1L233.1,73.1z M229.6,75.1c0.6-0.7,0-0.3,0.8-0.5l0.6,0.8c-0.6,0.5,0.3,0.4-1.1,0.4C229.4,75.5,229.5,76,229.6,75.1
		L229.6,75.1z M226.6,60.7c1.1,0,2.3-0.1,3.5-0.2c1.3,0,2.5,0.2,3.7,0.2l-0.1,0.5c-2.3,0.3-5.3,0.4-7.5-0.1L226.6,60.7L226.6,60.7z
		 M172.2,56.6c1.1-0.2,0.1-0.3,1.4-0.4c0.8,1.3-0.3,0.3,0.4,1.2c-1.4,0.5-0.8-0.2-1.1,0.6c1.3,1.6,0.5-1.1,2,1.1
		c0.6-0.5,0.3-0.5,0.8-0.7c0.6-0.2,0.3,0.2,1.2-0.1c-0.1-0.6,0.2-0.4-0.9-0.9c0.7-1.3-0.3-0.1,0.2-1.1c1.2-0.2,0.2,0.1,1.6,0.2
		c-0.1-1.7-0.7-1.2-1.8-1.8l-0.9-2c-0.7,0.3-1.1,1.7-1.3,2.4C172.2,54.9,172.1,55.2,172.2,56.6z M225.9,123.2
		c-0.6,0.3-0.5,3-0.1,3.5c-0.3,0.8-0.4,1-0.1,2l0.3,0.7c2.7-1.2,5-0.2,7.4-0.2l0.2-5.8c-0.4-0.4-0.2-0.1-0.4,0.2
		c-0.8,0.8,0.4,1-0.6,2.2c-1.8-0.5,0.5-1.6-1.2-2.7c-1.1,1.6,0.4,2.3-1,2.7c-1.3-1.5,0.9-1.2-0.8-3.2c-1.7,1.8,0.6,2-1,3.3
		c-1.4-1.1,0.6-2.2-1.2-2.7c-0.8,1.4,0.3,1.6-0.6,2.6C225.8,125.5,226.1,124.3,225.9,123.2L225.9,123.2z M95.8,111.8
		c-0.7-0.3-1.6-0.4-2.4-0.5l2.6,0.1c0.2-1.1-0.1-1.4,0.1-2.4c0.3-1.3,0.6-0.6,1-1.5c-1,0.1-1.4,0.6-2.3,1.1
		c-0.1-1.4,0.2-1.9,0.3-3.1c-1,0.4-0.1,0.3-1.9,2.2c-0.7-1.7-0.4-2.8-0.8-3.8c-1.3,0.9-0.4,0.4-0.6,1.7c-0.1,0.3-0.4,1.5-0.6,1.9
		c-0.8-0.6-1.2-1.8-2-2.2l0.4,3.2l-2.3-1.1c0.5,1.2,0,0,0.6,0.8c0.3,0.4,0.3,0.3,0.4,0.8c0.2,0.9-0.1,1.3,0.1,2.5l1.8-0.1
		c-0.6,0.1-1.2,0.2-1.7,0.3l0.3,1.4c1.7,0.4,5,0.4,6.7,0C95.5,113.2,95.8,111.8,95.8,111.8z M93,111.3c-0.6,0-1.1,0-1.7,0
		c0.6-0.7,0.3-0.8,1-1.4L93,111.3z M202.1,8c0.8,0.7,0.6,1-0.4,0.9C201.5,8,201.3,8.5,202.1,8z M197,9.6c0.9-0.3,1.3-0.3,2.2-0.4
		c1.5-0.1,1.6,0.2,2.6,0.2c1,0.1,0.5-0.5,5,0C205.4,10.6,199.1,10,197,9.6z M199.7,60.7l-0.1,0.7c1.9,0.4,4.7,0.7,6.3-0.1l-0.2-1.6
		c0.4-0.2,0.2,0.3,0.4-0.8l0.7-0.3l0.1-0.9c0.4-1.3,0.6-0.7,0-2.3c-0.9-0.2-0.4,0.1-1-0.1c-1.1-0.3-0.2-0.2-0.8-0.6
		c-0.6-0.4-0.8,0.2-2-0.6c0.5-0.1,0.3,0.2,0.8-0.5l-1.2-1.3c-0.7,0.5-0.3,0.5-1.2,1c0.2,0.8-0.2,0.6,0.8,0.6c-1.3,0.9-1.5,0.3-2,0.6
		c-1.1,0.6,0.4,0.8-2.1,0.7l-0.1,0.7c0,1.1,0.1,0.5,0.2,1.3c0.2,0.9,0,0.3,0.1,1.2l0.6,0.2C199.3,58.8,199.7,60.7,199.7,60.7z
		 M138.5,125.9c0-1,0.1-0.8-0.6-1.4c-1.1,0.8,0.2,0.1-0.4,1c-0.6,1-0.6,0.5-0.5,2c1.3,0.1,0.9,0.2,1.8-0.4c1.3-0.8,0,0.4,1.1-0.4
		C139.5,125.8,139.4,125.9,138.5,125.9z M106.8,72.7c0.6,0.7,1.4,0.6,1.3,1.8c0,0.5-0.2,0.7-0.5,1c-1.2,1.2-0.9,0.4-0.2,0.9
		c0.9-0.5,1.1-0.6,1.4-1.6c0.3-1.8-0.3-1.3-0.7-2.6c0.3-0.1,0-0.4,0.8,0.2l-0.3-1.4c-0.7,0.3-0.7,0.9-1.2,1.6
		C107.4,72.7,106.8,72.7,106.8,72.7z M88.4,122.7c0.5,0.9,0.7,0.7,1.3,1.5c0.5,0.6,0.6,1.2,1.1,1.8
		C90.9,124.6,89.9,122.4,88.4,122.7L88.4,122.7z M116.8,140.4c-0.4,0.6-0.4,0.1,0,0.8l0.2-0.4C117.2,139.9,117.1,140.8,116.8,140.4z
		 M100.6,89.4c1.3,1.1,1,4.7,1,5.6c1.8,0.8,5.8,0.7,7.7,0c0.1-1.2-0.5-2.4,0.4-3.7c-0.2-1.7,0.9-2,0.2-2.8c-0.3,0.3-1.3,2.1-1.9,2.8
		c-0.1-0.9,0.3-2.2-0.1-2.7c-0.5,0.2-0.7,0.8-1.4,2.2c-0.6-2.4-0.4-3-0.7-3.5l-0.7,0c-0.1,0.1-0.6,2.9-0.7,3.5
		c-0.2-0.6-0.4-0.7-0.7-1.2c-0.5-1,0.3-0.6-0.7-1c-0.4,0.5,0,1.8-0.1,2.7l-1.9-2.8C100.7,89,100.7,88.3,100.6,89.4z M129.9,111.7
		c-1.7-3.4,1.7-4.8,2.3-3c-1-0.1-1.5,0-2,0.9C129.6,110.6,130.1,111.1,129.9,111.7L129.9,111.7z M128.5,107.9
		c-0.2,1.7-0.8,1.6-0.3,3.4c0.4,1.4,0.2,0.2,0.7,1.2c0.3,0.7-0.3,0.3,0.3,1.4l3.4-0.1c-0.4-0.9-1.3-1.3-1.7-2.4
		c-0.3-0.9-0.1-2.1,1-1.9c0.3,0.5,0.3,1.7,0.5,2.3c0.1,0.6,0.1-0.2,0,0.4c0,0.7-0.6,0.3,0.1,1.3c0.8,0,1,0.2,1.1-0.8
		c0-0.1,0-0.3,0-0.4l0.4-2.9c2.9,0.7-0.2,3.3-0.6,4.4l3.4,0c0.4-0.8,0-0.6,0.3-1.2c0.5-1.2,0.5,0.1,1-3.1c-1-0.5,0.4-0.3-1.8-2.5
		c-0.7,0-2.5,0.4-2.8,0.3c-0.5-1.2-0.3-0.5,0.5-1.3c-1-0.7-0.3,0-1-1c-0.7,0.9,0,0.3-1,1c0.6,0.6,1,0.3,0.5,1.3
		c-1,0.3-0.9-0.4-2.3-0.3C128.3,107.2,130.3,107.9,128.5,107.9L128.5,107.9z M176.6,127.4c0.3,0.6,0.4,0.2,0,1
		C175.7,128.1,175.6,127.7,176.6,127.4z M173.7,130.4l3.7,0.4c1.5-0.4,2.9-0.4,3.3-2c0.3-1.3,0.9-3.7,1-4.9
		c-1.3,0.1-1.4,0.1-2.2,0.9l0.6,1c0.1,0.3,0.1,0.1,0.3,0.5c-1.4,1.5-0.7,0.8-1.9,0.5c-0.8,1.3,0.4,0.6-0.8,1c-0.4-0.9,0-0.5-0.6-1.3
		c0.7-0.5,0.4-0.3,1.1-1.1l-1.7-1.7l-0.9,1c0,0-0.7,0.7-0.8,0.8c0.5,0.5,0.6,1.1,1.2,0.7c-0.2,0.5-0.7,1.5-1,1.7l-0.6-1.1
		c-0.9,0.5-0.4,0.5-1.2,0.4c-0.2-0.3-0.7-0.8-0.6-1.1c0.1-0.5,0.4-0.1,0.7-1.6c-0.6-0.2-1.4-0.5-2.1-0.7c0,1.2,0.5,2.7,0.8,4
		C172.5,130.5,172.1,129,173.7,130.4L173.7,130.4z M156.2,109.8c0.4,0,0.8-0.1,1.2-0.2c-0.4,0.3-0.7,0.6-0.7,1.2l-0.1,0.1
		c2-0.3,3.3-1.7,6.8-0.6c3.5,1.1,1.6,0.4,1.9,0.3c-0.2-0.6-0.7-0.9-1.3-1.2c0.4,0.1,0.9,0.3,1.4,0.6c1.8-2.2,1.3-2,0.7-2.4l-0.9,1.4
		c-1-1.6,1.1-0.4,0-2.1c-1.4,0.6,0,0.4-1.2,1.4c-0.4-1.6,0.3-0.1,0.2-1.9l-1,0.1c0.2,0.9,0.2,0.8-0.3,1.5c-1-1.4,0.6-0.6-0.2-2
		c-1.8,0.2,0,0.6-1,1.7c-0.9-1.5,0.7-0.9-0.5-1.8c-1.4,0.8,0.1,0.4-0.6,1.8c-0.9-0.4-0.3-0.6-0.4-1.6l-0.9,0.2c0,1.3,0.5,0.8,0,1.7
		c-1.2-0.8,0.3-0.8-1-1.5c-1.5,1,0.4,0.6-0.2,1.9c-1.1-0.9,0.3-0.7-1-1.4c-1.3,1,0.1,0.5,0,2c-1.6-0.8,0.4-1-1.6-1
		C155.5,109.5,156.3,108.1,156.2,109.8L156.2,109.8z M159.4,109c1.1-0.3,2.3-0.4,4.3,0.2c-0.9-0.3-2.1-0.3-2.9-0.3
		C160.4,109,159.9,109,159.4,109L159.4,109z M164.8,40.4c-0.8,0.9-1.1,0.2-1.1-0.7c0-0.9,0.5-1.7-0.8-2c-1,1.6,0.5,3-1.2,3
		c-1-1.2,0.8-2.7-1-3.7c-1.2,1.9,0.1,2.4-0.8,3.7c-2.1-0.2,0.3-1.7-1.4-3.2c-1.5,1.7,0.3,1.5-0.8,3.2c-1.9-0.1-0.2-1.5-1-2.8
		c-1.1,0.6-0.4,0.4-0.5,3.9l0,1.5c1.7,0.9,7.4,0.8,9.1,0c0.3-1.3,0-1.8,0-3c0.1-1.6,0.9-1.3-0.2-2.5
		C164.3,38.8,164.8,39.3,164.8,40.4L164.8,40.4z M152.2,77.2c0.7-0.9,1.8-1.9,1.2-3.1c-1.5,0.5,0.2,2.7-2.4,2.5
		c-0.1-0.7,1.7-2.7-0.8-2.2c-0.8,1.6,0.5,1.1-0.6,1.9c-1.9-0.8,0.3,0.1-0.6-3.1c-0.8,0.5-0.5,0.8-1,0.5c0.4-1.1,0.5,0.6,0.6-1.2
		c-0.7-0.7-0.6-0.7-1.6-0.7c-1.2,1.4-0.3,1.4,0,2c-1.5-0.3,0-0.2-1.2-0.5c-0.3,1.1,0.1,0.2-0.8,1c0.6,0.5,0.5,0.3,0.9,1.1l0,0.8
		l-1,0c-0.1-0.7,0.3-2.4-1.1-1.8c-0.5,0.2-0.6,0.5-0.4,1c0.4,1.1,0.8-0.2,0.5,1.3c-2.4,0-0.8-1.7-2.2-2.6c-0.8,1,0.1,2.3,1.1,3
		l0.1,2.3c1.5,0,2.9-0.3,4.4-0.3c1.6,0,3.1,0.3,4.7,0.3C152.1,78.4,151.8,78.3,152.2,77.2L152.2,77.2z M60.7,146.2
		c1.2-1,4.4-0.9,5.7,0C65.2,147.3,61.7,147.4,60.7,146.2z M59.9,146.3c0.6,0.7,0.1,0.8,1.5,1.1c1.5,0.3,5.1,0.5,5.7-1.1
		C66.2,144.5,60.8,144.6,59.9,146.3z M96.1,61.7L96,61c-0.6,0-1.8-0.1-3.1-0.1c1.3,0,2.5-0.1,3-0.3c0-0.8,0.3-1.2,0.7-2
		c0.7-1.2,0.4-0.7,1.4-1.4l0-0.9l-0.8,0.1c-0.7,1-0.3,1.4-2.1,1.6c-0.7-2.1-0.4-1,0.2-1.9c0.7-1,0-1.3-1-1.2
		c-0.9,1.3,0.7,1.1-1.6,2.7c-2.4-2,0.8-2.1-1-3.7c-3.1,0.5,0.7,0.9-1.6,3.7c-1-0.4-1.1-0.8-1.1-1.6c-0.1-0.9-0.1-1.4-1.3-0.8
		c-0.6,2.3,1,0.1,0.2,2.7c-2.8,0-0.7-1.3-2.5-1.5c-0.9,1.5,0.4,0.3,0.6,1.9c0.7,0.5,1,1.5,1.4,2.4c0.5,0.1,1.4,0.1,2.4,0.1
		c-1.2,0-2.3,0.1-2.7,0.4c0.6,0.6,1,0.5,2.1,0.4L96.1,61.7z M9.7,126.3l0-2.2c-0.6-0.2-0.7,0.1-2-0.1l-0.2,2.5L7,126.1l-0.1-1.9
		l-2,0.1l0,2.5c-0.9-0.6-0.6-1-0.9-2l-0.9,0.4l0.4,2.2c0.9,1.2,0.3,1,0.8,2.1c2.8,0.6,5.5,0.7,8.3,0c0.4-0.9,0-0.4,0.3-1.3
		c0.3-0.8,0.9-1.2,1-3.3l-0.9-0.2l-0.6,2.1l-0.5-0.4l0.3-2l-2-0.2l-0.3,2.3L9.7,126.3L9.7,126.3z M159.6,89.9l0.5,0.8l-0.5,0.5
		l-0.3-0.1c0,1.3-0.2,0.9,0.5,1.4c0.6,0.7,0.2-0.1,0.4,0.7c-0.9,1.6-2.2,1.6-3.1,0c-0.1-0.5,2.3-1.2-0.6-3.1l0.2,4.7l0.4,0.7l0,0.7
		c0.4,0.6,3,0.4,3.9,0.4l3.1,0c0.9-0.2,0.2,0.3,0.8-0.4l0-0.5l0.4-0.9l0.4-4.3l-0.3-0.4c-0.3,0.4-1.1,1.2-1.2,1.5
		c-0.2,0.9,0.3,0.8,0.8,1.4c-0.7,1.7-2.2,1.9-3.2,0.2c0.3-1-0.1-0.2,0.5-0.8c0.3-0.3,0.9-0.8,0-1.1c-0.4-0.8-0.5-0.2-0.1-0.9
		c0.4-0.8,0.5-1.1-0.1-1.7l-0.4-0.4c-0.5-0.6-0.6-0.5-1.4-0.1l-0.5,0.6l-0.4,0.1L159.6,89.9L159.6,89.9z M170.3,76.7l1.5,0.1
		c-0.4-0.6,0-0.5-0.3-1.3l-0.9,0C170.5,76,170.6,76.4,170.3,76.7z M143.4,129l0.3,0.6l-0.4-0.1l0,1.3l7.1,0c1.2-0.1,0.5,0,0.8-0.4
		l-0.6-0.8l0-0.5c0.6-0.5,0.3,0,0.7-1c0.9-0.9,1.2-2.9-0.5-3.3c-1-0.4,0,0.1-1-0.7c-0.4-0.7-0.4-0.5-1.3-0.5l-0.9,0l-0.1-0.5l0.6,0
		l0.2-0.7c-0.6-0.1-0.4-0.3-0.8-0.9c-0.9-0.1-0.2,0-0.8,0.1l-0.6,1c0.6,0.9,0.4,0.1,0.8,0.9l-1,0c-1.1,0.2-1.3,0.1-1.4,1.2
		c-1.2,0.2-0.6-0.2-1.6,0.4c-0.8,0.9-0.5,2.5,0.4,3.2L143.4,129L143.4,129z M170.7,112.3l0.1,0.7c0.5,0.7,0.5,0.4,1.7,0.4
		c1.1,0,0.8-0.1,1.9,0.2c0.7,0.1,0.8,0.2,1.3-0.3c1.2,0.2,2.2,0.3,3.2-0.1l0-1.7c0.6-0.5,0.9-1.5,0.9-2.3c0.1-1.2-0.4-1.4-1-2.3
		l-1.7,0.1l-0.8,0.1l-0.5,0c-1.2-1.5-0.1-1.4,0.3-1.9l-1.3-1.3c0,0.1-0.1,0.1-0.1,0.2c-1.1,1.4-0.6,0.2-1,1.1
		c0.6,0.6,0.1,0.2,0.9,0.5c-0.1,0.8-0.1,0.8-0.5,1.4l-0.5,0.2l-0.8-0.1l-0.5-0.1c-3.3,0.1-2.5,3.8-1.4,4.7
		C170.5,112,170.8,111.7,170.7,112.3L170.7,112.3z M211.9,144.7c-1.1,2.4,1.2,2.2,3.2,2.4c1.9,0.1,4.3,0.1,6.1-0.6l0.1-1.7l-0.7-0.1
		l0.3-4.5c-1.9,1.7-0.2,4.4-2.1,3.2c-1.2-0.8,1.1-1.1-0.7-4.2c-2.3,2.8,0.2,4.2-1.5,4.3c-1.9,0.2,0.4-1.7-1.5-4.2
		c-0.3,0.5-0.8,1.6-0.9,2.3c0,0.9,1,1.5-0.2,1.9c-1.8,0.6,0-1.1-2-3.4C211.5,141.1,212.7,144.9,211.9,144.7L211.9,144.7z
		 M197.1,144.3l0.6,0.6l0,1.1c2.5,1,6.2,0.7,8.7,0.1c0.1-0.7,0-0.9-0.1-0.9l0.4,0c0.1-1.3,1.1-2,0.1-3.4l-1.1,2.2
		c-0.3-0.7-0.2-0.8,0.1-1.5c-0.5-0.2-0.6,0-0.8,0.1l0.3-0.4c0.5-0.9,0.3-0.8,0.2-1.4c-1.2,0.9-0.9,1.5-1.4,2.7
		c-0.5-1.4,1-1.6-0.2-3.5l-1.1,2c-0.2-1-0.1-2.1-0.8-2.9c-0.7,0.9-0.5,1.2-0.7,2.3c-0.2,1.6,0.1,1.6,0,1.9c-0.6-1-0.3-2.4-1.3-3.2
		c-1,1.6,0.2,2.3-0.1,3.5c-0.6-0.9-0.4-1.8-1.5-2.7c-0.4,1.5,0.1,2.3-0.2,3.3l-1.2-2.2C196.8,142.6,197,143.4,197.1,144.3
		L197.1,144.3z M197,38.6c-1.1,0-0.5-0.1-0.8,0.3c0.7,1.1,0.5,0,1,1.5c0.3,1.1,0,1,1.1,1.7c0.4-0.6,0.3-0.6-0.2-1.3
		c0.1,0.4,0.7,1.1,1.4,0.9l0.5-0.2c0.8-0.3,0.2,0.6,1-0.6c0.5-0.1-0.6,0.2,0.6,0.4l0.3-1.2c0,0.1,0.1,0.1,0.1,0.2l0.1,0.4
		c0,0.1,0,0.1,0,0.2c0,0,0,0.7,0,0.9c-1.8,0.2-4.1-0.3-3.5,2c1.7,0.8,6.5,0.9,8.1-0.1l0-1.3c-1.1-0.7-2.2-0.5-3.5-0.6
		c-0.2-0.8-0.4-1.5-0.1-2.1c0,0.8,0.1,0.9,0.5,1.6c0.6-0.2,0.1,0.4,0.6-0.6c0.4,1,1.7,1.5,2.8,0.3c0,0.1-0.2,0.3-0.1,0.4l0.5,0.4
		c1.3-1.2-0.1-1.5,1.6-2.8c0-1.2,0.2-0.1-0.5-0.6c-0.7,0.2-1.4,1.1-2,1.8l0.1-2.4c-0.9,0.2-0.7,1.2-1.8,2l-0.5-2.5
		c-0.9,0.3-0.3,0.5-0.6,1.8c-1.6-3.1,0.5-2.3-1.2-3.4c-1.4,1.3,0.3,0.5-0.8,3.1l-0.3-0.8c-0.3-0.7,0.6,0-0.4-0.7
		c-0.4,0.8-0.2,1.3-0.7,2.3c-1.5-1-0.3-1.4-1.5-1.8l0,2.2C197.4,39.3,198.1,38.9,197,38.6L197,38.6z M230.6,90.4l1-0.4l1,0.7
		l-0.1,1.2l-0.2,0c-0.1-0.6-0.2-0.5-0.9-0.8l-1-0.5L230.6,90.4L230.6,90.4z M232.7,93.9c0.3-1.1-0.3,0.3,0.8-0.6
		c-0.2-1-0.5,0.4,0-1.3c0.3-1,0.1-1.2,0.2-2.1c1.2,0.4,1.3,1.1,0.8,2.4C233.8,94.3,233.1,94,232.7,93.9L232.7,93.9z M224.2,92.1
		l1.6,2.3c0.4,0.5,0.2,0.4,0.5,1c2.1,0.7,4.9,0.6,7.1,0.1c0,0,2.3-2.6,2.1-5c-1.4-1.8-2.6-1.9-4.8-1.1c-0.9-2.3,0.6-1.1-0.8-2.3
		c-0.9,1.1-0.2,0.2-0.5,1.7c0,0-0.1,0.5-0.2,0.6c-1.6-0.5-1.8-0.6-2.6-0.4C224.1,89.7,224.6,90.3,224.2,92.1L224.2,92.1z M233,27.1
		c-0.1,0.1,0,0.3-1.2,0.4c-0.5,0.1-1.2,0-1.7,0.1c-1.1,0-2.4,0.1-3.4-0.3C227.8,26.4,231.8,26.9,233,27.1z M233.5,23.8
		c0.2,0.9,0.3,0.5-0.1,1.3c-0.9-0.3-0.4-0.3-1-1.2l-0.9,1c-0.4-1.1-1.2-1.2-0.2-2.3c0.7,0.3,0.5,0.2,0.8,1
		C233.3,23.6,232.6,23.3,233.5,23.8z M229.1,23.1c0.1-0.9,0-1,0.7-1.5c1.1,1,0.9,2.2,0,3.2l-1-1.3l-0.8,1.4l-0.8-1.1
		c-0.8,0.8-0.3,1.2-1.3,1.4l0.1-1.6c0.8-0.2,0.5-0.1,1.4-0.1l0.4-0.9C228.7,22.8,228.4,22.9,229.1,23.1z M225.5,24.1
		c-0.3,0.3,0,0.3-0.6,0.7l0.9,2.7c1.6,0.7,6.3,0.6,7.9,0l0.5-2c0.4-2.3-1-2.6-1.8-3c-2.6-1.5-2.6-1.1-1.5-1.9c0,0-0.5-0.4-0.5-0.4
		l-0.3-0.3c-0.7-0.6,0.6-0.1-0.6-0.5c-0.2,0.4-0.6,0.8-0.7,1.1c-0.3,1.1,1.3,0.3-2.1,2.2C226.1,23,225.6,23,225.5,24.1L225.5,24.1z
		 M206.6,57c-0.8-0.4-0.6-0.3-0.8-1.1C206.9,56.2,206.7,56,206.6,57z M199.1,57c-0.4-0.8-0.1-1,0.8-1L199.1,57z M135.6,78.9l1.9-0.1
		l0.1-2c0.1-0.8,0.2-1.6,0.4-2.4c0.3-1.3,0.9-1.5,0.7-2.3c-0.8,0-0.9,0.7-1.8,1.7c-0.2,0.2-0.4,0.4-0.6,0.6c0.2,1.4,0.4,0.3,0.4,1.5
		l-0.7,0.3c-0.9-1.2,0.8-0.4-0.5-1.6c-1.6,0.7,0.1,0.4-0.9,1.4c-0.8,0-0.6,0-1.1-0.6l1-0.9c-0.2-1.1-0.3-0.6-0.8-1.6
		c-0.5-0.9-0.4-1.1-0.7-1.8c-1.1,0.4-0.2,0.1-1,1.6c-0.3,0.6-0.7,1-0.9,1.8c0.7,0.8,0.4,0.1,1,0.9c-0.6,0.7-0.3,0.6-1.1,0.6
		c-0.8-1,0.7-1.1-1.1-1.4c-0.6,1.1-0.1,0.4,0,1.4l-1-0.2c0.1-0.8,0.3-0.1,0.5-1.5c-0.7-0.7-1.6-1.3-1.6-2.2c-1.2-0.2-0.3-0.3-1,0.2
		c1,1.7,1.1,2.4,1.3,4.4l0,1.9C128.1,78.9,135.6,78.9,135.6,78.9z M32,94.7c0.8-1,6.6-0.7,7.9-0.1C38.7,95.6,33.5,95.4,32,94.7z
		 M30.7,93.7c0.5,1.7,0.5,1.6,2.5,1.8c1.3,0.2,2.8,0.1,4.1,0.1c1.2,0,2.4-0.2,3.6-0.7l0.2-1.2c0.5-0.8,0.6-2,0.5-2.9
		c-1.3,0.4-0.6,1.5-1.7,2.2c-0.2-1.5,0.3-1.9,0.2-3c-0.7,0.3-1,1.5-1.5,2.2c-0.6-1.2,0.3-1.9-0.2-3l-1.6,2.8c-0.2-0.5,0-1.1,0.1-1.5
		c0.2-1,0-0.7-1-2c-0.4,1.7-0.7,0.5-0.9,1.7c-0.1,1.1,0.6-0.1,0.2,1.8c-0.5-0.9-0.9-2.2-1.7-2.7c-0.2,1.2,0.1,1.9,0,3.1
		c-0.7-0.7-0.8-2-1.7-2.5c-0.1,1.2,0.4,1.4,0.2,2.9c-0.6-0.4-0.8-1.1-0.8-1.8l-1-0.3C30.2,91.8,30.3,92.9,30.7,93.7z M74.1,41.8
		c-0.4,0.6,0,0-0.6,0.4c0-1-0.1-1.6,1.1-1.4L74.1,41.8z M4.2,141.5L4,141c0.8-0.6,0.5-0.2,0.7-1l-1.3-0.1l0.3,1.8l-0.7,1.2l-0.6,0.4
		L3,144l-0.1,0.3c0,0.4-0.1,0.5,0,0.9c0.2,0.7-0.1,0.1,0.3,0.4l-0.1,0.6c-0.5,2.6,8.1,1.6,9.6,0.9l0-1.7c0.4-0.1,0.3-0.8,0.3-1.2
		l0-0.5l0.3-0.2L13,143l-0.6-1.4c0.7-1.3,0.3,0,1.1-1.2c-0.6-0.5-0.3-0.4-1.3-0.5l-0.3,1.6c-0.7,0.1-1.4,0.6-1.8,1.2l0,0.6l-0.1,0.5
		l-0.1,0.4c-0.5,0.8-0.1,0.3-0.4,0.2c0-0.5,0-0.9,0-1.3c-0.1-1.1,0.2-0.4-0.3-1.1l-0.9-1.1l-0.1-0.6c0.1,0,0.5-0.2,0.5-0.2
		c0.3-0.3,0.2-0.2,0.3-0.6l-1.2-0.3l-0.2,1.8L7,142c-1.1,0.6-0.8,1-0.5,2.2l0,0.4l-0.6,0l0-0.2c0.1-0.6,0.2-0.6,0.1-1.2
		c-0.3-1.3,0.1-0.2-0.5-0.7C5.6,142.5,4.2,141.5,4.2,141.5z M173.9,142.8c-1.7-0.4-0.6-0.9-1-2.4c-0.9-0.4-0.4-0.3-1.4-0.1
		c-1,1.9,0.8,0.8,0.6,2.6c-0.4-1,0.1-0.3-0.6-0.7c-0.4,1,0.1,0.2-0.1,0.9c-1.3-1.1,0-3.2-2.2-2.2c-0.4,1.1,0.1,1.3,0.7,1.8
		c1.3,0.9,0.9,2.7,1.5,3.8c2.2,0.7,6,0.4,8.3,0c-0.6-3.2,1.6-3.9,1.9-4.6c0.3-1-1-1.7-1.5-0.7c-0.7,1.2,0.8,0.8-0.8,2
		c-0.3-0.7,0.4,0.2-0.3-1l-0.5,0.7c-0.1-1.9,0.8,0,0.9-2.1c-0.7-0.8-1.6-0.9-1.7,0.3c-0.1,0.7,0.5,1.4-0.6,1.8
		c-0.1-0.8,0.3-0.2-0.2-1.1c-1,0.4-0.5,0.2-0.7,0.9c-0.9-1.6,0.2-1.3,0.4-2.4c0.2-1.3-0.9-1.4-1.9-1.1c-1,1.7,0.5,1.2,0.3,3.2
		c-0.7-0.7-0.2-0.6-1.1-0.4L173.9,142.8L173.9,142.8z M215.8,26.6c-1.2-0.1-0.7,0-1.1-0.5c0.8-0.4,1.7-0.4,2.4,0
		C216.8,26.6,217,26.6,215.8,26.6L215.8,26.6z M217.8,26.4c0.2-0.1-0.6-0.9,0.9-0.3C218.3,26.8,218.6,26.7,217.8,26.4z M211.1,22.9
		c0.7,0.4,0.8,0.4,1.4,0.7c-1.3,1.3-1.1,0.7-0.9,2.4c0.1,0.6-0.1,0.6-0.1,0.9c1.8,0.7,7.3,0.9,8.9-0.1c0,0-0.3-1.2,0.3-2.5l-0.6-0.6
		c-0.3-0.2-0.3,0.6-0.2-0.4c0.9-0.1,0.7,0.1,1.2-0.7c-0.3-0.9,0-1-1-0.7c0.1-1,0.7-0.1,0.1-1c-0.7,0.2-0.8,0.7-1.2,1.1l-1.2-0.1
		l0-0.7c-0.9,0.1-0.3,0.2-0.9-0.2l0.6-0.5l-1.2-1l-1.4,0.9c0.3,1.1,0.2-0.1,0.5,0.8c-1.4,0.2-0.4-0.1-0.7,0.4l-1.2,0.4
		c-0.9-0.6-0.1-1-1.4-1.1c-0.5,0.7-0.3,0,0.3,0.8C211.1,21.9,211.7,21.6,211.1,22.9L211.1,22.9z M217.6,22.3l0.9,0.1
		c-0.1,1.3-0.9,1.2-1.8,0.6C217.6,22.5,217,22.9,217.6,22.3C217.6,22.3,217.6,22.3,217.6,22.3z M214.8,22.4l0.8,0.6
		c-0.8,0.8-1.7,0.6-1.7-0.7l0.8,0C214.7,22.3,214.8,22.4,214.8,22.4z M189.4,73.6l-0.1,1.2c-0.9-0.8-0.4-1.2-0.4-2
		c0.1-1.4,0-0.6,0.4-2l-0.5-0.8c-0.6,0.5-0.2,0.5-1,0.7C187.8,70.7,189.4,73.6,189.4,73.6z M86.9,9.7c-0.6,0.2-0.3,0.8-0.1,1.5
		c1.8,0.9,7.2,1.7,8.2-0.5L95,9.9c-1.3-0.8-1-0.2-0.2-0.4c1.4-0.4,0.4-0.6,1.5-1.1l0.1-1.1l-0.2-0.9l0.3-0.9c-0.6-0.8,0-0.3-0.9-0.6
		l0.1-0.8l-0.2-0.5l-1.1-0.2l-0.6-0.1h-0.3l-0.1-0.6l-1.6,0.4c-0.6,0.1,0.1,0.2-0.6,0c1.2-0.7,0.3,0,0.9-0.8c-1.1-1-0.3,0.6-1.2-1.1
		c-1,0.7,0,0.1-0.7,0.7c-0.3,0.3-0.3,0.1-0.8,0.5c0.5,0.6,0.1,0.3,0.9,0.5l0,0.7l-0.4,0.1l-0.2-0.3C89.2,3.1,88.9,3,88.3,3
		c-0.1,0-0.7,0.2-0.8,0.2c-0.6,0.3-0.3-0.2-0.5,0.5c-1-0.3-0.7-0.3-1,0.2L86,4.1c-0.4,0.4-0.2,0-0.6,0.8c-0.2,0.4-0.3,0.8-0.3,1.2
		c-0.1,0.9,0,1.4,0.4,2.1l0.4-0.9c0.5,0.9,0.4,0.7-0.4,0.9C85.7,8.8,86,9.9,87,9.4C87.4,9.9,87.2,9.5,86.9,9.7z M135.4,22.8
		c0-0.7,0.2-1.9-0.5-2.3c-0.6,1-0.1,1.1-0.6,2.9c-0.2,0.9,0.4,0.4-0.5,0.8c-0.2-0.4-0.3,0.3,0.1-0.8c0-1-0.4-0.8-0.5-1.6
		c-0.1-0.6,0.2-1.6,0.3-2.2l-0.5-0.3c0.6-0.4,0.3-0.6-0.3-0.8c-0.6,1.2-0.2,1.8-0.2,3c0,1.2-1,1.7-0.4,2.3c0.3,0.5,0.2,0.2,0.1,0.5
		c-1-0.5-0.2,0.2-0.5-1.1c-0.6-2.7,0.1-2.3-0.7-3c-0.7,0.8-0.2,1.1-0.4,2.1c-0.3,1.5-0.1,0.7-0.1,2l-0.8,0.1c0.4-0.7,0.5-1,0.3-1.6
		c-0.1-0.4-0.3-1.3-0.4-1.6c-0.5,0.6-0.3,1.6-0.9,2.4l0.1-2l-1.1-0.1c-0.4,0.6-0.2,0.3-0.2,0.7c0,0,0,0.1,0,0.1
		c0.1,1.3-0.6,0.3-0.1,2l2.3,0.1c-0.9,0.9-1.2,0.5-2.4,0.7l0,2.2c2,1.2,6.5,0.8,8.8,0.7l2.5-0.6l0.2-2.2l-2.3-0.4
		c0-0.4-0.5-0.1,0.4-0.5l0.8,0l1-0.1c0.2-1.5-0.2-0.9-0.1-2l-1-0.4l-0.4,0.7c-0.6-1.2,0.4-0.4-0.7-1.6
		C135.5,22.3,136.9,22.1,135.4,22.8L135.4,22.8z M212.9,6.2c0.8,0.6,0.7,0.6,1.6,0.7c0.4-1.2,0.5-1.2-0.2-2.3
		c-0.4-0.7-0.7-1.4-1.3-1.7C212.9,4.1,212.7,5.1,212.9,6.2L212.9,6.2z M104.5,20l2,0c-0.1-1.5-0.6,0.6-0.4-1.3
		c0.9,0.8,1,0.5,1.1-0.5c-1.7-1.2,0.4,0.9-1.7-0.8c-1.5,1.3-0.8-0.3-1.7,1.1c0.4,0.6,0.1,1.1,1.1,0.3C105,20.2,105,18.8,104.5,20z
		 M224.6,5.8l0.9,2.9l-0.1,2c1,0.5,7.1,0.3,8.6,0.2l0.3-2.6l1.2-3.5l-1.2,0.5c-0.6-0.9,0-0.4-0.6-1.2L232.9,4c0,0.3,0.1,0.4-0.5,0.8
		c-0.6-1.6-1.5,0.4-1.8,0.9c-1.1-1.3-0.1-0.8,0.1-1.9c0.2-1.4,0.1,0.7-0.2-1.7c-0.5,0.2-1.3-0.2-1.6,1c-0.5,1.9,1.2,0.8,0.3,2.3
		l-0.9-0.3l-0.5-0.7c-1.2,0,0.1,0.4-1.1,0.2l-0.5-0.7c-1.3,1-0.1,0-0.8,1.6c-0.9-0.6-0.3-0.6-1.4-0.7L224.6,5.8L224.6,5.8z
		 M188.9,25.7l0-1.1c0.5,0.2,0.1-0.5,0.7,0.5L188.9,25.7L188.9,25.7z M187.4,24.4c0.9,0.4,0.8,0,0.6,1.1
		C187.1,25.2,187.2,25.3,187.4,24.4z M190.6,24.6c-0.9-0.6-0.5-0.7,0-1.2C191.1,24,191,23.9,190.6,24.6z M186.5,23.5
		c0.4,0.7,0.6,0.2-0.1,1.2c-0.3-0.4-0.2,0.4-0.3-0.6C186.2,22.6,186.1,24,186.5,23.5z M183.5,22.5c-1.5,0.6,0.6,1.1,1,4
		c0.1,0.9-0.1,0.4-0.2,1.3c1.2,0.3,7.1,0.3,8.3,0.1c-0.5-3.3,1.1-3.1,1.5-5.6l-2.6,1.8c-0.1-0.5-0.2-0.7-0.1-1.2
		c0.2-1.1,0.1-0.3,0.4-0.9c0.4-0.8,0.3-0.9-0.7-0.8c-0.5,0.9,0.6,0.6-1.3,2.1c-0.4-0.4-0.8-0.9-0.9-1.5c-0.3-1.5,0.2-0.3,0.7-1.4
		c-1.3-0.6-0.3,0.1-1.1-1c-1,0.9,0.3,0.3-1.2,1.1c0.3,0.8,1.8,0-0.1,2.8c-1.6-0.9-1-1-1.5-2.1c-0.9,0-1.2,0.1-0.7,0.8
		c0.4,0.7,0.2-0.4,0.5,0.9c0.1,0.5,0,0.6-0.1,1.2L183.5,22.5L183.5,22.5z M174,20.2c0.1,1.7,0.1,0-0.3,1.2c-0.3,1,0.3,0.1-0.3,1.4
		c0.9,0.3,0.5-0.5,0.7,0.4c-0.7,0.6-0.6,0.5-1.5,0.2c0,0,0.7-1.9-1.2-2.7c-0.5,0.5-0.2,0-0.4,0.6l-0.1,0.5c-0.1,1.1,0.2,0.1,0,1.5
		c0.8,0.3,0.5-0.4,0.6,0.3c-0.4,0.3-0.4,0.4-1,0.3c-1.2-0.2,0.2-1.7-2-2l1.7,2.9c0.6,1.2,0.2,1.8,1.4,2.2c1.2,0.4,4.7,0.4,6,0.1
		c1.4-0.3,1-0.9,1.5-2.2l1.6-2.4l-0.1-0.6c-0.6,0.3-0.9,0.6-1.2,1c-1,1.2,0-0.2-0.3,1c-0.9,0.2-0.6,0.3-1.2-0.3
		c0.3-1,0.2,0.9,0.6-1.1c0.2-0.8,0.1-1.1-0.4-1.7c-0.8,0-0.7,0.4-0.9,0.6l-0.8,1.4c0.3,1.2,0.4-0.5,0.4,0.6c-0.9,0.4-1,0.5-1.7-0.2
		c0.1-0.8-0.2,0,0.7-0.4c-0.8-1.4,0-0.4-0.4-1.6c-0.1-0.4,0,0-0.2-0.3L175,20C175,20,174,20.2,174,20.2z M218.1,126.8
		c-0.8-0.3-0.3-0.4-0.2-0.7C218.2,126.3,218.7,125.8,218.1,126.8z M213.8,126.8c-0.7-1-0.1-0.5,0.2-0.7
		C214.3,126.7,214.7,126.3,213.8,126.8z M212.4,123.6c0.4,1.4,0.8,0.9,0.6,1.9l-0.8-1l-0.3,1c-0.7-1.2,0.3-0.8-1.2-1.1
		c-0.9,1.5,0.2,0.9,0.7,1.4c1.1,0.9,0,1.8,1.3,1.9c-2.3,2.1,1.2,2.3,2.8,2.4c2.5,0.1,4.5,0.4,4-2.4l0.8-1.8l1.2-0.4
		c-0.4-1.9-0.6-0.4-2.5-1.4c0.1-0.6,0.3-0.1-0.2-0.6c-2.2,0.7,0,0.6-1.1,1.9c-0.4-1,0.2-0.9-0.4-1.8l-0.8,1.6
		c-0.1,0-0.3-0.5-0.3-0.8c-0.2-1.5,0-0.5,0.3-1c0.5-1,0-1.3-1.1-1.4l-0.5,1c1.1,1.3,0.8,0.8,0,2.4l-0.4-1.8
		c-0.8,0.3-0.4-0.4-0.6,1.6c-0.8-1.4,0.5-0.2-0.3-1.5C213.2,122.7,212.9,123.2,212.4,123.6L212.4,123.6z M67.7,129.3
		c-1.2-0.3-7.7-0.4-8.7,0.1l0.1,1c1.1,0.3,7.1,0.2,8.6,0.1L67.7,129.3L67.7,129.3z M123.3,111.4l0.7-0.3c0.4,0.9-0.3,1.2,1.2,1.1
		c-0.1-0.3-0.2-4.9-3.2-3.4c-0.9,0.4-0.8,1.2-0.7,0.5c1.1-0.8,0.7-1.8,0.2-2.9c-0.6-0.1-0.6-0.8-1.6-1c-0.1-1.2,0.2-0.6-0.5-1.2
		c-0.9,0.4-0.7-0.1-0.8,1.2c-1.3,0.3-1.9,1.6-2,2.7l-0.2,0.6c-1.3-0.4-1.6-0.3-2.5,0.5l-0.5,2.9c1.3,0,1,0,1.1-1.2l0.5,0.1
		c0.1,2,0.6,0.8,0,2.6c1.6,0.3,7.2,0.2,8.9,0.1C123,111.4,124.3,113.2,123.3,111.4z M146.7,53.8c-0.3,1.4-0.4,0.2-0.7,1.4
		c0.3,0.3,0.6,0.4,1,0.5c-0.5,1.2-0.4,1.2,0.8,1l-0.1-1l0.8-0.5c-0.3-0.9-0.1-0.2-0.6-1l-0.2-0.3c0,0-0.1-0.3-0.2-0.4L146.7,53.8
		L146.7,53.8z M109.2,74.8l-0.3,1c0.1,0,0.6-0.4,1.2-0.5c-0.1,1,0,0.8-0.7,1.5c1.4-0.1,1.6-1.7,1.8-2.9
		C111.2,73.9,109.2,74.8,109.2,74.8z M193.6,39.1l-0.1,1.3c1.1-0.3,1.1-0.2,1.1-1.3l-0.5-0.2L193.6,39.1z M10.5,93.8
		c0.5-1.1,0.6-0.5,0.9-1.5c0.3-0.8,0.1-1.1,0.5-1.9c1,0.6,1,0.9,0.7,2L12.2,94C11.7,94.2,11.6,94.3,10.5,93.8z M4.2,90.4
		c0.6,0.9,0.2,1,0.6,2c0.3,0.9,0.5,0.3,0.9,1.4c-0.6,0.4-0.1,0.2-1.8,0.5c-0.4-1-0.1-0.4-0.1-1C3.7,91.9,2.7,91.7,4.2,90.4z
		 M6.1,93.8C6,93,6.2,93,6.2,92.4c-0.1-1.2-1.5-2.4,0.6-3.5c0.9,0.9,0.7,2,1.2,4.7C8,93.6,6.1,93.8,6.1,93.8z M9.2,89.1
		c2.2-0.3,0.8,3.2,0.8,3.2c-0.1,0.5,0.1,0.7,0,1.5l-1.7-0.1c0-1.6,0.4-0.5,0.4-2.2C8.7,90.4,8.5,90,9.2,89.1z M13.3,91.2l0.1-0.1
		c-0.3-0.2-1-0.6-1.3-0.9c-1.2-0.9-0.1-1.1-3.4-1.9c-0.3-1.4,0.5-0.5-0.3-1.8c-1.7,0.5-0.4,0.6-0.8,1.7c-0.9,0.4-2.1,0.5-2.7,1.1
		c-0.8,0.8,0.2,0.2-1,1c-0.5,0.3-0.6,0.2-0.9,0.8c-0.6,1.4,0.7,2.6,1.9,5.2l6.7-0.1C12.1,93.7,13.4,94.1,13.3,91.2L13.3,91.2z
		 M198.9,111.7c1.7-0.5,4.1-0.8,5.6,0.2c-1,0.8-2.9,0.7-4.3,0.6C199.2,112.3,199.4,112.3,198.9,111.7z M199.4,107l-0.9-0.3
		c-0.2,1,0.8,0.1-0.3,1c-0.8,0.7-0.8,0.3-1.3,1.1c0.2,1.4,0.3,0.8,1,1.6c0.8,1,0.1,0.9,0.6,1.8c1.1,0.7,5.1,0.9,6.1,0.2
		c1.3-0.9-0.6-0.9,1.4-2.2c0.9-0.6,1.1-1.1,0.3-2c0,0.1,0,0.1,0,0.2l-0.1,0.5c0,0.3,0.1,0.1-0.1,0.7c-1,0.2-0.5,0.4-1.3-0.3
		c0.8-0.6,0.4,0.1,1.1-1c-0.5-0.9-0.8-0.6-0.8-1.5c0-0.1,0-0.1,0-0.2l-1.4,1.6c-0.3,0.9,0.4-0.3-0.2,0.8l-1.1-0.1
		c0.1-0.7,0.2-0.2,1-1.1c-0.4-1.2-0.5-0.3-0.7-1.2c-0.1-0.7,0.4,0.3-0.4-1.1c-0.6-0.1-1,0-1.3,0.5c-0.6,0.8-0.2,0,0.1,0.9
		c-1.6,0.3,0,0.3-1.1,0.6C199.2,107.7,199.3,107.8,199.4,107L199.4,107z M198.9,25.2c-1.1-0.3-1.8-1.6-1.2-2.6
		c1.3-0.6,2.1,1,1.9,2.2l-1.2-1.2C198.5,23.6,198.9,25.2,198.9,25.2z M204.3,24.9c-0.5-1.1,0.6-2.8,1.8-2.3c0.6,1,0,2.5-1.1,2.7
		l0.6-1.8L204.3,24.9L204.3,24.9z M200.2,22.2c0.9,0.2,1.2,1.3,1.9,1.9c0.7-0.8,0.7-1.5,1.7-1.9c0.1,1.2-0.7,2.6-1.6,3.3
		C201,25.1,199.9,23.4,200.2,22.2z M196.8,21.9c-0.4,1.6-0.1,3.1,1.5,3.7l0.4,1.4c-0.6,1.2-0.6,0-0.6,1.1l7.7,0
		c0.1-1.3-0.1,0.1-0.5-1.1c0.6-1,0.8-0.2,0.4-1.4c1-0.5,1.2-1.2,1.9-1.9c-0.3-1.9-0.2-2.2-2.2-2.6l0-1.2c-0.7,0.8-0.9,1.7-2.1,1
		c-1.2-0.7-0.6-1.3-1.2-1.9c-1.3,0.6-0.1,0-0.8,1.1c-1.2,2.1-2.4,0.4-2.9-0.1C198.2,21.3,198.6,21.4,196.8,21.9L196.8,21.9z
		 M62.8,27.2l5.6,0c0-0.4,0-0.3-0.3-0.9l0.5-0.8c-1-1.4-0.1-2-0.3-3.7c-0.2-1,0-0.3-0.6-0.7l-0.8-0.5c-0.8,0.6-0.2,0.2-0.7,0.8
		c-0.8,1,0.4,0.6-1.1,0.7L64.3,21c-1.4-0.2-0.6-0.2-0.9,0.3l-0.7,1.1c-0.6,0-0.6,0.2-0.3-0.2l-1.1-1.7l-0.5,0.4l-0.6,0.5
		c-0.5,0.6-0.4,1.5-0.3,2.5c0.2,1.6,0.7,0.8-0.4,1.5l0.3,0.5l-0.2,1.3L62.8,27.2L62.8,27.2z M126.3,127l0.7-0.3
		c1.1,0.8,0.5,1,2.3,0.8c-0.3,0.3-0.5,0.6-0.4,1.2l-0.2,1.5c1.4,0.4,3.1,0.3,4.6,0.3c1.7,0,3.7,0.2,4.1-0.8l-0.1-1.6
		c-0.1-0.4-0.8-0.9-1.1-1.4c-0.4-0.8,0.1-0.9-0.3-1.6c-2.2,1.6-0.7,1.3-1.3,2.3c-1.3-0.7-0.6-1-0.6-2.7c0.5-0.1,0.3,0,0.6,0.1
		c1.7,0.5-0.9,0,0.4,0.2c0-1.2,0-0.4-0.8-1.2c0,0-0.1-0.1-0.1-0.1c0,0-0.1-0.1-0.1-0.2c0,0-0.7-1.5-0.7-1.6
		c-0.6,0.6-0.5,0.9-0.8,1.4c-0.5,0.9-0.6,0.3-1.2,1.3c0.1,0,0.1,0,0.2,0l0.9,0.2c0,1.6,0.7,1.8-0.5,2.5l-0.1-0.4
		c-0.3-1.5,0.2-1.1-1.5-1.9l0,0.7l0.3,1.1c-0.4,0.1-0.9,0.2-1.2,0.5l-0.1-1.7c-1.3-0.5-0.3-0.2-0.7-1.2c-1,0.5-0.7,0.5-0.9,1.6
		C126.7,125.7,126.5,126.2,126.3,127z M158,74c1.5,0,1.4-1,0.2-1L158,74z M156.7,25.8c0.9-0.5,2.5-0.4,3.6-0.4
		c1.3,0,2.7-0.1,3.1,0.6C161.8,26.3,158.1,26.5,156.7,25.8L156.7,25.8z M162.6,24.1l-0.6-0.2c0.3-1.1,0.6-1.7-0.1-2.8
		c-0.7,1-0.7,1.5-0.6,2.7l-0.3,0.1c0-1.8,0.7-3.4-0.5-4.7c-2.1,0.8-0.5,2.6-1.4,3.6c0-0.7,0-1-0.5-1.7l-0.6,1.5
		c-0.3-1.1-0.1-1-0.9-1.8c-1.7,0.5,0.5,1.1-1.9,0.7c-0.7,1.5,0.2,3.4,1,4.7c2.2,0.4,6.1,0.7,8.2-0.2l0.1-0.9
		c0.7-0.5,1.9-2.9,0.4-3.5c-1.7-0.7-0.3-0.3-1.5-0.9C162.5,21.5,162.1,23.6,162.6,24.1z M217.4,6.1l-1-3c-0.9,1-1.1,3.1-1.8,4.2
		l-4-2.5l1.7,3.4l7.8,0c0.5-1,1.2-2.2,1.2-3.3c-1,0.5-0.8,0.8-1.8,1l-0.3-3.2C219.1,2.8,217.4,6.1,217.4,6.1z M136.3,43.7l0.1-2
		c0.4-0.3,0.4-0.7,0.9-1.1c1.1-1,1.1,0,1.1-1.3c-1.2,0-0.9,0.7-2.5,1c0-1.9,1.3-1,0.4-2.1c-1.2,0.1-0.3,1.1-2.2,1.7
		c-1.2-1.7,0.5-1.6-1.1-2.1c-0.5,0.9,0.1,0.8-0.6,2c-1.7-0.1-1.1-1.4-2.3-1.5c-0.3,1.8,0.6-0.1,0.4,2c-1.7-0.3-1.5-1.4-2.6-0.8
		c0.4,1.1,0.2,0.2,1.2,1.1c0.4,0.3,0.6,0.8,0.9,1.2l0,2.9l6.2,0.1L136.3,43.7L136.3,43.7z M114.5,77.9c1.1,1.2-0.5,1.7,3.3,2
		c1.9,0.1,3.3,0,5.1-0.5c0.8-0.6-0.2-0.1,0.2-0.9l0.5-0.6c0.5-1.7,2-2.5,1.2-4.5c-1.2,0-0.2,0.1-1.1,0.5c-0.6,0.3-0.2-0.2-1,0.3
		l-0.2,1.6l0.9,0.2c-0.5,0.9-1.1,0.8-2.2,0.5l-0.1-1.1l0.6,0.7c0.4-1,0.4-0.5,0.3-1.7c-2.2-0.2-0.9,1.1-2.3,0.6
		c0.3-0.7,0.1-0.1,0.5-0.6c0.7-0.8,0.8-0.9,0.6-2.1l-0.9,0.1l-0.5-1.5l-0.8,0.1c-0.6,2-0.2,0.8-1.5,1.7c0,0.6-0.1,0.8,0.3,1.3
		c1.1,1.5,0.4-0.6,0.9,0.9c-1.1,0.5-0.3-0.5-2.4-0.7l0.5,1.8l0.5-0.8c0.1,1.6-1.2,1.8-2.3,1.2c0.3-0.8,0.5-0.3,0.7-0.9
		c0.2-0.4,0.1-1,0.1-1.4c-2.1-0.4-0.5,0.2-2.1-0.9l-0.4,0.6C113,75.6,113.7,76.4,114.5,77.9L114.5,77.9z M212.5,10.2
		c1.5,0.3,3.2,0.1,4.8,0.1c2.8,0,2.8-0.2,2.2-1.9l-6.9,0C212.7,8.4,212.5,10.2,212.5,10.2z M218.3,37.7c-1.5,1.3-0.5,2-0.4,2
		C218.2,39.6,218.8,40.1,218.3,37.7z M47.7,125.7c-1.6-0.9,0.3-1.1-1-1.8c-0.7,1,0.9,1.6-1,2.7c-1.3-0.4,0.2-1-1.4-0.6
		c0,1.1,0.2,0.4,0.5,1c0.3,0.7,0,0.4,0.1,0.9c1,0.1,1.5,0.1,2.5-0.1c1.5-0.4,3.8,1.2,5.3-0.6c0.1,0.7,0,0.2,0.3,0.7l2.4,0
		c0.4-0.9,0-0.4,0.1-0.6c0.3-1.1,0.5-0.2,0.5-1.3c-1.6-0.3-0.1,0.2-1.4,0.6c-1.8-1.3,0-1.5-1-2.8c-0.8,0.6-0.1,0.4-0.6,1.7
		c-1.2,0,0.1-0.2-1-0.2c-0.2,1.1,0.1-0.2,0.2,1l-1.1,0.3c1.6-3.4-1.1-2.8-1.2-4.6c0.2,0.9,0,0.6,0.8,0.6c0-2.8-2.4,0-2,2.2l-0.4,0.6
		l0.7,0.3l-0.6,0.5l-0.1-0.7L47.7,125.7z M86.9,147.5c1,0.7,8.1,0.6,9.3,0.1c0.4-1.9-4.3-1.2-7.5-1.2
		C87.4,146.5,87,146.3,86.9,147.5z M101.2,40.1c-0.1,0.9-0.3,0.4,0.2,0.9l9,0l0.2-0.8l-3.4-0.1c-1.2-0.1-0.7,0.1-1.4,0.1
		c-0.8,0-0.2-0.3-1-0.2c-0.8,0,0,0.3-1.2,0.2C101.4,40,102.5,40.5,101.2,40.1z M59.2,106.2c0.6-0.7,0.5-0.9-0.4-1.1
		C58,105.8,58.4,106.1,59.2,106.2z M87.9,78.3l-0.1,0.2c-0.6,0.5-0.5,0.4-0.5,1.3c1.7,0.4,3.6,0.1,5.3,0.2l3.1,0c0-1.2-0.2-1-0.4-2
		l-0.1,0.4c-0.5,0.9,0.2,0.2-0.5,0.6c-1.1-0.6-0.1,0.2-0.6-1.1l1.2,0.1c0.4,0,0.3-0.4,0.4-0.9c0.5-0.6,0.3-2.3,1.1-3.3l-0.1-0.9
		c-1.4,0.7-2,2.3-2.9,3.7c-1.3-1.5-1.4-3.8-2.3-5.4l-1.2,3.5l-0.5-0.4L89,72.9c-0.8,0.6-0.3,0.2-0.3,1l-0.5,0.8
		c-0.8-0.8-0.7-1.4-1.8-1.7l1,4.1l0,0.9C87.5,78.1,87.7,78.2,87.9,78.3z M81.8,42.2c-0.5-0.4-0.8-0.8-0.9-1.5
		C82.3,40.6,82,41.2,81.8,42.2z M74.1,41.8c-0.1,0.6-0.3,0.6,0,1.3c0.5,1.3,0.7,0.5,0.9,0.6c0.8-0.9,0.4-0.7,0.1-2l0.8,0.3
		c0.5,1.4-0.1,0.9,1.1,1.1c0.1-0.9-0.1-1.1-0.3-1.9c0.4,0.6,0.4,0.8,0.6,1.9l0.1,0.7l-1.2,0.1l-0.3-1c0,2,0.2,0.9-1.1,1.5
		c-0.2-0.4-0.9-1.6-1-2C73.6,42.2,74.1,41.8,74.1,41.8z M76.6,41.1l-0.1-1c0.8,1,0.3,1.3,1.4,1.9c0.7-0.4,0.5-0.3,0.9-1.2
		c0.5-1.4,0.5-0.9-0.2-1.9c0,0.1-0.1,0.1-0.1,0.2c0,0.1-0.1,0.2-0.1,0.2c-0.2,0.9,0.1-0.2-0.1,0.6c-0.2,0.9,0,0.4-0.4,1
		c-0.8-0.9-0.4-0.7-0.4-2l-0.8,0.5c-1.2,0.5,0.1-0.7-1.4,0.4c0,0.1,0.1,0.1,0.1,0.2c0,0.1,0.1,0.1,0.1,0.2l0.5,0.3
		C76.3,40.8,76,40.3,76.6,41.1z M73.6,40c-1.5,2.4,0,1.1-0.4,4.2c1.1,0.7,0.2-0.1,1,0.9c2.3-0.2,3-0.5,5.6-0.3
		c1.9,0.5,1.2,0.1,2.4-0.7c-0.2-1.7-0.2-0.6,0.2-2.1c0.4-1.7-0.7-1.6-1.8-2.4c-2.2-1.5-1,0.1-2.6-2c0.3-1.1-0.2-0.1,0.6-0.9
		c-0.5-0.4-0.5-0.4-0.9-0.9l-0.9,0.9c0.7,0.6,0.2-0.2,0.7,0.7c-0.7,1.1-0.4,1.1-1.6,1.6C74.5,39.7,75.1,40.1,73.6,40z M142.4,110.6
		l0.9,0.9l0.2,0.6l0.2,1.3c1.4,0,6.1,0.4,6.9-0.2c0.6-0.5,0.3-0.7,0.5-1.7l0.8-0.8c-0.1-1.1,0.8-2.6,0.8-4.2c-1,0.2-0.8,0.4-1.2,0.5
		l-0.6,0c-0.8,2.3,0.5,1,0.2,2.7c-1.8,0.3-0.5-0.5-1.4-1.3c-0.5,0.6-0.3,0.1-0.3,1l-0.8,0.4l-0.9-0.6c0.5-2.1,2.1-1.3,1.5-3.1
		c-1.5-0.7,0.1,0.7-0.9-0.2c-0.5-0.4-0.2-0.4-0.9-0.9c-0.9,0.5-0.7,0.7-1,1c-0.9,0.7,0.6-0.6-0.8,0.1c-0.7,2.3,2,0.9,1.2,3.6
		c-1.9,0.3-0.6-0.4-1.7-1.2c-0.4,0.8,0,1.4-1.4,1.2c-0.2-1.8,1-0.4,0.2-2.7c-1.3-0.4,0.2,0.1-0.6,0c-1.3-0.1,0.9,0.4-0.3-0.1
		c-0.5-0.2,0-0.2-1-0.4C141.6,108.2,142.3,109.2,142.4,110.6L142.4,110.6z M127.9,26.8c2.1-0.8,8.2-0.6,10.4,0
		c-1.2,1-7.4,0.8-9.4,0.5C128,27.2,128.4,27.3,127.9,26.8z M121.3,40.7c0.6,0.8,0.3,0.2,0.1,0.8C120.8,41.1,120.6,41.3,121.3,40.7z
		 M116.9,40.8c0.1,1.1,0.1,0.4-0.4,0.6C116.2,40.8,116.3,40.9,116.9,40.8z M118.6,41.4C118.2,39,120.9,41.5,118.6,41.4z M147.3,58
		c0.6,0.8,0.4,0.4,0,1C146.7,58.4,146.8,58.5,147.3,58z M151.6,59.8c0-0.7,0.2-1.5,0.3-2.2c0.1-0.3,0.3-1,0.3-1.2
		c0.2-1.5,0.3-0.6-0.3-1.1l-2.4,3.7l-1.1-2.2c-2.3,0.6-0.4,0.3-2.2,0.1l-1.1,2.1c-0.8-1.3-1.6-3-2.9-3.6c0.1,1.3,0.7,2.3,0.6,3.6
		l0,0.4l0.4,1.2l0,1l1.2,0.1c0.8,0.2,5.5,0.5,6.4-0.1l0.6-0.1c0.1-0.9,0.2-0.7-0.4-1.2l0.1,0.1L151.6,59.8L151.6,59.8z M157.5,112.1
		l1.9,0.7c1.6,0.1,4.4,0.4,5.2-1.1c-0.4-1.5-2.4-1.5-3.8-1.4C159.1,110.2,157.4,110.1,157.5,112.1z M117,61.5l6.1,0l0.3-0.9
		c-1.6-0.1-3.2-0.1-4.8-0.1c-3.4,0-3.6-0.4-3.4,0.9C115.1,61.4,117,61.5,117,61.5z M146.8,88.3c0.2,1.3,0.2,1.5,1.3,1.7l0.5-1.3
		l-0.8-1.2C146.9,87.8,147.5,87.8,146.8,88.3L146.8,88.3z M132.8,140c0.7,0.4,0.3,0.3,1.3,0.1l0.1-1.2c-0.8-0.5-0.7-0.5-1.6,0
		L132.8,140L132.8,140z M144.4,91.4c0.8,0.4,0.4,0.3,1.2,0.1l0-1.1l-1.1,0L144.4,91.4L144.4,91.4z M10.3,107.1
		c-0.9,1.4-0.1,1.5,0,1.6c-1.6,0.3,0.9,0.5-1.7,0.9c0.3-0.8,0,0.2,0.9-0.9L9,108c-1.2,2.4-1.7,0.1-2.5,0.4c-0.8,0.2-0.3,0.2-0.6-0.1
		L5.6,107c-1.1,1.3,0.1,1.3-1.3,1.5l-0.4-0.8c-0.1-0.1,0.1-0.1-0.2-0.3c-0.4-0.4-0.1-0.1-0.5-0.3c-0.8,1.7-0.3,1.9,0.4,3.1
		c0.5,0.8,0.2,1.9,0.3,3c3.2,0.5,5,0.4,8.1,0.1c0.5-0.6-0.2-1.7,0.5-3.1c0.7-1.3,1.2-1.5,0.4-3.1c-1.3,0.3-0.7,0.7-0.7,0.8
		c-0.2,0.7-0.3-0.1-0.8,0.9c1,1.1,0.8,0,1,0.9c-1.4-0.2-1-0.9-1.6-0.9l-0.2,0C10.6,108.7,11.4,108.3,10.3,107.1z M226.2,146.1
		c0.2,1.9,6.3,1.2,7.4,0.7c0.4-1.5-0.7-0.3,1-1.9l-0.2-0.7c0.2-0.9,0.7-0.8,0.2-2c-0.3-0.2-2.7-1.3-3.2-1.4l-1-0.5l0.9-0.6
		c-0.3-0.4-1.1-1.3-1.5-1.5c-0.3,0.4-0.1,0.2-0.3,0.5c-0.2,0.3-0.1,0.2-0.3,0.4c-0.4,0.5-0.3-0.3-0.4,0.6l0.6,0.7l-0.8,0.5
		c-0.9,0.1-1.1,0.4-1.9,0.7c-1.5,0.7-1.8,0.3-1.4,2.2c0.1,0.6,0.1,0.9,0.2,1.1C225.6,145.9,227.1,146,226.2,146.1L226.2,146.1z
		 M64.3,23.7l0.6,0c-0.1,1.2-0.3,0.5-0.7,1.1L64.3,23.7z M117.5,111.1c1.1-0.1,0.9-0.2,1.5,0.8l-3.5-0.1l0.4-0.9
		c-0.9-0.8-0.3-0.3-0.5-1l1.2,0.1l0.7,1.5L117.5,111.1z M86.8,26.8c1.4-1,7.6-1,8.9-0.1C94.1,27.8,88.7,27.5,86.8,26.8z M85.4,25.9
		c0.9,1.4,0.2,1.4,2.4,1.7c2,0.5,7.3,0.4,9.1-0.6l0-1.2c0.7-0.6,0.8-2.5,0.6-3.4c-1.6,0.7-0.8,2-1.8,2.6c-0.4-1.9,0.3-2,0.1-3.4
		c-0.7,0.4-1.3,1.9-1.9,2.6c-0.1-1.1,0.3-1.9-0.1-2.6L93,22.8c-0.6-1.6-1.1-0.3-0.5-1.8c-1.7-0.1-0.5,0-1.2-1.3
		c-0.9,1.2,0.4,1-1.4,1.3l0.5,0.5c-0.6,0.4-0.6,0.5-0.9,1l-0.9-1.5l0,3.1c-1.1-1-0.8-2.1-1.9-2.6c-0.2,1.7,0.4,0.7,0.1,3.1
		c-0.5-0.8-1.1-1.2-1.2-2.4c-0.8,0-0.3-0.2-0.8,0.3C84.8,22.7,85.4,25.9,85.4,25.9z M120.1,76.6c-0.8,0.4-1.4,0.4-2.2,0
		c0.1-0.1-0.1-0.6,1.1-0.6C120,76,119.8,76.1,120.1,76.6z M91.4,139.4c-0.8,2.2-0.7,1-2.1,1.8h-0.5c-3.6-0.2-0.5-0.4-2.8-0.8
		l1.6,5.7c1.2,0.1,1.5,0.3,2.1-0.6c1,1.4,1.7,0.4,2-0.4l0.6,0.9c0.9,0.1,0.5,0,1-0.1c0.1,0,0.3-0.1,0.4-0.1c0.1,0,0.1,0,0.2,0
		c0.8,0,0.9,0.2,2,0.1c0.4-0.9,0.5-1.9,0.8-2.8c0.9-3.3,1.2-2.2,0.2-2.9c-1.2,1.3-0.5,0.8-2.2,0.8h-0.5c-1.3-1.1-0.7,0.4-1.6-1
		C91.9,139.5,92.3,139.4,91.4,139.4z M91.3,24.6c-0.5-0.8-0.6-1.7,0-2.5C91.7,22.9,91.7,23.8,91.3,24.6z M117.7,141.7
		c-0.9,0.4-0.3,1.4-0.4,2.6l-1.7-0.8c0.2,0.9,0.5,1.6,0.4,2.6l0.1,1.1c2.5,0.5,5.2,0.5,7.7,0l0.1-2.4l0.5-1.2l-1.8,0.7
		c-0.2-1.2,0.3-2.1-0.3-2.7c-0.2,0.6-0.9,1.3-1.5,1.9c-0.4-1.1-0.1-1.7-1-2.8c-0.7,1.1-0.7,1.5-0.9,2.8
		C118.4,143,117.8,142.4,117.7,141.7L117.7,141.7z M8,146.8c0.4,0,2.9-1.4,4.3,0.2c-1.4,0.8-7.2,0.7-8.7,0
		C5.3,145.6,6.8,146.9,8,146.8L8,146.8z M32.4,112.3c1.4-0.9,5.6-1,7,0C37.9,113.4,33.8,113.4,32.4,112.3z M35.1,110.3l1.2-0.6
		L35.1,110.3z M122.9,130.2l0-1.3c-1-0.5-6.3-0.5-7.3,0l0.1,1.4L122.9,130.2z M44.7,128.6c0.3,0.9-0.3,0.6,2.4,0.5
		c1.3,0,7.8,0.3,8.7-0.3c-0.6-1-0.1-0.5-1.3-0.5C52.5,128.5,45.4,128.2,44.7,128.6L44.7,128.6z M102.1,147.5
		c2.1,0.5,5.1,0.3,7.3,0.1l0.2-0.7l-0.1-1.3c0.7-0.4,2-1.9,2.2-2.7l-1.2,0.1l-1.2,0c0.2-0.8,0.4-0.6-0.1-1.4
		c-1.9-0.1-0.7,0.9-1.9,0.8c-1.3-0.4-0.4,0-0.8-0.8c-1.1-1.7,0.8-1-0.9-2.4l-0.8,0.7c0,0.7,0.2,0.1,0.2,0.6l-0.6,2.7
		c-0.2-0.1-0.3-0.3-0.5-0.4c0-0.1,0-0.1,0.1-0.3c0.3-1.5-0.5,0.7,0.2-0.4c0.3,0.4,0.4-0.4,0.2,0.6c0,0.1-0.1,0.1-0.2,0.2
		c-0.2-0.3-0.3-0.3-0.3-0.2c-0.4-0.4-0.7-0.9-0.7-1.2l-1.2,0c-0.4,1.2,0,0.9,0.3,2.1l-0.9-0.1c1.2-0.5,0.6,0,0.3-0.8
		c-0.8,0.8-0.2,0-0.3,0.8c-0.6-0.4-1-0.9-1.6-0.9c-0.1,0.8,1.4,2.6,2.1,2.9C101.9,146.8,101.5,147,102.1,147.5L102.1,147.5z
		 M120.3,125.1l-0.4-1.8l-0.6-1.1c-0.6,0.2-0.2-0.2-0.5,0.6L118,125c-0.6-0.4-0.9-1.1-1.5-1.8l-0.1,3.3l-2.5-2.1l0.2,1.2
		c0.9,0.9,0.7,1.8,1.6,2.8l1.5-0.1c0.2-1.2-0.2-0.9,0.1-1.5l0.2,1.6l1.2,0c0.9,0,3.7,0.4,4.1-0.3c0.6-0.9,0.5-1.7,1.3-2.5l0.1-1.4
		c-0.7,0.3-1.8,1.2-2,2c-1.2-1,0.3,0.9-0.3-0.3c-0.4-0.9,0.2-1-0.2-2.7C120.9,123.7,121.1,124.4,120.3,125.1L120.3,125.1z
		 M94.3,73.9c-1.6-0.1-1.4,1.3-0.5,2C94.4,75,94.6,75,94.3,73.9z M68.5,106.2c1.3,0,1.2-1,0-1C68,105.7,68.1,105.6,68.5,106.2z
		 M72,124.4c-0.1-1.2,0.4-0.5-0.5-0.8C70.6,124.7,71.4,124.4,72,124.4z M82.9,124.5c0.5-1,0.6-0.8-0.5-0.8
		C82.4,124.9,82.2,124.1,82.9,124.5z M94.1,72.9c-0.9,1.1,0.1-1-0.2,0.5c-0.2,0.9-0.2-0.1,0.2,0.4C94.7,72.6,94.3,73.3,94.1,72.9z
		 M149.6,91.7l1.1-0.1l0.1-1.1l-1.2-0.2C149.6,90.4,149.6,91.7,149.6,91.7z M161.7,69.7l-1.3,0.2l-0.1,1.2l1.3,0.2L161.7,69.7
		L161.7,69.7z M150.1,55.5c-1,0.5-1.7,1.8-0.6,2.7C150.5,57,150.3,57,150.1,55.5z M144.8,55.4c-0.7,1-0.5,1.8,0.3,2.7
		C146.3,57.4,145.6,56.2,144.8,55.4z M81.2,113l0.4-0.4c-1.7-0.3-5.6-0.9-7,0.1C76.3,113.3,79.4,113.1,81.2,113z M18.2,146.6
		c1.7,1.1,7.2,1.6,8.2-0.4c-1.7,0.2-3.5,1.2-6.3,0.5l-1.3-0.4C18.1,146.4,18.7,146.2,18.2,146.6z M91.8,62.7l3.8,0l0.3-0.7
		c-1.4-0.1-7.3-0.3-8.3,0.2C88.2,63,89.8,62.7,91.8,62.7z M152,93.4l-0.9,0.5c-1.2-1.1,0.1-0.8-1.4-1.3c-0.1,0.8,0.1,0.6-0.6,1.2
		c-0.8-0.2-0.8-0.3-1-1.3c-0.2-0.8-0.2-1.1-0.1-1.8c-0.1,0.1-0.1,0.1-0.1,0.2l-0.3,0.6c-0.1,0.3-0.1,0.5-0.2,0.8
		c-0.2,0.9-0.1,0.9-0.7,1.6c-1.1-0.3-0.9-0.5-1.3-1.6l-0.9,1.6c-1.7-0.2-0.5-0.3-1.6-0.9l0,2.1l0.1,0.9c2.7,0.2,7.3,0.7,9.7-0.2
		c0.3-1.2,0.3-2.4,0-3.6L152,93.4L152,93.4z M95.5,93.2c0.8-0.2,1.2-0.7,1.3-1.4c0-0.9-0.3,0.3,0-0.7c0.2-0.6,0.2-0.1,0.3-1.1
		c-0.6-0.6-0.1-0.9-1-1.1l0,1.7c-1.5-0.3-1.5-0.3-2.5,0.8c0.1-1.1,0.8-2.4-0.8-2.5c0.6,1,0.4,1.3-0.2,2.1c-0.3-0.5-0.1-0.2-0.1-0.7
		c0-0.6,0.3,0.1,0-0.7c-0.3-0.7-0.6-0.6-1.2-0.6c-1.2,1.8,0.1,0.8-0.5,2.1c-0.8-0.6-0.7-1.2-0.3-2c-1.5,0.2-0.9,1.5-0.9,2.6L89,90.7
		c-0.8-0.7-0.7-0.5-1.7-0.2c-0.5-1.3,0.2-1.2-0.5-1.6c-0.6,1-0.5,1.1-0.5,2.1l0.5,0.3c-0.9,0.6,0.1,1.3,0.7,1.9
		c1.4,1.5-1.3,3.3,4.3,3.2c1,0,3.4,0,3.6-1.2L95.5,93.2L95.5,93.2z M158.4,76.6l-1-1.3l1.4,4.5c0.8,0.3,1.5,0.4,2.1,0.4
		c-0.8,0-1.6,0.1-2,0.4c0.7,1.1,4,1.5,4.3-0.3c-0.4,0-1.2-0.1-2-0.1c0.6,0,1.3-0.2,2.1-0.4l1.4-4.2c-1.3,0.6-0.5,1.2-2.4,1.1
		c-1.5-1.8-0.7-2.8-1.3-4.6l-0.5,3.7l-0.6,0.3l-1.1-1.7l-0.1,1.8L158.4,76.6L158.4,76.6z M104.1,106.3l-0.1,0.9
		c-1.1,0.2-0.8,0-1,0.9c0.6,0.9,0.5,0.3,1.5,1l-1.2,0.5c-1-0.7,0.2-0.7-1.3-1.4c-0.7,1.2,0,1-0.5,1.7c-0.9,0-0.6,0-1.2-0.6
		c0.8-0.7,2-0.9,0.3-1.8c-0.1,0-0.1-0.1-0.2-0.1l-0.9-0.6c-0.4-0.2-0.6-0.4-1-0.5c0.2,1.5,1.1,2.7,1.7,4l0.8,2.3
		c2,1.1,5.6,0.6,7.9,0.2l0.9-2.5c0.3-0.7,0.9-2.1,1.3-2.4l0.3-1.6c-1.4,0.3-0.7,0.7-2.2,1.3c-0.2,0.1-1,0.1-0.5,0.9
		c0.3,0.4,0.5,0.4,1,0.7c-0.5,0.7-0.4,0.6-1.2,0.7c-0.8-0.8,0-0.4-0.6-1.7c-1.1,0.2-0.6,0.4-1.2,1.4c-0.8-0.2-0.8-0.1-1.2-0.8
		c0.8-0.4,1.3,0.3,1.4-0.8c0.2-0.9-0.4-0.8-1.1-0.8c0-1,0-1.2-0.7-1.9C104.1,105.7,104.3,106,104.1,106.3z M46.2,39.6l0.8,0.6
		c-0.3,1-0.3,1-1.3,1c-0.7-1,0.2-2.1-1.6-2l0.8,2c1.1,0.9,0.9,1.6,1.1,2.8c2.4,0.3,5.4,0.4,7.8,0c0.2-0.3,0.4-2.5,1.7-3.6
		c-0.3-0.9-0.1-0.4,0.1-0.4c-0.1-0.7,0.6-0.3-0.5-0.6C53.9,40,55,39.8,54.3,41c-0.9,0.2-0.5,0.3-1.3-0.2c-0.3-1.9,2-0.9,0.1-2.9
		c-1.9,0.7-0.5,1.1-1.3,2.4c-1.4-0.2-1.9-0.7-1.3-2c0.4-1,0.5-1.1-0.8-1.8c-1.4,1.6-0.7,0.8-0.4,2.1c0.3,1.3-0.2,1.7-1.4,1.7
		c-0.7-1.2,0-1-0.2-1.5c-0.3-1-0.2-0.8-1.3-0.9C46,38.8,45.9,38.4,46.2,39.6L46.2,39.6z M73.8,129.1c1.1-1.1,5.4-0.9,6.8-0.1
		C79.5,130.1,75,130,73.8,129.1z M82.2,125.3c-0.2-1.1,0-0.3-0.3-0.8c-0.9,0.5-1.1,0.9-2.1,1.1c-0.4-3.2,1.2-1.2,0.6-3.1
		c-1.8-0.6-0.4,2.1-2.7,2.3l-0.4-2.3c-1.3,0.5-0.3,1.1-1.3,2.4c-2-1.3-1.1-2.6-2.3-2.7l-0.4,0.4c0.4,1.3,1.3,0.4,1,2.9
		c-1.3-0.1-1.1-0.8-2.4-0.9c0.1,0.8,0.7,1.4,0.9,2.2c0.4,1.1,0.1,1.6,0.4,2.6c1.9,0.8,5.9,1.1,7.6-0.1
		C81.4,128,80.7,126.6,82.2,125.3L82.2,125.3z M59.5,57c-0.4,0.7-0.4,0.3,0,1l1.1,2.1l0.1,1.1l0.2,0.7c2.3,0.4,4.3,0.3,6.7,0
		l0.1-0.6l0-1.3c0.3-0.4,0.6-1.1,0.9-1.5c0.9-1.2,1.2-0.2,1-1.6c-1.7,0-0.7,1.9-2.5,1.2c-1-2.2,1.2-0.4,0.4-2.4
		c-1.5-0.3-1.1,1-1.8,2c-0.7-0.3-0.7-0.4-1.1-1.1c0.2-1,0.6-0.1,0.3-1.6l-1.1-0.4c-0.4,1.2,0,1.1,0.1,2.1c-0.6,0.6-0.4,0.8-1.2,0.9
		c-0.8-1,0-0.9-0.8-1.9c-2.7,0.5,0.7,1-0.8,2.5C59.8,58.1,60.3,57.8,59.5,57L59.5,57z M92,75.8c-0.9,0.8-0.6,0.5-1-0.2
		C91.4,75.3,91.6,74.7,92,75.8z M91.2,74.3c0,0,0.3-0.6,0.4,0.1C91.7,74.9,91.2,74.9,91.2,74.3z M90.7,77.1l0.6-0.5l0.9,0.3
		c-0.1,0.3,0.5,0.8-0.6,1C90.9,78,90.7,77.1,90.7,77.1z M58,140.8L59,142l1.2-0.5l-0.1-1.4l-1.2-0.3L58,140.8z M66.7,140.1l0,1.4
		l1.1,0.4l1-0.9l-0.7-1.3L66.7,140.1L66.7,140.1z M78.8,106l-1.5,0c-0.1,1.1,0.1,1.3,1.3,1.2C78.6,107.2,78.8,106,78.8,106z
		 M64.3,105.3C64.4,102.8,61.8,105.5,64.3,105.3z M227.9,7.7l0.7,0.9c0-0.1,0.1-0.2,0.1-0.2c0,0,0.1-0.2,0.1-0.2l0.6,0.6l-1.3,0.1
		L227.9,7.7L227.9,7.7z M60.5,4.9L60.5,4.9c0.1,0,0.2,0,0.3,0.1C61,4.9,61.2,5,61.2,5c1.2,0.9,0.3,0,0.4,0.8
		c-1.4-0.1-0.3,0.4-1.2-0.6c-0.2,0.5-0.4,0.5-0.9,0.7c0-0.1,0.1-0.4,0.1-0.3c0,0,0.1-0.2,0.1-0.3c0-0.1,0.1-0.2,0.1-0.2
		c0-0.1,0.1-0.1,0.1-0.2c0.1-0.1,0.2-0.2,0.3-0.6c0.6,0.2,0.3-0.5,0.5,0.3c0,0.2,0.1,0.3,0.1,0.4C60.8,5.2,60.6,4.9,60.5,4.9
		C60.5,4.9,60.5,4.9,60.5,4.9z M95.5,4.9l-0.4,0.3c-0.4-1-0.4-0.2-0.2-1.3l0.7,0.3C95.6,4.2,95.5,4.9,95.5,4.9z M95.1,5.2
		c0.2,0.8,0.4,0.7-0.1,1.3C94.5,5.8,94.3,5.7,95.1,5.2z M32.2,9.2c2.2-0.5,6.1-0.8,8.1,0c-0.2,0.2,0.2,0.1-0.6,0.4
		C38.8,10,33.3,10.3,32.2,9.2z M115.2,4.3c-0.9,0.2-0.6,3.6,0.2,4.1c-0.2,1.4-0.7,2.2,1.2,2.4c1.4,0.2,3,0.1,4.5,0.1
		c1.8-0.2,3.2-0.3,1.9-2.5c1.3-0.6,0.9-2.7,0.7-3.8l-0.9,1c-0.6-0.9,0.2-0.9-1.1-0.9c0.8,0.7,0.6,0.7-0.2,1.8c0,0-0.5-1.1-0.5-1.2
		c-0.3-1.3,0-0.8,0.4-1.6c-1.1,0.2-0.7,0.4-1.2,1.3l-0.7-1.9l-0.9,1.1c-1.2-0.6,0.1-0.4-1.1-0.5c0.5,1.2,0.7-0.6,0.4,1.3
		c-0.1,0.5-0.5,1.2-0.7,1.6c-0.8-1.4-0.9-0.9-0.1-2c-1.3,0-0.7,0.1-1.1,1.2C115.5,5.2,115.1,4.8,115.2,4.3L115.2,4.3z M7.3,58.1
		l0.5,0.1L7,59c-1-0.6-0.7-0.6-1.4-1.6l-1,1.6l-1.1-0.5l0.1-0.8c0.5-0.2,2.4,0,0.5-2.5c-1.1-1.4-1.7,0-2.5,1.2l0.4,1
		c0.4,0.2-0.4,0.2,0.9,0.3c0.1,0.9,0.2,1.2,0.2,2c0,0.7,0,1.5,0,2.3l10.2,0l0-2.3l-0.6-0.4c0.9-0.9,0.6-0.3,0.7-1.8l1.1,0
		c0.3-1.2,0.3-0.7-0.2-1.6c-1.3-2.2-1.7-1.1-2.6,0c-0.2,0.2-0.2,0.1-0.4,0.5l0.3,1.1l1,0c0,0.8,0,0.9-0.6,1.4
		c-0.9-0.5-0.7-0.7-1.2-1.6c-0.8,0.7-0.4,1-1.4,1.6c-0.8-0.3-0.4-0.2-0.9-0.8l1.1,0.1c0.1-0.2,0.3-0.7,0.3-0.8
		c0.3-0.5,0.3-0.3,0.4-0.7c0.4-1.1,0.2-0.6-0.4-1.3c-0.6-0.5-0.3-0.7-0.8-1.1c-0.2-0.1-0.3,0.1-1-0.7c-1.2,1.1-0.6,0.2-1.5,1.4
		l-0.2,0.3c-1,1.2-1.2,0.5-0.1,2.1c0.1,0.2,0.2,0.4,0.3,0.7L7.3,58.1L7.3,58.1z M21.8,121.1c0.2,0.6-0.3,0.3,0.5,0.6
		c-0.2,1.7-2,2-3.2,3c-2.5,2.1-0.7,2.6-0.3,3.8l-0.5,0.2c0.4,0.9,0.2,1,0.1,1.9c1.2,0.2,7.3,0.2,8.4-0.1c-0.3-1.2,0.2-1.5-0.3-2.4
		c0.9-0.9,0.8-0.3,0.8-1.8c-1.3-1.5-2.3-2.7-4.3-3.6c-0.1-1.7,0.7-1.1,0-2.1C22.1,120.5,22.8,120.2,21.8,121.1L21.8,121.1z
		 M186.5,8.8c0.4-0.7,0.7-0.6-0.2-1C185.8,8.6,185.8,8.2,186.5,8.8z M140.4,142.8c0.3,0.2,2.9,2.5,3,2.7l-0.5,0.4
		c0.4,1.5-0.2-0.1,0.1,1.4c2.2,0.7,5.3,0.6,7.5,0c0-0.3,0-0.3,0-0.5c-0.1-1.2,0.2-0.6-0.4-1.1c0.2-0.9,1.5-1.8,2.4-2.1
		c0.1-1,0.5-0.7,0.6-1.9c-0.8,0.4-1.4,1.3-2.4,1.7c-0.1-1.4,0.4-1.8,0.7-2.9c-2.1,0.4-1.5,2.3-2.3,3.6l0.2-3.3
		c-1.7,1.1-0.9,2.7-1.9,3.3c-0.4-1.6,0.7-4.1-1-5.2c0,1.4,0.2,3.9-0.5,5c-0.5-1-0.4-2.3-1.6-3l0.1,3.2c-0.6-1.2-0.4-3.5-2.2-3.6
		c0.4,1.1,0.9,1.9,0.8,3.1l-2.4-1.9L140.4,142.8L140.4,142.8z M156.1,144.1l0.3,0.2c0.3,1.9-0.1,1.2-0.1,2.4c0.2,0.1,0.6,0.1,1,0.1
		c-0.4,0.1-0.8,0.2-1.1,0.3c0.2,0.4-0.5,0.6,2,0.6l4.9,0c1.1,0,1.4,0.2,1.9-0.5c-0.3-0.2-0.8-0.3-1.3-0.4c0.5,0,0.9-0.1,1.2-0.1
		c0.1-1.3-0.3-0.9,0.1-2.6c0.4-0.9,0.5-1.3,1.3-2l0.4-1c-1,0-0.9,0.1-1.5,0.8c-0.9,1.1-0.1,0-1.4,0.9c0.2,0.7,0.7,0.8-0.3,1.1
		c-0.9-1.3,0-0.8,0.2-2.1c-1.5,0.4-0.2,1-2,0.9c0.4-2.1,0.4,0.5,1.2-1.2c-0.4-1.5-0.5-0.5-1.2-1.1c-0.6-0.5,0.1-0.7-1.2-1.3
		l-0.5,1.5c-1,0-0.6-0.2-1.3,0.4c0,1-0.2,0.7,0.4,1c0.5,0.3-0.1-0.8,0.8,0.4c-0.7,0.5-0.4,0.5-1.2,0c-0.9-0.6,0.3-0.3-0.9-0.7
		c0.1,1.4,1,0.7,0.1,2.1c-1-0.2-0.4-0.8-0.4-1c0-0.1,0.1-0.1,0.1-0.2c-0.6-0.4-0.6-0.3-0.9-0.5c-0.3-0.2-0.1-0.1-0.5-0.5
		c-0.6-0.7-0.4-0.7-1.4-0.8C155.2,142.3,156.1,142.8,156.1,144.1L156.1,144.1z M202.9,126.8c-1.5-0.5-1.2-1.8-0.7-3.1
		c0.9,0.2,1.2,0.3,1.2,1.4C203.5,126.1,203.4,126.1,202.9,126.8L202.9,126.8z M201.1,122.1l0.1,0.8l1,0.1c-1.1,0.7-1.1,0.2-1.5,1.7
		l-0.6-0.7l0.1,1.4l-0.8-0.9l-0.9,1.5l-1.5-0.6l0.5,2.1l0.3,2.1c3.1,0.5,6.5,0.7,9.6-0.1l0.2-2l0.5-2.1c-0.9,0.4-0.6,0.4-1.5,0.3
		l-0.7-1.3l-0.9,1.1l0.1-1.4l-0.6,0.7c-0.5-1.6-0.5-1-1.6-1.6c0.8-0.4,0.3,0.2,1.1-0.5c-0.4-0.9-0.2-0.5-1.1-0.6
		c0.2-0.8,0.1-0.4-0.1-1.3c-0.8,0.4-1,0.5-0.6,1.3L201.1,122.1L201.1,122.1z M151.2,42.2c0.9-1.2-0.9,0.4-0.1-1.3
		c0.6-1.2,0.8-1.1,0.4-2.7c-0.3,0.3-0.8,1-1,1.4c-0.2,0.7,0,0.9-1.1,1.3c-0.1-1.7,0.8-1.9,0.2-3.3c-1.7,1.8,0.2,1.6-1.5,2.8
		c-0.2-1.8,0.6-2.4-0.1-3.8c-1.2,1.4-0.3,1.9-0.9,3.6c-1.1-1.4,0.5-2.4-1.1-3.6c-0.4,1.9,0.1,2,0,3.8c-1.5-1.1,0.1-1.1-1.5-2.8
		c-0.9,1.5,0.4,1.4,0.1,3.2c-1.9-0.4,0-1.3-2-2.5c-0.4,1.6-0.1,1.2,0.4,2.4c0.7,1.7-1.1,0.5,0.1,1.6l0.1,1.7c-0.1,1-0.2,0.3,0.1,0.8
		L145,45l5.9,0C150.9,43.5,150.6,43.7,151.2,42.2L151.2,42.2z M185.7,60.4c1.3,0,2.6-0.2,3.9-0.2c1.4,0,2.8,0.2,4.1,0.2
		c-0.4,1-2.9,0.7-3.9,0.7C188.6,61.1,186.4,61.3,185.7,60.4z M102.1,75.9c0.9,0.5,0.4,0.4,1.5,0.5c-0.5-0.5-1.1-0.9-1.2-1.8
		c-0.1-1.3,0.5-1,1.1-1.9l-0.6-0.1c-0.3-0.7-0.4-1.2-1-1.4c-0.5,0.7-0.3,0.6-0.2,1.4c0.6-0.7,0.1-0.5,0.6-0.2
		C101.8,74.3,101.3,73.2,102.1,75.9z M162.9,76.7c0.6-1,0.4-0.8-0.1-1.5C162.1,76.3,161.9,76.2,162.9,76.7z M212,39.9
		c0.2,1,0.7,1.6,1.2,2.5c-0.2,0.9-0.2,1.2,0.1,2l6.9,0.1c0.4-1.1,0.4-1.1,0.2-2.1c0.3-0.5,0.6-1.2,0.9-1.7c0.7-1.1,1.3-0.7,0.7-1.7
		c-1.6,0.3,0.1,0.6-1.2,1.1c0.1-0.2,0.2-0.4,0.2-0.7c0-1.3,0.3-0.3-0.3-0.9l-0.2,0.4c-0.4-0.8,0.2-0.6-0.9-1.1
		c-1.8,0.9,0.6,0.6-1.5,2.4c-0.6-0.8-0.8-0.9-0.6-1.8c0.1-0.3,0.7-1.3-0.4-1.4c-1.2-0.1-0.9,0.8-0.6,1.3c0.3,0.8,0.4,0-0.3,1.3
		c0-1.5-0.5-1.4-0.8-2l-0.3,1.6c-0.3-0.3-0.1-0.2-0.3-0.6l-0.2-0.4c-0.2-0.3,0.1-0.1-0.3-0.6c-0.9,0.1-0.3-0.1-0.8,0.4l-0.8,1.3
		C212,40,212.8,39.6,212,39.9l0-1l-0.9,0C211,40,211,39.9,212,39.9z M211.5,72.5c0.1,1.6,0.3,1.3,0.5,2.4c-1.3-0.4-0.1-0.5-1.3-1.2
		c-1,0.7-0.4,0.3,1,3.2c0.8,0.9,0.5,1.3,1.4,1.8c1.3,0.7,4.1,0.6,5.5,0.1c0.6-0.2,0.5-0.1,0.8-0.6l0.7-1.3c0.2-0.4,0.4-1,0.8-1.6
		c0.5-0.6,1.1-0.7,0.2-1.4c-1.2,0.6-0.1,0.6-1.3,1.2c0.1-1.2,0.7-0.8,0.5-2.7c-1.2,1-0.9,1.4-1.5,2.1c-0.7-1.2,1.3-1-0.3-1.9
		c-1.1,0.7,0,0.4-0.8,1.6c-1-0.6,0.1,0.5-0.3-2.7c-0.7,0.6-0.6,1.8-0.9,2.6c-1-1.4,0.9-1-0.8-1.9c-0.9,1.3,0.3,0.6-0.5,1.9
		c-0.5-0.9,0-1.3-1-2.3c-0.2,1.2,0.1,2-0.1,2.5c-1.2-0.4,0.1-0.5-0.9-1.5c-1.5,0.9,0,0.5-0.2,1.9C211.8,73.8,213.9,74.6,211.5,72.5z
		 M170.2,93.3c-0.2,0.6,0,1.6,0.3,2.3c0.9,0.1,1.4,0,2.2,0.1c1.7,0.1,0.9,0.5,2,0.6c1.1,0,0.7-0.4,2-0.6c0.8-0.1,1.7,0,2.5-0.1
		l0.3-2.4l0.6-2.9c-0.4,0.4-0.8,0.9-1.2,1.3c-1.1,0.9-0.9,0.7-1.1,0.5c0-0.3,0.8-0.2-0.5-2.1c-1.3,1.9-0.5,1.8-0.5,2.1
		c-0.7,0.4,0,0.1-0.4-0.1c-1.1-0.4-0.4,0.3-0.9-0.3c0.2-0.7,0.1,0.2,0.7-0.8c-0.2-0.6-1-2.3-1.4-2.6c-0.2,0.4-1.2,2.2-1.3,2.6
		c0.3,0.5,0.4,0.6,0.8,0.8c-0.9,0.6,1-0.5-0.4,0.1c-1.1,0.5,0.3,0.4-1,0.5c0.2-1.1,0.4-1.2-0.6-2.2c-0.7,1.6-0.7,0.6-0.4,2.2
		c-1.1-0.1,0.2-0.4-0.9-0.2c0,0-0.1,0-0.1,0.1c0,0-0.2,0.1-0.2,0.1c0.3-1-0.3-1.3-1.1-2L170.2,93.3z M229.1,37.9c1.2,1.4,0,1,1,1.8
		c0.9-1.1-0.1-0.5,1-1.8L230,37L229.1,37.9L229.1,37.9z M186.3,7.5c0.9-1.1,0.6-1.9-0.3-2.9C185.4,5.6,185.4,6.6,186.3,7.5z
		 M183.3,40.4c0.2-1.3,0.4-1.1-0.8-1.5C182,39.9,182.4,40.2,183.3,40.4z M212.3,89.2c-0.6,0.8-0.4,0.2,0,0.9
		C212.9,88.8,212.5,89.7,212.3,89.2z M105.9,144.6c0.2,0.4,0.7-0.1-0.1,0.9C105.1,144.9,105.1,145,105.9,144.6z M157.3,56.2
		c0.6,0.4,1.2,1.6,0.7,2.4c-0.8-0.6-0.3-0.4-0.9-1.2C156.7,56.9,156.1,57.1,157.3,56.2z M162.7,55.8c0.5,1.3,0.3,0.5-0.2,1.3
		c-0.5,0.9,0.3,0.4-0.7,1c-0.4-0.3-0.6-0.1-0.3-1.7c0.1-0.6,0-0.2,0.3-0.7C161.8,55.8,162.7,55.8,162.7,55.8z M159,57.3
		c-0.6-1.1-0.6,0-0.4-1.3c0.5-0.5,0.6-0.3,1.3-0.1l0,2.1C158.9,58.1,159.3,57.9,159,57.3z M156,55.5c-0.3,2,0.8,2.6,1.5,4l6.4-0.1
		c0.8-1.1,1.7-2.2,1.7-3.8c-0.9-0.5-0.5-0.7-1.6-0.2c0.3,1.5,0.2,0.2,0.8,1.6c-1.3,1-0.5,0.8-1.4,1.6c-0.6-1.1,1.1-1.7,0.4-3.8
		c-1.2-0.8-2-0.6-3,0.4C158.5,53.4,159,54.8,156,55.5L156,55.5z M136.9,95.2c-0.5-0.6-0.3-0.2,0-0.7
		C137.2,95.1,137.2,94.5,136.9,95.2z M136.1,90.4c-0.1,0.8-0.2,1,0.3,1.8l0,1.3c-0.3-0.3-0.1,0-0.4-0.5c-1-2.2,0.4-0.5-1.7-1.8
		l0.3-1.2C136.2,90.1,134.3,90.4,136.1,90.4z M135.1,93.9l-0.3,0.8c-1.7-2.1-1.7-2.4-3.5,0c-0.7-1.1,0.2-0.5-0.7-1
		c-0.2-0.9-0.4-0.8,0.2-1.6c1,0.2-0.2,0,0.9,0.6l0.7-0.8c2,0.1,0.8-0.1,1.9,0.8c1-0.6-0.1-0.4,0.9-0.6
		C135.8,93,135.7,93.1,135.1,93.9L135.1,93.9z M132,96c0.2,1.3,2,0.2,2.6,0c0.9-0.2,2.7-0.1,3.7-0.1l0.1-1.9l0.4-0.2
		c-0.9-0.6-0.8-0.6-0.3-1.7c1,0.2-0.1,0.3,1.2,0.6c0.5-2-1.8-1.6-1.9,0.6l-0.8,0.2c0.4-1.6,1.5-3.6-0.9-3.1c-0.1-1,0.1-0.6-0.5-1.3
		c-2,0.7-1,0.8-1.8,2.2c-0.4-0.1-0.4,0.4-0.3-0.7c0.2-1.3,0.7-1.1,0.2-2.2c-2.3-1.1-1,1.7-0.9,2.4l-0.2,0.6l-0.7-2
		c-1.2-0.2-0.4-0.3-1.5,0c-0.5,2.3,0.8,0.5,1.2,0.3l0.3,1.4c-2.4,1.1-1,0.3-2.2,2.4l0-0.8c0.2-1.3,0.7-0.9,0.3-2.2
		c-0.8-0.4-0.7-0.2-1.5,0l0.4,2.4c-0.2,0.8,0.2,0.3-0.5,0.5c-0.2-0.8-0.1-1.3-0.7-1.8c-1.1-0.8-1.4-0.2-1.5,0.8
		c0.6,0.1,2.1-1.5,1.5,0.9c-0.2,0.9-0.4-0.2-0.1,1c0.1,0.5,0.2,1,0.3,1.5L132,96L132,96z M104.8,77.9c0.2-0.8,0-0.4,0.5-0.6
		c0.3-0.1,0.1,0.2,0.7-0.3C106,78,105.8,78.3,104.8,77.9z M101.9,76.4c-0.3,0.9-0.3,0.4-0.8,1.2l0.4,0.5c-0.2,0.5-0.4,0.6-0.3,1.2
		c1.2,0.9,6.9,0.7,8.3,0.1l-0.1-1l0.3-1l-1.2-1.1c-0.8,0.5-0.8,0.5-1.8,0.5c-1.3-1-0.5-1.1-1.2-2.3c-0.6,1.1,0,1.3-1,2.2
		C103.2,77,103,76.7,101.9,76.4z M105.3,73.2c-0.3-0.4-0.3,0.3-0.3-0.6c0-1.1,0.2-0.5,0.4-0.8C106.5,72.7,105.3,73.2,105.3,73.2z
		 M104.5,71.8c-0.2,1.3-0.4,2.3,1.1,2.6l0.7-0.8c-0.5,1-0.4,1-0.2,2.1c0.4-0.9,0-1.1,1-1.5l0.4,1.1c0.2-1,0.3-0.8,0-1.8
		c-0.9-0.3-0.3-0.3-1.2,0.1l0-0.8c-0.1-0.8-0.5-1.6-1.1-2.1L104.5,71.8L104.5,71.8z M37.3,109.6l2.3-0.3l-1.1-2l-0.7,1.3l-0.5,0.2
		l2.3,0.5L37.3,109.6z M39.2,110.7L39.2,110.7L39.2,110.7L39.2,110.7L39.2,110.7L39.2,110.7L39.2,110.7L39.2,110.7L39.2,110.7
		L39.2,110.7L39.2,110.7L39.2,110.7L39.2,110.7L39.2,110.7L39.2,110.7L39.2,110.7L39.2,110.7L39.2,110.7L39.2,110.7L39.2,110.7
		L39.2,110.7L39.2,110.7L39.2,110.7L39.2,110.7L39.2,110.7L39.2,110.7L39.2,110.7L39.2,110.7L39.2,110.7l-0.1-0.1l0,0l0,0l0,0l0,0
		l0,0l0,0l0,0l0,0l0,0l0,0l0,0l0,0l0,0l0,0l0,0l0,0l0,0l0,0l0,0l0,0l0,0l0,0l0,0l0,0l0,0l0,0l0,0l0,0l0,0l0,0l0,0l0,0l0,0l0,0l0,0
		l0,0l0,0l0,0v0l0,0l0,0l0,0l0,0l0,0l0,0l0,0l0,0l0,0l0,0c0.7-0.3,0-0.2,0.9-0.1L39.2,110.7L39.2,110.7z M20.7,20.5
		c-1,0.1-0.9-0.1-1.1,0.6l0,3.8c-0.2-0.6-0.4-0.8-0.5-1.6c-0.1-0.7-0.2-1.6-0.6-2c-0.7,1.3-0.3,3.3-0.4,3.9
		c-0.6-1.2-0.4-2.1-0.8-2.6c0,0-0.1-0.1-0.1-0.1c-0.8-1,0.7,0.2-0.3-0.2c-0.5,1.3-0.4,1.4-0.1,2.8l0.2,0.8l0.1,0.7l0.1,0.9
		c0.5,0.6,0.3,0.5,1.3,0.7c0.6,0.1,1.2,0.1,1.8,0.2c1.9,0.1,5.2,0.3,6.9-0.7l0.1-1.6c0.1-1.1,0.7-2.1,0.1-2.7l0.4-1.3l-1.3,0.1
		l0.3,0.9c-0.5,1.3,0.1,1-0.8,2.2c0-1.2,0.3-2.7-0.4-3.9l-0.4,1.6c-0.1,0.4-0.2,1-0.4,1.4c0-0.1-0.1-0.1-0.1-0.2
		c-0.3-1.1-0.2,0.4-0.1-1.2c0.1-1,0.1-0.3,0-1.1c0,0,0-0.1,0-0.1c0-0.6,0.3-0.3,0-0.7c-0.4-0.6-0.5-0.3-1-0.3
		C23,22,24.1,23.1,23,24.4c-0.5-1.6-0.4-4.2-0.9-5.7c-0.7,0.3-0.4,0.3-0.4,1L21,24.4C20.4,23.2,20.8,21.8,20.7,20.5z M7.4,111.5
		l0.4-0.6c1.3,0.5,1.3,1.9-0.1,2.3l-0.4-0.7C7.3,112.5,7.4,111.5,7.4,111.5z M6.7,106.1c1.1,1.7,0.2,0.6,0.3,1.9
		c0.1,1,1,1.1,1.7,0.2c-0.1-0.6-0.3-0.9-0.3-1.1c0.1-0.9,0.3,0.1,0.3-1.4l-1-0.5C7.3,105.6,7.2,105.7,6.7,106.1z M7.8,112.3
		c0.8-0.4,0.5-0.4,0.2-1C7.6,111.5,7.1,111.4,7.8,112.3z M227.4,42.9c-0.6-0.3-0.2-0.2-0.6-1l-0.5,1.3c-0.7-1,0.3-1.9-0.3-2.7
		l-0.6,0.1c0,0.6,0.2,1.2,0.2,1.9c-0.1,1.3-0.4,0.8-0.2,2.3c2.1,1,7.4,1,9.5,0c0.3-1.4-0.2-1-0.3-2c-0.1-0.5,0.2-1.5,0.2-2l-0.6-0.2
		c-0.5,1,0.4,1.8-0.3,2.8l-0.6-1.5l-0.5,1.1c-0.5-1.1-0.1-2.6,0.2-3.6l-0.6-0.6c-1.4,1,0.2,2.6-0.5,4.1l-0.6-1.3l-0.6,0.9l-0.6-2
		l-0.7,2.1l-0.6-1.1l-0.6,1.3c-0.4-1.3-0.1-0.2,0-1.7c0-0.4,0-0.3,0-0.6c0.1-1.2,0.8-0.8-0.4-1.6C226.3,39.7,228.1,40.6,227.4,42.9
		L227.4,42.9z M225.6,9.2c0.5,0.6,0.7,0.6,1.2,0.8l7.1,0.5c-0.1,0-0.4-0.1-0.6-0.2c-0.7-0.3-0.3,0-0.6-0.4c1.3-0.8,0.8,0.2,1.1-0.5
		c0-0.1,0.1-0.1,0.2-0.1C231.4,8.9,228.4,9.5,225.6,9.2z M87.4,44.1c2.1-0.1,6.1-0.7,8,0.1c-1.1,0.6-6.5,0.4-7.2,0.2
		C87.3,44.2,87.9,44.4,87.4,44.1z M114.6,59.2l0.6,1l8,0c0.1-1.3,0.5-3.1,1.9-3.5l0-1c-0.6,0.2-1.7,1-2.6,1.5c-2,1.2,0.2,2-2,2
		c-0.9-1.1,0.3-0.8-0.5-2.7c-1.1-2.4,0.4-1.3-0.5-2.7l-0.7,0c-0.8,1.1,0.3,0.8-0.6,2.6c-0.9,1.9,0.2,1.5-0.4,2.6
		c-1.7,0.9-0.4-0.9-2.2-1.8c-1.2-0.6-1.8-1.5-2.5-1.1C113.2,57.1,114.8,57.1,114.6,59.2L114.6,59.2z M162.4,8.7
		c-0.3-0.6-0.4-0.4,0.2-0.5L162.4,8.7z M179.7,77.4c-1.6-0.3-3.5-0.1-5.2-0.1c-1,0-4.2-0.5-4.5,0.4c0.4,0.7,0.2,0.2,0.1,0.7
		c0,0.1,0,0.1,0,0.2l-0.2,0.8l9.7,0C179.5,78.6,179.2,78.2,179.7,77.4L179.7,77.4z M206.3,43.5c-1.6,0.6-5.6,0.5-7.2,0.1
		c0.3-0.2-0.3-0.1,0.6-0.4C201.2,42.8,204.9,43.1,206.3,43.5z M9,112.9c1.4,0.1,1,0.4,1.4-0.8c0.8,1,0.1,0.5,0.9,0.4l0-1.1
		c-0.2,0-0.7,0.1-0.7,0.1c0,0-0.1,0-0.2,0C10.4,111.5,8.5,110.1,9,112.9z M103,125.2l-0.3,0.2c1.2,0.9,0.1-0.3,0.5,1.3
		c0,0,0,0.1,0,0.1c0.1,0.3,0.5-0.6-0.4,1L103,125.2L103,125.2z M127.8,57l0.1,1.7l0.5,0.4c-0.5,0.7-1.2,0.9,0.2,1.5
		c0.7-1.1,0.2-0.4,0.5-1.5l0.9,0c0.1,0.3,0.2,1.2,0.2,1.3l-1.6,0.2l-0.1,0.2c-1.1,0.1-0.5,0-0.8,0.5c0.8,0.6,10,0.6,11,0
		c-0.4-0.9,0.2-0.3-0.6-0.4c0.4-1.7,0.9,0,0-1.8l0.5-0.5c0-0.5,0.1-1.2,0.1-1.7c0-0.1-0.1-0.7-0.1-0.7c-0.3-0.9,0.3-0.3-0.6-0.8
		c-0.5,1.6,0.1,0.4,0.1,1.8l-1.1,1.2c-0.8-0.4-0.9-0.6-1.6-1.3l0.6-1.3l-1.1-1l-1,1l0.6,1.2l-1.5,1.4l-1.5-1.5l0.7-1.1l-1.2-0.9
		l-1,0.9l0.7,1.2c-0.7,0.6-0.8,1-1.6,1.4l-1.2-1.2c0-1.3,0.4-0.1,0.3-1.4l-0.8-0.4L127.8,57L127.8,57z M107.4,24.4l-0.3,0.7
		c-2.6-0.3,0.2-1.8-1.5-3.3c-1,2,0.3,1.7-0.5,3.1c-1.6,0.5-1,0-1.6-0.6c0.3-1.3,0.6,0.2,1.2,0.4c0.9-1.6-1-1-0.9-2.4
		c0.1-0.5,0.5-0.9,1-1c1.1-0.2,1.2,0.4,1.3-0.1c0.7,0.3,1.1,0.6,1.2,1.3c-0.7,1.1-1.1,0.2-1,2C107.1,24.2,106.6,24.4,107.4,24.4z
		 M137.3,145.6c0.9-1,0.9-2.2,0.8-3.6c-1.1-0.9-0.9-1.1-2.5-0.8c-0.5,0.2-0.3,0.1-0.8,0.2c-0.7-0.9-2.3-0.9-3,0l-0.8-0.2
		c-1.4-0.3-2.1,0-2.6,1.3c0,0.9,0,2.5,0.7,3l-0.1,1.7c1,0.4,2.5,0.3,3.5,0c0.5,0.7,1.1,0.6,1.6,0c0.8,0.2,2.5,0.3,3.1,0L137.3,145.6
		L137.3,145.6z M90.2,4.2L90.2,4.2L90.2,4.2L90.2,4.2L90.2,4.2L90.2,4.2z M90,4L90,4L90,4L90,4C90,4,90,4,90,4z M90,4L90,4L90,4z
		 M90.2,4.2L90.2,4.2L90.2,4.2z M211.3,94.4c0.9,1.3,7.1,0.9,8.2,0.6c0.9-0.2,0.6,0,0.9-0.5C219,93.4,212.8,93.6,211.3,94.4z
		 M92.1,125.7c0.9-1.1-0.2-0.3,1.8-2.3c1.4-1.3,0.4-0.6,0.5-0.9C92.8,122.8,92,124.2,92.1,125.7z M216.6,57.5
		c-0.3,0.9,0.2,1.3,0.8,1.8c0.5-0.5,0.1,0,0.5-0.7c0.5-0.8,0.3,0.1,0.5-1.1L216.6,57.5z M176.7,75.3l-1.5,0c0.1,0.9,0.3,0.6-0.1,1.4
		l1.6,0.1C176.4,75.8,176.6,76.3,176.7,75.3z M152.6,91.7c0.8-0.9,0.6-0.6-0.3-1C152,91.5,151.8,91.1,152.6,91.7z M4.8,26.1l0.5,1.7
		l1.1,0.1c0.4-1.5-0.2,0.5-0.1-0.6c0.9-0.1,1.6-0.2,2.6-0.1c1.4,0.1,0.9,0.3,2.1,0.6l0.4-1.5c1.3-0.1,1.8-1.4,1.8-2.6l-1.5,0.2
		l0.3-2.2L10,23.4l-0.5-2l0.9-0.6c-1.4,0.1-1.3,0.7-1.2,2C9.3,24.6,9.3,24,9,25.5l-0.3-0.1c0.5-2.5,0-2.5-0.4-4.7
		c-1.3,2.1-0.5,2.9-0.6,4.9c-1-1.8,0.4-4.2-1.3-4.3c0.5,1,1,0.3,0.1,2.2l-1.9-2l0.4,2.3l-1.6-0.4C3.3,24.7,3.8,25.9,4.8,26.1z
		 M142.3,91c0.2,0.6,0,0.4,0.6,0.6c0.6-0.7,0.3-0.1,0.2-0.8C142.5,90.7,143,90.4,142.3,91z M53.5,8.3c0.6-0.4,0.1,0.3,0.5-0.7
		c0.1-0.3,0.1-0.6,0.3-1c0.3-0.8,0.4-0.8,0.7-1.9c-1.2,0.1-0.7,0.8-1.5,1.9l-0.3-0.9l-0.7,0.7c-0.2-1.5,0.5-1.3-0.4-2.6
		c-0.7,0.9-0.5,0.8-0.6,2c-0.8,0.1-0.1-0.4-1.1-0.4c0,0-0.1,0-0.1,0l-0.2,0c0.1-1.3,0.5-1.4-0.5-2.5c-0.9,1.2-0.6,1.2-0.4,2.5
		c0,0-0.1-0.1-0.1,0c-0.3,0.9,0.3-0.5-1,0.2c-0.6,0.4,0.3,0.1-0.4,0.2c-0.2-1.3,0.2-0.8-0.6-2c-1,1.2-0.1,1-0.4,2.5L46,5.7l-0.4,1
		c-0.7-1-0.4-1.3-1.2-2c-0.3,0.5,0.4,2.8,0.9,3.5c0.1,1.7,0.9,1.5,2.5,1.6c1.6,0.1,2.7,0.1,4.4-0.1l1.4-0.4
		C53.5,9.4,53.5,8.3,53.5,8.3z M147.8,129l0.9,0l0,0.9l-1,0L147.8,129L147.8,129z M145.7,129l1-0.1c-0.2,0.8-0.2,0.2,0,0.9l-1.1,0
		C146.1,129,145.8,129.2,145.7,129L145.7,129z M7.2,7L6.4,7L6.3,4.6C4.9,5.3,6.6,4.7,6,7.2C5.3,7,5.4,6.9,4.9,6.2
		C4.6,6.8,4.9,7,4.4,7.7c-1.3-0.6-0.1-1-1.1-1.9l0.3,2.8c0.1,1.5,0.1,1.5,0.6,1.5C4.7,10.6,4,10.3,5,10.6c2.2,0.3,4.8,0.5,6.9-0.5
		c0.1-0.5,0.1-0.9,0.2-1.4l0-1.1c0.1-1.5,0.8-1,0.4-1.8c-0.9,0.8-0.1,1.2-0.9,1.9c-0.8-0.7-0.4-0.1-0.6-1.5
		c-0.6,0.7-0.3,0.7-1.2,1.1C9.5,5.7,10.4,5,9.7,4.6C9,5.3,9.7,5.6,9.1,7.1C8.5,6.9,8.1,5.9,8,5.2C8,4,8.5,3.7,8.8,3l-1-0.6L7,3
		l0.4,0.8C8.1,5.1,7.6,5.6,7.2,7z M104.9,111.6c-0.1,0-0.5,0.1-0.5-0.4c0.1-0.3,0.5-0.2,0.8-0.1
		C105.2,111.2,105.6,111.3,104.9,111.6z M159.8,53.2c1.4,1.9-0.2,0.5,1.1,1.4c0.3-0.5,0.5-0.8,0.8-1.4l-0.8-1
		C160.8,52.2,159.8,53.2,159.8,53.2z M157.7,59.9l0.2,1.2c1.2,0.2,2.2,0.2,3.4,0.2c1.9,0,2.3,0.3,2.4-1.5
		C162.1,59.4,159.3,59.4,157.7,59.9z M215.2,109.5l-0.1,2l1.5,0.1l-0.1-2.1C216.6,109.5,215.2,109.5,215.2,109.5z M177.6,76.7
		l1.5,0.1c-0.3-0.6-0.2-0.5,0-1.2l-1.3-0.1C177.8,75.9,178,76.1,177.6,76.7z M172.7,76.7l1.6,0.1c-0.7-0.9-0.1-0.4-0.2-1.3l-1,0
		C172.8,76.3,173.3,76,172.7,76.7z M156.1,73c-0.5,0.6-0.4,0.5,0.1,1.2C157.8,73.8,157.2,72.7,156.1,73z M165.3,73
		c-0.4,0.6-0.4-0.1-0.1,1l1.1,0.1C166.4,73.1,166.2,72.7,165.3,73z M91.7,42.4c0.3-0.6,0.1-0.1,0.1-0.7c0.3-2.9,0.7-2.7-0.4-4
		c-0.8,1.2-0.7,0.8-0.5,3.1l0,0.4c0.1,0.5-0.1,0.4,0.3,0.9c0.1,0.1,0.2,0.1,0.2,0.2C91.4,42.3,91.6,42.3,91.7,42.4z M133,145.2
		l1-0.1l-0.6-1.7L133,145.2L133,145.2z M187.4,124.9c0.8,1,1,1,1.8,1.7c0.9-1.1,0.5-0.5,1.7-1.3c0.2-0.8,0.5-0.9-0.1-1.3l-0.3-0.6
		c-1.4,0.6-0.3,0.5-1.3,1.3c-0.7-1-0.1-0.9-1.3-1.2C187.2,124.2,187.3,123.9,187.4,124.9L187.4,124.9z M172.3,112.1
		c0.6,0.5,0.6,0.5,0.2,1.1C171.8,113,171.5,112.9,172.3,112.1z M87.7,7.4c-0.6-0.6-0.4-0.6,0.1-1.1C88,7,88.2,6.5,87.7,7.4z
		 M188.5,127.2c-0.7-1.1-0.4-0.7-1.3-1.4c-1-0.9-0.2-1-1.2-1.6c-1.2,0.5-1.1,1.3-0.2,2c1.5,1.1,0.6,1,1.2,2
		C187.8,128,188,127.7,188.5,127.2z M191.6,126.4c0.8-0.5,1-0.4,1.6-1.2l-0.5-1.1c-1,0.2-1,0.6-1.7,1.4c-0.5,0.5-0.9,1.1-1.3,1.7
		l1.5,1L191.6,126.4L191.6,126.4z M122.5,141l0.7,0.1l0.2-0.7l-0.7,0.1L122.5,141z M188.7,8.6c0.8,0,0.6,0.1,0.6-0.5
		c0.1-1.7,0.9-1.4,0.2-3.7c-1.4,1.8-0.7,2.2-0.7,3.3C188.8,8.5,188.5,7.4,188.7,8.6z M164.9,43.4c-1.3,0.3-6.8,0.6-7.9-0.2
		c1.5-0.2,2.6-0.4,4.1-0.4c0.7,0,1.6,0.1,2.3,0.1c0.3,0,0.7,0,0.9,0.1C165.5,43.4,164.5,43.1,164.9,43.4z M169.7,75.1l9.9,0.1
		c0.4-1,0.5-2.2,0.4-3.2c-1,0.5,0.4,0.4-1.5,1.6c0.7,1.3,0,0.3,0.8,0.5c-0.3,0.6,0,0.3-0.9,0.4c-1-1.8-0.5-1.7-1.2-2.2
		c-0.4,0.4-0.4,0.7-0.6,1.2c-0.4,0.8-0.6,0.1-0.3,1l-0.2-0.4c-1.4-2.1-0.4-1.1-1.2-2.4c-0.8,0.6-1.1,2.6-1.2,2.8
		c-1.2-0.3-0.7-1.3-1.6-2.2c-0.8,1,0,0.3-1.3,2.3l-0.7-0.4c0,0,0.6-0.1,0.8-0.6c-1.2-1.2-1-1.3-1.5-1.6
		C169.2,73,169.3,74.2,169.7,75.1L169.7,75.1z M184.5,111.6c1.1-0.7,6.6-0.6,7.7,0C191.3,112.3,185.4,112.3,184.5,111.6z M80.1,20.2
		c0.2,0.5,0.7,0.3-0.2,0.8C79.5,20.4,79.7,20.5,80.1,20.2z M92,78.9c0.3-0.9,0-0.5,0.1-1.1c1.6-0.1,0.3,0.1,1.7,0.5
		C92.5,79,93.6,79,92,78.9z M89.8,77.9L91,78l-0.1,0.9l-1,0L89.8,77.9z M161.1,96.4c-1,0-0.7,0.1-1.3-0.3c0.4-0.4-0.6-0.6,1.3-0.6
		c1,0,0.7-0.1,1.3,0.3C162.1,96.4,162.5,96.4,161.1,96.4z M171.7,26.3c1.6-0.2,4.7-0.7,5.9,0.1C176.2,27.1,172.8,27.2,171.7,26.3z
		 M145.5,27l1.5-0.1c0.2-1.3-0.1-1.4-1.4-1.3C145.5,25.6,145.5,27,145.5,27z M175.7,42.5c-0.4,1,0,1.2,1,1
		C176.9,42.7,176.7,42.4,175.7,42.5z M172.3,42.6c0.2,0.8-0.1,0.2,0.5,1c0.6-0.4,0.6-0.3,0.7-0.8C172.8,42.3,173.2,42.3,172.3,42.6z
		 M21.6,37.3c-1-0.1-0.9-0.5-1.4,0.6c0.6,0.7,0.4,0.6,1.2,0.3c0.3,0.7,0,0.3,0.5,1.1l0.4-1.1c0.9,0.4,0.7,0.5,1.3-0.3
		c-0.3-1-0.6-0.6-1.4-0.6c0.5-0.8,0.4-0.9-0.3-1.5C21.4,36.2,20.9,36.7,21.6,37.3z M213.1,77.6c1.1-0.5,4.9-0.8,5.7,0.2
		C217.8,78.7,213.7,78.9,213.1,77.6z M93.8,6.3c0.3,0.8,0.4,0.3,0,1.1C93.1,7,93.2,6.9,93.8,6.3z M93.9,4.7c0.6,0.6,0.6,0.8,0,1.3
		C93.5,5.3,93.5,5.3,93.9,4.7z M174.3,42.4c0.8,0.3,0.5-0.2,0.6,0.8C174.2,43.1,174,43.3,174.3,42.4z M174,43.7
		c1.7,0.2,1.6-1.1,0.3-1.5C173.9,42.8,173.6,42.9,174,43.7z M5.9,143.8c-0.8,0.4-0.6,0.6-1.4,0C5.2,143.2,5.2,142.8,5.9,143.8z
		 M74.6,59.9c2.1-0.4,4.6-0.4,6.6,0l0,0.9c-2.7-0.2-3.9-0.5-6.7,0.1C74.6,60.9,74.6,59.9,74.6,59.9z M136.4,59.2l1.3-0.1
		c-0.3,0.7-0.5,0.7,0.1,1.3l-1.6,0C136.8,59.5,136.4,59.2,136.4,59.2L136.4,59.2z M134.1,59.2l1,0.6c0.1,0.4-0.1,0.1,0.2,0.6
		l-1.6,0.1L134.1,59.2L134.1,59.2z M131.5,59.2l1.2,0c-0.2,0.4-0.4,1.1-0.2,1.2c0,0,0.1,0,0.2,0l-0.2,0l-1.2,0.1
		C131.5,60.1,131.6,59.3,131.5,59.2z M49.9,41.4l-0.8,0.7c0.5,0.4,0.8,0.4,1.6,0C50.6,41.5,51.3,42.2,49.9,41.4
		c0.5-1.1,0.6-0.6,0-1.8C49.5,40.5,49.7,40.7,49.9,41.4z M99.3,74.9c0.8,1,0,1.5,1.7,2c-0.3-0.9-0.7-0.3-0.4-1.7l1,0.9
		c0-1.3-1.2-1.9-2.3-1.9L99.3,74.9z M78.9,90.9l1.8,0.7c0,0.4-0.2,1.1-0.4,1.6c-0.4,1-0.3,0.9-1.4,0.7
		C78.9,93.9,78.9,90.9,78.9,90.9z M145.3,61.4c0.5-0.8,0.3-0.4,0.1-1.2l1.6,0c-0.4,0.7-0.4,0.4,0.1,1.3L145.3,61.4L145.3,61.4z
		 M132.4,127.5l-0.1,1.2c1.2,0.2,0.4,0.3,1.4-0.2C134.1,127.5,133.2,126.9,132.4,127.5L132.4,127.5z M63.4,24.9
		c0.4-0.8,0.4-0.3,0.2-1.2l-0.7,0.1C62.9,23.8,63.4,24.9,63.4,24.9z M26.3,27.1l0.2,0.4c-2.2,0.5-6.2,0.6-8.4,0l0.2-0.5
		C20.9,27.1,23.4,26.8,26.3,27.1z M46.4,8.9c2.4-0.3,3.9-0.7,6.3,0.1C51.5,9.8,47.5,9.8,46.4,8.9z M49.9,90.8c0-0.9,0.2-0.5-0.6-0.6
		C49.4,90.9,49.1,90.8,49.9,90.8z M3.9,5c0.8,0.4,0.3,0.6,0.9-0.2C3.5,3.9,4.2,4.5,3.9,5z M198.8,109.6c-0.1-0.7,0.7,0.2-0.3-0.7
		c-0.6-0.5-0.5-0.2-0.9-0.3C197.5,109.6,197.7,109.8,198.8,109.6z M175.9,144.1l-1.5,0.2l0.7,0.8
		C176.1,144.7,175.6,145.1,175.9,144.1L175.9,144.1z M192.1,110.1c0.8-0.4,0.7,0.2,0.5-1C191.7,109.4,191.7,109.3,192.1,110.1z
		 M66.6,77.6c0.6-0.8,0.6-0.5-0.2-0.9C65.9,77.3,65.8,77.2,66.6,77.6z M61.3,77.6c0.8-0.4,0.7-0.5,0-0.9
		C60.7,77.3,60.9,77.1,61.3,77.6z M78.6,127.8c0.5-0.8,0.4-0.1,0-0.8C78.2,127.6,78,127,78.6,127.8z M225.5,112
		c1.4,0.9,7.3,0.6,8.9,0.1C233.1,111.2,226.8,111.4,225.5,112z M198.7,145.6c1.1,0.7,6,0.9,6.8-0.1
		C204,144.8,200.1,144.7,198.7,145.6z M227,93.9c0-0.1,0.3-0.3-0.1-0.5c-0.3-0.2-0.1,0.1-0.5,0.1c-0.2-0.6,0-0.6-0.2-1.6
		c-0.2-0.8-0.1-1.1-0.1-1.9c-1.3,0.3-1.4,1.2-0.9,2.4C226.2,94.7,226.9,93.9,227,93.9z M134,108.4c0.6,0.4,1.2,0.2,1.7,1.1
		c0.1,0.2,0.3,0.6,0.3,1c0.1,0.5,0,0.8,0.3,1.3C137.4,109.2,135.8,106.7,134,108.4z M51.1,111.3c0.7-0.2,0.9-0.8,0.8-1.7
		c0-0.9-0.3-1.3-1-1.7C50.8,108.9,50.6,110.4,51.1,111.3z M187.5,109c0.8,0.6,0.7,0.6,1.6,0.3c0-0.7,0-1-0.8-1.5L187.5,109z
		 M22.4,91.9c1.1,0.7,1.6,0.2,1.6-0.9c-1,0-0.2-0.1-0.9,0.2C22,91.8,22.6,91.1,22.4,91.9z M200,108.8c0.9,0.6,0.7,0.4,1.4-0.1
		c-0.6-0.5-0.7-0.6-1.4-0.7L200,108.8L200,108.8z M77.3,57.7c0.5,0.9,0.8,0.9,1.4,0C78.2,57.5,77.9,57.5,77.3,57.7z M147.8,75.5
		c0-0.9,0.2-0.6-0.6-0.6C147.2,75.8,146.9,75.5,147.8,75.5z M50,113.3l0-1c0.9,0,0.8-0.2,0.9,0.6L50,113.3c0.4,0.6,1.2-0.1,2-0.2
		c0.2,0,2,0.1,2.8,0.1l-1-0.6c-0.2-0.1-0.7-0.2-1-0.2c-2.3-0.5-4.6-0.8-6.6,0.7C46.1,113.1,50,113.3,50,113.3z M12.1,129.2
		c-2.3-0.7-4.8-0.5-7.2-0.1C6,130,11.1,129.9,12.1,129.2z M230.9,109.3l-1.1-0.9l-0.7,1l0.8,0.6C230,110,230.9,109.3,230.9,109.3z
		 M92.2,128.1c-0.7-0.3-0.7-0.2-1.5-0.1c0.1,0.7,0.2,0.8,0.9,1.2L92.2,128.1z M21.2,93.4l1,0c0-0.9,0.3-0.6-0.5-1.1
		C21,92.8,21.3,92.5,21.2,93.4z M233.4,110.2c0.8-0.6,0.8-0.5,0.2-1.3C232.9,109.5,232.8,109.5,233.4,110.2z M76.8,127.6l0.7,0
		l0-0.9C76.6,126.7,76.3,126.8,76.8,127.6z M225.8,143.6l1-1.2C225.4,142.2,225.6,142.7,225.8,143.6z M75.3,127.4
		c0.7,0.6,0,0.4,0.7,0C75.3,127,76,127,75.3,127.4z M4.5,78.7c1.8,0.5,6.1,0.7,7.7,0C11.4,78.1,5.6,77.9,4.5,78.7z M37.6,126.9
		c1-0.5,1.2-0.9,1.2-2.1C37.8,125.4,37.6,125.7,37.6,126.9z M49.7,142.1c1,0,1.3-0.6,0.1-1C49.3,141.9,49.5,141.3,49.7,142.1z
		 M234,143.6c0.4-1,0.3-1.4-0.8-1.3L234,143.6z M148.1,60.1c0.1,0.1-0.1,1-0.2,1.3l1.6-0.1c-0.8-0.8-0.1-0.2-0.4-1.3L148.1,60.1z
		 M189.2,26.8c-0.6-1.6-1.4-0.8-1.3,0.6C189,27.4,188.4,27.8,189.2,26.8z M32.9,44.2c1.3,0.6,5.5,0.6,6.6-0.1
		C37.6,43.6,34.6,43.3,32.9,44.2z M34.8,126.7c0-1.4-0.1-1.2-1.2-2C33.7,125.9,33.8,126.3,34.8,126.7z M88.9,128.2
		c0.2,0.3,0.6,1.7,1.1-0.1L88.9,128.2z M176.6,144.5c0.5,0.7,0.3,0.6,1,0C176.8,144,177.1,144.2,176.6,144.5z M215.8,126.6l0.5-0.8
		C215.7,125.9,214.8,125.8,215.8,126.6z M63.8,75.4c-0.4,0.5-0.3,0.4,0.2,0.7C64.4,75.5,64.4,75.7,63.8,75.4z M227.7,90
		c-1.3,1.4,0.4,4.6,1.6,3.9c-1.1-0.6-1.6-0.9-1.9-2.3c0.8-0.7,0.7-0.5,1.8-0.6l0.1,2.4c0.4-0.9,0.3-2.5-0.3-3.4L227.7,90L227.7,90z
		 M173,144.5c0.5,0.6,0.6,0.8,0.9-0.1C172.8,144.1,173.4,144.3,173,144.5z M4.4,75.5c-0.3,0-0.5,0.1-0.6,0.1c-0.2,0-0.1,0,0-0.1
		c0.1-0.1,0.3-0.1,0-0.2l0,0.2l0,0.1L4,77.1c0.4-0.2,0.3-0.6,0.2-1.1c1,0.1,0.4,0.1,1-0.2c0-0.1-0.1-0.9-0.1-0.9
		c-0.2-1-0.1-0.3-0.5-0.9C4.7,74,4.4,75.5,4.4,75.5z M105.5,57.8c0.6-0.4,0.8-0.5,0-0.6L105.5,57.8z M21.9,145.3
		c1.7,0-0.8,0.6,0.5-0.2l1.1-1.2l-1.2-0.4c0-0.1-0.1,0-0.3-0.1L21.9,145.3z M184.3,24.2c0.5,0.7,0.2,1.2,1.1,1.8
		C185.6,24.7,185.7,24.6,184.3,24.2z M230.4,44c0-0.3-0.2-0.4-0.3-0.6c-0.6,0.8-0.6,0.5,0,1.3C230.1,44.7,230.4,44.3,230.4,44
		L230.4,44z M7.6,55.9c0,0.6-0.3,0.8,0.7,0.9c0.9-0.5,0.6-0.1,0.5-1.2C8.1,56.5,8.7,56.4,7.6,55.9z M13.1,56.8
		c0.5-0.7,0.3-0.1,0-0.7C12.8,56.7,12.8,56.2,13.1,56.8z M213.1,26.2c0.5,0.5,0.6,0.8,1-0.1C213.8,25.9,213.4,25.6,213.1,26.2z
		 M3.4,56.8c0.5-0.7,0.3,0,0-0.7c-0.3,0.6-0.4-0.6-0.2,0.4c0,0,0,0.2,0.1,0.2C3.3,56.7,3.4,56.7,3.4,56.8z"/>
</g>
</svg>
