<?xml version="1.0" encoding="utf-8"?>
<!-- Generator: Adobe Illustrator 24.0.2, SVG Export Plug-In . SVG Version: 6.00 Build 0)  -->
<svg version="1.1" id="Слой_1" xmlns="http://www.w3.org/2000/svg" xmlns:xlink="http://www.w3.org/1999/xlink" x="0px" y="0px"
	 viewBox="0 0 238.1 150.2" style="enable-background:new 0 0 238.1 150.2;" xml:space="preserve">
<style type="text/css">
	.st0{fill:#373435;}
</style>
<g id="Слой_x0020_1">
	<path class="st0" d="M0.4,4h2.9V0.3H0.4C0.4,0.3,0.4,4,0.4,4z M166.9,84.9h0.8v-0.9h-0.8V84.9z M162.3,84.9h0.8v-0.9h-0.8V84.9z
		 M157.7,89.8h0.8v-0.9h-0.8V89.8z M157.7,84.9h0.8v-0.9h-0.8V84.9z M24.2,128.6H25v-0.9h-0.8V128.6z M24.2,118.9H25V118h-0.8V118.9
		z M19.6,128.6h0.8v-0.9h-0.8V128.6z M19.6,123.7h0.8v-0.9h-0.8V123.7z M15,128.6h0.8v-0.9H15V128.6z M64.4,110.4h3.2v-3.4h-3.2
		V110.4z M64.4,105.6h3.2v-3.4h-3.2V105.6z M59.8,120.1H63v-3.4h-3.2V120.1z M59.8,115.3H63v-3.4h-3.2V115.3z M59.8,110.4H63v-3.4
		h-3.2V110.4z M59.8,105.6H63v-3.4h-3.2V105.6z M59.8,100.7H63v-3.4h-3.2V100.7z M59.8,95.9H63v-3.4h-3.2V95.9z M106.8,104.6h1.3
		v-1.4h-1.3V104.6z M106.8,94.9h1.3v-1.4h-1.3V94.9z M102.2,99.7h1.3v-1.4h-1.3V99.7z M102.2,94.9h1.3v-1.4h-1.3V94.9z M97.4,95.1
		h1.8v-1.9h-1.8V95.1z M111.2,85.4h1.8v-1.9h-1.8V85.4z M106.6,85.4h1.8v-1.9h-1.8V85.4z M102,85.4h1.8v-1.9H102V85.4z M97.4,85.4
		h1.8v-1.9h-1.8V85.4z M92.8,85.4h1.8v-1.9h-1.8V85.4z M120.6,90h1.3v-1.4h-1.3V90z M116,90h1.3v-1.4H116V90z M111.4,90h1.3v-1.4
		h-1.3V90z M106.8,90h1.3v-1.4h-1.3V90z M102.2,90h1.3v-1.4h-1.3V90z M97.6,90h1.3v-1.4h-1.3V90z M93,90h1.3v-1.4H93V90z
		 M236.2,147.7h0.3v-0.4h-0.3V147.7z M236.2,142.9h0.3v-0.4h-0.3V142.9z M236.2,138h0.3v-0.4h-0.3V138z M231.6,147.7h0.3v-0.4h-0.3
		V147.7z M231.6,142.9h0.3v-0.4h-0.3V142.9z M231.6,138h0.3v-0.4h-0.3V138z M227,147.7h0.3v-0.4H227V147.7z M148.7,147.7h0.3v-0.4
		h-0.3V147.7z M148.7,142.9h0.3v-0.4h-0.3V142.9z M144.1,147.7h0.3v-0.4h-0.3V147.7z M144.1,142.9h0.3v-0.4h-0.3V142.9z
		 M139.5,147.7h0.3v-0.4h-0.3V147.7z M139.5,142.9h0.3v-0.4h-0.3V142.9z M134.9,147.7h0.3v-0.4h-0.3V147.7z M134.9,142.9h0.3v-0.4
		h-0.3V142.9z M130.3,147.7h0.3v-0.4h-0.3V147.7z M130.3,142.9h0.3v-0.4h-0.3V142.9z M125.7,147.7h0.3v-0.4h-0.3V147.7z
		 M125.7,142.9h0.3v-0.4h-0.3V142.9z M125.7,138h0.3v-0.4h-0.3V138z M121.1,147.7h0.3v-0.4h-0.3V147.7z M121.1,142.9h0.3v-0.4h-0.3
		V142.9z M121.1,138h0.3v-0.4h-0.3V138z M116.5,147.7h0.3v-0.4h-0.3V147.7z M116.5,142.9h0.3v-0.4h-0.3V142.9z M116.5,138h0.3v-0.4
		h-0.3V138z M111.9,147.7h0.3v-0.4h-0.3V147.7z M166.6,124h1.3v-1.4h-1.3V124z M162,138.5h1.3v-1.4H162V138.5z M162,133.7h1.3v-1.4
		H162V133.7z M162,128.8h1.3v-1.4H162V128.8z M162,124h1.3v-1.4H162V124z M162,119.1h1.3v-1.4H162V119.1z M157.4,143.4h1.3V142h-1.3
		V143.4z M157.4,138.5h1.3v-1.4h-1.3V138.5z M157.4,133.7h1.3v-1.4h-1.3V133.7z M157.4,128.8h1.3v-1.4h-1.3V128.8z M157.4,124h1.3
		v-1.4h-1.3V124z M157.4,119.1h1.3v-1.4h-1.3V119.1z M152.8,143.4h1.3V142h-1.3V143.4z M152.8,138.5h1.3v-1.4h-1.3V138.5z
		 M152.8,133.7h1.3v-1.4h-1.3V133.7z M152.8,128.8h1.3v-1.4h-1.3V128.8z M152.8,124h1.3v-1.4h-1.3V124z M152.8,119.1h1.3v-1.4h-1.3
		V119.1z M152.8,114.3h1.3v-1.4h-1.3V114.3z M148.2,138.5h1.3v-1.4h-1.3V138.5z M148.2,133.7h1.3v-1.4h-1.3V133.7z M148.2,128.8h1.3
		v-1.4h-1.3V128.8z M148.2,124h1.3v-1.4h-1.3V124z M148.2,119.1h1.3v-1.4h-1.3V119.1z M148.2,114.3h1.3v-1.4h-1.3V114.3z
		 M143.6,133.7h1.3v-1.4h-1.3V133.7z M143.6,128.8h1.3v-1.4h-1.3V128.8z M143.6,124h1.3v-1.4h-1.3V124z M143.6,119.1h1.3v-1.4h-1.3
		V119.1z M143.6,114.3h1.3v-1.4h-1.3V114.3z M171,119.4h1.8v-1.9H171V119.4z M171,114.5h1.8v-1.9H171V114.5z M166.4,119.4h1.8v-1.9
		h-1.8V119.4z M166.4,114.5h1.8v-1.9h-1.8V114.5z M166.4,109.7h1.8v-1.9h-1.8V109.7z M161.8,114.5h1.8v-1.9h-1.8V114.5z
		 M161.8,109.7h1.8v-1.9h-1.8V109.7z M161.8,104.8h1.8V103h-1.8V104.8z M161.8,100h1.8v-1.9h-1.8V100z M157.2,114.5h1.8v-1.9h-1.8
		V114.5z M157.2,109.7h1.8v-1.9h-1.8V109.7z M157.2,104.8h1.8V103h-1.8V104.8z M157.2,100h1.8v-1.9h-1.8V100z M152.6,109.7h1.8v-1.9
		h-1.8V109.7z M152.6,104.8h1.8V103h-1.8V104.8z M152.6,100h1.8v-1.9h-1.8V100z M148,109.7h1.8v-1.9H148V109.7z M148,104.8h1.8V103
		H148V104.8z M143.4,109.7h1.8v-1.9h-1.8V109.7z M143.4,104.8h1.8V103h-1.8V104.8z M138.8,104.8h1.8V103h-1.8V104.8z M134.2,100h1.8
		v-1.9h-1.8V100z M235.9,123.7h0.8v-0.9h-0.8V123.7z M235.9,118.9h0.8V118h-0.8V118.9z M235.9,114h0.8v-0.9h-0.8V114z M235.9,109.2
		h0.8v-0.9h-0.8V109.2z M235.9,104.3h0.8v-0.9h-0.8V104.3z M235.9,99.5h0.8v-0.9h-0.8V99.5z M235.9,94.6h0.8v-0.9h-0.8V94.6z
		 M231.3,123.7h0.8v-0.9h-0.8V123.7z M231.3,118.9h0.8V118h-0.8V118.9z M231.3,114h0.8v-0.9h-0.8V114z M231.3,109.2h0.8v-0.9h-0.8
		V109.2z M231.3,104.3h0.8v-0.9h-0.8V104.3z M231.3,99.5h0.8v-0.9h-0.8V99.5z M231.3,94.6h0.8v-0.9h-0.8V94.6z M226.7,114h0.8v-0.9
		h-0.8V114z M226.7,109.2h0.8v-0.9h-0.8V109.2z M226.7,104.3h0.8v-0.9h-0.8V104.3z M226.7,99.5h0.8v-0.9h-0.8V99.5z M226.7,94.6h0.8
		v-0.9h-0.8V94.6z M235.9,89.8h0.8v-0.9h-0.8V89.8z M235.9,84.9h0.8v-0.9h-0.8V84.9z M235.9,80.1h0.8v-0.9h-0.8V80.1z M231.3,89.8
		h0.8v-0.9h-0.8V89.8z M231.3,84.9h0.8v-0.9h-0.8V84.9z M231.3,80.1h0.8v-0.9h-0.8V80.1z M226.7,89.8h0.8v-0.9h-0.8V89.8z
		 M208.1,148.2h1.3v-1.4h-1.3V148.2z M208.1,143.4h1.3V142h-1.3V143.4z M208.1,138.5h1.3v-1.4h-1.3V138.5z M203.5,143.4h1.3V142
		h-1.3V143.4z M198.9,143.4h1.3V142h-1.3V143.4z M194.3,148.2h1.3v-1.4h-1.3V148.2z M226,143.9h2.2v-2.4H226V143.9z M226,139h2.2
		v-2.4H226V139z M226,124.5h2.2v-2.4H226V124.5z M226,119.6h2.2v-2.4H226V119.6z M221.4,143.9h2.2v-2.4h-2.2V143.9z M221.4,139h2.2
		v-2.4h-2.2V139z M221.4,129.3h2.2V127h-2.2V129.3z M221.4,124.5h2.2v-2.4h-2.2V124.5z M221.4,119.6h2.2v-2.4h-2.2V119.6z
		 M221.4,114.8h2.2v-2.4h-2.2V114.8z M221.4,109.9h2.2v-2.4h-2.2V109.9z M216.8,148.7h2.2v-2.4h-2.2V148.7z M216.8,143.9h2.2v-2.4
		h-2.2V143.9z M216.8,139h2.2v-2.4h-2.2V139z M216.8,134.2h2.2v-2.4h-2.2V134.2z M216.8,129.3h2.2V127h-2.2V129.3z M216.8,124.5h2.2
		v-2.4h-2.2V124.5z M216.8,119.6h2.2v-2.4h-2.2V119.6z M212.2,148.7h2.2v-2.4h-2.2V148.7z M212.2,143.9h2.2v-2.4h-2.2V143.9z
		 M212.2,139h2.2v-2.4h-2.2V139z M212.2,134.2h2.2v-2.4h-2.2V134.2z M212.2,129.3h2.2V127h-2.2V129.3z M212.2,124.5h2.2v-2.4h-2.2
		V124.5z M207.6,134.2h2.2v-2.4h-2.2V134.2z M207.6,129.3h2.2V127h-2.2V129.3z M203,148.7h2.2v-2.4H203V148.7z M203,139h2.2v-2.4
		H203V139z M203,134.2h2.2v-2.4H203V134.2z M198.4,148.7h2.2v-2.4h-2.2V148.7z M198.4,139h2.2v-2.4h-2.2V139z M193.8,143.9h2.2v-2.4
		h-2.2V143.9z M189.2,148.7h2.2v-2.4h-2.2V148.7z M189.2,143.9h2.2v-2.4h-2.2V143.9z M184.6,148.7h2.2v-2.4h-2.2V148.7z
		 M184.6,143.9h2.2v-2.4h-2.2V143.9z M180,148.7h2.2v-2.4H180V148.7z M180,143.9h2.2v-2.4H180V143.9z M175.4,143.9h2.2v-2.4h-2.2
		V143.9z M170.8,143.9h2.2v-2.4h-2.2V143.9z M166.2,143.9h2.2v-2.4h-2.2V143.9z M139.5,113.8h0.3v-0.4h-0.3V113.8z M139.5,108.9h0.3
		v-0.4h-0.3V108.9z M134.9,108.9h0.3v-0.4h-0.3V108.9z M134.9,104.1h0.3v-0.4h-0.3V104.1z M130.3,104.1h0.3v-0.4h-0.3V104.1z
		 M125.7,104.1h0.3v-0.4h-0.3V104.1z M121.1,104.1h0.3v-0.4h-0.3V104.1z M121.1,99.2h0.3v-0.4h-0.3V99.2z M121.1,94.4h0.3V94h-0.3
		V94.4z M138.3,129.6h2.7v-2.9h-2.7V129.6z M138.3,124.7h2.7v-2.9h-2.7V124.7z M138.3,119.9h2.7V117h-2.7V119.9z M133.7,129.6h2.7
		v-2.9h-2.7V129.6z M133.7,124.7h2.7v-2.9h-2.7V124.7z M133.7,119.9h2.7V117h-2.7V119.9z M133.7,115h2.7v-2.9h-2.7V115z
		 M129.1,129.6h2.7v-2.9h-2.7V129.6z M129.1,124.7h2.7v-2.9h-2.7V124.7z M129.1,119.9h2.7V117h-2.7V119.9z M129.1,115h2.7v-2.9h-2.7
		V115z M124.5,129.6h2.7v-2.9h-2.7V129.6z M124.5,124.7h2.7v-2.9h-2.7V124.7z M124.5,119.9h2.7V117h-2.7V119.9z M124.5,115h2.7v-2.9
		h-2.7V115z M124.5,110.2h2.7v-2.9h-2.7V110.2z M119.9,124.7h2.7v-2.9h-2.7V124.7z M119.9,119.9h2.7V117h-2.7V119.9z M119.9,115h2.7
		v-2.9h-2.7V115z M119.9,110.2h2.7v-2.9h-2.7V110.2z M115.3,110.2h2.7v-2.9h-2.7V110.2z M115.3,105.3h2.7v-2.9h-2.7V105.3z
		 M115.3,100.5h2.7v-2.9h-2.7V100.5z M115.3,95.6h2.7v-2.9h-2.7V95.6z M125.4,133.4h0.8v-0.9h-0.8V133.4z M120.8,133.4h0.8v-0.9
		h-0.8V133.4z M116.2,133.4h0.8v-0.9h-0.8V133.4z M116.2,128.6h0.8v-0.9h-0.8V128.6z M10.1,75.5h1.3v-1.4h-1.3V75.5z M10.1,70.6h1.3
		v-1.4h-1.3V70.6z M5.5,80.3h1.3V79H5.5C5.5,79,5.5,80.3,5.5,80.3z M5.5,75.5h1.3v-1.4H5.5C5.5,74.1,5.5,75.5,5.5,75.5z M5.5,70.6
		h1.3v-1.4H5.5C5.5,69.3,5.5,70.6,5.5,70.6z M5.5,56.1h1.3v-1.4H5.5C5.5,54.7,5.5,56.1,5.5,56.1z M0.9,80.3h1.3V79H0.9
		C0.9,79,0.9,80.3,0.9,80.3z M0.9,75.5h1.3v-1.4H0.9C0.9,74.1,0.9,75.5,0.9,75.5z M0.9,70.6h1.3v-1.4H0.9
		C0.9,69.3,0.9,70.6,0.9,70.6z M0.9,65.8h1.3v-1.4H0.9C0.9,64.4,0.9,65.8,0.9,65.8z M0.9,60.9h1.3v-1.4H0.9
		C0.9,59.6,0.9,60.9,0.9,60.9z M0.9,56.1h1.3v-1.4H0.9C0.9,54.7,0.9,56.1,0.9,56.1z M38,51h0.8v-0.9H38V51z M33.4,60.7h0.8v-0.9
		h-0.8V60.7z M33.4,55.8h0.8V55h-0.8V55.8z M33.4,51h0.8v-0.9h-0.8V51z M28.8,55.8h0.8V55h-0.8V55.8z M28.8,51h0.8v-0.9h-0.8V51z
		 M24.2,55.8H25V55h-0.8V55.8z M24.2,51H25v-0.9h-0.8V51z M19.6,55.8h0.8V55h-0.8V55.8z M15,55.8h0.8V55H15V55.8z M37.3,61.4h2.2
		v-2.4h-2.2V61.4z M37.3,56.6h2.2v-2.4h-2.2V56.6z M28.1,61.4h2.2v-2.4h-2.2V61.4z M28.1,46.9h2.2v-2.4h-2.2V46.9z M23.5,61.4h2.2
		v-2.4h-2.2V61.4z M23.5,46.9h2.2v-2.4h-2.2V46.9z M18.9,66.3h2.2v-2.4h-2.2V66.3z M18.9,61.4h2.2v-2.4h-2.2V61.4z M18.9,51.7h2.2
		v-2.4h-2.2V51.7z M18.9,46.9h2.2v-2.4h-2.2V46.9z M14.3,80.8h2.2v-2.4h-2.2V80.8z M14.3,76h2.2v-2.4h-2.2V76z M14.3,71.1h2.2v-2.4
		h-2.2V71.1z M14.3,66.3h2.2v-2.4h-2.2V66.3z M14.3,61.4h2.2v-2.4h-2.2V61.4z M14.3,51.7h2.2v-2.4h-2.2V51.7z M14.3,46.9h2.2v-2.4
		h-2.2V46.9z M9.7,80.8h2.2v-2.4H9.7V80.8z M9.7,66.3h2.2v-2.4H9.7V66.3z M9.7,61.4h2.2v-2.4H9.7V61.4z M9.7,56.6h2.2v-2.4H9.7V56.6
		z M9.7,51.7h2.2v-2.4H9.7V51.7z M9.7,46.9h2.2v-2.4H9.7V46.9z M5.1,66.3h2.2v-2.4H5.1V66.3z M5.1,61.4h2.2v-2.4H5.1V61.4z
		 M5.1,51.7h2.2v-2.4H5.1V51.7z M5.1,46.9h2.2v-2.4H5.1V46.9z M0.5,51.7h2.2v-2.4H0.5V51.7z M0.5,46.9h2.2v-2.4H0.5V46.9z
		 M23.7,80.6h1.8v-1.9h-1.8V80.6z M19.1,80.6h1.8v-1.9h-1.8V80.6z M19.1,75.7h1.8v-1.9h-1.8V75.7z M47,85.2h1.3v-1.4H47V85.2z
		 M47,80.3h1.3V79H47V80.3z M42.4,85.2h1.3v-1.4h-1.3V85.2z M37.8,85.2H39v-1.4h-1.3V85.2z M37.8,80.3H39V79h-1.3V80.3z M37.8,75.5
		H39v-1.4h-1.3V75.5z M33.1,75.5h1.3v-1.4h-1.3V75.5z M33.1,70.6h1.3v-1.4h-1.3V70.6z M28.5,75.5h1.3v-1.4h-1.3V75.5z M50.9,95.6
		h2.7v-2.9h-2.7V95.6z M46.2,95.6H49v-2.9h-2.7V95.6z M55.5,81.1h2.7v-2.9h-2.7V81.1z M50.9,85.9h2.7v-2.9h-2.7V85.9z M50.9,81.1
		h2.7v-2.9h-2.7V81.1z M50.9,76.2h2.7v-2.9h-2.7V76.2z M46.2,90.8H49v-2.9h-2.7V90.8z M46.2,76.2H49v-2.9h-2.7V76.2z M41.6,90.8h2.7
		v-2.9h-2.7V90.8z M41.6,81.1h2.7v-2.9h-2.7V81.1z M41.6,76.2h2.7v-2.9h-2.7V76.2z M37,90.8h2.7v-2.9H37V90.8z M37,71.4h2.7v-2.9H37
		V71.4z M32.4,85.9h2.7v-2.9h-2.7C32.4,83.1,32.4,85.9,32.4,85.9z M32.4,81.1h2.7v-2.9h-2.7C32.4,78.2,32.4,81.1,32.4,81.1z
		 M27.8,81.1h2.7v-2.9h-2.7C27.8,78.2,27.8,81.1,27.8,81.1z M27.8,71.4h2.7v-2.9h-2.7C27.8,68.5,27.8,71.4,27.8,71.4z M27.8,66.5
		h2.7v-2.9h-2.7C27.8,63.7,27.8,66.5,27.8,66.5z M23.2,76.2h2.7v-2.9h-2.7V76.2z M23.2,71.4h2.7v-2.9h-2.7V71.4z M23.2,66.5h2.7
		v-2.9h-2.7V66.5z M18.6,71.4h2.7v-2.9h-2.7V71.4z M14.5,148.5h1.8v-1.9h-1.8V148.5z M14.5,143.6h1.8v-1.9h-1.8V143.6z M9.9,148.5
		h1.8v-1.9H9.9V148.5z M9.9,143.6h1.8v-1.9H9.9V143.6z M9.9,138.8h1.8v-1.9H9.9V138.8z M9.9,133.9h1.8v-1.9H9.9V133.9z M9.9,129.1
		h1.8v-1.9H9.9V129.1z M5.3,148.5h1.8v-1.9H5.3V148.5z M5.3,143.6h1.8v-1.9H5.3V143.6z M5.3,138.8h1.8v-1.9H5.3V138.8z M5.3,133.9
		h1.8v-1.9H5.3V133.9z M5.3,129.1h1.8v-1.9H5.3V129.1z M5.3,124.2h1.8v-1.9H5.3V124.2z M5.3,119.4h1.8v-1.9H5.3V119.4z M5.3,114.5
		h1.8v-1.9H5.3V114.5z M0.7,148.5h1.8v-1.9H0.7V148.5z M0.7,143.6h1.8v-1.9H0.7V143.6z M0.7,138.8h1.8v-1.9H0.7V138.8z M0.7,133.9
		h1.8v-1.9H0.7V133.9z M0.7,129.1h1.8v-1.9H0.7V129.1z M0.7,124.2h1.8v-1.9H0.7V124.2z M0.7,119.4h1.8v-1.9H0.7V119.4z M0.7,114.5
		h1.8v-1.9H0.7V114.5z M0.7,109.7h1.8v-1.9H0.7V109.7z M19.6,114h0.8v-0.9h-0.8V114z M19.6,109.2h0.8v-0.9h-0.8V109.2z M19.6,104.3
		h0.8v-0.9h-0.8V104.3z M15,104.3h0.8v-0.9H15V104.3z M15,99.5h0.8v-0.9H15V99.5z M10.4,99.5h0.8v-0.9h-0.8V99.5z M5.8,99.5h0.8
		v-0.9H5.8V99.5z M13.8,115.3H17v-3.4h-3.2V115.3z M13.8,110.4H17v-3.4h-3.2V110.4z M9.2,125h3.2v-3.4H9.2V125z M9.2,120.1h3.2v-3.4
		H9.2V120.1z M9.2,115.3h3.2v-3.4H9.2V115.3z M9.2,110.4h3.2v-3.4H9.2V110.4z M9.2,105.6h3.2v-3.4H9.2V105.6z M9.2,95.9h3.2v-3.4
		H9.2V95.9z M4.6,110.4h3.2v-3.4H4.6C4.6,107.1,4.6,110.4,4.6,110.4z M4.6,105.6h3.2v-3.4H4.6C4.6,102.2,4.6,105.6,4.6,105.6z
		 M4.6,95.9h3.2v-3.4H4.6C4.6,92.5,4.6,95.9,4.6,95.9z M0.4,105.6h2.7v-3.4H0.4V105.6z M0.4,100.7h2.7v-3.4H0.4V100.7z M0.4,95.9
		h2.7v-3.4H0.4V95.9z M0.4,91h2.7v-3.4H0.4V91z M0.4,86.2h2.7v-3.4H0.4V86.2z M46.2,149H49v-2.9h-2.7V149z M41.6,149h2.7v-2.9h-2.7
		V149z M37,149h2.7v-2.9H37C37,146.1,37,149,37,149z M37,144.1h2.7v-2.9H37C37,141.3,37,144.1,37,144.1z M37,139.3h2.7v-2.9H37
		C37,136.4,37,139.3,37,139.3z M32.4,149h2.7v-2.9h-2.7V149z M32.4,144.1h2.7v-2.9h-2.7V144.1z M32.4,139.3h2.7v-2.9h-2.7V139.3z
		 M27.8,149h2.7v-2.9h-2.7C27.8,146.1,27.8,149,27.8,149z M27.8,144.1h2.7v-2.9h-2.7C27.8,141.3,27.8,144.1,27.8,144.1z M27.8,139.3
		h2.7v-2.9h-2.7C27.8,136.4,27.8,139.3,27.8,139.3z M23.2,149h2.7v-2.9h-2.7V149z M23.2,144.1h2.7v-2.9h-2.7V144.1z M23.2,139.3h2.7
		v-2.9h-2.7V139.3z M18.6,149h2.7v-2.9h-2.7V149z M18.6,144.1h2.7v-2.9h-2.7V144.1z M18.6,139.3h2.7v-2.9h-2.7V139.3z M18.6,134.4
		h2.7v-2.9h-2.7V134.4z M14,139.3h2.7v-2.9H14V139.3z M14,134.4h2.7v-2.9H14V134.4z M82.8,134.7H86v-3.4h-3.2V134.7z M82.8,129.8H86
		v-3.4h-3.2V129.8z M82.8,125H86v-3.4h-3.2V125z M78.2,129.8h3.2v-3.4h-3.2V129.8z M78.2,125h3.2v-3.4h-3.2V125z M73.6,129.8h3.2
		v-3.4h-3.2V129.8z M73.6,125h3.2v-3.4h-3.2V125z M69,125h3.2v-3.4H69V125z M69,120.1h3.2v-3.4H69V120.1z M64.4,125h3.2v-3.4h-3.2
		V125z M64.4,120.1h3.2v-3.4h-3.2V120.1z M64.4,115.3h3.2v-3.4h-3.2V115.3z M78.9,138.8h1.8v-1.9h-1.8V138.8z M78.9,133.9h1.8v-1.9
		h-1.8V133.9z M74.3,138.8h1.8v-1.9h-1.8V138.8z M74.3,133.9h1.8v-1.9h-1.8V133.9z M69.7,138.8h1.8v-1.9h-1.8V138.8z M69.7,133.9
		h1.8v-1.9h-1.8V133.9z M69.7,129.1h1.8v-1.9h-1.8V129.1z M65.1,138.8h1.8v-1.9h-1.8V138.8z M65.1,133.9h1.8v-1.9h-1.8V133.9z
		 M65.1,129.1h1.8v-1.9h-1.8V129.1z M60.5,138.8h1.8v-1.9h-1.8V138.8z M60.5,133.9h1.8v-1.9h-1.8V133.9z M60.5,129.1h1.8v-1.9h-1.8
		V129.1z M60.5,124.2h1.8v-1.9h-1.8V124.2z M55.9,138.8h1.8v-1.9h-1.8V138.8z M55.9,133.9h1.8v-1.9h-1.8V133.9z M55.9,129.1h1.8
		v-1.9h-1.8V129.1z M55.9,124.2h1.8v-1.9h-1.8V124.2z M55.9,119.4h1.8v-1.9h-1.8V119.4z M55.9,114.5h1.8v-1.9h-1.8V114.5z
		 M55.9,109.7h1.8v-1.9h-1.8V109.7z M55.9,104.8h1.8V103h-1.8V104.8z M55.9,100h1.8v-1.9h-1.8V100z M51.3,138.8h1.8v-1.9h-1.8V138.8
		z M51.3,133.9h1.8v-1.9h-1.8V133.9z M51.3,129.1h1.8v-1.9h-1.8V129.1z M51.3,124.2h1.8v-1.9h-1.8V124.2z M51.3,119.4h1.8v-1.9h-1.8
		V119.4z M51.3,114.5h1.8v-1.9h-1.8V114.5z M51.3,109.7h1.8v-1.9h-1.8V109.7z M51.3,104.8h1.8V103h-1.8V104.8z M51.3,100h1.8v-1.9
		h-1.8V100z M46.7,133.9h1.8v-1.9h-1.8V133.9z M46.7,129.1h1.8v-1.9h-1.8V129.1z M46.7,124.2h1.8v-1.9h-1.8V124.2z M47.4,118.6h0.3
		v-0.4h-0.3V118.6z M42.8,118.6h0.3v-0.4h-0.3V118.6z M42.8,113.8h0.3v-0.4h-0.3V113.8z M38.2,108.9h0.3v-0.4h-0.3V108.9z M47,143.4
		h1.3V142H47V143.4z M47,138.5h1.3v-1.4H47V138.5z M47,114.3h1.3v-1.4H47V114.3z M47,109.4h1.3v-1.4H47V109.4z M47,104.6h1.3v-1.4
		H47V104.6z M47,99.7h1.3v-1.4H47V99.7z M42.4,143.4h1.3V142h-1.3V143.4z M42.4,138.5h1.3v-1.4h-1.3V138.5z M42.4,133.7h1.3v-1.4
		h-1.3V133.7z M42.4,128.8h1.3v-1.4h-1.3V128.8z M42.4,124h1.3v-1.4h-1.3V124z M42.4,109.4h1.3v-1.4h-1.3V109.4z M42.4,104.6h1.3
		v-1.4h-1.3V104.6z M37.8,133.7H39v-1.4h-1.3V133.7z M37.8,128.8H39v-1.4h-1.3V128.8z M37.8,124H39v-1.4h-1.3V124z M37.8,119.1H39
		v-1.4h-1.3V119.1z M37.8,114.3H39v-1.4h-1.3V114.3z M33.1,124h1.3v-1.4h-1.3V124z M33.1,119.1h1.3v-1.4h-1.3V119.1z M18.6,95.6h2.7
		v-2.9h-2.7V95.6z M18.6,90.8h2.7v-2.9h-2.7V90.8z M18.6,85.9h2.7v-2.9h-2.7V85.9z M42.8,99.2h0.3v-0.4h-0.3V99.2z M42.8,94.4h0.3
		V94h-0.3V94.4z M38.2,104.1h0.3v-0.4h-0.3V104.1z M38.2,99.2h0.3v-0.4h-0.3V99.2z M38.2,94.4h0.3V94h-0.3V94.4z M33.6,113.8H34
		v-0.4h-0.3V113.8z M33.6,108.9H34v-0.4h-0.3V108.9z M33.6,104.1H34v-0.4h-0.3V104.1z M33.6,99.2H34v-0.4h-0.3V99.2z M33.6,94.4H34
		V94h-0.3V94.4z M29,118.6h0.3v-0.4H29V118.6z M29,113.8h0.3v-0.4H29V113.8z M29,108.9h0.3v-0.4H29V108.9z M29,104.1h0.3v-0.4H29
		V104.1z M29,99.2h0.3v-0.4H29V99.2z M29,94.4h0.3V94H29V94.4z M24.4,113.8h0.3v-0.4h-0.3V113.8z M24.4,108.9h0.3v-0.4h-0.3V108.9z
		 M24.4,104.1h0.3v-0.4h-0.3V104.1z M24.4,99.2h0.3v-0.4h-0.3V99.2z M24.4,94.4h0.3V94h-0.3V94.4z M19.8,99.2h0.3v-0.4h-0.3V99.2z
		 M15.2,94.4h0.3V94h-0.3V94.4z M33.6,89.5H34v-0.4h-0.3V89.5z M29,89.5h0.3v-0.4H29V89.5z M29,84.7h0.3v-0.4H29V84.7z M24.4,89.5
		h0.3v-0.4h-0.3V89.5z M24.4,84.7h0.3v-0.4h-0.3V84.7z M15.2,89.5h0.3v-0.4h-0.3V89.5z M15.2,84.7h0.3v-0.4h-0.3V84.7z M10.6,89.5
		h0.3v-0.4h-0.3V89.5z M10.6,84.7h0.3v-0.4h-0.3V84.7z M6,89.5h0.3v-0.4H6V89.5z M6,84.7h0.3v-0.4H6V84.7z M111.6,143.1h0.8v-0.9
		h-0.8V143.1z M111.6,138.3h0.8v-0.9h-0.8V138.3z M111.6,133.4h0.8v-0.9h-0.8V133.4z M111.6,128.6h0.8v-0.9h-0.8V128.6z
		 M111.6,123.7h0.8v-0.9h-0.8V123.7z M111.6,118.9h0.8V118h-0.8V118.9z M107,148h0.8v-0.9H107V148z M107,143.1h0.8v-0.9H107V143.1z
		 M107,138.3h0.8v-0.9H107V138.3z M107,133.4h0.8v-0.9H107V133.4z M107,128.6h0.8v-0.9H107V128.6z M107,123.7h0.8v-0.9H107V123.7z
		 M107,118.9h0.8V118H107V118.9z M102.4,148h0.8v-0.9h-0.8V148z M102.4,143.1h0.8v-0.9h-0.8V143.1z M102.4,138.3h0.8v-0.9h-0.8
		V138.3z M102.4,133.4h0.8v-0.9h-0.8V133.4z M102.4,128.6h0.8v-0.9h-0.8V128.6z M102.4,123.7h0.8v-0.9h-0.8V123.7z M102.4,118.9h0.8
		V118h-0.8V118.9z M97.8,148h0.8v-0.9h-0.8V148z M97.8,143.1h0.8v-0.9h-0.8V143.1z M97.8,138.3h0.8v-0.9h-0.8V138.3z M97.8,133.4
		h0.8v-0.9h-0.8V133.4z M97.8,128.6h0.8v-0.9h-0.8V128.6z M93.2,148H94v-0.9h-0.8V148z M93.2,143.1H94v-0.9h-0.8V143.1z M93.2,138.3
		H94v-0.9h-0.8V138.3z M93.2,133.4H94v-0.9h-0.8V133.4z M88.6,148h0.8v-0.9h-0.8V148z M88.6,143.1h0.8v-0.9h-0.8V143.1z M88.6,138.3
		h0.8v-0.9h-0.8V138.3z M88.6,133.4h0.8v-0.9h-0.8V133.4z M84,148h0.8v-0.9H84V148z M84,143.1h0.8v-0.9H84V143.1z M84,138.3h0.8
		v-0.9H84V138.3z M79.4,148h0.8v-0.9h-0.8V148z M79.4,143.1h0.8v-0.9h-0.8V143.1z M74.8,148h0.8v-0.9h-0.8V148z M74.8,143.1h0.8
		v-0.9h-0.8V143.1z M70.2,148H71v-0.9h-0.8V148z M70.2,143.1H71v-0.9h-0.8V143.1z M65.6,148h0.8v-0.9h-0.8V148z M65.6,143.1h0.8
		v-0.9h-0.8V143.1z M61,148h0.8v-0.9H61V148z M61,143.1h0.8v-0.9H61V143.1z M56.4,148h0.8v-0.9h-0.8C56.4,147.1,56.4,148,56.4,148z
		 M56.4,143.1h0.8v-0.9h-0.8C56.4,142.3,56.4,143.1,56.4,143.1z M51.8,148h0.8v-0.9h-0.8V148z M51.8,143.1h0.8v-0.9h-0.8V143.1z
		 M97.6,109.4h1.3v-1.4h-1.3V109.4z M97.6,104.6h1.3v-1.4h-1.3V104.6z M93,109.4h1.3v-1.4H93V109.4z M93,104.6h1.3v-1.4H93V104.6z
		 M88.4,114.3h1.3v-1.4h-1.3V114.3z M88.4,109.4h1.3v-1.4h-1.3V109.4z M83.8,114.3h1.3v-1.4h-1.3V114.3z M83.8,109.4h1.3v-1.4h-1.3
		V109.4z M79.2,119.1h1.3v-1.4h-1.3V119.1z M110.9,114.8h2.2v-2.4h-2.2V114.8z M106.3,114.8h2.2v-2.4h-2.2V114.8z M106.3,109.9h2.2
		v-2.4h-2.2V109.9z M101.7,114.8h2.2v-2.4h-2.2V114.8z M101.7,109.9h2.2v-2.4h-2.2V109.9z M101.7,105.1h2.2v-2.4h-2.2V105.1z
		 M97.1,124.5h2.2v-2.4h-2.2V124.5z M97.1,119.6h2.2v-2.4h-2.2V119.6z M97.1,114.8h2.2v-2.4h-2.2V114.8z M97.1,100.2h2.2v-2.4h-2.2
		V100.2z M92.5,129.3h2.2V127h-2.2V129.3z M92.5,124.5h2.2v-2.4h-2.2V124.5z M92.5,119.6h2.2v-2.4h-2.2V119.6z M92.5,114.8h2.2v-2.4
		h-2.2V114.8z M92.5,100.2h2.2v-2.4h-2.2V100.2z M87.9,129.3h2.2V127h-2.2V129.3z M87.9,124.5h2.2v-2.4h-2.2V124.5z M87.9,119.6h2.2
		v-2.4h-2.2V119.6z M87.9,105.1h2.2v-2.4h-2.2V105.1z M87.9,100.2h2.2v-2.4h-2.2V100.2z M83.3,119.6h2.2v-2.4h-2.2V119.6z
		 M83.3,105.1h2.2v-2.4h-2.2V105.1z M83.3,100.2h2.2v-2.4h-2.2V100.2z M78.7,114.8h2.2v-2.4h-2.2V114.8z M78.7,109.9h2.2v-2.4h-2.2
		V109.9z M78.7,105.1h2.2v-2.4h-2.2V105.1z M74.1,119.6h2.2v-2.4h-2.2V119.6z M74.1,114.8h2.2v-2.4h-2.2V114.8z M74.1,109.9h2.2
		v-2.4h-2.2V109.9z M74.1,105.1h2.2v-2.4h-2.2V105.1z M69.5,114.8h2.2v-2.4h-2.2V114.8z M69.5,109.9h2.2v-2.4h-2.2V109.9z
		 M69.5,105.1h2.2v-2.4h-2.2V105.1z M83.1,95.6h2.7v-2.9h-2.7V95.6z M78.5,100.5h2.7v-2.9h-2.7V100.5z M78.5,95.6h2.7v-2.9h-2.7
		V95.6z M73.9,100.5h2.7v-2.9h-2.7V100.5z M73.9,95.6h2.7v-2.9h-2.7V95.6z M69.3,100.5H72v-2.9h-2.7V100.5z M69.3,95.6H72v-2.9h-2.7
		V95.6z M96.9,81.1h2.7v-2.9h-2.7V81.1z M92.3,81.1H95v-2.9h-2.7V81.1z M92.3,76.2H95v-2.9h-2.7V76.2z M87.7,85.9h2.7v-2.9h-2.7
		V85.9z M87.7,81.1h2.7v-2.9h-2.7V81.1z M87.7,76.2h2.7v-2.9h-2.7V76.2z M87.7,71.4h2.7v-2.9h-2.7V71.4z M83.1,90.8h2.7v-2.9h-2.7
		V90.8z M83.1,85.9h2.7v-2.9h-2.7V85.9z M83.1,81.1h2.7v-2.9h-2.7V81.1z M83.1,76.2h2.7v-2.9h-2.7V76.2z M83.1,71.4h2.7v-2.9h-2.7
		V71.4z M78.5,90.8h2.7v-2.9h-2.7V90.8z M78.5,85.9h2.7v-2.9h-2.7V85.9z M78.5,81.1h2.7v-2.9h-2.7V81.1z M78.5,76.2h2.7v-2.9h-2.7
		V76.2z M78.5,71.4h2.7v-2.9h-2.7V71.4z M73.9,90.8h2.7v-2.9h-2.7V90.8z M73.9,85.9h2.7v-2.9h-2.7V85.9z M73.9,81.1h2.7v-2.9h-2.7
		V81.1z M73.9,76.2h2.7v-2.9h-2.7V76.2z M73.9,71.4h2.7v-2.9h-2.7V71.4z M69.3,85.9H72v-2.9h-2.7V85.9z M69.3,81.1H72v-2.9h-2.7
		V81.1z M69.3,76.2H72v-2.9h-2.7V76.2z M69.3,71.4H72v-2.9h-2.7V71.4z M64.7,85.9h2.7v-2.9h-2.7V85.9z M64.7,81.1h2.7v-2.9h-2.7
		V81.1z M64.7,76.2h2.7v-2.9h-2.7V76.2z M64.7,71.4h2.7v-2.9h-2.7V71.4z M60.1,81.1h2.7v-2.9h-2.7V81.1z M60.1,76.2h2.7v-2.9h-2.7
		V76.2z M60.1,71.4h2.7v-2.9h-2.7V71.4z M27.8,42.3h2.7v-2.9h-2.7C27.8,39.4,27.8,42.3,27.8,42.3z M27.8,37.4h2.7v-2.9h-2.7
		C27.8,34.6,27.8,37.4,27.8,37.4z M23.2,42.3h2.7v-2.9h-2.7V42.3z M23.2,37.4h2.7v-2.9h-2.7V37.4z M23.2,32.6h2.7v-2.9h-2.7V32.6z
		 M18.6,42.3h2.7v-2.9h-2.7V42.3z M18.6,37.4h2.7v-2.9h-2.7V37.4z M18.6,32.6h2.7v-2.9h-2.7V32.6z M18.6,27.7h2.7v-2.9h-2.7V27.7z
		 M18.6,22.9h2.7V20h-2.7C18.6,20,18.6,22.9,18.6,22.9z M14,42.3h2.7v-2.9H14V42.3z M14,37.4h2.7v-2.9H14V37.4z M14,32.6h2.7v-2.9
		H14V32.6z M14,27.7h2.7v-2.9H14V27.7z M14,22.9h2.7V20H14C14,20,14,22.9,14,22.9z M14,18h2.7v-2.9H14V18z M9.4,42.3h2.7v-2.9H9.4
		C9.4,39.4,9.4,42.3,9.4,42.3z M9.4,37.4h2.7v-2.9H9.4C9.4,34.6,9.4,37.4,9.4,37.4z M9.4,18h2.7v-2.9H9.4C9.4,15.1,9.4,18,9.4,18z
		 M9.4,13.2h2.7v-2.9H9.4C9.4,10.3,9.4,13.2,9.4,13.2z M4.8,42.3h2.7v-2.9H4.8C4.8,39.4,4.8,42.3,4.8,42.3z M4.8,13.2h2.7v-2.9H4.8
		C4.8,10.3,4.8,13.2,4.8,13.2z M4.8,8.3h2.7V5.4H4.8C4.8,5.4,4.8,8.3,4.8,8.3z M32.9,3h1.8V1.1h-1.8C32.9,1.1,32.9,3,32.9,3z
		 M28.3,17.5h1.8v-1.9h-1.8V17.5z M28.3,12.7h1.8v-1.9h-1.8V12.7z M28.3,7.8h1.8V5.9h-1.8V7.8z M28.3,3h1.8V1.1h-1.8
		C28.3,1.1,28.3,3,28.3,3z M23.7,27.2h1.8v-1.9h-1.8V27.2z M23.7,22.4h1.8v-1.9h-1.8V22.4z M23.7,17.5h1.8v-1.9h-1.8V17.5z
		 M23.7,12.7h1.8v-1.9h-1.8V12.7z M23.7,7.8h1.8V5.9h-1.8V7.8z M23.7,3h1.8V1.1h-1.8C23.7,1.1,23.7,3,23.7,3z M19.1,17.5h1.8v-1.9
		h-1.8V17.5z M19.1,12.7h1.8v-1.9h-1.8V12.7z M19.1,7.8h1.8V5.9h-1.8V7.8z M19.1,3h1.8V1.1h-1.8C19.1,1.1,19.1,3,19.1,3z M14.5,12.7
		h1.8v-1.9h-1.8V12.7z M14.5,7.8h1.8V5.9h-1.8V7.8z M14.5,3h1.8V1.1h-1.8C14.5,1.1,14.5,3,14.5,3z M9.9,7.8h1.8V5.9H9.9V7.8z M9.9,3
		h1.8V1.1H9.9C9.9,1.1,9.9,3,9.9,3z M5.3,3h1.8V1.1H5.3C5.3,1.1,5.3,3,5.3,3z M134.7,31.6h0.8v-0.9h-0.8V31.6z M134.7,17h0.8v-0.9
		h-0.8V17z M134.7,12.2h0.8v-0.9h-0.8V12.2z M130.1,31.6h0.8v-0.9h-0.8V31.6z M130.1,26.7h0.8v-0.9h-0.8V26.7z M130.1,21.9h0.8V21
		h-0.8V21.9z M130.1,17h0.8v-0.9h-0.8V17z M130.1,12.2h0.8v-0.9h-0.8V12.2z M130.1,7.3h0.8V6.4h-0.8V7.3z M125.4,31.6h0.8v-0.9h-0.8
		V31.6z M125.4,26.7h0.8v-0.9h-0.8V26.7z M125.4,21.9h0.8V21h-0.8V21.9z M125.4,17h0.8v-0.9h-0.8V17z M125.4,12.2h0.8v-0.9h-0.8
		V12.2z M125.4,7.3h0.8V6.4h-0.8V7.3z M125.4,2.5h0.8V1.6h-0.8V2.5z M120.8,31.6h0.8v-0.9h-0.8V31.6z M120.8,26.7h0.8v-0.9h-0.8
		V26.7z M120.8,21.9h0.8V21h-0.8V21.9z M120.8,12.2h0.8v-0.9h-0.8V12.2z M120.8,7.3h0.8V6.4h-0.8V7.3z M120.8,2.5h0.8V1.6h-0.8V2.5z
		 M116.2,12.2h0.8v-0.9h-0.8V12.2z M116.2,7.3h0.8V6.4h-0.8V7.3z M116.2,2.5h0.8V1.6h-0.8V2.5z M111.6,12.2h0.8v-0.9h-0.8V12.2z
		 M111.6,7.3h0.8V6.4h-0.8V7.3z M111.6,2.5h0.8V1.6h-0.8V2.5z M107,12.2h0.8v-0.9H107V12.2z M107,2.5h0.8V1.6H107V2.5z M102.4,2.5
		h0.8V1.6h-0.8V2.5z M120.1,17.8h2.2v-2.4h-2.2V17.8z M115.5,17.8h2.2v-2.4h-2.2V17.8z M110.9,17.8h2.2v-2.4h-2.2V17.8z M106.3,22.6
		h2.2v-2.4h-2.2V22.6z M106.3,17.8h2.2v-2.4h-2.2V17.8z M106.3,8.1h2.2V5.7h-2.2V8.1z M101.7,22.6h2.2v-2.4h-2.2V22.6z M101.7,17.8
		h2.2v-2.4h-2.2V17.8z M101.7,12.9h2.2v-2.4h-2.2V12.9z M101.7,8.1h2.2V5.7h-2.2V8.1z M97.1,22.6h2.2v-2.4h-2.2V22.6z M97.1,17.8
		h2.2v-2.4h-2.2V17.8z M97.1,12.9h2.2v-2.4h-2.2V12.9z M97.1,8.1h2.2V5.7h-2.2V8.1z M97.1,3.2h2.2V0.8h-2.2V3.2z M92.5,17.8h2.2
		v-2.4h-2.2V17.8z M92.5,12.9h2.2v-2.4h-2.2V12.9z M92.5,8.1h2.2V5.7h-2.2V8.1z M92.5,3.2h2.2V0.8h-2.2V3.2z M87.9,12.9h2.2v-2.4
		h-2.2V12.9z M87.9,8.1h2.2V5.7h-2.2V8.1z M87.9,3.2h2.2V0.8h-2.2V3.2z M83.3,8.1h2.2V5.7h-2.2V8.1z M83.3,3.2h2.2V0.8h-2.2V3.2z
		 M78.7,8.1h2.2V5.7h-2.2V8.1z M78.7,3.2h2.2V0.8h-2.2V3.2z M74.1,8.1h2.2V5.7h-2.2V8.1z M74.1,3.2h2.2V0.8h-2.2V3.2z M69.5,3.2h2.2
		V0.8h-2.2V3.2z M64.9,3.2h2.2V0.8h-2.2V3.2z M60.3,3.2h2.2V0.8h-2.2V3.2z M105.9,32.8h3.2v-3.4h-3.2V32.8z M105.9,28h3.2v-3.4h-3.2
		V28z M101.2,37.7h3.2v-3.4h-3.2V37.7z M101.2,32.8h3.2v-3.4h-3.2V32.8z M101.2,28h3.2v-3.4h-3.2V28z M96.6,32.8h3.2v-3.4h-3.2V32.8
		z M96.6,28h3.2v-3.4h-3.2V28z M92,32.8h3.2v-3.4H92V32.8z M92,28h3.2v-3.4H92V28z M92,23.1h3.2v-3.4H92V23.1z M87.4,37.7h3.2v-3.4
		h-3.2V37.7z M87.4,32.8h3.2v-3.4h-3.2V32.8z M87.4,28h3.2v-3.4h-3.2V28z M87.4,23.1h3.2v-3.4h-3.2V23.1z M87.4,18.3h3.2v-3.4h-3.2
		V18.3z M82.8,37.7H86v-3.4h-3.2V37.7z M82.8,32.8H86v-3.4h-3.2V32.8z M82.8,28H86v-3.4h-3.2V28z M82.8,23.1H86v-3.4h-3.2V23.1z
		 M82.8,18.3H86v-3.4h-3.2V18.3z M82.8,13.4H86V10h-3.2V13.4z M78.2,37.7h3.2v-3.4h-3.2V37.7z M78.2,32.8h3.2v-3.4h-3.2V32.8z
		 M78.2,28h3.2v-3.4h-3.2V28z M78.2,18.3h3.2v-3.4h-3.2V18.3z M78.2,13.4h3.2V10h-3.2V13.4z M73.6,32.8h3.2v-3.4h-3.2V32.8z
		 M73.6,18.3h3.2v-3.4h-3.2V18.3z M73.6,13.4h3.2V10h-3.2V13.4z M69,18.3h3.2v-3.4H69V18.3z M69,13.4h3.2V10H69V13.4z M69,8.6h3.2
		V5.2H69V8.6z M64.4,18.3h3.2v-3.4h-3.2V18.3z M64.4,13.4h3.2V10h-3.2V13.4z M64.4,8.6h3.2V5.2h-3.2V8.6z M59.8,18.3H63v-3.4h-3.2
		V18.3z M59.8,13.4H63V10h-3.2V13.4z M59.8,8.6H63V5.2h-3.2V8.6z M55.2,13.4h3.2V10h-3.2C55.2,10,55.2,13.4,55.2,13.4z M52,41h0.3
		v-0.4H52V41z M47.4,41h0.3v-0.4h-0.3V41z M42.8,60.4h0.3v-0.4h-0.3V60.4z M42.8,55.6h0.3v-0.4h-0.3V55.6z M42.8,50.7h0.3v-0.4h-0.3
		V50.7z M42.8,45.9h0.3v-0.4h-0.3V45.9z M42.8,41h0.3v-0.4h-0.3V41z M38.2,45.9h0.3v-0.4h-0.3V45.9z M38.2,41h0.3v-0.4h-0.3V41z
		 M33.6,45.9H34v-0.4h-0.3V45.9z M33.6,41H34v-0.4h-0.3V41z M69.5,42h2.2v-2.4h-2.2V42z M64.9,66.3h2.2v-2.4h-2.2V66.3z M64.9,61.4
		h2.2v-2.4h-2.2V61.4z M64.9,56.6h2.2v-2.4h-2.2V56.6z M64.9,51.7h2.2v-2.4h-2.2V51.7z M64.9,46.9h2.2v-2.4h-2.2V46.9z M64.9,42h2.2
		v-2.4h-2.2V42z M64.9,37.2h2.2v-2.4h-2.2V37.2z M60.3,66.3h2.2v-2.4h-2.2V66.3z M60.3,61.4h2.2v-2.4h-2.2V61.4z M60.3,56.6h2.2
		v-2.4h-2.2V56.6z M60.3,51.7h2.2v-2.4h-2.2V51.7z M60.3,46.9h2.2v-2.4h-2.2V46.9z M60.3,42h2.2v-2.4h-2.2V42z M60.3,37.2h2.2v-2.4
		h-2.2V37.2z M60.3,32.3h2.2V30h-2.2V32.3z M55.7,61.4h2.2v-2.4h-2.2V61.4z M55.7,56.6h2.2v-2.4h-2.2V56.6z M55.7,51.7h2.2v-2.4
		h-2.2V51.7z M55.7,46.9h2.2v-2.4h-2.2V46.9z M55.7,42h2.2v-2.4h-2.2V42z M55.7,37.2h2.2v-2.4h-2.2V37.2z M55.7,32.3h2.2V30h-2.2
		V32.3z M51.1,51.7h2.2v-2.4h-2.2V51.7z M51.1,46.9h2.2v-2.4h-2.2V46.9z M51.1,37.2h2.2v-2.4h-2.2V37.2z M51.1,32.3h2.2V30h-2.2
		V32.3z M51.1,27.5h2.2v-2.4h-2.2V27.5z M51.1,22.6h2.2v-2.4h-2.2V22.6z M46.5,51.7h2.2v-2.4h-2.2V51.7z M46.5,46.9h2.2v-2.4h-2.2
		V46.9z M46.5,37.2h2.2v-2.4h-2.2V37.2z M46.5,32.3h2.2V30h-2.2V32.3z M46.5,27.5h2.2v-2.4h-2.2V27.5z M46.5,22.6h2.2v-2.4h-2.2
		V22.6z M166.6,12.4h1.3V11h-1.3V12.4z M166.6,7.6h1.3V6.2h-1.3V7.6z M166.6,2.7h1.3V1.3h-1.3C166.6,1.3,166.6,2.7,166.6,2.7z
		 M162,12.4h1.3V11H162V12.4z M162,7.6h1.3V6.2H162V7.6z M162,2.7h1.3V1.3H162C162,1.3,162,2.7,162,2.7z M157.4,12.4h1.3V11h-1.3
		V12.4z M157.4,7.6h1.3V6.2h-1.3V7.6z M157.4,2.7h1.3V1.3h-1.3C157.4,1.3,157.4,2.7,157.4,2.7z M152.8,12.4h1.3V11h-1.3V12.4z
		 M152.8,7.6h1.3V6.2h-1.3V7.6z M152.8,2.7h1.3V1.3h-1.3C152.8,1.3,152.8,2.7,152.8,2.7z M148.2,12.4h1.3V11h-1.3V12.4z M148.2,7.6
		h1.3V6.2h-1.3V7.6z M148.2,2.7h1.3V1.3h-1.3C148.2,1.3,148.2,2.7,148.2,2.7z M143.6,12.4h1.3V11h-1.3V12.4z M143.6,7.6h1.3V6.2
		h-1.3V7.6z M143.6,2.7h1.3V1.3h-1.3V2.7z M139,12.4h1.3V11H139V12.4z M139,7.6h1.3V6.2H139V7.6z M139,2.7h1.3V1.3H139V2.7z
		 M134.4,7.6h1.3V6.2h-1.3V7.6z M134.4,2.7h1.3V1.3h-1.3V2.7z M129.8,2.7h1.3V1.3h-1.3V2.7z M170.5,22.9h2.7V20h-2.7V22.9z
		 M170.5,18h2.7v-2.9h-2.7V18z M165.9,27.7h2.7v-2.9h-2.7V27.7z M165.9,22.9h2.7V20h-2.7C165.9,20,165.9,22.9,165.9,22.9z M165.9,18
		h2.7v-2.9h-2.7V18z M161.3,32.6h2.7v-2.9h-2.7V32.6z M161.3,27.7h2.7v-2.9h-2.7V27.7z M161.3,22.9h2.7V20h-2.7
		C161.3,20,161.3,22.9,161.3,22.9z M161.3,18h2.7v-2.9h-2.7V18z M156.7,32.6h2.7v-2.9h-2.7V32.6z M156.7,27.7h2.7v-2.9h-2.7V27.7z
		 M156.7,22.9h2.7V20h-2.7C156.7,20,156.7,22.9,156.7,22.9z M156.7,18h2.7v-2.9h-2.7V18z M152.1,37.4h2.7v-2.9h-2.7V37.4z
		 M152.1,32.6h2.7v-2.9h-2.7V32.6z M152.1,27.7h2.7v-2.9h-2.7V27.7z M152.1,22.9h2.7V20h-2.7C152.1,20,152.1,22.9,152.1,22.9z
		 M152.1,18h2.7v-2.9h-2.7V18z M147.5,32.6h2.7v-2.9h-2.7V32.6z M147.5,27.7h2.7v-2.9h-2.7V27.7z M147.5,22.9h2.7V20h-2.7
		C147.5,20,147.5,22.9,147.5,22.9z M147.5,18h2.7v-2.9h-2.7V18z M142.9,32.6h2.7v-2.9h-2.7V32.6z M142.9,27.7h2.7v-2.9h-2.7V27.7z
		 M142.9,22.9h2.7V20h-2.7C142.9,20,142.9,22.9,142.9,22.9z M142.9,18h2.7v-2.9h-2.7V18z M138.3,32.6h2.7v-2.9h-2.7V32.6z
		 M138.3,27.7h2.7v-2.9h-2.7V27.7z M138.3,22.9h2.7V20h-2.7C138.3,20,138.3,22.9,138.3,22.9z M138.3,18h2.7v-2.9h-2.7V18z
		 M133.7,27.7h2.7v-2.9h-2.7V27.7z M133.7,22.9h2.7V20h-2.7C133.7,20,133.7,22.9,133.7,22.9z M175.6,36.9h1.8v-1.9h-1.8V36.9z
		 M175.6,32.1h1.8v-1.9h-1.8V32.1z M175.6,27.2h1.8v-1.9h-1.8V27.2z M171,41.8h1.8v-1.9H171V41.8z M171,36.9h1.8v-1.9H171
		C171,35.1,171,36.9,171,36.9z M171,32.1h1.8v-1.9H171V32.1z M171,27.2h1.8v-1.9H171V27.2z M166.4,51.5h1.8v-1.9h-1.8V51.5z
		 M166.4,46.6h1.8v-1.9h-1.8V46.6z M166.4,41.8h1.8v-1.9h-1.8V41.8z M166.4,36.9h1.8v-1.9h-1.8C166.4,35.1,166.4,36.9,166.4,36.9z
		 M166.4,32.1h1.8v-1.9h-1.8V32.1z M161.8,51.5h1.8v-1.9h-1.8V51.5z M161.8,46.6h1.8v-1.9h-1.8V46.6z M161.8,41.8h1.8v-1.9h-1.8
		V41.8z M161.8,36.9h1.8v-1.9h-1.8C161.8,35.1,161.8,36.9,161.8,36.9z M157.2,51.5h1.8v-1.9h-1.8V51.5z M157.2,46.6h1.8v-1.9h-1.8
		V46.6z M157.2,41.8h1.8v-1.9h-1.8V41.8z M157.2,36.9h1.8v-1.9h-1.8C157.2,35.1,157.2,36.9,157.2,36.9z M152.6,51.5h1.8v-1.9h-1.8
		V51.5z M152.6,46.6h1.8v-1.9h-1.8V46.6z M152.6,41.8h1.8v-1.9h-1.8V41.8z M148,51.5h1.8v-1.9H148V51.5z M148,46.6h1.8v-1.9H148
		V46.6z M148,41.8h1.8v-1.9H148V41.8z M148,36.9h1.8v-1.9H148C148,35.1,148,36.9,148,36.9z M143.4,51.5h1.8v-1.9h-1.8V51.5z
		 M143.4,46.6h1.8v-1.9h-1.8V46.6z M143.4,41.8h1.8v-1.9h-1.8V41.8z M143.4,36.9h1.8v-1.9h-1.8V36.9z M138.8,51.5h1.8v-1.9h-1.8
		V51.5z M138.8,46.6h1.8v-1.9h-1.8V46.6z M138.8,41.8h1.8v-1.9h-1.8V41.8z M138.8,36.9h1.8v-1.9h-1.8V36.9z M134.2,46.6h1.8v-1.9
		h-1.8V46.6z M134.2,41.8h1.8v-1.9h-1.8V41.8z M134.2,36.9h1.8v-1.9h-1.8V36.9z M129.6,46.6h1.8v-1.9h-1.8V46.6z M129.6,41.8h1.8
		v-1.9h-1.8V41.8z M129.6,36.9h1.8v-1.9h-1.8V36.9z M125,41.8h1.8v-1.9H125V41.8z M125,36.9h1.8v-1.9H125V36.9z M120.4,41.8h1.8
		v-1.9h-1.8V41.8z M120.4,36.9h1.8v-1.9h-1.8V36.9z M171.2,56.1h1.3v-1.4h-1.3V56.1z M166.6,80.3h1.3V79h-1.3V80.3z M166.6,75.5h1.3
		v-1.4h-1.3V75.5z M166.6,70.6h1.3v-1.4h-1.3V70.6z M166.6,65.8h1.3v-1.4h-1.3V65.8z M166.6,60.9h1.3v-1.4h-1.3V60.9z M166.6,56.1
		h1.3v-1.4h-1.3V56.1z M162,80.3h1.3V79H162V80.3z M162,75.5h1.3v-1.4H162V75.5z M162,70.6h1.3v-1.4H162V70.6z M162,65.8h1.3v-1.4
		H162V65.8z M162,60.9h1.3v-1.4H162V60.9z M162,56.1h1.3v-1.4H162V56.1z M157.4,75.5h1.3v-1.4h-1.3V75.5z M157.4,70.6h1.3v-1.4h-1.3
		V70.6z M157.4,65.8h1.3v-1.4h-1.3V65.8z M157.4,60.9h1.3v-1.4h-1.3V60.9z M157.4,56.1h1.3v-1.4h-1.3V56.1z M152.8,60.9h1.3v-1.4
		h-1.3V60.9z M152.8,56.1h1.3v-1.4h-1.3V56.1z M147.5,100.5h2.7v-2.9h-2.7V100.5z M147.5,95.6h2.7v-2.9h-2.7V95.6z M142.9,100.5h2.7
		v-2.9h-2.7V100.5z M142.9,95.6h2.7v-2.9h-2.7V95.6z M138.3,100.5h2.7v-2.9h-2.7V100.5z M138.3,95.6h2.7v-2.9h-2.7V95.6z
		 M152.1,76.2h2.7v-2.9h-2.7V76.2z M152.1,71.4h2.7v-2.9h-2.7V71.4z M152.1,66.5h2.7v-2.9h-2.7V66.5z M147.5,90.8h2.7v-2.9h-2.7
		V90.8z M147.5,85.9h2.7v-2.9h-2.7V85.9z M147.5,81.1h2.7v-2.9h-2.7V81.1z M147.5,76.2h2.7v-2.9h-2.7V76.2z M147.5,71.4h2.7v-2.9
		h-2.7V71.4z M147.5,66.5h2.7v-2.9h-2.7V66.5z M147.5,61.7h2.7v-2.9h-2.7V61.7z M147.5,56.8h2.7V54h-2.7V56.8z M142.9,90.8h2.7v-2.9
		h-2.7V90.8z M142.9,85.9h2.7v-2.9h-2.7V85.9z M142.9,81.1h2.7v-2.9h-2.7V81.1z M142.9,76.2h2.7v-2.9h-2.7V76.2z M142.9,71.4h2.7
		v-2.9h-2.7V71.4z M138.3,66.5h2.7v-2.9h-2.7V66.5z M142.9,66.5h2.7v-2.9h-2.7V66.5z M142.9,61.7h2.7v-2.9h-2.7V61.7z M142.9,56.8
		h2.7V54h-2.7V56.8z M138.3,90.8h2.7v-2.9h-2.7V90.8z M138.3,85.9h2.7v-2.9h-2.7V85.9z M138.3,81.1h2.7v-2.9h-2.7V81.1z M138.3,76.2
		h2.7v-2.9h-2.7V76.2z M138.3,71.4h2.7v-2.9h-2.7V71.4z M138.3,61.7h2.7v-2.9h-2.7V61.7z M138.3,56.8h2.7V54h-2.7V56.8z M125.4,80.1
		h0.8v-0.9h-0.8V80.1z M120.8,84.9h0.8v-0.9h-0.8V84.9z M120.8,80.1h0.8v-0.9h-0.8V80.1z M120.8,75.2h0.8v-0.9h-0.8V75.2z
		 M116.2,84.9h0.8v-0.9h-0.8V84.9z M116.2,80.1h0.8v-0.9h-0.8V80.1z M116.2,75.2h0.8v-0.9h-0.8V75.2z M116.2,70.4h0.8v-0.9h-0.8
		V70.4z M111.6,80.1h0.8v-0.9h-0.8V80.1z M111.6,75.2h0.8v-0.9h-0.8V75.2z M111.6,70.4h0.8v-0.9h-0.8V70.4z M107,80.1h0.8v-0.9H107
		V80.1z M107,75.2h0.8v-0.9H107V75.2z M107,70.4h0.8v-0.9H107V70.4z M102.4,75.2h0.8v-0.9h-0.8V75.2z M128.9,100.7h3.2v-3.4h-3.2
		V100.7z M128.9,95.9h3.2v-3.4h-3.2V95.9z M124.3,100.7h3.2v-3.4h-3.2V100.7z M124.3,95.9h3.2v-3.4h-3.2V95.9z M133.5,86.2h3.2v-3.4
		h-3.2V86.2z M133.5,81.3h3.2V78h-3.2V81.3z M133.5,76.5h3.2v-3.4h-3.2V76.5z M133.5,71.6h3.2v-3.4h-3.2V71.6z M133.5,66.8h3.2v-3.4
		h-3.2V66.8z M133.5,61.9h3.2v-3.4h-3.2V61.9z M128.9,91h3.2v-3.4h-3.2V91z M128.9,86.2h3.2v-3.4h-3.2V86.2z M128.9,81.3h3.2V78
		h-3.2V81.3z M128.9,76.5h3.2v-3.4h-3.2V76.5z M124.3,91h3.2v-3.4h-3.2V91z M124.3,86.2h3.2v-3.4h-3.2V86.2z M124.3,76.5h3.2v-3.4
		h-3.2V76.5z M101.2,81.3h3.2V78h-3.2V81.3z M101.2,71.6h3.2v-3.4h-3.2V71.6z M96.6,76.5h3.2v-3.4h-3.2V76.5z M96.6,71.6h3.2v-3.4
		h-3.2V71.6z M96.6,66.8h3.2v-3.4h-3.2V66.8z M92,71.6h3.2v-3.4H92V71.6z M134.4,56.1h1.3v-1.4h-1.3V56.1z M134.4,51.2h1.3v-1.4
		h-1.3V51.2z M129.8,60.9h1.3v-1.4h-1.3V60.9z M129.8,56.1h1.3v-1.4h-1.3V56.1z M129.8,51.2h1.3v-1.4h-1.3V51.2z M125.2,56.1h1.3
		v-1.4h-1.3V56.1z M125.2,51.2h1.3v-1.4h-1.3V51.2z M125.2,46.4h1.3V45h-1.3V46.4z M120.6,56.1h1.3v-1.4h-1.3V56.1z M120.6,51.2h1.3
		v-1.4h-1.3V51.2z M120.6,46.4h1.3V45h-1.3V46.4z M116,51.2h1.3v-1.4H116V51.2z M116,46.4h1.3V45H116V46.4z M116,41.5h1.3v-1.4H116
		V41.5z M116,36.7h1.3v-1.4H116V36.7z M116,31.8h1.3v-1.4H116V31.8z M116,27h1.3v-1.4H116V27z M116,22.1h1.3v-1.4H116V22.1z
		 M111.4,51.2h1.3v-1.4h-1.3V51.2z M111.4,46.4h1.3V45h-1.3V46.4z M111.4,41.5h1.3v-1.4h-1.3V41.5z M111.4,36.7h1.3v-1.4h-1.3V36.7z
		 M111.4,31.8h1.3v-1.4h-1.3V31.8z M111.4,27h1.3v-1.4h-1.3V27z M111.4,22.1h1.3v-1.4h-1.3V22.1z M106.8,46.4h1.3V45h-1.3V46.4z
		 M106.8,41.5h1.3v-1.4h-1.3V41.5z M106.8,36.7h1.3v-1.4h-1.3V36.7z M102.2,46.4h1.3V45h-1.3V46.4z M102.2,41.5h1.3v-1.4h-1.3V41.5z
		 M97.6,46.4h1.3V45h-1.3V46.4z M97.6,41.5h1.3v-1.4h-1.3V41.5z M97.6,36.7h1.3v-1.4h-1.3V36.7z M93,46.4h1.3V45H93V46.4z M93,41.5
		h1.3v-1.4H93V41.5z M93,36.7h1.3v-1.4H93V36.7z M88.4,41.5h1.3v-1.4h-1.3V41.5z M199.1,26.7h0.8v-0.9h-0.8V26.7z M194.5,31.6h0.8
		v-0.9h-0.8V31.6z M194.5,26.7h0.8v-0.9h-0.8V26.7z M189.9,36.4h0.8v-0.9h-0.8V36.4z M189.9,31.6h0.8v-0.9h-0.8V31.6z M189.9,26.7
		h0.8v-0.9h-0.8V26.7z M185.3,41.3h0.8v-0.9h-0.8V41.3z M185.3,36.4h0.8v-0.9h-0.8V36.4z M185.3,31.6h0.8v-0.9h-0.8V31.6z
		 M185.3,26.7h0.8v-0.9h-0.8V26.7z M180.7,41.3h0.8v-0.9h-0.8V41.3z M180.7,36.4h0.8v-0.9h-0.8V36.4z M180.7,31.6h0.8v-0.9h-0.8
		V31.6z M180.7,26.7h0.8v-0.9h-0.8V26.7z M180.7,21.9h0.8V21h-0.8V21.9z M180.7,17h0.8v-0.9h-0.8V17z M176.1,46.1h0.8v-0.9h-0.8
		V46.1z M176.1,41.3h0.8v-0.9h-0.8V41.3z M176.1,21.9h0.8V21h-0.8V21.9z M176.1,17h0.8v-0.9h-0.8V17z M171.5,51h0.8v-0.9h-0.8V51z
		 M171.5,46.1h0.8v-0.9h-0.8V46.1z M203.2,3h1.8V1.1h-1.8V3z M198.6,17.5h1.8v-1.9h-1.8V17.5z M198.6,12.7h1.8v-1.9h-1.8V12.7z
		 M198.6,7.8h1.8V5.9h-1.8V7.8z M198.6,3h1.8V1.1h-1.8V3z M194,22.4h1.8v-1.9H194V22.4z M194,17.5h1.8v-1.9H194V17.5z M194,12.7h1.8
		v-1.9H194V12.7z M194,7.8h1.8V5.9H194V7.8z M194,3h1.8V1.1H194V3z M189.4,22.4h1.8v-1.9h-1.8V22.4z M189.4,17.5h1.8v-1.9h-1.8V17.5
		z M189.4,12.7h1.8v-1.9h-1.8V12.7z M189.4,7.8h1.8V5.9h-1.8V7.8z M189.4,3h1.8V1.1h-1.8V3z M184.8,22.4h1.8v-1.9h-1.8V22.4z
		 M184.8,17.5h1.8v-1.9h-1.8V17.5z M184.8,12.7h1.8v-1.9h-1.8V12.7z M184.8,7.8h1.8V5.9h-1.8V7.8z M184.8,3h1.8V1.1h-1.8V3z
		 M180.2,12.7h1.8v-1.9h-1.8V12.7z M180.2,7.8h1.8V5.9h-1.8V7.8z M180.2,3h1.8V1.1h-1.8V3z M175.6,12.7h1.8v-1.9h-1.8V12.7z
		 M175.6,7.8h1.8V5.9h-1.8V7.8z M175.6,3h1.8V1.1h-1.8V3z M171,12.7h1.8v-1.9H171V12.7z M171,7.8h1.8V5.9H171V7.8z M171,3h1.8V1.1
		H171V3z M235.2,12.9h2.2v-2.4h-2.2V12.9z M235.2,8.1h2.2V5.7h-2.2V8.1z M235.2,3.2h2.2V0.8h-2.2V3.2z M230.6,12.9h2.2v-2.4h-2.2
		V12.9z M230.6,8.1h2.2V5.7h-2.2V8.1z M230.6,3.2h2.2V0.8h-2.2V3.2z M226,12.9h2.2v-2.4H226V12.9z M226,8.1h2.2V5.7H226V8.1z
		 M226,3.2h2.2V0.8H226V3.2z M221.4,8.1h2.2V5.7h-2.2V8.1z M221.4,3.2h2.2V0.8h-2.2V3.2z M216.8,8.1h2.2V5.7h-2.2V8.1z M216.8,3.2
		h2.2V0.8h-2.2V3.2z M234.7,32.8h2.7v-3.4h-2.7V32.8z M234.7,28h2.7v-3.4h-2.7V28z M234.7,23.1h2.7v-3.4h-2.7V23.1z M234.7,18.3h2.7
		v-3.4h-2.7V18.3z M230.1,32.8h3.2v-3.4h-3.2L230.1,32.8L230.1,32.8z M230.1,28h3.2v-3.4h-3.2L230.1,28L230.1,28z M230.1,23.1h3.2
		v-3.4h-3.2L230.1,23.1L230.1,23.1z M230.1,18.3h3.2v-3.4h-3.2L230.1,18.3L230.1,18.3z M225.5,28h3.2v-3.4h-3.2V28z M225.5,23.1h3.2
		v-3.4h-3.2V23.1z M225.5,18.3h3.2v-3.4h-3.2V18.3z M220.9,28h3.2v-3.4h-3.2V28z M220.9,23.1h3.2v-3.4h-3.2V23.1z M220.9,18.3h3.2
		v-3.4h-3.2V18.3z M220.9,13.4h3.2V10h-3.2V13.4z M216.3,28h3.2v-3.4h-3.2V28z M216.3,23.1h3.2v-3.4h-3.2V23.1z M216.3,18.3h3.2
		v-3.4h-3.2V18.3z M216.3,13.4h3.2V10h-3.2V13.4z M211.7,28h3.2v-3.4h-3.2V28z M211.7,23.1h3.2v-3.4h-3.2V23.1z M211.7,18.3h3.2
		v-3.4h-3.2V18.3z M211.7,13.4h3.2V10h-3.2V13.4z M207.1,28h3.2v-3.4h-3.2V28z M207.1,23.1h3.2v-3.4h-3.2V23.1z M207.1,18.3h3.2
		v-3.4h-3.2V18.3z M207.1,13.4h3.2V10h-3.2V13.4z M202.5,28h3.2v-3.4h-3.2V28z M202.5,23.1h3.2v-3.4h-3.2V23.1z M217.3,36.7h1.3
		v-1.4h-1.3V36.7z M212.7,36.7h1.3v-1.4h-1.3V36.7z M208.1,36.7h1.3v-1.4h-1.3V36.7z M208.1,31.8h1.3v-1.4h-1.3V31.8z M203.5,36.7
		h1.3v-1.4h-1.3V36.7z M203.5,31.8h1.3v-1.4h-1.3V31.8z M198.9,36.7h1.3v-1.4h-1.3V36.7z M198.9,31.8h1.3v-1.4h-1.3V31.8z
		 M194.3,36.7h1.3v-1.4h-1.3V36.7z M188.5,62.2h3.7v-3.9h-3.7V62.2z M188.5,57.3h3.7v-3.9h-3.7V57.3z M183.9,57.3h3.7v-3.9h-3.7
		V57.3z M183.9,52.5h3.7v-3.9h-3.7V52.5z M183.9,47.6h3.7v-3.9h-3.7V47.6z M179.3,52.5h3.7v-3.9h-3.7V52.5z M179.3,47.6h3.7v-3.9
		h-3.7V47.6z M235,47.1h2.5v-2.9H235V47.1z M235,42.3h2.5v-2.9H235V42.3z M235,37.4h2.5v-2.9H235V37.4z M230.4,47.1h2.7v-2.9h-2.7
		L230.4,47.1L230.4,47.1z M230.4,42.3h2.7v-2.9h-2.7L230.4,42.3L230.4,42.3z M230.4,37.4h2.7v-2.9h-2.7L230.4,37.4L230.4,37.4z
		 M225.8,42.3h2.7v-2.9h-2.7V42.3z M225.8,37.4h2.7v-2.9h-2.7V37.4z M225.8,32.6h2.7v-2.9h-2.7V32.6z M221.2,37.4h2.7v-2.9h-2.7
		V37.4z M221.2,32.6h2.7v-2.9h-2.7V32.6z M216.6,32.6h2.7v-2.9h-2.7V32.6z M212,32.6h2.7v-2.9H212V32.6z M193.5,52h2.7v-2.9h-2.7V52
		z M193.5,47.1h2.7v-2.9h-2.7V47.1z M193.5,42.3h2.7v-2.9h-2.7V42.3z M188.9,52h2.7v-2.9h-2.7V52z M188.9,47.1h2.7v-2.9h-2.7V47.1z
		 M188.9,42.3h2.7v-2.9h-2.7V42.3z M184.3,61.7h2.7v-2.9h-2.7V61.7z M179.7,71.4h2.7v-2.9h-2.7V71.4z M179.7,66.5h2.7v-2.9h-2.7
		V66.5z M179.7,61.7h2.7v-2.9h-2.7V61.7z M179.7,56.8h2.7V54h-2.7V56.8z M175.1,71.4h2.7v-2.9h-2.7V71.4z M175.1,66.5h2.7v-2.9h-2.7
		V66.5z M175.1,61.7h2.7v-2.9h-2.7V61.7z M175.1,56.8h2.7V54h-2.7V56.8z M175.1,52h2.7v-2.9h-2.7V52z M170.5,76.2h2.7v-2.9h-2.7
		V76.2z M170.5,71.4h2.7v-2.9h-2.7V71.4z M170.5,66.5h2.7v-2.9h-2.7V66.5z M170.5,61.7h2.7v-2.9h-2.7V61.7z M235.7,56.1h1.3v-1.4
		h-1.3V56.1z M231.1,56.1h1.3v-1.4h-1.3V56.1z M231.1,51.2h1.3v-1.4h-1.3V51.2z M226.5,56.1h1.3v-1.4h-1.3V56.1z M226.5,51.2h1.3
		v-1.4h-1.3V51.2z M221.9,56.1h1.3v-1.4h-1.3V56.1z M221.9,51.2h1.3v-1.4h-1.3V51.2z M221.9,46.4h1.3V45h-1.3V46.4z M217.3,56.1h1.3
		v-1.4h-1.3V56.1z M217.3,51.2h1.3v-1.4h-1.3V51.2z M217.3,46.4h1.3V45h-1.3V46.4z M217.3,41.5h1.3v-1.4h-1.3V41.5z M212.7,46.4h1.3
		V45h-1.3V46.4z M208.1,51.2h1.3v-1.4h-1.3V51.2z M235.2,76h2.2v-2.4h-2.2V76z M235.2,71.1h2.2v-2.4h-2.2V71.1z M235.2,66.3h2.2
		v-2.4h-2.2V66.3z M235.2,61.4h2.2v-2.4h-2.2V61.4z M235.2,51.7h2.2v-2.4h-2.2V51.7z M230.6,66.3h2.2v-2.4h-2.2V66.3z M230.6,61.4
		h2.2v-2.4h-2.2V61.4z M226,46.9h2.2v-2.4H226V46.9z M221.4,42h2.2v-2.4h-2.2V42z M212.2,56.6h2.2v-2.4h-2.2V56.6z M212.2,51.7h2.2
		v-2.4h-2.2V51.7z M212.2,42h2.2v-2.4h-2.2V42z M207.6,46.9h2.2v-2.4h-2.2V46.9z M207.6,42h2.2v-2.4h-2.2V42z M203,46.9h2.2v-2.4
		H203V46.9z M203,42h2.2v-2.4H203V42z M198.4,46.9h2.2v-2.4h-2.2V46.9z M198.4,42h2.2v-2.4h-2.2V42z M212.9,70.4h0.8v-0.9h-0.8V70.4
		z M208.3,70.4h0.8v-0.9h-0.8V70.4z M203.7,70.4h0.8v-0.9h-0.8V70.4z M203.7,65.5h0.8v-0.9h-0.8V65.5z M203.7,60.7h0.8v-0.9h-0.8
		V60.7z M203.7,55.8h0.8V55h-0.8V55.8z M199.1,70.4h0.8v-0.9h-0.8V70.4z M230.8,75.7h1.8v-1.9h-1.8V75.7z M230.8,70.9h1.8V69h-1.8
		V70.9z M226.2,85.4h1.8v-1.9h-1.8V85.4z M226.2,80.6h1.8v-1.9h-1.8V80.6z M226.2,75.7h1.8v-1.9h-1.8V75.7z M226.2,70.9h1.8V69h-1.8
		V70.9z M226.2,66h1.8v-1.9h-1.8V66z M226.2,61.2h1.8v-1.9h-1.8V61.2z M221.6,85.4h1.8v-1.9h-1.8V85.4z M221.6,80.6h1.8v-1.9h-1.8
		V80.6z M221.6,75.7h1.8v-1.9h-1.8V75.7z M221.6,70.9h1.8V69h-1.8V70.9z M221.6,66h1.8v-1.9h-1.8V66z M221.6,61.2h1.8v-1.9h-1.8
		V61.2z M217,75.7h1.8v-1.9H217V75.7z M217,70.9h1.8V69H217V70.9z M217,66h1.8v-1.9H217V66z M217,61.2h1.8v-1.9H217V61.2z
		 M212.4,75.7h1.8v-1.9h-1.8V75.7z M212.4,66h1.8v-1.9h-1.8V66z M212.4,61.2h1.8v-1.9h-1.8V61.2z M207.8,75.7h1.8v-1.9h-1.8V75.7z
		 M207.8,66h1.8v-1.9h-1.8V66z M207.8,61.2h1.8v-1.9h-1.8V61.2z M207.8,56.3h1.8v-1.9h-1.8V56.3z M203.2,75.7h1.8v-1.9h-1.8V75.7z
		 M203.2,51.5h1.8v-1.9h-1.8V51.5z M198.6,66h1.8v-1.9h-1.8V66z M198.6,61.2h1.8v-1.9h-1.8V61.2z M198.6,56.3h1.8v-1.9h-1.8V56.3z
		 M198.6,51.5h1.8v-1.9h-1.8V51.5z M194,61.2h1.8v-1.9H194V61.2z M194,56.3h1.8v-1.9H194V56.3z M217.3,85.2h1.3v-1.4h-1.3V85.2z
		 M217.3,80.3h1.3V79h-1.3V80.3z M212.7,90h1.3v-1.4h-1.3V90z M212.7,85.2h1.3v-1.4h-1.3V85.2z M212.7,80.3h1.3V79h-1.3V80.3z
		 M208.1,90h1.3v-1.4h-1.3V90z M208.1,85.2h1.3v-1.4h-1.3V85.2z M208.1,80.3h1.3V79h-1.3V80.3z M203.5,90h1.3v-1.4h-1.3V90z
		 M203.5,85.2h1.3v-1.4h-1.3V85.2z M203.5,80.3h1.3V79h-1.3V80.3z M198.9,90h1.3v-1.4h-1.3V90z M198.9,85.2h1.3v-1.4h-1.3V85.2z
		 M198.9,80.3h1.3V79h-1.3V80.3z M198.9,75.5h1.3v-1.4h-1.3V75.5z M194.3,90h1.3v-1.4h-1.3V90z M194.3,85.2h1.3v-1.4h-1.3V85.2z
		 M194.3,80.3h1.3V79h-1.3V80.3z M194.3,75.5h1.3v-1.4h-1.3V75.5z M194.3,70.6h1.3v-1.4h-1.3V70.6z M194.3,65.8h1.3v-1.4h-1.3V65.8z
		 M189.7,90h1.3v-1.4h-1.3V90z M189.7,85.2h1.3v-1.4h-1.3V85.2z M189.7,80.3h1.3V79h-1.3V80.3z M189.7,75.5h1.3v-1.4h-1.3V75.5z
		 M189.7,70.6h1.3v-1.4h-1.3V70.6z M189.7,65.8h1.3v-1.4h-1.3V65.8z M185.1,90h1.3v-1.4h-1.3V90z M185.1,85.2h1.3v-1.4h-1.3V85.2z
		 M185.1,80.3h1.3V79h-1.3V80.3z M185.1,75.5h1.3v-1.4h-1.3V75.5z M185.1,70.6h1.3v-1.4h-1.3V70.6z M185.1,65.8h1.3v-1.4h-1.3V65.8z
		 M180.5,90h1.3v-1.4h-1.3V90z M180.5,85.2h1.3v-1.4h-1.3V85.2z M180.5,80.3h1.3V79h-1.3V80.3z M180.5,75.5h1.3v-1.4h-1.3V75.5z
		 M175.8,85.2h1.3v-1.4h-1.3V85.2z M175.8,80.3h1.3V79h-1.3V80.3z M175.8,75.5h1.3v-1.4h-1.3V75.5z M171.2,85.2h1.3v-1.4h-1.3V85.2z
		 M171.2,80.3h1.3V79h-1.3V80.3z M208.3,99.5h0.8v-0.9h-0.8V99.5z M208.3,94.6h0.8v-0.9h-0.8V94.6z M203.7,99.5h0.8v-0.9h-0.8V99.5z
		 M203.7,94.6h0.8v-0.9h-0.8V94.6z M199.1,99.5h0.8v-0.9h-0.8V99.5z M199.1,94.6h0.8v-0.9h-0.8V94.6z M194.5,104.3h0.8v-0.9h-0.8
		V104.3z M194.5,99.5h0.8v-0.9h-0.8V99.5z M194.5,94.6h0.8v-0.9h-0.8V94.6z M189.9,109.2h0.8v-0.9h-0.8V109.2z M189.9,104.3h0.8
		v-0.9h-0.8V104.3z M189.9,99.5h0.8v-0.9h-0.8V99.5z M189.9,94.6h0.8v-0.9h-0.8V94.6z M185.3,114h0.8v-0.9h-0.8V114z M185.3,109.2
		h0.8v-0.9h-0.8V109.2z M185.3,104.3h0.8v-0.9h-0.8V104.3z M185.3,99.5h0.8v-0.9h-0.8V99.5z M185.3,94.6h0.8v-0.9h-0.8V94.6z
		 M180.7,118.9h0.8V118h-0.8V118.9z M180.7,114h0.8v-0.9h-0.8V114z M180.7,109.2h0.8v-0.9h-0.8V109.2z M180.7,104.3h0.8v-0.9h-0.8
		V104.3z M180.7,99.5h0.8v-0.9h-0.8V99.5z M180.7,94.6h0.8v-0.9h-0.8V94.6z M176.1,123.7h0.8v-0.9h-0.8V123.7z M176.1,118.9h0.8V118
		h-0.8V118.9z M176.1,114h0.8v-0.9h-0.8V114z M176.1,109.2h0.8v-0.9h-0.8V109.2z M176.1,104.3h0.8v-0.9h-0.8V104.3z M176.1,99.5h0.8
		v-0.9h-0.8V99.5z M176.1,94.6h0.8v-0.9h-0.8V94.6z M171.5,109.2h0.8v-0.9h-0.8V109.2z M171.5,104.3h0.8v-0.9h-0.8V104.3z
		 M171.5,99.5h0.8v-0.9h-0.8V99.5z M171.5,94.6h0.8v-0.9h-0.8V94.6z M166.9,104.3h0.8v-0.9h-0.8V104.3z M166.9,99.5h0.8v-0.9h-0.8
		V99.5z M176.1,89.8h0.8v-0.9h-0.8V89.8z M171.5,89.8h0.8v-0.9h-0.8V89.8z M197.7,110.7h3.7v-3.9h-3.7V110.7z M197.7,105.8h3.7V102
		h-3.7V105.8z M193.1,115.5h3.7v-3.9h-3.7V115.5z M193.1,110.7h3.7v-3.9h-3.7V110.7z M207.4,124.7h2.7v-2.9h-2.7V124.7z
		 M207.4,119.9h2.7V117h-2.7V119.9z M202.8,124.7h2.7v-2.9h-2.7V124.7z M202.8,119.9h2.7V117h-2.7V119.9z M198.2,115h2.7v-2.9h-2.7
		V115z M222.4,104.1h0.3v-0.4h-0.3V104.1z M222.4,99.2h0.3v-0.4h-0.3V99.2z M222.4,94.4h0.3V94h-0.3V94.4z M217.8,113.8h0.3v-0.4
		h-0.3V113.8z M217.8,108.9h0.3v-0.4h-0.3V108.9z M217.8,104.1h0.3v-0.4h-0.3V104.1z M217.8,99.2h0.3v-0.4h-0.3V99.2z M217.8,94.4
		h0.3V94h-0.3V94.4z M213.1,118.6h0.3v-0.4h-0.3V118.6z M213.1,113.8h0.3v-0.4h-0.3V113.8z M213.1,108.9h0.3v-0.4h-0.3V108.9z
		 M213.1,104.1h0.3v-0.4h-0.3V104.1z M213.1,99.2h0.3v-0.4h-0.3V99.2z M213.1,94.4h0.3V94h-0.3V94.4z M208.5,113.8h0.3v-0.4h-0.3
		V113.8z M208.5,108.9h0.3v-0.4h-0.3V108.9z M208.5,104.1h0.3v-0.4h-0.3V104.1z M203.9,128.3h0.3V128h-0.3V128.3z M203.9,113.8h0.3
		v-0.4h-0.3V113.8z M203.9,108.9h0.3v-0.4h-0.3V108.9z M203.9,104.1h0.3v-0.4h-0.3V104.1z M199.3,133.2h0.3v-0.4h-0.3V133.2z
		 M199.3,128.3h0.3V128h-0.3V128.3z M199.3,123.5h0.3v-0.4h-0.3V123.5z M199.3,118.6h0.3v-0.4h-0.3V118.6z M194.7,138h0.3v-0.4h-0.3
		V138z M194.7,133.2h0.3v-0.4h-0.3V133.2z M194.7,128.3h0.3V128h-0.3V128.3z M194.7,123.5h0.3v-0.4h-0.3V123.5z M194.7,118.6h0.3
		v-0.4h-0.3V118.6z M190.1,138h0.3v-0.4h-0.3V138z M190.1,133.2h0.3v-0.4h-0.3V133.2z M190.1,128.3h0.3V128h-0.3V128.3z
		 M190.1,123.5h0.3v-0.4h-0.3V123.5z M190.1,118.6h0.3v-0.4h-0.3V118.6z M190.1,113.8h0.3v-0.4h-0.3V113.8z M185.5,138h0.3v-0.4
		h-0.3V138z M185.5,133.2h0.3v-0.4h-0.3V133.2z M185.5,128.3h0.3V128h-0.3V128.3z M185.5,123.5h0.3v-0.4h-0.3V123.5z M185.5,118.6
		h0.3v-0.4h-0.3V118.6z M180.9,138h0.3v-0.4h-0.3V138z M180.9,133.2h0.3v-0.4h-0.3V133.2z M180.9,128.3h0.3V128h-0.3V128.3z
		 M180.9,123.5h0.3v-0.4h-0.3V123.5z M222.4,89.5h0.3v-0.4h-0.3V89.5z M217.8,89.5h0.3v-0.4h-0.3V89.5z M129.6,70.9h1.8V69h-1.8
		V70.9z M129.6,66h1.8v-1.9h-1.8V66z M125,70.9h1.8V69H125V70.9z M125,66h1.8v-1.9H125V66z M125,61.2h1.8v-1.9H125V61.2z
		 M120.4,70.9h1.8V69h-1.8V70.9z M120.4,66h1.8v-1.9h-1.8V66z M120.4,61.2h1.8v-1.9h-1.8V61.2z M115.8,66h1.8v-1.9h-1.8V66z
		 M115.8,61.2h1.8v-1.9h-1.8V61.2z M115.8,56.3h1.8v-1.9h-1.8V56.3z M111.2,66h1.8v-1.9h-1.8V66z M111.2,61.2h1.8v-1.9h-1.8V61.2z
		 M111.2,56.3h1.8v-1.9h-1.8V56.3z M106.6,66h1.8v-1.9h-1.8V66z M106.6,61.2h1.8v-1.9h-1.8V61.2z M106.6,56.3h1.8v-1.9h-1.8V56.3z
		 M106.6,51.5h1.8v-1.9h-1.8V51.5z M102,66h1.8v-1.9H102V66z M102,61.2h1.8v-1.9H102V61.2z M102,56.3h1.8v-1.9H102V56.3z M102,51.5
		h1.8v-1.9H102V51.5z M97.4,61.2h1.8v-1.9h-1.8V61.2z M97.4,56.3h1.8v-1.9h-1.8V56.3z M97.4,51.5h1.8v-1.9h-1.8V51.5z M92.8,66h1.8
		v-1.9h-1.8V66z M92.8,61.2h1.8v-1.9h-1.8V61.2z M92.8,56.3h1.8v-1.9h-1.8V56.3z M92.8,51.5h1.8v-1.9h-1.8V51.5z M88.1,66h1.8v-1.9
		h-1.8V66z M88.1,61.2h1.8v-1.9h-1.8V61.2z M88.1,56.3h1.8v-1.9h-1.8V56.3z M88.1,51.5h1.8v-1.9h-1.8V51.5z M88.1,46.6h1.8v-1.9
		h-1.8V46.6z M83.5,66h1.8v-1.9h-1.8V66z M83.5,61.2h1.8v-1.9h-1.8V61.2z M83.5,56.3h1.8v-1.9h-1.8V56.3z M83.5,51.5h1.8v-1.9h-1.8
		V51.5z M83.5,46.6h1.8v-1.9h-1.8V46.6z M78.9,66h1.8v-1.9h-1.8V66z M78.9,61.2h1.8v-1.9h-1.8V61.2z M78.9,56.3h1.8v-1.9h-1.8V56.3z
		 M78.9,51.5h1.8v-1.9h-1.8V51.5z M78.9,46.6h1.8v-1.9h-1.8V46.6z M74.3,66h1.8v-1.9h-1.8V66z M74.3,61.2h1.8v-1.9h-1.8V61.2z
		 M74.3,56.3h1.8v-1.9h-1.8V56.3z M74.3,51.5h1.8v-1.9h-1.8V51.5z M74.3,46.6h1.8v-1.9h-1.8V46.6z M69.7,66h1.8v-1.9h-1.8V66z
		 M69.7,61.2h1.8v-1.9h-1.8V61.2z M69.7,56.3h1.8v-1.9h-1.8V56.3z M69.7,51.5h1.8v-1.9h-1.8V51.5z M69.7,46.6h1.8v-1.9h-1.8V46.6z
		 M56.2,7.6h1.3V6.2h-1.3V7.6z M56.2,2.7h1.3V1.3h-1.3V2.7z M51.6,7.6h1.3V6.2h-1.3V7.6z M51.6,2.7h1.3V1.3h-1.3V2.7z M47,12.4h1.3
		V11H47V12.4z M47,7.6h1.3V6.2H47V7.6z M47,2.7h1.3V1.3H47V2.7z M42.4,36.7h1.3v-1.4h-1.3V36.7z M42.4,31.8h1.3v-1.4h-1.3V31.8z
		 M42.4,27h1.3v-1.4h-1.3V27z M42.4,22.1h1.3v-1.4h-1.3V22.1z M42.4,17.3h1.3v-1.4h-1.3V17.3z M42.4,12.4h1.3V11h-1.3V12.4z
		 M42.4,7.6h1.3V6.2h-1.3V7.6z M42.4,2.7h1.3V1.3h-1.3V2.7z M37.8,36.7H39v-1.4h-1.3V36.7z M37.8,31.8H39v-1.4h-1.3V31.8z M37.8,27
		H39v-1.4h-1.3V27z M37.8,22.1H39v-1.4h-1.3V22.1z M37.8,17.3H39v-1.4h-1.3V17.3z M37.8,12.4H39V11h-1.3V12.4z M37.8,7.6H39V6.2
		h-1.3V7.6z M37.8,2.7H39V1.3h-1.3V2.7z M33.1,36.7h1.3v-1.4h-1.3V36.7z M33.1,31.8h1.3v-1.4h-1.3V31.8z M33.1,27h1.3v-1.4h-1.3V27z
		 M33.1,22.1h1.3v-1.4h-1.3V22.1z M33.1,17.3h1.3v-1.4h-1.3V17.3z M33.1,12.4h1.3V11h-1.3V12.4z M33.1,7.6h1.3V6.2h-1.3V7.6z
		 M28.5,31.8h1.3v-1.4h-1.3V31.8z M28.5,27h1.3v-1.4h-1.3V27z M28.5,22.1h1.3v-1.4h-1.3V22.1z M234.5,134.9h2.9v-3.9h-2.9V134.9z
		 M234.5,130.1h2.9v-3.9h-2.9V130.1z M229.9,134.9h3.7v-3.9h-3.7L229.9,134.9L229.9,134.9z M229.9,130.1h3.7v-3.9h-3.7L229.9,130.1
		L229.9,130.1z M225.3,134.9h3.7v-3.9h-3.7V134.9z M225.3,130.1h3.7v-3.9h-3.7V130.1z M220.7,149.5h3.7v-3.9h-3.7V149.5z
		 M220.7,134.9h3.7v-3.9h-3.7V134.9z M174.7,149.5h3.7v-3.9h-3.7V149.5z M174.7,139.8h3.7v-3.9h-3.7V139.8z M174.7,134.9h3.7v-3.9
		h-3.7V134.9z M174.7,130.1h3.7v-3.9h-3.7V130.1z M170.1,149.5h3.7v-3.9h-3.7V149.5z M170.1,139.8h3.7v-3.9h-3.7V139.8z
		 M170.1,134.9h3.7v-3.9h-3.7V134.9z M170.1,130.1h3.7v-3.9h-3.7V130.1z M170.1,125.2h3.7v-3.9h-3.7V125.2z M165.5,149.5h3.7v-3.9
		h-3.7V149.5z M165.5,139.8h3.7v-3.9h-3.7V139.8z M165.5,134.9h3.7v-3.9h-3.7V134.9z M165.5,130.1h3.7v-3.9h-3.7V130.1z M165.5,96.1
		h3.7v-3.9h-3.7V96.1z M160.9,149.5h3.7v-3.9h-3.7V149.5z M160.9,144.6h3.7v-3.9h-3.7V144.6z M160.9,96.1h3.7v-3.9h-3.7V96.1z
		 M156.2,149.5h3.7v-3.9h-3.7V149.5z M156.2,96.1h3.7v-3.9h-3.7V96.1z M151.6,149.5h3.7v-3.9h-3.7V149.5z M151.6,96.1h3.7v-3.9h-3.7
		V96.1z M142.4,139.8h3.7v-3.9h-3.7V139.8z M137.8,139.8h3.7v-3.9h-3.7V139.8z M137.8,134.9h3.7v-3.9h-3.7V134.9z M133.2,139.8h3.7
		v-3.9h-3.7V139.8z M133.2,134.9h3.7v-3.9h-3.7V134.9z M133.2,96.1h3.7v-3.9h-3.7V96.1z M128.6,139.8h3.7v-3.9h-3.7V139.8z
		 M128.6,134.9h3.7v-3.9h-3.7V134.9z M119.4,130.1h3.7v-3.9h-3.7V130.1z M114.8,125.2h3.7v-3.9h-3.7
		C114.8,121.4,114.8,125.2,114.8,125.2z M114.8,120.4h3.7v-3.9h-3.7C114.8,116.5,114.8,120.4,114.8,120.4z M114.8,115.5h3.7v-3.9
		h-3.7C114.8,111.7,114.8,115.5,114.8,115.5z M110.2,110.7h3.7v-3.9h-3.7V110.7z M110.2,105.8h3.7V102h-3.7V105.8z M110.2,101h3.7
		v-3.9h-3.7V101z M110.2,96.1h3.7v-3.9h-3.7V96.1z M105.6,101h3.7v-3.9h-3.7V101z M91.8,96.1h3.7v-3.9h-3.7V96.1z M87.2,96.1h3.7
		v-3.9h-3.7V96.1z M64.2,101h3.7v-3.9h-3.7V101z M64.2,96.1h3.7v-3.9h-3.7V96.1z M55,96.1h3.7v-3.9H55V96.1z M32,134.9h3.7v-3.9H32
		V134.9z M32,130.1h3.7v-3.9H32V130.1z M27.4,134.9H31v-3.9h-3.7C27.4,131.1,27.4,134.9,27.4,134.9z M27.4,130.1H31v-3.9h-3.7
		C27.4,126.2,27.4,130.1,27.4,130.1z M27.4,125.2H31v-3.9h-3.7C27.4,121.4,27.4,125.2,27.4,125.2z M22.8,134.9h3.7v-3.9h-3.7V134.9z
		 M22.8,125.2h3.7v-3.9h-3.7V125.2z M18.2,120.4h3.7v-3.9h-3.7V120.4z M13.6,125.2h3.7v-3.9h-3.7C13.6,121.4,13.6,125.2,13.6,125.2z
		 M13.6,120.4h3.7v-3.9h-3.7C13.6,116.5,13.6,120.4,13.6,120.4z M211.5,8.8h3.7V4.9h-3.7V8.8z M211.5,4h3.7V0.3h-3.7V4z M206.9,8.8
		h3.7V4.9h-3.7V8.8z M206.9,4h3.7V0.3h-3.7V4z M202.3,18.5h3.7v-3.9h-3.7V18.5z M202.3,13.7h3.7V9.8h-3.7V13.7z M202.3,8.8h3.7V4.9
		h-3.7V8.8z M197.7,23.4h3.7v-3.9h-3.7V23.4z M165.5,91.3h3.7v-3.9h-3.7V91.3z M160.9,91.3h3.7v-3.9h-3.7V91.3z M156.2,81.6h3.7
		v-3.9h-3.7V81.6z M151.6,91.3h3.7v-3.9h-3.7V91.3z M151.6,86.4h3.7v-3.9h-3.7V86.4z M151.6,81.6h3.7v-3.9h-3.7V81.6z M133.2,91.3
		h3.7v-3.9h-3.7V91.3z M87.2,91.3h3.7v-3.9h-3.7V91.3z M82.6,42.8h3.7v-3.9h-3.7V42.8z M78,42.8h3.7v-3.9H78V42.8z M78,23.4h3.7
		v-3.9H78V23.4z M73.4,42.8H77v-3.9h-3.7V42.8z M73.4,37.9H77v-3.9h-3.7V37.9z M73.4,28.2H77v-3.9h-3.7V28.2z M73.4,23.4H77v-3.9
		h-3.7V23.4z M68.8,91.3h3.7v-3.9h-3.7V91.3z M68.8,37.9h3.7v-3.9h-3.7V37.9z M68.8,33.1h3.7v-3.9h-3.7V33.1z M68.8,28.2h3.7v-3.9
		h-3.7V28.2z M68.8,23.4h3.7v-3.9h-3.7V23.4z M64.2,91.3h3.7v-3.9h-3.7V91.3z M64.2,33.1h3.7v-3.9h-3.7V33.1z M64.2,28.2h3.7v-3.9
		h-3.7V28.2z M64.2,23.4h3.7v-3.9h-3.7V23.4z M59.6,91.3h3.7v-3.9h-3.7V91.3z M59.6,86.4h3.7v-3.9h-3.7V86.4z M59.6,28.2h3.7v-3.9
		h-3.7V28.2z M59.6,23.4h3.7v-3.9h-3.7V23.4z M55,91.3h3.7v-3.9H55C55,87.4,55,91.3,55,91.3z M55,86.4h3.7v-3.9H55
		C55,82.6,55,86.4,55,86.4z M55,76.7h3.7v-3.9H55C55,72.9,55,76.7,55,76.7z M55,71.9h3.7V68H55C55,68,55,71.9,55,71.9z M55,67h3.7
		v-3.9H55C55,63.2,55,67,55,67z M55,28.2h3.7v-3.9H55C55,24.4,55,28.2,55,28.2z M55,23.4h3.7v-3.9H55C55,19.5,55,23.4,55,23.4z
		 M55,18.5h3.7v-3.9H55C55,14.6,55,18.5,55,18.5z M50.4,91.3H54v-3.9h-3.7V91.3z M50.4,71.9H54V68h-3.7V71.9z M50.4,67H54v-3.9h-3.7
		V67z M50.4,62.2H54v-3.9h-3.7V62.2z M50.4,57.3H54v-3.9h-3.7V57.3z M50.4,18.5H54v-3.9h-3.7V18.5z M50.4,13.7H54V9.8h-3.7V13.7z
		 M45.8,71.9h3.7V68h-3.7V71.9z M45.8,67h3.7v-3.9h-3.7V67z M45.8,62.2h3.7v-3.9h-3.7V62.2z M45.8,57.3h3.7v-3.9h-3.7V57.3z
		 M45.8,18.5h3.7v-3.9h-3.7V18.5z M41.2,71.9h3.7V68h-3.7V71.9z M41.2,67h3.7v-3.9h-3.7V67z M36.6,67h3.7v-3.9h-3.7V67z M32,67h3.7
		v-3.9H32V67z M8.9,33.1h3.7v-3.9H8.9V33.1z M8.9,28.2h3.7v-3.9H8.9V28.2z M8.9,23.4h3.7v-3.9H8.9V23.4z M4.3,37.9H8v-3.9H4.3V37.9z
		 M4.3,33.1H8v-3.9H4.3V33.1z M4.3,28.2H8v-3.9H4.3V28.2z M4.3,23.4H8v-3.9H4.3V23.4z M4.3,18.5H8v-3.9H4.3V18.5z M0.4,42.8h2.9
		v-3.9H0.4C0.4,38.9,0.4,42.8,0.4,42.8z M0.4,37.9h2.9v-3.9H0.4C0.4,34.1,0.4,37.9,0.4,37.9z M0.4,33.1h2.9v-3.9H0.4
		C0.4,29.2,0.4,33.1,0.4,33.1z M0.4,28.2h2.9v-3.9H0.4C0.4,24.4,0.4,28.2,0.4,28.2z M0.4,23.4h2.9v-3.9H0.4
		C0.4,19.5,0.4,23.4,0.4,23.4z M0.4,18.5h2.9v-3.9H0.4C0.4,14.6,0.4,18.5,0.4,18.5z M0.4,13.7h2.9V9.8H0.4
		C0.4,9.8,0.4,13.7,0.4,13.7z M0.4,8.8h2.9V4.9H0.4C0.4,4.9,0.4,8.8,0.4,8.8z"/>
</g>
</svg>
