<?xml version="1.0" encoding="utf-8"?>
<!-- Generator: Adobe Illustrator 24.0.2, SVG Export Plug-In . SVG Version: 6.00 Build 0)  -->
<svg version="1.1"
	 id="Слой_1" image-rendering="optimizeQuality" shape-rendering="geometricPrecision" text-rendering="geometricPrecision" xmlns:xodm="http://www.corel.com/coreldraw/odm/2003"
	 xmlns="http://www.w3.org/2000/svg" xmlns:xlink="http://www.w3.org/1999/xlink" x="0px" y="0px" viewBox="0 0 238.1 150.2"
	 style="enable-background:new 0 0 238.1 150.2;" xml:space="preserve">
<style type="text/css">
	.st0{fill-rule:evenodd;clip-rule:evenodd;fill:#373535;}
</style>
<g id="Layer_x0020_1">
	<g id="_105553566168416">
		<path class="st0" d="M129.7,86.4l0.2-0.1L129.7,86.4z M134.1,85.1C134.1,85.1,134.2,85.1,134.1,85.1L134.1,85.1z M134.7,85
			c-0.1,0.1,0.2,0.1-0.3,0.1C134.5,85,134.3,85,134.7,85z M131.9,84.6c0.1-0.1-0.2-0.1,0.3-0.1C132.1,84.6,132.3,84.5,131.9,84.6z
			 M132.4,84.4c0.1-0.1,0.4,0.2,0.1,0.1C132.5,84.4,132.2,84.5,132.4,84.4z M137.2,81.8c0.1-0.1-0.2-0.1,0.3-0.1
			C137.3,81.8,137.6,81.8,137.2,81.8z M137.6,81.6c0.1-0.1,0.4,0.2,0.1,0.1C137.7,81.7,137.4,81.8,137.6,81.6z M143.7,80.8l-0.2,0.1
			L143.7,80.8z M140.6,79.6c0.1-0.1-0.2-0.1,0.3-0.1C140.8,79.6,141,79.6,140.6,79.6z M147,76.8c0.1-0.1-0.2-0.1,0.3-0.1
			C147.1,76.7,147.4,76.7,147,76.8z M153.3,76.3L153.3,76.3C153.4,76.4,153.3,76.3,153.3,76.3z M161.2,72.2L161.2,72.2
			C161.3,72.2,161.2,72.2,161.2,72.2z M147,76.8c-0.1,0.1-0.1,0-0.2,0.1c-0.2,0.1,0,0-0.2,0.1c-7.3,2.3-14.8,4.2-22.4,4.4
			c-0.5,0-0.6,0.1-1.2,0.1c-0.5,0-0.9,0-1.4,0c-4.6,0-7.6-0.3-11.9-1.8c-1.9-0.6-3.8-1.8-4.7-3.6c-0.3-0.7-0.5-1.4-0.8-2
			c-2-3.9-5-4.7-8.8-5.1c-0.3,0-0.8-0.1-1.2-0.1c-1.2-0.2-5.3-0.4-6.5-0.4c-3.6,0-6.9,0.3-10.2,0.8C72,70,64.5,71.5,59.1,72.9
			c-1.5,0.4-3,0.7-4.4,1.1l-8.9,2.2c-3.6,0.9-6.8,1.4-10.4,1.9c-0.4,0-0.9,0.1-1.3,0.1c-0.6,0.1-1.8,0.2-2.6,0.2c-0.9,0-1.8,0-2.7,0
			l-13-0.6c-1.8,0-3.8-0.1-5.4,0.1c-1.7,0.2-3.7,0-5.3,0.2c-0.8,0.1-4,0.1-5.1,0.3v0.7l4.9-0.3c0.9-0.1,8.7-0.3,10.2-0.3l12.7,0.3
			c0.5,0,0.6,0.1,1.2,0.1c0.4,0,0.9,0,1.3,0c3.4,0.5,10.3-1,13.7-1.8c4.2-1,8.6-1.9,12.9-2.9c1.4-0.3,2.9-0.6,4.2-1
			c3.7-0.9,9.3-2.1,13-2.8c5.7-1.1,12.5-2.1,19-1.3c4.5,0.5,8.9,1.5,10.8,6.4c0.9,2.4,2.5,3.4,4.9,4.4c1.3,0.5,2.6,1,4,1.3
			c8,2.1,17.7,0.6,25.7-1.2c0.6-0.1,1.6-0.4,2.2-0.4l-0.4,0.2c-0.2,0.1-0.2,0.1-0.5,0.1l-3,1c-4.3,1.3-10.7,2.8-15.2,3.1
			c-1.8,0.1-1.8,0.2-3.7,0.2l-2.5,0.1c-0.6,0-0.7-0.1-1.2-0.1c-3.4-0.1-6.5-0.5-9.4-1c-3.6-0.6-5.9-1.7-7.1-4.8
			c-0.8-2.1-2.6-3.9-4.6-4.8c-2.7-1.2-5.2-1.6-8.7-1.7l-2.4-0.1c-7.8,0-17.1,2.5-24.8,4.1L44,78.7c-4.5,0.9-11.2,2.6-15.7,2.6
			c-0.8,0-1.9,0.1-2.6,0c-2.8-0.3-16.6,0-20.7,0l-2.5,0.1c-0.9,0-1.6,0.1-2.5,0.1v0.6c0.9,0,1.8,0,2.5-0.1l6.1-0.1
			c0.6,0,0.6-0.1,1.2-0.1l8.8,0c0.6,0,0.7,0.1,1.2,0.1c0.8,0,1.7,0,2.5,0c1.7,0,4.2,0.3,6.1,0.2c0.5,0,0.6-0.1,1.2-0.1
			c4.5,0,21.2-4.3,25.4-5.2c7.6-1.6,11.3-2.6,19.3-3.7c0.7-0.1,1.5-0.1,2.3-0.2l4.8-0.3c4,0,9.9,0.1,12.8,2.5c2.2,1.8,2.1,4.2,4.3,6
			c0.6,0.5,0.8,0.7,1.5,1.1c3.1,1.9,6.6,2.3,10.1,2.7c4.2,0.5,10,0.1,14.2-0.6c3.3-0.5,7.4-1.3,10.6-2.1l2.2-0.5
			c-0.3,0.2-1.4,0.5-1.9,0.7l-5.9,1.8c-9.2,2.5-21.8,4.3-31.4,2c-2.6-0.6-5.3-1-6.8-3.4c-1-1.5-1-3.8-4.8-5.6
			c-1.2-0.5-2.7-0.7-4.1-1c-2.4-0.4-7.5-0.9-9.6-0.5l-4.7,0.4c-4.2,0.4-9.1,1.3-13.1,2.2c-8.4,1.7-16.6,4.4-25.2,5.4
			c-8.3,1-11.3,0.7-19.5,0.7c-3.4,0-6.6,0.2-10,0.2v1.2c3.3,0,6.3-0.2,9.5-0.2l4.7-0.2c0.7-0.1,1.7,0,2.4,0l7-0.3
			c0.9-0.1,3.5-0.2,4.6-0.3c3.5-0.5,5-0.8,8.4-1.5c5.5-1.1,10.7-2.3,16.2-3.5c4.4-0.9,12.3-2.7,16.4-3.2l3.3-0.3
			c0.5,0,0.6-0.1,1.1-0.1l3.6,0c1.5,0,4,0.4,5.4,0.7c1.4,0.3,2.6,0.6,3.7,1.2c1,0.5,2.1,1.3,2.6,2.4c1.2,2.6,2.2,3.9,4.7,5.2
			c2.5,1.3,5,1.6,7.8,2.1l3.4,0.3c0.5,0,0.6,0.1,1.1,0.1c7.9,0.1,14.3-1,21.8-2.7c0.6-0.1,1.3-0.3,2-0.5c0.6-0.1,1.5-0.5,2.1-0.5
			c-0.1,0.1,0,0-0.2,0.1l-1.6,0.5c-4.7,1.3-8.5,2.7-13.6,3.6l-6.3,1c-0.7,0.1-1.4,0.1-2.2,0.2c-2.6,0.3-7.7,0.4-10.7,0.2
			c-1.2-0.1-1.7,0-3.3-0.3c-2.6-0.4-7.2-1.4-9-3.3c-1.2-1.2-1.5-3.3-3.9-4.9c-3.3-2.3-7.4-2.1-11.2-2.3c-0.7,0-1.5-0.2-2.3-0.1
			c-5.3,0.5-9.6,1.3-14.9,2.2c-9.5,1.7-19.4,4.3-28.8,5.6c-5.2,0.7-8.7,0.6-14.1,0.6c-3.3,0-6.4,0.1-9.7,0.1v1l7-0.1
			c0.4,0,0.8,0,1.2,0c0.5,0,0.6-0.1,1.1-0.1c3,0,7.8,0,10.5-0.2l3.5-0.1c1.9-0.1,9.9-2,12-2.4l19.8-4.2c1.3-0.3,2.9-0.5,4.2-0.7
			c5.8-0.7,11.9-1.3,17.7-0.1c1.3,0.3,2.6,0.8,3.4,1.4c2.8,2.1,2.3,6.8,11.3,8.2c4,0.6,7.2,0.8,11.2,0.8l6.7-0.5
			c4.1-0.5,8.4-1.2,12.3-2.3l6.7-1.8c0.3-0.1,0.6-0.2,1-0.2c-0.9,1.4-12.6,4.1-14.8,4.6c-1.4,0.3-2.7,0.5-4,0.8
			c-2.2,0.5-9.5,1.4-11.9,1.5c-0.4,0-0.7,0-1.2,0c-0.7,0.1-6.1,0.2-7.1,0c-2.1-0.2-4.3-0.4-6.3-0.9c-3.7-1-5.3-1.6-7.6-4.6
			c-0.2-0.3-0.3-0.4-0.6-0.7C76,87,76,86.9,75.8,86.8l-0.2-0.2c-2.4-2.3-5.5-3.4-8.7-3.8c-0.6-0.1-2.7-0.2-3.4-0.1
			c-0.4,0.1-0.8,0-1.2,0c-2.4,0-8.1,1-10.6,1.5l-16.4,3c-1.4,0.3-2.6,0.5-4,0.8c-3.4,0.8-6.7,1.6-10.1,2.1c-0.7,0.1-1.4,0.2-2.2,0.3
			C15.8,90.9,4.1,90.7,0,90.7v1.2c2.9,0,5.6-0.1,8.5-0.1l2-0.1c0.7,0,1.4,0,2.1,0c0.4,0,0.4-0.1,0.9-0.1c0.4,0,0.8,0,1.1,0l6-0.5
			c1.3-0.1,2.6-0.3,3.8-0.5c4.9-0.7,9.3-2.2,14.1-3.2c4.8-1,9.7-2.1,14.5-2.8c1.3-0.2,2.4-0.3,3.8-0.5c1.3-0.2,2.5-0.2,4.1-0.3
			l2-0.1c1.8,0,4.2,0.3,6,0.5c2.8,0.4,5.6,1.3,7,3.9c0.7,1.5,1.8,2.6,3.2,3.5c2.1,1.4,8,2,10.7,2.2l4.1,0.3l6.2-0.2
			c0.4-0.1,0.7,0,1.1,0c6.8-0.6,12.7-1.7,19.4-3.4c1.1-0.3,2.2-0.7,3.4-1c4.8-1.4,8.3-2.8,13.2-4.1c2.3-0.6,4.7-1.2,7.1-1.6
			c5.9-1,11.3-1.5,17.9-1.5l6.2,0.3c5.1,0.6,9.9,1.6,14.9,2.4c3.5,0.6,7.1,1,10.7,1c0.5,0,0.7,0.1,1,0.1c1.3,0,2.8-0.1,4.2-0.2
			l2-0.2c1-0.2,2-0.1,3-0.2c0.4,0,0.5-0.1,1-0.1c0.5,0,0.6-0.1,1-0.1c5.8-0.5,10.8-0.9,16.7-1.7c0.8-0.1,13.9-2,14.9-2.5v-0.7
			c-0.9,0-5,0.9-6.1,1.1c-2,0.4-4.2,0.7-6.3,1l-9.5,1.2c-1.1,0.1-2.1,0.2-3.3,0.4c-1.1,0.2-2.2,0.2-3.2,0.4
			c-1.1,0.1-2.1,0.1-3.3,0.3c-1.1,0.2-2.2,0.2-3.3,0.3l-3.5,0.1c-6.1,0-11.4-0.1-16.9-1c-3.1-0.5-6-1.2-9.1-1.6
			c-4.2-0.6-8.6-1.1-13.3-1.1c-3.4,0-6.6,0.2-10,0.7c-4.6,0.7-9,1.7-13.6,2.7c-0.4,0.1-1,0.3-1.5,0.3c0.1-0.1,0,0,0.2-0.2
			c1.6-0.8,8.9-3.2,10.8-3.7c3.5-0.9,5.5-1.4,9.2-1.9l8.4-0.8c1.5,0,6,0,7.2,0.2c0.5,0.1,1.3,0.1,1.8,0.1c2.1,0.1,7.7,1.1,9.5,1.6
			c1,0.3,2.1,0.5,3,0.7c3.4,0.9,6.8,1.3,10.3,1.6c2.3,0.2,3.9,0.3,6.3,0.2l3.5-0.2c5.8-0.2,15-1.2,20.1-2.1
			c3.5-0.6,7.4-1.3,10.8-2.1c0.4-0.1,1.1-0.3,1.6-0.3v-1.3l-2.6,0.6c-9.9,2.4-22,4.6-32.1,4.6c-1.1,0-2.2,0-3.3,0
			c-0.7,0-1-0.1-1.5-0.1c-0.5,0-1.2,0-1.7,0l-6.1-0.6c-4-0.5-7.5-1.4-11.1-2.3c-2.2-0.5-7.8-1.5-10.3-1.4c-0.7,0-1-0.1-1.6-0.1
			c-4.5,0-8.5,0.3-12.4,0.9c-2,0.3-3.7,0.7-5.6,1.1c-1,0.2-1.8,0.4-2.7,0.6c-0.6,0.1-2.3,0.6-2.8,0.6c0.7-0.7,9.4-3.4,10.1-3.6
			c2.8-0.8,5.6-1.4,8.4-1.9c1-0.2,2.1-0.3,3.1-0.4c4-0.5,8.9-0.2,12.9,0.3c4.1,0.5,7.5,1.7,11.1,2.6c2.7,0.7,5.8,1.2,8.6,1.6
			c1.1,0.1,2.3,0.1,3.2,0.2c1,0.1,2.3-0.1,3.3,0c1.5,0.2,8.6-0.1,9.9-0.3c1.1-0.1,2-0.1,3.1-0.3c0.9-0.1,2.1-0.3,3.1-0.4
			c1.1-0.1,2-0.3,3-0.4c0.9-0.1,2-0.3,2.9-0.5c1.9-0.4,3.8-0.7,5.6-1.2l4.1-1.1c0.4-0.1,1-0.3,1.4-0.3v-1c-0.7,0.3-1.5,0.5-2.3,0.7
			c-0.8,0.2-1.6,0.4-2.4,0.6c-1.7,0.4-3.3,0.7-5,1.1c-3.3,0.7-6.8,1.3-10.4,1.7c-11.3,1.3-21.7,0.8-32.5-2.2
			c-2.8-0.8-4.3-1.3-7.3-1.8c-0.9-0.2-1.8-0.2-2.7-0.3c-0.5-0.1-0.9,0-1.3-0.1c-0.4-0.1-0.9-0.1-1.4-0.1c-1,0-2.1-0.1-3,0
			c-0.5,0-0.8,0.1-1.4,0.1c-0.5,0-0.9,0.1-1.4,0.1c-3.9,0.3-7.7,1.3-11.5,2.2c-0.4,0.1-0.9,0.2-1.3,0.3c0.6-0.8,8.2-3.2,9.1-3.5
			c4-1.1,8.9-2.1,13.5-2.1c0.5,0,1,0,1.5,0c0.5,0.1,1,0,1.5,0.1c8.9,1,10.8,3.4,20,5.1l4.1,0.5c2.8,0.2,6,0.6,8.9,0.2
			c0.5-0.1,1.1,0,1.6,0c1.8-0.2,3.8-0.3,5.6-0.6c4.5-0.6,8.8-1.3,13.2-2.5c0.8-0.2,4.4-1.4,5-1.4v-0.8c-0.4,0-0.7,0.2-1,0.3
			c-4.3,1.5-12.8,3.2-17.3,3.7L208.9,76c-6.8,0-13-1.1-19.1-3.2c-1.5-0.5-2.6-1-4.1-1.5c-7-2.2-12.5-1.3-19.4,0
			c-1.2,0.2-3.6,0.8-4.7,0.9c0.5-0.4,3.5-1.5,4.1-1.7c8.3-2.9,15-5.3,23.9-2.2c2.9,1,5.3,2.4,8.4,3.3c1.4,0.4,3,0.9,4.6,1.2
			c4.3,0.8,6.3,0.9,10.6,0.9c2.9,0,5.4-0.2,8-0.6c0.9-0.1,1.7-0.3,2.6-0.4c4-0.6,7.9-1.6,11.7-2.8c0.6-0.2,1.8-0.7,2.3-0.7v-1.1
			c-0.3,0.1-0.6,0.2-0.9,0.3c-3.5,1.4-6.9,2.4-10.6,3.2c-1.5,0.3-2.9,0.5-4.3,0.8c-3.1,0.5-6,0.5-9.5,0.6c-0.8,0-1.5-0.1-2.3-0.1
			c-3.6-0.2-7.3-1-10.7-1.9c-2.5-0.7-5-1.6-7.4-2.6c-7.9-3.3-13.2-2.6-21.2-0.7c0.3-0.4,1.2-0.7,1.7-0.9c0.6-0.3,1.2-0.6,1.8-0.8
			c4.9-2.1,9.2-3.4,15-2.6c3.4,0.5,6.3,2.3,9.4,3.7c3.6,1.8,8.2,3,12.3,3.4c3,0.4,6.9,0.2,9.9-0.1c3-0.3,6-0.9,8.9-1.6
			c2.1-0.5,6.1-1.6,8-2.5v-0.7c-0.5,0.1-4.5,1.8-6.7,2.4c-7.8,2-16.8,2.6-24.6,1.2c-2.5-0.4-4.6-1.3-6.8-2.3c-1.1-0.5-2.1-1-3.1-1.5
			c-3.5-1.8-6.2-3.1-10.7-3.1c-2.8,0-5.2,0.7-7.7,1.5c-2.3,0.7-4.5,1.5-6.6,2.5l-9.5,4.3c-1.6,0.8-3.3,1.3-4.9,2
			c-0.6,0.2-1.1,0.4-1.7,0.6c-4.7,2-13.4,3.9-18.2,4.6c-6.5,1-17.6,1.5-23.2-2.7c-3.7-2.9-1.1-6.7-9-9.5c-1.2-0.4-2.4-0.6-3.8-0.8
			c-1.2-0.2-2.8-0.4-4.2-0.4c-0.8,0-1.3-0.1-2.1-0.1c-0.9,0-1.4,0.1-2.1,0.1c-1.3,0-2.9,0.2-4.2,0.4c-2.7,0.4-5.2,0.9-7.8,1.4
			c-2.6,0.5-5,1.1-7.6,1.6c-7.4,1.5-15.1,3.3-22.4,5c-5.3,1.2-13.6,2.9-19.2,2.3c-0.4,0-0.7,0-1.1,0c-1.3-0.1-2.9-0.3-4.2-0.4
			c-0.4,0-0.7,0-1.1,0c-2.8-0.2-9.9-0.6-12.2-0.2l-4.4,0.1c-0.8,0-1.3,0.1-2.1,0.1l-4.2,0.3c-0.7,0-1.5,0.2-2.1,0.2V76
			c3.4-0.3,6.9-0.7,10.3-0.6c0.9,0,1.6-0.1,2.6-0.1c3.2,0,6.3-0.1,9.5,0c0.5,0,0.7,0.1,1.3,0.1c0.4,0,0.9,0,1.3,0l3.9,0.2
			c0.8,0.1,1.7,0.1,2.6,0.2c1.6,0.1,3.4,0.3,5.3,0.2c0.7,0,1.7-0.1,2.5-0.3c0.9-0.1,1.6-0.2,2.4-0.3c1.6-0.3,3.2-0.6,4.6-0.9
			c1.5-0.3,3-0.6,4.5-1c0.7-0.2,1.5-0.3,2.2-0.5l6.6-1.6c4.5-1,8.8-2.2,13.4-3.2c1.6-0.3,3-0.6,4.6-0.9c3.9-0.8,8-1.4,12-1.8
			c0.8-0.1,1.6-0.2,2.5-0.2c0.5,0,0.6-0.1,1.2-0.1c0.5,0,0.9,0,1.4,0c0.9,0,1.8,0,2.7,0c4,0,9.9,1.2,12.1,4.4
			c1.3,1.9,1.1,6.2,8.4,8.3c6.5,1.9,13.1,1.6,19.6,0.5C138.7,78.3,146.3,76.8,147,76.8L147,76.8z"/>
		<path class="st0" d="M144.1,149.1c-1.4,0-2.9,0.2-4.3-0.1c-1.5-0.2-5-0.1-7-0.3l-20.5-1.4c-0.9,0-1.9-0.1-2.8-0.2l-5.5-0.4
			c-2.7-0.2-5.6-0.3-8.4-0.3c-6.3,0-10.8,2-16.3,2.3l-2.8,0.3c-1.8,0.3-8.9,0.3-11.1,0c-2.3-0.3-4.8-0.4-7.1-0.8
			c-3.3-0.6-6.7-1.1-10-1.8c-2.2-0.5-4.4-0.8-6.6-1.3c-8.9-1.9-19.8-3.8-28.9-3.8l-4,0.2c-0.3,0-0.5,0-0.8,0c-1.5,0.1-3,0.4-4.5,0.6
			c-1,0.1-2,0.2-3.1,0.2c0,0.3,0.2,0.7,0.3,1c2.2,0,4.5-0.4,6.7-0.6c1.6-0.2,3-0.2,4.6-0.2c0.7,0,1.4-0.2,2.3-0.1l6.9,0.4
			c4.7,0.2,10.5,1.2,15.2,2c5.5,1,10.8,2.4,16.1,3.4c1.4,0.3,2.8,0.5,4.1,0.8c2.1,0.4,4.4,0.5,6.5,0.8c1.9,0.3,6.2,0.3,8.4,0.3
			c5.9,0,10.9-1.1,16.6-1.9c0.7-0.1,1.3-0.1,2-0.2c1.2-0.2,7.4-0.5,8.9-0.5l24,1.6c0.7,0.1,1.4,0.1,2.1,0.1l7.6,0.5
			c0.4,0,0.8,0,1.2,0c0.4,0,0.5,0.1,1,0.1c1.9,0,3.8,0.2,5.7,0.2c5.5,0,9.2-0.3,14.3-1.8c2.9-0.8,5.4-2.4,8-3.8c1.9-1,4-1.9,6-2.5
			c5.4-1.7,10.9-2.9,16.7-3.5c1-0.1,2-0.2,2.9-0.3c1.6-0.1,3-0.1,4.6-0.4c0.6-0.1,1.1,0,1.7-0.1c0.5,0,0.9-0.1,1.5-0.1
			c0.7,0,0.9-0.1,1.6-0.1c1.2,0,2.1-0.1,3.2-0.1c1.1,0,2.2,0,3.3,0c0.6,0,0.8-0.1,1.5-0.1l5.1,0c1.1,0,2,0.1,3.2,0.1
			c1.1,0,2.2,0,3.3,0c1.2,0,2,0.1,3.2,0.1c1.1,0,2.2,0,3.3,0c1.2,0,2,0.1,3.2,0.1c1.1,0,2.2,0,3.3,0c1.2,0,2,0.1,3.2,0.1
			c1.1,0,2.2,0,3.3,0v-1l-5.5,0c-0.7,0-1-0.1-1.7-0.1c-1.2,0-2.4,0-3.6,0c-1.4,0-2.3-0.1-3.6-0.1c-5.6,0-11.2-0.2-16.9-0.2
			c-0.9,0-1.5,0.1-2.3,0.1c-1.5,0-3.3-0.1-4.7,0.1c-0.8,0.1-3.5,0.1-4.6,0.2l-2.3,0.1c-0.7,0-1.6,0.1-2.2,0.2
			c-0.7,0.1-1.4,0.1-2.2,0.2c-0.7,0.1-1.5,0.2-2.2,0.3c-4.6,0.6-7.9,1.1-12.4,2c-1.9,0.4-3.7,1-5.5,1.7c-0.6,0.2-1.2,0.4-1.7,0.7
			c-0.6,0.3-1.1,0.4-1.6,0.7c-0.6,0.3-1,0.5-1.6,0.9c-2.1,1.3-4.3,2.2-6.6,3.1c-1.1,0.5-2.5,0.8-3.7,1.1
			C150.2,148.6,147.2,149.1,144.1,149.1L144.1,149.1z"/>
		<path class="st0" d="M157,114.9h-8.2c-3.3,0-6.3-0.1-9.5-0.1c-0.9,0-1.3-0.1-2.2-0.1c-8.5,0-17.4-0.4-26.1-0.4
			c-2,0-8.6-0.2-10.2,0.1c-0.7,0.1-5.9,0.1-7.1,0.3c-1.1,0.1-2.5,0.1-3.5,0.3c-1.2,0.2-2.2,0.1-3.4,0.3c-1.1,0.2-2.3,0.3-3.4,0.4
			c-2.2,0.3-4.4,0.7-6.6,0.9c-2.2,0.2-4.4,0.7-6.7,0.8c-0.5,0-1.2,0.1-1.7,0.2c-0.9,0.1-1.8,0.1-2.7,0.2l-1.7,0.1
			c-0.5,0-0.5,0.1-0.9,0.1c-1.2,0.1-2.3,0.1-3.5,0.1c-1.3,0-2.4,0.1-3.6,0.1c-0.7,0-1.1-0.1-1.7-0.1l-3.7-0.1
			c-0.6-0.1-1.2,0-1.9-0.1c-1.1-0.2-2.3,0-3.4-0.2c-1.2-0.2-2.3-0.2-3.4-0.4c-7.8-1.4-7.7-3.3-10.6-4.3c-2-0.6-5.9-1.3-7.9-1.5
			c-1.3-0.1-4-0.5-5.2-0.3c-0.7,0.1-3.1,0-5.2,0.4c-0.6,0.1-1.1,0.2-1.7,0.3c-3.6,0.6-6.7,1.7-9.9,3.2c-0.5,0.2-0.9,0.4-1.3,0.6v1.1
			l3.8-1.7c1.4-0.5,2.8-1,4.3-1.4c5-1.3,11.8-1.6,17.3-1c1.2,0.1,2.6,0.4,3.7,0.7c2.5,0.8,3.8,1.7,5.9,2.9c1.8,0.9,4.4,1.7,6.8,2
			c1.2,0.1,2.7,0.3,3.9,0.5c1.3,0.2,2.8,0.1,4,0.3c0.6,0.1,1.4,0,2,0.1c1,0.1,2.2,0,3.2,0c0.5,0,0.7,0.1,1,0.1c0.4,0,0.5-0.1,1-0.1
			l5.4-0.1c0.5,0,0.5-0.1,0.9-0.1l3.2-0.2c0.7-0.1,1.3-0.1,2-0.1c0.6-0.1,1.4-0.2,2-0.2l3.9-0.5c2.6-0.4,5.1-0.7,7.7-1
			c1.2-0.1,2.7-0.4,4-0.4l4.1-0.3c1-0.2,2.1,0,3.2-0.1c0.4,0,0.5-0.1,1-0.1l3.2,0c0.5,0,0.6-0.1,1-0.1c1.4-0.1,3,0,4.3,0
			c1.4,0,2.7-0.1,4.2-0.1l43.4-0.1c1.8,0,3.4,0.1,5.1,0.1c1.8,0,3.3-0.1,5.2-0.1c3,0,6.1,0.2,9.1-0.1c0.4,0,0.9,0,1.3,0
			c9.5-0.8,10.9-2.7,18.8-4.8c2.9-0.8,6-1.3,9-1.6l6.2-0.4c0.5,0,0.6-0.1,1.2-0.1c1.7,0,3.3-0.1,5.1-0.1c0.6,0,0.7-0.1,1.2-0.1
			c3-0.1,6.1,0.1,9.1,0.1l15.9-0.1v-1c-1.5,0.4-3.8,0-5.3,0.2c-1.1,0.2-14.6,0-16.5,0l-10.7,0.2c-18.1,0-22.1,5.1-27.5,5.7
			c-5.1,0.6-10.2,1-15.3,1.3c-0.5,0-0.6,0.1-1.2,0.1L157,114.9L157,114.9z"/>
		<path class="st0" d="M152.8,126.1c-9,0-17.8-0.2-26.6-0.3c-0.6,0-0.8-0.1-1.5-0.1l-8.3-0.1c-1.1-0.2-2.3,0-3.4-0.1l-3.2-0.1
			c-1.1,0-2.1-0.1-3.3-0.1l-11.4-0.1c-9,0-14.9,0.8-23,2.1l-10.4,1c-0.4,0-0.9,0-1.3,0c-3.1,0.3-12.1,0.1-15.3-0.4
			c-2.8-0.4-4.4-0.6-7.2-1.3c-2.9-0.8-5.5-1.9-8.6-2.8c-2.5-0.8-4.3-1.2-6.9-1.7c-6.1-1-13.5-1.1-19.4,0.9c-0.4,0.2-1,0.3-1.5,0.5
			L0,123.9v1.2c0.3-0.1,0.4-0.1,0.8-0.3L3,124c9.1-2.9,19.2-2.1,28.1,1c8.3,2.9,7.1,2.8,16.3,4c2.8,0.4,6.9,0.4,9.7,0.5l2.7-0.1
			c1.5,0,5.4-0.5,6.8-0.6c0.8-0.1,1.6-0.2,2.5-0.4l7.8-1.1c1.9-0.3,8.6-0.8,10.8-0.9c1-0.1,1.9-0.1,2.8-0.1c1.1,0,1.8-0.1,2.8-0.1
			c2,0,3.7-0.1,5.8-0.1l12.2,0.1c1.2,0,2.2,0.1,3.4,0.1c0.7,0,0.9,0.1,1.6,0.1c0.6,0,1.3,0,1.8,0l10.2,0.4c1.1,0.1,2.4-0.1,3.5,0
			l6.9,0.2c2.4,0,4.7,0,7.1,0c1.2,0,2.2,0.2,3.4,0.1c2.4-0.1,4.3-0.1,6.8-0.3c3.7-0.3,5.7-0.5,9.5-1.3c1.9-0.4,3.9-1,5.6-1.6
			c1.8-0.6,3.4-1.3,5.2-1.9c7.9-2.5,13.1-3,21.2-3.7l5-0.3c0.6,0,1.2,0,1.8,0c0.6,0,1-0.1,1.7-0.1l31.5,0v-0.7l-29.3,0
			c-0.8,0-1.3,0.1-2.1,0.1c-1.4,0-2.9,0-4.3,0l-5.4,0.1c-0.4,0-0.5,0.1-1,0.1c-1.9,0-4.4,0.2-6.2,0.5c-0.7,0.1-1.3,0.2-1.9,0.2
			c-0.7,0.1-1.4,0.2-1.9,0.3c-1.3,0.2-2.5,0.5-3.7,0.8c-1.2,0.3-2.3,0.6-3.5,0.9c-1.1,0.4-2.2,0.8-3.3,1.2c-5.3,2.1-7.9,3-13.9,3.9
			C158.6,125.8,155.6,126.1,152.8,126.1L152.8,126.1z"/>
		<path class="st0" d="M152.5,122.4l-20-0.2c-1.2-0.1-11.3-0.3-12.7-0.3c-0.6,0-0.8-0.1-1.5-0.1l-4.8-0.1c-4.3,0-8.4-0.2-12.7-0.2
			c-7.9,0-15.8,0.4-22.8,1.4c-1.8,0.3-3.5,0.6-5.2,0.8c-1.7,0.2-3.7,0.6-5.5,0.6c-0.4,0-0.9,0.1-1.4,0.1c-0.4,0-1,0.1-1.4,0.1
			c-1.4,0.2-8.7,0.4-10.1,0.4c-0.5,0-0.8-0.1-1.4-0.1c-1.3,0-5.7-0.2-6.9-0.4c-0.5-0.1-1-0.1-1.4-0.1c-2.8-0.3-7.1-1.2-9.6-2.2
			c-1.4-0.6-2.8-1.1-4.3-1.7c-1.4-0.6-3-1-4.6-1.4c-6.8-1.5-16.6-1.6-23.1,0.7L0,121v1.2l3.4-1.3c7.8-2.7,15.1-2.8,23.1-0.8
			c3,0.8,5.5,2,8.4,2.9c3.2,1,8,2.2,11.6,2.4c1.8,0.1,3.5,0.3,5.4,0.3c1,0,1.9,0,2.7,0.1l2.6-0.1c0.5,0,0.9,0,1.4,0
			c0.6,0,0.8-0.1,1.3-0.1c5.2-0.2,10.3-0.7,15.4-1.4c2.8-0.4,7.4-1.1,10-1.2l3.8-0.3c0.5,0,1,0,1.4,0c5.6-0.5,16.1-0.1,22.3-0.1
			c0.7,0,1,0.1,1.7,0.1c1,0,2.6-0.1,3.5,0l21,0.4c1.3,0,2.2,0.1,3.4,0.1l8.8,0c0.7,0,1,0.1,1.7,0.1c1.2,0,2.4,0,3.5,0l6.8-0.4
			c1-0.1,2.1-0.3,3.1-0.4c4-0.7,7.3-1.6,11.2-3.1c1.2-0.5,4.2-1.3,5.5-1.7c4.5-1.2,7.5-1.6,12.2-2.1c0.4,0,1.2-0.1,1.6-0.2l5-0.3
			c0.7,0,1.1-0.1,1.6-0.1c0.6,0,1.2,0,1.8,0c0.6,0,1-0.1,1.7-0.1l10.4,0c6.7,0,13.2,0.1,19.9,0.1v-1c-2.3,0-21.4,0.1-22.2,0
			c-0.7-0.1-1.5-0.1-2.2,0c-1.1,0.2-3.3,0-4.5,0c-3.1,0-6,0.1-9,0.2l-3.1,0.2c-0.5,0-0.6,0.1-1.1,0.1c-3.9,0.1-11.8,1.6-15.6,2.9
			c-1.1,0.4-2.3,0.7-3.4,1.2c-3.2,1.3-3.3,1.8-7.1,2.2c-1.3,0.1-2.7,0.4-4,0.5c-1.9,0.2-6.6,0.9-8.3,0.9c-0.5,0-0.5,0.1-1,0.1
			c-0.4,0-0.8,0-1.2,0C154.1,122.4,153.4,122.4,152.5,122.4L152.5,122.4z"/>
		<path class="st0" d="M169.4,110.8c-6.5,0-12.8-0.4-19.3-0.3c-0.7,0-0.9-0.1-1.5-0.1l-3.2,0c-0.7,0-1-0.1-1.6-0.1
			c-1.1,0-2.2,0-3.2,0c-1.1,0-2-0.1-3.2-0.1c-2.2,0-4.2-0.1-6.5-0.1c-1.2,0-2-0.1-3.1-0.1c-1.1,0-2.2,0-3.3,0
			c-0.7,0-0.9-0.1-1.5-0.1c-5,0-11.8-0.2-16.5,0.2c-1.1,0.1-2.2,0.1-3.3,0.1l-3.2,0.2c-6.6,0.5-12.1,1.3-18.4,2.5
			c-2.6,0.5-9.4,1.6-12.2,1.7c-1,0-2.2,0.2-3.2,0.2c-1.2,0-2.2,0.1-3.4,0.1c-3,0-6.2,0-9.1-0.2c-0.8-0.1-1.6,0-2.4-0.1
			c-0.7-0.1-1.5-0.1-2.3-0.2c-1.5-0.2-3-0.4-4.4-0.7c-3.3-0.7-4.4-1.6-7.2-3.1c-1.2-0.6-2.3-1.1-3.6-1.5c-2.1-0.6-4.4-0.9-6.6-1
			l-2.4-0.1c-1.2,0-2.4-0.1-3.6,0c-0.5,0.1-1.1,0-1.6,0.1c-1,0.1-2.1,0.2-3.1,0.3c-5,0.7-9,1.8-13.6,3.6c-0.8,0.3-1.7,0.7-2.5,0.9
			v1.1c1.5-0.4,3.7-1.4,5.2-2c3.2-1.1,8.2-2.5,11.7-2.7c1.1-0.1,2.2-0.3,3.2-0.3c3.3,0,6.9-0.2,10.1,0.2c2.6,0.3,5,1,7.1,2.6
			c0.6,0.5,1.3,0.9,2,1.3c2.2,1.2,5.1,1.7,7.7,2c0.9,0.1,1.9,0.2,2.9,0.3c1,0.1,2,0.1,3,0.2c1.1,0.2,4.4,0.1,5.5,0.2
			c1.5,0.1,0.9,0,2.2,0l10.7-0.6c1-0.2,1.9-0.2,2.9-0.3l17.1-2.5c1.9-0.3,3.7-0.5,5.7-0.7c1.5-0.1,4.7-0.4,6.1-0.4l3.1-0.1
			c1.1,0,2.2,0,3.2,0c1.2,0,2.1-0.1,3.1-0.1c14.7,0.1,29.3,0.3,44.1,0.3h9.1c0.4,0,0.8,0,1.2,0c0.5,0,0.6-0.1,1.2-0.1
			c0.8,0,1.7,0,2.5,0l4.7-0.3c2.1-0.3,4.4-0.7,6.3-1.3c5.4-1.6,10.9-3.1,16.6-3.6c3-0.3,6.1-0.7,9.3-0.7c0.6,0,0.7-0.1,1.1-0.1
			c0.4,0,0.8,0,1.2,0c0.8,0,1.5-0.1,2.4-0.1c1.7,0,3.2-0.1,5-0.1c0.9,0,1.4-0.1,2.3-0.1c0.8,0,1.7,0,2.5,0c1,0,1.5-0.1,2.4-0.1
			l12.8-0.1v-1.2l-15.8,0.5c-0.9,0-1.5,0.1-2.3,0.1c-1.1,0-5.8,0-6.8,0.2c-0.8,0.1-1.6,0-2.4,0l-5.5,0.3c-0.4,0-0.8,0-1.2,0
			l-6.6,0.5c-3.8,0.4-8,1.3-11.6,2.6c-4,1.4-7.2,2.4-11.5,2.7C172.5,110.7,170.9,110.8,169.4,110.8L169.4,110.8z"/>
		<path class="st0" d="M171.5,106.7l-9.3-0.1c-2,0-4.8-0.2-7.1-0.2l-12.8-0.4c-0.6,0-0.7-0.1-1.3-0.1l-5.8-0.1
			c-0.6,0-0.8-0.1-1.4-0.1c-4.5,0-12.2-0.5-16.8-0.1c-0.6,0.1-1.4,0-2,0c-0.8,0-1.2,0.1-1.9,0.1l-7.5,0.5
			c-6.7,0.7-10.8,1.3-17.4,2.7c-8.9,1.8-15.8,2.8-25.3,2.8c-3.3,0-6.7-0.2-9.9-0.4c-1.4-0.1-3.3-0.4-4.5-0.7
			c-2.1-0.5-3.7-1.2-5.5-2.3c-1.1-0.7-1.8-1.7-3-2.2c-0.7-0.3-1.2-0.5-2-0.7c-5.6-1.2-11.9-1.1-17.5-0.4c-2.6,0.3-4.9,0.7-7.3,1.2
			c-5.3,1.1-8.5,2.7-13.2,3.8v1c0.5-0.3,2.7-0.7,3.5-0.9c1.2-0.3,2.2-0.8,3.4-1.1c2.3-0.7,4.6-1.4,7-1.9c2.5-0.6,4.9-0.9,7.6-1.3
			c1.4-0.2,2.8-0.2,4.1-0.3c0.7-0.1,1.5,0,2.2,0c0.4,0,0.5-0.1,1-0.1c1.9,0,3.8,0.1,5.7,0.2c2.6,0.1,5.1,1,7.2,2.7
			c3.4,2.7,6.4,3.4,10.8,3.9c4.2,0.5,9.4,0.9,13.8,0.5c0.4,0,1,0,1.4,0c0.6,0,0.8-0.1,1.4-0.1c1.8,0,3.7-0.3,5.5-0.4
			c0.9-0.1,1.8-0.2,2.6-0.3c0.9-0.1,1.7-0.2,2.6-0.3c5.1-0.8,10-1.8,15.1-2.7l13-1.7l5.6-0.3c0.5,0,0.7-0.1,1.3-0.1l4.4-0.1
			c0.9,0,2,0.1,2.9,0c1.9-0.3,3.9,0,5.7,0c4,0,7.7,0.1,11.5,0.2c0.5,0,0.7,0.1,1.3,0.1c2.8,0,5.8,0.3,8.6,0.3c0.6,0,0.8,0.1,1.4,0.1
			c0.5,0,1,0,1.4,0c0.5,0,0.8,0.1,1.4,0.1c0.6,0,0.9,0.1,1.3,0.1c0.5,0,1,0,1.5,0c0.5,0,0.7,0.1,1.3,0.1l4.3,0.2c1.3,0.2,3,0,4.3,0
			c0.6,0,0.8,0.1,1.4,0.1l4.3-0.1c0.7,0,0.9-0.1,1.4-0.1c3.7-0.1,7.4-0.5,10.6-1.2c2.4-0.5,4.8-1,7.1-1.8c0.9-0.3,1.4-0.4,2.5-0.5
			c2.9-0.2,7.5-0.8,10.7-1.1l14.9-1.3c0.5,0,1,0,1.5,0l8.5-0.3c1,0,1.8-0.1,2.8-0.1c2,0,3.8-0.1,5.9-0.1v-1
			c-1.2,0.3-2.9-0.1-4.3,0.2c-1,0.2-5.2,0.2-6.6,0.2c-0.9,0-1.4,0.1-2.1,0.1c-1.6,0-2.9,0.1-4.5,0.1l-4.2,0.2c-0.7,0-1.5,0-2.2,0
			c-0.5,0-0.5,0.1-1,0.1l-3.3,0.1c-0.5,0-0.6,0.1-1,0.1l-3.3,0.2c-0.7,0.1-1.5,0.1-2.2,0.1c-1.8,0-6.3,0.7-8,1
			c-3.9,0.7-7.2,1.7-11,2.6c-1.9,0.4-3.9,0.8-5.8,1c-0.7,0.1-1.5,0.2-2.1,0.2C174.4,106.6,173.1,106.7,171.5,106.7L171.5,106.7z"/>
		<path class="st0" d="M138.7,134c-1.9,0-3.4-0.1-5.3-0.1l-3.9-0.1c-0.6,0-0.8-0.1-1.3-0.1c-0.4,0-0.9,0-1.3,0l-5.1-0.3
			c-0.4,0-1,0-1.4,0c-2.2-0.3-5.6-0.3-7.7-0.4l-6.5-0.3c-0.6,0-0.7-0.1-1.3-0.1c-0.4,0-0.9,0-1.3,0c-0.5,0-0.7-0.1-1.3-0.1
			c-1.9,0-3.4-0.1-5.4-0.1l-10.3,0.2c-0.4,0-0.8,0-1.2,0c-3.7,0.3-7,0.7-10.8,1.2l-8.5,1c-13.2,1.1-18.7,0.8-31.9-3
			c-4.4-1.3-10.6-2.7-15.3-3.3c-6.1-0.8-11.7-0.7-17.5,1.4L0,130.3v1c1.7-0.1,3.2-2.1,13.9-2.1c6.2,0,11.1,1,16.7,2.3
			c6.3,1.5,7.3,2.8,15.2,4c5.5,0.8,10.2,1.2,15.8,0.8c0.4,0,0.9,0,1.3,0c0.5,0,0.7-0.1,1.3-0.1c3.1,0,12.9-1.9,17.1-2.2
			c3.1-0.2,7.3-0.6,10.3-0.6c0.9,0,1.8,0.1,2.7,0c1.8-0.3,3.7,0,5.4,0c1.9,0,3.6,0,5.4,0.1c0.5,0,0.6,0.1,1.2,0.1
			c1.9,0,3.3,0.2,5.3,0.2c0.8,0,2.7,0.2,3.9,0.2c1.8,0,3.6,0.2,5.4,0.2c2.7,0,6.2,0.3,9.2,0.3c0.6,0,0.7,0.1,1.3,0.1
			c2,0,15.1,0.4,17.6,0l4-0.4c1.3-0.1,2.5-0.4,3.8-0.6c3.9-0.7,8.3-2,11.8-3.5c4.3-2,7.4-2.5,12-3.5c4.1-0.9,7.5-1.1,11.6-1.6
			c0.6-0.1,1.4-0.1,2-0.1c0.5,0,0.6-0.1,1-0.1c0.4,0,0.8,0,1.1,0c0.4,0,0.4-0.1,0.9-0.1c0.4,0,0.8,0,1.1,0c0.8,0,0.8-0.1,2.1-0.1
			c0.9,0,1.4-0.1,2.1-0.1l8.6,0c9,0,17.6,0.2,26.5,0.2v-1l-36.7,0.1c-1,0-1.6,0.1-2.5,0.1l-7.8,0.2c-0.7,0.1-1.8,0.2-2.4,0.2
			c-0.9,0-1.6,0.1-2.4,0.2c-0.8,0.1-1.6,0.2-2.4,0.3c-4.1,0.5-8.9,1.8-12.8,3.2c-3,1.1-4.3,1.9-7.8,3c-1.4,0.4-2.8,0.8-4.3,1.1
			c-2.9,0.6-4.2,0.7-6.9,1.1l-2.5,0.2c-0.4,0-0.7,0.1-1.2,0.1c-0.8,0-2.6,0.2-3.8,0.2C142,133.9,140.5,134,138.7,134L138.7,134z"/>
		<path class="st0" d="M140.1,145.4l-6.9-0.3c-0.4,0-0.8,0-1.2,0c-0.5,0-0.6-0.1-1.1-0.1c-1.6,0-3-0.2-4.6-0.2l-7.9-0.5
			c-0.5,0-0.7,0-1.2-0.1l-10.2-0.7c-0.5,0-0.8,0-1.1-0.1c-0.4-0.1-0.8,0-1.2,0c-2.6-0.1-5.3-0.4-8-0.4c-0.4,0-0.8,0-1.2,0
			c-0.5,0-0.6-0.1-1.1-0.1c-1.5,0-5.3,0.3-6.8,0.4c-0.7,0.1-1.4,0.2-2.1,0.3c-3.3,0.6-7.1,1.5-10.4,1.7c-0.7,0-1.6,0.2-2.2,0.2
			c-1.6,0-3,0.2-4.7,0.2l-6.2-0.1c-3.6,0-9.6-1.1-13.2-1.7c-3.1-0.5-6.3-1.2-9.3-1.9c-6.3-1.3-12.5-2.5-18.8-3.5
			c-4.7-0.7-10.2-0.8-14.8,0c-1,0.2-1.9,0.4-2.8,0.5c-1,0.2-2.1,0.3-3.1,0.3c0,0.5,0.1,0.5,0.1,1c3.6,0,6.5-1.3,11-1.3
			c5.3,0,10.8,0.4,15.6,1.1c3.1,0.4,6.4,1,9.5,1.7c12.4,2.8,17.2,4.8,31.6,4.8c4.8,0,9-0.7,13.1-1.4c1-0.2,2.1-0.4,3.2-0.5
			c5.7-0.7,9.8-0.8,15.7-0.8l3.8,0.1c0.5,0,0.6,0.1,1.2,0.1L115,145c0.6,0.1,1.8,0.2,2.4,0.2l5.1,0.3c1.7,0.1,3.4,0.3,5.1,0.3
			l2.6,0.2c1.2,0.2,6.8,0.2,7.7,0.3c1.9,0.3,8.3-0.1,10.1-0.4c4.4-0.6,8.6-1.6,12.6-3.3c3.3-1.4,6.3-2.9,9.8-4
			c5-1.5,9.6-2.5,14.9-3.2l4-0.4c0.7-0.1,1.4,0,2.1-0.1c8.4-1,23.4-0.4,31.6-0.4c1.3,0,2.3,0.1,3.5,0.1c1.2,0,2.5,0,3.7,0
			c1.3,0,2.3,0.1,3.6,0.1c1.2,0,2.5,0,3.7,0v-1c-8.9,0-17.9,0-26.8,0c-1.9,0-3.6,0.1-5.4,0.1c-1.8,0-3.6,0-5.5,0
			c-1.8,0-3.5,0.1-5.4,0.1l-3.9,0.1c-0.6,0-0.7,0.1-1.3,0.1c-5.5,0-13.8,1.3-18.9,3.1c-2.7,0.9-5.3,2-7.8,3.3
			c-3.8,2-8.4,3.3-12.5,4.1l-4.8,0.7C144.3,145.3,141.2,145.4,140.1,145.4L140.1,145.4z"/>
		<path class="st0" d="M149.9,129.9c-2.5,0-6.8,0.1-9-0.1l-4.5,0c-0.6,0-0.8-0.1-1.5-0.1c-1,0-2,0-3,0c-1,0-1.8-0.1-2.9-0.1
			c-0.5,0-1,0-1.5,0c-0.7,0-0.9-0.1-1.4-0.1c-0.9,0-2.2,0.1-3.1,0c-0.9-0.1-1.9,0-3-0.1l-10.4-0.3c-0.6,0-0.8-0.1-1.4-0.1
			c-0.9,0-2.2,0.1-3,0c-2.4-0.3-6.2,0.1-7.6-0.1c-0.4-0.1-0.8-0.1-1.4-0.1c-1,0.1-4.6,0.1-6,0.1c-0.6,0-0.8,0.1-1.4,0.1
			c-3.4,0-9.5,0.6-12.8,1.1c-3.5,0.5-7.4,0.9-11.1,1.2c-1,0.1-1.9,0.1-2.8,0.2l-3,0.1c-0.7,0-0.9,0.1-1.4,0.1c-0.5,0-1,0-1.5,0
			c-0.6,0-0.8,0.1-1.4,0.1c-5.8,0-10.6-0.2-15.5-1.7c-1-0.3-2-0.6-2.9-1c-5.6-2.3-9.8-3.2-15.5-3.9l-5.4-0.4c-0.6,0-1.5,0.1-2,0
			c-2.4-0.3-7.8,0.4-10.2,1.3c-0.9,0.3-2.1,0.7-2.9,1.1v1.1l2.9-1.1c3.1-1.1,8-1.3,11.4-1.3c2,0,3.7,0.2,5.6,0.3
			c4.7,0.3,10.2,1.9,14.6,3.4c5.4,1.9,9.1,2.6,14.9,3.1c12.5,1,19.4-0.4,31.3-2.1c0.9-0.1,1.8-0.2,2.7-0.3c0.9,0,1.8-0.2,2.8-0.2
			c0.6,0,0.8-0.1,1.4-0.1c2.7,0,8-0.3,10.2-0.1l4.5,0c0.6,0,0.9,0.1,1.4,0.1c1.7,0.1,4.2-0.1,5.8,0.1c0.8,0.1,1.9,0,2.9,0.1
			c0.5,0,0.8,0.1,1.4,0.1l4.4,0.1c0.5,0,1,0,1.5,0c0.6,0,0.8,0.1,1.4,0.1c5.8,0,12,0.3,17.8,0.3l7.5,0c2,0.2,2.2,0,4.4,0
			c9.1,0,15.2-2.2,22.4-4.7c2.3-0.8,4.8-1.6,7.1-2.1c4.1-0.9,6.1-1.3,10.3-1.8c1.8-0.2,3.7-0.3,5.5-0.5c1.4-0.2,4.5-0.1,5.8-0.2
			c1.8-0.2,4,0.1,5.9-0.1c1.8-0.2,4-0.1,6-0.1c0.6,0,0.7,0.1,1.3,0.1c0.5,0,1,0,1.5,0h9.1c2,0,3.8,0.1,5.9,0.1c2,0,4,0,6.1,0v-1
			c-11.8,0-24.1,0.3-35.9,0.3l-5.9,0.2c-0.9,0.1-2.1-0.1-3,0l-5.6,0.4c-0.9,0.1-1.8,0.2-2.7,0.3c-5.2,0.8-9.6,1.9-14.3,4.1
			c-1.4,0.7-3,1.1-4.5,1.6C161,129,155.2,129.9,149.9,129.9L149.9,129.9z"/>
		<path class="st0" d="M139.9,141.6c-2.5,0-5,0-7.5-0.1c-0.5,0-0.7-0.1-1.3-0.1l-10.9-0.6c-1.9,0-3.5-0.3-5.5-0.3
			c-0.6,0-0.7-0.1-1.3-0.1c-0.6,0-0.8-0.1-1.3-0.1L97,139.5c-0.6,0-0.7-0.1-1.3-0.1c-3,0-6.2,0.1-9.1,0.3c-4.9,0.4-9,1.5-13.9,2
			c-7,0.7-8.3,0.5-14.7,0.4l-3.2-0.3c-2.1-0.3-4.1-0.5-6.1-0.8c-4.4-0.8-7.1-1.6-11.3-2.6c-3.8-0.9-7.5-1.7-11.5-2.3
			c-5.5-1-9.5-1.4-15.2-1.4c-2,0-4,0.3-5.8,0.6c-0.9,0.1-1.7,0.4-2.5,0.6l-2,0.4c-0.3,0-0.4,0.1-0.5,0.3v0.8v0
			c0.7,0,1.9-0.3,2.5-0.4c4.8-1.2,7.1-1.1,12.1-1.1c1.9,0,3.6,0.2,5.4,0.3c6.6,0.5,13.1,1.9,19.4,3.7c5.5,1.6,11.2,2.7,17.1,3.2
			l2.6,0.2c0.8,0,2-0.1,2.8,0c1.2,0.2,5.4-0.1,6.8-0.2c2.2-0.2,4.4-0.4,6.5-0.8c7.4-1.3,17.1-2.1,25.4-1.7c0.6,0,1.3,0,1.9,0l9,0.5
			c0.7,0,1,0.1,1.7,0.1l5.5,0.3c0.4,0,0.4,0.1,0.8,0.1c0.3,0,0.7,0,1,0c1.2,0.1,2.3,0.2,3.6,0.2c0.7,0,1,0.1,1.8,0.1l10.9,0.4
			c1.7,0,3.8,0.3,5.5,0c0.6-0.1,1.3,0,1.9,0c1.1-0.1,2.4-0.3,3.5-0.3c4.1-0.2,11.7-2.3,15.2-3.9c1.8-0.8,3.4-1.7,5.3-2.4l3-0.9
			c5.9-1.5,11.8-2.6,18-3.1c3-0.2,5.8-0.5,9-0.5c0.7,0,1-0.1,1.8-0.1c0.6,0,1.4,0,1.9,0c3.1-0.3,11.4-0.1,14.8-0.1
			c2.4,0,4.6,0.1,6.9,0.1c4.7,0,9.2,0.1,13.9,0.1v-0.7c-10.2,0-20.1-0.2-30.3-0.2c-3.3,0-6.3,0.1-9.6,0.1l-11.6,0.7
			c-2.2,0.3-4.3,0.5-6.4,0.9l-6,1.3c-0.7,0.2-1.3,0.4-2,0.6c-1.6,0.4-3.1,1-4.6,1.5c-0.4,0.1-0.6,0.2-0.9,0.3
			c-0.6,0.2-1.2,0.4-1.7,0.7c-1.2,0.5-2.2,1-3.4,1.5c-3,1.5-8.7,2.7-11.9,3c-1.2,0.1-4.4,0.5-5.6,0.5L139.9,141.6L139.9,141.6z"/>
		<path class="st0" d="M162,118.5h-8.9c-16.7,0-32.9-0.6-49.7-0.6c-8.5,0-16.6,0.5-24.1,1.5c-4.8,0.7-9.4,1.4-14.3,1.7
			c-2.4,0.1-3.7,0.3-6.2,0.3c-1.1,0-2,0.1-3.1,0.1l-8.9-0.3c-1.8-0.1-4.9-0.4-6.5-0.8c-2.2-0.5-4.5-1.2-6.2-2.1l-2.7-1.5
			c-1.9-0.9-8.1-1.8-10.4-2.1c-1.2-0.1-2.8,0-4-0.2c-0.8-0.1-1.2,0-1.9,0.1c-0.7,0-1.4,0.1-2,0.1c-3.3,0.2-7.1,1.1-10.2,2.3l-3,1.2
			v1.1l3.7-1.5c1.3-0.5,2.6-0.8,4.1-1.1c5.6-1.3,13.4-1.4,19-0.1c6.8,1.5,8.3,4.1,16,5.1c1.6,0.2,5.7,0.6,7.3,0.6l2.5,0.1
			c6.2,0,8.5-0.3,14.7-0.8c1-0.1,1.9-0.1,2.9-0.3l5.8-0.6c1.2-0.1,4.3-0.5,5.8-0.6c0.6-0.1,0.9-0.1,1.5-0.1l13.6-0.8l10.9-0.1
			c9.7,0,19,0.3,28.6,0.3c1.3,0,2.2,0.1,3.4,0.1c2.4,0,9.3-0.1,10.9,0.1c1.1,0.2,13-0.1,14.4-0.1c0.6,0,0.9-0.1,1.6-0.1
			c0.4,0,1.3-0.1,1.6-0.2c1.2-0.2,2.1-0.3,3.2-0.5c5.3-0.9,6.8-1.9,11.2-3.4c9.6-3.3,21.9-3.7,33-3.7c7.4,0,14.5,0.1,21.9,0.1v-0.8
			H210c-2.4,0-4.5,0.1-6.8,0.1c-1.8,0-4.9,0.1-6.6,0.3c-4.7,0.5-7.1,0.6-11.9,2.1c-1.8,0.6-3.3,1.3-5,1.9c-0.2,0.1-0.4,0.2-0.6,0.2
			c-0.2,0.1-0.4,0.1-0.7,0.2c-1.3,0.4-2.6,0.9-4.1,1.2C170.5,117.7,166,118.5,162,118.5L162,118.5z"/>
		<path class="st0" d="M137.5,137.8c-3.8,0-7.4-0.2-11-0.3l-6.7-0.4c-1.2,0-2.7-0.2-4.1-0.2l-8-0.5c-1.4,0-2.7-0.2-4.1-0.2
			c-0.6,0-0.7-0.1-1.3-0.1c-0.5,0-1,0-1.4,0c-0.5,0-0.7-0.1-1.3-0.1c-2,0-3.7-0.1-5.7-0.1c-7.7,0-13,0.9-19.9,1.9
			c-1.2,0.2-2.6,0.4-3.8,0.5c-4.9,0.4-7.1,0.5-11.9,0.5c-1.2,0-2.1-0.1-3.1-0.1c-1.4,0-4.4-0.3-6-0.5c-2.8-0.4-5.6-0.8-8.2-1.5
			c-6.5-1.7-14.7-3.9-21.4-4.7c-5.5-0.6-8.9-0.8-14.4,0.1c-1.4,0.3-3.9,1.3-5.1,1.3v1.1c0.7-0.1,2-0.5,2.7-0.7
			c5.4-1.6,11.3-1.2,17-1c1.6,0.1,4.7,0.6,6.2,0.9c7.3,1.3,13.2,3.8,20.6,5.1c0.8,0.1,1.6,0.2,2.5,0.4c2.6,0.4,5.2,0.7,7.8,0.7
			c1,0,1.7,0.1,2.7,0.1c0.6,0,0.8-0.1,1.3-0.1l2.8,0c3.8-0.2,7.7-0.7,11.5-1.3c1.7-0.3,3.4-0.5,5-0.7c1.7-0.2,3.5-0.4,5.2-0.4
			c1.4,0,2.3-0.2,4-0.2c0.6,0,0.7-0.1,1.3-0.1c2,0,3.7-0.1,5.6-0.1l5.6,0.1c0.8,0,1.1,0.1,1.8,0.1c1.4,0,2.4,0.1,3.7,0.1
			c0.7,0,1,0.1,1.8,0.1L122,138c0.7,0,1.2,0,1.8,0.1c0.6,0.1,1.3,0,1.9,0l3.5,0.2c0.6,0,1.3,0,1.9,0c0.8,0,1.1,0.1,1.8,0.1
			c1.3,0,8.5,0,9.5,0.2c0.8,0.1,1.2,0,1.8-0.1c0.6,0,1.3,0,1.9,0c0.8,0,1.1-0.1,1.8-0.1c4.2,0,11.9-2,15.8-3.5c4-1.6,7.3-2.9,11.5-4
			c1-0.3,2.1-0.5,3.2-0.7c2.1-0.5,4.3-0.8,6.5-1.1c1.7-0.2,8.5-1,10.6-1l3.7-0.2c1.2-0.1,2.6,0.1,3.8-0.1c1.8-0.3,32.4,0.2,34.7,0.2
			v-1.1c-0.7,0-1,0.1-1.6,0.1l-8.6,0c-1.2,0-2.1,0.1-3.3,0.1c-4.7,0-9.1,0.1-13.8,0.1c-4.6,0-9,0.2-13.6,0.2c-0.7,0-0.9,0.1-1.6,0.1
			l-8.3,0.3c-2,0-7.2,0.9-9.2,1.3c-0.9,0.2-1.9,0.4-2.8,0.7c-4,1.1-6.6,2.1-10.3,3.7l-2.5,1c-3.2,1.3-8.1,2.2-11.4,2.6
			C146.5,137.5,142,137.8,137.5,137.8L137.5,137.8z"/>
		<path class="st0" d="M175.9,102.9l-5.3-0.1c-0.6,0-0.7-0.1-1.3-0.1c-1.9,0-3.6-0.2-5.5-0.2c-0.6,0-0.8-0.1-1.3-0.1
			c-0.5,0-1,0-1.4,0l-12.2-0.6c-0.5,0-0.9,0-1.4,0c-1.3-0.2-2.8-0.2-4.1-0.2c-0.6,0-0.8-0.1-1.4-0.1c-1.6,0-14.4-0.4-16.3-0.2
			l-4.9,0.2c-0.7,0-1,0.1-1.6,0.1c-1.1,0-2.2,0.2-3.2,0.2l-6.2,0.6c-9.2,0.9-19.6,3.8-29.2,5.2c-8.1,1.2-17.2,1.5-25.3,0.1
			c-2.9-0.5-5.3-1.1-7.4-2.9c-0.7-0.6-1.2-1-2-1.5c-2.4-1.5-5.2-2.2-8.1-2.2l-6.4-0.1c-3.1,0-9.5,0.8-12.5,1.5
			c-0.6,0.1-1.4,0.3-2,0.4c-3.2,0.7-6.3,1.5-9.4,2.4c-1.2,0.3-2.4,0.7-3.7,1c-1.2,0.3-2.6,0.7-3.9,0.8v0.6c2.1,0,13.2-3,16.2-3.6
			c1.3-0.3,2.7-0.6,4.1-0.8c0.6-0.1,1.5-0.3,2.1-0.4c5.8-0.9,14.5-1.9,19.9-0.3c2.8,0.8,4.3,2.2,6.5,3.7c2.2,1.5,5,2.2,7.6,2.6
			l4.4,0.5c0.4,0,1.1,0.1,1.6,0.1c0.9,0.1,5.1,0,6.4,0c1.6,0,4.6-0.3,6.3-0.4c3.9-0.4,7.9-1,11.8-1.7l17-3.3c2.4-0.4,4.8-0.8,7.3-1
			l3-0.3c0.6,0,1.1-0.1,1.6-0.1l6.3-0.4c1.1-0.2,2.2,0.1,3.3-0.1c1.1-0.2,8.5-0.1,10.6,0c0.6,0,0.7,0.1,1.2,0.1c0.8,0,1.6,0,2.4,0
			c1,0,1.5,0.1,2.4,0.1l6,0.2c0.5,0,0.6,0.1,1.2,0.1l3.6,0.2c0.8,0.1,2.6,0.1,3.6,0.2l2.4,0.1c1.7,0,3.1,0.2,4.8,0.2l2.4,0.1
			c0.9,0,1.6,0.1,2.4,0.1c2,0,8.3,0.1,9.9-0.2c1.4-0.2,2.7-0.1,4-0.3c2.6-0.4,5-0.6,7.6-1.1c2.3-0.5,4.7-1.1,7.1-1.6
			c2.2-0.4,7.3-1.1,9.6-1.3l6.1-0.4c0.8,0,1.3-0.1,2-0.1l2.1-0.1c1.5,0,2.8-0.1,4.3-0.1l12.5-0.5c1.4,0,2.7-0.2,4.1-0.2v-1l-20.1,1
			c-1,0.1-2,0.1-3,0.1c-0.5,0-0.6,0.1-1,0.1c-1.4,0.1-2.6,0.1-4,0.2l-5.8,0.5c-4.4,0.5-8.8,1-13,1.9
			C185.2,101.8,182,102.9,175.9,102.9L175.9,102.9z"/>
		<path class="st0" d="M177.8,99.2l-5.5-0.2c-0.7,0-1.7-0.2-2.3-0.2c-0.8,0-1.7,0-2.5-0.1l-12-0.8c-0.8,0-1.6,0-2.4-0.1
			c-1.5-0.1-3.3-0.3-4.9-0.3l-12.5-0.3c-8.9,0-17.6,0.9-26.2,2.4c-4.1,0.7-7.8,1.7-11.8,2.5c-7.1,1.5-17.7,3.6-25,3.6
			c-0.7,0-0.9,0.1-1.6,0.1l-8.3-0.6c-2.8-0.3-6.2-0.9-8.4-2.4c-2.6-1.7-3.2-3.5-6.6-4.3c-1-0.2-2.1-0.2-3.2-0.4
			c-0.4-0.1-1-0.1-1.5-0.2c-3.6-0.3-6.6-0.4-10.2,0.1c-1.6,0.2-3.2,0.5-4.8,0.7c-4.7,0.8-9.3,1.8-13.9,2.7
			c-3.9,0.8-7.7,1.8-11.7,2.3c-0.8,0.1-1.8,0.2-2.6,0.2v1c2.8-0.2,7-1.2,9.7-1.8c1.6-0.3,3.1-0.7,4.7-1c5.6-1.3,11.2-2.5,16.9-3.3
			c2.7-0.4,5.6-0.6,8.3-0.6c2,0,5,0.1,7,0.5c0.7,0.2,1.3,0.3,2,0.6c4.3,1.6,3.1,5,12.6,6.4c11.8,1.7,24.9,0.3,36-2.4
			c6.8-1.6,11.9-2.9,19-4c2.5-0.4,5.2-0.7,7.7-0.9c0.8,0,1.8-0.2,2.6-0.2c2-0.1,9.4-0.5,11-0.3c1.6,0.2,3.9-0.1,5.5,0.2l9.5,0.5
			c0.6,0,0.9,0.1,1.4,0.1c3.6,0.2,7.1,0.4,10.6,0.7l4,0.2c0.5,0,0.7,0.1,1.3,0.1l2.7,0.1c1.3,0.2,2.8,0,4.2,0.1
			c0.6,0,0.7,0.1,1.3,0.1c0.5,0,0.7-0.1,1.3-0.1l4.1-0.1c2.5-0.2,5.2-0.6,7.6-0.9c1.8-0.2,3.4-0.5,5.1-0.7l10.1-1.2
			c1.7-0.2,3.4-0.4,5.1-0.6c1.7-0.2,3.5-0.3,5.1-0.5c0.9-0.1,1.7-0.2,2.6-0.2l5.2-0.5c2.7-0.3,5.3-0.3,8-0.5
			c1.7-0.1,3.6-0.3,5.4-0.4v-0.8c-0.5,0.2-24.3,2.2-26.3,2.3l-3.8,0.3c-2.5,0.3-5,0.4-7.5,0.7c-2.4,0.3-4.9,0.5-7.4,0.8
			c-4.1,0.5-8.7,1.5-12.8,1.6c-0.5,0-0.5,0.1-0.9,0.1C178.6,99.3,178.2,99.2,177.8,99.2L177.8,99.2z"/>
		<path class="st0" d="M193.5,88.4c-9.2,0-12.4-0.1-21.6-1.7c-14.2-2.5-29.4-1.8-43.2,1.9c-3.6,1-7.3,2.2-11,3.3
			c-2,0.6-5.6,1.5-7.7,1.9c-3,0.6-4.9,1-8,1.5c-1.1,0.2-7.4,0.9-8.6,0.9l-6.8,0.2c-5,0-11.5-1.1-14.3-3.2c-1.7-1.3-1.7-2.8-4.4-4.5
			c-3.4-2.2-6.9-1.9-10.9-1.9L52.1,87c-0.5,0-0.5,0.1-0.9,0.1c-2.7,0.1-4.9,0.4-7.3,0.8c-2.4,0.4-4.5,0.8-6.8,1.3
			c-7.2,1.5-13.1,3.1-20.5,4.1c-1.5,0.2-5.9,0.7-7.4,0.7c-0.5,0-0.5,0.1-0.9,0.1c-0.3,0-0.7,0-1,0L0,94.4v0.8
			c14.8,0,21.6-1.8,34.9-4.7c5.7-1.3,14.9-3.2,20.6-3.2c3.7,0,7.2,0.1,10.7,1.3c0.6,0.2,1.2,0.6,1.6,0.9c0.5,0.4,0.9,0.8,1.3,1.3
			c0.4,0.5,0.7,1,1.1,1.5c2.3,2.8,4.7,3.3,8.6,4c3.6,0.6,6.4,0.8,10.4,0.8c0.7,0,1.6,0.1,2.2,0c0.9-0.1,2.9-0.1,4.4-0.3
			c1.3-0.1,2.9-0.2,4.3-0.4c0.7-0.1,1.3-0.2,2.1-0.3c4.6-0.5,10.9-2.1,15.3-3.4c2.1-0.6,5.1-1.7,7.1-2.2c4.4-1.1,6.7-1.8,11.4-2.7
			c1.5-0.3,6.7-1.1,8.2-1.2c1.4-0.1,2.8-0.3,4.4-0.3c0.5,0,0.5-0.1,1-0.1c3.2-0.1,8.8-0.2,11.8,0.1c0.4,0,0.7,0,1.1,0
			c0.5,0,0.5,0.1,1,0.1c2.3,0.1,7.6,0.8,10,1.2c6.4,1,10.1,1.8,17.3,1.8c2.4,0,4.5-0.3,6.8-0.5c0.7-0.1,1.2,0,2.3-0.1
			c0.8-0.1,2.1-0.2,3-0.3c10.7-0.8,18.7-2,29.1-3.5c0.9-0.1,1.9-0.3,2.8-0.4c0.4-0.1,0.9-0.1,1.4-0.2c0.5-0.1,1-0.2,1.5-0.2v-1
			c-0.7,0-4.3,0.6-5.4,0.7c-1.8,0.3-3.6,0.5-5.4,0.8L216,86.2c-4.4,0.5-7.8,1.1-12.3,1.5l-7.2,0.5c-0.7,0-0.9,0.1-1.4,0.1
			C194.6,88.4,194,88.4,193.5,88.4L193.5,88.4z"/>
		<path class="st0" d="M186.8,92.1c-7,0-9.1-0.5-15.5-1.2l-6.2-0.8c-1.5-0.2-8.3-0.8-9.8-0.8l-5.2-0.1c-0.3,0-0.6,0-0.9,0
			c-0.5,0-0.4-0.1-0.8-0.1l-6.8,0.2c-2,0-8.5,0.8-9.7,0.9c-7.4,1.1-15.8,3.4-23.1,5.3c-3.8,1-7.6,1.8-11.6,2.6
			c-5.7,1.1-14.9,1.8-20.8,1c-3.6-0.5-8.7-0.7-11.2-3.2c-1.8-1.9-1.7-3.2-5.2-4.5c-1.8-0.7-4-0.8-6-1.1c-2.1-0.3-4.3-0.1-6.3,0.2
			c-1.1,0.1-2.2,0.3-3.2,0.4c-2.1,0.3-4.3,0.6-6.5,0.9c-6.3,0.7-12.3,2.3-18.4,3.6c-3.1,0.6-6.4,1.1-9.5,1.5l-5,0.4
			c-0.4,0-0.4,0.1-0.8,0.1L0,97.6v1c1.2,0,2.3-0.1,3.3-0.2c6.3-0.5,12.5-1.6,18.7-2.9c7.9-1.7,20.7-4.4,28-4.4
			c4.6,0,10.3-0.1,13.4,3.9l0.8,1.1c0.4,0.4,0.9,1,1.3,1.2c4,2.6,12.6,3,17.6,3c5.3,0,12-0.6,17-1.7c1.3-0.3,2.6-0.5,3.9-0.8
			c1.3-0.3,2.5-0.6,3.8-0.9c5.1-1.1,9.9-2.8,15-3.9c1.3-0.3,2.6-0.5,3.8-0.9c2.2-0.5,5.7-1.1,8-1.4c1.8-0.2,3.5-0.5,5.3-0.5
			c1.1,0,2.3-0.2,3.3-0.2c2,0,3.9-0.1,5.9-0.1c0.5,0,0.6,0.1,1.1,0.1c0.8,0,1.7-0.1,2.4,0c0.7,0.1,1.6,0,2.3,0.1
			c1.5,0.2,3.1,0.2,4.6,0.3c2.2,0.1,4.5,0.5,6.7,0.6l6.6,0.7c1.2,0.2,5.6,0.6,6.7,0.6c1.6,0,3.2,0.2,4.8,0.2c3.6,0,6,0,9.5-0.3
			c0.3,0,0.6,0,0.9,0c5.1-0.4,10.2-0.9,15.3-1.5l24.3-2.8c1-0.1,2-0.4,3.1-0.4v-1.1c-0.4,0-1.2,0.1-1.5,0.2c-0.6,0.1-1,0.1-1.6,0.2
			l-9.4,1.1c-2.1,0.2-4.3,0.5-6.3,0.7c-4.2,0.6-8.5,0.9-12.7,1.4C202.7,90.5,189.5,92.1,186.8,92.1L186.8,92.1z"/>
		<path class="st0" d="M181.6,95.5c-2.2,0-4.6,0-6.7-0.3c-1.4-0.2-2.7-0.2-4.2-0.4L154,93.5c-0.5-0.1-1.5-0.2-2.1-0.2
			c-0.4,0-0.8,0-1.1,0c-0.5,0-0.6-0.1-1.1-0.1c-1.6,0-2.8-0.1-4.5-0.1c-11.3,0-17.4,0.5-28.1,2.4c-2.4,0.4-4.7,1-7.1,1.7
			c-6.5,1.7-11,3.1-17.8,4.1c-1.3,0.2-4.5,0.7-5.8,0.7c-2.1,0.1-4,0.3-6.3,0.3l-3.4,0c-0.6,0-0.7-0.1-1.2-0.1l-2.5-0.1
			c-1.9,0-8-0.8-9.5-1.2c-1.4-0.4-2.5-1.1-3.6-1.9c-0.3-0.2-0.5-0.4-0.7-0.6c-4.8-4.5-4.1-3.4-10.5-4.2c-1.9-0.3-4-0.3-5.9-0.3
			c-6.6,0-24.6,4.1-31.4,5.5c-3.1,0.6-8,1.3-11.3,1.3v1c0.3,0,0.8-0.1,1.2-0.1c4.9-0.5,15.9-2.6,20.6-3.6c3.8-0.8,8.2-1.7,12-2.2
			c1.7-0.3,3.3-0.5,5-0.7c2.8-0.4,7.8-0.5,10.6-0.2c1.7,0.2,3.3,0.5,4.6,1.1c1.7,0.7,2.9,1.8,4.1,3.1c0.8,0.9,1.3,1.4,2.4,1.9
			c1.4,0.6,2.9,0.9,4.4,1.3c4.1,1,9.7,1.1,14.4,1.1c4,0,8.2-0.5,12.2-1c1.3-0.2,2.6-0.4,3.9-0.6c7.5-1.3,14.8-4,21.5-5.1
			c1.2-0.2,2.4-0.5,3.7-0.7c1.4-0.2,2.5-0.4,3.9-0.6c2-0.3,3.9-0.6,5.9-0.7c2.1-0.1,4.1-0.4,6.2-0.4l17.8,0.3l5.1,0.4
			c0.9,0,1.7,0.2,2.5,0.2c1.7,0.1,3.3,0.4,5,0.4c1.6,0,3.4,0.4,5.1,0.4l5.1,0.4c0.8,0.1,4.7,0.2,5.8,0.2c5.2,0,11.9-1.1,17-1.8
			c4.5-0.6,9-1,13.5-1.5l6.9-0.6c1.2-0.1,2.3-0.3,3.4-0.3c2.3-0.1,4.5-0.5,6.9-0.6c2.1-0.1,5-0.6,7-0.6v-0.7c-1.1,0-2.4,0.2-3.5,0.3
			l-3.5,0.3c-3.9,0.2-8.2,0.8-12.2,1.2c-0.6,0.1-1.2,0.1-1.8,0.1c-2.3,0.3-4.7,0.4-7,0.7c-4.6,0.5-9.3,0.8-13.9,1.4
			C191.8,94.8,185.3,95.5,181.6,95.5L181.6,95.5z"/>
		<path class="st0" d="M162.8,5.8l-7.3,0c-0.6,0-0.6-0.1-1.2-0.1c-0.8,0-1.8,0-2.6-0.1c-1.6-0.2-3.4-0.2-5.1-0.4
			c-7.3-0.8-16.3-0.9-23.5,0.2c-3.5,0.5-7.1,1.1-10.4,2.2c-0.8,0.3-1.6,0.5-2.4,0.7c-3.5,1.1-3.3,1.5-7.3,2.2
			c-7.3,1.2-10.8,0.8-17.6,0.8c-1.5,0-4.8-0.3-5.9-0.3c-1.9,0-3.9-0.3-5.8-0.3c-0.6,0-0.8-0.1-1.4-0.1c-0.5,0-1,0-1.5,0
			c-0.8-0.1-2.3,0-3-0.1c-1.7-0.2-4.1-0.1-6-0.1c-1.1,0-1.8-0.2-2.9,0c-1.9,0.3-4.2-0.2-6.1,0.1c-0.9,0.1-2.1,0-2.9,0.1
			c-0.5,0.1-1,0-1.5,0l-7.2,0.5c-0.9,0.1-1.9,0.2-2.8,0.2c-1.9,0.1-3.7,0.5-5.6,0.6c-0.9,0.1-1.8,0.2-2.7,0.3l-19.1,2.4
			C9.3,15,1.3,16,0,16v1c1.2-0.3,23.6-3.1,26.5-3.5c2.3-0.3,8.5-1.1,10.8-1.2l16.8-1.2c1.4-0.1,3,0,4.4,0c0.7,0,0.9-0.1,1.4-0.1
			c3.5-0.1,6.8,0.2,10.2,0.2c0.6,0,0.8,0.1,1.4,0.1c1.4,0,3.1,0.2,4.3,0.2l5.7,0.3c0.7,0,0.9,0.1,1.4,0.1c3.3,0.1,7.3,0.3,10.6,0
			c0.5,0,1.1,0,1.6,0c0.7,0,0.9-0.1,1.5-0.1c3.8,0,7.7-0.7,11.1-1.9c8.9-3.1,17.5-4.6,28.1-4.6c2.9,0,5.4,0.2,8.2,0.3
			c0.5,0,1,0.1,1.6,0.1L149,6c1.6,0.1,6.5,0.5,8.1,0.5c0.7,0,1.1,0.1,1.6,0.1c1.2,0.1,2.3,0,3.3,0.1l3.2-0.1c1,0,2.3,0,3.3-0.2
			c1.6-0.3,3.3-0.2,4.8-0.3c0.3,0,0.5,0,0.8,0c2.4-0.2,5-0.5,7.3-0.5c2.4,0,6.4-0.8,8.7-1.5c2.5-0.8,4.4-1.3,7-1.7
			c0.5-0.1,1.1,0,1.6-0.1c1-0.2,3.7,0.1,4.8,0.3c2.4,0.4,5,0.8,7.3,1.4c2.8,0.7,5.7,1.5,8.6,1.7c0.3,0,0.5,0,0.8,0
			c0.4,0,0.4,0.1,0.8,0.1c0.7,0,1-0.1,1.6-0.1c2.1,0,4.3-0.5,5.9-1.1c0.9-0.3,1.6-0.6,2.5-1c0.4-0.2,0.8-0.3,1.2-0.5
			c0.4-0.2,0.9-0.3,1.3-0.5c-0.1-0.2-0.3-0.3-0.5-0.4c-0.2-0.2-0.3-0.2-0.6-0.1c-1.4,0.4-2.5,1.1-3.9,1.6c-4,1.4-8.5,1.4-12.7,0.5
			c-0.8-0.2-1.5-0.4-2.3-0.6c-3.2-0.8-9.4-2.1-12.5-2.1c-2.2,0-4.5,0.1-6.5,0.5c-3.3,0.6-5.9,1.8-8,2.2c-1.6,0.3-3.1,0.3-4.6,0.5
			l-7.1,0.6c-0.7,0-1.7,0-2.4,0.1c-0.4,0.1-0.6,0.1-1.1,0.1c-0.9,0-2.5,0.2-3.6,0.2c-0.6,0-0.6,0.1-1.1,0.1c-0.4,0-0.9,0-1.3,0
			C164.5,5.8,163.8,5.8,162.8,5.8L162.8,5.8z"/>
		<path class="st0" d="M228.2,14.1c-5.1,0-6.4-1.1-10.9-2.4c-3.1-0.9-6.9-1.3-10.6-0.9c-2.3,0.2-5.2,0.8-7.2,1.6
			c-2.3,0.9-4.5,1.6-7,1.9l-28.7,0.4c-1.4,0-2.5-0.1-3.9-0.1c-1.6,0-3.2-0.2-4.8-0.3l-2.8-0.2c-1.3-0.1-2.8,0-4-0.1
			c-2.3-0.3-7.2-0.1-9.8-0.1c-0.8,0-1.1,0.1-1.9,0.1l-3.8,0.2c-1.1,0.2-2.5,0.3-3.7,0.4c-4.3,0.5-9.6,1.4-13.7,2.7l-4.7,1.5
			c-5.9,1.8-8.8,1.1-14.9,1.1c-0.8,0-1.1-0.1-1.9-0.1c-1.3,0-2.9,0.1-4.1,0c-0.6,0-1.1-0.1-1.9-0.1c-4.7,0-9.3-0.2-14.1-0.2
			c-1.4,0-2.5-0.1-3.9-0.1c-1.3,0-2.7,0-4,0c-0.8,0-1.1-0.1-1.9-0.1c-5.2,0-11.7-0.3-16.6,0.3l-3.5,0.2c-3.4,0.4-6.8,0.6-10.2,1.1
			l-6.7,0.8c-2.2,0.3-4.4,0.6-6.7,0.9c-3.3,0.4-6.7,0.9-10,1.2C8.2,24,1.4,25,0,25v0.8c0.4-0.2,2.9-0.4,3.6-0.5l25.9-3.2
			c1.2-0.1,2.4-0.3,3.6-0.4l15.3-1.4c1.1-0.2,2.7-0.1,4-0.2c0.6,0,1.1-0.1,1.9-0.1l14.9,0c0.5,0,0.6,0.1,1.1,0.1c0.4,0,0.8,0,1.2,0
			c0.5,0,0.6,0.1,1.1,0.1c2.6,0,6.8,0.4,9.3,0.4c1.7,0,3,0.1,4.8,0.1c1.6,0,3.2,0,4.9,0c0.8,0,1.4,0.1,2.3,0.1
			c5.4,0,13.1,0.5,17.9-1.4l4.2-1.6c3.7-1.3,8.2-2,12.2-2.4c0.3,0,0.9-0.1,1.3-0.1c0.3,0,1-0.1,1.4-0.1l4-0.3c0.6,0,0.8-0.1,1.4-0.1
			c2.1,0,3.8-0.1,5.8-0.1c1.6,0,2.9,0.1,4.3,0.1c1.6,0,2.9,0.1,4.5,0.1l8.7,0.4c3,0,5.9,0.1,9,0.1c0.9,0,1.3,0.1,2.1,0.1
			c0.9,0,1.4-0.1,2.2-0.1l15.7-0.1c0.4,0,0.8,0,1.1,0c0.5,0,0.6-0.1,1.1-0.1c6.6,0,5.7-1.3,11.1-2.7c5.8-1.5,11.6-1.4,17.3,0.5
			c1.8,0.6,3.2,1.2,5.2,1.6c2.7,0.6,5.3,0.4,7.7-0.4c2.6-0.9,3.5-1.8,5.6-3.3v-1c-0.4,0.1-2.3,1.7-3,2.1
			C232.8,13.2,230.7,14.1,228.2,14.1L228.2,14.1z"/>
		<path class="st0" d="M98.9,26c-1.7,0-13.4,0.1-14.5,0c-1.1-0.2-2.6,0.1-3.7-0.1c-1.7-0.2-3.8,0-5.4-0.3L66,25.2
			c-1.4,0-10.6-0.3-12.2-0.1c-1.1,0.2-2.6,0-3.9,0.1c-1.2,0.1-2.5,0-3.7,0.2c-1.3,0.2-2.5,0.2-3.7,0.3c-2.5,0.1-8,1-10.6,1.3
			l-10.6,1.4c-2.4,0.3-4.7,0.5-7.1,0.8L3.6,30.5c-0.6,0.1-1.2,0.2-1.8,0.2c-0.6,0.1-1.3,0.1-1.8,0.2v0.8c1,0,9.6-1.1,10.9-1.3
			l11-1.3c2.5-0.3,4.9-0.7,7.3-1c10.6-1.3,19.4-2.4,30.3-2.4l16,0.6c0.4,0,0.4,0.1,0.8,0.1l6.4,0.3c1.3,0,4.7,0,5.6,0.1
			c1.4,0.2,11.8,0.1,13.6,0.1c3.6,0,6.9-0.8,10.2-1.5c3.6-0.7,5.8-1.6,9.1-2.6c4.4-1.3,10.8-1.7,15.5-2c1-0.1,1.9,0,2.8-0.1
			c1.2-0.1,6.4,0,8.1,0c0.9,0,1.5,0.1,2.2,0.1c1.6,0,2.9,0.1,4.5,0.1c1.4,0,3,0.2,4.3,0.2c0.4,0,0.8,0,1.1,0c0.5,0,0.6,0.1,1.1,0.1
			c0.7,0,1.6-0.1,2.3,0l13.4,0.4c1.5,0,3.1-0.1,4.7,0l2.1,0.1c3.2,0,8.4,0.3,11.1,0.1c4.3-0.3,6.9-2.1,10.8-3.2
			c6.6-1.8,11.7-1.8,18.1,1c2.9,1.2,5,2.1,8.3,1.3c2.8-0.7,3.6-1.6,5.9-3.2V17c-0.2,0.1-0.6,0.5-0.8,0.7c-2,1.9-4.3,3-7.3,3
			c-3.1,0-5.3-1.3-7.6-2.3c-6.3-2.6-13.6-1.8-19.8,0.8c-0.5,0.2-0.9,0.4-1.4,0.6c-1,0.4-2,0.7-3,1c-1.7,0.4-3.6,0.5-5.3,0.5
			c-0.8,0-1.1-0.1-1.9-0.1c-1.3,0-2.6,0-3.9,0c-0.8,0-1.2-0.1-1.8-0.1l-5.9-0.1c-1.2-0.1-2.7,0-3.9,0c-1.4,0-8.7-0.3-9.6-0.2
			c-0.6,0.1-1.2,0.1-1.9,0.1c-0.6,0-1.1-0.1-1.8-0.1c-1.9,0-3.7-0.3-5.6-0.4l-1.8-0.1c-1.9,0-3.8-0.2-5.8-0.2c-0.6,0-1.3,0-1.9,0
			c-0.7,0-1.2-0.2-1.9-0.1c-1.2,0.2-2.6,0.1-3.9,0.1l-6.6,0.3c-2.6,0.2-5.4,0.4-8.1,0.9c-3.2,0.6-10,2.1-12.8,3.1
			c-2.2,0.8-4,1.5-6.5,1.5C104,25.9,101.6,26,98.9,26L98.9,26z"/>
		<path class="st0" d="M164.9,8.9c-1.4,0-3.1,0.1-4.5,0l-4.8-0.2c-1.1,0-2.2-0.2-3.1-0.2c-3.6-0.2-7.3-0.7-11-0.7
			c-0.6,0-0.8-0.1-1.5-0.1l-4.6,0c-1.1,0-1.9,0.1-2.8,0.1c-1.4,0-7.1,0.6-8,0.8c-1.7,0.3-3.4,0.5-5,0.9c-3.2,0.8-6.3,1.6-9.2,2.7
			c-5.8,2.2-12.5,2.2-18.9,2.2l-13.2-0.5c-1.2,0-3.1-0.2-4.4-0.2c-2.9,0-6-0.3-8.9-0.3c-1.9,0-4.1,0.1-6-0.1
			c-0.6-0.1-0.9,0.1-1.4,0.1l-7.7,0.1c-0.6,0-0.8,0.1-1.4,0.1L41.2,14c-1.9,0.1-6.2,0.7-8.2,1c-7.1,1-14.6,1.8-21.9,2.7
			c-1.8,0.2-3.8,0.4-5.5,0.7c-1,0.1-4.5,0.7-5.5,0.7V20c1.1,0,2.6-0.3,3.7-0.4l11.1-1.4c2.5-0.3,4.8-0.7,7.3-1l9.3-1.2
			c0.7-0.1,1.3-0.1,2-0.2c2-0.3,5.8-0.7,7.6-0.7c0.5,0,1.4-0.1,1.9-0.1c1.2-0.2,2.7-0.2,3.9-0.3c0.3,0,0.7,0,1,0
			c0.5,0,0.6-0.1,1-0.1c1.4-0.1,2.7,0,4-0.2c1.3-0.2,2.8,0.1,4.1-0.1c1.2-0.2,8.4,0,10.3,0l4.8,0.1c0.7,0,0.9,0.1,1.5,0.1
			c1.2,0,2,0.1,3.1,0.1c1.3,0,4.7,0.3,6.1,0.4c2.3,0.1,7.4,0.4,9.6,0.1c1-0.1,2.4,0,3.5,0l5.8-0.3c2.9-0.3,3.9-0.2,6.8-1.2
			c1.8-0.6,3.6-1.2,5.4-1.8c3.4-1.1,8.2-1.8,11.7-2.4c2.1-0.3,4.2-0.4,6.3-0.7c1.2-0.1,2.2-0.1,3.4-0.1c0.7,0,0.9-0.1,1.6-0.1
			c3.2,0,6.7,0,9.8,0.3c4.2,0.5,5.8,0.7,10.2,0.7l4.8,0c0.7,0,1-0.1,1.5-0.1c1.1,0,2.2,0,3.2,0c1.2,0,2-0.1,3.1-0.1
			c2.2,0,4.1-0.1,6.4-0.1c0.7,0,0.9-0.1,1.5-0.1c3.5,0,7.6,0,10.9-0.5c7.2-1,7.7-3.2,16.4-3.2c7.5,0,13.1,3.4,19,3.4
			c4.1,0,6.5-0.7,9.8-2.4l1.2-0.7c0.5-0.2,0.9-0.4,1.3-0.6c-0.5-0.9-0.7-0.6-2.9,0.6c-2.9,1.5-5.8,2.3-9.3,2.3
			c-4.4,0-9.3-2.1-13.8-2.8c-1.1-0.2-2.4-0.3-3.6-0.5c-1.1-0.1-2.7,0-3.9,0c-1.3,0-2.7,0.2-3.8,0.4c-2.3,0.4-4.3,1.1-6.5,1.8
			c-2.8,0.9-4.3,0.8-7.2,1.2c-1.3,0.2-2.6,0-4,0.2l-11.9,0.6c-0.8,0-1.2,0.1-1.9,0.1C166.3,8.9,165.6,8.9,164.9,8.9L164.9,8.9z"/>
		<path class="st0" d="M193.4,31.5c-1.9,0-3.8-0.3-5.6-0.5c-1.7-0.2-5.8-0.7-7.6-0.8l-4-0.2c-0.6,0-0.7-0.1-1.3-0.1
			c-1,0-1.9,0-2.7-0.1c-1.4-0.2-9,0-11.1,0c-1.9,0-3.5-0.1-5.5-0.1l-18.2,0.1c-4.1,0-11.3,0.1-15.3,0.6c-6.1,0.9-8.5,3.5-14.7,4.6
			c-0.8,0.1-2.1,0.3-2.9,0.3c-1,0-1.9,0.2-3,0.1c-1.4-0.2-8,0-9.3-0.2c-1-0.2-2.1-0.1-3.1-0.1c-0.7,0-0.9-0.1-1.5-0.1
			c-0.5,0-1.1,0-1.6,0c-3.9,0-8.3-0.4-12.2-0.4c-2,0-4.1-0.2-6.2-0.2c-0.9,0-2-0.2-2.9-0.2c-7-0.4-9.6-1-17,0L41,34.9
			c-3.3,0.5-6.8,0.8-10.1,1.2L24,37c-1.1,0.1-2.3,0.3-3.5,0.4c-4.6,0.4-9.1,1.2-13.7,1.6C4.8,39.1,2,39.7,0,39.7v1
			c1.1,0,2.3-0.3,3.4-0.4c3.5-0.4,6.9-0.7,10.4-1.2c4.6-0.7,9.1-1,13.7-1.7c2.3-0.3,4.6-0.5,6.8-0.9c1.2-0.2,2.3-0.3,3.4-0.4
			l10.5-1.1c1.2-0.2,6.4-0.4,7.3-0.4h5.1c1.8,0,3.4,0.2,5.1,0.2l4.9,0.4c0.4,0.1,0.8,0,1.3,0c1.5,0.2,3.4,0.3,5,0.3
			c0.6,0,0.7,0.1,1.2,0.1c0.4,0,0.9,0,1.3,0c0.5,0,0.6,0.1,1.2,0.1c1.8,0,3.3,0.1,5.2,0.1l2.5,0.1c0.8,0,1.8-0.1,2.6,0.1
			c1.7,0.3,3.5-0.2,5.2,0.1c1.8,0.3,5.2,0,7.2,0c1.9,0,3.7-0.2,5.4-0.5c1.9-0.3,3.1-0.7,4.6-1.3c0.7-0.3,1.3-0.6,2-1
			c0.6-0.4,1.2-0.9,1.9-1.1c1.7-0.4,9.8-1.8,11.6-1.7c0.7,0,0.9-0.1,1.4-0.1c1,0,2,0,3,0c4,0,7.7-0.1,11.7-0.1
			c4.2,0,8.1,0.1,12.2,0.1c2.2,0,4,0.1,6.1,0.1c1,0,2.2-0.1,3.1,0c0.5,0,0.8,0.1,1.4,0.1c2.5,0,5.1,0.3,7.5,0.3l16.1,1
			c1,0.2,2.1,0,3.1,0c1.8,0,3.5-0.3,4.9-0.7c0.4-0.1,0.7-0.3,1-0.4c0.3-0.2,0.7-0.3,1-0.4c1.3-0.6,2.7-1.2,4-1.6
			c5.7-1.7,13.4-3.7,18.6-0.3c0.6,0.4,1.1,0.8,1.7,1.2c3.8,2.4,8.2,1.4,11.4-1.5c0.6-0.5,0.7-0.4,0.7-1.5c-0.8,0.6-1.3,1.5-2.9,2.3
			c-3.9,2.1-7.5,1-11.1-1.2c-5.9-3.7-16.2-1.4-21.6,1.5c-0.8,0.4-1.6,0.8-2.5,1.1c-0.9,0.3-1.7,0.6-2.8,0.7
			C195.7,31.3,194.6,31.5,193.4,31.5L193.4,31.5z"/>
		<path class="st0" d="M142.9,10.8c-14.2,0-15.8,0.9-28.3,3.6c-1.4,0.3-3.2,0.7-4.5,1.1c-1.4,0.5-2.9,0.9-4.4,1.2
			c-2,0.4-11.8,0.3-15,0.3c-0.6,0-0.8-0.1-1.3-0.1c-1.7-0.1-3.8,0-5.6,0l-5.4-0.1c-0.8-0.1-1.7-0.1-2.6-0.1c-0.6,0-0.7-0.1-1.3-0.1
			c-4.1-0.1-8.1-0.3-12.2-0.3c-1,0-1.7-0.1-2.6-0.1l-4.8,0c-0.7,0-1,0.1-1.8,0.1c-0.6,0-1.3,0-1.9,0l-7.3,0.5
			c-0.7,0.1-1.2,0.1-1.9,0.2l-10.4,1.3c-2.4,0.3-4.6,0.7-7,0.9c-4.7,0.4-9.3,1.3-14,1.7c-1.2,0.1-2.3,0.3-3.5,0.4
			c-1.2,0.1-2.3,0.3-3.5,0.4c-1.2,0.1-2.4,0.4-3.5,0.4v0.7c1.1,0,6-0.7,7.3-0.9l14.5-1.8c2.5-0.3,4.8-0.6,7.3-0.9
			c2.4-0.4,4.9-0.5,7.3-0.9l5.5-0.6c2.5-0.2,7.1-0.7,9.5-0.7c0.8,0,1.1-0.1,1.9-0.1l6.3-0.1c1.8,0,3.3,0.1,5.1,0.1
			c0.6,0,0.7,0.1,1.2,0.1c1.6,0.1,3.3,0.2,5,0.2c0.6,0,0.7,0.1,1.2,0.1c0.4,0,0.9,0,1.3,0c0.5,0,0.6,0.1,1.2,0.1
			c2.9,0,7.2,0.4,10,0.4l7.8,0.1c0.8,0.1,1.7,0.1,2.5,0c1.6-0.2,3.5,0.1,5.1-0.2c0.9-0.1,3.1-0.2,4.7-0.5c3-0.4,5.9-1,8.8-1.8
			c2.8-0.8,5.2-1.8,8.1-2.5c8-1.8,13.3-1.6,21.3-1.6l4.3,0.2c0.7,0.1,1.5,0,2.2,0c1.2,0.1,2.8,0.2,4.2,0.2c1.4,0,2.9,0.2,4.2,0.2
			l3.1,0.1c0.5,0,0.5,0.1,1,0.1c1.4,0,2.9,0,4.3,0.1c2.6,0.2,5.9,0.3,8.4,0c1.1-0.1,3.1-0.1,4.2-0.1c0.9,0,1.4-0.1,2.1-0.1
			c0.7,0,1.5,0,2.2,0c2.9,0,5.7-0.2,8.3-0.6c1.1-0.1,2.6-0.4,3.7-0.7c0.6-0.2,1.2-0.3,1.8-0.5c1.7-0.5,3.3-1.3,5.1-1.7
			c13.1-2.7,19.7,6.3,30.3,1.8c0.9-0.4,1.7-0.8,2.5-1.4c0.4-0.3,0.8-0.5,1.2-0.8c0.3-0.2,0.9-0.6,1.2-0.7c-0.1-0.2-0.2-0.4-0.2-0.7
			c-0.5,0.1-1.6,0.9-2.1,1.2c-2,1.4-4.9,2.7-7.3,2.8c-1.4,0.1-1.5,0.1-3-0.1c-2.8-0.4-5.4-1.2-8.1-2c-6.7-1.8-13.4-2.1-20,0.7
			c-0.8,0.3-1.6,0.6-2.6,0.8c-2.4,0.6-3.5,0.5-5.7,0.9c-1.7,0.3-4.8,0-6.5,0.1c-3.2,0.2-6.6,0.2-9.8,0.2c-1.2,0-2.1,0.1-3.2,0.1
			c-2.3,0-4.3,0.1-6.6,0.1c-1.2,0-2-0.1-3.2-0.1l-3.1-0.2c-1.5-0.2-3-0.2-4.6-0.4c-1-0.1-2.1-0.1-3.2-0.2c-0.6,0-0.9-0.1-1.6-0.1
			c-0.7,0-1-0.1-1.5-0.1C144.1,10.7,143.5,10.8,142.9,10.8L142.9,10.8z"/>
		<path class="st0" d="M193,28c-2.1,0-3.9-0.2-5.9-0.2c-0.6,0-0.7-0.1-1.3-0.1l-2.8-0.1c-0.5,0-0.8-0.1-1.4-0.1l-4.1-0.2
			c-0.6,0-0.9-0.1-1.4-0.1c-0.5,0-1,0-1.4,0l-4.2-0.2c-3.7,0-7.8-0.2-11.5-0.2c-4,0-7.8-0.1-11.7-0.1c-2,0-3.8,0.1-5.8,0.1
			c-6.3,0-17.9-0.4-23.2,1.7l-3.1,1.4c-1.4,0.7-2.7,1.2-4.3,1.6c-1.4,0.4-3.5,0.7-5.3,0.7c-4.2,0-8-0.1-12.1-0.1
			c-4,0-8.2-0.2-12.1-0.2c-1,0-1.8-0.1-2.9-0.1c-0.6,0-0.8-0.1-1.4-0.1l-4.5-0.2c-0.5,0-1,0-1.5,0c-1.4-0.2-6.6-0.2-7.5-0.3
			c-0.9-0.1-2,0-2.9-0.1c-0.9-0.1-5-0.1-6.2-0.1c-7.5,0-13.6,0.9-20.6,2c-4.8,0.7-11.9,1.7-16.8,2.1c-1.1,0.1-2.2,0.3-3.3,0.4
			c-1.1,0.1-2.3,0.3-3.4,0.4C9,36,8,36.1,6.8,36.2c-1,0.1-2.2,0.3-3.4,0.4c-1,0.1-2.4,0.4-3.4,0.4v0.6l16.2-1.9
			c1.1-0.1,2.2-0.2,3.3-0.4l22.5-3c1.1-0.2,2.3-0.2,3.3-0.3c1.2-0.2,2.2-0.1,3.4-0.2c9.8-0.8,20.2,0.7,29.6,0.6l18.5,0.4
			c2.5,0,5.7,0.4,8,0.1c3.9-0.5,5.8-0.1,10-2.3c0.4-0.2,0.7-0.3,1-0.5c2.3-1.2,3.7-1.3,6.4-1.8c7.6-1.3,12.7-1.3,20.3-1.3
			c1.9,0,3.5,0.1,5.3,0.1c1.8,0,3.6,0,5.4,0c4.2,0,8.8,0.2,13.1,0.2c1,0,1.7,0.1,2.6,0.1c2.2,0,5.4,0.2,7.7,0.3c0.4,0,0.9,0,1.3,0
			c0.5,0,0.7,0.1,1.3,0.1l10.2,0.5c1.2,0,3.9,0.3,5.1,0.1c1.8-0.2,2.8,0,4.8-0.6l3.9-1.5c1.3-0.5,2.6-1,4-1.4
			c4.3-1.4,10.5-2.7,15-0.4c1.6,0.8,3,1.8,4.8,2.4c3.4,1.1,5.6,0.6,8.5-0.9c0.8-0.4,1.4-1,2.1-1.5v-1.1l-1.4,1.2
			c-0.5,0.4-1,0.7-1.5,1c-3,1.5-5.4,1.5-8.5,0.2c-3.9-1.6-4-3.2-11.4-3.2c-4.2,0-7.8,1.1-10.9,2.5c-2.5,1.1-2.3,1.2-4.9,1.9
			C197.3,27.7,195,28,193,28L193,28z"/>
		<path class="st0" d="M159.7,52.4c-4.5,0-8.9-0.1-13.2-0.9c-1.5-0.3-3-0.5-4.4-0.9c-1.5-0.4-2.8-0.7-4.3-1.2l-4-1.3
			c-1.4-0.4-2.9-0.8-4.3-1c-9.9-1.9-19.4-0.7-29.2,1.3c-5.3,1.1-11.7,2.4-17,3.2c-2.3,0.3-4.7,0.7-7.1,0.9c-4.8,0.5-10,0.9-15.3,0.9
			c-1.8,0-3.4-0.1-5.2-0.1c-1.1,0-2.7,0-3.8-0.2l-5-0.2c-0.6,0-0.7-0.1-1.2-0.1l-8.3-0.1c-3.7,0-15.2,1-19,1.5c-3,0.4-6.2,0.7-9.2,1
			c-1.3,0.2-8.2,1-9.3,1v0.6c1.1,0,6.1-0.7,7.6-0.9c2.5-0.3,5-0.5,7.6-0.9l5.7-0.6c1.9-0.2,3.9-0.5,5.8-0.5c1.2,0,2.7-0.3,3.9-0.3
			c3.8-0.2,8.2-0.4,12.1-0.4c3,0,6.2,0.2,9.1,0.3l7.1,0.4c1.4,0,2.6,0.1,4.1,0.1c1.9,0,8.7-0.1,10.9-0.5c0.5-0.1,1.4-0.1,1.8-0.1
			c0.5,0,1.2-0.1,1.8-0.2l6.8-0.9c4.4-0.7,8.7-1.4,12.9-2.4c2.1-0.5,4.1-0.9,6.2-1.4c9.8-2.4,20.8-2.4,30.5,0.2
			c1.5,0.4,3.1,0.8,4.5,1.3c0.7,0.3,1.4,0.5,2.2,0.7c1.5,0.4,3,0.9,4.6,1.2c1.7,0.3,3.6,0.3,5.2,0.6c1.7,0.2,3.8,0,5.5,0.3
			c1.6,0.2,4.6,0.1,6.4,0.1l10.5-0.9c4.6-0.7,9.1-1.5,13.4-3c0.5-0.2,0.8-0.2,1.2-0.4c2-0.7,4.1-1.4,6-2.2c4.8-2,7.2-2.6,12.7-2.6
			c4.1,0,8.7,1.6,11.8,3.5c3.7,2.3,9,2.2,13.2,1c2-0.6,4.8-1.9,6.5-3.1v-1c-0.6,0.1-1.1,0.6-1.7,0.9c-0.6,0.3-1.1,0.6-1.7,0.9
			c-2.3,1.2-5.4,2.4-8,2.5c-0.6,0-0.7,0.1-1.2,0.1c-1.1,0-2.5-0.2-3.5-0.5c-2-0.6-4.8-2.4-7.1-3.3c-5.9-2.5-12-2.2-18-0.4
			c-1.3,0.4-2.4,1-3.7,1.5l-3.7,1.5c-7.6,2.7-15.6,3.9-23.6,4.5C163.5,52.2,161.6,52.4,159.7,52.4L159.7,52.4z"/>
		<path class="st0" d="M148,63.7c-6.9,0-10.6-0.3-17.3-2.8l-3.9-1.8c-2.5-1.4-5.1-2.8-7.9-3.6c-1.5-0.4-3-0.7-4.7-1
			c-7.7-1.2-16.9,0.7-24.2,2.2c-7.7,1.6-18.2,3.6-25.7,4.7C57,62.5,48,63.3,40.4,62.3L30.2,62c-0.8,0-1.2,0.1-2,0.1
			c-0.7,0-1.4,0-2.1,0c-2,0-4.3,0.3-6.3,0.3c-0.7,0-1.2,0.1-2,0.1l-4,0.3c-2,0.1-9.7,1-11.8,1.2c-0.7,0.1-1.4,0.2-2,0.2V65
			c0.5,0,1.2-0.2,1.8-0.2l23-2c0.7-0.1,5.3-0.2,6.2-0.2l6.9,0.2c0.5,0,0.6,0.1,1.1,0.1c1.5,0,3,0.2,4.5,0.3l8.7,0.1
			c0.5,0,0.5-0.1,1-0.1c1.3,0,2.7-0.1,3.9-0.3c1.3-0.2,2.5-0.2,3.8-0.4c1.3-0.2,2.5-0.3,3.8-0.5c4.7-0.6,12.9-2.2,17.8-3.2
			c7.3-1.5,18.6-4,25.5-4c3.8,0,7.6,0.4,11.1,1.3c6.4,1.7,7.3,3.6,11.7,5.6c1.5,0.7,2.6,1.1,4.4,1.5c8.1,1.8,16.8,1.1,24.8-0.3
			c4.1-0.7,8.6-1.7,12.6-3c3.9-1.3,7.7-2.6,11.4-4.2c0.9-0.4,1.8-0.8,2.7-1.2c0.4-0.2,0.9-0.4,1.4-0.6c3.3-1.3,6.5-1.6,10.3-1.6
			c4.9,0,9.7,2.5,14.1,4.3c5.6,2.4,12.2,2.4,17.9,0.4c2.2-0.8,5.3-1.8,7.3-2.9v-0.7c-2.2,1.1-5,2.1-7.3,2.9c-5.9,2-12.6,2-18.2-0.4
			c-0.7-0.3-1.2-0.6-1.9-0.9l-2.9-1.4c-1-0.5-2.2-0.8-3.3-1.1c-2.7-0.8-7.1-1.1-10.2-0.6c-3.2,0.5-6.1,1.3-9,2.6
			c-2.7,1.1-5.4,2.3-8.2,3.3c-5.5,1.9-12.4,4.1-18.2,4.9c-1.6,0.2-3.3,0.6-5,0.7C151.6,63.5,149.9,63.7,148,63.7L148,63.7z"/>
		<path class="st0" d="M190.5,18.1h-13.4c-2.5,0-8.4,0-10.7-0.2c-0.7-0.1-1.5,0-2.2,0c-0.8,0-0.8-0.1-2.1-0.1l-3-0.2
			c-0.4,0-0.7,0-1.1,0c-0.6,0-0.9-0.1-2.1-0.1l-4.2-0.2c-1.4,0-2.7-0.1-4.3-0.1c-0.7,0-1.3-0.1-2.1-0.1c-2.6,0-7-0.1-9.3,0.2
			c-1.4,0.2-2.9,0.1-4.9,0.4c-1.6,0.2-3.1,0.4-4.7,0.6c-1.6,0.3-3.1,0.4-4.5,0.8c-3.2,0.8-5,1.1-8.2,2.3c-2.4,0.8-6.2,1.9-8.7,1.9
			c-4,0-7.7-0.1-11.6-0.1c-3.9,0-7.7-0.2-11.6-0.2c-0.6,0-0.8-0.1-1.3-0.1l-4.3-0.1c-3.3,0-8-0.4-11.3-0.4l-9.8-0.1
			c-5,0-9.7,0.4-14.1,1c-5.4,0.8-11.4,1.3-16.8,2.1c-1.1,0.1-2.2,0.3-3.4,0.4c-2.2,0.3-4.5,0.6-6.8,0.8c-1.1,0.1-2.3,0.3-3.3,0.4
			c-1.2,0.1-2.3,0.3-3.4,0.4L0,28v0.8c0.3-0.2,6.3-0.8,7.2-0.9c4.8-0.7,9.7-1.1,14.6-1.8l22-2.6c0.6,0,1.2,0,1.9-0.1l7.6-0.5
			c0.7,0,1.4,0,2,0c0.6,0,1.1-0.1,1.9-0.1l6.8,0c1.6,0,4.9,0.3,6.7,0.3c0.5,0,0.5,0.1,1,0.1c0.4,0,0.8,0,1.2,0
			c1.9,0.2,5.8,0.2,6.7,0.4c0.7,0.1,1.6,0,2.3,0l2.2,0.1c1.6,0,3,0.1,4.7,0.1l13.6,0.1c2.7,0,11.1-1.6,13.9-2.8
			c1.4-0.6,2.6-1,4.3-1.4c10.5-2,16.8-2,27.5-2c1.4,0,2.9,0,4.2,0.1c0.6,0.1,1.5,0,2.1,0c0.8,0,1.3,0.1,2,0.1c1.4,0,2.9,0,4.2,0.1
			c1.4,0.1,3-0.1,4.3,0l6.3,0.1c0.8,0,1.2,0.1,2,0.1c2.8,0,5.9-0.1,8.5,0.1c1.1,0.1,6.9,0,8.5,0c1.4,0,2.9,0,4.2,0.1
			c1,0.1,2.7-0.3,3.7-0.6c0.6-0.2,1-0.4,1.5-0.6c7.2-3.1,13.7-3.8,21.2-1.2c3,1,4.8,2.1,8.5,2.1c4.6,0,7-2.9,8.4-3.7v-1.2
			c-0.5,0.3-0.6,0.5-1,0.8c-5.5,4.4-8.7,4-15.2,1.4c-1.2-0.5-4.5-1.4-5.9-1.6c-0.6-0.1-1.1-0.1-1.7-0.2c-0.6-0.1-1.2,0-1.8-0.1
			c-2.3-0.3-7.3,0.8-9.5,1.5c-1.9,0.7-3.6,1.4-5.5,1.9C195.4,17.8,192.4,18.1,190.5,18.1L190.5,18.1z"/>
		<path class="st0" d="M193,24.7c-0.5,0-1,0-1.5,0c-0.6,0-0.8-0.1-1.4-0.1c-2.1,0-3.9-0.2-6-0.2c-0.7,0-0.9-0.1-1.4-0.1
			c-0.5,0-1.1,0-1.6,0c-0.5,0-0.8-0.1-1.4-0.1c-0.5,0-1,0-1.5,0c-0.5,0-0.8-0.1-1.4-0.1c-0.5,0-1.1,0-1.6,0c-0.6,0-0.8-0.1-1.4-0.1
			c-0.5,0-1,0-1.5,0c-0.6,0-0.8-0.1-1.4-0.1c-2.4,0-5.5,0.3-7.8,0c-0.8-0.1-2-0.1-2.9-0.2l-4.4-0.2c-0.5,0-1,0-1.5,0
			c-1.5-0.2-4.8-0.1-6-0.3c-1.3-0.2-9.1,0-10.4,0.1c-0.5,0-0.9,0.1-1.6,0.1c-1.1,0-2.1,0.2-3.2,0.2c-0.4,0-1.1,0.1-1.6,0.1
			c-4.1,0.4-8.2,0.9-12,1.9c-6.3,1.6-7.1,3-14.5,3.7l-2.5,0.1c-0.6,0-0.9,0.1-1.6,0.1L95,29.6c-3.1,0-5.9-0.2-8.9-0.2
			c-0.7,0-1.3-0.1-2.1-0.1L79.6,29c-2.1-0.3-4.4-0.3-6.4-0.5c-0.6-0.1-1.5-0.1-2.1-0.1c-0.5,0-0.6-0.1-1-0.1l-3.3-0.1
			c-0.5,0-0.5-0.1-1-0.1L56.1,28c-0.8,0-1.3,0.1-1.9,0.1c-1.7,0-3.3,0-4.9,0.2c-0.3,0-0.7,0-1,0c-0.5,0-0.5,0.1-0.9,0.1L41,28.9
			c-0.6,0-1.2,0.1-1.8,0.2c-1.2,0.1-2.4,0.3-3.6,0.4L6.8,33.3c-1.2,0.1-2.4,0.3-3.6,0.4L0.4,34C0.1,34.1,0,34.1,0,34.3v0.3v0
			c0.5,0,1.3-0.2,1.8-0.2c0.6-0.1,1.3-0.1,1.8-0.2l7.5-0.8c8.7-1,17.1-2.1,25.7-3.2l5.6-0.6c1.9-0.2,3.9-0.4,5.8-0.4
			c1.8,0,4-0.3,5.9-0.3l8-0.1c0.8,0,1.1,0.1,1.8,0.1c0.6,0,1.3,0,1.9,0c0.8,0,1.2,0.1,1.8,0.1c2.6,0.1,4.9,0.2,7.3,0.4
			c0.3,0,0.6,0,0.9,0l6.3,0.4c1.2,0.2,2.6-0.1,3.7,0.1c1.2,0.2,17.4,0,19.5,0c2.5,0,7.7-1.4,10.2-2.2c2-0.6,3.5-1.5,5.6-1.9
			c2-0.5,4.3-0.8,6.4-1c0.4,0,0.7-0.1,1.1-0.1c0.3,0,0.8,0,1.2-0.1c1.4-0.2,3.2-0.2,4.6-0.4c1.6-0.2,14.5-0.2,15.4-0.1
			c1.3,0.2,5.2,0.1,6.9,0.1c0.9,0,1.3,0.1,2.2,0.1c1.7,0,3,0.1,4.7,0.1l4.5,0.2c0.7,0.1,1.6,0,2.3,0c0.5,0,0.6,0.1,1.1,0.1
			c1.2,0,5,0,5.7,0.1C178,25,181.8,25,183,25c0.5,0,0.6,0.1,1.1,0.1c0.7,0,1.6-0.1,2.3,0c2,0.2,7.4,0.4,9,0.2c2.7-0.4,5-1,7.5-2
			c6.3-2.6,13.5-3.9,19.9-1c2.4,1,4.2,2.5,7.5,2.5c2.5,0,5.3-1.4,7.1-3c0.4-0.4,0.3-0.6,0.3-1.3c-0.9,0.6-1.1,1.3-2.9,2.2
			c-3.6,1.9-7.1,1.4-10.6-0.4c-1.7-0.8-3-1.4-4.9-1.8c-3.4-0.8-8-0.6-11.2,0.2c-0.9,0.2-1.6,0.4-2.4,0.7c-2.4,0.8-4.3,2.1-6.8,2.7
			C197.1,24.4,194.9,24.7,193,24.7L193,24.7z"/>
		<path class="st0" d="M115.7,48.9c-8.9,0-19.7,2.5-28.4,4.1c-6.4,1.2-12.9,2.4-19.4,3c-1.6,0.1-4.1,0.4-5.7,0.4
			c-1.4,0-2.5,0.1-3.9,0.1c-2.9,0-7.4,0.1-10.3-0.2L42.4,56c-0.8,0-1.1-0.1-1.8-0.1l-6.7,0c-5.4,0-11.8,0.8-17.2,1.3
			c-4.2,0.4-8.4,0.9-12.5,1.4C2.9,58.6,1.2,58.7,0,59v0.6c1.1,0,2.2-0.2,3.3-0.4c5.5-0.8,11.2-1.2,16.7-1.9l3.4-0.3
			c1.1-0.1,2.5-0.1,3.5-0.3c0.3,0,0.6,0,0.9,0c0.4,0,0.4-0.1,0.8-0.1c0.3,0,0.6,0,0.9,0c0.4,0,0.4-0.1,0.8-0.1l7.2-0.2
			c0.7,0,1.1,0.1,1.7,0.1c0.6,0,1.3,0,1.9,0c2.4,0,4.6,0.4,7,0.4c1.6,0,3.6,0.3,5.3,0.3l11-0.2c0.4,0,0.4-0.1,0.9-0.1
			c2.5-0.1,4.9-0.5,7.3-0.6c4.3-0.3,16.6-2.4,20.6-3.2c3.6-0.8,9.8-2.2,13.2-2.7c7.5-1.1,14.5-0.8,21.8,1c5.8,1.4,11.4,4.8,17.4,5
			c1.5,0.1,2.9,0.3,4.5,0.3c0.6,0,0.8,0.1,1.5,0.1c1,0,2.3,0,3.2,0.1l3-0.1c0.6,0,1.1,0,1.5-0.1c0.8-0.1,3.2-0.1,4.5-0.3
			c1-0.2,1.9-0.2,2.9-0.3c8.1-1.2,12.9-2.4,20.5-5.2c6.4-2.4,8.5-4.1,16.2-4.1c4.3,0,8.4,1.4,11.6,3.1c0.4,0.2,0.7,0.4,1.1,0.6
			c4.4,2.3,9.4,2.4,14.1,1.1c2-0.6,4.1-1.4,6-2.5c0.4-0.2,0.9-0.6,1.4-0.7v-0.7c-0.4,0.1-1,0.5-1.4,0.7c-3.4,1.8-7.5,3.5-11.5,3.5
			c-6.3,0-6.7-1.5-11.3-3.4c-7.3-3-14.5-3.1-21.8,0c-6.3,2.6-13.1,4.8-19.9,6.1c-2.8,0.5-8.5,1.3-11.6,1.4c-0.9,0-2,0.2-2.9,0.2
			c-0.5,0-1.1,0-1.6,0c-0.6,0-0.8,0.1-1.5,0.1c-2,0-4.2-0.2-6.2-0.3c-1.9-0.1-3.9-0.5-5.7-0.9c-2.6-0.5-5-1.3-7.4-2.3
			c-0.8-0.3-1.5-0.6-2.4-0.9c-1.6-0.6-3.3-1.2-5-1.5C123.5,49.4,119.8,48.9,115.7,48.9L115.7,48.9z"/>
		<path class="st0" d="M149.4,60c-3.4,0-7.4-0.3-10-1c-3.4-0.9-5.1-1.4-8.2-3c-11.3-5.9-22.1-4.8-34-2.7c-4.6,0.8-9.5,1.9-14.1,2.7
			c-1.1,0.2-2.3,0.5-3.5,0.7c-12.4,2.1-19.2,3.3-32.2,2.9c-2.9-0.1-6.1-0.6-9.5-0.6c-1.2,0-2.1-0.1-3.2-0.1c-0.7,0-1,0.1-1.6,0.1
			c-1.6,0-3.4,0-5,0.1l-3.3,0.1c-1,0-3.5,0.3-4.8,0.3c-1.6,0-5.8,0.6-7.8,0.7L6,60.9c-1.4,0.2-5.1,0.6-6,0.8v0.6l12.4-1.4
			c3.9-0.4,8-0.8,11.9-1c0.4,0,0.4-0.1,0.8-0.1c1.1-0.1,2.3,0,3.3-0.2c1.1-0.2,2.3,0.1,3.4-0.1c2-0.3,3.4,0,5,0c0.6,0,1.1,0,1.7,0
			c2.4,0,7.5,0.7,9.7,0.6l3.3,0.1c2.3,0,5.9-0.2,8.1-0.5c4.1-0.5,8.2-0.8,12.3-1.4c6.2-0.9,11.6-1.6,17.8-2.9
			c4-0.8,16.6-3.3,20.8-3.3c1.2,0,2.1-0.2,3.3,0c1,0.1,2.3,0,3.3,0.2c1,0.1,2,0.3,3,0.4c2,0.3,3.8,0.8,5.5,1.4
			c4.1,1.4,5.9,2.9,9.6,4.2c6.1,2.1,9.8,2,16.1,2c4.9,0,9.3-0.6,13.6-1.2c6.6-1,14.1-3.2,20.2-5.8c4.8-2,8.7-3.8,14.8-3.8
			c4.5,0,8,1.1,11.2,2.5c0.8,0.3,1.5,0.8,2.3,1.1c0.9,0.4,1.3,0.7,2.4,1.1c5.4,2,11.9,1.2,16.9-0.9c0.6-0.2,1-0.4,1.6-0.6l3.2-1.4
			v-0.8c-1.3,0.7-5.4,2.3-6.6,2.8c-5.9,2.1-11.3,2-17-0.5c-1.2-0.5-3.3-1.7-4.8-2.3c-3.2-1.1-5.6-1.7-9.2-1.7c-7.6,0-11.6,3-18,5.2
			l-5.8,1.9c-5.8,1.7-11.7,2.8-17.7,3.5l-3.5,0.4c-0.6,0.1-1.3,0-1.8,0.1L149.4,60L149.4,60z"/>
		<path class="st0" d="M187.2,37.4c-5.4,0-10.7,0-16.1,0c-1.9,0-3.4-0.1-5.4-0.1c-2.5,0-5.6,0-8-0.2l-5-0.4
			c-0.7-0.1-1.7-0.2-2.5-0.3c-1.7-0.2-3.3-0.2-5-0.5l-6.3-0.5c-5.8-0.2-11.9-0.3-17.6,0.5c-3.6,0.5-10,1.8-13.3,2.9
			c-1.5,0.5-3.4,1-5.2,1.3c-2.3,0.3-8.1,0.9-10.3,1c-0.6,0-1,0-1.5,0.1l-6.4,0.1c-2.4,0-4.9,0-7.3-0.1c-0.6,0-1.3,0-1.9,0
			c-0.8,0-1.1-0.1-1.9-0.1c-2.5,0-5-0.3-7.5-0.3l-4.5-0.3c-0.9-0.1-1.9,0-2.9-0.2c-2.6-0.4-8.4-0.4-10.9-0.4c-2.1,0-4.1,0.3-6.1,0.5
			c-2,0.2-4,0.5-6,0.7l-7.4,0.9c-0.6,0.1-1,0.1-1.6,0.2c-1,0.1-2.1,0.3-3,0.4C17,43.3,10,44.4,3,45.1c-1,0.1-2,0.3-3,0.3V46
			c1.2,0,17.7-2.1,19.1-2.3c4.3-0.6,8.5-0.9,12.7-1.5c1.7-0.3,4.7-0.6,6.4-0.7c2.2-0.1,4.4-0.5,6.6-0.5c1,0,2.3-0.2,3.3-0.2
			c1.2,0,2.2-0.1,3.5-0.1c1.6,0,4.7-0.2,6.1,0.1l6.1,0.3c1,0,2.1,0.2,3,0.2c0.8,0,2.2,0,3,0.1l20,0.2c0.5-0.1,1,0,1.6-0.1
			c2.8-0.3,6-0.3,8.8-0.7c1-0.1,1.9-0.1,3-0.3c1.9-0.2,3.5-0.6,5.3-1.2c1.6-0.6,3.1-1.2,4.9-1.5c1.9-0.3,3.7-0.6,5.6-0.9l4.2-0.6
			c1.5-0.1,2.9-0.3,4.6-0.3c1,0,2.1-0.2,3.1,0c1,0.1,2.1-0.1,3,0.1l4.6,0.3c3.4,0.1,7,0.8,10.4,0.8l12.3,0.5c0.6,0,0.8,0.1,1.5,0.1
			l4.8,0.1c4.3,0,8.4,0.1,12.7,0.1h9.8c3.5,0,11.4-2.8,14.9-3.9c4.1-1.4,9.5-2.5,13.7-1.2c1.4,0.4,2.1,0.8,3.3,1.5
			c0.3,0.2,0.4,0.3,0.7,0.5c3.7,2.2,7.5,2.9,11.5,0.8l2.8-1.8c0.5-0.4,0.4-0.4,0.4-1.3c-0.6,0.3-1,0.8-1.6,1.2
			c-1.6,1.1-3.9,2.4-5.9,2.4c-2.1,0-3.3-0.2-5.1-1c-1.1-0.5-2.1-1.2-3.1-1.8c-2.5-1.3-5.2-1.7-8.1-1.7c-2.4,0-5.1,0.3-7.1,0.8
			c-3.1,0.8-6,1.8-9,3.1C194,37.3,191.2,37.4,187.2,37.4L187.2,37.4z"/>
		<path class="st0" d="M190.9,34.4c-1.9,0-3.7,0.1-5.5-0.1l-7.8-0.5c-1.6,0-3.2,0-4.9-0.2c-1.2-0.1-8.5,0-10,0
			c-0.7,0-0.9-0.1-1.5-0.1c-0.6,0-1.2,0-1.7,0l-3.1-0.2c-1.1,0-2.2-0.1-3.1-0.2l-3.1-0.2c-0.7,0-1-0.1-1.5-0.1
			c-0.7,0-1.1-0.1-1.6-0.1c-1.2,0-2-0.1-3.2-0.1c-0.6,0-0.8-0.1-1.5-0.1l-6.7-0.1c-4,0-8.3,0.2-11.8,0.7c-3.5,0.5-7.1,1.3-10.5,2.2
			l-4.9,1.4c-2,0.6-4.5,1.1-6.7,1.2c-0.4,0-1,0.1-1.5,0.1c-1,0.1-2,0.1-3,0.2c-0.5,0-0.8,0.1-1.4,0.1c-0.5,0-1.1,0-1.6,0
			c-2,0.2-4.5,0.1-6.6,0.1c-0.9,0-1.5-0.1-2.3-0.1c-1.7,0-3.1-0.1-4.8-0.1c-0.8,0-1.3-0.1-2.2-0.1l-3.5-0.2c-1-0.1-2.4,0-3.5-0.1
			c-1.9-0.2-3.8-0.2-5.7-0.3c-0.5,0-0.5-0.1-1.1-0.1c-0.6,0-0.7-0.1-1.1-0.1l-5.6-0.4c-1.5-0.2-5.2-0.1-6.9-0.1
			c-2.2,0-4.4,0.3-6.4,0.6c-4.2,0.6-8.5,1-12.6,1.6c-3.2,0.5-6.3,0.7-9.5,1.2l-6.3,0.8c-1.1,0.2-2.1,0.2-3.2,0.4l-9.5,1.1
			c-1,0.1-2.2,0.4-3.2,0.4v0.5c0.5,0,1.1-0.2,1.6-0.2c3.9-0.3,7.6-1,11.5-1.4c4.5-0.4,8.8-1.2,13.3-1.6l20-2.2
			c3.5-0.4,7.8-0.6,11.5-0.3c0.4,0,0.9,0,1.3,0l3.7,0.2c0.6,0,0.6,0.1,1.2,0.1l24.2,0.8c0.8,0,1.8,0,2.6,0l2.5,0.1
			c7.2,0,13.3,0.3,20-2.8c1.4-0.6,2.4-1.3,4-1.4c8.1-0.7,13.6-1.5,22.4-1.5c1.8,0,3.3,0.1,5,0.1c0.9,0,1.6,0.1,2.4,0.1l2.5,0.1
			c0.4,0,0.8,0,1.2,0c0.5,0,0.6,0.1,1.2,0.1l3.7,0.2c0.4,0,0.9,0,1.3,0l2.5,0.2c1.5,0.2,3.3,0,4.8,0.2l7.4,0.3c1,0,1.7,0.1,2.5,0.1
			c2.1,0,5.5,0,7.5,0.2c0.8,0.1,1.7,0,2.5,0c0.5,0,0.6,0.1,1.1,0.1c2.4,0,5.1,0.3,7.5,0.1c1.7-0.1,1.4,0,3.4-0.4
			c2-0.5,4.1-1.2,6-1.9c3.9-1.4,8.1-3.1,12.5-3.1c3.2,0,5.6,0.3,8.3,1.9c2.7,1.7,3.2,2.6,6.8,2.6c2.3,0,4.2-1.2,5.9-2.4
			c0.6-0.4,1.1-0.8,1.7-1.2v-0.6c-1.2,0.8-1.2,1.1-3,2.2c-2.6,1.6-5.8,1.4-8.5,0.3c-0.6-0.2-1.1-0.5-1.6-0.8c-0.6-0.3-1-0.6-1.5-0.9
			c-5.4-2.9-13.1-1.8-18.8,0.2c-2.3,0.8-4.2,2-6.6,2.7C195.4,34,193.2,34.4,190.9,34.4L190.9,34.4z"/>
		<path class="st0" d="M170,41.1c-11,0-15.9-0.3-26.4-2l-4.2-0.6c-5.8-0.5-10.8-0.8-16.6-0.3c-3.5,0.3-4.3,0.3-7.8,0.9
			c-3,0.5-6.9,2.1-10.4,2.8c-2.4,0.5-5,0.9-7.5,1.2l-3.8,0.5c-0.6,0-1.4,0.1-2,0.2L87.2,44c-0.5,0-0.5,0.1-1,0.1l-5.4,0.1
			c-3.7,0.2-4.9,0-8.5,0c-0.8,0-1.2-0.1-2-0.1c-0.8,0-1.4,0-2.1-0.1L64,43.8c-0.3,0-0.7,0-1,0c-1.4-0.1-3.6-0.3-5.1-0.3l-3-0.2
			c-1.2-0.1-4.1,0.1-5.4-0.1c-0.6-0.1-9.9,0.3-10.5,0.4l-7.9,0.8c-5.2,0.7-10.3,1.2-15.5,1.9L2,47.9c-0.6,0.1-1.5,0.2-2,0.2v0.6
			c0.3-0.1,5.3-0.7,6.1-0.8c2.1-0.3,4.1-0.4,6.2-0.7c2-0.3,4.1-0.5,6.2-0.7c2.9-0.3,6.5-0.8,9.4-1l6.3-0.6c2.1-0.2,7.7-0.7,9.7-0.7
			c0.7,0,1-0.1,1.6-0.1c0.6,0,1.2,0,1.7,0l7.2-0.1c9.5,0,18.3,0.7,27.8,0.7c1.5,0,5.3,0.1,6.6-0.1c0.4,0,1,0,1.4,0
			c0.6,0,0.7-0.1,1.3-0.1c2.9,0,7.3-0.6,10.2-1.1c1.7-0.3,3.1-0.6,4.7-1.1c1.5-0.4,2.9-0.9,4.3-1.3c2.7-0.9,3.8-1.3,6.9-1.6
			c0.8-0.1,1.7-0.3,2.5-0.3c1.3,0,3.4-0.3,5.4-0.3c2.1,0,5.2-0.1,7.2,0.1l2.5,0.1c0.8,0,1.7,0.2,2.4,0.2c2.9,0.1,8.4,1.2,11.5,1.6
			c0.7,0.1,1.6,0.2,2.3,0.3c1.3,0.2,4,0.2,4.9,0.3c0.8,0.1,1.8,0,2.6,0c0.5,0,0.6,0.1,1.1,0.1l3.9,0c2.1,0.2,17.5,0.1,20.2,0.1
			c4.6,0,9.2-1,12.7-2.5c2.9-1.2,5.9-2.3,9.1-3c3.9-0.8,8.2-1.1,12,0c5.6,1.7,4.7,4,10.7,4c2.1,0,5.3-1.1,7-2.2
			c0.4-0.2,0.6-0.4,1-0.6c0.3-0.2,0.6-0.5,1-0.6v-1.1c-1.9,1.4-1.2,1.1-3.7,2.4c-3.1,1.6-6.4,1.6-9.6,0.3c-2.5-1-4.2-2.7-7.2-3.1
			c-5.5-0.9-10.7-0.5-15.9,1.3c-5,1.7-8.3,3.5-13.9,4l-2.7,0.2c-0.9,0-2.1-0.1-2.9,0c-1.7,0.2-3.9-0.1-5.8,0.1L170,41.1L170,41.1z"
			/>
		<path class="st0" d="M101.9,59.2c-5.6,0-10.5,1.1-15.3,2.1l-29.1,5.8c-5.1,1-10.5,2-15.8,2c-1.4,0-2.6-0.2-3.9-0.2l-2.8-0.2
			c-0.5,0-0.5-0.1-1-0.1c-1.3,0-2.6-0.2-3.9-0.2c-1.4,0-2.6-0.1-4-0.1c-1.4,0-6-0.1-7.1,0L4,69.3c-0.5,0.1-0.9,0.1-1.3,0.1
			C1.8,69.5,1,69.7,0,69.7v0.7l8.9-0.8c0.5-0.1,1.1-0.1,1.5-0.1c0.5-0.1,1.1-0.1,1.5-0.1c1-0.1,2.1,0,3.1-0.1
			c0.5-0.1,0.9-0.1,1.5-0.1c0.7,0,1-0.1,1.5-0.1l9.7-0.1c0.8,0,1.2,0.1,1.9,0.1c1.2,0,6.4,0.1,7.7,0.4c1.4,0.2,5.7,0.2,7.2,0.2
			c2.1,0,4.3-0.5,6.2-0.8c6-1,11.9-2.1,17.8-3.4c3.9-0.8,7.8-1.5,11.7-2.4c1-0.2,1.9-0.4,2.9-0.6c3-0.5,6-1.2,9-1.6l9.7-0.8l4.9,0.3
			c0.5,0,1,0.1,1.5,0.2c2.6,0.5,5.7,1.4,7.8,2.9c1,0.7,1.9,1.6,2.8,2.5c0.9,1,1.4,1.7,2.9,2.6c4.8,3,10.8,3.2,16.9,3.2
			c1.4,0,2.6-0.2,3.9-0.2c0.6,0,1.2-0.2,1.8-0.2c3-0.3,6.2-0.9,9-1.5c5.2-1.2,9.8-2.7,14.5-4.5l4.6-1.8c0.5-0.2,0.9-0.4,1.5-0.6
			c0.5-0.2,1-0.4,1.5-0.6c2-0.8,3.9-1.7,6-2.5c3-1,7.7-2.2,10.8-2.2c1.9,0,3.4,0.3,5,0.8c1.9,0.6,3.7,1.4,5.5,2.3l2.6,1.3
			c8.7,3.8,16.3,2.9,25.3,0.5c0.8-0.2,1.5-0.5,2.3-0.7c1.4-0.4,2.9-1.2,4.3-1.6v-1.1c-0.7,0.2-1.4,0.6-2,0.8
			c-5,2.1-10.5,3.9-16.3,3.9c-5.1,0-7.6-0.4-12.3-2.1c-0.5-0.2-0.9-0.4-1.4-0.6c-1.4-0.6-2.7-1.4-4-2c-2-0.9-3.9-1.5-6.1-1.9
			c-2.4-0.4-4.6-0.4-7-0.1c-0.9,0.1-2.1,0.3-3,0.6c-3.9,1-6.9,2.5-10.5,4c-7.3,3-14,5.5-21.8,7.3c-4.2,0.9-8.2,1.4-12.6,1.8
			l-3.4,0.1c-0.7,0-1.1-0.1-1.7-0.1c-0.6,0-1.2,0-1.8,0c-0.4,0-1.1-0.1-1.6-0.2c-5.7-0.8-9.5-2.1-13.7-6.4
			C114.7,60.6,107.1,59.2,101.9,59.2L101.9,59.2z"/>
		<path class="st0" d="M132.7,75c-4.6,0-10.8-0.7-14.4-3.3c-0.6-0.4-1-0.9-1.6-1.4c-2.1-2.2-2.4-4.9-8.1-6.9
			c-5.8-2-13.7-1.6-19.9-0.5c-1,0.2-1.9,0.4-2.9,0.6c-3.9,0.7-7.6,1.6-11.5,2.4l-22.9,4.9c-1.9,0.4-3.9,0.8-5.8,1.1
			c-1,0.2-2.1,0.3-3,0.4c-1,0.1-2.3,0-3.3,0.2c-0.5,0.1-1.1,0.1-1.6,0c-0.7-0.1-5.3-0.3-6.4-0.5l-6.5-0.3c-0.5,0-1.2,0-1.7,0l-3.2,0
			c-1,0.1-2.4,0-3.4,0l-5,0.2c-1.6,0.1-3.3,0-4.9,0.2c-1.7,0.2-5,0.3-6.4,0.6v0.7c0.4-0.2,6.7-0.7,8.1-0.7l4.9-0.2
			c0.5,0,0.6-0.1,1.2-0.1l14.2,0c1.6,0,3.5,0.3,5.1,0.3c0.5,0,1.1,0.1,1.7,0.1c3.6,0.3,7.8,0.1,11.2-0.5c4.1-0.7,8.1-1.6,12.1-2.5
			l18-3.9c5-1,10.2-2.3,15.4-2.8c0.5,0,1.2-0.1,1.6-0.2c1.1-0.2,2.3-0.1,3.5-0.1c0.6,0,1-0.1,1.7-0.1c3.2,0.1,6.5,0.4,9.5,1.3
			c0.9,0.3,1.9,0.7,2.6,1.1c0.9,0.6,1.8,1.2,2.6,2l1.2,1.6c0.3,0.4,0.5,0.7,0.7,1.1c1.2,1.9,3.1,3.3,5.3,4
			c6.4,2.2,14.3,2.3,20.9,1.3c2.6-0.4,4.8-0.8,7.2-1.4c1.2-0.3,2.3-0.6,3.4-0.9c5.4-1.7,10.6-3.6,15.9-5.7l10.8-4.4
			c4.3-1.8,9.7-2.6,14.4-1.6c2.1,0.5,4.3,1.2,6.1,2.3c5.3,3.1,9.6,4.5,16.8,4.5c7.4,0,13.7-1.4,20.3-3.9c0.4-0.2,0.7-0.3,1.2-0.4
			v-0.7l-4.5,1.6c-1.5,0.5-3.2,0.9-4.9,1.4c-1.6,0.4-3.3,0.7-5.1,1c-6.2,1-12.9,0.5-18.6-1.6c-3.1-1.1-5.9-3-9.1-4.1
			c-2.8-1-3.1-1-6.1-1.3l-2.2,0.2c-1,0.2-1.8,0.4-2.7,0.6c-3.4,0.9-6.7,2-10.1,3.2c-0.8,0.3-1.6,0.6-2.4,0.9l-7.1,2.9
			c-1.6,0.7-3.1,1.3-4.8,1.9c-1.6,0.6-3.3,1.2-4.9,1.7c-4.4,1.3-8.7,2.5-13.3,3.2C138.9,74.7,135.9,75,132.7,75L132.7,75z"/>
		<path class="st0" d="M163.7,48.7c-2.7,0-9.1-0.2-11.4-0.5c-2-0.3-3-0.2-5.3-0.7c-1.7-0.4-3.4-0.7-5-1c-8.3-1.9-12.7-3-21.8-3
			c-7.9,0-12,1.4-18.9,3.1c-3.5,0.9-8.7,1.7-12.4,2.3c-2.2,0.3-4.4,0.5-6.6,0.8l-17.6,0.7c-7.3,0-14.1-0.7-21.4-0.7
			c-1.1,0-4.4,0-5.3,0.1l-2.7,0.1c-1.8,0.1-3.5,0.1-5.2,0.4c-2.9,0.4-7,0.7-10,1.1c-0.9,0.1-1.6,0.2-2.5,0.3L2.5,53.3
			c-0.8,0.1-1.8,0.2-2.5,0.3v0.6L19.2,52c3.3-0.3,9.6-1.1,12.7-1.2c0.7,0,1-0.1,1.5-0.1l5.9-0.3c0.9-0.1,2,0.1,2.9-0.1
			c2.1-0.3,26.4,0.4,29.5,0.4c2.2,0,4.4,0,6.5-0.2c1.5-0.1,4.8-0.1,6.3-0.4l6-0.7c3.4-0.4,8-1.3,11.3-2.2c3-0.8,5-1.4,8.1-2l4.4-0.6
			c0.5,0,1.1-0.1,1.6-0.1c1.9-0.3,5.3-0.2,7.3-0.2c3.8,0,9.1,0.7,12.9,1.4c3.6,0.6,6.4,1.5,9.7,2.2c7.1,1.5,16.7,0.8,24.2,0.8
			c0.6,0,0.8-0.1,1.5-0.1c3,0,7.6-0.3,10.5-0.8c4.1-0.7,6.5-1.3,10.2-2.8c0.8-0.3,1.6-0.6,2.3-1c0.7-0.4,1.4-0.7,2.3-1
			c3.4-1.2,10-2.2,13.7-1.7c3.2,0.4,5.8,1.1,8.6,2.8c2.8,1.7,4.4,2,7.9,2c3.1,0,6.7-1.4,9.3-3c0.4-0.3,0.7-0.5,1.1-0.7v-1
			c-0.5,0.1-0.8,0.4-1.1,0.6c-0.4,0.2-0.7,0.4-1.2,0.7c-0.8,0.5-1.5,0.8-2.4,1.2c-4.5,2-9.5,2.1-13.7-0.6
			c-5.1-3.2-12.3-3.4-18.3-2.2c-1.8,0.4-3.4,0.9-5,1.5c-1.8,0.6-3.7,1.5-5.6,2.2c-1.6,0.6-2,0.7-3.7,1.2
			C180.8,47.6,169.5,48.7,163.7,48.7L163.7,48.7z"/>
		<path class="st0" d="M141.9,67.4c-5,0-9.4-0.3-13.6-2.1c-5.6-2.4-6.5-5.9-13.2-7.3c-1.8-0.4-8.3-1-10.6-1c-4.4,0-5.3,0.2-9.7,0.9
			c-9.3,1.5-18.4,3.5-27.6,5.2l-7,1.3c-3.9,0.8-11,1.6-14.7,1.6c-2.4,0-5-0.1-7.4-0.5c-3.1-0.4-7.6-0.4-11-0.4l-7,0.2
			c-1.2,0.1-2.4,0-3.5,0.1l-10,0.8C5.1,66.4,0.7,67,0,67v0.7c0.4-0.2,5.7-0.7,6.6-0.7L20.2,66c3,0,5.9-0.2,9-0.2
			c0.7,0,1,0.1,1.7,0.1c1.2,0,2.5-0.1,3.6,0.1c1,0.2,2.5,0.1,3.5,0.1c0.4,0,0.4,0.1,0.8,0.1c0.3,0,0.6,0,0.9,0
			c0.4,0,0.4,0.1,0.8,0.1c0.3,0,0.7,0,1,0l5.2,0.1c0.6-0.1,1.2,0,1.8,0c3.3,0,21-3.2,25.4-4.1c2.1-0.4,4.2-0.7,6.3-1.2
			c2-0.4,4.1-0.8,6.2-1.1c4.5-0.8,11.8-2.1,16.2-2.3c1.2-0.1,2.1-0.2,3.5-0.2c6.6,0,11.9,1.3,16.8,5.1c1.9,1.4,2,1.7,4.2,2.8
			c2.9,1.5,7,2.3,11.1,2.5c1.9,0.1,4.5,0.3,6.5,0.1c2.2-0.3,3.9-0.3,6.2-0.7c4.1-0.6,7.7-1.3,11.4-2.3c1.8-0.5,3.5-1,5.3-1.5
			c2.7-0.8,5-1.6,7.7-2.7c0.9-0.3,1.6-0.6,2.5-1c0.8-0.3,1.6-0.7,2.4-1c0.8-0.3,1.7-0.7,2.4-1.1c1.6-0.7,3.2-1.4,5-1.9
			c3.6-1,6.8-1.3,10.5-0.6c1.1,0.2,2,0.6,3,0.9c1.3,0.4,4.2,1.6,5.5,2.2c0.9,0.4,1.7,0.7,2.7,1.1c5.4,2.3,9.7,2.5,15.5,1.6
			c4.2-0.6,6.9-1.7,10.7-3.1c0.4-0.1,0.6-0.2,1-0.4c0.3-0.1,0.7-0.3,1.1-0.4v-1l-3.9,1.6c-1.4,0.5-2.6,1.1-4.1,1.5
			c-8.4,2.5-14.4,2-22.3-1.7c-6.8-3.2-12.5-4.6-20.1-2.3c-2.7,0.8-8.8,3.5-11.7,4.7c-2.4,0.9-6.6,2.4-9.1,3.2
			C158.2,65.7,150.8,67.4,141.9,67.4L141.9,67.4z"/>
		<path class="st0" d="M166.6,44.9l-7.5-0.1c-0.5,0-0.7-0.1-1.1-0.1c-0.4,0-0.9,0-1.3,0l-2.5-0.2c-1.5-0.2-3.1-0.3-4.5-0.6
			c-1.5-0.3-2.9-0.5-4.3-0.8c-2.9-0.6-5.9-1-8.9-1.4c-0.7-0.1-1.6-0.2-2.3-0.2l-3.5-0.3c-0.4,0-0.9,0-1.3,0l-6.9-0.1
			c-1.5,0-3.3,0.3-4.8,0.3c-2,0.1-4.1,0.4-6,0.8c-2.8,0.5-5.5,1.2-8.2,1.9c-2.7,0.7-5.5,1.4-8.3,1.8c-2.3,0.4-6.7,1-9.1,1.1
			c-0.4,0-0.4,0.1-0.7,0.1l-9.1,0.3l-8.4-0.1c-1.6,0-3.1-0.2-4.7-0.2c-1.2,0-2.4-0.2-3.4-0.2l-3.4-0.2c-0.4,0-0.8,0-1.2,0
			c-1.9-0.2-3.9-0.2-5.9-0.2c-0.8,0-1.6,0.1-2.4-0.1c-0.7-0.1-10.8,0.3-11.8,0.4c-0.7,0-1.5,0.2-2.2,0.2c-2.2,0.1-4.4,0.5-6.6,0.7
			c-4.4,0.4-8.7,1.2-13,1.6c-1.4,0.1-2.9,0.4-4.3,0.5c-1.5,0.2-7.6,1-8.8,1v0.6c0.4,0,1-0.1,1.4-0.2c0.5-0.1,0.9-0.1,1.4-0.2
			l20.1-2.4c3.9-0.4,7.6-1,11.5-1.3C36,47.4,47.5,46.6,50,47c1,0.2,5.3,0.1,7,0.4l5.6,0.4c0.7,0,0.9,0.1,1.4,0.1
			c7.3,0.2,15.1,0,22.2-0.5c1-0.1,2.1-0.2,3.1-0.3l3.2-0.4c2.1-0.3,4.1-0.6,6.2-0.9c1.9-0.3,3.9-0.7,5.8-1.3c8-2.4,14.7-3.3,23-3
			c0.5,0,0.8,0.1,1.4,0.1c0.9,0,1.9,0.2,2.7,0.2c7.4,0.4,14,2.6,20.4,3.2c1.8,0.2,3.6,0.4,5.5,0.4l2.8,0.1c1.1,0,1.8,0.1,2.8,0.1
			c1.9,0,3.7-0.1,5.8-0.1c2,0,3.8-0.2,5.7-0.2l4.1-0.2c0.6,0,0.8-0.1,1.4-0.1c2.7,0,5.3-0.5,7.9-1c2.9-0.5,6.4-1.6,8.9-2.9
			c0.7-0.3,1.3-0.6,2.1-0.9c2.9-1,6.9-1.7,10.1-1.7c4.3,0,6.6,0.2,10.5,2c1.2,0.5,2.1,1.4,3.4,1.8c1.6,0.5,3.5,0.8,5.3,0.8
			c3.9,0,6.9-1.7,9.2-3.4v-1.1c-1.4,1-2.6,1.8-4.2,2.6c-4,1.9-8.6,1.8-12.4-0.5l-1.3-0.8c-4.2-2.6-11.4-2.5-16.1-1.5
			c-6.5,1.4-11.4,4.4-16.6,5.2l-7,0.8c-1.7,0.1-4.1,0.4-5.8,0.4c-0.6,0-0.8,0.1-1.5,0.1C170.6,44.8,168.8,44.9,166.6,44.9
			L166.6,44.9z"/>
		<path class="st0" d="M155.1,2.9c-3.7,0-6.4-0.2-9.8-0.5c-1.4-0.1-3-0.4-4.5-0.5c-2.5-0.2-7.4-0.5-9.5-0.3c-1.6,0.1-3.4,0-5,0.1
			C119.7,2,111.8,3.7,105.7,6c-3.7,1.4-4,1.6-8.5,1.6c-0.8,0-1.5,0.1-2.4,0.1c-1,0-1.5,0.1-2.4,0.1c-1.7,0-3.1,0.1-4.9,0.1
			C86.6,7.9,86,8,85.1,8h-7.4c-7.4,0-14.4-0.5-21.7-0.5c-1.7,0-8.6,0.2-11,0.5l-24.4,2.6c-3.6,0.4-10.3,1.2-13.7,1.7
			C5.4,12.5,1,13,0,13.2V14c0.5,0,1.1-0.2,1.7-0.2c0.6-0.1,1.2-0.1,1.8-0.2l14.2-1.9c1.1-0.1,2.4-0.4,3.6-0.5l7.2-0.9
			c1.2-0.2,2.3-0.2,3.6-0.4l13-1.1c0.5,0,0.5-0.1,0.9-0.1c0.3,0,0.7,0,1,0l19.6-0.4c0.9,0.1,2.1,0,3,0.1l2.9,0.2c1,0.1,2,0,3,0.1
			c3.8,0.4,13.8,0.4,17.7,0.4c5,0,9.6-1.1,14-2.6c0.7-0.3,1.3-0.5,2-0.7c6.9-2.4,14.1-3.5,22.5-3.5c2,0,5.3,0.1,7.3,0.4
			c1.8,0.2,8.9,1.1,10.6,1.1c1.3,0,2.4-0.1,3.7-0.1c2.5,0,5.1-0.2,7.6-0.2l6.4-0.3c0.5,0,0.5-0.1,0.9-0.1c2.2-0.1,5.1-0.3,7.2-0.6
			c1.2-0.2,2.2-0.3,3.4-0.5L188.9,0l-3.3,0c-0.3,0-0.6,0.2-1,0.3c-1.3,0.3-2.5,0.5-3.9,0.7c-2.4,0.3-6,0.8-8.3,0.9
			c-1.3,0.1-2.8,0.3-4.2,0.4c-0.7,0-1.4,0-2.1,0.1c-2.5,0.2-4.1,0.3-6.6,0.3c-0.9,0-1.3,0.1-2.2,0.1C156.6,2.8,155.8,2.9,155.1,2.9
			L155.1,2.9z"/>
		<path class="st0" d="M81,5.1c-1,0-1.8,0-2.6-0.1c-0.8-0.1-1.9,0-2.7,0c-0.5,0-0.6-0.1-1.2-0.1l-6.6-0.3c-0.9-0.1-1.8,0.1-2.7,0
			c-1.3-0.2-4-0.1-5.5-0.1c-0.9,0-1.7-0.2-2.6-0.1L41.3,5.1c-0.8,0-1.9,0.2-2.6,0.3L19,7.8C14.2,8.5,9.1,9,4.3,9.6l-3.7,0.5
			c-0.4,0-0.5,0.1-0.6,0.2V11v0l6.7-0.9c4.4-0.6,9.3-1,13.6-1.6c2.3-0.3,4.5-0.5,6.8-0.8l8.5-0.9c0.5,0,1.2-0.2,1.7-0.2
			c1.2-0.1,2.3-0.3,3.5-0.3l3.5-0.3c1.4-0.2,10.5-0.5,11-0.5c3.4,0,7.7-0.1,10.9,0.2c0.5,0,1.2,0,1.7,0l3.4,0.1c0.7,0,1,0.1,1.7,0.1
			c2,0,4.8,0.2,6.9,0.2c5.7,0,9.2,0.4,15.2-0.4c7.3-0.9,8-2.3,13.7-3.9c1.2-0.3,5.9-1.7,7.2-1.7V0h-2.9c-1.9,0-2.2,0.2-5.8,1.3
			c-1.5,0.4-4,1.4-5.6,2c-0.6,0.2-1.3,0.5-1.9,0.6c-3.1,0.8-3.7,0.7-6.7,0.8l-2.4,0.1c-0.9,0-1.5,0.1-2.3,0.1c-0.8,0-1.7,0-2.5,0
			c-0.9,0-1.6,0.1-2.4,0.1C82.7,5.1,81.9,5.1,81,5.1L81,5.1z"/>
		<path class="st0" d="M84.2,2.3l-5.4-0.1c-0.4,0-0.9,0-1.3,0c-0.5,0-0.7-0.1-1.3-0.1l-5.3-0.3c-3.6-0.1-7-0.3-10.7-0.3
			c-0.8,0-2,0.1-2.7,0l-6.7,0c-0.6,0-0.7,0.1-1.3,0.1c-0.4,0-0.9,0-1.3,0l-3.9,0.2c-1.4,0-8.7,0.8-10.1,1c-1.6,0.2-3.3,0.4-5,0.6
			C26.8,3.7,2.2,6.8,1,7.1C0.7,7.2,0.6,7.4,0.5,8L14,6.1C19.7,5.3,25.2,4.6,31,4c1.1-0.1,2.4-0.2,3.5-0.4c1.2-0.2,2.4-0.1,3.6-0.3
			c0.5-0.1,1.4-0.1,1.8-0.2l5.5-0.3c0.4,0,0.4-0.1,0.8-0.1c0.3,0,0.7,0,1,0l9.3-0.3c5.8,0,10.8-0.1,16.6,0.4c0.9,0.1,1.6,0,2.4,0.1
			C82,3.5,87.3,3.7,93.9,2.5c1.8-0.3,5.2-1.3,7-2.1l0.7-0.3c0.2-0.1,0.1,0,0.2-0.2h-2.2c-0.1,0-0.1,0-0.2,0c-0.6,0.1-1.3,0.4-2,0.6
			C96,1,94.7,1.2,93.3,1.5c-1.2,0.3-5.2,0.7-6.7,0.7L84.2,2.3L84.2,2.3z"/>
		<path class="st0" d="M158.4,150.1c2.7,0,1.6,0.2,4.1-1.4c1-0.7,2.5-1.5,3.7-2c0.7-0.3,1.3-0.6,1.9-0.8c1.6-0.7,4.7-1.7,6.4-2
			c1.5-0.3,3-0.7,4.5-1c1.6-0.3,3.2-0.5,4.8-0.8l7.5-0.8c0.8,0,1.9-0.2,2.6-0.2l5.2-0.2c1.6-0.2,3.8,0,5.4-0.2c1.6-0.1,3.9,0,5.6,0
			c0.9,0,1.6,0.1,2.6,0.1c4.6,0,9.2,0.2,13.7,0.2c3.7,0,7.2,0.2,10.9,0.2c0-0.5,0.1-0.4,0.1-1l-10.1-0.1c-1.6,0-4.2-0.2-5.9-0.2
			c-2.1,0-3.9-0.1-6-0.1c-1,0-1.8-0.1-2.9-0.1c-1.6,0-9.5-0.1-10.3,0l-10.3,0.5c-1,0-2.2,0.3-3.2,0.3c-2.3,0.1-7.5,0.9-9.6,1.3
			c-5.4,0.9-10.5,2.4-15.2,4.8c-1.1,0.6-3,1.7-3.9,2.4c-0.2,0.2-0.2,0.2-0.5,0.4L158.4,150.1L158.4,150.1z"/>
		<path class="st0" d="M165.3,150.1c2.9,0,2,0,5-0.9c10.5-3.4,13-3.9,24.7-4.9c0.5,0,0.9,0,1.4,0l2.8-0.2c0.5,0,1,0,1.5,0l17,0
			c1.2,0.2,2.5,0,3.8,0.1l3.6,0.1c0.7,0,1,0.1,1.8,0.1c0.6,0,1.3,0,1.9,0c0.7,0,1.1,0.1,1.7,0.1l5.7,0.1l0.5-1.1l-7-0.2
			c-1-0.1-2.5,0-3.5,0c-0.7,0-1-0.1-1.7-0.1l-8.9-0.1c-1.2,0-2.2-0.1-3.5-0.1h-6.8c-2,0-3.7,0.1-5.7,0.1c-0.6,0-0.7,0.1-1.3,0.1
			c-0.5,0-1,0-1.5,0c-5.3,0.5-7.6,0.5-13.3,1.3c-5.5,0.8-9.2,1.6-14.2,3.5C168.5,148.3,165.6,149.6,165.3,150.1L165.3,150.1z"/>
		<path class="st0" d="M174.8,150.1c5.4,0,2.8,0,7.7-0.9l5.5-0.9c0.7-0.1,1.3-0.1,2-0.2c2.6-0.4,5.2-0.4,7.9-0.7
			c0.7-0.1,1.4,0,2.1-0.1c1-0.2,9.3-0.1,10.8-0.2l6.9,0.2c1,0.1,2.4,0,3.5,0c0.6,0,0.9,0.1,1.6,0.1c0.6,0,1.2,0,1.8,0
			c0.6,0,0.9,0.1,1.6,0.1c0.6,0,1.2,0,1.8,0c0.7,0,1,0.1,1.6,0.1l3.5,0c0.2,0,0.8-0.4,0.9-0.9c-5.8,0-11.2-0.2-16.9-0.2
			c-1.4,0-2.6-0.1-4.1-0.1c-1.4,0-2.8,0-4.2,0c-0.8,0-1.2-0.1-2-0.1c-11.1,0.1-18.2-0.1-29.2,2.7
			C177.2,149.3,175.1,149.9,174.8,150.1L174.8,150.1z"/>
		<path class="st0" d="M1.9,145.2c0.8,1.6,1.3,0.9,3.5,1c0.7,0,1-0.1,1.5-0.1c2.5-0.1,4.6-0.3,7.5-0.3l2.6,0.1c0.4,0,0.9,0,1.3,0
			l3.9,0.3c0.4,0,1,0.1,1.3,0.1c3.8,0.3,7.5,0.7,11.2,1.3c3.2,0.5,6.3,1,9.5,1.6c1.5,0.3,3.2,0.6,4.6,0.9c1.5,0.3,3.7,0.1,5.4,0.1
			l-14-2.7c-9.3-1.6-18.9-3-28.4-2.8c-0.6,0-0.8,0.1-1.4,0.1c-1.6,0-3.9,0.4-5.5,0.4C3.9,145.2,2.9,145.2,1.9,145.2L1.9,145.2z"/>
		<path class="st0" d="M2,4.9l35.5-4.6c0.7-0.1,1.7-0.2,2.6-0.2V0h-8.9c-0.5,0-1.1,0.1-1.6,0.1c-8.8,0.8-17.3,2.3-26,3.5
			c-0.3,0-0.4,0-0.5,0.1C2.6,3.8,2.1,4.4,2,4.9z"/>
		<path class="st0" d="M38.5,150.1l-4-0.6c-1.3-0.2-2.7-0.4-4.1-0.5l-6.2-0.6c-0.6,0-1.6-0.1-2.2-0.1c-1.3-0.2-3.1-0.1-4.3-0.2
			l-4.4-0.1c-1.3,0-8.4,0.3-8.9,0c0.1,0.3,1,0.9,1.3,1c0.6,0.2,1.3,0.2,2.1,0.2l13.3,0.4c0.6,0.1,1.6,0.1,2.1,0.1
			c0.8,0.1,1.4,0.1,2.2,0.1l4.2,0.4C32.2,150.3,35.7,150.1,38.5,150.1L38.5,150.1z"/>
		<path class="st0" d="M203.2,0.1c1.1,0,5.7,1,6.9,1.3c4.1,0.9,5.3,1,9.3,1c1.7,0,3.9-0.3,5.3-0.6l4.6-1.4c-0.2-0.3-0.4-0.2-0.8-0.3
			c-1.4-0.2-1.4,0-3.2,0.4c-1.8,0.4-5.8,1-7.6,1c-2.6,0-4.8-0.5-7.1-0.9c-0.9-0.2-2.2-0.6-3.2-0.6h-4.1h-0.1h-0.1L203.2,0.1
			L203.2,0.1z"/>
		<path class="st0" d="M138.7,0.1l11.9,0.7c3,0,7.4,0,10.4-0.5c0.8-0.1,1.7-0.3,2.6-0.3H138.7z"/>
		<path class="st0" d="M195.6,150H227c-1.4,0-2.5-0.1-3.9-0.1c-0.7,0-1.1-0.1-1.9-0.1c-0.7,0-1.4,0.1-2,0c-1.2-0.2-2.7,0.1-3.9-0.1
			c-0.7-0.1-10.5-0.2-11.5,0l-4.1,0.2c-0.5,0-0.9,0-1.4,0.1c-0.5,0.1-0.9,0-1.4,0.1C196.5,150,196.2,150,195.6,150L195.6,150z"/>
		<path class="st0" d="M6.1,1.3C6.6,1.1,7.4,1,8,1c1.1-0.2,5.4-0.9,6.2-0.9V0h-3.8C9.5,0.1,8.6,0.2,7.6,0.5C7.2,0.6,6.3,0.9,6.1,1.3
			z"/>
		<polygon class="st0" points="76.6,0.1 85.3,0.1 85.3,0 76.6,0 		"/>
		<path class="st0" d="M96.6,150h8c-0.8,0-1.2-0.1-1.9-0.1L96.6,150z"/>
	</g>
</g>
</svg>
