<?xml version="1.0" encoding="UTF-8"?>
<!DOCTYPE svg PUBLIC "-//W3C//DTD SVG 1.1//EN" "http://www.w3.org/Graphics/SVG/1.1/DTD/svg11.dtd">
<!-- Creator: CorelDRAW 2018 (64-Bit) -->
<svg xmlns="http://www.w3.org/2000/svg" xml:space="preserve" width="84mm" height="53mm" version="1.1" style="shape-rendering:geometricPrecision; text-rendering:geometricPrecision; image-rendering:optimizeQuality; fill-rule:evenodd; clip-rule:evenodd"
viewBox="0 0 8400 5300"
 xmlns:xlink="http://www.w3.org/1999/xlink"
 xmlns:xodm="http://www.corel.com/coreldraw/odm/2003">
 <defs>
  <style type="text/css">
   <![CDATA[
    .fil0 {fill:#2B2A29}
   ]]>
  </style>
 </defs>
 <g id="Слой_x0020_1">
  <metadata id="CorelCorpID_0Corel-Layer"/>
  <g id="_2801261404560">
   <path class="fil0" d="M2774.47 4740.35l0 0c-6.95,17.44 -17.36,34.88 -24.31,48.83 6.95,-13.95 13.9,-31.39 24.31,-48.83z"/>
   <path class="fil0" d="M8313.23 236.99c-85.97,91.05 -171.5,182.46 -262.16,269.74 -76.37,73.24 -159.68,142.99 -253.41,195.29 -48.6,27.9 -97.2,48.82 -138.87,83.7 -41.66,31.38 -76.36,69.74 -111.08,108.11 -76.37,87.18 -156.22,177.85 -232.58,268.52 -72.91,83.7 -142.34,167.39 -218.71,251.09 -52.07,59.28 -111.08,111.59 -183.98,153.45 -17.36,6.97 -34.72,17.43 -52.07,24.41l-3.48 0c-100.67,41.85 -211.75,45.33 -312.42,90.68 -166.63,73.23 -263.83,237.14 -336.74,390.58 -3.47,10.46 -10.41,20.93 -13.88,27.9 20.83,-163.91 45.13,-327.82 90.26,-491.72 34.72,-132.52 83.32,-265.04 149.27,-387.1 34.72,-62.77 69.43,-122.06 114.56,-177.85 31.24,-41.85 69.43,-76.71 107.62,-115.08l6.94 0c3.48,-6.98 10.42,-10.46 13.89,-17.44 10.41,-10.45 24.3,-20.92 34.71,-31.38 97.2,-80.21 187.46,-167.39 267.3,-261.55 79.85,-90.67 152.75,-184.83 225.65,-278.98 59.57,-75.15 120.26,-150.31 184.9,-221.69l-10.15 -10.2c-204.91,227.21 -368.82,491.3 -598.28,695.71 -24.3,24.42 -52.07,45.34 -79.84,66.26 13.89,-17.44 27.77,-31.38 41.67,-48.82 45.12,-45.33 90.26,-97.64 128.44,-146.47 59.01,-73.23 111.08,-146.46 163.15,-223.19 81.74,-117.69 163.48,-235.39 255.29,-346.34l-12.37 0c-20.92,25.69 -41.66,51.74 -62.41,77.79 -86.78,115.08 -166.62,233.65 -249.94,348.73 13.88,-24.42 27.77,-48.82 38.19,-73.24 17.36,-45.33 34.71,-87.18 55.55,-132.52 17.35,-38.36 41.66,-73.23 65.95,-111.59 29.44,-44.36 61.43,-86.18 95.97,-126.19l-14.03 -0.41c-24.07,28.56 -47.04,58.07 -68.05,88.23 -52.08,69.75 -93.73,146.46 -124.98,226.68 -17.36,45.33 -34.72,90.68 -62.48,129.03 -24.31,38.36 -55.55,76.72 -83.32,111.59 0,0 0,3.49 -3.47,3.49 3.47,-3.49 3.47,-6.98 6.95,-10.46 24.3,-38.36 45.12,-76.72 59.01,-115.08 17.35,-48.82 27.76,-97.64 41.66,-146.46 31.24,-101.14 97.2,-181.34 166.63,-258.07l24.69 -28.95 -18.48 0c-62.54,72.1 -126.59,142.14 -165.91,227.73 -20.83,48.82 -31.24,101.13 -45.12,149.95 -13.89,45.33 -31.24,90.67 -52.07,132.52 -41.67,80.2 -100.68,149.95 -159.69,219.7 -34.71,38.36 -65.95,76.72 -100.67,115.08 -24.3,31.39 -52.07,59.28 -72.9,94.16 -20.83,27.89 -41.66,55.8 -59.01,83.69 -72.91,115.08 -128.44,240.63 -170.1,369.66 -86.79,265.04 -121.51,540.54 -156.22,812.55 -20.83,142.99 -38.19,289.46 -128.44,411.5 -45.13,62.77 -100.67,115.09 -156.22,170.89 -55.55,59.28 -111.08,118.57 -170.1,177.85 -17.36,17.43 -34.72,38.36 -52.08,55.8 0,-2.03 -1.43,-3.49 -3.47,-3.49 -45.13,55.8 -93.72,104.62 -149.27,149.95 -6.95,6.98 -17.36,13.95 -24.31,20.93 0,0 -3.47,0 -3.47,3.49 -11.55,11.6 -27.62,24.1 -34.71,38.36 -159.69,163.9 -354.09,296.42 -551.96,421.97 -211.76,132.52 -427,258.07 -624.87,408.02 -97.2,73.24 -187.46,153.45 -267.3,240.63 -79.84,83.7 -156.22,174.37 -225.65,268.53 -150.6,199.25 -286.84,408.92 -436.83,608.47l17.87 0c129.06,-172.61 248.02,-354.15 373.84,-524.78 142.33,-191.8 295.07,-373.14 479.05,-526.59 190.94,-156.93 409.64,-285.96 621.39,-418.48 69.43,-41.85 138.86,-87.18 208.29,-132.52 -24.3,17.44 -52.07,34.88 -76.36,55.8 -159.68,111.6 -315.9,223.2 -475.59,338.28 -72.91,52.31 -149.28,104.62 -222.18,160.41 -69.43,55.8 -135.39,115.08 -190.93,181.34 -55.55,66.26 -107.62,132.52 -156.22,202.27 -55.55,76.71 -107.62,153.44 -159.68,230.16 -102.59,144.93 -205.19,286.89 -305.04,434.11l8.74 0c87.19,-121.5 174.39,-244.68 261.58,-367.85 55.55,-76.72 107.62,-153.45 163.16,-230.16 48.6,-69.75 100.67,-142.99 156.21,-209.25 55.55,-69.75 118.03,-132.52 183.99,-191.81 69.43,-59.28 142.34,-111.59 218.7,-163.9 159.68,-111.59 315.9,-223.19 475.59,-338.27 45.13,-31.39 90.27,-66.26 135.39,-97.65 -31.24,24.42 -59.01,48.83 -90.26,69.75 -149.27,118.57 -295.07,237.14 -444.34,352.22 -72.9,55.8 -149.27,111.59 -218.7,174.37 -65.96,59.28 -121.5,125.55 -177.04,195.29 -111.08,139.5 -222.18,282.47 -326.32,428.95 -89.15,125.37 -175.75,250.74 -257.63,378.31l11.74 0c70.93,-106.03 143.63,-210.78 218.12,-315.54 104.15,-146.47 211.75,-289.45 319.37,-428.95 55.55,-69.75 111.09,-142.99 173.58,-205.76 62.48,-62.77 138.86,-118.57 208.29,-174.37 149.27,-115.08 295.07,-233.65 444.34,-352.22 55.55,-45.33 111.08,-90.67 170.1,-136 -38.19,34.87 -76.36,69.74 -118.03,104.62 -131.91,122.06 -267.3,240.63 -402.68,359.2 -128.44,111.59 -253.42,223.19 -357.57,352.22 -55.54,69.75 -104.14,142.98 -156.21,216.21 -52.08,73.24 -104.15,149.96 -156.22,226.68 -81.93,117.97 -163.86,235.94 -244.1,353.91l11.72 0 204.6 -294.62c52.07,-76.71 104.14,-149.95 156.22,-226.68 48.6,-73.24 97.2,-146.46 152.74,-216.21 100.67,-136.01 225.65,-254.58 354.09,-369.66 135.39,-118.57 267.3,-237.14 399.22,-355.71 97.19,-87.18 194.39,-177.85 291.6,-265.04 -72.9,76.72 -145.8,153.45 -222.17,226.69 -118.03,115.08 -239.54,223.19 -357.57,334.78 -118.03,111.59 -225.65,226.68 -319.37,355.71 -100.67,136.01 -194.4,278.98 -291.61,418.48 -90.53,130.75 -181.08,261.51 -267.87,392.26l11.39 0c78.4,-109.9 156.35,-221.43 232.18,-332.98 97.2,-139.5 190.93,-278.98 288.13,-414.99 48.6,-66.26 100.67,-136.01 152.75,-198.78 52.07,-59.28 107.62,-115.08 163.15,-170.88 118.03,-111.59 239.53,-219.7 357.56,-331.29 90.27,-87.19 177.04,-174.37 260.36,-265.04 -4.74,9.54 -16.51,20.08 -24.3,27.9 -62.48,62.77 -121.5,125.55 -183.98,188.32 -62.49,62.77 -124.98,125.55 -187.46,191.8 -55.55,59.28 -114.56,118.57 -166.63,177.85 -52.07,62.77 -100.67,132.52 -145.8,202.27 -45.13,66.26 -86.79,132.52 -128.44,198.78 -86.79,136 -173.58,268.52 -263.83,404.53 -74.08,110.34 -150.06,216.92 -230.66,322.51l15.05 0c169.59,-208.46 312.89,-438.83 458.62,-664.27 41.66,-66.26 86.79,-132.52 128.44,-198.78 45.12,-69.75 90.26,-136.01 138.86,-202.27 52.07,-66.26 107.62,-129.02 166.63,-188.31 59.01,-62.77 121.5,-122.06 180.51,-184.83 45.13,-45.34 86.79,-90.68 131.92,-136.01 -49.17,59.98 -96.63,121.36 -145.8,181.34 -48.6,59.28 -97.2,118.57 -145.8,181.34 -45.13,55.8 -86.79,115.08 -121.5,177.85 -34.72,62.77 -69.43,129.03 -104.15,191.81 -34.71,62.77 -72.9,125.55 -107.62,188.31 -72.9,122.06 -152.74,244.12 -232.58,366.17 -65.17,98.21 -133.96,192.78 -203.77,287.65l10.79 0c145.93,-192.06 280.17,-391.39 404.74,-598.02 76.37,-122.06 145.8,-247.6 211.76,-373.15 34.71,-66.26 72.9,-129.03 118.03,-188.32 45.12,-59.28 93.72,-118.57 142.33,-177.85 27.77,-34.87 59.01,-73.24 86.79,-108.11l-20.83 31.38c-83.32,115.08 -156.22,237.14 -225.65,362.68 -135.39,251.09 -246.47,512.65 -388.81,756.75 -58.77,100.87 -122.73,198.27 -189.43,294.64l15.59 0c142.84,-190.83 255.03,-402.59 357.83,-611.99 65.96,-136.01 131.91,-272.02 201.34,-404.53 -3.47,10.45 -10.41,20.92 -13.88,31.38 -41.66,94.15 -79.84,188.32 -114.56,285.96 -65.95,188.32 -131.91,380.12 -225.64,561.47 -24.5,47.56 -52.06,93.59 -82.34,137.71l15.11 0c77.85,-110.32 135.59,-233.86 185.26,-357.41 76.37,-191.81 131.92,-387.1 215.23,-578.91 24.31,-52.31 48.6,-108.11 76.37,-160.41 27.77,-52.31 59.01,-101.13 90.26,-149.96 3.48,-3.49 -3.47,-6.97 -6.95,-3.49 -13.88,17.44 -27.76,38.37 -41.66,55.81 34.72,-55.81 69.43,-111.6 107.62,-167.4 48.6,-69.74 97.2,-136 149.27,-202.26 20.83,-27.9 41.67,-52.31 62.49,-80.21 -41.67,52.31 -79.84,108.11 -121.51,163.9 -121.5,170.88 -232.58,352.22 -315.9,544.03 -41.66,97.65 -76.36,195.29 -104.14,296.42 -27.77,101.14 -52.08,205.76 -79.84,306.89 -31.76,115.67 -70.29,228.07 -128.9,333l26.18 0c41.82,-78.23 76.05,-159 102.72,-242.31 62.48,-202.27 100.67,-408.03 177.04,-606.8 76.36,-195.29 180.51,-376.64 298.54,-551 104.14,-149.95 215.23,-296.42 333.26,-439.41 6.94,-6.98 10.41,-13.94 17.35,-17.43l0 -3.49c3.48,-3.49 3.48,-6.98 6.95,-10.46 7.32,-11.01 16.98,-20.37 24.31,-31.39l52.07 -66.25c6.95,-6.98 13.88,-13.95 20.83,-17.44 41.66,-38.37 79.84,-76.72 114.56,-122.06l3.47 0c114.56,-111.59 225.65,-230.16 333.26,-345.25 27.77,-31.39 55.54,-59.28 79.84,-94.16 10.41,-6.98 17.36,-17.43 27.77,-24.41 17.35,-20.93 38.18,-38.37 52.07,-59.28 34.71,-41.85 62.48,-83.69 86.79,-129.02 45.12,-94.16 65.95,-195.29 104.14,-289.45 76.37,-181.34 204.82,-341.77 357.56,-467.31 55.55,-45.33 111.09,-87.18 173.58,-125.54 180.26,-67.91 304.81,-238.97 426.98,-380.13 76.37,-90.68 156.22,-177.85 232.59,-268.53 34.71,-41.85 69.43,-83.69 111.08,-122.05 38.19,-38.37 86.79,-66.26 135.39,-94.16 48.6,-24.41 93.72,-52.31 138.86,-83.7 20.83,-17.43 45.13,-31.38 65.96,-48.82 131.91,-97.64 291.6,-163.9 423.52,-265.03l29.56 -23.7 -6.54 -11.84c-7.53,7.35 -15.17,14.57 -23.02,21.59 -31.25,27.9 -69.43,48.82 -104.15,73.24 -72.9,45.33 -145.8,87.18 -218.7,132.52 -13.89,6.97 -24.31,17.43 -34.72,24.41 76.37,-69.75 145.8,-142.98 218.71,-216.21 33.07,-34.61 66.14,-68.67 98.99,-102.62l0 -13.53 -17.34 0 0 -7.12zm-1609.08 611.51c10.41,-10.46 17.35,-20.93 27.77,-31.39 -6.95,10.46 -13.89,20.93 -24.31,27.9 -6.95,10.45 -17.36,17.43 -24.3,27.89l3.47 -3.49c-6.95,10.46 -17.36,20.93 -24.31,31.39 -17.35,13.94 -31.24,27.89 -45.12,41.85 31.25,-31.39 59.03,-62.77 86.8,-94.15zm-1364.29 2594.56l-76.36 76.72c3.72,-3.74 3.47,-2.13 3.47,-6.98 10.41,-10.46 20.83,-24.42 31.24,-34.88 10.41,-10.44 24.3,-20.9 41.65,-34.86 -1.88,0 -2.11,0 0,0z"/>
   <path class="fil0" d="M8387.11 1343.02c-12.96,21.13 -26.99,42.27 -41.01,63.4 -10.97,14.7 -20.27,30.64 -31.24,45.33l0 3.49c-10.41,13.95 -20.83,27.9 -31.24,45.34 -41.01,58.35 -83.6,115.43 -128.44,170.88l-3.48 3.49c-6.94,10.46 -17.35,20.92 -24.3,31.38 -3.47,6.98 -10.41,10.46 -13.88,17.44 -6.95,6.98 -13.89,17.44 -20.83,24.42 -6.95,6.97 -10.42,13.94 -17.36,20.92 -6.95,6.98 -13.89,13.95 -20.83,24.42l-62.5 62.78c-6.94,6.98 -13.88,13.94 -17.35,20.92 -6.95,6.98 -13.89,13.95 -20.84,24.42 -6.94,6.98 -13.88,13.95 -17.35,20.93l-24.31 24.41c-6.94,6.98 -13.88,13.95 -17.36,20.93l-20.83 20.92c-6.94,6.98 -13.88,13.95 -20.83,17.44 -27.77,24.42 -52.07,48.82 -79.84,73.24 -69.43,62.77 -142.33,125.55 -218.7,181.34 -27.77,20.93 -59.01,45.33 -90.26,66.26 -86.79,62.77 -177.04,118.57 -270.78,174.37l-145.79 83.69c-135.39,76.71 -274.25,149.95 -392.28,251.08l-10.41 10.46c-114.56,97.64 -201.35,212.72 -246.47,352.22 -10.41,27.9 -17.36,59.28 -27.77,90.68 -34.72,132.51 -55.55,272.01 -124.98,397.55 -10.41,13.95 -17.35,31.38 -27.76,45.33 -41.67,59.28 -90.27,115.08 -142.34,167.39 -48.6,52.32 -93.72,104.63 -138.86,160.42 -10.41,10.46 -17.36,24.41 -27.77,34.87 -208.29,265.04 -371.44,561.47 -486,871.84 -44.56,100.16 -87.82,200.32 -137.7,298.11l25.56 0c23.09,-44.26 44.41,-91.58 63.53,-137.69l6.95 0c0,0 3.47,0 3.47,-3.49 13.89,-34.88 27.77,-66.26 45.13,-101.13 0,3.49 3.47,3.49 6.94,0 3.48,-13.95 10.41,-31.39 17.36,-45.34 3.47,-10.45 10.41,-20.92 13.89,-27.89 17.35,-38.37 38.18,-76.72 55.54,-111.59 0,3.49 3.48,3.49 6.95,0 3.47,-13.95 6.95,-24.42 13.88,-38.37l104.15 -188.32c3.47,-6.97 6.95,-13.94 13.88,-20.92 -13.88,34.87 -24.3,69.75 -31.24,108.11 -20.83,90.67 -27.77,181.34 -24.3,272.01 3.37,98.21 10,196.41 -2.33,294.62l17.12 0c10.52,-76.12 11.45,-152.23 6.04,-228.36 3.47,0 3.47,0 3.47,-3.49 0,-94.15 34.72,-184.83 107.62,-251.08 62.48,-59.28 138.86,-97.65 194.4,-160.42 59.01,-69.75 72.9,-153.44 90.26,-237.14 10.41,-41.85 20.83,-83.69 41.66,-122.06 24.3,-38.36 59.01,-69.75 97.2,-97.64 45.12,-27.9 93.72,-48.82 142.33,-73.24 55.55,-27.89 114.56,-52.31 170.11,-80.2 142.33,-27.9 284.65,-62.77 409.63,-139.5 13.88,-6.98 27.77,-17.44 41.66,-27.9 3.48,-3.49 10.41,-6.98 13.89,-10.45 6.94,-6.98 17.35,-10.46 24.3,-17.44 6.95,-3.49 10.41,-10.46 17.36,-13.95 6.95,-3.49 13.88,-10.46 17.36,-13.95 6.5,-6.53 14.09,-10.66 20.83,-17.43 17.36,-13.95 34.71,-31.39 52.07,-45.34 20.83,-17.43 38.19,-31.38 59.01,-48.82 10.41,-10.46 24.3,-20.93 34.72,-31.38l13.88 -13.95c3.47,-3.49 6.95,-3.49 10.41,-6.98 13.88,-6.98 24.3,-17.44 38.19,-24.42 13.88,-6.97 24.3,-17.43 38.19,-24.41 48.6,-31.39 100.67,-55.8 152.74,-76.72 114.56,-48.82 236.06,-80.21 357.56,-115.08 124.98,-34.87 256.9,-69.75 371.45,-132.52 68.06,-36.2 125.73,-85.14 173.67,-142.16l0 -321.46c-53.77,26.14 -109.34,50.49 -166.69,73.04 -48.6,17.44 -100.67,34.87 -149.27,52.31l-114.56 41.85c-48.6,17.44 -93.72,38.37 -138.86,62.77 -27.77,13.95 -52.07,31.39 -76.37,45.33 -41.66,27.9 -83.31,62.77 -121.5,97.65 -6.95,6.98 -13.89,10.46 -20.83,17.43 -6.95,6.98 -13.89,10.46 -17.36,17.44l-34.71 34.88c-3.48,3.49 -6.95,6.97 -6.95,10.45 -166.63,170.89 -302.02,366.17 -482.53,519.62 -17.36,13.95 -34.72,27.89 -55.55,41.85 -38.09,28.7 -78.91,55.33 -121.5,76.72 -20.83,10.46 -41.66,20.92 -62.48,27.89 -195.15,85.24 -414.66,83.73 -610.97,167.39 -41.67,17.44 -83.32,38.37 -121.51,62.77 -111.08,73.24 -194.39,174.37 -267.3,282.48 27.77,-52.31 62.49,-101.14 100.67,-146.47 38.19,-41.85 76.37,-80.21 118.03,-118.57 52.08,-45.33 107.62,-90.67 166.63,-129.03 59.01,-38.36 121.51,-73.23 180.52,-108.11 59.01,-34.87 118.03,-73.24 159.68,-122.06 48.6,-55.8 72.9,-122.06 97.2,-191.81 52.07,-156.93 111.08,-306.88 183.98,-456.84 100.48,-201.86 208.76,-389.48 385.33,-533.55 59.01,-48.82 128.44,-87.19 197.87,-122.06 135.39,-69.75 281.19,-122.06 420.05,-188.32 229.32,-107.07 455.63,-250.38 606.24,-452.38l1.13 -31.85c-134.86,190.14 -337.44,329.49 -548.35,435.43 -131.91,66.26 -274.25,118.57 -409.64,181.34 -138.86,62.77 -270.77,142.99 -374.92,251.08 -100.67,104.62 -180.51,226.68 -246.46,355.71 -72.91,139.49 -138.87,285.96 -190.94,435.91 -27.77,73.24 -48.6,153.45 -83.31,226.69 -34.72,66.26 -86.79,118.57 -149.27,160.41 -59.01,38.36 -121.51,69.75 -180.52,108.11 -59.01,34.88 -111.08,73.24 -166.63,115.08 -52.07,41.86 -100.67,83.7 -145.79,132.52 -8.95,8.99 -17.2,17.2 -24.31,27.91 24.31,-31.39 48.6,-62.77 76.37,-90.68 48.6,-52.31 104.14,-104.62 159.68,-149.95 59.01,-45.34 121.5,-83.7 180.51,-129.03 59.01,-41.86 114.56,-90.68 152.75,-153.45 41.66,-66.26 62.48,-139.49 83.31,-212.72 45.13,-146.47 93.73,-292.94 163.16,-428.95 65.96,-132.52 156.22,-254.58 270.77,-355.71 215.23,-188.31 492.95,-296.41 739.42,-439.4 131.92,-73.23 253.42,-160.41 361.03,-265.03 114.55,-108.11 215.23,-233.65 312.43,-355.71 9.17,-10.76 18.35,-22.18 27.22,-33.69l0.98 -27.68c-87.69,112.81 -178.74,226.93 -278.13,329.89 -107.62,111.59 -229.11,212.73 -361.02,296.42 -145.8,90.68 -305.49,163.91 -454.77,244.12 13.89,-10.46 27.77,-20.92 41.67,-27.89 72.9,-45.34 149.27,-83.7 218.7,-129.03 69.43,-45.33 135.39,-97.65 197.87,-153.45 237.93,-201.98 453.21,-426.72 639.6,-671.07l0.24 -6.59 -1.09 1.11c-27.77,34.87 -52.08,66.26 -79.84,101.13 -52.08,62.77 -104.15,122.06 -159.69,181.34 -111.08,118.57 -229.11,233.65 -350.61,341.76 -65.96,55.8 -131.92,115.08 -204.82,163.91 -45.13,31.38 -93.72,59.28 -142.33,87.18 118.03,-83.69 229.11,-174.37 336.73,-268.52l6.93 -6.97c76.37,-69.75 149.28,-142.99 218.71,-216.22l10.41 -10.45c10.41,-10.46 20.83,-24.42 31.24,-34.88l20.83 -20.93c6.95,-6.97 13.88,-17.43 20.83,-24.41 10.41,-10.46 17.36,-20.93 27.77,-31.39 3.47,-3.49 6.95,-10.45 13.88,-13.94 10.41,-13.95 20.83,-24.42 31.24,-38.37 3.48,-3.49 3.48,-6.98 6.95,-10.46 4.1,-5.48 34.72,-45.39 34.72,-48.83 13.07,-17.52 22.43,-32.99 38.19,-48.82 10.41,-13.95 20.83,-31.38 31.24,-45.33l3.47 -3.49c10.41,-13.95 20.83,-27.9 31.24,-45.33 0,-3.49 3.48,-3.49 3.48,-6.98 10.41,-13.95 17.35,-27.9 27.76,-41.85 3.48,-3.49 3.48,-6.98 6.95,-10.46 6.95,-10.46 13.89,-24.42 20.83,-34.88 3.48,-6.98 6.95,-10.46 10.41,-17.43 3.53,-5.3 6.15,-10.62 8.79,-15.92l0.94 -26.6zm-2016.22 2012.87c3.47,-10.46 6.95,-20.93 6.95,-31.39 20.83,-80.21 45.12,-160.41 83.31,-237.14 6.95,-13.95 17.36,-27.9 24.31,-41.85l20.83 -31.39c109.13,-150.77 267.28,-252.1 426.98,-341.76 -121.5,83.7 -243.01,174.37 -333.26,292.94 -97.2,132.52 -128.44,292.94 -177.04,446.38 -24.3,80.2 -52.07,160.41 -86.79,237.14 -17.35,38.36 -34.71,76.71 -62.48,111.59 -24.3,31.38 -52.07,59.28 -83.31,83.69 -59.01,48.83 -118.03,94.16 -173.58,146.47 -20.83,20.93 -45.13,41.85 -65.96,62.77 20.83,-24.42 41.67,-48.82 59.01,-73.24 55.55,-66.26 118.03,-125.55 173.58,-195.29 55.55,-69.74 97.2,-142.98 124.98,-223.19 3.47,-13.95 10.41,-27.89 13.88,-41.85 20.82,-52.29 34.71,-108.09 48.59,-163.88zm-694.29 1164.76c-38.19,62.77 -76.37,129.03 -114.56,195.29 51.67,-100.35 104.77,-199.82 163.15,-296.42 -17.35,34.87 -34.71,66.27 -48.59,101.13zm-59.01 52.31c-13.89,20.93 -24.31,38.36 -34.72,59.28 27.77,-55.8 55.55,-115.08 86.79,-167.39 3.47,-3.49 6.95,-10.46 6.95,-13.95 6.94,-10.46 10.41,-20.92 17.35,-27.89 3.48,-6.98 10.41,-13.95 13.89,-24.42l20.83 -31.38c3.47,-6.98 6.95,-13.95 13.88,-20.93 6.95,-10.46 17.36,-24.42 24.31,-34.88 3.47,-3.48 3.47,-6.97 6.94,-6.97 17.36,-24.42 34.72,-48.83 55.55,-73.24 90.26,-118.57 197.87,-230.16 315.9,-324.33 62.48,-48.82 124.98,-97.64 166.63,-163.9 45.12,-66.26 69.43,-146.47 93.72,-219.7 27.77,-80.21 55.55,-163.91 79.85,-244.12 24.3,-80.21 48.59,-160.41 86.78,-233.65 72.91,-136.01 197.87,-233.65 326.32,-324.33 59.01,-41.85 114.56,-80.2 177.04,-118.56 41.67,-24.41 86.79,-48.82 128.44,-73.24 3.48,-3.49 10.41,-3.49 13.89,-6.97 -76.37,41.85 -152.75,90.67 -222.18,142.97 -118.03,87.19 -215.23,195.29 -291.6,317.35 -79.84,129.03 -135.39,272.01 -180.52,414.99 -24.3,73.24 -45.12,146.46 -69.43,219.7 -27.76,73.24 -69.43,139.5 -128.44,195.29 -55.54,48.82 -118.03,90.67 -180.51,136.01 -59.01,41.85 -114.56,87.18 -166.63,136 -104.14,101.14 -190.93,216.22 -267.3,338.28 -34.72,45.37 -65.97,94.19 -93.73,149.98zm690.82 -512.63c-45.13,20.92 -90.27,38.36 -131.92,62.77 -41.66,20.92 -76.37,48.82 -107.62,83.69 -27.77,34.88 -45.12,73.24 -55.54,115.08 -24.31,83.7 -27.77,177.85 -83.32,254.58 -52.07,69.75 -135.38,111.59 -197.87,170.88 -59.01,55.8 -100.67,129.03 -111.08,205.76 0,-73.24 0,-142.99 13.88,-216.22 13.89,-83.69 38.19,-163.9 72.91,-244.12 65.95,-108.11 142.33,-212.72 239.53,-299.91 27.77,-24.41 59.01,-45.33 90.26,-66.25 41.66,-24.42 86.79,-45.34 135.39,-62.77 83.31,-27.9 166.63,-45.34 253.42,-62.77 3.47,0 6.94,0 10.41,-3.49 -45.14,24.4 -86.8,41.84 -128.45,62.77z"/>
   <path class="fil0" d="M8334.52 4169.56c-113.43,113.09 -229.46,223.38 -342.47,333.66l-93.72 94.16c-27.77,27.89 -55.55,55.8 -83.32,80.2 -59.01,48.83 -131.91,76.72 -211.75,94.16 -72.91,17.43 -142.34,31.38 -211.76,52.31 -17.35,6.98 -34.71,10.46 -52.07,17.44 24.31,-20.93 48.6,-45.34 72.9,-66.26 52.08,-52.31 100.68,-108.11 138.87,-170.88 41.66,-62.77 79.84,-125.55 114.55,-188.32 38.19,-62.77 76.37,-129.03 121.5,-188.32 38.19,-52.31 83.32,-101.13 131.92,-146.47 93.72,-90.67 201.34,-170.88 298.54,-258.06 37.23,-32.56 74.44,-65.97 109.79,-100.92l-0.25 -16.56c-28.12,28.33 -57.77,55.79 -88.72,82.6 -97.2,87.19 -204.82,163.91 -302.01,251.09 -13.89,10.46 -24.31,24.42 -38.19,34.87 -6.95,6.98 -17.36,10.46 -24.31,17.44 -20.83,24.42 -41.66,52.31 -65.95,76.72 -13.89,13.95 -27.77,24.41 -38.19,41.85 -20.83,31.39 -45.13,59.28 -72.91,87.19 -105.09,112.61 -232.22,191.62 -371.44,254.57 -34.72,13.95 -72.91,27.9 -100.68,55.81 -27.76,24.41 -41.66,59.28 -59,94.15 -13.89,31.38 -31.25,62.77 -55.55,90.67 -75.43,75.78 -176.08,113.62 -274.24,149.96 -142.33,55.8 -277.71,125.55 -399.21,216.21 -49.46,36.91 -97.18,76.13 -142.49,117.65l18.32 6.08c31.36,-28.07 63.88,-54.98 96.4,-81.88 121.5,-94.16 256.89,-174.37 402.69,-230.17 124.97,-48.82 270.77,-94.15 347.14,-209.24 20.83,-31.39 31.24,-66.26 48.6,-97.64 20.83,-34.88 52.07,-59.28 86.79,-76.72 34.71,-17.44 69.43,-31.39 104.14,-48.82 34.72,-17.44 65.96,-38.37 97.2,-55.8 83.31,-52.31 156.22,-118.57 222.17,-188.32 -95.99,144.68 -167.5,306.05 -284.66,435.91 -41.67,45.34 -86.79,87.19 -135.39,129.03l-104.15 41.86c-124.97,55.8 -243,125.55 -347.14,209.24 -65.84,51.44 -129.95,109.76 -187.56,172.55l369.93 0 17.36 -17.43 1305.49 0 -17.17 -1095.57z"/>
   <path class="fil0" d="M6808.29 4967.03c-41.66,10.46 -79.84,27.9 -121.5,41.86 -41.66,13.95 -79.84,31.38 -121.5,45.33 -72.91,27.9 -142.34,55.8 -211.76,87.19 -87.13,36.86 -172.75,76.76 -253.85,123.72l29.56 0 15.99 -8.63c128.44,-69.75 263.83,-122.06 399.22,-177.85 45.12,-17.44 90.26,-34.88 131.91,-52.32 41.66,-17.43 90.26,-31.38 131.91,-52.31 3.5,-6.99 3.5,-10.47 0.02,-6.99z"/>
   <path class="fil0" d="M879.47 5282.56c58.62,-77.4 115.73,-156.25 176.64,-231.83 55.55,-73.24 111.08,-142.99 163.16,-216.21 48.6,-66.26 97.2,-136.01 121.5,-216.22 27.77,-80.2 34.72,-163.9 34.72,-247.6 3.47,-90.67 3.47,-177.85 3.47,-268.52 6.95,-181.34 13.88,-362.68 27.77,-544.03 6.94,-90.67 13.88,-181.34 24.3,-272.01 9.6,-96.29 23.46,-176.97 93.73,-247.61 3.47,-3.49 -3.48,-10.46 -6.95,-6.98 -55.55,45.33 -76.37,115.08 -86.79,181.34 -13.88,80.21 -20.83,163.9 -27.77,247.6 -17.35,181.34 -27.76,366.17 -34.71,547.51 -3.47,90.67 -6.95,181.34 -6.95,275.5 0,83.7 0,170.88 -17.36,254.58 -17.35,83.69 -52.07,160.41 -100.67,230.16 -48.6,73.24 -104.14,142.98 -159.68,216.21 -73.61,99.38 -148.75,198.74 -222.38,298.11l17.97 0z"/>
   <path class="fil0" d="M1465.74 3139.66c0,0 0,3.49 0,0 -3.48,6.98 -3.48,6.98 -3.48,10.46l0 3.49c-3.47,3.49 -3.47,6.98 -3.47,10.46 0,3.71 -3.47,8 -3.47,13.95 -3.48,10.45 -3.48,20.92 -3.48,31.38 -3.47,20.93 -3.47,41.85 -3.47,62.77 0,48.82 -3.47,97.64 -3.47,146.46 -3.48,94.16 -3.48,191.81 -3.48,285.97 0,170.88 3.48,338.27 10.41,509.15 3.48,83.7 10.41,167.39 10.41,251.09 0,76.72 -10.41,149.95 -41.66,219.7 -59.01,139.5 -163.15,258.07 -253.42,380.12 -56.52,73.26 -113.03,145.55 -169.55,217.9l-10.98 0c69.43,-91.97 138.87,-183.43 208.3,-273.7 90.26,-118.57 190.94,-240.63 232.59,-387.1 24.3,-80.2 20.83,-156.93 17.36,-240.63l-10.41 -254.57c-6.95,-170.89 -6.95,-338.28 -6.95,-509.16 0,-83.69 3.47,-170.88 3.47,-254.58l0 -52.31c0,-20.92 0,-45.33 3.48,-66.26l0 -10.45c0,-34.73 1.95,-70.81 20.83,-101.14 3.47,-3.49 3.47,-3.49 6.94,-3.49 3.5,7.01 3.5,7.01 3.5,10.49z"/>
   <g>
    <path class="fil0" d="M4302.82 52.31c-192.89,262.73 -351.08,547.45 -476.52,848.51 -17.36,38.36 -34.71,76.71 -62.48,104.62 -27.77,31.38 -65.96,52.31 -100.68,73.24 -69.43,41.85 -135.38,90.67 -197.87,139.49 -124.97,101.14 -236.06,219.71 -326.32,352.22 -3.46,6.98 -6.93,13.95 -13.87,17.44l-260.35 272.02c-86.79,90.67 -170.11,184.82 -284.66,244.11l-41.67 20.93c-9.16,3.08 -18.6,3.91 -27.76,6.98 -34.72,10.46 -69.43,24.42 -100.68,41.85 -60.56,23.67 -123.73,44.63 -180.51,76.72 -104.14,59.28 -190.93,139.5 -256.89,233.65 -31.24,48.82 -62.48,97.64 -100.67,139.5 -27.77,34.86 -62.48,59.27 -104.15,80.19l-3.47 0c-27.77,10.46 -55.55,24.42 -86.79,34.88l0.02 -0.04 -354.09 125.55c-131.91,48.82 -260.35,101.13 -392.27,156.93 -118.03,48.82 -243.01,94.16 -347.15,170.88 -107.62,76.72 -190.93,184.83 -277.71,282.48 -83.61,93.33 -169.99,186.67 -254.2,282.47l-17.36 26.69 0 24.67c70.78,-77.59 142.71,-157.93 212.54,-236.19 48.6,-52.31 93.73,-104.62 142.34,-153.45 45.12,-48.82 86.78,-97.64 135.38,-142.98 93.73,-87.19 211.76,-142.99 329.79,-195.29 128.44,-55.8 256.89,-111.59 388.8,-163.9 100.67,-41.85 201.35,-80.21 305.49,-115.08l3.47 0c-55.54,24.41 -111.08,52.31 -166.62,80.2 -52.08,20.93 -107.62,41.86 -159.69,66.26 -107.61,45.34 -215.22,90.68 -319.37,146.47 -97.2,48.82 -194.4,108.11 -281.18,174.37 -93.73,76.72 -166.63,167.39 -243.01,254.58 -120.28,139.42 -243.31,281.6 -364.21,421.63l0.79 9.34 304.4 -350.77c79.84,-90.67 156.22,-188.31 243.01,-272.01 79.84,-76.72 173.57,-139.5 270.77,-195.29 100.67,-55.8 204.82,-101.13 308.96,-146.46 45.13,-17.44 86.79,-38.37 131.92,-55.8 -114.56,62.77 -225.65,125.54 -333.26,198.77 -48.6,31.39 -97.2,66.26 -145.8,104.62 -48.6,38.37 -90.26,80.21 -135.39,122.06 -86.78,83.7 -173.57,170.89 -253.41,258.07 -130.56,139.89 -256.24,282.22 -375.07,431.05l2.51 15.18c112.87,-137.38 226.96,-270.36 348.24,-400.9 86.79,-90.67 173.58,-181.34 263.83,-268.52 45.13,-41.85 90.26,-87.19 135.39,-129.03 48.6,-41.85 100.67,-80.21 156.22,-115.08 145.79,-94.15 298.54,-181.34 454.76,-261.55l52.07 -20.92c-395.31,210.72 -733.52,505.84 -1006.72,861.37 -90.26,115.08 -173.58,230.16 -260.36,345.25 -37.64,51.06 -75.29,102.12 -112.94,152.61 0.5,5.07 0.99,9.16 2.21,14.1 18.14,-24.39 36.41,-48.68 55.2,-72.57 86.79,-115.08 173.57,-233.65 260.35,-348.73 83.32,-108.11 166.63,-216.22 256.89,-317.35 83.32,-87.18 170.11,-174.37 260.36,-251.09 183.98,-156.93 388.8,-292.94 607.5,-404.53 6.95,-3.49 17.36,-6.98 24.31,-13.95 17.35,-6.98 38.19,-13.94 55.54,-20.92 24.31,-10.46 55.55,-17.44 76.37,-31.39 27.77,-17.44 55.55,-31.38 83.32,-41.85 31.24,-13.95 65.95,-27.9 100.67,-38.36 62.48,-20.93 121.5,-41.86 183.98,-66.26 52.08,-20.92 100.68,-48.82 142.34,-83.69 142.33,-115.08 225.65,-285.96 367.97,-404.53l52.07 -20.92c10.41,-3.49 17.36,-10.46 27.77,-17.44 3.48,0 3.48,-3.49 6.95,-3.49 3.47,0 3.47,-3.48 6.95,-3.48 3.44,-10.46 10.39,-13.95 17.32,-17.44 -86.78,108.11 -166.62,219.7 -246.47,327.81 -86.78,115.08 -173.57,233.64 -295.07,317.34 -204.81,142.99 -520.71,129.03 -649.15,366.17 -65.96,118.57 -72.91,254.58 -86.79,387.09 -17.36,163.91 -31.24,327.82 -48.6,491.72 -17.36,163.9 -31.24,327.82 -48.6,491.72 -3.47,38.36 -10.41,76.72 -27.77,111.59 -13.88,34.87 -34.71,69.75 -59.01,101.13 -48.6,66.26 -100.67,129.03 -149.27,191.81 -108.72,137.03 -217.44,275.18 -326.16,413.17l26.73 0c83.33,-105.78 166.61,-211.1 250.82,-315.51l156.22 -198.77c48.6,-59.28 100.67,-118.57 131.91,-184.83 31.25,-69.75 34.72,-142.99 41.67,-216.21 6.94,-83.7 17.35,-163.91 24.3,-247.6 17.36,-163.91 34.72,-331.3 48.6,-495.21 6.95,-80.21 13.88,-156.93 24.3,-237.14 0,-6.98 0,-13.95 3.48,-17.44 3.47,-45.33 10.41,-87.18 20.83,-132.52 0,-3.48 3.47,-10.45 3.47,-13.94 3.48,-3.49 3.48,-6.98 3.48,-10.46 3.47,-6.98 6.94,-10.46 6.94,-17.44 0,-3.49 3.48,-6.98 6.95,-10.46 21.24,-42.65 57.33,-76.09 97.21,-101.13 59.01,-34.87 131.91,-41.85 194.4,-62.77 114.55,-38.36 218.7,-101.13 305.49,-184.83 24.3,-24.41 45.12,-45.33 65.95,-73.24 17.36,-20.92 31.24,-38.36 45.13,-59.28 72.9,-59.28 135.38,-132.5 194.39,-209.23 97.2,-129.03 194.4,-258.07 288.14,-390.59 20.83,-27.89 41.66,-55.8 59.01,-87.18 34.71,-27.9 65.95,-59.28 100.67,-94.15 97.2,-101.14 190.93,-202.27 284.66,-306.89l13.88 -10.46c3.47,-3.49 6.95,-10.46 10.41,-13.95 13.88,-17.44 31.23,-34.87 48.59,-52.31 3.47,-3.49 0,-3.49 -3.47,-3.49 -3.48,3.49 -6.95,10.46 -13.89,13.95 83.32,-108.11 180.52,-209.25 284.66,-299.91 62.49,-52.31 128.44,-101.14 197.87,-146.47 34.72,-20.92 69.43,-41.85 104.15,-66.26 31.24,-24.41 59.01,-52.31 79.84,-83.69 20.83,-34.88 34.71,-73.24 48.6,-108.11 13.88,-31.39 27.77,-59.28 38.19,-90.68 20.83,-31.38 41.66,-62.77 65.95,-94.15 38.19,-45.34 76.37,-87.19 121.51,-129.03 90.26,-83.7 187.46,-156.94 295.07,-219.7 158.75,-98.35 333.63,-172.38 500.05,-259.17l-592.89 0zm-1767.87 2093.48c-114.56,97.64 -197.87,233.65 -302.02,338.27 -34.71,34.88 -76.36,69.75 -121.5,94.16 -59.01,34.87 -121.5,55.79 -183.99,80.19l-83.31 31.39 3.47 0c6.95,-3.49 17.36,-6.98 27.77,-10.46 27.77,-10.46 55.55,-20.93 83.32,-38.36 45.12,-31.38 86.78,-66.25 128.44,-104.62 38.19,-34.87 79.84,-73.24 118.03,-111.59 76.36,-73.24 152.74,-146.46 236.06,-212.72 24.3,-20.93 59.02,-45.35 93.73,-66.26zm-34.71 10.46c-35.4,21.34 -68.14,47.8 -100.68,73.23 -79.84,66.26 -152.74,136.01 -225.65,205.76 -38.18,34.87 -76.36,73.24 -114.55,108.11 -41.66,38.36 -83.32,76.72 -135.39,104.61 -13.88,6.98 -27.77,13.95 -41.66,17.44 3.47,-3.49 6.95,-3.49 10.41,-6.98 24.3,-13.95 45.13,-31.38 62.48,-48.81 41.67,-38.36 76.37,-80.21 111.09,-125.55 67.43,-88.06 141.07,-173.51 232.58,-237.14 24.31,-17.44 48.6,-31.38 72.91,-45.33 45.14,-13.96 86.79,-27.91 128.46,-45.34zm-673.47 526.58c38.19,-31.39 65.96,-69.74 93.73,-108.1 34.71,-48.83 65.95,-97.65 104.14,-142.99 82.2,-97.57 179.67,-158.51 295.07,-209.24l3.48 0c-76.34,48.8 -142.8,108.65 -201.35,177.85 -38.19,45.33 -72.9,94.15 -111.08,139.49 -17.36,20.93 -38.19,41.85 -59.01,62.77 -20.83,20.93 -45.13,34.87 -69.43,52.3 -13.88,10.46 -27.77,17.44 -41.66,27.9l-3.48 0c-3.47,-3.47 -6.93,0.02 -10.41,0.02zm-218.7 104.61c-6.95,3.49 -13.88,6.98 -24.3,10.46 -13.89,6.98 -27.77,13.95 -45.13,20.93 -6.95,3.48 -13.88,3.48 -20.83,6.97 31.24,-13.94 59.02,-24.4 90.26,-38.36 -3.47,0 -3.47,0 0,0zm-156.22 390.58c0,-3.48 0,-6.96 3.48,-13.94l-3.48 13.94zm13.89 -34.87c0,3.49 -3.48,3.49 -3.48,6.98l3.48 -6.98zm1201.12 -1074.09c0,-6.98 6.94,-10.47 10.42,-13.95l-10.42 13.95z"/>
   </g>
   <path class="fil0" d="M69.44 3135.51c128.1,-108.82 272.03,-200.63 427.77,-271.35 131.91,-59.28 267.3,-101.14 409.63,-132.52 72.9,-17.44 145.8,-34.87 215.23,-66.26 129.11,-61.43 224.13,-180.29 312.44,-289.44 45.12,-55.8 90.26,-111.59 138.86,-167.39 93.72,-111.59 187.46,-216.22 291.6,-317.35 104.15,-101.13 215.23,-191.81 340.21,-272.01 135.38,-83.7 284.65,-146.47 426.99,-212.73 135.39,-66.26 267.3,-139.49 385.33,-226.68 114.56,-83.7 222.16,-181.34 315.89,-289.45 10.41,-10.46 20.83,-24.42 31.24,-34.88 -17.36,55.81 -24.3,111.6 -27.77,170.89 -6.94,66.25 -17.35,132.51 -34.71,198.77 -41.66,146.47 -114.56,282.48 -211.75,401.05 0,0 0,3.48 0,0 86.78,-101.14 152.74,-212.73 197.86,-334.79 20.84,-62.77 38.19,-125.55 48.6,-188.32 10.41,-69.75 13.89,-139.49 27.77,-209.24l20.83 -62.77c3.48,-3.49 6.95,-10.46 10.41,-13.95 0,0 0,-3.49 -3.47,-3.49l-3.47 3.49c17.35,-34.87 38.19,-66.26 62.48,-97.64 38.19,-48.82 79.84,-97.65 107.62,-156.94 34.71,-73.23 45.12,-149.95 48.6,-230.16 28.76,-118.48 114.72,-213.01 206.55,-297.48l-36.46 11.52c-59.01,55.8 -111.08,115.08 -145.8,188.32 -10.41,20.93 -20.83,45.33 -24.3,66.26 3.47,-41.86 3.47,-80.21 10.41,-122.06 6.76,-49.8 17.91,-98.13 36.29,-144.04l-14.62 0c-9.09,22.9 -16.44,46.48 -21.67,70.81 -27.77,129.03 -6.95,265.04 -48.6,394.07 -20.83,62.77 -55.55,115.08 -97.2,167.4 -38.19,48.82 -79.84,97.64 -104.14,156.93 -3.48,6.98 -6.95,13.95 -6.95,20.93 -180.51,209.24 -406.15,383.6 -656.1,509.15 -142.33,73.24 -295.07,132.52 -433.93,209.25 -128.44,69.74 -243,156.93 -350.61,254.57 -211.76,191.8 -385.33,421.96 -572.79,638.18 -48.6,55.8 -97.2,108.11 -159.68,153.44 -62.49,45.32 -135.39,73.23 -208.3,90.67 -72.9,17.43 -145.79,31.38 -218.7,52.31 -65.95,17.43 -131.91,41.85 -194.39,66.26 -182.19,71.72 -350.39,173.26 -497.2,298.4l0 18.27z"/>
   <g>
    <path class="fil0" d="M6313.65 52.31c-57.26,53.94 -106.61,113.96 -151.05,178.92 -76.37,111.59 -135.39,233.65 -211.76,345.25 -76.36,115.08 -170.1,212.73 -291.6,285.96 -124.98,69.75 -260.36,111.59 -399.22,146.47 -138.86,38.36 -277.71,73.24 -409.63,129.03 -404.93,166.89 -712.03,488.45 -999.79,809.06l-3.47 3.49c149.27,-191.81 305.49,-376.64 482.53,-544.03 183.99,-170.88 392.28,-320.83 628.34,-425.46 59.01,-24.41 121.5,-48.82 183.98,-69.74 65.96,-20.93 135.39,-38.37 201.35,-55.81 121.5,-34.87 236.06,-83.69 340.2,-153.44 100.67,-69.75 190.94,-156.93 256.89,-254.58 38.19,-52.31 65.96,-111.59 97.2,-167.39 41.55,-78.83 91.37,-156.71 145.36,-227.73l-11.28 0c-30.51,40.05 -59,80.56 -85.47,123.11 -34.71,55.8 -65.96,115.08 -97.2,174.37 -128.99,230.37 -321.2,385.33 -569.32,470.79 -65.95,20.93 -135.38,38.36 -204.81,59.28 -306.21,80.95 -585.39,252.81 -822.74,460.32 -201.34,177.85 -374.92,380.12 -534.6,589.36 -3.47,6.98 -6.95,10.46 -13.88,17.44 3.47,-6.98 10.41,-17.44 13.88,-24.41 131.92,-184.83 277.71,-355.71 444.34,-509.16 197.87,-184.83 420.05,-341.76 659.58,-474.28 59.01,-31.38 114.56,-62.77 177.04,-90.67 48.6,-24.42 100.67,-41.86 152.74,-62.77 100.68,-38.37 201.35,-76.72 295.07,-132.52 107.62,-62.77 201.35,-146.47 274.25,-247.6 83.45,-110.78 143.88,-234.42 212.03,-353.26l-13.17 0c-46.35,80.56 -89.99,162.36 -139.85,241.66 -72.9,118.57 -159.68,223.19 -274.25,306.89 -90.26,66.26 -194.39,111.59 -302.01,153.44 -104.15,41.85 -208.29,83.7 -308.97,132.52 -243,125.55 -472.11,278.98 -673.46,456.84 -156.22,139.5 -298.54,289.45 -423.52,456.85 90.26,-129.03 190.94,-247.6 305.49,-359.2 166.63,-167.4 354.09,-313.86 551.96,-446.38 97.2,-66.26 201.35,-129.03 302.02,-188.32 104.14,-59.28 208.29,-115.08 308.96,-174.37 100.67,-59.28 197.87,-122.06 281.19,-195.29 90.26,-80.2 163.15,-170.88 218.7,-275.5 19.31,-36.65 35.98,-73.31 53.27,-109.14l-9.44 0 -2.18 4.51c-27.77,59.28 -59.01,118.57 -93.72,174.37 -31.25,48.82 -69.44,94.15 -107.62,139.5 -79.84,83.69 -177.04,153.44 -277.72,212.72 -100.67,62.77 -204.81,118.57 -308.96,174.37 -104.14,59.28 -208.29,122.06 -308.96,184.83 -201.35,129.03 -388.81,272.01 -562.37,435.92 -86.79,83.69 -166.63,170.88 -243.01,261.54 65.96,-90.67 131.92,-177.85 204.82,-261.54 86.79,-101.14 183.99,-198.78 288.13,-285.96 104.15,-90.68 218.7,-167.4 336.73,-240.63 121.51,-76.72 243.01,-149.96 361.03,-226.69 59.01,-38.36 114.56,-76.71 170.1,-118.57 59.01,-45.33 114.56,-94.15 166.63,-139.49 27.77,-24.42 55.55,-45.34 79.84,-73.24 24.31,-27.9 45.13,-55.8 62.48,-83.7 31.01,-50.96 57.44,-104.23 84.87,-157.94l-18.93 0c-39.74,80.21 -81.52,160.09 -142.3,227.69 -24.31,27.9 -52.08,48.82 -79.84,73.24 -27.77,24.41 -59.01,48.82 -86.79,76.72 -55.55,45.33 -111.08,90.67 -173.58,132.51 -114.55,80.21 -236.06,153.45 -357.56,226.69 -118.03,73.23 -239.53,149.95 -347.14,237.14 -310.96,249.9 -562.41,585.39 -763.73,927.63 -17.35,24.42 -31.24,52.31 -45.12,76.72 -3.72,3.73 -3.48,2.12 -3.48,6.98 0,0 0,3.49 3.48,3.49 -83.39,101.23 -159.26,208.61 -232.59,317.34 -41.66,59.28 -79.84,122.06 -111.08,188.32 -27.77,62.77 -48.6,129.02 -59.01,195.28 -6.95,52.31 -10.41,104.62 -10.41,156.93 -6.95,62.77 -20.83,125.55 -38.19,184.83 -27.77,97.64 -72.9,195.29 -152.74,268.53 -90.26,80.2 -204.81,129.02 -305.48,195.28 -100.68,66.26 -194.4,142.99 -270.78,233.65 -65.96,80.21 -114.55,170.89 -170.1,258.07 -27.77,41.85 -52.07,87.19 -83.32,125.55l-3.47 0c-6.95,6.98 -10.41,17.44 -17.36,27.9 -27.76,31.38 -55.54,62.76 -86.78,90.67 -20.84,17.44 -41.67,34.87 -65.96,48.82 -24.31,17.44 -52.07,31.39 -79.84,45.33 -52.07,31.39 -86.79,80.21 -121.51,125.55 -83.31,111.59 -163.15,223.2 -246.47,334.79 -107.28,149.05 -216.07,296.59 -324.38,444.6l15.08 0 14.24 -19.14c83.31,-115.09 166.62,-226.69 249.94,-341.77 83.31,-111.59 163.15,-226.68 246.47,-338.27 38.19,-52.31 76.37,-111.59 121.5,-160.41 41.66,-45.34 100.67,-66.26 149.27,-104.63 31.25,-24.41 59.01,-48.82 86.79,-76.71 0,3.49 -3.47,6.98 -3.47,10.46 -55.69,76.93 -131.78,132.38 -201.35,195.29 -93.72,94.16 -169.73,206.93 -243,317.35 -55.55,80.21 -111.09,163.9 -163.16,244.12 -61.31,88.98 -119.29,181.32 -173.92,273.71l9.28 0c102.44,-164.24 208.24,-321.91 317.4,-482.96 52.07,-76.71 100.67,-149.95 156.22,-223.19 27.76,-34.87 59,-69.75 90.26,-104.62 31.24,-34.88 65.95,-62.77 100.67,-94.16 38.19,-31.38 69.43,-62.77 100.67,-97.64l0 3.49c-27.81,66.36 -89.85,107.63 -135.39,160.41 -52.07,59.28 -90.26,125.55 -135.38,188.32 -93.73,139.5 -187.46,278.98 -281.19,414.99 -51.69,79.62 -103.39,155.8 -155.07,235.36l3.57 0c96.78,-138.9 193.56,-277.79 286.89,-416.7 48.6,-69.75 93.72,-139.49 142.33,-209.24 45.13,-66.26 86.79,-139.5 138.86,-202.27 27.77,-34.87 65.96,-66.26 97.2,-101.13 -6.95,10.46 -10.41,17.44 -17.36,27.89 -45.12,76.72 -90.26,149.96 -131.91,226.69 -86.79,146.46 -170.1,289.45 -270.77,425.45 -55.55,73.24 -114.56,146.47 -156.22,226.69 0,3.49 3.47,3.49 3.47,3.49 41.66,-69.75 93.73,-136.01 145.8,-202.27 52.07,-66.26 97.2,-136.01 142.33,-205.76 90.26,-146.46 177.04,-296.42 263.83,-442.89 10.41,-20.93 24.31,-41.85 38.19,-62.77 -13.88,31.38 -27.77,62.77 -41.66,97.64 -31.24,66.26 -59.01,132.52 -83.32,202.27 -13.88,38.36 -27.77,73.24 -48.6,108.11 -17.35,34.87 -41.66,66.26 -62.48,97.64 -45.13,66.26 -90.26,136.01 -131.91,202.27 -46.83,73.92 -93.66,147.85 -140.49,224.89l6.58 0c90.52,-131.92 174.8,-263.96 262.36,-399.26 41.66,-62.77 83.31,-129.03 111.08,-198.78 13.88,-34.87 27.77,-73.23 41.66,-108.11 13.89,-34.87 31.24,-69.75 45.13,-108.11 3.47,-10.46 10.41,-20.93 13.88,-31.39 -13.88,45.34 -24.3,90.68 -31.24,139.5 -6.95,55.8 -17.36,115.08 -34.72,170.88 -34.71,111.59 -100.67,209.25 -159.68,310.38l-134.32 224.89 18.01 0c36.73,-59.85 73.62,-119.7 109.37,-179.56 59.01,-97.64 124.97,-195.28 170.1,-303.4 45.12,-108.11 41.66,-226.68 72.9,-338.27 34.72,-122.06 100.67,-233.65 163.16,-345.25l0 -3.49c65.95,-94.16 118.03,-198.78 187.46,-289.45 69.43,-97.65 159.68,-177.85 256.89,-247.6 48.6,-34.88 104.14,-66.26 156.22,-97.64 52.07,-27.9 104.14,-59.28 152.73,-94.16 41.66,-31.38 79.84,-69.75 111.08,-111.59 27.77,-41.85 48.6,-87.19 69.43,-132.52 24.31,-69.75 41.67,-139.49 52.08,-209.24 6.94,205.75 52.07,408.02 55.54,613.77 0,55.8 -3.47,115.08 -13.88,170.89 -10.41,17.43 -20.83,31.38 -31.24,45.33 -76.37,97.64 -187.46,167.39 -277.7,258.06 -170.11,174.38 -211.76,418.48 -302.02,631.22 -101.01,233.38 -251.01,443.8 -402.47,650.34l18.23 0c112.91,-148.53 220.02,-300.87 311.34,-462.02 10.41,-17.44 20.83,-34.88 27.76,-52.31 6.95,-17.44 17.36,-34.88 24.31,-48.83 0,4.82 5.09,1.87 6.94,0 17.36,-38.36 34.72,-73.23 59.01,-108.11 24.31,-34.87 52.08,-62.77 79.85,-94.15 59.01,-62.77 124.97,-115.08 187.46,-174.37 62.47,-55.8 121.49,-115.08 166.61,-184.83 52.08,-76.72 72.91,-163.9 93.73,-254.58 3.47,-13.95 6.95,-27.89 6.95,-38.36 20.83,-48.82 34.71,-101.14 45.12,-153.45 3.48,-3.49 6.95,-10.46 6.95,-13.94 3.47,-3.49 6.95,-10.46 10.41,-17.44 3.47,-6.98 6.95,-10.46 6.95,-17.44 13.88,-17.44 24.3,-31.38 38.19,-48.82l3.47 0c3.47,-3.49 3.47,-6.98 3.47,-10.46 118.03,-149.95 253.42,-285.96 406.16,-408.02 90.27,-69.75 187.46,-132.52 284.66,-191.81 193.7,-111.19 392.2,-211.75 534.6,-390.58 76.37,-94.15 135.39,-198.77 194.4,-299.9 131.92,-219.71 267.3,-435.92 406.16,-648.64 69.43,-104.63 138.86,-212.73 211.76,-317.35 34.71,-52.31 72.9,-104.62 107.62,-156.93 34.71,-48.83 65.95,-97.65 104.14,-142.99 20.83,-20.93 41.67,-41.85 65.96,-59.28 3.47,0 0,-3.49 0,-3.49 83.31,-62.77 163.16,-129.03 236.06,-198.78 163.15,-153.44 295.07,-334.78 437.4,-502.17 72.96,-86.44 148.93,-171.85 233.37,-248.64l-15.21 0c-196.43,178.88 -351.12,407.8 -523.65,600.86 -121.5,132.52 -256.89,251.09 -402.69,359.2 0,-3.49 -3.47,-3.49 -6.94,-3.49 -3.48,6.98 -10.41,10.46 -13.89,17.44 -55.54,41.85 -111.08,80.2 -170.1,115.08 -114.56,73.23 -229.11,142.98 -347.14,209.24 -62.48,34.88 -124.98,69.75 -190.93,101.13 -65.96,31.39 -131.92,59.28 -194.4,87.19 -121.5,55.8 -239.53,122.06 -343.68,202.27 -104.15,80.2 -194.4,181.34 -281.18,278.98 -187.46,219.7 -371.45,439.41 -558.91,659.1 -83,98.53 -150.01,176.87 -166.63,310.37 -17.36,136 10.41,278.98 -13.88,414.99 -6.95,31.38 -13.89,59.28 -20.84,90.67 -6.94,31.39 -6.94,62.77 -13.88,94.16 -6.95,27.89 -20.83,55.8 -31.24,80.2 17.36,-153.44 -3.47,-317.34 -24.31,-467.3 -17.35,-139.5 -34.71,-275.5 -24.3,-414.99 6.95,-69.75 17.36,-136.01 41.66,-202.26 24.31,-69.74 62.49,-132.51 100.67,-195.28 79.84,-125.55 170.11,-251.09 260.36,-369.66 97.2,-104.62 194.4,-212.73 295.07,-317.35 100.67,-104.62 208.29,-202.26 322.84,-292.94 114.56,-90.67 236.06,-170.88 367.98,-233.65 128.44,-62.77 267.3,-104.62 409.63,-142.99 135.39,-34.87 274.25,-69.74 402.69,-129.02 124.98,-55.8 236.06,-136.01 319.37,-240.63 86.79,-104.63 149.28,-223.2 218.71,-341.77 34.71,-59.28 69.43,-115.08 111.08,-167.39 27.72,-36.41 58.05,-70.19 91.02,-102.16l-19.83 0zm-4039.06 4245.16c0,-2.76 -0.64,-6.98 3.47,-6.98 3.47,-3.49 3.47,-6.98 6.95,-10.46 -3.48,6.97 -6.95,10.46 -10.42,17.44zm27.77 -73.24c-3.47,6.98 -10.41,13.95 -13.88,17.44l13.88 -17.44zm24.3 -20.93c3.47,-3.49 3.47,-6.98 6.95,-13.94 3.47,-6.98 6.94,-10.46 10.41,-17.44 3.47,-3.49 3.47,-6.98 6.94,-10.46 -6.94,13.95 -13.89,27.9 -24.3,41.84zm1176.81 -606.8c0,0 0,3.49 -3.47,3.49l-10.41 10.46c86.79,-184.83 59.01,-401.04 104.14,-596.34 13.89,-55.8 34.72,-111.59 62.49,-163.9 31.24,-55.8 69.43,-108.11 111.08,-160.41 83.31,-108.11 177.04,-205.75 267.3,-306.88 93.73,-101.13 183.99,-205.76 277.71,-310.38 86.79,-94.15 173.58,-188.32 270.78,-272.01 170.1,-139.5 371.44,-237.14 569.31,-338.28 107.62,-55.8 218.71,-111.59 319.38,-177.85l-6.95 6.98c-90.26,69.75 -183.99,132.52 -281.18,195.29 -97.2,62.77 -194.4,115.08 -295.07,170.88 -52.08,27.9 -104.15,55.8 -152.75,90.67 -45.12,31.39 -90.26,69.75 -131.91,108.12 -83.32,80.2 -166.63,163.9 -249.95,244.12 -83.31,83.69 -163.15,167.39 -243,251.08 -79.84,83.7 -156.22,174.37 -229.11,261.55 -69.43,87.18 -142.34,174.36 -194.4,275.49 -52.07,101.14 -69.43,209.25 -86.79,320.84 -6.95,55.8 -17.36,111.59 -31.24,167.39 -13.88,55.8 -31.24,108.11 -48.6,163.9 -6.95,27.9 -13.88,41.85 -17.36,55.79zm93.73 -278.98c20.83,-111.59 27.77,-223.19 65.95,-331.29 38.19,-104.63 107.62,-198.78 177.04,-285.96 72.91,-90.67 145.8,-181.33 225.65,-268.52 156.22,-174.37 322.85,-338.27 489.48,-502.18 41.66,-41.85 83.31,-80.2 128.44,-118.57 45.12,-38.36 93.72,-69.74 145.8,-101.13 100.67,-59.28 201.34,-108.11 298.54,-170.88 173.58,-104.62 340.2,-223.19 492.95,-355.71 17.36,-13.95 34.71,-27.9 52.07,-45.33 -34.71,38.36 -72.9,76.71 -111.08,115.08 -79.84,76.71 -163.16,146.46 -249.94,212.72 -90.27,66.26 -180.52,122.06 -277.72,174.37 -104.14,55.8 -211.75,108.11 -302.01,181.34 -90.26,73.24 -170.1,156.94 -249.95,244.12 -86.78,90.68 -173.57,181.34 -256.89,272.02 -86.78,90.67 -170.1,184.82 -253.41,278.98 -76.37,83.69 -152.75,170.87 -204.82,272 -52.07,104.63 -62.48,219.71 -93.72,331.3 -27.77,108.11 -72.91,216.21 -128.45,313.86 -3.47,3.48 -3.47,6.97 -6.94,10.45 24.29,-69.73 45.12,-146.46 59.01,-226.67zm2159.25 -2263.28l31.24 -20.93c-79.84,69.75 -138.86,160.42 -197.87,244.12 -72.91,104.63 -145.8,212.73 -215.23,317.35 -142.34,212.72 -281.19,428.95 -413.1,648.64 -62.48,104.62 -121.5,212.73 -194.4,313.86 -65.95,97.63 -145.79,181.33 -243,251.08 -90.26,66.26 -187.46,118.57 -281.19,174.37 -97.2,55.8 -194.4,115.08 -284.66,181.34 -156.21,115.08 -298.54,251.09 -420.04,397.55 48.6,-76.72 90.26,-160.41 118.03,-244.12 20.83,-52.31 34.71,-108.11 45.12,-163.9 13.89,-55.8 20.83,-115.08 41.67,-170.88 34.71,-108.11 107.61,-202.27 183.98,-289.45 79.84,-94.15 163.16,-188.31 249.95,-278.98 83.31,-90.67 170.1,-184.83 256.89,-275.5 79.84,-87.19 159.68,-174.37 249.94,-254.58 45.12,-38.36 90.26,-76.72 138.86,-108.11 48.6,-31.38 104.15,-59.28 156.22,-87.19 100.67,-52.31 197.87,-108.11 288.13,-170.88 90.26,-62.77 173.58,-129.02 253.42,-202.26 79.84,-73.24 152.74,-153.45 222.17,-237.14 -0.03,-6.95 6.92,-17.41 13.87,-24.39zm-2249.5 2399.29c13.88,-62.77 17.35,-125.55 17.35,-188.32 0,-132.52 -17.35,-275.5 48.6,-401.04 31.24,-59.28 76.37,-108.11 118.03,-160.42 48.6,-55.8 93.73,-111.58 142.34,-167.38l281.18 -334.78c86.79,-101.13 170.1,-205.76 263.83,-303.4 93.72,-97.64 197.87,-177.85 315.9,-247.6 121.5,-69.75 253.42,-122.06 378.38,-184.83 124.98,-62.77 243.01,-136.01 364.5,-205.75 100.67,-59.28 201.35,-125.55 298.55,-191.81l-3.48 3.49c-76.37,73.24 -152.74,139.49 -239.53,198.77 -90.26,59.28 -183.99,111.6 -281.19,160.42 -194.39,101.13 -392.27,191.81 -565.84,324.32 -100.67,76.72 -190.93,163.91 -274.25,254.58 -93.72,101.13 -183.98,202.27 -274.25,299.91 -90.26,101.13 -183.98,198.78 -274.24,303.4 -79.84,94.14 -163.16,195.28 -208.29,310.37 -83.32,212.72 -38.19,446.37 -118.03,659.11 -3.48,10.46 -10.41,24.41 -13.89,34.87 0,3.49 -3.47,3.49 -3.47,6.98 13.91,-52.32 13.91,-111.61 27.8,-170.89z"/>
   </g>
   <path class="fil0" d="M1775.23 0c-57.56,103.24 -108.89,207.35 -181.05,300.98 -41.66,55.8 -93.73,104.62 -152.75,146.46 -62.48,41.86 -131.91,76.72 -190.93,125.55 -107.62,97.65 -149.27,240.63 -211.76,366.17 -72.9,139.5 -166.62,265.04 -267.3,383.61 -52.07,59.28 -104.14,115.08 -159.68,170.88 -55.54,55.8 -107.62,115.08 -166.63,167.39 -66.43,59.32 -137.58,75.22 -222.17,90.66 -65.96,13.95 -128.44,34.88 -190.94,59.28 -10.65,5.36 -21.34,10.85 -32.02,16.47l0 26.74c56.3,-25.67 113.93,-45.71 167.42,-60.63 69.43,-20.93 145.8,-27.9 211.76,-59.28 3.47,-3.49 6.94,-3.49 13.88,-6.98 -25.23,18.1 -52.1,34.89 -79.84,48.82 -41.66,20.93 -86.79,38.36 -131.91,55.8 -45.13,13.95 -90.27,31.39 -131.92,59.29 -15.6,9.65 -30.79,19.71 -45.57,30.04l5.52 5.55c10.84,-7.46 21.87,-14.68 33.11,-21.63 83.32,-52.31 177.04,-76.72 267.31,-118.57 17.35,-6.98 34.71,-17.44 48.59,-24.42 -106.26,77.39 -220.66,144.57 -324.51,224.98l0.88 0 0 13.07c84.04,-63.24 174.55,-119.53 261.15,-178.76 20.83,-13.95 41.66,-27.89 59.01,-41.85l-48.61 48.83c-38.19,38.36 -76.37,73.24 -114.55,111.59 -53.19,48.78 -104.84,97.58 -157,146.36l0 2.32c89.03,-81.7 176.82,-164.01 264.62,-246.33l13.89 -13.95c-41.66,55.8 -83.32,111.59 -124.98,163.9 -43.25,54.31 -89.21,109.98 -136.17,164.48l0 13.28c82.41,-94.51 161.18,-192.12 236.84,-292.84 24.31,-31.38 48.6,-66.26 72.91,-97.64l24.3 -24.42c-13.88,20.93 -27.77,38.37 -38.19,59.28 -41.66,66.26 -79.84,136.01 -114.55,202.27 -52.11,94.73 -104.23,191.24 -163.95,283.17l0 27.85c14.32,-21.05 28.37,-42.24 42.43,-63.42 79.85,-132.52 149.28,-272.02 229.12,-404.53 20.83,-38.37 45.12,-76.72 69.43,-111.6 3.47,-6.97 10.41,-13.94 13.88,-20.92l10.41 -13.95c6.95,-10.46 13.89,-20.93 20.83,-27.89 34.72,-31.39 65.96,-66.26 97.2,-97.65 45.13,-45.33 90.26,-90.67 135.39,-139.5l83.31 -73.23c38.83,-35.46 79.2,-69.17 118.03,-104.63 79.84,-69.74 159.68,-139.49 243.01,-202.26 86.79,-62.77 180.51,-111.59 281.18,-149.96 130.59,-51.54 266.28,-88.01 399.22,-132.51 -138.86,90.67 -246.47,223.19 -319.37,366.16 -48.6,94.16 -83.32,191.81 -111.09,289.46 -27.77,97.64 -41.66,202.26 -86.79,296.42 -45.12,90.67 -124.97,153.44 -201.34,223.19 -76.37,69.75 -138.86,153.44 -197.87,233.65 -59.01,80.21 -118.03,167.39 -190.93,237.14 -34.72,34.87 -72.91,62.77 -118.03,80.21 -52.08,20.92 -107.62,27.89 -163.16,38.36l-10.42 0c-126.81,22.75 -240.49,81.09 -344.44,154.51l0 14.23c92.84,-66.92 187.36,-119.7 299.32,-147.82 10.41,-3.49 20.83,-3.49 31.24,-6.98 -122.63,93.61 -234.85,202.9 -330.56,322.93l0 18.16c62.06,-79.42 132.64,-155.65 209.05,-226.02 45.13,-41.85 86.79,-80.2 135.39,-118.56 38.19,-6.98 76.37,-10.46 118.03,-20.93 147.19,-31.67 239.23,-156.52 322.85,-272 62.48,-83.7 121.5,-170.88 194.39,-247.6 34.72,-38.36 72.91,-69.75 107.62,-104.62 38.19,-31.39 72.91,-66.26 104.15,-104.63 62.48,-80.2 83.31,-177.85 107.62,-272.01 24.3,-101.13 55.54,-202.27 97.2,-299.91 69.43,-184.82 187.46,-355.7 354.09,-463.8 3.47,-3.49 10.41,-6.98 13.88,-10.46 151.52,-53.74 283.59,-135.54 413.1,-230.17 159.68,-122.06 302.01,-261.55 451.29,-394.08 42.09,-36.12 84.62,-71.34 127.72,-105.68l-24.91 0c-15.89,13.04 -31.64,26.19 -47.26,39.44 -152.74,129.02 -295.07,272.01 -451.29,397.55 -79.85,62.77 -159.69,118.57 -246.47,170.88 -90.27,52.31 -187.46,94.15 -288.14,125.55 -100.67,34.87 -204.81,62.77 -302.01,101.13 -100.67,34.88 -194.4,80.21 -281.19,139.5 -86.79,55.8 -166.63,122.06 -243,191.81 -20.84,17.43 -41.67,38.36 -62.49,55.8 190.94,-191.81 378.39,-380.12 576.27,-564.95 27.76,-24.41 55.54,-52.31 86.78,-76.72 31.25,-24.41 62.49,-45.33 97.2,-66.25 62.49,-34.88 121.51,-73.24 177.04,-118.57 104.15,-90.68 180.52,-205.76 267.3,-310.38 28.47,-34.96 58.53,-69.58 90.79,-102.22l-21.3 0c-110.02,113.49 -197.63,251.86 -305.54,360.25 -48.6,52.32 -104.14,94.16 -166.62,132.52 -34.72,20.93 -69.44,38.37 -100.68,59.28 -31.24,20.93 -59.01,45.33 -86.78,69.75 -121.51,108.11 -232.59,219.7 -347.15,331.3 -86.78,83.69 -170.1,167.39 -249.94,254.57 62.48,-69.75 124.98,-142.98 183.99,-216.21 52.07,-59.28 100.67,-118.57 152.74,-177.85 48.6,-55.8 97.2,-115.08 145.8,-170.88 48.6,-52.31 107.62,-97.65 166.63,-142.99 55.54,-38.36 114.55,-76.72 166.63,-122.06 126.96,-108.64 215.43,-248.5 318.7,-377.68l-13.5 0c-91.4,114.83 -173.97,238.09 -280.91,339.32 -100.67,97.64 -229.11,160.41 -329.78,254.58 -55.55,52.31 -100.67,108.11 -149.27,167.39 -52.08,59.28 -100.68,118.57 -152.75,181.34 -27.77,31.38 -52.07,62.77 -79.84,94.15 38.19,-52.31 76.37,-108.11 114.56,-160.41 41.66,-62.77 76.36,-125.55 118.03,-188.32 20.83,-31.39 41.66,-62.77 69.43,-90.68 24.3,-24.41 52.07,-48.82 83.31,-69.74 59.01,-38.37 121.5,-73.24 173.58,-118.57 97.2,-73.21 166.62,-177.83 236.05,-278.97 32.12,-49.87 64.24,-99.74 98.42,-147.53l-16.82 0c-22.15,30.1 -43.8,60.91 -64.25,91.72 -69.43,104.63 -135.38,212.73 -229.11,299.91 -52.07,48.82 -111.08,83.7 -170.1,122.06 -59.01,38.37 -114.56,80.21 -159.68,136.01 -45.13,59.28 -79.84,122.06 -118.03,184.83 -38.19,62.77 -79.84,125.55 -124.98,184.83 -76.37,104.62 -159.68,205.75 -246.47,299.91 72.9,-83.7 138.86,-170.88 197.87,-265.04 38.19,-62.77 72.91,-129.03 104.15,-195.29 27.77,-62.77 55.54,-129.02 93.72,-188.31 41.66,-62.77 97.2,-111.6 166.63,-153.45 62.48,-38.36 124.98,-73.24 177.04,-125.55 97.2,-94.15 163.16,-212.72 225.65,-327.81 11.24,-21.33 22.93,-42.66 34.9,-63.82l-13.54 0z"/>
   <path class="fil0" d="M3095.3 34.87c-31.53,17.22 -64.02,32.88 -98.65,46.41 -59.01,24.42 -121.5,41.86 -183.99,66.26 -55.54,20.93 -111.08,48.82 -163.15,80.21 -59.01,34.87 -114.56,73.24 -163.16,118.57 -3.47,0 0,3.49 3.47,3.49 93.73,-76.72 197.88,-139.5 312.43,-188.32 62.49,-24.42 128.44,-45.33 190.94,-69.75 43.01,-15.25 82.33,-34.2 120.65,-56.87l-18.54 0z"/>
   <path class="fil0" d="M1152.93 17.44l-27.4 18.5c-79.84,55.8 -163.15,101.13 -253.41,136.01 -128.43,48.82 -267.3,83.69 -388.8,149.95 48.6,-31.38 100.67,-59.28 149.27,-87.18 124.98,-66.26 256.89,-118.57 378.39,-195.29 12.02,-6.99 23.92,-14.33 35.67,-21.99l-21.79 4.54c-59.01,38.37 -121.5,69.75 -187.46,101.14 -124.98,62.77 -256.89,118.57 -371.45,198.77 -10.41,6.98 -20.83,13.95 -27.76,20.93 149.08,-124.27 321.35,-219.44 482.38,-325.38l-21.27 0 -103.55 67.3c-114.56,73.24 -232.59,146.47 -340.21,230.17 -33.98,30.34 -68.38,58.24 -100.67,90.67 48.61,-83.68 121.5,-153.42 197.88,-223.17 82.56,-55.29 165.57,-110.04 248.37,-164.97l-33.14 11.53c-52.07,34.88 -100.67,69.75 -152.75,104.63l3.48 -3.49c-166.63,66.25 -329.79,132.51 -492.95,202.26l114.55 -167.39c27.78,-41.85 55.55,-87.2 86.79,-129.04l12.51 -18.5 -11.33 0c-3.74,5.13 -7.56,10.16 -11.59,15.01 -27.77,41.86 -59.01,87.19 -86.79,129.03 -38.18,59.28 -79.84,115.08 -118.03,174.37 -25.36,11.47 -51.19,22.93 -77.15,34.4l0 492.57c77.15,-39.79 143.22,-99.84 188.25,-171.26 52.07,-80.2 72.9,-174.37 118.03,-258.06 72.9,-69.75 166.63,-118.57 260.35,-153.45 86.79,-31.38 177.04,-59.28 263.83,-94.15 110.29,-39.89 210.52,-102.37 306.91,-168.46l-19.16 0z"/>
  </g>
 </g>
</svg>
