<?xml version="1.0" encoding="utf-8"?>
<!-- Generator: Adobe Illustrator 24.0.2, SVG Export Plug-In . SVG Version: 6.00 Build 0)  -->
<svg version="1.1"
	 id="Слой_1" image-rendering="optimizeQuality" shape-rendering="geometricPrecision" text-rendering="geometricPrecision" xmlns:xodm="http://www.corel.com/coreldraw/odm/2003"
	 xmlns="http://www.w3.org/2000/svg" xmlns:xlink="http://www.w3.org/1999/xlink" x="0px" y="0px" viewBox="0 0 238.1 150.2"
	 style="enable-background:new 0 0 238.1 150.2;" xml:space="preserve">
<style type="text/css">
	.st0{fill-rule:evenodd;clip-rule:evenodd;fill:#1A1A1A;}
</style>
<g id="Layer_x0020_1">
	<g>
		<path class="st0 fillable" d="M77.9,122.7c-0.4-0.2-2.3-2.2-2.8-2.7c-0.3-0.3-0.4-0.5-0.8-0.7c-1-0.6-0.1-0.7,0.5-1.3
			c0.7-0.7,0.9-1.1,1.9-2.1l4.1-4.1c0.5-0.5,0.9-0.9,1.4-1.4c1-1,1.5-1.7,2.6-2.8c0.3-0.3,0.5-0.4,0.7-0.7c0.6-0.7,1.2-1.1,1.2-1.6
			c0-0.6-2.5-2.6-3.3-3.5c-1.2-1.4-1-0.5-1.4-1.4c-0.5,0.6-0.4,0.3-0.9,0.8l-6.4,6.4c-0.4,0.5-0.6,0.3-1,0.7c-0.3,0.3-0.3,0.5-0.7,1
			l-7.2,7.2c-0.3,0.5-0.2,0.5-0.7,0.9c-1.3,1.3-2.1,1.7-1.2,2.7c1,1.2,4,3.6,4.8,4.9c0.3,0.5,1.1,1.2,1.5,1.6
			c1.1,1.1,2.1,2.1,3.2,3.2c0.4,0.5,0.4,0.4,0.9,0.7c0.3,0.2,0.6,0.5,0.8,0.7c0.4,0.4,1.3,1.2,1.6,1.6c0.7,1.1,0.6,0.8,1.5,1.8
			l4.8,4.8c0.8,0.8,1,0.9,1.6,1.7l3.2,3.2c1.3,1.3,2.4,3.3,3.5,2.2c0.3-0.3,0.4-0.5,0.8-0.9l3.9-3.9c-0.3-1.1-1-1.6-1.6-2.2
			l-5.7-5.7c-0.4-0.4-0.6-0.5-0.9-1c-0.4-0.6-1.3-1.3-1.8-1.9c-0.3-0.4-0.6-0.6-0.9-1c-4.7-4.6-3.9-3.5-2.7-5c1.5-2,1.2-1.4,3-3.2
			l3.2-3.2c1.5-1.2,1-1.6-0.3-2.9c-1.7-1.7-1.5-2.2-3.2-0.5c-1.3,1.3-0.9,1.3-2.7,3.1c-0.3,0.3-0.4,0.4-0.8,0.7l-2.1,2.2
			C79.1,121.8,78.6,122.5,77.9,122.7L77.9,122.7z M62.8,33.8c0.5-0.3,0.6-0.9,0.9-1.4c0.2-0.3,0.7-0.8,1-1.1
			c0.7-0.7,1.4-1.4,2.1-2.1c0.7-0.7,1.4-1.4,2.1-2.1c2.2-2.2,2.1-2.7,3.4-1.3c0.3,0.4,0.7,0.5,1,0.9c0.4,0.4,0.7,0.5,1.1,0.9
			c1.2,1.2,1,1.2-0.2,2.4c-1.7,1.7-1.2,1-1.8,1.6c-1.1,1-0.8,1.2-1.6,1.8c-1,0.8-5.5,5.5-6.8,6.8c-0.5,0.4-0.6,0.8-1,1.2
			c-0.5,0.6-0.6,0.7,0,1.3l2.3,2.3c1.3,1.6,1.8,2,2.8,1.2l0.4-0.3c0.8-0.8,1.2-1.4,1.6-1.8c0.8-0.8,1.5-1.5,2.3-2.3
			c0.6-0.6,0.7-0.2,1.2-1.1c0.3-0.5,2.8-2.9,3.3-3.4l4.5-4.6c0.5-0.7,0.5-0.7,1.1-1.3c4-4,3.9-3,1.6-5.4c-0.3-0.3-0.6-0.6-0.9-0.9
			c-0.6-0.6-0.4-0.6-0.7-1c-0.5-0.5-1.2-1.2-1.7-1.7c-1.4-1.4-4.9-4.7-5.9-6.1c-0.7-1-2.4-2.2-2.6-2.4l-5.2-5.2
			c-0.3-0.3-0.4-0.6-0.8-1c-1.2-1.2-3.3-3.1-4.2-4.3c-0.8-1.1-2.1-2.1-3.1-3l-0.4-0.4l-0.3,0.3c-0.4,0.4-0.3,0.2-0.8,0.8
			c-0.5,0.7-1.4,1.4-2,2c-2.6,2.6-2.9,2.3-0.7,4.4c0.2,0.2,0.4,0.4,0.5,0.5c0.2,0.3,0.2,0.4,0.4,0.6c0.2,0.3,0.7,0.6,1.1,0.9
			l7.8,8.1c3.8,3.8,3.8,3,1.6,5.2c-0.4,0.4-0.6,0.6-1,1c-0.4,0.4-0.5,0.7-0.8,1.1c-0.6,0.7-1.3,1.3-2,2c-1.6,1.6-2.9,2.4-2.3,3.3
			c0.1,0.2,0.8,0.8,1,1c1.3,1.3,0.8,0.7,1.6,2.1C62.7,33.7,62.7,33.8,62.8,33.8C62.7,33.7,62.7,33.8,62.8,33.8L62.8,33.8z M47,30.4
			c-0.4-0.2-2.3-2.2-2.8-2.7c-0.3-0.3-0.4-0.5-0.8-0.7c-1-0.6-0.1-0.7,0.5-1.3c0.7-0.7,0.9-1.1,1.9-2.1l4.1-4.1
			c0.5-0.5,0.9-0.9,1.4-1.4c1-1,1.5-1.7,2.6-2.8c0.3-0.3,0.5-0.4,0.7-0.7c0.6-0.7,1.2-1.1,1.2-1.6c0-0.6-2.5-2.6-3.3-3.5
			c-1.2-1.4-1-0.5-1.4-1.4c-0.5,0.6-0.4,0.3-0.9,0.8l-6.4,6.4c-0.4,0.5-0.6,0.3-1,0.7c-0.3,0.3-0.3,0.5-0.7,1l-7.2,7.2
			c-0.3,0.5-0.2,0.5-0.7,0.9c-1.3,1.3-2.1,1.7-1.2,2.7c1,1.2,4,3.6,4.8,4.9c0.3,0.5,1.1,1.2,1.5,1.6c1.1,1.1,2.1,2.1,3.2,3.2
			c0.4,0.5,0.4,0.4,0.9,0.7c0.3,0.2,0.6,0.5,0.8,0.7c0.4,0.4,1.3,1.2,1.6,1.6c0.7,1.1,0.6,0.8,1.5,1.8l4.8,4.8
			c0.8,0.8,1,0.9,1.6,1.7l3.2,3.2c1.3,1.3,2.4,3.3,3.5,2.2c0.3-0.3,0.4-0.5,0.8-0.9l3.9-3.9c-0.3-1.1-1-1.6-1.6-2.2l-5.7-5.7
			c-0.4-0.4-0.6-0.5-0.9-1c-0.4-0.6-1.3-1.3-1.8-1.9c-0.3-0.4-0.6-0.6-0.9-1c-4.7-4.6-3.9-3.5-2.7-5c1.5-2,1.2-1.4,3-3.2l3.2-3.2
			c1.5-1.2,1-1.6-0.3-2.9c-1.7-1.7-1.5-2.2-3.2-0.5c-1.3,1.3-0.9,1.3-2.7,3.1c-0.3,0.3-0.4,0.4-0.8,0.7l-2.1,2.2
			C48.1,29.6,47.6,30.2,47,30.4z M33.1,65.8c0.5-0.3,0.6-0.9,0.9-1.4c0.2-0.3,0.7-0.8,1-1.1c0.7-0.7,1.4-1.4,2.1-2.1
			c0.7-0.7,1.4-1.4,2.1-2.1c2.2-2.2,2.1-2.7,3.4-1.3c0.3,0.4,0.7,0.5,1,0.9c0.4,0.4,0.7,0.6,1.1,0.9c1.2,1.2,1,1.2-0.2,2.4
			c-1.7,1.7-1.2,1-1.8,1.6c-1.1,1-0.8,1.2-1.6,1.8c-1,0.8-5.5,5.5-6.8,6.8c-0.5,0.4-0.6,0.8-1,1.2c-0.5,0.6-0.6,0.7,0,1.3l2.3,2.3
			c1.3,1.6,1.8,2,2.8,1.2l0.4-0.3c0.8-0.8,1.2-1.4,1.6-1.8c0.8-0.8,1.5-1.5,2.3-2.3c0.6-0.6,0.7-0.2,1.2-1.1
			c0.3-0.5,2.8-2.9,3.3-3.4l4.5-4.6c0.5-0.7,0.5-0.7,1.1-1.3c4-4,3.9-3,1.6-5.4c-0.3-0.3-0.6-0.6-0.9-0.9c-0.6-0.6-0.4-0.6-0.7-1
			c-0.5-0.5-1.2-1.2-1.7-1.7c-1.4-1.4-4.9-4.7-5.9-6.1c-0.7-1-2.4-2.2-2.6-2.4l-5.2-5.2c-0.3-0.3-0.4-0.6-0.8-1
			c-1.2-1.2-3.3-3.1-4.2-4.3c-0.8-1.1-2.1-2.1-3.1-3l-0.4-0.4l-0.3,0.3c-0.4,0.4-0.3,0.2-0.8,0.8c-0.5,0.7-1.4,1.4-2,2
			c-2.6,2.6-2.9,2.3-0.7,4.4c0.2,0.2,0.4,0.4,0.5,0.5c0.2,0.3,0.2,0.4,0.4,0.6c0.2,0.3,0.7,0.6,1.1,0.9l7.8,8.1
			c3.8,3.8,3.8,3,1.6,5.2c-0.4,0.4-0.6,0.6-1,1s-0.5,0.7-0.8,1.1c-0.6,0.7-1.3,1.3-2,2c-1.6,1.5-2.9,2.4-2.3,3.3
			c0.1,0.2,0.8,0.8,1,1c1.3,1.3,0.8,0.7,1.6,2.1C33,65.7,33.1,65.7,33.1,65.8C33.1,65.7,33.1,65.8,33.1,65.8z M17.2,62.5
			c-0.4-0.2-2.3-2.2-2.8-2.7c-0.3-0.3-0.4-0.5-0.8-0.7c-1-0.6-0.1-0.7,0.5-1.3c0.7-0.7,0.9-1.1,1.9-2.1l4.1-4.1
			c0.5-0.5,0.9-0.9,1.4-1.4c1-1,1.5-1.7,2.6-2.8c0.3-0.3,0.5-0.4,0.7-0.7c0.6-0.7,1.2-1.1,1.2-1.6c0-0.6-2.5-2.6-3.3-3.5
			c-1.2-1.4-1-0.5-1.4-1.4c-0.5,0.6-0.4,0.3-0.9,0.8l-6.4,6.4c-0.4,0.5-0.6,0.3-1,0.7c-0.3,0.3-0.3,0.5-0.7,1l-7.2,7.2
			c-0.3,0.5-0.2,0.5-0.7,0.9c-1.3,1.3-2.1,1.7-1.2,2.7c1,1.2,4,3.6,4.8,4.9c0.3,0.5,1.1,1.2,1.5,1.6c1.1,1.1,2.1,2.1,3.2,3.2
			c0.4,0.5,0.4,0.4,0.9,0.7c0.3,0.2,0.6,0.5,0.8,0.7c0.4,0.4,1.3,1.2,1.6,1.6c0.7,1.1,0.6,0.8,1.5,1.8l4.8,4.8
			c0.8,0.8,1,0.9,1.6,1.7l3.2,3.2c1.3,1.3,2.4,3.3,3.5,2.2c0.3-0.3,0.4-0.5,0.8-0.9l3.9-3.9c-0.3-1.1-1-1.6-1.6-2.2L28,73.5
			c-0.4-0.4-0.6-0.5-0.9-1c-0.4-0.6-1.3-1.3-1.8-1.9c-0.3-0.4-0.6-0.6-0.9-1c-4.7-4.6-3.9-3.5-2.7-5c1.5-2,1.2-1.4,3-3.2l3.2-3.2
			c1.5-1.2,1-1.6-0.3-2.9c-1.7-1.7-1.5-2.2-3.2-0.5c-1.3,1.3-0.9,1.3-2.7,3.1c-0.3,0.3-0.4,0.4-0.8,0.7l-2.1,2.2
			C18.4,61.6,17.9,62.3,17.2,62.5z M63.4,96.2c0.5-0.3,0.6-0.9,0.9-1.4c0.2-0.3,0.7-0.8,1-1.1c0.7-0.7,1.4-1.4,2.1-2.1
			c0.7-0.7,1.4-1.4,2.1-2.1c2.2-2.2,2.1-2.7,3.4-1.3c0.3,0.4,0.7,0.5,1,0.9c0.4,0.4,0.7,0.6,1.1,0.9c1.2,1.2,1,1.2-0.2,2.4
			c-1.7,1.7-1.2,1-1.8,1.6c-1.1,1-0.8,1.2-1.6,1.8c-1,0.8-5.5,5.5-6.8,6.8c-0.5,0.4-0.6,0.8-1,1.2c-0.5,0.6-0.6,0.7,0,1.3l2.3,2.3
			c1.3,1.6,1.8,2,2.8,1.2l0.4-0.3c0.8-0.8,1.2-1.4,1.6-1.8c0.8-0.8,1.5-1.5,2.3-2.3c0.6-0.6,0.7-0.2,1.2-1.1
			c0.3-0.5,2.8-2.9,3.3-3.4l4.5-4.6c0.5-0.7,0.5-0.7,1.1-1.3c4-4,3.9-3,1.6-5.4c-0.3-0.3-0.6-0.6-0.9-0.9c-0.6-0.6-0.4-0.6-0.7-1
			c-0.5-0.5-1.2-1.2-1.7-1.7c-1.4-1.4-4.9-4.7-5.9-6.1c-0.7-1-2.4-2.2-2.6-2.4l-5.2-5.2c-0.3-0.3-0.4-0.6-0.8-1
			c-1.2-1.2-3.3-3.1-4.2-4.3c-0.8-1.1-2.1-2.1-3.1-3l-0.3-0.2L59,63.1c-0.4,0.4-0.3,0.2-0.8,0.8c-0.5,0.7-1.4,1.4-2,2
			c-2.6,2.6-2.9,2.3-0.7,4.4c0.2,0.2,0.4,0.4,0.5,0.5c0.2,0.3,0.2,0.4,0.4,0.6c0.2,0.3,0.7,0.6,1.1,0.9l7.8,8.1
			c3.8,3.8,3.8,3,1.6,5.2c-0.4,0.4-0.6,0.6-1,1c-0.4,0.4-0.5,0.7-0.8,1.1c-0.6,0.7-1.3,1.3-2,2c-1.6,1.6-2.9,2.4-2.3,3.3
			c0.1,0.2,0.8,0.8,1,1c1.3,1.3,0.8,0.7,1.6,2.1C63.3,96,63.4,96.1,63.4,96.2C63.4,96.1,63.4,96.1,63.4,96.2L63.4,96.2z M47.6,92.7
			c-0.4-0.2-2.3-2.2-2.8-2.7c-0.3-0.3-0.4-0.5-0.8-0.7c-1-0.6-0.1-0.7,0.5-1.3c0.7-0.7,0.9-1.1,1.9-2.1l4.1-4.1
			c0.5-0.5,0.9-0.9,1.4-1.4c1-1,1.5-1.7,2.6-2.8c0.3-0.3,0.5-0.4,0.7-0.7c0.6-0.7,1.2-1.1,1.2-1.6c0-0.6-2.5-2.6-3.3-3.5
			c-1.2-1.4-1-0.5-1.4-1.4c-0.5,0.6-0.4,0.3-0.9,0.8l-6.4,6.6c-0.4,0.5-0.6,0.3-1,0.7c-0.3,0.3-0.3,0.5-0.7,1l-7.2,7.2
			c-0.3,0.5-0.2,0.5-0.7,0.9c-1.3,1.3-2.1,1.7-1.2,2.7c1,1.2,4,3.6,4.8,4.9c0.3,0.5,1.1,1.2,1.5,1.6c1.1,1.1,2.1,2.1,3.2,3.2
			c0.4,0.5,0.4,0.4,0.9,0.7c0.3,0.2,0.6,0.5,0.8,0.7c0.4,0.4,1.3,1.2,1.6,1.6c0.7,1.1,0.6,0.8,1.5,1.8l4.8,4.8
			c0.8,0.8,1,0.9,1.6,1.7l3.2,3.2c1.3,1.3,2.4,3.3,3.5,2.2c0.3-0.3,0.4-0.5,0.8-0.9l3.9-3.9c-0.3-1.1-1-1.6-1.6-2.2l-5.7-5.7
			c-0.4-0.4-0.6-0.5-0.9-1c-0.4-0.6-1.3-1.3-1.8-1.9c-0.3-0.4-0.6-0.6-0.9-1c-4.7-4.6-3.9-3.5-2.7-5c1.5-2,1.2-1.4,3-3.2l3.2-3.2
			c1.5-1.2,1-1.6-0.3-2.9c-1.7-1.7-1.5-2.2-3.2-0.5c-1.3,1.3-0.9,1.3-2.7,3.1c-0.3,0.3-0.4,0.4-0.8,0.7l-2.1,2.2
			C48.8,91.9,48.3,92.5,47.6,92.7z M215.8,0.4h-2.6c0.1,0.4,0.9,1.2,1.3,1.4C215.4,2,215.9,1.2,215.8,0.4z M155.3,0.4h-2.6
			c0.1,0.4,0.9,1.2,1.3,1.4C154.9,2.1,155.4,1.2,155.3,0.4z M94.8,0.4h-2.6c0.1,0.4,0.9,1.2,1.3,1.4C94.5,2,94.9,1.2,94.8,0.4z
			 M34.4,0.4h-2.6c0.1,0.4,0.9,1.2,1.3,1.4c0.5,0.1,0.8,0,1-0.3C34.5,1.1,34.5,0.9,34.4,0.4z M237.2,127.5
			C237.2,127.5,237.1,127.5,237.2,127.5c-1.1-0.1-1.8,1.4-1.8,1.7c0,0.5,1.5,1.7,1.8,1.8V127.5z M237.2,69.4v-3.8
			c-0.8-0.1-1.9,1.2-1.8,1.8c0.1,0.3,0.6,0.7,0.9,1C236.7,68.9,236.5,69.1,237.2,69.4z M235.9,4.6c0,0.8-1,1-0.1,1.7
			c0.6,0.5,0.9,0.9,1.5,1.3v-4l-1.1,0.6c0,0,0,0-0.1,0.1C236,4.4,235.9,4.6,235.9,4.6z M233.2,149.8h4c0-0.3,0-0.3,0.1-0.5l0.1-0.3
			c0-0.2-0.1,0-0.1-1c0-0.8,0-1.6,0-2.4c-0.8,0.3-1.5,1.1-2.2,1.9l-1.4,1.3c-0.2,0.3-0.1,0.3-0.2,0.6L233.2,149.8L233.2,149.8z
			 M0.6,53.5C1,53.3,1,53.2,1.3,53c0.3-0.4,0.2-0.4,0.5-0.7c0.7-0.9,3.3-2.9,3.1-3.5c-0.1-0.4-3.1-3.1-3.6-3.7
			c-0.3-0.4-0.2-0.5-0.6-0.6C0.7,45.6,0.7,52.7,0.6,53.5z M112.3,149.8h6.4c0.5-1.6,1.2-1.3-0.2-2.7c-0.4-0.4-1.6-1.5-1.9-2
			c-0.9,0.2-1.9,1.5-2.5,2.1C113.2,148.2,112.2,148.9,112.3,149.8z M51.9,149.8h6.4c0.4-1.5,1.2-1.3-0.2-2.7c-0.5-0.5-1.4-1.6-2.1-2
			c-1,0.6-1.5,1.3-2.3,2.1C52.8,148.2,51.8,148.9,51.9,149.8z M172.8,149.8h6.4c0.4-1.5,1.2-1.3-0.2-2.7c-0.5-0.5-1.4-1.6-2.1-2
			c-1,0.6-1.6,1.4-2.4,2.1C173.6,148.3,172.7,148.9,172.8,149.8z M234.9,133.6c-0.2-0.5-0.2-0.7-0.7-0.9c-0.1-0.4-1-1.2-1.3-1.2
			c-0.4,0.2-1.1,0.9-1.4,1.3c-0.2,0.2-0.4,0.6-0.6,0.8l-5.3,5.4c-0.3,0.3-0.2,0.4-0.6,0.7c-1,0.8-1.5,1.7-1.9,2.1
			c-0.2,0.2-0.4,0.4-0.7,0.6l-5.7,5.4c-1.2,1.1-1.3,1.1-1.5,2.2h9.7c0.1-0.3,0.1-0.2,0.2-0.6c0.6-0.4,1.4-1.3,1.8-1.8l5.6-5.7
			c0.2-0.2,0.7-1,1.8-2c1.1-1.1,1-0.9,2.4-2.3c0.5-0.5,0.5-1.6-0.1-2.1C236.5,135,235.2,133.7,234.9,133.6L234.9,133.6z M0.6,115.1
			c0.6-0.3,1.9-1.7,2.4-2.2c0.4-0.4,2-1.8,2-2.3c-0.1-0.6-0.8-0.9-1.1-1.2c-0.3-0.2-0.3-0.4-0.5-0.6c-0.3-0.4-2.2-2.3-2.8-2.6V115.1
			z M124.4,119.1c-0.2,0-0.1-0.3-0.3,0.3c-0.1,0.2-0.1,0.2,0,0.4l4.3,4.4c1.3,1.1,0.5,0.7,1.1,1.3l3.7,3.7c0.5,0.2,1.9,1.8,2.3,2.2
			c0.4,0.4,0.7,0.7,1.1,1.1c1,0.9,0.5,0.7,1,1.2c1.3,1.5,7,6.6,7.5,7.4c0.2,0.4,0.2,0.4,0.4,0.6c0.4,0.4,0.7,0.7,1.1,1.1l1.7,1.7
			c0.7,0.8,1.8,2.1,2.8,2.7l3.9-3.8c0.4-0.5,1-0.9,1.2-1.3c0.4-1-1.5-2.5-1.9-2.9c-0.9-0.9-1.7-1.7-2.5-2.5
			c-0.9-0.9-1.7-1.7-2.5-2.5c-1.3-1.2-0.7-0.9-1.2-1.4l-3.8-3.8c-2.4-2.4-2.9-2.3-1.8-3.5c0.4-0.3,0.2-0.3,0.5-0.7
			c0.2-0.3,0.9-0.9,1.2-1.2l3.7-3.7c0.7-0.6,1.6-1.2,1.8-1.9c0.4-1.2-1-2-1.3-2.2c-1.1-0.9-1.2-2.1-2.8-0.6
			c-0.5,0.5-0.7,0.8-1.1,1.3c-0.3,0.3-0.3,0.4-0.5,0.8l-4.3,4.3c-1.6,1.6-1,1.6-4.3-1.7c-0.7-0.7-1.4-0.8-0.2-1.9
			c0.3-0.3,0.7-0.4,0.9-0.8c1.3-2,1.1-1.4,2.3-2.6c0.3-0.3,0.5-0.5,0.8-0.8c0.4-0.6,1.1-1.1,1.6-1.5c0.7-0.6,1-1.1,1.6-1.7
			c0.4-0.4,0.7-0.5,0.9-0.7c0.4-0.3,0.4-0.6,0.6-1c0.7-0.9,3.2-2.6,3.1-3.4c-0.1-0.4-3.7-3.8-4.4-4.5c-0.3-0.3,0.2,0-0.3-0.3
			c-0.6,0.2,0-0.1-0.5,0.5l-7.6,7.5c-0.4,0.5-0.4,0.8-1,1.2c-0.8,0.5-6.5,6.2-7,6.8c-0.2,0.3-0.2,0.4-0.5,0.7
			C125.6,117.9,124.7,118.5,124.4,119.1L124.4,119.1z M175.2,66.6c-1,0.9,0.4,1.5,0.8,2.2c0.7,1.2,4.5,4.2,6.2,6.3
			c1.1,1.3,0.8,0.5,1.8,1.9l1.4,1.5c0.9,0.8,3,3.4,3.9,3.9c-0.2,1.1-0.5,1-1.1,1.5c-0.9,0.8-0.7,0.9-1.1,1.4l-4.5,4.4
			c-1.4,1.2-1.7,1.8-0.5,2.9c1,1,1.8,2.6,2.8,1.8c1.6-1.2,0.9-1.2,1.8-2l3.8-3.8c1.4-1.4,1.3-1.8,2.6-2.4c0.4,0.2,1.6,1.5,2,1.9
			c2.1,2.1,2.7,1.4,0.3,3.8c-1.1,1.1-0.9,1.2-1.5,1.8c-0.3,0.3-0.5,0.6-0.8,0.8c-0.5,0.4-0.5,0.2-1,0.7c-0.5,0.6-1,1-1.6,1.6
			s-1.1,1.1-1.6,1.7c-0.6,0.7-1,1-1.6,1.6c-1,1-0.4,0.7-1.5,1.8c-2.4,2.4-1.7,1.4,1.9,5.4c1.6,1.7,1.4,1.3,3.8-1.2
			c0.2-0.2,0.4-0.4,0.6-0.6c0.4-0.5,0.1-0.3,0.6-0.6c0.7-0.4,2.8-2.7,3.5-3.4c0.4-0.4,0.1-0.3,1.1-1.3c1.8-1.8,4.8-4.7,6.3-6.4
			c0.2-0.3,0.4-0.3,0.6-0.6c0.4-0.5,3.2-3.4,3.2-3.6c-0.3-1.1-3.1-3.3-3.9-4.3c-0.2-0.3-0.2-0.4-0.4-0.6l-7.5-7.5
			c-0.3-0.3-0.6-0.8-0.9-1.1c-0.3-0.4-0.6-0.6-1-1l-3.3-2.8c-0.5-0.4-0.5-0.5-0.9-1.1c-0.7-0.8-1.1-0.6-2-2
			c-1.3-1.9-2.1-2.5-3.8-4.2c-0.7-0.7-1.3-1.3-2.1-2.1c-0.9-0.9-1.2-1.5-2.2-0.3L175.2,66.6L175.2,66.6z M143.4,4.8
			c-0.2-0.7-1-1.5-1.3-1.9c0.1-0.5,0.3-0.7,0.7-1c0.1-0.1,0.3-0.3,0.4-0.4c0.4-0.4,0.2,0,0.3-0.5c0.2-0.2,0.1,0,0.1-0.5h-15.1
			c0.2,0.6,2.1,2.3,2.6,2.8c1.2,1.2,0.5,0.5,1.2,1.5c0.5,0.6,0.9,0.8,1.5,1.3l4.2,4.2c0.5,0.5,1,0.9,1.4,1.4
			c0.3,0.3,0.4,0.4,0.6,0.7c0.3,0.3,0.3,0.5,0.6,0.8l4.3,4.1c0.4,0.3,3.1,3,3.4,3.5c0.2,0.4,1.8,1.9,2.2,2.1
			c0.3,0.5,0.4,0.5,0.7,0.9c0.8-0.2,2.1-1.8,2.5-2.2c0.8-0.8,0.2-0.7,2.2-2.5c1.1-1,0-1.6-1-2.6c-0.8-0.8-1.5-1.5-2.4-2.4
			c-1.7-1.7-0.9-1.1-1.6-1.8l-3.9-4.2c-0.4-0.4-0.8-0.6-1.3-1.1C145.2,6.6,143.7,5,143.4,4.8L143.4,4.8z M66.7,61.3
			c1.5,1.7,1.7,1.7,3,3c0.5,0.5,1.6,1.9,2.2,2.3c0.3,0.3,0.5,0.4,0.8,0.7c0.6,0.8,1.5,1.6,2.2,2.3l6.8,6.8c0.4,0.4,0.2,0.5,1.3,1.6
			c0.5,0.5,1,1,1.5,1.5l5.3,5.2c0.3,0.4,0.2,0.5,0.6,0.9c0.6,0.2,0.8-0.1,1.1-0.6c0.2-0.4,3.7-3.6,4.2-4.3c1-1.2-1.2-1.9-2.6-4
			c-0.3-0.4-6.3-6.2-7.7-7.8c-0.2-0.2,0,0-0.2-0.2C85,68,82,65.7,81.6,65.1c-0.4-0.8,1.1-1.5,2.2-2.9c0.4-0.4,0.7-0.5,0.9-0.9
			c0.5-0.9,0.1-0.2,0.8-1c1.1-1.2,1.6-1.6,2.8-2.8c1.3-1.3,0.9-2.5-0.6-3.4c-0.8-0.5-0.3-0.4-0.9-1c-1,0-0.9,0.2-1.3,0.8l-3.6,3.2
			c-0.8,0.8-1.5,1.5-2.3,2.3c-0.3,0.3-0.9,0.9-1.1,1.1c-0.2,0.3-0.4,1.2-1,0.3v-0.1l-0.1-0.1c-0.2-0.4-0.1-0.2-0.4-0.5
			c-0.2-0.2-0.3-0.3-0.5-0.5c-1-1-1-1.1-2.2-2.1c-0.8-0.7-0.2-0.7,0-0.9l2.9-2.8c2.5-3,5.6-5.5,8-8.3c2.1-2.3,1.9-1.6-2.1-5.5
			c-1.6-1.6-0.8-1.9-5.5,2.8c-0.4,0.4-0.6,0.6-1,1c-0.5,0.5-0.4,0.7-0.9,1.1c-0.4,0.4-0.6,0.6-1,1c-0.9,1-0.6,0.4-1.1,0.9
			c-0.6,0.5-1.3,1.3-1.9,1.9l-3.5,3.5c-0.5,0.8-1.7,2.1-2.5,2.6c-0.4,0.8-0.3,4.2-0.2,5.4C66.4,60.6,66.3,60.7,66.7,61.3L66.7,61.3z
			 M192.7,66.1c0.4,0.4,0.8,0.8,1.2,1.2c1.8,1.8,1.1,1.2,1.7,2c0.2,0.2,0.4,0.4,0.6,0.6l6.7,6.6c0.8,1,0.2,0.4,1.7,2
			c0.8,0.8,1.6,1.6,2.4,2.4l3.6,3.6c0.5,0.6,0.3,1.1,1.4,1c0.1-0.1,0.2-0.2,0.3-0.2h0.1v-0.1c0.1-0.1,0.1-0.2,0.3-0.5l2.1-2.1
			c0.3-0.3,2.3-2.1,2.3-2.5c0-0.3-0.1-0.3-0.2-0.4c-0.1-0.7-1.9-1.8-2.5-2.9s-6.7-6.6-7.5-7.7c-0.3-0.4-0.2-0.5-0.6-0.8
			c-0.2-0.2-0.4-0.4-0.5-0.5l0,0h-0.1c-0.1-0.1-0.2-0.2-0.3-0.3c-0.3-0.3-0.6-0.6-0.9-0.9c-2.4-2.4-2.5-1.5,1-4.9
			c0.5-0.5,0.8-1,1.3-1.5l3.5-3.6c0.2-0.3,0.4-0.6,0.2-1c-0.2-0.7-1-1-1.4-1.4l-1.3-1.6v-0.1l-7.9,8.1c-0.4,0.4-0.1,0.4-0.4,0.7
			c-0.8-0.1-0.1-0.1-1.1-1c-0.4-0.4-2.9-2.9-2.9-3.1c0-0.3,2.7-2.7,3.3-3.5c0.6-0.7,0.7-0.5,1-1.4c0.2,0,0.1,0,0.3-0.1l0.8-0.8
			c0.4-0.4,0.7-0.7,1.1-1.1c0.9-0.9,6.2-5.9,6-6.8c-0.3-0.6-0.5-0.5-0.9-1l-2.9-3c-1-1.1-1.7,0-2.3,0.6l-4,3.9
			c-0.4,0.4-0.4,0.6-0.9,1.1l-2.9,2.9c-1,1-0.5,0.7-1.6,1.4l-2.5,2.4c-0.4,0.4-0.4,0.6-0.8,1.1l-3,2.9c-1.9,1.9-2,1.6,0.8,4.3
			c0.5,0.5,0.5,0.7,0.9,1.1l4.4,4.4C192.3,65.9,192.4,65.9,192.7,66.1L192.7,66.1z M52.7,0.4h-10c-0.2,1.1-2.8,2.9-3.5,4
			c-0.3,0.5-3.1,3.2-3.7,3.8c-3.3,3.4-2.9,1.9-0.8,4.7c0.1,0.1,0.2,0.2,0.3,0.3l1.6,1.6c1.2,1.2,1,1.4,2.1,0.4
			c0.4-0.4,0.3-0.2,0.6-0.7c0.4-0.5,0.7-0.8,1.2-1.3c0.5-0.5,0.6-0.9,1.1-1.4l2.6-2.4c0.5-0.5,0.9-0.6,1.4-1.1
			c0.6-0.6,3.4-3.3,3.7-3.8C49.9,3.3,52.6,1.1,52.7,0.4z M113.1,0.4h-10c-0.2,1.1-2.8,2.8-3.5,4c-0.3,0.5-0.8,0.9-1.2,1.3
			c-0.6,0.6-4.9,4.7-4.9,5.1c0,0.4,1,1.2,1.6,2.1l1.8,1.9c0.5,0.4,0.9,1.1,1.5,0.9c0.4-0.1,1-0.8,1.3-1.2c0.4-0.5,0.7-0.8,1.2-1.3
			c0.5-0.5,0.6-0.9,1.1-1.4c1.2-1.2,0.7-0.9,2-1.8l5.6-5.7c0.4-0.7,0.7-0.9,1.2-1.4c0.4-0.4,0.8-0.8,1.2-1.3
			C112.4,1.4,113.1,0.9,113.1,0.4z M173.6,0.4h-9.8c-0.2,0.8-0.6,1-1.2,1.4c-0.4,0.3-0.9,0.9-1.3,1.2c-0.4,0.5-0.9,0.8-1.2,1.3
			c-0.5,0.9-3.8,3.9-4.9,5.1c-2,2-1.4,1.2,0.4,3.6c0.1,0.1,0.2,0.2,0.3,0.3l1.6,1.6c0.5,0.4,0.9,1.1,1.5,0.9c0.4-0.1,1-0.8,1.3-1.2
			c0.4-0.5,0.7-0.8,1.2-1.3c0.5-0.5,0.6-1,1.1-1.4c0.8-0.6,0.2,0.1,1.4-1.2c0.7-0.7,5.9-5.7,6.2-6.3C170.8,3.3,173.5,1.1,173.6,0.4z
			 M233,1.9c0.3-0.2,0.1,0,0.3-0.2l0.5-0.5c0.4-0.4,0.3-0.2,0.3-0.7h-9.9c-0.2,1.3-3.1,2.9-3.6,3.8c-0.4,0.7-3.4,3.6-4.3,4.4
			c-2.8,2.8-2.3,1.6,0.3,4.8c0.5,0.6,1.9,2.1,2.5,2.4c0.7-0.3,0.4-0.3,1-0.7c0.6-0.4,0.4-0.5,0.8-0.9c0.3-0.3,0.6-0.6,0.9-0.8
			c0.7-0.4,0.5-0.2,0.9-0.9l3.4-3.5c1.2-1.2,2.3-2.3,3.5-3.5C230.6,4.5,232.1,2.4,233,1.9L233,1.9z M154.8,149.8h9.8
			c0.2-0.9,1.4-1.8,2-2.4l4.5-4.5c0.4-0.4,0.7-0.7,1.1-1.1c0.4-0.4,0.6-0.8,1-1.2c0.7-0.7,1.5-1.6,2.2-2.2c2.5-2.2,1.7-2.1,0.2-3.7
			c-0.4-0.4-0.8-0.7-1.1-1.1c-0.4-0.4-1.5-2.3-2.3-2c-0.5,0.2-1.3,1.3-1.7,1.8l-2.7,2.8c-1.5,1.5-2.9,3.1-4.5,4.5
			c-0.7,0.7-0.1-0.1-0.9,0.9l-4.7,4.7c-0.4,0.4-0.8,0.7-1.2,1.1C155.8,148.2,154.8,148.9,154.8,149.8L154.8,149.8z M94.3,149.8h9.8
			c0.2-0.9,1.4-1.8,2-2.4l4.5-4.5c1.7-1.7,2.4-2.9,4.3-4.5c2.7-2.3,1.6-2.4,0.4-3.6l-1.1-1.1c-0.3-0.3-0.3-0.4-0.5-0.7
			c-0.2-0.2-0.3-0.4-0.5-0.5c-1.2-1.3-1.1-1.2-2.4,0c-0.5,0.4-0.6,0.8-1,1.2c-0.8,0.8-1.5,1.5-2.2,2.2c-0.8,0.8-1.5,1.5-2.2,2.2
			c-1.5,1.5-0.5,0.6-1.8,1.5l-1.1,1.1c-0.7,0.9,0.1,0.1-1.5,1.8c-1,1-6,6.1-6.7,6.5L94.3,149.8L94.3,149.8z M33.9,149.8h9.6
			c0.2-0.7,0.5-1,1-1.4c1.7-1.2,5.1-4.9,6.8-6.6c0.5-0.4,0.6-0.8,1-1.2c0.7-0.7,1.5-1.5,2.2-2.2c0.4-0.4,2.2-1.6,1.5-2.6l-2.3-2.2
			c-0.2-0.2-1.5-2.3-2.3-2.1c-0.5,0.1-1.4,1.3-1.7,1.8l-2.7,2.8c-1.1,1.1-1.2,1.3-2.3,2.1c-1.2,0.8-2.8,3-3.3,3.5l-6.7,6.7
			C34.3,148.8,33.9,149,33.9,149.8z M205.9,68.3c-0.1,0.2,0.2,0.1-0.3,0.2c-0.3-0.7,0.2,0.5-0.1-0.2c-0.1-0.3-0.1,0-0.1-0.5
			L205.9,68.3L205.9,68.3z M203.8,0.4h-15c0.3,0.9,3.8,3.8,3.8,3.9l1.7,1.8c1,1,1.8,1.9,2.8,2.8c0.8,0.7,1.7,1.8,2.8,3
			c0.6,0.6,0.8,1,1.3,1.5c1.1,1,6.7,6.6,7,7.1c0.4,0.6,2.3,2.5,2.8,3c0.8,0.6,1.2-0.2,1.6-0.6c0.2-0.3,0.5-0.4,0.7-0.7
			c1.4-1.4,1.2-1.5,2-2.2l1.4-1.5c0.4-0.8-1.4-2.1-2.3-3.1c-0.8-0.8-2.2-2-2.8-3l-7-7.1c-1.5-1.3-0.5-0.8-1.3-1.5
			C201.1,1.7,204,2.5,203.8,0.4L203.8,0.4z M82.9,0.4h-15c0.3,0.8,2.8,2.9,3.4,3.6c0.2,0.3,0.3,0.5,0.6,0.8l2.1,2.1
			c0.3,0.3,0.5,0.3,0.8,0.6c0.5,0.5,0.9,0.9,1.4,1.4c0.8,0.7,1.7,1.8,2.8,3c0.6,0.6,0.8,1,1.3,1.5c1.1,1,6.7,6.6,7,7.1
			c0.4,0.6,2.3,2.5,2.8,3c0.7,0.6,1.2-0.2,1.6-0.6c0.5-0.6,1.7-1.4,2.1-2.2l1.3-1.5c1.3-1.3,1.2-1-1.6-3.8c-0.8-0.8-2.2-2-2.8-3
			l-7.1-7.2c-0.3-0.3-0.5-0.3-0.7-0.7c-0.3-0.5-0.2-0.4-0.6-0.8C80.1,1.7,83.2,2.5,82.9,0.4z M7.5,0.6c0.4,0.6,3.2,3.1,3.5,3.6
			c0.8,1.2,2.4,2.6,3.5,3.7c0.9,1,0.8,0.4,2.2,2.1c0.2,0.3,0.5,0.5,0.7,0.7c0.5,0.5,1.1,1,1.5,1.5c0.6,0.7-0.2,0,1.3,1.5l6.4,6.4
			c0.4,0.4,0.3,0.6,0.6,0.9c0.4,0.5,2.4,2.5,3,2.8c0.6-0.3,2.4-2.2,2.8-2.7c0.4-0.5,0.8-1.1,1.2-1.5c2.2-1.8,0.4-2.7-3-6
			c-1.2-1.2-0.8-1.1-1.3-1.5c-0.5-0.5-0.9-0.9-1.4-1.3c-0.3-0.3-0.4-0.4-0.7-0.7c-0.3-0.3-0.4-0.5-0.7-0.8l-4.2-4.1
			C22.3,4.7,22,4,21.5,3.7c-0.6-0.5-1-0.9-0.3-1.6c0.6-0.6,1.2-0.5,1-1.7H7.8c-0.2,0-0.3,0-0.3,0l0,0C7.5,0.4,7.6,0.5,7.5,0.6z
			 M4.4,148c-0.1,0.4,0.1,0-0.3,0.4l-0.2,0.2c-0.2,0.2-0.6,0.5-0.7,0.8c0,0.1,0,0.3,0,0.5h6.5c0.1-0.8,0.2-0.7,0.7-1.1
			c0.4-0.3,0.5-0.7,1-1c0.5,0.3,1.3,1.3,1.6,2h11c0.1-1.3-0.6-1-1.2-1.8c-0.5-0.7-0.8-1-1.4-1.5c-1-1-2-2-3-3c-0.5-0.5-1-1-1.5-1.5
			c-0.7-0.6-0.6-1.1-1.3-1.6c-1.1-0.8-0.4-0.2-1.6-1.4c-0.5-0.5-1-0.9-1.5-1.4l-3-3.1C9,134,8.8,133.9,8.2,133
			c-0.3-0.5-3.6-3.4-4.5-4.5L2.2,127c-0.6-0.6-1-1.2-1.6-1.5v9.9c0,1.9,0,1.3,1,2.3c0.6,0.6,3,2.8,3.3,3.3c0.5,0.8,1,1.2,1.6,1.7
			c0.3,0.3,1.3,1.2,1.6,1.6C7.8,144.7,4.8,147.8,4.4,148z M124.4,149.8h6.4c0.1-0.7,1.1-1.7,1.6-2c0.5,0.3,0.5,0.6,1,0.9
			c0.5,0.4,0.6,0.5,0.9,1.1h10.8c0.1-1.3,0.1-0.2-1.5-2.3c-0.5-0.6-1.3-1.4-1.9-2c-1.3-1.3-2.6-2.6-4-3.9c-0.4-0.4-0.5-0.7-0.9-1.1
			c-0.4-0.4-0.6-0.6-1-1c-0.6-0.6-1.2-1.3-2-1.9c-0.5-0.4-0.7-0.4-1.1-0.9c-1.6-1.7-2.3-2.1-3.8-4l-2.9-2.9c-0.3-0.3-0.7-0.6-1-1
			c-0.8-0.9-3.3-3.1-3.8-4c-0.9-1.7-2.2-1.8-3.1,0.1c-0.2,0.5-2.3,2.5-2.9,3c-0.4,0.3-0.6,0.5-0.8,1.1c0.4,1.2,2.8,2.8,3.6,3.9
			c0.2,0.2,0.2,0.4,0.4,0.6l7,6.9c0.5,0.5,0.4,0.5,0.8,1.1c0.2,0.3,0.7,0.7,0.9,0.9c0.4,0.4,1.6,1.5,1.8,1.9c0,0.9-0.6,0.9-1.2,1.4
			l-2.6,2.6C124.6,149.1,124.3,148.7,124.4,149.8L124.4,149.8z M63.9,149.8h6.4c0.1-0.8,0.2-0.7,0.7-1.1c0.4-0.3,0.6-0.7,1-1
			c0.6,0.4,1.3,1.3,1.6,2h11c0.1-0.9,0-0.7-0.6-1.2c-0.4-0.3-0.6-0.7-0.9-1.1c-0.7-0.7-1.3-1.3-1.9-1.9c-1.3-1.3-2.6-2.6-3.9-3.9
			c-0.5-0.4-0.5-0.7-0.9-1.1c-0.3-0.4-0.7-0.6-1-1c-0.2-0.2-0.3-0.3-0.5-0.5c-0.3-0.3-0.2-0.2-0.6-0.4l-2.9-2.9
			c-1.3-1.3-1.7-1.6-2.8-3.1l-4.9-4.9c-0.6-0.6-1.3-1.4-1.9-2c-1.4-1.2-2-3.3-3.3-2c-0.5,0.5-0.4,0.3-0.8,1.1
			c-0.6,1.3-3.8,3.2-3.7,4.1c0.1,0.6,3.1,3,3.6,3.9c0.4,0.6,0.3,0.5,0.8,1.1c0.3,0.3,0.6,0.6,0.9,0.9l5.5,5.5
			c0.5,0.5,0.5,0.6,0.8,1.1c0.4,0.5,2.6,2.4,2.7,2.7c0,0.9-0.6,0.9-1.1,1.4l-2.5,2.5C63.8,149.4,63.8,148.6,63.9,149.8z
			 M184.7,149.8h6.4c0.2-0.8,0.4-0.8,0.8-1.2c0.7-0.7,0.3-0.1,1.1-0.9c0.5,0.4,1.3,1.4,1.6,2.1h10.8c0.1-0.9,0-0.7-0.6-1.2
			c-0.4-0.3-0.6-0.7-0.9-1.1c-0.7-0.7-1.3-1.3-1.9-1.9c-1.3-1.3-2.6-2.6-3.9-3.9c-0.5-0.4-0.5-0.7-0.9-1.1c-0.3-0.4-0.7-0.6-1-1
			c-0.7-0.7-1.3-1.3-1.9-1.9c-1.1-1.1-0.9-1-2.1-1.8c-0.6-0.4-1.4-1.4-1.9-1.9c-0.5-0.5-0.5-0.6-0.9-1.1l-6.8-6.8
			c-1.2-1-0.5-0.7-1.9-2.1c-0.9-0.9-1.9,0.4-2.3,1.2c-0.6,1.3-3.8,3.2-3.7,4.1c0.1,0.6,3.1,3.1,3.6,3.9c0.4,0.6,0.3,0.5,0.8,1.1
			l6.5,6.5c0.5,0.5,0.5,0.6,0.8,1.1c0.4,0.5,2.6,2.4,2.7,2.7c0,0.9-0.6,0.9-1.1,1.4l-2.5,2.5C184.7,149.4,184.7,148.6,184.7,149.8
			L184.7,149.8z M228.9,91.7c-0.5-0.2-1.7-1.6-2.2-2.1c-0.4-0.4-0.7-0.7-1.1-1.1c-0.5-0.5-0.6-0.6,0-1.2c0.7-0.7,1.5-1.4,2.1-2.1
			c1.2-1.4,0.8-0.9,2.1-2.2c1.4-1.4,4.1-4,5.3-5.4c0.2-0.2,0.3-0.4,0.5-0.5l0.9-1.2c0.6-0.8,0.9-0.4,0.6-2.4c-1-0.5-2.1-1.8-2.9-2.7
			c-1.5-1.6-1.3-1.2-3.1,0.6c-1,1-1.9,1.9-2.8,2.8c-0.5,0.5-0.9,0.9-1.4,1.4c-1.2,1.2-0.8,1-1.2,1.5l-3.6,3.5
			c-1.1,0.7-2.6,2.5-3.6,3.4c-0.3,0.3-0.5,0.4-0.7,0.7c-0.8,1.2-2.1,2.1-3.4,3.6c0.2,0.8,2.1,2.5,2.7,3.1c1.2,1.2,1.6,1.8,2.8,3
			c1.6,1.5,1.8,1.6,3,2.8c0.7,0.7,3.2,3,3.6,3.7c0.4,0.6,1.5,1.7,2.1,2.2l6.1,6.3c0.1,0.1,0.2,0.3,0.3,0.4c0.3,0.3,1.9,2,2.2,2.1
			l-0.1-11.7c-0.9-0.5-1.7-1.4-2.5-2.2l-2.3-2.4c0.2-0.6,1.6-1.6,2.1-2.2c0.4-0.5,0.3-0.7,0.9-1.3c0.5-0.4,0.5-0.4,1.1-0.9
			c0.5-0.6,0.8-0.2,0.9-1.2v-4.1c0-0.7,0.3-3.3-1.2-1.1c-0.9,1.3-1.9,2.1-3,3.2C232.4,88.4,229.5,91.5,228.9,91.7L228.9,91.7z
			 M237.2,50V38.5c-0.6-0.3-0.9-0.6-1.3-1c-0.7-0.7-0.4-0.7-1.1-1.4c-0.4-0.4-2.2-2.1-2.4-2.5c0.2-0.5,1.5-1.5,1.9-2.1
			c0.6-0.9,1.3-1.2,2.1-2.1c0.9-1,0.9,0.4,0.9-3.2c0-0.4,0.2-3.7-0.1-4c-0.4-0.4-1.3,0.9-2,1.7l-4.1,4.1c-0.1,0.1-1.4,2.1-2,2.1
			c-0.5,0-1.7-1.8-1.9-2c-0.3-0.4-1.8-1.6-1.8-2c0-0.5,3.2-3.4,3.9-4c0.7-0.6,1.7-1.9,1.8-2.1l5.4-5.3c1-1.2,1-1,1-1.9
			c0-1,0.1-0.9-0.5-1.5c-0.7-0.7-1.3-1.2-2-1.9c-0.3-0.3-0.6-0.6-0.9-0.9c-1.1-1.1-1.2-0.3-3.3,1.7c-1.4,1.4-1.2,1-2.3,2.5
			c-0.2,0.2-0.3,0.3-0.5,0.5c-1.9,1.9-3.9,4.2-6,5.8c-1,0.7-1.5,1.7-1.8,2.1c-1.6,1.6-3.4,3.5-5,4.9c-1.1,1-0.1,1,0.9,2.2
			c0.2,0.3,0.1,0.3,0.4,0.6l5.4,5.4c0.5,0.4,0.6,0.4,1,0.8l1.9,2c1.5,1.6,5.1,5.2,6.9,6.9c0.4,0.4,0.5,0.6,0.9,1.1
			c0.4,0.4,0.6,0.7,1,1l3.4,3.4C236.9,49.7,236.9,49.8,237.2,50z M3.1,77.7c0.6,0.6,4.6,4.5,4.9,4.9c-0.2,0.5-0.2,0.4-0.6,0.7
			c-0.3,0.2-0.4,0.3-0.6,0.6c-0.2,0.2-0.4,0.4-0.6,0.6c-0.5,0.5,0.1,0.2-1.7,2l-2.4,2.4c-1.2,1.1-1.9,1.4-1.5,3.4
			c0.1,0.5,0.7,1.1,1,1.4C2,94,2.2,94.8,3,94.5c0.8-0.2,1.8-1.9,1.8-1.9c0.4-0.5,0.8-0.6,1.7-1.8c0.3-0.4,4.4-4.5,4.8-4.7
			c0.8,0.6,1.3,1.5,2.1,2.2c0.5,0.5,2.1,1.3,1.5,2.2c-0.6,0.8-1.5,1.4-2.1,2.2c-0.2,0.2-0.2,0.4-0.4,0.6l-6.9,6.8
			c-0.7,0.5-0.4,0.6-0.9,1.2c-2.4,2.6-2.9,1.7,0.9,5.3c1.9,1.8,1.5,2.2,3.1,0.6c2.1-1.9,3.5-3.5,5.7-5.8c0.8-0.8-0.1-0.3,1.1-1.1
			l9.6-9.8c1.5-1.3,0.4-1.4-0.8-2.6c-0.6-0.6-0.9-1.1-1.5-1.7c-0.3-0.3-0.6-0.5-0.8-0.8c-0.4-0.4-0.4-0.6-0.7-0.9l-5.6-5.6
			c-0.4-0.3-0.5-0.3-0.9-0.7c-0.5-0.5-1-0.9-1.5-1.7c-0.4-0.6-2.5-2.5-3.1-3.2c-1-1-4-3.8-4.7-4.9c-0.3-0.4-1.2-1.2-1.6-1.6
			c-0.6-0.6-2.6-2.7-3.3-3.1v9.8c0,2.8,0.8,1.4,1.7,3.1C2.6,77.3,2.8,77.4,3.1,77.7z M0.4,8.1c0.4,0,0.1,4.1,0.2,4.9
			c0,1,0.6,1,1.1,1.5c0.5,0.5,0.9,0.9,1.3,1.3l3.2,3.2c2.2,2.1,2.5,1.6,0,4C6,23.1,6,23.1,5.8,23.3c-1.1,0.9-0.3,0.4-1.5,1.4
			c-0.4,0.3-0.4,0.6-0.8,1c-0.2,0.2-0.4,0.2-0.6,0.4c-0.1,0.2-0.1,0.3-0.3,0.5L1,28.2c-0.2,0.1-0.1,0-0.3,0.2
			c-0.2,0.6-0.3,2.2,0.1,2.7c0.2,0.3,0.5,0.4,0.8,0.7c0.2,0.2,0.5,0.7,0.7,0.8c0.5,0.4,0.9,0.1,1.2-0.1C4.6,31.4,6,30,7,28.8
			c0.3-0.4,0.3-0.6,0.6-0.9c0.6-0.7,3.4-3.5,3.8-3.7c0.7,0.5,1.2,1.3,1.9,2c0.5,0.5,1.7,1.2,1.9,2.1c0,0.9-6.7,6.6-7.8,8.2
			c-0.9,1.2-4.8,4.4-4.8,5.1c0,0.5,2.3,2.3,2.8,3.1L6,45.5c1.3,1.4,1.4,1.4,2.5,0.2l5.8-6c0.2-0.2,0.5-0.6,0.6-0.8
			c0.2-0.2,1.2-0.6,2.3-2.1c0.9-1.3,6.3-6.2,8-8.2c1.1-1.3,0.6-1.4-0.6-2.7c-0.5-0.5-1-1-1.5-1.5c-1-1-1.9-1.9-2.9-2.9
			c-1.3-1.3-0.8-1-1.4-1.6c-0.4-0.5-1-1-1.5-1.5c-0.5-0.5-0.9-1-1.5-1.5c-0.8-0.7-0.2,0.1-1.6-1.4c-0.5-0.5-1-1-1.5-1.5
			c-0.4-0.4-1.1-1-1.5-1.5c-0.7-0.8,0-0.3-1.4-1.6L2.7,3.7c-0.4,0-0.6-0.4-1.1-0.8C1.1,2.4,1,2.1,0.4,2V8.1z M172,95.5
			c0.2-0.7,0.6-1,1.3-1.6c0.2-0.2,0.3-0.2,0.5-0.4c0.4-0.5,0.2-0.6,0.8-1.1l4.7-4.7c0.9-1.1,1.1-0.8-0.2-2.1
			c-0.6-0.6-0.4-0.6-0.8-1.1c-1.2-1.3-1.6-1.7-3,0.5c-0.3,0.5-1.4,1.4-1.8,1.8c-1.3,1.3-2.5,2.5-3.8,3.8c-0.9,0.9-1,1.6-2,0.4
			c-0.6-0.7-1-1.3-1.8-1.9c-2-1.5-1.1-1.3,1.2-3.8c0.4-0.4,0.4-0.7,0.8-1.1l2.8-2.8c1.3-1.3,2.5-2.5,3.8-3.8c1.1-1.1,0.9-1.1,1.8-2
			c1.1-1.1,1.3-1.3,0.3-2.2c-4.5-4-3.1-4.9-5.9-2.1l-3.7,3.7c-1.4,1.4-2.3,2.8-3.7,3.9c-0.5,0.4-0.6,0.3-1.1,0.8l-2.8,2.8
			c-0.6,0.6-1.3,1.2-1.9,1.9c-0.4,0.4-0.4,0.6-0.8,1.1c-0.4,0.4-2.7,2.6-2.7,2.8c-0.1,0.5,2.8,3.2,3.3,3.7c0.7,0.6,0.9,1.2,1.6,1.8
			l3.5,3.5c0.4,0.4,0.6,0.3,1,0.8l2.5,2.5c1.2,1.6,0.6,0.7,1.6,1.8c1.4,1.5,3.6,3.6,5.2,5.2c0.3,0.3,0.6,0.6,0.9,0.9
			c0.4,0.4,0.4,0.6,0.7,1c0.5,0.5,1.2,1.2,1.7,1.7c1.3,1.3,4,4.2,5.1,5.1c1.8-1.2,2.3-2.6,3.9-3.8c2.2-1.8,1.3-2.1,0.6-2.8
			c-0.4-0.4-0.3-0.4-0.5-0.8l-6.9-6.9c-1-1-0.6-0.8-1.1-1.4c-0.3-0.4-0.9-0.9-1.3-1.3C174.8,98.6,172.2,96.2,172,95.5z M181.2,54.5
			c1.1-0.4,1.9-2.4,3.9-4.1c0.5-0.5,1.9-1.3,0.9-2.2c-0.7-0.6-1.3-1.3-2-2c-1-1-1.7-1.9-1.8-2.1c-0.7-0.7-1.3-1.3-2-2
			c-0.6-0.6-4.9-4.8-5.4-5.5c-0.2-0.4-0.1-0.3-0.5-0.6c-0.7-0.6-1.4-1.3-2-2c-0.9-1.1,0.4-1.5,2-3.1c0.4-0.4,0.6-0.6,1-1
			c0.3-0.3,0.6-0.6,0.9-0.9c0.2-0.2,0.8-1.3,1.9-2.1l1.1-0.9c1.3-1.2,0.7-1.6,0-2.5c-0.4-0.4-0.7-0.5-1.1-0.9
			c-1.3-1.1-0.1-2.1-5.3,3.1c-0.7,0.7-1.3,1.3-2.1,2.1c-0.1,0.1-1.5,2.1-2,2.2c-0.9,0-1.6-1.2-2-1.9c-0.5-0.8-1.6-1.2-1.9-2
			c0-0.6,4.7-4.7,5.3-5.6c0.4-0.7,2.6-2.7,3.2-3.4l3.2-3.2c1.7-1.7,0.3-1.7-2.6-4.9c-0.4-0.4-0.7-0.8-1-1.2
			c-0.7,0.1-1.2,0.9-1.6,1.3l-2.9,2.9c-0.4,0.4-0.2,0.5-1.3,1.6l-3.6,3.6c-0.3,0.3-0.5,0.3-0.8,0.6c-0.9,0.8-2.1,2-2.8,3l-4.3,4.4
			c-0.3,0.3-1.3,1.1-1.3,1.5c-0.1,0.6,1,1.1,1.3,1.6c1,1.4,1.7,2,2.8,3.1c1,1,1.9,1.9,2.9,2.9c0.5,0.5,0.9,1,1.4,1.4
			c0.4,0.3,0.5,0.3,0.8,0.6c0.4,0.3,0.4,0.5,0.7,0.9l5.8,5.8c0.5,0.5,1,0.9,1.4,1.4c0.5,0.5,0,0.2,1.3,1.6c1,1,1.9,1.9,2.9,2.9
			l2.8,3c1.3,1.3,0.9,1.1,1.3,1.6C179.8,53.6,180.5,54.4,181.2,54.5L181.2,54.5z M156,110.2c0.4,0.4,0.6,0.6,1,1
			c2.3,2.3,2.8,2.2,1.8,3.2c-0.4,0.4-0.6,0.6-1,1c-1.4,1.4-0.8,0.9-1.8,2.1c-1.2,1.4-2.7,2.6-4,3.9c-1.5,1.5,0.1,1.8,1,2.8
			c0.2,0.2,0.3,0.3,0.4,0.5c0.2,0.3,0.6,2,1.8,0.2l5.3-5.4c2.9-2.9,2-2.9,4.8-0.1c1.9,1.9,1.9,1.5,0.4,3l-2.2,2.2
			c-0.3,0.4-0.1,0.4-0.5,0.7c-1.1,0.8-0.3,0.2-1.2,1.1l-6.7,6.7c-1.1,1.5-1.5,1.4,0.3,3.1l2.2,2.2c1.2,1.3,1.3,1,3-0.6
			c0.5-0.5,0.9-0.8,1.4-1.5c0.4-0.6,2.1-1.6,3-2.8c0.6-0.8,0.7-0.9,1.4-1.6c0.5-0.5,0.9-0.9,1.4-1.4l4.3-4.3c1.4-1.4,1-1.4,2.8-3
			l1.5-1.3c2.3-2.3-0.5-2.2-2-4.7c-0.4-0.6-6.4-6.6-7.1-7.3c-0.6-0.5-0.8-1-1.4-1.6c-0.6-0.6-2.3-2.4-2.9-2.8
			c-0.6-0.3-3.9-3.7-4.4-4.2c-0.3-0.3-0.3-0.5-0.6-0.8l-2.1-2.1c-0.5-0.5-0.9-1-1.5-1.5c-0.5-0.5-0.8-1-1.3-1.5l-2.9-2.8l-0.3,0.3
			c0,0,0,0-0.1,0.1l-3.7,3.7c-0.7,0.7-1.8,1.1-0.7,2.4c0.3,0.4,0.7,0.7,1,1c0.5,0.5,0.4,0.5,0.8,1l2,2c0.7,0.7,1.3,1.3,2,2l3.8,4.1
			c0.2,0.2,0.3,0.4,0.5,0.6C155.7,109.9,155.8,110,156,110.2L156,110.2z M98.8,51.7c-0.4,1.2-5.6,6.1-6.9,7.4
			c-1.1,1-1.9,1.5-0.5,2.5l2.1,2.2c0.9-0.1,1.9-1.4,2.4-1.9c0.4-0.4,0.6-0.5,1-1.1s3.8-3.9,4.7-4.8c0.6-0.6,0.7-0.7,1.7,0.4
			c0.4,0.4,0.7,0.5,1.1,0.8c0.2,0.2,1.8,1.7,1.9,1.9c0.1,0.5-0.6,0.9-1.3,1.9c-0.5,0.8-1.4,1.2-1.8,1.5l-5.7,5.7
			c-0.4,0.4-0.3,0.5-0.7,0.9c-0.7,0.8-2.9,2.6-3.2,3.4c0,0.5,3,3.2,3.5,3.8c0.4,0.4,0.3,0.5,0.6,0.9c0.3,0.3,0.5,0.4,0.9,0.2
			c0.5-0.3,0.4-0.5,0.7-0.9c0.2-0.2,1.1-0.9,1.5-1.5c0.5-0.7,0.8-0.9,1.4-1.5c0.4-0.4,1.1-1.2,1.5-1.4c1.2-0.8,2.8-2.5,3.6-3.7
			c0.5-0.7,6.2-6.1,7.4-7.4c0.2-0.2,0.1-0.2,0.3-0.4c0.2-0.3,0.1-0.2,0.4-0.4c2.1-1.8,1.4-1.8,0-3.3c-1-1-3.6-3.4-4.3-4.5
			c-0.3-0.4-1.1-1.1-1.5-1.5l-5.1-5.2c-0.4-0.4-0.5-0.3-0.9-0.6s-0.2-0.4-0.6-0.8l-6.7-6.7c-1-1-1.5-1.9-2.8-3.2
			c-3-3-3.5-4.3-4.8-2.7c-0.7,0.8-4.2,3.9-4.3,4.6c0,0.8,2.2,2.7,2.8,3.3c0.5,0.5,0.9,1,1.4,1.5l3,2.9c0.4,0.4,0.4,0.5,0.7,0.9
			C93.1,46.1,98.6,51.3,98.8,51.7L98.8,51.7z M33.1,119.4c-0.7,0.7-1.3,1.3-2,2c-0.3,0.3-0.9,0.7-0.7,1.2l1.5,1.6
			c1.5,1.4,0.2,0.8,1.4,1.5c0.9-0.4,0.6-0.5,1.1-1.1c0.3-0.4,0.7-0.7,1.1-1.1l4.2-4.2c2.6-2.5,1.7-2.6,4.2-0.1
			c0.6,0.6,1.9,1.5,2,1.9c-0.2,0.6-0.5,0.9-1.1,1.2c-0.5,0.3-1.9,1.7-2.4,2.2c-0.4,0.4-0.2,0.3-0.5,0.7l-7.4,7.4
			c-0.4,0.4-0.6,0.8-1.1,1.3c-0.5,0.6-0.4,0.8,0.1,1.3l3.5,3.4c0.5,0.5,0.7,0.8,1.3,0.3s2-1.9,2.3-2.3c0.6-0.8,1.5-1.6,2.2-2.4
			c0.5-0.5,0.6-0.6,1.1-1.3c0.4-0.6,0.7-0.5,1.2-1l6.8-6.9c0.5-0.8,1.5-1.7,2.2-2.4c0.5-0.5,2.1-1.8,2.2-2.4
			c-0.7-0.4-2.1-1.8-2.7-2.5c-0.1-0.1-0.2-0.2-0.4-0.4c-0.2-0.2-0.1-0.3-0.3-0.5c-0.9-1.1-6.5-6.1-7.6-7.9c-0.3-0.5-0.5-0.4-0.9-0.7
			l-5.2-5.2c-0.6-0.6-1.2-1.1-1.7-1.7c-0.3-0.3-0.4-0.6-0.8-1c-1.3-1.3-2.1-2-3.3-3.5c-1-1.1-2.8-2.8-3.9-3.8l-0.4-0.4l-4,4.1
			c-0.7,0.7-1.8,1.1-0.9,2.3c0.3,0.3,0.7,0.7,1,1l1.9,2.1c0.4,0.4,0.7,0.6,1.1,0.9l5.9,6c0.4,0.6,1.4,1.5,1.9,2.1
			c1.9,1.9,2.8,2.2,1.9,3.2c-1.2,1.4-1.4,1.1-2.8,3C34.6,118,33.7,118.9,33.1,119.4z M198.9,122.7c-0.7-0.4-2.1-2.1-2.8-2.7
			c-0.4-0.3-1.2-0.8-0.8-1.5c0.4-0.5,7.5-7.7,8.6-8.8c0.3-0.4,0.4-0.3,0.6-0.7c0.4-0.6,1.4-1.4,2-2c0.8-0.9,1.2-1,1.1-1.6
			c-0.1-0.5-2.8-2.9-3.3-3.5c-0.2-0.3-0.3-0.5-0.6-0.7c-0.6-0.4-0.4,0-0.7-0.7c0,0,0,0.1-0.1,0.1l-0.2,0.3c-2.2,1.8-4.8,4.6-6.8,6.7
			c-1.4,1.4-1,1.2-2.2,2.4c-1.3,1.3-1.5,1.2-1.9,1.6c-1.1,1.1-4.5,4.3-5.2,5.4c-0.5,0.8-1.9,1.5-2.1,2.5c0.3,0.8,2.7,2.9,3.4,3.6
			c0.4,0.4,1.4,1.3,1.7,1.7c0.3,0.5,1.9,2.3,2.5,2.7c1.7,1.3,2.8,2.6,4.4,4.1c0.6,0.6,1.2,1.1,1.7,1.7c0.4,0.5,1.3,1.3,1.8,1.8
			l3.4,3.4c0.3,0.3,0.5,0.6,0.8,0.9c1.2,1.2,1.6,1.8,2.4,2.7l5.2,5l3.8-3.7c0.3-0.3,0.3-0.4,0.6-0.7c0.2-0.1,0.4-0.4,0.6-0.6
			c0.6-1-1.4-2.5-1.8-2.9c-1.2-1.2-5.4-5.2-6.1-6.3l-3.7-3.8c-3.4-3.4-2.9-2.4-1.7-4c0.3-0.3,0.3-0.5,0.5-0.7l5.6-5.6
			c1.4-1.1,0.6-2.1-0.3-3c-1.4-1.4-1.4-2.1-2.8-0.7l-4.8,5.2C201,121,199.7,122.4,198.9,122.7L198.9,122.7z M34.2,143.3
			c0.6-0.6,1.7-1.1,0.9-2.4c-0.4-0.6-7.1-6.9-7.6-7.8c-0.3-0.6-1.3-1.4-1.8-1.9c-1.3-1.3-2.6-2.7-3.9-3.9c-1.3-1.2-0.5-1.2,0.3-2.2
			c0.8-1,0.9-1.1,1.8-2c0.6-0.6,4.3-4.3,4.8-4.9c0.9-1.2-1.1-2.5-1.8-3.3c-0.4-0.4-0.6-0.7-1.3-0.3c-1.1,0.7-2.3,2.6-2.7,3l-4.8,4.8
			c-0.5,0.4-0.7,0.1-1.1-0.2c-0.4-0.4-0.6-0.6-1-1c-0.4-0.4-0.6-0.5-1.1-0.8c-0.4-0.3-0.6-0.7-1-1c-0.9-0.9,0.1-0.9,1-2.2
			c0.6-0.8,0.3-0.2,1-0.9c1.3-1.3,2.6-2.6,3.9-3.9c1.1-1.1,4.9-4.9,5.7-5.9c1-1.2,1.3-0.8,0-2.1l-2.8-2.9c-0.6-0.6-0.7-0.4-1-0.9
			l-0.3,0.3c-0.2,0.1-0.2,0.1-0.4,0.2c-0.2,0.2-0.1,0-0.3,0.3c-1.5,1.4-2.5,2.6-3.8,3.9c-1.2,1.2-1.8,1.5-2.5,2.2
			c-0.3,0.3-0.9,0.9-1.2,1.2c-0.9,1.3-5.3,5.5-6.9,7.1c-0.5,0.5-0.6,0.6-1.1,1.3c-0.3,0.5-1.6,1.5-1.9,2l-0.1,0.1
			c-0.5,0.7,1.4,1.8,2.4,3s2.2,2,2.6,2.5c0.4,0.5-0.1,0.1,0.7,1c0.3,0.3,0.4,0.6,0.7,0.9l5.2,5.2c0.8,0.7,1,0.4,1.7,1.7l6.9,6.9
			c0.7,0.7,1,1.3,1.6,1.9l5.3,5L34.2,143.3L34.2,143.3z M93.7,126.1c0.5-0.3,0.6-0.9,0.9-1.4c0.2-0.3,0.7-0.8,1-1.1
			c0.7-0.7,1.4-1.4,2.1-2.1s1.4-1.4,2.1-2.1c2.2-2.2,2.1-2.7,3.4-1.3c0.3,0.4,0.7,0.5,1,0.9c0.4,0.4,0.7,0.5,1.1,0.9
			c1.2,1.2,1,1.2-0.2,2.4c-1.7,1.7-1.2,1-1.8,1.6c-1.1,1-0.8,1.2-1.6,1.8c-1,0.8-5.5,5.5-6.8,6.8c-0.5,0.4-0.6,0.8-1,1.2
			c-0.5,0.6-0.6,0.7,0,1.3l2.3,2.3c1.3,1.6,1.8,2,2.8,1.2l0.4-0.3c0.8-0.8,1.2-1.4,1.6-1.8c0.8-0.8,1.5-1.5,2.3-2.3
			c0.6-0.6,0.7-0.2,1.2-1.1c0.3-0.5,2.8-2.9,3.3-3.4l4.5-4.6c0.5-0.7,0.5-0.7,1.1-1.3c4-4,3.9-3,1.6-5.4c-0.3-0.3-0.6-0.6-0.9-0.9
			c-0.6-0.6-0.4-0.6-0.7-1c-0.5-0.5-1.2-1.2-1.7-1.7c-1.4-1.4-4.9-4.7-5.9-6.1c-0.7-1-2.4-2.2-2.6-2.4l-5.2-5.2
			c-0.3-0.3-0.4-0.6-0.8-1C96,99,93.9,97.1,93,95.9c-0.8-1.1-2.1-2.1-3.1-3l-0.4-0.4l-0.3,0.3c-0.4,0.4-0.3,0.2-0.8,0.8
			c-0.5,0.7-1.4,1.4-2,2c-2.6,2.6-2.9,2.3-0.7,4.4c0.2,0.2,0.4,0.4,0.5,0.5c0.2,0.3,0.2,0.4,0.4,0.6c0.2,0.3,0.7,0.6,1.1,0.9
			l7.8,8.1c3.8,3.8,3.8,3,1.6,5.2c-0.4,0.4-0.6,0.6-1,1c-0.4,0.4-0.5,0.7-0.8,1.1c-0.6,0.7-1.3,1.3-2,2c-1.6,1.6-2.9,2.4-2.3,3.3
			c0.1,0.2,0.8,0.8,1,1c1.3,1.3,0.8,0.7,1.6,2.1C93.6,125.9,93.7,126,93.7,126.1C93.7,126,93.7,126.1,93.7,126.1L93.7,126.1z
			 M93.6,26.7c0.2,0.6,1.2,1.7,1.9,2.4c1.3,1.4,7.2,7.2,7.5,7.6c0.3,0.5,0.3,0.6,0.8,0.9c0.6,0.4,6.8,6.5,7.1,7
			c0.6,0.9,1,1.2,1.7,1.9l6.1,6.3c0.4,0.6,0.3,0.5,0.8,1c1.5,1.5,1.3,1.2,2.8-0.4c0.3-0.3,0.5-0.7,0.8-1c0.5-0.6,1.2-1.2,1.8-1.8
			c1.8-1.7,1.7-1.3-0.9-3.8c-0.5-0.5-1.3-1.1-1.7-1.8c-0.9-1.4-7-6.7-7.8-8.1c-0.3-0.5-0.5-0.6-0.8-0.9c-0.6-0.5-1.3-1.2-1.8-1.8
			c-0.7-0.8,0.6-1.6,1-1.9c0.7-0.5,3.2-3.1,3.5-3.6c0.2-0.4,2.1-2.2,2.6-2.7c0.3-0.3,0.1-0.2,0.5-0.4l0.6-0.4
			c-0.4-0.7-1.5-1.4-2.1-2.2c-0.2-0.3-0.5-0.7-0.7-0.9c-0.8-0.6-1.5,0.3-1.8,0.7c-1.6,1.8-4.4,4-5.7,5.9c-0.2,0.3-1.2,1.3-1.6,1.4
			c-0.9-0.1-1.4-1.3-1.9-2c-0.5-0.7-1.6-1-1.8-2.1c0.9-1.4,4-3.8,5.4-5.8l3.4-3.4c0.8-0.8,1.5-1.5,2.2-2.2s2.1-1.6,0.9-2.7l-3.4-3.4
			c-1-1.1-1.4-0.2-3.7,2.1c-0.4,0.4-0.7,0.7-1.1,1.1c-0.5,0.5-0.6,0.8-1,1.2l-2.8,2.8c-0.7,0.6-0.2-0.1-1.9,1.6
			c-0.8,0.8-1.5,1.5-2.2,2.2c-0.2,0.2-0.4,0.3-0.5,0.5c-0.8,1,0,0.2-1.6,1.8C97.4,22.7,93.8,26.3,93.6,26.7z M223.4,55.5
			c0.4,0.2,3.7,3.5,3.7,3.7c-0.1,0.5-0.3,0.6-0.7,0.9c-0.5,0.5-0.3,0.4-0.7,0.9c-0.5,0.7-3.3,3.4-4.2,4l-2.4,2.4
			c-1.2,1.2-0.6,0.6-1.5,1.8c-0.5,0.6-3,2.8-3.2,3.3c-0.2,0.5,0.7,1.2,1.2,1.8l2.4,2.4c0.2,0.3,0.3,0.7,0.8,0.9
			c0.8,0.4,1.1-0.8,1.7-1.3c0.4-0.4,0.4-0.5,0.7-0.8c0.4-0.4,0.5-0.4,1-0.7l4.9-5c1-1,0.7-1,1.5-1.7l5.7-5.6
			c0.5-0.4,1.7-2.1,2.4-2.5c0.5-0.4,0.5-0.3,0.5-1.2s0-0.8-0.5-1.2l-4.5-4.5c-0.3-0.3-0.1-0.2-0.3-0.5l-7.2-7.4
			c-0.4-0.4-0.6-1-2.3-2.6c-0.5-0.4-0.4-0.2-1.7-1.5l-4.1-4.1c-0.3-0.3-0.3-0.6-0.7-0.9c-0.5-0.6-1-1-1.6-1.6l-1.6-1.7
			c-2.5-2.5-1.9-2.4-4.4,0.1c-0.8,0.8-1.7,1.9-2.5,2.5s-0.7,1.3,0,2l4.9,4.9c0.6,0.6,1.1,1.1,1.7,1.6c0.4,0.3,0.8,1.1,1.5,1.8
			c1.1,1.1,2.1,2.1,3.2,3.2c3.4,3.4,4,1.9-2.6,8.4c-0.9,0.9-2,1.6-2.5,2.3c-1.1,1.5,1.1,2.6,2.2,3.7c0.8,0.8,1.1,0.1,2.7-1.6
			c1-1,1-1.2,1.5-1.7C219.3,59.3,222.6,55.7,223.4,55.5L223.4,55.5z M154.3,64c0.7-0.6,2.7-2.6,3-3.2l4.5-4.7
			c0.7-0.6,0.9-1.2,1.8-0.2c0.5,0.5,1,1.2,1.5,1.6c2.5,2.1,1.3,1.9,0.6,2.9c-0.5,0.6,0.1,0.1-1,1.2c-0.4,0.4-0.7,0.7-1.1,1.1
			c-0.2,0.2-0.3,0.4-0.5,0.5c-0.1,0.1-0.2,0.1-0.4,0.2c-0.8,0.5-3.9,3.8-4.8,4.7c-0.4,0.4-0.5,0.8-1,1.2c-0.4,0.4-0.7,0.7-1.1,1.1
			c-2.5,2.5-2.5,1.4,1.8,5.8c0.5,0.6,0.3,0.7,1.1,1.2c0.9-0.3,0.7-0.7,1.2-1.1c0.4-0.4,0.8-0.7,1.2-1.1c0.5-0.4,0.6-0.8,1.1-1.3
			c0.5-0.5,0.9-0.6,1.3-1c0.8-0.8,1.5-1.5,2.3-2.4c0.4-0.4,0.8-0.8,1.2-1.2c0.5-0.4,0.6-0.9,1.1-1.3l7.1-7.1
			c0.3-0.3,0.2-0.4,0.5-0.6c0.3-0.2,0.4-0.3,0.6-0.6c1.5-1.7,1.5-0.9-2.7-5.1c-0.6-0.6-1.3-1.2-1.8-1.8c-0.2-0.3-0.1-0.3-0.4-0.6
			l-5.1-5.1c-1.5-1.5-1.4-1.3-2.6-2.9c-0.4-0.5-0.5-0.5-1.1-0.8l-5.5-5.5c-1.1-1.1-1.5-1.8-1.8-2l-1.7-1.9c-0.7-0.7-1.2-1.2-1.9-1.9
			c-0.5-0.5-1.3-1.7-2.2-1l-3.7,3.8c-1.7,1.5-1.3,1.6,1.3,4.1c1.8,1.8,3.9,3.7,5.5,5.7l5.5,5.5c1.3,1,1.1,1.4,0.7,2.1
			c-0.5,0.9-6.3,6.6-7.4,7.5c-0.9,0.7,0.5,1.7,0.9,2.1C153,62.7,153.6,63.4,154.3,64L154.3,64z M126,110.7c-0.2-0.3-0.3-0.5-0.5-0.7
			c-1.3-1.1-0.5-0.7-1.1-1.3c-1.2-1.4-6.7-6.4-7.6-7.6c-0.3-0.4-0.1-0.3-0.5-0.7l-4.1-4.1c-1.7-1.7-0.1-1.5,1.2-3.1
			c0.2-0.3,0.2-0.5,0.4-0.7l3.5-3.4c0.8-0.8,2.2-1.6,2.1-2.6c-0.1-0.6-0.7-1-1-1.4c-1.1-1.3-0.5-0.5-1.2-1.2
			c-0.4-0.4-0.7-0.9-1.4-0.3c-0.5,0.5-0.7,0.6-1.1,1.2c-0.3,0.5-3.9,4-4.6,4.7c-0.4,0.4-1.9,2.2-2.5,2.1c-0.5-0.2-1.7-1.9-2.2-2.3
			c-1.8-1.4-1.9-1.1,0.8-3.7c0.5-0.4,0.6-0.9,1.1-1.3l7-7c0.4-0.4,0.6-0.9,1.1-1.3c1.7-1.6,1.4-1.5,0.2-2.7
			c-0.4-0.4-0.7-0.8-1.2-1.2c-0.4-0.4-0.7-0.8-1.1-1.3c-2-2.3-2.8,0.1-3.9,1.1l-4.6,4.8c-0.3,0.5-0.7,0.9-1.2,1.2
			c-0.4,0.3-6.7,6.5-7,6.9c-0.8,1.2-2.3,2.3-3.4,3.6c0.3,0.9,1.3,1.7,1.9,2.3c0.5,0.5,1.7,1.5,2.1,2.1c0.8,1.1,5.6,5.9,6.1,6.2
			c0.7,0.4,0.7,0.5,1.1,1c0.7,0.6,0.4,0.3,0.9,1.1c0.3,0.5,1.6,1.6,2,2.1c0.7,0.7,1.3,1.3,2,2l3.1,3.1c0.9,0.9,0.4,0.4,0.9,1.1
			c0.3,0.4,0.7,0.7,1.1,1.1s0.6,0.7,0.9,1.1c0.7,0.7,1.4,1.3,2.1,2.1c3.1,3.1,2.7,3.3,4.3,1.3C122.9,113.8,125.5,111.6,126,110.7
			L126,110.7z M225.3,119.2c2.5,2.5,2.6,1.3-1.4,5.3c-0.4,0.4-0.3,0.5-0.7,1c-1.2,1.2-1.3,1.1-1.8,1.5l-4,4
			c-1.1,1.1-1.5,1.4-2.4,2.6c-0.7,0.9-1.3,0.6,0.4,2.3c0.4,0.4,0.8,0.8,1.2,1.2c0.4,0.4,2.1,2.1,2.4,2.3c0.7-0.3,1.2-0.8,1.6-1.4
			c0.6-0.8,0.9-0.9,1.5-1.3l2.9-2.9c0.3-0.3,0.4-0.6,0.6-0.9l4.9-4.9c0.3-0.3,0.6-0.4,0.8-0.7c0.3-0.3,0.3-0.5,0.6-0.8
			c0.5-0.5,1-0.8,1.3-1.5c0.5-0.9,0.5-0.3,1.4-1.5c1.5-1.9,2.6-1.2,2.4-3.4c-0.1-0.6-0.2-0.5-0.6-0.8c-0.3-0.2-0.5-0.4-0.7-0.7
			c-0.5-0.4-1-0.9-1.3-1.5c-0.4-0.6-3.6-3.7-4.3-4.3c-1-1-1.8-1.9-2.8-2.9c-0.6-0.6-0.7-1-1.4-1.6c-1-1-3.6-3.7-4.3-4.2
			c-0.6-0.4-2.4-2.3-2.9-2.8c-0.3-0.3-0.3-0.5-0.6-0.8l-3.6-3.6c-0.3-0.3-0.4-0.5-0.6-0.8c-0.2-0.3-0.4-0.5-0.7-0.7
			c-0.5-0.5-0.9-0.9-1.4-1.4l-1.3-1.2c-0.1-0.1,0.1,0-0.2-0.2l-3,3c-0.3,0.3-0.6,0.7-1,1c-0.7,0.7-1.8,1-0.8,2.2
			c0.6,0.8,1.2,1.1,1.9,2c0.3,0.5,0.7,0.7,1,1l6.9,7c0.5,0.8,1.3,1.4,1.9,2.1c0.7,0.7,1.3,1.3,2,2c0.8,0.8-0.1,1.3-1,2.2
			c-0.4,0.4-0.6,0.6-1.1,0.9c-0.7,0.5-0.4,0.5-0.8,1.1c-1.1,1.7-5,3.9-4.7,5.2c0.2,1,1.4,1.6,2,2.1c0.1,0.1,0.6,0.8,0.8,1.1
			c1-0.1,0.8-0.5,1.3-1c0.3-0.4,0.7-0.7,1.1-1.1l6.7-6.3C224.1,117.7,224.9,118.7,225.3,119.2L225.3,119.2z M120.5,0.4H119
			c-0.2,0.7-4.7,4.4-4.6,5.4c0.1,0.5,4.3,4.5,4.9,5.1c0.4,0.4,0.8,0.8,1.3,1.2c0.6,0.6,0.2,0.5,1.1,1.4c0.9,0.9,1.7,1.7,2.5,2.5
			c1.3,1.4,4.2,3.5,4.9,5.2c-0.5,0.6-1,0.8-1.3,1.2l-3.7,3.8c-0.3,0.2-0.4,0.3-0.7,0.5c-0.2,0.2-0.4,0.4-0.6,0.7
			c-0.3,0.3-2.4,1.6-1.8,2.9c0.3,0.8,0.7,0.8,1.2,1.3c0.9,0.8,1.3,1.7,2.1,1.2l0.3-0.2c0,0,0,0,0.1-0.1l3.4-3.4
			c0.8-1.1,0-0.4,1.7-2.1c0.5-0.5,2-2.2,2.5-2.4l2.2,1.8c2.6,2.6,2.3,2-0.1,4.4c-1.2,1.2-0.9,0.7-2.1,1.9l-3.9,4
			c-1.1,1.5-2.5,2.7-3.8,4.1c-1,1-1.4,1.1-0.2,2.2c0.4,0.3,1.8,1.7,2,2c0.3,0.5,1.4,1.9,1.9,1.9c0.6,0,1.2-0.9,1.6-1.3
			c0.3-0.3,0.2-0.2,0.5-0.6c0.3-0.5,1.5-1.5,1.9-2c0.2-0.2,0.7-0.9,1-1c0.3-0.2,0.3-0.1,0.6-0.4l4.4-4.5c0.6-0.8,5.7-5.6,6.9-7
			c0.1-0.1,0.3-0.3,0.4-0.5c0.5-0.5,0.3-0.1,0.8-0.9c0.4-0.6,0.5-0.3,0.5-0.8c0-0.6-2.4-2.7-2.8-3.1l-2.9-2.9c-0.5-0.5-0.6-0.3-1-1
			c-0.4-0.7-1.4-1.5-1.9-2.1l-3.9-3.9c-0.5-0.5-0.6-0.5-1.1-0.9c-0.5-0.5-1-1.4-1.8-2.2c-0.4-0.4-0.6-0.6-1-1c-0.7-0.7-1.3-1.3-2-2
			l-3.9-4c-0.7-0.9-0.5-0.9-1.9-2.1C121.9,2.3,120.7,0.9,120.5,0.4L120.5,0.4z M142.3,84.5l-6.9-6.9c-0.8-0.8-0.7-1.4-2-2.2
			c-0.5-0.3-4.6-4.5-5.3-5.2c-0.4-0.4-0.7-0.7-1.1-1c-0.4-0.4-0.5-0.7-0.9-1.2c-1.5-1.4-2.8-2.8-4.2-4.3c-0.4-0.4-0.7-0.7-1.1-1
			c-0.3-0.3-0.6-0.9-1.2-0.8c-0.7,0.1-2.6,2.9-4.3,4.1c-0.3,0.2-0.9,0.7-0.8,1.3l1.9,2.3l6.4,6.3c0.5,0.5,0.5,0.8,0.9,1.2
			c0.6,0.7,1.4,1.4,2.1,2.1c3.4,3.4,3.8,3.1,2.1,4.4c-0.4,0.3-0.8,0.6-1,1.1c-0.3,0.6-2.5,2.6-3.1,3.2l-1.6,1.5
			c-1.9,1.7-1.5,1.9-0.5,3.1c0.4,0.5,1.6,1.9,2.2,1.9c0.6,0,0.8-0.6,1.2-0.9c1.1-1,0.2-0.5,1-1.2c1-0.9,6.1-6.2,6.3-6.2
			c0.3,0,3.7,3.3,4.1,3.7c-0.2,0.4-1.3,1.4-1.6,1.7c-1.5,1.5-0.7,1.1-1.6,1.7l-6.6,6.6c-0.8,0.8-0.7,0.8-1.6,1.7
			c-1.8,1.7-1.8,1.8-0.7,2.8c4,3.6,3.2,4.7,5.3,2.7l3.6-3.7c0.8-0.5,2.1-1.8,2.6-2.5c0.4-0.7,1.8-1.9,2.4-2.5l8.5-8.9
			c0-0.8-1.1-1.5-1.9-2.4c-0.5-0.5-1.7-1.6-2.1-2.1C142.5,84.8,142.5,84.7,142.3,84.5L142.3,84.5z M181,0.4h-1.5
			c-0.2,0.6-1.8,1.8-2.4,2.6c-0.2,0.3-0.3,0.4-0.5,0.7c-0.2,0.2-1.7,1.5-1.7,2.2c0.3,0.7,4.8,5.1,5.7,5.9c1.2,1.2,0.7,1,1.3,1.5
			l4.4,4.4c0.4,0.4,2.7,2.6,2.9,2.9c0.6,1.1-0.9,1.8-2.3,3.2l-4.4,4.3c-0.4,0.4-0.2,0.5-0.6,0.8c-1,1.2-1,0.8,0.6,2.5
			c0.6,0.6,1,1.3,1.5,1.4c0.8,0.2,1.4-0.7,1.8-1.1c2.1-1.9,5.1-6.1,7.2-7.2l3.2,3c1.4,1.2,0.1,1.9-1.7,3.6c-0.8,0.8-1.3,1.4-2.2,2
			l-3.1,3.1c-0.4,0.4-0.5,0.8-0.9,1.2c-0.4,0.4-0.7,0.6-1.1,1c-0.7,0.7-3.1,2.8-3,3.4c0,0.5,2.3,2.4,2.8,3.1
			c0.3,0.5,1.5,1.7,1.8,1.8c0.5,0.1,1.6-1.1,1.9-1.5l1.6-1.9c0.4-0.3,0.5-0.2,1.4-1c0.7-0.6,4.8-4.8,5.2-5.3
			c0.5-0.8,7.6-7.5,8.1-8.4c0.2-0.3,0.3-0.4,0.4-0.8c0-0.7-5.5-5.7-6.5-6.9c-0.6-0.7-0.1-0.4-1.5-1.8l-5.1-5.1
			c-0.3-0.3-0.5-0.5-0.8-0.8c-0.2-0.2-0.6-0.7-0.8-0.9c-0.2-0.2-0.1,0-0.5-0.4L185,4.7c-0.4-0.4-0.4-0.7-0.7-1
			c-0.8-0.9-1.6-1.4-2.5-2.5C181.5,1.1,181.2,0.9,181,0.4L181,0.4z M150.9,85.6c0.6-0.2,0.7-0.7,0.8-0.9l3.6-3.6
			c0.3-0.4,0.8-0.6,0.9-1c0.2-0.8-1.5-2.2-2.3-2.9c-0.4-0.4-0.4-0.7-0.8-1c-1.3-1.4-6.7-6.5-7.3-7.2c-1-1.2-0.4-0.6-1.7-1.9
			c-2.9-2.9-2.9-2.3-1.3-3.8c1.6-1.6,1.2-1,2.6-2.8c1-1.2,4.6-4.1,4.4-4.9c-0.3-0.5-1-1.1-1.4-1.4c-1.6-1.5-0.7-2.6-4.5,1.2
			c-0.9,0.9-2,1.9-2.8,2.8c-0.5,0.6-2.2,2.7-2.8,2.9c-0.4-0.2-0.7-0.8-0.9-1c-3.3-3.7-3.7-2.2-0.8-5.1c0.6-0.6,1.2-1.3,2-2
			c0.4-0.4,0-0.2,0.9-1c1.9-1.8,5.3-5.2,6.9-7c1.4-1.6,0.4-1.8-0.2-2.4c-0.7-0.7-1.3-1.4-2-2c-0.5-0.5-1.4-1.9-2.3-1.3l-2,2
			c-0.7,0.7-1.3,1.3-2,2c-1.5,1.5-0.7,0.7-1.4,1.6l-2.9,3c-0.5,0.5-0.1-0.2-1.7,1.4l-3,3c-0.4,0.5,0.1,0.2-0.9,1.1
			c-5.4,5.2-4.9,4-1.5,7.3c0.4,0.4,0.5,0.7,0.9,1.1l3,2.9c1.2,1.3,1.4,1.8,3,3c0.7,0.5,1,1,1.4,1.5c0.2,0.3,0.3,0.3,0.5,0.6l7,6.9
			c0.5,0.5-0.1,0,0.9,1.1c1.3,1.4,2.6,2.6,3.9,4c1,1,2.6,2.4,3.4,3.6C150.6,85.3,150.7,85.4,150.9,85.6L150.9,85.6z"/>
	</g>
</g>
</svg>
